<svg xmlns="http://www.w3.org/2000/svg" xmlns:xlink="http://www.w3.org/1999/xlink" width="1408" height="1686" viewBox="0 0 1408 1686" preserveAspectRatio="xMidYMid meet" font-family="sans-serif" font-size="13">
<rect width="1408" height="1686" fill="white"/>
<text x="12" y="30" font-size="20" font-weight="bold">API-path & RT workloads — daily tip-of-tree (median ms)</text>
<a xlink:href="workloads/rt_renderer.html" href="workloads/rt_renderer.html" target="_top"><text x="68" y="60" font-size="15" font-weight="600" fill="#1a5fb4" text-decoration="underline">rt_renderer<tspan fill="#888" font-weight="400" text-decoration="none">  0.93×</tspan></text></a>
<line x1="68.0" y1="376.0" x2="688.0" y2="376.0" stroke="#eee"/>
<text x="64.0" y="379.0" text-anchor="end" fill="#999">0.0</text>
<line x1="68.0" y1="226.0" x2="688.0" y2="226.0" stroke="#eee"/>
<text x="64.0" y="229.0" text-anchor="end" fill="#999">460</text>
<line x1="68.0" y1="76.0" x2="688.0" y2="76.0" stroke="#eee"/>
<text x="64.0" y="79.0" text-anchor="end" fill="#999">919</text>
<line x1="68.0" y1="76.0" x2="68.0" y2="376.0" stroke="#333"/>
<line x1="68.0" y1="376.0" x2="688.0" y2="376.0" stroke="#333"/>
<line x1="68.0" y1="376.0" x2="68.0" y2="379.0" stroke="#999"/>
<text x="68.0" y="391.0" text-anchor="end" fill="#e8731a" transform="rotate(-50 68.0 391.0)">06-25</text>
<line x1="104.5" y1="376.0" x2="104.5" y2="379.0" stroke="#999"/>
<text x="104.5" y="391.0" text-anchor="end" fill="#e8731a" transform="rotate(-50 104.5 391.0)">06-26</text>
<line x1="140.9" y1="376.0" x2="140.9" y2="379.0" stroke="#999"/>
<text x="140.9" y="391.0" text-anchor="end" fill="#e8731a" transform="rotate(-50 140.9 391.0)">06-28</text>
<line x1="177.4" y1="376.0" x2="177.4" y2="379.0" stroke="#999"/>
<text x="177.4" y="391.0" text-anchor="end" fill="#e8731a" transform="rotate(-50 177.4 391.0)">07-01</text>
<line x1="213.9" y1="376.0" x2="213.9" y2="379.0" stroke="#999"/>
<text x="213.9" y="391.0" text-anchor="end" fill="#e8731a" transform="rotate(-50 213.9 391.0)">07-02</text>
<line x1="250.4" y1="376.0" x2="250.4" y2="379.0" stroke="#999"/>
<text x="250.4" y="391.0" text-anchor="end" fill="#e8731a" transform="rotate(-50 250.4 391.0)">07-03</text>
<line x1="286.8" y1="376.0" x2="286.8" y2="379.0" stroke="#999"/>
<text x="286.8" y="391.0" text-anchor="end" fill="#e8731a" transform="rotate(-50 286.8 391.0)">07-06</text>
<line x1="323.3" y1="376.0" x2="323.3" y2="379.0" stroke="#999"/>
<text x="323.3" y="391.0" text-anchor="end" fill="#e8731a" transform="rotate(-50 323.3 391.0)">07-07</text>
<line x1="359.8" y1="376.0" x2="359.8" y2="379.0" stroke="#999"/>
<text x="359.8" y="391.0" text-anchor="end" fill="#e8731a" transform="rotate(-50 359.8 391.0)">07-08</text>
<line x1="396.2" y1="376.0" x2="396.2" y2="379.0" stroke="#999"/>
<text x="396.2" y="391.0" text-anchor="end" fill="#e8731a" transform="rotate(-50 396.2 391.0)">07-09</text>
<line x1="432.7" y1="376.0" x2="432.7" y2="379.0" stroke="#999"/>
<text x="432.7" y="391.0" text-anchor="end" fill="#e8731a" transform="rotate(-50 432.7 391.0)">07-10</text>
<line x1="469.2" y1="376.0" x2="469.2" y2="379.0" stroke="#999"/>
<text x="469.2" y="391.0" text-anchor="end" fill="#e8731a" transform="rotate(-50 469.2 391.0)">07-11</text>
<line x1="505.6" y1="376.0" x2="505.6" y2="379.0" stroke="#999"/>
<text x="505.6" y="391.0" text-anchor="end" fill="#e8731a" transform="rotate(-50 505.6 391.0)">07-14</text>
<line x1="542.1" y1="376.0" x2="542.1" y2="379.0" stroke="#999"/>
<text x="542.1" y="391.0" text-anchor="end" fill="#e8731a" transform="rotate(-50 542.1 391.0)">07-15</text>
<line x1="578.6" y1="376.0" x2="578.6" y2="379.0" stroke="#999"/>
<text x="578.6" y="391.0" text-anchor="end" fill="#e8731a" transform="rotate(-50 578.6 391.0)">07-15</text>
<line x1="615.1" y1="376.0" x2="615.1" y2="379.0" stroke="#999"/>
<text x="615.1" y="391.0" text-anchor="end" fill="#e8731a" transform="rotate(-50 615.1 391.0)">07-16</text>
<line x1="651.5" y1="376.0" x2="651.5" y2="379.0" stroke="#999"/>
<text x="651.5" y="391.0" text-anchor="end" fill="#e8731a" transform="rotate(-50 651.5 391.0)">07-17</text>
<line x1="688.0" y1="376.0" x2="688.0" y2="379.0" stroke="#999"/>
<text x="688.0" y="391.0" text-anchor="end" fill="#e8731a" transform="rotate(-50 688.0 391.0)">07-18</text>
<polygon points="68.0,338.4 104.5,338.7 140.9,337.9 177.4,339.4 213.9,338.8 250.4,339.3 286.8,338.1 323.3,338.9 359.8,339.1 396.2,338.1 432.7,338.6 469.2,339.5 505.6,339.6 542.1,339.9 578.6,340.7 615.1,340.8 651.5,338.9 688.0,344.6 688.0,376.0 651.5,376.0 615.1,376.0 578.6,376.0 542.1,376.0 505.6,376.0 469.2,376.0 432.7,376.0 396.2,376.0 359.8,376.0 323.3,376.0 286.8,376.0 250.4,376.0 213.9,376.0 177.4,376.0 140.9,376.0 104.5,376.0 68.0,376.0" fill="#c7e9c0" fill-opacity="0.9" stroke="#fff" stroke-width="0.4"><title>rt_renderer — apiCreateGlobalSession</title></polygon>
<polygon points="68.0,338.4 104.5,338.7 140.9,337.9 177.4,339.4 213.9,338.8 250.4,339.3 286.8,338.1 323.3,338.8 359.8,339.1 396.2,338.1 432.7,338.5 469.2,339.5 505.6,339.6 542.1,339.9 578.6,340.7 615.1,340.7 651.5,338.9 688.0,344.6 688.0,344.6 651.5,338.9 615.1,340.8 578.6,340.7 542.1,339.9 505.6,339.6 469.2,339.5 432.7,338.6 396.2,338.1 359.8,339.1 323.3,338.9 286.8,338.1 250.4,339.3 213.9,338.8 177.4,339.4 140.9,337.9 104.5,338.7 68.0,338.4" fill="#41ab5d" fill-opacity="0.9" stroke="#fff" stroke-width="0.4"><title>rt_renderer — apiCreateSession</title></polygon>
<polygon points="68.0,156.5 104.5,156.0 140.9,156.2 177.4,157.4 213.9,152.2 250.4,152.3 286.8,151.2 323.3,151.8 359.8,153.3 396.2,150.4 432.7,148.7 469.2,147.5 505.6,149.6 542.1,159.7 578.6,160.7 615.1,129.8 651.5,128.1 688.0,160.8 688.0,344.6 651.5,338.9 615.1,340.7 578.6,340.7 542.1,339.9 505.6,339.6 469.2,339.5 432.7,338.5 396.2,338.1 359.8,339.1 323.3,338.8 286.8,338.1 250.4,339.3 213.9,338.8 177.4,339.4 140.9,337.9 104.5,338.7 68.0,338.4" fill="#2171b5" fill-opacity="0.9" stroke="#fff" stroke-width="0.4"><title>rt_renderer — apiLoadModule</title></polygon>
<polygon points="68.0,156.5 104.5,156.0 140.9,156.2 177.4,157.4 213.9,152.2 250.4,152.3 286.8,151.2 323.3,151.8 359.8,153.3 396.2,150.4 432.7,148.7 469.2,147.5 505.6,149.6 542.1,159.7 578.6,160.7 615.1,129.8 651.5,128.1 688.0,160.8 688.0,160.8 651.5,128.1 615.1,129.8 578.6,160.7 542.1,159.7 505.6,149.6 469.2,147.5 432.7,148.7 396.2,150.4 359.8,153.3 323.3,151.8 286.8,151.2 250.4,152.3 213.9,152.2 177.4,157.4 140.9,156.2 104.5,156.0 68.0,156.5" fill="#6baed6" fill-opacity="0.9" stroke="#fff" stroke-width="0.4"><title>rt_renderer — apiFindEntryPoint</title></polygon>
<polygon points="68.0,156.5 104.5,156.0 140.9,156.2 177.4,157.3 213.9,152.2 250.4,152.2 286.8,151.2 323.3,151.8 359.8,153.3 396.2,150.4 432.7,148.7 469.2,147.5 505.6,149.6 542.1,159.7 578.6,160.7 615.1,129.8 651.5,128.1 688.0,160.8 688.0,160.8 651.5,128.1 615.1,129.8 578.6,160.7 542.1,159.7 505.6,149.6 469.2,147.5 432.7,148.7 396.2,150.4 359.8,153.3 323.3,151.8 286.8,151.2 250.4,152.3 213.9,152.2 177.4,157.4 140.9,156.2 104.5,156.0 68.0,156.5" fill="#9e9ac8" fill-opacity="0.9" stroke="#fff" stroke-width="0.4"><title>rt_renderer — apiComposite</title></polygon>
<polygon points="68.0,156.4 104.5,155.9 140.9,156.1 177.4,157.3 213.9,152.2 250.4,152.2 286.8,151.1 323.3,151.7 359.8,153.2 396.2,150.3 432.7,148.6 469.2,147.4 505.6,149.5 542.1,159.6 578.6,160.6 615.1,129.7 651.5,128.0 688.0,160.7 688.0,160.8 651.5,128.1 615.1,129.8 578.6,160.7 542.1,159.7 505.6,149.6 469.2,147.5 432.7,148.7 396.2,150.4 359.8,153.3 323.3,151.8 286.8,151.2 250.4,152.2 213.9,152.2 177.4,157.3 140.9,156.2 104.5,156.0 68.0,156.5" fill="#6a51a3" fill-opacity="0.9" stroke="#fff" stroke-width="0.4"><title>rt_renderer — apiLink</title></polygon>
<polygon points="68.0,114.9 104.5,114.4 140.9,115.0 177.4,115.6 213.9,111.2 250.4,112.0 286.8,110.8 323.3,115.4 359.8,116.9 396.2,114.3 432.7,116.4 469.2,115.8 505.6,117.9 542.1,130.5 578.6,131.6 615.1,101.0 651.5,99.1 688.0,134.8 688.0,160.7 651.5,128.0 615.1,129.7 578.6,160.6 542.1,159.6 505.6,149.5 469.2,147.4 432.7,148.6 396.2,150.3 359.8,153.2 323.3,151.7 286.8,151.1 250.4,152.2 213.9,152.2 177.4,157.3 140.9,156.1 104.5,155.9 68.0,156.4" fill="#fd8d3c" fill-opacity="0.9" stroke="#fff" stroke-width="0.4"><title>rt_renderer — apiGetCode</title></polygon>
<polygon points="68.0,114.9 104.5,114.0 140.9,115.0 177.4,115.6 213.9,111.2 250.4,112.0 286.8,110.4 323.3,114.9 359.8,116.9 396.2,114.3 432.7,116.2 469.2,115.8 505.6,117.9 542.1,130.5 578.6,130.7 615.1,99.9 651.5,98.2 688.0,134.1 688.0,134.8 651.5,99.1 615.1,101.0 578.6,131.6 542.1,130.5 505.6,117.9 469.2,115.8 432.7,116.4 396.2,114.3 359.8,116.9 323.3,115.4 286.8,110.8 250.4,112.0 213.9,111.2 177.4,115.6 140.9,115.0 104.5,114.4 68.0,114.9" fill="#969696" fill-opacity="0.9" stroke="#fff" stroke-width="0.4"><title>rt_renderer — apiTotal (self)</title></polygon>
<a xlink:href="workloads/rt_renderer_specialize.html" href="workloads/rt_renderer_specialize.html" target="_top"><text x="764" y="60" font-size="15" font-weight="600" fill="#1a5fb4" text-decoration="underline">rt_renderer_specialize<tspan fill="#888" font-weight="400" text-decoration="none">  0.81×</tspan></text></a>
<line x1="764.0" y1="376.0" x2="1384.0" y2="376.0" stroke="#eee"/>
<text x="760.0" y="379.0" text-anchor="end" fill="#999">0.0</text>
<line x1="764.0" y1="226.0" x2="1384.0" y2="226.0" stroke="#eee"/>
<text x="760.0" y="229.0" text-anchor="end" fill="#999">900</text>
<line x1="764.0" y1="76.0" x2="1384.0" y2="76.0" stroke="#eee"/>
<text x="760.0" y="79.0" text-anchor="end" fill="#999">1799</text>
<line x1="764.0" y1="76.0" x2="764.0" y2="376.0" stroke="#333"/>
<line x1="764.0" y1="376.0" x2="1384.0" y2="376.0" stroke="#333"/>
<line x1="764.0" y1="376.0" x2="764.0" y2="379.0" stroke="#999"/>
<text x="764.0" y="391.0" text-anchor="end" fill="#e8731a" transform="rotate(-50 764.0 391.0)">06-25</text>
<line x1="800.5" y1="376.0" x2="800.5" y2="379.0" stroke="#999"/>
<text x="800.5" y="391.0" text-anchor="end" fill="#e8731a" transform="rotate(-50 800.5 391.0)">06-26</text>
<line x1="836.9" y1="376.0" x2="836.9" y2="379.0" stroke="#999"/>
<text x="836.9" y="391.0" text-anchor="end" fill="#e8731a" transform="rotate(-50 836.9 391.0)">06-28</text>
<line x1="873.4" y1="376.0" x2="873.4" y2="379.0" stroke="#999"/>
<text x="873.4" y="391.0" text-anchor="end" fill="#e8731a" transform="rotate(-50 873.4 391.0)">07-01</text>
<line x1="909.9" y1="376.0" x2="909.9" y2="379.0" stroke="#999"/>
<text x="909.9" y="391.0" text-anchor="end" fill="#e8731a" transform="rotate(-50 909.9 391.0)">07-02</text>
<line x1="946.4" y1="376.0" x2="946.4" y2="379.0" stroke="#999"/>
<text x="946.4" y="391.0" text-anchor="end" fill="#e8731a" transform="rotate(-50 946.4 391.0)">07-03</text>
<line x1="982.8" y1="376.0" x2="982.8" y2="379.0" stroke="#999"/>
<text x="982.8" y="391.0" text-anchor="end" fill="#e8731a" transform="rotate(-50 982.8 391.0)">07-06</text>
<line x1="1019.3" y1="376.0" x2="1019.3" y2="379.0" stroke="#999"/>
<text x="1019.3" y="391.0" text-anchor="end" fill="#e8731a" transform="rotate(-50 1019.3 391.0)">07-07</text>
<line x1="1055.8" y1="376.0" x2="1055.8" y2="379.0" stroke="#999"/>
<text x="1055.8" y="391.0" text-anchor="end" fill="#e8731a" transform="rotate(-50 1055.8 391.0)">07-08</text>
<line x1="1092.2" y1="376.0" x2="1092.2" y2="379.0" stroke="#999"/>
<text x="1092.2" y="391.0" text-anchor="end" fill="#e8731a" transform="rotate(-50 1092.2 391.0)">07-09</text>
<line x1="1128.7" y1="376.0" x2="1128.7" y2="379.0" stroke="#999"/>
<text x="1128.7" y="391.0" text-anchor="end" fill="#e8731a" transform="rotate(-50 1128.7 391.0)">07-10</text>
<line x1="1165.2" y1="376.0" x2="1165.2" y2="379.0" stroke="#999"/>
<text x="1165.2" y="391.0" text-anchor="end" fill="#e8731a" transform="rotate(-50 1165.2 391.0)">07-11</text>
<line x1="1201.6" y1="376.0" x2="1201.6" y2="379.0" stroke="#999"/>
<text x="1201.6" y="391.0" text-anchor="end" fill="#e8731a" transform="rotate(-50 1201.6 391.0)">07-14</text>
<line x1="1238.1" y1="376.0" x2="1238.1" y2="379.0" stroke="#999"/>
<text x="1238.1" y="391.0" text-anchor="end" fill="#e8731a" transform="rotate(-50 1238.1 391.0)">07-15</text>
<line x1="1274.6" y1="376.0" x2="1274.6" y2="379.0" stroke="#999"/>
<text x="1274.6" y="391.0" text-anchor="end" fill="#e8731a" transform="rotate(-50 1274.6 391.0)">07-15</text>
<line x1="1311.1" y1="376.0" x2="1311.1" y2="379.0" stroke="#999"/>
<text x="1311.1" y="391.0" text-anchor="end" fill="#e8731a" transform="rotate(-50 1311.1 391.0)">07-16</text>
<line x1="1347.5" y1="376.0" x2="1347.5" y2="379.0" stroke="#999"/>
<text x="1347.5" y="391.0" text-anchor="end" fill="#e8731a" transform="rotate(-50 1347.5 391.0)">07-17</text>
<line x1="1384.0" y1="376.0" x2="1384.0" y2="379.0" stroke="#999"/>
<text x="1384.0" y="391.0" text-anchor="end" fill="#e8731a" transform="rotate(-50 1384.0 391.0)">07-18</text>
<polygon points="764.0,357.3 800.5,357.2 836.9,356.4 873.4,357.4 909.9,357.1 946.4,357.3 982.8,356.8 1019.3,357.2 1055.8,357.2 1092.2,356.7 1128.7,357.3 1165.2,357.4 1201.6,357.5 1238.1,357.7 1274.6,357.8 1311.1,357.5 1347.5,357.7 1384.0,359.9 1384.0,376.0 1347.5,376.0 1311.1,376.0 1274.6,376.0 1238.1,376.0 1201.6,376.0 1165.2,376.0 1128.7,376.0 1092.2,376.0 1055.8,376.0 1019.3,376.0 982.8,376.0 946.4,376.0 909.9,376.0 873.4,376.0 836.9,376.0 800.5,376.0 764.0,376.0" fill="#c7e9c0" fill-opacity="0.9" stroke="#fff" stroke-width="0.4"><title>rt_renderer_specialize — apiCreateGlobalSession</title></polygon>
<polygon points="764.0,357.3 800.5,357.2 836.9,356.4 873.4,357.4 909.9,357.1 946.4,357.3 982.8,356.8 1019.3,357.2 1055.8,357.2 1092.2,356.7 1128.7,357.3 1165.2,357.4 1201.6,357.5 1238.1,357.7 1274.6,357.8 1311.1,357.5 1347.5,357.6 1384.0,359.9 1384.0,359.9 1347.5,357.7 1311.1,357.5 1274.6,357.8 1238.1,357.7 1201.6,357.5 1165.2,357.4 1128.7,357.3 1092.2,356.7 1055.8,357.2 1019.3,357.2 982.8,356.8 946.4,357.3 909.9,357.1 873.4,357.4 836.9,356.4 800.5,357.2 764.0,357.3" fill="#41ab5d" fill-opacity="0.9" stroke="#fff" stroke-width="0.4"><title>rt_renderer_specialize — apiCreateSession</title></polygon>
<polygon points="764.0,264.7 800.5,264.6 836.9,263.5 873.4,264.6 909.9,262.1 946.4,261.9 982.8,261.1 1019.3,261.8 1055.8,263.3 1092.2,261.7 1128.7,261.4 1165.2,260.2 1201.6,262.0 1238.1,266.5 1274.6,266.2 1311.1,250.6 1347.5,251.3 1384.0,267.8 1384.0,359.9 1347.5,357.6 1311.1,357.5 1274.6,357.8 1238.1,357.7 1201.6,357.5 1165.2,357.4 1128.7,357.3 1092.2,356.7 1055.8,357.2 1019.3,357.2 982.8,356.8 946.4,357.3 909.9,357.1 873.4,357.4 836.9,356.4 800.5,357.2 764.0,357.3" fill="#2171b5" fill-opacity="0.9" stroke="#fff" stroke-width="0.4"><title>rt_renderer_specialize — apiLoadModule</title></polygon>
<polygon points="764.0,264.6 800.5,264.4 836.9,263.3 873.4,264.5 909.9,261.9 946.4,261.7 982.8,261.0 1019.3,261.6 1055.8,263.1 1092.2,261.5 1128.7,261.2 1165.2,260.0 1201.6,261.9 1238.1,266.3 1274.6,266.0 1311.1,250.4 1347.5,251.1 1384.0,267.6 1384.0,267.8 1347.5,251.3 1311.1,250.6 1274.6,266.2 1238.1,266.5 1201.6,262.0 1165.2,260.2 1128.7,261.4 1092.2,261.7 1055.8,263.3 1019.3,261.8 982.8,261.1 946.4,261.9 909.9,262.1 873.4,264.6 836.9,263.5 800.5,264.6 764.0,264.7" fill="#9e9ac8" fill-opacity="0.9" stroke="#fff" stroke-width="0.4"><title>rt_renderer_specialize — apiComposite</title></polygon>
<polygon points="764.0,261.3 800.5,261.1 836.9,260.0 873.4,261.2 909.9,258.6 946.4,258.2 982.8,257.6 1019.3,258.1 1055.8,259.8 1092.2,258.1 1128.7,257.9 1165.2,256.5 1201.6,258.5 1238.1,263.2 1274.6,262.9 1311.1,247.1 1347.5,247.9 1384.0,265.2 1384.0,267.6 1347.5,251.1 1311.1,250.4 1274.6,266.0 1238.1,266.3 1201.6,261.9 1165.2,260.0 1128.7,261.2 1092.2,261.5 1055.8,263.1 1019.3,261.6 982.8,261.0 946.4,261.7 909.9,261.9 873.4,264.5 836.9,263.3 800.5,264.4 764.0,264.6" fill="#807dba" fill-opacity="0.9" stroke="#fff" stroke-width="0.4"><title>rt_renderer_specialize — apiSpecialize</title></polygon>
<polygon points="764.0,260.6 800.5,260.4 836.9,259.3 873.4,260.5 909.9,257.9 946.4,257.4 982.8,256.9 1019.3,257.4 1055.8,259.1 1092.2,257.4 1128.7,257.2 1165.2,255.8 1201.6,257.8 1238.1,262.4 1274.6,262.1 1311.1,246.3 1347.5,247.1 1384.0,264.4 1384.0,265.2 1347.5,247.9 1311.1,247.1 1274.6,262.9 1238.1,263.2 1201.6,258.5 1165.2,256.5 1128.7,257.9 1092.2,258.1 1055.8,259.8 1019.3,258.1 982.8,257.6 946.4,258.2 909.9,258.6 873.4,261.2 836.9,260.0 800.5,261.1 764.0,261.3" fill="#6a51a3" fill-opacity="0.9" stroke="#fff" stroke-width="0.4"><title>rt_renderer_specialize — apiLink</title></polygon>
<polygon points="764.0,104.3 800.5,103.6 836.9,102.8 873.4,102.0 909.9,99.2 946.4,100.1 982.8,98.2 1019.3,107.0 1055.8,109.4 1092.2,107.4 1128.7,111.0 1165.2,114.1 1201.6,115.0 1238.1,136.0 1274.6,135.0 1311.1,120.1 1347.5,120.2 1384.0,155.6 1384.0,264.4 1347.5,247.1 1311.1,246.3 1274.6,262.1 1238.1,262.4 1201.6,257.8 1165.2,255.8 1128.7,257.2 1092.2,257.4 1055.8,259.1 1019.3,257.4 982.8,256.9 946.4,257.4 909.9,257.9 873.4,260.5 836.9,259.3 800.5,260.4 764.0,260.6" fill="#fd8d3c" fill-opacity="0.9" stroke="#fff" stroke-width="0.4"><title>rt_renderer_specialize — apiGetCode</title></polygon>
<polygon points="764.0,104.0 800.5,102.0 836.9,102.1 873.4,101.3 909.9,98.6 946.4,99.2 982.8,98.2 1019.3,106.2 1055.8,109.1 1092.2,107.2 1128.7,110.6 1165.2,113.3 1201.6,114.7 1238.1,135.8 1274.6,134.8 1311.1,119.9 1347.5,120.1 1384.0,154.9 1384.0,155.6 1347.5,120.2 1311.1,120.1 1274.6,135.0 1238.1,136.0 1201.6,115.0 1165.2,114.1 1128.7,111.0 1092.2,107.4 1055.8,109.4 1019.3,107.0 982.8,98.2 946.4,100.1 909.9,99.2 873.4,102.0 836.9,102.8 800.5,103.6 764.0,104.3" fill="#969696" fill-opacity="0.9" stroke="#fff" stroke-width="0.4"><title>rt_renderer_specialize — apiTotal (self)</title></polygon>
<a xlink:href="workloads/api_session_create.html" href="workloads/api_session_create.html" target="_top"><text x="68" y="448" font-size="15" font-weight="600" fill="#1a5fb4" text-decoration="underline">api_session_create<tspan fill="#888" font-weight="400" text-decoration="none">  0.66×</tspan></text></a>
<line x1="68.0" y1="764.0" x2="688.0" y2="764.0" stroke="#eee"/>
<text x="64.0" y="767.0" text-anchor="end" fill="#999">0.0</text>
<line x1="68.0" y1="614.0" x2="688.0" y2="614.0" stroke="#eee"/>
<text x="64.0" y="617.0" text-anchor="end" fill="#999">712</text>
<line x1="68.0" y1="464.0" x2="688.0" y2="464.0" stroke="#eee"/>
<text x="64.0" y="467.0" text-anchor="end" fill="#999">1424</text>
<line x1="68.0" y1="464.0" x2="68.0" y2="764.0" stroke="#333"/>
<line x1="68.0" y1="764.0" x2="688.0" y2="764.0" stroke="#333"/>
<line x1="68.0" y1="764.0" x2="68.0" y2="767.0" stroke="#999"/>
<text x="68.0" y="779.0" text-anchor="end" fill="#e8731a" transform="rotate(-50 68.0 779.0)">06-25</text>
<line x1="104.5" y1="764.0" x2="104.5" y2="767.0" stroke="#999"/>
<text x="104.5" y="779.0" text-anchor="end" fill="#e8731a" transform="rotate(-50 104.5 779.0)">06-26</text>
<line x1="140.9" y1="764.0" x2="140.9" y2="767.0" stroke="#999"/>
<text x="140.9" y="779.0" text-anchor="end" fill="#e8731a" transform="rotate(-50 140.9 779.0)">06-28</text>
<line x1="177.4" y1="764.0" x2="177.4" y2="767.0" stroke="#999"/>
<text x="177.4" y="779.0" text-anchor="end" fill="#e8731a" transform="rotate(-50 177.4 779.0)">07-01</text>
<line x1="213.9" y1="764.0" x2="213.9" y2="767.0" stroke="#999"/>
<text x="213.9" y="779.0" text-anchor="end" fill="#e8731a" transform="rotate(-50 213.9 779.0)">07-02</text>
<line x1="250.4" y1="764.0" x2="250.4" y2="767.0" stroke="#999"/>
<text x="250.4" y="779.0" text-anchor="end" fill="#e8731a" transform="rotate(-50 250.4 779.0)">07-03</text>
<line x1="286.8" y1="764.0" x2="286.8" y2="767.0" stroke="#999"/>
<text x="286.8" y="779.0" text-anchor="end" fill="#e8731a" transform="rotate(-50 286.8 779.0)">07-06</text>
<line x1="323.3" y1="764.0" x2="323.3" y2="767.0" stroke="#999"/>
<text x="323.3" y="779.0" text-anchor="end" fill="#e8731a" transform="rotate(-50 323.3 779.0)">07-07</text>
<line x1="359.8" y1="764.0" x2="359.8" y2="767.0" stroke="#999"/>
<text x="359.8" y="779.0" text-anchor="end" fill="#e8731a" transform="rotate(-50 359.8 779.0)">07-08</text>
<line x1="396.2" y1="764.0" x2="396.2" y2="767.0" stroke="#999"/>
<text x="396.2" y="779.0" text-anchor="end" fill="#e8731a" transform="rotate(-50 396.2 779.0)">07-09</text>
<line x1="432.7" y1="764.0" x2="432.7" y2="767.0" stroke="#999"/>
<text x="432.7" y="779.0" text-anchor="end" fill="#e8731a" transform="rotate(-50 432.7 779.0)">07-10</text>
<line x1="469.2" y1="764.0" x2="469.2" y2="767.0" stroke="#999"/>
<text x="469.2" y="779.0" text-anchor="end" fill="#e8731a" transform="rotate(-50 469.2 779.0)">07-11</text>
<line x1="505.6" y1="764.0" x2="505.6" y2="767.0" stroke="#999"/>
<text x="505.6" y="779.0" text-anchor="end" fill="#e8731a" transform="rotate(-50 505.6 779.0)">07-14</text>
<line x1="542.1" y1="764.0" x2="542.1" y2="767.0" stroke="#999"/>
<text x="542.1" y="779.0" text-anchor="end" fill="#e8731a" transform="rotate(-50 542.1 779.0)">07-15</text>
<line x1="578.6" y1="764.0" x2="578.6" y2="767.0" stroke="#999"/>
<text x="578.6" y="779.0" text-anchor="end" fill="#e8731a" transform="rotate(-50 578.6 779.0)">07-15</text>
<line x1="615.1" y1="764.0" x2="615.1" y2="767.0" stroke="#999"/>
<text x="615.1" y="779.0" text-anchor="end" fill="#e8731a" transform="rotate(-50 615.1 779.0)">07-16</text>
<line x1="651.5" y1="764.0" x2="651.5" y2="767.0" stroke="#999"/>
<text x="651.5" y="779.0" text-anchor="end" fill="#e8731a" transform="rotate(-50 651.5 779.0)">07-17</text>
<line x1="688.0" y1="764.0" x2="688.0" y2="767.0" stroke="#999"/>
<text x="688.0" y="779.0" text-anchor="end" fill="#e8731a" transform="rotate(-50 688.0 779.0)">07-18</text>
<polygon points="68.0,526.2 104.5,524.7 140.9,519.3 177.4,524.6 213.9,522.1 250.4,523.4 286.8,521.0 323.3,525.5 359.8,521.7 396.2,522.1 432.7,522.1 469.2,524.5 505.6,526.3 542.1,544.5 578.6,544.5 615.1,544.5 651.5,544.6 688.0,590.9 688.0,764.0 651.5,764.0 615.1,764.0 578.6,764.0 542.1,764.0 505.6,764.0 469.2,764.0 432.7,764.0 396.2,764.0 359.8,764.0 323.3,764.0 286.8,764.0 250.4,764.0 213.9,764.0 177.4,764.0 140.9,764.0 104.5,764.0 68.0,764.0" fill="#c7e9c0" fill-opacity="0.9" stroke="#fff" stroke-width="0.4"><title>api_session_create — apiCreateGlobalSession</title></polygon>
<polygon points="68.0,526.2 104.5,524.6 140.9,519.2 177.4,524.6 213.9,522.0 250.4,523.3 286.8,521.0 323.3,525.5 359.8,521.6 396.2,522.0 432.7,522.0 469.2,524.4 505.6,526.3 542.1,544.4 578.6,544.4 615.1,544.5 651.5,544.6 688.0,590.9 688.0,590.9 651.5,544.6 615.1,544.5 578.6,544.5 542.1,544.5 505.6,526.3 469.2,524.5 432.7,522.1 396.2,522.1 359.8,521.7 323.3,525.5 286.8,521.0 250.4,523.4 213.9,522.1 177.4,524.6 140.9,519.3 104.5,524.7 68.0,526.2" fill="#41ab5d" fill-opacity="0.9" stroke="#fff" stroke-width="0.4"><title>api_session_create — apiCreateSession</title></polygon>
<polygon points="68.0,492.8 104.5,491.4 140.9,486.4 177.4,491.1 213.9,488.2 250.4,490.5 286.8,488.0 323.3,492.2 359.8,486.8 396.2,486.2 432.7,488.8 469.2,491.7 505.6,493.4 542.1,522.3 578.6,522.9 615.1,521.8 651.5,523.9 688.0,585.1 688.0,590.9 651.5,544.6 615.1,544.5 578.6,544.4 542.1,544.4 505.6,526.3 469.2,524.4 432.7,522.0 396.2,522.0 359.8,521.6 323.3,525.5 286.8,521.0 250.4,523.3 213.9,522.0 177.4,524.6 140.9,519.2 104.5,524.6 68.0,526.2" fill="#969696" fill-opacity="0.9" stroke="#fff" stroke-width="0.4"><title>api_session_create — apiTotal (self)</title></polygon>
<a xlink:href="workloads/api_many_kernels.html" href="workloads/api_many_kernels.html" target="_top"><text x="764" y="448" font-size="15" font-weight="600" fill="#1a5fb4" text-decoration="underline">api_many_kernels<tspan fill="#888" font-weight="400" text-decoration="none">  0.66×</tspan></text></a>
<line x1="764.0" y1="764.0" x2="1384.0" y2="764.0" stroke="#eee"/>
<text x="760.0" y="767.0" text-anchor="end" fill="#999">0.0</text>
<line x1="764.0" y1="614.0" x2="1384.0" y2="614.0" stroke="#eee"/>
<text x="760.0" y="617.0" text-anchor="end" fill="#999">540</text>
<line x1="764.0" y1="464.0" x2="1384.0" y2="464.0" stroke="#eee"/>
<text x="760.0" y="467.0" text-anchor="end" fill="#999">1080</text>
<line x1="764.0" y1="464.0" x2="764.0" y2="764.0" stroke="#333"/>
<line x1="764.0" y1="764.0" x2="1384.0" y2="764.0" stroke="#333"/>
<line x1="764.0" y1="764.0" x2="764.0" y2="767.0" stroke="#999"/>
<text x="764.0" y="779.0" text-anchor="end" fill="#e8731a" transform="rotate(-50 764.0 779.0)">06-25</text>
<line x1="800.5" y1="764.0" x2="800.5" y2="767.0" stroke="#999"/>
<text x="800.5" y="779.0" text-anchor="end" fill="#e8731a" transform="rotate(-50 800.5 779.0)">06-26</text>
<line x1="836.9" y1="764.0" x2="836.9" y2="767.0" stroke="#999"/>
<text x="836.9" y="779.0" text-anchor="end" fill="#e8731a" transform="rotate(-50 836.9 779.0)">06-28</text>
<line x1="873.4" y1="764.0" x2="873.4" y2="767.0" stroke="#999"/>
<text x="873.4" y="779.0" text-anchor="end" fill="#e8731a" transform="rotate(-50 873.4 779.0)">07-01</text>
<line x1="909.9" y1="764.0" x2="909.9" y2="767.0" stroke="#999"/>
<text x="909.9" y="779.0" text-anchor="end" fill="#e8731a" transform="rotate(-50 909.9 779.0)">07-02</text>
<line x1="946.4" y1="764.0" x2="946.4" y2="767.0" stroke="#999"/>
<text x="946.4" y="779.0" text-anchor="end" fill="#e8731a" transform="rotate(-50 946.4 779.0)">07-03</text>
<line x1="982.8" y1="764.0" x2="982.8" y2="767.0" stroke="#999"/>
<text x="982.8" y="779.0" text-anchor="end" fill="#e8731a" transform="rotate(-50 982.8 779.0)">07-06</text>
<line x1="1019.3" y1="764.0" x2="1019.3" y2="767.0" stroke="#999"/>
<text x="1019.3" y="779.0" text-anchor="end" fill="#e8731a" transform="rotate(-50 1019.3 779.0)">07-07</text>
<line x1="1055.8" y1="764.0" x2="1055.8" y2="767.0" stroke="#999"/>
<text x="1055.8" y="779.0" text-anchor="end" fill="#e8731a" transform="rotate(-50 1055.8 779.0)">07-08</text>
<line x1="1092.2" y1="764.0" x2="1092.2" y2="767.0" stroke="#999"/>
<text x="1092.2" y="779.0" text-anchor="end" fill="#e8731a" transform="rotate(-50 1092.2 779.0)">07-09</text>
<line x1="1128.7" y1="764.0" x2="1128.7" y2="767.0" stroke="#999"/>
<text x="1128.7" y="779.0" text-anchor="end" fill="#e8731a" transform="rotate(-50 1128.7 779.0)">07-10</text>
<line x1="1165.2" y1="764.0" x2="1165.2" y2="767.0" stroke="#999"/>
<text x="1165.2" y="779.0" text-anchor="end" fill="#e8731a" transform="rotate(-50 1165.2 779.0)">07-11</text>
<line x1="1201.6" y1="764.0" x2="1201.6" y2="767.0" stroke="#999"/>
<text x="1201.6" y="779.0" text-anchor="end" fill="#e8731a" transform="rotate(-50 1201.6 779.0)">07-14</text>
<line x1="1238.1" y1="764.0" x2="1238.1" y2="767.0" stroke="#999"/>
<text x="1238.1" y="779.0" text-anchor="end" fill="#e8731a" transform="rotate(-50 1238.1 779.0)">07-15</text>
<line x1="1274.6" y1="764.0" x2="1274.6" y2="767.0" stroke="#999"/>
<text x="1274.6" y="779.0" text-anchor="end" fill="#e8731a" transform="rotate(-50 1274.6 779.0)">07-15</text>
<line x1="1311.1" y1="764.0" x2="1311.1" y2="767.0" stroke="#999"/>
<text x="1311.1" y="779.0" text-anchor="end" fill="#e8731a" transform="rotate(-50 1311.1 779.0)">07-16</text>
<line x1="1347.5" y1="764.0" x2="1347.5" y2="767.0" stroke="#999"/>
<text x="1347.5" y="779.0" text-anchor="end" fill="#e8731a" transform="rotate(-50 1347.5 779.0)">07-17</text>
<line x1="1384.0" y1="764.0" x2="1384.0" y2="767.0" stroke="#999"/>
<text x="1384.0" y="779.0" text-anchor="end" fill="#e8731a" transform="rotate(-50 1384.0 779.0)">07-18</text>
<polygon points="764.0,732.0 800.5,731.9 836.9,730.9 873.4,732.5 909.9,732.2 946.4,732.1 982.8,731.8 1019.3,732.6 1055.8,732.4 1092.2,732.5 1128.7,732.8 1165.2,733.1 1201.6,732.4 1238.1,733.3 1274.6,733.6 1311.1,733.8 1347.5,733.1 1384.0,737.4 1384.0,764.0 1347.5,764.0 1311.1,764.0 1274.6,764.0 1238.1,764.0 1201.6,764.0 1165.2,764.0 1128.7,764.0 1092.2,764.0 1055.8,764.0 1019.3,764.0 982.8,764.0 946.4,764.0 909.9,764.0 873.4,764.0 836.9,764.0 800.5,764.0 764.0,764.0" fill="#c7e9c0" fill-opacity="0.9" stroke="#fff" stroke-width="0.4"><title>api_many_kernels — apiCreateGlobalSession</title></polygon>
<polygon points="764.0,732.0 800.5,731.9 836.9,730.9 873.4,732.5 909.9,732.1 946.4,732.1 982.8,731.8 1019.3,732.6 1055.8,732.4 1092.2,732.5 1128.7,732.7 1165.2,733.1 1201.6,732.4 1238.1,733.3 1274.6,733.6 1311.1,733.8 1347.5,733.1 1384.0,737.4 1384.0,737.4 1347.5,733.1 1311.1,733.8 1274.6,733.6 1238.1,733.3 1201.6,732.4 1165.2,733.1 1128.7,732.8 1092.2,732.5 1055.8,732.4 1019.3,732.6 982.8,731.8 946.4,732.1 909.9,732.2 873.4,732.5 836.9,730.9 800.5,731.9 764.0,732.0" fill="#41ab5d" fill-opacity="0.9" stroke="#fff" stroke-width="0.4"><title>api_many_kernels — apiCreateSession</title></polygon>
<polygon points="764.0,637.2 800.5,637.4 836.9,637.0 873.4,638.3 909.9,635.0 946.4,634.2 982.8,634.6 1019.3,634.1 1055.8,633.8 1092.2,634.2 1128.7,634.4 1165.2,635.2 1201.6,635.5 1238.1,640.2 1274.6,641.0 1311.1,628.0 1347.5,627.8 1384.0,649.8 1384.0,737.4 1347.5,733.1 1311.1,733.8 1274.6,733.6 1238.1,733.3 1201.6,732.4 1165.2,733.1 1128.7,732.7 1092.2,732.5 1055.8,732.4 1019.3,732.6 982.8,731.8 946.4,732.1 909.9,732.1 873.4,732.5 836.9,730.9 800.5,731.9 764.0,732.0" fill="#2171b5" fill-opacity="0.9" stroke="#fff" stroke-width="0.4"><title>api_many_kernels — apiLoadModule</title></polygon>
<polygon points="764.0,637.2 800.5,637.3 836.9,637.0 873.4,638.2 909.9,635.0 946.4,634.2 982.8,634.6 1019.3,634.1 1055.8,633.8 1092.2,634.2 1128.7,634.4 1165.2,635.2 1201.6,635.5 1238.1,640.2 1274.6,641.0 1311.1,628.0 1347.5,627.8 1384.0,649.7 1384.0,649.8 1347.5,627.8 1311.1,628.0 1274.6,641.0 1238.1,640.2 1201.6,635.5 1165.2,635.2 1128.7,634.4 1092.2,634.2 1055.8,633.8 1019.3,634.1 982.8,634.6 946.4,634.2 909.9,635.0 873.4,638.3 836.9,637.0 800.5,637.4 764.0,637.2" fill="#6baed6" fill-opacity="0.9" stroke="#fff" stroke-width="0.4"><title>api_many_kernels — apiFindEntryPoint</title></polygon>
<polygon points="764.0,637.1 800.5,637.3 836.9,636.9 873.4,638.2 909.9,634.9 946.4,634.1 982.8,634.5 1019.3,634.0 1055.8,633.7 1092.2,634.1 1128.7,634.3 1165.2,635.1 1201.6,635.4 1238.1,640.2 1274.6,640.9 1311.1,628.0 1347.5,627.7 1384.0,649.7 1384.0,649.7 1347.5,627.8 1311.1,628.0 1274.6,641.0 1238.1,640.2 1201.6,635.5 1165.2,635.2 1128.7,634.4 1092.2,634.2 1055.8,633.8 1019.3,634.1 982.8,634.6 946.4,634.2 909.9,635.0 873.4,638.2 836.9,637.0 800.5,637.3 764.0,637.2" fill="#9e9ac8" fill-opacity="0.9" stroke="#fff" stroke-width="0.4"><title>api_many_kernels — apiComposite</title></polygon>
<polygon points="764.0,637.1 800.5,637.2 836.9,636.9 873.4,638.2 909.9,634.9 946.4,634.1 982.8,634.5 1019.3,634.0 1055.8,633.7 1092.2,634.1 1128.7,634.3 1165.2,635.1 1201.6,635.4 1238.1,640.2 1274.6,640.9 1311.1,628.0 1347.5,627.7 1384.0,649.7 1384.0,649.7 1347.5,627.7 1311.1,628.0 1274.6,640.9 1238.1,640.2 1201.6,635.4 1165.2,635.1 1128.7,634.3 1092.2,634.1 1055.8,633.7 1019.3,634.0 982.8,634.5 946.4,634.1 909.9,634.9 873.4,638.2 836.9,636.9 800.5,637.3 764.0,637.1" fill="#6a51a3" fill-opacity="0.9" stroke="#fff" stroke-width="0.4"><title>api_many_kernels — apiLink</title></polygon>
<polygon points="764.0,494.0 800.5,494.1 836.9,495.8 873.4,496.4 909.9,490.2 946.4,490.8 982.8,490.3 1019.3,548.3 1055.8,548.5 1092.2,548.9 1128.7,548.9 1165.2,550.9 1201.6,551.4 1238.1,569.2 1274.6,570.1 1311.1,557.5 1347.5,556.7 1384.0,586.2 1384.0,649.7 1347.5,627.7 1311.1,628.0 1274.6,640.9 1238.1,640.2 1201.6,635.4 1165.2,635.1 1128.7,634.3 1092.2,634.1 1055.8,633.7 1019.3,634.0 982.8,634.5 946.4,634.1 909.9,634.9 873.4,638.2 836.9,636.9 800.5,637.2 764.0,637.1" fill="#fd8d3c" fill-opacity="0.9" stroke="#fff" stroke-width="0.4"><title>api_many_kernels — apiGetCode</title></polygon>
<polygon points="764.0,491.8 800.5,492.2 836.9,492.8 873.4,493.6 909.9,487.9 946.4,488.1 982.8,486.2 1019.3,545.3 1055.8,545.3 1092.2,546.4 1128.7,546.5 1165.2,547.3 1201.6,548.5 1238.1,567.1 1274.6,567.6 1311.1,555.2 1347.5,554.7 1384.0,583.5 1384.0,586.2 1347.5,556.7 1311.1,557.5 1274.6,570.1 1238.1,569.2 1201.6,551.4 1165.2,550.9 1128.7,548.9 1092.2,548.9 1055.8,548.5 1019.3,548.3 982.8,490.3 946.4,490.8 909.9,490.2 873.4,496.4 836.9,495.8 800.5,494.1 764.0,494.0" fill="#969696" fill-opacity="0.9" stroke="#fff" stroke-width="0.4"><title>api_many_kernels — apiTotal (self)</title></polygon>
<a xlink:href="workloads/api_module_graph.html" href="workloads/api_module_graph.html" target="_top"><text x="68" y="836" font-size="15" font-weight="600" fill="#1a5fb4" text-decoration="underline">api_module_graph<tspan fill="#888" font-weight="400" text-decoration="none">  0.96×</tspan></text></a>
<line x1="68.0" y1="1152.0" x2="688.0" y2="1152.0" stroke="#eee"/>
<text x="64.0" y="1155.0" text-anchor="end" fill="#999">0.0</text>
<line x1="68.0" y1="1002.0" x2="688.0" y2="1002.0" stroke="#eee"/>
<text x="64.0" y="1005.0" text-anchor="end" fill="#999">478</text>
<line x1="68.0" y1="852.0" x2="688.0" y2="852.0" stroke="#eee"/>
<text x="64.0" y="855.0" text-anchor="end" fill="#999">956</text>
<line x1="68.0" y1="852.0" x2="68.0" y2="1152.0" stroke="#333"/>
<line x1="68.0" y1="1152.0" x2="688.0" y2="1152.0" stroke="#333"/>
<line x1="68.0" y1="1152.0" x2="68.0" y2="1155.0" stroke="#999"/>
<text x="68.0" y="1167.0" text-anchor="end" fill="#e8731a" transform="rotate(-50 68.0 1167.0)">06-25</text>
<line x1="104.5" y1="1152.0" x2="104.5" y2="1155.0" stroke="#999"/>
<text x="104.5" y="1167.0" text-anchor="end" fill="#e8731a" transform="rotate(-50 104.5 1167.0)">06-26</text>
<line x1="140.9" y1="1152.0" x2="140.9" y2="1155.0" stroke="#999"/>
<text x="140.9" y="1167.0" text-anchor="end" fill="#e8731a" transform="rotate(-50 140.9 1167.0)">06-28</text>
<line x1="177.4" y1="1152.0" x2="177.4" y2="1155.0" stroke="#999"/>
<text x="177.4" y="1167.0" text-anchor="end" fill="#e8731a" transform="rotate(-50 177.4 1167.0)">07-01</text>
<line x1="213.9" y1="1152.0" x2="213.9" y2="1155.0" stroke="#999"/>
<text x="213.9" y="1167.0" text-anchor="end" fill="#e8731a" transform="rotate(-50 213.9 1167.0)">07-02</text>
<line x1="250.4" y1="1152.0" x2="250.4" y2="1155.0" stroke="#999"/>
<text x="250.4" y="1167.0" text-anchor="end" fill="#e8731a" transform="rotate(-50 250.4 1167.0)">07-03</text>
<line x1="286.8" y1="1152.0" x2="286.8" y2="1155.0" stroke="#999"/>
<text x="286.8" y="1167.0" text-anchor="end" fill="#e8731a" transform="rotate(-50 286.8 1167.0)">07-06</text>
<line x1="323.3" y1="1152.0" x2="323.3" y2="1155.0" stroke="#999"/>
<text x="323.3" y="1167.0" text-anchor="end" fill="#e8731a" transform="rotate(-50 323.3 1167.0)">07-07</text>
<line x1="359.8" y1="1152.0" x2="359.8" y2="1155.0" stroke="#999"/>
<text x="359.8" y="1167.0" text-anchor="end" fill="#e8731a" transform="rotate(-50 359.8 1167.0)">07-08</text>
<line x1="396.2" y1="1152.0" x2="396.2" y2="1155.0" stroke="#999"/>
<text x="396.2" y="1167.0" text-anchor="end" fill="#e8731a" transform="rotate(-50 396.2 1167.0)">07-09</text>
<line x1="432.7" y1="1152.0" x2="432.7" y2="1155.0" stroke="#999"/>
<text x="432.7" y="1167.0" text-anchor="end" fill="#e8731a" transform="rotate(-50 432.7 1167.0)">07-10</text>
<line x1="469.2" y1="1152.0" x2="469.2" y2="1155.0" stroke="#999"/>
<text x="469.2" y="1167.0" text-anchor="end" fill="#e8731a" transform="rotate(-50 469.2 1167.0)">07-11</text>
<line x1="505.6" y1="1152.0" x2="505.6" y2="1155.0" stroke="#999"/>
<text x="505.6" y="1167.0" text-anchor="end" fill="#e8731a" transform="rotate(-50 505.6 1167.0)">07-14</text>
<line x1="542.1" y1="1152.0" x2="542.1" y2="1155.0" stroke="#999"/>
<text x="542.1" y="1167.0" text-anchor="end" fill="#e8731a" transform="rotate(-50 542.1 1167.0)">07-15</text>
<line x1="578.6" y1="1152.0" x2="578.6" y2="1155.0" stroke="#999"/>
<text x="578.6" y="1167.0" text-anchor="end" fill="#e8731a" transform="rotate(-50 578.6 1167.0)">07-15</text>
<line x1="615.1" y1="1152.0" x2="615.1" y2="1155.0" stroke="#999"/>
<text x="615.1" y="1167.0" text-anchor="end" fill="#e8731a" transform="rotate(-50 615.1 1167.0)">07-16</text>
<line x1="651.5" y1="1152.0" x2="651.5" y2="1155.0" stroke="#999"/>
<text x="651.5" y="1167.0" text-anchor="end" fill="#e8731a" transform="rotate(-50 651.5 1167.0)">07-17</text>
<line x1="688.0" y1="1152.0" x2="688.0" y2="1155.0" stroke="#999"/>
<text x="688.0" y="1167.0" text-anchor="end" fill="#e8731a" transform="rotate(-50 688.0 1167.0)">07-18</text>
<polygon points="68.0,1116.3 104.5,1116.0 140.9,1116.0 177.4,1116.4 213.9,1115.7 250.4,1116.9 286.8,1116.0 323.3,1116.9 359.8,1115.8 396.2,1116.4 432.7,1115.7 469.2,1116.3 505.6,1116.6 542.1,1116.3 578.6,1118.0 615.1,1117.5 651.5,1117.2 688.0,1121.1 688.0,1152.0 651.5,1152.0 615.1,1152.0 578.6,1152.0 542.1,1152.0 505.6,1152.0 469.2,1152.0 432.7,1152.0 396.2,1152.0 359.8,1152.0 323.3,1152.0 286.8,1152.0 250.4,1152.0 213.9,1152.0 177.4,1152.0 140.9,1152.0 104.5,1152.0 68.0,1152.0" fill="#c7e9c0" fill-opacity="0.9" stroke="#fff" stroke-width="0.4"><title>api_module_graph — apiCreateGlobalSession</title></polygon>
<polygon points="68.0,1116.3 104.5,1116.0 140.9,1116.0 177.4,1116.4 213.9,1115.7 250.4,1116.9 286.8,1116.0 323.3,1116.9 359.8,1115.7 396.2,1116.4 432.7,1115.7 469.2,1116.2 505.6,1116.6 542.1,1116.3 578.6,1118.0 615.1,1117.5 651.5,1117.2 688.0,1121.1 688.0,1121.1 651.5,1117.2 615.1,1117.5 578.6,1118.0 542.1,1116.3 505.6,1116.6 469.2,1116.3 432.7,1115.7 396.2,1116.4 359.8,1115.8 323.3,1116.9 286.8,1116.0 250.4,1116.9 213.9,1115.7 177.4,1116.4 140.9,1116.0 104.5,1116.0 68.0,1116.3" fill="#41ab5d" fill-opacity="0.9" stroke="#fff" stroke-width="0.4"><title>api_module_graph — apiCreateSession</title></polygon>
<polygon points="68.0,911.5 104.5,910.0 140.9,910.9 177.4,912.8 213.9,904.5 250.4,905.9 286.8,906.5 323.3,906.4 359.8,906.7 396.2,904.6 432.7,901.9 469.2,903.2 505.6,904.6 542.1,915.6 578.6,916.5 615.1,882.9 651.5,883.0 688.0,918.6 688.0,1121.1 651.5,1117.2 615.1,1117.5 578.6,1118.0 542.1,1116.3 505.6,1116.6 469.2,1116.2 432.7,1115.7 396.2,1116.4 359.8,1115.7 323.3,1116.9 286.8,1116.0 250.4,1116.9 213.9,1115.7 177.4,1116.4 140.9,1116.0 104.5,1116.0 68.0,1116.3" fill="#2171b5" fill-opacity="0.9" stroke="#fff" stroke-width="0.4"><title>api_module_graph — apiLoadModule</title></polygon>
<polygon points="68.0,911.5 104.5,910.0 140.9,910.9 177.4,912.8 213.9,904.5 250.4,905.9 286.8,906.5 323.3,906.4 359.8,906.7 396.2,904.6 432.7,901.9 469.2,903.2 505.6,904.6 542.1,915.6 578.6,916.5 615.1,882.9 651.5,883.0 688.0,918.6 688.0,918.6 651.5,883.0 615.1,882.9 578.6,916.5 542.1,915.6 505.6,904.6 469.2,903.2 432.7,901.9 396.2,904.6 359.8,906.7 323.3,906.4 286.8,906.5 250.4,905.9 213.9,904.5 177.4,912.8 140.9,910.9 104.5,910.0 68.0,911.5" fill="#6baed6" fill-opacity="0.9" stroke="#fff" stroke-width="0.4"><title>api_module_graph — apiFindEntryPoint</title></polygon>
<polygon points="68.0,911.4 104.5,909.9 140.9,910.9 177.4,912.8 213.9,904.4 250.4,905.9 286.8,906.4 323.3,906.4 359.8,906.6 396.2,904.6 432.7,901.9 469.2,903.2 505.6,904.5 542.1,915.5 578.6,916.4 615.1,882.9 651.5,883.0 688.0,918.6 688.0,918.6 651.5,883.0 615.1,882.9 578.6,916.5 542.1,915.6 505.6,904.6 469.2,903.2 432.7,901.9 396.2,904.6 359.8,906.7 323.3,906.4 286.8,906.5 250.4,905.9 213.9,904.5 177.4,912.8 140.9,910.9 104.5,910.0 68.0,911.5" fill="#9e9ac8" fill-opacity="0.9" stroke="#fff" stroke-width="0.4"><title>api_module_graph — apiComposite</title></polygon>
<polygon points="68.0,910.8 104.5,909.4 140.9,910.3 177.4,912.2 213.9,903.8 250.4,905.2 286.8,905.9 323.3,905.7 359.8,906.1 396.2,904.0 432.7,901.3 469.2,902.6 505.6,904.0 542.1,914.8 578.6,915.7 615.1,882.2 651.5,882.3 688.0,917.9 688.0,918.6 651.5,883.0 615.1,882.9 578.6,916.4 542.1,915.5 505.6,904.5 469.2,903.2 432.7,901.9 396.2,904.6 359.8,906.6 323.3,906.4 286.8,906.4 250.4,905.9 213.9,904.4 177.4,912.8 140.9,910.9 104.5,909.9 68.0,911.4" fill="#6a51a3" fill-opacity="0.9" stroke="#fff" stroke-width="0.4"><title>api_module_graph — apiLink</title></polygon>
<polygon points="68.0,901.5 104.5,900.2 140.9,901.3 177.4,902.7 213.9,893.9 250.4,895.8 286.8,896.3 323.3,896.9 359.8,896.9 396.2,895.0 432.7,892.2 469.2,894.1 505.6,894.7 542.1,907.0 578.6,907.9 615.1,874.6 651.5,874.7 688.0,911.3 688.0,917.9 651.5,882.3 615.1,882.2 578.6,915.7 542.1,914.8 505.6,904.0 469.2,902.6 432.7,901.3 396.2,904.0 359.8,906.1 323.3,905.7 286.8,905.9 250.4,905.2 213.9,903.8 177.4,912.2 140.9,910.3 104.5,909.4 68.0,910.8" fill="#fd8d3c" fill-opacity="0.9" stroke="#fff" stroke-width="0.4"><title>api_module_graph — apiGetCode</title></polygon>
<polygon points="68.0,901.0 104.5,899.3 140.9,900.7 177.4,902.4 213.9,893.4 250.4,895.0 286.8,895.2 323.3,896.9 359.8,896.7 396.2,894.7 432.7,891.9 469.2,893.7 505.6,894.7 542.1,907.0 578.6,907.3 615.1,874.2 651.5,874.7 688.0,911.0 688.0,911.3 651.5,874.7 615.1,874.6 578.6,907.9 542.1,907.0 505.6,894.7 469.2,894.1 432.7,892.2 396.2,895.0 359.8,896.9 323.3,896.9 286.8,896.3 250.4,895.8 213.9,893.9 177.4,902.7 140.9,901.3 104.5,900.2 68.0,901.5" fill="#969696" fill-opacity="0.9" stroke="#fff" stroke-width="0.4"><title>api_module_graph — apiTotal (self)</title></polygon>
<a xlink:href="workloads/api_module_graph_bin.html" href="workloads/api_module_graph_bin.html" target="_top"><text x="764" y="836" font-size="15" font-weight="600" fill="#1a5fb4" text-decoration="underline">api_module_graph_bin<tspan fill="#888" font-weight="400" text-decoration="none">  0.69×</tspan></text></a>
<line x1="764.0" y1="1152.0" x2="1384.0" y2="1152.0" stroke="#eee"/>
<text x="760.0" y="1155.0" text-anchor="end" fill="#999">0.0</text>
<line x1="764.0" y1="1002.0" x2="1384.0" y2="1002.0" stroke="#eee"/>
<text x="760.0" y="1005.0" text-anchor="end" fill="#999">83</text>
<line x1="764.0" y1="852.0" x2="1384.0" y2="852.0" stroke="#eee"/>
<text x="760.0" y="855.0" text-anchor="end" fill="#999">167</text>
<line x1="764.0" y1="852.0" x2="764.0" y2="1152.0" stroke="#333"/>
<line x1="764.0" y1="1152.0" x2="1384.0" y2="1152.0" stroke="#333"/>
<line x1="764.0" y1="1152.0" x2="764.0" y2="1155.0" stroke="#999"/>
<text x="764.0" y="1167.0" text-anchor="end" fill="#e8731a" transform="rotate(-50 764.0 1167.0)">06-25</text>
<line x1="800.5" y1="1152.0" x2="800.5" y2="1155.0" stroke="#999"/>
<text x="800.5" y="1167.0" text-anchor="end" fill="#e8731a" transform="rotate(-50 800.5 1167.0)">06-26</text>
<line x1="836.9" y1="1152.0" x2="836.9" y2="1155.0" stroke="#999"/>
<text x="836.9" y="1167.0" text-anchor="end" fill="#e8731a" transform="rotate(-50 836.9 1167.0)">06-28</text>
<line x1="873.4" y1="1152.0" x2="873.4" y2="1155.0" stroke="#999"/>
<text x="873.4" y="1167.0" text-anchor="end" fill="#e8731a" transform="rotate(-50 873.4 1167.0)">07-01</text>
<line x1="909.9" y1="1152.0" x2="909.9" y2="1155.0" stroke="#999"/>
<text x="909.9" y="1167.0" text-anchor="end" fill="#e8731a" transform="rotate(-50 909.9 1167.0)">07-02</text>
<line x1="946.4" y1="1152.0" x2="946.4" y2="1155.0" stroke="#999"/>
<text x="946.4" y="1167.0" text-anchor="end" fill="#e8731a" transform="rotate(-50 946.4 1167.0)">07-03</text>
<line x1="982.8" y1="1152.0" x2="982.8" y2="1155.0" stroke="#999"/>
<text x="982.8" y="1167.0" text-anchor="end" fill="#e8731a" transform="rotate(-50 982.8 1167.0)">07-06</text>
<line x1="1019.3" y1="1152.0" x2="1019.3" y2="1155.0" stroke="#999"/>
<text x="1019.3" y="1167.0" text-anchor="end" fill="#e8731a" transform="rotate(-50 1019.3 1167.0)">07-07</text>
<line x1="1055.8" y1="1152.0" x2="1055.8" y2="1155.0" stroke="#999"/>
<text x="1055.8" y="1167.0" text-anchor="end" fill="#e8731a" transform="rotate(-50 1055.8 1167.0)">07-08</text>
<line x1="1092.2" y1="1152.0" x2="1092.2" y2="1155.0" stroke="#999"/>
<text x="1092.2" y="1167.0" text-anchor="end" fill="#e8731a" transform="rotate(-50 1092.2 1167.0)">07-09</text>
<line x1="1128.7" y1="1152.0" x2="1128.7" y2="1155.0" stroke="#999"/>
<text x="1128.7" y="1167.0" text-anchor="end" fill="#e8731a" transform="rotate(-50 1128.7 1167.0)">07-10</text>
<line x1="1165.2" y1="1152.0" x2="1165.2" y2="1155.0" stroke="#999"/>
<text x="1165.2" y="1167.0" text-anchor="end" fill="#e8731a" transform="rotate(-50 1165.2 1167.0)">07-11</text>
<line x1="1201.6" y1="1152.0" x2="1201.6" y2="1155.0" stroke="#999"/>
<text x="1201.6" y="1167.0" text-anchor="end" fill="#e8731a" transform="rotate(-50 1201.6 1167.0)">07-14</text>
<line x1="1238.1" y1="1152.0" x2="1238.1" y2="1155.0" stroke="#999"/>
<text x="1238.1" y="1167.0" text-anchor="end" fill="#e8731a" transform="rotate(-50 1238.1 1167.0)">07-15</text>
<line x1="1274.6" y1="1152.0" x2="1274.6" y2="1155.0" stroke="#999"/>
<text x="1274.6" y="1167.0" text-anchor="end" fill="#e8731a" transform="rotate(-50 1274.6 1167.0)">07-15</text>
<line x1="1311.1" y1="1152.0" x2="1311.1" y2="1155.0" stroke="#999"/>
<text x="1311.1" y="1167.0" text-anchor="end" fill="#e8731a" transform="rotate(-50 1311.1 1167.0)">07-16</text>
<line x1="1347.5" y1="1152.0" x2="1347.5" y2="1155.0" stroke="#999"/>
<text x="1347.5" y="1167.0" text-anchor="end" fill="#e8731a" transform="rotate(-50 1347.5 1167.0)">07-17</text>
<line x1="1384.0" y1="1152.0" x2="1384.0" y2="1155.0" stroke="#999"/>
<text x="1384.0" y="1167.0" text-anchor="end" fill="#e8731a" transform="rotate(-50 1384.0 1167.0)">07-18</text>
<polygon points="764.0,1034.9 800.5,1035.6 836.9,1033.5 873.4,1035.2 909.9,1035.1 946.4,1033.8 982.8,1034.3 1019.3,1037.1 1055.8,1034.4 1092.2,1035.7 1128.7,1034.2 1165.2,1035.5 1201.6,1037.8 1238.1,1044.3 1274.6,1045.7 1311.1,1042.8 1347.5,1046.4 1384.0,1061.2 1384.0,1152.0 1347.5,1152.0 1311.1,1152.0 1274.6,1152.0 1238.1,1152.0 1201.6,1152.0 1165.2,1152.0 1128.7,1152.0 1092.2,1152.0 1055.8,1152.0 1019.3,1152.0 982.8,1152.0 946.4,1152.0 909.9,1152.0 873.4,1152.0 836.9,1152.0 800.5,1152.0 764.0,1152.0" fill="#c7e9c0" fill-opacity="0.9" stroke="#fff" stroke-width="0.4"><title>api_module_graph_bin — apiCreateGlobalSession</title></polygon>
<polygon points="764.0,1034.9 800.5,1035.5 836.9,1033.5 873.4,1035.2 909.9,1035.1 946.4,1033.8 982.8,1034.2 1019.3,1037.1 1055.8,1034.4 1092.2,1035.7 1128.7,1034.1 1165.2,1035.5 1201.6,1037.8 1238.1,1044.3 1274.6,1045.7 1311.1,1042.8 1347.5,1046.4 1384.0,1061.2 1384.0,1061.2 1347.5,1046.4 1311.1,1042.8 1274.6,1045.7 1238.1,1044.3 1201.6,1037.8 1165.2,1035.5 1128.7,1034.2 1092.2,1035.7 1055.8,1034.4 1019.3,1037.1 982.8,1034.3 946.4,1033.8 909.9,1035.1 873.4,1035.2 836.9,1033.5 800.5,1035.6 764.0,1034.9" fill="#41ab5d" fill-opacity="0.9" stroke="#fff" stroke-width="0.4"><title>api_module_graph_bin — apiCreateSession</title></polygon>
<polygon points="764.0,907.7 800.5,913.7 836.9,918.4 873.4,917.0 909.9,914.5 946.4,908.9 982.8,916.4 1019.3,914.6 1055.8,911.1 1092.2,915.9 1128.7,919.9 1165.2,910.1 1201.6,919.1 1238.1,942.2 1274.6,943.1 1311.1,934.9 1347.5,946.1 1384.0,982.8 1384.0,1061.2 1347.5,1046.4 1311.1,1042.8 1274.6,1045.7 1238.1,1044.3 1201.6,1037.8 1165.2,1035.5 1128.7,1034.1 1092.2,1035.7 1055.8,1034.4 1019.3,1037.1 982.8,1034.2 946.4,1033.8 909.9,1035.1 873.4,1035.2 836.9,1033.5 800.5,1035.5 764.0,1034.9" fill="#2171b5" fill-opacity="0.9" stroke="#fff" stroke-width="0.4"><title>api_module_graph_bin — apiLoadModule</title></polygon>
<polygon points="764.0,907.7 800.5,913.7 836.9,918.4 873.4,917.0 909.9,914.5 946.4,908.9 982.8,916.4 1019.3,914.6 1055.8,911.1 1092.2,915.9 1128.7,919.9 1165.2,910.1 1201.6,919.1 1238.1,942.2 1274.6,943.1 1311.1,934.9 1347.5,946.1 1384.0,982.8 1384.0,982.8 1347.5,946.1 1311.1,934.9 1274.6,943.1 1238.1,942.2 1201.6,919.1 1165.2,910.1 1128.7,919.9 1092.2,915.9 1055.8,911.1 1019.3,914.6 982.8,916.4 946.4,908.9 909.9,914.5 873.4,917.0 836.9,918.4 800.5,913.7 764.0,907.7" fill="#6baed6" fill-opacity="0.9" stroke="#fff" stroke-width="0.4"><title>api_module_graph_bin — apiFindEntryPoint</title></polygon>
<polygon points="764.0,907.6 800.5,913.6 836.9,918.3 873.4,916.9 909.9,914.4 946.4,908.8 982.8,916.3 1019.3,914.5 1055.8,911.0 1092.2,915.8 1128.7,919.8 1165.2,910.0 1201.6,919.0 1238.1,942.1 1274.6,943.0 1311.1,934.8 1347.5,946.1 1384.0,982.7 1384.0,982.8 1347.5,946.1 1311.1,934.9 1274.6,943.1 1238.1,942.2 1201.6,919.1 1165.2,910.1 1128.7,919.9 1092.2,915.9 1055.8,911.1 1019.3,914.6 982.8,916.4 946.4,908.9 909.9,914.5 873.4,917.0 836.9,918.4 800.5,913.7 764.0,907.7" fill="#9e9ac8" fill-opacity="0.9" stroke="#fff" stroke-width="0.4"><title>api_module_graph_bin — apiComposite</title></polygon>
<polygon points="764.0,905.7 800.5,911.7 836.9,916.3 873.4,915.1 909.9,912.6 946.4,906.8 982.8,914.6 1019.3,912.6 1055.8,909.2 1092.2,914.0 1128.7,918.1 1165.2,908.1 1201.6,917.0 1238.1,940.0 1274.6,940.9 1311.1,932.6 1347.5,944.0 1384.0,980.8 1384.0,982.7 1347.5,946.1 1311.1,934.8 1274.6,943.0 1238.1,942.1 1201.6,919.0 1165.2,910.0 1128.7,919.8 1092.2,915.8 1055.8,911.0 1019.3,914.5 982.8,916.3 946.4,908.8 909.9,914.4 873.4,916.9 836.9,918.3 800.5,913.6 764.0,907.6" fill="#6a51a3" fill-opacity="0.9" stroke="#fff" stroke-width="0.4"><title>api_module_graph_bin — apiLink</title></polygon>
<polygon points="764.0,874.2 800.5,878.9 836.9,886.0 873.4,883.5 909.9,880.1 946.4,875.0 982.8,883.1 1019.3,883.6 1055.8,877.3 1092.2,884.5 1128.7,889.5 1165.2,878.2 1201.6,886.5 1238.1,915.4 1274.6,915.9 1311.1,906.5 1347.5,918.7 1384.0,961.5 1384.0,980.8 1347.5,944.0 1311.1,932.6 1274.6,940.9 1238.1,940.0 1201.6,917.0 1165.2,908.1 1128.7,918.1 1092.2,914.0 1055.8,909.2 1019.3,912.6 982.8,914.6 946.4,906.8 909.9,912.6 873.4,915.1 836.9,916.3 800.5,911.7 764.0,905.7" fill="#fd8d3c" fill-opacity="0.9" stroke="#fff" stroke-width="0.4"><title>api_module_graph_bin — apiGetCode</title></polygon>
<a xlink:href="workloads/api_reflection.html" href="workloads/api_reflection.html" target="_top"><text x="68" y="1224" font-size="15" font-weight="600" fill="#1a5fb4" text-decoration="underline">api_reflection<tspan fill="#888" font-weight="400" text-decoration="none">  0.70×</tspan></text></a>
<line x1="68.0" y1="1540.0" x2="688.0" y2="1540.0" stroke="#eee"/>
<text x="64.0" y="1543.0" text-anchor="end" fill="#999">0.0</text>
<line x1="68.0" y1="1390.0" x2="688.0" y2="1390.0" stroke="#eee"/>
<text x="64.0" y="1393.0" text-anchor="end" fill="#999">457</text>
<line x1="68.0" y1="1240.0" x2="688.0" y2="1240.0" stroke="#eee"/>
<text x="64.0" y="1243.0" text-anchor="end" fill="#999">914</text>
<line x1="68.0" y1="1240.0" x2="68.0" y2="1540.0" stroke="#333"/>
<line x1="68.0" y1="1540.0" x2="688.0" y2="1540.0" stroke="#333"/>
<line x1="68.0" y1="1540.0" x2="68.0" y2="1543.0" stroke="#999"/>
<text x="68.0" y="1555.0" text-anchor="end" fill="#e8731a" transform="rotate(-50 68.0 1555.0)">06-25</text>
<line x1="104.5" y1="1540.0" x2="104.5" y2="1543.0" stroke="#999"/>
<text x="104.5" y="1555.0" text-anchor="end" fill="#e8731a" transform="rotate(-50 104.5 1555.0)">06-26</text>
<line x1="140.9" y1="1540.0" x2="140.9" y2="1543.0" stroke="#999"/>
<text x="140.9" y="1555.0" text-anchor="end" fill="#e8731a" transform="rotate(-50 140.9 1555.0)">06-28</text>
<line x1="177.4" y1="1540.0" x2="177.4" y2="1543.0" stroke="#999"/>
<text x="177.4" y="1555.0" text-anchor="end" fill="#e8731a" transform="rotate(-50 177.4 1555.0)">07-01</text>
<line x1="213.9" y1="1540.0" x2="213.9" y2="1543.0" stroke="#999"/>
<text x="213.9" y="1555.0" text-anchor="end" fill="#e8731a" transform="rotate(-50 213.9 1555.0)">07-02</text>
<line x1="250.4" y1="1540.0" x2="250.4" y2="1543.0" stroke="#999"/>
<text x="250.4" y="1555.0" text-anchor="end" fill="#e8731a" transform="rotate(-50 250.4 1555.0)">07-03</text>
<line x1="286.8" y1="1540.0" x2="286.8" y2="1543.0" stroke="#999"/>
<text x="286.8" y="1555.0" text-anchor="end" fill="#e8731a" transform="rotate(-50 286.8 1555.0)">07-06</text>
<line x1="323.3" y1="1540.0" x2="323.3" y2="1543.0" stroke="#999"/>
<text x="323.3" y="1555.0" text-anchor="end" fill="#e8731a" transform="rotate(-50 323.3 1555.0)">07-07</text>
<line x1="359.8" y1="1540.0" x2="359.8" y2="1543.0" stroke="#999"/>
<text x="359.8" y="1555.0" text-anchor="end" fill="#e8731a" transform="rotate(-50 359.8 1555.0)">07-08</text>
<line x1="396.2" y1="1540.0" x2="396.2" y2="1543.0" stroke="#999"/>
<text x="396.2" y="1555.0" text-anchor="end" fill="#e8731a" transform="rotate(-50 396.2 1555.0)">07-09</text>
<line x1="432.7" y1="1540.0" x2="432.7" y2="1543.0" stroke="#999"/>
<text x="432.7" y="1555.0" text-anchor="end" fill="#e8731a" transform="rotate(-50 432.7 1555.0)">07-10</text>
<line x1="469.2" y1="1540.0" x2="469.2" y2="1543.0" stroke="#999"/>
<text x="469.2" y="1555.0" text-anchor="end" fill="#e8731a" transform="rotate(-50 469.2 1555.0)">07-11</text>
<line x1="505.6" y1="1540.0" x2="505.6" y2="1543.0" stroke="#999"/>
<text x="505.6" y="1555.0" text-anchor="end" fill="#e8731a" transform="rotate(-50 505.6 1555.0)">07-14</text>
<line x1="542.1" y1="1540.0" x2="542.1" y2="1543.0" stroke="#999"/>
<text x="542.1" y="1555.0" text-anchor="end" fill="#e8731a" transform="rotate(-50 542.1 1555.0)">07-15</text>
<line x1="578.6" y1="1540.0" x2="578.6" y2="1543.0" stroke="#999"/>
<text x="578.6" y="1555.0" text-anchor="end" fill="#e8731a" transform="rotate(-50 578.6 1555.0)">07-15</text>
<line x1="615.1" y1="1540.0" x2="615.1" y2="1543.0" stroke="#999"/>
<text x="615.1" y="1555.0" text-anchor="end" fill="#e8731a" transform="rotate(-50 615.1 1555.0)">07-16</text>
<line x1="651.5" y1="1540.0" x2="651.5" y2="1543.0" stroke="#999"/>
<text x="651.5" y="1555.0" text-anchor="end" fill="#e8731a" transform="rotate(-50 651.5 1555.0)">07-17</text>
<line x1="688.0" y1="1540.0" x2="688.0" y2="1543.0" stroke="#999"/>
<text x="688.0" y="1555.0" text-anchor="end" fill="#e8731a" transform="rotate(-50 688.0 1555.0)">07-18</text>
<polygon points="68.0,1503.1 104.5,1501.8 140.9,1501.5 177.4,1502.4 213.9,1501.5 250.4,1501.9 286.8,1502.0 323.3,1503.0 359.8,1502.2 396.2,1502.9 432.7,1502.9 469.2,1502.7 505.6,1502.0 542.1,1503.6 578.6,1504.4 615.1,1504.2 651.5,1503.0 688.0,1507.6 688.0,1540.0 651.5,1540.0 615.1,1540.0 578.6,1540.0 542.1,1540.0 505.6,1540.0 469.2,1540.0 432.7,1540.0 396.2,1540.0 359.8,1540.0 323.3,1540.0 286.8,1540.0 250.4,1540.0 213.9,1540.0 177.4,1540.0 140.9,1540.0 104.5,1540.0 68.0,1540.0" fill="#c7e9c0" fill-opacity="0.9" stroke="#fff" stroke-width="0.4"><title>api_reflection — apiCreateGlobalSession</title></polygon>
<polygon points="68.0,1503.1 104.5,1501.8 140.9,1501.4 177.4,1502.4 213.9,1501.5 250.4,1501.9 286.8,1502.0 323.3,1503.0 359.8,1502.2 396.2,1502.8 432.7,1502.9 469.2,1502.7 505.6,1502.0 542.1,1503.6 578.6,1504.4 615.1,1504.2 651.5,1503.0 688.0,1507.5 688.0,1507.6 651.5,1503.0 615.1,1504.2 578.6,1504.4 542.1,1503.6 505.6,1502.0 469.2,1502.7 432.7,1502.9 396.2,1502.9 359.8,1502.2 323.3,1503.0 286.8,1502.0 250.4,1501.9 213.9,1501.5 177.4,1502.4 140.9,1501.5 104.5,1501.8 68.0,1503.1" fill="#41ab5d" fill-opacity="0.9" stroke="#fff" stroke-width="0.4"><title>api_reflection — apiCreateSession</title></polygon>
<polygon points="68.0,1422.9 104.5,1421.6 140.9,1420.6 177.4,1422.8 213.9,1420.3 250.4,1420.0 286.8,1421.2 323.3,1421.5 359.8,1421.1 396.2,1421.5 432.7,1417.8 469.2,1417.5 505.6,1417.7 542.1,1424.0 578.6,1424.7 615.1,1410.4 651.5,1409.0 688.0,1425.9 688.0,1507.5 651.5,1503.0 615.1,1504.2 578.6,1504.4 542.1,1503.6 505.6,1502.0 469.2,1502.7 432.7,1502.9 396.2,1502.8 359.8,1502.2 323.3,1503.0 286.8,1502.0 250.4,1501.9 213.9,1501.5 177.4,1502.4 140.9,1501.4 104.5,1501.8 68.0,1503.1" fill="#2171b5" fill-opacity="0.9" stroke="#fff" stroke-width="0.4"><title>api_reflection — apiLoadModule</title></polygon>
<polygon points="68.0,1422.9 104.5,1421.6 140.9,1420.6 177.4,1422.8 213.9,1420.3 250.4,1420.0 286.8,1421.2 323.3,1421.5 359.8,1421.1 396.2,1421.5 432.7,1417.8 469.2,1417.5 505.6,1417.7 542.1,1424.0 578.6,1424.7 615.1,1410.4 651.5,1409.0 688.0,1425.9 688.0,1425.9 651.5,1409.0 615.1,1410.4 578.6,1424.7 542.1,1424.0 505.6,1417.7 469.2,1417.5 432.7,1417.8 396.2,1421.5 359.8,1421.1 323.3,1421.5 286.8,1421.2 250.4,1420.0 213.9,1420.3 177.4,1422.8 140.9,1420.6 104.5,1421.6 68.0,1422.9" fill="#6baed6" fill-opacity="0.9" stroke="#fff" stroke-width="0.4"><title>api_reflection — apiFindEntryPoint</title></polygon>
<polygon points="68.0,1422.9 104.5,1421.5 140.9,1420.5 177.4,1422.8 213.9,1420.2 250.4,1419.9 286.8,1421.1 323.3,1421.5 359.8,1421.1 396.2,1421.4 432.7,1417.7 469.2,1417.4 505.6,1417.6 542.1,1424.0 578.6,1424.7 615.1,1410.4 651.5,1409.0 688.0,1425.9 688.0,1425.9 651.5,1409.0 615.1,1410.4 578.6,1424.7 542.1,1424.0 505.6,1417.7 469.2,1417.5 432.7,1417.8 396.2,1421.5 359.8,1421.1 323.3,1421.5 286.8,1421.2 250.4,1420.0 213.9,1420.3 177.4,1422.8 140.9,1420.6 104.5,1421.6 68.0,1422.9" fill="#9e9ac8" fill-opacity="0.9" stroke="#fff" stroke-width="0.4"><title>api_reflection — apiComposite</title></polygon>
<polygon points="68.0,1422.9 104.5,1421.5 140.9,1420.5 177.4,1422.7 213.9,1420.2 250.4,1419.9 286.8,1421.1 323.3,1421.5 359.8,1421.0 396.2,1421.4 432.7,1417.7 469.2,1417.4 505.6,1417.6 542.1,1424.0 578.6,1424.7 615.1,1410.4 651.5,1409.0 688.0,1425.9 688.0,1425.9 651.5,1409.0 615.1,1410.4 578.6,1424.7 542.1,1424.0 505.6,1417.6 469.2,1417.4 432.7,1417.7 396.2,1421.4 359.8,1421.1 323.3,1421.5 286.8,1421.1 250.4,1419.9 213.9,1420.2 177.4,1422.8 140.9,1420.5 104.5,1421.5 68.0,1422.9" fill="#6a51a3" fill-opacity="0.9" stroke="#fff" stroke-width="0.4"><title>api_reflection — apiLink</title></polygon>
<polygon points="68.0,1272.3 104.5,1269.9 140.9,1268.2 177.4,1272.4 213.9,1267.0 250.4,1265.9 286.8,1268.0 323.3,1324.6 359.8,1325.3 396.2,1326.1 432.7,1323.6 469.2,1322.8 505.6,1324.2 542.1,1340.9 578.6,1340.8 615.1,1327.4 651.5,1325.4 688.0,1351.7 688.0,1425.9 651.5,1409.0 615.1,1410.4 578.6,1424.7 542.1,1424.0 505.6,1417.6 469.2,1417.4 432.7,1417.7 396.2,1421.4 359.8,1421.0 323.3,1421.5 286.8,1421.1 250.4,1419.9 213.9,1420.2 177.4,1422.7 140.9,1420.5 104.5,1421.5 68.0,1422.9" fill="#fd8d3c" fill-opacity="0.9" stroke="#fff" stroke-width="0.4"><title>api_reflection — apiGetCode</title></polygon>
<polygon points="68.0,1270.4 104.5,1268.0 140.9,1266.4 177.4,1270.6 213.9,1265.1 250.4,1264.1 286.8,1266.2 323.3,1322.8 359.8,1323.4 396.2,1324.2 432.7,1321.8 469.2,1321.0 505.6,1322.4 542.1,1339.1 578.6,1339.0 615.1,1325.6 651.5,1323.6 688.0,1349.9 688.0,1351.7 651.5,1325.4 615.1,1327.4 578.6,1340.8 542.1,1340.9 505.6,1324.2 469.2,1322.8 432.7,1323.6 396.2,1326.1 359.8,1325.3 323.3,1324.6 286.8,1268.0 250.4,1265.9 213.9,1267.0 177.4,1272.4 140.9,1268.2 104.5,1269.9 68.0,1272.3" fill="#b5bdc4" fill-opacity="0.9" stroke="#fff" stroke-width="0.4"><title>api_reflection — apiReflection</title></polygon>
<polygon points="68.0,1267.8 104.5,1266.6 140.9,1265.0 177.4,1269.2 213.9,1263.6 250.4,1262.2 286.8,1264.8 323.3,1321.7 359.8,1321.2 396.2,1322.4 432.7,1319.6 469.2,1319.7 505.6,1321.3 542.1,1337.6 578.6,1337.3 615.1,1324.1 651.5,1322.5 688.0,1349.0 688.0,1349.9 651.5,1323.6 615.1,1325.6 578.6,1339.0 542.1,1339.1 505.6,1322.4 469.2,1321.0 432.7,1321.8 396.2,1324.2 359.8,1323.4 323.3,1322.8 286.8,1266.2 250.4,1264.1 213.9,1265.1 177.4,1270.6 140.9,1266.4 104.5,1268.0 68.0,1270.4" fill="#969696" fill-opacity="0.9" stroke="#fff" stroke-width="0.4"><title>api_reflection — apiTotal (self)</title></polygon>
<a xlink:href="workloads/api_specialize.html" href="workloads/api_specialize.html" target="_top"><text x="764" y="1224" font-size="15" font-weight="600" fill="#1a5fb4" text-decoration="underline">api_specialize<tspan fill="#888" font-weight="400" text-decoration="none">  0.57×</tspan></text></a>
<line x1="764.0" y1="1540.0" x2="1384.0" y2="1540.0" stroke="#eee"/>
<text x="760.0" y="1543.0" text-anchor="end" fill="#999">0.0</text>
<line x1="764.0" y1="1390.0" x2="1384.0" y2="1390.0" stroke="#eee"/>
<text x="760.0" y="1393.0" text-anchor="end" fill="#999">238</text>
<line x1="764.0" y1="1240.0" x2="1384.0" y2="1240.0" stroke="#eee"/>
<text x="760.0" y="1243.0" text-anchor="end" fill="#999">477</text>
<line x1="764.0" y1="1240.0" x2="764.0" y2="1540.0" stroke="#333"/>
<line x1="764.0" y1="1540.0" x2="1384.0" y2="1540.0" stroke="#333"/>
<line x1="764.0" y1="1540.0" x2="764.0" y2="1543.0" stroke="#999"/>
<text x="764.0" y="1555.0" text-anchor="end" fill="#e8731a" transform="rotate(-50 764.0 1555.0)">06-25</text>
<line x1="800.5" y1="1540.0" x2="800.5" y2="1543.0" stroke="#999"/>
<text x="800.5" y="1555.0" text-anchor="end" fill="#e8731a" transform="rotate(-50 800.5 1555.0)">06-26</text>
<line x1="836.9" y1="1540.0" x2="836.9" y2="1543.0" stroke="#999"/>
<text x="836.9" y="1555.0" text-anchor="end" fill="#e8731a" transform="rotate(-50 836.9 1555.0)">06-28</text>
<line x1="873.4" y1="1540.0" x2="873.4" y2="1543.0" stroke="#999"/>
<text x="873.4" y="1555.0" text-anchor="end" fill="#e8731a" transform="rotate(-50 873.4 1555.0)">07-01</text>
<line x1="909.9" y1="1540.0" x2="909.9" y2="1543.0" stroke="#999"/>
<text x="909.9" y="1555.0" text-anchor="end" fill="#e8731a" transform="rotate(-50 909.9 1555.0)">07-02</text>
<line x1="946.4" y1="1540.0" x2="946.4" y2="1543.0" stroke="#999"/>
<text x="946.4" y="1555.0" text-anchor="end" fill="#e8731a" transform="rotate(-50 946.4 1555.0)">07-03</text>
<line x1="982.8" y1="1540.0" x2="982.8" y2="1543.0" stroke="#999"/>
<text x="982.8" y="1555.0" text-anchor="end" fill="#e8731a" transform="rotate(-50 982.8 1555.0)">07-06</text>
<line x1="1019.3" y1="1540.0" x2="1019.3" y2="1543.0" stroke="#999"/>
<text x="1019.3" y="1555.0" text-anchor="end" fill="#e8731a" transform="rotate(-50 1019.3 1555.0)">07-07</text>
<line x1="1055.8" y1="1540.0" x2="1055.8" y2="1543.0" stroke="#999"/>
<text x="1055.8" y="1555.0" text-anchor="end" fill="#e8731a" transform="rotate(-50 1055.8 1555.0)">07-08</text>
<line x1="1092.2" y1="1540.0" x2="1092.2" y2="1543.0" stroke="#999"/>
<text x="1092.2" y="1555.0" text-anchor="end" fill="#e8731a" transform="rotate(-50 1092.2 1555.0)">07-09</text>
<line x1="1128.7" y1="1540.0" x2="1128.7" y2="1543.0" stroke="#999"/>
<text x="1128.7" y="1555.0" text-anchor="end" fill="#e8731a" transform="rotate(-50 1128.7 1555.0)">07-10</text>
<line x1="1165.2" y1="1540.0" x2="1165.2" y2="1543.0" stroke="#999"/>
<text x="1165.2" y="1555.0" text-anchor="end" fill="#e8731a" transform="rotate(-50 1165.2 1555.0)">07-11</text>
<line x1="1201.6" y1="1540.0" x2="1201.6" y2="1543.0" stroke="#999"/>
<text x="1201.6" y="1555.0" text-anchor="end" fill="#e8731a" transform="rotate(-50 1201.6 1555.0)">07-14</text>
<line x1="1238.1" y1="1540.0" x2="1238.1" y2="1543.0" stroke="#999"/>
<text x="1238.1" y="1555.0" text-anchor="end" fill="#e8731a" transform="rotate(-50 1238.1 1555.0)">07-15</text>
<line x1="1274.6" y1="1540.0" x2="1274.6" y2="1543.0" stroke="#999"/>
<text x="1274.6" y="1555.0" text-anchor="end" fill="#e8731a" transform="rotate(-50 1274.6 1555.0)">07-15</text>
<line x1="1311.1" y1="1540.0" x2="1311.1" y2="1543.0" stroke="#999"/>
<text x="1311.1" y="1555.0" text-anchor="end" fill="#e8731a" transform="rotate(-50 1311.1 1555.0)">07-16</text>
<line x1="1347.5" y1="1540.0" x2="1347.5" y2="1543.0" stroke="#999"/>
<text x="1347.5" y="1555.0" text-anchor="end" fill="#e8731a" transform="rotate(-50 1347.5 1555.0)">07-17</text>
<line x1="1384.0" y1="1540.0" x2="1384.0" y2="1543.0" stroke="#999"/>
<text x="1384.0" y="1555.0" text-anchor="end" fill="#e8731a" transform="rotate(-50 1384.0 1555.0)">07-18</text>
<polygon points="764.0,1468.2 800.5,1467.5 836.9,1464.7 873.4,1466.9 909.9,1467.1 946.4,1468.7 982.8,1466.3 1019.3,1468.1 1055.8,1467.3 1092.2,1469.0 1128.7,1467.2 1165.2,1469.5 1201.6,1468.4 1238.1,1470.5 1274.6,1472.0 1311.1,1470.0 1347.5,1469.0 1384.0,1478.9 1384.0,1540.0 1347.5,1540.0 1311.1,1540.0 1274.6,1540.0 1238.1,1540.0 1201.6,1540.0 1165.2,1540.0 1128.7,1540.0 1092.2,1540.0 1055.8,1540.0 1019.3,1540.0 982.8,1540.0 946.4,1540.0 909.9,1540.0 873.4,1540.0 836.9,1540.0 800.5,1540.0 764.0,1540.0" fill="#c7e9c0" fill-opacity="0.9" stroke="#fff" stroke-width="0.4"><title>api_specialize — apiCreateGlobalSession</title></polygon>
<polygon points="764.0,1468.2 800.5,1467.5 836.9,1464.7 873.4,1466.9 909.9,1467.1 946.4,1468.7 982.8,1466.2 1019.3,1468.1 1055.8,1467.2 1092.2,1469.0 1128.7,1467.1 1165.2,1469.5 1201.6,1468.4 1238.1,1470.5 1274.6,1472.0 1311.1,1470.0 1347.5,1469.0 1384.0,1478.8 1384.0,1478.9 1347.5,1469.0 1311.1,1470.0 1274.6,1472.0 1238.1,1470.5 1201.6,1468.4 1165.2,1469.5 1128.7,1467.2 1092.2,1469.0 1055.8,1467.3 1019.3,1468.1 982.8,1466.3 946.4,1468.7 909.9,1467.1 873.4,1466.9 836.9,1464.7 800.5,1467.5 764.0,1468.2" fill="#41ab5d" fill-opacity="0.9" stroke="#fff" stroke-width="0.4"><title>api_specialize — apiCreateSession</title></polygon>
<polygon points="764.0,1456.8 800.5,1456.3 836.9,1453.5 873.4,1455.5 909.9,1455.6 946.4,1457.3 982.8,1454.9 1019.3,1456.8 1055.8,1455.9 1092.2,1457.3 1128.7,1455.6 1165.2,1458.2 1201.6,1457.0 1238.1,1459.9 1274.6,1461.4 1311.1,1458.8 1347.5,1457.8 1384.0,1469.8 1384.0,1478.8 1347.5,1469.0 1311.1,1470.0 1274.6,1472.0 1238.1,1470.5 1201.6,1468.4 1165.2,1469.5 1128.7,1467.1 1092.2,1469.0 1055.8,1467.2 1019.3,1468.1 982.8,1466.2 946.4,1468.7 909.9,1467.1 873.4,1466.9 836.9,1464.7 800.5,1467.5 764.0,1468.2" fill="#2171b5" fill-opacity="0.9" stroke="#fff" stroke-width="0.4"><title>api_specialize — apiLoadModule</title></polygon>
<polygon points="764.0,1456.7 800.5,1456.2 836.9,1453.3 873.4,1455.4 909.9,1455.4 946.4,1457.2 982.8,1454.8 1019.3,1456.7 1055.8,1455.7 1092.2,1457.2 1128.7,1455.5 1165.2,1458.1 1201.6,1456.9 1238.1,1459.9 1274.6,1461.3 1311.1,1458.7 1347.5,1457.7 1384.0,1469.7 1384.0,1469.8 1347.5,1457.8 1311.1,1458.8 1274.6,1461.4 1238.1,1459.9 1201.6,1457.0 1165.2,1458.2 1128.7,1455.6 1092.2,1457.3 1055.8,1455.9 1019.3,1456.8 982.8,1454.9 946.4,1457.3 909.9,1455.6 873.4,1455.5 836.9,1453.5 800.5,1456.3 764.0,1456.8" fill="#9e9ac8" fill-opacity="0.9" stroke="#fff" stroke-width="0.4"><title>api_specialize — apiComposite</title></polygon>
<polygon points="764.0,1449.6 800.5,1449.2 836.9,1446.4 873.4,1448.2 909.9,1448.2 946.4,1449.6 982.8,1447.6 1019.3,1449.2 1055.8,1448.5 1092.2,1450.0 1128.7,1448.1 1165.2,1450.5 1201.6,1450.0 1238.1,1454.6 1274.6,1456.0 1311.1,1453.4 1347.5,1452.3 1384.0,1465.1 1384.0,1469.7 1347.5,1457.7 1311.1,1458.7 1274.6,1461.3 1238.1,1459.9 1201.6,1456.9 1165.2,1458.1 1128.7,1455.5 1092.2,1457.2 1055.8,1455.7 1019.3,1456.7 982.8,1454.8 946.4,1457.2 909.9,1455.4 873.4,1455.4 836.9,1453.3 800.5,1456.2 764.0,1456.7" fill="#807dba" fill-opacity="0.9" stroke="#fff" stroke-width="0.4"><title>api_specialize — apiSpecialize</title></polygon>
<polygon points="764.0,1449.6 800.5,1449.2 836.9,1446.4 873.4,1448.1 909.9,1448.1 946.4,1449.6 982.8,1447.6 1019.3,1449.2 1055.8,1448.5 1092.2,1450.0 1128.7,1448.1 1165.2,1450.5 1201.6,1450.0 1238.1,1454.6 1274.6,1456.0 1311.1,1453.3 1347.5,1452.3 1384.0,1465.1 1384.0,1465.1 1347.5,1452.3 1311.1,1453.4 1274.6,1456.0 1238.1,1454.6 1201.6,1450.0 1165.2,1450.5 1128.7,1448.1 1092.2,1450.0 1055.8,1448.5 1019.3,1449.2 982.8,1447.6 946.4,1449.6 909.9,1448.2 873.4,1448.2 836.9,1446.4 800.5,1449.2 764.0,1449.6" fill="#6a51a3" fill-opacity="0.9" stroke="#fff" stroke-width="0.4"><title>api_specialize — apiLink</title></polygon>
<polygon points="764.0,1267.7 800.5,1268.8 836.9,1265.6 873.4,1268.4 909.9,1266.1 946.4,1266.5 982.8,1266.7 1019.3,1341.8 1055.8,1343.0 1092.2,1345.2 1128.7,1341.7 1165.2,1344.4 1201.6,1344.1 1238.1,1364.4 1274.6,1367.3 1311.1,1365.1 1347.5,1363.0 1384.0,1385.7 1384.0,1465.1 1347.5,1452.3 1311.1,1453.3 1274.6,1456.0 1238.1,1454.6 1201.6,1450.0 1165.2,1450.5 1128.7,1448.1 1092.2,1450.0 1055.8,1448.5 1019.3,1449.2 982.8,1447.6 946.4,1449.6 909.9,1448.1 873.4,1448.1 836.9,1446.4 800.5,1449.2 764.0,1449.6" fill="#fd8d3c" fill-opacity="0.9" stroke="#fff" stroke-width="0.4"><title>api_specialize — apiGetCode</title></polygon>
<polygon points="764.0,1266.2 800.5,1266.4 836.9,1263.5 873.4,1265.5 909.9,1262.6 946.4,1263.8 982.8,1262.2 1019.3,1337.4 1055.8,1339.5 1092.2,1341.3 1128.7,1338.5 1165.2,1341.7 1201.6,1342.4 1238.1,1363.9 1274.6,1365.9 1311.1,1362.6 1347.5,1360.8 1384.0,1384.1 1384.0,1385.7 1347.5,1363.0 1311.1,1365.1 1274.6,1367.3 1238.1,1364.4 1201.6,1344.1 1165.2,1344.4 1128.7,1341.7 1092.2,1345.2 1055.8,1343.0 1019.3,1341.8 982.8,1266.7 946.4,1266.5 909.9,1266.1 873.4,1268.4 836.9,1265.6 800.5,1268.8 764.0,1267.7" fill="#969696" fill-opacity="0.9" stroke="#fff" stroke-width="0.4"><title>api_specialize — apiTotal (self)</title></polygon>
<text x="12" y="1602" fill="#666" font-weight="600">phase buckets</text>
<rect x="12" y="1610" width="12" height="12" fill="#c7e9c0"/>
<text x="28" y="1620" fill="#222">apiCreateGlobalSession</text>
<rect x="358" y="1610" width="12" height="12" fill="#41ab5d"/>
<text x="374" y="1620" fill="#222">apiCreateSession</text>
<rect x="704" y="1610" width="12" height="12" fill="#2171b5"/>
<text x="720" y="1620" fill="#222">apiLoadModule</text>
<rect x="1050" y="1610" width="12" height="12" fill="#6baed6"/>
<text x="1066" y="1620" fill="#222">apiFindEntryPoint</text>
<rect x="12" y="1628" width="12" height="12" fill="#9e9ac8"/>
<text x="28" y="1638" fill="#222">apiComposite</text>
<rect x="358" y="1628" width="12" height="12" fill="#807dba"/>
<text x="374" y="1638" fill="#222">apiSpecialize</text>
<rect x="704" y="1628" width="12" height="12" fill="#6a51a3"/>
<text x="720" y="1638" fill="#222">apiLink</text>
<rect x="1050" y="1628" width="12" height="12" fill="#fd8d3c"/>
<text x="1066" y="1638" fill="#222">apiGetCode</text>
<rect x="12" y="1646" width="12" height="12" fill="#b5bdc4"/>
<text x="28" y="1656" fill="#222">apiReflection</text>
<rect x="358" y="1646" width="12" height="12" fill="#969696"/>
<text x="374" y="1656" fill="#222">apiTotal (self)</text>
</svg>