<svg xmlns="http://www.w3.org/2000/svg" xmlns:xlink="http://www.w3.org/1999/xlink" width="1408" height="1686" viewBox="0 0 1408 1686" preserveAspectRatio="xMidYMid meet" font-family="sans-serif" font-size="13">
<rect width="1408" height="1686" fill="white"/>
<text x="12" y="30" font-size="20" font-weight="bold">API-path & RT workloads — daily tip-of-tree (median ms)</text>
<a xlink:href="workloads/rt_renderer.html" href="workloads/rt_renderer.html" target="_top"><text x="68" y="60" font-size="15" font-weight="600" fill="#1a5fb4" text-decoration="underline">rt_renderer<tspan fill="#888" font-weight="400" text-decoration="none">  0.93×</tspan></text></a>
<line x1="68.0" y1="376.0" x2="688.0" y2="376.0" stroke="#eee"/>
<text x="64.0" y="379.0" text-anchor="end" fill="#999">0.0</text>
<line x1="68.0" y1="226.0" x2="688.0" y2="226.0" stroke="#eee"/>
<text x="64.0" y="229.0" text-anchor="end" fill="#999">460</text>
<line x1="68.0" y1="76.0" x2="688.0" y2="76.0" stroke="#eee"/>
<text x="64.0" y="79.0" text-anchor="end" fill="#999">919</text>
<line x1="68.0" y1="76.0" x2="68.0" y2="376.0" stroke="#333"/>
<line x1="68.0" y1="376.0" x2="688.0" y2="376.0" stroke="#333"/>
<line x1="68.0" y1="376.0" x2="68.0" y2="379.0" stroke="#999"/>
<text x="68.0" y="391.0" text-anchor="end" fill="#e8731a" transform="rotate(-50 68.0 391.0)">06-25</text>
<line x1="99.0" y1="376.0" x2="99.0" y2="379.0" stroke="#999"/>
<text x="99.0" y="391.0" text-anchor="end" fill="#e8731a" transform="rotate(-50 99.0 391.0)">06-26</text>
<line x1="130.0" y1="376.0" x2="130.0" y2="379.0" stroke="#999"/>
<text x="130.0" y="391.0" text-anchor="end" fill="#e8731a" transform="rotate(-50 130.0 391.0)">06-28</text>
<line x1="161.0" y1="376.0" x2="161.0" y2="379.0" stroke="#999"/>
<text x="161.0" y="391.0" text-anchor="end" fill="#e8731a" transform="rotate(-50 161.0 391.0)">07-01</text>
<line x1="192.0" y1="376.0" x2="192.0" y2="379.0" stroke="#999"/>
<text x="192.0" y="391.0" text-anchor="end" fill="#e8731a" transform="rotate(-50 192.0 391.0)">07-02</text>
<line x1="223.0" y1="376.0" x2="223.0" y2="379.0" stroke="#999"/>
<text x="223.0" y="391.0" text-anchor="end" fill="#e8731a" transform="rotate(-50 223.0 391.0)">07-03</text>
<line x1="254.0" y1="376.0" x2="254.0" y2="379.0" stroke="#999"/>
<text x="254.0" y="391.0" text-anchor="end" fill="#e8731a" transform="rotate(-50 254.0 391.0)">07-06</text>
<line x1="285.0" y1="376.0" x2="285.0" y2="379.0" stroke="#999"/>
<text x="285.0" y="391.0" text-anchor="end" fill="#e8731a" transform="rotate(-50 285.0 391.0)">07-07</text>
<line x1="316.0" y1="376.0" x2="316.0" y2="379.0" stroke="#999"/>
<text x="316.0" y="391.0" text-anchor="end" fill="#e8731a" transform="rotate(-50 316.0 391.0)">07-08</text>
<line x1="347.0" y1="376.0" x2="347.0" y2="379.0" stroke="#999"/>
<text x="347.0" y="391.0" text-anchor="end" fill="#e8731a" transform="rotate(-50 347.0 391.0)">07-09</text>
<line x1="378.0" y1="376.0" x2="378.0" y2="379.0" stroke="#999"/>
<text x="378.0" y="391.0" text-anchor="end" fill="#e8731a" transform="rotate(-50 378.0 391.0)">07-10</text>
<line x1="409.0" y1="376.0" x2="409.0" y2="379.0" stroke="#999"/>
<text x="409.0" y="391.0" text-anchor="end" fill="#e8731a" transform="rotate(-50 409.0 391.0)">07-11</text>
<line x1="440.0" y1="376.0" x2="440.0" y2="379.0" stroke="#999"/>
<text x="440.0" y="391.0" text-anchor="end" fill="#e8731a" transform="rotate(-50 440.0 391.0)">07-14</text>
<line x1="471.0" y1="376.0" x2="471.0" y2="379.0" stroke="#999"/>
<text x="471.0" y="391.0" text-anchor="end" fill="#e8731a" transform="rotate(-50 471.0 391.0)">07-15</text>
<line x1="502.0" y1="376.0" x2="502.0" y2="379.0" stroke="#999"/>
<text x="502.0" y="391.0" text-anchor="end" fill="#e8731a" transform="rotate(-50 502.0 391.0)">07-15</text>
<line x1="533.0" y1="376.0" x2="533.0" y2="379.0" stroke="#999"/>
<text x="533.0" y="391.0" text-anchor="end" fill="#e8731a" transform="rotate(-50 533.0 391.0)">07-16</text>
<line x1="564.0" y1="376.0" x2="564.0" y2="379.0" stroke="#999"/>
<text x="564.0" y="391.0" text-anchor="end" fill="#e8731a" transform="rotate(-50 564.0 391.0)">07-17</text>
<line x1="595.0" y1="376.0" x2="595.0" y2="379.0" stroke="#999"/>
<text x="595.0" y="391.0" text-anchor="end" fill="#e8731a" transform="rotate(-50 595.0 391.0)">07-18</text>
<line x1="626.0" y1="376.0" x2="626.0" y2="379.0" stroke="#999"/>
<text x="626.0" y="391.0" text-anchor="end" fill="#e8731a" transform="rotate(-50 626.0 391.0)">07-19</text>
<line x1="657.0" y1="376.0" x2="657.0" y2="379.0" stroke="#999"/>
<text x="657.0" y="391.0" text-anchor="end" fill="#e8731a" transform="rotate(-50 657.0 391.0)">07-20</text>
<line x1="688.0" y1="376.0" x2="688.0" y2="379.0" stroke="#999"/>
<text x="688.0" y="391.0" text-anchor="end" fill="#e8731a" transform="rotate(-50 688.0 391.0)">07-21</text>
<polygon points="68.0,338.4 99.0,338.7 130.0,337.9 161.0,339.4 192.0,338.8 223.0,339.3 254.0,338.1 285.0,338.9 316.0,339.1 347.0,338.1 378.0,338.6 409.0,339.5 440.0,339.6 471.0,339.9 502.0,340.7 533.0,340.8 564.0,338.9 595.0,344.6 626.0,343.8 657.0,344.0 688.0,344.3 688.0,376.0 657.0,376.0 626.0,376.0 595.0,376.0 564.0,376.0 533.0,376.0 502.0,376.0 471.0,376.0 440.0,376.0 409.0,376.0 378.0,376.0 347.0,376.0 316.0,376.0 285.0,376.0 254.0,376.0 223.0,376.0 192.0,376.0 161.0,376.0 130.0,376.0 99.0,376.0 68.0,376.0" fill="#c7e9c0" fill-opacity="0.9" stroke="#fff" stroke-width="0.4"><title>rt_renderer — apiCreateGlobalSession</title></polygon>
<polygon points="68.0,338.4 99.0,338.7 130.0,337.9 161.0,339.4 192.0,338.8 223.0,339.3 254.0,338.1 285.0,338.8 316.0,339.1 347.0,338.1 378.0,338.5 409.0,339.5 440.0,339.6 471.0,339.9 502.0,340.7 533.0,340.7 564.0,338.9 595.0,344.6 626.0,343.8 657.0,344.0 688.0,344.3 688.0,344.3 657.0,344.0 626.0,343.8 595.0,344.6 564.0,338.9 533.0,340.8 502.0,340.7 471.0,339.9 440.0,339.6 409.0,339.5 378.0,338.6 347.0,338.1 316.0,339.1 285.0,338.9 254.0,338.1 223.0,339.3 192.0,338.8 161.0,339.4 130.0,337.9 99.0,338.7 68.0,338.4" fill="#41ab5d" fill-opacity="0.9" stroke="#fff" stroke-width="0.4"><title>rt_renderer — apiCreateSession</title></polygon>
<polygon points="68.0,156.5 99.0,156.0 130.0,156.2 161.0,157.4 192.0,152.2 223.0,152.3 254.0,151.2 285.0,151.8 316.0,153.3 347.0,150.4 378.0,148.7 409.0,147.5 440.0,149.6 471.0,159.7 502.0,160.7 533.0,129.8 564.0,128.1 595.0,160.8 626.0,162.0 657.0,161.2 688.0,158.9 688.0,344.3 657.0,344.0 626.0,343.8 595.0,344.6 564.0,338.9 533.0,340.7 502.0,340.7 471.0,339.9 440.0,339.6 409.0,339.5 378.0,338.5 347.0,338.1 316.0,339.1 285.0,338.8 254.0,338.1 223.0,339.3 192.0,338.8 161.0,339.4 130.0,337.9 99.0,338.7 68.0,338.4" fill="#2171b5" fill-opacity="0.9" stroke="#fff" stroke-width="0.4"><title>rt_renderer — apiLoadModule</title></polygon>
<polygon points="68.0,156.5 99.0,156.0 130.0,156.2 161.0,157.4 192.0,152.2 223.0,152.3 254.0,151.2 285.0,151.8 316.0,153.3 347.0,150.4 378.0,148.7 409.0,147.5 440.0,149.6 471.0,159.7 502.0,160.7 533.0,129.8 564.0,128.1 595.0,160.8 626.0,162.0 657.0,161.2 688.0,158.9 688.0,158.9 657.0,161.2 626.0,162.0 595.0,160.8 564.0,128.1 533.0,129.8 502.0,160.7 471.0,159.7 440.0,149.6 409.0,147.5 378.0,148.7 347.0,150.4 316.0,153.3 285.0,151.8 254.0,151.2 223.0,152.3 192.0,152.2 161.0,157.4 130.0,156.2 99.0,156.0 68.0,156.5" fill="#6baed6" fill-opacity="0.9" stroke="#fff" stroke-width="0.4"><title>rt_renderer — apiFindEntryPoint</title></polygon>
<polygon points="68.0,156.5 99.0,156.0 130.0,156.2 161.0,157.3 192.0,152.2 223.0,152.2 254.0,151.2 285.0,151.8 316.0,153.3 347.0,150.4 378.0,148.7 409.0,147.5 440.0,149.6 471.0,159.7 502.0,160.7 533.0,129.8 564.0,128.1 595.0,160.8 626.0,162.0 657.0,161.2 688.0,158.8 688.0,158.9 657.0,161.2 626.0,162.0 595.0,160.8 564.0,128.1 533.0,129.8 502.0,160.7 471.0,159.7 440.0,149.6 409.0,147.5 378.0,148.7 347.0,150.4 316.0,153.3 285.0,151.8 254.0,151.2 223.0,152.3 192.0,152.2 161.0,157.4 130.0,156.2 99.0,156.0 68.0,156.5" fill="#9e9ac8" fill-opacity="0.9" stroke="#fff" stroke-width="0.4"><title>rt_renderer — apiComposite</title></polygon>
<polygon points="68.0,156.4 99.0,155.9 130.0,156.1 161.0,157.3 192.0,152.2 223.0,152.2 254.0,151.1 285.0,151.7 316.0,153.2 347.0,150.3 378.0,148.6 409.0,147.4 440.0,149.5 471.0,159.6 502.0,160.6 533.0,129.7 564.0,128.0 595.0,160.7 626.0,161.9 657.0,161.1 688.0,158.8 688.0,158.8 657.0,161.2 626.0,162.0 595.0,160.8 564.0,128.1 533.0,129.8 502.0,160.7 471.0,159.7 440.0,149.6 409.0,147.5 378.0,148.7 347.0,150.4 316.0,153.3 285.0,151.8 254.0,151.2 223.0,152.2 192.0,152.2 161.0,157.3 130.0,156.2 99.0,156.0 68.0,156.5" fill="#6a51a3" fill-opacity="0.9" stroke="#fff" stroke-width="0.4"><title>rt_renderer — apiLink</title></polygon>
<polygon points="68.0,114.9 99.0,114.4 130.0,115.0 161.0,115.6 192.0,111.2 223.0,112.0 254.0,110.8 285.0,115.4 316.0,116.9 347.0,114.3 378.0,116.4 409.0,115.8 440.0,117.9 471.0,130.5 502.0,131.6 533.0,101.0 564.0,99.1 595.0,134.8 626.0,136.0 657.0,134.9 688.0,132.6 688.0,158.8 657.0,161.1 626.0,161.9 595.0,160.7 564.0,128.0 533.0,129.7 502.0,160.6 471.0,159.6 440.0,149.5 409.0,147.4 378.0,148.6 347.0,150.3 316.0,153.2 285.0,151.7 254.0,151.1 223.0,152.2 192.0,152.2 161.0,157.3 130.0,156.1 99.0,155.9 68.0,156.4" fill="#fd8d3c" fill-opacity="0.9" stroke="#fff" stroke-width="0.4"><title>rt_renderer — apiGetCode</title></polygon>
<polygon points="68.0,114.9 99.0,114.0 130.0,115.0 161.0,115.6 192.0,111.2 223.0,112.0 254.0,110.4 285.0,114.9 316.0,116.9 347.0,114.3 378.0,116.2 409.0,115.8 440.0,117.9 471.0,130.5 502.0,130.7 533.0,99.9 564.0,98.2 595.0,134.1 626.0,136.0 657.0,134.9 688.0,132.6 688.0,132.6 657.0,134.9 626.0,136.0 595.0,134.8 564.0,99.1 533.0,101.0 502.0,131.6 471.0,130.5 440.0,117.9 409.0,115.8 378.0,116.4 347.0,114.3 316.0,116.9 285.0,115.4 254.0,110.8 223.0,112.0 192.0,111.2 161.0,115.6 130.0,115.0 99.0,114.4 68.0,114.9" fill="#969696" fill-opacity="0.9" stroke="#fff" stroke-width="0.4"><title>rt_renderer — apiTotal (self)</title></polygon>
<a xlink:href="workloads/rt_renderer_specialize.html" href="workloads/rt_renderer_specialize.html" target="_top"><text x="764" y="60" font-size="15" font-weight="600" fill="#1a5fb4" text-decoration="underline">rt_renderer_specialize<tspan fill="#888" font-weight="400" text-decoration="none">  0.82×</tspan></text></a>
<line x1="764.0" y1="376.0" x2="1384.0" y2="376.0" stroke="#eee"/>
<text x="760.0" y="379.0" text-anchor="end" fill="#999">0.0</text>
<line x1="764.0" y1="226.0" x2="1384.0" y2="226.0" stroke="#eee"/>
<text x="760.0" y="229.0" text-anchor="end" fill="#999">900</text>
<line x1="764.0" y1="76.0" x2="1384.0" y2="76.0" stroke="#eee"/>
<text x="760.0" y="79.0" text-anchor="end" fill="#999">1799</text>
<line x1="764.0" y1="76.0" x2="764.0" y2="376.0" stroke="#333"/>
<line x1="764.0" y1="376.0" x2="1384.0" y2="376.0" stroke="#333"/>
<line x1="764.0" y1="376.0" x2="764.0" y2="379.0" stroke="#999"/>
<text x="764.0" y="391.0" text-anchor="end" fill="#e8731a" transform="rotate(-50 764.0 391.0)">06-25</text>
<line x1="795.0" y1="376.0" x2="795.0" y2="379.0" stroke="#999"/>
<text x="795.0" y="391.0" text-anchor="end" fill="#e8731a" transform="rotate(-50 795.0 391.0)">06-26</text>
<line x1="826.0" y1="376.0" x2="826.0" y2="379.0" stroke="#999"/>
<text x="826.0" y="391.0" text-anchor="end" fill="#e8731a" transform="rotate(-50 826.0 391.0)">06-28</text>
<line x1="857.0" y1="376.0" x2="857.0" y2="379.0" stroke="#999"/>
<text x="857.0" y="391.0" text-anchor="end" fill="#e8731a" transform="rotate(-50 857.0 391.0)">07-01</text>
<line x1="888.0" y1="376.0" x2="888.0" y2="379.0" stroke="#999"/>
<text x="888.0" y="391.0" text-anchor="end" fill="#e8731a" transform="rotate(-50 888.0 391.0)">07-02</text>
<line x1="919.0" y1="376.0" x2="919.0" y2="379.0" stroke="#999"/>
<text x="919.0" y="391.0" text-anchor="end" fill="#e8731a" transform="rotate(-50 919.0 391.0)">07-03</text>
<line x1="950.0" y1="376.0" x2="950.0" y2="379.0" stroke="#999"/>
<text x="950.0" y="391.0" text-anchor="end" fill="#e8731a" transform="rotate(-50 950.0 391.0)">07-06</text>
<line x1="981.0" y1="376.0" x2="981.0" y2="379.0" stroke="#999"/>
<text x="981.0" y="391.0" text-anchor="end" fill="#e8731a" transform="rotate(-50 981.0 391.0)">07-07</text>
<line x1="1012.0" y1="376.0" x2="1012.0" y2="379.0" stroke="#999"/>
<text x="1012.0" y="391.0" text-anchor="end" fill="#e8731a" transform="rotate(-50 1012.0 391.0)">07-08</text>
<line x1="1043.0" y1="376.0" x2="1043.0" y2="379.0" stroke="#999"/>
<text x="1043.0" y="391.0" text-anchor="end" fill="#e8731a" transform="rotate(-50 1043.0 391.0)">07-09</text>
<line x1="1074.0" y1="376.0" x2="1074.0" y2="379.0" stroke="#999"/>
<text x="1074.0" y="391.0" text-anchor="end" fill="#e8731a" transform="rotate(-50 1074.0 391.0)">07-10</text>
<line x1="1105.0" y1="376.0" x2="1105.0" y2="379.0" stroke="#999"/>
<text x="1105.0" y="391.0" text-anchor="end" fill="#e8731a" transform="rotate(-50 1105.0 391.0)">07-11</text>
<line x1="1136.0" y1="376.0" x2="1136.0" y2="379.0" stroke="#999"/>
<text x="1136.0" y="391.0" text-anchor="end" fill="#e8731a" transform="rotate(-50 1136.0 391.0)">07-14</text>
<line x1="1167.0" y1="376.0" x2="1167.0" y2="379.0" stroke="#999"/>
<text x="1167.0" y="391.0" text-anchor="end" fill="#e8731a" transform="rotate(-50 1167.0 391.0)">07-15</text>
<line x1="1198.0" y1="376.0" x2="1198.0" y2="379.0" stroke="#999"/>
<text x="1198.0" y="391.0" text-anchor="end" fill="#e8731a" transform="rotate(-50 1198.0 391.0)">07-15</text>
<line x1="1229.0" y1="376.0" x2="1229.0" y2="379.0" stroke="#999"/>
<text x="1229.0" y="391.0" text-anchor="end" fill="#e8731a" transform="rotate(-50 1229.0 391.0)">07-16</text>
<line x1="1260.0" y1="376.0" x2="1260.0" y2="379.0" stroke="#999"/>
<text x="1260.0" y="391.0" text-anchor="end" fill="#e8731a" transform="rotate(-50 1260.0 391.0)">07-17</text>
<line x1="1291.0" y1="376.0" x2="1291.0" y2="379.0" stroke="#999"/>
<text x="1291.0" y="391.0" text-anchor="end" fill="#e8731a" transform="rotate(-50 1291.0 391.0)">07-18</text>
<line x1="1322.0" y1="376.0" x2="1322.0" y2="379.0" stroke="#999"/>
<text x="1322.0" y="391.0" text-anchor="end" fill="#e8731a" transform="rotate(-50 1322.0 391.0)">07-19</text>
<line x1="1353.0" y1="376.0" x2="1353.0" y2="379.0" stroke="#999"/>
<text x="1353.0" y="391.0" text-anchor="end" fill="#e8731a" transform="rotate(-50 1353.0 391.0)">07-20</text>
<line x1="1384.0" y1="376.0" x2="1384.0" y2="379.0" stroke="#999"/>
<text x="1384.0" y="391.0" text-anchor="end" fill="#e8731a" transform="rotate(-50 1384.0 391.0)">07-21</text>
<polygon points="764.0,357.3 795.0,357.2 826.0,356.4 857.0,357.4 888.0,357.1 919.0,357.3 950.0,356.8 981.0,357.2 1012.0,357.2 1043.0,356.7 1074.0,357.3 1105.0,357.4 1136.0,357.5 1167.0,357.7 1198.0,357.8 1229.0,357.5 1260.0,357.7 1291.0,359.9 1322.0,359.6 1353.0,359.9 1384.0,359.7 1384.0,376.0 1353.0,376.0 1322.0,376.0 1291.0,376.0 1260.0,376.0 1229.0,376.0 1198.0,376.0 1167.0,376.0 1136.0,376.0 1105.0,376.0 1074.0,376.0 1043.0,376.0 1012.0,376.0 981.0,376.0 950.0,376.0 919.0,376.0 888.0,376.0 857.0,376.0 826.0,376.0 795.0,376.0 764.0,376.0" fill="#c7e9c0" fill-opacity="0.9" stroke="#fff" stroke-width="0.4"><title>rt_renderer_specialize — apiCreateGlobalSession</title></polygon>
<polygon points="764.0,357.3 795.0,357.2 826.0,356.4 857.0,357.4 888.0,357.1 919.0,357.3 950.0,356.8 981.0,357.2 1012.0,357.2 1043.0,356.7 1074.0,357.3 1105.0,357.4 1136.0,357.5 1167.0,357.7 1198.0,357.8 1229.0,357.5 1260.0,357.6 1291.0,359.9 1322.0,359.6 1353.0,359.9 1384.0,359.7 1384.0,359.7 1353.0,359.9 1322.0,359.6 1291.0,359.9 1260.0,357.7 1229.0,357.5 1198.0,357.8 1167.0,357.7 1136.0,357.5 1105.0,357.4 1074.0,357.3 1043.0,356.7 1012.0,357.2 981.0,357.2 950.0,356.8 919.0,357.3 888.0,357.1 857.0,357.4 826.0,356.4 795.0,357.2 764.0,357.3" fill="#41ab5d" fill-opacity="0.9" stroke="#fff" stroke-width="0.4"><title>rt_renderer_specialize — apiCreateSession</title></polygon>
<polygon points="764.0,264.7 795.0,264.6 826.0,263.5 857.0,264.6 888.0,262.1 919.0,261.9 950.0,261.1 981.0,261.8 1012.0,263.3 1043.0,261.7 1074.0,261.4 1105.0,260.2 1136.0,262.0 1167.0,266.5 1198.0,266.2 1229.0,250.6 1260.0,251.3 1291.0,267.8 1322.0,266.9 1353.0,267.2 1384.0,265.8 1384.0,359.7 1353.0,359.9 1322.0,359.6 1291.0,359.9 1260.0,357.6 1229.0,357.5 1198.0,357.8 1167.0,357.7 1136.0,357.5 1105.0,357.4 1074.0,357.3 1043.0,356.7 1012.0,357.2 981.0,357.2 950.0,356.8 919.0,357.3 888.0,357.1 857.0,357.4 826.0,356.4 795.0,357.2 764.0,357.3" fill="#2171b5" fill-opacity="0.9" stroke="#fff" stroke-width="0.4"><title>rt_renderer_specialize — apiLoadModule</title></polygon>
<polygon points="764.0,264.6 795.0,264.4 826.0,263.3 857.0,264.5 888.0,261.9 919.0,261.7 950.0,261.0 981.0,261.6 1012.0,263.1 1043.0,261.5 1074.0,261.2 1105.0,260.0 1136.0,261.9 1167.0,266.3 1198.0,266.0 1229.0,250.4 1260.0,251.1 1291.0,267.6 1322.0,266.7 1353.0,267.1 1384.0,265.6 1384.0,265.8 1353.0,267.2 1322.0,266.9 1291.0,267.8 1260.0,251.3 1229.0,250.6 1198.0,266.2 1167.0,266.5 1136.0,262.0 1105.0,260.2 1074.0,261.4 1043.0,261.7 1012.0,263.3 981.0,261.8 950.0,261.1 919.0,261.9 888.0,262.1 857.0,264.6 826.0,263.5 795.0,264.6 764.0,264.7" fill="#9e9ac8" fill-opacity="0.9" stroke="#fff" stroke-width="0.4"><title>rt_renderer_specialize — apiComposite</title></polygon>
<polygon points="764.0,261.3 795.0,261.1 826.0,260.0 857.0,261.2 888.0,258.6 919.0,258.2 950.0,257.6 981.0,258.1 1012.0,259.8 1043.0,258.1 1074.0,257.9 1105.0,256.5 1136.0,258.5 1167.0,263.2 1198.0,262.9 1229.0,247.1 1260.0,247.9 1291.0,265.2 1322.0,264.3 1353.0,264.7 1384.0,263.2 1384.0,265.6 1353.0,267.1 1322.0,266.7 1291.0,267.6 1260.0,251.1 1229.0,250.4 1198.0,266.0 1167.0,266.3 1136.0,261.9 1105.0,260.0 1074.0,261.2 1043.0,261.5 1012.0,263.1 981.0,261.6 950.0,261.0 919.0,261.7 888.0,261.9 857.0,264.5 826.0,263.3 795.0,264.4 764.0,264.6" fill="#807dba" fill-opacity="0.9" stroke="#fff" stroke-width="0.4"><title>rt_renderer_specialize — apiSpecialize</title></polygon>
<polygon points="764.0,260.6 795.0,260.4 826.0,259.3 857.0,260.5 888.0,257.9 919.0,257.4 950.0,256.9 981.0,257.4 1012.0,259.1 1043.0,257.4 1074.0,257.2 1105.0,255.8 1136.0,257.8 1167.0,262.4 1198.0,262.1 1229.0,246.3 1260.0,247.1 1291.0,264.4 1322.0,263.5 1353.0,263.8 1384.0,262.3 1384.0,263.2 1353.0,264.7 1322.0,264.3 1291.0,265.2 1260.0,247.9 1229.0,247.1 1198.0,262.9 1167.0,263.2 1136.0,258.5 1105.0,256.5 1074.0,257.9 1043.0,258.1 1012.0,259.8 981.0,258.1 950.0,257.6 919.0,258.2 888.0,258.6 857.0,261.2 826.0,260.0 795.0,261.1 764.0,261.3" fill="#6a51a3" fill-opacity="0.9" stroke="#fff" stroke-width="0.4"><title>rt_renderer_specialize — apiLink</title></polygon>
<polygon points="764.0,104.3 795.0,103.6 826.0,102.8 857.0,102.0 888.0,99.2 919.0,100.1 950.0,98.2 981.0,107.0 1012.0,109.4 1043.0,107.4 1074.0,111.0 1105.0,114.1 1136.0,115.0 1167.0,136.0 1198.0,135.0 1229.0,120.1 1260.0,120.2 1291.0,155.6 1322.0,155.7 1353.0,155.0 1384.0,152.1 1384.0,262.3 1353.0,263.8 1322.0,263.5 1291.0,264.4 1260.0,247.1 1229.0,246.3 1198.0,262.1 1167.0,262.4 1136.0,257.8 1105.0,255.8 1074.0,257.2 1043.0,257.4 1012.0,259.1 981.0,257.4 950.0,256.9 919.0,257.4 888.0,257.9 857.0,260.5 826.0,259.3 795.0,260.4 764.0,260.6" fill="#fd8d3c" fill-opacity="0.9" stroke="#fff" stroke-width="0.4"><title>rt_renderer_specialize — apiGetCode</title></polygon>
<polygon points="764.0,104.0 795.0,102.0 826.0,102.1 857.0,101.3 888.0,98.6 919.0,99.2 950.0,98.2 981.0,106.2 1012.0,109.1 1043.0,107.2 1074.0,110.6 1105.0,113.3 1136.0,114.7 1167.0,135.8 1198.0,134.8 1229.0,119.9 1260.0,120.1 1291.0,154.9 1322.0,155.4 1353.0,154.5 1384.0,151.8 1384.0,152.1 1353.0,155.0 1322.0,155.7 1291.0,155.6 1260.0,120.2 1229.0,120.1 1198.0,135.0 1167.0,136.0 1136.0,115.0 1105.0,114.1 1074.0,111.0 1043.0,107.4 1012.0,109.4 981.0,107.0 950.0,98.2 919.0,100.1 888.0,99.2 857.0,102.0 826.0,102.8 795.0,103.6 764.0,104.3" fill="#969696" fill-opacity="0.9" stroke="#fff" stroke-width="0.4"><title>rt_renderer_specialize — apiTotal (self)</title></polygon>
<a xlink:href="workloads/api_session_create.html" href="workloads/api_session_create.html" target="_top"><text x="68" y="448" font-size="15" font-weight="600" fill="#1a5fb4" text-decoration="underline">api_session_create<tspan fill="#888" font-weight="400" text-decoration="none">  0.66×</tspan></text></a>
<line x1="68.0" y1="764.0" x2="688.0" y2="764.0" stroke="#eee"/>
<text x="64.0" y="767.0" text-anchor="end" fill="#999">0.0</text>
<line x1="68.0" y1="614.0" x2="688.0" y2="614.0" stroke="#eee"/>
<text x="64.0" y="617.0" text-anchor="end" fill="#999">712</text>
<line x1="68.0" y1="464.0" x2="688.0" y2="464.0" stroke="#eee"/>
<text x="64.0" y="467.0" text-anchor="end" fill="#999">1424</text>
<line x1="68.0" y1="464.0" x2="68.0" y2="764.0" stroke="#333"/>
<line x1="68.0" y1="764.0" x2="688.0" y2="764.0" stroke="#333"/>
<line x1="68.0" y1="764.0" x2="68.0" y2="767.0" stroke="#999"/>
<text x="68.0" y="779.0" text-anchor="end" fill="#e8731a" transform="rotate(-50 68.0 779.0)">06-25</text>
<line x1="99.0" y1="764.0" x2="99.0" y2="767.0" stroke="#999"/>
<text x="99.0" y="779.0" text-anchor="end" fill="#e8731a" transform="rotate(-50 99.0 779.0)">06-26</text>
<line x1="130.0" y1="764.0" x2="130.0" y2="767.0" stroke="#999"/>
<text x="130.0" y="779.0" text-anchor="end" fill="#e8731a" transform="rotate(-50 130.0 779.0)">06-28</text>
<line x1="161.0" y1="764.0" x2="161.0" y2="767.0" stroke="#999"/>
<text x="161.0" y="779.0" text-anchor="end" fill="#e8731a" transform="rotate(-50 161.0 779.0)">07-01</text>
<line x1="192.0" y1="764.0" x2="192.0" y2="767.0" stroke="#999"/>
<text x="192.0" y="779.0" text-anchor="end" fill="#e8731a" transform="rotate(-50 192.0 779.0)">07-02</text>
<line x1="223.0" y1="764.0" x2="223.0" y2="767.0" stroke="#999"/>
<text x="223.0" y="779.0" text-anchor="end" fill="#e8731a" transform="rotate(-50 223.0 779.0)">07-03</text>
<line x1="254.0" y1="764.0" x2="254.0" y2="767.0" stroke="#999"/>
<text x="254.0" y="779.0" text-anchor="end" fill="#e8731a" transform="rotate(-50 254.0 779.0)">07-06</text>
<line x1="285.0" y1="764.0" x2="285.0" y2="767.0" stroke="#999"/>
<text x="285.0" y="779.0" text-anchor="end" fill="#e8731a" transform="rotate(-50 285.0 779.0)">07-07</text>
<line x1="316.0" y1="764.0" x2="316.0" y2="767.0" stroke="#999"/>
<text x="316.0" y="779.0" text-anchor="end" fill="#e8731a" transform="rotate(-50 316.0 779.0)">07-08</text>
<line x1="347.0" y1="764.0" x2="347.0" y2="767.0" stroke="#999"/>
<text x="347.0" y="779.0" text-anchor="end" fill="#e8731a" transform="rotate(-50 347.0 779.0)">07-09</text>
<line x1="378.0" y1="764.0" x2="378.0" y2="767.0" stroke="#999"/>
<text x="378.0" y="779.0" text-anchor="end" fill="#e8731a" transform="rotate(-50 378.0 779.0)">07-10</text>
<line x1="409.0" y1="764.0" x2="409.0" y2="767.0" stroke="#999"/>
<text x="409.0" y="779.0" text-anchor="end" fill="#e8731a" transform="rotate(-50 409.0 779.0)">07-11</text>
<line x1="440.0" y1="764.0" x2="440.0" y2="767.0" stroke="#999"/>
<text x="440.0" y="779.0" text-anchor="end" fill="#e8731a" transform="rotate(-50 440.0 779.0)">07-14</text>
<line x1="471.0" y1="764.0" x2="471.0" y2="767.0" stroke="#999"/>
<text x="471.0" y="779.0" text-anchor="end" fill="#e8731a" transform="rotate(-50 471.0 779.0)">07-15</text>
<line x1="502.0" y1="764.0" x2="502.0" y2="767.0" stroke="#999"/>
<text x="502.0" y="779.0" text-anchor="end" fill="#e8731a" transform="rotate(-50 502.0 779.0)">07-15</text>
<line x1="533.0" y1="764.0" x2="533.0" y2="767.0" stroke="#999"/>
<text x="533.0" y="779.0" text-anchor="end" fill="#e8731a" transform="rotate(-50 533.0 779.0)">07-16</text>
<line x1="564.0" y1="764.0" x2="564.0" y2="767.0" stroke="#999"/>
<text x="564.0" y="779.0" text-anchor="end" fill="#e8731a" transform="rotate(-50 564.0 779.0)">07-17</text>
<line x1="595.0" y1="764.0" x2="595.0" y2="767.0" stroke="#999"/>
<text x="595.0" y="779.0" text-anchor="end" fill="#e8731a" transform="rotate(-50 595.0 779.0)">07-18</text>
<line x1="626.0" y1="764.0" x2="626.0" y2="767.0" stroke="#999"/>
<text x="626.0" y="779.0" text-anchor="end" fill="#e8731a" transform="rotate(-50 626.0 779.0)">07-19</text>
<line x1="657.0" y1="764.0" x2="657.0" y2="767.0" stroke="#999"/>
<text x="657.0" y="779.0" text-anchor="end" fill="#e8731a" transform="rotate(-50 657.0 779.0)">07-20</text>
<line x1="688.0" y1="764.0" x2="688.0" y2="767.0" stroke="#999"/>
<text x="688.0" y="779.0" text-anchor="end" fill="#e8731a" transform="rotate(-50 688.0 779.0)">07-21</text>
<polygon points="68.0,526.2 99.0,524.7 130.0,519.3 161.0,524.6 192.0,522.1 223.0,523.4 254.0,521.0 285.0,525.5 316.0,521.7 347.0,522.1 378.0,522.1 409.0,524.5 440.0,526.3 471.0,544.5 502.0,544.5 533.0,544.5 564.0,544.6 595.0,590.9 626.0,589.8 657.0,589.1 688.0,589.7 688.0,764.0 657.0,764.0 626.0,764.0 595.0,764.0 564.0,764.0 533.0,764.0 502.0,764.0 471.0,764.0 440.0,764.0 409.0,764.0 378.0,764.0 347.0,764.0 316.0,764.0 285.0,764.0 254.0,764.0 223.0,764.0 192.0,764.0 161.0,764.0 130.0,764.0 99.0,764.0 68.0,764.0" fill="#c7e9c0" fill-opacity="0.9" stroke="#fff" stroke-width="0.4"><title>api_session_create — apiCreateGlobalSession</title></polygon>
<polygon points="68.0,526.2 99.0,524.6 130.0,519.2 161.0,524.6 192.0,522.0 223.0,523.3 254.0,521.0 285.0,525.5 316.0,521.6 347.0,522.0 378.0,522.0 409.0,524.4 440.0,526.3 471.0,544.4 502.0,544.4 533.0,544.5 564.0,544.6 595.0,590.9 626.0,589.8 657.0,589.1 688.0,589.7 688.0,589.7 657.0,589.1 626.0,589.8 595.0,590.9 564.0,544.6 533.0,544.5 502.0,544.5 471.0,544.5 440.0,526.3 409.0,524.5 378.0,522.1 347.0,522.1 316.0,521.7 285.0,525.5 254.0,521.0 223.0,523.4 192.0,522.1 161.0,524.6 130.0,519.3 99.0,524.7 68.0,526.2" fill="#41ab5d" fill-opacity="0.9" stroke="#fff" stroke-width="0.4"><title>api_session_create — apiCreateSession</title></polygon>
<polygon points="68.0,492.8 99.0,491.4 130.0,486.4 161.0,491.1 192.0,488.2 223.0,490.5 254.0,488.0 285.0,492.2 316.0,486.8 347.0,486.2 378.0,488.8 409.0,491.7 440.0,493.4 471.0,522.3 502.0,522.9 533.0,521.8 564.0,523.9 595.0,585.1 626.0,583.9 657.0,583.6 688.0,584.3 688.0,589.7 657.0,589.1 626.0,589.8 595.0,590.9 564.0,544.6 533.0,544.5 502.0,544.4 471.0,544.4 440.0,526.3 409.0,524.4 378.0,522.0 347.0,522.0 316.0,521.6 285.0,525.5 254.0,521.0 223.0,523.3 192.0,522.0 161.0,524.6 130.0,519.2 99.0,524.6 68.0,526.2" fill="#969696" fill-opacity="0.9" stroke="#fff" stroke-width="0.4"><title>api_session_create — apiTotal (self)</title></polygon>
<a xlink:href="workloads/api_many_kernels.html" href="workloads/api_many_kernels.html" target="_top"><text x="764" y="448" font-size="15" font-weight="600" fill="#1a5fb4" text-decoration="underline">api_many_kernels<tspan fill="#888" font-weight="400" text-decoration="none">  0.67×</tspan></text></a>
<line x1="764.0" y1="764.0" x2="1384.0" y2="764.0" stroke="#eee"/>
<text x="760.0" y="767.0" text-anchor="end" fill="#999">0.0</text>
<line x1="764.0" y1="614.0" x2="1384.0" y2="614.0" stroke="#eee"/>
<text x="760.0" y="617.0" text-anchor="end" fill="#999">540</text>
<line x1="764.0" y1="464.0" x2="1384.0" y2="464.0" stroke="#eee"/>
<text x="760.0" y="467.0" text-anchor="end" fill="#999">1080</text>
<line x1="764.0" y1="464.0" x2="764.0" y2="764.0" stroke="#333"/>
<line x1="764.0" y1="764.0" x2="1384.0" y2="764.0" stroke="#333"/>
<line x1="764.0" y1="764.0" x2="764.0" y2="767.0" stroke="#999"/>
<text x="764.0" y="779.0" text-anchor="end" fill="#e8731a" transform="rotate(-50 764.0 779.0)">06-25</text>
<line x1="795.0" y1="764.0" x2="795.0" y2="767.0" stroke="#999"/>
<text x="795.0" y="779.0" text-anchor="end" fill="#e8731a" transform="rotate(-50 795.0 779.0)">06-26</text>
<line x1="826.0" y1="764.0" x2="826.0" y2="767.0" stroke="#999"/>
<text x="826.0" y="779.0" text-anchor="end" fill="#e8731a" transform="rotate(-50 826.0 779.0)">06-28</text>
<line x1="857.0" y1="764.0" x2="857.0" y2="767.0" stroke="#999"/>
<text x="857.0" y="779.0" text-anchor="end" fill="#e8731a" transform="rotate(-50 857.0 779.0)">07-01</text>
<line x1="888.0" y1="764.0" x2="888.0" y2="767.0" stroke="#999"/>
<text x="888.0" y="779.0" text-anchor="end" fill="#e8731a" transform="rotate(-50 888.0 779.0)">07-02</text>
<line x1="919.0" y1="764.0" x2="919.0" y2="767.0" stroke="#999"/>
<text x="919.0" y="779.0" text-anchor="end" fill="#e8731a" transform="rotate(-50 919.0 779.0)">07-03</text>
<line x1="950.0" y1="764.0" x2="950.0" y2="767.0" stroke="#999"/>
<text x="950.0" y="779.0" text-anchor="end" fill="#e8731a" transform="rotate(-50 950.0 779.0)">07-06</text>
<line x1="981.0" y1="764.0" x2="981.0" y2="767.0" stroke="#999"/>
<text x="981.0" y="779.0" text-anchor="end" fill="#e8731a" transform="rotate(-50 981.0 779.0)">07-07</text>
<line x1="1012.0" y1="764.0" x2="1012.0" y2="767.0" stroke="#999"/>
<text x="1012.0" y="779.0" text-anchor="end" fill="#e8731a" transform="rotate(-50 1012.0 779.0)">07-08</text>
<line x1="1043.0" y1="764.0" x2="1043.0" y2="767.0" stroke="#999"/>
<text x="1043.0" y="779.0" text-anchor="end" fill="#e8731a" transform="rotate(-50 1043.0 779.0)">07-09</text>
<line x1="1074.0" y1="764.0" x2="1074.0" y2="767.0" stroke="#999"/>
<text x="1074.0" y="779.0" text-anchor="end" fill="#e8731a" transform="rotate(-50 1074.0 779.0)">07-10</text>
<line x1="1105.0" y1="764.0" x2="1105.0" y2="767.0" stroke="#999"/>
<text x="1105.0" y="779.0" text-anchor="end" fill="#e8731a" transform="rotate(-50 1105.0 779.0)">07-11</text>
<line x1="1136.0" y1="764.0" x2="1136.0" y2="767.0" stroke="#999"/>
<text x="1136.0" y="779.0" text-anchor="end" fill="#e8731a" transform="rotate(-50 1136.0 779.0)">07-14</text>
<line x1="1167.0" y1="764.0" x2="1167.0" y2="767.0" stroke="#999"/>
<text x="1167.0" y="779.0" text-anchor="end" fill="#e8731a" transform="rotate(-50 1167.0 779.0)">07-15</text>
<line x1="1198.0" y1="764.0" x2="1198.0" y2="767.0" stroke="#999"/>
<text x="1198.0" y="779.0" text-anchor="end" fill="#e8731a" transform="rotate(-50 1198.0 779.0)">07-15</text>
<line x1="1229.0" y1="764.0" x2="1229.0" y2="767.0" stroke="#999"/>
<text x="1229.0" y="779.0" text-anchor="end" fill="#e8731a" transform="rotate(-50 1229.0 779.0)">07-16</text>
<line x1="1260.0" y1="764.0" x2="1260.0" y2="767.0" stroke="#999"/>
<text x="1260.0" y="779.0" text-anchor="end" fill="#e8731a" transform="rotate(-50 1260.0 779.0)">07-17</text>
<line x1="1291.0" y1="764.0" x2="1291.0" y2="767.0" stroke="#999"/>
<text x="1291.0" y="779.0" text-anchor="end" fill="#e8731a" transform="rotate(-50 1291.0 779.0)">07-18</text>
<line x1="1322.0" y1="764.0" x2="1322.0" y2="767.0" stroke="#999"/>
<text x="1322.0" y="779.0" text-anchor="end" fill="#e8731a" transform="rotate(-50 1322.0 779.0)">07-19</text>
<line x1="1353.0" y1="764.0" x2="1353.0" y2="767.0" stroke="#999"/>
<text x="1353.0" y="779.0" text-anchor="end" fill="#e8731a" transform="rotate(-50 1353.0 779.0)">07-20</text>
<line x1="1384.0" y1="764.0" x2="1384.0" y2="767.0" stroke="#999"/>
<text x="1384.0" y="779.0" text-anchor="end" fill="#e8731a" transform="rotate(-50 1384.0 779.0)">07-21</text>
<polygon points="764.0,732.0 795.0,731.9 826.0,730.9 857.0,732.5 888.0,732.2 919.0,732.1 950.0,731.8 981.0,732.6 1012.0,732.4 1043.0,732.5 1074.0,732.8 1105.0,733.1 1136.0,732.4 1167.0,733.3 1198.0,733.6 1229.0,733.8 1260.0,733.1 1291.0,737.4 1322.0,736.5 1353.0,736.9 1384.0,736.7 1384.0,764.0 1353.0,764.0 1322.0,764.0 1291.0,764.0 1260.0,764.0 1229.0,764.0 1198.0,764.0 1167.0,764.0 1136.0,764.0 1105.0,764.0 1074.0,764.0 1043.0,764.0 1012.0,764.0 981.0,764.0 950.0,764.0 919.0,764.0 888.0,764.0 857.0,764.0 826.0,764.0 795.0,764.0 764.0,764.0" fill="#c7e9c0" fill-opacity="0.9" stroke="#fff" stroke-width="0.4"><title>api_many_kernels — apiCreateGlobalSession</title></polygon>
<polygon points="764.0,732.0 795.0,731.9 826.0,730.9 857.0,732.5 888.0,732.1 919.0,732.1 950.0,731.8 981.0,732.6 1012.0,732.4 1043.0,732.5 1074.0,732.7 1105.0,733.1 1136.0,732.4 1167.0,733.3 1198.0,733.6 1229.0,733.8 1260.0,733.1 1291.0,737.4 1322.0,736.5 1353.0,736.9 1384.0,736.7 1384.0,736.7 1353.0,736.9 1322.0,736.5 1291.0,737.4 1260.0,733.1 1229.0,733.8 1198.0,733.6 1167.0,733.3 1136.0,732.4 1105.0,733.1 1074.0,732.8 1043.0,732.5 1012.0,732.4 981.0,732.6 950.0,731.8 919.0,732.1 888.0,732.2 857.0,732.5 826.0,730.9 795.0,731.9 764.0,732.0" fill="#41ab5d" fill-opacity="0.9" stroke="#fff" stroke-width="0.4"><title>api_many_kernels — apiCreateSession</title></polygon>
<polygon points="764.0,637.2 795.0,637.4 826.0,637.0 857.0,638.3 888.0,635.0 919.0,634.2 950.0,634.6 981.0,634.1 1012.0,633.8 1043.0,634.2 1074.0,634.4 1105.0,635.2 1136.0,635.5 1167.0,640.2 1198.0,641.0 1229.0,628.0 1260.0,627.8 1291.0,649.8 1322.0,649.2 1353.0,649.0 1384.0,648.1 1384.0,736.7 1353.0,736.9 1322.0,736.5 1291.0,737.4 1260.0,733.1 1229.0,733.8 1198.0,733.6 1167.0,733.3 1136.0,732.4 1105.0,733.1 1074.0,732.7 1043.0,732.5 1012.0,732.4 981.0,732.6 950.0,731.8 919.0,732.1 888.0,732.1 857.0,732.5 826.0,730.9 795.0,731.9 764.0,732.0" fill="#2171b5" fill-opacity="0.9" stroke="#fff" stroke-width="0.4"><title>api_many_kernels — apiLoadModule</title></polygon>
<polygon points="764.0,637.2 795.0,637.3 826.0,637.0 857.0,638.2 888.0,635.0 919.0,634.2 950.0,634.6 981.0,634.1 1012.0,633.8 1043.0,634.2 1074.0,634.4 1105.0,635.2 1136.0,635.5 1167.0,640.2 1198.0,641.0 1229.0,628.0 1260.0,627.8 1291.0,649.7 1322.0,649.2 1353.0,649.0 1384.0,648.1 1384.0,648.1 1353.0,649.0 1322.0,649.2 1291.0,649.8 1260.0,627.8 1229.0,628.0 1198.0,641.0 1167.0,640.2 1136.0,635.5 1105.0,635.2 1074.0,634.4 1043.0,634.2 1012.0,633.8 981.0,634.1 950.0,634.6 919.0,634.2 888.0,635.0 857.0,638.3 826.0,637.0 795.0,637.4 764.0,637.2" fill="#6baed6" fill-opacity="0.9" stroke="#fff" stroke-width="0.4"><title>api_many_kernels — apiFindEntryPoint</title></polygon>
<polygon points="764.0,637.1 795.0,637.3 826.0,636.9 857.0,638.2 888.0,634.9 919.0,634.1 950.0,634.5 981.0,634.0 1012.0,633.7 1043.0,634.1 1074.0,634.3 1105.0,635.1 1136.0,635.4 1167.0,640.2 1198.0,640.9 1229.0,628.0 1260.0,627.7 1291.0,649.7 1322.0,649.1 1353.0,649.0 1384.0,648.0 1384.0,648.1 1353.0,649.0 1322.0,649.2 1291.0,649.7 1260.0,627.8 1229.0,628.0 1198.0,641.0 1167.0,640.2 1136.0,635.5 1105.0,635.2 1074.0,634.4 1043.0,634.2 1012.0,633.8 981.0,634.1 950.0,634.6 919.0,634.2 888.0,635.0 857.0,638.2 826.0,637.0 795.0,637.3 764.0,637.2" fill="#9e9ac8" fill-opacity="0.9" stroke="#fff" stroke-width="0.4"><title>api_many_kernels — apiComposite</title></polygon>
<polygon points="764.0,637.1 795.0,637.2 826.0,636.9 857.0,638.2 888.0,634.9 919.0,634.1 950.0,634.5 981.0,634.0 1012.0,633.7 1043.0,634.1 1074.0,634.3 1105.0,635.1 1136.0,635.4 1167.0,640.2 1198.0,640.9 1229.0,628.0 1260.0,627.7 1291.0,649.7 1322.0,649.1 1353.0,649.0 1384.0,648.0 1384.0,648.0 1353.0,649.0 1322.0,649.1 1291.0,649.7 1260.0,627.7 1229.0,628.0 1198.0,640.9 1167.0,640.2 1136.0,635.4 1105.0,635.1 1074.0,634.3 1043.0,634.1 1012.0,633.7 981.0,634.0 950.0,634.5 919.0,634.1 888.0,634.9 857.0,638.2 826.0,636.9 795.0,637.3 764.0,637.1" fill="#6a51a3" fill-opacity="0.9" stroke="#fff" stroke-width="0.4"><title>api_many_kernels — apiLink</title></polygon>
<polygon points="764.0,494.0 795.0,494.1 826.0,495.8 857.0,496.4 888.0,490.2 919.0,490.8 950.0,490.3 981.0,548.3 1012.0,548.5 1043.0,548.9 1074.0,548.9 1105.0,550.9 1136.0,551.4 1167.0,569.2 1198.0,570.1 1229.0,557.5 1260.0,556.7 1291.0,586.2 1322.0,585.2 1353.0,585.5 1384.0,584.1 1384.0,648.0 1353.0,649.0 1322.0,649.1 1291.0,649.7 1260.0,627.7 1229.0,628.0 1198.0,640.9 1167.0,640.2 1136.0,635.4 1105.0,635.1 1074.0,634.3 1043.0,634.1 1012.0,633.7 981.0,634.0 950.0,634.5 919.0,634.1 888.0,634.9 857.0,638.2 826.0,636.9 795.0,637.2 764.0,637.1" fill="#fd8d3c" fill-opacity="0.9" stroke="#fff" stroke-width="0.4"><title>api_many_kernels — apiGetCode</title></polygon>
<polygon points="764.0,491.8 795.0,492.2 826.0,492.8 857.0,493.6 888.0,487.9 919.0,488.1 950.0,486.2 981.0,545.3 1012.0,545.3 1043.0,546.4 1074.0,546.5 1105.0,547.3 1136.0,548.5 1167.0,567.1 1198.0,567.6 1229.0,555.2 1260.0,554.7 1291.0,583.5 1322.0,582.8 1353.0,583.8 1384.0,581.8 1384.0,584.1 1353.0,585.5 1322.0,585.2 1291.0,586.2 1260.0,556.7 1229.0,557.5 1198.0,570.1 1167.0,569.2 1136.0,551.4 1105.0,550.9 1074.0,548.9 1043.0,548.9 1012.0,548.5 981.0,548.3 950.0,490.3 919.0,490.8 888.0,490.2 857.0,496.4 826.0,495.8 795.0,494.1 764.0,494.0" fill="#969696" fill-opacity="0.9" stroke="#fff" stroke-width="0.4"><title>api_many_kernels — apiTotal (self)</title></polygon>
<a xlink:href="workloads/api_module_graph.html" href="workloads/api_module_graph.html" target="_top"><text x="68" y="836" font-size="15" font-weight="600" fill="#1a5fb4" text-decoration="underline">api_module_graph<tspan fill="#888" font-weight="400" text-decoration="none">  0.97×</tspan></text></a>
<line x1="68.0" y1="1152.0" x2="688.0" y2="1152.0" stroke="#eee"/>
<text x="64.0" y="1155.0" text-anchor="end" fill="#999">0.0</text>
<line x1="68.0" y1="1002.0" x2="688.0" y2="1002.0" stroke="#eee"/>
<text x="64.0" y="1005.0" text-anchor="end" fill="#999">478</text>
<line x1="68.0" y1="852.0" x2="688.0" y2="852.0" stroke="#eee"/>
<text x="64.0" y="855.0" text-anchor="end" fill="#999">956</text>
<line x1="68.0" y1="852.0" x2="68.0" y2="1152.0" stroke="#333"/>
<line x1="68.0" y1="1152.0" x2="688.0" y2="1152.0" stroke="#333"/>
<line x1="68.0" y1="1152.0" x2="68.0" y2="1155.0" stroke="#999"/>
<text x="68.0" y="1167.0" text-anchor="end" fill="#e8731a" transform="rotate(-50 68.0 1167.0)">06-25</text>
<line x1="99.0" y1="1152.0" x2="99.0" y2="1155.0" stroke="#999"/>
<text x="99.0" y="1167.0" text-anchor="end" fill="#e8731a" transform="rotate(-50 99.0 1167.0)">06-26</text>
<line x1="130.0" y1="1152.0" x2="130.0" y2="1155.0" stroke="#999"/>
<text x="130.0" y="1167.0" text-anchor="end" fill="#e8731a" transform="rotate(-50 130.0 1167.0)">06-28</text>
<line x1="161.0" y1="1152.0" x2="161.0" y2="1155.0" stroke="#999"/>
<text x="161.0" y="1167.0" text-anchor="end" fill="#e8731a" transform="rotate(-50 161.0 1167.0)">07-01</text>
<line x1="192.0" y1="1152.0" x2="192.0" y2="1155.0" stroke="#999"/>
<text x="192.0" y="1167.0" text-anchor="end" fill="#e8731a" transform="rotate(-50 192.0 1167.0)">07-02</text>
<line x1="223.0" y1="1152.0" x2="223.0" y2="1155.0" stroke="#999"/>
<text x="223.0" y="1167.0" text-anchor="end" fill="#e8731a" transform="rotate(-50 223.0 1167.0)">07-03</text>
<line x1="254.0" y1="1152.0" x2="254.0" y2="1155.0" stroke="#999"/>
<text x="254.0" y="1167.0" text-anchor="end" fill="#e8731a" transform="rotate(-50 254.0 1167.0)">07-06</text>
<line x1="285.0" y1="1152.0" x2="285.0" y2="1155.0" stroke="#999"/>
<text x="285.0" y="1167.0" text-anchor="end" fill="#e8731a" transform="rotate(-50 285.0 1167.0)">07-07</text>
<line x1="316.0" y1="1152.0" x2="316.0" y2="1155.0" stroke="#999"/>
<text x="316.0" y="1167.0" text-anchor="end" fill="#e8731a" transform="rotate(-50 316.0 1167.0)">07-08</text>
<line x1="347.0" y1="1152.0" x2="347.0" y2="1155.0" stroke="#999"/>
<text x="347.0" y="1167.0" text-anchor="end" fill="#e8731a" transform="rotate(-50 347.0 1167.0)">07-09</text>
<line x1="378.0" y1="1152.0" x2="378.0" y2="1155.0" stroke="#999"/>
<text x="378.0" y="1167.0" text-anchor="end" fill="#e8731a" transform="rotate(-50 378.0 1167.0)">07-10</text>
<line x1="409.0" y1="1152.0" x2="409.0" y2="1155.0" stroke="#999"/>
<text x="409.0" y="1167.0" text-anchor="end" fill="#e8731a" transform="rotate(-50 409.0 1167.0)">07-11</text>
<line x1="440.0" y1="1152.0" x2="440.0" y2="1155.0" stroke="#999"/>
<text x="440.0" y="1167.0" text-anchor="end" fill="#e8731a" transform="rotate(-50 440.0 1167.0)">07-14</text>
<line x1="471.0" y1="1152.0" x2="471.0" y2="1155.0" stroke="#999"/>
<text x="471.0" y="1167.0" text-anchor="end" fill="#e8731a" transform="rotate(-50 471.0 1167.0)">07-15</text>
<line x1="502.0" y1="1152.0" x2="502.0" y2="1155.0" stroke="#999"/>
<text x="502.0" y="1167.0" text-anchor="end" fill="#e8731a" transform="rotate(-50 502.0 1167.0)">07-15</text>
<line x1="533.0" y1="1152.0" x2="533.0" y2="1155.0" stroke="#999"/>
<text x="533.0" y="1167.0" text-anchor="end" fill="#e8731a" transform="rotate(-50 533.0 1167.0)">07-16</text>
<line x1="564.0" y1="1152.0" x2="564.0" y2="1155.0" stroke="#999"/>
<text x="564.0" y="1167.0" text-anchor="end" fill="#e8731a" transform="rotate(-50 564.0 1167.0)">07-17</text>
<line x1="595.0" y1="1152.0" x2="595.0" y2="1155.0" stroke="#999"/>
<text x="595.0" y="1167.0" text-anchor="end" fill="#e8731a" transform="rotate(-50 595.0 1167.0)">07-18</text>
<line x1="626.0" y1="1152.0" x2="626.0" y2="1155.0" stroke="#999"/>
<text x="626.0" y="1167.0" text-anchor="end" fill="#e8731a" transform="rotate(-50 626.0 1167.0)">07-19</text>
<line x1="657.0" y1="1152.0" x2="657.0" y2="1155.0" stroke="#999"/>
<text x="657.0" y="1167.0" text-anchor="end" fill="#e8731a" transform="rotate(-50 657.0 1167.0)">07-20</text>
<line x1="688.0" y1="1152.0" x2="688.0" y2="1155.0" stroke="#999"/>
<text x="688.0" y="1167.0" text-anchor="end" fill="#e8731a" transform="rotate(-50 688.0 1167.0)">07-21</text>
<polygon points="68.0,1116.3 99.0,1116.0 130.0,1116.0 161.0,1116.4 192.0,1115.7 223.0,1116.9 254.0,1116.0 285.0,1116.9 316.0,1115.8 347.0,1116.4 378.0,1115.7 409.0,1116.3 440.0,1116.6 471.0,1116.3 502.0,1118.0 533.0,1117.5 564.0,1117.2 595.0,1121.1 626.0,1121.3 657.0,1121.3 688.0,1121.7 688.0,1152.0 657.0,1152.0 626.0,1152.0 595.0,1152.0 564.0,1152.0 533.0,1152.0 502.0,1152.0 471.0,1152.0 440.0,1152.0 409.0,1152.0 378.0,1152.0 347.0,1152.0 316.0,1152.0 285.0,1152.0 254.0,1152.0 223.0,1152.0 192.0,1152.0 161.0,1152.0 130.0,1152.0 99.0,1152.0 68.0,1152.0" fill="#c7e9c0" fill-opacity="0.9" stroke="#fff" stroke-width="0.4"><title>api_module_graph — apiCreateGlobalSession</title></polygon>
<polygon points="68.0,1116.3 99.0,1116.0 130.0,1116.0 161.0,1116.4 192.0,1115.7 223.0,1116.9 254.0,1116.0 285.0,1116.9 316.0,1115.7 347.0,1116.4 378.0,1115.7 409.0,1116.2 440.0,1116.6 471.0,1116.3 502.0,1118.0 533.0,1117.5 564.0,1117.2 595.0,1121.1 626.0,1121.3 657.0,1121.3 688.0,1121.7 688.0,1121.7 657.0,1121.3 626.0,1121.3 595.0,1121.1 564.0,1117.2 533.0,1117.5 502.0,1118.0 471.0,1116.3 440.0,1116.6 409.0,1116.3 378.0,1115.7 347.0,1116.4 316.0,1115.8 285.0,1116.9 254.0,1116.0 223.0,1116.9 192.0,1115.7 161.0,1116.4 130.0,1116.0 99.0,1116.0 68.0,1116.3" fill="#41ab5d" fill-opacity="0.9" stroke="#fff" stroke-width="0.4"><title>api_module_graph — apiCreateSession</title></polygon>
<polygon points="68.0,911.5 99.0,910.0 130.0,910.9 161.0,912.8 192.0,904.5 223.0,905.9 254.0,906.5 285.0,906.4 316.0,906.7 347.0,904.6 378.0,901.9 409.0,903.2 440.0,904.6 471.0,915.6 502.0,916.5 533.0,882.9 564.0,883.0 595.0,918.6 626.0,917.0 657.0,918.7 688.0,916.0 688.0,1121.7 657.0,1121.3 626.0,1121.3 595.0,1121.1 564.0,1117.2 533.0,1117.5 502.0,1118.0 471.0,1116.3 440.0,1116.6 409.0,1116.2 378.0,1115.7 347.0,1116.4 316.0,1115.7 285.0,1116.9 254.0,1116.0 223.0,1116.9 192.0,1115.7 161.0,1116.4 130.0,1116.0 99.0,1116.0 68.0,1116.3" fill="#2171b5" fill-opacity="0.9" stroke="#fff" stroke-width="0.4"><title>api_module_graph — apiLoadModule</title></polygon>
<polygon points="68.0,911.5 99.0,910.0 130.0,910.9 161.0,912.8 192.0,904.5 223.0,905.9 254.0,906.5 285.0,906.4 316.0,906.7 347.0,904.6 378.0,901.9 409.0,903.2 440.0,904.6 471.0,915.6 502.0,916.5 533.0,882.9 564.0,883.0 595.0,918.6 626.0,917.0 657.0,918.7 688.0,916.0 688.0,916.0 657.0,918.7 626.0,917.0 595.0,918.6 564.0,883.0 533.0,882.9 502.0,916.5 471.0,915.6 440.0,904.6 409.0,903.2 378.0,901.9 347.0,904.6 316.0,906.7 285.0,906.4 254.0,906.5 223.0,905.9 192.0,904.5 161.0,912.8 130.0,910.9 99.0,910.0 68.0,911.5" fill="#6baed6" fill-opacity="0.9" stroke="#fff" stroke-width="0.4"><title>api_module_graph — apiFindEntryPoint</title></polygon>
<polygon points="68.0,911.4 99.0,909.9 130.0,910.9 161.0,912.8 192.0,904.4 223.0,905.9 254.0,906.4 285.0,906.4 316.0,906.6 347.0,904.6 378.0,901.9 409.0,903.2 440.0,904.5 471.0,915.5 502.0,916.4 533.0,882.9 564.0,883.0 595.0,918.6 626.0,916.9 657.0,918.7 688.0,916.0 688.0,916.0 657.0,918.7 626.0,917.0 595.0,918.6 564.0,883.0 533.0,882.9 502.0,916.5 471.0,915.6 440.0,904.6 409.0,903.2 378.0,901.9 347.0,904.6 316.0,906.7 285.0,906.4 254.0,906.5 223.0,905.9 192.0,904.5 161.0,912.8 130.0,910.9 99.0,910.0 68.0,911.5" fill="#9e9ac8" fill-opacity="0.9" stroke="#fff" stroke-width="0.4"><title>api_module_graph — apiComposite</title></polygon>
<polygon points="68.0,910.8 99.0,909.4 130.0,910.3 161.0,912.2 192.0,903.8 223.0,905.2 254.0,905.9 285.0,905.7 316.0,906.1 347.0,904.0 378.0,901.3 409.0,902.6 440.0,904.0 471.0,914.8 502.0,915.7 533.0,882.2 564.0,882.3 595.0,917.9 626.0,916.3 657.0,918.0 688.0,915.3 688.0,916.0 657.0,918.7 626.0,916.9 595.0,918.6 564.0,883.0 533.0,882.9 502.0,916.4 471.0,915.5 440.0,904.5 409.0,903.2 378.0,901.9 347.0,904.6 316.0,906.6 285.0,906.4 254.0,906.4 223.0,905.9 192.0,904.4 161.0,912.8 130.0,910.9 99.0,909.9 68.0,911.4" fill="#6a51a3" fill-opacity="0.9" stroke="#fff" stroke-width="0.4"><title>api_module_graph — apiLink</title></polygon>
<polygon points="68.0,901.5 99.0,900.2 130.0,901.3 161.0,902.7 192.0,893.9 223.0,895.8 254.0,896.3 285.0,896.9 316.0,896.9 347.0,895.0 378.0,892.2 409.0,894.1 440.0,894.7 471.0,907.0 502.0,907.9 533.0,874.6 564.0,874.7 595.0,911.3 626.0,910.0 657.0,911.6 688.0,908.9 688.0,915.3 657.0,918.0 626.0,916.3 595.0,917.9 564.0,882.3 533.0,882.2 502.0,915.7 471.0,914.8 440.0,904.0 409.0,902.6 378.0,901.3 347.0,904.0 316.0,906.1 285.0,905.7 254.0,905.9 223.0,905.2 192.0,903.8 161.0,912.2 130.0,910.3 99.0,909.4 68.0,910.8" fill="#fd8d3c" fill-opacity="0.9" stroke="#fff" stroke-width="0.4"><title>api_module_graph — apiGetCode</title></polygon>
<polygon points="68.0,901.0 99.0,899.3 130.0,900.7 161.0,902.4 192.0,893.4 223.0,895.0 254.0,895.2 285.0,896.9 316.0,896.7 347.0,894.7 378.0,891.9 409.0,893.7 440.0,894.7 471.0,907.0 502.0,907.3 533.0,874.2 564.0,874.7 595.0,911.0 626.0,909.4 657.0,910.2 688.0,908.8 688.0,908.9 657.0,911.6 626.0,910.0 595.0,911.3 564.0,874.7 533.0,874.6 502.0,907.9 471.0,907.0 440.0,894.7 409.0,894.1 378.0,892.2 347.0,895.0 316.0,896.9 285.0,896.9 254.0,896.3 223.0,895.8 192.0,893.9 161.0,902.7 130.0,901.3 99.0,900.2 68.0,901.5" fill="#969696" fill-opacity="0.9" stroke="#fff" stroke-width="0.4"><title>api_module_graph — apiTotal (self)</title></polygon>
<a xlink:href="workloads/api_module_graph_bin.html" href="workloads/api_module_graph_bin.html" target="_top"><text x="764" y="836" font-size="15" font-weight="600" fill="#1a5fb4" text-decoration="underline">api_module_graph_bin<tspan fill="#888" font-weight="400" text-decoration="none">  0.69×</tspan></text></a>
<line x1="764.0" y1="1152.0" x2="1384.0" y2="1152.0" stroke="#eee"/>
<text x="760.0" y="1155.0" text-anchor="end" fill="#999">0.0</text>
<line x1="764.0" y1="1002.0" x2="1384.0" y2="1002.0" stroke="#eee"/>
<text x="760.0" y="1005.0" text-anchor="end" fill="#999">83</text>
<line x1="764.0" y1="852.0" x2="1384.0" y2="852.0" stroke="#eee"/>
<text x="760.0" y="855.0" text-anchor="end" fill="#999">167</text>
<line x1="764.0" y1="852.0" x2="764.0" y2="1152.0" stroke="#333"/>
<line x1="764.0" y1="1152.0" x2="1384.0" y2="1152.0" stroke="#333"/>
<line x1="764.0" y1="1152.0" x2="764.0" y2="1155.0" stroke="#999"/>
<text x="764.0" y="1167.0" text-anchor="end" fill="#e8731a" transform="rotate(-50 764.0 1167.0)">06-25</text>
<line x1="795.0" y1="1152.0" x2="795.0" y2="1155.0" stroke="#999"/>
<text x="795.0" y="1167.0" text-anchor="end" fill="#e8731a" transform="rotate(-50 795.0 1167.0)">06-26</text>
<line x1="826.0" y1="1152.0" x2="826.0" y2="1155.0" stroke="#999"/>
<text x="826.0" y="1167.0" text-anchor="end" fill="#e8731a" transform="rotate(-50 826.0 1167.0)">06-28</text>
<line x1="857.0" y1="1152.0" x2="857.0" y2="1155.0" stroke="#999"/>
<text x="857.0" y="1167.0" text-anchor="end" fill="#e8731a" transform="rotate(-50 857.0 1167.0)">07-01</text>
<line x1="888.0" y1="1152.0" x2="888.0" y2="1155.0" stroke="#999"/>
<text x="888.0" y="1167.0" text-anchor="end" fill="#e8731a" transform="rotate(-50 888.0 1167.0)">07-02</text>
<line x1="919.0" y1="1152.0" x2="919.0" y2="1155.0" stroke="#999"/>
<text x="919.0" y="1167.0" text-anchor="end" fill="#e8731a" transform="rotate(-50 919.0 1167.0)">07-03</text>
<line x1="950.0" y1="1152.0" x2="950.0" y2="1155.0" stroke="#999"/>
<text x="950.0" y="1167.0" text-anchor="end" fill="#e8731a" transform="rotate(-50 950.0 1167.0)">07-06</text>
<line x1="981.0" y1="1152.0" x2="981.0" y2="1155.0" stroke="#999"/>
<text x="981.0" y="1167.0" text-anchor="end" fill="#e8731a" transform="rotate(-50 981.0 1167.0)">07-07</text>
<line x1="1012.0" y1="1152.0" x2="1012.0" y2="1155.0" stroke="#999"/>
<text x="1012.0" y="1167.0" text-anchor="end" fill="#e8731a" transform="rotate(-50 1012.0 1167.0)">07-08</text>
<line x1="1043.0" y1="1152.0" x2="1043.0" y2="1155.0" stroke="#999"/>
<text x="1043.0" y="1167.0" text-anchor="end" fill="#e8731a" transform="rotate(-50 1043.0 1167.0)">07-09</text>
<line x1="1074.0" y1="1152.0" x2="1074.0" y2="1155.0" stroke="#999"/>
<text x="1074.0" y="1167.0" text-anchor="end" fill="#e8731a" transform="rotate(-50 1074.0 1167.0)">07-10</text>
<line x1="1105.0" y1="1152.0" x2="1105.0" y2="1155.0" stroke="#999"/>
<text x="1105.0" y="1167.0" text-anchor="end" fill="#e8731a" transform="rotate(-50 1105.0 1167.0)">07-11</text>
<line x1="1136.0" y1="1152.0" x2="1136.0" y2="1155.0" stroke="#999"/>
<text x="1136.0" y="1167.0" text-anchor="end" fill="#e8731a" transform="rotate(-50 1136.0 1167.0)">07-14</text>
<line x1="1167.0" y1="1152.0" x2="1167.0" y2="1155.0" stroke="#999"/>
<text x="1167.0" y="1167.0" text-anchor="end" fill="#e8731a" transform="rotate(-50 1167.0 1167.0)">07-15</text>
<line x1="1198.0" y1="1152.0" x2="1198.0" y2="1155.0" stroke="#999"/>
<text x="1198.0" y="1167.0" text-anchor="end" fill="#e8731a" transform="rotate(-50 1198.0 1167.0)">07-15</text>
<line x1="1229.0" y1="1152.0" x2="1229.0" y2="1155.0" stroke="#999"/>
<text x="1229.0" y="1167.0" text-anchor="end" fill="#e8731a" transform="rotate(-50 1229.0 1167.0)">07-16</text>
<line x1="1260.0" y1="1152.0" x2="1260.0" y2="1155.0" stroke="#999"/>
<text x="1260.0" y="1167.0" text-anchor="end" fill="#e8731a" transform="rotate(-50 1260.0 1167.0)">07-17</text>
<line x1="1291.0" y1="1152.0" x2="1291.0" y2="1155.0" stroke="#999"/>
<text x="1291.0" y="1167.0" text-anchor="end" fill="#e8731a" transform="rotate(-50 1291.0 1167.0)">07-18</text>
<line x1="1322.0" y1="1152.0" x2="1322.0" y2="1155.0" stroke="#999"/>
<text x="1322.0" y="1167.0" text-anchor="end" fill="#e8731a" transform="rotate(-50 1322.0 1167.0)">07-19</text>
<line x1="1353.0" y1="1152.0" x2="1353.0" y2="1155.0" stroke="#999"/>
<text x="1353.0" y="1167.0" text-anchor="end" fill="#e8731a" transform="rotate(-50 1353.0 1167.0)">07-20</text>
<line x1="1384.0" y1="1152.0" x2="1384.0" y2="1155.0" stroke="#999"/>
<text x="1384.0" y="1167.0" text-anchor="end" fill="#e8731a" transform="rotate(-50 1384.0 1167.0)">07-21</text>
<polygon points="764.0,1034.9 795.0,1035.6 826.0,1033.5 857.0,1035.2 888.0,1035.1 919.0,1033.8 950.0,1034.3 981.0,1037.1 1012.0,1034.4 1043.0,1035.7 1074.0,1034.2 1105.0,1035.5 1136.0,1037.8 1167.0,1044.3 1198.0,1045.7 1229.0,1042.8 1260.0,1046.4 1291.0,1061.2 1322.0,1060.4 1353.0,1058.8 1384.0,1060.6 1384.0,1152.0 1353.0,1152.0 1322.0,1152.0 1291.0,1152.0 1260.0,1152.0 1229.0,1152.0 1198.0,1152.0 1167.0,1152.0 1136.0,1152.0 1105.0,1152.0 1074.0,1152.0 1043.0,1152.0 1012.0,1152.0 981.0,1152.0 950.0,1152.0 919.0,1152.0 888.0,1152.0 857.0,1152.0 826.0,1152.0 795.0,1152.0 764.0,1152.0" fill="#c7e9c0" fill-opacity="0.9" stroke="#fff" stroke-width="0.4"><title>api_module_graph_bin — apiCreateGlobalSession</title></polygon>
<polygon points="764.0,1034.9 795.0,1035.5 826.0,1033.5 857.0,1035.2 888.0,1035.1 919.0,1033.8 950.0,1034.2 981.0,1037.1 1012.0,1034.4 1043.0,1035.7 1074.0,1034.1 1105.0,1035.5 1136.0,1037.8 1167.0,1044.3 1198.0,1045.7 1229.0,1042.8 1260.0,1046.4 1291.0,1061.2 1322.0,1060.4 1353.0,1058.8 1384.0,1060.6 1384.0,1060.6 1353.0,1058.8 1322.0,1060.4 1291.0,1061.2 1260.0,1046.4 1229.0,1042.8 1198.0,1045.7 1167.0,1044.3 1136.0,1037.8 1105.0,1035.5 1074.0,1034.2 1043.0,1035.7 1012.0,1034.4 981.0,1037.1 950.0,1034.3 919.0,1033.8 888.0,1035.1 857.0,1035.2 826.0,1033.5 795.0,1035.6 764.0,1034.9" fill="#41ab5d" fill-opacity="0.9" stroke="#fff" stroke-width="0.4"><title>api_module_graph_bin — apiCreateSession</title></polygon>
<polygon points="764.0,907.7 795.0,913.7 826.0,918.4 857.0,917.0 888.0,914.5 919.0,908.9 950.0,916.4 981.0,914.6 1012.0,911.1 1043.0,915.9 1074.0,919.9 1105.0,910.1 1136.0,919.1 1167.0,942.2 1198.0,943.1 1229.0,934.9 1260.0,946.1 1291.0,982.8 1322.0,983.2 1353.0,982.0 1384.0,981.1 1384.0,1060.6 1353.0,1058.8 1322.0,1060.4 1291.0,1061.2 1260.0,1046.4 1229.0,1042.8 1198.0,1045.7 1167.0,1044.3 1136.0,1037.8 1105.0,1035.5 1074.0,1034.1 1043.0,1035.7 1012.0,1034.4 981.0,1037.1 950.0,1034.2 919.0,1033.8 888.0,1035.1 857.0,1035.2 826.0,1033.5 795.0,1035.5 764.0,1034.9" fill="#2171b5" fill-opacity="0.9" stroke="#fff" stroke-width="0.4"><title>api_module_graph_bin — apiLoadModule</title></polygon>
<polygon points="764.0,907.7 795.0,913.7 826.0,918.4 857.0,917.0 888.0,914.5 919.0,908.9 950.0,916.4 981.0,914.6 1012.0,911.1 1043.0,915.9 1074.0,919.9 1105.0,910.1 1136.0,919.1 1167.0,942.2 1198.0,943.1 1229.0,934.9 1260.0,946.1 1291.0,982.8 1322.0,983.2 1353.0,982.0 1384.0,981.1 1384.0,981.1 1353.0,982.0 1322.0,983.2 1291.0,982.8 1260.0,946.1 1229.0,934.9 1198.0,943.1 1167.0,942.2 1136.0,919.1 1105.0,910.1 1074.0,919.9 1043.0,915.9 1012.0,911.1 981.0,914.6 950.0,916.4 919.0,908.9 888.0,914.5 857.0,917.0 826.0,918.4 795.0,913.7 764.0,907.7" fill="#6baed6" fill-opacity="0.9" stroke="#fff" stroke-width="0.4"><title>api_module_graph_bin — apiFindEntryPoint</title></polygon>
<polygon points="764.0,907.6 795.0,913.6 826.0,918.3 857.0,916.9 888.0,914.4 919.0,908.8 950.0,916.3 981.0,914.5 1012.0,911.0 1043.0,915.8 1074.0,919.8 1105.0,910.0 1136.0,919.0 1167.0,942.1 1198.0,943.0 1229.0,934.8 1260.0,946.1 1291.0,982.7 1322.0,983.1 1353.0,981.9 1384.0,981.0 1384.0,981.1 1353.0,982.0 1322.0,983.2 1291.0,982.8 1260.0,946.1 1229.0,934.9 1198.0,943.1 1167.0,942.2 1136.0,919.1 1105.0,910.1 1074.0,919.9 1043.0,915.9 1012.0,911.1 981.0,914.6 950.0,916.4 919.0,908.9 888.0,914.5 857.0,917.0 826.0,918.4 795.0,913.7 764.0,907.7" fill="#9e9ac8" fill-opacity="0.9" stroke="#fff" stroke-width="0.4"><title>api_module_graph_bin — apiComposite</title></polygon>
<polygon points="764.0,905.7 795.0,911.7 826.0,916.3 857.0,915.1 888.0,912.6 919.0,906.8 950.0,914.6 981.0,912.6 1012.0,909.2 1043.0,914.0 1074.0,918.1 1105.0,908.1 1136.0,917.0 1167.0,940.0 1198.0,940.9 1229.0,932.6 1260.0,944.0 1291.0,980.8 1322.0,981.5 1353.0,979.6 1384.0,979.0 1384.0,981.0 1353.0,981.9 1322.0,983.1 1291.0,982.7 1260.0,946.1 1229.0,934.8 1198.0,943.0 1167.0,942.1 1136.0,919.0 1105.0,910.0 1074.0,919.8 1043.0,915.8 1012.0,911.0 981.0,914.5 950.0,916.3 919.0,908.8 888.0,914.4 857.0,916.9 826.0,918.3 795.0,913.6 764.0,907.6" fill="#6a51a3" fill-opacity="0.9" stroke="#fff" stroke-width="0.4"><title>api_module_graph_bin — apiLink</title></polygon>
<polygon points="764.0,874.2 795.0,878.9 826.0,886.0 857.0,883.5 888.0,880.1 919.0,875.0 950.0,883.1 981.0,883.6 1012.0,877.3 1043.0,884.5 1074.0,889.5 1105.0,878.2 1136.0,886.5 1167.0,915.4 1198.0,915.9 1229.0,906.5 1260.0,918.7 1291.0,961.5 1322.0,962.3 1353.0,960.9 1384.0,960.3 1384.0,979.0 1353.0,979.6 1322.0,981.5 1291.0,980.8 1260.0,944.0 1229.0,932.6 1198.0,940.9 1167.0,940.0 1136.0,917.0 1105.0,908.1 1074.0,918.1 1043.0,914.0 1012.0,909.2 981.0,912.6 950.0,914.6 919.0,906.8 888.0,912.6 857.0,915.1 826.0,916.3 795.0,911.7 764.0,905.7" fill="#fd8d3c" fill-opacity="0.9" stroke="#fff" stroke-width="0.4"><title>api_module_graph_bin — apiGetCode</title></polygon>
<a xlink:href="workloads/api_reflection.html" href="workloads/api_reflection.html" target="_top"><text x="68" y="1224" font-size="15" font-weight="600" fill="#1a5fb4" text-decoration="underline">api_reflection<tspan fill="#888" font-weight="400" text-decoration="none">  0.71×</tspan></text></a>
<line x1="68.0" y1="1540.0" x2="688.0" y2="1540.0" stroke="#eee"/>
<text x="64.0" y="1543.0" text-anchor="end" fill="#999">0.0</text>
<line x1="68.0" y1="1390.0" x2="688.0" y2="1390.0" stroke="#eee"/>
<text x="64.0" y="1393.0" text-anchor="end" fill="#999">457</text>
<line x1="68.0" y1="1240.0" x2="688.0" y2="1240.0" stroke="#eee"/>
<text x="64.0" y="1243.0" text-anchor="end" fill="#999">914</text>
<line x1="68.0" y1="1240.0" x2="68.0" y2="1540.0" stroke="#333"/>
<line x1="68.0" y1="1540.0" x2="688.0" y2="1540.0" stroke="#333"/>
<line x1="68.0" y1="1540.0" x2="68.0" y2="1543.0" stroke="#999"/>
<text x="68.0" y="1555.0" text-anchor="end" fill="#e8731a" transform="rotate(-50 68.0 1555.0)">06-25</text>
<line x1="99.0" y1="1540.0" x2="99.0" y2="1543.0" stroke="#999"/>
<text x="99.0" y="1555.0" text-anchor="end" fill="#e8731a" transform="rotate(-50 99.0 1555.0)">06-26</text>
<line x1="130.0" y1="1540.0" x2="130.0" y2="1543.0" stroke="#999"/>
<text x="130.0" y="1555.0" text-anchor="end" fill="#e8731a" transform="rotate(-50 130.0 1555.0)">06-28</text>
<line x1="161.0" y1="1540.0" x2="161.0" y2="1543.0" stroke="#999"/>
<text x="161.0" y="1555.0" text-anchor="end" fill="#e8731a" transform="rotate(-50 161.0 1555.0)">07-01</text>
<line x1="192.0" y1="1540.0" x2="192.0" y2="1543.0" stroke="#999"/>
<text x="192.0" y="1555.0" text-anchor="end" fill="#e8731a" transform="rotate(-50 192.0 1555.0)">07-02</text>
<line x1="223.0" y1="1540.0" x2="223.0" y2="1543.0" stroke="#999"/>
<text x="223.0" y="1555.0" text-anchor="end" fill="#e8731a" transform="rotate(-50 223.0 1555.0)">07-03</text>
<line x1="254.0" y1="1540.0" x2="254.0" y2="1543.0" stroke="#999"/>
<text x="254.0" y="1555.0" text-anchor="end" fill="#e8731a" transform="rotate(-50 254.0 1555.0)">07-06</text>
<line x1="285.0" y1="1540.0" x2="285.0" y2="1543.0" stroke="#999"/>
<text x="285.0" y="1555.0" text-anchor="end" fill="#e8731a" transform="rotate(-50 285.0 1555.0)">07-07</text>
<line x1="316.0" y1="1540.0" x2="316.0" y2="1543.0" stroke="#999"/>
<text x="316.0" y="1555.0" text-anchor="end" fill="#e8731a" transform="rotate(-50 316.0 1555.0)">07-08</text>
<line x1="347.0" y1="1540.0" x2="347.0" y2="1543.0" stroke="#999"/>
<text x="347.0" y="1555.0" text-anchor="end" fill="#e8731a" transform="rotate(-50 347.0 1555.0)">07-09</text>
<line x1="378.0" y1="1540.0" x2="378.0" y2="1543.0" stroke="#999"/>
<text x="378.0" y="1555.0" text-anchor="end" fill="#e8731a" transform="rotate(-50 378.0 1555.0)">07-10</text>
<line x1="409.0" y1="1540.0" x2="409.0" y2="1543.0" stroke="#999"/>
<text x="409.0" y="1555.0" text-anchor="end" fill="#e8731a" transform="rotate(-50 409.0 1555.0)">07-11</text>
<line x1="440.0" y1="1540.0" x2="440.0" y2="1543.0" stroke="#999"/>
<text x="440.0" y="1555.0" text-anchor="end" fill="#e8731a" transform="rotate(-50 440.0 1555.0)">07-14</text>
<line x1="471.0" y1="1540.0" x2="471.0" y2="1543.0" stroke="#999"/>
<text x="471.0" y="1555.0" text-anchor="end" fill="#e8731a" transform="rotate(-50 471.0 1555.0)">07-15</text>
<line x1="502.0" y1="1540.0" x2="502.0" y2="1543.0" stroke="#999"/>
<text x="502.0" y="1555.0" text-anchor="end" fill="#e8731a" transform="rotate(-50 502.0 1555.0)">07-15</text>
<line x1="533.0" y1="1540.0" x2="533.0" y2="1543.0" stroke="#999"/>
<text x="533.0" y="1555.0" text-anchor="end" fill="#e8731a" transform="rotate(-50 533.0 1555.0)">07-16</text>
<line x1="564.0" y1="1540.0" x2="564.0" y2="1543.0" stroke="#999"/>
<text x="564.0" y="1555.0" text-anchor="end" fill="#e8731a" transform="rotate(-50 564.0 1555.0)">07-17</text>
<line x1="595.0" y1="1540.0" x2="595.0" y2="1543.0" stroke="#999"/>
<text x="595.0" y="1555.0" text-anchor="end" fill="#e8731a" transform="rotate(-50 595.0 1555.0)">07-18</text>
<line x1="626.0" y1="1540.0" x2="626.0" y2="1543.0" stroke="#999"/>
<text x="626.0" y="1555.0" text-anchor="end" fill="#e8731a" transform="rotate(-50 626.0 1555.0)">07-19</text>
<line x1="657.0" y1="1540.0" x2="657.0" y2="1543.0" stroke="#999"/>
<text x="657.0" y="1555.0" text-anchor="end" fill="#e8731a" transform="rotate(-50 657.0 1555.0)">07-20</text>
<line x1="688.0" y1="1540.0" x2="688.0" y2="1543.0" stroke="#999"/>
<text x="688.0" y="1555.0" text-anchor="end" fill="#e8731a" transform="rotate(-50 688.0 1555.0)">07-21</text>
<polygon points="68.0,1503.1 99.0,1501.8 130.0,1501.5 161.0,1502.4 192.0,1501.5 223.0,1501.9 254.0,1502.0 285.0,1503.0 316.0,1502.2 347.0,1502.9 378.0,1502.9 409.0,1502.7 440.0,1502.0 471.0,1503.6 502.0,1504.4 533.0,1504.2 564.0,1503.0 595.0,1507.6 626.0,1507.6 657.0,1507.9 688.0,1508.0 688.0,1540.0 657.0,1540.0 626.0,1540.0 595.0,1540.0 564.0,1540.0 533.0,1540.0 502.0,1540.0 471.0,1540.0 440.0,1540.0 409.0,1540.0 378.0,1540.0 347.0,1540.0 316.0,1540.0 285.0,1540.0 254.0,1540.0 223.0,1540.0 192.0,1540.0 161.0,1540.0 130.0,1540.0 99.0,1540.0 68.0,1540.0" fill="#c7e9c0" fill-opacity="0.9" stroke="#fff" stroke-width="0.4"><title>api_reflection — apiCreateGlobalSession</title></polygon>
<polygon points="68.0,1503.1 99.0,1501.8 130.0,1501.4 161.0,1502.4 192.0,1501.5 223.0,1501.9 254.0,1502.0 285.0,1503.0 316.0,1502.2 347.0,1502.8 378.0,1502.9 409.0,1502.7 440.0,1502.0 471.0,1503.6 502.0,1504.4 533.0,1504.2 564.0,1503.0 595.0,1507.5 626.0,1507.6 657.0,1507.9 688.0,1508.0 688.0,1508.0 657.0,1507.9 626.0,1507.6 595.0,1507.6 564.0,1503.0 533.0,1504.2 502.0,1504.4 471.0,1503.6 440.0,1502.0 409.0,1502.7 378.0,1502.9 347.0,1502.9 316.0,1502.2 285.0,1503.0 254.0,1502.0 223.0,1501.9 192.0,1501.5 161.0,1502.4 130.0,1501.5 99.0,1501.8 68.0,1503.1" fill="#41ab5d" fill-opacity="0.9" stroke="#fff" stroke-width="0.4"><title>api_reflection — apiCreateSession</title></polygon>
<polygon points="68.0,1422.9 99.0,1421.6 130.0,1420.6 161.0,1422.8 192.0,1420.3 223.0,1420.0 254.0,1421.2 285.0,1421.5 316.0,1421.1 347.0,1421.5 378.0,1417.8 409.0,1417.5 440.0,1417.7 471.0,1424.0 502.0,1424.7 533.0,1410.4 564.0,1409.0 595.0,1425.9 626.0,1426.2 657.0,1426.8 688.0,1425.6 688.0,1508.0 657.0,1507.9 626.0,1507.6 595.0,1507.5 564.0,1503.0 533.0,1504.2 502.0,1504.4 471.0,1503.6 440.0,1502.0 409.0,1502.7 378.0,1502.9 347.0,1502.8 316.0,1502.2 285.0,1503.0 254.0,1502.0 223.0,1501.9 192.0,1501.5 161.0,1502.4 130.0,1501.4 99.0,1501.8 68.0,1503.1" fill="#2171b5" fill-opacity="0.9" stroke="#fff" stroke-width="0.4"><title>api_reflection — apiLoadModule</title></polygon>
<polygon points="68.0,1422.9 99.0,1421.6 130.0,1420.6 161.0,1422.8 192.0,1420.3 223.0,1420.0 254.0,1421.2 285.0,1421.5 316.0,1421.1 347.0,1421.5 378.0,1417.8 409.0,1417.5 440.0,1417.7 471.0,1424.0 502.0,1424.7 533.0,1410.4 564.0,1409.0 595.0,1425.9 626.0,1426.2 657.0,1426.8 688.0,1425.6 688.0,1425.6 657.0,1426.8 626.0,1426.2 595.0,1425.9 564.0,1409.0 533.0,1410.4 502.0,1424.7 471.0,1424.0 440.0,1417.7 409.0,1417.5 378.0,1417.8 347.0,1421.5 316.0,1421.1 285.0,1421.5 254.0,1421.2 223.0,1420.0 192.0,1420.3 161.0,1422.8 130.0,1420.6 99.0,1421.6 68.0,1422.9" fill="#6baed6" fill-opacity="0.9" stroke="#fff" stroke-width="0.4"><title>api_reflection — apiFindEntryPoint</title></polygon>
<polygon points="68.0,1422.9 99.0,1421.5 130.0,1420.5 161.0,1422.8 192.0,1420.2 223.0,1419.9 254.0,1421.1 285.0,1421.5 316.0,1421.1 347.0,1421.4 378.0,1417.7 409.0,1417.4 440.0,1417.6 471.0,1424.0 502.0,1424.7 533.0,1410.4 564.0,1409.0 595.0,1425.9 626.0,1426.1 657.0,1426.7 688.0,1425.6 688.0,1425.6 657.0,1426.8 626.0,1426.2 595.0,1425.9 564.0,1409.0 533.0,1410.4 502.0,1424.7 471.0,1424.0 440.0,1417.7 409.0,1417.5 378.0,1417.8 347.0,1421.5 316.0,1421.1 285.0,1421.5 254.0,1421.2 223.0,1420.0 192.0,1420.3 161.0,1422.8 130.0,1420.6 99.0,1421.6 68.0,1422.9" fill="#9e9ac8" fill-opacity="0.9" stroke="#fff" stroke-width="0.4"><title>api_reflection — apiComposite</title></polygon>
<polygon points="68.0,1422.9 99.0,1421.5 130.0,1420.5 161.0,1422.7 192.0,1420.2 223.0,1419.9 254.0,1421.1 285.0,1421.5 316.0,1421.0 347.0,1421.4 378.0,1417.7 409.0,1417.4 440.0,1417.6 471.0,1424.0 502.0,1424.7 533.0,1410.4 564.0,1409.0 595.0,1425.9 626.0,1426.1 657.0,1426.7 688.0,1425.6 688.0,1425.6 657.0,1426.7 626.0,1426.1 595.0,1425.9 564.0,1409.0 533.0,1410.4 502.0,1424.7 471.0,1424.0 440.0,1417.6 409.0,1417.4 378.0,1417.7 347.0,1421.4 316.0,1421.1 285.0,1421.5 254.0,1421.1 223.0,1419.9 192.0,1420.2 161.0,1422.8 130.0,1420.5 99.0,1421.5 68.0,1422.9" fill="#6a51a3" fill-opacity="0.9" stroke="#fff" stroke-width="0.4"><title>api_reflection — apiLink</title></polygon>
<polygon points="68.0,1272.3 99.0,1269.9 130.0,1268.2 161.0,1272.4 192.0,1267.0 223.0,1265.9 254.0,1268.0 285.0,1324.6 316.0,1325.3 347.0,1326.1 378.0,1323.6 409.0,1322.8 440.0,1324.2 471.0,1340.9 502.0,1340.8 533.0,1327.4 564.0,1325.4 595.0,1351.7 626.0,1351.4 657.0,1352.2 688.0,1350.4 688.0,1425.6 657.0,1426.7 626.0,1426.1 595.0,1425.9 564.0,1409.0 533.0,1410.4 502.0,1424.7 471.0,1424.0 440.0,1417.6 409.0,1417.4 378.0,1417.7 347.0,1421.4 316.0,1421.0 285.0,1421.5 254.0,1421.1 223.0,1419.9 192.0,1420.2 161.0,1422.7 130.0,1420.5 99.0,1421.5 68.0,1422.9" fill="#fd8d3c" fill-opacity="0.9" stroke="#fff" stroke-width="0.4"><title>api_reflection — apiGetCode</title></polygon>
<polygon points="68.0,1270.4 99.0,1268.0 130.0,1266.4 161.0,1270.6 192.0,1265.1 223.0,1264.1 254.0,1266.2 285.0,1322.8 316.0,1323.4 347.0,1324.2 378.0,1321.8 409.0,1321.0 440.0,1322.4 471.0,1339.1 502.0,1339.0 533.0,1325.6 564.0,1323.6 595.0,1349.9 626.0,1349.6 657.0,1350.4 688.0,1348.6 688.0,1350.4 657.0,1352.2 626.0,1351.4 595.0,1351.7 564.0,1325.4 533.0,1327.4 502.0,1340.8 471.0,1340.9 440.0,1324.2 409.0,1322.8 378.0,1323.6 347.0,1326.1 316.0,1325.3 285.0,1324.6 254.0,1268.0 223.0,1265.9 192.0,1267.0 161.0,1272.4 130.0,1268.2 99.0,1269.9 68.0,1272.3" fill="#b5bdc4" fill-opacity="0.9" stroke="#fff" stroke-width="0.4"><title>api_reflection — apiReflection</title></polygon>
<polygon points="68.0,1267.8 99.0,1266.6 130.0,1265.0 161.0,1269.2 192.0,1263.6 223.0,1262.2 254.0,1264.8 285.0,1321.7 316.0,1321.2 347.0,1322.4 378.0,1319.6 409.0,1319.7 440.0,1321.3 471.0,1337.6 502.0,1337.3 533.0,1324.1 564.0,1322.5 595.0,1349.0 626.0,1348.4 657.0,1348.9 688.0,1346.4 688.0,1348.6 657.0,1350.4 626.0,1349.6 595.0,1349.9 564.0,1323.6 533.0,1325.6 502.0,1339.0 471.0,1339.1 440.0,1322.4 409.0,1321.0 378.0,1321.8 347.0,1324.2 316.0,1323.4 285.0,1322.8 254.0,1266.2 223.0,1264.1 192.0,1265.1 161.0,1270.6 130.0,1266.4 99.0,1268.0 68.0,1270.4" fill="#969696" fill-opacity="0.9" stroke="#fff" stroke-width="0.4"><title>api_reflection — apiTotal (self)</title></polygon>
<a xlink:href="workloads/api_specialize.html" href="workloads/api_specialize.html" target="_top"><text x="764" y="1224" font-size="15" font-weight="600" fill="#1a5fb4" text-decoration="underline">api_specialize<tspan fill="#888" font-weight="400" text-decoration="none">  0.58×</tspan></text></a>
<line x1="764.0" y1="1540.0" x2="1384.0" y2="1540.0" stroke="#eee"/>
<text x="760.0" y="1543.0" text-anchor="end" fill="#999">0.0</text>
<line x1="764.0" y1="1390.0" x2="1384.0" y2="1390.0" stroke="#eee"/>
<text x="760.0" y="1393.0" text-anchor="end" fill="#999">238</text>
<line x1="764.0" y1="1240.0" x2="1384.0" y2="1240.0" stroke="#eee"/>
<text x="760.0" y="1243.0" text-anchor="end" fill="#999">477</text>
<line x1="764.0" y1="1240.0" x2="764.0" y2="1540.0" stroke="#333"/>
<line x1="764.0" y1="1540.0" x2="1384.0" y2="1540.0" stroke="#333"/>
<line x1="764.0" y1="1540.0" x2="764.0" y2="1543.0" stroke="#999"/>
<text x="764.0" y="1555.0" text-anchor="end" fill="#e8731a" transform="rotate(-50 764.0 1555.0)">06-25</text>
<line x1="795.0" y1="1540.0" x2="795.0" y2="1543.0" stroke="#999"/>
<text x="795.0" y="1555.0" text-anchor="end" fill="#e8731a" transform="rotate(-50 795.0 1555.0)">06-26</text>
<line x1="826.0" y1="1540.0" x2="826.0" y2="1543.0" stroke="#999"/>
<text x="826.0" y="1555.0" text-anchor="end" fill="#e8731a" transform="rotate(-50 826.0 1555.0)">06-28</text>
<line x1="857.0" y1="1540.0" x2="857.0" y2="1543.0" stroke="#999"/>
<text x="857.0" y="1555.0" text-anchor="end" fill="#e8731a" transform="rotate(-50 857.0 1555.0)">07-01</text>
<line x1="888.0" y1="1540.0" x2="888.0" y2="1543.0" stroke="#999"/>
<text x="888.0" y="1555.0" text-anchor="end" fill="#e8731a" transform="rotate(-50 888.0 1555.0)">07-02</text>
<line x1="919.0" y1="1540.0" x2="919.0" y2="1543.0" stroke="#999"/>
<text x="919.0" y="1555.0" text-anchor="end" fill="#e8731a" transform="rotate(-50 919.0 1555.0)">07-03</text>
<line x1="950.0" y1="1540.0" x2="950.0" y2="1543.0" stroke="#999"/>
<text x="950.0" y="1555.0" text-anchor="end" fill="#e8731a" transform="rotate(-50 950.0 1555.0)">07-06</text>
<line x1="981.0" y1="1540.0" x2="981.0" y2="1543.0" stroke="#999"/>
<text x="981.0" y="1555.0" text-anchor="end" fill="#e8731a" transform="rotate(-50 981.0 1555.0)">07-07</text>
<line x1="1012.0" y1="1540.0" x2="1012.0" y2="1543.0" stroke="#999"/>
<text x="1012.0" y="1555.0" text-anchor="end" fill="#e8731a" transform="rotate(-50 1012.0 1555.0)">07-08</text>
<line x1="1043.0" y1="1540.0" x2="1043.0" y2="1543.0" stroke="#999"/>
<text x="1043.0" y="1555.0" text-anchor="end" fill="#e8731a" transform="rotate(-50 1043.0 1555.0)">07-09</text>
<line x1="1074.0" y1="1540.0" x2="1074.0" y2="1543.0" stroke="#999"/>
<text x="1074.0" y="1555.0" text-anchor="end" fill="#e8731a" transform="rotate(-50 1074.0 1555.0)">07-10</text>
<line x1="1105.0" y1="1540.0" x2="1105.0" y2="1543.0" stroke="#999"/>
<text x="1105.0" y="1555.0" text-anchor="end" fill="#e8731a" transform="rotate(-50 1105.0 1555.0)">07-11</text>
<line x1="1136.0" y1="1540.0" x2="1136.0" y2="1543.0" stroke="#999"/>
<text x="1136.0" y="1555.0" text-anchor="end" fill="#e8731a" transform="rotate(-50 1136.0 1555.0)">07-14</text>
<line x1="1167.0" y1="1540.0" x2="1167.0" y2="1543.0" stroke="#999"/>
<text x="1167.0" y="1555.0" text-anchor="end" fill="#e8731a" transform="rotate(-50 1167.0 1555.0)">07-15</text>
<line x1="1198.0" y1="1540.0" x2="1198.0" y2="1543.0" stroke="#999"/>
<text x="1198.0" y="1555.0" text-anchor="end" fill="#e8731a" transform="rotate(-50 1198.0 1555.0)">07-15</text>
<line x1="1229.0" y1="1540.0" x2="1229.0" y2="1543.0" stroke="#999"/>
<text x="1229.0" y="1555.0" text-anchor="end" fill="#e8731a" transform="rotate(-50 1229.0 1555.0)">07-16</text>
<line x1="1260.0" y1="1540.0" x2="1260.0" y2="1543.0" stroke="#999"/>
<text x="1260.0" y="1555.0" text-anchor="end" fill="#e8731a" transform="rotate(-50 1260.0 1555.0)">07-17</text>
<line x1="1291.0" y1="1540.0" x2="1291.0" y2="1543.0" stroke="#999"/>
<text x="1291.0" y="1555.0" text-anchor="end" fill="#e8731a" transform="rotate(-50 1291.0 1555.0)">07-18</text>
<line x1="1322.0" y1="1540.0" x2="1322.0" y2="1543.0" stroke="#999"/>
<text x="1322.0" y="1555.0" text-anchor="end" fill="#e8731a" transform="rotate(-50 1322.0 1555.0)">07-19</text>
<line x1="1353.0" y1="1540.0" x2="1353.0" y2="1543.0" stroke="#999"/>
<text x="1353.0" y="1555.0" text-anchor="end" fill="#e8731a" transform="rotate(-50 1353.0 1555.0)">07-20</text>
<line x1="1384.0" y1="1540.0" x2="1384.0" y2="1543.0" stroke="#999"/>
<text x="1384.0" y="1555.0" text-anchor="end" fill="#e8731a" transform="rotate(-50 1384.0 1555.0)">07-21</text>
<polygon points="764.0,1468.2 795.0,1467.5 826.0,1464.7 857.0,1466.9 888.0,1467.1 919.0,1468.7 950.0,1466.3 981.0,1468.1 1012.0,1467.3 1043.0,1469.0 1074.0,1467.2 1105.0,1469.5 1136.0,1468.4 1167.0,1470.5 1198.0,1472.0 1229.0,1470.0 1260.0,1469.0 1291.0,1478.9 1322.0,1477.6 1353.0,1478.8 1384.0,1478.2 1384.0,1540.0 1353.0,1540.0 1322.0,1540.0 1291.0,1540.0 1260.0,1540.0 1229.0,1540.0 1198.0,1540.0 1167.0,1540.0 1136.0,1540.0 1105.0,1540.0 1074.0,1540.0 1043.0,1540.0 1012.0,1540.0 981.0,1540.0 950.0,1540.0 919.0,1540.0 888.0,1540.0 857.0,1540.0 826.0,1540.0 795.0,1540.0 764.0,1540.0" fill="#c7e9c0" fill-opacity="0.9" stroke="#fff" stroke-width="0.4"><title>api_specialize — apiCreateGlobalSession</title></polygon>
<polygon points="764.0,1468.2 795.0,1467.5 826.0,1464.7 857.0,1466.9 888.0,1467.1 919.0,1468.7 950.0,1466.2 981.0,1468.1 1012.0,1467.2 1043.0,1469.0 1074.0,1467.1 1105.0,1469.5 1136.0,1468.4 1167.0,1470.5 1198.0,1472.0 1229.0,1470.0 1260.0,1469.0 1291.0,1478.8 1322.0,1477.6 1353.0,1478.8 1384.0,1478.2 1384.0,1478.2 1353.0,1478.8 1322.0,1477.6 1291.0,1478.9 1260.0,1469.0 1229.0,1470.0 1198.0,1472.0 1167.0,1470.5 1136.0,1468.4 1105.0,1469.5 1074.0,1467.2 1043.0,1469.0 1012.0,1467.3 981.0,1468.1 950.0,1466.3 919.0,1468.7 888.0,1467.1 857.0,1466.9 826.0,1464.7 795.0,1467.5 764.0,1468.2" fill="#41ab5d" fill-opacity="0.9" stroke="#fff" stroke-width="0.4"><title>api_specialize — apiCreateSession</title></polygon>
<polygon points="764.0,1456.8 795.0,1456.3 826.0,1453.5 857.0,1455.5 888.0,1455.6 919.0,1457.3 950.0,1454.9 981.0,1456.8 1012.0,1455.9 1043.0,1457.3 1074.0,1455.6 1105.0,1458.2 1136.0,1457.0 1167.0,1459.9 1198.0,1461.4 1229.0,1458.8 1260.0,1457.8 1291.0,1469.8 1322.0,1468.7 1353.0,1470.0 1384.0,1468.8 1384.0,1478.2 1353.0,1478.8 1322.0,1477.6 1291.0,1478.8 1260.0,1469.0 1229.0,1470.0 1198.0,1472.0 1167.0,1470.5 1136.0,1468.4 1105.0,1469.5 1074.0,1467.1 1043.0,1469.0 1012.0,1467.2 981.0,1468.1 950.0,1466.2 919.0,1468.7 888.0,1467.1 857.0,1466.9 826.0,1464.7 795.0,1467.5 764.0,1468.2" fill="#2171b5" fill-opacity="0.9" stroke="#fff" stroke-width="0.4"><title>api_specialize — apiLoadModule</title></polygon>
<polygon points="764.0,1456.7 795.0,1456.2 826.0,1453.3 857.0,1455.4 888.0,1455.4 919.0,1457.2 950.0,1454.8 981.0,1456.7 1012.0,1455.7 1043.0,1457.2 1074.0,1455.5 1105.0,1458.1 1136.0,1456.9 1167.0,1459.9 1198.0,1461.3 1229.0,1458.7 1260.0,1457.7 1291.0,1469.7 1322.0,1468.6 1353.0,1469.9 1384.0,1468.8 1384.0,1468.8 1353.0,1470.0 1322.0,1468.7 1291.0,1469.8 1260.0,1457.8 1229.0,1458.8 1198.0,1461.4 1167.0,1459.9 1136.0,1457.0 1105.0,1458.2 1074.0,1455.6 1043.0,1457.3 1012.0,1455.9 981.0,1456.8 950.0,1454.9 919.0,1457.3 888.0,1455.6 857.0,1455.5 826.0,1453.5 795.0,1456.3 764.0,1456.8" fill="#9e9ac8" fill-opacity="0.9" stroke="#fff" stroke-width="0.4"><title>api_specialize — apiComposite</title></polygon>
<polygon points="764.0,1449.6 795.0,1449.2 826.0,1446.4 857.0,1448.2 888.0,1448.2 919.0,1449.6 950.0,1447.6 981.0,1449.2 1012.0,1448.5 1043.0,1450.0 1074.0,1448.1 1105.0,1450.5 1136.0,1450.0 1167.0,1454.6 1198.0,1456.0 1229.0,1453.4 1260.0,1452.3 1291.0,1465.1 1322.0,1464.1 1353.0,1465.3 1384.0,1464.2 1384.0,1468.8 1353.0,1469.9 1322.0,1468.6 1291.0,1469.7 1260.0,1457.7 1229.0,1458.7 1198.0,1461.3 1167.0,1459.9 1136.0,1456.9 1105.0,1458.1 1074.0,1455.5 1043.0,1457.2 1012.0,1455.7 981.0,1456.7 950.0,1454.8 919.0,1457.2 888.0,1455.4 857.0,1455.4 826.0,1453.3 795.0,1456.2 764.0,1456.7" fill="#807dba" fill-opacity="0.9" stroke="#fff" stroke-width="0.4"><title>api_specialize — apiSpecialize</title></polygon>
<polygon points="764.0,1449.6 795.0,1449.2 826.0,1446.4 857.0,1448.1 888.0,1448.1 919.0,1449.6 950.0,1447.6 981.0,1449.2 1012.0,1448.5 1043.0,1450.0 1074.0,1448.1 1105.0,1450.5 1136.0,1450.0 1167.0,1454.6 1198.0,1456.0 1229.0,1453.3 1260.0,1452.3 1291.0,1465.1 1322.0,1464.1 1353.0,1465.3 1384.0,1464.2 1384.0,1464.2 1353.0,1465.3 1322.0,1464.1 1291.0,1465.1 1260.0,1452.3 1229.0,1453.4 1198.0,1456.0 1167.0,1454.6 1136.0,1450.0 1105.0,1450.5 1074.0,1448.1 1043.0,1450.0 1012.0,1448.5 981.0,1449.2 950.0,1447.6 919.0,1449.6 888.0,1448.2 857.0,1448.2 826.0,1446.4 795.0,1449.2 764.0,1449.6" fill="#6a51a3" fill-opacity="0.9" stroke="#fff" stroke-width="0.4"><title>api_specialize — apiLink</title></polygon>
<polygon points="764.0,1267.7 795.0,1268.8 826.0,1265.6 857.0,1268.4 888.0,1266.1 919.0,1266.5 950.0,1266.7 981.0,1341.8 1012.0,1343.0 1043.0,1345.2 1074.0,1341.7 1105.0,1344.4 1136.0,1344.1 1167.0,1364.4 1198.0,1367.3 1229.0,1365.1 1260.0,1363.0 1291.0,1385.7 1322.0,1383.3 1353.0,1385.7 1384.0,1383.7 1384.0,1464.2 1353.0,1465.3 1322.0,1464.1 1291.0,1465.1 1260.0,1452.3 1229.0,1453.3 1198.0,1456.0 1167.0,1454.6 1136.0,1450.0 1105.0,1450.5 1074.0,1448.1 1043.0,1450.0 1012.0,1448.5 981.0,1449.2 950.0,1447.6 919.0,1449.6 888.0,1448.1 857.0,1448.1 826.0,1446.4 795.0,1449.2 764.0,1449.6" fill="#fd8d3c" fill-opacity="0.9" stroke="#fff" stroke-width="0.4"><title>api_specialize — apiGetCode</title></polygon>
<polygon points="764.0,1266.2 795.0,1266.4 826.0,1263.5 857.0,1265.5 888.0,1262.6 919.0,1263.8 950.0,1262.2 981.0,1337.4 1012.0,1339.5 1043.0,1341.3 1074.0,1338.5 1105.0,1341.7 1136.0,1342.4 1167.0,1363.9 1198.0,1365.9 1229.0,1362.6 1260.0,1360.8 1291.0,1384.1 1322.0,1382.0 1353.0,1382.7 1384.0,1381.8 1384.0,1383.7 1353.0,1385.7 1322.0,1383.3 1291.0,1385.7 1260.0,1363.0 1229.0,1365.1 1198.0,1367.3 1167.0,1364.4 1136.0,1344.1 1105.0,1344.4 1074.0,1341.7 1043.0,1345.2 1012.0,1343.0 981.0,1341.8 950.0,1266.7 919.0,1266.5 888.0,1266.1 857.0,1268.4 826.0,1265.6 795.0,1268.8 764.0,1267.7" fill="#969696" fill-opacity="0.9" stroke="#fff" stroke-width="0.4"><title>api_specialize — apiTotal (self)</title></polygon>
<text x="12" y="1602" fill="#666" font-weight="600">phase buckets</text>
<rect x="12" y="1610" width="12" height="12" fill="#c7e9c0"/>
<text x="28" y="1620" fill="#222">apiCreateGlobalSession</text>
<rect x="358" y="1610" width="12" height="12" fill="#41ab5d"/>
<text x="374" y="1620" fill="#222">apiCreateSession</text>
<rect x="704" y="1610" width="12" height="12" fill="#2171b5"/>
<text x="720" y="1620" fill="#222">apiLoadModule</text>
<rect x="1050" y="1610" width="12" height="12" fill="#6baed6"/>
<text x="1066" y="1620" fill="#222">apiFindEntryPoint</text>
<rect x="12" y="1628" width="12" height="12" fill="#9e9ac8"/>
<text x="28" y="1638" fill="#222">apiComposite</text>
<rect x="358" y="1628" width="12" height="12" fill="#807dba"/>
<text x="374" y="1638" fill="#222">apiSpecialize</text>
<rect x="704" y="1628" width="12" height="12" fill="#6a51a3"/>
<text x="720" y="1638" fill="#222">apiLink</text>
<rect x="1050" y="1628" width="12" height="12" fill="#fd8d3c"/>
<text x="1066" y="1638" fill="#222">apiGetCode</text>
<rect x="12" y="1646" width="12" height="12" fill="#b5bdc4"/>
<text x="28" y="1656" fill="#222">apiReflection</text>
<rect x="358" y="1646" width="12" height="12" fill="#969696"/>
<text x="374" y="1656" fill="#222">apiTotal (self)</text>
</svg>