<svg xmlns="http://www.w3.org/2000/svg" xmlns:xlink="http://www.w3.org/1999/xlink" width="1408" height="5142" viewBox="0 0 1408 5142" preserveAspectRatio="xMidYMid meet" font-family="sans-serif" font-size="13">
<rect width="1408" height="5142" fill="white"/>
<text x="12" y="30" font-size="20" font-weight="bold">Per-benchmark phase composition across releases + daily ToT (median ms)</text>
<a xlink:href="workloads/autodiff.html" href="workloads/autodiff.html" target="_top"><text x="68" y="60" font-size="15" font-weight="600" fill="#1a5fb4" text-decoration="underline">autodiff<tspan fill="#888" font-weight="400" text-decoration="none">  0.97×</tspan></text></a>
<line x1="68.0" y1="376.0" x2="688.0" y2="376.0" stroke="#eee"/>
<text x="64.0" y="379.0" text-anchor="end" fill="#999">0.0</text>
<line x1="68.0" y1="226.0" x2="688.0" y2="226.0" stroke="#eee"/>
<text x="64.0" y="229.0" text-anchor="end" fill="#999">2202</text>
<line x1="68.0" y1="76.0" x2="688.0" y2="76.0" stroke="#eee"/>
<text x="64.0" y="79.0" text-anchor="end" fill="#999">4404</text>
<line x1="68.0" y1="76.0" x2="68.0" y2="376.0" stroke="#333"/>
<line x1="68.0" y1="376.0" x2="688.0" y2="376.0" stroke="#333"/>
<line x1="68.0" y1="376.0" x2="68.0" y2="379.0" stroke="#999"/>
<text x="68.0" y="391.0" text-anchor="end" fill="#666" transform="rotate(-50 68.0 391.0)">26.7</text>
<line x1="688.0" y1="376.0" x2="688.0" y2="379.0" stroke="#999"/>
<text x="688.0" y="391.0" text-anchor="end" fill="#666" transform="rotate(-50 688.0 391.0)">26.8</text>
<polygon points="68.0,365.0 688.0,364.8 688.0,376.0 68.0,376.0" fill="#41ab5d" fill-opacity="0.9" stroke="#fff" stroke-width="0.4"><title>autodiff — frontEndExecute</title></polygon>
<polygon points="68.0,98.2 688.0,105.3 688.0,364.8 68.0,365.0" fill="#e6550d" fill-opacity="0.9" stroke="#fff" stroke-width="0.4"><title>autodiff — generateOutput</title></polygon>
<polygon points="68.0,98.2 688.0,105.3 688.0,105.3 68.0,98.2" fill="#969696" fill-opacity="0.9" stroke="#fff" stroke-width="0.4"><title>autodiff — compileInner (self)</title></polygon>
<a xlink:href="workloads/mdl_dxr.html" href="workloads/mdl_dxr.html" target="_top"><text x="764" y="60" font-size="15" font-weight="600" fill="#1a5fb4" text-decoration="underline">mdl_dxr<tspan fill="#888" font-weight="400" text-decoration="none">  1.00×</tspan></text></a>
<line x1="764.0" y1="376.0" x2="1384.0" y2="376.0" stroke="#eee"/>
<text x="760.0" y="379.0" text-anchor="end" fill="#999">0.0</text>
<line x1="764.0" y1="226.0" x2="1384.0" y2="226.0" stroke="#eee"/>
<text x="760.0" y="229.0" text-anchor="end" fill="#999">863</text>
<line x1="764.0" y1="76.0" x2="1384.0" y2="76.0" stroke="#eee"/>
<text x="760.0" y="79.0" text-anchor="end" fill="#999">1727</text>
<line x1="764.0" y1="76.0" x2="764.0" y2="376.0" stroke="#333"/>
<line x1="764.0" y1="376.0" x2="1384.0" y2="376.0" stroke="#333"/>
<line x1="764.0" y1="376.0" x2="764.0" y2="379.0" stroke="#999"/>
<text x="764.0" y="391.0" text-anchor="end" fill="#666" transform="rotate(-50 764.0 391.0)">26.7</text>
<line x1="1384.0" y1="376.0" x2="1384.0" y2="379.0" stroke="#999"/>
<text x="1384.0" y="391.0" text-anchor="end" fill="#666" transform="rotate(-50 1384.0 391.0)">26.8</text>
<polygon points="764.0,280.5 1384.0,280.2 1384.0,376.0 764.0,376.0" fill="#41ab5d" fill-opacity="0.9" stroke="#fff" stroke-width="0.4"><title>mdl_dxr — frontEndExecute</title></polygon>
<polygon points="764.0,99.0 1384.0,98.5 1384.0,280.2 764.0,280.5" fill="#e6550d" fill-opacity="0.9" stroke="#fff" stroke-width="0.4"><title>mdl_dxr — generateOutput</title></polygon>
<polygon points="764.0,98.7 1384.0,98.2 1384.0,98.5 764.0,99.0" fill="#969696" fill-opacity="0.9" stroke="#fff" stroke-width="0.4"><title>mdl_dxr — compileInner (self)</title></polygon>
<a xlink:href="workloads/parse.html" href="workloads/parse.html" target="_top"><text x="68" y="448" font-size="15" font-weight="600" fill="#1a5fb4" text-decoration="underline">parse<tspan fill="#888" font-weight="400" text-decoration="none">  1.00×</tspan></text></a>
<line x1="68.0" y1="764.0" x2="688.0" y2="764.0" stroke="#eee"/>
<text x="64.0" y="767.0" text-anchor="end" fill="#999">0.0</text>
<line x1="68.0" y1="614.0" x2="688.0" y2="614.0" stroke="#eee"/>
<text x="64.0" y="617.0" text-anchor="end" fill="#999">852</text>
<line x1="68.0" y1="464.0" x2="688.0" y2="464.0" stroke="#eee"/>
<text x="64.0" y="467.0" text-anchor="end" fill="#999">1703</text>
<line x1="68.0" y1="464.0" x2="68.0" y2="764.0" stroke="#333"/>
<line x1="68.0" y1="764.0" x2="688.0" y2="764.0" stroke="#333"/>
<line x1="68.0" y1="764.0" x2="68.0" y2="767.0" stroke="#999"/>
<text x="68.0" y="779.0" text-anchor="end" fill="#666" transform="rotate(-50 68.0 779.0)">26.7</text>
<line x1="688.0" y1="764.0" x2="688.0" y2="767.0" stroke="#999"/>
<text x="688.0" y="779.0" text-anchor="end" fill="#666" transform="rotate(-50 688.0 779.0)">26.8</text>
<polygon points="68.0,497.1 688.0,496.4 688.0,764.0 68.0,764.0" fill="#41ab5d" fill-opacity="0.9" stroke="#fff" stroke-width="0.4"><title>parse — frontEndExecute</title></polygon>
<polygon points="68.0,487.1 688.0,486.3 688.0,496.4 68.0,497.1" fill="#e6550d" fill-opacity="0.9" stroke="#fff" stroke-width="0.4"><title>parse — generateOutput</title></polygon>
<polygon points="68.0,487.1 688.0,486.2 688.0,486.3 68.0,487.1" fill="#969696" fill-opacity="0.9" stroke="#fff" stroke-width="0.4"><title>parse — compileInner (self)</title></polygon>
<a xlink:href="workloads/ir_builder.html" href="workloads/ir_builder.html" target="_top"><text x="764" y="448" font-size="15" font-weight="600" fill="#1a5fb4" text-decoration="underline">ir_builder<tspan fill="#888" font-weight="400" text-decoration="none">  1.07×</tspan></text></a>
<line x1="764.0" y1="764.0" x2="1384.0" y2="764.0" stroke="#eee"/>
<text x="760.0" y="767.0" text-anchor="end" fill="#999">0.0</text>
<line x1="764.0" y1="614.0" x2="1384.0" y2="614.0" stroke="#eee"/>
<text x="760.0" y="617.0" text-anchor="end" fill="#999">771</text>
<line x1="764.0" y1="464.0" x2="1384.0" y2="464.0" stroke="#eee"/>
<text x="760.0" y="467.0" text-anchor="end" fill="#999">1542</text>
<line x1="764.0" y1="464.0" x2="764.0" y2="764.0" stroke="#333"/>
<line x1="764.0" y1="764.0" x2="1384.0" y2="764.0" stroke="#333"/>
<line x1="764.0" y1="764.0" x2="764.0" y2="767.0" stroke="#999"/>
<text x="764.0" y="779.0" text-anchor="end" fill="#666" transform="rotate(-50 764.0 779.0)">26.7</text>
<line x1="1384.0" y1="764.0" x2="1384.0" y2="767.0" stroke="#999"/>
<text x="1384.0" y="779.0" text-anchor="end" fill="#666" transform="rotate(-50 1384.0 779.0)">26.8</text>
<polygon points="764.0,751.0 1384.0,751.1 1384.0,764.0 764.0,764.0" fill="#41ab5d" fill-opacity="0.9" stroke="#fff" stroke-width="0.4"><title>ir_builder — frontEndExecute</title></polygon>
<polygon points="764.0,503.9 1384.0,486.6 1384.0,751.1 764.0,751.0" fill="#e6550d" fill-opacity="0.9" stroke="#fff" stroke-width="0.4"><title>ir_builder — generateOutput</title></polygon>
<polygon points="764.0,503.6 1384.0,486.2 1384.0,486.6 764.0,503.9" fill="#969696" fill-opacity="0.9" stroke="#fff" stroke-width="0.4"><title>ir_builder — compileInner (self)</title></polygon>
<a xlink:href="workloads/emit_metal.html" href="workloads/emit_metal.html" target="_top"><text x="68" y="836" font-size="15" font-weight="600" fill="#1a5fb4" text-decoration="underline">emit_metal<tspan fill="#888" font-weight="400" text-decoration="none">  1.00×</tspan></text></a>
<line x1="68.0" y1="1152.0" x2="688.0" y2="1152.0" stroke="#eee"/>
<text x="64.0" y="1155.0" text-anchor="end" fill="#999">0.0</text>
<line x1="68.0" y1="1002.0" x2="688.0" y2="1002.0" stroke="#eee"/>
<text x="64.0" y="1005.0" text-anchor="end" fill="#999">625</text>
<line x1="68.0" y1="852.0" x2="688.0" y2="852.0" stroke="#eee"/>
<text x="64.0" y="855.0" text-anchor="end" fill="#999">1250</text>
<line x1="68.0" y1="852.0" x2="68.0" y2="1152.0" stroke="#333"/>
<line x1="68.0" y1="1152.0" x2="688.0" y2="1152.0" stroke="#333"/>
<line x1="68.0" y1="1152.0" x2="68.0" y2="1155.0" stroke="#999"/>
<text x="68.0" y="1167.0" text-anchor="end" fill="#666" transform="rotate(-50 68.0 1167.0)">26.7</text>
<line x1="688.0" y1="1152.0" x2="688.0" y2="1155.0" stroke="#999"/>
<text x="688.0" y="1167.0" text-anchor="end" fill="#666" transform="rotate(-50 688.0 1167.0)">26.8</text>
<polygon points="68.0,1130.5 688.0,1130.3 688.0,1152.0 68.0,1152.0" fill="#41ab5d" fill-opacity="0.9" stroke="#fff" stroke-width="0.4"><title>emit_metal — frontEndExecute</title></polygon>
<polygon points="68.0,874.8 688.0,874.2 688.0,1130.3 68.0,1130.5" fill="#e6550d" fill-opacity="0.9" stroke="#fff" stroke-width="0.4"><title>emit_metal — generateOutput</title></polygon>
<polygon points="68.0,874.7 688.0,874.2 688.0,874.2 68.0,874.8" fill="#969696" fill-opacity="0.9" stroke="#fff" stroke-width="0.4"><title>emit_metal — compileInner (self)</title></polygon>
<a xlink:href="workloads/sema_generics.html" href="workloads/sema_generics.html" target="_top"><text x="764" y="836" font-size="15" font-weight="600" fill="#1a5fb4" text-decoration="underline">sema_generics<tspan fill="#888" font-weight="400" text-decoration="none">  1.01×</tspan></text></a>
<line x1="764.0" y1="1152.0" x2="1384.0" y2="1152.0" stroke="#eee"/>
<text x="760.0" y="1155.0" text-anchor="end" fill="#999">0.0</text>
<line x1="764.0" y1="1002.0" x2="1384.0" y2="1002.0" stroke="#eee"/>
<text x="760.0" y="1005.0" text-anchor="end" fill="#999">555</text>
<line x1="764.0" y1="852.0" x2="1384.0" y2="852.0" stroke="#eee"/>
<text x="760.0" y="855.0" text-anchor="end" fill="#999">1110</text>
<line x1="764.0" y1="852.0" x2="764.0" y2="1152.0" stroke="#333"/>
<line x1="764.0" y1="1152.0" x2="1384.0" y2="1152.0" stroke="#333"/>
<line x1="764.0" y1="1152.0" x2="764.0" y2="1155.0" stroke="#999"/>
<text x="764.0" y="1167.0" text-anchor="end" fill="#666" transform="rotate(-50 764.0 1167.0)">26.7</text>
<line x1="1384.0" y1="1152.0" x2="1384.0" y2="1155.0" stroke="#999"/>
<text x="1384.0" y="1167.0" text-anchor="end" fill="#666" transform="rotate(-50 1384.0 1167.0)">26.8</text>
<polygon points="764.0,884.9 1384.0,882.8 1384.0,1152.0 764.0,1152.0" fill="#41ab5d" fill-opacity="0.9" stroke="#fff" stroke-width="0.4"><title>sema_generics — frontEndExecute</title></polygon>
<polygon points="764.0,876.3 1384.0,874.2 1384.0,882.8 764.0,884.9" fill="#e6550d" fill-opacity="0.9" stroke="#fff" stroke-width="0.4"><title>sema_generics — generateOutput</title></polygon>
<polygon points="764.0,876.2 1384.0,874.2 1384.0,874.2 764.0,876.3" fill="#969696" fill-opacity="0.9" stroke="#fff" stroke-width="0.4"><title>sema_generics — compileInner (self)</title></polygon>
<a xlink:href="workloads/codegen_spirv.html" href="workloads/codegen_spirv.html" target="_top"><text x="68" y="1224" font-size="15" font-weight="600" fill="#1a5fb4" text-decoration="underline">codegen_spirv<tspan fill="#888" font-weight="400" text-decoration="none">  1.01×</tspan></text></a>
<line x1="68.0" y1="1540.0" x2="688.0" y2="1540.0" stroke="#eee"/>
<text x="64.0" y="1543.0" text-anchor="end" fill="#999">0.0</text>
<line x1="68.0" y1="1390.0" x2="688.0" y2="1390.0" stroke="#eee"/>
<text x="64.0" y="1393.0" text-anchor="end" fill="#999">554</text>
<line x1="68.0" y1="1240.0" x2="688.0" y2="1240.0" stroke="#eee"/>
<text x="64.0" y="1243.0" text-anchor="end" fill="#999">1109</text>
<line x1="68.0" y1="1240.0" x2="68.0" y2="1540.0" stroke="#333"/>
<line x1="68.0" y1="1540.0" x2="688.0" y2="1540.0" stroke="#333"/>
<line x1="68.0" y1="1540.0" x2="68.0" y2="1543.0" stroke="#999"/>
<text x="68.0" y="1555.0" text-anchor="end" fill="#666" transform="rotate(-50 68.0 1555.0)">26.7</text>
<line x1="688.0" y1="1540.0" x2="688.0" y2="1543.0" stroke="#999"/>
<text x="688.0" y="1555.0" text-anchor="end" fill="#666" transform="rotate(-50 688.0 1555.0)">26.8</text>
<polygon points="68.0,1515.7 688.0,1515.6 688.0,1540.0 68.0,1540.0" fill="#41ab5d" fill-opacity="0.9" stroke="#fff" stroke-width="0.4"><title>codegen_spirv — frontEndExecute</title></polygon>
<polygon points="68.0,1265.0 688.0,1262.3 688.0,1515.6 68.0,1515.7" fill="#e6550d" fill-opacity="0.9" stroke="#fff" stroke-width="0.4"><title>codegen_spirv — generateOutput</title></polygon>
<polygon points="68.0,1265.0 688.0,1262.2 688.0,1262.3 68.0,1265.0" fill="#969696" fill-opacity="0.9" stroke="#fff" stroke-width="0.4"><title>codegen_spirv — compileInner (self)</title></polygon>
<a xlink:href="workloads/emit_wgsl.html" href="workloads/emit_wgsl.html" target="_top"><text x="764" y="1224" font-size="15" font-weight="600" fill="#1a5fb4" text-decoration="underline">emit_wgsl<tspan fill="#888" font-weight="400" text-decoration="none">  1.01×</tspan></text></a>
<line x1="764.0" y1="1540.0" x2="1384.0" y2="1540.0" stroke="#eee"/>
<text x="760.0" y="1543.0" text-anchor="end" fill="#999">0.0</text>
<line x1="764.0" y1="1390.0" x2="1384.0" y2="1390.0" stroke="#eee"/>
<text x="760.0" y="1393.0" text-anchor="end" fill="#999">513</text>
<line x1="764.0" y1="1240.0" x2="1384.0" y2="1240.0" stroke="#eee"/>
<text x="760.0" y="1243.0" text-anchor="end" fill="#999">1026</text>
<line x1="764.0" y1="1240.0" x2="764.0" y2="1540.0" stroke="#333"/>
<line x1="764.0" y1="1540.0" x2="1384.0" y2="1540.0" stroke="#333"/>
<line x1="764.0" y1="1540.0" x2="764.0" y2="1543.0" stroke="#999"/>
<text x="764.0" y="1555.0" text-anchor="end" fill="#666" transform="rotate(-50 764.0 1555.0)">26.7</text>
<line x1="1384.0" y1="1540.0" x2="1384.0" y2="1543.0" stroke="#999"/>
<text x="1384.0" y="1555.0" text-anchor="end" fill="#666" transform="rotate(-50 1384.0 1555.0)">26.8</text>
<polygon points="764.0,1513.7 1384.0,1513.7 1384.0,1540.0 764.0,1540.0" fill="#41ab5d" fill-opacity="0.9" stroke="#fff" stroke-width="0.4"><title>emit_wgsl — frontEndExecute</title></polygon>
<polygon points="764.0,1265.7 1384.0,1262.5 1384.0,1513.7 764.0,1513.7" fill="#e6550d" fill-opacity="0.9" stroke="#fff" stroke-width="0.4"><title>emit_wgsl — generateOutput</title></polygon>
<polygon points="764.0,1265.4 1384.0,1262.2 1384.0,1262.5 764.0,1265.7" fill="#969696" fill-opacity="0.9" stroke="#fff" stroke-width="0.4"><title>emit_wgsl — compileInner (self)</title></polygon>
<a xlink:href="workloads/inlining.html" href="workloads/inlining.html" target="_top"><text x="68" y="1612" font-size="15" font-weight="600" fill="#1a5fb4" text-decoration="underline">inlining<tspan fill="#888" font-weight="400" text-decoration="none">  1.01×</tspan></text></a>
<line x1="68.0" y1="1928.0" x2="688.0" y2="1928.0" stroke="#eee"/>
<text x="64.0" y="1931.0" text-anchor="end" fill="#999">0.0</text>
<line x1="68.0" y1="1778.0" x2="688.0" y2="1778.0" stroke="#eee"/>
<text x="64.0" y="1781.0" text-anchor="end" fill="#999">302</text>
<line x1="68.0" y1="1628.0" x2="688.0" y2="1628.0" stroke="#eee"/>
<text x="64.0" y="1631.0" text-anchor="end" fill="#999">604</text>
<line x1="68.0" y1="1628.0" x2="68.0" y2="1928.0" stroke="#333"/>
<line x1="68.0" y1="1928.0" x2="688.0" y2="1928.0" stroke="#333"/>
<line x1="68.0" y1="1928.0" x2="68.0" y2="1931.0" stroke="#999"/>
<text x="68.0" y="1943.0" text-anchor="end" fill="#666" transform="rotate(-50 68.0 1943.0)">26.7</text>
<line x1="688.0" y1="1928.0" x2="688.0" y2="1931.0" stroke="#999"/>
<text x="688.0" y="1943.0" text-anchor="end" fill="#666" transform="rotate(-50 688.0 1943.0)">26.8</text>
<polygon points="68.0,1885.3 688.0,1885.0 688.0,1928.0 68.0,1928.0" fill="#41ab5d" fill-opacity="0.9" stroke="#fff" stroke-width="0.4"><title>inlining — frontEndExecute</title></polygon>
<polygon points="68.0,1652.6 688.0,1650.5 688.0,1885.0 68.0,1885.3" fill="#e6550d" fill-opacity="0.9" stroke="#fff" stroke-width="0.4"><title>inlining — generateOutput</title></polygon>
<polygon points="68.0,1652.1 688.0,1650.2 688.0,1650.5 68.0,1652.6" fill="#969696" fill-opacity="0.9" stroke="#fff" stroke-width="0.4"><title>inlining — compileInner (self)</title></polygon>
<a xlink:href="workloads/loop_unroll.html" href="workloads/loop_unroll.html" target="_top"><text x="764" y="1612" font-size="15" font-weight="600" fill="#1a5fb4" text-decoration="underline">loop_unroll<tspan fill="#888" font-weight="400" text-decoration="none">  1.01×</tspan></text></a>
<line x1="764.0" y1="1928.0" x2="1384.0" y2="1928.0" stroke="#eee"/>
<text x="760.0" y="1931.0" text-anchor="end" fill="#999">0.0</text>
<line x1="764.0" y1="1778.0" x2="1384.0" y2="1778.0" stroke="#eee"/>
<text x="760.0" y="1781.0" text-anchor="end" fill="#999">280</text>
<line x1="764.0" y1="1628.0" x2="1384.0" y2="1628.0" stroke="#eee"/>
<text x="760.0" y="1631.0" text-anchor="end" fill="#999">560</text>
<line x1="764.0" y1="1628.0" x2="764.0" y2="1928.0" stroke="#333"/>
<line x1="764.0" y1="1928.0" x2="1384.0" y2="1928.0" stroke="#333"/>
<line x1="764.0" y1="1928.0" x2="764.0" y2="1931.0" stroke="#999"/>
<text x="764.0" y="1943.0" text-anchor="end" fill="#666" transform="rotate(-50 764.0 1943.0)">26.7</text>
<line x1="1384.0" y1="1928.0" x2="1384.0" y2="1931.0" stroke="#999"/>
<text x="1384.0" y="1943.0" text-anchor="end" fill="#666" transform="rotate(-50 1384.0 1943.0)">26.8</text>
<polygon points="764.0,1907.5 1384.0,1907.2 1384.0,1928.0 764.0,1928.0" fill="#41ab5d" fill-opacity="0.9" stroke="#fff" stroke-width="0.4"><title>loop_unroll — frontEndExecute</title></polygon>
<polygon points="764.0,1653.5 1384.0,1650.2 1384.0,1907.2 764.0,1907.5" fill="#e6550d" fill-opacity="0.9" stroke="#fff" stroke-width="0.4"><title>loop_unroll — generateOutput</title></polygon>
<a xlink:href="workloads/operator_typecheck.html" href="workloads/operator_typecheck.html" target="_top"><text x="68" y="2000" font-size="15" font-weight="600" fill="#1a5fb4" text-decoration="underline">operator_typecheck<tspan fill="#888" font-weight="400" text-decoration="none">  1.01×</tspan></text></a>
<line x1="68.0" y1="2316.0" x2="688.0" y2="2316.0" stroke="#eee"/>
<text x="64.0" y="2319.0" text-anchor="end" fill="#999">0.0</text>
<line x1="68.0" y1="2166.0" x2="688.0" y2="2166.0" stroke="#eee"/>
<text x="64.0" y="2169.0" text-anchor="end" fill="#999">272</text>
<line x1="68.0" y1="2016.0" x2="688.0" y2="2016.0" stroke="#eee"/>
<text x="64.0" y="2019.0" text-anchor="end" fill="#999">545</text>
<line x1="68.0" y1="2016.0" x2="68.0" y2="2316.0" stroke="#333"/>
<line x1="68.0" y1="2316.0" x2="688.0" y2="2316.0" stroke="#333"/>
<line x1="68.0" y1="2316.0" x2="68.0" y2="2319.0" stroke="#999"/>
<text x="68.0" y="2331.0" text-anchor="end" fill="#666" transform="rotate(-50 68.0 2331.0)">26.7</text>
<line x1="688.0" y1="2316.0" x2="688.0" y2="2319.0" stroke="#999"/>
<text x="688.0" y="2331.0" text-anchor="end" fill="#666" transform="rotate(-50 688.0 2331.0)">26.8</text>
<polygon points="68.0,2053.9 688.0,2050.6 688.0,2316.0 68.0,2316.0" fill="#41ab5d" fill-opacity="0.9" stroke="#fff" stroke-width="0.4"><title>operator_typecheck — frontEndExecute</title></polygon>
<polygon points="68.0,2041.7 688.0,2038.2 688.0,2050.6 68.0,2053.9" fill="#e6550d" fill-opacity="0.9" stroke="#fff" stroke-width="0.4"><title>operator_typecheck — generateOutput</title></polygon>
<polygon points="68.0,2041.6 688.0,2038.2 688.0,2038.2 68.0,2041.7" fill="#969696" fill-opacity="0.9" stroke="#fff" stroke-width="0.4"><title>operator_typecheck — compileInner (self)</title></polygon>
<a xlink:href="workloads/dynamic_dispatch.html" href="workloads/dynamic_dispatch.html" target="_top"><text x="764" y="2000" font-size="15" font-weight="600" fill="#1a5fb4" text-decoration="underline">dynamic_dispatch<tspan fill="#888" font-weight="400" text-decoration="none">  1.00×</tspan></text></a>
<line x1="764.0" y1="2316.0" x2="1384.0" y2="2316.0" stroke="#eee"/>
<text x="760.0" y="2319.0" text-anchor="end" fill="#999">0.0</text>
<line x1="764.0" y1="2166.0" x2="1384.0" y2="2166.0" stroke="#eee"/>
<text x="760.0" y="2169.0" text-anchor="end" fill="#999">241</text>
<line x1="764.0" y1="2016.0" x2="1384.0" y2="2016.0" stroke="#eee"/>
<text x="760.0" y="2019.0" text-anchor="end" fill="#999">482</text>
<line x1="764.0" y1="2016.0" x2="764.0" y2="2316.0" stroke="#333"/>
<line x1="764.0" y1="2316.0" x2="1384.0" y2="2316.0" stroke="#333"/>
<line x1="764.0" y1="2316.0" x2="764.0" y2="2319.0" stroke="#999"/>
<text x="764.0" y="2331.0" text-anchor="end" fill="#666" transform="rotate(-50 764.0 2331.0)">26.7</text>
<line x1="1384.0" y1="2316.0" x2="1384.0" y2="2319.0" stroke="#999"/>
<text x="1384.0" y="2331.0" text-anchor="end" fill="#666" transform="rotate(-50 1384.0 2331.0)">26.8</text>
<polygon points="764.0,2274.6 1384.0,2274.8 1384.0,2316.0 764.0,2316.0" fill="#41ab5d" fill-opacity="0.9" stroke="#fff" stroke-width="0.4"><title>dynamic_dispatch — frontEndExecute</title></polygon>
<polygon points="764.0,2039.0 1384.0,2038.6 1384.0,2274.8 764.0,2274.6" fill="#e6550d" fill-opacity="0.9" stroke="#fff" stroke-width="0.4"><title>dynamic_dispatch — generateOutput</title></polygon>
<polygon points="764.0,2038.3 1384.0,2038.2 1384.0,2038.6 764.0,2039.0" fill="#969696" fill-opacity="0.9" stroke="#fff" stroke-width="0.4"><title>dynamic_dispatch — compileInner (self)</title></polygon>
<a xlink:href="workloads/specialization.html" href="workloads/specialization.html" target="_top"><text x="68" y="2388" font-size="15" font-weight="600" fill="#1a5fb4" text-decoration="underline">specialization<tspan fill="#888" font-weight="400" text-decoration="none">  0.99×</tspan></text></a>
<line x1="68.0" y1="2704.0" x2="688.0" y2="2704.0" stroke="#eee"/>
<text x="64.0" y="2707.0" text-anchor="end" fill="#999">0.0</text>
<line x1="68.0" y1="2554.0" x2="688.0" y2="2554.0" stroke="#eee"/>
<text x="64.0" y="2557.0" text-anchor="end" fill="#999">168</text>
<line x1="68.0" y1="2404.0" x2="688.0" y2="2404.0" stroke="#eee"/>
<text x="64.0" y="2407.0" text-anchor="end" fill="#999">337</text>
<line x1="68.0" y1="2404.0" x2="68.0" y2="2704.0" stroke="#333"/>
<line x1="68.0" y1="2704.0" x2="688.0" y2="2704.0" stroke="#333"/>
<line x1="68.0" y1="2704.0" x2="68.0" y2="2707.0" stroke="#999"/>
<text x="68.0" y="2719.0" text-anchor="end" fill="#666" transform="rotate(-50 68.0 2719.0)">26.7</text>
<line x1="688.0" y1="2704.0" x2="688.0" y2="2707.0" stroke="#999"/>
<text x="688.0" y="2719.0" text-anchor="end" fill="#666" transform="rotate(-50 688.0 2719.0)">26.8</text>
<polygon points="68.0,2655.5 688.0,2655.5 688.0,2704.0 68.0,2704.0" fill="#41ab5d" fill-opacity="0.9" stroke="#fff" stroke-width="0.4"><title>specialization — frontEndExecute</title></polygon>
<polygon points="68.0,2426.7 688.0,2427.9 688.0,2655.5 68.0,2655.5" fill="#e6550d" fill-opacity="0.9" stroke="#fff" stroke-width="0.4"><title>specialization — generateOutput</title></polygon>
<polygon points="68.0,2426.2 688.0,2427.8 688.0,2427.9 68.0,2426.7" fill="#969696" fill-opacity="0.9" stroke="#fff" stroke-width="0.4"><title>specialization — compileInner (self)</title></polygon>
<a xlink:href="workloads/complexity_ladder.html" href="workloads/complexity_ladder.html" target="_top"><text x="764" y="2388" font-size="15" font-weight="600" fill="#1a5fb4" text-decoration="underline">complexity_ladder<tspan fill="#888" font-weight="400" text-decoration="none">  1.00×</tspan></text></a>
<line x1="764.0" y1="2704.0" x2="1384.0" y2="2704.0" stroke="#eee"/>
<text x="760.0" y="2707.0" text-anchor="end" fill="#999">0.0</text>
<line x1="764.0" y1="2554.0" x2="1384.0" y2="2554.0" stroke="#eee"/>
<text x="760.0" y="2557.0" text-anchor="end" fill="#999">163</text>
<line x1="764.0" y1="2404.0" x2="1384.0" y2="2404.0" stroke="#eee"/>
<text x="760.0" y="2407.0" text-anchor="end" fill="#999">326</text>
<line x1="764.0" y1="2404.0" x2="764.0" y2="2704.0" stroke="#333"/>
<line x1="764.0" y1="2704.0" x2="1384.0" y2="2704.0" stroke="#333"/>
<line x1="764.0" y1="2704.0" x2="764.0" y2="2707.0" stroke="#999"/>
<text x="764.0" y="2719.0" text-anchor="end" fill="#666" transform="rotate(-50 764.0 2719.0)">26.7</text>
<line x1="1384.0" y1="2704.0" x2="1384.0" y2="2707.0" stroke="#999"/>
<text x="1384.0" y="2719.0" text-anchor="end" fill="#666" transform="rotate(-50 1384.0 2719.0)">26.8</text>
<polygon points="764.0,2604.6 1384.0,2604.6 1384.0,2704.0 764.0,2704.0" fill="#41ab5d" fill-opacity="0.9" stroke="#fff" stroke-width="0.4"><title>complexity_ladder — frontEndExecute</title></polygon>
<polygon points="764.0,2426.2 1384.0,2427.3 1384.0,2604.6 764.0,2604.6" fill="#e6550d" fill-opacity="0.9" stroke="#fff" stroke-width="0.4"><title>complexity_ladder — generateOutput</title></polygon>
<polygon points="764.0,2426.2 1384.0,2427.0 1384.0,2427.3 764.0,2426.2" fill="#969696" fill-opacity="0.9" stroke="#fff" stroke-width="0.4"><title>complexity_ladder — compileInner (self)</title></polygon>
<a xlink:href="workloads/control_flow_ssa.html" href="workloads/control_flow_ssa.html" target="_top"><text x="68" y="2776" font-size="15" font-weight="600" fill="#1a5fb4" text-decoration="underline">control_flow_ssa<tspan fill="#888" font-weight="400" text-decoration="none">  1.01×</tspan></text></a>
<line x1="68.0" y1="3092.0" x2="688.0" y2="3092.0" stroke="#eee"/>
<text x="64.0" y="3095.0" text-anchor="end" fill="#999">0.0</text>
<line x1="68.0" y1="2942.0" x2="688.0" y2="2942.0" stroke="#eee"/>
<text x="64.0" y="2945.0" text-anchor="end" fill="#999">160</text>
<line x1="68.0" y1="2792.0" x2="688.0" y2="2792.0" stroke="#eee"/>
<text x="64.0" y="2795.0" text-anchor="end" fill="#999">320</text>
<line x1="68.0" y1="2792.0" x2="68.0" y2="3092.0" stroke="#333"/>
<line x1="68.0" y1="3092.0" x2="688.0" y2="3092.0" stroke="#333"/>
<line x1="68.0" y1="3092.0" x2="68.0" y2="3095.0" stroke="#999"/>
<text x="68.0" y="3107.0" text-anchor="end" fill="#666" transform="rotate(-50 68.0 3107.0)">26.7</text>
<line x1="688.0" y1="3092.0" x2="688.0" y2="3095.0" stroke="#999"/>
<text x="688.0" y="3107.0" text-anchor="end" fill="#666" transform="rotate(-50 688.0 3107.0)">26.8</text>
<polygon points="68.0,2991.9 688.0,2991.2 688.0,3092.0 68.0,3092.0" fill="#41ab5d" fill-opacity="0.9" stroke="#fff" stroke-width="0.4"><title>control_flow_ssa — frontEndExecute</title></polygon>
<polygon points="68.0,2816.6 688.0,2814.8 688.0,2991.2 68.0,2991.9" fill="#e6550d" fill-opacity="0.9" stroke="#fff" stroke-width="0.4"><title>control_flow_ssa — generateOutput</title></polygon>
<polygon points="68.0,2816.4 688.0,2814.2 688.0,2814.8 68.0,2816.6" fill="#969696" fill-opacity="0.9" stroke="#fff" stroke-width="0.4"><title>control_flow_ssa — compileInner (self)</title></polygon>
<a xlink:href="workloads/reflection_layout.html" href="workloads/reflection_layout.html" target="_top"><text x="764" y="2776" font-size="15" font-weight="600" fill="#1a5fb4" text-decoration="underline">reflection_layout<tspan fill="#888" font-weight="400" text-decoration="none">  1.00×</tspan></text></a>
<line x1="764.0" y1="3092.0" x2="1384.0" y2="3092.0" stroke="#eee"/>
<text x="760.0" y="3095.0" text-anchor="end" fill="#999">0.0</text>
<line x1="764.0" y1="2942.0" x2="1384.0" y2="2942.0" stroke="#eee"/>
<text x="760.0" y="2945.0" text-anchor="end" fill="#999">152</text>
<line x1="764.0" y1="2792.0" x2="1384.0" y2="2792.0" stroke="#eee"/>
<text x="760.0" y="2795.0" text-anchor="end" fill="#999">304</text>
<line x1="764.0" y1="2792.0" x2="764.0" y2="3092.0" stroke="#333"/>
<line x1="764.0" y1="3092.0" x2="1384.0" y2="3092.0" stroke="#333"/>
<line x1="764.0" y1="3092.0" x2="764.0" y2="3095.0" stroke="#999"/>
<text x="764.0" y="3107.0" text-anchor="end" fill="#666" transform="rotate(-50 764.0 3107.0)">26.7</text>
<line x1="1384.0" y1="3092.0" x2="1384.0" y2="3095.0" stroke="#999"/>
<text x="1384.0" y="3107.0" text-anchor="end" fill="#666" transform="rotate(-50 1384.0 3107.0)">26.8</text>
<polygon points="764.0,2971.7 1384.0,2971.7 1384.0,3092.0 764.0,3092.0" fill="#41ab5d" fill-opacity="0.9" stroke="#fff" stroke-width="0.4"><title>reflection_layout — frontEndExecute</title></polygon>
<polygon points="764.0,2822.1 1384.0,2822.3 1384.0,2971.7 764.0,2971.7" fill="#e6550d" fill-opacity="0.9" stroke="#fff" stroke-width="0.4"><title>reflection_layout — generateOutput</title></polygon>
<polygon points="764.0,2814.2 1384.0,2814.9 1384.0,2822.3 764.0,2822.1" fill="#969696" fill-opacity="0.9" stroke="#fff" stroke-width="0.4"><title>reflection_layout — compileInner (self)</title></polygon>
<a xlink:href="workloads/serialize.html" href="workloads/serialize.html" target="_top"><text x="68" y="3164" font-size="15" font-weight="600" fill="#1a5fb4" text-decoration="underline">serialize<tspan fill="#888" font-weight="400" text-decoration="none">  1.01×</tspan></text></a>
<line x1="68.0" y1="3480.0" x2="688.0" y2="3480.0" stroke="#eee"/>
<text x="64.0" y="3483.0" text-anchor="end" fill="#999">0.0</text>
<line x1="68.0" y1="3330.0" x2="688.0" y2="3330.0" stroke="#eee"/>
<text x="64.0" y="3333.0" text-anchor="end" fill="#999">118</text>
<line x1="68.0" y1="3180.0" x2="688.0" y2="3180.0" stroke="#eee"/>
<text x="64.0" y="3183.0" text-anchor="end" fill="#999">236</text>
<line x1="68.0" y1="3180.0" x2="68.0" y2="3480.0" stroke="#333"/>
<line x1="68.0" y1="3480.0" x2="688.0" y2="3480.0" stroke="#333"/>
<line x1="68.0" y1="3480.0" x2="68.0" y2="3483.0" stroke="#999"/>
<text x="68.0" y="3495.0" text-anchor="end" fill="#666" transform="rotate(-50 68.0 3495.0)">26.7</text>
<line x1="688.0" y1="3480.0" x2="688.0" y2="3483.0" stroke="#999"/>
<text x="688.0" y="3495.0" text-anchor="end" fill="#666" transform="rotate(-50 688.0 3495.0)">26.8</text>
<polygon points="68.0,3227.2 688.0,3225.2 688.0,3480.0 68.0,3480.0" fill="#41ab5d" fill-opacity="0.9" stroke="#fff" stroke-width="0.4"><title>serialize — frontEndExecute</title></polygon>
<polygon points="68.0,3203.9 688.0,3202.2 688.0,3225.2 68.0,3227.2" fill="#e6550d" fill-opacity="0.9" stroke="#fff" stroke-width="0.4"><title>serialize — generateOutput</title></polygon>
<a xlink:href="workloads/existential_aggregate.html" href="workloads/existential_aggregate.html" target="_top"><text x="764" y="3164" font-size="15" font-weight="600" fill="#1a5fb4" text-decoration="underline">existential_aggregate<tspan fill="#888" font-weight="400" text-decoration="none">  1.01×</tspan></text></a>
<line x1="764.0" y1="3480.0" x2="1384.0" y2="3480.0" stroke="#eee"/>
<text x="760.0" y="3483.0" text-anchor="end" fill="#999">0.0</text>
<line x1="764.0" y1="3330.0" x2="1384.0" y2="3330.0" stroke="#eee"/>
<text x="760.0" y="3333.0" text-anchor="end" fill="#999">113</text>
<line x1="764.0" y1="3180.0" x2="1384.0" y2="3180.0" stroke="#eee"/>
<text x="760.0" y="3183.0" text-anchor="end" fill="#999">226</text>
<line x1="764.0" y1="3180.0" x2="764.0" y2="3480.0" stroke="#333"/>
<line x1="764.0" y1="3480.0" x2="1384.0" y2="3480.0" stroke="#333"/>
<line x1="764.0" y1="3480.0" x2="764.0" y2="3483.0" stroke="#999"/>
<text x="764.0" y="3495.0" text-anchor="end" fill="#666" transform="rotate(-50 764.0 3495.0)">26.7</text>
<line x1="1384.0" y1="3480.0" x2="1384.0" y2="3483.0" stroke="#999"/>
<text x="1384.0" y="3495.0" text-anchor="end" fill="#666" transform="rotate(-50 1384.0 3495.0)">26.8</text>
<polygon points="764.0,3407.8 1384.0,3407.8 1384.0,3480.0 764.0,3480.0" fill="#41ab5d" fill-opacity="0.9" stroke="#fff" stroke-width="0.4"><title>existential_aggregate — frontEndExecute</title></polygon>
<polygon points="764.0,3205.3 1384.0,3203.4 1384.0,3407.8 764.0,3407.8" fill="#e6550d" fill-opacity="0.9" stroke="#fff" stroke-width="0.4"><title>existential_aggregate — generateOutput</title></polygon>
<polygon points="764.0,3204.4 1384.0,3202.2 1384.0,3203.4 764.0,3205.3" fill="#969696" fill-opacity="0.9" stroke="#fff" stroke-width="0.4"><title>existential_aggregate — compileInner (self)</title></polygon>
<a xlink:href="workloads/implicit_conversion.html" href="workloads/implicit_conversion.html" target="_top"><text x="68" y="3552" font-size="15" font-weight="600" fill="#1a5fb4" text-decoration="underline">implicit_conversion<tspan fill="#888" font-weight="400" text-decoration="none">  1.02×</tspan></text></a>
<line x1="68.0" y1="3868.0" x2="688.0" y2="3868.0" stroke="#eee"/>
<text x="64.0" y="3871.0" text-anchor="end" fill="#999">0.0</text>
<line x1="68.0" y1="3718.0" x2="688.0" y2="3718.0" stroke="#eee"/>
<text x="64.0" y="3721.0" text-anchor="end" fill="#999">81</text>
<line x1="68.0" y1="3568.0" x2="688.0" y2="3568.0" stroke="#eee"/>
<text x="64.0" y="3571.0" text-anchor="end" fill="#999">163</text>
<line x1="68.0" y1="3568.0" x2="68.0" y2="3868.0" stroke="#333"/>
<line x1="68.0" y1="3868.0" x2="688.0" y2="3868.0" stroke="#333"/>
<line x1="68.0" y1="3868.0" x2="68.0" y2="3871.0" stroke="#999"/>
<text x="68.0" y="3883.0" text-anchor="end" fill="#666" transform="rotate(-50 68.0 3883.0)">26.7</text>
<line x1="688.0" y1="3868.0" x2="688.0" y2="3871.0" stroke="#999"/>
<text x="688.0" y="3883.0" text-anchor="end" fill="#666" transform="rotate(-50 688.0 3883.0)">26.8</text>
<polygon points="68.0,3607.2 688.0,3603.0 688.0,3868.0 68.0,3868.0" fill="#41ab5d" fill-opacity="0.9" stroke="#fff" stroke-width="0.4"><title>implicit_conversion — frontEndExecute</title></polygon>
<polygon points="68.0,3594.6 688.0,3590.2 688.0,3603.0 68.0,3607.2" fill="#e6550d" fill-opacity="0.9" stroke="#fff" stroke-width="0.4"><title>implicit_conversion — generateOutput</title></polygon>
<a xlink:href="workloads/module_link.html" href="workloads/module_link.html" target="_top"><text x="764" y="3552" font-size="15" font-weight="600" fill="#1a5fb4" text-decoration="underline">module_link<tspan fill="#888" font-weight="400" text-decoration="none">  1.00×</tspan></text></a>
<line x1="764.0" y1="3868.0" x2="1384.0" y2="3868.0" stroke="#eee"/>
<text x="760.0" y="3871.0" text-anchor="end" fill="#999">0.0</text>
<line x1="764.0" y1="3718.0" x2="1384.0" y2="3718.0" stroke="#eee"/>
<text x="760.0" y="3721.0" text-anchor="end" fill="#999">73</text>
<line x1="764.0" y1="3568.0" x2="1384.0" y2="3568.0" stroke="#eee"/>
<text x="760.0" y="3571.0" text-anchor="end" fill="#999">146</text>
<line x1="764.0" y1="3568.0" x2="764.0" y2="3868.0" stroke="#333"/>
<line x1="764.0" y1="3868.0" x2="1384.0" y2="3868.0" stroke="#333"/>
<line x1="764.0" y1="3868.0" x2="764.0" y2="3871.0" stroke="#999"/>
<text x="764.0" y="3883.0" text-anchor="end" fill="#666" transform="rotate(-50 764.0 3883.0)">26.7</text>
<line x1="1384.0" y1="3868.0" x2="1384.0" y2="3871.0" stroke="#999"/>
<text x="1384.0" y="3883.0" text-anchor="end" fill="#666" transform="rotate(-50 1384.0 3883.0)">26.8</text>
<polygon points="764.0,3719.9 1384.0,3720.2 1384.0,3868.0 764.0,3868.0" fill="#41ab5d" fill-opacity="0.9" stroke="#fff" stroke-width="0.4"><title>module_link — frontEndExecute</title></polygon>
<polygon points="764.0,3591.9 1384.0,3592.1 1384.0,3720.2 764.0,3719.9" fill="#e6550d" fill-opacity="0.9" stroke="#fff" stroke-width="0.4"><title>module_link — generateOutput</title></polygon>
<polygon points="764.0,3590.2 1384.0,3591.0 1384.0,3592.1 764.0,3591.9" fill="#969696" fill-opacity="0.9" stroke="#fff" stroke-width="0.4"><title>module_link — compileInner (self)</title></polygon>
<a xlink:href="workloads/resource_aggregate.html" href="workloads/resource_aggregate.html" target="_top"><text x="68" y="3940" font-size="15" font-weight="600" fill="#1a5fb4" text-decoration="underline">resource_aggregate<tspan fill="#888" font-weight="400" text-decoration="none">  1.00×</tspan></text></a>
<line x1="68.0" y1="4256.0" x2="688.0" y2="4256.0" stroke="#eee"/>
<text x="64.0" y="4259.0" text-anchor="end" fill="#999">0.0</text>
<line x1="68.0" y1="4106.0" x2="688.0" y2="4106.0" stroke="#eee"/>
<text x="64.0" y="4109.0" text-anchor="end" fill="#999">58</text>
<line x1="68.0" y1="3956.0" x2="688.0" y2="3956.0" stroke="#eee"/>
<text x="64.0" y="3959.0" text-anchor="end" fill="#999">116</text>
<line x1="68.0" y1="3956.0" x2="68.0" y2="4256.0" stroke="#333"/>
<line x1="68.0" y1="4256.0" x2="688.0" y2="4256.0" stroke="#333"/>
<line x1="68.0" y1="4256.0" x2="68.0" y2="4259.0" stroke="#999"/>
<text x="68.0" y="4271.0" text-anchor="end" fill="#666" transform="rotate(-50 68.0 4271.0)">26.7</text>
<line x1="688.0" y1="4256.0" x2="688.0" y2="4259.0" stroke="#999"/>
<text x="688.0" y="4271.0" text-anchor="end" fill="#666" transform="rotate(-50 688.0 4271.0)">26.8</text>
<polygon points="68.0,4134.7 688.0,4134.9 688.0,4256.0 68.0,4256.0" fill="#41ab5d" fill-opacity="0.9" stroke="#fff" stroke-width="0.4"><title>resource_aggregate — frontEndExecute</title></polygon>
<polygon points="68.0,3983.0 688.0,3983.5 688.0,4134.9 68.0,4134.7" fill="#e6550d" fill-opacity="0.9" stroke="#fff" stroke-width="0.4"><title>resource_aggregate — generateOutput</title></polygon>
<polygon points="68.0,3978.2 688.0,3978.8 688.0,3983.5 68.0,3983.0" fill="#969696" fill-opacity="0.9" stroke="#fff" stroke-width="0.4"><title>resource_aggregate — compileInner (self)</title></polygon>
<a xlink:href="workloads/conformance.html" href="workloads/conformance.html" target="_top"><text x="764" y="3940" font-size="15" font-weight="600" fill="#1a5fb4" text-decoration="underline">conformance<tspan fill="#888" font-weight="400" text-decoration="none">  1.00×</tspan></text></a>
<line x1="764.0" y1="4256.0" x2="1384.0" y2="4256.0" stroke="#eee"/>
<text x="760.0" y="4259.0" text-anchor="end" fill="#999">0.0</text>
<line x1="764.0" y1="4106.0" x2="1384.0" y2="4106.0" stroke="#eee"/>
<text x="760.0" y="4109.0" text-anchor="end" fill="#999">45</text>
<line x1="764.0" y1="3956.0" x2="1384.0" y2="3956.0" stroke="#eee"/>
<text x="760.0" y="3959.0" text-anchor="end" fill="#999">91</text>
<line x1="764.0" y1="3956.0" x2="764.0" y2="4256.0" stroke="#333"/>
<line x1="764.0" y1="4256.0" x2="1384.0" y2="4256.0" stroke="#333"/>
<line x1="764.0" y1="4256.0" x2="764.0" y2="4259.0" stroke="#999"/>
<text x="764.0" y="4271.0" text-anchor="end" fill="#666" transform="rotate(-50 764.0 4271.0)">26.7</text>
<line x1="1384.0" y1="4256.0" x2="1384.0" y2="4259.0" stroke="#999"/>
<text x="1384.0" y="4271.0" text-anchor="end" fill="#666" transform="rotate(-50 1384.0 4271.0)">26.8</text>
<polygon points="764.0,4040.3 1384.0,4039.1 1384.0,4256.0 764.0,4256.0" fill="#41ab5d" fill-opacity="0.9" stroke="#fff" stroke-width="0.4"><title>conformance — frontEndExecute</title></polygon>
<polygon points="764.0,3979.1 1384.0,3979.1 1384.0,4039.1 764.0,4040.3" fill="#e6550d" fill-opacity="0.9" stroke="#fff" stroke-width="0.4"><title>conformance — generateOutput</title></polygon>
<polygon points="764.0,3978.2 1384.0,3979.1 1384.0,3979.1 764.0,3979.1" fill="#969696" fill-opacity="0.9" stroke="#fff" stroke-width="0.4"><title>conformance — compileInner (self)</title></polygon>
<a xlink:href="workloads/diagnostics_clean.html" href="workloads/diagnostics_clean.html" target="_top"><text x="68" y="4328" font-size="15" font-weight="600" fill="#1a5fb4" text-decoration="underline">diagnostics_clean<tspan fill="#888" font-weight="400" text-decoration="none">  1.01×</tspan></text></a>
<line x1="68.0" y1="4644.0" x2="688.0" y2="4644.0" stroke="#eee"/>
<text x="64.0" y="4647.0" text-anchor="end" fill="#999">0.0</text>
<line x1="68.0" y1="4494.0" x2="688.0" y2="4494.0" stroke="#eee"/>
<text x="64.0" y="4497.0" text-anchor="end" fill="#999">35</text>
<line x1="68.0" y1="4344.0" x2="688.0" y2="4344.0" stroke="#eee"/>
<text x="64.0" y="4347.0" text-anchor="end" fill="#999">69</text>
<line x1="68.0" y1="4344.0" x2="68.0" y2="4644.0" stroke="#333"/>
<line x1="68.0" y1="4644.0" x2="688.0" y2="4644.0" stroke="#333"/>
<line x1="68.0" y1="4644.0" x2="68.0" y2="4647.0" stroke="#999"/>
<text x="68.0" y="4659.0" text-anchor="end" fill="#666" transform="rotate(-50 68.0 4659.0)">26.7</text>
<line x1="688.0" y1="4644.0" x2="688.0" y2="4647.0" stroke="#999"/>
<text x="688.0" y="4659.0" text-anchor="end" fill="#666" transform="rotate(-50 688.0 4659.0)">26.8</text>
<polygon points="68.0,4430.1 688.0,4428.4 688.0,4644.0 68.0,4644.0" fill="#41ab5d" fill-opacity="0.9" stroke="#fff" stroke-width="0.4"><title>diagnostics_clean — frontEndExecute</title></polygon>
<polygon points="68.0,4369.4 688.0,4367.0 688.0,4428.4 68.0,4430.1" fill="#e6550d" fill-opacity="0.9" stroke="#fff" stroke-width="0.4"><title>diagnostics_clean — generateOutput</title></polygon>
<polygon points="68.0,4368.9 688.0,4366.2 688.0,4367.0 68.0,4369.4" fill="#969696" fill-opacity="0.9" stroke="#fff" stroke-width="0.4"><title>diagnostics_clean — compileInner (self)</title></polygon>
<a xlink:href="workloads/overload_resolution.html" href="workloads/overload_resolution.html" target="_top"><text x="764" y="4328" font-size="15" font-weight="600" fill="#1a5fb4" text-decoration="underline">overload_resolution<tspan fill="#888" font-weight="400" text-decoration="none">  1.00×</tspan></text></a>
<line x1="764.0" y1="4644.0" x2="1384.0" y2="4644.0" stroke="#eee"/>
<text x="760.0" y="4647.0" text-anchor="end" fill="#999">0.0</text>
<line x1="764.0" y1="4494.0" x2="1384.0" y2="4494.0" stroke="#eee"/>
<text x="760.0" y="4497.0" text-anchor="end" fill="#999">27</text>
<line x1="764.0" y1="4344.0" x2="1384.0" y2="4344.0" stroke="#eee"/>
<text x="760.0" y="4347.0" text-anchor="end" fill="#999">54</text>
<line x1="764.0" y1="4344.0" x2="764.0" y2="4644.0" stroke="#333"/>
<line x1="764.0" y1="4644.0" x2="1384.0" y2="4644.0" stroke="#333"/>
<line x1="764.0" y1="4644.0" x2="764.0" y2="4647.0" stroke="#999"/>
<text x="764.0" y="4659.0" text-anchor="end" fill="#666" transform="rotate(-50 764.0 4659.0)">26.7</text>
<line x1="1384.0" y1="4644.0" x2="1384.0" y2="4647.0" stroke="#999"/>
<text x="1384.0" y="4659.0" text-anchor="end" fill="#666" transform="rotate(-50 1384.0 4659.0)">26.8</text>
<polygon points="764.0,4391.7 1384.0,4391.5 1384.0,4644.0 764.0,4644.0" fill="#41ab5d" fill-opacity="0.9" stroke="#fff" stroke-width="0.4"><title>overload_resolution — frontEndExecute</title></polygon>
<polygon points="764.0,4366.7 1384.0,4366.2 1384.0,4391.5 764.0,4391.7" fill="#e6550d" fill-opacity="0.9" stroke="#fff" stroke-width="0.4"><title>overload_resolution — generateOutput</title></polygon>
<a xlink:href="workloads/minimal.html" href="workloads/minimal.html" target="_top"><text x="68" y="4716" font-size="15" font-weight="600" fill="#1a5fb4" text-decoration="underline">minimal<tspan fill="#888" font-weight="400" text-decoration="none">  0.99×</tspan></text></a>
<line x1="68.0" y1="5032.0" x2="688.0" y2="5032.0" stroke="#eee"/>
<text x="64.0" y="5035.0" text-anchor="end" fill="#999">0.0</text>
<line x1="68.0" y1="4882.0" x2="688.0" y2="4882.0" stroke="#eee"/>
<text x="64.0" y="4885.0" text-anchor="end" fill="#999">13</text>
<line x1="68.0" y1="4732.0" x2="688.0" y2="4732.0" stroke="#eee"/>
<text x="64.0" y="4735.0" text-anchor="end" fill="#999">27</text>
<line x1="68.0" y1="4732.0" x2="68.0" y2="5032.0" stroke="#333"/>
<line x1="68.0" y1="5032.0" x2="688.0" y2="5032.0" stroke="#333"/>
<line x1="68.0" y1="5032.0" x2="68.0" y2="5035.0" stroke="#999"/>
<text x="68.0" y="5047.0" text-anchor="end" fill="#666" transform="rotate(-50 68.0 5047.0)">26.7</text>
<line x1="688.0" y1="5032.0" x2="688.0" y2="5035.0" stroke="#999"/>
<text x="688.0" y="5047.0" text-anchor="end" fill="#666" transform="rotate(-50 688.0 5047.0)">26.8</text>
<polygon points="68.0,4947.1 688.0,4948.7 688.0,5032.0 68.0,5032.0" fill="#41ab5d" fill-opacity="0.9" stroke="#fff" stroke-width="0.4"><title>minimal — frontEndExecute</title></polygon>
<polygon points="68.0,4755.9 688.0,4759.9 688.0,4948.7 68.0,4947.1" fill="#e6550d" fill-opacity="0.9" stroke="#fff" stroke-width="0.4"><title>minimal — generateOutput</title></polygon>
<polygon points="68.0,4754.2 688.0,4757.4 688.0,4759.9 68.0,4755.9" fill="#969696" fill-opacity="0.9" stroke="#fff" stroke-width="0.4"><title>minimal — compileInner (self)</title></polygon>
<text x="12" y="5094" fill="#666" font-weight="600">phase buckets</text>
<rect x="12" y="5102" width="12" height="12" fill="#41ab5d"/>
<text x="28" y="5112" fill="#222">frontEndExecute</text>
<rect x="473" y="5102" width="12" height="12" fill="#e6550d"/>
<text x="489" y="5112" fill="#222">generateOutput</text>
<rect x="934" y="5102" width="12" height="12" fill="#969696"/>
<text x="950" y="5112" fill="#222">compileInner (self)</text>
</svg>