<svg xmlns="http://www.w3.org/2000/svg" width="1092" height="684" viewBox="0 0 1092 684" preserveAspectRatio="xMidYMid meet" font-family="sans-serif" font-size="13">
<rect width="1092" height="684" fill="white"/>
<text x="12" y="30" font-size="20" font-weight="bold">autodiff — phase composition vs N (v2026.14, median ms)</text>
<text x="68" y="60" font-size="15" font-weight="600">autodiff<tspan fill="#888" font-weight="400">  7.3× over N 25→200</tspan></text>
<line x1="68.0" y1="496.0" x2="1068.0" y2="496.0" stroke="#eee"/>
<text x="64.0" y="499.0" text-anchor="end" fill="#999">0.0</text>
<line x1="68.0" y1="286.0" x2="1068.0" y2="286.0" stroke="#eee"/>
<text x="64.0" y="289.0" text-anchor="end" fill="#999">445</text>
<line x1="68.0" y1="76.0" x2="1068.0" y2="76.0" stroke="#eee"/>
<text x="64.0" y="79.0" text-anchor="end" fill="#999">889</text>
<line x1="68.0" y1="76.0" x2="68.0" y2="496.0" stroke="#333"/>
<line x1="68.0" y1="496.0" x2="1068.0" y2="496.0" stroke="#333"/>
<line x1="68.0" y1="496.0" x2="68.0" y2="499.0" stroke="#999"/>
<text x="68.0" y="512.0" text-anchor="middle" fill="#666">25</text>
<line x1="210.9" y1="496.0" x2="210.9" y2="499.0" stroke="#999"/>
<text x="210.9" y="512.0" text-anchor="middle" fill="#666">50</text>
<line x1="496.6" y1="496.0" x2="496.6" y2="499.0" stroke="#999"/>
<text x="496.6" y="512.0" text-anchor="middle" fill="#666">100</text>
<line x1="1068.0" y1="496.0" x2="1068.0" y2="499.0" stroke="#999"/>
<text x="1068.0" y="512.0" text-anchor="middle" fill="#666">200</text>
<text x="568" y="530" text-anchor="middle" fill="#444">N</text>
<polygon points="68.0,495.9 210.9,495.8 496.6,495.7 1068.0,495.5 1068.0,496.0 496.6,496.0 210.9,496.0 68.0,496.0" fill="#c7e9c0" fill-opacity="0.9" stroke="#fff" stroke-width="0.4"><title>autodiff — parseTranslationUnit</title></polygon>
<polygon points="68.0,482.8 210.9,479.7 496.6,473.8 1068.0,454.8 1068.0,495.5 496.6,495.7 210.9,495.8 68.0,495.9" fill="#41ab5d" fill-opacity="0.9" stroke="#fff" stroke-width="0.4"><title>autodiff — SemanticChecking</title></polygon>
<polygon points="68.0,478.1 210.9,473.1 496.6,463.0 1068.0,431.8 1068.0,454.8 496.6,473.8 210.9,479.7 68.0,482.8" fill="#006d2c" fill-opacity="0.9" stroke="#fff" stroke-width="0.4"><title>autodiff — generateIR</title></polygon>
<polygon points="68.0,477.9 210.9,472.9 496.6,462.8 1068.0,431.8 1068.0,431.8 496.6,463.0 210.9,473.1 68.0,478.1" fill="#74c476" fill-opacity="0.9" stroke="#fff" stroke-width="0.4"><title>autodiff — frontEndExecute (self)</title></polygon>
<polygon points="68.0,464.5 210.9,448.6 496.6,414.5 1068.0,303.7 1068.0,431.8 496.6,462.8 210.9,472.9 68.0,477.9" fill="#6baed6" fill-opacity="0.9" stroke="#fff" stroke-width="0.4"><title>autodiff — specializeModule</title></polygon>
<polygon points="68.0,460.1 210.9,440.9 496.6,400.0 1068.0,268.6 1068.0,303.7 496.6,414.5 210.9,448.6 68.0,464.5" fill="#2171b5" fill-opacity="0.9" stroke="#fff" stroke-width="0.4"><title>autodiff — simplifyIR</title></polygon>
<polygon points="68.0,459.2 210.9,439.9 496.6,398.7 1068.0,267.1 1068.0,268.6 496.6,400.0 210.9,440.9 68.0,460.1" fill="#08306b" fill-opacity="0.9" stroke="#fff" stroke-width="0.4"><title>autodiff — linkIR</title></polygon>
<polygon points="68.0,459.2 210.9,439.8 496.6,398.5 1068.0,266.9 1068.0,267.1 496.6,398.7 210.9,439.9 68.0,459.2" fill="#9e9ac8" fill-opacity="0.9" stroke="#fff" stroke-width="0.4"><title>autodiff — unrollLoopsInModule</title></polygon>
<polygon points="68.0,458.7 210.9,439.0 496.6,396.8 1068.0,262.7 1068.0,266.9 496.6,398.5 210.9,439.8 68.0,459.2" fill="#807dba" fill-opacity="0.9" stroke="#fff" stroke-width="0.4"><title>autodiff — legalizeResourceTypes</title></polygon>
<polygon points="68.0,458.3 210.9,437.9 496.6,394.8 1068.0,257.7 1068.0,262.7 496.6,396.8 210.9,439.0 68.0,458.7" fill="#6a51a3" fill-opacity="0.9" stroke="#fff" stroke-width="0.4"><title>autodiff — legalizeExistentialTypeLayout</title></polygon>
<polygon points="68.0,457.9 210.9,437.4 496.6,393.8 1068.0,256.5 1068.0,257.7 496.6,394.8 210.9,437.9 68.0,458.3" fill="#bcbddc" fill-opacity="0.9" stroke="#fff" stroke-width="0.4"><title>autodiff — performMandatoryEarlyInlining</title></polygon>
<polygon points="68.0,457.8 210.9,437.1 496.6,393.4 1068.0,255.5 1068.0,256.5 496.6,393.8 210.9,437.4 68.0,457.9" fill="#dadaeb" fill-opacity="0.9" stroke="#fff" stroke-width="0.4"><title>autodiff — performForceInlining</title></polygon>
<polygon points="68.0,457.8 210.9,437.1 496.6,393.4 1068.0,255.1 1068.0,255.5 496.6,393.4 210.9,437.1 68.0,457.8" fill="#3f007d" fill-opacity="0.9" stroke="#fff" stroke-width="0.4"><title>autodiff — deferBufferLoad</title></polygon>
<polygon points="68.0,457.8 210.9,437.1 496.6,393.4 1068.0,254.2 1068.0,255.1 496.6,393.4 210.9,437.1 68.0,457.8" fill="#54278f" fill-opacity="0.9" stroke="#fff" stroke-width="0.4"><title>autodiff — simplifyNonSSAIR</title></polygon>
<polygon points="68.0,457.8 210.9,437.1 496.6,393.4 1068.0,254.1 1068.0,254.2 496.6,393.4 210.9,437.1 68.0,457.8" fill="#c2a5cf" fill-opacity="0.9" stroke="#fff" stroke-width="0.4"><title>autodiff — legalizeMatrixTypes</title></polygon>
<polygon points="68.0,454.4 210.9,430.6 496.6,380.9 1068.0,254.1 1068.0,254.1 496.6,393.4 210.9,437.1 68.0,457.8" fill="#4a1486" fill-opacity="0.9" stroke="#fff" stroke-width="0.4"><title>autodiff — linkAndOptimizeIR (self)</title></polygon>
<polygon points="68.0,442.6 210.9,406.7 496.6,328.1 1068.0,107.8 1068.0,254.1 496.6,380.9 210.9,430.6 68.0,454.4" fill="#e6550d" fill-opacity="0.9" stroke="#fff" stroke-width="0.4"><title>autodiff — generateOutput (self)</title></polygon>
<polygon points="68.0,442.5 210.9,406.4 496.6,328.1 1068.0,107.1 1068.0,107.8 496.6,328.1 210.9,406.7 68.0,442.6" fill="#969696" fill-opacity="0.9" stroke="#fff" stroke-width="0.4"><title>autodiff — compileInner (self)</title></polygon>
<text x="12" y="546" fill="#666" font-weight="600">phase buckets</text>
<rect x="12" y="554" width="12" height="12" fill="#c7e9c0"/>
<text x="28" y="564" fill="#222">parseTranslationUnit</text>
<rect x="279" y="554" width="12" height="12" fill="#41ab5d"/>
<text x="295" y="564" fill="#222">SemanticChecking</text>
<rect x="546" y="554" width="12" height="12" fill="#006d2c"/>
<text x="562" y="564" fill="#222">generateIR</text>
<rect x="813" y="554" width="12" height="12" fill="#74c476"/>
<text x="829" y="564" fill="#222">frontEndExecute (self)</text>
<rect x="12" y="572" width="12" height="12" fill="#6baed6"/>
<text x="28" y="582" fill="#222">specializeModule</text>
<rect x="279" y="572" width="12" height="12" fill="#2171b5"/>
<text x="295" y="582" fill="#222">simplifyIR</text>
<rect x="546" y="572" width="12" height="12" fill="#08306b"/>
<text x="562" y="582" fill="#222">linkIR</text>
<rect x="813" y="572" width="12" height="12" fill="#9e9ac8"/>
<text x="829" y="582" fill="#222">unrollLoopsInModule</text>
<rect x="12" y="590" width="12" height="12" fill="#807dba"/>
<text x="28" y="600" fill="#222">legalizeResourceTypes</text>
<rect x="279" y="590" width="12" height="12" fill="#6a51a3"/>
<text x="295" y="600" fill="#222">legalizeExistentialTypeLayout</text>
<rect x="546" y="590" width="12" height="12" fill="#bcbddc"/>
<text x="562" y="600" fill="#222">performMandatoryEarlyInlining</text>
<rect x="813" y="590" width="12" height="12" fill="#dadaeb"/>
<text x="829" y="600" fill="#222">performForceInlining</text>
<rect x="12" y="608" width="12" height="12" fill="#3f007d"/>
<text x="28" y="618" fill="#222">deferBufferLoad</text>
<rect x="279" y="608" width="12" height="12" fill="#54278f"/>
<text x="295" y="618" fill="#222">simplifyNonSSAIR</text>
<rect x="546" y="608" width="12" height="12" fill="#9970ab"/>
<text x="562" y="618" fill="#222">lowerCombinedTextureSamplers</text>
<rect x="813" y="608" width="12" height="12" fill="#c2a5cf"/>
<text x="829" y="618" fill="#222">legalizeMatrixTypes</text>
<rect x="12" y="626" width="12" height="12" fill="#4a1486"/>
<text x="28" y="636" fill="#222">linkAndOptimizeIR (self)</text>
<rect x="279" y="626" width="12" height="12" fill="#fdd0a2"/>
<text x="295" y="636" fill="#222">emitEntryPointsSourceFromIR (self)</text>
<rect x="546" y="626" width="12" height="12" fill="#fd8d3c"/>
<text x="562" y="636" fill="#222">emitEntryPointsSourceFromIR</text>
<rect x="813" y="626" width="12" height="12" fill="#e6550d"/>
<text x="829" y="636" fill="#222">generateOutput (self)</text>
<rect x="12" y="644" width="12" height="12" fill="#969696"/>
<text x="28" y="654" fill="#222">compileInner (self)</text>
</svg>