<svg xmlns="http://www.w3.org/2000/svg" xmlns:xlink="http://www.w3.org/1999/xlink" width="1132" height="662" viewBox="0 0 1132 662" preserveAspectRatio="xMidYMid meet" font-family="sans-serif" font-size="13">
<rect width="1132" height="662" fill="white"/>
<text x="12" y="30" font-size="20" font-weight="bold">api_module_graph — Across releases (median ms)</text>
<text x="68" y="60" font-size="15" font-weight="600" fill="#1a1a1a">api_module_graph<tspan fill="#888" font-weight="400" text-decoration="none">  1.30×</tspan></text>
<line x1="68.0" y1="516.0" x2="1108.0" y2="516.0" stroke="#eee"/>
<text x="64.0" y="519.0" text-anchor="end" fill="#999">0.0</text>
<line x1="68.0" y1="296.0" x2="1108.0" y2="296.0" stroke="#eee"/>
<text x="64.0" y="299.0" text-anchor="end" fill="#999">738</text>
<line x1="68.0" y1="76.0" x2="1108.0" y2="76.0" stroke="#eee"/>
<text x="64.0" y="79.0" text-anchor="end" fill="#999">1475</text>
<line x1="68.0" y1="76.0" x2="68.0" y2="516.0" stroke="#333"/>
<line x1="68.0" y1="516.0" x2="1108.0" y2="516.0" stroke="#333"/>
<line x1="68.0" y1="516.0" x2="68.0" y2="519.0" stroke="#999"/>
<text x="68.0" y="531.0" text-anchor="end" fill="#666" transform="rotate(-50 68.0 531.0)">25.12</text>
<line x1="111.3" y1="516.0" x2="111.3" y2="519.0" stroke="#999"/>
<text x="111.3" y="531.0" text-anchor="end" fill="#666" transform="rotate(-50 111.3 531.0)">25.13</text>
<line x1="154.7" y1="516.0" x2="154.7" y2="519.0" stroke="#999"/>
<text x="154.7" y="531.0" text-anchor="end" fill="#666" transform="rotate(-50 154.7 531.0)">25.14</text>
<line x1="198.0" y1="516.0" x2="198.0" y2="519.0" stroke="#999"/>
<text x="198.0" y="531.0" text-anchor="end" fill="#666" transform="rotate(-50 198.0 531.0)">25.15</text>
<line x1="241.3" y1="516.0" x2="241.3" y2="519.0" stroke="#999"/>
<text x="241.3" y="531.0" text-anchor="end" fill="#666" transform="rotate(-50 241.3 531.0)">25.16</text>
<line x1="284.7" y1="516.0" x2="284.7" y2="519.0" stroke="#999"/>
<text x="284.7" y="531.0" text-anchor="end" fill="#666" transform="rotate(-50 284.7 531.0)">25.17</text>
<line x1="328.0" y1="516.0" x2="328.0" y2="519.0" stroke="#999"/>
<text x="328.0" y="531.0" text-anchor="end" fill="#666" transform="rotate(-50 328.0 531.0)">25.18</text>
<line x1="371.3" y1="516.0" x2="371.3" y2="519.0" stroke="#999"/>
<text x="371.3" y="531.0" text-anchor="end" fill="#666" transform="rotate(-50 371.3 531.0)">25.19</text>
<line x1="414.7" y1="516.0" x2="414.7" y2="519.0" stroke="#999"/>
<text x="414.7" y="531.0" text-anchor="end" fill="#666" transform="rotate(-50 414.7 531.0)">25.20</text>
<line x1="458.0" y1="516.0" x2="458.0" y2="519.0" stroke="#999"/>
<text x="458.0" y="531.0" text-anchor="end" fill="#666" transform="rotate(-50 458.0 531.0)">25.21</text>
<line x1="501.3" y1="516.0" x2="501.3" y2="519.0" stroke="#999"/>
<text x="501.3" y="531.0" text-anchor="end" fill="#666" transform="rotate(-50 501.3 531.0)">25.22</text>
<line x1="544.7" y1="516.0" x2="544.7" y2="519.0" stroke="#999"/>
<text x="544.7" y="531.0" text-anchor="end" fill="#666" transform="rotate(-50 544.7 531.0)">25.23</text>
<line x1="588.0" y1="516.0" x2="588.0" y2="519.0" stroke="#999"/>
<text x="588.0" y="531.0" text-anchor="end" fill="#666" transform="rotate(-50 588.0 531.0)">25.24</text>
<line x1="631.3" y1="516.0" x2="631.3" y2="519.0" stroke="#999"/>
<text x="631.3" y="531.0" text-anchor="end" fill="#666" transform="rotate(-50 631.3 531.0)">26.1</text>
<line x1="674.7" y1="516.0" x2="674.7" y2="519.0" stroke="#999"/>
<text x="674.7" y="531.0" text-anchor="end" fill="#666" transform="rotate(-50 674.7 531.0)">26.2</text>
<line x1="718.0" y1="516.0" x2="718.0" y2="519.0" stroke="#999"/>
<text x="718.0" y="531.0" text-anchor="end" fill="#666" transform="rotate(-50 718.0 531.0)">26.3</text>
<line x1="761.3" y1="516.0" x2="761.3" y2="519.0" stroke="#999"/>
<text x="761.3" y="531.0" text-anchor="end" fill="#666" transform="rotate(-50 761.3 531.0)">26.4</text>
<line x1="804.7" y1="516.0" x2="804.7" y2="519.0" stroke="#999"/>
<text x="804.7" y="531.0" text-anchor="end" fill="#666" transform="rotate(-50 804.7 531.0)">26.5</text>
<line x1="848.0" y1="516.0" x2="848.0" y2="519.0" stroke="#999"/>
<text x="848.0" y="531.0" text-anchor="end" fill="#666" transform="rotate(-50 848.0 531.0)">26.7</text>
<line x1="891.3" y1="516.0" x2="891.3" y2="519.0" stroke="#999"/>
<text x="891.3" y="531.0" text-anchor="end" fill="#666" transform="rotate(-50 891.3 531.0)">26.8</text>
<line x1="934.7" y1="516.0" x2="934.7" y2="519.0" stroke="#999"/>
<text x="934.7" y="531.0" text-anchor="end" fill="#666" transform="rotate(-50 934.7 531.0)">26.9</text>
<line x1="978.0" y1="516.0" x2="978.0" y2="519.0" stroke="#999"/>
<text x="978.0" y="531.0" text-anchor="end" fill="#666" transform="rotate(-50 978.0 531.0)">26.10</text>
<line x1="1021.3" y1="516.0" x2="1021.3" y2="519.0" stroke="#999"/>
<text x="1021.3" y="531.0" text-anchor="end" fill="#666" transform="rotate(-50 1021.3 531.0)">26.11</text>
<line x1="1064.7" y1="516.0" x2="1064.7" y2="519.0" stroke="#999"/>
<text x="1064.7" y="531.0" text-anchor="end" fill="#666" transform="rotate(-50 1064.7 531.0)">26.12</text>
<line x1="1108.0" y1="516.0" x2="1108.0" y2="519.0" stroke="#999"/>
<text x="1108.0" y="531.0" text-anchor="end" fill="#666" transform="rotate(-50 1108.0 531.0)">26.13</text>
<polygon points="68.0,438.1 111.3,443.3 154.7,431.4 198.0,495.0 241.3,495.8 284.7,496.2 328.0,495.6 371.3,495.3 414.7,495.6 458.0,495.3 501.3,503.4 544.7,503.5 588.0,503.3 631.3,502.9 674.7,502.4 718.0,502.7 761.3,502.3 804.7,502.4 848.0,479.4 891.3,483.8 934.7,485.4 978.0,480.5 1021.3,479.4 1064.7,473.9 1108.0,479.9 1108.0,516.0 1064.7,516.0 1021.3,516.0 978.0,516.0 934.7,516.0 891.3,516.0 848.0,516.0 804.7,516.0 761.3,516.0 718.0,516.0 674.7,516.0 631.3,516.0 588.0,516.0 544.7,516.0 501.3,516.0 458.0,516.0 414.7,516.0 371.3,516.0 328.0,516.0 284.7,516.0 241.3,516.0 198.0,516.0 154.7,516.0 111.3,516.0 68.0,516.0" fill="#c7e9c0" fill-opacity="0.9" stroke="#fff" stroke-width="0.4"><title>api_module_graph — apiCreateGlobalSession</title></polygon>
<polygon points="68.0,438.0 111.3,443.2 154.7,431.3 198.0,495.0 241.3,495.8 284.7,496.2 328.0,495.6 371.3,495.3 414.7,495.6 458.0,495.3 501.3,503.4 544.7,503.5 588.0,503.3 631.3,502.9 674.7,502.4 718.0,502.7 761.3,502.2 804.7,502.4 848.0,479.3 891.3,483.7 934.7,485.4 978.0,480.5 1021.3,479.4 1064.7,473.9 1108.0,479.9 1108.0,479.9 1064.7,473.9 1021.3,479.4 978.0,480.5 934.7,485.4 891.3,483.8 848.0,479.4 804.7,502.4 761.3,502.3 718.0,502.7 674.7,502.4 631.3,502.9 588.0,503.3 544.7,503.5 501.3,503.4 458.0,495.3 414.7,495.6 371.3,495.3 328.0,495.6 284.7,496.2 241.3,495.8 198.0,495.0 154.7,431.4 111.3,443.3 68.0,438.1" fill="#41ab5d" fill-opacity="0.9" stroke="#fff" stroke-width="0.4"><title>api_module_graph — apiCreateSession</title></polygon>
<polygon points="68.0,330.0 111.3,327.6 154.7,292.7 198.0,372.5 241.3,376.6 284.7,370.2 328.0,369.2 371.3,369.8 414.7,369.4 458.0,369.1 501.3,375.3 544.7,375.3 588.0,375.8 631.3,370.0 674.7,364.6 718.0,364.3 761.3,357.8 804.7,364.9 848.0,132.2 891.3,192.1 934.7,193.9 978.0,182.9 1021.3,274.6 1064.7,250.0 1108.0,277.2 1108.0,479.9 1064.7,473.9 1021.3,479.4 978.0,480.5 934.7,485.4 891.3,483.7 848.0,479.3 804.7,502.4 761.3,502.2 718.0,502.7 674.7,502.4 631.3,502.9 588.0,503.3 544.7,503.5 501.3,503.4 458.0,495.3 414.7,495.6 371.3,495.3 328.0,495.6 284.7,496.2 241.3,495.8 198.0,495.0 154.7,431.3 111.3,443.2 68.0,438.0" fill="#2171b5" fill-opacity="0.9" stroke="#fff" stroke-width="0.4"><title>api_module_graph — apiLoadModule</title></polygon>
<polygon points="68.0,330.0 111.3,327.6 154.7,292.7 198.0,372.5 241.3,376.6 284.7,370.2 328.0,369.2 371.3,369.8 414.7,369.4 458.0,369.1 501.3,375.3 544.7,375.3 588.0,375.7 631.3,370.0 674.7,364.6 718.0,364.3 761.3,357.8 804.7,364.9 848.0,132.2 891.3,192.1 934.7,193.9 978.0,182.9 1021.3,274.5 1064.7,250.0 1108.0,277.2 1108.0,277.2 1064.7,250.0 1021.3,274.6 978.0,182.9 934.7,193.9 891.3,192.1 848.0,132.2 804.7,364.9 761.3,357.8 718.0,364.3 674.7,364.6 631.3,370.0 588.0,375.8 544.7,375.3 501.3,375.3 458.0,369.1 414.7,369.4 371.3,369.8 328.0,369.2 284.7,370.2 241.3,376.6 198.0,372.5 154.7,292.7 111.3,327.6 68.0,330.0" fill="#6baed6" fill-opacity="0.9" stroke="#fff" stroke-width="0.4"><title>api_module_graph — apiFindEntryPoint</title></polygon>
<polygon points="68.0,330.0 111.3,327.6 154.7,292.7 198.0,372.5 241.3,376.5 284.7,370.2 328.0,369.2 371.3,369.8 414.7,369.4 458.0,369.1 501.3,375.3 544.7,375.3 588.0,375.7 631.3,370.0 674.7,364.6 718.0,364.3 761.3,357.7 804.7,364.8 848.0,132.2 891.3,192.0 934.7,193.8 978.0,182.9 1021.3,274.5 1064.7,250.0 1108.0,277.2 1108.0,277.2 1064.7,250.0 1021.3,274.5 978.0,182.9 934.7,193.9 891.3,192.1 848.0,132.2 804.7,364.9 761.3,357.8 718.0,364.3 674.7,364.6 631.3,370.0 588.0,375.7 544.7,375.3 501.3,375.3 458.0,369.1 414.7,369.4 371.3,369.8 328.0,369.2 284.7,370.2 241.3,376.6 198.0,372.5 154.7,292.7 111.3,327.6 68.0,330.0" fill="#9e9ac8" fill-opacity="0.9" stroke="#fff" stroke-width="0.4"><title>api_module_graph — apiComposite</title></polygon>
<polygon points="68.0,329.4 111.3,327.0 154.7,292.1 198.0,371.9 241.3,376.0 284.7,369.7 328.0,368.6 371.3,369.3 414.7,368.9 458.0,368.6 501.3,374.7 544.7,374.8 588.0,375.2 631.3,369.5 674.7,364.1 718.0,363.8 761.3,357.2 804.7,364.3 848.0,131.6 891.3,191.5 934.7,193.3 978.0,182.4 1021.3,273.8 1064.7,249.4 1108.0,276.5 1108.0,277.2 1064.7,250.0 1021.3,274.5 978.0,182.9 934.7,193.8 891.3,192.0 848.0,132.2 804.7,364.8 761.3,357.7 718.0,364.3 674.7,364.6 631.3,370.0 588.0,375.7 544.7,375.3 501.3,375.3 458.0,369.1 414.7,369.4 371.3,369.8 328.0,369.2 284.7,370.2 241.3,376.5 198.0,372.5 154.7,292.7 111.3,327.6 68.0,330.0" fill="#6a51a3" fill-opacity="0.9" stroke="#fff" stroke-width="0.4"><title>api_module_graph — apiLink</title></polygon>
<polygon points="68.0,323.7 111.3,321.3 154.7,284.5 198.0,365.6 241.3,369.8 284.7,363.7 328.0,362.5 371.3,362.9 414.7,362.4 458.0,362.4 501.3,368.7 544.7,368.8 588.0,369.0 631.3,363.2 674.7,357.4 718.0,357.1 761.3,350.0 804.7,357.2 848.0,109.7 891.3,175.3 934.7,177.0 978.0,164.9 1021.3,262.2 1064.7,237.4 1108.0,265.9 1108.0,276.5 1064.7,249.4 1021.3,273.8 978.0,182.4 934.7,193.3 891.3,191.5 848.0,131.6 804.7,364.3 761.3,357.2 718.0,363.8 674.7,364.1 631.3,369.5 588.0,375.2 544.7,374.8 501.3,374.7 458.0,368.6 414.7,368.9 371.3,369.3 328.0,368.6 284.7,369.7 241.3,376.0 198.0,371.9 154.7,292.1 111.3,327.0 68.0,329.4" fill="#fd8d3c" fill-opacity="0.9" stroke="#fff" stroke-width="0.4"><title>api_module_graph — apiGetCode</title></polygon>
<polygon points="68.0,323.7 111.3,321.3 154.7,284.5 198.0,365.5 241.3,369.6 284.7,363.5 328.0,362.3 371.3,362.9 414.7,362.4 458.0,362.2 501.3,368.5 544.7,368.8 588.0,368.5 631.3,363.0 674.7,357.2 718.0,357.1 761.3,349.2 804.7,356.5 848.0,108.6 891.3,174.2 934.7,176.8 978.0,164.9 1021.3,261.9 1064.7,234.4 1108.0,265.9 1108.0,265.9 1064.7,237.4 1021.3,262.2 978.0,164.9 934.7,177.0 891.3,175.3 848.0,109.7 804.7,357.2 761.3,350.0 718.0,357.1 674.7,357.4 631.3,363.2 588.0,369.0 544.7,368.8 501.3,368.7 458.0,362.4 414.7,362.4 371.3,362.9 328.0,362.5 284.7,363.7 241.3,369.8 198.0,365.6 154.7,284.5 111.3,321.3 68.0,323.7" fill="#969696" fill-opacity="0.9" stroke="#fff" stroke-width="0.4"><title>api_module_graph — apiTotal (self)</title></polygon>
<text x="12" y="578" fill="#666" font-weight="600">phase buckets</text>
<rect x="12" y="586" width="12" height="12" fill="#c7e9c0"/>
<text x="28" y="596" fill="#222">apiCreateGlobalSession</text>
<rect x="289" y="586" width="12" height="12" fill="#41ab5d"/>
<text x="305" y="596" fill="#222">apiCreateSession</text>
<rect x="566" y="586" width="12" height="12" fill="#2171b5"/>
<text x="582" y="596" fill="#222">apiLoadModule</text>
<rect x="843" y="586" width="12" height="12" fill="#6baed6"/>
<text x="859" y="596" fill="#222">apiFindEntryPoint</text>
<rect x="12" y="604" width="12" height="12" fill="#9e9ac8"/>
<text x="28" y="614" fill="#222">apiComposite</text>
<rect x="289" y="604" width="12" height="12" fill="#807dba"/>
<text x="305" y="614" fill="#222">apiSpecialize</text>
<rect x="566" y="604" width="12" height="12" fill="#6a51a3"/>
<text x="582" y="614" fill="#222">apiLink</text>
<rect x="843" y="604" width="12" height="12" fill="#fd8d3c"/>
<text x="859" y="614" fill="#222">apiGetCode</text>
<rect x="12" y="622" width="12" height="12" fill="#b5bdc4"/>
<text x="28" y="632" fill="#222">apiReflection</text>
<rect x="289" y="622" width="12" height="12" fill="#969696"/>
<text x="305" y="632" fill="#222">apiTotal (self)</text>
</svg>