<svg xmlns="http://www.w3.org/2000/svg" xmlns:xlink="http://www.w3.org/1999/xlink" width="1132" height="662" viewBox="0 0 1132 662" preserveAspectRatio="xMidYMid meet" font-family="sans-serif" font-size="13">
<rect width="1132" height="662" fill="white"/>
<text x="12" y="30" font-size="20" font-weight="bold">api_module_graph — Daily tip-of-tree (last 30 days) (median ms)</text>
<text x="68" y="60" font-size="15" font-weight="600" fill="#1a1a1a">api_module_graph<tspan fill="#888" font-weight="400" text-decoration="none">  0.96×</tspan></text>
<line x1="68.0" y1="516.0" x2="1108.0" y2="516.0" stroke="#eee"/>
<text x="64.0" y="519.0" text-anchor="end" fill="#999">0.0</text>
<line x1="68.0" y1="296.0" x2="1108.0" y2="296.0" stroke="#eee"/>
<text x="64.0" y="299.0" text-anchor="end" fill="#999">478</text>
<line x1="68.0" y1="76.0" x2="1108.0" y2="76.0" stroke="#eee"/>
<text x="64.0" y="79.0" text-anchor="end" fill="#999">956</text>
<line x1="68.0" y1="76.0" x2="68.0" y2="516.0" stroke="#333"/>
<line x1="68.0" y1="516.0" x2="1108.0" y2="516.0" stroke="#333"/>
<line x1="68.0" y1="516.0" x2="68.0" y2="519.0" stroke="#999"/>
<text x="68.0" y="531.0" text-anchor="end" fill="#e8731a" transform="rotate(-50 68.0 531.0)">06-25</text>
<line x1="129.2" y1="516.0" x2="129.2" y2="519.0" stroke="#999"/>
<text x="129.2" y="531.0" text-anchor="end" fill="#e8731a" transform="rotate(-50 129.2 531.0)">06-26</text>
<line x1="190.4" y1="516.0" x2="190.4" y2="519.0" stroke="#999"/>
<text x="190.4" y="531.0" text-anchor="end" fill="#e8731a" transform="rotate(-50 190.4 531.0)">06-28</text>
<line x1="251.5" y1="516.0" x2="251.5" y2="519.0" stroke="#999"/>
<text x="251.5" y="531.0" text-anchor="end" fill="#e8731a" transform="rotate(-50 251.5 531.0)">07-01</text>
<line x1="312.7" y1="516.0" x2="312.7" y2="519.0" stroke="#999"/>
<text x="312.7" y="531.0" text-anchor="end" fill="#e8731a" transform="rotate(-50 312.7 531.0)">07-02</text>
<line x1="373.9" y1="516.0" x2="373.9" y2="519.0" stroke="#999"/>
<text x="373.9" y="531.0" text-anchor="end" fill="#e8731a" transform="rotate(-50 373.9 531.0)">07-03</text>
<line x1="435.1" y1="516.0" x2="435.1" y2="519.0" stroke="#999"/>
<text x="435.1" y="531.0" text-anchor="end" fill="#e8731a" transform="rotate(-50 435.1 531.0)">07-06</text>
<line x1="496.2" y1="516.0" x2="496.2" y2="519.0" stroke="#999"/>
<text x="496.2" y="531.0" text-anchor="end" fill="#e8731a" transform="rotate(-50 496.2 531.0)">07-07</text>
<line x1="557.4" y1="516.0" x2="557.4" y2="519.0" stroke="#999"/>
<text x="557.4" y="531.0" text-anchor="end" fill="#e8731a" transform="rotate(-50 557.4 531.0)">07-08</text>
<line x1="618.6" y1="516.0" x2="618.6" y2="519.0" stroke="#999"/>
<text x="618.6" y="531.0" text-anchor="end" fill="#e8731a" transform="rotate(-50 618.6 531.0)">07-09</text>
<line x1="679.8" y1="516.0" x2="679.8" y2="519.0" stroke="#999"/>
<text x="679.8" y="531.0" text-anchor="end" fill="#e8731a" transform="rotate(-50 679.8 531.0)">07-10</text>
<line x1="740.9" y1="516.0" x2="740.9" y2="519.0" stroke="#999"/>
<text x="740.9" y="531.0" text-anchor="end" fill="#e8731a" transform="rotate(-50 740.9 531.0)">07-11</text>
<line x1="802.1" y1="516.0" x2="802.1" y2="519.0" stroke="#999"/>
<text x="802.1" y="531.0" text-anchor="end" fill="#e8731a" transform="rotate(-50 802.1 531.0)">07-14</text>
<line x1="863.3" y1="516.0" x2="863.3" y2="519.0" stroke="#999"/>
<text x="863.3" y="531.0" text-anchor="end" fill="#e8731a" transform="rotate(-50 863.3 531.0)">07-15</text>
<line x1="924.5" y1="516.0" x2="924.5" y2="519.0" stroke="#999"/>
<text x="924.5" y="531.0" text-anchor="end" fill="#e8731a" transform="rotate(-50 924.5 531.0)">07-15</text>
<line x1="985.6" y1="516.0" x2="985.6" y2="519.0" stroke="#999"/>
<text x="985.6" y="531.0" text-anchor="end" fill="#e8731a" transform="rotate(-50 985.6 531.0)">07-16</text>
<line x1="1046.8" y1="516.0" x2="1046.8" y2="519.0" stroke="#999"/>
<text x="1046.8" y="531.0" text-anchor="end" fill="#e8731a" transform="rotate(-50 1046.8 531.0)">07-17</text>
<line x1="1108.0" y1="516.0" x2="1108.0" y2="519.0" stroke="#999"/>
<text x="1108.0" y="531.0" text-anchor="end" fill="#e8731a" transform="rotate(-50 1108.0 531.0)">07-18</text>
<polygon points="68.0,463.7 129.2,463.2 190.4,463.2 251.5,463.8 312.7,462.8 373.9,464.5 435.1,463.2 496.2,464.5 557.4,462.8 618.6,463.8 679.8,462.8 740.9,463.6 802.1,464.0 863.3,463.6 924.5,466.2 985.6,465.5 1046.8,465.0 1108.0,470.7 1108.0,516.0 1046.8,516.0 985.6,516.0 924.5,516.0 863.3,516.0 802.1,516.0 740.9,516.0 679.8,516.0 618.6,516.0 557.4,516.0 496.2,516.0 435.1,516.0 373.9,516.0 312.7,516.0 251.5,516.0 190.4,516.0 129.2,516.0 68.0,516.0" fill="#c7e9c0" fill-opacity="0.9" stroke="#fff" stroke-width="0.4"><title>api_module_graph — apiCreateGlobalSession</title></polygon>
<polygon points="68.0,463.7 129.2,463.1 190.4,463.2 251.5,463.8 312.7,462.8 373.9,464.5 435.1,463.1 496.2,464.5 557.4,462.8 618.6,463.7 679.8,462.8 740.9,463.6 802.1,464.0 863.3,463.6 924.5,466.2 985.6,465.4 1046.8,465.0 1108.0,470.6 1108.0,470.7 1046.8,465.0 985.6,465.5 924.5,466.2 863.3,463.6 802.1,464.0 740.9,463.6 679.8,462.8 618.6,463.8 557.4,462.8 496.2,464.5 435.1,463.2 373.9,464.5 312.7,462.8 251.5,463.8 190.4,463.2 129.2,463.2 68.0,463.7" fill="#41ab5d" fill-opacity="0.9" stroke="#fff" stroke-width="0.4"><title>api_module_graph — apiCreateSession</title></polygon>
<polygon points="68.0,163.2 129.2,161.0 190.4,162.4 251.5,165.2 312.7,152.9 373.9,155.0 435.1,155.9 496.2,155.8 557.4,156.2 618.6,153.1 679.8,149.2 740.9,151.2 802.1,153.1 863.3,169.2 924.5,170.5 985.6,121.4 1046.8,121.5 1108.0,173.7 1108.0,470.6 1046.8,465.0 985.6,465.4 924.5,466.2 863.3,463.6 802.1,464.0 740.9,463.6 679.8,462.8 618.6,463.7 557.4,462.8 496.2,464.5 435.1,463.1 373.9,464.5 312.7,462.8 251.5,463.8 190.4,463.2 129.2,463.1 68.0,463.7" fill="#2171b5" fill-opacity="0.9" stroke="#fff" stroke-width="0.4"><title>api_module_graph — apiLoadModule</title></polygon>
<polygon points="68.0,163.2 129.2,161.0 190.4,162.4 251.5,165.2 312.7,152.9 373.9,155.0 435.1,155.9 496.2,155.8 557.4,156.2 618.6,153.1 679.8,149.2 740.9,151.1 802.1,153.1 863.3,169.2 924.5,170.5 985.6,121.4 1046.8,121.5 1108.0,173.7 1108.0,173.7 1046.8,121.5 985.6,121.4 924.5,170.5 863.3,169.2 802.1,153.1 740.9,151.2 679.8,149.2 618.6,153.1 557.4,156.2 496.2,155.8 435.1,155.9 373.9,155.0 312.7,152.9 251.5,165.2 190.4,162.4 129.2,161.0 68.0,163.2" fill="#6baed6" fill-opacity="0.9" stroke="#fff" stroke-width="0.4"><title>api_module_graph — apiFindEntryPoint</title></polygon>
<polygon points="68.0,163.2 129.2,161.0 190.4,162.3 251.5,165.1 312.7,152.9 373.9,155.0 435.1,155.8 496.2,155.7 557.4,156.1 618.6,153.1 679.8,149.1 740.9,151.1 802.1,153.1 863.3,169.2 924.5,170.5 985.6,121.3 1046.8,121.4 1108.0,173.7 1108.0,173.7 1046.8,121.5 985.6,121.4 924.5,170.5 863.3,169.2 802.1,153.1 740.9,151.1 679.8,149.2 618.6,153.1 557.4,156.2 496.2,155.8 435.1,155.9 373.9,155.0 312.7,152.9 251.5,165.2 190.4,162.4 129.2,161.0 68.0,163.2" fill="#9e9ac8" fill-opacity="0.9" stroke="#fff" stroke-width="0.4"><title>api_module_graph — apiComposite</title></polygon>
<polygon points="68.0,162.3 129.2,160.1 190.4,161.5 251.5,164.3 312.7,152.0 373.9,154.1 435.1,155.0 496.2,154.8 557.4,155.3 618.6,152.2 679.8,148.4 740.9,150.2 802.1,152.3 863.3,168.1 924.5,169.4 985.6,120.3 1046.8,120.4 1108.0,172.7 1108.0,173.7 1046.8,121.4 985.6,121.3 924.5,170.5 863.3,169.2 802.1,153.1 740.9,151.1 679.8,149.1 618.6,153.1 557.4,156.1 496.2,155.7 435.1,155.8 373.9,155.0 312.7,152.9 251.5,165.1 190.4,162.3 129.2,161.0 68.0,163.2" fill="#6a51a3" fill-opacity="0.9" stroke="#fff" stroke-width="0.4"><title>api_module_graph — apiLink</title></polygon>
<polygon points="68.0,148.5 129.2,146.6 190.4,148.2 251.5,150.4 312.7,137.5 373.9,140.2 435.1,140.9 496.2,141.8 557.4,141.8 618.6,139.1 679.8,135.0 740.9,137.7 802.1,138.6 863.3,156.6 924.5,158.0 985.6,109.1 1046.8,109.2 1108.0,163.0 1108.0,172.7 1046.8,120.4 985.6,120.3 924.5,169.4 863.3,168.1 802.1,152.3 740.9,150.2 679.8,148.4 618.6,152.2 557.4,155.3 496.2,154.8 435.1,155.0 373.9,154.1 312.7,152.0 251.5,164.3 190.4,161.5 129.2,160.1 68.0,162.3" fill="#fd8d3c" fill-opacity="0.9" stroke="#fff" stroke-width="0.4"><title>api_module_graph — apiGetCode</title></polygon>
<polygon points="68.0,147.8 129.2,145.4 190.4,147.5 251.5,149.9 312.7,136.7 373.9,139.0 435.1,139.3 496.2,141.8 557.4,141.6 618.6,138.6 679.8,134.5 740.9,137.2 802.1,138.6 863.3,156.6 924.5,157.1 985.6,108.6 1046.8,109.2 1108.0,162.5 1108.0,163.0 1046.8,109.2 985.6,109.1 924.5,158.0 863.3,156.6 802.1,138.6 740.9,137.7 679.8,135.0 618.6,139.1 557.4,141.8 496.2,141.8 435.1,140.9 373.9,140.2 312.7,137.5 251.5,150.4 190.4,148.2 129.2,146.6 68.0,148.5" fill="#969696" fill-opacity="0.9" stroke="#fff" stroke-width="0.4"><title>api_module_graph — apiTotal (self)</title></polygon>
<text x="12" y="578" fill="#666" font-weight="600">phase buckets</text>
<rect x="12" y="586" width="12" height="12" fill="#c7e9c0"/>
<text x="28" y="596" fill="#222">apiCreateGlobalSession</text>
<rect x="289" y="586" width="12" height="12" fill="#41ab5d"/>
<text x="305" y="596" fill="#222">apiCreateSession</text>
<rect x="566" y="586" width="12" height="12" fill="#2171b5"/>
<text x="582" y="596" fill="#222">apiLoadModule</text>
<rect x="843" y="586" width="12" height="12" fill="#6baed6"/>
<text x="859" y="596" fill="#222">apiFindEntryPoint</text>
<rect x="12" y="604" width="12" height="12" fill="#9e9ac8"/>
<text x="28" y="614" fill="#222">apiComposite</text>
<rect x="289" y="604" width="12" height="12" fill="#807dba"/>
<text x="305" y="614" fill="#222">apiSpecialize</text>
<rect x="566" y="604" width="12" height="12" fill="#6a51a3"/>
<text x="582" y="614" fill="#222">apiLink</text>
<rect x="843" y="604" width="12" height="12" fill="#fd8d3c"/>
<text x="859" y="614" fill="#222">apiGetCode</text>
<rect x="12" y="622" width="12" height="12" fill="#b5bdc4"/>
<text x="28" y="632" fill="#222">apiReflection</text>
<rect x="289" y="622" width="12" height="12" fill="#969696"/>
<text x="305" y="632" fill="#222">apiTotal (self)</text>
</svg>