<svg xmlns="http://www.w3.org/2000/svg" xmlns:xlink="http://www.w3.org/1999/xlink" width="1132" height="662" viewBox="0 0 1132 662" preserveAspectRatio="xMidYMid meet" font-family="sans-serif" font-size="13">
<rect width="1132" height="662" fill="white"/>
<text x="12" y="30" font-size="20" font-weight="bold">api_module_graph — Daily tip-of-tree (last 30 days) (median ms)</text>
<text x="68" y="60" font-size="15" font-weight="600" fill="#1a1a1a">api_module_graph<tspan fill="#888" font-weight="400" text-decoration="none">  1.10×</tspan></text>
<line x1="68.0" y1="516.0" x2="1108.0" y2="516.0" stroke="#eee"/>
<text x="64.0" y="519.0" text-anchor="end" fill="#999">0.0</text>
<line x1="68.0" y1="296.0" x2="1108.0" y2="296.0" stroke="#eee"/>
<text x="64.0" y="299.0" text-anchor="end" fill="#999">478</text>
<line x1="68.0" y1="76.0" x2="1108.0" y2="76.0" stroke="#eee"/>
<text x="64.0" y="79.0" text-anchor="end" fill="#999">956</text>
<line x1="68.0" y1="76.0" x2="68.0" y2="516.0" stroke="#333"/>
<line x1="68.0" y1="516.0" x2="1108.0" y2="516.0" stroke="#333"/>
<line x1="68.0" y1="516.0" x2="68.0" y2="519.0" stroke="#999"/>
<text x="68.0" y="531.0" text-anchor="end" fill="#e8731a" transform="rotate(-50 68.0 531.0)">06-25</text>
<line x1="133.0" y1="516.0" x2="133.0" y2="519.0" stroke="#999"/>
<text x="133.0" y="531.0" text-anchor="end" fill="#e8731a" transform="rotate(-50 133.0 531.0)">06-26</text>
<line x1="198.0" y1="516.0" x2="198.0" y2="519.0" stroke="#999"/>
<text x="198.0" y="531.0" text-anchor="end" fill="#e8731a" transform="rotate(-50 198.0 531.0)">06-28</text>
<line x1="263.0" y1="516.0" x2="263.0" y2="519.0" stroke="#999"/>
<text x="263.0" y="531.0" text-anchor="end" fill="#e8731a" transform="rotate(-50 263.0 531.0)">07-01</text>
<line x1="328.0" y1="516.0" x2="328.0" y2="519.0" stroke="#999"/>
<text x="328.0" y="531.0" text-anchor="end" fill="#e8731a" transform="rotate(-50 328.0 531.0)">07-02</text>
<line x1="393.0" y1="516.0" x2="393.0" y2="519.0" stroke="#999"/>
<text x="393.0" y="531.0" text-anchor="end" fill="#e8731a" transform="rotate(-50 393.0 531.0)">07-03</text>
<line x1="458.0" y1="516.0" x2="458.0" y2="519.0" stroke="#999"/>
<text x="458.0" y="531.0" text-anchor="end" fill="#e8731a" transform="rotate(-50 458.0 531.0)">07-06</text>
<line x1="523.0" y1="516.0" x2="523.0" y2="519.0" stroke="#999"/>
<text x="523.0" y="531.0" text-anchor="end" fill="#e8731a" transform="rotate(-50 523.0 531.0)">07-07</text>
<line x1="588.0" y1="516.0" x2="588.0" y2="519.0" stroke="#999"/>
<text x="588.0" y="531.0" text-anchor="end" fill="#e8731a" transform="rotate(-50 588.0 531.0)">07-08</text>
<line x1="653.0" y1="516.0" x2="653.0" y2="519.0" stroke="#999"/>
<text x="653.0" y="531.0" text-anchor="end" fill="#e8731a" transform="rotate(-50 653.0 531.0)">07-09</text>
<line x1="718.0" y1="516.0" x2="718.0" y2="519.0" stroke="#999"/>
<text x="718.0" y="531.0" text-anchor="end" fill="#e8731a" transform="rotate(-50 718.0 531.0)">07-10</text>
<line x1="783.0" y1="516.0" x2="783.0" y2="519.0" stroke="#999"/>
<text x="783.0" y="531.0" text-anchor="end" fill="#e8731a" transform="rotate(-50 783.0 531.0)">07-11</text>
<line x1="848.0" y1="516.0" x2="848.0" y2="519.0" stroke="#999"/>
<text x="848.0" y="531.0" text-anchor="end" fill="#e8731a" transform="rotate(-50 848.0 531.0)">07-14</text>
<line x1="913.0" y1="516.0" x2="913.0" y2="519.0" stroke="#999"/>
<text x="913.0" y="531.0" text-anchor="end" fill="#e8731a" transform="rotate(-50 913.0 531.0)">07-15</text>
<line x1="978.0" y1="516.0" x2="978.0" y2="519.0" stroke="#999"/>
<text x="978.0" y="531.0" text-anchor="end" fill="#e8731a" transform="rotate(-50 978.0 531.0)">07-15</text>
<line x1="1043.0" y1="516.0" x2="1043.0" y2="519.0" stroke="#999"/>
<text x="1043.0" y="531.0" text-anchor="end" fill="#e8731a" transform="rotate(-50 1043.0 531.0)">07-16</text>
<line x1="1108.0" y1="516.0" x2="1108.0" y2="519.0" stroke="#999"/>
<text x="1108.0" y="531.0" text-anchor="end" fill="#e8731a" transform="rotate(-50 1108.0 531.0)">07-17</text>
<polygon points="68.0,463.7 133.0,463.2 198.0,463.2 263.0,463.8 328.0,462.8 393.0,464.5 458.0,463.2 523.0,464.5 588.0,462.8 653.0,463.8 718.0,462.8 783.0,463.6 848.0,464.0 913.0,463.6 978.0,466.2 1043.0,465.5 1108.0,465.0 1108.0,516.0 1043.0,516.0 978.0,516.0 913.0,516.0 848.0,516.0 783.0,516.0 718.0,516.0 653.0,516.0 588.0,516.0 523.0,516.0 458.0,516.0 393.0,516.0 328.0,516.0 263.0,516.0 198.0,516.0 133.0,516.0 68.0,516.0" fill="#c7e9c0" fill-opacity="0.9" stroke="#fff" stroke-width="0.4"><title>api_module_graph — apiCreateGlobalSession</title></polygon>
<polygon points="68.0,463.7 133.0,463.1 198.0,463.2 263.0,463.8 328.0,462.8 393.0,464.5 458.0,463.1 523.0,464.5 588.0,462.8 653.0,463.7 718.0,462.8 783.0,463.6 848.0,464.0 913.0,463.6 978.0,466.2 1043.0,465.4 1108.0,465.0 1108.0,465.0 1043.0,465.5 978.0,466.2 913.0,463.6 848.0,464.0 783.0,463.6 718.0,462.8 653.0,463.8 588.0,462.8 523.0,464.5 458.0,463.2 393.0,464.5 328.0,462.8 263.0,463.8 198.0,463.2 133.0,463.2 68.0,463.7" fill="#41ab5d" fill-opacity="0.9" stroke="#fff" stroke-width="0.4"><title>api_module_graph — apiCreateSession</title></polygon>
<polygon points="68.0,163.2 133.0,161.0 198.0,162.4 263.0,165.2 328.0,152.9 393.0,155.0 458.0,155.9 523.0,155.8 588.0,156.2 653.0,153.1 718.0,149.2 783.0,151.2 848.0,153.1 913.0,169.2 978.0,170.5 1043.0,121.4 1108.0,121.5 1108.0,465.0 1043.0,465.4 978.0,466.2 913.0,463.6 848.0,464.0 783.0,463.6 718.0,462.8 653.0,463.7 588.0,462.8 523.0,464.5 458.0,463.1 393.0,464.5 328.0,462.8 263.0,463.8 198.0,463.2 133.0,463.1 68.0,463.7" fill="#2171b5" fill-opacity="0.9" stroke="#fff" stroke-width="0.4"><title>api_module_graph — apiLoadModule</title></polygon>
<polygon points="68.0,163.2 133.0,161.0 198.0,162.4 263.0,165.2 328.0,152.9 393.0,155.0 458.0,155.9 523.0,155.8 588.0,156.2 653.0,153.1 718.0,149.2 783.0,151.1 848.0,153.1 913.0,169.2 978.0,170.5 1043.0,121.4 1108.0,121.5 1108.0,121.5 1043.0,121.4 978.0,170.5 913.0,169.2 848.0,153.1 783.0,151.2 718.0,149.2 653.0,153.1 588.0,156.2 523.0,155.8 458.0,155.9 393.0,155.0 328.0,152.9 263.0,165.2 198.0,162.4 133.0,161.0 68.0,163.2" fill="#6baed6" fill-opacity="0.9" stroke="#fff" stroke-width="0.4"><title>api_module_graph — apiFindEntryPoint</title></polygon>
<polygon points="68.0,163.2 133.0,161.0 198.0,162.3 263.0,165.1 328.0,152.9 393.0,155.0 458.0,155.8 523.0,155.7 588.0,156.1 653.0,153.1 718.0,149.1 783.0,151.1 848.0,153.1 913.0,169.2 978.0,170.5 1043.0,121.3 1108.0,121.4 1108.0,121.5 1043.0,121.4 978.0,170.5 913.0,169.2 848.0,153.1 783.0,151.1 718.0,149.2 653.0,153.1 588.0,156.2 523.0,155.8 458.0,155.9 393.0,155.0 328.0,152.9 263.0,165.2 198.0,162.4 133.0,161.0 68.0,163.2" fill="#9e9ac8" fill-opacity="0.9" stroke="#fff" stroke-width="0.4"><title>api_module_graph — apiComposite</title></polygon>
<polygon points="68.0,162.3 133.0,160.1 198.0,161.5 263.0,164.3 328.0,152.0 393.0,154.1 458.0,155.0 523.0,154.8 588.0,155.3 653.0,152.2 718.0,148.4 783.0,150.2 848.0,152.3 913.0,168.1 978.0,169.4 1043.0,120.3 1108.0,120.4 1108.0,121.4 1043.0,121.3 978.0,170.5 913.0,169.2 848.0,153.1 783.0,151.1 718.0,149.1 653.0,153.1 588.0,156.1 523.0,155.7 458.0,155.8 393.0,155.0 328.0,152.9 263.0,165.1 198.0,162.3 133.0,161.0 68.0,163.2" fill="#6a51a3" fill-opacity="0.9" stroke="#fff" stroke-width="0.4"><title>api_module_graph — apiLink</title></polygon>
<polygon points="68.0,148.5 133.0,146.6 198.0,148.2 263.0,150.4 328.0,137.5 393.0,140.2 458.0,140.9 523.0,141.8 588.0,141.8 653.0,139.1 718.0,135.0 783.0,137.7 848.0,138.6 913.0,156.6 978.0,158.0 1043.0,109.1 1108.0,109.2 1108.0,120.4 1043.0,120.3 978.0,169.4 913.0,168.1 848.0,152.3 783.0,150.2 718.0,148.4 653.0,152.2 588.0,155.3 523.0,154.8 458.0,155.0 393.0,154.1 328.0,152.0 263.0,164.3 198.0,161.5 133.0,160.1 68.0,162.3" fill="#fd8d3c" fill-opacity="0.9" stroke="#fff" stroke-width="0.4"><title>api_module_graph — apiGetCode</title></polygon>
<polygon points="68.0,147.8 133.0,145.4 198.0,147.5 263.0,149.9 328.0,136.7 393.0,139.0 458.0,139.3 523.0,141.8 588.0,141.6 653.0,138.6 718.0,134.5 783.0,137.2 848.0,138.6 913.0,156.6 978.0,157.1 1043.0,108.6 1108.0,109.2 1108.0,109.2 1043.0,109.1 978.0,158.0 913.0,156.6 848.0,138.6 783.0,137.7 718.0,135.0 653.0,139.1 588.0,141.8 523.0,141.8 458.0,140.9 393.0,140.2 328.0,137.5 263.0,150.4 198.0,148.2 133.0,146.6 68.0,148.5" fill="#969696" fill-opacity="0.9" stroke="#fff" stroke-width="0.4"><title>api_module_graph — apiTotal (self)</title></polygon>
<text x="12" y="578" fill="#666" font-weight="600">phase buckets</text>
<rect x="12" y="586" width="12" height="12" fill="#c7e9c0"/>
<text x="28" y="596" fill="#222">apiCreateGlobalSession</text>
<rect x="289" y="586" width="12" height="12" fill="#41ab5d"/>
<text x="305" y="596" fill="#222">apiCreateSession</text>
<rect x="566" y="586" width="12" height="12" fill="#2171b5"/>
<text x="582" y="596" fill="#222">apiLoadModule</text>
<rect x="843" y="586" width="12" height="12" fill="#6baed6"/>
<text x="859" y="596" fill="#222">apiFindEntryPoint</text>
<rect x="12" y="604" width="12" height="12" fill="#9e9ac8"/>
<text x="28" y="614" fill="#222">apiComposite</text>
<rect x="289" y="604" width="12" height="12" fill="#807dba"/>
<text x="305" y="614" fill="#222">apiSpecialize</text>
<rect x="566" y="604" width="12" height="12" fill="#6a51a3"/>
<text x="582" y="614" fill="#222">apiLink</text>
<rect x="843" y="604" width="12" height="12" fill="#fd8d3c"/>
<text x="859" y="614" fill="#222">apiGetCode</text>
<rect x="12" y="622" width="12" height="12" fill="#b5bdc4"/>
<text x="28" y="632" fill="#222">apiReflection</text>
<rect x="289" y="622" width="12" height="12" fill="#969696"/>
<text x="305" y="632" fill="#222">apiTotal (self)</text>
</svg>