<svg xmlns="http://www.w3.org/2000/svg" xmlns:xlink="http://www.w3.org/1999/xlink" width="1132" height="662" viewBox="0 0 1132 662" preserveAspectRatio="xMidYMid meet" font-family="sans-serif" font-size="13">
<rect width="1132" height="662" fill="white"/>
<text x="12" y="30" font-size="20" font-weight="bold">api_module_graph — Daily tip-of-tree (last 30 days) (median ms)</text>
<text x="68" y="60" font-size="15" font-weight="600" fill="#1a1a1a">api_module_graph<tspan fill="#888" font-weight="400" text-decoration="none">  0.98×</tspan></text>
<line x1="68.0" y1="516.0" x2="1108.0" y2="516.0" stroke="#eee"/>
<text x="64.0" y="519.0" text-anchor="end" fill="#999">0.0</text>
<line x1="68.0" y1="296.0" x2="1108.0" y2="296.0" stroke="#eee"/>
<text x="64.0" y="299.0" text-anchor="end" fill="#999">448</text>
<line x1="68.0" y1="76.0" x2="1108.0" y2="76.0" stroke="#eee"/>
<text x="64.0" y="79.0" text-anchor="end" fill="#999">896</text>
<line x1="68.0" y1="76.0" x2="68.0" y2="516.0" stroke="#333"/>
<line x1="68.0" y1="516.0" x2="1108.0" y2="516.0" stroke="#333"/>
<line x1="68.0" y1="516.0" x2="68.0" y2="519.0" stroke="#999"/>
<text x="68.0" y="531.0" text-anchor="end" fill="#e8731a" transform="rotate(-50 68.0 531.0)">06-25</text>
<line x1="148.0" y1="516.0" x2="148.0" y2="519.0" stroke="#999"/>
<text x="148.0" y="531.0" text-anchor="end" fill="#e8731a" transform="rotate(-50 148.0 531.0)">06-26</text>
<line x1="228.0" y1="516.0" x2="228.0" y2="519.0" stroke="#999"/>
<text x="228.0" y="531.0" text-anchor="end" fill="#e8731a" transform="rotate(-50 228.0 531.0)">06-28</text>
<line x1="308.0" y1="516.0" x2="308.0" y2="519.0" stroke="#999"/>
<text x="308.0" y="531.0" text-anchor="end" fill="#e8731a" transform="rotate(-50 308.0 531.0)">07-01</text>
<line x1="388.0" y1="516.0" x2="388.0" y2="519.0" stroke="#999"/>
<text x="388.0" y="531.0" text-anchor="end" fill="#e8731a" transform="rotate(-50 388.0 531.0)">07-02</text>
<line x1="468.0" y1="516.0" x2="468.0" y2="519.0" stroke="#999"/>
<text x="468.0" y="531.0" text-anchor="end" fill="#e8731a" transform="rotate(-50 468.0 531.0)">07-03</text>
<line x1="548.0" y1="516.0" x2="548.0" y2="519.0" stroke="#999"/>
<text x="548.0" y="531.0" text-anchor="end" fill="#e8731a" transform="rotate(-50 548.0 531.0)">07-06</text>
<line x1="628.0" y1="516.0" x2="628.0" y2="519.0" stroke="#999"/>
<text x="628.0" y="531.0" text-anchor="end" fill="#e8731a" transform="rotate(-50 628.0 531.0)">07-07</text>
<line x1="708.0" y1="516.0" x2="708.0" y2="519.0" stroke="#999"/>
<text x="708.0" y="531.0" text-anchor="end" fill="#e8731a" transform="rotate(-50 708.0 531.0)">07-08</text>
<line x1="788.0" y1="516.0" x2="788.0" y2="519.0" stroke="#999"/>
<text x="788.0" y="531.0" text-anchor="end" fill="#e8731a" transform="rotate(-50 788.0 531.0)">07-09</text>
<line x1="868.0" y1="516.0" x2="868.0" y2="519.0" stroke="#999"/>
<text x="868.0" y="531.0" text-anchor="end" fill="#e8731a" transform="rotate(-50 868.0 531.0)">07-10</text>
<line x1="948.0" y1="516.0" x2="948.0" y2="519.0" stroke="#999"/>
<text x="948.0" y="531.0" text-anchor="end" fill="#e8731a" transform="rotate(-50 948.0 531.0)">07-11</text>
<line x1="1028.0" y1="516.0" x2="1028.0" y2="519.0" stroke="#999"/>
<text x="1028.0" y="531.0" text-anchor="end" fill="#e8731a" transform="rotate(-50 1028.0 531.0)">07-14</text>
<line x1="1108.0" y1="516.0" x2="1108.0" y2="519.0" stroke="#999"/>
<text x="1108.0" y="531.0" text-anchor="end" fill="#e8731a" transform="rotate(-50 1108.0 531.0)">07-15</text>
<polygon points="68.0,460.1 148.0,459.6 228.0,459.6 308.0,460.2 388.0,459.2 468.0,461.0 548.0,459.6 628.0,461.0 708.0,459.2 788.0,460.2 868.0,459.2 948.0,460.0 1028.0,460.5 1108.0,460.1 1108.0,516.0 1028.0,516.0 948.0,516.0 868.0,516.0 788.0,516.0 708.0,516.0 628.0,516.0 548.0,516.0 468.0,516.0 388.0,516.0 308.0,516.0 228.0,516.0 148.0,516.0 68.0,516.0" fill="#c7e9c0" fill-opacity="0.9" stroke="#fff" stroke-width="0.4"><title>api_module_graph — apiCreateGlobalSession</title></polygon>
<polygon points="68.0,460.1 148.0,459.5 228.0,459.6 308.0,460.2 388.0,459.2 468.0,461.0 548.0,459.6 628.0,461.0 708.0,459.2 788.0,460.2 868.0,459.2 948.0,460.0 1028.0,460.5 1108.0,460.1 1108.0,460.1 1028.0,460.5 948.0,460.0 868.0,459.2 788.0,460.2 708.0,459.2 628.0,461.0 548.0,459.6 468.0,461.0 388.0,459.2 308.0,460.2 228.0,459.6 148.0,459.6 68.0,460.1" fill="#41ab5d" fill-opacity="0.9" stroke="#fff" stroke-width="0.4"><title>api_module_graph — apiCreateSession</title></polygon>
<polygon points="68.0,139.3 148.0,136.9 228.0,138.4 308.0,141.3 388.0,128.3 468.0,130.5 548.0,131.4 628.0,131.3 708.0,131.7 788.0,128.5 868.0,124.3 948.0,126.4 1028.0,128.5 1108.0,145.7 1108.0,460.1 1028.0,460.5 948.0,460.0 868.0,459.2 788.0,460.2 708.0,459.2 628.0,461.0 548.0,459.6 468.0,461.0 388.0,459.2 308.0,460.2 228.0,459.6 148.0,459.5 68.0,460.1" fill="#2171b5" fill-opacity="0.9" stroke="#fff" stroke-width="0.4"><title>api_module_graph — apiLoadModule</title></polygon>
<polygon points="68.0,139.3 148.0,136.9 228.0,138.4 308.0,141.3 388.0,128.3 468.0,130.5 548.0,131.4 628.0,131.3 708.0,131.7 788.0,128.5 868.0,124.3 948.0,126.4 1028.0,128.5 1108.0,145.7 1108.0,145.7 1028.0,128.5 948.0,126.4 868.0,124.3 788.0,128.5 708.0,131.7 628.0,131.3 548.0,131.4 468.0,130.5 388.0,128.3 308.0,141.3 228.0,138.4 148.0,136.9 68.0,139.3" fill="#6baed6" fill-opacity="0.9" stroke="#fff" stroke-width="0.4"><title>api_module_graph — apiFindEntryPoint</title></polygon>
<polygon points="68.0,139.2 148.0,136.9 228.0,138.3 308.0,141.3 388.0,128.2 468.0,130.5 548.0,131.4 628.0,131.3 708.0,131.7 788.0,128.5 868.0,124.2 948.0,126.3 1028.0,128.4 1108.0,145.6 1108.0,145.7 1028.0,128.5 948.0,126.4 868.0,124.3 788.0,128.5 708.0,131.7 628.0,131.3 548.0,131.4 468.0,130.5 388.0,128.3 308.0,141.3 228.0,138.4 148.0,136.9 68.0,139.3" fill="#9e9ac8" fill-opacity="0.9" stroke="#fff" stroke-width="0.4"><title>api_module_graph — apiComposite</title></polygon>
<polygon points="68.0,138.3 148.0,136.0 228.0,137.5 308.0,140.4 388.0,127.3 468.0,129.5 548.0,130.5 628.0,130.3 708.0,130.9 788.0,127.5 868.0,123.4 948.0,125.4 1028.0,127.6 1108.0,144.5 1108.0,145.6 1028.0,128.4 948.0,126.3 868.0,124.2 788.0,128.5 708.0,131.7 628.0,131.3 548.0,131.4 468.0,130.5 388.0,128.2 308.0,141.3 228.0,138.3 148.0,136.9 68.0,139.2" fill="#6a51a3" fill-opacity="0.9" stroke="#fff" stroke-width="0.4"><title>api_module_graph — apiLink</title></polygon>
<polygon points="68.0,123.6 148.0,121.6 228.0,123.3 308.0,125.6 388.0,111.8 468.0,114.7 548.0,115.5 628.0,116.5 708.0,116.4 788.0,113.5 868.0,109.1 948.0,112.0 1028.0,113.0 1108.0,132.2 1108.0,144.5 1028.0,127.6 948.0,125.4 868.0,123.4 788.0,127.5 708.0,130.9 628.0,130.3 548.0,130.5 468.0,129.5 388.0,127.3 308.0,140.4 228.0,137.5 148.0,136.0 68.0,138.3" fill="#fd8d3c" fill-opacity="0.9" stroke="#fff" stroke-width="0.4"><title>api_module_graph — apiGetCode</title></polygon>
<polygon points="68.0,122.8 148.0,120.3 228.0,122.5 308.0,125.1 388.0,111.0 468.0,113.4 548.0,113.7 628.0,116.5 708.0,116.1 788.0,112.9 868.0,108.6 948.0,111.5 1028.0,113.0 1108.0,132.2 1108.0,132.2 1028.0,113.0 948.0,112.0 868.0,109.1 788.0,113.5 708.0,116.4 628.0,116.5 548.0,115.5 468.0,114.7 388.0,111.8 308.0,125.6 228.0,123.3 148.0,121.6 68.0,123.6" fill="#969696" fill-opacity="0.9" stroke="#fff" stroke-width="0.4"><title>api_module_graph — apiTotal (self)</title></polygon>
<text x="12" y="578" fill="#666" font-weight="600">phase buckets</text>
<rect x="12" y="586" width="12" height="12" fill="#c7e9c0"/>
<text x="28" y="596" fill="#222">apiCreateGlobalSession</text>
<rect x="289" y="586" width="12" height="12" fill="#41ab5d"/>
<text x="305" y="596" fill="#222">apiCreateSession</text>
<rect x="566" y="586" width="12" height="12" fill="#2171b5"/>
<text x="582" y="596" fill="#222">apiLoadModule</text>
<rect x="843" y="586" width="12" height="12" fill="#6baed6"/>
<text x="859" y="596" fill="#222">apiFindEntryPoint</text>
<rect x="12" y="604" width="12" height="12" fill="#9e9ac8"/>
<text x="28" y="614" fill="#222">apiComposite</text>
<rect x="289" y="604" width="12" height="12" fill="#807dba"/>
<text x="305" y="614" fill="#222">apiSpecialize</text>
<rect x="566" y="604" width="12" height="12" fill="#6a51a3"/>
<text x="582" y="614" fill="#222">apiLink</text>
<rect x="843" y="604" width="12" height="12" fill="#fd8d3c"/>
<text x="859" y="614" fill="#222">apiGetCode</text>
<rect x="12" y="622" width="12" height="12" fill="#b5bdc4"/>
<text x="28" y="632" fill="#222">apiReflection</text>
<rect x="289" y="622" width="12" height="12" fill="#969696"/>
<text x="305" y="632" fill="#222">apiTotal (self)</text>
</svg>