<svg xmlns="http://www.w3.org/2000/svg" xmlns:xlink="http://www.w3.org/1999/xlink" width="1132" height="662" viewBox="0 0 1132 662" preserveAspectRatio="xMidYMid meet" font-family="sans-serif" font-size="13">
<rect width="1132" height="662" fill="white"/>
<text x="12" y="30" font-size="20" font-weight="bold">api_specialize — Across releases (median ms)</text>
<text x="68" y="60" font-size="15" font-weight="600" fill="#1a1a1a">api_specialize<tspan fill="#888" font-weight="400" text-decoration="none">  1.14×</tspan></text>
<line x1="68.0" y1="516.0" x2="1108.0" y2="516.0" stroke="#eee"/>
<text x="64.0" y="519.0" text-anchor="end" fill="#999">0.0</text>
<line x1="68.0" y1="296.0" x2="1108.0" y2="296.0" stroke="#eee"/>
<text x="64.0" y="299.0" text-anchor="end" fill="#999">654</text>
<line x1="68.0" y1="76.0" x2="1108.0" y2="76.0" stroke="#eee"/>
<text x="64.0" y="79.0" text-anchor="end" fill="#999">1308</text>
<line x1="68.0" y1="76.0" x2="68.0" y2="516.0" stroke="#333"/>
<line x1="68.0" y1="516.0" x2="1108.0" y2="516.0" stroke="#333"/>
<line x1="68.0" y1="516.0" x2="68.0" y2="519.0" stroke="#999"/>
<text x="68.0" y="531.0" text-anchor="end" fill="#666" transform="rotate(-50 68.0 531.0)">25.12</text>
<line x1="113.2" y1="516.0" x2="113.2" y2="519.0" stroke="#999"/>
<text x="113.2" y="531.0" text-anchor="end" fill="#666" transform="rotate(-50 113.2 531.0)">25.13</text>
<line x1="158.4" y1="516.0" x2="158.4" y2="519.0" stroke="#999"/>
<text x="158.4" y="531.0" text-anchor="end" fill="#666" transform="rotate(-50 158.4 531.0)">25.14</text>
<line x1="203.7" y1="516.0" x2="203.7" y2="519.0" stroke="#999"/>
<text x="203.7" y="531.0" text-anchor="end" fill="#666" transform="rotate(-50 203.7 531.0)">25.15</text>
<line x1="248.9" y1="516.0" x2="248.9" y2="519.0" stroke="#999"/>
<text x="248.9" y="531.0" text-anchor="end" fill="#666" transform="rotate(-50 248.9 531.0)">25.16</text>
<line x1="294.1" y1="516.0" x2="294.1" y2="519.0" stroke="#999"/>
<text x="294.1" y="531.0" text-anchor="end" fill="#666" transform="rotate(-50 294.1 531.0)">25.17</text>
<line x1="339.3" y1="516.0" x2="339.3" y2="519.0" stroke="#999"/>
<text x="339.3" y="531.0" text-anchor="end" fill="#666" transform="rotate(-50 339.3 531.0)">25.18</text>
<line x1="384.5" y1="516.0" x2="384.5" y2="519.0" stroke="#999"/>
<text x="384.5" y="531.0" text-anchor="end" fill="#666" transform="rotate(-50 384.5 531.0)">25.19</text>
<line x1="429.7" y1="516.0" x2="429.7" y2="519.0" stroke="#999"/>
<text x="429.7" y="531.0" text-anchor="end" fill="#666" transform="rotate(-50 429.7 531.0)">25.20</text>
<line x1="475.0" y1="516.0" x2="475.0" y2="519.0" stroke="#999"/>
<text x="475.0" y="531.0" text-anchor="end" fill="#666" transform="rotate(-50 475.0 531.0)">25.21</text>
<line x1="520.2" y1="516.0" x2="520.2" y2="519.0" stroke="#999"/>
<text x="520.2" y="531.0" text-anchor="end" fill="#666" transform="rotate(-50 520.2 531.0)">25.22</text>
<line x1="565.4" y1="516.0" x2="565.4" y2="519.0" stroke="#999"/>
<text x="565.4" y="531.0" text-anchor="end" fill="#666" transform="rotate(-50 565.4 531.0)">25.23</text>
<line x1="610.6" y1="516.0" x2="610.6" y2="519.0" stroke="#999"/>
<text x="610.6" y="531.0" text-anchor="end" fill="#666" transform="rotate(-50 610.6 531.0)">25.24</text>
<line x1="655.8" y1="516.0" x2="655.8" y2="519.0" stroke="#999"/>
<text x="655.8" y="531.0" text-anchor="end" fill="#666" transform="rotate(-50 655.8 531.0)">26.1</text>
<line x1="701.0" y1="516.0" x2="701.0" y2="519.0" stroke="#999"/>
<text x="701.0" y="531.0" text-anchor="end" fill="#666" transform="rotate(-50 701.0 531.0)">26.2</text>
<line x1="746.3" y1="516.0" x2="746.3" y2="519.0" stroke="#999"/>
<text x="746.3" y="531.0" text-anchor="end" fill="#666" transform="rotate(-50 746.3 531.0)">26.3</text>
<line x1="791.5" y1="516.0" x2="791.5" y2="519.0" stroke="#999"/>
<text x="791.5" y="531.0" text-anchor="end" fill="#666" transform="rotate(-50 791.5 531.0)">26.4</text>
<line x1="836.7" y1="516.0" x2="836.7" y2="519.0" stroke="#999"/>
<text x="836.7" y="531.0" text-anchor="end" fill="#666" transform="rotate(-50 836.7 531.0)">26.5</text>
<line x1="881.9" y1="516.0" x2="881.9" y2="519.0" stroke="#999"/>
<text x="881.9" y="531.0" text-anchor="end" fill="#666" transform="rotate(-50 881.9 531.0)">26.7</text>
<line x1="927.1" y1="516.0" x2="927.1" y2="519.0" stroke="#999"/>
<text x="927.1" y="531.0" text-anchor="end" fill="#666" transform="rotate(-50 927.1 531.0)">26.8</text>
<line x1="972.3" y1="516.0" x2="972.3" y2="519.0" stroke="#999"/>
<text x="972.3" y="531.0" text-anchor="end" fill="#666" transform="rotate(-50 972.3 531.0)">26.9</text>
<line x1="1017.6" y1="516.0" x2="1017.6" y2="519.0" stroke="#999"/>
<text x="1017.6" y="531.0" text-anchor="end" fill="#666" transform="rotate(-50 1017.6 531.0)">26.10</text>
<line x1="1062.8" y1="516.0" x2="1062.8" y2="519.0" stroke="#999"/>
<text x="1062.8" y="531.0" text-anchor="end" fill="#666" transform="rotate(-50 1062.8 531.0)">26.11</text>
<line x1="1108.0" y1="516.0" x2="1108.0" y2="519.0" stroke="#999"/>
<text x="1108.0" y="531.0" text-anchor="end" fill="#666" transform="rotate(-50 1108.0 531.0)">26.12</text>
<polygon points="68.0,428.0 113.2,432.7 158.4,421.7 203.7,492.6 248.9,492.2 294.1,493.1 339.3,492.8 384.5,492.9 429.7,492.5 475.0,492.6 520.2,501.1 565.4,502.0 610.6,501.3 655.8,501.2 701.0,500.7 746.3,501.6 791.5,500.3 836.7,501.1 881.9,475.0 927.1,481.3 972.3,475.9 1017.6,470.4 1062.8,480.0 1108.0,479.7 1108.0,516.0 1062.8,516.0 1017.6,516.0 972.3,516.0 927.1,516.0 881.9,516.0 836.7,516.0 791.5,516.0 746.3,516.0 701.0,516.0 655.8,516.0 610.6,516.0 565.4,516.0 520.2,516.0 475.0,516.0 429.7,516.0 384.5,516.0 339.3,516.0 294.1,516.0 248.9,516.0 203.7,516.0 158.4,516.0 113.2,516.0 68.0,516.0" fill="#c7e9c0" fill-opacity="0.9" stroke="#fff" stroke-width="0.4"><title>api_specialize — apiCreateGlobalSession</title></polygon>
<polygon points="68.0,427.9 113.2,432.6 158.4,421.7 203.7,492.6 248.9,492.2 294.1,493.1 339.3,492.8 384.5,492.9 429.7,492.5 475.0,492.6 520.2,501.1 565.4,502.0 610.6,501.3 655.8,501.2 701.0,500.7 746.3,501.6 791.5,500.2 836.7,501.1 881.9,475.0 927.1,481.3 972.3,475.9 1017.6,470.4 1062.8,480.0 1108.0,479.7 1108.0,479.7 1062.8,480.0 1017.6,470.4 972.3,475.9 927.1,481.3 881.9,475.0 836.7,501.1 791.5,500.3 746.3,501.6 701.0,500.7 655.8,501.2 610.6,501.3 565.4,502.0 520.2,501.1 475.0,492.6 429.7,492.5 384.5,492.9 339.3,492.8 294.1,493.1 248.9,492.2 203.7,492.6 158.4,421.7 113.2,432.7 68.0,428.0" fill="#41ab5d" fill-opacity="0.9" stroke="#fff" stroke-width="0.4"><title>api_specialize — apiCreateSession</title></polygon>
<polygon points="68.0,423.8 113.2,427.9 158.4,416.3 203.7,484.8 248.9,483.9 294.1,485.0 339.3,484.9 384.5,484.8 429.7,484.6 475.0,484.7 520.2,494.7 565.4,495.6 610.6,494.9 655.8,494.7 701.0,493.7 746.3,494.6 791.5,493.2 836.7,494.1 881.9,464.0 927.1,471.8 972.3,465.6 1017.6,460.6 1062.8,474.7 1108.0,474.2 1108.0,479.7 1062.8,480.0 1017.6,470.4 972.3,475.9 927.1,481.3 881.9,475.0 836.7,501.1 791.5,500.2 746.3,501.6 701.0,500.7 655.8,501.2 610.6,501.3 565.4,502.0 520.2,501.1 475.0,492.6 429.7,492.5 384.5,492.9 339.3,492.8 294.1,493.1 248.9,492.2 203.7,492.6 158.4,421.7 113.2,432.6 68.0,427.9" fill="#2171b5" fill-opacity="0.9" stroke="#fff" stroke-width="0.4"><title>api_specialize — apiLoadModule</title></polygon>
<polygon points="68.0,423.7 113.2,427.9 158.4,416.2 203.7,484.8 248.9,483.9 294.1,485.0 339.3,484.8 384.5,484.7 429.7,484.6 475.0,484.6 520.2,494.7 565.4,495.5 610.6,494.8 655.8,494.7 701.0,493.6 746.3,494.6 791.5,493.1 836.7,494.0 881.9,464.0 927.1,471.7 972.3,465.5 1017.6,460.5 1062.8,474.7 1108.0,474.1 1108.0,474.2 1062.8,474.7 1017.6,460.6 972.3,465.6 927.1,471.8 881.9,464.0 836.7,494.1 791.5,493.2 746.3,494.6 701.0,493.7 655.8,494.7 610.6,494.9 565.4,495.6 520.2,494.7 475.0,484.7 429.7,484.6 384.5,484.8 339.3,484.9 294.1,485.0 248.9,483.9 203.7,484.8 158.4,416.3 113.2,427.9 68.0,423.8" fill="#9e9ac8" fill-opacity="0.9" stroke="#fff" stroke-width="0.4"><title>api_specialize — apiComposite</title></polygon>
<polygon points="68.0,422.8 113.2,426.9 158.4,415.2 203.7,483.7 248.9,482.8 294.1,482.6 339.3,482.5 384.5,482.4 429.7,482.2 475.0,482.3 520.2,492.3 565.4,493.2 610.6,492.5 655.8,492.4 701.0,491.3 746.3,492.3 791.5,490.9 836.7,491.7 881.9,459.1 927.1,468.1 972.3,461.0 1017.6,455.9 1062.8,470.8 1108.0,470.3 1108.0,474.1 1062.8,474.7 1017.6,460.5 972.3,465.5 927.1,471.7 881.9,464.0 836.7,494.0 791.5,493.1 746.3,494.6 701.0,493.6 655.8,494.7 610.6,494.8 565.4,495.5 520.2,494.7 475.0,484.6 429.7,484.6 384.5,484.7 339.3,484.8 294.1,485.0 248.9,483.9 203.7,484.8 158.4,416.2 113.2,427.9 68.0,423.7" fill="#807dba" fill-opacity="0.9" stroke="#fff" stroke-width="0.4"><title>api_specialize — apiSpecialize</title></polygon>
<polygon points="68.0,422.8 113.2,426.9 158.4,415.2 203.7,483.7 248.9,482.8 294.1,482.6 339.3,482.5 384.5,482.4 429.7,482.2 475.0,482.3 520.2,492.3 565.4,493.2 610.6,492.5 655.8,492.4 701.0,491.3 746.3,492.3 791.5,490.9 836.7,491.7 881.9,459.0 927.1,468.0 972.3,461.0 1017.6,455.9 1062.8,470.8 1108.0,470.3 1108.0,470.3 1062.8,470.8 1017.6,455.9 972.3,461.0 927.1,468.1 881.9,459.1 836.7,491.7 791.5,490.9 746.3,492.3 701.0,491.3 655.8,492.4 610.6,492.5 565.4,493.2 520.2,492.3 475.0,482.3 429.7,482.2 384.5,482.4 339.3,482.5 294.1,482.6 248.9,482.8 203.7,483.7 158.4,415.2 113.2,426.9 68.0,422.8" fill="#6a51a3" fill-opacity="0.9" stroke="#fff" stroke-width="0.4"><title>api_specialize — apiLink</title></polygon>
<polygon points="68.0,399.3 113.2,401.9 158.4,389.1 203.7,458.1 248.9,456.3 294.1,452.7 339.3,453.0 384.5,452.3 429.7,452.4 475.0,451.8 520.2,461.7 565.4,462.6 610.6,456.5 655.8,456.9 701.0,454.3 746.3,455.7 791.5,454.0 836.7,453.7 881.9,109.9 927.1,215.3 972.3,138.5 1017.6,128.1 1062.8,368.5 1108.0,383.3 1108.0,470.3 1062.8,470.8 1017.6,455.9 972.3,461.0 927.1,468.0 881.9,459.0 836.7,491.7 791.5,490.9 746.3,492.3 701.0,491.3 655.8,492.4 610.6,492.5 565.4,493.2 520.2,492.3 475.0,482.3 429.7,482.2 384.5,482.4 339.3,482.5 294.1,482.6 248.9,482.8 203.7,483.7 158.4,415.2 113.2,426.9 68.0,422.8" fill="#fd8d3c" fill-opacity="0.9" stroke="#fff" stroke-width="0.4"><title>api_specialize — apiGetCode</title></polygon>
<polygon points="68.0,398.4 113.2,400.8 158.4,389.0 203.7,457.4 248.9,455.7 294.1,451.1 339.3,451.3 384.5,451.0 429.7,450.9 475.0,449.9 520.2,460.3 565.4,461.0 610.6,454.8 655.8,454.8 701.0,452.7 746.3,453.9 791.5,452.2 836.7,452.0 881.9,108.6 927.1,214.0 972.3,136.1 1017.6,126.4 1062.8,367.0 1108.0,381.4 1108.0,383.3 1062.8,368.5 1017.6,128.1 972.3,138.5 927.1,215.3 881.9,109.9 836.7,453.7 791.5,454.0 746.3,455.7 701.0,454.3 655.8,456.9 610.6,456.5 565.4,462.6 520.2,461.7 475.0,451.8 429.7,452.4 384.5,452.3 339.3,453.0 294.1,452.7 248.9,456.3 203.7,458.1 158.4,389.1 113.2,401.9 68.0,399.3" fill="#969696" fill-opacity="0.9" stroke="#fff" stroke-width="0.4"><title>api_specialize — apiTotal (self)</title></polygon>
<text x="12" y="578" fill="#666" font-weight="600">phase buckets</text>
<rect x="12" y="586" width="12" height="12" fill="#c7e9c0"/>
<text x="28" y="596" fill="#222">apiCreateGlobalSession</text>
<rect x="289" y="586" width="12" height="12" fill="#41ab5d"/>
<text x="305" y="596" fill="#222">apiCreateSession</text>
<rect x="566" y="586" width="12" height="12" fill="#2171b5"/>
<text x="582" y="596" fill="#222">apiLoadModule</text>
<rect x="843" y="586" width="12" height="12" fill="#6baed6"/>
<text x="859" y="596" fill="#222">apiFindEntryPoint</text>
<rect x="12" y="604" width="12" height="12" fill="#9e9ac8"/>
<text x="28" y="614" fill="#222">apiComposite</text>
<rect x="289" y="604" width="12" height="12" fill="#807dba"/>
<text x="305" y="614" fill="#222">apiSpecialize</text>
<rect x="566" y="604" width="12" height="12" fill="#6a51a3"/>
<text x="582" y="614" fill="#222">apiLink</text>
<rect x="843" y="604" width="12" height="12" fill="#fd8d3c"/>
<text x="859" y="614" fill="#222">apiGetCode</text>
<rect x="12" y="622" width="12" height="12" fill="#b5bdc4"/>
<text x="28" y="632" fill="#222">apiReflection</text>
<rect x="289" y="622" width="12" height="12" fill="#969696"/>
<text x="305" y="632" fill="#222">apiTotal (self)</text>
</svg>