<svg xmlns="http://www.w3.org/2000/svg" xmlns:xlink="http://www.w3.org/1999/xlink" width="1132" height="662" viewBox="0 0 1132 662" preserveAspectRatio="xMidYMid meet" font-family="sans-serif" font-size="13">
<rect width="1132" height="662" fill="white"/>
<text x="12" y="30" font-size="20" font-weight="bold">api_reflection — Daily tip-of-tree (last 30 days) (median ms)</text>
<text x="68" y="60" font-size="15" font-weight="600" fill="#1a1a1a">api_reflection<tspan fill="#888" font-weight="400" text-decoration="none">  0.71×</tspan></text>
<line x1="68.0" y1="516.0" x2="1108.0" y2="516.0" stroke="#eee"/>
<text x="64.0" y="519.0" text-anchor="end" fill="#999">0.0</text>
<line x1="68.0" y1="296.0" x2="1108.0" y2="296.0" stroke="#eee"/>
<text x="64.0" y="299.0" text-anchor="end" fill="#999">457</text>
<line x1="68.0" y1="76.0" x2="1108.0" y2="76.0" stroke="#eee"/>
<text x="64.0" y="79.0" text-anchor="end" fill="#999">914</text>
<line x1="68.0" y1="76.0" x2="68.0" y2="516.0" stroke="#333"/>
<line x1="68.0" y1="516.0" x2="1108.0" y2="516.0" stroke="#333"/>
<line x1="68.0" y1="516.0" x2="68.0" y2="519.0" stroke="#999"/>
<text x="68.0" y="531.0" text-anchor="end" fill="#e8731a" transform="rotate(-50 68.0 531.0)">06-25</text>
<line x1="117.5" y1="516.0" x2="117.5" y2="519.0" stroke="#999"/>
<text x="117.5" y="531.0" text-anchor="end" fill="#e8731a" transform="rotate(-50 117.5 531.0)">06-26</text>
<line x1="167.0" y1="516.0" x2="167.0" y2="519.0" stroke="#999"/>
<text x="167.0" y="531.0" text-anchor="end" fill="#e8731a" transform="rotate(-50 167.0 531.0)">06-28</text>
<line x1="216.6" y1="516.0" x2="216.6" y2="519.0" stroke="#999"/>
<text x="216.6" y="531.0" text-anchor="end" fill="#e8731a" transform="rotate(-50 216.6 531.0)">07-01</text>
<line x1="266.1" y1="516.0" x2="266.1" y2="519.0" stroke="#999"/>
<text x="266.1" y="531.0" text-anchor="end" fill="#e8731a" transform="rotate(-50 266.1 531.0)">07-02</text>
<line x1="315.6" y1="516.0" x2="315.6" y2="519.0" stroke="#999"/>
<text x="315.6" y="531.0" text-anchor="end" fill="#e8731a" transform="rotate(-50 315.6 531.0)">07-03</text>
<line x1="365.1" y1="516.0" x2="365.1" y2="519.0" stroke="#999"/>
<text x="365.1" y="531.0" text-anchor="end" fill="#e8731a" transform="rotate(-50 365.1 531.0)">07-06</text>
<line x1="414.7" y1="516.0" x2="414.7" y2="519.0" stroke="#999"/>
<text x="414.7" y="531.0" text-anchor="end" fill="#e8731a" transform="rotate(-50 414.7 531.0)">07-07</text>
<line x1="464.2" y1="516.0" x2="464.2" y2="519.0" stroke="#999"/>
<text x="464.2" y="531.0" text-anchor="end" fill="#e8731a" transform="rotate(-50 464.2 531.0)">07-08</text>
<line x1="513.7" y1="516.0" x2="513.7" y2="519.0" stroke="#999"/>
<text x="513.7" y="531.0" text-anchor="end" fill="#e8731a" transform="rotate(-50 513.7 531.0)">07-09</text>
<line x1="563.2" y1="516.0" x2="563.2" y2="519.0" stroke="#999"/>
<text x="563.2" y="531.0" text-anchor="end" fill="#e8731a" transform="rotate(-50 563.2 531.0)">07-10</text>
<line x1="612.8" y1="516.0" x2="612.8" y2="519.0" stroke="#999"/>
<text x="612.8" y="531.0" text-anchor="end" fill="#e8731a" transform="rotate(-50 612.8 531.0)">07-11</text>
<line x1="662.3" y1="516.0" x2="662.3" y2="519.0" stroke="#999"/>
<text x="662.3" y="531.0" text-anchor="end" fill="#e8731a" transform="rotate(-50 662.3 531.0)">07-14</text>
<line x1="711.8" y1="516.0" x2="711.8" y2="519.0" stroke="#999"/>
<text x="711.8" y="531.0" text-anchor="end" fill="#e8731a" transform="rotate(-50 711.8 531.0)">07-15</text>
<line x1="761.3" y1="516.0" x2="761.3" y2="519.0" stroke="#999"/>
<text x="761.3" y="531.0" text-anchor="end" fill="#e8731a" transform="rotate(-50 761.3 531.0)">07-15</text>
<line x1="810.9" y1="516.0" x2="810.9" y2="519.0" stroke="#999"/>
<text x="810.9" y="531.0" text-anchor="end" fill="#e8731a" transform="rotate(-50 810.9 531.0)">07-16</text>
<line x1="860.4" y1="516.0" x2="860.4" y2="519.0" stroke="#999"/>
<text x="860.4" y="531.0" text-anchor="end" fill="#e8731a" transform="rotate(-50 860.4 531.0)">07-17</text>
<line x1="909.9" y1="516.0" x2="909.9" y2="519.0" stroke="#999"/>
<text x="909.9" y="531.0" text-anchor="end" fill="#e8731a" transform="rotate(-50 909.9 531.0)">07-18</text>
<line x1="959.4" y1="516.0" x2="959.4" y2="519.0" stroke="#999"/>
<text x="959.4" y="531.0" text-anchor="end" fill="#e8731a" transform="rotate(-50 959.4 531.0)">07-19</text>
<line x1="1009.0" y1="516.0" x2="1009.0" y2="519.0" stroke="#999"/>
<text x="1009.0" y="531.0" text-anchor="end" fill="#e8731a" transform="rotate(-50 1009.0 531.0)">07-20</text>
<line x1="1058.5" y1="516.0" x2="1058.5" y2="519.0" stroke="#999"/>
<text x="1058.5" y="531.0" text-anchor="end" fill="#e8731a" transform="rotate(-50 1058.5 531.0)">07-21</text>
<line x1="1108.0" y1="516.0" x2="1108.0" y2="519.0" stroke="#999"/>
<text x="1108.0" y="531.0" text-anchor="end" fill="#e8731a" transform="rotate(-50 1108.0 531.0)">07-22</text>
<polygon points="68.0,461.9 117.5,460.0 167.0,459.5 216.6,460.8 266.1,459.5 315.6,460.2 365.1,460.3 414.7,461.8 464.2,460.6 513.7,461.5 563.2,461.6 612.8,461.3 662.3,460.2 711.8,462.6 761.3,463.8 810.9,463.5 860.4,461.8 909.9,468.4 959.4,468.5 1009.0,469.0 1058.5,469.1 1108.0,468.2 1108.0,516.0 1058.5,516.0 1009.0,516.0 959.4,516.0 909.9,516.0 860.4,516.0 810.9,516.0 761.3,516.0 711.8,516.0 662.3,516.0 612.8,516.0 563.2,516.0 513.7,516.0 464.2,516.0 414.7,516.0 365.1,516.0 315.6,516.0 266.1,516.0 216.6,516.0 167.0,516.0 117.5,516.0 68.0,516.0" fill="#c7e9c0" fill-opacity="0.9" stroke="#fff" stroke-width="0.4"><title>api_reflection — apiCreateGlobalSession</title></polygon>
<polygon points="68.0,461.9 117.5,460.0 167.0,459.5 216.6,460.8 266.1,459.5 315.6,460.2 365.1,460.3 414.7,461.7 464.2,460.6 513.7,461.5 563.2,461.6 612.8,461.3 662.3,460.2 711.8,462.6 761.3,463.8 810.9,463.5 860.4,461.8 909.9,468.4 959.4,468.5 1009.0,468.9 1058.5,469.1 1108.0,468.2 1108.0,468.2 1058.5,469.1 1009.0,469.0 959.4,468.5 909.9,468.4 860.4,461.8 810.9,463.5 761.3,463.8 711.8,462.6 662.3,460.2 612.8,461.3 563.2,461.6 513.7,461.5 464.2,460.6 414.7,461.8 365.1,460.3 315.6,460.2 266.1,459.5 216.6,460.8 167.0,459.5 117.5,460.0 68.0,461.9" fill="#41ab5d" fill-opacity="0.9" stroke="#fff" stroke-width="0.4"><title>api_reflection — apiCreateSession</title></polygon>
<polygon points="68.0,344.3 117.5,342.3 167.0,340.8 216.6,344.1 266.1,340.4 315.6,340.0 365.1,341.8 414.7,342.2 464.2,341.6 513.7,342.2 563.2,336.7 612.8,336.3 662.3,336.6 711.8,345.9 761.3,346.9 810.9,325.9 860.4,323.9 909.9,348.7 959.4,349.0 1009.0,349.9 1058.5,348.2 1108.0,348.3 1108.0,468.2 1058.5,469.1 1009.0,468.9 959.4,468.5 909.9,468.4 860.4,461.8 810.9,463.5 761.3,463.8 711.8,462.6 662.3,460.2 612.8,461.3 563.2,461.6 513.7,461.5 464.2,460.6 414.7,461.7 365.1,460.3 315.6,460.2 266.1,459.5 216.6,460.8 167.0,459.5 117.5,460.0 68.0,461.9" fill="#2171b5" fill-opacity="0.9" stroke="#fff" stroke-width="0.4"><title>api_reflection — apiLoadModule</title></polygon>
<polygon points="68.0,344.3 117.5,342.3 167.0,340.8 216.6,344.1 266.1,340.4 315.6,340.0 365.1,341.7 414.7,342.2 464.2,341.6 513.7,342.2 563.2,336.7 612.8,336.3 662.3,336.6 711.8,345.9 761.3,346.9 810.9,325.9 860.4,323.9 909.9,348.7 959.4,349.0 1009.0,349.9 1058.5,348.2 1108.0,348.3 1108.0,348.3 1058.5,348.2 1009.0,349.9 959.4,349.0 909.9,348.7 860.4,323.9 810.9,325.9 761.3,346.9 711.8,345.9 662.3,336.6 612.8,336.3 563.2,336.7 513.7,342.2 464.2,341.6 414.7,342.2 365.1,341.8 315.6,340.0 266.1,340.4 216.6,344.1 167.0,340.8 117.5,342.3 68.0,344.3" fill="#6baed6" fill-opacity="0.9" stroke="#fff" stroke-width="0.4"><title>api_reflection — apiFindEntryPoint</title></polygon>
<polygon points="68.0,344.3 117.5,342.3 167.0,340.8 216.6,344.0 266.1,340.3 315.6,339.9 365.1,341.7 414.7,342.1 464.2,341.5 513.7,342.1 563.2,336.6 612.8,336.2 662.3,336.5 711.8,345.8 761.3,346.8 810.9,325.9 860.4,323.8 909.9,348.7 959.4,349.0 1009.0,349.9 1058.5,348.2 1108.0,348.2 1108.0,348.3 1058.5,348.2 1009.0,349.9 959.4,349.0 909.9,348.7 860.4,323.9 810.9,325.9 761.3,346.9 711.8,345.9 662.3,336.6 612.8,336.3 563.2,336.7 513.7,342.2 464.2,341.6 414.7,342.2 365.1,341.7 315.6,340.0 266.1,340.4 216.6,344.1 167.0,340.8 117.5,342.3 68.0,344.3" fill="#9e9ac8" fill-opacity="0.9" stroke="#fff" stroke-width="0.4"><title>api_reflection — apiComposite</title></polygon>
<polygon points="68.0,344.2 117.5,342.3 167.0,340.8 216.6,344.0 266.1,340.3 315.6,339.9 365.1,341.7 414.7,342.1 464.2,341.5 513.7,342.1 563.2,336.6 612.8,336.2 662.3,336.5 711.8,345.8 761.3,346.8 810.9,325.9 860.4,323.8 909.9,348.7 959.4,349.0 1009.0,349.9 1058.5,348.2 1108.0,348.2 1108.0,348.2 1058.5,348.2 1009.0,349.9 959.4,349.0 909.9,348.7 860.4,323.8 810.9,325.9 761.3,346.8 711.8,345.8 662.3,336.5 612.8,336.2 563.2,336.6 513.7,342.1 464.2,341.5 414.7,342.1 365.1,341.7 315.6,339.9 266.1,340.3 216.6,344.0 167.0,340.8 117.5,342.3 68.0,344.3" fill="#6a51a3" fill-opacity="0.9" stroke="#fff" stroke-width="0.4"><title>api_reflection — apiLink</title></polygon>
<polygon points="68.0,123.3 117.5,119.8 167.0,117.4 216.6,123.6 266.1,115.5 315.6,114.0 365.1,117.1 414.7,200.1 464.2,201.1 513.7,202.2 563.2,198.6 612.8,197.5 662.3,199.5 711.8,224.0 761.3,223.8 810.9,204.1 860.4,201.2 909.9,239.8 959.4,239.4 1009.0,240.6 1058.5,238.0 1108.0,238.6 1108.0,348.2 1058.5,348.2 1009.0,349.9 959.4,349.0 909.9,348.7 860.4,323.8 810.9,325.9 761.3,346.8 711.8,345.8 662.3,336.5 612.8,336.2 563.2,336.6 513.7,342.1 464.2,341.5 414.7,342.1 365.1,341.7 315.6,339.9 266.1,340.3 216.6,344.0 167.0,340.8 117.5,342.3 68.0,344.2" fill="#fd8d3c" fill-opacity="0.9" stroke="#fff" stroke-width="0.4"><title>api_reflection — apiGetCode</title></polygon>
<polygon points="68.0,120.6 117.5,117.1 167.0,114.7 216.6,120.9 266.1,112.8 315.6,111.3 365.1,114.4 414.7,197.4 464.2,198.3 513.7,199.5 563.2,196.0 612.8,194.8 662.3,196.9 711.8,221.4 761.3,221.2 810.9,201.5 860.4,198.6 909.9,237.2 959.4,236.8 1009.0,237.9 1058.5,235.3 1108.0,235.9 1108.0,238.6 1058.5,238.0 1009.0,240.6 959.4,239.4 909.9,239.8 860.4,201.2 810.9,204.1 761.3,223.8 711.8,224.0 662.3,199.5 612.8,197.5 563.2,198.6 513.7,202.2 464.2,201.1 414.7,200.1 365.1,117.1 315.6,114.0 266.1,115.5 216.6,123.6 167.0,117.4 117.5,119.8 68.0,123.3" fill="#b5bdc4" fill-opacity="0.9" stroke="#fff" stroke-width="0.4"><title>api_reflection — apiReflection</title></polygon>
<polygon points="68.0,116.8 117.5,115.0 167.0,112.7 216.6,118.9 266.1,110.6 315.6,108.6 365.1,112.4 414.7,195.8 464.2,195.1 513.7,196.8 563.2,192.7 612.8,192.8 662.3,195.2 711.8,219.1 761.3,218.7 810.9,199.4 860.4,197.0 909.9,235.8 959.4,235.1 1009.0,235.8 1058.5,232.0 1108.0,234.6 1108.0,235.9 1058.5,235.3 1009.0,237.9 959.4,236.8 909.9,237.2 860.4,198.6 810.9,201.5 761.3,221.2 711.8,221.4 662.3,196.9 612.8,194.8 563.2,196.0 513.7,199.5 464.2,198.3 414.7,197.4 365.1,114.4 315.6,111.3 266.1,112.8 216.6,120.9 167.0,114.7 117.5,117.1 68.0,120.6" fill="#969696" fill-opacity="0.9" stroke="#fff" stroke-width="0.4"><title>api_reflection — apiTotal (self)</title></polygon>
<text x="12" y="578" fill="#666" font-weight="600">phase buckets</text>
<rect x="12" y="586" width="12" height="12" fill="#c7e9c0"/>
<text x="28" y="596" fill="#222">apiCreateGlobalSession</text>
<rect x="289" y="586" width="12" height="12" fill="#41ab5d"/>
<text x="305" y="596" fill="#222">apiCreateSession</text>
<rect x="566" y="586" width="12" height="12" fill="#2171b5"/>
<text x="582" y="596" fill="#222">apiLoadModule</text>
<rect x="843" y="586" width="12" height="12" fill="#6baed6"/>
<text x="859" y="596" fill="#222">apiFindEntryPoint</text>
<rect x="12" y="604" width="12" height="12" fill="#9e9ac8"/>
<text x="28" y="614" fill="#222">apiComposite</text>
<rect x="289" y="604" width="12" height="12" fill="#807dba"/>
<text x="305" y="614" fill="#222">apiSpecialize</text>
<rect x="566" y="604" width="12" height="12" fill="#6a51a3"/>
<text x="582" y="614" fill="#222">apiLink</text>
<rect x="843" y="604" width="12" height="12" fill="#fd8d3c"/>
<text x="859" y="614" fill="#222">apiGetCode</text>
<rect x="12" y="622" width="12" height="12" fill="#b5bdc4"/>
<text x="28" y="632" fill="#222">apiReflection</text>
<rect x="289" y="622" width="12" height="12" fill="#969696"/>
<text x="305" y="632" fill="#222">apiTotal (self)</text>
</svg>