<svg xmlns="http://www.w3.org/2000/svg" xmlns:xlink="http://www.w3.org/1999/xlink" width="1132" height="662" viewBox="0 0 1132 662" preserveAspectRatio="xMidYMid meet" font-family="sans-serif" font-size="13">
<rect width="1132" height="662" fill="white"/>
<text x="12" y="30" font-size="20" font-weight="bold">api_many_kernels — full phase breakdown across releases (median ms)</text>
<text x="68" y="60" font-size="15" font-weight="600" fill="#1a1a1a">api_many_kernels<tspan fill="#888" font-weight="400" text-decoration="none">  1.32×</tspan></text>
<line x1="68.0" y1="516.0" x2="1108.0" y2="516.0" stroke="#eee"/>
<text x="64.0" y="519.0" text-anchor="end" fill="#999">0.0</text>
<line x1="68.0" y1="296.0" x2="1108.0" y2="296.0" stroke="#eee"/>
<text x="64.0" y="299.0" text-anchor="end" fill="#999">1445</text>
<line x1="68.0" y1="76.0" x2="1108.0" y2="76.0" stroke="#eee"/>
<text x="64.0" y="79.0" text-anchor="end" fill="#999">2890</text>
<line x1="68.0" y1="76.0" x2="68.0" y2="516.0" stroke="#333"/>
<line x1="68.0" y1="516.0" x2="1108.0" y2="516.0" stroke="#333"/>
<line x1="725.6" y1="76.0" x2="725.6" y2="516.0" stroke="#e8731a" stroke-width="1.2" stroke-dasharray="4 3"/>
<text x="728.6" y="87.0" fill="#e8731a" font-size="11">daily →</text>
<line x1="68.0" y1="516.0" x2="68.0" y2="519.0" stroke="#999"/>
<text x="68.0" y="531.0" text-anchor="end" fill="#666" transform="rotate(-50 68.0 531.0)">25.14</text>
<line x1="98.6" y1="516.0" x2="98.6" y2="519.0" stroke="#999"/>
<text x="98.6" y="531.0" text-anchor="end" fill="#666" transform="rotate(-50 98.6 531.0)">25.15</text>
<line x1="129.2" y1="516.0" x2="129.2" y2="519.0" stroke="#999"/>
<text x="129.2" y="531.0" text-anchor="end" fill="#666" transform="rotate(-50 129.2 531.0)">25.16</text>
<line x1="159.8" y1="516.0" x2="159.8" y2="519.0" stroke="#999"/>
<text x="159.8" y="531.0" text-anchor="end" fill="#666" transform="rotate(-50 159.8 531.0)">25.17</text>
<line x1="190.4" y1="516.0" x2="190.4" y2="519.0" stroke="#999"/>
<text x="190.4" y="531.0" text-anchor="end" fill="#666" transform="rotate(-50 190.4 531.0)">25.18</text>
<line x1="220.9" y1="516.0" x2="220.9" y2="519.0" stroke="#999"/>
<text x="220.9" y="531.0" text-anchor="end" fill="#666" transform="rotate(-50 220.9 531.0)">25.19</text>
<line x1="251.5" y1="516.0" x2="251.5" y2="519.0" stroke="#999"/>
<text x="251.5" y="531.0" text-anchor="end" fill="#666" transform="rotate(-50 251.5 531.0)">25.20</text>
<line x1="282.1" y1="516.0" x2="282.1" y2="519.0" stroke="#999"/>
<text x="282.1" y="531.0" text-anchor="end" fill="#666" transform="rotate(-50 282.1 531.0)">25.21</text>
<line x1="312.7" y1="516.0" x2="312.7" y2="519.0" stroke="#999"/>
<text x="312.7" y="531.0" text-anchor="end" fill="#666" transform="rotate(-50 312.7 531.0)">25.22</text>
<line x1="343.3" y1="516.0" x2="343.3" y2="519.0" stroke="#999"/>
<text x="343.3" y="531.0" text-anchor="end" fill="#666" transform="rotate(-50 343.3 531.0)">25.23</text>
<line x1="373.9" y1="516.0" x2="373.9" y2="519.0" stroke="#999"/>
<text x="373.9" y="531.0" text-anchor="end" fill="#666" transform="rotate(-50 373.9 531.0)">25.24</text>
<line x1="404.5" y1="516.0" x2="404.5" y2="519.0" stroke="#999"/>
<text x="404.5" y="531.0" text-anchor="end" fill="#666" transform="rotate(-50 404.5 531.0)">26.1</text>
<line x1="435.1" y1="516.0" x2="435.1" y2="519.0" stroke="#999"/>
<text x="435.1" y="531.0" text-anchor="end" fill="#666" transform="rotate(-50 435.1 531.0)">26.2</text>
<line x1="465.6" y1="516.0" x2="465.6" y2="519.0" stroke="#999"/>
<text x="465.6" y="531.0" text-anchor="end" fill="#666" transform="rotate(-50 465.6 531.0)">26.3</text>
<line x1="496.2" y1="516.0" x2="496.2" y2="519.0" stroke="#999"/>
<text x="496.2" y="531.0" text-anchor="end" fill="#666" transform="rotate(-50 496.2 531.0)">26.4</text>
<line x1="526.8" y1="516.0" x2="526.8" y2="519.0" stroke="#999"/>
<text x="526.8" y="531.0" text-anchor="end" fill="#666" transform="rotate(-50 526.8 531.0)">26.5</text>
<line x1="557.4" y1="516.0" x2="557.4" y2="519.0" stroke="#999"/>
<text x="557.4" y="531.0" text-anchor="end" fill="#666" transform="rotate(-50 557.4 531.0)">26.7</text>
<line x1="588.0" y1="516.0" x2="588.0" y2="519.0" stroke="#999"/>
<text x="588.0" y="531.0" text-anchor="end" fill="#666" transform="rotate(-50 588.0 531.0)">26.8</text>
<line x1="618.6" y1="516.0" x2="618.6" y2="519.0" stroke="#999"/>
<text x="618.6" y="531.0" text-anchor="end" fill="#666" transform="rotate(-50 618.6 531.0)">26.9</text>
<line x1="649.2" y1="516.0" x2="649.2" y2="519.0" stroke="#999"/>
<text x="649.2" y="531.0" text-anchor="end" fill="#666" transform="rotate(-50 649.2 531.0)">26.10</text>
<line x1="679.8" y1="516.0" x2="679.8" y2="519.0" stroke="#999"/>
<text x="679.8" y="531.0" text-anchor="end" fill="#666" transform="rotate(-50 679.8 531.0)">26.11</text>
<line x1="710.4" y1="516.0" x2="710.4" y2="519.0" stroke="#999"/>
<text x="710.4" y="531.0" text-anchor="end" fill="#666" transform="rotate(-50 710.4 531.0)">26.12</text>
<line x1="740.9" y1="516.0" x2="740.9" y2="519.0" stroke="#999"/>
<text x="740.9" y="531.0" text-anchor="end" fill="#e8731a" transform="rotate(-50 740.9 531.0)">06-25</text>
<line x1="771.5" y1="516.0" x2="771.5" y2="519.0" stroke="#999"/>
<text x="771.5" y="531.0" text-anchor="end" fill="#e8731a" transform="rotate(-50 771.5 531.0)">06-26</text>
<line x1="802.1" y1="516.0" x2="802.1" y2="519.0" stroke="#999"/>
<text x="802.1" y="531.0" text-anchor="end" fill="#e8731a" transform="rotate(-50 802.1 531.0)">06-28</text>
<line x1="832.7" y1="516.0" x2="832.7" y2="519.0" stroke="#999"/>
<text x="832.7" y="531.0" text-anchor="end" fill="#e8731a" transform="rotate(-50 832.7 531.0)">07-01</text>
<line x1="863.3" y1="516.0" x2="863.3" y2="519.0" stroke="#999"/>
<text x="863.3" y="531.0" text-anchor="end" fill="#e8731a" transform="rotate(-50 863.3 531.0)">07-02</text>
<line x1="893.9" y1="516.0" x2="893.9" y2="519.0" stroke="#999"/>
<text x="893.9" y="531.0" text-anchor="end" fill="#e8731a" transform="rotate(-50 893.9 531.0)">07-03</text>
<line x1="924.5" y1="516.0" x2="924.5" y2="519.0" stroke="#999"/>
<text x="924.5" y="531.0" text-anchor="end" fill="#e8731a" transform="rotate(-50 924.5 531.0)">07-06</text>
<line x1="955.1" y1="516.0" x2="955.1" y2="519.0" stroke="#999"/>
<text x="955.1" y="531.0" text-anchor="end" fill="#e8731a" transform="rotate(-50 955.1 531.0)">07-07</text>
<line x1="985.6" y1="516.0" x2="985.6" y2="519.0" stroke="#999"/>
<text x="985.6" y="531.0" text-anchor="end" fill="#e8731a" transform="rotate(-50 985.6 531.0)">07-08</text>
<line x1="1016.2" y1="516.0" x2="1016.2" y2="519.0" stroke="#999"/>
<text x="1016.2" y="531.0" text-anchor="end" fill="#e8731a" transform="rotate(-50 1016.2 531.0)">07-09</text>
<line x1="1046.8" y1="516.0" x2="1046.8" y2="519.0" stroke="#999"/>
<text x="1046.8" y="531.0" text-anchor="end" fill="#e8731a" transform="rotate(-50 1046.8 531.0)">07-10</text>
<line x1="1077.4" y1="516.0" x2="1077.4" y2="519.0" stroke="#999"/>
<text x="1077.4" y="531.0" text-anchor="end" fill="#e8731a" transform="rotate(-50 1077.4 531.0)">07-11</text>
<line x1="1108.0" y1="516.0" x2="1108.0" y2="519.0" stroke="#999"/>
<text x="1108.0" y="531.0" text-anchor="end" fill="#e8731a" transform="rotate(-50 1108.0 531.0)">07-14</text>
<polygon points="68.0,478.4 98.6,505.8 129.2,505.9 159.8,503.7 190.4,504.7 220.9,504.6 251.5,505.2 282.1,505.6 312.7,509.4 343.3,509.4 373.9,509.7 404.5,509.7 435.1,509.5 465.6,509.3 496.2,509.2 526.8,509.2 557.4,500.4 588.0,499.8 618.6,495.7 649.2,495.8 679.8,500.6 710.4,499.2 740.9,498.5 771.5,498.4 802.1,497.9 832.7,498.7 863.3,498.5 893.9,498.5 924.5,498.3 955.1,498.8 985.6,498.7 1016.2,498.7 1046.8,498.9 1077.4,499.1 1108.0,498.7 1108.0,516.0 1077.4,516.0 1046.8,516.0 1016.2,516.0 985.6,516.0 955.1,516.0 924.5,516.0 893.9,516.0 863.3,516.0 832.7,516.0 802.1,516.0 771.5,516.0 740.9,516.0 710.4,516.0 679.8,516.0 649.2,516.0 618.6,516.0 588.0,516.0 557.4,516.0 526.8,516.0 496.2,516.0 465.6,516.0 435.1,516.0 404.5,516.0 373.9,516.0 343.3,516.0 312.7,516.0 282.1,516.0 251.5,516.0 220.9,516.0 190.4,516.0 159.8,516.0 129.2,516.0 98.6,516.0 68.0,516.0" fill="#c7e9c0" fill-opacity="0.9" stroke="#fff" stroke-width="0.4"><title>api_many_kernels — apiCreateGlobalSession</title></polygon>
<polygon points="68.0,478.4 98.6,505.8 129.2,505.9 159.8,503.7 190.4,504.7 220.9,504.6 251.5,505.2 282.1,505.6 312.7,509.4 343.3,509.4 373.9,509.6 404.5,509.7 435.1,509.5 465.6,509.3 496.2,509.2 526.8,509.2 557.4,500.4 588.0,499.8 618.6,495.7 649.2,495.8 679.8,500.6 710.4,499.2 740.9,498.5 771.5,498.4 802.1,497.9 832.7,498.7 863.3,498.5 893.9,498.5 924.5,498.3 955.1,498.8 985.6,498.7 1016.2,498.7 1046.8,498.9 1077.4,499.1 1108.0,498.7 1108.0,498.7 1077.4,499.1 1046.8,498.9 1016.2,498.7 985.6,498.7 955.1,498.8 924.5,498.3 893.9,498.5 863.3,498.5 832.7,498.7 802.1,497.9 771.5,498.4 740.9,498.5 710.4,499.2 679.8,500.6 649.2,495.8 618.6,495.7 588.0,499.8 557.4,500.4 526.8,509.2 496.2,509.2 465.6,509.3 435.1,509.5 404.5,509.7 373.9,509.7 343.3,509.4 312.7,509.4 282.1,505.6 251.5,505.2 220.9,504.6 190.4,504.7 159.8,503.7 129.2,505.9 98.6,505.8 68.0,478.4" fill="#41ab5d" fill-opacity="0.9" stroke="#fff" stroke-width="0.4"><title>api_many_kernels — apiCreateSession</title></polygon>
<polygon points="68.0,448.4 98.6,474.3 129.2,474.7 159.8,465.0 190.4,469.8 220.9,469.7 251.5,470.0 282.1,472.3 312.7,475.8 343.3,475.5 373.9,476.0 404.5,473.9 435.1,472.3 465.6,471.6 496.2,471.2 526.8,471.6 557.4,448.3 588.0,446.5 618.6,430.1 649.2,436.7 679.8,452.0 710.4,449.9 740.9,446.5 771.5,446.6 802.1,446.3 832.7,447.0 863.3,445.3 893.9,444.8 924.5,445.0 955.1,444.8 985.6,444.6 1016.2,444.8 1046.8,444.9 1077.4,445.4 1108.0,445.5 1108.0,498.7 1077.4,499.1 1046.8,498.9 1016.2,498.7 985.6,498.7 955.1,498.8 924.5,498.3 893.9,498.5 863.3,498.5 832.7,498.7 802.1,497.9 771.5,498.4 740.9,498.5 710.4,499.2 679.8,500.6 649.2,495.8 618.6,495.7 588.0,499.8 557.4,500.4 526.8,509.2 496.2,509.2 465.6,509.3 435.1,509.5 404.5,509.7 373.9,509.6 343.3,509.4 312.7,509.4 282.1,505.6 251.5,505.2 220.9,504.6 190.4,504.7 159.8,503.7 129.2,505.9 98.6,505.8 68.0,478.4" fill="#2171b5" fill-opacity="0.9" stroke="#fff" stroke-width="0.4"><title>api_many_kernels — apiLoadModule</title></polygon>
<polygon points="68.0,448.4 98.6,474.3 129.2,474.7 159.8,465.0 190.4,469.7 220.9,469.7 251.5,470.0 282.1,472.3 312.7,475.8 343.3,475.5 373.9,476.0 404.5,473.9 435.1,472.3 465.6,471.6 496.2,471.2 526.8,471.6 557.4,448.3 588.0,446.5 618.6,430.1 649.2,436.7 679.8,452.0 710.4,449.9 740.9,446.5 771.5,446.5 802.1,446.3 832.7,447.0 863.3,445.3 893.9,444.8 924.5,445.0 955.1,444.8 985.6,444.6 1016.2,444.8 1046.8,444.9 1077.4,445.4 1108.0,445.5 1108.0,445.5 1077.4,445.4 1046.8,444.9 1016.2,444.8 985.6,444.6 955.1,444.8 924.5,445.0 893.9,444.8 863.3,445.3 832.7,447.0 802.1,446.3 771.5,446.6 740.9,446.5 710.4,449.9 679.8,452.0 649.2,436.7 618.6,430.1 588.0,446.5 557.4,448.3 526.8,471.6 496.2,471.2 465.6,471.6 435.1,472.3 404.5,473.9 373.9,476.0 343.3,475.5 312.7,475.8 282.1,472.3 251.5,470.0 220.9,469.7 190.4,469.8 159.8,465.0 129.2,474.7 98.6,474.3 68.0,448.4" fill="#6baed6" fill-opacity="0.9" stroke="#fff" stroke-width="0.4"><title>api_many_kernels — apiFindEntryPoint</title></polygon>
<polygon points="68.0,448.3 98.6,474.3 129.2,474.7 159.8,464.9 190.4,469.7 220.9,469.7 251.5,470.0 282.1,472.2 312.7,475.8 343.3,475.4 373.9,475.9 404.5,473.8 435.1,472.2 465.6,471.5 496.2,471.1 526.8,471.6 557.4,448.3 588.0,446.5 618.6,430.0 649.2,436.7 679.8,451.9 710.4,449.8 740.9,446.4 771.5,446.5 802.1,446.3 832.7,447.0 863.3,445.2 893.9,444.8 924.5,445.0 955.1,444.7 985.6,444.5 1016.2,444.8 1046.8,444.9 1077.4,445.3 1108.0,445.5 1108.0,445.5 1077.4,445.4 1046.8,444.9 1016.2,444.8 985.6,444.6 955.1,444.8 924.5,445.0 893.9,444.8 863.3,445.3 832.7,447.0 802.1,446.3 771.5,446.5 740.9,446.5 710.4,449.9 679.8,452.0 649.2,436.7 618.6,430.1 588.0,446.5 557.4,448.3 526.8,471.6 496.2,471.2 465.6,471.6 435.1,472.3 404.5,473.9 373.9,476.0 343.3,475.5 312.7,475.8 282.1,472.3 251.5,470.0 220.9,469.7 190.4,469.7 159.8,465.0 129.2,474.7 98.6,474.3 68.0,448.4" fill="#9e9ac8" fill-opacity="0.9" stroke="#fff" stroke-width="0.4"><title>api_many_kernels — apiComposite</title></polygon>
<polygon points="68.0,448.3 98.6,474.3 129.2,474.7 159.8,464.9 190.4,469.7 220.9,469.7 251.5,470.0 282.1,472.2 312.7,475.8 343.3,475.4 373.9,475.9 404.5,473.8 435.1,472.2 465.6,471.5 496.2,471.1 526.8,471.6 557.4,448.2 588.0,446.5 618.6,430.0 649.2,436.7 679.8,451.9 710.4,449.8 740.9,446.4 771.5,446.5 802.1,446.3 832.7,447.0 863.3,445.2 893.9,444.8 924.5,445.0 955.1,444.7 985.6,444.5 1016.2,444.8 1046.8,444.9 1077.4,445.3 1108.0,445.5 1108.0,445.5 1077.4,445.3 1046.8,444.9 1016.2,444.8 985.6,444.5 955.1,444.7 924.5,445.0 893.9,444.8 863.3,445.2 832.7,447.0 802.1,446.3 771.5,446.5 740.9,446.4 710.4,449.8 679.8,451.9 649.2,436.7 618.6,430.0 588.0,446.5 557.4,448.3 526.8,471.6 496.2,471.1 465.6,471.5 435.1,472.2 404.5,473.8 373.9,475.9 343.3,475.4 312.7,475.8 282.1,472.2 251.5,470.0 220.9,469.7 190.4,469.7 159.8,464.9 129.2,474.7 98.6,474.3 68.0,448.3" fill="#6a51a3" fill-opacity="0.9" stroke="#fff" stroke-width="0.4"><title>api_many_kernels — apiLink</title></polygon>
<polygon points="68.0,427.0 98.6,453.0 129.2,453.6 159.8,436.2 190.4,444.3 220.9,443.8 251.5,445.0 282.1,446.9 312.7,450.4 343.3,450.1 373.9,446.3 404.5,444.1 435.1,441.1 465.6,440.5 496.2,439.5 526.8,440.3 557.4,260.2 588.0,240.6 618.6,110.1 649.2,194.2 679.8,370.5 710.4,379.1 740.9,368.0 771.5,368.0 802.1,368.9 832.7,369.3 863.3,365.9 893.9,366.2 924.5,365.9 955.1,397.7 985.6,397.8 1016.2,398.1 1046.8,398.0 1077.4,399.2 1108.0,399.4 1108.0,445.5 1077.4,445.3 1046.8,444.9 1016.2,444.8 985.6,444.5 955.1,444.7 924.5,445.0 893.9,444.8 863.3,445.2 832.7,447.0 802.1,446.3 771.5,446.5 740.9,446.4 710.4,449.8 679.8,451.9 649.2,436.7 618.6,430.0 588.0,446.5 557.4,448.2 526.8,471.6 496.2,471.1 465.6,471.5 435.1,472.2 404.5,473.8 373.9,475.9 343.3,475.4 312.7,475.8 282.1,472.2 251.5,470.0 220.9,469.7 190.4,469.7 159.8,464.9 129.2,474.7 98.6,474.3 68.0,448.3" fill="#fd8d3c" fill-opacity="0.9" stroke="#fff" stroke-width="0.4"><title>api_many_kernels — apiGetCode</title></polygon>
<polygon points="68.0,426.2 98.6,451.9 129.2,452.6 159.8,434.8 190.4,442.6 220.9,442.0 251.5,443.4 282.1,445.2 312.7,449.1 343.3,448.6 373.9,444.7 404.5,442.4 435.1,439.2 465.6,438.8 496.2,438.0 526.8,438.3 557.4,258.9 588.0,239.0 618.6,108.6 649.2,194.2 679.8,368.9 710.4,377.7 740.9,366.7 771.5,366.9 802.1,367.3 832.7,367.7 863.3,364.6 893.9,364.7 924.5,363.7 955.1,396.1 985.6,396.1 1016.2,396.7 1046.8,396.7 1077.4,397.2 1108.0,397.8 1108.0,399.4 1077.4,399.2 1046.8,398.0 1016.2,398.1 985.6,397.8 955.1,397.7 924.5,365.9 893.9,366.2 863.3,365.9 832.7,369.3 802.1,368.9 771.5,368.0 740.9,368.0 710.4,379.1 679.8,370.5 649.2,194.2 618.6,110.1 588.0,240.6 557.4,260.2 526.8,440.3 496.2,439.5 465.6,440.5 435.1,441.1 404.5,444.1 373.9,446.3 343.3,450.1 312.7,450.4 282.1,446.9 251.5,445.0 220.9,443.8 190.4,444.3 159.8,436.2 129.2,453.6 98.6,453.0 68.0,427.0" fill="#969696" fill-opacity="0.9" stroke="#fff" stroke-width="0.4"><title>api_many_kernels — apiTotal (self)</title></polygon>
<text x="12" y="578" fill="#666" font-weight="600">phase buckets</text>
<rect x="12" y="586" width="12" height="12" fill="#c7e9c0"/>
<text x="28" y="596" fill="#222">apiCreateGlobalSession</text>
<rect x="289" y="586" width="12" height="12" fill="#41ab5d"/>
<text x="305" y="596" fill="#222">apiCreateSession</text>
<rect x="566" y="586" width="12" height="12" fill="#2171b5"/>
<text x="582" y="596" fill="#222">apiLoadModule</text>
<rect x="843" y="586" width="12" height="12" fill="#6baed6"/>
<text x="859" y="596" fill="#222">apiFindEntryPoint</text>
<rect x="12" y="604" width="12" height="12" fill="#9e9ac8"/>
<text x="28" y="614" fill="#222">apiComposite</text>
<rect x="289" y="604" width="12" height="12" fill="#807dba"/>
<text x="305" y="614" fill="#222">apiSpecialize</text>
<rect x="566" y="604" width="12" height="12" fill="#6a51a3"/>
<text x="582" y="614" fill="#222">apiLink</text>
<rect x="843" y="604" width="12" height="12" fill="#fd8d3c"/>
<text x="859" y="614" fill="#222">apiGetCode</text>
<rect x="12" y="622" width="12" height="12" fill="#b5bdc4"/>
<text x="28" y="632" fill="#222">apiReflection</text>
<rect x="289" y="622" width="12" height="12" fill="#969696"/>
<text x="305" y="632" fill="#222">apiTotal (self)</text>
</svg>