<svg xmlns="http://www.w3.org/2000/svg" xmlns:xlink="http://www.w3.org/1999/xlink" width="1132" height="662" viewBox="0 0 1132 662" preserveAspectRatio="xMidYMid meet" font-family="sans-serif" font-size="13">
<rect width="1132" height="662" fill="white"/>
<text x="12" y="30" font-size="20" font-weight="bold">api_session_create — Daily tip-of-tree (last 30 days) (median ms)</text>
<text x="68" y="60" font-size="15" font-weight="600" fill="#1a1a1a">api_session_create<tspan fill="#888" font-weight="400" text-decoration="none">  0.65×</tspan></text>
<line x1="68.0" y1="516.0" x2="1108.0" y2="516.0" stroke="#eee"/>
<text x="64.0" y="519.0" text-anchor="end" fill="#999">0.0</text>
<line x1="68.0" y1="296.0" x2="1108.0" y2="296.0" stroke="#eee"/>
<text x="64.0" y="299.0" text-anchor="end" fill="#999">712</text>
<line x1="68.0" y1="76.0" x2="1108.0" y2="76.0" stroke="#eee"/>
<text x="64.0" y="79.0" text-anchor="end" fill="#999">1424</text>
<line x1="68.0" y1="76.0" x2="68.0" y2="516.0" stroke="#333"/>
<line x1="68.0" y1="516.0" x2="1108.0" y2="516.0" stroke="#333"/>
<line x1="68.0" y1="516.0" x2="68.0" y2="519.0" stroke="#999"/>
<text x="68.0" y="531.0" text-anchor="end" fill="#e8731a" transform="rotate(-50 68.0 531.0)">06-25</text>
<line x1="113.2" y1="516.0" x2="113.2" y2="519.0" stroke="#999"/>
<text x="113.2" y="531.0" text-anchor="end" fill="#e8731a" transform="rotate(-50 113.2 531.0)">06-26</text>
<line x1="158.4" y1="516.0" x2="158.4" y2="519.0" stroke="#999"/>
<text x="158.4" y="531.0" text-anchor="end" fill="#e8731a" transform="rotate(-50 158.4 531.0)">06-28</text>
<line x1="203.7" y1="516.0" x2="203.7" y2="519.0" stroke="#999"/>
<text x="203.7" y="531.0" text-anchor="end" fill="#e8731a" transform="rotate(-50 203.7 531.0)">07-01</text>
<line x1="248.9" y1="516.0" x2="248.9" y2="519.0" stroke="#999"/>
<text x="248.9" y="531.0" text-anchor="end" fill="#e8731a" transform="rotate(-50 248.9 531.0)">07-02</text>
<line x1="294.1" y1="516.0" x2="294.1" y2="519.0" stroke="#999"/>
<text x="294.1" y="531.0" text-anchor="end" fill="#e8731a" transform="rotate(-50 294.1 531.0)">07-03</text>
<line x1="339.3" y1="516.0" x2="339.3" y2="519.0" stroke="#999"/>
<text x="339.3" y="531.0" text-anchor="end" fill="#e8731a" transform="rotate(-50 339.3 531.0)">07-06</text>
<line x1="384.5" y1="516.0" x2="384.5" y2="519.0" stroke="#999"/>
<text x="384.5" y="531.0" text-anchor="end" fill="#e8731a" transform="rotate(-50 384.5 531.0)">07-07</text>
<line x1="429.7" y1="516.0" x2="429.7" y2="519.0" stroke="#999"/>
<text x="429.7" y="531.0" text-anchor="end" fill="#e8731a" transform="rotate(-50 429.7 531.0)">07-08</text>
<line x1="475.0" y1="516.0" x2="475.0" y2="519.0" stroke="#999"/>
<text x="475.0" y="531.0" text-anchor="end" fill="#e8731a" transform="rotate(-50 475.0 531.0)">07-09</text>
<line x1="520.2" y1="516.0" x2="520.2" y2="519.0" stroke="#999"/>
<text x="520.2" y="531.0" text-anchor="end" fill="#e8731a" transform="rotate(-50 520.2 531.0)">07-10</text>
<line x1="565.4" y1="516.0" x2="565.4" y2="519.0" stroke="#999"/>
<text x="565.4" y="531.0" text-anchor="end" fill="#e8731a" transform="rotate(-50 565.4 531.0)">07-11</text>
<line x1="610.6" y1="516.0" x2="610.6" y2="519.0" stroke="#999"/>
<text x="610.6" y="531.0" text-anchor="end" fill="#e8731a" transform="rotate(-50 610.6 531.0)">07-14</text>
<line x1="655.8" y1="516.0" x2="655.8" y2="519.0" stroke="#999"/>
<text x="655.8" y="531.0" text-anchor="end" fill="#e8731a" transform="rotate(-50 655.8 531.0)">07-15</text>
<line x1="701.0" y1="516.0" x2="701.0" y2="519.0" stroke="#999"/>
<text x="701.0" y="531.0" text-anchor="end" fill="#e8731a" transform="rotate(-50 701.0 531.0)">07-15</text>
<line x1="746.3" y1="516.0" x2="746.3" y2="519.0" stroke="#999"/>
<text x="746.3" y="531.0" text-anchor="end" fill="#e8731a" transform="rotate(-50 746.3 531.0)">07-16</text>
<line x1="791.5" y1="516.0" x2="791.5" y2="519.0" stroke="#999"/>
<text x="791.5" y="531.0" text-anchor="end" fill="#e8731a" transform="rotate(-50 791.5 531.0)">07-17</text>
<line x1="836.7" y1="516.0" x2="836.7" y2="519.0" stroke="#999"/>
<text x="836.7" y="531.0" text-anchor="end" fill="#e8731a" transform="rotate(-50 836.7 531.0)">07-18</text>
<line x1="881.9" y1="516.0" x2="881.9" y2="519.0" stroke="#999"/>
<text x="881.9" y="531.0" text-anchor="end" fill="#e8731a" transform="rotate(-50 881.9 531.0)">07-19</text>
<line x1="927.1" y1="516.0" x2="927.1" y2="519.0" stroke="#999"/>
<text x="927.1" y="531.0" text-anchor="end" fill="#e8731a" transform="rotate(-50 927.1 531.0)">07-20</text>
<line x1="972.3" y1="516.0" x2="972.3" y2="519.0" stroke="#999"/>
<text x="972.3" y="531.0" text-anchor="end" fill="#e8731a" transform="rotate(-50 972.3 531.0)">07-21</text>
<line x1="1017.6" y1="516.0" x2="1017.6" y2="519.0" stroke="#999"/>
<text x="1017.6" y="531.0" text-anchor="end" fill="#e8731a" transform="rotate(-50 1017.6 531.0)">07-22</text>
<line x1="1062.8" y1="516.0" x2="1062.8" y2="519.0" stroke="#999"/>
<text x="1062.8" y="531.0" text-anchor="end" fill="#e8731a" transform="rotate(-50 1062.8 531.0)">07-23</text>
<line x1="1108.0" y1="516.0" x2="1108.0" y2="519.0" stroke="#999"/>
<text x="1108.0" y="531.0" text-anchor="end" fill="#e8731a" transform="rotate(-50 1108.0 531.0)">07-24</text>
<polygon points="68.0,167.3 113.2,165.0 158.4,157.0 203.7,164.9 248.9,161.2 294.1,163.1 339.3,159.6 384.5,166.2 429.7,160.6 475.0,161.2 520.2,161.2 565.4,164.7 610.6,167.4 655.8,194.0 701.0,194.0 746.3,194.1 791.5,194.2 836.7,262.1 881.9,260.6 927.1,259.5 972.3,260.4 1017.6,257.5 1062.8,261.7 1108.0,264.4 1108.0,516.0 1062.8,516.0 1017.6,516.0 972.3,516.0 927.1,516.0 881.9,516.0 836.7,516.0 791.5,516.0 746.3,516.0 701.0,516.0 655.8,516.0 610.6,516.0 565.4,516.0 520.2,516.0 475.0,516.0 429.7,516.0 384.5,516.0 339.3,516.0 294.1,516.0 248.9,516.0 203.7,516.0 158.4,516.0 113.2,516.0 68.0,516.0" fill="#c7e9c0" fill-opacity="0.9" stroke="#fff" stroke-width="0.4"><title>api_session_create — apiCreateGlobalSession</title></polygon>
<polygon points="68.0,167.2 113.2,164.9 158.4,157.0 203.7,164.9 248.9,161.1 294.1,163.0 339.3,159.6 384.5,166.2 429.7,160.5 475.0,161.1 520.2,161.1 565.4,164.6 610.6,167.4 655.8,194.0 701.0,193.9 746.3,194.0 791.5,194.1 836.7,262.1 881.9,260.5 927.1,259.4 972.3,260.4 1017.6,257.5 1062.8,261.7 1108.0,264.4 1108.0,264.4 1062.8,261.7 1017.6,257.5 972.3,260.4 927.1,259.5 881.9,260.6 836.7,262.1 791.5,194.2 746.3,194.1 701.0,194.0 655.8,194.0 610.6,167.4 565.4,164.7 520.2,161.2 475.0,161.2 429.7,160.6 384.5,166.2 339.3,159.6 294.1,163.1 248.9,161.2 203.7,164.9 158.4,157.0 113.2,165.0 68.0,167.3" fill="#41ab5d" fill-opacity="0.9" stroke="#fff" stroke-width="0.4"><title>api_session_create — apiCreateSession</title></polygon>
<polygon points="68.0,118.2 113.2,116.2 158.4,108.9 203.7,115.7 248.9,111.5 294.1,114.8 339.3,111.3 384.5,117.4 429.7,109.5 475.0,108.6 520.2,112.4 565.4,116.7 610.6,119.1 655.8,161.5 701.0,162.4 746.3,160.8 791.5,163.8 836.7,253.7 881.9,251.9 927.1,251.4 972.3,252.5 1017.6,249.5 1062.8,253.4 1108.0,256.3 1108.0,264.4 1062.8,261.7 1017.6,257.5 972.3,260.4 927.1,259.4 881.9,260.5 836.7,262.1 791.5,194.1 746.3,194.0 701.0,193.9 655.8,194.0 610.6,167.4 565.4,164.6 520.2,161.1 475.0,161.1 429.7,160.5 384.5,166.2 339.3,159.6 294.1,163.0 248.9,161.1 203.7,164.9 158.4,157.0 113.2,164.9 68.0,167.2" fill="#969696" fill-opacity="0.9" stroke="#fff" stroke-width="0.4"><title>api_session_create — apiTotal (self)</title></polygon>
<text x="12" y="578" fill="#666" font-weight="600">phase buckets</text>
<rect x="12" y="586" width="12" height="12" fill="#c7e9c0"/>
<text x="28" y="596" fill="#222">apiCreateGlobalSession</text>
<rect x="289" y="586" width="12" height="12" fill="#41ab5d"/>
<text x="305" y="596" fill="#222">apiCreateSession</text>
<rect x="566" y="586" width="12" height="12" fill="#2171b5"/>
<text x="582" y="596" fill="#222">apiLoadModule</text>
<rect x="843" y="586" width="12" height="12" fill="#6baed6"/>
<text x="859" y="596" fill="#222">apiFindEntryPoint</text>
<rect x="12" y="604" width="12" height="12" fill="#9e9ac8"/>
<text x="28" y="614" fill="#222">apiComposite</text>
<rect x="289" y="604" width="12" height="12" fill="#807dba"/>
<text x="305" y="614" fill="#222">apiSpecialize</text>
<rect x="566" y="604" width="12" height="12" fill="#6a51a3"/>
<text x="582" y="614" fill="#222">apiLink</text>
<rect x="843" y="604" width="12" height="12" fill="#fd8d3c"/>
<text x="859" y="614" fill="#222">apiGetCode</text>
<rect x="12" y="622" width="12" height="12" fill="#b5bdc4"/>
<text x="28" y="632" fill="#222">apiReflection</text>
<rect x="289" y="622" width="12" height="12" fill="#969696"/>
<text x="305" y="632" fill="#222">apiTotal (self)</text>
</svg>