<svg xmlns="http://www.w3.org/2000/svg" xmlns:xlink="http://www.w3.org/1999/xlink" width="1132" height="662" viewBox="0 0 1132 662" preserveAspectRatio="xMidYMid meet" font-family="sans-serif" font-size="13">
<rect width="1132" height="662" fill="white"/>
<text x="12" y="30" font-size="20" font-weight="bold">api_specialize — Across releases (median ms)</text>
<text x="68" y="60" font-size="15" font-weight="600" fill="#1a1a1a">api_specialize<tspan fill="#888" font-weight="400" text-decoration="none">  0.86×</tspan></text>
<line x1="68.0" y1="516.0" x2="1108.0" y2="516.0" stroke="#eee"/>
<text x="64.0" y="519.0" text-anchor="end" fill="#999">0.0</text>
<line x1="68.0" y1="296.0" x2="1108.0" y2="296.0" stroke="#eee"/>
<text x="64.0" y="299.0" text-anchor="end" fill="#999">654</text>
<line x1="68.0" y1="76.0" x2="1108.0" y2="76.0" stroke="#eee"/>
<text x="64.0" y="79.0" text-anchor="end" fill="#999">1308</text>
<line x1="68.0" y1="76.0" x2="68.0" y2="516.0" stroke="#333"/>
<line x1="68.0" y1="516.0" x2="1108.0" y2="516.0" stroke="#333"/>
<line x1="68.0" y1="516.0" x2="68.0" y2="519.0" stroke="#999"/>
<text x="68.0" y="531.0" text-anchor="end" fill="#666" transform="rotate(-50 68.0 531.0)">25.12</text>
<line x1="109.6" y1="516.0" x2="109.6" y2="519.0" stroke="#999"/>
<text x="109.6" y="531.0" text-anchor="end" fill="#666" transform="rotate(-50 109.6 531.0)">25.13</text>
<line x1="151.2" y1="516.0" x2="151.2" y2="519.0" stroke="#999"/>
<text x="151.2" y="531.0" text-anchor="end" fill="#666" transform="rotate(-50 151.2 531.0)">25.14</text>
<line x1="192.8" y1="516.0" x2="192.8" y2="519.0" stroke="#999"/>
<text x="192.8" y="531.0" text-anchor="end" fill="#666" transform="rotate(-50 192.8 531.0)">25.15</text>
<line x1="234.4" y1="516.0" x2="234.4" y2="519.0" stroke="#999"/>
<text x="234.4" y="531.0" text-anchor="end" fill="#666" transform="rotate(-50 234.4 531.0)">25.16</text>
<line x1="276.0" y1="516.0" x2="276.0" y2="519.0" stroke="#999"/>
<text x="276.0" y="531.0" text-anchor="end" fill="#666" transform="rotate(-50 276.0 531.0)">25.17</text>
<line x1="317.6" y1="516.0" x2="317.6" y2="519.0" stroke="#999"/>
<text x="317.6" y="531.0" text-anchor="end" fill="#666" transform="rotate(-50 317.6 531.0)">25.18</text>
<line x1="359.2" y1="516.0" x2="359.2" y2="519.0" stroke="#999"/>
<text x="359.2" y="531.0" text-anchor="end" fill="#666" transform="rotate(-50 359.2 531.0)">25.19</text>
<line x1="400.8" y1="516.0" x2="400.8" y2="519.0" stroke="#999"/>
<text x="400.8" y="531.0" text-anchor="end" fill="#666" transform="rotate(-50 400.8 531.0)">25.20</text>
<line x1="442.4" y1="516.0" x2="442.4" y2="519.0" stroke="#999"/>
<text x="442.4" y="531.0" text-anchor="end" fill="#666" transform="rotate(-50 442.4 531.0)">25.21</text>
<line x1="484.0" y1="516.0" x2="484.0" y2="519.0" stroke="#999"/>
<text x="484.0" y="531.0" text-anchor="end" fill="#666" transform="rotate(-50 484.0 531.0)">25.22</text>
<line x1="525.6" y1="516.0" x2="525.6" y2="519.0" stroke="#999"/>
<text x="525.6" y="531.0" text-anchor="end" fill="#666" transform="rotate(-50 525.6 531.0)">25.23</text>
<line x1="567.2" y1="516.0" x2="567.2" y2="519.0" stroke="#999"/>
<text x="567.2" y="531.0" text-anchor="end" fill="#666" transform="rotate(-50 567.2 531.0)">25.24</text>
<line x1="608.8" y1="516.0" x2="608.8" y2="519.0" stroke="#999"/>
<text x="608.8" y="531.0" text-anchor="end" fill="#666" transform="rotate(-50 608.8 531.0)">26.1</text>
<line x1="650.4" y1="516.0" x2="650.4" y2="519.0" stroke="#999"/>
<text x="650.4" y="531.0" text-anchor="end" fill="#666" transform="rotate(-50 650.4 531.0)">26.2</text>
<line x1="692.0" y1="516.0" x2="692.0" y2="519.0" stroke="#999"/>
<text x="692.0" y="531.0" text-anchor="end" fill="#666" transform="rotate(-50 692.0 531.0)">26.3</text>
<line x1="733.6" y1="516.0" x2="733.6" y2="519.0" stroke="#999"/>
<text x="733.6" y="531.0" text-anchor="end" fill="#666" transform="rotate(-50 733.6 531.0)">26.4</text>
<line x1="775.2" y1="516.0" x2="775.2" y2="519.0" stroke="#999"/>
<text x="775.2" y="531.0" text-anchor="end" fill="#666" transform="rotate(-50 775.2 531.0)">26.5</text>
<line x1="816.8" y1="516.0" x2="816.8" y2="519.0" stroke="#999"/>
<text x="816.8" y="531.0" text-anchor="end" fill="#666" transform="rotate(-50 816.8 531.0)">26.7</text>
<line x1="858.4" y1="516.0" x2="858.4" y2="519.0" stroke="#999"/>
<text x="858.4" y="531.0" text-anchor="end" fill="#666" transform="rotate(-50 858.4 531.0)">26.8</text>
<line x1="900.0" y1="516.0" x2="900.0" y2="519.0" stroke="#999"/>
<text x="900.0" y="531.0" text-anchor="end" fill="#666" transform="rotate(-50 900.0 531.0)">26.9</text>
<line x1="941.6" y1="516.0" x2="941.6" y2="519.0" stroke="#999"/>
<text x="941.6" y="531.0" text-anchor="end" fill="#666" transform="rotate(-50 941.6 531.0)">26.10</text>
<line x1="983.2" y1="516.0" x2="983.2" y2="519.0" stroke="#999"/>
<text x="983.2" y="531.0" text-anchor="end" fill="#666" transform="rotate(-50 983.2 531.0)">26.11</text>
<line x1="1024.8" y1="516.0" x2="1024.8" y2="519.0" stroke="#999"/>
<text x="1024.8" y="531.0" text-anchor="end" fill="#666" transform="rotate(-50 1024.8 531.0)">26.12</text>
<line x1="1066.4" y1="516.0" x2="1066.4" y2="519.0" stroke="#999"/>
<text x="1066.4" y="531.0" text-anchor="end" fill="#666" transform="rotate(-50 1066.4 531.0)">26.13</text>
<line x1="1108.0" y1="516.0" x2="1108.0" y2="519.0" stroke="#999"/>
<text x="1108.0" y="531.0" text-anchor="end" fill="#666" transform="rotate(-50 1108.0 531.0)">26.13.1</text>
<polygon points="68.0,428.0 109.6,432.7 151.2,421.7 192.8,492.6 234.4,492.2 276.0,493.1 317.6,492.8 359.2,492.9 400.8,492.5 442.4,492.6 484.0,501.1 525.6,502.0 567.2,501.3 608.8,501.2 650.4,500.7 692.0,501.6 733.6,500.3 775.2,500.7 816.8,475.0 858.4,480.0 900.0,481.0 941.6,475.6 983.2,475.1 1024.8,479.8 1066.4,475.0 1108.0,480.2 1108.0,516.0 1066.4,516.0 1024.8,516.0 983.2,516.0 941.6,516.0 900.0,516.0 858.4,516.0 816.8,516.0 775.2,516.0 733.6,516.0 692.0,516.0 650.4,516.0 608.8,516.0 567.2,516.0 525.6,516.0 484.0,516.0 442.4,516.0 400.8,516.0 359.2,516.0 317.6,516.0 276.0,516.0 234.4,516.0 192.8,516.0 151.2,516.0 109.6,516.0 68.0,516.0" fill="#c7e9c0" fill-opacity="0.9" stroke="#fff" stroke-width="0.4"><title>api_specialize — apiCreateGlobalSession</title></polygon>
<polygon points="68.0,427.9 109.6,432.6 151.2,421.7 192.8,492.6 234.4,492.2 276.0,493.1 317.6,492.8 359.2,492.9 400.8,492.5 442.4,492.6 484.0,501.1 525.6,502.0 567.2,501.3 608.8,501.2 650.4,500.7 692.0,501.6 733.6,500.2 775.2,500.6 816.8,475.0 858.4,480.0 900.0,481.0 941.6,475.6 983.2,475.1 1024.8,479.7 1066.4,475.0 1108.0,480.2 1108.0,480.2 1066.4,475.0 1024.8,479.8 983.2,475.1 941.6,475.6 900.0,481.0 858.4,480.0 816.8,475.0 775.2,500.7 733.6,500.3 692.0,501.6 650.4,500.7 608.8,501.2 567.2,501.3 525.6,502.0 484.0,501.1 442.4,492.6 400.8,492.5 359.2,492.9 317.6,492.8 276.0,493.1 234.4,492.2 192.8,492.6 151.2,421.7 109.6,432.7 68.0,428.0" fill="#41ab5d" fill-opacity="0.9" stroke="#fff" stroke-width="0.4"><title>api_specialize — apiCreateSession</title></polygon>
<polygon points="68.0,423.8 109.6,427.9 151.2,416.3 192.8,484.8 234.4,483.9 276.0,485.0 317.6,484.9 359.2,484.8 400.8,484.6 442.4,484.7 484.0,494.7 525.6,495.6 567.2,494.9 608.8,494.7 650.4,493.7 692.0,494.6 733.6,493.2 775.2,493.6 816.8,464.0 858.4,470.7 900.0,471.6 941.6,466.1 983.2,469.1 1024.8,474.1 1066.4,468.9 1108.0,474.5 1108.0,480.2 1066.4,475.0 1024.8,479.7 983.2,475.1 941.6,475.6 900.0,481.0 858.4,480.0 816.8,475.0 775.2,500.6 733.6,500.2 692.0,501.6 650.4,500.7 608.8,501.2 567.2,501.3 525.6,502.0 484.0,501.1 442.4,492.6 400.8,492.5 359.2,492.9 317.6,492.8 276.0,493.1 234.4,492.2 192.8,492.6 151.2,421.7 109.6,432.6 68.0,427.9" fill="#2171b5" fill-opacity="0.9" stroke="#fff" stroke-width="0.4"><title>api_specialize — apiLoadModule</title></polygon>
<polygon points="68.0,423.7 109.6,427.9 151.2,416.2 192.8,484.8 234.4,483.9 276.0,485.0 317.6,484.8 359.2,484.7 400.8,484.6 442.4,484.6 484.0,494.7 525.6,495.5 567.2,494.8 608.8,494.7 650.4,493.6 692.0,494.6 733.6,493.1 775.2,493.5 816.8,464.0 858.4,470.6 900.0,471.6 941.6,466.1 983.2,469.0 1024.8,474.0 1066.4,468.9 1108.0,474.4 1108.0,474.5 1066.4,468.9 1024.8,474.1 983.2,469.1 941.6,466.1 900.0,471.6 858.4,470.7 816.8,464.0 775.2,493.6 733.6,493.2 692.0,494.6 650.4,493.7 608.8,494.7 567.2,494.9 525.6,495.6 484.0,494.7 442.4,484.7 400.8,484.6 359.2,484.8 317.6,484.9 276.0,485.0 234.4,483.9 192.8,484.8 151.2,416.3 109.6,427.9 68.0,423.8" fill="#9e9ac8" fill-opacity="0.9" stroke="#fff" stroke-width="0.4"><title>api_specialize — apiComposite</title></polygon>
<polygon points="68.0,422.8 109.6,426.9 151.2,415.2 192.8,483.7 234.4,482.8 276.0,482.6 317.6,482.5 359.2,482.4 400.8,482.2 442.4,482.3 484.0,492.3 525.6,493.2 567.2,492.5 608.8,492.4 650.4,491.3 692.0,492.3 733.6,490.9 775.2,491.1 816.8,459.1 858.4,467.0 900.0,468.0 941.6,462.4 983.2,465.0 1024.8,470.1 1066.4,465.0 1108.0,470.4 1108.0,474.4 1066.4,468.9 1024.8,474.0 983.2,469.0 941.6,466.1 900.0,471.6 858.4,470.6 816.8,464.0 775.2,493.5 733.6,493.1 692.0,494.6 650.4,493.6 608.8,494.7 567.2,494.8 525.6,495.5 484.0,494.7 442.4,484.6 400.8,484.6 359.2,484.7 317.6,484.8 276.0,485.0 234.4,483.9 192.8,484.8 151.2,416.2 109.6,427.9 68.0,423.7" fill="#807dba" fill-opacity="0.9" stroke="#fff" stroke-width="0.4"><title>api_specialize — apiSpecialize</title></polygon>
<polygon points="68.0,422.8 109.6,426.9 151.2,415.2 192.8,483.7 234.4,482.8 276.0,482.6 317.6,482.5 359.2,482.4 400.8,482.2 442.4,482.3 484.0,492.3 525.6,493.2 567.2,492.5 608.8,492.4 650.4,491.3 692.0,492.3 733.6,490.9 775.2,491.1 816.8,459.0 858.4,467.0 900.0,468.0 941.6,462.4 983.2,465.0 1024.8,470.1 1066.4,465.0 1108.0,470.4 1108.0,470.4 1066.4,465.0 1024.8,470.1 983.2,465.0 941.6,462.4 900.0,468.0 858.4,467.0 816.8,459.1 775.2,491.1 733.6,490.9 692.0,492.3 650.4,491.3 608.8,492.4 567.2,492.5 525.6,493.2 484.0,492.3 442.4,482.3 400.8,482.2 359.2,482.4 317.6,482.5 276.0,482.6 234.4,482.8 192.8,483.7 151.2,415.2 109.6,426.9 68.0,422.8" fill="#6a51a3" fill-opacity="0.9" stroke="#fff" stroke-width="0.4"><title>api_specialize — apiLink</title></polygon>
<polygon points="68.0,399.3 109.6,401.9 151.2,389.1 192.8,458.1 234.4,456.3 276.0,452.7 317.6,453.0 359.2,452.3 400.8,452.4 442.4,451.8 484.0,461.7 525.6,462.6 567.2,456.5 608.8,456.9 650.4,454.3 692.0,455.7 733.6,454.0 775.2,453.0 816.8,109.9 858.4,213.9 900.0,214.8 941.6,209.3 983.2,355.3 1024.8,381.6 1066.4,410.7 1108.0,416.9 1108.0,470.4 1066.4,465.0 1024.8,470.1 983.2,465.0 941.6,462.4 900.0,468.0 858.4,467.0 816.8,459.0 775.2,491.1 733.6,490.9 692.0,492.3 650.4,491.3 608.8,492.4 567.2,492.5 525.6,493.2 484.0,492.3 442.4,482.3 400.8,482.2 359.2,482.4 317.6,482.5 276.0,482.6 234.4,482.8 192.8,483.7 151.2,415.2 109.6,426.9 68.0,422.8" fill="#fd8d3c" fill-opacity="0.9" stroke="#fff" stroke-width="0.4"><title>api_specialize — apiGetCode</title></polygon>
<polygon points="68.0,398.4 109.6,400.8 151.2,389.0 192.8,457.4 234.4,455.7 276.0,451.1 317.6,451.3 359.2,451.0 400.8,450.9 442.4,449.9 484.0,460.3 525.6,461.0 567.2,454.8 608.8,454.8 650.4,452.7 692.0,453.9 733.6,452.2 775.2,451.5 816.8,108.6 858.4,212.3 900.0,213.1 941.6,207.8 983.2,353.7 1024.8,379.1 1066.4,409.6 1108.0,415.1 1108.0,416.9 1066.4,410.7 1024.8,381.6 983.2,355.3 941.6,209.3 900.0,214.8 858.4,213.9 816.8,109.9 775.2,453.0 733.6,454.0 692.0,455.7 650.4,454.3 608.8,456.9 567.2,456.5 525.6,462.6 484.0,461.7 442.4,451.8 400.8,452.4 359.2,452.3 317.6,453.0 276.0,452.7 234.4,456.3 192.8,458.1 151.2,389.1 109.6,401.9 68.0,399.3" fill="#969696" fill-opacity="0.9" stroke="#fff" stroke-width="0.4"><title>api_specialize — apiTotal (self)</title></polygon>
<text x="12" y="578" fill="#666" font-weight="600">phase buckets</text>
<rect x="12" y="586" width="12" height="12" fill="#c7e9c0"/>
<text x="28" y="596" fill="#222">apiCreateGlobalSession</text>
<rect x="289" y="586" width="12" height="12" fill="#41ab5d"/>
<text x="305" y="596" fill="#222">apiCreateSession</text>
<rect x="566" y="586" width="12" height="12" fill="#2171b5"/>
<text x="582" y="596" fill="#222">apiLoadModule</text>
<rect x="843" y="586" width="12" height="12" fill="#6baed6"/>
<text x="859" y="596" fill="#222">apiFindEntryPoint</text>
<rect x="12" y="604" width="12" height="12" fill="#9e9ac8"/>
<text x="28" y="614" fill="#222">apiComposite</text>
<rect x="289" y="604" width="12" height="12" fill="#807dba"/>
<text x="305" y="614" fill="#222">apiSpecialize</text>
<rect x="566" y="604" width="12" height="12" fill="#6a51a3"/>
<text x="582" y="614" fill="#222">apiLink</text>
<rect x="843" y="604" width="12" height="12" fill="#fd8d3c"/>
<text x="859" y="614" fill="#222">apiGetCode</text>
<rect x="12" y="622" width="12" height="12" fill="#b5bdc4"/>
<text x="28" y="632" fill="#222">apiReflection</text>
<rect x="289" y="622" width="12" height="12" fill="#969696"/>
<text x="305" y="632" fill="#222">apiTotal (self)</text>
</svg>