<svg xmlns="http://www.w3.org/2000/svg" xmlns:xlink="http://www.w3.org/1999/xlink" width="1132" height="662" viewBox="0 0 1132 662" preserveAspectRatio="xMidYMid meet" font-family="sans-serif" font-size="13">
<rect width="1132" height="662" fill="white"/>
<text x="12" y="30" font-size="20" font-weight="bold">api_specialize — Across releases (median ms)</text>
<text x="68" y="60" font-size="15" font-weight="600" fill="#1a1a1a">api_specialize<tspan fill="#888" font-weight="400" text-decoration="none">  0.90×</tspan></text>
<line x1="68.0" y1="516.0" x2="1108.0" y2="516.0" stroke="#eee"/>
<text x="64.0" y="519.0" text-anchor="end" fill="#999">0.0</text>
<line x1="68.0" y1="296.0" x2="1108.0" y2="296.0" stroke="#eee"/>
<text x="64.0" y="299.0" text-anchor="end" fill="#999">654</text>
<line x1="68.0" y1="76.0" x2="1108.0" y2="76.0" stroke="#eee"/>
<text x="64.0" y="79.0" text-anchor="end" fill="#999">1308</text>
<line x1="68.0" y1="76.0" x2="68.0" y2="516.0" stroke="#333"/>
<line x1="68.0" y1="516.0" x2="1108.0" y2="516.0" stroke="#333"/>
<line x1="68.0" y1="516.0" x2="68.0" y2="519.0" stroke="#999"/>
<text x="68.0" y="531.0" text-anchor="end" fill="#666" transform="rotate(-50 68.0 531.0)">25.12</text>
<line x1="111.3" y1="516.0" x2="111.3" y2="519.0" stroke="#999"/>
<text x="111.3" y="531.0" text-anchor="end" fill="#666" transform="rotate(-50 111.3 531.0)">25.13</text>
<line x1="154.7" y1="516.0" x2="154.7" y2="519.0" stroke="#999"/>
<text x="154.7" y="531.0" text-anchor="end" fill="#666" transform="rotate(-50 154.7 531.0)">25.14</text>
<line x1="198.0" y1="516.0" x2="198.0" y2="519.0" stroke="#999"/>
<text x="198.0" y="531.0" text-anchor="end" fill="#666" transform="rotate(-50 198.0 531.0)">25.15</text>
<line x1="241.3" y1="516.0" x2="241.3" y2="519.0" stroke="#999"/>
<text x="241.3" y="531.0" text-anchor="end" fill="#666" transform="rotate(-50 241.3 531.0)">25.16</text>
<line x1="284.7" y1="516.0" x2="284.7" y2="519.0" stroke="#999"/>
<text x="284.7" y="531.0" text-anchor="end" fill="#666" transform="rotate(-50 284.7 531.0)">25.17</text>
<line x1="328.0" y1="516.0" x2="328.0" y2="519.0" stroke="#999"/>
<text x="328.0" y="531.0" text-anchor="end" fill="#666" transform="rotate(-50 328.0 531.0)">25.18</text>
<line x1="371.3" y1="516.0" x2="371.3" y2="519.0" stroke="#999"/>
<text x="371.3" y="531.0" text-anchor="end" fill="#666" transform="rotate(-50 371.3 531.0)">25.19</text>
<line x1="414.7" y1="516.0" x2="414.7" y2="519.0" stroke="#999"/>
<text x="414.7" y="531.0" text-anchor="end" fill="#666" transform="rotate(-50 414.7 531.0)">25.20</text>
<line x1="458.0" y1="516.0" x2="458.0" y2="519.0" stroke="#999"/>
<text x="458.0" y="531.0" text-anchor="end" fill="#666" transform="rotate(-50 458.0 531.0)">25.21</text>
<line x1="501.3" y1="516.0" x2="501.3" y2="519.0" stroke="#999"/>
<text x="501.3" y="531.0" text-anchor="end" fill="#666" transform="rotate(-50 501.3 531.0)">25.22</text>
<line x1="544.7" y1="516.0" x2="544.7" y2="519.0" stroke="#999"/>
<text x="544.7" y="531.0" text-anchor="end" fill="#666" transform="rotate(-50 544.7 531.0)">25.23</text>
<line x1="588.0" y1="516.0" x2="588.0" y2="519.0" stroke="#999"/>
<text x="588.0" y="531.0" text-anchor="end" fill="#666" transform="rotate(-50 588.0 531.0)">25.24</text>
<line x1="631.3" y1="516.0" x2="631.3" y2="519.0" stroke="#999"/>
<text x="631.3" y="531.0" text-anchor="end" fill="#666" transform="rotate(-50 631.3 531.0)">26.1</text>
<line x1="674.7" y1="516.0" x2="674.7" y2="519.0" stroke="#999"/>
<text x="674.7" y="531.0" text-anchor="end" fill="#666" transform="rotate(-50 674.7 531.0)">26.2</text>
<line x1="718.0" y1="516.0" x2="718.0" y2="519.0" stroke="#999"/>
<text x="718.0" y="531.0" text-anchor="end" fill="#666" transform="rotate(-50 718.0 531.0)">26.3</text>
<line x1="761.3" y1="516.0" x2="761.3" y2="519.0" stroke="#999"/>
<text x="761.3" y="531.0" text-anchor="end" fill="#666" transform="rotate(-50 761.3 531.0)">26.4</text>
<line x1="804.7" y1="516.0" x2="804.7" y2="519.0" stroke="#999"/>
<text x="804.7" y="531.0" text-anchor="end" fill="#666" transform="rotate(-50 804.7 531.0)">26.5</text>
<line x1="848.0" y1="516.0" x2="848.0" y2="519.0" stroke="#999"/>
<text x="848.0" y="531.0" text-anchor="end" fill="#666" transform="rotate(-50 848.0 531.0)">26.7</text>
<line x1="891.3" y1="516.0" x2="891.3" y2="519.0" stroke="#999"/>
<text x="891.3" y="531.0" text-anchor="end" fill="#666" transform="rotate(-50 891.3 531.0)">26.8</text>
<line x1="934.7" y1="516.0" x2="934.7" y2="519.0" stroke="#999"/>
<text x="934.7" y="531.0" text-anchor="end" fill="#666" transform="rotate(-50 934.7 531.0)">26.9</text>
<line x1="978.0" y1="516.0" x2="978.0" y2="519.0" stroke="#999"/>
<text x="978.0" y="531.0" text-anchor="end" fill="#666" transform="rotate(-50 978.0 531.0)">26.10</text>
<line x1="1021.3" y1="516.0" x2="1021.3" y2="519.0" stroke="#999"/>
<text x="1021.3" y="531.0" text-anchor="end" fill="#666" transform="rotate(-50 1021.3 531.0)">26.11</text>
<line x1="1064.7" y1="516.0" x2="1064.7" y2="519.0" stroke="#999"/>
<text x="1064.7" y="531.0" text-anchor="end" fill="#666" transform="rotate(-50 1064.7 531.0)">26.12</text>
<line x1="1108.0" y1="516.0" x2="1108.0" y2="519.0" stroke="#999"/>
<text x="1108.0" y="531.0" text-anchor="end" fill="#666" transform="rotate(-50 1108.0 531.0)">26.13</text>
<polygon points="68.0,428.0 111.3,432.7 154.7,421.7 198.0,492.6 241.3,492.2 284.7,493.1 328.0,492.8 371.3,492.9 414.7,492.5 458.0,492.6 501.3,501.1 544.7,502.0 588.0,501.3 631.3,501.2 674.7,500.7 718.0,501.6 761.3,500.3 804.7,501.1 848.0,475.0 891.3,480.0 934.7,481.0 978.0,475.6 1021.3,475.1 1064.7,469.2 1108.0,475.0 1108.0,516.0 1064.7,516.0 1021.3,516.0 978.0,516.0 934.7,516.0 891.3,516.0 848.0,516.0 804.7,516.0 761.3,516.0 718.0,516.0 674.7,516.0 631.3,516.0 588.0,516.0 544.7,516.0 501.3,516.0 458.0,516.0 414.7,516.0 371.3,516.0 328.0,516.0 284.7,516.0 241.3,516.0 198.0,516.0 154.7,516.0 111.3,516.0 68.0,516.0" fill="#c7e9c0" fill-opacity="0.9" stroke="#fff" stroke-width="0.4"><title>api_specialize — apiCreateGlobalSession</title></polygon>
<polygon points="68.0,427.9 111.3,432.6 154.7,421.7 198.0,492.6 241.3,492.2 284.7,493.1 328.0,492.8 371.3,492.9 414.7,492.5 458.0,492.6 501.3,501.1 544.7,502.0 588.0,501.3 631.3,501.2 674.7,500.7 718.0,501.6 761.3,500.2 804.7,501.1 848.0,475.0 891.3,480.0 934.7,481.0 978.0,475.6 1021.3,475.1 1064.7,469.2 1108.0,475.0 1108.0,475.0 1064.7,469.2 1021.3,475.1 978.0,475.6 934.7,481.0 891.3,480.0 848.0,475.0 804.7,501.1 761.3,500.3 718.0,501.6 674.7,500.7 631.3,501.2 588.0,501.3 544.7,502.0 501.3,501.1 458.0,492.6 414.7,492.5 371.3,492.9 328.0,492.8 284.7,493.1 241.3,492.2 198.0,492.6 154.7,421.7 111.3,432.7 68.0,428.0" fill="#41ab5d" fill-opacity="0.9" stroke="#fff" stroke-width="0.4"><title>api_specialize — apiCreateSession</title></polygon>
<polygon points="68.0,423.8 111.3,427.9 154.7,416.3 198.0,484.8 241.3,483.9 284.7,485.0 328.0,484.9 371.3,484.8 414.7,484.6 458.0,484.7 501.3,494.7 544.7,495.6 588.0,494.9 631.3,494.7 674.7,493.7 718.0,494.6 761.3,493.2 804.7,494.1 848.0,464.0 891.3,470.7 934.7,471.6 978.0,466.1 1021.3,469.1 1064.7,462.3 1108.0,468.9 1108.0,475.0 1064.7,469.2 1021.3,475.1 978.0,475.6 934.7,481.0 891.3,480.0 848.0,475.0 804.7,501.1 761.3,500.2 718.0,501.6 674.7,500.7 631.3,501.2 588.0,501.3 544.7,502.0 501.3,501.1 458.0,492.6 414.7,492.5 371.3,492.9 328.0,492.8 284.7,493.1 241.3,492.2 198.0,492.6 154.7,421.7 111.3,432.6 68.0,427.9" fill="#2171b5" fill-opacity="0.9" stroke="#fff" stroke-width="0.4"><title>api_specialize — apiLoadModule</title></polygon>
<polygon points="68.0,423.7 111.3,427.9 154.7,416.2 198.0,484.8 241.3,483.9 284.7,485.0 328.0,484.8 371.3,484.7 414.7,484.6 458.0,484.6 501.3,494.7 544.7,495.5 588.0,494.8 631.3,494.7 674.7,493.6 718.0,494.6 761.3,493.1 804.7,494.0 848.0,464.0 891.3,470.6 934.7,471.6 978.0,466.1 1021.3,469.0 1064.7,462.2 1108.0,468.9 1108.0,468.9 1064.7,462.3 1021.3,469.1 978.0,466.1 934.7,471.6 891.3,470.7 848.0,464.0 804.7,494.1 761.3,493.2 718.0,494.6 674.7,493.7 631.3,494.7 588.0,494.9 544.7,495.6 501.3,494.7 458.0,484.7 414.7,484.6 371.3,484.8 328.0,484.9 284.7,485.0 241.3,483.9 198.0,484.8 154.7,416.3 111.3,427.9 68.0,423.8" fill="#9e9ac8" fill-opacity="0.9" stroke="#fff" stroke-width="0.4"><title>api_specialize — apiComposite</title></polygon>
<polygon points="68.0,422.8 111.3,426.9 154.7,415.2 198.0,483.7 241.3,482.8 284.7,482.6 328.0,482.5 371.3,482.4 414.7,482.2 458.0,482.3 501.3,492.3 544.7,493.2 588.0,492.5 631.3,492.4 674.7,491.3 718.0,492.3 761.3,490.9 804.7,491.7 848.0,459.1 891.3,467.0 934.7,468.0 978.0,462.4 1021.3,465.0 1064.7,458.0 1108.0,465.0 1108.0,468.9 1064.7,462.2 1021.3,469.0 978.0,466.1 934.7,471.6 891.3,470.6 848.0,464.0 804.7,494.0 761.3,493.1 718.0,494.6 674.7,493.6 631.3,494.7 588.0,494.8 544.7,495.5 501.3,494.7 458.0,484.6 414.7,484.6 371.3,484.7 328.0,484.8 284.7,485.0 241.3,483.9 198.0,484.8 154.7,416.2 111.3,427.9 68.0,423.7" fill="#807dba" fill-opacity="0.9" stroke="#fff" stroke-width="0.4"><title>api_specialize — apiSpecialize</title></polygon>
<polygon points="68.0,422.8 111.3,426.9 154.7,415.2 198.0,483.7 241.3,482.8 284.7,482.6 328.0,482.5 371.3,482.4 414.7,482.2 458.0,482.3 501.3,492.3 544.7,493.2 588.0,492.5 631.3,492.4 674.7,491.3 718.0,492.3 761.3,490.9 804.7,491.7 848.0,459.0 891.3,467.0 934.7,468.0 978.0,462.4 1021.3,465.0 1064.7,458.0 1108.0,465.0 1108.0,465.0 1064.7,458.0 1021.3,465.0 978.0,462.4 934.7,468.0 891.3,467.0 848.0,459.1 804.7,491.7 761.3,490.9 718.0,492.3 674.7,491.3 631.3,492.4 588.0,492.5 544.7,493.2 501.3,492.3 458.0,482.3 414.7,482.2 371.3,482.4 328.0,482.5 284.7,482.6 241.3,482.8 198.0,483.7 154.7,415.2 111.3,426.9 68.0,422.8" fill="#6a51a3" fill-opacity="0.9" stroke="#fff" stroke-width="0.4"><title>api_specialize — apiLink</title></polygon>
<polygon points="68.0,399.3 111.3,401.9 154.7,389.1 198.0,458.1 241.3,456.3 284.7,452.7 328.0,453.0 371.3,452.3 414.7,452.4 458.0,451.8 501.3,461.7 544.7,462.6 588.0,456.5 631.3,456.9 674.7,454.3 718.0,455.7 761.3,454.0 804.7,453.7 848.0,109.9 891.3,213.9 934.7,214.8 978.0,209.3 1021.3,355.3 1064.7,356.0 1108.0,410.7 1108.0,465.0 1064.7,458.0 1021.3,465.0 978.0,462.4 934.7,468.0 891.3,467.0 848.0,459.0 804.7,491.7 761.3,490.9 718.0,492.3 674.7,491.3 631.3,492.4 588.0,492.5 544.7,493.2 501.3,492.3 458.0,482.3 414.7,482.2 371.3,482.4 328.0,482.5 284.7,482.6 241.3,482.8 198.0,483.7 154.7,415.2 111.3,426.9 68.0,422.8" fill="#fd8d3c" fill-opacity="0.9" stroke="#fff" stroke-width="0.4"><title>api_specialize — apiGetCode</title></polygon>
<polygon points="68.0,398.4 111.3,400.8 154.7,389.0 198.0,457.4 241.3,455.7 284.7,451.1 328.0,451.3 371.3,451.0 414.7,450.9 458.0,449.9 501.3,460.3 544.7,461.0 588.0,454.8 631.3,454.8 674.7,452.7 718.0,453.9 761.3,452.2 804.7,452.0 848.0,108.6 891.3,212.3 934.7,213.1 978.0,207.8 1021.3,353.7 1064.7,354.1 1108.0,409.6 1108.0,410.7 1064.7,356.0 1021.3,355.3 978.0,209.3 934.7,214.8 891.3,213.9 848.0,109.9 804.7,453.7 761.3,454.0 718.0,455.7 674.7,454.3 631.3,456.9 588.0,456.5 544.7,462.6 501.3,461.7 458.0,451.8 414.7,452.4 371.3,452.3 328.0,453.0 284.7,452.7 241.3,456.3 198.0,458.1 154.7,389.1 111.3,401.9 68.0,399.3" fill="#969696" fill-opacity="0.9" stroke="#fff" stroke-width="0.4"><title>api_specialize — apiTotal (self)</title></polygon>
<text x="12" y="578" fill="#666" font-weight="600">phase buckets</text>
<rect x="12" y="586" width="12" height="12" fill="#c7e9c0"/>
<text x="28" y="596" fill="#222">apiCreateGlobalSession</text>
<rect x="289" y="586" width="12" height="12" fill="#41ab5d"/>
<text x="305" y="596" fill="#222">apiCreateSession</text>
<rect x="566" y="586" width="12" height="12" fill="#2171b5"/>
<text x="582" y="596" fill="#222">apiLoadModule</text>
<rect x="843" y="586" width="12" height="12" fill="#6baed6"/>
<text x="859" y="596" fill="#222">apiFindEntryPoint</text>
<rect x="12" y="604" width="12" height="12" fill="#9e9ac8"/>
<text x="28" y="614" fill="#222">apiComposite</text>
<rect x="289" y="604" width="12" height="12" fill="#807dba"/>
<text x="305" y="614" fill="#222">apiSpecialize</text>
<rect x="566" y="604" width="12" height="12" fill="#6a51a3"/>
<text x="582" y="614" fill="#222">apiLink</text>
<rect x="843" y="604" width="12" height="12" fill="#fd8d3c"/>
<text x="859" y="614" fill="#222">apiGetCode</text>
<rect x="12" y="622" width="12" height="12" fill="#b5bdc4"/>
<text x="28" y="632" fill="#222">apiReflection</text>
<rect x="289" y="622" width="12" height="12" fill="#969696"/>
<text x="305" y="632" fill="#222">apiTotal (self)</text>
</svg>