<svg xmlns="http://www.w3.org/2000/svg" xmlns:xlink="http://www.w3.org/1999/xlink" width="1132" height="662" viewBox="0 0 1132 662" preserveAspectRatio="xMidYMid meet" font-family="sans-serif" font-size="13">
<rect width="1132" height="662" fill="white"/>
<text x="12" y="30" font-size="20" font-weight="bold">api_reflection — Daily tip-of-tree (last 30 days) (median ms)</text>
<text x="68" y="60" font-size="15" font-weight="600" fill="#1a1a1a">api_reflection<tspan fill="#888" font-weight="400" text-decoration="none">  0.70×</tspan></text>
<line x1="68.0" y1="516.0" x2="1108.0" y2="516.0" stroke="#eee"/>
<text x="64.0" y="519.0" text-anchor="end" fill="#999">0.0</text>
<line x1="68.0" y1="296.0" x2="1108.0" y2="296.0" stroke="#eee"/>
<text x="64.0" y="299.0" text-anchor="end" fill="#999">457</text>
<line x1="68.0" y1="76.0" x2="1108.0" y2="76.0" stroke="#eee"/>
<text x="64.0" y="79.0" text-anchor="end" fill="#999">914</text>
<line x1="68.0" y1="76.0" x2="68.0" y2="516.0" stroke="#333"/>
<line x1="68.0" y1="516.0" x2="1108.0" y2="516.0" stroke="#333"/>
<line x1="68.0" y1="516.0" x2="68.0" y2="519.0" stroke="#999"/>
<text x="68.0" y="531.0" text-anchor="end" fill="#e8731a" transform="rotate(-50 68.0 531.0)">06-25</text>
<line x1="122.7" y1="516.0" x2="122.7" y2="519.0" stroke="#999"/>
<text x="122.7" y="531.0" text-anchor="end" fill="#e8731a" transform="rotate(-50 122.7 531.0)">06-26</text>
<line x1="177.5" y1="516.0" x2="177.5" y2="519.0" stroke="#999"/>
<text x="177.5" y="531.0" text-anchor="end" fill="#e8731a" transform="rotate(-50 177.5 531.0)">06-28</text>
<line x1="232.2" y1="516.0" x2="232.2" y2="519.0" stroke="#999"/>
<text x="232.2" y="531.0" text-anchor="end" fill="#e8731a" transform="rotate(-50 232.2 531.0)">07-01</text>
<line x1="286.9" y1="516.0" x2="286.9" y2="519.0" stroke="#999"/>
<text x="286.9" y="531.0" text-anchor="end" fill="#e8731a" transform="rotate(-50 286.9 531.0)">07-02</text>
<line x1="341.7" y1="516.0" x2="341.7" y2="519.0" stroke="#999"/>
<text x="341.7" y="531.0" text-anchor="end" fill="#e8731a" transform="rotate(-50 341.7 531.0)">07-03</text>
<line x1="396.4" y1="516.0" x2="396.4" y2="519.0" stroke="#999"/>
<text x="396.4" y="531.0" text-anchor="end" fill="#e8731a" transform="rotate(-50 396.4 531.0)">07-06</text>
<line x1="451.2" y1="516.0" x2="451.2" y2="519.0" stroke="#999"/>
<text x="451.2" y="531.0" text-anchor="end" fill="#e8731a" transform="rotate(-50 451.2 531.0)">07-07</text>
<line x1="505.9" y1="516.0" x2="505.9" y2="519.0" stroke="#999"/>
<text x="505.9" y="531.0" text-anchor="end" fill="#e8731a" transform="rotate(-50 505.9 531.0)">07-08</text>
<line x1="560.6" y1="516.0" x2="560.6" y2="519.0" stroke="#999"/>
<text x="560.6" y="531.0" text-anchor="end" fill="#e8731a" transform="rotate(-50 560.6 531.0)">07-09</text>
<line x1="615.4" y1="516.0" x2="615.4" y2="519.0" stroke="#999"/>
<text x="615.4" y="531.0" text-anchor="end" fill="#e8731a" transform="rotate(-50 615.4 531.0)">07-10</text>
<line x1="670.1" y1="516.0" x2="670.1" y2="519.0" stroke="#999"/>
<text x="670.1" y="531.0" text-anchor="end" fill="#e8731a" transform="rotate(-50 670.1 531.0)">07-11</text>
<line x1="724.8" y1="516.0" x2="724.8" y2="519.0" stroke="#999"/>
<text x="724.8" y="531.0" text-anchor="end" fill="#e8731a" transform="rotate(-50 724.8 531.0)">07-14</text>
<line x1="779.6" y1="516.0" x2="779.6" y2="519.0" stroke="#999"/>
<text x="779.6" y="531.0" text-anchor="end" fill="#e8731a" transform="rotate(-50 779.6 531.0)">07-15</text>
<line x1="834.3" y1="516.0" x2="834.3" y2="519.0" stroke="#999"/>
<text x="834.3" y="531.0" text-anchor="end" fill="#e8731a" transform="rotate(-50 834.3 531.0)">07-15</text>
<line x1="889.1" y1="516.0" x2="889.1" y2="519.0" stroke="#999"/>
<text x="889.1" y="531.0" text-anchor="end" fill="#e8731a" transform="rotate(-50 889.1 531.0)">07-16</text>
<line x1="943.8" y1="516.0" x2="943.8" y2="519.0" stroke="#999"/>
<text x="943.8" y="531.0" text-anchor="end" fill="#e8731a" transform="rotate(-50 943.8 531.0)">07-17</text>
<line x1="998.5" y1="516.0" x2="998.5" y2="519.0" stroke="#999"/>
<text x="998.5" y="531.0" text-anchor="end" fill="#e8731a" transform="rotate(-50 998.5 531.0)">07-18</text>
<line x1="1053.3" y1="516.0" x2="1053.3" y2="519.0" stroke="#999"/>
<text x="1053.3" y="531.0" text-anchor="end" fill="#e8731a" transform="rotate(-50 1053.3 531.0)">07-19</text>
<line x1="1108.0" y1="516.0" x2="1108.0" y2="519.0" stroke="#999"/>
<text x="1108.0" y="531.0" text-anchor="end" fill="#e8731a" transform="rotate(-50 1108.0 531.0)">07-20</text>
<polygon points="68.0,461.9 122.7,460.0 177.5,459.5 232.2,460.8 286.9,459.5 341.7,460.2 396.4,460.3 451.2,461.8 505.9,460.6 560.6,461.5 615.4,461.6 670.1,461.3 724.8,460.2 779.6,462.6 834.3,463.8 889.1,463.5 943.8,461.8 998.5,468.4 1053.3,468.5 1108.0,469.0 1108.0,516.0 1053.3,516.0 998.5,516.0 943.8,516.0 889.1,516.0 834.3,516.0 779.6,516.0 724.8,516.0 670.1,516.0 615.4,516.0 560.6,516.0 505.9,516.0 451.2,516.0 396.4,516.0 341.7,516.0 286.9,516.0 232.2,516.0 177.5,516.0 122.7,516.0 68.0,516.0" fill="#c7e9c0" fill-opacity="0.9" stroke="#fff" stroke-width="0.4"><title>api_reflection — apiCreateGlobalSession</title></polygon>
<polygon points="68.0,461.9 122.7,460.0 177.5,459.5 232.2,460.8 286.9,459.5 341.7,460.2 396.4,460.3 451.2,461.7 505.9,460.6 560.6,461.5 615.4,461.6 670.1,461.3 724.8,460.2 779.6,462.6 834.3,463.8 889.1,463.5 943.8,461.8 998.5,468.4 1053.3,468.5 1108.0,468.9 1108.0,469.0 1053.3,468.5 998.5,468.4 943.8,461.8 889.1,463.5 834.3,463.8 779.6,462.6 724.8,460.2 670.1,461.3 615.4,461.6 560.6,461.5 505.9,460.6 451.2,461.8 396.4,460.3 341.7,460.2 286.9,459.5 232.2,460.8 177.5,459.5 122.7,460.0 68.0,461.9" fill="#41ab5d" fill-opacity="0.9" stroke="#fff" stroke-width="0.4"><title>api_reflection — apiCreateSession</title></polygon>
<polygon points="68.0,344.3 122.7,342.3 177.5,340.8 232.2,344.1 286.9,340.4 341.7,340.0 396.4,341.8 451.2,342.2 505.9,341.6 560.6,342.2 615.4,336.7 670.1,336.3 724.8,336.6 779.6,345.9 834.3,346.9 889.1,325.9 943.8,323.9 998.5,348.7 1053.3,349.0 1108.0,349.9 1108.0,468.9 1053.3,468.5 998.5,468.4 943.8,461.8 889.1,463.5 834.3,463.8 779.6,462.6 724.8,460.2 670.1,461.3 615.4,461.6 560.6,461.5 505.9,460.6 451.2,461.7 396.4,460.3 341.7,460.2 286.9,459.5 232.2,460.8 177.5,459.5 122.7,460.0 68.0,461.9" fill="#2171b5" fill-opacity="0.9" stroke="#fff" stroke-width="0.4"><title>api_reflection — apiLoadModule</title></polygon>
<polygon points="68.0,344.3 122.7,342.3 177.5,340.8 232.2,344.1 286.9,340.4 341.7,340.0 396.4,341.7 451.2,342.2 505.9,341.6 560.6,342.2 615.4,336.7 670.1,336.3 724.8,336.6 779.6,345.9 834.3,346.9 889.1,325.9 943.8,323.9 998.5,348.7 1053.3,349.0 1108.0,349.9 1108.0,349.9 1053.3,349.0 998.5,348.7 943.8,323.9 889.1,325.9 834.3,346.9 779.6,345.9 724.8,336.6 670.1,336.3 615.4,336.7 560.6,342.2 505.9,341.6 451.2,342.2 396.4,341.8 341.7,340.0 286.9,340.4 232.2,344.1 177.5,340.8 122.7,342.3 68.0,344.3" fill="#6baed6" fill-opacity="0.9" stroke="#fff" stroke-width="0.4"><title>api_reflection — apiFindEntryPoint</title></polygon>
<polygon points="68.0,344.3 122.7,342.3 177.5,340.8 232.2,344.0 286.9,340.3 341.7,339.9 396.4,341.7 451.2,342.1 505.9,341.5 560.6,342.1 615.4,336.6 670.1,336.2 724.8,336.5 779.6,345.8 834.3,346.8 889.1,325.9 943.8,323.8 998.5,348.7 1053.3,349.0 1108.0,349.9 1108.0,349.9 1053.3,349.0 998.5,348.7 943.8,323.9 889.1,325.9 834.3,346.9 779.6,345.9 724.8,336.6 670.1,336.3 615.4,336.7 560.6,342.2 505.9,341.6 451.2,342.2 396.4,341.7 341.7,340.0 286.9,340.4 232.2,344.1 177.5,340.8 122.7,342.3 68.0,344.3" fill="#9e9ac8" fill-opacity="0.9" stroke="#fff" stroke-width="0.4"><title>api_reflection — apiComposite</title></polygon>
<polygon points="68.0,344.2 122.7,342.3 177.5,340.8 232.2,344.0 286.9,340.3 341.7,339.9 396.4,341.7 451.2,342.1 505.9,341.5 560.6,342.1 615.4,336.6 670.1,336.2 724.8,336.5 779.6,345.8 834.3,346.8 889.1,325.9 943.8,323.8 998.5,348.7 1053.3,349.0 1108.0,349.9 1108.0,349.9 1053.3,349.0 998.5,348.7 943.8,323.8 889.1,325.9 834.3,346.8 779.6,345.8 724.8,336.5 670.1,336.2 615.4,336.6 560.6,342.1 505.9,341.5 451.2,342.1 396.4,341.7 341.7,339.9 286.9,340.3 232.2,344.0 177.5,340.8 122.7,342.3 68.0,344.3" fill="#6a51a3" fill-opacity="0.9" stroke="#fff" stroke-width="0.4"><title>api_reflection — apiLink</title></polygon>
<polygon points="68.0,123.3 122.7,119.8 177.5,117.4 232.2,123.6 286.9,115.5 341.7,114.0 396.4,117.1 451.2,200.1 505.9,201.1 560.6,202.2 615.4,198.6 670.1,197.5 724.8,199.5 779.6,224.0 834.3,223.8 889.1,204.1 943.8,201.2 998.5,239.8 1053.3,239.4 1108.0,240.6 1108.0,349.9 1053.3,349.0 998.5,348.7 943.8,323.8 889.1,325.9 834.3,346.8 779.6,345.8 724.8,336.5 670.1,336.2 615.4,336.6 560.6,342.1 505.9,341.5 451.2,342.1 396.4,341.7 341.7,339.9 286.9,340.3 232.2,344.0 177.5,340.8 122.7,342.3 68.0,344.2" fill="#fd8d3c" fill-opacity="0.9" stroke="#fff" stroke-width="0.4"><title>api_reflection — apiGetCode</title></polygon>
<polygon points="68.0,120.6 122.7,117.1 177.5,114.7 232.2,120.9 286.9,112.8 341.7,111.3 396.4,114.4 451.2,197.4 505.9,198.3 560.6,199.5 615.4,196.0 670.1,194.8 724.8,196.9 779.6,221.4 834.3,221.2 889.1,201.5 943.8,198.6 998.5,237.2 1053.3,236.8 1108.0,237.9 1108.0,240.6 1053.3,239.4 998.5,239.8 943.8,201.2 889.1,204.1 834.3,223.8 779.6,224.0 724.8,199.5 670.1,197.5 615.4,198.6 560.6,202.2 505.9,201.1 451.2,200.1 396.4,117.1 341.7,114.0 286.9,115.5 232.2,123.6 177.5,117.4 122.7,119.8 68.0,123.3" fill="#b5bdc4" fill-opacity="0.9" stroke="#fff" stroke-width="0.4"><title>api_reflection — apiReflection</title></polygon>
<polygon points="68.0,116.8 122.7,115.0 177.5,112.7 232.2,118.9 286.9,110.6 341.7,108.6 396.4,112.4 451.2,195.8 505.9,195.1 560.6,196.8 615.4,192.7 670.1,192.8 724.8,195.2 779.6,219.1 834.3,218.7 889.1,199.4 943.8,197.0 998.5,235.8 1053.3,235.1 1108.0,235.8 1108.0,237.9 1053.3,236.8 998.5,237.2 943.8,198.6 889.1,201.5 834.3,221.2 779.6,221.4 724.8,196.9 670.1,194.8 615.4,196.0 560.6,199.5 505.9,198.3 451.2,197.4 396.4,114.4 341.7,111.3 286.9,112.8 232.2,120.9 177.5,114.7 122.7,117.1 68.0,120.6" fill="#969696" fill-opacity="0.9" stroke="#fff" stroke-width="0.4"><title>api_reflection — apiTotal (self)</title></polygon>
<text x="12" y="578" fill="#666" font-weight="600">phase buckets</text>
<rect x="12" y="586" width="12" height="12" fill="#c7e9c0"/>
<text x="28" y="596" fill="#222">apiCreateGlobalSession</text>
<rect x="289" y="586" width="12" height="12" fill="#41ab5d"/>
<text x="305" y="596" fill="#222">apiCreateSession</text>
<rect x="566" y="586" width="12" height="12" fill="#2171b5"/>
<text x="582" y="596" fill="#222">apiLoadModule</text>
<rect x="843" y="586" width="12" height="12" fill="#6baed6"/>
<text x="859" y="596" fill="#222">apiFindEntryPoint</text>
<rect x="12" y="604" width="12" height="12" fill="#9e9ac8"/>
<text x="28" y="614" fill="#222">apiComposite</text>
<rect x="289" y="604" width="12" height="12" fill="#807dba"/>
<text x="305" y="614" fill="#222">apiSpecialize</text>
<rect x="566" y="604" width="12" height="12" fill="#6a51a3"/>
<text x="582" y="614" fill="#222">apiLink</text>
<rect x="843" y="604" width="12" height="12" fill="#fd8d3c"/>
<text x="859" y="614" fill="#222">apiGetCode</text>
<rect x="12" y="622" width="12" height="12" fill="#b5bdc4"/>
<text x="28" y="632" fill="#222">apiReflection</text>
<rect x="289" y="622" width="12" height="12" fill="#969696"/>
<text x="305" y="632" fill="#222">apiTotal (self)</text>
</svg>