<svg xmlns="http://www.w3.org/2000/svg" xmlns:xlink="http://www.w3.org/1999/xlink" width="1132" height="662" viewBox="0 0 1132 662" preserveAspectRatio="xMidYMid meet" font-family="sans-serif" font-size="13">
<rect width="1132" height="662" fill="white"/>
<text x="12" y="30" font-size="20" font-weight="bold">api_module_graph — Daily tip-of-tree (last 30 days) (median ms)</text>
<text x="68" y="60" font-size="15" font-weight="600" fill="#1a1a1a">api_module_graph<tspan fill="#888" font-weight="400" text-decoration="none">  0.95×</tspan></text>
<line x1="68.0" y1="516.0" x2="1108.0" y2="516.0" stroke="#eee"/>
<text x="64.0" y="519.0" text-anchor="end" fill="#999">0.0</text>
<line x1="68.0" y1="296.0" x2="1108.0" y2="296.0" stroke="#eee"/>
<text x="64.0" y="299.0" text-anchor="end" fill="#999">478</text>
<line x1="68.0" y1="76.0" x2="1108.0" y2="76.0" stroke="#eee"/>
<text x="64.0" y="79.0" text-anchor="end" fill="#999">956</text>
<line x1="68.0" y1="76.0" x2="68.0" y2="516.0" stroke="#333"/>
<line x1="68.0" y1="516.0" x2="1108.0" y2="516.0" stroke="#333"/>
<line x1="68.0" y1="516.0" x2="68.0" y2="519.0" stroke="#999"/>
<text x="68.0" y="531.0" text-anchor="end" fill="#e8731a" transform="rotate(-50 68.0 531.0)">06-25</text>
<line x1="113.2" y1="516.0" x2="113.2" y2="519.0" stroke="#999"/>
<text x="113.2" y="531.0" text-anchor="end" fill="#e8731a" transform="rotate(-50 113.2 531.0)">06-26</text>
<line x1="158.4" y1="516.0" x2="158.4" y2="519.0" stroke="#999"/>
<text x="158.4" y="531.0" text-anchor="end" fill="#e8731a" transform="rotate(-50 158.4 531.0)">06-28</text>
<line x1="203.7" y1="516.0" x2="203.7" y2="519.0" stroke="#999"/>
<text x="203.7" y="531.0" text-anchor="end" fill="#e8731a" transform="rotate(-50 203.7 531.0)">07-01</text>
<line x1="248.9" y1="516.0" x2="248.9" y2="519.0" stroke="#999"/>
<text x="248.9" y="531.0" text-anchor="end" fill="#e8731a" transform="rotate(-50 248.9 531.0)">07-02</text>
<line x1="294.1" y1="516.0" x2="294.1" y2="519.0" stroke="#999"/>
<text x="294.1" y="531.0" text-anchor="end" fill="#e8731a" transform="rotate(-50 294.1 531.0)">07-03</text>
<line x1="339.3" y1="516.0" x2="339.3" y2="519.0" stroke="#999"/>
<text x="339.3" y="531.0" text-anchor="end" fill="#e8731a" transform="rotate(-50 339.3 531.0)">07-06</text>
<line x1="384.5" y1="516.0" x2="384.5" y2="519.0" stroke="#999"/>
<text x="384.5" y="531.0" text-anchor="end" fill="#e8731a" transform="rotate(-50 384.5 531.0)">07-07</text>
<line x1="429.7" y1="516.0" x2="429.7" y2="519.0" stroke="#999"/>
<text x="429.7" y="531.0" text-anchor="end" fill="#e8731a" transform="rotate(-50 429.7 531.0)">07-08</text>
<line x1="475.0" y1="516.0" x2="475.0" y2="519.0" stroke="#999"/>
<text x="475.0" y="531.0" text-anchor="end" fill="#e8731a" transform="rotate(-50 475.0 531.0)">07-09</text>
<line x1="520.2" y1="516.0" x2="520.2" y2="519.0" stroke="#999"/>
<text x="520.2" y="531.0" text-anchor="end" fill="#e8731a" transform="rotate(-50 520.2 531.0)">07-10</text>
<line x1="565.4" y1="516.0" x2="565.4" y2="519.0" stroke="#999"/>
<text x="565.4" y="531.0" text-anchor="end" fill="#e8731a" transform="rotate(-50 565.4 531.0)">07-11</text>
<line x1="610.6" y1="516.0" x2="610.6" y2="519.0" stroke="#999"/>
<text x="610.6" y="531.0" text-anchor="end" fill="#e8731a" transform="rotate(-50 610.6 531.0)">07-14</text>
<line x1="655.8" y1="516.0" x2="655.8" y2="519.0" stroke="#999"/>
<text x="655.8" y="531.0" text-anchor="end" fill="#e8731a" transform="rotate(-50 655.8 531.0)">07-15</text>
<line x1="701.0" y1="516.0" x2="701.0" y2="519.0" stroke="#999"/>
<text x="701.0" y="531.0" text-anchor="end" fill="#e8731a" transform="rotate(-50 701.0 531.0)">07-15</text>
<line x1="746.3" y1="516.0" x2="746.3" y2="519.0" stroke="#999"/>
<text x="746.3" y="531.0" text-anchor="end" fill="#e8731a" transform="rotate(-50 746.3 531.0)">07-16</text>
<line x1="791.5" y1="516.0" x2="791.5" y2="519.0" stroke="#999"/>
<text x="791.5" y="531.0" text-anchor="end" fill="#e8731a" transform="rotate(-50 791.5 531.0)">07-17</text>
<line x1="836.7" y1="516.0" x2="836.7" y2="519.0" stroke="#999"/>
<text x="836.7" y="531.0" text-anchor="end" fill="#e8731a" transform="rotate(-50 836.7 531.0)">07-18</text>
<line x1="881.9" y1="516.0" x2="881.9" y2="519.0" stroke="#999"/>
<text x="881.9" y="531.0" text-anchor="end" fill="#e8731a" transform="rotate(-50 881.9 531.0)">07-19</text>
<line x1="927.1" y1="516.0" x2="927.1" y2="519.0" stroke="#999"/>
<text x="927.1" y="531.0" text-anchor="end" fill="#e8731a" transform="rotate(-50 927.1 531.0)">07-20</text>
<line x1="972.3" y1="516.0" x2="972.3" y2="519.0" stroke="#999"/>
<text x="972.3" y="531.0" text-anchor="end" fill="#e8731a" transform="rotate(-50 972.3 531.0)">07-21</text>
<line x1="1017.6" y1="516.0" x2="1017.6" y2="519.0" stroke="#999"/>
<text x="1017.6" y="531.0" text-anchor="end" fill="#e8731a" transform="rotate(-50 1017.6 531.0)">07-22</text>
<line x1="1062.8" y1="516.0" x2="1062.8" y2="519.0" stroke="#999"/>
<text x="1062.8" y="531.0" text-anchor="end" fill="#e8731a" transform="rotate(-50 1062.8 531.0)">07-23</text>
<line x1="1108.0" y1="516.0" x2="1108.0" y2="519.0" stroke="#999"/>
<text x="1108.0" y="531.0" text-anchor="end" fill="#e8731a" transform="rotate(-50 1108.0 531.0)">07-24</text>
<polygon points="68.0,463.7 113.2,463.2 158.4,463.2 203.7,463.8 248.9,462.8 294.1,464.5 339.3,463.2 384.5,464.5 429.7,462.8 475.0,463.8 520.2,462.8 565.4,463.6 610.6,464.0 655.8,463.6 701.0,466.2 746.3,465.5 791.5,465.0 836.7,470.7 881.9,471.0 927.1,471.0 972.3,471.6 1017.6,470.5 1062.8,471.0 1108.0,472.1 1108.0,516.0 1062.8,516.0 1017.6,516.0 972.3,516.0 927.1,516.0 881.9,516.0 836.7,516.0 791.5,516.0 746.3,516.0 701.0,516.0 655.8,516.0 610.6,516.0 565.4,516.0 520.2,516.0 475.0,516.0 429.7,516.0 384.5,516.0 339.3,516.0 294.1,516.0 248.9,516.0 203.7,516.0 158.4,516.0 113.2,516.0 68.0,516.0" fill="#c7e9c0" fill-opacity="0.9" stroke="#fff" stroke-width="0.4"><title>api_module_graph — apiCreateGlobalSession</title></polygon>
<polygon points="68.0,463.7 113.2,463.1 158.4,463.2 203.7,463.8 248.9,462.8 294.1,464.5 339.3,463.1 384.5,464.5 429.7,462.8 475.0,463.7 520.2,462.8 565.4,463.6 610.6,464.0 655.8,463.6 701.0,466.2 746.3,465.4 791.5,465.0 836.7,470.6 881.9,471.0 927.1,471.0 972.3,471.6 1017.6,470.5 1062.8,471.0 1108.0,472.0 1108.0,472.1 1062.8,471.0 1017.6,470.5 972.3,471.6 927.1,471.0 881.9,471.0 836.7,470.7 791.5,465.0 746.3,465.5 701.0,466.2 655.8,463.6 610.6,464.0 565.4,463.6 520.2,462.8 475.0,463.8 429.7,462.8 384.5,464.5 339.3,463.2 294.1,464.5 248.9,462.8 203.7,463.8 158.4,463.2 113.2,463.2 68.0,463.7" fill="#41ab5d" fill-opacity="0.9" stroke="#fff" stroke-width="0.4"><title>api_module_graph — apiCreateSession</title></polygon>
<polygon points="68.0,163.2 113.2,161.0 158.4,162.4 203.7,165.2 248.9,152.9 294.1,155.0 339.3,155.9 384.5,155.8 429.7,156.2 475.0,153.1 520.2,149.2 565.4,151.2 610.6,153.1 655.8,169.2 701.0,170.5 746.3,121.4 791.5,121.5 836.7,173.7 881.9,171.3 927.1,173.9 972.3,169.9 1017.6,173.9 1062.8,174.6 1108.0,176.5 1108.0,472.0 1062.8,471.0 1017.6,470.5 972.3,471.6 927.1,471.0 881.9,471.0 836.7,470.6 791.5,465.0 746.3,465.4 701.0,466.2 655.8,463.6 610.6,464.0 565.4,463.6 520.2,462.8 475.0,463.7 429.7,462.8 384.5,464.5 339.3,463.1 294.1,464.5 248.9,462.8 203.7,463.8 158.4,463.2 113.2,463.1 68.0,463.7" fill="#2171b5" fill-opacity="0.9" stroke="#fff" stroke-width="0.4"><title>api_module_graph — apiLoadModule</title></polygon>
<polygon points="68.0,163.2 113.2,161.0 158.4,162.4 203.7,165.2 248.9,152.9 294.1,155.0 339.3,155.9 384.5,155.8 429.7,156.2 475.0,153.1 520.2,149.2 565.4,151.1 610.6,153.1 655.8,169.2 701.0,170.5 746.3,121.4 791.5,121.5 836.7,173.7 881.9,171.3 927.1,173.9 972.3,169.9 1017.6,173.9 1062.8,174.6 1108.0,176.5 1108.0,176.5 1062.8,174.6 1017.6,173.9 972.3,169.9 927.1,173.9 881.9,171.3 836.7,173.7 791.5,121.5 746.3,121.4 701.0,170.5 655.8,169.2 610.6,153.1 565.4,151.2 520.2,149.2 475.0,153.1 429.7,156.2 384.5,155.8 339.3,155.9 294.1,155.0 248.9,152.9 203.7,165.2 158.4,162.4 113.2,161.0 68.0,163.2" fill="#6baed6" fill-opacity="0.9" stroke="#fff" stroke-width="0.4"><title>api_module_graph — apiFindEntryPoint</title></polygon>
<polygon points="68.0,163.2 113.2,161.0 158.4,162.3 203.7,165.1 248.9,152.9 294.1,155.0 339.3,155.8 384.5,155.7 429.7,156.1 475.0,153.1 520.2,149.1 565.4,151.1 610.6,153.1 655.8,169.2 701.0,170.5 746.3,121.3 791.5,121.4 836.7,173.7 881.9,171.3 927.1,173.8 972.3,169.8 1017.6,173.9 1062.8,174.6 1108.0,176.5 1108.0,176.5 1062.8,174.6 1017.6,173.9 972.3,169.9 927.1,173.9 881.9,171.3 836.7,173.7 791.5,121.5 746.3,121.4 701.0,170.5 655.8,169.2 610.6,153.1 565.4,151.1 520.2,149.2 475.0,153.1 429.7,156.2 384.5,155.8 339.3,155.9 294.1,155.0 248.9,152.9 203.7,165.2 158.4,162.4 113.2,161.0 68.0,163.2" fill="#9e9ac8" fill-opacity="0.9" stroke="#fff" stroke-width="0.4"><title>api_module_graph — apiComposite</title></polygon>
<polygon points="68.0,162.3 113.2,160.1 158.4,161.5 203.7,164.3 248.9,152.0 294.1,154.1 339.3,155.0 384.5,154.8 429.7,155.3 475.0,152.2 520.2,148.4 565.4,150.2 610.6,152.3 655.8,168.1 701.0,169.4 746.3,120.3 791.5,120.4 836.7,172.7 881.9,170.3 927.1,172.9 972.3,168.9 1017.6,172.9 1062.8,173.6 1108.0,175.5 1108.0,176.5 1062.8,174.6 1017.6,173.9 972.3,169.8 927.1,173.8 881.9,171.3 836.7,173.7 791.5,121.4 746.3,121.3 701.0,170.5 655.8,169.2 610.6,153.1 565.4,151.1 520.2,149.1 475.0,153.1 429.7,156.1 384.5,155.7 339.3,155.8 294.1,155.0 248.9,152.9 203.7,165.1 158.4,162.3 113.2,161.0 68.0,163.2" fill="#6a51a3" fill-opacity="0.9" stroke="#fff" stroke-width="0.4"><title>api_module_graph — apiLink</title></polygon>
<polygon points="68.0,148.5 113.2,146.6 158.4,148.2 203.7,150.4 248.9,137.5 294.1,140.2 339.3,140.9 384.5,141.8 429.7,141.8 475.0,139.1 520.2,135.0 565.4,137.7 610.6,138.6 655.8,156.6 701.0,158.0 746.3,109.1 791.5,109.2 836.7,163.0 881.9,161.1 927.1,163.5 972.3,159.5 1017.6,163.2 1062.8,164.6 1108.0,166.2 1108.0,175.5 1062.8,173.6 1017.6,172.9 972.3,168.9 927.1,172.9 881.9,170.3 836.7,172.7 791.5,120.4 746.3,120.3 701.0,169.4 655.8,168.1 610.6,152.3 565.4,150.2 520.2,148.4 475.0,152.2 429.7,155.3 384.5,154.8 339.3,155.0 294.1,154.1 248.9,152.0 203.7,164.3 158.4,161.5 113.2,160.1 68.0,162.3" fill="#fd8d3c" fill-opacity="0.9" stroke="#fff" stroke-width="0.4"><title>api_module_graph — apiGetCode</title></polygon>
<polygon points="68.0,147.8 113.2,145.4 158.4,147.5 203.7,149.9 248.9,136.7 294.1,139.0 339.3,139.3 384.5,141.8 429.7,141.6 475.0,138.6 520.2,134.5 565.4,137.2 610.6,138.6 655.8,156.6 701.0,157.1 746.3,108.6 791.5,109.2 836.7,162.5 881.9,160.2 927.1,161.3 972.3,159.3 1017.6,162.2 1062.8,162.5 1108.0,166.2 1108.0,166.2 1062.8,164.6 1017.6,163.2 972.3,159.5 927.1,163.5 881.9,161.1 836.7,163.0 791.5,109.2 746.3,109.1 701.0,158.0 655.8,156.6 610.6,138.6 565.4,137.7 520.2,135.0 475.0,139.1 429.7,141.8 384.5,141.8 339.3,140.9 294.1,140.2 248.9,137.5 203.7,150.4 158.4,148.2 113.2,146.6 68.0,148.5" fill="#969696" fill-opacity="0.9" stroke="#fff" stroke-width="0.4"><title>api_module_graph — apiTotal (self)</title></polygon>
<text x="12" y="578" fill="#666" font-weight="600">phase buckets</text>
<rect x="12" y="586" width="12" height="12" fill="#c7e9c0"/>
<text x="28" y="596" fill="#222">apiCreateGlobalSession</text>
<rect x="289" y="586" width="12" height="12" fill="#41ab5d"/>
<text x="305" y="596" fill="#222">apiCreateSession</text>
<rect x="566" y="586" width="12" height="12" fill="#2171b5"/>
<text x="582" y="596" fill="#222">apiLoadModule</text>
<rect x="843" y="586" width="12" height="12" fill="#6baed6"/>
<text x="859" y="596" fill="#222">apiFindEntryPoint</text>
<rect x="12" y="604" width="12" height="12" fill="#9e9ac8"/>
<text x="28" y="614" fill="#222">apiComposite</text>
<rect x="289" y="604" width="12" height="12" fill="#807dba"/>
<text x="305" y="614" fill="#222">apiSpecialize</text>
<rect x="566" y="604" width="12" height="12" fill="#6a51a3"/>
<text x="582" y="614" fill="#222">apiLink</text>
<rect x="843" y="604" width="12" height="12" fill="#fd8d3c"/>
<text x="859" y="614" fill="#222">apiGetCode</text>
<rect x="12" y="622" width="12" height="12" fill="#b5bdc4"/>
<text x="28" y="632" fill="#222">apiReflection</text>
<rect x="289" y="622" width="12" height="12" fill="#969696"/>
<text x="305" y="632" fill="#222">apiTotal (self)</text>
</svg>