<svg xmlns="http://www.w3.org/2000/svg" xmlns:xlink="http://www.w3.org/1999/xlink" width="1132" height="662" viewBox="0 0 1132 662" preserveAspectRatio="xMidYMid meet" font-family="sans-serif" font-size="13">
<rect width="1132" height="662" fill="white"/>
<text x="12" y="30" font-size="20" font-weight="bold">api_session_create — Across releases (median ms)</text>
<text x="68" y="60" font-size="15" font-weight="600" fill="#1a1a1a">api_session_create<tspan fill="#888" font-weight="400" text-decoration="none">  0.25×</tspan></text>
<line x1="68.0" y1="516.0" x2="1108.0" y2="516.0" stroke="#eee"/>
<text x="64.0" y="519.0" text-anchor="end" fill="#999">0.0</text>
<line x1="68.0" y1="296.0" x2="1108.0" y2="296.0" stroke="#eee"/>
<text x="64.0" y="299.0" text-anchor="end" fill="#999">1688</text>
<line x1="68.0" y1="76.0" x2="1108.0" y2="76.0" stroke="#eee"/>
<text x="64.0" y="79.0" text-anchor="end" fill="#999">3375</text>
<line x1="68.0" y1="76.0" x2="68.0" y2="516.0" stroke="#333"/>
<line x1="68.0" y1="516.0" x2="1108.0" y2="516.0" stroke="#333"/>
<line x1="68.0" y1="516.0" x2="68.0" y2="519.0" stroke="#999"/>
<text x="68.0" y="531.0" text-anchor="end" fill="#666" transform="rotate(-50 68.0 531.0)">25.12</text>
<line x1="108.0" y1="516.0" x2="108.0" y2="519.0" stroke="#999"/>
<text x="108.0" y="531.0" text-anchor="end" fill="#666" transform="rotate(-50 108.0 531.0)">25.13</text>
<line x1="148.0" y1="516.0" x2="148.0" y2="519.0" stroke="#999"/>
<text x="148.0" y="531.0" text-anchor="end" fill="#666" transform="rotate(-50 148.0 531.0)">25.14</text>
<line x1="188.0" y1="516.0" x2="188.0" y2="519.0" stroke="#999"/>
<text x="188.0" y="531.0" text-anchor="end" fill="#666" transform="rotate(-50 188.0 531.0)">25.15</text>
<line x1="228.0" y1="516.0" x2="228.0" y2="519.0" stroke="#999"/>
<text x="228.0" y="531.0" text-anchor="end" fill="#666" transform="rotate(-50 228.0 531.0)">25.16</text>
<line x1="268.0" y1="516.0" x2="268.0" y2="519.0" stroke="#999"/>
<text x="268.0" y="531.0" text-anchor="end" fill="#666" transform="rotate(-50 268.0 531.0)">25.17</text>
<line x1="308.0" y1="516.0" x2="308.0" y2="519.0" stroke="#999"/>
<text x="308.0" y="531.0" text-anchor="end" fill="#666" transform="rotate(-50 308.0 531.0)">25.18</text>
<line x1="348.0" y1="516.0" x2="348.0" y2="519.0" stroke="#999"/>
<text x="348.0" y="531.0" text-anchor="end" fill="#666" transform="rotate(-50 348.0 531.0)">25.19</text>
<line x1="388.0" y1="516.0" x2="388.0" y2="519.0" stroke="#999"/>
<text x="388.0" y="531.0" text-anchor="end" fill="#666" transform="rotate(-50 388.0 531.0)">25.20</text>
<line x1="428.0" y1="516.0" x2="428.0" y2="519.0" stroke="#999"/>
<text x="428.0" y="531.0" text-anchor="end" fill="#666" transform="rotate(-50 428.0 531.0)">25.21</text>
<line x1="468.0" y1="516.0" x2="468.0" y2="519.0" stroke="#999"/>
<text x="468.0" y="531.0" text-anchor="end" fill="#666" transform="rotate(-50 468.0 531.0)">25.22</text>
<line x1="508.0" y1="516.0" x2="508.0" y2="519.0" stroke="#999"/>
<text x="508.0" y="531.0" text-anchor="end" fill="#666" transform="rotate(-50 508.0 531.0)">25.23</text>
<line x1="548.0" y1="516.0" x2="548.0" y2="519.0" stroke="#999"/>
<text x="548.0" y="531.0" text-anchor="end" fill="#666" transform="rotate(-50 548.0 531.0)">25.24</text>
<line x1="588.0" y1="516.0" x2="588.0" y2="519.0" stroke="#999"/>
<text x="588.0" y="531.0" text-anchor="end" fill="#666" transform="rotate(-50 588.0 531.0)">26.1</text>
<line x1="628.0" y1="516.0" x2="628.0" y2="519.0" stroke="#999"/>
<text x="628.0" y="531.0" text-anchor="end" fill="#666" transform="rotate(-50 628.0 531.0)">26.2</text>
<line x1="668.0" y1="516.0" x2="668.0" y2="519.0" stroke="#999"/>
<text x="668.0" y="531.0" text-anchor="end" fill="#666" transform="rotate(-50 668.0 531.0)">26.3</text>
<line x1="708.0" y1="516.0" x2="708.0" y2="519.0" stroke="#999"/>
<text x="708.0" y="531.0" text-anchor="end" fill="#666" transform="rotate(-50 708.0 531.0)">26.4</text>
<line x1="748.0" y1="516.0" x2="748.0" y2="519.0" stroke="#999"/>
<text x="748.0" y="531.0" text-anchor="end" fill="#666" transform="rotate(-50 748.0 531.0)">26.5</text>
<line x1="788.0" y1="516.0" x2="788.0" y2="519.0" stroke="#999"/>
<text x="788.0" y="531.0" text-anchor="end" fill="#666" transform="rotate(-50 788.0 531.0)">26.7</text>
<line x1="828.0" y1="516.0" x2="828.0" y2="519.0" stroke="#999"/>
<text x="828.0" y="531.0" text-anchor="end" fill="#666" transform="rotate(-50 828.0 531.0)">26.8</text>
<line x1="868.0" y1="516.0" x2="868.0" y2="519.0" stroke="#999"/>
<text x="868.0" y="531.0" text-anchor="end" fill="#666" transform="rotate(-50 868.0 531.0)">26.9</text>
<line x1="908.0" y1="516.0" x2="908.0" y2="519.0" stroke="#999"/>
<text x="908.0" y="531.0" text-anchor="end" fill="#666" transform="rotate(-50 908.0 531.0)">26.10</text>
<line x1="948.0" y1="516.0" x2="948.0" y2="519.0" stroke="#999"/>
<text x="948.0" y="531.0" text-anchor="end" fill="#666" transform="rotate(-50 948.0 531.0)">26.11</text>
<line x1="988.0" y1="516.0" x2="988.0" y2="519.0" stroke="#999"/>
<text x="988.0" y="531.0" text-anchor="end" fill="#666" transform="rotate(-50 988.0 531.0)">26.12</text>
<line x1="1028.0" y1="516.0" x2="1028.0" y2="519.0" stroke="#999"/>
<text x="1028.0" y="531.0" text-anchor="end" fill="#666" transform="rotate(-50 1028.0 531.0)">26.13</text>
<line x1="1068.0" y1="516.0" x2="1068.0" y2="519.0" stroke="#999"/>
<text x="1068.0" y="531.0" text-anchor="end" fill="#666" transform="rotate(-50 1068.0 531.0)">26.13.1</text>
<line x1="1108.0" y1="516.0" x2="1108.0" y2="519.0" stroke="#999"/>
<text x="1108.0" y="531.0" text-anchor="end" fill="#666" transform="rotate(-50 1108.0 531.0)">26.14</text>
<polygon points="68.0,174.7 108.0,199.1 148.0,161.7 188.0,421.0 228.0,423.8 268.0,429.3 308.0,428.5 348.0,428.5 388.0,429.5 428.0,428.0 468.0,460.8 508.0,462.3 548.0,462.4 588.0,460.2 628.0,459.0 668.0,458.2 708.0,456.2 748.0,459.9 788.0,358.5 828.0,374.4 868.0,374.8 908.0,352.9 948.0,355.9 988.0,371.7 1028.0,372.8 1068.0,372.2 1108.0,419.8 1108.0,516.0 1068.0,516.0 1028.0,516.0 988.0,516.0 948.0,516.0 908.0,516.0 868.0,516.0 828.0,516.0 788.0,516.0 748.0,516.0 708.0,516.0 668.0,516.0 628.0,516.0 588.0,516.0 548.0,516.0 508.0,516.0 468.0,516.0 428.0,516.0 388.0,516.0 348.0,516.0 308.0,516.0 268.0,516.0 228.0,516.0 188.0,516.0 148.0,516.0 108.0,516.0 68.0,516.0" fill="#c7e9c0" fill-opacity="0.9" stroke="#fff" stroke-width="0.4"><title>api_session_create — apiCreateGlobalSession</title></polygon>
<polygon points="68.0,174.2 108.0,198.8 148.0,161.6 188.0,421.0 228.0,423.7 268.0,429.3 308.0,428.4 348.0,428.4 388.0,429.4 428.0,428.0 468.0,460.8 508.0,462.3 548.0,462.4 588.0,460.1 628.0,458.9 668.0,458.2 708.0,456.2 748.0,459.9 788.0,358.5 828.0,374.3 868.0,374.8 908.0,352.9 948.0,355.9 988.0,371.7 1028.0,372.8 1068.0,372.2 1108.0,419.8 1108.0,419.8 1068.0,372.2 1028.0,372.8 988.0,371.7 948.0,355.9 908.0,352.9 868.0,374.8 828.0,374.4 788.0,358.5 748.0,459.9 708.0,456.2 668.0,458.2 628.0,459.0 588.0,460.2 548.0,462.4 508.0,462.3 468.0,460.8 428.0,428.0 388.0,429.5 348.0,428.5 308.0,428.5 268.0,429.3 228.0,423.8 188.0,421.0 148.0,161.7 108.0,199.1 68.0,174.7" fill="#41ab5d" fill-opacity="0.9" stroke="#fff" stroke-width="0.4"><title>api_session_create — apiCreateSession</title></polygon>
<polygon points="68.0,120.0 108.0,154.1 148.0,108.6 188.0,409.3 228.0,412.9 268.0,420.2 308.0,419.3 348.0,419.3 388.0,420.2 428.0,418.7 468.0,456.9 508.0,458.5 548.0,458.3 588.0,456.4 628.0,455.0 668.0,454.1 708.0,451.5 748.0,455.8 788.0,336.6 828.0,356.3 868.0,356.1 908.0,331.9 948.0,332.3 988.0,352.1 1028.0,353.2 1068.0,352.3 1108.0,416.4 1108.0,419.8 1068.0,372.2 1028.0,372.8 988.0,371.7 948.0,355.9 908.0,352.9 868.0,374.8 828.0,374.3 788.0,358.5 748.0,459.9 708.0,456.2 668.0,458.2 628.0,458.9 588.0,460.1 548.0,462.4 508.0,462.3 468.0,460.8 428.0,428.0 388.0,429.4 348.0,428.4 308.0,428.4 268.0,429.3 228.0,423.7 188.0,421.0 148.0,161.6 108.0,198.8 68.0,174.2" fill="#969696" fill-opacity="0.9" stroke="#fff" stroke-width="0.4"><title>api_session_create — apiTotal (self)</title></polygon>
<text x="12" y="578" fill="#666" font-weight="600">phase buckets</text>
<rect x="12" y="586" width="12" height="12" fill="#c7e9c0"/>
<text x="28" y="596" fill="#222">apiCreateGlobalSession</text>
<rect x="289" y="586" width="12" height="12" fill="#41ab5d"/>
<text x="305" y="596" fill="#222">apiCreateSession</text>
<rect x="566" y="586" width="12" height="12" fill="#2171b5"/>
<text x="582" y="596" fill="#222">apiLoadModule</text>
<rect x="843" y="586" width="12" height="12" fill="#6baed6"/>
<text x="859" y="596" fill="#222">apiFindEntryPoint</text>
<rect x="12" y="604" width="12" height="12" fill="#9e9ac8"/>
<text x="28" y="614" fill="#222">apiComposite</text>
<rect x="289" y="604" width="12" height="12" fill="#807dba"/>
<text x="305" y="614" fill="#222">apiSpecialize</text>
<rect x="566" y="604" width="12" height="12" fill="#6a51a3"/>
<text x="582" y="614" fill="#222">apiLink</text>
<rect x="843" y="604" width="12" height="12" fill="#fd8d3c"/>
<text x="859" y="614" fill="#222">apiGetCode</text>
<rect x="12" y="622" width="12" height="12" fill="#b5bdc4"/>
<text x="28" y="632" fill="#222">apiReflection</text>
<rect x="289" y="622" width="12" height="12" fill="#969696"/>
<text x="305" y="632" fill="#222">apiTotal (self)</text>
</svg>