<svg xmlns="http://www.w3.org/2000/svg" xmlns:xlink="http://www.w3.org/1999/xlink" width="1132" height="662" viewBox="0 0 1132 662" preserveAspectRatio="xMidYMid meet" font-family="sans-serif" font-size="13">
<rect width="1132" height="662" fill="white"/>
<text x="12" y="30" font-size="20" font-weight="bold">api_specialize — Daily tip-of-tree (last 30 days) (median ms)</text>
<text x="68" y="60" font-size="15" font-weight="600" fill="#1a1a1a">api_specialize<tspan fill="#888" font-weight="400" text-decoration="none">  0.65×</tspan></text>
<line x1="68.0" y1="516.0" x2="1108.0" y2="516.0" stroke="#eee"/>
<text x="64.0" y="519.0" text-anchor="end" fill="#999">0.0</text>
<line x1="68.0" y1="296.0" x2="1108.0" y2="296.0" stroke="#eee"/>
<text x="64.0" y="299.0" text-anchor="end" fill="#999">238</text>
<line x1="68.0" y1="76.0" x2="1108.0" y2="76.0" stroke="#eee"/>
<text x="64.0" y="79.0" text-anchor="end" fill="#999">477</text>
<line x1="68.0" y1="76.0" x2="68.0" y2="516.0" stroke="#333"/>
<line x1="68.0" y1="516.0" x2="1108.0" y2="516.0" stroke="#333"/>
<line x1="68.0" y1="516.0" x2="68.0" y2="519.0" stroke="#999"/>
<text x="68.0" y="531.0" text-anchor="end" fill="#e8731a" transform="rotate(-50 68.0 531.0)">06-25</text>
<line x1="133.0" y1="516.0" x2="133.0" y2="519.0" stroke="#999"/>
<text x="133.0" y="531.0" text-anchor="end" fill="#e8731a" transform="rotate(-50 133.0 531.0)">06-26</text>
<line x1="198.0" y1="516.0" x2="198.0" y2="519.0" stroke="#999"/>
<text x="198.0" y="531.0" text-anchor="end" fill="#e8731a" transform="rotate(-50 198.0 531.0)">06-28</text>
<line x1="263.0" y1="516.0" x2="263.0" y2="519.0" stroke="#999"/>
<text x="263.0" y="531.0" text-anchor="end" fill="#e8731a" transform="rotate(-50 263.0 531.0)">07-01</text>
<line x1="328.0" y1="516.0" x2="328.0" y2="519.0" stroke="#999"/>
<text x="328.0" y="531.0" text-anchor="end" fill="#e8731a" transform="rotate(-50 328.0 531.0)">07-02</text>
<line x1="393.0" y1="516.0" x2="393.0" y2="519.0" stroke="#999"/>
<text x="393.0" y="531.0" text-anchor="end" fill="#e8731a" transform="rotate(-50 393.0 531.0)">07-03</text>
<line x1="458.0" y1="516.0" x2="458.0" y2="519.0" stroke="#999"/>
<text x="458.0" y="531.0" text-anchor="end" fill="#e8731a" transform="rotate(-50 458.0 531.0)">07-06</text>
<line x1="523.0" y1="516.0" x2="523.0" y2="519.0" stroke="#999"/>
<text x="523.0" y="531.0" text-anchor="end" fill="#e8731a" transform="rotate(-50 523.0 531.0)">07-07</text>
<line x1="588.0" y1="516.0" x2="588.0" y2="519.0" stroke="#999"/>
<text x="588.0" y="531.0" text-anchor="end" fill="#e8731a" transform="rotate(-50 588.0 531.0)">07-08</text>
<line x1="653.0" y1="516.0" x2="653.0" y2="519.0" stroke="#999"/>
<text x="653.0" y="531.0" text-anchor="end" fill="#e8731a" transform="rotate(-50 653.0 531.0)">07-09</text>
<line x1="718.0" y1="516.0" x2="718.0" y2="519.0" stroke="#999"/>
<text x="718.0" y="531.0" text-anchor="end" fill="#e8731a" transform="rotate(-50 718.0 531.0)">07-10</text>
<line x1="783.0" y1="516.0" x2="783.0" y2="519.0" stroke="#999"/>
<text x="783.0" y="531.0" text-anchor="end" fill="#e8731a" transform="rotate(-50 783.0 531.0)">07-11</text>
<line x1="848.0" y1="516.0" x2="848.0" y2="519.0" stroke="#999"/>
<text x="848.0" y="531.0" text-anchor="end" fill="#e8731a" transform="rotate(-50 848.0 531.0)">07-14</text>
<line x1="913.0" y1="516.0" x2="913.0" y2="519.0" stroke="#999"/>
<text x="913.0" y="531.0" text-anchor="end" fill="#e8731a" transform="rotate(-50 913.0 531.0)">07-15</text>
<line x1="978.0" y1="516.0" x2="978.0" y2="519.0" stroke="#999"/>
<text x="978.0" y="531.0" text-anchor="end" fill="#e8731a" transform="rotate(-50 978.0 531.0)">07-15</text>
<line x1="1043.0" y1="516.0" x2="1043.0" y2="519.0" stroke="#999"/>
<text x="1043.0" y="531.0" text-anchor="end" fill="#e8731a" transform="rotate(-50 1043.0 531.0)">07-16</text>
<line x1="1108.0" y1="516.0" x2="1108.0" y2="519.0" stroke="#999"/>
<text x="1108.0" y="531.0" text-anchor="end" fill="#e8731a" transform="rotate(-50 1108.0 531.0)">07-17</text>
<polygon points="68.0,410.7 133.0,409.7 198.0,405.5 263.0,408.7 328.0,409.1 393.0,411.5 458.0,407.9 523.0,410.5 588.0,409.3 653.0,411.9 718.0,409.2 783.0,412.6 848.0,411.0 913.0,414.1 978.0,416.3 1043.0,413.4 1108.0,411.8 1108.0,516.0 1043.0,516.0 978.0,516.0 913.0,516.0 848.0,516.0 783.0,516.0 718.0,516.0 653.0,516.0 588.0,516.0 523.0,516.0 458.0,516.0 393.0,516.0 328.0,516.0 263.0,516.0 198.0,516.0 133.0,516.0 68.0,516.0" fill="#c7e9c0" fill-opacity="0.9" stroke="#fff" stroke-width="0.4"><title>api_specialize — apiCreateGlobalSession</title></polygon>
<polygon points="68.0,410.6 133.0,409.7 198.0,405.5 263.0,408.7 328.0,409.0 393.0,411.4 458.0,407.8 523.0,410.5 588.0,409.3 653.0,411.8 718.0,409.2 783.0,412.6 848.0,411.0 913.0,414.0 978.0,416.3 1043.0,413.3 1108.0,411.8 1108.0,411.8 1043.0,413.4 978.0,416.3 913.0,414.1 848.0,411.0 783.0,412.6 718.0,409.2 653.0,411.9 588.0,409.3 523.0,410.5 458.0,407.9 393.0,411.5 328.0,409.1 263.0,408.7 198.0,405.5 133.0,409.7 68.0,410.7" fill="#41ab5d" fill-opacity="0.9" stroke="#fff" stroke-width="0.4"><title>api_specialize — apiCreateSession</title></polygon>
<polygon points="68.0,394.0 133.0,393.3 198.0,389.1 263.0,392.0 328.0,392.1 393.0,394.8 458.0,391.3 523.0,394.0 588.0,392.6 653.0,394.7 718.0,392.2 783.0,396.1 848.0,394.3 913.0,398.6 978.0,400.7 1043.0,397.0 1108.0,395.4 1108.0,411.8 1043.0,413.3 978.0,416.3 913.0,414.0 848.0,411.0 783.0,412.6 718.0,409.2 653.0,411.8 588.0,409.3 523.0,410.5 458.0,407.8 393.0,411.4 328.0,409.0 263.0,408.7 198.0,405.5 133.0,409.7 68.0,410.6" fill="#2171b5" fill-opacity="0.9" stroke="#fff" stroke-width="0.4"><title>api_specialize — apiLoadModule</title></polygon>
<polygon points="68.0,393.8 133.0,393.1 198.0,388.9 263.0,391.9 328.0,392.0 393.0,394.6 458.0,391.1 523.0,393.8 588.0,392.4 653.0,394.5 718.0,392.0 783.0,395.9 848.0,394.2 913.0,398.5 978.0,400.5 1043.0,396.8 1108.0,395.3 1108.0,395.4 1043.0,397.0 978.0,400.7 913.0,398.6 848.0,394.3 783.0,396.1 718.0,392.2 653.0,394.7 588.0,392.6 523.0,394.0 458.0,391.3 393.0,394.8 328.0,392.1 263.0,392.0 198.0,389.1 133.0,393.3 68.0,394.0" fill="#9e9ac8" fill-opacity="0.9" stroke="#fff" stroke-width="0.4"><title>api_specialize — apiComposite</title></polygon>
<polygon points="68.0,383.5 133.0,382.8 198.0,378.7 263.0,381.3 328.0,381.3 393.0,383.5 458.0,380.4 523.0,382.8 588.0,381.8 653.0,384.0 718.0,381.2 783.0,384.7 848.0,384.0 913.0,390.7 978.0,392.8 1043.0,388.9 1108.0,387.4 1108.0,395.3 1043.0,396.8 978.0,400.5 913.0,398.5 848.0,394.2 783.0,395.9 718.0,392.0 653.0,394.5 588.0,392.4 523.0,393.8 458.0,391.1 393.0,394.6 328.0,392.0 263.0,391.9 198.0,388.9 133.0,393.1 68.0,393.8" fill="#807dba" fill-opacity="0.9" stroke="#fff" stroke-width="0.4"><title>api_specialize — apiSpecialize</title></polygon>
<polygon points="68.0,383.5 133.0,382.8 198.0,378.7 263.0,381.3 328.0,381.3 393.0,383.5 458.0,380.4 523.0,382.8 588.0,381.7 653.0,383.9 718.0,381.2 783.0,384.7 848.0,384.0 913.0,390.7 978.0,392.8 1043.0,388.9 1108.0,387.4 1108.0,387.4 1043.0,388.9 978.0,392.8 913.0,390.7 848.0,384.0 783.0,384.7 718.0,381.2 653.0,384.0 588.0,381.8 523.0,382.8 458.0,380.4 393.0,383.5 328.0,381.3 263.0,381.3 198.0,378.7 133.0,382.8 68.0,383.5" fill="#6a51a3" fill-opacity="0.9" stroke="#fff" stroke-width="0.4"><title>api_specialize — apiLink</title></polygon>
<polygon points="68.0,116.6 133.0,118.2 198.0,113.5 263.0,117.6 328.0,114.3 393.0,114.9 458.0,115.1 523.0,225.4 588.0,227.0 653.0,230.3 718.0,225.2 783.0,229.2 848.0,228.7 913.0,258.5 978.0,262.7 1043.0,259.5 1108.0,256.3 1108.0,387.4 1043.0,388.9 978.0,392.8 913.0,390.7 848.0,384.0 783.0,384.7 718.0,381.2 653.0,383.9 588.0,381.7 523.0,382.8 458.0,380.4 393.0,383.5 328.0,381.3 263.0,381.3 198.0,378.7 133.0,382.8 68.0,383.5" fill="#fd8d3c" fill-opacity="0.9" stroke="#fff" stroke-width="0.4"><title>api_specialize — apiGetCode</title></polygon>
<polygon points="68.0,114.4 133.0,114.7 198.0,110.5 263.0,113.4 328.0,109.1 393.0,110.8 458.0,108.6 523.0,218.9 588.0,221.9 653.0,224.6 718.0,220.4 783.0,225.1 848.0,226.2 913.0,257.8 978.0,260.6 1043.0,255.8 1108.0,253.2 1108.0,256.3 1043.0,259.5 978.0,262.7 913.0,258.5 848.0,228.7 783.0,229.2 718.0,225.2 653.0,230.3 588.0,227.0 523.0,225.4 458.0,115.1 393.0,114.9 328.0,114.3 263.0,117.6 198.0,113.5 133.0,118.2 68.0,116.6" fill="#969696" fill-opacity="0.9" stroke="#fff" stroke-width="0.4"><title>api_specialize — apiTotal (self)</title></polygon>
<text x="12" y="578" fill="#666" font-weight="600">phase buckets</text>
<rect x="12" y="586" width="12" height="12" fill="#c7e9c0"/>
<text x="28" y="596" fill="#222">apiCreateGlobalSession</text>
<rect x="289" y="586" width="12" height="12" fill="#41ab5d"/>
<text x="305" y="596" fill="#222">apiCreateSession</text>
<rect x="566" y="586" width="12" height="12" fill="#2171b5"/>
<text x="582" y="596" fill="#222">apiLoadModule</text>
<rect x="843" y="586" width="12" height="12" fill="#6baed6"/>
<text x="859" y="596" fill="#222">apiFindEntryPoint</text>
<rect x="12" y="604" width="12" height="12" fill="#9e9ac8"/>
<text x="28" y="614" fill="#222">apiComposite</text>
<rect x="289" y="604" width="12" height="12" fill="#807dba"/>
<text x="305" y="614" fill="#222">apiSpecialize</text>
<rect x="566" y="604" width="12" height="12" fill="#6a51a3"/>
<text x="582" y="614" fill="#222">apiLink</text>
<rect x="843" y="604" width="12" height="12" fill="#fd8d3c"/>
<text x="859" y="614" fill="#222">apiGetCode</text>
<rect x="12" y="622" width="12" height="12" fill="#b5bdc4"/>
<text x="28" y="632" fill="#222">apiReflection</text>
<rect x="289" y="622" width="12" height="12" fill="#969696"/>
<text x="305" y="632" fill="#222">apiTotal (self)</text>
</svg>