<svg xmlns="http://www.w3.org/2000/svg" xmlns:xlink="http://www.w3.org/1999/xlink" width="1132" height="662" viewBox="0 0 1132 662" preserveAspectRatio="xMidYMid meet" font-family="sans-serif" font-size="13">
<rect width="1132" height="662" fill="white"/>
<text x="12" y="30" font-size="20" font-weight="bold">api_specialize — Daily tip-of-tree (last 30 days) (median ms)</text>
<text x="68" y="60" font-size="15" font-weight="600" fill="#1a1a1a">api_specialize<tspan fill="#888" font-weight="400" text-decoration="none">  0.64×</tspan></text>
<line x1="68.0" y1="516.0" x2="1108.0" y2="516.0" stroke="#eee"/>
<text x="64.0" y="519.0" text-anchor="end" fill="#999">0.0</text>
<line x1="68.0" y1="296.0" x2="1108.0" y2="296.0" stroke="#eee"/>
<text x="64.0" y="299.0" text-anchor="end" fill="#999">238</text>
<line x1="68.0" y1="76.0" x2="1108.0" y2="76.0" stroke="#eee"/>
<text x="64.0" y="79.0" text-anchor="end" fill="#999">477</text>
<line x1="68.0" y1="76.0" x2="68.0" y2="516.0" stroke="#333"/>
<line x1="68.0" y1="516.0" x2="1108.0" y2="516.0" stroke="#333"/>
<line x1="68.0" y1="516.0" x2="68.0" y2="519.0" stroke="#999"/>
<text x="68.0" y="531.0" text-anchor="end" fill="#e8731a" transform="rotate(-50 68.0 531.0)">06-25</text>
<line x1="148.0" y1="516.0" x2="148.0" y2="519.0" stroke="#999"/>
<text x="148.0" y="531.0" text-anchor="end" fill="#e8731a" transform="rotate(-50 148.0 531.0)">06-26</text>
<line x1="228.0" y1="516.0" x2="228.0" y2="519.0" stroke="#999"/>
<text x="228.0" y="531.0" text-anchor="end" fill="#e8731a" transform="rotate(-50 228.0 531.0)">06-28</text>
<line x1="308.0" y1="516.0" x2="308.0" y2="519.0" stroke="#999"/>
<text x="308.0" y="531.0" text-anchor="end" fill="#e8731a" transform="rotate(-50 308.0 531.0)">07-01</text>
<line x1="388.0" y1="516.0" x2="388.0" y2="519.0" stroke="#999"/>
<text x="388.0" y="531.0" text-anchor="end" fill="#e8731a" transform="rotate(-50 388.0 531.0)">07-02</text>
<line x1="468.0" y1="516.0" x2="468.0" y2="519.0" stroke="#999"/>
<text x="468.0" y="531.0" text-anchor="end" fill="#e8731a" transform="rotate(-50 468.0 531.0)">07-03</text>
<line x1="548.0" y1="516.0" x2="548.0" y2="519.0" stroke="#999"/>
<text x="548.0" y="531.0" text-anchor="end" fill="#e8731a" transform="rotate(-50 548.0 531.0)">07-06</text>
<line x1="628.0" y1="516.0" x2="628.0" y2="519.0" stroke="#999"/>
<text x="628.0" y="531.0" text-anchor="end" fill="#e8731a" transform="rotate(-50 628.0 531.0)">07-07</text>
<line x1="708.0" y1="516.0" x2="708.0" y2="519.0" stroke="#999"/>
<text x="708.0" y="531.0" text-anchor="end" fill="#e8731a" transform="rotate(-50 708.0 531.0)">07-08</text>
<line x1="788.0" y1="516.0" x2="788.0" y2="519.0" stroke="#999"/>
<text x="788.0" y="531.0" text-anchor="end" fill="#e8731a" transform="rotate(-50 788.0 531.0)">07-09</text>
<line x1="868.0" y1="516.0" x2="868.0" y2="519.0" stroke="#999"/>
<text x="868.0" y="531.0" text-anchor="end" fill="#e8731a" transform="rotate(-50 868.0 531.0)">07-10</text>
<line x1="948.0" y1="516.0" x2="948.0" y2="519.0" stroke="#999"/>
<text x="948.0" y="531.0" text-anchor="end" fill="#e8731a" transform="rotate(-50 948.0 531.0)">07-11</text>
<line x1="1028.0" y1="516.0" x2="1028.0" y2="519.0" stroke="#999"/>
<text x="1028.0" y="531.0" text-anchor="end" fill="#e8731a" transform="rotate(-50 1028.0 531.0)">07-14</text>
<line x1="1108.0" y1="516.0" x2="1108.0" y2="519.0" stroke="#999"/>
<text x="1108.0" y="531.0" text-anchor="end" fill="#e8731a" transform="rotate(-50 1108.0 531.0)">07-15</text>
<polygon points="68.0,410.7 148.0,409.7 228.0,405.5 308.0,408.7 388.0,409.1 468.0,411.5 548.0,407.9 628.0,410.5 708.0,409.3 788.0,411.9 868.0,409.2 948.0,412.6 1028.0,411.0 1108.0,414.1 1108.0,516.0 1028.0,516.0 948.0,516.0 868.0,516.0 788.0,516.0 708.0,516.0 628.0,516.0 548.0,516.0 468.0,516.0 388.0,516.0 308.0,516.0 228.0,516.0 148.0,516.0 68.0,516.0" fill="#c7e9c0" fill-opacity="0.9" stroke="#fff" stroke-width="0.4"><title>api_specialize — apiCreateGlobalSession</title></polygon>
<polygon points="68.0,410.6 148.0,409.7 228.0,405.5 308.0,408.7 388.0,409.0 468.0,411.4 548.0,407.8 628.0,410.5 708.0,409.3 788.0,411.8 868.0,409.2 948.0,412.6 1028.0,411.0 1108.0,414.0 1108.0,414.1 1028.0,411.0 948.0,412.6 868.0,409.2 788.0,411.9 708.0,409.3 628.0,410.5 548.0,407.9 468.0,411.5 388.0,409.1 308.0,408.7 228.0,405.5 148.0,409.7 68.0,410.7" fill="#41ab5d" fill-opacity="0.9" stroke="#fff" stroke-width="0.4"><title>api_specialize — apiCreateSession</title></polygon>
<polygon points="68.0,394.0 148.0,393.3 228.0,389.1 308.0,392.0 388.0,392.1 468.0,394.8 548.0,391.3 628.0,394.0 708.0,392.6 788.0,394.7 868.0,392.2 948.0,396.1 1028.0,394.3 1108.0,398.6 1108.0,414.0 1028.0,411.0 948.0,412.6 868.0,409.2 788.0,411.8 708.0,409.3 628.0,410.5 548.0,407.8 468.0,411.4 388.0,409.0 308.0,408.7 228.0,405.5 148.0,409.7 68.0,410.6" fill="#2171b5" fill-opacity="0.9" stroke="#fff" stroke-width="0.4"><title>api_specialize — apiLoadModule</title></polygon>
<polygon points="68.0,393.8 148.0,393.1 228.0,388.9 308.0,391.9 388.0,392.0 468.0,394.6 548.0,391.1 628.0,393.8 708.0,392.4 788.0,394.5 868.0,392.0 948.0,395.9 1028.0,394.2 1108.0,398.5 1108.0,398.6 1028.0,394.3 948.0,396.1 868.0,392.2 788.0,394.7 708.0,392.6 628.0,394.0 548.0,391.3 468.0,394.8 388.0,392.1 308.0,392.0 228.0,389.1 148.0,393.3 68.0,394.0" fill="#9e9ac8" fill-opacity="0.9" stroke="#fff" stroke-width="0.4"><title>api_specialize — apiComposite</title></polygon>
<polygon points="68.0,383.5 148.0,382.8 228.0,378.7 308.0,381.3 388.0,381.3 468.0,383.5 548.0,380.4 628.0,382.8 708.0,381.8 788.0,384.0 868.0,381.2 948.0,384.7 1028.0,384.0 1108.0,390.7 1108.0,398.5 1028.0,394.2 948.0,395.9 868.0,392.0 788.0,394.5 708.0,392.4 628.0,393.8 548.0,391.1 468.0,394.6 388.0,392.0 308.0,391.9 228.0,388.9 148.0,393.1 68.0,393.8" fill="#807dba" fill-opacity="0.9" stroke="#fff" stroke-width="0.4"><title>api_specialize — apiSpecialize</title></polygon>
<polygon points="68.0,383.5 148.0,382.8 228.0,378.7 308.0,381.3 388.0,381.3 468.0,383.5 548.0,380.4 628.0,382.8 708.0,381.7 788.0,383.9 868.0,381.2 948.0,384.7 1028.0,384.0 1108.0,390.7 1108.0,390.7 1028.0,384.0 948.0,384.7 868.0,381.2 788.0,384.0 708.0,381.8 628.0,382.8 548.0,380.4 468.0,383.5 388.0,381.3 308.0,381.3 228.0,378.7 148.0,382.8 68.0,383.5" fill="#6a51a3" fill-opacity="0.9" stroke="#fff" stroke-width="0.4"><title>api_specialize — apiLink</title></polygon>
<polygon points="68.0,116.6 148.0,118.2 228.0,113.5 308.0,117.6 388.0,114.3 468.0,114.9 548.0,115.1 628.0,225.4 708.0,227.0 788.0,230.3 868.0,225.2 948.0,229.2 1028.0,228.7 1108.0,258.5 1108.0,390.7 1028.0,384.0 948.0,384.7 868.0,381.2 788.0,383.9 708.0,381.7 628.0,382.8 548.0,380.4 468.0,383.5 388.0,381.3 308.0,381.3 228.0,378.7 148.0,382.8 68.0,383.5" fill="#fd8d3c" fill-opacity="0.9" stroke="#fff" stroke-width="0.4"><title>api_specialize — apiGetCode</title></polygon>
<polygon points="68.0,114.4 148.0,114.7 228.0,110.5 308.0,113.4 388.0,109.1 468.0,110.8 548.0,108.6 628.0,218.9 708.0,221.9 788.0,224.6 868.0,220.4 948.0,225.1 1028.0,226.2 1108.0,257.8 1108.0,258.5 1028.0,228.7 948.0,229.2 868.0,225.2 788.0,230.3 708.0,227.0 628.0,225.4 548.0,115.1 468.0,114.9 388.0,114.3 308.0,117.6 228.0,113.5 148.0,118.2 68.0,116.6" fill="#969696" fill-opacity="0.9" stroke="#fff" stroke-width="0.4"><title>api_specialize — apiTotal (self)</title></polygon>
<text x="12" y="578" fill="#666" font-weight="600">phase buckets</text>
<rect x="12" y="586" width="12" height="12" fill="#c7e9c0"/>
<text x="28" y="596" fill="#222">apiCreateGlobalSession</text>
<rect x="289" y="586" width="12" height="12" fill="#41ab5d"/>
<text x="305" y="596" fill="#222">apiCreateSession</text>
<rect x="566" y="586" width="12" height="12" fill="#2171b5"/>
<text x="582" y="596" fill="#222">apiLoadModule</text>
<rect x="843" y="586" width="12" height="12" fill="#6baed6"/>
<text x="859" y="596" fill="#222">apiFindEntryPoint</text>
<rect x="12" y="604" width="12" height="12" fill="#9e9ac8"/>
<text x="28" y="614" fill="#222">apiComposite</text>
<rect x="289" y="604" width="12" height="12" fill="#807dba"/>
<text x="305" y="614" fill="#222">apiSpecialize</text>
<rect x="566" y="604" width="12" height="12" fill="#6a51a3"/>
<text x="582" y="614" fill="#222">apiLink</text>
<rect x="843" y="604" width="12" height="12" fill="#fd8d3c"/>
<text x="859" y="614" fill="#222">apiGetCode</text>
<rect x="12" y="622" width="12" height="12" fill="#b5bdc4"/>
<text x="28" y="632" fill="#222">apiReflection</text>
<rect x="289" y="622" width="12" height="12" fill="#969696"/>
<text x="305" y="632" fill="#222">apiTotal (self)</text>
</svg>