<svg xmlns="http://www.w3.org/2000/svg" xmlns:xlink="http://www.w3.org/1999/xlink" width="1132" height="662" viewBox="0 0 1132 662" preserveAspectRatio="xMidYMid meet" font-family="sans-serif" font-size="13">
<rect width="1132" height="662" fill="white"/>
<text x="12" y="30" font-size="20" font-weight="bold">api_module_graph — full phase breakdown across releases (median ms)</text>
<text x="68" y="60" font-size="15" font-weight="600" fill="#1a1a1a">api_module_graph<tspan fill="#888" font-weight="400" text-decoration="none">  0.99×</tspan></text>
<line x1="68.0" y1="516.0" x2="1108.0" y2="516.0" stroke="#eee"/>
<text x="64.0" y="519.0" text-anchor="end" fill="#999">0.0</text>
<line x1="68.0" y1="296.0" x2="1108.0" y2="296.0" stroke="#eee"/>
<text x="64.0" y="299.0" text-anchor="end" fill="#999">451</text>
<line x1="68.0" y1="76.0" x2="1108.0" y2="76.0" stroke="#eee"/>
<text x="64.0" y="79.0" text-anchor="end" fill="#999">902</text>
<line x1="68.0" y1="76.0" x2="68.0" y2="516.0" stroke="#333"/>
<line x1="68.0" y1="516.0" x2="1108.0" y2="516.0" stroke="#333"/>
<line x1="745.6" y1="76.0" x2="745.6" y2="516.0" stroke="#e8731a" stroke-width="1.2" stroke-dasharray="4 3"/>
<text x="748.6" y="87.0" fill="#e8731a" font-size="11">daily →</text>
<line x1="68.0" y1="516.0" x2="68.0" y2="519.0" stroke="#999"/>
<text x="68.0" y="531.0" text-anchor="end" fill="#666" transform="rotate(-50 68.0 531.0)">25.14</text>
<line x1="99.5" y1="516.0" x2="99.5" y2="519.0" stroke="#999"/>
<text x="99.5" y="531.0" text-anchor="end" fill="#666" transform="rotate(-50 99.5 531.0)">25.15</text>
<line x1="131.0" y1="516.0" x2="131.0" y2="519.0" stroke="#999"/>
<text x="131.0" y="531.0" text-anchor="end" fill="#666" transform="rotate(-50 131.0 531.0)">25.16</text>
<line x1="162.5" y1="516.0" x2="162.5" y2="519.0" stroke="#999"/>
<text x="162.5" y="531.0" text-anchor="end" fill="#666" transform="rotate(-50 162.5 531.0)">25.17</text>
<line x1="194.1" y1="516.0" x2="194.1" y2="519.0" stroke="#999"/>
<text x="194.1" y="531.0" text-anchor="end" fill="#666" transform="rotate(-50 194.1 531.0)">25.18</text>
<line x1="225.6" y1="516.0" x2="225.6" y2="519.0" stroke="#999"/>
<text x="225.6" y="531.0" text-anchor="end" fill="#666" transform="rotate(-50 225.6 531.0)">25.19</text>
<line x1="257.1" y1="516.0" x2="257.1" y2="519.0" stroke="#999"/>
<text x="257.1" y="531.0" text-anchor="end" fill="#666" transform="rotate(-50 257.1 531.0)">25.20</text>
<line x1="288.6" y1="516.0" x2="288.6" y2="519.0" stroke="#999"/>
<text x="288.6" y="531.0" text-anchor="end" fill="#666" transform="rotate(-50 288.6 531.0)">25.21</text>
<line x1="320.1" y1="516.0" x2="320.1" y2="519.0" stroke="#999"/>
<text x="320.1" y="531.0" text-anchor="end" fill="#666" transform="rotate(-50 320.1 531.0)">25.22</text>
<line x1="351.6" y1="516.0" x2="351.6" y2="519.0" stroke="#999"/>
<text x="351.6" y="531.0" text-anchor="end" fill="#666" transform="rotate(-50 351.6 531.0)">25.23</text>
<line x1="383.2" y1="516.0" x2="383.2" y2="519.0" stroke="#999"/>
<text x="383.2" y="531.0" text-anchor="end" fill="#666" transform="rotate(-50 383.2 531.0)">25.24</text>
<line x1="414.7" y1="516.0" x2="414.7" y2="519.0" stroke="#999"/>
<text x="414.7" y="531.0" text-anchor="end" fill="#666" transform="rotate(-50 414.7 531.0)">26.1</text>
<line x1="446.2" y1="516.0" x2="446.2" y2="519.0" stroke="#999"/>
<text x="446.2" y="531.0" text-anchor="end" fill="#666" transform="rotate(-50 446.2 531.0)">26.2</text>
<line x1="477.7" y1="516.0" x2="477.7" y2="519.0" stroke="#999"/>
<text x="477.7" y="531.0" text-anchor="end" fill="#666" transform="rotate(-50 477.7 531.0)">26.3</text>
<line x1="509.2" y1="516.0" x2="509.2" y2="519.0" stroke="#999"/>
<text x="509.2" y="531.0" text-anchor="end" fill="#666" transform="rotate(-50 509.2 531.0)">26.4</text>
<line x1="540.7" y1="516.0" x2="540.7" y2="519.0" stroke="#999"/>
<text x="540.7" y="531.0" text-anchor="end" fill="#666" transform="rotate(-50 540.7 531.0)">26.5</text>
<line x1="572.2" y1="516.0" x2="572.2" y2="519.0" stroke="#999"/>
<text x="572.2" y="531.0" text-anchor="end" fill="#666" transform="rotate(-50 572.2 531.0)">26.7</text>
<line x1="603.8" y1="516.0" x2="603.8" y2="519.0" stroke="#999"/>
<text x="603.8" y="531.0" text-anchor="end" fill="#666" transform="rotate(-50 603.8 531.0)">26.8</text>
<line x1="635.3" y1="516.0" x2="635.3" y2="519.0" stroke="#999"/>
<text x="635.3" y="531.0" text-anchor="end" fill="#666" transform="rotate(-50 635.3 531.0)">26.9</text>
<line x1="666.8" y1="516.0" x2="666.8" y2="519.0" stroke="#999"/>
<text x="666.8" y="531.0" text-anchor="end" fill="#666" transform="rotate(-50 666.8 531.0)">26.10</text>
<line x1="698.3" y1="516.0" x2="698.3" y2="519.0" stroke="#999"/>
<text x="698.3" y="531.0" text-anchor="end" fill="#666" transform="rotate(-50 698.3 531.0)">26.11</text>
<line x1="729.8" y1="516.0" x2="729.8" y2="519.0" stroke="#999"/>
<text x="729.8" y="531.0" text-anchor="end" fill="#666" transform="rotate(-50 729.8 531.0)">26.12</text>
<line x1="761.3" y1="516.0" x2="761.3" y2="519.0" stroke="#999"/>
<text x="761.3" y="531.0" text-anchor="end" fill="#e8731a" transform="rotate(-50 761.3 531.0)">06-25</text>
<line x1="792.8" y1="516.0" x2="792.8" y2="519.0" stroke="#999"/>
<text x="792.8" y="531.0" text-anchor="end" fill="#e8731a" transform="rotate(-50 792.8 531.0)">06-26</text>
<line x1="824.4" y1="516.0" x2="824.4" y2="519.0" stroke="#999"/>
<text x="824.4" y="531.0" text-anchor="end" fill="#e8731a" transform="rotate(-50 824.4 531.0)">06-28</text>
<line x1="855.9" y1="516.0" x2="855.9" y2="519.0" stroke="#999"/>
<text x="855.9" y="531.0" text-anchor="end" fill="#e8731a" transform="rotate(-50 855.9 531.0)">07-01</text>
<line x1="887.4" y1="516.0" x2="887.4" y2="519.0" stroke="#999"/>
<text x="887.4" y="531.0" text-anchor="end" fill="#e8731a" transform="rotate(-50 887.4 531.0)">07-02</text>
<line x1="918.9" y1="516.0" x2="918.9" y2="519.0" stroke="#999"/>
<text x="918.9" y="531.0" text-anchor="end" fill="#e8731a" transform="rotate(-50 918.9 531.0)">07-03</text>
<line x1="950.4" y1="516.0" x2="950.4" y2="519.0" stroke="#999"/>
<text x="950.4" y="531.0" text-anchor="end" fill="#e8731a" transform="rotate(-50 950.4 531.0)">07-07</text>
<line x1="981.9" y1="516.0" x2="981.9" y2="519.0" stroke="#999"/>
<text x="981.9" y="531.0" text-anchor="end" fill="#e8731a" transform="rotate(-50 981.9 531.0)">07-07</text>
<line x1="1013.5" y1="516.0" x2="1013.5" y2="519.0" stroke="#999"/>
<text x="1013.5" y="531.0" text-anchor="end" fill="#e8731a" transform="rotate(-50 1013.5 531.0)">07-09</text>
<line x1="1045.0" y1="516.0" x2="1045.0" y2="519.0" stroke="#999"/>
<text x="1045.0" y="531.0" text-anchor="end" fill="#e8731a" transform="rotate(-50 1045.0 531.0)">07-10</text>
<line x1="1076.5" y1="516.0" x2="1076.5" y2="519.0" stroke="#999"/>
<text x="1076.5" y="531.0" text-anchor="end" fill="#e8731a" transform="rotate(-50 1076.5 531.0)">07-11</text>
<line x1="1108.0" y1="516.0" x2="1108.0" y2="519.0" stroke="#999"/>
<text x="1108.0" y="531.0" text-anchor="end" fill="#e8731a" transform="rotate(-50 1108.0 531.0)">07-11</text>
<polygon points="1076.5,459.4 1108.0,460.4 1108.0,516.0 1076.5,516.0" fill="#c7e9c0" fill-opacity="0.9" stroke="#fff" stroke-width="0.4"><title>api_module_graph — apiCreateGlobalSession</title></polygon>
<polygon points="1076.5,459.4 1108.0,460.4 1108.0,460.4 1076.5,459.4" fill="#41ab5d" fill-opacity="0.9" stroke="#fff" stroke-width="0.4"><title>api_module_graph — apiCreateSession</title></polygon>
<polygon points="1076.5,125.9 1108.0,129.1 1108.0,460.4 1076.5,459.4" fill="#2171b5" fill-opacity="0.9" stroke="#fff" stroke-width="0.4"><title>api_module_graph — apiLoadModule</title></polygon>
<polygon points="1076.5,125.9 1108.0,129.1 1108.0,129.1 1076.5,125.9" fill="#6baed6" fill-opacity="0.9" stroke="#fff" stroke-width="0.4"><title>api_module_graph — apiFindEntryPoint</title></polygon>
<polygon points="1076.5,125.8 1108.0,129.1 1108.0,129.1 1076.5,125.9" fill="#9e9ac8" fill-opacity="0.9" stroke="#fff" stroke-width="0.4"><title>api_module_graph — apiComposite</title></polygon>
<polygon points="1076.5,124.9 1108.0,128.2 1108.0,129.1 1076.5,125.8" fill="#6a51a3" fill-opacity="0.9" stroke="#fff" stroke-width="0.4"><title>api_module_graph — apiLink</title></polygon>
<polygon points="1076.5,110.5 1108.0,114.9 1108.0,128.2 1076.5,124.9" fill="#fd8d3c" fill-opacity="0.9" stroke="#fff" stroke-width="0.4"><title>api_module_graph — apiGetCode</title></polygon>
<polygon points="1076.5,108.6 1108.0,114.4 1108.0,114.9 1076.5,110.5" fill="#969696" fill-opacity="0.9" stroke="#fff" stroke-width="0.4"><title>api_module_graph — apiTotal (self)</title></polygon>
<text x="12" y="578" fill="#666" font-weight="600">phase buckets</text>
<rect x="12" y="586" width="12" height="12" fill="#c7e9c0"/>
<text x="28" y="596" fill="#222">apiCreateGlobalSession</text>
<rect x="289" y="586" width="12" height="12" fill="#41ab5d"/>
<text x="305" y="596" fill="#222">apiCreateSession</text>
<rect x="566" y="586" width="12" height="12" fill="#2171b5"/>
<text x="582" y="596" fill="#222">apiLoadModule</text>
<rect x="843" y="586" width="12" height="12" fill="#6baed6"/>
<text x="859" y="596" fill="#222">apiFindEntryPoint</text>
<rect x="12" y="604" width="12" height="12" fill="#9e9ac8"/>
<text x="28" y="614" fill="#222">apiComposite</text>
<rect x="289" y="604" width="12" height="12" fill="#807dba"/>
<text x="305" y="614" fill="#222">apiSpecialize</text>
<rect x="566" y="604" width="12" height="12" fill="#6a51a3"/>
<text x="582" y="614" fill="#222">apiLink</text>
<rect x="843" y="604" width="12" height="12" fill="#fd8d3c"/>
<text x="859" y="614" fill="#222">apiGetCode</text>
<rect x="12" y="622" width="12" height="12" fill="#b5bdc4"/>
<text x="28" y="632" fill="#222">apiReflection</text>
<rect x="289" y="622" width="12" height="12" fill="#969696"/>
<text x="305" y="632" fill="#222">apiTotal (self)</text>
</svg>