<svg xmlns="http://www.w3.org/2000/svg" xmlns:xlink="http://www.w3.org/1999/xlink" width="1132" height="662" viewBox="0 0 1132 662" preserveAspectRatio="xMidYMid meet" font-family="sans-serif" font-size="13">
<rect width="1132" height="662" fill="white"/>
<text x="12" y="30" font-size="20" font-weight="bold">api_module_graph_bin — Across releases (median ms)</text>
<text x="68" y="60" font-size="15" font-weight="600" fill="#1a1a1a">api_module_graph_bin<tspan fill="#888" font-weight="400" text-decoration="none">  1.57×</tspan></text>
<line x1="68.0" y1="516.0" x2="1108.0" y2="516.0" stroke="#eee"/>
<text x="64.0" y="519.0" text-anchor="end" fill="#999">0.0</text>
<line x1="68.0" y1="296.0" x2="1108.0" y2="296.0" stroke="#eee"/>
<text x="64.0" y="299.0" text-anchor="end" fill="#999">117</text>
<line x1="68.0" y1="76.0" x2="1108.0" y2="76.0" stroke="#eee"/>
<text x="64.0" y="79.0" text-anchor="end" fill="#999">233</text>
<line x1="68.0" y1="76.0" x2="68.0" y2="516.0" stroke="#333"/>
<line x1="68.0" y1="516.0" x2="1108.0" y2="516.0" stroke="#333"/>
<line x1="68.0" y1="516.0" x2="68.0" y2="519.0" stroke="#999"/>
<text x="68.0" y="531.0" text-anchor="end" fill="#666" transform="rotate(-50 68.0 531.0)">25.12</text>
<line x1="111.3" y1="516.0" x2="111.3" y2="519.0" stroke="#999"/>
<text x="111.3" y="531.0" text-anchor="end" fill="#666" transform="rotate(-50 111.3 531.0)">25.13</text>
<line x1="154.7" y1="516.0" x2="154.7" y2="519.0" stroke="#999"/>
<text x="154.7" y="531.0" text-anchor="end" fill="#666" transform="rotate(-50 154.7 531.0)">25.14</text>
<line x1="198.0" y1="516.0" x2="198.0" y2="519.0" stroke="#999"/>
<text x="198.0" y="531.0" text-anchor="end" fill="#666" transform="rotate(-50 198.0 531.0)">25.15</text>
<line x1="241.3" y1="516.0" x2="241.3" y2="519.0" stroke="#999"/>
<text x="241.3" y="531.0" text-anchor="end" fill="#666" transform="rotate(-50 241.3 531.0)">25.16</text>
<line x1="284.7" y1="516.0" x2="284.7" y2="519.0" stroke="#999"/>
<text x="284.7" y="531.0" text-anchor="end" fill="#666" transform="rotate(-50 284.7 531.0)">25.17</text>
<line x1="328.0" y1="516.0" x2="328.0" y2="519.0" stroke="#999"/>
<text x="328.0" y="531.0" text-anchor="end" fill="#666" transform="rotate(-50 328.0 531.0)">25.18</text>
<line x1="371.3" y1="516.0" x2="371.3" y2="519.0" stroke="#999"/>
<text x="371.3" y="531.0" text-anchor="end" fill="#666" transform="rotate(-50 371.3 531.0)">25.19</text>
<line x1="414.7" y1="516.0" x2="414.7" y2="519.0" stroke="#999"/>
<text x="414.7" y="531.0" text-anchor="end" fill="#666" transform="rotate(-50 414.7 531.0)">25.20</text>
<line x1="458.0" y1="516.0" x2="458.0" y2="519.0" stroke="#999"/>
<text x="458.0" y="531.0" text-anchor="end" fill="#666" transform="rotate(-50 458.0 531.0)">25.21</text>
<line x1="501.3" y1="516.0" x2="501.3" y2="519.0" stroke="#999"/>
<text x="501.3" y="531.0" text-anchor="end" fill="#666" transform="rotate(-50 501.3 531.0)">25.22</text>
<line x1="544.7" y1="516.0" x2="544.7" y2="519.0" stroke="#999"/>
<text x="544.7" y="531.0" text-anchor="end" fill="#666" transform="rotate(-50 544.7 531.0)">25.23</text>
<line x1="588.0" y1="516.0" x2="588.0" y2="519.0" stroke="#999"/>
<text x="588.0" y="531.0" text-anchor="end" fill="#666" transform="rotate(-50 588.0 531.0)">25.24</text>
<line x1="631.3" y1="516.0" x2="631.3" y2="519.0" stroke="#999"/>
<text x="631.3" y="531.0" text-anchor="end" fill="#666" transform="rotate(-50 631.3 531.0)">26.1</text>
<line x1="674.7" y1="516.0" x2="674.7" y2="519.0" stroke="#999"/>
<text x="674.7" y="531.0" text-anchor="end" fill="#666" transform="rotate(-50 674.7 531.0)">26.2</text>
<line x1="718.0" y1="516.0" x2="718.0" y2="519.0" stroke="#999"/>
<text x="718.0" y="531.0" text-anchor="end" fill="#666" transform="rotate(-50 718.0 531.0)">26.3</text>
<line x1="761.3" y1="516.0" x2="761.3" y2="519.0" stroke="#999"/>
<text x="761.3" y="531.0" text-anchor="end" fill="#666" transform="rotate(-50 761.3 531.0)">26.4</text>
<line x1="804.7" y1="516.0" x2="804.7" y2="519.0" stroke="#999"/>
<text x="804.7" y="531.0" text-anchor="end" fill="#666" transform="rotate(-50 804.7 531.0)">26.5</text>
<line x1="848.0" y1="516.0" x2="848.0" y2="519.0" stroke="#999"/>
<text x="848.0" y="531.0" text-anchor="end" fill="#666" transform="rotate(-50 848.0 531.0)">26.7</text>
<line x1="891.3" y1="516.0" x2="891.3" y2="519.0" stroke="#999"/>
<text x="891.3" y="531.0" text-anchor="end" fill="#666" transform="rotate(-50 891.3 531.0)">26.8</text>
<line x1="934.7" y1="516.0" x2="934.7" y2="519.0" stroke="#999"/>
<text x="934.7" y="531.0" text-anchor="end" fill="#666" transform="rotate(-50 934.7 531.0)">26.9</text>
<line x1="978.0" y1="516.0" x2="978.0" y2="519.0" stroke="#999"/>
<text x="978.0" y="531.0" text-anchor="end" fill="#666" transform="rotate(-50 978.0 531.0)">26.10</text>
<line x1="1021.3" y1="516.0" x2="1021.3" y2="519.0" stroke="#999"/>
<text x="1021.3" y="531.0" text-anchor="end" fill="#666" transform="rotate(-50 1021.3 531.0)">26.11</text>
<line x1="1064.7" y1="516.0" x2="1064.7" y2="519.0" stroke="#999"/>
<text x="1064.7" y="531.0" text-anchor="end" fill="#666" transform="rotate(-50 1064.7 531.0)">26.12</text>
<line x1="1108.0" y1="516.0" x2="1108.0" y2="519.0" stroke="#999"/>
<text x="1108.0" y="531.0" text-anchor="end" fill="#666" transform="rotate(-50 1108.0 531.0)">26.13</text>
<polygon points="68.0,383.6 111.3,372.4 154.7,346.3 198.0,438.4 241.3,440.6 284.7,439.1 328.0,438.4 371.3,438.0 414.7,437.2 458.0,434.9 501.3,458.0 544.7,458.5 588.0,457.7 631.3,455.3 674.7,455.8 718.0,456.0 761.3,452.5 804.7,452.9 848.0,368.3 891.3,382.8 934.7,388.2 978.0,376.5 1021.3,382.0 1064.7,385.8 1108.0,389.8 1108.0,516.0 1064.7,516.0 1021.3,516.0 978.0,516.0 934.7,516.0 891.3,516.0 848.0,516.0 804.7,516.0 761.3,516.0 718.0,516.0 674.7,516.0 631.3,516.0 588.0,516.0 544.7,516.0 501.3,516.0 458.0,516.0 414.7,516.0 371.3,516.0 328.0,516.0 284.7,516.0 241.3,516.0 198.0,516.0 154.7,516.0 111.3,516.0 68.0,516.0" fill="#c7e9c0" fill-opacity="0.9" stroke="#fff" stroke-width="0.4"><title>api_module_graph_bin — apiCreateGlobalSession</title></polygon>
<polygon points="68.0,383.4 111.3,372.3 154.7,346.3 198.0,438.4 241.3,440.6 284.7,439.1 328.0,438.4 371.3,438.0 414.7,437.2 458.0,434.9 501.3,458.0 544.7,458.5 588.0,457.6 631.3,455.3 674.7,455.8 718.0,456.0 761.3,452.5 804.7,452.9 848.0,368.3 891.3,382.8 934.7,388.2 978.0,376.5 1021.3,382.0 1064.7,385.8 1108.0,389.8 1108.0,389.8 1064.7,385.8 1021.3,382.0 978.0,376.5 934.7,388.2 891.3,382.8 848.0,368.3 804.7,452.9 761.3,452.5 718.0,456.0 674.7,455.8 631.3,455.3 588.0,457.7 544.7,458.5 501.3,458.0 458.0,434.9 414.7,437.2 371.3,438.0 328.0,438.4 284.7,439.1 241.3,440.6 198.0,438.4 154.7,346.3 111.3,372.4 68.0,383.6" fill="#41ab5d" fill-opacity="0.9" stroke="#fff" stroke-width="0.4"><title>api_module_graph_bin — apiCreateSession</title></polygon>
<polygon points="68.0,342.1 111.3,319.9 154.7,279.4 198.0,354.1 241.3,354.5 284.7,338.2 328.0,336.5 371.3,333.5 414.7,331.3 458.0,320.5 501.3,327.6 544.7,335.7 588.0,321.4 631.3,314.0 674.7,315.7 718.0,310.4 761.3,307.4 804.7,305.4 848.0,204.7 891.3,235.2 934.7,248.0 978.0,241.8 1021.3,240.8 1064.7,258.0 1108.0,265.0 1108.0,389.8 1064.7,385.8 1021.3,382.0 978.0,376.5 934.7,388.2 891.3,382.8 848.0,368.3 804.7,452.9 761.3,452.5 718.0,456.0 674.7,455.8 631.3,455.3 588.0,457.6 544.7,458.5 501.3,458.0 458.0,434.9 414.7,437.2 371.3,438.0 328.0,438.4 284.7,439.1 241.3,440.6 198.0,438.4 154.7,346.3 111.3,372.3 68.0,383.4" fill="#2171b5" fill-opacity="0.9" stroke="#fff" stroke-width="0.4"><title>api_module_graph_bin — apiLoadModule</title></polygon>
<polygon points="68.0,342.1 111.3,319.9 154.7,279.4 198.0,354.1 241.3,354.5 284.7,338.2 328.0,336.5 371.3,333.5 414.7,331.3 458.0,320.5 501.3,327.6 544.7,335.7 588.0,321.4 631.3,314.0 674.7,315.7 718.0,310.4 761.3,307.4 804.7,305.4 848.0,204.7 891.3,235.2 934.7,248.0 978.0,241.8 1021.3,240.8 1064.7,258.0 1108.0,265.0 1108.0,265.0 1064.7,258.0 1021.3,240.8 978.0,241.8 934.7,248.0 891.3,235.2 848.0,204.7 804.7,305.4 761.3,307.4 718.0,310.4 674.7,315.7 631.3,314.0 588.0,321.4 544.7,335.7 501.3,327.6 458.0,320.5 414.7,331.3 371.3,333.5 328.0,336.5 284.7,338.2 241.3,354.5 198.0,354.1 154.7,279.4 111.3,319.9 68.0,342.1" fill="#6baed6" fill-opacity="0.9" stroke="#fff" stroke-width="0.4"><title>api_module_graph_bin — apiFindEntryPoint</title></polygon>
<polygon points="68.0,342.1 111.3,319.8 154.7,279.4 198.0,354.1 241.3,354.4 284.7,338.2 328.0,336.4 371.3,333.5 414.7,331.3 458.0,320.5 501.3,327.5 544.7,335.6 588.0,321.4 631.3,313.9 674.7,315.7 718.0,310.4 761.3,307.3 804.7,305.3 848.0,204.6 891.3,235.1 934.7,247.9 978.0,241.7 1021.3,240.7 1064.7,257.9 1108.0,264.9 1108.0,265.0 1064.7,258.0 1021.3,240.8 978.0,241.8 934.7,248.0 891.3,235.2 848.0,204.7 804.7,305.4 761.3,307.4 718.0,310.4 674.7,315.7 631.3,314.0 588.0,321.4 544.7,335.7 501.3,327.6 458.0,320.5 414.7,331.3 371.3,333.5 328.0,336.5 284.7,338.2 241.3,354.5 198.0,354.1 154.7,279.4 111.3,319.9 68.0,342.1" fill="#9e9ac8" fill-opacity="0.9" stroke="#fff" stroke-width="0.4"><title>api_module_graph_bin — apiComposite</title></polygon>
<polygon points="68.0,341.9 111.3,319.6 154.7,279.1 198.0,353.6 241.3,353.9 284.7,337.8 328.0,336.0 371.3,333.1 414.7,330.9 458.0,320.0 501.3,327.0 544.7,335.1 588.0,320.8 631.3,313.3 674.7,315.2 718.0,309.9 761.3,304.8 804.7,302.9 848.0,202.3 891.3,232.7 934.7,245.8 978.0,239.5 1021.3,238.3 1064.7,256.1 1108.0,262.7 1108.0,264.9 1064.7,257.9 1021.3,240.7 978.0,241.7 934.7,247.9 891.3,235.1 848.0,204.6 804.7,305.3 761.3,307.3 718.0,310.4 674.7,315.7 631.3,313.9 588.0,321.4 544.7,335.6 501.3,327.5 458.0,320.5 414.7,331.3 371.3,333.5 328.0,336.4 284.7,338.2 241.3,354.4 198.0,354.1 154.7,279.4 111.3,319.8 68.0,342.1" fill="#6a51a3" fill-opacity="0.9" stroke="#fff" stroke-width="0.4"><title>api_module_graph_bin — apiLink</title></polygon>
<polygon points="68.0,334.6 111.3,309.7 154.7,266.9 198.0,336.1 241.3,335.1 284.7,317.3 328.0,315.6 371.3,312.5 414.7,310.5 458.0,298.7 501.3,302.3 544.7,309.8 588.0,295.3 631.3,285.8 674.7,287.6 718.0,281.5 761.3,276.1 804.7,274.8 848.0,108.6 891.3,139.3 934.7,176.2 978.0,169.8 1021.3,197.9 1064.7,221.3 1108.0,231.6 1108.0,262.7 1064.7,256.1 1021.3,238.3 978.0,239.5 934.7,245.8 891.3,232.7 848.0,202.3 804.7,302.9 761.3,304.8 718.0,309.9 674.7,315.2 631.3,313.3 588.0,320.8 544.7,335.1 501.3,327.0 458.0,320.0 414.7,330.9 371.3,333.1 328.0,336.0 284.7,337.8 241.3,353.9 198.0,353.6 154.7,279.1 111.3,319.6 68.0,341.9" fill="#fd8d3c" fill-opacity="0.9" stroke="#fff" stroke-width="0.4"><title>api_module_graph_bin — apiGetCode</title></polygon>
<text x="12" y="578" fill="#666" font-weight="600">phase buckets</text>
<rect x="12" y="586" width="12" height="12" fill="#c7e9c0"/>
<text x="28" y="596" fill="#222">apiCreateGlobalSession</text>
<rect x="289" y="586" width="12" height="12" fill="#41ab5d"/>
<text x="305" y="596" fill="#222">apiCreateSession</text>
<rect x="566" y="586" width="12" height="12" fill="#2171b5"/>
<text x="582" y="596" fill="#222">apiLoadModule</text>
<rect x="843" y="586" width="12" height="12" fill="#6baed6"/>
<text x="859" y="596" fill="#222">apiFindEntryPoint</text>
<rect x="12" y="604" width="12" height="12" fill="#9e9ac8"/>
<text x="28" y="614" fill="#222">apiComposite</text>
<rect x="289" y="604" width="12" height="12" fill="#807dba"/>
<text x="305" y="614" fill="#222">apiSpecialize</text>
<rect x="566" y="604" width="12" height="12" fill="#6a51a3"/>
<text x="582" y="614" fill="#222">apiLink</text>
<rect x="843" y="604" width="12" height="12" fill="#fd8d3c"/>
<text x="859" y="614" fill="#222">apiGetCode</text>
<rect x="12" y="622" width="12" height="12" fill="#b5bdc4"/>
<text x="28" y="632" fill="#222">apiReflection</text>
<rect x="289" y="622" width="12" height="12" fill="#969696"/>
<text x="305" y="632" fill="#222">apiTotal (self)</text>
</svg>