<svg xmlns="http://www.w3.org/2000/svg" xmlns:xlink="http://www.w3.org/1999/xlink" width="1132" height="662" viewBox="0 0 1132 662" preserveAspectRatio="xMidYMid meet" font-family="sans-serif" font-size="13">
<rect width="1132" height="662" fill="white"/>
<text x="12" y="30" font-size="20" font-weight="bold">api_reflection — Daily tip-of-tree (last 30 days) (median ms)</text>
<text x="68" y="60" font-size="15" font-weight="600" fill="#1a1a1a">api_reflection<tspan fill="#888" font-weight="400" text-decoration="none">  0.79×</tspan></text>
<line x1="68.0" y1="516.0" x2="1108.0" y2="516.0" stroke="#eee"/>
<text x="64.0" y="519.0" text-anchor="end" fill="#999">0.0</text>
<line x1="68.0" y1="296.0" x2="1108.0" y2="296.0" stroke="#eee"/>
<text x="64.0" y="299.0" text-anchor="end" fill="#999">457</text>
<line x1="68.0" y1="76.0" x2="1108.0" y2="76.0" stroke="#eee"/>
<text x="64.0" y="79.0" text-anchor="end" fill="#999">914</text>
<line x1="68.0" y1="76.0" x2="68.0" y2="516.0" stroke="#333"/>
<line x1="68.0" y1="516.0" x2="1108.0" y2="516.0" stroke="#333"/>
<line x1="68.0" y1="516.0" x2="68.0" y2="519.0" stroke="#999"/>
<text x="68.0" y="531.0" text-anchor="end" fill="#e8731a" transform="rotate(-50 68.0 531.0)">06-25</text>
<line x1="137.3" y1="516.0" x2="137.3" y2="519.0" stroke="#999"/>
<text x="137.3" y="531.0" text-anchor="end" fill="#e8731a" transform="rotate(-50 137.3 531.0)">06-26</text>
<line x1="206.7" y1="516.0" x2="206.7" y2="519.0" stroke="#999"/>
<text x="206.7" y="531.0" text-anchor="end" fill="#e8731a" transform="rotate(-50 206.7 531.0)">06-28</text>
<line x1="276.0" y1="516.0" x2="276.0" y2="519.0" stroke="#999"/>
<text x="276.0" y="531.0" text-anchor="end" fill="#e8731a" transform="rotate(-50 276.0 531.0)">07-01</text>
<line x1="345.3" y1="516.0" x2="345.3" y2="519.0" stroke="#999"/>
<text x="345.3" y="531.0" text-anchor="end" fill="#e8731a" transform="rotate(-50 345.3 531.0)">07-02</text>
<line x1="414.7" y1="516.0" x2="414.7" y2="519.0" stroke="#999"/>
<text x="414.7" y="531.0" text-anchor="end" fill="#e8731a" transform="rotate(-50 414.7 531.0)">07-03</text>
<line x1="484.0" y1="516.0" x2="484.0" y2="519.0" stroke="#999"/>
<text x="484.0" y="531.0" text-anchor="end" fill="#e8731a" transform="rotate(-50 484.0 531.0)">07-06</text>
<line x1="553.3" y1="516.0" x2="553.3" y2="519.0" stroke="#999"/>
<text x="553.3" y="531.0" text-anchor="end" fill="#e8731a" transform="rotate(-50 553.3 531.0)">07-07</text>
<line x1="622.7" y1="516.0" x2="622.7" y2="519.0" stroke="#999"/>
<text x="622.7" y="531.0" text-anchor="end" fill="#e8731a" transform="rotate(-50 622.7 531.0)">07-08</text>
<line x1="692.0" y1="516.0" x2="692.0" y2="519.0" stroke="#999"/>
<text x="692.0" y="531.0" text-anchor="end" fill="#e8731a" transform="rotate(-50 692.0 531.0)">07-09</text>
<line x1="761.3" y1="516.0" x2="761.3" y2="519.0" stroke="#999"/>
<text x="761.3" y="531.0" text-anchor="end" fill="#e8731a" transform="rotate(-50 761.3 531.0)">07-10</text>
<line x1="830.7" y1="516.0" x2="830.7" y2="519.0" stroke="#999"/>
<text x="830.7" y="531.0" text-anchor="end" fill="#e8731a" transform="rotate(-50 830.7 531.0)">07-11</text>
<line x1="900.0" y1="516.0" x2="900.0" y2="519.0" stroke="#999"/>
<text x="900.0" y="531.0" text-anchor="end" fill="#e8731a" transform="rotate(-50 900.0 531.0)">07-14</text>
<line x1="969.3" y1="516.0" x2="969.3" y2="519.0" stroke="#999"/>
<text x="969.3" y="531.0" text-anchor="end" fill="#e8731a" transform="rotate(-50 969.3 531.0)">07-15</text>
<line x1="1038.7" y1="516.0" x2="1038.7" y2="519.0" stroke="#999"/>
<text x="1038.7" y="531.0" text-anchor="end" fill="#e8731a" transform="rotate(-50 1038.7 531.0)">07-15</text>
<line x1="1108.0" y1="516.0" x2="1108.0" y2="519.0" stroke="#999"/>
<text x="1108.0" y="531.0" text-anchor="end" fill="#e8731a" transform="rotate(-50 1108.0 531.0)">07-16</text>
<polygon points="68.0,461.9 137.3,460.0 206.7,459.5 276.0,460.8 345.3,459.5 414.7,460.2 484.0,460.3 553.3,461.8 622.7,460.6 692.0,461.5 761.3,461.6 830.7,461.3 900.0,460.2 969.3,462.6 1038.7,463.8 1108.0,463.5 1108.0,516.0 1038.7,516.0 969.3,516.0 900.0,516.0 830.7,516.0 761.3,516.0 692.0,516.0 622.7,516.0 553.3,516.0 484.0,516.0 414.7,516.0 345.3,516.0 276.0,516.0 206.7,516.0 137.3,516.0 68.0,516.0" fill="#c7e9c0" fill-opacity="0.9" stroke="#fff" stroke-width="0.4"><title>api_reflection — apiCreateGlobalSession</title></polygon>
<polygon points="68.0,461.9 137.3,460.0 206.7,459.5 276.0,460.8 345.3,459.5 414.7,460.2 484.0,460.3 553.3,461.7 622.7,460.6 692.0,461.5 761.3,461.6 830.7,461.3 900.0,460.2 969.3,462.6 1038.7,463.8 1108.0,463.5 1108.0,463.5 1038.7,463.8 969.3,462.6 900.0,460.2 830.7,461.3 761.3,461.6 692.0,461.5 622.7,460.6 553.3,461.8 484.0,460.3 414.7,460.2 345.3,459.5 276.0,460.8 206.7,459.5 137.3,460.0 68.0,461.9" fill="#41ab5d" fill-opacity="0.9" stroke="#fff" stroke-width="0.4"><title>api_reflection — apiCreateSession</title></polygon>
<polygon points="68.0,344.3 137.3,342.3 206.7,340.8 276.0,344.1 345.3,340.4 414.7,340.0 484.0,341.8 553.3,342.2 622.7,341.6 692.0,342.2 761.3,336.7 830.7,336.3 900.0,336.6 969.3,345.9 1038.7,346.9 1108.0,325.9 1108.0,463.5 1038.7,463.8 969.3,462.6 900.0,460.2 830.7,461.3 761.3,461.6 692.0,461.5 622.7,460.6 553.3,461.7 484.0,460.3 414.7,460.2 345.3,459.5 276.0,460.8 206.7,459.5 137.3,460.0 68.0,461.9" fill="#2171b5" fill-opacity="0.9" stroke="#fff" stroke-width="0.4"><title>api_reflection — apiLoadModule</title></polygon>
<polygon points="68.0,344.3 137.3,342.3 206.7,340.8 276.0,344.1 345.3,340.4 414.7,340.0 484.0,341.7 553.3,342.2 622.7,341.6 692.0,342.2 761.3,336.7 830.7,336.3 900.0,336.6 969.3,345.9 1038.7,346.9 1108.0,325.9 1108.0,325.9 1038.7,346.9 969.3,345.9 900.0,336.6 830.7,336.3 761.3,336.7 692.0,342.2 622.7,341.6 553.3,342.2 484.0,341.8 414.7,340.0 345.3,340.4 276.0,344.1 206.7,340.8 137.3,342.3 68.0,344.3" fill="#6baed6" fill-opacity="0.9" stroke="#fff" stroke-width="0.4"><title>api_reflection — apiFindEntryPoint</title></polygon>
<polygon points="68.0,344.3 137.3,342.3 206.7,340.8 276.0,344.0 345.3,340.3 414.7,339.9 484.0,341.7 553.3,342.1 622.7,341.5 692.0,342.1 761.3,336.6 830.7,336.2 900.0,336.5 969.3,345.8 1038.7,346.8 1108.0,325.9 1108.0,325.9 1038.7,346.9 969.3,345.9 900.0,336.6 830.7,336.3 761.3,336.7 692.0,342.2 622.7,341.6 553.3,342.2 484.0,341.7 414.7,340.0 345.3,340.4 276.0,344.1 206.7,340.8 137.3,342.3 68.0,344.3" fill="#9e9ac8" fill-opacity="0.9" stroke="#fff" stroke-width="0.4"><title>api_reflection — apiComposite</title></polygon>
<polygon points="68.0,344.2 137.3,342.3 206.7,340.8 276.0,344.0 345.3,340.3 414.7,339.9 484.0,341.7 553.3,342.1 622.7,341.5 692.0,342.1 761.3,336.6 830.7,336.2 900.0,336.5 969.3,345.8 1038.7,346.8 1108.0,325.9 1108.0,325.9 1038.7,346.8 969.3,345.8 900.0,336.5 830.7,336.2 761.3,336.6 692.0,342.1 622.7,341.5 553.3,342.1 484.0,341.7 414.7,339.9 345.3,340.3 276.0,344.0 206.7,340.8 137.3,342.3 68.0,344.3" fill="#6a51a3" fill-opacity="0.9" stroke="#fff" stroke-width="0.4"><title>api_reflection — apiLink</title></polygon>
<polygon points="68.0,123.3 137.3,119.8 206.7,117.4 276.0,123.6 345.3,115.5 414.7,114.0 484.0,117.1 553.3,200.1 622.7,201.1 692.0,202.2 761.3,198.6 830.7,197.5 900.0,199.5 969.3,224.0 1038.7,223.8 1108.0,204.1 1108.0,325.9 1038.7,346.8 969.3,345.8 900.0,336.5 830.7,336.2 761.3,336.6 692.0,342.1 622.7,341.5 553.3,342.1 484.0,341.7 414.7,339.9 345.3,340.3 276.0,344.0 206.7,340.8 137.3,342.3 68.0,344.2" fill="#fd8d3c" fill-opacity="0.9" stroke="#fff" stroke-width="0.4"><title>api_reflection — apiGetCode</title></polygon>
<polygon points="68.0,120.6 137.3,117.1 206.7,114.7 276.0,120.9 345.3,112.8 414.7,111.3 484.0,114.4 553.3,197.4 622.7,198.3 692.0,199.5 761.3,196.0 830.7,194.8 900.0,196.9 969.3,221.4 1038.7,221.2 1108.0,201.5 1108.0,204.1 1038.7,223.8 969.3,224.0 900.0,199.5 830.7,197.5 761.3,198.6 692.0,202.2 622.7,201.1 553.3,200.1 484.0,117.1 414.7,114.0 345.3,115.5 276.0,123.6 206.7,117.4 137.3,119.8 68.0,123.3" fill="#b5bdc4" fill-opacity="0.9" stroke="#fff" stroke-width="0.4"><title>api_reflection — apiReflection</title></polygon>
<polygon points="68.0,116.8 137.3,115.0 206.7,112.7 276.0,118.9 345.3,110.6 414.7,108.6 484.0,112.4 553.3,195.8 622.7,195.1 692.0,196.8 761.3,192.7 830.7,192.8 900.0,195.2 969.3,219.1 1038.7,218.7 1108.0,199.4 1108.0,201.5 1038.7,221.2 969.3,221.4 900.0,196.9 830.7,194.8 761.3,196.0 692.0,199.5 622.7,198.3 553.3,197.4 484.0,114.4 414.7,111.3 345.3,112.8 276.0,120.9 206.7,114.7 137.3,117.1 68.0,120.6" fill="#969696" fill-opacity="0.9" stroke="#fff" stroke-width="0.4"><title>api_reflection — apiTotal (self)</title></polygon>
<text x="12" y="578" fill="#666" font-weight="600">phase buckets</text>
<rect x="12" y="586" width="12" height="12" fill="#c7e9c0"/>
<text x="28" y="596" fill="#222">apiCreateGlobalSession</text>
<rect x="289" y="586" width="12" height="12" fill="#41ab5d"/>
<text x="305" y="596" fill="#222">apiCreateSession</text>
<rect x="566" y="586" width="12" height="12" fill="#2171b5"/>
<text x="582" y="596" fill="#222">apiLoadModule</text>
<rect x="843" y="586" width="12" height="12" fill="#6baed6"/>
<text x="859" y="596" fill="#222">apiFindEntryPoint</text>
<rect x="12" y="604" width="12" height="12" fill="#9e9ac8"/>
<text x="28" y="614" fill="#222">apiComposite</text>
<rect x="289" y="604" width="12" height="12" fill="#807dba"/>
<text x="305" y="614" fill="#222">apiSpecialize</text>
<rect x="566" y="604" width="12" height="12" fill="#6a51a3"/>
<text x="582" y="614" fill="#222">apiLink</text>
<rect x="843" y="604" width="12" height="12" fill="#fd8d3c"/>
<text x="859" y="614" fill="#222">apiGetCode</text>
<rect x="12" y="622" width="12" height="12" fill="#b5bdc4"/>
<text x="28" y="632" fill="#222">apiReflection</text>
<rect x="289" y="622" width="12" height="12" fill="#969696"/>
<text x="305" y="632" fill="#222">apiTotal (self)</text>
</svg>