<svg xmlns="http://www.w3.org/2000/svg" xmlns:xlink="http://www.w3.org/1999/xlink" width="1132" height="662" viewBox="0 0 1132 662" preserveAspectRatio="xMidYMid meet" font-family="sans-serif" font-size="13">
<rect width="1132" height="662" fill="white"/>
<text x="12" y="30" font-size="20" font-weight="bold">api_reflection — full phase breakdown across releases (median ms)</text>
<text x="68" y="60" font-size="15" font-weight="600" fill="#1a1a1a">api_reflection<tspan fill="#888" font-weight="400" text-decoration="none">  1.07×</tspan></text>
<line x1="68.0" y1="516.0" x2="1108.0" y2="516.0" stroke="#eee"/>
<text x="64.0" y="519.0" text-anchor="end" fill="#999">0.0</text>
<line x1="68.0" y1="296.0" x2="1108.0" y2="296.0" stroke="#eee"/>
<text x="64.0" y="299.0" text-anchor="end" fill="#999">1079</text>
<line x1="68.0" y1="76.0" x2="1108.0" y2="76.0" stroke="#eee"/>
<text x="64.0" y="79.0" text-anchor="end" fill="#999">2158</text>
<line x1="68.0" y1="76.0" x2="68.0" y2="516.0" stroke="#333"/>
<line x1="68.0" y1="516.0" x2="1108.0" y2="516.0" stroke="#333"/>
<line x1="706.9" y1="76.0" x2="706.9" y2="516.0" stroke="#e8731a" stroke-width="1.2" stroke-dasharray="4 3"/>
<text x="709.9" y="87.0" fill="#e8731a" font-size="11">daily →</text>
<line x1="68.0" y1="516.0" x2="68.0" y2="519.0" stroke="#999"/>
<text x="68.0" y="531.0" text-anchor="end" fill="#666" transform="rotate(-50 68.0 531.0)">25.14</text>
<line x1="97.7" y1="516.0" x2="97.7" y2="519.0" stroke="#999"/>
<text x="97.7" y="531.0" text-anchor="end" fill="#666" transform="rotate(-50 97.7 531.0)">25.15</text>
<line x1="127.4" y1="516.0" x2="127.4" y2="519.0" stroke="#999"/>
<text x="127.4" y="531.0" text-anchor="end" fill="#666" transform="rotate(-50 127.4 531.0)">25.16</text>
<line x1="157.1" y1="516.0" x2="157.1" y2="519.0" stroke="#999"/>
<text x="157.1" y="531.0" text-anchor="end" fill="#666" transform="rotate(-50 157.1 531.0)">25.17</text>
<line x1="186.9" y1="516.0" x2="186.9" y2="519.0" stroke="#999"/>
<text x="186.9" y="531.0" text-anchor="end" fill="#666" transform="rotate(-50 186.9 531.0)">25.18</text>
<line x1="216.6" y1="516.0" x2="216.6" y2="519.0" stroke="#999"/>
<text x="216.6" y="531.0" text-anchor="end" fill="#666" transform="rotate(-50 216.6 531.0)">25.19</text>
<line x1="246.3" y1="516.0" x2="246.3" y2="519.0" stroke="#999"/>
<text x="246.3" y="531.0" text-anchor="end" fill="#666" transform="rotate(-50 246.3 531.0)">25.20</text>
<line x1="276.0" y1="516.0" x2="276.0" y2="519.0" stroke="#999"/>
<text x="276.0" y="531.0" text-anchor="end" fill="#666" transform="rotate(-50 276.0 531.0)">25.21</text>
<line x1="305.7" y1="516.0" x2="305.7" y2="519.0" stroke="#999"/>
<text x="305.7" y="531.0" text-anchor="end" fill="#666" transform="rotate(-50 305.7 531.0)">25.22</text>
<line x1="335.4" y1="516.0" x2="335.4" y2="519.0" stroke="#999"/>
<text x="335.4" y="531.0" text-anchor="end" fill="#666" transform="rotate(-50 335.4 531.0)">25.23</text>
<line x1="365.1" y1="516.0" x2="365.1" y2="519.0" stroke="#999"/>
<text x="365.1" y="531.0" text-anchor="end" fill="#666" transform="rotate(-50 365.1 531.0)">25.24</text>
<line x1="394.9" y1="516.0" x2="394.9" y2="519.0" stroke="#999"/>
<text x="394.9" y="531.0" text-anchor="end" fill="#666" transform="rotate(-50 394.9 531.0)">26.1</text>
<line x1="424.6" y1="516.0" x2="424.6" y2="519.0" stroke="#999"/>
<text x="424.6" y="531.0" text-anchor="end" fill="#666" transform="rotate(-50 424.6 531.0)">26.2</text>
<line x1="454.3" y1="516.0" x2="454.3" y2="519.0" stroke="#999"/>
<text x="454.3" y="531.0" text-anchor="end" fill="#666" transform="rotate(-50 454.3 531.0)">26.3</text>
<line x1="484.0" y1="516.0" x2="484.0" y2="519.0" stroke="#999"/>
<text x="484.0" y="531.0" text-anchor="end" fill="#666" transform="rotate(-50 484.0 531.0)">26.4</text>
<line x1="513.7" y1="516.0" x2="513.7" y2="519.0" stroke="#999"/>
<text x="513.7" y="531.0" text-anchor="end" fill="#666" transform="rotate(-50 513.7 531.0)">26.5</text>
<line x1="543.4" y1="516.0" x2="543.4" y2="519.0" stroke="#999"/>
<text x="543.4" y="531.0" text-anchor="end" fill="#666" transform="rotate(-50 543.4 531.0)">26.7</text>
<line x1="573.1" y1="516.0" x2="573.1" y2="519.0" stroke="#999"/>
<text x="573.1" y="531.0" text-anchor="end" fill="#666" transform="rotate(-50 573.1 531.0)">26.8</text>
<line x1="602.9" y1="516.0" x2="602.9" y2="519.0" stroke="#999"/>
<text x="602.9" y="531.0" text-anchor="end" fill="#666" transform="rotate(-50 602.9 531.0)">26.9</text>
<line x1="632.6" y1="516.0" x2="632.6" y2="519.0" stroke="#999"/>
<text x="632.6" y="531.0" text-anchor="end" fill="#666" transform="rotate(-50 632.6 531.0)">26.10</text>
<line x1="662.3" y1="516.0" x2="662.3" y2="519.0" stroke="#999"/>
<text x="662.3" y="531.0" text-anchor="end" fill="#666" transform="rotate(-50 662.3 531.0)">26.11</text>
<line x1="692.0" y1="516.0" x2="692.0" y2="519.0" stroke="#999"/>
<text x="692.0" y="531.0" text-anchor="end" fill="#666" transform="rotate(-50 692.0 531.0)">26.12</text>
<line x1="721.7" y1="516.0" x2="721.7" y2="519.0" stroke="#999"/>
<text x="721.7" y="531.0" text-anchor="end" fill="#e8731a" transform="rotate(-50 721.7 531.0)">06-25</text>
<line x1="751.4" y1="516.0" x2="751.4" y2="519.0" stroke="#999"/>
<text x="751.4" y="531.0" text-anchor="end" fill="#e8731a" transform="rotate(-50 751.4 531.0)">06-26</text>
<line x1="781.1" y1="516.0" x2="781.1" y2="519.0" stroke="#999"/>
<text x="781.1" y="531.0" text-anchor="end" fill="#e8731a" transform="rotate(-50 781.1 531.0)">06-28</text>
<line x1="810.9" y1="516.0" x2="810.9" y2="519.0" stroke="#999"/>
<text x="810.9" y="531.0" text-anchor="end" fill="#e8731a" transform="rotate(-50 810.9 531.0)">07-01</text>
<line x1="840.6" y1="516.0" x2="840.6" y2="519.0" stroke="#999"/>
<text x="840.6" y="531.0" text-anchor="end" fill="#e8731a" transform="rotate(-50 840.6 531.0)">07-02</text>
<line x1="870.3" y1="516.0" x2="870.3" y2="519.0" stroke="#999"/>
<text x="870.3" y="531.0" text-anchor="end" fill="#e8731a" transform="rotate(-50 870.3 531.0)">07-03</text>
<line x1="900.0" y1="516.0" x2="900.0" y2="519.0" stroke="#999"/>
<text x="900.0" y="531.0" text-anchor="end" fill="#e8731a" transform="rotate(-50 900.0 531.0)">07-06</text>
<line x1="929.7" y1="516.0" x2="929.7" y2="519.0" stroke="#999"/>
<text x="929.7" y="531.0" text-anchor="end" fill="#e8731a" transform="rotate(-50 929.7 531.0)">07-07</text>
<line x1="959.4" y1="516.0" x2="959.4" y2="519.0" stroke="#999"/>
<text x="959.4" y="531.0" text-anchor="end" fill="#e8731a" transform="rotate(-50 959.4 531.0)">07-08</text>
<line x1="989.1" y1="516.0" x2="989.1" y2="519.0" stroke="#999"/>
<text x="989.1" y="531.0" text-anchor="end" fill="#e8731a" transform="rotate(-50 989.1 531.0)">07-09</text>
<line x1="1018.9" y1="516.0" x2="1018.9" y2="519.0" stroke="#999"/>
<text x="1018.9" y="531.0" text-anchor="end" fill="#e8731a" transform="rotate(-50 1018.9 531.0)">07-10</text>
<line x1="1048.6" y1="516.0" x2="1048.6" y2="519.0" stroke="#999"/>
<text x="1048.6" y="531.0" text-anchor="end" fill="#e8731a" transform="rotate(-50 1048.6 531.0)">07-11</text>
<line x1="1078.3" y1="516.0" x2="1078.3" y2="519.0" stroke="#999"/>
<text x="1078.3" y="531.0" text-anchor="end" fill="#e8731a" transform="rotate(-50 1078.3 531.0)">07-14</text>
<line x1="1108.0" y1="516.0" x2="1108.0" y2="519.0" stroke="#999"/>
<text x="1108.0" y="531.0" text-anchor="end" fill="#e8731a" transform="rotate(-50 1108.0 531.0)">07-15</text>
<polygon points="68.0,465.3 97.7,502.6 127.4,502.3 157.1,499.5 186.9,500.4 216.6,501.1 246.3,502.1 276.0,501.9 305.7,507.4 335.4,507.1 365.1,507.0 394.9,507.4 424.6,506.8 454.3,507.0 484.0,506.7 513.7,506.7 543.4,495.2 573.1,495.1 602.9,492.2 632.6,488.7 662.3,495.3 692.0,493.6 721.7,493.1 751.4,492.3 781.1,492.1 810.9,492.6 840.6,492.1 870.3,492.4 900.0,492.4 929.7,493.0 959.4,492.5 989.1,492.9 1018.9,493.0 1048.6,492.8 1078.3,492.4 1108.0,493.4 1108.0,516.0 1078.3,516.0 1048.6,516.0 1018.9,516.0 989.1,516.0 959.4,516.0 929.7,516.0 900.0,516.0 870.3,516.0 840.6,516.0 810.9,516.0 781.1,516.0 751.4,516.0 721.7,516.0 692.0,516.0 662.3,516.0 632.6,516.0 602.9,516.0 573.1,516.0 543.4,516.0 513.7,516.0 484.0,516.0 454.3,516.0 424.6,516.0 394.9,516.0 365.1,516.0 335.4,516.0 305.7,516.0 276.0,516.0 246.3,516.0 216.6,516.0 186.9,516.0 157.1,516.0 127.4,516.0 97.7,516.0 68.0,516.0" fill="#c7e9c0" fill-opacity="0.9" stroke="#fff" stroke-width="0.4"><title>api_reflection — apiCreateGlobalSession</title></polygon>
<polygon points="68.0,465.3 97.7,502.6 127.4,502.3 157.1,499.5 186.9,500.4 216.6,501.1 246.3,502.1 276.0,501.9 305.7,507.4 335.4,507.1 365.1,507.0 394.9,507.4 424.6,506.7 454.3,507.0 484.0,506.7 513.7,506.7 543.4,495.2 573.1,495.1 602.9,492.2 632.6,488.7 662.3,495.3 692.0,493.6 721.7,493.1 751.4,492.3 781.1,492.1 810.9,492.6 840.6,492.1 870.3,492.4 900.0,492.4 929.7,493.0 959.4,492.5 989.1,492.9 1018.9,493.0 1048.6,492.8 1078.3,492.4 1108.0,493.4 1108.0,493.4 1078.3,492.4 1048.6,492.8 1018.9,493.0 989.1,492.9 959.4,492.5 929.7,493.0 900.0,492.4 870.3,492.4 840.6,492.1 810.9,492.6 781.1,492.1 751.4,492.3 721.7,493.1 692.0,493.6 662.3,495.3 632.6,488.7 602.9,492.2 573.1,495.1 543.4,495.2 513.7,506.7 484.0,506.7 454.3,507.0 424.6,506.8 394.9,507.4 365.1,507.0 335.4,507.1 305.7,507.4 276.0,501.9 246.3,502.1 216.6,501.1 186.9,500.4 157.1,499.5 127.4,502.3 97.7,502.6 68.0,465.3" fill="#41ab5d" fill-opacity="0.9" stroke="#fff" stroke-width="0.4"><title>api_reflection — apiCreateSession</title></polygon>
<polygon points="68.0,432.2 97.7,467.9 127.4,467.3 157.1,458.3 186.9,459.8 216.6,462.9 246.3,465.0 276.0,464.5 305.7,471.7 335.4,471.0 365.1,471.2 394.9,470.6 424.6,468.9 454.3,469.2 484.0,468.3 513.7,468.3 543.4,421.5 573.1,418.1 602.9,359.8 632.6,381.2 662.3,448.9 692.0,446.6 721.7,443.3 751.4,442.5 781.1,441.8 810.9,443.2 840.6,441.7 870.3,441.5 900.0,442.2 929.7,442.4 959.4,442.2 989.1,442.4 1018.9,440.1 1048.6,439.9 1078.3,440.1 1108.0,444.0 1108.0,493.4 1078.3,492.4 1048.6,492.8 1018.9,493.0 989.1,492.9 959.4,492.5 929.7,493.0 900.0,492.4 870.3,492.4 840.6,492.1 810.9,492.6 781.1,492.1 751.4,492.3 721.7,493.1 692.0,493.6 662.3,495.3 632.6,488.7 602.9,492.2 573.1,495.1 543.4,495.2 513.7,506.7 484.0,506.7 454.3,507.0 424.6,506.7 394.9,507.4 365.1,507.0 335.4,507.1 305.7,507.4 276.0,501.9 246.3,502.1 216.6,501.1 186.9,500.4 157.1,499.5 127.4,502.3 97.7,502.6 68.0,465.3" fill="#2171b5" fill-opacity="0.9" stroke="#fff" stroke-width="0.4"><title>api_reflection — apiLoadModule</title></polygon>
<polygon points="68.0,432.2 97.7,467.9 127.4,467.3 157.1,458.3 186.9,459.8 216.6,462.9 246.3,465.0 276.0,464.5 305.7,471.7 335.4,471.0 365.1,471.2 394.9,470.6 424.6,468.9 454.3,469.2 484.0,468.3 513.7,468.3 543.4,421.5 573.1,418.1 602.9,359.8 632.6,381.2 662.3,448.9 692.0,446.6 721.7,443.3 751.4,442.5 781.1,441.8 810.9,443.2 840.6,441.7 870.3,441.5 900.0,442.2 929.7,442.4 959.4,442.2 989.1,442.4 1018.9,440.1 1048.6,439.9 1078.3,440.1 1108.0,444.0 1108.0,444.0 1078.3,440.1 1048.6,439.9 1018.9,440.1 989.1,442.4 959.4,442.2 929.7,442.4 900.0,442.2 870.3,441.5 840.6,441.7 810.9,443.2 781.1,441.8 751.4,442.5 721.7,443.3 692.0,446.6 662.3,448.9 632.6,381.2 602.9,359.8 573.1,418.1 543.4,421.5 513.7,468.3 484.0,468.3 454.3,469.2 424.6,468.9 394.9,470.6 365.1,471.2 335.4,471.0 305.7,471.7 276.0,464.5 246.3,465.0 216.6,462.9 186.9,459.8 157.1,458.3 127.4,467.3 97.7,467.9 68.0,432.2" fill="#6baed6" fill-opacity="0.9" stroke="#fff" stroke-width="0.4"><title>api_reflection — apiFindEntryPoint</title></polygon>
<polygon points="68.0,432.2 97.7,467.9 127.4,467.3 157.1,458.3 186.9,459.7 216.6,462.9 246.3,465.0 276.0,464.5 305.7,471.7 335.4,471.0 365.1,471.2 394.9,470.6 424.6,468.9 454.3,469.2 484.0,468.3 513.7,468.2 543.4,421.5 573.1,418.1 602.9,359.7 632.6,381.2 662.3,448.8 692.0,446.6 721.7,443.3 751.4,442.5 781.1,441.8 810.9,443.2 840.6,441.6 870.3,441.5 900.0,442.2 929.7,442.4 959.4,442.1 989.1,442.4 1018.9,440.1 1048.6,439.9 1078.3,440.0 1108.0,443.9 1108.0,444.0 1078.3,440.1 1048.6,439.9 1018.9,440.1 989.1,442.4 959.4,442.2 929.7,442.4 900.0,442.2 870.3,441.5 840.6,441.7 810.9,443.2 781.1,441.8 751.4,442.5 721.7,443.3 692.0,446.6 662.3,448.9 632.6,381.2 602.9,359.8 573.1,418.1 543.4,421.5 513.7,468.3 484.0,468.3 454.3,469.2 424.6,468.9 394.9,470.6 365.1,471.2 335.4,471.0 305.7,471.7 276.0,464.5 246.3,465.0 216.6,462.9 186.9,459.8 157.1,458.3 127.4,467.3 97.7,467.9 68.0,432.2" fill="#9e9ac8" fill-opacity="0.9" stroke="#fff" stroke-width="0.4"><title>api_reflection — apiComposite</title></polygon>
<polygon points="68.0,432.2 97.7,467.9 127.4,467.3 157.1,458.3 186.9,459.7 216.6,462.9 246.3,465.0 276.0,464.5 305.7,471.7 335.4,471.0 365.1,471.2 394.9,470.6 424.6,468.9 454.3,469.2 484.0,468.3 513.7,468.2 543.4,421.5 573.1,418.1 602.9,359.7 632.6,381.2 662.3,448.8 692.0,446.6 721.7,443.3 751.4,442.4 781.1,441.8 810.9,443.2 840.6,441.6 870.3,441.5 900.0,442.2 929.7,442.4 959.4,442.1 989.1,442.4 1018.9,440.1 1048.6,439.9 1078.3,440.0 1108.0,443.9 1108.0,443.9 1078.3,440.0 1048.6,439.9 1018.9,440.1 989.1,442.4 959.4,442.1 929.7,442.4 900.0,442.2 870.3,441.5 840.6,441.6 810.9,443.2 781.1,441.8 751.4,442.5 721.7,443.3 692.0,446.6 662.3,448.8 632.6,381.2 602.9,359.7 573.1,418.1 543.4,421.5 513.7,468.2 484.0,468.3 454.3,469.2 424.6,468.9 394.9,470.6 365.1,471.2 335.4,471.0 305.7,471.7 276.0,464.5 246.3,465.0 216.6,462.9 186.9,459.7 157.1,458.3 127.4,467.3 97.7,467.9 68.0,432.2" fill="#6a51a3" fill-opacity="0.9" stroke="#fff" stroke-width="0.4"><title>api_reflection — apiLink</title></polygon>
<polygon points="68.0,400.4 97.7,436.1 127.4,435.4 157.1,419.5 186.9,422.1 216.6,426.8 246.3,429.1 276.0,428.4 305.7,435.7 335.4,435.0 365.1,432.2 394.9,432.5 424.6,429.5 454.3,429.7 484.0,428.2 513.7,428.1 543.4,242.9 573.1,234.8 602.9,112.8 632.6,163.1 662.3,353.4 692.0,361.6 721.7,349.8 751.4,348.3 781.1,347.3 810.9,349.9 840.6,346.5 870.3,345.8 900.0,347.1 929.7,382.2 959.4,382.7 989.1,383.2 1018.9,381.6 1048.6,381.2 1078.3,382.0 1108.0,392.4 1108.0,443.9 1078.3,440.0 1048.6,439.9 1018.9,440.1 989.1,442.4 959.4,442.1 929.7,442.4 900.0,442.2 870.3,441.5 840.6,441.6 810.9,443.2 781.1,441.8 751.4,442.4 721.7,443.3 692.0,446.6 662.3,448.8 632.6,381.2 602.9,359.7 573.1,418.1 543.4,421.5 513.7,468.2 484.0,468.3 454.3,469.2 424.6,468.9 394.9,470.6 365.1,471.2 335.4,471.0 305.7,471.7 276.0,464.5 246.3,465.0 216.6,462.9 186.9,459.7 157.1,458.3 127.4,467.3 97.7,467.9 68.0,432.2" fill="#fd8d3c" fill-opacity="0.9" stroke="#fff" stroke-width="0.4"><title>api_reflection — apiGetCode</title></polygon>
<polygon points="68.0,399.0 97.7,434.8 127.4,434.1 157.1,418.3 186.9,421.0 216.6,425.4 246.3,427.7 276.0,427.1 305.7,434.4 335.4,433.7 365.1,430.9 394.9,431.2 424.6,428.2 454.3,428.4 484.0,426.8 513.7,426.7 543.4,241.5 573.1,233.4 602.9,111.2 632.6,161.6 662.3,352.2 692.0,360.5 721.7,348.6 751.4,347.1 781.1,346.1 810.9,348.7 840.6,345.3 870.3,344.7 900.0,346.0 929.7,381.1 959.4,381.5 989.1,382.0 1018.9,380.5 1048.6,380.0 1078.3,380.9 1108.0,391.3 1108.0,392.4 1078.3,382.0 1048.6,381.2 1018.9,381.6 989.1,383.2 959.4,382.7 929.7,382.2 900.0,347.1 870.3,345.8 840.6,346.5 810.9,349.9 781.1,347.3 751.4,348.3 721.7,349.8 692.0,361.6 662.3,353.4 632.6,163.1 602.9,112.8 573.1,234.8 543.4,242.9 513.7,428.1 484.0,428.2 454.3,429.7 424.6,429.5 394.9,432.5 365.1,432.2 335.4,435.0 305.7,435.7 276.0,428.4 246.3,429.1 216.6,426.8 186.9,422.1 157.1,419.5 127.4,435.4 97.7,436.1 68.0,400.4" fill="#b5bdc4" fill-opacity="0.9" stroke="#fff" stroke-width="0.4"><title>api_reflection — apiReflection</title></polygon>
<polygon points="68.0,398.3 97.7,434.3 127.4,433.6 157.1,417.6 186.9,419.8 216.6,424.7 246.3,427.1 276.0,426.3 305.7,433.6 335.4,432.6 365.1,430.4 394.9,430.0 424.6,427.2 454.3,427.2 484.0,426.2 513.7,425.5 543.4,239.9 573.1,230.8 602.9,108.6 632.6,160.4 662.3,350.5 692.0,359.9 721.7,347.0 751.4,346.2 781.1,345.2 810.9,347.9 840.6,344.4 870.3,343.5 900.0,345.1 929.7,380.4 959.4,380.1 989.1,380.9 1018.9,379.1 1048.6,379.2 1078.3,380.2 1108.0,390.3 1108.0,391.3 1078.3,380.9 1048.6,380.0 1018.9,380.5 989.1,382.0 959.4,381.5 929.7,381.1 900.0,346.0 870.3,344.7 840.6,345.3 810.9,348.7 781.1,346.1 751.4,347.1 721.7,348.6 692.0,360.5 662.3,352.2 632.6,161.6 602.9,111.2 573.1,233.4 543.4,241.5 513.7,426.7 484.0,426.8 454.3,428.4 424.6,428.2 394.9,431.2 365.1,430.9 335.4,433.7 305.7,434.4 276.0,427.1 246.3,427.7 216.6,425.4 186.9,421.0 157.1,418.3 127.4,434.1 97.7,434.8 68.0,399.0" fill="#969696" fill-opacity="0.9" stroke="#fff" stroke-width="0.4"><title>api_reflection — apiTotal (self)</title></polygon>
<text x="12" y="578" fill="#666" font-weight="600">phase buckets</text>
<rect x="12" y="586" width="12" height="12" fill="#c7e9c0"/>
<text x="28" y="596" fill="#222">apiCreateGlobalSession</text>
<rect x="289" y="586" width="12" height="12" fill="#41ab5d"/>
<text x="305" y="596" fill="#222">apiCreateSession</text>
<rect x="566" y="586" width="12" height="12" fill="#2171b5"/>
<text x="582" y="596" fill="#222">apiLoadModule</text>
<rect x="843" y="586" width="12" height="12" fill="#6baed6"/>
<text x="859" y="596" fill="#222">apiFindEntryPoint</text>
<rect x="12" y="604" width="12" height="12" fill="#9e9ac8"/>
<text x="28" y="614" fill="#222">apiComposite</text>
<rect x="289" y="604" width="12" height="12" fill="#807dba"/>
<text x="305" y="614" fill="#222">apiSpecialize</text>
<rect x="566" y="604" width="12" height="12" fill="#6a51a3"/>
<text x="582" y="614" fill="#222">apiLink</text>
<rect x="843" y="604" width="12" height="12" fill="#fd8d3c"/>
<text x="859" y="614" fill="#222">apiGetCode</text>
<rect x="12" y="622" width="12" height="12" fill="#b5bdc4"/>
<text x="28" y="632" fill="#222">apiReflection</text>
<rect x="289" y="622" width="12" height="12" fill="#969696"/>
<text x="305" y="632" fill="#222">apiTotal (self)</text>
</svg>