<svg xmlns="http://www.w3.org/2000/svg" xmlns:xlink="http://www.w3.org/1999/xlink" width="1132" height="662" viewBox="0 0 1132 662" preserveAspectRatio="xMidYMid meet" font-family="sans-serif" font-size="13">
<rect width="1132" height="662" fill="white"/>
<text x="12" y="30" font-size="20" font-weight="bold">api_module_graph_bin — Daily tip-of-tree (last 30 days) (median ms)</text>
<text x="68" y="60" font-size="15" font-weight="600" fill="#1a1a1a">api_module_graph_bin<tspan fill="#888" font-weight="400" text-decoration="none">  0.88×</tspan></text>
<line x1="68.0" y1="516.0" x2="1108.0" y2="516.0" stroke="#eee"/>
<text x="64.0" y="519.0" text-anchor="end" fill="#999">0.0</text>
<line x1="68.0" y1="296.0" x2="1108.0" y2="296.0" stroke="#eee"/>
<text x="64.0" y="299.0" text-anchor="end" fill="#999">83</text>
<line x1="68.0" y1="76.0" x2="1108.0" y2="76.0" stroke="#eee"/>
<text x="64.0" y="79.0" text-anchor="end" fill="#999">167</text>
<line x1="68.0" y1="76.0" x2="68.0" y2="516.0" stroke="#333"/>
<line x1="68.0" y1="516.0" x2="1108.0" y2="516.0" stroke="#333"/>
<line x1="68.0" y1="516.0" x2="68.0" y2="519.0" stroke="#999"/>
<text x="68.0" y="531.0" text-anchor="end" fill="#e8731a" transform="rotate(-50 68.0 531.0)">06-25</text>
<line x1="137.3" y1="516.0" x2="137.3" y2="519.0" stroke="#999"/>
<text x="137.3" y="531.0" text-anchor="end" fill="#e8731a" transform="rotate(-50 137.3 531.0)">06-26</text>
<line x1="206.7" y1="516.0" x2="206.7" y2="519.0" stroke="#999"/>
<text x="206.7" y="531.0" text-anchor="end" fill="#e8731a" transform="rotate(-50 206.7 531.0)">06-28</text>
<line x1="276.0" y1="516.0" x2="276.0" y2="519.0" stroke="#999"/>
<text x="276.0" y="531.0" text-anchor="end" fill="#e8731a" transform="rotate(-50 276.0 531.0)">07-01</text>
<line x1="345.3" y1="516.0" x2="345.3" y2="519.0" stroke="#999"/>
<text x="345.3" y="531.0" text-anchor="end" fill="#e8731a" transform="rotate(-50 345.3 531.0)">07-02</text>
<line x1="414.7" y1="516.0" x2="414.7" y2="519.0" stroke="#999"/>
<text x="414.7" y="531.0" text-anchor="end" fill="#e8731a" transform="rotate(-50 414.7 531.0)">07-03</text>
<line x1="484.0" y1="516.0" x2="484.0" y2="519.0" stroke="#999"/>
<text x="484.0" y="531.0" text-anchor="end" fill="#e8731a" transform="rotate(-50 484.0 531.0)">07-06</text>
<line x1="553.3" y1="516.0" x2="553.3" y2="519.0" stroke="#999"/>
<text x="553.3" y="531.0" text-anchor="end" fill="#e8731a" transform="rotate(-50 553.3 531.0)">07-07</text>
<line x1="622.7" y1="516.0" x2="622.7" y2="519.0" stroke="#999"/>
<text x="622.7" y="531.0" text-anchor="end" fill="#e8731a" transform="rotate(-50 622.7 531.0)">07-08</text>
<line x1="692.0" y1="516.0" x2="692.0" y2="519.0" stroke="#999"/>
<text x="692.0" y="531.0" text-anchor="end" fill="#e8731a" transform="rotate(-50 692.0 531.0)">07-09</text>
<line x1="761.3" y1="516.0" x2="761.3" y2="519.0" stroke="#999"/>
<text x="761.3" y="531.0" text-anchor="end" fill="#e8731a" transform="rotate(-50 761.3 531.0)">07-10</text>
<line x1="830.7" y1="516.0" x2="830.7" y2="519.0" stroke="#999"/>
<text x="830.7" y="531.0" text-anchor="end" fill="#e8731a" transform="rotate(-50 830.7 531.0)">07-11</text>
<line x1="900.0" y1="516.0" x2="900.0" y2="519.0" stroke="#999"/>
<text x="900.0" y="531.0" text-anchor="end" fill="#e8731a" transform="rotate(-50 900.0 531.0)">07-14</text>
<line x1="969.3" y1="516.0" x2="969.3" y2="519.0" stroke="#999"/>
<text x="969.3" y="531.0" text-anchor="end" fill="#e8731a" transform="rotate(-50 969.3 531.0)">07-15</text>
<line x1="1038.7" y1="516.0" x2="1038.7" y2="519.0" stroke="#999"/>
<text x="1038.7" y="531.0" text-anchor="end" fill="#e8731a" transform="rotate(-50 1038.7 531.0)">07-15</text>
<line x1="1108.0" y1="516.0" x2="1108.0" y2="519.0" stroke="#999"/>
<text x="1108.0" y="531.0" text-anchor="end" fill="#e8731a" transform="rotate(-50 1108.0 531.0)">07-16</text>
<polygon points="68.0,344.3 137.3,345.2 206.7,342.2 276.0,344.7 345.3,344.6 414.7,342.7 484.0,343.3 553.3,347.4 622.7,343.6 692.0,345.4 761.3,343.2 830.7,345.1 900.0,348.5 969.3,358.0 1038.7,360.1 1108.0,355.8 1108.0,516.0 1038.7,516.0 969.3,516.0 900.0,516.0 830.7,516.0 761.3,516.0 692.0,516.0 622.7,516.0 553.3,516.0 484.0,516.0 414.7,516.0 345.3,516.0 276.0,516.0 206.7,516.0 137.3,516.0 68.0,516.0" fill="#c7e9c0" fill-opacity="0.9" stroke="#fff" stroke-width="0.4"><title>api_module_graph_bin — apiCreateGlobalSession</title></polygon>
<polygon points="68.0,344.3 137.3,345.2 206.7,342.1 276.0,344.6 345.3,344.6 414.7,342.6 484.0,343.3 553.3,347.4 622.7,343.6 692.0,345.4 761.3,343.1 830.7,345.1 900.0,348.5 969.3,358.0 1038.7,360.1 1108.0,355.8 1108.0,355.8 1038.7,360.1 969.3,358.0 900.0,348.5 830.7,345.1 761.3,343.2 692.0,345.4 622.7,343.6 553.3,347.4 484.0,343.3 414.7,342.7 345.3,344.6 276.0,344.7 206.7,342.2 137.3,345.2 68.0,344.3" fill="#41ab5d" fill-opacity="0.9" stroke="#fff" stroke-width="0.4"><title>api_module_graph_bin — apiCreateSession</title></polygon>
<polygon points="68.0,157.6 137.3,166.5 206.7,173.3 276.0,171.4 345.3,167.7 414.7,159.4 484.0,170.5 553.3,167.8 622.7,162.7 692.0,169.8 761.3,175.5 830.7,161.2 900.0,174.4 969.3,208.3 1038.7,209.6 1108.0,197.6 1108.0,355.8 1038.7,360.1 969.3,358.0 900.0,348.5 830.7,345.1 761.3,343.1 692.0,345.4 622.7,343.6 553.3,347.4 484.0,343.3 414.7,342.6 345.3,344.6 276.0,344.6 206.7,342.1 137.3,345.2 68.0,344.3" fill="#2171b5" fill-opacity="0.9" stroke="#fff" stroke-width="0.4"><title>api_module_graph_bin — apiLoadModule</title></polygon>
<polygon points="68.0,157.6 137.3,166.5 206.7,173.3 276.0,171.4 345.3,167.7 414.7,159.4 484.0,170.5 553.3,167.8 622.7,162.7 692.0,169.8 761.3,175.5 830.7,161.2 900.0,174.4 969.3,208.3 1038.7,209.6 1108.0,197.6 1108.0,197.6 1038.7,209.6 969.3,208.3 900.0,174.4 830.7,161.2 761.3,175.5 692.0,169.8 622.7,162.7 553.3,167.8 484.0,170.5 414.7,159.4 345.3,167.7 276.0,171.4 206.7,173.3 137.3,166.5 68.0,157.6" fill="#6baed6" fill-opacity="0.9" stroke="#fff" stroke-width="0.4"><title>api_module_graph_bin — apiFindEntryPoint</title></polygon>
<polygon points="68.0,157.5 137.3,166.4 206.7,173.2 276.0,171.2 345.3,167.6 414.7,159.3 484.0,170.4 553.3,167.7 622.7,162.6 692.0,169.6 761.3,175.4 830.7,161.1 900.0,174.3 969.3,208.2 1038.7,209.4 1108.0,197.5 1108.0,197.6 1038.7,209.6 969.3,208.3 900.0,174.4 830.7,161.2 761.3,175.5 692.0,169.8 622.7,162.7 553.3,167.8 484.0,170.5 414.7,159.4 345.3,167.7 276.0,171.4 206.7,173.3 137.3,166.5 68.0,157.6" fill="#9e9ac8" fill-opacity="0.9" stroke="#fff" stroke-width="0.4"><title>api_module_graph_bin — apiComposite</title></polygon>
<polygon points="68.0,154.7 137.3,163.6 206.7,170.3 276.0,168.6 345.3,164.9 414.7,156.4 484.0,167.8 553.3,164.8 622.7,159.9 692.0,166.9 761.3,173.0 830.7,158.3 900.0,171.3 969.3,205.1 1038.7,206.3 1108.0,194.2 1108.0,197.5 1038.7,209.4 969.3,208.2 900.0,174.3 830.7,161.1 761.3,175.4 692.0,169.6 622.7,162.6 553.3,167.7 484.0,170.4 414.7,159.3 345.3,167.6 276.0,171.2 206.7,173.2 137.3,166.4 68.0,157.5" fill="#6a51a3" fill-opacity="0.9" stroke="#fff" stroke-width="0.4"><title>api_module_graph_bin — apiLink</title></polygon>
<polygon points="68.0,108.6 137.3,115.4 206.7,125.8 276.0,122.3 345.3,117.2 414.7,109.7 484.0,121.6 553.3,122.3 622.7,113.2 692.0,123.6 761.3,130.9 830.7,114.5 900.0,126.6 969.3,169.0 1038.7,169.7 1108.0,156.0 1108.0,194.2 1038.7,206.3 969.3,205.1 900.0,171.3 830.7,158.3 761.3,173.0 692.0,166.9 622.7,159.9 553.3,164.8 484.0,167.8 414.7,156.4 345.3,164.9 276.0,168.6 206.7,170.3 137.3,163.6 68.0,154.7" fill="#fd8d3c" fill-opacity="0.9" stroke="#fff" stroke-width="0.4"><title>api_module_graph_bin — apiGetCode</title></polygon>
<text x="12" y="578" fill="#666" font-weight="600">phase buckets</text>
<rect x="12" y="586" width="12" height="12" fill="#c7e9c0"/>
<text x="28" y="596" fill="#222">apiCreateGlobalSession</text>
<rect x="289" y="586" width="12" height="12" fill="#41ab5d"/>
<text x="305" y="596" fill="#222">apiCreateSession</text>
<rect x="566" y="586" width="12" height="12" fill="#2171b5"/>
<text x="582" y="596" fill="#222">apiLoadModule</text>
<rect x="843" y="586" width="12" height="12" fill="#6baed6"/>
<text x="859" y="596" fill="#222">apiFindEntryPoint</text>
<rect x="12" y="604" width="12" height="12" fill="#9e9ac8"/>
<text x="28" y="614" fill="#222">apiComposite</text>
<rect x="289" y="604" width="12" height="12" fill="#807dba"/>
<text x="305" y="614" fill="#222">apiSpecialize</text>
<rect x="566" y="604" width="12" height="12" fill="#6a51a3"/>
<text x="582" y="614" fill="#222">apiLink</text>
<rect x="843" y="604" width="12" height="12" fill="#fd8d3c"/>
<text x="859" y="614" fill="#222">apiGetCode</text>
<rect x="12" y="622" width="12" height="12" fill="#b5bdc4"/>
<text x="28" y="632" fill="#222">apiReflection</text>
<rect x="289" y="622" width="12" height="12" fill="#969696"/>
<text x="305" y="632" fill="#222">apiTotal (self)</text>
</svg>