<svg xmlns="http://www.w3.org/2000/svg" xmlns:xlink="http://www.w3.org/1999/xlink" width="1132" height="662" viewBox="0 0 1132 662" preserveAspectRatio="xMidYMid meet" font-family="sans-serif" font-size="13">
<rect width="1132" height="662" fill="white"/>
<text x="12" y="30" font-size="20" font-weight="bold">api_reflection — Across releases (median ms)</text>
<text x="68" y="60" font-size="15" font-weight="600" fill="#1a1a1a">api_reflection<tspan fill="#888" font-weight="400" text-decoration="none">  1.35×</tspan></text>
<line x1="68.0" y1="516.0" x2="1108.0" y2="516.0" stroke="#eee"/>
<text x="64.0" y="519.0" text-anchor="end" fill="#999">0.0</text>
<line x1="68.0" y1="296.0" x2="1108.0" y2="296.0" stroke="#eee"/>
<text x="64.0" y="299.0" text-anchor="end" fill="#999">1079</text>
<line x1="68.0" y1="76.0" x2="1108.0" y2="76.0" stroke="#eee"/>
<text x="64.0" y="79.0" text-anchor="end" fill="#999">2158</text>
<line x1="68.0" y1="76.0" x2="68.0" y2="516.0" stroke="#333"/>
<line x1="68.0" y1="516.0" x2="1108.0" y2="516.0" stroke="#333"/>
<line x1="68.0" y1="516.0" x2="68.0" y2="519.0" stroke="#999"/>
<text x="68.0" y="531.0" text-anchor="end" fill="#666" transform="rotate(-50 68.0 531.0)">25.12</text>
<line x1="113.2" y1="516.0" x2="113.2" y2="519.0" stroke="#999"/>
<text x="113.2" y="531.0" text-anchor="end" fill="#666" transform="rotate(-50 113.2 531.0)">25.13</text>
<line x1="158.4" y1="516.0" x2="158.4" y2="519.0" stroke="#999"/>
<text x="158.4" y="531.0" text-anchor="end" fill="#666" transform="rotate(-50 158.4 531.0)">25.14</text>
<line x1="203.7" y1="516.0" x2="203.7" y2="519.0" stroke="#999"/>
<text x="203.7" y="531.0" text-anchor="end" fill="#666" transform="rotate(-50 203.7 531.0)">25.15</text>
<line x1="248.9" y1="516.0" x2="248.9" y2="519.0" stroke="#999"/>
<text x="248.9" y="531.0" text-anchor="end" fill="#666" transform="rotate(-50 248.9 531.0)">25.16</text>
<line x1="294.1" y1="516.0" x2="294.1" y2="519.0" stroke="#999"/>
<text x="294.1" y="531.0" text-anchor="end" fill="#666" transform="rotate(-50 294.1 531.0)">25.17</text>
<line x1="339.3" y1="516.0" x2="339.3" y2="519.0" stroke="#999"/>
<text x="339.3" y="531.0" text-anchor="end" fill="#666" transform="rotate(-50 339.3 531.0)">25.18</text>
<line x1="384.5" y1="516.0" x2="384.5" y2="519.0" stroke="#999"/>
<text x="384.5" y="531.0" text-anchor="end" fill="#666" transform="rotate(-50 384.5 531.0)">25.19</text>
<line x1="429.7" y1="516.0" x2="429.7" y2="519.0" stroke="#999"/>
<text x="429.7" y="531.0" text-anchor="end" fill="#666" transform="rotate(-50 429.7 531.0)">25.20</text>
<line x1="475.0" y1="516.0" x2="475.0" y2="519.0" stroke="#999"/>
<text x="475.0" y="531.0" text-anchor="end" fill="#666" transform="rotate(-50 475.0 531.0)">25.21</text>
<line x1="520.2" y1="516.0" x2="520.2" y2="519.0" stroke="#999"/>
<text x="520.2" y="531.0" text-anchor="end" fill="#666" transform="rotate(-50 520.2 531.0)">25.22</text>
<line x1="565.4" y1="516.0" x2="565.4" y2="519.0" stroke="#999"/>
<text x="565.4" y="531.0" text-anchor="end" fill="#666" transform="rotate(-50 565.4 531.0)">25.23</text>
<line x1="610.6" y1="516.0" x2="610.6" y2="519.0" stroke="#999"/>
<text x="610.6" y="531.0" text-anchor="end" fill="#666" transform="rotate(-50 610.6 531.0)">25.24</text>
<line x1="655.8" y1="516.0" x2="655.8" y2="519.0" stroke="#999"/>
<text x="655.8" y="531.0" text-anchor="end" fill="#666" transform="rotate(-50 655.8 531.0)">26.1</text>
<line x1="701.0" y1="516.0" x2="701.0" y2="519.0" stroke="#999"/>
<text x="701.0" y="531.0" text-anchor="end" fill="#666" transform="rotate(-50 701.0 531.0)">26.2</text>
<line x1="746.3" y1="516.0" x2="746.3" y2="519.0" stroke="#999"/>
<text x="746.3" y="531.0" text-anchor="end" fill="#666" transform="rotate(-50 746.3 531.0)">26.3</text>
<line x1="791.5" y1="516.0" x2="791.5" y2="519.0" stroke="#999"/>
<text x="791.5" y="531.0" text-anchor="end" fill="#666" transform="rotate(-50 791.5 531.0)">26.4</text>
<line x1="836.7" y1="516.0" x2="836.7" y2="519.0" stroke="#999"/>
<text x="836.7" y="531.0" text-anchor="end" fill="#666" transform="rotate(-50 836.7 531.0)">26.5</text>
<line x1="881.9" y1="516.0" x2="881.9" y2="519.0" stroke="#999"/>
<text x="881.9" y="531.0" text-anchor="end" fill="#666" transform="rotate(-50 881.9 531.0)">26.7</text>
<line x1="927.1" y1="516.0" x2="927.1" y2="519.0" stroke="#999"/>
<text x="927.1" y="531.0" text-anchor="end" fill="#666" transform="rotate(-50 927.1 531.0)">26.8</text>
<line x1="972.3" y1="516.0" x2="972.3" y2="519.0" stroke="#999"/>
<text x="972.3" y="531.0" text-anchor="end" fill="#666" transform="rotate(-50 972.3 531.0)">26.9</text>
<line x1="1017.6" y1="516.0" x2="1017.6" y2="519.0" stroke="#999"/>
<text x="1017.6" y="531.0" text-anchor="end" fill="#666" transform="rotate(-50 1017.6 531.0)">26.10</text>
<line x1="1062.8" y1="516.0" x2="1062.8" y2="519.0" stroke="#999"/>
<text x="1062.8" y="531.0" text-anchor="end" fill="#666" transform="rotate(-50 1062.8 531.0)">26.11</text>
<line x1="1108.0" y1="516.0" x2="1108.0" y2="519.0" stroke="#999"/>
<text x="1108.0" y="531.0" text-anchor="end" fill="#666" transform="rotate(-50 1108.0 531.0)">26.12</text>
<polygon points="68.0,463.1 113.2,465.3 158.4,459.4 203.7,502.2 248.9,502.5 294.1,502.3 339.3,502.2 384.5,502.2 429.7,502.1 475.0,502.2 520.2,507.4 565.4,507.3 610.6,507.4 655.8,507.4 701.0,506.8 746.3,507.0 791.5,506.7 836.7,506.7 881.9,495.2 927.1,495.1 972.3,492.2 1017.6,488.7 1062.8,495.3 1108.0,493.6 1108.0,516.0 1062.8,516.0 1017.6,516.0 972.3,516.0 927.1,516.0 881.9,516.0 836.7,516.0 791.5,516.0 746.3,516.0 701.0,516.0 655.8,516.0 610.6,516.0 565.4,516.0 520.2,516.0 475.0,516.0 429.7,516.0 384.5,516.0 339.3,516.0 294.1,516.0 248.9,516.0 203.7,516.0 158.4,516.0 113.2,516.0 68.0,516.0" fill="#c7e9c0" fill-opacity="0.9" stroke="#fff" stroke-width="0.4"><title>api_reflection — apiCreateGlobalSession</title></polygon>
<polygon points="68.0,463.0 113.2,465.2 158.4,459.4 203.7,502.2 248.9,502.5 294.1,502.3 339.3,502.2 384.5,502.2 429.7,502.1 475.0,502.2 520.2,507.4 565.4,507.3 610.6,507.4 655.8,507.4 701.0,506.7 746.3,507.0 791.5,506.7 836.7,506.7 881.9,495.2 927.1,495.1 972.3,492.2 1017.6,488.7 1062.8,495.3 1108.0,493.6 1108.0,493.6 1062.8,495.3 1017.6,488.7 972.3,492.2 927.1,495.1 881.9,495.2 836.7,506.7 791.5,506.7 746.3,507.0 701.0,506.8 655.8,507.4 610.6,507.4 565.4,507.3 520.2,507.4 475.0,502.2 429.7,502.1 384.5,502.2 339.3,502.2 294.1,502.3 248.9,502.5 203.7,502.2 158.4,459.4 113.2,465.3 68.0,463.1" fill="#41ab5d" fill-opacity="0.9" stroke="#fff" stroke-width="0.4"><title>api_reflection — apiCreateSession</title></polygon>
<polygon points="68.0,433.0 113.2,431.9 158.4,422.8 203.7,466.6 248.9,466.7 294.1,465.2 339.3,465.8 384.5,465.3 429.7,465.4 475.0,465.1 520.2,471.8 565.4,471.2 610.6,471.5 655.8,470.6 701.0,468.9 746.3,469.2 791.5,468.3 836.7,468.3 881.9,421.5 927.1,418.1 972.3,359.8 1017.6,381.2 1062.8,448.9 1108.0,446.6 1108.0,493.6 1062.8,495.3 1017.6,488.7 972.3,492.2 927.1,495.1 881.9,495.2 836.7,506.7 791.5,506.7 746.3,507.0 701.0,506.7 655.8,507.4 610.6,507.4 565.4,507.3 520.2,507.4 475.0,502.2 429.7,502.1 384.5,502.2 339.3,502.2 294.1,502.3 248.9,502.5 203.7,502.2 158.4,459.4 113.2,465.2 68.0,463.0" fill="#2171b5" fill-opacity="0.9" stroke="#fff" stroke-width="0.4"><title>api_reflection — apiLoadModule</title></polygon>
<polygon points="68.0,433.0 113.2,431.9 158.4,422.8 203.7,466.6 248.9,466.7 294.1,465.2 339.3,465.8 384.5,465.3 429.7,465.4 475.0,465.1 520.2,471.8 565.4,471.2 610.6,471.5 655.8,470.6 701.0,468.9 746.3,469.2 791.5,468.3 836.7,468.3 881.9,421.5 927.1,418.1 972.3,359.8 1017.6,381.2 1062.8,448.9 1108.0,446.6 1108.0,446.6 1062.8,448.9 1017.6,381.2 972.3,359.8 927.1,418.1 881.9,421.5 836.7,468.3 791.5,468.3 746.3,469.2 701.0,468.9 655.8,470.6 610.6,471.5 565.4,471.2 520.2,471.8 475.0,465.1 429.7,465.4 384.5,465.3 339.3,465.8 294.1,465.2 248.9,466.7 203.7,466.6 158.4,422.8 113.2,431.9 68.0,433.0" fill="#6baed6" fill-opacity="0.9" stroke="#fff" stroke-width="0.4"><title>api_reflection — apiFindEntryPoint</title></polygon>
<polygon points="68.0,433.0 113.2,431.9 158.4,422.8 203.7,466.6 248.9,466.7 294.1,465.1 339.3,465.8 384.5,465.3 429.7,465.4 475.0,465.1 520.2,471.8 565.4,471.1 610.6,471.5 655.8,470.6 701.0,468.9 746.3,469.2 791.5,468.3 836.7,468.2 881.9,421.5 927.1,418.1 972.3,359.7 1017.6,381.2 1062.8,448.8 1108.0,446.6 1108.0,446.6 1062.8,448.9 1017.6,381.2 972.3,359.8 927.1,418.1 881.9,421.5 836.7,468.3 791.5,468.3 746.3,469.2 701.0,468.9 655.8,470.6 610.6,471.5 565.4,471.2 520.2,471.8 475.0,465.1 429.7,465.4 384.5,465.3 339.3,465.8 294.1,465.2 248.9,466.7 203.7,466.6 158.4,422.8 113.2,431.9 68.0,433.0" fill="#9e9ac8" fill-opacity="0.9" stroke="#fff" stroke-width="0.4"><title>api_reflection — apiComposite</title></polygon>
<polygon points="68.0,433.0 113.2,431.9 158.4,422.8 203.7,466.6 248.9,466.7 294.1,465.1 339.3,465.8 384.5,465.3 429.7,465.4 475.0,465.1 520.2,471.8 565.4,471.1 610.6,471.5 655.8,470.6 701.0,468.9 746.3,469.2 791.5,468.3 836.7,468.2 881.9,421.5 927.1,418.1 972.3,359.7 1017.6,381.2 1062.8,448.8 1108.0,446.6 1108.0,446.6 1062.8,448.8 1017.6,381.2 972.3,359.7 927.1,418.1 881.9,421.5 836.7,468.2 791.5,468.3 746.3,469.2 701.0,468.9 655.8,470.6 610.6,471.5 565.4,471.1 520.2,471.8 475.0,465.1 429.7,465.4 384.5,465.3 339.3,465.8 294.1,465.1 248.9,466.7 203.7,466.6 158.4,422.8 113.2,431.9 68.0,433.0" fill="#6a51a3" fill-opacity="0.9" stroke="#fff" stroke-width="0.4"><title>api_reflection — apiLink</title></polygon>
<polygon points="68.0,402.1 113.2,400.1 158.4,387.5 203.7,434.5 248.9,434.0 294.1,430.2 339.3,432.1 384.5,430.8 429.7,430.2 475.0,429.2 520.2,435.9 565.4,435.1 610.6,432.6 655.8,432.5 701.0,429.5 746.3,429.7 791.5,428.2 836.7,428.1 881.9,242.9 927.1,234.8 972.3,112.8 1017.6,163.1 1062.8,353.4 1108.0,361.6 1108.0,446.6 1062.8,448.8 1017.6,381.2 972.3,359.7 927.1,418.1 881.9,421.5 836.7,468.2 791.5,468.3 746.3,469.2 701.0,468.9 655.8,470.6 610.6,471.5 565.4,471.1 520.2,471.8 475.0,465.1 429.7,465.4 384.5,465.3 339.3,465.8 294.1,465.1 248.9,466.7 203.7,466.6 158.4,422.8 113.2,431.9 68.0,433.0" fill="#fd8d3c" fill-opacity="0.9" stroke="#fff" stroke-width="0.4"><title>api_reflection — apiGetCode</title></polygon>
<polygon points="68.0,400.9 113.2,398.8 158.4,386.1 203.7,433.2 248.9,432.7 294.1,429.1 339.3,431.0 384.5,429.5 429.7,428.9 475.0,427.9 520.2,434.6 565.4,433.9 610.6,431.3 655.8,431.2 701.0,428.2 746.3,428.4 791.5,426.8 836.7,426.7 881.9,241.5 927.1,233.4 972.3,111.2 1017.6,161.6 1062.8,352.2 1108.0,360.5 1108.0,361.6 1062.8,353.4 1017.6,163.1 972.3,112.8 927.1,234.8 881.9,242.9 836.7,428.1 791.5,428.2 746.3,429.7 701.0,429.5 655.8,432.5 610.6,432.6 565.4,435.1 520.2,435.9 475.0,429.2 429.7,430.2 384.5,430.8 339.3,432.1 294.1,430.2 248.9,434.0 203.7,434.5 158.4,387.5 113.2,400.1 68.0,402.1" fill="#b5bdc4" fill-opacity="0.9" stroke="#fff" stroke-width="0.4"><title>api_reflection — apiReflection</title></polygon>
<polygon points="68.0,400.3 113.2,398.4 158.4,385.9 203.7,432.6 248.9,432.1 294.1,428.5 339.3,430.3 384.5,428.8 429.7,428.4 475.0,427.1 520.2,433.8 565.4,432.8 610.6,430.5 655.8,430.0 701.0,427.2 746.3,427.2 791.5,426.2 836.7,425.5 881.9,239.9 927.1,230.8 972.3,108.6 1017.6,160.4 1062.8,350.5 1108.0,359.9 1108.0,360.5 1062.8,352.2 1017.6,161.6 972.3,111.2 927.1,233.4 881.9,241.5 836.7,426.7 791.5,426.8 746.3,428.4 701.0,428.2 655.8,431.2 610.6,431.3 565.4,433.9 520.2,434.6 475.0,427.9 429.7,428.9 384.5,429.5 339.3,431.0 294.1,429.1 248.9,432.7 203.7,433.2 158.4,386.1 113.2,398.8 68.0,400.9" fill="#969696" fill-opacity="0.9" stroke="#fff" stroke-width="0.4"><title>api_reflection — apiTotal (self)</title></polygon>
<text x="12" y="578" fill="#666" font-weight="600">phase buckets</text>
<rect x="12" y="586" width="12" height="12" fill="#c7e9c0"/>
<text x="28" y="596" fill="#222">apiCreateGlobalSession</text>
<rect x="289" y="586" width="12" height="12" fill="#41ab5d"/>
<text x="305" y="596" fill="#222">apiCreateSession</text>
<rect x="566" y="586" width="12" height="12" fill="#2171b5"/>
<text x="582" y="596" fill="#222">apiLoadModule</text>
<rect x="843" y="586" width="12" height="12" fill="#6baed6"/>
<text x="859" y="596" fill="#222">apiFindEntryPoint</text>
<rect x="12" y="604" width="12" height="12" fill="#9e9ac8"/>
<text x="28" y="614" fill="#222">apiComposite</text>
<rect x="289" y="604" width="12" height="12" fill="#807dba"/>
<text x="305" y="614" fill="#222">apiSpecialize</text>
<rect x="566" y="604" width="12" height="12" fill="#6a51a3"/>
<text x="582" y="614" fill="#222">apiLink</text>
<rect x="843" y="604" width="12" height="12" fill="#fd8d3c"/>
<text x="859" y="614" fill="#222">apiGetCode</text>
<rect x="12" y="622" width="12" height="12" fill="#b5bdc4"/>
<text x="28" y="632" fill="#222">apiReflection</text>
<rect x="289" y="622" width="12" height="12" fill="#969696"/>
<text x="305" y="632" fill="#222">apiTotal (self)</text>
</svg>