<svg xmlns="http://www.w3.org/2000/svg" xmlns:xlink="http://www.w3.org/1999/xlink" width="1132" height="662" viewBox="0 0 1132 662" preserveAspectRatio="xMidYMid meet" font-family="sans-serif" font-size="13">
<rect width="1132" height="662" fill="white"/>
<text x="12" y="30" font-size="20" font-weight="bold">api_specialize — full phase breakdown across releases (median ms)</text>
<text x="68" y="60" font-size="15" font-weight="600" fill="#1a1a1a">api_specialize<tspan fill="#888" font-weight="400" text-decoration="none">  0.82×</tspan></text>
<line x1="68.0" y1="516.0" x2="1108.0" y2="516.0" stroke="#eee"/>
<text x="64.0" y="519.0" text-anchor="end" fill="#999">0.0</text>
<line x1="68.0" y1="296.0" x2="1108.0" y2="296.0" stroke="#eee"/>
<text x="64.0" y="299.0" text-anchor="end" fill="#999">626</text>
<line x1="68.0" y1="76.0" x2="1108.0" y2="76.0" stroke="#eee"/>
<text x="64.0" y="79.0" text-anchor="end" fill="#999">1251</text>
<line x1="68.0" y1="76.0" x2="68.0" y2="516.0" stroke="#333"/>
<line x1="68.0" y1="516.0" x2="1108.0" y2="516.0" stroke="#333"/>
<line x1="706.9" y1="76.0" x2="706.9" y2="516.0" stroke="#e8731a" stroke-width="1.2" stroke-dasharray="4 3"/>
<text x="709.9" y="87.0" fill="#e8731a" font-size="11">daily →</text>
<line x1="68.0" y1="516.0" x2="68.0" y2="519.0" stroke="#999"/>
<text x="68.0" y="531.0" text-anchor="end" fill="#666" transform="rotate(-50 68.0 531.0)">25.14</text>
<line x1="97.7" y1="516.0" x2="97.7" y2="519.0" stroke="#999"/>
<text x="97.7" y="531.0" text-anchor="end" fill="#666" transform="rotate(-50 97.7 531.0)">25.15</text>
<line x1="127.4" y1="516.0" x2="127.4" y2="519.0" stroke="#999"/>
<text x="127.4" y="531.0" text-anchor="end" fill="#666" transform="rotate(-50 127.4 531.0)">25.16</text>
<line x1="157.1" y1="516.0" x2="157.1" y2="519.0" stroke="#999"/>
<text x="157.1" y="531.0" text-anchor="end" fill="#666" transform="rotate(-50 157.1 531.0)">25.17</text>
<line x1="186.9" y1="516.0" x2="186.9" y2="519.0" stroke="#999"/>
<text x="186.9" y="531.0" text-anchor="end" fill="#666" transform="rotate(-50 186.9 531.0)">25.18</text>
<line x1="216.6" y1="516.0" x2="216.6" y2="519.0" stroke="#999"/>
<text x="216.6" y="531.0" text-anchor="end" fill="#666" transform="rotate(-50 216.6 531.0)">25.19</text>
<line x1="246.3" y1="516.0" x2="246.3" y2="519.0" stroke="#999"/>
<text x="246.3" y="531.0" text-anchor="end" fill="#666" transform="rotate(-50 246.3 531.0)">25.20</text>
<line x1="276.0" y1="516.0" x2="276.0" y2="519.0" stroke="#999"/>
<text x="276.0" y="531.0" text-anchor="end" fill="#666" transform="rotate(-50 276.0 531.0)">25.21</text>
<line x1="305.7" y1="516.0" x2="305.7" y2="519.0" stroke="#999"/>
<text x="305.7" y="531.0" text-anchor="end" fill="#666" transform="rotate(-50 305.7 531.0)">25.22</text>
<line x1="335.4" y1="516.0" x2="335.4" y2="519.0" stroke="#999"/>
<text x="335.4" y="531.0" text-anchor="end" fill="#666" transform="rotate(-50 335.4 531.0)">25.23</text>
<line x1="365.1" y1="516.0" x2="365.1" y2="519.0" stroke="#999"/>
<text x="365.1" y="531.0" text-anchor="end" fill="#666" transform="rotate(-50 365.1 531.0)">25.24</text>
<line x1="394.9" y1="516.0" x2="394.9" y2="519.0" stroke="#999"/>
<text x="394.9" y="531.0" text-anchor="end" fill="#666" transform="rotate(-50 394.9 531.0)">26.1</text>
<line x1="424.6" y1="516.0" x2="424.6" y2="519.0" stroke="#999"/>
<text x="424.6" y="531.0" text-anchor="end" fill="#666" transform="rotate(-50 424.6 531.0)">26.2</text>
<line x1="454.3" y1="516.0" x2="454.3" y2="519.0" stroke="#999"/>
<text x="454.3" y="531.0" text-anchor="end" fill="#666" transform="rotate(-50 454.3 531.0)">26.3</text>
<line x1="484.0" y1="516.0" x2="484.0" y2="519.0" stroke="#999"/>
<text x="484.0" y="531.0" text-anchor="end" fill="#666" transform="rotate(-50 484.0 531.0)">26.4</text>
<line x1="513.7" y1="516.0" x2="513.7" y2="519.0" stroke="#999"/>
<text x="513.7" y="531.0" text-anchor="end" fill="#666" transform="rotate(-50 513.7 531.0)">26.5</text>
<line x1="543.4" y1="516.0" x2="543.4" y2="519.0" stroke="#999"/>
<text x="543.4" y="531.0" text-anchor="end" fill="#666" transform="rotate(-50 543.4 531.0)">26.7</text>
<line x1="573.1" y1="516.0" x2="573.1" y2="519.0" stroke="#999"/>
<text x="573.1" y="531.0" text-anchor="end" fill="#666" transform="rotate(-50 573.1 531.0)">26.8</text>
<line x1="602.9" y1="516.0" x2="602.9" y2="519.0" stroke="#999"/>
<text x="602.9" y="531.0" text-anchor="end" fill="#666" transform="rotate(-50 602.9 531.0)">26.9</text>
<line x1="632.6" y1="516.0" x2="632.6" y2="519.0" stroke="#999"/>
<text x="632.6" y="531.0" text-anchor="end" fill="#666" transform="rotate(-50 632.6 531.0)">26.10</text>
<line x1="662.3" y1="516.0" x2="662.3" y2="519.0" stroke="#999"/>
<text x="662.3" y="531.0" text-anchor="end" fill="#666" transform="rotate(-50 662.3 531.0)">26.11</text>
<line x1="692.0" y1="516.0" x2="692.0" y2="519.0" stroke="#999"/>
<text x="692.0" y="531.0" text-anchor="end" fill="#666" transform="rotate(-50 692.0 531.0)">26.12</text>
<line x1="721.7" y1="516.0" x2="721.7" y2="519.0" stroke="#999"/>
<text x="721.7" y="531.0" text-anchor="end" fill="#e8731a" transform="rotate(-50 721.7 531.0)">06-25</text>
<line x1="751.4" y1="516.0" x2="751.4" y2="519.0" stroke="#999"/>
<text x="751.4" y="531.0" text-anchor="end" fill="#e8731a" transform="rotate(-50 751.4 531.0)">06-26</text>
<line x1="781.1" y1="516.0" x2="781.1" y2="519.0" stroke="#999"/>
<text x="781.1" y="531.0" text-anchor="end" fill="#e8731a" transform="rotate(-50 781.1 531.0)">06-28</text>
<line x1="810.9" y1="516.0" x2="810.9" y2="519.0" stroke="#999"/>
<text x="810.9" y="531.0" text-anchor="end" fill="#e8731a" transform="rotate(-50 810.9 531.0)">07-01</text>
<line x1="840.6" y1="516.0" x2="840.6" y2="519.0" stroke="#999"/>
<text x="840.6" y="531.0" text-anchor="end" fill="#e8731a" transform="rotate(-50 840.6 531.0)">07-02</text>
<line x1="870.3" y1="516.0" x2="870.3" y2="519.0" stroke="#999"/>
<text x="870.3" y="531.0" text-anchor="end" fill="#e8731a" transform="rotate(-50 870.3 531.0)">07-03</text>
<line x1="900.0" y1="516.0" x2="900.0" y2="519.0" stroke="#999"/>
<text x="900.0" y="531.0" text-anchor="end" fill="#e8731a" transform="rotate(-50 900.0 531.0)">07-06</text>
<line x1="929.7" y1="516.0" x2="929.7" y2="519.0" stroke="#999"/>
<text x="929.7" y="531.0" text-anchor="end" fill="#e8731a" transform="rotate(-50 929.7 531.0)">07-07</text>
<line x1="959.4" y1="516.0" x2="959.4" y2="519.0" stroke="#999"/>
<text x="959.4" y="531.0" text-anchor="end" fill="#e8731a" transform="rotate(-50 959.4 531.0)">07-08</text>
<line x1="989.1" y1="516.0" x2="989.1" y2="519.0" stroke="#999"/>
<text x="989.1" y="531.0" text-anchor="end" fill="#e8731a" transform="rotate(-50 989.1 531.0)">07-09</text>
<line x1="1018.9" y1="516.0" x2="1018.9" y2="519.0" stroke="#999"/>
<text x="1018.9" y="531.0" text-anchor="end" fill="#e8731a" transform="rotate(-50 1018.9 531.0)">07-10</text>
<line x1="1048.6" y1="516.0" x2="1048.6" y2="519.0" stroke="#999"/>
<text x="1048.6" y="531.0" text-anchor="end" fill="#e8731a" transform="rotate(-50 1048.6 531.0)">07-11</text>
<line x1="1078.3" y1="516.0" x2="1078.3" y2="519.0" stroke="#999"/>
<text x="1078.3" y="531.0" text-anchor="end" fill="#e8731a" transform="rotate(-50 1078.3 531.0)">07-14</text>
<line x1="1108.0" y1="516.0" x2="1108.0" y2="519.0" stroke="#999"/>
<text x="1108.0" y="531.0" text-anchor="end" fill="#e8731a" transform="rotate(-50 1108.0 531.0)">07-15</text>
<polygon points="68.0,429.2 97.7,491.9 127.4,492.2 157.1,487.8 186.9,488.0 216.6,489.6 246.3,490.4 276.0,491.4 305.7,500.9 335.4,500.6 365.1,501.3 394.9,500.8 424.6,499.9 454.3,500.6 484.0,499.9 513.7,500.0 543.4,479.4 573.1,479.7 602.9,474.1 632.6,468.3 662.3,478.3 692.0,478.1 721.7,475.9 751.4,475.5 781.1,473.9 810.9,475.1 840.6,475.3 870.3,476.2 900.0,474.8 929.7,475.8 959.4,475.3 989.1,476.3 1018.9,475.3 1048.6,476.6 1078.3,476.0 1108.0,477.2 1108.0,516.0 1078.3,516.0 1048.6,516.0 1018.9,516.0 989.1,516.0 959.4,516.0 929.7,516.0 900.0,516.0 870.3,516.0 840.6,516.0 810.9,516.0 781.1,516.0 751.4,516.0 721.7,516.0 692.0,516.0 662.3,516.0 632.6,516.0 602.9,516.0 573.1,516.0 543.4,516.0 513.7,516.0 484.0,516.0 454.3,516.0 424.6,516.0 394.9,516.0 365.1,516.0 335.4,516.0 305.7,516.0 276.0,516.0 246.3,516.0 216.6,516.0 186.9,516.0 157.1,516.0 127.4,516.0 97.7,516.0 68.0,516.0" fill="#c7e9c0" fill-opacity="0.9" stroke="#fff" stroke-width="0.4"><title>api_specialize — apiCreateGlobalSession</title></polygon>
<polygon points="68.0,429.2 97.7,491.9 127.4,492.1 157.1,487.8 186.9,488.0 216.6,489.6 246.3,490.4 276.0,491.4 305.7,500.9 335.4,500.6 365.1,501.3 394.9,500.8 424.6,499.9 454.3,500.6 484.0,499.9 513.7,500.0 543.4,479.4 573.1,479.7 602.9,474.1 632.6,468.3 662.3,478.3 692.0,478.1 721.7,475.8 751.4,475.5 781.1,473.9 810.9,475.1 840.6,475.2 870.3,476.1 900.0,474.8 929.7,475.8 959.4,475.3 989.1,476.3 1018.9,475.3 1048.6,476.6 1078.3,476.0 1108.0,477.1 1108.0,477.2 1078.3,476.0 1048.6,476.6 1018.9,475.3 989.1,476.3 959.4,475.3 929.7,475.8 900.0,474.8 870.3,476.2 840.6,475.3 810.9,475.1 781.1,473.9 751.4,475.5 721.7,475.9 692.0,478.1 662.3,478.3 632.6,468.3 602.9,474.1 573.1,479.7 543.4,479.4 513.7,500.0 484.0,499.9 454.3,500.6 424.6,499.9 394.9,500.8 365.1,501.3 335.4,500.6 305.7,500.9 276.0,491.4 246.3,490.4 216.6,489.6 186.9,488.0 157.1,487.8 127.4,492.2 97.7,491.9 68.0,429.2" fill="#41ab5d" fill-opacity="0.9" stroke="#fff" stroke-width="0.4"><title>api_specialize — apiCreateSession</title></polygon>
<polygon points="68.0,424.3 97.7,483.9 127.4,484.1 157.1,477.8 186.9,478.6 216.6,481.0 246.3,482.0 276.0,483.1 305.7,494.3 335.4,494.0 365.1,494.5 394.9,493.7 424.6,492.6 454.3,493.3 484.0,492.5 513.7,492.6 543.4,469.7 573.1,469.7 602.9,463.3 632.6,458.0 662.3,472.8 692.0,472.3 721.7,469.5 751.4,469.2 781.1,467.6 810.9,468.8 840.6,468.8 870.3,469.8 900.0,468.5 929.7,469.5 959.4,469.0 989.1,469.8 1018.9,468.8 1048.6,470.3 1078.3,469.6 1108.0,471.3 1108.0,477.1 1078.3,476.0 1048.6,476.6 1018.9,475.3 989.1,476.3 959.4,475.3 929.7,475.8 900.0,474.8 870.3,476.1 840.6,475.2 810.9,475.1 781.1,473.9 751.4,475.5 721.7,475.8 692.0,478.1 662.3,478.3 632.6,468.3 602.9,474.1 573.1,479.7 543.4,479.4 513.7,500.0 484.0,499.9 454.3,500.6 424.6,499.9 394.9,500.8 365.1,501.3 335.4,500.6 305.7,500.9 276.0,491.4 246.3,490.4 216.6,489.6 186.9,488.0 157.1,487.8 127.4,492.1 97.7,491.9 68.0,429.2" fill="#2171b5" fill-opacity="0.9" stroke="#fff" stroke-width="0.4"><title>api_specialize — apiLoadModule</title></polygon>
<polygon points="68.0,424.2 97.7,483.8 127.4,484.1 157.1,477.8 186.9,478.5 216.6,480.9 246.3,481.9 276.0,483.1 305.7,494.3 335.4,493.9 365.1,494.5 394.9,493.7 424.6,492.5 454.3,493.3 484.0,492.4 513.7,492.5 543.4,469.6 573.1,469.7 602.9,463.2 632.6,458.0 662.3,472.8 692.0,472.2 721.7,469.4 751.4,469.2 781.1,467.6 810.9,468.7 840.6,468.7 870.3,469.7 900.0,468.4 929.7,469.4 959.4,468.9 989.1,469.7 1018.9,468.8 1048.6,470.2 1078.3,469.6 1108.0,471.2 1108.0,471.3 1078.3,469.6 1048.6,470.3 1018.9,468.8 989.1,469.8 959.4,469.0 929.7,469.5 900.0,468.5 870.3,469.8 840.6,468.8 810.9,468.8 781.1,467.6 751.4,469.2 721.7,469.5 692.0,472.3 662.3,472.8 632.6,458.0 602.9,463.3 573.1,469.7 543.4,469.7 513.7,492.6 484.0,492.5 454.3,493.3 424.6,492.6 394.9,493.7 365.1,494.5 335.4,494.0 305.7,494.3 276.0,483.1 246.3,482.0 216.6,481.0 186.9,478.6 157.1,477.8 127.4,484.1 97.7,483.9 68.0,424.3" fill="#9e9ac8" fill-opacity="0.9" stroke="#fff" stroke-width="0.4"><title>api_specialize — apiComposite</title></polygon>
<polygon points="68.0,423.2 97.7,482.7 127.4,483.0 157.1,475.1 186.9,476.1 216.6,478.6 246.3,479.6 276.0,480.7 305.7,491.8 335.4,491.5 365.1,492.1 394.9,491.3 424.6,490.0 454.3,490.9 484.0,489.9 513.7,490.1 543.4,465.8 573.1,465.9 602.9,458.5 632.6,453.2 662.3,468.8 692.0,468.2 721.7,465.5 751.4,465.2 781.1,463.7 810.9,464.7 840.6,464.7 870.3,465.5 900.0,464.3 929.7,465.2 959.4,464.8 989.1,465.7 1018.9,464.6 1048.6,466.0 1078.3,465.7 1108.0,468.3 1108.0,471.2 1078.3,469.6 1048.6,470.2 1018.9,468.8 989.1,469.7 959.4,468.9 929.7,469.4 900.0,468.4 870.3,469.7 840.6,468.7 810.9,468.7 781.1,467.6 751.4,469.2 721.7,469.4 692.0,472.2 662.3,472.8 632.6,458.0 602.9,463.2 573.1,469.7 543.4,469.6 513.7,492.5 484.0,492.4 454.3,493.3 424.6,492.5 394.9,493.7 365.1,494.5 335.4,493.9 305.7,494.3 276.0,483.1 246.3,481.9 216.6,480.9 186.9,478.5 157.1,477.8 127.4,484.1 97.7,483.8 68.0,424.2" fill="#807dba" fill-opacity="0.9" stroke="#fff" stroke-width="0.4"><title>api_specialize — apiSpecialize</title></polygon>
<polygon points="68.0,423.2 97.7,482.7 127.4,483.0 157.1,475.1 186.9,476.1 216.6,478.6 246.3,479.6 276.0,480.7 305.7,491.8 335.4,491.5 365.1,492.1 394.9,491.3 424.6,490.0 454.3,490.9 484.0,489.9 513.7,490.1 543.4,465.8 573.1,465.9 602.9,458.5 632.6,453.2 662.3,468.7 692.0,468.2 721.7,465.5 751.4,465.2 781.1,463.7 810.9,464.7 840.6,464.7 870.3,465.5 900.0,464.3 929.7,465.2 959.4,464.8 989.1,465.7 1018.9,464.6 1048.6,466.0 1078.3,465.7 1108.0,468.3 1108.0,468.3 1078.3,465.7 1048.6,466.0 1018.9,464.6 989.1,465.7 959.4,464.8 929.7,465.2 900.0,464.3 870.3,465.5 840.6,464.7 810.9,464.7 781.1,463.7 751.4,465.2 721.7,465.5 692.0,468.2 662.3,468.8 632.6,453.2 602.9,458.5 573.1,465.9 543.4,465.8 513.7,490.1 484.0,489.9 454.3,490.9 424.6,490.0 394.9,491.3 365.1,492.1 335.4,491.5 305.7,491.8 276.0,480.7 246.3,479.6 216.6,478.6 186.9,476.1 157.1,475.1 127.4,483.0 97.7,482.7 68.0,423.2" fill="#6a51a3" fill-opacity="0.9" stroke="#fff" stroke-width="0.4"><title>api_specialize — apiLink</title></polygon>
<polygon points="68.0,396.7 97.7,456.3 127.4,456.5 157.1,439.1 186.9,443.6 216.6,446.5 246.3,448.1 276.0,448.8 305.7,459.9 335.4,459.5 365.1,455.0 394.9,453.7 424.6,451.2 454.3,451.8 484.0,450.5 513.7,450.5 543.4,207.3 573.1,201.5 602.9,121.2 632.6,110.4 662.3,361.8 692.0,377.2 721.7,363.8 751.4,364.4 781.1,362.6 810.9,364.2 840.6,362.9 870.3,363.2 900.0,363.2 929.7,405.2 959.4,405.9 989.1,407.1 1018.9,405.2 1048.6,406.7 1078.3,406.5 1108.0,417.9 1108.0,468.3 1078.3,465.7 1048.6,466.0 1018.9,464.6 989.1,465.7 959.4,464.8 929.7,465.2 900.0,464.3 870.3,465.5 840.6,464.7 810.9,464.7 781.1,463.7 751.4,465.2 721.7,465.5 692.0,468.2 662.3,468.7 632.6,453.2 602.9,458.5 573.1,465.9 543.4,465.8 513.7,490.1 484.0,489.9 454.3,490.9 424.6,490.0 394.9,491.3 365.1,492.1 335.4,491.5 305.7,491.8 276.0,480.7 246.3,479.6 216.6,478.6 186.9,476.1 157.1,475.1 127.4,483.0 97.7,482.7 68.0,423.2" fill="#fd8d3c" fill-opacity="0.9" stroke="#fff" stroke-width="0.4"><title>api_specialize — apiGetCode</title></polygon>
<polygon points="68.0,396.1 97.7,455.9 127.4,456.1 157.1,437.7 186.9,441.0 216.6,444.8 246.3,446.5 276.0,447.0 305.7,458.4 335.4,458.0 365.1,453.0 394.9,452.0 424.6,449.3 454.3,449.9 484.0,448.8 513.7,449.0 543.4,206.0 573.1,200.2 602.9,118.7 632.6,108.6 662.3,360.2 692.0,375.3 721.7,363.0 751.4,363.1 781.1,361.5 810.9,362.6 840.6,360.9 870.3,361.6 900.0,360.7 929.7,402.8 959.4,403.9 989.1,405.0 1018.9,403.4 1048.6,405.2 1078.3,405.6 1108.0,417.6 1108.0,417.9 1078.3,406.5 1048.6,406.7 1018.9,405.2 989.1,407.1 959.4,405.9 929.7,405.2 900.0,363.2 870.3,363.2 840.6,362.9 810.9,364.2 781.1,362.6 751.4,364.4 721.7,363.8 692.0,377.2 662.3,361.8 632.6,110.4 602.9,121.2 573.1,201.5 543.4,207.3 513.7,450.5 484.0,450.5 454.3,451.8 424.6,451.2 394.9,453.7 365.1,455.0 335.4,459.5 305.7,459.9 276.0,448.8 246.3,448.1 216.6,446.5 186.9,443.6 157.1,439.1 127.4,456.5 97.7,456.3 68.0,396.7" fill="#969696" fill-opacity="0.9" stroke="#fff" stroke-width="0.4"><title>api_specialize — apiTotal (self)</title></polygon>
<text x="12" y="578" fill="#666" font-weight="600">phase buckets</text>
<rect x="12" y="586" width="12" height="12" fill="#c7e9c0"/>
<text x="28" y="596" fill="#222">apiCreateGlobalSession</text>
<rect x="289" y="586" width="12" height="12" fill="#41ab5d"/>
<text x="305" y="596" fill="#222">apiCreateSession</text>
<rect x="566" y="586" width="12" height="12" fill="#2171b5"/>
<text x="582" y="596" fill="#222">apiLoadModule</text>
<rect x="843" y="586" width="12" height="12" fill="#6baed6"/>
<text x="859" y="596" fill="#222">apiFindEntryPoint</text>
<rect x="12" y="604" width="12" height="12" fill="#9e9ac8"/>
<text x="28" y="614" fill="#222">apiComposite</text>
<rect x="289" y="604" width="12" height="12" fill="#807dba"/>
<text x="305" y="614" fill="#222">apiSpecialize</text>
<rect x="566" y="604" width="12" height="12" fill="#6a51a3"/>
<text x="582" y="614" fill="#222">apiLink</text>
<rect x="843" y="604" width="12" height="12" fill="#fd8d3c"/>
<text x="859" y="614" fill="#222">apiGetCode</text>
<rect x="12" y="622" width="12" height="12" fill="#b5bdc4"/>
<text x="28" y="632" fill="#222">apiReflection</text>
<rect x="289" y="622" width="12" height="12" fill="#969696"/>
<text x="305" y="632" fill="#222">apiTotal (self)</text>
</svg>