<svg xmlns="http://www.w3.org/2000/svg" xmlns:xlink="http://www.w3.org/1999/xlink" width="1132" height="662" viewBox="0 0 1132 662" preserveAspectRatio="xMidYMid meet" font-family="sans-serif" font-size="13">
<rect width="1132" height="662" fill="white"/>
<text x="12" y="30" font-size="20" font-weight="bold">api_specialize — full phase breakdown across releases (median ms)</text>
<text x="68" y="60" font-size="15" font-weight="600" fill="#1a1a1a">api_specialize<tspan fill="#888" font-weight="400" text-decoration="none">  0.92×</tspan></text>
<line x1="68.0" y1="516.0" x2="1108.0" y2="516.0" stroke="#eee"/>
<text x="64.0" y="519.0" text-anchor="end" fill="#999">0.0</text>
<line x1="68.0" y1="296.0" x2="1108.0" y2="296.0" stroke="#eee"/>
<text x="64.0" y="299.0" text-anchor="end" fill="#999">626</text>
<line x1="68.0" y1="76.0" x2="1108.0" y2="76.0" stroke="#eee"/>
<text x="64.0" y="79.0" text-anchor="end" fill="#999">1251</text>
<line x1="68.0" y1="76.0" x2="68.0" y2="516.0" stroke="#333"/>
<line x1="68.0" y1="516.0" x2="1108.0" y2="516.0" stroke="#333"/>
<line x1="725.6" y1="76.0" x2="725.6" y2="516.0" stroke="#e8731a" stroke-width="1.2" stroke-dasharray="4 3"/>
<text x="728.6" y="87.0" fill="#e8731a" font-size="11">daily →</text>
<line x1="68.0" y1="516.0" x2="68.0" y2="519.0" stroke="#999"/>
<text x="68.0" y="531.0" text-anchor="end" fill="#666" transform="rotate(-50 68.0 531.0)">25.14</text>
<line x1="98.6" y1="516.0" x2="98.6" y2="519.0" stroke="#999"/>
<text x="98.6" y="531.0" text-anchor="end" fill="#666" transform="rotate(-50 98.6 531.0)">25.15</text>
<line x1="129.2" y1="516.0" x2="129.2" y2="519.0" stroke="#999"/>
<text x="129.2" y="531.0" text-anchor="end" fill="#666" transform="rotate(-50 129.2 531.0)">25.16</text>
<line x1="159.8" y1="516.0" x2="159.8" y2="519.0" stroke="#999"/>
<text x="159.8" y="531.0" text-anchor="end" fill="#666" transform="rotate(-50 159.8 531.0)">25.17</text>
<line x1="190.4" y1="516.0" x2="190.4" y2="519.0" stroke="#999"/>
<text x="190.4" y="531.0" text-anchor="end" fill="#666" transform="rotate(-50 190.4 531.0)">25.18</text>
<line x1="220.9" y1="516.0" x2="220.9" y2="519.0" stroke="#999"/>
<text x="220.9" y="531.0" text-anchor="end" fill="#666" transform="rotate(-50 220.9 531.0)">25.19</text>
<line x1="251.5" y1="516.0" x2="251.5" y2="519.0" stroke="#999"/>
<text x="251.5" y="531.0" text-anchor="end" fill="#666" transform="rotate(-50 251.5 531.0)">25.20</text>
<line x1="282.1" y1="516.0" x2="282.1" y2="519.0" stroke="#999"/>
<text x="282.1" y="531.0" text-anchor="end" fill="#666" transform="rotate(-50 282.1 531.0)">25.21</text>
<line x1="312.7" y1="516.0" x2="312.7" y2="519.0" stroke="#999"/>
<text x="312.7" y="531.0" text-anchor="end" fill="#666" transform="rotate(-50 312.7 531.0)">25.22</text>
<line x1="343.3" y1="516.0" x2="343.3" y2="519.0" stroke="#999"/>
<text x="343.3" y="531.0" text-anchor="end" fill="#666" transform="rotate(-50 343.3 531.0)">25.23</text>
<line x1="373.9" y1="516.0" x2="373.9" y2="519.0" stroke="#999"/>
<text x="373.9" y="531.0" text-anchor="end" fill="#666" transform="rotate(-50 373.9 531.0)">25.24</text>
<line x1="404.5" y1="516.0" x2="404.5" y2="519.0" stroke="#999"/>
<text x="404.5" y="531.0" text-anchor="end" fill="#666" transform="rotate(-50 404.5 531.0)">26.1</text>
<line x1="435.1" y1="516.0" x2="435.1" y2="519.0" stroke="#999"/>
<text x="435.1" y="531.0" text-anchor="end" fill="#666" transform="rotate(-50 435.1 531.0)">26.2</text>
<line x1="465.6" y1="516.0" x2="465.6" y2="519.0" stroke="#999"/>
<text x="465.6" y="531.0" text-anchor="end" fill="#666" transform="rotate(-50 465.6 531.0)">26.3</text>
<line x1="496.2" y1="516.0" x2="496.2" y2="519.0" stroke="#999"/>
<text x="496.2" y="531.0" text-anchor="end" fill="#666" transform="rotate(-50 496.2 531.0)">26.4</text>
<line x1="526.8" y1="516.0" x2="526.8" y2="519.0" stroke="#999"/>
<text x="526.8" y="531.0" text-anchor="end" fill="#666" transform="rotate(-50 526.8 531.0)">26.5</text>
<line x1="557.4" y1="516.0" x2="557.4" y2="519.0" stroke="#999"/>
<text x="557.4" y="531.0" text-anchor="end" fill="#666" transform="rotate(-50 557.4 531.0)">26.7</text>
<line x1="588.0" y1="516.0" x2="588.0" y2="519.0" stroke="#999"/>
<text x="588.0" y="531.0" text-anchor="end" fill="#666" transform="rotate(-50 588.0 531.0)">26.8</text>
<line x1="618.6" y1="516.0" x2="618.6" y2="519.0" stroke="#999"/>
<text x="618.6" y="531.0" text-anchor="end" fill="#666" transform="rotate(-50 618.6 531.0)">26.9</text>
<line x1="649.2" y1="516.0" x2="649.2" y2="519.0" stroke="#999"/>
<text x="649.2" y="531.0" text-anchor="end" fill="#666" transform="rotate(-50 649.2 531.0)">26.10</text>
<line x1="679.8" y1="516.0" x2="679.8" y2="519.0" stroke="#999"/>
<text x="679.8" y="531.0" text-anchor="end" fill="#666" transform="rotate(-50 679.8 531.0)">26.11</text>
<line x1="710.4" y1="516.0" x2="710.4" y2="519.0" stroke="#999"/>
<text x="710.4" y="531.0" text-anchor="end" fill="#666" transform="rotate(-50 710.4 531.0)">26.12</text>
<line x1="740.9" y1="516.0" x2="740.9" y2="519.0" stroke="#999"/>
<text x="740.9" y="531.0" text-anchor="end" fill="#e8731a" transform="rotate(-50 740.9 531.0)">06-25</text>
<line x1="771.5" y1="516.0" x2="771.5" y2="519.0" stroke="#999"/>
<text x="771.5" y="531.0" text-anchor="end" fill="#e8731a" transform="rotate(-50 771.5 531.0)">06-26</text>
<line x1="802.1" y1="516.0" x2="802.1" y2="519.0" stroke="#999"/>
<text x="802.1" y="531.0" text-anchor="end" fill="#e8731a" transform="rotate(-50 802.1 531.0)">06-28</text>
<line x1="832.7" y1="516.0" x2="832.7" y2="519.0" stroke="#999"/>
<text x="832.7" y="531.0" text-anchor="end" fill="#e8731a" transform="rotate(-50 832.7 531.0)">07-01</text>
<line x1="863.3" y1="516.0" x2="863.3" y2="519.0" stroke="#999"/>
<text x="863.3" y="531.0" text-anchor="end" fill="#e8731a" transform="rotate(-50 863.3 531.0)">07-02</text>
<line x1="893.9" y1="516.0" x2="893.9" y2="519.0" stroke="#999"/>
<text x="893.9" y="531.0" text-anchor="end" fill="#e8731a" transform="rotate(-50 893.9 531.0)">07-03</text>
<line x1="924.5" y1="516.0" x2="924.5" y2="519.0" stroke="#999"/>
<text x="924.5" y="531.0" text-anchor="end" fill="#e8731a" transform="rotate(-50 924.5 531.0)">07-06</text>
<line x1="955.1" y1="516.0" x2="955.1" y2="519.0" stroke="#999"/>
<text x="955.1" y="531.0" text-anchor="end" fill="#e8731a" transform="rotate(-50 955.1 531.0)">07-07</text>
<line x1="985.6" y1="516.0" x2="985.6" y2="519.0" stroke="#999"/>
<text x="985.6" y="531.0" text-anchor="end" fill="#e8731a" transform="rotate(-50 985.6 531.0)">07-08</text>
<line x1="1016.2" y1="516.0" x2="1016.2" y2="519.0" stroke="#999"/>
<text x="1016.2" y="531.0" text-anchor="end" fill="#e8731a" transform="rotate(-50 1016.2 531.0)">07-09</text>
<line x1="1046.8" y1="516.0" x2="1046.8" y2="519.0" stroke="#999"/>
<text x="1046.8" y="531.0" text-anchor="end" fill="#e8731a" transform="rotate(-50 1046.8 531.0)">07-10</text>
<line x1="1077.4" y1="516.0" x2="1077.4" y2="519.0" stroke="#999"/>
<text x="1077.4" y="531.0" text-anchor="end" fill="#e8731a" transform="rotate(-50 1077.4 531.0)">07-11</text>
<line x1="1108.0" y1="516.0" x2="1108.0" y2="519.0" stroke="#999"/>
<text x="1108.0" y="531.0" text-anchor="end" fill="#e8731a" transform="rotate(-50 1108.0 531.0)">07-14</text>
<polygon points="68.0,429.2 98.6,491.9 129.2,492.2 159.8,487.8 190.4,488.0 220.9,489.6 251.5,490.4 282.1,491.4 312.7,500.9 343.3,500.6 373.9,501.3 404.5,500.8 435.1,499.9 465.6,500.6 496.2,499.9 526.8,500.0 557.4,479.4 588.0,479.7 618.6,474.1 649.2,468.3 679.8,478.3 710.4,478.9 740.9,475.9 771.5,475.5 802.1,473.9 832.7,475.1 863.3,475.3 893.9,476.2 924.5,474.8 955.1,475.8 985.6,475.3 1016.2,476.3 1046.8,475.3 1077.4,476.6 1108.0,476.0 1108.0,516.0 1077.4,516.0 1046.8,516.0 1016.2,516.0 985.6,516.0 955.1,516.0 924.5,516.0 893.9,516.0 863.3,516.0 832.7,516.0 802.1,516.0 771.5,516.0 740.9,516.0 710.4,516.0 679.8,516.0 649.2,516.0 618.6,516.0 588.0,516.0 557.4,516.0 526.8,516.0 496.2,516.0 465.6,516.0 435.1,516.0 404.5,516.0 373.9,516.0 343.3,516.0 312.7,516.0 282.1,516.0 251.5,516.0 220.9,516.0 190.4,516.0 159.8,516.0 129.2,516.0 98.6,516.0 68.0,516.0" fill="#c7e9c0" fill-opacity="0.9" stroke="#fff" stroke-width="0.4"><title>api_specialize — apiCreateGlobalSession</title></polygon>
<polygon points="68.0,429.2 98.6,491.9 129.2,492.1 159.8,487.8 190.4,488.0 220.9,489.6 251.5,490.4 282.1,491.4 312.7,500.9 343.3,500.6 373.9,501.3 404.5,500.8 435.1,499.9 465.6,500.6 496.2,499.9 526.8,500.0 557.4,479.4 588.0,479.7 618.6,474.1 649.2,468.3 679.8,478.3 710.4,478.9 740.9,475.8 771.5,475.5 802.1,473.9 832.7,475.1 863.3,475.2 893.9,476.1 924.5,474.8 955.1,475.8 985.6,475.3 1016.2,476.3 1046.8,475.3 1077.4,476.6 1108.0,476.0 1108.0,476.0 1077.4,476.6 1046.8,475.3 1016.2,476.3 985.6,475.3 955.1,475.8 924.5,474.8 893.9,476.2 863.3,475.3 832.7,475.1 802.1,473.9 771.5,475.5 740.9,475.9 710.4,478.9 679.8,478.3 649.2,468.3 618.6,474.1 588.0,479.7 557.4,479.4 526.8,500.0 496.2,499.9 465.6,500.6 435.1,499.9 404.5,500.8 373.9,501.3 343.3,500.6 312.7,500.9 282.1,491.4 251.5,490.4 220.9,489.6 190.4,488.0 159.8,487.8 129.2,492.2 98.6,491.9 68.0,429.2" fill="#41ab5d" fill-opacity="0.9" stroke="#fff" stroke-width="0.4"><title>api_specialize — apiCreateSession</title></polygon>
<polygon points="68.0,424.3 98.6,483.9 129.2,484.1 159.8,477.8 190.4,478.6 220.9,481.0 251.5,482.0 282.1,483.1 312.7,494.3 343.3,494.0 373.9,494.5 404.5,493.7 435.1,492.6 465.6,493.3 496.2,492.5 526.8,492.6 557.4,469.7 588.0,469.7 618.6,463.3 649.2,458.0 679.8,472.8 710.4,473.0 740.9,469.5 771.5,469.2 802.1,467.6 832.7,468.8 863.3,468.8 893.9,469.8 924.5,468.5 955.1,469.5 985.6,469.0 1016.2,469.8 1046.8,468.8 1077.4,470.3 1108.0,469.6 1108.0,476.0 1077.4,476.6 1046.8,475.3 1016.2,476.3 985.6,475.3 955.1,475.8 924.5,474.8 893.9,476.1 863.3,475.2 832.7,475.1 802.1,473.9 771.5,475.5 740.9,475.8 710.4,478.9 679.8,478.3 649.2,468.3 618.6,474.1 588.0,479.7 557.4,479.4 526.8,500.0 496.2,499.9 465.6,500.6 435.1,499.9 404.5,500.8 373.9,501.3 343.3,500.6 312.7,500.9 282.1,491.4 251.5,490.4 220.9,489.6 190.4,488.0 159.8,487.8 129.2,492.1 98.6,491.9 68.0,429.2" fill="#2171b5" fill-opacity="0.9" stroke="#fff" stroke-width="0.4"><title>api_specialize — apiLoadModule</title></polygon>
<polygon points="68.0,424.2 98.6,483.8 129.2,484.1 159.8,477.8 190.4,478.5 220.9,480.9 251.5,481.9 282.1,483.1 312.7,494.3 343.3,493.9 373.9,494.5 404.5,493.7 435.1,492.5 465.6,493.3 496.2,492.4 526.8,492.5 557.4,469.6 588.0,469.7 618.6,463.2 649.2,458.0 679.8,472.8 710.4,473.0 740.9,469.4 771.5,469.2 802.1,467.6 832.7,468.7 863.3,468.7 893.9,469.7 924.5,468.4 955.1,469.4 985.6,468.9 1016.2,469.7 1046.8,468.8 1077.4,470.2 1108.0,469.6 1108.0,469.6 1077.4,470.3 1046.8,468.8 1016.2,469.8 985.6,469.0 955.1,469.5 924.5,468.5 893.9,469.8 863.3,468.8 832.7,468.8 802.1,467.6 771.5,469.2 740.9,469.5 710.4,473.0 679.8,472.8 649.2,458.0 618.6,463.3 588.0,469.7 557.4,469.7 526.8,492.6 496.2,492.5 465.6,493.3 435.1,492.6 404.5,493.7 373.9,494.5 343.3,494.0 312.7,494.3 282.1,483.1 251.5,482.0 220.9,481.0 190.4,478.6 159.8,477.8 129.2,484.1 98.6,483.9 68.0,424.3" fill="#9e9ac8" fill-opacity="0.9" stroke="#fff" stroke-width="0.4"><title>api_specialize — apiComposite</title></polygon>
<polygon points="68.0,423.2 98.6,482.7 129.2,483.0 159.8,475.1 190.4,476.1 220.9,478.6 251.5,479.6 282.1,480.7 312.7,491.8 343.3,491.5 373.9,492.1 404.5,491.3 435.1,490.0 465.6,490.9 496.2,489.9 526.8,490.1 557.4,465.8 588.0,465.9 618.6,458.5 649.2,453.2 679.8,468.8 710.4,468.9 740.9,465.5 771.5,465.2 802.1,463.7 832.7,464.7 863.3,464.7 893.9,465.5 924.5,464.3 955.1,465.2 985.6,464.8 1016.2,465.7 1046.8,464.6 1077.4,466.0 1108.0,465.7 1108.0,469.6 1077.4,470.2 1046.8,468.8 1016.2,469.7 985.6,468.9 955.1,469.4 924.5,468.4 893.9,469.7 863.3,468.7 832.7,468.7 802.1,467.6 771.5,469.2 740.9,469.4 710.4,473.0 679.8,472.8 649.2,458.0 618.6,463.2 588.0,469.7 557.4,469.6 526.8,492.5 496.2,492.4 465.6,493.3 435.1,492.5 404.5,493.7 373.9,494.5 343.3,493.9 312.7,494.3 282.1,483.1 251.5,481.9 220.9,480.9 190.4,478.5 159.8,477.8 129.2,484.1 98.6,483.8 68.0,424.2" fill="#807dba" fill-opacity="0.9" stroke="#fff" stroke-width="0.4"><title>api_specialize — apiSpecialize</title></polygon>
<polygon points="68.0,423.2 98.6,482.7 129.2,483.0 159.8,475.1 190.4,476.1 220.9,478.6 251.5,479.6 282.1,480.7 312.7,491.8 343.3,491.5 373.9,492.1 404.5,491.3 435.1,490.0 465.6,490.9 496.2,489.9 526.8,490.1 557.4,465.8 588.0,465.9 618.6,458.5 649.2,453.2 679.8,468.7 710.4,468.9 740.9,465.5 771.5,465.2 802.1,463.7 832.7,464.7 863.3,464.7 893.9,465.5 924.5,464.3 955.1,465.2 985.6,464.8 1016.2,465.7 1046.8,464.6 1077.4,466.0 1108.0,465.7 1108.0,465.7 1077.4,466.0 1046.8,464.6 1016.2,465.7 985.6,464.8 955.1,465.2 924.5,464.3 893.9,465.5 863.3,464.7 832.7,464.7 802.1,463.7 771.5,465.2 740.9,465.5 710.4,468.9 679.8,468.8 649.2,453.2 618.6,458.5 588.0,465.9 557.4,465.8 526.8,490.1 496.2,489.9 465.6,490.9 435.1,490.0 404.5,491.3 373.9,492.1 343.3,491.5 312.7,491.8 282.1,480.7 251.5,479.6 220.9,478.6 190.4,476.1 159.8,475.1 129.2,483.0 98.6,482.7 68.0,423.2" fill="#6a51a3" fill-opacity="0.9" stroke="#fff" stroke-width="0.4"><title>api_specialize — apiLink</title></polygon>
<polygon points="68.0,396.7 98.6,456.3 129.2,456.5 159.8,439.1 190.4,443.6 220.9,446.5 251.5,448.1 282.1,448.8 312.7,459.9 343.3,459.5 373.9,455.0 404.5,453.7 435.1,451.2 465.6,451.8 496.2,450.5 526.8,450.5 557.4,207.3 588.0,201.5 618.6,121.2 649.2,110.4 679.8,361.8 710.4,376.1 740.9,363.8 771.5,364.4 802.1,362.6 832.7,364.2 863.3,362.9 893.9,363.2 924.5,363.2 955.1,405.2 985.6,405.9 1016.2,407.1 1046.8,405.2 1077.4,406.7 1108.0,406.5 1108.0,465.7 1077.4,466.0 1046.8,464.6 1016.2,465.7 985.6,464.8 955.1,465.2 924.5,464.3 893.9,465.5 863.3,464.7 832.7,464.7 802.1,463.7 771.5,465.2 740.9,465.5 710.4,468.9 679.8,468.7 649.2,453.2 618.6,458.5 588.0,465.9 557.4,465.8 526.8,490.1 496.2,489.9 465.6,490.9 435.1,490.0 404.5,491.3 373.9,492.1 343.3,491.5 312.7,491.8 282.1,480.7 251.5,479.6 220.9,478.6 190.4,476.1 159.8,475.1 129.2,483.0 98.6,482.7 68.0,423.2" fill="#fd8d3c" fill-opacity="0.9" stroke="#fff" stroke-width="0.4"><title>api_specialize — apiGetCode</title></polygon>
<polygon points="68.0,396.1 98.6,455.9 129.2,456.1 159.8,437.7 190.4,441.0 220.9,444.8 251.5,446.5 282.1,447.0 312.7,458.4 343.3,458.0 373.9,453.0 404.5,452.0 435.1,449.3 465.6,449.9 496.2,448.8 526.8,449.0 557.4,206.0 588.0,200.2 618.6,118.7 649.2,108.6 679.8,360.2 710.4,374.4 740.9,363.0 771.5,363.1 802.1,361.5 832.7,362.6 863.3,360.9 893.9,361.6 924.5,360.7 955.1,402.8 985.6,403.9 1016.2,405.0 1046.8,403.4 1077.4,405.2 1108.0,405.6 1108.0,406.5 1077.4,406.7 1046.8,405.2 1016.2,407.1 985.6,405.9 955.1,405.2 924.5,363.2 893.9,363.2 863.3,362.9 832.7,364.2 802.1,362.6 771.5,364.4 740.9,363.8 710.4,376.1 679.8,361.8 649.2,110.4 618.6,121.2 588.0,201.5 557.4,207.3 526.8,450.5 496.2,450.5 465.6,451.8 435.1,451.2 404.5,453.7 373.9,455.0 343.3,459.5 312.7,459.9 282.1,448.8 251.5,448.1 220.9,446.5 190.4,443.6 159.8,439.1 129.2,456.5 98.6,456.3 68.0,396.7" fill="#969696" fill-opacity="0.9" stroke="#fff" stroke-width="0.4"><title>api_specialize — apiTotal (self)</title></polygon>
<text x="12" y="578" fill="#666" font-weight="600">phase buckets</text>
<rect x="12" y="586" width="12" height="12" fill="#c7e9c0"/>
<text x="28" y="596" fill="#222">apiCreateGlobalSession</text>
<rect x="289" y="586" width="12" height="12" fill="#41ab5d"/>
<text x="305" y="596" fill="#222">apiCreateSession</text>
<rect x="566" y="586" width="12" height="12" fill="#2171b5"/>
<text x="582" y="596" fill="#222">apiLoadModule</text>
<rect x="843" y="586" width="12" height="12" fill="#6baed6"/>
<text x="859" y="596" fill="#222">apiFindEntryPoint</text>
<rect x="12" y="604" width="12" height="12" fill="#9e9ac8"/>
<text x="28" y="614" fill="#222">apiComposite</text>
<rect x="289" y="604" width="12" height="12" fill="#807dba"/>
<text x="305" y="614" fill="#222">apiSpecialize</text>
<rect x="566" y="604" width="12" height="12" fill="#6a51a3"/>
<text x="582" y="614" fill="#222">apiLink</text>
<rect x="843" y="604" width="12" height="12" fill="#fd8d3c"/>
<text x="859" y="614" fill="#222">apiGetCode</text>
<rect x="12" y="622" width="12" height="12" fill="#b5bdc4"/>
<text x="28" y="632" fill="#222">apiReflection</text>
<rect x="289" y="622" width="12" height="12" fill="#969696"/>
<text x="305" y="632" fill="#222">apiTotal (self)</text>
</svg>