<svg xmlns="http://www.w3.org/2000/svg" xmlns:xlink="http://www.w3.org/1999/xlink" width="1132" height="680" viewBox="0 0 1132 680" preserveAspectRatio="xMidYMid meet" font-family="sans-serif" font-size="13">
<rect width="1132" height="680" fill="white"/>
<text x="12" y="30" font-size="20" font-weight="bold">autodiff — Daily tip-of-tree (last 30 days) (median ms)</text>
<text x="68" y="60" font-size="15" font-weight="600" fill="#1a1a1a">autodiff<tspan fill="#888" font-weight="400" text-decoration="none">  0.59×</tspan></text>
<line x1="68.0" y1="516.0" x2="1108.0" y2="516.0" stroke="#eee"/>
<text x="64.0" y="519.0" text-anchor="end" fill="#999">0.0</text>
<line x1="68.0" y1="296.0" x2="1108.0" y2="296.0" stroke="#eee"/>
<text x="64.0" y="299.0" text-anchor="end" fill="#999">723</text>
<line x1="68.0" y1="76.0" x2="1108.0" y2="76.0" stroke="#eee"/>
<text x="64.0" y="79.0" text-anchor="end" fill="#999">1447</text>
<line x1="68.0" y1="76.0" x2="68.0" y2="516.0" stroke="#333"/>
<line x1="68.0" y1="516.0" x2="1108.0" y2="516.0" stroke="#333"/>
<line x1="68.0" y1="516.0" x2="68.0" y2="519.0" stroke="#999"/>
<text x="68.0" y="531.0" text-anchor="end" fill="#e8731a" transform="rotate(-50 68.0 531.0)">06-25</text>
<line x1="129.2" y1="516.0" x2="129.2" y2="519.0" stroke="#999"/>
<text x="129.2" y="531.0" text-anchor="end" fill="#e8731a" transform="rotate(-50 129.2 531.0)">06-26</text>
<line x1="190.4" y1="516.0" x2="190.4" y2="519.0" stroke="#999"/>
<text x="190.4" y="531.0" text-anchor="end" fill="#e8731a" transform="rotate(-50 190.4 531.0)">06-28</text>
<line x1="251.5" y1="516.0" x2="251.5" y2="519.0" stroke="#999"/>
<text x="251.5" y="531.0" text-anchor="end" fill="#e8731a" transform="rotate(-50 251.5 531.0)">07-01</text>
<line x1="312.7" y1="516.0" x2="312.7" y2="519.0" stroke="#999"/>
<text x="312.7" y="531.0" text-anchor="end" fill="#e8731a" transform="rotate(-50 312.7 531.0)">07-02</text>
<line x1="373.9" y1="516.0" x2="373.9" y2="519.0" stroke="#999"/>
<text x="373.9" y="531.0" text-anchor="end" fill="#e8731a" transform="rotate(-50 373.9 531.0)">07-03</text>
<line x1="435.1" y1="516.0" x2="435.1" y2="519.0" stroke="#999"/>
<text x="435.1" y="531.0" text-anchor="end" fill="#e8731a" transform="rotate(-50 435.1 531.0)">07-06</text>
<line x1="496.2" y1="516.0" x2="496.2" y2="519.0" stroke="#999"/>
<text x="496.2" y="531.0" text-anchor="end" fill="#e8731a" transform="rotate(-50 496.2 531.0)">07-07</text>
<line x1="557.4" y1="516.0" x2="557.4" y2="519.0" stroke="#999"/>
<text x="557.4" y="531.0" text-anchor="end" fill="#e8731a" transform="rotate(-50 557.4 531.0)">07-08</text>
<line x1="618.6" y1="516.0" x2="618.6" y2="519.0" stroke="#999"/>
<text x="618.6" y="531.0" text-anchor="end" fill="#e8731a" transform="rotate(-50 618.6 531.0)">07-09</text>
<line x1="679.8" y1="516.0" x2="679.8" y2="519.0" stroke="#999"/>
<text x="679.8" y="531.0" text-anchor="end" fill="#e8731a" transform="rotate(-50 679.8 531.0)">07-10</text>
<line x1="740.9" y1="516.0" x2="740.9" y2="519.0" stroke="#999"/>
<text x="740.9" y="531.0" text-anchor="end" fill="#e8731a" transform="rotate(-50 740.9 531.0)">07-11</text>
<line x1="802.1" y1="516.0" x2="802.1" y2="519.0" stroke="#999"/>
<text x="802.1" y="531.0" text-anchor="end" fill="#e8731a" transform="rotate(-50 802.1 531.0)">07-14</text>
<line x1="863.3" y1="516.0" x2="863.3" y2="519.0" stroke="#999"/>
<text x="863.3" y="531.0" text-anchor="end" fill="#e8731a" transform="rotate(-50 863.3 531.0)">07-15</text>
<line x1="924.5" y1="516.0" x2="924.5" y2="519.0" stroke="#999"/>
<text x="924.5" y="531.0" text-anchor="end" fill="#e8731a" transform="rotate(-50 924.5 531.0)">07-15</text>
<line x1="985.6" y1="516.0" x2="985.6" y2="519.0" stroke="#999"/>
<text x="985.6" y="531.0" text-anchor="end" fill="#e8731a" transform="rotate(-50 985.6 531.0)">07-16</text>
<line x1="1046.8" y1="516.0" x2="1046.8" y2="519.0" stroke="#999"/>
<text x="1046.8" y="531.0" text-anchor="end" fill="#e8731a" transform="rotate(-50 1046.8 531.0)">07-17</text>
<line x1="1108.0" y1="516.0" x2="1108.0" y2="519.0" stroke="#999"/>
<text x="1108.0" y="531.0" text-anchor="end" fill="#e8731a" transform="rotate(-50 1108.0 531.0)">07-18</text>
<polygon points="68.0,515.6 129.2,515.6 190.4,515.6 251.5,515.6 312.7,515.6 373.9,515.6 435.1,515.6 496.2,515.7 557.4,515.7 618.6,515.7 679.8,515.7 740.9,515.7 802.1,515.7 863.3,515.7 924.5,515.7 985.6,515.7 1046.8,515.7 1108.0,515.7 1108.0,516.0 1046.8,516.0 985.6,516.0 924.5,516.0 863.3,516.0 802.1,516.0 740.9,516.0 679.8,516.0 618.6,516.0 557.4,516.0 496.2,516.0 435.1,516.0 373.9,516.0 312.7,516.0 251.5,516.0 190.4,516.0 129.2,516.0 68.0,516.0" fill="#c7e9c0" fill-opacity="0.9" stroke="#fff" stroke-width="0.4"><title>autodiff — parseTranslationUnit</title></polygon>
<polygon points="68.0,488.2 129.2,488.1 190.4,488.4 251.5,487.9 312.7,487.9 373.9,487.4 435.1,487.7 496.2,488.3 557.4,488.1 618.6,488.3 679.8,487.8 740.9,486.5 802.1,487.4 863.3,488.7 924.5,488.8 985.6,486.3 1046.8,486.0 1108.0,493.0 1108.0,515.7 1046.8,515.7 985.6,515.7 924.5,515.7 863.3,515.7 802.1,515.7 740.9,515.7 679.8,515.7 618.6,515.7 557.4,515.7 496.2,515.7 435.1,515.6 373.9,515.6 312.7,515.6 251.5,515.6 190.4,515.6 129.2,515.6 68.0,515.6" fill="#41ab5d" fill-opacity="0.9" stroke="#fff" stroke-width="0.4"><title>autodiff — SemanticChecking</title></polygon>
<polygon points="68.0,473.8 129.2,473.8 190.4,474.0 251.5,473.1 312.7,473.4 373.9,472.8 435.1,473.0 496.2,473.7 557.4,473.5 618.6,473.7 679.8,473.1 740.9,471.6 802.1,472.2 863.3,474.3 924.5,474.4 985.6,471.3 1046.8,471.0 1108.0,479.5 1108.0,493.0 1046.8,486.0 985.6,486.3 924.5,488.8 863.3,488.7 802.1,487.4 740.9,486.5 679.8,487.8 618.6,488.3 557.4,488.1 496.2,488.3 435.1,487.7 373.9,487.4 312.7,487.9 251.5,487.9 190.4,488.4 129.2,488.1 68.0,488.2" fill="#006d2c" fill-opacity="0.9" stroke="#fff" stroke-width="0.4"><title>autodiff — generateIR</title></polygon>
<polygon points="68.0,473.6 129.2,473.6 190.4,473.5 251.5,473.1 312.7,472.9 373.9,472.7 435.1,472.9 496.2,473.7 557.4,473.3 618.6,473.5 679.8,473.1 740.9,471.4 802.1,471.7 863.3,474.3 924.5,474.2 985.6,471.0 1046.8,470.8 1108.0,479.3 1108.0,479.5 1046.8,471.0 985.6,471.3 924.5,474.4 863.3,474.3 802.1,472.2 740.9,471.6 679.8,473.1 618.6,473.7 557.4,473.5 496.2,473.7 435.1,473.0 373.9,472.8 312.7,473.4 251.5,473.1 190.4,474.0 129.2,473.8 68.0,473.8" fill="#74c476" fill-opacity="0.9" stroke="#fff" stroke-width="0.4"><title>autodiff — frontEndExecute (self)</title></polygon>
<polygon points="68.0,378.8 129.2,379.6 190.4,379.5 251.5,377.7 312.7,378.6 373.9,378.1 435.1,379.5 496.2,375.9 557.4,374.4 618.6,376.2 679.8,386.2 740.9,385.0 802.1,385.6 863.3,395.0 924.5,395.1 985.6,392.1 1046.8,391.5 1108.0,407.6 1108.0,479.3 1046.8,470.8 985.6,471.0 924.5,474.2 863.3,474.3 802.1,471.7 740.9,471.4 679.8,473.1 618.6,473.5 557.4,473.3 496.2,473.7 435.1,472.9 373.9,472.7 312.7,472.9 251.5,473.1 190.4,473.5 129.2,473.6 68.0,473.6" fill="#6baed6" fill-opacity="0.9" stroke="#fff" stroke-width="0.4"><title>autodiff — specializeModule</title></polygon>
<polygon points="68.0,275.4 129.2,276.2 190.4,277.9 251.5,275.0 312.7,336.0 373.9,335.3 435.1,336.6 496.2,333.1 557.4,331.3 618.6,332.8 679.8,360.7 740.9,359.8 802.1,360.5 863.3,372.2 924.5,372.1 985.6,369.3 1046.8,368.7 1108.0,387.6 1108.0,407.6 1046.8,391.5 985.6,392.1 924.5,395.1 863.3,395.0 802.1,385.6 740.9,385.0 679.8,386.2 618.6,376.2 557.4,374.4 496.2,375.9 435.1,379.5 373.9,378.1 312.7,378.6 251.5,377.7 190.4,379.5 129.2,379.6 68.0,378.8" fill="#2171b5" fill-opacity="0.9" stroke="#fff" stroke-width="0.4"><title>autodiff — simplifyIR</title></polygon>
<polygon points="68.0,273.7 129.2,274.4 190.4,276.2 251.5,273.2 312.7,334.3 373.9,333.6 435.1,334.9 496.2,331.4 557.4,329.6 618.6,331.0 679.8,359.0 740.9,358.1 802.1,358.8 863.3,370.5 924.5,370.6 985.6,367.7 1046.8,367.1 1108.0,386.1 1108.0,387.6 1046.8,368.7 985.6,369.3 924.5,372.1 863.3,372.2 802.1,360.5 740.9,359.8 679.8,360.7 618.6,332.8 557.4,331.3 496.2,333.1 435.1,336.6 373.9,335.3 312.7,336.0 251.5,275.0 190.4,277.9 129.2,276.2 68.0,275.4" fill="#08306b" fill-opacity="0.9" stroke="#fff" stroke-width="0.4"><title>autodiff — linkIR</title></polygon>
<polygon points="68.0,273.5 129.2,274.2 190.4,276.0 251.5,272.9 312.7,334.1 373.9,333.3 435.1,334.6 496.2,331.0 557.4,329.2 618.6,330.7 679.8,358.6 740.9,357.7 802.1,358.5 863.3,370.2 924.5,370.3 985.6,367.4 1046.8,366.8 1108.0,385.8 1108.0,386.1 1046.8,367.1 985.6,367.7 924.5,370.6 863.3,370.5 802.1,358.8 740.9,358.1 679.8,359.0 618.6,331.0 557.4,329.6 496.2,331.4 435.1,334.9 373.9,333.6 312.7,334.3 251.5,273.2 190.4,276.2 129.2,274.4 68.0,273.7" fill="#9e9ac8" fill-opacity="0.9" stroke="#fff" stroke-width="0.4"><title>autodiff — unrollLoopsInModule</title></polygon>
<polygon points="68.0,265.1 129.2,265.7 190.4,267.6 251.5,264.6 312.7,325.7 373.9,325.0 435.1,326.1 496.2,322.6 557.4,320.7 618.6,322.2 679.8,356.2 740.9,355.2 802.1,356.1 863.3,367.8 924.5,367.9 985.6,365.0 1046.8,364.3 1108.0,383.6 1108.0,385.8 1046.8,366.8 985.6,367.4 924.5,370.3 863.3,370.2 802.1,358.5 740.9,357.7 679.8,358.6 618.6,330.7 557.4,329.2 496.2,331.0 435.1,334.6 373.9,333.3 312.7,334.1 251.5,272.9 190.4,276.0 129.2,274.2 68.0,273.5" fill="#807dba" fill-opacity="0.9" stroke="#fff" stroke-width="0.4"><title>autodiff — legalizeResourceTypes</title></polygon>
<polygon points="68.0,256.4 129.2,257.0 190.4,258.9 251.5,255.8 312.7,317.1 373.9,316.3 435.1,317.3 496.2,313.9 557.4,311.9 618.6,313.4 679.8,353.2 740.9,352.2 802.1,353.1 863.3,365.0 924.5,365.0 985.6,362.1 1046.8,361.4 1108.0,381.0 1108.0,383.6 1046.8,364.3 985.6,365.0 924.5,367.9 863.3,367.8 802.1,356.1 740.9,355.2 679.8,356.2 618.6,322.2 557.4,320.7 496.2,322.6 435.1,326.1 373.9,325.0 312.7,325.7 251.5,264.6 190.4,267.6 129.2,265.7 68.0,265.1" fill="#6a51a3" fill-opacity="0.9" stroke="#fff" stroke-width="0.4"><title>autodiff — legalizeExistentialTypeLayout</title></polygon>
<polygon points="68.0,255.4 129.2,255.9 190.4,257.8 251.5,254.7 312.7,316.0 373.9,315.2 435.1,316.2 496.2,312.4 557.4,310.4 618.6,312.0 679.8,351.7 740.9,350.8 802.1,351.6 863.3,363.6 924.5,363.6 985.6,360.7 1046.8,360.0 1108.0,379.8 1108.0,381.0 1046.8,361.4 985.6,362.1 924.5,365.0 863.3,365.0 802.1,353.1 740.9,352.2 679.8,353.2 618.6,313.4 557.4,311.9 496.2,313.9 435.1,317.3 373.9,316.3 312.7,317.1 251.5,255.8 190.4,258.9 129.2,257.0 68.0,256.4" fill="#bcbddc" fill-opacity="0.9" stroke="#fff" stroke-width="0.4"><title>autodiff — performMandatoryEarlyInlining</title></polygon>
<polygon points="68.0,254.5 129.2,255.1 190.4,257.0 251.5,253.9 312.7,315.2 373.9,314.4 435.1,315.4 496.2,311.6 557.4,309.6 618.6,311.1 679.8,350.9 740.9,349.9 802.1,350.8 863.3,362.8 924.5,362.8 985.6,359.9 1046.8,359.2 1108.0,379.2 1108.0,379.8 1046.8,360.0 985.6,360.7 924.5,363.6 863.3,363.6 802.1,351.6 740.9,350.8 679.8,351.7 618.6,312.0 557.4,310.4 496.2,312.4 435.1,316.2 373.9,315.2 312.7,316.0 251.5,254.7 190.4,257.8 129.2,255.9 68.0,255.4" fill="#dadaeb" fill-opacity="0.9" stroke="#fff" stroke-width="0.4"><title>autodiff — performForceInlining</title></polygon>
<polygon points="68.0,213.9 129.2,214.7 190.4,216.5 251.5,213.1 312.7,283.6 373.9,282.6 435.1,283.7 496.2,280.5 557.4,278.1 618.6,280.2 679.8,328.3 740.9,327.6 802.1,328.3 863.3,343.2 924.5,343.5 985.6,340.2 1046.8,339.7 1108.0,362.2 1108.0,379.2 1046.8,359.2 985.6,359.9 924.5,362.8 863.3,362.8 802.1,350.8 740.9,349.9 679.8,350.9 618.6,311.1 557.4,309.6 496.2,311.6 435.1,315.4 373.9,314.4 312.7,315.2 251.5,253.9 190.4,257.0 129.2,255.1 68.0,254.5" fill="#4a1486" fill-opacity="0.9" stroke="#fff" stroke-width="0.4"><title>autodiff — linkAndOptimizeIR (self)</title></polygon>
<polygon points="68.0,108.9 129.2,109.2 190.4,113.3 251.5,110.1 312.7,191.1 373.9,189.5 435.1,189.3 496.2,186.8 557.4,183.4 618.6,185.9 679.8,238.9 740.9,237.0 802.1,240.4 863.3,255.9 924.5,255.1 985.6,253.1 1046.8,251.4 1108.0,277.3 1108.0,362.2 1046.8,339.7 985.6,340.2 924.5,343.5 863.3,343.2 802.1,328.3 740.9,327.6 679.8,328.3 618.6,280.2 557.4,278.1 496.2,280.5 435.1,283.7 373.9,282.6 312.7,283.6 251.5,213.1 190.4,216.5 129.2,214.7 68.0,213.9" fill="#e6550d" fill-opacity="0.9" stroke="#fff" stroke-width="0.4"><title>autodiff — generateOutput (self)</title></polygon>
<polygon points="68.0,108.6 129.2,109.2 190.4,112.8 251.5,109.1 312.7,190.6 373.9,187.5 435.1,189.2 496.2,186.8 557.4,182.7 618.6,185.5 679.8,238.3 740.9,237.0 802.1,240.4 863.3,255.9 924.5,255.1 985.6,253.1 1046.8,251.2 1108.0,276.9 1108.0,277.3 1046.8,251.4 985.6,253.1 924.5,255.1 863.3,255.9 802.1,240.4 740.9,237.0 679.8,238.9 618.6,185.9 557.4,183.4 496.2,186.8 435.1,189.3 373.9,189.5 312.7,191.1 251.5,110.1 190.4,113.3 129.2,109.2 68.0,108.9" fill="#969696" fill-opacity="0.9" stroke="#fff" stroke-width="0.4"><title>autodiff — compileInner (self)</title></polygon>
<text x="12" y="578" fill="#666" font-weight="600">phase buckets</text>
<rect x="12" y="586" width="12" height="12" fill="#c7e9c0"/>
<text x="28" y="596" fill="#222">parseTranslationUnit</text>
<rect x="289" y="586" width="12" height="12" fill="#41ab5d"/>
<text x="305" y="596" fill="#222">SemanticChecking</text>
<rect x="566" y="586" width="12" height="12" fill="#006d2c"/>
<text x="582" y="596" fill="#222">generateIR</text>
<rect x="843" y="586" width="12" height="12" fill="#74c476"/>
<text x="859" y="596" fill="#222">frontEndExecute (self)</text>
<rect x="12" y="604" width="12" height="12" fill="#6baed6"/>
<text x="28" y="614" fill="#222">specializeModule</text>
<rect x="289" y="604" width="12" height="12" fill="#2171b5"/>
<text x="305" y="614" fill="#222">simplifyIR</text>
<rect x="566" y="604" width="12" height="12" fill="#08306b"/>
<text x="582" y="614" fill="#222">linkIR</text>
<rect x="843" y="604" width="12" height="12" fill="#9e9ac8"/>
<text x="859" y="614" fill="#222">unrollLoopsInModule</text>
<rect x="12" y="622" width="12" height="12" fill="#807dba"/>
<text x="28" y="632" fill="#222">legalizeResourceTypes</text>
<rect x="289" y="622" width="12" height="12" fill="#6a51a3"/>
<text x="305" y="632" fill="#222">legalizeExistentialTypeLayout</text>
<rect x="566" y="622" width="12" height="12" fill="#bcbddc"/>
<text x="582" y="632" fill="#222">performMandatoryEarlyInlining</text>
<rect x="843" y="622" width="12" height="12" fill="#dadaeb"/>
<text x="859" y="632" fill="#222">performForceInlining</text>
<rect x="12" y="640" width="12" height="12" fill="#4a1486"/>
<text x="28" y="650" fill="#222">linkAndOptimizeIR (self)</text>
<rect x="289" y="640" width="12" height="12" fill="#fd8d3c"/>
<text x="305" y="650" fill="#222">emitEntryPointsSourceFromIR</text>
<rect x="566" y="640" width="12" height="12" fill="#e6550d"/>
<text x="582" y="650" fill="#222">generateOutput (self)</text>
<rect x="843" y="640" width="12" height="12" fill="#969696"/>
<text x="859" y="650" fill="#222">compileInner (self)</text>
</svg>