<svg xmlns="http://www.w3.org/2000/svg" xmlns:xlink="http://www.w3.org/1999/xlink" width="1132" height="680" viewBox="0 0 1132 680" preserveAspectRatio="xMidYMid meet" font-family="sans-serif" font-size="13">
<rect width="1132" height="680" fill="white"/>
<text x="12" y="30" font-size="20" font-weight="bold">autodiff — Daily tip-of-tree (last 30 days) (median ms)</text>
<text x="68" y="60" font-size="15" font-weight="600" fill="#1a1a1a">autodiff<tspan fill="#888" font-weight="400" text-decoration="none">  0.59×</tspan></text>
<line x1="68.0" y1="516.0" x2="1108.0" y2="516.0" stroke="#eee"/>
<text x="64.0" y="519.0" text-anchor="end" fill="#999">0.0</text>
<line x1="68.0" y1="296.0" x2="1108.0" y2="296.0" stroke="#eee"/>
<text x="64.0" y="299.0" text-anchor="end" fill="#999">723</text>
<line x1="68.0" y1="76.0" x2="1108.0" y2="76.0" stroke="#eee"/>
<text x="64.0" y="79.0" text-anchor="end" fill="#999">1447</text>
<line x1="68.0" y1="76.0" x2="68.0" y2="516.0" stroke="#333"/>
<line x1="68.0" y1="516.0" x2="1108.0" y2="516.0" stroke="#333"/>
<line x1="68.0" y1="516.0" x2="68.0" y2="519.0" stroke="#999"/>
<text x="68.0" y="531.0" text-anchor="end" fill="#e8731a" transform="rotate(-50 68.0 531.0)">06-25</text>
<line x1="122.7" y1="516.0" x2="122.7" y2="519.0" stroke="#999"/>
<text x="122.7" y="531.0" text-anchor="end" fill="#e8731a" transform="rotate(-50 122.7 531.0)">06-26</text>
<line x1="177.5" y1="516.0" x2="177.5" y2="519.0" stroke="#999"/>
<text x="177.5" y="531.0" text-anchor="end" fill="#e8731a" transform="rotate(-50 177.5 531.0)">06-28</text>
<line x1="232.2" y1="516.0" x2="232.2" y2="519.0" stroke="#999"/>
<text x="232.2" y="531.0" text-anchor="end" fill="#e8731a" transform="rotate(-50 232.2 531.0)">07-01</text>
<line x1="286.9" y1="516.0" x2="286.9" y2="519.0" stroke="#999"/>
<text x="286.9" y="531.0" text-anchor="end" fill="#e8731a" transform="rotate(-50 286.9 531.0)">07-02</text>
<line x1="341.7" y1="516.0" x2="341.7" y2="519.0" stroke="#999"/>
<text x="341.7" y="531.0" text-anchor="end" fill="#e8731a" transform="rotate(-50 341.7 531.0)">07-03</text>
<line x1="396.4" y1="516.0" x2="396.4" y2="519.0" stroke="#999"/>
<text x="396.4" y="531.0" text-anchor="end" fill="#e8731a" transform="rotate(-50 396.4 531.0)">07-06</text>
<line x1="451.2" y1="516.0" x2="451.2" y2="519.0" stroke="#999"/>
<text x="451.2" y="531.0" text-anchor="end" fill="#e8731a" transform="rotate(-50 451.2 531.0)">07-07</text>
<line x1="505.9" y1="516.0" x2="505.9" y2="519.0" stroke="#999"/>
<text x="505.9" y="531.0" text-anchor="end" fill="#e8731a" transform="rotate(-50 505.9 531.0)">07-08</text>
<line x1="560.6" y1="516.0" x2="560.6" y2="519.0" stroke="#999"/>
<text x="560.6" y="531.0" text-anchor="end" fill="#e8731a" transform="rotate(-50 560.6 531.0)">07-09</text>
<line x1="615.4" y1="516.0" x2="615.4" y2="519.0" stroke="#999"/>
<text x="615.4" y="531.0" text-anchor="end" fill="#e8731a" transform="rotate(-50 615.4 531.0)">07-10</text>
<line x1="670.1" y1="516.0" x2="670.1" y2="519.0" stroke="#999"/>
<text x="670.1" y="531.0" text-anchor="end" fill="#e8731a" transform="rotate(-50 670.1 531.0)">07-11</text>
<line x1="724.8" y1="516.0" x2="724.8" y2="519.0" stroke="#999"/>
<text x="724.8" y="531.0" text-anchor="end" fill="#e8731a" transform="rotate(-50 724.8 531.0)">07-14</text>
<line x1="779.6" y1="516.0" x2="779.6" y2="519.0" stroke="#999"/>
<text x="779.6" y="531.0" text-anchor="end" fill="#e8731a" transform="rotate(-50 779.6 531.0)">07-15</text>
<line x1="834.3" y1="516.0" x2="834.3" y2="519.0" stroke="#999"/>
<text x="834.3" y="531.0" text-anchor="end" fill="#e8731a" transform="rotate(-50 834.3 531.0)">07-15</text>
<line x1="889.1" y1="516.0" x2="889.1" y2="519.0" stroke="#999"/>
<text x="889.1" y="531.0" text-anchor="end" fill="#e8731a" transform="rotate(-50 889.1 531.0)">07-16</text>
<line x1="943.8" y1="516.0" x2="943.8" y2="519.0" stroke="#999"/>
<text x="943.8" y="531.0" text-anchor="end" fill="#e8731a" transform="rotate(-50 943.8 531.0)">07-17</text>
<line x1="998.5" y1="516.0" x2="998.5" y2="519.0" stroke="#999"/>
<text x="998.5" y="531.0" text-anchor="end" fill="#e8731a" transform="rotate(-50 998.5 531.0)">07-18</text>
<line x1="1053.3" y1="516.0" x2="1053.3" y2="519.0" stroke="#999"/>
<text x="1053.3" y="531.0" text-anchor="end" fill="#e8731a" transform="rotate(-50 1053.3 531.0)">07-19</text>
<line x1="1108.0" y1="516.0" x2="1108.0" y2="519.0" stroke="#999"/>
<text x="1108.0" y="531.0" text-anchor="end" fill="#e8731a" transform="rotate(-50 1108.0 531.0)">07-20</text>
<polygon points="68.0,515.6 122.7,515.6 177.5,515.6 232.2,515.6 286.9,515.6 341.7,515.6 396.4,515.6 451.2,515.7 505.9,515.7 560.6,515.7 615.4,515.7 670.1,515.7 724.8,515.7 779.6,515.7 834.3,515.7 889.1,515.7 943.8,515.7 998.5,515.7 1053.3,515.7 1108.0,515.7 1108.0,516.0 1053.3,516.0 998.5,516.0 943.8,516.0 889.1,516.0 834.3,516.0 779.6,516.0 724.8,516.0 670.1,516.0 615.4,516.0 560.6,516.0 505.9,516.0 451.2,516.0 396.4,516.0 341.7,516.0 286.9,516.0 232.2,516.0 177.5,516.0 122.7,516.0 68.0,516.0" fill="#c7e9c0" fill-opacity="0.9" stroke="#fff" stroke-width="0.4"><title>autodiff — parseTranslationUnit</title></polygon>
<polygon points="68.0,488.2 122.7,488.1 177.5,488.4 232.2,487.9 286.9,487.9 341.7,487.4 396.4,487.7 451.2,488.3 505.9,488.1 560.6,488.3 615.4,487.8 670.1,486.5 724.8,487.4 779.6,488.7 834.3,488.8 889.1,486.3 943.8,486.0 998.5,493.0 1053.3,492.6 1108.0,493.0 1108.0,515.7 1053.3,515.7 998.5,515.7 943.8,515.7 889.1,515.7 834.3,515.7 779.6,515.7 724.8,515.7 670.1,515.7 615.4,515.7 560.6,515.7 505.9,515.7 451.2,515.7 396.4,515.6 341.7,515.6 286.9,515.6 232.2,515.6 177.5,515.6 122.7,515.6 68.0,515.6" fill="#41ab5d" fill-opacity="0.9" stroke="#fff" stroke-width="0.4"><title>autodiff — SemanticChecking</title></polygon>
<polygon points="68.0,473.8 122.7,473.8 177.5,474.0 232.2,473.1 286.9,473.4 341.7,472.8 396.4,473.0 451.2,473.7 505.9,473.5 560.6,473.7 615.4,473.1 670.1,471.6 724.8,472.2 779.6,474.3 834.3,474.4 889.1,471.3 943.8,471.0 998.5,479.5 1053.3,478.8 1108.0,479.5 1108.0,493.0 1053.3,492.6 998.5,493.0 943.8,486.0 889.1,486.3 834.3,488.8 779.6,488.7 724.8,487.4 670.1,486.5 615.4,487.8 560.6,488.3 505.9,488.1 451.2,488.3 396.4,487.7 341.7,487.4 286.9,487.9 232.2,487.9 177.5,488.4 122.7,488.1 68.0,488.2" fill="#006d2c" fill-opacity="0.9" stroke="#fff" stroke-width="0.4"><title>autodiff — generateIR</title></polygon>
<polygon points="68.0,473.6 122.7,473.6 177.5,473.5 232.2,473.1 286.9,472.9 341.7,472.7 396.4,472.9 451.2,473.7 505.9,473.3 560.6,473.5 615.4,473.1 670.1,471.4 724.8,471.7 779.6,474.3 834.3,474.2 889.1,471.0 943.8,470.8 998.5,479.3 1053.3,478.5 1108.0,479.4 1108.0,479.5 1053.3,478.8 998.5,479.5 943.8,471.0 889.1,471.3 834.3,474.4 779.6,474.3 724.8,472.2 670.1,471.6 615.4,473.1 560.6,473.7 505.9,473.5 451.2,473.7 396.4,473.0 341.7,472.8 286.9,473.4 232.2,473.1 177.5,474.0 122.7,473.8 68.0,473.8" fill="#74c476" fill-opacity="0.9" stroke="#fff" stroke-width="0.4"><title>autodiff — frontEndExecute (self)</title></polygon>
<polygon points="68.0,378.8 122.7,379.6 177.5,379.5 232.2,377.7 286.9,378.6 341.7,378.1 396.4,379.5 451.2,375.9 505.9,374.4 560.6,376.2 615.4,386.2 670.1,385.0 724.8,385.6 779.6,395.0 834.3,395.1 889.1,392.1 943.8,391.5 998.5,407.6 1053.3,405.7 1108.0,407.6 1108.0,479.4 1053.3,478.5 998.5,479.3 943.8,470.8 889.1,471.0 834.3,474.2 779.6,474.3 724.8,471.7 670.1,471.4 615.4,473.1 560.6,473.5 505.9,473.3 451.2,473.7 396.4,472.9 341.7,472.7 286.9,472.9 232.2,473.1 177.5,473.5 122.7,473.6 68.0,473.6" fill="#6baed6" fill-opacity="0.9" stroke="#fff" stroke-width="0.4"><title>autodiff — specializeModule</title></polygon>
<polygon points="68.0,275.4 122.7,276.2 177.5,277.9 232.2,275.0 286.9,336.0 341.7,335.3 396.4,336.6 451.2,333.1 505.9,331.3 560.6,332.8 615.4,360.7 670.1,359.8 724.8,360.5 779.6,372.2 834.3,372.1 889.1,369.3 943.8,368.7 998.5,387.6 1053.3,385.5 1108.0,387.5 1108.0,407.6 1053.3,405.7 998.5,407.6 943.8,391.5 889.1,392.1 834.3,395.1 779.6,395.0 724.8,385.6 670.1,385.0 615.4,386.2 560.6,376.2 505.9,374.4 451.2,375.9 396.4,379.5 341.7,378.1 286.9,378.6 232.2,377.7 177.5,379.5 122.7,379.6 68.0,378.8" fill="#2171b5" fill-opacity="0.9" stroke="#fff" stroke-width="0.4"><title>autodiff — simplifyIR</title></polygon>
<polygon points="68.0,273.7 122.7,274.4 177.5,276.2 232.2,273.2 286.9,334.3 341.7,333.6 396.4,334.9 451.2,331.4 505.9,329.6 560.6,331.0 615.4,359.0 670.1,358.1 724.8,358.8 779.6,370.5 834.3,370.6 889.1,367.7 943.8,367.1 998.5,386.1 1053.3,384.0 1108.0,386.1 1108.0,387.5 1053.3,385.5 998.5,387.6 943.8,368.7 889.1,369.3 834.3,372.1 779.6,372.2 724.8,360.5 670.1,359.8 615.4,360.7 560.6,332.8 505.9,331.3 451.2,333.1 396.4,336.6 341.7,335.3 286.9,336.0 232.2,275.0 177.5,277.9 122.7,276.2 68.0,275.4" fill="#08306b" fill-opacity="0.9" stroke="#fff" stroke-width="0.4"><title>autodiff — linkIR</title></polygon>
<polygon points="68.0,273.5 122.7,274.2 177.5,276.0 232.2,272.9 286.9,334.1 341.7,333.3 396.4,334.6 451.2,331.0 505.9,329.2 560.6,330.7 615.4,358.6 670.1,357.7 724.8,358.5 779.6,370.2 834.3,370.3 889.1,367.4 943.8,366.8 998.5,385.8 1053.3,383.8 1108.0,385.9 1108.0,386.1 1053.3,384.0 998.5,386.1 943.8,367.1 889.1,367.7 834.3,370.6 779.6,370.5 724.8,358.8 670.1,358.1 615.4,359.0 560.6,331.0 505.9,329.6 451.2,331.4 396.4,334.9 341.7,333.6 286.9,334.3 232.2,273.2 177.5,276.2 122.7,274.4 68.0,273.7" fill="#9e9ac8" fill-opacity="0.9" stroke="#fff" stroke-width="0.4"><title>autodiff — unrollLoopsInModule</title></polygon>
<polygon points="68.0,265.1 122.7,265.7 177.5,267.6 232.2,264.6 286.9,325.7 341.7,325.0 396.4,326.1 451.2,322.6 505.9,320.7 560.6,322.2 615.4,356.2 670.1,355.2 724.8,356.1 779.6,367.8 834.3,367.9 889.1,365.0 943.8,364.3 998.5,383.6 1053.3,381.5 1108.0,383.6 1108.0,385.9 1053.3,383.8 998.5,385.8 943.8,366.8 889.1,367.4 834.3,370.3 779.6,370.2 724.8,358.5 670.1,357.7 615.4,358.6 560.6,330.7 505.9,329.2 451.2,331.0 396.4,334.6 341.7,333.3 286.9,334.1 232.2,272.9 177.5,276.0 122.7,274.2 68.0,273.5" fill="#807dba" fill-opacity="0.9" stroke="#fff" stroke-width="0.4"><title>autodiff — legalizeResourceTypes</title></polygon>
<polygon points="68.0,256.4 122.7,257.0 177.5,258.9 232.2,255.8 286.9,317.1 341.7,316.3 396.4,317.3 451.2,313.9 505.9,311.9 560.6,313.4 615.4,353.2 670.1,352.2 724.8,353.1 779.6,365.0 834.3,365.0 889.1,362.1 943.8,361.4 998.5,381.0 1053.3,378.8 1108.0,381.0 1108.0,383.6 1053.3,381.5 998.5,383.6 943.8,364.3 889.1,365.0 834.3,367.9 779.6,367.8 724.8,356.1 670.1,355.2 615.4,356.2 560.6,322.2 505.9,320.7 451.2,322.6 396.4,326.1 341.7,325.0 286.9,325.7 232.2,264.6 177.5,267.6 122.7,265.7 68.0,265.1" fill="#6a51a3" fill-opacity="0.9" stroke="#fff" stroke-width="0.4"><title>autodiff — legalizeExistentialTypeLayout</title></polygon>
<polygon points="68.0,255.4 122.7,255.9 177.5,257.8 232.2,254.7 286.9,316.0 341.7,315.2 396.4,316.2 451.2,312.4 505.9,310.4 560.6,312.0 615.4,351.7 670.1,350.8 724.8,351.6 779.6,363.6 834.3,363.6 889.1,360.7 943.8,360.0 998.5,379.8 1053.3,377.5 1108.0,379.8 1108.0,381.0 1053.3,378.8 998.5,381.0 943.8,361.4 889.1,362.1 834.3,365.0 779.6,365.0 724.8,353.1 670.1,352.2 615.4,353.2 560.6,313.4 505.9,311.9 451.2,313.9 396.4,317.3 341.7,316.3 286.9,317.1 232.2,255.8 177.5,258.9 122.7,257.0 68.0,256.4" fill="#bcbddc" fill-opacity="0.9" stroke="#fff" stroke-width="0.4"><title>autodiff — performMandatoryEarlyInlining</title></polygon>
<polygon points="68.0,254.5 122.7,255.1 177.5,257.0 232.2,253.9 286.9,315.2 341.7,314.4 396.4,315.4 451.2,311.6 505.9,309.6 560.6,311.1 615.4,350.9 670.1,349.9 724.8,350.8 779.6,362.8 834.3,362.8 889.1,359.9 943.8,359.2 998.5,379.2 1053.3,376.9 1108.0,379.2 1108.0,379.8 1053.3,377.5 998.5,379.8 943.8,360.0 889.1,360.7 834.3,363.6 779.6,363.6 724.8,351.6 670.1,350.8 615.4,351.7 560.6,312.0 505.9,310.4 451.2,312.4 396.4,316.2 341.7,315.2 286.9,316.0 232.2,254.7 177.5,257.8 122.7,255.9 68.0,255.4" fill="#dadaeb" fill-opacity="0.9" stroke="#fff" stroke-width="0.4"><title>autodiff — performForceInlining</title></polygon>
<polygon points="68.0,213.9 122.7,214.7 177.5,216.5 232.2,213.1 286.9,283.6 341.7,282.6 396.4,283.7 451.2,280.5 505.9,278.1 560.6,280.2 615.4,328.3 670.1,327.6 724.8,328.3 779.6,343.2 834.3,343.5 889.1,340.2 943.8,339.7 998.5,362.2 1053.3,359.6 1108.0,362.0 1108.0,379.2 1053.3,376.9 998.5,379.2 943.8,359.2 889.1,359.9 834.3,362.8 779.6,362.8 724.8,350.8 670.1,349.9 615.4,350.9 560.6,311.1 505.9,309.6 451.2,311.6 396.4,315.4 341.7,314.4 286.9,315.2 232.2,253.9 177.5,257.0 122.7,255.1 68.0,254.5" fill="#4a1486" fill-opacity="0.9" stroke="#fff" stroke-width="0.4"><title>autodiff — linkAndOptimizeIR (self)</title></polygon>
<polygon points="68.0,108.9 122.7,109.2 177.5,113.3 232.2,110.1 286.9,191.1 341.7,189.5 396.4,189.3 451.2,186.8 505.9,183.4 560.6,185.9 615.4,238.9 670.1,237.0 724.8,240.4 779.6,255.9 834.3,255.1 889.1,253.1 943.8,251.4 998.5,277.3 1053.3,272.4 1108.0,276.2 1108.0,362.0 1053.3,359.6 998.5,362.2 943.8,339.7 889.1,340.2 834.3,343.5 779.6,343.2 724.8,328.3 670.1,327.6 615.4,328.3 560.6,280.2 505.9,278.1 451.2,280.5 396.4,283.7 341.7,282.6 286.9,283.6 232.2,213.1 177.5,216.5 122.7,214.7 68.0,213.9" fill="#e6550d" fill-opacity="0.9" stroke="#fff" stroke-width="0.4"><title>autodiff — generateOutput (self)</title></polygon>
<polygon points="68.0,108.6 122.7,109.2 177.5,112.8 232.2,109.1 286.9,190.6 341.7,187.5 396.4,189.2 451.2,186.8 505.9,182.7 560.6,185.5 615.4,238.3 670.1,237.0 724.8,240.4 779.6,255.9 834.3,255.1 889.1,253.1 943.8,251.2 998.5,276.9 1053.3,272.4 1108.0,275.6 1108.0,276.2 1053.3,272.4 998.5,277.3 943.8,251.4 889.1,253.1 834.3,255.1 779.6,255.9 724.8,240.4 670.1,237.0 615.4,238.9 560.6,185.9 505.9,183.4 451.2,186.8 396.4,189.3 341.7,189.5 286.9,191.1 232.2,110.1 177.5,113.3 122.7,109.2 68.0,108.9" fill="#969696" fill-opacity="0.9" stroke="#fff" stroke-width="0.4"><title>autodiff — compileInner (self)</title></polygon>
<text x="12" y="578" fill="#666" font-weight="600">phase buckets</text>
<rect x="12" y="586" width="12" height="12" fill="#c7e9c0"/>
<text x="28" y="596" fill="#222">parseTranslationUnit</text>
<rect x="289" y="586" width="12" height="12" fill="#41ab5d"/>
<text x="305" y="596" fill="#222">SemanticChecking</text>
<rect x="566" y="586" width="12" height="12" fill="#006d2c"/>
<text x="582" y="596" fill="#222">generateIR</text>
<rect x="843" y="586" width="12" height="12" fill="#74c476"/>
<text x="859" y="596" fill="#222">frontEndExecute (self)</text>
<rect x="12" y="604" width="12" height="12" fill="#6baed6"/>
<text x="28" y="614" fill="#222">specializeModule</text>
<rect x="289" y="604" width="12" height="12" fill="#2171b5"/>
<text x="305" y="614" fill="#222">simplifyIR</text>
<rect x="566" y="604" width="12" height="12" fill="#08306b"/>
<text x="582" y="614" fill="#222">linkIR</text>
<rect x="843" y="604" width="12" height="12" fill="#9e9ac8"/>
<text x="859" y="614" fill="#222">unrollLoopsInModule</text>
<rect x="12" y="622" width="12" height="12" fill="#807dba"/>
<text x="28" y="632" fill="#222">legalizeResourceTypes</text>
<rect x="289" y="622" width="12" height="12" fill="#6a51a3"/>
<text x="305" y="632" fill="#222">legalizeExistentialTypeLayout</text>
<rect x="566" y="622" width="12" height="12" fill="#bcbddc"/>
<text x="582" y="632" fill="#222">performMandatoryEarlyInlining</text>
<rect x="843" y="622" width="12" height="12" fill="#dadaeb"/>
<text x="859" y="632" fill="#222">performForceInlining</text>
<rect x="12" y="640" width="12" height="12" fill="#4a1486"/>
<text x="28" y="650" fill="#222">linkAndOptimizeIR (self)</text>
<rect x="289" y="640" width="12" height="12" fill="#fd8d3c"/>
<text x="305" y="650" fill="#222">emitEntryPointsSourceFromIR</text>
<rect x="566" y="640" width="12" height="12" fill="#e6550d"/>
<text x="582" y="650" fill="#222">generateOutput (self)</text>
<rect x="843" y="640" width="12" height="12" fill="#969696"/>
<text x="859" y="650" fill="#222">compileInner (self)</text>
</svg>