<svg xmlns="http://www.w3.org/2000/svg" xmlns:xlink="http://www.w3.org/1999/xlink" width="1132" height="680" viewBox="0 0 1132 680" preserveAspectRatio="xMidYMid meet" font-family="sans-serif" font-size="13">
<rect width="1132" height="680" fill="white"/>
<text x="12" y="30" font-size="20" font-weight="bold">autodiff — full phase breakdown across releases (median ms)</text>
<text x="68" y="60" font-size="15" font-weight="600" fill="#1a1a1a">autodiff<tspan fill="#888" font-weight="400" text-decoration="none">  1.19×</tspan></text>
<line x1="68.0" y1="516.0" x2="1108.0" y2="516.0" stroke="#eee"/>
<text x="64.0" y="519.0" text-anchor="end" fill="#999">0.0</text>
<line x1="68.0" y1="296.0" x2="1108.0" y2="296.0" stroke="#eee"/>
<text x="64.0" y="299.0" text-anchor="end" fill="#999">2202</text>
<line x1="68.0" y1="76.0" x2="1108.0" y2="76.0" stroke="#eee"/>
<text x="64.0" y="79.0" text-anchor="end" fill="#999">4403</text>
<line x1="68.0" y1="76.0" x2="68.0" y2="516.0" stroke="#333"/>
<line x1="68.0" y1="516.0" x2="1108.0" y2="516.0" stroke="#333"/>
<line x1="68.0" y1="516.0" x2="68.0" y2="519.0" stroke="#999"/>
<text x="68.0" y="531.0" text-anchor="end" fill="#666" transform="rotate(-50 68.0 531.0)">25.14</text>
<line x1="120.0" y1="516.0" x2="120.0" y2="519.0" stroke="#999"/>
<text x="120.0" y="531.0" text-anchor="end" fill="#666" transform="rotate(-50 120.0 531.0)">25.15</text>
<line x1="172.0" y1="516.0" x2="172.0" y2="519.0" stroke="#999"/>
<text x="172.0" y="531.0" text-anchor="end" fill="#666" transform="rotate(-50 172.0 531.0)">25.16</text>
<line x1="224.0" y1="516.0" x2="224.0" y2="519.0" stroke="#999"/>
<text x="224.0" y="531.0" text-anchor="end" fill="#666" transform="rotate(-50 224.0 531.0)">25.17</text>
<line x1="276.0" y1="516.0" x2="276.0" y2="519.0" stroke="#999"/>
<text x="276.0" y="531.0" text-anchor="end" fill="#666" transform="rotate(-50 276.0 531.0)">25.18</text>
<line x1="328.0" y1="516.0" x2="328.0" y2="519.0" stroke="#999"/>
<text x="328.0" y="531.0" text-anchor="end" fill="#666" transform="rotate(-50 328.0 531.0)">25.19</text>
<line x1="380.0" y1="516.0" x2="380.0" y2="519.0" stroke="#999"/>
<text x="380.0" y="531.0" text-anchor="end" fill="#666" transform="rotate(-50 380.0 531.0)">25.20</text>
<line x1="432.0" y1="516.0" x2="432.0" y2="519.0" stroke="#999"/>
<text x="432.0" y="531.0" text-anchor="end" fill="#666" transform="rotate(-50 432.0 531.0)">25.21</text>
<line x1="484.0" y1="516.0" x2="484.0" y2="519.0" stroke="#999"/>
<text x="484.0" y="531.0" text-anchor="end" fill="#666" transform="rotate(-50 484.0 531.0)">25.22</text>
<line x1="536.0" y1="516.0" x2="536.0" y2="519.0" stroke="#999"/>
<text x="536.0" y="531.0" text-anchor="end" fill="#666" transform="rotate(-50 536.0 531.0)">25.23</text>
<line x1="588.0" y1="516.0" x2="588.0" y2="519.0" stroke="#999"/>
<text x="588.0" y="531.0" text-anchor="end" fill="#666" transform="rotate(-50 588.0 531.0)">25.24</text>
<line x1="640.0" y1="516.0" x2="640.0" y2="519.0" stroke="#999"/>
<text x="640.0" y="531.0" text-anchor="end" fill="#666" transform="rotate(-50 640.0 531.0)">26.1</text>
<line x1="692.0" y1="516.0" x2="692.0" y2="519.0" stroke="#999"/>
<text x="692.0" y="531.0" text-anchor="end" fill="#666" transform="rotate(-50 692.0 531.0)">26.2</text>
<line x1="744.0" y1="516.0" x2="744.0" y2="519.0" stroke="#999"/>
<text x="744.0" y="531.0" text-anchor="end" fill="#666" transform="rotate(-50 744.0 531.0)">26.3</text>
<line x1="796.0" y1="516.0" x2="796.0" y2="519.0" stroke="#999"/>
<text x="796.0" y="531.0" text-anchor="end" fill="#666" transform="rotate(-50 796.0 531.0)">26.4</text>
<line x1="848.0" y1="516.0" x2="848.0" y2="519.0" stroke="#999"/>
<text x="848.0" y="531.0" text-anchor="end" fill="#666" transform="rotate(-50 848.0 531.0)">26.5</text>
<line x1="900.0" y1="516.0" x2="900.0" y2="519.0" stroke="#999"/>
<text x="900.0" y="531.0" text-anchor="end" fill="#666" transform="rotate(-50 900.0 531.0)">26.7</text>
<line x1="952.0" y1="516.0" x2="952.0" y2="519.0" stroke="#999"/>
<text x="952.0" y="531.0" text-anchor="end" fill="#666" transform="rotate(-50 952.0 531.0)">26.8</text>
<line x1="1004.0" y1="516.0" x2="1004.0" y2="519.0" stroke="#999"/>
<text x="1004.0" y="531.0" text-anchor="end" fill="#666" transform="rotate(-50 1004.0 531.0)">26.9</text>
<line x1="1056.0" y1="516.0" x2="1056.0" y2="519.0" stroke="#999"/>
<text x="1056.0" y="531.0" text-anchor="end" fill="#666" transform="rotate(-50 1056.0 531.0)">26.10</text>
<line x1="1108.0" y1="516.0" x2="1108.0" y2="519.0" stroke="#999"/>
<text x="1108.0" y="531.0" text-anchor="end" fill="#666" transform="rotate(-50 1108.0 531.0)">26.11</text>
<polygon points="68.0,515.9 120.0,515.9 172.0,515.9 224.0,515.9 276.0,515.9 328.0,515.9 380.0,515.9 432.0,515.9 484.0,515.9 536.0,515.9 588.0,515.9 640.0,515.9 692.0,515.9 744.0,515.9 796.0,515.9 848.0,515.9 900.0,515.9 952.0,515.9 1004.0,515.9 1056.0,515.9 1108.0,515.9 1108.0,516.0 1056.0,516.0 1004.0,516.0 952.0,516.0 900.0,516.0 848.0,516.0 796.0,516.0 744.0,516.0 692.0,516.0 640.0,516.0 588.0,516.0 536.0,516.0 484.0,516.0 432.0,516.0 380.0,516.0 328.0,516.0 276.0,516.0 224.0,516.0 172.0,516.0 120.0,516.0 68.0,516.0" fill="#c7e9c0" fill-opacity="0.9" stroke="#fff" stroke-width="0.4"><title>autodiff — parseTranslationUnit</title></polygon>
<polygon points="68.0,513.3 120.0,512.3 172.0,512.3 224.0,512.2 276.0,512.3 328.0,512.3 380.0,512.3 432.0,512.3 484.0,512.3 536.0,512.3 588.0,512.3 640.0,512.1 692.0,511.9 744.0,511.9 796.0,511.8 848.0,511.7 900.0,505.8 952.0,505.6 1004.0,505.6 1056.0,505.7 1108.0,507.2 1108.0,515.9 1056.0,515.9 1004.0,515.9 952.0,515.9 900.0,515.9 848.0,515.9 796.0,515.9 744.0,515.9 692.0,515.9 640.0,515.9 588.0,515.9 536.0,515.9 484.0,515.9 432.0,515.9 380.0,515.9 328.0,515.9 276.0,515.9 224.0,515.9 172.0,515.9 120.0,515.9 68.0,515.9" fill="#41ab5d" fill-opacity="0.9" stroke="#fff" stroke-width="0.4"><title>autodiff — SemanticChecking</title></polygon>
<polygon points="68.0,511.8 120.0,510.9 172.0,510.8 224.0,510.7 276.0,510.7 328.0,510.8 380.0,510.7 432.0,510.8 484.0,510.8 536.0,510.9 588.0,510.9 640.0,510.7 692.0,510.6 744.0,510.6 796.0,510.4 848.0,510.3 900.0,499.9 952.0,499.6 1004.0,499.8 1056.0,499.7 1108.0,502.9 1108.0,507.2 1056.0,505.7 1004.0,505.6 952.0,505.6 900.0,505.8 848.0,511.7 796.0,511.8 744.0,511.9 692.0,511.9 640.0,512.1 588.0,512.3 536.0,512.3 484.0,512.3 432.0,512.3 380.0,512.3 328.0,512.3 276.0,512.3 224.0,512.2 172.0,512.3 120.0,512.3 68.0,513.3" fill="#006d2c" fill-opacity="0.9" stroke="#fff" stroke-width="0.4"><title>autodiff — generateIR</title></polygon>
<polygon points="68.0,511.8 120.0,510.8 172.0,510.8 224.0,510.7 276.0,510.7 328.0,510.7 380.0,510.7 432.0,510.7 484.0,510.7 536.0,510.9 588.0,510.9 640.0,510.7 692.0,510.5 744.0,510.5 796.0,510.4 848.0,510.3 900.0,499.8 952.0,499.6 1004.0,499.7 1056.0,499.7 1108.0,502.8 1108.0,502.9 1056.0,499.7 1004.0,499.8 952.0,499.6 900.0,499.9 848.0,510.3 796.0,510.4 744.0,510.6 692.0,510.6 640.0,510.7 588.0,510.9 536.0,510.9 484.0,510.8 432.0,510.8 380.0,510.7 328.0,510.8 276.0,510.7 224.0,510.7 172.0,510.8 120.0,510.9 68.0,511.8" fill="#74c476" fill-opacity="0.9" stroke="#fff" stroke-width="0.4"><title>autodiff — frontEndExecute (self)</title></polygon>
<polygon points="68.0,510.2 120.0,509.2 172.0,509.2 224.0,509.1 276.0,509.1 328.0,509.0 380.0,508.9 432.0,509.0 484.0,509.0 536.0,509.2 588.0,507.3 640.0,507.1 692.0,506.9 744.0,506.9 796.0,506.7 848.0,506.4 900.0,359.2 952.0,359.3 1004.0,359.2 1056.0,359.2 1108.0,474.9 1108.0,502.8 1056.0,499.7 1004.0,499.7 952.0,499.6 900.0,499.8 848.0,510.3 796.0,510.4 744.0,510.5 692.0,510.5 640.0,510.7 588.0,510.9 536.0,510.9 484.0,510.7 432.0,510.7 380.0,510.7 328.0,510.7 276.0,510.7 224.0,510.7 172.0,510.8 120.0,510.8 68.0,511.8" fill="#6baed6" fill-opacity="0.9" stroke="#fff" stroke-width="0.4"><title>autodiff — specializeModule</title></polygon>
<polygon points="68.0,485.1 120.0,484.4 172.0,484.8 224.0,483.1 276.0,482.4 328.0,482.3 380.0,480.3 432.0,482.1 484.0,479.5 536.0,480.7 588.0,476.1 640.0,476.9 692.0,475.8 744.0,475.6 796.0,474.5 848.0,474.1 900.0,212.0 952.0,212.6 1004.0,213.0 1056.0,213.2 1108.0,442.4 1108.0,474.9 1056.0,359.2 1004.0,359.2 952.0,359.3 900.0,359.2 848.0,506.4 796.0,506.7 744.0,506.9 692.0,506.9 640.0,507.1 588.0,507.3 536.0,509.2 484.0,509.0 432.0,509.0 380.0,508.9 328.0,509.0 276.0,509.1 224.0,509.1 172.0,509.2 120.0,509.2 68.0,510.2" fill="#2171b5" fill-opacity="0.9" stroke="#fff" stroke-width="0.4"><title>autodiff — simplifyIR</title></polygon>
<polygon points="68.0,484.9 120.0,484.2 172.0,484.6 224.0,482.9 276.0,482.2 328.0,482.1 380.0,480.1 432.0,481.9 484.0,479.3 536.0,480.5 588.0,475.9 640.0,476.7 692.0,475.6 744.0,475.4 796.0,474.3 848.0,473.8 900.0,210.5 952.0,211.2 1004.0,211.5 1056.0,211.7 1108.0,441.9 1108.0,442.4 1056.0,213.2 1004.0,213.0 952.0,212.6 900.0,212.0 848.0,474.1 796.0,474.5 744.0,475.6 692.0,475.8 640.0,476.9 588.0,476.1 536.0,480.7 484.0,479.5 432.0,482.1 380.0,480.3 328.0,482.3 276.0,482.4 224.0,483.1 172.0,484.8 120.0,484.4 68.0,485.1" fill="#08306b" fill-opacity="0.9" stroke="#fff" stroke-width="0.4"><title>autodiff — linkIR</title></polygon>
<polygon points="68.0,484.8 120.0,484.1 172.0,484.6 224.0,482.9 276.0,482.2 328.0,482.1 380.0,480.0 432.0,481.8 484.0,479.3 536.0,480.5 588.0,475.9 640.0,476.6 692.0,475.6 744.0,475.4 796.0,474.2 848.0,473.8 900.0,210.5 952.0,211.1 1004.0,211.4 1056.0,211.7 1108.0,441.9 1108.0,441.9 1056.0,211.7 1004.0,211.5 952.0,211.2 900.0,210.5 848.0,473.8 796.0,474.3 744.0,475.4 692.0,475.6 640.0,476.7 588.0,475.9 536.0,480.5 484.0,479.3 432.0,481.9 380.0,480.1 328.0,482.1 276.0,482.2 224.0,482.9 172.0,484.6 120.0,484.2 68.0,484.9" fill="#9e9ac8" fill-opacity="0.9" stroke="#fff" stroke-width="0.4"><title>autodiff — unrollLoopsInModule</title></polygon>
<polygon points="68.0,482.1 120.0,481.4 172.0,481.8 224.0,480.2 276.0,480.2 328.0,480.0 380.0,478.1 432.0,479.9 484.0,477.3 536.0,478.5 588.0,474.0 640.0,474.7 692.0,473.6 744.0,473.5 796.0,472.2 848.0,471.8 900.0,207.9 952.0,208.5 1004.0,208.9 1056.0,209.1 1108.0,439.4 1108.0,441.9 1056.0,211.7 1004.0,211.4 952.0,211.1 900.0,210.5 848.0,473.8 796.0,474.2 744.0,475.4 692.0,475.6 640.0,476.6 588.0,475.9 536.0,480.5 484.0,479.3 432.0,481.8 380.0,480.0 328.0,482.1 276.0,482.2 224.0,482.9 172.0,484.6 120.0,484.1 68.0,484.8" fill="#807dba" fill-opacity="0.9" stroke="#fff" stroke-width="0.4"><title>autodiff — legalizeResourceTypes</title></polygon>
<polygon points="68.0,479.0 120.0,478.3 172.0,478.7 224.0,477.1 276.0,477.8 328.0,477.7 380.0,475.8 432.0,477.6 484.0,475.0 536.0,476.3 588.0,471.7 640.0,472.5 692.0,471.4 744.0,471.2 796.0,469.9 848.0,469.5 900.0,204.5 952.0,205.2 1004.0,205.6 1056.0,205.8 1108.0,436.8 1108.0,439.4 1056.0,209.1 1004.0,208.9 952.0,208.5 900.0,207.9 848.0,471.8 796.0,472.2 744.0,473.5 692.0,473.6 640.0,474.7 588.0,474.0 536.0,478.5 484.0,477.3 432.0,479.9 380.0,478.1 328.0,480.0 276.0,480.2 224.0,480.2 172.0,481.8 120.0,481.4 68.0,482.1" fill="#6a51a3" fill-opacity="0.9" stroke="#fff" stroke-width="0.4"><title>autodiff — legalizeExistentialTypeLayout</title></polygon>
<polygon points="68.0,478.8 120.0,478.1 172.0,478.5 224.0,476.9 276.0,477.6 328.0,477.4 380.0,475.6 432.0,477.4 484.0,474.8 536.0,476.0 588.0,471.4 640.0,472.2 692.0,471.1 744.0,471.0 796.0,469.7 848.0,469.2 900.0,204.2 952.0,204.9 1004.0,205.3 1056.0,205.5 1108.0,436.5 1108.0,436.8 1056.0,205.8 1004.0,205.6 952.0,205.2 900.0,204.5 848.0,469.5 796.0,469.9 744.0,471.2 692.0,471.4 640.0,472.5 588.0,471.7 536.0,476.3 484.0,475.0 432.0,477.6 380.0,475.8 328.0,477.7 276.0,477.8 224.0,477.1 172.0,478.7 120.0,478.3 68.0,479.0" fill="#bcbddc" fill-opacity="0.9" stroke="#fff" stroke-width="0.4"><title>autodiff — performMandatoryEarlyInlining</title></polygon>
<polygon points="68.0,478.7 120.0,478.0 172.0,478.4 224.0,476.7 276.0,477.4 328.0,477.3 380.0,475.5 432.0,477.3 484.0,474.7 536.0,475.9 588.0,471.3 640.0,472.1 692.0,471.0 744.0,470.8 796.0,469.5 848.0,469.1 900.0,204.0 952.0,204.6 1004.0,205.0 1056.0,205.2 1108.0,436.2 1108.0,436.5 1056.0,205.5 1004.0,205.3 952.0,204.9 900.0,204.2 848.0,469.2 796.0,469.7 744.0,471.0 692.0,471.1 640.0,472.2 588.0,471.4 536.0,476.0 484.0,474.8 432.0,477.4 380.0,475.6 328.0,477.4 276.0,477.6 224.0,476.9 172.0,478.5 120.0,478.1 68.0,478.8" fill="#dadaeb" fill-opacity="0.9" stroke="#fff" stroke-width="0.4"><title>autodiff — performForceInlining</title></polygon>
<polygon points="68.0,452.9 120.0,451.7 172.0,452.3 224.0,450.1 276.0,450.2 328.0,449.7 380.0,448.1 432.0,449.9 484.0,447.1 536.0,448.4 588.0,443.8 640.0,444.3 692.0,443.1 744.0,443.1 796.0,440.3 848.0,439.9 900.0,155.6 952.0,156.0 1004.0,156.2 1056.0,156.5 1108.0,423.7 1108.0,436.2 1056.0,205.2 1004.0,205.0 952.0,204.6 900.0,204.0 848.0,469.1 796.0,469.5 744.0,470.8 692.0,471.0 640.0,472.1 588.0,471.3 536.0,475.9 484.0,474.7 432.0,477.3 380.0,475.5 328.0,477.3 276.0,477.4 224.0,476.7 172.0,478.4 120.0,478.0 68.0,478.7" fill="#4a1486" fill-opacity="0.9" stroke="#fff" stroke-width="0.4"><title>autodiff — linkAndOptimizeIR (self)</title></polygon>
<polygon points="68.0,410.6 120.0,412.2 172.0,411.6 224.0,421.6 276.0,416.5 328.0,415.4 380.0,417.8 432.0,419.6 484.0,417.3 536.0,418.9 588.0,414.1 640.0,413.9 692.0,413.2 744.0,413.5 796.0,409.9 848.0,408.1 900.0,108.6 952.0,118.9 1004.0,119.3 1056.0,119.5 1108.0,390.4 1108.0,423.7 1056.0,156.5 1004.0,156.2 952.0,156.0 900.0,155.6 848.0,439.9 796.0,440.3 744.0,443.1 692.0,443.1 640.0,444.3 588.0,443.8 536.0,448.4 484.0,447.1 432.0,449.9 380.0,448.1 328.0,449.7 276.0,450.2 224.0,450.1 172.0,452.3 120.0,451.7 68.0,452.9" fill="#e6550d" fill-opacity="0.9" stroke="#fff" stroke-width="0.4"><title>autodiff — generateOutput (self)</title></polygon>
<polygon points="68.0,410.6 120.0,412.2 172.0,411.6 224.0,421.6 276.0,416.5 328.0,415.4 380.0,417.6 432.0,419.6 484.0,417.3 536.0,418.9 588.0,414.1 640.0,413.9 692.0,413.2 744.0,413.5 796.0,409.8 848.0,408.1 900.0,108.6 952.0,118.8 1004.0,119.2 1056.0,119.3 1108.0,390.4 1108.0,390.4 1056.0,119.5 1004.0,119.3 952.0,118.9 900.0,108.6 848.0,408.1 796.0,409.9 744.0,413.5 692.0,413.2 640.0,413.9 588.0,414.1 536.0,418.9 484.0,417.3 432.0,419.6 380.0,417.8 328.0,415.4 276.0,416.5 224.0,421.6 172.0,411.6 120.0,412.2 68.0,410.6" fill="#969696" fill-opacity="0.9" stroke="#fff" stroke-width="0.4"><title>autodiff — compileInner (self)</title></polygon>
<text x="12" y="578" fill="#666" font-weight="600">phase buckets</text>
<rect x="12" y="586" width="12" height="12" fill="#c7e9c0"/>
<text x="28" y="596" fill="#222">parseTranslationUnit</text>
<rect x="289" y="586" width="12" height="12" fill="#41ab5d"/>
<text x="305" y="596" fill="#222">SemanticChecking</text>
<rect x="566" y="586" width="12" height="12" fill="#006d2c"/>
<text x="582" y="596" fill="#222">generateIR</text>
<rect x="843" y="586" width="12" height="12" fill="#74c476"/>
<text x="859" y="596" fill="#222">frontEndExecute (self)</text>
<rect x="12" y="604" width="12" height="12" fill="#6baed6"/>
<text x="28" y="614" fill="#222">specializeModule</text>
<rect x="289" y="604" width="12" height="12" fill="#2171b5"/>
<text x="305" y="614" fill="#222">simplifyIR</text>
<rect x="566" y="604" width="12" height="12" fill="#08306b"/>
<text x="582" y="614" fill="#222">linkIR</text>
<rect x="843" y="604" width="12" height="12" fill="#9e9ac8"/>
<text x="859" y="614" fill="#222">unrollLoopsInModule</text>
<rect x="12" y="622" width="12" height="12" fill="#807dba"/>
<text x="28" y="632" fill="#222">legalizeResourceTypes</text>
<rect x="289" y="622" width="12" height="12" fill="#6a51a3"/>
<text x="305" y="632" fill="#222">legalizeExistentialTypeLayout</text>
<rect x="566" y="622" width="12" height="12" fill="#bcbddc"/>
<text x="582" y="632" fill="#222">performMandatoryEarlyInlining</text>
<rect x="843" y="622" width="12" height="12" fill="#dadaeb"/>
<text x="859" y="632" fill="#222">performForceInlining</text>
<rect x="12" y="640" width="12" height="12" fill="#4a1486"/>
<text x="28" y="650" fill="#222">linkAndOptimizeIR (self)</text>
<rect x="289" y="640" width="12" height="12" fill="#fd8d3c"/>
<text x="305" y="650" fill="#222">emitEntryPointsSourceFromIR</text>
<rect x="566" y="640" width="12" height="12" fill="#e6550d"/>
<text x="582" y="650" fill="#222">generateOutput (self)</text>
<rect x="843" y="640" width="12" height="12" fill="#969696"/>
<text x="859" y="650" fill="#222">compileInner (self)</text>
</svg>