<svg xmlns="http://www.w3.org/2000/svg" xmlns:xlink="http://www.w3.org/1999/xlink" width="1132" height="680" viewBox="0 0 1132 680" preserveAspectRatio="xMidYMid meet" font-family="sans-serif" font-size="13">
<rect width="1132" height="680" fill="white"/>
<text x="12" y="30" font-size="20" font-weight="bold">autodiff — Daily tip-of-tree (last 30 days) (median ms)</text>
<text x="68" y="60" font-size="15" font-weight="600" fill="#1a1a1a">autodiff<tspan fill="#888" font-weight="400" text-decoration="none">  0.60×</tspan></text>
<line x1="68.0" y1="516.0" x2="1108.0" y2="516.0" stroke="#eee"/>
<text x="64.0" y="519.0" text-anchor="end" fill="#999">0.0</text>
<line x1="68.0" y1="296.0" x2="1108.0" y2="296.0" stroke="#eee"/>
<text x="64.0" y="299.0" text-anchor="end" fill="#999">723</text>
<line x1="68.0" y1="76.0" x2="1108.0" y2="76.0" stroke="#eee"/>
<text x="64.0" y="79.0" text-anchor="end" fill="#999">1447</text>
<line x1="68.0" y1="76.0" x2="68.0" y2="516.0" stroke="#333"/>
<line x1="68.0" y1="516.0" x2="1108.0" y2="516.0" stroke="#333"/>
<line x1="68.0" y1="516.0" x2="68.0" y2="519.0" stroke="#999"/>
<text x="68.0" y="531.0" text-anchor="end" fill="#e8731a" transform="rotate(-50 68.0 531.0)">06-25</text>
<line x1="117.5" y1="516.0" x2="117.5" y2="519.0" stroke="#999"/>
<text x="117.5" y="531.0" text-anchor="end" fill="#e8731a" transform="rotate(-50 117.5 531.0)">06-26</text>
<line x1="167.0" y1="516.0" x2="167.0" y2="519.0" stroke="#999"/>
<text x="167.0" y="531.0" text-anchor="end" fill="#e8731a" transform="rotate(-50 167.0 531.0)">06-28</text>
<line x1="216.6" y1="516.0" x2="216.6" y2="519.0" stroke="#999"/>
<text x="216.6" y="531.0" text-anchor="end" fill="#e8731a" transform="rotate(-50 216.6 531.0)">07-01</text>
<line x1="266.1" y1="516.0" x2="266.1" y2="519.0" stroke="#999"/>
<text x="266.1" y="531.0" text-anchor="end" fill="#e8731a" transform="rotate(-50 266.1 531.0)">07-02</text>
<line x1="315.6" y1="516.0" x2="315.6" y2="519.0" stroke="#999"/>
<text x="315.6" y="531.0" text-anchor="end" fill="#e8731a" transform="rotate(-50 315.6 531.0)">07-03</text>
<line x1="365.1" y1="516.0" x2="365.1" y2="519.0" stroke="#999"/>
<text x="365.1" y="531.0" text-anchor="end" fill="#e8731a" transform="rotate(-50 365.1 531.0)">07-06</text>
<line x1="414.7" y1="516.0" x2="414.7" y2="519.0" stroke="#999"/>
<text x="414.7" y="531.0" text-anchor="end" fill="#e8731a" transform="rotate(-50 414.7 531.0)">07-07</text>
<line x1="464.2" y1="516.0" x2="464.2" y2="519.0" stroke="#999"/>
<text x="464.2" y="531.0" text-anchor="end" fill="#e8731a" transform="rotate(-50 464.2 531.0)">07-08</text>
<line x1="513.7" y1="516.0" x2="513.7" y2="519.0" stroke="#999"/>
<text x="513.7" y="531.0" text-anchor="end" fill="#e8731a" transform="rotate(-50 513.7 531.0)">07-09</text>
<line x1="563.2" y1="516.0" x2="563.2" y2="519.0" stroke="#999"/>
<text x="563.2" y="531.0" text-anchor="end" fill="#e8731a" transform="rotate(-50 563.2 531.0)">07-10</text>
<line x1="612.8" y1="516.0" x2="612.8" y2="519.0" stroke="#999"/>
<text x="612.8" y="531.0" text-anchor="end" fill="#e8731a" transform="rotate(-50 612.8 531.0)">07-11</text>
<line x1="662.3" y1="516.0" x2="662.3" y2="519.0" stroke="#999"/>
<text x="662.3" y="531.0" text-anchor="end" fill="#e8731a" transform="rotate(-50 662.3 531.0)">07-14</text>
<line x1="711.8" y1="516.0" x2="711.8" y2="519.0" stroke="#999"/>
<text x="711.8" y="531.0" text-anchor="end" fill="#e8731a" transform="rotate(-50 711.8 531.0)">07-15</text>
<line x1="761.3" y1="516.0" x2="761.3" y2="519.0" stroke="#999"/>
<text x="761.3" y="531.0" text-anchor="end" fill="#e8731a" transform="rotate(-50 761.3 531.0)">07-15</text>
<line x1="810.9" y1="516.0" x2="810.9" y2="519.0" stroke="#999"/>
<text x="810.9" y="531.0" text-anchor="end" fill="#e8731a" transform="rotate(-50 810.9 531.0)">07-16</text>
<line x1="860.4" y1="516.0" x2="860.4" y2="519.0" stroke="#999"/>
<text x="860.4" y="531.0" text-anchor="end" fill="#e8731a" transform="rotate(-50 860.4 531.0)">07-17</text>
<line x1="909.9" y1="516.0" x2="909.9" y2="519.0" stroke="#999"/>
<text x="909.9" y="531.0" text-anchor="end" fill="#e8731a" transform="rotate(-50 909.9 531.0)">07-18</text>
<line x1="959.4" y1="516.0" x2="959.4" y2="519.0" stroke="#999"/>
<text x="959.4" y="531.0" text-anchor="end" fill="#e8731a" transform="rotate(-50 959.4 531.0)">07-19</text>
<line x1="1009.0" y1="516.0" x2="1009.0" y2="519.0" stroke="#999"/>
<text x="1009.0" y="531.0" text-anchor="end" fill="#e8731a" transform="rotate(-50 1009.0 531.0)">07-20</text>
<line x1="1058.5" y1="516.0" x2="1058.5" y2="519.0" stroke="#999"/>
<text x="1058.5" y="531.0" text-anchor="end" fill="#e8731a" transform="rotate(-50 1058.5 531.0)">07-21</text>
<line x1="1108.0" y1="516.0" x2="1108.0" y2="519.0" stroke="#999"/>
<text x="1108.0" y="531.0" text-anchor="end" fill="#e8731a" transform="rotate(-50 1108.0 531.0)">07-22</text>
<polygon points="68.0,515.6 117.5,515.6 167.0,515.6 216.6,515.6 266.1,515.6 315.6,515.6 365.1,515.6 414.7,515.7 464.2,515.7 513.7,515.7 563.2,515.7 612.8,515.7 662.3,515.7 711.8,515.7 761.3,515.7 810.9,515.7 860.4,515.7 909.9,515.7 959.4,515.7 1009.0,515.7 1058.5,515.7 1108.0,515.7 1108.0,516.0 1058.5,516.0 1009.0,516.0 959.4,516.0 909.9,516.0 860.4,516.0 810.9,516.0 761.3,516.0 711.8,516.0 662.3,516.0 612.8,516.0 563.2,516.0 513.7,516.0 464.2,516.0 414.7,516.0 365.1,516.0 315.6,516.0 266.1,516.0 216.6,516.0 167.0,516.0 117.5,516.0 68.0,516.0" fill="#c7e9c0" fill-opacity="0.9" stroke="#fff" stroke-width="0.4"><title>autodiff — parseTranslationUnit</title></polygon>
<polygon points="68.0,488.2 117.5,488.1 167.0,488.4 216.6,487.9 266.1,487.9 315.6,487.4 365.1,487.7 414.7,488.3 464.2,488.1 513.7,488.3 563.2,487.8 612.8,486.5 662.3,487.4 711.8,488.7 761.3,488.8 810.9,486.3 860.4,486.0 909.9,493.0 959.4,492.6 1009.0,493.0 1058.5,493.3 1108.0,492.8 1108.0,515.7 1058.5,515.7 1009.0,515.7 959.4,515.7 909.9,515.7 860.4,515.7 810.9,515.7 761.3,515.7 711.8,515.7 662.3,515.7 612.8,515.7 563.2,515.7 513.7,515.7 464.2,515.7 414.7,515.7 365.1,515.6 315.6,515.6 266.1,515.6 216.6,515.6 167.0,515.6 117.5,515.6 68.0,515.6" fill="#41ab5d" fill-opacity="0.9" stroke="#fff" stroke-width="0.4"><title>autodiff — SemanticChecking</title></polygon>
<polygon points="68.0,473.8 117.5,473.8 167.0,474.0 216.6,473.1 266.1,473.4 315.6,472.8 365.1,473.0 414.7,473.7 464.2,473.5 513.7,473.7 563.2,473.1 612.8,471.6 662.3,472.2 711.8,474.3 761.3,474.4 810.9,471.3 860.4,471.0 909.9,479.5 959.4,478.8 1009.0,479.5 1058.5,479.6 1108.0,479.1 1108.0,492.8 1058.5,493.3 1009.0,493.0 959.4,492.6 909.9,493.0 860.4,486.0 810.9,486.3 761.3,488.8 711.8,488.7 662.3,487.4 612.8,486.5 563.2,487.8 513.7,488.3 464.2,488.1 414.7,488.3 365.1,487.7 315.6,487.4 266.1,487.9 216.6,487.9 167.0,488.4 117.5,488.1 68.0,488.2" fill="#006d2c" fill-opacity="0.9" stroke="#fff" stroke-width="0.4"><title>autodiff — generateIR</title></polygon>
<polygon points="68.0,473.6 117.5,473.6 167.0,473.5 216.6,473.1 266.1,472.9 315.6,472.7 365.1,472.9 414.7,473.7 464.2,473.3 513.7,473.5 563.2,473.1 612.8,471.4 662.3,471.7 711.8,474.3 761.3,474.2 810.9,471.0 860.4,470.8 909.9,479.3 959.4,478.5 1009.0,479.4 1058.5,479.5 1108.0,479.0 1108.0,479.1 1058.5,479.6 1009.0,479.5 959.4,478.8 909.9,479.5 860.4,471.0 810.9,471.3 761.3,474.4 711.8,474.3 662.3,472.2 612.8,471.6 563.2,473.1 513.7,473.7 464.2,473.5 414.7,473.7 365.1,473.0 315.6,472.8 266.1,473.4 216.6,473.1 167.0,474.0 117.5,473.8 68.0,473.8" fill="#74c476" fill-opacity="0.9" stroke="#fff" stroke-width="0.4"><title>autodiff — frontEndExecute (self)</title></polygon>
<polygon points="68.0,378.8 117.5,379.6 167.0,379.5 216.6,377.7 266.1,378.6 315.6,378.1 365.1,379.5 414.7,375.9 464.2,374.4 513.7,376.2 563.2,386.2 612.8,385.0 662.3,385.6 711.8,395.0 761.3,395.1 810.9,392.1 860.4,391.5 909.9,407.6 959.4,405.7 1009.0,407.6 1058.5,408.1 1108.0,406.9 1108.0,479.0 1058.5,479.5 1009.0,479.4 959.4,478.5 909.9,479.3 860.4,470.8 810.9,471.0 761.3,474.2 711.8,474.3 662.3,471.7 612.8,471.4 563.2,473.1 513.7,473.5 464.2,473.3 414.7,473.7 365.1,472.9 315.6,472.7 266.1,472.9 216.6,473.1 167.0,473.5 117.5,473.6 68.0,473.6" fill="#6baed6" fill-opacity="0.9" stroke="#fff" stroke-width="0.4"><title>autodiff — specializeModule</title></polygon>
<polygon points="68.0,275.4 117.5,276.2 167.0,277.9 216.6,275.0 266.1,336.0 315.6,335.3 365.1,336.6 414.7,333.1 464.2,331.3 513.7,332.8 563.2,360.7 612.8,359.8 662.3,360.5 711.8,372.2 761.3,372.1 810.9,369.3 860.4,368.7 909.9,387.6 959.4,385.5 1009.0,387.5 1058.5,387.9 1108.0,386.6 1108.0,406.9 1058.5,408.1 1009.0,407.6 959.4,405.7 909.9,407.6 860.4,391.5 810.9,392.1 761.3,395.1 711.8,395.0 662.3,385.6 612.8,385.0 563.2,386.2 513.7,376.2 464.2,374.4 414.7,375.9 365.1,379.5 315.6,378.1 266.1,378.6 216.6,377.7 167.0,379.5 117.5,379.6 68.0,378.8" fill="#2171b5" fill-opacity="0.9" stroke="#fff" stroke-width="0.4"><title>autodiff — simplifyIR</title></polygon>
<polygon points="68.0,273.7 117.5,274.4 167.0,276.2 216.6,273.2 266.1,334.3 315.6,333.6 365.1,334.9 414.7,331.4 464.2,329.6 513.7,331.0 563.2,359.0 612.8,358.1 662.3,358.8 711.8,370.5 761.3,370.6 810.9,367.7 860.4,367.1 909.9,386.1 959.4,384.0 1009.0,386.1 1058.5,386.4 1108.0,385.2 1108.0,386.6 1058.5,387.9 1009.0,387.5 959.4,385.5 909.9,387.6 860.4,368.7 810.9,369.3 761.3,372.1 711.8,372.2 662.3,360.5 612.8,359.8 563.2,360.7 513.7,332.8 464.2,331.3 414.7,333.1 365.1,336.6 315.6,335.3 266.1,336.0 216.6,275.0 167.0,277.9 117.5,276.2 68.0,275.4" fill="#08306b" fill-opacity="0.9" stroke="#fff" stroke-width="0.4"><title>autodiff — linkIR</title></polygon>
<polygon points="68.0,273.5 117.5,274.2 167.0,276.0 216.6,272.9 266.1,334.1 315.6,333.3 365.1,334.6 414.7,331.0 464.2,329.2 513.7,330.7 563.2,358.6 612.8,357.7 662.3,358.5 711.8,370.2 761.3,370.3 810.9,367.4 860.4,366.8 909.9,385.8 959.4,383.8 1009.0,385.9 1058.5,386.2 1108.0,384.9 1108.0,385.2 1058.5,386.4 1009.0,386.1 959.4,384.0 909.9,386.1 860.4,367.1 810.9,367.7 761.3,370.6 711.8,370.5 662.3,358.8 612.8,358.1 563.2,359.0 513.7,331.0 464.2,329.6 414.7,331.4 365.1,334.9 315.6,333.6 266.1,334.3 216.6,273.2 167.0,276.2 117.5,274.4 68.0,273.7" fill="#9e9ac8" fill-opacity="0.9" stroke="#fff" stroke-width="0.4"><title>autodiff — unrollLoopsInModule</title></polygon>
<polygon points="68.0,265.1 117.5,265.7 167.0,267.6 216.6,264.6 266.1,325.7 315.6,325.0 365.1,326.1 414.7,322.6 464.2,320.7 513.7,322.2 563.2,356.2 612.8,355.2 662.3,356.1 711.8,367.8 761.3,367.9 810.9,365.0 860.4,364.3 909.9,383.6 959.4,381.5 1009.0,383.6 1058.5,383.9 1108.0,382.7 1108.0,384.9 1058.5,386.2 1009.0,385.9 959.4,383.8 909.9,385.8 860.4,366.8 810.9,367.4 761.3,370.3 711.8,370.2 662.3,358.5 612.8,357.7 563.2,358.6 513.7,330.7 464.2,329.2 414.7,331.0 365.1,334.6 315.6,333.3 266.1,334.1 216.6,272.9 167.0,276.0 117.5,274.2 68.0,273.5" fill="#807dba" fill-opacity="0.9" stroke="#fff" stroke-width="0.4"><title>autodiff — legalizeResourceTypes</title></polygon>
<polygon points="68.0,256.4 117.5,257.0 167.0,258.9 216.6,255.8 266.1,317.1 315.6,316.3 365.1,317.3 414.7,313.9 464.2,311.9 513.7,313.4 563.2,353.2 612.8,352.2 662.3,353.1 711.8,365.0 761.3,365.0 810.9,362.1 860.4,361.4 909.9,381.0 959.4,378.8 1009.0,381.0 1058.5,381.2 1108.0,380.0 1108.0,382.7 1058.5,383.9 1009.0,383.6 959.4,381.5 909.9,383.6 860.4,364.3 810.9,365.0 761.3,367.9 711.8,367.8 662.3,356.1 612.8,355.2 563.2,356.2 513.7,322.2 464.2,320.7 414.7,322.6 365.1,326.1 315.6,325.0 266.1,325.7 216.6,264.6 167.0,267.6 117.5,265.7 68.0,265.1" fill="#6a51a3" fill-opacity="0.9" stroke="#fff" stroke-width="0.4"><title>autodiff — legalizeExistentialTypeLayout</title></polygon>
<polygon points="68.0,255.4 117.5,255.9 167.0,257.8 216.6,254.7 266.1,316.0 315.6,315.2 365.1,316.2 414.7,312.4 464.2,310.4 513.7,312.0 563.2,351.7 612.8,350.8 662.3,351.6 711.8,363.6 761.3,363.6 810.9,360.7 860.4,360.0 909.9,379.8 959.4,377.5 1009.0,379.8 1058.5,380.1 1108.0,378.8 1108.0,380.0 1058.5,381.2 1009.0,381.0 959.4,378.8 909.9,381.0 860.4,361.4 810.9,362.1 761.3,365.0 711.8,365.0 662.3,353.1 612.8,352.2 563.2,353.2 513.7,313.4 464.2,311.9 414.7,313.9 365.1,317.3 315.6,316.3 266.1,317.1 216.6,255.8 167.0,258.9 117.5,257.0 68.0,256.4" fill="#bcbddc" fill-opacity="0.9" stroke="#fff" stroke-width="0.4"><title>autodiff — performMandatoryEarlyInlining</title></polygon>
<polygon points="68.0,254.5 117.5,255.1 167.0,257.0 216.6,253.9 266.1,315.2 315.6,314.4 365.1,315.4 414.7,311.6 464.2,309.6 513.7,311.1 563.2,350.9 612.8,349.9 662.3,350.8 711.8,362.8 761.3,362.8 810.9,359.9 860.4,359.2 909.9,379.2 959.4,376.9 1009.0,379.2 1058.5,379.4 1108.0,378.2 1108.0,378.8 1058.5,380.1 1009.0,379.8 959.4,377.5 909.9,379.8 860.4,360.0 810.9,360.7 761.3,363.6 711.8,363.6 662.3,351.6 612.8,350.8 563.2,351.7 513.7,312.0 464.2,310.4 414.7,312.4 365.1,316.2 315.6,315.2 266.1,316.0 216.6,254.7 167.0,257.8 117.5,255.9 68.0,255.4" fill="#dadaeb" fill-opacity="0.9" stroke="#fff" stroke-width="0.4"><title>autodiff — performForceInlining</title></polygon>
<polygon points="68.0,213.9 117.5,214.7 167.0,216.5 216.6,213.1 266.1,283.6 315.6,282.6 365.1,283.7 414.7,280.5 464.2,278.1 513.7,280.2 563.2,328.3 612.8,327.6 662.3,328.3 711.8,343.2 761.3,343.5 810.9,340.2 860.4,339.7 909.9,362.2 959.4,359.6 1009.0,362.0 1058.5,361.9 1108.0,361.0 1108.0,378.2 1058.5,379.4 1009.0,379.2 959.4,376.9 909.9,379.2 860.4,359.2 810.9,359.9 761.3,362.8 711.8,362.8 662.3,350.8 612.8,349.9 563.2,350.9 513.7,311.1 464.2,309.6 414.7,311.6 365.1,315.4 315.6,314.4 266.1,315.2 216.6,253.9 167.0,257.0 117.5,255.1 68.0,254.5" fill="#4a1486" fill-opacity="0.9" stroke="#fff" stroke-width="0.4"><title>autodiff — linkAndOptimizeIR (self)</title></polygon>
<polygon points="68.0,108.9 117.5,109.2 167.0,113.3 216.6,110.1 266.1,191.1 315.6,189.5 365.1,189.3 414.7,186.8 464.2,183.4 513.7,185.9 563.2,238.9 612.8,237.0 662.3,240.4 711.8,255.9 761.3,255.1 810.9,253.1 860.4,251.4 909.9,277.3 959.4,272.4 1009.0,276.2 1058.5,275.1 1108.0,273.8 1108.0,361.0 1058.5,361.9 1009.0,362.0 959.4,359.6 909.9,362.2 860.4,339.7 810.9,340.2 761.3,343.5 711.8,343.2 662.3,328.3 612.8,327.6 563.2,328.3 513.7,280.2 464.2,278.1 414.7,280.5 365.1,283.7 315.6,282.6 266.1,283.6 216.6,213.1 167.0,216.5 117.5,214.7 68.0,213.9" fill="#e6550d" fill-opacity="0.9" stroke="#fff" stroke-width="0.4"><title>autodiff — generateOutput (self)</title></polygon>
<polygon points="68.0,108.6 117.5,109.2 167.0,112.8 216.6,109.1 266.1,190.6 315.6,187.5 365.1,189.2 414.7,186.8 464.2,182.7 513.7,185.5 563.2,238.3 612.8,237.0 662.3,240.4 711.8,255.9 761.3,255.1 810.9,253.1 860.4,251.2 909.9,276.9 959.4,272.4 1009.0,275.6 1058.5,275.1 1108.0,273.6 1108.0,273.8 1058.5,275.1 1009.0,276.2 959.4,272.4 909.9,277.3 860.4,251.4 810.9,253.1 761.3,255.1 711.8,255.9 662.3,240.4 612.8,237.0 563.2,238.9 513.7,185.9 464.2,183.4 414.7,186.8 365.1,189.3 315.6,189.5 266.1,191.1 216.6,110.1 167.0,113.3 117.5,109.2 68.0,108.9" fill="#969696" fill-opacity="0.9" stroke="#fff" stroke-width="0.4"><title>autodiff — compileInner (self)</title></polygon>
<text x="12" y="578" fill="#666" font-weight="600">phase buckets</text>
<rect x="12" y="586" width="12" height="12" fill="#c7e9c0"/>
<text x="28" y="596" fill="#222">parseTranslationUnit</text>
<rect x="289" y="586" width="12" height="12" fill="#41ab5d"/>
<text x="305" y="596" fill="#222">SemanticChecking</text>
<rect x="566" y="586" width="12" height="12" fill="#006d2c"/>
<text x="582" y="596" fill="#222">generateIR</text>
<rect x="843" y="586" width="12" height="12" fill="#74c476"/>
<text x="859" y="596" fill="#222">frontEndExecute (self)</text>
<rect x="12" y="604" width="12" height="12" fill="#6baed6"/>
<text x="28" y="614" fill="#222">specializeModule</text>
<rect x="289" y="604" width="12" height="12" fill="#2171b5"/>
<text x="305" y="614" fill="#222">simplifyIR</text>
<rect x="566" y="604" width="12" height="12" fill="#08306b"/>
<text x="582" y="614" fill="#222">linkIR</text>
<rect x="843" y="604" width="12" height="12" fill="#9e9ac8"/>
<text x="859" y="614" fill="#222">unrollLoopsInModule</text>
<rect x="12" y="622" width="12" height="12" fill="#807dba"/>
<text x="28" y="632" fill="#222">legalizeResourceTypes</text>
<rect x="289" y="622" width="12" height="12" fill="#6a51a3"/>
<text x="305" y="632" fill="#222">legalizeExistentialTypeLayout</text>
<rect x="566" y="622" width="12" height="12" fill="#bcbddc"/>
<text x="582" y="632" fill="#222">performMandatoryEarlyInlining</text>
<rect x="843" y="622" width="12" height="12" fill="#dadaeb"/>
<text x="859" y="632" fill="#222">performForceInlining</text>
<rect x="12" y="640" width="12" height="12" fill="#4a1486"/>
<text x="28" y="650" fill="#222">linkAndOptimizeIR (self)</text>
<rect x="289" y="640" width="12" height="12" fill="#fd8d3c"/>
<text x="305" y="650" fill="#222">emitEntryPointsSourceFromIR</text>
<rect x="566" y="640" width="12" height="12" fill="#e6550d"/>
<text x="582" y="650" fill="#222">generateOutput (self)</text>
<rect x="843" y="640" width="12" height="12" fill="#969696"/>
<text x="859" y="650" fill="#222">compileInner (self)</text>
</svg>