<svg xmlns="http://www.w3.org/2000/svg" xmlns:xlink="http://www.w3.org/1999/xlink" width="1132" height="680" viewBox="0 0 1132 680" preserveAspectRatio="xMidYMid meet" font-family="sans-serif" font-size="13">
<rect width="1132" height="680" fill="white"/>
<text x="12" y="30" font-size="20" font-weight="bold">autodiff — Daily tip-of-tree (last 30 days) (median ms)</text>
<text x="68" y="60" font-size="15" font-weight="600" fill="#1a1a1a">autodiff<tspan fill="#888" font-weight="400" text-decoration="none">  0.59×</tspan></text>
<line x1="68.0" y1="516.0" x2="1108.0" y2="516.0" stroke="#eee"/>
<text x="64.0" y="519.0" text-anchor="end" fill="#999">0.0</text>
<line x1="68.0" y1="296.0" x2="1108.0" y2="296.0" stroke="#eee"/>
<text x="64.0" y="299.0" text-anchor="end" fill="#999">723</text>
<line x1="68.0" y1="76.0" x2="1108.0" y2="76.0" stroke="#eee"/>
<text x="64.0" y="79.0" text-anchor="end" fill="#999">1447</text>
<line x1="68.0" y1="76.0" x2="68.0" y2="516.0" stroke="#333"/>
<line x1="68.0" y1="516.0" x2="1108.0" y2="516.0" stroke="#333"/>
<line x1="68.0" y1="516.0" x2="68.0" y2="519.0" stroke="#999"/>
<text x="68.0" y="531.0" text-anchor="end" fill="#e8731a" transform="rotate(-50 68.0 531.0)">06-25</text>
<line x1="120.0" y1="516.0" x2="120.0" y2="519.0" stroke="#999"/>
<text x="120.0" y="531.0" text-anchor="end" fill="#e8731a" transform="rotate(-50 120.0 531.0)">06-26</text>
<line x1="172.0" y1="516.0" x2="172.0" y2="519.0" stroke="#999"/>
<text x="172.0" y="531.0" text-anchor="end" fill="#e8731a" transform="rotate(-50 172.0 531.0)">06-28</text>
<line x1="224.0" y1="516.0" x2="224.0" y2="519.0" stroke="#999"/>
<text x="224.0" y="531.0" text-anchor="end" fill="#e8731a" transform="rotate(-50 224.0 531.0)">07-01</text>
<line x1="276.0" y1="516.0" x2="276.0" y2="519.0" stroke="#999"/>
<text x="276.0" y="531.0" text-anchor="end" fill="#e8731a" transform="rotate(-50 276.0 531.0)">07-02</text>
<line x1="328.0" y1="516.0" x2="328.0" y2="519.0" stroke="#999"/>
<text x="328.0" y="531.0" text-anchor="end" fill="#e8731a" transform="rotate(-50 328.0 531.0)">07-03</text>
<line x1="380.0" y1="516.0" x2="380.0" y2="519.0" stroke="#999"/>
<text x="380.0" y="531.0" text-anchor="end" fill="#e8731a" transform="rotate(-50 380.0 531.0)">07-06</text>
<line x1="432.0" y1="516.0" x2="432.0" y2="519.0" stroke="#999"/>
<text x="432.0" y="531.0" text-anchor="end" fill="#e8731a" transform="rotate(-50 432.0 531.0)">07-07</text>
<line x1="484.0" y1="516.0" x2="484.0" y2="519.0" stroke="#999"/>
<text x="484.0" y="531.0" text-anchor="end" fill="#e8731a" transform="rotate(-50 484.0 531.0)">07-08</text>
<line x1="536.0" y1="516.0" x2="536.0" y2="519.0" stroke="#999"/>
<text x="536.0" y="531.0" text-anchor="end" fill="#e8731a" transform="rotate(-50 536.0 531.0)">07-09</text>
<line x1="588.0" y1="516.0" x2="588.0" y2="519.0" stroke="#999"/>
<text x="588.0" y="531.0" text-anchor="end" fill="#e8731a" transform="rotate(-50 588.0 531.0)">07-10</text>
<line x1="640.0" y1="516.0" x2="640.0" y2="519.0" stroke="#999"/>
<text x="640.0" y="531.0" text-anchor="end" fill="#e8731a" transform="rotate(-50 640.0 531.0)">07-11</text>
<line x1="692.0" y1="516.0" x2="692.0" y2="519.0" stroke="#999"/>
<text x="692.0" y="531.0" text-anchor="end" fill="#e8731a" transform="rotate(-50 692.0 531.0)">07-14</text>
<line x1="744.0" y1="516.0" x2="744.0" y2="519.0" stroke="#999"/>
<text x="744.0" y="531.0" text-anchor="end" fill="#e8731a" transform="rotate(-50 744.0 531.0)">07-15</text>
<line x1="796.0" y1="516.0" x2="796.0" y2="519.0" stroke="#999"/>
<text x="796.0" y="531.0" text-anchor="end" fill="#e8731a" transform="rotate(-50 796.0 531.0)">07-15</text>
<line x1="848.0" y1="516.0" x2="848.0" y2="519.0" stroke="#999"/>
<text x="848.0" y="531.0" text-anchor="end" fill="#e8731a" transform="rotate(-50 848.0 531.0)">07-16</text>
<line x1="900.0" y1="516.0" x2="900.0" y2="519.0" stroke="#999"/>
<text x="900.0" y="531.0" text-anchor="end" fill="#e8731a" transform="rotate(-50 900.0 531.0)">07-17</text>
<line x1="952.0" y1="516.0" x2="952.0" y2="519.0" stroke="#999"/>
<text x="952.0" y="531.0" text-anchor="end" fill="#e8731a" transform="rotate(-50 952.0 531.0)">07-18</text>
<line x1="1004.0" y1="516.0" x2="1004.0" y2="519.0" stroke="#999"/>
<text x="1004.0" y="531.0" text-anchor="end" fill="#e8731a" transform="rotate(-50 1004.0 531.0)">07-19</text>
<line x1="1056.0" y1="516.0" x2="1056.0" y2="519.0" stroke="#999"/>
<text x="1056.0" y="531.0" text-anchor="end" fill="#e8731a" transform="rotate(-50 1056.0 531.0)">07-20</text>
<line x1="1108.0" y1="516.0" x2="1108.0" y2="519.0" stroke="#999"/>
<text x="1108.0" y="531.0" text-anchor="end" fill="#e8731a" transform="rotate(-50 1108.0 531.0)">07-21</text>
<polygon points="68.0,515.6 120.0,515.6 172.0,515.6 224.0,515.6 276.0,515.6 328.0,515.6 380.0,515.6 432.0,515.7 484.0,515.7 536.0,515.7 588.0,515.7 640.0,515.7 692.0,515.7 744.0,515.7 796.0,515.7 848.0,515.7 900.0,515.7 952.0,515.7 1004.0,515.7 1056.0,515.7 1108.0,515.7 1108.0,516.0 1056.0,516.0 1004.0,516.0 952.0,516.0 900.0,516.0 848.0,516.0 796.0,516.0 744.0,516.0 692.0,516.0 640.0,516.0 588.0,516.0 536.0,516.0 484.0,516.0 432.0,516.0 380.0,516.0 328.0,516.0 276.0,516.0 224.0,516.0 172.0,516.0 120.0,516.0 68.0,516.0" fill="#c7e9c0" fill-opacity="0.9" stroke="#fff" stroke-width="0.4"><title>autodiff — parseTranslationUnit</title></polygon>
<polygon points="68.0,488.2 120.0,488.1 172.0,488.4 224.0,487.9 276.0,487.9 328.0,487.4 380.0,487.7 432.0,488.3 484.0,488.1 536.0,488.3 588.0,487.8 640.0,486.5 692.0,487.4 744.0,488.7 796.0,488.8 848.0,486.3 900.0,486.0 952.0,493.0 1004.0,492.6 1056.0,493.0 1108.0,493.3 1108.0,515.7 1056.0,515.7 1004.0,515.7 952.0,515.7 900.0,515.7 848.0,515.7 796.0,515.7 744.0,515.7 692.0,515.7 640.0,515.7 588.0,515.7 536.0,515.7 484.0,515.7 432.0,515.7 380.0,515.6 328.0,515.6 276.0,515.6 224.0,515.6 172.0,515.6 120.0,515.6 68.0,515.6" fill="#41ab5d" fill-opacity="0.9" stroke="#fff" stroke-width="0.4"><title>autodiff — SemanticChecking</title></polygon>
<polygon points="68.0,473.8 120.0,473.8 172.0,474.0 224.0,473.1 276.0,473.4 328.0,472.8 380.0,473.0 432.0,473.7 484.0,473.5 536.0,473.7 588.0,473.1 640.0,471.6 692.0,472.2 744.0,474.3 796.0,474.4 848.0,471.3 900.0,471.0 952.0,479.5 1004.0,478.8 1056.0,479.5 1108.0,479.6 1108.0,493.3 1056.0,493.0 1004.0,492.6 952.0,493.0 900.0,486.0 848.0,486.3 796.0,488.8 744.0,488.7 692.0,487.4 640.0,486.5 588.0,487.8 536.0,488.3 484.0,488.1 432.0,488.3 380.0,487.7 328.0,487.4 276.0,487.9 224.0,487.9 172.0,488.4 120.0,488.1 68.0,488.2" fill="#006d2c" fill-opacity="0.9" stroke="#fff" stroke-width="0.4"><title>autodiff — generateIR</title></polygon>
<polygon points="68.0,473.6 120.0,473.6 172.0,473.5 224.0,473.1 276.0,472.9 328.0,472.7 380.0,472.9 432.0,473.7 484.0,473.3 536.0,473.5 588.0,473.1 640.0,471.4 692.0,471.7 744.0,474.3 796.0,474.2 848.0,471.0 900.0,470.8 952.0,479.3 1004.0,478.5 1056.0,479.4 1108.0,479.5 1108.0,479.6 1056.0,479.5 1004.0,478.8 952.0,479.5 900.0,471.0 848.0,471.3 796.0,474.4 744.0,474.3 692.0,472.2 640.0,471.6 588.0,473.1 536.0,473.7 484.0,473.5 432.0,473.7 380.0,473.0 328.0,472.8 276.0,473.4 224.0,473.1 172.0,474.0 120.0,473.8 68.0,473.8" fill="#74c476" fill-opacity="0.9" stroke="#fff" stroke-width="0.4"><title>autodiff — frontEndExecute (self)</title></polygon>
<polygon points="68.0,378.8 120.0,379.6 172.0,379.5 224.0,377.7 276.0,378.6 328.0,378.1 380.0,379.5 432.0,375.9 484.0,374.4 536.0,376.2 588.0,386.2 640.0,385.0 692.0,385.6 744.0,395.0 796.0,395.1 848.0,392.1 900.0,391.5 952.0,407.6 1004.0,405.7 1056.0,407.6 1108.0,408.1 1108.0,479.5 1056.0,479.4 1004.0,478.5 952.0,479.3 900.0,470.8 848.0,471.0 796.0,474.2 744.0,474.3 692.0,471.7 640.0,471.4 588.0,473.1 536.0,473.5 484.0,473.3 432.0,473.7 380.0,472.9 328.0,472.7 276.0,472.9 224.0,473.1 172.0,473.5 120.0,473.6 68.0,473.6" fill="#6baed6" fill-opacity="0.9" stroke="#fff" stroke-width="0.4"><title>autodiff — specializeModule</title></polygon>
<polygon points="68.0,275.4 120.0,276.2 172.0,277.9 224.0,275.0 276.0,336.0 328.0,335.3 380.0,336.6 432.0,333.1 484.0,331.3 536.0,332.8 588.0,360.7 640.0,359.8 692.0,360.5 744.0,372.2 796.0,372.1 848.0,369.3 900.0,368.7 952.0,387.6 1004.0,385.5 1056.0,387.5 1108.0,387.9 1108.0,408.1 1056.0,407.6 1004.0,405.7 952.0,407.6 900.0,391.5 848.0,392.1 796.0,395.1 744.0,395.0 692.0,385.6 640.0,385.0 588.0,386.2 536.0,376.2 484.0,374.4 432.0,375.9 380.0,379.5 328.0,378.1 276.0,378.6 224.0,377.7 172.0,379.5 120.0,379.6 68.0,378.8" fill="#2171b5" fill-opacity="0.9" stroke="#fff" stroke-width="0.4"><title>autodiff — simplifyIR</title></polygon>
<polygon points="68.0,273.7 120.0,274.4 172.0,276.2 224.0,273.2 276.0,334.3 328.0,333.6 380.0,334.9 432.0,331.4 484.0,329.6 536.0,331.0 588.0,359.0 640.0,358.1 692.0,358.8 744.0,370.5 796.0,370.6 848.0,367.7 900.0,367.1 952.0,386.1 1004.0,384.0 1056.0,386.1 1108.0,386.4 1108.0,387.9 1056.0,387.5 1004.0,385.5 952.0,387.6 900.0,368.7 848.0,369.3 796.0,372.1 744.0,372.2 692.0,360.5 640.0,359.8 588.0,360.7 536.0,332.8 484.0,331.3 432.0,333.1 380.0,336.6 328.0,335.3 276.0,336.0 224.0,275.0 172.0,277.9 120.0,276.2 68.0,275.4" fill="#08306b" fill-opacity="0.9" stroke="#fff" stroke-width="0.4"><title>autodiff — linkIR</title></polygon>
<polygon points="68.0,273.5 120.0,274.2 172.0,276.0 224.0,272.9 276.0,334.1 328.0,333.3 380.0,334.6 432.0,331.0 484.0,329.2 536.0,330.7 588.0,358.6 640.0,357.7 692.0,358.5 744.0,370.2 796.0,370.3 848.0,367.4 900.0,366.8 952.0,385.8 1004.0,383.8 1056.0,385.9 1108.0,386.2 1108.0,386.4 1056.0,386.1 1004.0,384.0 952.0,386.1 900.0,367.1 848.0,367.7 796.0,370.6 744.0,370.5 692.0,358.8 640.0,358.1 588.0,359.0 536.0,331.0 484.0,329.6 432.0,331.4 380.0,334.9 328.0,333.6 276.0,334.3 224.0,273.2 172.0,276.2 120.0,274.4 68.0,273.7" fill="#9e9ac8" fill-opacity="0.9" stroke="#fff" stroke-width="0.4"><title>autodiff — unrollLoopsInModule</title></polygon>
<polygon points="68.0,265.1 120.0,265.7 172.0,267.6 224.0,264.6 276.0,325.7 328.0,325.0 380.0,326.1 432.0,322.6 484.0,320.7 536.0,322.2 588.0,356.2 640.0,355.2 692.0,356.1 744.0,367.8 796.0,367.9 848.0,365.0 900.0,364.3 952.0,383.6 1004.0,381.5 1056.0,383.6 1108.0,383.9 1108.0,386.2 1056.0,385.9 1004.0,383.8 952.0,385.8 900.0,366.8 848.0,367.4 796.0,370.3 744.0,370.2 692.0,358.5 640.0,357.7 588.0,358.6 536.0,330.7 484.0,329.2 432.0,331.0 380.0,334.6 328.0,333.3 276.0,334.1 224.0,272.9 172.0,276.0 120.0,274.2 68.0,273.5" fill="#807dba" fill-opacity="0.9" stroke="#fff" stroke-width="0.4"><title>autodiff — legalizeResourceTypes</title></polygon>
<polygon points="68.0,256.4 120.0,257.0 172.0,258.9 224.0,255.8 276.0,317.1 328.0,316.3 380.0,317.3 432.0,313.9 484.0,311.9 536.0,313.4 588.0,353.2 640.0,352.2 692.0,353.1 744.0,365.0 796.0,365.0 848.0,362.1 900.0,361.4 952.0,381.0 1004.0,378.8 1056.0,381.0 1108.0,381.2 1108.0,383.9 1056.0,383.6 1004.0,381.5 952.0,383.6 900.0,364.3 848.0,365.0 796.0,367.9 744.0,367.8 692.0,356.1 640.0,355.2 588.0,356.2 536.0,322.2 484.0,320.7 432.0,322.6 380.0,326.1 328.0,325.0 276.0,325.7 224.0,264.6 172.0,267.6 120.0,265.7 68.0,265.1" fill="#6a51a3" fill-opacity="0.9" stroke="#fff" stroke-width="0.4"><title>autodiff — legalizeExistentialTypeLayout</title></polygon>
<polygon points="68.0,255.4 120.0,255.9 172.0,257.8 224.0,254.7 276.0,316.0 328.0,315.2 380.0,316.2 432.0,312.4 484.0,310.4 536.0,312.0 588.0,351.7 640.0,350.8 692.0,351.6 744.0,363.6 796.0,363.6 848.0,360.7 900.0,360.0 952.0,379.8 1004.0,377.5 1056.0,379.8 1108.0,380.1 1108.0,381.2 1056.0,381.0 1004.0,378.8 952.0,381.0 900.0,361.4 848.0,362.1 796.0,365.0 744.0,365.0 692.0,353.1 640.0,352.2 588.0,353.2 536.0,313.4 484.0,311.9 432.0,313.9 380.0,317.3 328.0,316.3 276.0,317.1 224.0,255.8 172.0,258.9 120.0,257.0 68.0,256.4" fill="#bcbddc" fill-opacity="0.9" stroke="#fff" stroke-width="0.4"><title>autodiff — performMandatoryEarlyInlining</title></polygon>
<polygon points="68.0,254.5 120.0,255.1 172.0,257.0 224.0,253.9 276.0,315.2 328.0,314.4 380.0,315.4 432.0,311.6 484.0,309.6 536.0,311.1 588.0,350.9 640.0,349.9 692.0,350.8 744.0,362.8 796.0,362.8 848.0,359.9 900.0,359.2 952.0,379.2 1004.0,376.9 1056.0,379.2 1108.0,379.4 1108.0,380.1 1056.0,379.8 1004.0,377.5 952.0,379.8 900.0,360.0 848.0,360.7 796.0,363.6 744.0,363.6 692.0,351.6 640.0,350.8 588.0,351.7 536.0,312.0 484.0,310.4 432.0,312.4 380.0,316.2 328.0,315.2 276.0,316.0 224.0,254.7 172.0,257.8 120.0,255.9 68.0,255.4" fill="#dadaeb" fill-opacity="0.9" stroke="#fff" stroke-width="0.4"><title>autodiff — performForceInlining</title></polygon>
<polygon points="68.0,213.9 120.0,214.7 172.0,216.5 224.0,213.1 276.0,283.6 328.0,282.6 380.0,283.7 432.0,280.5 484.0,278.1 536.0,280.2 588.0,328.3 640.0,327.6 692.0,328.3 744.0,343.2 796.0,343.5 848.0,340.2 900.0,339.7 952.0,362.2 1004.0,359.6 1056.0,362.0 1108.0,361.9 1108.0,379.4 1056.0,379.2 1004.0,376.9 952.0,379.2 900.0,359.2 848.0,359.9 796.0,362.8 744.0,362.8 692.0,350.8 640.0,349.9 588.0,350.9 536.0,311.1 484.0,309.6 432.0,311.6 380.0,315.4 328.0,314.4 276.0,315.2 224.0,253.9 172.0,257.0 120.0,255.1 68.0,254.5" fill="#4a1486" fill-opacity="0.9" stroke="#fff" stroke-width="0.4"><title>autodiff — linkAndOptimizeIR (self)</title></polygon>
<polygon points="68.0,108.9 120.0,109.2 172.0,113.3 224.0,110.1 276.0,191.1 328.0,189.5 380.0,189.3 432.0,186.8 484.0,183.4 536.0,185.9 588.0,238.9 640.0,237.0 692.0,240.4 744.0,255.9 796.0,255.1 848.0,253.1 900.0,251.4 952.0,277.3 1004.0,272.4 1056.0,276.2 1108.0,275.1 1108.0,361.9 1056.0,362.0 1004.0,359.6 952.0,362.2 900.0,339.7 848.0,340.2 796.0,343.5 744.0,343.2 692.0,328.3 640.0,327.6 588.0,328.3 536.0,280.2 484.0,278.1 432.0,280.5 380.0,283.7 328.0,282.6 276.0,283.6 224.0,213.1 172.0,216.5 120.0,214.7 68.0,213.9" fill="#e6550d" fill-opacity="0.9" stroke="#fff" stroke-width="0.4"><title>autodiff — generateOutput (self)</title></polygon>
<polygon points="68.0,108.6 120.0,109.2 172.0,112.8 224.0,109.1 276.0,190.6 328.0,187.5 380.0,189.2 432.0,186.8 484.0,182.7 536.0,185.5 588.0,238.3 640.0,237.0 692.0,240.4 744.0,255.9 796.0,255.1 848.0,253.1 900.0,251.2 952.0,276.9 1004.0,272.4 1056.0,275.6 1108.0,275.1 1108.0,275.1 1056.0,276.2 1004.0,272.4 952.0,277.3 900.0,251.4 848.0,253.1 796.0,255.1 744.0,255.9 692.0,240.4 640.0,237.0 588.0,238.9 536.0,185.9 484.0,183.4 432.0,186.8 380.0,189.3 328.0,189.5 276.0,191.1 224.0,110.1 172.0,113.3 120.0,109.2 68.0,108.9" fill="#969696" fill-opacity="0.9" stroke="#fff" stroke-width="0.4"><title>autodiff — compileInner (self)</title></polygon>
<text x="12" y="578" fill="#666" font-weight="600">phase buckets</text>
<rect x="12" y="586" width="12" height="12" fill="#c7e9c0"/>
<text x="28" y="596" fill="#222">parseTranslationUnit</text>
<rect x="289" y="586" width="12" height="12" fill="#41ab5d"/>
<text x="305" y="596" fill="#222">SemanticChecking</text>
<rect x="566" y="586" width="12" height="12" fill="#006d2c"/>
<text x="582" y="596" fill="#222">generateIR</text>
<rect x="843" y="586" width="12" height="12" fill="#74c476"/>
<text x="859" y="596" fill="#222">frontEndExecute (self)</text>
<rect x="12" y="604" width="12" height="12" fill="#6baed6"/>
<text x="28" y="614" fill="#222">specializeModule</text>
<rect x="289" y="604" width="12" height="12" fill="#2171b5"/>
<text x="305" y="614" fill="#222">simplifyIR</text>
<rect x="566" y="604" width="12" height="12" fill="#08306b"/>
<text x="582" y="614" fill="#222">linkIR</text>
<rect x="843" y="604" width="12" height="12" fill="#9e9ac8"/>
<text x="859" y="614" fill="#222">unrollLoopsInModule</text>
<rect x="12" y="622" width="12" height="12" fill="#807dba"/>
<text x="28" y="632" fill="#222">legalizeResourceTypes</text>
<rect x="289" y="622" width="12" height="12" fill="#6a51a3"/>
<text x="305" y="632" fill="#222">legalizeExistentialTypeLayout</text>
<rect x="566" y="622" width="12" height="12" fill="#bcbddc"/>
<text x="582" y="632" fill="#222">performMandatoryEarlyInlining</text>
<rect x="843" y="622" width="12" height="12" fill="#dadaeb"/>
<text x="859" y="632" fill="#222">performForceInlining</text>
<rect x="12" y="640" width="12" height="12" fill="#4a1486"/>
<text x="28" y="650" fill="#222">linkAndOptimizeIR (self)</text>
<rect x="289" y="640" width="12" height="12" fill="#fd8d3c"/>
<text x="305" y="650" fill="#222">emitEntryPointsSourceFromIR</text>
<rect x="566" y="640" width="12" height="12" fill="#e6550d"/>
<text x="582" y="650" fill="#222">generateOutput (self)</text>
<rect x="843" y="640" width="12" height="12" fill="#969696"/>
<text x="859" y="650" fill="#222">compileInner (self)</text>
</svg>