<svg xmlns="http://www.w3.org/2000/svg" xmlns:xlink="http://www.w3.org/1999/xlink" width="1132" height="680" viewBox="0 0 1132 680" preserveAspectRatio="xMidYMid meet" font-family="sans-serif" font-size="13">
<rect width="1132" height="680" fill="white"/>
<text x="12" y="30" font-size="20" font-weight="bold">autodiff — full phase breakdown across releases (median ms)</text>
<text x="68" y="60" font-size="15" font-weight="600" fill="#1a1a1a">autodiff<tspan fill="#888" font-weight="400" text-decoration="none">  1.03×</tspan></text>
<line x1="68.0" y1="516.0" x2="1108.0" y2="516.0" stroke="#eee"/>
<text x="64.0" y="519.0" text-anchor="end" fill="#999">0.0</text>
<line x1="68.0" y1="296.0" x2="1108.0" y2="296.0" stroke="#eee"/>
<text x="64.0" y="299.0" text-anchor="end" fill="#999">2202</text>
<line x1="68.0" y1="76.0" x2="1108.0" y2="76.0" stroke="#eee"/>
<text x="64.0" y="79.0" text-anchor="end" fill="#999">4403</text>
<line x1="68.0" y1="76.0" x2="68.0" y2="516.0" stroke="#333"/>
<line x1="68.0" y1="516.0" x2="1108.0" y2="516.0" stroke="#333"/>
<line x1="888.0" y1="76.0" x2="888.0" y2="516.0" stroke="#e8731a" stroke-width="1.2" stroke-dasharray="4 3"/>
<text x="891.0" y="87.0" fill="#e8731a" font-size="11">daily →</text>
<line x1="68.0" y1="516.0" x2="68.0" y2="519.0" stroke="#999"/>
<text x="68.0" y="531.0" text-anchor="end" fill="#666" transform="rotate(-50 68.0 531.0)">25.14</text>
<line x1="108.0" y1="516.0" x2="108.0" y2="519.0" stroke="#999"/>
<text x="108.0" y="531.0" text-anchor="end" fill="#666" transform="rotate(-50 108.0 531.0)">25.15</text>
<line x1="148.0" y1="516.0" x2="148.0" y2="519.0" stroke="#999"/>
<text x="148.0" y="531.0" text-anchor="end" fill="#666" transform="rotate(-50 148.0 531.0)">25.16</text>
<line x1="188.0" y1="516.0" x2="188.0" y2="519.0" stroke="#999"/>
<text x="188.0" y="531.0" text-anchor="end" fill="#666" transform="rotate(-50 188.0 531.0)">25.17</text>
<line x1="228.0" y1="516.0" x2="228.0" y2="519.0" stroke="#999"/>
<text x="228.0" y="531.0" text-anchor="end" fill="#666" transform="rotate(-50 228.0 531.0)">25.18</text>
<line x1="268.0" y1="516.0" x2="268.0" y2="519.0" stroke="#999"/>
<text x="268.0" y="531.0" text-anchor="end" fill="#666" transform="rotate(-50 268.0 531.0)">25.19</text>
<line x1="308.0" y1="516.0" x2="308.0" y2="519.0" stroke="#999"/>
<text x="308.0" y="531.0" text-anchor="end" fill="#666" transform="rotate(-50 308.0 531.0)">25.20</text>
<line x1="348.0" y1="516.0" x2="348.0" y2="519.0" stroke="#999"/>
<text x="348.0" y="531.0" text-anchor="end" fill="#666" transform="rotate(-50 348.0 531.0)">25.21</text>
<line x1="388.0" y1="516.0" x2="388.0" y2="519.0" stroke="#999"/>
<text x="388.0" y="531.0" text-anchor="end" fill="#666" transform="rotate(-50 388.0 531.0)">25.22</text>
<line x1="428.0" y1="516.0" x2="428.0" y2="519.0" stroke="#999"/>
<text x="428.0" y="531.0" text-anchor="end" fill="#666" transform="rotate(-50 428.0 531.0)">25.23</text>
<line x1="468.0" y1="516.0" x2="468.0" y2="519.0" stroke="#999"/>
<text x="468.0" y="531.0" text-anchor="end" fill="#666" transform="rotate(-50 468.0 531.0)">25.24</text>
<line x1="508.0" y1="516.0" x2="508.0" y2="519.0" stroke="#999"/>
<text x="508.0" y="531.0" text-anchor="end" fill="#666" transform="rotate(-50 508.0 531.0)">26.1</text>
<line x1="548.0" y1="516.0" x2="548.0" y2="519.0" stroke="#999"/>
<text x="548.0" y="531.0" text-anchor="end" fill="#666" transform="rotate(-50 548.0 531.0)">26.2</text>
<line x1="588.0" y1="516.0" x2="588.0" y2="519.0" stroke="#999"/>
<text x="588.0" y="531.0" text-anchor="end" fill="#666" transform="rotate(-50 588.0 531.0)">26.3</text>
<line x1="628.0" y1="516.0" x2="628.0" y2="519.0" stroke="#999"/>
<text x="628.0" y="531.0" text-anchor="end" fill="#666" transform="rotate(-50 628.0 531.0)">26.4</text>
<line x1="668.0" y1="516.0" x2="668.0" y2="519.0" stroke="#999"/>
<text x="668.0" y="531.0" text-anchor="end" fill="#666" transform="rotate(-50 668.0 531.0)">26.5</text>
<line x1="708.0" y1="516.0" x2="708.0" y2="519.0" stroke="#999"/>
<text x="708.0" y="531.0" text-anchor="end" fill="#666" transform="rotate(-50 708.0 531.0)">26.7</text>
<line x1="748.0" y1="516.0" x2="748.0" y2="519.0" stroke="#999"/>
<text x="748.0" y="531.0" text-anchor="end" fill="#666" transform="rotate(-50 748.0 531.0)">26.8</text>
<line x1="788.0" y1="516.0" x2="788.0" y2="519.0" stroke="#999"/>
<text x="788.0" y="531.0" text-anchor="end" fill="#666" transform="rotate(-50 788.0 531.0)">26.9</text>
<line x1="828.0" y1="516.0" x2="828.0" y2="519.0" stroke="#999"/>
<text x="828.0" y="531.0" text-anchor="end" fill="#666" transform="rotate(-50 828.0 531.0)">26.10</text>
<line x1="868.0" y1="516.0" x2="868.0" y2="519.0" stroke="#999"/>
<text x="868.0" y="531.0" text-anchor="end" fill="#666" transform="rotate(-50 868.0 531.0)">26.11</text>
<line x1="908.0" y1="516.0" x2="908.0" y2="519.0" stroke="#999"/>
<text x="908.0" y="531.0" text-anchor="end" fill="#e8731a" transform="rotate(-50 908.0 531.0)">06-25</text>
<line x1="948.0" y1="516.0" x2="948.0" y2="519.0" stroke="#999"/>
<text x="948.0" y="531.0" text-anchor="end" fill="#e8731a" transform="rotate(-50 948.0 531.0)">06-26</text>
<line x1="988.0" y1="516.0" x2="988.0" y2="519.0" stroke="#999"/>
<text x="988.0" y="531.0" text-anchor="end" fill="#e8731a" transform="rotate(-50 988.0 531.0)">06-28</text>
<line x1="1028.0" y1="516.0" x2="1028.0" y2="519.0" stroke="#999"/>
<text x="1028.0" y="531.0" text-anchor="end" fill="#e8731a" transform="rotate(-50 1028.0 531.0)">07-01</text>
<line x1="1068.0" y1="516.0" x2="1068.0" y2="519.0" stroke="#999"/>
<text x="1068.0" y="531.0" text-anchor="end" fill="#e8731a" transform="rotate(-50 1068.0 531.0)">07-02</text>
<line x1="1108.0" y1="516.0" x2="1108.0" y2="519.0" stroke="#999"/>
<text x="1108.0" y="531.0" text-anchor="end" fill="#e8731a" transform="rotate(-50 1108.0 531.0)">07-03</text>
<polygon points="68.0,515.9 108.0,515.9 148.0,515.9 188.0,515.9 228.0,515.9 268.0,515.9 308.0,515.9 348.0,515.9 388.0,515.9 428.0,515.9 468.0,515.9 508.0,515.9 548.0,515.9 588.0,515.9 628.0,515.9 668.0,515.9 708.0,515.9 748.0,515.9 788.0,515.9 828.0,515.9 868.0,515.9 908.0,515.9 948.0,515.9 988.0,515.9 1028.0,515.9 1068.0,515.9 1108.0,515.9 1108.0,516.0 1068.0,516.0 1028.0,516.0 988.0,516.0 948.0,516.0 908.0,516.0 868.0,516.0 828.0,516.0 788.0,516.0 748.0,516.0 708.0,516.0 668.0,516.0 628.0,516.0 588.0,516.0 548.0,516.0 508.0,516.0 468.0,516.0 428.0,516.0 388.0,516.0 348.0,516.0 308.0,516.0 268.0,516.0 228.0,516.0 188.0,516.0 148.0,516.0 108.0,516.0 68.0,516.0" fill="#c7e9c0" fill-opacity="0.9" stroke="#fff" stroke-width="0.4"><title>autodiff — parseTranslationUnit</title></polygon>
<polygon points="68.0,513.3 108.0,512.3 148.0,512.3 188.0,512.2 228.0,512.3 268.0,512.3 308.0,512.3 348.0,512.3 388.0,512.3 428.0,512.3 468.0,512.3 508.0,512.1 548.0,511.9 588.0,511.9 628.0,511.8 668.0,511.7 708.0,505.8 748.0,505.6 788.0,505.6 828.0,505.7 868.0,507.2 908.0,506.9 948.0,506.7 988.0,506.8 1028.0,506.8 1068.0,506.8 1108.0,506.3 1108.0,515.9 1068.0,515.9 1028.0,515.9 988.0,515.9 948.0,515.9 908.0,515.9 868.0,515.9 828.0,515.9 788.0,515.9 748.0,515.9 708.0,515.9 668.0,515.9 628.0,515.9 588.0,515.9 548.0,515.9 508.0,515.9 468.0,515.9 428.0,515.9 388.0,515.9 348.0,515.9 308.0,515.9 268.0,515.9 228.0,515.9 188.0,515.9 148.0,515.9 108.0,515.9 68.0,515.9" fill="#41ab5d" fill-opacity="0.9" stroke="#fff" stroke-width="0.4"><title>autodiff — SemanticChecking</title></polygon>
<polygon points="68.0,511.8 108.0,510.9 148.0,510.8 188.0,510.7 228.0,510.7 268.0,510.8 308.0,510.7 348.0,510.8 388.0,510.8 428.0,510.9 468.0,510.9 508.0,510.7 548.0,510.6 588.0,510.6 628.0,510.4 668.0,510.3 708.0,499.9 748.0,499.6 788.0,499.8 828.0,499.7 868.0,502.9 908.0,502.2 948.0,502.0 988.0,502.1 1028.0,502.2 1068.0,502.0 1108.0,501.4 1108.0,506.3 1068.0,506.8 1028.0,506.8 988.0,506.8 948.0,506.7 908.0,506.9 868.0,507.2 828.0,505.7 788.0,505.6 748.0,505.6 708.0,505.8 668.0,511.7 628.0,511.8 588.0,511.9 548.0,511.9 508.0,512.1 468.0,512.3 428.0,512.3 388.0,512.3 348.0,512.3 308.0,512.3 268.0,512.3 228.0,512.3 188.0,512.2 148.0,512.3 108.0,512.3 68.0,513.3" fill="#006d2c" fill-opacity="0.9" stroke="#fff" stroke-width="0.4"><title>autodiff — generateIR</title></polygon>
<polygon points="68.0,511.8 108.0,510.8 148.0,510.8 188.0,510.7 228.0,510.7 268.0,510.7 308.0,510.7 348.0,510.7 388.0,510.7 428.0,510.9 468.0,510.9 508.0,510.7 548.0,510.5 588.0,510.5 628.0,510.4 668.0,510.3 708.0,499.8 748.0,499.6 788.0,499.7 828.0,499.7 868.0,502.8 908.0,502.1 948.0,502.0 988.0,502.1 1028.0,502.1 1068.0,502.0 1108.0,501.4 1108.0,501.4 1068.0,502.0 1028.0,502.2 988.0,502.1 948.0,502.0 908.0,502.2 868.0,502.9 828.0,499.7 788.0,499.8 748.0,499.6 708.0,499.9 668.0,510.3 628.0,510.4 588.0,510.6 548.0,510.6 508.0,510.7 468.0,510.9 428.0,510.9 388.0,510.8 348.0,510.8 308.0,510.7 268.0,510.8 228.0,510.7 188.0,510.7 148.0,510.8 108.0,510.9 68.0,511.8" fill="#74c476" fill-opacity="0.9" stroke="#fff" stroke-width="0.4"><title>autodiff — frontEndExecute (self)</title></polygon>
<polygon points="68.0,510.2 108.0,509.2 148.0,509.2 188.0,509.1 228.0,509.1 268.0,509.0 308.0,508.9 348.0,509.0 388.0,509.0 428.0,509.2 468.0,507.3 508.0,507.1 548.0,506.9 588.0,506.9 628.0,506.7 668.0,506.4 708.0,359.2 748.0,359.3 788.0,359.2 828.0,359.2 868.0,474.9 908.0,470.8 948.0,471.2 988.0,470.8 1028.0,472.2 1068.0,471.7 1108.0,470.0 1108.0,501.4 1068.0,502.0 1028.0,502.1 988.0,502.1 948.0,502.0 908.0,502.1 868.0,502.8 828.0,499.7 788.0,499.7 748.0,499.6 708.0,499.8 668.0,510.3 628.0,510.4 588.0,510.5 548.0,510.5 508.0,510.7 468.0,510.9 428.0,510.9 388.0,510.7 348.0,510.7 308.0,510.7 268.0,510.7 228.0,510.7 188.0,510.7 148.0,510.8 108.0,510.8 68.0,511.8" fill="#6baed6" fill-opacity="0.9" stroke="#fff" stroke-width="0.4"><title>autodiff — specializeModule</title></polygon>
<polygon points="68.0,485.1 108.0,484.4 148.0,484.8 188.0,483.1 228.0,482.4 268.0,482.3 308.0,480.3 348.0,482.1 388.0,479.5 428.0,480.7 468.0,476.1 508.0,476.9 548.0,475.8 588.0,475.6 628.0,474.5 668.0,474.1 708.0,212.0 748.0,212.6 788.0,213.0 828.0,213.2 868.0,442.4 908.0,437.0 948.0,437.3 988.0,436.8 1028.0,439.4 1068.0,457.9 1108.0,455.8 1108.0,470.0 1068.0,471.7 1028.0,472.2 988.0,470.8 948.0,471.2 908.0,470.8 868.0,474.9 828.0,359.2 788.0,359.2 748.0,359.3 708.0,359.2 668.0,506.4 628.0,506.7 588.0,506.9 548.0,506.9 508.0,507.1 468.0,507.3 428.0,509.2 388.0,509.0 348.0,509.0 308.0,508.9 268.0,509.0 228.0,509.1 188.0,509.1 148.0,509.2 108.0,509.2 68.0,510.2" fill="#2171b5" fill-opacity="0.9" stroke="#fff" stroke-width="0.4"><title>autodiff — simplifyIR</title></polygon>
<polygon points="68.0,484.9 108.0,484.2 148.0,484.6 188.0,482.9 228.0,482.2 268.0,482.1 308.0,480.1 348.0,481.9 388.0,479.3 428.0,480.5 468.0,475.9 508.0,476.7 548.0,475.6 588.0,475.4 628.0,474.3 668.0,473.8 708.0,210.5 748.0,211.2 788.0,211.5 828.0,211.7 868.0,441.9 908.0,436.5 948.0,436.7 988.0,436.2 1028.0,438.9 1068.0,457.4 1108.0,455.2 1108.0,455.8 1068.0,457.9 1028.0,439.4 988.0,436.8 948.0,437.3 908.0,437.0 868.0,442.4 828.0,213.2 788.0,213.0 748.0,212.6 708.0,212.0 668.0,474.1 628.0,474.5 588.0,475.6 548.0,475.8 508.0,476.9 468.0,476.1 428.0,480.7 388.0,479.5 348.0,482.1 308.0,480.3 268.0,482.3 228.0,482.4 188.0,483.1 148.0,484.8 108.0,484.4 68.0,485.1" fill="#08306b" fill-opacity="0.9" stroke="#fff" stroke-width="0.4"><title>autodiff — linkIR</title></polygon>
<polygon points="68.0,484.8 108.0,484.1 148.0,484.6 188.0,482.9 228.0,482.2 268.0,482.1 308.0,480.0 348.0,481.8 388.0,479.3 428.0,480.5 468.0,475.9 508.0,476.6 548.0,475.6 588.0,475.4 628.0,474.2 668.0,473.8 708.0,210.5 748.0,211.1 788.0,211.4 828.0,211.7 868.0,441.9 908.0,436.4 948.0,436.6 988.0,436.2 1028.0,438.8 1068.0,457.3 1108.0,455.1 1108.0,455.2 1068.0,457.4 1028.0,438.9 988.0,436.2 948.0,436.7 908.0,436.5 868.0,441.9 828.0,211.7 788.0,211.5 748.0,211.2 708.0,210.5 668.0,473.8 628.0,474.3 588.0,475.4 548.0,475.6 508.0,476.7 468.0,475.9 428.0,480.5 388.0,479.3 348.0,481.9 308.0,480.1 268.0,482.1 228.0,482.2 188.0,482.9 148.0,484.6 108.0,484.2 68.0,484.9" fill="#9e9ac8" fill-opacity="0.9" stroke="#fff" stroke-width="0.4"><title>autodiff — unrollLoopsInModule</title></polygon>
<polygon points="68.0,482.1 108.0,481.4 148.0,481.8 188.0,480.2 228.0,480.2 268.0,480.0 308.0,478.1 348.0,479.9 388.0,477.3 428.0,478.5 468.0,474.0 508.0,474.7 548.0,473.6 588.0,473.5 628.0,472.2 668.0,471.8 708.0,207.9 748.0,208.5 788.0,208.9 828.0,209.1 868.0,439.4 908.0,433.7 948.0,433.9 988.0,433.4 1028.0,436.2 1068.0,454.6 1108.0,452.3 1108.0,455.1 1068.0,457.3 1028.0,438.8 988.0,436.2 948.0,436.6 908.0,436.4 868.0,441.9 828.0,211.7 788.0,211.4 748.0,211.1 708.0,210.5 668.0,473.8 628.0,474.2 588.0,475.4 548.0,475.6 508.0,476.6 468.0,475.9 428.0,480.5 388.0,479.3 348.0,481.8 308.0,480.0 268.0,482.1 228.0,482.2 188.0,482.9 148.0,484.6 108.0,484.1 68.0,484.8" fill="#807dba" fill-opacity="0.9" stroke="#fff" stroke-width="0.4"><title>autodiff — legalizeResourceTypes</title></polygon>
<polygon points="68.0,479.0 108.0,478.3 148.0,478.7 188.0,477.1 228.0,477.8 268.0,477.7 308.0,475.8 348.0,477.6 388.0,475.0 428.0,476.3 468.0,471.7 508.0,472.5 548.0,471.4 588.0,471.2 628.0,469.9 668.0,469.5 708.0,204.5 748.0,205.2 788.0,205.6 828.0,205.8 868.0,436.8 908.0,430.9 948.0,431.0 988.0,430.5 1028.0,433.6 1068.0,451.8 1108.0,449.4 1108.0,452.3 1068.0,454.6 1028.0,436.2 988.0,433.4 948.0,433.9 908.0,433.7 868.0,439.4 828.0,209.1 788.0,208.9 748.0,208.5 708.0,207.9 668.0,471.8 628.0,472.2 588.0,473.5 548.0,473.6 508.0,474.7 468.0,474.0 428.0,478.5 388.0,477.3 348.0,479.9 308.0,478.1 268.0,480.0 228.0,480.2 188.0,480.2 148.0,481.8 108.0,481.4 68.0,482.1" fill="#6a51a3" fill-opacity="0.9" stroke="#fff" stroke-width="0.4"><title>autodiff — legalizeExistentialTypeLayout</title></polygon>
<polygon points="68.0,478.8 108.0,478.1 148.0,478.5 188.0,476.9 228.0,477.6 268.0,477.4 308.0,475.6 348.0,477.4 388.0,474.8 428.0,476.0 468.0,471.4 508.0,472.2 548.0,471.1 588.0,471.0 628.0,469.7 668.0,469.2 708.0,204.2 748.0,204.9 788.0,205.3 828.0,205.5 868.0,436.5 908.0,430.5 948.0,430.7 988.0,430.2 1028.0,433.2 1068.0,451.4 1108.0,449.1 1108.0,449.4 1068.0,451.8 1028.0,433.6 988.0,430.5 948.0,431.0 908.0,430.9 868.0,436.8 828.0,205.8 788.0,205.6 748.0,205.2 708.0,204.5 668.0,469.5 628.0,469.9 588.0,471.2 548.0,471.4 508.0,472.5 468.0,471.7 428.0,476.3 388.0,475.0 348.0,477.6 308.0,475.8 268.0,477.7 228.0,477.8 188.0,477.1 148.0,478.7 108.0,478.3 68.0,479.0" fill="#bcbddc" fill-opacity="0.9" stroke="#fff" stroke-width="0.4"><title>autodiff — performMandatoryEarlyInlining</title></polygon>
<polygon points="68.0,478.7 108.0,478.0 148.0,478.4 188.0,476.7 228.0,477.4 268.0,477.3 308.0,475.5 348.0,477.3 388.0,474.7 428.0,475.9 468.0,471.3 508.0,472.1 548.0,471.0 588.0,470.8 628.0,469.5 668.0,469.1 708.0,204.0 748.0,204.6 788.0,205.0 828.0,205.2 868.0,436.2 908.0,430.2 948.0,430.4 988.0,429.9 1028.0,433.0 1068.0,451.2 1108.0,448.8 1108.0,449.1 1068.0,451.4 1028.0,433.2 988.0,430.2 948.0,430.7 908.0,430.5 868.0,436.5 828.0,205.5 788.0,205.3 748.0,204.9 708.0,204.2 668.0,469.2 628.0,469.7 588.0,471.0 548.0,471.1 508.0,472.2 468.0,471.4 428.0,476.0 388.0,474.8 348.0,477.4 308.0,475.6 268.0,477.4 228.0,477.6 188.0,476.9 148.0,478.5 108.0,478.1 68.0,478.8" fill="#dadaeb" fill-opacity="0.9" stroke="#fff" stroke-width="0.4"><title>autodiff — performForceInlining</title></polygon>
<polygon points="68.0,452.9 108.0,451.7 148.0,452.3 188.0,450.1 228.0,450.2 268.0,449.7 308.0,448.1 348.0,449.9 388.0,447.1 428.0,448.4 468.0,443.8 508.0,444.3 548.0,443.1 588.0,443.1 628.0,440.3 668.0,439.9 708.0,155.6 748.0,156.0 788.0,156.2 828.0,156.5 868.0,423.7 908.0,416.8 948.0,417.2 988.0,416.5 1028.0,420.1 1068.0,440.7 1108.0,437.8 1108.0,448.8 1068.0,451.2 1028.0,433.0 988.0,429.9 948.0,430.4 908.0,430.2 868.0,436.2 828.0,205.2 788.0,205.0 748.0,204.6 708.0,204.0 668.0,469.1 628.0,469.5 588.0,470.8 548.0,471.0 508.0,472.1 468.0,471.3 428.0,475.9 388.0,474.7 348.0,477.3 308.0,475.5 268.0,477.3 228.0,477.4 188.0,476.7 148.0,478.4 108.0,478.0 68.0,478.7" fill="#4a1486" fill-opacity="0.9" stroke="#fff" stroke-width="0.4"><title>autodiff — linkAndOptimizeIR (self)</title></polygon>
<polygon points="68.0,410.6 108.0,412.2 148.0,411.6 188.0,421.6 228.0,416.5 268.0,415.4 308.0,417.8 348.0,419.6 388.0,417.3 428.0,418.9 468.0,414.1 508.0,413.9 548.0,413.2 588.0,413.5 628.0,409.9 668.0,408.1 708.0,108.6 748.0,118.9 788.0,119.3 828.0,119.5 868.0,390.4 908.0,383.3 948.0,383.1 988.0,382.6 1028.0,386.5 1068.0,410.1 1108.0,407.1 1108.0,437.8 1068.0,440.7 1028.0,420.1 988.0,416.5 948.0,417.2 908.0,416.8 868.0,423.7 828.0,156.5 788.0,156.2 748.0,156.0 708.0,155.6 668.0,439.9 628.0,440.3 588.0,443.1 548.0,443.1 508.0,444.3 468.0,443.8 428.0,448.4 388.0,447.1 348.0,449.9 308.0,448.1 268.0,449.7 228.0,450.2 188.0,450.1 148.0,452.3 108.0,451.7 68.0,452.9" fill="#e6550d" fill-opacity="0.9" stroke="#fff" stroke-width="0.4"><title>autodiff — generateOutput (self)</title></polygon>
<polygon points="68.0,410.6 108.0,412.2 148.0,411.6 188.0,421.6 228.0,416.5 268.0,415.4 308.0,417.6 348.0,419.6 388.0,417.3 428.0,418.9 468.0,414.1 508.0,413.9 548.0,413.2 588.0,413.5 628.0,409.8 668.0,408.1 708.0,108.6 748.0,118.8 788.0,119.2 828.0,119.3 868.0,390.4 908.0,383.3 948.0,383.1 988.0,382.5 1028.0,386.5 1068.0,409.9 1108.0,407.1 1108.0,407.1 1068.0,410.1 1028.0,386.5 988.0,382.6 948.0,383.1 908.0,383.3 868.0,390.4 828.0,119.5 788.0,119.3 748.0,118.9 708.0,108.6 668.0,408.1 628.0,409.9 588.0,413.5 548.0,413.2 508.0,413.9 468.0,414.1 428.0,418.9 388.0,417.3 348.0,419.6 308.0,417.8 268.0,415.4 228.0,416.5 188.0,421.6 148.0,411.6 108.0,412.2 68.0,410.6" fill="#969696" fill-opacity="0.9" stroke="#fff" stroke-width="0.4"><title>autodiff — compileInner (self)</title></polygon>
<text x="12" y="578" fill="#666" font-weight="600">phase buckets</text>
<rect x="12" y="586" width="12" height="12" fill="#c7e9c0"/>
<text x="28" y="596" fill="#222">parseTranslationUnit</text>
<rect x="289" y="586" width="12" height="12" fill="#41ab5d"/>
<text x="305" y="596" fill="#222">SemanticChecking</text>
<rect x="566" y="586" width="12" height="12" fill="#006d2c"/>
<text x="582" y="596" fill="#222">generateIR</text>
<rect x="843" y="586" width="12" height="12" fill="#74c476"/>
<text x="859" y="596" fill="#222">frontEndExecute (self)</text>
<rect x="12" y="604" width="12" height="12" fill="#6baed6"/>
<text x="28" y="614" fill="#222">specializeModule</text>
<rect x="289" y="604" width="12" height="12" fill="#2171b5"/>
<text x="305" y="614" fill="#222">simplifyIR</text>
<rect x="566" y="604" width="12" height="12" fill="#08306b"/>
<text x="582" y="614" fill="#222">linkIR</text>
<rect x="843" y="604" width="12" height="12" fill="#9e9ac8"/>
<text x="859" y="614" fill="#222">unrollLoopsInModule</text>
<rect x="12" y="622" width="12" height="12" fill="#807dba"/>
<text x="28" y="632" fill="#222">legalizeResourceTypes</text>
<rect x="289" y="622" width="12" height="12" fill="#6a51a3"/>
<text x="305" y="632" fill="#222">legalizeExistentialTypeLayout</text>
<rect x="566" y="622" width="12" height="12" fill="#bcbddc"/>
<text x="582" y="632" fill="#222">performMandatoryEarlyInlining</text>
<rect x="843" y="622" width="12" height="12" fill="#dadaeb"/>
<text x="859" y="632" fill="#222">performForceInlining</text>
<rect x="12" y="640" width="12" height="12" fill="#4a1486"/>
<text x="28" y="650" fill="#222">linkAndOptimizeIR (self)</text>
<rect x="289" y="640" width="12" height="12" fill="#fd8d3c"/>
<text x="305" y="650" fill="#222">emitEntryPointsSourceFromIR</text>
<rect x="566" y="640" width="12" height="12" fill="#e6550d"/>
<text x="582" y="650" fill="#222">generateOutput (self)</text>
<rect x="843" y="640" width="12" height="12" fill="#969696"/>
<text x="859" y="650" fill="#222">compileInner (self)</text>
</svg>