<svg xmlns="http://www.w3.org/2000/svg" xmlns:xlink="http://www.w3.org/1999/xlink" width="1132" height="680" viewBox="0 0 1132 680" preserveAspectRatio="xMidYMid meet" font-family="sans-serif" font-size="13">
<rect width="1132" height="680" fill="white"/>
<text x="12" y="30" font-size="20" font-weight="bold">autodiff — full phase breakdown across releases (median ms)</text>
<text x="68" y="60" font-size="15" font-weight="600" fill="#1a1a1a">autodiff<tspan fill="#888" font-weight="400" text-decoration="none">  0.84×</tspan></text>
<line x1="68.0" y1="516.0" x2="1108.0" y2="516.0" stroke="#eee"/>
<text x="64.0" y="519.0" text-anchor="end" fill="#999">0.0</text>
<line x1="68.0" y1="296.0" x2="1108.0" y2="296.0" stroke="#eee"/>
<text x="64.0" y="299.0" text-anchor="end" fill="#999">2337</text>
<line x1="68.0" y1="76.0" x2="1108.0" y2="76.0" stroke="#eee"/>
<text x="64.0" y="79.0" text-anchor="end" fill="#999">4674</text>
<line x1="68.0" y1="76.0" x2="68.0" y2="516.0" stroke="#333"/>
<line x1="68.0" y1="516.0" x2="1108.0" y2="516.0" stroke="#333"/>
<line x1="745.6" y1="76.0" x2="745.6" y2="516.0" stroke="#e8731a" stroke-width="1.2" stroke-dasharray="4 3"/>
<text x="748.6" y="87.0" fill="#e8731a" font-size="11">daily →</text>
<line x1="68.0" y1="516.0" x2="68.0" y2="519.0" stroke="#999"/>
<text x="68.0" y="531.0" text-anchor="end" fill="#666" transform="rotate(-50 68.0 531.0)">25.14</text>
<line x1="99.5" y1="516.0" x2="99.5" y2="519.0" stroke="#999"/>
<text x="99.5" y="531.0" text-anchor="end" fill="#666" transform="rotate(-50 99.5 531.0)">25.15</text>
<line x1="131.0" y1="516.0" x2="131.0" y2="519.0" stroke="#999"/>
<text x="131.0" y="531.0" text-anchor="end" fill="#666" transform="rotate(-50 131.0 531.0)">25.16</text>
<line x1="162.5" y1="516.0" x2="162.5" y2="519.0" stroke="#999"/>
<text x="162.5" y="531.0" text-anchor="end" fill="#666" transform="rotate(-50 162.5 531.0)">25.17</text>
<line x1="194.1" y1="516.0" x2="194.1" y2="519.0" stroke="#999"/>
<text x="194.1" y="531.0" text-anchor="end" fill="#666" transform="rotate(-50 194.1 531.0)">25.18</text>
<line x1="225.6" y1="516.0" x2="225.6" y2="519.0" stroke="#999"/>
<text x="225.6" y="531.0" text-anchor="end" fill="#666" transform="rotate(-50 225.6 531.0)">25.19</text>
<line x1="257.1" y1="516.0" x2="257.1" y2="519.0" stroke="#999"/>
<text x="257.1" y="531.0" text-anchor="end" fill="#666" transform="rotate(-50 257.1 531.0)">25.20</text>
<line x1="288.6" y1="516.0" x2="288.6" y2="519.0" stroke="#999"/>
<text x="288.6" y="531.0" text-anchor="end" fill="#666" transform="rotate(-50 288.6 531.0)">25.21</text>
<line x1="320.1" y1="516.0" x2="320.1" y2="519.0" stroke="#999"/>
<text x="320.1" y="531.0" text-anchor="end" fill="#666" transform="rotate(-50 320.1 531.0)">25.22</text>
<line x1="351.6" y1="516.0" x2="351.6" y2="519.0" stroke="#999"/>
<text x="351.6" y="531.0" text-anchor="end" fill="#666" transform="rotate(-50 351.6 531.0)">25.23</text>
<line x1="383.2" y1="516.0" x2="383.2" y2="519.0" stroke="#999"/>
<text x="383.2" y="531.0" text-anchor="end" fill="#666" transform="rotate(-50 383.2 531.0)">25.24</text>
<line x1="414.7" y1="516.0" x2="414.7" y2="519.0" stroke="#999"/>
<text x="414.7" y="531.0" text-anchor="end" fill="#666" transform="rotate(-50 414.7 531.0)">26.1</text>
<line x1="446.2" y1="516.0" x2="446.2" y2="519.0" stroke="#999"/>
<text x="446.2" y="531.0" text-anchor="end" fill="#666" transform="rotate(-50 446.2 531.0)">26.2</text>
<line x1="477.7" y1="516.0" x2="477.7" y2="519.0" stroke="#999"/>
<text x="477.7" y="531.0" text-anchor="end" fill="#666" transform="rotate(-50 477.7 531.0)">26.3</text>
<line x1="509.2" y1="516.0" x2="509.2" y2="519.0" stroke="#999"/>
<text x="509.2" y="531.0" text-anchor="end" fill="#666" transform="rotate(-50 509.2 531.0)">26.4</text>
<line x1="540.7" y1="516.0" x2="540.7" y2="519.0" stroke="#999"/>
<text x="540.7" y="531.0" text-anchor="end" fill="#666" transform="rotate(-50 540.7 531.0)">26.5</text>
<line x1="572.2" y1="516.0" x2="572.2" y2="519.0" stroke="#999"/>
<text x="572.2" y="531.0" text-anchor="end" fill="#666" transform="rotate(-50 572.2 531.0)">26.7</text>
<line x1="603.8" y1="516.0" x2="603.8" y2="519.0" stroke="#999"/>
<text x="603.8" y="531.0" text-anchor="end" fill="#666" transform="rotate(-50 603.8 531.0)">26.8</text>
<line x1="635.3" y1="516.0" x2="635.3" y2="519.0" stroke="#999"/>
<text x="635.3" y="531.0" text-anchor="end" fill="#666" transform="rotate(-50 635.3 531.0)">26.9</text>
<line x1="666.8" y1="516.0" x2="666.8" y2="519.0" stroke="#999"/>
<text x="666.8" y="531.0" text-anchor="end" fill="#666" transform="rotate(-50 666.8 531.0)">26.10</text>
<line x1="698.3" y1="516.0" x2="698.3" y2="519.0" stroke="#999"/>
<text x="698.3" y="531.0" text-anchor="end" fill="#666" transform="rotate(-50 698.3 531.0)">26.11</text>
<line x1="729.8" y1="516.0" x2="729.8" y2="519.0" stroke="#999"/>
<text x="729.8" y="531.0" text-anchor="end" fill="#666" transform="rotate(-50 729.8 531.0)">26.12</text>
<line x1="761.3" y1="516.0" x2="761.3" y2="519.0" stroke="#999"/>
<text x="761.3" y="531.0" text-anchor="end" fill="#e8731a" transform="rotate(-50 761.3 531.0)">06-25</text>
<line x1="792.8" y1="516.0" x2="792.8" y2="519.0" stroke="#999"/>
<text x="792.8" y="531.0" text-anchor="end" fill="#e8731a" transform="rotate(-50 792.8 531.0)">06-26</text>
<line x1="824.4" y1="516.0" x2="824.4" y2="519.0" stroke="#999"/>
<text x="824.4" y="531.0" text-anchor="end" fill="#e8731a" transform="rotate(-50 824.4 531.0)">06-28</text>
<line x1="855.9" y1="516.0" x2="855.9" y2="519.0" stroke="#999"/>
<text x="855.9" y="531.0" text-anchor="end" fill="#e8731a" transform="rotate(-50 855.9 531.0)">07-01</text>
<line x1="887.4" y1="516.0" x2="887.4" y2="519.0" stroke="#999"/>
<text x="887.4" y="531.0" text-anchor="end" fill="#e8731a" transform="rotate(-50 887.4 531.0)">07-02</text>
<line x1="918.9" y1="516.0" x2="918.9" y2="519.0" stroke="#999"/>
<text x="918.9" y="531.0" text-anchor="end" fill="#e8731a" transform="rotate(-50 918.9 531.0)">07-03</text>
<line x1="950.4" y1="516.0" x2="950.4" y2="519.0" stroke="#999"/>
<text x="950.4" y="531.0" text-anchor="end" fill="#e8731a" transform="rotate(-50 950.4 531.0)">07-07</text>
<line x1="981.9" y1="516.0" x2="981.9" y2="519.0" stroke="#999"/>
<text x="981.9" y="531.0" text-anchor="end" fill="#e8731a" transform="rotate(-50 981.9 531.0)">07-07</text>
<line x1="1013.5" y1="516.0" x2="1013.5" y2="519.0" stroke="#999"/>
<text x="1013.5" y="531.0" text-anchor="end" fill="#e8731a" transform="rotate(-50 1013.5 531.0)">07-09</text>
<line x1="1045.0" y1="516.0" x2="1045.0" y2="519.0" stroke="#999"/>
<text x="1045.0" y="531.0" text-anchor="end" fill="#e8731a" transform="rotate(-50 1045.0 531.0)">07-10</text>
<line x1="1076.5" y1="516.0" x2="1076.5" y2="519.0" stroke="#999"/>
<text x="1076.5" y="531.0" text-anchor="end" fill="#e8731a" transform="rotate(-50 1076.5 531.0)">07-11</text>
<line x1="1108.0" y1="516.0" x2="1108.0" y2="519.0" stroke="#999"/>
<text x="1108.0" y="531.0" text-anchor="end" fill="#e8731a" transform="rotate(-50 1108.0 531.0)">07-11</text>
<polygon points="68.0,515.9 99.5,515.9 131.0,515.9 162.5,515.9 194.1,515.9 225.6,515.9 257.1,515.9 288.6,515.9 320.1,515.9 351.6,515.9 383.2,515.9 414.7,515.9 446.2,515.9 477.7,515.9 509.2,515.9 540.7,515.9 572.2,515.9 603.8,515.9 635.3,515.9 666.8,515.9 698.3,515.9 729.8,515.9 761.3,515.9 792.8,515.9 824.4,515.9 855.9,515.9 887.4,515.9 918.9,515.9 950.4,515.9 981.9,515.9 1013.5,515.9 1045.0,515.9 1076.5,515.9 1108.0,515.9 1108.0,516.0 1076.5,516.0 1045.0,516.0 1013.5,516.0 981.9,516.0 950.4,516.0 918.9,516.0 887.4,516.0 855.9,516.0 824.4,516.0 792.8,516.0 761.3,516.0 729.8,516.0 698.3,516.0 666.8,516.0 635.3,516.0 603.8,516.0 572.2,516.0 540.7,516.0 509.2,516.0 477.7,516.0 446.2,516.0 414.7,516.0 383.2,516.0 351.6,516.0 320.1,516.0 288.6,516.0 257.1,516.0 225.6,516.0 194.1,516.0 162.5,516.0 131.0,516.0 99.5,516.0 68.0,516.0" fill="#c7e9c0" fill-opacity="0.9" stroke="#fff" stroke-width="0.4"><title>autodiff — parseTranslationUnit</title></polygon>
<polygon points="68.0,513.4 99.5,512.6 131.0,512.6 162.5,512.3 194.1,512.3 225.6,512.3 257.1,512.1 288.6,511.9 320.1,512.3 351.6,512.2 383.2,512.4 414.7,512.4 446.2,512.2 477.7,512.2 509.2,512.2 540.7,512.2 572.2,506.4 603.8,506.4 635.3,506.2 666.8,506.3 698.3,508.1 729.8,507.8 761.3,507.4 792.8,507.3 824.4,507.4 855.9,507.4 887.4,507.4 918.9,507.2 950.4,507.2 981.9,507.4 1013.5,507.2 1045.0,507.2 1076.5,507.1 1108.0,506.9 1108.0,515.9 1076.5,515.9 1045.0,515.9 1013.5,515.9 981.9,515.9 950.4,515.9 918.9,515.9 887.4,515.9 855.9,515.9 824.4,515.9 792.8,515.9 761.3,515.9 729.8,515.9 698.3,515.9 666.8,515.9 635.3,515.9 603.8,515.9 572.2,515.9 540.7,515.9 509.2,515.9 477.7,515.9 446.2,515.9 414.7,515.9 383.2,515.9 351.6,515.9 320.1,515.9 288.6,515.9 257.1,515.9 225.6,515.9 194.1,515.9 162.5,515.9 131.0,515.9 99.5,515.9 68.0,515.9" fill="#41ab5d" fill-opacity="0.9" stroke="#fff" stroke-width="0.4"><title>autodiff — SemanticChecking</title></polygon>
<polygon points="68.0,512.0 99.5,511.2 131.0,511.2 162.5,510.7 194.1,510.9 225.6,510.7 257.1,510.5 288.6,510.4 320.1,510.8 351.6,510.9 383.2,511.1 414.7,511.1 446.2,510.9 477.7,510.9 509.2,510.9 540.7,510.9 572.2,500.6 603.8,500.8 635.3,500.4 666.8,500.5 698.3,504.1 729.8,503.7 761.3,503.0 792.8,502.8 824.4,502.9 855.9,503.0 887.4,502.8 918.9,502.6 950.4,502.7 981.9,502.8 1013.5,502.6 1045.0,502.7 1076.5,502.5 1108.0,502.2 1108.0,506.9 1076.5,507.1 1045.0,507.2 1013.5,507.2 981.9,507.4 950.4,507.2 918.9,507.2 887.4,507.4 855.9,507.4 824.4,507.4 792.8,507.3 761.3,507.4 729.8,507.8 698.3,508.1 666.8,506.3 635.3,506.2 603.8,506.4 572.2,506.4 540.7,512.2 509.2,512.2 477.7,512.2 446.2,512.2 414.7,512.4 383.2,512.4 351.6,512.2 320.1,512.3 288.6,511.9 257.1,512.1 225.6,512.3 194.1,512.3 162.5,512.3 131.0,512.6 99.5,512.6 68.0,513.4" fill="#006d2c" fill-opacity="0.9" stroke="#fff" stroke-width="0.4"><title>autodiff — generateIR</title></polygon>
<polygon points="68.0,511.9 99.5,511.2 131.0,511.2 162.5,510.7 194.1,510.8 225.6,510.7 257.1,510.4 288.6,510.3 320.1,510.8 351.6,510.9 383.2,511.0 414.7,511.0 446.2,510.9 477.7,510.9 509.2,510.9 540.7,510.9 572.2,500.6 603.8,500.7 635.3,500.2 666.8,500.5 698.3,504.0 729.8,503.7 761.3,502.9 792.8,502.8 824.4,502.9 855.9,503.0 887.4,502.8 918.9,502.6 950.4,502.6 981.9,502.8 1013.5,502.6 1045.0,502.7 1076.5,502.5 1108.0,502.2 1108.0,502.2 1076.5,502.5 1045.0,502.7 1013.5,502.6 981.9,502.8 950.4,502.7 918.9,502.6 887.4,502.8 855.9,503.0 824.4,502.9 792.8,502.8 761.3,503.0 729.8,503.7 698.3,504.1 666.8,500.5 635.3,500.4 603.8,500.8 572.2,500.6 540.7,510.9 509.2,510.9 477.7,510.9 446.2,510.9 414.7,511.1 383.2,511.1 351.6,510.9 320.1,510.8 288.6,510.4 257.1,510.5 225.6,510.7 194.1,510.9 162.5,510.7 131.0,511.2 99.5,511.2 68.0,512.0" fill="#74c476" fill-opacity="0.9" stroke="#fff" stroke-width="0.4"><title>autodiff — frontEndExecute (self)</title></polygon>
<polygon points="68.0,510.4 99.5,509.7 131.0,509.6 162.5,509.1 194.1,509.2 225.6,509.0 257.1,508.6 288.6,508.5 320.1,509.1 351.6,509.2 383.2,507.6 414.7,507.6 446.2,507.4 477.7,507.4 509.2,507.4 540.7,507.3 572.2,356.1 603.8,357.4 635.3,356.2 666.8,354.7 698.3,477.7 729.8,477.4 761.3,473.4 792.8,473.8 824.4,473.5 855.9,473.8 887.4,474.3 918.9,473.1 950.4,472.4 981.9,472.2 1013.5,472.3 1045.0,475.6 1076.5,475.7 1108.0,475.5 1108.0,502.2 1076.5,502.5 1045.0,502.7 1013.5,502.6 981.9,502.8 950.4,502.6 918.9,502.6 887.4,502.8 855.9,503.0 824.4,502.9 792.8,502.8 761.3,502.9 729.8,503.7 698.3,504.0 666.8,500.5 635.3,500.2 603.8,500.7 572.2,500.6 540.7,510.9 509.2,510.9 477.7,510.9 446.2,510.9 414.7,511.0 383.2,511.0 351.6,510.9 320.1,510.8 288.6,510.3 257.1,510.4 225.6,510.7 194.1,510.8 162.5,510.7 131.0,511.2 99.5,511.2 68.0,511.9" fill="#6baed6" fill-opacity="0.9" stroke="#fff" stroke-width="0.4"><title>autodiff — specializeModule</title></polygon>
<polygon points="68.0,484.9 99.5,484.3 131.0,484.9 162.5,484.8 194.1,482.9 225.6,482.3 257.1,478.1 288.6,477.2 320.1,480.3 351.6,480.2 383.2,477.2 414.7,477.6 446.2,477.9 477.7,477.7 509.2,478.0 540.7,477.7 572.2,207.0 603.8,208.7 635.3,208.4 666.8,205.1 698.3,446.8 729.8,446.8 761.3,441.6 792.8,441.8 824.4,441.4 855.9,442.0 887.4,461.3 918.9,459.7 950.4,459.2 981.9,458.9 1013.5,458.9 1045.0,467.8 1076.5,467.7 1108.0,467.7 1108.0,475.5 1076.5,475.7 1045.0,475.6 1013.5,472.3 981.9,472.2 950.4,472.4 918.9,473.1 887.4,474.3 855.9,473.8 824.4,473.5 792.8,473.8 761.3,473.4 729.8,477.4 698.3,477.7 666.8,354.7 635.3,356.2 603.8,357.4 572.2,356.1 540.7,507.3 509.2,507.4 477.7,507.4 446.2,507.4 414.7,507.6 383.2,507.6 351.6,509.2 320.1,509.1 288.6,508.5 257.1,508.6 225.6,509.0 194.1,509.2 162.5,509.1 131.0,509.6 99.5,509.7 68.0,510.4" fill="#2171b5" fill-opacity="0.9" stroke="#fff" stroke-width="0.4"><title>autodiff — simplifyIR</title></polygon>
<polygon points="68.0,484.6 99.5,484.1 131.0,484.7 162.5,484.6 194.1,482.7 225.6,482.1 257.1,477.8 288.6,476.9 320.1,480.1 351.6,479.9 383.2,477.0 414.7,477.3 446.2,477.7 477.7,477.5 509.2,477.8 540.7,477.5 572.2,205.5 603.8,207.2 635.3,206.9 666.8,203.6 698.3,446.3 729.8,446.3 761.3,441.1 792.8,441.3 824.4,440.9 855.9,441.5 887.4,460.8 918.9,459.2 950.4,458.7 981.9,458.3 1013.5,458.4 1045.0,467.2 1076.5,467.2 1108.0,467.1 1108.0,467.7 1076.5,467.7 1045.0,467.8 1013.5,458.9 981.9,458.9 950.4,459.2 918.9,459.7 887.4,461.3 855.9,442.0 824.4,441.4 792.8,441.8 761.3,441.6 729.8,446.8 698.3,446.8 666.8,205.1 635.3,208.4 603.8,208.7 572.2,207.0 540.7,477.7 509.2,478.0 477.7,477.7 446.2,477.9 414.7,477.6 383.2,477.2 351.6,480.2 320.1,480.3 288.6,477.2 257.1,478.1 225.6,482.3 194.1,482.9 162.5,484.8 131.0,484.9 99.5,484.3 68.0,484.9" fill="#08306b" fill-opacity="0.9" stroke="#fff" stroke-width="0.4"><title>autodiff — linkIR</title></polygon>
<polygon points="68.0,484.6 99.5,484.1 131.0,484.6 162.5,484.5 194.1,482.7 225.6,482.0 257.1,477.7 288.6,476.9 320.1,480.0 351.6,479.9 383.2,477.0 414.7,477.3 446.2,477.6 477.7,477.4 509.2,477.8 540.7,477.4 572.2,205.4 603.8,207.2 635.3,206.8 666.8,203.5 698.3,446.2 729.8,446.2 761.3,441.0 792.8,441.2 824.4,440.8 855.9,441.4 887.4,460.7 918.9,459.1 950.4,458.6 981.9,458.2 1013.5,458.2 1045.0,467.1 1076.5,467.1 1108.0,467.0 1108.0,467.1 1076.5,467.2 1045.0,467.2 1013.5,458.4 981.9,458.3 950.4,458.7 918.9,459.2 887.4,460.8 855.9,441.5 824.4,440.9 792.8,441.3 761.3,441.1 729.8,446.3 698.3,446.3 666.8,203.6 635.3,206.9 603.8,207.2 572.2,205.5 540.7,477.5 509.2,477.8 477.7,477.5 446.2,477.7 414.7,477.3 383.2,477.0 351.6,479.9 320.1,480.1 288.6,476.9 257.1,477.8 225.6,482.1 194.1,482.7 162.5,484.6 131.0,484.7 99.5,484.1 68.0,484.6" fill="#9e9ac8" fill-opacity="0.9" stroke="#fff" stroke-width="0.4"><title>autodiff — unrollLoopsInModule</title></polygon>
<polygon points="68.0,481.9 99.5,481.4 131.0,482.0 162.5,481.8 194.1,480.7 225.6,480.0 257.1,475.7 288.6,474.8 320.1,478.1 351.6,477.9 383.2,475.0 414.7,475.4 446.2,475.7 477.7,475.5 509.2,475.8 540.7,475.5 572.2,202.8 603.8,204.5 635.3,204.2 666.8,200.9 698.3,443.7 729.8,443.7 761.3,438.4 792.8,438.6 824.4,438.2 855.9,438.8 887.4,458.2 918.9,456.4 950.4,456.0 981.9,455.5 1013.5,455.6 1045.0,464.5 1076.5,466.3 1108.0,466.2 1108.0,467.0 1076.5,467.1 1045.0,467.1 1013.5,458.2 981.9,458.2 950.4,458.6 918.9,459.1 887.4,460.7 855.9,441.4 824.4,440.8 792.8,441.2 761.3,441.0 729.8,446.2 698.3,446.2 666.8,203.5 635.3,206.8 603.8,207.2 572.2,205.4 540.7,477.4 509.2,477.8 477.7,477.4 446.2,477.6 414.7,477.3 383.2,477.0 351.6,479.9 320.1,480.0 288.6,476.9 257.1,477.7 225.6,482.0 194.1,482.7 162.5,484.5 131.0,484.6 99.5,484.1 68.0,484.6" fill="#807dba" fill-opacity="0.9" stroke="#fff" stroke-width="0.4"><title>autodiff — legalizeResourceTypes</title></polygon>
<polygon points="68.0,478.9 99.5,478.4 131.0,479.0 162.5,478.8 194.1,478.2 225.6,477.6 257.1,473.3 288.6,472.3 320.1,475.8 351.6,475.6 383.2,472.8 414.7,473.1 446.2,473.4 477.7,473.3 509.2,473.6 540.7,473.3 572.2,199.4 603.8,201.2 635.3,200.9 666.8,197.6 698.3,441.1 729.8,441.2 761.3,435.8 792.8,436.0 824.4,435.5 855.9,436.2 887.4,455.5 918.9,453.7 950.4,453.3 981.9,452.8 1013.5,452.9 1045.0,461.8 1076.5,465.4 1108.0,465.3 1108.0,466.2 1076.5,466.3 1045.0,464.5 1013.5,455.6 981.9,455.5 950.4,456.0 918.9,456.4 887.4,458.2 855.9,438.8 824.4,438.2 792.8,438.6 761.3,438.4 729.8,443.7 698.3,443.7 666.8,200.9 635.3,204.2 603.8,204.5 572.2,202.8 540.7,475.5 509.2,475.8 477.7,475.5 446.2,475.7 414.7,475.4 383.2,475.0 351.6,477.9 320.1,478.1 288.6,474.8 257.1,475.7 225.6,480.0 194.1,480.7 162.5,481.8 131.0,482.0 99.5,481.4 68.0,481.9" fill="#6a51a3" fill-opacity="0.9" stroke="#fff" stroke-width="0.4"><title>autodiff — legalizeExistentialTypeLayout</title></polygon>
<polygon points="68.0,478.7 99.5,478.1 131.0,478.8 162.5,478.6 194.1,478.0 225.6,477.4 257.1,473.0 288.6,472.1 320.1,475.6 351.6,475.4 383.2,472.6 414.7,472.9 446.2,473.2 477.7,473.0 509.2,473.4 540.7,473.1 572.2,199.1 603.8,200.9 635.3,200.6 666.8,197.3 698.3,440.7 729.8,440.9 761.3,435.5 792.8,435.6 824.4,435.1 855.9,435.8 887.4,455.2 918.9,453.3 950.4,452.8 981.9,452.3 1013.5,452.4 1045.0,461.3 1076.5,464.9 1108.0,464.9 1108.0,465.3 1076.5,465.4 1045.0,461.8 1013.5,452.9 981.9,452.8 950.4,453.3 918.9,453.7 887.4,455.5 855.9,436.2 824.4,435.5 792.8,436.0 761.3,435.8 729.8,441.2 698.3,441.1 666.8,197.6 635.3,200.9 603.8,201.2 572.2,199.4 540.7,473.3 509.2,473.6 477.7,473.3 446.2,473.4 414.7,473.1 383.2,472.8 351.6,475.6 320.1,475.8 288.6,472.3 257.1,473.3 225.6,477.6 194.1,478.2 162.5,478.8 131.0,479.0 99.5,478.4 68.0,478.9" fill="#bcbddc" fill-opacity="0.9" stroke="#fff" stroke-width="0.4"><title>autodiff — performMandatoryEarlyInlining</title></polygon>
<polygon points="68.0,478.6 99.5,478.0 131.0,478.6 162.5,478.4 194.1,477.9 225.6,477.2 257.1,472.9 288.6,472.0 320.1,475.5 351.6,475.3 383.2,472.4 414.7,472.7 446.2,473.1 477.7,472.9 509.2,473.2 540.7,472.9 572.2,198.9 603.8,200.6 635.3,200.3 666.8,197.0 698.3,440.5 729.8,440.6 761.3,435.2 792.8,435.4 824.4,434.9 855.9,435.6 887.4,454.9 918.9,453.1 950.4,452.6 981.9,452.1 1013.5,452.1 1045.0,461.1 1076.5,464.7 1108.0,464.6 1108.0,464.9 1076.5,464.9 1045.0,461.3 1013.5,452.4 981.9,452.3 950.4,452.8 918.9,453.3 887.4,455.2 855.9,435.8 824.4,435.1 792.8,435.6 761.3,435.5 729.8,440.9 698.3,440.7 666.8,197.3 635.3,200.6 603.8,200.9 572.2,199.1 540.7,473.1 509.2,473.4 477.7,473.0 446.2,473.2 414.7,472.9 383.2,472.6 351.6,475.4 320.1,475.6 288.6,472.1 257.1,473.0 225.6,477.4 194.1,478.0 162.5,478.6 131.0,478.8 99.5,478.1 68.0,478.7" fill="#dadaeb" fill-opacity="0.9" stroke="#fff" stroke-width="0.4"><title>autodiff — performForceInlining</title></polygon>
<polygon points="68.0,452.8 99.5,452.5 131.0,453.3 162.5,451.4 194.1,449.9 225.6,449.6 257.1,444.5 288.6,441.7 320.1,448.2 351.6,447.4 383.2,444.0 414.7,445.2 446.2,446.4 477.7,446.1 509.2,445.7 540.7,445.5 572.2,153.3 603.8,153.2 635.3,152.8 666.8,149.0 698.3,428.5 729.8,429.0 761.3,422.5 792.8,423.0 824.4,422.3 855.9,423.2 887.4,445.1 918.9,442.5 950.4,442.8 981.9,442.1 1013.5,442.6 1045.0,452.7 1076.5,457.6 1108.0,457.7 1108.0,464.6 1076.5,464.7 1045.0,461.1 1013.5,452.1 981.9,452.1 950.4,452.6 918.9,453.1 887.4,454.9 855.9,435.6 824.4,434.9 792.8,435.4 761.3,435.2 729.8,440.6 698.3,440.5 666.8,197.0 635.3,200.3 603.8,200.6 572.2,198.9 540.7,472.9 509.2,473.2 477.7,472.9 446.2,473.1 414.7,472.7 383.2,472.4 351.6,475.3 320.1,475.5 288.6,472.0 257.1,472.9 225.6,477.2 194.1,477.9 162.5,478.4 131.0,478.6 99.5,478.0 68.0,478.6" fill="#4a1486" fill-opacity="0.9" stroke="#fff" stroke-width="0.4"><title>autodiff — linkAndOptimizeIR (self)</title></polygon>
<polygon points="68.0,413.6 99.5,414.9 131.0,415.1 162.5,422.7 194.1,416.0 225.6,416.1 257.1,414.3 288.6,411.8 320.1,417.3 351.6,417.8 383.2,413.9 414.7,416.3 446.2,417.7 477.7,417.7 509.2,417.2 540.7,416.9 572.2,108.6 603.8,118.4 635.3,117.5 666.8,113.2 698.3,396.5 729.8,397.4 761.3,391.0 792.8,390.8 824.4,390.3 855.9,391.8 887.4,416.2 918.9,413.2 950.4,413.7 981.9,412.9 1013.5,413.4 1045.0,423.4 1076.5,429.5 1108.0,429.7 1108.0,457.7 1076.5,457.6 1045.0,452.7 1013.5,442.6 981.9,442.1 950.4,442.8 918.9,442.5 887.4,445.1 855.9,423.2 824.4,422.3 792.8,423.0 761.3,422.5 729.8,429.0 698.3,428.5 666.8,149.0 635.3,152.8 603.8,153.2 572.2,153.3 540.7,445.5 509.2,445.7 477.7,446.1 446.2,446.4 414.7,445.2 383.2,444.0 351.6,447.4 320.1,448.2 288.6,441.7 257.1,444.5 225.6,449.6 194.1,449.9 162.5,451.4 131.0,453.3 99.5,452.5 68.0,452.8" fill="#e6550d" fill-opacity="0.9" stroke="#fff" stroke-width="0.4"><title>autodiff — generateOutput (self)</title></polygon>
<polygon points="68.0,413.6 99.5,414.9 131.0,415.0 162.5,422.7 194.1,415.9 225.6,416.1 257.1,412.1 288.6,411.8 320.1,417.3 351.6,417.8 383.2,413.8 414.7,416.3 446.2,417.7 477.7,417.7 509.2,417.1 540.7,416.9 572.2,108.6 603.8,118.4 635.3,117.5 666.8,113.2 698.3,396.5 729.8,397.3 761.3,391.0 792.8,390.8 824.4,390.2 855.9,391.8 887.4,416.0 918.9,413.2 950.4,413.6 981.9,412.9 1013.5,413.4 1045.0,423.4 1076.5,429.5 1108.0,429.6 1108.0,429.7 1076.5,429.5 1045.0,423.4 1013.5,413.4 981.9,412.9 950.4,413.7 918.9,413.2 887.4,416.2 855.9,391.8 824.4,390.3 792.8,390.8 761.3,391.0 729.8,397.4 698.3,396.5 666.8,113.2 635.3,117.5 603.8,118.4 572.2,108.6 540.7,416.9 509.2,417.2 477.7,417.7 446.2,417.7 414.7,416.3 383.2,413.9 351.6,417.8 320.1,417.3 288.6,411.8 257.1,414.3 225.6,416.1 194.1,416.0 162.5,422.7 131.0,415.1 99.5,414.9 68.0,413.6" fill="#969696" fill-opacity="0.9" stroke="#fff" stroke-width="0.4"><title>autodiff — compileInner (self)</title></polygon>
<text x="12" y="578" fill="#666" font-weight="600">phase buckets</text>
<rect x="12" y="586" width="12" height="12" fill="#c7e9c0"/>
<text x="28" y="596" fill="#222">parseTranslationUnit</text>
<rect x="289" y="586" width="12" height="12" fill="#41ab5d"/>
<text x="305" y="596" fill="#222">SemanticChecking</text>
<rect x="566" y="586" width="12" height="12" fill="#006d2c"/>
<text x="582" y="596" fill="#222">generateIR</text>
<rect x="843" y="586" width="12" height="12" fill="#74c476"/>
<text x="859" y="596" fill="#222">frontEndExecute (self)</text>
<rect x="12" y="604" width="12" height="12" fill="#6baed6"/>
<text x="28" y="614" fill="#222">specializeModule</text>
<rect x="289" y="604" width="12" height="12" fill="#2171b5"/>
<text x="305" y="614" fill="#222">simplifyIR</text>
<rect x="566" y="604" width="12" height="12" fill="#08306b"/>
<text x="582" y="614" fill="#222">linkIR</text>
<rect x="843" y="604" width="12" height="12" fill="#9e9ac8"/>
<text x="859" y="614" fill="#222">unrollLoopsInModule</text>
<rect x="12" y="622" width="12" height="12" fill="#807dba"/>
<text x="28" y="632" fill="#222">legalizeResourceTypes</text>
<rect x="289" y="622" width="12" height="12" fill="#6a51a3"/>
<text x="305" y="632" fill="#222">legalizeExistentialTypeLayout</text>
<rect x="566" y="622" width="12" height="12" fill="#bcbddc"/>
<text x="582" y="632" fill="#222">performMandatoryEarlyInlining</text>
<rect x="843" y="622" width="12" height="12" fill="#dadaeb"/>
<text x="859" y="632" fill="#222">performForceInlining</text>
<rect x="12" y="640" width="12" height="12" fill="#4a1486"/>
<text x="28" y="650" fill="#222">linkAndOptimizeIR (self)</text>
<rect x="289" y="640" width="12" height="12" fill="#fd8d3c"/>
<text x="305" y="650" fill="#222">emitEntryPointsSourceFromIR</text>
<rect x="566" y="640" width="12" height="12" fill="#e6550d"/>
<text x="582" y="650" fill="#222">generateOutput (self)</text>
<rect x="843" y="640" width="12" height="12" fill="#969696"/>
<text x="859" y="650" fill="#222">compileInner (self)</text>
</svg>