<svg xmlns="http://www.w3.org/2000/svg" xmlns:xlink="http://www.w3.org/1999/xlink" width="1132" height="680" viewBox="0 0 1132 680" preserveAspectRatio="xMidYMid meet" font-family="sans-serif" font-size="13">
<rect width="1132" height="680" fill="white"/>
<text x="12" y="30" font-size="20" font-weight="bold">autodiff — full phase breakdown across releases (median ms)</text>
<text x="68" y="60" font-size="15" font-weight="600" fill="#1a1a1a">autodiff<tspan fill="#888" font-weight="400" text-decoration="none">  0.84×</tspan></text>
<line x1="68.0" y1="516.0" x2="1108.0" y2="516.0" stroke="#eee"/>
<text x="64.0" y="519.0" text-anchor="end" fill="#999">0.0</text>
<line x1="68.0" y1="296.0" x2="1108.0" y2="296.0" stroke="#eee"/>
<text x="64.0" y="299.0" text-anchor="end" fill="#999">2337</text>
<line x1="68.0" y1="76.0" x2="1108.0" y2="76.0" stroke="#eee"/>
<text x="64.0" y="79.0" text-anchor="end" fill="#999">4674</text>
<line x1="68.0" y1="76.0" x2="68.0" y2="516.0" stroke="#333"/>
<line x1="68.0" y1="516.0" x2="1108.0" y2="516.0" stroke="#333"/>
<line x1="689.1" y1="76.0" x2="689.1" y2="516.0" stroke="#e8731a" stroke-width="1.2" stroke-dasharray="4 3"/>
<text x="692.1" y="87.0" fill="#e8731a" font-size="11">daily →</text>
<line x1="68.0" y1="516.0" x2="68.0" y2="519.0" stroke="#999"/>
<text x="68.0" y="531.0" text-anchor="end" fill="#666" transform="rotate(-50 68.0 531.0)">25.14</text>
<line x1="96.9" y1="516.0" x2="96.9" y2="519.0" stroke="#999"/>
<text x="96.9" y="531.0" text-anchor="end" fill="#666" transform="rotate(-50 96.9 531.0)">25.15</text>
<line x1="125.8" y1="516.0" x2="125.8" y2="519.0" stroke="#999"/>
<text x="125.8" y="531.0" text-anchor="end" fill="#666" transform="rotate(-50 125.8 531.0)">25.16</text>
<line x1="154.7" y1="516.0" x2="154.7" y2="519.0" stroke="#999"/>
<text x="154.7" y="531.0" text-anchor="end" fill="#666" transform="rotate(-50 154.7 531.0)">25.17</text>
<line x1="183.6" y1="516.0" x2="183.6" y2="519.0" stroke="#999"/>
<text x="183.6" y="531.0" text-anchor="end" fill="#666" transform="rotate(-50 183.6 531.0)">25.18</text>
<line x1="212.4" y1="516.0" x2="212.4" y2="519.0" stroke="#999"/>
<text x="212.4" y="531.0" text-anchor="end" fill="#666" transform="rotate(-50 212.4 531.0)">25.19</text>
<line x1="241.3" y1="516.0" x2="241.3" y2="519.0" stroke="#999"/>
<text x="241.3" y="531.0" text-anchor="end" fill="#666" transform="rotate(-50 241.3 531.0)">25.20</text>
<line x1="270.2" y1="516.0" x2="270.2" y2="519.0" stroke="#999"/>
<text x="270.2" y="531.0" text-anchor="end" fill="#666" transform="rotate(-50 270.2 531.0)">25.21</text>
<line x1="299.1" y1="516.0" x2="299.1" y2="519.0" stroke="#999"/>
<text x="299.1" y="531.0" text-anchor="end" fill="#666" transform="rotate(-50 299.1 531.0)">25.22</text>
<line x1="328.0" y1="516.0" x2="328.0" y2="519.0" stroke="#999"/>
<text x="328.0" y="531.0" text-anchor="end" fill="#666" transform="rotate(-50 328.0 531.0)">25.23</text>
<line x1="356.9" y1="516.0" x2="356.9" y2="519.0" stroke="#999"/>
<text x="356.9" y="531.0" text-anchor="end" fill="#666" transform="rotate(-50 356.9 531.0)">25.24</text>
<line x1="385.8" y1="516.0" x2="385.8" y2="519.0" stroke="#999"/>
<text x="385.8" y="531.0" text-anchor="end" fill="#666" transform="rotate(-50 385.8 531.0)">26.1</text>
<line x1="414.7" y1="516.0" x2="414.7" y2="519.0" stroke="#999"/>
<text x="414.7" y="531.0" text-anchor="end" fill="#666" transform="rotate(-50 414.7 531.0)">26.2</text>
<line x1="443.6" y1="516.0" x2="443.6" y2="519.0" stroke="#999"/>
<text x="443.6" y="531.0" text-anchor="end" fill="#666" transform="rotate(-50 443.6 531.0)">26.3</text>
<line x1="472.4" y1="516.0" x2="472.4" y2="519.0" stroke="#999"/>
<text x="472.4" y="531.0" text-anchor="end" fill="#666" transform="rotate(-50 472.4 531.0)">26.4</text>
<line x1="501.3" y1="516.0" x2="501.3" y2="519.0" stroke="#999"/>
<text x="501.3" y="531.0" text-anchor="end" fill="#666" transform="rotate(-50 501.3 531.0)">26.5</text>
<line x1="530.2" y1="516.0" x2="530.2" y2="519.0" stroke="#999"/>
<text x="530.2" y="531.0" text-anchor="end" fill="#666" transform="rotate(-50 530.2 531.0)">26.7</text>
<line x1="559.1" y1="516.0" x2="559.1" y2="519.0" stroke="#999"/>
<text x="559.1" y="531.0" text-anchor="end" fill="#666" transform="rotate(-50 559.1 531.0)">26.8</text>
<line x1="588.0" y1="516.0" x2="588.0" y2="519.0" stroke="#999"/>
<text x="588.0" y="531.0" text-anchor="end" fill="#666" transform="rotate(-50 588.0 531.0)">26.9</text>
<line x1="616.9" y1="516.0" x2="616.9" y2="519.0" stroke="#999"/>
<text x="616.9" y="531.0" text-anchor="end" fill="#666" transform="rotate(-50 616.9 531.0)">26.10</text>
<line x1="645.8" y1="516.0" x2="645.8" y2="519.0" stroke="#999"/>
<text x="645.8" y="531.0" text-anchor="end" fill="#666" transform="rotate(-50 645.8 531.0)">26.11</text>
<line x1="674.7" y1="516.0" x2="674.7" y2="519.0" stroke="#999"/>
<text x="674.7" y="531.0" text-anchor="end" fill="#666" transform="rotate(-50 674.7 531.0)">26.12</text>
<line x1="703.6" y1="516.0" x2="703.6" y2="519.0" stroke="#999"/>
<text x="703.6" y="531.0" text-anchor="end" fill="#e8731a" transform="rotate(-50 703.6 531.0)">06-25</text>
<line x1="732.4" y1="516.0" x2="732.4" y2="519.0" stroke="#999"/>
<text x="732.4" y="531.0" text-anchor="end" fill="#e8731a" transform="rotate(-50 732.4 531.0)">06-26</text>
<line x1="761.3" y1="516.0" x2="761.3" y2="519.0" stroke="#999"/>
<text x="761.3" y="531.0" text-anchor="end" fill="#e8731a" transform="rotate(-50 761.3 531.0)">06-28</text>
<line x1="790.2" y1="516.0" x2="790.2" y2="519.0" stroke="#999"/>
<text x="790.2" y="531.0" text-anchor="end" fill="#e8731a" transform="rotate(-50 790.2 531.0)">07-01</text>
<line x1="819.1" y1="516.0" x2="819.1" y2="519.0" stroke="#999"/>
<text x="819.1" y="531.0" text-anchor="end" fill="#e8731a" transform="rotate(-50 819.1 531.0)">07-02</text>
<line x1="848.0" y1="516.0" x2="848.0" y2="519.0" stroke="#999"/>
<text x="848.0" y="531.0" text-anchor="end" fill="#e8731a" transform="rotate(-50 848.0 531.0)">07-03</text>
<line x1="876.9" y1="516.0" x2="876.9" y2="519.0" stroke="#999"/>
<text x="876.9" y="531.0" text-anchor="end" fill="#e8731a" transform="rotate(-50 876.9 531.0)">07-06</text>
<line x1="905.8" y1="516.0" x2="905.8" y2="519.0" stroke="#999"/>
<text x="905.8" y="531.0" text-anchor="end" fill="#e8731a" transform="rotate(-50 905.8 531.0)">07-07</text>
<line x1="934.7" y1="516.0" x2="934.7" y2="519.0" stroke="#999"/>
<text x="934.7" y="531.0" text-anchor="end" fill="#e8731a" transform="rotate(-50 934.7 531.0)">07-07</text>
<line x1="963.6" y1="516.0" x2="963.6" y2="519.0" stroke="#999"/>
<text x="963.6" y="531.0" text-anchor="end" fill="#e8731a" transform="rotate(-50 963.6 531.0)">07-08</text>
<line x1="992.4" y1="516.0" x2="992.4" y2="519.0" stroke="#999"/>
<text x="992.4" y="531.0" text-anchor="end" fill="#e8731a" transform="rotate(-50 992.4 531.0)">07-09</text>
<line x1="1021.3" y1="516.0" x2="1021.3" y2="519.0" stroke="#999"/>
<text x="1021.3" y="531.0" text-anchor="end" fill="#e8731a" transform="rotate(-50 1021.3 531.0)">07-09</text>
<line x1="1050.2" y1="516.0" x2="1050.2" y2="519.0" stroke="#999"/>
<text x="1050.2" y="531.0" text-anchor="end" fill="#e8731a" transform="rotate(-50 1050.2 531.0)">07-10</text>
<line x1="1079.1" y1="516.0" x2="1079.1" y2="519.0" stroke="#999"/>
<text x="1079.1" y="531.0" text-anchor="end" fill="#e8731a" transform="rotate(-50 1079.1 531.0)">07-11</text>
<line x1="1108.0" y1="516.0" x2="1108.0" y2="519.0" stroke="#999"/>
<text x="1108.0" y="531.0" text-anchor="end" fill="#e8731a" transform="rotate(-50 1108.0 531.0)">07-11</text>
<polygon points="68.0,515.9 96.9,515.9 125.8,515.9 154.7,515.9 183.6,515.9 212.4,515.9 241.3,515.9 270.2,515.9 299.1,515.9 328.0,515.9 356.9,515.9 385.8,515.9 414.7,515.9 443.6,515.9 472.4,515.9 501.3,515.9 530.2,515.9 559.1,515.9 588.0,515.9 616.9,515.9 645.8,515.9 674.7,515.9 703.6,515.9 732.4,515.9 761.3,515.9 790.2,515.9 819.1,515.9 848.0,515.9 876.9,515.9 905.8,515.9 934.7,515.9 963.6,515.9 992.4,515.9 1021.3,515.9 1050.2,515.9 1079.1,515.9 1108.0,515.9 1108.0,516.0 1079.1,516.0 1050.2,516.0 1021.3,516.0 992.4,516.0 963.6,516.0 934.7,516.0 905.8,516.0 876.9,516.0 848.0,516.0 819.1,516.0 790.2,516.0 761.3,516.0 732.4,516.0 703.6,516.0 674.7,516.0 645.8,516.0 616.9,516.0 588.0,516.0 559.1,516.0 530.2,516.0 501.3,516.0 472.4,516.0 443.6,516.0 414.7,516.0 385.8,516.0 356.9,516.0 328.0,516.0 299.1,516.0 270.2,516.0 241.3,516.0 212.4,516.0 183.6,516.0 154.7,516.0 125.8,516.0 96.9,516.0 68.0,516.0" fill="#c7e9c0" fill-opacity="0.9" stroke="#fff" stroke-width="0.4"><title>autodiff — parseTranslationUnit</title></polygon>
<polygon points="68.0,513.4 96.9,512.6 125.8,512.6 154.7,512.3 183.6,512.3 212.4,512.3 241.3,512.1 270.2,511.9 299.1,512.3 328.0,512.2 356.9,512.4 385.8,512.4 414.7,512.2 443.6,512.2 472.4,512.2 501.3,512.2 530.2,506.4 559.1,506.4 588.0,506.2 616.9,506.3 645.8,508.1 674.7,507.8 703.6,507.4 732.4,507.3 761.3,507.4 790.2,507.4 819.1,507.4 848.0,507.2 876.9,507.2 905.8,507.4 934.7,507.4 963.6,507.4 992.4,507.2 1021.3,507.4 1050.2,507.2 1079.1,507.1 1108.0,506.9 1108.0,515.9 1079.1,515.9 1050.2,515.9 1021.3,515.9 992.4,515.9 963.6,515.9 934.7,515.9 905.8,515.9 876.9,515.9 848.0,515.9 819.1,515.9 790.2,515.9 761.3,515.9 732.4,515.9 703.6,515.9 674.7,515.9 645.8,515.9 616.9,515.9 588.0,515.9 559.1,515.9 530.2,515.9 501.3,515.9 472.4,515.9 443.6,515.9 414.7,515.9 385.8,515.9 356.9,515.9 328.0,515.9 299.1,515.9 270.2,515.9 241.3,515.9 212.4,515.9 183.6,515.9 154.7,515.9 125.8,515.9 96.9,515.9 68.0,515.9" fill="#41ab5d" fill-opacity="0.9" stroke="#fff" stroke-width="0.4"><title>autodiff — SemanticChecking</title></polygon>
<polygon points="68.0,512.0 96.9,511.2 125.8,511.2 154.7,510.7 183.6,510.9 212.4,510.7 241.3,510.5 270.2,510.4 299.1,510.8 328.0,510.9 356.9,511.1 385.8,511.1 414.7,510.9 443.6,510.9 472.4,510.9 501.3,510.9 530.2,500.6 559.1,500.8 588.0,500.4 616.9,500.5 645.8,504.1 674.7,503.7 703.6,503.0 732.4,502.8 761.3,502.9 790.2,503.0 819.1,502.8 848.0,502.6 876.9,502.7 905.8,502.8 934.7,502.9 963.6,502.8 992.4,502.6 1021.3,502.9 1050.2,502.7 1079.1,502.5 1108.0,502.2 1108.0,506.9 1079.1,507.1 1050.2,507.2 1021.3,507.4 992.4,507.2 963.6,507.4 934.7,507.4 905.8,507.4 876.9,507.2 848.0,507.2 819.1,507.4 790.2,507.4 761.3,507.4 732.4,507.3 703.6,507.4 674.7,507.8 645.8,508.1 616.9,506.3 588.0,506.2 559.1,506.4 530.2,506.4 501.3,512.2 472.4,512.2 443.6,512.2 414.7,512.2 385.8,512.4 356.9,512.4 328.0,512.2 299.1,512.3 270.2,511.9 241.3,512.1 212.4,512.3 183.6,512.3 154.7,512.3 125.8,512.6 96.9,512.6 68.0,513.4" fill="#006d2c" fill-opacity="0.9" stroke="#fff" stroke-width="0.4"><title>autodiff — generateIR</title></polygon>
<polygon points="68.0,511.9 96.9,511.2 125.8,511.2 154.7,510.7 183.6,510.8 212.4,510.7 241.3,510.4 270.2,510.3 299.1,510.8 328.0,510.9 356.9,511.0 385.8,511.0 414.7,510.9 443.6,510.9 472.4,510.9 501.3,510.9 530.2,500.6 559.1,500.7 588.0,500.2 616.9,500.5 645.8,504.0 674.7,503.7 703.6,502.9 732.4,502.8 761.3,502.9 790.2,503.0 819.1,502.8 848.0,502.6 876.9,502.6 905.8,502.8 934.7,502.9 963.6,502.8 992.4,502.6 1021.3,502.8 1050.2,502.7 1079.1,502.5 1108.0,502.2 1108.0,502.2 1079.1,502.5 1050.2,502.7 1021.3,502.9 992.4,502.6 963.6,502.8 934.7,502.9 905.8,502.8 876.9,502.7 848.0,502.6 819.1,502.8 790.2,503.0 761.3,502.9 732.4,502.8 703.6,503.0 674.7,503.7 645.8,504.1 616.9,500.5 588.0,500.4 559.1,500.8 530.2,500.6 501.3,510.9 472.4,510.9 443.6,510.9 414.7,510.9 385.8,511.1 356.9,511.1 328.0,510.9 299.1,510.8 270.2,510.4 241.3,510.5 212.4,510.7 183.6,510.9 154.7,510.7 125.8,511.2 96.9,511.2 68.0,512.0" fill="#74c476" fill-opacity="0.9" stroke="#fff" stroke-width="0.4"><title>autodiff — frontEndExecute (self)</title></polygon>
<polygon points="68.0,510.4 96.9,509.7 125.8,509.6 154.7,509.1 183.6,509.2 212.4,509.0 241.3,508.6 270.2,508.5 299.1,509.1 328.0,509.2 356.9,507.6 385.8,507.6 414.7,507.4 443.6,507.4 472.4,507.4 501.3,507.3 530.2,356.1 559.1,357.4 588.0,356.2 616.9,354.7 645.8,477.7 674.7,477.4 703.6,473.4 732.4,473.8 761.3,473.5 790.2,473.8 819.1,474.3 848.0,473.3 876.9,473.8 905.8,472.2 934.7,472.6 963.6,472.2 992.4,472.3 1021.3,472.7 1050.2,475.6 1079.1,475.7 1108.0,475.5 1108.0,502.2 1079.1,502.5 1050.2,502.7 1021.3,502.8 992.4,502.6 963.6,502.8 934.7,502.9 905.8,502.8 876.9,502.6 848.0,502.6 819.1,502.8 790.2,503.0 761.3,502.9 732.4,502.8 703.6,502.9 674.7,503.7 645.8,504.0 616.9,500.5 588.0,500.2 559.1,500.7 530.2,500.6 501.3,510.9 472.4,510.9 443.6,510.9 414.7,510.9 385.8,511.0 356.9,511.0 328.0,510.9 299.1,510.8 270.2,510.3 241.3,510.4 212.4,510.7 183.6,510.8 154.7,510.7 125.8,511.2 96.9,511.2 68.0,511.9" fill="#6baed6" fill-opacity="0.9" stroke="#fff" stroke-width="0.4"><title>autodiff — specializeModule</title></polygon>
<polygon points="68.0,484.9 96.9,484.3 125.8,484.9 154.7,484.8 183.6,482.9 212.4,482.3 241.3,478.1 270.2,477.2 299.1,480.3 328.0,480.2 356.9,477.2 385.8,477.6 414.7,477.9 443.6,477.7 472.4,478.0 501.3,477.7 530.2,207.0 559.1,208.7 588.0,208.4 616.9,205.1 645.8,446.8 674.7,446.8 703.6,441.6 732.4,441.8 761.3,441.4 790.2,442.0 819.1,461.3 848.0,460.1 876.9,460.5 905.8,458.9 934.7,459.4 963.6,458.8 992.4,458.9 1021.3,459.3 1050.2,467.8 1079.1,467.7 1108.0,467.7 1108.0,475.5 1079.1,475.7 1050.2,475.6 1021.3,472.7 992.4,472.3 963.6,472.2 934.7,472.6 905.8,472.2 876.9,473.8 848.0,473.3 819.1,474.3 790.2,473.8 761.3,473.5 732.4,473.8 703.6,473.4 674.7,477.4 645.8,477.7 616.9,354.7 588.0,356.2 559.1,357.4 530.2,356.1 501.3,507.3 472.4,507.4 443.6,507.4 414.7,507.4 385.8,507.6 356.9,507.6 328.0,509.2 299.1,509.1 270.2,508.5 241.3,508.6 212.4,509.0 183.6,509.2 154.7,509.1 125.8,509.6 96.9,509.7 68.0,510.4" fill="#2171b5" fill-opacity="0.9" stroke="#fff" stroke-width="0.4"><title>autodiff — simplifyIR</title></polygon>
<polygon points="68.0,484.6 96.9,484.1 125.8,484.7 154.7,484.6 183.6,482.7 212.4,482.1 241.3,477.8 270.2,476.9 299.1,480.1 328.0,479.9 356.9,477.0 385.8,477.3 414.7,477.7 443.6,477.5 472.4,477.8 501.3,477.5 530.2,205.5 559.1,207.2 588.0,206.9 616.9,203.6 645.8,446.3 674.7,446.3 703.6,441.1 732.4,441.3 761.3,440.9 790.2,441.5 819.1,460.8 848.0,459.5 876.9,459.9 905.8,458.3 934.7,458.9 963.6,458.3 992.4,458.4 1021.3,458.7 1050.2,467.2 1079.1,467.2 1108.0,467.1 1108.0,467.7 1079.1,467.7 1050.2,467.8 1021.3,459.3 992.4,458.9 963.6,458.8 934.7,459.4 905.8,458.9 876.9,460.5 848.0,460.1 819.1,461.3 790.2,442.0 761.3,441.4 732.4,441.8 703.6,441.6 674.7,446.8 645.8,446.8 616.9,205.1 588.0,208.4 559.1,208.7 530.2,207.0 501.3,477.7 472.4,478.0 443.6,477.7 414.7,477.9 385.8,477.6 356.9,477.2 328.0,480.2 299.1,480.3 270.2,477.2 241.3,478.1 212.4,482.3 183.6,482.9 154.7,484.8 125.8,484.9 96.9,484.3 68.0,484.9" fill="#08306b" fill-opacity="0.9" stroke="#fff" stroke-width="0.4"><title>autodiff — linkIR</title></polygon>
<polygon points="68.0,484.6 96.9,484.1 125.8,484.6 154.7,484.5 183.6,482.7 212.4,482.0 241.3,477.7 270.2,476.9 299.1,480.0 328.0,479.9 356.9,477.0 385.8,477.3 414.7,477.6 443.6,477.4 472.4,477.8 501.3,477.4 530.2,205.4 559.1,207.2 588.0,206.8 616.9,203.5 645.8,446.2 674.7,446.2 703.6,441.0 732.4,441.2 761.3,440.8 790.2,441.4 819.1,460.7 848.0,459.5 876.9,459.9 905.8,458.2 934.7,458.8 963.6,458.2 992.4,458.2 1021.3,458.6 1050.2,467.1 1079.1,467.1 1108.0,467.0 1108.0,467.1 1079.1,467.2 1050.2,467.2 1021.3,458.7 992.4,458.4 963.6,458.3 934.7,458.9 905.8,458.3 876.9,459.9 848.0,459.5 819.1,460.8 790.2,441.5 761.3,440.9 732.4,441.3 703.6,441.1 674.7,446.3 645.8,446.3 616.9,203.6 588.0,206.9 559.1,207.2 530.2,205.5 501.3,477.5 472.4,477.8 443.6,477.5 414.7,477.7 385.8,477.3 356.9,477.0 328.0,479.9 299.1,480.1 270.2,476.9 241.3,477.8 212.4,482.1 183.6,482.7 154.7,484.6 125.8,484.7 96.9,484.1 68.0,484.6" fill="#9e9ac8" fill-opacity="0.9" stroke="#fff" stroke-width="0.4"><title>autodiff — unrollLoopsInModule</title></polygon>
<polygon points="68.0,481.9 96.9,481.4 125.8,482.0 154.7,481.8 183.6,480.7 212.4,480.0 241.3,475.7 270.2,474.8 299.1,478.1 328.0,477.9 356.9,475.0 385.8,475.4 414.7,475.7 443.6,475.5 472.4,475.8 501.3,475.5 530.2,202.8 559.1,204.5 588.0,204.2 616.9,200.9 645.8,443.7 674.7,443.7 703.6,438.4 732.4,438.6 761.3,438.2 790.2,438.8 819.1,458.2 848.0,456.9 876.9,457.2 905.8,455.5 934.7,456.1 963.6,455.6 992.4,455.6 1021.3,456.0 1050.2,464.5 1079.1,466.3 1108.0,466.2 1108.0,467.0 1079.1,467.1 1050.2,467.1 1021.3,458.6 992.4,458.2 963.6,458.2 934.7,458.8 905.8,458.2 876.9,459.9 848.0,459.5 819.1,460.7 790.2,441.4 761.3,440.8 732.4,441.2 703.6,441.0 674.7,446.2 645.8,446.2 616.9,203.5 588.0,206.8 559.1,207.2 530.2,205.4 501.3,477.4 472.4,477.8 443.6,477.4 414.7,477.6 385.8,477.3 356.9,477.0 328.0,479.9 299.1,480.0 270.2,476.9 241.3,477.7 212.4,482.0 183.6,482.7 154.7,484.5 125.8,484.6 96.9,484.1 68.0,484.6" fill="#807dba" fill-opacity="0.9" stroke="#fff" stroke-width="0.4"><title>autodiff — legalizeResourceTypes</title></polygon>
<polygon points="68.0,478.9 96.9,478.4 125.8,479.0 154.7,478.8 183.6,478.2 212.4,477.6 241.3,473.3 270.2,472.3 299.1,475.8 328.0,475.6 356.9,472.8 385.8,473.1 414.7,473.4 443.6,473.3 472.4,473.6 501.3,473.3 530.2,199.4 559.1,201.2 588.0,200.9 616.9,197.6 645.8,441.1 674.7,441.2 703.6,435.8 732.4,436.0 761.3,435.5 790.2,436.2 819.1,455.5 848.0,454.2 876.9,454.5 905.8,452.8 934.7,453.5 963.6,452.8 992.4,452.9 1021.3,453.3 1050.2,461.8 1079.1,465.4 1108.0,465.3 1108.0,466.2 1079.1,466.3 1050.2,464.5 1021.3,456.0 992.4,455.6 963.6,455.6 934.7,456.1 905.8,455.5 876.9,457.2 848.0,456.9 819.1,458.2 790.2,438.8 761.3,438.2 732.4,438.6 703.6,438.4 674.7,443.7 645.8,443.7 616.9,200.9 588.0,204.2 559.1,204.5 530.2,202.8 501.3,475.5 472.4,475.8 443.6,475.5 414.7,475.7 385.8,475.4 356.9,475.0 328.0,477.9 299.1,478.1 270.2,474.8 241.3,475.7 212.4,480.0 183.6,480.7 154.7,481.8 125.8,482.0 96.9,481.4 68.0,481.9" fill="#6a51a3" fill-opacity="0.9" stroke="#fff" stroke-width="0.4"><title>autodiff — legalizeExistentialTypeLayout</title></polygon>
<polygon points="68.0,478.7 96.9,478.1 125.8,478.8 154.7,478.6 183.6,478.0 212.4,477.4 241.3,473.0 270.2,472.1 299.1,475.6 328.0,475.4 356.9,472.6 385.8,472.9 414.7,473.2 443.6,473.0 472.4,473.4 501.3,473.1 530.2,199.1 559.1,200.9 588.0,200.6 616.9,197.3 645.8,440.7 674.7,440.9 703.6,435.5 732.4,435.6 761.3,435.1 790.2,435.8 819.1,455.2 848.0,453.9 876.9,454.2 905.8,452.3 934.7,453.0 963.6,452.4 992.4,452.4 1021.3,452.8 1050.2,461.3 1079.1,464.9 1108.0,464.9 1108.0,465.3 1079.1,465.4 1050.2,461.8 1021.3,453.3 992.4,452.9 963.6,452.8 934.7,453.5 905.8,452.8 876.9,454.5 848.0,454.2 819.1,455.5 790.2,436.2 761.3,435.5 732.4,436.0 703.6,435.8 674.7,441.2 645.8,441.1 616.9,197.6 588.0,200.9 559.1,201.2 530.2,199.4 501.3,473.3 472.4,473.6 443.6,473.3 414.7,473.4 385.8,473.1 356.9,472.8 328.0,475.6 299.1,475.8 270.2,472.3 241.3,473.3 212.4,477.6 183.6,478.2 154.7,478.8 125.8,479.0 96.9,478.4 68.0,478.9" fill="#bcbddc" fill-opacity="0.9" stroke="#fff" stroke-width="0.4"><title>autodiff — performMandatoryEarlyInlining</title></polygon>
<polygon points="68.0,478.6 96.9,478.0 125.8,478.6 154.7,478.4 183.6,477.9 212.4,477.2 241.3,472.9 270.2,472.0 299.1,475.5 328.0,475.3 356.9,472.4 385.8,472.7 414.7,473.1 443.6,472.9 472.4,473.2 501.3,472.9 530.2,198.9 559.1,200.6 588.0,200.3 616.9,197.0 645.8,440.5 674.7,440.6 703.6,435.2 732.4,435.4 761.3,434.9 790.2,435.6 819.1,454.9 848.0,453.6 876.9,453.9 905.8,452.1 934.7,452.7 963.6,452.1 992.4,452.1 1021.3,452.6 1050.2,461.1 1079.1,464.7 1108.0,464.6 1108.0,464.9 1079.1,464.9 1050.2,461.3 1021.3,452.8 992.4,452.4 963.6,452.4 934.7,453.0 905.8,452.3 876.9,454.2 848.0,453.9 819.1,455.2 790.2,435.8 761.3,435.1 732.4,435.6 703.6,435.5 674.7,440.9 645.8,440.7 616.9,197.3 588.0,200.6 559.1,200.9 530.2,199.1 501.3,473.1 472.4,473.4 443.6,473.0 414.7,473.2 385.8,472.9 356.9,472.6 328.0,475.4 299.1,475.6 270.2,472.1 241.3,473.0 212.4,477.4 183.6,478.0 154.7,478.6 125.8,478.8 96.9,478.1 68.0,478.7" fill="#dadaeb" fill-opacity="0.9" stroke="#fff" stroke-width="0.4"><title>autodiff — performForceInlining</title></polygon>
<polygon points="68.0,452.8 96.9,452.5 125.8,453.3 154.7,451.4 183.6,449.9 212.4,449.6 241.3,444.5 270.2,441.7 299.1,448.2 328.0,447.4 356.9,444.0 385.8,445.2 414.7,446.4 443.6,446.1 472.4,445.7 501.3,445.5 530.2,153.3 559.1,153.2 588.0,152.8 616.9,149.0 645.8,428.5 674.7,429.0 703.6,422.5 732.4,423.0 761.3,422.3 790.2,423.2 819.1,445.1 848.0,443.7 876.9,444.1 905.8,442.1 934.7,443.1 963.6,442.4 992.4,442.6 1021.3,443.0 1050.2,452.7 1079.1,457.6 1108.0,457.7 1108.0,464.6 1079.1,464.7 1050.2,461.1 1021.3,452.6 992.4,452.1 963.6,452.1 934.7,452.7 905.8,452.1 876.9,453.9 848.0,453.6 819.1,454.9 790.2,435.6 761.3,434.9 732.4,435.4 703.6,435.2 674.7,440.6 645.8,440.5 616.9,197.0 588.0,200.3 559.1,200.6 530.2,198.9 501.3,472.9 472.4,473.2 443.6,472.9 414.7,473.1 385.8,472.7 356.9,472.4 328.0,475.3 299.1,475.5 270.2,472.0 241.3,472.9 212.4,477.2 183.6,477.9 154.7,478.4 125.8,478.6 96.9,478.0 68.0,478.6" fill="#4a1486" fill-opacity="0.9" stroke="#fff" stroke-width="0.4"><title>autodiff — linkAndOptimizeIR (self)</title></polygon>
<polygon points="68.0,413.6 96.9,414.9 125.8,415.1 154.7,422.7 183.6,416.0 212.4,416.1 241.3,414.3 270.2,411.8 299.1,417.3 328.0,417.8 356.9,413.9 385.8,416.3 414.7,417.7 443.6,417.7 472.4,417.2 501.3,416.9 530.2,108.6 559.1,118.4 588.0,117.5 616.9,113.2 645.8,396.5 674.7,397.4 703.6,391.0 732.4,390.8 761.3,390.3 790.2,391.8 819.1,416.2 848.0,415.0 876.9,414.9 905.8,412.9 934.7,414.1 963.6,413.0 992.4,413.4 1021.3,413.8 1050.2,423.4 1079.1,429.5 1108.0,429.7 1108.0,457.7 1079.1,457.6 1050.2,452.7 1021.3,443.0 992.4,442.6 963.6,442.4 934.7,443.1 905.8,442.1 876.9,444.1 848.0,443.7 819.1,445.1 790.2,423.2 761.3,422.3 732.4,423.0 703.6,422.5 674.7,429.0 645.8,428.5 616.9,149.0 588.0,152.8 559.1,153.2 530.2,153.3 501.3,445.5 472.4,445.7 443.6,446.1 414.7,446.4 385.8,445.2 356.9,444.0 328.0,447.4 299.1,448.2 270.2,441.7 241.3,444.5 212.4,449.6 183.6,449.9 154.7,451.4 125.8,453.3 96.9,452.5 68.0,452.8" fill="#e6550d" fill-opacity="0.9" stroke="#fff" stroke-width="0.4"><title>autodiff — generateOutput (self)</title></polygon>
<polygon points="68.0,413.6 96.9,414.9 125.8,415.0 154.7,422.7 183.6,415.9 212.4,416.1 241.3,412.1 270.2,411.8 299.1,417.3 328.0,417.8 356.9,413.8 385.8,416.3 414.7,417.7 443.6,417.7 472.4,417.1 501.3,416.9 530.2,108.6 559.1,118.4 588.0,117.5 616.9,113.2 645.8,396.5 674.7,397.3 703.6,391.0 732.4,390.8 761.3,390.2 790.2,391.8 819.1,416.0 848.0,414.3 876.9,414.8 905.8,412.9 934.7,414.1 963.6,412.8 992.4,413.4 1021.3,413.7 1050.2,423.4 1079.1,429.5 1108.0,429.6 1108.0,429.7 1079.1,429.5 1050.2,423.4 1021.3,413.8 992.4,413.4 963.6,413.0 934.7,414.1 905.8,412.9 876.9,414.9 848.0,415.0 819.1,416.2 790.2,391.8 761.3,390.3 732.4,390.8 703.6,391.0 674.7,397.4 645.8,396.5 616.9,113.2 588.0,117.5 559.1,118.4 530.2,108.6 501.3,416.9 472.4,417.2 443.6,417.7 414.7,417.7 385.8,416.3 356.9,413.9 328.0,417.8 299.1,417.3 270.2,411.8 241.3,414.3 212.4,416.1 183.6,416.0 154.7,422.7 125.8,415.1 96.9,414.9 68.0,413.6" fill="#969696" fill-opacity="0.9" stroke="#fff" stroke-width="0.4"><title>autodiff — compileInner (self)</title></polygon>
<text x="12" y="578" fill="#666" font-weight="600">phase buckets</text>
<rect x="12" y="586" width="12" height="12" fill="#c7e9c0"/>
<text x="28" y="596" fill="#222">parseTranslationUnit</text>
<rect x="289" y="586" width="12" height="12" fill="#41ab5d"/>
<text x="305" y="596" fill="#222">SemanticChecking</text>
<rect x="566" y="586" width="12" height="12" fill="#006d2c"/>
<text x="582" y="596" fill="#222">generateIR</text>
<rect x="843" y="586" width="12" height="12" fill="#74c476"/>
<text x="859" y="596" fill="#222">frontEndExecute (self)</text>
<rect x="12" y="604" width="12" height="12" fill="#6baed6"/>
<text x="28" y="614" fill="#222">specializeModule</text>
<rect x="289" y="604" width="12" height="12" fill="#2171b5"/>
<text x="305" y="614" fill="#222">simplifyIR</text>
<rect x="566" y="604" width="12" height="12" fill="#08306b"/>
<text x="582" y="614" fill="#222">linkIR</text>
<rect x="843" y="604" width="12" height="12" fill="#9e9ac8"/>
<text x="859" y="614" fill="#222">unrollLoopsInModule</text>
<rect x="12" y="622" width="12" height="12" fill="#807dba"/>
<text x="28" y="632" fill="#222">legalizeResourceTypes</text>
<rect x="289" y="622" width="12" height="12" fill="#6a51a3"/>
<text x="305" y="632" fill="#222">legalizeExistentialTypeLayout</text>
<rect x="566" y="622" width="12" height="12" fill="#bcbddc"/>
<text x="582" y="632" fill="#222">performMandatoryEarlyInlining</text>
<rect x="843" y="622" width="12" height="12" fill="#dadaeb"/>
<text x="859" y="632" fill="#222">performForceInlining</text>
<rect x="12" y="640" width="12" height="12" fill="#4a1486"/>
<text x="28" y="650" fill="#222">linkAndOptimizeIR (self)</text>
<rect x="289" y="640" width="12" height="12" fill="#fd8d3c"/>
<text x="305" y="650" fill="#222">emitEntryPointsSourceFromIR</text>
<rect x="566" y="640" width="12" height="12" fill="#e6550d"/>
<text x="582" y="650" fill="#222">generateOutput (self)</text>
<rect x="843" y="640" width="12" height="12" fill="#969696"/>
<text x="859" y="650" fill="#222">compileInner (self)</text>
</svg>