<svg xmlns="http://www.w3.org/2000/svg" xmlns:xlink="http://www.w3.org/1999/xlink" width="1132" height="680" viewBox="0 0 1132 680" preserveAspectRatio="xMidYMid meet" font-family="sans-serif" font-size="13">
<rect width="1132" height="680" fill="white"/>
<text x="12" y="30" font-size="20" font-weight="bold">codegen_ptx — Daily tip-of-tree (last 30 days) (median ms)</text>
<text x="68" y="60" font-size="15" font-weight="600" fill="#1a1a1a">codegen_ptx<tspan fill="#888" font-weight="400" text-decoration="none">  0.49×</tspan></text>
<line x1="68.0" y1="516.0" x2="1108.0" y2="516.0" stroke="#eee"/>
<text x="64.0" y="519.0" text-anchor="end" fill="#999">0.0</text>
<line x1="68.0" y1="296.0" x2="1108.0" y2="296.0" stroke="#eee"/>
<text x="64.0" y="299.0" text-anchor="end" fill="#999">479</text>
<line x1="68.0" y1="76.0" x2="1108.0" y2="76.0" stroke="#eee"/>
<text x="64.0" y="79.0" text-anchor="end" fill="#999">958</text>
<line x1="68.0" y1="76.0" x2="68.0" y2="516.0" stroke="#333"/>
<line x1="68.0" y1="516.0" x2="1108.0" y2="516.0" stroke="#333"/>
<line x1="68.0" y1="516.0" x2="68.0" y2="519.0" stroke="#999"/>
<text x="68.0" y="531.0" text-anchor="end" fill="#e8731a" transform="rotate(-50 68.0 531.0)">06-25</text>
<line x1="122.7" y1="516.0" x2="122.7" y2="519.0" stroke="#999"/>
<text x="122.7" y="531.0" text-anchor="end" fill="#e8731a" transform="rotate(-50 122.7 531.0)">06-26</text>
<line x1="177.5" y1="516.0" x2="177.5" y2="519.0" stroke="#999"/>
<text x="177.5" y="531.0" text-anchor="end" fill="#e8731a" transform="rotate(-50 177.5 531.0)">06-28</text>
<line x1="232.2" y1="516.0" x2="232.2" y2="519.0" stroke="#999"/>
<text x="232.2" y="531.0" text-anchor="end" fill="#e8731a" transform="rotate(-50 232.2 531.0)">07-01</text>
<line x1="286.9" y1="516.0" x2="286.9" y2="519.0" stroke="#999"/>
<text x="286.9" y="531.0" text-anchor="end" fill="#e8731a" transform="rotate(-50 286.9 531.0)">07-02</text>
<line x1="341.7" y1="516.0" x2="341.7" y2="519.0" stroke="#999"/>
<text x="341.7" y="531.0" text-anchor="end" fill="#e8731a" transform="rotate(-50 341.7 531.0)">07-03</text>
<line x1="396.4" y1="516.0" x2="396.4" y2="519.0" stroke="#999"/>
<text x="396.4" y="531.0" text-anchor="end" fill="#e8731a" transform="rotate(-50 396.4 531.0)">07-06</text>
<line x1="451.2" y1="516.0" x2="451.2" y2="519.0" stroke="#999"/>
<text x="451.2" y="531.0" text-anchor="end" fill="#e8731a" transform="rotate(-50 451.2 531.0)">07-07</text>
<line x1="505.9" y1="516.0" x2="505.9" y2="519.0" stroke="#999"/>
<text x="505.9" y="531.0" text-anchor="end" fill="#e8731a" transform="rotate(-50 505.9 531.0)">07-08</text>
<line x1="560.6" y1="516.0" x2="560.6" y2="519.0" stroke="#999"/>
<text x="560.6" y="531.0" text-anchor="end" fill="#e8731a" transform="rotate(-50 560.6 531.0)">07-09</text>
<line x1="615.4" y1="516.0" x2="615.4" y2="519.0" stroke="#999"/>
<text x="615.4" y="531.0" text-anchor="end" fill="#e8731a" transform="rotate(-50 615.4 531.0)">07-10</text>
<line x1="670.1" y1="516.0" x2="670.1" y2="519.0" stroke="#999"/>
<text x="670.1" y="531.0" text-anchor="end" fill="#e8731a" transform="rotate(-50 670.1 531.0)">07-11</text>
<line x1="724.8" y1="516.0" x2="724.8" y2="519.0" stroke="#999"/>
<text x="724.8" y="531.0" text-anchor="end" fill="#e8731a" transform="rotate(-50 724.8 531.0)">07-14</text>
<line x1="779.6" y1="516.0" x2="779.6" y2="519.0" stroke="#999"/>
<text x="779.6" y="531.0" text-anchor="end" fill="#e8731a" transform="rotate(-50 779.6 531.0)">07-15</text>
<line x1="834.3" y1="516.0" x2="834.3" y2="519.0" stroke="#999"/>
<text x="834.3" y="531.0" text-anchor="end" fill="#e8731a" transform="rotate(-50 834.3 531.0)">07-15</text>
<line x1="889.1" y1="516.0" x2="889.1" y2="519.0" stroke="#999"/>
<text x="889.1" y="531.0" text-anchor="end" fill="#e8731a" transform="rotate(-50 889.1 531.0)">07-16</text>
<line x1="943.8" y1="516.0" x2="943.8" y2="519.0" stroke="#999"/>
<text x="943.8" y="531.0" text-anchor="end" fill="#e8731a" transform="rotate(-50 943.8 531.0)">07-17</text>
<line x1="998.5" y1="516.0" x2="998.5" y2="519.0" stroke="#999"/>
<text x="998.5" y="531.0" text-anchor="end" fill="#e8731a" transform="rotate(-50 998.5 531.0)">07-18</text>
<line x1="1053.3" y1="516.0" x2="1053.3" y2="519.0" stroke="#999"/>
<text x="1053.3" y="531.0" text-anchor="end" fill="#e8731a" transform="rotate(-50 1053.3 531.0)">07-19</text>
<line x1="1108.0" y1="516.0" x2="1108.0" y2="519.0" stroke="#999"/>
<text x="1108.0" y="531.0" text-anchor="end" fill="#e8731a" transform="rotate(-50 1108.0 531.0)">07-20</text>
<polygon points="68.0,515.5 122.7,515.5 177.5,515.5 232.2,515.5 286.9,515.5 341.7,515.5 396.4,515.5 451.2,515.6 505.9,515.6 560.6,515.6 615.4,515.6 670.1,515.6 724.8,515.6 779.6,515.6 834.3,515.6 889.1,515.6 943.8,515.6 998.5,515.6 1053.3,515.6 1108.0,515.6 1108.0,516.0 1053.3,516.0 998.5,516.0 943.8,516.0 889.1,516.0 834.3,516.0 779.6,516.0 724.8,516.0 670.1,516.0 615.4,516.0 560.6,516.0 505.9,516.0 451.2,516.0 396.4,516.0 341.7,516.0 286.9,516.0 232.2,516.0 177.5,516.0 122.7,516.0 68.0,516.0" fill="#c7e9c0" fill-opacity="0.9" stroke="#fff" stroke-width="0.4"><title>codegen_ptx — parseTranslationUnit</title></polygon>
<polygon points="68.0,498.8 122.7,498.3 177.5,498.9 232.2,498.1 286.9,498.4 341.7,498.3 396.4,498.2 451.2,499.3 505.9,499.4 560.6,499.2 615.4,498.6 670.1,499.0 724.8,498.5 779.6,500.0 834.3,499.8 889.1,497.9 943.8,497.7 998.5,501.4 1053.3,501.4 1108.0,501.4 1108.0,515.6 1053.3,515.6 998.5,515.6 943.8,515.6 889.1,515.6 834.3,515.6 779.6,515.6 724.8,515.6 670.1,515.6 615.4,515.6 560.6,515.6 505.9,515.6 451.2,515.6 396.4,515.5 341.7,515.5 286.9,515.5 232.2,515.5 177.5,515.5 122.7,515.5 68.0,515.5" fill="#41ab5d" fill-opacity="0.9" stroke="#fff" stroke-width="0.4"><title>codegen_ptx — SemanticChecking</title></polygon>
<polygon points="68.0,491.0 122.7,490.2 177.5,491.2 232.2,489.8 286.9,490.5 341.7,490.2 396.4,489.9 451.2,491.4 505.9,491.6 560.6,491.4 615.4,493.9 670.1,494.3 724.8,493.4 779.6,495.3 834.3,495.0 889.1,493.0 943.8,493.2 998.5,497.5 1053.3,497.5 1108.0,497.6 1108.0,501.4 1053.3,501.4 998.5,501.4 943.8,497.7 889.1,497.9 834.3,499.8 779.6,500.0 724.8,498.5 670.1,499.0 615.4,498.6 560.6,499.2 505.9,499.4 451.2,499.3 396.4,498.2 341.7,498.3 286.9,498.4 232.2,498.1 177.5,498.9 122.7,498.3 68.0,498.8" fill="#006d2c" fill-opacity="0.9" stroke="#fff" stroke-width="0.4"><title>codegen_ptx — generateIR</title></polygon>
<polygon points="68.0,490.8 122.7,490.1 177.5,491.0 232.2,489.5 286.9,490.5 341.7,490.0 396.4,489.6 451.2,491.2 505.9,491.4 560.6,491.2 615.4,493.7 670.1,494.1 724.8,493.2 779.6,495.1 834.3,494.8 889.1,492.9 943.8,493.0 998.5,497.4 1053.3,497.3 1108.0,497.5 1108.0,497.6 1053.3,497.5 998.5,497.5 943.8,493.2 889.1,493.0 834.3,495.0 779.6,495.3 724.8,493.4 670.1,494.3 615.4,493.9 560.6,491.4 505.9,491.6 451.2,491.4 396.4,489.9 341.7,490.2 286.9,490.5 232.2,489.8 177.5,491.2 122.7,490.2 68.0,491.0" fill="#74c476" fill-opacity="0.9" stroke="#fff" stroke-width="0.4"><title>codegen_ptx — frontEndExecute (self)</title></polygon>
<polygon points="68.0,476.9 122.7,475.9 177.5,477.1 232.2,474.2 286.9,476.5 341.7,475.8 396.4,475.4 451.2,475.6 505.9,476.0 560.6,475.9 615.4,487.2 670.1,487.5 724.8,486.7 779.6,489.1 834.3,488.8 889.1,487.0 943.8,487.0 998.5,491.8 1053.3,491.7 1108.0,491.9 1108.0,497.5 1053.3,497.3 998.5,497.4 943.8,493.0 889.1,492.9 834.3,494.8 779.6,495.1 724.8,493.2 670.1,494.1 615.4,493.7 560.6,491.2 505.9,491.4 451.2,491.2 396.4,489.6 341.7,490.0 286.9,490.5 232.2,489.5 177.5,491.0 122.7,490.1 68.0,490.8" fill="#6baed6" fill-opacity="0.9" stroke="#fff" stroke-width="0.4"><title>codegen_ptx — specializeModule</title></polygon>
<polygon points="68.0,431.1 122.7,429.6 177.5,430.9 232.2,425.4 286.9,429.9 341.7,429.2 396.4,428.9 451.2,427.3 505.9,429.6 560.6,429.8 615.4,480.5 670.1,480.8 724.8,479.8 779.6,482.0 834.3,481.8 889.1,480.1 943.8,480.1 998.5,484.9 1053.3,484.9 1108.0,485.1 1108.0,491.9 1053.3,491.7 998.5,491.8 943.8,487.0 889.1,487.0 834.3,488.8 779.6,489.1 724.8,486.7 670.1,487.5 615.4,487.2 560.6,475.9 505.9,476.0 451.2,475.6 396.4,475.4 341.7,475.8 286.9,476.5 232.2,474.2 177.5,477.1 122.7,475.9 68.0,476.9" fill="#2171b5" fill-opacity="0.9" stroke="#fff" stroke-width="0.4"><title>codegen_ptx — simplifyIR</title></polygon>
<polygon points="68.0,430.3 122.7,428.7 177.5,430.0 232.2,424.5 286.9,429.0 341.7,428.3 396.4,428.0 451.2,426.6 505.9,428.9 560.6,429.1 615.4,479.8 670.1,480.0 724.8,479.0 779.6,481.3 834.3,481.1 889.1,479.4 943.8,479.3 998.5,484.4 1053.3,484.4 1108.0,484.6 1108.0,485.1 1053.3,484.9 998.5,484.9 943.8,480.1 889.1,480.1 834.3,481.8 779.6,482.0 724.8,479.8 670.1,480.8 615.4,480.5 560.6,429.8 505.9,429.6 451.2,427.3 396.4,428.9 341.7,429.2 286.9,429.9 232.2,425.4 177.5,430.9 122.7,429.6 68.0,431.1" fill="#08306b" fill-opacity="0.9" stroke="#fff" stroke-width="0.4"><title>codegen_ptx — linkIR</title></polygon>
<polygon points="68.0,430.3 122.7,428.7 177.5,430.0 232.2,424.5 286.9,428.9 341.7,428.3 396.4,428.0 451.2,426.6 505.9,428.9 560.6,429.0 615.4,479.8 670.1,480.0 724.8,479.0 779.6,481.3 834.3,481.1 889.1,479.4 943.8,479.3 998.5,484.4 1053.3,484.4 1108.0,484.6 1108.0,484.6 1053.3,484.4 998.5,484.4 943.8,479.3 889.1,479.4 834.3,481.1 779.6,481.3 724.8,479.0 670.1,480.0 615.4,479.8 560.6,429.1 505.9,428.9 451.2,426.6 396.4,428.0 341.7,428.3 286.9,429.0 232.2,424.5 177.5,430.0 122.7,428.7 68.0,430.3" fill="#9e9ac8" fill-opacity="0.9" stroke="#fff" stroke-width="0.4"><title>codegen_ptx — unrollLoopsInModule</title></polygon>
<polygon points="68.0,430.1 122.7,428.5 177.5,429.8 232.2,424.4 286.9,428.8 341.7,428.2 396.4,427.8 451.2,426.4 505.9,428.7 560.6,428.8 615.4,479.5 670.1,479.8 724.8,478.8 779.6,481.1 834.3,480.9 889.1,479.2 943.8,479.1 998.5,484.2 1053.3,484.2 1108.0,484.4 1108.0,484.6 1053.3,484.4 998.5,484.4 943.8,479.3 889.1,479.4 834.3,481.1 779.6,481.3 724.8,479.0 670.1,480.0 615.4,479.8 560.6,429.0 505.9,428.9 451.2,426.6 396.4,428.0 341.7,428.3 286.9,428.9 232.2,424.5 177.5,430.0 122.7,428.7 68.0,430.3" fill="#bcbddc" fill-opacity="0.9" stroke="#fff" stroke-width="0.4"><title>codegen_ptx — performMandatoryEarlyInlining</title></polygon>
<polygon points="68.0,430.0 122.7,428.4 177.5,429.7 232.2,424.3 286.9,428.7 341.7,428.0 396.4,427.7 451.2,426.2 505.9,428.5 560.6,428.7 615.4,479.4 670.1,479.7 724.8,478.7 779.6,481.0 834.3,480.8 889.1,479.1 943.8,479.0 998.5,484.1 1053.3,484.1 1108.0,484.2 1108.0,484.4 1053.3,484.2 998.5,484.2 943.8,479.1 889.1,479.2 834.3,480.9 779.6,481.1 724.8,478.8 670.1,479.8 615.4,479.5 560.6,428.8 505.9,428.7 451.2,426.4 396.4,427.8 341.7,428.2 286.9,428.8 232.2,424.4 177.5,429.8 122.7,428.5 68.0,430.1" fill="#dadaeb" fill-opacity="0.9" stroke="#fff" stroke-width="0.4"><title>codegen_ptx — performForceInlining</title></polygon>
<polygon points="68.0,322.4 122.7,320.5 177.5,321.9 232.2,311.4 286.9,319.3 341.7,314.3 396.4,314.8 451.2,305.4 505.9,324.5 560.6,323.3 615.4,412.8 670.1,412.8 724.8,409.6 779.6,410.9 834.3,412.4 889.1,409.9 943.8,411.8 998.5,420.9 1053.3,419.2 1108.0,421.4 1108.0,484.2 1053.3,484.1 998.5,484.1 943.8,479.0 889.1,479.1 834.3,480.8 779.6,481.0 724.8,478.7 670.1,479.7 615.4,479.4 560.6,428.7 505.9,428.5 451.2,426.2 396.4,427.7 341.7,428.0 286.9,428.7 232.2,424.3 177.5,429.7 122.7,428.4 68.0,430.0" fill="#4a1486" fill-opacity="0.9" stroke="#fff" stroke-width="0.4"><title>codegen_ptx — linkAndOptimizeIR (self)</title></polygon>
<polygon points="68.0,146.2 122.7,142.4 177.5,144.6 232.2,125.0 286.9,140.0 341.7,130.4 396.4,131.5 451.2,108.7 505.9,149.6 560.6,146.5 615.4,320.7 670.1,320.0 724.8,314.2 779.6,315.5 834.3,318.7 889.1,315.4 943.8,319.1 998.5,335.1 1053.3,332.3 1108.0,336.4 1108.0,421.4 1053.3,419.2 998.5,420.9 943.8,411.8 889.1,409.9 834.3,412.4 779.6,410.9 724.8,409.6 670.1,412.8 615.4,412.8 560.6,323.3 505.9,324.5 451.2,305.4 396.4,314.8 341.7,314.3 286.9,319.3 232.2,311.4 177.5,321.9 122.7,320.5 68.0,322.4" fill="#fd8d3c" fill-opacity="0.9" stroke="#fff" stroke-width="0.4"><title>codegen_ptx — emitEntryPointsSourceFromIR</title></polygon>
<polygon points="68.0,146.0 122.7,142.4 177.5,143.9 232.2,125.0 286.9,139.9 341.7,130.2 396.4,131.5 451.2,108.6 505.9,149.5 560.6,146.5 615.4,320.7 670.1,319.4 724.8,313.8 779.6,315.4 834.3,318.7 889.1,315.4 943.8,318.3 998.5,335.1 1053.3,332.3 1108.0,335.9 1108.0,336.4 1053.3,332.3 998.5,335.1 943.8,319.1 889.1,315.4 834.3,318.7 779.6,315.5 724.8,314.2 670.1,320.0 615.4,320.7 560.6,146.5 505.9,149.6 451.2,108.7 396.4,131.5 341.7,130.4 286.9,140.0 232.2,125.0 177.5,144.6 122.7,142.4 68.0,146.2" fill="#969696" fill-opacity="0.9" stroke="#fff" stroke-width="0.4"><title>codegen_ptx — compileInner (self)</title></polygon>
<text x="12" y="578" fill="#666" font-weight="600">phase buckets</text>
<rect x="12" y="586" width="12" height="12" fill="#c7e9c0"/>
<text x="28" y="596" fill="#222">parseTranslationUnit</text>
<rect x="289" y="586" width="12" height="12" fill="#41ab5d"/>
<text x="305" y="596" fill="#222">SemanticChecking</text>
<rect x="566" y="586" width="12" height="12" fill="#006d2c"/>
<text x="582" y="596" fill="#222">generateIR</text>
<rect x="843" y="586" width="12" height="12" fill="#74c476"/>
<text x="859" y="596" fill="#222">frontEndExecute (self)</text>
<rect x="12" y="604" width="12" height="12" fill="#6baed6"/>
<text x="28" y="614" fill="#222">specializeModule</text>
<rect x="289" y="604" width="12" height="12" fill="#2171b5"/>
<text x="305" y="614" fill="#222">simplifyIR</text>
<rect x="566" y="604" width="12" height="12" fill="#08306b"/>
<text x="582" y="614" fill="#222">linkIR</text>
<rect x="843" y="604" width="12" height="12" fill="#9e9ac8"/>
<text x="859" y="614" fill="#222">unrollLoopsInModule</text>
<rect x="12" y="622" width="12" height="12" fill="#807dba"/>
<text x="28" y="632" fill="#222">legalizeResourceTypes</text>
<rect x="289" y="622" width="12" height="12" fill="#6a51a3"/>
<text x="305" y="632" fill="#222">legalizeExistentialTypeLayout</text>
<rect x="566" y="622" width="12" height="12" fill="#bcbddc"/>
<text x="582" y="632" fill="#222">performMandatoryEarlyInlining</text>
<rect x="843" y="622" width="12" height="12" fill="#dadaeb"/>
<text x="859" y="632" fill="#222">performForceInlining</text>
<rect x="12" y="640" width="12" height="12" fill="#4a1486"/>
<text x="28" y="650" fill="#222">linkAndOptimizeIR (self)</text>
<rect x="289" y="640" width="12" height="12" fill="#fd8d3c"/>
<text x="305" y="650" fill="#222">emitEntryPointsSourceFromIR</text>
<rect x="566" y="640" width="12" height="12" fill="#e6550d"/>
<text x="582" y="650" fill="#222">generateOutput (self)</text>
<rect x="843" y="640" width="12" height="12" fill="#969696"/>
<text x="859" y="650" fill="#222">compileInner (self)</text>
</svg>