<svg xmlns="http://www.w3.org/2000/svg" xmlns:xlink="http://www.w3.org/1999/xlink" width="1132" height="680" viewBox="0 0 1132 680" preserveAspectRatio="xMidYMid meet" font-family="sans-serif" font-size="13">
<rect width="1132" height="680" fill="white"/>
<text x="12" y="30" font-size="20" font-weight="bold">codegen_dxil — Daily tip-of-tree (last 30 days) (median ms)</text>
<text x="68" y="60" font-size="15" font-weight="600" fill="#1a1a1a">codegen_dxil<tspan fill="#888" font-weight="400" text-decoration="none">  0.44×</tspan></text>
<line x1="68.0" y1="516.0" x2="1108.0" y2="516.0" stroke="#eee"/>
<text x="64.0" y="519.0" text-anchor="end" fill="#999">0.0</text>
<line x1="68.0" y1="296.0" x2="1108.0" y2="296.0" stroke="#eee"/>
<text x="64.0" y="299.0" text-anchor="end" fill="#999">515</text>
<line x1="68.0" y1="76.0" x2="1108.0" y2="76.0" stroke="#eee"/>
<text x="64.0" y="79.0" text-anchor="end" fill="#999">1031</text>
<line x1="68.0" y1="76.0" x2="68.0" y2="516.0" stroke="#333"/>
<line x1="68.0" y1="516.0" x2="1108.0" y2="516.0" stroke="#333"/>
<line x1="68.0" y1="516.0" x2="68.0" y2="519.0" stroke="#999"/>
<text x="68.0" y="531.0" text-anchor="end" fill="#e8731a" transform="rotate(-50 68.0 531.0)">06-25</text>
<line x1="133.0" y1="516.0" x2="133.0" y2="519.0" stroke="#999"/>
<text x="133.0" y="531.0" text-anchor="end" fill="#e8731a" transform="rotate(-50 133.0 531.0)">06-26</text>
<line x1="198.0" y1="516.0" x2="198.0" y2="519.0" stroke="#999"/>
<text x="198.0" y="531.0" text-anchor="end" fill="#e8731a" transform="rotate(-50 198.0 531.0)">06-28</text>
<line x1="263.0" y1="516.0" x2="263.0" y2="519.0" stroke="#999"/>
<text x="263.0" y="531.0" text-anchor="end" fill="#e8731a" transform="rotate(-50 263.0 531.0)">07-01</text>
<line x1="328.0" y1="516.0" x2="328.0" y2="519.0" stroke="#999"/>
<text x="328.0" y="531.0" text-anchor="end" fill="#e8731a" transform="rotate(-50 328.0 531.0)">07-02</text>
<line x1="393.0" y1="516.0" x2="393.0" y2="519.0" stroke="#999"/>
<text x="393.0" y="531.0" text-anchor="end" fill="#e8731a" transform="rotate(-50 393.0 531.0)">07-03</text>
<line x1="458.0" y1="516.0" x2="458.0" y2="519.0" stroke="#999"/>
<text x="458.0" y="531.0" text-anchor="end" fill="#e8731a" transform="rotate(-50 458.0 531.0)">07-06</text>
<line x1="523.0" y1="516.0" x2="523.0" y2="519.0" stroke="#999"/>
<text x="523.0" y="531.0" text-anchor="end" fill="#e8731a" transform="rotate(-50 523.0 531.0)">07-07</text>
<line x1="588.0" y1="516.0" x2="588.0" y2="519.0" stroke="#999"/>
<text x="588.0" y="531.0" text-anchor="end" fill="#e8731a" transform="rotate(-50 588.0 531.0)">07-08</text>
<line x1="653.0" y1="516.0" x2="653.0" y2="519.0" stroke="#999"/>
<text x="653.0" y="531.0" text-anchor="end" fill="#e8731a" transform="rotate(-50 653.0 531.0)">07-09</text>
<line x1="718.0" y1="516.0" x2="718.0" y2="519.0" stroke="#999"/>
<text x="718.0" y="531.0" text-anchor="end" fill="#e8731a" transform="rotate(-50 718.0 531.0)">07-10</text>
<line x1="783.0" y1="516.0" x2="783.0" y2="519.0" stroke="#999"/>
<text x="783.0" y="531.0" text-anchor="end" fill="#e8731a" transform="rotate(-50 783.0 531.0)">07-11</text>
<line x1="848.0" y1="516.0" x2="848.0" y2="519.0" stroke="#999"/>
<text x="848.0" y="531.0" text-anchor="end" fill="#e8731a" transform="rotate(-50 848.0 531.0)">07-14</text>
<line x1="913.0" y1="516.0" x2="913.0" y2="519.0" stroke="#999"/>
<text x="913.0" y="531.0" text-anchor="end" fill="#e8731a" transform="rotate(-50 913.0 531.0)">07-15</text>
<line x1="978.0" y1="516.0" x2="978.0" y2="519.0" stroke="#999"/>
<text x="978.0" y="531.0" text-anchor="end" fill="#e8731a" transform="rotate(-50 978.0 531.0)">07-15</text>
<line x1="1043.0" y1="516.0" x2="1043.0" y2="519.0" stroke="#999"/>
<text x="1043.0" y="531.0" text-anchor="end" fill="#e8731a" transform="rotate(-50 1043.0 531.0)">07-16</text>
<line x1="1108.0" y1="516.0" x2="1108.0" y2="519.0" stroke="#999"/>
<text x="1108.0" y="531.0" text-anchor="end" fill="#e8731a" transform="rotate(-50 1108.0 531.0)">07-17</text>
<polygon points="68.0,515.5 133.0,515.5 198.0,515.5 263.0,515.5 328.0,515.5 393.0,515.5 458.0,515.5 523.0,515.6 588.0,515.5 653.0,515.5 718.0,515.6 783.0,515.6 848.0,515.6 913.0,515.6 978.0,515.6 1043.0,515.6 1108.0,515.6 1108.0,516.0 1043.0,516.0 978.0,516.0 913.0,516.0 848.0,516.0 783.0,516.0 718.0,516.0 653.0,516.0 588.0,516.0 523.0,516.0 458.0,516.0 393.0,516.0 328.0,516.0 263.0,516.0 198.0,516.0 133.0,516.0 68.0,516.0" fill="#c7e9c0" fill-opacity="0.9" stroke="#fff" stroke-width="0.4"><title>codegen_dxil — parseTranslationUnit</title></polygon>
<polygon points="68.0,499.6 133.0,499.7 198.0,499.7 263.0,499.1 328.0,499.7 393.0,500.1 458.0,499.4 523.0,499.9 588.0,498.0 653.0,495.7 718.0,500.1 783.0,500.2 848.0,500.2 913.0,501.3 978.0,501.3 1043.0,499.4 1108.0,499.4 1108.0,515.6 1043.0,515.6 978.0,515.6 913.0,515.6 848.0,515.6 783.0,515.6 718.0,515.6 653.0,515.5 588.0,515.5 523.0,515.6 458.0,515.5 393.0,515.5 328.0,515.5 263.0,515.5 198.0,515.5 133.0,515.5 68.0,515.5" fill="#41ab5d" fill-opacity="0.9" stroke="#fff" stroke-width="0.4"><title>codegen_dxil — SemanticChecking</title></polygon>
<polygon points="68.0,492.0 133.0,492.1 198.0,492.2 263.0,491.2 328.0,492.0 393.0,493.1 458.0,492.1 523.0,492.4 588.0,489.0 653.0,487.0 718.0,495.8 783.0,495.9 848.0,495.5 913.0,497.0 978.0,497.1 1043.0,495.1 1108.0,495.3 1108.0,499.4 1043.0,499.4 978.0,501.3 913.0,501.3 848.0,500.2 783.0,500.2 718.0,500.1 653.0,495.7 588.0,498.0 523.0,499.9 458.0,499.4 393.0,500.1 328.0,499.7 263.0,499.1 198.0,499.7 133.0,499.7 68.0,499.6" fill="#006d2c" fill-opacity="0.9" stroke="#fff" stroke-width="0.4"><title>codegen_dxil — generateIR</title></polygon>
<polygon points="68.0,491.9 133.0,492.1 198.0,492.2 263.0,491.0 328.0,491.9 393.0,493.0 458.0,492.1 523.0,492.2 588.0,488.9 653.0,486.4 718.0,495.6 783.0,495.7 848.0,495.3 913.0,496.9 978.0,497.0 1043.0,495.0 1108.0,495.2 1108.0,495.3 1043.0,495.1 978.0,497.1 913.0,497.0 848.0,495.5 783.0,495.9 718.0,495.8 653.0,487.0 588.0,489.0 523.0,492.4 458.0,492.1 393.0,493.1 328.0,492.0 263.0,491.2 198.0,492.2 133.0,492.1 68.0,492.0" fill="#74c476" fill-opacity="0.9" stroke="#fff" stroke-width="0.4"><title>codegen_dxil — frontEndExecute (self)</title></polygon>
<polygon points="68.0,481.0 133.0,481.3 198.0,481.2 263.0,479.8 328.0,480.8 393.0,482.3 458.0,481.3 523.0,480.1 588.0,477.0 653.0,472.7 718.0,489.3 783.0,489.4 848.0,489.0 913.0,491.3 978.0,491.3 1043.0,489.4 1108.0,489.5 1108.0,495.2 1043.0,495.0 978.0,497.0 913.0,496.9 848.0,495.3 783.0,495.7 718.0,495.6 653.0,486.4 588.0,488.9 523.0,492.2 458.0,492.1 393.0,493.0 328.0,491.9 263.0,491.0 198.0,492.2 133.0,492.1 68.0,491.9" fill="#6baed6" fill-opacity="0.9" stroke="#fff" stroke-width="0.4"><title>codegen_dxil — specializeModule</title></polygon>
<polygon points="68.0,451.6 133.0,452.0 198.0,450.1 263.0,448.7 328.0,451.0 393.0,452.8 458.0,452.2 523.0,449.5 588.0,446.1 653.0,441.4 718.0,484.1 783.0,484.3 848.0,483.6 913.0,486.1 978.0,485.9 1043.0,484.2 1108.0,484.2 1108.0,489.5 1043.0,489.4 978.0,491.3 913.0,491.3 848.0,489.0 783.0,489.4 718.0,489.3 653.0,472.7 588.0,477.0 523.0,480.1 458.0,481.3 393.0,482.3 328.0,480.8 263.0,479.8 198.0,481.2 133.0,481.3 68.0,481.0" fill="#2171b5" fill-opacity="0.9" stroke="#fff" stroke-width="0.4"><title>codegen_dxil — simplifyIR</title></polygon>
<polygon points="68.0,450.9 133.0,451.3 198.0,449.3 263.0,448.1 328.0,450.4 393.0,452.1 458.0,451.5 523.0,448.9 588.0,445.4 653.0,440.7 718.0,483.4 783.0,483.5 848.0,482.9 913.0,485.5 978.0,485.3 1043.0,483.5 1108.0,483.6 1108.0,484.2 1043.0,484.2 978.0,485.9 913.0,486.1 848.0,483.6 783.0,484.3 718.0,484.1 653.0,441.4 588.0,446.1 523.0,449.5 458.0,452.2 393.0,452.8 328.0,451.0 263.0,448.7 198.0,450.1 133.0,452.0 68.0,451.6" fill="#08306b" fill-opacity="0.9" stroke="#fff" stroke-width="0.4"><title>codegen_dxil — linkIR</title></polygon>
<polygon points="68.0,450.9 133.0,451.3 198.0,449.3 263.0,448.1 328.0,450.4 393.0,452.1 458.0,451.5 523.0,448.9 588.0,445.4 653.0,440.7 718.0,483.4 783.0,483.5 848.0,482.9 913.0,485.5 978.0,485.3 1043.0,483.5 1108.0,483.5 1108.0,483.6 1043.0,483.5 978.0,485.3 913.0,485.5 848.0,482.9 783.0,483.5 718.0,483.4 653.0,440.7 588.0,445.4 523.0,448.9 458.0,451.5 393.0,452.1 328.0,450.4 263.0,448.1 198.0,449.3 133.0,451.3 68.0,450.9" fill="#9e9ac8" fill-opacity="0.9" stroke="#fff" stroke-width="0.4"><title>codegen_dxil — unrollLoopsInModule</title></polygon>
<polygon points="68.0,382.9 133.0,384.0 198.0,380.2 263.0,380.5 328.0,383.7 393.0,387.4 458.0,383.6 523.0,382.2 588.0,373.9 653.0,372.7 718.0,454.8 783.0,455.0 848.0,454.2 913.0,455.8 978.0,455.7 1043.0,455.0 1108.0,455.0 1108.0,483.5 1043.0,483.5 978.0,485.3 913.0,485.5 848.0,482.9 783.0,483.5 718.0,483.4 653.0,440.7 588.0,445.4 523.0,448.9 458.0,451.5 393.0,452.1 328.0,450.4 263.0,448.1 198.0,449.3 133.0,451.3 68.0,450.9" fill="#807dba" fill-opacity="0.9" stroke="#fff" stroke-width="0.4"><title>codegen_dxil — legalizeResourceTypes</title></polygon>
<polygon points="68.0,315.3 133.0,316.1 198.0,312.0 263.0,312.5 328.0,316.1 393.0,320.0 458.0,315.0 523.0,312.7 588.0,303.8 653.0,303.8 718.0,425.4 783.0,425.8 848.0,425.4 913.0,425.9 978.0,426.2 1043.0,426.1 1108.0,426.0 1108.0,455.0 1043.0,455.0 978.0,455.7 913.0,455.8 848.0,454.2 783.0,455.0 718.0,454.8 653.0,372.7 588.0,373.9 523.0,382.2 458.0,383.6 393.0,387.4 328.0,383.7 263.0,380.5 198.0,380.2 133.0,384.0 68.0,382.9" fill="#6a51a3" fill-opacity="0.9" stroke="#fff" stroke-width="0.4"><title>codegen_dxil — legalizeExistentialTypeLayout</title></polygon>
<polygon points="68.0,315.1 133.0,316.0 198.0,311.9 263.0,312.4 328.0,316.0 393.0,319.9 458.0,314.8 523.0,312.5 588.0,303.6 653.0,303.6 718.0,425.2 783.0,425.6 848.0,425.2 913.0,425.7 978.0,426.0 1043.0,425.9 1108.0,425.8 1108.0,426.0 1043.0,426.1 978.0,426.2 913.0,425.9 848.0,425.4 783.0,425.8 718.0,425.4 653.0,303.8 588.0,303.8 523.0,312.7 458.0,315.0 393.0,320.0 328.0,316.1 263.0,312.5 198.0,312.0 133.0,316.1 68.0,315.3" fill="#bcbddc" fill-opacity="0.9" stroke="#fff" stroke-width="0.4"><title>codegen_dxil — performMandatoryEarlyInlining</title></polygon>
<polygon points="68.0,315.1 133.0,315.9 198.0,311.8 263.0,312.3 328.0,315.9 393.0,319.8 458.0,314.8 523.0,312.4 588.0,303.5 653.0,303.5 718.0,425.1 783.0,425.5 848.0,425.1 913.0,425.6 978.0,425.9 1043.0,425.8 1108.0,425.7 1108.0,425.8 1043.0,425.9 978.0,426.0 913.0,425.7 848.0,425.2 783.0,425.6 718.0,425.2 653.0,303.6 588.0,303.6 523.0,312.5 458.0,314.8 393.0,319.9 328.0,316.0 263.0,312.4 198.0,311.9 133.0,316.0 68.0,315.1" fill="#dadaeb" fill-opacity="0.9" stroke="#fff" stroke-width="0.4"><title>codegen_dxil — performForceInlining</title></polygon>
<polygon points="68.0,131.8 133.0,133.3 198.0,125.0 263.0,126.4 328.0,132.3 393.0,140.2 458.0,131.1 523.0,125.6 588.0,111.7 653.0,114.2 718.0,347.0 783.0,347.3 848.0,347.3 913.0,346.8 978.0,347.4 1043.0,349.3 1108.0,348.5 1108.0,425.7 1043.0,425.8 978.0,425.9 913.0,425.6 848.0,425.1 783.0,425.5 718.0,425.1 653.0,303.5 588.0,303.5 523.0,312.4 458.0,314.8 393.0,319.8 328.0,315.9 263.0,312.3 198.0,311.8 133.0,315.9 68.0,315.1" fill="#fd8d3c" fill-opacity="0.9" stroke="#fff" stroke-width="0.4"><title>codegen_dxil — emitEntryPointsSourceFromIR</title></polygon>
<polygon points="68.0,131.4 133.0,133.3 198.0,124.1 263.0,126.4 328.0,131.3 393.0,140.1 458.0,130.6 523.0,123.2 588.0,111.7 653.0,108.6 718.0,346.2 783.0,345.9 848.0,347.0 913.0,346.7 978.0,347.4 1043.0,348.9 1108.0,348.4 1108.0,348.5 1043.0,349.3 978.0,347.4 913.0,346.8 848.0,347.3 783.0,347.3 718.0,347.0 653.0,114.2 588.0,111.7 523.0,125.6 458.0,131.1 393.0,140.2 328.0,132.3 263.0,126.4 198.0,125.0 133.0,133.3 68.0,131.8" fill="#969696" fill-opacity="0.9" stroke="#fff" stroke-width="0.4"><title>codegen_dxil — compileInner (self)</title></polygon>
<text x="12" y="578" fill="#666" font-weight="600">phase buckets</text>
<rect x="12" y="586" width="12" height="12" fill="#c7e9c0"/>
<text x="28" y="596" fill="#222">parseTranslationUnit</text>
<rect x="289" y="586" width="12" height="12" fill="#41ab5d"/>
<text x="305" y="596" fill="#222">SemanticChecking</text>
<rect x="566" y="586" width="12" height="12" fill="#006d2c"/>
<text x="582" y="596" fill="#222">generateIR</text>
<rect x="843" y="586" width="12" height="12" fill="#74c476"/>
<text x="859" y="596" fill="#222">frontEndExecute (self)</text>
<rect x="12" y="604" width="12" height="12" fill="#6baed6"/>
<text x="28" y="614" fill="#222">specializeModule</text>
<rect x="289" y="604" width="12" height="12" fill="#2171b5"/>
<text x="305" y="614" fill="#222">simplifyIR</text>
<rect x="566" y="604" width="12" height="12" fill="#08306b"/>
<text x="582" y="614" fill="#222">linkIR</text>
<rect x="843" y="604" width="12" height="12" fill="#9e9ac8"/>
<text x="859" y="614" fill="#222">unrollLoopsInModule</text>
<rect x="12" y="622" width="12" height="12" fill="#807dba"/>
<text x="28" y="632" fill="#222">legalizeResourceTypes</text>
<rect x="289" y="622" width="12" height="12" fill="#6a51a3"/>
<text x="305" y="632" fill="#222">legalizeExistentialTypeLayout</text>
<rect x="566" y="622" width="12" height="12" fill="#bcbddc"/>
<text x="582" y="632" fill="#222">performMandatoryEarlyInlining</text>
<rect x="843" y="622" width="12" height="12" fill="#dadaeb"/>
<text x="859" y="632" fill="#222">performForceInlining</text>
<rect x="12" y="640" width="12" height="12" fill="#4a1486"/>
<text x="28" y="650" fill="#222">linkAndOptimizeIR (self)</text>
<rect x="289" y="640" width="12" height="12" fill="#fd8d3c"/>
<text x="305" y="650" fill="#222">emitEntryPointsSourceFromIR</text>
<rect x="566" y="640" width="12" height="12" fill="#e6550d"/>
<text x="582" y="650" fill="#222">generateOutput (self)</text>
<rect x="843" y="640" width="12" height="12" fill="#969696"/>
<text x="859" y="650" fill="#222">compileInner (self)</text>
</svg>