<svg xmlns="http://www.w3.org/2000/svg" xmlns:xlink="http://www.w3.org/1999/xlink" width="1132" height="680" viewBox="0 0 1132 680" preserveAspectRatio="xMidYMid meet" font-family="sans-serif" font-size="13">
<rect width="1132" height="680" fill="white"/>
<text x="12" y="30" font-size="20" font-weight="bold">codegen_spirv — Daily tip-of-tree (last 30 days) (median ms)</text>
<text x="68" y="60" font-size="15" font-weight="600" fill="#1a1a1a">codegen_spirv<tspan fill="#888" font-weight="400" text-decoration="none">  0.39×</tspan></text>
<line x1="68.0" y1="516.0" x2="1108.0" y2="516.0" stroke="#eee"/>
<text x="64.0" y="519.0" text-anchor="end" fill="#999">0.0</text>
<line x1="68.0" y1="296.0" x2="1108.0" y2="296.0" stroke="#eee"/>
<text x="64.0" y="299.0" text-anchor="end" fill="#999">527</text>
<line x1="68.0" y1="76.0" x2="1108.0" y2="76.0" stroke="#eee"/>
<text x="64.0" y="79.0" text-anchor="end" fill="#999">1053</text>
<line x1="68.0" y1="76.0" x2="68.0" y2="516.0" stroke="#333"/>
<line x1="68.0" y1="516.0" x2="1108.0" y2="516.0" stroke="#333"/>
<line x1="68.0" y1="516.0" x2="68.0" y2="519.0" stroke="#999"/>
<text x="68.0" y="531.0" text-anchor="end" fill="#e8731a" transform="rotate(-50 68.0 531.0)">06-25</text>
<line x1="142.3" y1="516.0" x2="142.3" y2="519.0" stroke="#999"/>
<text x="142.3" y="531.0" text-anchor="end" fill="#e8731a" transform="rotate(-50 142.3 531.0)">06-26</text>
<line x1="216.6" y1="516.0" x2="216.6" y2="519.0" stroke="#999"/>
<text x="216.6" y="531.0" text-anchor="end" fill="#e8731a" transform="rotate(-50 216.6 531.0)">06-28</text>
<line x1="290.9" y1="516.0" x2="290.9" y2="519.0" stroke="#999"/>
<text x="290.9" y="531.0" text-anchor="end" fill="#e8731a" transform="rotate(-50 290.9 531.0)">07-01</text>
<line x1="365.1" y1="516.0" x2="365.1" y2="519.0" stroke="#999"/>
<text x="365.1" y="531.0" text-anchor="end" fill="#e8731a" transform="rotate(-50 365.1 531.0)">07-02</text>
<line x1="439.4" y1="516.0" x2="439.4" y2="519.0" stroke="#999"/>
<text x="439.4" y="531.0" text-anchor="end" fill="#e8731a" transform="rotate(-50 439.4 531.0)">07-03</text>
<line x1="513.7" y1="516.0" x2="513.7" y2="519.0" stroke="#999"/>
<text x="513.7" y="531.0" text-anchor="end" fill="#e8731a" transform="rotate(-50 513.7 531.0)">07-06</text>
<line x1="588.0" y1="516.0" x2="588.0" y2="519.0" stroke="#999"/>
<text x="588.0" y="531.0" text-anchor="end" fill="#e8731a" transform="rotate(-50 588.0 531.0)">07-07</text>
<line x1="662.3" y1="516.0" x2="662.3" y2="519.0" stroke="#999"/>
<text x="662.3" y="531.0" text-anchor="end" fill="#e8731a" transform="rotate(-50 662.3 531.0)">07-08</text>
<line x1="736.6" y1="516.0" x2="736.6" y2="519.0" stroke="#999"/>
<text x="736.6" y="531.0" text-anchor="end" fill="#e8731a" transform="rotate(-50 736.6 531.0)">07-09</text>
<line x1="810.9" y1="516.0" x2="810.9" y2="519.0" stroke="#999"/>
<text x="810.9" y="531.0" text-anchor="end" fill="#e8731a" transform="rotate(-50 810.9 531.0)">07-10</text>
<line x1="885.1" y1="516.0" x2="885.1" y2="519.0" stroke="#999"/>
<text x="885.1" y="531.0" text-anchor="end" fill="#e8731a" transform="rotate(-50 885.1 531.0)">07-11</text>
<line x1="959.4" y1="516.0" x2="959.4" y2="519.0" stroke="#999"/>
<text x="959.4" y="531.0" text-anchor="end" fill="#e8731a" transform="rotate(-50 959.4 531.0)">07-13</text>
<line x1="1033.7" y1="516.0" x2="1033.7" y2="519.0" stroke="#999"/>
<text x="1033.7" y="531.0" text-anchor="end" fill="#e8731a" transform="rotate(-50 1033.7 531.0)">07-14</text>
<line x1="1108.0" y1="516.0" x2="1108.0" y2="519.0" stroke="#999"/>
<text x="1108.0" y="531.0" text-anchor="end" fill="#e8731a" transform="rotate(-50 1108.0 531.0)">07-15</text>
<polygon points="68.0,515.5 142.3,515.5 216.6,515.5 290.9,515.5 365.1,515.5 439.4,515.5 513.7,515.5 588.0,515.6 662.3,515.6 736.6,515.6 810.9,515.6 885.1,515.6 1033.7,515.6 1108.0,515.6 1108.0,516.0 1033.7,516.0 885.1,516.0 810.9,516.0 736.6,516.0 662.3,516.0 588.0,516.0 513.7,516.0 439.4,516.0 365.1,516.0 290.9,516.0 216.6,516.0 142.3,516.0 68.0,516.0" fill="#c7e9c0" fill-opacity="0.9" stroke="#fff" stroke-width="0.4"><title>codegen_spirv — parseTranslationUnit</title></polygon>
<polygon points="68.0,500.3 142.3,500.0 216.6,500.3 290.9,500.4 365.1,499.8 439.4,500.4 513.7,500.3 588.0,500.8 662.3,500.9 736.6,500.7 810.9,500.8 885.1,500.4 1033.7,500.5 1108.0,501.7 1108.0,515.6 1033.7,515.6 885.1,515.6 810.9,515.6 736.6,515.6 662.3,515.6 588.0,515.6 513.7,515.5 439.4,515.5 365.1,515.5 290.9,515.5 216.6,515.5 142.3,515.5 68.0,515.5" fill="#41ab5d" fill-opacity="0.9" stroke="#fff" stroke-width="0.4"><title>codegen_spirv — SemanticChecking</title></polygon>
<polygon points="68.0,493.2 142.3,493.1 216.6,492.7 290.9,493.3 365.1,492.8 439.4,493.5 513.7,493.3 588.0,493.9 662.3,493.9 736.6,493.7 810.9,496.5 885.1,496.2 1033.7,496.4 1108.0,497.6 1108.0,501.7 1033.7,500.5 885.1,500.4 810.9,500.8 736.6,500.7 662.3,500.9 588.0,500.8 513.7,500.3 439.4,500.4 365.1,499.8 290.9,500.4 216.6,500.3 142.3,500.0 68.0,500.3" fill="#006d2c" fill-opacity="0.9" stroke="#fff" stroke-width="0.4"><title>codegen_spirv — generateIR</title></polygon>
<polygon points="68.0,493.2 142.3,492.5 216.6,492.5 290.9,493.2 365.1,492.6 439.4,493.2 513.7,493.1 588.0,493.7 662.3,493.8 736.6,493.5 810.9,496.3 885.1,496.0 1033.7,496.3 1108.0,497.4 1108.0,497.6 1033.7,496.4 885.1,496.2 810.9,496.5 736.6,493.7 662.3,493.9 588.0,493.9 513.7,493.3 439.4,493.5 365.1,492.8 290.9,493.3 216.6,492.7 142.3,493.1 68.0,493.2" fill="#74c476" fill-opacity="0.9" stroke="#fff" stroke-width="0.4"><title>codegen_spirv — frontEndExecute (self)</title></polygon>
<polygon points="68.0,480.0 142.3,479.6 216.6,479.2 290.9,480.1 365.1,479.6 439.4,480.3 513.7,480.4 588.0,479.5 662.3,479.4 736.6,479.1 810.9,490.0 885.1,489.8 1033.7,490.0 1108.0,491.7 1108.0,497.4 1033.7,496.3 885.1,496.0 810.9,496.3 736.6,493.5 662.3,493.8 588.0,493.7 513.7,493.1 439.4,493.2 365.1,492.6 290.9,493.2 216.6,492.5 142.3,492.5 68.0,493.2" fill="#6baed6" fill-opacity="0.9" stroke="#fff" stroke-width="0.4"><title>codegen_spirv — specializeModule</title></polygon>
<polygon points="68.0,443.3 142.3,443.1 216.6,441.6 290.9,442.8 365.1,442.9 439.4,444.0 513.7,444.8 588.0,443.4 662.3,442.7 736.6,442.8 810.9,484.0 885.1,483.7 1033.7,484.0 1108.0,485.5 1108.0,491.7 1033.7,490.0 885.1,489.8 810.9,490.0 736.6,479.1 662.3,479.4 588.0,479.5 513.7,480.4 439.4,480.3 365.1,479.6 290.9,480.1 216.6,479.2 142.3,479.6 68.0,480.0" fill="#2171b5" fill-opacity="0.9" stroke="#fff" stroke-width="0.4"><title>codegen_spirv — simplifyIR</title></polygon>
<polygon points="68.0,442.4 142.3,442.3 216.6,440.8 290.9,442.1 365.1,442.1 439.4,443.2 513.7,444.0 588.0,442.7 662.3,442.0 736.6,442.2 810.9,483.3 885.1,483.0 1033.7,483.3 1108.0,484.9 1108.0,485.5 1033.7,484.0 885.1,483.7 810.9,484.0 736.6,442.8 662.3,442.7 588.0,443.4 513.7,444.8 439.4,444.0 365.1,442.9 290.9,442.8 216.6,441.6 142.3,443.1 68.0,443.3" fill="#08306b" fill-opacity="0.9" stroke="#fff" stroke-width="0.4"><title>codegen_spirv — linkIR</title></polygon>
<polygon points="68.0,442.4 142.3,442.3 216.6,440.8 290.9,442.0 365.1,442.1 439.4,443.2 513.7,444.0 588.0,442.7 662.3,442.0 736.6,442.2 810.9,483.3 885.1,483.0 1033.7,483.3 1108.0,484.9 1108.0,484.9 1033.7,483.3 885.1,483.0 810.9,483.3 736.6,442.2 662.3,442.0 588.0,442.7 513.7,444.0 439.4,443.2 365.1,442.1 290.9,442.1 216.6,440.8 142.3,442.3 68.0,442.4" fill="#9e9ac8" fill-opacity="0.9" stroke="#fff" stroke-width="0.4"><title>codegen_spirv — unrollLoopsInModule</title></polygon>
<polygon points="68.0,361.4 142.3,361.7 216.6,355.1 290.9,361.0 365.1,360.3 439.4,363.1 513.7,363.5 588.0,364.7 662.3,363.1 736.6,350.5 810.9,454.0 885.1,454.4 1033.7,455.0 1108.0,455.2 1108.0,484.9 1033.7,483.3 885.1,483.0 810.9,483.3 736.6,442.2 662.3,442.0 588.0,442.7 513.7,444.0 439.4,443.2 365.1,442.1 290.9,442.0 216.6,440.8 142.3,442.3 68.0,442.4" fill="#807dba" fill-opacity="0.9" stroke="#fff" stroke-width="0.4"><title>codegen_spirv — legalizeResourceTypes</title></polygon>
<polygon points="68.0,278.9 142.3,279.6 216.6,265.9 290.9,278.7 365.1,278.4 439.4,281.0 513.7,282.3 588.0,284.4 662.3,282.7 736.6,257.2 810.9,424.3 885.1,425.1 1033.7,426.2 1108.0,425.4 1108.0,455.2 1033.7,455.0 885.1,454.4 810.9,454.0 736.6,350.5 662.3,363.1 588.0,364.7 513.7,363.5 439.4,363.1 365.1,360.3 290.9,361.0 216.6,355.1 142.3,361.7 68.0,361.4" fill="#6a51a3" fill-opacity="0.9" stroke="#fff" stroke-width="0.4"><title>codegen_spirv — legalizeExistentialTypeLayout</title></polygon>
<polygon points="68.0,278.7 142.3,279.4 216.6,265.7 290.9,278.5 365.1,278.2 439.4,280.9 513.7,282.1 588.0,284.2 662.3,282.5 736.6,257.0 810.9,424.1 885.1,424.9 1033.7,425.9 1108.0,425.2 1108.0,425.4 1033.7,426.2 885.1,425.1 810.9,424.3 736.6,257.2 662.3,282.7 588.0,284.4 513.7,282.3 439.4,281.0 365.1,278.4 290.9,278.7 216.6,265.9 142.3,279.6 68.0,278.9" fill="#bcbddc" fill-opacity="0.9" stroke="#fff" stroke-width="0.4"><title>codegen_spirv — performMandatoryEarlyInlining</title></polygon>
<polygon points="68.0,278.4 142.3,279.2 216.6,265.5 290.9,278.3 365.1,278.0 439.4,280.6 513.7,281.9 588.0,284.0 662.3,282.3 736.6,256.7 810.9,423.8 885.1,424.6 1033.7,425.7 1108.0,425.0 1108.0,425.2 1033.7,425.9 885.1,424.9 810.9,424.1 736.6,257.0 662.3,282.5 588.0,284.2 513.7,282.1 439.4,280.9 365.1,278.2 290.9,278.5 216.6,265.7 142.3,279.4 68.0,278.7" fill="#dadaeb" fill-opacity="0.9" stroke="#fff" stroke-width="0.4"><title>codegen_spirv — performForceInlining</title></polygon>
<polygon points="68.0,224.7 142.3,225.8 216.6,210.7 290.9,223.8 365.1,223.7 439.4,226.3 513.7,228.3 588.0,230.7 662.3,228.9 736.6,201.3 810.9,375.6 885.1,377.1 1033.7,376.4 1108.0,376.7 1108.0,425.0 1033.7,425.7 885.1,424.6 810.9,423.8 736.6,256.7 662.3,282.3 588.0,284.0 513.7,281.9 439.4,280.6 365.1,278.0 290.9,278.3 216.6,265.5 142.3,279.2 68.0,278.4" fill="#4a1486" fill-opacity="0.9" stroke="#fff" stroke-width="0.4"><title>codegen_spirv — linkAndOptimizeIR (self)</title></polygon>
<polygon points="68.0,134.1 142.3,134.7 216.6,112.7 290.9,132.5 365.1,133.5 439.4,136.9 513.7,138.4 588.0,141.1 662.3,138.3 736.6,108.7 810.9,366.0 885.1,367.2 1033.7,366.4 1108.0,367.0 1108.0,376.7 1033.7,376.4 885.1,377.1 810.9,375.6 736.6,201.3 662.3,228.9 588.0,230.7 513.7,228.3 439.4,226.3 365.1,223.7 290.9,223.8 216.6,210.7 142.3,225.8 68.0,224.7" fill="#e6550d" fill-opacity="0.9" stroke="#fff" stroke-width="0.4"><title>codegen_spirv — generateOutput (self)</title></polygon>
<polygon points="68.0,133.7 142.3,134.4 216.6,112.6 290.9,132.2 365.1,133.3 439.4,136.6 513.7,138.4 588.0,140.9 662.3,138.1 736.6,108.6 810.9,366.0 885.1,366.6 1033.7,366.2 1108.0,367.0 1108.0,367.0 1033.7,366.4 885.1,367.2 810.9,366.0 736.6,108.7 662.3,138.3 588.0,141.1 513.7,138.4 439.4,136.9 365.1,133.5 290.9,132.5 216.6,112.7 142.3,134.7 68.0,134.1" fill="#969696" fill-opacity="0.9" stroke="#fff" stroke-width="0.4"><title>codegen_spirv — compileInner (self)</title></polygon>
<text x="12" y="578" fill="#666" font-weight="600">phase buckets</text>
<rect x="12" y="586" width="12" height="12" fill="#c7e9c0"/>
<text x="28" y="596" fill="#222">parseTranslationUnit</text>
<rect x="289" y="586" width="12" height="12" fill="#41ab5d"/>
<text x="305" y="596" fill="#222">SemanticChecking</text>
<rect x="566" y="586" width="12" height="12" fill="#006d2c"/>
<text x="582" y="596" fill="#222">generateIR</text>
<rect x="843" y="586" width="12" height="12" fill="#74c476"/>
<text x="859" y="596" fill="#222">frontEndExecute (self)</text>
<rect x="12" y="604" width="12" height="12" fill="#6baed6"/>
<text x="28" y="614" fill="#222">specializeModule</text>
<rect x="289" y="604" width="12" height="12" fill="#2171b5"/>
<text x="305" y="614" fill="#222">simplifyIR</text>
<rect x="566" y="604" width="12" height="12" fill="#08306b"/>
<text x="582" y="614" fill="#222">linkIR</text>
<rect x="843" y="604" width="12" height="12" fill="#9e9ac8"/>
<text x="859" y="614" fill="#222">unrollLoopsInModule</text>
<rect x="12" y="622" width="12" height="12" fill="#807dba"/>
<text x="28" y="632" fill="#222">legalizeResourceTypes</text>
<rect x="289" y="622" width="12" height="12" fill="#6a51a3"/>
<text x="305" y="632" fill="#222">legalizeExistentialTypeLayout</text>
<rect x="566" y="622" width="12" height="12" fill="#bcbddc"/>
<text x="582" y="632" fill="#222">performMandatoryEarlyInlining</text>
<rect x="843" y="622" width="12" height="12" fill="#dadaeb"/>
<text x="859" y="632" fill="#222">performForceInlining</text>
<rect x="12" y="640" width="12" height="12" fill="#4a1486"/>
<text x="28" y="650" fill="#222">linkAndOptimizeIR (self)</text>
<rect x="289" y="640" width="12" height="12" fill="#fd8d3c"/>
<text x="305" y="650" fill="#222">emitEntryPointsSourceFromIR</text>
<rect x="566" y="640" width="12" height="12" fill="#e6550d"/>
<text x="582" y="650" fill="#222">generateOutput (self)</text>
<rect x="843" y="640" width="12" height="12" fill="#969696"/>
<text x="859" y="650" fill="#222">compileInner (self)</text>
</svg>