<svg xmlns="http://www.w3.org/2000/svg" xmlns:xlink="http://www.w3.org/1999/xlink" width="1132" height="680" viewBox="0 0 1132 680" preserveAspectRatio="xMidYMid meet" font-family="sans-serif" font-size="13">
<rect width="1132" height="680" fill="white"/>
<text x="12" y="30" font-size="20" font-weight="bold">codegen_spirv — Daily tip-of-tree (last 30 days) (median ms)</text>
<text x="68" y="60" font-size="15" font-weight="600" fill="#1a1a1a">codegen_spirv<tspan fill="#888" font-weight="400" text-decoration="none">  0.36×</tspan></text>
<line x1="68.0" y1="516.0" x2="1108.0" y2="516.0" stroke="#eee"/>
<text x="64.0" y="519.0" text-anchor="end" fill="#999">0.0</text>
<line x1="68.0" y1="296.0" x2="1108.0" y2="296.0" stroke="#eee"/>
<text x="64.0" y="299.0" text-anchor="end" fill="#999">527</text>
<line x1="68.0" y1="76.0" x2="1108.0" y2="76.0" stroke="#eee"/>
<text x="64.0" y="79.0" text-anchor="end" fill="#999">1053</text>
<line x1="68.0" y1="76.0" x2="68.0" y2="516.0" stroke="#333"/>
<line x1="68.0" y1="516.0" x2="1108.0" y2="516.0" stroke="#333"/>
<line x1="68.0" y1="516.0" x2="68.0" y2="519.0" stroke="#999"/>
<text x="68.0" y="531.0" text-anchor="end" fill="#e8731a" transform="rotate(-50 68.0 531.0)">06-25</text>
<line x1="113.2" y1="516.0" x2="113.2" y2="519.0" stroke="#999"/>
<text x="113.2" y="531.0" text-anchor="end" fill="#e8731a" transform="rotate(-50 113.2 531.0)">06-26</text>
<line x1="158.4" y1="516.0" x2="158.4" y2="519.0" stroke="#999"/>
<text x="158.4" y="531.0" text-anchor="end" fill="#e8731a" transform="rotate(-50 158.4 531.0)">06-28</text>
<line x1="203.7" y1="516.0" x2="203.7" y2="519.0" stroke="#999"/>
<text x="203.7" y="531.0" text-anchor="end" fill="#e8731a" transform="rotate(-50 203.7 531.0)">07-01</text>
<line x1="248.9" y1="516.0" x2="248.9" y2="519.0" stroke="#999"/>
<text x="248.9" y="531.0" text-anchor="end" fill="#e8731a" transform="rotate(-50 248.9 531.0)">07-02</text>
<line x1="294.1" y1="516.0" x2="294.1" y2="519.0" stroke="#999"/>
<text x="294.1" y="531.0" text-anchor="end" fill="#e8731a" transform="rotate(-50 294.1 531.0)">07-03</text>
<line x1="339.3" y1="516.0" x2="339.3" y2="519.0" stroke="#999"/>
<text x="339.3" y="531.0" text-anchor="end" fill="#e8731a" transform="rotate(-50 339.3 531.0)">07-06</text>
<line x1="384.5" y1="516.0" x2="384.5" y2="519.0" stroke="#999"/>
<text x="384.5" y="531.0" text-anchor="end" fill="#e8731a" transform="rotate(-50 384.5 531.0)">07-07</text>
<line x1="429.7" y1="516.0" x2="429.7" y2="519.0" stroke="#999"/>
<text x="429.7" y="531.0" text-anchor="end" fill="#e8731a" transform="rotate(-50 429.7 531.0)">07-08</text>
<line x1="475.0" y1="516.0" x2="475.0" y2="519.0" stroke="#999"/>
<text x="475.0" y="531.0" text-anchor="end" fill="#e8731a" transform="rotate(-50 475.0 531.0)">07-09</text>
<line x1="520.2" y1="516.0" x2="520.2" y2="519.0" stroke="#999"/>
<text x="520.2" y="531.0" text-anchor="end" fill="#e8731a" transform="rotate(-50 520.2 531.0)">07-10</text>
<line x1="565.4" y1="516.0" x2="565.4" y2="519.0" stroke="#999"/>
<text x="565.4" y="531.0" text-anchor="end" fill="#e8731a" transform="rotate(-50 565.4 531.0)">07-11</text>
<line x1="610.6" y1="516.0" x2="610.6" y2="519.0" stroke="#999"/>
<text x="610.6" y="531.0" text-anchor="end" fill="#e8731a" transform="rotate(-50 610.6 531.0)">07-14</text>
<line x1="655.8" y1="516.0" x2="655.8" y2="519.0" stroke="#999"/>
<text x="655.8" y="531.0" text-anchor="end" fill="#e8731a" transform="rotate(-50 655.8 531.0)">07-15</text>
<line x1="701.0" y1="516.0" x2="701.0" y2="519.0" stroke="#999"/>
<text x="701.0" y="531.0" text-anchor="end" fill="#e8731a" transform="rotate(-50 701.0 531.0)">07-15</text>
<line x1="746.3" y1="516.0" x2="746.3" y2="519.0" stroke="#999"/>
<text x="746.3" y="531.0" text-anchor="end" fill="#e8731a" transform="rotate(-50 746.3 531.0)">07-16</text>
<line x1="791.5" y1="516.0" x2="791.5" y2="519.0" stroke="#999"/>
<text x="791.5" y="531.0" text-anchor="end" fill="#e8731a" transform="rotate(-50 791.5 531.0)">07-17</text>
<line x1="836.7" y1="516.0" x2="836.7" y2="519.0" stroke="#999"/>
<text x="836.7" y="531.0" text-anchor="end" fill="#e8731a" transform="rotate(-50 836.7 531.0)">07-18</text>
<line x1="881.9" y1="516.0" x2="881.9" y2="519.0" stroke="#999"/>
<text x="881.9" y="531.0" text-anchor="end" fill="#e8731a" transform="rotate(-50 881.9 531.0)">07-19</text>
<line x1="927.1" y1="516.0" x2="927.1" y2="519.0" stroke="#999"/>
<text x="927.1" y="531.0" text-anchor="end" fill="#e8731a" transform="rotate(-50 927.1 531.0)">07-20</text>
<line x1="972.3" y1="516.0" x2="972.3" y2="519.0" stroke="#999"/>
<text x="972.3" y="531.0" text-anchor="end" fill="#e8731a" transform="rotate(-50 972.3 531.0)">07-21</text>
<line x1="1017.6" y1="516.0" x2="1017.6" y2="519.0" stroke="#999"/>
<text x="1017.6" y="531.0" text-anchor="end" fill="#e8731a" transform="rotate(-50 1017.6 531.0)">07-22</text>
<line x1="1062.8" y1="516.0" x2="1062.8" y2="519.0" stroke="#999"/>
<text x="1062.8" y="531.0" text-anchor="end" fill="#e8731a" transform="rotate(-50 1062.8 531.0)">07-23</text>
<line x1="1108.0" y1="516.0" x2="1108.0" y2="519.0" stroke="#999"/>
<text x="1108.0" y="531.0" text-anchor="end" fill="#e8731a" transform="rotate(-50 1108.0 531.0)">07-24</text>
<polygon points="68.0,515.5 113.2,515.5 158.4,515.5 203.7,515.5 248.9,515.5 294.1,515.5 339.3,515.5 384.5,515.6 429.7,515.6 475.0,515.6 520.2,515.6 565.4,515.6 610.6,515.6 655.8,515.6 701.0,515.6 746.3,515.6 791.5,515.6 836.7,515.6 881.9,515.6 927.1,515.6 972.3,515.6 1017.6,515.6 1062.8,515.6 1108.0,515.6 1108.0,516.0 1062.8,516.0 1017.6,516.0 972.3,516.0 927.1,516.0 881.9,516.0 836.7,516.0 791.5,516.0 746.3,516.0 701.0,516.0 655.8,516.0 610.6,516.0 565.4,516.0 520.2,516.0 475.0,516.0 429.7,516.0 384.5,516.0 339.3,516.0 294.1,516.0 248.9,516.0 203.7,516.0 158.4,516.0 113.2,516.0 68.0,516.0" fill="#c7e9c0" fill-opacity="0.9" stroke="#fff" stroke-width="0.4"><title>codegen_spirv — parseTranslationUnit</title></polygon>
<polygon points="68.0,500.3 113.2,500.0 158.4,500.3 203.7,500.4 248.9,499.8 294.1,500.4 339.3,500.3 384.5,500.8 429.7,500.9 475.0,500.7 520.2,500.8 565.4,500.4 610.6,500.5 655.8,501.7 701.0,501.6 746.3,499.8 791.5,499.8 836.7,501.2 881.9,502.7 927.1,502.8 972.3,502.5 1017.6,502.5 1062.8,502.6 1108.0,502.8 1108.0,515.6 1062.8,515.6 1017.6,515.6 972.3,515.6 927.1,515.6 881.9,515.6 836.7,515.6 791.5,515.6 746.3,515.6 701.0,515.6 655.8,515.6 610.6,515.6 565.4,515.6 520.2,515.6 475.0,515.6 429.7,515.6 384.5,515.6 339.3,515.5 294.1,515.5 248.9,515.5 203.7,515.5 158.4,515.5 113.2,515.5 68.0,515.5" fill="#41ab5d" fill-opacity="0.9" stroke="#fff" stroke-width="0.4"><title>codegen_spirv — SemanticChecking</title></polygon>
<polygon points="68.0,493.2 113.2,493.1 158.4,492.7 203.7,493.3 248.9,492.8 294.1,493.5 339.3,493.3 384.5,493.9 429.7,493.9 475.0,493.7 520.2,496.5 565.4,496.2 610.6,496.4 655.8,497.6 701.0,497.4 746.3,495.8 791.5,495.9 836.7,497.4 881.9,499.2 927.1,499.4 972.3,499.0 1017.6,499.0 1062.8,499.0 1108.0,499.4 1108.0,502.8 1062.8,502.6 1017.6,502.5 972.3,502.5 927.1,502.8 881.9,502.7 836.7,501.2 791.5,499.8 746.3,499.8 701.0,501.6 655.8,501.7 610.6,500.5 565.4,500.4 520.2,500.8 475.0,500.7 429.7,500.9 384.5,500.8 339.3,500.3 294.1,500.4 248.9,499.8 203.7,500.4 158.4,500.3 113.2,500.0 68.0,500.3" fill="#006d2c" fill-opacity="0.9" stroke="#fff" stroke-width="0.4"><title>codegen_spirv — generateIR</title></polygon>
<polygon points="68.0,493.2 113.2,492.5 158.4,492.5 203.7,493.2 248.9,492.6 294.1,493.2 339.3,493.1 384.5,493.7 429.7,493.8 475.0,493.5 520.2,496.3 565.4,496.0 610.6,496.3 655.8,497.4 701.0,497.3 746.3,495.7 791.5,495.7 836.7,497.3 881.9,499.0 927.1,499.2 972.3,498.9 1017.6,498.7 1062.8,499.0 1108.0,499.3 1108.0,499.4 1062.8,499.0 1017.6,499.0 972.3,499.0 927.1,499.4 881.9,499.2 836.7,497.4 791.5,495.9 746.3,495.8 701.0,497.4 655.8,497.6 610.6,496.4 565.4,496.2 520.2,496.5 475.0,493.7 429.7,493.9 384.5,493.9 339.3,493.3 294.1,493.5 248.9,492.8 203.7,493.3 158.4,492.7 113.2,493.1 68.0,493.2" fill="#74c476" fill-opacity="0.9" stroke="#fff" stroke-width="0.4"><title>codegen_spirv — frontEndExecute (self)</title></polygon>
<polygon points="68.0,480.0 113.2,479.6 158.4,479.2 203.7,480.1 248.9,479.6 294.1,480.3 339.3,480.4 384.5,479.5 429.7,479.4 475.0,479.1 520.2,490.0 565.4,489.8 610.6,490.0 655.8,491.7 701.0,491.5 746.3,490.0 791.5,489.9 836.7,491.8 881.9,493.6 927.1,493.9 972.3,493.5 1017.6,493.3 1062.8,493.6 1108.0,493.9 1108.0,499.3 1062.8,499.0 1017.6,498.7 972.3,498.9 927.1,499.2 881.9,499.0 836.7,497.3 791.5,495.7 746.3,495.7 701.0,497.3 655.8,497.4 610.6,496.3 565.4,496.0 520.2,496.3 475.0,493.5 429.7,493.8 384.5,493.7 339.3,493.1 294.1,493.2 248.9,492.6 203.7,493.2 158.4,492.5 113.2,492.5 68.0,493.2" fill="#6baed6" fill-opacity="0.9" stroke="#fff" stroke-width="0.4"><title>codegen_spirv — specializeModule</title></polygon>
<polygon points="68.0,443.3 113.2,443.1 158.4,441.6 203.7,442.8 248.9,442.9 294.1,444.0 339.3,444.8 384.5,443.4 429.7,442.7 475.0,442.8 520.2,484.0 565.4,483.7 610.6,484.0 655.8,485.5 701.0,485.4 746.3,484.0 791.5,483.8 836.7,485.7 881.9,487.7 927.1,488.0 972.3,487.5 1017.6,487.4 1062.8,487.6 1108.0,487.9 1108.0,493.9 1062.8,493.6 1017.6,493.3 972.3,493.5 927.1,493.9 881.9,493.6 836.7,491.8 791.5,489.9 746.3,490.0 701.0,491.5 655.8,491.7 610.6,490.0 565.4,489.8 520.2,490.0 475.0,479.1 429.7,479.4 384.5,479.5 339.3,480.4 294.1,480.3 248.9,479.6 203.7,480.1 158.4,479.2 113.2,479.6 68.0,480.0" fill="#2171b5" fill-opacity="0.9" stroke="#fff" stroke-width="0.4"><title>codegen_spirv — simplifyIR</title></polygon>
<polygon points="68.0,442.4 113.2,442.3 158.4,440.8 203.7,442.1 248.9,442.1 294.1,443.2 339.3,444.0 384.5,442.7 429.7,442.0 475.0,442.2 520.2,483.3 565.4,483.0 610.6,483.3 655.8,484.9 701.0,484.7 746.3,483.4 791.5,483.2 836.7,485.2 881.9,487.2 927.1,487.5 972.3,487.0 1017.6,486.9 1062.8,487.1 1108.0,487.4 1108.0,487.9 1062.8,487.6 1017.6,487.4 972.3,487.5 927.1,488.0 881.9,487.7 836.7,485.7 791.5,483.8 746.3,484.0 701.0,485.4 655.8,485.5 610.6,484.0 565.4,483.7 520.2,484.0 475.0,442.8 429.7,442.7 384.5,443.4 339.3,444.8 294.1,444.0 248.9,442.9 203.7,442.8 158.4,441.6 113.2,443.1 68.0,443.3" fill="#08306b" fill-opacity="0.9" stroke="#fff" stroke-width="0.4"><title>codegen_spirv — linkIR</title></polygon>
<polygon points="68.0,442.4 113.2,442.3 158.4,440.8 203.7,442.0 248.9,442.1 294.1,443.2 339.3,444.0 384.5,442.7 429.7,442.0 475.0,442.2 520.2,483.3 565.4,483.0 610.6,483.3 655.8,484.9 701.0,484.7 746.3,483.4 791.5,483.2 836.7,485.1 881.9,487.2 927.1,487.5 972.3,487.0 1017.6,486.9 1062.8,487.1 1108.0,487.4 1108.0,487.4 1062.8,487.1 1017.6,486.9 972.3,487.0 927.1,487.5 881.9,487.2 836.7,485.2 791.5,483.2 746.3,483.4 701.0,484.7 655.8,484.9 610.6,483.3 565.4,483.0 520.2,483.3 475.0,442.2 429.7,442.0 384.5,442.7 339.3,444.0 294.1,443.2 248.9,442.1 203.7,442.1 158.4,440.8 113.2,442.3 68.0,442.4" fill="#9e9ac8" fill-opacity="0.9" stroke="#fff" stroke-width="0.4"><title>codegen_spirv — unrollLoopsInModule</title></polygon>
<polygon points="68.0,361.4 113.2,361.7 158.4,355.1 203.7,361.0 248.9,360.3 294.1,363.1 339.3,363.5 384.5,364.7 429.7,363.1 475.0,350.5 520.2,454.0 565.4,454.4 610.6,455.0 655.8,455.2 701.0,454.4 746.3,454.3 791.5,454.5 836.7,457.9 881.9,460.4 927.1,461.4 972.3,460.2 1017.6,460.2 1062.8,459.9 1108.0,460.4 1108.0,487.4 1062.8,487.1 1017.6,486.9 972.3,487.0 927.1,487.5 881.9,487.2 836.7,485.1 791.5,483.2 746.3,483.4 701.0,484.7 655.8,484.9 610.6,483.3 565.4,483.0 520.2,483.3 475.0,442.2 429.7,442.0 384.5,442.7 339.3,444.0 294.1,443.2 248.9,442.1 203.7,442.0 158.4,440.8 113.2,442.3 68.0,442.4" fill="#807dba" fill-opacity="0.9" stroke="#fff" stroke-width="0.4"><title>codegen_spirv — legalizeResourceTypes</title></polygon>
<polygon points="68.0,278.9 113.2,279.6 158.4,265.9 203.7,278.7 248.9,278.4 294.1,281.0 339.3,282.3 384.5,284.4 429.7,282.7 475.0,257.2 520.2,424.3 565.4,425.1 610.6,426.2 655.8,425.4 701.0,424.2 746.3,424.8 791.5,425.7 836.7,430.0 881.9,432.7 927.1,435.0 972.3,433.4 1017.6,433.3 1062.8,432.3 1108.0,433.0 1108.0,460.4 1062.8,459.9 1017.6,460.2 972.3,460.2 927.1,461.4 881.9,460.4 836.7,457.9 791.5,454.5 746.3,454.3 701.0,454.4 655.8,455.2 610.6,455.0 565.4,454.4 520.2,454.0 475.0,350.5 429.7,363.1 384.5,364.7 339.3,363.5 294.1,363.1 248.9,360.3 203.7,361.0 158.4,355.1 113.2,361.7 68.0,361.4" fill="#6a51a3" fill-opacity="0.9" stroke="#fff" stroke-width="0.4"><title>codegen_spirv — legalizeExistentialTypeLayout</title></polygon>
<polygon points="68.0,278.7 113.2,279.4 158.4,265.7 203.7,278.5 248.9,278.2 294.1,280.9 339.3,282.1 384.5,284.2 429.7,282.5 475.0,257.0 520.2,424.1 565.4,424.9 610.6,425.9 655.8,425.2 701.0,423.9 746.3,424.5 791.5,425.5 836.7,429.8 881.9,432.5 927.1,434.8 972.3,433.1 1017.6,433.1 1062.8,432.1 1108.0,432.8 1108.0,433.0 1062.8,432.3 1017.6,433.3 972.3,433.4 927.1,435.0 881.9,432.7 836.7,430.0 791.5,425.7 746.3,424.8 701.0,424.2 655.8,425.4 610.6,426.2 565.4,425.1 520.2,424.3 475.0,257.2 429.7,282.7 384.5,284.4 339.3,282.3 294.1,281.0 248.9,278.4 203.7,278.7 158.4,265.9 113.2,279.6 68.0,278.9" fill="#bcbddc" fill-opacity="0.9" stroke="#fff" stroke-width="0.4"><title>codegen_spirv — performMandatoryEarlyInlining</title></polygon>
<polygon points="68.0,278.4 113.2,279.2 158.4,265.5 203.7,278.3 248.9,278.0 294.1,280.6 339.3,281.9 384.5,284.0 429.7,282.3 475.0,256.7 520.2,423.8 565.4,424.6 610.6,425.7 655.8,425.0 701.0,423.7 746.3,424.3 791.5,425.2 836.7,429.6 881.9,432.3 927.1,434.6 972.3,432.9 1017.6,432.8 1062.8,431.8 1108.0,432.6 1108.0,432.8 1062.8,432.1 1017.6,433.1 972.3,433.1 927.1,434.8 881.9,432.5 836.7,429.8 791.5,425.5 746.3,424.5 701.0,423.9 655.8,425.2 610.6,425.9 565.4,424.9 520.2,424.1 475.0,257.0 429.7,282.5 384.5,284.2 339.3,282.1 294.1,280.9 248.9,278.2 203.7,278.5 158.4,265.7 113.2,279.4 68.0,278.7" fill="#dadaeb" fill-opacity="0.9" stroke="#fff" stroke-width="0.4"><title>codegen_spirv — performForceInlining</title></polygon>
<polygon points="68.0,224.7 113.2,225.8 158.4,210.7 203.7,223.8 248.9,223.7 294.1,226.3 339.3,228.3 384.5,230.7 429.7,228.9 475.0,201.3 520.2,375.6 565.4,377.1 610.6,376.4 655.8,376.7 701.0,375.7 746.3,374.7 791.5,375.1 836.7,383.0 881.9,384.4 927.1,389.5 972.3,386.1 1017.6,387.0 1062.8,386.0 1108.0,387.6 1108.0,432.6 1062.8,431.8 1017.6,432.8 972.3,432.9 927.1,434.6 881.9,432.3 836.7,429.6 791.5,425.2 746.3,424.3 701.0,423.7 655.8,425.0 610.6,425.7 565.4,424.6 520.2,423.8 475.0,256.7 429.7,282.3 384.5,284.0 339.3,281.9 294.1,280.6 248.9,278.0 203.7,278.3 158.4,265.5 113.2,279.2 68.0,278.4" fill="#4a1486" fill-opacity="0.9" stroke="#fff" stroke-width="0.4"><title>codegen_spirv — linkAndOptimizeIR (self)</title></polygon>
<polygon points="68.0,134.1 113.2,134.7 158.4,112.7 203.7,132.5 248.9,133.5 294.1,136.9 339.3,138.4 384.5,141.1 429.7,138.3 475.0,108.7 520.2,366.0 565.4,367.2 610.6,366.4 655.8,367.0 701.0,366.2 746.3,363.9 791.5,364.9 836.7,374.9 881.9,375.0 927.1,380.4 972.3,376.7 1017.6,377.7 1062.8,376.4 1108.0,378.0 1108.0,387.6 1062.8,386.0 1017.6,387.0 972.3,386.1 927.1,389.5 881.9,384.4 836.7,383.0 791.5,375.1 746.3,374.7 701.0,375.7 655.8,376.7 610.6,376.4 565.4,377.1 520.2,375.6 475.0,201.3 429.7,228.9 384.5,230.7 339.3,228.3 294.1,226.3 248.9,223.7 203.7,223.8 158.4,210.7 113.2,225.8 68.0,224.7" fill="#e6550d" fill-opacity="0.9" stroke="#fff" stroke-width="0.4"><title>codegen_spirv — generateOutput (self)</title></polygon>
<polygon points="68.0,133.7 113.2,134.4 158.4,112.6 203.7,132.2 248.9,133.3 294.1,136.6 339.3,138.4 384.5,140.9 429.7,138.1 475.0,108.6 520.2,366.0 565.4,366.6 610.6,366.2 655.8,367.0 701.0,366.0 746.3,363.9 791.5,364.9 836.7,374.9 881.9,375.0 927.1,380.2 972.3,376.3 1017.6,377.6 1062.8,375.7 1108.0,378.0 1108.0,378.0 1062.8,376.4 1017.6,377.7 972.3,376.7 927.1,380.4 881.9,375.0 836.7,374.9 791.5,364.9 746.3,363.9 701.0,366.2 655.8,367.0 610.6,366.4 565.4,367.2 520.2,366.0 475.0,108.7 429.7,138.3 384.5,141.1 339.3,138.4 294.1,136.9 248.9,133.5 203.7,132.5 158.4,112.7 113.2,134.7 68.0,134.1" fill="#969696" fill-opacity="0.9" stroke="#fff" stroke-width="0.4"><title>codegen_spirv — compileInner (self)</title></polygon>
<text x="12" y="578" fill="#666" font-weight="600">phase buckets</text>
<rect x="12" y="586" width="12" height="12" fill="#c7e9c0"/>
<text x="28" y="596" fill="#222">parseTranslationUnit</text>
<rect x="289" y="586" width="12" height="12" fill="#41ab5d"/>
<text x="305" y="596" fill="#222">SemanticChecking</text>
<rect x="566" y="586" width="12" height="12" fill="#006d2c"/>
<text x="582" y="596" fill="#222">generateIR</text>
<rect x="843" y="586" width="12" height="12" fill="#74c476"/>
<text x="859" y="596" fill="#222">frontEndExecute (self)</text>
<rect x="12" y="604" width="12" height="12" fill="#6baed6"/>
<text x="28" y="614" fill="#222">specializeModule</text>
<rect x="289" y="604" width="12" height="12" fill="#2171b5"/>
<text x="305" y="614" fill="#222">simplifyIR</text>
<rect x="566" y="604" width="12" height="12" fill="#08306b"/>
<text x="582" y="614" fill="#222">linkIR</text>
<rect x="843" y="604" width="12" height="12" fill="#9e9ac8"/>
<text x="859" y="614" fill="#222">unrollLoopsInModule</text>
<rect x="12" y="622" width="12" height="12" fill="#807dba"/>
<text x="28" y="632" fill="#222">legalizeResourceTypes</text>
<rect x="289" y="622" width="12" height="12" fill="#6a51a3"/>
<text x="305" y="632" fill="#222">legalizeExistentialTypeLayout</text>
<rect x="566" y="622" width="12" height="12" fill="#bcbddc"/>
<text x="582" y="632" fill="#222">performMandatoryEarlyInlining</text>
<rect x="843" y="622" width="12" height="12" fill="#dadaeb"/>
<text x="859" y="632" fill="#222">performForceInlining</text>
<rect x="12" y="640" width="12" height="12" fill="#4a1486"/>
<text x="28" y="650" fill="#222">linkAndOptimizeIR (self)</text>
<rect x="289" y="640" width="12" height="12" fill="#fd8d3c"/>
<text x="305" y="650" fill="#222">emitEntryPointsSourceFromIR</text>
<rect x="566" y="640" width="12" height="12" fill="#e6550d"/>
<text x="582" y="650" fill="#222">generateOutput (self)</text>
<rect x="843" y="640" width="12" height="12" fill="#969696"/>
<text x="859" y="650" fill="#222">compileInner (self)</text>
</svg>