<svg xmlns="http://www.w3.org/2000/svg" xmlns:xlink="http://www.w3.org/1999/xlink" width="1132" height="680" viewBox="0 0 1132 680" preserveAspectRatio="xMidYMid meet" font-family="sans-serif" font-size="13">
<rect width="1132" height="680" fill="white"/>
<text x="12" y="30" font-size="20" font-weight="bold">codegen_dxil — Daily tip-of-tree (last 30 days) (median ms)</text>
<text x="68" y="60" font-size="15" font-weight="600" fill="#1a1a1a">codegen_dxil<tspan fill="#888" font-weight="400" text-decoration="none">  0.43×</tspan></text>
<line x1="68.0" y1="516.0" x2="1108.0" y2="516.0" stroke="#eee"/>
<text x="64.0" y="519.0" text-anchor="end" fill="#999">0.0</text>
<line x1="68.0" y1="296.0" x2="1108.0" y2="296.0" stroke="#eee"/>
<text x="64.0" y="299.0" text-anchor="end" fill="#999">515</text>
<line x1="68.0" y1="76.0" x2="1108.0" y2="76.0" stroke="#eee"/>
<text x="64.0" y="79.0" text-anchor="end" fill="#999">1031</text>
<line x1="68.0" y1="76.0" x2="68.0" y2="516.0" stroke="#333"/>
<line x1="68.0" y1="516.0" x2="1108.0" y2="516.0" stroke="#333"/>
<line x1="68.0" y1="516.0" x2="68.0" y2="519.0" stroke="#999"/>
<text x="68.0" y="531.0" text-anchor="end" fill="#e8731a" transform="rotate(-50 68.0 531.0)">06-25</text>
<line x1="137.3" y1="516.0" x2="137.3" y2="519.0" stroke="#999"/>
<text x="137.3" y="531.0" text-anchor="end" fill="#e8731a" transform="rotate(-50 137.3 531.0)">06-26</text>
<line x1="206.7" y1="516.0" x2="206.7" y2="519.0" stroke="#999"/>
<text x="206.7" y="531.0" text-anchor="end" fill="#e8731a" transform="rotate(-50 206.7 531.0)">06-28</text>
<line x1="276.0" y1="516.0" x2="276.0" y2="519.0" stroke="#999"/>
<text x="276.0" y="531.0" text-anchor="end" fill="#e8731a" transform="rotate(-50 276.0 531.0)">07-01</text>
<line x1="345.3" y1="516.0" x2="345.3" y2="519.0" stroke="#999"/>
<text x="345.3" y="531.0" text-anchor="end" fill="#e8731a" transform="rotate(-50 345.3 531.0)">07-02</text>
<line x1="414.7" y1="516.0" x2="414.7" y2="519.0" stroke="#999"/>
<text x="414.7" y="531.0" text-anchor="end" fill="#e8731a" transform="rotate(-50 414.7 531.0)">07-03</text>
<line x1="484.0" y1="516.0" x2="484.0" y2="519.0" stroke="#999"/>
<text x="484.0" y="531.0" text-anchor="end" fill="#e8731a" transform="rotate(-50 484.0 531.0)">07-06</text>
<line x1="553.3" y1="516.0" x2="553.3" y2="519.0" stroke="#999"/>
<text x="553.3" y="531.0" text-anchor="end" fill="#e8731a" transform="rotate(-50 553.3 531.0)">07-07</text>
<line x1="622.7" y1="516.0" x2="622.7" y2="519.0" stroke="#999"/>
<text x="622.7" y="531.0" text-anchor="end" fill="#e8731a" transform="rotate(-50 622.7 531.0)">07-08</text>
<line x1="692.0" y1="516.0" x2="692.0" y2="519.0" stroke="#999"/>
<text x="692.0" y="531.0" text-anchor="end" fill="#e8731a" transform="rotate(-50 692.0 531.0)">07-09</text>
<line x1="761.3" y1="516.0" x2="761.3" y2="519.0" stroke="#999"/>
<text x="761.3" y="531.0" text-anchor="end" fill="#e8731a" transform="rotate(-50 761.3 531.0)">07-10</text>
<line x1="830.7" y1="516.0" x2="830.7" y2="519.0" stroke="#999"/>
<text x="830.7" y="531.0" text-anchor="end" fill="#e8731a" transform="rotate(-50 830.7 531.0)">07-11</text>
<line x1="900.0" y1="516.0" x2="900.0" y2="519.0" stroke="#999"/>
<text x="900.0" y="531.0" text-anchor="end" fill="#e8731a" transform="rotate(-50 900.0 531.0)">07-14</text>
<line x1="969.3" y1="516.0" x2="969.3" y2="519.0" stroke="#999"/>
<text x="969.3" y="531.0" text-anchor="end" fill="#e8731a" transform="rotate(-50 969.3 531.0)">07-15</text>
<line x1="1038.7" y1="516.0" x2="1038.7" y2="519.0" stroke="#999"/>
<text x="1038.7" y="531.0" text-anchor="end" fill="#e8731a" transform="rotate(-50 1038.7 531.0)">07-15</text>
<line x1="1108.0" y1="516.0" x2="1108.0" y2="519.0" stroke="#999"/>
<text x="1108.0" y="531.0" text-anchor="end" fill="#e8731a" transform="rotate(-50 1108.0 531.0)">07-16</text>
<polygon points="68.0,515.5 137.3,515.5 206.7,515.5 276.0,515.5 345.3,515.5 414.7,515.5 484.0,515.5 553.3,515.6 622.7,515.5 692.0,515.5 761.3,515.6 830.7,515.6 900.0,515.6 969.3,515.6 1038.7,515.6 1108.0,515.6 1108.0,516.0 1038.7,516.0 969.3,516.0 900.0,516.0 830.7,516.0 761.3,516.0 692.0,516.0 622.7,516.0 553.3,516.0 484.0,516.0 414.7,516.0 345.3,516.0 276.0,516.0 206.7,516.0 137.3,516.0 68.0,516.0" fill="#c7e9c0" fill-opacity="0.9" stroke="#fff" stroke-width="0.4"><title>codegen_dxil — parseTranslationUnit</title></polygon>
<polygon points="68.0,499.6 137.3,499.7 206.7,499.7 276.0,499.1 345.3,499.7 414.7,500.1 484.0,499.4 553.3,499.9 622.7,498.0 692.0,495.7 761.3,500.1 830.7,500.2 900.0,500.2 969.3,501.3 1038.7,501.3 1108.0,499.4 1108.0,515.6 1038.7,515.6 969.3,515.6 900.0,515.6 830.7,515.6 761.3,515.6 692.0,515.5 622.7,515.5 553.3,515.6 484.0,515.5 414.7,515.5 345.3,515.5 276.0,515.5 206.7,515.5 137.3,515.5 68.0,515.5" fill="#41ab5d" fill-opacity="0.9" stroke="#fff" stroke-width="0.4"><title>codegen_dxil — SemanticChecking</title></polygon>
<polygon points="68.0,492.0 137.3,492.1 206.7,492.2 276.0,491.2 345.3,492.0 414.7,493.1 484.0,492.1 553.3,492.4 622.7,489.0 692.0,487.0 761.3,495.8 830.7,495.9 900.0,495.5 969.3,497.0 1038.7,497.1 1108.0,495.1 1108.0,499.4 1038.7,501.3 969.3,501.3 900.0,500.2 830.7,500.2 761.3,500.1 692.0,495.7 622.7,498.0 553.3,499.9 484.0,499.4 414.7,500.1 345.3,499.7 276.0,499.1 206.7,499.7 137.3,499.7 68.0,499.6" fill="#006d2c" fill-opacity="0.9" stroke="#fff" stroke-width="0.4"><title>codegen_dxil — generateIR</title></polygon>
<polygon points="68.0,491.9 137.3,492.1 206.7,492.2 276.0,491.0 345.3,491.9 414.7,493.0 484.0,492.1 553.3,492.2 622.7,488.9 692.0,486.4 761.3,495.6 830.7,495.7 900.0,495.3 969.3,496.9 1038.7,497.0 1108.0,495.0 1108.0,495.1 1038.7,497.1 969.3,497.0 900.0,495.5 830.7,495.9 761.3,495.8 692.0,487.0 622.7,489.0 553.3,492.4 484.0,492.1 414.7,493.1 345.3,492.0 276.0,491.2 206.7,492.2 137.3,492.1 68.0,492.0" fill="#74c476" fill-opacity="0.9" stroke="#fff" stroke-width="0.4"><title>codegen_dxil — frontEndExecute (self)</title></polygon>
<polygon points="68.0,481.0 137.3,481.3 206.7,481.2 276.0,479.8 345.3,480.8 414.7,482.3 484.0,481.3 553.3,480.1 622.7,477.0 692.0,472.7 761.3,489.3 830.7,489.4 900.0,489.0 969.3,491.3 1038.7,491.3 1108.0,489.4 1108.0,495.0 1038.7,497.0 969.3,496.9 900.0,495.3 830.7,495.7 761.3,495.6 692.0,486.4 622.7,488.9 553.3,492.2 484.0,492.1 414.7,493.0 345.3,491.9 276.0,491.0 206.7,492.2 137.3,492.1 68.0,491.9" fill="#6baed6" fill-opacity="0.9" stroke="#fff" stroke-width="0.4"><title>codegen_dxil — specializeModule</title></polygon>
<polygon points="68.0,451.6 137.3,452.0 206.7,450.1 276.0,448.7 345.3,451.0 414.7,452.8 484.0,452.2 553.3,449.5 622.7,446.1 692.0,441.4 761.3,484.1 830.7,484.3 900.0,483.6 969.3,486.1 1038.7,485.9 1108.0,484.2 1108.0,489.4 1038.7,491.3 969.3,491.3 900.0,489.0 830.7,489.4 761.3,489.3 692.0,472.7 622.7,477.0 553.3,480.1 484.0,481.3 414.7,482.3 345.3,480.8 276.0,479.8 206.7,481.2 137.3,481.3 68.0,481.0" fill="#2171b5" fill-opacity="0.9" stroke="#fff" stroke-width="0.4"><title>codegen_dxil — simplifyIR</title></polygon>
<polygon points="68.0,450.9 137.3,451.3 206.7,449.3 276.0,448.1 345.3,450.4 414.7,452.1 484.0,451.5 553.3,448.9 622.7,445.4 692.0,440.7 761.3,483.4 830.7,483.5 900.0,482.9 969.3,485.5 1038.7,485.3 1108.0,483.5 1108.0,484.2 1038.7,485.9 969.3,486.1 900.0,483.6 830.7,484.3 761.3,484.1 692.0,441.4 622.7,446.1 553.3,449.5 484.0,452.2 414.7,452.8 345.3,451.0 276.0,448.7 206.7,450.1 137.3,452.0 68.0,451.6" fill="#08306b" fill-opacity="0.9" stroke="#fff" stroke-width="0.4"><title>codegen_dxil — linkIR</title></polygon>
<polygon points="68.0,450.9 137.3,451.3 206.7,449.3 276.0,448.1 345.3,450.4 414.7,452.1 484.0,451.5 553.3,448.9 622.7,445.4 692.0,440.7 761.3,483.4 830.7,483.5 900.0,482.9 969.3,485.5 1038.7,485.3 1108.0,483.5 1108.0,483.5 1038.7,485.3 969.3,485.5 900.0,482.9 830.7,483.5 761.3,483.4 692.0,440.7 622.7,445.4 553.3,448.9 484.0,451.5 414.7,452.1 345.3,450.4 276.0,448.1 206.7,449.3 137.3,451.3 68.0,450.9" fill="#9e9ac8" fill-opacity="0.9" stroke="#fff" stroke-width="0.4"><title>codegen_dxil — unrollLoopsInModule</title></polygon>
<polygon points="68.0,382.9 137.3,384.0 206.7,380.2 276.0,380.5 345.3,383.7 414.7,387.4 484.0,383.6 553.3,382.2 622.7,373.9 692.0,372.7 761.3,454.8 830.7,455.0 900.0,454.2 969.3,455.8 1038.7,455.7 1108.0,455.0 1108.0,483.5 1038.7,485.3 969.3,485.5 900.0,482.9 830.7,483.5 761.3,483.4 692.0,440.7 622.7,445.4 553.3,448.9 484.0,451.5 414.7,452.1 345.3,450.4 276.0,448.1 206.7,449.3 137.3,451.3 68.0,450.9" fill="#807dba" fill-opacity="0.9" stroke="#fff" stroke-width="0.4"><title>codegen_dxil — legalizeResourceTypes</title></polygon>
<polygon points="68.0,315.3 137.3,316.1 206.7,312.0 276.0,312.5 345.3,316.1 414.7,320.0 484.0,315.0 553.3,312.7 622.7,303.8 692.0,303.8 761.3,425.4 830.7,425.8 900.0,425.4 969.3,425.9 1038.7,426.2 1108.0,426.1 1108.0,455.0 1038.7,455.7 969.3,455.8 900.0,454.2 830.7,455.0 761.3,454.8 692.0,372.7 622.7,373.9 553.3,382.2 484.0,383.6 414.7,387.4 345.3,383.7 276.0,380.5 206.7,380.2 137.3,384.0 68.0,382.9" fill="#6a51a3" fill-opacity="0.9" stroke="#fff" stroke-width="0.4"><title>codegen_dxil — legalizeExistentialTypeLayout</title></polygon>
<polygon points="68.0,315.1 137.3,316.0 206.7,311.9 276.0,312.4 345.3,316.0 414.7,319.9 484.0,314.8 553.3,312.5 622.7,303.6 692.0,303.6 761.3,425.2 830.7,425.6 900.0,425.2 969.3,425.7 1038.7,426.0 1108.0,425.9 1108.0,426.1 1038.7,426.2 969.3,425.9 900.0,425.4 830.7,425.8 761.3,425.4 692.0,303.8 622.7,303.8 553.3,312.7 484.0,315.0 414.7,320.0 345.3,316.1 276.0,312.5 206.7,312.0 137.3,316.1 68.0,315.3" fill="#bcbddc" fill-opacity="0.9" stroke="#fff" stroke-width="0.4"><title>codegen_dxil — performMandatoryEarlyInlining</title></polygon>
<polygon points="68.0,315.1 137.3,315.9 206.7,311.8 276.0,312.3 345.3,315.9 414.7,319.8 484.0,314.8 553.3,312.4 622.7,303.5 692.0,303.5 761.3,425.1 830.7,425.5 900.0,425.1 969.3,425.6 1038.7,425.9 1108.0,425.8 1108.0,425.9 1038.7,426.0 969.3,425.7 900.0,425.2 830.7,425.6 761.3,425.2 692.0,303.6 622.7,303.6 553.3,312.5 484.0,314.8 414.7,319.9 345.3,316.0 276.0,312.4 206.7,311.9 137.3,316.0 68.0,315.1" fill="#dadaeb" fill-opacity="0.9" stroke="#fff" stroke-width="0.4"><title>codegen_dxil — performForceInlining</title></polygon>
<polygon points="68.0,131.8 137.3,133.3 206.7,125.0 276.0,126.4 345.3,132.3 414.7,140.2 484.0,131.1 553.3,125.6 622.7,111.7 692.0,114.2 761.3,347.0 830.7,347.3 900.0,347.3 969.3,346.8 1038.7,347.4 1108.0,349.3 1108.0,425.8 1038.7,425.9 969.3,425.6 900.0,425.1 830.7,425.5 761.3,425.1 692.0,303.5 622.7,303.5 553.3,312.4 484.0,314.8 414.7,319.8 345.3,315.9 276.0,312.3 206.7,311.8 137.3,315.9 68.0,315.1" fill="#fd8d3c" fill-opacity="0.9" stroke="#fff" stroke-width="0.4"><title>codegen_dxil — emitEntryPointsSourceFromIR</title></polygon>
<polygon points="68.0,131.4 137.3,133.3 206.7,124.1 276.0,126.4 345.3,131.3 414.7,140.1 484.0,130.6 553.3,123.2 622.7,111.7 692.0,108.6 761.3,346.2 830.7,345.9 900.0,347.0 969.3,346.7 1038.7,347.4 1108.0,348.9 1108.0,349.3 1038.7,347.4 969.3,346.8 900.0,347.3 830.7,347.3 761.3,347.0 692.0,114.2 622.7,111.7 553.3,125.6 484.0,131.1 414.7,140.2 345.3,132.3 276.0,126.4 206.7,125.0 137.3,133.3 68.0,131.8" fill="#969696" fill-opacity="0.9" stroke="#fff" stroke-width="0.4"><title>codegen_dxil — compileInner (self)</title></polygon>
<text x="12" y="578" fill="#666" font-weight="600">phase buckets</text>
<rect x="12" y="586" width="12" height="12" fill="#c7e9c0"/>
<text x="28" y="596" fill="#222">parseTranslationUnit</text>
<rect x="289" y="586" width="12" height="12" fill="#41ab5d"/>
<text x="305" y="596" fill="#222">SemanticChecking</text>
<rect x="566" y="586" width="12" height="12" fill="#006d2c"/>
<text x="582" y="596" fill="#222">generateIR</text>
<rect x="843" y="586" width="12" height="12" fill="#74c476"/>
<text x="859" y="596" fill="#222">frontEndExecute (self)</text>
<rect x="12" y="604" width="12" height="12" fill="#6baed6"/>
<text x="28" y="614" fill="#222">specializeModule</text>
<rect x="289" y="604" width="12" height="12" fill="#2171b5"/>
<text x="305" y="614" fill="#222">simplifyIR</text>
<rect x="566" y="604" width="12" height="12" fill="#08306b"/>
<text x="582" y="614" fill="#222">linkIR</text>
<rect x="843" y="604" width="12" height="12" fill="#9e9ac8"/>
<text x="859" y="614" fill="#222">unrollLoopsInModule</text>
<rect x="12" y="622" width="12" height="12" fill="#807dba"/>
<text x="28" y="632" fill="#222">legalizeResourceTypes</text>
<rect x="289" y="622" width="12" height="12" fill="#6a51a3"/>
<text x="305" y="632" fill="#222">legalizeExistentialTypeLayout</text>
<rect x="566" y="622" width="12" height="12" fill="#bcbddc"/>
<text x="582" y="632" fill="#222">performMandatoryEarlyInlining</text>
<rect x="843" y="622" width="12" height="12" fill="#dadaeb"/>
<text x="859" y="632" fill="#222">performForceInlining</text>
<rect x="12" y="640" width="12" height="12" fill="#4a1486"/>
<text x="28" y="650" fill="#222">linkAndOptimizeIR (self)</text>
<rect x="289" y="640" width="12" height="12" fill="#fd8d3c"/>
<text x="305" y="650" fill="#222">emitEntryPointsSourceFromIR</text>
<rect x="566" y="640" width="12" height="12" fill="#e6550d"/>
<text x="582" y="650" fill="#222">generateOutput (self)</text>
<rect x="843" y="640" width="12" height="12" fill="#969696"/>
<text x="859" y="650" fill="#222">compileInner (self)</text>
</svg>