<svg xmlns="http://www.w3.org/2000/svg" xmlns:xlink="http://www.w3.org/1999/xlink" width="1132" height="680" viewBox="0 0 1132 680" preserveAspectRatio="xMidYMid meet" font-family="sans-serif" font-size="13">
<rect width="1132" height="680" fill="white"/>
<text x="12" y="30" font-size="20" font-weight="bold">codegen_spirv — full phase breakdown across releases (median ms)</text>
<text x="68" y="60" font-size="15" font-weight="600" fill="#1a1a1a">codegen_spirv<tspan fill="#888" font-weight="400" text-decoration="none">  0.95×</tspan></text>
<line x1="68.0" y1="516.0" x2="1108.0" y2="516.0" stroke="#eee"/>
<text x="64.0" y="519.0" text-anchor="end" fill="#999">0.0</text>
<line x1="68.0" y1="296.0" x2="1108.0" y2="296.0" stroke="#eee"/>
<text x="64.0" y="299.0" text-anchor="end" fill="#999">556</text>
<line x1="68.0" y1="76.0" x2="1108.0" y2="76.0" stroke="#eee"/>
<text x="64.0" y="79.0" text-anchor="end" fill="#999">1111</text>
<line x1="68.0" y1="76.0" x2="68.0" y2="516.0" stroke="#333"/>
<line x1="68.0" y1="516.0" x2="1108.0" y2="516.0" stroke="#333"/>
<line x1="68.0" y1="516.0" x2="68.0" y2="519.0" stroke="#999"/>
<text x="68.0" y="531.0" text-anchor="end" fill="#666" transform="rotate(-50 68.0 531.0)">26.9</text>
<line x1="588.0" y1="516.0" x2="588.0" y2="519.0" stroke="#999"/>
<text x="588.0" y="531.0" text-anchor="end" fill="#666" transform="rotate(-50 588.0 531.0)">26.10</text>
<line x1="1108.0" y1="516.0" x2="1108.0" y2="519.0" stroke="#999"/>
<text x="1108.0" y="531.0" text-anchor="end" fill="#666" transform="rotate(-50 1108.0 531.0)">26.11</text>
<polygon points="68.0,515.6 588.0,515.6 1108.0,515.6 1108.0,516.0 588.0,516.0 68.0,516.0" fill="#c7e9c0" fill-opacity="0.9" stroke="#fff" stroke-width="0.4"><title>codegen_spirv — parseTranslationUnit</title></polygon>
<polygon points="68.0,487.0 588.0,486.8 1108.0,502.7 1108.0,515.6 588.0,515.6 68.0,515.6" fill="#41ab5d" fill-opacity="0.9" stroke="#fff" stroke-width="0.4"><title>codegen_spirv — SemanticChecking</title></polygon>
<polygon points="68.0,480.3 588.0,480.1 1108.0,496.7 1108.0,502.7 588.0,486.8 68.0,487.0" fill="#006d2c" fill-opacity="0.9" stroke="#fff" stroke-width="0.4"><title>codegen_spirv — generateIR</title></polygon>
<polygon points="68.0,480.2 588.0,480.0 1108.0,496.5 1108.0,496.7 588.0,480.1 68.0,480.3" fill="#74c476" fill-opacity="0.9" stroke="#fff" stroke-width="0.4"><title>codegen_spirv — frontEndExecute (self)</title></polygon>
<polygon points="68.0,467.8 588.0,467.6 1108.0,484.9 1108.0,496.5 588.0,480.0 68.0,480.2" fill="#6baed6" fill-opacity="0.9" stroke="#fff" stroke-width="0.4"><title>codegen_spirv — specializeModule</title></polygon>
<polygon points="68.0,433.7 588.0,433.1 1108.0,452.5 1108.0,484.9 588.0,467.6 68.0,467.8" fill="#2171b5" fill-opacity="0.9" stroke="#fff" stroke-width="0.4"><title>codegen_spirv — simplifyIR</title></polygon>
<polygon points="68.0,426.4 588.0,425.8 1108.0,451.7 1108.0,452.5 588.0,433.1 68.0,433.7" fill="#08306b" fill-opacity="0.9" stroke="#fff" stroke-width="0.4"><title>codegen_spirv — linkIR</title></polygon>
<polygon points="68.0,426.4 588.0,425.8 1108.0,451.7 1108.0,451.7 588.0,425.8 68.0,426.4" fill="#9e9ac8" fill-opacity="0.9" stroke="#fff" stroke-width="0.4"><title>codegen_spirv — unrollLoopsInModule</title></polygon>
<polygon points="68.0,341.5 588.0,339.6 1108.0,363.9 1108.0,451.7 588.0,425.8 68.0,426.4" fill="#807dba" fill-opacity="0.9" stroke="#fff" stroke-width="0.4"><title>codegen_spirv — legalizeResourceTypes</title></polygon>
<polygon points="68.0,255.8 588.0,253.6 1108.0,275.9 1108.0,363.9 588.0,339.6 68.0,341.5" fill="#6a51a3" fill-opacity="0.9" stroke="#fff" stroke-width="0.4"><title>codegen_spirv — legalizeExistentialTypeLayout</title></polygon>
<polygon points="68.0,255.7 588.0,253.4 1108.0,275.7 1108.0,275.9 588.0,253.6 68.0,255.8" fill="#bcbddc" fill-opacity="0.9" stroke="#fff" stroke-width="0.4"><title>codegen_spirv — performMandatoryEarlyInlining</title></polygon>
<polygon points="68.0,255.5 588.0,253.2 1108.0,275.5 1108.0,275.7 588.0,253.4 68.0,255.7" fill="#dadaeb" fill-opacity="0.9" stroke="#fff" stroke-width="0.4"><title>codegen_spirv — performForceInlining</title></polygon>
<polygon points="68.0,202.1 588.0,200.2 1108.0,224.5 1108.0,275.5 588.0,253.2 68.0,255.5" fill="#4a1486" fill-opacity="0.9" stroke="#fff" stroke-width="0.4"><title>codegen_spirv — linkAndOptimizeIR (self)</title></polygon>
<polygon points="68.0,110.7 588.0,108.7 1108.0,132.3 1108.0,224.5 588.0,200.2 68.0,202.1" fill="#e6550d" fill-opacity="0.9" stroke="#fff" stroke-width="0.4"><title>codegen_spirv — generateOutput (self)</title></polygon>
<polygon points="68.0,110.7 588.0,108.6 1108.0,132.3 1108.0,132.3 588.0,108.7 68.0,110.7" fill="#969696" fill-opacity="0.9" stroke="#fff" stroke-width="0.4"><title>codegen_spirv — compileInner (self)</title></polygon>
<text x="12" y="578" fill="#666" font-weight="600">phase buckets</text>
<rect x="12" y="586" width="12" height="12" fill="#c7e9c0"/>
<text x="28" y="596" fill="#222">parseTranslationUnit</text>
<rect x="289" y="586" width="12" height="12" fill="#41ab5d"/>
<text x="305" y="596" fill="#222">SemanticChecking</text>
<rect x="566" y="586" width="12" height="12" fill="#006d2c"/>
<text x="582" y="596" fill="#222">generateIR</text>
<rect x="843" y="586" width="12" height="12" fill="#74c476"/>
<text x="859" y="596" fill="#222">frontEndExecute (self)</text>
<rect x="12" y="604" width="12" height="12" fill="#6baed6"/>
<text x="28" y="614" fill="#222">specializeModule</text>
<rect x="289" y="604" width="12" height="12" fill="#2171b5"/>
<text x="305" y="614" fill="#222">simplifyIR</text>
<rect x="566" y="604" width="12" height="12" fill="#08306b"/>
<text x="582" y="614" fill="#222">linkIR</text>
<rect x="843" y="604" width="12" height="12" fill="#9e9ac8"/>
<text x="859" y="614" fill="#222">unrollLoopsInModule</text>
<rect x="12" y="622" width="12" height="12" fill="#807dba"/>
<text x="28" y="632" fill="#222">legalizeResourceTypes</text>
<rect x="289" y="622" width="12" height="12" fill="#6a51a3"/>
<text x="305" y="632" fill="#222">legalizeExistentialTypeLayout</text>
<rect x="566" y="622" width="12" height="12" fill="#bcbddc"/>
<text x="582" y="632" fill="#222">performMandatoryEarlyInlining</text>
<rect x="843" y="622" width="12" height="12" fill="#dadaeb"/>
<text x="859" y="632" fill="#222">performForceInlining</text>
<rect x="12" y="640" width="12" height="12" fill="#4a1486"/>
<text x="28" y="650" fill="#222">linkAndOptimizeIR (self)</text>
<rect x="289" y="640" width="12" height="12" fill="#fd8d3c"/>
<text x="305" y="650" fill="#222">emitEntryPointsSourceFromIR</text>
<rect x="566" y="640" width="12" height="12" fill="#e6550d"/>
<text x="582" y="650" fill="#222">generateOutput (self)</text>
<rect x="843" y="640" width="12" height="12" fill="#969696"/>
<text x="859" y="650" fill="#222">compileInner (self)</text>
</svg>