<svg xmlns="http://www.w3.org/2000/svg" xmlns:xlink="http://www.w3.org/1999/xlink" width="1132" height="680" viewBox="0 0 1132 680" preserveAspectRatio="xMidYMid meet" font-family="sans-serif" font-size="13">
<rect width="1132" height="680" fill="white"/>
<text x="12" y="30" font-size="20" font-weight="bold">codegen_spirv — full phase breakdown across releases (median ms)</text>
<text x="68" y="60" font-size="15" font-weight="600" fill="#1a1a1a">codegen_spirv<tspan fill="#888" font-weight="400" text-decoration="none">  0.41×</tspan></text>
<line x1="68.0" y1="516.0" x2="1108.0" y2="516.0" stroke="#eee"/>
<text x="64.0" y="519.0" text-anchor="end" fill="#999">0.0</text>
<line x1="68.0" y1="296.0" x2="1108.0" y2="296.0" stroke="#eee"/>
<text x="64.0" y="299.0" text-anchor="end" fill="#999">1249</text>
<line x1="68.0" y1="76.0" x2="1108.0" y2="76.0" stroke="#eee"/>
<text x="64.0" y="79.0" text-anchor="end" fill="#999">2498</text>
<line x1="68.0" y1="76.0" x2="68.0" y2="516.0" stroke="#333"/>
<line x1="68.0" y1="516.0" x2="1108.0" y2="516.0" stroke="#333"/>
<line x1="813.3" y1="76.0" x2="813.3" y2="516.0" stroke="#e8731a" stroke-width="1.2" stroke-dasharray="4 3"/>
<text x="816.3" y="87.0" fill="#e8731a" font-size="11">daily →</text>
<line x1="68.0" y1="516.0" x2="68.0" y2="519.0" stroke="#999"/>
<text x="68.0" y="531.0" text-anchor="end" fill="#666" transform="rotate(-50 68.0 531.0)">25.14</text>
<line x1="102.7" y1="516.0" x2="102.7" y2="519.0" stroke="#999"/>
<text x="102.7" y="531.0" text-anchor="end" fill="#666" transform="rotate(-50 102.7 531.0)">25.15</text>
<line x1="137.3" y1="516.0" x2="137.3" y2="519.0" stroke="#999"/>
<text x="137.3" y="531.0" text-anchor="end" fill="#666" transform="rotate(-50 137.3 531.0)">25.16</text>
<line x1="172.0" y1="516.0" x2="172.0" y2="519.0" stroke="#999"/>
<text x="172.0" y="531.0" text-anchor="end" fill="#666" transform="rotate(-50 172.0 531.0)">25.17</text>
<line x1="206.7" y1="516.0" x2="206.7" y2="519.0" stroke="#999"/>
<text x="206.7" y="531.0" text-anchor="end" fill="#666" transform="rotate(-50 206.7 531.0)">25.18</text>
<line x1="241.3" y1="516.0" x2="241.3" y2="519.0" stroke="#999"/>
<text x="241.3" y="531.0" text-anchor="end" fill="#666" transform="rotate(-50 241.3 531.0)">25.19</text>
<line x1="276.0" y1="516.0" x2="276.0" y2="519.0" stroke="#999"/>
<text x="276.0" y="531.0" text-anchor="end" fill="#666" transform="rotate(-50 276.0 531.0)">25.20</text>
<line x1="310.7" y1="516.0" x2="310.7" y2="519.0" stroke="#999"/>
<text x="310.7" y="531.0" text-anchor="end" fill="#666" transform="rotate(-50 310.7 531.0)">25.21</text>
<line x1="345.3" y1="516.0" x2="345.3" y2="519.0" stroke="#999"/>
<text x="345.3" y="531.0" text-anchor="end" fill="#666" transform="rotate(-50 345.3 531.0)">25.22</text>
<line x1="380.0" y1="516.0" x2="380.0" y2="519.0" stroke="#999"/>
<text x="380.0" y="531.0" text-anchor="end" fill="#666" transform="rotate(-50 380.0 531.0)">25.23</text>
<line x1="414.7" y1="516.0" x2="414.7" y2="519.0" stroke="#999"/>
<text x="414.7" y="531.0" text-anchor="end" fill="#666" transform="rotate(-50 414.7 531.0)">25.24</text>
<line x1="449.3" y1="516.0" x2="449.3" y2="519.0" stroke="#999"/>
<text x="449.3" y="531.0" text-anchor="end" fill="#666" transform="rotate(-50 449.3 531.0)">26.1</text>
<line x1="484.0" y1="516.0" x2="484.0" y2="519.0" stroke="#999"/>
<text x="484.0" y="531.0" text-anchor="end" fill="#666" transform="rotate(-50 484.0 531.0)">26.2</text>
<line x1="518.7" y1="516.0" x2="518.7" y2="519.0" stroke="#999"/>
<text x="518.7" y="531.0" text-anchor="end" fill="#666" transform="rotate(-50 518.7 531.0)">26.3</text>
<line x1="553.3" y1="516.0" x2="553.3" y2="519.0" stroke="#999"/>
<text x="553.3" y="531.0" text-anchor="end" fill="#666" transform="rotate(-50 553.3 531.0)">26.4</text>
<line x1="588.0" y1="516.0" x2="588.0" y2="519.0" stroke="#999"/>
<text x="588.0" y="531.0" text-anchor="end" fill="#666" transform="rotate(-50 588.0 531.0)">26.5</text>
<line x1="622.7" y1="516.0" x2="622.7" y2="519.0" stroke="#999"/>
<text x="622.7" y="531.0" text-anchor="end" fill="#666" transform="rotate(-50 622.7 531.0)">26.7</text>
<line x1="657.3" y1="516.0" x2="657.3" y2="519.0" stroke="#999"/>
<text x="657.3" y="531.0" text-anchor="end" fill="#666" transform="rotate(-50 657.3 531.0)">26.8</text>
<line x1="692.0" y1="516.0" x2="692.0" y2="519.0" stroke="#999"/>
<text x="692.0" y="531.0" text-anchor="end" fill="#666" transform="rotate(-50 692.0 531.0)">26.9</text>
<line x1="726.7" y1="516.0" x2="726.7" y2="519.0" stroke="#999"/>
<text x="726.7" y="531.0" text-anchor="end" fill="#666" transform="rotate(-50 726.7 531.0)">26.10</text>
<line x1="761.3" y1="516.0" x2="761.3" y2="519.0" stroke="#999"/>
<text x="761.3" y="531.0" text-anchor="end" fill="#666" transform="rotate(-50 761.3 531.0)">26.11</text>
<line x1="796.0" y1="516.0" x2="796.0" y2="519.0" stroke="#999"/>
<text x="796.0" y="531.0" text-anchor="end" fill="#666" transform="rotate(-50 796.0 531.0)">26.12</text>
<line x1="830.7" y1="516.0" x2="830.7" y2="519.0" stroke="#999"/>
<text x="830.7" y="531.0" text-anchor="end" fill="#e8731a" transform="rotate(-50 830.7 531.0)">06-25</text>
<line x1="865.3" y1="516.0" x2="865.3" y2="519.0" stroke="#999"/>
<text x="865.3" y="531.0" text-anchor="end" fill="#e8731a" transform="rotate(-50 865.3 531.0)">06-26</text>
<line x1="900.0" y1="516.0" x2="900.0" y2="519.0" stroke="#999"/>
<text x="900.0" y="531.0" text-anchor="end" fill="#e8731a" transform="rotate(-50 900.0 531.0)">06-28</text>
<line x1="934.7" y1="516.0" x2="934.7" y2="519.0" stroke="#999"/>
<text x="934.7" y="531.0" text-anchor="end" fill="#e8731a" transform="rotate(-50 934.7 531.0)">07-01</text>
<line x1="969.3" y1="516.0" x2="969.3" y2="519.0" stroke="#999"/>
<text x="969.3" y="531.0" text-anchor="end" fill="#e8731a" transform="rotate(-50 969.3 531.0)">07-02</text>
<line x1="1004.0" y1="516.0" x2="1004.0" y2="519.0" stroke="#999"/>
<text x="1004.0" y="531.0" text-anchor="end" fill="#e8731a" transform="rotate(-50 1004.0 531.0)">07-03</text>
<line x1="1038.7" y1="516.0" x2="1038.7" y2="519.0" stroke="#999"/>
<text x="1038.7" y="531.0" text-anchor="end" fill="#e8731a" transform="rotate(-50 1038.7 531.0)">07-07</text>
<line x1="1073.3" y1="516.0" x2="1073.3" y2="519.0" stroke="#999"/>
<text x="1073.3" y="531.0" text-anchor="end" fill="#e8731a" transform="rotate(-50 1073.3 531.0)">07-07</text>
<line x1="1108.0" y1="516.0" x2="1108.0" y2="519.0" stroke="#999"/>
<text x="1108.0" y="531.0" text-anchor="end" fill="#e8731a" transform="rotate(-50 1108.0 531.0)">07-09</text>
<polygon points="68.0,515.8 102.7,515.8 137.3,515.8 172.0,515.8 206.7,515.8 241.3,515.8 276.0,515.8 310.7,515.8 345.3,515.8 380.0,515.8 414.7,515.8 449.3,515.8 484.0,515.8 518.7,515.8 553.3,515.8 588.0,515.8 622.7,515.8 657.3,515.8 692.0,515.8 726.7,515.8 761.3,515.8 796.0,515.8 830.7,515.8 865.3,515.8 900.0,515.8 934.7,515.8 969.3,515.8 1004.0,515.8 1038.7,515.8 1073.3,515.8 1108.0,515.8 1108.0,516.0 1073.3,516.0 1038.7,516.0 1004.0,516.0 969.3,516.0 934.7,516.0 900.0,516.0 865.3,516.0 830.7,516.0 796.0,516.0 761.3,516.0 726.7,516.0 692.0,516.0 657.3,516.0 622.7,516.0 588.0,516.0 553.3,516.0 518.7,516.0 484.0,516.0 449.3,516.0 414.7,516.0 380.0,516.0 345.3,516.0 310.7,516.0 276.0,516.0 241.3,516.0 206.7,516.0 172.0,516.0 137.3,516.0 102.7,516.0 68.0,516.0" fill="#c7e9c0" fill-opacity="0.9" stroke="#fff" stroke-width="0.4"><title>codegen_spirv — parseTranslationUnit</title></polygon>
<polygon points="68.0,507.9 102.7,506.6 137.3,506.3 172.0,505.6 206.7,505.4 241.3,506.0 276.0,505.9 310.7,505.9 345.3,505.6 380.0,505.6 414.7,506.0 449.3,505.9 484.0,505.3 518.7,505.3 553.3,505.5 588.0,505.4 622.7,503.3 657.3,503.1 692.0,503.2 726.7,503.2 761.3,510.0 796.0,509.7 830.7,509.5 865.3,509.5 900.0,509.4 934.7,509.5 969.3,509.5 1004.0,509.3 1038.7,509.7 1073.3,509.5 1108.0,509.7 1108.0,515.8 1073.3,515.8 1038.7,515.8 1004.0,515.8 969.3,515.8 934.7,515.8 900.0,515.8 865.3,515.8 830.7,515.8 796.0,515.8 761.3,515.8 726.7,515.8 692.0,515.8 657.3,515.8 622.7,515.8 588.0,515.8 553.3,515.8 518.7,515.8 484.0,515.8 449.3,515.8 414.7,515.8 380.0,515.8 345.3,515.8 310.7,515.8 276.0,515.8 241.3,515.8 206.7,515.8 172.0,515.8 137.3,515.8 102.7,515.8 68.0,515.8" fill="#41ab5d" fill-opacity="0.9" stroke="#fff" stroke-width="0.4"><title>codegen_spirv — SemanticChecking</title></polygon>
<polygon points="68.0,506.2 102.7,504.9 137.3,504.6 172.0,503.8 206.7,503.5 241.3,504.3 276.0,504.2 310.7,504.1 345.3,503.8 380.0,504.0 414.7,504.4 449.3,504.2 484.0,503.5 518.7,503.6 553.3,503.8 588.0,503.8 622.7,500.3 657.3,500.1 692.0,500.2 726.7,500.2 761.3,507.3 796.0,506.9 830.7,506.5 865.3,506.5 900.0,506.5 934.7,506.5 969.3,506.6 1004.0,506.3 1038.7,506.7 1073.3,506.5 1108.0,506.7 1108.0,509.7 1073.3,509.5 1038.7,509.7 1004.0,509.3 969.3,509.5 934.7,509.5 900.0,509.4 865.3,509.5 830.7,509.5 796.0,509.7 761.3,510.0 726.7,503.2 692.0,503.2 657.3,503.1 622.7,503.3 588.0,505.4 553.3,505.5 518.7,505.3 484.0,505.3 449.3,505.9 414.7,506.0 380.0,505.6 345.3,505.6 310.7,505.9 276.0,505.9 241.3,506.0 206.7,505.4 172.0,505.6 137.3,506.3 102.7,506.6 68.0,507.9" fill="#006d2c" fill-opacity="0.9" stroke="#fff" stroke-width="0.4"><title>codegen_spirv — generateIR</title></polygon>
<polygon points="68.0,506.1 102.7,504.9 137.3,504.5 172.0,503.6 206.7,503.4 241.3,504.3 276.0,504.1 310.7,504.0 345.3,503.7 380.0,503.9 414.7,504.3 449.3,504.2 484.0,503.5 518.7,503.6 553.3,503.7 588.0,503.7 622.7,500.2 657.3,500.0 692.0,500.1 726.7,500.2 761.3,507.2 796.0,506.8 830.7,506.4 865.3,506.5 900.0,506.4 934.7,506.5 969.3,506.5 1004.0,506.2 1038.7,506.7 1073.3,506.5 1108.0,506.6 1108.0,506.7 1073.3,506.5 1038.7,506.7 1004.0,506.3 969.3,506.6 934.7,506.5 900.0,506.5 865.3,506.5 830.7,506.5 796.0,506.9 761.3,507.3 726.7,500.2 692.0,500.2 657.3,500.1 622.7,500.3 588.0,503.8 553.3,503.8 518.7,503.6 484.0,503.5 449.3,504.2 414.7,504.4 380.0,504.0 345.3,503.8 310.7,504.1 276.0,504.2 241.3,504.3 206.7,503.5 172.0,503.8 137.3,504.6 102.7,504.9 68.0,506.2" fill="#74c476" fill-opacity="0.9" stroke="#fff" stroke-width="0.4"><title>codegen_spirv — frontEndExecute (self)</title></polygon>
<polygon points="68.0,505.2 102.7,504.0 137.3,503.6 172.0,502.7 206.7,502.5 241.3,503.4 276.0,503.2 310.7,503.1 345.3,502.8 380.0,503.0 414.7,502.7 449.3,502.5 484.0,501.8 518.7,501.9 553.3,502.1 588.0,501.9 622.7,494.3 657.3,494.5 692.0,494.8 726.7,494.8 761.3,502.1 796.0,501.9 830.7,501.0 865.3,500.9 900.0,501.0 934.7,501.0 969.3,501.1 1004.0,500.7 1038.7,500.7 1073.3,500.5 1108.0,500.6 1108.0,506.6 1073.3,506.5 1038.7,506.7 1004.0,506.2 969.3,506.5 934.7,506.5 900.0,506.4 865.3,506.5 830.7,506.4 796.0,506.8 761.3,507.2 726.7,500.2 692.0,500.1 657.3,500.0 622.7,500.2 588.0,503.7 553.3,503.7 518.7,503.6 484.0,503.5 449.3,504.2 414.7,504.3 380.0,503.9 345.3,503.7 310.7,504.0 276.0,504.1 241.3,504.3 206.7,503.4 172.0,503.6 137.3,504.5 102.7,504.9 68.0,506.1" fill="#6baed6" fill-opacity="0.9" stroke="#fff" stroke-width="0.4"><title>codegen_spirv — specializeModule</title></polygon>
<polygon points="68.0,503.5 102.7,502.2 137.3,501.8 172.0,500.9 206.7,500.6 241.3,501.6 276.0,501.4 310.7,501.3 345.3,501.0 380.0,501.2 414.7,501.2 449.3,501.0 484.0,500.2 518.7,500.4 553.3,500.5 588.0,500.3 622.7,479.6 657.3,479.5 692.0,480.1 726.7,479.8 761.3,487.5 796.0,487.6 830.7,485.8 865.3,485.7 900.0,485.7 934.7,485.4 969.3,486.1 1004.0,485.4 1038.7,485.4 1073.3,485.0 1108.0,485.1 1108.0,500.6 1073.3,500.5 1038.7,500.7 1004.0,500.7 969.3,501.1 934.7,501.0 900.0,501.0 865.3,500.9 830.7,501.0 796.0,501.9 761.3,502.1 726.7,494.8 692.0,494.8 657.3,494.5 622.7,494.3 588.0,501.9 553.3,502.1 518.7,501.9 484.0,501.8 449.3,502.5 414.7,502.7 380.0,503.0 345.3,502.8 310.7,503.1 276.0,503.2 241.3,503.4 206.7,502.5 172.0,502.7 137.3,503.6 102.7,504.0 68.0,505.2" fill="#2171b5" fill-opacity="0.9" stroke="#fff" stroke-width="0.4"><title>codegen_spirv — simplifyIR</title></polygon>
<polygon points="68.0,503.1 102.7,501.9 137.3,501.4 172.0,500.4 206.7,500.1 241.3,501.3 276.0,501.0 310.7,500.9 345.3,500.5 380.0,500.8 414.7,500.9 449.3,500.7 484.0,499.9 518.7,500.0 553.3,500.2 588.0,500.0 622.7,476.0 657.3,475.8 692.0,476.3 726.7,476.0 761.3,487.1 796.0,487.3 830.7,485.4 865.3,485.3 900.0,485.4 934.7,485.1 969.3,485.7 1004.0,485.1 1038.7,485.1 1073.3,484.8 1108.0,484.9 1108.0,485.1 1073.3,485.0 1038.7,485.4 1004.0,485.4 969.3,486.1 934.7,485.4 900.0,485.7 865.3,485.7 830.7,485.8 796.0,487.6 761.3,487.5 726.7,479.8 692.0,480.1 657.3,479.5 622.7,479.6 588.0,500.3 553.3,500.5 518.7,500.4 484.0,500.2 449.3,501.0 414.7,501.2 380.0,501.2 345.3,501.0 310.7,501.3 276.0,501.4 241.3,501.6 206.7,500.6 172.0,500.9 137.3,501.8 102.7,502.2 68.0,503.5" fill="#08306b" fill-opacity="0.9" stroke="#fff" stroke-width="0.4"><title>codegen_spirv — linkIR</title></polygon>
<polygon points="68.0,503.1 102.7,501.9 137.3,501.4 172.0,500.4 206.7,500.1 241.3,501.3 276.0,501.0 310.7,500.9 345.3,500.5 380.0,500.8 414.7,500.9 449.3,500.7 484.0,499.9 518.7,500.0 553.3,500.2 588.0,500.0 622.7,476.0 657.3,475.8 692.0,476.3 726.7,476.0 761.3,487.1 796.0,487.3 830.7,485.4 865.3,485.3 900.0,485.4 934.7,485.1 969.3,485.7 1004.0,485.1 1038.7,485.1 1073.3,484.8 1108.0,484.9 1108.0,484.9 1073.3,484.8 1038.7,485.1 1004.0,485.1 969.3,485.7 934.7,485.1 900.0,485.4 865.3,485.3 830.7,485.4 796.0,487.3 761.3,487.1 726.7,476.0 692.0,476.3 657.3,475.8 622.7,476.0 588.0,500.0 553.3,500.2 518.7,500.0 484.0,499.9 449.3,500.7 414.7,500.9 380.0,500.8 345.3,500.5 310.7,500.9 276.0,501.0 241.3,501.3 206.7,500.1 172.0,500.4 137.3,501.4 102.7,501.9 68.0,503.1" fill="#9e9ac8" fill-opacity="0.9" stroke="#fff" stroke-width="0.4"><title>codegen_spirv — unrollLoopsInModule</title></polygon>
<polygon points="68.0,368.9 102.7,368.8 137.3,363.5 172.0,363.2 206.7,463.2 241.3,469.0 276.0,466.6 310.7,468.2 345.3,467.9 380.0,467.4 414.7,469.1 449.3,468.8 484.0,468.1 518.7,468.1 553.3,468.0 588.0,468.0 622.7,443.7 657.3,443.4 692.0,444.4 726.7,443.7 761.3,453.5 796.0,453.9 830.7,451.5 865.3,451.4 900.0,450.9 934.7,451.2 969.3,452.2 1004.0,450.9 1038.7,452.4 1073.3,451.2 1108.0,450.8 1108.0,484.9 1073.3,484.8 1038.7,485.1 1004.0,485.1 969.3,485.7 934.7,485.1 900.0,485.4 865.3,485.3 830.7,485.4 796.0,487.3 761.3,487.1 726.7,476.0 692.0,476.3 657.3,475.8 622.7,476.0 588.0,500.0 553.3,500.2 518.7,500.0 484.0,499.9 449.3,500.7 414.7,500.9 380.0,500.8 345.3,500.5 310.7,500.9 276.0,501.0 241.3,501.3 206.7,500.1 172.0,500.4 137.3,501.4 102.7,501.9 68.0,503.1" fill="#807dba" fill-opacity="0.9" stroke="#fff" stroke-width="0.4"><title>codegen_spirv — legalizeResourceTypes</title></polygon>
<polygon points="68.0,234.0 102.7,236.6 137.3,222.2 172.0,230.0 206.7,426.3 241.3,436.1 276.0,431.6 310.7,433.7 345.3,435.5 380.0,434.0 414.7,437.4 449.3,437.3 484.0,435.5 518.7,435.9 553.3,436.0 588.0,435.7 622.7,411.6 657.3,410.5 692.0,412.0 726.7,411.9 761.3,419.6 796.0,420.3 830.7,416.7 865.3,416.9 900.0,415.9 934.7,417.5 969.3,419.0 1004.0,415.7 1038.7,418.7 1073.3,417.5 1108.0,415.9 1108.0,450.8 1073.3,451.2 1038.7,452.4 1004.0,450.9 969.3,452.2 934.7,451.2 900.0,450.9 865.3,451.4 830.7,451.5 796.0,453.9 761.3,453.5 726.7,443.7 692.0,444.4 657.3,443.4 622.7,443.7 588.0,468.0 553.3,468.0 518.7,468.1 484.0,468.1 449.3,468.8 414.7,469.1 380.0,467.4 345.3,467.9 310.7,468.2 276.0,466.6 241.3,469.0 206.7,463.2 172.0,363.2 137.3,363.5 102.7,368.8 68.0,368.9" fill="#6a51a3" fill-opacity="0.9" stroke="#fff" stroke-width="0.4"><title>codegen_spirv — legalizeExistentialTypeLayout</title></polygon>
<polygon points="68.0,233.9 102.7,236.5 137.3,222.1 172.0,229.9 206.7,426.2 241.3,436.0 276.0,431.5 310.7,433.6 345.3,435.4 380.0,433.9 414.7,437.3 449.3,437.2 484.0,435.4 518.7,435.8 553.3,435.9 588.0,435.6 622.7,411.5 657.3,410.4 692.0,411.9 726.7,411.8 761.3,419.5 796.0,420.3 830.7,416.6 865.3,416.8 900.0,415.9 934.7,417.4 969.3,419.0 1004.0,415.7 1038.7,418.6 1073.3,417.4 1108.0,415.8 1108.0,415.9 1073.3,417.5 1038.7,418.7 1004.0,415.7 969.3,419.0 934.7,417.5 900.0,415.9 865.3,416.9 830.7,416.7 796.0,420.3 761.3,419.6 726.7,411.9 692.0,412.0 657.3,410.5 622.7,411.6 588.0,435.7 553.3,436.0 518.7,435.9 484.0,435.5 449.3,437.3 414.7,437.4 380.0,434.0 345.3,435.5 310.7,433.7 276.0,431.6 241.3,436.1 206.7,426.3 172.0,230.0 137.3,222.2 102.7,236.6 68.0,234.0" fill="#bcbddc" fill-opacity="0.9" stroke="#fff" stroke-width="0.4"><title>codegen_spirv — performMandatoryEarlyInlining</title></polygon>
<polygon points="68.0,233.8 102.7,236.4 137.3,222.0 172.0,229.8 206.7,426.1 241.3,435.9 276.0,431.4 310.7,433.5 345.3,435.3 380.0,433.8 414.7,437.2 449.3,437.1 484.0,435.3 518.7,435.7 553.3,435.8 588.0,435.5 622.7,411.4 657.3,410.3 692.0,411.8 726.7,411.7 761.3,419.4 796.0,420.2 830.7,416.5 865.3,416.7 900.0,415.8 934.7,417.3 969.3,418.9 1004.0,415.5 1038.7,418.5 1073.3,417.3 1108.0,415.7 1108.0,415.8 1073.3,417.4 1038.7,418.6 1004.0,415.7 969.3,419.0 934.7,417.4 900.0,415.9 865.3,416.8 830.7,416.6 796.0,420.3 761.3,419.5 726.7,411.8 692.0,411.9 657.3,410.4 622.7,411.5 588.0,435.6 553.3,435.9 518.7,435.8 484.0,435.4 449.3,437.2 414.7,437.3 380.0,433.9 345.3,435.4 310.7,433.6 276.0,431.5 241.3,436.0 206.7,426.2 172.0,229.9 137.3,222.1 102.7,236.5 68.0,233.9" fill="#dadaeb" fill-opacity="0.9" stroke="#fff" stroke-width="0.4"><title>codegen_spirv — performForceInlining</title></polygon>
<polygon points="68.0,231.1 102.7,233.8 137.3,216.4 172.0,227.8 206.7,423.1 241.3,433.5 276.0,428.8 310.7,430.8 345.3,432.7 380.0,429.7 414.7,434.7 449.3,434.4 484.0,433.0 518.7,433.1 553.3,432.7 588.0,432.7 622.7,387.3 657.3,386.7 692.0,386.7 726.7,388.2 761.3,396.3 796.0,397.2 830.7,393.0 865.3,394.1 900.0,390.9 934.7,394.3 969.3,395.8 1004.0,392.1 1038.7,396.2 1073.3,394.5 1108.0,392.5 1108.0,415.7 1073.3,417.3 1038.7,418.5 1004.0,415.5 969.3,418.9 934.7,417.3 900.0,415.8 865.3,416.7 830.7,416.5 796.0,420.2 761.3,419.4 726.7,411.7 692.0,411.8 657.3,410.3 622.7,411.4 588.0,435.5 553.3,435.8 518.7,435.7 484.0,435.3 449.3,437.1 414.7,437.2 380.0,433.8 345.3,435.3 310.7,433.5 276.0,431.4 241.3,435.9 206.7,426.1 172.0,229.8 137.3,222.0 102.7,236.4 68.0,233.8" fill="#4a1486" fill-opacity="0.9" stroke="#fff" stroke-width="0.4"><title>codegen_spirv — linkAndOptimizeIR (self)</title></polygon>
<polygon points="68.0,122.4 102.7,129.2 137.3,108.6 172.0,120.4 206.7,381.9 241.3,394.0 276.0,389.4 310.7,390.1 345.3,393.6 380.0,390.6 414.7,397.5 449.3,395.7 484.0,394.5 518.7,395.0 553.3,395.3 588.0,394.5 622.7,348.1 657.3,347.7 692.0,348.5 726.7,350.3 761.3,357.0 796.0,360.1 830.7,354.5 865.3,355.7 900.0,351.2 934.7,356.9 969.3,357.7 1004.0,353.3 1038.7,357.9 1073.3,355.5 1108.0,353.9 1108.0,392.5 1073.3,394.5 1038.7,396.2 1004.0,392.1 969.3,395.8 934.7,394.3 900.0,390.9 865.3,394.1 830.7,393.0 796.0,397.2 761.3,396.3 726.7,388.2 692.0,386.7 657.3,386.7 622.7,387.3 588.0,432.7 553.3,432.7 518.7,433.1 484.0,433.0 449.3,434.4 414.7,434.7 380.0,429.7 345.3,432.7 310.7,430.8 276.0,428.8 241.3,433.5 206.7,423.1 172.0,227.8 137.3,216.4 102.7,233.8 68.0,231.1" fill="#e6550d" fill-opacity="0.9" stroke="#fff" stroke-width="0.4"><title>codegen_spirv — generateOutput (self)</title></polygon>
<polygon points="68.0,122.3 102.7,129.2 137.3,108.6 172.0,120.0 206.7,381.4 241.3,394.0 276.0,389.1 310.7,390.1 345.3,386.8 380.0,390.6 414.7,397.5 449.3,395.7 484.0,394.4 518.7,395.0 553.3,395.0 588.0,394.5 622.7,348.1 657.3,347.7 692.0,348.5 726.7,350.3 761.3,357.0 796.0,359.9 830.7,354.5 865.3,355.7 900.0,351.1 934.7,356.8 969.3,357.6 1004.0,353.2 1038.7,357.8 1073.3,355.5 1108.0,353.9 1108.0,353.9 1073.3,355.5 1038.7,357.9 1004.0,353.3 969.3,357.7 934.7,356.9 900.0,351.2 865.3,355.7 830.7,354.5 796.0,360.1 761.3,357.0 726.7,350.3 692.0,348.5 657.3,347.7 622.7,348.1 588.0,394.5 553.3,395.3 518.7,395.0 484.0,394.5 449.3,395.7 414.7,397.5 380.0,390.6 345.3,393.6 310.7,390.1 276.0,389.4 241.3,394.0 206.7,381.9 172.0,120.4 137.3,108.6 102.7,129.2 68.0,122.4" fill="#969696" fill-opacity="0.9" stroke="#fff" stroke-width="0.4"><title>codegen_spirv — compileInner (self)</title></polygon>
<text x="12" y="578" fill="#666" font-weight="600">phase buckets</text>
<rect x="12" y="586" width="12" height="12" fill="#c7e9c0"/>
<text x="28" y="596" fill="#222">parseTranslationUnit</text>
<rect x="289" y="586" width="12" height="12" fill="#41ab5d"/>
<text x="305" y="596" fill="#222">SemanticChecking</text>
<rect x="566" y="586" width="12" height="12" fill="#006d2c"/>
<text x="582" y="596" fill="#222">generateIR</text>
<rect x="843" y="586" width="12" height="12" fill="#74c476"/>
<text x="859" y="596" fill="#222">frontEndExecute (self)</text>
<rect x="12" y="604" width="12" height="12" fill="#6baed6"/>
<text x="28" y="614" fill="#222">specializeModule</text>
<rect x="289" y="604" width="12" height="12" fill="#2171b5"/>
<text x="305" y="614" fill="#222">simplifyIR</text>
<rect x="566" y="604" width="12" height="12" fill="#08306b"/>
<text x="582" y="614" fill="#222">linkIR</text>
<rect x="843" y="604" width="12" height="12" fill="#9e9ac8"/>
<text x="859" y="614" fill="#222">unrollLoopsInModule</text>
<rect x="12" y="622" width="12" height="12" fill="#807dba"/>
<text x="28" y="632" fill="#222">legalizeResourceTypes</text>
<rect x="289" y="622" width="12" height="12" fill="#6a51a3"/>
<text x="305" y="632" fill="#222">legalizeExistentialTypeLayout</text>
<rect x="566" y="622" width="12" height="12" fill="#bcbddc"/>
<text x="582" y="632" fill="#222">performMandatoryEarlyInlining</text>
<rect x="843" y="622" width="12" height="12" fill="#dadaeb"/>
<text x="859" y="632" fill="#222">performForceInlining</text>
<rect x="12" y="640" width="12" height="12" fill="#4a1486"/>
<text x="28" y="650" fill="#222">linkAndOptimizeIR (self)</text>
<rect x="289" y="640" width="12" height="12" fill="#fd8d3c"/>
<text x="305" y="650" fill="#222">emitEntryPointsSourceFromIR</text>
<rect x="566" y="640" width="12" height="12" fill="#e6550d"/>
<text x="582" y="650" fill="#222">generateOutput (self)</text>
<rect x="843" y="640" width="12" height="12" fill="#969696"/>
<text x="859" y="650" fill="#222">compileInner (self)</text>
</svg>