<svg xmlns="http://www.w3.org/2000/svg" xmlns:xlink="http://www.w3.org/1999/xlink" width="1132" height="680" viewBox="0 0 1132 680" preserveAspectRatio="xMidYMid meet" font-family="sans-serif" font-size="13">
<rect width="1132" height="680" fill="white"/>
<text x="12" y="30" font-size="20" font-weight="bold">codegen_spirv — full phase breakdown across releases (median ms)</text>
<text x="68" y="60" font-size="15" font-weight="600" fill="#1a1a1a">codegen_spirv<tspan fill="#888" font-weight="400" text-decoration="none">  0.41×</tspan></text>
<line x1="68.0" y1="516.0" x2="1108.0" y2="516.0" stroke="#eee"/>
<text x="64.0" y="519.0" text-anchor="end" fill="#999">0.0</text>
<line x1="68.0" y1="296.0" x2="1108.0" y2="296.0" stroke="#eee"/>
<text x="64.0" y="299.0" text-anchor="end" fill="#999">1271</text>
<line x1="68.0" y1="76.0" x2="1108.0" y2="76.0" stroke="#eee"/>
<text x="64.0" y="79.0" text-anchor="end" fill="#999">2541</text>
<line x1="68.0" y1="76.0" x2="68.0" y2="516.0" stroke="#333"/>
<line x1="68.0" y1="516.0" x2="1108.0" y2="516.0" stroke="#333"/>
<line x1="1083.2" y1="76.0" x2="1083.2" y2="516.0" stroke="#e8731a" stroke-width="1.2" stroke-dasharray="4 3"/>
<text x="1086.2" y="87.0" fill="#e8731a" font-size="11">daily →</text>
<line x1="68.0" y1="516.0" x2="68.0" y2="519.0" stroke="#999"/>
<text x="68.0" y="531.0" text-anchor="end" fill="#666" transform="rotate(-50 68.0 531.0)">25.14</text>
<line x1="117.5" y1="516.0" x2="117.5" y2="519.0" stroke="#999"/>
<text x="117.5" y="531.0" text-anchor="end" fill="#666" transform="rotate(-50 117.5 531.0)">25.15</text>
<line x1="167.0" y1="516.0" x2="167.0" y2="519.0" stroke="#999"/>
<text x="167.0" y="531.0" text-anchor="end" fill="#666" transform="rotate(-50 167.0 531.0)">25.16</text>
<line x1="216.6" y1="516.0" x2="216.6" y2="519.0" stroke="#999"/>
<text x="216.6" y="531.0" text-anchor="end" fill="#666" transform="rotate(-50 216.6 531.0)">25.17</text>
<line x1="266.1" y1="516.0" x2="266.1" y2="519.0" stroke="#999"/>
<text x="266.1" y="531.0" text-anchor="end" fill="#666" transform="rotate(-50 266.1 531.0)">25.18</text>
<line x1="315.6" y1="516.0" x2="315.6" y2="519.0" stroke="#999"/>
<text x="315.6" y="531.0" text-anchor="end" fill="#666" transform="rotate(-50 315.6 531.0)">25.19</text>
<line x1="365.1" y1="516.0" x2="365.1" y2="519.0" stroke="#999"/>
<text x="365.1" y="531.0" text-anchor="end" fill="#666" transform="rotate(-50 365.1 531.0)">25.20</text>
<line x1="414.7" y1="516.0" x2="414.7" y2="519.0" stroke="#999"/>
<text x="414.7" y="531.0" text-anchor="end" fill="#666" transform="rotate(-50 414.7 531.0)">25.21</text>
<line x1="464.2" y1="516.0" x2="464.2" y2="519.0" stroke="#999"/>
<text x="464.2" y="531.0" text-anchor="end" fill="#666" transform="rotate(-50 464.2 531.0)">25.22</text>
<line x1="513.7" y1="516.0" x2="513.7" y2="519.0" stroke="#999"/>
<text x="513.7" y="531.0" text-anchor="end" fill="#666" transform="rotate(-50 513.7 531.0)">25.23</text>
<line x1="563.2" y1="516.0" x2="563.2" y2="519.0" stroke="#999"/>
<text x="563.2" y="531.0" text-anchor="end" fill="#666" transform="rotate(-50 563.2 531.0)">25.24</text>
<line x1="612.8" y1="516.0" x2="612.8" y2="519.0" stroke="#999"/>
<text x="612.8" y="531.0" text-anchor="end" fill="#666" transform="rotate(-50 612.8 531.0)">26.1</text>
<line x1="662.3" y1="516.0" x2="662.3" y2="519.0" stroke="#999"/>
<text x="662.3" y="531.0" text-anchor="end" fill="#666" transform="rotate(-50 662.3 531.0)">26.2</text>
<line x1="711.8" y1="516.0" x2="711.8" y2="519.0" stroke="#999"/>
<text x="711.8" y="531.0" text-anchor="end" fill="#666" transform="rotate(-50 711.8 531.0)">26.3</text>
<line x1="761.3" y1="516.0" x2="761.3" y2="519.0" stroke="#999"/>
<text x="761.3" y="531.0" text-anchor="end" fill="#666" transform="rotate(-50 761.3 531.0)">26.4</text>
<line x1="810.9" y1="516.0" x2="810.9" y2="519.0" stroke="#999"/>
<text x="810.9" y="531.0" text-anchor="end" fill="#666" transform="rotate(-50 810.9 531.0)">26.5</text>
<line x1="860.4" y1="516.0" x2="860.4" y2="519.0" stroke="#999"/>
<text x="860.4" y="531.0" text-anchor="end" fill="#666" transform="rotate(-50 860.4 531.0)">26.7</text>
<line x1="909.9" y1="516.0" x2="909.9" y2="519.0" stroke="#999"/>
<text x="909.9" y="531.0" text-anchor="end" fill="#666" transform="rotate(-50 909.9 531.0)">26.8</text>
<line x1="959.4" y1="516.0" x2="959.4" y2="519.0" stroke="#999"/>
<text x="959.4" y="531.0" text-anchor="end" fill="#666" transform="rotate(-50 959.4 531.0)">26.9</text>
<line x1="1009.0" y1="516.0" x2="1009.0" y2="519.0" stroke="#999"/>
<text x="1009.0" y="531.0" text-anchor="end" fill="#666" transform="rotate(-50 1009.0 531.0)">26.10</text>
<line x1="1058.5" y1="516.0" x2="1058.5" y2="519.0" stroke="#999"/>
<text x="1058.5" y="531.0" text-anchor="end" fill="#666" transform="rotate(-50 1058.5 531.0)">26.11</text>
<line x1="1108.0" y1="516.0" x2="1108.0" y2="519.0" stroke="#999"/>
<text x="1108.0" y="531.0" text-anchor="end" fill="#e8731a" transform="rotate(-50 1108.0 531.0)">06-25</text>
<polygon points="68.0,515.8 117.5,515.8 167.0,515.8 216.6,515.8 266.1,515.8 315.6,515.8 365.1,515.8 414.7,515.8 464.2,515.8 513.7,515.8 563.2,515.8 612.8,515.8 662.3,515.8 711.8,515.8 761.3,515.8 810.9,515.8 860.4,515.8 909.9,515.8 959.4,515.8 1009.0,515.8 1058.5,515.8 1108.0,515.8 1108.0,516.0 1058.5,516.0 1009.0,516.0 959.4,516.0 909.9,516.0 860.4,516.0 810.9,516.0 761.3,516.0 711.8,516.0 662.3,516.0 612.8,516.0 563.2,516.0 513.7,516.0 464.2,516.0 414.7,516.0 365.1,516.0 315.6,516.0 266.1,516.0 216.6,516.0 167.0,516.0 117.5,516.0 68.0,516.0" fill="#c7e9c0" fill-opacity="0.9" stroke="#fff" stroke-width="0.4"><title>codegen_spirv — parseTranslationUnit</title></polygon>
<polygon points="68.0,508.3 117.5,506.7 167.0,506.7 216.6,506.3 266.1,506.4 315.6,506.5 365.1,506.5 414.7,506.4 464.2,506.2 513.7,506.1 563.2,506.2 612.8,505.9 662.3,505.6 711.8,505.5 761.3,504.8 810.9,505.1 860.4,503.5 909.9,503.4 959.4,503.3 1009.0,503.2 1058.5,510.2 1108.0,509.5 1108.0,515.8 1058.5,515.8 1009.0,515.8 959.4,515.8 909.9,515.8 860.4,515.8 810.9,515.8 761.3,515.8 711.8,515.8 662.3,515.8 612.8,515.8 563.2,515.8 513.7,515.8 464.2,515.8 414.7,515.8 365.1,515.8 315.6,515.8 266.1,515.8 216.6,515.8 167.0,515.8 117.5,515.8 68.0,515.8" fill="#41ab5d" fill-opacity="0.9" stroke="#fff" stroke-width="0.4"><title>codegen_spirv — SemanticChecking</title></polygon>
<polygon points="68.0,506.7 117.5,505.0 167.0,505.0 216.6,504.6 266.1,504.8 315.6,504.8 365.1,504.8 414.7,504.7 464.2,504.5 513.7,504.5 563.2,504.6 612.8,504.2 662.3,503.9 711.8,503.9 761.3,503.2 810.9,503.4 860.4,500.6 909.9,500.5 959.4,500.4 1009.0,500.3 1058.5,507.5 1108.0,506.7 1108.0,509.5 1058.5,510.2 1009.0,503.2 959.4,503.3 909.9,503.4 860.4,503.5 810.9,505.1 761.3,504.8 711.8,505.5 662.3,505.6 612.8,505.9 563.2,506.2 513.7,506.1 464.2,506.2 414.7,506.4 365.1,506.5 315.6,506.5 266.1,506.4 216.6,506.3 167.0,506.7 117.5,506.7 68.0,508.3" fill="#006d2c" fill-opacity="0.9" stroke="#fff" stroke-width="0.4"><title>codegen_spirv — generateIR</title></polygon>
<polygon points="68.0,506.6 117.5,505.0 167.0,504.9 216.6,504.6 266.1,504.7 315.6,504.8 365.1,504.8 414.7,504.7 464.2,504.5 513.7,504.4 563.2,504.5 612.8,504.1 662.3,503.8 711.8,503.8 761.3,503.1 810.9,503.3 860.4,500.5 909.9,500.4 959.4,500.3 1009.0,500.3 1058.5,507.5 1108.0,506.7 1108.0,506.7 1058.5,507.5 1009.0,500.3 959.4,500.4 909.9,500.5 860.4,500.6 810.9,503.4 761.3,503.2 711.8,503.9 662.3,503.9 612.8,504.2 563.2,504.6 513.7,504.5 464.2,504.5 414.7,504.7 365.1,504.8 315.6,504.8 266.1,504.8 216.6,504.6 167.0,505.0 117.5,505.0 68.0,506.7" fill="#74c476" fill-opacity="0.9" stroke="#fff" stroke-width="0.4"><title>codegen_spirv — frontEndExecute (self)</title></polygon>
<polygon points="68.0,505.7 117.5,504.1 167.0,504.1 216.6,503.7 266.1,503.9 315.6,504.0 365.1,503.9 414.7,503.9 464.2,503.6 513.7,503.6 563.2,502.9 612.8,502.5 662.3,502.2 711.8,502.2 761.3,501.4 810.9,501.5 860.4,494.5 909.9,495.0 959.4,494.9 1009.0,494.8 1058.5,502.4 1108.0,501.4 1108.0,506.7 1058.5,507.5 1009.0,500.3 959.4,500.3 909.9,500.4 860.4,500.5 810.9,503.3 761.3,503.1 711.8,503.8 662.3,503.8 612.8,504.1 563.2,504.5 513.7,504.4 464.2,504.5 414.7,504.7 365.1,504.8 315.6,504.8 266.1,504.7 216.6,504.6 167.0,504.9 117.5,505.0 68.0,506.6" fill="#6baed6" fill-opacity="0.9" stroke="#fff" stroke-width="0.4"><title>codegen_spirv — specializeModule</title></polygon>
<polygon points="68.0,504.0 117.5,502.4 167.0,502.3 216.6,502.0 266.1,502.2 315.6,502.3 365.1,502.2 414.7,502.2 464.2,501.9 513.7,501.9 563.2,501.4 612.8,501.0 662.3,500.7 711.8,500.6 761.3,499.8 810.9,499.9 860.4,479.6 909.9,479.9 959.4,480.0 1009.0,479.8 1058.5,488.2 1108.0,486.7 1108.0,501.4 1058.5,502.4 1009.0,494.8 959.4,494.9 909.9,495.0 860.4,494.5 810.9,501.5 761.3,501.4 711.8,502.2 662.3,502.2 612.8,502.5 563.2,502.9 513.7,503.6 464.2,503.6 414.7,503.9 365.1,503.9 315.6,504.0 266.1,503.9 216.6,503.7 167.0,504.1 117.5,504.1 68.0,505.7" fill="#2171b5" fill-opacity="0.9" stroke="#fff" stroke-width="0.4"><title>codegen_spirv — simplifyIR</title></polygon>
<polygon points="68.0,503.7 117.5,502.1 167.0,502.0 216.6,501.7 266.1,501.9 315.6,502.0 365.1,501.9 414.7,501.9 464.2,501.6 513.7,501.6 563.2,501.1 612.8,500.7 662.3,500.4 711.8,500.4 761.3,499.4 810.9,499.6 860.4,476.4 909.9,476.6 959.4,476.8 1009.0,476.5 1058.5,487.9 1108.0,486.4 1108.0,486.7 1058.5,488.2 1009.0,479.8 959.4,480.0 909.9,479.9 860.4,479.6 810.9,499.9 761.3,499.8 711.8,500.6 662.3,500.7 612.8,501.0 563.2,501.4 513.7,501.9 464.2,501.9 414.7,502.2 365.1,502.2 315.6,502.3 266.1,502.2 216.6,502.0 167.0,502.3 117.5,502.4 68.0,504.0" fill="#08306b" fill-opacity="0.9" stroke="#fff" stroke-width="0.4"><title>codegen_spirv — linkIR</title></polygon>
<polygon points="68.0,503.7 117.5,502.1 167.0,502.0 216.6,501.7 266.1,501.9 315.6,502.0 365.1,501.9 414.7,501.8 464.2,501.6 513.7,501.6 563.2,501.1 612.8,500.7 662.3,500.4 711.8,500.4 761.3,499.4 810.9,499.6 860.4,476.4 909.9,476.6 959.4,476.8 1009.0,476.5 1058.5,487.9 1108.0,486.4 1108.0,486.4 1058.5,487.9 1009.0,476.5 959.4,476.8 909.9,476.6 860.4,476.4 810.9,499.6 761.3,499.4 711.8,500.4 662.3,500.4 612.8,500.7 563.2,501.1 513.7,501.6 464.2,501.6 414.7,501.9 365.1,501.9 315.6,502.0 266.1,501.9 216.6,501.7 167.0,502.0 117.5,502.1 68.0,503.7" fill="#9e9ac8" fill-opacity="0.9" stroke="#fff" stroke-width="0.4"><title>codegen_spirv — unrollLoopsInModule</title></polygon>
<polygon points="68.0,359.5 117.5,368.3 167.0,363.3 216.6,362.9 266.1,465.9 315.6,466.1 365.1,466.2 414.7,464.9 464.2,465.5 513.7,465.8 563.2,464.7 612.8,464.3 662.3,463.7 711.8,463.9 761.3,461.9 810.9,462.5 860.4,439.5 909.9,439.0 959.4,439.7 1009.0,438.9 1058.5,449.5 1108.0,447.9 1108.0,486.4 1058.5,487.9 1009.0,476.5 959.4,476.8 909.9,476.6 860.4,476.4 810.9,499.6 761.3,499.4 711.8,500.4 662.3,500.4 612.8,500.7 563.2,501.1 513.7,501.6 464.2,501.6 414.7,501.8 365.1,501.9 315.6,502.0 266.1,501.9 216.6,501.7 167.0,502.0 117.5,502.1 68.0,503.7" fill="#807dba" fill-opacity="0.9" stroke="#fff" stroke-width="0.4"><title>codegen_spirv — legalizeResourceTypes</title></polygon>
<polygon points="68.0,215.4 117.5,234.9 167.0,225.1 216.6,224.5 266.1,429.6 315.6,430.2 365.1,430.4 414.7,428.3 464.2,429.2 513.7,429.9 563.2,428.4 612.8,428.0 662.3,427.1 711.8,427.5 761.3,424.1 810.9,425.1 860.4,402.8 909.9,401.5 959.4,402.2 1009.0,401.2 1058.5,411.0 1108.0,409.3 1108.0,447.9 1058.5,449.5 1009.0,438.9 959.4,439.7 909.9,439.0 860.4,439.5 810.9,462.5 761.3,461.9 711.8,463.9 662.3,463.7 612.8,464.3 563.2,464.7 513.7,465.8 464.2,465.5 414.7,464.9 365.1,466.2 315.6,466.1 266.1,465.9 216.6,362.9 167.0,363.3 117.5,368.3 68.0,359.5" fill="#6a51a3" fill-opacity="0.9" stroke="#fff" stroke-width="0.4"><title>codegen_spirv — legalizeExistentialTypeLayout</title></polygon>
<polygon points="68.0,215.4 117.5,234.8 167.0,225.0 216.6,224.4 266.1,429.5 315.6,430.1 365.1,430.3 414.7,428.2 464.2,429.1 513.7,429.8 563.2,428.4 612.8,427.9 662.3,427.0 711.8,427.4 761.3,424.0 810.9,425.0 860.4,402.7 909.9,401.5 959.4,402.2 1009.0,401.2 1058.5,410.9 1108.0,409.3 1108.0,409.3 1058.5,411.0 1009.0,401.2 959.4,402.2 909.9,401.5 860.4,402.8 810.9,425.1 761.3,424.1 711.8,427.5 662.3,427.1 612.8,428.0 563.2,428.4 513.7,429.9 464.2,429.2 414.7,428.3 365.1,430.4 315.6,430.2 266.1,429.6 216.6,224.5 167.0,225.1 117.5,234.9 68.0,215.4" fill="#bcbddc" fill-opacity="0.9" stroke="#fff" stroke-width="0.4"><title>codegen_spirv — performMandatoryEarlyInlining</title></polygon>
<polygon points="68.0,215.3 117.5,234.7 167.0,224.9 216.6,224.3 266.1,429.5 315.6,430.0 365.1,430.3 414.7,428.1 464.2,429.0 513.7,429.7 563.2,428.3 612.8,427.8 662.3,426.9 711.8,427.3 761.3,423.9 810.9,424.9 860.4,402.6 909.9,401.4 959.4,402.1 1009.0,401.1 1058.5,410.8 1108.0,409.2 1108.0,409.3 1058.5,410.9 1009.0,401.2 959.4,402.2 909.9,401.5 860.4,402.7 810.9,425.0 761.3,424.0 711.8,427.4 662.3,427.0 612.8,427.9 563.2,428.4 513.7,429.8 464.2,429.1 414.7,428.2 365.1,430.3 315.6,430.1 266.1,429.5 216.6,224.4 167.0,225.0 117.5,234.8 68.0,215.4" fill="#dadaeb" fill-opacity="0.9" stroke="#fff" stroke-width="0.4"><title>codegen_spirv — performForceInlining</title></polygon>
<polygon points="68.0,213.0 117.5,232.4 167.0,222.6 216.6,221.9 266.1,427.1 315.6,427.7 365.1,427.8 414.7,425.6 464.2,426.5 513.7,427.3 563.2,425.8 612.8,425.1 662.3,424.2 711.8,424.8 761.3,421.0 810.9,422.0 860.4,379.8 909.9,378.3 959.4,378.7 1009.0,377.9 1058.5,388.5 1108.0,387.7 1108.0,409.2 1058.5,410.8 1009.0,401.1 959.4,402.1 909.9,401.4 860.4,402.6 810.9,424.9 761.3,423.9 711.8,427.3 662.3,426.9 612.8,427.8 563.2,428.3 513.7,429.7 464.2,429.0 414.7,428.1 365.1,430.3 315.6,430.0 266.1,429.5 216.6,224.3 167.0,224.9 117.5,234.7 68.0,215.3" fill="#4a1486" fill-opacity="0.9" stroke="#fff" stroke-width="0.4"><title>codegen_spirv — linkAndOptimizeIR (self)</title></polygon>
<polygon points="68.0,108.6 117.5,125.1 167.0,114.2 216.6,118.1 266.1,388.2 315.6,388.8 365.1,389.3 414.7,386.7 464.2,387.6 513.7,388.7 563.2,386.3 612.8,386.0 662.3,384.8 711.8,385.6 761.3,380.9 810.9,382.0 860.4,340.1 909.9,338.3 959.4,338.8 1009.0,337.9 1058.5,348.2 1108.0,348.9 1108.0,387.7 1058.5,388.5 1009.0,377.9 959.4,378.7 909.9,378.3 860.4,379.8 810.9,422.0 761.3,421.0 711.8,424.8 662.3,424.2 612.8,425.1 563.2,425.8 513.7,427.3 464.2,426.5 414.7,425.6 365.1,427.8 315.6,427.7 266.1,427.1 216.6,221.9 167.0,222.6 117.5,232.4 68.0,213.0" fill="#e6550d" fill-opacity="0.9" stroke="#fff" stroke-width="0.4"><title>codegen_spirv — generateOutput (self)</title></polygon>
<polygon points="68.0,108.6 117.5,125.1 167.0,114.1 216.6,118.1 266.1,388.1 315.6,388.8 365.1,389.2 414.7,386.6 464.2,387.6 513.7,388.6 563.2,386.3 612.8,386.0 662.3,384.7 711.8,385.5 761.3,380.9 810.9,382.0 860.4,340.0 909.9,338.3 959.4,338.7 1009.0,337.8 1058.5,348.2 1108.0,348.8 1108.0,348.9 1058.5,348.2 1009.0,337.9 959.4,338.8 909.9,338.3 860.4,340.1 810.9,382.0 761.3,380.9 711.8,385.6 662.3,384.8 612.8,386.0 563.2,386.3 513.7,388.7 464.2,387.6 414.7,386.7 365.1,389.3 315.6,388.8 266.1,388.2 216.6,118.1 167.0,114.2 117.5,125.1 68.0,108.6" fill="#969696" fill-opacity="0.9" stroke="#fff" stroke-width="0.4"><title>codegen_spirv — compileInner (self)</title></polygon>
<text x="12" y="578" fill="#666" font-weight="600">phase buckets</text>
<rect x="12" y="586" width="12" height="12" fill="#c7e9c0"/>
<text x="28" y="596" fill="#222">parseTranslationUnit</text>
<rect x="289" y="586" width="12" height="12" fill="#41ab5d"/>
<text x="305" y="596" fill="#222">SemanticChecking</text>
<rect x="566" y="586" width="12" height="12" fill="#006d2c"/>
<text x="582" y="596" fill="#222">generateIR</text>
<rect x="843" y="586" width="12" height="12" fill="#74c476"/>
<text x="859" y="596" fill="#222">frontEndExecute (self)</text>
<rect x="12" y="604" width="12" height="12" fill="#6baed6"/>
<text x="28" y="614" fill="#222">specializeModule</text>
<rect x="289" y="604" width="12" height="12" fill="#2171b5"/>
<text x="305" y="614" fill="#222">simplifyIR</text>
<rect x="566" y="604" width="12" height="12" fill="#08306b"/>
<text x="582" y="614" fill="#222">linkIR</text>
<rect x="843" y="604" width="12" height="12" fill="#9e9ac8"/>
<text x="859" y="614" fill="#222">unrollLoopsInModule</text>
<rect x="12" y="622" width="12" height="12" fill="#807dba"/>
<text x="28" y="632" fill="#222">legalizeResourceTypes</text>
<rect x="289" y="622" width="12" height="12" fill="#6a51a3"/>
<text x="305" y="632" fill="#222">legalizeExistentialTypeLayout</text>
<rect x="566" y="622" width="12" height="12" fill="#bcbddc"/>
<text x="582" y="632" fill="#222">performMandatoryEarlyInlining</text>
<rect x="843" y="622" width="12" height="12" fill="#dadaeb"/>
<text x="859" y="632" fill="#222">performForceInlining</text>
<rect x="12" y="640" width="12" height="12" fill="#4a1486"/>
<text x="28" y="650" fill="#222">linkAndOptimizeIR (self)</text>
<rect x="289" y="640" width="12" height="12" fill="#fd8d3c"/>
<text x="305" y="650" fill="#222">emitEntryPointsSourceFromIR</text>
<rect x="566" y="640" width="12" height="12" fill="#e6550d"/>
<text x="582" y="650" fill="#222">generateOutput (self)</text>
<rect x="843" y="640" width="12" height="12" fill="#969696"/>
<text x="859" y="650" fill="#222">compileInner (self)</text>
</svg>