<svg xmlns="http://www.w3.org/2000/svg" xmlns:xlink="http://www.w3.org/1999/xlink" width="1132" height="680" viewBox="0 0 1132 680" preserveAspectRatio="xMidYMid meet" font-family="sans-serif" font-size="13">
<rect width="1132" height="680" fill="white"/>
<text x="12" y="30" font-size="20" font-weight="bold">codegen_ptx — Daily tip-of-tree (last 30 days) (median ms)</text>
<text x="68" y="60" font-size="15" font-weight="600" fill="#1a1a1a">codegen_ptx<tspan fill="#888" font-weight="400" text-decoration="none">  0.54×</tspan></text>
<line x1="68.0" y1="516.0" x2="1108.0" y2="516.0" stroke="#eee"/>
<text x="64.0" y="519.0" text-anchor="end" fill="#999">0.0</text>
<line x1="68.0" y1="296.0" x2="1108.0" y2="296.0" stroke="#eee"/>
<text x="64.0" y="299.0" text-anchor="end" fill="#999">479</text>
<line x1="68.0" y1="76.0" x2="1108.0" y2="76.0" stroke="#eee"/>
<text x="64.0" y="79.0" text-anchor="end" fill="#999">958</text>
<line x1="68.0" y1="76.0" x2="68.0" y2="516.0" stroke="#333"/>
<line x1="68.0" y1="516.0" x2="1108.0" y2="516.0" stroke="#333"/>
<line x1="68.0" y1="516.0" x2="68.0" y2="519.0" stroke="#999"/>
<text x="68.0" y="531.0" text-anchor="end" fill="#e8731a" transform="rotate(-50 68.0 531.0)">06-25</text>
<line x1="137.3" y1="516.0" x2="137.3" y2="519.0" stroke="#999"/>
<text x="137.3" y="531.0" text-anchor="end" fill="#e8731a" transform="rotate(-50 137.3 531.0)">06-26</text>
<line x1="206.7" y1="516.0" x2="206.7" y2="519.0" stroke="#999"/>
<text x="206.7" y="531.0" text-anchor="end" fill="#e8731a" transform="rotate(-50 206.7 531.0)">06-28</text>
<line x1="276.0" y1="516.0" x2="276.0" y2="519.0" stroke="#999"/>
<text x="276.0" y="531.0" text-anchor="end" fill="#e8731a" transform="rotate(-50 276.0 531.0)">07-01</text>
<line x1="345.3" y1="516.0" x2="345.3" y2="519.0" stroke="#999"/>
<text x="345.3" y="531.0" text-anchor="end" fill="#e8731a" transform="rotate(-50 345.3 531.0)">07-02</text>
<line x1="414.7" y1="516.0" x2="414.7" y2="519.0" stroke="#999"/>
<text x="414.7" y="531.0" text-anchor="end" fill="#e8731a" transform="rotate(-50 414.7 531.0)">07-03</text>
<line x1="484.0" y1="516.0" x2="484.0" y2="519.0" stroke="#999"/>
<text x="484.0" y="531.0" text-anchor="end" fill="#e8731a" transform="rotate(-50 484.0 531.0)">07-06</text>
<line x1="553.3" y1="516.0" x2="553.3" y2="519.0" stroke="#999"/>
<text x="553.3" y="531.0" text-anchor="end" fill="#e8731a" transform="rotate(-50 553.3 531.0)">07-07</text>
<line x1="622.7" y1="516.0" x2="622.7" y2="519.0" stroke="#999"/>
<text x="622.7" y="531.0" text-anchor="end" fill="#e8731a" transform="rotate(-50 622.7 531.0)">07-08</text>
<line x1="692.0" y1="516.0" x2="692.0" y2="519.0" stroke="#999"/>
<text x="692.0" y="531.0" text-anchor="end" fill="#e8731a" transform="rotate(-50 692.0 531.0)">07-09</text>
<line x1="761.3" y1="516.0" x2="761.3" y2="519.0" stroke="#999"/>
<text x="761.3" y="531.0" text-anchor="end" fill="#e8731a" transform="rotate(-50 761.3 531.0)">07-10</text>
<line x1="830.7" y1="516.0" x2="830.7" y2="519.0" stroke="#999"/>
<text x="830.7" y="531.0" text-anchor="end" fill="#e8731a" transform="rotate(-50 830.7 531.0)">07-11</text>
<line x1="900.0" y1="516.0" x2="900.0" y2="519.0" stroke="#999"/>
<text x="900.0" y="531.0" text-anchor="end" fill="#e8731a" transform="rotate(-50 900.0 531.0)">07-14</text>
<line x1="969.3" y1="516.0" x2="969.3" y2="519.0" stroke="#999"/>
<text x="969.3" y="531.0" text-anchor="end" fill="#e8731a" transform="rotate(-50 969.3 531.0)">07-15</text>
<line x1="1038.7" y1="516.0" x2="1038.7" y2="519.0" stroke="#999"/>
<text x="1038.7" y="531.0" text-anchor="end" fill="#e8731a" transform="rotate(-50 1038.7 531.0)">07-15</text>
<line x1="1108.0" y1="516.0" x2="1108.0" y2="519.0" stroke="#999"/>
<text x="1108.0" y="531.0" text-anchor="end" fill="#e8731a" transform="rotate(-50 1108.0 531.0)">07-16</text>
<polygon points="68.0,515.5 137.3,515.5 206.7,515.5 276.0,515.5 345.3,515.5 414.7,515.5 484.0,515.5 553.3,515.6 622.7,515.6 692.0,515.6 761.3,515.6 830.7,515.6 900.0,515.6 969.3,515.6 1038.7,515.6 1108.0,515.6 1108.0,516.0 1038.7,516.0 969.3,516.0 900.0,516.0 830.7,516.0 761.3,516.0 692.0,516.0 622.7,516.0 553.3,516.0 484.0,516.0 414.7,516.0 345.3,516.0 276.0,516.0 206.7,516.0 137.3,516.0 68.0,516.0" fill="#c7e9c0" fill-opacity="0.9" stroke="#fff" stroke-width="0.4"><title>codegen_ptx — parseTranslationUnit</title></polygon>
<polygon points="68.0,498.8 137.3,498.3 206.7,498.9 276.0,498.1 345.3,498.4 414.7,498.3 484.0,498.2 553.3,499.3 622.7,499.4 692.0,499.2 761.3,498.6 830.7,499.0 900.0,498.5 969.3,500.0 1038.7,499.8 1108.0,497.9 1108.0,515.6 1038.7,515.6 969.3,515.6 900.0,515.6 830.7,515.6 761.3,515.6 692.0,515.6 622.7,515.6 553.3,515.6 484.0,515.5 414.7,515.5 345.3,515.5 276.0,515.5 206.7,515.5 137.3,515.5 68.0,515.5" fill="#41ab5d" fill-opacity="0.9" stroke="#fff" stroke-width="0.4"><title>codegen_ptx — SemanticChecking</title></polygon>
<polygon points="68.0,491.0 137.3,490.2 206.7,491.2 276.0,489.8 345.3,490.5 414.7,490.2 484.0,489.9 553.3,491.4 622.7,491.6 692.0,491.4 761.3,493.9 830.7,494.3 900.0,493.4 969.3,495.3 1038.7,495.0 1108.0,493.0 1108.0,497.9 1038.7,499.8 969.3,500.0 900.0,498.5 830.7,499.0 761.3,498.6 692.0,499.2 622.7,499.4 553.3,499.3 484.0,498.2 414.7,498.3 345.3,498.4 276.0,498.1 206.7,498.9 137.3,498.3 68.0,498.8" fill="#006d2c" fill-opacity="0.9" stroke="#fff" stroke-width="0.4"><title>codegen_ptx — generateIR</title></polygon>
<polygon points="68.0,490.8 137.3,490.1 206.7,491.0 276.0,489.5 345.3,490.5 414.7,490.0 484.0,489.6 553.3,491.2 622.7,491.4 692.0,491.2 761.3,493.7 830.7,494.1 900.0,493.2 969.3,495.1 1038.7,494.8 1108.0,492.9 1108.0,493.0 1038.7,495.0 969.3,495.3 900.0,493.4 830.7,494.3 761.3,493.9 692.0,491.4 622.7,491.6 553.3,491.4 484.0,489.9 414.7,490.2 345.3,490.5 276.0,489.8 206.7,491.2 137.3,490.2 68.0,491.0" fill="#74c476" fill-opacity="0.9" stroke="#fff" stroke-width="0.4"><title>codegen_ptx — frontEndExecute (self)</title></polygon>
<polygon points="68.0,476.9 137.3,475.9 206.7,477.1 276.0,474.2 345.3,476.5 414.7,475.8 484.0,475.4 553.3,475.6 622.7,476.0 692.0,475.9 761.3,487.2 830.7,487.5 900.0,486.7 969.3,489.1 1038.7,488.8 1108.0,487.0 1108.0,492.9 1038.7,494.8 969.3,495.1 900.0,493.2 830.7,494.1 761.3,493.7 692.0,491.2 622.7,491.4 553.3,491.2 484.0,489.6 414.7,490.0 345.3,490.5 276.0,489.5 206.7,491.0 137.3,490.1 68.0,490.8" fill="#6baed6" fill-opacity="0.9" stroke="#fff" stroke-width="0.4"><title>codegen_ptx — specializeModule</title></polygon>
<polygon points="68.0,431.1 137.3,429.6 206.7,430.9 276.0,425.4 345.3,429.9 414.7,429.2 484.0,428.9 553.3,427.3 622.7,429.6 692.0,429.8 761.3,480.5 830.7,480.8 900.0,479.8 969.3,482.0 1038.7,481.8 1108.0,480.1 1108.0,487.0 1038.7,488.8 969.3,489.1 900.0,486.7 830.7,487.5 761.3,487.2 692.0,475.9 622.7,476.0 553.3,475.6 484.0,475.4 414.7,475.8 345.3,476.5 276.0,474.2 206.7,477.1 137.3,475.9 68.0,476.9" fill="#2171b5" fill-opacity="0.9" stroke="#fff" stroke-width="0.4"><title>codegen_ptx — simplifyIR</title></polygon>
<polygon points="68.0,430.3 137.3,428.7 206.7,430.0 276.0,424.5 345.3,429.0 414.7,428.3 484.0,428.0 553.3,426.6 622.7,428.9 692.0,429.1 761.3,479.8 830.7,480.0 900.0,479.0 969.3,481.3 1038.7,481.1 1108.0,479.4 1108.0,480.1 1038.7,481.8 969.3,482.0 900.0,479.8 830.7,480.8 761.3,480.5 692.0,429.8 622.7,429.6 553.3,427.3 484.0,428.9 414.7,429.2 345.3,429.9 276.0,425.4 206.7,430.9 137.3,429.6 68.0,431.1" fill="#08306b" fill-opacity="0.9" stroke="#fff" stroke-width="0.4"><title>codegen_ptx — linkIR</title></polygon>
<polygon points="68.0,430.3 137.3,428.7 206.7,430.0 276.0,424.5 345.3,428.9 414.7,428.3 484.0,428.0 553.3,426.6 622.7,428.9 692.0,429.0 761.3,479.8 830.7,480.0 900.0,479.0 969.3,481.3 1038.7,481.1 1108.0,479.4 1108.0,479.4 1038.7,481.1 969.3,481.3 900.0,479.0 830.7,480.0 761.3,479.8 692.0,429.1 622.7,428.9 553.3,426.6 484.0,428.0 414.7,428.3 345.3,429.0 276.0,424.5 206.7,430.0 137.3,428.7 68.0,430.3" fill="#9e9ac8" fill-opacity="0.9" stroke="#fff" stroke-width="0.4"><title>codegen_ptx — unrollLoopsInModule</title></polygon>
<polygon points="68.0,430.1 137.3,428.5 206.7,429.8 276.0,424.4 345.3,428.8 414.7,428.2 484.0,427.8 553.3,426.4 622.7,428.7 692.0,428.8 761.3,479.5 830.7,479.8 900.0,478.8 969.3,481.1 1038.7,480.9 1108.0,479.2 1108.0,479.4 1038.7,481.1 969.3,481.3 900.0,479.0 830.7,480.0 761.3,479.8 692.0,429.0 622.7,428.9 553.3,426.6 484.0,428.0 414.7,428.3 345.3,428.9 276.0,424.5 206.7,430.0 137.3,428.7 68.0,430.3" fill="#bcbddc" fill-opacity="0.9" stroke="#fff" stroke-width="0.4"><title>codegen_ptx — performMandatoryEarlyInlining</title></polygon>
<polygon points="68.0,430.0 137.3,428.4 206.7,429.7 276.0,424.3 345.3,428.7 414.7,428.0 484.0,427.7 553.3,426.2 622.7,428.5 692.0,428.7 761.3,479.4 830.7,479.7 900.0,478.7 969.3,481.0 1038.7,480.8 1108.0,479.1 1108.0,479.2 1038.7,480.9 969.3,481.1 900.0,478.8 830.7,479.8 761.3,479.5 692.0,428.8 622.7,428.7 553.3,426.4 484.0,427.8 414.7,428.2 345.3,428.8 276.0,424.4 206.7,429.8 137.3,428.5 68.0,430.1" fill="#dadaeb" fill-opacity="0.9" stroke="#fff" stroke-width="0.4"><title>codegen_ptx — performForceInlining</title></polygon>
<polygon points="68.0,322.4 137.3,320.5 206.7,321.9 276.0,311.4 345.3,319.3 414.7,314.3 484.0,314.8 553.3,305.4 622.7,324.5 692.0,323.3 761.3,412.8 830.7,412.8 900.0,409.6 969.3,410.9 1038.7,412.4 1108.0,409.9 1108.0,479.1 1038.7,480.8 969.3,481.0 900.0,478.7 830.7,479.7 761.3,479.4 692.0,428.7 622.7,428.5 553.3,426.2 484.0,427.7 414.7,428.0 345.3,428.7 276.0,424.3 206.7,429.7 137.3,428.4 68.0,430.0" fill="#4a1486" fill-opacity="0.9" stroke="#fff" stroke-width="0.4"><title>codegen_ptx — linkAndOptimizeIR (self)</title></polygon>
<polygon points="68.0,146.2 137.3,142.4 206.7,144.6 276.0,125.0 345.3,140.0 414.7,130.4 484.0,131.5 553.3,108.7 622.7,149.6 692.0,146.5 761.3,320.7 830.7,320.0 900.0,314.2 969.3,315.5 1038.7,318.7 1108.0,315.4 1108.0,409.9 1038.7,412.4 969.3,410.9 900.0,409.6 830.7,412.8 761.3,412.8 692.0,323.3 622.7,324.5 553.3,305.4 484.0,314.8 414.7,314.3 345.3,319.3 276.0,311.4 206.7,321.9 137.3,320.5 68.0,322.4" fill="#fd8d3c" fill-opacity="0.9" stroke="#fff" stroke-width="0.4"><title>codegen_ptx — emitEntryPointsSourceFromIR</title></polygon>
<polygon points="68.0,146.0 137.3,142.4 206.7,143.9 276.0,125.0 345.3,139.9 414.7,130.2 484.0,131.5 553.3,108.6 622.7,149.5 692.0,146.5 761.3,320.7 830.7,319.4 900.0,313.8 969.3,315.4 1038.7,318.7 1108.0,315.4 1108.0,315.4 1038.7,318.7 969.3,315.5 900.0,314.2 830.7,320.0 761.3,320.7 692.0,146.5 622.7,149.6 553.3,108.7 484.0,131.5 414.7,130.4 345.3,140.0 276.0,125.0 206.7,144.6 137.3,142.4 68.0,146.2" fill="#969696" fill-opacity="0.9" stroke="#fff" stroke-width="0.4"><title>codegen_ptx — compileInner (self)</title></polygon>
<text x="12" y="578" fill="#666" font-weight="600">phase buckets</text>
<rect x="12" y="586" width="12" height="12" fill="#c7e9c0"/>
<text x="28" y="596" fill="#222">parseTranslationUnit</text>
<rect x="289" y="586" width="12" height="12" fill="#41ab5d"/>
<text x="305" y="596" fill="#222">SemanticChecking</text>
<rect x="566" y="586" width="12" height="12" fill="#006d2c"/>
<text x="582" y="596" fill="#222">generateIR</text>
<rect x="843" y="586" width="12" height="12" fill="#74c476"/>
<text x="859" y="596" fill="#222">frontEndExecute (self)</text>
<rect x="12" y="604" width="12" height="12" fill="#6baed6"/>
<text x="28" y="614" fill="#222">specializeModule</text>
<rect x="289" y="604" width="12" height="12" fill="#2171b5"/>
<text x="305" y="614" fill="#222">simplifyIR</text>
<rect x="566" y="604" width="12" height="12" fill="#08306b"/>
<text x="582" y="614" fill="#222">linkIR</text>
<rect x="843" y="604" width="12" height="12" fill="#9e9ac8"/>
<text x="859" y="614" fill="#222">unrollLoopsInModule</text>
<rect x="12" y="622" width="12" height="12" fill="#807dba"/>
<text x="28" y="632" fill="#222">legalizeResourceTypes</text>
<rect x="289" y="622" width="12" height="12" fill="#6a51a3"/>
<text x="305" y="632" fill="#222">legalizeExistentialTypeLayout</text>
<rect x="566" y="622" width="12" height="12" fill="#bcbddc"/>
<text x="582" y="632" fill="#222">performMandatoryEarlyInlining</text>
<rect x="843" y="622" width="12" height="12" fill="#dadaeb"/>
<text x="859" y="632" fill="#222">performForceInlining</text>
<rect x="12" y="640" width="12" height="12" fill="#4a1486"/>
<text x="28" y="650" fill="#222">linkAndOptimizeIR (self)</text>
<rect x="289" y="640" width="12" height="12" fill="#fd8d3c"/>
<text x="305" y="650" fill="#222">emitEntryPointsSourceFromIR</text>
<rect x="566" y="640" width="12" height="12" fill="#e6550d"/>
<text x="582" y="650" fill="#222">generateOutput (self)</text>
<rect x="843" y="640" width="12" height="12" fill="#969696"/>
<text x="859" y="650" fill="#222">compileInner (self)</text>
</svg>