<svg xmlns="http://www.w3.org/2000/svg" xmlns:xlink="http://www.w3.org/1999/xlink" width="1132" height="680" viewBox="0 0 1132 680" preserveAspectRatio="xMidYMid meet" font-family="sans-serif" font-size="13">
<rect width="1132" height="680" fill="white"/>
<text x="12" y="30" font-size="20" font-weight="bold">codegen_dxil — full phase breakdown across releases (median ms)</text>
<text x="68" y="60" font-size="15" font-weight="600" fill="#1a1a1a">codegen_dxil<tspan fill="#888" font-weight="400" text-decoration="none">  0.44×</tspan></text>
<line x1="68.0" y1="516.0" x2="1108.0" y2="516.0" stroke="#eee"/>
<text x="64.0" y="519.0" text-anchor="end" fill="#999">0.0</text>
<line x1="68.0" y1="296.0" x2="1108.0" y2="296.0" stroke="#eee"/>
<text x="64.0" y="299.0" text-anchor="end" fill="#999">515</text>
<line x1="68.0" y1="76.0" x2="1108.0" y2="76.0" stroke="#eee"/>
<text x="64.0" y="79.0" text-anchor="end" fill="#999">1031</text>
<line x1="68.0" y1="76.0" x2="68.0" y2="516.0" stroke="#333"/>
<line x1="68.0" y1="516.0" x2="1108.0" y2="516.0" stroke="#333"/>
<line x1="706.9" y1="76.0" x2="706.9" y2="516.0" stroke="#e8731a" stroke-width="1.2" stroke-dasharray="4 3"/>
<text x="709.9" y="87.0" fill="#e8731a" font-size="11">daily →</text>
<line x1="68.0" y1="516.0" x2="68.0" y2="519.0" stroke="#999"/>
<text x="68.0" y="531.0" text-anchor="end" fill="#666" transform="rotate(-50 68.0 531.0)">25.14</text>
<line x1="97.7" y1="516.0" x2="97.7" y2="519.0" stroke="#999"/>
<text x="97.7" y="531.0" text-anchor="end" fill="#666" transform="rotate(-50 97.7 531.0)">25.15</text>
<line x1="127.4" y1="516.0" x2="127.4" y2="519.0" stroke="#999"/>
<text x="127.4" y="531.0" text-anchor="end" fill="#666" transform="rotate(-50 127.4 531.0)">25.16</text>
<line x1="157.1" y1="516.0" x2="157.1" y2="519.0" stroke="#999"/>
<text x="157.1" y="531.0" text-anchor="end" fill="#666" transform="rotate(-50 157.1 531.0)">25.17</text>
<line x1="186.9" y1="516.0" x2="186.9" y2="519.0" stroke="#999"/>
<text x="186.9" y="531.0" text-anchor="end" fill="#666" transform="rotate(-50 186.9 531.0)">25.18</text>
<line x1="216.6" y1="516.0" x2="216.6" y2="519.0" stroke="#999"/>
<text x="216.6" y="531.0" text-anchor="end" fill="#666" transform="rotate(-50 216.6 531.0)">25.19</text>
<line x1="246.3" y1="516.0" x2="246.3" y2="519.0" stroke="#999"/>
<text x="246.3" y="531.0" text-anchor="end" fill="#666" transform="rotate(-50 246.3 531.0)">25.20</text>
<line x1="276.0" y1="516.0" x2="276.0" y2="519.0" stroke="#999"/>
<text x="276.0" y="531.0" text-anchor="end" fill="#666" transform="rotate(-50 276.0 531.0)">25.21</text>
<line x1="305.7" y1="516.0" x2="305.7" y2="519.0" stroke="#999"/>
<text x="305.7" y="531.0" text-anchor="end" fill="#666" transform="rotate(-50 305.7 531.0)">25.22</text>
<line x1="335.4" y1="516.0" x2="335.4" y2="519.0" stroke="#999"/>
<text x="335.4" y="531.0" text-anchor="end" fill="#666" transform="rotate(-50 335.4 531.0)">25.23</text>
<line x1="365.1" y1="516.0" x2="365.1" y2="519.0" stroke="#999"/>
<text x="365.1" y="531.0" text-anchor="end" fill="#666" transform="rotate(-50 365.1 531.0)">25.24</text>
<line x1="394.9" y1="516.0" x2="394.9" y2="519.0" stroke="#999"/>
<text x="394.9" y="531.0" text-anchor="end" fill="#666" transform="rotate(-50 394.9 531.0)">26.1</text>
<line x1="424.6" y1="516.0" x2="424.6" y2="519.0" stroke="#999"/>
<text x="424.6" y="531.0" text-anchor="end" fill="#666" transform="rotate(-50 424.6 531.0)">26.2</text>
<line x1="454.3" y1="516.0" x2="454.3" y2="519.0" stroke="#999"/>
<text x="454.3" y="531.0" text-anchor="end" fill="#666" transform="rotate(-50 454.3 531.0)">26.3</text>
<line x1="484.0" y1="516.0" x2="484.0" y2="519.0" stroke="#999"/>
<text x="484.0" y="531.0" text-anchor="end" fill="#666" transform="rotate(-50 484.0 531.0)">26.4</text>
<line x1="513.7" y1="516.0" x2="513.7" y2="519.0" stroke="#999"/>
<text x="513.7" y="531.0" text-anchor="end" fill="#666" transform="rotate(-50 513.7 531.0)">26.5</text>
<line x1="543.4" y1="516.0" x2="543.4" y2="519.0" stroke="#999"/>
<text x="543.4" y="531.0" text-anchor="end" fill="#666" transform="rotate(-50 543.4 531.0)">26.7</text>
<line x1="573.1" y1="516.0" x2="573.1" y2="519.0" stroke="#999"/>
<text x="573.1" y="531.0" text-anchor="end" fill="#666" transform="rotate(-50 573.1 531.0)">26.8</text>
<line x1="602.9" y1="516.0" x2="602.9" y2="519.0" stroke="#999"/>
<text x="602.9" y="531.0" text-anchor="end" fill="#666" transform="rotate(-50 602.9 531.0)">26.9</text>
<line x1="632.6" y1="516.0" x2="632.6" y2="519.0" stroke="#999"/>
<text x="632.6" y="531.0" text-anchor="end" fill="#666" transform="rotate(-50 632.6 531.0)">26.10</text>
<line x1="662.3" y1="516.0" x2="662.3" y2="519.0" stroke="#999"/>
<text x="662.3" y="531.0" text-anchor="end" fill="#666" transform="rotate(-50 662.3 531.0)">26.11</text>
<line x1="692.0" y1="516.0" x2="692.0" y2="519.0" stroke="#999"/>
<text x="692.0" y="531.0" text-anchor="end" fill="#666" transform="rotate(-50 692.0 531.0)">26.12</text>
<line x1="721.7" y1="516.0" x2="721.7" y2="519.0" stroke="#999"/>
<text x="721.7" y="531.0" text-anchor="end" fill="#e8731a" transform="rotate(-50 721.7 531.0)">06-25</text>
<line x1="751.4" y1="516.0" x2="751.4" y2="519.0" stroke="#999"/>
<text x="751.4" y="531.0" text-anchor="end" fill="#e8731a" transform="rotate(-50 751.4 531.0)">06-26</text>
<line x1="781.1" y1="516.0" x2="781.1" y2="519.0" stroke="#999"/>
<text x="781.1" y="531.0" text-anchor="end" fill="#e8731a" transform="rotate(-50 781.1 531.0)">06-28</text>
<line x1="810.9" y1="516.0" x2="810.9" y2="519.0" stroke="#999"/>
<text x="810.9" y="531.0" text-anchor="end" fill="#e8731a" transform="rotate(-50 810.9 531.0)">07-01</text>
<line x1="840.6" y1="516.0" x2="840.6" y2="519.0" stroke="#999"/>
<text x="840.6" y="531.0" text-anchor="end" fill="#e8731a" transform="rotate(-50 840.6 531.0)">07-02</text>
<line x1="870.3" y1="516.0" x2="870.3" y2="519.0" stroke="#999"/>
<text x="870.3" y="531.0" text-anchor="end" fill="#e8731a" transform="rotate(-50 870.3 531.0)">07-03</text>
<line x1="900.0" y1="516.0" x2="900.0" y2="519.0" stroke="#999"/>
<text x="900.0" y="531.0" text-anchor="end" fill="#e8731a" transform="rotate(-50 900.0 531.0)">07-06</text>
<line x1="929.7" y1="516.0" x2="929.7" y2="519.0" stroke="#999"/>
<text x="929.7" y="531.0" text-anchor="end" fill="#e8731a" transform="rotate(-50 929.7 531.0)">07-07</text>
<line x1="959.4" y1="516.0" x2="959.4" y2="519.0" stroke="#999"/>
<text x="959.4" y="531.0" text-anchor="end" fill="#e8731a" transform="rotate(-50 959.4 531.0)">07-08</text>
<line x1="989.1" y1="516.0" x2="989.1" y2="519.0" stroke="#999"/>
<text x="989.1" y="531.0" text-anchor="end" fill="#e8731a" transform="rotate(-50 989.1 531.0)">07-09</text>
<line x1="1018.9" y1="516.0" x2="1018.9" y2="519.0" stroke="#999"/>
<text x="1018.9" y="531.0" text-anchor="end" fill="#e8731a" transform="rotate(-50 1018.9 531.0)">07-10</text>
<line x1="1048.6" y1="516.0" x2="1048.6" y2="519.0" stroke="#999"/>
<text x="1048.6" y="531.0" text-anchor="end" fill="#e8731a" transform="rotate(-50 1048.6 531.0)">07-11</text>
<line x1="1078.3" y1="516.0" x2="1078.3" y2="519.0" stroke="#999"/>
<text x="1078.3" y="531.0" text-anchor="end" fill="#e8731a" transform="rotate(-50 1078.3 531.0)">07-14</text>
<line x1="1108.0" y1="516.0" x2="1108.0" y2="519.0" stroke="#999"/>
<text x="1108.0" y="531.0" text-anchor="end" fill="#e8731a" transform="rotate(-50 1108.0 531.0)">07-15</text>
<polygon points="721.7,515.5 751.4,515.5 781.1,515.5 810.9,515.5 840.6,515.5 870.3,515.5 900.0,515.5 929.7,515.6 959.4,515.5 989.1,515.5 1018.9,515.6 1048.6,515.6 1078.3,515.6 1108.0,515.6 1108.0,516.0 1078.3,516.0 1048.6,516.0 1018.9,516.0 989.1,516.0 959.4,516.0 929.7,516.0 900.0,516.0 870.3,516.0 840.6,516.0 810.9,516.0 781.1,516.0 751.4,516.0 721.7,516.0" fill="#c7e9c0" fill-opacity="0.9" stroke="#fff" stroke-width="0.4"><title>codegen_dxil — parseTranslationUnit</title></polygon>
<polygon points="721.7,499.6 751.4,499.7 781.1,499.7 810.9,499.1 840.6,499.7 870.3,500.1 900.0,499.4 929.7,499.9 959.4,498.0 989.1,495.7 1018.9,500.1 1048.6,500.2 1078.3,500.2 1108.0,501.3 1108.0,515.6 1078.3,515.6 1048.6,515.6 1018.9,515.6 989.1,515.5 959.4,515.5 929.7,515.6 900.0,515.5 870.3,515.5 840.6,515.5 810.9,515.5 781.1,515.5 751.4,515.5 721.7,515.5" fill="#41ab5d" fill-opacity="0.9" stroke="#fff" stroke-width="0.4"><title>codegen_dxil — SemanticChecking</title></polygon>
<polygon points="721.7,492.0 751.4,492.1 781.1,492.2 810.9,491.2 840.6,492.0 870.3,493.1 900.0,492.1 929.7,492.4 959.4,489.0 989.1,487.0 1018.9,495.8 1048.6,495.9 1078.3,495.5 1108.0,497.0 1108.0,501.3 1078.3,500.2 1048.6,500.2 1018.9,500.1 989.1,495.7 959.4,498.0 929.7,499.9 900.0,499.4 870.3,500.1 840.6,499.7 810.9,499.1 781.1,499.7 751.4,499.7 721.7,499.6" fill="#006d2c" fill-opacity="0.9" stroke="#fff" stroke-width="0.4"><title>codegen_dxil — generateIR</title></polygon>
<polygon points="721.7,491.9 751.4,492.1 781.1,492.2 810.9,491.0 840.6,491.9 870.3,493.0 900.0,492.1 929.7,492.2 959.4,488.9 989.1,486.4 1018.9,495.6 1048.6,495.7 1078.3,495.3 1108.0,496.9 1108.0,497.0 1078.3,495.5 1048.6,495.9 1018.9,495.8 989.1,487.0 959.4,489.0 929.7,492.4 900.0,492.1 870.3,493.1 840.6,492.0 810.9,491.2 781.1,492.2 751.4,492.1 721.7,492.0" fill="#74c476" fill-opacity="0.9" stroke="#fff" stroke-width="0.4"><title>codegen_dxil — frontEndExecute (self)</title></polygon>
<polygon points="721.7,481.0 751.4,481.3 781.1,481.2 810.9,479.8 840.6,480.8 870.3,482.3 900.0,481.3 929.7,480.1 959.4,477.0 989.1,472.7 1018.9,489.3 1048.6,489.4 1078.3,489.0 1108.0,491.3 1108.0,496.9 1078.3,495.3 1048.6,495.7 1018.9,495.6 989.1,486.4 959.4,488.9 929.7,492.2 900.0,492.1 870.3,493.0 840.6,491.9 810.9,491.0 781.1,492.2 751.4,492.1 721.7,491.9" fill="#6baed6" fill-opacity="0.9" stroke="#fff" stroke-width="0.4"><title>codegen_dxil — specializeModule</title></polygon>
<polygon points="721.7,451.6 751.4,452.0 781.1,450.1 810.9,448.7 840.6,451.0 870.3,452.8 900.0,452.2 929.7,449.5 959.4,446.1 989.1,441.4 1018.9,484.1 1048.6,484.3 1078.3,483.6 1108.0,486.1 1108.0,491.3 1078.3,489.0 1048.6,489.4 1018.9,489.3 989.1,472.7 959.4,477.0 929.7,480.1 900.0,481.3 870.3,482.3 840.6,480.8 810.9,479.8 781.1,481.2 751.4,481.3 721.7,481.0" fill="#2171b5" fill-opacity="0.9" stroke="#fff" stroke-width="0.4"><title>codegen_dxil — simplifyIR</title></polygon>
<polygon points="721.7,450.9 751.4,451.3 781.1,449.3 810.9,448.1 840.6,450.4 870.3,452.1 900.0,451.5 929.7,448.9 959.4,445.4 989.1,440.7 1018.9,483.4 1048.6,483.5 1078.3,482.9 1108.0,485.5 1108.0,486.1 1078.3,483.6 1048.6,484.3 1018.9,484.1 989.1,441.4 959.4,446.1 929.7,449.5 900.0,452.2 870.3,452.8 840.6,451.0 810.9,448.7 781.1,450.1 751.4,452.0 721.7,451.6" fill="#08306b" fill-opacity="0.9" stroke="#fff" stroke-width="0.4"><title>codegen_dxil — linkIR</title></polygon>
<polygon points="721.7,450.9 751.4,451.3 781.1,449.3 810.9,448.1 840.6,450.4 870.3,452.1 900.0,451.5 929.7,448.9 959.4,445.4 989.1,440.7 1018.9,483.4 1048.6,483.5 1078.3,482.9 1108.0,485.5 1108.0,485.5 1078.3,482.9 1048.6,483.5 1018.9,483.4 989.1,440.7 959.4,445.4 929.7,448.9 900.0,451.5 870.3,452.1 840.6,450.4 810.9,448.1 781.1,449.3 751.4,451.3 721.7,450.9" fill="#9e9ac8" fill-opacity="0.9" stroke="#fff" stroke-width="0.4"><title>codegen_dxil — unrollLoopsInModule</title></polygon>
<polygon points="721.7,382.9 751.4,384.0 781.1,380.2 810.9,380.5 840.6,383.7 870.3,387.4 900.0,383.6 929.7,382.2 959.4,373.9 989.1,372.7 1018.9,454.8 1048.6,455.0 1078.3,454.2 1108.0,455.8 1108.0,485.5 1078.3,482.9 1048.6,483.5 1018.9,483.4 989.1,440.7 959.4,445.4 929.7,448.9 900.0,451.5 870.3,452.1 840.6,450.4 810.9,448.1 781.1,449.3 751.4,451.3 721.7,450.9" fill="#807dba" fill-opacity="0.9" stroke="#fff" stroke-width="0.4"><title>codegen_dxil — legalizeResourceTypes</title></polygon>
<polygon points="721.7,315.3 751.4,316.1 781.1,312.0 810.9,312.5 840.6,316.1 870.3,320.0 900.0,315.0 929.7,312.7 959.4,303.8 989.1,303.8 1018.9,425.4 1048.6,425.8 1078.3,425.4 1108.0,425.9 1108.0,455.8 1078.3,454.2 1048.6,455.0 1018.9,454.8 989.1,372.7 959.4,373.9 929.7,382.2 900.0,383.6 870.3,387.4 840.6,383.7 810.9,380.5 781.1,380.2 751.4,384.0 721.7,382.9" fill="#6a51a3" fill-opacity="0.9" stroke="#fff" stroke-width="0.4"><title>codegen_dxil — legalizeExistentialTypeLayout</title></polygon>
<polygon points="721.7,315.1 751.4,316.0 781.1,311.9 810.9,312.4 840.6,316.0 870.3,319.9 900.0,314.8 929.7,312.5 959.4,303.6 989.1,303.6 1018.9,425.2 1048.6,425.6 1078.3,425.2 1108.0,425.7 1108.0,425.9 1078.3,425.4 1048.6,425.8 1018.9,425.4 989.1,303.8 959.4,303.8 929.7,312.7 900.0,315.0 870.3,320.0 840.6,316.1 810.9,312.5 781.1,312.0 751.4,316.1 721.7,315.3" fill="#bcbddc" fill-opacity="0.9" stroke="#fff" stroke-width="0.4"><title>codegen_dxil — performMandatoryEarlyInlining</title></polygon>
<polygon points="721.7,315.1 751.4,315.9 781.1,311.8 810.9,312.3 840.6,315.9 870.3,319.8 900.0,314.8 929.7,312.4 959.4,303.5 989.1,303.5 1018.9,425.1 1048.6,425.5 1078.3,425.1 1108.0,425.6 1108.0,425.7 1078.3,425.2 1048.6,425.6 1018.9,425.2 989.1,303.6 959.4,303.6 929.7,312.5 900.0,314.8 870.3,319.9 840.6,316.0 810.9,312.4 781.1,311.9 751.4,316.0 721.7,315.1" fill="#dadaeb" fill-opacity="0.9" stroke="#fff" stroke-width="0.4"><title>codegen_dxil — performForceInlining</title></polygon>
<polygon points="721.7,131.8 751.4,133.3 781.1,125.0 810.9,126.4 840.6,132.3 870.3,140.2 900.0,131.1 929.7,125.6 959.4,111.7 989.1,114.2 1018.9,347.0 1048.6,347.3 1078.3,347.3 1108.0,346.8 1108.0,425.6 1078.3,425.1 1048.6,425.5 1018.9,425.1 989.1,303.5 959.4,303.5 929.7,312.4 900.0,314.8 870.3,319.8 840.6,315.9 810.9,312.3 781.1,311.8 751.4,315.9 721.7,315.1" fill="#fd8d3c" fill-opacity="0.9" stroke="#fff" stroke-width="0.4"><title>codegen_dxil — emitEntryPointsSourceFromIR</title></polygon>
<polygon points="721.7,131.4 751.4,133.3 781.1,124.1 810.9,126.4 840.6,131.3 870.3,140.1 900.0,130.6 929.7,123.2 959.4,111.7 989.1,108.6 1018.9,346.2 1048.6,345.9 1078.3,347.0 1108.0,346.7 1108.0,346.8 1078.3,347.3 1048.6,347.3 1018.9,347.0 989.1,114.2 959.4,111.7 929.7,125.6 900.0,131.1 870.3,140.2 840.6,132.3 810.9,126.4 781.1,125.0 751.4,133.3 721.7,131.8" fill="#969696" fill-opacity="0.9" stroke="#fff" stroke-width="0.4"><title>codegen_dxil — compileInner (self)</title></polygon>
<text x="12" y="578" fill="#666" font-weight="600">phase buckets</text>
<rect x="12" y="586" width="12" height="12" fill="#c7e9c0"/>
<text x="28" y="596" fill="#222">parseTranslationUnit</text>
<rect x="289" y="586" width="12" height="12" fill="#41ab5d"/>
<text x="305" y="596" fill="#222">SemanticChecking</text>
<rect x="566" y="586" width="12" height="12" fill="#006d2c"/>
<text x="582" y="596" fill="#222">generateIR</text>
<rect x="843" y="586" width="12" height="12" fill="#74c476"/>
<text x="859" y="596" fill="#222">frontEndExecute (self)</text>
<rect x="12" y="604" width="12" height="12" fill="#6baed6"/>
<text x="28" y="614" fill="#222">specializeModule</text>
<rect x="289" y="604" width="12" height="12" fill="#2171b5"/>
<text x="305" y="614" fill="#222">simplifyIR</text>
<rect x="566" y="604" width="12" height="12" fill="#08306b"/>
<text x="582" y="614" fill="#222">linkIR</text>
<rect x="843" y="604" width="12" height="12" fill="#9e9ac8"/>
<text x="859" y="614" fill="#222">unrollLoopsInModule</text>
<rect x="12" y="622" width="12" height="12" fill="#807dba"/>
<text x="28" y="632" fill="#222">legalizeResourceTypes</text>
<rect x="289" y="622" width="12" height="12" fill="#6a51a3"/>
<text x="305" y="632" fill="#222">legalizeExistentialTypeLayout</text>
<rect x="566" y="622" width="12" height="12" fill="#bcbddc"/>
<text x="582" y="632" fill="#222">performMandatoryEarlyInlining</text>
<rect x="843" y="622" width="12" height="12" fill="#dadaeb"/>
<text x="859" y="632" fill="#222">performForceInlining</text>
<rect x="12" y="640" width="12" height="12" fill="#4a1486"/>
<text x="28" y="650" fill="#222">linkAndOptimizeIR (self)</text>
<rect x="289" y="640" width="12" height="12" fill="#fd8d3c"/>
<text x="305" y="650" fill="#222">emitEntryPointsSourceFromIR</text>
<rect x="566" y="640" width="12" height="12" fill="#e6550d"/>
<text x="582" y="650" fill="#222">generateOutput (self)</text>
<rect x="843" y="640" width="12" height="12" fill="#969696"/>
<text x="859" y="650" fill="#222">compileInner (self)</text>
</svg>