<svg xmlns="http://www.w3.org/2000/svg" xmlns:xlink="http://www.w3.org/1999/xlink" width="1132" height="680" viewBox="0 0 1132 680" preserveAspectRatio="xMidYMid meet" font-family="sans-serif" font-size="13">
<rect width="1132" height="680" fill="white"/>
<text x="12" y="30" font-size="20" font-weight="bold">codegen_spirv — Daily tip-of-tree (last 30 days) (median ms)</text>
<text x="68" y="60" font-size="15" font-weight="600" fill="#1a1a1a">codegen_spirv<tspan fill="#888" font-weight="400" text-decoration="none">  0.39×</tspan></text>
<line x1="68.0" y1="516.0" x2="1108.0" y2="516.0" stroke="#eee"/>
<text x="64.0" y="519.0" text-anchor="end" fill="#999">0.0</text>
<line x1="68.0" y1="296.0" x2="1108.0" y2="296.0" stroke="#eee"/>
<text x="64.0" y="299.0" text-anchor="end" fill="#999">527</text>
<line x1="68.0" y1="76.0" x2="1108.0" y2="76.0" stroke="#eee"/>
<text x="64.0" y="79.0" text-anchor="end" fill="#999">1053</text>
<line x1="68.0" y1="76.0" x2="68.0" y2="516.0" stroke="#333"/>
<line x1="68.0" y1="516.0" x2="1108.0" y2="516.0" stroke="#333"/>
<line x1="68.0" y1="516.0" x2="68.0" y2="519.0" stroke="#999"/>
<text x="68.0" y="531.0" text-anchor="end" fill="#e8731a" transform="rotate(-50 68.0 531.0)">06-25</text>
<line x1="148.0" y1="516.0" x2="148.0" y2="519.0" stroke="#999"/>
<text x="148.0" y="531.0" text-anchor="end" fill="#e8731a" transform="rotate(-50 148.0 531.0)">06-26</text>
<line x1="228.0" y1="516.0" x2="228.0" y2="519.0" stroke="#999"/>
<text x="228.0" y="531.0" text-anchor="end" fill="#e8731a" transform="rotate(-50 228.0 531.0)">06-28</text>
<line x1="308.0" y1="516.0" x2="308.0" y2="519.0" stroke="#999"/>
<text x="308.0" y="531.0" text-anchor="end" fill="#e8731a" transform="rotate(-50 308.0 531.0)">07-01</text>
<line x1="388.0" y1="516.0" x2="388.0" y2="519.0" stroke="#999"/>
<text x="388.0" y="531.0" text-anchor="end" fill="#e8731a" transform="rotate(-50 388.0 531.0)">07-02</text>
<line x1="468.0" y1="516.0" x2="468.0" y2="519.0" stroke="#999"/>
<text x="468.0" y="531.0" text-anchor="end" fill="#e8731a" transform="rotate(-50 468.0 531.0)">07-03</text>
<line x1="548.0" y1="516.0" x2="548.0" y2="519.0" stroke="#999"/>
<text x="548.0" y="531.0" text-anchor="end" fill="#e8731a" transform="rotate(-50 548.0 531.0)">07-06</text>
<line x1="628.0" y1="516.0" x2="628.0" y2="519.0" stroke="#999"/>
<text x="628.0" y="531.0" text-anchor="end" fill="#e8731a" transform="rotate(-50 628.0 531.0)">07-07</text>
<line x1="708.0" y1="516.0" x2="708.0" y2="519.0" stroke="#999"/>
<text x="708.0" y="531.0" text-anchor="end" fill="#e8731a" transform="rotate(-50 708.0 531.0)">07-08</text>
<line x1="788.0" y1="516.0" x2="788.0" y2="519.0" stroke="#999"/>
<text x="788.0" y="531.0" text-anchor="end" fill="#e8731a" transform="rotate(-50 788.0 531.0)">07-09</text>
<line x1="868.0" y1="516.0" x2="868.0" y2="519.0" stroke="#999"/>
<text x="868.0" y="531.0" text-anchor="end" fill="#e8731a" transform="rotate(-50 868.0 531.0)">07-10</text>
<line x1="948.0" y1="516.0" x2="948.0" y2="519.0" stroke="#999"/>
<text x="948.0" y="531.0" text-anchor="end" fill="#e8731a" transform="rotate(-50 948.0 531.0)">07-11</text>
<line x1="1028.0" y1="516.0" x2="1028.0" y2="519.0" stroke="#999"/>
<text x="1028.0" y="531.0" text-anchor="end" fill="#e8731a" transform="rotate(-50 1028.0 531.0)">07-14</text>
<line x1="1108.0" y1="516.0" x2="1108.0" y2="519.0" stroke="#999"/>
<text x="1108.0" y="531.0" text-anchor="end" fill="#e8731a" transform="rotate(-50 1108.0 531.0)">07-15</text>
<polygon points="68.0,515.5 148.0,515.5 228.0,515.5 308.0,515.5 388.0,515.5 468.0,515.5 548.0,515.5 628.0,515.6 708.0,515.6 788.0,515.6 868.0,515.6 948.0,515.6 1028.0,515.6 1108.0,515.6 1108.0,516.0 1028.0,516.0 948.0,516.0 868.0,516.0 788.0,516.0 708.0,516.0 628.0,516.0 548.0,516.0 468.0,516.0 388.0,516.0 308.0,516.0 228.0,516.0 148.0,516.0 68.0,516.0" fill="#c7e9c0" fill-opacity="0.9" stroke="#fff" stroke-width="0.4"><title>codegen_spirv — parseTranslationUnit</title></polygon>
<polygon points="68.0,500.3 148.0,500.0 228.0,500.3 308.0,500.4 388.0,499.8 468.0,500.4 548.0,500.3 628.0,500.8 708.0,500.9 788.0,500.7 868.0,500.8 948.0,500.4 1028.0,500.5 1108.0,501.7 1108.0,515.6 1028.0,515.6 948.0,515.6 868.0,515.6 788.0,515.6 708.0,515.6 628.0,515.6 548.0,515.5 468.0,515.5 388.0,515.5 308.0,515.5 228.0,515.5 148.0,515.5 68.0,515.5" fill="#41ab5d" fill-opacity="0.9" stroke="#fff" stroke-width="0.4"><title>codegen_spirv — SemanticChecking</title></polygon>
<polygon points="68.0,493.2 148.0,493.1 228.0,492.7 308.0,493.3 388.0,492.8 468.0,493.5 548.0,493.3 628.0,493.9 708.0,493.9 788.0,493.7 868.0,496.5 948.0,496.2 1028.0,496.4 1108.0,497.6 1108.0,501.7 1028.0,500.5 948.0,500.4 868.0,500.8 788.0,500.7 708.0,500.9 628.0,500.8 548.0,500.3 468.0,500.4 388.0,499.8 308.0,500.4 228.0,500.3 148.0,500.0 68.0,500.3" fill="#006d2c" fill-opacity="0.9" stroke="#fff" stroke-width="0.4"><title>codegen_spirv — generateIR</title></polygon>
<polygon points="68.0,493.2 148.0,492.5 228.0,492.5 308.0,493.2 388.0,492.6 468.0,493.2 548.0,493.1 628.0,493.7 708.0,493.8 788.0,493.5 868.0,496.3 948.0,496.0 1028.0,496.3 1108.0,497.4 1108.0,497.6 1028.0,496.4 948.0,496.2 868.0,496.5 788.0,493.7 708.0,493.9 628.0,493.9 548.0,493.3 468.0,493.5 388.0,492.8 308.0,493.3 228.0,492.7 148.0,493.1 68.0,493.2" fill="#74c476" fill-opacity="0.9" stroke="#fff" stroke-width="0.4"><title>codegen_spirv — frontEndExecute (self)</title></polygon>
<polygon points="68.0,480.0 148.0,479.6 228.0,479.2 308.0,480.1 388.0,479.6 468.0,480.3 548.0,480.4 628.0,479.5 708.0,479.4 788.0,479.1 868.0,490.0 948.0,489.8 1028.0,490.0 1108.0,491.7 1108.0,497.4 1028.0,496.3 948.0,496.0 868.0,496.3 788.0,493.5 708.0,493.8 628.0,493.7 548.0,493.1 468.0,493.2 388.0,492.6 308.0,493.2 228.0,492.5 148.0,492.5 68.0,493.2" fill="#6baed6" fill-opacity="0.9" stroke="#fff" stroke-width="0.4"><title>codegen_spirv — specializeModule</title></polygon>
<polygon points="68.0,443.3 148.0,443.1 228.0,441.6 308.0,442.8 388.0,442.9 468.0,444.0 548.0,444.8 628.0,443.4 708.0,442.7 788.0,442.8 868.0,484.0 948.0,483.7 1028.0,484.0 1108.0,485.5 1108.0,491.7 1028.0,490.0 948.0,489.8 868.0,490.0 788.0,479.1 708.0,479.4 628.0,479.5 548.0,480.4 468.0,480.3 388.0,479.6 308.0,480.1 228.0,479.2 148.0,479.6 68.0,480.0" fill="#2171b5" fill-opacity="0.9" stroke="#fff" stroke-width="0.4"><title>codegen_spirv — simplifyIR</title></polygon>
<polygon points="68.0,442.4 148.0,442.3 228.0,440.8 308.0,442.1 388.0,442.1 468.0,443.2 548.0,444.0 628.0,442.7 708.0,442.0 788.0,442.2 868.0,483.3 948.0,483.0 1028.0,483.3 1108.0,484.9 1108.0,485.5 1028.0,484.0 948.0,483.7 868.0,484.0 788.0,442.8 708.0,442.7 628.0,443.4 548.0,444.8 468.0,444.0 388.0,442.9 308.0,442.8 228.0,441.6 148.0,443.1 68.0,443.3" fill="#08306b" fill-opacity="0.9" stroke="#fff" stroke-width="0.4"><title>codegen_spirv — linkIR</title></polygon>
<polygon points="68.0,442.4 148.0,442.3 228.0,440.8 308.0,442.0 388.0,442.1 468.0,443.2 548.0,444.0 628.0,442.7 708.0,442.0 788.0,442.2 868.0,483.3 948.0,483.0 1028.0,483.3 1108.0,484.9 1108.0,484.9 1028.0,483.3 948.0,483.0 868.0,483.3 788.0,442.2 708.0,442.0 628.0,442.7 548.0,444.0 468.0,443.2 388.0,442.1 308.0,442.1 228.0,440.8 148.0,442.3 68.0,442.4" fill="#9e9ac8" fill-opacity="0.9" stroke="#fff" stroke-width="0.4"><title>codegen_spirv — unrollLoopsInModule</title></polygon>
<polygon points="68.0,361.4 148.0,361.7 228.0,355.1 308.0,361.0 388.0,360.3 468.0,363.1 548.0,363.5 628.0,364.7 708.0,363.1 788.0,350.5 868.0,454.0 948.0,454.4 1028.0,455.0 1108.0,455.2 1108.0,484.9 1028.0,483.3 948.0,483.0 868.0,483.3 788.0,442.2 708.0,442.0 628.0,442.7 548.0,444.0 468.0,443.2 388.0,442.1 308.0,442.0 228.0,440.8 148.0,442.3 68.0,442.4" fill="#807dba" fill-opacity="0.9" stroke="#fff" stroke-width="0.4"><title>codegen_spirv — legalizeResourceTypes</title></polygon>
<polygon points="68.0,278.9 148.0,279.6 228.0,265.9 308.0,278.7 388.0,278.4 468.0,281.0 548.0,282.3 628.0,284.4 708.0,282.7 788.0,257.2 868.0,424.3 948.0,425.1 1028.0,426.2 1108.0,425.4 1108.0,455.2 1028.0,455.0 948.0,454.4 868.0,454.0 788.0,350.5 708.0,363.1 628.0,364.7 548.0,363.5 468.0,363.1 388.0,360.3 308.0,361.0 228.0,355.1 148.0,361.7 68.0,361.4" fill="#6a51a3" fill-opacity="0.9" stroke="#fff" stroke-width="0.4"><title>codegen_spirv — legalizeExistentialTypeLayout</title></polygon>
<polygon points="68.0,278.7 148.0,279.4 228.0,265.7 308.0,278.5 388.0,278.2 468.0,280.9 548.0,282.1 628.0,284.2 708.0,282.5 788.0,257.0 868.0,424.1 948.0,424.9 1028.0,425.9 1108.0,425.2 1108.0,425.4 1028.0,426.2 948.0,425.1 868.0,424.3 788.0,257.2 708.0,282.7 628.0,284.4 548.0,282.3 468.0,281.0 388.0,278.4 308.0,278.7 228.0,265.9 148.0,279.6 68.0,278.9" fill="#bcbddc" fill-opacity="0.9" stroke="#fff" stroke-width="0.4"><title>codegen_spirv — performMandatoryEarlyInlining</title></polygon>
<polygon points="68.0,278.4 148.0,279.2 228.0,265.5 308.0,278.3 388.0,278.0 468.0,280.6 548.0,281.9 628.0,284.0 708.0,282.3 788.0,256.7 868.0,423.8 948.0,424.6 1028.0,425.7 1108.0,425.0 1108.0,425.2 1028.0,425.9 948.0,424.9 868.0,424.1 788.0,257.0 708.0,282.5 628.0,284.2 548.0,282.1 468.0,280.9 388.0,278.2 308.0,278.5 228.0,265.7 148.0,279.4 68.0,278.7" fill="#dadaeb" fill-opacity="0.9" stroke="#fff" stroke-width="0.4"><title>codegen_spirv — performForceInlining</title></polygon>
<polygon points="68.0,224.7 148.0,225.8 228.0,210.7 308.0,223.8 388.0,223.7 468.0,226.3 548.0,228.3 628.0,230.7 708.0,228.9 788.0,201.3 868.0,375.6 948.0,377.1 1028.0,376.4 1108.0,376.7 1108.0,425.0 1028.0,425.7 948.0,424.6 868.0,423.8 788.0,256.7 708.0,282.3 628.0,284.0 548.0,281.9 468.0,280.6 388.0,278.0 308.0,278.3 228.0,265.5 148.0,279.2 68.0,278.4" fill="#4a1486" fill-opacity="0.9" stroke="#fff" stroke-width="0.4"><title>codegen_spirv — linkAndOptimizeIR (self)</title></polygon>
<polygon points="68.0,134.1 148.0,134.7 228.0,112.7 308.0,132.5 388.0,133.5 468.0,136.9 548.0,138.4 628.0,141.1 708.0,138.3 788.0,108.7 868.0,366.0 948.0,367.2 1028.0,366.4 1108.0,367.0 1108.0,376.7 1028.0,376.4 948.0,377.1 868.0,375.6 788.0,201.3 708.0,228.9 628.0,230.7 548.0,228.3 468.0,226.3 388.0,223.7 308.0,223.8 228.0,210.7 148.0,225.8 68.0,224.7" fill="#e6550d" fill-opacity="0.9" stroke="#fff" stroke-width="0.4"><title>codegen_spirv — generateOutput (self)</title></polygon>
<polygon points="68.0,133.7 148.0,134.4 228.0,112.6 308.0,132.2 388.0,133.3 468.0,136.6 548.0,138.4 628.0,140.9 708.0,138.1 788.0,108.6 868.0,366.0 948.0,366.6 1028.0,366.2 1108.0,367.0 1108.0,367.0 1028.0,366.4 948.0,367.2 868.0,366.0 788.0,108.7 708.0,138.3 628.0,141.1 548.0,138.4 468.0,136.9 388.0,133.5 308.0,132.5 228.0,112.7 148.0,134.7 68.0,134.1" fill="#969696" fill-opacity="0.9" stroke="#fff" stroke-width="0.4"><title>codegen_spirv — compileInner (self)</title></polygon>
<text x="12" y="578" fill="#666" font-weight="600">phase buckets</text>
<rect x="12" y="586" width="12" height="12" fill="#c7e9c0"/>
<text x="28" y="596" fill="#222">parseTranslationUnit</text>
<rect x="289" y="586" width="12" height="12" fill="#41ab5d"/>
<text x="305" y="596" fill="#222">SemanticChecking</text>
<rect x="566" y="586" width="12" height="12" fill="#006d2c"/>
<text x="582" y="596" fill="#222">generateIR</text>
<rect x="843" y="586" width="12" height="12" fill="#74c476"/>
<text x="859" y="596" fill="#222">frontEndExecute (self)</text>
<rect x="12" y="604" width="12" height="12" fill="#6baed6"/>
<text x="28" y="614" fill="#222">specializeModule</text>
<rect x="289" y="604" width="12" height="12" fill="#2171b5"/>
<text x="305" y="614" fill="#222">simplifyIR</text>
<rect x="566" y="604" width="12" height="12" fill="#08306b"/>
<text x="582" y="614" fill="#222">linkIR</text>
<rect x="843" y="604" width="12" height="12" fill="#9e9ac8"/>
<text x="859" y="614" fill="#222">unrollLoopsInModule</text>
<rect x="12" y="622" width="12" height="12" fill="#807dba"/>
<text x="28" y="632" fill="#222">legalizeResourceTypes</text>
<rect x="289" y="622" width="12" height="12" fill="#6a51a3"/>
<text x="305" y="632" fill="#222">legalizeExistentialTypeLayout</text>
<rect x="566" y="622" width="12" height="12" fill="#bcbddc"/>
<text x="582" y="632" fill="#222">performMandatoryEarlyInlining</text>
<rect x="843" y="622" width="12" height="12" fill="#dadaeb"/>
<text x="859" y="632" fill="#222">performForceInlining</text>
<rect x="12" y="640" width="12" height="12" fill="#4a1486"/>
<text x="28" y="650" fill="#222">linkAndOptimizeIR (self)</text>
<rect x="289" y="640" width="12" height="12" fill="#fd8d3c"/>
<text x="305" y="650" fill="#222">emitEntryPointsSourceFromIR</text>
<rect x="566" y="640" width="12" height="12" fill="#e6550d"/>
<text x="582" y="650" fill="#222">generateOutput (self)</text>
<rect x="843" y="640" width="12" height="12" fill="#969696"/>
<text x="859" y="650" fill="#222">compileInner (self)</text>
</svg>