<svg xmlns="http://www.w3.org/2000/svg" xmlns:xlink="http://www.w3.org/1999/xlink" width="1132" height="680" viewBox="0 0 1132 680" preserveAspectRatio="xMidYMid meet" font-family="sans-serif" font-size="13">
<rect width="1132" height="680" fill="white"/>
<text x="12" y="30" font-size="20" font-weight="bold">codegen_spirv — full phase breakdown across releases (median ms)</text>
<text x="68" y="60" font-size="15" font-weight="600" fill="#1a1a1a">codegen_spirv<tspan fill="#888" font-weight="400" text-decoration="none">  0.41×</tspan></text>
<line x1="68.0" y1="516.0" x2="1108.0" y2="516.0" stroke="#eee"/>
<text x="64.0" y="519.0" text-anchor="end" fill="#999">0.0</text>
<line x1="68.0" y1="296.0" x2="1108.0" y2="296.0" stroke="#eee"/>
<text x="64.0" y="299.0" text-anchor="end" fill="#999">1271</text>
<line x1="68.0" y1="76.0" x2="1108.0" y2="76.0" stroke="#eee"/>
<text x="64.0" y="79.0" text-anchor="end" fill="#999">2541</text>
<line x1="68.0" y1="76.0" x2="68.0" y2="516.0" stroke="#333"/>
<line x1="68.0" y1="516.0" x2="1108.0" y2="516.0" stroke="#333"/>
<line x1="920.8" y1="76.0" x2="920.8" y2="516.0" stroke="#e8731a" stroke-width="1.2" stroke-dasharray="4 3"/>
<text x="923.8" y="87.0" fill="#e8731a" font-size="11">daily →</text>
<line x1="68.0" y1="516.0" x2="68.0" y2="519.0" stroke="#999"/>
<text x="68.0" y="531.0" text-anchor="end" fill="#666" transform="rotate(-50 68.0 531.0)">25.14</text>
<line x1="109.6" y1="516.0" x2="109.6" y2="519.0" stroke="#999"/>
<text x="109.6" y="531.0" text-anchor="end" fill="#666" transform="rotate(-50 109.6 531.0)">25.15</text>
<line x1="151.2" y1="516.0" x2="151.2" y2="519.0" stroke="#999"/>
<text x="151.2" y="531.0" text-anchor="end" fill="#666" transform="rotate(-50 151.2 531.0)">25.16</text>
<line x1="192.8" y1="516.0" x2="192.8" y2="519.0" stroke="#999"/>
<text x="192.8" y="531.0" text-anchor="end" fill="#666" transform="rotate(-50 192.8 531.0)">25.17</text>
<line x1="234.4" y1="516.0" x2="234.4" y2="519.0" stroke="#999"/>
<text x="234.4" y="531.0" text-anchor="end" fill="#666" transform="rotate(-50 234.4 531.0)">25.18</text>
<line x1="276.0" y1="516.0" x2="276.0" y2="519.0" stroke="#999"/>
<text x="276.0" y="531.0" text-anchor="end" fill="#666" transform="rotate(-50 276.0 531.0)">25.19</text>
<line x1="317.6" y1="516.0" x2="317.6" y2="519.0" stroke="#999"/>
<text x="317.6" y="531.0" text-anchor="end" fill="#666" transform="rotate(-50 317.6 531.0)">25.20</text>
<line x1="359.2" y1="516.0" x2="359.2" y2="519.0" stroke="#999"/>
<text x="359.2" y="531.0" text-anchor="end" fill="#666" transform="rotate(-50 359.2 531.0)">25.21</text>
<line x1="400.8" y1="516.0" x2="400.8" y2="519.0" stroke="#999"/>
<text x="400.8" y="531.0" text-anchor="end" fill="#666" transform="rotate(-50 400.8 531.0)">25.22</text>
<line x1="442.4" y1="516.0" x2="442.4" y2="519.0" stroke="#999"/>
<text x="442.4" y="531.0" text-anchor="end" fill="#666" transform="rotate(-50 442.4 531.0)">25.23</text>
<line x1="484.0" y1="516.0" x2="484.0" y2="519.0" stroke="#999"/>
<text x="484.0" y="531.0" text-anchor="end" fill="#666" transform="rotate(-50 484.0 531.0)">25.24</text>
<line x1="525.6" y1="516.0" x2="525.6" y2="519.0" stroke="#999"/>
<text x="525.6" y="531.0" text-anchor="end" fill="#666" transform="rotate(-50 525.6 531.0)">26.1</text>
<line x1="567.2" y1="516.0" x2="567.2" y2="519.0" stroke="#999"/>
<text x="567.2" y="531.0" text-anchor="end" fill="#666" transform="rotate(-50 567.2 531.0)">26.2</text>
<line x1="608.8" y1="516.0" x2="608.8" y2="519.0" stroke="#999"/>
<text x="608.8" y="531.0" text-anchor="end" fill="#666" transform="rotate(-50 608.8 531.0)">26.3</text>
<line x1="650.4" y1="516.0" x2="650.4" y2="519.0" stroke="#999"/>
<text x="650.4" y="531.0" text-anchor="end" fill="#666" transform="rotate(-50 650.4 531.0)">26.4</text>
<line x1="692.0" y1="516.0" x2="692.0" y2="519.0" stroke="#999"/>
<text x="692.0" y="531.0" text-anchor="end" fill="#666" transform="rotate(-50 692.0 531.0)">26.5</text>
<line x1="733.6" y1="516.0" x2="733.6" y2="519.0" stroke="#999"/>
<text x="733.6" y="531.0" text-anchor="end" fill="#666" transform="rotate(-50 733.6 531.0)">26.7</text>
<line x1="775.2" y1="516.0" x2="775.2" y2="519.0" stroke="#999"/>
<text x="775.2" y="531.0" text-anchor="end" fill="#666" transform="rotate(-50 775.2 531.0)">26.8</text>
<line x1="816.8" y1="516.0" x2="816.8" y2="519.0" stroke="#999"/>
<text x="816.8" y="531.0" text-anchor="end" fill="#666" transform="rotate(-50 816.8 531.0)">26.9</text>
<line x1="858.4" y1="516.0" x2="858.4" y2="519.0" stroke="#999"/>
<text x="858.4" y="531.0" text-anchor="end" fill="#666" transform="rotate(-50 858.4 531.0)">26.10</text>
<line x1="900.0" y1="516.0" x2="900.0" y2="519.0" stroke="#999"/>
<text x="900.0" y="531.0" text-anchor="end" fill="#666" transform="rotate(-50 900.0 531.0)">26.11</text>
<line x1="941.6" y1="516.0" x2="941.6" y2="519.0" stroke="#999"/>
<text x="941.6" y="531.0" text-anchor="end" fill="#e8731a" transform="rotate(-50 941.6 531.0)">06-25</text>
<line x1="983.2" y1="516.0" x2="983.2" y2="519.0" stroke="#999"/>
<text x="983.2" y="531.0" text-anchor="end" fill="#e8731a" transform="rotate(-50 983.2 531.0)">06-26</text>
<line x1="1024.8" y1="516.0" x2="1024.8" y2="519.0" stroke="#999"/>
<text x="1024.8" y="531.0" text-anchor="end" fill="#e8731a" transform="rotate(-50 1024.8 531.0)">06-28</text>
<line x1="1066.4" y1="516.0" x2="1066.4" y2="519.0" stroke="#999"/>
<text x="1066.4" y="531.0" text-anchor="end" fill="#e8731a" transform="rotate(-50 1066.4 531.0)">07-01</text>
<line x1="1108.0" y1="516.0" x2="1108.0" y2="519.0" stroke="#999"/>
<text x="1108.0" y="531.0" text-anchor="end" fill="#e8731a" transform="rotate(-50 1108.0 531.0)">07-02</text>
<polygon points="68.0,515.8 109.6,515.8 151.2,515.8 192.8,515.8 234.4,515.8 276.0,515.8 317.6,515.8 359.2,515.8 400.8,515.8 442.4,515.8 484.0,515.8 525.6,515.8 567.2,515.8 608.8,515.8 650.4,515.8 692.0,515.8 733.6,515.8 775.2,515.8 816.8,515.8 858.4,515.8 900.0,515.8 941.6,515.8 983.2,515.8 1024.8,515.8 1066.4,515.8 1108.0,515.8 1108.0,516.0 1066.4,516.0 1024.8,516.0 983.2,516.0 941.6,516.0 900.0,516.0 858.4,516.0 816.8,516.0 775.2,516.0 733.6,516.0 692.0,516.0 650.4,516.0 608.8,516.0 567.2,516.0 525.6,516.0 484.0,516.0 442.4,516.0 400.8,516.0 359.2,516.0 317.6,516.0 276.0,516.0 234.4,516.0 192.8,516.0 151.2,516.0 109.6,516.0 68.0,516.0" fill="#c7e9c0" fill-opacity="0.9" stroke="#fff" stroke-width="0.4"><title>codegen_spirv — parseTranslationUnit</title></polygon>
<polygon points="68.0,508.3 109.6,506.7 151.2,506.7 192.8,506.3 234.4,506.4 276.0,506.5 317.6,506.5 359.2,506.4 400.8,506.2 442.4,506.1 484.0,506.2 525.6,505.9 567.2,505.6 608.8,505.5 650.4,504.8 692.0,505.1 733.6,503.5 775.2,503.4 816.8,503.3 858.4,503.2 900.0,510.2 941.6,509.5 983.2,509.6 1024.8,509.6 1066.4,509.5 1108.0,509.4 1108.0,515.8 1066.4,515.8 1024.8,515.8 983.2,515.8 941.6,515.8 900.0,515.8 858.4,515.8 816.8,515.8 775.2,515.8 733.6,515.8 692.0,515.8 650.4,515.8 608.8,515.8 567.2,515.8 525.6,515.8 484.0,515.8 442.4,515.8 400.8,515.8 359.2,515.8 317.6,515.8 276.0,515.8 234.4,515.8 192.8,515.8 151.2,515.8 109.6,515.8 68.0,515.8" fill="#41ab5d" fill-opacity="0.9" stroke="#fff" stroke-width="0.4"><title>codegen_spirv — SemanticChecking</title></polygon>
<polygon points="68.0,506.7 109.6,505.0 151.2,505.0 192.8,504.6 234.4,504.8 276.0,504.8 317.6,504.8 359.2,504.7 400.8,504.5 442.4,504.5 484.0,504.6 525.6,504.2 567.2,503.9 608.8,503.9 650.4,503.2 692.0,503.4 733.6,500.6 775.2,500.5 816.8,500.4 858.4,500.3 900.0,507.5 941.6,506.7 983.2,506.8 1024.8,506.8 1066.4,506.7 1108.0,506.7 1108.0,509.4 1066.4,509.5 1024.8,509.6 983.2,509.6 941.6,509.5 900.0,510.2 858.4,503.2 816.8,503.3 775.2,503.4 733.6,503.5 692.0,505.1 650.4,504.8 608.8,505.5 567.2,505.6 525.6,505.9 484.0,506.2 442.4,506.1 400.8,506.2 359.2,506.4 317.6,506.5 276.0,506.5 234.4,506.4 192.8,506.3 151.2,506.7 109.6,506.7 68.0,508.3" fill="#006d2c" fill-opacity="0.9" stroke="#fff" stroke-width="0.4"><title>codegen_spirv — generateIR</title></polygon>
<polygon points="68.0,506.6 109.6,505.0 151.2,504.9 192.8,504.6 234.4,504.7 276.0,504.8 317.6,504.8 359.2,504.7 400.8,504.5 442.4,504.4 484.0,504.5 525.6,504.1 567.2,503.8 608.8,503.8 650.4,503.1 692.0,503.3 733.6,500.5 775.2,500.4 816.8,500.3 858.4,500.3 900.0,507.5 941.6,506.7 983.2,506.7 1024.8,506.8 1066.4,506.6 1108.0,506.6 1108.0,506.7 1066.4,506.7 1024.8,506.8 983.2,506.8 941.6,506.7 900.0,507.5 858.4,500.3 816.8,500.4 775.2,500.5 733.6,500.6 692.0,503.4 650.4,503.2 608.8,503.9 567.2,503.9 525.6,504.2 484.0,504.6 442.4,504.5 400.8,504.5 359.2,504.7 317.6,504.8 276.0,504.8 234.4,504.8 192.8,504.6 151.2,505.0 109.6,505.0 68.0,506.7" fill="#74c476" fill-opacity="0.9" stroke="#fff" stroke-width="0.4"><title>codegen_spirv — frontEndExecute (self)</title></polygon>
<polygon points="68.0,505.7 109.6,504.1 151.2,504.1 192.8,503.7 234.4,503.9 276.0,504.0 317.6,503.9 359.2,503.9 400.8,503.6 442.4,503.6 484.0,502.9 525.6,502.5 567.2,502.2 608.8,502.2 650.4,501.4 692.0,501.5 733.6,494.5 775.2,495.0 816.8,494.9 858.4,494.8 900.0,502.4 941.6,501.4 983.2,501.4 1024.8,501.5 1066.4,501.3 1108.0,501.3 1108.0,506.6 1066.4,506.6 1024.8,506.8 983.2,506.7 941.6,506.7 900.0,507.5 858.4,500.3 816.8,500.3 775.2,500.4 733.6,500.5 692.0,503.3 650.4,503.1 608.8,503.8 567.2,503.8 525.6,504.1 484.0,504.5 442.4,504.4 400.8,504.5 359.2,504.7 317.6,504.8 276.0,504.8 234.4,504.7 192.8,504.6 151.2,504.9 109.6,505.0 68.0,506.6" fill="#6baed6" fill-opacity="0.9" stroke="#fff" stroke-width="0.4"><title>codegen_spirv — specializeModule</title></polygon>
<polygon points="68.0,504.0 109.6,502.4 151.2,502.3 192.8,502.0 234.4,502.2 276.0,502.3 317.6,502.2 359.2,502.2 400.8,501.9 442.4,501.9 484.0,501.4 525.6,501.0 567.2,500.7 608.8,500.6 650.4,499.8 692.0,499.9 733.6,479.6 775.2,479.9 816.8,480.0 858.4,479.8 900.0,488.2 941.6,486.7 983.2,486.6 1024.8,486.8 1066.4,486.4 1108.0,486.4 1108.0,501.3 1066.4,501.3 1024.8,501.5 983.2,501.4 941.6,501.4 900.0,502.4 858.4,494.8 816.8,494.9 775.2,495.0 733.6,494.5 692.0,501.5 650.4,501.4 608.8,502.2 567.2,502.2 525.6,502.5 484.0,502.9 442.4,503.6 400.8,503.6 359.2,503.9 317.6,503.9 276.0,504.0 234.4,503.9 192.8,503.7 151.2,504.1 109.6,504.1 68.0,505.7" fill="#2171b5" fill-opacity="0.9" stroke="#fff" stroke-width="0.4"><title>codegen_spirv — simplifyIR</title></polygon>
<polygon points="68.0,503.7 109.6,502.1 151.2,502.0 192.8,501.7 234.4,501.9 276.0,502.0 317.6,501.9 359.2,501.9 400.8,501.6 442.4,501.6 484.0,501.1 525.6,500.7 567.2,500.4 608.8,500.4 650.4,499.4 692.0,499.6 733.6,476.4 775.2,476.6 816.8,476.8 858.4,476.5 900.0,487.9 941.6,486.4 983.2,486.3 1024.8,486.5 1066.4,486.1 1108.0,486.2 1108.0,486.4 1066.4,486.4 1024.8,486.8 983.2,486.6 941.6,486.7 900.0,488.2 858.4,479.8 816.8,480.0 775.2,479.9 733.6,479.6 692.0,499.9 650.4,499.8 608.8,500.6 567.2,500.7 525.6,501.0 484.0,501.4 442.4,501.9 400.8,501.9 359.2,502.2 317.6,502.2 276.0,502.3 234.4,502.2 192.8,502.0 151.2,502.3 109.6,502.4 68.0,504.0" fill="#08306b" fill-opacity="0.9" stroke="#fff" stroke-width="0.4"><title>codegen_spirv — linkIR</title></polygon>
<polygon points="68.0,503.7 109.6,502.1 151.2,502.0 192.8,501.7 234.4,501.9 276.0,502.0 317.6,501.9 359.2,501.8 400.8,501.6 442.4,501.6 484.0,501.1 525.6,500.7 567.2,500.4 608.8,500.4 650.4,499.4 692.0,499.6 733.6,476.4 775.2,476.6 816.8,476.8 858.4,476.5 900.0,487.9 941.6,486.4 983.2,486.3 1024.8,486.5 1066.4,486.1 1108.0,486.1 1108.0,486.2 1066.4,486.1 1024.8,486.5 983.2,486.3 941.6,486.4 900.0,487.9 858.4,476.5 816.8,476.8 775.2,476.6 733.6,476.4 692.0,499.6 650.4,499.4 608.8,500.4 567.2,500.4 525.6,500.7 484.0,501.1 442.4,501.6 400.8,501.6 359.2,501.9 317.6,501.9 276.0,502.0 234.4,501.9 192.8,501.7 151.2,502.0 109.6,502.1 68.0,503.7" fill="#9e9ac8" fill-opacity="0.9" stroke="#fff" stroke-width="0.4"><title>codegen_spirv — unrollLoopsInModule</title></polygon>
<polygon points="68.0,359.5 109.6,368.3 151.2,363.3 192.8,362.9 234.4,465.9 276.0,466.1 317.6,466.2 359.2,464.9 400.8,465.5 442.4,465.8 484.0,464.7 525.6,464.3 567.2,463.7 608.8,463.9 650.4,461.9 692.0,462.5 733.6,439.5 775.2,439.0 816.8,439.7 858.4,438.9 900.0,449.5 941.6,447.9 983.2,447.9 1024.8,448.1 1066.4,447.1 1108.0,447.9 1108.0,486.1 1066.4,486.1 1024.8,486.5 983.2,486.3 941.6,486.4 900.0,487.9 858.4,476.5 816.8,476.8 775.2,476.6 733.6,476.4 692.0,499.6 650.4,499.4 608.8,500.4 567.2,500.4 525.6,500.7 484.0,501.1 442.4,501.6 400.8,501.6 359.2,501.8 317.6,501.9 276.0,502.0 234.4,501.9 192.8,501.7 151.2,502.0 109.6,502.1 68.0,503.7" fill="#807dba" fill-opacity="0.9" stroke="#fff" stroke-width="0.4"><title>codegen_spirv — legalizeResourceTypes</title></polygon>
<polygon points="68.0,215.4 109.6,234.9 151.2,225.1 192.8,224.5 234.4,429.6 276.0,430.2 317.6,430.4 359.2,428.3 400.8,429.2 442.4,429.9 484.0,428.4 525.6,428.0 567.2,427.1 608.8,427.5 650.4,424.1 692.0,425.1 733.6,402.8 775.2,401.5 816.8,402.2 858.4,401.2 900.0,411.0 941.6,409.3 983.2,409.0 1024.8,409.9 1066.4,408.0 1108.0,409.0 1108.0,447.9 1066.4,447.1 1024.8,448.1 983.2,447.9 941.6,447.9 900.0,449.5 858.4,438.9 816.8,439.7 775.2,439.0 733.6,439.5 692.0,462.5 650.4,461.9 608.8,463.9 567.2,463.7 525.6,464.3 484.0,464.7 442.4,465.8 400.8,465.5 359.2,464.9 317.6,466.2 276.0,466.1 234.4,465.9 192.8,362.9 151.2,363.3 109.6,368.3 68.0,359.5" fill="#6a51a3" fill-opacity="0.9" stroke="#fff" stroke-width="0.4"><title>codegen_spirv — legalizeExistentialTypeLayout</title></polygon>
<polygon points="68.0,215.4 109.6,234.8 151.2,225.0 192.8,224.4 234.4,429.5 276.0,430.1 317.6,430.3 359.2,428.2 400.8,429.1 442.4,429.8 484.0,428.4 525.6,427.9 567.2,427.0 608.8,427.4 650.4,424.0 692.0,425.0 733.6,402.7 775.2,401.5 816.8,402.2 858.4,401.2 900.0,410.9 941.6,409.3 983.2,408.9 1024.8,409.8 1066.4,407.9 1108.0,408.9 1108.0,409.0 1066.4,408.0 1024.8,409.9 983.2,409.0 941.6,409.3 900.0,411.0 858.4,401.2 816.8,402.2 775.2,401.5 733.6,402.8 692.0,425.1 650.4,424.1 608.8,427.5 567.2,427.1 525.6,428.0 484.0,428.4 442.4,429.9 400.8,429.2 359.2,428.3 317.6,430.4 276.0,430.2 234.4,429.6 192.8,224.5 151.2,225.1 109.6,234.9 68.0,215.4" fill="#bcbddc" fill-opacity="0.9" stroke="#fff" stroke-width="0.4"><title>codegen_spirv — performMandatoryEarlyInlining</title></polygon>
<polygon points="68.0,215.3 109.6,234.7 151.2,224.9 192.8,224.3 234.4,429.5 276.0,430.0 317.6,430.3 359.2,428.1 400.8,429.0 442.4,429.7 484.0,428.3 525.6,427.8 567.2,426.9 608.8,427.3 650.4,423.9 692.0,424.9 733.6,402.6 775.2,401.4 816.8,402.1 858.4,401.1 900.0,410.8 941.6,409.2 983.2,408.8 1024.8,409.7 1066.4,407.8 1108.0,408.8 1108.0,408.9 1066.4,407.9 1024.8,409.8 983.2,408.9 941.6,409.3 900.0,410.9 858.4,401.2 816.8,402.2 775.2,401.5 733.6,402.7 692.0,425.0 650.4,424.0 608.8,427.4 567.2,427.0 525.6,427.9 484.0,428.4 442.4,429.8 400.8,429.1 359.2,428.2 317.6,430.3 276.0,430.1 234.4,429.5 192.8,224.4 151.2,225.0 109.6,234.8 68.0,215.4" fill="#dadaeb" fill-opacity="0.9" stroke="#fff" stroke-width="0.4"><title>codegen_spirv — performForceInlining</title></polygon>
<polygon points="68.0,213.0 109.6,232.4 151.2,222.6 192.8,221.9 234.4,427.1 276.0,427.7 317.6,427.8 359.2,425.6 400.8,426.5 442.4,427.3 484.0,425.8 525.6,425.1 567.2,424.2 608.8,424.8 650.4,421.0 692.0,422.0 733.6,379.8 775.2,378.3 816.8,378.7 858.4,377.9 900.0,388.5 941.6,387.7 983.2,387.4 1024.8,387.3 1066.4,386.8 1108.0,387.1 1108.0,408.8 1066.4,407.8 1024.8,409.7 983.2,408.8 941.6,409.2 900.0,410.8 858.4,401.1 816.8,402.1 775.2,401.4 733.6,402.6 692.0,424.9 650.4,423.9 608.8,427.3 567.2,426.9 525.6,427.8 484.0,428.3 442.4,429.7 400.8,429.0 359.2,428.1 317.6,430.3 276.0,430.0 234.4,429.5 192.8,224.3 151.2,224.9 109.6,234.7 68.0,215.3" fill="#4a1486" fill-opacity="0.9" stroke="#fff" stroke-width="0.4"><title>codegen_spirv — linkAndOptimizeIR (self)</title></polygon>
<polygon points="68.0,108.6 109.6,125.1 151.2,114.2 192.8,118.1 234.4,388.2 276.0,388.8 317.6,389.3 359.2,386.7 400.8,387.6 442.4,388.7 484.0,386.3 525.6,386.0 567.2,384.8 608.8,385.6 650.4,380.9 692.0,382.0 733.6,340.1 775.2,338.3 816.8,338.8 858.4,337.9 900.0,348.2 941.6,348.9 983.2,348.7 1024.8,347.1 1066.4,348.2 1108.0,347.6 1108.0,387.1 1066.4,386.8 1024.8,387.3 983.2,387.4 941.6,387.7 900.0,388.5 858.4,377.9 816.8,378.7 775.2,378.3 733.6,379.8 692.0,422.0 650.4,421.0 608.8,424.8 567.2,424.2 525.6,425.1 484.0,425.8 442.4,427.3 400.8,426.5 359.2,425.6 317.6,427.8 276.0,427.7 234.4,427.1 192.8,221.9 151.2,222.6 109.6,232.4 68.0,213.0" fill="#e6550d" fill-opacity="0.9" stroke="#fff" stroke-width="0.4"><title>codegen_spirv — generateOutput (self)</title></polygon>
<polygon points="68.0,108.6 109.6,125.1 151.2,114.1 192.8,118.1 234.4,388.1 276.0,388.8 317.6,389.2 359.2,386.6 400.8,387.6 442.4,388.6 484.0,386.3 525.6,386.0 567.2,384.7 608.8,385.5 650.4,380.9 692.0,382.0 733.6,340.0 775.2,338.3 816.8,338.7 858.4,337.8 900.0,348.2 941.6,348.8 983.2,348.6 1024.8,347.1 1066.4,348.1 1108.0,347.5 1108.0,347.6 1066.4,348.2 1024.8,347.1 983.2,348.7 941.6,348.9 900.0,348.2 858.4,337.9 816.8,338.8 775.2,338.3 733.6,340.1 692.0,382.0 650.4,380.9 608.8,385.6 567.2,384.8 525.6,386.0 484.0,386.3 442.4,388.7 400.8,387.6 359.2,386.7 317.6,389.3 276.0,388.8 234.4,388.2 192.8,118.1 151.2,114.2 109.6,125.1 68.0,108.6" fill="#969696" fill-opacity="0.9" stroke="#fff" stroke-width="0.4"><title>codegen_spirv — compileInner (self)</title></polygon>
<text x="12" y="578" fill="#666" font-weight="600">phase buckets</text>
<rect x="12" y="586" width="12" height="12" fill="#c7e9c0"/>
<text x="28" y="596" fill="#222">parseTranslationUnit</text>
<rect x="289" y="586" width="12" height="12" fill="#41ab5d"/>
<text x="305" y="596" fill="#222">SemanticChecking</text>
<rect x="566" y="586" width="12" height="12" fill="#006d2c"/>
<text x="582" y="596" fill="#222">generateIR</text>
<rect x="843" y="586" width="12" height="12" fill="#74c476"/>
<text x="859" y="596" fill="#222">frontEndExecute (self)</text>
<rect x="12" y="604" width="12" height="12" fill="#6baed6"/>
<text x="28" y="614" fill="#222">specializeModule</text>
<rect x="289" y="604" width="12" height="12" fill="#2171b5"/>
<text x="305" y="614" fill="#222">simplifyIR</text>
<rect x="566" y="604" width="12" height="12" fill="#08306b"/>
<text x="582" y="614" fill="#222">linkIR</text>
<rect x="843" y="604" width="12" height="12" fill="#9e9ac8"/>
<text x="859" y="614" fill="#222">unrollLoopsInModule</text>
<rect x="12" y="622" width="12" height="12" fill="#807dba"/>
<text x="28" y="632" fill="#222">legalizeResourceTypes</text>
<rect x="289" y="622" width="12" height="12" fill="#6a51a3"/>
<text x="305" y="632" fill="#222">legalizeExistentialTypeLayout</text>
<rect x="566" y="622" width="12" height="12" fill="#bcbddc"/>
<text x="582" y="632" fill="#222">performMandatoryEarlyInlining</text>
<rect x="843" y="622" width="12" height="12" fill="#dadaeb"/>
<text x="859" y="632" fill="#222">performForceInlining</text>
<rect x="12" y="640" width="12" height="12" fill="#4a1486"/>
<text x="28" y="650" fill="#222">linkAndOptimizeIR (self)</text>
<rect x="289" y="640" width="12" height="12" fill="#fd8d3c"/>
<text x="305" y="650" fill="#222">emitEntryPointsSourceFromIR</text>
<rect x="566" y="640" width="12" height="12" fill="#e6550d"/>
<text x="582" y="650" fill="#222">generateOutput (self)</text>
<rect x="843" y="640" width="12" height="12" fill="#969696"/>
<text x="859" y="650" fill="#222">compileInner (self)</text>
</svg>