<svg xmlns="http://www.w3.org/2000/svg" xmlns:xlink="http://www.w3.org/1999/xlink" width="1132" height="680" viewBox="0 0 1132 680" preserveAspectRatio="xMidYMid meet" font-family="sans-serif" font-size="13">
<rect width="1132" height="680" fill="white"/>
<text x="12" y="30" font-size="20" font-weight="bold">codegen_dxil — Daily tip-of-tree (last 30 days) (median ms)</text>
<text x="68" y="60" font-size="15" font-weight="600" fill="#1a1a1a">codegen_dxil<tspan fill="#888" font-weight="400" text-decoration="none">  0.40×</tspan></text>
<line x1="68.0" y1="516.0" x2="1108.0" y2="516.0" stroke="#eee"/>
<text x="64.0" y="519.0" text-anchor="end" fill="#999">0.0</text>
<line x1="68.0" y1="296.0" x2="1108.0" y2="296.0" stroke="#eee"/>
<text x="64.0" y="299.0" text-anchor="end" fill="#999">515</text>
<line x1="68.0" y1="76.0" x2="1108.0" y2="76.0" stroke="#eee"/>
<text x="64.0" y="79.0" text-anchor="end" fill="#999">1031</text>
<line x1="68.0" y1="76.0" x2="68.0" y2="516.0" stroke="#333"/>
<line x1="68.0" y1="516.0" x2="1108.0" y2="516.0" stroke="#333"/>
<line x1="68.0" y1="516.0" x2="68.0" y2="519.0" stroke="#999"/>
<text x="68.0" y="531.0" text-anchor="end" fill="#e8731a" transform="rotate(-50 68.0 531.0)">06-25</text>
<line x1="115.3" y1="516.0" x2="115.3" y2="519.0" stroke="#999"/>
<text x="115.3" y="531.0" text-anchor="end" fill="#e8731a" transform="rotate(-50 115.3 531.0)">06-26</text>
<line x1="162.5" y1="516.0" x2="162.5" y2="519.0" stroke="#999"/>
<text x="162.5" y="531.0" text-anchor="end" fill="#e8731a" transform="rotate(-50 162.5 531.0)">06-28</text>
<line x1="209.8" y1="516.0" x2="209.8" y2="519.0" stroke="#999"/>
<text x="209.8" y="531.0" text-anchor="end" fill="#e8731a" transform="rotate(-50 209.8 531.0)">07-01</text>
<line x1="257.1" y1="516.0" x2="257.1" y2="519.0" stroke="#999"/>
<text x="257.1" y="531.0" text-anchor="end" fill="#e8731a" transform="rotate(-50 257.1 531.0)">07-02</text>
<line x1="304.4" y1="516.0" x2="304.4" y2="519.0" stroke="#999"/>
<text x="304.4" y="531.0" text-anchor="end" fill="#e8731a" transform="rotate(-50 304.4 531.0)">07-03</text>
<line x1="351.6" y1="516.0" x2="351.6" y2="519.0" stroke="#999"/>
<text x="351.6" y="531.0" text-anchor="end" fill="#e8731a" transform="rotate(-50 351.6 531.0)">07-06</text>
<line x1="398.9" y1="516.0" x2="398.9" y2="519.0" stroke="#999"/>
<text x="398.9" y="531.0" text-anchor="end" fill="#e8731a" transform="rotate(-50 398.9 531.0)">07-07</text>
<line x1="446.2" y1="516.0" x2="446.2" y2="519.0" stroke="#999"/>
<text x="446.2" y="531.0" text-anchor="end" fill="#e8731a" transform="rotate(-50 446.2 531.0)">07-08</text>
<line x1="493.5" y1="516.0" x2="493.5" y2="519.0" stroke="#999"/>
<text x="493.5" y="531.0" text-anchor="end" fill="#e8731a" transform="rotate(-50 493.5 531.0)">07-09</text>
<line x1="540.7" y1="516.0" x2="540.7" y2="519.0" stroke="#999"/>
<text x="540.7" y="531.0" text-anchor="end" fill="#e8731a" transform="rotate(-50 540.7 531.0)">07-10</text>
<line x1="588.0" y1="516.0" x2="588.0" y2="519.0" stroke="#999"/>
<text x="588.0" y="531.0" text-anchor="end" fill="#e8731a" transform="rotate(-50 588.0 531.0)">07-11</text>
<line x1="635.3" y1="516.0" x2="635.3" y2="519.0" stroke="#999"/>
<text x="635.3" y="531.0" text-anchor="end" fill="#e8731a" transform="rotate(-50 635.3 531.0)">07-14</text>
<line x1="682.5" y1="516.0" x2="682.5" y2="519.0" stroke="#999"/>
<text x="682.5" y="531.0" text-anchor="end" fill="#e8731a" transform="rotate(-50 682.5 531.0)">07-15</text>
<line x1="729.8" y1="516.0" x2="729.8" y2="519.0" stroke="#999"/>
<text x="729.8" y="531.0" text-anchor="end" fill="#e8731a" transform="rotate(-50 729.8 531.0)">07-15</text>
<line x1="777.1" y1="516.0" x2="777.1" y2="519.0" stroke="#999"/>
<text x="777.1" y="531.0" text-anchor="end" fill="#e8731a" transform="rotate(-50 777.1 531.0)">07-16</text>
<line x1="824.4" y1="516.0" x2="824.4" y2="519.0" stroke="#999"/>
<text x="824.4" y="531.0" text-anchor="end" fill="#e8731a" transform="rotate(-50 824.4 531.0)">07-17</text>
<line x1="871.6" y1="516.0" x2="871.6" y2="519.0" stroke="#999"/>
<text x="871.6" y="531.0" text-anchor="end" fill="#e8731a" transform="rotate(-50 871.6 531.0)">07-18</text>
<line x1="918.9" y1="516.0" x2="918.9" y2="519.0" stroke="#999"/>
<text x="918.9" y="531.0" text-anchor="end" fill="#e8731a" transform="rotate(-50 918.9 531.0)">07-19</text>
<line x1="966.2" y1="516.0" x2="966.2" y2="519.0" stroke="#999"/>
<text x="966.2" y="531.0" text-anchor="end" fill="#e8731a" transform="rotate(-50 966.2 531.0)">07-20</text>
<line x1="1013.5" y1="516.0" x2="1013.5" y2="519.0" stroke="#999"/>
<text x="1013.5" y="531.0" text-anchor="end" fill="#e8731a" transform="rotate(-50 1013.5 531.0)">07-21</text>
<line x1="1060.7" y1="516.0" x2="1060.7" y2="519.0" stroke="#999"/>
<text x="1060.7" y="531.0" text-anchor="end" fill="#e8731a" transform="rotate(-50 1060.7 531.0)">07-22</text>
<line x1="1108.0" y1="516.0" x2="1108.0" y2="519.0" stroke="#999"/>
<text x="1108.0" y="531.0" text-anchor="end" fill="#e8731a" transform="rotate(-50 1108.0 531.0)">07-23</text>
<polygon points="68.0,515.5 115.3,515.5 162.5,515.5 209.8,515.5 257.1,515.5 304.4,515.5 351.6,515.5 398.9,515.6 446.2,515.5 493.5,515.5 540.7,515.6 588.0,515.6 635.3,515.6 682.5,515.6 729.8,515.6 777.1,515.6 824.4,515.6 871.6,515.6 918.9,515.6 966.2,515.6 1013.5,515.6 1060.7,515.6 1108.0,515.6 1108.0,516.0 1060.7,516.0 1013.5,516.0 966.2,516.0 918.9,516.0 871.6,516.0 824.4,516.0 777.1,516.0 729.8,516.0 682.5,516.0 635.3,516.0 588.0,516.0 540.7,516.0 493.5,516.0 446.2,516.0 398.9,516.0 351.6,516.0 304.4,516.0 257.1,516.0 209.8,516.0 162.5,516.0 115.3,516.0 68.0,516.0" fill="#c7e9c0" fill-opacity="0.9" stroke="#fff" stroke-width="0.4"><title>codegen_dxil — parseTranslationUnit</title></polygon>
<polygon points="68.0,499.6 115.3,499.7 162.5,499.7 209.8,499.1 257.1,499.7 304.4,500.1 351.6,499.4 398.9,499.9 446.2,498.0 493.5,495.7 540.7,500.1 588.0,500.2 635.3,500.2 682.5,501.3 729.8,501.3 777.1,499.4 824.4,499.4 871.6,502.0 918.9,502.0 966.2,502.4 1013.5,502.2 1060.7,502.5 1108.0,502.6 1108.0,515.6 1060.7,515.6 1013.5,515.6 966.2,515.6 918.9,515.6 871.6,515.6 824.4,515.6 777.1,515.6 729.8,515.6 682.5,515.6 635.3,515.6 588.0,515.6 540.7,515.6 493.5,515.5 446.2,515.5 398.9,515.6 351.6,515.5 304.4,515.5 257.1,515.5 209.8,515.5 162.5,515.5 115.3,515.5 68.0,515.5" fill="#41ab5d" fill-opacity="0.9" stroke="#fff" stroke-width="0.4"><title>codegen_dxil — SemanticChecking</title></polygon>
<polygon points="68.0,492.0 115.3,492.1 162.5,492.2 209.8,491.2 257.1,492.0 304.4,493.1 351.6,492.1 398.9,492.4 446.2,489.0 493.5,487.0 540.7,495.8 588.0,495.9 635.3,495.5 682.5,497.0 729.8,497.1 777.1,495.1 824.4,495.3 871.6,498.4 918.9,498.4 966.2,498.9 1013.5,498.4 1060.7,498.8 1108.0,499.0 1108.0,502.6 1060.7,502.5 1013.5,502.2 966.2,502.4 918.9,502.0 871.6,502.0 824.4,499.4 777.1,499.4 729.8,501.3 682.5,501.3 635.3,500.2 588.0,500.2 540.7,500.1 493.5,495.7 446.2,498.0 398.9,499.9 351.6,499.4 304.4,500.1 257.1,499.7 209.8,499.1 162.5,499.7 115.3,499.7 68.0,499.6" fill="#006d2c" fill-opacity="0.9" stroke="#fff" stroke-width="0.4"><title>codegen_dxil — generateIR</title></polygon>
<polygon points="68.0,491.9 115.3,492.1 162.5,492.2 209.8,491.0 257.1,491.9 304.4,493.0 351.6,492.1 398.9,492.2 446.2,488.9 493.5,486.4 540.7,495.6 588.0,495.7 635.3,495.3 682.5,496.9 729.8,497.0 777.1,495.0 824.4,495.2 871.6,498.4 918.9,498.3 966.2,498.8 1013.5,498.4 1060.7,498.7 1108.0,499.0 1108.0,499.0 1060.7,498.8 1013.5,498.4 966.2,498.9 918.9,498.4 871.6,498.4 824.4,495.3 777.1,495.1 729.8,497.1 682.5,497.0 635.3,495.5 588.0,495.9 540.7,495.8 493.5,487.0 446.2,489.0 398.9,492.4 351.6,492.1 304.4,493.1 257.1,492.0 209.8,491.2 162.5,492.2 115.3,492.1 68.0,492.0" fill="#74c476" fill-opacity="0.9" stroke="#fff" stroke-width="0.4"><title>codegen_dxil — frontEndExecute (self)</title></polygon>
<polygon points="68.0,481.0 115.3,481.3 162.5,481.2 209.8,479.8 257.1,480.8 304.4,482.3 351.6,481.3 398.9,480.1 446.2,477.0 493.5,472.7 540.7,489.3 588.0,489.4 635.3,489.0 682.5,491.3 729.8,491.3 777.1,489.4 824.4,489.5 871.6,492.9 918.9,492.7 966.2,493.3 1013.5,493.0 1060.7,493.2 1108.0,493.6 1108.0,499.0 1060.7,498.7 1013.5,498.4 966.2,498.8 918.9,498.3 871.6,498.4 824.4,495.2 777.1,495.0 729.8,497.0 682.5,496.9 635.3,495.3 588.0,495.7 540.7,495.6 493.5,486.4 446.2,488.9 398.9,492.2 351.6,492.1 304.4,493.0 257.1,491.9 209.8,491.0 162.5,492.2 115.3,492.1 68.0,491.9" fill="#6baed6" fill-opacity="0.9" stroke="#fff" stroke-width="0.4"><title>codegen_dxil — specializeModule</title></polygon>
<polygon points="68.0,451.6 115.3,452.0 162.5,450.1 209.8,448.7 257.1,451.0 304.4,452.8 351.6,452.2 398.9,449.5 446.2,446.1 493.5,441.4 540.7,484.1 588.0,484.3 635.3,483.6 682.5,486.1 729.8,485.9 777.1,484.2 824.4,484.2 871.6,487.6 918.9,487.5 966.2,488.0 1013.5,487.6 1060.7,487.8 1108.0,488.3 1108.0,493.6 1060.7,493.2 1013.5,493.0 966.2,493.3 918.9,492.7 871.6,492.9 824.4,489.5 777.1,489.4 729.8,491.3 682.5,491.3 635.3,489.0 588.0,489.4 540.7,489.3 493.5,472.7 446.2,477.0 398.9,480.1 351.6,481.3 304.4,482.3 257.1,480.8 209.8,479.8 162.5,481.2 115.3,481.3 68.0,481.0" fill="#2171b5" fill-opacity="0.9" stroke="#fff" stroke-width="0.4"><title>codegen_dxil — simplifyIR</title></polygon>
<polygon points="68.0,450.9 115.3,451.3 162.5,449.3 209.8,448.1 257.1,450.4 304.4,452.1 351.6,451.5 398.9,448.9 446.2,445.4 493.5,440.7 540.7,483.4 588.0,483.5 635.3,482.9 682.5,485.5 729.8,485.3 777.1,483.5 824.4,483.6 871.6,487.1 918.9,487.0 966.2,487.5 1013.5,487.1 1060.7,487.3 1108.0,487.8 1108.0,488.3 1060.7,487.8 1013.5,487.6 966.2,488.0 918.9,487.5 871.6,487.6 824.4,484.2 777.1,484.2 729.8,485.9 682.5,486.1 635.3,483.6 588.0,484.3 540.7,484.1 493.5,441.4 446.2,446.1 398.9,449.5 351.6,452.2 304.4,452.8 257.1,451.0 209.8,448.7 162.5,450.1 115.3,452.0 68.0,451.6" fill="#08306b" fill-opacity="0.9" stroke="#fff" stroke-width="0.4"><title>codegen_dxil — linkIR</title></polygon>
<polygon points="68.0,450.9 115.3,451.3 162.5,449.3 209.8,448.1 257.1,450.4 304.4,452.1 351.6,451.5 398.9,448.9 446.2,445.4 493.5,440.7 540.7,483.4 588.0,483.5 635.3,482.9 682.5,485.5 729.8,485.3 777.1,483.5 824.4,483.5 871.6,487.1 918.9,487.0 966.2,487.5 1013.5,487.1 1060.7,487.3 1108.0,487.8 1108.0,487.8 1060.7,487.3 1013.5,487.1 966.2,487.5 918.9,487.0 871.6,487.1 824.4,483.6 777.1,483.5 729.8,485.3 682.5,485.5 635.3,482.9 588.0,483.5 540.7,483.4 493.5,440.7 446.2,445.4 398.9,448.9 351.6,451.5 304.4,452.1 257.1,450.4 209.8,448.1 162.5,449.3 115.3,451.3 68.0,450.9" fill="#9e9ac8" fill-opacity="0.9" stroke="#fff" stroke-width="0.4"><title>codegen_dxil — unrollLoopsInModule</title></polygon>
<polygon points="68.0,382.9 115.3,384.0 162.5,380.2 209.8,380.5 257.1,383.7 304.4,387.4 351.6,383.6 398.9,382.2 446.2,373.9 493.5,372.7 540.7,454.8 588.0,455.0 635.3,454.2 682.5,455.8 729.8,455.7 777.1,455.0 824.4,455.0 871.6,460.4 918.9,459.3 966.2,460.9 1013.5,459.4 1060.7,460.4 1108.0,461.1 1108.0,487.8 1060.7,487.3 1013.5,487.1 966.2,487.5 918.9,487.0 871.6,487.1 824.4,483.5 777.1,483.5 729.8,485.3 682.5,485.5 635.3,482.9 588.0,483.5 540.7,483.4 493.5,440.7 446.2,445.4 398.9,448.9 351.6,451.5 304.4,452.1 257.1,450.4 209.8,448.1 162.5,449.3 115.3,451.3 68.0,450.9" fill="#807dba" fill-opacity="0.9" stroke="#fff" stroke-width="0.4"><title>codegen_dxil — legalizeResourceTypes</title></polygon>
<polygon points="68.0,315.3 115.3,316.1 162.5,312.0 209.8,312.5 257.1,316.1 304.4,320.0 351.6,315.0 398.9,312.7 446.2,303.8 493.5,303.8 540.7,425.4 588.0,425.8 635.3,425.4 682.5,425.9 729.8,426.2 777.1,426.1 824.4,426.0 871.6,433.3 918.9,431.6 966.2,433.8 1013.5,431.7 1060.7,433.2 1108.0,433.9 1108.0,461.1 1060.7,460.4 1013.5,459.4 966.2,460.9 918.9,459.3 871.6,460.4 824.4,455.0 777.1,455.0 729.8,455.7 682.5,455.8 635.3,454.2 588.0,455.0 540.7,454.8 493.5,372.7 446.2,373.9 398.9,382.2 351.6,383.6 304.4,387.4 257.1,383.7 209.8,380.5 162.5,380.2 115.3,384.0 68.0,382.9" fill="#6a51a3" fill-opacity="0.9" stroke="#fff" stroke-width="0.4"><title>codegen_dxil — legalizeExistentialTypeLayout</title></polygon>
<polygon points="68.0,315.1 115.3,316.0 162.5,311.9 209.8,312.4 257.1,316.0 304.4,319.9 351.6,314.8 398.9,312.5 446.2,303.6 493.5,303.6 540.7,425.2 588.0,425.6 635.3,425.2 682.5,425.7 729.8,426.0 777.1,425.9 824.4,425.8 871.6,433.1 918.9,431.4 966.2,433.6 1013.5,431.6 1060.7,433.0 1108.0,433.7 1108.0,433.9 1060.7,433.2 1013.5,431.7 966.2,433.8 918.9,431.6 871.6,433.3 824.4,426.0 777.1,426.1 729.8,426.2 682.5,425.9 635.3,425.4 588.0,425.8 540.7,425.4 493.5,303.8 446.2,303.8 398.9,312.7 351.6,315.0 304.4,320.0 257.1,316.1 209.8,312.5 162.5,312.0 115.3,316.1 68.0,315.3" fill="#bcbddc" fill-opacity="0.9" stroke="#fff" stroke-width="0.4"><title>codegen_dxil — performMandatoryEarlyInlining</title></polygon>
<polygon points="68.0,315.1 115.3,315.9 162.5,311.8 209.8,312.3 257.1,315.9 304.4,319.8 351.6,314.8 398.9,312.4 446.2,303.5 493.5,303.5 540.7,425.1 588.0,425.5 635.3,425.1 682.5,425.6 729.8,425.9 777.1,425.8 824.4,425.7 871.6,433.0 918.9,431.3 966.2,433.6 1013.5,431.5 1060.7,432.9 1108.0,433.6 1108.0,433.7 1060.7,433.0 1013.5,431.6 966.2,433.6 918.9,431.4 871.6,433.1 824.4,425.8 777.1,425.9 729.8,426.0 682.5,425.7 635.3,425.2 588.0,425.6 540.7,425.2 493.5,303.6 446.2,303.6 398.9,312.5 351.6,314.8 304.4,319.9 257.1,316.0 209.8,312.4 162.5,311.9 115.3,316.0 68.0,315.1" fill="#dadaeb" fill-opacity="0.9" stroke="#fff" stroke-width="0.4"><title>codegen_dxil — performForceInlining</title></polygon>
<polygon points="68.0,315.1 115.3,315.9 162.5,311.8 209.8,312.3 257.1,315.9 304.4,319.8 351.6,314.8 398.9,312.4 446.2,303.5 493.5,303.5 540.7,425.1 588.0,425.5 635.3,425.1 682.5,425.6 729.8,425.9 777.1,425.8 824.4,425.7 871.6,433.0 918.9,431.3 966.2,433.5 1013.5,431.5 1060.7,432.7 1108.0,433.6 1108.0,433.6 1060.7,432.9 1013.5,431.5 966.2,433.6 918.9,431.3 871.6,433.0 824.4,425.7 777.1,425.8 729.8,425.9 682.5,425.6 635.3,425.1 588.0,425.5 540.7,425.1 493.5,303.5 446.2,303.5 398.9,312.4 351.6,314.8 304.4,319.8 257.1,315.9 209.8,312.3 162.5,311.8 115.3,315.9 68.0,315.1" fill="#4a1486" fill-opacity="0.9" stroke="#fff" stroke-width="0.4"><title>codegen_dxil — linkAndOptimizeIR (self)</title></polygon>
<polygon points="68.0,131.8 115.3,133.3 162.5,125.0 209.8,126.4 257.1,132.3 304.4,140.2 351.6,131.1 398.9,125.6 446.2,111.7 493.5,114.2 540.7,347.0 588.0,347.3 635.3,347.3 682.5,346.8 729.8,347.4 777.1,349.3 824.4,348.5 871.6,361.7 918.9,358.6 966.2,362.1 1013.5,358.6 1060.7,360.8 1108.0,362.3 1108.0,433.6 1060.7,432.7 1013.5,431.5 966.2,433.5 918.9,431.3 871.6,433.0 824.4,425.7 777.1,425.8 729.8,425.9 682.5,425.6 635.3,425.1 588.0,425.5 540.7,425.1 493.5,303.5 446.2,303.5 398.9,312.4 351.6,314.8 304.4,319.8 257.1,315.9 209.8,312.3 162.5,311.8 115.3,315.9 68.0,315.1" fill="#fd8d3c" fill-opacity="0.9" stroke="#fff" stroke-width="0.4"><title>codegen_dxil — emitEntryPointsSourceFromIR</title></polygon>
<polygon points="68.0,131.4 115.3,133.3 162.5,124.1 209.8,126.4 257.1,131.3 304.4,140.1 351.6,130.6 398.9,123.2 446.2,111.7 493.5,108.6 540.7,346.2 588.0,345.9 635.3,347.0 682.5,346.7 729.8,347.4 777.1,348.9 824.4,348.4 871.6,361.7 918.9,357.1 966.2,362.1 1013.5,358.6 1060.7,360.4 1108.0,362.3 1108.0,362.3 1060.7,360.8 1013.5,358.6 966.2,362.1 918.9,358.6 871.6,361.7 824.4,348.5 777.1,349.3 729.8,347.4 682.5,346.8 635.3,347.3 588.0,347.3 540.7,347.0 493.5,114.2 446.2,111.7 398.9,125.6 351.6,131.1 304.4,140.2 257.1,132.3 209.8,126.4 162.5,125.0 115.3,133.3 68.0,131.8" fill="#969696" fill-opacity="0.9" stroke="#fff" stroke-width="0.4"><title>codegen_dxil — compileInner (self)</title></polygon>
<text x="12" y="578" fill="#666" font-weight="600">phase buckets</text>
<rect x="12" y="586" width="12" height="12" fill="#c7e9c0"/>
<text x="28" y="596" fill="#222">parseTranslationUnit</text>
<rect x="289" y="586" width="12" height="12" fill="#41ab5d"/>
<text x="305" y="596" fill="#222">SemanticChecking</text>
<rect x="566" y="586" width="12" height="12" fill="#006d2c"/>
<text x="582" y="596" fill="#222">generateIR</text>
<rect x="843" y="586" width="12" height="12" fill="#74c476"/>
<text x="859" y="596" fill="#222">frontEndExecute (self)</text>
<rect x="12" y="604" width="12" height="12" fill="#6baed6"/>
<text x="28" y="614" fill="#222">specializeModule</text>
<rect x="289" y="604" width="12" height="12" fill="#2171b5"/>
<text x="305" y="614" fill="#222">simplifyIR</text>
<rect x="566" y="604" width="12" height="12" fill="#08306b"/>
<text x="582" y="614" fill="#222">linkIR</text>
<rect x="843" y="604" width="12" height="12" fill="#9e9ac8"/>
<text x="859" y="614" fill="#222">unrollLoopsInModule</text>
<rect x="12" y="622" width="12" height="12" fill="#807dba"/>
<text x="28" y="632" fill="#222">legalizeResourceTypes</text>
<rect x="289" y="622" width="12" height="12" fill="#6a51a3"/>
<text x="305" y="632" fill="#222">legalizeExistentialTypeLayout</text>
<rect x="566" y="622" width="12" height="12" fill="#bcbddc"/>
<text x="582" y="632" fill="#222">performMandatoryEarlyInlining</text>
<rect x="843" y="622" width="12" height="12" fill="#dadaeb"/>
<text x="859" y="632" fill="#222">performForceInlining</text>
<rect x="12" y="640" width="12" height="12" fill="#4a1486"/>
<text x="28" y="650" fill="#222">linkAndOptimizeIR (self)</text>
<rect x="289" y="640" width="12" height="12" fill="#fd8d3c"/>
<text x="305" y="650" fill="#222">emitEntryPointsSourceFromIR</text>
<rect x="566" y="640" width="12" height="12" fill="#e6550d"/>
<text x="582" y="650" fill="#222">generateOutput (self)</text>
<rect x="843" y="640" width="12" height="12" fill="#969696"/>
<text x="859" y="650" fill="#222">compileInner (self)</text>
</svg>