<svg xmlns="http://www.w3.org/2000/svg" xmlns:xlink="http://www.w3.org/1999/xlink" width="1132" height="680" viewBox="0 0 1132 680" preserveAspectRatio="xMidYMid meet" font-family="sans-serif" font-size="13">
<rect width="1132" height="680" fill="white"/>
<text x="12" y="30" font-size="20" font-weight="bold">codegen_spirv — Daily tip-of-tree (last 30 days) (median ms)</text>
<text x="68" y="60" font-size="15" font-weight="600" fill="#1a1a1a">codegen_spirv<tspan fill="#888" font-weight="400" text-decoration="none">  0.37×</tspan></text>
<line x1="68.0" y1="516.0" x2="1108.0" y2="516.0" stroke="#eee"/>
<text x="64.0" y="519.0" text-anchor="end" fill="#999">0.0</text>
<line x1="68.0" y1="296.0" x2="1108.0" y2="296.0" stroke="#eee"/>
<text x="64.0" y="299.0" text-anchor="end" fill="#999">527</text>
<line x1="68.0" y1="76.0" x2="1108.0" y2="76.0" stroke="#eee"/>
<text x="64.0" y="79.0" text-anchor="end" fill="#999">1053</text>
<line x1="68.0" y1="76.0" x2="68.0" y2="516.0" stroke="#333"/>
<line x1="68.0" y1="516.0" x2="1108.0" y2="516.0" stroke="#333"/>
<line x1="68.0" y1="516.0" x2="68.0" y2="519.0" stroke="#999"/>
<text x="68.0" y="531.0" text-anchor="end" fill="#e8731a" transform="rotate(-50 68.0 531.0)">06-25</text>
<line x1="129.2" y1="516.0" x2="129.2" y2="519.0" stroke="#999"/>
<text x="129.2" y="531.0" text-anchor="end" fill="#e8731a" transform="rotate(-50 129.2 531.0)">06-26</text>
<line x1="190.4" y1="516.0" x2="190.4" y2="519.0" stroke="#999"/>
<text x="190.4" y="531.0" text-anchor="end" fill="#e8731a" transform="rotate(-50 190.4 531.0)">06-28</text>
<line x1="251.5" y1="516.0" x2="251.5" y2="519.0" stroke="#999"/>
<text x="251.5" y="531.0" text-anchor="end" fill="#e8731a" transform="rotate(-50 251.5 531.0)">07-01</text>
<line x1="312.7" y1="516.0" x2="312.7" y2="519.0" stroke="#999"/>
<text x="312.7" y="531.0" text-anchor="end" fill="#e8731a" transform="rotate(-50 312.7 531.0)">07-02</text>
<line x1="373.9" y1="516.0" x2="373.9" y2="519.0" stroke="#999"/>
<text x="373.9" y="531.0" text-anchor="end" fill="#e8731a" transform="rotate(-50 373.9 531.0)">07-03</text>
<line x1="435.1" y1="516.0" x2="435.1" y2="519.0" stroke="#999"/>
<text x="435.1" y="531.0" text-anchor="end" fill="#e8731a" transform="rotate(-50 435.1 531.0)">07-06</text>
<line x1="496.2" y1="516.0" x2="496.2" y2="519.0" stroke="#999"/>
<text x="496.2" y="531.0" text-anchor="end" fill="#e8731a" transform="rotate(-50 496.2 531.0)">07-07</text>
<line x1="557.4" y1="516.0" x2="557.4" y2="519.0" stroke="#999"/>
<text x="557.4" y="531.0" text-anchor="end" fill="#e8731a" transform="rotate(-50 557.4 531.0)">07-08</text>
<line x1="618.6" y1="516.0" x2="618.6" y2="519.0" stroke="#999"/>
<text x="618.6" y="531.0" text-anchor="end" fill="#e8731a" transform="rotate(-50 618.6 531.0)">07-09</text>
<line x1="679.8" y1="516.0" x2="679.8" y2="519.0" stroke="#999"/>
<text x="679.8" y="531.0" text-anchor="end" fill="#e8731a" transform="rotate(-50 679.8 531.0)">07-10</text>
<line x1="740.9" y1="516.0" x2="740.9" y2="519.0" stroke="#999"/>
<text x="740.9" y="531.0" text-anchor="end" fill="#e8731a" transform="rotate(-50 740.9 531.0)">07-11</text>
<line x1="802.1" y1="516.0" x2="802.1" y2="519.0" stroke="#999"/>
<text x="802.1" y="531.0" text-anchor="end" fill="#e8731a" transform="rotate(-50 802.1 531.0)">07-14</text>
<line x1="863.3" y1="516.0" x2="863.3" y2="519.0" stroke="#999"/>
<text x="863.3" y="531.0" text-anchor="end" fill="#e8731a" transform="rotate(-50 863.3 531.0)">07-15</text>
<line x1="924.5" y1="516.0" x2="924.5" y2="519.0" stroke="#999"/>
<text x="924.5" y="531.0" text-anchor="end" fill="#e8731a" transform="rotate(-50 924.5 531.0)">07-15</text>
<line x1="985.6" y1="516.0" x2="985.6" y2="519.0" stroke="#999"/>
<text x="985.6" y="531.0" text-anchor="end" fill="#e8731a" transform="rotate(-50 985.6 531.0)">07-16</text>
<line x1="1046.8" y1="516.0" x2="1046.8" y2="519.0" stroke="#999"/>
<text x="1046.8" y="531.0" text-anchor="end" fill="#e8731a" transform="rotate(-50 1046.8 531.0)">07-17</text>
<line x1="1108.0" y1="516.0" x2="1108.0" y2="519.0" stroke="#999"/>
<text x="1108.0" y="531.0" text-anchor="end" fill="#e8731a" transform="rotate(-50 1108.0 531.0)">07-18</text>
<polygon points="68.0,515.5 129.2,515.5 190.4,515.5 251.5,515.5 312.7,515.5 373.9,515.5 435.1,515.5 496.2,515.6 557.4,515.6 618.6,515.6 679.8,515.6 740.9,515.6 802.1,515.6 863.3,515.6 924.5,515.6 985.6,515.6 1046.8,515.6 1108.0,515.6 1108.0,516.0 1046.8,516.0 985.6,516.0 924.5,516.0 863.3,516.0 802.1,516.0 740.9,516.0 679.8,516.0 618.6,516.0 557.4,516.0 496.2,516.0 435.1,516.0 373.9,516.0 312.7,516.0 251.5,516.0 190.4,516.0 129.2,516.0 68.0,516.0" fill="#c7e9c0" fill-opacity="0.9" stroke="#fff" stroke-width="0.4"><title>codegen_spirv — parseTranslationUnit</title></polygon>
<polygon points="68.0,500.3 129.2,500.0 190.4,500.3 251.5,500.4 312.7,499.8 373.9,500.4 435.1,500.3 496.2,500.8 557.4,500.9 618.6,500.7 679.8,500.8 740.9,500.4 802.1,500.5 863.3,501.7 924.5,501.6 985.6,499.8 1046.8,499.8 1108.0,501.2 1108.0,515.6 1046.8,515.6 985.6,515.6 924.5,515.6 863.3,515.6 802.1,515.6 740.9,515.6 679.8,515.6 618.6,515.6 557.4,515.6 496.2,515.6 435.1,515.5 373.9,515.5 312.7,515.5 251.5,515.5 190.4,515.5 129.2,515.5 68.0,515.5" fill="#41ab5d" fill-opacity="0.9" stroke="#fff" stroke-width="0.4"><title>codegen_spirv — SemanticChecking</title></polygon>
<polygon points="68.0,493.2 129.2,493.1 190.4,492.7 251.5,493.3 312.7,492.8 373.9,493.5 435.1,493.3 496.2,493.9 557.4,493.9 618.6,493.7 679.8,496.5 740.9,496.2 802.1,496.4 863.3,497.6 924.5,497.4 985.6,495.8 1046.8,495.9 1108.0,497.4 1108.0,501.2 1046.8,499.8 985.6,499.8 924.5,501.6 863.3,501.7 802.1,500.5 740.9,500.4 679.8,500.8 618.6,500.7 557.4,500.9 496.2,500.8 435.1,500.3 373.9,500.4 312.7,499.8 251.5,500.4 190.4,500.3 129.2,500.0 68.0,500.3" fill="#006d2c" fill-opacity="0.9" stroke="#fff" stroke-width="0.4"><title>codegen_spirv — generateIR</title></polygon>
<polygon points="68.0,493.2 129.2,492.5 190.4,492.5 251.5,493.2 312.7,492.6 373.9,493.2 435.1,493.1 496.2,493.7 557.4,493.8 618.6,493.5 679.8,496.3 740.9,496.0 802.1,496.3 863.3,497.4 924.5,497.3 985.6,495.7 1046.8,495.7 1108.0,497.3 1108.0,497.4 1046.8,495.9 985.6,495.8 924.5,497.4 863.3,497.6 802.1,496.4 740.9,496.2 679.8,496.5 618.6,493.7 557.4,493.9 496.2,493.9 435.1,493.3 373.9,493.5 312.7,492.8 251.5,493.3 190.4,492.7 129.2,493.1 68.0,493.2" fill="#74c476" fill-opacity="0.9" stroke="#fff" stroke-width="0.4"><title>codegen_spirv — frontEndExecute (self)</title></polygon>
<polygon points="68.0,480.0 129.2,479.6 190.4,479.2 251.5,480.1 312.7,479.6 373.9,480.3 435.1,480.4 496.2,479.5 557.4,479.4 618.6,479.1 679.8,490.0 740.9,489.8 802.1,490.0 863.3,491.7 924.5,491.5 985.6,490.0 1046.8,489.9 1108.0,491.8 1108.0,497.3 1046.8,495.7 985.6,495.7 924.5,497.3 863.3,497.4 802.1,496.3 740.9,496.0 679.8,496.3 618.6,493.5 557.4,493.8 496.2,493.7 435.1,493.1 373.9,493.2 312.7,492.6 251.5,493.2 190.4,492.5 129.2,492.5 68.0,493.2" fill="#6baed6" fill-opacity="0.9" stroke="#fff" stroke-width="0.4"><title>codegen_spirv — specializeModule</title></polygon>
<polygon points="68.0,443.3 129.2,443.1 190.4,441.6 251.5,442.8 312.7,442.9 373.9,444.0 435.1,444.8 496.2,443.4 557.4,442.7 618.6,442.8 679.8,484.0 740.9,483.7 802.1,484.0 863.3,485.5 924.5,485.4 985.6,484.0 1046.8,483.8 1108.0,485.7 1108.0,491.8 1046.8,489.9 985.6,490.0 924.5,491.5 863.3,491.7 802.1,490.0 740.9,489.8 679.8,490.0 618.6,479.1 557.4,479.4 496.2,479.5 435.1,480.4 373.9,480.3 312.7,479.6 251.5,480.1 190.4,479.2 129.2,479.6 68.0,480.0" fill="#2171b5" fill-opacity="0.9" stroke="#fff" stroke-width="0.4"><title>codegen_spirv — simplifyIR</title></polygon>
<polygon points="68.0,442.4 129.2,442.3 190.4,440.8 251.5,442.1 312.7,442.1 373.9,443.2 435.1,444.0 496.2,442.7 557.4,442.0 618.6,442.2 679.8,483.3 740.9,483.0 802.1,483.3 863.3,484.9 924.5,484.7 985.6,483.4 1046.8,483.2 1108.0,485.2 1108.0,485.7 1046.8,483.8 985.6,484.0 924.5,485.4 863.3,485.5 802.1,484.0 740.9,483.7 679.8,484.0 618.6,442.8 557.4,442.7 496.2,443.4 435.1,444.8 373.9,444.0 312.7,442.9 251.5,442.8 190.4,441.6 129.2,443.1 68.0,443.3" fill="#08306b" fill-opacity="0.9" stroke="#fff" stroke-width="0.4"><title>codegen_spirv — linkIR</title></polygon>
<polygon points="68.0,442.4 129.2,442.3 190.4,440.8 251.5,442.0 312.7,442.1 373.9,443.2 435.1,444.0 496.2,442.7 557.4,442.0 618.6,442.2 679.8,483.3 740.9,483.0 802.1,483.3 863.3,484.9 924.5,484.7 985.6,483.4 1046.8,483.2 1108.0,485.1 1108.0,485.2 1046.8,483.2 985.6,483.4 924.5,484.7 863.3,484.9 802.1,483.3 740.9,483.0 679.8,483.3 618.6,442.2 557.4,442.0 496.2,442.7 435.1,444.0 373.9,443.2 312.7,442.1 251.5,442.1 190.4,440.8 129.2,442.3 68.0,442.4" fill="#9e9ac8" fill-opacity="0.9" stroke="#fff" stroke-width="0.4"><title>codegen_spirv — unrollLoopsInModule</title></polygon>
<polygon points="68.0,361.4 129.2,361.7 190.4,355.1 251.5,361.0 312.7,360.3 373.9,363.1 435.1,363.5 496.2,364.7 557.4,363.1 618.6,350.5 679.8,454.0 740.9,454.4 802.1,455.0 863.3,455.2 924.5,454.4 985.6,454.3 1046.8,454.5 1108.0,457.9 1108.0,485.1 1046.8,483.2 985.6,483.4 924.5,484.7 863.3,484.9 802.1,483.3 740.9,483.0 679.8,483.3 618.6,442.2 557.4,442.0 496.2,442.7 435.1,444.0 373.9,443.2 312.7,442.1 251.5,442.0 190.4,440.8 129.2,442.3 68.0,442.4" fill="#807dba" fill-opacity="0.9" stroke="#fff" stroke-width="0.4"><title>codegen_spirv — legalizeResourceTypes</title></polygon>
<polygon points="68.0,278.9 129.2,279.6 190.4,265.9 251.5,278.7 312.7,278.4 373.9,281.0 435.1,282.3 496.2,284.4 557.4,282.7 618.6,257.2 679.8,424.3 740.9,425.1 802.1,426.2 863.3,425.4 924.5,424.2 985.6,424.8 1046.8,425.7 1108.0,430.0 1108.0,457.9 1046.8,454.5 985.6,454.3 924.5,454.4 863.3,455.2 802.1,455.0 740.9,454.4 679.8,454.0 618.6,350.5 557.4,363.1 496.2,364.7 435.1,363.5 373.9,363.1 312.7,360.3 251.5,361.0 190.4,355.1 129.2,361.7 68.0,361.4" fill="#6a51a3" fill-opacity="0.9" stroke="#fff" stroke-width="0.4"><title>codegen_spirv — legalizeExistentialTypeLayout</title></polygon>
<polygon points="68.0,278.7 129.2,279.4 190.4,265.7 251.5,278.5 312.7,278.2 373.9,280.9 435.1,282.1 496.2,284.2 557.4,282.5 618.6,257.0 679.8,424.1 740.9,424.9 802.1,425.9 863.3,425.2 924.5,423.9 985.6,424.5 1046.8,425.5 1108.0,429.8 1108.0,430.0 1046.8,425.7 985.6,424.8 924.5,424.2 863.3,425.4 802.1,426.2 740.9,425.1 679.8,424.3 618.6,257.2 557.4,282.7 496.2,284.4 435.1,282.3 373.9,281.0 312.7,278.4 251.5,278.7 190.4,265.9 129.2,279.6 68.0,278.9" fill="#bcbddc" fill-opacity="0.9" stroke="#fff" stroke-width="0.4"><title>codegen_spirv — performMandatoryEarlyInlining</title></polygon>
<polygon points="68.0,278.4 129.2,279.2 190.4,265.5 251.5,278.3 312.7,278.0 373.9,280.6 435.1,281.9 496.2,284.0 557.4,282.3 618.6,256.7 679.8,423.8 740.9,424.6 802.1,425.7 863.3,425.0 924.5,423.7 985.6,424.3 1046.8,425.2 1108.0,429.6 1108.0,429.8 1046.8,425.5 985.6,424.5 924.5,423.9 863.3,425.2 802.1,425.9 740.9,424.9 679.8,424.1 618.6,257.0 557.4,282.5 496.2,284.2 435.1,282.1 373.9,280.9 312.7,278.2 251.5,278.5 190.4,265.7 129.2,279.4 68.0,278.7" fill="#dadaeb" fill-opacity="0.9" stroke="#fff" stroke-width="0.4"><title>codegen_spirv — performForceInlining</title></polygon>
<polygon points="68.0,224.7 129.2,225.8 190.4,210.7 251.5,223.8 312.7,223.7 373.9,226.3 435.1,228.3 496.2,230.7 557.4,228.9 618.6,201.3 679.8,375.6 740.9,377.1 802.1,376.4 863.3,376.7 924.5,375.7 985.6,374.7 1046.8,375.1 1108.0,383.0 1108.0,429.6 1046.8,425.2 985.6,424.3 924.5,423.7 863.3,425.0 802.1,425.7 740.9,424.6 679.8,423.8 618.6,256.7 557.4,282.3 496.2,284.0 435.1,281.9 373.9,280.6 312.7,278.0 251.5,278.3 190.4,265.5 129.2,279.2 68.0,278.4" fill="#4a1486" fill-opacity="0.9" stroke="#fff" stroke-width="0.4"><title>codegen_spirv — linkAndOptimizeIR (self)</title></polygon>
<polygon points="68.0,134.1 129.2,134.7 190.4,112.7 251.5,132.5 312.7,133.5 373.9,136.9 435.1,138.4 496.2,141.1 557.4,138.3 618.6,108.7 679.8,366.0 740.9,367.2 802.1,366.4 863.3,367.0 924.5,366.2 985.6,363.9 1046.8,364.9 1108.0,374.9 1108.0,383.0 1046.8,375.1 985.6,374.7 924.5,375.7 863.3,376.7 802.1,376.4 740.9,377.1 679.8,375.6 618.6,201.3 557.4,228.9 496.2,230.7 435.1,228.3 373.9,226.3 312.7,223.7 251.5,223.8 190.4,210.7 129.2,225.8 68.0,224.7" fill="#e6550d" fill-opacity="0.9" stroke="#fff" stroke-width="0.4"><title>codegen_spirv — generateOutput (self)</title></polygon>
<polygon points="68.0,133.7 129.2,134.4 190.4,112.6 251.5,132.2 312.7,133.3 373.9,136.6 435.1,138.4 496.2,140.9 557.4,138.1 618.6,108.6 679.8,366.0 740.9,366.6 802.1,366.2 863.3,367.0 924.5,366.0 985.6,363.9 1046.8,364.9 1108.0,374.9 1108.0,374.9 1046.8,364.9 985.6,363.9 924.5,366.2 863.3,367.0 802.1,366.4 740.9,367.2 679.8,366.0 618.6,108.7 557.4,138.3 496.2,141.1 435.1,138.4 373.9,136.9 312.7,133.5 251.5,132.5 190.4,112.7 129.2,134.7 68.0,134.1" fill="#969696" fill-opacity="0.9" stroke="#fff" stroke-width="0.4"><title>codegen_spirv — compileInner (self)</title></polygon>
<text x="12" y="578" fill="#666" font-weight="600">phase buckets</text>
<rect x="12" y="586" width="12" height="12" fill="#c7e9c0"/>
<text x="28" y="596" fill="#222">parseTranslationUnit</text>
<rect x="289" y="586" width="12" height="12" fill="#41ab5d"/>
<text x="305" y="596" fill="#222">SemanticChecking</text>
<rect x="566" y="586" width="12" height="12" fill="#006d2c"/>
<text x="582" y="596" fill="#222">generateIR</text>
<rect x="843" y="586" width="12" height="12" fill="#74c476"/>
<text x="859" y="596" fill="#222">frontEndExecute (self)</text>
<rect x="12" y="604" width="12" height="12" fill="#6baed6"/>
<text x="28" y="614" fill="#222">specializeModule</text>
<rect x="289" y="604" width="12" height="12" fill="#2171b5"/>
<text x="305" y="614" fill="#222">simplifyIR</text>
<rect x="566" y="604" width="12" height="12" fill="#08306b"/>
<text x="582" y="614" fill="#222">linkIR</text>
<rect x="843" y="604" width="12" height="12" fill="#9e9ac8"/>
<text x="859" y="614" fill="#222">unrollLoopsInModule</text>
<rect x="12" y="622" width="12" height="12" fill="#807dba"/>
<text x="28" y="632" fill="#222">legalizeResourceTypes</text>
<rect x="289" y="622" width="12" height="12" fill="#6a51a3"/>
<text x="305" y="632" fill="#222">legalizeExistentialTypeLayout</text>
<rect x="566" y="622" width="12" height="12" fill="#bcbddc"/>
<text x="582" y="632" fill="#222">performMandatoryEarlyInlining</text>
<rect x="843" y="622" width="12" height="12" fill="#dadaeb"/>
<text x="859" y="632" fill="#222">performForceInlining</text>
<rect x="12" y="640" width="12" height="12" fill="#4a1486"/>
<text x="28" y="650" fill="#222">linkAndOptimizeIR (self)</text>
<rect x="289" y="640" width="12" height="12" fill="#fd8d3c"/>
<text x="305" y="650" fill="#222">emitEntryPointsSourceFromIR</text>
<rect x="566" y="640" width="12" height="12" fill="#e6550d"/>
<text x="582" y="650" fill="#222">generateOutput (self)</text>
<rect x="843" y="640" width="12" height="12" fill="#969696"/>
<text x="859" y="650" fill="#222">compileInner (self)</text>
</svg>