<svg xmlns="http://www.w3.org/2000/svg" xmlns:xlink="http://www.w3.org/1999/xlink" width="1132" height="680" viewBox="0 0 1132 680" preserveAspectRatio="xMidYMid meet" font-family="sans-serif" font-size="13">
<rect width="1132" height="680" fill="white"/>
<text x="12" y="30" font-size="20" font-weight="bold">codegen_spirv — full phase breakdown across releases (median ms)</text>
<text x="68" y="60" font-size="15" font-weight="600" fill="#1a1a1a">codegen_spirv<tspan fill="#888" font-weight="400" text-decoration="none">  0.16×</tspan></text>
<line x1="68.0" y1="516.0" x2="1108.0" y2="516.0" stroke="#eee"/>
<text x="64.0" y="519.0" text-anchor="end" fill="#999">0.0</text>
<line x1="68.0" y1="296.0" x2="1108.0" y2="296.0" stroke="#eee"/>
<text x="64.0" y="299.0" text-anchor="end" fill="#999">1249</text>
<line x1="68.0" y1="76.0" x2="1108.0" y2="76.0" stroke="#eee"/>
<text x="64.0" y="79.0" text-anchor="end" fill="#999">2498</text>
<line x1="68.0" y1="76.0" x2="68.0" y2="516.0" stroke="#333"/>
<line x1="68.0" y1="516.0" x2="1108.0" y2="516.0" stroke="#333"/>
<line x1="689.1" y1="76.0" x2="689.1" y2="516.0" stroke="#e8731a" stroke-width="1.2" stroke-dasharray="4 3"/>
<text x="692.1" y="87.0" fill="#e8731a" font-size="11">daily →</text>
<line x1="68.0" y1="516.0" x2="68.0" y2="519.0" stroke="#999"/>
<text x="68.0" y="531.0" text-anchor="end" fill="#666" transform="rotate(-50 68.0 531.0)">25.14</text>
<line x1="96.9" y1="516.0" x2="96.9" y2="519.0" stroke="#999"/>
<text x="96.9" y="531.0" text-anchor="end" fill="#666" transform="rotate(-50 96.9 531.0)">25.15</text>
<line x1="125.8" y1="516.0" x2="125.8" y2="519.0" stroke="#999"/>
<text x="125.8" y="531.0" text-anchor="end" fill="#666" transform="rotate(-50 125.8 531.0)">25.16</text>
<line x1="154.7" y1="516.0" x2="154.7" y2="519.0" stroke="#999"/>
<text x="154.7" y="531.0" text-anchor="end" fill="#666" transform="rotate(-50 154.7 531.0)">25.17</text>
<line x1="183.6" y1="516.0" x2="183.6" y2="519.0" stroke="#999"/>
<text x="183.6" y="531.0" text-anchor="end" fill="#666" transform="rotate(-50 183.6 531.0)">25.18</text>
<line x1="212.4" y1="516.0" x2="212.4" y2="519.0" stroke="#999"/>
<text x="212.4" y="531.0" text-anchor="end" fill="#666" transform="rotate(-50 212.4 531.0)">25.19</text>
<line x1="241.3" y1="516.0" x2="241.3" y2="519.0" stroke="#999"/>
<text x="241.3" y="531.0" text-anchor="end" fill="#666" transform="rotate(-50 241.3 531.0)">25.20</text>
<line x1="270.2" y1="516.0" x2="270.2" y2="519.0" stroke="#999"/>
<text x="270.2" y="531.0" text-anchor="end" fill="#666" transform="rotate(-50 270.2 531.0)">25.21</text>
<line x1="299.1" y1="516.0" x2="299.1" y2="519.0" stroke="#999"/>
<text x="299.1" y="531.0" text-anchor="end" fill="#666" transform="rotate(-50 299.1 531.0)">25.22</text>
<line x1="328.0" y1="516.0" x2="328.0" y2="519.0" stroke="#999"/>
<text x="328.0" y="531.0" text-anchor="end" fill="#666" transform="rotate(-50 328.0 531.0)">25.23</text>
<line x1="356.9" y1="516.0" x2="356.9" y2="519.0" stroke="#999"/>
<text x="356.9" y="531.0" text-anchor="end" fill="#666" transform="rotate(-50 356.9 531.0)">25.24</text>
<line x1="385.8" y1="516.0" x2="385.8" y2="519.0" stroke="#999"/>
<text x="385.8" y="531.0" text-anchor="end" fill="#666" transform="rotate(-50 385.8 531.0)">26.1</text>
<line x1="414.7" y1="516.0" x2="414.7" y2="519.0" stroke="#999"/>
<text x="414.7" y="531.0" text-anchor="end" fill="#666" transform="rotate(-50 414.7 531.0)">26.2</text>
<line x1="443.6" y1="516.0" x2="443.6" y2="519.0" stroke="#999"/>
<text x="443.6" y="531.0" text-anchor="end" fill="#666" transform="rotate(-50 443.6 531.0)">26.3</text>
<line x1="472.4" y1="516.0" x2="472.4" y2="519.0" stroke="#999"/>
<text x="472.4" y="531.0" text-anchor="end" fill="#666" transform="rotate(-50 472.4 531.0)">26.4</text>
<line x1="501.3" y1="516.0" x2="501.3" y2="519.0" stroke="#999"/>
<text x="501.3" y="531.0" text-anchor="end" fill="#666" transform="rotate(-50 501.3 531.0)">26.5</text>
<line x1="530.2" y1="516.0" x2="530.2" y2="519.0" stroke="#999"/>
<text x="530.2" y="531.0" text-anchor="end" fill="#666" transform="rotate(-50 530.2 531.0)">26.7</text>
<line x1="559.1" y1="516.0" x2="559.1" y2="519.0" stroke="#999"/>
<text x="559.1" y="531.0" text-anchor="end" fill="#666" transform="rotate(-50 559.1 531.0)">26.8</text>
<line x1="588.0" y1="516.0" x2="588.0" y2="519.0" stroke="#999"/>
<text x="588.0" y="531.0" text-anchor="end" fill="#666" transform="rotate(-50 588.0 531.0)">26.9</text>
<line x1="616.9" y1="516.0" x2="616.9" y2="519.0" stroke="#999"/>
<text x="616.9" y="531.0" text-anchor="end" fill="#666" transform="rotate(-50 616.9 531.0)">26.10</text>
<line x1="645.8" y1="516.0" x2="645.8" y2="519.0" stroke="#999"/>
<text x="645.8" y="531.0" text-anchor="end" fill="#666" transform="rotate(-50 645.8 531.0)">26.11</text>
<line x1="674.7" y1="516.0" x2="674.7" y2="519.0" stroke="#999"/>
<text x="674.7" y="531.0" text-anchor="end" fill="#666" transform="rotate(-50 674.7 531.0)">26.12</text>
<line x1="703.6" y1="516.0" x2="703.6" y2="519.0" stroke="#999"/>
<text x="703.6" y="531.0" text-anchor="end" fill="#e8731a" transform="rotate(-50 703.6 531.0)">06-25</text>
<line x1="732.4" y1="516.0" x2="732.4" y2="519.0" stroke="#999"/>
<text x="732.4" y="531.0" text-anchor="end" fill="#e8731a" transform="rotate(-50 732.4 531.0)">06-26</text>
<line x1="761.3" y1="516.0" x2="761.3" y2="519.0" stroke="#999"/>
<text x="761.3" y="531.0" text-anchor="end" fill="#e8731a" transform="rotate(-50 761.3 531.0)">06-28</text>
<line x1="790.2" y1="516.0" x2="790.2" y2="519.0" stroke="#999"/>
<text x="790.2" y="531.0" text-anchor="end" fill="#e8731a" transform="rotate(-50 790.2 531.0)">07-01</text>
<line x1="819.1" y1="516.0" x2="819.1" y2="519.0" stroke="#999"/>
<text x="819.1" y="531.0" text-anchor="end" fill="#e8731a" transform="rotate(-50 819.1 531.0)">07-02</text>
<line x1="848.0" y1="516.0" x2="848.0" y2="519.0" stroke="#999"/>
<text x="848.0" y="531.0" text-anchor="end" fill="#e8731a" transform="rotate(-50 848.0 531.0)">07-03</text>
<line x1="876.9" y1="516.0" x2="876.9" y2="519.0" stroke="#999"/>
<text x="876.9" y="531.0" text-anchor="end" fill="#e8731a" transform="rotate(-50 876.9 531.0)">07-06</text>
<line x1="905.8" y1="516.0" x2="905.8" y2="519.0" stroke="#999"/>
<text x="905.8" y="531.0" text-anchor="end" fill="#e8731a" transform="rotate(-50 905.8 531.0)">07-07</text>
<line x1="934.7" y1="516.0" x2="934.7" y2="519.0" stroke="#999"/>
<text x="934.7" y="531.0" text-anchor="end" fill="#e8731a" transform="rotate(-50 934.7 531.0)">07-07</text>
<line x1="963.6" y1="516.0" x2="963.6" y2="519.0" stroke="#999"/>
<text x="963.6" y="531.0" text-anchor="end" fill="#e8731a" transform="rotate(-50 963.6 531.0)">07-08</text>
<line x1="992.4" y1="516.0" x2="992.4" y2="519.0" stroke="#999"/>
<text x="992.4" y="531.0" text-anchor="end" fill="#e8731a" transform="rotate(-50 992.4 531.0)">07-09</text>
<line x1="1021.3" y1="516.0" x2="1021.3" y2="519.0" stroke="#999"/>
<text x="1021.3" y="531.0" text-anchor="end" fill="#e8731a" transform="rotate(-50 1021.3 531.0)">07-09</text>
<line x1="1050.2" y1="516.0" x2="1050.2" y2="519.0" stroke="#999"/>
<text x="1050.2" y="531.0" text-anchor="end" fill="#e8731a" transform="rotate(-50 1050.2 531.0)">07-10</text>
<line x1="1079.1" y1="516.0" x2="1079.1" y2="519.0" stroke="#999"/>
<text x="1079.1" y="531.0" text-anchor="end" fill="#e8731a" transform="rotate(-50 1079.1 531.0)">07-11</text>
<line x1="1108.0" y1="516.0" x2="1108.0" y2="519.0" stroke="#999"/>
<text x="1108.0" y="531.0" text-anchor="end" fill="#e8731a" transform="rotate(-50 1108.0 531.0)">07-11</text>
<polygon points="68.0,515.8 96.9,515.8 125.8,515.8 154.7,515.8 183.6,515.8 212.4,515.8 241.3,515.8 270.2,515.8 299.1,515.8 328.0,515.8 356.9,515.8 385.8,515.8 414.7,515.8 443.6,515.8 472.4,515.8 501.3,515.8 530.2,515.8 559.1,515.8 588.0,515.8 616.9,515.8 645.8,515.8 674.7,515.8 703.6,515.8 732.4,515.8 761.3,515.8 790.2,515.8 819.1,515.8 848.0,515.8 876.9,515.8 905.8,515.8 934.7,515.8 963.6,515.8 992.4,515.8 1021.3,515.8 1050.2,515.8 1079.1,515.8 1108.0,515.8 1108.0,516.0 1079.1,516.0 1050.2,516.0 1021.3,516.0 992.4,516.0 963.6,516.0 934.7,516.0 905.8,516.0 876.9,516.0 848.0,516.0 819.1,516.0 790.2,516.0 761.3,516.0 732.4,516.0 703.6,516.0 674.7,516.0 645.8,516.0 616.9,516.0 588.0,516.0 559.1,516.0 530.2,516.0 501.3,516.0 472.4,516.0 443.6,516.0 414.7,516.0 385.8,516.0 356.9,516.0 328.0,516.0 299.1,516.0 270.2,516.0 241.3,516.0 212.4,516.0 183.6,516.0 154.7,516.0 125.8,516.0 96.9,516.0 68.0,516.0" fill="#c7e9c0" fill-opacity="0.9" stroke="#fff" stroke-width="0.4"><title>codegen_spirv — parseTranslationUnit</title></polygon>
<polygon points="68.0,507.9 96.9,506.6 125.8,506.3 154.7,505.6 183.6,505.4 212.4,506.0 241.3,505.9 270.2,505.9 299.1,505.6 328.0,505.6 356.9,506.0 385.8,505.9 414.7,505.3 443.6,505.3 472.4,505.5 501.3,505.4 530.2,503.3 559.1,503.1 588.0,503.2 616.9,503.2 645.8,510.0 674.7,509.7 703.6,509.5 732.4,509.5 761.3,509.4 790.2,509.5 819.1,509.5 848.0,509.4 876.9,509.4 905.8,509.5 934.7,509.6 963.6,509.6 992.4,509.7 1021.3,509.6 1050.2,509.6 1079.1,509.4 1108.0,509.4 1108.0,515.8 1079.1,515.8 1050.2,515.8 1021.3,515.8 992.4,515.8 963.6,515.8 934.7,515.8 905.8,515.8 876.9,515.8 848.0,515.8 819.1,515.8 790.2,515.8 761.3,515.8 732.4,515.8 703.6,515.8 674.7,515.8 645.8,515.8 616.9,515.8 588.0,515.8 559.1,515.8 530.2,515.8 501.3,515.8 472.4,515.8 443.6,515.8 414.7,515.8 385.8,515.8 356.9,515.8 328.0,515.8 299.1,515.8 270.2,515.8 241.3,515.8 212.4,515.8 183.6,515.8 154.7,515.8 125.8,515.8 96.9,515.8 68.0,515.8" fill="#41ab5d" fill-opacity="0.9" stroke="#fff" stroke-width="0.4"><title>codegen_spirv — SemanticChecking</title></polygon>
<polygon points="68.0,506.2 96.9,504.9 125.8,504.6 154.7,503.8 183.6,503.5 212.4,504.3 241.3,504.2 270.2,504.1 299.1,503.8 328.0,504.0 356.9,504.4 385.8,504.2 414.7,503.5 443.6,503.6 472.4,503.8 501.3,503.8 530.2,500.3 559.1,500.1 588.0,500.2 616.9,500.2 645.8,507.3 674.7,506.9 703.6,506.5 732.4,506.5 761.3,506.5 790.2,506.5 819.1,506.6 848.0,506.5 876.9,506.4 905.8,506.5 934.7,506.7 963.6,506.7 992.4,506.7 1021.3,506.6 1050.2,507.8 1079.1,507.6 1108.0,507.6 1108.0,509.4 1079.1,509.4 1050.2,509.6 1021.3,509.6 992.4,509.7 963.6,509.6 934.7,509.6 905.8,509.5 876.9,509.4 848.0,509.4 819.1,509.5 790.2,509.5 761.3,509.4 732.4,509.5 703.6,509.5 674.7,509.7 645.8,510.0 616.9,503.2 588.0,503.2 559.1,503.1 530.2,503.3 501.3,505.4 472.4,505.5 443.6,505.3 414.7,505.3 385.8,505.9 356.9,506.0 328.0,505.6 299.1,505.6 270.2,505.9 241.3,505.9 212.4,506.0 183.6,505.4 154.7,505.6 125.8,506.3 96.9,506.6 68.0,507.9" fill="#006d2c" fill-opacity="0.9" stroke="#fff" stroke-width="0.4"><title>codegen_spirv — generateIR</title></polygon>
<polygon points="68.0,506.1 96.9,504.9 125.8,504.5 154.7,503.6 183.6,503.4 212.4,504.3 241.3,504.1 270.2,504.0 299.1,503.7 328.0,503.9 356.9,504.3 385.8,504.2 414.7,503.5 443.6,503.6 472.4,503.7 501.3,503.7 530.2,500.2 559.1,500.0 588.0,500.1 616.9,500.2 645.8,507.2 674.7,506.8 703.6,506.4 732.4,506.5 761.3,506.4 790.2,506.5 819.1,506.5 848.0,506.4 876.9,506.4 905.8,506.5 934.7,506.6 963.6,506.6 992.4,506.6 1021.3,506.5 1050.2,507.7 1079.1,507.6 1108.0,507.6 1108.0,507.6 1079.1,507.6 1050.2,507.8 1021.3,506.6 992.4,506.7 963.6,506.7 934.7,506.7 905.8,506.5 876.9,506.4 848.0,506.5 819.1,506.6 790.2,506.5 761.3,506.5 732.4,506.5 703.6,506.5 674.7,506.9 645.8,507.3 616.9,500.2 588.0,500.2 559.1,500.1 530.2,500.3 501.3,503.8 472.4,503.8 443.6,503.6 414.7,503.5 385.8,504.2 356.9,504.4 328.0,504.0 299.1,503.8 270.2,504.1 241.3,504.2 212.4,504.3 183.6,503.5 154.7,503.8 125.8,504.6 96.9,504.9 68.0,506.2" fill="#74c476" fill-opacity="0.9" stroke="#fff" stroke-width="0.4"><title>codegen_spirv — frontEndExecute (self)</title></polygon>
<polygon points="68.0,505.2 96.9,504.0 125.8,503.6 154.7,502.7 183.6,502.5 212.4,503.4 241.3,503.2 270.2,503.1 299.1,502.8 328.0,503.0 356.9,502.7 385.8,502.5 414.7,501.8 443.6,501.9 472.4,502.1 501.3,501.9 530.2,494.3 559.1,494.5 588.0,494.8 616.9,494.8 645.8,502.1 674.7,501.9 703.6,501.0 732.4,500.9 761.3,501.0 790.2,501.0 819.1,501.1 848.0,501.0 876.9,501.0 905.8,500.5 934.7,500.6 963.6,500.6 992.4,500.6 1021.3,500.4 1050.2,505.0 1079.1,504.9 1108.0,504.9 1108.0,507.6 1079.1,507.6 1050.2,507.7 1021.3,506.5 992.4,506.6 963.6,506.6 934.7,506.6 905.8,506.5 876.9,506.4 848.0,506.4 819.1,506.5 790.2,506.5 761.3,506.4 732.4,506.5 703.6,506.4 674.7,506.8 645.8,507.2 616.9,500.2 588.0,500.1 559.1,500.0 530.2,500.2 501.3,503.7 472.4,503.7 443.6,503.6 414.7,503.5 385.8,504.2 356.9,504.3 328.0,503.9 299.1,503.7 270.2,504.0 241.3,504.1 212.4,504.3 183.6,503.4 154.7,503.6 125.8,504.5 96.9,504.9 68.0,506.1" fill="#6baed6" fill-opacity="0.9" stroke="#fff" stroke-width="0.4"><title>codegen_spirv — specializeModule</title></polygon>
<polygon points="68.0,503.5 96.9,502.2 125.8,501.8 154.7,500.9 183.6,500.6 212.4,501.6 241.3,501.4 270.2,501.3 299.1,501.0 328.0,501.2 356.9,501.2 385.8,501.0 414.7,500.2 443.6,500.4 472.4,500.5 501.3,500.3 530.2,479.6 559.1,479.5 588.0,480.1 616.9,479.8 645.8,487.5 674.7,487.6 703.6,485.8 732.4,485.7 761.3,485.7 790.2,485.4 819.1,486.1 848.0,485.7 876.9,486.0 905.8,485.0 934.7,485.4 963.6,485.1 992.4,485.1 1021.3,485.2 1050.2,502.4 1079.1,502.4 1108.0,502.4 1108.0,504.9 1079.1,504.9 1050.2,505.0 1021.3,500.4 992.4,500.6 963.6,500.6 934.7,500.6 905.8,500.5 876.9,501.0 848.0,501.0 819.1,501.1 790.2,501.0 761.3,501.0 732.4,500.9 703.6,501.0 674.7,501.9 645.8,502.1 616.9,494.8 588.0,494.8 559.1,494.5 530.2,494.3 501.3,501.9 472.4,502.1 443.6,501.9 414.7,501.8 385.8,502.5 356.9,502.7 328.0,503.0 299.1,502.8 270.2,503.1 241.3,503.2 212.4,503.4 183.6,502.5 154.7,502.7 125.8,503.6 96.9,504.0 68.0,505.2" fill="#2171b5" fill-opacity="0.9" stroke="#fff" stroke-width="0.4"><title>codegen_spirv — simplifyIR</title></polygon>
<polygon points="68.0,503.1 96.9,501.9 125.8,501.4 154.7,500.4 183.6,500.1 212.4,501.3 241.3,501.0 270.2,500.9 299.1,500.5 328.0,500.8 356.9,500.9 385.8,500.7 414.7,499.9 443.6,500.0 472.4,500.2 501.3,500.0 530.2,476.0 559.1,475.8 588.0,476.3 616.9,476.0 645.8,487.1 674.7,487.3 703.6,485.4 732.4,485.3 761.3,485.4 790.2,485.1 819.1,485.7 848.0,485.3 876.9,485.6 905.8,484.8 934.7,485.1 963.6,484.8 992.4,484.9 1021.3,484.9 1050.2,502.1 1079.1,502.1 1108.0,502.1 1108.0,502.4 1079.1,502.4 1050.2,502.4 1021.3,485.2 992.4,485.1 963.6,485.1 934.7,485.4 905.8,485.0 876.9,486.0 848.0,485.7 819.1,486.1 790.2,485.4 761.3,485.7 732.4,485.7 703.6,485.8 674.7,487.6 645.8,487.5 616.9,479.8 588.0,480.1 559.1,479.5 530.2,479.6 501.3,500.3 472.4,500.5 443.6,500.4 414.7,500.2 385.8,501.0 356.9,501.2 328.0,501.2 299.1,501.0 270.2,501.3 241.3,501.4 212.4,501.6 183.6,500.6 154.7,500.9 125.8,501.8 96.9,502.2 68.0,503.5" fill="#08306b" fill-opacity="0.9" stroke="#fff" stroke-width="0.4"><title>codegen_spirv — linkIR</title></polygon>
<polygon points="68.0,503.1 96.9,501.9 125.8,501.4 154.7,500.4 183.6,500.1 212.4,501.3 241.3,501.0 270.2,500.9 299.1,500.5 328.0,500.8 356.9,500.9 385.8,500.7 414.7,499.9 443.6,500.0 472.4,500.2 501.3,500.0 530.2,476.0 559.1,475.8 588.0,476.3 616.9,476.0 645.8,487.1 674.7,487.3 703.6,485.4 732.4,485.3 761.3,485.4 790.2,485.1 819.1,485.7 848.0,485.3 876.9,485.6 905.8,484.8 934.7,485.1 963.6,484.8 992.4,484.9 1021.3,484.9 1050.2,502.1 1079.1,502.1 1108.0,502.1 1108.0,502.1 1079.1,502.1 1050.2,502.1 1021.3,484.9 992.4,484.9 963.6,484.8 934.7,485.1 905.8,484.8 876.9,485.6 848.0,485.3 819.1,485.7 790.2,485.1 761.3,485.4 732.4,485.3 703.6,485.4 674.7,487.3 645.8,487.1 616.9,476.0 588.0,476.3 559.1,475.8 530.2,476.0 501.3,500.0 472.4,500.2 443.6,500.0 414.7,499.9 385.8,500.7 356.9,500.9 328.0,500.8 299.1,500.5 270.2,500.9 241.3,501.0 212.4,501.3 183.6,500.1 154.7,500.4 125.8,501.4 96.9,501.9 68.0,503.1" fill="#9e9ac8" fill-opacity="0.9" stroke="#fff" stroke-width="0.4"><title>codegen_spirv — unrollLoopsInModule</title></polygon>
<polygon points="68.0,368.9 96.9,368.8 125.8,363.5 154.7,363.2 183.6,463.2 212.4,469.0 241.3,466.6 270.2,468.2 299.1,467.9 328.0,467.4 356.9,469.1 385.8,468.8 414.7,468.1 443.6,468.1 472.4,468.0 501.3,468.0 530.2,443.7 559.1,443.4 588.0,444.4 616.9,443.7 645.8,453.5 674.7,453.9 703.6,451.5 732.4,451.4 761.3,450.9 790.2,451.2 819.1,452.2 848.0,451.5 876.9,451.7 905.8,451.2 934.7,452.2 963.6,451.5 992.4,450.8 1021.3,446.2 1050.2,468.4 1079.1,490.0 1108.0,490.0 1108.0,502.1 1079.1,502.1 1050.2,502.1 1021.3,484.9 992.4,484.9 963.6,484.8 934.7,485.1 905.8,484.8 876.9,485.6 848.0,485.3 819.1,485.7 790.2,485.1 761.3,485.4 732.4,485.3 703.6,485.4 674.7,487.3 645.8,487.1 616.9,476.0 588.0,476.3 559.1,475.8 530.2,476.0 501.3,500.0 472.4,500.2 443.6,500.0 414.7,499.9 385.8,500.7 356.9,500.9 328.0,500.8 299.1,500.5 270.2,500.9 241.3,501.0 212.4,501.3 183.6,500.1 154.7,500.4 125.8,501.4 96.9,501.9 68.0,503.1" fill="#807dba" fill-opacity="0.9" stroke="#fff" stroke-width="0.4"><title>codegen_spirv — legalizeResourceTypes</title></polygon>
<polygon points="68.0,234.0 96.9,236.6 125.8,222.2 154.7,230.0 183.6,426.3 212.4,436.1 241.3,431.6 270.2,433.7 299.1,435.5 328.0,434.0 356.9,437.4 385.8,437.3 414.7,435.5 443.6,435.9 472.4,436.0 501.3,435.7 530.2,411.6 559.1,410.5 588.0,412.0 616.9,411.9 645.8,419.6 674.7,420.3 703.6,416.7 732.4,416.9 761.3,415.9 790.2,417.5 819.1,419.0 848.0,416.9 876.9,417.5 905.8,417.5 934.7,418.4 963.6,417.6 992.4,415.9 1021.3,406.9 1050.2,434.7 1079.1,477.5 1108.0,477.7 1108.0,490.0 1079.1,490.0 1050.2,468.4 1021.3,446.2 992.4,450.8 963.6,451.5 934.7,452.2 905.8,451.2 876.9,451.7 848.0,451.5 819.1,452.2 790.2,451.2 761.3,450.9 732.4,451.4 703.6,451.5 674.7,453.9 645.8,453.5 616.9,443.7 588.0,444.4 559.1,443.4 530.2,443.7 501.3,468.0 472.4,468.0 443.6,468.1 414.7,468.1 385.8,468.8 356.9,469.1 328.0,467.4 299.1,467.9 270.2,468.2 241.3,466.6 212.4,469.0 183.6,463.2 154.7,363.2 125.8,363.5 96.9,368.8 68.0,368.9" fill="#6a51a3" fill-opacity="0.9" stroke="#fff" stroke-width="0.4"><title>codegen_spirv — legalizeExistentialTypeLayout</title></polygon>
<polygon points="68.0,233.9 96.9,236.5 125.8,222.1 154.7,229.9 183.6,426.2 212.4,436.0 241.3,431.5 270.2,433.6 299.1,435.4 328.0,433.9 356.9,437.3 385.8,437.2 414.7,435.4 443.6,435.8 472.4,435.9 501.3,435.6 530.2,411.5 559.1,410.4 588.0,411.9 616.9,411.8 645.8,419.5 674.7,420.3 703.6,416.6 732.4,416.8 761.3,415.9 790.2,417.4 819.1,419.0 848.0,416.8 876.9,417.4 905.8,417.4 934.7,418.3 963.6,417.5 992.4,415.8 1021.3,406.8 1050.2,434.6 1079.1,477.4 1108.0,477.6 1108.0,477.7 1079.1,477.5 1050.2,434.7 1021.3,406.9 992.4,415.9 963.6,417.6 934.7,418.4 905.8,417.5 876.9,417.5 848.0,416.9 819.1,419.0 790.2,417.5 761.3,415.9 732.4,416.9 703.6,416.7 674.7,420.3 645.8,419.6 616.9,411.9 588.0,412.0 559.1,410.5 530.2,411.6 501.3,435.7 472.4,436.0 443.6,435.9 414.7,435.5 385.8,437.3 356.9,437.4 328.0,434.0 299.1,435.5 270.2,433.7 241.3,431.6 212.4,436.1 183.6,426.3 154.7,230.0 125.8,222.2 96.9,236.6 68.0,234.0" fill="#bcbddc" fill-opacity="0.9" stroke="#fff" stroke-width="0.4"><title>codegen_spirv — performMandatoryEarlyInlining</title></polygon>
<polygon points="68.0,233.8 96.9,236.4 125.8,222.0 154.7,229.8 183.6,426.1 212.4,435.9 241.3,431.4 270.2,433.5 299.1,435.3 328.0,433.8 356.9,437.2 385.8,437.1 414.7,435.3 443.6,435.7 472.4,435.8 501.3,435.5 530.2,411.4 559.1,410.3 588.0,411.8 616.9,411.7 645.8,419.4 674.7,420.2 703.6,416.5 732.4,416.7 761.3,415.8 790.2,417.3 819.1,418.9 848.0,416.7 876.9,417.3 905.8,417.3 934.7,418.2 963.6,417.4 992.4,415.7 1021.3,406.7 1050.2,434.5 1079.1,477.3 1108.0,477.5 1108.0,477.6 1079.1,477.4 1050.2,434.6 1021.3,406.8 992.4,415.8 963.6,417.5 934.7,418.3 905.8,417.4 876.9,417.4 848.0,416.8 819.1,419.0 790.2,417.4 761.3,415.9 732.4,416.8 703.6,416.6 674.7,420.3 645.8,419.5 616.9,411.8 588.0,411.9 559.1,410.4 530.2,411.5 501.3,435.6 472.4,435.9 443.6,435.8 414.7,435.4 385.8,437.2 356.9,437.3 328.0,433.9 299.1,435.4 270.2,433.6 241.3,431.5 212.4,436.0 183.6,426.2 154.7,229.9 125.8,222.1 96.9,236.5 68.0,233.9" fill="#dadaeb" fill-opacity="0.9" stroke="#fff" stroke-width="0.4"><title>codegen_spirv — performForceInlining</title></polygon>
<polygon points="68.0,231.1 96.9,233.8 125.8,216.4 154.7,227.8 183.6,423.1 212.4,433.5 241.3,428.8 270.2,430.8 299.1,432.7 328.0,429.7 356.9,434.7 385.8,434.4 414.7,433.0 443.6,433.1 472.4,432.7 501.3,432.7 530.2,387.3 559.1,386.7 588.0,386.7 616.9,388.2 645.8,396.3 674.7,397.2 703.6,393.0 732.4,394.1 761.3,390.9 790.2,394.3 819.1,395.8 848.0,393.8 876.9,394.7 905.8,394.5 934.7,395.7 963.6,395.0 992.4,392.5 1021.3,383.3 1050.2,414.1 1079.1,457.2 1108.0,457.4 1108.0,477.5 1079.1,477.3 1050.2,434.5 1021.3,406.7 992.4,415.7 963.6,417.4 934.7,418.2 905.8,417.3 876.9,417.3 848.0,416.7 819.1,418.9 790.2,417.3 761.3,415.8 732.4,416.7 703.6,416.5 674.7,420.2 645.8,419.4 616.9,411.7 588.0,411.8 559.1,410.3 530.2,411.4 501.3,435.5 472.4,435.8 443.6,435.7 414.7,435.3 385.8,437.1 356.9,437.2 328.0,433.8 299.1,435.3 270.2,433.5 241.3,431.4 212.4,435.9 183.6,426.1 154.7,229.8 125.8,222.0 96.9,236.4 68.0,233.8" fill="#4a1486" fill-opacity="0.9" stroke="#fff" stroke-width="0.4"><title>codegen_spirv — linkAndOptimizeIR (self)</title></polygon>
<polygon points="68.0,122.4 96.9,129.2 125.8,108.6 154.7,120.4 183.6,381.9 212.4,394.0 241.3,389.4 270.2,390.1 299.1,393.6 328.0,390.6 356.9,397.5 385.8,395.7 414.7,394.5 443.6,395.0 472.4,395.3 501.3,394.5 530.2,348.1 559.1,347.7 588.0,348.5 616.9,350.3 645.8,357.0 674.7,360.1 703.6,354.5 732.4,355.7 761.3,351.2 790.2,356.9 819.1,357.7 848.0,356.1 876.9,356.8 905.8,355.5 934.7,357.9 963.6,356.7 992.4,353.9 1021.3,344.2 1050.2,376.1 1079.1,452.9 1108.0,453.2 1108.0,457.4 1079.1,457.2 1050.2,414.1 1021.3,383.3 992.4,392.5 963.6,395.0 934.7,395.7 905.8,394.5 876.9,394.7 848.0,393.8 819.1,395.8 790.2,394.3 761.3,390.9 732.4,394.1 703.6,393.0 674.7,397.2 645.8,396.3 616.9,388.2 588.0,386.7 559.1,386.7 530.2,387.3 501.3,432.7 472.4,432.7 443.6,433.1 414.7,433.0 385.8,434.4 356.9,434.7 328.0,429.7 299.1,432.7 270.2,430.8 241.3,428.8 212.4,433.5 183.6,423.1 154.7,227.8 125.8,216.4 96.9,233.8 68.0,231.1" fill="#e6550d" fill-opacity="0.9" stroke="#fff" stroke-width="0.4"><title>codegen_spirv — generateOutput (self)</title></polygon>
<polygon points="68.0,122.3 96.9,129.2 125.8,108.6 154.7,120.0 183.6,381.4 212.4,394.0 241.3,389.1 270.2,390.1 299.1,386.8 328.0,390.6 356.9,397.5 385.8,395.7 414.7,394.4 443.6,395.0 472.4,395.0 501.3,394.5 530.2,348.1 559.1,347.7 588.0,348.5 616.9,350.3 645.8,357.0 674.7,359.9 703.6,354.5 732.4,355.7 761.3,351.1 790.2,356.8 819.1,357.6 848.0,356.0 876.9,356.8 905.8,355.5 934.7,357.8 963.6,356.7 992.4,353.9 1021.3,344.2 1050.2,376.1 1079.1,452.9 1108.0,453.0 1108.0,453.2 1079.1,452.9 1050.2,376.1 1021.3,344.2 992.4,353.9 963.6,356.7 934.7,357.9 905.8,355.5 876.9,356.8 848.0,356.1 819.1,357.7 790.2,356.9 761.3,351.2 732.4,355.7 703.6,354.5 674.7,360.1 645.8,357.0 616.9,350.3 588.0,348.5 559.1,347.7 530.2,348.1 501.3,394.5 472.4,395.3 443.6,395.0 414.7,394.5 385.8,395.7 356.9,397.5 328.0,390.6 299.1,393.6 270.2,390.1 241.3,389.4 212.4,394.0 183.6,381.9 154.7,120.4 125.8,108.6 96.9,129.2 68.0,122.4" fill="#969696" fill-opacity="0.9" stroke="#fff" stroke-width="0.4"><title>codegen_spirv — compileInner (self)</title></polygon>
<text x="12" y="578" fill="#666" font-weight="600">phase buckets</text>
<rect x="12" y="586" width="12" height="12" fill="#c7e9c0"/>
<text x="28" y="596" fill="#222">parseTranslationUnit</text>
<rect x="289" y="586" width="12" height="12" fill="#41ab5d"/>
<text x="305" y="596" fill="#222">SemanticChecking</text>
<rect x="566" y="586" width="12" height="12" fill="#006d2c"/>
<text x="582" y="596" fill="#222">generateIR</text>
<rect x="843" y="586" width="12" height="12" fill="#74c476"/>
<text x="859" y="596" fill="#222">frontEndExecute (self)</text>
<rect x="12" y="604" width="12" height="12" fill="#6baed6"/>
<text x="28" y="614" fill="#222">specializeModule</text>
<rect x="289" y="604" width="12" height="12" fill="#2171b5"/>
<text x="305" y="614" fill="#222">simplifyIR</text>
<rect x="566" y="604" width="12" height="12" fill="#08306b"/>
<text x="582" y="614" fill="#222">linkIR</text>
<rect x="843" y="604" width="12" height="12" fill="#9e9ac8"/>
<text x="859" y="614" fill="#222">unrollLoopsInModule</text>
<rect x="12" y="622" width="12" height="12" fill="#807dba"/>
<text x="28" y="632" fill="#222">legalizeResourceTypes</text>
<rect x="289" y="622" width="12" height="12" fill="#6a51a3"/>
<text x="305" y="632" fill="#222">legalizeExistentialTypeLayout</text>
<rect x="566" y="622" width="12" height="12" fill="#bcbddc"/>
<text x="582" y="632" fill="#222">performMandatoryEarlyInlining</text>
<rect x="843" y="622" width="12" height="12" fill="#dadaeb"/>
<text x="859" y="632" fill="#222">performForceInlining</text>
<rect x="12" y="640" width="12" height="12" fill="#4a1486"/>
<text x="28" y="650" fill="#222">linkAndOptimizeIR (self)</text>
<rect x="289" y="640" width="12" height="12" fill="#fd8d3c"/>
<text x="305" y="650" fill="#222">emitEntryPointsSourceFromIR</text>
<rect x="566" y="640" width="12" height="12" fill="#e6550d"/>
<text x="582" y="650" fill="#222">generateOutput (self)</text>
<rect x="843" y="640" width="12" height="12" fill="#969696"/>
<text x="859" y="650" fill="#222">compileInner (self)</text>
</svg>