<svg xmlns="http://www.w3.org/2000/svg" xmlns:xlink="http://www.w3.org/1999/xlink" width="1132" height="680" viewBox="0 0 1132 680" preserveAspectRatio="xMidYMid meet" font-family="sans-serif" font-size="13">
<rect width="1132" height="680" fill="white"/>
<text x="12" y="30" font-size="20" font-weight="bold">complexity_ladder — full phase breakdown across releases (median ms)</text>
<text x="68" y="60" font-size="15" font-weight="600" fill="#1a1a1a">complexity_ladder<tspan fill="#888" font-weight="400" text-decoration="none">  0.96×</tspan></text>
<line x1="68.0" y1="516.0" x2="1108.0" y2="516.0" stroke="#eee"/>
<text x="64.0" y="519.0" text-anchor="end" fill="#999">0.0</text>
<line x1="68.0" y1="296.0" x2="1108.0" y2="296.0" stroke="#eee"/>
<text x="64.0" y="299.0" text-anchor="end" fill="#999">169</text>
<line x1="68.0" y1="76.0" x2="1108.0" y2="76.0" stroke="#eee"/>
<text x="64.0" y="79.0" text-anchor="end" fill="#999">338</text>
<line x1="68.0" y1="76.0" x2="68.0" y2="516.0" stroke="#333"/>
<line x1="68.0" y1="516.0" x2="1108.0" y2="516.0" stroke="#333"/>
<line x1="672.3" y1="76.0" x2="672.3" y2="516.0" stroke="#e8731a" stroke-width="1.2" stroke-dasharray="4 3"/>
<text x="675.3" y="87.0" fill="#e8731a" font-size="11">daily →</text>
<line x1="68.0" y1="516.0" x2="68.0" y2="519.0" stroke="#999"/>
<text x="68.0" y="531.0" text-anchor="end" fill="#666" transform="rotate(-50 68.0 531.0)">25.14</text>
<line x1="96.1" y1="516.0" x2="96.1" y2="519.0" stroke="#999"/>
<text x="96.1" y="531.0" text-anchor="end" fill="#666" transform="rotate(-50 96.1 531.0)">25.15</text>
<line x1="124.2" y1="516.0" x2="124.2" y2="519.0" stroke="#999"/>
<text x="124.2" y="531.0" text-anchor="end" fill="#666" transform="rotate(-50 124.2 531.0)">25.16</text>
<line x1="152.3" y1="516.0" x2="152.3" y2="519.0" stroke="#999"/>
<text x="152.3" y="531.0" text-anchor="end" fill="#666" transform="rotate(-50 152.3 531.0)">25.17</text>
<line x1="180.4" y1="516.0" x2="180.4" y2="519.0" stroke="#999"/>
<text x="180.4" y="531.0" text-anchor="end" fill="#666" transform="rotate(-50 180.4 531.0)">25.18</text>
<line x1="208.5" y1="516.0" x2="208.5" y2="519.0" stroke="#999"/>
<text x="208.5" y="531.0" text-anchor="end" fill="#666" transform="rotate(-50 208.5 531.0)">25.19</text>
<line x1="236.6" y1="516.0" x2="236.6" y2="519.0" stroke="#999"/>
<text x="236.6" y="531.0" text-anchor="end" fill="#666" transform="rotate(-50 236.6 531.0)">25.20</text>
<line x1="264.8" y1="516.0" x2="264.8" y2="519.0" stroke="#999"/>
<text x="264.8" y="531.0" text-anchor="end" fill="#666" transform="rotate(-50 264.8 531.0)">25.21</text>
<line x1="292.9" y1="516.0" x2="292.9" y2="519.0" stroke="#999"/>
<text x="292.9" y="531.0" text-anchor="end" fill="#666" transform="rotate(-50 292.9 531.0)">25.22</text>
<line x1="321.0" y1="516.0" x2="321.0" y2="519.0" stroke="#999"/>
<text x="321.0" y="531.0" text-anchor="end" fill="#666" transform="rotate(-50 321.0 531.0)">25.23</text>
<line x1="349.1" y1="516.0" x2="349.1" y2="519.0" stroke="#999"/>
<text x="349.1" y="531.0" text-anchor="end" fill="#666" transform="rotate(-50 349.1 531.0)">25.24</text>
<line x1="377.2" y1="516.0" x2="377.2" y2="519.0" stroke="#999"/>
<text x="377.2" y="531.0" text-anchor="end" fill="#666" transform="rotate(-50 377.2 531.0)">26.1</text>
<line x1="405.3" y1="516.0" x2="405.3" y2="519.0" stroke="#999"/>
<text x="405.3" y="531.0" text-anchor="end" fill="#666" transform="rotate(-50 405.3 531.0)">26.2</text>
<line x1="433.4" y1="516.0" x2="433.4" y2="519.0" stroke="#999"/>
<text x="433.4" y="531.0" text-anchor="end" fill="#666" transform="rotate(-50 433.4 531.0)">26.3</text>
<line x1="461.5" y1="516.0" x2="461.5" y2="519.0" stroke="#999"/>
<text x="461.5" y="531.0" text-anchor="end" fill="#666" transform="rotate(-50 461.5 531.0)">26.4</text>
<line x1="489.6" y1="516.0" x2="489.6" y2="519.0" stroke="#999"/>
<text x="489.6" y="531.0" text-anchor="end" fill="#666" transform="rotate(-50 489.6 531.0)">26.5</text>
<line x1="517.7" y1="516.0" x2="517.7" y2="519.0" stroke="#999"/>
<text x="517.7" y="531.0" text-anchor="end" fill="#666" transform="rotate(-50 517.7 531.0)">26.7</text>
<line x1="545.8" y1="516.0" x2="545.8" y2="519.0" stroke="#999"/>
<text x="545.8" y="531.0" text-anchor="end" fill="#666" transform="rotate(-50 545.8 531.0)">26.8</text>
<line x1="573.9" y1="516.0" x2="573.9" y2="519.0" stroke="#999"/>
<text x="573.9" y="531.0" text-anchor="end" fill="#666" transform="rotate(-50 573.9 531.0)">26.9</text>
<line x1="602.1" y1="516.0" x2="602.1" y2="519.0" stroke="#999"/>
<text x="602.1" y="531.0" text-anchor="end" fill="#666" transform="rotate(-50 602.1 531.0)">26.10</text>
<line x1="630.2" y1="516.0" x2="630.2" y2="519.0" stroke="#999"/>
<text x="630.2" y="531.0" text-anchor="end" fill="#666" transform="rotate(-50 630.2 531.0)">26.11</text>
<line x1="658.3" y1="516.0" x2="658.3" y2="519.0" stroke="#999"/>
<text x="658.3" y="531.0" text-anchor="end" fill="#666" transform="rotate(-50 658.3 531.0)">26.12</text>
<line x1="686.4" y1="516.0" x2="686.4" y2="519.0" stroke="#999"/>
<text x="686.4" y="531.0" text-anchor="end" fill="#e8731a" transform="rotate(-50 686.4 531.0)">06-25</text>
<line x1="714.5" y1="516.0" x2="714.5" y2="519.0" stroke="#999"/>
<text x="714.5" y="531.0" text-anchor="end" fill="#e8731a" transform="rotate(-50 714.5 531.0)">06-26</text>
<line x1="742.6" y1="516.0" x2="742.6" y2="519.0" stroke="#999"/>
<text x="742.6" y="531.0" text-anchor="end" fill="#e8731a" transform="rotate(-50 742.6 531.0)">06-28</text>
<line x1="770.7" y1="516.0" x2="770.7" y2="519.0" stroke="#999"/>
<text x="770.7" y="531.0" text-anchor="end" fill="#e8731a" transform="rotate(-50 770.7 531.0)">07-01</text>
<line x1="798.8" y1="516.0" x2="798.8" y2="519.0" stroke="#999"/>
<text x="798.8" y="531.0" text-anchor="end" fill="#e8731a" transform="rotate(-50 798.8 531.0)">07-02</text>
<line x1="826.9" y1="516.0" x2="826.9" y2="519.0" stroke="#999"/>
<text x="826.9" y="531.0" text-anchor="end" fill="#e8731a" transform="rotate(-50 826.9 531.0)">07-03</text>
<line x1="855.0" y1="516.0" x2="855.0" y2="519.0" stroke="#999"/>
<text x="855.0" y="531.0" text-anchor="end" fill="#e8731a" transform="rotate(-50 855.0 531.0)">07-06</text>
<line x1="883.1" y1="516.0" x2="883.1" y2="519.0" stroke="#999"/>
<text x="883.1" y="531.0" text-anchor="end" fill="#e8731a" transform="rotate(-50 883.1 531.0)">07-07</text>
<line x1="911.2" y1="516.0" x2="911.2" y2="519.0" stroke="#999"/>
<text x="911.2" y="531.0" text-anchor="end" fill="#e8731a" transform="rotate(-50 911.2 531.0)">07-07</text>
<line x1="939.4" y1="516.0" x2="939.4" y2="519.0" stroke="#999"/>
<text x="939.4" y="531.0" text-anchor="end" fill="#e8731a" transform="rotate(-50 939.4 531.0)">07-08</text>
<line x1="967.5" y1="516.0" x2="967.5" y2="519.0" stroke="#999"/>
<text x="967.5" y="531.0" text-anchor="end" fill="#e8731a" transform="rotate(-50 967.5 531.0)">07-09</text>
<line x1="995.6" y1="516.0" x2="995.6" y2="519.0" stroke="#999"/>
<text x="995.6" y="531.0" text-anchor="end" fill="#e8731a" transform="rotate(-50 995.6 531.0)">07-09</text>
<line x1="1023.7" y1="516.0" x2="1023.7" y2="519.0" stroke="#999"/>
<text x="1023.7" y="531.0" text-anchor="end" fill="#e8731a" transform="rotate(-50 1023.7 531.0)">07-10</text>
<line x1="1051.8" y1="516.0" x2="1051.8" y2="519.0" stroke="#999"/>
<text x="1051.8" y="531.0" text-anchor="end" fill="#e8731a" transform="rotate(-50 1051.8 531.0)">07-10</text>
<line x1="1079.9" y1="516.0" x2="1079.9" y2="519.0" stroke="#999"/>
<text x="1079.9" y="531.0" text-anchor="end" fill="#e8731a" transform="rotate(-50 1079.9 531.0)">07-11</text>
<line x1="1108.0" y1="516.0" x2="1108.0" y2="519.0" stroke="#999"/>
<text x="1108.0" y="531.0" text-anchor="end" fill="#e8731a" transform="rotate(-50 1108.0 531.0)">07-11</text>
<polygon points="68.0,513.9 96.1,514.1 124.2,514.0 152.3,514.0 180.4,513.9 208.5,513.9 236.6,513.8 264.8,513.9 292.9,514.0 321.0,514.0 349.1,514.0 377.2,514.0 405.3,514.0 433.4,513.9 461.5,513.9 489.6,513.9 517.7,513.8 545.8,513.8 573.9,513.9 602.1,513.9 630.2,513.8 658.3,513.9 686.4,513.7 714.5,513.7 742.6,513.7 770.7,513.8 798.8,513.6 826.9,513.6 855.0,513.6 883.1,513.9 911.2,513.9 939.4,513.9 967.5,513.9 995.6,513.9 1023.7,513.9 1051.8,513.9 1079.9,513.9 1108.0,513.8 1108.0,516.0 1079.9,516.0 1051.8,516.0 1023.7,516.0 995.6,516.0 967.5,516.0 939.4,516.0 911.2,516.0 883.1,516.0 855.0,516.0 826.9,516.0 798.8,516.0 770.7,516.0 742.6,516.0 714.5,516.0 686.4,516.0 658.3,516.0 630.2,516.0 602.1,516.0 573.9,516.0 545.8,516.0 517.7,516.0 489.6,516.0 461.5,516.0 433.4,516.0 405.3,516.0 377.2,516.0 349.1,516.0 321.0,516.0 292.9,516.0 264.8,516.0 236.6,516.0 208.5,516.0 180.4,516.0 152.3,516.0 124.2,516.0 96.1,516.0 68.0,516.0" fill="#c7e9c0" fill-opacity="0.9" stroke="#fff" stroke-width="0.4"><title>complexity_ladder — parseTranslationUnit</title></polygon>
<polygon points="68.0,453.9 96.1,437.2 124.2,434.1 152.3,417.8 180.4,428.8 208.5,432.7 236.6,417.7 264.8,423.6 292.9,433.8 321.0,433.3 349.1,436.7 377.2,434.1 405.3,432.0 433.4,433.2 461.5,431.2 489.6,432.2 517.7,413.4 545.8,410.8 573.9,409.2 602.1,406.7 630.2,461.5 658.3,459.1 686.4,457.0 714.5,456.7 742.6,455.7 770.7,451.9 798.8,454.6 826.9,455.9 855.0,455.8 883.1,456.7 911.2,457.9 939.4,458.8 967.5,457.7 995.6,457.1 1023.7,453.7 1051.8,445.6 1079.9,453.9 1108.0,454.0 1108.0,513.8 1079.9,513.9 1051.8,513.9 1023.7,513.9 995.6,513.9 967.5,513.9 939.4,513.9 911.2,513.9 883.1,513.9 855.0,513.6 826.9,513.6 798.8,513.6 770.7,513.8 742.6,513.7 714.5,513.7 686.4,513.7 658.3,513.9 630.2,513.8 602.1,513.9 573.9,513.9 545.8,513.8 517.7,513.8 489.6,513.9 461.5,513.9 433.4,513.9 405.3,514.0 377.2,514.0 349.1,514.0 321.0,514.0 292.9,514.0 264.8,513.9 236.6,513.8 208.5,513.9 180.4,513.9 152.3,514.0 124.2,514.0 96.1,514.1 68.0,513.9" fill="#41ab5d" fill-opacity="0.9" stroke="#fff" stroke-width="0.4"><title>complexity_ladder — SemanticChecking</title></polygon>
<polygon points="68.0,434.7 96.1,418.0 124.2,414.6 152.3,395.7 180.4,407.1 208.5,411.5 236.6,395.3 264.8,400.8 292.9,411.2 321.0,411.3 349.1,416.4 377.2,413.6 405.3,411.7 433.4,413.4 461.5,409.9 489.6,412.3 517.7,377.2 545.8,373.5 573.9,372.6 602.1,367.7 630.2,439.6 658.3,437.0 686.4,433.6 714.5,433.4 742.6,431.7 770.7,429.1 798.8,431.1 826.9,432.0 855.0,431.4 883.1,432.5 911.2,434.0 939.4,434.5 967.5,433.8 995.6,432.9 1023.7,430.0 1051.8,421.3 1079.9,429.7 1108.0,430.2 1108.0,454.0 1079.9,453.9 1051.8,445.6 1023.7,453.7 995.6,457.1 967.5,457.7 939.4,458.8 911.2,457.9 883.1,456.7 855.0,455.8 826.9,455.9 798.8,454.6 770.7,451.9 742.6,455.7 714.5,456.7 686.4,457.0 658.3,459.1 630.2,461.5 602.1,406.7 573.9,409.2 545.8,410.8 517.7,413.4 489.6,432.2 461.5,431.2 433.4,433.2 405.3,432.0 377.2,434.1 349.1,436.7 321.0,433.3 292.9,433.8 264.8,423.6 236.6,417.7 208.5,432.7 180.4,428.8 152.3,417.8 124.2,434.1 96.1,437.2 68.0,453.9" fill="#006d2c" fill-opacity="0.9" stroke="#fff" stroke-width="0.4"><title>complexity_ladder — generateIR</title></polygon>
<polygon points="68.0,433.4 96.1,417.8 124.2,414.2 152.3,395.7 180.4,406.0 208.5,408.8 236.6,394.7 264.8,399.2 292.9,408.6 321.0,410.6 349.1,415.5 377.2,412.6 405.3,407.9 433.4,412.9 461.5,409.1 489.6,411.8 517.7,375.4 545.8,371.9 573.9,371.1 602.1,365.1 630.2,439.6 658.3,436.6 686.4,433.3 714.5,433.0 742.6,431.7 770.7,429.1 798.8,430.0 826.9,430.9 855.0,431.0 883.1,432.5 911.2,433.6 939.4,433.8 967.5,433.5 995.6,432.5 1023.7,429.2 1051.8,420.7 1079.9,428.5 1108.0,430.2 1108.0,430.2 1079.9,429.7 1051.8,421.3 1023.7,430.0 995.6,432.9 967.5,433.8 939.4,434.5 911.2,434.0 883.1,432.5 855.0,431.4 826.9,432.0 798.8,431.1 770.7,429.1 742.6,431.7 714.5,433.4 686.4,433.6 658.3,437.0 630.2,439.6 602.1,367.7 573.9,372.6 545.8,373.5 517.7,377.2 489.6,412.3 461.5,409.9 433.4,413.4 405.3,411.7 377.2,413.6 349.1,416.4 321.0,411.3 292.9,411.2 264.8,400.8 236.6,395.3 208.5,411.5 180.4,407.1 152.3,395.7 124.2,414.6 96.1,418.0 68.0,434.7" fill="#74c476" fill-opacity="0.9" stroke="#fff" stroke-width="0.4"><title>complexity_ladder — frontEndExecute (self)</title></polygon>
<polygon points="68.0,424.5 96.1,408.9 124.2,405.2 152.3,386.0 180.4,396.6 208.5,399.2 236.6,384.2 264.8,389.5 292.9,399.0 321.0,401.0 349.1,398.6 377.2,395.9 405.3,390.9 433.4,396.2 461.5,392.4 489.6,394.5 517.7,344.1 545.8,340.1 573.9,339.3 602.1,333.0 630.2,413.5 658.3,411.4 686.4,404.9 714.5,404.2 742.6,403.5 770.7,401.2 798.8,401.9 826.9,402.6 855.0,402.8 883.1,401.9 911.2,403.5 939.4,403.3 967.5,402.8 995.6,402.2 1023.7,400.5 1051.8,392.3 1079.9,400.1 1108.0,401.4 1108.0,430.2 1079.9,428.5 1051.8,420.7 1023.7,429.2 995.6,432.5 967.5,433.5 939.4,433.8 911.2,433.6 883.1,432.5 855.0,431.0 826.9,430.9 798.8,430.0 770.7,429.1 742.6,431.7 714.5,433.0 686.4,433.3 658.3,436.6 630.2,439.6 602.1,365.1 573.9,371.1 545.8,371.9 517.7,375.4 489.6,411.8 461.5,409.1 433.4,412.9 405.3,407.9 377.2,412.6 349.1,415.5 321.0,410.6 292.9,408.6 264.8,399.2 236.6,394.7 208.5,408.8 180.4,406.0 152.3,395.7 124.2,414.2 96.1,417.8 68.0,433.4" fill="#6baed6" fill-opacity="0.9" stroke="#fff" stroke-width="0.4"><title>complexity_ladder — specializeModule</title></polygon>
<polygon points="68.0,391.9 96.1,376.5 124.2,372.4 152.3,348.1 180.4,359.2 208.5,361.3 236.6,341.7 264.8,350.4 292.9,358.1 321.0,364.3 349.1,367.4 377.2,364.3 405.3,359.3 433.4,365.1 461.5,360.6 489.6,363.0 517.7,289.4 545.8,285.5 573.9,283.6 602.1,277.3 630.2,362.1 658.3,360.9 686.4,349.8 714.5,349.1 742.6,349.1 770.7,347.8 798.8,352.5 826.9,351.9 855.0,352.9 883.1,351.6 911.2,353.3 939.4,353.4 967.5,352.2 995.6,352.8 1023.7,366.4 1051.8,358.0 1079.9,366.2 1108.0,366.3 1108.0,401.4 1079.9,400.1 1051.8,392.3 1023.7,400.5 995.6,402.2 967.5,402.8 939.4,403.3 911.2,403.5 883.1,401.9 855.0,402.8 826.9,402.6 798.8,401.9 770.7,401.2 742.6,403.5 714.5,404.2 686.4,404.9 658.3,411.4 630.2,413.5 602.1,333.0 573.9,339.3 545.8,340.1 517.7,344.1 489.6,394.5 461.5,392.4 433.4,396.2 405.3,390.9 377.2,395.9 349.1,398.6 321.0,401.0 292.9,399.0 264.8,389.5 236.6,384.2 208.5,399.2 180.4,396.6 152.3,386.0 124.2,405.2 96.1,408.9 68.0,424.5" fill="#2171b5" fill-opacity="0.9" stroke="#fff" stroke-width="0.4"><title>complexity_ladder — simplifyIR</title></polygon>
<polygon points="68.0,388.4 96.1,373.3 124.2,369.3 152.3,343.6 180.4,355.0 208.5,357.2 236.6,336.8 264.8,346.2 292.9,354.0 321.0,360.7 349.1,364.3 377.2,361.1 405.3,356.0 433.4,361.7 461.5,357.4 489.6,359.7 517.7,270.9 545.8,266.4 573.9,264.0 602.1,257.0 630.2,359.2 658.3,358.1 686.4,347.0 714.5,346.2 742.6,346.1 770.7,344.9 798.8,349.6 826.9,349.0 855.0,349.8 883.1,348.9 911.2,350.6 939.4,350.6 967.5,349.5 995.6,350.1 1023.7,363.8 1051.8,355.4 1079.9,363.4 1108.0,363.6 1108.0,366.3 1079.9,366.2 1051.8,358.0 1023.7,366.4 995.6,352.8 967.5,352.2 939.4,353.4 911.2,353.3 883.1,351.6 855.0,352.9 826.9,351.9 798.8,352.5 770.7,347.8 742.6,349.1 714.5,349.1 686.4,349.8 658.3,360.9 630.2,362.1 602.1,277.3 573.9,283.6 545.8,285.5 517.7,289.4 489.6,363.0 461.5,360.6 433.4,365.1 405.3,359.3 377.2,364.3 349.1,367.4 321.0,364.3 292.9,358.1 264.8,350.4 236.6,341.7 208.5,361.3 180.4,359.2 152.3,348.1 124.2,372.4 96.1,376.5 68.0,391.9" fill="#08306b" fill-opacity="0.9" stroke="#fff" stroke-width="0.4"><title>complexity_ladder — linkIR</title></polygon>
<polygon points="68.0,388.2 96.1,373.0 124.2,369.0 152.3,343.2 180.4,354.7 208.5,356.9 236.6,336.4 264.8,345.9 292.9,353.7 321.0,360.3 349.1,364.0 377.2,360.7 405.3,355.6 433.4,361.3 461.5,357.1 489.6,359.4 517.7,270.8 545.8,266.2 573.9,263.9 602.1,256.8 630.2,359.0 658.3,357.9 686.4,346.8 714.5,346.1 742.6,345.9 770.7,344.7 798.8,349.4 826.9,348.8 855.0,349.7 883.1,348.4 911.2,350.1 939.4,350.1 967.5,349.0 995.6,349.6 1023.7,363.3 1051.8,354.9 1079.9,363.0 1108.0,363.1 1108.0,363.6 1079.9,363.4 1051.8,355.4 1023.7,363.8 995.6,350.1 967.5,349.5 939.4,350.6 911.2,350.6 883.1,348.9 855.0,349.8 826.9,349.0 798.8,349.6 770.7,344.9 742.6,346.1 714.5,346.2 686.4,347.0 658.3,358.1 630.2,359.2 602.1,257.0 573.9,264.0 545.8,266.4 517.7,270.9 489.6,359.7 461.5,357.4 433.4,361.7 405.3,356.0 377.2,361.1 349.1,364.3 321.0,360.7 292.9,354.0 264.8,346.2 236.6,336.8 208.5,357.2 180.4,355.0 152.3,343.6 124.2,369.3 96.1,373.3 68.0,388.4" fill="#9e9ac8" fill-opacity="0.9" stroke="#fff" stroke-width="0.4"><title>complexity_ladder — unrollLoopsInModule</title></polygon>
<polygon points="68.0,378.6 96.1,363.4 124.2,359.5 152.3,333.2 180.4,348.1 208.5,350.4 236.6,329.0 264.8,339.3 292.9,347.2 321.0,354.0 349.1,357.5 377.2,354.3 405.3,349.2 433.4,355.0 461.5,350.6 489.6,353.1 517.7,264.6 545.8,260.0 573.9,257.8 602.1,250.6 630.2,352.3 658.3,351.3 686.4,340.1 714.5,339.3 742.6,339.1 770.7,337.9 798.8,342.8 826.9,342.3 855.0,342.9 883.1,341.9 911.2,343.6 939.4,343.5 967.5,342.4 995.6,342.9 1023.7,356.7 1051.8,349.6 1079.9,357.7 1108.0,357.9 1108.0,363.1 1079.9,363.0 1051.8,354.9 1023.7,363.3 995.6,349.6 967.5,349.0 939.4,350.1 911.2,350.1 883.1,348.4 855.0,349.7 826.9,348.8 798.8,349.4 770.7,344.7 742.6,345.9 714.5,346.1 686.4,346.8 658.3,357.9 630.2,359.0 602.1,256.8 573.9,263.9 545.8,266.2 517.7,270.8 489.6,359.4 461.5,357.1 433.4,361.3 405.3,355.6 377.2,360.7 349.1,364.0 321.0,360.3 292.9,353.7 264.8,345.9 236.6,336.4 208.5,356.9 180.4,354.7 152.3,343.2 124.2,369.0 96.1,373.0 68.0,388.2" fill="#807dba" fill-opacity="0.9" stroke="#fff" stroke-width="0.4"><title>complexity_ladder — legalizeResourceTypes</title></polygon>
<polygon points="68.0,368.7 96.1,353.5 124.2,349.6 152.3,323.2 180.4,341.3 208.5,343.5 236.6,321.4 264.8,332.4 292.9,340.4 321.0,347.3 349.1,350.7 377.2,347.6 405.3,342.5 433.4,348.4 461.5,343.9 489.6,346.5 517.7,258.2 545.8,253.4 573.9,251.4 602.1,244.2 630.2,345.2 658.3,344.3 686.4,333.0 714.5,332.1 742.6,331.9 770.7,330.8 798.8,335.9 826.9,335.3 855.0,336.0 883.1,335.2 911.2,336.9 939.4,336.7 967.5,335.6 995.6,335.9 1023.7,349.9 1051.8,344.1 1079.9,352.1 1108.0,352.3 1108.0,357.9 1079.9,357.7 1051.8,349.6 1023.7,356.7 995.6,342.9 967.5,342.4 939.4,343.5 911.2,343.6 883.1,341.9 855.0,342.9 826.9,342.3 798.8,342.8 770.7,337.9 742.6,339.1 714.5,339.3 686.4,340.1 658.3,351.3 630.2,352.3 602.1,250.6 573.9,257.8 545.8,260.0 517.7,264.6 489.6,353.1 461.5,350.6 433.4,355.0 405.3,349.2 377.2,354.3 349.1,357.5 321.0,354.0 292.9,347.2 264.8,339.3 236.6,329.0 208.5,350.4 180.4,348.1 152.3,333.2 124.2,359.5 96.1,363.4 68.0,378.6" fill="#6a51a3" fill-opacity="0.9" stroke="#fff" stroke-width="0.4"><title>complexity_ladder — legalizeExistentialTypeLayout</title></polygon>
<polygon points="68.0,367.4 96.1,352.2 124.2,348.4 152.3,321.7 180.4,339.9 208.5,342.1 236.6,319.8 264.8,330.9 292.9,339.0 321.0,345.7 349.1,349.3 377.2,346.2 405.3,341.0 433.4,347.0 461.5,342.4 489.6,345.1 517.7,257.0 545.8,252.2 573.9,250.1 602.1,242.9 630.2,343.9 658.3,343.0 686.4,331.7 714.5,330.8 742.6,330.6 770.7,329.5 798.8,334.6 826.9,334.0 855.0,334.7 883.1,333.5 911.2,335.2 939.4,335.0 967.5,333.8 995.6,334.2 1023.7,348.2 1051.8,342.4 1079.9,350.4 1108.0,350.6 1108.0,352.3 1079.9,352.1 1051.8,344.1 1023.7,349.9 995.6,335.9 967.5,335.6 939.4,336.7 911.2,336.9 883.1,335.2 855.0,336.0 826.9,335.3 798.8,335.9 770.7,330.8 742.6,331.9 714.5,332.1 686.4,333.0 658.3,344.3 630.2,345.2 602.1,244.2 573.9,251.4 545.8,253.4 517.7,258.2 489.6,346.5 461.5,343.9 433.4,348.4 405.3,342.5 377.2,347.6 349.1,350.7 321.0,347.3 292.9,340.4 264.8,332.4 236.6,321.4 208.5,343.5 180.4,341.3 152.3,323.2 124.2,349.6 96.1,353.5 68.0,368.7" fill="#bcbddc" fill-opacity="0.9" stroke="#fff" stroke-width="0.4"><title>complexity_ladder — performMandatoryEarlyInlining</title></polygon>
<polygon points="68.0,366.8 96.1,351.6 124.2,347.7 152.3,321.0 180.4,339.2 208.5,341.4 236.6,319.0 264.8,330.2 292.9,338.3 321.0,345.0 349.1,348.6 377.2,345.5 405.3,340.4 433.4,346.4 461.5,341.8 489.6,344.4 517.7,256.3 545.8,251.6 573.9,249.4 602.1,242.3 630.2,343.3 658.3,342.3 686.4,331.0 714.5,330.1 742.6,329.9 770.7,328.8 798.8,333.9 826.9,333.2 855.0,334.0 883.1,332.8 911.2,334.5 939.4,334.3 967.5,333.1 995.6,333.5 1023.7,347.5 1051.8,341.7 1079.9,349.8 1108.0,349.9 1108.0,350.6 1079.9,350.4 1051.8,342.4 1023.7,348.2 995.6,334.2 967.5,333.8 939.4,335.0 911.2,335.2 883.1,333.5 855.0,334.7 826.9,334.0 798.8,334.6 770.7,329.5 742.6,330.6 714.5,330.8 686.4,331.7 658.3,343.0 630.2,343.9 602.1,242.9 573.9,250.1 545.8,252.2 517.7,257.0 489.6,345.1 461.5,342.4 433.4,347.0 405.3,341.0 377.2,346.2 349.1,349.3 321.0,345.7 292.9,339.0 264.8,330.9 236.6,319.8 208.5,342.1 180.4,339.9 152.3,321.7 124.2,348.4 96.1,352.2 68.0,367.4" fill="#dadaeb" fill-opacity="0.9" stroke="#fff" stroke-width="0.4"><title>complexity_ladder — performForceInlining</title></polygon>
<polygon points="68.0,343.7 96.1,328.0 124.2,323.8 152.3,291.7 180.4,310.7 208.5,316.1 236.6,289.0 264.8,301.3 292.9,305.0 321.0,318.2 349.1,320.0 377.2,317.4 405.3,309.8 433.4,318.3 461.5,311.5 489.6,311.9 517.7,218.0 545.8,212.9 573.9,211.9 602.1,202.9 630.2,311.3 658.3,311.5 686.4,295.1 714.5,294.3 742.6,294.3 770.7,294.3 798.8,299.8 826.9,297.6 855.0,299.1 883.1,297.2 911.2,298.3 939.4,298.8 967.5,295.1 995.6,296.7 1023.7,313.4 1051.8,309.5 1079.9,317.3 1108.0,317.3 1108.0,349.9 1079.9,349.8 1051.8,341.7 1023.7,347.5 995.6,333.5 967.5,333.1 939.4,334.3 911.2,334.5 883.1,332.8 855.0,334.0 826.9,333.2 798.8,333.9 770.7,328.8 742.6,329.9 714.5,330.1 686.4,331.0 658.3,342.3 630.2,343.3 602.1,242.3 573.9,249.4 545.8,251.6 517.7,256.3 489.6,344.4 461.5,341.8 433.4,346.4 405.3,340.4 377.2,345.5 349.1,348.6 321.0,345.0 292.9,338.3 264.8,330.2 236.6,319.0 208.5,341.4 180.4,339.2 152.3,321.0 124.2,347.7 96.1,351.6 68.0,366.8" fill="#4a1486" fill-opacity="0.9" stroke="#fff" stroke-width="0.4"><title>complexity_ladder — linkAndOptimizeIR (self)</title></polygon>
<polygon points="68.0,216.1 96.1,200.1 124.2,196.6 152.3,191.2 180.4,209.4 208.5,218.0 236.6,183.8 264.8,189.5 292.9,197.7 321.0,224.3 349.1,226.8 377.2,224.3 405.3,220.0 433.4,226.5 461.5,218.9 489.6,220.5 517.7,125.2 545.8,119.7 573.9,116.6 602.1,108.6 630.2,217.7 658.3,218.6 686.4,199.7 714.5,198.0 742.6,197.6 770.7,201.4 798.8,204.6 826.9,202.4 855.0,203.4 883.1,203.9 911.2,204.0 939.4,203.5 967.5,200.6 995.6,203.2 1023.7,218.5 1051.8,222.8 1079.9,230.4 1108.0,228.0 1108.0,317.3 1079.9,317.3 1051.8,309.5 1023.7,313.4 995.6,296.7 967.5,295.1 939.4,298.8 911.2,298.3 883.1,297.2 855.0,299.1 826.9,297.6 798.8,299.8 770.7,294.3 742.6,294.3 714.5,294.3 686.4,295.1 658.3,311.5 630.2,311.3 602.1,202.9 573.9,211.9 545.8,212.9 517.7,218.0 489.6,311.9 461.5,311.5 433.4,318.3 405.3,309.8 377.2,317.4 349.1,320.0 321.0,318.2 292.9,305.0 264.8,301.3 236.6,289.0 208.5,316.1 180.4,310.7 152.3,291.7 124.2,323.8 96.1,328.0 68.0,343.7" fill="#e6550d" fill-opacity="0.9" stroke="#fff" stroke-width="0.4"><title>complexity_ladder — generateOutput (self)</title></polygon>
<polygon points="68.0,216.1 96.1,200.1 124.2,196.5 152.3,191.2 180.4,209.4 208.5,217.3 236.6,182.8 264.8,186.7 292.9,197.3 321.0,224.3 349.1,224.2 377.2,224.1 405.3,220.0 433.4,224.5 461.5,217.8 489.6,219.1 517.7,125.2 545.8,119.7 573.9,116.3 602.1,108.6 630.2,217.7 658.3,216.6 686.4,199.2 714.5,197.7 742.6,197.6 770.7,201.4 798.8,204.6 826.9,202.2 855.0,203.1 883.1,203.9 911.2,201.1 939.4,201.7 967.5,200.6 995.6,203.2 1023.7,218.4 1051.8,222.7 1079.9,226.4 1108.0,227.4 1108.0,228.0 1079.9,230.4 1051.8,222.8 1023.7,218.5 995.6,203.2 967.5,200.6 939.4,203.5 911.2,204.0 883.1,203.9 855.0,203.4 826.9,202.4 798.8,204.6 770.7,201.4 742.6,197.6 714.5,198.0 686.4,199.7 658.3,218.6 630.2,217.7 602.1,108.6 573.9,116.6 545.8,119.7 517.7,125.2 489.6,220.5 461.5,218.9 433.4,226.5 405.3,220.0 377.2,224.3 349.1,226.8 321.0,224.3 292.9,197.7 264.8,189.5 236.6,183.8 208.5,218.0 180.4,209.4 152.3,191.2 124.2,196.6 96.1,200.1 68.0,216.1" fill="#969696" fill-opacity="0.9" stroke="#fff" stroke-width="0.4"><title>complexity_ladder — compileInner (self)</title></polygon>
<text x="12" y="578" fill="#666" font-weight="600">phase buckets</text>
<rect x="12" y="586" width="12" height="12" fill="#c7e9c0"/>
<text x="28" y="596" fill="#222">parseTranslationUnit</text>
<rect x="289" y="586" width="12" height="12" fill="#41ab5d"/>
<text x="305" y="596" fill="#222">SemanticChecking</text>
<rect x="566" y="586" width="12" height="12" fill="#006d2c"/>
<text x="582" y="596" fill="#222">generateIR</text>
<rect x="843" y="586" width="12" height="12" fill="#74c476"/>
<text x="859" y="596" fill="#222">frontEndExecute (self)</text>
<rect x="12" y="604" width="12" height="12" fill="#6baed6"/>
<text x="28" y="614" fill="#222">specializeModule</text>
<rect x="289" y="604" width="12" height="12" fill="#2171b5"/>
<text x="305" y="614" fill="#222">simplifyIR</text>
<rect x="566" y="604" width="12" height="12" fill="#08306b"/>
<text x="582" y="614" fill="#222">linkIR</text>
<rect x="843" y="604" width="12" height="12" fill="#9e9ac8"/>
<text x="859" y="614" fill="#222">unrollLoopsInModule</text>
<rect x="12" y="622" width="12" height="12" fill="#807dba"/>
<text x="28" y="632" fill="#222">legalizeResourceTypes</text>
<rect x="289" y="622" width="12" height="12" fill="#6a51a3"/>
<text x="305" y="632" fill="#222">legalizeExistentialTypeLayout</text>
<rect x="566" y="622" width="12" height="12" fill="#bcbddc"/>
<text x="582" y="632" fill="#222">performMandatoryEarlyInlining</text>
<rect x="843" y="622" width="12" height="12" fill="#dadaeb"/>
<text x="859" y="632" fill="#222">performForceInlining</text>
<rect x="12" y="640" width="12" height="12" fill="#4a1486"/>
<text x="28" y="650" fill="#222">linkAndOptimizeIR (self)</text>
<rect x="289" y="640" width="12" height="12" fill="#fd8d3c"/>
<text x="305" y="650" fill="#222">emitEntryPointsSourceFromIR</text>
<rect x="566" y="640" width="12" height="12" fill="#e6550d"/>
<text x="582" y="650" fill="#222">generateOutput (self)</text>
<rect x="843" y="640" width="12" height="12" fill="#969696"/>
<text x="859" y="650" fill="#222">compileInner (self)</text>
</svg>