<svg xmlns="http://www.w3.org/2000/svg" xmlns:xlink="http://www.w3.org/1999/xlink" width="1132" height="680" viewBox="0 0 1132 680" preserveAspectRatio="xMidYMid meet" font-family="sans-serif" font-size="13">
<rect width="1132" height="680" fill="white"/>
<text x="12" y="30" font-size="20" font-weight="bold">complexity_ladder — full phase breakdown across releases (median ms)</text>
<text x="68" y="60" font-size="15" font-weight="600" fill="#1a1a1a">complexity_ladder<tspan fill="#888" font-weight="400" text-decoration="none">  1.04×</tspan></text>
<line x1="68.0" y1="516.0" x2="1108.0" y2="516.0" stroke="#eee"/>
<text x="64.0" y="519.0" text-anchor="end" fill="#999">0.0</text>
<line x1="68.0" y1="296.0" x2="1108.0" y2="296.0" stroke="#eee"/>
<text x="64.0" y="299.0" text-anchor="end" fill="#999">165</text>
<line x1="68.0" y1="76.0" x2="1108.0" y2="76.0" stroke="#eee"/>
<text x="64.0" y="79.0" text-anchor="end" fill="#999">330</text>
<line x1="68.0" y1="76.0" x2="68.0" y2="516.0" stroke="#333"/>
<line x1="68.0" y1="516.0" x2="1108.0" y2="516.0" stroke="#333"/>
<line x1="68.0" y1="516.0" x2="68.0" y2="519.0" stroke="#999"/>
<text x="68.0" y="531.0" text-anchor="end" fill="#666" transform="rotate(-50 68.0 531.0)">25.19</text>
<line x1="137.3" y1="516.0" x2="137.3" y2="519.0" stroke="#999"/>
<text x="137.3" y="531.0" text-anchor="end" fill="#666" transform="rotate(-50 137.3 531.0)">25.20</text>
<line x1="206.7" y1="516.0" x2="206.7" y2="519.0" stroke="#999"/>
<text x="206.7" y="531.0" text-anchor="end" fill="#666" transform="rotate(-50 206.7 531.0)">25.21</text>
<line x1="276.0" y1="516.0" x2="276.0" y2="519.0" stroke="#999"/>
<text x="276.0" y="531.0" text-anchor="end" fill="#666" transform="rotate(-50 276.0 531.0)">25.22</text>
<line x1="345.3" y1="516.0" x2="345.3" y2="519.0" stroke="#999"/>
<text x="345.3" y="531.0" text-anchor="end" fill="#666" transform="rotate(-50 345.3 531.0)">25.23</text>
<line x1="414.7" y1="516.0" x2="414.7" y2="519.0" stroke="#999"/>
<text x="414.7" y="531.0" text-anchor="end" fill="#666" transform="rotate(-50 414.7 531.0)">25.24</text>
<line x1="484.0" y1="516.0" x2="484.0" y2="519.0" stroke="#999"/>
<text x="484.0" y="531.0" text-anchor="end" fill="#666" transform="rotate(-50 484.0 531.0)">26.1</text>
<line x1="553.3" y1="516.0" x2="553.3" y2="519.0" stroke="#999"/>
<text x="553.3" y="531.0" text-anchor="end" fill="#666" transform="rotate(-50 553.3 531.0)">26.2</text>
<line x1="622.7" y1="516.0" x2="622.7" y2="519.0" stroke="#999"/>
<text x="622.7" y="531.0" text-anchor="end" fill="#666" transform="rotate(-50 622.7 531.0)">26.3</text>
<line x1="692.0" y1="516.0" x2="692.0" y2="519.0" stroke="#999"/>
<text x="692.0" y="531.0" text-anchor="end" fill="#666" transform="rotate(-50 692.0 531.0)">26.4</text>
<line x1="761.3" y1="516.0" x2="761.3" y2="519.0" stroke="#999"/>
<text x="761.3" y="531.0" text-anchor="end" fill="#666" transform="rotate(-50 761.3 531.0)">26.5</text>
<line x1="830.7" y1="516.0" x2="830.7" y2="519.0" stroke="#999"/>
<text x="830.7" y="531.0" text-anchor="end" fill="#666" transform="rotate(-50 830.7 531.0)">26.7</text>
<line x1="900.0" y1="516.0" x2="900.0" y2="519.0" stroke="#999"/>
<text x="900.0" y="531.0" text-anchor="end" fill="#666" transform="rotate(-50 900.0 531.0)">26.8</text>
<line x1="969.3" y1="516.0" x2="969.3" y2="519.0" stroke="#999"/>
<text x="969.3" y="531.0" text-anchor="end" fill="#666" transform="rotate(-50 969.3 531.0)">26.9</text>
<line x1="1038.7" y1="516.0" x2="1038.7" y2="519.0" stroke="#999"/>
<text x="1038.7" y="531.0" text-anchor="end" fill="#666" transform="rotate(-50 1038.7 531.0)">26.10</text>
<line x1="1108.0" y1="516.0" x2="1108.0" y2="519.0" stroke="#999"/>
<text x="1108.0" y="531.0" text-anchor="end" fill="#666" transform="rotate(-50 1108.0 531.0)">26.11</text>
<polygon points="68.0,514.0 137.3,514.0 206.7,514.0 276.0,513.9 345.3,514.0 414.7,514.0 484.0,513.9 553.3,514.0 622.7,513.9 692.0,513.8 761.3,513.9 830.7,513.8 900.0,513.8 969.3,513.8 1038.7,513.7 1108.0,513.8 1108.0,516.0 1038.7,516.0 969.3,516.0 900.0,516.0 830.7,516.0 761.3,516.0 692.0,516.0 622.7,516.0 553.3,516.0 484.0,516.0 414.7,516.0 345.3,516.0 276.0,516.0 206.7,516.0 137.3,516.0 68.0,516.0" fill="#c7e9c0" fill-opacity="0.9" stroke="#fff" stroke-width="0.4"><title>complexity_ladder — parseTranslationUnit</title></polygon>
<polygon points="68.0,432.7 137.3,432.6 206.7,432.8 276.0,435.1 345.3,434.4 414.7,434.7 484.0,432.7 553.3,429.2 622.7,429.3 692.0,427.4 761.3,427.6 830.7,409.3 900.0,409.7 969.3,408.8 1038.7,406.2 1108.0,460.1 1108.0,513.8 1038.7,513.7 969.3,513.8 900.0,513.8 830.7,513.8 761.3,513.9 692.0,513.8 622.7,513.9 553.3,514.0 484.0,513.9 414.7,514.0 345.3,514.0 276.0,513.9 206.7,514.0 137.3,514.0 68.0,514.0" fill="#41ab5d" fill-opacity="0.9" stroke="#fff" stroke-width="0.4"><title>complexity_ladder — SemanticChecking</title></polygon>
<polygon points="68.0,411.7 137.3,411.8 206.7,411.8 276.0,414.2 345.3,413.8 414.7,413.9 484.0,411.7 553.3,408.3 622.7,408.5 692.0,406.0 761.3,406.9 830.7,372.4 900.0,372.5 969.3,372.0 1038.7,368.9 1108.0,437.9 1108.0,460.1 1038.7,406.2 969.3,408.8 900.0,409.7 830.7,409.3 761.3,427.6 692.0,427.4 622.7,429.3 553.3,429.2 484.0,432.7 414.7,434.7 345.3,434.4 276.0,435.1 206.7,432.8 137.3,432.6 68.0,432.7" fill="#006d2c" fill-opacity="0.9" stroke="#fff" stroke-width="0.4"><title>complexity_ladder — generateIR</title></polygon>
<polygon points="68.0,411.4 137.3,411.4 206.7,411.5 276.0,413.8 345.3,413.3 414.7,413.3 484.0,411.3 553.3,408.0 622.7,408.0 692.0,405.5 761.3,406.3 830.7,372.1 900.0,372.1 969.3,371.2 1038.7,368.4 1108.0,437.6 1108.0,437.9 1038.7,368.9 969.3,372.0 900.0,372.5 830.7,372.4 761.3,406.9 692.0,406.0 622.7,408.5 553.3,408.3 484.0,411.7 414.7,413.9 345.3,413.8 276.0,414.2 206.7,411.8 137.3,411.8 68.0,411.7" fill="#74c476" fill-opacity="0.9" stroke="#fff" stroke-width="0.4"><title>complexity_ladder — frontEndExecute (self)</title></polygon>
<polygon points="68.0,401.9 137.3,401.8 206.7,402.0 276.0,404.2 345.3,403.9 414.7,396.0 484.0,394.0 553.3,390.6 622.7,390.7 692.0,387.8 761.3,388.3 830.7,339.0 900.0,338.8 969.3,338.3 1038.7,335.1 1108.0,410.7 1108.0,437.6 1038.7,368.4 969.3,371.2 900.0,372.1 830.7,372.1 761.3,406.3 692.0,405.5 622.7,408.0 553.3,408.0 484.0,411.3 414.7,413.3 345.3,413.3 276.0,413.8 206.7,411.5 137.3,411.4 68.0,411.4" fill="#6baed6" fill-opacity="0.9" stroke="#fff" stroke-width="0.4"><title>complexity_ladder — specializeModule</title></polygon>
<polygon points="68.0,364.2 137.3,363.9 206.7,364.3 276.0,366.6 345.3,366.3 414.7,363.1 484.0,360.6 553.3,357.5 622.7,357.7 692.0,353.5 761.3,354.8 830.7,279.8 900.0,281.0 969.3,280.4 1038.7,276.1 1108.0,357.1 1108.0,410.7 1038.7,335.1 969.3,338.3 900.0,338.8 830.7,339.0 761.3,388.3 692.0,387.8 622.7,390.7 553.3,390.6 484.0,394.0 414.7,396.0 345.3,403.9 276.0,404.2 206.7,402.0 137.3,401.8 68.0,401.9" fill="#2171b5" fill-opacity="0.9" stroke="#fff" stroke-width="0.4"><title>complexity_ladder — simplifyIR</title></polygon>
<polygon points="68.0,361.1 137.3,360.7 206.7,361.1 276.0,363.5 345.3,363.3 414.7,360.0 484.0,357.6 553.3,354.5 622.7,354.6 692.0,349.9 761.3,351.7 830.7,263.1 900.0,264.6 969.3,263.2 1038.7,258.7 1108.0,354.2 1108.0,357.1 1038.7,276.1 969.3,280.4 900.0,281.0 830.7,279.8 761.3,354.8 692.0,353.5 622.7,357.7 553.3,357.5 484.0,360.6 414.7,363.1 345.3,366.3 276.0,366.6 206.7,364.3 137.3,363.9 68.0,364.2" fill="#08306b" fill-opacity="0.9" stroke="#fff" stroke-width="0.4"><title>complexity_ladder — linkIR</title></polygon>
<polygon points="68.0,360.7 137.3,360.3 206.7,360.8 276.0,363.2 345.3,363.0 414.7,359.7 484.0,357.2 553.3,354.1 622.7,354.2 692.0,349.5 761.3,351.3 830.7,262.9 900.0,264.4 969.3,263.0 1038.7,258.5 1108.0,354.0 1108.0,354.2 1038.7,258.7 969.3,263.2 900.0,264.6 830.7,263.1 761.3,351.7 692.0,349.9 622.7,354.6 553.3,354.5 484.0,357.6 414.7,360.0 345.3,363.3 276.0,363.5 206.7,361.1 137.3,360.7 68.0,361.1" fill="#9e9ac8" fill-opacity="0.9" stroke="#fff" stroke-width="0.4"><title>complexity_ladder — unrollLoopsInModule</title></polygon>
<polygon points="68.0,354.4 137.3,353.9 206.7,354.3 276.0,356.8 345.3,356.6 414.7,353.2 484.0,350.8 553.3,347.7 622.7,347.8 692.0,342.9 761.3,344.8 830.7,256.6 900.0,258.1 969.3,256.8 1038.7,252.3 1108.0,347.4 1108.0,354.0 1038.7,258.5 969.3,263.0 900.0,264.4 830.7,262.9 761.3,351.3 692.0,349.5 622.7,354.2 553.3,354.1 484.0,357.2 414.7,359.7 345.3,363.0 276.0,363.2 206.7,360.8 137.3,360.3 68.0,360.7" fill="#807dba" fill-opacity="0.9" stroke="#fff" stroke-width="0.4"><title>complexity_ladder — legalizeResourceTypes</title></polygon>
<polygon points="68.0,347.6 137.3,347.2 206.7,347.5 276.0,350.2 345.3,349.9 414.7,346.5 484.0,344.0 553.3,341.0 622.7,341.1 692.0,335.9 761.3,338.1 830.7,250.0 900.0,251.6 969.3,250.4 1038.7,245.8 1108.0,340.3 1108.0,347.4 1038.7,252.3 969.3,256.8 900.0,258.1 830.7,256.6 761.3,344.8 692.0,342.9 622.7,347.8 553.3,347.7 484.0,350.8 414.7,353.2 345.3,356.6 276.0,356.8 206.7,354.3 137.3,353.9 68.0,354.4" fill="#6a51a3" fill-opacity="0.9" stroke="#fff" stroke-width="0.4"><title>complexity_ladder — legalizeExistentialTypeLayout</title></polygon>
<polygon points="68.0,346.1 137.3,345.8 206.7,346.0 276.0,348.8 345.3,348.4 414.7,345.0 484.0,342.5 553.3,339.5 622.7,339.6 692.0,334.4 761.3,336.6 830.7,248.8 900.0,250.3 969.3,249.1 1038.7,244.6 1108.0,339.0 1108.0,340.3 1038.7,245.8 969.3,250.4 900.0,251.6 830.7,250.0 761.3,338.1 692.0,335.9 622.7,341.1 553.3,341.0 484.0,344.0 414.7,346.5 345.3,349.9 276.0,350.2 206.7,347.5 137.3,347.2 68.0,347.6" fill="#bcbddc" fill-opacity="0.9" stroke="#fff" stroke-width="0.4"><title>complexity_ladder — performMandatoryEarlyInlining</title></polygon>
<polygon points="68.0,345.4 137.3,345.1 206.7,345.3 276.0,348.1 345.3,347.7 414.7,344.3 484.0,341.9 553.3,338.8 622.7,338.9 692.0,333.6 761.3,335.9 830.7,248.0 900.0,249.6 969.3,248.4 1038.7,243.9 1108.0,338.3 1108.0,339.0 1038.7,244.6 969.3,249.1 900.0,250.3 830.7,248.8 761.3,336.6 692.0,334.4 622.7,339.6 553.3,339.5 484.0,342.5 414.7,345.0 345.3,348.4 276.0,348.8 206.7,346.0 137.3,345.8 68.0,346.1" fill="#dadaeb" fill-opacity="0.9" stroke="#fff" stroke-width="0.4"><title>complexity_ladder — performForceInlining</title></polygon>
<polygon points="68.0,320.1 137.3,318.0 206.7,318.5 276.0,321.7 345.3,321.3 414.7,315.8 484.0,312.6 553.3,307.7 622.7,310.0 692.0,302.5 761.3,303.7 830.7,209.5 900.0,209.5 969.3,208.7 1038.7,205.3 1108.0,305.2 1108.0,338.3 1038.7,243.9 969.3,248.4 900.0,249.6 830.7,248.0 761.3,335.9 692.0,333.6 622.7,338.9 553.3,338.8 484.0,341.9 414.7,344.3 345.3,347.7 276.0,348.1 206.7,345.3 137.3,345.1 68.0,345.4" fill="#4a1486" fill-opacity="0.9" stroke="#fff" stroke-width="0.4"><title>complexity_ladder — linkAndOptimizeIR (self)</title></polygon>
<polygon points="68.0,222.4 137.3,223.3 206.7,220.5 276.0,227.8 345.3,227.8 414.7,220.3 484.0,217.9 553.3,213.1 622.7,215.5 692.0,204.3 761.3,207.0 830.7,113.9 900.0,115.1 969.3,112.8 1038.7,109.1 1108.0,211.2 1108.0,305.2 1038.7,205.3 969.3,208.7 900.0,209.5 830.7,209.5 761.3,303.7 692.0,302.5 622.7,310.0 553.3,307.7 484.0,312.6 414.7,315.8 345.3,321.3 276.0,321.7 206.7,318.5 137.3,318.0 68.0,320.1" fill="#e6550d" fill-opacity="0.9" stroke="#fff" stroke-width="0.4"><title>complexity_ladder — generateOutput (self)</title></polygon>
<polygon points="68.0,221.8 137.3,223.0 206.7,220.5 276.0,227.4 345.3,227.5 414.7,219.8 484.0,215.9 553.3,213.1 622.7,215.3 692.0,203.9 761.3,207.0 830.7,113.9 900.0,114.8 969.3,112.5 1038.7,108.6 1108.0,210.6 1108.0,211.2 1038.7,109.1 969.3,112.8 900.0,115.1 830.7,113.9 761.3,207.0 692.0,204.3 622.7,215.5 553.3,213.1 484.0,217.9 414.7,220.3 345.3,227.8 276.0,227.8 206.7,220.5 137.3,223.3 68.0,222.4" fill="#969696" fill-opacity="0.9" stroke="#fff" stroke-width="0.4"><title>complexity_ladder — compileInner (self)</title></polygon>
<text x="12" y="578" fill="#666" font-weight="600">phase buckets</text>
<rect x="12" y="586" width="12" height="12" fill="#c7e9c0"/>
<text x="28" y="596" fill="#222">parseTranslationUnit</text>
<rect x="289" y="586" width="12" height="12" fill="#41ab5d"/>
<text x="305" y="596" fill="#222">SemanticChecking</text>
<rect x="566" y="586" width="12" height="12" fill="#006d2c"/>
<text x="582" y="596" fill="#222">generateIR</text>
<rect x="843" y="586" width="12" height="12" fill="#74c476"/>
<text x="859" y="596" fill="#222">frontEndExecute (self)</text>
<rect x="12" y="604" width="12" height="12" fill="#6baed6"/>
<text x="28" y="614" fill="#222">specializeModule</text>
<rect x="289" y="604" width="12" height="12" fill="#2171b5"/>
<text x="305" y="614" fill="#222">simplifyIR</text>
<rect x="566" y="604" width="12" height="12" fill="#08306b"/>
<text x="582" y="614" fill="#222">linkIR</text>
<rect x="843" y="604" width="12" height="12" fill="#9e9ac8"/>
<text x="859" y="614" fill="#222">unrollLoopsInModule</text>
<rect x="12" y="622" width="12" height="12" fill="#807dba"/>
<text x="28" y="632" fill="#222">legalizeResourceTypes</text>
<rect x="289" y="622" width="12" height="12" fill="#6a51a3"/>
<text x="305" y="632" fill="#222">legalizeExistentialTypeLayout</text>
<rect x="566" y="622" width="12" height="12" fill="#bcbddc"/>
<text x="582" y="632" fill="#222">performMandatoryEarlyInlining</text>
<rect x="843" y="622" width="12" height="12" fill="#dadaeb"/>
<text x="859" y="632" fill="#222">performForceInlining</text>
<rect x="12" y="640" width="12" height="12" fill="#4a1486"/>
<text x="28" y="650" fill="#222">linkAndOptimizeIR (self)</text>
<rect x="289" y="640" width="12" height="12" fill="#fd8d3c"/>
<text x="305" y="650" fill="#222">emitEntryPointsSourceFromIR</text>
<rect x="566" y="640" width="12" height="12" fill="#e6550d"/>
<text x="582" y="650" fill="#222">generateOutput (self)</text>
<rect x="843" y="640" width="12" height="12" fill="#969696"/>
<text x="859" y="650" fill="#222">compileInner (self)</text>
</svg>