<svg xmlns="http://www.w3.org/2000/svg" xmlns:xlink="http://www.w3.org/1999/xlink" width="1132" height="680" viewBox="0 0 1132 680" preserveAspectRatio="xMidYMid meet" font-family="sans-serif" font-size="13">
<rect width="1132" height="680" fill="white"/>
<text x="12" y="30" font-size="20" font-weight="bold">complexity_ladder — Across releases (median ms)</text>
<text x="68" y="60" font-size="15" font-weight="600" fill="#1a1a1a">complexity_ladder<tspan fill="#888" font-weight="400" text-decoration="none">  1.03×</tspan></text>
<line x1="68.0" y1="516.0" x2="1108.0" y2="516.0" stroke="#eee"/>
<text x="64.0" y="519.0" text-anchor="end" fill="#999">0.0</text>
<line x1="68.0" y1="296.0" x2="1108.0" y2="296.0" stroke="#eee"/>
<text x="64.0" y="299.0" text-anchor="end" fill="#999">195</text>
<line x1="68.0" y1="76.0" x2="1108.0" y2="76.0" stroke="#eee"/>
<text x="64.0" y="79.0" text-anchor="end" fill="#999">390</text>
<line x1="68.0" y1="76.0" x2="68.0" y2="516.0" stroke="#333"/>
<line x1="68.0" y1="516.0" x2="1108.0" y2="516.0" stroke="#333"/>
<line x1="68.0" y1="516.0" x2="68.0" y2="519.0" stroke="#999"/>
<text x="68.0" y="531.0" text-anchor="end" fill="#666" transform="rotate(-50 68.0 531.0)">25.12</text>
<line x1="113.2" y1="516.0" x2="113.2" y2="519.0" stroke="#999"/>
<text x="113.2" y="531.0" text-anchor="end" fill="#666" transform="rotate(-50 113.2 531.0)">25.13</text>
<line x1="158.4" y1="516.0" x2="158.4" y2="519.0" stroke="#999"/>
<text x="158.4" y="531.0" text-anchor="end" fill="#666" transform="rotate(-50 158.4 531.0)">25.14</text>
<line x1="203.7" y1="516.0" x2="203.7" y2="519.0" stroke="#999"/>
<text x="203.7" y="531.0" text-anchor="end" fill="#666" transform="rotate(-50 203.7 531.0)">25.15</text>
<line x1="248.9" y1="516.0" x2="248.9" y2="519.0" stroke="#999"/>
<text x="248.9" y="531.0" text-anchor="end" fill="#666" transform="rotate(-50 248.9 531.0)">25.16</text>
<line x1="294.1" y1="516.0" x2="294.1" y2="519.0" stroke="#999"/>
<text x="294.1" y="531.0" text-anchor="end" fill="#666" transform="rotate(-50 294.1 531.0)">25.17</text>
<line x1="339.3" y1="516.0" x2="339.3" y2="519.0" stroke="#999"/>
<text x="339.3" y="531.0" text-anchor="end" fill="#666" transform="rotate(-50 339.3 531.0)">25.18</text>
<line x1="384.5" y1="516.0" x2="384.5" y2="519.0" stroke="#999"/>
<text x="384.5" y="531.0" text-anchor="end" fill="#666" transform="rotate(-50 384.5 531.0)">25.19</text>
<line x1="429.7" y1="516.0" x2="429.7" y2="519.0" stroke="#999"/>
<text x="429.7" y="531.0" text-anchor="end" fill="#666" transform="rotate(-50 429.7 531.0)">25.20</text>
<line x1="475.0" y1="516.0" x2="475.0" y2="519.0" stroke="#999"/>
<text x="475.0" y="531.0" text-anchor="end" fill="#666" transform="rotate(-50 475.0 531.0)">25.21</text>
<line x1="520.2" y1="516.0" x2="520.2" y2="519.0" stroke="#999"/>
<text x="520.2" y="531.0" text-anchor="end" fill="#666" transform="rotate(-50 520.2 531.0)">25.22</text>
<line x1="565.4" y1="516.0" x2="565.4" y2="519.0" stroke="#999"/>
<text x="565.4" y="531.0" text-anchor="end" fill="#666" transform="rotate(-50 565.4 531.0)">25.23</text>
<line x1="610.6" y1="516.0" x2="610.6" y2="519.0" stroke="#999"/>
<text x="610.6" y="531.0" text-anchor="end" fill="#666" transform="rotate(-50 610.6 531.0)">25.24</text>
<line x1="655.8" y1="516.0" x2="655.8" y2="519.0" stroke="#999"/>
<text x="655.8" y="531.0" text-anchor="end" fill="#666" transform="rotate(-50 655.8 531.0)">26.1</text>
<line x1="701.0" y1="516.0" x2="701.0" y2="519.0" stroke="#999"/>
<text x="701.0" y="531.0" text-anchor="end" fill="#666" transform="rotate(-50 701.0 531.0)">26.2</text>
<line x1="746.3" y1="516.0" x2="746.3" y2="519.0" stroke="#999"/>
<text x="746.3" y="531.0" text-anchor="end" fill="#666" transform="rotate(-50 746.3 531.0)">26.3</text>
<line x1="791.5" y1="516.0" x2="791.5" y2="519.0" stroke="#999"/>
<text x="791.5" y="531.0" text-anchor="end" fill="#666" transform="rotate(-50 791.5 531.0)">26.4</text>
<line x1="836.7" y1="516.0" x2="836.7" y2="519.0" stroke="#999"/>
<text x="836.7" y="531.0" text-anchor="end" fill="#666" transform="rotate(-50 836.7 531.0)">26.5</text>
<line x1="881.9" y1="516.0" x2="881.9" y2="519.0" stroke="#999"/>
<text x="881.9" y="531.0" text-anchor="end" fill="#666" transform="rotate(-50 881.9 531.0)">26.7</text>
<line x1="927.1" y1="516.0" x2="927.1" y2="519.0" stroke="#999"/>
<text x="927.1" y="531.0" text-anchor="end" fill="#666" transform="rotate(-50 927.1 531.0)">26.8</text>
<line x1="972.3" y1="516.0" x2="972.3" y2="519.0" stroke="#999"/>
<text x="972.3" y="531.0" text-anchor="end" fill="#666" transform="rotate(-50 972.3 531.0)">26.9</text>
<line x1="1017.6" y1="516.0" x2="1017.6" y2="519.0" stroke="#999"/>
<text x="1017.6" y="531.0" text-anchor="end" fill="#666" transform="rotate(-50 1017.6 531.0)">26.10</text>
<line x1="1062.8" y1="516.0" x2="1062.8" y2="519.0" stroke="#999"/>
<text x="1062.8" y="531.0" text-anchor="end" fill="#666" transform="rotate(-50 1062.8 531.0)">26.11</text>
<line x1="1108.0" y1="516.0" x2="1108.0" y2="519.0" stroke="#999"/>
<text x="1108.0" y="531.0" text-anchor="end" fill="#666" transform="rotate(-50 1108.0 531.0)">26.12</text>
<polygon points="68.0,514.9 113.2,513.4 158.4,513.7 203.7,514.2 248.9,514.1 294.1,514.3 339.3,514.3 384.5,514.2 429.7,514.3 475.0,514.3 520.2,514.3 565.4,514.3 610.6,514.2 655.8,514.2 701.0,514.2 746.3,514.1 791.5,514.2 836.7,514.2 881.9,513.7 927.1,514.1 972.3,514.1 1017.6,514.0 1062.8,514.1 1108.0,514.0 1108.0,516.0 1062.8,516.0 1017.6,516.0 972.3,516.0 927.1,516.0 881.9,516.0 836.7,516.0 791.5,516.0 746.3,516.0 701.0,516.0 655.8,516.0 610.6,516.0 565.4,516.0 520.2,516.0 475.0,516.0 429.7,516.0 384.5,516.0 339.3,516.0 294.1,516.0 248.9,516.0 203.7,516.0 158.4,516.0 113.2,516.0 68.0,516.0" fill="#c7e9c0" fill-opacity="0.9" stroke="#fff" stroke-width="0.4"><title>complexity_ladder — parseTranslationUnit</title></polygon>
<polygon points="68.0,464.1 113.2,463.7 158.4,450.2 203.7,442.6 248.9,439.7 294.1,442.6 339.3,445.4 384.5,445.7 429.7,443.7 475.0,444.9 520.2,447.2 565.4,446.3 610.6,446.1 655.8,443.5 701.0,441.7 746.3,440.8 791.5,442.0 836.7,439.7 881.9,412.7 927.1,424.4 972.3,410.4 1017.6,412.9 1062.8,467.3 1108.0,464.2 1108.0,514.0 1062.8,514.1 1017.6,514.0 972.3,514.1 927.1,514.1 881.9,513.7 836.7,514.2 791.5,514.2 746.3,514.1 701.0,514.2 655.8,514.2 610.6,514.2 565.4,514.3 520.2,514.3 475.0,514.3 429.7,514.3 384.5,514.2 339.3,514.3 294.1,514.3 248.9,514.1 203.7,514.2 158.4,513.7 113.2,513.4 68.0,514.9" fill="#41ab5d" fill-opacity="0.9" stroke="#fff" stroke-width="0.4"><title>complexity_ladder — SemanticChecking</title></polygon>
<polygon points="68.0,448.4 113.2,447.0 158.4,431.6 203.7,424.9 248.9,420.7 294.1,424.5 339.3,427.2 384.5,427.9 429.7,425.5 475.0,426.9 520.2,429.5 565.4,428.8 610.6,428.5 655.8,425.9 701.0,423.6 746.3,423.0 791.5,424.0 836.7,421.8 881.9,373.7 927.1,388.8 972.3,368.7 1017.6,374.5 1062.8,447.5 1108.0,444.8 1108.0,464.2 1062.8,467.3 1017.6,412.9 972.3,410.4 927.1,424.4 881.9,412.7 836.7,439.7 791.5,442.0 746.3,440.8 701.0,441.7 655.8,443.5 610.6,446.1 565.4,446.3 520.2,447.2 475.0,444.9 429.7,443.7 384.5,445.7 339.3,445.4 294.1,442.6 248.9,439.7 203.7,442.6 158.4,450.2 113.2,463.7 68.0,464.1" fill="#006d2c" fill-opacity="0.9" stroke="#fff" stroke-width="0.4"><title>complexity_ladder — generateIR</title></polygon>
<polygon points="68.0,446.4 113.2,446.4 158.4,430.5 203.7,424.9 248.9,419.3 294.1,424.2 339.3,427.1 384.5,427.3 429.7,424.8 475.0,426.5 520.2,429.1 565.4,428.3 610.6,428.0 655.8,425.2 701.0,423.3 746.3,422.1 791.5,423.5 836.7,421.5 881.9,373.2 927.1,388.0 972.3,368.1 1017.6,374.0 1062.8,447.1 1108.0,443.9 1108.0,444.8 1062.8,447.5 1017.6,374.5 972.3,368.7 927.1,388.8 881.9,373.7 836.7,421.8 791.5,424.0 746.3,423.0 701.0,423.6 655.8,425.9 610.6,428.5 565.4,428.8 520.2,429.5 475.0,426.9 429.7,425.5 384.5,427.9 339.3,427.2 294.1,424.5 248.9,420.7 203.7,424.9 158.4,431.6 113.2,447.0 68.0,448.4" fill="#74c476" fill-opacity="0.9" stroke="#fff" stroke-width="0.4"><title>complexity_ladder — frontEndExecute (self)</title></polygon>
<polygon points="68.0,439.6 113.2,438.6 158.4,421.8 203.7,416.6 248.9,411.1 294.1,416.2 339.3,419.1 384.5,419.1 429.7,416.6 475.0,418.3 520.2,420.8 565.4,419.9 610.6,413.2 655.8,410.2 701.0,408.4 746.3,406.9 791.5,408.4 836.7,405.8 881.9,341.7 927.1,359.8 972.3,338.3 1017.6,342.5 1062.8,424.3 1108.0,421.4 1108.0,443.9 1062.8,447.1 1017.6,374.0 972.3,368.1 927.1,388.0 881.9,373.2 836.7,421.5 791.5,423.5 746.3,422.1 701.0,423.3 655.8,425.2 610.6,428.0 565.4,428.3 520.2,429.1 475.0,426.5 429.7,424.8 384.5,427.3 339.3,427.1 294.1,424.2 248.9,419.3 203.7,424.9 158.4,430.5 113.2,446.4 68.0,446.4" fill="#6baed6" fill-opacity="0.9" stroke="#fff" stroke-width="0.4"><title>complexity_ladder — specializeModule</title></polygon>
<polygon points="68.0,411.5 113.2,409.7 158.4,391.0 203.7,387.0 248.9,381.1 294.1,384.2 339.3,387.2 384.5,386.5 429.7,384.1 475.0,386.0 520.2,389.2 565.4,388.1 610.6,385.4 655.8,382.3 701.0,380.3 746.3,379.3 791.5,380.3 836.7,377.9 881.9,286.4 927.1,311.1 972.3,281.4 1017.6,290.6 1062.8,377.9 1108.0,375.7 1108.0,421.4 1062.8,424.3 1017.6,342.5 972.3,338.3 927.1,359.8 881.9,341.7 836.7,405.8 791.5,408.4 746.3,406.9 701.0,408.4 655.8,410.2 610.6,413.2 565.4,419.9 520.2,420.8 475.0,418.3 429.7,416.6 384.5,419.1 339.3,419.1 294.1,416.2 248.9,411.1 203.7,416.6 158.4,421.8 113.2,438.6 68.0,439.6" fill="#2171b5" fill-opacity="0.9" stroke="#fff" stroke-width="0.4"><title>complexity_ladder — simplifyIR</title></polygon>
<polygon points="68.0,409.2 113.2,406.3 158.4,387.1 203.7,383.5 248.9,377.5 294.1,381.2 339.3,384.2 384.5,383.5 429.7,381.3 475.0,383.0 520.2,386.3 565.4,385.1 610.6,382.5 655.8,379.3 701.0,377.2 746.3,376.3 791.5,377.4 836.7,374.5 881.9,267.2 927.1,293.3 972.3,260.7 1017.6,271.0 1062.8,375.3 1108.0,373.1 1108.0,375.7 1062.8,377.9 1017.6,290.6 972.3,281.4 927.1,311.1 881.9,286.4 836.7,377.9 791.5,380.3 746.3,379.3 701.0,380.3 655.8,382.3 610.6,385.4 565.4,388.1 520.2,389.2 475.0,386.0 429.7,384.1 384.5,386.5 339.3,387.2 294.1,384.2 248.9,381.1 203.7,387.0 158.4,391.0 113.2,409.7 68.0,411.5" fill="#08306b" fill-opacity="0.9" stroke="#fff" stroke-width="0.4"><title>complexity_ladder — linkIR</title></polygon>
<polygon points="68.0,409.2 113.2,406.1 158.4,386.9 203.7,383.3 248.9,377.3 294.1,380.9 339.3,383.9 384.5,383.2 429.7,381.0 475.0,382.8 520.2,386.0 565.4,384.9 610.6,382.2 655.8,378.9 701.0,376.9 746.3,376.0 791.5,377.0 836.7,374.2 881.9,267.1 927.1,293.1 972.3,260.5 1017.6,270.8 1062.8,375.2 1108.0,373.0 1108.0,373.1 1062.8,375.3 1017.6,271.0 972.3,260.7 927.1,293.3 881.9,267.2 836.7,374.5 791.5,377.4 746.3,376.3 701.0,377.2 655.8,379.3 610.6,382.5 565.4,385.1 520.2,386.3 475.0,383.0 429.7,381.3 384.5,383.5 339.3,384.2 294.1,381.2 248.9,377.5 203.7,383.5 158.4,387.1 113.2,406.3 68.0,409.2" fill="#9e9ac8" fill-opacity="0.9" stroke="#fff" stroke-width="0.4"><title>complexity_ladder — unrollLoopsInModule</title></polygon>
<polygon points="68.0,401.3 113.2,397.9 158.4,375.7 203.7,374.6 248.9,367.4 294.1,372.8 339.3,378.5 384.5,377.7 429.7,375.4 475.0,377.2 520.2,380.4 565.4,379.2 610.6,376.6 655.8,373.3 701.0,371.1 746.3,370.4 791.5,371.3 836.7,368.4 881.9,261.1 927.1,287.7 972.3,254.7 1017.6,265.1 1062.8,369.2 1108.0,367.0 1108.0,373.0 1062.8,375.2 1017.6,270.8 972.3,260.5 927.1,293.1 881.9,267.1 836.7,374.2 791.5,377.0 746.3,376.0 701.0,376.9 655.8,378.9 610.6,382.2 565.4,384.9 520.2,386.0 475.0,382.8 429.7,381.0 384.5,383.2 339.3,383.9 294.1,380.9 248.9,377.3 203.7,383.3 158.4,386.9 113.2,406.1 68.0,409.2" fill="#807dba" fill-opacity="0.9" stroke="#fff" stroke-width="0.4"><title>complexity_ladder — legalizeResourceTypes</title></polygon>
<polygon points="68.0,393.4 113.2,389.3 158.4,366.0 203.7,365.8 248.9,358.2 294.1,364.2 339.3,372.6 384.5,371.9 429.7,369.5 475.0,371.4 520.2,374.6 565.4,373.4 610.6,370.7 655.8,367.3 701.0,364.9 746.3,364.5 791.5,365.3 836.7,362.3 881.9,254.1 927.1,281.9 972.3,248.0 1017.6,259.4 1062.8,363.0 1108.0,360.7 1108.0,367.0 1062.8,369.2 1017.6,265.1 972.3,254.7 927.1,287.7 881.9,261.1 836.7,368.4 791.5,371.3 746.3,370.4 701.0,371.1 655.8,373.3 610.6,376.6 565.4,379.2 520.2,380.4 475.0,377.2 429.7,375.4 384.5,377.7 339.3,378.5 294.1,372.8 248.9,367.4 203.7,374.6 158.4,375.7 113.2,397.9 68.0,401.3" fill="#6a51a3" fill-opacity="0.9" stroke="#fff" stroke-width="0.4"><title>complexity_ladder — legalizeExistentialTypeLayout</title></polygon>
<polygon points="68.0,393.4 113.2,388.1 158.4,364.8 203.7,364.6 248.9,356.9 294.1,363.0 339.3,371.4 384.5,370.7 429.7,368.2 475.0,370.2 520.2,373.4 565.4,372.2 610.6,369.5 655.8,366.1 701.0,363.7 746.3,363.3 791.5,364.1 836.7,361.1 881.9,253.0 927.1,280.8 972.3,246.8 1017.6,258.2 1062.8,361.9 1108.0,359.6 1108.0,360.7 1062.8,363.0 1017.6,259.4 972.3,248.0 927.1,281.9 881.9,254.1 836.7,362.3 791.5,365.3 746.3,364.5 701.0,364.9 655.8,367.3 610.6,370.7 565.4,373.4 520.2,374.6 475.0,371.4 429.7,369.5 384.5,371.9 339.3,372.6 294.1,364.2 248.9,358.2 203.7,365.8 158.4,366.0 113.2,389.3 68.0,393.4" fill="#bcbddc" fill-opacity="0.9" stroke="#fff" stroke-width="0.4"><title>complexity_ladder — performMandatoryEarlyInlining</title></polygon>
<polygon points="68.0,393.4 113.2,387.6 158.4,364.1 203.7,364.0 248.9,356.3 294.1,362.4 339.3,370.8 384.5,370.1 429.7,367.7 475.0,369.6 520.2,372.8 565.4,371.6 610.6,368.9 655.8,365.5 701.0,363.1 746.3,362.7 791.5,363.5 836.7,360.5 881.9,252.3 927.1,280.2 972.3,246.1 1017.6,257.6 1062.8,361.2 1108.0,359.0 1108.0,359.6 1062.8,361.9 1017.6,258.2 972.3,246.8 927.1,280.8 881.9,253.0 836.7,361.1 791.5,364.1 746.3,363.3 701.0,363.7 655.8,366.1 610.6,369.5 565.4,372.2 520.2,373.4 475.0,370.2 429.7,368.2 384.5,370.7 339.3,371.4 294.1,363.0 248.9,356.9 203.7,364.6 158.4,364.8 113.2,388.1 68.0,393.4" fill="#dadaeb" fill-opacity="0.9" stroke="#fff" stroke-width="0.4"><title>complexity_ladder — performForceInlining</title></polygon>
<polygon points="68.0,369.7 113.2,367.5 158.4,341.1 203.7,342.3 248.9,334.8 294.1,340.5 339.3,348.6 384.5,344.9 429.7,342.9 475.0,347.7 520.2,349.5 565.4,349.7 610.6,343.2 655.8,341.8 701.0,338.7 746.3,339.2 791.5,335.4 836.7,334.7 881.9,214.1 927.1,246.7 972.3,201.1 1017.6,216.3 1062.8,331.9 1108.0,330.1 1108.0,359.0 1062.8,361.2 1017.6,257.6 972.3,246.1 927.1,280.2 881.9,252.3 836.7,360.5 791.5,363.5 746.3,362.7 701.0,363.1 655.8,365.5 610.6,368.9 565.4,371.6 520.2,372.8 475.0,369.6 429.7,367.7 384.5,370.1 339.3,370.8 294.1,362.4 248.9,356.3 203.7,364.0 158.4,364.1 113.2,387.6 68.0,393.4" fill="#4a1486" fill-opacity="0.9" stroke="#fff" stroke-width="0.4"><title>complexity_ladder — linkAndOptimizeIR (self)</title></polygon>
<polygon points="68.0,255.6 113.2,255.8 158.4,209.9 203.7,224.0 248.9,215.7 294.1,251.2 339.3,266.0 384.5,261.0 429.7,262.1 475.0,264.3 520.2,268.0 565.4,267.5 610.6,260.8 655.8,258.2 701.0,254.9 746.3,256.6 791.5,252.7 836.7,242.5 881.9,114.6 927.1,163.0 972.3,108.9 1017.6,129.9 1062.8,249.1 1108.0,247.0 1108.0,330.1 1062.8,331.9 1017.6,216.3 972.3,201.1 927.1,246.7 881.9,214.1 836.7,334.7 791.5,335.4 746.3,339.2 701.0,338.7 655.8,341.8 610.6,343.2 565.4,349.7 520.2,349.5 475.0,347.7 429.7,342.9 384.5,344.9 339.3,348.6 294.1,340.5 248.9,334.8 203.7,342.3 158.4,341.1 113.2,367.5 68.0,369.7" fill="#e6550d" fill-opacity="0.9" stroke="#fff" stroke-width="0.4"><title>complexity_ladder — generateOutput (self)</title></polygon>
<polygon points="68.0,255.6 113.2,255.7 158.4,204.5 203.7,223.9 248.9,215.7 294.1,250.5 339.3,265.8 384.5,261.0 429.7,262.1 475.0,264.0 520.2,267.8 565.4,266.5 610.6,260.8 655.8,258.2 701.0,254.7 746.3,255.4 791.5,252.5 836.7,242.3 881.9,112.0 927.1,163.0 972.3,108.6 1017.6,129.8 1062.8,248.9 1108.0,246.8 1108.0,247.0 1062.8,249.1 1017.6,129.9 972.3,108.9 927.1,163.0 881.9,114.6 836.7,242.5 791.5,252.7 746.3,256.6 701.0,254.9 655.8,258.2 610.6,260.8 565.4,267.5 520.2,268.0 475.0,264.3 429.7,262.1 384.5,261.0 339.3,266.0 294.1,251.2 248.9,215.7 203.7,224.0 158.4,209.9 113.2,255.8 68.0,255.6" fill="#969696" fill-opacity="0.9" stroke="#fff" stroke-width="0.4"><title>complexity_ladder — compileInner (self)</title></polygon>
<text x="12" y="578" fill="#666" font-weight="600">phase buckets</text>
<rect x="12" y="586" width="12" height="12" fill="#c7e9c0"/>
<text x="28" y="596" fill="#222">parseTranslationUnit</text>
<rect x="289" y="586" width="12" height="12" fill="#41ab5d"/>
<text x="305" y="596" fill="#222">SemanticChecking</text>
<rect x="566" y="586" width="12" height="12" fill="#006d2c"/>
<text x="582" y="596" fill="#222">generateIR</text>
<rect x="843" y="586" width="12" height="12" fill="#74c476"/>
<text x="859" y="596" fill="#222">frontEndExecute (self)</text>
<rect x="12" y="604" width="12" height="12" fill="#6baed6"/>
<text x="28" y="614" fill="#222">specializeModule</text>
<rect x="289" y="604" width="12" height="12" fill="#2171b5"/>
<text x="305" y="614" fill="#222">simplifyIR</text>
<rect x="566" y="604" width="12" height="12" fill="#08306b"/>
<text x="582" y="614" fill="#222">linkIR</text>
<rect x="843" y="604" width="12" height="12" fill="#9e9ac8"/>
<text x="859" y="614" fill="#222">unrollLoopsInModule</text>
<rect x="12" y="622" width="12" height="12" fill="#807dba"/>
<text x="28" y="632" fill="#222">legalizeResourceTypes</text>
<rect x="289" y="622" width="12" height="12" fill="#6a51a3"/>
<text x="305" y="632" fill="#222">legalizeExistentialTypeLayout</text>
<rect x="566" y="622" width="12" height="12" fill="#bcbddc"/>
<text x="582" y="632" fill="#222">performMandatoryEarlyInlining</text>
<rect x="843" y="622" width="12" height="12" fill="#dadaeb"/>
<text x="859" y="632" fill="#222">performForceInlining</text>
<rect x="12" y="640" width="12" height="12" fill="#4a1486"/>
<text x="28" y="650" fill="#222">linkAndOptimizeIR (self)</text>
<rect x="289" y="640" width="12" height="12" fill="#fd8d3c"/>
<text x="305" y="650" fill="#222">emitEntryPointsSourceFromIR</text>
<rect x="566" y="640" width="12" height="12" fill="#e6550d"/>
<text x="582" y="650" fill="#222">generateOutput (self)</text>
<rect x="843" y="640" width="12" height="12" fill="#969696"/>
<text x="859" y="650" fill="#222">compileInner (self)</text>
</svg>