<svg xmlns="http://www.w3.org/2000/svg" xmlns:xlink="http://www.w3.org/1999/xlink" width="1132" height="680" viewBox="0 0 1132 680" preserveAspectRatio="xMidYMid meet" font-family="sans-serif" font-size="13">
<rect width="1132" height="680" fill="white"/>
<text x="12" y="30" font-size="20" font-weight="bold">complexity_ladder — Across releases (median ms)</text>
<text x="68" y="60" font-size="15" font-weight="600" fill="#1a1a1a">complexity_ladder<tspan fill="#888" font-weight="400" text-decoration="none">  1.08×</tspan></text>
<line x1="68.0" y1="516.0" x2="1108.0" y2="516.0" stroke="#eee"/>
<text x="64.0" y="519.0" text-anchor="end" fill="#999">0.0</text>
<line x1="68.0" y1="296.0" x2="1108.0" y2="296.0" stroke="#eee"/>
<text x="64.0" y="299.0" text-anchor="end" fill="#999">193</text>
<line x1="68.0" y1="76.0" x2="1108.0" y2="76.0" stroke="#eee"/>
<text x="64.0" y="79.0" text-anchor="end" fill="#999">387</text>
<line x1="68.0" y1="76.0" x2="68.0" y2="516.0" stroke="#333"/>
<line x1="68.0" y1="516.0" x2="1108.0" y2="516.0" stroke="#333"/>
<line x1="68.0" y1="516.0" x2="68.0" y2="519.0" stroke="#999"/>
<text x="68.0" y="531.0" text-anchor="end" fill="#666" transform="rotate(-50 68.0 531.0)">25.12</text>
<line x1="111.3" y1="516.0" x2="111.3" y2="519.0" stroke="#999"/>
<text x="111.3" y="531.0" text-anchor="end" fill="#666" transform="rotate(-50 111.3 531.0)">25.13</text>
<line x1="154.7" y1="516.0" x2="154.7" y2="519.0" stroke="#999"/>
<text x="154.7" y="531.0" text-anchor="end" fill="#666" transform="rotate(-50 154.7 531.0)">25.14</text>
<line x1="198.0" y1="516.0" x2="198.0" y2="519.0" stroke="#999"/>
<text x="198.0" y="531.0" text-anchor="end" fill="#666" transform="rotate(-50 198.0 531.0)">25.15</text>
<line x1="241.3" y1="516.0" x2="241.3" y2="519.0" stroke="#999"/>
<text x="241.3" y="531.0" text-anchor="end" fill="#666" transform="rotate(-50 241.3 531.0)">25.16</text>
<line x1="284.7" y1="516.0" x2="284.7" y2="519.0" stroke="#999"/>
<text x="284.7" y="531.0" text-anchor="end" fill="#666" transform="rotate(-50 284.7 531.0)">25.17</text>
<line x1="328.0" y1="516.0" x2="328.0" y2="519.0" stroke="#999"/>
<text x="328.0" y="531.0" text-anchor="end" fill="#666" transform="rotate(-50 328.0 531.0)">25.18</text>
<line x1="371.3" y1="516.0" x2="371.3" y2="519.0" stroke="#999"/>
<text x="371.3" y="531.0" text-anchor="end" fill="#666" transform="rotate(-50 371.3 531.0)">25.19</text>
<line x1="414.7" y1="516.0" x2="414.7" y2="519.0" stroke="#999"/>
<text x="414.7" y="531.0" text-anchor="end" fill="#666" transform="rotate(-50 414.7 531.0)">25.20</text>
<line x1="458.0" y1="516.0" x2="458.0" y2="519.0" stroke="#999"/>
<text x="458.0" y="531.0" text-anchor="end" fill="#666" transform="rotate(-50 458.0 531.0)">25.21</text>
<line x1="501.3" y1="516.0" x2="501.3" y2="519.0" stroke="#999"/>
<text x="501.3" y="531.0" text-anchor="end" fill="#666" transform="rotate(-50 501.3 531.0)">25.22</text>
<line x1="544.7" y1="516.0" x2="544.7" y2="519.0" stroke="#999"/>
<text x="544.7" y="531.0" text-anchor="end" fill="#666" transform="rotate(-50 544.7 531.0)">25.23</text>
<line x1="588.0" y1="516.0" x2="588.0" y2="519.0" stroke="#999"/>
<text x="588.0" y="531.0" text-anchor="end" fill="#666" transform="rotate(-50 588.0 531.0)">25.24</text>
<line x1="631.3" y1="516.0" x2="631.3" y2="519.0" stroke="#999"/>
<text x="631.3" y="531.0" text-anchor="end" fill="#666" transform="rotate(-50 631.3 531.0)">26.1</text>
<line x1="674.7" y1="516.0" x2="674.7" y2="519.0" stroke="#999"/>
<text x="674.7" y="531.0" text-anchor="end" fill="#666" transform="rotate(-50 674.7 531.0)">26.2</text>
<line x1="718.0" y1="516.0" x2="718.0" y2="519.0" stroke="#999"/>
<text x="718.0" y="531.0" text-anchor="end" fill="#666" transform="rotate(-50 718.0 531.0)">26.3</text>
<line x1="761.3" y1="516.0" x2="761.3" y2="519.0" stroke="#999"/>
<text x="761.3" y="531.0" text-anchor="end" fill="#666" transform="rotate(-50 761.3 531.0)">26.4</text>
<line x1="804.7" y1="516.0" x2="804.7" y2="519.0" stroke="#999"/>
<text x="804.7" y="531.0" text-anchor="end" fill="#666" transform="rotate(-50 804.7 531.0)">26.5</text>
<line x1="848.0" y1="516.0" x2="848.0" y2="519.0" stroke="#999"/>
<text x="848.0" y="531.0" text-anchor="end" fill="#666" transform="rotate(-50 848.0 531.0)">26.7</text>
<line x1="891.3" y1="516.0" x2="891.3" y2="519.0" stroke="#999"/>
<text x="891.3" y="531.0" text-anchor="end" fill="#666" transform="rotate(-50 891.3 531.0)">26.8</text>
<line x1="934.7" y1="516.0" x2="934.7" y2="519.0" stroke="#999"/>
<text x="934.7" y="531.0" text-anchor="end" fill="#666" transform="rotate(-50 934.7 531.0)">26.9</text>
<line x1="978.0" y1="516.0" x2="978.0" y2="519.0" stroke="#999"/>
<text x="978.0" y="531.0" text-anchor="end" fill="#666" transform="rotate(-50 978.0 531.0)">26.10</text>
<line x1="1021.3" y1="516.0" x2="1021.3" y2="519.0" stroke="#999"/>
<text x="1021.3" y="531.0" text-anchor="end" fill="#666" transform="rotate(-50 1021.3 531.0)">26.11</text>
<line x1="1064.7" y1="516.0" x2="1064.7" y2="519.0" stroke="#999"/>
<text x="1064.7" y="531.0" text-anchor="end" fill="#666" transform="rotate(-50 1064.7 531.0)">26.12</text>
<line x1="1108.0" y1="516.0" x2="1108.0" y2="519.0" stroke="#999"/>
<text x="1108.0" y="531.0" text-anchor="end" fill="#666" transform="rotate(-50 1108.0 531.0)">26.13</text>
<polygon points="68.0,514.9 111.3,513.4 154.7,513.7 198.0,514.2 241.3,514.1 284.7,514.3 328.0,514.3 371.3,514.2 414.7,514.3 458.0,514.2 501.3,514.3 544.7,514.3 588.0,514.2 631.3,514.2 674.7,514.2 718.0,514.1 761.3,514.1 804.7,514.1 848.0,513.7 891.3,514.1 934.7,514.1 978.0,514.0 1021.3,513.7 1064.7,514.0 1108.0,514.0 1108.0,516.0 1064.7,516.0 1021.3,516.0 978.0,516.0 934.7,516.0 891.3,516.0 848.0,516.0 804.7,516.0 761.3,516.0 718.0,516.0 674.7,516.0 631.3,516.0 588.0,516.0 544.7,516.0 501.3,516.0 458.0,516.0 414.7,516.0 371.3,516.0 328.0,516.0 284.7,516.0 241.3,516.0 198.0,516.0 154.7,516.0 111.3,516.0 68.0,516.0" fill="#c7e9c0" fill-opacity="0.9" stroke="#fff" stroke-width="0.4"><title>complexity_ladder — parseTranslationUnit</title></polygon>
<polygon points="68.0,463.7 111.3,463.3 154.7,449.7 198.0,442.0 241.3,439.1 284.7,441.9 328.0,444.8 371.3,445.1 414.7,443.0 458.0,444.3 501.3,446.7 544.7,445.7 588.0,445.5 631.3,442.9 674.7,441.0 718.0,440.2 761.3,441.4 804.7,439.0 848.0,411.8 891.3,424.0 934.7,424.4 978.0,419.3 1021.3,460.0 1064.7,455.7 1108.0,464.7 1108.0,514.0 1064.7,514.0 1021.3,513.7 978.0,514.0 934.7,514.1 891.3,514.1 848.0,513.7 804.7,514.1 761.3,514.1 718.0,514.1 674.7,514.2 631.3,514.2 588.0,514.2 544.7,514.3 501.3,514.3 458.0,514.2 414.7,514.3 371.3,514.2 328.0,514.3 284.7,514.3 241.3,514.1 198.0,514.2 154.7,513.7 111.3,513.4 68.0,514.9" fill="#41ab5d" fill-opacity="0.9" stroke="#fff" stroke-width="0.4"><title>complexity_ladder — SemanticChecking</title></polygon>
<polygon points="68.0,447.8 111.3,446.4 154.7,430.9 198.0,424.2 241.3,419.9 284.7,423.7 328.0,426.4 371.3,427.2 414.7,424.7 458.0,426.2 501.3,428.7 544.7,428.1 588.0,427.7 631.3,425.1 674.7,422.8 718.0,422.2 761.3,423.2 804.7,421.0 848.0,372.5 891.3,389.2 934.7,390.8 978.0,381.0 1021.3,436.9 1064.7,430.9 1108.0,443.6 1108.0,464.7 1064.7,455.7 1021.3,460.0 978.0,419.3 934.7,424.4 891.3,424.0 848.0,411.8 804.7,439.0 761.3,441.4 718.0,440.2 674.7,441.0 631.3,442.9 588.0,445.5 544.7,445.7 501.3,446.7 458.0,444.3 414.7,443.0 371.3,445.1 328.0,444.8 284.7,441.9 241.3,439.1 198.0,442.0 154.7,449.7 111.3,463.3 68.0,463.7" fill="#006d2c" fill-opacity="0.9" stroke="#fff" stroke-width="0.4"><title>complexity_ladder — generateIR</title></polygon>
<polygon points="68.0,445.8 111.3,445.9 154.7,429.7 198.0,424.2 241.3,418.5 284.7,423.5 328.0,426.3 371.3,426.5 414.7,424.0 458.0,425.7 501.3,428.3 544.7,427.5 588.0,427.2 631.3,424.4 674.7,422.5 718.0,421.3 761.3,422.7 804.7,420.7 848.0,372.0 891.3,388.7 934.7,389.2 978.0,381.0 1021.3,435.6 1064.7,427.8 1108.0,443.6 1108.0,443.6 1064.7,430.9 1021.3,436.9 978.0,381.0 934.7,390.8 891.3,389.2 848.0,372.5 804.7,421.0 761.3,423.2 718.0,422.2 674.7,422.8 631.3,425.1 588.0,427.7 544.7,428.1 501.3,428.7 458.0,426.2 414.7,424.7 371.3,427.2 328.0,426.4 284.7,423.7 241.3,419.9 198.0,424.2 154.7,430.9 111.3,446.4 68.0,447.8" fill="#74c476" fill-opacity="0.9" stroke="#fff" stroke-width="0.4"><title>complexity_ladder — frontEndExecute (self)</title></polygon>
<polygon points="68.0,439.0 111.3,438.0 154.7,421.0 198.0,415.8 241.3,410.2 284.7,415.3 328.0,418.3 371.3,418.2 414.7,415.7 458.0,417.4 501.3,420.0 544.7,419.1 588.0,412.3 631.3,409.3 674.7,407.5 718.0,405.9 761.3,407.4 804.7,404.9 848.0,340.3 891.3,360.2 934.7,360.8 978.0,351.9 1021.3,411.1 1064.7,400.4 1108.0,418.7 1108.0,443.6 1064.7,427.8 1021.3,435.6 978.0,381.0 934.7,389.2 891.3,388.7 848.0,372.0 804.7,420.7 761.3,422.7 718.0,421.3 674.7,422.5 631.3,424.4 588.0,427.2 544.7,427.5 501.3,428.3 458.0,425.7 414.7,424.0 371.3,426.5 328.0,426.3 284.7,423.5 241.3,418.5 198.0,424.2 154.7,429.7 111.3,445.9 68.0,445.8" fill="#6baed6" fill-opacity="0.9" stroke="#fff" stroke-width="0.4"><title>complexity_ladder — specializeModule</title></polygon>
<polygon points="68.0,410.6 111.3,408.8 154.7,389.9 198.0,385.9 241.3,380.0 284.7,383.1 328.0,386.1 371.3,385.4 414.7,383.0 458.0,384.9 501.3,388.1 544.7,387.1 588.0,384.2 631.3,381.2 674.7,379.1 718.0,378.2 761.3,379.2 804.7,376.7 848.0,284.4 891.3,310.9 934.7,311.7 978.0,302.2 1021.3,360.7 1064.7,351.7 1108.0,375.1 1108.0,418.7 1064.7,400.4 1021.3,411.1 978.0,351.9 934.7,360.8 891.3,360.2 848.0,340.3 804.7,404.9 761.3,407.4 718.0,405.9 674.7,407.5 631.3,409.3 588.0,412.3 544.7,419.1 501.3,420.0 458.0,417.4 414.7,415.7 371.3,418.2 328.0,418.3 284.7,415.3 241.3,410.2 198.0,415.8 154.7,421.0 111.3,438.0 68.0,439.0" fill="#2171b5" fill-opacity="0.9" stroke="#fff" stroke-width="0.4"><title>complexity_ladder — simplifyIR</title></polygon>
<polygon points="68.0,408.3 111.3,405.4 154.7,386.0 198.0,382.4 241.3,376.3 284.7,380.0 328.0,383.0 371.3,382.4 414.7,380.1 458.0,381.9 501.3,385.2 544.7,384.0 588.0,381.4 631.3,378.1 674.7,376.0 718.0,375.1 761.3,376.2 804.7,373.3 848.0,265.1 891.3,294.3 934.7,296.1 978.0,279.7 1021.3,357.7 1064.7,348.7 1108.0,372.5 1108.0,375.1 1064.7,351.7 1021.3,360.7 978.0,302.2 934.7,311.7 891.3,310.9 848.0,284.4 804.7,376.7 761.3,379.2 718.0,378.2 674.7,379.1 631.3,381.2 588.0,384.2 544.7,387.1 501.3,388.1 458.0,384.9 414.7,383.0 371.3,385.4 328.0,386.1 284.7,383.1 241.3,380.0 198.0,385.9 154.7,389.9 111.3,408.8 68.0,410.6" fill="#08306b" fill-opacity="0.9" stroke="#fff" stroke-width="0.4"><title>complexity_ladder — linkIR</title></polygon>
<polygon points="68.0,408.3 111.3,405.2 154.7,385.8 198.0,382.2 241.3,376.1 284.7,379.8 328.0,382.8 371.3,382.1 414.7,379.8 458.0,381.6 501.3,384.9 544.7,383.7 588.0,381.1 631.3,377.8 674.7,375.7 718.0,374.8 761.3,375.9 804.7,373.0 848.0,264.9 891.3,294.1 934.7,295.9 978.0,279.5 1021.3,357.6 1064.7,348.5 1108.0,372.1 1108.0,372.5 1064.7,348.7 1021.3,357.7 978.0,279.7 934.7,296.1 891.3,294.3 848.0,265.1 804.7,373.3 761.3,376.2 718.0,375.1 674.7,376.0 631.3,378.1 588.0,381.4 544.7,384.0 501.3,385.2 458.0,381.9 414.7,380.1 371.3,382.4 328.0,383.0 284.7,380.0 241.3,376.3 198.0,382.4 154.7,386.0 111.3,405.4 68.0,408.3" fill="#9e9ac8" fill-opacity="0.9" stroke="#fff" stroke-width="0.4"><title>complexity_ladder — unrollLoopsInModule</title></polygon>
<polygon points="68.0,400.3 111.3,396.9 154.7,374.5 198.0,373.4 241.3,366.1 284.7,371.6 328.0,377.3 371.3,376.6 414.7,374.2 458.0,376.1 501.3,379.2 544.7,378.1 588.0,375.5 631.3,372.0 674.7,369.9 718.0,369.2 761.3,370.1 804.7,367.2 848.0,259.0 891.3,288.7 934.7,290.6 978.0,274.0 1021.3,351.2 1064.7,342.2 1108.0,366.2 1108.0,372.1 1064.7,348.5 1021.3,357.6 978.0,279.5 934.7,295.9 891.3,294.1 848.0,264.9 804.7,373.0 761.3,375.9 718.0,374.8 674.7,375.7 631.3,377.8 588.0,381.1 544.7,383.7 501.3,384.9 458.0,381.6 414.7,379.8 371.3,382.1 328.0,382.8 284.7,379.8 241.3,376.1 198.0,382.2 154.7,385.8 111.3,405.2 68.0,408.3" fill="#807dba" fill-opacity="0.9" stroke="#fff" stroke-width="0.4"><title>complexity_ladder — legalizeResourceTypes</title></polygon>
<polygon points="68.0,392.4 111.3,388.2 154.7,364.8 198.0,364.5 241.3,356.9 284.7,362.9 328.0,371.4 371.3,370.7 414.7,368.2 458.0,370.2 501.3,373.3 544.7,372.2 588.0,369.5 631.3,366.1 674.7,363.6 718.0,363.2 761.3,364.0 804.7,361.0 848.0,251.9 891.3,283.0 934.7,284.9 978.0,268.1 1021.3,344.4 1064.7,335.6 1108.0,359.9 1108.0,366.2 1064.7,342.2 1021.3,351.2 978.0,274.0 934.7,290.6 891.3,288.7 848.0,259.0 804.7,367.2 761.3,370.1 718.0,369.2 674.7,369.9 631.3,372.0 588.0,375.5 544.7,378.1 501.3,379.2 458.0,376.1 414.7,374.2 371.3,376.6 328.0,377.3 284.7,371.6 241.3,366.1 198.0,373.4 154.7,374.5 111.3,396.9 68.0,400.3" fill="#6a51a3" fill-opacity="0.9" stroke="#fff" stroke-width="0.4"><title>complexity_ladder — legalizeExistentialTypeLayout</title></polygon>
<polygon points="68.0,392.4 111.3,387.1 154.7,363.5 198.0,363.3 241.3,355.6 284.7,361.6 328.0,370.1 371.3,369.4 414.7,367.0 458.0,368.9 501.3,372.1 544.7,370.9 588.0,368.2 631.3,364.8 674.7,362.4 718.0,362.0 761.3,362.8 804.7,359.8 848.0,250.7 891.3,281.9 934.7,283.8 978.0,267.1 1021.3,343.2 1064.7,334.3 1108.0,358.5 1108.0,359.9 1064.7,335.6 1021.3,344.4 978.0,268.1 934.7,284.9 891.3,283.0 848.0,251.9 804.7,361.0 761.3,364.0 718.0,363.2 674.7,363.6 631.3,366.1 588.0,369.5 544.7,372.2 501.3,373.3 458.0,370.2 414.7,368.2 371.3,370.7 328.0,371.4 284.7,362.9 241.3,356.9 198.0,364.5 154.7,364.8 111.3,388.2 68.0,392.4" fill="#bcbddc" fill-opacity="0.9" stroke="#fff" stroke-width="0.4"><title>complexity_ladder — performMandatoryEarlyInlining</title></polygon>
<polygon points="68.0,392.4 111.3,386.5 154.7,362.8 198.0,362.7 241.3,354.9 284.7,361.0 328.0,369.5 371.3,368.9 414.7,366.4 458.0,368.3 501.3,371.6 544.7,370.3 588.0,367.6 631.3,364.3 674.7,361.8 718.0,361.4 761.3,362.2 804.7,359.2 848.0,250.0 891.3,281.3 934.7,283.2 978.0,266.5 1021.3,342.5 1064.7,333.7 1108.0,357.9 1108.0,358.5 1064.7,334.3 1021.3,343.2 978.0,267.1 934.7,283.8 891.3,281.9 848.0,250.7 804.7,359.8 761.3,362.8 718.0,362.0 674.7,362.4 631.3,364.8 588.0,368.2 544.7,370.9 501.3,372.1 458.0,368.9 414.7,367.0 371.3,369.4 328.0,370.1 284.7,361.6 241.3,355.6 198.0,363.3 154.7,363.5 111.3,387.1 68.0,392.4" fill="#dadaeb" fill-opacity="0.9" stroke="#fff" stroke-width="0.4"><title>complexity_ladder — performForceInlining</title></polygon>
<polygon points="68.0,368.5 111.3,366.2 154.7,339.6 198.0,340.9 241.3,333.3 284.7,339.0 328.0,347.2 371.3,343.5 414.7,341.4 458.0,346.2 501.3,348.1 544.7,348.2 588.0,341.7 631.3,340.3 674.7,337.2 718.0,337.7 761.3,333.9 804.7,333.1 848.0,211.6 891.3,248.2 934.7,249.4 978.0,233.2 1021.3,311.0 1064.7,303.6 1108.0,323.9 1108.0,357.9 1064.7,333.7 1021.3,342.5 978.0,266.5 934.7,283.2 891.3,281.3 848.0,250.0 804.7,359.2 761.3,362.2 718.0,361.4 674.7,361.8 631.3,364.3 588.0,367.6 544.7,370.3 501.3,371.6 458.0,368.3 414.7,366.4 371.3,368.9 328.0,369.5 284.7,361.0 241.3,354.9 198.0,362.7 154.7,362.8 111.3,386.5 68.0,392.4" fill="#4a1486" fill-opacity="0.9" stroke="#fff" stroke-width="0.4"><title>complexity_ladder — linkAndOptimizeIR (self)</title></polygon>
<polygon points="68.0,253.3 111.3,253.6 154.7,207.3 198.0,221.5 241.3,213.1 284.7,248.9 328.0,263.9 371.3,258.9 414.7,259.9 458.0,262.1 501.3,265.9 544.7,265.4 588.0,258.6 631.3,256.1 674.7,252.6 718.0,254.4 761.3,250.4 804.7,240.2 848.0,111.2 891.3,164.2 934.7,166.8 978.0,148.6 1021.3,208.7 1064.7,215.2 1108.0,234.8 1108.0,323.9 1064.7,303.6 1021.3,311.0 978.0,233.2 934.7,249.4 891.3,248.2 848.0,211.6 804.7,333.1 761.3,333.9 718.0,337.7 674.7,337.2 631.3,340.3 588.0,341.7 544.7,348.2 501.3,348.1 458.0,346.2 414.7,341.4 371.3,343.5 328.0,347.2 284.7,339.0 241.3,333.3 198.0,340.9 154.7,339.6 111.3,366.2 68.0,368.5" fill="#e6550d" fill-opacity="0.9" stroke="#fff" stroke-width="0.4"><title>complexity_ladder — generateOutput (self)</title></polygon>
<polygon points="68.0,253.3 111.3,253.5 154.7,201.9 198.0,221.4 241.3,213.1 284.7,248.2 328.0,263.6 371.3,258.9 414.7,259.9 458.0,261.8 501.3,265.7 544.7,264.4 588.0,258.6 631.3,256.1 674.7,252.5 718.0,253.2 761.3,250.2 804.7,239.9 848.0,108.6 891.3,162.4 934.7,163.9 978.0,148.4 1021.3,208.5 1064.7,207.1 1108.0,233.1 1108.0,234.8 1064.7,215.2 1021.3,208.7 978.0,148.6 934.7,166.8 891.3,164.2 848.0,111.2 804.7,240.2 761.3,250.4 718.0,254.4 674.7,252.6 631.3,256.1 588.0,258.6 544.7,265.4 501.3,265.9 458.0,262.1 414.7,259.9 371.3,258.9 328.0,263.9 284.7,248.9 241.3,213.1 198.0,221.5 154.7,207.3 111.3,253.6 68.0,253.3" fill="#969696" fill-opacity="0.9" stroke="#fff" stroke-width="0.4"><title>complexity_ladder — compileInner (self)</title></polygon>
<text x="12" y="578" fill="#666" font-weight="600">phase buckets</text>
<rect x="12" y="586" width="12" height="12" fill="#c7e9c0"/>
<text x="28" y="596" fill="#222">parseTranslationUnit</text>
<rect x="289" y="586" width="12" height="12" fill="#41ab5d"/>
<text x="305" y="596" fill="#222">SemanticChecking</text>
<rect x="566" y="586" width="12" height="12" fill="#006d2c"/>
<text x="582" y="596" fill="#222">generateIR</text>
<rect x="843" y="586" width="12" height="12" fill="#74c476"/>
<text x="859" y="596" fill="#222">frontEndExecute (self)</text>
<rect x="12" y="604" width="12" height="12" fill="#6baed6"/>
<text x="28" y="614" fill="#222">specializeModule</text>
<rect x="289" y="604" width="12" height="12" fill="#2171b5"/>
<text x="305" y="614" fill="#222">simplifyIR</text>
<rect x="566" y="604" width="12" height="12" fill="#08306b"/>
<text x="582" y="614" fill="#222">linkIR</text>
<rect x="843" y="604" width="12" height="12" fill="#9e9ac8"/>
<text x="859" y="614" fill="#222">unrollLoopsInModule</text>
<rect x="12" y="622" width="12" height="12" fill="#807dba"/>
<text x="28" y="632" fill="#222">legalizeResourceTypes</text>
<rect x="289" y="622" width="12" height="12" fill="#6a51a3"/>
<text x="305" y="632" fill="#222">legalizeExistentialTypeLayout</text>
<rect x="566" y="622" width="12" height="12" fill="#bcbddc"/>
<text x="582" y="632" fill="#222">performMandatoryEarlyInlining</text>
<rect x="843" y="622" width="12" height="12" fill="#dadaeb"/>
<text x="859" y="632" fill="#222">performForceInlining</text>
<rect x="12" y="640" width="12" height="12" fill="#4a1486"/>
<text x="28" y="650" fill="#222">linkAndOptimizeIR (self)</text>
<rect x="289" y="640" width="12" height="12" fill="#fd8d3c"/>
<text x="305" y="650" fill="#222">emitEntryPointsSourceFromIR</text>
<rect x="566" y="640" width="12" height="12" fill="#e6550d"/>
<text x="582" y="650" fill="#222">generateOutput (self)</text>
<rect x="843" y="640" width="12" height="12" fill="#969696"/>
<text x="859" y="650" fill="#222">compileInner (self)</text>
</svg>