<svg xmlns="http://www.w3.org/2000/svg" xmlns:xlink="http://www.w3.org/1999/xlink" width="1132" height="680" viewBox="0 0 1132 680" preserveAspectRatio="xMidYMid meet" font-family="sans-serif" font-size="13">
<rect width="1132" height="680" fill="white"/>
<text x="12" y="30" font-size="20" font-weight="bold">conformance — full phase breakdown across releases (median ms)</text>
<text x="68" y="60" font-size="15" font-weight="600" fill="#1a1a1a">conformance<tspan fill="#888" font-weight="400" text-decoration="none">  0.96×</tspan></text>
<line x1="68.0" y1="516.0" x2="1108.0" y2="516.0" stroke="#eee"/>
<text x="64.0" y="519.0" text-anchor="end" fill="#999">0.0</text>
<line x1="68.0" y1="296.0" x2="1108.0" y2="296.0" stroke="#eee"/>
<text x="64.0" y="299.0" text-anchor="end" fill="#999">46</text>
<line x1="68.0" y1="76.0" x2="1108.0" y2="76.0" stroke="#eee"/>
<text x="64.0" y="79.0" text-anchor="end" fill="#999">91</text>
<line x1="68.0" y1="76.0" x2="68.0" y2="516.0" stroke="#333"/>
<line x1="68.0" y1="516.0" x2="1108.0" y2="516.0" stroke="#333"/>
<line x1="1037.1" y1="76.0" x2="1037.1" y2="516.0" stroke="#e8731a" stroke-width="1.2" stroke-dasharray="4 3"/>
<text x="1040.1" y="87.0" fill="#e8731a" font-size="11">daily →</text>
<line x1="68.0" y1="516.0" x2="68.0" y2="519.0" stroke="#999"/>
<text x="68.0" y="531.0" text-anchor="end" fill="#666" transform="rotate(-50 68.0 531.0)">25.14</text>
<line x1="115.3" y1="516.0" x2="115.3" y2="519.0" stroke="#999"/>
<text x="115.3" y="531.0" text-anchor="end" fill="#666" transform="rotate(-50 115.3 531.0)">25.15</text>
<line x1="162.5" y1="516.0" x2="162.5" y2="519.0" stroke="#999"/>
<text x="162.5" y="531.0" text-anchor="end" fill="#666" transform="rotate(-50 162.5 531.0)">25.16</text>
<line x1="209.8" y1="516.0" x2="209.8" y2="519.0" stroke="#999"/>
<text x="209.8" y="531.0" text-anchor="end" fill="#666" transform="rotate(-50 209.8 531.0)">25.17</text>
<line x1="257.1" y1="516.0" x2="257.1" y2="519.0" stroke="#999"/>
<text x="257.1" y="531.0" text-anchor="end" fill="#666" transform="rotate(-50 257.1 531.0)">25.18</text>
<line x1="304.4" y1="516.0" x2="304.4" y2="519.0" stroke="#999"/>
<text x="304.4" y="531.0" text-anchor="end" fill="#666" transform="rotate(-50 304.4 531.0)">25.19</text>
<line x1="351.6" y1="516.0" x2="351.6" y2="519.0" stroke="#999"/>
<text x="351.6" y="531.0" text-anchor="end" fill="#666" transform="rotate(-50 351.6 531.0)">25.20</text>
<line x1="398.9" y1="516.0" x2="398.9" y2="519.0" stroke="#999"/>
<text x="398.9" y="531.0" text-anchor="end" fill="#666" transform="rotate(-50 398.9 531.0)">25.21</text>
<line x1="446.2" y1="516.0" x2="446.2" y2="519.0" stroke="#999"/>
<text x="446.2" y="531.0" text-anchor="end" fill="#666" transform="rotate(-50 446.2 531.0)">25.22</text>
<line x1="493.5" y1="516.0" x2="493.5" y2="519.0" stroke="#999"/>
<text x="493.5" y="531.0" text-anchor="end" fill="#666" transform="rotate(-50 493.5 531.0)">25.23</text>
<line x1="540.7" y1="516.0" x2="540.7" y2="519.0" stroke="#999"/>
<text x="540.7" y="531.0" text-anchor="end" fill="#666" transform="rotate(-50 540.7 531.0)">25.24</text>
<line x1="588.0" y1="516.0" x2="588.0" y2="519.0" stroke="#999"/>
<text x="588.0" y="531.0" text-anchor="end" fill="#666" transform="rotate(-50 588.0 531.0)">26.1</text>
<line x1="635.3" y1="516.0" x2="635.3" y2="519.0" stroke="#999"/>
<text x="635.3" y="531.0" text-anchor="end" fill="#666" transform="rotate(-50 635.3 531.0)">26.2</text>
<line x1="682.5" y1="516.0" x2="682.5" y2="519.0" stroke="#999"/>
<text x="682.5" y="531.0" text-anchor="end" fill="#666" transform="rotate(-50 682.5 531.0)">26.3</text>
<line x1="729.8" y1="516.0" x2="729.8" y2="519.0" stroke="#999"/>
<text x="729.8" y="531.0" text-anchor="end" fill="#666" transform="rotate(-50 729.8 531.0)">26.4</text>
<line x1="777.1" y1="516.0" x2="777.1" y2="519.0" stroke="#999"/>
<text x="777.1" y="531.0" text-anchor="end" fill="#666" transform="rotate(-50 777.1 531.0)">26.5</text>
<line x1="824.4" y1="516.0" x2="824.4" y2="519.0" stroke="#999"/>
<text x="824.4" y="531.0" text-anchor="end" fill="#666" transform="rotate(-50 824.4 531.0)">26.7</text>
<line x1="871.6" y1="516.0" x2="871.6" y2="519.0" stroke="#999"/>
<text x="871.6" y="531.0" text-anchor="end" fill="#666" transform="rotate(-50 871.6 531.0)">26.8</text>
<line x1="918.9" y1="516.0" x2="918.9" y2="519.0" stroke="#999"/>
<text x="918.9" y="531.0" text-anchor="end" fill="#666" transform="rotate(-50 918.9 531.0)">26.9</text>
<line x1="966.2" y1="516.0" x2="966.2" y2="519.0" stroke="#999"/>
<text x="966.2" y="531.0" text-anchor="end" fill="#666" transform="rotate(-50 966.2 531.0)">26.10</text>
<line x1="1013.5" y1="516.0" x2="1013.5" y2="519.0" stroke="#999"/>
<text x="1013.5" y="531.0" text-anchor="end" fill="#666" transform="rotate(-50 1013.5 531.0)">26.11</text>
<line x1="1060.7" y1="516.0" x2="1060.7" y2="519.0" stroke="#999"/>
<text x="1060.7" y="531.0" text-anchor="end" fill="#e8731a" transform="rotate(-50 1060.7 531.0)">06-25</text>
<line x1="1108.0" y1="516.0" x2="1108.0" y2="519.0" stroke="#999"/>
<text x="1108.0" y="531.0" text-anchor="end" fill="#e8731a" transform="rotate(-50 1108.0 531.0)">06-26</text>
<polygon points="68.0,498.3 115.3,499.0 162.5,499.1 209.8,498.7 257.1,498.9 304.4,498.5 351.6,497.9 398.9,498.2 446.2,498.4 493.5,498.7 540.7,496.0 588.0,496.0 635.3,496.7 682.5,496.9 729.8,496.4 777.1,495.9 824.4,493.9 871.6,494.4 918.9,495.1 966.2,495.3 1013.5,495.7 1060.7,493.7 1108.0,493.7 1108.0,516.0 1060.7,516.0 1013.5,516.0 966.2,516.0 918.9,516.0 871.6,516.0 824.4,516.0 777.1,516.0 729.8,516.0 682.5,516.0 635.3,516.0 588.0,516.0 540.7,516.0 493.5,516.0 446.2,516.0 398.9,516.0 351.6,516.0 304.4,516.0 257.1,516.0 209.8,516.0 162.5,516.0 115.3,516.0 68.0,516.0" fill="#c7e9c0" fill-opacity="0.9" stroke="#fff" stroke-width="0.4"><title>conformance — parseTranslationUnit</title></polygon>
<polygon points="68.0,388.3 115.3,345.9 162.5,346.1 209.8,337.9 257.1,339.7 304.4,338.2 351.6,336.4 398.9,339.1 446.2,358.2 493.5,357.8 540.7,354.6 588.0,353.8 635.3,349.3 682.5,349.7 729.8,347.3 777.1,339.0 824.4,307.8 871.6,306.6 918.9,307.3 966.2,305.6 1013.5,425.4 1060.7,418.7 1108.0,419.3 1108.0,493.7 1060.7,493.7 1013.5,495.7 966.2,495.3 918.9,495.1 871.6,494.4 824.4,493.9 777.1,495.9 729.8,496.4 682.5,496.9 635.3,496.7 588.0,496.0 540.7,496.0 493.5,498.7 446.2,498.4 398.9,498.2 351.6,497.9 304.4,498.5 257.1,498.9 209.8,498.7 162.5,499.1 115.3,499.0 68.0,498.3" fill="#41ab5d" fill-opacity="0.9" stroke="#fff" stroke-width="0.4"><title>conformance — SemanticChecking</title></polygon>
<polygon points="68.0,297.9 115.3,254.5 162.5,255.5 209.8,243.7 257.1,245.6 304.4,243.2 351.6,240.2 398.9,243.9 446.2,262.9 493.5,262.8 540.7,260.4 588.0,258.4 635.3,253.6 682.5,254.4 729.8,251.9 777.1,240.1 824.4,201.5 871.6,199.6 918.9,200.0 966.2,198.3 1013.5,327.8 1060.7,314.4 1108.0,315.5 1108.0,419.3 1060.7,418.7 1013.5,425.4 966.2,305.6 918.9,307.3 871.6,306.6 824.4,307.8 777.1,339.0 729.8,347.3 682.5,349.7 635.3,349.3 588.0,353.8 540.7,354.6 493.5,357.8 446.2,358.2 398.9,339.1 351.6,336.4 304.4,338.2 257.1,339.7 209.8,337.9 162.5,346.1 115.3,345.9 68.0,388.3" fill="#006d2c" fill-opacity="0.9" stroke="#fff" stroke-width="0.4"><title>conformance — generateIR</title></polygon>
<polygon points="68.0,297.6 115.3,253.7 162.5,255.5 209.8,243.2 257.1,245.4 304.4,243.2 351.6,239.1 398.9,243.9 446.2,262.9 493.5,262.3 540.7,260.0 588.0,256.3 635.3,253.6 682.5,254.1 729.8,251.4 777.1,238.2 824.4,200.9 871.6,199.1 918.9,199.6 966.2,196.6 1013.5,327.8 1060.7,314.1 1108.0,315.0 1108.0,315.5 1060.7,314.4 1013.5,327.8 966.2,198.3 918.9,200.0 871.6,199.6 824.4,201.5 777.1,240.1 729.8,251.9 682.5,254.4 635.3,253.6 588.0,258.4 540.7,260.4 493.5,262.8 446.2,262.9 398.9,243.9 351.6,240.2 304.4,243.2 257.1,245.6 209.8,243.7 162.5,255.5 115.3,254.5 68.0,297.9" fill="#74c476" fill-opacity="0.9" stroke="#fff" stroke-width="0.4"><title>conformance — frontEndExecute (self)</title></polygon>
<polygon points="68.0,209.9 115.3,167.2 162.5,169.6 209.8,149.7 257.1,148.7 304.4,153.4 351.6,148.8 398.9,153.5 446.2,175.1 493.5,173.6 540.7,171.9 588.0,167.5 635.3,166.8 682.5,166.6 729.8,163.7 777.1,149.5 824.4,111.4 871.6,111.4 918.9,111.5 966.2,108.6 1013.5,243.6 1060.7,218.4 1108.0,219.7 1108.0,315.0 1060.7,314.1 1013.5,327.8 966.2,196.6 918.9,199.6 871.6,199.1 824.4,200.9 777.1,238.2 729.8,251.4 682.5,254.1 635.3,253.6 588.0,256.3 540.7,260.0 493.5,262.3 446.2,262.9 398.9,243.9 351.6,239.1 304.4,243.2 257.1,245.4 209.8,243.2 162.5,255.5 115.3,253.7 68.0,297.6" fill="#e6550d" fill-opacity="0.9" stroke="#fff" stroke-width="0.4"><title>conformance — generateOutput (self)</title></polygon>
<polygon points="68.0,208.0 115.3,167.2 162.5,169.0 209.8,149.7 257.1,148.7 304.4,153.4 351.6,147.2 398.9,153.5 446.2,175.1 493.5,173.3 540.7,171.9 588.0,167.5 635.3,166.8 682.5,166.6 729.8,163.7 777.1,149.5 824.4,110.1 871.6,111.4 918.9,111.2 966.2,108.6 1013.5,243.6 1060.7,218.4 1108.0,219.7 1108.0,219.7 1060.7,218.4 1013.5,243.6 966.2,108.6 918.9,111.5 871.6,111.4 824.4,111.4 777.1,149.5 729.8,163.7 682.5,166.6 635.3,166.8 588.0,167.5 540.7,171.9 493.5,173.6 446.2,175.1 398.9,153.5 351.6,148.8 304.4,153.4 257.1,148.7 209.8,149.7 162.5,169.6 115.3,167.2 68.0,209.9" fill="#969696" fill-opacity="0.9" stroke="#fff" stroke-width="0.4"><title>conformance — compileInner (self)</title></polygon>
<text x="12" y="578" fill="#666" font-weight="600">phase buckets</text>
<rect x="12" y="586" width="12" height="12" fill="#c7e9c0"/>
<text x="28" y="596" fill="#222">parseTranslationUnit</text>
<rect x="289" y="586" width="12" height="12" fill="#41ab5d"/>
<text x="305" y="596" fill="#222">SemanticChecking</text>
<rect x="566" y="586" width="12" height="12" fill="#006d2c"/>
<text x="582" y="596" fill="#222">generateIR</text>
<rect x="843" y="586" width="12" height="12" fill="#74c476"/>
<text x="859" y="596" fill="#222">frontEndExecute (self)</text>
<rect x="12" y="604" width="12" height="12" fill="#6baed6"/>
<text x="28" y="614" fill="#222">specializeModule</text>
<rect x="289" y="604" width="12" height="12" fill="#2171b5"/>
<text x="305" y="614" fill="#222">simplifyIR</text>
<rect x="566" y="604" width="12" height="12" fill="#08306b"/>
<text x="582" y="614" fill="#222">linkIR</text>
<rect x="843" y="604" width="12" height="12" fill="#9e9ac8"/>
<text x="859" y="614" fill="#222">unrollLoopsInModule</text>
<rect x="12" y="622" width="12" height="12" fill="#807dba"/>
<text x="28" y="632" fill="#222">legalizeResourceTypes</text>
<rect x="289" y="622" width="12" height="12" fill="#6a51a3"/>
<text x="305" y="632" fill="#222">legalizeExistentialTypeLayout</text>
<rect x="566" y="622" width="12" height="12" fill="#bcbddc"/>
<text x="582" y="632" fill="#222">performMandatoryEarlyInlining</text>
<rect x="843" y="622" width="12" height="12" fill="#dadaeb"/>
<text x="859" y="632" fill="#222">performForceInlining</text>
<rect x="12" y="640" width="12" height="12" fill="#4a1486"/>
<text x="28" y="650" fill="#222">linkAndOptimizeIR (self)</text>
<rect x="289" y="640" width="12" height="12" fill="#fd8d3c"/>
<text x="305" y="650" fill="#222">emitEntryPointsSourceFromIR</text>
<rect x="566" y="640" width="12" height="12" fill="#e6550d"/>
<text x="582" y="650" fill="#222">generateOutput (self)</text>
<rect x="843" y="640" width="12" height="12" fill="#969696"/>
<text x="859" y="650" fill="#222">compileInner (self)</text>
</svg>