<svg xmlns="http://www.w3.org/2000/svg" xmlns:xlink="http://www.w3.org/1999/xlink" width="1132" height="680" viewBox="0 0 1132 680" preserveAspectRatio="xMidYMid meet" font-family="sans-serif" font-size="13">
<rect width="1132" height="680" fill="white"/>
<text x="12" y="30" font-size="20" font-weight="bold">conformance — full phase breakdown across releases (median ms)</text>
<text x="68" y="60" font-size="15" font-weight="600" fill="#1a1a1a">conformance<tspan fill="#888" font-weight="400" text-decoration="none">  0.94×</tspan></text>
<line x1="68.0" y1="516.0" x2="1108.0" y2="516.0" stroke="#eee"/>
<text x="64.0" y="519.0" text-anchor="end" fill="#999">0.0</text>
<line x1="68.0" y1="296.0" x2="1108.0" y2="296.0" stroke="#eee"/>
<text x="64.0" y="299.0" text-anchor="end" fill="#999">46</text>
<line x1="68.0" y1="76.0" x2="1108.0" y2="76.0" stroke="#eee"/>
<text x="64.0" y="79.0" text-anchor="end" fill="#999">93</text>
<line x1="68.0" y1="76.0" x2="68.0" y2="516.0" stroke="#333"/>
<line x1="68.0" y1="516.0" x2="1108.0" y2="516.0" stroke="#333"/>
<line x1="813.3" y1="76.0" x2="813.3" y2="516.0" stroke="#e8731a" stroke-width="1.2" stroke-dasharray="4 3"/>
<text x="816.3" y="87.0" fill="#e8731a" font-size="11">daily →</text>
<line x1="68.0" y1="516.0" x2="68.0" y2="519.0" stroke="#999"/>
<text x="68.0" y="531.0" text-anchor="end" fill="#666" transform="rotate(-50 68.0 531.0)">25.14</text>
<line x1="102.7" y1="516.0" x2="102.7" y2="519.0" stroke="#999"/>
<text x="102.7" y="531.0" text-anchor="end" fill="#666" transform="rotate(-50 102.7 531.0)">25.15</text>
<line x1="137.3" y1="516.0" x2="137.3" y2="519.0" stroke="#999"/>
<text x="137.3" y="531.0" text-anchor="end" fill="#666" transform="rotate(-50 137.3 531.0)">25.16</text>
<line x1="172.0" y1="516.0" x2="172.0" y2="519.0" stroke="#999"/>
<text x="172.0" y="531.0" text-anchor="end" fill="#666" transform="rotate(-50 172.0 531.0)">25.17</text>
<line x1="206.7" y1="516.0" x2="206.7" y2="519.0" stroke="#999"/>
<text x="206.7" y="531.0" text-anchor="end" fill="#666" transform="rotate(-50 206.7 531.0)">25.18</text>
<line x1="241.3" y1="516.0" x2="241.3" y2="519.0" stroke="#999"/>
<text x="241.3" y="531.0" text-anchor="end" fill="#666" transform="rotate(-50 241.3 531.0)">25.19</text>
<line x1="276.0" y1="516.0" x2="276.0" y2="519.0" stroke="#999"/>
<text x="276.0" y="531.0" text-anchor="end" fill="#666" transform="rotate(-50 276.0 531.0)">25.20</text>
<line x1="310.7" y1="516.0" x2="310.7" y2="519.0" stroke="#999"/>
<text x="310.7" y="531.0" text-anchor="end" fill="#666" transform="rotate(-50 310.7 531.0)">25.21</text>
<line x1="345.3" y1="516.0" x2="345.3" y2="519.0" stroke="#999"/>
<text x="345.3" y="531.0" text-anchor="end" fill="#666" transform="rotate(-50 345.3 531.0)">25.22</text>
<line x1="380.0" y1="516.0" x2="380.0" y2="519.0" stroke="#999"/>
<text x="380.0" y="531.0" text-anchor="end" fill="#666" transform="rotate(-50 380.0 531.0)">25.23</text>
<line x1="414.7" y1="516.0" x2="414.7" y2="519.0" stroke="#999"/>
<text x="414.7" y="531.0" text-anchor="end" fill="#666" transform="rotate(-50 414.7 531.0)">25.24</text>
<line x1="449.3" y1="516.0" x2="449.3" y2="519.0" stroke="#999"/>
<text x="449.3" y="531.0" text-anchor="end" fill="#666" transform="rotate(-50 449.3 531.0)">26.1</text>
<line x1="484.0" y1="516.0" x2="484.0" y2="519.0" stroke="#999"/>
<text x="484.0" y="531.0" text-anchor="end" fill="#666" transform="rotate(-50 484.0 531.0)">26.2</text>
<line x1="518.7" y1="516.0" x2="518.7" y2="519.0" stroke="#999"/>
<text x="518.7" y="531.0" text-anchor="end" fill="#666" transform="rotate(-50 518.7 531.0)">26.3</text>
<line x1="553.3" y1="516.0" x2="553.3" y2="519.0" stroke="#999"/>
<text x="553.3" y="531.0" text-anchor="end" fill="#666" transform="rotate(-50 553.3 531.0)">26.4</text>
<line x1="588.0" y1="516.0" x2="588.0" y2="519.0" stroke="#999"/>
<text x="588.0" y="531.0" text-anchor="end" fill="#666" transform="rotate(-50 588.0 531.0)">26.5</text>
<line x1="622.7" y1="516.0" x2="622.7" y2="519.0" stroke="#999"/>
<text x="622.7" y="531.0" text-anchor="end" fill="#666" transform="rotate(-50 622.7 531.0)">26.7</text>
<line x1="657.3" y1="516.0" x2="657.3" y2="519.0" stroke="#999"/>
<text x="657.3" y="531.0" text-anchor="end" fill="#666" transform="rotate(-50 657.3 531.0)">26.8</text>
<line x1="692.0" y1="516.0" x2="692.0" y2="519.0" stroke="#999"/>
<text x="692.0" y="531.0" text-anchor="end" fill="#666" transform="rotate(-50 692.0 531.0)">26.9</text>
<line x1="726.7" y1="516.0" x2="726.7" y2="519.0" stroke="#999"/>
<text x="726.7" y="531.0" text-anchor="end" fill="#666" transform="rotate(-50 726.7 531.0)">26.10</text>
<line x1="761.3" y1="516.0" x2="761.3" y2="519.0" stroke="#999"/>
<text x="761.3" y="531.0" text-anchor="end" fill="#666" transform="rotate(-50 761.3 531.0)">26.11</text>
<line x1="796.0" y1="516.0" x2="796.0" y2="519.0" stroke="#999"/>
<text x="796.0" y="531.0" text-anchor="end" fill="#666" transform="rotate(-50 796.0 531.0)">26.12</text>
<line x1="830.7" y1="516.0" x2="830.7" y2="519.0" stroke="#999"/>
<text x="830.7" y="531.0" text-anchor="end" fill="#e8731a" transform="rotate(-50 830.7 531.0)">06-25</text>
<line x1="865.3" y1="516.0" x2="865.3" y2="519.0" stroke="#999"/>
<text x="865.3" y="531.0" text-anchor="end" fill="#e8731a" transform="rotate(-50 865.3 531.0)">06-26</text>
<line x1="900.0" y1="516.0" x2="900.0" y2="519.0" stroke="#999"/>
<text x="900.0" y="531.0" text-anchor="end" fill="#e8731a" transform="rotate(-50 900.0 531.0)">06-28</text>
<line x1="934.7" y1="516.0" x2="934.7" y2="519.0" stroke="#999"/>
<text x="934.7" y="531.0" text-anchor="end" fill="#e8731a" transform="rotate(-50 934.7 531.0)">07-01</text>
<line x1="969.3" y1="516.0" x2="969.3" y2="519.0" stroke="#999"/>
<text x="969.3" y="531.0" text-anchor="end" fill="#e8731a" transform="rotate(-50 969.3 531.0)">07-02</text>
<line x1="1004.0" y1="516.0" x2="1004.0" y2="519.0" stroke="#999"/>
<text x="1004.0" y="531.0" text-anchor="end" fill="#e8731a" transform="rotate(-50 1004.0 531.0)">07-03</text>
<line x1="1038.7" y1="516.0" x2="1038.7" y2="519.0" stroke="#999"/>
<text x="1038.7" y="531.0" text-anchor="end" fill="#e8731a" transform="rotate(-50 1038.7 531.0)">07-03</text>
<line x1="1073.3" y1="516.0" x2="1073.3" y2="519.0" stroke="#999"/>
<text x="1073.3" y="531.0" text-anchor="end" fill="#e8731a" transform="rotate(-50 1073.3 531.0)">07-03</text>
<line x1="1108.0" y1="516.0" x2="1108.0" y2="519.0" stroke="#999"/>
<text x="1108.0" y="531.0" text-anchor="end" fill="#e8731a" transform="rotate(-50 1108.0 531.0)">07-07</text>
<polygon points="68.0,498.3 102.7,498.7 137.3,498.7 172.0,498.5 206.7,497.9 241.3,497.7 276.0,497.3 310.7,496.3 345.3,495.6 380.0,497.9 414.7,495.8 449.3,496.7 484.0,496.4 518.7,496.4 553.3,496.5 588.0,495.9 622.7,495.6 657.3,495.1 692.0,495.7 726.7,495.3 761.3,495.7 796.0,495.5 830.7,491.4 865.3,493.0 900.0,492.6 934.7,493.3 969.3,493.0 1004.0,493.3 1038.7,492.0 1073.3,493.3 1108.0,493.0 1108.0,516.0 1073.3,516.0 1038.7,516.0 1004.0,516.0 969.3,516.0 934.7,516.0 900.0,516.0 865.3,516.0 830.7,516.0 796.0,516.0 761.3,516.0 726.7,516.0 692.0,516.0 657.3,516.0 622.7,516.0 588.0,516.0 553.3,516.0 518.7,516.0 484.0,516.0 449.3,516.0 414.7,516.0 380.0,516.0 345.3,516.0 310.7,516.0 276.0,516.0 241.3,516.0 206.7,516.0 172.0,516.0 137.3,516.0 102.7,516.0 68.0,516.0" fill="#c7e9c0" fill-opacity="0.9" stroke="#fff" stroke-width="0.4"><title>conformance — parseTranslationUnit</title></polygon>
<polygon points="68.0,386.5 102.7,345.3 137.3,341.6 172.0,340.6 206.7,335.4 241.3,333.1 276.0,330.3 310.7,315.0 345.3,341.8 380.0,343.6 414.7,341.3 449.3,352.9 484.0,351.5 518.7,351.1 553.3,352.0 588.0,350.4 622.7,309.6 657.3,308.4 692.0,311.9 726.7,307.9 761.3,428.4 796.0,426.3 830.7,418.4 865.3,420.7 900.0,419.8 934.7,418.2 969.3,418.5 1004.0,420.5 1038.7,416.5 1073.3,421.0 1108.0,420.9 1108.0,493.0 1073.3,493.3 1038.7,492.0 1004.0,493.3 969.3,493.0 934.7,493.3 900.0,492.6 865.3,493.0 830.7,491.4 796.0,495.5 761.3,495.7 726.7,495.3 692.0,495.7 657.3,495.1 622.7,495.6 588.0,495.9 553.3,496.5 518.7,496.4 484.0,496.4 449.3,496.7 414.7,495.8 380.0,497.9 345.3,495.6 310.7,496.3 276.0,497.3 241.3,497.7 206.7,497.9 172.0,498.5 137.3,498.7 102.7,498.7 68.0,498.3" fill="#41ab5d" fill-opacity="0.9" stroke="#fff" stroke-width="0.4"><title>conformance — SemanticChecking</title></polygon>
<polygon points="68.0,292.5 102.7,250.2 137.3,244.7 172.0,246.6 206.7,238.0 241.3,233.4 276.0,230.2 310.7,212.7 345.3,236.6 380.0,244.0 414.7,244.6 449.3,254.9 484.0,257.0 518.7,255.1 553.3,257.7 588.0,256.1 622.7,204.6 657.3,201.5 692.0,205.2 726.7,199.6 761.3,332.0 796.0,328.0 830.7,312.3 865.3,315.2 900.0,312.7 934.7,309.8 969.3,312.1 1004.0,314.3 1038.7,306.5 1073.3,314.6 1108.0,316.5 1108.0,420.9 1073.3,421.0 1038.7,416.5 1004.0,420.5 969.3,418.5 934.7,418.2 900.0,419.8 865.3,420.7 830.7,418.4 796.0,426.3 761.3,428.4 726.7,307.9 692.0,311.9 657.3,308.4 622.7,309.6 588.0,350.4 553.3,352.0 518.7,351.1 484.0,351.5 449.3,352.9 414.7,341.3 380.0,343.6 345.3,341.8 310.7,315.0 276.0,330.3 241.3,333.1 206.7,335.4 172.0,340.6 137.3,341.6 102.7,345.3 68.0,386.5" fill="#006d2c" fill-opacity="0.9" stroke="#fff" stroke-width="0.4"><title>conformance — generateIR</title></polygon>
<polygon points="68.0,291.9 102.7,248.5 137.3,243.2 172.0,244.2 206.7,237.8 241.3,230.9 276.0,229.3 310.7,208.5 345.3,236.6 380.0,241.1 414.7,241.2 449.3,251.6 484.0,257.0 518.7,251.6 553.3,256.9 588.0,256.1 622.7,202.7 657.3,201.5 692.0,204.9 726.7,198.4 761.3,330.4 796.0,327.3 830.7,311.2 865.3,313.2 900.0,310.9 934.7,309.4 969.3,310.6 1004.0,314.3 1038.7,306.0 1073.3,313.9 1108.0,316.0 1108.0,316.5 1073.3,314.6 1038.7,306.5 1004.0,314.3 969.3,312.1 934.7,309.8 900.0,312.7 865.3,315.2 830.7,312.3 796.0,328.0 761.3,332.0 726.7,199.6 692.0,205.2 657.3,201.5 622.7,204.6 588.0,256.1 553.3,257.7 518.7,255.1 484.0,257.0 449.3,254.9 414.7,244.6 380.0,244.0 345.3,236.6 310.7,212.7 276.0,230.2 241.3,233.4 206.7,238.0 172.0,246.6 137.3,244.7 102.7,250.2 68.0,292.5" fill="#74c476" fill-opacity="0.9" stroke="#fff" stroke-width="0.4"><title>conformance — frontEndExecute (self)</title></polygon>
<polygon points="68.0,202.2 102.7,162.1 137.3,157.4 172.0,154.6 206.7,138.3 241.3,139.7 276.0,136.1 310.7,114.2 345.3,142.5 380.0,150.8 414.7,154.8 449.3,163.9 484.0,173.9 518.7,167.9 553.3,173.8 588.0,173.4 622.7,119.0 657.3,116.1 692.0,121.5 726.7,113.8 761.3,250.2 796.0,248.4 830.7,216.3 865.3,218.8 900.0,212.5 934.7,215.6 969.3,215.1 1004.0,220.7 1038.7,212.3 1073.3,223.3 1108.0,219.9 1108.0,316.0 1073.3,313.9 1038.7,306.0 1004.0,314.3 969.3,310.6 934.7,309.4 900.0,310.9 865.3,313.2 830.7,311.2 796.0,327.3 761.3,330.4 726.7,198.4 692.0,204.9 657.3,201.5 622.7,202.7 588.0,256.1 553.3,256.9 518.7,251.6 484.0,257.0 449.3,251.6 414.7,241.2 380.0,241.1 345.3,236.6 310.7,208.5 276.0,229.3 241.3,230.9 206.7,237.8 172.0,244.2 137.3,243.2 102.7,248.5 68.0,291.9" fill="#e6550d" fill-opacity="0.9" stroke="#fff" stroke-width="0.4"><title>conformance — generateOutput (self)</title></polygon>
<polygon points="68.0,201.1 102.7,156.2 137.3,157.4 172.0,152.5 206.7,138.3 241.3,137.5 276.0,136.1 310.7,113.5 345.3,137.8 380.0,149.5 414.7,154.8 449.3,163.9 484.0,173.9 518.7,166.5 553.3,173.4 588.0,173.4 622.7,116.8 657.3,108.6 692.0,119.1 726.7,112.2 761.3,250.2 796.0,247.4 830.7,216.3 865.3,218.8 900.0,212.5 934.7,214.8 969.3,215.1 1004.0,220.7 1038.7,211.1 1073.3,223.3 1108.0,219.9 1108.0,219.9 1073.3,223.3 1038.7,212.3 1004.0,220.7 969.3,215.1 934.7,215.6 900.0,212.5 865.3,218.8 830.7,216.3 796.0,248.4 761.3,250.2 726.7,113.8 692.0,121.5 657.3,116.1 622.7,119.0 588.0,173.4 553.3,173.8 518.7,167.9 484.0,173.9 449.3,163.9 414.7,154.8 380.0,150.8 345.3,142.5 310.7,114.2 276.0,136.1 241.3,139.7 206.7,138.3 172.0,154.6 137.3,157.4 102.7,162.1 68.0,202.2" fill="#969696" fill-opacity="0.9" stroke="#fff" stroke-width="0.4"><title>conformance — compileInner (self)</title></polygon>
<text x="12" y="578" fill="#666" font-weight="600">phase buckets</text>
<rect x="12" y="586" width="12" height="12" fill="#c7e9c0"/>
<text x="28" y="596" fill="#222">parseTranslationUnit</text>
<rect x="289" y="586" width="12" height="12" fill="#41ab5d"/>
<text x="305" y="596" fill="#222">SemanticChecking</text>
<rect x="566" y="586" width="12" height="12" fill="#006d2c"/>
<text x="582" y="596" fill="#222">generateIR</text>
<rect x="843" y="586" width="12" height="12" fill="#74c476"/>
<text x="859" y="596" fill="#222">frontEndExecute (self)</text>
<rect x="12" y="604" width="12" height="12" fill="#6baed6"/>
<text x="28" y="614" fill="#222">specializeModule</text>
<rect x="289" y="604" width="12" height="12" fill="#2171b5"/>
<text x="305" y="614" fill="#222">simplifyIR</text>
<rect x="566" y="604" width="12" height="12" fill="#08306b"/>
<text x="582" y="614" fill="#222">linkIR</text>
<rect x="843" y="604" width="12" height="12" fill="#9e9ac8"/>
<text x="859" y="614" fill="#222">unrollLoopsInModule</text>
<rect x="12" y="622" width="12" height="12" fill="#807dba"/>
<text x="28" y="632" fill="#222">legalizeResourceTypes</text>
<rect x="289" y="622" width="12" height="12" fill="#6a51a3"/>
<text x="305" y="632" fill="#222">legalizeExistentialTypeLayout</text>
<rect x="566" y="622" width="12" height="12" fill="#bcbddc"/>
<text x="582" y="632" fill="#222">performMandatoryEarlyInlining</text>
<rect x="843" y="622" width="12" height="12" fill="#dadaeb"/>
<text x="859" y="632" fill="#222">performForceInlining</text>
<rect x="12" y="640" width="12" height="12" fill="#4a1486"/>
<text x="28" y="650" fill="#222">linkAndOptimizeIR (self)</text>
<rect x="289" y="640" width="12" height="12" fill="#fd8d3c"/>
<text x="305" y="650" fill="#222">emitEntryPointsSourceFromIR</text>
<rect x="566" y="640" width="12" height="12" fill="#e6550d"/>
<text x="582" y="650" fill="#222">generateOutput (self)</text>
<rect x="843" y="640" width="12" height="12" fill="#969696"/>
<text x="859" y="650" fill="#222">compileInner (self)</text>
</svg>