<svg xmlns="http://www.w3.org/2000/svg" xmlns:xlink="http://www.w3.org/1999/xlink" width="1132" height="680" viewBox="0 0 1132 680" preserveAspectRatio="xMidYMid meet" font-family="sans-serif" font-size="13">
<rect width="1132" height="680" fill="white"/>
<text x="12" y="30" font-size="20" font-weight="bold">conformance — Daily tip-of-tree (last 30 days) (median ms)</text>
<text x="68" y="60" font-size="15" font-weight="600" fill="#1a1a1a">conformance<tspan fill="#888" font-weight="400" text-decoration="none">  0.91×</tspan></text>
<line x1="68.0" y1="516.0" x2="1108.0" y2="516.0" stroke="#eee"/>
<text x="64.0" y="519.0" text-anchor="end" fill="#999">0.0</text>
<line x1="68.0" y1="296.0" x2="1108.0" y2="296.0" stroke="#eee"/>
<text x="64.0" y="299.0" text-anchor="end" fill="#999">35</text>
<line x1="68.0" y1="76.0" x2="1108.0" y2="76.0" stroke="#eee"/>
<text x="64.0" y="79.0" text-anchor="end" fill="#999">70</text>
<line x1="68.0" y1="76.0" x2="68.0" y2="516.0" stroke="#333"/>
<line x1="68.0" y1="516.0" x2="1108.0" y2="516.0" stroke="#333"/>
<line x1="68.0" y1="516.0" x2="68.0" y2="519.0" stroke="#999"/>
<text x="68.0" y="531.0" text-anchor="end" fill="#e8731a" transform="rotate(-50 68.0 531.0)">06-25</text>
<line x1="142.3" y1="516.0" x2="142.3" y2="519.0" stroke="#999"/>
<text x="142.3" y="531.0" text-anchor="end" fill="#e8731a" transform="rotate(-50 142.3 531.0)">06-26</text>
<line x1="216.6" y1="516.0" x2="216.6" y2="519.0" stroke="#999"/>
<text x="216.6" y="531.0" text-anchor="end" fill="#e8731a" transform="rotate(-50 216.6 531.0)">06-28</text>
<line x1="290.9" y1="516.0" x2="290.9" y2="519.0" stroke="#999"/>
<text x="290.9" y="531.0" text-anchor="end" fill="#e8731a" transform="rotate(-50 290.9 531.0)">07-01</text>
<line x1="365.1" y1="516.0" x2="365.1" y2="519.0" stroke="#999"/>
<text x="365.1" y="531.0" text-anchor="end" fill="#e8731a" transform="rotate(-50 365.1 531.0)">07-02</text>
<line x1="439.4" y1="516.0" x2="439.4" y2="519.0" stroke="#999"/>
<text x="439.4" y="531.0" text-anchor="end" fill="#e8731a" transform="rotate(-50 439.4 531.0)">07-03</text>
<line x1="513.7" y1="516.0" x2="513.7" y2="519.0" stroke="#999"/>
<text x="513.7" y="531.0" text-anchor="end" fill="#e8731a" transform="rotate(-50 513.7 531.0)">07-06</text>
<line x1="588.0" y1="516.0" x2="588.0" y2="519.0" stroke="#999"/>
<text x="588.0" y="531.0" text-anchor="end" fill="#e8731a" transform="rotate(-50 588.0 531.0)">07-07</text>
<line x1="662.3" y1="516.0" x2="662.3" y2="519.0" stroke="#999"/>
<text x="662.3" y="531.0" text-anchor="end" fill="#e8731a" transform="rotate(-50 662.3 531.0)">07-08</text>
<line x1="736.6" y1="516.0" x2="736.6" y2="519.0" stroke="#999"/>
<text x="736.6" y="531.0" text-anchor="end" fill="#e8731a" transform="rotate(-50 736.6 531.0)">07-09</text>
<line x1="810.9" y1="516.0" x2="810.9" y2="519.0" stroke="#999"/>
<text x="810.9" y="531.0" text-anchor="end" fill="#e8731a" transform="rotate(-50 810.9 531.0)">07-10</text>
<line x1="885.1" y1="516.0" x2="885.1" y2="519.0" stroke="#999"/>
<text x="885.1" y="531.0" text-anchor="end" fill="#e8731a" transform="rotate(-50 885.1 531.0)">07-11</text>
<line x1="959.4" y1="516.0" x2="959.4" y2="519.0" stroke="#999"/>
<text x="959.4" y="531.0" text-anchor="end" fill="#e8731a" transform="rotate(-50 959.4 531.0)">07-14</text>
<line x1="1033.7" y1="516.0" x2="1033.7" y2="519.0" stroke="#999"/>
<text x="1033.7" y="531.0" text-anchor="end" fill="#e8731a" transform="rotate(-50 1033.7 531.0)">07-15</text>
<line x1="1108.0" y1="516.0" x2="1108.0" y2="519.0" stroke="#999"/>
<text x="1108.0" y="531.0" text-anchor="end" fill="#e8731a" transform="rotate(-50 1108.0 531.0)">07-15</text>
<polygon points="68.0,484.3 142.3,485.5 216.6,485.7 290.9,485.5 365.1,485.3 439.4,484.9 513.7,485.0 588.0,486.7 662.3,485.8 736.6,486.3 810.9,485.5 885.1,487.0 959.4,486.6 1033.7,488.6 1108.0,487.9 1108.0,516.0 1033.7,516.0 959.4,516.0 885.1,516.0 810.9,516.0 736.6,516.0 662.3,516.0 588.0,516.0 513.7,516.0 439.4,516.0 365.1,516.0 290.9,516.0 216.6,516.0 142.3,516.0 68.0,516.0" fill="#c7e9c0" fill-opacity="0.9" stroke="#fff" stroke-width="0.4"><title>conformance — parseTranslationUnit</title></polygon>
<polygon points="68.0,385.9 142.3,389.4 216.6,387.3 290.9,387.1 365.1,386.5 439.4,386.6 513.7,387.6 588.0,387.6 662.3,386.7 736.6,387.2 810.9,386.9 885.1,401.8 959.4,403.4 1033.7,416.9 1108.0,415.3 1108.0,487.9 1033.7,488.6 959.4,486.6 885.1,487.0 810.9,485.5 736.6,486.3 662.3,485.8 588.0,486.7 513.7,485.0 439.4,484.9 365.1,485.3 290.9,485.5 216.6,485.7 142.3,485.5 68.0,484.3" fill="#41ab5d" fill-opacity="0.9" stroke="#fff" stroke-width="0.4"><title>conformance — SemanticChecking</title></polygon>
<polygon points="68.0,243.5 142.3,247.3 216.6,243.8 290.9,244.1 365.1,242.3 439.4,243.7 513.7,245.9 588.0,243.8 662.3,243.0 736.6,241.2 810.9,241.1 885.1,254.1 959.4,257.7 1033.7,277.3 1108.0,276.6 1108.0,415.3 1033.7,416.9 959.4,403.4 885.1,401.8 810.9,386.9 736.6,387.2 662.3,386.7 588.0,387.6 513.7,387.6 439.4,386.6 365.1,386.5 290.9,387.1 216.6,387.3 142.3,389.4 68.0,385.9" fill="#006d2c" fill-opacity="0.9" stroke="#fff" stroke-width="0.4"><title>conformance — generateIR</title></polygon>
<polygon points="68.0,240.7 142.3,247.3 216.6,243.8 290.9,244.1 365.1,240.2 439.4,242.5 513.7,244.1 588.0,242.6 662.3,241.8 736.6,241.2 810.9,240.7 885.1,252.8 959.4,256.8 1033.7,277.3 1108.0,275.4 1108.0,276.6 1033.7,277.3 959.4,257.7 885.1,254.1 810.9,241.1 736.6,241.2 662.3,243.0 588.0,243.8 513.7,245.9 439.4,243.7 365.1,242.3 290.9,244.1 216.6,243.8 142.3,247.3 68.0,243.5" fill="#74c476" fill-opacity="0.9" stroke="#fff" stroke-width="0.4"><title>conformance — frontEndExecute (self)</title></polygon>
<polygon points="68.0,116.7 142.3,123.2 216.6,112.6 290.9,121.7 365.1,110.9 439.4,119.0 513.7,122.2 588.0,118.1 662.3,111.2 736.6,118.1 810.9,117.5 885.1,122.9 959.4,128.6 1033.7,150.6 1108.0,152.0 1108.0,275.4 1033.7,277.3 959.4,256.8 885.1,252.8 810.9,240.7 736.6,241.2 662.3,241.8 588.0,242.6 513.7,244.1 439.4,242.5 365.1,240.2 290.9,244.1 216.6,243.8 142.3,247.3 68.0,240.7" fill="#e6550d" fill-opacity="0.9" stroke="#fff" stroke-width="0.4"><title>conformance — generateOutput (self)</title></polygon>
<polygon points="68.0,116.2 142.3,121.8 216.6,112.6 290.9,121.7 365.1,108.6 439.4,119.0 513.7,119.3 588.0,118.1 662.3,110.5 736.6,118.1 810.9,116.3 885.1,122.4 959.4,128.6 1033.7,148.7 1108.0,152.0 1108.0,152.0 1033.7,150.6 959.4,128.6 885.1,122.9 810.9,117.5 736.6,118.1 662.3,111.2 588.0,118.1 513.7,122.2 439.4,119.0 365.1,110.9 290.9,121.7 216.6,112.6 142.3,123.2 68.0,116.7" fill="#969696" fill-opacity="0.9" stroke="#fff" stroke-width="0.4"><title>conformance — compileInner (self)</title></polygon>
<text x="12" y="578" fill="#666" font-weight="600">phase buckets</text>
<rect x="12" y="586" width="12" height="12" fill="#c7e9c0"/>
<text x="28" y="596" fill="#222">parseTranslationUnit</text>
<rect x="289" y="586" width="12" height="12" fill="#41ab5d"/>
<text x="305" y="596" fill="#222">SemanticChecking</text>
<rect x="566" y="586" width="12" height="12" fill="#006d2c"/>
<text x="582" y="596" fill="#222">generateIR</text>
<rect x="843" y="586" width="12" height="12" fill="#74c476"/>
<text x="859" y="596" fill="#222">frontEndExecute (self)</text>
<rect x="12" y="604" width="12" height="12" fill="#6baed6"/>
<text x="28" y="614" fill="#222">specializeModule</text>
<rect x="289" y="604" width="12" height="12" fill="#2171b5"/>
<text x="305" y="614" fill="#222">simplifyIR</text>
<rect x="566" y="604" width="12" height="12" fill="#08306b"/>
<text x="582" y="614" fill="#222">linkIR</text>
<rect x="843" y="604" width="12" height="12" fill="#9e9ac8"/>
<text x="859" y="614" fill="#222">unrollLoopsInModule</text>
<rect x="12" y="622" width="12" height="12" fill="#807dba"/>
<text x="28" y="632" fill="#222">legalizeResourceTypes</text>
<rect x="289" y="622" width="12" height="12" fill="#6a51a3"/>
<text x="305" y="632" fill="#222">legalizeExistentialTypeLayout</text>
<rect x="566" y="622" width="12" height="12" fill="#bcbddc"/>
<text x="582" y="632" fill="#222">performMandatoryEarlyInlining</text>
<rect x="843" y="622" width="12" height="12" fill="#dadaeb"/>
<text x="859" y="632" fill="#222">performForceInlining</text>
<rect x="12" y="640" width="12" height="12" fill="#4a1486"/>
<text x="28" y="650" fill="#222">linkAndOptimizeIR (self)</text>
<rect x="289" y="640" width="12" height="12" fill="#fd8d3c"/>
<text x="305" y="650" fill="#222">emitEntryPointsSourceFromIR</text>
<rect x="566" y="640" width="12" height="12" fill="#e6550d"/>
<text x="582" y="650" fill="#222">generateOutput (self)</text>
<rect x="843" y="640" width="12" height="12" fill="#969696"/>
<text x="859" y="650" fill="#222">compileInner (self)</text>
</svg>