<svg xmlns="http://www.w3.org/2000/svg" xmlns:xlink="http://www.w3.org/1999/xlink" width="1132" height="680" viewBox="0 0 1132 680" preserveAspectRatio="xMidYMid meet" font-family="sans-serif" font-size="13">
<rect width="1132" height="680" fill="white"/>
<text x="12" y="30" font-size="20" font-weight="bold">conformance — full phase breakdown across releases (median ms)</text>
<text x="68" y="60" font-size="15" font-weight="600" fill="#1a1a1a">conformance<tspan fill="#888" font-weight="400" text-decoration="none">  0.93×</tspan></text>
<line x1="68.0" y1="516.0" x2="1108.0" y2="516.0" stroke="#eee"/>
<text x="64.0" y="519.0" text-anchor="end" fill="#999">0.0</text>
<line x1="68.0" y1="296.0" x2="1108.0" y2="296.0" stroke="#eee"/>
<text x="64.0" y="299.0" text-anchor="end" fill="#999">46</text>
<line x1="68.0" y1="76.0" x2="1108.0" y2="76.0" stroke="#eee"/>
<text x="64.0" y="79.0" text-anchor="end" fill="#999">93</text>
<line x1="68.0" y1="76.0" x2="68.0" y2="516.0" stroke="#333"/>
<line x1="68.0" y1="516.0" x2="1108.0" y2="516.0" stroke="#333"/>
<line x1="839.0" y1="76.0" x2="839.0" y2="516.0" stroke="#e8731a" stroke-width="1.2" stroke-dasharray="4 3"/>
<text x="842.0" y="87.0" fill="#e8731a" font-size="11">daily →</text>
<line x1="68.0" y1="516.0" x2="68.0" y2="519.0" stroke="#999"/>
<text x="68.0" y="531.0" text-anchor="end" fill="#666" transform="rotate(-50 68.0 531.0)">25.14</text>
<line x1="103.9" y1="516.0" x2="103.9" y2="519.0" stroke="#999"/>
<text x="103.9" y="531.0" text-anchor="end" fill="#666" transform="rotate(-50 103.9 531.0)">25.15</text>
<line x1="139.7" y1="516.0" x2="139.7" y2="519.0" stroke="#999"/>
<text x="139.7" y="531.0" text-anchor="end" fill="#666" transform="rotate(-50 139.7 531.0)">25.16</text>
<line x1="175.6" y1="516.0" x2="175.6" y2="519.0" stroke="#999"/>
<text x="175.6" y="531.0" text-anchor="end" fill="#666" transform="rotate(-50 175.6 531.0)">25.17</text>
<line x1="211.4" y1="516.0" x2="211.4" y2="519.0" stroke="#999"/>
<text x="211.4" y="531.0" text-anchor="end" fill="#666" transform="rotate(-50 211.4 531.0)">25.18</text>
<line x1="247.3" y1="516.0" x2="247.3" y2="519.0" stroke="#999"/>
<text x="247.3" y="531.0" text-anchor="end" fill="#666" transform="rotate(-50 247.3 531.0)">25.19</text>
<line x1="283.2" y1="516.0" x2="283.2" y2="519.0" stroke="#999"/>
<text x="283.2" y="531.0" text-anchor="end" fill="#666" transform="rotate(-50 283.2 531.0)">25.20</text>
<line x1="319.0" y1="516.0" x2="319.0" y2="519.0" stroke="#999"/>
<text x="319.0" y="531.0" text-anchor="end" fill="#666" transform="rotate(-50 319.0 531.0)">25.21</text>
<line x1="354.9" y1="516.0" x2="354.9" y2="519.0" stroke="#999"/>
<text x="354.9" y="531.0" text-anchor="end" fill="#666" transform="rotate(-50 354.9 531.0)">25.22</text>
<line x1="390.8" y1="516.0" x2="390.8" y2="519.0" stroke="#999"/>
<text x="390.8" y="531.0" text-anchor="end" fill="#666" transform="rotate(-50 390.8 531.0)">25.23</text>
<line x1="426.6" y1="516.0" x2="426.6" y2="519.0" stroke="#999"/>
<text x="426.6" y="531.0" text-anchor="end" fill="#666" transform="rotate(-50 426.6 531.0)">25.24</text>
<line x1="462.5" y1="516.0" x2="462.5" y2="519.0" stroke="#999"/>
<text x="462.5" y="531.0" text-anchor="end" fill="#666" transform="rotate(-50 462.5 531.0)">26.1</text>
<line x1="498.3" y1="516.0" x2="498.3" y2="519.0" stroke="#999"/>
<text x="498.3" y="531.0" text-anchor="end" fill="#666" transform="rotate(-50 498.3 531.0)">26.2</text>
<line x1="534.2" y1="516.0" x2="534.2" y2="519.0" stroke="#999"/>
<text x="534.2" y="531.0" text-anchor="end" fill="#666" transform="rotate(-50 534.2 531.0)">26.3</text>
<line x1="570.1" y1="516.0" x2="570.1" y2="519.0" stroke="#999"/>
<text x="570.1" y="531.0" text-anchor="end" fill="#666" transform="rotate(-50 570.1 531.0)">26.4</text>
<line x1="605.9" y1="516.0" x2="605.9" y2="519.0" stroke="#999"/>
<text x="605.9" y="531.0" text-anchor="end" fill="#666" transform="rotate(-50 605.9 531.0)">26.5</text>
<line x1="641.8" y1="516.0" x2="641.8" y2="519.0" stroke="#999"/>
<text x="641.8" y="531.0" text-anchor="end" fill="#666" transform="rotate(-50 641.8 531.0)">26.7</text>
<line x1="677.7" y1="516.0" x2="677.7" y2="519.0" stroke="#999"/>
<text x="677.7" y="531.0" text-anchor="end" fill="#666" transform="rotate(-50 677.7 531.0)">26.8</text>
<line x1="713.5" y1="516.0" x2="713.5" y2="519.0" stroke="#999"/>
<text x="713.5" y="531.0" text-anchor="end" fill="#666" transform="rotate(-50 713.5 531.0)">26.9</text>
<line x1="749.4" y1="516.0" x2="749.4" y2="519.0" stroke="#999"/>
<text x="749.4" y="531.0" text-anchor="end" fill="#666" transform="rotate(-50 749.4 531.0)">26.10</text>
<line x1="785.2" y1="516.0" x2="785.2" y2="519.0" stroke="#999"/>
<text x="785.2" y="531.0" text-anchor="end" fill="#666" transform="rotate(-50 785.2 531.0)">26.11</text>
<line x1="821.1" y1="516.0" x2="821.1" y2="519.0" stroke="#999"/>
<text x="821.1" y="531.0" text-anchor="end" fill="#666" transform="rotate(-50 821.1 531.0)">26.12</text>
<line x1="857.0" y1="516.0" x2="857.0" y2="519.0" stroke="#999"/>
<text x="857.0" y="531.0" text-anchor="end" fill="#e8731a" transform="rotate(-50 857.0 531.0)">06-25</text>
<line x1="892.8" y1="516.0" x2="892.8" y2="519.0" stroke="#999"/>
<text x="892.8" y="531.0" text-anchor="end" fill="#e8731a" transform="rotate(-50 892.8 531.0)">06-26</text>
<line x1="928.7" y1="516.0" x2="928.7" y2="519.0" stroke="#999"/>
<text x="928.7" y="531.0" text-anchor="end" fill="#e8731a" transform="rotate(-50 928.7 531.0)">06-28</text>
<line x1="964.6" y1="516.0" x2="964.6" y2="519.0" stroke="#999"/>
<text x="964.6" y="531.0" text-anchor="end" fill="#e8731a" transform="rotate(-50 964.6 531.0)">07-01</text>
<line x1="1000.4" y1="516.0" x2="1000.4" y2="519.0" stroke="#999"/>
<text x="1000.4" y="531.0" text-anchor="end" fill="#e8731a" transform="rotate(-50 1000.4 531.0)">07-02</text>
<line x1="1036.3" y1="516.0" x2="1036.3" y2="519.0" stroke="#999"/>
<text x="1036.3" y="531.0" text-anchor="end" fill="#e8731a" transform="rotate(-50 1036.3 531.0)">07-03</text>
<line x1="1072.1" y1="516.0" x2="1072.1" y2="519.0" stroke="#999"/>
<text x="1072.1" y="531.0" text-anchor="end" fill="#e8731a" transform="rotate(-50 1072.1 531.0)">07-03</text>
<line x1="1108.0" y1="516.0" x2="1108.0" y2="519.0" stroke="#999"/>
<text x="1108.0" y="531.0" text-anchor="end" fill="#e8731a" transform="rotate(-50 1108.0 531.0)">07-03</text>
<polygon points="68.0,498.3 103.9,498.7 139.7,498.7 175.6,498.5 211.4,497.9 247.3,497.7 283.2,497.3 319.0,496.3 354.9,495.6 390.8,497.9 426.6,495.8 462.5,496.7 498.3,496.4 534.2,496.4 570.1,496.5 605.9,495.9 641.8,495.6 677.7,495.1 713.5,495.7 749.4,495.3 785.2,495.7 821.1,495.5 857.0,491.4 892.8,493.0 928.7,492.6 964.6,493.3 1000.4,493.0 1036.3,493.3 1072.1,492.1 1108.0,493.3 1108.0,516.0 1072.1,516.0 1036.3,516.0 1000.4,516.0 964.6,516.0 928.7,516.0 892.8,516.0 857.0,516.0 821.1,516.0 785.2,516.0 749.4,516.0 713.5,516.0 677.7,516.0 641.8,516.0 605.9,516.0 570.1,516.0 534.2,516.0 498.3,516.0 462.5,516.0 426.6,516.0 390.8,516.0 354.9,516.0 319.0,516.0 283.2,516.0 247.3,516.0 211.4,516.0 175.6,516.0 139.7,516.0 103.9,516.0 68.0,516.0" fill="#c7e9c0" fill-opacity="0.9" stroke="#fff" stroke-width="0.4"><title>conformance — parseTranslationUnit</title></polygon>
<polygon points="68.0,386.5 103.9,345.3 139.7,341.6 175.6,340.6 211.4,335.4 247.3,333.1 283.2,330.3 319.0,315.0 354.9,341.8 390.8,343.6 426.6,341.3 462.5,352.9 498.3,351.5 534.2,351.1 570.1,352.0 605.9,350.4 641.8,309.6 677.7,308.4 713.5,311.9 749.4,307.9 785.2,428.4 821.1,426.3 857.0,418.4 892.8,420.7 928.7,419.8 964.6,418.2 1000.4,418.5 1036.3,420.5 1072.1,415.3 1108.0,421.0 1108.0,493.3 1072.1,492.1 1036.3,493.3 1000.4,493.0 964.6,493.3 928.7,492.6 892.8,493.0 857.0,491.4 821.1,495.5 785.2,495.7 749.4,495.3 713.5,495.7 677.7,495.1 641.8,495.6 605.9,495.9 570.1,496.5 534.2,496.4 498.3,496.4 462.5,496.7 426.6,495.8 390.8,497.9 354.9,495.6 319.0,496.3 283.2,497.3 247.3,497.7 211.4,497.9 175.6,498.5 139.7,498.7 103.9,498.7 68.0,498.3" fill="#41ab5d" fill-opacity="0.9" stroke="#fff" stroke-width="0.4"><title>conformance — SemanticChecking</title></polygon>
<polygon points="68.0,292.5 103.9,250.2 139.7,244.7 175.6,246.6 211.4,238.0 247.3,233.4 283.2,230.2 319.0,212.7 354.9,236.6 390.8,244.0 426.6,244.6 462.5,254.9 498.3,257.0 534.2,255.1 570.1,257.7 605.9,256.1 641.8,204.6 677.7,201.5 713.5,205.2 749.4,199.6 785.2,332.0 821.1,328.0 857.0,312.3 892.8,315.2 928.7,312.7 964.6,309.8 1000.4,312.1 1036.3,314.3 1072.1,305.7 1108.0,314.6 1108.0,421.0 1072.1,415.3 1036.3,420.5 1000.4,418.5 964.6,418.2 928.7,419.8 892.8,420.7 857.0,418.4 821.1,426.3 785.2,428.4 749.4,307.9 713.5,311.9 677.7,308.4 641.8,309.6 605.9,350.4 570.1,352.0 534.2,351.1 498.3,351.5 462.5,352.9 426.6,341.3 390.8,343.6 354.9,341.8 319.0,315.0 283.2,330.3 247.3,333.1 211.4,335.4 175.6,340.6 139.7,341.6 103.9,345.3 68.0,386.5" fill="#006d2c" fill-opacity="0.9" stroke="#fff" stroke-width="0.4"><title>conformance — generateIR</title></polygon>
<polygon points="68.0,291.9 103.9,248.5 139.7,243.2 175.6,244.2 211.4,237.8 247.3,230.9 283.2,229.3 319.0,208.5 354.9,236.6 390.8,241.1 426.6,241.2 462.5,251.6 498.3,257.0 534.2,251.6 570.1,256.9 605.9,256.1 641.8,202.7 677.7,201.5 713.5,204.9 749.4,198.4 785.2,330.4 821.1,327.3 857.0,311.2 892.8,313.2 928.7,310.9 964.6,309.4 1000.4,310.6 1036.3,314.3 1072.1,305.7 1108.0,313.9 1108.0,314.6 1072.1,305.7 1036.3,314.3 1000.4,312.1 964.6,309.8 928.7,312.7 892.8,315.2 857.0,312.3 821.1,328.0 785.2,332.0 749.4,199.6 713.5,205.2 677.7,201.5 641.8,204.6 605.9,256.1 570.1,257.7 534.2,255.1 498.3,257.0 462.5,254.9 426.6,244.6 390.8,244.0 354.9,236.6 319.0,212.7 283.2,230.2 247.3,233.4 211.4,238.0 175.6,246.6 139.7,244.7 103.9,250.2 68.0,292.5" fill="#74c476" fill-opacity="0.9" stroke="#fff" stroke-width="0.4"><title>conformance — frontEndExecute (self)</title></polygon>
<polygon points="68.0,202.2 103.9,162.1 139.7,157.4 175.6,154.6 211.4,138.3 247.3,139.7 283.2,136.1 319.0,114.2 354.9,142.5 390.8,150.8 426.6,154.8 462.5,163.9 498.3,173.9 534.2,167.9 570.1,173.8 605.9,173.4 641.8,119.0 677.7,116.1 713.5,121.5 749.4,113.8 785.2,250.2 821.1,248.4 857.0,216.3 892.8,218.8 928.7,212.5 964.6,215.6 1000.4,215.1 1036.3,220.7 1072.1,209.1 1108.0,223.3 1108.0,313.9 1072.1,305.7 1036.3,314.3 1000.4,310.6 964.6,309.4 928.7,310.9 892.8,313.2 857.0,311.2 821.1,327.3 785.2,330.4 749.4,198.4 713.5,204.9 677.7,201.5 641.8,202.7 605.9,256.1 570.1,256.9 534.2,251.6 498.3,257.0 462.5,251.6 426.6,241.2 390.8,241.1 354.9,236.6 319.0,208.5 283.2,229.3 247.3,230.9 211.4,237.8 175.6,244.2 139.7,243.2 103.9,248.5 68.0,291.9" fill="#e6550d" fill-opacity="0.9" stroke="#fff" stroke-width="0.4"><title>conformance — generateOutput (self)</title></polygon>
<polygon points="68.0,201.1 103.9,156.2 139.7,157.4 175.6,152.5 211.4,138.3 247.3,137.5 283.2,136.1 319.0,113.5 354.9,137.8 390.8,149.5 426.6,154.8 462.5,163.9 498.3,173.9 534.2,166.5 570.1,173.4 605.9,173.4 641.8,116.8 677.7,108.6 713.5,119.1 749.4,112.2 785.2,250.2 821.1,247.4 857.0,216.3 892.8,218.8 928.7,212.5 964.6,214.8 1000.4,215.1 1036.3,220.7 1072.1,208.7 1108.0,223.3 1108.0,223.3 1072.1,209.1 1036.3,220.7 1000.4,215.1 964.6,215.6 928.7,212.5 892.8,218.8 857.0,216.3 821.1,248.4 785.2,250.2 749.4,113.8 713.5,121.5 677.7,116.1 641.8,119.0 605.9,173.4 570.1,173.8 534.2,167.9 498.3,173.9 462.5,163.9 426.6,154.8 390.8,150.8 354.9,142.5 319.0,114.2 283.2,136.1 247.3,139.7 211.4,138.3 175.6,154.6 139.7,157.4 103.9,162.1 68.0,202.2" fill="#969696" fill-opacity="0.9" stroke="#fff" stroke-width="0.4"><title>conformance — compileInner (self)</title></polygon>
<text x="12" y="578" fill="#666" font-weight="600">phase buckets</text>
<rect x="12" y="586" width="12" height="12" fill="#c7e9c0"/>
<text x="28" y="596" fill="#222">parseTranslationUnit</text>
<rect x="289" y="586" width="12" height="12" fill="#41ab5d"/>
<text x="305" y="596" fill="#222">SemanticChecking</text>
<rect x="566" y="586" width="12" height="12" fill="#006d2c"/>
<text x="582" y="596" fill="#222">generateIR</text>
<rect x="843" y="586" width="12" height="12" fill="#74c476"/>
<text x="859" y="596" fill="#222">frontEndExecute (self)</text>
<rect x="12" y="604" width="12" height="12" fill="#6baed6"/>
<text x="28" y="614" fill="#222">specializeModule</text>
<rect x="289" y="604" width="12" height="12" fill="#2171b5"/>
<text x="305" y="614" fill="#222">simplifyIR</text>
<rect x="566" y="604" width="12" height="12" fill="#08306b"/>
<text x="582" y="614" fill="#222">linkIR</text>
<rect x="843" y="604" width="12" height="12" fill="#9e9ac8"/>
<text x="859" y="614" fill="#222">unrollLoopsInModule</text>
<rect x="12" y="622" width="12" height="12" fill="#807dba"/>
<text x="28" y="632" fill="#222">legalizeResourceTypes</text>
<rect x="289" y="622" width="12" height="12" fill="#6a51a3"/>
<text x="305" y="632" fill="#222">legalizeExistentialTypeLayout</text>
<rect x="566" y="622" width="12" height="12" fill="#bcbddc"/>
<text x="582" y="632" fill="#222">performMandatoryEarlyInlining</text>
<rect x="843" y="622" width="12" height="12" fill="#dadaeb"/>
<text x="859" y="632" fill="#222">performForceInlining</text>
<rect x="12" y="640" width="12" height="12" fill="#4a1486"/>
<text x="28" y="650" fill="#222">linkAndOptimizeIR (self)</text>
<rect x="289" y="640" width="12" height="12" fill="#fd8d3c"/>
<text x="305" y="650" fill="#222">emitEntryPointsSourceFromIR</text>
<rect x="566" y="640" width="12" height="12" fill="#e6550d"/>
<text x="582" y="650" fill="#222">generateOutput (self)</text>
<rect x="843" y="640" width="12" height="12" fill="#969696"/>
<text x="859" y="650" fill="#222">compileInner (self)</text>
</svg>