<svg xmlns="http://www.w3.org/2000/svg" xmlns:xlink="http://www.w3.org/1999/xlink" width="1132" height="680" viewBox="0 0 1132 680" preserveAspectRatio="xMidYMid meet" font-family="sans-serif" font-size="13">
<rect width="1132" height="680" fill="white"/>
<text x="12" y="30" font-size="20" font-weight="bold">conformance — full phase breakdown across releases (median ms)</text>
<text x="68" y="60" font-size="15" font-weight="600" fill="#1a1a1a">conformance<tspan fill="#888" font-weight="400" text-decoration="none">  0.95×</tspan></text>
<line x1="68.0" y1="516.0" x2="1108.0" y2="516.0" stroke="#eee"/>
<text x="64.0" y="519.0" text-anchor="end" fill="#999">0.0</text>
<line x1="68.0" y1="296.0" x2="1108.0" y2="296.0" stroke="#eee"/>
<text x="64.0" y="299.0" text-anchor="end" fill="#999">46</text>
<line x1="68.0" y1="76.0" x2="1108.0" y2="76.0" stroke="#eee"/>
<text x="64.0" y="79.0" text-anchor="end" fill="#999">93</text>
<line x1="68.0" y1="76.0" x2="68.0" y2="516.0" stroke="#333"/>
<line x1="68.0" y1="516.0" x2="1108.0" y2="516.0" stroke="#333"/>
<line x1="789.3" y1="76.0" x2="789.3" y2="516.0" stroke="#e8731a" stroke-width="1.2" stroke-dasharray="4 3"/>
<text x="792.3" y="87.0" fill="#e8731a" font-size="11">daily →</text>
<line x1="68.0" y1="516.0" x2="68.0" y2="519.0" stroke="#999"/>
<text x="68.0" y="531.0" text-anchor="end" fill="#666" transform="rotate(-50 68.0 531.0)">25.14</text>
<line x1="101.5" y1="516.0" x2="101.5" y2="519.0" stroke="#999"/>
<text x="101.5" y="531.0" text-anchor="end" fill="#666" transform="rotate(-50 101.5 531.0)">25.15</text>
<line x1="135.1" y1="516.0" x2="135.1" y2="519.0" stroke="#999"/>
<text x="135.1" y="531.0" text-anchor="end" fill="#666" transform="rotate(-50 135.1 531.0)">25.16</text>
<line x1="168.6" y1="516.0" x2="168.6" y2="519.0" stroke="#999"/>
<text x="168.6" y="531.0" text-anchor="end" fill="#666" transform="rotate(-50 168.6 531.0)">25.17</text>
<line x1="202.2" y1="516.0" x2="202.2" y2="519.0" stroke="#999"/>
<text x="202.2" y="531.0" text-anchor="end" fill="#666" transform="rotate(-50 202.2 531.0)">25.18</text>
<line x1="235.7" y1="516.0" x2="235.7" y2="519.0" stroke="#999"/>
<text x="235.7" y="531.0" text-anchor="end" fill="#666" transform="rotate(-50 235.7 531.0)">25.19</text>
<line x1="269.3" y1="516.0" x2="269.3" y2="519.0" stroke="#999"/>
<text x="269.3" y="531.0" text-anchor="end" fill="#666" transform="rotate(-50 269.3 531.0)">25.20</text>
<line x1="302.8" y1="516.0" x2="302.8" y2="519.0" stroke="#999"/>
<text x="302.8" y="531.0" text-anchor="end" fill="#666" transform="rotate(-50 302.8 531.0)">25.21</text>
<line x1="336.4" y1="516.0" x2="336.4" y2="519.0" stroke="#999"/>
<text x="336.4" y="531.0" text-anchor="end" fill="#666" transform="rotate(-50 336.4 531.0)">25.22</text>
<line x1="369.9" y1="516.0" x2="369.9" y2="519.0" stroke="#999"/>
<text x="369.9" y="531.0" text-anchor="end" fill="#666" transform="rotate(-50 369.9 531.0)">25.23</text>
<line x1="403.5" y1="516.0" x2="403.5" y2="519.0" stroke="#999"/>
<text x="403.5" y="531.0" text-anchor="end" fill="#666" transform="rotate(-50 403.5 531.0)">25.24</text>
<line x1="437.0" y1="516.0" x2="437.0" y2="519.0" stroke="#999"/>
<text x="437.0" y="531.0" text-anchor="end" fill="#666" transform="rotate(-50 437.0 531.0)">26.1</text>
<line x1="470.6" y1="516.0" x2="470.6" y2="519.0" stroke="#999"/>
<text x="470.6" y="531.0" text-anchor="end" fill="#666" transform="rotate(-50 470.6 531.0)">26.2</text>
<line x1="504.1" y1="516.0" x2="504.1" y2="519.0" stroke="#999"/>
<text x="504.1" y="531.0" text-anchor="end" fill="#666" transform="rotate(-50 504.1 531.0)">26.3</text>
<line x1="537.7" y1="516.0" x2="537.7" y2="519.0" stroke="#999"/>
<text x="537.7" y="531.0" text-anchor="end" fill="#666" transform="rotate(-50 537.7 531.0)">26.4</text>
<line x1="571.2" y1="516.0" x2="571.2" y2="519.0" stroke="#999"/>
<text x="571.2" y="531.0" text-anchor="end" fill="#666" transform="rotate(-50 571.2 531.0)">26.5</text>
<line x1="604.8" y1="516.0" x2="604.8" y2="519.0" stroke="#999"/>
<text x="604.8" y="531.0" text-anchor="end" fill="#666" transform="rotate(-50 604.8 531.0)">26.7</text>
<line x1="638.3" y1="516.0" x2="638.3" y2="519.0" stroke="#999"/>
<text x="638.3" y="531.0" text-anchor="end" fill="#666" transform="rotate(-50 638.3 531.0)">26.8</text>
<line x1="671.9" y1="516.0" x2="671.9" y2="519.0" stroke="#999"/>
<text x="671.9" y="531.0" text-anchor="end" fill="#666" transform="rotate(-50 671.9 531.0)">26.9</text>
<line x1="705.4" y1="516.0" x2="705.4" y2="519.0" stroke="#999"/>
<text x="705.4" y="531.0" text-anchor="end" fill="#666" transform="rotate(-50 705.4 531.0)">26.10</text>
<line x1="739.0" y1="516.0" x2="739.0" y2="519.0" stroke="#999"/>
<text x="739.0" y="531.0" text-anchor="end" fill="#666" transform="rotate(-50 739.0 531.0)">26.11</text>
<line x1="772.5" y1="516.0" x2="772.5" y2="519.0" stroke="#999"/>
<text x="772.5" y="531.0" text-anchor="end" fill="#666" transform="rotate(-50 772.5 531.0)">26.12</text>
<line x1="806.1" y1="516.0" x2="806.1" y2="519.0" stroke="#999"/>
<text x="806.1" y="531.0" text-anchor="end" fill="#e8731a" transform="rotate(-50 806.1 531.0)">06-25</text>
<line x1="839.6" y1="516.0" x2="839.6" y2="519.0" stroke="#999"/>
<text x="839.6" y="531.0" text-anchor="end" fill="#e8731a" transform="rotate(-50 839.6 531.0)">06-26</text>
<line x1="873.2" y1="516.0" x2="873.2" y2="519.0" stroke="#999"/>
<text x="873.2" y="531.0" text-anchor="end" fill="#e8731a" transform="rotate(-50 873.2 531.0)">06-28</text>
<line x1="906.7" y1="516.0" x2="906.7" y2="519.0" stroke="#999"/>
<text x="906.7" y="531.0" text-anchor="end" fill="#e8731a" transform="rotate(-50 906.7 531.0)">07-01</text>
<line x1="940.3" y1="516.0" x2="940.3" y2="519.0" stroke="#999"/>
<text x="940.3" y="531.0" text-anchor="end" fill="#e8731a" transform="rotate(-50 940.3 531.0)">07-02</text>
<line x1="973.8" y1="516.0" x2="973.8" y2="519.0" stroke="#999"/>
<text x="973.8" y="531.0" text-anchor="end" fill="#e8731a" transform="rotate(-50 973.8 531.0)">07-03</text>
<line x1="1007.4" y1="516.0" x2="1007.4" y2="519.0" stroke="#999"/>
<text x="1007.4" y="531.0" text-anchor="end" fill="#e8731a" transform="rotate(-50 1007.4 531.0)">07-07</text>
<line x1="1040.9" y1="516.0" x2="1040.9" y2="519.0" stroke="#999"/>
<text x="1040.9" y="531.0" text-anchor="end" fill="#e8731a" transform="rotate(-50 1040.9 531.0)">07-07</text>
<line x1="1074.5" y1="516.0" x2="1074.5" y2="519.0" stroke="#999"/>
<text x="1074.5" y="531.0" text-anchor="end" fill="#e8731a" transform="rotate(-50 1074.5 531.0)">07-09</text>
<line x1="1108.0" y1="516.0" x2="1108.0" y2="519.0" stroke="#999"/>
<text x="1108.0" y="531.0" text-anchor="end" fill="#e8731a" transform="rotate(-50 1108.0 531.0)">07-10</text>
<polygon points="68.0,498.3 101.5,498.7 135.1,498.7 168.6,498.5 202.2,497.9 235.7,497.7 269.3,497.3 302.8,496.3 336.4,495.6 369.9,497.9 403.5,495.8 437.0,496.7 470.6,496.4 504.1,496.4 537.7,496.5 571.2,495.9 604.8,495.6 638.3,495.1 671.9,495.7 705.4,495.3 739.0,495.7 772.5,495.5 806.1,491.4 839.6,493.0 873.2,492.6 906.7,493.3 940.3,493.0 973.8,492.0 1007.4,494.2 1040.9,493.2 1074.5,494.3 1108.0,493.8 1108.0,516.0 1074.5,516.0 1040.9,516.0 1007.4,516.0 973.8,516.0 940.3,516.0 906.7,516.0 873.2,516.0 839.6,516.0 806.1,516.0 772.5,516.0 739.0,516.0 705.4,516.0 671.9,516.0 638.3,516.0 604.8,516.0 571.2,516.0 537.7,516.0 504.1,516.0 470.6,516.0 437.0,516.0 403.5,516.0 369.9,516.0 336.4,516.0 302.8,516.0 269.3,516.0 235.7,516.0 202.2,516.0 168.6,516.0 135.1,516.0 101.5,516.0 68.0,516.0" fill="#c7e9c0" fill-opacity="0.9" stroke="#fff" stroke-width="0.4"><title>conformance — parseTranslationUnit</title></polygon>
<polygon points="68.0,386.5 101.5,345.3 135.1,341.6 168.6,340.6 202.2,335.4 235.7,333.1 269.3,330.3 302.8,315.0 336.4,341.8 369.9,343.6 403.5,341.3 437.0,352.9 470.6,351.5 504.1,351.1 537.7,352.0 571.2,350.4 604.8,309.6 638.3,308.4 671.9,311.9 705.4,307.9 739.0,428.4 772.5,426.3 806.1,418.4 839.6,420.7 873.2,419.8 906.7,418.2 940.3,418.5 973.8,416.5 1007.4,419.8 1040.9,417.5 1074.5,420.1 1108.0,418.7 1108.0,493.8 1074.5,494.3 1040.9,493.2 1007.4,494.2 973.8,492.0 940.3,493.0 906.7,493.3 873.2,492.6 839.6,493.0 806.1,491.4 772.5,495.5 739.0,495.7 705.4,495.3 671.9,495.7 638.3,495.1 604.8,495.6 571.2,495.9 537.7,496.5 504.1,496.4 470.6,496.4 437.0,496.7 403.5,495.8 369.9,497.9 336.4,495.6 302.8,496.3 269.3,497.3 235.7,497.7 202.2,497.9 168.6,498.5 135.1,498.7 101.5,498.7 68.0,498.3" fill="#41ab5d" fill-opacity="0.9" stroke="#fff" stroke-width="0.4"><title>conformance — SemanticChecking</title></polygon>
<polygon points="68.0,292.5 101.5,250.2 135.1,244.7 168.6,246.6 202.2,238.0 235.7,233.4 269.3,230.2 302.8,212.7 336.4,236.6 369.9,244.0 403.5,244.6 437.0,254.9 470.6,257.0 504.1,255.1 537.7,257.7 571.2,256.1 604.8,204.6 638.3,201.5 671.9,205.2 705.4,199.6 739.0,332.0 772.5,328.0 806.1,312.3 839.6,315.2 873.2,312.7 906.7,309.8 940.3,312.1 973.8,306.5 1007.4,311.3 1040.9,307.8 1074.5,312.6 1108.0,309.8 1108.0,418.7 1074.5,420.1 1040.9,417.5 1007.4,419.8 973.8,416.5 940.3,418.5 906.7,418.2 873.2,419.8 839.6,420.7 806.1,418.4 772.5,426.3 739.0,428.4 705.4,307.9 671.9,311.9 638.3,308.4 604.8,309.6 571.2,350.4 537.7,352.0 504.1,351.1 470.6,351.5 437.0,352.9 403.5,341.3 369.9,343.6 336.4,341.8 302.8,315.0 269.3,330.3 235.7,333.1 202.2,335.4 168.6,340.6 135.1,341.6 101.5,345.3 68.0,386.5" fill="#006d2c" fill-opacity="0.9" stroke="#fff" stroke-width="0.4"><title>conformance — generateIR</title></polygon>
<polygon points="68.0,291.9 101.5,248.5 135.1,243.2 168.6,244.2 202.2,237.8 235.7,230.9 269.3,229.3 302.8,208.5 336.4,236.6 369.9,241.1 403.5,241.2 437.0,251.6 470.6,257.0 504.1,251.6 537.7,256.9 571.2,256.1 604.8,202.7 638.3,201.5 671.9,204.9 705.4,198.4 739.0,330.4 772.5,327.3 806.1,311.2 839.6,313.2 873.2,310.9 906.7,309.4 940.3,310.6 973.8,306.0 1007.4,309.9 1040.9,307.8 1074.5,311.0 1108.0,309.5 1108.0,309.8 1074.5,312.6 1040.9,307.8 1007.4,311.3 973.8,306.5 940.3,312.1 906.7,309.8 873.2,312.7 839.6,315.2 806.1,312.3 772.5,328.0 739.0,332.0 705.4,199.6 671.9,205.2 638.3,201.5 604.8,204.6 571.2,256.1 537.7,257.7 504.1,255.1 470.6,257.0 437.0,254.9 403.5,244.6 369.9,244.0 336.4,236.6 302.8,212.7 269.3,230.2 235.7,233.4 202.2,238.0 168.6,246.6 135.1,244.7 101.5,250.2 68.0,292.5" fill="#74c476" fill-opacity="0.9" stroke="#fff" stroke-width="0.4"><title>conformance — frontEndExecute (self)</title></polygon>
<polygon points="68.0,202.2 101.5,162.1 135.1,157.4 168.6,154.6 202.2,138.3 235.7,139.7 269.3,136.1 302.8,114.2 336.4,142.5 369.9,150.8 403.5,154.8 437.0,163.9 470.6,173.9 504.1,167.9 537.7,173.8 571.2,173.4 604.8,119.0 638.3,116.1 671.9,121.5 705.4,113.8 739.0,250.2 772.5,248.4 806.1,216.3 839.6,218.8 873.2,212.5 906.7,215.6 940.3,215.1 973.8,212.3 1007.4,216.1 1040.9,207.9 1074.5,217.7 1108.0,217.0 1108.0,309.5 1074.5,311.0 1040.9,307.8 1007.4,309.9 973.8,306.0 940.3,310.6 906.7,309.4 873.2,310.9 839.6,313.2 806.1,311.2 772.5,327.3 739.0,330.4 705.4,198.4 671.9,204.9 638.3,201.5 604.8,202.7 571.2,256.1 537.7,256.9 504.1,251.6 470.6,257.0 437.0,251.6 403.5,241.2 369.9,241.1 336.4,236.6 302.8,208.5 269.3,229.3 235.7,230.9 202.2,237.8 168.6,244.2 135.1,243.2 101.5,248.5 68.0,291.9" fill="#e6550d" fill-opacity="0.9" stroke="#fff" stroke-width="0.4"><title>conformance — generateOutput (self)</title></polygon>
<polygon points="68.0,201.1 101.5,156.2 135.1,157.4 168.6,152.5 202.2,138.3 235.7,137.5 269.3,136.1 302.8,113.5 336.4,137.8 369.9,149.5 403.5,154.8 437.0,163.9 470.6,173.9 504.1,166.5 537.7,173.4 571.2,173.4 604.8,116.8 638.3,108.6 671.9,119.1 705.4,112.2 739.0,250.2 772.5,247.4 806.1,216.3 839.6,218.8 873.2,212.5 906.7,214.8 940.3,215.1 973.8,211.1 1007.4,216.1 1040.9,205.4 1074.5,217.7 1108.0,216.7 1108.0,217.0 1074.5,217.7 1040.9,207.9 1007.4,216.1 973.8,212.3 940.3,215.1 906.7,215.6 873.2,212.5 839.6,218.8 806.1,216.3 772.5,248.4 739.0,250.2 705.4,113.8 671.9,121.5 638.3,116.1 604.8,119.0 571.2,173.4 537.7,173.8 504.1,167.9 470.6,173.9 437.0,163.9 403.5,154.8 369.9,150.8 336.4,142.5 302.8,114.2 269.3,136.1 235.7,139.7 202.2,138.3 168.6,154.6 135.1,157.4 101.5,162.1 68.0,202.2" fill="#969696" fill-opacity="0.9" stroke="#fff" stroke-width="0.4"><title>conformance — compileInner (self)</title></polygon>
<text x="12" y="578" fill="#666" font-weight="600">phase buckets</text>
<rect x="12" y="586" width="12" height="12" fill="#c7e9c0"/>
<text x="28" y="596" fill="#222">parseTranslationUnit</text>
<rect x="289" y="586" width="12" height="12" fill="#41ab5d"/>
<text x="305" y="596" fill="#222">SemanticChecking</text>
<rect x="566" y="586" width="12" height="12" fill="#006d2c"/>
<text x="582" y="596" fill="#222">generateIR</text>
<rect x="843" y="586" width="12" height="12" fill="#74c476"/>
<text x="859" y="596" fill="#222">frontEndExecute (self)</text>
<rect x="12" y="604" width="12" height="12" fill="#6baed6"/>
<text x="28" y="614" fill="#222">specializeModule</text>
<rect x="289" y="604" width="12" height="12" fill="#2171b5"/>
<text x="305" y="614" fill="#222">simplifyIR</text>
<rect x="566" y="604" width="12" height="12" fill="#08306b"/>
<text x="582" y="614" fill="#222">linkIR</text>
<rect x="843" y="604" width="12" height="12" fill="#9e9ac8"/>
<text x="859" y="614" fill="#222">unrollLoopsInModule</text>
<rect x="12" y="622" width="12" height="12" fill="#807dba"/>
<text x="28" y="632" fill="#222">legalizeResourceTypes</text>
<rect x="289" y="622" width="12" height="12" fill="#6a51a3"/>
<text x="305" y="632" fill="#222">legalizeExistentialTypeLayout</text>
<rect x="566" y="622" width="12" height="12" fill="#bcbddc"/>
<text x="582" y="632" fill="#222">performMandatoryEarlyInlining</text>
<rect x="843" y="622" width="12" height="12" fill="#dadaeb"/>
<text x="859" y="632" fill="#222">performForceInlining</text>
<rect x="12" y="640" width="12" height="12" fill="#4a1486"/>
<text x="28" y="650" fill="#222">linkAndOptimizeIR (self)</text>
<rect x="289" y="640" width="12" height="12" fill="#fd8d3c"/>
<text x="305" y="650" fill="#222">emitEntryPointsSourceFromIR</text>
<rect x="566" y="640" width="12" height="12" fill="#e6550d"/>
<text x="582" y="650" fill="#222">generateOutput (self)</text>
<rect x="843" y="640" width="12" height="12" fill="#969696"/>
<text x="859" y="650" fill="#222">compileInner (self)</text>
</svg>