<svg xmlns="http://www.w3.org/2000/svg" xmlns:xlink="http://www.w3.org/1999/xlink" width="1132" height="680" viewBox="0 0 1132 680" preserveAspectRatio="xMidYMid meet" font-family="sans-serif" font-size="13">
<rect width="1132" height="680" fill="white"/>
<text x="12" y="30" font-size="20" font-weight="bold">conformance — full phase breakdown across releases (median ms)</text>
<text x="68" y="60" font-size="15" font-weight="600" fill="#1a1a1a">conformance<tspan fill="#888" font-weight="400" text-decoration="none">  0.99×</tspan></text>
<line x1="68.0" y1="516.0" x2="1108.0" y2="516.0" stroke="#eee"/>
<text x="64.0" y="519.0" text-anchor="end" fill="#999">0.0</text>
<line x1="68.0" y1="296.0" x2="1108.0" y2="296.0" stroke="#eee"/>
<text x="64.0" y="299.0" text-anchor="end" fill="#999">46</text>
<line x1="68.0" y1="76.0" x2="1108.0" y2="76.0" stroke="#eee"/>
<text x="64.0" y="79.0" text-anchor="end" fill="#999">93</text>
<line x1="68.0" y1="76.0" x2="68.0" y2="516.0" stroke="#333"/>
<line x1="68.0" y1="516.0" x2="1108.0" y2="516.0" stroke="#333"/>
<line x1="866.6" y1="76.0" x2="866.6" y2="516.0" stroke="#e8731a" stroke-width="1.2" stroke-dasharray="4 3"/>
<text x="869.6" y="87.0" fill="#e8731a" font-size="11">daily →</text>
<line x1="68.0" y1="516.0" x2="68.0" y2="519.0" stroke="#999"/>
<text x="68.0" y="531.0" text-anchor="end" fill="#666" transform="rotate(-50 68.0 531.0)">25.14</text>
<line x1="105.1" y1="516.0" x2="105.1" y2="519.0" stroke="#999"/>
<text x="105.1" y="531.0" text-anchor="end" fill="#666" transform="rotate(-50 105.1 531.0)">25.15</text>
<line x1="142.3" y1="516.0" x2="142.3" y2="519.0" stroke="#999"/>
<text x="142.3" y="531.0" text-anchor="end" fill="#666" transform="rotate(-50 142.3 531.0)">25.16</text>
<line x1="179.4" y1="516.0" x2="179.4" y2="519.0" stroke="#999"/>
<text x="179.4" y="531.0" text-anchor="end" fill="#666" transform="rotate(-50 179.4 531.0)">25.17</text>
<line x1="216.6" y1="516.0" x2="216.6" y2="519.0" stroke="#999"/>
<text x="216.6" y="531.0" text-anchor="end" fill="#666" transform="rotate(-50 216.6 531.0)">25.18</text>
<line x1="253.7" y1="516.0" x2="253.7" y2="519.0" stroke="#999"/>
<text x="253.7" y="531.0" text-anchor="end" fill="#666" transform="rotate(-50 253.7 531.0)">25.19</text>
<line x1="290.9" y1="516.0" x2="290.9" y2="519.0" stroke="#999"/>
<text x="290.9" y="531.0" text-anchor="end" fill="#666" transform="rotate(-50 290.9 531.0)">25.20</text>
<line x1="328.0" y1="516.0" x2="328.0" y2="519.0" stroke="#999"/>
<text x="328.0" y="531.0" text-anchor="end" fill="#666" transform="rotate(-50 328.0 531.0)">25.21</text>
<line x1="365.1" y1="516.0" x2="365.1" y2="519.0" stroke="#999"/>
<text x="365.1" y="531.0" text-anchor="end" fill="#666" transform="rotate(-50 365.1 531.0)">25.22</text>
<line x1="402.3" y1="516.0" x2="402.3" y2="519.0" stroke="#999"/>
<text x="402.3" y="531.0" text-anchor="end" fill="#666" transform="rotate(-50 402.3 531.0)">25.23</text>
<line x1="439.4" y1="516.0" x2="439.4" y2="519.0" stroke="#999"/>
<text x="439.4" y="531.0" text-anchor="end" fill="#666" transform="rotate(-50 439.4 531.0)">25.24</text>
<line x1="476.6" y1="516.0" x2="476.6" y2="519.0" stroke="#999"/>
<text x="476.6" y="531.0" text-anchor="end" fill="#666" transform="rotate(-50 476.6 531.0)">26.1</text>
<line x1="513.7" y1="516.0" x2="513.7" y2="519.0" stroke="#999"/>
<text x="513.7" y="531.0" text-anchor="end" fill="#666" transform="rotate(-50 513.7 531.0)">26.2</text>
<line x1="550.9" y1="516.0" x2="550.9" y2="519.0" stroke="#999"/>
<text x="550.9" y="531.0" text-anchor="end" fill="#666" transform="rotate(-50 550.9 531.0)">26.3</text>
<line x1="588.0" y1="516.0" x2="588.0" y2="519.0" stroke="#999"/>
<text x="588.0" y="531.0" text-anchor="end" fill="#666" transform="rotate(-50 588.0 531.0)">26.4</text>
<line x1="625.1" y1="516.0" x2="625.1" y2="519.0" stroke="#999"/>
<text x="625.1" y="531.0" text-anchor="end" fill="#666" transform="rotate(-50 625.1 531.0)">26.5</text>
<line x1="662.3" y1="516.0" x2="662.3" y2="519.0" stroke="#999"/>
<text x="662.3" y="531.0" text-anchor="end" fill="#666" transform="rotate(-50 662.3 531.0)">26.7</text>
<line x1="699.4" y1="516.0" x2="699.4" y2="519.0" stroke="#999"/>
<text x="699.4" y="531.0" text-anchor="end" fill="#666" transform="rotate(-50 699.4 531.0)">26.8</text>
<line x1="736.6" y1="516.0" x2="736.6" y2="519.0" stroke="#999"/>
<text x="736.6" y="531.0" text-anchor="end" fill="#666" transform="rotate(-50 736.6 531.0)">26.9</text>
<line x1="773.7" y1="516.0" x2="773.7" y2="519.0" stroke="#999"/>
<text x="773.7" y="531.0" text-anchor="end" fill="#666" transform="rotate(-50 773.7 531.0)">26.10</text>
<line x1="810.9" y1="516.0" x2="810.9" y2="519.0" stroke="#999"/>
<text x="810.9" y="531.0" text-anchor="end" fill="#666" transform="rotate(-50 810.9 531.0)">26.11</text>
<line x1="848.0" y1="516.0" x2="848.0" y2="519.0" stroke="#999"/>
<text x="848.0" y="531.0" text-anchor="end" fill="#666" transform="rotate(-50 848.0 531.0)">26.12</text>
<line x1="885.1" y1="516.0" x2="885.1" y2="519.0" stroke="#999"/>
<text x="885.1" y="531.0" text-anchor="end" fill="#e8731a" transform="rotate(-50 885.1 531.0)">06-25</text>
<line x1="922.3" y1="516.0" x2="922.3" y2="519.0" stroke="#999"/>
<text x="922.3" y="531.0" text-anchor="end" fill="#e8731a" transform="rotate(-50 922.3 531.0)">06-26</text>
<line x1="959.4" y1="516.0" x2="959.4" y2="519.0" stroke="#999"/>
<text x="959.4" y="531.0" text-anchor="end" fill="#e8731a" transform="rotate(-50 959.4 531.0)">06-28</text>
<line x1="996.6" y1="516.0" x2="996.6" y2="519.0" stroke="#999"/>
<text x="996.6" y="531.0" text-anchor="end" fill="#e8731a" transform="rotate(-50 996.6 531.0)">07-01</text>
<line x1="1033.7" y1="516.0" x2="1033.7" y2="519.0" stroke="#999"/>
<text x="1033.7" y="531.0" text-anchor="end" fill="#e8731a" transform="rotate(-50 1033.7 531.0)">07-02</text>
<line x1="1070.9" y1="516.0" x2="1070.9" y2="519.0" stroke="#999"/>
<text x="1070.9" y="531.0" text-anchor="end" fill="#e8731a" transform="rotate(-50 1070.9 531.0)">07-03</text>
<line x1="1108.0" y1="516.0" x2="1108.0" y2="519.0" stroke="#999"/>
<text x="1108.0" y="531.0" text-anchor="end" fill="#e8731a" transform="rotate(-50 1108.0 531.0)">07-07</text>
<polygon points="68.0,498.3 105.1,498.7 142.3,498.7 179.4,498.5 216.6,497.9 253.7,497.7 290.9,497.3 328.0,496.3 365.1,495.6 402.3,497.9 439.4,495.8 476.6,496.7 513.7,496.4 550.9,496.4 588.0,496.5 625.1,495.9 662.3,495.6 699.4,495.1 736.6,495.7 773.7,495.3 810.9,495.7 848.0,495.5 885.1,491.4 922.3,493.0 959.4,492.6 996.6,493.3 1033.7,493.0 1070.9,492.0 1108.0,493.2 1108.0,516.0 1070.9,516.0 1033.7,516.0 996.6,516.0 959.4,516.0 922.3,516.0 885.1,516.0 848.0,516.0 810.9,516.0 773.7,516.0 736.6,516.0 699.4,516.0 662.3,516.0 625.1,516.0 588.0,516.0 550.9,516.0 513.7,516.0 476.6,516.0 439.4,516.0 402.3,516.0 365.1,516.0 328.0,516.0 290.9,516.0 253.7,516.0 216.6,516.0 179.4,516.0 142.3,516.0 105.1,516.0 68.0,516.0" fill="#c7e9c0" fill-opacity="0.9" stroke="#fff" stroke-width="0.4"><title>conformance — parseTranslationUnit</title></polygon>
<polygon points="68.0,386.5 105.1,345.3 142.3,341.6 179.4,340.6 216.6,335.4 253.7,333.1 290.9,330.3 328.0,315.0 365.1,341.8 402.3,343.6 439.4,341.3 476.6,352.9 513.7,351.5 550.9,351.1 588.0,352.0 625.1,350.4 662.3,309.6 699.4,308.4 736.6,311.9 773.7,307.9 810.9,428.4 848.0,426.3 885.1,418.4 922.3,420.7 959.4,419.8 996.6,418.2 1033.7,418.5 1070.9,416.5 1108.0,417.5 1108.0,493.2 1070.9,492.0 1033.7,493.0 996.6,493.3 959.4,492.6 922.3,493.0 885.1,491.4 848.0,495.5 810.9,495.7 773.7,495.3 736.6,495.7 699.4,495.1 662.3,495.6 625.1,495.9 588.0,496.5 550.9,496.4 513.7,496.4 476.6,496.7 439.4,495.8 402.3,497.9 365.1,495.6 328.0,496.3 290.9,497.3 253.7,497.7 216.6,497.9 179.4,498.5 142.3,498.7 105.1,498.7 68.0,498.3" fill="#41ab5d" fill-opacity="0.9" stroke="#fff" stroke-width="0.4"><title>conformance — SemanticChecking</title></polygon>
<polygon points="68.0,292.5 105.1,250.2 142.3,244.7 179.4,246.6 216.6,238.0 253.7,233.4 290.9,230.2 328.0,212.7 365.1,236.6 402.3,244.0 439.4,244.6 476.6,254.9 513.7,257.0 550.9,255.1 588.0,257.7 625.1,256.1 662.3,204.6 699.4,201.5 736.6,205.2 773.7,199.6 810.9,332.0 848.0,328.0 885.1,312.3 922.3,315.2 959.4,312.7 996.6,309.8 1033.7,312.1 1070.9,306.5 1108.0,307.8 1108.0,417.5 1070.9,416.5 1033.7,418.5 996.6,418.2 959.4,419.8 922.3,420.7 885.1,418.4 848.0,426.3 810.9,428.4 773.7,307.9 736.6,311.9 699.4,308.4 662.3,309.6 625.1,350.4 588.0,352.0 550.9,351.1 513.7,351.5 476.6,352.9 439.4,341.3 402.3,343.6 365.1,341.8 328.0,315.0 290.9,330.3 253.7,333.1 216.6,335.4 179.4,340.6 142.3,341.6 105.1,345.3 68.0,386.5" fill="#006d2c" fill-opacity="0.9" stroke="#fff" stroke-width="0.4"><title>conformance — generateIR</title></polygon>
<polygon points="68.0,291.9 105.1,248.5 142.3,243.2 179.4,244.2 216.6,237.8 253.7,230.9 290.9,229.3 328.0,208.5 365.1,236.6 402.3,241.1 439.4,241.2 476.6,251.6 513.7,257.0 550.9,251.6 588.0,256.9 625.1,256.1 662.3,202.7 699.4,201.5 736.6,204.9 773.7,198.4 810.9,330.4 848.0,327.3 885.1,311.2 922.3,313.2 959.4,310.9 996.6,309.4 1033.7,310.6 1070.9,306.0 1108.0,307.8 1108.0,307.8 1070.9,306.5 1033.7,312.1 996.6,309.8 959.4,312.7 922.3,315.2 885.1,312.3 848.0,328.0 810.9,332.0 773.7,199.6 736.6,205.2 699.4,201.5 662.3,204.6 625.1,256.1 588.0,257.7 550.9,255.1 513.7,257.0 476.6,254.9 439.4,244.6 402.3,244.0 365.1,236.6 328.0,212.7 290.9,230.2 253.7,233.4 216.6,238.0 179.4,246.6 142.3,244.7 105.1,250.2 68.0,292.5" fill="#74c476" fill-opacity="0.9" stroke="#fff" stroke-width="0.4"><title>conformance — frontEndExecute (self)</title></polygon>
<polygon points="68.0,202.2 105.1,162.1 142.3,157.4 179.4,154.6 216.6,138.3 253.7,139.7 290.9,136.1 328.0,114.2 365.1,142.5 402.3,150.8 439.4,154.8 476.6,163.9 513.7,173.9 550.9,167.9 588.0,173.8 625.1,173.4 662.3,119.0 699.4,116.1 736.6,121.5 773.7,113.8 810.9,250.2 848.0,248.4 885.1,216.3 922.3,218.8 959.4,212.5 996.6,215.6 1033.7,215.1 1070.9,212.3 1108.0,207.9 1108.0,307.8 1070.9,306.0 1033.7,310.6 996.6,309.4 959.4,310.9 922.3,313.2 885.1,311.2 848.0,327.3 810.9,330.4 773.7,198.4 736.6,204.9 699.4,201.5 662.3,202.7 625.1,256.1 588.0,256.9 550.9,251.6 513.7,257.0 476.6,251.6 439.4,241.2 402.3,241.1 365.1,236.6 328.0,208.5 290.9,229.3 253.7,230.9 216.6,237.8 179.4,244.2 142.3,243.2 105.1,248.5 68.0,291.9" fill="#e6550d" fill-opacity="0.9" stroke="#fff" stroke-width="0.4"><title>conformance — generateOutput (self)</title></polygon>
<polygon points="68.0,201.1 105.1,156.2 142.3,157.4 179.4,152.5 216.6,138.3 253.7,137.5 290.9,136.1 328.0,113.5 365.1,137.8 402.3,149.5 439.4,154.8 476.6,163.9 513.7,173.9 550.9,166.5 588.0,173.4 625.1,173.4 662.3,116.8 699.4,108.6 736.6,119.1 773.7,112.2 810.9,250.2 848.0,247.4 885.1,216.3 922.3,218.8 959.4,212.5 996.6,214.8 1033.7,215.1 1070.9,211.1 1108.0,205.4 1108.0,207.9 1070.9,212.3 1033.7,215.1 996.6,215.6 959.4,212.5 922.3,218.8 885.1,216.3 848.0,248.4 810.9,250.2 773.7,113.8 736.6,121.5 699.4,116.1 662.3,119.0 625.1,173.4 588.0,173.8 550.9,167.9 513.7,173.9 476.6,163.9 439.4,154.8 402.3,150.8 365.1,142.5 328.0,114.2 290.9,136.1 253.7,139.7 216.6,138.3 179.4,154.6 142.3,157.4 105.1,162.1 68.0,202.2" fill="#969696" fill-opacity="0.9" stroke="#fff" stroke-width="0.4"><title>conformance — compileInner (self)</title></polygon>
<text x="12" y="578" fill="#666" font-weight="600">phase buckets</text>
<rect x="12" y="586" width="12" height="12" fill="#c7e9c0"/>
<text x="28" y="596" fill="#222">parseTranslationUnit</text>
<rect x="289" y="586" width="12" height="12" fill="#41ab5d"/>
<text x="305" y="596" fill="#222">SemanticChecking</text>
<rect x="566" y="586" width="12" height="12" fill="#006d2c"/>
<text x="582" y="596" fill="#222">generateIR</text>
<rect x="843" y="586" width="12" height="12" fill="#74c476"/>
<text x="859" y="596" fill="#222">frontEndExecute (self)</text>
<rect x="12" y="604" width="12" height="12" fill="#6baed6"/>
<text x="28" y="614" fill="#222">specializeModule</text>
<rect x="289" y="604" width="12" height="12" fill="#2171b5"/>
<text x="305" y="614" fill="#222">simplifyIR</text>
<rect x="566" y="604" width="12" height="12" fill="#08306b"/>
<text x="582" y="614" fill="#222">linkIR</text>
<rect x="843" y="604" width="12" height="12" fill="#9e9ac8"/>
<text x="859" y="614" fill="#222">unrollLoopsInModule</text>
<rect x="12" y="622" width="12" height="12" fill="#807dba"/>
<text x="28" y="632" fill="#222">legalizeResourceTypes</text>
<rect x="289" y="622" width="12" height="12" fill="#6a51a3"/>
<text x="305" y="632" fill="#222">legalizeExistentialTypeLayout</text>
<rect x="566" y="622" width="12" height="12" fill="#bcbddc"/>
<text x="582" y="632" fill="#222">performMandatoryEarlyInlining</text>
<rect x="843" y="622" width="12" height="12" fill="#dadaeb"/>
<text x="859" y="632" fill="#222">performForceInlining</text>
<rect x="12" y="640" width="12" height="12" fill="#4a1486"/>
<text x="28" y="650" fill="#222">linkAndOptimizeIR (self)</text>
<rect x="289" y="640" width="12" height="12" fill="#fd8d3c"/>
<text x="305" y="650" fill="#222">emitEntryPointsSourceFromIR</text>
<rect x="566" y="640" width="12" height="12" fill="#e6550d"/>
<text x="582" y="650" fill="#222">generateOutput (self)</text>
<rect x="843" y="640" width="12" height="12" fill="#969696"/>
<text x="859" y="650" fill="#222">compileInner (self)</text>
</svg>