<svg xmlns="http://www.w3.org/2000/svg" xmlns:xlink="http://www.w3.org/1999/xlink" width="1132" height="680" viewBox="0 0 1132 680" preserveAspectRatio="xMidYMid meet" font-family="sans-serif" font-size="13">
<rect width="1132" height="680" fill="white"/>
<text x="12" y="30" font-size="20" font-weight="bold">conformance — full phase breakdown across releases (median ms)</text>
<text x="68" y="60" font-size="15" font-weight="600" fill="#1a1a1a">conformance<tspan fill="#888" font-weight="400" text-decoration="none">  0.94×</tspan></text>
<line x1="68.0" y1="516.0" x2="1108.0" y2="516.0" stroke="#eee"/>
<text x="64.0" y="519.0" text-anchor="end" fill="#999">0.0</text>
<line x1="68.0" y1="296.0" x2="1108.0" y2="296.0" stroke="#eee"/>
<text x="64.0" y="299.0" text-anchor="end" fill="#999">46</text>
<line x1="68.0" y1="76.0" x2="1108.0" y2="76.0" stroke="#eee"/>
<text x="64.0" y="79.0" text-anchor="end" fill="#999">93</text>
<line x1="68.0" y1="76.0" x2="68.0" y2="516.0" stroke="#333"/>
<line x1="68.0" y1="516.0" x2="1108.0" y2="516.0" stroke="#333"/>
<line x1="725.6" y1="76.0" x2="725.6" y2="516.0" stroke="#e8731a" stroke-width="1.2" stroke-dasharray="4 3"/>
<text x="728.6" y="87.0" fill="#e8731a" font-size="11">daily →</text>
<line x1="68.0" y1="516.0" x2="68.0" y2="519.0" stroke="#999"/>
<text x="68.0" y="531.0" text-anchor="end" fill="#666" transform="rotate(-50 68.0 531.0)">25.14</text>
<line x1="98.6" y1="516.0" x2="98.6" y2="519.0" stroke="#999"/>
<text x="98.6" y="531.0" text-anchor="end" fill="#666" transform="rotate(-50 98.6 531.0)">25.15</text>
<line x1="129.2" y1="516.0" x2="129.2" y2="519.0" stroke="#999"/>
<text x="129.2" y="531.0" text-anchor="end" fill="#666" transform="rotate(-50 129.2 531.0)">25.16</text>
<line x1="159.8" y1="516.0" x2="159.8" y2="519.0" stroke="#999"/>
<text x="159.8" y="531.0" text-anchor="end" fill="#666" transform="rotate(-50 159.8 531.0)">25.17</text>
<line x1="190.4" y1="516.0" x2="190.4" y2="519.0" stroke="#999"/>
<text x="190.4" y="531.0" text-anchor="end" fill="#666" transform="rotate(-50 190.4 531.0)">25.18</text>
<line x1="220.9" y1="516.0" x2="220.9" y2="519.0" stroke="#999"/>
<text x="220.9" y="531.0" text-anchor="end" fill="#666" transform="rotate(-50 220.9 531.0)">25.19</text>
<line x1="251.5" y1="516.0" x2="251.5" y2="519.0" stroke="#999"/>
<text x="251.5" y="531.0" text-anchor="end" fill="#666" transform="rotate(-50 251.5 531.0)">25.20</text>
<line x1="282.1" y1="516.0" x2="282.1" y2="519.0" stroke="#999"/>
<text x="282.1" y="531.0" text-anchor="end" fill="#666" transform="rotate(-50 282.1 531.0)">25.21</text>
<line x1="312.7" y1="516.0" x2="312.7" y2="519.0" stroke="#999"/>
<text x="312.7" y="531.0" text-anchor="end" fill="#666" transform="rotate(-50 312.7 531.0)">25.22</text>
<line x1="343.3" y1="516.0" x2="343.3" y2="519.0" stroke="#999"/>
<text x="343.3" y="531.0" text-anchor="end" fill="#666" transform="rotate(-50 343.3 531.0)">25.23</text>
<line x1="373.9" y1="516.0" x2="373.9" y2="519.0" stroke="#999"/>
<text x="373.9" y="531.0" text-anchor="end" fill="#666" transform="rotate(-50 373.9 531.0)">25.24</text>
<line x1="404.5" y1="516.0" x2="404.5" y2="519.0" stroke="#999"/>
<text x="404.5" y="531.0" text-anchor="end" fill="#666" transform="rotate(-50 404.5 531.0)">26.1</text>
<line x1="435.1" y1="516.0" x2="435.1" y2="519.0" stroke="#999"/>
<text x="435.1" y="531.0" text-anchor="end" fill="#666" transform="rotate(-50 435.1 531.0)">26.2</text>
<line x1="465.6" y1="516.0" x2="465.6" y2="519.0" stroke="#999"/>
<text x="465.6" y="531.0" text-anchor="end" fill="#666" transform="rotate(-50 465.6 531.0)">26.3</text>
<line x1="496.2" y1="516.0" x2="496.2" y2="519.0" stroke="#999"/>
<text x="496.2" y="531.0" text-anchor="end" fill="#666" transform="rotate(-50 496.2 531.0)">26.4</text>
<line x1="526.8" y1="516.0" x2="526.8" y2="519.0" stroke="#999"/>
<text x="526.8" y="531.0" text-anchor="end" fill="#666" transform="rotate(-50 526.8 531.0)">26.5</text>
<line x1="557.4" y1="516.0" x2="557.4" y2="519.0" stroke="#999"/>
<text x="557.4" y="531.0" text-anchor="end" fill="#666" transform="rotate(-50 557.4 531.0)">26.7</text>
<line x1="588.0" y1="516.0" x2="588.0" y2="519.0" stroke="#999"/>
<text x="588.0" y="531.0" text-anchor="end" fill="#666" transform="rotate(-50 588.0 531.0)">26.8</text>
<line x1="618.6" y1="516.0" x2="618.6" y2="519.0" stroke="#999"/>
<text x="618.6" y="531.0" text-anchor="end" fill="#666" transform="rotate(-50 618.6 531.0)">26.9</text>
<line x1="649.2" y1="516.0" x2="649.2" y2="519.0" stroke="#999"/>
<text x="649.2" y="531.0" text-anchor="end" fill="#666" transform="rotate(-50 649.2 531.0)">26.10</text>
<line x1="679.8" y1="516.0" x2="679.8" y2="519.0" stroke="#999"/>
<text x="679.8" y="531.0" text-anchor="end" fill="#666" transform="rotate(-50 679.8 531.0)">26.11</text>
<line x1="710.4" y1="516.0" x2="710.4" y2="519.0" stroke="#999"/>
<text x="710.4" y="531.0" text-anchor="end" fill="#666" transform="rotate(-50 710.4 531.0)">26.12</text>
<line x1="740.9" y1="516.0" x2="740.9" y2="519.0" stroke="#999"/>
<text x="740.9" y="531.0" text-anchor="end" fill="#e8731a" transform="rotate(-50 740.9 531.0)">06-25</text>
<line x1="771.5" y1="516.0" x2="771.5" y2="519.0" stroke="#999"/>
<text x="771.5" y="531.0" text-anchor="end" fill="#e8731a" transform="rotate(-50 771.5 531.0)">06-26</text>
<line x1="802.1" y1="516.0" x2="802.1" y2="519.0" stroke="#999"/>
<text x="802.1" y="531.0" text-anchor="end" fill="#e8731a" transform="rotate(-50 802.1 531.0)">06-28</text>
<line x1="832.7" y1="516.0" x2="832.7" y2="519.0" stroke="#999"/>
<text x="832.7" y="531.0" text-anchor="end" fill="#e8731a" transform="rotate(-50 832.7 531.0)">07-01</text>
<line x1="863.3" y1="516.0" x2="863.3" y2="519.0" stroke="#999"/>
<text x="863.3" y="531.0" text-anchor="end" fill="#e8731a" transform="rotate(-50 863.3 531.0)">07-02</text>
<line x1="893.9" y1="516.0" x2="893.9" y2="519.0" stroke="#999"/>
<text x="893.9" y="531.0" text-anchor="end" fill="#e8731a" transform="rotate(-50 893.9 531.0)">07-03</text>
<line x1="924.5" y1="516.0" x2="924.5" y2="519.0" stroke="#999"/>
<text x="924.5" y="531.0" text-anchor="end" fill="#e8731a" transform="rotate(-50 924.5 531.0)">07-06</text>
<line x1="955.1" y1="516.0" x2="955.1" y2="519.0" stroke="#999"/>
<text x="955.1" y="531.0" text-anchor="end" fill="#e8731a" transform="rotate(-50 955.1 531.0)">07-07</text>
<line x1="985.6" y1="516.0" x2="985.6" y2="519.0" stroke="#999"/>
<text x="985.6" y="531.0" text-anchor="end" fill="#e8731a" transform="rotate(-50 985.6 531.0)">07-07</text>
<line x1="1016.2" y1="516.0" x2="1016.2" y2="519.0" stroke="#999"/>
<text x="1016.2" y="531.0" text-anchor="end" fill="#e8731a" transform="rotate(-50 1016.2 531.0)">07-09</text>
<line x1="1046.8" y1="516.0" x2="1046.8" y2="519.0" stroke="#999"/>
<text x="1046.8" y="531.0" text-anchor="end" fill="#e8731a" transform="rotate(-50 1046.8 531.0)">07-10</text>
<line x1="1077.4" y1="516.0" x2="1077.4" y2="519.0" stroke="#999"/>
<text x="1077.4" y="531.0" text-anchor="end" fill="#e8731a" transform="rotate(-50 1077.4 531.0)">07-11</text>
<line x1="1108.0" y1="516.0" x2="1108.0" y2="519.0" stroke="#999"/>
<text x="1108.0" y="531.0" text-anchor="end" fill="#e8731a" transform="rotate(-50 1108.0 531.0)">07-11</text>
<polygon points="68.0,498.3 98.6,498.7 129.2,498.7 159.8,498.5 190.4,497.9 220.9,497.7 251.5,497.3 282.1,496.3 312.7,495.6 343.3,497.9 373.9,495.8 404.5,496.7 435.1,496.4 465.6,496.4 496.2,496.5 526.8,495.9 557.4,495.6 588.0,495.1 618.6,495.7 649.2,495.3 679.8,495.7 710.4,495.5 740.9,491.4 771.5,493.0 802.1,492.6 832.7,493.3 863.3,493.0 893.9,492.6 924.5,492.7 955.1,493.2 985.6,493.9 1016.2,494.3 1046.8,493.8 1077.4,493.4 1108.0,494.2 1108.0,516.0 1077.4,516.0 1046.8,516.0 1016.2,516.0 985.6,516.0 955.1,516.0 924.5,516.0 893.9,516.0 863.3,516.0 832.7,516.0 802.1,516.0 771.5,516.0 740.9,516.0 710.4,516.0 679.8,516.0 649.2,516.0 618.6,516.0 588.0,516.0 557.4,516.0 526.8,516.0 496.2,516.0 465.6,516.0 435.1,516.0 404.5,516.0 373.9,516.0 343.3,516.0 312.7,516.0 282.1,516.0 251.5,516.0 220.9,516.0 190.4,516.0 159.8,516.0 129.2,516.0 98.6,516.0 68.0,516.0" fill="#c7e9c0" fill-opacity="0.9" stroke="#fff" stroke-width="0.4"><title>conformance — parseTranslationUnit</title></polygon>
<polygon points="68.0,386.5 98.6,345.3 129.2,341.6 159.8,340.6 190.4,335.4 220.9,333.1 251.5,330.3 282.1,315.0 312.7,341.8 343.3,343.6 373.9,341.3 404.5,352.9 435.1,351.5 465.6,351.1 496.2,352.0 526.8,350.4 557.4,309.6 588.0,308.4 618.6,311.9 649.2,307.9 679.8,428.4 710.4,426.3 740.9,418.4 771.5,420.7 802.1,419.8 832.7,418.2 863.3,418.5 893.9,418.6 924.5,419.4 955.1,417.5 985.6,419.4 1016.2,420.1 1046.8,418.7 1077.4,419.5 1108.0,430.1 1108.0,494.2 1077.4,493.4 1046.8,493.8 1016.2,494.3 985.6,493.9 955.1,493.2 924.5,492.7 893.9,492.6 863.3,493.0 832.7,493.3 802.1,492.6 771.5,493.0 740.9,491.4 710.4,495.5 679.8,495.7 649.2,495.3 618.6,495.7 588.0,495.1 557.4,495.6 526.8,495.9 496.2,496.5 465.6,496.4 435.1,496.4 404.5,496.7 373.9,495.8 343.3,497.9 312.7,495.6 282.1,496.3 251.5,497.3 220.9,497.7 190.4,497.9 159.8,498.5 129.2,498.7 98.6,498.7 68.0,498.3" fill="#41ab5d" fill-opacity="0.9" stroke="#fff" stroke-width="0.4"><title>conformance — SemanticChecking</title></polygon>
<polygon points="68.0,292.5 98.6,250.2 129.2,244.7 159.8,246.6 190.4,238.0 220.9,233.4 251.5,230.2 282.1,212.7 312.7,236.6 343.3,244.0 373.9,244.6 404.5,254.9 435.1,257.0 465.6,255.1 496.2,257.7 526.8,256.1 557.4,204.6 588.0,201.5 618.6,205.2 649.2,199.6 679.8,332.0 710.4,328.0 740.9,312.3 771.5,315.2 802.1,312.7 832.7,309.8 863.3,312.1 893.9,311.2 924.5,312.8 955.1,307.8 985.6,311.2 1016.2,312.6 1046.8,309.8 1077.4,308.7 1108.0,319.0 1108.0,430.1 1077.4,419.5 1046.8,418.7 1016.2,420.1 985.6,419.4 955.1,417.5 924.5,419.4 893.9,418.6 863.3,418.5 832.7,418.2 802.1,419.8 771.5,420.7 740.9,418.4 710.4,426.3 679.8,428.4 649.2,307.9 618.6,311.9 588.0,308.4 557.4,309.6 526.8,350.4 496.2,352.0 465.6,351.1 435.1,351.5 404.5,352.9 373.9,341.3 343.3,343.6 312.7,341.8 282.1,315.0 251.5,330.3 220.9,333.1 190.4,335.4 159.8,340.6 129.2,341.6 98.6,345.3 68.0,386.5" fill="#006d2c" fill-opacity="0.9" stroke="#fff" stroke-width="0.4"><title>conformance — generateIR</title></polygon>
<polygon points="68.0,291.9 98.6,248.5 129.2,243.2 159.8,244.2 190.4,237.8 220.9,230.9 251.5,229.3 282.1,208.5 312.7,236.6 343.3,241.1 373.9,241.2 404.5,251.6 435.1,257.0 465.6,251.6 496.2,256.9 526.8,256.1 557.4,202.7 588.0,201.5 618.6,204.9 649.2,198.4 679.8,330.4 710.4,327.3 740.9,311.2 771.5,313.2 802.1,310.9 832.7,309.4 863.3,310.6 893.9,310.3 924.5,311.5 955.1,307.8 985.6,310.3 1016.2,311.0 1046.8,309.5 1077.4,308.1 1108.0,318.0 1108.0,319.0 1077.4,308.7 1046.8,309.8 1016.2,312.6 985.6,311.2 955.1,307.8 924.5,312.8 893.9,311.2 863.3,312.1 832.7,309.8 802.1,312.7 771.5,315.2 740.9,312.3 710.4,328.0 679.8,332.0 649.2,199.6 618.6,205.2 588.0,201.5 557.4,204.6 526.8,256.1 496.2,257.7 465.6,255.1 435.1,257.0 404.5,254.9 373.9,244.6 343.3,244.0 312.7,236.6 282.1,212.7 251.5,230.2 220.9,233.4 190.4,238.0 159.8,246.6 129.2,244.7 98.6,250.2 68.0,292.5" fill="#74c476" fill-opacity="0.9" stroke="#fff" stroke-width="0.4"><title>conformance — frontEndExecute (self)</title></polygon>
<polygon points="68.0,202.2 98.6,162.1 129.2,157.4 159.8,154.6 190.4,138.3 220.9,139.7 251.5,136.1 282.1,114.2 312.7,142.5 343.3,150.8 373.9,154.8 404.5,163.9 435.1,173.9 465.6,167.9 496.2,173.8 526.8,173.4 557.4,119.0 588.0,116.1 618.6,121.5 649.2,113.8 679.8,250.2 710.4,248.4 740.9,216.3 771.5,218.8 802.1,212.5 832.7,215.6 863.3,215.1 893.9,217.3 924.5,219.8 955.1,207.9 985.6,216.7 1016.2,217.7 1046.8,217.0 1077.4,215.7 1108.0,220.3 1108.0,318.0 1077.4,308.1 1046.8,309.5 1016.2,311.0 985.6,310.3 955.1,307.8 924.5,311.5 893.9,310.3 863.3,310.6 832.7,309.4 802.1,310.9 771.5,313.2 740.9,311.2 710.4,327.3 679.8,330.4 649.2,198.4 618.6,204.9 588.0,201.5 557.4,202.7 526.8,256.1 496.2,256.9 465.6,251.6 435.1,257.0 404.5,251.6 373.9,241.2 343.3,241.1 312.7,236.6 282.1,208.5 251.5,229.3 220.9,230.9 190.4,237.8 159.8,244.2 129.2,243.2 98.6,248.5 68.0,291.9" fill="#e6550d" fill-opacity="0.9" stroke="#fff" stroke-width="0.4"><title>conformance — generateOutput (self)</title></polygon>
<polygon points="68.0,201.1 98.6,156.2 129.2,157.4 159.8,152.5 190.4,138.3 220.9,137.5 251.5,136.1 282.1,113.5 312.7,137.8 343.3,149.5 373.9,154.8 404.5,163.9 435.1,173.9 465.6,166.5 496.2,173.4 526.8,173.4 557.4,116.8 588.0,108.6 618.6,119.1 649.2,112.2 679.8,250.2 710.4,247.4 740.9,216.3 771.5,218.8 802.1,212.5 832.7,214.8 863.3,215.1 893.9,217.3 924.5,217.6 955.1,205.4 985.6,216.7 1016.2,217.7 1046.8,216.7 1077.4,215.7 1108.0,219.9 1108.0,220.3 1077.4,215.7 1046.8,217.0 1016.2,217.7 985.6,216.7 955.1,207.9 924.5,219.8 893.9,217.3 863.3,215.1 832.7,215.6 802.1,212.5 771.5,218.8 740.9,216.3 710.4,248.4 679.8,250.2 649.2,113.8 618.6,121.5 588.0,116.1 557.4,119.0 526.8,173.4 496.2,173.8 465.6,167.9 435.1,173.9 404.5,163.9 373.9,154.8 343.3,150.8 312.7,142.5 282.1,114.2 251.5,136.1 220.9,139.7 190.4,138.3 159.8,154.6 129.2,157.4 98.6,162.1 68.0,202.2" fill="#969696" fill-opacity="0.9" stroke="#fff" stroke-width="0.4"><title>conformance — compileInner (self)</title></polygon>
<text x="12" y="578" fill="#666" font-weight="600">phase buckets</text>
<rect x="12" y="586" width="12" height="12" fill="#c7e9c0"/>
<text x="28" y="596" fill="#222">parseTranslationUnit</text>
<rect x="289" y="586" width="12" height="12" fill="#41ab5d"/>
<text x="305" y="596" fill="#222">SemanticChecking</text>
<rect x="566" y="586" width="12" height="12" fill="#006d2c"/>
<text x="582" y="596" fill="#222">generateIR</text>
<rect x="843" y="586" width="12" height="12" fill="#74c476"/>
<text x="859" y="596" fill="#222">frontEndExecute (self)</text>
<rect x="12" y="604" width="12" height="12" fill="#6baed6"/>
<text x="28" y="614" fill="#222">specializeModule</text>
<rect x="289" y="604" width="12" height="12" fill="#2171b5"/>
<text x="305" y="614" fill="#222">simplifyIR</text>
<rect x="566" y="604" width="12" height="12" fill="#08306b"/>
<text x="582" y="614" fill="#222">linkIR</text>
<rect x="843" y="604" width="12" height="12" fill="#9e9ac8"/>
<text x="859" y="614" fill="#222">unrollLoopsInModule</text>
<rect x="12" y="622" width="12" height="12" fill="#807dba"/>
<text x="28" y="632" fill="#222">legalizeResourceTypes</text>
<rect x="289" y="622" width="12" height="12" fill="#6a51a3"/>
<text x="305" y="632" fill="#222">legalizeExistentialTypeLayout</text>
<rect x="566" y="622" width="12" height="12" fill="#bcbddc"/>
<text x="582" y="632" fill="#222">performMandatoryEarlyInlining</text>
<rect x="843" y="622" width="12" height="12" fill="#dadaeb"/>
<text x="859" y="632" fill="#222">performForceInlining</text>
<rect x="12" y="640" width="12" height="12" fill="#4a1486"/>
<text x="28" y="650" fill="#222">linkAndOptimizeIR (self)</text>
<rect x="289" y="640" width="12" height="12" fill="#fd8d3c"/>
<text x="305" y="650" fill="#222">emitEntryPointsSourceFromIR</text>
<rect x="566" y="640" width="12" height="12" fill="#e6550d"/>
<text x="582" y="650" fill="#222">generateOutput (self)</text>
<rect x="843" y="640" width="12" height="12" fill="#969696"/>
<text x="859" y="650" fill="#222">compileInner (self)</text>
</svg>