<svg xmlns="http://www.w3.org/2000/svg" xmlns:xlink="http://www.w3.org/1999/xlink" width="1132" height="680" viewBox="0 0 1132 680" preserveAspectRatio="xMidYMid meet" font-family="sans-serif" font-size="13">
<rect width="1132" height="680" fill="white"/>
<text x="12" y="30" font-size="20" font-weight="bold">conformance — Across releases (median ms)</text>
<text x="68" y="60" font-size="15" font-weight="600" fill="#1a1a1a">conformance<tspan fill="#888" font-weight="400" text-decoration="none">  0.79×</tspan></text>
<line x1="68.0" y1="516.0" x2="1108.0" y2="516.0" stroke="#eee"/>
<text x="64.0" y="519.0" text-anchor="end" fill="#999">0.0</text>
<line x1="68.0" y1="296.0" x2="1108.0" y2="296.0" stroke="#eee"/>
<text x="64.0" y="299.0" text-anchor="end" fill="#999">54</text>
<line x1="68.0" y1="76.0" x2="1108.0" y2="76.0" stroke="#eee"/>
<text x="64.0" y="79.0" text-anchor="end" fill="#999">108</text>
<line x1="68.0" y1="76.0" x2="68.0" y2="516.0" stroke="#333"/>
<line x1="68.0" y1="516.0" x2="1108.0" y2="516.0" stroke="#333"/>
<line x1="68.0" y1="516.0" x2="68.0" y2="519.0" stroke="#999"/>
<text x="68.0" y="531.0" text-anchor="end" fill="#666" transform="rotate(-50 68.0 531.0)">25.12</text>
<line x1="108.0" y1="516.0" x2="108.0" y2="519.0" stroke="#999"/>
<text x="108.0" y="531.0" text-anchor="end" fill="#666" transform="rotate(-50 108.0 531.0)">25.13</text>
<line x1="148.0" y1="516.0" x2="148.0" y2="519.0" stroke="#999"/>
<text x="148.0" y="531.0" text-anchor="end" fill="#666" transform="rotate(-50 148.0 531.0)">25.14</text>
<line x1="188.0" y1="516.0" x2="188.0" y2="519.0" stroke="#999"/>
<text x="188.0" y="531.0" text-anchor="end" fill="#666" transform="rotate(-50 188.0 531.0)">25.15</text>
<line x1="228.0" y1="516.0" x2="228.0" y2="519.0" stroke="#999"/>
<text x="228.0" y="531.0" text-anchor="end" fill="#666" transform="rotate(-50 228.0 531.0)">25.16</text>
<line x1="268.0" y1="516.0" x2="268.0" y2="519.0" stroke="#999"/>
<text x="268.0" y="531.0" text-anchor="end" fill="#666" transform="rotate(-50 268.0 531.0)">25.17</text>
<line x1="308.0" y1="516.0" x2="308.0" y2="519.0" stroke="#999"/>
<text x="308.0" y="531.0" text-anchor="end" fill="#666" transform="rotate(-50 308.0 531.0)">25.18</text>
<line x1="348.0" y1="516.0" x2="348.0" y2="519.0" stroke="#999"/>
<text x="348.0" y="531.0" text-anchor="end" fill="#666" transform="rotate(-50 348.0 531.0)">25.19</text>
<line x1="388.0" y1="516.0" x2="388.0" y2="519.0" stroke="#999"/>
<text x="388.0" y="531.0" text-anchor="end" fill="#666" transform="rotate(-50 388.0 531.0)">25.20</text>
<line x1="428.0" y1="516.0" x2="428.0" y2="519.0" stroke="#999"/>
<text x="428.0" y="531.0" text-anchor="end" fill="#666" transform="rotate(-50 428.0 531.0)">25.21</text>
<line x1="468.0" y1="516.0" x2="468.0" y2="519.0" stroke="#999"/>
<text x="468.0" y="531.0" text-anchor="end" fill="#666" transform="rotate(-50 468.0 531.0)">25.22</text>
<line x1="508.0" y1="516.0" x2="508.0" y2="519.0" stroke="#999"/>
<text x="508.0" y="531.0" text-anchor="end" fill="#666" transform="rotate(-50 508.0 531.0)">25.23</text>
<line x1="548.0" y1="516.0" x2="548.0" y2="519.0" stroke="#999"/>
<text x="548.0" y="531.0" text-anchor="end" fill="#666" transform="rotate(-50 548.0 531.0)">25.24</text>
<line x1="588.0" y1="516.0" x2="588.0" y2="519.0" stroke="#999"/>
<text x="588.0" y="531.0" text-anchor="end" fill="#666" transform="rotate(-50 588.0 531.0)">26.1</text>
<line x1="628.0" y1="516.0" x2="628.0" y2="519.0" stroke="#999"/>
<text x="628.0" y="531.0" text-anchor="end" fill="#666" transform="rotate(-50 628.0 531.0)">26.2</text>
<line x1="668.0" y1="516.0" x2="668.0" y2="519.0" stroke="#999"/>
<text x="668.0" y="531.0" text-anchor="end" fill="#666" transform="rotate(-50 668.0 531.0)">26.3</text>
<line x1="708.0" y1="516.0" x2="708.0" y2="519.0" stroke="#999"/>
<text x="708.0" y="531.0" text-anchor="end" fill="#666" transform="rotate(-50 708.0 531.0)">26.4</text>
<line x1="748.0" y1="516.0" x2="748.0" y2="519.0" stroke="#999"/>
<text x="748.0" y="531.0" text-anchor="end" fill="#666" transform="rotate(-50 748.0 531.0)">26.5</text>
<line x1="788.0" y1="516.0" x2="788.0" y2="519.0" stroke="#999"/>
<text x="788.0" y="531.0" text-anchor="end" fill="#666" transform="rotate(-50 788.0 531.0)">26.7</text>
<line x1="828.0" y1="516.0" x2="828.0" y2="519.0" stroke="#999"/>
<text x="828.0" y="531.0" text-anchor="end" fill="#666" transform="rotate(-50 828.0 531.0)">26.8</text>
<line x1="868.0" y1="516.0" x2="868.0" y2="519.0" stroke="#999"/>
<text x="868.0" y="531.0" text-anchor="end" fill="#666" transform="rotate(-50 868.0 531.0)">26.9</text>
<line x1="908.0" y1="516.0" x2="908.0" y2="519.0" stroke="#999"/>
<text x="908.0" y="531.0" text-anchor="end" fill="#666" transform="rotate(-50 908.0 531.0)">26.10</text>
<line x1="948.0" y1="516.0" x2="948.0" y2="519.0" stroke="#999"/>
<text x="948.0" y="531.0" text-anchor="end" fill="#666" transform="rotate(-50 948.0 531.0)">26.11</text>
<line x1="988.0" y1="516.0" x2="988.0" y2="519.0" stroke="#999"/>
<text x="988.0" y="531.0" text-anchor="end" fill="#666" transform="rotate(-50 988.0 531.0)">26.12</text>
<line x1="1028.0" y1="516.0" x2="1028.0" y2="519.0" stroke="#999"/>
<text x="1028.0" y="531.0" text-anchor="end" fill="#666" transform="rotate(-50 1028.0 531.0)">26.13</text>
<line x1="1068.0" y1="516.0" x2="1068.0" y2="519.0" stroke="#999"/>
<text x="1068.0" y="531.0" text-anchor="end" fill="#666" transform="rotate(-50 1068.0 531.0)">26.13.1</text>
<line x1="1108.0" y1="516.0" x2="1108.0" y2="519.0" stroke="#999"/>
<text x="1108.0" y="531.0" text-anchor="end" fill="#666" transform="rotate(-50 1108.0 531.0)">26.14</text>
<polygon points="68.0,503.8 108.0,498.9 148.0,499.7 188.0,501.2 228.0,501.6 268.0,501.0 308.0,501.1 348.0,500.7 388.0,500.7 428.0,500.4 468.0,501.1 508.0,501.1 548.0,499.1 588.0,498.8 628.0,498.5 668.0,498.8 708.0,498.2 748.0,498.3 788.0,495.5 828.0,497.3 868.0,497.2 908.0,496.0 948.0,495.9 988.0,497.9 1028.0,497.7 1068.0,497.7 1108.0,497.8 1108.0,516.0 1068.0,516.0 1028.0,516.0 988.0,516.0 948.0,516.0 908.0,516.0 868.0,516.0 828.0,516.0 788.0,516.0 748.0,516.0 708.0,516.0 668.0,516.0 628.0,516.0 588.0,516.0 548.0,516.0 508.0,516.0 468.0,516.0 428.0,516.0 388.0,516.0 348.0,516.0 308.0,516.0 268.0,516.0 228.0,516.0 188.0,516.0 148.0,516.0 108.0,516.0 68.0,516.0" fill="#c7e9c0" fill-opacity="0.9" stroke="#fff" stroke-width="0.4"><title>conformance — parseTranslationUnit</title></polygon>
<polygon points="68.0,414.5 108.0,407.6 148.0,397.1 188.0,365.7 228.0,370.2 268.0,358.8 308.0,364.3 348.0,363.3 388.0,363.0 428.0,363.9 468.0,374.1 508.0,381.4 548.0,376.1 588.0,374.4 628.0,371.0 668.0,370.2 708.0,365.5 748.0,369.0 788.0,316.3 828.0,333.6 868.0,337.6 908.0,304.6 948.0,422.9 988.0,436.2 1028.0,435.5 1068.0,436.1 1108.0,451.5 1108.0,497.8 1068.0,497.7 1028.0,497.7 988.0,497.9 948.0,495.9 908.0,496.0 868.0,497.2 828.0,497.3 788.0,495.5 748.0,498.3 708.0,498.2 668.0,498.8 628.0,498.5 588.0,498.8 548.0,499.1 508.0,501.1 468.0,501.1 428.0,500.4 388.0,500.7 348.0,500.7 308.0,501.1 268.0,501.0 228.0,501.6 188.0,501.2 148.0,499.7 108.0,498.9 68.0,503.8" fill="#41ab5d" fill-opacity="0.9" stroke="#fff" stroke-width="0.4"><title>conformance — SemanticChecking</title></polygon>
<polygon points="68.0,337.3 108.0,328.5 148.0,314.6 188.0,284.7 228.0,288.8 268.0,275.6 308.0,281.7 348.0,278.5 388.0,279.8 428.0,281.2 468.0,291.3 508.0,299.5 548.0,293.6 588.0,292.2 628.0,288.1 668.0,286.9 708.0,279.6 748.0,285.7 788.0,217.8 828.0,239.0 868.0,244.2 908.0,192.4 948.0,314.9 988.0,350.6 1028.0,349.4 1068.0,350.4 1108.0,373.0 1108.0,451.5 1068.0,436.1 1028.0,435.5 988.0,436.2 948.0,422.9 908.0,304.6 868.0,337.6 828.0,333.6 788.0,316.3 748.0,369.0 708.0,365.5 668.0,370.2 628.0,371.0 588.0,374.4 548.0,376.1 508.0,381.4 468.0,374.1 428.0,363.9 388.0,363.0 348.0,363.3 308.0,364.3 268.0,358.8 228.0,370.2 188.0,365.7 148.0,397.1 108.0,407.6 68.0,414.5" fill="#006d2c" fill-opacity="0.9" stroke="#fff" stroke-width="0.4"><title>conformance — generateIR</title></polygon>
<polygon points="68.0,333.3 108.0,328.1 148.0,308.6 188.0,284.4 228.0,288.8 268.0,275.1 308.0,280.0 348.0,277.0 388.0,278.0 428.0,280.5 468.0,289.9 508.0,299.2 548.0,293.0 588.0,292.2 628.0,287.7 668.0,286.6 708.0,279.0 748.0,285.2 788.0,209.7 828.0,239.0 868.0,243.5 908.0,192.4 948.0,305.9 988.0,350.1 1028.0,348.8 1068.0,349.8 1108.0,370.4 1108.0,373.0 1068.0,350.4 1028.0,349.4 988.0,350.6 948.0,314.9 908.0,192.4 868.0,244.2 828.0,239.0 788.0,217.8 748.0,285.7 708.0,279.6 668.0,286.9 628.0,288.1 588.0,292.2 548.0,293.6 508.0,299.5 468.0,291.3 428.0,281.2 388.0,279.8 348.0,278.5 308.0,281.7 268.0,275.6 228.0,288.8 188.0,284.7 148.0,314.6 108.0,328.5 68.0,337.3" fill="#74c476" fill-opacity="0.9" stroke="#fff" stroke-width="0.4"><title>conformance — frontEndExecute (self)</title></polygon>
<polygon points="68.0,248.0 108.0,255.3 148.0,231.0 188.0,209.6 228.0,215.7 268.0,195.6 308.0,197.4 348.0,200.8 388.0,202.2 428.0,205.3 468.0,217.1 508.0,225.9 548.0,219.5 588.0,218.1 628.0,213.1 668.0,214.4 708.0,203.0 748.0,210.1 788.0,127.8 828.0,166.2 868.0,172.3 908.0,108.9 948.0,218.6 988.0,279.0 1028.0,278.8 1068.0,280.3 1108.0,309.6 1108.0,370.4 1068.0,349.8 1028.0,348.8 988.0,350.1 948.0,305.9 908.0,192.4 868.0,243.5 828.0,239.0 788.0,209.7 748.0,285.2 708.0,279.0 668.0,286.6 628.0,287.7 588.0,292.2 548.0,293.0 508.0,299.2 468.0,289.9 428.0,280.5 388.0,278.0 348.0,277.0 308.0,280.0 268.0,275.1 228.0,288.8 188.0,284.4 148.0,308.6 108.0,328.1 68.0,333.3" fill="#e6550d" fill-opacity="0.9" stroke="#fff" stroke-width="0.4"><title>conformance — generateOutput (self)</title></polygon>
<polygon points="68.0,248.0 108.0,255.3 148.0,231.0 188.0,209.6 228.0,215.7 268.0,193.7 308.0,196.6 348.0,200.8 388.0,200.8 428.0,203.5 468.0,214.2 508.0,225.0 548.0,219.5 588.0,218.1 628.0,212.8 668.0,212.9 708.0,201.6 748.0,210.1 788.0,108.6 828.0,164.9 868.0,169.2 908.0,108.9 948.0,218.6 988.0,278.6 1028.0,277.6 1068.0,280.3 1108.0,304.3 1108.0,309.6 1068.0,280.3 1028.0,278.8 988.0,279.0 948.0,218.6 908.0,108.9 868.0,172.3 828.0,166.2 788.0,127.8 748.0,210.1 708.0,203.0 668.0,214.4 628.0,213.1 588.0,218.1 548.0,219.5 508.0,225.9 468.0,217.1 428.0,205.3 388.0,202.2 348.0,200.8 308.0,197.4 268.0,195.6 228.0,215.7 188.0,209.6 148.0,231.0 108.0,255.3 68.0,248.0" fill="#969696" fill-opacity="0.9" stroke="#fff" stroke-width="0.4"><title>conformance — compileInner (self)</title></polygon>
<text x="12" y="578" fill="#666" font-weight="600">phase buckets</text>
<rect x="12" y="586" width="12" height="12" fill="#c7e9c0"/>
<text x="28" y="596" fill="#222">parseTranslationUnit</text>
<rect x="289" y="586" width="12" height="12" fill="#41ab5d"/>
<text x="305" y="596" fill="#222">SemanticChecking</text>
<rect x="566" y="586" width="12" height="12" fill="#006d2c"/>
<text x="582" y="596" fill="#222">generateIR</text>
<rect x="843" y="586" width="12" height="12" fill="#74c476"/>
<text x="859" y="596" fill="#222">frontEndExecute (self)</text>
<rect x="12" y="604" width="12" height="12" fill="#6baed6"/>
<text x="28" y="614" fill="#222">specializeModule</text>
<rect x="289" y="604" width="12" height="12" fill="#2171b5"/>
<text x="305" y="614" fill="#222">simplifyIR</text>
<rect x="566" y="604" width="12" height="12" fill="#08306b"/>
<text x="582" y="614" fill="#222">linkIR</text>
<rect x="843" y="604" width="12" height="12" fill="#9e9ac8"/>
<text x="859" y="614" fill="#222">unrollLoopsInModule</text>
<rect x="12" y="622" width="12" height="12" fill="#807dba"/>
<text x="28" y="632" fill="#222">legalizeResourceTypes</text>
<rect x="289" y="622" width="12" height="12" fill="#6a51a3"/>
<text x="305" y="632" fill="#222">legalizeExistentialTypeLayout</text>
<rect x="566" y="622" width="12" height="12" fill="#bcbddc"/>
<text x="582" y="632" fill="#222">performMandatoryEarlyInlining</text>
<rect x="843" y="622" width="12" height="12" fill="#dadaeb"/>
<text x="859" y="632" fill="#222">performForceInlining</text>
<rect x="12" y="640" width="12" height="12" fill="#4a1486"/>
<text x="28" y="650" fill="#222">linkAndOptimizeIR (self)</text>
<rect x="289" y="640" width="12" height="12" fill="#fd8d3c"/>
<text x="305" y="650" fill="#222">emitEntryPointsSourceFromIR</text>
<rect x="566" y="640" width="12" height="12" fill="#e6550d"/>
<text x="582" y="650" fill="#222">generateOutput (self)</text>
<rect x="843" y="640" width="12" height="12" fill="#969696"/>
<text x="859" y="650" fill="#222">compileInner (self)</text>
</svg>