<svg xmlns="http://www.w3.org/2000/svg" xmlns:xlink="http://www.w3.org/1999/xlink" width="1132" height="680" viewBox="0 0 1132 680" preserveAspectRatio="xMidYMid meet" font-family="sans-serif" font-size="13">
<rect width="1132" height="680" fill="white"/>
<text x="12" y="30" font-size="20" font-weight="bold">control_flow_ssa — Daily tip-of-tree (last 30 days) (median ms)</text>
<text x="68" y="60" font-size="15" font-weight="600" fill="#1a1a1a">control_flow_ssa<tspan fill="#888" font-weight="400" text-decoration="none">  0.83×</tspan></text>
<line x1="68.0" y1="516.0" x2="1108.0" y2="516.0" stroke="#eee"/>
<text x="64.0" y="519.0" text-anchor="end" fill="#999">0.0</text>
<line x1="68.0" y1="296.0" x2="1108.0" y2="296.0" stroke="#eee"/>
<text x="64.0" y="299.0" text-anchor="end" fill="#999">130</text>
<line x1="68.0" y1="76.0" x2="1108.0" y2="76.0" stroke="#eee"/>
<text x="64.0" y="79.0" text-anchor="end" fill="#999">260</text>
<line x1="68.0" y1="76.0" x2="68.0" y2="516.0" stroke="#333"/>
<line x1="68.0" y1="516.0" x2="1108.0" y2="516.0" stroke="#333"/>
<line x1="68.0" y1="516.0" x2="68.0" y2="519.0" stroke="#999"/>
<text x="68.0" y="531.0" text-anchor="end" fill="#e8731a" transform="rotate(-50 68.0 531.0)">06-25</text>
<line x1="142.3" y1="516.0" x2="142.3" y2="519.0" stroke="#999"/>
<text x="142.3" y="531.0" text-anchor="end" fill="#e8731a" transform="rotate(-50 142.3 531.0)">06-26</text>
<line x1="216.6" y1="516.0" x2="216.6" y2="519.0" stroke="#999"/>
<text x="216.6" y="531.0" text-anchor="end" fill="#e8731a" transform="rotate(-50 216.6 531.0)">06-28</text>
<line x1="290.9" y1="516.0" x2="290.9" y2="519.0" stroke="#999"/>
<text x="290.9" y="531.0" text-anchor="end" fill="#e8731a" transform="rotate(-50 290.9 531.0)">07-01</text>
<line x1="365.1" y1="516.0" x2="365.1" y2="519.0" stroke="#999"/>
<text x="365.1" y="531.0" text-anchor="end" fill="#e8731a" transform="rotate(-50 365.1 531.0)">07-02</text>
<line x1="439.4" y1="516.0" x2="439.4" y2="519.0" stroke="#999"/>
<text x="439.4" y="531.0" text-anchor="end" fill="#e8731a" transform="rotate(-50 439.4 531.0)">07-03</text>
<line x1="513.7" y1="516.0" x2="513.7" y2="519.0" stroke="#999"/>
<text x="513.7" y="531.0" text-anchor="end" fill="#e8731a" transform="rotate(-50 513.7 531.0)">07-06</text>
<line x1="588.0" y1="516.0" x2="588.0" y2="519.0" stroke="#999"/>
<text x="588.0" y="531.0" text-anchor="end" fill="#e8731a" transform="rotate(-50 588.0 531.0)">07-07</text>
<line x1="662.3" y1="516.0" x2="662.3" y2="519.0" stroke="#999"/>
<text x="662.3" y="531.0" text-anchor="end" fill="#e8731a" transform="rotate(-50 662.3 531.0)">07-08</text>
<line x1="736.6" y1="516.0" x2="736.6" y2="519.0" stroke="#999"/>
<text x="736.6" y="531.0" text-anchor="end" fill="#e8731a" transform="rotate(-50 736.6 531.0)">07-09</text>
<line x1="810.9" y1="516.0" x2="810.9" y2="519.0" stroke="#999"/>
<text x="810.9" y="531.0" text-anchor="end" fill="#e8731a" transform="rotate(-50 810.9 531.0)">07-10</text>
<line x1="885.1" y1="516.0" x2="885.1" y2="519.0" stroke="#999"/>
<text x="885.1" y="531.0" text-anchor="end" fill="#e8731a" transform="rotate(-50 885.1 531.0)">07-11</text>
<line x1="959.4" y1="516.0" x2="959.4" y2="519.0" stroke="#999"/>
<text x="959.4" y="531.0" text-anchor="end" fill="#e8731a" transform="rotate(-50 959.4 531.0)">07-14</text>
<line x1="1033.7" y1="516.0" x2="1033.7" y2="519.0" stroke="#999"/>
<text x="1033.7" y="531.0" text-anchor="end" fill="#e8731a" transform="rotate(-50 1033.7 531.0)">07-15</text>
<line x1="1108.0" y1="516.0" x2="1108.0" y2="519.0" stroke="#999"/>
<text x="1108.0" y="531.0" text-anchor="end" fill="#e8731a" transform="rotate(-50 1108.0 531.0)">07-15</text>
<polygon points="68.0,513.7 142.3,513.7 216.6,513.6 290.9,513.7 365.1,513.7 439.4,513.7 513.7,513.6 588.0,514.0 662.3,514.1 736.6,514.0 810.9,514.0 885.1,513.9 959.4,514.1 1033.7,514.1 1108.0,514.2 1108.0,516.0 1033.7,516.0 959.4,516.0 885.1,516.0 810.9,516.0 736.6,516.0 662.3,516.0 588.0,516.0 513.7,516.0 439.4,516.0 365.1,516.0 290.9,516.0 216.6,516.0 142.3,516.0 68.0,516.0" fill="#c7e9c0" fill-opacity="0.9" stroke="#fff" stroke-width="0.4"><title>control_flow_ssa — parseTranslationUnit</title></polygon>
<polygon points="68.0,467.1 142.3,466.6 216.6,467.0 290.9,467.2 365.1,467.6 439.4,468.0 513.7,466.5 588.0,470.2 662.3,469.0 736.6,469.6 810.9,469.0 885.1,467.7 959.4,468.9 1033.7,470.8 1108.0,471.0 1108.0,514.2 1033.7,514.1 959.4,514.1 885.1,513.9 810.9,514.0 736.6,514.0 662.3,514.1 588.0,514.0 513.7,513.6 439.4,513.7 365.1,513.7 290.9,513.7 216.6,513.6 142.3,513.7 68.0,513.7" fill="#41ab5d" fill-opacity="0.9" stroke="#fff" stroke-width="0.4"><title>control_flow_ssa — SemanticChecking</title></polygon>
<polygon points="68.0,428.1 142.3,427.2 216.6,427.8 290.9,427.3 365.1,428.1 439.4,428.6 513.7,427.4 588.0,430.7 662.3,428.7 736.6,429.7 810.9,428.9 885.1,427.3 959.4,429.6 1033.7,434.4 1108.0,432.6 1108.0,471.0 1033.7,470.8 959.4,468.9 885.1,467.7 810.9,469.0 736.6,469.6 662.3,469.0 588.0,470.2 513.7,466.5 439.4,468.0 365.1,467.6 290.9,467.2 216.6,467.0 142.3,466.6 68.0,467.1" fill="#006d2c" fill-opacity="0.9" stroke="#fff" stroke-width="0.4"><title>control_flow_ssa — generateIR</title></polygon>
<polygon points="68.0,427.5 142.3,426.6 216.6,427.1 290.9,426.0 365.1,426.5 439.4,427.6 513.7,426.2 588.0,429.7 662.3,428.1 736.6,429.3 810.9,428.9 885.1,426.7 959.4,428.7 1033.7,432.1 1108.0,432.3 1108.0,432.6 1033.7,434.4 959.4,429.6 885.1,427.3 810.9,428.9 736.6,429.7 662.3,428.7 588.0,430.7 513.7,427.4 439.4,428.6 365.1,428.1 290.9,427.3 216.6,427.8 142.3,427.2 68.0,428.1" fill="#74c476" fill-opacity="0.9" stroke="#fff" stroke-width="0.4"><title>control_flow_ssa — frontEndExecute (self)</title></polygon>
<polygon points="68.0,407.6 142.3,406.5 216.6,407.0 290.9,405.8 365.1,406.3 439.4,407.3 513.7,406.1 588.0,420.7 662.3,419.1 736.6,420.2 810.9,420.0 885.1,417.7 959.4,419.8 1033.7,423.4 1108.0,423.8 1108.0,432.3 1033.7,432.1 959.4,428.7 885.1,426.7 810.9,428.9 736.6,429.3 662.3,428.1 588.0,429.7 513.7,426.2 439.4,427.6 365.1,426.5 290.9,426.0 216.6,427.1 142.3,426.6 68.0,427.5" fill="#6baed6" fill-opacity="0.9" stroke="#fff" stroke-width="0.4"><title>control_flow_ssa — specializeModule</title></polygon>
<polygon points="68.0,344.9 142.3,344.1 216.6,344.3 290.9,344.1 365.1,343.6 439.4,343.2 513.7,344.2 588.0,375.2 662.3,374.2 736.6,375.0 810.9,375.5 885.1,370.8 959.4,374.1 1033.7,379.8 1108.0,381.2 1108.0,423.8 1033.7,423.4 959.4,419.8 885.1,417.7 810.9,420.0 736.6,420.2 662.3,419.1 588.0,420.7 513.7,406.1 439.4,407.3 365.1,406.3 290.9,405.8 216.6,407.0 142.3,406.5 68.0,407.6" fill="#2171b5" fill-opacity="0.9" stroke="#fff" stroke-width="0.4"><title>control_flow_ssa — simplifyIR</title></polygon>
<polygon points="68.0,341.7 142.3,340.7 216.6,341.0 290.9,340.8 365.1,340.3 439.4,340.0 513.7,341.1 588.0,372.3 662.3,371.4 736.6,372.1 810.9,372.6 885.1,367.9 959.4,371.3 1033.7,376.8 1108.0,378.3 1108.0,381.2 1033.7,379.8 959.4,374.1 885.1,370.8 810.9,375.5 736.6,375.0 662.3,374.2 588.0,375.2 513.7,344.2 439.4,343.2 365.1,343.6 290.9,344.1 216.6,344.3 142.3,344.1 68.0,344.9" fill="#08306b" fill-opacity="0.9" stroke="#fff" stroke-width="0.4"><title>control_flow_ssa — linkIR</title></polygon>
<polygon points="68.0,341.4 142.3,340.5 216.6,340.8 290.9,340.6 365.1,340.1 439.4,339.7 513.7,340.9 588.0,372.1 662.3,371.2 736.6,371.8 810.9,372.4 885.1,367.7 959.4,371.1 1033.7,376.6 1108.0,378.1 1108.0,378.3 1033.7,376.8 959.4,371.3 885.1,367.9 810.9,372.6 736.6,372.1 662.3,371.4 588.0,372.3 513.7,341.1 439.4,340.0 365.1,340.3 290.9,340.8 216.6,341.0 142.3,340.7 68.0,341.7" fill="#9e9ac8" fill-opacity="0.9" stroke="#fff" stroke-width="0.4"><title>control_flow_ssa — unrollLoopsInModule</title></polygon>
<polygon points="68.0,336.2 142.3,335.1 216.6,335.5 290.9,335.3 365.1,334.8 439.4,334.4 513.7,335.6 588.0,367.8 662.3,366.8 736.6,367.4 810.9,369.8 885.1,365.0 959.4,368.5 1033.7,374.0 1108.0,375.4 1108.0,378.1 1033.7,376.6 959.4,371.1 885.1,367.7 810.9,372.4 736.6,371.8 662.3,371.2 588.0,372.1 513.7,340.9 439.4,339.7 365.1,340.1 290.9,340.6 216.6,340.8 142.3,340.5 68.0,341.4" fill="#807dba" fill-opacity="0.9" stroke="#fff" stroke-width="0.4"><title>control_flow_ssa — legalizeResourceTypes</title></polygon>
<polygon points="68.0,330.7 142.3,329.5 216.6,329.9 290.9,329.8 365.1,329.3 439.4,328.9 513.7,330.2 588.0,363.2 662.3,362.4 736.6,362.9 810.9,367.1 885.1,362.2 959.4,365.8 1033.7,371.1 1108.0,372.5 1108.0,375.4 1033.7,374.0 959.4,368.5 885.1,365.0 810.9,369.8 736.6,367.4 662.3,366.8 588.0,367.8 513.7,335.6 439.4,334.4 365.1,334.8 290.9,335.3 216.6,335.5 142.3,335.1 68.0,336.2" fill="#6a51a3" fill-opacity="0.9" stroke="#fff" stroke-width="0.4"><title>control_flow_ssa — legalizeExistentialTypeLayout</title></polygon>
<polygon points="68.0,324.4 142.3,323.2 216.6,323.5 290.9,323.5 365.1,323.0 439.4,322.6 513.7,323.8 588.0,357.0 662.3,356.0 736.6,356.5 810.9,360.7 885.1,355.9 959.4,359.6 1033.7,365.2 1108.0,366.5 1108.0,372.5 1033.7,371.1 959.4,365.8 885.1,362.2 810.9,367.1 736.6,362.9 662.3,362.4 588.0,363.2 513.7,330.2 439.4,328.9 365.1,329.3 290.9,329.8 216.6,329.9 142.3,329.5 68.0,330.7" fill="#bcbddc" fill-opacity="0.9" stroke="#fff" stroke-width="0.4"><title>control_flow_ssa — performMandatoryEarlyInlining</title></polygon>
<polygon points="68.0,323.6 142.3,322.5 216.6,322.7 290.9,322.7 365.1,322.2 439.4,321.8 513.7,323.0 588.0,356.2 662.3,355.3 736.6,355.7 810.9,360.0 885.1,355.2 959.4,358.9 1033.7,364.4 1108.0,365.7 1108.0,366.5 1033.7,365.2 959.4,359.6 885.1,355.9 810.9,360.7 736.6,356.5 662.3,356.0 588.0,357.0 513.7,323.8 439.4,322.6 365.1,323.0 290.9,323.5 216.6,323.5 142.3,323.2 68.0,324.4" fill="#dadaeb" fill-opacity="0.9" stroke="#fff" stroke-width="0.4"><title>control_flow_ssa — performForceInlining</title></polygon>
<polygon points="68.0,246.9 142.3,245.0 216.6,246.9 290.9,244.3 365.1,247.6 439.4,244.8 513.7,247.7 588.0,281.1 662.3,282.0 736.6,281.6 810.9,288.2 885.1,274.1 959.4,287.0 1033.7,301.2 1108.0,303.2 1108.0,365.7 1033.7,364.4 959.4,358.9 885.1,355.2 810.9,360.0 736.6,355.7 662.3,355.3 588.0,356.2 513.7,323.0 439.4,321.8 365.1,322.2 290.9,322.7 216.6,322.7 142.3,322.5 68.0,323.6" fill="#4a1486" fill-opacity="0.9" stroke="#fff" stroke-width="0.4"><title>control_flow_ssa — linkAndOptimizeIR (self)</title></polygon>
<polygon points="68.0,111.1 142.3,108.6 216.6,110.5 290.9,110.8 365.1,115.0 439.4,111.2 513.7,113.2 588.0,146.4 662.3,148.6 736.6,150.8 810.9,157.4 885.1,145.6 959.4,157.6 1033.7,180.3 1108.0,179.6 1108.0,303.2 1033.7,301.2 959.4,287.0 885.1,274.1 810.9,288.2 736.6,281.6 662.3,282.0 588.0,281.1 513.7,247.7 439.4,244.8 365.1,247.6 290.9,244.3 216.6,246.9 142.3,245.0 68.0,246.9" fill="#e6550d" fill-opacity="0.9" stroke="#fff" stroke-width="0.4"><title>control_flow_ssa — generateOutput (self)</title></polygon>
<polygon points="68.0,111.1 142.3,108.6 216.6,109.7 290.9,110.8 365.1,115.0 439.4,110.8 513.7,112.1 588.0,145.0 662.3,148.4 736.6,150.8 810.9,156.0 885.1,145.6 959.4,157.6 1033.7,180.3 1108.0,178.7 1108.0,179.6 1033.7,180.3 959.4,157.6 885.1,145.6 810.9,157.4 736.6,150.8 662.3,148.6 588.0,146.4 513.7,113.2 439.4,111.2 365.1,115.0 290.9,110.8 216.6,110.5 142.3,108.6 68.0,111.1" fill="#969696" fill-opacity="0.9" stroke="#fff" stroke-width="0.4"><title>control_flow_ssa — compileInner (self)</title></polygon>
<text x="12" y="578" fill="#666" font-weight="600">phase buckets</text>
<rect x="12" y="586" width="12" height="12" fill="#c7e9c0"/>
<text x="28" y="596" fill="#222">parseTranslationUnit</text>
<rect x="289" y="586" width="12" height="12" fill="#41ab5d"/>
<text x="305" y="596" fill="#222">SemanticChecking</text>
<rect x="566" y="586" width="12" height="12" fill="#006d2c"/>
<text x="582" y="596" fill="#222">generateIR</text>
<rect x="843" y="586" width="12" height="12" fill="#74c476"/>
<text x="859" y="596" fill="#222">frontEndExecute (self)</text>
<rect x="12" y="604" width="12" height="12" fill="#6baed6"/>
<text x="28" y="614" fill="#222">specializeModule</text>
<rect x="289" y="604" width="12" height="12" fill="#2171b5"/>
<text x="305" y="614" fill="#222">simplifyIR</text>
<rect x="566" y="604" width="12" height="12" fill="#08306b"/>
<text x="582" y="614" fill="#222">linkIR</text>
<rect x="843" y="604" width="12" height="12" fill="#9e9ac8"/>
<text x="859" y="614" fill="#222">unrollLoopsInModule</text>
<rect x="12" y="622" width="12" height="12" fill="#807dba"/>
<text x="28" y="632" fill="#222">legalizeResourceTypes</text>
<rect x="289" y="622" width="12" height="12" fill="#6a51a3"/>
<text x="305" y="632" fill="#222">legalizeExistentialTypeLayout</text>
<rect x="566" y="622" width="12" height="12" fill="#bcbddc"/>
<text x="582" y="632" fill="#222">performMandatoryEarlyInlining</text>
<rect x="843" y="622" width="12" height="12" fill="#dadaeb"/>
<text x="859" y="632" fill="#222">performForceInlining</text>
<rect x="12" y="640" width="12" height="12" fill="#4a1486"/>
<text x="28" y="650" fill="#222">linkAndOptimizeIR (self)</text>
<rect x="289" y="640" width="12" height="12" fill="#fd8d3c"/>
<text x="305" y="650" fill="#222">emitEntryPointsSourceFromIR</text>
<rect x="566" y="640" width="12" height="12" fill="#e6550d"/>
<text x="582" y="650" fill="#222">generateOutput (self)</text>
<rect x="843" y="640" width="12" height="12" fill="#969696"/>
<text x="859" y="650" fill="#222">compileInner (self)</text>
</svg>