<svg xmlns="http://www.w3.org/2000/svg" xmlns:xlink="http://www.w3.org/1999/xlink" width="1132" height="680" viewBox="0 0 1132 680" preserveAspectRatio="xMidYMid meet" font-family="sans-serif" font-size="13">
<rect width="1132" height="680" fill="white"/>
<text x="12" y="30" font-size="20" font-weight="bold">control_flow_ssa — full phase breakdown across releases (median ms)</text>
<text x="68" y="60" font-size="15" font-weight="600" fill="#1a1a1a">control_flow_ssa<tspan fill="#888" font-weight="400" text-decoration="none">  0.90×</tspan></text>
<line x1="68.0" y1="516.0" x2="1108.0" y2="516.0" stroke="#eee"/>
<text x="64.0" y="519.0" text-anchor="end" fill="#999">0.0</text>
<line x1="68.0" y1="296.0" x2="1108.0" y2="296.0" stroke="#eee"/>
<text x="64.0" y="299.0" text-anchor="end" fill="#999">161</text>
<line x1="68.0" y1="76.0" x2="1108.0" y2="76.0" stroke="#eee"/>
<text x="64.0" y="79.0" text-anchor="end" fill="#999">323</text>
<line x1="68.0" y1="76.0" x2="68.0" y2="516.0" stroke="#333"/>
<line x1="68.0" y1="516.0" x2="1108.0" y2="516.0" stroke="#333"/>
<line x1="68.0" y1="516.0" x2="68.0" y2="519.0" stroke="#999"/>
<text x="68.0" y="531.0" text-anchor="end" fill="#666" transform="rotate(-50 68.0 531.0)">25.19</text>
<line x1="137.3" y1="516.0" x2="137.3" y2="519.0" stroke="#999"/>
<text x="137.3" y="531.0" text-anchor="end" fill="#666" transform="rotate(-50 137.3 531.0)">25.20</text>
<line x1="206.7" y1="516.0" x2="206.7" y2="519.0" stroke="#999"/>
<text x="206.7" y="531.0" text-anchor="end" fill="#666" transform="rotate(-50 206.7 531.0)">25.21</text>
<line x1="276.0" y1="516.0" x2="276.0" y2="519.0" stroke="#999"/>
<text x="276.0" y="531.0" text-anchor="end" fill="#666" transform="rotate(-50 276.0 531.0)">25.22</text>
<line x1="345.3" y1="516.0" x2="345.3" y2="519.0" stroke="#999"/>
<text x="345.3" y="531.0" text-anchor="end" fill="#666" transform="rotate(-50 345.3 531.0)">25.23</text>
<line x1="414.7" y1="516.0" x2="414.7" y2="519.0" stroke="#999"/>
<text x="414.7" y="531.0" text-anchor="end" fill="#666" transform="rotate(-50 414.7 531.0)">25.24</text>
<line x1="484.0" y1="516.0" x2="484.0" y2="519.0" stroke="#999"/>
<text x="484.0" y="531.0" text-anchor="end" fill="#666" transform="rotate(-50 484.0 531.0)">26.1</text>
<line x1="553.3" y1="516.0" x2="553.3" y2="519.0" stroke="#999"/>
<text x="553.3" y="531.0" text-anchor="end" fill="#666" transform="rotate(-50 553.3 531.0)">26.2</text>
<line x1="622.7" y1="516.0" x2="622.7" y2="519.0" stroke="#999"/>
<text x="622.7" y="531.0" text-anchor="end" fill="#666" transform="rotate(-50 622.7 531.0)">26.3</text>
<line x1="692.0" y1="516.0" x2="692.0" y2="519.0" stroke="#999"/>
<text x="692.0" y="531.0" text-anchor="end" fill="#666" transform="rotate(-50 692.0 531.0)">26.4</text>
<line x1="761.3" y1="516.0" x2="761.3" y2="519.0" stroke="#999"/>
<text x="761.3" y="531.0" text-anchor="end" fill="#666" transform="rotate(-50 761.3 531.0)">26.5</text>
<line x1="830.7" y1="516.0" x2="830.7" y2="519.0" stroke="#999"/>
<text x="830.7" y="531.0" text-anchor="end" fill="#666" transform="rotate(-50 830.7 531.0)">26.7</text>
<line x1="900.0" y1="516.0" x2="900.0" y2="519.0" stroke="#999"/>
<text x="900.0" y="531.0" text-anchor="end" fill="#666" transform="rotate(-50 900.0 531.0)">26.8</text>
<line x1="969.3" y1="516.0" x2="969.3" y2="519.0" stroke="#999"/>
<text x="969.3" y="531.0" text-anchor="end" fill="#666" transform="rotate(-50 969.3 531.0)">26.9</text>
<line x1="1038.7" y1="516.0" x2="1038.7" y2="519.0" stroke="#999"/>
<text x="1038.7" y="531.0" text-anchor="end" fill="#666" transform="rotate(-50 1038.7 531.0)">26.10</text>
<line x1="1108.0" y1="516.0" x2="1108.0" y2="519.0" stroke="#999"/>
<text x="1108.0" y="531.0" text-anchor="end" fill="#666" transform="rotate(-50 1108.0 531.0)">26.11</text>
<polygon points="68.0,514.4 137.3,514.4 206.7,514.4 276.0,514.4 345.3,514.4 414.7,514.4 484.0,514.4 553.3,514.4 622.7,514.3 692.0,514.3 761.3,514.3 830.7,514.3 900.0,514.3 969.3,514.3 1038.7,514.2 1108.0,514.3 1108.0,516.0 1038.7,516.0 969.3,516.0 900.0,516.0 830.7,516.0 761.3,516.0 692.0,516.0 622.7,516.0 553.3,516.0 484.0,516.0 414.7,516.0 345.3,516.0 276.0,516.0 206.7,516.0 137.3,516.0 68.0,516.0" fill="#c7e9c0" fill-opacity="0.9" stroke="#fff" stroke-width="0.4"><title>control_flow_ssa — parseTranslationUnit</title></polygon>
<polygon points="68.0,432.2 137.3,431.5 206.7,432.3 276.0,440.7 345.3,439.2 414.7,439.6 484.0,438.7 553.3,436.1 622.7,436.6 692.0,433.7 761.3,431.4 830.7,414.0 900.0,413.4 969.3,412.1 1038.7,409.1 1108.0,480.0 1108.0,514.3 1038.7,514.2 969.3,514.3 900.0,514.3 830.7,514.3 761.3,514.3 692.0,514.3 622.7,514.3 553.3,514.4 484.0,514.4 414.7,514.4 345.3,514.4 276.0,514.4 206.7,514.4 137.3,514.4 68.0,514.4" fill="#41ab5d" fill-opacity="0.9" stroke="#fff" stroke-width="0.4"><title>control_flow_ssa — SemanticChecking</title></polygon>
<polygon points="68.0,401.4 137.3,400.9 206.7,401.6 276.0,410.1 345.3,408.5 414.7,409.3 484.0,407.3 553.3,405.2 622.7,405.6 692.0,401.3 761.3,399.2 830.7,370.9 900.0,369.9 969.3,368.4 1038.7,365.1 1108.0,451.5 1108.0,480.0 1038.7,409.1 969.3,412.1 900.0,413.4 830.7,414.0 761.3,431.4 692.0,433.7 622.7,436.6 553.3,436.1 484.0,438.7 414.7,439.6 345.3,439.2 276.0,440.7 206.7,432.3 137.3,431.5 68.0,432.2" fill="#006d2c" fill-opacity="0.9" stroke="#fff" stroke-width="0.4"><title>control_flow_ssa — generateIR</title></polygon>
<polygon points="68.0,401.2 137.3,400.6 206.7,400.8 276.0,409.8 345.3,408.2 414.7,408.8 484.0,406.9 553.3,404.8 622.7,405.2 692.0,400.5 761.3,399.1 830.7,370.5 900.0,369.5 969.3,368.0 1038.7,364.7 1108.0,451.1 1108.0,451.5 1038.7,365.1 969.3,368.4 900.0,369.9 830.7,370.9 761.3,399.2 692.0,401.3 622.7,405.6 553.3,405.2 484.0,407.3 414.7,409.3 345.3,408.5 276.0,410.1 206.7,401.6 137.3,400.9 68.0,401.4" fill="#74c476" fill-opacity="0.9" stroke="#fff" stroke-width="0.4"><title>control_flow_ssa — frontEndExecute (self)</title></polygon>
<polygon points="68.0,396.6 137.3,396.1 206.7,396.3 276.0,405.3 345.3,403.7 414.7,400.7 484.0,398.9 553.3,396.8 622.7,397.2 692.0,392.3 761.3,390.9 830.7,354.3 900.0,353.7 969.3,352.1 1038.7,348.8 1108.0,437.4 1108.0,451.1 1038.7,364.7 969.3,368.0 900.0,369.5 830.7,370.5 761.3,399.1 692.0,400.5 622.7,405.2 553.3,404.8 484.0,406.9 414.7,408.8 345.3,408.2 276.0,409.8 206.7,400.8 137.3,400.6 68.0,401.2" fill="#6baed6" fill-opacity="0.9" stroke="#fff" stroke-width="0.4"><title>control_flow_ssa — specializeModule</title></polygon>
<polygon points="68.0,358.0 137.3,357.2 206.7,358.1 276.0,367.1 345.3,364.7 414.7,366.1 484.0,364.1 553.3,361.4 622.7,361.7 692.0,355.1 761.3,354.4 830.7,304.2 900.0,302.9 969.3,301.4 1038.7,298.9 1108.0,391.3 1108.0,437.4 1038.7,348.8 969.3,352.1 900.0,353.7 830.7,354.3 761.3,390.9 692.0,392.3 622.7,397.2 553.3,396.8 484.0,398.9 414.7,400.7 345.3,403.7 276.0,405.3 206.7,396.3 137.3,396.1 68.0,396.6" fill="#2171b5" fill-opacity="0.9" stroke="#fff" stroke-width="0.4"><title>control_flow_ssa — simplifyIR</title></polygon>
<polygon points="68.0,355.2 137.3,354.3 206.7,355.2 276.0,364.4 345.3,361.9 414.7,363.4 484.0,361.5 553.3,358.6 622.7,359.0 692.0,351.8 761.3,350.4 830.7,290.7 900.0,289.1 969.3,287.7 1038.7,285.1 1108.0,388.9 1108.0,391.3 1038.7,298.9 969.3,301.4 900.0,302.9 830.7,304.2 761.3,354.4 692.0,355.1 622.7,361.7 553.3,361.4 484.0,364.1 414.7,366.1 345.3,364.7 276.0,367.1 206.7,358.1 137.3,357.2 68.0,358.0" fill="#08306b" fill-opacity="0.9" stroke="#fff" stroke-width="0.4"><title>control_flow_ssa — linkIR</title></polygon>
<polygon points="68.0,355.1 137.3,354.1 206.7,355.1 276.0,364.2 345.3,361.7 414.7,363.2 484.0,361.3 553.3,358.4 622.7,358.7 692.0,351.6 761.3,350.2 830.7,290.5 900.0,288.9 969.3,287.5 1038.7,284.9 1108.0,388.7 1108.0,388.9 1038.7,285.1 969.3,287.7 900.0,289.1 830.7,290.7 761.3,350.4 692.0,351.8 622.7,359.0 553.3,358.6 484.0,361.5 414.7,363.4 345.3,361.9 276.0,364.4 206.7,355.2 137.3,354.3 68.0,355.2" fill="#9e9ac8" fill-opacity="0.9" stroke="#fff" stroke-width="0.4"><title>control_flow_ssa — unrollLoopsInModule</title></polygon>
<polygon points="68.0,351.8 137.3,350.9 206.7,351.7 276.0,360.9 345.3,358.4 414.7,359.9 484.0,358.0 553.3,355.2 622.7,355.5 692.0,348.2 761.3,346.8 830.7,287.1 900.0,285.1 969.3,283.8 1038.7,281.3 1108.0,384.6 1108.0,388.7 1038.7,284.9 969.3,287.5 900.0,288.9 830.7,290.5 761.3,350.2 692.0,351.6 622.7,358.7 553.3,358.4 484.0,361.3 414.7,363.2 345.3,361.7 276.0,364.2 206.7,355.1 137.3,354.1 68.0,355.1" fill="#807dba" fill-opacity="0.9" stroke="#fff" stroke-width="0.4"><title>control_flow_ssa — legalizeResourceTypes</title></polygon>
<polygon points="68.0,348.3 137.3,347.4 206.7,348.2 276.0,357.3 345.3,354.8 414.7,356.4 484.0,354.6 553.3,351.7 622.7,352.0 692.0,344.6 761.3,343.2 830.7,283.4 900.0,281.1 969.3,279.9 1038.7,277.4 1108.0,380.2 1108.0,384.6 1038.7,281.3 969.3,283.8 900.0,285.1 830.7,287.1 761.3,346.8 692.0,348.2 622.7,355.5 553.3,355.2 484.0,358.0 414.7,359.9 345.3,358.4 276.0,360.9 206.7,351.7 137.3,350.9 68.0,351.8" fill="#6a51a3" fill-opacity="0.9" stroke="#fff" stroke-width="0.4"><title>control_flow_ssa — legalizeExistentialTypeLayout</title></polygon>
<polygon points="68.0,343.6 137.3,342.8 206.7,343.5 276.0,352.6 345.3,350.2 414.7,351.7 484.0,349.9 553.3,347.0 622.7,347.4 692.0,339.8 761.3,338.4 830.7,278.8 900.0,276.3 969.3,275.0 1038.7,272.7 1108.0,375.5 1108.0,380.2 1038.7,277.4 969.3,279.9 900.0,281.1 830.7,283.4 761.3,343.2 692.0,344.6 622.7,352.0 553.3,351.7 484.0,354.6 414.7,356.4 345.3,354.8 276.0,357.3 206.7,348.2 137.3,347.4 68.0,348.3" fill="#bcbddc" fill-opacity="0.9" stroke="#fff" stroke-width="0.4"><title>control_flow_ssa — performMandatoryEarlyInlining</title></polygon>
<polygon points="68.0,343.0 137.3,342.2 206.7,342.9 276.0,352.0 345.3,349.6 414.7,351.1 484.0,349.3 553.3,346.4 622.7,346.8 692.0,339.2 761.3,337.8 830.7,278.1 900.0,275.7 969.3,274.4 1038.7,272.1 1108.0,374.8 1108.0,375.5 1038.7,272.7 969.3,275.0 900.0,276.3 830.7,278.8 761.3,338.4 692.0,339.8 622.7,347.4 553.3,347.0 484.0,349.9 414.7,351.7 345.3,350.2 276.0,352.6 206.7,343.5 137.3,342.8 68.0,343.6" fill="#dadaeb" fill-opacity="0.9" stroke="#fff" stroke-width="0.4"><title>control_flow_ssa — performForceInlining</title></polygon>
<polygon points="68.0,285.1 137.3,285.7 206.7,286.7 276.0,295.7 345.3,291.8 414.7,293.3 484.0,291.5 553.3,288.1 622.7,289.5 692.0,279.5 761.3,277.8 830.7,215.2 900.0,212.0 969.3,210.3 1038.7,207.7 1108.0,316.8 1108.0,374.8 1038.7,272.1 969.3,274.4 900.0,275.7 830.7,278.1 761.3,337.8 692.0,339.2 622.7,346.8 553.3,346.4 484.0,349.3 414.7,351.1 345.3,349.6 276.0,352.0 206.7,342.9 137.3,342.2 68.0,343.0" fill="#4a1486" fill-opacity="0.9" stroke="#fff" stroke-width="0.4"><title>control_flow_ssa — linkAndOptimizeIR (self)</title></polygon>
<polygon points="68.0,183.2 137.3,187.3 206.7,188.1 276.0,197.3 345.3,194.5 414.7,195.6 484.0,194.0 553.3,188.4 622.7,191.7 692.0,177.0 761.3,174.7 830.7,115.7 900.0,113.1 969.3,110.4 1038.7,109.0 1108.0,214.9 1108.0,316.8 1038.7,207.7 969.3,210.3 900.0,212.0 830.7,215.2 761.3,277.8 692.0,279.5 622.7,289.5 553.3,288.1 484.0,291.5 414.7,293.3 345.3,291.8 276.0,295.7 206.7,286.7 137.3,285.7 68.0,285.1" fill="#e6550d" fill-opacity="0.9" stroke="#fff" stroke-width="0.4"><title>control_flow_ssa — generateOutput (self)</title></polygon>
<polygon points="68.0,183.0 137.3,186.5 206.7,187.9 276.0,196.9 345.3,194.5 414.7,195.0 484.0,193.3 553.3,188.3 622.7,190.5 692.0,176.6 761.3,174.7 830.7,115.4 900.0,112.2 969.3,110.4 1038.7,108.6 1108.0,214.7 1108.0,214.9 1038.7,109.0 969.3,110.4 900.0,113.1 830.7,115.7 761.3,174.7 692.0,177.0 622.7,191.7 553.3,188.4 484.0,194.0 414.7,195.6 345.3,194.5 276.0,197.3 206.7,188.1 137.3,187.3 68.0,183.2" fill="#969696" fill-opacity="0.9" stroke="#fff" stroke-width="0.4"><title>control_flow_ssa — compileInner (self)</title></polygon>
<text x="12" y="578" fill="#666" font-weight="600">phase buckets</text>
<rect x="12" y="586" width="12" height="12" fill="#c7e9c0"/>
<text x="28" y="596" fill="#222">parseTranslationUnit</text>
<rect x="289" y="586" width="12" height="12" fill="#41ab5d"/>
<text x="305" y="596" fill="#222">SemanticChecking</text>
<rect x="566" y="586" width="12" height="12" fill="#006d2c"/>
<text x="582" y="596" fill="#222">generateIR</text>
<rect x="843" y="586" width="12" height="12" fill="#74c476"/>
<text x="859" y="596" fill="#222">frontEndExecute (self)</text>
<rect x="12" y="604" width="12" height="12" fill="#6baed6"/>
<text x="28" y="614" fill="#222">specializeModule</text>
<rect x="289" y="604" width="12" height="12" fill="#2171b5"/>
<text x="305" y="614" fill="#222">simplifyIR</text>
<rect x="566" y="604" width="12" height="12" fill="#08306b"/>
<text x="582" y="614" fill="#222">linkIR</text>
<rect x="843" y="604" width="12" height="12" fill="#9e9ac8"/>
<text x="859" y="614" fill="#222">unrollLoopsInModule</text>
<rect x="12" y="622" width="12" height="12" fill="#807dba"/>
<text x="28" y="632" fill="#222">legalizeResourceTypes</text>
<rect x="289" y="622" width="12" height="12" fill="#6a51a3"/>
<text x="305" y="632" fill="#222">legalizeExistentialTypeLayout</text>
<rect x="566" y="622" width="12" height="12" fill="#bcbddc"/>
<text x="582" y="632" fill="#222">performMandatoryEarlyInlining</text>
<rect x="843" y="622" width="12" height="12" fill="#dadaeb"/>
<text x="859" y="632" fill="#222">performForceInlining</text>
<rect x="12" y="640" width="12" height="12" fill="#4a1486"/>
<text x="28" y="650" fill="#222">linkAndOptimizeIR (self)</text>
<rect x="289" y="640" width="12" height="12" fill="#fd8d3c"/>
<text x="305" y="650" fill="#222">emitEntryPointsSourceFromIR</text>
<rect x="566" y="640" width="12" height="12" fill="#e6550d"/>
<text x="582" y="650" fill="#222">generateOutput (self)</text>
<rect x="843" y="640" width="12" height="12" fill="#969696"/>
<text x="859" y="650" fill="#222">compileInner (self)</text>
</svg>