<svg xmlns="http://www.w3.org/2000/svg" xmlns:xlink="http://www.w3.org/1999/xlink" width="1132" height="680" viewBox="0 0 1132 680" preserveAspectRatio="xMidYMid meet" font-family="sans-serif" font-size="13">
<rect width="1132" height="680" fill="white"/>
<text x="12" y="30" font-size="20" font-weight="bold">control_flow_ssa — Daily tip-of-tree (last 30 days) (median ms)</text>
<text x="68" y="60" font-size="15" font-weight="600" fill="#1a1a1a">control_flow_ssa<tspan fill="#888" font-weight="400" text-decoration="none">  0.85×</tspan></text>
<line x1="68.0" y1="516.0" x2="1108.0" y2="516.0" stroke="#eee"/>
<text x="64.0" y="519.0" text-anchor="end" fill="#999">0.0</text>
<line x1="68.0" y1="296.0" x2="1108.0" y2="296.0" stroke="#eee"/>
<text x="64.0" y="299.0" text-anchor="end" fill="#999">130</text>
<line x1="68.0" y1="76.0" x2="1108.0" y2="76.0" stroke="#eee"/>
<text x="64.0" y="79.0" text-anchor="end" fill="#999">260</text>
<line x1="68.0" y1="76.0" x2="68.0" y2="516.0" stroke="#333"/>
<line x1="68.0" y1="516.0" x2="1108.0" y2="516.0" stroke="#333"/>
<line x1="68.0" y1="516.0" x2="68.0" y2="519.0" stroke="#999"/>
<text x="68.0" y="531.0" text-anchor="end" fill="#e8731a" transform="rotate(-50 68.0 531.0)">06-25</text>
<line x1="133.0" y1="516.0" x2="133.0" y2="519.0" stroke="#999"/>
<text x="133.0" y="531.0" text-anchor="end" fill="#e8731a" transform="rotate(-50 133.0 531.0)">06-26</text>
<line x1="198.0" y1="516.0" x2="198.0" y2="519.0" stroke="#999"/>
<text x="198.0" y="531.0" text-anchor="end" fill="#e8731a" transform="rotate(-50 198.0 531.0)">06-28</text>
<line x1="263.0" y1="516.0" x2="263.0" y2="519.0" stroke="#999"/>
<text x="263.0" y="531.0" text-anchor="end" fill="#e8731a" transform="rotate(-50 263.0 531.0)">07-01</text>
<line x1="328.0" y1="516.0" x2="328.0" y2="519.0" stroke="#999"/>
<text x="328.0" y="531.0" text-anchor="end" fill="#e8731a" transform="rotate(-50 328.0 531.0)">07-02</text>
<line x1="393.0" y1="516.0" x2="393.0" y2="519.0" stroke="#999"/>
<text x="393.0" y="531.0" text-anchor="end" fill="#e8731a" transform="rotate(-50 393.0 531.0)">07-03</text>
<line x1="458.0" y1="516.0" x2="458.0" y2="519.0" stroke="#999"/>
<text x="458.0" y="531.0" text-anchor="end" fill="#e8731a" transform="rotate(-50 458.0 531.0)">07-06</text>
<line x1="523.0" y1="516.0" x2="523.0" y2="519.0" stroke="#999"/>
<text x="523.0" y="531.0" text-anchor="end" fill="#e8731a" transform="rotate(-50 523.0 531.0)">07-07</text>
<line x1="588.0" y1="516.0" x2="588.0" y2="519.0" stroke="#999"/>
<text x="588.0" y="531.0" text-anchor="end" fill="#e8731a" transform="rotate(-50 588.0 531.0)">07-08</text>
<line x1="653.0" y1="516.0" x2="653.0" y2="519.0" stroke="#999"/>
<text x="653.0" y="531.0" text-anchor="end" fill="#e8731a" transform="rotate(-50 653.0 531.0)">07-09</text>
<line x1="718.0" y1="516.0" x2="718.0" y2="519.0" stroke="#999"/>
<text x="718.0" y="531.0" text-anchor="end" fill="#e8731a" transform="rotate(-50 718.0 531.0)">07-10</text>
<line x1="783.0" y1="516.0" x2="783.0" y2="519.0" stroke="#999"/>
<text x="783.0" y="531.0" text-anchor="end" fill="#e8731a" transform="rotate(-50 783.0 531.0)">07-11</text>
<line x1="848.0" y1="516.0" x2="848.0" y2="519.0" stroke="#999"/>
<text x="848.0" y="531.0" text-anchor="end" fill="#e8731a" transform="rotate(-50 848.0 531.0)">07-14</text>
<line x1="913.0" y1="516.0" x2="913.0" y2="519.0" stroke="#999"/>
<text x="913.0" y="531.0" text-anchor="end" fill="#e8731a" transform="rotate(-50 913.0 531.0)">07-15</text>
<line x1="978.0" y1="516.0" x2="978.0" y2="519.0" stroke="#999"/>
<text x="978.0" y="531.0" text-anchor="end" fill="#e8731a" transform="rotate(-50 978.0 531.0)">07-15</text>
<line x1="1043.0" y1="516.0" x2="1043.0" y2="519.0" stroke="#999"/>
<text x="1043.0" y="531.0" text-anchor="end" fill="#e8731a" transform="rotate(-50 1043.0 531.0)">07-16</text>
<line x1="1108.0" y1="516.0" x2="1108.0" y2="519.0" stroke="#999"/>
<text x="1108.0" y="531.0" text-anchor="end" fill="#e8731a" transform="rotate(-50 1108.0 531.0)">07-17</text>
<polygon points="68.0,513.7 133.0,513.7 198.0,513.6 263.0,513.7 328.0,513.7 393.0,513.7 458.0,513.6 523.0,514.0 588.0,514.1 653.0,514.0 718.0,514.0 783.0,513.9 848.0,514.1 913.0,514.1 978.0,514.1 1043.0,514.2 1108.0,514.1 1108.0,516.0 1043.0,516.0 978.0,516.0 913.0,516.0 848.0,516.0 783.0,516.0 718.0,516.0 653.0,516.0 588.0,516.0 523.0,516.0 458.0,516.0 393.0,516.0 328.0,516.0 263.0,516.0 198.0,516.0 133.0,516.0 68.0,516.0" fill="#c7e9c0" fill-opacity="0.9" stroke="#fff" stroke-width="0.4"><title>control_flow_ssa — parseTranslationUnit</title></polygon>
<polygon points="68.0,467.1 133.0,466.6 198.0,467.0 263.0,467.2 328.0,467.6 393.0,468.0 458.0,466.5 523.0,470.2 588.0,469.0 653.0,469.6 718.0,469.0 783.0,467.7 848.0,468.9 913.0,470.8 978.0,471.0 1043.0,462.9 1108.0,462.4 1108.0,514.1 1043.0,514.2 978.0,514.1 913.0,514.1 848.0,514.1 783.0,513.9 718.0,514.0 653.0,514.0 588.0,514.1 523.0,514.0 458.0,513.6 393.0,513.7 328.0,513.7 263.0,513.7 198.0,513.6 133.0,513.7 68.0,513.7" fill="#41ab5d" fill-opacity="0.9" stroke="#fff" stroke-width="0.4"><title>control_flow_ssa — SemanticChecking</title></polygon>
<polygon points="68.0,428.1 133.0,427.2 198.0,427.8 263.0,427.3 328.0,428.1 393.0,428.6 458.0,427.4 523.0,430.7 588.0,428.7 653.0,429.7 718.0,428.9 783.0,427.3 848.0,429.6 913.0,434.4 978.0,434.3 1043.0,426.6 1108.0,426.1 1108.0,462.4 1043.0,462.9 978.0,471.0 913.0,470.8 848.0,468.9 783.0,467.7 718.0,469.0 653.0,469.6 588.0,469.0 523.0,470.2 458.0,466.5 393.0,468.0 328.0,467.6 263.0,467.2 198.0,467.0 133.0,466.6 68.0,467.1" fill="#006d2c" fill-opacity="0.9" stroke="#fff" stroke-width="0.4"><title>control_flow_ssa — generateIR</title></polygon>
<polygon points="68.0,427.5 133.0,426.6 198.0,427.1 263.0,426.0 328.0,426.5 393.0,427.6 458.0,426.2 523.0,429.7 588.0,428.1 653.0,429.3 718.0,428.9 783.0,426.7 848.0,428.7 913.0,432.1 978.0,433.6 1043.0,426.0 1108.0,424.9 1108.0,426.1 1043.0,426.6 978.0,434.3 913.0,434.4 848.0,429.6 783.0,427.3 718.0,428.9 653.0,429.7 588.0,428.7 523.0,430.7 458.0,427.4 393.0,428.6 328.0,428.1 263.0,427.3 198.0,427.8 133.0,427.2 68.0,428.1" fill="#74c476" fill-opacity="0.9" stroke="#fff" stroke-width="0.4"><title>control_flow_ssa — frontEndExecute (self)</title></polygon>
<polygon points="68.0,407.6 133.0,406.5 198.0,407.0 263.0,405.8 328.0,406.3 393.0,407.3 458.0,406.1 523.0,420.7 588.0,419.1 653.0,420.2 718.0,420.0 783.0,417.7 848.0,419.8 913.0,423.4 978.0,424.9 1043.0,417.6 1108.0,416.3 1108.0,424.9 1043.0,426.0 978.0,433.6 913.0,432.1 848.0,428.7 783.0,426.7 718.0,428.9 653.0,429.3 588.0,428.1 523.0,429.7 458.0,426.2 393.0,427.6 328.0,426.5 263.0,426.0 198.0,427.1 133.0,426.6 68.0,427.5" fill="#6baed6" fill-opacity="0.9" stroke="#fff" stroke-width="0.4"><title>control_flow_ssa — specializeModule</title></polygon>
<polygon points="68.0,344.9 133.0,344.1 198.0,344.3 263.0,344.1 328.0,343.6 393.0,343.2 458.0,344.2 523.0,375.2 588.0,374.2 653.0,375.0 718.0,375.5 783.0,370.8 848.0,374.1 913.0,379.8 978.0,380.5 1043.0,374.7 1108.0,372.4 1108.0,416.3 1043.0,417.6 978.0,424.9 913.0,423.4 848.0,419.8 783.0,417.7 718.0,420.0 653.0,420.2 588.0,419.1 523.0,420.7 458.0,406.1 393.0,407.3 328.0,406.3 263.0,405.8 198.0,407.0 133.0,406.5 68.0,407.6" fill="#2171b5" fill-opacity="0.9" stroke="#fff" stroke-width="0.4"><title>control_flow_ssa — simplifyIR</title></polygon>
<polygon points="68.0,341.7 133.0,340.7 198.0,341.0 263.0,340.8 328.0,340.3 393.0,340.0 458.0,341.1 523.0,372.3 588.0,371.4 653.0,372.1 718.0,372.6 783.0,367.9 848.0,371.3 913.0,376.8 978.0,377.7 1043.0,371.9 1108.0,369.6 1108.0,372.4 1043.0,374.7 978.0,380.5 913.0,379.8 848.0,374.1 783.0,370.8 718.0,375.5 653.0,375.0 588.0,374.2 523.0,375.2 458.0,344.2 393.0,343.2 328.0,343.6 263.0,344.1 198.0,344.3 133.0,344.1 68.0,344.9" fill="#08306b" fill-opacity="0.9" stroke="#fff" stroke-width="0.4"><title>control_flow_ssa — linkIR</title></polygon>
<polygon points="68.0,341.4 133.0,340.5 198.0,340.8 263.0,340.6 328.0,340.1 393.0,339.7 458.0,340.9 523.0,372.1 588.0,371.2 653.0,371.8 718.0,372.4 783.0,367.7 848.0,371.1 913.0,376.6 978.0,377.5 1043.0,371.7 1108.0,369.4 1108.0,369.6 1043.0,371.9 978.0,377.7 913.0,376.8 848.0,371.3 783.0,367.9 718.0,372.6 653.0,372.1 588.0,371.4 523.0,372.3 458.0,341.1 393.0,340.0 328.0,340.3 263.0,340.8 198.0,341.0 133.0,340.7 68.0,341.7" fill="#9e9ac8" fill-opacity="0.9" stroke="#fff" stroke-width="0.4"><title>control_flow_ssa — unrollLoopsInModule</title></polygon>
<polygon points="68.0,336.2 133.0,335.1 198.0,335.5 263.0,335.3 328.0,334.8 393.0,334.4 458.0,335.6 523.0,367.8 588.0,366.8 653.0,367.4 718.0,369.8 783.0,365.0 848.0,368.5 913.0,374.0 978.0,375.0 1043.0,369.1 1108.0,366.7 1108.0,369.4 1043.0,371.7 978.0,377.5 913.0,376.6 848.0,371.1 783.0,367.7 718.0,372.4 653.0,371.8 588.0,371.2 523.0,372.1 458.0,340.9 393.0,339.7 328.0,340.1 263.0,340.6 198.0,340.8 133.0,340.5 68.0,341.4" fill="#807dba" fill-opacity="0.9" stroke="#fff" stroke-width="0.4"><title>control_flow_ssa — legalizeResourceTypes</title></polygon>
<polygon points="68.0,330.7 133.0,329.5 198.0,329.9 263.0,329.8 328.0,329.3 393.0,328.9 458.0,330.2 523.0,363.2 588.0,362.4 653.0,362.9 718.0,367.1 783.0,362.2 848.0,365.8 913.0,371.1 978.0,372.2 1043.0,366.3 1108.0,363.7 1108.0,366.7 1043.0,369.1 978.0,375.0 913.0,374.0 848.0,368.5 783.0,365.0 718.0,369.8 653.0,367.4 588.0,366.8 523.0,367.8 458.0,335.6 393.0,334.4 328.0,334.8 263.0,335.3 198.0,335.5 133.0,335.1 68.0,336.2" fill="#6a51a3" fill-opacity="0.9" stroke="#fff" stroke-width="0.4"><title>control_flow_ssa — legalizeExistentialTypeLayout</title></polygon>
<polygon points="68.0,324.4 133.0,323.2 198.0,323.5 263.0,323.5 328.0,323.0 393.0,322.6 458.0,323.8 523.0,357.0 588.0,356.0 653.0,356.5 718.0,360.7 783.0,355.9 848.0,359.6 913.0,365.2 978.0,366.2 1043.0,360.3 1108.0,357.8 1108.0,363.7 1043.0,366.3 978.0,372.2 913.0,371.1 848.0,365.8 783.0,362.2 718.0,367.1 653.0,362.9 588.0,362.4 523.0,363.2 458.0,330.2 393.0,328.9 328.0,329.3 263.0,329.8 198.0,329.9 133.0,329.5 68.0,330.7" fill="#bcbddc" fill-opacity="0.9" stroke="#fff" stroke-width="0.4"><title>control_flow_ssa — performMandatoryEarlyInlining</title></polygon>
<polygon points="68.0,323.6 133.0,322.5 198.0,322.7 263.0,322.7 328.0,322.2 393.0,321.8 458.0,323.0 523.0,356.2 588.0,355.3 653.0,355.7 718.0,360.0 783.0,355.2 848.0,358.9 913.0,364.4 978.0,365.5 1043.0,359.6 1108.0,357.0 1108.0,357.8 1043.0,360.3 978.0,366.2 913.0,365.2 848.0,359.6 783.0,355.9 718.0,360.7 653.0,356.5 588.0,356.0 523.0,357.0 458.0,323.8 393.0,322.6 328.0,323.0 263.0,323.5 198.0,323.5 133.0,323.2 68.0,324.4" fill="#dadaeb" fill-opacity="0.9" stroke="#fff" stroke-width="0.4"><title>control_flow_ssa — performForceInlining</title></polygon>
<polygon points="68.0,246.9 133.0,245.0 198.0,246.9 263.0,244.3 328.0,247.6 393.0,244.8 458.0,247.7 523.0,281.1 588.0,282.0 653.0,281.6 718.0,288.2 783.0,274.1 848.0,287.0 913.0,301.2 978.0,302.6 1043.0,297.0 1108.0,292.8 1108.0,357.0 1043.0,359.6 978.0,365.5 913.0,364.4 848.0,358.9 783.0,355.2 718.0,360.0 653.0,355.7 588.0,355.3 523.0,356.2 458.0,323.0 393.0,321.8 328.0,322.2 263.0,322.7 198.0,322.7 133.0,322.5 68.0,323.6" fill="#4a1486" fill-opacity="0.9" stroke="#fff" stroke-width="0.4"><title>control_flow_ssa — linkAndOptimizeIR (self)</title></polygon>
<polygon points="68.0,111.1 133.0,108.6 198.0,110.5 263.0,110.8 328.0,115.0 393.0,111.2 458.0,113.2 523.0,146.4 588.0,148.6 653.0,150.8 718.0,157.4 783.0,145.6 848.0,157.6 913.0,180.3 978.0,180.9 1043.0,175.6 1108.0,172.2 1108.0,292.8 1043.0,297.0 978.0,302.6 913.0,301.2 848.0,287.0 783.0,274.1 718.0,288.2 653.0,281.6 588.0,282.0 523.0,281.1 458.0,247.7 393.0,244.8 328.0,247.6 263.0,244.3 198.0,246.9 133.0,245.0 68.0,246.9" fill="#e6550d" fill-opacity="0.9" stroke="#fff" stroke-width="0.4"><title>control_flow_ssa — generateOutput (self)</title></polygon>
<polygon points="68.0,111.1 133.0,108.6 198.0,109.7 263.0,110.8 328.0,115.0 393.0,110.8 458.0,112.1 523.0,145.0 588.0,148.4 653.0,150.8 718.0,156.0 783.0,145.6 848.0,157.6 913.0,180.3 978.0,180.9 1043.0,174.6 1108.0,172.2 1108.0,172.2 1043.0,175.6 978.0,180.9 913.0,180.3 848.0,157.6 783.0,145.6 718.0,157.4 653.0,150.8 588.0,148.6 523.0,146.4 458.0,113.2 393.0,111.2 328.0,115.0 263.0,110.8 198.0,110.5 133.0,108.6 68.0,111.1" fill="#969696" fill-opacity="0.9" stroke="#fff" stroke-width="0.4"><title>control_flow_ssa — compileInner (self)</title></polygon>
<text x="12" y="578" fill="#666" font-weight="600">phase buckets</text>
<rect x="12" y="586" width="12" height="12" fill="#c7e9c0"/>
<text x="28" y="596" fill="#222">parseTranslationUnit</text>
<rect x="289" y="586" width="12" height="12" fill="#41ab5d"/>
<text x="305" y="596" fill="#222">SemanticChecking</text>
<rect x="566" y="586" width="12" height="12" fill="#006d2c"/>
<text x="582" y="596" fill="#222">generateIR</text>
<rect x="843" y="586" width="12" height="12" fill="#74c476"/>
<text x="859" y="596" fill="#222">frontEndExecute (self)</text>
<rect x="12" y="604" width="12" height="12" fill="#6baed6"/>
<text x="28" y="614" fill="#222">specializeModule</text>
<rect x="289" y="604" width="12" height="12" fill="#2171b5"/>
<text x="305" y="614" fill="#222">simplifyIR</text>
<rect x="566" y="604" width="12" height="12" fill="#08306b"/>
<text x="582" y="614" fill="#222">linkIR</text>
<rect x="843" y="604" width="12" height="12" fill="#9e9ac8"/>
<text x="859" y="614" fill="#222">unrollLoopsInModule</text>
<rect x="12" y="622" width="12" height="12" fill="#807dba"/>
<text x="28" y="632" fill="#222">legalizeResourceTypes</text>
<rect x="289" y="622" width="12" height="12" fill="#6a51a3"/>
<text x="305" y="632" fill="#222">legalizeExistentialTypeLayout</text>
<rect x="566" y="622" width="12" height="12" fill="#bcbddc"/>
<text x="582" y="632" fill="#222">performMandatoryEarlyInlining</text>
<rect x="843" y="622" width="12" height="12" fill="#dadaeb"/>
<text x="859" y="632" fill="#222">performForceInlining</text>
<rect x="12" y="640" width="12" height="12" fill="#4a1486"/>
<text x="28" y="650" fill="#222">linkAndOptimizeIR (self)</text>
<rect x="289" y="640" width="12" height="12" fill="#fd8d3c"/>
<text x="305" y="650" fill="#222">emitEntryPointsSourceFromIR</text>
<rect x="566" y="640" width="12" height="12" fill="#e6550d"/>
<text x="582" y="650" fill="#222">generateOutput (self)</text>
<rect x="843" y="640" width="12" height="12" fill="#969696"/>
<text x="859" y="650" fill="#222">compileInner (self)</text>
</svg>