<svg xmlns="http://www.w3.org/2000/svg" xmlns:xlink="http://www.w3.org/1999/xlink" width="1132" height="680" viewBox="0 0 1132 680" preserveAspectRatio="xMidYMid meet" font-family="sans-serif" font-size="13">
<rect width="1132" height="680" fill="white"/>
<text x="12" y="30" font-size="20" font-weight="bold">control_flow_ssa — Daily tip-of-tree (last 30 days) (median ms)</text>
<text x="68" y="60" font-size="15" font-weight="600" fill="#1a1a1a">control_flow_ssa<tspan fill="#888" font-weight="400" text-decoration="none">  0.81×</tspan></text>
<line x1="68.0" y1="516.0" x2="1108.0" y2="516.0" stroke="#eee"/>
<text x="64.0" y="519.0" text-anchor="end" fill="#999">0.0</text>
<line x1="68.0" y1="296.0" x2="1108.0" y2="296.0" stroke="#eee"/>
<text x="64.0" y="299.0" text-anchor="end" fill="#999">130</text>
<line x1="68.0" y1="76.0" x2="1108.0" y2="76.0" stroke="#eee"/>
<text x="64.0" y="79.0" text-anchor="end" fill="#999">260</text>
<line x1="68.0" y1="76.0" x2="68.0" y2="516.0" stroke="#333"/>
<line x1="68.0" y1="516.0" x2="1108.0" y2="516.0" stroke="#333"/>
<line x1="68.0" y1="516.0" x2="68.0" y2="519.0" stroke="#999"/>
<text x="68.0" y="531.0" text-anchor="end" fill="#e8731a" transform="rotate(-50 68.0 531.0)">06-25</text>
<line x1="117.5" y1="516.0" x2="117.5" y2="519.0" stroke="#999"/>
<text x="117.5" y="531.0" text-anchor="end" fill="#e8731a" transform="rotate(-50 117.5 531.0)">06-26</text>
<line x1="167.0" y1="516.0" x2="167.0" y2="519.0" stroke="#999"/>
<text x="167.0" y="531.0" text-anchor="end" fill="#e8731a" transform="rotate(-50 167.0 531.0)">06-28</text>
<line x1="216.6" y1="516.0" x2="216.6" y2="519.0" stroke="#999"/>
<text x="216.6" y="531.0" text-anchor="end" fill="#e8731a" transform="rotate(-50 216.6 531.0)">07-01</text>
<line x1="266.1" y1="516.0" x2="266.1" y2="519.0" stroke="#999"/>
<text x="266.1" y="531.0" text-anchor="end" fill="#e8731a" transform="rotate(-50 266.1 531.0)">07-02</text>
<line x1="315.6" y1="516.0" x2="315.6" y2="519.0" stroke="#999"/>
<text x="315.6" y="531.0" text-anchor="end" fill="#e8731a" transform="rotate(-50 315.6 531.0)">07-03</text>
<line x1="365.1" y1="516.0" x2="365.1" y2="519.0" stroke="#999"/>
<text x="365.1" y="531.0" text-anchor="end" fill="#e8731a" transform="rotate(-50 365.1 531.0)">07-06</text>
<line x1="414.7" y1="516.0" x2="414.7" y2="519.0" stroke="#999"/>
<text x="414.7" y="531.0" text-anchor="end" fill="#e8731a" transform="rotate(-50 414.7 531.0)">07-07</text>
<line x1="464.2" y1="516.0" x2="464.2" y2="519.0" stroke="#999"/>
<text x="464.2" y="531.0" text-anchor="end" fill="#e8731a" transform="rotate(-50 464.2 531.0)">07-08</text>
<line x1="513.7" y1="516.0" x2="513.7" y2="519.0" stroke="#999"/>
<text x="513.7" y="531.0" text-anchor="end" fill="#e8731a" transform="rotate(-50 513.7 531.0)">07-09</text>
<line x1="563.2" y1="516.0" x2="563.2" y2="519.0" stroke="#999"/>
<text x="563.2" y="531.0" text-anchor="end" fill="#e8731a" transform="rotate(-50 563.2 531.0)">07-10</text>
<line x1="612.8" y1="516.0" x2="612.8" y2="519.0" stroke="#999"/>
<text x="612.8" y="531.0" text-anchor="end" fill="#e8731a" transform="rotate(-50 612.8 531.0)">07-11</text>
<line x1="662.3" y1="516.0" x2="662.3" y2="519.0" stroke="#999"/>
<text x="662.3" y="531.0" text-anchor="end" fill="#e8731a" transform="rotate(-50 662.3 531.0)">07-14</text>
<line x1="711.8" y1="516.0" x2="711.8" y2="519.0" stroke="#999"/>
<text x="711.8" y="531.0" text-anchor="end" fill="#e8731a" transform="rotate(-50 711.8 531.0)">07-15</text>
<line x1="761.3" y1="516.0" x2="761.3" y2="519.0" stroke="#999"/>
<text x="761.3" y="531.0" text-anchor="end" fill="#e8731a" transform="rotate(-50 761.3 531.0)">07-15</text>
<line x1="810.9" y1="516.0" x2="810.9" y2="519.0" stroke="#999"/>
<text x="810.9" y="531.0" text-anchor="end" fill="#e8731a" transform="rotate(-50 810.9 531.0)">07-16</text>
<line x1="860.4" y1="516.0" x2="860.4" y2="519.0" stroke="#999"/>
<text x="860.4" y="531.0" text-anchor="end" fill="#e8731a" transform="rotate(-50 860.4 531.0)">07-17</text>
<line x1="909.9" y1="516.0" x2="909.9" y2="519.0" stroke="#999"/>
<text x="909.9" y="531.0" text-anchor="end" fill="#e8731a" transform="rotate(-50 909.9 531.0)">07-18</text>
<line x1="959.4" y1="516.0" x2="959.4" y2="519.0" stroke="#999"/>
<text x="959.4" y="531.0" text-anchor="end" fill="#e8731a" transform="rotate(-50 959.4 531.0)">07-19</text>
<line x1="1009.0" y1="516.0" x2="1009.0" y2="519.0" stroke="#999"/>
<text x="1009.0" y="531.0" text-anchor="end" fill="#e8731a" transform="rotate(-50 1009.0 531.0)">07-20</text>
<line x1="1058.5" y1="516.0" x2="1058.5" y2="519.0" stroke="#999"/>
<text x="1058.5" y="531.0" text-anchor="end" fill="#e8731a" transform="rotate(-50 1058.5 531.0)">07-21</text>
<line x1="1108.0" y1="516.0" x2="1108.0" y2="519.0" stroke="#999"/>
<text x="1108.0" y="531.0" text-anchor="end" fill="#e8731a" transform="rotate(-50 1108.0 531.0)">07-22</text>
<polygon points="68.0,513.7 117.5,513.7 167.0,513.6 216.6,513.7 266.1,513.7 315.6,513.7 365.1,513.6 414.7,514.0 464.2,514.1 513.7,514.0 563.2,514.0 612.8,513.9 662.3,514.1 711.8,514.1 761.3,514.1 810.9,514.2 860.4,514.1 909.9,514.1 959.4,514.2 1009.0,514.2 1058.5,514.2 1108.0,514.2 1108.0,516.0 1058.5,516.0 1009.0,516.0 959.4,516.0 909.9,516.0 860.4,516.0 810.9,516.0 761.3,516.0 711.8,516.0 662.3,516.0 612.8,516.0 563.2,516.0 513.7,516.0 464.2,516.0 414.7,516.0 365.1,516.0 315.6,516.0 266.1,516.0 216.6,516.0 167.0,516.0 117.5,516.0 68.0,516.0" fill="#c7e9c0" fill-opacity="0.9" stroke="#fff" stroke-width="0.4"><title>control_flow_ssa — parseTranslationUnit</title></polygon>
<polygon points="68.0,467.1 117.5,466.6 167.0,467.0 216.6,467.2 266.1,467.6 315.6,468.0 365.1,466.5 414.7,470.2 464.2,469.0 513.7,469.6 563.2,469.0 612.8,467.7 662.3,468.9 711.8,470.8 761.3,471.0 810.9,462.9 860.4,462.4 909.9,466.6 959.4,465.7 1009.0,465.4 1058.5,465.2 1108.0,463.8 1108.0,514.2 1058.5,514.2 1009.0,514.2 959.4,514.2 909.9,514.1 860.4,514.1 810.9,514.2 761.3,514.1 711.8,514.1 662.3,514.1 612.8,513.9 563.2,514.0 513.7,514.0 464.2,514.1 414.7,514.0 365.1,513.6 315.6,513.7 266.1,513.7 216.6,513.7 167.0,513.6 117.5,513.7 68.0,513.7" fill="#41ab5d" fill-opacity="0.9" stroke="#fff" stroke-width="0.4"><title>control_flow_ssa — SemanticChecking</title></polygon>
<polygon points="68.0,428.1 117.5,427.2 167.0,427.8 216.6,427.3 266.1,428.1 315.6,428.6 365.1,427.4 414.7,430.7 464.2,428.7 513.7,429.7 563.2,428.9 612.8,427.3 662.3,429.6 711.8,434.4 761.3,434.3 810.9,426.6 860.4,426.1 909.9,433.9 959.4,432.7 1009.0,431.9 1058.5,432.0 1108.0,429.7 1108.0,463.8 1058.5,465.2 1009.0,465.4 959.4,465.7 909.9,466.6 860.4,462.4 810.9,462.9 761.3,471.0 711.8,470.8 662.3,468.9 612.8,467.7 563.2,469.0 513.7,469.6 464.2,469.0 414.7,470.2 365.1,466.5 315.6,468.0 266.1,467.6 216.6,467.2 167.0,467.0 117.5,466.6 68.0,467.1" fill="#006d2c" fill-opacity="0.9" stroke="#fff" stroke-width="0.4"><title>control_flow_ssa — generateIR</title></polygon>
<polygon points="68.0,427.5 117.5,426.6 167.0,427.1 216.6,426.0 266.1,426.5 315.6,427.6 365.1,426.2 414.7,429.7 464.2,428.1 513.7,429.3 563.2,428.9 612.8,426.7 662.3,428.7 711.8,432.1 761.3,433.6 810.9,426.0 860.4,424.9 909.9,433.4 959.4,432.3 1009.0,431.9 1058.5,431.4 1108.0,429.7 1108.0,429.7 1058.5,432.0 1009.0,431.9 959.4,432.7 909.9,433.9 860.4,426.1 810.9,426.6 761.3,434.3 711.8,434.4 662.3,429.6 612.8,427.3 563.2,428.9 513.7,429.7 464.2,428.7 414.7,430.7 365.1,427.4 315.6,428.6 266.1,428.1 216.6,427.3 167.0,427.8 117.5,427.2 68.0,428.1" fill="#74c476" fill-opacity="0.9" stroke="#fff" stroke-width="0.4"><title>control_flow_ssa — frontEndExecute (self)</title></polygon>
<polygon points="68.0,407.6 117.5,406.5 167.0,407.0 216.6,405.8 266.1,406.3 315.6,407.3 365.1,406.1 414.7,420.7 464.2,419.1 513.7,420.2 563.2,420.0 612.8,417.7 662.3,419.8 711.8,423.4 761.3,424.9 810.9,417.6 860.4,416.3 909.9,425.5 959.4,424.3 1009.0,424.0 1058.5,423.6 1108.0,421.8 1108.0,429.7 1058.5,431.4 1009.0,431.9 959.4,432.3 909.9,433.4 860.4,424.9 810.9,426.0 761.3,433.6 711.8,432.1 662.3,428.7 612.8,426.7 563.2,428.9 513.7,429.3 464.2,428.1 414.7,429.7 365.1,426.2 315.6,427.6 266.1,426.5 216.6,426.0 167.0,427.1 117.5,426.6 68.0,427.5" fill="#6baed6" fill-opacity="0.9" stroke="#fff" stroke-width="0.4"><title>control_flow_ssa — specializeModule</title></polygon>
<polygon points="68.0,344.9 117.5,344.1 167.0,344.3 216.6,344.1 266.1,343.6 315.6,343.2 365.1,344.2 414.7,375.2 464.2,374.2 513.7,375.0 563.2,375.5 612.8,370.8 662.3,374.1 711.8,379.8 761.3,380.5 810.9,374.7 860.4,372.4 909.9,387.7 959.4,386.4 1009.0,386.0 1058.5,385.8 1108.0,383.6 1108.0,421.8 1058.5,423.6 1009.0,424.0 959.4,424.3 909.9,425.5 860.4,416.3 810.9,417.6 761.3,424.9 711.8,423.4 662.3,419.8 612.8,417.7 563.2,420.0 513.7,420.2 464.2,419.1 414.7,420.7 365.1,406.1 315.6,407.3 266.1,406.3 216.6,405.8 167.0,407.0 117.5,406.5 68.0,407.6" fill="#2171b5" fill-opacity="0.9" stroke="#fff" stroke-width="0.4"><title>control_flow_ssa — simplifyIR</title></polygon>
<polygon points="68.0,341.7 117.5,340.7 167.0,341.0 216.6,340.8 266.1,340.3 315.6,340.0 365.1,341.1 414.7,372.3 464.2,371.4 513.7,372.1 563.2,372.6 612.8,367.9 662.3,371.3 711.8,376.8 761.3,377.7 810.9,371.9 860.4,369.6 909.9,385.4 959.4,384.0 1009.0,383.6 1058.5,383.3 1108.0,381.1 1108.0,383.6 1058.5,385.8 1009.0,386.0 959.4,386.4 909.9,387.7 860.4,372.4 810.9,374.7 761.3,380.5 711.8,379.8 662.3,374.1 612.8,370.8 563.2,375.5 513.7,375.0 464.2,374.2 414.7,375.2 365.1,344.2 315.6,343.2 266.1,343.6 216.6,344.1 167.0,344.3 117.5,344.1 68.0,344.9" fill="#08306b" fill-opacity="0.9" stroke="#fff" stroke-width="0.4"><title>control_flow_ssa — linkIR</title></polygon>
<polygon points="68.0,341.4 117.5,340.5 167.0,340.8 216.6,340.6 266.1,340.1 315.6,339.7 365.1,340.9 414.7,372.1 464.2,371.2 513.7,371.8 563.2,372.4 612.8,367.7 662.3,371.1 711.8,376.6 761.3,377.5 810.9,371.7 860.4,369.4 909.9,385.2 959.4,383.8 1009.0,383.4 1058.5,383.1 1108.0,380.8 1108.0,381.1 1058.5,383.3 1009.0,383.6 959.4,384.0 909.9,385.4 860.4,369.6 810.9,371.9 761.3,377.7 711.8,376.8 662.3,371.3 612.8,367.9 563.2,372.6 513.7,372.1 464.2,371.4 414.7,372.3 365.1,341.1 315.6,340.0 266.1,340.3 216.6,340.8 167.0,341.0 117.5,340.7 68.0,341.7" fill="#9e9ac8" fill-opacity="0.9" stroke="#fff" stroke-width="0.4"><title>control_flow_ssa — unrollLoopsInModule</title></polygon>
<polygon points="68.0,336.2 117.5,335.1 167.0,335.5 216.6,335.3 266.1,334.8 315.6,334.4 365.1,335.6 414.7,367.8 464.2,366.8 513.7,367.4 563.2,369.8 612.8,365.0 662.3,368.5 711.8,374.0 761.3,375.0 810.9,369.1 860.4,366.7 909.9,382.6 959.4,381.2 1009.0,380.8 1058.5,380.5 1108.0,378.2 1108.0,380.8 1058.5,383.1 1009.0,383.4 959.4,383.8 909.9,385.2 860.4,369.4 810.9,371.7 761.3,377.5 711.8,376.6 662.3,371.1 612.8,367.7 563.2,372.4 513.7,371.8 464.2,371.2 414.7,372.1 365.1,340.9 315.6,339.7 266.1,340.1 216.6,340.6 167.0,340.8 117.5,340.5 68.0,341.4" fill="#807dba" fill-opacity="0.9" stroke="#fff" stroke-width="0.4"><title>control_flow_ssa — legalizeResourceTypes</title></polygon>
<polygon points="68.0,330.7 117.5,329.5 167.0,329.9 216.6,329.8 266.1,329.3 315.6,328.9 365.1,330.2 414.7,363.2 464.2,362.4 513.7,362.9 563.2,367.1 612.8,362.2 662.3,365.8 711.8,371.1 761.3,372.2 810.9,366.3 860.4,363.7 909.9,380.0 959.4,378.4 1009.0,378.0 1058.5,377.8 1108.0,375.5 1108.0,378.2 1058.5,380.5 1009.0,380.8 959.4,381.2 909.9,382.6 860.4,366.7 810.9,369.1 761.3,375.0 711.8,374.0 662.3,368.5 612.8,365.0 563.2,369.8 513.7,367.4 464.2,366.8 414.7,367.8 365.1,335.6 315.6,334.4 266.1,334.8 216.6,335.3 167.0,335.5 117.5,335.1 68.0,336.2" fill="#6a51a3" fill-opacity="0.9" stroke="#fff" stroke-width="0.4"><title>control_flow_ssa — legalizeExistentialTypeLayout</title></polygon>
<polygon points="68.0,324.4 117.5,323.2 167.0,323.5 216.6,323.5 266.1,323.0 315.6,322.6 365.1,323.8 414.7,357.0 464.2,356.0 513.7,356.5 563.2,360.7 612.8,355.9 662.3,359.6 711.8,365.2 761.3,366.2 810.9,360.3 860.4,357.8 909.9,374.7 959.4,373.1 1009.0,372.8 1058.5,372.5 1108.0,370.3 1108.0,375.5 1058.5,377.8 1009.0,378.0 959.4,378.4 909.9,380.0 860.4,363.7 810.9,366.3 761.3,372.2 711.8,371.1 662.3,365.8 612.8,362.2 563.2,367.1 513.7,362.9 464.2,362.4 414.7,363.2 365.1,330.2 315.6,328.9 266.1,329.3 216.6,329.8 167.0,329.9 117.5,329.5 68.0,330.7" fill="#bcbddc" fill-opacity="0.9" stroke="#fff" stroke-width="0.4"><title>control_flow_ssa — performMandatoryEarlyInlining</title></polygon>
<polygon points="68.0,323.6 117.5,322.5 167.0,322.7 216.6,322.7 266.1,322.2 315.6,321.8 365.1,323.0 414.7,356.2 464.2,355.3 513.7,355.7 563.2,360.0 612.8,355.2 662.3,358.9 711.8,364.4 761.3,365.5 810.9,359.6 860.4,357.0 909.9,374.1 959.4,372.5 1009.0,372.2 1058.5,372.0 1108.0,369.7 1108.0,370.3 1058.5,372.5 1009.0,372.8 959.4,373.1 909.9,374.7 860.4,357.8 810.9,360.3 761.3,366.2 711.8,365.2 662.3,359.6 612.8,355.9 563.2,360.7 513.7,356.5 464.2,356.0 414.7,357.0 365.1,323.8 315.6,322.6 266.1,323.0 216.6,323.5 167.0,323.5 117.5,323.2 68.0,324.4" fill="#dadaeb" fill-opacity="0.9" stroke="#fff" stroke-width="0.4"><title>control_flow_ssa — performForceInlining</title></polygon>
<polygon points="68.0,246.9 117.5,245.0 167.0,246.9 216.6,244.3 266.1,247.6 315.6,244.8 365.1,247.7 414.7,281.1 464.2,282.0 513.7,281.6 563.2,288.2 612.8,274.1 662.3,287.0 711.8,301.2 761.3,302.6 810.9,297.0 860.4,292.8 909.9,313.8 959.4,311.0 1009.0,308.9 1058.5,311.7 1108.0,308.0 1108.0,369.7 1058.5,372.0 1009.0,372.2 959.4,372.5 909.9,374.1 860.4,357.0 810.9,359.6 761.3,365.5 711.8,364.4 662.3,358.9 612.8,355.2 563.2,360.0 513.7,355.7 464.2,355.3 414.7,356.2 365.1,323.0 315.6,321.8 266.1,322.2 216.6,322.7 167.0,322.7 117.5,322.5 68.0,323.6" fill="#4a1486" fill-opacity="0.9" stroke="#fff" stroke-width="0.4"><title>control_flow_ssa — linkAndOptimizeIR (self)</title></polygon>
<polygon points="68.0,111.1 117.5,108.6 167.0,110.5 216.6,110.8 266.1,115.0 315.6,111.2 365.1,113.2 414.7,146.4 464.2,148.6 513.7,150.8 563.2,157.4 612.8,145.6 662.3,157.6 711.8,180.3 761.3,180.9 810.9,175.6 860.4,172.2 909.9,195.6 959.4,189.8 1009.0,191.3 1058.5,192.2 1108.0,187.2 1108.0,308.0 1058.5,311.7 1009.0,308.9 959.4,311.0 909.9,313.8 860.4,292.8 810.9,297.0 761.3,302.6 711.8,301.2 662.3,287.0 612.8,274.1 563.2,288.2 513.7,281.6 464.2,282.0 414.7,281.1 365.1,247.7 315.6,244.8 266.1,247.6 216.6,244.3 167.0,246.9 117.5,245.0 68.0,246.9" fill="#e6550d" fill-opacity="0.9" stroke="#fff" stroke-width="0.4"><title>control_flow_ssa — generateOutput (self)</title></polygon>
<polygon points="68.0,111.1 117.5,108.6 167.0,109.7 216.6,110.8 266.1,115.0 315.6,110.8 365.1,112.1 414.7,145.0 464.2,148.4 513.7,150.8 563.2,156.0 612.8,145.6 662.3,157.6 711.8,180.3 761.3,180.9 810.9,174.6 860.4,172.2 909.9,194.1 959.4,188.0 1009.0,191.1 1058.5,191.9 1108.0,187.0 1108.0,187.2 1058.5,192.2 1009.0,191.3 959.4,189.8 909.9,195.6 860.4,172.2 810.9,175.6 761.3,180.9 711.8,180.3 662.3,157.6 612.8,145.6 563.2,157.4 513.7,150.8 464.2,148.6 414.7,146.4 365.1,113.2 315.6,111.2 266.1,115.0 216.6,110.8 167.0,110.5 117.5,108.6 68.0,111.1" fill="#969696" fill-opacity="0.9" stroke="#fff" stroke-width="0.4"><title>control_flow_ssa — compileInner (self)</title></polygon>
<text x="12" y="578" fill="#666" font-weight="600">phase buckets</text>
<rect x="12" y="586" width="12" height="12" fill="#c7e9c0"/>
<text x="28" y="596" fill="#222">parseTranslationUnit</text>
<rect x="289" y="586" width="12" height="12" fill="#41ab5d"/>
<text x="305" y="596" fill="#222">SemanticChecking</text>
<rect x="566" y="586" width="12" height="12" fill="#006d2c"/>
<text x="582" y="596" fill="#222">generateIR</text>
<rect x="843" y="586" width="12" height="12" fill="#74c476"/>
<text x="859" y="596" fill="#222">frontEndExecute (self)</text>
<rect x="12" y="604" width="12" height="12" fill="#6baed6"/>
<text x="28" y="614" fill="#222">specializeModule</text>
<rect x="289" y="604" width="12" height="12" fill="#2171b5"/>
<text x="305" y="614" fill="#222">simplifyIR</text>
<rect x="566" y="604" width="12" height="12" fill="#08306b"/>
<text x="582" y="614" fill="#222">linkIR</text>
<rect x="843" y="604" width="12" height="12" fill="#9e9ac8"/>
<text x="859" y="614" fill="#222">unrollLoopsInModule</text>
<rect x="12" y="622" width="12" height="12" fill="#807dba"/>
<text x="28" y="632" fill="#222">legalizeResourceTypes</text>
<rect x="289" y="622" width="12" height="12" fill="#6a51a3"/>
<text x="305" y="632" fill="#222">legalizeExistentialTypeLayout</text>
<rect x="566" y="622" width="12" height="12" fill="#bcbddc"/>
<text x="582" y="632" fill="#222">performMandatoryEarlyInlining</text>
<rect x="843" y="622" width="12" height="12" fill="#dadaeb"/>
<text x="859" y="632" fill="#222">performForceInlining</text>
<rect x="12" y="640" width="12" height="12" fill="#4a1486"/>
<text x="28" y="650" fill="#222">linkAndOptimizeIR (self)</text>
<rect x="289" y="640" width="12" height="12" fill="#fd8d3c"/>
<text x="305" y="650" fill="#222">emitEntryPointsSourceFromIR</text>
<rect x="566" y="640" width="12" height="12" fill="#e6550d"/>
<text x="582" y="650" fill="#222">generateOutput (self)</text>
<rect x="843" y="640" width="12" height="12" fill="#969696"/>
<text x="859" y="650" fill="#222">compileInner (self)</text>
</svg>