<svg xmlns="http://www.w3.org/2000/svg" xmlns:xlink="http://www.w3.org/1999/xlink" width="1132" height="680" viewBox="0 0 1132 680" preserveAspectRatio="xMidYMid meet" font-family="sans-serif" font-size="13">
<rect width="1132" height="680" fill="white"/>
<text x="12" y="30" font-size="20" font-weight="bold">control_flow_ssa — Across releases (median ms)</text>
<text x="68" y="60" font-size="15" font-weight="600" fill="#1a1a1a">control_flow_ssa<tspan fill="#888" font-weight="400" text-decoration="none">  0.80×</tspan></text>
<line x1="68.0" y1="516.0" x2="1108.0" y2="516.0" stroke="#eee"/>
<text x="64.0" y="519.0" text-anchor="end" fill="#999">0.0</text>
<line x1="68.0" y1="296.0" x2="1108.0" y2="296.0" stroke="#eee"/>
<text x="64.0" y="299.0" text-anchor="end" fill="#999">205</text>
<line x1="68.0" y1="76.0" x2="1108.0" y2="76.0" stroke="#eee"/>
<text x="64.0" y="79.0" text-anchor="end" fill="#999">409</text>
<line x1="68.0" y1="76.0" x2="68.0" y2="516.0" stroke="#333"/>
<line x1="68.0" y1="516.0" x2="1108.0" y2="516.0" stroke="#333"/>
<line x1="68.0" y1="516.0" x2="68.0" y2="519.0" stroke="#999"/>
<text x="68.0" y="531.0" text-anchor="end" fill="#666" transform="rotate(-50 68.0 531.0)">25.12</text>
<line x1="108.0" y1="516.0" x2="108.0" y2="519.0" stroke="#999"/>
<text x="108.0" y="531.0" text-anchor="end" fill="#666" transform="rotate(-50 108.0 531.0)">25.13</text>
<line x1="148.0" y1="516.0" x2="148.0" y2="519.0" stroke="#999"/>
<text x="148.0" y="531.0" text-anchor="end" fill="#666" transform="rotate(-50 148.0 531.0)">25.14</text>
<line x1="188.0" y1="516.0" x2="188.0" y2="519.0" stroke="#999"/>
<text x="188.0" y="531.0" text-anchor="end" fill="#666" transform="rotate(-50 188.0 531.0)">25.15</text>
<line x1="228.0" y1="516.0" x2="228.0" y2="519.0" stroke="#999"/>
<text x="228.0" y="531.0" text-anchor="end" fill="#666" transform="rotate(-50 228.0 531.0)">25.16</text>
<line x1="268.0" y1="516.0" x2="268.0" y2="519.0" stroke="#999"/>
<text x="268.0" y="531.0" text-anchor="end" fill="#666" transform="rotate(-50 268.0 531.0)">25.17</text>
<line x1="308.0" y1="516.0" x2="308.0" y2="519.0" stroke="#999"/>
<text x="308.0" y="531.0" text-anchor="end" fill="#666" transform="rotate(-50 308.0 531.0)">25.18</text>
<line x1="348.0" y1="516.0" x2="348.0" y2="519.0" stroke="#999"/>
<text x="348.0" y="531.0" text-anchor="end" fill="#666" transform="rotate(-50 348.0 531.0)">25.19</text>
<line x1="388.0" y1="516.0" x2="388.0" y2="519.0" stroke="#999"/>
<text x="388.0" y="531.0" text-anchor="end" fill="#666" transform="rotate(-50 388.0 531.0)">25.20</text>
<line x1="428.0" y1="516.0" x2="428.0" y2="519.0" stroke="#999"/>
<text x="428.0" y="531.0" text-anchor="end" fill="#666" transform="rotate(-50 428.0 531.0)">25.21</text>
<line x1="468.0" y1="516.0" x2="468.0" y2="519.0" stroke="#999"/>
<text x="468.0" y="531.0" text-anchor="end" fill="#666" transform="rotate(-50 468.0 531.0)">25.22</text>
<line x1="508.0" y1="516.0" x2="508.0" y2="519.0" stroke="#999"/>
<text x="508.0" y="531.0" text-anchor="end" fill="#666" transform="rotate(-50 508.0 531.0)">25.23</text>
<line x1="548.0" y1="516.0" x2="548.0" y2="519.0" stroke="#999"/>
<text x="548.0" y="531.0" text-anchor="end" fill="#666" transform="rotate(-50 548.0 531.0)">25.24</text>
<line x1="588.0" y1="516.0" x2="588.0" y2="519.0" stroke="#999"/>
<text x="588.0" y="531.0" text-anchor="end" fill="#666" transform="rotate(-50 588.0 531.0)">26.1</text>
<line x1="628.0" y1="516.0" x2="628.0" y2="519.0" stroke="#999"/>
<text x="628.0" y="531.0" text-anchor="end" fill="#666" transform="rotate(-50 628.0 531.0)">26.2</text>
<line x1="668.0" y1="516.0" x2="668.0" y2="519.0" stroke="#999"/>
<text x="668.0" y="531.0" text-anchor="end" fill="#666" transform="rotate(-50 668.0 531.0)">26.3</text>
<line x1="708.0" y1="516.0" x2="708.0" y2="519.0" stroke="#999"/>
<text x="708.0" y="531.0" text-anchor="end" fill="#666" transform="rotate(-50 708.0 531.0)">26.4</text>
<line x1="748.0" y1="516.0" x2="748.0" y2="519.0" stroke="#999"/>
<text x="748.0" y="531.0" text-anchor="end" fill="#666" transform="rotate(-50 748.0 531.0)">26.5</text>
<line x1="788.0" y1="516.0" x2="788.0" y2="519.0" stroke="#999"/>
<text x="788.0" y="531.0" text-anchor="end" fill="#666" transform="rotate(-50 788.0 531.0)">26.7</text>
<line x1="828.0" y1="516.0" x2="828.0" y2="519.0" stroke="#999"/>
<text x="828.0" y="531.0" text-anchor="end" fill="#666" transform="rotate(-50 828.0 531.0)">26.8</text>
<line x1="868.0" y1="516.0" x2="868.0" y2="519.0" stroke="#999"/>
<text x="868.0" y="531.0" text-anchor="end" fill="#666" transform="rotate(-50 868.0 531.0)">26.9</text>
<line x1="908.0" y1="516.0" x2="908.0" y2="519.0" stroke="#999"/>
<text x="908.0" y="531.0" text-anchor="end" fill="#666" transform="rotate(-50 908.0 531.0)">26.10</text>
<line x1="948.0" y1="516.0" x2="948.0" y2="519.0" stroke="#999"/>
<text x="948.0" y="531.0" text-anchor="end" fill="#666" transform="rotate(-50 948.0 531.0)">26.11</text>
<line x1="988.0" y1="516.0" x2="988.0" y2="519.0" stroke="#999"/>
<text x="988.0" y="531.0" text-anchor="end" fill="#666" transform="rotate(-50 988.0 531.0)">26.12</text>
<line x1="1028.0" y1="516.0" x2="1028.0" y2="519.0" stroke="#999"/>
<text x="1028.0" y="531.0" text-anchor="end" fill="#666" transform="rotate(-50 1028.0 531.0)">26.13</text>
<line x1="1068.0" y1="516.0" x2="1068.0" y2="519.0" stroke="#999"/>
<text x="1068.0" y="531.0" text-anchor="end" fill="#666" transform="rotate(-50 1068.0 531.0)">26.13.1</text>
<line x1="1108.0" y1="516.0" x2="1108.0" y2="519.0" stroke="#999"/>
<text x="1108.0" y="531.0" text-anchor="end" fill="#666" transform="rotate(-50 1108.0 531.0)">26.14</text>
<polygon points="68.0,514.9 108.0,514.3 148.0,514.2 188.0,514.6 228.0,514.7 268.0,514.7 308.0,514.7 348.0,514.7 388.0,514.7 428.0,514.7 468.0,514.7 508.0,514.7 548.0,514.7 588.0,514.7 628.0,514.7 668.0,514.6 708.0,514.6 748.0,514.6 788.0,514.6 828.0,514.6 868.0,514.6 908.0,514.6 948.0,514.5 988.0,514.6 1028.0,514.6 1068.0,514.6 1108.0,514.7 1108.0,516.0 1068.0,516.0 1028.0,516.0 988.0,516.0 948.0,516.0 908.0,516.0 868.0,516.0 828.0,516.0 788.0,516.0 748.0,516.0 708.0,516.0 668.0,516.0 628.0,516.0 588.0,516.0 548.0,516.0 508.0,516.0 468.0,516.0 428.0,516.0 388.0,516.0 348.0,516.0 308.0,516.0 268.0,516.0 228.0,516.0 188.0,516.0 148.0,516.0 108.0,516.0 68.0,516.0" fill="#c7e9c0" fill-opacity="0.9" stroke="#fff" stroke-width="0.4"><title>control_flow_ssa — parseTranslationUnit</title></polygon>
<polygon points="68.0,468.7 108.0,466.6 148.0,452.9 188.0,444.2 228.0,450.8 268.0,448.9 308.0,448.8 348.0,449.5 388.0,448.5 428.0,448.3 468.0,455.1 508.0,455.0 548.0,454.0 588.0,453.4 628.0,450.3 668.0,450.1 708.0,448.7 748.0,450.5 788.0,426.5 828.0,433.7 868.0,427.9 908.0,402.1 948.0,483.3 988.0,486.9 1028.0,488.0 1068.0,487.3 1108.0,485.5 1108.0,514.7 1068.0,514.6 1028.0,514.6 988.0,514.6 948.0,514.5 908.0,514.6 868.0,514.6 828.0,514.6 788.0,514.6 748.0,514.6 708.0,514.6 668.0,514.6 628.0,514.7 588.0,514.7 548.0,514.7 508.0,514.7 468.0,514.7 428.0,514.7 388.0,514.7 348.0,514.7 308.0,514.7 268.0,514.7 228.0,514.7 188.0,514.6 148.0,514.2 108.0,514.3 68.0,514.9" fill="#41ab5d" fill-opacity="0.9" stroke="#fff" stroke-width="0.4"><title>control_flow_ssa — SemanticChecking</title></polygon>
<polygon points="68.0,447.2 108.0,442.3 148.0,423.1 188.0,418.6 228.0,426.3 268.0,423.8 308.0,423.1 348.0,424.3 388.0,423.1 428.0,423.1 468.0,430.1 508.0,430.4 548.0,429.4 588.0,428.4 628.0,425.3 668.0,424.7 708.0,422.4 748.0,424.8 788.0,382.9 828.0,397.2 868.0,388.3 908.0,352.9 948.0,456.4 988.0,461.3 1028.0,464.3 1068.0,463.1 1108.0,466.2 1108.0,485.5 1068.0,487.3 1028.0,488.0 988.0,486.9 948.0,483.3 908.0,402.1 868.0,427.9 828.0,433.7 788.0,426.5 748.0,450.5 708.0,448.7 668.0,450.1 628.0,450.3 588.0,453.4 548.0,454.0 508.0,455.0 468.0,455.1 428.0,448.3 388.0,448.5 348.0,449.5 308.0,448.8 268.0,448.9 228.0,450.8 188.0,444.2 148.0,452.9 108.0,466.6 68.0,468.7" fill="#006d2c" fill-opacity="0.9" stroke="#fff" stroke-width="0.4"><title>control_flow_ssa — generateIR</title></polygon>
<polygon points="68.0,445.1 108.0,441.8 148.0,420.3 188.0,418.6 228.0,426.1 268.0,423.4 308.0,423.1 348.0,423.5 388.0,422.6 428.0,423.1 468.0,429.7 508.0,429.9 548.0,429.2 588.0,427.9 628.0,424.7 668.0,424.4 708.0,422.0 748.0,424.4 788.0,382.9 828.0,396.6 868.0,388.3 908.0,352.9 948.0,454.8 988.0,461.1 1028.0,463.6 1068.0,462.9 1108.0,465.6 1108.0,466.2 1068.0,463.1 1028.0,464.3 988.0,461.3 948.0,456.4 908.0,352.9 868.0,388.3 828.0,397.2 788.0,382.9 748.0,424.8 708.0,422.4 668.0,424.7 628.0,425.3 588.0,428.4 548.0,429.4 508.0,430.4 468.0,430.1 428.0,423.1 388.0,423.1 348.0,424.3 308.0,423.1 268.0,423.8 228.0,426.3 188.0,418.6 148.0,423.1 108.0,442.3 68.0,447.2" fill="#74c476" fill-opacity="0.9" stroke="#fff" stroke-width="0.4"><title>control_flow_ssa — frontEndExecute (self)</title></polygon>
<polygon points="68.0,441.8 108.0,438.5 148.0,416.8 188.0,415.2 228.0,422.8 268.0,420.0 308.0,419.8 348.0,419.9 388.0,419.0 428.0,419.5 468.0,426.1 508.0,426.3 548.0,422.7 588.0,421.3 628.0,418.2 668.0,417.9 708.0,415.3 748.0,417.9 788.0,369.3 828.0,383.9 868.0,375.2 908.0,338.9 948.0,442.8 988.0,450.1 1028.0,458.6 1068.0,457.8 1108.0,461.3 1108.0,465.6 1068.0,462.9 1028.0,463.6 988.0,461.1 948.0,454.8 908.0,352.9 868.0,388.3 828.0,396.6 788.0,382.9 748.0,424.4 708.0,422.0 668.0,424.4 628.0,424.7 588.0,427.9 548.0,429.2 508.0,429.9 468.0,429.7 428.0,423.1 388.0,422.6 348.0,423.5 308.0,423.1 268.0,423.4 228.0,426.1 188.0,418.6 148.0,420.3 108.0,441.8 68.0,445.1" fill="#6baed6" fill-opacity="0.9" stroke="#fff" stroke-width="0.4"><title>control_flow_ssa — specializeModule</title></polygon>
<polygon points="68.0,411.7 108.0,408.1 148.0,380.5 188.0,382.5 228.0,391.9 268.0,389.6 308.0,389.1 348.0,388.9 388.0,387.4 428.0,388.8 468.0,395.3 508.0,395.2 548.0,394.9 588.0,393.5 628.0,389.5 668.0,389.5 708.0,385.5 748.0,389.0 788.0,328.5 828.0,344.3 868.0,334.4 908.0,294.0 948.0,403.2 988.0,412.6 1028.0,431.9 1068.0,430.2 1108.0,439.0 1108.0,461.3 1068.0,457.8 1028.0,458.6 988.0,450.1 948.0,442.8 908.0,338.9 868.0,375.2 828.0,383.9 788.0,369.3 748.0,417.9 708.0,415.3 668.0,417.9 628.0,418.2 588.0,421.3 548.0,422.7 508.0,426.3 468.0,426.1 428.0,419.5 388.0,419.0 348.0,419.9 308.0,419.8 268.0,420.0 228.0,422.8 188.0,415.2 148.0,416.8 108.0,438.5 68.0,441.8" fill="#2171b5" fill-opacity="0.9" stroke="#fff" stroke-width="0.4"><title>control_flow_ssa — simplifyIR</title></polygon>
<polygon points="68.0,409.6 108.0,405.5 148.0,376.4 188.0,379.7 228.0,389.5 268.0,387.1 308.0,386.5 348.0,386.2 388.0,384.9 428.0,386.2 468.0,392.8 508.0,392.7 548.0,392.4 588.0,391.1 628.0,387.1 668.0,387.1 708.0,382.3 748.0,386.5 788.0,309.1 828.0,332.3 868.0,318.9 908.0,272.7 948.0,400.9 988.0,410.5 1028.0,430.0 1068.0,428.3 1108.0,437.4 1108.0,439.0 1068.0,430.2 1028.0,431.9 988.0,412.6 948.0,403.2 908.0,294.0 868.0,334.4 828.0,344.3 788.0,328.5 748.0,389.0 708.0,385.5 668.0,389.5 628.0,389.5 588.0,393.5 548.0,394.9 508.0,395.2 468.0,395.3 428.0,388.8 388.0,387.4 348.0,388.9 308.0,389.1 268.0,389.6 228.0,391.9 188.0,382.5 148.0,380.5 108.0,408.1 68.0,411.7" fill="#08306b" fill-opacity="0.9" stroke="#fff" stroke-width="0.4"><title>control_flow_ssa — linkIR</title></polygon>
<polygon points="68.0,409.6 108.0,405.4 148.0,376.2 188.0,379.6 228.0,389.4 268.0,386.9 308.0,386.4 348.0,386.0 388.0,384.7 428.0,386.0 468.0,392.7 508.0,392.5 548.0,392.2 588.0,390.9 628.0,386.9 668.0,386.9 708.0,382.1 748.0,386.4 788.0,308.9 828.0,332.2 868.0,318.7 908.0,272.6 948.0,400.8 988.0,410.4 1028.0,429.9 1068.0,428.2 1108.0,437.3 1108.0,437.4 1068.0,428.3 1028.0,430.0 988.0,410.5 948.0,400.9 908.0,272.7 868.0,318.9 828.0,332.3 788.0,309.1 748.0,386.5 708.0,382.3 668.0,387.1 628.0,387.1 588.0,391.1 548.0,392.4 508.0,392.7 468.0,392.8 428.0,386.2 388.0,384.9 348.0,386.2 308.0,386.5 268.0,387.1 228.0,389.5 188.0,379.7 148.0,376.4 108.0,405.5 68.0,409.6" fill="#9e9ac8" fill-opacity="0.9" stroke="#fff" stroke-width="0.4"><title>control_flow_ssa — unrollLoopsInModule</title></polygon>
<polygon points="68.0,405.3 108.0,400.6 148.0,370.6 188.0,374.5 228.0,384.7 268.0,382.2 308.0,383.7 348.0,383.3 388.0,382.0 428.0,383.4 468.0,390.0 508.0,389.9 548.0,389.6 588.0,388.3 628.0,384.1 668.0,384.2 708.0,379.4 748.0,383.7 788.0,306.0 828.0,329.2 868.0,315.6 908.0,269.3 948.0,397.3 988.0,407.0 1028.0,427.2 1068.0,426.5 1108.0,435.6 1108.0,437.3 1068.0,428.2 1028.0,429.9 988.0,410.4 948.0,400.8 908.0,272.6 868.0,318.7 828.0,332.2 788.0,308.9 748.0,386.4 708.0,382.1 668.0,386.9 628.0,386.9 588.0,390.9 548.0,392.2 508.0,392.5 468.0,392.7 428.0,386.0 388.0,384.7 348.0,386.0 308.0,386.4 268.0,386.9 228.0,389.4 188.0,379.6 148.0,376.2 108.0,405.4 68.0,409.6" fill="#807dba" fill-opacity="0.9" stroke="#fff" stroke-width="0.4"><title>control_flow_ssa — legalizeResourceTypes</title></polygon>
<polygon points="68.0,401.0 108.0,395.6 148.0,364.8 188.0,369.5 228.0,379.8 268.0,377.5 308.0,380.9 348.0,380.5 388.0,379.1 428.0,380.5 468.0,387.2 508.0,387.1 548.0,386.8 588.0,385.5 628.0,381.3 668.0,381.4 708.0,376.5 748.0,380.9 788.0,303.0 828.0,326.0 868.0,312.3 908.0,265.9 948.0,393.5 988.0,403.5 1028.0,424.3 1068.0,424.7 1108.0,433.9 1108.0,435.6 1068.0,426.5 1028.0,427.2 988.0,407.0 948.0,397.3 908.0,269.3 868.0,315.6 828.0,329.2 788.0,306.0 748.0,383.7 708.0,379.4 668.0,384.2 628.0,384.1 588.0,388.3 548.0,389.6 508.0,389.9 468.0,390.0 428.0,383.4 388.0,382.0 348.0,383.3 308.0,383.7 268.0,382.2 228.0,384.7 188.0,374.5 148.0,370.6 108.0,400.6 68.0,405.3" fill="#6a51a3" fill-opacity="0.9" stroke="#fff" stroke-width="0.4"><title>control_flow_ssa — legalizeExistentialTypeLayout</title></polygon>
<polygon points="68.0,399.9 108.0,392.2 148.0,360.6 188.0,366.0 228.0,376.4 268.0,373.5 308.0,376.9 348.0,376.7 388.0,375.4 428.0,376.8 468.0,383.4 508.0,383.3 548.0,383.1 588.0,381.7 628.0,377.6 668.0,377.7 708.0,372.7 748.0,377.2 788.0,298.9 828.0,322.2 868.0,308.3 908.0,261.4 948.0,389.4 988.0,399.7 1028.0,420.6 1068.0,421.0 1108.0,430.9 1108.0,433.9 1068.0,424.7 1028.0,424.3 988.0,403.5 948.0,393.5 908.0,265.9 868.0,312.3 828.0,326.0 788.0,303.0 748.0,380.9 708.0,376.5 668.0,381.4 628.0,381.3 588.0,385.5 548.0,386.8 508.0,387.1 468.0,387.2 428.0,380.5 388.0,379.1 348.0,380.5 308.0,380.9 268.0,377.5 228.0,379.8 188.0,369.5 148.0,364.8 108.0,395.6 68.0,401.0" fill="#bcbddc" fill-opacity="0.9" stroke="#fff" stroke-width="0.4"><title>control_flow_ssa — performMandatoryEarlyInlining</title></polygon>
<polygon points="68.0,399.9 108.0,391.7 148.0,360.1 188.0,365.5 228.0,375.9 268.0,373.0 308.0,376.4 348.0,376.3 388.0,374.9 428.0,376.3 468.0,382.9 508.0,382.8 548.0,382.6 588.0,381.3 628.0,377.1 668.0,377.2 708.0,372.2 748.0,376.7 788.0,298.5 828.0,321.7 868.0,307.8 908.0,260.9 948.0,388.9 988.0,399.2 1028.0,420.1 1068.0,420.5 1108.0,430.6 1108.0,430.9 1068.0,421.0 1028.0,420.6 988.0,399.7 948.0,389.4 908.0,261.4 868.0,308.3 828.0,322.2 788.0,298.9 748.0,377.2 708.0,372.7 668.0,377.7 628.0,377.6 588.0,381.7 548.0,383.1 508.0,383.3 468.0,383.4 428.0,376.8 388.0,375.4 348.0,376.7 308.0,376.9 268.0,373.5 228.0,376.4 188.0,366.0 148.0,360.6 108.0,392.2 68.0,399.9" fill="#dadaeb" fill-opacity="0.9" stroke="#fff" stroke-width="0.4"><title>control_flow_ssa — performForceInlining</title></polygon>
<polygon points="68.0,361.2 108.0,357.1 148.0,324.6 188.0,322.5 228.0,336.5 268.0,332.6 308.0,332.7 348.0,331.2 388.0,330.2 428.0,331.2 468.0,338.6 508.0,337.8 548.0,337.3 588.0,336.0 628.0,330.4 668.0,332.2 708.0,325.5 748.0,330.1 788.0,246.7 828.0,271.8 868.0,255.3 908.0,203.7 948.0,339.1 988.0,351.6 1028.0,374.3 1068.0,374.6 1108.0,394.2 1108.0,430.6 1068.0,420.5 1028.0,420.1 988.0,399.2 948.0,388.9 908.0,260.9 868.0,307.8 828.0,321.7 788.0,298.5 748.0,376.7 708.0,372.2 668.0,377.2 628.0,377.1 588.0,381.3 548.0,382.6 508.0,382.8 468.0,382.9 428.0,376.3 388.0,374.9 348.0,376.3 308.0,376.4 268.0,373.0 228.0,375.9 188.0,365.5 148.0,360.1 108.0,391.7 68.0,399.9" fill="#4a1486" fill-opacity="0.9" stroke="#fff" stroke-width="0.4"><title>control_flow_ssa — linkAndOptimizeIR (self)</title></polygon>
<polygon points="68.0,270.9 108.0,263.1 148.0,191.4 188.0,218.8 228.0,239.1 268.0,252.0 308.0,250.4 348.0,248.6 388.0,250.7 428.0,250.1 468.0,258.9 508.0,258.1 548.0,258.4 588.0,255.8 628.0,247.7 668.0,251.9 708.0,242.3 748.0,249.7 788.0,159.8 828.0,191.5 868.0,173.3 908.0,112.4 948.0,248.0 988.0,267.5 1028.0,292.0 1068.0,291.8 1108.0,320.6 1108.0,394.2 1068.0,374.6 1028.0,374.3 988.0,351.6 948.0,339.1 908.0,203.7 868.0,255.3 828.0,271.8 788.0,246.7 748.0,330.1 708.0,325.5 668.0,332.2 628.0,330.4 588.0,336.0 548.0,337.3 508.0,337.8 468.0,338.6 428.0,331.2 388.0,330.2 348.0,331.2 308.0,332.7 268.0,332.6 228.0,336.5 188.0,322.5 148.0,324.6 108.0,357.1 68.0,361.2" fill="#e6550d" fill-opacity="0.9" stroke="#fff" stroke-width="0.4"><title>control_flow_ssa — generateOutput (self)</title></polygon>
<polygon points="68.0,270.9 108.0,263.1 148.0,190.3 188.0,217.4 228.0,239.1 268.0,251.9 308.0,248.5 348.0,248.2 388.0,249.7 428.0,250.1 468.0,258.9 508.0,258.1 548.0,258.4 588.0,255.8 628.0,246.9 668.0,251.8 708.0,241.2 748.0,248.3 788.0,155.4 828.0,191.5 868.0,169.4 908.0,108.6 948.0,247.5 988.0,267.5 1028.0,291.4 1068.0,291.7 1108.0,320.4 1108.0,320.6 1068.0,291.8 1028.0,292.0 988.0,267.5 948.0,248.0 908.0,112.4 868.0,173.3 828.0,191.5 788.0,159.8 748.0,249.7 708.0,242.3 668.0,251.9 628.0,247.7 588.0,255.8 548.0,258.4 508.0,258.1 468.0,258.9 428.0,250.1 388.0,250.7 348.0,248.6 308.0,250.4 268.0,252.0 228.0,239.1 188.0,218.8 148.0,191.4 108.0,263.1 68.0,270.9" fill="#969696" fill-opacity="0.9" stroke="#fff" stroke-width="0.4"><title>control_flow_ssa — compileInner (self)</title></polygon>
<text x="12" y="578" fill="#666" font-weight="600">phase buckets</text>
<rect x="12" y="586" width="12" height="12" fill="#c7e9c0"/>
<text x="28" y="596" fill="#222">parseTranslationUnit</text>
<rect x="289" y="586" width="12" height="12" fill="#41ab5d"/>
<text x="305" y="596" fill="#222">SemanticChecking</text>
<rect x="566" y="586" width="12" height="12" fill="#006d2c"/>
<text x="582" y="596" fill="#222">generateIR</text>
<rect x="843" y="586" width="12" height="12" fill="#74c476"/>
<text x="859" y="596" fill="#222">frontEndExecute (self)</text>
<rect x="12" y="604" width="12" height="12" fill="#6baed6"/>
<text x="28" y="614" fill="#222">specializeModule</text>
<rect x="289" y="604" width="12" height="12" fill="#2171b5"/>
<text x="305" y="614" fill="#222">simplifyIR</text>
<rect x="566" y="604" width="12" height="12" fill="#08306b"/>
<text x="582" y="614" fill="#222">linkIR</text>
<rect x="843" y="604" width="12" height="12" fill="#9e9ac8"/>
<text x="859" y="614" fill="#222">unrollLoopsInModule</text>
<rect x="12" y="622" width="12" height="12" fill="#807dba"/>
<text x="28" y="632" fill="#222">legalizeResourceTypes</text>
<rect x="289" y="622" width="12" height="12" fill="#6a51a3"/>
<text x="305" y="632" fill="#222">legalizeExistentialTypeLayout</text>
<rect x="566" y="622" width="12" height="12" fill="#bcbddc"/>
<text x="582" y="632" fill="#222">performMandatoryEarlyInlining</text>
<rect x="843" y="622" width="12" height="12" fill="#dadaeb"/>
<text x="859" y="632" fill="#222">performForceInlining</text>
<rect x="12" y="640" width="12" height="12" fill="#4a1486"/>
<text x="28" y="650" fill="#222">linkAndOptimizeIR (self)</text>
<rect x="289" y="640" width="12" height="12" fill="#fd8d3c"/>
<text x="305" y="650" fill="#222">emitEntryPointsSourceFromIR</text>
<rect x="566" y="640" width="12" height="12" fill="#e6550d"/>
<text x="582" y="650" fill="#222">generateOutput (self)</text>
<rect x="843" y="640" width="12" height="12" fill="#969696"/>
<text x="859" y="650" fill="#222">compileInner (self)</text>
</svg>