<svg xmlns="http://www.w3.org/2000/svg" xmlns:xlink="http://www.w3.org/1999/xlink" width="1132" height="680" viewBox="0 0 1132 680" preserveAspectRatio="xMidYMid meet" font-family="sans-serif" font-size="13">
<rect width="1132" height="680" fill="white"/>
<text x="12" y="30" font-size="20" font-weight="bold">control_flow_ssa — full phase breakdown across releases (median ms)</text>
<text x="68" y="60" font-size="15" font-weight="600" fill="#1a1a1a">control_flow_ssa<tspan fill="#888" font-weight="400" text-decoration="none">  0.92×</tspan></text>
<line x1="68.0" y1="516.0" x2="1108.0" y2="516.0" stroke="#eee"/>
<text x="64.0" y="519.0" text-anchor="end" fill="#999">0.0</text>
<line x1="68.0" y1="296.0" x2="1108.0" y2="296.0" stroke="#eee"/>
<text x="64.0" y="299.0" text-anchor="end" fill="#999">194</text>
<line x1="68.0" y1="76.0" x2="1108.0" y2="76.0" stroke="#eee"/>
<text x="64.0" y="79.0" text-anchor="end" fill="#999">388</text>
<line x1="68.0" y1="76.0" x2="68.0" y2="516.0" stroke="#333"/>
<line x1="68.0" y1="516.0" x2="1108.0" y2="516.0" stroke="#333"/>
<line x1="745.6" y1="76.0" x2="745.6" y2="516.0" stroke="#e8731a" stroke-width="1.2" stroke-dasharray="4 3"/>
<text x="748.6" y="87.0" fill="#e8731a" font-size="11">daily →</text>
<line x1="68.0" y1="516.0" x2="68.0" y2="519.0" stroke="#999"/>
<text x="68.0" y="531.0" text-anchor="end" fill="#666" transform="rotate(-50 68.0 531.0)">25.14</text>
<line x1="99.5" y1="516.0" x2="99.5" y2="519.0" stroke="#999"/>
<text x="99.5" y="531.0" text-anchor="end" fill="#666" transform="rotate(-50 99.5 531.0)">25.15</text>
<line x1="131.0" y1="516.0" x2="131.0" y2="519.0" stroke="#999"/>
<text x="131.0" y="531.0" text-anchor="end" fill="#666" transform="rotate(-50 131.0 531.0)">25.16</text>
<line x1="162.5" y1="516.0" x2="162.5" y2="519.0" stroke="#999"/>
<text x="162.5" y="531.0" text-anchor="end" fill="#666" transform="rotate(-50 162.5 531.0)">25.17</text>
<line x1="194.1" y1="516.0" x2="194.1" y2="519.0" stroke="#999"/>
<text x="194.1" y="531.0" text-anchor="end" fill="#666" transform="rotate(-50 194.1 531.0)">25.18</text>
<line x1="225.6" y1="516.0" x2="225.6" y2="519.0" stroke="#999"/>
<text x="225.6" y="531.0" text-anchor="end" fill="#666" transform="rotate(-50 225.6 531.0)">25.19</text>
<line x1="257.1" y1="516.0" x2="257.1" y2="519.0" stroke="#999"/>
<text x="257.1" y="531.0" text-anchor="end" fill="#666" transform="rotate(-50 257.1 531.0)">25.20</text>
<line x1="288.6" y1="516.0" x2="288.6" y2="519.0" stroke="#999"/>
<text x="288.6" y="531.0" text-anchor="end" fill="#666" transform="rotate(-50 288.6 531.0)">25.21</text>
<line x1="320.1" y1="516.0" x2="320.1" y2="519.0" stroke="#999"/>
<text x="320.1" y="531.0" text-anchor="end" fill="#666" transform="rotate(-50 320.1 531.0)">25.22</text>
<line x1="351.6" y1="516.0" x2="351.6" y2="519.0" stroke="#999"/>
<text x="351.6" y="531.0" text-anchor="end" fill="#666" transform="rotate(-50 351.6 531.0)">25.23</text>
<line x1="383.2" y1="516.0" x2="383.2" y2="519.0" stroke="#999"/>
<text x="383.2" y="531.0" text-anchor="end" fill="#666" transform="rotate(-50 383.2 531.0)">25.24</text>
<line x1="414.7" y1="516.0" x2="414.7" y2="519.0" stroke="#999"/>
<text x="414.7" y="531.0" text-anchor="end" fill="#666" transform="rotate(-50 414.7 531.0)">26.1</text>
<line x1="446.2" y1="516.0" x2="446.2" y2="519.0" stroke="#999"/>
<text x="446.2" y="531.0" text-anchor="end" fill="#666" transform="rotate(-50 446.2 531.0)">26.2</text>
<line x1="477.7" y1="516.0" x2="477.7" y2="519.0" stroke="#999"/>
<text x="477.7" y="531.0" text-anchor="end" fill="#666" transform="rotate(-50 477.7 531.0)">26.3</text>
<line x1="509.2" y1="516.0" x2="509.2" y2="519.0" stroke="#999"/>
<text x="509.2" y="531.0" text-anchor="end" fill="#666" transform="rotate(-50 509.2 531.0)">26.4</text>
<line x1="540.7" y1="516.0" x2="540.7" y2="519.0" stroke="#999"/>
<text x="540.7" y="531.0" text-anchor="end" fill="#666" transform="rotate(-50 540.7 531.0)">26.5</text>
<line x1="572.2" y1="516.0" x2="572.2" y2="519.0" stroke="#999"/>
<text x="572.2" y="531.0" text-anchor="end" fill="#666" transform="rotate(-50 572.2 531.0)">26.7</text>
<line x1="603.8" y1="516.0" x2="603.8" y2="519.0" stroke="#999"/>
<text x="603.8" y="531.0" text-anchor="end" fill="#666" transform="rotate(-50 603.8 531.0)">26.8</text>
<line x1="635.3" y1="516.0" x2="635.3" y2="519.0" stroke="#999"/>
<text x="635.3" y="531.0" text-anchor="end" fill="#666" transform="rotate(-50 635.3 531.0)">26.9</text>
<line x1="666.8" y1="516.0" x2="666.8" y2="519.0" stroke="#999"/>
<text x="666.8" y="531.0" text-anchor="end" fill="#666" transform="rotate(-50 666.8 531.0)">26.10</text>
<line x1="698.3" y1="516.0" x2="698.3" y2="519.0" stroke="#999"/>
<text x="698.3" y="531.0" text-anchor="end" fill="#666" transform="rotate(-50 698.3 531.0)">26.11</text>
<line x1="729.8" y1="516.0" x2="729.8" y2="519.0" stroke="#999"/>
<text x="729.8" y="531.0" text-anchor="end" fill="#666" transform="rotate(-50 729.8 531.0)">26.12</text>
<line x1="761.3" y1="516.0" x2="761.3" y2="519.0" stroke="#999"/>
<text x="761.3" y="531.0" text-anchor="end" fill="#e8731a" transform="rotate(-50 761.3 531.0)">06-25</text>
<line x1="792.8" y1="516.0" x2="792.8" y2="519.0" stroke="#999"/>
<text x="792.8" y="531.0" text-anchor="end" fill="#e8731a" transform="rotate(-50 792.8 531.0)">06-26</text>
<line x1="824.4" y1="516.0" x2="824.4" y2="519.0" stroke="#999"/>
<text x="824.4" y="531.0" text-anchor="end" fill="#e8731a" transform="rotate(-50 824.4 531.0)">06-28</text>
<line x1="855.9" y1="516.0" x2="855.9" y2="519.0" stroke="#999"/>
<text x="855.9" y="531.0" text-anchor="end" fill="#e8731a" transform="rotate(-50 855.9 531.0)">07-01</text>
<line x1="887.4" y1="516.0" x2="887.4" y2="519.0" stroke="#999"/>
<text x="887.4" y="531.0" text-anchor="end" fill="#e8731a" transform="rotate(-50 887.4 531.0)">07-02</text>
<line x1="918.9" y1="516.0" x2="918.9" y2="519.0" stroke="#999"/>
<text x="918.9" y="531.0" text-anchor="end" fill="#e8731a" transform="rotate(-50 918.9 531.0)">07-03</text>
<line x1="950.4" y1="516.0" x2="950.4" y2="519.0" stroke="#999"/>
<text x="950.4" y="531.0" text-anchor="end" fill="#e8731a" transform="rotate(-50 950.4 531.0)">07-06</text>
<line x1="981.9" y1="516.0" x2="981.9" y2="519.0" stroke="#999"/>
<text x="981.9" y="531.0" text-anchor="end" fill="#e8731a" transform="rotate(-50 981.9 531.0)">07-07</text>
<line x1="1013.5" y1="516.0" x2="1013.5" y2="519.0" stroke="#999"/>
<text x="1013.5" y="531.0" text-anchor="end" fill="#e8731a" transform="rotate(-50 1013.5 531.0)">07-08</text>
<line x1="1045.0" y1="516.0" x2="1045.0" y2="519.0" stroke="#999"/>
<text x="1045.0" y="531.0" text-anchor="end" fill="#e8731a" transform="rotate(-50 1045.0 531.0)">07-09</text>
<line x1="1076.5" y1="516.0" x2="1076.5" y2="519.0" stroke="#999"/>
<text x="1076.5" y="531.0" text-anchor="end" fill="#e8731a" transform="rotate(-50 1076.5 531.0)">07-10</text>
<line x1="1108.0" y1="516.0" x2="1108.0" y2="519.0" stroke="#999"/>
<text x="1108.0" y="531.0" text-anchor="end" fill="#e8731a" transform="rotate(-50 1108.0 531.0)">07-11</text>
<polygon points="68.0,514.5 99.5,514.6 131.0,514.5 162.5,514.6 194.1,514.6 225.6,514.6 257.1,514.6 288.6,514.6 320.1,514.6 351.6,514.6 383.2,514.6 414.7,514.6 446.2,514.6 477.7,514.6 509.2,514.6 540.7,514.6 572.2,514.5 603.8,514.5 635.3,514.4 666.8,514.5 698.3,514.5 729.8,514.6 761.3,514.5 792.8,514.4 824.4,514.4 855.9,514.4 887.4,514.4 918.9,514.5 950.4,514.4 981.9,514.7 1013.5,514.7 1045.0,514.7 1076.5,514.7 1108.0,514.6 1108.0,516.0 1076.5,516.0 1045.0,516.0 1013.5,516.0 981.9,516.0 950.4,516.0 918.9,516.0 887.4,516.0 855.9,516.0 824.4,516.0 792.8,516.0 761.3,516.0 729.8,516.0 698.3,516.0 666.8,516.0 635.3,516.0 603.8,516.0 572.2,516.0 540.7,516.0 509.2,516.0 477.7,516.0 446.2,516.0 414.7,516.0 383.2,516.0 351.6,516.0 320.1,516.0 288.6,516.0 257.1,516.0 225.6,516.0 194.1,516.0 162.5,516.0 131.0,516.0 99.5,516.0 68.0,516.0" fill="#c7e9c0" fill-opacity="0.9" stroke="#fff" stroke-width="0.4"><title>control_flow_ssa — parseTranslationUnit</title></polygon>
<polygon points="68.0,462.3 99.5,446.1 131.0,434.4 162.5,433.3 194.1,441.3 225.6,438.9 257.1,442.4 288.6,445.2 320.1,451.6 351.6,450.4 383.2,450.9 414.7,450.9 446.2,447.5 477.7,447.8 509.2,446.9 540.7,447.3 572.2,428.1 603.8,413.5 635.3,410.6 666.8,414.8 698.3,485.6 729.8,485.6 761.3,483.3 792.8,483.0 824.4,483.3 855.9,483.3 887.4,483.6 918.9,483.9 950.4,482.9 981.9,485.3 1013.5,484.6 1045.0,485.0 1076.5,484.5 1108.0,483.7 1108.0,514.6 1076.5,514.7 1045.0,514.7 1013.5,514.7 981.9,514.7 950.4,514.4 918.9,514.5 887.4,514.4 855.9,514.4 824.4,514.4 792.8,514.4 761.3,514.5 729.8,514.6 698.3,514.5 666.8,514.5 635.3,514.4 603.8,514.5 572.2,514.5 540.7,514.6 509.2,514.6 477.7,514.6 446.2,514.6 414.7,514.6 383.2,514.6 351.6,514.6 320.1,514.6 288.6,514.6 257.1,514.6 225.6,514.6 194.1,514.6 162.5,514.6 131.0,514.5 99.5,514.6 68.0,514.5" fill="#41ab5d" fill-opacity="0.9" stroke="#fff" stroke-width="0.4"><title>control_flow_ssa — SemanticChecking</title></polygon>
<polygon points="68.0,436.5 99.5,419.8 131.0,406.3 162.5,402.7 194.1,413.6 225.6,410.0 257.1,415.8 288.6,419.0 320.1,425.2 351.6,424.1 383.2,424.9 414.7,424.9 446.2,421.3 477.7,421.5 509.2,419.6 540.7,420.4 572.2,386.4 603.8,368.4 635.3,364.2 666.8,371.3 698.3,460.5 729.8,460.9 761.3,457.2 792.8,456.6 824.4,457.0 855.9,456.7 887.4,457.2 918.9,457.6 950.4,456.7 981.9,458.9 1013.5,457.6 1045.0,458.3 1076.5,457.8 1108.0,456.7 1108.0,483.7 1076.5,484.5 1045.0,485.0 1013.5,484.6 981.9,485.3 950.4,482.9 918.9,483.9 887.4,483.6 855.9,483.3 824.4,483.3 792.8,483.0 761.3,483.3 729.8,485.6 698.3,485.6 666.8,414.8 635.3,410.6 603.8,413.5 572.2,428.1 540.7,447.3 509.2,446.9 477.7,447.8 446.2,447.5 414.7,450.9 383.2,450.9 351.6,450.4 320.1,451.6 288.6,445.2 257.1,442.4 225.6,438.9 194.1,441.3 162.5,433.3 131.0,434.4 99.5,446.1 68.0,462.3" fill="#006d2c" fill-opacity="0.9" stroke="#fff" stroke-width="0.4"><title>control_flow_ssa — generateIR</title></polygon>
<polygon points="68.0,436.5 99.5,419.5 131.0,404.5 162.5,402.7 194.1,412.5 225.6,410.0 257.1,415.7 288.6,418.4 320.1,424.8 351.6,423.8 383.2,424.8 414.7,423.8 446.2,421.0 477.7,421.3 509.2,419.6 540.7,420.4 572.2,386.0 603.8,368.4 635.3,360.3 666.8,371.1 698.3,460.1 729.8,460.3 761.3,456.8 792.8,456.2 824.4,456.6 855.9,455.8 887.4,456.2 918.9,456.9 950.4,455.9 981.9,458.3 1013.5,457.2 1045.0,458.0 1076.5,457.7 1108.0,456.3 1108.0,456.7 1076.5,457.8 1045.0,458.3 1013.5,457.6 981.9,458.9 950.4,456.7 918.9,457.6 887.4,457.2 855.9,456.7 824.4,457.0 792.8,456.6 761.3,457.2 729.8,460.9 698.3,460.5 666.8,371.3 635.3,364.2 603.8,368.4 572.2,386.4 540.7,420.4 509.2,419.6 477.7,421.5 446.2,421.3 414.7,424.9 383.2,424.9 351.6,424.1 320.1,425.2 288.6,419.0 257.1,415.8 225.6,410.0 194.1,413.6 162.5,402.7 131.0,406.3 99.5,419.8 68.0,436.5" fill="#74c476" fill-opacity="0.9" stroke="#fff" stroke-width="0.4"><title>control_flow_ssa — frontEndExecute (self)</title></polygon>
<polygon points="68.0,432.9 99.5,416.0 131.0,400.8 162.5,398.9 194.1,408.9 225.6,405.9 257.1,411.8 288.6,414.5 320.1,421.0 351.6,419.9 383.2,417.9 414.7,416.9 446.2,414.1 477.7,414.4 509.2,412.7 540.7,413.5 572.2,372.2 603.8,354.1 635.3,345.8 666.8,356.9 698.3,448.6 729.8,448.7 761.3,443.5 792.8,442.8 824.4,443.1 855.9,442.3 887.4,442.6 918.9,443.3 950.4,442.5 981.9,452.3 1013.5,451.2 1045.0,451.9 1076.5,451.8 1108.0,450.3 1108.0,456.3 1076.5,457.7 1045.0,458.0 1013.5,457.2 981.9,458.3 950.4,455.9 918.9,456.9 887.4,456.2 855.9,455.8 824.4,456.6 792.8,456.2 761.3,456.8 729.8,460.3 698.3,460.1 666.8,371.1 635.3,360.3 603.8,368.4 572.2,386.0 540.7,420.4 509.2,419.6 477.7,421.3 446.2,421.0 414.7,423.8 383.2,424.8 351.6,423.8 320.1,424.8 288.6,418.4 257.1,415.7 225.6,410.0 194.1,412.5 162.5,402.7 131.0,404.5 99.5,419.5 68.0,436.5" fill="#6baed6" fill-opacity="0.9" stroke="#fff" stroke-width="0.4"><title>control_flow_ssa — specializeModule</title></polygon>
<polygon points="68.0,400.5 99.5,384.0 131.0,362.4 162.5,364.1 194.1,375.7 225.6,372.1 257.1,378.8 288.6,381.7 320.1,388.6 351.6,387.5 383.2,388.6 414.7,387.3 446.2,384.2 477.7,384.5 509.2,381.6 540.7,382.9 572.2,329.7 603.8,310.2 635.3,300.2 666.8,312.3 698.3,408.6 729.8,408.7 761.3,401.6 792.8,401.0 824.4,401.2 855.9,401.0 887.4,400.7 918.9,400.5 950.4,401.1 981.9,421.8 1013.5,421.1 1045.0,421.7 1076.5,422.0 1108.0,418.9 1108.0,450.3 1076.5,451.8 1045.0,451.9 1013.5,451.2 981.9,452.3 950.4,442.5 918.9,443.3 887.4,442.6 855.9,442.3 824.4,443.1 792.8,442.8 761.3,443.5 729.8,448.7 698.3,448.6 666.8,356.9 635.3,345.8 603.8,354.1 572.2,372.2 540.7,413.5 509.2,412.7 477.7,414.4 446.2,414.1 414.7,416.9 383.2,417.9 351.6,419.9 320.1,421.0 288.6,414.5 257.1,411.8 225.6,405.9 194.1,408.9 162.5,398.9 131.0,400.8 99.5,416.0 68.0,432.9" fill="#2171b5" fill-opacity="0.9" stroke="#fff" stroke-width="0.4"><title>control_flow_ssa — simplifyIR</title></polygon>
<polygon points="68.0,397.8 99.5,381.6 131.0,359.1 162.5,360.5 194.1,372.4 225.6,368.6 257.1,376.3 288.6,379.1 320.1,386.1 351.6,384.9 383.2,385.9 414.7,384.8 446.2,381.5 477.7,381.8 509.2,378.9 540.7,380.4 572.2,316.4 603.8,293.6 635.3,283.8 666.8,297.1 698.3,406.4 729.8,406.5 761.3,399.4 792.8,398.8 824.4,398.9 855.9,398.8 887.4,398.5 918.9,398.3 950.4,399.0 981.9,419.9 1013.5,419.3 1045.0,419.7 1076.5,420.1 1108.0,417.0 1108.0,418.9 1076.5,422.0 1045.0,421.7 1013.5,421.1 981.9,421.8 950.4,401.1 918.9,400.5 887.4,400.7 855.9,401.0 824.4,401.2 792.8,401.0 761.3,401.6 729.8,408.7 698.3,408.6 666.8,312.3 635.3,300.2 603.8,310.2 572.2,329.7 540.7,382.9 509.2,381.6 477.7,384.5 446.2,384.2 414.7,387.3 383.2,388.6 351.6,387.5 320.1,388.6 288.6,381.7 257.1,378.8 225.6,372.1 194.1,375.7 162.5,364.1 131.0,362.4 99.5,384.0 68.0,400.5" fill="#08306b" fill-opacity="0.9" stroke="#fff" stroke-width="0.4"><title>control_flow_ssa — linkIR</title></polygon>
<polygon points="68.0,397.6 99.5,381.5 131.0,358.9 162.5,360.4 194.1,372.3 225.6,368.4 257.1,376.1 288.6,378.9 320.1,385.9 351.6,384.8 383.2,385.8 414.7,384.6 446.2,381.4 477.7,381.7 509.2,378.8 540.7,380.2 572.2,316.3 603.8,293.4 635.3,283.6 666.8,296.9 698.3,406.3 729.8,406.3 761.3,399.2 792.8,398.6 824.4,398.8 855.9,398.7 887.4,398.3 918.9,398.1 950.4,398.9 981.9,419.7 1013.5,419.1 1045.0,419.6 1076.5,419.9 1108.0,416.8 1108.0,417.0 1076.5,420.1 1045.0,419.7 1013.5,419.3 981.9,419.9 950.4,399.0 918.9,398.3 887.4,398.5 855.9,398.8 824.4,398.9 792.8,398.8 761.3,399.4 729.8,406.5 698.3,406.4 666.8,297.1 635.3,283.8 603.8,293.6 572.2,316.4 540.7,380.4 509.2,378.9 477.7,381.8 446.2,381.5 414.7,384.8 383.2,385.9 351.6,384.9 320.1,386.1 288.6,379.1 257.1,376.3 225.6,368.6 194.1,372.4 162.5,360.5 131.0,359.1 99.5,381.6 68.0,397.8" fill="#9e9ac8" fill-opacity="0.9" stroke="#fff" stroke-width="0.4"><title>control_flow_ssa — unrollLoopsInModule</title></polygon>
<polygon points="68.0,392.5 99.5,376.3 131.0,353.4 162.5,355.1 194.1,369.3 225.6,365.5 257.1,373.3 288.6,376.1 320.1,383.1 351.6,382.0 383.2,382.9 414.7,381.8 446.2,378.5 477.7,378.8 509.2,375.9 540.7,377.3 572.2,313.3 603.8,289.6 635.3,280.2 666.8,293.4 698.3,402.7 729.8,402.7 761.3,395.7 792.8,395.0 824.4,395.3 855.9,395.2 887.4,394.8 918.9,394.5 950.4,395.3 981.9,416.9 1013.5,416.2 1045.0,416.6 1076.5,418.2 1108.0,415.0 1108.0,416.8 1076.5,419.9 1045.0,419.6 1013.5,419.1 981.9,419.7 950.4,398.9 918.9,398.1 887.4,398.3 855.9,398.7 824.4,398.8 792.8,398.6 761.3,399.2 729.8,406.3 698.3,406.3 666.8,296.9 635.3,283.6 603.8,293.4 572.2,316.3 540.7,380.2 509.2,378.8 477.7,381.7 446.2,381.4 414.7,384.6 383.2,385.8 351.6,384.8 320.1,385.9 288.6,378.9 257.1,376.1 225.6,368.4 194.1,372.3 162.5,360.4 131.0,358.9 99.5,381.5 68.0,397.6" fill="#807dba" fill-opacity="0.9" stroke="#fff" stroke-width="0.4"><title>control_flow_ssa — legalizeResourceTypes</title></polygon>
<polygon points="68.0,387.3 99.5,371.0 131.0,347.8 162.5,349.7 194.1,366.1 225.6,362.3 257.1,370.4 288.6,373.1 320.1,380.1 351.6,379.0 383.2,379.9 414.7,378.8 446.2,375.5 477.7,375.8 509.2,372.9 540.7,374.2 572.2,310.1 603.8,285.0 635.3,276.6 666.8,289.9 698.3,398.9 729.8,399.0 761.3,392.1 792.8,391.2 824.4,391.5 855.9,391.5 887.4,391.1 918.9,390.8 950.4,391.7 981.9,413.8 1013.5,413.2 1045.0,413.6 1076.5,416.4 1108.0,413.1 1108.0,415.0 1076.5,418.2 1045.0,416.6 1013.5,416.2 981.9,416.9 950.4,395.3 918.9,394.5 887.4,394.8 855.9,395.2 824.4,395.3 792.8,395.0 761.3,395.7 729.8,402.7 698.3,402.7 666.8,293.4 635.3,280.2 603.8,289.6 572.2,313.3 540.7,377.3 509.2,375.9 477.7,378.8 446.2,378.5 414.7,381.8 383.2,382.9 351.6,382.0 320.1,383.1 288.6,376.1 257.1,373.3 225.6,365.5 194.1,369.3 162.5,355.1 131.0,353.4 99.5,376.3 68.0,392.5" fill="#6a51a3" fill-opacity="0.9" stroke="#fff" stroke-width="0.4"><title>control_flow_ssa — legalizeExistentialTypeLayout</title></polygon>
<polygon points="68.0,383.5 99.5,367.4 131.0,343.9 162.5,345.1 194.1,361.8 225.6,358.2 257.1,366.4 288.6,369.1 320.1,376.1 351.6,375.1 383.2,376.0 414.7,374.8 446.2,371.7 477.7,371.9 509.2,368.9 540.7,370.3 572.2,306.2 603.8,280.9 635.3,272.1 666.8,285.9 698.3,394.9 729.8,394.9 761.3,387.8 792.8,387.1 824.4,387.3 855.9,387.2 887.4,386.9 918.9,386.6 950.4,387.4 981.9,409.6 1013.5,409.0 1045.0,409.3 1076.5,412.2 1108.0,409.0 1108.0,413.1 1076.5,416.4 1045.0,413.6 1013.5,413.2 981.9,413.8 950.4,391.7 918.9,390.8 887.4,391.1 855.9,391.5 824.4,391.5 792.8,391.2 761.3,392.1 729.8,399.0 698.3,398.9 666.8,289.9 635.3,276.6 603.8,285.0 572.2,310.1 540.7,374.2 509.2,372.9 477.7,375.8 446.2,375.5 414.7,378.8 383.2,379.9 351.6,379.0 320.1,380.1 288.6,373.1 257.1,370.4 225.6,362.3 194.1,366.1 162.5,349.7 131.0,347.8 99.5,371.0 68.0,387.3" fill="#bcbddc" fill-opacity="0.9" stroke="#fff" stroke-width="0.4"><title>control_flow_ssa — performMandatoryEarlyInlining</title></polygon>
<polygon points="68.0,383.0 99.5,366.9 131.0,343.3 162.5,344.6 194.1,361.3 225.6,357.7 257.1,365.9 288.6,368.6 320.1,375.6 351.6,374.7 383.2,375.5 414.7,374.3 446.2,371.2 477.7,371.4 509.2,368.5 540.7,369.8 572.2,305.7 603.8,280.4 635.3,271.5 666.8,285.4 698.3,394.4 729.8,394.3 761.3,387.3 792.8,386.6 824.4,386.7 855.9,386.7 887.4,386.4 918.9,386.1 950.4,386.9 981.9,409.1 1013.5,408.5 1045.0,408.8 1076.5,411.7 1108.0,408.4 1108.0,409.0 1076.5,412.2 1045.0,409.3 1013.5,409.0 981.9,409.6 950.4,387.4 918.9,386.6 887.4,386.9 855.9,387.2 824.4,387.3 792.8,387.1 761.3,387.8 729.8,394.9 698.3,394.9 666.8,285.9 635.3,272.1 603.8,280.9 572.2,306.2 540.7,370.3 509.2,368.9 477.7,371.9 446.2,371.7 414.7,374.8 383.2,376.0 351.6,375.1 320.1,376.1 288.6,369.1 257.1,366.4 225.6,358.2 194.1,361.8 162.5,345.1 131.0,343.9 99.5,367.4 68.0,383.5" fill="#dadaeb" fill-opacity="0.9" stroke="#fff" stroke-width="0.4"><title>control_flow_ssa — performForceInlining</title></polygon>
<polygon points="68.0,347.4 99.5,325.0 131.0,292.5 162.5,298.5 194.1,313.3 225.6,309.2 257.1,319.6 288.6,321.1 320.1,328.9 351.6,327.9 383.2,327.5 414.7,327.0 446.2,323.8 477.7,324.4 509.2,320.2 540.7,321.5 572.2,247.5 603.8,220.9 635.3,207.6 666.8,227.9 698.3,344.0 729.8,345.4 761.3,336.0 792.8,334.8 824.4,336.0 855.9,334.3 887.4,336.5 918.9,334.6 950.4,336.6 981.9,358.9 1013.5,359.5 1045.0,359.2 1076.5,363.7 1108.0,354.2 1108.0,408.4 1076.5,411.7 1045.0,408.8 1013.5,408.5 981.9,409.1 950.4,386.9 918.9,386.1 887.4,386.4 855.9,386.7 824.4,386.7 792.8,386.6 761.3,387.3 729.8,394.3 698.3,394.4 666.8,285.4 635.3,271.5 603.8,280.4 572.2,305.7 540.7,369.8 509.2,368.5 477.7,371.4 446.2,371.2 414.7,374.3 383.2,375.5 351.6,374.7 320.1,375.6 288.6,368.6 257.1,365.9 225.6,357.7 194.1,361.3 162.5,344.6 131.0,343.3 99.5,366.9 68.0,383.0" fill="#4a1486" fill-opacity="0.9" stroke="#fff" stroke-width="0.4"><title>control_flow_ssa — linkAndOptimizeIR (self)</title></polygon>
<polygon points="68.0,248.1 99.5,221.4 131.0,171.3 162.5,202.5 194.1,220.0 225.6,214.5 257.1,234.8 288.6,236.2 320.1,244.0 351.6,242.1 383.2,243.8 414.7,241.5 446.2,238.1 477.7,240.4 509.2,237.0 540.7,237.5 572.2,162.6 603.8,122.2 635.3,117.2 666.8,141.5 698.3,253.3 729.8,257.5 761.3,245.2 792.8,243.5 824.4,244.8 855.9,245.0 887.4,247.8 918.9,245.3 950.4,246.6 981.9,268.8 1013.5,270.3 1045.0,271.7 1076.5,276.1 1108.0,268.2 1108.0,354.2 1076.5,363.7 1045.0,359.2 1013.5,359.5 981.9,358.9 950.4,336.6 918.9,334.6 887.4,336.5 855.9,334.3 824.4,336.0 792.8,334.8 761.3,336.0 729.8,345.4 698.3,344.0 666.8,227.9 635.3,207.6 603.8,220.9 572.2,247.5 540.7,321.5 509.2,320.2 477.7,324.4 446.2,323.8 414.7,327.0 383.2,327.5 351.6,327.9 320.1,328.9 288.6,321.1 257.1,319.6 225.6,309.2 194.1,313.3 162.5,298.5 131.0,292.5 99.5,325.0 68.0,347.4" fill="#e6550d" fill-opacity="0.9" stroke="#fff" stroke-width="0.4"><title>control_flow_ssa — generateOutput (self)</title></polygon>
<polygon points="68.0,246.1 99.5,221.4 131.0,167.5 162.5,196.7 194.1,217.8 225.6,213.4 257.1,234.8 288.6,235.2 320.1,243.8 351.6,242.0 383.2,243.8 414.7,241.5 446.2,236.6 477.7,240.1 509.2,237.0 540.7,237.5 572.2,162.4 603.8,109.8 635.3,108.6 666.8,141.5 698.3,252.9 729.8,257.5 761.3,245.2 792.8,243.5 824.4,244.3 855.9,245.0 887.4,247.8 918.9,245.0 950.4,245.8 981.9,267.9 1013.5,270.1 1045.0,271.7 1076.5,275.2 1108.0,268.2 1108.0,268.2 1076.5,276.1 1045.0,271.7 1013.5,270.3 981.9,268.8 950.4,246.6 918.9,245.3 887.4,247.8 855.9,245.0 824.4,244.8 792.8,243.5 761.3,245.2 729.8,257.5 698.3,253.3 666.8,141.5 635.3,117.2 603.8,122.2 572.2,162.6 540.7,237.5 509.2,237.0 477.7,240.4 446.2,238.1 414.7,241.5 383.2,243.8 351.6,242.1 320.1,244.0 288.6,236.2 257.1,234.8 225.6,214.5 194.1,220.0 162.5,202.5 131.0,171.3 99.5,221.4 68.0,248.1" fill="#969696" fill-opacity="0.9" stroke="#fff" stroke-width="0.4"><title>control_flow_ssa — compileInner (self)</title></polygon>
<text x="12" y="578" fill="#666" font-weight="600">phase buckets</text>
<rect x="12" y="586" width="12" height="12" fill="#c7e9c0"/>
<text x="28" y="596" fill="#222">parseTranslationUnit</text>
<rect x="289" y="586" width="12" height="12" fill="#41ab5d"/>
<text x="305" y="596" fill="#222">SemanticChecking</text>
<rect x="566" y="586" width="12" height="12" fill="#006d2c"/>
<text x="582" y="596" fill="#222">generateIR</text>
<rect x="843" y="586" width="12" height="12" fill="#74c476"/>
<text x="859" y="596" fill="#222">frontEndExecute (self)</text>
<rect x="12" y="604" width="12" height="12" fill="#6baed6"/>
<text x="28" y="614" fill="#222">specializeModule</text>
<rect x="289" y="604" width="12" height="12" fill="#2171b5"/>
<text x="305" y="614" fill="#222">simplifyIR</text>
<rect x="566" y="604" width="12" height="12" fill="#08306b"/>
<text x="582" y="614" fill="#222">linkIR</text>
<rect x="843" y="604" width="12" height="12" fill="#9e9ac8"/>
<text x="859" y="614" fill="#222">unrollLoopsInModule</text>
<rect x="12" y="622" width="12" height="12" fill="#807dba"/>
<text x="28" y="632" fill="#222">legalizeResourceTypes</text>
<rect x="289" y="622" width="12" height="12" fill="#6a51a3"/>
<text x="305" y="632" fill="#222">legalizeExistentialTypeLayout</text>
<rect x="566" y="622" width="12" height="12" fill="#bcbddc"/>
<text x="582" y="632" fill="#222">performMandatoryEarlyInlining</text>
<rect x="843" y="622" width="12" height="12" fill="#dadaeb"/>
<text x="859" y="632" fill="#222">performForceInlining</text>
<rect x="12" y="640" width="12" height="12" fill="#4a1486"/>
<text x="28" y="650" fill="#222">linkAndOptimizeIR (self)</text>
<rect x="289" y="640" width="12" height="12" fill="#fd8d3c"/>
<text x="305" y="650" fill="#222">emitEntryPointsSourceFromIR</text>
<rect x="566" y="640" width="12" height="12" fill="#e6550d"/>
<text x="582" y="650" fill="#222">generateOutput (self)</text>
<rect x="843" y="640" width="12" height="12" fill="#969696"/>
<text x="859" y="650" fill="#222">compileInner (self)</text>
</svg>