<svg xmlns="http://www.w3.org/2000/svg" xmlns:xlink="http://www.w3.org/1999/xlink" width="1132" height="680" viewBox="0 0 1132 680" preserveAspectRatio="xMidYMid meet" font-family="sans-serif" font-size="13">
<rect width="1132" height="680" fill="white"/>
<text x="12" y="30" font-size="20" font-weight="bold">control_flow_ssa — full phase breakdown across releases (median ms)</text>
<text x="68" y="60" font-size="15" font-weight="600" fill="#1a1a1a">control_flow_ssa<tspan fill="#888" font-weight="400" text-decoration="none">  0.99×</tspan></text>
<line x1="68.0" y1="516.0" x2="1108.0" y2="516.0" stroke="#eee"/>
<text x="64.0" y="519.0" text-anchor="end" fill="#999">0.0</text>
<line x1="68.0" y1="296.0" x2="1108.0" y2="296.0" stroke="#eee"/>
<text x="64.0" y="299.0" text-anchor="end" fill="#999">163</text>
<line x1="68.0" y1="76.0" x2="1108.0" y2="76.0" stroke="#eee"/>
<text x="64.0" y="79.0" text-anchor="end" fill="#999">327</text>
<line x1="68.0" y1="76.0" x2="68.0" y2="516.0" stroke="#333"/>
<line x1="68.0" y1="516.0" x2="1108.0" y2="516.0" stroke="#333"/>
<line x1="839.0" y1="76.0" x2="839.0" y2="516.0" stroke="#e8731a" stroke-width="1.2" stroke-dasharray="4 3"/>
<text x="842.0" y="87.0" fill="#e8731a" font-size="11">daily →</text>
<line x1="68.0" y1="516.0" x2="68.0" y2="519.0" stroke="#999"/>
<text x="68.0" y="531.0" text-anchor="end" fill="#666" transform="rotate(-50 68.0 531.0)">25.14</text>
<line x1="103.9" y1="516.0" x2="103.9" y2="519.0" stroke="#999"/>
<text x="103.9" y="531.0" text-anchor="end" fill="#666" transform="rotate(-50 103.9 531.0)">25.15</text>
<line x1="139.7" y1="516.0" x2="139.7" y2="519.0" stroke="#999"/>
<text x="139.7" y="531.0" text-anchor="end" fill="#666" transform="rotate(-50 139.7 531.0)">25.16</text>
<line x1="175.6" y1="516.0" x2="175.6" y2="519.0" stroke="#999"/>
<text x="175.6" y="531.0" text-anchor="end" fill="#666" transform="rotate(-50 175.6 531.0)">25.17</text>
<line x1="211.4" y1="516.0" x2="211.4" y2="519.0" stroke="#999"/>
<text x="211.4" y="531.0" text-anchor="end" fill="#666" transform="rotate(-50 211.4 531.0)">25.18</text>
<line x1="247.3" y1="516.0" x2="247.3" y2="519.0" stroke="#999"/>
<text x="247.3" y="531.0" text-anchor="end" fill="#666" transform="rotate(-50 247.3 531.0)">25.19</text>
<line x1="283.2" y1="516.0" x2="283.2" y2="519.0" stroke="#999"/>
<text x="283.2" y="531.0" text-anchor="end" fill="#666" transform="rotate(-50 283.2 531.0)">25.20</text>
<line x1="319.0" y1="516.0" x2="319.0" y2="519.0" stroke="#999"/>
<text x="319.0" y="531.0" text-anchor="end" fill="#666" transform="rotate(-50 319.0 531.0)">25.21</text>
<line x1="354.9" y1="516.0" x2="354.9" y2="519.0" stroke="#999"/>
<text x="354.9" y="531.0" text-anchor="end" fill="#666" transform="rotate(-50 354.9 531.0)">25.22</text>
<line x1="390.8" y1="516.0" x2="390.8" y2="519.0" stroke="#999"/>
<text x="390.8" y="531.0" text-anchor="end" fill="#666" transform="rotate(-50 390.8 531.0)">25.23</text>
<line x1="426.6" y1="516.0" x2="426.6" y2="519.0" stroke="#999"/>
<text x="426.6" y="531.0" text-anchor="end" fill="#666" transform="rotate(-50 426.6 531.0)">25.24</text>
<line x1="462.5" y1="516.0" x2="462.5" y2="519.0" stroke="#999"/>
<text x="462.5" y="531.0" text-anchor="end" fill="#666" transform="rotate(-50 462.5 531.0)">26.1</text>
<line x1="498.3" y1="516.0" x2="498.3" y2="519.0" stroke="#999"/>
<text x="498.3" y="531.0" text-anchor="end" fill="#666" transform="rotate(-50 498.3 531.0)">26.2</text>
<line x1="534.2" y1="516.0" x2="534.2" y2="519.0" stroke="#999"/>
<text x="534.2" y="531.0" text-anchor="end" fill="#666" transform="rotate(-50 534.2 531.0)">26.3</text>
<line x1="570.1" y1="516.0" x2="570.1" y2="519.0" stroke="#999"/>
<text x="570.1" y="531.0" text-anchor="end" fill="#666" transform="rotate(-50 570.1 531.0)">26.4</text>
<line x1="605.9" y1="516.0" x2="605.9" y2="519.0" stroke="#999"/>
<text x="605.9" y="531.0" text-anchor="end" fill="#666" transform="rotate(-50 605.9 531.0)">26.5</text>
<line x1="641.8" y1="516.0" x2="641.8" y2="519.0" stroke="#999"/>
<text x="641.8" y="531.0" text-anchor="end" fill="#666" transform="rotate(-50 641.8 531.0)">26.7</text>
<line x1="677.7" y1="516.0" x2="677.7" y2="519.0" stroke="#999"/>
<text x="677.7" y="531.0" text-anchor="end" fill="#666" transform="rotate(-50 677.7 531.0)">26.8</text>
<line x1="713.5" y1="516.0" x2="713.5" y2="519.0" stroke="#999"/>
<text x="713.5" y="531.0" text-anchor="end" fill="#666" transform="rotate(-50 713.5 531.0)">26.9</text>
<line x1="749.4" y1="516.0" x2="749.4" y2="519.0" stroke="#999"/>
<text x="749.4" y="531.0" text-anchor="end" fill="#666" transform="rotate(-50 749.4 531.0)">26.10</text>
<line x1="785.2" y1="516.0" x2="785.2" y2="519.0" stroke="#999"/>
<text x="785.2" y="531.0" text-anchor="end" fill="#666" transform="rotate(-50 785.2 531.0)">26.11</text>
<line x1="821.1" y1="516.0" x2="821.1" y2="519.0" stroke="#999"/>
<text x="821.1" y="531.0" text-anchor="end" fill="#666" transform="rotate(-50 821.1 531.0)">26.12</text>
<line x1="857.0" y1="516.0" x2="857.0" y2="519.0" stroke="#999"/>
<text x="857.0" y="531.0" text-anchor="end" fill="#e8731a" transform="rotate(-50 857.0 531.0)">06-25</text>
<line x1="892.8" y1="516.0" x2="892.8" y2="519.0" stroke="#999"/>
<text x="892.8" y="531.0" text-anchor="end" fill="#e8731a" transform="rotate(-50 892.8 531.0)">06-26</text>
<line x1="928.7" y1="516.0" x2="928.7" y2="519.0" stroke="#999"/>
<text x="928.7" y="531.0" text-anchor="end" fill="#e8731a" transform="rotate(-50 928.7 531.0)">06-28</text>
<line x1="964.6" y1="516.0" x2="964.6" y2="519.0" stroke="#999"/>
<text x="964.6" y="531.0" text-anchor="end" fill="#e8731a" transform="rotate(-50 964.6 531.0)">07-01</text>
<line x1="1000.4" y1="516.0" x2="1000.4" y2="519.0" stroke="#999"/>
<text x="1000.4" y="531.0" text-anchor="end" fill="#e8731a" transform="rotate(-50 1000.4 531.0)">07-02</text>
<line x1="1036.3" y1="516.0" x2="1036.3" y2="519.0" stroke="#999"/>
<text x="1036.3" y="531.0" text-anchor="end" fill="#e8731a" transform="rotate(-50 1036.3 531.0)">07-03</text>
<line x1="1072.1" y1="516.0" x2="1072.1" y2="519.0" stroke="#999"/>
<text x="1072.1" y="531.0" text-anchor="end" fill="#e8731a" transform="rotate(-50 1072.1 531.0)">07-03</text>
<line x1="1108.0" y1="516.0" x2="1108.0" y2="519.0" stroke="#999"/>
<text x="1108.0" y="531.0" text-anchor="end" fill="#e8731a" transform="rotate(-50 1108.0 531.0)">07-03</text>
<polygon points="68.0,514.2 103.9,514.4 139.7,514.4 175.6,514.4 211.4,514.4 247.3,514.3 283.2,514.3 319.0,514.3 354.9,514.3 390.8,514.3 426.6,514.4 462.5,514.4 498.3,514.4 534.2,514.4 570.1,514.3 605.9,514.3 641.8,514.3 677.7,514.3 713.5,514.4 749.4,514.3 785.2,514.3 821.1,514.3 857.0,514.2 892.8,514.2 928.7,514.2 964.6,514.2 1000.4,514.2 1036.3,514.2 1072.1,514.1 1108.0,514.2 1108.0,516.0 1072.1,516.0 1036.3,516.0 1000.4,516.0 964.6,516.0 928.7,516.0 892.8,516.0 857.0,516.0 821.1,516.0 785.2,516.0 749.4,516.0 713.5,516.0 677.7,516.0 641.8,516.0 605.9,516.0 570.1,516.0 534.2,516.0 498.3,516.0 462.5,516.0 426.6,516.0 390.8,516.0 354.9,516.0 319.0,516.0 283.2,516.0 247.3,516.0 211.4,516.0 175.6,516.0 139.7,516.0 103.9,516.0 68.0,516.0" fill="#c7e9c0" fill-opacity="0.9" stroke="#fff" stroke-width="0.4"><title>control_flow_ssa — parseTranslationUnit</title></polygon>
<polygon points="68.0,453.9 103.9,436.2 139.7,434.9 175.6,428.3 211.4,427.4 247.3,430.5 283.2,424.1 319.0,429.6 354.9,434.0 390.8,436.6 426.6,441.1 462.5,439.7 498.3,436.6 534.2,434.4 570.1,435.2 605.9,436.3 641.8,416.1 677.7,413.7 713.5,413.8 749.4,409.3 785.2,480.8 821.1,480.4 857.0,477.6 892.8,476.9 928.7,476.3 964.6,478.1 1000.4,477.9 1036.3,477.5 1072.1,477.6 1108.0,478.9 1108.0,514.2 1072.1,514.1 1036.3,514.2 1000.4,514.2 964.6,514.2 928.7,514.2 892.8,514.2 857.0,514.2 821.1,514.3 785.2,514.3 749.4,514.3 713.5,514.4 677.7,514.3 641.8,514.3 605.9,514.3 570.1,514.3 534.2,514.4 498.3,514.4 462.5,514.4 426.6,514.4 390.8,514.3 354.9,514.3 319.0,514.3 283.2,514.3 247.3,514.3 211.4,514.4 175.6,514.4 139.7,514.4 103.9,514.4 68.0,514.2" fill="#41ab5d" fill-opacity="0.9" stroke="#fff" stroke-width="0.4"><title>control_flow_ssa — SemanticChecking</title></polygon>
<polygon points="68.0,424.1 103.9,406.4 139.7,404.8 175.6,396.0 211.4,394.2 247.3,398.0 283.2,391.0 319.0,396.1 354.9,401.8 390.8,404.4 426.6,410.2 462.5,408.0 498.3,405.5 534.2,403.1 570.1,403.0 605.9,405.4 641.8,371.2 677.7,368.1 713.5,369.2 749.4,364.9 785.2,451.5 821.1,451.6 857.0,446.2 892.8,444.8 928.7,443.9 964.6,447.0 1000.4,447.3 1036.3,446.7 1072.1,445.5 1108.0,448.7 1108.0,478.9 1072.1,477.6 1036.3,477.5 1000.4,477.9 964.6,478.1 928.7,476.3 892.8,476.9 857.0,477.6 821.1,480.4 785.2,480.8 749.4,409.3 713.5,413.8 677.7,413.7 641.8,416.1 605.9,436.3 570.1,435.2 534.2,434.4 498.3,436.6 462.5,439.7 426.6,441.1 390.8,436.6 354.9,434.0 319.0,429.6 283.2,424.1 247.3,430.5 211.4,427.4 175.6,428.3 139.7,434.9 103.9,436.2 68.0,453.9" fill="#006d2c" fill-opacity="0.9" stroke="#fff" stroke-width="0.4"><title>control_flow_ssa — generateIR</title></polygon>
<polygon points="68.0,423.3 103.9,406.1 139.7,404.4 175.6,394.4 211.4,393.7 247.3,397.1 283.2,391.0 319.0,394.9 354.9,401.8 390.8,403.7 426.6,409.9 462.5,407.6 498.3,404.9 534.2,402.6 570.1,401.9 605.9,403.8 641.8,370.4 677.7,367.1 713.5,369.2 749.4,364.4 785.2,451.0 821.1,451.2 857.0,446.0 892.8,444.6 928.7,443.5 964.6,446.0 1000.4,446.1 1036.3,445.5 1072.1,444.6 1108.0,448.3 1108.0,448.7 1072.1,445.5 1036.3,446.7 1000.4,447.3 964.6,447.0 928.7,443.9 892.8,444.8 857.0,446.2 821.1,451.6 785.2,451.5 749.4,364.9 713.5,369.2 677.7,368.1 641.8,371.2 605.9,405.4 570.1,403.0 534.2,403.1 498.3,405.5 462.5,408.0 426.6,410.2 390.8,404.4 354.9,401.8 319.0,396.1 283.2,391.0 247.3,398.0 211.4,394.2 175.6,396.0 139.7,404.8 103.9,406.4 68.0,424.1" fill="#74c476" fill-opacity="0.9" stroke="#fff" stroke-width="0.4"><title>control_flow_ssa — frontEndExecute (self)</title></polygon>
<polygon points="68.0,419.1 103.9,401.9 139.7,400.3 175.6,390.2 211.4,389.6 247.3,392.4 283.2,386.4 319.0,390.3 354.9,397.1 390.8,399.1 426.6,401.8 462.5,399.6 498.3,397.0 534.2,394.5 570.1,393.9 605.9,395.9 641.8,354.4 677.7,351.4 713.5,353.6 749.4,348.6 785.2,437.7 821.1,438.1 857.0,430.1 892.8,428.6 928.7,427.6 964.6,429.8 1000.4,430.6 1036.3,429.7 1072.1,428.6 1108.0,432.6 1108.0,448.3 1072.1,444.6 1036.3,445.5 1000.4,446.1 964.6,446.0 928.7,443.5 892.8,444.6 857.0,446.0 821.1,451.2 785.2,451.0 749.4,364.4 713.5,369.2 677.7,367.1 641.8,370.4 605.9,403.8 570.1,401.9 534.2,402.6 498.3,404.9 462.5,407.6 426.6,409.9 390.8,403.7 354.9,401.8 319.0,394.9 283.2,391.0 247.3,397.1 211.4,393.7 175.6,394.4 139.7,404.4 103.9,406.1 68.0,423.3" fill="#6baed6" fill-opacity="0.9" stroke="#fff" stroke-width="0.4"><title>control_flow_ssa — specializeModule</title></polygon>
<polygon points="68.0,381.0 103.9,363.9 139.7,362.8 175.6,351.5 211.4,350.3 247.3,352.6 283.2,343.5 319.0,350.7 354.9,358.2 390.8,359.9 426.6,367.6 462.5,365.1 498.3,362.4 534.2,359.7 570.1,358.5 605.9,360.7 641.8,306.1 677.7,302.2 713.5,305.2 749.4,298.3 785.2,391.9 821.1,393.0 857.0,380.2 892.8,378.7 928.7,377.9 964.6,381.1 1000.4,381.2 1036.3,380.5 1072.1,379.1 1108.0,384.1 1108.0,432.6 1072.1,428.6 1036.3,429.7 1000.4,430.6 964.6,429.8 928.7,427.6 892.8,428.6 857.0,430.1 821.1,438.1 785.2,437.7 749.4,348.6 713.5,353.6 677.7,351.4 641.8,354.4 605.9,395.9 570.1,393.9 534.2,394.5 498.3,397.0 462.5,399.6 426.6,401.8 390.8,399.1 354.9,397.1 319.0,390.3 283.2,386.4 247.3,392.4 211.4,389.6 175.6,390.2 139.7,400.3 103.9,401.9 68.0,419.1" fill="#2171b5" fill-opacity="0.9" stroke="#fff" stroke-width="0.4"><title>control_flow_ssa — simplifyIR</title></polygon>
<polygon points="68.0,377.8 103.9,361.1 139.7,360.2 175.6,348.0 211.4,346.8 247.3,348.7 283.2,339.8 319.0,346.8 354.9,354.5 390.8,356.0 426.6,364.5 462.5,362.2 498.3,359.4 534.2,356.9 570.1,355.5 605.9,357.7 641.8,290.8 677.7,286.8 713.5,290.4 749.4,283.1 785.2,389.3 821.1,390.5 857.0,377.6 892.8,376.1 928.7,375.3 964.6,378.4 1000.4,378.6 1036.3,377.8 1072.1,376.5 1108.0,381.6 1108.0,384.1 1072.1,379.1 1036.3,380.5 1000.4,381.2 964.6,381.1 928.7,377.9 892.8,378.7 857.0,380.2 821.1,393.0 785.2,391.9 749.4,298.3 713.5,305.2 677.7,302.2 641.8,306.1 605.9,360.7 570.1,358.5 534.2,359.7 498.3,362.4 462.5,365.1 426.6,367.6 390.8,359.9 354.9,358.2 319.0,350.7 283.2,343.5 247.3,352.6 211.4,350.3 175.6,351.5 139.7,362.8 103.9,363.9 68.0,381.0" fill="#08306b" fill-opacity="0.9" stroke="#fff" stroke-width="0.4"><title>control_flow_ssa — linkIR</title></polygon>
<polygon points="68.0,377.6 103.9,360.9 139.7,360.0 175.6,347.8 211.4,346.6 247.3,348.5 283.2,339.6 319.0,346.6 354.9,354.3 390.8,355.8 426.6,364.4 462.5,361.9 498.3,359.2 534.2,356.7 570.1,355.3 605.9,357.5 641.8,290.6 677.7,286.6 713.5,290.3 749.4,282.9 785.2,389.1 821.1,390.3 857.0,377.4 892.8,375.9 928.7,375.1 964.6,378.2 1000.4,378.4 1036.3,377.6 1072.1,376.3 1108.0,381.4 1108.0,381.6 1072.1,376.5 1036.3,377.8 1000.4,378.6 964.6,378.4 928.7,375.3 892.8,376.1 857.0,377.6 821.1,390.5 785.2,389.3 749.4,283.1 713.5,290.4 677.7,286.8 641.8,290.8 605.9,357.7 570.1,355.5 534.2,356.9 498.3,359.4 462.5,362.2 426.6,364.5 390.8,356.0 354.9,354.5 319.0,346.8 283.2,339.8 247.3,348.7 211.4,346.8 175.6,348.0 139.7,360.2 103.9,361.1 68.0,377.8" fill="#9e9ac8" fill-opacity="0.9" stroke="#fff" stroke-width="0.4"><title>control_flow_ssa — unrollLoopsInModule</title></polygon>
<polygon points="68.0,371.7 103.9,354.8 139.7,354.1 175.6,341.8 211.4,343.3 247.3,345.1 283.2,335.4 319.0,343.3 354.9,350.9 390.8,352.5 426.6,361.1 462.5,358.7 498.3,355.9 534.2,353.4 570.1,352.0 605.9,354.2 641.8,287.3 677.7,282.8 713.5,286.6 749.4,279.1 785.2,384.9 821.1,386.2 857.0,373.2 892.8,371.7 928.7,370.8 964.6,374.0 1000.4,374.3 1036.3,373.5 1072.1,372.1 1108.0,377.4 1108.0,381.4 1072.1,376.3 1036.3,377.6 1000.4,378.4 964.6,378.2 928.7,375.1 892.8,375.9 857.0,377.4 821.1,390.3 785.2,389.1 749.4,282.9 713.5,290.3 677.7,286.6 641.8,290.6 605.9,357.5 570.1,355.3 534.2,356.7 498.3,359.2 462.5,361.9 426.6,364.4 390.8,355.8 354.9,354.3 319.0,346.6 283.2,339.6 247.3,348.5 211.4,346.6 175.6,347.8 139.7,360.0 103.9,360.9 68.0,377.6" fill="#807dba" fill-opacity="0.9" stroke="#fff" stroke-width="0.4"><title>control_flow_ssa — legalizeResourceTypes</title></polygon>
<polygon points="68.0,365.5 103.9,348.4 139.7,348.1 175.6,335.7 211.4,339.6 247.3,341.5 283.2,330.6 319.0,339.7 354.9,347.3 390.8,349.1 426.6,357.6 462.5,355.3 498.3,352.4 534.2,349.9 570.1,348.5 605.9,350.8 641.8,283.7 677.7,278.8 713.5,282.7 749.4,275.2 785.2,380.6 821.1,381.9 857.0,368.9 892.8,367.2 928.7,366.4 964.6,369.7 1000.4,370.0 1036.3,369.2 1072.1,367.7 1108.0,373.1 1108.0,377.4 1072.1,372.1 1036.3,373.5 1000.4,374.3 964.6,374.0 928.7,370.8 892.8,371.7 857.0,373.2 821.1,386.2 785.2,384.9 749.4,279.1 713.5,286.6 677.7,282.8 641.8,287.3 605.9,354.2 570.1,352.0 534.2,353.4 498.3,355.9 462.5,358.7 426.6,361.1 390.8,352.5 354.9,350.9 319.0,343.3 283.2,335.4 247.3,345.1 211.4,343.3 175.6,341.8 139.7,354.1 103.9,354.8 68.0,371.7" fill="#6a51a3" fill-opacity="0.9" stroke="#fff" stroke-width="0.4"><title>control_flow_ssa — legalizeExistentialTypeLayout</title></polygon>
<polygon points="68.0,361.2 103.9,344.2 139.7,343.8 175.6,330.7 211.4,334.5 247.3,336.7 283.2,325.7 319.0,334.8 354.9,342.5 390.8,344.3 426.6,353.0 462.5,350.6 498.3,348.0 534.2,345.4 570.1,343.9 605.9,346.2 641.8,279.1 677.7,274.2 713.5,278.0 749.4,270.6 785.2,375.8 821.1,377.4 857.0,363.8 892.8,362.1 928.7,361.2 964.6,364.7 1000.4,365.0 1036.3,364.3 1072.1,362.7 1108.0,368.3 1108.0,373.1 1072.1,367.7 1036.3,369.2 1000.4,370.0 964.6,369.7 928.7,366.4 892.8,367.2 857.0,368.9 821.1,381.9 785.2,380.6 749.4,275.2 713.5,282.7 677.7,278.8 641.8,283.7 605.9,350.8 570.1,348.5 534.2,349.9 498.3,352.4 462.5,355.3 426.6,357.6 390.8,349.1 354.9,347.3 319.0,339.7 283.2,330.6 247.3,341.5 211.4,339.6 175.6,335.7 139.7,348.1 103.9,348.4 68.0,365.5" fill="#bcbddc" fill-opacity="0.9" stroke="#fff" stroke-width="0.4"><title>control_flow_ssa — performMandatoryEarlyInlining</title></polygon>
<polygon points="68.0,360.6 103.9,343.6 139.7,343.2 175.6,330.1 211.4,333.9 247.3,336.1 283.2,325.0 319.0,334.2 354.9,341.9 390.8,343.7 426.6,352.4 462.5,350.0 498.3,347.4 534.2,344.8 570.1,343.3 605.9,345.6 641.8,278.6 677.7,273.6 713.5,277.5 749.4,270.0 785.2,375.2 821.1,376.7 857.0,363.2 892.8,361.5 928.7,360.6 964.6,364.1 1000.4,364.4 1036.3,363.6 1072.1,362.1 1108.0,367.7 1108.0,368.3 1072.1,362.7 1036.3,364.3 1000.4,365.0 964.6,364.7 928.7,361.2 892.8,362.1 857.0,363.8 821.1,377.4 785.2,375.8 749.4,270.6 713.5,278.0 677.7,274.2 641.8,279.1 605.9,346.2 570.1,343.9 534.2,345.4 498.3,348.0 462.5,350.6 426.6,353.0 390.8,344.3 354.9,342.5 319.0,334.8 283.2,325.7 247.3,336.7 211.4,334.5 175.6,330.7 139.7,343.8 103.9,344.2 68.0,361.2" fill="#dadaeb" fill-opacity="0.9" stroke="#fff" stroke-width="0.4"><title>control_flow_ssa — performForceInlining</title></polygon>
<polygon points="68.0,318.2 103.9,295.9 139.7,295.0 175.6,277.2 211.4,276.7 247.3,278.6 283.2,263.0 319.0,275.5 354.9,283.0 390.8,286.1 426.6,297.2 462.5,293.6 498.3,292.4 534.2,288.1 570.1,288.0 605.9,290.9 641.8,218.3 677.7,210.9 713.5,217.7 749.4,210.2 785.2,318.1 821.1,321.3 857.0,299.9 892.8,298.6 928.7,300.8 964.6,303.9 1000.4,303.7 1036.3,303.2 1072.1,302.3 1108.0,308.3 1108.0,367.7 1072.1,362.1 1036.3,363.6 1000.4,364.4 964.6,364.1 928.7,360.6 892.8,361.5 857.0,363.2 821.1,376.7 785.2,375.2 749.4,270.0 713.5,277.5 677.7,273.6 641.8,278.6 605.9,345.6 570.1,343.3 534.2,344.8 498.3,347.4 462.5,350.0 426.6,352.4 390.8,343.7 354.9,341.9 319.0,334.2 283.2,325.0 247.3,336.1 211.4,333.9 175.6,330.1 139.7,343.2 103.9,343.6 68.0,360.6" fill="#4a1486" fill-opacity="0.9" stroke="#fff" stroke-width="0.4"><title>control_flow_ssa — linkAndOptimizeIR (self)</title></polygon>
<polygon points="68.0,202.1 103.9,175.2 139.7,175.6 175.6,163.2 211.4,170.1 247.3,173.1 283.2,159.5 319.0,171.0 354.9,176.8 390.8,184.1 426.6,198.2 462.5,194.8 498.3,195.1 534.2,190.5 570.1,189.5 605.9,192.9 641.8,121.2 677.7,110.9 713.5,120.2 749.4,111.9 785.2,215.1 821.1,219.2 857.0,193.6 892.8,191.6 928.7,192.5 964.6,199.2 1000.4,199.7 1036.3,199.7 1072.1,196.4 1108.0,204.2 1108.0,308.3 1072.1,302.3 1036.3,303.2 1000.4,303.7 964.6,303.9 928.7,300.8 892.8,298.6 857.0,299.9 821.1,321.3 785.2,318.1 749.4,210.2 713.5,217.7 677.7,210.9 641.8,218.3 605.9,290.9 570.1,288.0 534.2,288.1 498.3,292.4 462.5,293.6 426.6,297.2 390.8,286.1 354.9,283.0 319.0,275.5 283.2,263.0 247.3,278.6 211.4,276.7 175.6,277.2 139.7,295.0 103.9,295.9 68.0,318.2" fill="#e6550d" fill-opacity="0.9" stroke="#fff" stroke-width="0.4"><title>control_flow_ssa — generateOutput (self)</title></polygon>
<polygon points="68.0,202.1 103.9,175.2 139.7,175.5 175.6,160.2 211.4,169.1 247.3,167.7 283.2,159.5 319.0,169.1 354.9,176.8 390.8,184.1 426.6,196.5 462.5,193.8 498.3,194.5 534.2,189.9 570.1,187.3 605.9,191.9 641.8,118.6 677.7,110.8 713.5,120.2 749.4,108.6 785.2,214.9 821.1,218.3 857.0,193.5 892.8,191.1 928.7,192.3 964.6,199.2 1000.4,196.9 1036.3,199.2 1072.1,196.4 1108.0,204.2 1108.0,204.2 1072.1,196.4 1036.3,199.7 1000.4,199.7 964.6,199.2 928.7,192.5 892.8,191.6 857.0,193.6 821.1,219.2 785.2,215.1 749.4,111.9 713.5,120.2 677.7,110.9 641.8,121.2 605.9,192.9 570.1,189.5 534.2,190.5 498.3,195.1 462.5,194.8 426.6,198.2 390.8,184.1 354.9,176.8 319.0,171.0 283.2,159.5 247.3,173.1 211.4,170.1 175.6,163.2 139.7,175.6 103.9,175.2 68.0,202.1" fill="#969696" fill-opacity="0.9" stroke="#fff" stroke-width="0.4"><title>control_flow_ssa — compileInner (self)</title></polygon>
<text x="12" y="578" fill="#666" font-weight="600">phase buckets</text>
<rect x="12" y="586" width="12" height="12" fill="#c7e9c0"/>
<text x="28" y="596" fill="#222">parseTranslationUnit</text>
<rect x="289" y="586" width="12" height="12" fill="#41ab5d"/>
<text x="305" y="596" fill="#222">SemanticChecking</text>
<rect x="566" y="586" width="12" height="12" fill="#006d2c"/>
<text x="582" y="596" fill="#222">generateIR</text>
<rect x="843" y="586" width="12" height="12" fill="#74c476"/>
<text x="859" y="596" fill="#222">frontEndExecute (self)</text>
<rect x="12" y="604" width="12" height="12" fill="#6baed6"/>
<text x="28" y="614" fill="#222">specializeModule</text>
<rect x="289" y="604" width="12" height="12" fill="#2171b5"/>
<text x="305" y="614" fill="#222">simplifyIR</text>
<rect x="566" y="604" width="12" height="12" fill="#08306b"/>
<text x="582" y="614" fill="#222">linkIR</text>
<rect x="843" y="604" width="12" height="12" fill="#9e9ac8"/>
<text x="859" y="614" fill="#222">unrollLoopsInModule</text>
<rect x="12" y="622" width="12" height="12" fill="#807dba"/>
<text x="28" y="632" fill="#222">legalizeResourceTypes</text>
<rect x="289" y="622" width="12" height="12" fill="#6a51a3"/>
<text x="305" y="632" fill="#222">legalizeExistentialTypeLayout</text>
<rect x="566" y="622" width="12" height="12" fill="#bcbddc"/>
<text x="582" y="632" fill="#222">performMandatoryEarlyInlining</text>
<rect x="843" y="622" width="12" height="12" fill="#dadaeb"/>
<text x="859" y="632" fill="#222">performForceInlining</text>
<rect x="12" y="640" width="12" height="12" fill="#4a1486"/>
<text x="28" y="650" fill="#222">linkAndOptimizeIR (self)</text>
<rect x="289" y="640" width="12" height="12" fill="#fd8d3c"/>
<text x="305" y="650" fill="#222">emitEntryPointsSourceFromIR</text>
<rect x="566" y="640" width="12" height="12" fill="#e6550d"/>
<text x="582" y="650" fill="#222">generateOutput (self)</text>
<rect x="843" y="640" width="12" height="12" fill="#969696"/>
<text x="859" y="650" fill="#222">compileInner (self)</text>
</svg>