<svg xmlns="http://www.w3.org/2000/svg" xmlns:xlink="http://www.w3.org/1999/xlink" width="1132" height="680" viewBox="0 0 1132 680" preserveAspectRatio="xMidYMid meet" font-family="sans-serif" font-size="13">
<rect width="1132" height="680" fill="white"/>
<text x="12" y="30" font-size="20" font-weight="bold">control_flow_ssa — full phase breakdown across releases (median ms)</text>
<text x="68" y="60" font-size="15" font-weight="600" fill="#1a1a1a">control_flow_ssa<tspan fill="#888" font-weight="400" text-decoration="none">  1.00×</tspan></text>
<line x1="68.0" y1="516.0" x2="1108.0" y2="516.0" stroke="#eee"/>
<text x="64.0" y="519.0" text-anchor="end" fill="#999">0.0</text>
<line x1="68.0" y1="296.0" x2="1108.0" y2="296.0" stroke="#eee"/>
<text x="64.0" y="299.0" text-anchor="end" fill="#999">161</text>
<line x1="68.0" y1="76.0" x2="1108.0" y2="76.0" stroke="#eee"/>
<text x="64.0" y="79.0" text-anchor="end" fill="#999">323</text>
<line x1="68.0" y1="76.0" x2="68.0" y2="516.0" stroke="#333"/>
<line x1="68.0" y1="516.0" x2="1108.0" y2="516.0" stroke="#333"/>
<line x1="920.8" y1="76.0" x2="920.8" y2="516.0" stroke="#e8731a" stroke-width="1.2" stroke-dasharray="4 3"/>
<text x="923.8" y="87.0" fill="#e8731a" font-size="11">daily →</text>
<line x1="68.0" y1="516.0" x2="68.0" y2="519.0" stroke="#999"/>
<text x="68.0" y="531.0" text-anchor="end" fill="#666" transform="rotate(-50 68.0 531.0)">25.14</text>
<line x1="109.6" y1="516.0" x2="109.6" y2="519.0" stroke="#999"/>
<text x="109.6" y="531.0" text-anchor="end" fill="#666" transform="rotate(-50 109.6 531.0)">25.15</text>
<line x1="151.2" y1="516.0" x2="151.2" y2="519.0" stroke="#999"/>
<text x="151.2" y="531.0" text-anchor="end" fill="#666" transform="rotate(-50 151.2 531.0)">25.16</text>
<line x1="192.8" y1="516.0" x2="192.8" y2="519.0" stroke="#999"/>
<text x="192.8" y="531.0" text-anchor="end" fill="#666" transform="rotate(-50 192.8 531.0)">25.17</text>
<line x1="234.4" y1="516.0" x2="234.4" y2="519.0" stroke="#999"/>
<text x="234.4" y="531.0" text-anchor="end" fill="#666" transform="rotate(-50 234.4 531.0)">25.18</text>
<line x1="276.0" y1="516.0" x2="276.0" y2="519.0" stroke="#999"/>
<text x="276.0" y="531.0" text-anchor="end" fill="#666" transform="rotate(-50 276.0 531.0)">25.19</text>
<line x1="317.6" y1="516.0" x2="317.6" y2="519.0" stroke="#999"/>
<text x="317.6" y="531.0" text-anchor="end" fill="#666" transform="rotate(-50 317.6 531.0)">25.20</text>
<line x1="359.2" y1="516.0" x2="359.2" y2="519.0" stroke="#999"/>
<text x="359.2" y="531.0" text-anchor="end" fill="#666" transform="rotate(-50 359.2 531.0)">25.21</text>
<line x1="400.8" y1="516.0" x2="400.8" y2="519.0" stroke="#999"/>
<text x="400.8" y="531.0" text-anchor="end" fill="#666" transform="rotate(-50 400.8 531.0)">25.22</text>
<line x1="442.4" y1="516.0" x2="442.4" y2="519.0" stroke="#999"/>
<text x="442.4" y="531.0" text-anchor="end" fill="#666" transform="rotate(-50 442.4 531.0)">25.23</text>
<line x1="484.0" y1="516.0" x2="484.0" y2="519.0" stroke="#999"/>
<text x="484.0" y="531.0" text-anchor="end" fill="#666" transform="rotate(-50 484.0 531.0)">25.24</text>
<line x1="525.6" y1="516.0" x2="525.6" y2="519.0" stroke="#999"/>
<text x="525.6" y="531.0" text-anchor="end" fill="#666" transform="rotate(-50 525.6 531.0)">26.1</text>
<line x1="567.2" y1="516.0" x2="567.2" y2="519.0" stroke="#999"/>
<text x="567.2" y="531.0" text-anchor="end" fill="#666" transform="rotate(-50 567.2 531.0)">26.2</text>
<line x1="608.8" y1="516.0" x2="608.8" y2="519.0" stroke="#999"/>
<text x="608.8" y="531.0" text-anchor="end" fill="#666" transform="rotate(-50 608.8 531.0)">26.3</text>
<line x1="650.4" y1="516.0" x2="650.4" y2="519.0" stroke="#999"/>
<text x="650.4" y="531.0" text-anchor="end" fill="#666" transform="rotate(-50 650.4 531.0)">26.4</text>
<line x1="692.0" y1="516.0" x2="692.0" y2="519.0" stroke="#999"/>
<text x="692.0" y="531.0" text-anchor="end" fill="#666" transform="rotate(-50 692.0 531.0)">26.5</text>
<line x1="733.6" y1="516.0" x2="733.6" y2="519.0" stroke="#999"/>
<text x="733.6" y="531.0" text-anchor="end" fill="#666" transform="rotate(-50 733.6 531.0)">26.7</text>
<line x1="775.2" y1="516.0" x2="775.2" y2="519.0" stroke="#999"/>
<text x="775.2" y="531.0" text-anchor="end" fill="#666" transform="rotate(-50 775.2 531.0)">26.8</text>
<line x1="816.8" y1="516.0" x2="816.8" y2="519.0" stroke="#999"/>
<text x="816.8" y="531.0" text-anchor="end" fill="#666" transform="rotate(-50 816.8 531.0)">26.9</text>
<line x1="858.4" y1="516.0" x2="858.4" y2="519.0" stroke="#999"/>
<text x="858.4" y="531.0" text-anchor="end" fill="#666" transform="rotate(-50 858.4 531.0)">26.10</text>
<line x1="900.0" y1="516.0" x2="900.0" y2="519.0" stroke="#999"/>
<text x="900.0" y="531.0" text-anchor="end" fill="#666" transform="rotate(-50 900.0 531.0)">26.11</text>
<line x1="941.6" y1="516.0" x2="941.6" y2="519.0" stroke="#999"/>
<text x="941.6" y="531.0" text-anchor="end" fill="#e8731a" transform="rotate(-50 941.6 531.0)">06-25</text>
<line x1="983.2" y1="516.0" x2="983.2" y2="519.0" stroke="#999"/>
<text x="983.2" y="531.0" text-anchor="end" fill="#e8731a" transform="rotate(-50 983.2 531.0)">06-26</text>
<line x1="1024.8" y1="516.0" x2="1024.8" y2="519.0" stroke="#999"/>
<text x="1024.8" y="531.0" text-anchor="end" fill="#e8731a" transform="rotate(-50 1024.8 531.0)">06-28</text>
<line x1="1066.4" y1="516.0" x2="1066.4" y2="519.0" stroke="#999"/>
<text x="1066.4" y="531.0" text-anchor="end" fill="#e8731a" transform="rotate(-50 1066.4 531.0)">07-01</text>
<line x1="1108.0" y1="516.0" x2="1108.0" y2="519.0" stroke="#999"/>
<text x="1108.0" y="531.0" text-anchor="end" fill="#e8731a" transform="rotate(-50 1108.0 531.0)">07-02</text>
<polygon points="68.0,514.2 109.6,514.4 151.2,514.3 192.8,514.4 234.4,514.4 276.0,514.4 317.6,514.4 359.2,514.4 400.8,514.4 442.4,514.4 484.0,514.4 525.6,514.4 567.2,514.4 608.8,514.3 650.4,514.3 692.0,514.3 733.6,514.3 775.2,514.3 816.8,514.3 858.4,514.2 900.0,514.3 941.6,514.2 983.2,514.2 1024.8,514.2 1066.4,514.2 1108.0,514.2 1108.0,516.0 1066.4,516.0 1024.8,516.0 983.2,516.0 941.6,516.0 900.0,516.0 858.4,516.0 816.8,516.0 775.2,516.0 733.6,516.0 692.0,516.0 650.4,516.0 608.8,516.0 567.2,516.0 525.6,516.0 484.0,516.0 442.4,516.0 400.8,516.0 359.2,516.0 317.6,516.0 276.0,516.0 234.4,516.0 192.8,516.0 151.2,516.0 109.6,516.0 68.0,516.0" fill="#c7e9c0" fill-opacity="0.9" stroke="#fff" stroke-width="0.4"><title>control_flow_ssa — parseTranslationUnit</title></polygon>
<polygon points="68.0,452.5 109.6,434.5 151.2,433.1 192.8,431.6 234.4,432.0 276.0,432.2 317.6,431.5 359.2,432.3 400.8,440.7 442.4,439.2 484.0,439.6 525.6,438.7 567.2,436.1 608.8,436.6 650.4,433.7 692.0,431.4 733.6,414.0 775.2,413.4 816.8,412.1 858.4,409.1 900.0,480.0 941.6,477.9 983.2,478.0 1024.8,478.2 1066.4,477.7 1108.0,477.6 1108.0,514.2 1066.4,514.2 1024.8,514.2 983.2,514.2 941.6,514.2 900.0,514.3 858.4,514.2 816.8,514.3 775.2,514.3 733.6,514.3 692.0,514.3 650.4,514.3 608.8,514.3 567.2,514.4 525.6,514.4 484.0,514.4 442.4,514.4 400.8,514.4 359.2,514.4 317.6,514.4 276.0,514.4 234.4,514.4 192.8,514.4 151.2,514.3 109.6,514.4 68.0,514.2" fill="#41ab5d" fill-opacity="0.9" stroke="#fff" stroke-width="0.4"><title>control_flow_ssa — SemanticChecking</title></polygon>
<polygon points="68.0,422.5 109.6,404.8 151.2,403.2 192.8,400.6 234.4,401.1 276.0,401.4 317.6,400.9 359.2,401.6 400.8,410.1 442.4,408.5 484.0,409.3 525.6,407.3 567.2,405.2 608.8,405.6 650.4,401.3 692.0,399.2 733.6,370.9 775.2,369.9 816.8,368.4 858.4,365.1 900.0,451.5 941.6,447.7 983.2,447.9 1024.8,447.8 1066.4,447.1 1108.0,447.1 1108.0,477.6 1066.4,477.7 1024.8,478.2 983.2,478.0 941.6,477.9 900.0,480.0 858.4,409.1 816.8,412.1 775.2,413.4 733.6,414.0 692.0,431.4 650.4,433.7 608.8,436.6 567.2,436.1 525.6,438.7 484.0,439.6 442.4,439.2 400.8,440.7 359.2,432.3 317.6,431.5 276.0,432.2 234.4,432.0 192.8,431.6 151.2,433.1 109.6,434.5 68.0,452.5" fill="#006d2c" fill-opacity="0.9" stroke="#fff" stroke-width="0.4"><title>control_flow_ssa — generateIR</title></polygon>
<polygon points="68.0,422.2 109.6,404.7 151.2,403.0 192.8,400.3 234.4,400.6 276.0,401.2 317.6,400.6 359.2,400.8 400.8,409.8 442.4,408.2 484.0,408.8 525.6,406.9 567.2,404.8 608.8,405.2 650.4,400.5 692.0,399.1 733.6,370.5 775.2,369.5 816.8,368.0 858.4,364.7 900.0,451.1 941.6,447.6 983.2,447.4 1024.8,447.4 1066.4,446.6 1108.0,446.5 1108.0,447.1 1066.4,447.1 1024.8,447.8 983.2,447.9 941.6,447.7 900.0,451.5 858.4,365.1 816.8,368.4 775.2,369.9 733.6,370.9 692.0,399.2 650.4,401.3 608.8,405.6 567.2,405.2 525.6,407.3 484.0,409.3 442.4,408.5 400.8,410.1 359.2,401.6 317.6,400.9 276.0,401.4 234.4,401.1 192.8,400.6 151.2,403.2 109.6,404.8 68.0,422.5" fill="#74c476" fill-opacity="0.9" stroke="#fff" stroke-width="0.4"><title>control_flow_ssa — frontEndExecute (self)</title></polygon>
<polygon points="68.0,418.1 109.6,400.6 151.2,398.9 192.8,396.1 234.4,396.4 276.0,396.6 317.6,396.1 359.2,396.3 400.8,405.3 442.4,403.7 484.0,400.7 525.6,398.9 567.2,396.8 608.8,397.2 650.4,392.3 692.0,390.9 733.6,354.3 775.2,353.7 816.8,352.1 858.4,348.8 900.0,437.4 941.6,431.8 983.2,431.6 1024.8,431.7 1066.4,430.9 1108.0,430.7 1108.0,446.5 1066.4,446.6 1024.8,447.4 983.2,447.4 941.6,447.6 900.0,451.1 858.4,364.7 816.8,368.0 775.2,369.5 733.6,370.5 692.0,399.1 650.4,400.5 608.8,405.2 567.2,404.8 525.6,406.9 484.0,408.8 442.4,408.2 400.8,409.8 359.2,400.8 317.6,400.6 276.0,401.2 234.4,400.6 192.8,400.3 151.2,403.0 109.6,404.7 68.0,422.2" fill="#6baed6" fill-opacity="0.9" stroke="#fff" stroke-width="0.4"><title>control_flow_ssa — specializeModule</title></polygon>
<polygon points="68.0,380.3 109.6,362.5 151.2,360.5 192.8,357.1 234.4,358.2 276.0,358.0 317.6,357.2 359.2,358.1 400.8,367.1 442.4,364.7 484.0,366.1 525.6,364.1 567.2,361.4 608.8,361.7 650.4,355.1 692.0,354.4 733.6,304.2 775.2,302.9 816.8,301.4 858.4,298.9 900.0,391.3 941.6,381.9 983.2,382.1 1024.8,382.2 1066.4,381.5 1108.0,380.7 1108.0,430.7 1066.4,430.9 1024.8,431.7 983.2,431.6 941.6,431.8 900.0,437.4 858.4,348.8 816.8,352.1 775.2,353.7 733.6,354.3 692.0,390.9 650.4,392.3 608.8,397.2 567.2,396.8 525.6,398.9 484.0,400.7 442.4,403.7 400.8,405.3 359.2,396.3 317.6,396.1 276.0,396.6 234.4,396.4 192.8,396.1 151.2,398.9 109.6,400.6 68.0,418.1" fill="#2171b5" fill-opacity="0.9" stroke="#fff" stroke-width="0.4"><title>control_flow_ssa — simplifyIR</title></polygon>
<polygon points="68.0,377.2 109.6,359.9 151.2,358.0 192.8,354.3 234.4,355.4 276.0,355.2 317.6,354.3 359.2,355.2 400.8,364.4 442.4,361.9 484.0,363.4 525.6,361.5 567.2,358.6 608.8,359.0 650.4,351.8 692.0,350.4 733.6,290.7 775.2,289.1 816.8,287.7 858.4,285.1 900.0,388.9 941.6,379.4 983.2,379.6 1024.8,379.9 1066.4,379.0 1108.0,378.3 1108.0,380.7 1066.4,381.5 1024.8,382.2 983.2,382.1 941.6,381.9 900.0,391.3 858.4,298.9 816.8,301.4 775.2,302.9 733.6,304.2 692.0,354.4 650.4,355.1 608.8,361.7 567.2,361.4 525.6,364.1 484.0,366.1 442.4,364.7 400.8,367.1 359.2,358.1 317.6,357.2 276.0,358.0 234.4,358.2 192.8,357.1 151.2,360.5 109.6,362.5 68.0,380.3" fill="#08306b" fill-opacity="0.9" stroke="#fff" stroke-width="0.4"><title>control_flow_ssa — linkIR</title></polygon>
<polygon points="68.0,377.0 109.6,359.7 151.2,357.8 192.8,354.1 234.4,355.2 276.0,355.1 317.6,354.1 359.2,355.1 400.8,364.2 442.4,361.7 484.0,363.2 525.6,361.3 567.2,358.4 608.8,358.7 650.4,351.6 692.0,350.2 733.6,290.5 775.2,288.9 816.8,287.5 858.4,284.9 900.0,388.7 941.6,379.2 983.2,379.5 1024.8,379.7 1066.4,378.9 1108.0,378.1 1108.0,378.3 1066.4,379.0 1024.8,379.9 983.2,379.6 941.6,379.4 900.0,388.9 858.4,285.1 816.8,287.7 775.2,289.1 733.6,290.7 692.0,350.4 650.4,351.8 608.8,359.0 567.2,358.6 525.6,361.5 484.0,363.4 442.4,361.9 400.8,364.4 359.2,355.2 317.6,354.3 276.0,355.2 234.4,355.4 192.8,354.3 151.2,358.0 109.6,359.9 68.0,377.2" fill="#9e9ac8" fill-opacity="0.9" stroke="#fff" stroke-width="0.4"><title>control_flow_ssa — unrollLoopsInModule</title></polygon>
<polygon points="68.0,371.2 109.6,353.8 151.2,351.8 192.8,348.2 234.4,352.0 276.0,351.8 317.6,350.9 359.2,351.7 400.8,360.9 442.4,358.4 484.0,359.9 525.6,358.0 567.2,355.2 608.8,355.5 650.4,348.2 692.0,346.8 733.6,287.1 775.2,285.1 816.8,283.8 858.4,281.3 900.0,384.6 941.6,375.0 983.2,375.2 1024.8,375.5 1066.4,374.6 1108.0,373.9 1108.0,378.1 1066.4,378.9 1024.8,379.7 983.2,379.5 941.6,379.2 900.0,388.7 858.4,284.9 816.8,287.5 775.2,288.9 733.6,290.5 692.0,350.2 650.4,351.6 608.8,358.7 567.2,358.4 525.6,361.3 484.0,363.2 442.4,361.7 400.8,364.2 359.2,355.1 317.6,354.1 276.0,355.1 234.4,355.2 192.8,354.1 151.2,357.8 109.6,359.7 68.0,377.0" fill="#807dba" fill-opacity="0.9" stroke="#fff" stroke-width="0.4"><title>control_flow_ssa — legalizeResourceTypes</title></polygon>
<polygon points="68.0,365.1 109.6,347.7 151.2,345.6 192.8,342.1 234.4,348.6 276.0,348.3 317.6,347.4 359.2,348.2 400.8,357.3 442.4,354.8 484.0,356.4 525.6,354.6 567.2,351.7 608.8,352.0 650.4,344.6 692.0,343.2 733.6,283.4 775.2,281.1 816.8,279.9 858.4,277.4 900.0,380.2 941.6,370.5 983.2,370.8 1024.8,371.2 1066.4,370.2 1108.0,369.6 1108.0,373.9 1066.4,374.6 1024.8,375.5 983.2,375.2 941.6,375.0 900.0,384.6 858.4,281.3 816.8,283.8 775.2,285.1 733.6,287.1 692.0,346.8 650.4,348.2 608.8,355.5 567.2,355.2 525.6,358.0 484.0,359.9 442.4,358.4 400.8,360.9 359.2,351.7 317.6,350.9 276.0,351.8 234.4,352.0 192.8,348.2 151.2,351.8 109.6,353.8 68.0,371.2" fill="#6a51a3" fill-opacity="0.9" stroke="#fff" stroke-width="0.4"><title>control_flow_ssa — legalizeExistentialTypeLayout</title></polygon>
<polygon points="68.0,360.7 109.6,343.4 151.2,341.3 192.8,337.1 234.4,343.7 276.0,343.6 317.6,342.8 359.2,343.5 400.8,352.6 442.4,350.2 484.0,351.7 525.6,349.9 567.2,347.0 608.8,347.4 650.4,339.8 692.0,338.4 733.6,278.8 775.2,276.3 816.8,275.0 858.4,272.7 900.0,375.5 941.6,365.6 983.2,365.9 1024.8,366.2 1066.4,365.1 1108.0,364.6 1108.0,369.6 1066.4,370.2 1024.8,371.2 983.2,370.8 941.6,370.5 900.0,380.2 858.4,277.4 816.8,279.9 775.2,281.1 733.6,283.4 692.0,343.2 650.4,344.6 608.8,352.0 567.2,351.7 525.6,354.6 484.0,356.4 442.4,354.8 400.8,357.3 359.2,348.2 317.6,347.4 276.0,348.3 234.4,348.6 192.8,342.1 151.2,345.6 109.6,347.7 68.0,365.1" fill="#bcbddc" fill-opacity="0.9" stroke="#fff" stroke-width="0.4"><title>control_flow_ssa — performMandatoryEarlyInlining</title></polygon>
<polygon points="68.0,360.1 109.6,342.8 151.2,340.7 192.8,336.5 234.4,343.1 276.0,343.0 317.6,342.2 359.2,342.9 400.8,352.0 442.4,349.6 484.0,351.1 525.6,349.3 567.2,346.4 608.8,346.8 650.4,339.2 692.0,337.8 733.6,278.1 775.2,275.7 816.8,274.4 858.4,272.1 900.0,374.8 941.6,365.0 983.2,365.3 1024.8,365.6 1066.4,364.5 1108.0,364.0 1108.0,364.6 1066.4,365.1 1024.8,366.2 983.2,365.9 941.6,365.6 900.0,375.5 858.4,272.7 816.8,275.0 775.2,276.3 733.6,278.8 692.0,338.4 650.4,339.8 608.8,347.4 567.2,347.0 525.6,349.9 484.0,351.7 442.4,350.2 400.8,352.6 359.2,343.5 317.6,342.8 276.0,343.6 234.4,343.7 192.8,337.1 151.2,341.3 109.6,343.4 68.0,360.7" fill="#dadaeb" fill-opacity="0.9" stroke="#fff" stroke-width="0.4"><title>control_flow_ssa — performForceInlining</title></polygon>
<polygon points="68.0,316.5 109.6,292.9 151.2,291.4 192.8,284.6 234.4,287.6 276.0,285.1 317.6,285.7 359.2,286.7 400.8,295.7 442.4,291.8 484.0,293.3 525.6,291.5 567.2,288.1 608.8,289.5 650.4,279.5 692.0,277.8 733.6,215.2 775.2,212.0 816.8,210.3 858.4,207.7 900.0,316.8 941.6,302.0 983.2,302.5 1024.8,303.8 1066.4,302.3 1108.0,302.6 1108.0,364.0 1066.4,364.5 1024.8,365.6 983.2,365.3 941.6,365.0 900.0,374.8 858.4,272.1 816.8,274.4 775.2,275.7 733.6,278.1 692.0,337.8 650.4,339.2 608.8,346.8 567.2,346.4 525.6,349.3 484.0,351.1 442.4,349.6 400.8,352.0 359.2,342.9 317.6,342.2 276.0,343.0 234.4,343.1 192.8,336.5 151.2,340.7 109.6,342.8 68.0,360.1" fill="#4a1486" fill-opacity="0.9" stroke="#fff" stroke-width="0.4"><title>control_flow_ssa — linkAndOptimizeIR (self)</title></polygon>
<polygon points="68.0,200.5 109.6,170.4 151.2,170.0 192.8,185.3 234.4,185.5 276.0,183.2 317.6,187.3 359.2,188.1 400.8,197.3 442.4,194.5 484.0,195.6 525.6,194.0 567.2,188.4 608.8,191.7 650.4,177.0 692.0,174.7 733.6,115.7 775.2,113.1 816.8,110.4 858.4,109.0 900.0,214.9 941.6,197.3 983.2,198.7 1024.8,198.4 1066.4,197.8 1108.0,199.7 1108.0,302.6 1066.4,302.3 1024.8,303.8 983.2,302.5 941.6,302.0 900.0,316.8 858.4,207.7 816.8,210.3 775.2,212.0 733.6,215.2 692.0,277.8 650.4,279.5 608.8,289.5 567.2,288.1 525.6,291.5 484.0,293.3 442.4,291.8 400.8,295.7 359.2,286.7 317.6,285.7 276.0,285.1 234.4,287.6 192.8,284.6 151.2,291.4 109.6,292.9 68.0,316.5" fill="#e6550d" fill-opacity="0.9" stroke="#fff" stroke-width="0.4"><title>control_flow_ssa — generateOutput (self)</title></polygon>
<polygon points="68.0,199.4 109.6,169.9 151.2,170.0 192.8,185.0 234.4,184.6 276.0,183.0 317.6,186.5 359.2,187.9 400.8,196.9 442.4,194.5 484.0,195.0 525.6,193.3 567.2,188.3 608.8,190.5 650.4,176.6 692.0,174.7 733.6,115.4 775.2,112.2 816.8,110.4 858.4,108.6 900.0,214.7 941.6,195.2 983.2,197.3 1024.8,198.0 1066.4,197.6 1108.0,199.7 1108.0,199.7 1066.4,197.8 1024.8,198.4 983.2,198.7 941.6,197.3 900.0,214.9 858.4,109.0 816.8,110.4 775.2,113.1 733.6,115.7 692.0,174.7 650.4,177.0 608.8,191.7 567.2,188.4 525.6,194.0 484.0,195.6 442.4,194.5 400.8,197.3 359.2,188.1 317.6,187.3 276.0,183.2 234.4,185.5 192.8,185.3 151.2,170.0 109.6,170.4 68.0,200.5" fill="#969696" fill-opacity="0.9" stroke="#fff" stroke-width="0.4"><title>control_flow_ssa — compileInner (self)</title></polygon>
<text x="12" y="578" fill="#666" font-weight="600">phase buckets</text>
<rect x="12" y="586" width="12" height="12" fill="#c7e9c0"/>
<text x="28" y="596" fill="#222">parseTranslationUnit</text>
<rect x="289" y="586" width="12" height="12" fill="#41ab5d"/>
<text x="305" y="596" fill="#222">SemanticChecking</text>
<rect x="566" y="586" width="12" height="12" fill="#006d2c"/>
<text x="582" y="596" fill="#222">generateIR</text>
<rect x="843" y="586" width="12" height="12" fill="#74c476"/>
<text x="859" y="596" fill="#222">frontEndExecute (self)</text>
<rect x="12" y="604" width="12" height="12" fill="#6baed6"/>
<text x="28" y="614" fill="#222">specializeModule</text>
<rect x="289" y="604" width="12" height="12" fill="#2171b5"/>
<text x="305" y="614" fill="#222">simplifyIR</text>
<rect x="566" y="604" width="12" height="12" fill="#08306b"/>
<text x="582" y="614" fill="#222">linkIR</text>
<rect x="843" y="604" width="12" height="12" fill="#9e9ac8"/>
<text x="859" y="614" fill="#222">unrollLoopsInModule</text>
<rect x="12" y="622" width="12" height="12" fill="#807dba"/>
<text x="28" y="632" fill="#222">legalizeResourceTypes</text>
<rect x="289" y="622" width="12" height="12" fill="#6a51a3"/>
<text x="305" y="632" fill="#222">legalizeExistentialTypeLayout</text>
<rect x="566" y="622" width="12" height="12" fill="#bcbddc"/>
<text x="582" y="632" fill="#222">performMandatoryEarlyInlining</text>
<rect x="843" y="622" width="12" height="12" fill="#dadaeb"/>
<text x="859" y="632" fill="#222">performForceInlining</text>
<rect x="12" y="640" width="12" height="12" fill="#4a1486"/>
<text x="28" y="650" fill="#222">linkAndOptimizeIR (self)</text>
<rect x="289" y="640" width="12" height="12" fill="#fd8d3c"/>
<text x="305" y="650" fill="#222">emitEntryPointsSourceFromIR</text>
<rect x="566" y="640" width="12" height="12" fill="#e6550d"/>
<text x="582" y="650" fill="#222">generateOutput (self)</text>
<rect x="843" y="640" width="12" height="12" fill="#969696"/>
<text x="859" y="650" fill="#222">compileInner (self)</text>
</svg>