<svg xmlns="http://www.w3.org/2000/svg" xmlns:xlink="http://www.w3.org/1999/xlink" width="1132" height="680" viewBox="0 0 1132 680" preserveAspectRatio="xMidYMid meet" font-family="sans-serif" font-size="13">
<rect width="1132" height="680" fill="white"/>
<text x="12" y="30" font-size="20" font-weight="bold">control_flow_ssa — Daily tip-of-tree (last 30 days) (median ms)</text>
<text x="68" y="60" font-size="15" font-weight="600" fill="#1a1a1a">control_flow_ssa<tspan fill="#888" font-weight="400" text-decoration="none">  0.80×</tspan></text>
<line x1="68.0" y1="516.0" x2="1108.0" y2="516.0" stroke="#eee"/>
<text x="64.0" y="519.0" text-anchor="end" fill="#999">0.0</text>
<line x1="68.0" y1="296.0" x2="1108.0" y2="296.0" stroke="#eee"/>
<text x="64.0" y="299.0" text-anchor="end" fill="#999">130</text>
<line x1="68.0" y1="76.0" x2="1108.0" y2="76.0" stroke="#eee"/>
<text x="64.0" y="79.0" text-anchor="end" fill="#999">260</text>
<line x1="68.0" y1="76.0" x2="68.0" y2="516.0" stroke="#333"/>
<line x1="68.0" y1="516.0" x2="1108.0" y2="516.0" stroke="#333"/>
<line x1="68.0" y1="516.0" x2="68.0" y2="519.0" stroke="#999"/>
<text x="68.0" y="531.0" text-anchor="end" fill="#e8731a" transform="rotate(-50 68.0 531.0)">06-25</text>
<line x1="120.0" y1="516.0" x2="120.0" y2="519.0" stroke="#999"/>
<text x="120.0" y="531.0" text-anchor="end" fill="#e8731a" transform="rotate(-50 120.0 531.0)">06-26</text>
<line x1="172.0" y1="516.0" x2="172.0" y2="519.0" stroke="#999"/>
<text x="172.0" y="531.0" text-anchor="end" fill="#e8731a" transform="rotate(-50 172.0 531.0)">06-28</text>
<line x1="224.0" y1="516.0" x2="224.0" y2="519.0" stroke="#999"/>
<text x="224.0" y="531.0" text-anchor="end" fill="#e8731a" transform="rotate(-50 224.0 531.0)">07-01</text>
<line x1="276.0" y1="516.0" x2="276.0" y2="519.0" stroke="#999"/>
<text x="276.0" y="531.0" text-anchor="end" fill="#e8731a" transform="rotate(-50 276.0 531.0)">07-02</text>
<line x1="328.0" y1="516.0" x2="328.0" y2="519.0" stroke="#999"/>
<text x="328.0" y="531.0" text-anchor="end" fill="#e8731a" transform="rotate(-50 328.0 531.0)">07-03</text>
<line x1="380.0" y1="516.0" x2="380.0" y2="519.0" stroke="#999"/>
<text x="380.0" y="531.0" text-anchor="end" fill="#e8731a" transform="rotate(-50 380.0 531.0)">07-06</text>
<line x1="432.0" y1="516.0" x2="432.0" y2="519.0" stroke="#999"/>
<text x="432.0" y="531.0" text-anchor="end" fill="#e8731a" transform="rotate(-50 432.0 531.0)">07-07</text>
<line x1="484.0" y1="516.0" x2="484.0" y2="519.0" stroke="#999"/>
<text x="484.0" y="531.0" text-anchor="end" fill="#e8731a" transform="rotate(-50 484.0 531.0)">07-08</text>
<line x1="536.0" y1="516.0" x2="536.0" y2="519.0" stroke="#999"/>
<text x="536.0" y="531.0" text-anchor="end" fill="#e8731a" transform="rotate(-50 536.0 531.0)">07-09</text>
<line x1="588.0" y1="516.0" x2="588.0" y2="519.0" stroke="#999"/>
<text x="588.0" y="531.0" text-anchor="end" fill="#e8731a" transform="rotate(-50 588.0 531.0)">07-10</text>
<line x1="640.0" y1="516.0" x2="640.0" y2="519.0" stroke="#999"/>
<text x="640.0" y="531.0" text-anchor="end" fill="#e8731a" transform="rotate(-50 640.0 531.0)">07-11</text>
<line x1="692.0" y1="516.0" x2="692.0" y2="519.0" stroke="#999"/>
<text x="692.0" y="531.0" text-anchor="end" fill="#e8731a" transform="rotate(-50 692.0 531.0)">07-14</text>
<line x1="744.0" y1="516.0" x2="744.0" y2="519.0" stroke="#999"/>
<text x="744.0" y="531.0" text-anchor="end" fill="#e8731a" transform="rotate(-50 744.0 531.0)">07-15</text>
<line x1="796.0" y1="516.0" x2="796.0" y2="519.0" stroke="#999"/>
<text x="796.0" y="531.0" text-anchor="end" fill="#e8731a" transform="rotate(-50 796.0 531.0)">07-15</text>
<line x1="848.0" y1="516.0" x2="848.0" y2="519.0" stroke="#999"/>
<text x="848.0" y="531.0" text-anchor="end" fill="#e8731a" transform="rotate(-50 848.0 531.0)">07-16</text>
<line x1="900.0" y1="516.0" x2="900.0" y2="519.0" stroke="#999"/>
<text x="900.0" y="531.0" text-anchor="end" fill="#e8731a" transform="rotate(-50 900.0 531.0)">07-17</text>
<line x1="952.0" y1="516.0" x2="952.0" y2="519.0" stroke="#999"/>
<text x="952.0" y="531.0" text-anchor="end" fill="#e8731a" transform="rotate(-50 952.0 531.0)">07-18</text>
<line x1="1004.0" y1="516.0" x2="1004.0" y2="519.0" stroke="#999"/>
<text x="1004.0" y="531.0" text-anchor="end" fill="#e8731a" transform="rotate(-50 1004.0 531.0)">07-19</text>
<line x1="1056.0" y1="516.0" x2="1056.0" y2="519.0" stroke="#999"/>
<text x="1056.0" y="531.0" text-anchor="end" fill="#e8731a" transform="rotate(-50 1056.0 531.0)">07-20</text>
<line x1="1108.0" y1="516.0" x2="1108.0" y2="519.0" stroke="#999"/>
<text x="1108.0" y="531.0" text-anchor="end" fill="#e8731a" transform="rotate(-50 1108.0 531.0)">07-21</text>
<polygon points="68.0,513.7 120.0,513.7 172.0,513.6 224.0,513.7 276.0,513.7 328.0,513.7 380.0,513.6 432.0,514.0 484.0,514.1 536.0,514.0 588.0,514.0 640.0,513.9 692.0,514.1 744.0,514.1 796.0,514.1 848.0,514.2 900.0,514.1 952.0,514.1 1004.0,514.2 1056.0,514.2 1108.0,514.2 1108.0,516.0 1056.0,516.0 1004.0,516.0 952.0,516.0 900.0,516.0 848.0,516.0 796.0,516.0 744.0,516.0 692.0,516.0 640.0,516.0 588.0,516.0 536.0,516.0 484.0,516.0 432.0,516.0 380.0,516.0 328.0,516.0 276.0,516.0 224.0,516.0 172.0,516.0 120.0,516.0 68.0,516.0" fill="#c7e9c0" fill-opacity="0.9" stroke="#fff" stroke-width="0.4"><title>control_flow_ssa — parseTranslationUnit</title></polygon>
<polygon points="68.0,467.1 120.0,466.6 172.0,467.0 224.0,467.2 276.0,467.6 328.0,468.0 380.0,466.5 432.0,470.2 484.0,469.0 536.0,469.6 588.0,469.0 640.0,467.7 692.0,468.9 744.0,470.8 796.0,471.0 848.0,462.9 900.0,462.4 952.0,466.6 1004.0,465.7 1056.0,465.4 1108.0,465.2 1108.0,514.2 1056.0,514.2 1004.0,514.2 952.0,514.1 900.0,514.1 848.0,514.2 796.0,514.1 744.0,514.1 692.0,514.1 640.0,513.9 588.0,514.0 536.0,514.0 484.0,514.1 432.0,514.0 380.0,513.6 328.0,513.7 276.0,513.7 224.0,513.7 172.0,513.6 120.0,513.7 68.0,513.7" fill="#41ab5d" fill-opacity="0.9" stroke="#fff" stroke-width="0.4"><title>control_flow_ssa — SemanticChecking</title></polygon>
<polygon points="68.0,428.1 120.0,427.2 172.0,427.8 224.0,427.3 276.0,428.1 328.0,428.6 380.0,427.4 432.0,430.7 484.0,428.7 536.0,429.7 588.0,428.9 640.0,427.3 692.0,429.6 744.0,434.4 796.0,434.3 848.0,426.6 900.0,426.1 952.0,433.9 1004.0,432.7 1056.0,431.9 1108.0,432.0 1108.0,465.2 1056.0,465.4 1004.0,465.7 952.0,466.6 900.0,462.4 848.0,462.9 796.0,471.0 744.0,470.8 692.0,468.9 640.0,467.7 588.0,469.0 536.0,469.6 484.0,469.0 432.0,470.2 380.0,466.5 328.0,468.0 276.0,467.6 224.0,467.2 172.0,467.0 120.0,466.6 68.0,467.1" fill="#006d2c" fill-opacity="0.9" stroke="#fff" stroke-width="0.4"><title>control_flow_ssa — generateIR</title></polygon>
<polygon points="68.0,427.5 120.0,426.6 172.0,427.1 224.0,426.0 276.0,426.5 328.0,427.6 380.0,426.2 432.0,429.7 484.0,428.1 536.0,429.3 588.0,428.9 640.0,426.7 692.0,428.7 744.0,432.1 796.0,433.6 848.0,426.0 900.0,424.9 952.0,433.4 1004.0,432.3 1056.0,431.9 1108.0,431.4 1108.0,432.0 1056.0,431.9 1004.0,432.7 952.0,433.9 900.0,426.1 848.0,426.6 796.0,434.3 744.0,434.4 692.0,429.6 640.0,427.3 588.0,428.9 536.0,429.7 484.0,428.7 432.0,430.7 380.0,427.4 328.0,428.6 276.0,428.1 224.0,427.3 172.0,427.8 120.0,427.2 68.0,428.1" fill="#74c476" fill-opacity="0.9" stroke="#fff" stroke-width="0.4"><title>control_flow_ssa — frontEndExecute (self)</title></polygon>
<polygon points="68.0,407.6 120.0,406.5 172.0,407.0 224.0,405.8 276.0,406.3 328.0,407.3 380.0,406.1 432.0,420.7 484.0,419.1 536.0,420.2 588.0,420.0 640.0,417.7 692.0,419.8 744.0,423.4 796.0,424.9 848.0,417.6 900.0,416.3 952.0,425.5 1004.0,424.3 1056.0,424.0 1108.0,423.6 1108.0,431.4 1056.0,431.9 1004.0,432.3 952.0,433.4 900.0,424.9 848.0,426.0 796.0,433.6 744.0,432.1 692.0,428.7 640.0,426.7 588.0,428.9 536.0,429.3 484.0,428.1 432.0,429.7 380.0,426.2 328.0,427.6 276.0,426.5 224.0,426.0 172.0,427.1 120.0,426.6 68.0,427.5" fill="#6baed6" fill-opacity="0.9" stroke="#fff" stroke-width="0.4"><title>control_flow_ssa — specializeModule</title></polygon>
<polygon points="68.0,344.9 120.0,344.1 172.0,344.3 224.0,344.1 276.0,343.6 328.0,343.2 380.0,344.2 432.0,375.2 484.0,374.2 536.0,375.0 588.0,375.5 640.0,370.8 692.0,374.1 744.0,379.8 796.0,380.5 848.0,374.7 900.0,372.4 952.0,387.7 1004.0,386.4 1056.0,386.0 1108.0,385.8 1108.0,423.6 1056.0,424.0 1004.0,424.3 952.0,425.5 900.0,416.3 848.0,417.6 796.0,424.9 744.0,423.4 692.0,419.8 640.0,417.7 588.0,420.0 536.0,420.2 484.0,419.1 432.0,420.7 380.0,406.1 328.0,407.3 276.0,406.3 224.0,405.8 172.0,407.0 120.0,406.5 68.0,407.6" fill="#2171b5" fill-opacity="0.9" stroke="#fff" stroke-width="0.4"><title>control_flow_ssa — simplifyIR</title></polygon>
<polygon points="68.0,341.7 120.0,340.7 172.0,341.0 224.0,340.8 276.0,340.3 328.0,340.0 380.0,341.1 432.0,372.3 484.0,371.4 536.0,372.1 588.0,372.6 640.0,367.9 692.0,371.3 744.0,376.8 796.0,377.7 848.0,371.9 900.0,369.6 952.0,385.4 1004.0,384.0 1056.0,383.6 1108.0,383.3 1108.0,385.8 1056.0,386.0 1004.0,386.4 952.0,387.7 900.0,372.4 848.0,374.7 796.0,380.5 744.0,379.8 692.0,374.1 640.0,370.8 588.0,375.5 536.0,375.0 484.0,374.2 432.0,375.2 380.0,344.2 328.0,343.2 276.0,343.6 224.0,344.1 172.0,344.3 120.0,344.1 68.0,344.9" fill="#08306b" fill-opacity="0.9" stroke="#fff" stroke-width="0.4"><title>control_flow_ssa — linkIR</title></polygon>
<polygon points="68.0,341.4 120.0,340.5 172.0,340.8 224.0,340.6 276.0,340.1 328.0,339.7 380.0,340.9 432.0,372.1 484.0,371.2 536.0,371.8 588.0,372.4 640.0,367.7 692.0,371.1 744.0,376.6 796.0,377.5 848.0,371.7 900.0,369.4 952.0,385.2 1004.0,383.8 1056.0,383.4 1108.0,383.1 1108.0,383.3 1056.0,383.6 1004.0,384.0 952.0,385.4 900.0,369.6 848.0,371.9 796.0,377.7 744.0,376.8 692.0,371.3 640.0,367.9 588.0,372.6 536.0,372.1 484.0,371.4 432.0,372.3 380.0,341.1 328.0,340.0 276.0,340.3 224.0,340.8 172.0,341.0 120.0,340.7 68.0,341.7" fill="#9e9ac8" fill-opacity="0.9" stroke="#fff" stroke-width="0.4"><title>control_flow_ssa — unrollLoopsInModule</title></polygon>
<polygon points="68.0,336.2 120.0,335.1 172.0,335.5 224.0,335.3 276.0,334.8 328.0,334.4 380.0,335.6 432.0,367.8 484.0,366.8 536.0,367.4 588.0,369.8 640.0,365.0 692.0,368.5 744.0,374.0 796.0,375.0 848.0,369.1 900.0,366.7 952.0,382.6 1004.0,381.2 1056.0,380.8 1108.0,380.5 1108.0,383.1 1056.0,383.4 1004.0,383.8 952.0,385.2 900.0,369.4 848.0,371.7 796.0,377.5 744.0,376.6 692.0,371.1 640.0,367.7 588.0,372.4 536.0,371.8 484.0,371.2 432.0,372.1 380.0,340.9 328.0,339.7 276.0,340.1 224.0,340.6 172.0,340.8 120.0,340.5 68.0,341.4" fill="#807dba" fill-opacity="0.9" stroke="#fff" stroke-width="0.4"><title>control_flow_ssa — legalizeResourceTypes</title></polygon>
<polygon points="68.0,330.7 120.0,329.5 172.0,329.9 224.0,329.8 276.0,329.3 328.0,328.9 380.0,330.2 432.0,363.2 484.0,362.4 536.0,362.9 588.0,367.1 640.0,362.2 692.0,365.8 744.0,371.1 796.0,372.2 848.0,366.3 900.0,363.7 952.0,380.0 1004.0,378.4 1056.0,378.0 1108.0,377.8 1108.0,380.5 1056.0,380.8 1004.0,381.2 952.0,382.6 900.0,366.7 848.0,369.1 796.0,375.0 744.0,374.0 692.0,368.5 640.0,365.0 588.0,369.8 536.0,367.4 484.0,366.8 432.0,367.8 380.0,335.6 328.0,334.4 276.0,334.8 224.0,335.3 172.0,335.5 120.0,335.1 68.0,336.2" fill="#6a51a3" fill-opacity="0.9" stroke="#fff" stroke-width="0.4"><title>control_flow_ssa — legalizeExistentialTypeLayout</title></polygon>
<polygon points="68.0,324.4 120.0,323.2 172.0,323.5 224.0,323.5 276.0,323.0 328.0,322.6 380.0,323.8 432.0,357.0 484.0,356.0 536.0,356.5 588.0,360.7 640.0,355.9 692.0,359.6 744.0,365.2 796.0,366.2 848.0,360.3 900.0,357.8 952.0,374.7 1004.0,373.1 1056.0,372.8 1108.0,372.5 1108.0,377.8 1056.0,378.0 1004.0,378.4 952.0,380.0 900.0,363.7 848.0,366.3 796.0,372.2 744.0,371.1 692.0,365.8 640.0,362.2 588.0,367.1 536.0,362.9 484.0,362.4 432.0,363.2 380.0,330.2 328.0,328.9 276.0,329.3 224.0,329.8 172.0,329.9 120.0,329.5 68.0,330.7" fill="#bcbddc" fill-opacity="0.9" stroke="#fff" stroke-width="0.4"><title>control_flow_ssa — performMandatoryEarlyInlining</title></polygon>
<polygon points="68.0,323.6 120.0,322.5 172.0,322.7 224.0,322.7 276.0,322.2 328.0,321.8 380.0,323.0 432.0,356.2 484.0,355.3 536.0,355.7 588.0,360.0 640.0,355.2 692.0,358.9 744.0,364.4 796.0,365.5 848.0,359.6 900.0,357.0 952.0,374.1 1004.0,372.5 1056.0,372.2 1108.0,372.0 1108.0,372.5 1056.0,372.8 1004.0,373.1 952.0,374.7 900.0,357.8 848.0,360.3 796.0,366.2 744.0,365.2 692.0,359.6 640.0,355.9 588.0,360.7 536.0,356.5 484.0,356.0 432.0,357.0 380.0,323.8 328.0,322.6 276.0,323.0 224.0,323.5 172.0,323.5 120.0,323.2 68.0,324.4" fill="#dadaeb" fill-opacity="0.9" stroke="#fff" stroke-width="0.4"><title>control_flow_ssa — performForceInlining</title></polygon>
<polygon points="68.0,246.9 120.0,245.0 172.0,246.9 224.0,244.3 276.0,247.6 328.0,244.8 380.0,247.7 432.0,281.1 484.0,282.0 536.0,281.6 588.0,288.2 640.0,274.1 692.0,287.0 744.0,301.2 796.0,302.6 848.0,297.0 900.0,292.8 952.0,313.8 1004.0,311.0 1056.0,308.9 1108.0,311.7 1108.0,372.0 1056.0,372.2 1004.0,372.5 952.0,374.1 900.0,357.0 848.0,359.6 796.0,365.5 744.0,364.4 692.0,358.9 640.0,355.2 588.0,360.0 536.0,355.7 484.0,355.3 432.0,356.2 380.0,323.0 328.0,321.8 276.0,322.2 224.0,322.7 172.0,322.7 120.0,322.5 68.0,323.6" fill="#4a1486" fill-opacity="0.9" stroke="#fff" stroke-width="0.4"><title>control_flow_ssa — linkAndOptimizeIR (self)</title></polygon>
<polygon points="68.0,111.1 120.0,108.6 172.0,110.5 224.0,110.8 276.0,115.0 328.0,111.2 380.0,113.2 432.0,146.4 484.0,148.6 536.0,150.8 588.0,157.4 640.0,145.6 692.0,157.6 744.0,180.3 796.0,180.9 848.0,175.6 900.0,172.2 952.0,195.6 1004.0,189.8 1056.0,191.3 1108.0,192.2 1108.0,311.7 1056.0,308.9 1004.0,311.0 952.0,313.8 900.0,292.8 848.0,297.0 796.0,302.6 744.0,301.2 692.0,287.0 640.0,274.1 588.0,288.2 536.0,281.6 484.0,282.0 432.0,281.1 380.0,247.7 328.0,244.8 276.0,247.6 224.0,244.3 172.0,246.9 120.0,245.0 68.0,246.9" fill="#e6550d" fill-opacity="0.9" stroke="#fff" stroke-width="0.4"><title>control_flow_ssa — generateOutput (self)</title></polygon>
<polygon points="68.0,111.1 120.0,108.6 172.0,109.7 224.0,110.8 276.0,115.0 328.0,110.8 380.0,112.1 432.0,145.0 484.0,148.4 536.0,150.8 588.0,156.0 640.0,145.6 692.0,157.6 744.0,180.3 796.0,180.9 848.0,174.6 900.0,172.2 952.0,194.1 1004.0,188.0 1056.0,191.1 1108.0,191.9 1108.0,192.2 1056.0,191.3 1004.0,189.8 952.0,195.6 900.0,172.2 848.0,175.6 796.0,180.9 744.0,180.3 692.0,157.6 640.0,145.6 588.0,157.4 536.0,150.8 484.0,148.6 432.0,146.4 380.0,113.2 328.0,111.2 276.0,115.0 224.0,110.8 172.0,110.5 120.0,108.6 68.0,111.1" fill="#969696" fill-opacity="0.9" stroke="#fff" stroke-width="0.4"><title>control_flow_ssa — compileInner (self)</title></polygon>
<text x="12" y="578" fill="#666" font-weight="600">phase buckets</text>
<rect x="12" y="586" width="12" height="12" fill="#c7e9c0"/>
<text x="28" y="596" fill="#222">parseTranslationUnit</text>
<rect x="289" y="586" width="12" height="12" fill="#41ab5d"/>
<text x="305" y="596" fill="#222">SemanticChecking</text>
<rect x="566" y="586" width="12" height="12" fill="#006d2c"/>
<text x="582" y="596" fill="#222">generateIR</text>
<rect x="843" y="586" width="12" height="12" fill="#74c476"/>
<text x="859" y="596" fill="#222">frontEndExecute (self)</text>
<rect x="12" y="604" width="12" height="12" fill="#6baed6"/>
<text x="28" y="614" fill="#222">specializeModule</text>
<rect x="289" y="604" width="12" height="12" fill="#2171b5"/>
<text x="305" y="614" fill="#222">simplifyIR</text>
<rect x="566" y="604" width="12" height="12" fill="#08306b"/>
<text x="582" y="614" fill="#222">linkIR</text>
<rect x="843" y="604" width="12" height="12" fill="#9e9ac8"/>
<text x="859" y="614" fill="#222">unrollLoopsInModule</text>
<rect x="12" y="622" width="12" height="12" fill="#807dba"/>
<text x="28" y="632" fill="#222">legalizeResourceTypes</text>
<rect x="289" y="622" width="12" height="12" fill="#6a51a3"/>
<text x="305" y="632" fill="#222">legalizeExistentialTypeLayout</text>
<rect x="566" y="622" width="12" height="12" fill="#bcbddc"/>
<text x="582" y="632" fill="#222">performMandatoryEarlyInlining</text>
<rect x="843" y="622" width="12" height="12" fill="#dadaeb"/>
<text x="859" y="632" fill="#222">performForceInlining</text>
<rect x="12" y="640" width="12" height="12" fill="#4a1486"/>
<text x="28" y="650" fill="#222">linkAndOptimizeIR (self)</text>
<rect x="289" y="640" width="12" height="12" fill="#fd8d3c"/>
<text x="305" y="650" fill="#222">emitEntryPointsSourceFromIR</text>
<rect x="566" y="640" width="12" height="12" fill="#e6550d"/>
<text x="582" y="650" fill="#222">generateOutput (self)</text>
<rect x="843" y="640" width="12" height="12" fill="#969696"/>
<text x="859" y="650" fill="#222">compileInner (self)</text>
</svg>