<svg xmlns="http://www.w3.org/2000/svg" xmlns:xlink="http://www.w3.org/1999/xlink" width="1132" height="680" viewBox="0 0 1132 680" preserveAspectRatio="xMidYMid meet" font-family="sans-serif" font-size="13">
<rect width="1132" height="680" fill="white"/>
<text x="12" y="30" font-size="20" font-weight="bold">control_flow_ssa — full phase breakdown across releases (median ms)</text>
<text x="68" y="60" font-size="15" font-weight="600" fill="#1a1a1a">control_flow_ssa<tspan fill="#888" font-weight="400" text-decoration="none">  1.01×</tspan></text>
<line x1="68.0" y1="516.0" x2="1108.0" y2="516.0" stroke="#eee"/>
<text x="64.0" y="519.0" text-anchor="end" fill="#999">0.0</text>
<line x1="68.0" y1="296.0" x2="1108.0" y2="296.0" stroke="#eee"/>
<text x="64.0" y="299.0" text-anchor="end" fill="#999">161</text>
<line x1="68.0" y1="76.0" x2="1108.0" y2="76.0" stroke="#eee"/>
<text x="64.0" y="79.0" text-anchor="end" fill="#999">323</text>
<line x1="68.0" y1="76.0" x2="68.0" y2="516.0" stroke="#333"/>
<line x1="68.0" y1="516.0" x2="1108.0" y2="516.0" stroke="#333"/>
<line x1="956.3" y1="76.0" x2="956.3" y2="516.0" stroke="#e8731a" stroke-width="1.2" stroke-dasharray="4 3"/>
<text x="959.3" y="87.0" fill="#e8731a" font-size="11">daily →</text>
<line x1="68.0" y1="516.0" x2="68.0" y2="519.0" stroke="#999"/>
<text x="68.0" y="531.0" text-anchor="end" fill="#666" transform="rotate(-50 68.0 531.0)">25.14</text>
<line x1="111.3" y1="516.0" x2="111.3" y2="519.0" stroke="#999"/>
<text x="111.3" y="531.0" text-anchor="end" fill="#666" transform="rotate(-50 111.3 531.0)">25.15</text>
<line x1="154.7" y1="516.0" x2="154.7" y2="519.0" stroke="#999"/>
<text x="154.7" y="531.0" text-anchor="end" fill="#666" transform="rotate(-50 154.7 531.0)">25.16</text>
<line x1="198.0" y1="516.0" x2="198.0" y2="519.0" stroke="#999"/>
<text x="198.0" y="531.0" text-anchor="end" fill="#666" transform="rotate(-50 198.0 531.0)">25.17</text>
<line x1="241.3" y1="516.0" x2="241.3" y2="519.0" stroke="#999"/>
<text x="241.3" y="531.0" text-anchor="end" fill="#666" transform="rotate(-50 241.3 531.0)">25.18</text>
<line x1="284.7" y1="516.0" x2="284.7" y2="519.0" stroke="#999"/>
<text x="284.7" y="531.0" text-anchor="end" fill="#666" transform="rotate(-50 284.7 531.0)">25.19</text>
<line x1="328.0" y1="516.0" x2="328.0" y2="519.0" stroke="#999"/>
<text x="328.0" y="531.0" text-anchor="end" fill="#666" transform="rotate(-50 328.0 531.0)">25.20</text>
<line x1="371.3" y1="516.0" x2="371.3" y2="519.0" stroke="#999"/>
<text x="371.3" y="531.0" text-anchor="end" fill="#666" transform="rotate(-50 371.3 531.0)">25.21</text>
<line x1="414.7" y1="516.0" x2="414.7" y2="519.0" stroke="#999"/>
<text x="414.7" y="531.0" text-anchor="end" fill="#666" transform="rotate(-50 414.7 531.0)">25.22</text>
<line x1="458.0" y1="516.0" x2="458.0" y2="519.0" stroke="#999"/>
<text x="458.0" y="531.0" text-anchor="end" fill="#666" transform="rotate(-50 458.0 531.0)">25.23</text>
<line x1="501.3" y1="516.0" x2="501.3" y2="519.0" stroke="#999"/>
<text x="501.3" y="531.0" text-anchor="end" fill="#666" transform="rotate(-50 501.3 531.0)">25.24</text>
<line x1="544.7" y1="516.0" x2="544.7" y2="519.0" stroke="#999"/>
<text x="544.7" y="531.0" text-anchor="end" fill="#666" transform="rotate(-50 544.7 531.0)">26.1</text>
<line x1="588.0" y1="516.0" x2="588.0" y2="519.0" stroke="#999"/>
<text x="588.0" y="531.0" text-anchor="end" fill="#666" transform="rotate(-50 588.0 531.0)">26.2</text>
<line x1="631.3" y1="516.0" x2="631.3" y2="519.0" stroke="#999"/>
<text x="631.3" y="531.0" text-anchor="end" fill="#666" transform="rotate(-50 631.3 531.0)">26.3</text>
<line x1="674.7" y1="516.0" x2="674.7" y2="519.0" stroke="#999"/>
<text x="674.7" y="531.0" text-anchor="end" fill="#666" transform="rotate(-50 674.7 531.0)">26.4</text>
<line x1="718.0" y1="516.0" x2="718.0" y2="519.0" stroke="#999"/>
<text x="718.0" y="531.0" text-anchor="end" fill="#666" transform="rotate(-50 718.0 531.0)">26.5</text>
<line x1="761.3" y1="516.0" x2="761.3" y2="519.0" stroke="#999"/>
<text x="761.3" y="531.0" text-anchor="end" fill="#666" transform="rotate(-50 761.3 531.0)">26.7</text>
<line x1="804.7" y1="516.0" x2="804.7" y2="519.0" stroke="#999"/>
<text x="804.7" y="531.0" text-anchor="end" fill="#666" transform="rotate(-50 804.7 531.0)">26.8</text>
<line x1="848.0" y1="516.0" x2="848.0" y2="519.0" stroke="#999"/>
<text x="848.0" y="531.0" text-anchor="end" fill="#666" transform="rotate(-50 848.0 531.0)">26.9</text>
<line x1="891.3" y1="516.0" x2="891.3" y2="519.0" stroke="#999"/>
<text x="891.3" y="531.0" text-anchor="end" fill="#666" transform="rotate(-50 891.3 531.0)">26.10</text>
<line x1="934.7" y1="516.0" x2="934.7" y2="519.0" stroke="#999"/>
<text x="934.7" y="531.0" text-anchor="end" fill="#666" transform="rotate(-50 934.7 531.0)">26.11</text>
<line x1="978.0" y1="516.0" x2="978.0" y2="519.0" stroke="#999"/>
<text x="978.0" y="531.0" text-anchor="end" fill="#e8731a" transform="rotate(-50 978.0 531.0)">06-25</text>
<line x1="1021.3" y1="516.0" x2="1021.3" y2="519.0" stroke="#999"/>
<text x="1021.3" y="531.0" text-anchor="end" fill="#e8731a" transform="rotate(-50 1021.3 531.0)">06-26</text>
<line x1="1064.7" y1="516.0" x2="1064.7" y2="519.0" stroke="#999"/>
<text x="1064.7" y="531.0" text-anchor="end" fill="#e8731a" transform="rotate(-50 1064.7 531.0)">06-28</text>
<line x1="1108.0" y1="516.0" x2="1108.0" y2="519.0" stroke="#999"/>
<text x="1108.0" y="531.0" text-anchor="end" fill="#e8731a" transform="rotate(-50 1108.0 531.0)">07-01</text>
<polygon points="68.0,514.2 111.3,514.4 154.7,514.3 198.0,514.4 241.3,514.4 284.7,514.4 328.0,514.4 371.3,514.4 414.7,514.4 458.0,514.4 501.3,514.4 544.7,514.4 588.0,514.4 631.3,514.3 674.7,514.3 718.0,514.3 761.3,514.3 804.7,514.3 848.0,514.3 891.3,514.2 934.7,514.3 978.0,514.2 1021.3,514.2 1064.7,514.2 1108.0,514.2 1108.0,516.0 1064.7,516.0 1021.3,516.0 978.0,516.0 934.7,516.0 891.3,516.0 848.0,516.0 804.7,516.0 761.3,516.0 718.0,516.0 674.7,516.0 631.3,516.0 588.0,516.0 544.7,516.0 501.3,516.0 458.0,516.0 414.7,516.0 371.3,516.0 328.0,516.0 284.7,516.0 241.3,516.0 198.0,516.0 154.7,516.0 111.3,516.0 68.0,516.0" fill="#c7e9c0" fill-opacity="0.9" stroke="#fff" stroke-width="0.4"><title>control_flow_ssa — parseTranslationUnit</title></polygon>
<polygon points="68.0,452.5 111.3,434.5 154.7,433.1 198.0,431.6 241.3,432.0 284.7,432.2 328.0,431.5 371.3,432.3 414.7,440.7 458.0,439.2 501.3,439.6 544.7,438.7 588.0,436.1 631.3,436.6 674.7,433.7 718.0,431.4 761.3,414.0 804.7,413.4 848.0,412.1 891.3,409.1 934.7,480.0 978.0,477.9 1021.3,478.0 1064.7,478.2 1108.0,477.7 1108.0,514.2 1064.7,514.2 1021.3,514.2 978.0,514.2 934.7,514.3 891.3,514.2 848.0,514.3 804.7,514.3 761.3,514.3 718.0,514.3 674.7,514.3 631.3,514.3 588.0,514.4 544.7,514.4 501.3,514.4 458.0,514.4 414.7,514.4 371.3,514.4 328.0,514.4 284.7,514.4 241.3,514.4 198.0,514.4 154.7,514.3 111.3,514.4 68.0,514.2" fill="#41ab5d" fill-opacity="0.9" stroke="#fff" stroke-width="0.4"><title>control_flow_ssa — SemanticChecking</title></polygon>
<polygon points="68.0,422.5 111.3,404.8 154.7,403.2 198.0,400.6 241.3,401.1 284.7,401.4 328.0,400.9 371.3,401.6 414.7,410.1 458.0,408.5 501.3,409.3 544.7,407.3 588.0,405.2 631.3,405.6 674.7,401.3 718.0,399.2 761.3,370.9 804.7,369.9 848.0,368.4 891.3,365.1 934.7,451.5 978.0,447.7 1021.3,447.9 1064.7,447.8 1108.0,447.1 1108.0,477.7 1064.7,478.2 1021.3,478.0 978.0,477.9 934.7,480.0 891.3,409.1 848.0,412.1 804.7,413.4 761.3,414.0 718.0,431.4 674.7,433.7 631.3,436.6 588.0,436.1 544.7,438.7 501.3,439.6 458.0,439.2 414.7,440.7 371.3,432.3 328.0,431.5 284.7,432.2 241.3,432.0 198.0,431.6 154.7,433.1 111.3,434.5 68.0,452.5" fill="#006d2c" fill-opacity="0.9" stroke="#fff" stroke-width="0.4"><title>control_flow_ssa — generateIR</title></polygon>
<polygon points="68.0,422.2 111.3,404.7 154.7,403.0 198.0,400.3 241.3,400.6 284.7,401.2 328.0,400.6 371.3,400.8 414.7,409.8 458.0,408.2 501.3,408.8 544.7,406.9 588.0,404.8 631.3,405.2 674.7,400.5 718.0,399.1 761.3,370.5 804.7,369.5 848.0,368.0 891.3,364.7 934.7,451.1 978.0,447.6 1021.3,447.4 1064.7,447.4 1108.0,446.6 1108.0,447.1 1064.7,447.8 1021.3,447.9 978.0,447.7 934.7,451.5 891.3,365.1 848.0,368.4 804.7,369.9 761.3,370.9 718.0,399.2 674.7,401.3 631.3,405.6 588.0,405.2 544.7,407.3 501.3,409.3 458.0,408.5 414.7,410.1 371.3,401.6 328.0,400.9 284.7,401.4 241.3,401.1 198.0,400.6 154.7,403.2 111.3,404.8 68.0,422.5" fill="#74c476" fill-opacity="0.9" stroke="#fff" stroke-width="0.4"><title>control_flow_ssa — frontEndExecute (self)</title></polygon>
<polygon points="68.0,418.1 111.3,400.6 154.7,398.9 198.0,396.1 241.3,396.4 284.7,396.6 328.0,396.1 371.3,396.3 414.7,405.3 458.0,403.7 501.3,400.7 544.7,398.9 588.0,396.8 631.3,397.2 674.7,392.3 718.0,390.9 761.3,354.3 804.7,353.7 848.0,352.1 891.3,348.8 934.7,437.4 978.0,431.8 1021.3,431.6 1064.7,431.7 1108.0,430.9 1108.0,446.6 1064.7,447.4 1021.3,447.4 978.0,447.6 934.7,451.1 891.3,364.7 848.0,368.0 804.7,369.5 761.3,370.5 718.0,399.1 674.7,400.5 631.3,405.2 588.0,404.8 544.7,406.9 501.3,408.8 458.0,408.2 414.7,409.8 371.3,400.8 328.0,400.6 284.7,401.2 241.3,400.6 198.0,400.3 154.7,403.0 111.3,404.7 68.0,422.2" fill="#6baed6" fill-opacity="0.9" stroke="#fff" stroke-width="0.4"><title>control_flow_ssa — specializeModule</title></polygon>
<polygon points="68.0,380.3 111.3,362.5 154.7,360.5 198.0,357.1 241.3,358.2 284.7,358.0 328.0,357.2 371.3,358.1 414.7,367.1 458.0,364.7 501.3,366.1 544.7,364.1 588.0,361.4 631.3,361.7 674.7,355.1 718.0,354.4 761.3,304.2 804.7,302.9 848.0,301.4 891.3,298.9 934.7,391.3 978.0,381.9 1021.3,382.1 1064.7,382.2 1108.0,381.5 1108.0,430.9 1064.7,431.7 1021.3,431.6 978.0,431.8 934.7,437.4 891.3,348.8 848.0,352.1 804.7,353.7 761.3,354.3 718.0,390.9 674.7,392.3 631.3,397.2 588.0,396.8 544.7,398.9 501.3,400.7 458.0,403.7 414.7,405.3 371.3,396.3 328.0,396.1 284.7,396.6 241.3,396.4 198.0,396.1 154.7,398.9 111.3,400.6 68.0,418.1" fill="#2171b5" fill-opacity="0.9" stroke="#fff" stroke-width="0.4"><title>control_flow_ssa — simplifyIR</title></polygon>
<polygon points="68.0,377.2 111.3,359.9 154.7,358.0 198.0,354.3 241.3,355.4 284.7,355.2 328.0,354.3 371.3,355.2 414.7,364.4 458.0,361.9 501.3,363.4 544.7,361.5 588.0,358.6 631.3,359.0 674.7,351.8 718.0,350.4 761.3,290.7 804.7,289.1 848.0,287.7 891.3,285.1 934.7,388.9 978.0,379.4 1021.3,379.6 1064.7,379.9 1108.0,379.0 1108.0,381.5 1064.7,382.2 1021.3,382.1 978.0,381.9 934.7,391.3 891.3,298.9 848.0,301.4 804.7,302.9 761.3,304.2 718.0,354.4 674.7,355.1 631.3,361.7 588.0,361.4 544.7,364.1 501.3,366.1 458.0,364.7 414.7,367.1 371.3,358.1 328.0,357.2 284.7,358.0 241.3,358.2 198.0,357.1 154.7,360.5 111.3,362.5 68.0,380.3" fill="#08306b" fill-opacity="0.9" stroke="#fff" stroke-width="0.4"><title>control_flow_ssa — linkIR</title></polygon>
<polygon points="68.0,377.0 111.3,359.7 154.7,357.8 198.0,354.1 241.3,355.2 284.7,355.1 328.0,354.1 371.3,355.1 414.7,364.2 458.0,361.7 501.3,363.2 544.7,361.3 588.0,358.4 631.3,358.7 674.7,351.6 718.0,350.2 761.3,290.5 804.7,288.9 848.0,287.5 891.3,284.9 934.7,388.7 978.0,379.2 1021.3,379.5 1064.7,379.7 1108.0,378.9 1108.0,379.0 1064.7,379.9 1021.3,379.6 978.0,379.4 934.7,388.9 891.3,285.1 848.0,287.7 804.7,289.1 761.3,290.7 718.0,350.4 674.7,351.8 631.3,359.0 588.0,358.6 544.7,361.5 501.3,363.4 458.0,361.9 414.7,364.4 371.3,355.2 328.0,354.3 284.7,355.2 241.3,355.4 198.0,354.3 154.7,358.0 111.3,359.9 68.0,377.2" fill="#9e9ac8" fill-opacity="0.9" stroke="#fff" stroke-width="0.4"><title>control_flow_ssa — unrollLoopsInModule</title></polygon>
<polygon points="68.0,371.2 111.3,353.8 154.7,351.8 198.0,348.2 241.3,352.0 284.7,351.8 328.0,350.9 371.3,351.7 414.7,360.9 458.0,358.4 501.3,359.9 544.7,358.0 588.0,355.2 631.3,355.5 674.7,348.2 718.0,346.8 761.3,287.1 804.7,285.1 848.0,283.8 891.3,281.3 934.7,384.6 978.0,375.0 1021.3,375.2 1064.7,375.5 1108.0,374.6 1108.0,378.9 1064.7,379.7 1021.3,379.5 978.0,379.2 934.7,388.7 891.3,284.9 848.0,287.5 804.7,288.9 761.3,290.5 718.0,350.2 674.7,351.6 631.3,358.7 588.0,358.4 544.7,361.3 501.3,363.2 458.0,361.7 414.7,364.2 371.3,355.1 328.0,354.1 284.7,355.1 241.3,355.2 198.0,354.1 154.7,357.8 111.3,359.7 68.0,377.0" fill="#807dba" fill-opacity="0.9" stroke="#fff" stroke-width="0.4"><title>control_flow_ssa — legalizeResourceTypes</title></polygon>
<polygon points="68.0,365.1 111.3,347.7 154.7,345.6 198.0,342.1 241.3,348.6 284.7,348.3 328.0,347.4 371.3,348.2 414.7,357.3 458.0,354.8 501.3,356.4 544.7,354.6 588.0,351.7 631.3,352.0 674.7,344.6 718.0,343.2 761.3,283.4 804.7,281.1 848.0,279.9 891.3,277.4 934.7,380.2 978.0,370.5 1021.3,370.8 1064.7,371.2 1108.0,370.2 1108.0,374.6 1064.7,375.5 1021.3,375.2 978.0,375.0 934.7,384.6 891.3,281.3 848.0,283.8 804.7,285.1 761.3,287.1 718.0,346.8 674.7,348.2 631.3,355.5 588.0,355.2 544.7,358.0 501.3,359.9 458.0,358.4 414.7,360.9 371.3,351.7 328.0,350.9 284.7,351.8 241.3,352.0 198.0,348.2 154.7,351.8 111.3,353.8 68.0,371.2" fill="#6a51a3" fill-opacity="0.9" stroke="#fff" stroke-width="0.4"><title>control_flow_ssa — legalizeExistentialTypeLayout</title></polygon>
<polygon points="68.0,360.7 111.3,343.4 154.7,341.3 198.0,337.1 241.3,343.7 284.7,343.6 328.0,342.8 371.3,343.5 414.7,352.6 458.0,350.2 501.3,351.7 544.7,349.9 588.0,347.0 631.3,347.4 674.7,339.8 718.0,338.4 761.3,278.8 804.7,276.3 848.0,275.0 891.3,272.7 934.7,375.5 978.0,365.6 1021.3,365.9 1064.7,366.2 1108.0,365.1 1108.0,370.2 1064.7,371.2 1021.3,370.8 978.0,370.5 934.7,380.2 891.3,277.4 848.0,279.9 804.7,281.1 761.3,283.4 718.0,343.2 674.7,344.6 631.3,352.0 588.0,351.7 544.7,354.6 501.3,356.4 458.0,354.8 414.7,357.3 371.3,348.2 328.0,347.4 284.7,348.3 241.3,348.6 198.0,342.1 154.7,345.6 111.3,347.7 68.0,365.1" fill="#bcbddc" fill-opacity="0.9" stroke="#fff" stroke-width="0.4"><title>control_flow_ssa — performMandatoryEarlyInlining</title></polygon>
<polygon points="68.0,360.1 111.3,342.8 154.7,340.7 198.0,336.5 241.3,343.1 284.7,343.0 328.0,342.2 371.3,342.9 414.7,352.0 458.0,349.6 501.3,351.1 544.7,349.3 588.0,346.4 631.3,346.8 674.7,339.2 718.0,337.8 761.3,278.1 804.7,275.7 848.0,274.4 891.3,272.1 934.7,374.8 978.0,365.0 1021.3,365.3 1064.7,365.6 1108.0,364.5 1108.0,365.1 1064.7,366.2 1021.3,365.9 978.0,365.6 934.7,375.5 891.3,272.7 848.0,275.0 804.7,276.3 761.3,278.8 718.0,338.4 674.7,339.8 631.3,347.4 588.0,347.0 544.7,349.9 501.3,351.7 458.0,350.2 414.7,352.6 371.3,343.5 328.0,342.8 284.7,343.6 241.3,343.7 198.0,337.1 154.7,341.3 111.3,343.4 68.0,360.7" fill="#dadaeb" fill-opacity="0.9" stroke="#fff" stroke-width="0.4"><title>control_flow_ssa — performForceInlining</title></polygon>
<polygon points="68.0,316.5 111.3,292.9 154.7,291.4 198.0,284.6 241.3,287.6 284.7,285.1 328.0,285.7 371.3,286.7 414.7,295.7 458.0,291.8 501.3,293.3 544.7,291.5 588.0,288.1 631.3,289.5 674.7,279.5 718.0,277.8 761.3,215.2 804.7,212.0 848.0,210.3 891.3,207.7 934.7,316.8 978.0,302.0 1021.3,302.5 1064.7,303.8 1108.0,302.3 1108.0,364.5 1064.7,365.6 1021.3,365.3 978.0,365.0 934.7,374.8 891.3,272.1 848.0,274.4 804.7,275.7 761.3,278.1 718.0,337.8 674.7,339.2 631.3,346.8 588.0,346.4 544.7,349.3 501.3,351.1 458.0,349.6 414.7,352.0 371.3,342.9 328.0,342.2 284.7,343.0 241.3,343.1 198.0,336.5 154.7,340.7 111.3,342.8 68.0,360.1" fill="#4a1486" fill-opacity="0.9" stroke="#fff" stroke-width="0.4"><title>control_flow_ssa — linkAndOptimizeIR (self)</title></polygon>
<polygon points="68.0,200.5 111.3,170.4 154.7,170.0 198.0,185.3 241.3,185.5 284.7,183.2 328.0,187.3 371.3,188.1 414.7,197.3 458.0,194.5 501.3,195.6 544.7,194.0 588.0,188.4 631.3,191.7 674.7,177.0 718.0,174.7 761.3,115.7 804.7,113.1 848.0,110.4 891.3,109.0 934.7,214.9 978.0,197.3 1021.3,198.7 1064.7,198.4 1108.0,197.8 1108.0,302.3 1064.7,303.8 1021.3,302.5 978.0,302.0 934.7,316.8 891.3,207.7 848.0,210.3 804.7,212.0 761.3,215.2 718.0,277.8 674.7,279.5 631.3,289.5 588.0,288.1 544.7,291.5 501.3,293.3 458.0,291.8 414.7,295.7 371.3,286.7 328.0,285.7 284.7,285.1 241.3,287.6 198.0,284.6 154.7,291.4 111.3,292.9 68.0,316.5" fill="#e6550d" fill-opacity="0.9" stroke="#fff" stroke-width="0.4"><title>control_flow_ssa — generateOutput (self)</title></polygon>
<polygon points="68.0,199.4 111.3,169.9 154.7,170.0 198.0,185.0 241.3,184.6 284.7,183.0 328.0,186.5 371.3,187.9 414.7,196.9 458.0,194.5 501.3,195.0 544.7,193.3 588.0,188.3 631.3,190.5 674.7,176.6 718.0,174.7 761.3,115.4 804.7,112.2 848.0,110.4 891.3,108.6 934.7,214.7 978.0,195.2 1021.3,197.3 1064.7,198.0 1108.0,197.6 1108.0,197.8 1064.7,198.4 1021.3,198.7 978.0,197.3 934.7,214.9 891.3,109.0 848.0,110.4 804.7,113.1 761.3,115.7 718.0,174.7 674.7,177.0 631.3,191.7 588.0,188.4 544.7,194.0 501.3,195.6 458.0,194.5 414.7,197.3 371.3,188.1 328.0,187.3 284.7,183.2 241.3,185.5 198.0,185.3 154.7,170.0 111.3,170.4 68.0,200.5" fill="#969696" fill-opacity="0.9" stroke="#fff" stroke-width="0.4"><title>control_flow_ssa — compileInner (self)</title></polygon>
<text x="12" y="578" fill="#666" font-weight="600">phase buckets</text>
<rect x="12" y="586" width="12" height="12" fill="#c7e9c0"/>
<text x="28" y="596" fill="#222">parseTranslationUnit</text>
<rect x="289" y="586" width="12" height="12" fill="#41ab5d"/>
<text x="305" y="596" fill="#222">SemanticChecking</text>
<rect x="566" y="586" width="12" height="12" fill="#006d2c"/>
<text x="582" y="596" fill="#222">generateIR</text>
<rect x="843" y="586" width="12" height="12" fill="#74c476"/>
<text x="859" y="596" fill="#222">frontEndExecute (self)</text>
<rect x="12" y="604" width="12" height="12" fill="#6baed6"/>
<text x="28" y="614" fill="#222">specializeModule</text>
<rect x="289" y="604" width="12" height="12" fill="#2171b5"/>
<text x="305" y="614" fill="#222">simplifyIR</text>
<rect x="566" y="604" width="12" height="12" fill="#08306b"/>
<text x="582" y="614" fill="#222">linkIR</text>
<rect x="843" y="604" width="12" height="12" fill="#9e9ac8"/>
<text x="859" y="614" fill="#222">unrollLoopsInModule</text>
<rect x="12" y="622" width="12" height="12" fill="#807dba"/>
<text x="28" y="632" fill="#222">legalizeResourceTypes</text>
<rect x="289" y="622" width="12" height="12" fill="#6a51a3"/>
<text x="305" y="632" fill="#222">legalizeExistentialTypeLayout</text>
<rect x="566" y="622" width="12" height="12" fill="#bcbddc"/>
<text x="582" y="632" fill="#222">performMandatoryEarlyInlining</text>
<rect x="843" y="622" width="12" height="12" fill="#dadaeb"/>
<text x="859" y="632" fill="#222">performForceInlining</text>
<rect x="12" y="640" width="12" height="12" fill="#4a1486"/>
<text x="28" y="650" fill="#222">linkAndOptimizeIR (self)</text>
<rect x="289" y="640" width="12" height="12" fill="#fd8d3c"/>
<text x="305" y="650" fill="#222">emitEntryPointsSourceFromIR</text>
<rect x="566" y="640" width="12" height="12" fill="#e6550d"/>
<text x="582" y="650" fill="#222">generateOutput (self)</text>
<rect x="843" y="640" width="12" height="12" fill="#969696"/>
<text x="859" y="650" fill="#222">compileInner (self)</text>
</svg>