<svg xmlns="http://www.w3.org/2000/svg" xmlns:xlink="http://www.w3.org/1999/xlink" width="1132" height="680" viewBox="0 0 1132 680" preserveAspectRatio="xMidYMid meet" font-family="sans-serif" font-size="13">
<rect width="1132" height="680" fill="white"/>
<text x="12" y="30" font-size="20" font-weight="bold">control_flow_ssa — full phase breakdown across releases (median ms)</text>
<text x="68" y="60" font-size="15" font-weight="600" fill="#1a1a1a">control_flow_ssa<tspan fill="#888" font-weight="400" text-decoration="none">  1.00×</tspan></text>
<line x1="68.0" y1="516.0" x2="1108.0" y2="516.0" stroke="#eee"/>
<text x="64.0" y="519.0" text-anchor="end" fill="#999">0.0</text>
<line x1="68.0" y1="296.0" x2="1108.0" y2="296.0" stroke="#eee"/>
<text x="64.0" y="299.0" text-anchor="end" fill="#999">161</text>
<line x1="68.0" y1="76.0" x2="1108.0" y2="76.0" stroke="#eee"/>
<text x="64.0" y="79.0" text-anchor="end" fill="#999">323</text>
<line x1="68.0" y1="76.0" x2="68.0" y2="516.0" stroke="#333"/>
<line x1="68.0" y1="516.0" x2="1108.0" y2="516.0" stroke="#333"/>
<line x1="995.0" y1="76.0" x2="995.0" y2="516.0" stroke="#e8731a" stroke-width="1.2" stroke-dasharray="4 3"/>
<text x="998.0" y="87.0" fill="#e8731a" font-size="11">daily →</text>
<line x1="68.0" y1="516.0" x2="68.0" y2="519.0" stroke="#999"/>
<text x="68.0" y="531.0" text-anchor="end" fill="#666" transform="rotate(-50 68.0 531.0)">25.14</text>
<line x1="113.2" y1="516.0" x2="113.2" y2="519.0" stroke="#999"/>
<text x="113.2" y="531.0" text-anchor="end" fill="#666" transform="rotate(-50 113.2 531.0)">25.15</text>
<line x1="158.4" y1="516.0" x2="158.4" y2="519.0" stroke="#999"/>
<text x="158.4" y="531.0" text-anchor="end" fill="#666" transform="rotate(-50 158.4 531.0)">25.16</text>
<line x1="203.7" y1="516.0" x2="203.7" y2="519.0" stroke="#999"/>
<text x="203.7" y="531.0" text-anchor="end" fill="#666" transform="rotate(-50 203.7 531.0)">25.17</text>
<line x1="248.9" y1="516.0" x2="248.9" y2="519.0" stroke="#999"/>
<text x="248.9" y="531.0" text-anchor="end" fill="#666" transform="rotate(-50 248.9 531.0)">25.18</text>
<line x1="294.1" y1="516.0" x2="294.1" y2="519.0" stroke="#999"/>
<text x="294.1" y="531.0" text-anchor="end" fill="#666" transform="rotate(-50 294.1 531.0)">25.19</text>
<line x1="339.3" y1="516.0" x2="339.3" y2="519.0" stroke="#999"/>
<text x="339.3" y="531.0" text-anchor="end" fill="#666" transform="rotate(-50 339.3 531.0)">25.20</text>
<line x1="384.5" y1="516.0" x2="384.5" y2="519.0" stroke="#999"/>
<text x="384.5" y="531.0" text-anchor="end" fill="#666" transform="rotate(-50 384.5 531.0)">25.21</text>
<line x1="429.7" y1="516.0" x2="429.7" y2="519.0" stroke="#999"/>
<text x="429.7" y="531.0" text-anchor="end" fill="#666" transform="rotate(-50 429.7 531.0)">25.22</text>
<line x1="475.0" y1="516.0" x2="475.0" y2="519.0" stroke="#999"/>
<text x="475.0" y="531.0" text-anchor="end" fill="#666" transform="rotate(-50 475.0 531.0)">25.23</text>
<line x1="520.2" y1="516.0" x2="520.2" y2="519.0" stroke="#999"/>
<text x="520.2" y="531.0" text-anchor="end" fill="#666" transform="rotate(-50 520.2 531.0)">25.24</text>
<line x1="565.4" y1="516.0" x2="565.4" y2="519.0" stroke="#999"/>
<text x="565.4" y="531.0" text-anchor="end" fill="#666" transform="rotate(-50 565.4 531.0)">26.1</text>
<line x1="610.6" y1="516.0" x2="610.6" y2="519.0" stroke="#999"/>
<text x="610.6" y="531.0" text-anchor="end" fill="#666" transform="rotate(-50 610.6 531.0)">26.2</text>
<line x1="655.8" y1="516.0" x2="655.8" y2="519.0" stroke="#999"/>
<text x="655.8" y="531.0" text-anchor="end" fill="#666" transform="rotate(-50 655.8 531.0)">26.3</text>
<line x1="701.0" y1="516.0" x2="701.0" y2="519.0" stroke="#999"/>
<text x="701.0" y="531.0" text-anchor="end" fill="#666" transform="rotate(-50 701.0 531.0)">26.4</text>
<line x1="746.3" y1="516.0" x2="746.3" y2="519.0" stroke="#999"/>
<text x="746.3" y="531.0" text-anchor="end" fill="#666" transform="rotate(-50 746.3 531.0)">26.5</text>
<line x1="791.5" y1="516.0" x2="791.5" y2="519.0" stroke="#999"/>
<text x="791.5" y="531.0" text-anchor="end" fill="#666" transform="rotate(-50 791.5 531.0)">26.7</text>
<line x1="836.7" y1="516.0" x2="836.7" y2="519.0" stroke="#999"/>
<text x="836.7" y="531.0" text-anchor="end" fill="#666" transform="rotate(-50 836.7 531.0)">26.8</text>
<line x1="881.9" y1="516.0" x2="881.9" y2="519.0" stroke="#999"/>
<text x="881.9" y="531.0" text-anchor="end" fill="#666" transform="rotate(-50 881.9 531.0)">26.9</text>
<line x1="927.1" y1="516.0" x2="927.1" y2="519.0" stroke="#999"/>
<text x="927.1" y="531.0" text-anchor="end" fill="#666" transform="rotate(-50 927.1 531.0)">26.10</text>
<line x1="972.3" y1="516.0" x2="972.3" y2="519.0" stroke="#999"/>
<text x="972.3" y="531.0" text-anchor="end" fill="#666" transform="rotate(-50 972.3 531.0)">26.11</text>
<line x1="1017.6" y1="516.0" x2="1017.6" y2="519.0" stroke="#999"/>
<text x="1017.6" y="531.0" text-anchor="end" fill="#e8731a" transform="rotate(-50 1017.6 531.0)">06-25</text>
<line x1="1062.8" y1="516.0" x2="1062.8" y2="519.0" stroke="#999"/>
<text x="1062.8" y="531.0" text-anchor="end" fill="#e8731a" transform="rotate(-50 1062.8 531.0)">06-26</text>
<line x1="1108.0" y1="516.0" x2="1108.0" y2="519.0" stroke="#999"/>
<text x="1108.0" y="531.0" text-anchor="end" fill="#e8731a" transform="rotate(-50 1108.0 531.0)">06-28</text>
<polygon points="68.0,514.2 113.2,514.4 158.4,514.3 203.7,514.4 248.9,514.4 294.1,514.4 339.3,514.4 384.5,514.4 429.7,514.4 475.0,514.4 520.2,514.4 565.4,514.4 610.6,514.4 655.8,514.3 701.0,514.3 746.3,514.3 791.5,514.3 836.7,514.3 881.9,514.3 927.1,514.2 972.3,514.3 1017.6,514.2 1062.8,514.2 1108.0,514.2 1108.0,516.0 1062.8,516.0 1017.6,516.0 972.3,516.0 927.1,516.0 881.9,516.0 836.7,516.0 791.5,516.0 746.3,516.0 701.0,516.0 655.8,516.0 610.6,516.0 565.4,516.0 520.2,516.0 475.0,516.0 429.7,516.0 384.5,516.0 339.3,516.0 294.1,516.0 248.9,516.0 203.7,516.0 158.4,516.0 113.2,516.0 68.0,516.0" fill="#c7e9c0" fill-opacity="0.9" stroke="#fff" stroke-width="0.4"><title>control_flow_ssa — parseTranslationUnit</title></polygon>
<polygon points="68.0,452.5 113.2,434.5 158.4,433.1 203.7,431.6 248.9,432.0 294.1,432.2 339.3,431.5 384.5,432.3 429.7,440.7 475.0,439.2 520.2,439.6 565.4,438.7 610.6,436.1 655.8,436.6 701.0,433.7 746.3,431.4 791.5,414.0 836.7,413.4 881.9,412.1 927.1,409.1 972.3,480.0 1017.6,477.9 1062.8,478.0 1108.0,478.2 1108.0,514.2 1062.8,514.2 1017.6,514.2 972.3,514.3 927.1,514.2 881.9,514.3 836.7,514.3 791.5,514.3 746.3,514.3 701.0,514.3 655.8,514.3 610.6,514.4 565.4,514.4 520.2,514.4 475.0,514.4 429.7,514.4 384.5,514.4 339.3,514.4 294.1,514.4 248.9,514.4 203.7,514.4 158.4,514.3 113.2,514.4 68.0,514.2" fill="#41ab5d" fill-opacity="0.9" stroke="#fff" stroke-width="0.4"><title>control_flow_ssa — SemanticChecking</title></polygon>
<polygon points="68.0,422.5 113.2,404.8 158.4,403.2 203.7,400.6 248.9,401.1 294.1,401.4 339.3,400.9 384.5,401.6 429.7,410.1 475.0,408.5 520.2,409.3 565.4,407.3 610.6,405.2 655.8,405.6 701.0,401.3 746.3,399.2 791.5,370.9 836.7,369.9 881.9,368.4 927.1,365.1 972.3,451.5 1017.6,447.7 1062.8,447.9 1108.0,447.8 1108.0,478.2 1062.8,478.0 1017.6,477.9 972.3,480.0 927.1,409.1 881.9,412.1 836.7,413.4 791.5,414.0 746.3,431.4 701.0,433.7 655.8,436.6 610.6,436.1 565.4,438.7 520.2,439.6 475.0,439.2 429.7,440.7 384.5,432.3 339.3,431.5 294.1,432.2 248.9,432.0 203.7,431.6 158.4,433.1 113.2,434.5 68.0,452.5" fill="#006d2c" fill-opacity="0.9" stroke="#fff" stroke-width="0.4"><title>control_flow_ssa — generateIR</title></polygon>
<polygon points="68.0,422.2 113.2,404.7 158.4,403.0 203.7,400.3 248.9,400.6 294.1,401.2 339.3,400.6 384.5,400.8 429.7,409.8 475.0,408.2 520.2,408.8 565.4,406.9 610.6,404.8 655.8,405.2 701.0,400.5 746.3,399.1 791.5,370.5 836.7,369.5 881.9,368.0 927.1,364.7 972.3,451.1 1017.6,447.6 1062.8,447.4 1108.0,447.4 1108.0,447.8 1062.8,447.9 1017.6,447.7 972.3,451.5 927.1,365.1 881.9,368.4 836.7,369.9 791.5,370.9 746.3,399.2 701.0,401.3 655.8,405.6 610.6,405.2 565.4,407.3 520.2,409.3 475.0,408.5 429.7,410.1 384.5,401.6 339.3,400.9 294.1,401.4 248.9,401.1 203.7,400.6 158.4,403.2 113.2,404.8 68.0,422.5" fill="#74c476" fill-opacity="0.9" stroke="#fff" stroke-width="0.4"><title>control_flow_ssa — frontEndExecute (self)</title></polygon>
<polygon points="68.0,418.1 113.2,400.6 158.4,398.9 203.7,396.1 248.9,396.4 294.1,396.6 339.3,396.1 384.5,396.3 429.7,405.3 475.0,403.7 520.2,400.7 565.4,398.9 610.6,396.8 655.8,397.2 701.0,392.3 746.3,390.9 791.5,354.3 836.7,353.7 881.9,352.1 927.1,348.8 972.3,437.4 1017.6,431.8 1062.8,431.6 1108.0,431.7 1108.0,447.4 1062.8,447.4 1017.6,447.6 972.3,451.1 927.1,364.7 881.9,368.0 836.7,369.5 791.5,370.5 746.3,399.1 701.0,400.5 655.8,405.2 610.6,404.8 565.4,406.9 520.2,408.8 475.0,408.2 429.7,409.8 384.5,400.8 339.3,400.6 294.1,401.2 248.9,400.6 203.7,400.3 158.4,403.0 113.2,404.7 68.0,422.2" fill="#6baed6" fill-opacity="0.9" stroke="#fff" stroke-width="0.4"><title>control_flow_ssa — specializeModule</title></polygon>
<polygon points="68.0,380.3 113.2,362.5 158.4,360.5 203.7,357.1 248.9,358.2 294.1,358.0 339.3,357.2 384.5,358.1 429.7,367.1 475.0,364.7 520.2,366.1 565.4,364.1 610.6,361.4 655.8,361.7 701.0,355.1 746.3,354.4 791.5,304.2 836.7,302.9 881.9,301.4 927.1,298.9 972.3,391.3 1017.6,381.9 1062.8,382.1 1108.0,382.2 1108.0,431.7 1062.8,431.6 1017.6,431.8 972.3,437.4 927.1,348.8 881.9,352.1 836.7,353.7 791.5,354.3 746.3,390.9 701.0,392.3 655.8,397.2 610.6,396.8 565.4,398.9 520.2,400.7 475.0,403.7 429.7,405.3 384.5,396.3 339.3,396.1 294.1,396.6 248.9,396.4 203.7,396.1 158.4,398.9 113.2,400.6 68.0,418.1" fill="#2171b5" fill-opacity="0.9" stroke="#fff" stroke-width="0.4"><title>control_flow_ssa — simplifyIR</title></polygon>
<polygon points="68.0,377.2 113.2,359.9 158.4,358.0 203.7,354.3 248.9,355.4 294.1,355.2 339.3,354.3 384.5,355.2 429.7,364.4 475.0,361.9 520.2,363.4 565.4,361.5 610.6,358.6 655.8,359.0 701.0,351.8 746.3,350.4 791.5,290.7 836.7,289.1 881.9,287.7 927.1,285.1 972.3,388.9 1017.6,379.4 1062.8,379.6 1108.0,379.9 1108.0,382.2 1062.8,382.1 1017.6,381.9 972.3,391.3 927.1,298.9 881.9,301.4 836.7,302.9 791.5,304.2 746.3,354.4 701.0,355.1 655.8,361.7 610.6,361.4 565.4,364.1 520.2,366.1 475.0,364.7 429.7,367.1 384.5,358.1 339.3,357.2 294.1,358.0 248.9,358.2 203.7,357.1 158.4,360.5 113.2,362.5 68.0,380.3" fill="#08306b" fill-opacity="0.9" stroke="#fff" stroke-width="0.4"><title>control_flow_ssa — linkIR</title></polygon>
<polygon points="68.0,377.0 113.2,359.7 158.4,357.8 203.7,354.1 248.9,355.2 294.1,355.1 339.3,354.1 384.5,355.1 429.7,364.2 475.0,361.7 520.2,363.2 565.4,361.3 610.6,358.4 655.8,358.7 701.0,351.6 746.3,350.2 791.5,290.5 836.7,288.9 881.9,287.5 927.1,284.9 972.3,388.7 1017.6,379.2 1062.8,379.5 1108.0,379.7 1108.0,379.9 1062.8,379.6 1017.6,379.4 972.3,388.9 927.1,285.1 881.9,287.7 836.7,289.1 791.5,290.7 746.3,350.4 701.0,351.8 655.8,359.0 610.6,358.6 565.4,361.5 520.2,363.4 475.0,361.9 429.7,364.4 384.5,355.2 339.3,354.3 294.1,355.2 248.9,355.4 203.7,354.3 158.4,358.0 113.2,359.9 68.0,377.2" fill="#9e9ac8" fill-opacity="0.9" stroke="#fff" stroke-width="0.4"><title>control_flow_ssa — unrollLoopsInModule</title></polygon>
<polygon points="68.0,371.2 113.2,353.8 158.4,351.8 203.7,348.2 248.9,352.0 294.1,351.8 339.3,350.9 384.5,351.7 429.7,360.9 475.0,358.4 520.2,359.9 565.4,358.0 610.6,355.2 655.8,355.5 701.0,348.2 746.3,346.8 791.5,287.1 836.7,285.1 881.9,283.8 927.1,281.3 972.3,384.6 1017.6,375.0 1062.8,375.2 1108.0,375.5 1108.0,379.7 1062.8,379.5 1017.6,379.2 972.3,388.7 927.1,284.9 881.9,287.5 836.7,288.9 791.5,290.5 746.3,350.2 701.0,351.6 655.8,358.7 610.6,358.4 565.4,361.3 520.2,363.2 475.0,361.7 429.7,364.2 384.5,355.1 339.3,354.1 294.1,355.1 248.9,355.2 203.7,354.1 158.4,357.8 113.2,359.7 68.0,377.0" fill="#807dba" fill-opacity="0.9" stroke="#fff" stroke-width="0.4"><title>control_flow_ssa — legalizeResourceTypes</title></polygon>
<polygon points="68.0,365.1 113.2,347.7 158.4,345.6 203.7,342.1 248.9,348.6 294.1,348.3 339.3,347.4 384.5,348.2 429.7,357.3 475.0,354.8 520.2,356.4 565.4,354.6 610.6,351.7 655.8,352.0 701.0,344.6 746.3,343.2 791.5,283.4 836.7,281.1 881.9,279.9 927.1,277.4 972.3,380.2 1017.6,370.5 1062.8,370.8 1108.0,371.2 1108.0,375.5 1062.8,375.2 1017.6,375.0 972.3,384.6 927.1,281.3 881.9,283.8 836.7,285.1 791.5,287.1 746.3,346.8 701.0,348.2 655.8,355.5 610.6,355.2 565.4,358.0 520.2,359.9 475.0,358.4 429.7,360.9 384.5,351.7 339.3,350.9 294.1,351.8 248.9,352.0 203.7,348.2 158.4,351.8 113.2,353.8 68.0,371.2" fill="#6a51a3" fill-opacity="0.9" stroke="#fff" stroke-width="0.4"><title>control_flow_ssa — legalizeExistentialTypeLayout</title></polygon>
<polygon points="68.0,360.7 113.2,343.4 158.4,341.3 203.7,337.1 248.9,343.7 294.1,343.6 339.3,342.8 384.5,343.5 429.7,352.6 475.0,350.2 520.2,351.7 565.4,349.9 610.6,347.0 655.8,347.4 701.0,339.8 746.3,338.4 791.5,278.8 836.7,276.3 881.9,275.0 927.1,272.7 972.3,375.5 1017.6,365.6 1062.8,365.9 1108.0,366.2 1108.0,371.2 1062.8,370.8 1017.6,370.5 972.3,380.2 927.1,277.4 881.9,279.9 836.7,281.1 791.5,283.4 746.3,343.2 701.0,344.6 655.8,352.0 610.6,351.7 565.4,354.6 520.2,356.4 475.0,354.8 429.7,357.3 384.5,348.2 339.3,347.4 294.1,348.3 248.9,348.6 203.7,342.1 158.4,345.6 113.2,347.7 68.0,365.1" fill="#bcbddc" fill-opacity="0.9" stroke="#fff" stroke-width="0.4"><title>control_flow_ssa — performMandatoryEarlyInlining</title></polygon>
<polygon points="68.0,360.1 113.2,342.8 158.4,340.7 203.7,336.5 248.9,343.1 294.1,343.0 339.3,342.2 384.5,342.9 429.7,352.0 475.0,349.6 520.2,351.1 565.4,349.3 610.6,346.4 655.8,346.8 701.0,339.2 746.3,337.8 791.5,278.1 836.7,275.7 881.9,274.4 927.1,272.1 972.3,374.8 1017.6,365.0 1062.8,365.3 1108.0,365.6 1108.0,366.2 1062.8,365.9 1017.6,365.6 972.3,375.5 927.1,272.7 881.9,275.0 836.7,276.3 791.5,278.8 746.3,338.4 701.0,339.8 655.8,347.4 610.6,347.0 565.4,349.9 520.2,351.7 475.0,350.2 429.7,352.6 384.5,343.5 339.3,342.8 294.1,343.6 248.9,343.7 203.7,337.1 158.4,341.3 113.2,343.4 68.0,360.7" fill="#dadaeb" fill-opacity="0.9" stroke="#fff" stroke-width="0.4"><title>control_flow_ssa — performForceInlining</title></polygon>
<polygon points="68.0,316.5 113.2,292.9 158.4,291.4 203.7,284.6 248.9,287.6 294.1,285.1 339.3,285.7 384.5,286.7 429.7,295.7 475.0,291.8 520.2,293.3 565.4,291.5 610.6,288.1 655.8,289.5 701.0,279.5 746.3,277.8 791.5,215.2 836.7,212.0 881.9,210.3 927.1,207.7 972.3,316.8 1017.6,302.0 1062.8,302.5 1108.0,303.8 1108.0,365.6 1062.8,365.3 1017.6,365.0 972.3,374.8 927.1,272.1 881.9,274.4 836.7,275.7 791.5,278.1 746.3,337.8 701.0,339.2 655.8,346.8 610.6,346.4 565.4,349.3 520.2,351.1 475.0,349.6 429.7,352.0 384.5,342.9 339.3,342.2 294.1,343.0 248.9,343.1 203.7,336.5 158.4,340.7 113.2,342.8 68.0,360.1" fill="#4a1486" fill-opacity="0.9" stroke="#fff" stroke-width="0.4"><title>control_flow_ssa — linkAndOptimizeIR (self)</title></polygon>
<polygon points="68.0,200.5 113.2,170.4 158.4,170.0 203.7,185.3 248.9,185.5 294.1,183.2 339.3,187.3 384.5,188.1 429.7,197.3 475.0,194.5 520.2,195.6 565.4,194.0 610.6,188.4 655.8,191.7 701.0,177.0 746.3,174.7 791.5,115.7 836.7,113.1 881.9,110.4 927.1,109.0 972.3,214.9 1017.6,197.3 1062.8,198.7 1108.0,198.4 1108.0,303.8 1062.8,302.5 1017.6,302.0 972.3,316.8 927.1,207.7 881.9,210.3 836.7,212.0 791.5,215.2 746.3,277.8 701.0,279.5 655.8,289.5 610.6,288.1 565.4,291.5 520.2,293.3 475.0,291.8 429.7,295.7 384.5,286.7 339.3,285.7 294.1,285.1 248.9,287.6 203.7,284.6 158.4,291.4 113.2,292.9 68.0,316.5" fill="#e6550d" fill-opacity="0.9" stroke="#fff" stroke-width="0.4"><title>control_flow_ssa — generateOutput (self)</title></polygon>
<polygon points="68.0,199.4 113.2,169.9 158.4,170.0 203.7,185.0 248.9,184.6 294.1,183.0 339.3,186.5 384.5,187.9 429.7,196.9 475.0,194.5 520.2,195.0 565.4,193.3 610.6,188.3 655.8,190.5 701.0,176.6 746.3,174.7 791.5,115.4 836.7,112.2 881.9,110.4 927.1,108.6 972.3,214.7 1017.6,195.2 1062.8,197.3 1108.0,198.0 1108.0,198.4 1062.8,198.7 1017.6,197.3 972.3,214.9 927.1,109.0 881.9,110.4 836.7,113.1 791.5,115.7 746.3,174.7 701.0,177.0 655.8,191.7 610.6,188.4 565.4,194.0 520.2,195.6 475.0,194.5 429.7,197.3 384.5,188.1 339.3,187.3 294.1,183.2 248.9,185.5 203.7,185.3 158.4,170.0 113.2,170.4 68.0,200.5" fill="#969696" fill-opacity="0.9" stroke="#fff" stroke-width="0.4"><title>control_flow_ssa — compileInner (self)</title></polygon>
<text x="12" y="578" fill="#666" font-weight="600">phase buckets</text>
<rect x="12" y="586" width="12" height="12" fill="#c7e9c0"/>
<text x="28" y="596" fill="#222">parseTranslationUnit</text>
<rect x="289" y="586" width="12" height="12" fill="#41ab5d"/>
<text x="305" y="596" fill="#222">SemanticChecking</text>
<rect x="566" y="586" width="12" height="12" fill="#006d2c"/>
<text x="582" y="596" fill="#222">generateIR</text>
<rect x="843" y="586" width="12" height="12" fill="#74c476"/>
<text x="859" y="596" fill="#222">frontEndExecute (self)</text>
<rect x="12" y="604" width="12" height="12" fill="#6baed6"/>
<text x="28" y="614" fill="#222">specializeModule</text>
<rect x="289" y="604" width="12" height="12" fill="#2171b5"/>
<text x="305" y="614" fill="#222">simplifyIR</text>
<rect x="566" y="604" width="12" height="12" fill="#08306b"/>
<text x="582" y="614" fill="#222">linkIR</text>
<rect x="843" y="604" width="12" height="12" fill="#9e9ac8"/>
<text x="859" y="614" fill="#222">unrollLoopsInModule</text>
<rect x="12" y="622" width="12" height="12" fill="#807dba"/>
<text x="28" y="632" fill="#222">legalizeResourceTypes</text>
<rect x="289" y="622" width="12" height="12" fill="#6a51a3"/>
<text x="305" y="632" fill="#222">legalizeExistentialTypeLayout</text>
<rect x="566" y="622" width="12" height="12" fill="#bcbddc"/>
<text x="582" y="632" fill="#222">performMandatoryEarlyInlining</text>
<rect x="843" y="622" width="12" height="12" fill="#dadaeb"/>
<text x="859" y="632" fill="#222">performForceInlining</text>
<rect x="12" y="640" width="12" height="12" fill="#4a1486"/>
<text x="28" y="650" fill="#222">linkAndOptimizeIR (self)</text>
<rect x="289" y="640" width="12" height="12" fill="#fd8d3c"/>
<text x="305" y="650" fill="#222">emitEntryPointsSourceFromIR</text>
<rect x="566" y="640" width="12" height="12" fill="#e6550d"/>
<text x="582" y="650" fill="#222">generateOutput (self)</text>
<rect x="843" y="640" width="12" height="12" fill="#969696"/>
<text x="859" y="650" fill="#222">compileInner (self)</text>
</svg>