<svg xmlns="http://www.w3.org/2000/svg" xmlns:xlink="http://www.w3.org/1999/xlink" width="1132" height="680" viewBox="0 0 1132 680" preserveAspectRatio="xMidYMid meet" font-family="sans-serif" font-size="13">
<rect width="1132" height="680" fill="white"/>
<text x="12" y="30" font-size="20" font-weight="bold">diagnostics_clean — full phase breakdown across releases (median ms)</text>
<text x="68" y="60" font-size="15" font-weight="600" fill="#1a1a1a">diagnostics_clean<tspan fill="#888" font-weight="400" text-decoration="none">  0.88×</tspan></text>
<line x1="68.0" y1="516.0" x2="1108.0" y2="516.0" stroke="#eee"/>
<text x="64.0" y="519.0" text-anchor="end" fill="#999">0.0</text>
<line x1="68.0" y1="296.0" x2="1108.0" y2="296.0" stroke="#eee"/>
<text x="64.0" y="299.0" text-anchor="end" fill="#999">38</text>
<line x1="68.0" y1="76.0" x2="1108.0" y2="76.0" stroke="#eee"/>
<text x="64.0" y="79.0" text-anchor="end" fill="#999">77</text>
<line x1="68.0" y1="76.0" x2="68.0" y2="516.0" stroke="#333"/>
<line x1="68.0" y1="516.0" x2="1108.0" y2="516.0" stroke="#333"/>
<line x1="745.6" y1="76.0" x2="745.6" y2="516.0" stroke="#e8731a" stroke-width="1.2" stroke-dasharray="4 3"/>
<text x="748.6" y="87.0" fill="#e8731a" font-size="11">daily →</text>
<line x1="68.0" y1="516.0" x2="68.0" y2="519.0" stroke="#999"/>
<text x="68.0" y="531.0" text-anchor="end" fill="#666" transform="rotate(-50 68.0 531.0)">25.14</text>
<line x1="99.5" y1="516.0" x2="99.5" y2="519.0" stroke="#999"/>
<text x="99.5" y="531.0" text-anchor="end" fill="#666" transform="rotate(-50 99.5 531.0)">25.15</text>
<line x1="131.0" y1="516.0" x2="131.0" y2="519.0" stroke="#999"/>
<text x="131.0" y="531.0" text-anchor="end" fill="#666" transform="rotate(-50 131.0 531.0)">25.16</text>
<line x1="162.5" y1="516.0" x2="162.5" y2="519.0" stroke="#999"/>
<text x="162.5" y="531.0" text-anchor="end" fill="#666" transform="rotate(-50 162.5 531.0)">25.17</text>
<line x1="194.1" y1="516.0" x2="194.1" y2="519.0" stroke="#999"/>
<text x="194.1" y="531.0" text-anchor="end" fill="#666" transform="rotate(-50 194.1 531.0)">25.18</text>
<line x1="225.6" y1="516.0" x2="225.6" y2="519.0" stroke="#999"/>
<text x="225.6" y="531.0" text-anchor="end" fill="#666" transform="rotate(-50 225.6 531.0)">25.19</text>
<line x1="257.1" y1="516.0" x2="257.1" y2="519.0" stroke="#999"/>
<text x="257.1" y="531.0" text-anchor="end" fill="#666" transform="rotate(-50 257.1 531.0)">25.20</text>
<line x1="288.6" y1="516.0" x2="288.6" y2="519.0" stroke="#999"/>
<text x="288.6" y="531.0" text-anchor="end" fill="#666" transform="rotate(-50 288.6 531.0)">25.21</text>
<line x1="320.1" y1="516.0" x2="320.1" y2="519.0" stroke="#999"/>
<text x="320.1" y="531.0" text-anchor="end" fill="#666" transform="rotate(-50 320.1 531.0)">25.22</text>
<line x1="351.6" y1="516.0" x2="351.6" y2="519.0" stroke="#999"/>
<text x="351.6" y="531.0" text-anchor="end" fill="#666" transform="rotate(-50 351.6 531.0)">25.23</text>
<line x1="383.2" y1="516.0" x2="383.2" y2="519.0" stroke="#999"/>
<text x="383.2" y="531.0" text-anchor="end" fill="#666" transform="rotate(-50 383.2 531.0)">25.24</text>
<line x1="414.7" y1="516.0" x2="414.7" y2="519.0" stroke="#999"/>
<text x="414.7" y="531.0" text-anchor="end" fill="#666" transform="rotate(-50 414.7 531.0)">26.1</text>
<line x1="446.2" y1="516.0" x2="446.2" y2="519.0" stroke="#999"/>
<text x="446.2" y="531.0" text-anchor="end" fill="#666" transform="rotate(-50 446.2 531.0)">26.2</text>
<line x1="477.7" y1="516.0" x2="477.7" y2="519.0" stroke="#999"/>
<text x="477.7" y="531.0" text-anchor="end" fill="#666" transform="rotate(-50 477.7 531.0)">26.3</text>
<line x1="509.2" y1="516.0" x2="509.2" y2="519.0" stroke="#999"/>
<text x="509.2" y="531.0" text-anchor="end" fill="#666" transform="rotate(-50 509.2 531.0)">26.4</text>
<line x1="540.7" y1="516.0" x2="540.7" y2="519.0" stroke="#999"/>
<text x="540.7" y="531.0" text-anchor="end" fill="#666" transform="rotate(-50 540.7 531.0)">26.5</text>
<line x1="572.2" y1="516.0" x2="572.2" y2="519.0" stroke="#999"/>
<text x="572.2" y="531.0" text-anchor="end" fill="#666" transform="rotate(-50 572.2 531.0)">26.7</text>
<line x1="603.8" y1="516.0" x2="603.8" y2="519.0" stroke="#999"/>
<text x="603.8" y="531.0" text-anchor="end" fill="#666" transform="rotate(-50 603.8 531.0)">26.8</text>
<line x1="635.3" y1="516.0" x2="635.3" y2="519.0" stroke="#999"/>
<text x="635.3" y="531.0" text-anchor="end" fill="#666" transform="rotate(-50 635.3 531.0)">26.9</text>
<line x1="666.8" y1="516.0" x2="666.8" y2="519.0" stroke="#999"/>
<text x="666.8" y="531.0" text-anchor="end" fill="#666" transform="rotate(-50 666.8 531.0)">26.10</text>
<line x1="698.3" y1="516.0" x2="698.3" y2="519.0" stroke="#999"/>
<text x="698.3" y="531.0" text-anchor="end" fill="#666" transform="rotate(-50 698.3 531.0)">26.11</text>
<line x1="729.8" y1="516.0" x2="729.8" y2="519.0" stroke="#999"/>
<text x="729.8" y="531.0" text-anchor="end" fill="#666" transform="rotate(-50 729.8 531.0)">26.12</text>
<line x1="761.3" y1="516.0" x2="761.3" y2="519.0" stroke="#999"/>
<text x="761.3" y="531.0" text-anchor="end" fill="#e8731a" transform="rotate(-50 761.3 531.0)">06-25</text>
<line x1="792.8" y1="516.0" x2="792.8" y2="519.0" stroke="#999"/>
<text x="792.8" y="531.0" text-anchor="end" fill="#e8731a" transform="rotate(-50 792.8 531.0)">06-26</text>
<line x1="824.4" y1="516.0" x2="824.4" y2="519.0" stroke="#999"/>
<text x="824.4" y="531.0" text-anchor="end" fill="#e8731a" transform="rotate(-50 824.4 531.0)">06-28</text>
<line x1="855.9" y1="516.0" x2="855.9" y2="519.0" stroke="#999"/>
<text x="855.9" y="531.0" text-anchor="end" fill="#e8731a" transform="rotate(-50 855.9 531.0)">07-01</text>
<line x1="887.4" y1="516.0" x2="887.4" y2="519.0" stroke="#999"/>
<text x="887.4" y="531.0" text-anchor="end" fill="#e8731a" transform="rotate(-50 887.4 531.0)">07-02</text>
<line x1="918.9" y1="516.0" x2="918.9" y2="519.0" stroke="#999"/>
<text x="918.9" y="531.0" text-anchor="end" fill="#e8731a" transform="rotate(-50 918.9 531.0)">07-03</text>
<line x1="950.4" y1="516.0" x2="950.4" y2="519.0" stroke="#999"/>
<text x="950.4" y="531.0" text-anchor="end" fill="#e8731a" transform="rotate(-50 950.4 531.0)">07-07</text>
<line x1="981.9" y1="516.0" x2="981.9" y2="519.0" stroke="#999"/>
<text x="981.9" y="531.0" text-anchor="end" fill="#e8731a" transform="rotate(-50 981.9 531.0)">07-07</text>
<line x1="1013.5" y1="516.0" x2="1013.5" y2="519.0" stroke="#999"/>
<text x="1013.5" y="531.0" text-anchor="end" fill="#e8731a" transform="rotate(-50 1013.5 531.0)">07-09</text>
<line x1="1045.0" y1="516.0" x2="1045.0" y2="519.0" stroke="#999"/>
<text x="1045.0" y="531.0" text-anchor="end" fill="#e8731a" transform="rotate(-50 1045.0 531.0)">07-10</text>
<line x1="1076.5" y1="516.0" x2="1076.5" y2="519.0" stroke="#999"/>
<text x="1076.5" y="531.0" text-anchor="end" fill="#e8731a" transform="rotate(-50 1076.5 531.0)">07-11</text>
<line x1="1108.0" y1="516.0" x2="1108.0" y2="519.0" stroke="#999"/>
<text x="1108.0" y="531.0" text-anchor="end" fill="#e8731a" transform="rotate(-50 1108.0 531.0)">07-11</text>
<polygon points="68.0,505.6 99.5,506.1 131.0,506.4 162.5,505.9 194.1,505.6 225.6,505.7 257.1,505.3 288.6,505.4 320.1,505.7 351.6,505.9 383.2,504.6 414.7,505.0 446.2,505.1 477.7,504.8 509.2,504.7 540.7,504.6 572.2,504.0 603.8,504.3 635.3,503.7 666.8,504.1 698.3,504.4 729.8,504.3 761.3,502.8 792.8,502.8 824.4,502.7 855.9,503.0 887.4,502.9 918.9,502.3 950.4,503.4 981.9,503.0 1013.5,503.3 1045.0,503.2 1076.5,503.0 1108.0,503.4 1108.0,516.0 1076.5,516.0 1045.0,516.0 1013.5,516.0 981.9,516.0 950.4,516.0 918.9,516.0 887.4,516.0 855.9,516.0 824.4,516.0 792.8,516.0 761.3,516.0 729.8,516.0 698.3,516.0 666.8,516.0 635.3,516.0 603.8,516.0 572.2,516.0 540.7,516.0 509.2,516.0 477.7,516.0 446.2,516.0 414.7,516.0 383.2,516.0 351.6,516.0 320.1,516.0 288.6,516.0 257.1,516.0 225.6,516.0 194.1,516.0 162.5,516.0 131.0,516.0 99.5,516.0 68.0,516.0" fill="#c7e9c0" fill-opacity="0.9" stroke="#fff" stroke-width="0.4"><title>diagnostics_clean — parseTranslationUnit</title></polygon>
<polygon points="68.0,408.9 99.5,354.8 131.0,351.7 162.5,340.9 194.1,344.5 225.6,344.2 257.1,336.3 288.6,326.6 320.1,372.6 351.6,368.8 383.2,371.7 414.7,376.3 446.2,366.1 477.7,366.7 509.2,367.3 540.7,364.5 572.2,320.4 603.8,323.7 635.3,320.8 666.8,316.5 698.3,446.2 729.8,444.4 761.3,437.9 792.8,438.6 824.4,438.0 855.9,437.6 887.4,436.1 918.9,433.9 950.4,437.9 981.9,436.2 1013.5,437.6 1045.0,435.9 1076.5,435.4 1108.0,437.8 1108.0,503.4 1076.5,503.0 1045.0,503.2 1013.5,503.3 981.9,503.0 950.4,503.4 918.9,502.3 887.4,502.9 855.9,503.0 824.4,502.7 792.8,502.8 761.3,502.8 729.8,504.3 698.3,504.4 666.8,504.1 635.3,503.7 603.8,504.3 572.2,504.0 540.7,504.6 509.2,504.7 477.7,504.8 446.2,505.1 414.7,505.0 383.2,504.6 351.6,505.9 320.1,505.7 288.6,505.4 257.1,505.3 225.6,505.7 194.1,505.6 162.5,505.9 131.0,506.4 99.5,506.1 68.0,505.6" fill="#41ab5d" fill-opacity="0.9" stroke="#fff" stroke-width="0.4"><title>diagnostics_clean — SemanticChecking</title></polygon>
<polygon points="68.0,364.1 99.5,309.7 131.0,306.5 162.5,292.1 194.1,296.4 225.6,295.3 257.1,285.9 288.6,273.6 320.1,324.2 351.6,320.7 383.2,325.5 414.7,330.3 446.2,318.9 477.7,320.4 509.2,321.7 540.7,316.6 572.2,217.3 603.8,223.3 635.3,221.4 666.8,203.0 698.3,400.5 729.8,397.6 761.3,388.1 792.8,388.6 824.4,386.9 855.9,388.4 887.4,385.1 918.9,382.9 950.4,387.5 981.9,384.6 1013.5,386.4 1045.0,382.0 1076.5,382.2 1108.0,385.9 1108.0,437.8 1076.5,435.4 1045.0,435.9 1013.5,437.6 981.9,436.2 950.4,437.9 918.9,433.9 887.4,436.1 855.9,437.6 824.4,438.0 792.8,438.6 761.3,437.9 729.8,444.4 698.3,446.2 666.8,316.5 635.3,320.8 603.8,323.7 572.2,320.4 540.7,364.5 509.2,367.3 477.7,366.7 446.2,366.1 414.7,376.3 383.2,371.7 351.6,368.8 320.1,372.6 288.6,326.6 257.1,336.3 225.6,344.2 194.1,344.5 162.5,340.9 131.0,351.7 99.5,354.8 68.0,408.9" fill="#006d2c" fill-opacity="0.9" stroke="#fff" stroke-width="0.4"><title>diagnostics_clean — generateIR</title></polygon>
<polygon points="68.0,362.6 99.5,308.2 131.0,304.8 162.5,288.5 194.1,294.4 225.6,293.6 257.1,283.1 288.6,269.2 320.1,323.0 351.6,318.6 383.2,324.0 414.7,327.4 446.2,316.1 477.7,318.5 509.2,319.4 540.7,311.2 572.2,216.1 603.8,220.6 635.3,218.7 666.8,203.0 698.3,398.1 729.8,393.7 761.3,385.7 792.8,385.4 824.4,384.6 855.9,385.7 887.4,383.4 918.9,380.2 950.4,383.7 981.9,382.3 1013.5,384.2 1045.0,379.1 1076.5,379.9 1108.0,383.5 1108.0,385.9 1076.5,382.2 1045.0,382.0 1013.5,386.4 981.9,384.6 950.4,387.5 918.9,382.9 887.4,385.1 855.9,388.4 824.4,386.9 792.8,388.6 761.3,388.1 729.8,397.6 698.3,400.5 666.8,203.0 635.3,221.4 603.8,223.3 572.2,217.3 540.7,316.6 509.2,321.7 477.7,320.4 446.2,318.9 414.7,330.3 383.2,325.5 351.6,320.7 320.1,324.2 288.6,273.6 257.1,285.9 225.6,295.3 194.1,296.4 162.5,292.1 131.0,306.5 99.5,309.7 68.0,364.1" fill="#74c476" fill-opacity="0.9" stroke="#fff" stroke-width="0.4"><title>diagnostics_clean — frontEndExecute (self)</title></polygon>
<polygon points="68.0,362.4 99.5,308.0 131.0,304.6 162.5,288.2 194.1,294.1 225.6,293.3 257.1,282.9 288.6,268.9 320.1,322.8 351.6,318.4 383.2,323.5 414.7,327.0 446.2,315.7 477.7,318.1 509.2,319.0 540.7,310.7 572.2,209.3 603.8,214.2 635.3,211.8 666.8,196.5 698.3,392.4 729.8,388.0 761.3,379.0 792.8,378.7 824.4,377.9 855.9,379.1 887.4,376.7 918.9,373.2 950.4,383.1 981.9,381.6 1013.5,383.6 1045.0,378.4 1076.5,379.2 1108.0,382.9 1108.0,383.5 1076.5,379.9 1045.0,379.1 1013.5,384.2 981.9,382.3 950.4,383.7 918.9,380.2 887.4,383.4 855.9,385.7 824.4,384.6 792.8,385.4 761.3,385.7 729.8,393.7 698.3,398.1 666.8,203.0 635.3,218.7 603.8,220.6 572.2,216.1 540.7,311.2 509.2,319.4 477.7,318.5 446.2,316.1 414.7,327.4 383.2,324.0 351.6,318.6 320.1,323.0 288.6,269.2 257.1,283.1 225.6,293.6 194.1,294.4 162.5,288.5 131.0,304.8 99.5,308.2 68.0,362.6" fill="#6baed6" fill-opacity="0.9" stroke="#fff" stroke-width="0.4"><title>diagnostics_clean — specializeModule</title></polygon>
<polygon points="68.0,361.5 99.5,307.1 131.0,303.8 162.5,287.2 194.1,293.2 225.6,292.4 257.1,281.9 288.6,267.9 320.1,321.8 351.6,317.3 383.2,322.6 414.7,326.2 446.2,314.8 477.7,317.2 509.2,318.1 540.7,309.8 572.2,205.4 603.8,210.4 635.3,208.1 666.8,192.7 698.3,388.9 729.8,384.8 761.3,375.7 792.8,375.4 824.4,374.6 855.9,375.9 887.4,373.5 918.9,369.9 950.4,382.1 981.9,380.5 1013.5,382.6 1045.0,377.5 1076.5,378.3 1108.0,382.0 1108.0,382.9 1076.5,379.2 1045.0,378.4 1013.5,383.6 981.9,381.6 950.4,383.1 918.9,373.2 887.4,376.7 855.9,379.1 824.4,377.9 792.8,378.7 761.3,379.0 729.8,388.0 698.3,392.4 666.8,196.5 635.3,211.8 603.8,214.2 572.2,209.3 540.7,310.7 509.2,319.0 477.7,318.1 446.2,315.7 414.7,327.0 383.2,323.5 351.6,318.4 320.1,322.8 288.6,268.9 257.1,282.9 225.6,293.3 194.1,294.1 162.5,288.2 131.0,304.6 99.5,308.0 68.0,362.4" fill="#2171b5" fill-opacity="0.9" stroke="#fff" stroke-width="0.4"><title>diagnostics_clean — simplifyIR</title></polygon>
<polygon points="68.0,356.7 99.5,304.2 131.0,300.6 162.5,283.2 194.1,288.5 225.6,286.9 257.1,275.3 288.6,260.3 320.1,316.7 351.6,311.6 383.2,318.8 414.7,322.3 446.2,310.9 477.7,313.5 509.2,314.2 540.7,306.0 572.2,153.0 603.8,159.6 635.3,155.6 666.8,138.0 698.3,386.3 729.8,382.1 761.3,372.9 792.8,372.6 824.4,371.9 855.9,373.1 887.4,370.7 918.9,367.1 950.4,380.7 981.9,379.2 1013.5,381.2 1045.0,376.1 1076.5,376.7 1108.0,380.6 1108.0,382.0 1076.5,378.3 1045.0,377.5 1013.5,382.6 981.9,380.5 950.4,382.1 918.9,369.9 887.4,373.5 855.9,375.9 824.4,374.6 792.8,375.4 761.3,375.7 729.8,384.8 698.3,388.9 666.8,192.7 635.3,208.1 603.8,210.4 572.2,205.4 540.7,309.8 509.2,318.1 477.7,317.2 446.2,314.8 414.7,326.2 383.2,322.6 351.6,317.3 320.1,321.8 288.6,267.9 257.1,281.9 225.6,292.4 194.1,293.2 162.5,287.2 131.0,303.8 99.5,307.1 68.0,361.5" fill="#08306b" fill-opacity="0.9" stroke="#fff" stroke-width="0.4"><title>diagnostics_clean — linkIR</title></polygon>
<polygon points="68.0,356.7 99.5,304.2 131.0,300.6 162.5,283.2 194.1,288.5 225.6,286.9 257.1,275.3 288.6,260.3 320.1,316.7 351.6,311.6 383.2,318.8 414.7,322.3 446.2,310.9 477.7,313.5 509.2,314.2 540.7,306.0 572.2,152.9 603.8,159.5 635.3,155.5 666.8,137.9 698.3,386.3 729.8,382.0 761.3,372.8 792.8,372.5 824.4,371.8 855.9,373.1 887.4,370.6 918.9,367.1 950.4,380.7 981.9,379.2 1013.5,381.2 1045.0,376.1 1076.5,376.7 1108.0,380.6 1108.0,380.6 1076.5,376.7 1045.0,376.1 1013.5,381.2 981.9,379.2 950.4,380.7 918.9,367.1 887.4,370.7 855.9,373.1 824.4,371.9 792.8,372.6 761.3,372.9 729.8,382.1 698.3,386.3 666.8,138.0 635.3,155.6 603.8,159.6 572.2,153.0 540.7,306.0 509.2,314.2 477.7,313.5 446.2,310.9 414.7,322.3 383.2,318.8 351.6,311.6 320.1,316.7 288.6,260.3 257.1,275.3 225.6,286.9 194.1,288.5 162.5,283.2 131.0,300.6 99.5,304.2 68.0,356.7" fill="#9e9ac8" fill-opacity="0.9" stroke="#fff" stroke-width="0.4"><title>diagnostics_clean — unrollLoopsInModule</title></polygon>
<polygon points="68.0,356.5 99.5,304.0 131.0,300.4 162.5,283.1 194.1,288.3 225.6,286.8 257.1,275.1 288.6,260.2 320.1,316.4 351.6,311.4 383.2,318.6 414.7,322.2 446.2,310.8 477.7,313.4 509.2,314.1 540.7,305.9 572.2,152.6 603.8,159.2 635.3,155.2 666.8,137.6 698.3,385.9 729.8,381.6 761.3,372.4 792.8,372.1 824.4,371.4 855.9,372.7 887.4,370.2 918.9,366.7 950.4,380.6 981.9,379.0 1013.5,381.1 1045.0,376.0 1076.5,376.6 1108.0,380.4 1108.0,380.6 1076.5,376.7 1045.0,376.1 1013.5,381.2 981.9,379.2 950.4,380.7 918.9,367.1 887.4,370.6 855.9,373.1 824.4,371.8 792.8,372.5 761.3,372.8 729.8,382.0 698.3,386.3 666.8,137.9 635.3,155.5 603.8,159.5 572.2,152.9 540.7,306.0 509.2,314.2 477.7,313.5 446.2,310.9 414.7,322.3 383.2,318.8 351.6,311.6 320.1,316.7 288.6,260.3 257.1,275.3 225.6,286.9 194.1,288.5 162.5,283.2 131.0,300.6 99.5,304.2 68.0,356.7" fill="#807dba" fill-opacity="0.9" stroke="#fff" stroke-width="0.4"><title>diagnostics_clean — legalizeResourceTypes</title></polygon>
<polygon points="68.0,356.1 99.5,303.6 131.0,300.1 162.5,282.7 194.1,288.1 225.6,286.5 257.1,274.8 288.6,259.9 320.1,316.1 351.6,311.1 383.2,318.3 414.7,321.9 446.2,310.5 477.7,313.1 509.2,313.8 540.7,305.6 572.2,152.0 603.8,158.7 635.3,154.7 666.8,137.1 698.3,385.4 729.8,381.1 761.3,371.9 792.8,371.6 824.4,370.9 855.9,372.1 887.4,369.7 918.9,366.1 950.4,380.3 981.9,378.7 1013.5,380.8 1045.0,375.7 1076.5,376.3 1108.0,380.2 1108.0,380.4 1076.5,376.6 1045.0,376.0 1013.5,381.1 981.9,379.0 950.4,380.6 918.9,366.7 887.4,370.2 855.9,372.7 824.4,371.4 792.8,372.1 761.3,372.4 729.8,381.6 698.3,385.9 666.8,137.6 635.3,155.2 603.8,159.2 572.2,152.6 540.7,305.9 509.2,314.1 477.7,313.4 446.2,310.8 414.7,322.2 383.2,318.6 351.6,311.4 320.1,316.4 288.6,260.2 257.1,275.1 225.6,286.8 194.1,288.3 162.5,283.1 131.0,300.4 99.5,304.0 68.0,356.5" fill="#6a51a3" fill-opacity="0.9" stroke="#fff" stroke-width="0.4"><title>diagnostics_clean — legalizeExistentialTypeLayout</title></polygon>
<polygon points="68.0,354.8 99.5,302.3 131.0,298.7 162.5,281.2 194.1,286.6 225.6,285.0 257.1,273.4 288.6,258.4 320.1,314.7 351.6,309.7 383.2,316.9 414.7,320.5 446.2,309.1 477.7,311.7 509.2,312.4 540.7,304.2 572.2,150.6 603.8,157.3 635.3,153.3 666.8,135.6 698.3,384.0 729.8,379.6 761.3,370.4 792.8,370.1 824.4,369.4 855.9,370.6 887.4,368.2 918.9,364.6 950.4,379.0 981.9,377.4 1013.5,379.4 1045.0,374.3 1076.5,374.9 1108.0,378.8 1108.0,380.2 1076.5,376.3 1045.0,375.7 1013.5,380.8 981.9,378.7 950.4,380.3 918.9,366.1 887.4,369.7 855.9,372.1 824.4,370.9 792.8,371.6 761.3,371.9 729.8,381.1 698.3,385.4 666.8,137.1 635.3,154.7 603.8,158.7 572.2,152.0 540.7,305.6 509.2,313.8 477.7,313.1 446.2,310.5 414.7,321.9 383.2,318.3 351.6,311.1 320.1,316.1 288.6,259.9 257.1,274.8 225.6,286.5 194.1,288.1 162.5,282.7 131.0,300.1 99.5,303.6 68.0,356.1" fill="#bcbddc" fill-opacity="0.9" stroke="#fff" stroke-width="0.4"><title>diagnostics_clean — performMandatoryEarlyInlining</title></polygon>
<polygon points="68.0,354.8 99.5,302.3 131.0,298.7 162.5,281.2 194.1,286.6 225.6,284.9 257.1,273.4 288.6,258.4 320.1,314.7 351.6,309.7 383.2,316.9 414.7,320.5 446.2,309.1 477.7,311.7 509.2,312.4 540.7,304.1 572.2,150.5 603.8,157.3 635.3,153.2 666.8,135.6 698.3,383.9 729.8,379.6 761.3,370.4 792.8,370.0 824.4,369.3 855.9,370.6 887.4,368.1 918.9,364.6 950.4,378.9 981.9,377.4 1013.5,379.4 1045.0,374.2 1076.5,374.9 1108.0,378.7 1108.0,378.8 1076.5,374.9 1045.0,374.3 1013.5,379.4 981.9,377.4 950.4,379.0 918.9,364.6 887.4,368.2 855.9,370.6 824.4,369.4 792.8,370.1 761.3,370.4 729.8,379.6 698.3,384.0 666.8,135.6 635.3,153.3 603.8,157.3 572.2,150.6 540.7,304.2 509.2,312.4 477.7,311.7 446.2,309.1 414.7,320.5 383.2,316.9 351.6,309.7 320.1,314.7 288.6,258.4 257.1,273.4 225.6,285.0 194.1,286.6 162.5,281.2 131.0,298.7 99.5,302.3 68.0,354.8" fill="#dadaeb" fill-opacity="0.9" stroke="#fff" stroke-width="0.4"><title>diagnostics_clean — performForceInlining</title></polygon>
<polygon points="68.0,354.5 99.5,301.9 131.0,298.2 162.5,281.2 194.1,286.1 225.6,284.5 257.1,272.5 288.6,257.5 320.1,313.8 351.6,309.3 383.2,314.9 414.7,318.8 446.2,307.1 477.7,310.0 509.2,310.5 540.7,302.3 572.2,140.2 603.8,146.7 635.3,142.4 666.8,124.8 698.3,376.9 729.8,373.6 761.3,363.0 792.8,363.1 824.4,362.0 855.9,363.5 887.4,360.7 918.9,356.9 950.4,376.3 981.9,374.8 1013.5,376.9 1045.0,371.5 1076.5,372.3 1108.0,376.3 1108.0,378.7 1076.5,374.9 1045.0,374.2 1013.5,379.4 981.9,377.4 950.4,378.9 918.9,364.6 887.4,368.1 855.9,370.6 824.4,369.3 792.8,370.0 761.3,370.4 729.8,379.6 698.3,383.9 666.8,135.6 635.3,153.2 603.8,157.3 572.2,150.5 540.7,304.1 509.2,312.4 477.7,311.7 446.2,309.1 414.7,320.5 383.2,316.9 351.6,309.7 320.1,314.7 288.6,258.4 257.1,273.4 225.6,284.9 194.1,286.6 162.5,281.2 131.0,298.7 99.5,302.3 68.0,354.8" fill="#4a1486" fill-opacity="0.9" stroke="#fff" stroke-width="0.4"><title>diagnostics_clean — linkAndOptimizeIR (self)</title></polygon>
<polygon points="68.0,340.4 99.5,289.8 131.0,285.2 162.5,268.3 194.1,273.0 225.6,270.9 257.1,259.0 288.6,242.5 320.1,301.1 351.6,295.6 383.2,302.3 414.7,305.2 446.2,293.7 477.7,296.5 509.2,296.7 540.7,289.3 572.2,124.8 603.8,131.3 635.3,127.7 666.8,109.7 698.3,362.7 729.8,359.0 761.3,347.8 792.8,348.3 824.4,346.7 855.9,349.3 887.4,345.2 918.9,340.8 950.4,361.1 981.9,360.0 1013.5,362.6 1045.0,356.1 1076.5,357.9 1108.0,362.7 1108.0,376.3 1076.5,372.3 1045.0,371.5 1013.5,376.9 981.9,374.8 950.4,376.3 918.9,356.9 887.4,360.7 855.9,363.5 824.4,362.0 792.8,363.1 761.3,363.0 729.8,373.6 698.3,376.9 666.8,124.8 635.3,142.4 603.8,146.7 572.2,140.2 540.7,302.3 509.2,310.5 477.7,310.0 446.2,307.1 414.7,318.8 383.2,314.9 351.6,309.3 320.1,313.8 288.6,257.5 257.1,272.5 225.6,284.5 194.1,286.1 162.5,281.2 131.0,298.2 99.5,301.9 68.0,354.5" fill="#e6550d" fill-opacity="0.9" stroke="#fff" stroke-width="0.4"><title>diagnostics_clean — generateOutput (self)</title></polygon>
<polygon points="68.0,339.9 99.5,286.4 131.0,284.4 162.5,267.1 194.1,271.9 225.6,269.7 257.1,258.5 288.6,241.2 320.1,300.1 351.6,294.0 383.2,301.8 414.7,303.0 446.2,292.8 477.7,294.0 509.2,294.3 540.7,287.7 572.2,124.0 603.8,129.2 635.3,127.7 666.8,108.6 698.3,361.1 729.8,357.1 761.3,346.7 792.8,346.5 824.4,344.5 855.9,348.3 887.4,343.6 918.9,339.8 950.4,361.1 981.9,359.7 1013.5,361.7 1045.0,356.1 1076.5,357.1 1108.0,361.0 1108.0,362.7 1076.5,357.9 1045.0,356.1 1013.5,362.6 981.9,360.0 950.4,361.1 918.9,340.8 887.4,345.2 855.9,349.3 824.4,346.7 792.8,348.3 761.3,347.8 729.8,359.0 698.3,362.7 666.8,109.7 635.3,127.7 603.8,131.3 572.2,124.8 540.7,289.3 509.2,296.7 477.7,296.5 446.2,293.7 414.7,305.2 383.2,302.3 351.6,295.6 320.1,301.1 288.6,242.5 257.1,259.0 225.6,270.9 194.1,273.0 162.5,268.3 131.0,285.2 99.5,289.8 68.0,340.4" fill="#969696" fill-opacity="0.9" stroke="#fff" stroke-width="0.4"><title>diagnostics_clean — compileInner (self)</title></polygon>
<text x="12" y="578" fill="#666" font-weight="600">phase buckets</text>
<rect x="12" y="586" width="12" height="12" fill="#c7e9c0"/>
<text x="28" y="596" fill="#222">parseTranslationUnit</text>
<rect x="289" y="586" width="12" height="12" fill="#41ab5d"/>
<text x="305" y="596" fill="#222">SemanticChecking</text>
<rect x="566" y="586" width="12" height="12" fill="#006d2c"/>
<text x="582" y="596" fill="#222">generateIR</text>
<rect x="843" y="586" width="12" height="12" fill="#74c476"/>
<text x="859" y="596" fill="#222">frontEndExecute (self)</text>
<rect x="12" y="604" width="12" height="12" fill="#6baed6"/>
<text x="28" y="614" fill="#222">specializeModule</text>
<rect x="289" y="604" width="12" height="12" fill="#2171b5"/>
<text x="305" y="614" fill="#222">simplifyIR</text>
<rect x="566" y="604" width="12" height="12" fill="#08306b"/>
<text x="582" y="614" fill="#222">linkIR</text>
<rect x="843" y="604" width="12" height="12" fill="#9e9ac8"/>
<text x="859" y="614" fill="#222">unrollLoopsInModule</text>
<rect x="12" y="622" width="12" height="12" fill="#807dba"/>
<text x="28" y="632" fill="#222">legalizeResourceTypes</text>
<rect x="289" y="622" width="12" height="12" fill="#6a51a3"/>
<text x="305" y="632" fill="#222">legalizeExistentialTypeLayout</text>
<rect x="566" y="622" width="12" height="12" fill="#bcbddc"/>
<text x="582" y="632" fill="#222">performMandatoryEarlyInlining</text>
<rect x="843" y="622" width="12" height="12" fill="#dadaeb"/>
<text x="859" y="632" fill="#222">performForceInlining</text>
<rect x="12" y="640" width="12" height="12" fill="#4a1486"/>
<text x="28" y="650" fill="#222">linkAndOptimizeIR (self)</text>
<rect x="289" y="640" width="12" height="12" fill="#fd8d3c"/>
<text x="305" y="650" fill="#222">emitEntryPointsSourceFromIR</text>
<rect x="566" y="640" width="12" height="12" fill="#e6550d"/>
<text x="582" y="650" fill="#222">generateOutput (self)</text>
<rect x="843" y="640" width="12" height="12" fill="#969696"/>
<text x="859" y="650" fill="#222">compileInner (self)</text>
</svg>