<svg xmlns="http://www.w3.org/2000/svg" xmlns:xlink="http://www.w3.org/1999/xlink" width="1132" height="680" viewBox="0 0 1132 680" preserveAspectRatio="xMidYMid meet" font-family="sans-serif" font-size="13">
<rect width="1132" height="680" fill="white"/>
<text x="12" y="30" font-size="20" font-weight="bold">diagnostics_clean — Across releases (median ms)</text>
<text x="68" y="60" font-size="15" font-weight="600" fill="#1a1a1a">diagnostics_clean<tspan fill="#888" font-weight="400" text-decoration="none">  0.91×</tspan></text>
<line x1="68.0" y1="516.0" x2="1108.0" y2="516.0" stroke="#eee"/>
<text x="64.0" y="519.0" text-anchor="end" fill="#999">0.0</text>
<line x1="68.0" y1="296.0" x2="1108.0" y2="296.0" stroke="#eee"/>
<text x="64.0" y="299.0" text-anchor="end" fill="#999">45</text>
<line x1="68.0" y1="76.0" x2="1108.0" y2="76.0" stroke="#eee"/>
<text x="64.0" y="79.0" text-anchor="end" fill="#999">90</text>
<line x1="68.0" y1="76.0" x2="68.0" y2="516.0" stroke="#333"/>
<line x1="68.0" y1="516.0" x2="1108.0" y2="516.0" stroke="#333"/>
<line x1="68.0" y1="516.0" x2="68.0" y2="519.0" stroke="#999"/>
<text x="68.0" y="531.0" text-anchor="end" fill="#666" transform="rotate(-50 68.0 531.0)">25.12</text>
<line x1="111.3" y1="516.0" x2="111.3" y2="519.0" stroke="#999"/>
<text x="111.3" y="531.0" text-anchor="end" fill="#666" transform="rotate(-50 111.3 531.0)">25.13</text>
<line x1="154.7" y1="516.0" x2="154.7" y2="519.0" stroke="#999"/>
<text x="154.7" y="531.0" text-anchor="end" fill="#666" transform="rotate(-50 154.7 531.0)">25.14</text>
<line x1="198.0" y1="516.0" x2="198.0" y2="519.0" stroke="#999"/>
<text x="198.0" y="531.0" text-anchor="end" fill="#666" transform="rotate(-50 198.0 531.0)">25.15</text>
<line x1="241.3" y1="516.0" x2="241.3" y2="519.0" stroke="#999"/>
<text x="241.3" y="531.0" text-anchor="end" fill="#666" transform="rotate(-50 241.3 531.0)">25.16</text>
<line x1="284.7" y1="516.0" x2="284.7" y2="519.0" stroke="#999"/>
<text x="284.7" y="531.0" text-anchor="end" fill="#666" transform="rotate(-50 284.7 531.0)">25.17</text>
<line x1="328.0" y1="516.0" x2="328.0" y2="519.0" stroke="#999"/>
<text x="328.0" y="531.0" text-anchor="end" fill="#666" transform="rotate(-50 328.0 531.0)">25.18</text>
<line x1="371.3" y1="516.0" x2="371.3" y2="519.0" stroke="#999"/>
<text x="371.3" y="531.0" text-anchor="end" fill="#666" transform="rotate(-50 371.3 531.0)">25.19</text>
<line x1="414.7" y1="516.0" x2="414.7" y2="519.0" stroke="#999"/>
<text x="414.7" y="531.0" text-anchor="end" fill="#666" transform="rotate(-50 414.7 531.0)">25.20</text>
<line x1="458.0" y1="516.0" x2="458.0" y2="519.0" stroke="#999"/>
<text x="458.0" y="531.0" text-anchor="end" fill="#666" transform="rotate(-50 458.0 531.0)">25.21</text>
<line x1="501.3" y1="516.0" x2="501.3" y2="519.0" stroke="#999"/>
<text x="501.3" y="531.0" text-anchor="end" fill="#666" transform="rotate(-50 501.3 531.0)">25.22</text>
<line x1="544.7" y1="516.0" x2="544.7" y2="519.0" stroke="#999"/>
<text x="544.7" y="531.0" text-anchor="end" fill="#666" transform="rotate(-50 544.7 531.0)">25.23</text>
<line x1="588.0" y1="516.0" x2="588.0" y2="519.0" stroke="#999"/>
<text x="588.0" y="531.0" text-anchor="end" fill="#666" transform="rotate(-50 588.0 531.0)">25.24</text>
<line x1="631.3" y1="516.0" x2="631.3" y2="519.0" stroke="#999"/>
<text x="631.3" y="531.0" text-anchor="end" fill="#666" transform="rotate(-50 631.3 531.0)">26.1</text>
<line x1="674.7" y1="516.0" x2="674.7" y2="519.0" stroke="#999"/>
<text x="674.7" y="531.0" text-anchor="end" fill="#666" transform="rotate(-50 674.7 531.0)">26.2</text>
<line x1="718.0" y1="516.0" x2="718.0" y2="519.0" stroke="#999"/>
<text x="718.0" y="531.0" text-anchor="end" fill="#666" transform="rotate(-50 718.0 531.0)">26.3</text>
<line x1="761.3" y1="516.0" x2="761.3" y2="519.0" stroke="#999"/>
<text x="761.3" y="531.0" text-anchor="end" fill="#666" transform="rotate(-50 761.3 531.0)">26.4</text>
<line x1="804.7" y1="516.0" x2="804.7" y2="519.0" stroke="#999"/>
<text x="804.7" y="531.0" text-anchor="end" fill="#666" transform="rotate(-50 804.7 531.0)">26.5</text>
<line x1="848.0" y1="516.0" x2="848.0" y2="519.0" stroke="#999"/>
<text x="848.0" y="531.0" text-anchor="end" fill="#666" transform="rotate(-50 848.0 531.0)">26.7</text>
<line x1="891.3" y1="516.0" x2="891.3" y2="519.0" stroke="#999"/>
<text x="891.3" y="531.0" text-anchor="end" fill="#666" transform="rotate(-50 891.3 531.0)">26.8</text>
<line x1="934.7" y1="516.0" x2="934.7" y2="519.0" stroke="#999"/>
<text x="934.7" y="531.0" text-anchor="end" fill="#666" transform="rotate(-50 934.7 531.0)">26.9</text>
<line x1="978.0" y1="516.0" x2="978.0" y2="519.0" stroke="#999"/>
<text x="978.0" y="531.0" text-anchor="end" fill="#666" transform="rotate(-50 978.0 531.0)">26.10</text>
<line x1="1021.3" y1="516.0" x2="1021.3" y2="519.0" stroke="#999"/>
<text x="1021.3" y="531.0" text-anchor="end" fill="#666" transform="rotate(-50 1021.3 531.0)">26.11</text>
<line x1="1064.7" y1="516.0" x2="1064.7" y2="519.0" stroke="#999"/>
<text x="1064.7" y="531.0" text-anchor="end" fill="#666" transform="rotate(-50 1064.7 531.0)">26.12</text>
<line x1="1108.0" y1="516.0" x2="1108.0" y2="519.0" stroke="#999"/>
<text x="1108.0" y="531.0" text-anchor="end" fill="#666" transform="rotate(-50 1108.0 531.0)">26.13</text>
<polygon points="68.0,506.2 111.3,504.0 154.7,506.4 198.0,507.1 241.3,507.0 284.7,507.2 328.0,507.3 371.3,507.1 414.7,507.4 458.0,507.2 501.3,507.4 544.7,507.4 588.0,506.4 631.3,506.5 674.7,506.3 718.0,506.2 761.3,505.7 804.7,506.0 848.0,504.3 891.3,505.4 934.7,505.6 978.0,505.3 1021.3,504.9 1064.7,505.2 1108.0,505.2 1108.0,516.0 1064.7,516.0 1021.3,516.0 978.0,516.0 934.7,516.0 891.3,516.0 848.0,516.0 804.7,516.0 761.3,516.0 718.0,516.0 674.7,516.0 631.3,516.0 588.0,516.0 544.7,516.0 501.3,516.0 458.0,516.0 414.7,516.0 371.3,516.0 328.0,516.0 284.7,516.0 241.3,516.0 198.0,516.0 154.7,516.0 111.3,516.0 68.0,516.0" fill="#c7e9c0" fill-opacity="0.9" stroke="#fff" stroke-width="0.4"><title>diagnostics_clean — parseTranslationUnit</title></polygon>
<polygon points="68.0,432.6 111.3,426.3 154.7,416.1 198.0,367.3 241.3,377.5 284.7,371.5 328.0,371.8 371.3,371.6 414.7,370.5 458.0,370.1 501.3,397.0 544.7,394.9 588.0,396.2 631.3,395.4 674.7,382.9 718.0,384.5 761.3,376.4 804.7,382.8 848.0,325.0 891.3,339.6 934.7,346.9 978.0,345.2 1021.3,434.7 1064.7,449.3 1108.0,451.5 1108.0,505.2 1064.7,505.2 1021.3,504.9 978.0,505.3 934.7,505.6 891.3,505.4 848.0,504.3 804.7,506.0 761.3,505.7 718.0,506.2 674.7,506.3 631.3,506.5 588.0,506.4 544.7,507.4 501.3,507.4 458.0,507.2 414.7,507.4 371.3,507.1 328.0,507.3 284.7,507.2 241.3,507.0 198.0,507.1 154.7,506.4 111.3,504.0 68.0,506.2" fill="#41ab5d" fill-opacity="0.9" stroke="#fff" stroke-width="0.4"><title>diagnostics_clean — SemanticChecking</title></polygon>
<polygon points="68.0,398.2 111.3,387.0 154.7,375.0 198.0,327.2 241.3,338.6 284.7,329.3 328.0,330.7 371.3,330.3 414.7,330.2 458.0,328.9 501.3,356.1 544.7,353.7 588.0,356.9 631.3,355.2 674.7,341.0 718.0,343.7 761.3,333.9 804.7,341.3 848.0,209.3 891.3,251.4 934.7,258.2 978.0,254.3 1021.3,375.6 1064.7,405.4 1108.0,405.0 1108.0,451.5 1064.7,449.3 1021.3,434.7 978.0,345.2 934.7,346.9 891.3,339.6 848.0,325.0 804.7,382.8 761.3,376.4 718.0,384.5 674.7,382.9 631.3,395.4 588.0,396.2 544.7,394.9 501.3,397.0 458.0,370.1 414.7,370.5 371.3,371.6 328.0,371.8 284.7,371.5 241.3,377.5 198.0,367.3 154.7,416.1 111.3,426.3 68.0,432.6" fill="#006d2c" fill-opacity="0.9" stroke="#fff" stroke-width="0.4"><title>diagnostics_clean — generateIR</title></polygon>
<polygon points="68.0,388.4 111.3,386.0 154.7,373.8 198.0,327.2 241.3,336.6 284.7,327.5 328.0,328.8 371.3,327.5 414.7,327.9 458.0,327.1 501.3,354.4 544.7,352.4 588.0,355.4 631.3,353.4 674.7,338.7 718.0,341.0 761.3,332.6 804.7,338.2 848.0,209.3 891.3,249.6 934.7,255.8 978.0,247.1 1021.3,368.6 1064.7,401.8 1108.0,403.1 1108.0,405.0 1064.7,405.4 1021.3,375.6 978.0,254.3 934.7,258.2 891.3,251.4 848.0,209.3 804.7,341.3 761.3,333.9 718.0,343.7 674.7,341.0 631.3,355.2 588.0,356.9 544.7,353.7 501.3,356.1 458.0,328.9 414.7,330.2 371.3,330.3 328.0,330.7 284.7,329.3 241.3,338.6 198.0,327.2 154.7,375.0 111.3,387.0 68.0,398.2" fill="#74c476" fill-opacity="0.9" stroke="#fff" stroke-width="0.4"><title>diagnostics_clean — frontEndExecute (self)</title></polygon>
<polygon points="68.0,388.4 111.3,385.8 154.7,373.6 198.0,327.0 241.3,336.4 284.7,327.3 328.0,328.6 371.3,327.2 414.7,327.7 458.0,326.9 501.3,354.2 544.7,352.2 588.0,355.0 631.3,353.0 674.7,338.3 718.0,340.6 761.3,332.2 804.7,337.8 848.0,203.1 891.3,244.0 934.7,250.1 978.0,241.4 1021.3,362.8 1064.7,396.5 1108.0,402.5 1108.0,403.1 1064.7,401.8 1021.3,368.6 978.0,247.1 934.7,255.8 891.3,249.6 848.0,209.3 804.7,338.2 761.3,332.6 718.0,341.0 674.7,338.7 631.3,353.4 588.0,355.4 544.7,352.4 501.3,354.4 458.0,327.1 414.7,327.9 371.3,327.5 328.0,328.8 284.7,327.5 241.3,336.6 198.0,327.2 154.7,373.8 111.3,386.0 68.0,388.4" fill="#6baed6" fill-opacity="0.9" stroke="#fff" stroke-width="0.4"><title>diagnostics_clean — specializeModule</title></polygon>
<polygon points="68.0,388.4 111.3,385.0 154.7,372.7 198.0,326.3 241.3,335.7 284.7,326.6 328.0,327.8 371.3,326.4 414.7,326.9 458.0,326.1 501.3,353.4 544.7,351.4 588.0,354.3 631.3,352.3 674.7,337.5 718.0,339.8 761.3,331.4 804.7,337.0 848.0,199.3 891.3,240.7 934.7,246.8 978.0,238.1 1021.3,359.2 1064.7,393.6 1108.0,401.7 1108.0,402.5 1064.7,396.5 1021.3,362.8 978.0,241.4 934.7,250.1 891.3,244.0 848.0,203.1 804.7,337.8 761.3,332.2 718.0,340.6 674.7,338.3 631.3,353.0 588.0,355.0 544.7,352.2 501.3,354.2 458.0,326.9 414.7,327.7 371.3,327.2 328.0,328.6 284.7,327.3 241.3,336.4 198.0,327.0 154.7,373.6 111.3,385.8 68.0,388.4" fill="#2171b5" fill-opacity="0.9" stroke="#fff" stroke-width="0.4"><title>diagnostics_clean — simplifyIR</title></polygon>
<polygon points="68.0,388.4 111.3,378.4 154.7,365.2 198.0,319.9 241.3,332.4 284.7,323.2 328.0,324.3 371.3,322.9 414.7,323.4 458.0,322.6 501.3,350.2 544.7,348.0 588.0,350.8 631.3,349.2 674.7,334.2 718.0,336.4 761.3,325.8 804.7,333.6 848.0,139.0 891.3,197.7 934.7,204.6 978.0,192.1 1021.3,355.9 1064.7,391.1 1108.0,400.4 1108.0,401.7 1064.7,393.6 1021.3,359.2 978.0,238.1 934.7,246.8 891.3,240.7 848.0,199.3 804.7,337.0 761.3,331.4 718.0,339.8 674.7,337.5 631.3,352.3 588.0,354.3 544.7,351.4 501.3,353.4 458.0,326.1 414.7,326.9 371.3,326.4 328.0,327.8 284.7,326.6 241.3,335.7 198.0,326.3 154.7,372.7 111.3,385.0 68.0,388.4" fill="#08306b" fill-opacity="0.9" stroke="#fff" stroke-width="0.4"><title>diagnostics_clean — linkIR</title></polygon>
<polygon points="68.0,388.4 111.3,378.4 154.7,365.2 198.0,319.9 241.3,332.4 284.7,323.2 328.0,324.3 371.3,322.9 414.7,323.4 458.0,322.6 501.3,350.2 544.7,348.0 588.0,350.8 631.3,349.2 674.7,334.2 718.0,336.4 761.3,325.8 804.7,333.6 848.0,138.9 891.3,197.6 934.7,204.6 978.0,192.1 1021.3,355.8 1064.7,391.1 1108.0,400.4 1108.0,400.4 1064.7,391.1 1021.3,355.9 978.0,192.1 934.7,204.6 891.3,197.7 848.0,139.0 804.7,333.6 761.3,325.8 718.0,336.4 674.7,334.2 631.3,349.2 588.0,350.8 544.7,348.0 501.3,350.2 458.0,322.6 414.7,323.4 371.3,322.9 328.0,324.3 284.7,323.2 241.3,332.4 198.0,319.9 154.7,365.2 111.3,378.4 68.0,388.4" fill="#9e9ac8" fill-opacity="0.9" stroke="#fff" stroke-width="0.4"><title>diagnostics_clean — unrollLoopsInModule</title></polygon>
<polygon points="68.0,388.4 111.3,378.3 154.7,365.1 198.0,319.7 241.3,332.2 284.7,323.1 328.0,324.2 371.3,322.8 414.7,323.3 458.0,322.5 501.3,350.1 544.7,347.9 588.0,350.7 631.3,349.1 674.7,334.1 718.0,336.3 761.3,325.7 804.7,333.5 848.0,138.6 891.3,197.3 934.7,204.2 978.0,191.7 1021.3,355.5 1064.7,390.7 1108.0,400.3 1108.0,400.4 1064.7,391.1 1021.3,355.8 978.0,192.1 934.7,204.6 891.3,197.6 848.0,138.9 804.7,333.6 761.3,325.8 718.0,336.4 674.7,334.2 631.3,349.2 588.0,350.8 544.7,348.0 501.3,350.2 458.0,322.6 414.7,323.4 371.3,322.9 328.0,324.3 284.7,323.2 241.3,332.4 198.0,319.9 154.7,365.2 111.3,378.4 68.0,388.4" fill="#807dba" fill-opacity="0.9" stroke="#fff" stroke-width="0.4"><title>diagnostics_clean — legalizeResourceTypes</title></polygon>
<polygon points="68.0,388.4 111.3,378.0 154.7,364.8 198.0,319.4 241.3,331.9 284.7,322.8 328.0,323.9 371.3,322.6 414.7,323.0 458.0,322.3 501.3,349.9 544.7,347.7 588.0,350.4 631.3,348.8 674.7,333.8 718.0,336.0 761.3,325.4 804.7,333.3 848.0,138.0 891.3,196.8 934.7,203.8 978.0,191.3 1021.3,354.9 1064.7,390.2 1108.0,400.0 1108.0,400.3 1064.7,390.7 1021.3,355.5 978.0,191.7 934.7,204.2 891.3,197.3 848.0,138.6 804.7,333.5 761.3,325.7 718.0,336.3 674.7,334.1 631.3,349.1 588.0,350.7 544.7,347.9 501.3,350.1 458.0,322.5 414.7,323.3 371.3,322.8 328.0,324.2 284.7,323.1 241.3,332.2 198.0,319.7 154.7,365.1 111.3,378.3 68.0,388.4" fill="#6a51a3" fill-opacity="0.9" stroke="#fff" stroke-width="0.4"><title>diagnostics_clean — legalizeExistentialTypeLayout</title></polygon>
<polygon points="68.0,388.4 111.3,376.7 154.7,363.5 198.0,318.2 241.3,330.6 284.7,321.5 328.0,322.7 371.3,321.3 414.7,321.8 458.0,321.1 501.3,348.6 544.7,346.5 588.0,349.2 631.3,347.6 674.7,332.6 718.0,334.8 761.3,324.2 804.7,332.0 848.0,136.7 891.3,195.4 934.7,202.4 978.0,189.9 1021.3,353.5 1064.7,389.0 1108.0,398.8 1108.0,400.0 1064.7,390.2 1021.3,354.9 978.0,191.3 934.7,203.8 891.3,196.8 848.0,138.0 804.7,333.3 761.3,325.4 718.0,336.0 674.7,333.8 631.3,348.8 588.0,350.4 544.7,347.7 501.3,349.9 458.0,322.3 414.7,323.0 371.3,322.6 328.0,323.9 284.7,322.8 241.3,331.9 198.0,319.4 154.7,364.8 111.3,378.0 68.0,388.4" fill="#bcbddc" fill-opacity="0.9" stroke="#fff" stroke-width="0.4"><title>diagnostics_clean — performMandatoryEarlyInlining</title></polygon>
<polygon points="68.0,388.4 111.3,376.7 154.7,363.5 198.0,318.2 241.3,330.6 284.7,321.5 328.0,322.7 371.3,321.3 414.7,321.7 458.0,321.1 501.3,348.6 544.7,346.5 588.0,349.2 631.3,347.6 674.7,332.6 718.0,334.8 761.3,324.1 804.7,332.0 848.0,136.6 891.3,195.4 934.7,202.4 978.0,189.9 1021.3,353.4 1064.7,388.9 1108.0,398.8 1108.0,398.8 1064.7,389.0 1021.3,353.5 978.0,189.9 934.7,202.4 891.3,195.4 848.0,136.7 804.7,332.0 761.3,324.2 718.0,334.8 674.7,332.6 631.3,347.6 588.0,349.2 544.7,346.5 501.3,348.6 458.0,321.1 414.7,321.8 371.3,321.3 328.0,322.7 284.7,321.5 241.3,330.6 198.0,318.2 154.7,363.5 111.3,376.7 68.0,388.4" fill="#dadaeb" fill-opacity="0.9" stroke="#fff" stroke-width="0.4"><title>diagnostics_clean — performForceInlining</title></polygon>
<polygon points="68.0,383.5 111.3,376.4 154.7,363.2 198.0,318.2 241.3,330.6 284.7,321.2 328.0,322.3 371.3,321.0 414.7,321.3 458.0,320.6 501.3,348.1 544.7,346.0 588.0,347.8 631.3,346.1 674.7,331.1 718.0,333.3 761.3,322.3 804.7,330.4 848.0,125.9 891.3,185.2 934.7,192.9 978.0,180.7 1021.3,346.5 1064.7,383.1 1108.0,396.7 1108.0,398.8 1064.7,388.9 1021.3,353.4 978.0,189.9 934.7,202.4 891.3,195.4 848.0,136.6 804.7,332.0 761.3,324.1 718.0,334.8 674.7,332.6 631.3,347.6 588.0,349.2 544.7,346.5 501.3,348.6 458.0,321.1 414.7,321.7 371.3,321.3 328.0,322.7 284.7,321.5 241.3,330.6 198.0,318.2 154.7,363.5 111.3,376.7 68.0,388.4" fill="#4a1486" fill-opacity="0.9" stroke="#fff" stroke-width="0.4"><title>diagnostics_clean — linkAndOptimizeIR (self)</title></polygon>
<polygon points="68.0,373.7 111.3,364.0 154.7,350.3 198.0,305.9 241.3,319.2 284.7,309.7 328.0,310.5 371.3,308.8 414.7,310.0 458.0,308.6 501.3,334.8 544.7,334.5 588.0,335.8 631.3,334.7 674.7,319.6 718.0,321.0 761.3,309.4 804.7,318.4 848.0,109.8 891.3,172.5 934.7,179.1 978.0,167.6 1021.3,332.0 1064.7,371.1 1108.0,383.9 1108.0,396.7 1064.7,383.1 1021.3,346.5 978.0,180.7 934.7,192.9 891.3,185.2 848.0,125.9 804.7,330.4 761.3,322.3 718.0,333.3 674.7,331.1 631.3,346.1 588.0,347.8 544.7,346.0 501.3,348.1 458.0,320.6 414.7,321.3 371.3,321.0 328.0,322.3 284.7,321.2 241.3,330.6 198.0,318.2 154.7,363.2 111.3,376.4 68.0,383.5" fill="#e6550d" fill-opacity="0.9" stroke="#fff" stroke-width="0.4"><title>diagnostics_clean — generateOutput (self)</title></polygon>
<polygon points="68.0,368.8 111.3,363.6 154.7,342.5 198.0,305.4 241.3,319.2 284.7,308.6 328.0,309.3 371.3,308.0 414.7,308.8 458.0,307.4 501.3,333.8 544.7,332.2 588.0,334.8 631.3,334.0 674.7,318.4 718.0,319.8 761.3,308.2 804.7,317.4 848.0,108.6 891.3,171.6 934.7,177.5 978.0,165.2 1021.3,326.0 1064.7,369.0 1108.0,382.5 1108.0,383.9 1064.7,371.1 1021.3,332.0 978.0,167.6 934.7,179.1 891.3,172.5 848.0,109.8 804.7,318.4 761.3,309.4 718.0,321.0 674.7,319.6 631.3,334.7 588.0,335.8 544.7,334.5 501.3,334.8 458.0,308.6 414.7,310.0 371.3,308.8 328.0,310.5 284.7,309.7 241.3,319.2 198.0,305.9 154.7,350.3 111.3,364.0 68.0,373.7" fill="#969696" fill-opacity="0.9" stroke="#fff" stroke-width="0.4"><title>diagnostics_clean — compileInner (self)</title></polygon>
<text x="12" y="578" fill="#666" font-weight="600">phase buckets</text>
<rect x="12" y="586" width="12" height="12" fill="#c7e9c0"/>
<text x="28" y="596" fill="#222">parseTranslationUnit</text>
<rect x="289" y="586" width="12" height="12" fill="#41ab5d"/>
<text x="305" y="596" fill="#222">SemanticChecking</text>
<rect x="566" y="586" width="12" height="12" fill="#006d2c"/>
<text x="582" y="596" fill="#222">generateIR</text>
<rect x="843" y="586" width="12" height="12" fill="#74c476"/>
<text x="859" y="596" fill="#222">frontEndExecute (self)</text>
<rect x="12" y="604" width="12" height="12" fill="#6baed6"/>
<text x="28" y="614" fill="#222">specializeModule</text>
<rect x="289" y="604" width="12" height="12" fill="#2171b5"/>
<text x="305" y="614" fill="#222">simplifyIR</text>
<rect x="566" y="604" width="12" height="12" fill="#08306b"/>
<text x="582" y="614" fill="#222">linkIR</text>
<rect x="843" y="604" width="12" height="12" fill="#9e9ac8"/>
<text x="859" y="614" fill="#222">unrollLoopsInModule</text>
<rect x="12" y="622" width="12" height="12" fill="#807dba"/>
<text x="28" y="632" fill="#222">legalizeResourceTypes</text>
<rect x="289" y="622" width="12" height="12" fill="#6a51a3"/>
<text x="305" y="632" fill="#222">legalizeExistentialTypeLayout</text>
<rect x="566" y="622" width="12" height="12" fill="#bcbddc"/>
<text x="582" y="632" fill="#222">performMandatoryEarlyInlining</text>
<rect x="843" y="622" width="12" height="12" fill="#dadaeb"/>
<text x="859" y="632" fill="#222">performForceInlining</text>
<rect x="12" y="640" width="12" height="12" fill="#4a1486"/>
<text x="28" y="650" fill="#222">linkAndOptimizeIR (self)</text>
<rect x="289" y="640" width="12" height="12" fill="#fd8d3c"/>
<text x="305" y="650" fill="#222">emitEntryPointsSourceFromIR</text>
<rect x="566" y="640" width="12" height="12" fill="#e6550d"/>
<text x="582" y="650" fill="#222">generateOutput (self)</text>
<rect x="843" y="640" width="12" height="12" fill="#969696"/>
<text x="859" y="650" fill="#222">compileInner (self)</text>
</svg>