<svg xmlns="http://www.w3.org/2000/svg" xmlns:xlink="http://www.w3.org/1999/xlink" width="1132" height="680" viewBox="0 0 1132 680" preserveAspectRatio="xMidYMid meet" font-family="sans-serif" font-size="13">
<rect width="1132" height="680" fill="white"/>
<text x="12" y="30" font-size="20" font-weight="bold">diagnostics_clean — full phase breakdown across releases (median ms)</text>
<text x="68" y="60" font-size="15" font-weight="600" fill="#1a1a1a">diagnostics_clean<tspan fill="#888" font-weight="400" text-decoration="none">  0.97×</tspan></text>
<line x1="68.0" y1="516.0" x2="1108.0" y2="516.0" stroke="#eee"/>
<text x="64.0" y="519.0" text-anchor="end" fill="#999">0.0</text>
<line x1="68.0" y1="296.0" x2="1108.0" y2="296.0" stroke="#eee"/>
<text x="64.0" y="299.0" text-anchor="end" fill="#999">35</text>
<line x1="68.0" y1="76.0" x2="1108.0" y2="76.0" stroke="#eee"/>
<text x="64.0" y="79.0" text-anchor="end" fill="#999">71</text>
<line x1="68.0" y1="76.0" x2="68.0" y2="516.0" stroke="#333"/>
<line x1="68.0" y1="516.0" x2="1108.0" y2="516.0" stroke="#333"/>
<line x1="956.3" y1="76.0" x2="956.3" y2="516.0" stroke="#e8731a" stroke-width="1.2" stroke-dasharray="4 3"/>
<text x="959.3" y="87.0" fill="#e8731a" font-size="11">daily →</text>
<line x1="68.0" y1="516.0" x2="68.0" y2="519.0" stroke="#999"/>
<text x="68.0" y="531.0" text-anchor="end" fill="#666" transform="rotate(-50 68.0 531.0)">25.14</text>
<line x1="111.3" y1="516.0" x2="111.3" y2="519.0" stroke="#999"/>
<text x="111.3" y="531.0" text-anchor="end" fill="#666" transform="rotate(-50 111.3 531.0)">25.15</text>
<line x1="154.7" y1="516.0" x2="154.7" y2="519.0" stroke="#999"/>
<text x="154.7" y="531.0" text-anchor="end" fill="#666" transform="rotate(-50 154.7 531.0)">25.16</text>
<line x1="198.0" y1="516.0" x2="198.0" y2="519.0" stroke="#999"/>
<text x="198.0" y="531.0" text-anchor="end" fill="#666" transform="rotate(-50 198.0 531.0)">25.17</text>
<line x1="241.3" y1="516.0" x2="241.3" y2="519.0" stroke="#999"/>
<text x="241.3" y="531.0" text-anchor="end" fill="#666" transform="rotate(-50 241.3 531.0)">25.18</text>
<line x1="284.7" y1="516.0" x2="284.7" y2="519.0" stroke="#999"/>
<text x="284.7" y="531.0" text-anchor="end" fill="#666" transform="rotate(-50 284.7 531.0)">25.19</text>
<line x1="328.0" y1="516.0" x2="328.0" y2="519.0" stroke="#999"/>
<text x="328.0" y="531.0" text-anchor="end" fill="#666" transform="rotate(-50 328.0 531.0)">25.20</text>
<line x1="371.3" y1="516.0" x2="371.3" y2="519.0" stroke="#999"/>
<text x="371.3" y="531.0" text-anchor="end" fill="#666" transform="rotate(-50 371.3 531.0)">25.21</text>
<line x1="414.7" y1="516.0" x2="414.7" y2="519.0" stroke="#999"/>
<text x="414.7" y="531.0" text-anchor="end" fill="#666" transform="rotate(-50 414.7 531.0)">25.22</text>
<line x1="458.0" y1="516.0" x2="458.0" y2="519.0" stroke="#999"/>
<text x="458.0" y="531.0" text-anchor="end" fill="#666" transform="rotate(-50 458.0 531.0)">25.23</text>
<line x1="501.3" y1="516.0" x2="501.3" y2="519.0" stroke="#999"/>
<text x="501.3" y="531.0" text-anchor="end" fill="#666" transform="rotate(-50 501.3 531.0)">25.24</text>
<line x1="544.7" y1="516.0" x2="544.7" y2="519.0" stroke="#999"/>
<text x="544.7" y="531.0" text-anchor="end" fill="#666" transform="rotate(-50 544.7 531.0)">26.1</text>
<line x1="588.0" y1="516.0" x2="588.0" y2="519.0" stroke="#999"/>
<text x="588.0" y="531.0" text-anchor="end" fill="#666" transform="rotate(-50 588.0 531.0)">26.2</text>
<line x1="631.3" y1="516.0" x2="631.3" y2="519.0" stroke="#999"/>
<text x="631.3" y="531.0" text-anchor="end" fill="#666" transform="rotate(-50 631.3 531.0)">26.3</text>
<line x1="674.7" y1="516.0" x2="674.7" y2="519.0" stroke="#999"/>
<text x="674.7" y="531.0" text-anchor="end" fill="#666" transform="rotate(-50 674.7 531.0)">26.4</text>
<line x1="718.0" y1="516.0" x2="718.0" y2="519.0" stroke="#999"/>
<text x="718.0" y="531.0" text-anchor="end" fill="#666" transform="rotate(-50 718.0 531.0)">26.5</text>
<line x1="761.3" y1="516.0" x2="761.3" y2="519.0" stroke="#999"/>
<text x="761.3" y="531.0" text-anchor="end" fill="#666" transform="rotate(-50 761.3 531.0)">26.7</text>
<line x1="804.7" y1="516.0" x2="804.7" y2="519.0" stroke="#999"/>
<text x="804.7" y="531.0" text-anchor="end" fill="#666" transform="rotate(-50 804.7 531.0)">26.8</text>
<line x1="848.0" y1="516.0" x2="848.0" y2="519.0" stroke="#999"/>
<text x="848.0" y="531.0" text-anchor="end" fill="#666" transform="rotate(-50 848.0 531.0)">26.9</text>
<line x1="891.3" y1="516.0" x2="891.3" y2="519.0" stroke="#999"/>
<text x="891.3" y="531.0" text-anchor="end" fill="#666" transform="rotate(-50 891.3 531.0)">26.10</text>
<line x1="934.7" y1="516.0" x2="934.7" y2="519.0" stroke="#999"/>
<text x="934.7" y="531.0" text-anchor="end" fill="#666" transform="rotate(-50 934.7 531.0)">26.11</text>
<line x1="978.0" y1="516.0" x2="978.0" y2="519.0" stroke="#999"/>
<text x="978.0" y="531.0" text-anchor="end" fill="#e8731a" transform="rotate(-50 978.0 531.0)">06-25</text>
<line x1="1021.3" y1="516.0" x2="1021.3" y2="519.0" stroke="#999"/>
<text x="1021.3" y="531.0" text-anchor="end" fill="#e8731a" transform="rotate(-50 1021.3 531.0)">06-26</text>
<line x1="1064.7" y1="516.0" x2="1064.7" y2="519.0" stroke="#999"/>
<text x="1064.7" y="531.0" text-anchor="end" fill="#e8731a" transform="rotate(-50 1064.7 531.0)">06-28</text>
<line x1="1108.0" y1="516.0" x2="1108.0" y2="519.0" stroke="#999"/>
<text x="1108.0" y="531.0" text-anchor="end" fill="#e8731a" transform="rotate(-50 1108.0 531.0)">07-01</text>
<polygon points="68.0,505.0 111.3,505.8 154.7,505.6 198.0,505.3 241.3,505.6 284.7,505.2 328.0,505.3 371.3,505.4 414.7,505.6 458.0,505.7 501.3,504.6 544.7,504.6 588.0,504.8 631.3,504.2 674.7,504.0 718.0,503.5 761.3,503.0 804.7,503.1 848.0,503.3 891.3,503.5 934.7,503.5 978.0,502.0 1021.3,502.0 1064.7,502.2 1108.0,501.8 1108.0,516.0 1064.7,516.0 1021.3,516.0 978.0,516.0 934.7,516.0 891.3,516.0 848.0,516.0 804.7,516.0 761.3,516.0 718.0,516.0 674.7,516.0 631.3,516.0 588.0,516.0 544.7,516.0 501.3,516.0 458.0,516.0 414.7,516.0 371.3,516.0 328.0,516.0 284.7,516.0 241.3,516.0 198.0,516.0 154.7,516.0 111.3,516.0 68.0,516.0" fill="#c7e9c0" fill-opacity="0.9" stroke="#fff" stroke-width="0.4"><title>diagnostics_clean — parseTranslationUnit</title></polygon>
<polygon points="68.0,402.6 111.3,343.0 154.7,342.0 198.0,333.9 241.3,337.7 284.7,337.1 328.0,335.2 371.3,336.8 414.7,366.7 458.0,368.0 501.3,366.0 544.7,365.9 588.0,354.3 631.3,352.8 674.7,351.0 718.0,344.8 761.3,312.7 804.7,310.8 848.0,308.0 891.3,303.4 934.7,440.7 978.0,433.6 1021.3,433.1 1064.7,434.0 1108.0,432.5 1108.0,501.8 1064.7,502.2 1021.3,502.0 978.0,502.0 934.7,503.5 891.3,503.5 848.0,503.3 804.7,503.1 761.3,503.0 718.0,503.5 674.7,504.0 631.3,504.2 588.0,504.8 544.7,504.6 501.3,504.6 458.0,505.7 414.7,505.6 371.3,505.4 328.0,505.3 284.7,505.2 241.3,505.6 198.0,505.3 154.7,505.6 111.3,505.8 68.0,505.0" fill="#41ab5d" fill-opacity="0.9" stroke="#fff" stroke-width="0.4"><title>diagnostics_clean — SemanticChecking</title></polygon>
<polygon points="68.0,354.6 111.3,295.0 154.7,293.8 198.0,284.2 241.3,288.1 284.7,287.1 328.0,285.5 371.3,286.7 414.7,317.3 458.0,319.1 501.3,317.4 544.7,316.0 588.0,304.3 631.3,302.9 674.7,299.8 718.0,291.9 761.3,210.7 804.7,208.0 848.0,205.4 891.3,201.1 934.7,392.6 978.0,382.1 1021.3,381.6 1064.7,382.1 1108.0,379.7 1108.0,432.5 1064.7,434.0 1021.3,433.1 978.0,433.6 934.7,440.7 891.3,303.4 848.0,308.0 804.7,310.8 761.3,312.7 718.0,344.8 674.7,351.0 631.3,352.8 588.0,354.3 544.7,365.9 501.3,366.0 458.0,368.0 414.7,366.7 371.3,336.8 328.0,335.2 284.7,337.1 241.3,337.7 198.0,333.9 154.7,342.0 111.3,343.0 68.0,402.6" fill="#006d2c" fill-opacity="0.9" stroke="#fff" stroke-width="0.4"><title>diagnostics_clean — generateIR</title></polygon>
<polygon points="68.0,353.0 111.3,293.4 154.7,292.7 198.0,282.0 241.3,285.7 284.7,284.4 328.0,283.5 371.3,284.2 414.7,315.8 458.0,317.0 501.3,314.7 544.7,313.2 588.0,302.4 631.3,300.3 674.7,296.4 718.0,289.8 761.3,208.4 804.7,206.0 848.0,202.6 891.3,198.7 934.7,390.6 978.0,379.6 1021.3,379.1 1064.7,379.2 1108.0,377.2 1108.0,379.7 1064.7,382.1 1021.3,381.6 978.0,382.1 934.7,392.6 891.3,201.1 848.0,205.4 804.7,208.0 761.3,210.7 718.0,291.9 674.7,299.8 631.3,302.9 588.0,304.3 544.7,316.0 501.3,317.4 458.0,319.1 414.7,317.3 371.3,286.7 328.0,285.5 284.7,287.1 241.3,288.1 198.0,284.2 154.7,293.8 111.3,295.0 68.0,354.6" fill="#74c476" fill-opacity="0.9" stroke="#fff" stroke-width="0.4"><title>diagnostics_clean — frontEndExecute (self)</title></polygon>
<polygon points="68.0,352.8 111.3,293.1 154.7,292.4 198.0,281.8 241.3,285.4 284.7,284.1 328.0,283.2 371.3,283.9 414.7,315.5 458.0,316.8 501.3,314.2 544.7,312.7 588.0,302.0 631.3,299.8 674.7,295.9 718.0,289.2 761.3,201.3 804.7,199.1 848.0,195.5 891.3,191.6 934.7,384.4 978.0,372.5 1021.3,372.0 1064.7,372.1 1108.0,370.0 1108.0,377.2 1064.7,379.2 1021.3,379.1 978.0,379.6 934.7,390.6 891.3,198.7 848.0,202.6 804.7,206.0 761.3,208.4 718.0,289.8 674.7,296.4 631.3,300.3 588.0,302.4 544.7,313.2 501.3,314.7 458.0,317.0 414.7,315.8 371.3,284.2 328.0,283.5 284.7,284.4 241.3,285.7 198.0,282.0 154.7,292.7 111.3,293.4 68.0,353.0" fill="#6baed6" fill-opacity="0.9" stroke="#fff" stroke-width="0.4"><title>diagnostics_clean — specializeModule</title></polygon>
<polygon points="68.0,351.8 111.3,292.2 154.7,291.5 198.0,280.8 241.3,284.4 284.7,283.1 328.0,282.2 371.3,282.9 414.7,314.5 458.0,315.8 501.3,313.3 544.7,311.8 588.0,301.1 631.3,298.9 674.7,294.9 718.0,288.1 761.3,197.3 804.7,195.0 848.0,191.4 891.3,187.4 934.7,380.7 978.0,369.0 1021.3,368.5 1064.7,368.6 1108.0,366.5 1108.0,370.0 1064.7,372.1 1021.3,372.0 978.0,372.5 934.7,384.4 891.3,191.6 848.0,195.5 804.7,199.1 761.3,201.3 718.0,289.2 674.7,295.9 631.3,299.8 588.0,302.0 544.7,312.7 501.3,314.2 458.0,316.8 414.7,315.5 371.3,283.9 328.0,283.2 284.7,284.1 241.3,285.4 198.0,281.8 154.7,292.4 111.3,293.1 68.0,352.8" fill="#2171b5" fill-opacity="0.9" stroke="#fff" stroke-width="0.4"><title>diagnostics_clean — simplifyIR</title></polygon>
<polygon points="68.0,346.9 111.3,289.3 154.7,288.5 198.0,277.3 241.3,280.9 284.7,279.5 328.0,278.6 371.3,279.3 414.7,311.1 458.0,312.4 501.3,310.1 544.7,308.3 588.0,297.5 631.3,295.4 674.7,290.6 718.0,282.9 761.3,148.7 804.7,145.9 848.0,141.5 891.3,137.5 934.7,378.0 978.0,366.4 1021.3,365.9 1064.7,365.9 1108.0,363.8 1108.0,366.5 1064.7,368.6 1021.3,368.5 978.0,369.0 934.7,380.7 891.3,187.4 848.0,191.4 804.7,195.0 761.3,197.3 718.0,288.1 674.7,294.9 631.3,298.9 588.0,301.1 544.7,311.8 501.3,313.3 458.0,315.8 414.7,314.5 371.3,282.9 328.0,282.2 284.7,283.1 241.3,284.4 198.0,280.8 154.7,291.5 111.3,292.2 68.0,351.8" fill="#08306b" fill-opacity="0.9" stroke="#fff" stroke-width="0.4"><title>diagnostics_clean — linkIR</title></polygon>
<polygon points="68.0,346.9 111.3,289.3 154.7,288.5 198.0,277.3 241.3,280.9 284.7,279.5 328.0,278.6 371.3,279.3 414.7,311.1 458.0,312.4 501.3,310.1 544.7,308.3 588.0,297.5 631.3,295.4 674.7,290.6 718.0,282.9 761.3,148.6 804.7,145.8 848.0,141.4 891.3,137.5 934.7,377.9 978.0,366.3 1021.3,365.8 1064.7,365.9 1108.0,363.7 1108.0,363.8 1064.7,365.9 1021.3,365.9 978.0,366.4 934.7,378.0 891.3,137.5 848.0,141.5 804.7,145.9 761.3,148.7 718.0,282.9 674.7,290.6 631.3,295.4 588.0,297.5 544.7,308.3 501.3,310.1 458.0,312.4 414.7,311.1 371.3,279.3 328.0,278.6 284.7,279.5 241.3,280.9 198.0,277.3 154.7,288.5 111.3,289.3 68.0,346.9" fill="#9e9ac8" fill-opacity="0.9" stroke="#fff" stroke-width="0.4"><title>diagnostics_clean — unrollLoopsInModule</title></polygon>
<polygon points="68.0,346.7 111.3,289.1 154.7,288.3 198.0,277.1 241.3,280.8 284.7,279.4 328.0,278.5 371.3,279.2 414.7,310.9 458.0,312.3 501.3,309.9 544.7,308.1 588.0,297.4 631.3,295.3 674.7,290.5 718.0,282.7 761.3,148.3 804.7,145.4 848.0,141.1 891.3,137.1 934.7,377.5 978.0,365.9 1021.3,365.4 1064.7,365.4 1108.0,363.3 1108.0,363.7 1064.7,365.9 1021.3,365.8 978.0,366.3 934.7,377.9 891.3,137.5 848.0,141.4 804.7,145.8 761.3,148.6 718.0,282.9 674.7,290.6 631.3,295.4 588.0,297.5 544.7,308.3 501.3,310.1 458.0,312.4 414.7,311.1 371.3,279.3 328.0,278.6 284.7,279.5 241.3,280.9 198.0,277.3 154.7,288.5 111.3,289.3 68.0,346.9" fill="#807dba" fill-opacity="0.9" stroke="#fff" stroke-width="0.4"><title>diagnostics_clean — legalizeResourceTypes</title></polygon>
<polygon points="68.0,346.3 111.3,288.7 154.7,288.0 198.0,276.7 241.3,280.5 284.7,279.1 328.0,278.2 371.3,278.9 414.7,310.6 458.0,312.0 501.3,309.6 544.7,307.8 588.0,297.1 631.3,295.0 674.7,290.2 718.0,282.4 761.3,147.7 804.7,144.9 848.0,140.5 891.3,136.5 934.7,377.0 978.0,365.3 1021.3,364.8 1064.7,364.9 1108.0,362.6 1108.0,363.3 1064.7,365.4 1021.3,365.4 978.0,365.9 934.7,377.5 891.3,137.1 848.0,141.1 804.7,145.4 761.3,148.3 718.0,282.7 674.7,290.5 631.3,295.3 588.0,297.4 544.7,308.1 501.3,309.9 458.0,312.3 414.7,310.9 371.3,279.2 328.0,278.5 284.7,279.4 241.3,280.8 198.0,277.1 154.7,288.3 111.3,289.1 68.0,346.7" fill="#6a51a3" fill-opacity="0.9" stroke="#fff" stroke-width="0.4"><title>diagnostics_clean — legalizeExistentialTypeLayout</title></polygon>
<polygon points="68.0,344.8 111.3,287.2 154.7,286.5 198.0,275.2 241.3,279.0 284.7,277.6 328.0,276.8 371.3,277.4 414.7,309.1 458.0,310.5 501.3,308.1 544.7,306.3 588.0,295.6 631.3,293.5 674.7,288.6 718.0,280.9 761.3,146.2 804.7,143.4 848.0,139.0 891.3,135.0 934.7,375.4 978.0,363.7 1021.3,363.2 1064.7,363.3 1108.0,361.1 1108.0,362.6 1064.7,364.9 1021.3,364.8 978.0,365.3 934.7,377.0 891.3,136.5 848.0,140.5 804.7,144.9 761.3,147.7 718.0,282.4 674.7,290.2 631.3,295.0 588.0,297.1 544.7,307.8 501.3,309.6 458.0,312.0 414.7,310.6 371.3,278.9 328.0,278.2 284.7,279.1 241.3,280.5 198.0,276.7 154.7,288.0 111.3,288.7 68.0,346.3" fill="#bcbddc" fill-opacity="0.9" stroke="#fff" stroke-width="0.4"><title>diagnostics_clean — performMandatoryEarlyInlining</title></polygon>
<polygon points="68.0,344.8 111.3,287.2 154.7,286.5 198.0,275.2 241.3,279.0 284.7,277.6 328.0,276.7 371.3,277.4 414.7,309.1 458.0,310.5 501.3,308.1 544.7,306.3 588.0,295.6 631.3,293.4 674.7,288.6 718.0,280.8 761.3,146.2 804.7,143.3 848.0,138.9 891.3,135.0 934.7,375.4 978.0,363.6 1021.3,363.1 1064.7,363.3 1108.0,361.0 1108.0,361.1 1064.7,363.3 1021.3,363.2 978.0,363.7 934.7,375.4 891.3,135.0 848.0,139.0 804.7,143.4 761.3,146.2 718.0,280.9 674.7,288.6 631.3,293.5 588.0,295.6 544.7,306.3 501.3,308.1 458.0,310.5 414.7,309.1 371.3,277.4 328.0,276.8 284.7,277.6 241.3,279.0 198.0,275.2 154.7,286.5 111.3,287.2 68.0,344.8" fill="#dadaeb" fill-opacity="0.9" stroke="#fff" stroke-width="0.4"><title>diagnostics_clean — performForceInlining</title></polygon>
<polygon points="68.0,344.5 111.3,286.8 154.7,286.1 198.0,274.7 241.3,278.5 284.7,277.1 328.0,276.1 371.3,276.8 414.7,308.4 458.0,309.9 501.3,306.2 544.7,304.3 588.0,293.5 631.3,291.4 674.7,286.7 718.0,279.0 761.3,134.8 804.7,131.8 848.0,127.5 891.3,123.4 934.7,367.8 978.0,355.7 1021.3,355.3 1064.7,355.5 1108.0,353.2 1108.0,361.0 1064.7,363.3 1021.3,363.1 978.0,363.6 934.7,375.4 891.3,135.0 848.0,138.9 804.7,143.3 761.3,146.2 718.0,280.8 674.7,288.6 631.3,293.4 588.0,295.6 544.7,306.3 501.3,308.1 458.0,310.5 414.7,309.1 371.3,277.4 328.0,276.7 284.7,277.6 241.3,279.0 198.0,275.2 154.7,286.5 111.3,287.2 68.0,344.8" fill="#4a1486" fill-opacity="0.9" stroke="#fff" stroke-width="0.4"><title>diagnostics_clean — linkAndOptimizeIR (self)</title></polygon>
<polygon points="68.0,332.9 111.3,275.5 154.7,274.6 198.0,262.9 241.3,266.5 284.7,264.9 328.0,263.2 371.3,264.8 414.7,296.7 458.0,296.8 501.3,294.2 544.7,291.1 588.0,281.4 631.3,277.7 674.7,274.4 718.0,265.7 761.3,121.1 804.7,117.7 848.0,113.7 891.3,109.2 934.7,354.3 978.0,342.0 1021.3,341.5 1064.7,340.7 1108.0,339.4 1108.0,353.2 1064.7,355.5 1021.3,355.3 978.0,355.7 934.7,367.8 891.3,123.4 848.0,127.5 804.7,131.8 761.3,134.8 718.0,279.0 674.7,286.7 631.3,291.4 588.0,293.5 544.7,304.3 501.3,306.2 458.0,309.9 414.7,308.4 371.3,276.8 328.0,276.1 284.7,277.1 241.3,278.5 198.0,274.7 154.7,286.1 111.3,286.8 68.0,344.5" fill="#e6550d" fill-opacity="0.9" stroke="#fff" stroke-width="0.4"><title>diagnostics_clean — generateOutput (self)</title></polygon>
<polygon points="68.0,332.9 111.3,275.0 154.7,274.6 198.0,261.8 241.3,264.3 284.7,263.6 328.0,262.4 371.3,263.6 414.7,295.6 458.0,295.6 501.3,292.7 544.7,289.6 588.0,280.4 631.3,276.4 674.7,273.2 718.0,262.5 761.3,120.4 804.7,116.5 848.0,112.4 891.3,108.6 934.7,352.0 978.0,340.7 1021.3,340.4 1064.7,340.1 1108.0,338.5 1108.0,339.4 1064.7,340.7 1021.3,341.5 978.0,342.0 934.7,354.3 891.3,109.2 848.0,113.7 804.7,117.7 761.3,121.1 718.0,265.7 674.7,274.4 631.3,277.7 588.0,281.4 544.7,291.1 501.3,294.2 458.0,296.8 414.7,296.7 371.3,264.8 328.0,263.2 284.7,264.9 241.3,266.5 198.0,262.9 154.7,274.6 111.3,275.5 68.0,332.9" fill="#969696" fill-opacity="0.9" stroke="#fff" stroke-width="0.4"><title>diagnostics_clean — compileInner (self)</title></polygon>
<text x="12" y="578" fill="#666" font-weight="600">phase buckets</text>
<rect x="12" y="586" width="12" height="12" fill="#c7e9c0"/>
<text x="28" y="596" fill="#222">parseTranslationUnit</text>
<rect x="289" y="586" width="12" height="12" fill="#41ab5d"/>
<text x="305" y="596" fill="#222">SemanticChecking</text>
<rect x="566" y="586" width="12" height="12" fill="#006d2c"/>
<text x="582" y="596" fill="#222">generateIR</text>
<rect x="843" y="586" width="12" height="12" fill="#74c476"/>
<text x="859" y="596" fill="#222">frontEndExecute (self)</text>
<rect x="12" y="604" width="12" height="12" fill="#6baed6"/>
<text x="28" y="614" fill="#222">specializeModule</text>
<rect x="289" y="604" width="12" height="12" fill="#2171b5"/>
<text x="305" y="614" fill="#222">simplifyIR</text>
<rect x="566" y="604" width="12" height="12" fill="#08306b"/>
<text x="582" y="614" fill="#222">linkIR</text>
<rect x="843" y="604" width="12" height="12" fill="#9e9ac8"/>
<text x="859" y="614" fill="#222">unrollLoopsInModule</text>
<rect x="12" y="622" width="12" height="12" fill="#807dba"/>
<text x="28" y="632" fill="#222">legalizeResourceTypes</text>
<rect x="289" y="622" width="12" height="12" fill="#6a51a3"/>
<text x="305" y="632" fill="#222">legalizeExistentialTypeLayout</text>
<rect x="566" y="622" width="12" height="12" fill="#bcbddc"/>
<text x="582" y="632" fill="#222">performMandatoryEarlyInlining</text>
<rect x="843" y="622" width="12" height="12" fill="#dadaeb"/>
<text x="859" y="632" fill="#222">performForceInlining</text>
<rect x="12" y="640" width="12" height="12" fill="#4a1486"/>
<text x="28" y="650" fill="#222">linkAndOptimizeIR (self)</text>
<rect x="289" y="640" width="12" height="12" fill="#fd8d3c"/>
<text x="305" y="650" fill="#222">emitEntryPointsSourceFromIR</text>
<rect x="566" y="640" width="12" height="12" fill="#e6550d"/>
<text x="582" y="650" fill="#222">generateOutput (self)</text>
<rect x="843" y="640" width="12" height="12" fill="#969696"/>
<text x="859" y="650" fill="#222">compileInner (self)</text>
</svg>