<svg xmlns="http://www.w3.org/2000/svg" xmlns:xlink="http://www.w3.org/1999/xlink" width="1132" height="680" viewBox="0 0 1132 680" preserveAspectRatio="xMidYMid meet" font-family="sans-serif" font-size="13">
<rect width="1132" height="680" fill="white"/>
<text x="12" y="30" font-size="20" font-weight="bold">diagnostics_clean — Daily tip-of-tree (last 30 days) (median ms)</text>
<text x="68" y="60" font-size="15" font-weight="600" fill="#1a1a1a">diagnostics_clean<tspan fill="#888" font-weight="400" text-decoration="none">  0.74×</tspan></text>
<line x1="68.0" y1="516.0" x2="1108.0" y2="516.0" stroke="#eee"/>
<text x="64.0" y="519.0" text-anchor="end" fill="#999">0.0</text>
<line x1="68.0" y1="296.0" x2="1108.0" y2="296.0" stroke="#eee"/>
<text x="64.0" y="299.0" text-anchor="end" fill="#999">17</text>
<line x1="68.0" y1="76.0" x2="1108.0" y2="76.0" stroke="#eee"/>
<text x="64.0" y="79.0" text-anchor="end" fill="#999">33</text>
<line x1="68.0" y1="76.0" x2="68.0" y2="516.0" stroke="#333"/>
<line x1="68.0" y1="516.0" x2="1108.0" y2="516.0" stroke="#333"/>
<line x1="68.0" y1="516.0" x2="68.0" y2="519.0" stroke="#999"/>
<text x="68.0" y="531.0" text-anchor="end" fill="#e8731a" transform="rotate(-50 68.0 531.0)">06-25</text>
<line x1="129.2" y1="516.0" x2="129.2" y2="519.0" stroke="#999"/>
<text x="129.2" y="531.0" text-anchor="end" fill="#e8731a" transform="rotate(-50 129.2 531.0)">06-26</text>
<line x1="190.4" y1="516.0" x2="190.4" y2="519.0" stroke="#999"/>
<text x="190.4" y="531.0" text-anchor="end" fill="#e8731a" transform="rotate(-50 190.4 531.0)">06-28</text>
<line x1="251.5" y1="516.0" x2="251.5" y2="519.0" stroke="#999"/>
<text x="251.5" y="531.0" text-anchor="end" fill="#e8731a" transform="rotate(-50 251.5 531.0)">07-01</text>
<line x1="312.7" y1="516.0" x2="312.7" y2="519.0" stroke="#999"/>
<text x="312.7" y="531.0" text-anchor="end" fill="#e8731a" transform="rotate(-50 312.7 531.0)">07-02</text>
<line x1="373.9" y1="516.0" x2="373.9" y2="519.0" stroke="#999"/>
<text x="373.9" y="531.0" text-anchor="end" fill="#e8731a" transform="rotate(-50 373.9 531.0)">07-03</text>
<line x1="435.1" y1="516.0" x2="435.1" y2="519.0" stroke="#999"/>
<text x="435.1" y="531.0" text-anchor="end" fill="#e8731a" transform="rotate(-50 435.1 531.0)">07-06</text>
<line x1="496.2" y1="516.0" x2="496.2" y2="519.0" stroke="#999"/>
<text x="496.2" y="531.0" text-anchor="end" fill="#e8731a" transform="rotate(-50 496.2 531.0)">07-07</text>
<line x1="557.4" y1="516.0" x2="557.4" y2="519.0" stroke="#999"/>
<text x="557.4" y="531.0" text-anchor="end" fill="#e8731a" transform="rotate(-50 557.4 531.0)">07-08</text>
<line x1="618.6" y1="516.0" x2="618.6" y2="519.0" stroke="#999"/>
<text x="618.6" y="531.0" text-anchor="end" fill="#e8731a" transform="rotate(-50 618.6 531.0)">07-09</text>
<line x1="679.8" y1="516.0" x2="679.8" y2="519.0" stroke="#999"/>
<text x="679.8" y="531.0" text-anchor="end" fill="#e8731a" transform="rotate(-50 679.8 531.0)">07-10</text>
<line x1="740.9" y1="516.0" x2="740.9" y2="519.0" stroke="#999"/>
<text x="740.9" y="531.0" text-anchor="end" fill="#e8731a" transform="rotate(-50 740.9 531.0)">07-11</text>
<line x1="802.1" y1="516.0" x2="802.1" y2="519.0" stroke="#999"/>
<text x="802.1" y="531.0" text-anchor="end" fill="#e8731a" transform="rotate(-50 802.1 531.0)">07-14</text>
<line x1="863.3" y1="516.0" x2="863.3" y2="519.0" stroke="#999"/>
<text x="863.3" y="531.0" text-anchor="end" fill="#e8731a" transform="rotate(-50 863.3 531.0)">07-15</text>
<line x1="924.5" y1="516.0" x2="924.5" y2="519.0" stroke="#999"/>
<text x="924.5" y="531.0" text-anchor="end" fill="#e8731a" transform="rotate(-50 924.5 531.0)">07-15</text>
<line x1="985.6" y1="516.0" x2="985.6" y2="519.0" stroke="#999"/>
<text x="985.6" y="531.0" text-anchor="end" fill="#e8731a" transform="rotate(-50 985.6 531.0)">07-16</text>
<line x1="1046.8" y1="516.0" x2="1046.8" y2="519.0" stroke="#999"/>
<text x="1046.8" y="531.0" text-anchor="end" fill="#e8731a" transform="rotate(-50 1046.8 531.0)">07-17</text>
<line x1="1108.0" y1="516.0" x2="1108.0" y2="519.0" stroke="#999"/>
<text x="1108.0" y="531.0" text-anchor="end" fill="#e8731a" transform="rotate(-50 1108.0 531.0)">07-18</text>
<polygon points="68.0,484.2 129.2,484.2 190.4,484.0 251.5,484.7 312.7,484.6 373.9,484.4 435.1,484.2 496.2,487.0 557.4,486.6 618.6,486.4 679.8,486.0 740.9,487.2 802.1,486.4 863.3,488.4 924.5,489.5 985.6,489.1 1046.8,488.8 1108.0,490.7 1108.0,516.0 1046.8,516.0 985.6,516.0 924.5,516.0 863.3,516.0 802.1,516.0 740.9,516.0 679.8,516.0 618.6,516.0 557.4,516.0 496.2,516.0 435.1,516.0 373.9,516.0 312.7,516.0 251.5,516.0 190.4,516.0 129.2,516.0 68.0,516.0" fill="#c7e9c0" fill-opacity="0.9" stroke="#fff" stroke-width="0.4"><title>diagnostics_clean — parseTranslationUnit</title></polygon>
<polygon points="68.0,326.5 129.2,329.2 190.4,331.3 251.5,331.2 312.7,330.5 373.9,333.0 435.1,330.0 496.2,334.8 557.4,336.4 618.6,330.0 679.8,331.3 740.9,334.6 802.1,328.0 863.3,346.7 924.5,350.1 985.6,335.7 1046.8,335.3 1108.0,355.4 1108.0,490.7 1046.8,488.8 985.6,489.1 924.5,489.5 863.3,488.4 802.1,486.4 740.9,487.2 679.8,486.0 618.6,486.4 557.4,486.6 496.2,487.0 435.1,484.2 373.9,484.4 312.7,484.6 251.5,484.7 190.4,484.0 129.2,484.2 68.0,484.2" fill="#41ab5d" fill-opacity="0.9" stroke="#fff" stroke-width="0.4"><title>diagnostics_clean — SemanticChecking</title></polygon>
<polygon points="68.0,207.4 129.2,210.0 190.4,213.7 251.5,215.1 312.7,211.1 373.9,215.1 435.1,210.3 496.2,217.2 557.4,214.8 618.6,210.4 679.8,208.4 740.9,217.2 802.1,204.2 863.3,235.5 924.5,240.6 985.6,223.8 1046.8,219.2 1108.0,260.7 1108.0,355.4 1046.8,335.3 985.6,335.7 924.5,350.1 863.3,346.7 802.1,328.0 740.9,334.6 679.8,331.3 618.6,330.0 557.4,336.4 496.2,334.8 435.1,330.0 373.9,333.0 312.7,330.5 251.5,331.2 190.4,331.3 129.2,329.2 68.0,326.5" fill="#006d2c" fill-opacity="0.9" stroke="#fff" stroke-width="0.4"><title>diagnostics_clean — generateIR</title></polygon>
<polygon points="68.0,200.2 129.2,204.3 190.4,206.0 251.5,210.4 312.7,205.4 373.9,209.4 435.1,205.8 496.2,210.4 557.4,208.6 618.6,208.1 679.8,201.9 740.9,209.0 802.1,200.2 863.3,233.3 924.5,233.1 985.6,213.3 1046.8,214.9 1108.0,255.0 1108.0,260.7 1046.8,219.2 985.6,223.8 924.5,240.6 863.3,235.5 802.1,204.2 740.9,217.2 679.8,208.4 618.6,210.4 557.4,214.8 496.2,217.2 435.1,210.3 373.9,215.1 312.7,211.1 251.5,215.1 190.4,213.7 129.2,210.0 68.0,207.4" fill="#74c476" fill-opacity="0.9" stroke="#fff" stroke-width="0.4"><title>diagnostics_clean — frontEndExecute (self)</title></polygon>
<polygon points="68.0,184.2 129.2,188.7 190.4,190.3 251.5,194.9 312.7,189.3 373.9,193.7 435.1,190.1 496.2,209.0 557.4,207.0 618.6,206.5 679.8,200.3 740.9,207.5 802.1,199.0 863.3,232.2 924.5,232.0 985.6,212.3 1046.8,213.7 1108.0,253.9 1108.0,255.0 1046.8,214.9 985.6,213.3 924.5,233.1 863.3,233.3 802.1,200.2 740.9,209.0 679.8,201.9 618.6,208.1 557.4,208.6 496.2,210.4 435.1,205.8 373.9,209.4 312.7,205.4 251.5,210.4 190.4,206.0 129.2,204.3 68.0,200.2" fill="#6baed6" fill-opacity="0.9" stroke="#fff" stroke-width="0.4"><title>diagnostics_clean — specializeModule</title></polygon>
<polygon points="68.0,176.3 129.2,181.0 190.4,182.3 251.5,187.2 312.7,181.8 373.9,186.3 435.1,182.3 496.2,206.7 557.4,204.7 618.6,204.4 679.8,198.1 740.9,205.2 802.1,196.6 863.3,230.3 924.5,230.2 985.6,210.4 1046.8,211.9 1108.0,252.2 1108.0,253.9 1046.8,213.7 985.6,212.3 924.5,232.0 863.3,232.2 802.1,199.0 740.9,207.5 679.8,200.3 618.6,206.5 557.4,207.0 496.2,209.0 435.1,190.1 373.9,193.7 312.7,189.3 251.5,194.9 190.4,190.3 129.2,188.7 68.0,184.2" fill="#2171b5" fill-opacity="0.9" stroke="#fff" stroke-width="0.4"><title>diagnostics_clean — simplifyIR</title></polygon>
<polygon points="68.0,169.3 129.2,174.5 190.4,176.1 251.5,180.7 312.7,175.0 373.9,179.9 435.1,175.9 496.2,203.3 557.4,201.3 618.6,201.0 679.8,194.6 740.9,201.9 802.1,193.2 863.3,228.2 924.5,228.0 985.6,208.3 1046.8,209.6 1108.0,249.8 1108.0,252.2 1046.8,211.9 985.6,210.4 924.5,230.2 863.3,230.3 802.1,196.6 740.9,205.2 679.8,198.1 618.6,204.4 557.4,204.7 496.2,206.7 435.1,182.3 373.9,186.3 312.7,181.8 251.5,187.2 190.4,182.3 129.2,181.0 68.0,176.3" fill="#08306b" fill-opacity="0.9" stroke="#fff" stroke-width="0.4"><title>diagnostics_clean — linkIR</title></polygon>
<polygon points="68.0,169.2 129.2,174.4 190.4,175.9 251.5,180.6 312.7,174.9 373.9,179.8 435.1,175.8 496.2,203.3 557.4,201.3 618.6,201.0 679.8,194.6 740.9,201.9 802.1,193.2 863.3,228.2 924.5,228.0 985.6,208.3 1046.8,209.6 1108.0,249.8 1108.0,249.8 1046.8,209.6 985.6,208.3 924.5,228.0 863.3,228.2 802.1,193.2 740.9,201.9 679.8,194.6 618.6,201.0 557.4,201.3 496.2,203.3 435.1,175.9 373.9,179.9 312.7,175.0 251.5,180.7 190.4,176.1 129.2,174.5 68.0,169.3" fill="#9e9ac8" fill-opacity="0.9" stroke="#fff" stroke-width="0.4"><title>diagnostics_clean — unrollLoopsInModule</title></polygon>
<polygon points="68.0,168.3 129.2,173.4 190.4,175.0 251.5,179.7 312.7,174.0 373.9,178.9 435.1,174.9 496.2,202.9 557.4,200.9 618.6,200.6 679.8,194.4 740.9,201.7 802.1,192.9 863.3,227.9 924.5,227.8 985.6,208.0 1046.8,209.4 1108.0,249.5 1108.0,249.8 1046.8,209.6 985.6,208.3 924.5,228.0 863.3,228.2 802.1,193.2 740.9,201.9 679.8,194.6 618.6,201.0 557.4,201.3 496.2,203.3 435.1,175.8 373.9,179.8 312.7,174.9 251.5,180.6 190.4,175.9 129.2,174.4 68.0,169.2" fill="#807dba" fill-opacity="0.9" stroke="#fff" stroke-width="0.4"><title>diagnostics_clean — legalizeResourceTypes</title></polygon>
<polygon points="68.0,166.9 129.2,172.1 190.4,173.7 251.5,178.3 312.7,172.6 373.9,177.5 435.1,173.6 496.2,202.2 557.4,200.2 618.6,199.9 679.8,193.7 740.9,201.1 802.1,192.4 863.3,227.5 924.5,227.2 985.6,207.5 1046.8,208.8 1108.0,249.0 1108.0,249.5 1046.8,209.4 985.6,208.0 924.5,227.8 863.3,227.9 802.1,192.9 740.9,201.7 679.8,194.4 618.6,200.6 557.4,200.9 496.2,202.9 435.1,174.9 373.9,178.9 312.7,174.0 251.5,179.7 190.4,175.0 129.2,173.4 68.0,168.3" fill="#6a51a3" fill-opacity="0.9" stroke="#fff" stroke-width="0.4"><title>diagnostics_clean — legalizeExistentialTypeLayout</title></polygon>
<polygon points="68.0,163.5 129.2,168.8 190.4,170.2 251.5,175.0 312.7,169.3 373.9,174.1 435.1,170.1 496.2,199.0 557.4,197.0 618.6,196.6 679.8,190.5 740.9,197.9 802.1,188.9 863.3,224.5 924.5,224.1 985.6,204.4 1046.8,205.5 1108.0,246.6 1108.0,249.0 1046.8,208.8 985.6,207.5 924.5,227.2 863.3,227.5 802.1,192.4 740.9,201.1 679.8,193.7 618.6,199.9 557.4,200.2 496.2,202.2 435.1,173.6 373.9,177.5 312.7,172.6 251.5,178.3 190.4,173.7 129.2,172.1 68.0,166.9" fill="#bcbddc" fill-opacity="0.9" stroke="#fff" stroke-width="0.4"><title>diagnostics_clean — performMandatoryEarlyInlining</title></polygon>
<polygon points="68.0,163.3 129.2,168.6 190.4,170.1 251.5,174.9 312.7,169.2 373.9,174.0 435.1,170.0 496.2,198.9 557.4,196.9 618.6,196.5 679.8,190.4 740.9,197.8 802.1,188.8 863.3,224.3 924.5,223.9 985.6,204.3 1046.8,205.4 1108.0,246.6 1108.0,246.6 1046.8,205.5 985.6,204.4 924.5,224.1 863.3,224.5 802.1,188.9 740.9,197.9 679.8,190.5 618.6,196.6 557.4,197.0 496.2,199.0 435.1,170.1 373.9,174.1 312.7,169.3 251.5,175.0 190.4,170.2 129.2,168.8 68.0,163.5" fill="#dadaeb" fill-opacity="0.9" stroke="#fff" stroke-width="0.4"><title>diagnostics_clean — performForceInlining</title></polygon>
<polygon points="68.0,145.7 129.2,152.1 190.4,153.0 251.5,157.9 312.7,150.9 373.9,156.3 435.1,152.7 496.2,192.9 557.4,190.9 618.6,191.0 679.8,184.7 740.9,192.4 802.1,184.0 863.3,221.3 924.5,221.0 985.6,201.3 1046.8,202.3 1108.0,243.4 1108.0,246.6 1046.8,205.4 985.6,204.3 924.5,223.9 863.3,224.3 802.1,188.8 740.9,197.8 679.8,190.4 618.6,196.5 557.4,196.9 496.2,198.9 435.1,170.0 373.9,174.0 312.7,169.2 251.5,174.9 190.4,170.1 129.2,168.6 68.0,163.3" fill="#4a1486" fill-opacity="0.9" stroke="#fff" stroke-width="0.4"><title>diagnostics_clean — linkAndOptimizeIR (self)</title></polygon>
<polygon points="68.0,110.8 129.2,117.7 190.4,116.7 251.5,121.3 312.7,117.1 373.9,122.6 435.1,115.2 496.2,162.0 557.4,158.8 618.6,157.0 679.8,150.9 740.9,156.5 802.1,154.9 863.3,194.4 924.5,191.2 985.6,170.6 1046.8,174.6 1108.0,213.6 1108.0,243.4 1046.8,202.3 985.6,201.3 924.5,221.0 863.3,221.3 802.1,184.0 740.9,192.4 679.8,184.7 618.6,191.0 557.4,190.9 496.2,192.9 435.1,152.7 373.9,156.3 312.7,150.9 251.5,157.9 190.4,153.0 129.2,152.1 68.0,145.7" fill="#e6550d" fill-opacity="0.9" stroke="#fff" stroke-width="0.4"><title>diagnostics_clean — generateOutput (self)</title></polygon>
<polygon points="68.0,108.6 129.2,115.5 190.4,114.2 251.5,118.5 312.7,115.4 373.9,120.5 435.1,113.2 496.2,159.1 557.4,156.5 618.6,157.0 679.8,150.0 740.9,154.5 802.1,151.4 863.3,192.9 924.5,189.2 985.6,170.6 1046.8,172.9 1108.0,212.5 1108.0,213.6 1046.8,174.6 985.6,170.6 924.5,191.2 863.3,194.4 802.1,154.9 740.9,156.5 679.8,150.9 618.6,157.0 557.4,158.8 496.2,162.0 435.1,115.2 373.9,122.6 312.7,117.1 251.5,121.3 190.4,116.7 129.2,117.7 68.0,110.8" fill="#969696" fill-opacity="0.9" stroke="#fff" stroke-width="0.4"><title>diagnostics_clean — compileInner (self)</title></polygon>
<text x="12" y="578" fill="#666" font-weight="600">phase buckets</text>
<rect x="12" y="586" width="12" height="12" fill="#c7e9c0"/>
<text x="28" y="596" fill="#222">parseTranslationUnit</text>
<rect x="289" y="586" width="12" height="12" fill="#41ab5d"/>
<text x="305" y="596" fill="#222">SemanticChecking</text>
<rect x="566" y="586" width="12" height="12" fill="#006d2c"/>
<text x="582" y="596" fill="#222">generateIR</text>
<rect x="843" y="586" width="12" height="12" fill="#74c476"/>
<text x="859" y="596" fill="#222">frontEndExecute (self)</text>
<rect x="12" y="604" width="12" height="12" fill="#6baed6"/>
<text x="28" y="614" fill="#222">specializeModule</text>
<rect x="289" y="604" width="12" height="12" fill="#2171b5"/>
<text x="305" y="614" fill="#222">simplifyIR</text>
<rect x="566" y="604" width="12" height="12" fill="#08306b"/>
<text x="582" y="614" fill="#222">linkIR</text>
<rect x="843" y="604" width="12" height="12" fill="#9e9ac8"/>
<text x="859" y="614" fill="#222">unrollLoopsInModule</text>
<rect x="12" y="622" width="12" height="12" fill="#807dba"/>
<text x="28" y="632" fill="#222">legalizeResourceTypes</text>
<rect x="289" y="622" width="12" height="12" fill="#6a51a3"/>
<text x="305" y="632" fill="#222">legalizeExistentialTypeLayout</text>
<rect x="566" y="622" width="12" height="12" fill="#bcbddc"/>
<text x="582" y="632" fill="#222">performMandatoryEarlyInlining</text>
<rect x="843" y="622" width="12" height="12" fill="#dadaeb"/>
<text x="859" y="632" fill="#222">performForceInlining</text>
<rect x="12" y="640" width="12" height="12" fill="#4a1486"/>
<text x="28" y="650" fill="#222">linkAndOptimizeIR (self)</text>
<rect x="289" y="640" width="12" height="12" fill="#fd8d3c"/>
<text x="305" y="650" fill="#222">emitEntryPointsSourceFromIR</text>
<rect x="566" y="640" width="12" height="12" fill="#e6550d"/>
<text x="582" y="650" fill="#222">generateOutput (self)</text>
<rect x="843" y="640" width="12" height="12" fill="#969696"/>
<text x="859" y="650" fill="#222">compileInner (self)</text>
</svg>