<svg xmlns="http://www.w3.org/2000/svg" xmlns:xlink="http://www.w3.org/1999/xlink" width="1132" height="680" viewBox="0 0 1132 680" preserveAspectRatio="xMidYMid meet" font-family="sans-serif" font-size="13">
<rect width="1132" height="680" fill="white"/>
<text x="12" y="30" font-size="20" font-weight="bold">diagnostics_clean — Daily tip-of-tree (last 30 days) (median ms)</text>
<text x="68" y="60" font-size="15" font-weight="600" fill="#1a1a1a">diagnostics_clean<tspan fill="#888" font-weight="400" text-decoration="none">  0.84×</tspan></text>
<line x1="68.0" y1="516.0" x2="1108.0" y2="516.0" stroke="#eee"/>
<text x="64.0" y="519.0" text-anchor="end" fill="#999">0.0</text>
<line x1="68.0" y1="296.0" x2="1108.0" y2="296.0" stroke="#eee"/>
<text x="64.0" y="299.0" text-anchor="end" fill="#999">17</text>
<line x1="68.0" y1="76.0" x2="1108.0" y2="76.0" stroke="#eee"/>
<text x="64.0" y="79.0" text-anchor="end" fill="#999">33</text>
<line x1="68.0" y1="76.0" x2="68.0" y2="516.0" stroke="#333"/>
<line x1="68.0" y1="516.0" x2="1108.0" y2="516.0" stroke="#333"/>
<line x1="68.0" y1="516.0" x2="68.0" y2="519.0" stroke="#999"/>
<text x="68.0" y="531.0" text-anchor="end" fill="#e8731a" transform="rotate(-50 68.0 531.0)">06-25</text>
<line x1="133.0" y1="516.0" x2="133.0" y2="519.0" stroke="#999"/>
<text x="133.0" y="531.0" text-anchor="end" fill="#e8731a" transform="rotate(-50 133.0 531.0)">06-26</text>
<line x1="198.0" y1="516.0" x2="198.0" y2="519.0" stroke="#999"/>
<text x="198.0" y="531.0" text-anchor="end" fill="#e8731a" transform="rotate(-50 198.0 531.0)">06-28</text>
<line x1="263.0" y1="516.0" x2="263.0" y2="519.0" stroke="#999"/>
<text x="263.0" y="531.0" text-anchor="end" fill="#e8731a" transform="rotate(-50 263.0 531.0)">07-01</text>
<line x1="328.0" y1="516.0" x2="328.0" y2="519.0" stroke="#999"/>
<text x="328.0" y="531.0" text-anchor="end" fill="#e8731a" transform="rotate(-50 328.0 531.0)">07-02</text>
<line x1="393.0" y1="516.0" x2="393.0" y2="519.0" stroke="#999"/>
<text x="393.0" y="531.0" text-anchor="end" fill="#e8731a" transform="rotate(-50 393.0 531.0)">07-03</text>
<line x1="458.0" y1="516.0" x2="458.0" y2="519.0" stroke="#999"/>
<text x="458.0" y="531.0" text-anchor="end" fill="#e8731a" transform="rotate(-50 458.0 531.0)">07-06</text>
<line x1="523.0" y1="516.0" x2="523.0" y2="519.0" stroke="#999"/>
<text x="523.0" y="531.0" text-anchor="end" fill="#e8731a" transform="rotate(-50 523.0 531.0)">07-07</text>
<line x1="588.0" y1="516.0" x2="588.0" y2="519.0" stroke="#999"/>
<text x="588.0" y="531.0" text-anchor="end" fill="#e8731a" transform="rotate(-50 588.0 531.0)">07-08</text>
<line x1="653.0" y1="516.0" x2="653.0" y2="519.0" stroke="#999"/>
<text x="653.0" y="531.0" text-anchor="end" fill="#e8731a" transform="rotate(-50 653.0 531.0)">07-09</text>
<line x1="718.0" y1="516.0" x2="718.0" y2="519.0" stroke="#999"/>
<text x="718.0" y="531.0" text-anchor="end" fill="#e8731a" transform="rotate(-50 718.0 531.0)">07-10</text>
<line x1="783.0" y1="516.0" x2="783.0" y2="519.0" stroke="#999"/>
<text x="783.0" y="531.0" text-anchor="end" fill="#e8731a" transform="rotate(-50 783.0 531.0)">07-11</text>
<line x1="848.0" y1="516.0" x2="848.0" y2="519.0" stroke="#999"/>
<text x="848.0" y="531.0" text-anchor="end" fill="#e8731a" transform="rotate(-50 848.0 531.0)">07-14</text>
<line x1="913.0" y1="516.0" x2="913.0" y2="519.0" stroke="#999"/>
<text x="913.0" y="531.0" text-anchor="end" fill="#e8731a" transform="rotate(-50 913.0 531.0)">07-15</text>
<line x1="978.0" y1="516.0" x2="978.0" y2="519.0" stroke="#999"/>
<text x="978.0" y="531.0" text-anchor="end" fill="#e8731a" transform="rotate(-50 978.0 531.0)">07-15</text>
<line x1="1043.0" y1="516.0" x2="1043.0" y2="519.0" stroke="#999"/>
<text x="1043.0" y="531.0" text-anchor="end" fill="#e8731a" transform="rotate(-50 1043.0 531.0)">07-16</text>
<line x1="1108.0" y1="516.0" x2="1108.0" y2="519.0" stroke="#999"/>
<text x="1108.0" y="531.0" text-anchor="end" fill="#e8731a" transform="rotate(-50 1108.0 531.0)">07-17</text>
<polygon points="68.0,484.2 133.0,484.2 198.0,484.0 263.0,484.7 328.0,484.6 393.0,484.4 458.0,484.2 523.0,487.0 588.0,486.6 653.0,486.4 718.0,486.0 783.0,487.2 848.0,486.4 913.0,488.4 978.0,489.5 1043.0,489.1 1108.0,488.8 1108.0,516.0 1043.0,516.0 978.0,516.0 913.0,516.0 848.0,516.0 783.0,516.0 718.0,516.0 653.0,516.0 588.0,516.0 523.0,516.0 458.0,516.0 393.0,516.0 328.0,516.0 263.0,516.0 198.0,516.0 133.0,516.0 68.0,516.0" fill="#c7e9c0" fill-opacity="0.9" stroke="#fff" stroke-width="0.4"><title>diagnostics_clean — parseTranslationUnit</title></polygon>
<polygon points="68.0,326.5 133.0,329.2 198.0,331.3 263.0,331.2 328.0,330.5 393.0,333.0 458.0,330.0 523.0,334.8 588.0,336.4 653.0,330.0 718.0,331.3 783.0,334.6 848.0,328.0 913.0,346.7 978.0,350.1 1043.0,335.7 1108.0,335.3 1108.0,488.8 1043.0,489.1 978.0,489.5 913.0,488.4 848.0,486.4 783.0,487.2 718.0,486.0 653.0,486.4 588.0,486.6 523.0,487.0 458.0,484.2 393.0,484.4 328.0,484.6 263.0,484.7 198.0,484.0 133.0,484.2 68.0,484.2" fill="#41ab5d" fill-opacity="0.9" stroke="#fff" stroke-width="0.4"><title>diagnostics_clean — SemanticChecking</title></polygon>
<polygon points="68.0,207.4 133.0,210.0 198.0,213.7 263.0,215.1 328.0,211.1 393.0,215.1 458.0,210.3 523.0,217.2 588.0,214.8 653.0,210.4 718.0,208.4 783.0,217.2 848.0,204.2 913.0,235.5 978.0,240.6 1043.0,223.8 1108.0,219.2 1108.0,335.3 1043.0,335.7 978.0,350.1 913.0,346.7 848.0,328.0 783.0,334.6 718.0,331.3 653.0,330.0 588.0,336.4 523.0,334.8 458.0,330.0 393.0,333.0 328.0,330.5 263.0,331.2 198.0,331.3 133.0,329.2 68.0,326.5" fill="#006d2c" fill-opacity="0.9" stroke="#fff" stroke-width="0.4"><title>diagnostics_clean — generateIR</title></polygon>
<polygon points="68.0,200.2 133.0,204.3 198.0,206.0 263.0,210.4 328.0,205.4 393.0,209.4 458.0,205.8 523.0,210.4 588.0,208.6 653.0,208.1 718.0,201.9 783.0,209.0 848.0,200.2 913.0,233.3 978.0,233.1 1043.0,213.3 1108.0,214.9 1108.0,219.2 1043.0,223.8 978.0,240.6 913.0,235.5 848.0,204.2 783.0,217.2 718.0,208.4 653.0,210.4 588.0,214.8 523.0,217.2 458.0,210.3 393.0,215.1 328.0,211.1 263.0,215.1 198.0,213.7 133.0,210.0 68.0,207.4" fill="#74c476" fill-opacity="0.9" stroke="#fff" stroke-width="0.4"><title>diagnostics_clean — frontEndExecute (self)</title></polygon>
<polygon points="68.0,184.2 133.0,188.7 198.0,190.3 263.0,194.9 328.0,189.3 393.0,193.7 458.0,190.1 523.0,209.0 588.0,207.0 653.0,206.5 718.0,200.3 783.0,207.5 848.0,199.0 913.0,232.2 978.0,232.0 1043.0,212.3 1108.0,213.7 1108.0,214.9 1043.0,213.3 978.0,233.1 913.0,233.3 848.0,200.2 783.0,209.0 718.0,201.9 653.0,208.1 588.0,208.6 523.0,210.4 458.0,205.8 393.0,209.4 328.0,205.4 263.0,210.4 198.0,206.0 133.0,204.3 68.0,200.2" fill="#6baed6" fill-opacity="0.9" stroke="#fff" stroke-width="0.4"><title>diagnostics_clean — specializeModule</title></polygon>
<polygon points="68.0,176.3 133.0,181.0 198.0,182.3 263.0,187.2 328.0,181.8 393.0,186.3 458.0,182.3 523.0,206.7 588.0,204.7 653.0,204.4 718.0,198.1 783.0,205.2 848.0,196.6 913.0,230.3 978.0,230.2 1043.0,210.4 1108.0,211.9 1108.0,213.7 1043.0,212.3 978.0,232.0 913.0,232.2 848.0,199.0 783.0,207.5 718.0,200.3 653.0,206.5 588.0,207.0 523.0,209.0 458.0,190.1 393.0,193.7 328.0,189.3 263.0,194.9 198.0,190.3 133.0,188.7 68.0,184.2" fill="#2171b5" fill-opacity="0.9" stroke="#fff" stroke-width="0.4"><title>diagnostics_clean — simplifyIR</title></polygon>
<polygon points="68.0,169.3 133.0,174.5 198.0,176.1 263.0,180.7 328.0,175.0 393.0,179.9 458.0,175.9 523.0,203.3 588.0,201.3 653.0,201.0 718.0,194.6 783.0,201.9 848.0,193.2 913.0,228.2 978.0,228.0 1043.0,208.3 1108.0,209.6 1108.0,211.9 1043.0,210.4 978.0,230.2 913.0,230.3 848.0,196.6 783.0,205.2 718.0,198.1 653.0,204.4 588.0,204.7 523.0,206.7 458.0,182.3 393.0,186.3 328.0,181.8 263.0,187.2 198.0,182.3 133.0,181.0 68.0,176.3" fill="#08306b" fill-opacity="0.9" stroke="#fff" stroke-width="0.4"><title>diagnostics_clean — linkIR</title></polygon>
<polygon points="68.0,169.2 133.0,174.4 198.0,175.9 263.0,180.6 328.0,174.9 393.0,179.8 458.0,175.8 523.0,203.3 588.0,201.3 653.0,201.0 718.0,194.6 783.0,201.9 848.0,193.2 913.0,228.2 978.0,228.0 1043.0,208.3 1108.0,209.6 1108.0,209.6 1043.0,208.3 978.0,228.0 913.0,228.2 848.0,193.2 783.0,201.9 718.0,194.6 653.0,201.0 588.0,201.3 523.0,203.3 458.0,175.9 393.0,179.9 328.0,175.0 263.0,180.7 198.0,176.1 133.0,174.5 68.0,169.3" fill="#9e9ac8" fill-opacity="0.9" stroke="#fff" stroke-width="0.4"><title>diagnostics_clean — unrollLoopsInModule</title></polygon>
<polygon points="68.0,168.3 133.0,173.4 198.0,175.0 263.0,179.7 328.0,174.0 393.0,178.9 458.0,174.9 523.0,202.9 588.0,200.9 653.0,200.6 718.0,194.4 783.0,201.7 848.0,192.9 913.0,227.9 978.0,227.8 1043.0,208.0 1108.0,209.4 1108.0,209.6 1043.0,208.3 978.0,228.0 913.0,228.2 848.0,193.2 783.0,201.9 718.0,194.6 653.0,201.0 588.0,201.3 523.0,203.3 458.0,175.8 393.0,179.8 328.0,174.9 263.0,180.6 198.0,175.9 133.0,174.4 68.0,169.2" fill="#807dba" fill-opacity="0.9" stroke="#fff" stroke-width="0.4"><title>diagnostics_clean — legalizeResourceTypes</title></polygon>
<polygon points="68.0,166.9 133.0,172.1 198.0,173.7 263.0,178.3 328.0,172.6 393.0,177.5 458.0,173.6 523.0,202.2 588.0,200.2 653.0,199.9 718.0,193.7 783.0,201.1 848.0,192.4 913.0,227.5 978.0,227.2 1043.0,207.5 1108.0,208.8 1108.0,209.4 1043.0,208.0 978.0,227.8 913.0,227.9 848.0,192.9 783.0,201.7 718.0,194.4 653.0,200.6 588.0,200.9 523.0,202.9 458.0,174.9 393.0,178.9 328.0,174.0 263.0,179.7 198.0,175.0 133.0,173.4 68.0,168.3" fill="#6a51a3" fill-opacity="0.9" stroke="#fff" stroke-width="0.4"><title>diagnostics_clean — legalizeExistentialTypeLayout</title></polygon>
<polygon points="68.0,163.5 133.0,168.8 198.0,170.2 263.0,175.0 328.0,169.3 393.0,174.1 458.0,170.1 523.0,199.0 588.0,197.0 653.0,196.6 718.0,190.5 783.0,197.9 848.0,188.9 913.0,224.5 978.0,224.1 1043.0,204.4 1108.0,205.5 1108.0,208.8 1043.0,207.5 978.0,227.2 913.0,227.5 848.0,192.4 783.0,201.1 718.0,193.7 653.0,199.9 588.0,200.2 523.0,202.2 458.0,173.6 393.0,177.5 328.0,172.6 263.0,178.3 198.0,173.7 133.0,172.1 68.0,166.9" fill="#bcbddc" fill-opacity="0.9" stroke="#fff" stroke-width="0.4"><title>diagnostics_clean — performMandatoryEarlyInlining</title></polygon>
<polygon points="68.0,163.3 133.0,168.6 198.0,170.1 263.0,174.9 328.0,169.2 393.0,174.0 458.0,170.0 523.0,198.9 588.0,196.9 653.0,196.5 718.0,190.4 783.0,197.8 848.0,188.8 913.0,224.3 978.0,223.9 1043.0,204.3 1108.0,205.4 1108.0,205.5 1043.0,204.4 978.0,224.1 913.0,224.5 848.0,188.9 783.0,197.9 718.0,190.5 653.0,196.6 588.0,197.0 523.0,199.0 458.0,170.1 393.0,174.1 328.0,169.3 263.0,175.0 198.0,170.2 133.0,168.8 68.0,163.5" fill="#dadaeb" fill-opacity="0.9" stroke="#fff" stroke-width="0.4"><title>diagnostics_clean — performForceInlining</title></polygon>
<polygon points="68.0,145.7 133.0,152.1 198.0,153.0 263.0,157.9 328.0,150.9 393.0,156.3 458.0,152.7 523.0,192.9 588.0,190.9 653.0,191.0 718.0,184.7 783.0,192.4 848.0,184.0 913.0,221.3 978.0,221.0 1043.0,201.3 1108.0,202.3 1108.0,205.4 1043.0,204.3 978.0,223.9 913.0,224.3 848.0,188.8 783.0,197.8 718.0,190.4 653.0,196.5 588.0,196.9 523.0,198.9 458.0,170.0 393.0,174.0 328.0,169.2 263.0,174.9 198.0,170.1 133.0,168.6 68.0,163.3" fill="#4a1486" fill-opacity="0.9" stroke="#fff" stroke-width="0.4"><title>diagnostics_clean — linkAndOptimizeIR (self)</title></polygon>
<polygon points="68.0,110.8 133.0,117.7 198.0,116.7 263.0,121.3 328.0,117.1 393.0,122.6 458.0,115.2 523.0,162.0 588.0,158.8 653.0,157.0 718.0,150.9 783.0,156.5 848.0,154.9 913.0,194.4 978.0,191.2 1043.0,170.6 1108.0,174.6 1108.0,202.3 1043.0,201.3 978.0,221.0 913.0,221.3 848.0,184.0 783.0,192.4 718.0,184.7 653.0,191.0 588.0,190.9 523.0,192.9 458.0,152.7 393.0,156.3 328.0,150.9 263.0,157.9 198.0,153.0 133.0,152.1 68.0,145.7" fill="#e6550d" fill-opacity="0.9" stroke="#fff" stroke-width="0.4"><title>diagnostics_clean — generateOutput (self)</title></polygon>
<polygon points="68.0,108.6 133.0,115.5 198.0,114.2 263.0,118.5 328.0,115.4 393.0,120.5 458.0,113.2 523.0,159.1 588.0,156.5 653.0,157.0 718.0,150.0 783.0,154.5 848.0,151.4 913.0,192.9 978.0,189.2 1043.0,170.6 1108.0,172.9 1108.0,174.6 1043.0,170.6 978.0,191.2 913.0,194.4 848.0,154.9 783.0,156.5 718.0,150.9 653.0,157.0 588.0,158.8 523.0,162.0 458.0,115.2 393.0,122.6 328.0,117.1 263.0,121.3 198.0,116.7 133.0,117.7 68.0,110.8" fill="#969696" fill-opacity="0.9" stroke="#fff" stroke-width="0.4"><title>diagnostics_clean — compileInner (self)</title></polygon>
<text x="12" y="578" fill="#666" font-weight="600">phase buckets</text>
<rect x="12" y="586" width="12" height="12" fill="#c7e9c0"/>
<text x="28" y="596" fill="#222">parseTranslationUnit</text>
<rect x="289" y="586" width="12" height="12" fill="#41ab5d"/>
<text x="305" y="596" fill="#222">SemanticChecking</text>
<rect x="566" y="586" width="12" height="12" fill="#006d2c"/>
<text x="582" y="596" fill="#222">generateIR</text>
<rect x="843" y="586" width="12" height="12" fill="#74c476"/>
<text x="859" y="596" fill="#222">frontEndExecute (self)</text>
<rect x="12" y="604" width="12" height="12" fill="#6baed6"/>
<text x="28" y="614" fill="#222">specializeModule</text>
<rect x="289" y="604" width="12" height="12" fill="#2171b5"/>
<text x="305" y="614" fill="#222">simplifyIR</text>
<rect x="566" y="604" width="12" height="12" fill="#08306b"/>
<text x="582" y="614" fill="#222">linkIR</text>
<rect x="843" y="604" width="12" height="12" fill="#9e9ac8"/>
<text x="859" y="614" fill="#222">unrollLoopsInModule</text>
<rect x="12" y="622" width="12" height="12" fill="#807dba"/>
<text x="28" y="632" fill="#222">legalizeResourceTypes</text>
<rect x="289" y="622" width="12" height="12" fill="#6a51a3"/>
<text x="305" y="632" fill="#222">legalizeExistentialTypeLayout</text>
<rect x="566" y="622" width="12" height="12" fill="#bcbddc"/>
<text x="582" y="632" fill="#222">performMandatoryEarlyInlining</text>
<rect x="843" y="622" width="12" height="12" fill="#dadaeb"/>
<text x="859" y="632" fill="#222">performForceInlining</text>
<rect x="12" y="640" width="12" height="12" fill="#4a1486"/>
<text x="28" y="650" fill="#222">linkAndOptimizeIR (self)</text>
<rect x="289" y="640" width="12" height="12" fill="#fd8d3c"/>
<text x="305" y="650" fill="#222">emitEntryPointsSourceFromIR</text>
<rect x="566" y="640" width="12" height="12" fill="#e6550d"/>
<text x="582" y="650" fill="#222">generateOutput (self)</text>
<rect x="843" y="640" width="12" height="12" fill="#969696"/>
<text x="859" y="650" fill="#222">compileInner (self)</text>
</svg>