<svg xmlns="http://www.w3.org/2000/svg" xmlns:xlink="http://www.w3.org/1999/xlink" width="1132" height="680" viewBox="0 0 1132 680" preserveAspectRatio="xMidYMid meet" font-family="sans-serif" font-size="13">
<rect width="1132" height="680" fill="white"/>
<text x="12" y="30" font-size="20" font-weight="bold">diagnostics_clean — full phase breakdown across releases (median ms)</text>
<text x="68" y="60" font-size="15" font-weight="600" fill="#1a1a1a">diagnostics_clean<tspan fill="#888" font-weight="400" text-decoration="none">  0.96×</tspan></text>
<line x1="68.0" y1="516.0" x2="1108.0" y2="516.0" stroke="#eee"/>
<text x="64.0" y="519.0" text-anchor="end" fill="#999">0.0</text>
<line x1="68.0" y1="296.0" x2="1108.0" y2="296.0" stroke="#eee"/>
<text x="64.0" y="299.0" text-anchor="end" fill="#999">38</text>
<line x1="68.0" y1="76.0" x2="1108.0" y2="76.0" stroke="#eee"/>
<text x="64.0" y="79.0" text-anchor="end" fill="#999">77</text>
<line x1="68.0" y1="76.0" x2="68.0" y2="516.0" stroke="#333"/>
<line x1="68.0" y1="516.0" x2="1108.0" y2="516.0" stroke="#333"/>
<line x1="839.0" y1="76.0" x2="839.0" y2="516.0" stroke="#e8731a" stroke-width="1.2" stroke-dasharray="4 3"/>
<text x="842.0" y="87.0" fill="#e8731a" font-size="11">daily →</text>
<line x1="68.0" y1="516.0" x2="68.0" y2="519.0" stroke="#999"/>
<text x="68.0" y="531.0" text-anchor="end" fill="#666" transform="rotate(-50 68.0 531.0)">25.14</text>
<line x1="103.9" y1="516.0" x2="103.9" y2="519.0" stroke="#999"/>
<text x="103.9" y="531.0" text-anchor="end" fill="#666" transform="rotate(-50 103.9 531.0)">25.15</text>
<line x1="139.7" y1="516.0" x2="139.7" y2="519.0" stroke="#999"/>
<text x="139.7" y="531.0" text-anchor="end" fill="#666" transform="rotate(-50 139.7 531.0)">25.16</text>
<line x1="175.6" y1="516.0" x2="175.6" y2="519.0" stroke="#999"/>
<text x="175.6" y="531.0" text-anchor="end" fill="#666" transform="rotate(-50 175.6 531.0)">25.17</text>
<line x1="211.4" y1="516.0" x2="211.4" y2="519.0" stroke="#999"/>
<text x="211.4" y="531.0" text-anchor="end" fill="#666" transform="rotate(-50 211.4 531.0)">25.18</text>
<line x1="247.3" y1="516.0" x2="247.3" y2="519.0" stroke="#999"/>
<text x="247.3" y="531.0" text-anchor="end" fill="#666" transform="rotate(-50 247.3 531.0)">25.19</text>
<line x1="283.2" y1="516.0" x2="283.2" y2="519.0" stroke="#999"/>
<text x="283.2" y="531.0" text-anchor="end" fill="#666" transform="rotate(-50 283.2 531.0)">25.20</text>
<line x1="319.0" y1="516.0" x2="319.0" y2="519.0" stroke="#999"/>
<text x="319.0" y="531.0" text-anchor="end" fill="#666" transform="rotate(-50 319.0 531.0)">25.21</text>
<line x1="354.9" y1="516.0" x2="354.9" y2="519.0" stroke="#999"/>
<text x="354.9" y="531.0" text-anchor="end" fill="#666" transform="rotate(-50 354.9 531.0)">25.22</text>
<line x1="390.8" y1="516.0" x2="390.8" y2="519.0" stroke="#999"/>
<text x="390.8" y="531.0" text-anchor="end" fill="#666" transform="rotate(-50 390.8 531.0)">25.23</text>
<line x1="426.6" y1="516.0" x2="426.6" y2="519.0" stroke="#999"/>
<text x="426.6" y="531.0" text-anchor="end" fill="#666" transform="rotate(-50 426.6 531.0)">25.24</text>
<line x1="462.5" y1="516.0" x2="462.5" y2="519.0" stroke="#999"/>
<text x="462.5" y="531.0" text-anchor="end" fill="#666" transform="rotate(-50 462.5 531.0)">26.1</text>
<line x1="498.3" y1="516.0" x2="498.3" y2="519.0" stroke="#999"/>
<text x="498.3" y="531.0" text-anchor="end" fill="#666" transform="rotate(-50 498.3 531.0)">26.2</text>
<line x1="534.2" y1="516.0" x2="534.2" y2="519.0" stroke="#999"/>
<text x="534.2" y="531.0" text-anchor="end" fill="#666" transform="rotate(-50 534.2 531.0)">26.3</text>
<line x1="570.1" y1="516.0" x2="570.1" y2="519.0" stroke="#999"/>
<text x="570.1" y="531.0" text-anchor="end" fill="#666" transform="rotate(-50 570.1 531.0)">26.4</text>
<line x1="605.9" y1="516.0" x2="605.9" y2="519.0" stroke="#999"/>
<text x="605.9" y="531.0" text-anchor="end" fill="#666" transform="rotate(-50 605.9 531.0)">26.5</text>
<line x1="641.8" y1="516.0" x2="641.8" y2="519.0" stroke="#999"/>
<text x="641.8" y="531.0" text-anchor="end" fill="#666" transform="rotate(-50 641.8 531.0)">26.7</text>
<line x1="677.7" y1="516.0" x2="677.7" y2="519.0" stroke="#999"/>
<text x="677.7" y="531.0" text-anchor="end" fill="#666" transform="rotate(-50 677.7 531.0)">26.8</text>
<line x1="713.5" y1="516.0" x2="713.5" y2="519.0" stroke="#999"/>
<text x="713.5" y="531.0" text-anchor="end" fill="#666" transform="rotate(-50 713.5 531.0)">26.9</text>
<line x1="749.4" y1="516.0" x2="749.4" y2="519.0" stroke="#999"/>
<text x="749.4" y="531.0" text-anchor="end" fill="#666" transform="rotate(-50 749.4 531.0)">26.10</text>
<line x1="785.2" y1="516.0" x2="785.2" y2="519.0" stroke="#999"/>
<text x="785.2" y="531.0" text-anchor="end" fill="#666" transform="rotate(-50 785.2 531.0)">26.11</text>
<line x1="821.1" y1="516.0" x2="821.1" y2="519.0" stroke="#999"/>
<text x="821.1" y="531.0" text-anchor="end" fill="#666" transform="rotate(-50 821.1 531.0)">26.12</text>
<line x1="857.0" y1="516.0" x2="857.0" y2="519.0" stroke="#999"/>
<text x="857.0" y="531.0" text-anchor="end" fill="#e8731a" transform="rotate(-50 857.0 531.0)">06-25</text>
<line x1="892.8" y1="516.0" x2="892.8" y2="519.0" stroke="#999"/>
<text x="892.8" y="531.0" text-anchor="end" fill="#e8731a" transform="rotate(-50 892.8 531.0)">06-26</text>
<line x1="928.7" y1="516.0" x2="928.7" y2="519.0" stroke="#999"/>
<text x="928.7" y="531.0" text-anchor="end" fill="#e8731a" transform="rotate(-50 928.7 531.0)">06-28</text>
<line x1="964.6" y1="516.0" x2="964.6" y2="519.0" stroke="#999"/>
<text x="964.6" y="531.0" text-anchor="end" fill="#e8731a" transform="rotate(-50 964.6 531.0)">07-01</text>
<line x1="1000.4" y1="516.0" x2="1000.4" y2="519.0" stroke="#999"/>
<text x="1000.4" y="531.0" text-anchor="end" fill="#e8731a" transform="rotate(-50 1000.4 531.0)">07-02</text>
<line x1="1036.3" y1="516.0" x2="1036.3" y2="519.0" stroke="#999"/>
<text x="1036.3" y="531.0" text-anchor="end" fill="#e8731a" transform="rotate(-50 1036.3 531.0)">07-03</text>
<line x1="1072.1" y1="516.0" x2="1072.1" y2="519.0" stroke="#999"/>
<text x="1072.1" y="531.0" text-anchor="end" fill="#e8731a" transform="rotate(-50 1072.1 531.0)">07-03</text>
<line x1="1108.0" y1="516.0" x2="1108.0" y2="519.0" stroke="#999"/>
<text x="1108.0" y="531.0" text-anchor="end" fill="#e8731a" transform="rotate(-50 1108.0 531.0)">07-03</text>
<polygon points="68.0,505.6 103.9,506.1 139.7,506.4 175.6,505.9 211.4,505.6 247.3,505.7 283.2,505.3 319.0,505.4 354.9,505.7 390.8,505.9 426.6,504.6 462.5,505.0 498.3,505.1 534.2,504.8 570.1,504.7 605.9,504.6 641.8,504.0 677.7,504.3 713.5,503.7 749.4,504.1 785.2,504.4 821.1,504.3 857.0,502.8 892.8,502.8 928.7,502.7 964.6,503.0 1000.4,502.9 1036.3,502.6 1072.1,502.9 1108.0,502.9 1108.0,516.0 1072.1,516.0 1036.3,516.0 1000.4,516.0 964.6,516.0 928.7,516.0 892.8,516.0 857.0,516.0 821.1,516.0 785.2,516.0 749.4,516.0 713.5,516.0 677.7,516.0 641.8,516.0 605.9,516.0 570.1,516.0 534.2,516.0 498.3,516.0 462.5,516.0 426.6,516.0 390.8,516.0 354.9,516.0 319.0,516.0 283.2,516.0 247.3,516.0 211.4,516.0 175.6,516.0 139.7,516.0 103.9,516.0 68.0,516.0" fill="#c7e9c0" fill-opacity="0.9" stroke="#fff" stroke-width="0.4"><title>diagnostics_clean — parseTranslationUnit</title></polygon>
<polygon points="68.0,408.9 103.9,354.8 139.7,351.7 175.6,340.9 211.4,344.5 247.3,344.2 283.2,336.3 319.0,326.6 354.9,372.6 390.8,368.8 426.6,371.7 462.5,376.3 498.3,366.1 534.2,366.7 570.1,367.3 605.9,364.5 641.8,320.4 677.7,323.7 713.5,320.8 749.4,316.5 785.2,446.2 821.1,444.4 857.0,437.9 892.8,438.6 928.7,438.0 964.6,437.6 1000.4,436.1 1036.3,436.2 1072.1,438.0 1108.0,436.3 1108.0,502.9 1072.1,502.9 1036.3,502.6 1000.4,502.9 964.6,503.0 928.7,502.7 892.8,502.8 857.0,502.8 821.1,504.3 785.2,504.4 749.4,504.1 713.5,503.7 677.7,504.3 641.8,504.0 605.9,504.6 570.1,504.7 534.2,504.8 498.3,505.1 462.5,505.0 426.6,504.6 390.8,505.9 354.9,505.7 319.0,505.4 283.2,505.3 247.3,505.7 211.4,505.6 175.6,505.9 139.7,506.4 103.9,506.1 68.0,505.6" fill="#41ab5d" fill-opacity="0.9" stroke="#fff" stroke-width="0.4"><title>diagnostics_clean — SemanticChecking</title></polygon>
<polygon points="68.0,364.1 103.9,309.7 139.7,306.5 175.6,292.1 211.4,296.4 247.3,295.3 283.2,285.9 319.0,273.6 354.9,324.2 390.8,320.7 426.6,325.5 462.5,330.3 498.3,318.9 534.2,320.4 570.1,321.7 605.9,316.6 641.8,217.3 677.7,223.3 713.5,221.4 749.4,203.0 785.2,400.5 821.1,397.6 857.0,388.1 892.8,388.6 928.7,386.9 964.6,388.4 1000.4,385.1 1036.3,385.9 1072.1,386.4 1108.0,386.8 1108.0,436.3 1072.1,438.0 1036.3,436.2 1000.4,436.1 964.6,437.6 928.7,438.0 892.8,438.6 857.0,437.9 821.1,444.4 785.2,446.2 749.4,316.5 713.5,320.8 677.7,323.7 641.8,320.4 605.9,364.5 570.1,367.3 534.2,366.7 498.3,366.1 462.5,376.3 426.6,371.7 390.8,368.8 354.9,372.6 319.0,326.6 283.2,336.3 247.3,344.2 211.4,344.5 175.6,340.9 139.7,351.7 103.9,354.8 68.0,408.9" fill="#006d2c" fill-opacity="0.9" stroke="#fff" stroke-width="0.4"><title>diagnostics_clean — generateIR</title></polygon>
<polygon points="68.0,362.6 103.9,308.2 139.7,304.8 175.6,288.5 211.4,294.4 247.3,293.6 283.2,283.1 319.0,269.2 354.9,323.0 390.8,318.6 426.6,324.0 462.5,327.4 498.3,316.1 534.2,318.5 570.1,319.4 605.9,311.2 641.8,216.1 677.7,220.6 713.5,218.7 749.4,203.0 785.2,398.1 821.1,393.7 857.0,385.7 892.8,385.4 928.7,384.6 964.6,385.7 1000.4,383.4 1036.3,383.6 1072.1,383.3 1108.0,385.0 1108.0,386.8 1072.1,386.4 1036.3,385.9 1000.4,385.1 964.6,388.4 928.7,386.9 892.8,388.6 857.0,388.1 821.1,397.6 785.2,400.5 749.4,203.0 713.5,221.4 677.7,223.3 641.8,217.3 605.9,316.6 570.1,321.7 534.2,320.4 498.3,318.9 462.5,330.3 426.6,325.5 390.8,320.7 354.9,324.2 319.0,273.6 283.2,285.9 247.3,295.3 211.4,296.4 175.6,292.1 139.7,306.5 103.9,309.7 68.0,364.1" fill="#74c476" fill-opacity="0.9" stroke="#fff" stroke-width="0.4"><title>diagnostics_clean — frontEndExecute (self)</title></polygon>
<polygon points="68.0,362.4 103.9,308.0 139.7,304.6 175.6,288.2 211.4,294.1 247.3,293.3 283.2,282.9 319.0,268.9 354.9,322.8 390.8,318.4 426.6,323.5 462.5,327.0 498.3,315.7 534.2,318.1 570.1,319.0 605.9,310.7 641.8,209.3 677.7,214.2 713.5,211.8 749.4,196.5 785.2,392.4 821.1,388.0 857.0,379.0 892.8,378.7 928.7,377.9 964.6,379.1 1000.4,376.7 1036.3,376.9 1072.1,376.5 1108.0,378.4 1108.0,385.0 1072.1,383.3 1036.3,383.6 1000.4,383.4 964.6,385.7 928.7,384.6 892.8,385.4 857.0,385.7 821.1,393.7 785.2,398.1 749.4,203.0 713.5,218.7 677.7,220.6 641.8,216.1 605.9,311.2 570.1,319.4 534.2,318.5 498.3,316.1 462.5,327.4 426.6,324.0 390.8,318.6 354.9,323.0 319.0,269.2 283.2,283.1 247.3,293.6 211.4,294.4 175.6,288.5 139.7,304.8 103.9,308.2 68.0,362.6" fill="#6baed6" fill-opacity="0.9" stroke="#fff" stroke-width="0.4"><title>diagnostics_clean — specializeModule</title></polygon>
<polygon points="68.0,361.5 103.9,307.1 139.7,303.8 175.6,287.2 211.4,293.2 247.3,292.4 283.2,281.9 319.0,267.9 354.9,321.8 390.8,317.3 426.6,322.6 462.5,326.2 498.3,314.8 534.2,317.2 570.1,318.1 605.9,309.8 641.8,205.4 677.7,210.4 713.5,208.1 749.4,192.7 785.2,388.9 821.1,384.8 857.0,375.7 892.8,375.4 928.7,374.6 964.6,375.9 1000.4,373.5 1036.3,373.6 1072.1,373.2 1108.0,375.2 1108.0,378.4 1072.1,376.5 1036.3,376.9 1000.4,376.7 964.6,379.1 928.7,377.9 892.8,378.7 857.0,379.0 821.1,388.0 785.2,392.4 749.4,196.5 713.5,211.8 677.7,214.2 641.8,209.3 605.9,310.7 570.1,319.0 534.2,318.1 498.3,315.7 462.5,327.0 426.6,323.5 390.8,318.4 354.9,322.8 319.0,268.9 283.2,282.9 247.3,293.3 211.4,294.1 175.6,288.2 139.7,304.6 103.9,308.0 68.0,362.4" fill="#2171b5" fill-opacity="0.9" stroke="#fff" stroke-width="0.4"><title>diagnostics_clean — simplifyIR</title></polygon>
<polygon points="68.0,356.7 103.9,304.2 139.7,300.6 175.6,283.2 211.4,288.5 247.3,286.9 283.2,275.3 319.0,260.3 354.9,316.7 390.8,311.6 426.6,318.8 462.5,322.3 498.3,310.9 534.2,313.5 570.1,314.2 605.9,306.0 641.8,153.0 677.7,159.6 713.5,155.6 749.4,138.0 785.2,386.3 821.1,382.1 857.0,372.9 892.8,372.6 928.7,371.9 964.6,373.1 1000.4,370.7 1036.3,370.8 1072.1,370.3 1108.0,372.4 1108.0,375.2 1072.1,373.2 1036.3,373.6 1000.4,373.5 964.6,375.9 928.7,374.6 892.8,375.4 857.0,375.7 821.1,384.8 785.2,388.9 749.4,192.7 713.5,208.1 677.7,210.4 641.8,205.4 605.9,309.8 570.1,318.1 534.2,317.2 498.3,314.8 462.5,326.2 426.6,322.6 390.8,317.3 354.9,321.8 319.0,267.9 283.2,281.9 247.3,292.4 211.4,293.2 175.6,287.2 139.7,303.8 103.9,307.1 68.0,361.5" fill="#08306b" fill-opacity="0.9" stroke="#fff" stroke-width="0.4"><title>diagnostics_clean — linkIR</title></polygon>
<polygon points="68.0,356.7 103.9,304.2 139.7,300.6 175.6,283.2 211.4,288.5 247.3,286.9 283.2,275.3 319.0,260.3 354.9,316.7 390.8,311.6 426.6,318.8 462.5,322.3 498.3,310.9 534.2,313.5 570.1,314.2 605.9,306.0 641.8,152.9 677.7,159.5 713.5,155.5 749.4,137.9 785.2,386.3 821.1,382.0 857.0,372.8 892.8,372.5 928.7,371.8 964.6,373.1 1000.4,370.6 1036.3,370.8 1072.1,370.3 1108.0,372.4 1108.0,372.4 1072.1,370.3 1036.3,370.8 1000.4,370.7 964.6,373.1 928.7,371.9 892.8,372.6 857.0,372.9 821.1,382.1 785.2,386.3 749.4,138.0 713.5,155.6 677.7,159.6 641.8,153.0 605.9,306.0 570.1,314.2 534.2,313.5 498.3,310.9 462.5,322.3 426.6,318.8 390.8,311.6 354.9,316.7 319.0,260.3 283.2,275.3 247.3,286.9 211.4,288.5 175.6,283.2 139.7,300.6 103.9,304.2 68.0,356.7" fill="#9e9ac8" fill-opacity="0.9" stroke="#fff" stroke-width="0.4"><title>diagnostics_clean — unrollLoopsInModule</title></polygon>
<polygon points="68.0,356.5 103.9,304.0 139.7,300.4 175.6,283.1 211.4,288.3 247.3,286.8 283.2,275.1 319.0,260.2 354.9,316.4 390.8,311.4 426.6,318.6 462.5,322.2 498.3,310.8 534.2,313.4 570.1,314.1 605.9,305.9 641.8,152.6 677.7,159.2 713.5,155.2 749.4,137.6 785.2,385.9 821.1,381.6 857.0,372.4 892.8,372.1 928.7,371.4 964.6,372.7 1000.4,370.2 1036.3,370.4 1072.1,369.9 1108.0,372.0 1108.0,372.4 1072.1,370.3 1036.3,370.8 1000.4,370.6 964.6,373.1 928.7,371.8 892.8,372.5 857.0,372.8 821.1,382.0 785.2,386.3 749.4,137.9 713.5,155.5 677.7,159.5 641.8,152.9 605.9,306.0 570.1,314.2 534.2,313.5 498.3,310.9 462.5,322.3 426.6,318.8 390.8,311.6 354.9,316.7 319.0,260.3 283.2,275.3 247.3,286.9 211.4,288.5 175.6,283.2 139.7,300.6 103.9,304.2 68.0,356.7" fill="#807dba" fill-opacity="0.9" stroke="#fff" stroke-width="0.4"><title>diagnostics_clean — legalizeResourceTypes</title></polygon>
<polygon points="68.0,356.1 103.9,303.6 139.7,300.1 175.6,282.7 211.4,288.1 247.3,286.5 283.2,274.8 319.0,259.9 354.9,316.1 390.8,311.1 426.6,318.3 462.5,321.9 498.3,310.5 534.2,313.1 570.1,313.8 605.9,305.6 641.8,152.0 677.7,158.7 713.5,154.7 749.4,137.1 785.2,385.4 821.1,381.1 857.0,371.9 892.8,371.6 928.7,370.9 964.6,372.1 1000.4,369.7 1036.3,369.8 1072.1,369.3 1108.0,371.4 1108.0,372.0 1072.1,369.9 1036.3,370.4 1000.4,370.2 964.6,372.7 928.7,371.4 892.8,372.1 857.0,372.4 821.1,381.6 785.2,385.9 749.4,137.6 713.5,155.2 677.7,159.2 641.8,152.6 605.9,305.9 570.1,314.1 534.2,313.4 498.3,310.8 462.5,322.2 426.6,318.6 390.8,311.4 354.9,316.4 319.0,260.2 283.2,275.1 247.3,286.8 211.4,288.3 175.6,283.1 139.7,300.4 103.9,304.0 68.0,356.5" fill="#6a51a3" fill-opacity="0.9" stroke="#fff" stroke-width="0.4"><title>diagnostics_clean — legalizeExistentialTypeLayout</title></polygon>
<polygon points="68.0,354.8 103.9,302.3 139.7,298.7 175.6,281.2 211.4,286.6 247.3,285.0 283.2,273.4 319.0,258.4 354.9,314.7 390.8,309.7 426.6,316.9 462.5,320.5 498.3,309.1 534.2,311.7 570.1,312.4 605.9,304.2 641.8,150.6 677.7,157.3 713.5,153.3 749.4,135.6 785.2,384.0 821.1,379.6 857.0,370.4 892.8,370.1 928.7,369.4 964.6,370.6 1000.4,368.2 1036.3,368.3 1072.1,367.8 1108.0,370.0 1108.0,371.4 1072.1,369.3 1036.3,369.8 1000.4,369.7 964.6,372.1 928.7,370.9 892.8,371.6 857.0,371.9 821.1,381.1 785.2,385.4 749.4,137.1 713.5,154.7 677.7,158.7 641.8,152.0 605.9,305.6 570.1,313.8 534.2,313.1 498.3,310.5 462.5,321.9 426.6,318.3 390.8,311.1 354.9,316.1 319.0,259.9 283.2,274.8 247.3,286.5 211.4,288.1 175.6,282.7 139.7,300.1 103.9,303.6 68.0,356.1" fill="#bcbddc" fill-opacity="0.9" stroke="#fff" stroke-width="0.4"><title>diagnostics_clean — performMandatoryEarlyInlining</title></polygon>
<polygon points="68.0,354.8 103.9,302.3 139.7,298.7 175.6,281.2 211.4,286.6 247.3,284.9 283.2,273.4 319.0,258.4 354.9,314.7 390.8,309.7 426.6,316.9 462.5,320.5 498.3,309.1 534.2,311.7 570.1,312.4 605.9,304.1 641.8,150.5 677.7,157.3 713.5,153.2 749.4,135.6 785.2,383.9 821.1,379.6 857.0,370.4 892.8,370.0 928.7,369.3 964.6,370.6 1000.4,368.1 1036.3,368.2 1072.1,367.8 1108.0,369.9 1108.0,370.0 1072.1,367.8 1036.3,368.3 1000.4,368.2 964.6,370.6 928.7,369.4 892.8,370.1 857.0,370.4 821.1,379.6 785.2,384.0 749.4,135.6 713.5,153.3 677.7,157.3 641.8,150.6 605.9,304.2 570.1,312.4 534.2,311.7 498.3,309.1 462.5,320.5 426.6,316.9 390.8,309.7 354.9,314.7 319.0,258.4 283.2,273.4 247.3,285.0 211.4,286.6 175.6,281.2 139.7,298.7 103.9,302.3 68.0,354.8" fill="#dadaeb" fill-opacity="0.9" stroke="#fff" stroke-width="0.4"><title>diagnostics_clean — performForceInlining</title></polygon>
<polygon points="68.0,354.5 103.9,301.9 139.7,298.2 175.6,281.2 211.4,286.1 247.3,284.5 283.2,272.5 319.0,257.5 354.9,313.8 390.8,309.3 426.6,314.9 462.5,318.8 498.3,307.1 534.2,310.0 570.1,310.5 605.9,302.3 641.8,140.2 677.7,146.7 713.5,142.4 749.4,124.8 785.2,376.9 821.1,373.6 857.0,363.0 892.8,363.1 928.7,362.0 964.6,363.5 1000.4,360.7 1036.3,360.7 1072.1,360.2 1108.0,362.3 1108.0,369.9 1072.1,367.8 1036.3,368.2 1000.4,368.1 964.6,370.6 928.7,369.3 892.8,370.0 857.0,370.4 821.1,379.6 785.2,383.9 749.4,135.6 713.5,153.2 677.7,157.3 641.8,150.5 605.9,304.1 570.1,312.4 534.2,311.7 498.3,309.1 462.5,320.5 426.6,316.9 390.8,309.7 354.9,314.7 319.0,258.4 283.2,273.4 247.3,284.9 211.4,286.6 175.6,281.2 139.7,298.7 103.9,302.3 68.0,354.8" fill="#4a1486" fill-opacity="0.9" stroke="#fff" stroke-width="0.4"><title>diagnostics_clean — linkAndOptimizeIR (self)</title></polygon>
<polygon points="68.0,340.4 103.9,289.8 139.7,285.2 175.6,268.3 211.4,273.0 247.3,270.9 283.2,259.0 319.0,242.5 354.9,301.1 390.8,295.6 426.6,302.3 462.5,305.2 498.3,293.7 534.2,296.5 570.1,296.7 605.9,289.3 641.8,124.8 677.7,131.3 713.5,127.7 749.4,109.7 785.2,362.7 821.1,359.0 857.0,347.8 892.8,348.3 928.7,346.7 964.6,349.3 1000.4,345.2 1036.3,344.7 1072.1,344.6 1108.0,348.3 1108.0,362.3 1072.1,360.2 1036.3,360.7 1000.4,360.7 964.6,363.5 928.7,362.0 892.8,363.1 857.0,363.0 821.1,373.6 785.2,376.9 749.4,124.8 713.5,142.4 677.7,146.7 641.8,140.2 605.9,302.3 570.1,310.5 534.2,310.0 498.3,307.1 462.5,318.8 426.6,314.9 390.8,309.3 354.9,313.8 319.0,257.5 283.2,272.5 247.3,284.5 211.4,286.1 175.6,281.2 139.7,298.2 103.9,301.9 68.0,354.5" fill="#e6550d" fill-opacity="0.9" stroke="#fff" stroke-width="0.4"><title>diagnostics_clean — generateOutput (self)</title></polygon>
<polygon points="68.0,339.9 103.9,286.4 139.7,284.4 175.6,267.1 211.4,271.9 247.3,269.7 283.2,258.5 319.0,241.2 354.9,300.1 390.8,294.0 426.6,301.8 462.5,303.0 498.3,292.8 534.2,294.0 570.1,294.3 605.9,287.7 641.8,124.0 677.7,129.2 713.5,127.7 749.4,108.6 785.2,361.1 821.1,357.1 857.0,346.7 892.8,346.5 928.7,344.5 964.6,348.3 1000.4,343.6 1036.3,344.0 1072.1,344.6 1108.0,347.6 1108.0,348.3 1072.1,344.6 1036.3,344.7 1000.4,345.2 964.6,349.3 928.7,346.7 892.8,348.3 857.0,347.8 821.1,359.0 785.2,362.7 749.4,109.7 713.5,127.7 677.7,131.3 641.8,124.8 605.9,289.3 570.1,296.7 534.2,296.5 498.3,293.7 462.5,305.2 426.6,302.3 390.8,295.6 354.9,301.1 319.0,242.5 283.2,259.0 247.3,270.9 211.4,273.0 175.6,268.3 139.7,285.2 103.9,289.8 68.0,340.4" fill="#969696" fill-opacity="0.9" stroke="#fff" stroke-width="0.4"><title>diagnostics_clean — compileInner (self)</title></polygon>
<text x="12" y="578" fill="#666" font-weight="600">phase buckets</text>
<rect x="12" y="586" width="12" height="12" fill="#c7e9c0"/>
<text x="28" y="596" fill="#222">parseTranslationUnit</text>
<rect x="289" y="586" width="12" height="12" fill="#41ab5d"/>
<text x="305" y="596" fill="#222">SemanticChecking</text>
<rect x="566" y="586" width="12" height="12" fill="#006d2c"/>
<text x="582" y="596" fill="#222">generateIR</text>
<rect x="843" y="586" width="12" height="12" fill="#74c476"/>
<text x="859" y="596" fill="#222">frontEndExecute (self)</text>
<rect x="12" y="604" width="12" height="12" fill="#6baed6"/>
<text x="28" y="614" fill="#222">specializeModule</text>
<rect x="289" y="604" width="12" height="12" fill="#2171b5"/>
<text x="305" y="614" fill="#222">simplifyIR</text>
<rect x="566" y="604" width="12" height="12" fill="#08306b"/>
<text x="582" y="614" fill="#222">linkIR</text>
<rect x="843" y="604" width="12" height="12" fill="#9e9ac8"/>
<text x="859" y="614" fill="#222">unrollLoopsInModule</text>
<rect x="12" y="622" width="12" height="12" fill="#807dba"/>
<text x="28" y="632" fill="#222">legalizeResourceTypes</text>
<rect x="289" y="622" width="12" height="12" fill="#6a51a3"/>
<text x="305" y="632" fill="#222">legalizeExistentialTypeLayout</text>
<rect x="566" y="622" width="12" height="12" fill="#bcbddc"/>
<text x="582" y="632" fill="#222">performMandatoryEarlyInlining</text>
<rect x="843" y="622" width="12" height="12" fill="#dadaeb"/>
<text x="859" y="632" fill="#222">performForceInlining</text>
<rect x="12" y="640" width="12" height="12" fill="#4a1486"/>
<text x="28" y="650" fill="#222">linkAndOptimizeIR (self)</text>
<rect x="289" y="640" width="12" height="12" fill="#fd8d3c"/>
<text x="305" y="650" fill="#222">emitEntryPointsSourceFromIR</text>
<rect x="566" y="640" width="12" height="12" fill="#e6550d"/>
<text x="582" y="650" fill="#222">generateOutput (self)</text>
<rect x="843" y="640" width="12" height="12" fill="#969696"/>
<text x="859" y="650" fill="#222">compileInner (self)</text>
</svg>