<svg xmlns="http://www.w3.org/2000/svg" xmlns:xlink="http://www.w3.org/1999/xlink" width="1132" height="680" viewBox="0 0 1132 680" preserveAspectRatio="xMidYMid meet" font-family="sans-serif" font-size="13">
<rect width="1132" height="680" fill="white"/>
<text x="12" y="30" font-size="20" font-weight="bold">diagnostics_clean — Daily tip-of-tree (last 30 days) (median ms)</text>
<text x="68" y="60" font-size="15" font-weight="600" fill="#1a1a1a">diagnostics_clean<tspan fill="#888" font-weight="400" text-decoration="none">  0.76×</tspan></text>
<line x1="68.0" y1="516.0" x2="1108.0" y2="516.0" stroke="#eee"/>
<text x="64.0" y="519.0" text-anchor="end" fill="#999">0.0</text>
<line x1="68.0" y1="296.0" x2="1108.0" y2="296.0" stroke="#eee"/>
<text x="64.0" y="299.0" text-anchor="end" fill="#999">17</text>
<line x1="68.0" y1="76.0" x2="1108.0" y2="76.0" stroke="#eee"/>
<text x="64.0" y="79.0" text-anchor="end" fill="#999">33</text>
<line x1="68.0" y1="76.0" x2="68.0" y2="516.0" stroke="#333"/>
<line x1="68.0" y1="516.0" x2="1108.0" y2="516.0" stroke="#333"/>
<line x1="68.0" y1="516.0" x2="68.0" y2="519.0" stroke="#999"/>
<text x="68.0" y="531.0" text-anchor="end" fill="#e8731a" transform="rotate(-50 68.0 531.0)">06-25</text>
<line x1="115.3" y1="516.0" x2="115.3" y2="519.0" stroke="#999"/>
<text x="115.3" y="531.0" text-anchor="end" fill="#e8731a" transform="rotate(-50 115.3 531.0)">06-26</text>
<line x1="162.5" y1="516.0" x2="162.5" y2="519.0" stroke="#999"/>
<text x="162.5" y="531.0" text-anchor="end" fill="#e8731a" transform="rotate(-50 162.5 531.0)">06-28</text>
<line x1="209.8" y1="516.0" x2="209.8" y2="519.0" stroke="#999"/>
<text x="209.8" y="531.0" text-anchor="end" fill="#e8731a" transform="rotate(-50 209.8 531.0)">07-01</text>
<line x1="257.1" y1="516.0" x2="257.1" y2="519.0" stroke="#999"/>
<text x="257.1" y="531.0" text-anchor="end" fill="#e8731a" transform="rotate(-50 257.1 531.0)">07-02</text>
<line x1="304.4" y1="516.0" x2="304.4" y2="519.0" stroke="#999"/>
<text x="304.4" y="531.0" text-anchor="end" fill="#e8731a" transform="rotate(-50 304.4 531.0)">07-03</text>
<line x1="351.6" y1="516.0" x2="351.6" y2="519.0" stroke="#999"/>
<text x="351.6" y="531.0" text-anchor="end" fill="#e8731a" transform="rotate(-50 351.6 531.0)">07-06</text>
<line x1="398.9" y1="516.0" x2="398.9" y2="519.0" stroke="#999"/>
<text x="398.9" y="531.0" text-anchor="end" fill="#e8731a" transform="rotate(-50 398.9 531.0)">07-07</text>
<line x1="446.2" y1="516.0" x2="446.2" y2="519.0" stroke="#999"/>
<text x="446.2" y="531.0" text-anchor="end" fill="#e8731a" transform="rotate(-50 446.2 531.0)">07-08</text>
<line x1="493.5" y1="516.0" x2="493.5" y2="519.0" stroke="#999"/>
<text x="493.5" y="531.0" text-anchor="end" fill="#e8731a" transform="rotate(-50 493.5 531.0)">07-09</text>
<line x1="540.7" y1="516.0" x2="540.7" y2="519.0" stroke="#999"/>
<text x="540.7" y="531.0" text-anchor="end" fill="#e8731a" transform="rotate(-50 540.7 531.0)">07-10</text>
<line x1="588.0" y1="516.0" x2="588.0" y2="519.0" stroke="#999"/>
<text x="588.0" y="531.0" text-anchor="end" fill="#e8731a" transform="rotate(-50 588.0 531.0)">07-11</text>
<line x1="635.3" y1="516.0" x2="635.3" y2="519.0" stroke="#999"/>
<text x="635.3" y="531.0" text-anchor="end" fill="#e8731a" transform="rotate(-50 635.3 531.0)">07-14</text>
<line x1="682.5" y1="516.0" x2="682.5" y2="519.0" stroke="#999"/>
<text x="682.5" y="531.0" text-anchor="end" fill="#e8731a" transform="rotate(-50 682.5 531.0)">07-15</text>
<line x1="729.8" y1="516.0" x2="729.8" y2="519.0" stroke="#999"/>
<text x="729.8" y="531.0" text-anchor="end" fill="#e8731a" transform="rotate(-50 729.8 531.0)">07-15</text>
<line x1="777.1" y1="516.0" x2="777.1" y2="519.0" stroke="#999"/>
<text x="777.1" y="531.0" text-anchor="end" fill="#e8731a" transform="rotate(-50 777.1 531.0)">07-16</text>
<line x1="824.4" y1="516.0" x2="824.4" y2="519.0" stroke="#999"/>
<text x="824.4" y="531.0" text-anchor="end" fill="#e8731a" transform="rotate(-50 824.4 531.0)">07-17</text>
<line x1="871.6" y1="516.0" x2="871.6" y2="519.0" stroke="#999"/>
<text x="871.6" y="531.0" text-anchor="end" fill="#e8731a" transform="rotate(-50 871.6 531.0)">07-18</text>
<line x1="918.9" y1="516.0" x2="918.9" y2="519.0" stroke="#999"/>
<text x="918.9" y="531.0" text-anchor="end" fill="#e8731a" transform="rotate(-50 918.9 531.0)">07-19</text>
<line x1="966.2" y1="516.0" x2="966.2" y2="519.0" stroke="#999"/>
<text x="966.2" y="531.0" text-anchor="end" fill="#e8731a" transform="rotate(-50 966.2 531.0)">07-20</text>
<line x1="1013.5" y1="516.0" x2="1013.5" y2="519.0" stroke="#999"/>
<text x="1013.5" y="531.0" text-anchor="end" fill="#e8731a" transform="rotate(-50 1013.5 531.0)">07-21</text>
<line x1="1060.7" y1="516.0" x2="1060.7" y2="519.0" stroke="#999"/>
<text x="1060.7" y="531.0" text-anchor="end" fill="#e8731a" transform="rotate(-50 1060.7 531.0)">07-22</text>
<line x1="1108.0" y1="516.0" x2="1108.0" y2="519.0" stroke="#999"/>
<text x="1108.0" y="531.0" text-anchor="end" fill="#e8731a" transform="rotate(-50 1108.0 531.0)">07-23</text>
<polygon points="68.0,484.2 115.3,484.2 162.5,484.0 209.8,484.7 257.1,484.6 304.4,484.4 351.6,484.2 398.9,487.0 446.2,486.6 493.5,486.4 540.7,486.0 588.0,487.2 635.3,486.4 682.5,488.4 729.8,489.5 777.1,489.1 824.4,488.8 871.6,490.7 918.9,489.6 966.2,490.3 1013.5,490.4 1060.7,489.9 1108.0,490.5 1108.0,516.0 1060.7,516.0 1013.5,516.0 966.2,516.0 918.9,516.0 871.6,516.0 824.4,516.0 777.1,516.0 729.8,516.0 682.5,516.0 635.3,516.0 588.0,516.0 540.7,516.0 493.5,516.0 446.2,516.0 398.9,516.0 351.6,516.0 304.4,516.0 257.1,516.0 209.8,516.0 162.5,516.0 115.3,516.0 68.0,516.0" fill="#c7e9c0" fill-opacity="0.9" stroke="#fff" stroke-width="0.4"><title>diagnostics_clean — parseTranslationUnit</title></polygon>
<polygon points="68.0,326.5 115.3,329.2 162.5,331.3 209.8,331.2 257.1,330.5 304.4,333.0 351.6,330.0 398.9,334.8 446.2,336.4 493.5,330.0 540.7,331.3 588.0,334.6 635.3,328.0 682.5,346.7 729.8,350.1 777.1,335.7 824.4,335.3 871.6,355.4 918.9,345.2 966.2,349.9 1013.5,353.3 1060.7,350.9 1108.0,353.5 1108.0,490.5 1060.7,489.9 1013.5,490.4 966.2,490.3 918.9,489.6 871.6,490.7 824.4,488.8 777.1,489.1 729.8,489.5 682.5,488.4 635.3,486.4 588.0,487.2 540.7,486.0 493.5,486.4 446.2,486.6 398.9,487.0 351.6,484.2 304.4,484.4 257.1,484.6 209.8,484.7 162.5,484.0 115.3,484.2 68.0,484.2" fill="#41ab5d" fill-opacity="0.9" stroke="#fff" stroke-width="0.4"><title>diagnostics_clean — SemanticChecking</title></polygon>
<polygon points="68.0,207.4 115.3,210.0 162.5,213.7 209.8,215.1 257.1,211.1 304.4,215.1 351.6,210.3 398.9,217.2 446.2,214.8 493.5,210.4 540.7,208.4 588.0,217.2 635.3,204.2 682.5,235.5 729.8,240.6 777.1,223.8 824.4,219.2 871.6,260.7 918.9,246.5 966.2,253.4 1013.5,256.3 1060.7,255.0 1108.0,254.6 1108.0,353.5 1060.7,350.9 1013.5,353.3 966.2,349.9 918.9,345.2 871.6,355.4 824.4,335.3 777.1,335.7 729.8,350.1 682.5,346.7 635.3,328.0 588.0,334.6 540.7,331.3 493.5,330.0 446.2,336.4 398.9,334.8 351.6,330.0 304.4,333.0 257.1,330.5 209.8,331.2 162.5,331.3 115.3,329.2 68.0,326.5" fill="#006d2c" fill-opacity="0.9" stroke="#fff" stroke-width="0.4"><title>diagnostics_clean — generateIR</title></polygon>
<polygon points="68.0,200.2 115.3,204.3 162.5,206.0 209.8,210.4 257.1,205.4 304.4,209.4 351.6,205.8 398.9,210.4 446.2,208.6 493.5,208.1 540.7,201.9 588.0,209.0 635.3,200.2 682.5,233.3 729.8,233.1 777.1,213.3 824.4,214.9 871.6,255.0 918.9,242.4 966.2,251.1 1013.5,249.7 1060.7,252.0 1108.0,250.4 1108.0,254.6 1060.7,255.0 1013.5,256.3 966.2,253.4 918.9,246.5 871.6,260.7 824.4,219.2 777.1,223.8 729.8,240.6 682.5,235.5 635.3,204.2 588.0,217.2 540.7,208.4 493.5,210.4 446.2,214.8 398.9,217.2 351.6,210.3 304.4,215.1 257.1,211.1 209.8,215.1 162.5,213.7 115.3,210.0 68.0,207.4" fill="#74c476" fill-opacity="0.9" stroke="#fff" stroke-width="0.4"><title>diagnostics_clean — frontEndExecute (self)</title></polygon>
<polygon points="68.0,184.2 115.3,188.7 162.5,190.3 209.8,194.9 257.1,189.3 304.4,193.7 351.6,190.1 398.9,209.0 446.2,207.0 493.5,206.5 540.7,200.3 588.0,207.5 635.3,199.0 682.5,232.2 729.8,232.0 777.1,212.3 824.4,213.7 871.6,253.9 918.9,241.3 966.2,249.9 1013.5,248.5 1060.7,251.0 1108.0,249.4 1108.0,250.4 1060.7,252.0 1013.5,249.7 966.2,251.1 918.9,242.4 871.6,255.0 824.4,214.9 777.1,213.3 729.8,233.1 682.5,233.3 635.3,200.2 588.0,209.0 540.7,201.9 493.5,208.1 446.2,208.6 398.9,210.4 351.6,205.8 304.4,209.4 257.1,205.4 209.8,210.4 162.5,206.0 115.3,204.3 68.0,200.2" fill="#6baed6" fill-opacity="0.9" stroke="#fff" stroke-width="0.4"><title>diagnostics_clean — specializeModule</title></polygon>
<polygon points="68.0,176.3 115.3,181.0 162.5,182.3 209.8,187.2 257.1,181.8 304.4,186.3 351.6,182.3 398.9,206.7 446.2,204.7 493.5,204.4 540.7,198.1 588.0,205.2 635.3,196.6 682.5,230.3 729.8,230.2 777.1,210.4 824.4,211.9 871.6,252.2 918.9,239.6 966.2,248.3 1013.5,246.7 1060.7,249.4 1108.0,247.8 1108.0,249.4 1060.7,251.0 1013.5,248.5 966.2,249.9 918.9,241.3 871.6,253.9 824.4,213.7 777.1,212.3 729.8,232.0 682.5,232.2 635.3,199.0 588.0,207.5 540.7,200.3 493.5,206.5 446.2,207.0 398.9,209.0 351.6,190.1 304.4,193.7 257.1,189.3 209.8,194.9 162.5,190.3 115.3,188.7 68.0,184.2" fill="#2171b5" fill-opacity="0.9" stroke="#fff" stroke-width="0.4"><title>diagnostics_clean — simplifyIR</title></polygon>
<polygon points="68.0,169.3 115.3,174.5 162.5,176.1 209.8,180.7 257.1,175.0 304.4,179.9 351.6,175.9 398.9,203.3 446.2,201.3 493.5,201.0 540.7,194.6 588.0,201.9 635.3,193.2 682.5,228.2 729.8,228.0 777.1,208.3 824.4,209.6 871.6,249.8 918.9,236.9 966.2,245.8 1013.5,244.1 1060.7,247.0 1108.0,245.4 1108.0,247.8 1060.7,249.4 1013.5,246.7 966.2,248.3 918.9,239.6 871.6,252.2 824.4,211.9 777.1,210.4 729.8,230.2 682.5,230.3 635.3,196.6 588.0,205.2 540.7,198.1 493.5,204.4 446.2,204.7 398.9,206.7 351.6,182.3 304.4,186.3 257.1,181.8 209.8,187.2 162.5,182.3 115.3,181.0 68.0,176.3" fill="#08306b" fill-opacity="0.9" stroke="#fff" stroke-width="0.4"><title>diagnostics_clean — linkIR</title></polygon>
<polygon points="68.0,169.2 115.3,174.4 162.5,175.9 209.8,180.6 257.1,174.9 304.4,179.8 351.6,175.8 398.9,203.3 446.2,201.3 493.5,201.0 540.7,194.6 588.0,201.9 635.3,193.2 682.5,228.2 729.8,228.0 777.1,208.3 824.4,209.6 871.6,249.8 918.9,236.9 966.2,245.8 1013.5,244.1 1060.7,247.0 1108.0,245.4 1108.0,245.4 1060.7,247.0 1013.5,244.1 966.2,245.8 918.9,236.9 871.6,249.8 824.4,209.6 777.1,208.3 729.8,228.0 682.5,228.2 635.3,193.2 588.0,201.9 540.7,194.6 493.5,201.0 446.2,201.3 398.9,203.3 351.6,175.9 304.4,179.9 257.1,175.0 209.8,180.7 162.5,176.1 115.3,174.5 68.0,169.3" fill="#9e9ac8" fill-opacity="0.9" stroke="#fff" stroke-width="0.4"><title>diagnostics_clean — unrollLoopsInModule</title></polygon>
<polygon points="68.0,168.3 115.3,173.4 162.5,175.0 209.8,179.7 257.1,174.0 304.4,178.9 351.6,174.9 398.9,202.9 446.2,200.9 493.5,200.6 540.7,194.4 588.0,201.7 635.3,192.9 682.5,227.9 729.8,227.8 777.1,208.0 824.4,209.4 871.6,249.5 918.9,236.7 966.2,245.5 1013.5,243.8 1060.7,246.7 1108.0,245.1 1108.0,245.4 1060.7,247.0 1013.5,244.1 966.2,245.8 918.9,236.9 871.6,249.8 824.4,209.6 777.1,208.3 729.8,228.0 682.5,228.2 635.3,193.2 588.0,201.9 540.7,194.6 493.5,201.0 446.2,201.3 398.9,203.3 351.6,175.8 304.4,179.8 257.1,174.9 209.8,180.6 162.5,175.9 115.3,174.4 68.0,169.2" fill="#807dba" fill-opacity="0.9" stroke="#fff" stroke-width="0.4"><title>diagnostics_clean — legalizeResourceTypes</title></polygon>
<polygon points="68.0,166.9 115.3,172.1 162.5,173.7 209.8,178.3 257.1,172.6 304.4,177.5 351.6,173.6 398.9,202.2 446.2,200.2 493.5,199.9 540.7,193.7 588.0,201.1 635.3,192.4 682.5,227.5 729.8,227.2 777.1,207.5 824.4,208.8 871.6,249.0 918.9,236.1 966.2,245.0 1013.5,243.3 1060.7,246.2 1108.0,244.7 1108.0,245.1 1060.7,246.7 1013.5,243.8 966.2,245.5 918.9,236.7 871.6,249.5 824.4,209.4 777.1,208.0 729.8,227.8 682.5,227.9 635.3,192.9 588.0,201.7 540.7,194.4 493.5,200.6 446.2,200.9 398.9,202.9 351.6,174.9 304.4,178.9 257.1,174.0 209.8,179.7 162.5,175.0 115.3,173.4 68.0,168.3" fill="#6a51a3" fill-opacity="0.9" stroke="#fff" stroke-width="0.4"><title>diagnostics_clean — legalizeExistentialTypeLayout</title></polygon>
<polygon points="68.0,163.5 115.3,168.8 162.5,170.2 209.8,175.0 257.1,169.3 304.4,174.1 351.6,170.1 398.9,199.0 446.2,197.0 493.5,196.6 540.7,190.5 588.0,197.9 635.3,188.9 682.5,224.5 729.8,224.1 777.1,204.4 824.4,205.5 871.6,246.6 918.9,233.6 966.2,242.5 1013.5,240.8 1060.7,243.8 1108.0,242.1 1108.0,244.7 1060.7,246.2 1013.5,243.3 966.2,245.0 918.9,236.1 871.6,249.0 824.4,208.8 777.1,207.5 729.8,227.2 682.5,227.5 635.3,192.4 588.0,201.1 540.7,193.7 493.5,199.9 446.2,200.2 398.9,202.2 351.6,173.6 304.4,177.5 257.1,172.6 209.8,178.3 162.5,173.7 115.3,172.1 68.0,166.9" fill="#bcbddc" fill-opacity="0.9" stroke="#fff" stroke-width="0.4"><title>diagnostics_clean — performMandatoryEarlyInlining</title></polygon>
<polygon points="68.0,163.3 115.3,168.6 162.5,170.1 209.8,174.9 257.1,169.2 304.4,174.0 351.6,170.0 398.9,198.9 446.2,196.9 493.5,196.5 540.7,190.4 588.0,197.8 635.3,188.8 682.5,224.3 729.8,223.9 777.1,204.3 824.4,205.4 871.6,246.6 918.9,233.6 966.2,242.5 1013.5,240.8 1060.7,243.8 1108.0,242.1 1108.0,242.1 1060.7,243.8 1013.5,240.8 966.2,242.5 918.9,233.6 871.6,246.6 824.4,205.5 777.1,204.4 729.8,224.1 682.5,224.5 635.3,188.9 588.0,197.9 540.7,190.5 493.5,196.6 446.2,197.0 398.9,199.0 351.6,170.1 304.4,174.1 257.1,169.3 209.8,175.0 162.5,170.2 115.3,168.8 68.0,163.5" fill="#dadaeb" fill-opacity="0.9" stroke="#fff" stroke-width="0.4"><title>diagnostics_clean — performForceInlining</title></polygon>
<polygon points="68.0,145.7 115.3,152.1 162.5,153.0 209.8,157.9 257.1,150.9 304.4,156.3 351.6,152.7 398.9,192.9 446.2,190.9 493.5,191.0 540.7,184.7 588.0,192.4 635.3,184.0 682.5,221.3 729.8,221.0 777.1,201.3 824.4,202.3 871.6,243.4 918.9,230.3 966.2,239.6 1013.5,237.5 1060.7,240.5 1108.0,239.2 1108.0,242.1 1060.7,243.8 1013.5,240.8 966.2,242.5 918.9,233.6 871.6,246.6 824.4,205.4 777.1,204.3 729.8,223.9 682.5,224.3 635.3,188.8 588.0,197.8 540.7,190.4 493.5,196.5 446.2,196.9 398.9,198.9 351.6,170.0 304.4,174.0 257.1,169.2 209.8,174.9 162.5,170.1 115.3,168.6 68.0,163.3" fill="#4a1486" fill-opacity="0.9" stroke="#fff" stroke-width="0.4"><title>diagnostics_clean — linkAndOptimizeIR (self)</title></polygon>
<polygon points="68.0,110.8 115.3,117.7 162.5,116.7 209.8,121.3 257.1,117.1 304.4,122.6 351.6,115.2 398.9,162.0 446.2,158.8 493.5,157.0 540.7,150.9 588.0,156.5 635.3,154.9 682.5,194.4 729.8,191.2 777.1,170.6 824.4,174.6 871.6,213.6 918.9,200.3 966.2,210.1 1013.5,207.6 1060.7,210.0 1108.0,210.0 1108.0,239.2 1060.7,240.5 1013.5,237.5 966.2,239.6 918.9,230.3 871.6,243.4 824.4,202.3 777.1,201.3 729.8,221.0 682.5,221.3 635.3,184.0 588.0,192.4 540.7,184.7 493.5,191.0 446.2,190.9 398.9,192.9 351.6,152.7 304.4,156.3 257.1,150.9 209.8,157.9 162.5,153.0 115.3,152.1 68.0,145.7" fill="#e6550d" fill-opacity="0.9" stroke="#fff" stroke-width="0.4"><title>diagnostics_clean — generateOutput (self)</title></polygon>
<polygon points="68.0,108.6 115.3,115.5 162.5,114.2 209.8,118.5 257.1,115.4 304.4,120.5 351.6,113.2 398.9,159.1 446.2,156.5 493.5,157.0 540.7,150.0 588.0,154.5 635.3,151.4 682.5,192.9 729.8,189.2 777.1,170.6 824.4,172.9 871.6,212.5 918.9,198.9 966.2,208.7 1013.5,205.9 1060.7,206.6 1108.0,208.3 1108.0,210.0 1060.7,210.0 1013.5,207.6 966.2,210.1 918.9,200.3 871.6,213.6 824.4,174.6 777.1,170.6 729.8,191.2 682.5,194.4 635.3,154.9 588.0,156.5 540.7,150.9 493.5,157.0 446.2,158.8 398.9,162.0 351.6,115.2 304.4,122.6 257.1,117.1 209.8,121.3 162.5,116.7 115.3,117.7 68.0,110.8" fill="#969696" fill-opacity="0.9" stroke="#fff" stroke-width="0.4"><title>diagnostics_clean — compileInner (self)</title></polygon>
<text x="12" y="578" fill="#666" font-weight="600">phase buckets</text>
<rect x="12" y="586" width="12" height="12" fill="#c7e9c0"/>
<text x="28" y="596" fill="#222">parseTranslationUnit</text>
<rect x="289" y="586" width="12" height="12" fill="#41ab5d"/>
<text x="305" y="596" fill="#222">SemanticChecking</text>
<rect x="566" y="586" width="12" height="12" fill="#006d2c"/>
<text x="582" y="596" fill="#222">generateIR</text>
<rect x="843" y="586" width="12" height="12" fill="#74c476"/>
<text x="859" y="596" fill="#222">frontEndExecute (self)</text>
<rect x="12" y="604" width="12" height="12" fill="#6baed6"/>
<text x="28" y="614" fill="#222">specializeModule</text>
<rect x="289" y="604" width="12" height="12" fill="#2171b5"/>
<text x="305" y="614" fill="#222">simplifyIR</text>
<rect x="566" y="604" width="12" height="12" fill="#08306b"/>
<text x="582" y="614" fill="#222">linkIR</text>
<rect x="843" y="604" width="12" height="12" fill="#9e9ac8"/>
<text x="859" y="614" fill="#222">unrollLoopsInModule</text>
<rect x="12" y="622" width="12" height="12" fill="#807dba"/>
<text x="28" y="632" fill="#222">legalizeResourceTypes</text>
<rect x="289" y="622" width="12" height="12" fill="#6a51a3"/>
<text x="305" y="632" fill="#222">legalizeExistentialTypeLayout</text>
<rect x="566" y="622" width="12" height="12" fill="#bcbddc"/>
<text x="582" y="632" fill="#222">performMandatoryEarlyInlining</text>
<rect x="843" y="622" width="12" height="12" fill="#dadaeb"/>
<text x="859" y="632" fill="#222">performForceInlining</text>
<rect x="12" y="640" width="12" height="12" fill="#4a1486"/>
<text x="28" y="650" fill="#222">linkAndOptimizeIR (self)</text>
<rect x="289" y="640" width="12" height="12" fill="#fd8d3c"/>
<text x="305" y="650" fill="#222">emitEntryPointsSourceFromIR</text>
<rect x="566" y="640" width="12" height="12" fill="#e6550d"/>
<text x="582" y="650" fill="#222">generateOutput (self)</text>
<rect x="843" y="640" width="12" height="12" fill="#969696"/>
<text x="859" y="650" fill="#222">compileInner (self)</text>
</svg>