<svg xmlns="http://www.w3.org/2000/svg" xmlns:xlink="http://www.w3.org/1999/xlink" width="1132" height="680" viewBox="0 0 1132 680" preserveAspectRatio="xMidYMid meet" font-family="sans-serif" font-size="13">
<rect width="1132" height="680" fill="white"/>
<text x="12" y="30" font-size="20" font-weight="bold">diagnostics_clean — Across releases (median ms)</text>
<text x="68" y="60" font-size="15" font-weight="600" fill="#1a1a1a">diagnostics_clean<tspan fill="#888" font-weight="400" text-decoration="none">  0.94×</tspan></text>
<line x1="68.0" y1="516.0" x2="1108.0" y2="516.0" stroke="#eee"/>
<text x="64.0" y="519.0" text-anchor="end" fill="#999">0.0</text>
<line x1="68.0" y1="296.0" x2="1108.0" y2="296.0" stroke="#eee"/>
<text x="64.0" y="299.0" text-anchor="end" fill="#999">45</text>
<line x1="68.0" y1="76.0" x2="1108.0" y2="76.0" stroke="#eee"/>
<text x="64.0" y="79.0" text-anchor="end" fill="#999">90</text>
<line x1="68.0" y1="76.0" x2="68.0" y2="516.0" stroke="#333"/>
<line x1="68.0" y1="516.0" x2="1108.0" y2="516.0" stroke="#333"/>
<line x1="68.0" y1="516.0" x2="68.0" y2="519.0" stroke="#999"/>
<text x="68.0" y="531.0" text-anchor="end" fill="#666" transform="rotate(-50 68.0 531.0)">25.12</text>
<line x1="113.2" y1="516.0" x2="113.2" y2="519.0" stroke="#999"/>
<text x="113.2" y="531.0" text-anchor="end" fill="#666" transform="rotate(-50 113.2 531.0)">25.13</text>
<line x1="158.4" y1="516.0" x2="158.4" y2="519.0" stroke="#999"/>
<text x="158.4" y="531.0" text-anchor="end" fill="#666" transform="rotate(-50 158.4 531.0)">25.14</text>
<line x1="203.7" y1="516.0" x2="203.7" y2="519.0" stroke="#999"/>
<text x="203.7" y="531.0" text-anchor="end" fill="#666" transform="rotate(-50 203.7 531.0)">25.15</text>
<line x1="248.9" y1="516.0" x2="248.9" y2="519.0" stroke="#999"/>
<text x="248.9" y="531.0" text-anchor="end" fill="#666" transform="rotate(-50 248.9 531.0)">25.16</text>
<line x1="294.1" y1="516.0" x2="294.1" y2="519.0" stroke="#999"/>
<text x="294.1" y="531.0" text-anchor="end" fill="#666" transform="rotate(-50 294.1 531.0)">25.17</text>
<line x1="339.3" y1="516.0" x2="339.3" y2="519.0" stroke="#999"/>
<text x="339.3" y="531.0" text-anchor="end" fill="#666" transform="rotate(-50 339.3 531.0)">25.18</text>
<line x1="384.5" y1="516.0" x2="384.5" y2="519.0" stroke="#999"/>
<text x="384.5" y="531.0" text-anchor="end" fill="#666" transform="rotate(-50 384.5 531.0)">25.19</text>
<line x1="429.7" y1="516.0" x2="429.7" y2="519.0" stroke="#999"/>
<text x="429.7" y="531.0" text-anchor="end" fill="#666" transform="rotate(-50 429.7 531.0)">25.20</text>
<line x1="475.0" y1="516.0" x2="475.0" y2="519.0" stroke="#999"/>
<text x="475.0" y="531.0" text-anchor="end" fill="#666" transform="rotate(-50 475.0 531.0)">25.21</text>
<line x1="520.2" y1="516.0" x2="520.2" y2="519.0" stroke="#999"/>
<text x="520.2" y="531.0" text-anchor="end" fill="#666" transform="rotate(-50 520.2 531.0)">25.22</text>
<line x1="565.4" y1="516.0" x2="565.4" y2="519.0" stroke="#999"/>
<text x="565.4" y="531.0" text-anchor="end" fill="#666" transform="rotate(-50 565.4 531.0)">25.23</text>
<line x1="610.6" y1="516.0" x2="610.6" y2="519.0" stroke="#999"/>
<text x="610.6" y="531.0" text-anchor="end" fill="#666" transform="rotate(-50 610.6 531.0)">25.24</text>
<line x1="655.8" y1="516.0" x2="655.8" y2="519.0" stroke="#999"/>
<text x="655.8" y="531.0" text-anchor="end" fill="#666" transform="rotate(-50 655.8 531.0)">26.1</text>
<line x1="701.0" y1="516.0" x2="701.0" y2="519.0" stroke="#999"/>
<text x="701.0" y="531.0" text-anchor="end" fill="#666" transform="rotate(-50 701.0 531.0)">26.2</text>
<line x1="746.3" y1="516.0" x2="746.3" y2="519.0" stroke="#999"/>
<text x="746.3" y="531.0" text-anchor="end" fill="#666" transform="rotate(-50 746.3 531.0)">26.3</text>
<line x1="791.5" y1="516.0" x2="791.5" y2="519.0" stroke="#999"/>
<text x="791.5" y="531.0" text-anchor="end" fill="#666" transform="rotate(-50 791.5 531.0)">26.4</text>
<line x1="836.7" y1="516.0" x2="836.7" y2="519.0" stroke="#999"/>
<text x="836.7" y="531.0" text-anchor="end" fill="#666" transform="rotate(-50 836.7 531.0)">26.5</text>
<line x1="881.9" y1="516.0" x2="881.9" y2="519.0" stroke="#999"/>
<text x="881.9" y="531.0" text-anchor="end" fill="#666" transform="rotate(-50 881.9 531.0)">26.7</text>
<line x1="927.1" y1="516.0" x2="927.1" y2="519.0" stroke="#999"/>
<text x="927.1" y="531.0" text-anchor="end" fill="#666" transform="rotate(-50 927.1 531.0)">26.8</text>
<line x1="972.3" y1="516.0" x2="972.3" y2="519.0" stroke="#999"/>
<text x="972.3" y="531.0" text-anchor="end" fill="#666" transform="rotate(-50 972.3 531.0)">26.9</text>
<line x1="1017.6" y1="516.0" x2="1017.6" y2="519.0" stroke="#999"/>
<text x="1017.6" y="531.0" text-anchor="end" fill="#666" transform="rotate(-50 1017.6 531.0)">26.10</text>
<line x1="1062.8" y1="516.0" x2="1062.8" y2="519.0" stroke="#999"/>
<text x="1062.8" y="531.0" text-anchor="end" fill="#666" transform="rotate(-50 1062.8 531.0)">26.11</text>
<line x1="1108.0" y1="516.0" x2="1108.0" y2="519.0" stroke="#999"/>
<text x="1108.0" y="531.0" text-anchor="end" fill="#666" transform="rotate(-50 1108.0 531.0)">26.12</text>
<polygon points="68.0,506.2 113.2,504.0 158.4,506.4 203.7,507.1 248.9,507.0 294.1,507.2 339.3,507.3 384.5,507.1 429.7,507.4 475.0,507.2 520.2,507.4 565.4,507.4 610.6,506.4 655.8,506.5 701.0,506.3 746.3,506.2 791.5,505.7 836.7,506.0 881.9,504.3 927.1,505.5 972.3,505.3 1017.6,505.2 1062.8,506.0 1108.0,505.5 1108.0,516.0 1062.8,516.0 1017.6,516.0 972.3,516.0 927.1,516.0 881.9,516.0 836.7,516.0 791.5,516.0 746.3,516.0 701.0,516.0 655.8,516.0 610.6,516.0 565.4,516.0 520.2,516.0 475.0,516.0 429.7,516.0 384.5,516.0 339.3,516.0 294.1,516.0 248.9,516.0 203.7,516.0 158.4,516.0 113.2,516.0 68.0,516.0" fill="#c7e9c0" fill-opacity="0.9" stroke="#fff" stroke-width="0.4"><title>diagnostics_clean — parseTranslationUnit</title></polygon>
<polygon points="68.0,432.6 113.2,426.3 158.4,416.1 203.7,367.3 248.9,377.5 294.1,371.5 339.3,371.8 384.5,371.6 429.7,370.5 475.0,370.1 520.2,397.0 565.4,394.9 610.6,396.2 655.8,395.4 701.0,382.9 746.3,384.5 791.5,376.4 836.7,382.8 881.9,325.0 927.1,347.3 972.3,335.7 1017.6,329.9 1062.8,455.6 1108.0,452.3 1108.0,505.5 1062.8,506.0 1017.6,505.2 972.3,505.3 927.1,505.5 881.9,504.3 836.7,506.0 791.5,505.7 746.3,506.2 701.0,506.3 655.8,506.5 610.6,506.4 565.4,507.4 520.2,507.4 475.0,507.2 429.7,507.4 384.5,507.1 339.3,507.3 294.1,507.2 248.9,507.0 203.7,507.1 158.4,506.4 113.2,504.0 68.0,506.2" fill="#41ab5d" fill-opacity="0.9" stroke="#fff" stroke-width="0.4"><title>diagnostics_clean — SemanticChecking</title></polygon>
<polygon points="68.0,398.2 113.2,387.0 158.4,375.0 203.7,327.2 248.9,338.6 294.1,329.3 339.3,330.7 384.5,330.3 429.7,330.2 475.0,328.9 520.2,356.1 565.4,353.7 610.6,356.9 655.8,355.2 701.0,341.0 746.3,343.7 791.5,333.9 836.7,341.3 881.9,209.3 927.1,258.5 972.3,223.1 1017.6,219.2 1062.8,414.9 1108.0,410.9 1108.0,452.3 1062.8,455.6 1017.6,329.9 972.3,335.7 927.1,347.3 881.9,325.0 836.7,382.8 791.5,376.4 746.3,384.5 701.0,382.9 655.8,395.4 610.6,396.2 565.4,394.9 520.2,397.0 475.0,370.1 429.7,370.5 384.5,371.6 339.3,371.8 294.1,371.5 248.9,377.5 203.7,367.3 158.4,416.1 113.2,426.3 68.0,432.6" fill="#006d2c" fill-opacity="0.9" stroke="#fff" stroke-width="0.4"><title>diagnostics_clean — generateIR</title></polygon>
<polygon points="68.0,388.4 113.2,386.0 158.4,373.8 203.7,327.2 248.9,336.6 294.1,327.5 339.3,328.8 384.5,327.5 429.7,327.9 475.0,327.1 520.2,354.4 565.4,352.4 610.6,355.4 655.8,353.4 701.0,338.7 746.3,341.0 791.5,332.6 836.7,338.2 881.9,209.3 927.1,254.1 972.3,213.4 1017.6,216.3 1062.8,412.6 1108.0,408.8 1108.0,410.9 1062.8,414.9 1017.6,219.2 972.3,223.1 927.1,258.5 881.9,209.3 836.7,341.3 791.5,333.9 746.3,343.7 701.0,341.0 655.8,355.2 610.6,356.9 565.4,353.7 520.2,356.1 475.0,328.9 429.7,330.2 384.5,330.3 339.3,330.7 294.1,329.3 248.9,338.6 203.7,327.2 158.4,375.0 113.2,387.0 68.0,398.2" fill="#74c476" fill-opacity="0.9" stroke="#fff" stroke-width="0.4"><title>diagnostics_clean — frontEndExecute (self)</title></polygon>
<polygon points="68.0,388.4 113.2,385.8 158.4,373.6 203.7,327.0 248.9,336.4 294.1,327.3 339.3,328.6 384.5,327.2 429.7,327.7 475.0,326.9 520.2,354.2 565.4,352.2 610.6,355.0 655.8,353.0 701.0,338.3 746.3,340.6 791.5,332.2 836.7,337.8 881.9,203.1 927.1,248.5 972.3,207.0 1017.6,210.6 1062.8,407.5 1108.0,403.7 1108.0,408.8 1062.8,412.6 1017.6,216.3 972.3,213.4 927.1,254.1 881.9,209.3 836.7,338.2 791.5,332.6 746.3,341.0 701.0,338.7 655.8,353.4 610.6,355.4 565.4,352.4 520.2,354.4 475.0,327.1 429.7,327.9 384.5,327.5 339.3,328.8 294.1,327.5 248.9,336.6 203.7,327.2 158.4,373.8 113.2,386.0 68.0,388.4" fill="#6baed6" fill-opacity="0.9" stroke="#fff" stroke-width="0.4"><title>diagnostics_clean — specializeModule</title></polygon>
<polygon points="68.0,388.4 113.2,385.0 158.4,372.7 203.7,326.3 248.9,335.7 294.1,326.6 339.3,327.8 384.5,326.4 429.7,326.9 475.0,326.1 520.2,353.4 565.4,351.4 610.6,354.3 655.8,352.3 701.0,337.5 746.3,339.8 791.5,331.4 836.7,337.0 881.9,199.3 927.1,245.2 972.3,203.6 1017.6,207.4 1062.8,404.5 1108.0,400.9 1108.0,403.7 1062.8,407.5 1017.6,210.6 972.3,207.0 927.1,248.5 881.9,203.1 836.7,337.8 791.5,332.2 746.3,340.6 701.0,338.3 655.8,353.0 610.6,355.0 565.4,352.2 520.2,354.2 475.0,326.9 429.7,327.7 384.5,327.2 339.3,328.6 294.1,327.3 248.9,336.4 203.7,327.0 158.4,373.6 113.2,385.8 68.0,388.4" fill="#2171b5" fill-opacity="0.9" stroke="#fff" stroke-width="0.4"><title>diagnostics_clean — simplifyIR</title></polygon>
<polygon points="68.0,388.4 113.2,378.4 158.4,365.2 203.7,319.9 248.9,332.4 294.1,323.2 339.3,324.3 384.5,322.9 429.7,323.4 475.0,322.6 520.2,350.2 565.4,348.0 610.6,350.8 655.8,349.2 701.0,334.2 746.3,336.4 791.5,325.8 836.7,333.6 881.9,139.0 927.1,201.6 972.3,145.4 1017.6,154.3 1062.8,402.1 1108.0,398.6 1108.0,400.9 1062.8,404.5 1017.6,207.4 972.3,203.6 927.1,245.2 881.9,199.3 836.7,337.0 791.5,331.4 746.3,339.8 701.0,337.5 655.8,352.3 610.6,354.3 565.4,351.4 520.2,353.4 475.0,326.1 429.7,326.9 384.5,326.4 339.3,327.8 294.1,326.6 248.9,335.7 203.7,326.3 158.4,372.7 113.2,385.0 68.0,388.4" fill="#08306b" fill-opacity="0.9" stroke="#fff" stroke-width="0.4"><title>diagnostics_clean — linkIR</title></polygon>
<polygon points="68.0,388.4 113.2,378.4 158.4,365.2 203.7,319.9 248.9,332.4 294.1,323.2 339.3,324.3 384.5,322.9 429.7,323.4 475.0,322.6 520.2,350.2 565.4,348.0 610.6,350.8 655.8,349.2 701.0,334.2 746.3,336.4 791.5,325.8 836.7,333.6 881.9,138.9 927.1,201.5 972.3,145.4 1017.6,154.3 1062.8,402.1 1108.0,398.5 1108.0,398.6 1062.8,402.1 1017.6,154.3 972.3,145.4 927.1,201.6 881.9,139.0 836.7,333.6 791.5,325.8 746.3,336.4 701.0,334.2 655.8,349.2 610.6,350.8 565.4,348.0 520.2,350.2 475.0,322.6 429.7,323.4 384.5,322.9 339.3,324.3 294.1,323.2 248.9,332.4 203.7,319.9 158.4,365.2 113.2,378.4 68.0,388.4" fill="#9e9ac8" fill-opacity="0.9" stroke="#fff" stroke-width="0.4"><title>diagnostics_clean — unrollLoopsInModule</title></polygon>
<polygon points="68.0,388.4 113.2,378.3 158.4,365.1 203.7,319.7 248.9,332.2 294.1,323.1 339.3,324.2 384.5,322.8 429.7,323.3 475.0,322.5 520.2,350.1 565.4,347.9 610.6,350.7 655.8,349.1 701.0,334.1 746.3,336.3 791.5,325.7 836.7,333.5 881.9,138.6 927.1,201.2 972.3,145.0 1017.6,154.0 1062.8,401.7 1108.0,398.2 1108.0,398.5 1062.8,402.1 1017.6,154.3 972.3,145.4 927.1,201.5 881.9,138.9 836.7,333.6 791.5,325.8 746.3,336.4 701.0,334.2 655.8,349.2 610.6,350.8 565.4,348.0 520.2,350.2 475.0,322.6 429.7,323.4 384.5,322.9 339.3,324.3 294.1,323.2 248.9,332.4 203.7,319.9 158.4,365.2 113.2,378.4 68.0,388.4" fill="#807dba" fill-opacity="0.9" stroke="#fff" stroke-width="0.4"><title>diagnostics_clean — legalizeResourceTypes</title></polygon>
<polygon points="68.0,388.4 113.2,378.0 158.4,364.8 203.7,319.4 248.9,331.9 294.1,322.8 339.3,323.9 384.5,322.6 429.7,323.0 475.0,322.3 520.2,349.9 565.4,347.7 610.6,350.4 655.8,348.8 701.0,333.8 746.3,336.0 791.5,325.4 836.7,333.3 881.9,138.0 927.1,200.7 972.3,144.6 1017.6,153.5 1062.8,401.2 1108.0,397.7 1108.0,398.2 1062.8,401.7 1017.6,154.0 972.3,145.0 927.1,201.2 881.9,138.6 836.7,333.5 791.5,325.7 746.3,336.3 701.0,334.1 655.8,349.1 610.6,350.7 565.4,347.9 520.2,350.1 475.0,322.5 429.7,323.3 384.5,322.8 339.3,324.2 294.1,323.1 248.9,332.2 203.7,319.7 158.4,365.1 113.2,378.3 68.0,388.4" fill="#6a51a3" fill-opacity="0.9" stroke="#fff" stroke-width="0.4"><title>diagnostics_clean — legalizeExistentialTypeLayout</title></polygon>
<polygon points="68.0,388.4 113.2,376.7 158.4,363.5 203.7,318.2 248.9,330.6 294.1,321.5 339.3,322.7 384.5,321.3 429.7,321.8 475.0,321.1 520.2,348.6 565.4,346.5 610.6,349.2 655.8,347.6 701.0,332.6 746.3,334.8 791.5,324.2 836.7,332.0 881.9,136.7 927.1,199.5 972.3,143.3 1017.6,152.3 1062.8,400.0 1108.0,396.5 1108.0,397.7 1062.8,401.2 1017.6,153.5 972.3,144.6 927.1,200.7 881.9,138.0 836.7,333.3 791.5,325.4 746.3,336.0 701.0,333.8 655.8,348.8 610.6,350.4 565.4,347.7 520.2,349.9 475.0,322.3 429.7,323.0 384.5,322.6 339.3,323.9 294.1,322.8 248.9,331.9 203.7,319.4 158.4,364.8 113.2,378.0 68.0,388.4" fill="#bcbddc" fill-opacity="0.9" stroke="#fff" stroke-width="0.4"><title>diagnostics_clean — performMandatoryEarlyInlining</title></polygon>
<polygon points="68.0,388.4 113.2,376.7 158.4,363.5 203.7,318.2 248.9,330.6 294.1,321.5 339.3,322.7 384.5,321.3 429.7,321.7 475.0,321.1 520.2,348.6 565.4,346.5 610.6,349.2 655.8,347.6 701.0,332.6 746.3,334.8 791.5,324.1 836.7,332.0 881.9,136.6 927.1,199.4 972.3,143.3 1017.6,152.3 1062.8,399.9 1108.0,396.5 1108.0,396.5 1062.8,400.0 1017.6,152.3 972.3,143.3 927.1,199.5 881.9,136.7 836.7,332.0 791.5,324.2 746.3,334.8 701.0,332.6 655.8,347.6 610.6,349.2 565.4,346.5 520.2,348.6 475.0,321.1 429.7,321.8 384.5,321.3 339.3,322.7 294.1,321.5 248.9,330.6 203.7,318.2 158.4,363.5 113.2,376.7 68.0,388.4" fill="#dadaeb" fill-opacity="0.9" stroke="#fff" stroke-width="0.4"><title>diagnostics_clean — performForceInlining</title></polygon>
<polygon points="68.0,383.5 113.2,376.4 158.4,363.2 203.7,318.2 248.9,330.6 294.1,321.2 339.3,322.3 384.5,321.0 429.7,321.3 475.0,320.6 520.2,348.1 565.4,346.0 610.6,347.8 655.8,346.1 701.0,331.1 746.3,333.3 791.5,322.3 836.7,330.4 881.9,125.9 927.1,189.5 972.3,134.9 1017.6,142.7 1062.8,393.7 1108.0,391.1 1108.0,396.5 1062.8,399.9 1017.6,152.3 972.3,143.3 927.1,199.4 881.9,136.6 836.7,332.0 791.5,324.1 746.3,334.8 701.0,332.6 655.8,347.6 610.6,349.2 565.4,346.5 520.2,348.6 475.0,321.1 429.7,321.7 384.5,321.3 339.3,322.7 294.1,321.5 248.9,330.6 203.7,318.2 158.4,363.5 113.2,376.7 68.0,388.4" fill="#4a1486" fill-opacity="0.9" stroke="#fff" stroke-width="0.4"><title>diagnostics_clean — linkAndOptimizeIR (self)</title></polygon>
<polygon points="68.0,373.7 113.2,364.0 158.4,350.3 203.7,305.9 248.9,319.2 294.1,309.7 339.3,310.5 384.5,308.8 429.7,310.0 475.0,308.6 520.2,334.8 565.4,334.5 610.6,335.8 655.8,334.7 701.0,319.6 746.3,321.0 791.5,309.4 836.7,318.4 881.9,109.8 927.1,176.4 972.3,119.5 1017.6,128.3 1062.8,379.4 1108.0,378.4 1108.0,391.1 1062.8,393.7 1017.6,142.7 972.3,134.9 927.1,189.5 881.9,125.9 836.7,330.4 791.5,322.3 746.3,333.3 701.0,331.1 655.8,346.1 610.6,347.8 565.4,346.0 520.2,348.1 475.0,320.6 429.7,321.3 384.5,321.0 339.3,322.3 294.1,321.2 248.9,330.6 203.7,318.2 158.4,363.2 113.2,376.4 68.0,383.5" fill="#e6550d" fill-opacity="0.9" stroke="#fff" stroke-width="0.4"><title>diagnostics_clean — generateOutput (self)</title></polygon>
<polygon points="68.0,368.8 113.2,363.6 158.4,342.5 203.7,305.4 248.9,319.2 294.1,308.6 339.3,309.3 384.5,308.0 429.7,308.8 475.0,307.4 520.2,333.8 565.4,332.2 610.6,334.8 655.8,334.0 701.0,318.4 746.3,319.8 791.5,308.2 836.7,317.4 881.9,108.6 927.1,175.2 972.3,114.9 1017.6,128.3 1062.8,378.5 1108.0,377.9 1108.0,378.4 1062.8,379.4 1017.6,128.3 972.3,119.5 927.1,176.4 881.9,109.8 836.7,318.4 791.5,309.4 746.3,321.0 701.0,319.6 655.8,334.7 610.6,335.8 565.4,334.5 520.2,334.8 475.0,308.6 429.7,310.0 384.5,308.8 339.3,310.5 294.1,309.7 248.9,319.2 203.7,305.9 158.4,350.3 113.2,364.0 68.0,373.7" fill="#969696" fill-opacity="0.9" stroke="#fff" stroke-width="0.4"><title>diagnostics_clean — compileInner (self)</title></polygon>
<text x="12" y="578" fill="#666" font-weight="600">phase buckets</text>
<rect x="12" y="586" width="12" height="12" fill="#c7e9c0"/>
<text x="28" y="596" fill="#222">parseTranslationUnit</text>
<rect x="289" y="586" width="12" height="12" fill="#41ab5d"/>
<text x="305" y="596" fill="#222">SemanticChecking</text>
<rect x="566" y="586" width="12" height="12" fill="#006d2c"/>
<text x="582" y="596" fill="#222">generateIR</text>
<rect x="843" y="586" width="12" height="12" fill="#74c476"/>
<text x="859" y="596" fill="#222">frontEndExecute (self)</text>
<rect x="12" y="604" width="12" height="12" fill="#6baed6"/>
<text x="28" y="614" fill="#222">specializeModule</text>
<rect x="289" y="604" width="12" height="12" fill="#2171b5"/>
<text x="305" y="614" fill="#222">simplifyIR</text>
<rect x="566" y="604" width="12" height="12" fill="#08306b"/>
<text x="582" y="614" fill="#222">linkIR</text>
<rect x="843" y="604" width="12" height="12" fill="#9e9ac8"/>
<text x="859" y="614" fill="#222">unrollLoopsInModule</text>
<rect x="12" y="622" width="12" height="12" fill="#807dba"/>
<text x="28" y="632" fill="#222">legalizeResourceTypes</text>
<rect x="289" y="622" width="12" height="12" fill="#6a51a3"/>
<text x="305" y="632" fill="#222">legalizeExistentialTypeLayout</text>
<rect x="566" y="622" width="12" height="12" fill="#bcbddc"/>
<text x="582" y="632" fill="#222">performMandatoryEarlyInlining</text>
<rect x="843" y="622" width="12" height="12" fill="#dadaeb"/>
<text x="859" y="632" fill="#222">performForceInlining</text>
<rect x="12" y="640" width="12" height="12" fill="#4a1486"/>
<text x="28" y="650" fill="#222">linkAndOptimizeIR (self)</text>
<rect x="289" y="640" width="12" height="12" fill="#fd8d3c"/>
<text x="305" y="650" fill="#222">emitEntryPointsSourceFromIR</text>
<rect x="566" y="640" width="12" height="12" fill="#e6550d"/>
<text x="582" y="650" fill="#222">generateOutput (self)</text>
<rect x="843" y="640" width="12" height="12" fill="#969696"/>
<text x="859" y="650" fill="#222">compileInner (self)</text>
</svg>