<svg xmlns="http://www.w3.org/2000/svg" xmlns:xlink="http://www.w3.org/1999/xlink" width="1132" height="680" viewBox="0 0 1132 680" preserveAspectRatio="xMidYMid meet" font-family="sans-serif" font-size="13">
<rect width="1132" height="680" fill="white"/>
<text x="12" y="30" font-size="20" font-weight="bold">diagnostics_clean — full phase breakdown across releases (median ms)</text>
<text x="68" y="60" font-size="15" font-weight="600" fill="#1a1a1a">diagnostics_clean<tspan fill="#888" font-weight="400" text-decoration="none">  0.98×</tspan></text>
<line x1="68.0" y1="516.0" x2="1108.0" y2="516.0" stroke="#eee"/>
<text x="64.0" y="519.0" text-anchor="end" fill="#999">0.0</text>
<line x1="68.0" y1="296.0" x2="1108.0" y2="296.0" stroke="#eee"/>
<text x="64.0" y="299.0" text-anchor="end" fill="#999">35</text>
<line x1="68.0" y1="76.0" x2="1108.0" y2="76.0" stroke="#eee"/>
<text x="64.0" y="79.0" text-anchor="end" fill="#999">71</text>
<line x1="68.0" y1="76.0" x2="68.0" y2="516.0" stroke="#333"/>
<line x1="68.0" y1="516.0" x2="1108.0" y2="516.0" stroke="#333"/>
<line x1="920.8" y1="76.0" x2="920.8" y2="516.0" stroke="#e8731a" stroke-width="1.2" stroke-dasharray="4 3"/>
<text x="923.8" y="87.0" fill="#e8731a" font-size="11">daily →</text>
<line x1="68.0" y1="516.0" x2="68.0" y2="519.0" stroke="#999"/>
<text x="68.0" y="531.0" text-anchor="end" fill="#666" transform="rotate(-50 68.0 531.0)">25.14</text>
<line x1="109.6" y1="516.0" x2="109.6" y2="519.0" stroke="#999"/>
<text x="109.6" y="531.0" text-anchor="end" fill="#666" transform="rotate(-50 109.6 531.0)">25.15</text>
<line x1="151.2" y1="516.0" x2="151.2" y2="519.0" stroke="#999"/>
<text x="151.2" y="531.0" text-anchor="end" fill="#666" transform="rotate(-50 151.2 531.0)">25.16</text>
<line x1="192.8" y1="516.0" x2="192.8" y2="519.0" stroke="#999"/>
<text x="192.8" y="531.0" text-anchor="end" fill="#666" transform="rotate(-50 192.8 531.0)">25.17</text>
<line x1="234.4" y1="516.0" x2="234.4" y2="519.0" stroke="#999"/>
<text x="234.4" y="531.0" text-anchor="end" fill="#666" transform="rotate(-50 234.4 531.0)">25.18</text>
<line x1="276.0" y1="516.0" x2="276.0" y2="519.0" stroke="#999"/>
<text x="276.0" y="531.0" text-anchor="end" fill="#666" transform="rotate(-50 276.0 531.0)">25.19</text>
<line x1="317.6" y1="516.0" x2="317.6" y2="519.0" stroke="#999"/>
<text x="317.6" y="531.0" text-anchor="end" fill="#666" transform="rotate(-50 317.6 531.0)">25.20</text>
<line x1="359.2" y1="516.0" x2="359.2" y2="519.0" stroke="#999"/>
<text x="359.2" y="531.0" text-anchor="end" fill="#666" transform="rotate(-50 359.2 531.0)">25.21</text>
<line x1="400.8" y1="516.0" x2="400.8" y2="519.0" stroke="#999"/>
<text x="400.8" y="531.0" text-anchor="end" fill="#666" transform="rotate(-50 400.8 531.0)">25.22</text>
<line x1="442.4" y1="516.0" x2="442.4" y2="519.0" stroke="#999"/>
<text x="442.4" y="531.0" text-anchor="end" fill="#666" transform="rotate(-50 442.4 531.0)">25.23</text>
<line x1="484.0" y1="516.0" x2="484.0" y2="519.0" stroke="#999"/>
<text x="484.0" y="531.0" text-anchor="end" fill="#666" transform="rotate(-50 484.0 531.0)">25.24</text>
<line x1="525.6" y1="516.0" x2="525.6" y2="519.0" stroke="#999"/>
<text x="525.6" y="531.0" text-anchor="end" fill="#666" transform="rotate(-50 525.6 531.0)">26.1</text>
<line x1="567.2" y1="516.0" x2="567.2" y2="519.0" stroke="#999"/>
<text x="567.2" y="531.0" text-anchor="end" fill="#666" transform="rotate(-50 567.2 531.0)">26.2</text>
<line x1="608.8" y1="516.0" x2="608.8" y2="519.0" stroke="#999"/>
<text x="608.8" y="531.0" text-anchor="end" fill="#666" transform="rotate(-50 608.8 531.0)">26.3</text>
<line x1="650.4" y1="516.0" x2="650.4" y2="519.0" stroke="#999"/>
<text x="650.4" y="531.0" text-anchor="end" fill="#666" transform="rotate(-50 650.4 531.0)">26.4</text>
<line x1="692.0" y1="516.0" x2="692.0" y2="519.0" stroke="#999"/>
<text x="692.0" y="531.0" text-anchor="end" fill="#666" transform="rotate(-50 692.0 531.0)">26.5</text>
<line x1="733.6" y1="516.0" x2="733.6" y2="519.0" stroke="#999"/>
<text x="733.6" y="531.0" text-anchor="end" fill="#666" transform="rotate(-50 733.6 531.0)">26.7</text>
<line x1="775.2" y1="516.0" x2="775.2" y2="519.0" stroke="#999"/>
<text x="775.2" y="531.0" text-anchor="end" fill="#666" transform="rotate(-50 775.2 531.0)">26.8</text>
<line x1="816.8" y1="516.0" x2="816.8" y2="519.0" stroke="#999"/>
<text x="816.8" y="531.0" text-anchor="end" fill="#666" transform="rotate(-50 816.8 531.0)">26.9</text>
<line x1="858.4" y1="516.0" x2="858.4" y2="519.0" stroke="#999"/>
<text x="858.4" y="531.0" text-anchor="end" fill="#666" transform="rotate(-50 858.4 531.0)">26.10</text>
<line x1="900.0" y1="516.0" x2="900.0" y2="519.0" stroke="#999"/>
<text x="900.0" y="531.0" text-anchor="end" fill="#666" transform="rotate(-50 900.0 531.0)">26.11</text>
<line x1="941.6" y1="516.0" x2="941.6" y2="519.0" stroke="#999"/>
<text x="941.6" y="531.0" text-anchor="end" fill="#e8731a" transform="rotate(-50 941.6 531.0)">06-25</text>
<line x1="983.2" y1="516.0" x2="983.2" y2="519.0" stroke="#999"/>
<text x="983.2" y="531.0" text-anchor="end" fill="#e8731a" transform="rotate(-50 983.2 531.0)">06-26</text>
<line x1="1024.8" y1="516.0" x2="1024.8" y2="519.0" stroke="#999"/>
<text x="1024.8" y="531.0" text-anchor="end" fill="#e8731a" transform="rotate(-50 1024.8 531.0)">06-28</text>
<line x1="1066.4" y1="516.0" x2="1066.4" y2="519.0" stroke="#999"/>
<text x="1066.4" y="531.0" text-anchor="end" fill="#e8731a" transform="rotate(-50 1066.4 531.0)">07-01</text>
<line x1="1108.0" y1="516.0" x2="1108.0" y2="519.0" stroke="#999"/>
<text x="1108.0" y="531.0" text-anchor="end" fill="#e8731a" transform="rotate(-50 1108.0 531.0)">07-02</text>
<polygon points="68.0,505.0 109.6,505.8 151.2,505.6 192.8,505.3 234.4,505.6 276.0,505.2 317.6,505.3 359.2,505.4 400.8,505.6 442.4,505.7 484.0,504.6 525.6,504.6 567.2,504.8 608.8,504.2 650.4,504.0 692.0,503.5 733.6,503.0 775.2,503.1 816.8,503.3 858.4,503.5 900.0,503.5 941.6,502.0 983.2,502.0 1024.8,502.2 1066.4,501.8 1108.0,501.7 1108.0,516.0 1066.4,516.0 1024.8,516.0 983.2,516.0 941.6,516.0 900.0,516.0 858.4,516.0 816.8,516.0 775.2,516.0 733.6,516.0 692.0,516.0 650.4,516.0 608.8,516.0 567.2,516.0 525.6,516.0 484.0,516.0 442.4,516.0 400.8,516.0 359.2,516.0 317.6,516.0 276.0,516.0 234.4,516.0 192.8,516.0 151.2,516.0 109.6,516.0 68.0,516.0" fill="#c7e9c0" fill-opacity="0.9" stroke="#fff" stroke-width="0.4"><title>diagnostics_clean — parseTranslationUnit</title></polygon>
<polygon points="68.0,402.6 109.6,343.0 151.2,342.0 192.8,333.9 234.4,337.7 276.0,337.1 317.6,335.2 359.2,336.8 400.8,366.7 442.4,368.0 484.0,366.0 525.6,365.9 567.2,354.3 608.8,352.8 650.4,351.0 692.0,344.8 733.6,312.7 775.2,310.8 816.8,308.0 858.4,303.4 900.0,440.7 941.6,433.6 983.2,433.1 1024.8,434.0 1066.4,432.5 1108.0,431.4 1108.0,501.7 1066.4,501.8 1024.8,502.2 983.2,502.0 941.6,502.0 900.0,503.5 858.4,503.5 816.8,503.3 775.2,503.1 733.6,503.0 692.0,503.5 650.4,504.0 608.8,504.2 567.2,504.8 525.6,504.6 484.0,504.6 442.4,505.7 400.8,505.6 359.2,505.4 317.6,505.3 276.0,505.2 234.4,505.6 192.8,505.3 151.2,505.6 109.6,505.8 68.0,505.0" fill="#41ab5d" fill-opacity="0.9" stroke="#fff" stroke-width="0.4"><title>diagnostics_clean — SemanticChecking</title></polygon>
<polygon points="68.0,354.6 109.6,295.0 151.2,293.8 192.8,284.2 234.4,288.1 276.0,287.1 317.6,285.5 359.2,286.7 400.8,317.3 442.4,319.1 484.0,317.4 525.6,316.0 567.2,304.3 608.8,302.9 650.4,299.8 692.0,291.9 733.6,210.7 775.2,208.0 816.8,205.4 858.4,201.1 900.0,392.6 941.6,382.1 983.2,381.6 1024.8,382.1 1066.4,379.7 1108.0,378.3 1108.0,431.4 1066.4,432.5 1024.8,434.0 983.2,433.1 941.6,433.6 900.0,440.7 858.4,303.4 816.8,308.0 775.2,310.8 733.6,312.7 692.0,344.8 650.4,351.0 608.8,352.8 567.2,354.3 525.6,365.9 484.0,366.0 442.4,368.0 400.8,366.7 359.2,336.8 317.6,335.2 276.0,337.1 234.4,337.7 192.8,333.9 151.2,342.0 109.6,343.0 68.0,402.6" fill="#006d2c" fill-opacity="0.9" stroke="#fff" stroke-width="0.4"><title>diagnostics_clean — generateIR</title></polygon>
<polygon points="68.0,353.0 109.6,293.4 151.2,292.7 192.8,282.0 234.4,285.7 276.0,284.4 317.6,283.5 359.2,284.2 400.8,315.8 442.4,317.0 484.0,314.7 525.6,313.2 567.2,302.4 608.8,300.3 650.4,296.4 692.0,289.8 733.6,208.4 775.2,206.0 816.8,202.6 858.4,198.7 900.0,390.6 941.6,379.6 983.2,379.1 1024.8,379.2 1066.4,377.2 1108.0,376.2 1108.0,378.3 1066.4,379.7 1024.8,382.1 983.2,381.6 941.6,382.1 900.0,392.6 858.4,201.1 816.8,205.4 775.2,208.0 733.6,210.7 692.0,291.9 650.4,299.8 608.8,302.9 567.2,304.3 525.6,316.0 484.0,317.4 442.4,319.1 400.8,317.3 359.2,286.7 317.6,285.5 276.0,287.1 234.4,288.1 192.8,284.2 151.2,293.8 109.6,295.0 68.0,354.6" fill="#74c476" fill-opacity="0.9" stroke="#fff" stroke-width="0.4"><title>diagnostics_clean — frontEndExecute (self)</title></polygon>
<polygon points="68.0,352.8 109.6,293.1 151.2,292.4 192.8,281.8 234.4,285.4 276.0,284.1 317.6,283.2 359.2,283.9 400.8,315.5 442.4,316.8 484.0,314.2 525.6,312.7 567.2,302.0 608.8,299.8 650.4,295.9 692.0,289.2 733.6,201.3 775.2,199.1 816.8,195.5 858.4,191.6 900.0,384.4 941.6,372.5 983.2,372.0 1024.8,372.1 1066.4,370.0 1108.0,369.2 1108.0,376.2 1066.4,377.2 1024.8,379.2 983.2,379.1 941.6,379.6 900.0,390.6 858.4,198.7 816.8,202.6 775.2,206.0 733.6,208.4 692.0,289.8 650.4,296.4 608.8,300.3 567.2,302.4 525.6,313.2 484.0,314.7 442.4,317.0 400.8,315.8 359.2,284.2 317.6,283.5 276.0,284.4 234.4,285.7 192.8,282.0 151.2,292.7 109.6,293.4 68.0,353.0" fill="#6baed6" fill-opacity="0.9" stroke="#fff" stroke-width="0.4"><title>diagnostics_clean — specializeModule</title></polygon>
<polygon points="68.0,351.8 109.6,292.2 151.2,291.5 192.8,280.8 234.4,284.4 276.0,283.1 317.6,282.2 359.2,282.9 400.8,314.5 442.4,315.8 484.0,313.3 525.6,311.8 567.2,301.1 608.8,298.9 650.4,294.9 692.0,288.1 733.6,197.3 775.2,195.0 816.8,191.4 858.4,187.4 900.0,380.7 941.6,369.0 983.2,368.5 1024.8,368.6 1066.4,366.5 1108.0,365.7 1108.0,369.2 1066.4,370.0 1024.8,372.1 983.2,372.0 941.6,372.5 900.0,384.4 858.4,191.6 816.8,195.5 775.2,199.1 733.6,201.3 692.0,289.2 650.4,295.9 608.8,299.8 567.2,302.0 525.6,312.7 484.0,314.2 442.4,316.8 400.8,315.5 359.2,283.9 317.6,283.2 276.0,284.1 234.4,285.4 192.8,281.8 151.2,292.4 109.6,293.1 68.0,352.8" fill="#2171b5" fill-opacity="0.9" stroke="#fff" stroke-width="0.4"><title>diagnostics_clean — simplifyIR</title></polygon>
<polygon points="68.0,346.9 109.6,289.3 151.2,288.5 192.8,277.3 234.4,280.9 276.0,279.5 317.6,278.6 359.2,279.3 400.8,311.1 442.4,312.4 484.0,310.1 525.6,308.3 567.2,297.5 608.8,295.4 650.4,290.6 692.0,282.9 733.6,148.7 775.2,145.9 816.8,141.5 858.4,137.5 900.0,378.0 941.6,366.4 983.2,365.9 1024.8,365.9 1066.4,363.8 1108.0,363.0 1108.0,365.7 1066.4,366.5 1024.8,368.6 983.2,368.5 941.6,369.0 900.0,380.7 858.4,187.4 816.8,191.4 775.2,195.0 733.6,197.3 692.0,288.1 650.4,294.9 608.8,298.9 567.2,301.1 525.6,311.8 484.0,313.3 442.4,315.8 400.8,314.5 359.2,282.9 317.6,282.2 276.0,283.1 234.4,284.4 192.8,280.8 151.2,291.5 109.6,292.2 68.0,351.8" fill="#08306b" fill-opacity="0.9" stroke="#fff" stroke-width="0.4"><title>diagnostics_clean — linkIR</title></polygon>
<polygon points="68.0,346.9 109.6,289.3 151.2,288.5 192.8,277.3 234.4,280.9 276.0,279.5 317.6,278.6 359.2,279.3 400.8,311.1 442.4,312.4 484.0,310.1 525.6,308.3 567.2,297.5 608.8,295.4 650.4,290.6 692.0,282.9 733.6,148.6 775.2,145.8 816.8,141.4 858.4,137.5 900.0,377.9 941.6,366.3 983.2,365.8 1024.8,365.9 1066.4,363.7 1108.0,362.9 1108.0,363.0 1066.4,363.8 1024.8,365.9 983.2,365.9 941.6,366.4 900.0,378.0 858.4,137.5 816.8,141.5 775.2,145.9 733.6,148.7 692.0,282.9 650.4,290.6 608.8,295.4 567.2,297.5 525.6,308.3 484.0,310.1 442.4,312.4 400.8,311.1 359.2,279.3 317.6,278.6 276.0,279.5 234.4,280.9 192.8,277.3 151.2,288.5 109.6,289.3 68.0,346.9" fill="#9e9ac8" fill-opacity="0.9" stroke="#fff" stroke-width="0.4"><title>diagnostics_clean — unrollLoopsInModule</title></polygon>
<polygon points="68.0,346.7 109.6,289.1 151.2,288.3 192.8,277.1 234.4,280.8 276.0,279.4 317.6,278.5 359.2,279.2 400.8,310.9 442.4,312.3 484.0,309.9 525.6,308.1 567.2,297.4 608.8,295.3 650.4,290.5 692.0,282.7 733.6,148.3 775.2,145.4 816.8,141.1 858.4,137.1 900.0,377.5 941.6,365.9 983.2,365.4 1024.8,365.4 1066.4,363.3 1108.0,362.5 1108.0,362.9 1066.4,363.7 1024.8,365.9 983.2,365.8 941.6,366.3 900.0,377.9 858.4,137.5 816.8,141.4 775.2,145.8 733.6,148.6 692.0,282.9 650.4,290.6 608.8,295.4 567.2,297.5 525.6,308.3 484.0,310.1 442.4,312.4 400.8,311.1 359.2,279.3 317.6,278.6 276.0,279.5 234.4,280.9 192.8,277.3 151.2,288.5 109.6,289.3 68.0,346.9" fill="#807dba" fill-opacity="0.9" stroke="#fff" stroke-width="0.4"><title>diagnostics_clean — legalizeResourceTypes</title></polygon>
<polygon points="68.0,346.3 109.6,288.7 151.2,288.0 192.8,276.7 234.4,280.5 276.0,279.1 317.6,278.2 359.2,278.9 400.8,310.6 442.4,312.0 484.0,309.6 525.6,307.8 567.2,297.1 608.8,295.0 650.4,290.2 692.0,282.4 733.6,147.7 775.2,144.9 816.8,140.5 858.4,136.5 900.0,377.0 941.6,365.3 983.2,364.8 1024.8,364.9 1066.4,362.6 1108.0,361.8 1108.0,362.5 1066.4,363.3 1024.8,365.4 983.2,365.4 941.6,365.9 900.0,377.5 858.4,137.1 816.8,141.1 775.2,145.4 733.6,148.3 692.0,282.7 650.4,290.5 608.8,295.3 567.2,297.4 525.6,308.1 484.0,309.9 442.4,312.3 400.8,310.9 359.2,279.2 317.6,278.5 276.0,279.4 234.4,280.8 192.8,277.1 151.2,288.3 109.6,289.1 68.0,346.7" fill="#6a51a3" fill-opacity="0.9" stroke="#fff" stroke-width="0.4"><title>diagnostics_clean — legalizeExistentialTypeLayout</title></polygon>
<polygon points="68.0,344.8 109.6,287.2 151.2,286.5 192.8,275.2 234.4,279.0 276.0,277.6 317.6,276.8 359.2,277.4 400.8,309.1 442.4,310.5 484.0,308.1 525.6,306.3 567.2,295.6 608.8,293.5 650.4,288.6 692.0,280.9 733.6,146.2 775.2,143.4 816.8,139.0 858.4,135.0 900.0,375.4 941.6,363.7 983.2,363.2 1024.8,363.3 1066.4,361.1 1108.0,360.4 1108.0,361.8 1066.4,362.6 1024.8,364.9 983.2,364.8 941.6,365.3 900.0,377.0 858.4,136.5 816.8,140.5 775.2,144.9 733.6,147.7 692.0,282.4 650.4,290.2 608.8,295.0 567.2,297.1 525.6,307.8 484.0,309.6 442.4,312.0 400.8,310.6 359.2,278.9 317.6,278.2 276.0,279.1 234.4,280.5 192.8,276.7 151.2,288.0 109.6,288.7 68.0,346.3" fill="#bcbddc" fill-opacity="0.9" stroke="#fff" stroke-width="0.4"><title>diagnostics_clean — performMandatoryEarlyInlining</title></polygon>
<polygon points="68.0,344.8 109.6,287.2 151.2,286.5 192.8,275.2 234.4,279.0 276.0,277.6 317.6,276.7 359.2,277.4 400.8,309.1 442.4,310.5 484.0,308.1 525.6,306.3 567.2,295.6 608.8,293.4 650.4,288.6 692.0,280.8 733.6,146.2 775.2,143.3 816.8,138.9 858.4,135.0 900.0,375.4 941.6,363.6 983.2,363.1 1024.8,363.3 1066.4,361.0 1108.0,360.3 1108.0,360.4 1066.4,361.1 1024.8,363.3 983.2,363.2 941.6,363.7 900.0,375.4 858.4,135.0 816.8,139.0 775.2,143.4 733.6,146.2 692.0,280.9 650.4,288.6 608.8,293.5 567.2,295.6 525.6,306.3 484.0,308.1 442.4,310.5 400.8,309.1 359.2,277.4 317.6,276.8 276.0,277.6 234.4,279.0 192.8,275.2 151.2,286.5 109.6,287.2 68.0,344.8" fill="#dadaeb" fill-opacity="0.9" stroke="#fff" stroke-width="0.4"><title>diagnostics_clean — performForceInlining</title></polygon>
<polygon points="68.0,344.5 109.6,286.8 151.2,286.1 192.8,274.7 234.4,278.5 276.0,277.1 317.6,276.1 359.2,276.8 400.8,308.4 442.4,309.9 484.0,306.2 525.6,304.3 567.2,293.5 608.8,291.4 650.4,286.7 692.0,279.0 733.6,134.8 775.2,131.8 816.8,127.5 858.4,123.4 900.0,367.8 941.6,355.7 983.2,355.3 1024.8,355.5 1066.4,353.2 1108.0,351.8 1108.0,360.3 1066.4,361.0 1024.8,363.3 983.2,363.1 941.6,363.6 900.0,375.4 858.4,135.0 816.8,138.9 775.2,143.3 733.6,146.2 692.0,280.8 650.4,288.6 608.8,293.4 567.2,295.6 525.6,306.3 484.0,308.1 442.4,310.5 400.8,309.1 359.2,277.4 317.6,276.7 276.0,277.6 234.4,279.0 192.8,275.2 151.2,286.5 109.6,287.2 68.0,344.8" fill="#4a1486" fill-opacity="0.9" stroke="#fff" stroke-width="0.4"><title>diagnostics_clean — linkAndOptimizeIR (self)</title></polygon>
<polygon points="68.0,332.9 109.6,275.5 151.2,274.6 192.8,262.9 234.4,266.5 276.0,264.9 317.6,263.2 359.2,264.8 400.8,296.7 442.4,296.8 484.0,294.2 525.6,291.1 567.2,281.4 608.8,277.7 650.4,274.4 692.0,265.7 733.6,121.1 775.2,117.7 816.8,113.7 858.4,109.2 900.0,354.3 941.6,342.0 983.2,341.5 1024.8,340.7 1066.4,339.4 1108.0,338.1 1108.0,351.8 1066.4,353.2 1024.8,355.5 983.2,355.3 941.6,355.7 900.0,367.8 858.4,123.4 816.8,127.5 775.2,131.8 733.6,134.8 692.0,279.0 650.4,286.7 608.8,291.4 567.2,293.5 525.6,304.3 484.0,306.2 442.4,309.9 400.8,308.4 359.2,276.8 317.6,276.1 276.0,277.1 234.4,278.5 192.8,274.7 151.2,286.1 109.6,286.8 68.0,344.5" fill="#e6550d" fill-opacity="0.9" stroke="#fff" stroke-width="0.4"><title>diagnostics_clean — generateOutput (self)</title></polygon>
<polygon points="68.0,332.9 109.6,275.0 151.2,274.6 192.8,261.8 234.4,264.3 276.0,263.6 317.6,262.4 359.2,263.6 400.8,295.6 442.4,295.6 484.0,292.7 525.6,289.6 567.2,280.4 608.8,276.4 650.4,273.2 692.0,262.5 733.6,120.4 775.2,116.5 816.8,112.4 858.4,108.6 900.0,352.0 941.6,340.7 983.2,340.4 1024.8,340.1 1066.4,338.5 1108.0,337.3 1108.0,338.1 1066.4,339.4 1024.8,340.7 983.2,341.5 941.6,342.0 900.0,354.3 858.4,109.2 816.8,113.7 775.2,117.7 733.6,121.1 692.0,265.7 650.4,274.4 608.8,277.7 567.2,281.4 525.6,291.1 484.0,294.2 442.4,296.8 400.8,296.7 359.2,264.8 317.6,263.2 276.0,264.9 234.4,266.5 192.8,262.9 151.2,274.6 109.6,275.5 68.0,332.9" fill="#969696" fill-opacity="0.9" stroke="#fff" stroke-width="0.4"><title>diagnostics_clean — compileInner (self)</title></polygon>
<text x="12" y="578" fill="#666" font-weight="600">phase buckets</text>
<rect x="12" y="586" width="12" height="12" fill="#c7e9c0"/>
<text x="28" y="596" fill="#222">parseTranslationUnit</text>
<rect x="289" y="586" width="12" height="12" fill="#41ab5d"/>
<text x="305" y="596" fill="#222">SemanticChecking</text>
<rect x="566" y="586" width="12" height="12" fill="#006d2c"/>
<text x="582" y="596" fill="#222">generateIR</text>
<rect x="843" y="586" width="12" height="12" fill="#74c476"/>
<text x="859" y="596" fill="#222">frontEndExecute (self)</text>
<rect x="12" y="604" width="12" height="12" fill="#6baed6"/>
<text x="28" y="614" fill="#222">specializeModule</text>
<rect x="289" y="604" width="12" height="12" fill="#2171b5"/>
<text x="305" y="614" fill="#222">simplifyIR</text>
<rect x="566" y="604" width="12" height="12" fill="#08306b"/>
<text x="582" y="614" fill="#222">linkIR</text>
<rect x="843" y="604" width="12" height="12" fill="#9e9ac8"/>
<text x="859" y="614" fill="#222">unrollLoopsInModule</text>
<rect x="12" y="622" width="12" height="12" fill="#807dba"/>
<text x="28" y="632" fill="#222">legalizeResourceTypes</text>
<rect x="289" y="622" width="12" height="12" fill="#6a51a3"/>
<text x="305" y="632" fill="#222">legalizeExistentialTypeLayout</text>
<rect x="566" y="622" width="12" height="12" fill="#bcbddc"/>
<text x="582" y="632" fill="#222">performMandatoryEarlyInlining</text>
<rect x="843" y="622" width="12" height="12" fill="#dadaeb"/>
<text x="859" y="632" fill="#222">performForceInlining</text>
<rect x="12" y="640" width="12" height="12" fill="#4a1486"/>
<text x="28" y="650" fill="#222">linkAndOptimizeIR (self)</text>
<rect x="289" y="640" width="12" height="12" fill="#fd8d3c"/>
<text x="305" y="650" fill="#222">emitEntryPointsSourceFromIR</text>
<rect x="566" y="640" width="12" height="12" fill="#e6550d"/>
<text x="582" y="650" fill="#222">generateOutput (self)</text>
<rect x="843" y="640" width="12" height="12" fill="#969696"/>
<text x="859" y="650" fill="#222">compileInner (self)</text>
</svg>