<svg xmlns="http://www.w3.org/2000/svg" xmlns:xlink="http://www.w3.org/1999/xlink" width="1132" height="680" viewBox="0 0 1132 680" preserveAspectRatio="xMidYMid meet" font-family="sans-serif" font-size="13">
<rect width="1132" height="680" fill="white"/>
<text x="12" y="30" font-size="20" font-weight="bold">diagnostics_clean — full phase breakdown across releases (median ms)</text>
<text x="68" y="60" font-size="15" font-weight="600" fill="#1a1a1a">diagnostics_clean<tspan fill="#888" font-weight="400" text-decoration="none">  0.65×</tspan></text>
<line x1="68.0" y1="516.0" x2="1108.0" y2="516.0" stroke="#eee"/>
<text x="64.0" y="519.0" text-anchor="end" fill="#999">0.0</text>
<line x1="68.0" y1="296.0" x2="1108.0" y2="296.0" stroke="#eee"/>
<text x="64.0" y="299.0" text-anchor="end" fill="#999">35</text>
<line x1="68.0" y1="76.0" x2="1108.0" y2="76.0" stroke="#eee"/>
<text x="64.0" y="79.0" text-anchor="end" fill="#999">71</text>
<line x1="68.0" y1="76.0" x2="68.0" y2="516.0" stroke="#333"/>
<line x1="68.0" y1="516.0" x2="1108.0" y2="516.0" stroke="#333"/>
<line x1="68.0" y1="516.0" x2="68.0" y2="519.0" stroke="#999"/>
<text x="68.0" y="531.0" text-anchor="end" fill="#666" transform="rotate(-50 68.0 531.0)">25.19</text>
<line x1="137.3" y1="516.0" x2="137.3" y2="519.0" stroke="#999"/>
<text x="137.3" y="531.0" text-anchor="end" fill="#666" transform="rotate(-50 137.3 531.0)">25.20</text>
<line x1="206.7" y1="516.0" x2="206.7" y2="519.0" stroke="#999"/>
<text x="206.7" y="531.0" text-anchor="end" fill="#666" transform="rotate(-50 206.7 531.0)">25.21</text>
<line x1="276.0" y1="516.0" x2="276.0" y2="519.0" stroke="#999"/>
<text x="276.0" y="531.0" text-anchor="end" fill="#666" transform="rotate(-50 276.0 531.0)">25.22</text>
<line x1="345.3" y1="516.0" x2="345.3" y2="519.0" stroke="#999"/>
<text x="345.3" y="531.0" text-anchor="end" fill="#666" transform="rotate(-50 345.3 531.0)">25.23</text>
<line x1="414.7" y1="516.0" x2="414.7" y2="519.0" stroke="#999"/>
<text x="414.7" y="531.0" text-anchor="end" fill="#666" transform="rotate(-50 414.7 531.0)">25.24</text>
<line x1="484.0" y1="516.0" x2="484.0" y2="519.0" stroke="#999"/>
<text x="484.0" y="531.0" text-anchor="end" fill="#666" transform="rotate(-50 484.0 531.0)">26.1</text>
<line x1="553.3" y1="516.0" x2="553.3" y2="519.0" stroke="#999"/>
<text x="553.3" y="531.0" text-anchor="end" fill="#666" transform="rotate(-50 553.3 531.0)">26.2</text>
<line x1="622.7" y1="516.0" x2="622.7" y2="519.0" stroke="#999"/>
<text x="622.7" y="531.0" text-anchor="end" fill="#666" transform="rotate(-50 622.7 531.0)">26.3</text>
<line x1="692.0" y1="516.0" x2="692.0" y2="519.0" stroke="#999"/>
<text x="692.0" y="531.0" text-anchor="end" fill="#666" transform="rotate(-50 692.0 531.0)">26.4</text>
<line x1="761.3" y1="516.0" x2="761.3" y2="519.0" stroke="#999"/>
<text x="761.3" y="531.0" text-anchor="end" fill="#666" transform="rotate(-50 761.3 531.0)">26.5</text>
<line x1="830.7" y1="516.0" x2="830.7" y2="519.0" stroke="#999"/>
<text x="830.7" y="531.0" text-anchor="end" fill="#666" transform="rotate(-50 830.7 531.0)">26.7</text>
<line x1="900.0" y1="516.0" x2="900.0" y2="519.0" stroke="#999"/>
<text x="900.0" y="531.0" text-anchor="end" fill="#666" transform="rotate(-50 900.0 531.0)">26.8</text>
<line x1="969.3" y1="516.0" x2="969.3" y2="519.0" stroke="#999"/>
<text x="969.3" y="531.0" text-anchor="end" fill="#666" transform="rotate(-50 969.3 531.0)">26.9</text>
<line x1="1038.7" y1="516.0" x2="1038.7" y2="519.0" stroke="#999"/>
<text x="1038.7" y="531.0" text-anchor="end" fill="#666" transform="rotate(-50 1038.7 531.0)">26.10</text>
<line x1="1108.0" y1="516.0" x2="1108.0" y2="519.0" stroke="#999"/>
<text x="1108.0" y="531.0" text-anchor="end" fill="#666" transform="rotate(-50 1108.0 531.0)">26.11</text>
<polygon points="68.0,505.2 137.3,505.3 206.7,505.4 276.0,505.6 345.3,505.7 414.7,504.6 484.0,504.6 553.3,504.8 622.7,504.2 692.0,504.0 761.3,503.5 830.7,503.0 900.0,503.1 969.3,503.3 1038.7,503.5 1108.0,503.5 1108.0,516.0 1038.7,516.0 969.3,516.0 900.0,516.0 830.7,516.0 761.3,516.0 692.0,516.0 622.7,516.0 553.3,516.0 484.0,516.0 414.7,516.0 345.3,516.0 276.0,516.0 206.7,516.0 137.3,516.0 68.0,516.0" fill="#c7e9c0" fill-opacity="0.9" stroke="#fff" stroke-width="0.4"><title>diagnostics_clean — parseTranslationUnit</title></polygon>
<polygon points="68.0,337.1 137.3,335.2 206.7,336.8 276.0,366.7 345.3,368.0 414.7,366.0 484.0,365.9 553.3,354.3 622.7,352.8 692.0,351.0 761.3,344.8 830.7,312.7 900.0,310.8 969.3,308.0 1038.7,303.4 1108.0,440.7 1108.0,503.5 1038.7,503.5 969.3,503.3 900.0,503.1 830.7,503.0 761.3,503.5 692.0,504.0 622.7,504.2 553.3,504.8 484.0,504.6 414.7,504.6 345.3,505.7 276.0,505.6 206.7,505.4 137.3,505.3 68.0,505.2" fill="#41ab5d" fill-opacity="0.9" stroke="#fff" stroke-width="0.4"><title>diagnostics_clean — SemanticChecking</title></polygon>
<polygon points="68.0,287.1 137.3,285.5 206.7,286.7 276.0,317.3 345.3,319.1 414.7,317.4 484.0,316.0 553.3,304.3 622.7,302.9 692.0,299.8 761.3,291.9 830.7,210.7 900.0,208.0 969.3,205.4 1038.7,201.1 1108.0,392.6 1108.0,440.7 1038.7,303.4 969.3,308.0 900.0,310.8 830.7,312.7 761.3,344.8 692.0,351.0 622.7,352.8 553.3,354.3 484.0,365.9 414.7,366.0 345.3,368.0 276.0,366.7 206.7,336.8 137.3,335.2 68.0,337.1" fill="#006d2c" fill-opacity="0.9" stroke="#fff" stroke-width="0.4"><title>diagnostics_clean — generateIR</title></polygon>
<polygon points="68.0,284.4 137.3,283.5 206.7,284.2 276.0,315.8 345.3,317.0 414.7,314.7 484.0,313.2 553.3,302.4 622.7,300.3 692.0,296.4 761.3,289.8 830.7,208.4 900.0,206.0 969.3,202.6 1038.7,198.7 1108.0,390.6 1108.0,392.6 1038.7,201.1 969.3,205.4 900.0,208.0 830.7,210.7 761.3,291.9 692.0,299.8 622.7,302.9 553.3,304.3 484.0,316.0 414.7,317.4 345.3,319.1 276.0,317.3 206.7,286.7 137.3,285.5 68.0,287.1" fill="#74c476" fill-opacity="0.9" stroke="#fff" stroke-width="0.4"><title>diagnostics_clean — frontEndExecute (self)</title></polygon>
<polygon points="68.0,284.1 137.3,283.2 206.7,283.9 276.0,315.5 345.3,316.8 414.7,314.2 484.0,312.7 553.3,302.0 622.7,299.8 692.0,295.9 761.3,289.2 830.7,201.3 900.0,199.1 969.3,195.5 1038.7,191.6 1108.0,384.4 1108.0,390.6 1038.7,198.7 969.3,202.6 900.0,206.0 830.7,208.4 761.3,289.8 692.0,296.4 622.7,300.3 553.3,302.4 484.0,313.2 414.7,314.7 345.3,317.0 276.0,315.8 206.7,284.2 137.3,283.5 68.0,284.4" fill="#6baed6" fill-opacity="0.9" stroke="#fff" stroke-width="0.4"><title>diagnostics_clean — specializeModule</title></polygon>
<polygon points="68.0,283.1 137.3,282.2 206.7,282.9 276.0,314.5 345.3,315.8 414.7,313.3 484.0,311.8 553.3,301.1 622.7,298.9 692.0,294.9 761.3,288.1 830.7,197.3 900.0,195.0 969.3,191.4 1038.7,187.4 1108.0,380.7 1108.0,384.4 1038.7,191.6 969.3,195.5 900.0,199.1 830.7,201.3 761.3,289.2 692.0,295.9 622.7,299.8 553.3,302.0 484.0,312.7 414.7,314.2 345.3,316.8 276.0,315.5 206.7,283.9 137.3,283.2 68.0,284.1" fill="#2171b5" fill-opacity="0.9" stroke="#fff" stroke-width="0.4"><title>diagnostics_clean — simplifyIR</title></polygon>
<polygon points="68.0,279.5 137.3,278.6 206.7,279.3 276.0,311.1 345.3,312.4 414.7,310.1 484.0,308.3 553.3,297.5 622.7,295.4 692.0,290.6 761.3,282.9 830.7,148.7 900.0,145.9 969.3,141.5 1038.7,137.5 1108.0,378.0 1108.0,380.7 1038.7,187.4 969.3,191.4 900.0,195.0 830.7,197.3 761.3,288.1 692.0,294.9 622.7,298.9 553.3,301.1 484.0,311.8 414.7,313.3 345.3,315.8 276.0,314.5 206.7,282.9 137.3,282.2 68.0,283.1" fill="#08306b" fill-opacity="0.9" stroke="#fff" stroke-width="0.4"><title>diagnostics_clean — linkIR</title></polygon>
<polygon points="68.0,279.5 137.3,278.6 206.7,279.3 276.0,311.1 345.3,312.4 414.7,310.1 484.0,308.3 553.3,297.5 622.7,295.4 692.0,290.6 761.3,282.9 830.7,148.6 900.0,145.8 969.3,141.4 1038.7,137.5 1108.0,377.9 1108.0,378.0 1038.7,137.5 969.3,141.5 900.0,145.9 830.7,148.7 761.3,282.9 692.0,290.6 622.7,295.4 553.3,297.5 484.0,308.3 414.7,310.1 345.3,312.4 276.0,311.1 206.7,279.3 137.3,278.6 68.0,279.5" fill="#9e9ac8" fill-opacity="0.9" stroke="#fff" stroke-width="0.4"><title>diagnostics_clean — unrollLoopsInModule</title></polygon>
<polygon points="68.0,279.4 137.3,278.5 206.7,279.2 276.0,310.9 345.3,312.3 414.7,309.9 484.0,308.1 553.3,297.4 622.7,295.3 692.0,290.5 761.3,282.7 830.7,148.3 900.0,145.4 969.3,141.1 1038.7,137.1 1108.0,377.5 1108.0,377.9 1038.7,137.5 969.3,141.4 900.0,145.8 830.7,148.6 761.3,282.9 692.0,290.6 622.7,295.4 553.3,297.5 484.0,308.3 414.7,310.1 345.3,312.4 276.0,311.1 206.7,279.3 137.3,278.6 68.0,279.5" fill="#807dba" fill-opacity="0.9" stroke="#fff" stroke-width="0.4"><title>diagnostics_clean — legalizeResourceTypes</title></polygon>
<polygon points="68.0,279.1 137.3,278.2 206.7,278.9 276.0,310.6 345.3,312.0 414.7,309.6 484.0,307.8 553.3,297.1 622.7,295.0 692.0,290.2 761.3,282.4 830.7,147.7 900.0,144.9 969.3,140.5 1038.7,136.5 1108.0,377.0 1108.0,377.5 1038.7,137.1 969.3,141.1 900.0,145.4 830.7,148.3 761.3,282.7 692.0,290.5 622.7,295.3 553.3,297.4 484.0,308.1 414.7,309.9 345.3,312.3 276.0,310.9 206.7,279.2 137.3,278.5 68.0,279.4" fill="#6a51a3" fill-opacity="0.9" stroke="#fff" stroke-width="0.4"><title>diagnostics_clean — legalizeExistentialTypeLayout</title></polygon>
<polygon points="68.0,277.6 137.3,276.8 206.7,277.4 276.0,309.1 345.3,310.5 414.7,308.1 484.0,306.3 553.3,295.6 622.7,293.5 692.0,288.6 761.3,280.9 830.7,146.2 900.0,143.4 969.3,139.0 1038.7,135.0 1108.0,375.4 1108.0,377.0 1038.7,136.5 969.3,140.5 900.0,144.9 830.7,147.7 761.3,282.4 692.0,290.2 622.7,295.0 553.3,297.1 484.0,307.8 414.7,309.6 345.3,312.0 276.0,310.6 206.7,278.9 137.3,278.2 68.0,279.1" fill="#bcbddc" fill-opacity="0.9" stroke="#fff" stroke-width="0.4"><title>diagnostics_clean — performMandatoryEarlyInlining</title></polygon>
<polygon points="68.0,277.6 137.3,276.7 206.7,277.4 276.0,309.1 345.3,310.5 414.7,308.1 484.0,306.3 553.3,295.6 622.7,293.4 692.0,288.6 761.3,280.8 830.7,146.2 900.0,143.3 969.3,138.9 1038.7,135.0 1108.0,375.4 1108.0,375.4 1038.7,135.0 969.3,139.0 900.0,143.4 830.7,146.2 761.3,280.9 692.0,288.6 622.7,293.5 553.3,295.6 484.0,306.3 414.7,308.1 345.3,310.5 276.0,309.1 206.7,277.4 137.3,276.8 68.0,277.6" fill="#dadaeb" fill-opacity="0.9" stroke="#fff" stroke-width="0.4"><title>diagnostics_clean — performForceInlining</title></polygon>
<polygon points="68.0,277.1 137.3,276.1 206.7,276.8 276.0,308.4 345.3,309.9 414.7,306.2 484.0,304.3 553.3,293.5 622.7,291.4 692.0,286.7 761.3,279.0 830.7,134.8 900.0,131.8 969.3,127.5 1038.7,123.4 1108.0,367.8 1108.0,375.4 1038.7,135.0 969.3,138.9 900.0,143.3 830.7,146.2 761.3,280.8 692.0,288.6 622.7,293.4 553.3,295.6 484.0,306.3 414.7,308.1 345.3,310.5 276.0,309.1 206.7,277.4 137.3,276.7 68.0,277.6" fill="#4a1486" fill-opacity="0.9" stroke="#fff" stroke-width="0.4"><title>diagnostics_clean — linkAndOptimizeIR (self)</title></polygon>
<polygon points="68.0,264.9 137.3,263.2 206.7,264.8 276.0,296.7 345.3,296.8 414.7,294.2 484.0,291.1 553.3,281.4 622.7,277.7 692.0,274.4 761.3,265.7 830.7,121.1 900.0,117.7 969.3,113.7 1038.7,109.2 1108.0,354.3 1108.0,367.8 1038.7,123.4 969.3,127.5 900.0,131.8 830.7,134.8 761.3,279.0 692.0,286.7 622.7,291.4 553.3,293.5 484.0,304.3 414.7,306.2 345.3,309.9 276.0,308.4 206.7,276.8 137.3,276.1 68.0,277.1" fill="#e6550d" fill-opacity="0.9" stroke="#fff" stroke-width="0.4"><title>diagnostics_clean — generateOutput (self)</title></polygon>
<polygon points="68.0,263.6 137.3,262.4 206.7,263.6 276.0,295.6 345.3,295.6 414.7,292.7 484.0,289.6 553.3,280.4 622.7,276.4 692.0,273.2 761.3,262.5 830.7,120.4 900.0,116.5 969.3,112.4 1038.7,108.6 1108.0,352.0 1108.0,354.3 1038.7,109.2 969.3,113.7 900.0,117.7 830.7,121.1 761.3,265.7 692.0,274.4 622.7,277.7 553.3,281.4 484.0,291.1 414.7,294.2 345.3,296.8 276.0,296.7 206.7,264.8 137.3,263.2 68.0,264.9" fill="#969696" fill-opacity="0.9" stroke="#fff" stroke-width="0.4"><title>diagnostics_clean — compileInner (self)</title></polygon>
<text x="12" y="578" fill="#666" font-weight="600">phase buckets</text>
<rect x="12" y="586" width="12" height="12" fill="#c7e9c0"/>
<text x="28" y="596" fill="#222">parseTranslationUnit</text>
<rect x="289" y="586" width="12" height="12" fill="#41ab5d"/>
<text x="305" y="596" fill="#222">SemanticChecking</text>
<rect x="566" y="586" width="12" height="12" fill="#006d2c"/>
<text x="582" y="596" fill="#222">generateIR</text>
<rect x="843" y="586" width="12" height="12" fill="#74c476"/>
<text x="859" y="596" fill="#222">frontEndExecute (self)</text>
<rect x="12" y="604" width="12" height="12" fill="#6baed6"/>
<text x="28" y="614" fill="#222">specializeModule</text>
<rect x="289" y="604" width="12" height="12" fill="#2171b5"/>
<text x="305" y="614" fill="#222">simplifyIR</text>
<rect x="566" y="604" width="12" height="12" fill="#08306b"/>
<text x="582" y="614" fill="#222">linkIR</text>
<rect x="843" y="604" width="12" height="12" fill="#9e9ac8"/>
<text x="859" y="614" fill="#222">unrollLoopsInModule</text>
<rect x="12" y="622" width="12" height="12" fill="#807dba"/>
<text x="28" y="632" fill="#222">legalizeResourceTypes</text>
<rect x="289" y="622" width="12" height="12" fill="#6a51a3"/>
<text x="305" y="632" fill="#222">legalizeExistentialTypeLayout</text>
<rect x="566" y="622" width="12" height="12" fill="#bcbddc"/>
<text x="582" y="632" fill="#222">performMandatoryEarlyInlining</text>
<rect x="843" y="622" width="12" height="12" fill="#dadaeb"/>
<text x="859" y="632" fill="#222">performForceInlining</text>
<rect x="12" y="640" width="12" height="12" fill="#4a1486"/>
<text x="28" y="650" fill="#222">linkAndOptimizeIR (self)</text>
<rect x="289" y="640" width="12" height="12" fill="#fd8d3c"/>
<text x="305" y="650" fill="#222">emitEntryPointsSourceFromIR</text>
<rect x="566" y="640" width="12" height="12" fill="#e6550d"/>
<text x="582" y="650" fill="#222">generateOutput (self)</text>
<rect x="843" y="640" width="12" height="12" fill="#969696"/>
<text x="859" y="650" fill="#222">compileInner (self)</text>
</svg>