<svg xmlns="http://www.w3.org/2000/svg" xmlns:xlink="http://www.w3.org/1999/xlink" width="1132" height="680" viewBox="0 0 1132 680" preserveAspectRatio="xMidYMid meet" font-family="sans-serif" font-size="13">
<rect width="1132" height="680" fill="white"/>
<text x="12" y="30" font-size="20" font-weight="bold">dynamic_dispatch — Daily tip-of-tree (last 30 days) (median ms)</text>
<text x="68" y="60" font-size="15" font-weight="600" fill="#1a1a1a">dynamic_dispatch<tspan fill="#888" font-weight="400" text-decoration="none">  0.38×</tspan></text>
<line x1="68.0" y1="516.0" x2="1108.0" y2="516.0" stroke="#eee"/>
<text x="64.0" y="519.0" text-anchor="end" fill="#999">0.0</text>
<line x1="68.0" y1="296.0" x2="1108.0" y2="296.0" stroke="#eee"/>
<text x="64.0" y="299.0" text-anchor="end" fill="#999">177</text>
<line x1="68.0" y1="76.0" x2="1108.0" y2="76.0" stroke="#eee"/>
<text x="64.0" y="79.0" text-anchor="end" fill="#999">353</text>
<line x1="68.0" y1="76.0" x2="68.0" y2="516.0" stroke="#333"/>
<line x1="68.0" y1="516.0" x2="1108.0" y2="516.0" stroke="#333"/>
<line x1="68.0" y1="516.0" x2="68.0" y2="519.0" stroke="#999"/>
<text x="68.0" y="531.0" text-anchor="end" fill="#e8731a" transform="rotate(-50 68.0 531.0)">06-25</text>
<line x1="120.0" y1="516.0" x2="120.0" y2="519.0" stroke="#999"/>
<text x="120.0" y="531.0" text-anchor="end" fill="#e8731a" transform="rotate(-50 120.0 531.0)">06-26</text>
<line x1="172.0" y1="516.0" x2="172.0" y2="519.0" stroke="#999"/>
<text x="172.0" y="531.0" text-anchor="end" fill="#e8731a" transform="rotate(-50 172.0 531.0)">06-28</text>
<line x1="224.0" y1="516.0" x2="224.0" y2="519.0" stroke="#999"/>
<text x="224.0" y="531.0" text-anchor="end" fill="#e8731a" transform="rotate(-50 224.0 531.0)">07-01</text>
<line x1="276.0" y1="516.0" x2="276.0" y2="519.0" stroke="#999"/>
<text x="276.0" y="531.0" text-anchor="end" fill="#e8731a" transform="rotate(-50 276.0 531.0)">07-02</text>
<line x1="328.0" y1="516.0" x2="328.0" y2="519.0" stroke="#999"/>
<text x="328.0" y="531.0" text-anchor="end" fill="#e8731a" transform="rotate(-50 328.0 531.0)">07-03</text>
<line x1="380.0" y1="516.0" x2="380.0" y2="519.0" stroke="#999"/>
<text x="380.0" y="531.0" text-anchor="end" fill="#e8731a" transform="rotate(-50 380.0 531.0)">07-06</text>
<line x1="432.0" y1="516.0" x2="432.0" y2="519.0" stroke="#999"/>
<text x="432.0" y="531.0" text-anchor="end" fill="#e8731a" transform="rotate(-50 432.0 531.0)">07-07</text>
<line x1="484.0" y1="516.0" x2="484.0" y2="519.0" stroke="#999"/>
<text x="484.0" y="531.0" text-anchor="end" fill="#e8731a" transform="rotate(-50 484.0 531.0)">07-08</text>
<line x1="536.0" y1="516.0" x2="536.0" y2="519.0" stroke="#999"/>
<text x="536.0" y="531.0" text-anchor="end" fill="#e8731a" transform="rotate(-50 536.0 531.0)">07-09</text>
<line x1="588.0" y1="516.0" x2="588.0" y2="519.0" stroke="#999"/>
<text x="588.0" y="531.0" text-anchor="end" fill="#e8731a" transform="rotate(-50 588.0 531.0)">07-10</text>
<line x1="640.0" y1="516.0" x2="640.0" y2="519.0" stroke="#999"/>
<text x="640.0" y="531.0" text-anchor="end" fill="#e8731a" transform="rotate(-50 640.0 531.0)">07-11</text>
<line x1="692.0" y1="516.0" x2="692.0" y2="519.0" stroke="#999"/>
<text x="692.0" y="531.0" text-anchor="end" fill="#e8731a" transform="rotate(-50 692.0 531.0)">07-14</text>
<line x1="744.0" y1="516.0" x2="744.0" y2="519.0" stroke="#999"/>
<text x="744.0" y="531.0" text-anchor="end" fill="#e8731a" transform="rotate(-50 744.0 531.0)">07-15</text>
<line x1="796.0" y1="516.0" x2="796.0" y2="519.0" stroke="#999"/>
<text x="796.0" y="531.0" text-anchor="end" fill="#e8731a" transform="rotate(-50 796.0 531.0)">07-15</text>
<line x1="848.0" y1="516.0" x2="848.0" y2="519.0" stroke="#999"/>
<text x="848.0" y="531.0" text-anchor="end" fill="#e8731a" transform="rotate(-50 848.0 531.0)">07-16</text>
<line x1="900.0" y1="516.0" x2="900.0" y2="519.0" stroke="#999"/>
<text x="900.0" y="531.0" text-anchor="end" fill="#e8731a" transform="rotate(-50 900.0 531.0)">07-17</text>
<line x1="952.0" y1="516.0" x2="952.0" y2="519.0" stroke="#999"/>
<text x="952.0" y="531.0" text-anchor="end" fill="#e8731a" transform="rotate(-50 952.0 531.0)">07-18</text>
<line x1="1004.0" y1="516.0" x2="1004.0" y2="519.0" stroke="#999"/>
<text x="1004.0" y="531.0" text-anchor="end" fill="#e8731a" transform="rotate(-50 1004.0 531.0)">07-19</text>
<line x1="1056.0" y1="516.0" x2="1056.0" y2="519.0" stroke="#999"/>
<text x="1056.0" y="531.0" text-anchor="end" fill="#e8731a" transform="rotate(-50 1056.0 531.0)">07-20</text>
<line x1="1108.0" y1="516.0" x2="1108.0" y2="519.0" stroke="#999"/>
<text x="1108.0" y="531.0" text-anchor="end" fill="#e8731a" transform="rotate(-50 1108.0 531.0)">07-21</text>
<polygon points="68.0,513.9 120.0,514.0 172.0,514.0 224.0,513.9 276.0,514.0 328.0,514.0 380.0,513.9 432.0,514.1 484.0,514.1 536.0,514.1 588.0,514.0 640.0,514.1 692.0,514.0 744.0,514.1 796.0,514.2 848.0,514.2 900.0,514.1 952.0,514.3 1004.0,514.2 1056.0,514.3 1108.0,514.3 1108.0,516.0 1056.0,516.0 1004.0,516.0 952.0,516.0 900.0,516.0 848.0,516.0 796.0,516.0 744.0,516.0 692.0,516.0 640.0,516.0 588.0,516.0 536.0,516.0 484.0,516.0 432.0,516.0 380.0,516.0 328.0,516.0 276.0,516.0 224.0,516.0 172.0,516.0 120.0,516.0 68.0,516.0" fill="#c7e9c0" fill-opacity="0.9" stroke="#fff" stroke-width="0.4"><title>dynamic_dispatch — parseTranslationUnit</title></polygon>
<polygon points="68.0,484.4 120.0,484.8 172.0,484.8 224.0,483.9 276.0,484.6 328.0,484.8 380.0,484.4 432.0,486.0 484.0,485.7 536.0,485.7 588.0,485.1 640.0,485.6 692.0,486.1 744.0,488.3 796.0,488.2 848.0,485.9 900.0,486.0 952.0,492.2 1004.0,492.0 1056.0,492.2 1108.0,491.9 1108.0,514.3 1056.0,514.3 1004.0,514.2 952.0,514.3 900.0,514.1 848.0,514.2 796.0,514.2 744.0,514.1 692.0,514.0 640.0,514.1 588.0,514.0 536.0,514.1 484.0,514.1 432.0,514.1 380.0,513.9 328.0,514.0 276.0,514.0 224.0,513.9 172.0,514.0 120.0,514.0 68.0,513.9" fill="#41ab5d" fill-opacity="0.9" stroke="#fff" stroke-width="0.4"><title>dynamic_dispatch — SemanticChecking</title></polygon>
<polygon points="68.0,470.2 120.0,471.2 172.0,471.1 224.0,470.1 276.0,470.5 328.0,471.2 380.0,470.7 432.0,472.2 484.0,471.8 536.0,471.7 588.0,471.4 640.0,472.2 692.0,472.6 744.0,475.1 796.0,475.2 848.0,472.9 900.0,472.8 952.0,480.6 1004.0,480.3 1056.0,480.8 1108.0,480.1 1108.0,491.9 1056.0,492.2 1004.0,492.0 952.0,492.2 900.0,486.0 848.0,485.9 796.0,488.2 744.0,488.3 692.0,486.1 640.0,485.6 588.0,485.1 536.0,485.7 484.0,485.7 432.0,486.0 380.0,484.4 328.0,484.8 276.0,484.6 224.0,483.9 172.0,484.8 120.0,484.8 68.0,484.4" fill="#006d2c" fill-opacity="0.9" stroke="#fff" stroke-width="0.4"><title>dynamic_dispatch — generateIR</title></polygon>
<polygon points="68.0,470.0 120.0,470.7 172.0,470.6 224.0,469.6 276.0,469.9 328.0,470.7 380.0,470.2 432.0,471.7 484.0,471.5 536.0,471.2 588.0,470.9 640.0,471.7 692.0,472.3 744.0,474.8 796.0,474.7 848.0,472.5 900.0,472.5 952.0,480.1 1004.0,480.0 1056.0,480.3 1108.0,479.8 1108.0,480.1 1056.0,480.8 1004.0,480.3 952.0,480.6 900.0,472.8 848.0,472.9 796.0,475.2 744.0,475.1 692.0,472.6 640.0,472.2 588.0,471.4 536.0,471.7 484.0,471.8 432.0,472.2 380.0,470.7 328.0,471.2 276.0,470.5 224.0,470.1 172.0,471.1 120.0,471.2 68.0,470.2" fill="#74c476" fill-opacity="0.9" stroke="#fff" stroke-width="0.4"><title>dynamic_dispatch — frontEndExecute (self)</title></polygon>
<polygon points="68.0,260.5 120.0,257.3 172.0,256.9 224.0,260.0 276.0,258.3 328.0,260.2 380.0,261.9 432.0,431.7 484.0,431.6 536.0,431.4 588.0,432.7 640.0,432.8 692.0,433.3 744.0,438.6 796.0,439.1 848.0,436.4 900.0,436.2 952.0,447.4 1004.0,447.8 1056.0,447.9 1108.0,447.2 1108.0,479.8 1056.0,480.3 1004.0,480.0 952.0,480.1 900.0,472.5 848.0,472.5 796.0,474.7 744.0,474.8 692.0,472.3 640.0,471.7 588.0,470.9 536.0,471.2 484.0,471.5 432.0,471.7 380.0,470.2 328.0,470.7 276.0,469.9 224.0,469.6 172.0,470.6 120.0,470.7 68.0,470.0" fill="#6baed6" fill-opacity="0.9" stroke="#fff" stroke-width="0.4"><title>dynamic_dispatch — specializeModule</title></polygon>
<polygon points="68.0,192.4 120.0,189.2 172.0,189.5 224.0,192.9 276.0,221.1 328.0,223.6 380.0,224.7 432.0,394.8 484.0,395.2 536.0,394.8 588.0,401.7 640.0,401.5 692.0,401.9 744.0,411.5 796.0,412.1 848.0,409.8 900.0,409.4 952.0,423.7 1004.0,424.1 1056.0,424.6 1108.0,423.7 1108.0,447.2 1056.0,447.9 1004.0,447.8 952.0,447.4 900.0,436.2 848.0,436.4 796.0,439.1 744.0,438.6 692.0,433.3 640.0,432.8 588.0,432.7 536.0,431.4 484.0,431.6 432.0,431.7 380.0,261.9 328.0,260.2 276.0,258.3 224.0,260.0 172.0,256.9 120.0,257.3 68.0,260.5" fill="#2171b5" fill-opacity="0.9" stroke="#fff" stroke-width="0.4"><title>dynamic_dispatch — simplifyIR</title></polygon>
<polygon points="68.0,189.3 120.0,186.2 172.0,186.5 224.0,189.8 276.0,218.1 328.0,220.8 380.0,221.6 432.0,392.2 484.0,392.6 536.0,392.3 588.0,399.3 640.0,398.9 692.0,399.4 744.0,409.1 796.0,409.9 848.0,407.7 900.0,407.3 952.0,421.7 1004.0,422.2 1056.0,422.7 1108.0,421.8 1108.0,423.7 1056.0,424.6 1004.0,424.1 952.0,423.7 900.0,409.4 848.0,409.8 796.0,412.1 744.0,411.5 692.0,401.9 640.0,401.5 588.0,401.7 536.0,394.8 484.0,395.2 432.0,394.8 380.0,224.7 328.0,223.6 276.0,221.1 224.0,192.9 172.0,189.5 120.0,189.2 68.0,192.4" fill="#08306b" fill-opacity="0.9" stroke="#fff" stroke-width="0.4"><title>dynamic_dispatch — linkIR</title></polygon>
<polygon points="68.0,189.2 120.0,186.1 172.0,186.3 224.0,189.7 276.0,218.0 328.0,220.6 380.0,221.5 432.0,391.5 484.0,391.9 536.0,391.6 588.0,398.6 640.0,398.2 692.0,398.6 744.0,408.5 796.0,409.3 848.0,407.1 900.0,406.6 952.0,421.2 1004.0,421.7 1056.0,422.2 1108.0,421.3 1108.0,421.8 1056.0,422.7 1004.0,422.2 952.0,421.7 900.0,407.3 848.0,407.7 796.0,409.9 744.0,409.1 692.0,399.4 640.0,398.9 588.0,399.3 536.0,392.3 484.0,392.6 432.0,392.2 380.0,221.6 328.0,220.8 276.0,218.1 224.0,189.8 172.0,186.5 120.0,186.2 68.0,189.3" fill="#9e9ac8" fill-opacity="0.9" stroke="#fff" stroke-width="0.4"><title>dynamic_dispatch — unrollLoopsInModule</title></polygon>
<polygon points="68.0,186.0 120.0,182.8 172.0,183.1 224.0,186.5 276.0,214.8 328.0,217.4 380.0,218.3 432.0,388.3 484.0,388.7 536.0,388.3 588.0,396.0 640.0,395.6 692.0,396.1 744.0,405.9 796.0,406.8 848.0,404.5 900.0,404.0 952.0,418.7 1004.0,419.1 1056.0,419.7 1108.0,418.7 1108.0,421.3 1056.0,422.2 1004.0,421.7 952.0,421.2 900.0,406.6 848.0,407.1 796.0,409.3 744.0,408.5 692.0,398.6 640.0,398.2 588.0,398.6 536.0,391.6 484.0,391.9 432.0,391.5 380.0,221.5 328.0,220.6 276.0,218.0 224.0,189.7 172.0,186.3 120.0,186.1 68.0,189.2" fill="#807dba" fill-opacity="0.9" stroke="#fff" stroke-width="0.4"><title>dynamic_dispatch — legalizeResourceTypes</title></polygon>
<polygon points="68.0,181.1 120.0,177.9 172.0,178.1 224.0,181.5 276.0,209.9 328.0,212.5 380.0,213.3 432.0,383.4 484.0,383.8 536.0,383.4 588.0,392.1 640.0,391.5 692.0,392.1 744.0,402.2 796.0,403.1 848.0,400.7 900.0,400.3 952.0,415.3 1004.0,415.6 1056.0,416.3 1108.0,415.3 1108.0,418.7 1056.0,419.7 1004.0,419.1 952.0,418.7 900.0,404.0 848.0,404.5 796.0,406.8 744.0,405.9 692.0,396.1 640.0,395.6 588.0,396.0 536.0,388.3 484.0,388.7 432.0,388.3 380.0,218.3 328.0,217.4 276.0,214.8 224.0,186.5 172.0,183.1 120.0,182.8 68.0,186.0" fill="#6a51a3" fill-opacity="0.9" stroke="#fff" stroke-width="0.4"><title>dynamic_dispatch — legalizeExistentialTypeLayout</title></polygon>
<polygon points="68.0,180.6 120.0,177.4 172.0,177.6 224.0,181.0 276.0,209.4 328.0,212.0 380.0,212.9 432.0,382.4 484.0,382.8 536.0,382.4 588.0,391.1 640.0,390.4 692.0,391.1 744.0,401.2 796.0,402.0 848.0,399.6 900.0,399.2 952.0,414.4 1004.0,414.8 1056.0,415.4 1108.0,414.5 1108.0,415.3 1056.0,416.3 1004.0,415.6 952.0,415.3 900.0,400.3 848.0,400.7 796.0,403.1 744.0,402.2 692.0,392.1 640.0,391.5 588.0,392.1 536.0,383.4 484.0,383.8 432.0,383.4 380.0,213.3 328.0,212.5 276.0,209.9 224.0,181.5 172.0,178.1 120.0,177.9 68.0,181.1" fill="#bcbddc" fill-opacity="0.9" stroke="#fff" stroke-width="0.4"><title>dynamic_dispatch — performMandatoryEarlyInlining</title></polygon>
<polygon points="68.0,179.9 120.0,176.7 172.0,176.9 224.0,180.3 276.0,208.8 328.0,211.3 380.0,212.2 432.0,381.7 484.0,382.1 536.0,381.7 588.0,390.4 640.0,389.7 692.0,390.4 744.0,400.5 796.0,401.3 848.0,398.9 900.0,398.5 952.0,413.9 1004.0,414.3 1056.0,414.9 1108.0,413.9 1108.0,414.5 1056.0,415.4 1004.0,414.8 952.0,414.4 900.0,399.2 848.0,399.6 796.0,402.0 744.0,401.2 692.0,391.1 640.0,390.4 588.0,391.1 536.0,382.4 484.0,382.8 432.0,382.4 380.0,212.9 328.0,212.0 276.0,209.4 224.0,181.0 172.0,177.6 120.0,177.4 68.0,180.6" fill="#dadaeb" fill-opacity="0.9" stroke="#fff" stroke-width="0.4"><title>dynamic_dispatch — performForceInlining</title></polygon>
<polygon points="68.0,149.7 120.0,145.4 172.0,145.2 224.0,148.8 276.0,175.7 328.0,178.6 380.0,179.2 432.0,349.6 484.0,351.1 536.0,350.7 588.0,361.0 640.0,360.0 692.0,360.5 744.0,375.9 796.0,377.0 848.0,374.6 900.0,373.9 952.0,391.8 1004.0,392.6 1056.0,392.9 1108.0,392.1 1108.0,413.9 1056.0,414.9 1004.0,414.3 952.0,413.9 900.0,398.5 848.0,398.9 796.0,401.3 744.0,400.5 692.0,390.4 640.0,389.7 588.0,390.4 536.0,381.7 484.0,382.1 432.0,381.7 380.0,212.2 328.0,211.3 276.0,208.8 224.0,180.3 172.0,176.9 120.0,176.7 68.0,179.9" fill="#4a1486" fill-opacity="0.9" stroke="#fff" stroke-width="0.4"><title>dynamic_dispatch — linkAndOptimizeIR (self)</title></polygon>
<polygon points="68.0,114.3 120.0,109.9 172.0,109.4 224.0,113.1 276.0,142.9 328.0,145.7 380.0,146.8 432.0,316.6 484.0,318.2 536.0,318.3 588.0,328.0 640.0,327.1 692.0,328.2 744.0,344.4 796.0,345.7 848.0,342.7 900.0,341.9 952.0,361.0 1004.0,361.8 1056.0,361.7 1108.0,361.7 1108.0,392.1 1056.0,392.9 1004.0,392.6 952.0,391.8 900.0,373.9 848.0,374.6 796.0,377.0 744.0,375.9 692.0,360.5 640.0,360.0 588.0,361.0 536.0,350.7 484.0,351.1 432.0,349.6 380.0,179.2 328.0,178.6 276.0,175.7 224.0,148.8 172.0,145.2 120.0,145.4 68.0,149.7" fill="#e6550d" fill-opacity="0.9" stroke="#fff" stroke-width="0.4"><title>dynamic_dispatch — generateOutput (self)</title></polygon>
<polygon points="68.0,111.6 120.0,109.4 172.0,108.6 224.0,112.8 276.0,142.4 328.0,145.6 380.0,146.5 432.0,316.4 484.0,318.1 536.0,317.3 588.0,327.8 640.0,326.8 692.0,327.5 744.0,343.9 796.0,345.6 848.0,342.6 900.0,341.2 952.0,360.9 1004.0,361.8 1056.0,361.6 1108.0,361.7 1108.0,361.7 1056.0,361.7 1004.0,361.8 952.0,361.0 900.0,341.9 848.0,342.7 796.0,345.7 744.0,344.4 692.0,328.2 640.0,327.1 588.0,328.0 536.0,318.3 484.0,318.2 432.0,316.6 380.0,146.8 328.0,145.7 276.0,142.9 224.0,113.1 172.0,109.4 120.0,109.9 68.0,114.3" fill="#969696" fill-opacity="0.9" stroke="#fff" stroke-width="0.4"><title>dynamic_dispatch — compileInner (self)</title></polygon>
<text x="12" y="578" fill="#666" font-weight="600">phase buckets</text>
<rect x="12" y="586" width="12" height="12" fill="#c7e9c0"/>
<text x="28" y="596" fill="#222">parseTranslationUnit</text>
<rect x="289" y="586" width="12" height="12" fill="#41ab5d"/>
<text x="305" y="596" fill="#222">SemanticChecking</text>
<rect x="566" y="586" width="12" height="12" fill="#006d2c"/>
<text x="582" y="596" fill="#222">generateIR</text>
<rect x="843" y="586" width="12" height="12" fill="#74c476"/>
<text x="859" y="596" fill="#222">frontEndExecute (self)</text>
<rect x="12" y="604" width="12" height="12" fill="#6baed6"/>
<text x="28" y="614" fill="#222">specializeModule</text>
<rect x="289" y="604" width="12" height="12" fill="#2171b5"/>
<text x="305" y="614" fill="#222">simplifyIR</text>
<rect x="566" y="604" width="12" height="12" fill="#08306b"/>
<text x="582" y="614" fill="#222">linkIR</text>
<rect x="843" y="604" width="12" height="12" fill="#9e9ac8"/>
<text x="859" y="614" fill="#222">unrollLoopsInModule</text>
<rect x="12" y="622" width="12" height="12" fill="#807dba"/>
<text x="28" y="632" fill="#222">legalizeResourceTypes</text>
<rect x="289" y="622" width="12" height="12" fill="#6a51a3"/>
<text x="305" y="632" fill="#222">legalizeExistentialTypeLayout</text>
<rect x="566" y="622" width="12" height="12" fill="#bcbddc"/>
<text x="582" y="632" fill="#222">performMandatoryEarlyInlining</text>
<rect x="843" y="622" width="12" height="12" fill="#dadaeb"/>
<text x="859" y="632" fill="#222">performForceInlining</text>
<rect x="12" y="640" width="12" height="12" fill="#4a1486"/>
<text x="28" y="650" fill="#222">linkAndOptimizeIR (self)</text>
<rect x="289" y="640" width="12" height="12" fill="#fd8d3c"/>
<text x="305" y="650" fill="#222">emitEntryPointsSourceFromIR</text>
<rect x="566" y="640" width="12" height="12" fill="#e6550d"/>
<text x="582" y="650" fill="#222">generateOutput (self)</text>
<rect x="843" y="640" width="12" height="12" fill="#969696"/>
<text x="859" y="650" fill="#222">compileInner (self)</text>
</svg>