<svg xmlns="http://www.w3.org/2000/svg" xmlns:xlink="http://www.w3.org/1999/xlink" width="1132" height="680" viewBox="0 0 1132 680" preserveAspectRatio="xMidYMid meet" font-family="sans-serif" font-size="13">
<rect width="1132" height="680" fill="white"/>
<text x="12" y="30" font-size="20" font-weight="bold">dynamic_dispatch — Daily tip-of-tree (last 30 days) (median ms)</text>
<text x="68" y="60" font-size="15" font-weight="600" fill="#1a1a1a">dynamic_dispatch<tspan fill="#888" font-weight="400" text-decoration="none">  0.38×</tspan></text>
<line x1="68.0" y1="516.0" x2="1108.0" y2="516.0" stroke="#eee"/>
<text x="64.0" y="519.0" text-anchor="end" fill="#999">0.0</text>
<line x1="68.0" y1="296.0" x2="1108.0" y2="296.0" stroke="#eee"/>
<text x="64.0" y="299.0" text-anchor="end" fill="#999">177</text>
<line x1="68.0" y1="76.0" x2="1108.0" y2="76.0" stroke="#eee"/>
<text x="64.0" y="79.0" text-anchor="end" fill="#999">353</text>
<line x1="68.0" y1="76.0" x2="68.0" y2="516.0" stroke="#333"/>
<line x1="68.0" y1="516.0" x2="1108.0" y2="516.0" stroke="#333"/>
<line x1="68.0" y1="516.0" x2="68.0" y2="519.0" stroke="#999"/>
<text x="68.0" y="531.0" text-anchor="end" fill="#e8731a" transform="rotate(-50 68.0 531.0)">06-25</text>
<line x1="125.8" y1="516.0" x2="125.8" y2="519.0" stroke="#999"/>
<text x="125.8" y="531.0" text-anchor="end" fill="#e8731a" transform="rotate(-50 125.8 531.0)">06-26</text>
<line x1="183.6" y1="516.0" x2="183.6" y2="519.0" stroke="#999"/>
<text x="183.6" y="531.0" text-anchor="end" fill="#e8731a" transform="rotate(-50 183.6 531.0)">06-28</text>
<line x1="241.3" y1="516.0" x2="241.3" y2="519.0" stroke="#999"/>
<text x="241.3" y="531.0" text-anchor="end" fill="#e8731a" transform="rotate(-50 241.3 531.0)">07-01</text>
<line x1="299.1" y1="516.0" x2="299.1" y2="519.0" stroke="#999"/>
<text x="299.1" y="531.0" text-anchor="end" fill="#e8731a" transform="rotate(-50 299.1 531.0)">07-02</text>
<line x1="356.9" y1="516.0" x2="356.9" y2="519.0" stroke="#999"/>
<text x="356.9" y="531.0" text-anchor="end" fill="#e8731a" transform="rotate(-50 356.9 531.0)">07-03</text>
<line x1="414.7" y1="516.0" x2="414.7" y2="519.0" stroke="#999"/>
<text x="414.7" y="531.0" text-anchor="end" fill="#e8731a" transform="rotate(-50 414.7 531.0)">07-06</text>
<line x1="472.4" y1="516.0" x2="472.4" y2="519.0" stroke="#999"/>
<text x="472.4" y="531.0" text-anchor="end" fill="#e8731a" transform="rotate(-50 472.4 531.0)">07-07</text>
<line x1="530.2" y1="516.0" x2="530.2" y2="519.0" stroke="#999"/>
<text x="530.2" y="531.0" text-anchor="end" fill="#e8731a" transform="rotate(-50 530.2 531.0)">07-08</text>
<line x1="588.0" y1="516.0" x2="588.0" y2="519.0" stroke="#999"/>
<text x="588.0" y="531.0" text-anchor="end" fill="#e8731a" transform="rotate(-50 588.0 531.0)">07-09</text>
<line x1="645.8" y1="516.0" x2="645.8" y2="519.0" stroke="#999"/>
<text x="645.8" y="531.0" text-anchor="end" fill="#e8731a" transform="rotate(-50 645.8 531.0)">07-10</text>
<line x1="703.6" y1="516.0" x2="703.6" y2="519.0" stroke="#999"/>
<text x="703.6" y="531.0" text-anchor="end" fill="#e8731a" transform="rotate(-50 703.6 531.0)">07-11</text>
<line x1="761.3" y1="516.0" x2="761.3" y2="519.0" stroke="#999"/>
<text x="761.3" y="531.0" text-anchor="end" fill="#e8731a" transform="rotate(-50 761.3 531.0)">07-14</text>
<line x1="819.1" y1="516.0" x2="819.1" y2="519.0" stroke="#999"/>
<text x="819.1" y="531.0" text-anchor="end" fill="#e8731a" transform="rotate(-50 819.1 531.0)">07-15</text>
<line x1="876.9" y1="516.0" x2="876.9" y2="519.0" stroke="#999"/>
<text x="876.9" y="531.0" text-anchor="end" fill="#e8731a" transform="rotate(-50 876.9 531.0)">07-15</text>
<line x1="934.7" y1="516.0" x2="934.7" y2="519.0" stroke="#999"/>
<text x="934.7" y="531.0" text-anchor="end" fill="#e8731a" transform="rotate(-50 934.7 531.0)">07-16</text>
<line x1="992.4" y1="516.0" x2="992.4" y2="519.0" stroke="#999"/>
<text x="992.4" y="531.0" text-anchor="end" fill="#e8731a" transform="rotate(-50 992.4 531.0)">07-17</text>
<line x1="1050.2" y1="516.0" x2="1050.2" y2="519.0" stroke="#999"/>
<text x="1050.2" y="531.0" text-anchor="end" fill="#e8731a" transform="rotate(-50 1050.2 531.0)">07-18</text>
<line x1="1108.0" y1="516.0" x2="1108.0" y2="519.0" stroke="#999"/>
<text x="1108.0" y="531.0" text-anchor="end" fill="#e8731a" transform="rotate(-50 1108.0 531.0)">07-19</text>
<polygon points="68.0,513.9 125.8,514.0 183.6,514.0 241.3,513.9 299.1,514.0 356.9,514.0 414.7,513.9 472.4,514.1 530.2,514.1 588.0,514.1 645.8,514.0 703.6,514.1 761.3,514.0 819.1,514.1 876.9,514.2 934.7,514.2 992.4,514.1 1050.2,514.3 1108.0,514.2 1108.0,516.0 1050.2,516.0 992.4,516.0 934.7,516.0 876.9,516.0 819.1,516.0 761.3,516.0 703.6,516.0 645.8,516.0 588.0,516.0 530.2,516.0 472.4,516.0 414.7,516.0 356.9,516.0 299.1,516.0 241.3,516.0 183.6,516.0 125.8,516.0 68.0,516.0" fill="#c7e9c0" fill-opacity="0.9" stroke="#fff" stroke-width="0.4"><title>dynamic_dispatch — parseTranslationUnit</title></polygon>
<polygon points="68.0,484.4 125.8,484.8 183.6,484.8 241.3,483.9 299.1,484.6 356.9,484.8 414.7,484.4 472.4,486.0 530.2,485.7 588.0,485.7 645.8,485.1 703.6,485.6 761.3,486.1 819.1,488.3 876.9,488.2 934.7,485.9 992.4,486.0 1050.2,492.2 1108.0,492.0 1108.0,514.2 1050.2,514.3 992.4,514.1 934.7,514.2 876.9,514.2 819.1,514.1 761.3,514.0 703.6,514.1 645.8,514.0 588.0,514.1 530.2,514.1 472.4,514.1 414.7,513.9 356.9,514.0 299.1,514.0 241.3,513.9 183.6,514.0 125.8,514.0 68.0,513.9" fill="#41ab5d" fill-opacity="0.9" stroke="#fff" stroke-width="0.4"><title>dynamic_dispatch — SemanticChecking</title></polygon>
<polygon points="68.0,470.2 125.8,471.2 183.6,471.1 241.3,470.1 299.1,470.5 356.9,471.2 414.7,470.7 472.4,472.2 530.2,471.8 588.0,471.7 645.8,471.4 703.6,472.2 761.3,472.6 819.1,475.1 876.9,475.2 934.7,472.9 992.4,472.8 1050.2,480.6 1108.0,480.3 1108.0,492.0 1050.2,492.2 992.4,486.0 934.7,485.9 876.9,488.2 819.1,488.3 761.3,486.1 703.6,485.6 645.8,485.1 588.0,485.7 530.2,485.7 472.4,486.0 414.7,484.4 356.9,484.8 299.1,484.6 241.3,483.9 183.6,484.8 125.8,484.8 68.0,484.4" fill="#006d2c" fill-opacity="0.9" stroke="#fff" stroke-width="0.4"><title>dynamic_dispatch — generateIR</title></polygon>
<polygon points="68.0,470.0 125.8,470.7 183.6,470.6 241.3,469.6 299.1,469.9 356.9,470.7 414.7,470.2 472.4,471.7 530.2,471.5 588.0,471.2 645.8,470.9 703.6,471.7 761.3,472.3 819.1,474.8 876.9,474.7 934.7,472.5 992.4,472.5 1050.2,480.1 1108.0,480.0 1108.0,480.3 1050.2,480.6 992.4,472.8 934.7,472.9 876.9,475.2 819.1,475.1 761.3,472.6 703.6,472.2 645.8,471.4 588.0,471.7 530.2,471.8 472.4,472.2 414.7,470.7 356.9,471.2 299.1,470.5 241.3,470.1 183.6,471.1 125.8,471.2 68.0,470.2" fill="#74c476" fill-opacity="0.9" stroke="#fff" stroke-width="0.4"><title>dynamic_dispatch — frontEndExecute (self)</title></polygon>
<polygon points="68.0,260.5 125.8,257.3 183.6,256.9 241.3,260.0 299.1,258.3 356.9,260.2 414.7,261.9 472.4,431.7 530.2,431.6 588.0,431.4 645.8,432.7 703.6,432.8 761.3,433.3 819.1,438.6 876.9,439.1 934.7,436.4 992.4,436.2 1050.2,447.4 1108.0,447.8 1108.0,480.0 1050.2,480.1 992.4,472.5 934.7,472.5 876.9,474.7 819.1,474.8 761.3,472.3 703.6,471.7 645.8,470.9 588.0,471.2 530.2,471.5 472.4,471.7 414.7,470.2 356.9,470.7 299.1,469.9 241.3,469.6 183.6,470.6 125.8,470.7 68.0,470.0" fill="#6baed6" fill-opacity="0.9" stroke="#fff" stroke-width="0.4"><title>dynamic_dispatch — specializeModule</title></polygon>
<polygon points="68.0,192.4 125.8,189.2 183.6,189.5 241.3,192.9 299.1,221.1 356.9,223.6 414.7,224.7 472.4,394.8 530.2,395.2 588.0,394.8 645.8,401.7 703.6,401.5 761.3,401.9 819.1,411.5 876.9,412.1 934.7,409.8 992.4,409.4 1050.2,423.7 1108.0,424.1 1108.0,447.8 1050.2,447.4 992.4,436.2 934.7,436.4 876.9,439.1 819.1,438.6 761.3,433.3 703.6,432.8 645.8,432.7 588.0,431.4 530.2,431.6 472.4,431.7 414.7,261.9 356.9,260.2 299.1,258.3 241.3,260.0 183.6,256.9 125.8,257.3 68.0,260.5" fill="#2171b5" fill-opacity="0.9" stroke="#fff" stroke-width="0.4"><title>dynamic_dispatch — simplifyIR</title></polygon>
<polygon points="68.0,189.3 125.8,186.2 183.6,186.5 241.3,189.8 299.1,218.1 356.9,220.8 414.7,221.6 472.4,392.2 530.2,392.6 588.0,392.3 645.8,399.3 703.6,398.9 761.3,399.4 819.1,409.1 876.9,409.9 934.7,407.7 992.4,407.3 1050.2,421.7 1108.0,422.2 1108.0,424.1 1050.2,423.7 992.4,409.4 934.7,409.8 876.9,412.1 819.1,411.5 761.3,401.9 703.6,401.5 645.8,401.7 588.0,394.8 530.2,395.2 472.4,394.8 414.7,224.7 356.9,223.6 299.1,221.1 241.3,192.9 183.6,189.5 125.8,189.2 68.0,192.4" fill="#08306b" fill-opacity="0.9" stroke="#fff" stroke-width="0.4"><title>dynamic_dispatch — linkIR</title></polygon>
<polygon points="68.0,189.2 125.8,186.1 183.6,186.3 241.3,189.7 299.1,218.0 356.9,220.6 414.7,221.5 472.4,391.5 530.2,391.9 588.0,391.6 645.8,398.6 703.6,398.2 761.3,398.6 819.1,408.5 876.9,409.3 934.7,407.1 992.4,406.6 1050.2,421.2 1108.0,421.7 1108.0,422.2 1050.2,421.7 992.4,407.3 934.7,407.7 876.9,409.9 819.1,409.1 761.3,399.4 703.6,398.9 645.8,399.3 588.0,392.3 530.2,392.6 472.4,392.2 414.7,221.6 356.9,220.8 299.1,218.1 241.3,189.8 183.6,186.5 125.8,186.2 68.0,189.3" fill="#9e9ac8" fill-opacity="0.9" stroke="#fff" stroke-width="0.4"><title>dynamic_dispatch — unrollLoopsInModule</title></polygon>
<polygon points="68.0,186.0 125.8,182.8 183.6,183.1 241.3,186.5 299.1,214.8 356.9,217.4 414.7,218.3 472.4,388.3 530.2,388.7 588.0,388.3 645.8,396.0 703.6,395.6 761.3,396.1 819.1,405.9 876.9,406.8 934.7,404.5 992.4,404.0 1050.2,418.7 1108.0,419.1 1108.0,421.7 1050.2,421.2 992.4,406.6 934.7,407.1 876.9,409.3 819.1,408.5 761.3,398.6 703.6,398.2 645.8,398.6 588.0,391.6 530.2,391.9 472.4,391.5 414.7,221.5 356.9,220.6 299.1,218.0 241.3,189.7 183.6,186.3 125.8,186.1 68.0,189.2" fill="#807dba" fill-opacity="0.9" stroke="#fff" stroke-width="0.4"><title>dynamic_dispatch — legalizeResourceTypes</title></polygon>
<polygon points="68.0,181.1 125.8,177.9 183.6,178.1 241.3,181.5 299.1,209.9 356.9,212.5 414.7,213.3 472.4,383.4 530.2,383.8 588.0,383.4 645.8,392.1 703.6,391.5 761.3,392.1 819.1,402.2 876.9,403.1 934.7,400.7 992.4,400.3 1050.2,415.3 1108.0,415.6 1108.0,419.1 1050.2,418.7 992.4,404.0 934.7,404.5 876.9,406.8 819.1,405.9 761.3,396.1 703.6,395.6 645.8,396.0 588.0,388.3 530.2,388.7 472.4,388.3 414.7,218.3 356.9,217.4 299.1,214.8 241.3,186.5 183.6,183.1 125.8,182.8 68.0,186.0" fill="#6a51a3" fill-opacity="0.9" stroke="#fff" stroke-width="0.4"><title>dynamic_dispatch — legalizeExistentialTypeLayout</title></polygon>
<polygon points="68.0,180.6 125.8,177.4 183.6,177.6 241.3,181.0 299.1,209.4 356.9,212.0 414.7,212.9 472.4,382.4 530.2,382.8 588.0,382.4 645.8,391.1 703.6,390.4 761.3,391.1 819.1,401.2 876.9,402.0 934.7,399.6 992.4,399.2 1050.2,414.4 1108.0,414.8 1108.0,415.6 1050.2,415.3 992.4,400.3 934.7,400.7 876.9,403.1 819.1,402.2 761.3,392.1 703.6,391.5 645.8,392.1 588.0,383.4 530.2,383.8 472.4,383.4 414.7,213.3 356.9,212.5 299.1,209.9 241.3,181.5 183.6,178.1 125.8,177.9 68.0,181.1" fill="#bcbddc" fill-opacity="0.9" stroke="#fff" stroke-width="0.4"><title>dynamic_dispatch — performMandatoryEarlyInlining</title></polygon>
<polygon points="68.0,179.9 125.8,176.7 183.6,176.9 241.3,180.3 299.1,208.8 356.9,211.3 414.7,212.2 472.4,381.7 530.2,382.1 588.0,381.7 645.8,390.4 703.6,389.7 761.3,390.4 819.1,400.5 876.9,401.3 934.7,398.9 992.4,398.5 1050.2,413.9 1108.0,414.3 1108.0,414.8 1050.2,414.4 992.4,399.2 934.7,399.6 876.9,402.0 819.1,401.2 761.3,391.1 703.6,390.4 645.8,391.1 588.0,382.4 530.2,382.8 472.4,382.4 414.7,212.9 356.9,212.0 299.1,209.4 241.3,181.0 183.6,177.6 125.8,177.4 68.0,180.6" fill="#dadaeb" fill-opacity="0.9" stroke="#fff" stroke-width="0.4"><title>dynamic_dispatch — performForceInlining</title></polygon>
<polygon points="68.0,149.7 125.8,145.4 183.6,145.2 241.3,148.8 299.1,175.7 356.9,178.6 414.7,179.2 472.4,349.6 530.2,351.1 588.0,350.7 645.8,361.0 703.6,360.0 761.3,360.5 819.1,375.9 876.9,377.0 934.7,374.6 992.4,373.9 1050.2,391.8 1108.0,392.6 1108.0,414.3 1050.2,413.9 992.4,398.5 934.7,398.9 876.9,401.3 819.1,400.5 761.3,390.4 703.6,389.7 645.8,390.4 588.0,381.7 530.2,382.1 472.4,381.7 414.7,212.2 356.9,211.3 299.1,208.8 241.3,180.3 183.6,176.9 125.8,176.7 68.0,179.9" fill="#4a1486" fill-opacity="0.9" stroke="#fff" stroke-width="0.4"><title>dynamic_dispatch — linkAndOptimizeIR (self)</title></polygon>
<polygon points="68.0,114.3 125.8,109.9 183.6,109.4 241.3,113.1 299.1,142.9 356.9,145.7 414.7,146.8 472.4,316.6 530.2,318.2 588.0,318.3 645.8,328.0 703.6,327.1 761.3,328.2 819.1,344.4 876.9,345.7 934.7,342.7 992.4,341.9 1050.2,361.0 1108.0,361.8 1108.0,392.6 1050.2,391.8 992.4,373.9 934.7,374.6 876.9,377.0 819.1,375.9 761.3,360.5 703.6,360.0 645.8,361.0 588.0,350.7 530.2,351.1 472.4,349.6 414.7,179.2 356.9,178.6 299.1,175.7 241.3,148.8 183.6,145.2 125.8,145.4 68.0,149.7" fill="#e6550d" fill-opacity="0.9" stroke="#fff" stroke-width="0.4"><title>dynamic_dispatch — generateOutput (self)</title></polygon>
<polygon points="68.0,111.6 125.8,109.4 183.6,108.6 241.3,112.8 299.1,142.4 356.9,145.6 414.7,146.5 472.4,316.4 530.2,318.1 588.0,317.3 645.8,327.8 703.6,326.8 761.3,327.5 819.1,343.9 876.9,345.6 934.7,342.6 992.4,341.2 1050.2,360.9 1108.0,361.8 1108.0,361.8 1050.2,361.0 992.4,341.9 934.7,342.7 876.9,345.7 819.1,344.4 761.3,328.2 703.6,327.1 645.8,328.0 588.0,318.3 530.2,318.2 472.4,316.6 414.7,146.8 356.9,145.7 299.1,142.9 241.3,113.1 183.6,109.4 125.8,109.9 68.0,114.3" fill="#969696" fill-opacity="0.9" stroke="#fff" stroke-width="0.4"><title>dynamic_dispatch — compileInner (self)</title></polygon>
<text x="12" y="578" fill="#666" font-weight="600">phase buckets</text>
<rect x="12" y="586" width="12" height="12" fill="#c7e9c0"/>
<text x="28" y="596" fill="#222">parseTranslationUnit</text>
<rect x="289" y="586" width="12" height="12" fill="#41ab5d"/>
<text x="305" y="596" fill="#222">SemanticChecking</text>
<rect x="566" y="586" width="12" height="12" fill="#006d2c"/>
<text x="582" y="596" fill="#222">generateIR</text>
<rect x="843" y="586" width="12" height="12" fill="#74c476"/>
<text x="859" y="596" fill="#222">frontEndExecute (self)</text>
<rect x="12" y="604" width="12" height="12" fill="#6baed6"/>
<text x="28" y="614" fill="#222">specializeModule</text>
<rect x="289" y="604" width="12" height="12" fill="#2171b5"/>
<text x="305" y="614" fill="#222">simplifyIR</text>
<rect x="566" y="604" width="12" height="12" fill="#08306b"/>
<text x="582" y="614" fill="#222">linkIR</text>
<rect x="843" y="604" width="12" height="12" fill="#9e9ac8"/>
<text x="859" y="614" fill="#222">unrollLoopsInModule</text>
<rect x="12" y="622" width="12" height="12" fill="#807dba"/>
<text x="28" y="632" fill="#222">legalizeResourceTypes</text>
<rect x="289" y="622" width="12" height="12" fill="#6a51a3"/>
<text x="305" y="632" fill="#222">legalizeExistentialTypeLayout</text>
<rect x="566" y="622" width="12" height="12" fill="#bcbddc"/>
<text x="582" y="632" fill="#222">performMandatoryEarlyInlining</text>
<rect x="843" y="622" width="12" height="12" fill="#dadaeb"/>
<text x="859" y="632" fill="#222">performForceInlining</text>
<rect x="12" y="640" width="12" height="12" fill="#4a1486"/>
<text x="28" y="650" fill="#222">linkAndOptimizeIR (self)</text>
<rect x="289" y="640" width="12" height="12" fill="#fd8d3c"/>
<text x="305" y="650" fill="#222">emitEntryPointsSourceFromIR</text>
<rect x="566" y="640" width="12" height="12" fill="#e6550d"/>
<text x="582" y="650" fill="#222">generateOutput (self)</text>
<rect x="843" y="640" width="12" height="12" fill="#969696"/>
<text x="859" y="650" fill="#222">compileInner (self)</text>
</svg>