<svg xmlns="http://www.w3.org/2000/svg" xmlns:xlink="http://www.w3.org/1999/xlink" width="1132" height="680" viewBox="0 0 1132 680" preserveAspectRatio="xMidYMid meet" font-family="sans-serif" font-size="13">
<rect width="1132" height="680" fill="white"/>
<text x="12" y="30" font-size="20" font-weight="bold">dynamic_dispatch — full phase breakdown across releases (median ms)</text>
<text x="68" y="60" font-size="15" font-weight="600" fill="#1a1a1a">dynamic_dispatch<tspan fill="#888" font-weight="400" text-decoration="none">  0.77×</tspan></text>
<line x1="68.0" y1="516.0" x2="1108.0" y2="516.0" stroke="#eee"/>
<text x="64.0" y="519.0" text-anchor="end" fill="#999">0.0</text>
<line x1="68.0" y1="296.0" x2="1108.0" y2="296.0" stroke="#eee"/>
<text x="64.0" y="299.0" text-anchor="end" fill="#999">244</text>
<line x1="68.0" y1="76.0" x2="1108.0" y2="76.0" stroke="#eee"/>
<text x="64.0" y="79.0" text-anchor="end" fill="#999">487</text>
<line x1="68.0" y1="76.0" x2="68.0" y2="516.0" stroke="#333"/>
<line x1="68.0" y1="516.0" x2="1108.0" y2="516.0" stroke="#333"/>
<line x1="745.6" y1="76.0" x2="745.6" y2="516.0" stroke="#e8731a" stroke-width="1.2" stroke-dasharray="4 3"/>
<text x="748.6" y="87.0" fill="#e8731a" font-size="11">daily →</text>
<line x1="68.0" y1="516.0" x2="68.0" y2="519.0" stroke="#999"/>
<text x="68.0" y="531.0" text-anchor="end" fill="#666" transform="rotate(-50 68.0 531.0)">25.14</text>
<line x1="99.5" y1="516.0" x2="99.5" y2="519.0" stroke="#999"/>
<text x="99.5" y="531.0" text-anchor="end" fill="#666" transform="rotate(-50 99.5 531.0)">25.15</text>
<line x1="131.0" y1="516.0" x2="131.0" y2="519.0" stroke="#999"/>
<text x="131.0" y="531.0" text-anchor="end" fill="#666" transform="rotate(-50 131.0 531.0)">25.16</text>
<line x1="162.5" y1="516.0" x2="162.5" y2="519.0" stroke="#999"/>
<text x="162.5" y="531.0" text-anchor="end" fill="#666" transform="rotate(-50 162.5 531.0)">25.17</text>
<line x1="194.1" y1="516.0" x2="194.1" y2="519.0" stroke="#999"/>
<text x="194.1" y="531.0" text-anchor="end" fill="#666" transform="rotate(-50 194.1 531.0)">25.18</text>
<line x1="225.6" y1="516.0" x2="225.6" y2="519.0" stroke="#999"/>
<text x="225.6" y="531.0" text-anchor="end" fill="#666" transform="rotate(-50 225.6 531.0)">25.19</text>
<line x1="257.1" y1="516.0" x2="257.1" y2="519.0" stroke="#999"/>
<text x="257.1" y="531.0" text-anchor="end" fill="#666" transform="rotate(-50 257.1 531.0)">25.20</text>
<line x1="288.6" y1="516.0" x2="288.6" y2="519.0" stroke="#999"/>
<text x="288.6" y="531.0" text-anchor="end" fill="#666" transform="rotate(-50 288.6 531.0)">25.21</text>
<line x1="320.1" y1="516.0" x2="320.1" y2="519.0" stroke="#999"/>
<text x="320.1" y="531.0" text-anchor="end" fill="#666" transform="rotate(-50 320.1 531.0)">25.22</text>
<line x1="351.6" y1="516.0" x2="351.6" y2="519.0" stroke="#999"/>
<text x="351.6" y="531.0" text-anchor="end" fill="#666" transform="rotate(-50 351.6 531.0)">25.23</text>
<line x1="383.2" y1="516.0" x2="383.2" y2="519.0" stroke="#999"/>
<text x="383.2" y="531.0" text-anchor="end" fill="#666" transform="rotate(-50 383.2 531.0)">25.24</text>
<line x1="414.7" y1="516.0" x2="414.7" y2="519.0" stroke="#999"/>
<text x="414.7" y="531.0" text-anchor="end" fill="#666" transform="rotate(-50 414.7 531.0)">26.1</text>
<line x1="446.2" y1="516.0" x2="446.2" y2="519.0" stroke="#999"/>
<text x="446.2" y="531.0" text-anchor="end" fill="#666" transform="rotate(-50 446.2 531.0)">26.2</text>
<line x1="477.7" y1="516.0" x2="477.7" y2="519.0" stroke="#999"/>
<text x="477.7" y="531.0" text-anchor="end" fill="#666" transform="rotate(-50 477.7 531.0)">26.3</text>
<line x1="509.2" y1="516.0" x2="509.2" y2="519.0" stroke="#999"/>
<text x="509.2" y="531.0" text-anchor="end" fill="#666" transform="rotate(-50 509.2 531.0)">26.4</text>
<line x1="540.7" y1="516.0" x2="540.7" y2="519.0" stroke="#999"/>
<text x="540.7" y="531.0" text-anchor="end" fill="#666" transform="rotate(-50 540.7 531.0)">26.5</text>
<line x1="572.2" y1="516.0" x2="572.2" y2="519.0" stroke="#999"/>
<text x="572.2" y="531.0" text-anchor="end" fill="#666" transform="rotate(-50 572.2 531.0)">26.7</text>
<line x1="603.8" y1="516.0" x2="603.8" y2="519.0" stroke="#999"/>
<text x="603.8" y="531.0" text-anchor="end" fill="#666" transform="rotate(-50 603.8 531.0)">26.8</text>
<line x1="635.3" y1="516.0" x2="635.3" y2="519.0" stroke="#999"/>
<text x="635.3" y="531.0" text-anchor="end" fill="#666" transform="rotate(-50 635.3 531.0)">26.9</text>
<line x1="666.8" y1="516.0" x2="666.8" y2="519.0" stroke="#999"/>
<text x="666.8" y="531.0" text-anchor="end" fill="#666" transform="rotate(-50 666.8 531.0)">26.10</text>
<line x1="698.3" y1="516.0" x2="698.3" y2="519.0" stroke="#999"/>
<text x="698.3" y="531.0" text-anchor="end" fill="#666" transform="rotate(-50 698.3 531.0)">26.11</text>
<line x1="729.8" y1="516.0" x2="729.8" y2="519.0" stroke="#999"/>
<text x="729.8" y="531.0" text-anchor="end" fill="#666" transform="rotate(-50 729.8 531.0)">26.12</text>
<line x1="761.3" y1="516.0" x2="761.3" y2="519.0" stroke="#999"/>
<text x="761.3" y="531.0" text-anchor="end" fill="#e8731a" transform="rotate(-50 761.3 531.0)">06-25</text>
<line x1="792.8" y1="516.0" x2="792.8" y2="519.0" stroke="#999"/>
<text x="792.8" y="531.0" text-anchor="end" fill="#e8731a" transform="rotate(-50 792.8 531.0)">06-26</text>
<line x1="824.4" y1="516.0" x2="824.4" y2="519.0" stroke="#999"/>
<text x="824.4" y="531.0" text-anchor="end" fill="#e8731a" transform="rotate(-50 824.4 531.0)">06-28</text>
<line x1="855.9" y1="516.0" x2="855.9" y2="519.0" stroke="#999"/>
<text x="855.9" y="531.0" text-anchor="end" fill="#e8731a" transform="rotate(-50 855.9 531.0)">07-01</text>
<line x1="887.4" y1="516.0" x2="887.4" y2="519.0" stroke="#999"/>
<text x="887.4" y="531.0" text-anchor="end" fill="#e8731a" transform="rotate(-50 887.4 531.0)">07-02</text>
<line x1="918.9" y1="516.0" x2="918.9" y2="519.0" stroke="#999"/>
<text x="918.9" y="531.0" text-anchor="end" fill="#e8731a" transform="rotate(-50 918.9 531.0)">07-03</text>
<line x1="950.4" y1="516.0" x2="950.4" y2="519.0" stroke="#999"/>
<text x="950.4" y="531.0" text-anchor="end" fill="#e8731a" transform="rotate(-50 950.4 531.0)">07-07</text>
<line x1="981.9" y1="516.0" x2="981.9" y2="519.0" stroke="#999"/>
<text x="981.9" y="531.0" text-anchor="end" fill="#e8731a" transform="rotate(-50 981.9 531.0)">07-07</text>
<line x1="1013.5" y1="516.0" x2="1013.5" y2="519.0" stroke="#999"/>
<text x="1013.5" y="531.0" text-anchor="end" fill="#e8731a" transform="rotate(-50 1013.5 531.0)">07-09</text>
<line x1="1045.0" y1="516.0" x2="1045.0" y2="519.0" stroke="#999"/>
<text x="1045.0" y="531.0" text-anchor="end" fill="#e8731a" transform="rotate(-50 1045.0 531.0)">07-10</text>
<line x1="1076.5" y1="516.0" x2="1076.5" y2="519.0" stroke="#999"/>
<text x="1076.5" y="531.0" text-anchor="end" fill="#e8731a" transform="rotate(-50 1076.5 531.0)">07-11</text>
<line x1="1108.0" y1="516.0" x2="1108.0" y2="519.0" stroke="#999"/>
<text x="1108.0" y="531.0" text-anchor="end" fill="#e8731a" transform="rotate(-50 1108.0 531.0)">07-11</text>
<polygon points="68.0,514.7 99.5,514.8 131.0,514.8 162.5,514.8 194.1,514.7 225.6,514.7 257.1,514.8 288.6,514.6 320.1,514.8 351.6,514.8 383.2,514.7 414.7,514.8 446.2,514.8 477.7,514.7 509.2,514.7 540.7,514.7 572.2,514.6 603.8,514.7 635.3,514.7 666.8,514.6 698.3,514.6 729.8,514.7 761.3,514.5 792.8,514.6 824.4,514.5 855.9,514.6 887.4,514.6 918.9,514.5 950.4,514.6 981.9,514.6 1013.5,514.6 1045.0,514.6 1076.5,514.6 1108.0,514.6 1108.0,516.0 1076.5,516.0 1045.0,516.0 1013.5,516.0 981.9,516.0 950.4,516.0 918.9,516.0 887.4,516.0 855.9,516.0 824.4,516.0 792.8,516.0 761.3,516.0 729.8,516.0 698.3,516.0 666.8,516.0 635.3,516.0 603.8,516.0 572.2,516.0 540.7,516.0 509.2,516.0 477.7,516.0 446.2,516.0 414.7,516.0 383.2,516.0 351.6,516.0 320.1,516.0 288.6,516.0 257.1,516.0 225.6,516.0 194.1,516.0 162.5,516.0 131.0,516.0 99.5,516.0 68.0,516.0" fill="#c7e9c0" fill-opacity="0.9" stroke="#fff" stroke-width="0.4"><title>dynamic_dispatch — parseTranslationUnit</title></polygon>
<polygon points="68.0,492.3 99.5,484.0 131.0,482.7 162.5,480.9 194.1,480.3 225.6,479.9 257.1,477.8 288.6,475.9 320.1,484.0 351.6,483.9 383.2,483.8 414.7,483.6 446.2,482.8 477.7,481.8 509.2,482.2 540.7,482.0 572.2,472.8 603.8,474.3 635.3,472.7 666.8,472.0 698.3,496.4 729.8,494.6 761.3,493.6 792.8,493.7 824.4,493.2 855.9,493.2 887.4,492.8 918.9,493.4 950.4,494.4 981.9,493.8 1013.5,490.9 1045.0,493.7 1076.5,494.1 1108.0,494.0 1108.0,514.6 1076.5,514.6 1045.0,514.6 1013.5,514.6 981.9,514.6 950.4,514.6 918.9,514.5 887.4,514.6 855.9,514.6 824.4,514.5 792.8,514.6 761.3,514.5 729.8,514.7 698.3,514.6 666.8,514.6 635.3,514.7 603.8,514.7 572.2,514.6 540.7,514.7 509.2,514.7 477.7,514.7 446.2,514.8 414.7,514.8 383.2,514.7 351.6,514.8 320.1,514.8 288.6,514.6 257.1,514.8 225.6,514.7 194.1,514.7 162.5,514.8 131.0,514.8 99.5,514.8 68.0,514.7" fill="#41ab5d" fill-opacity="0.9" stroke="#fff" stroke-width="0.4"><title>dynamic_dispatch — SemanticChecking</title></polygon>
<polygon points="68.0,484.9 99.5,476.7 131.0,475.3 162.5,473.0 194.1,472.3 225.6,471.9 257.1,469.5 288.6,467.5 320.1,476.0 351.6,476.3 383.2,475.8 414.7,476.0 446.2,475.1 477.7,474.2 509.2,474.5 540.7,474.5 572.2,454.3 603.8,456.3 635.3,454.7 666.8,453.3 698.3,487.4 729.8,485.3 761.3,483.7 792.8,483.8 824.4,483.2 855.9,483.2 887.4,482.8 918.9,483.5 950.4,484.3 981.9,483.5 1013.5,479.6 1045.0,483.5 1076.5,484.1 1108.0,484.2 1108.0,494.0 1076.5,494.1 1045.0,493.7 1013.5,490.9 981.9,493.8 950.4,494.4 918.9,493.4 887.4,492.8 855.9,493.2 824.4,493.2 792.8,493.7 761.3,493.6 729.8,494.6 698.3,496.4 666.8,472.0 635.3,472.7 603.8,474.3 572.2,472.8 540.7,482.0 509.2,482.2 477.7,481.8 446.2,482.8 414.7,483.6 383.2,483.8 351.6,483.9 320.1,484.0 288.6,475.9 257.1,477.8 225.6,479.9 194.1,480.3 162.5,480.9 131.0,482.7 99.5,484.0 68.0,492.3" fill="#006d2c" fill-opacity="0.9" stroke="#fff" stroke-width="0.4"><title>dynamic_dispatch — generateIR</title></polygon>
<polygon points="68.0,484.5 99.5,475.9 131.0,475.2 162.5,472.8 194.1,472.1 225.6,471.2 257.1,469.3 288.6,466.8 320.1,475.3 351.6,475.9 383.2,475.1 414.7,475.7 446.2,474.8 477.7,473.9 509.2,474.3 540.7,474.2 572.2,454.0 603.8,456.0 635.3,454.3 666.8,453.1 698.3,487.0 729.8,484.7 761.3,483.4 792.8,483.4 824.4,482.9 855.9,482.9 887.4,482.4 918.9,483.1 950.4,483.9 981.9,483.2 1013.5,478.5 1045.0,483.1 1076.5,483.8 1108.0,483.9 1108.0,484.2 1076.5,484.1 1045.0,483.5 1013.5,479.6 981.9,483.5 950.4,484.3 918.9,483.5 887.4,482.8 855.9,483.2 824.4,483.2 792.8,483.8 761.3,483.7 729.8,485.3 698.3,487.4 666.8,453.3 635.3,454.7 603.8,456.3 572.2,454.3 540.7,474.5 509.2,474.5 477.7,474.2 446.2,475.1 414.7,476.0 383.2,475.8 351.6,476.3 320.1,476.0 288.6,467.5 257.1,469.5 225.6,471.9 194.1,472.3 162.5,473.0 131.0,475.3 99.5,476.7 68.0,484.9" fill="#74c476" fill-opacity="0.9" stroke="#fff" stroke-width="0.4"><title>dynamic_dispatch — frontEndExecute (self)</title></polygon>
<polygon points="68.0,480.5 99.5,471.9 131.0,471.0 162.5,468.7 194.1,467.8 225.6,466.9 257.1,464.9 288.6,462.2 320.1,471.0 351.6,471.6 383.2,457.5 414.7,458.4 446.2,457.7 477.7,456.9 509.2,457.5 540.7,457.0 572.2,282.6 603.8,285.7 635.3,282.5 666.8,281.0 698.3,356.8 729.8,340.8 761.3,329.6 792.8,330.2 824.4,331.7 855.9,330.7 887.4,331.0 918.9,330.5 950.4,454.8 981.9,454.2 1013.5,449.6 1045.0,454.9 1076.5,456.0 1108.0,455.7 1108.0,483.9 1076.5,483.8 1045.0,483.1 1013.5,478.5 981.9,483.2 950.4,483.9 918.9,483.1 887.4,482.4 855.9,482.9 824.4,482.9 792.8,483.4 761.3,483.4 729.8,484.7 698.3,487.0 666.8,453.1 635.3,454.3 603.8,456.0 572.2,454.0 540.7,474.2 509.2,474.3 477.7,473.9 446.2,474.8 414.7,475.7 383.2,475.1 351.6,475.9 320.1,475.3 288.6,466.8 257.1,469.3 225.6,471.2 194.1,472.1 162.5,472.8 131.0,475.2 99.5,475.9 68.0,484.5" fill="#6baed6" fill-opacity="0.9" stroke="#fff" stroke-width="0.4"><title>dynamic_dispatch — specializeModule</title></polygon>
<polygon points="68.0,442.1 99.5,433.8 131.0,433.0 162.5,427.9 194.1,426.2 225.6,424.6 257.1,421.9 288.6,415.5 320.1,430.1 351.6,430.2 383.2,402.7 414.7,405.6 446.2,406.7 477.7,405.9 509.2,405.7 540.7,405.8 572.2,195.1 603.8,198.7 635.3,194.5 666.8,193.5 698.3,311.4 729.8,293.6 761.3,281.2 792.8,282.1 824.4,282.9 855.9,283.3 887.4,304.1 918.9,303.9 950.4,427.6 981.9,426.7 1013.5,422.5 1045.0,432.6 1076.5,433.6 1108.0,432.9 1108.0,455.7 1076.5,456.0 1045.0,454.9 1013.5,449.6 981.9,454.2 950.4,454.8 918.9,330.5 887.4,331.0 855.9,330.7 824.4,331.7 792.8,330.2 761.3,329.6 729.8,340.8 698.3,356.8 666.8,281.0 635.3,282.5 603.8,285.7 572.2,282.6 540.7,457.0 509.2,457.5 477.7,456.9 446.2,457.7 414.7,458.4 383.2,457.5 351.6,471.6 320.1,471.0 288.6,462.2 257.1,464.9 225.6,466.9 194.1,467.8 162.5,468.7 131.0,471.0 99.5,471.9 68.0,480.5" fill="#2171b5" fill-opacity="0.9" stroke="#fff" stroke-width="0.4"><title>dynamic_dispatch — simplifyIR</title></polygon>
<polygon points="68.0,439.7 99.5,431.7 131.0,431.0 162.5,425.7 194.1,423.4 225.6,421.7 257.1,419.1 288.6,412.8 320.1,427.8 351.6,427.7 383.2,400.2 414.7,403.6 446.2,404.6 477.7,403.9 509.2,403.6 540.7,403.8 572.2,182.8 603.8,186.6 635.3,182.8 666.8,181.4 698.3,309.4 729.8,291.5 761.3,279.0 792.8,279.9 824.4,280.6 855.9,281.1 887.4,302.0 918.9,301.8 950.4,425.8 981.9,424.9 1013.5,420.6 1045.0,430.7 1076.5,431.7 1108.0,431.1 1108.0,432.9 1076.5,433.6 1045.0,432.6 1013.5,422.5 981.9,426.7 950.4,427.6 918.9,303.9 887.4,304.1 855.9,283.3 824.4,282.9 792.8,282.1 761.3,281.2 729.8,293.6 698.3,311.4 666.8,193.5 635.3,194.5 603.8,198.7 572.2,195.1 540.7,405.8 509.2,405.7 477.7,405.9 446.2,406.7 414.7,405.6 383.2,402.7 351.6,430.2 320.1,430.1 288.6,415.5 257.1,421.9 225.6,424.6 194.1,426.2 162.5,427.9 131.0,433.0 99.5,433.8 68.0,442.1" fill="#08306b" fill-opacity="0.9" stroke="#fff" stroke-width="0.4"><title>dynamic_dispatch — linkIR</title></polygon>
<polygon points="68.0,439.5 99.5,431.5 131.0,430.8 162.5,425.4 194.1,423.2 225.6,421.5 257.1,418.9 288.6,412.5 320.1,427.6 351.6,427.5 383.2,400.0 414.7,403.3 446.2,404.3 477.7,403.7 509.2,403.4 540.7,403.5 572.2,182.7 603.8,186.5 635.3,182.7 666.8,181.3 698.3,309.3 729.8,291.4 761.3,278.9 792.8,279.8 824.4,280.5 855.9,281.0 887.4,301.9 918.9,301.7 950.4,425.2 981.9,424.3 1013.5,420.1 1045.0,430.2 1076.5,431.2 1108.0,430.6 1108.0,431.1 1076.5,431.7 1045.0,430.7 1013.5,420.6 981.9,424.9 950.4,425.8 918.9,301.8 887.4,302.0 855.9,281.1 824.4,280.6 792.8,279.9 761.3,279.0 729.8,291.5 698.3,309.4 666.8,181.4 635.3,182.8 603.8,186.6 572.2,182.8 540.7,403.8 509.2,403.6 477.7,403.9 446.2,404.6 414.7,403.6 383.2,400.2 351.6,427.7 320.1,427.8 288.6,412.8 257.1,419.1 225.6,421.7 194.1,423.4 162.5,425.7 131.0,431.0 99.5,431.7 68.0,439.7" fill="#9e9ac8" fill-opacity="0.9" stroke="#fff" stroke-width="0.4"><title>dynamic_dispatch — unrollLoopsInModule</title></polygon>
<polygon points="68.0,433.8 99.5,426.0 131.0,425.2 162.5,419.8 194.1,419.4 225.6,417.8 257.1,415.1 288.6,408.5 320.1,423.8 351.6,423.8 383.2,396.5 414.7,399.9 446.2,400.9 477.7,400.3 509.2,400.0 540.7,400.2 572.2,179.3 603.8,183.2 635.3,179.4 666.8,178.0 698.3,307.0 729.8,289.2 761.3,276.6 792.8,277.4 824.4,278.1 855.9,278.6 887.4,299.6 918.9,299.4 950.4,423.0 981.9,422.1 1013.5,417.8 1045.0,427.8 1076.5,429.3 1108.0,428.6 1108.0,430.6 1076.5,431.2 1045.0,430.2 1013.5,420.1 981.9,424.3 950.4,425.2 918.9,301.7 887.4,301.9 855.9,281.0 824.4,280.5 792.8,279.8 761.3,278.9 729.8,291.4 698.3,309.3 666.8,181.3 635.3,182.7 603.8,186.5 572.2,182.7 540.7,403.5 509.2,403.4 477.7,403.7 446.2,404.3 414.7,403.3 383.2,400.0 351.6,427.5 320.1,427.6 288.6,412.5 257.1,418.9 225.6,421.5 194.1,423.2 162.5,425.4 131.0,430.8 99.5,431.5 68.0,439.5" fill="#807dba" fill-opacity="0.9" stroke="#fff" stroke-width="0.4"><title>dynamic_dispatch — legalizeResourceTypes</title></polygon>
<polygon points="68.0,426.8 99.5,419.1 131.0,418.3 162.5,412.9 194.1,414.2 225.6,412.7 257.1,410.0 288.6,403.3 320.1,418.8 351.6,418.7 383.2,390.8 414.7,394.2 446.2,395.2 477.7,394.6 509.2,394.3 540.7,394.2 572.2,173.9 603.8,177.8 635.3,174.1 666.8,172.7 698.3,303.6 729.8,285.8 761.3,273.0 792.8,273.9 824.4,274.5 855.9,274.9 887.4,296.1 918.9,295.9 950.4,419.5 981.9,418.5 1013.5,414.2 1045.0,424.3 1076.5,426.4 1108.0,425.7 1108.0,428.6 1076.5,429.3 1045.0,427.8 1013.5,417.8 981.9,422.1 950.4,423.0 918.9,299.4 887.4,299.6 855.9,278.6 824.4,278.1 792.8,277.4 761.3,276.6 729.8,289.2 698.3,307.0 666.8,178.0 635.3,179.4 603.8,183.2 572.2,179.3 540.7,400.2 509.2,400.0 477.7,400.3 446.2,400.9 414.7,399.9 383.2,396.5 351.6,423.8 320.1,423.8 288.6,408.5 257.1,415.1 225.6,417.8 194.1,419.4 162.5,419.8 131.0,425.2 99.5,426.0 68.0,433.8" fill="#6a51a3" fill-opacity="0.9" stroke="#fff" stroke-width="0.4"><title>dynamic_dispatch — legalizeExistentialTypeLayout</title></polygon>
<polygon points="68.0,426.4 99.5,418.7 131.0,417.9 162.5,412.4 194.1,413.8 225.6,412.3 257.1,409.5 288.6,402.8 320.1,418.3 351.6,418.3 383.2,390.3 414.7,393.8 446.2,394.8 477.7,394.3 509.2,393.9 540.7,393.8 572.2,173.5 603.8,177.4 635.3,173.7 666.8,172.3 698.3,303.3 729.8,285.4 761.3,272.6 792.8,273.5 824.4,274.1 855.9,274.6 887.4,295.7 918.9,295.5 950.4,418.7 981.9,417.8 1013.5,413.5 1045.0,423.5 1076.5,425.7 1108.0,424.9 1108.0,425.7 1076.5,426.4 1045.0,424.3 1013.5,414.2 981.9,418.5 950.4,419.5 918.9,295.9 887.4,296.1 855.9,274.9 824.4,274.5 792.8,273.9 761.3,273.0 729.8,285.8 698.3,303.6 666.8,172.7 635.3,174.1 603.8,177.8 572.2,173.9 540.7,394.2 509.2,394.3 477.7,394.6 446.2,395.2 414.7,394.2 383.2,390.8 351.6,418.7 320.1,418.8 288.6,403.3 257.1,410.0 225.6,412.7 194.1,414.2 162.5,412.9 131.0,418.3 99.5,419.1 68.0,426.8" fill="#bcbddc" fill-opacity="0.9" stroke="#fff" stroke-width="0.4"><title>dynamic_dispatch — performMandatoryEarlyInlining</title></polygon>
<polygon points="68.0,425.9 99.5,418.2 131.0,417.4 162.5,411.9 194.1,413.3 225.6,411.7 257.1,409.0 288.6,402.3 320.1,417.8 351.6,417.8 383.2,389.9 414.7,393.3 446.2,394.4 477.7,393.8 509.2,393.4 540.7,393.3 572.2,173.1 603.8,176.9 635.3,173.2 666.8,171.9 698.3,302.8 729.8,284.9 761.3,272.2 792.8,273.0 824.4,273.6 855.9,274.1 887.4,295.2 918.9,295.0 950.4,418.2 981.9,417.3 1013.5,412.9 1045.0,423.0 1076.5,425.2 1108.0,424.4 1108.0,424.9 1076.5,425.7 1045.0,423.5 1013.5,413.5 981.9,417.8 950.4,418.7 918.9,295.5 887.4,295.7 855.9,274.6 824.4,274.1 792.8,273.5 761.3,272.6 729.8,285.4 698.3,303.3 666.8,172.3 635.3,173.7 603.8,177.4 572.2,173.5 540.7,393.8 509.2,393.9 477.7,394.3 446.2,394.8 414.7,393.8 383.2,390.3 351.6,418.3 320.1,418.3 288.6,402.8 257.1,409.5 225.6,412.3 194.1,413.8 162.5,412.4 131.0,417.9 99.5,418.7 68.0,426.4" fill="#dadaeb" fill-opacity="0.9" stroke="#fff" stroke-width="0.4"><title>dynamic_dispatch — performForceInlining</title></polygon>
<polygon points="68.0,398.4 99.5,390.8 131.0,388.9 162.5,382.6 194.1,383.1 225.6,380.3 257.1,375.8 288.6,370.7 320.1,387.4 351.6,387.6 383.2,368.2 414.7,373.4 446.2,374.4 477.7,373.9 509.2,372.2 540.7,373.2 572.2,136.3 603.8,141.5 635.3,138.4 666.8,134.8 698.3,282.9 729.8,264.9 761.3,249.0 792.8,250.5 824.4,250.6 855.9,251.3 887.4,271.0 918.9,271.3 950.4,395.5 981.9,394.7 1013.5,390.0 1045.0,400.8 1076.5,403.7 1108.0,402.8 1108.0,424.4 1076.5,425.2 1045.0,423.0 1013.5,412.9 981.9,417.3 950.4,418.2 918.9,295.0 887.4,295.2 855.9,274.1 824.4,273.6 792.8,273.0 761.3,272.2 729.8,284.9 698.3,302.8 666.8,171.9 635.3,173.2 603.8,176.9 572.2,173.1 540.7,393.3 509.2,393.4 477.7,393.8 446.2,394.4 414.7,393.3 383.2,389.9 351.6,417.8 320.1,417.8 288.6,402.3 257.1,409.0 225.6,411.7 194.1,413.3 162.5,411.9 131.0,417.4 99.5,418.2 68.0,425.9" fill="#4a1486" fill-opacity="0.9" stroke="#fff" stroke-width="0.4"><title>dynamic_dispatch — linkAndOptimizeIR (self)</title></polygon>
<polygon points="68.0,338.4 99.5,330.6 131.0,328.7 162.5,333.7 194.1,327.5 225.6,328.6 257.1,322.6 288.6,317.2 320.1,336.6 351.6,333.7 383.2,343.0 414.7,348.0 446.2,349.8 477.7,349.7 509.2,347.8 540.7,348.4 572.2,110.1 603.8,115.1 635.3,112.1 666.8,108.7 698.3,258.3 729.8,240.0 761.3,223.5 792.8,223.3 824.4,224.6 855.9,226.5 887.4,245.8 918.9,247.4 950.4,372.1 981.9,370.3 1013.5,365.3 1045.0,376.6 1076.5,379.8 1108.0,379.0 1108.0,402.8 1076.5,403.7 1045.0,400.8 1013.5,390.0 981.9,394.7 950.4,395.5 918.9,271.3 887.4,271.0 855.9,251.3 824.4,250.6 792.8,250.5 761.3,249.0 729.8,264.9 698.3,282.9 666.8,134.8 635.3,138.4 603.8,141.5 572.2,136.3 540.7,373.2 509.2,372.2 477.7,373.9 446.2,374.4 414.7,373.4 383.2,368.2 351.6,387.6 320.1,387.4 288.6,370.7 257.1,375.8 225.6,380.3 194.1,383.1 162.5,382.6 131.0,388.9 99.5,390.8 68.0,398.4" fill="#e6550d" fill-opacity="0.9" stroke="#fff" stroke-width="0.4"><title>dynamic_dispatch — generateOutput (self)</title></polygon>
<polygon points="68.0,338.4 99.5,330.6 131.0,328.7 162.5,333.7 194.1,327.3 225.6,327.8 257.1,322.6 288.6,317.0 320.1,336.6 351.6,333.7 383.2,343.0 414.7,347.6 446.2,349.8 477.7,349.6 509.2,347.8 540.7,348.2 572.2,110.1 603.8,114.9 635.3,112.1 666.8,108.6 698.3,258.3 729.8,239.8 761.3,223.5 792.8,222.5 824.4,224.5 855.9,226.5 887.4,245.5 918.9,247.3 950.4,372.1 981.9,370.2 1013.5,365.1 1045.0,376.5 1076.5,379.8 1108.0,378.8 1108.0,379.0 1076.5,379.8 1045.0,376.6 1013.5,365.3 981.9,370.3 950.4,372.1 918.9,247.4 887.4,245.8 855.9,226.5 824.4,224.6 792.8,223.3 761.3,223.5 729.8,240.0 698.3,258.3 666.8,108.7 635.3,112.1 603.8,115.1 572.2,110.1 540.7,348.4 509.2,347.8 477.7,349.7 446.2,349.8 414.7,348.0 383.2,343.0 351.6,333.7 320.1,336.6 288.6,317.2 257.1,322.6 225.6,328.6 194.1,327.5 162.5,333.7 131.0,328.7 99.5,330.6 68.0,338.4" fill="#969696" fill-opacity="0.9" stroke="#fff" stroke-width="0.4"><title>dynamic_dispatch — compileInner (self)</title></polygon>
<text x="12" y="578" fill="#666" font-weight="600">phase buckets</text>
<rect x="12" y="586" width="12" height="12" fill="#c7e9c0"/>
<text x="28" y="596" fill="#222">parseTranslationUnit</text>
<rect x="289" y="586" width="12" height="12" fill="#41ab5d"/>
<text x="305" y="596" fill="#222">SemanticChecking</text>
<rect x="566" y="586" width="12" height="12" fill="#006d2c"/>
<text x="582" y="596" fill="#222">generateIR</text>
<rect x="843" y="586" width="12" height="12" fill="#74c476"/>
<text x="859" y="596" fill="#222">frontEndExecute (self)</text>
<rect x="12" y="604" width="12" height="12" fill="#6baed6"/>
<text x="28" y="614" fill="#222">specializeModule</text>
<rect x="289" y="604" width="12" height="12" fill="#2171b5"/>
<text x="305" y="614" fill="#222">simplifyIR</text>
<rect x="566" y="604" width="12" height="12" fill="#08306b"/>
<text x="582" y="614" fill="#222">linkIR</text>
<rect x="843" y="604" width="12" height="12" fill="#9e9ac8"/>
<text x="859" y="614" fill="#222">unrollLoopsInModule</text>
<rect x="12" y="622" width="12" height="12" fill="#807dba"/>
<text x="28" y="632" fill="#222">legalizeResourceTypes</text>
<rect x="289" y="622" width="12" height="12" fill="#6a51a3"/>
<text x="305" y="632" fill="#222">legalizeExistentialTypeLayout</text>
<rect x="566" y="622" width="12" height="12" fill="#bcbddc"/>
<text x="582" y="632" fill="#222">performMandatoryEarlyInlining</text>
<rect x="843" y="622" width="12" height="12" fill="#dadaeb"/>
<text x="859" y="632" fill="#222">performForceInlining</text>
<rect x="12" y="640" width="12" height="12" fill="#4a1486"/>
<text x="28" y="650" fill="#222">linkAndOptimizeIR (self)</text>
<rect x="289" y="640" width="12" height="12" fill="#fd8d3c"/>
<text x="305" y="650" fill="#222">emitEntryPointsSourceFromIR</text>
<rect x="566" y="640" width="12" height="12" fill="#e6550d"/>
<text x="582" y="650" fill="#222">generateOutput (self)</text>
<rect x="843" y="640" width="12" height="12" fill="#969696"/>
<text x="859" y="650" fill="#222">compileInner (self)</text>
</svg>