<svg xmlns="http://www.w3.org/2000/svg" xmlns:xlink="http://www.w3.org/1999/xlink" width="1132" height="680" viewBox="0 0 1132 680" preserveAspectRatio="xMidYMid meet" font-family="sans-serif" font-size="13">
<rect width="1132" height="680" fill="white"/>
<text x="12" y="30" font-size="20" font-weight="bold">dynamic_dispatch — Daily tip-of-tree (last 30 days) (median ms)</text>
<text x="68" y="60" font-size="15" font-weight="600" fill="#1a1a1a">dynamic_dispatch<tspan fill="#888" font-weight="400" text-decoration="none">  0.43×</tspan></text>
<line x1="68.0" y1="516.0" x2="1108.0" y2="516.0" stroke="#eee"/>
<text x="64.0" y="519.0" text-anchor="end" fill="#999">0.0</text>
<line x1="68.0" y1="296.0" x2="1108.0" y2="296.0" stroke="#eee"/>
<text x="64.0" y="299.0" text-anchor="end" fill="#999">177</text>
<line x1="68.0" y1="76.0" x2="1108.0" y2="76.0" stroke="#eee"/>
<text x="64.0" y="79.0" text-anchor="end" fill="#999">353</text>
<line x1="68.0" y1="76.0" x2="68.0" y2="516.0" stroke="#333"/>
<line x1="68.0" y1="516.0" x2="1108.0" y2="516.0" stroke="#333"/>
<line x1="68.0" y1="516.0" x2="68.0" y2="519.0" stroke="#999"/>
<text x="68.0" y="531.0" text-anchor="end" fill="#e8731a" transform="rotate(-50 68.0 531.0)">06-25</text>
<line x1="137.3" y1="516.0" x2="137.3" y2="519.0" stroke="#999"/>
<text x="137.3" y="531.0" text-anchor="end" fill="#e8731a" transform="rotate(-50 137.3 531.0)">06-26</text>
<line x1="206.7" y1="516.0" x2="206.7" y2="519.0" stroke="#999"/>
<text x="206.7" y="531.0" text-anchor="end" fill="#e8731a" transform="rotate(-50 206.7 531.0)">06-28</text>
<line x1="276.0" y1="516.0" x2="276.0" y2="519.0" stroke="#999"/>
<text x="276.0" y="531.0" text-anchor="end" fill="#e8731a" transform="rotate(-50 276.0 531.0)">07-01</text>
<line x1="345.3" y1="516.0" x2="345.3" y2="519.0" stroke="#999"/>
<text x="345.3" y="531.0" text-anchor="end" fill="#e8731a" transform="rotate(-50 345.3 531.0)">07-02</text>
<line x1="414.7" y1="516.0" x2="414.7" y2="519.0" stroke="#999"/>
<text x="414.7" y="531.0" text-anchor="end" fill="#e8731a" transform="rotate(-50 414.7 531.0)">07-03</text>
<line x1="484.0" y1="516.0" x2="484.0" y2="519.0" stroke="#999"/>
<text x="484.0" y="531.0" text-anchor="end" fill="#e8731a" transform="rotate(-50 484.0 531.0)">07-06</text>
<line x1="553.3" y1="516.0" x2="553.3" y2="519.0" stroke="#999"/>
<text x="553.3" y="531.0" text-anchor="end" fill="#e8731a" transform="rotate(-50 553.3 531.0)">07-07</text>
<line x1="622.7" y1="516.0" x2="622.7" y2="519.0" stroke="#999"/>
<text x="622.7" y="531.0" text-anchor="end" fill="#e8731a" transform="rotate(-50 622.7 531.0)">07-08</text>
<line x1="692.0" y1="516.0" x2="692.0" y2="519.0" stroke="#999"/>
<text x="692.0" y="531.0" text-anchor="end" fill="#e8731a" transform="rotate(-50 692.0 531.0)">07-09</text>
<line x1="761.3" y1="516.0" x2="761.3" y2="519.0" stroke="#999"/>
<text x="761.3" y="531.0" text-anchor="end" fill="#e8731a" transform="rotate(-50 761.3 531.0)">07-10</text>
<line x1="830.7" y1="516.0" x2="830.7" y2="519.0" stroke="#999"/>
<text x="830.7" y="531.0" text-anchor="end" fill="#e8731a" transform="rotate(-50 830.7 531.0)">07-11</text>
<line x1="900.0" y1="516.0" x2="900.0" y2="519.0" stroke="#999"/>
<text x="900.0" y="531.0" text-anchor="end" fill="#e8731a" transform="rotate(-50 900.0 531.0)">07-14</text>
<line x1="969.3" y1="516.0" x2="969.3" y2="519.0" stroke="#999"/>
<text x="969.3" y="531.0" text-anchor="end" fill="#e8731a" transform="rotate(-50 969.3 531.0)">07-15</text>
<line x1="1038.7" y1="516.0" x2="1038.7" y2="519.0" stroke="#999"/>
<text x="1038.7" y="531.0" text-anchor="end" fill="#e8731a" transform="rotate(-50 1038.7 531.0)">07-15</text>
<line x1="1108.0" y1="516.0" x2="1108.0" y2="519.0" stroke="#999"/>
<text x="1108.0" y="531.0" text-anchor="end" fill="#e8731a" transform="rotate(-50 1108.0 531.0)">07-16</text>
<polygon points="68.0,513.9 137.3,514.0 206.7,514.0 276.0,513.9 345.3,514.0 414.7,514.0 484.0,513.9 553.3,514.1 622.7,514.1 692.0,514.1 761.3,514.0 830.7,514.1 900.0,514.0 969.3,514.1 1038.7,514.2 1108.0,514.2 1108.0,516.0 1038.7,516.0 969.3,516.0 900.0,516.0 830.7,516.0 761.3,516.0 692.0,516.0 622.7,516.0 553.3,516.0 484.0,516.0 414.7,516.0 345.3,516.0 276.0,516.0 206.7,516.0 137.3,516.0 68.0,516.0" fill="#c7e9c0" fill-opacity="0.9" stroke="#fff" stroke-width="0.4"><title>dynamic_dispatch — parseTranslationUnit</title></polygon>
<polygon points="68.0,484.4 137.3,484.8 206.7,484.8 276.0,483.9 345.3,484.6 414.7,484.8 484.0,484.4 553.3,486.0 622.7,485.7 692.0,485.7 761.3,485.1 830.7,485.6 900.0,486.1 969.3,488.3 1038.7,488.2 1108.0,485.9 1108.0,514.2 1038.7,514.2 969.3,514.1 900.0,514.0 830.7,514.1 761.3,514.0 692.0,514.1 622.7,514.1 553.3,514.1 484.0,513.9 414.7,514.0 345.3,514.0 276.0,513.9 206.7,514.0 137.3,514.0 68.0,513.9" fill="#41ab5d" fill-opacity="0.9" stroke="#fff" stroke-width="0.4"><title>dynamic_dispatch — SemanticChecking</title></polygon>
<polygon points="68.0,470.2 137.3,471.2 206.7,471.1 276.0,470.1 345.3,470.5 414.7,471.2 484.0,470.7 553.3,472.2 622.7,471.8 692.0,471.7 761.3,471.4 830.7,472.2 900.0,472.6 969.3,475.1 1038.7,475.2 1108.0,472.9 1108.0,485.9 1038.7,488.2 969.3,488.3 900.0,486.1 830.7,485.6 761.3,485.1 692.0,485.7 622.7,485.7 553.3,486.0 484.0,484.4 414.7,484.8 345.3,484.6 276.0,483.9 206.7,484.8 137.3,484.8 68.0,484.4" fill="#006d2c" fill-opacity="0.9" stroke="#fff" stroke-width="0.4"><title>dynamic_dispatch — generateIR</title></polygon>
<polygon points="68.0,470.0 137.3,470.7 206.7,470.6 276.0,469.6 345.3,469.9 414.7,470.7 484.0,470.2 553.3,471.7 622.7,471.5 692.0,471.2 761.3,470.9 830.7,471.7 900.0,472.3 969.3,474.8 1038.7,474.7 1108.0,472.5 1108.0,472.9 1038.7,475.2 969.3,475.1 900.0,472.6 830.7,472.2 761.3,471.4 692.0,471.7 622.7,471.8 553.3,472.2 484.0,470.7 414.7,471.2 345.3,470.5 276.0,470.1 206.7,471.1 137.3,471.2 68.0,470.2" fill="#74c476" fill-opacity="0.9" stroke="#fff" stroke-width="0.4"><title>dynamic_dispatch — frontEndExecute (self)</title></polygon>
<polygon points="68.0,260.5 137.3,257.3 206.7,256.9 276.0,260.0 345.3,258.3 414.7,260.2 484.0,261.9 553.3,431.7 622.7,431.6 692.0,431.4 761.3,432.7 830.7,432.8 900.0,433.3 969.3,438.6 1038.7,439.1 1108.0,436.4 1108.0,472.5 1038.7,474.7 969.3,474.8 900.0,472.3 830.7,471.7 761.3,470.9 692.0,471.2 622.7,471.5 553.3,471.7 484.0,470.2 414.7,470.7 345.3,469.9 276.0,469.6 206.7,470.6 137.3,470.7 68.0,470.0" fill="#6baed6" fill-opacity="0.9" stroke="#fff" stroke-width="0.4"><title>dynamic_dispatch — specializeModule</title></polygon>
<polygon points="68.0,192.4 137.3,189.2 206.7,189.5 276.0,192.9 345.3,221.1 414.7,223.6 484.0,224.7 553.3,394.8 622.7,395.2 692.0,394.8 761.3,401.7 830.7,401.5 900.0,401.9 969.3,411.5 1038.7,412.1 1108.0,409.8 1108.0,436.4 1038.7,439.1 969.3,438.6 900.0,433.3 830.7,432.8 761.3,432.7 692.0,431.4 622.7,431.6 553.3,431.7 484.0,261.9 414.7,260.2 345.3,258.3 276.0,260.0 206.7,256.9 137.3,257.3 68.0,260.5" fill="#2171b5" fill-opacity="0.9" stroke="#fff" stroke-width="0.4"><title>dynamic_dispatch — simplifyIR</title></polygon>
<polygon points="68.0,189.3 137.3,186.2 206.7,186.5 276.0,189.8 345.3,218.1 414.7,220.8 484.0,221.6 553.3,392.2 622.7,392.6 692.0,392.3 761.3,399.3 830.7,398.9 900.0,399.4 969.3,409.1 1038.7,409.9 1108.0,407.7 1108.0,409.8 1038.7,412.1 969.3,411.5 900.0,401.9 830.7,401.5 761.3,401.7 692.0,394.8 622.7,395.2 553.3,394.8 484.0,224.7 414.7,223.6 345.3,221.1 276.0,192.9 206.7,189.5 137.3,189.2 68.0,192.4" fill="#08306b" fill-opacity="0.9" stroke="#fff" stroke-width="0.4"><title>dynamic_dispatch — linkIR</title></polygon>
<polygon points="68.0,189.2 137.3,186.1 206.7,186.3 276.0,189.7 345.3,218.0 414.7,220.6 484.0,221.5 553.3,391.5 622.7,391.9 692.0,391.6 761.3,398.6 830.7,398.2 900.0,398.6 969.3,408.5 1038.7,409.3 1108.0,407.1 1108.0,407.7 1038.7,409.9 969.3,409.1 900.0,399.4 830.7,398.9 761.3,399.3 692.0,392.3 622.7,392.6 553.3,392.2 484.0,221.6 414.7,220.8 345.3,218.1 276.0,189.8 206.7,186.5 137.3,186.2 68.0,189.3" fill="#9e9ac8" fill-opacity="0.9" stroke="#fff" stroke-width="0.4"><title>dynamic_dispatch — unrollLoopsInModule</title></polygon>
<polygon points="68.0,186.0 137.3,182.8 206.7,183.1 276.0,186.5 345.3,214.8 414.7,217.4 484.0,218.3 553.3,388.3 622.7,388.7 692.0,388.3 761.3,396.0 830.7,395.6 900.0,396.1 969.3,405.9 1038.7,406.8 1108.0,404.5 1108.0,407.1 1038.7,409.3 969.3,408.5 900.0,398.6 830.7,398.2 761.3,398.6 692.0,391.6 622.7,391.9 553.3,391.5 484.0,221.5 414.7,220.6 345.3,218.0 276.0,189.7 206.7,186.3 137.3,186.1 68.0,189.2" fill="#807dba" fill-opacity="0.9" stroke="#fff" stroke-width="0.4"><title>dynamic_dispatch — legalizeResourceTypes</title></polygon>
<polygon points="68.0,181.1 137.3,177.9 206.7,178.1 276.0,181.5 345.3,209.9 414.7,212.5 484.0,213.3 553.3,383.4 622.7,383.8 692.0,383.4 761.3,392.1 830.7,391.5 900.0,392.1 969.3,402.2 1038.7,403.1 1108.0,400.7 1108.0,404.5 1038.7,406.8 969.3,405.9 900.0,396.1 830.7,395.6 761.3,396.0 692.0,388.3 622.7,388.7 553.3,388.3 484.0,218.3 414.7,217.4 345.3,214.8 276.0,186.5 206.7,183.1 137.3,182.8 68.0,186.0" fill="#6a51a3" fill-opacity="0.9" stroke="#fff" stroke-width="0.4"><title>dynamic_dispatch — legalizeExistentialTypeLayout</title></polygon>
<polygon points="68.0,180.6 137.3,177.4 206.7,177.6 276.0,181.0 345.3,209.4 414.7,212.0 484.0,212.9 553.3,382.4 622.7,382.8 692.0,382.4 761.3,391.1 830.7,390.4 900.0,391.1 969.3,401.2 1038.7,402.0 1108.0,399.6 1108.0,400.7 1038.7,403.1 969.3,402.2 900.0,392.1 830.7,391.5 761.3,392.1 692.0,383.4 622.7,383.8 553.3,383.4 484.0,213.3 414.7,212.5 345.3,209.9 276.0,181.5 206.7,178.1 137.3,177.9 68.0,181.1" fill="#bcbddc" fill-opacity="0.9" stroke="#fff" stroke-width="0.4"><title>dynamic_dispatch — performMandatoryEarlyInlining</title></polygon>
<polygon points="68.0,179.9 137.3,176.7 206.7,176.9 276.0,180.3 345.3,208.8 414.7,211.3 484.0,212.2 553.3,381.7 622.7,382.1 692.0,381.7 761.3,390.4 830.7,389.7 900.0,390.4 969.3,400.5 1038.7,401.3 1108.0,398.9 1108.0,399.6 1038.7,402.0 969.3,401.2 900.0,391.1 830.7,390.4 761.3,391.1 692.0,382.4 622.7,382.8 553.3,382.4 484.0,212.9 414.7,212.0 345.3,209.4 276.0,181.0 206.7,177.6 137.3,177.4 68.0,180.6" fill="#dadaeb" fill-opacity="0.9" stroke="#fff" stroke-width="0.4"><title>dynamic_dispatch — performForceInlining</title></polygon>
<polygon points="68.0,149.7 137.3,145.4 206.7,145.2 276.0,148.8 345.3,175.7 414.7,178.6 484.0,179.2 553.3,349.6 622.7,351.1 692.0,350.7 761.3,361.0 830.7,360.0 900.0,360.5 969.3,375.9 1038.7,377.0 1108.0,374.6 1108.0,398.9 1038.7,401.3 969.3,400.5 900.0,390.4 830.7,389.7 761.3,390.4 692.0,381.7 622.7,382.1 553.3,381.7 484.0,212.2 414.7,211.3 345.3,208.8 276.0,180.3 206.7,176.9 137.3,176.7 68.0,179.9" fill="#4a1486" fill-opacity="0.9" stroke="#fff" stroke-width="0.4"><title>dynamic_dispatch — linkAndOptimizeIR (self)</title></polygon>
<polygon points="68.0,114.3 137.3,109.9 206.7,109.4 276.0,113.1 345.3,142.9 414.7,145.7 484.0,146.8 553.3,316.6 622.7,318.2 692.0,318.3 761.3,328.0 830.7,327.1 900.0,328.2 969.3,344.4 1038.7,345.7 1108.0,342.7 1108.0,374.6 1038.7,377.0 969.3,375.9 900.0,360.5 830.7,360.0 761.3,361.0 692.0,350.7 622.7,351.1 553.3,349.6 484.0,179.2 414.7,178.6 345.3,175.7 276.0,148.8 206.7,145.2 137.3,145.4 68.0,149.7" fill="#e6550d" fill-opacity="0.9" stroke="#fff" stroke-width="0.4"><title>dynamic_dispatch — generateOutput (self)</title></polygon>
<polygon points="68.0,111.6 137.3,109.4 206.7,108.6 276.0,112.8 345.3,142.4 414.7,145.6 484.0,146.5 553.3,316.4 622.7,318.1 692.0,317.3 761.3,327.8 830.7,326.8 900.0,327.5 969.3,343.9 1038.7,345.6 1108.0,342.6 1108.0,342.7 1038.7,345.7 969.3,344.4 900.0,328.2 830.7,327.1 761.3,328.0 692.0,318.3 622.7,318.2 553.3,316.6 484.0,146.8 414.7,145.7 345.3,142.9 276.0,113.1 206.7,109.4 137.3,109.9 68.0,114.3" fill="#969696" fill-opacity="0.9" stroke="#fff" stroke-width="0.4"><title>dynamic_dispatch — compileInner (self)</title></polygon>
<text x="12" y="578" fill="#666" font-weight="600">phase buckets</text>
<rect x="12" y="586" width="12" height="12" fill="#c7e9c0"/>
<text x="28" y="596" fill="#222">parseTranslationUnit</text>
<rect x="289" y="586" width="12" height="12" fill="#41ab5d"/>
<text x="305" y="596" fill="#222">SemanticChecking</text>
<rect x="566" y="586" width="12" height="12" fill="#006d2c"/>
<text x="582" y="596" fill="#222">generateIR</text>
<rect x="843" y="586" width="12" height="12" fill="#74c476"/>
<text x="859" y="596" fill="#222">frontEndExecute (self)</text>
<rect x="12" y="604" width="12" height="12" fill="#6baed6"/>
<text x="28" y="614" fill="#222">specializeModule</text>
<rect x="289" y="604" width="12" height="12" fill="#2171b5"/>
<text x="305" y="614" fill="#222">simplifyIR</text>
<rect x="566" y="604" width="12" height="12" fill="#08306b"/>
<text x="582" y="614" fill="#222">linkIR</text>
<rect x="843" y="604" width="12" height="12" fill="#9e9ac8"/>
<text x="859" y="614" fill="#222">unrollLoopsInModule</text>
<rect x="12" y="622" width="12" height="12" fill="#807dba"/>
<text x="28" y="632" fill="#222">legalizeResourceTypes</text>
<rect x="289" y="622" width="12" height="12" fill="#6a51a3"/>
<text x="305" y="632" fill="#222">legalizeExistentialTypeLayout</text>
<rect x="566" y="622" width="12" height="12" fill="#bcbddc"/>
<text x="582" y="632" fill="#222">performMandatoryEarlyInlining</text>
<rect x="843" y="622" width="12" height="12" fill="#dadaeb"/>
<text x="859" y="632" fill="#222">performForceInlining</text>
<rect x="12" y="640" width="12" height="12" fill="#4a1486"/>
<text x="28" y="650" fill="#222">linkAndOptimizeIR (self)</text>
<rect x="289" y="640" width="12" height="12" fill="#fd8d3c"/>
<text x="305" y="650" fill="#222">emitEntryPointsSourceFromIR</text>
<rect x="566" y="640" width="12" height="12" fill="#e6550d"/>
<text x="582" y="650" fill="#222">generateOutput (self)</text>
<rect x="843" y="640" width="12" height="12" fill="#969696"/>
<text x="859" y="650" fill="#222">compileInner (self)</text>
</svg>