<svg xmlns="http://www.w3.org/2000/svg" xmlns:xlink="http://www.w3.org/1999/xlink" width="1132" height="680" viewBox="0 0 1132 680" preserveAspectRatio="xMidYMid meet" font-family="sans-serif" font-size="13">
<rect width="1132" height="680" fill="white"/>
<text x="12" y="30" font-size="20" font-weight="bold">dynamic_dispatch — Daily tip-of-tree (last 30 days) (median ms)</text>
<text x="68" y="60" font-size="15" font-weight="600" fill="#1a1a1a">dynamic_dispatch<tspan fill="#888" font-weight="400" text-decoration="none">  0.43×</tspan></text>
<line x1="68.0" y1="516.0" x2="1108.0" y2="516.0" stroke="#eee"/>
<text x="64.0" y="519.0" text-anchor="end" fill="#999">0.0</text>
<line x1="68.0" y1="296.0" x2="1108.0" y2="296.0" stroke="#eee"/>
<text x="64.0" y="299.0" text-anchor="end" fill="#999">177</text>
<line x1="68.0" y1="76.0" x2="1108.0" y2="76.0" stroke="#eee"/>
<text x="64.0" y="79.0" text-anchor="end" fill="#999">353</text>
<line x1="68.0" y1="76.0" x2="68.0" y2="516.0" stroke="#333"/>
<line x1="68.0" y1="516.0" x2="1108.0" y2="516.0" stroke="#333"/>
<line x1="68.0" y1="516.0" x2="68.0" y2="519.0" stroke="#999"/>
<text x="68.0" y="531.0" text-anchor="end" fill="#e8731a" transform="rotate(-50 68.0 531.0)">06-25</text>
<line x1="148.0" y1="516.0" x2="148.0" y2="519.0" stroke="#999"/>
<text x="148.0" y="531.0" text-anchor="end" fill="#e8731a" transform="rotate(-50 148.0 531.0)">06-26</text>
<line x1="228.0" y1="516.0" x2="228.0" y2="519.0" stroke="#999"/>
<text x="228.0" y="531.0" text-anchor="end" fill="#e8731a" transform="rotate(-50 228.0 531.0)">06-28</text>
<line x1="308.0" y1="516.0" x2="308.0" y2="519.0" stroke="#999"/>
<text x="308.0" y="531.0" text-anchor="end" fill="#e8731a" transform="rotate(-50 308.0 531.0)">07-01</text>
<line x1="388.0" y1="516.0" x2="388.0" y2="519.0" stroke="#999"/>
<text x="388.0" y="531.0" text-anchor="end" fill="#e8731a" transform="rotate(-50 388.0 531.0)">07-02</text>
<line x1="468.0" y1="516.0" x2="468.0" y2="519.0" stroke="#999"/>
<text x="468.0" y="531.0" text-anchor="end" fill="#e8731a" transform="rotate(-50 468.0 531.0)">07-03</text>
<line x1="548.0" y1="516.0" x2="548.0" y2="519.0" stroke="#999"/>
<text x="548.0" y="531.0" text-anchor="end" fill="#e8731a" transform="rotate(-50 548.0 531.0)">07-06</text>
<line x1="628.0" y1="516.0" x2="628.0" y2="519.0" stroke="#999"/>
<text x="628.0" y="531.0" text-anchor="end" fill="#e8731a" transform="rotate(-50 628.0 531.0)">07-07</text>
<line x1="708.0" y1="516.0" x2="708.0" y2="519.0" stroke="#999"/>
<text x="708.0" y="531.0" text-anchor="end" fill="#e8731a" transform="rotate(-50 708.0 531.0)">07-08</text>
<line x1="788.0" y1="516.0" x2="788.0" y2="519.0" stroke="#999"/>
<text x="788.0" y="531.0" text-anchor="end" fill="#e8731a" transform="rotate(-50 788.0 531.0)">07-09</text>
<line x1="868.0" y1="516.0" x2="868.0" y2="519.0" stroke="#999"/>
<text x="868.0" y="531.0" text-anchor="end" fill="#e8731a" transform="rotate(-50 868.0 531.0)">07-10</text>
<line x1="948.0" y1="516.0" x2="948.0" y2="519.0" stroke="#999"/>
<text x="948.0" y="531.0" text-anchor="end" fill="#e8731a" transform="rotate(-50 948.0 531.0)">07-11</text>
<line x1="1028.0" y1="516.0" x2="1028.0" y2="519.0" stroke="#999"/>
<text x="1028.0" y="531.0" text-anchor="end" fill="#e8731a" transform="rotate(-50 1028.0 531.0)">07-14</text>
<line x1="1108.0" y1="516.0" x2="1108.0" y2="519.0" stroke="#999"/>
<text x="1108.0" y="531.0" text-anchor="end" fill="#e8731a" transform="rotate(-50 1108.0 531.0)">07-15</text>
<polygon points="68.0,513.9 148.0,514.0 228.0,514.0 308.0,513.9 388.0,514.0 468.0,514.0 548.0,513.9 628.0,514.1 708.0,514.1 788.0,514.1 868.0,514.0 948.0,514.1 1028.0,514.0 1108.0,514.1 1108.0,516.0 1028.0,516.0 948.0,516.0 868.0,516.0 788.0,516.0 708.0,516.0 628.0,516.0 548.0,516.0 468.0,516.0 388.0,516.0 308.0,516.0 228.0,516.0 148.0,516.0 68.0,516.0" fill="#c7e9c0" fill-opacity="0.9" stroke="#fff" stroke-width="0.4"><title>dynamic_dispatch — parseTranslationUnit</title></polygon>
<polygon points="68.0,484.4 148.0,484.8 228.0,484.8 308.0,483.9 388.0,484.6 468.0,484.8 548.0,484.4 628.0,486.0 708.0,485.7 788.0,485.7 868.0,485.1 948.0,485.6 1028.0,486.1 1108.0,488.3 1108.0,514.1 1028.0,514.0 948.0,514.1 868.0,514.0 788.0,514.1 708.0,514.1 628.0,514.1 548.0,513.9 468.0,514.0 388.0,514.0 308.0,513.9 228.0,514.0 148.0,514.0 68.0,513.9" fill="#41ab5d" fill-opacity="0.9" stroke="#fff" stroke-width="0.4"><title>dynamic_dispatch — SemanticChecking</title></polygon>
<polygon points="68.0,470.2 148.0,471.2 228.0,471.1 308.0,470.1 388.0,470.5 468.0,471.2 548.0,470.7 628.0,472.2 708.0,471.8 788.0,471.7 868.0,471.4 948.0,472.2 1028.0,472.6 1108.0,475.1 1108.0,488.3 1028.0,486.1 948.0,485.6 868.0,485.1 788.0,485.7 708.0,485.7 628.0,486.0 548.0,484.4 468.0,484.8 388.0,484.6 308.0,483.9 228.0,484.8 148.0,484.8 68.0,484.4" fill="#006d2c" fill-opacity="0.9" stroke="#fff" stroke-width="0.4"><title>dynamic_dispatch — generateIR</title></polygon>
<polygon points="68.0,470.0 148.0,470.7 228.0,470.6 308.0,469.6 388.0,469.9 468.0,470.7 548.0,470.2 628.0,471.7 708.0,471.5 788.0,471.2 868.0,470.9 948.0,471.7 1028.0,472.3 1108.0,474.8 1108.0,475.1 1028.0,472.6 948.0,472.2 868.0,471.4 788.0,471.7 708.0,471.8 628.0,472.2 548.0,470.7 468.0,471.2 388.0,470.5 308.0,470.1 228.0,471.1 148.0,471.2 68.0,470.2" fill="#74c476" fill-opacity="0.9" stroke="#fff" stroke-width="0.4"><title>dynamic_dispatch — frontEndExecute (self)</title></polygon>
<polygon points="68.0,260.5 148.0,257.3 228.0,256.9 308.0,260.0 388.0,258.3 468.0,260.2 548.0,261.9 628.0,431.7 708.0,431.6 788.0,431.4 868.0,432.7 948.0,432.8 1028.0,433.3 1108.0,438.6 1108.0,474.8 1028.0,472.3 948.0,471.7 868.0,470.9 788.0,471.2 708.0,471.5 628.0,471.7 548.0,470.2 468.0,470.7 388.0,469.9 308.0,469.6 228.0,470.6 148.0,470.7 68.0,470.0" fill="#6baed6" fill-opacity="0.9" stroke="#fff" stroke-width="0.4"><title>dynamic_dispatch — specializeModule</title></polygon>
<polygon points="68.0,192.4 148.0,189.2 228.0,189.5 308.0,192.9 388.0,221.1 468.0,223.6 548.0,224.7 628.0,394.8 708.0,395.2 788.0,394.8 868.0,401.7 948.0,401.5 1028.0,401.9 1108.0,411.5 1108.0,438.6 1028.0,433.3 948.0,432.8 868.0,432.7 788.0,431.4 708.0,431.6 628.0,431.7 548.0,261.9 468.0,260.2 388.0,258.3 308.0,260.0 228.0,256.9 148.0,257.3 68.0,260.5" fill="#2171b5" fill-opacity="0.9" stroke="#fff" stroke-width="0.4"><title>dynamic_dispatch — simplifyIR</title></polygon>
<polygon points="68.0,189.3 148.0,186.2 228.0,186.5 308.0,189.8 388.0,218.1 468.0,220.8 548.0,221.6 628.0,392.2 708.0,392.6 788.0,392.3 868.0,399.3 948.0,398.9 1028.0,399.4 1108.0,409.1 1108.0,411.5 1028.0,401.9 948.0,401.5 868.0,401.7 788.0,394.8 708.0,395.2 628.0,394.8 548.0,224.7 468.0,223.6 388.0,221.1 308.0,192.9 228.0,189.5 148.0,189.2 68.0,192.4" fill="#08306b" fill-opacity="0.9" stroke="#fff" stroke-width="0.4"><title>dynamic_dispatch — linkIR</title></polygon>
<polygon points="68.0,189.2 148.0,186.1 228.0,186.3 308.0,189.7 388.0,218.0 468.0,220.6 548.0,221.5 628.0,391.5 708.0,391.9 788.0,391.6 868.0,398.6 948.0,398.2 1028.0,398.6 1108.0,408.5 1108.0,409.1 1028.0,399.4 948.0,398.9 868.0,399.3 788.0,392.3 708.0,392.6 628.0,392.2 548.0,221.6 468.0,220.8 388.0,218.1 308.0,189.8 228.0,186.5 148.0,186.2 68.0,189.3" fill="#9e9ac8" fill-opacity="0.9" stroke="#fff" stroke-width="0.4"><title>dynamic_dispatch — unrollLoopsInModule</title></polygon>
<polygon points="68.0,186.0 148.0,182.8 228.0,183.1 308.0,186.5 388.0,214.8 468.0,217.4 548.0,218.3 628.0,388.3 708.0,388.7 788.0,388.3 868.0,396.0 948.0,395.6 1028.0,396.1 1108.0,405.9 1108.0,408.5 1028.0,398.6 948.0,398.2 868.0,398.6 788.0,391.6 708.0,391.9 628.0,391.5 548.0,221.5 468.0,220.6 388.0,218.0 308.0,189.7 228.0,186.3 148.0,186.1 68.0,189.2" fill="#807dba" fill-opacity="0.9" stroke="#fff" stroke-width="0.4"><title>dynamic_dispatch — legalizeResourceTypes</title></polygon>
<polygon points="68.0,181.1 148.0,177.9 228.0,178.1 308.0,181.5 388.0,209.9 468.0,212.5 548.0,213.3 628.0,383.4 708.0,383.8 788.0,383.4 868.0,392.1 948.0,391.5 1028.0,392.1 1108.0,402.2 1108.0,405.9 1028.0,396.1 948.0,395.6 868.0,396.0 788.0,388.3 708.0,388.7 628.0,388.3 548.0,218.3 468.0,217.4 388.0,214.8 308.0,186.5 228.0,183.1 148.0,182.8 68.0,186.0" fill="#6a51a3" fill-opacity="0.9" stroke="#fff" stroke-width="0.4"><title>dynamic_dispatch — legalizeExistentialTypeLayout</title></polygon>
<polygon points="68.0,180.6 148.0,177.4 228.0,177.6 308.0,181.0 388.0,209.4 468.0,212.0 548.0,212.9 628.0,382.4 708.0,382.8 788.0,382.4 868.0,391.1 948.0,390.4 1028.0,391.1 1108.0,401.2 1108.0,402.2 1028.0,392.1 948.0,391.5 868.0,392.1 788.0,383.4 708.0,383.8 628.0,383.4 548.0,213.3 468.0,212.5 388.0,209.9 308.0,181.5 228.0,178.1 148.0,177.9 68.0,181.1" fill="#bcbddc" fill-opacity="0.9" stroke="#fff" stroke-width="0.4"><title>dynamic_dispatch — performMandatoryEarlyInlining</title></polygon>
<polygon points="68.0,179.9 148.0,176.7 228.0,176.9 308.0,180.3 388.0,208.8 468.0,211.3 548.0,212.2 628.0,381.7 708.0,382.1 788.0,381.7 868.0,390.4 948.0,389.7 1028.0,390.4 1108.0,400.5 1108.0,401.2 1028.0,391.1 948.0,390.4 868.0,391.1 788.0,382.4 708.0,382.8 628.0,382.4 548.0,212.9 468.0,212.0 388.0,209.4 308.0,181.0 228.0,177.6 148.0,177.4 68.0,180.6" fill="#dadaeb" fill-opacity="0.9" stroke="#fff" stroke-width="0.4"><title>dynamic_dispatch — performForceInlining</title></polygon>
<polygon points="68.0,149.7 148.0,145.4 228.0,145.2 308.0,148.8 388.0,175.7 468.0,178.6 548.0,179.2 628.0,349.6 708.0,351.1 788.0,350.7 868.0,361.0 948.0,360.0 1028.0,360.5 1108.0,375.9 1108.0,400.5 1028.0,390.4 948.0,389.7 868.0,390.4 788.0,381.7 708.0,382.1 628.0,381.7 548.0,212.2 468.0,211.3 388.0,208.8 308.0,180.3 228.0,176.9 148.0,176.7 68.0,179.9" fill="#4a1486" fill-opacity="0.9" stroke="#fff" stroke-width="0.4"><title>dynamic_dispatch — linkAndOptimizeIR (self)</title></polygon>
<polygon points="68.0,114.3 148.0,109.9 228.0,109.4 308.0,113.1 388.0,142.9 468.0,145.7 548.0,146.8 628.0,316.6 708.0,318.2 788.0,318.3 868.0,328.0 948.0,327.1 1028.0,328.2 1108.0,344.4 1108.0,375.9 1028.0,360.5 948.0,360.0 868.0,361.0 788.0,350.7 708.0,351.1 628.0,349.6 548.0,179.2 468.0,178.6 388.0,175.7 308.0,148.8 228.0,145.2 148.0,145.4 68.0,149.7" fill="#e6550d" fill-opacity="0.9" stroke="#fff" stroke-width="0.4"><title>dynamic_dispatch — generateOutput (self)</title></polygon>
<polygon points="68.0,111.6 148.0,109.4 228.0,108.6 308.0,112.8 388.0,142.4 468.0,145.6 548.0,146.5 628.0,316.4 708.0,318.1 788.0,317.3 868.0,327.8 948.0,326.8 1028.0,327.5 1108.0,343.9 1108.0,344.4 1028.0,328.2 948.0,327.1 868.0,328.0 788.0,318.3 708.0,318.2 628.0,316.6 548.0,146.8 468.0,145.7 388.0,142.9 308.0,113.1 228.0,109.4 148.0,109.9 68.0,114.3" fill="#969696" fill-opacity="0.9" stroke="#fff" stroke-width="0.4"><title>dynamic_dispatch — compileInner (self)</title></polygon>
<text x="12" y="578" fill="#666" font-weight="600">phase buckets</text>
<rect x="12" y="586" width="12" height="12" fill="#c7e9c0"/>
<text x="28" y="596" fill="#222">parseTranslationUnit</text>
<rect x="289" y="586" width="12" height="12" fill="#41ab5d"/>
<text x="305" y="596" fill="#222">SemanticChecking</text>
<rect x="566" y="586" width="12" height="12" fill="#006d2c"/>
<text x="582" y="596" fill="#222">generateIR</text>
<rect x="843" y="586" width="12" height="12" fill="#74c476"/>
<text x="859" y="596" fill="#222">frontEndExecute (self)</text>
<rect x="12" y="604" width="12" height="12" fill="#6baed6"/>
<text x="28" y="614" fill="#222">specializeModule</text>
<rect x="289" y="604" width="12" height="12" fill="#2171b5"/>
<text x="305" y="614" fill="#222">simplifyIR</text>
<rect x="566" y="604" width="12" height="12" fill="#08306b"/>
<text x="582" y="614" fill="#222">linkIR</text>
<rect x="843" y="604" width="12" height="12" fill="#9e9ac8"/>
<text x="859" y="614" fill="#222">unrollLoopsInModule</text>
<rect x="12" y="622" width="12" height="12" fill="#807dba"/>
<text x="28" y="632" fill="#222">legalizeResourceTypes</text>
<rect x="289" y="622" width="12" height="12" fill="#6a51a3"/>
<text x="305" y="632" fill="#222">legalizeExistentialTypeLayout</text>
<rect x="566" y="622" width="12" height="12" fill="#bcbddc"/>
<text x="582" y="632" fill="#222">performMandatoryEarlyInlining</text>
<rect x="843" y="622" width="12" height="12" fill="#dadaeb"/>
<text x="859" y="632" fill="#222">performForceInlining</text>
<rect x="12" y="640" width="12" height="12" fill="#4a1486"/>
<text x="28" y="650" fill="#222">linkAndOptimizeIR (self)</text>
<rect x="289" y="640" width="12" height="12" fill="#fd8d3c"/>
<text x="305" y="650" fill="#222">emitEntryPointsSourceFromIR</text>
<rect x="566" y="640" width="12" height="12" fill="#e6550d"/>
<text x="582" y="650" fill="#222">generateOutput (self)</text>
<rect x="843" y="640" width="12" height="12" fill="#969696"/>
<text x="859" y="650" fill="#222">compileInner (self)</text>
</svg>