<svg xmlns="http://www.w3.org/2000/svg" xmlns:xlink="http://www.w3.org/1999/xlink" width="1132" height="680" viewBox="0 0 1132 680" preserveAspectRatio="xMidYMid meet" font-family="sans-serif" font-size="13">
<rect width="1132" height="680" fill="white"/>
<text x="12" y="30" font-size="20" font-weight="bold">dynamic_dispatch — Daily tip-of-tree (last 30 days) (median ms)</text>
<text x="68" y="60" font-size="15" font-weight="600" fill="#1a1a1a">dynamic_dispatch<tspan fill="#888" font-weight="400" text-decoration="none">  0.38×</tspan></text>
<line x1="68.0" y1="516.0" x2="1108.0" y2="516.0" stroke="#eee"/>
<text x="64.0" y="519.0" text-anchor="end" fill="#999">0.0</text>
<line x1="68.0" y1="296.0" x2="1108.0" y2="296.0" stroke="#eee"/>
<text x="64.0" y="299.0" text-anchor="end" fill="#999">177</text>
<line x1="68.0" y1="76.0" x2="1108.0" y2="76.0" stroke="#eee"/>
<text x="64.0" y="79.0" text-anchor="end" fill="#999">353</text>
<line x1="68.0" y1="76.0" x2="68.0" y2="516.0" stroke="#333"/>
<line x1="68.0" y1="516.0" x2="1108.0" y2="516.0" stroke="#333"/>
<line x1="68.0" y1="516.0" x2="68.0" y2="519.0" stroke="#999"/>
<text x="68.0" y="531.0" text-anchor="end" fill="#e8731a" transform="rotate(-50 68.0 531.0)">06-25</text>
<line x1="115.3" y1="516.0" x2="115.3" y2="519.0" stroke="#999"/>
<text x="115.3" y="531.0" text-anchor="end" fill="#e8731a" transform="rotate(-50 115.3 531.0)">06-26</text>
<line x1="162.5" y1="516.0" x2="162.5" y2="519.0" stroke="#999"/>
<text x="162.5" y="531.0" text-anchor="end" fill="#e8731a" transform="rotate(-50 162.5 531.0)">06-28</text>
<line x1="209.8" y1="516.0" x2="209.8" y2="519.0" stroke="#999"/>
<text x="209.8" y="531.0" text-anchor="end" fill="#e8731a" transform="rotate(-50 209.8 531.0)">07-01</text>
<line x1="257.1" y1="516.0" x2="257.1" y2="519.0" stroke="#999"/>
<text x="257.1" y="531.0" text-anchor="end" fill="#e8731a" transform="rotate(-50 257.1 531.0)">07-02</text>
<line x1="304.4" y1="516.0" x2="304.4" y2="519.0" stroke="#999"/>
<text x="304.4" y="531.0" text-anchor="end" fill="#e8731a" transform="rotate(-50 304.4 531.0)">07-03</text>
<line x1="351.6" y1="516.0" x2="351.6" y2="519.0" stroke="#999"/>
<text x="351.6" y="531.0" text-anchor="end" fill="#e8731a" transform="rotate(-50 351.6 531.0)">07-06</text>
<line x1="398.9" y1="516.0" x2="398.9" y2="519.0" stroke="#999"/>
<text x="398.9" y="531.0" text-anchor="end" fill="#e8731a" transform="rotate(-50 398.9 531.0)">07-07</text>
<line x1="446.2" y1="516.0" x2="446.2" y2="519.0" stroke="#999"/>
<text x="446.2" y="531.0" text-anchor="end" fill="#e8731a" transform="rotate(-50 446.2 531.0)">07-08</text>
<line x1="493.5" y1="516.0" x2="493.5" y2="519.0" stroke="#999"/>
<text x="493.5" y="531.0" text-anchor="end" fill="#e8731a" transform="rotate(-50 493.5 531.0)">07-09</text>
<line x1="540.7" y1="516.0" x2="540.7" y2="519.0" stroke="#999"/>
<text x="540.7" y="531.0" text-anchor="end" fill="#e8731a" transform="rotate(-50 540.7 531.0)">07-10</text>
<line x1="588.0" y1="516.0" x2="588.0" y2="519.0" stroke="#999"/>
<text x="588.0" y="531.0" text-anchor="end" fill="#e8731a" transform="rotate(-50 588.0 531.0)">07-11</text>
<line x1="635.3" y1="516.0" x2="635.3" y2="519.0" stroke="#999"/>
<text x="635.3" y="531.0" text-anchor="end" fill="#e8731a" transform="rotate(-50 635.3 531.0)">07-14</text>
<line x1="682.5" y1="516.0" x2="682.5" y2="519.0" stroke="#999"/>
<text x="682.5" y="531.0" text-anchor="end" fill="#e8731a" transform="rotate(-50 682.5 531.0)">07-15</text>
<line x1="729.8" y1="516.0" x2="729.8" y2="519.0" stroke="#999"/>
<text x="729.8" y="531.0" text-anchor="end" fill="#e8731a" transform="rotate(-50 729.8 531.0)">07-15</text>
<line x1="777.1" y1="516.0" x2="777.1" y2="519.0" stroke="#999"/>
<text x="777.1" y="531.0" text-anchor="end" fill="#e8731a" transform="rotate(-50 777.1 531.0)">07-16</text>
<line x1="824.4" y1="516.0" x2="824.4" y2="519.0" stroke="#999"/>
<text x="824.4" y="531.0" text-anchor="end" fill="#e8731a" transform="rotate(-50 824.4 531.0)">07-17</text>
<line x1="871.6" y1="516.0" x2="871.6" y2="519.0" stroke="#999"/>
<text x="871.6" y="531.0" text-anchor="end" fill="#e8731a" transform="rotate(-50 871.6 531.0)">07-18</text>
<line x1="918.9" y1="516.0" x2="918.9" y2="519.0" stroke="#999"/>
<text x="918.9" y="531.0" text-anchor="end" fill="#e8731a" transform="rotate(-50 918.9 531.0)">07-19</text>
<line x1="966.2" y1="516.0" x2="966.2" y2="519.0" stroke="#999"/>
<text x="966.2" y="531.0" text-anchor="end" fill="#e8731a" transform="rotate(-50 966.2 531.0)">07-20</text>
<line x1="1013.5" y1="516.0" x2="1013.5" y2="519.0" stroke="#999"/>
<text x="1013.5" y="531.0" text-anchor="end" fill="#e8731a" transform="rotate(-50 1013.5 531.0)">07-21</text>
<line x1="1060.7" y1="516.0" x2="1060.7" y2="519.0" stroke="#999"/>
<text x="1060.7" y="531.0" text-anchor="end" fill="#e8731a" transform="rotate(-50 1060.7 531.0)">07-22</text>
<line x1="1108.0" y1="516.0" x2="1108.0" y2="519.0" stroke="#999"/>
<text x="1108.0" y="531.0" text-anchor="end" fill="#e8731a" transform="rotate(-50 1108.0 531.0)">07-23</text>
<polygon points="68.0,513.9 115.3,514.0 162.5,514.0 209.8,513.9 257.1,514.0 304.4,514.0 351.6,513.9 398.9,514.1 446.2,514.1 493.5,514.1 540.7,514.0 588.0,514.1 635.3,514.0 682.5,514.1 729.8,514.2 777.1,514.2 824.4,514.1 871.6,514.3 918.9,514.2 966.2,514.3 1013.5,514.3 1060.7,514.2 1108.0,514.3 1108.0,516.0 1060.7,516.0 1013.5,516.0 966.2,516.0 918.9,516.0 871.6,516.0 824.4,516.0 777.1,516.0 729.8,516.0 682.5,516.0 635.3,516.0 588.0,516.0 540.7,516.0 493.5,516.0 446.2,516.0 398.9,516.0 351.6,516.0 304.4,516.0 257.1,516.0 209.8,516.0 162.5,516.0 115.3,516.0 68.0,516.0" fill="#c7e9c0" fill-opacity="0.9" stroke="#fff" stroke-width="0.4"><title>dynamic_dispatch — parseTranslationUnit</title></polygon>
<polygon points="68.0,484.4 115.3,484.8 162.5,484.8 209.8,483.9 257.1,484.6 304.4,484.8 351.6,484.4 398.9,486.0 446.2,485.7 493.5,485.7 540.7,485.1 588.0,485.6 635.3,486.1 682.5,488.3 729.8,488.2 777.1,485.9 824.4,486.0 871.6,492.2 918.9,492.0 966.2,492.2 1013.5,491.9 1060.7,492.0 1108.0,492.5 1108.0,514.3 1060.7,514.2 1013.5,514.3 966.2,514.3 918.9,514.2 871.6,514.3 824.4,514.1 777.1,514.2 729.8,514.2 682.5,514.1 635.3,514.0 588.0,514.1 540.7,514.0 493.5,514.1 446.2,514.1 398.9,514.1 351.6,513.9 304.4,514.0 257.1,514.0 209.8,513.9 162.5,514.0 115.3,514.0 68.0,513.9" fill="#41ab5d" fill-opacity="0.9" stroke="#fff" stroke-width="0.4"><title>dynamic_dispatch — SemanticChecking</title></polygon>
<polygon points="68.0,470.2 115.3,471.2 162.5,471.1 209.8,470.1 257.1,470.5 304.4,471.2 351.6,470.7 398.9,472.2 446.2,471.8 493.5,471.7 540.7,471.4 588.0,472.2 635.3,472.6 682.5,475.1 729.8,475.2 777.1,472.9 824.4,472.8 871.6,480.6 918.9,480.3 966.2,480.8 1013.5,480.1 1060.7,480.2 1108.0,481.4 1108.0,492.5 1060.7,492.0 1013.5,491.9 966.2,492.2 918.9,492.0 871.6,492.2 824.4,486.0 777.1,485.9 729.8,488.2 682.5,488.3 635.3,486.1 588.0,485.6 540.7,485.1 493.5,485.7 446.2,485.7 398.9,486.0 351.6,484.4 304.4,484.8 257.1,484.6 209.8,483.9 162.5,484.8 115.3,484.8 68.0,484.4" fill="#006d2c" fill-opacity="0.9" stroke="#fff" stroke-width="0.4"><title>dynamic_dispatch — generateIR</title></polygon>
<polygon points="68.0,470.0 115.3,470.7 162.5,470.6 209.8,469.6 257.1,469.9 304.4,470.7 351.6,470.2 398.9,471.7 446.2,471.5 493.5,471.2 540.7,470.9 588.0,471.7 635.3,472.3 682.5,474.8 729.8,474.7 777.1,472.5 824.4,472.5 871.6,480.1 918.9,480.0 966.2,480.3 1013.5,479.8 1060.7,480.0 1108.0,481.0 1108.0,481.4 1060.7,480.2 1013.5,480.1 966.2,480.8 918.9,480.3 871.6,480.6 824.4,472.8 777.1,472.9 729.8,475.2 682.5,475.1 635.3,472.6 588.0,472.2 540.7,471.4 493.5,471.7 446.2,471.8 398.9,472.2 351.6,470.7 304.4,471.2 257.1,470.5 209.8,470.1 162.5,471.1 115.3,471.2 68.0,470.2" fill="#74c476" fill-opacity="0.9" stroke="#fff" stroke-width="0.4"><title>dynamic_dispatch — frontEndExecute (self)</title></polygon>
<polygon points="68.0,260.5 115.3,257.3 162.5,256.9 209.8,260.0 257.1,258.3 304.4,260.2 351.6,261.9 398.9,431.7 446.2,431.6 493.5,431.4 540.7,432.7 588.0,432.8 635.3,433.3 682.5,438.6 729.8,439.1 777.1,436.4 824.4,436.2 871.6,447.4 918.9,447.8 966.2,447.9 1013.5,447.2 1060.7,447.4 1108.0,448.6 1108.0,481.0 1060.7,480.0 1013.5,479.8 966.2,480.3 918.9,480.0 871.6,480.1 824.4,472.5 777.1,472.5 729.8,474.7 682.5,474.8 635.3,472.3 588.0,471.7 540.7,470.9 493.5,471.2 446.2,471.5 398.9,471.7 351.6,470.2 304.4,470.7 257.1,469.9 209.8,469.6 162.5,470.6 115.3,470.7 68.0,470.0" fill="#6baed6" fill-opacity="0.9" stroke="#fff" stroke-width="0.4"><title>dynamic_dispatch — specializeModule</title></polygon>
<polygon points="68.0,192.4 115.3,189.2 162.5,189.5 209.8,192.9 257.1,221.1 304.4,223.6 351.6,224.7 398.9,394.8 446.2,395.2 493.5,394.8 540.7,401.7 588.0,401.5 635.3,401.9 682.5,411.5 729.8,412.1 777.1,409.8 824.4,409.4 871.6,423.7 918.9,424.1 966.2,424.6 1013.5,423.7 1060.7,423.2 1108.0,425.4 1108.0,448.6 1060.7,447.4 1013.5,447.2 966.2,447.9 918.9,447.8 871.6,447.4 824.4,436.2 777.1,436.4 729.8,439.1 682.5,438.6 635.3,433.3 588.0,432.8 540.7,432.7 493.5,431.4 446.2,431.6 398.9,431.7 351.6,261.9 304.4,260.2 257.1,258.3 209.8,260.0 162.5,256.9 115.3,257.3 68.0,260.5" fill="#2171b5" fill-opacity="0.9" stroke="#fff" stroke-width="0.4"><title>dynamic_dispatch — simplifyIR</title></polygon>
<polygon points="68.0,189.3 115.3,186.2 162.5,186.5 209.8,189.8 257.1,218.1 304.4,220.8 351.6,221.6 398.9,392.2 446.2,392.6 493.5,392.3 540.7,399.3 588.0,398.9 635.3,399.4 682.5,409.1 729.8,409.9 777.1,407.7 824.4,407.3 871.6,421.7 918.9,422.2 966.2,422.7 1013.5,421.8 1060.7,421.3 1108.0,423.5 1108.0,425.4 1060.7,423.2 1013.5,423.7 966.2,424.6 918.9,424.1 871.6,423.7 824.4,409.4 777.1,409.8 729.8,412.1 682.5,411.5 635.3,401.9 588.0,401.5 540.7,401.7 493.5,394.8 446.2,395.2 398.9,394.8 351.6,224.7 304.4,223.6 257.1,221.1 209.8,192.9 162.5,189.5 115.3,189.2 68.0,192.4" fill="#08306b" fill-opacity="0.9" stroke="#fff" stroke-width="0.4"><title>dynamic_dispatch — linkIR</title></polygon>
<polygon points="68.0,189.2 115.3,186.1 162.5,186.3 209.8,189.7 257.1,218.0 304.4,220.6 351.6,221.5 398.9,391.5 446.2,391.9 493.5,391.6 540.7,398.6 588.0,398.2 635.3,398.6 682.5,408.5 729.8,409.3 777.1,407.1 824.4,406.6 871.6,421.2 918.9,421.7 966.2,422.2 1013.5,421.3 1060.7,420.8 1108.0,423.0 1108.0,423.5 1060.7,421.3 1013.5,421.8 966.2,422.7 918.9,422.2 871.6,421.7 824.4,407.3 777.1,407.7 729.8,409.9 682.5,409.1 635.3,399.4 588.0,398.9 540.7,399.3 493.5,392.3 446.2,392.6 398.9,392.2 351.6,221.6 304.4,220.8 257.1,218.1 209.8,189.8 162.5,186.5 115.3,186.2 68.0,189.3" fill="#9e9ac8" fill-opacity="0.9" stroke="#fff" stroke-width="0.4"><title>dynamic_dispatch — unrollLoopsInModule</title></polygon>
<polygon points="68.0,186.0 115.3,182.8 162.5,183.1 209.8,186.5 257.1,214.8 304.4,217.4 351.6,218.3 398.9,388.3 446.2,388.7 493.5,388.3 540.7,396.0 588.0,395.6 635.3,396.1 682.5,405.9 729.8,406.8 777.1,404.5 824.4,404.0 871.6,418.7 918.9,419.1 966.2,419.7 1013.5,418.7 1060.7,418.2 1108.0,420.5 1108.0,423.0 1060.7,420.8 1013.5,421.3 966.2,422.2 918.9,421.7 871.6,421.2 824.4,406.6 777.1,407.1 729.8,409.3 682.5,408.5 635.3,398.6 588.0,398.2 540.7,398.6 493.5,391.6 446.2,391.9 398.9,391.5 351.6,221.5 304.4,220.6 257.1,218.0 209.8,189.7 162.5,186.3 115.3,186.1 68.0,189.2" fill="#807dba" fill-opacity="0.9" stroke="#fff" stroke-width="0.4"><title>dynamic_dispatch — legalizeResourceTypes</title></polygon>
<polygon points="68.0,181.1 115.3,177.9 162.5,178.1 209.8,181.5 257.1,209.9 304.4,212.5 351.6,213.3 398.9,383.4 446.2,383.8 493.5,383.4 540.7,392.1 588.0,391.5 635.3,392.1 682.5,402.2 729.8,403.1 777.1,400.7 824.4,400.3 871.6,415.3 918.9,415.6 966.2,416.3 1013.5,415.3 1060.7,414.8 1108.0,417.2 1108.0,420.5 1060.7,418.2 1013.5,418.7 966.2,419.7 918.9,419.1 871.6,418.7 824.4,404.0 777.1,404.5 729.8,406.8 682.5,405.9 635.3,396.1 588.0,395.6 540.7,396.0 493.5,388.3 446.2,388.7 398.9,388.3 351.6,218.3 304.4,217.4 257.1,214.8 209.8,186.5 162.5,183.1 115.3,182.8 68.0,186.0" fill="#6a51a3" fill-opacity="0.9" stroke="#fff" stroke-width="0.4"><title>dynamic_dispatch — legalizeExistentialTypeLayout</title></polygon>
<polygon points="68.0,180.6 115.3,177.4 162.5,177.6 209.8,181.0 257.1,209.4 304.4,212.0 351.6,212.9 398.9,382.4 446.2,382.8 493.5,382.4 540.7,391.1 588.0,390.4 635.3,391.1 682.5,401.2 729.8,402.0 777.1,399.6 824.4,399.2 871.6,414.4 918.9,414.8 966.2,415.4 1013.5,414.5 1060.7,413.9 1108.0,416.3 1108.0,417.2 1060.7,414.8 1013.5,415.3 966.2,416.3 918.9,415.6 871.6,415.3 824.4,400.3 777.1,400.7 729.8,403.1 682.5,402.2 635.3,392.1 588.0,391.5 540.7,392.1 493.5,383.4 446.2,383.8 398.9,383.4 351.6,213.3 304.4,212.5 257.1,209.9 209.8,181.5 162.5,178.1 115.3,177.9 68.0,181.1" fill="#bcbddc" fill-opacity="0.9" stroke="#fff" stroke-width="0.4"><title>dynamic_dispatch — performMandatoryEarlyInlining</title></polygon>
<polygon points="68.0,179.9 115.3,176.7 162.5,176.9 209.8,180.3 257.1,208.8 304.4,211.3 351.6,212.2 398.9,381.7 446.2,382.1 493.5,381.7 540.7,390.4 588.0,389.7 635.3,390.4 682.5,400.5 729.8,401.3 777.1,398.9 824.4,398.5 871.6,413.9 918.9,414.3 966.2,414.9 1013.5,413.9 1060.7,413.4 1108.0,415.8 1108.0,416.3 1060.7,413.9 1013.5,414.5 966.2,415.4 918.9,414.8 871.6,414.4 824.4,399.2 777.1,399.6 729.8,402.0 682.5,401.2 635.3,391.1 588.0,390.4 540.7,391.1 493.5,382.4 446.2,382.8 398.9,382.4 351.6,212.9 304.4,212.0 257.1,209.4 209.8,181.0 162.5,177.6 115.3,177.4 68.0,180.6" fill="#dadaeb" fill-opacity="0.9" stroke="#fff" stroke-width="0.4"><title>dynamic_dispatch — performForceInlining</title></polygon>
<polygon points="68.0,149.7 115.3,145.4 162.5,145.2 209.8,148.8 257.1,175.7 304.4,178.6 351.6,179.2 398.9,349.6 446.2,351.1 493.5,350.7 540.7,361.0 588.0,360.0 635.3,360.5 682.5,375.9 729.8,377.0 777.1,374.6 824.4,373.9 871.6,391.8 918.9,392.6 966.2,392.9 1013.5,392.1 1060.7,391.3 1108.0,393.6 1108.0,415.8 1060.7,413.4 1013.5,413.9 966.2,414.9 918.9,414.3 871.6,413.9 824.4,398.5 777.1,398.9 729.8,401.3 682.5,400.5 635.3,390.4 588.0,389.7 540.7,390.4 493.5,381.7 446.2,382.1 398.9,381.7 351.6,212.2 304.4,211.3 257.1,208.8 209.8,180.3 162.5,176.9 115.3,176.7 68.0,179.9" fill="#4a1486" fill-opacity="0.9" stroke="#fff" stroke-width="0.4"><title>dynamic_dispatch — linkAndOptimizeIR (self)</title></polygon>
<polygon points="68.0,114.3 115.3,109.9 162.5,109.4 209.8,113.1 257.1,142.9 304.4,145.7 351.6,146.8 398.9,316.6 446.2,318.2 493.5,318.3 540.7,328.0 588.0,327.1 635.3,328.2 682.5,344.4 729.8,345.7 777.1,342.7 824.4,341.9 871.6,361.0 918.9,361.8 966.2,361.7 1013.5,361.7 1060.7,359.7 1108.0,363.4 1108.0,393.6 1060.7,391.3 1013.5,392.1 966.2,392.9 918.9,392.6 871.6,391.8 824.4,373.9 777.1,374.6 729.8,377.0 682.5,375.9 635.3,360.5 588.0,360.0 540.7,361.0 493.5,350.7 446.2,351.1 398.9,349.6 351.6,179.2 304.4,178.6 257.1,175.7 209.8,148.8 162.5,145.2 115.3,145.4 68.0,149.7" fill="#e6550d" fill-opacity="0.9" stroke="#fff" stroke-width="0.4"><title>dynamic_dispatch — generateOutput (self)</title></polygon>
<polygon points="68.0,111.6 115.3,109.4 162.5,108.6 209.8,112.8 257.1,142.4 304.4,145.6 351.6,146.5 398.9,316.4 446.2,318.1 493.5,317.3 540.7,327.8 588.0,326.8 635.3,327.5 682.5,343.9 729.8,345.6 777.1,342.6 824.4,341.2 871.6,360.9 918.9,361.8 966.2,361.6 1013.5,361.7 1060.7,359.1 1108.0,362.9 1108.0,363.4 1060.7,359.7 1013.5,361.7 966.2,361.7 918.9,361.8 871.6,361.0 824.4,341.9 777.1,342.7 729.8,345.7 682.5,344.4 635.3,328.2 588.0,327.1 540.7,328.0 493.5,318.3 446.2,318.2 398.9,316.6 351.6,146.8 304.4,145.7 257.1,142.9 209.8,113.1 162.5,109.4 115.3,109.9 68.0,114.3" fill="#969696" fill-opacity="0.9" stroke="#fff" stroke-width="0.4"><title>dynamic_dispatch — compileInner (self)</title></polygon>
<text x="12" y="578" fill="#666" font-weight="600">phase buckets</text>
<rect x="12" y="586" width="12" height="12" fill="#c7e9c0"/>
<text x="28" y="596" fill="#222">parseTranslationUnit</text>
<rect x="289" y="586" width="12" height="12" fill="#41ab5d"/>
<text x="305" y="596" fill="#222">SemanticChecking</text>
<rect x="566" y="586" width="12" height="12" fill="#006d2c"/>
<text x="582" y="596" fill="#222">generateIR</text>
<rect x="843" y="586" width="12" height="12" fill="#74c476"/>
<text x="859" y="596" fill="#222">frontEndExecute (self)</text>
<rect x="12" y="604" width="12" height="12" fill="#6baed6"/>
<text x="28" y="614" fill="#222">specializeModule</text>
<rect x="289" y="604" width="12" height="12" fill="#2171b5"/>
<text x="305" y="614" fill="#222">simplifyIR</text>
<rect x="566" y="604" width="12" height="12" fill="#08306b"/>
<text x="582" y="614" fill="#222">linkIR</text>
<rect x="843" y="604" width="12" height="12" fill="#9e9ac8"/>
<text x="859" y="614" fill="#222">unrollLoopsInModule</text>
<rect x="12" y="622" width="12" height="12" fill="#807dba"/>
<text x="28" y="632" fill="#222">legalizeResourceTypes</text>
<rect x="289" y="622" width="12" height="12" fill="#6a51a3"/>
<text x="305" y="632" fill="#222">legalizeExistentialTypeLayout</text>
<rect x="566" y="622" width="12" height="12" fill="#bcbddc"/>
<text x="582" y="632" fill="#222">performMandatoryEarlyInlining</text>
<rect x="843" y="622" width="12" height="12" fill="#dadaeb"/>
<text x="859" y="632" fill="#222">performForceInlining</text>
<rect x="12" y="640" width="12" height="12" fill="#4a1486"/>
<text x="28" y="650" fill="#222">linkAndOptimizeIR (self)</text>
<rect x="289" y="640" width="12" height="12" fill="#fd8d3c"/>
<text x="305" y="650" fill="#222">emitEntryPointsSourceFromIR</text>
<rect x="566" y="640" width="12" height="12" fill="#e6550d"/>
<text x="582" y="650" fill="#222">generateOutput (self)</text>
<rect x="843" y="640" width="12" height="12" fill="#969696"/>
<text x="859" y="650" fill="#222">compileInner (self)</text>
</svg>