<svg xmlns="http://www.w3.org/2000/svg" xmlns:xlink="http://www.w3.org/1999/xlink" width="1132" height="680" viewBox="0 0 1132 680" preserveAspectRatio="xMidYMid meet" font-family="sans-serif" font-size="13">
<rect width="1132" height="680" fill="white"/>
<text x="12" y="30" font-size="20" font-weight="bold">dynamic_dispatch — full phase breakdown across releases (median ms)</text>
<text x="68" y="60" font-size="15" font-weight="600" fill="#1a1a1a">dynamic_dispatch<tspan fill="#888" font-weight="400" text-decoration="none">  0.77×</tspan></text>
<line x1="68.0" y1="516.0" x2="1108.0" y2="516.0" stroke="#eee"/>
<text x="64.0" y="519.0" text-anchor="end" fill="#999">0.0</text>
<line x1="68.0" y1="296.0" x2="1108.0" y2="296.0" stroke="#eee"/>
<text x="64.0" y="299.0" text-anchor="end" fill="#999">244</text>
<line x1="68.0" y1="76.0" x2="1108.0" y2="76.0" stroke="#eee"/>
<text x="64.0" y="79.0" text-anchor="end" fill="#999">487</text>
<line x1="68.0" y1="76.0" x2="68.0" y2="516.0" stroke="#333"/>
<line x1="68.0" y1="516.0" x2="1108.0" y2="516.0" stroke="#333"/>
<line x1="725.6" y1="76.0" x2="725.6" y2="516.0" stroke="#e8731a" stroke-width="1.2" stroke-dasharray="4 3"/>
<text x="728.6" y="87.0" fill="#e8731a" font-size="11">daily →</text>
<line x1="68.0" y1="516.0" x2="68.0" y2="519.0" stroke="#999"/>
<text x="68.0" y="531.0" text-anchor="end" fill="#666" transform="rotate(-50 68.0 531.0)">25.14</text>
<line x1="98.6" y1="516.0" x2="98.6" y2="519.0" stroke="#999"/>
<text x="98.6" y="531.0" text-anchor="end" fill="#666" transform="rotate(-50 98.6 531.0)">25.15</text>
<line x1="129.2" y1="516.0" x2="129.2" y2="519.0" stroke="#999"/>
<text x="129.2" y="531.0" text-anchor="end" fill="#666" transform="rotate(-50 129.2 531.0)">25.16</text>
<line x1="159.8" y1="516.0" x2="159.8" y2="519.0" stroke="#999"/>
<text x="159.8" y="531.0" text-anchor="end" fill="#666" transform="rotate(-50 159.8 531.0)">25.17</text>
<line x1="190.4" y1="516.0" x2="190.4" y2="519.0" stroke="#999"/>
<text x="190.4" y="531.0" text-anchor="end" fill="#666" transform="rotate(-50 190.4 531.0)">25.18</text>
<line x1="220.9" y1="516.0" x2="220.9" y2="519.0" stroke="#999"/>
<text x="220.9" y="531.0" text-anchor="end" fill="#666" transform="rotate(-50 220.9 531.0)">25.19</text>
<line x1="251.5" y1="516.0" x2="251.5" y2="519.0" stroke="#999"/>
<text x="251.5" y="531.0" text-anchor="end" fill="#666" transform="rotate(-50 251.5 531.0)">25.20</text>
<line x1="282.1" y1="516.0" x2="282.1" y2="519.0" stroke="#999"/>
<text x="282.1" y="531.0" text-anchor="end" fill="#666" transform="rotate(-50 282.1 531.0)">25.21</text>
<line x1="312.7" y1="516.0" x2="312.7" y2="519.0" stroke="#999"/>
<text x="312.7" y="531.0" text-anchor="end" fill="#666" transform="rotate(-50 312.7 531.0)">25.22</text>
<line x1="343.3" y1="516.0" x2="343.3" y2="519.0" stroke="#999"/>
<text x="343.3" y="531.0" text-anchor="end" fill="#666" transform="rotate(-50 343.3 531.0)">25.23</text>
<line x1="373.9" y1="516.0" x2="373.9" y2="519.0" stroke="#999"/>
<text x="373.9" y="531.0" text-anchor="end" fill="#666" transform="rotate(-50 373.9 531.0)">25.24</text>
<line x1="404.5" y1="516.0" x2="404.5" y2="519.0" stroke="#999"/>
<text x="404.5" y="531.0" text-anchor="end" fill="#666" transform="rotate(-50 404.5 531.0)">26.1</text>
<line x1="435.1" y1="516.0" x2="435.1" y2="519.0" stroke="#999"/>
<text x="435.1" y="531.0" text-anchor="end" fill="#666" transform="rotate(-50 435.1 531.0)">26.2</text>
<line x1="465.6" y1="516.0" x2="465.6" y2="519.0" stroke="#999"/>
<text x="465.6" y="531.0" text-anchor="end" fill="#666" transform="rotate(-50 465.6 531.0)">26.3</text>
<line x1="496.2" y1="516.0" x2="496.2" y2="519.0" stroke="#999"/>
<text x="496.2" y="531.0" text-anchor="end" fill="#666" transform="rotate(-50 496.2 531.0)">26.4</text>
<line x1="526.8" y1="516.0" x2="526.8" y2="519.0" stroke="#999"/>
<text x="526.8" y="531.0" text-anchor="end" fill="#666" transform="rotate(-50 526.8 531.0)">26.5</text>
<line x1="557.4" y1="516.0" x2="557.4" y2="519.0" stroke="#999"/>
<text x="557.4" y="531.0" text-anchor="end" fill="#666" transform="rotate(-50 557.4 531.0)">26.7</text>
<line x1="588.0" y1="516.0" x2="588.0" y2="519.0" stroke="#999"/>
<text x="588.0" y="531.0" text-anchor="end" fill="#666" transform="rotate(-50 588.0 531.0)">26.8</text>
<line x1="618.6" y1="516.0" x2="618.6" y2="519.0" stroke="#999"/>
<text x="618.6" y="531.0" text-anchor="end" fill="#666" transform="rotate(-50 618.6 531.0)">26.9</text>
<line x1="649.2" y1="516.0" x2="649.2" y2="519.0" stroke="#999"/>
<text x="649.2" y="531.0" text-anchor="end" fill="#666" transform="rotate(-50 649.2 531.0)">26.10</text>
<line x1="679.8" y1="516.0" x2="679.8" y2="519.0" stroke="#999"/>
<text x="679.8" y="531.0" text-anchor="end" fill="#666" transform="rotate(-50 679.8 531.0)">26.11</text>
<line x1="710.4" y1="516.0" x2="710.4" y2="519.0" stroke="#999"/>
<text x="710.4" y="531.0" text-anchor="end" fill="#666" transform="rotate(-50 710.4 531.0)">26.12</text>
<line x1="740.9" y1="516.0" x2="740.9" y2="519.0" stroke="#999"/>
<text x="740.9" y="531.0" text-anchor="end" fill="#e8731a" transform="rotate(-50 740.9 531.0)">06-25</text>
<line x1="771.5" y1="516.0" x2="771.5" y2="519.0" stroke="#999"/>
<text x="771.5" y="531.0" text-anchor="end" fill="#e8731a" transform="rotate(-50 771.5 531.0)">06-26</text>
<line x1="802.1" y1="516.0" x2="802.1" y2="519.0" stroke="#999"/>
<text x="802.1" y="531.0" text-anchor="end" fill="#e8731a" transform="rotate(-50 802.1 531.0)">06-28</text>
<line x1="832.7" y1="516.0" x2="832.7" y2="519.0" stroke="#999"/>
<text x="832.7" y="531.0" text-anchor="end" fill="#e8731a" transform="rotate(-50 832.7 531.0)">07-01</text>
<line x1="863.3" y1="516.0" x2="863.3" y2="519.0" stroke="#999"/>
<text x="863.3" y="531.0" text-anchor="end" fill="#e8731a" transform="rotate(-50 863.3 531.0)">07-02</text>
<line x1="893.9" y1="516.0" x2="893.9" y2="519.0" stroke="#999"/>
<text x="893.9" y="531.0" text-anchor="end" fill="#e8731a" transform="rotate(-50 893.9 531.0)">07-03</text>
<line x1="924.5" y1="516.0" x2="924.5" y2="519.0" stroke="#999"/>
<text x="924.5" y="531.0" text-anchor="end" fill="#e8731a" transform="rotate(-50 924.5 531.0)">07-06</text>
<line x1="955.1" y1="516.0" x2="955.1" y2="519.0" stroke="#999"/>
<text x="955.1" y="531.0" text-anchor="end" fill="#e8731a" transform="rotate(-50 955.1 531.0)">07-07</text>
<line x1="985.6" y1="516.0" x2="985.6" y2="519.0" stroke="#999"/>
<text x="985.6" y="531.0" text-anchor="end" fill="#e8731a" transform="rotate(-50 985.6 531.0)">07-07</text>
<line x1="1016.2" y1="516.0" x2="1016.2" y2="519.0" stroke="#999"/>
<text x="1016.2" y="531.0" text-anchor="end" fill="#e8731a" transform="rotate(-50 1016.2 531.0)">07-09</text>
<line x1="1046.8" y1="516.0" x2="1046.8" y2="519.0" stroke="#999"/>
<text x="1046.8" y="531.0" text-anchor="end" fill="#e8731a" transform="rotate(-50 1046.8 531.0)">07-10</text>
<line x1="1077.4" y1="516.0" x2="1077.4" y2="519.0" stroke="#999"/>
<text x="1077.4" y="531.0" text-anchor="end" fill="#e8731a" transform="rotate(-50 1077.4 531.0)">07-11</text>
<line x1="1108.0" y1="516.0" x2="1108.0" y2="519.0" stroke="#999"/>
<text x="1108.0" y="531.0" text-anchor="end" fill="#e8731a" transform="rotate(-50 1108.0 531.0)">07-11</text>
<polygon points="68.0,514.7 98.6,514.8 129.2,514.8 159.8,514.8 190.4,514.7 220.9,514.7 251.5,514.8 282.1,514.6 312.7,514.8 343.3,514.8 373.9,514.7 404.5,514.8 435.1,514.8 465.6,514.7 496.2,514.7 526.8,514.7 557.4,514.6 588.0,514.7 618.6,514.7 649.2,514.6 679.8,514.6 710.4,514.7 740.9,514.5 771.5,514.6 802.1,514.5 832.7,514.6 863.3,514.6 893.9,514.5 924.5,514.5 955.1,514.6 985.6,514.6 1016.2,514.6 1046.8,514.6 1077.4,514.6 1108.0,514.6 1108.0,516.0 1077.4,516.0 1046.8,516.0 1016.2,516.0 985.6,516.0 955.1,516.0 924.5,516.0 893.9,516.0 863.3,516.0 832.7,516.0 802.1,516.0 771.5,516.0 740.9,516.0 710.4,516.0 679.8,516.0 649.2,516.0 618.6,516.0 588.0,516.0 557.4,516.0 526.8,516.0 496.2,516.0 465.6,516.0 435.1,516.0 404.5,516.0 373.9,516.0 343.3,516.0 312.7,516.0 282.1,516.0 251.5,516.0 220.9,516.0 190.4,516.0 159.8,516.0 129.2,516.0 98.6,516.0 68.0,516.0" fill="#c7e9c0" fill-opacity="0.9" stroke="#fff" stroke-width="0.4"><title>dynamic_dispatch — parseTranslationUnit</title></polygon>
<polygon points="68.0,492.3 98.6,484.0 129.2,482.7 159.8,480.9 190.4,480.3 220.9,479.9 251.5,477.8 282.1,475.9 312.7,484.0 343.3,483.9 373.9,483.8 404.5,483.6 435.1,482.8 465.6,481.8 496.2,482.2 526.8,482.0 557.4,472.8 588.0,474.3 618.6,472.7 649.2,472.0 679.8,496.4 710.4,494.6 740.9,493.6 771.5,493.7 802.1,493.2 832.7,493.2 863.3,492.8 893.9,493.4 924.5,493.1 955.1,493.8 985.6,494.2 1016.2,490.9 1046.8,493.7 1077.4,494.1 1108.0,494.0 1108.0,514.6 1077.4,514.6 1046.8,514.6 1016.2,514.6 985.6,514.6 955.1,514.6 924.5,514.5 893.9,514.5 863.3,514.6 832.7,514.6 802.1,514.5 771.5,514.6 740.9,514.5 710.4,514.7 679.8,514.6 649.2,514.6 618.6,514.7 588.0,514.7 557.4,514.6 526.8,514.7 496.2,514.7 465.6,514.7 435.1,514.8 404.5,514.8 373.9,514.7 343.3,514.8 312.7,514.8 282.1,514.6 251.5,514.8 220.9,514.7 190.4,514.7 159.8,514.8 129.2,514.8 98.6,514.8 68.0,514.7" fill="#41ab5d" fill-opacity="0.9" stroke="#fff" stroke-width="0.4"><title>dynamic_dispatch — SemanticChecking</title></polygon>
<polygon points="68.0,484.9 98.6,476.7 129.2,475.3 159.8,473.0 190.4,472.3 220.9,471.9 251.5,469.5 282.1,467.5 312.7,476.0 343.3,476.3 373.9,475.8 404.5,476.0 435.1,475.1 465.6,474.2 496.2,474.5 526.8,474.5 557.4,454.3 588.0,456.3 618.6,454.7 649.2,453.3 679.8,487.4 710.4,485.3 740.9,483.7 771.5,483.8 802.1,483.2 832.7,483.2 863.3,482.8 893.9,483.5 924.5,483.1 955.1,483.5 985.6,484.2 1016.2,479.6 1046.8,483.5 1077.4,484.1 1108.0,484.2 1108.0,494.0 1077.4,494.1 1046.8,493.7 1016.2,490.9 985.6,494.2 955.1,493.8 924.5,493.1 893.9,493.4 863.3,492.8 832.7,493.2 802.1,493.2 771.5,493.7 740.9,493.6 710.4,494.6 679.8,496.4 649.2,472.0 618.6,472.7 588.0,474.3 557.4,472.8 526.8,482.0 496.2,482.2 465.6,481.8 435.1,482.8 404.5,483.6 373.9,483.8 343.3,483.9 312.7,484.0 282.1,475.9 251.5,477.8 220.9,479.9 190.4,480.3 159.8,480.9 129.2,482.7 98.6,484.0 68.0,492.3" fill="#006d2c" fill-opacity="0.9" stroke="#fff" stroke-width="0.4"><title>dynamic_dispatch — generateIR</title></polygon>
<polygon points="68.0,484.5 98.6,475.9 129.2,475.2 159.8,472.8 190.4,472.1 220.9,471.2 251.5,469.3 282.1,466.8 312.7,475.3 343.3,475.9 373.9,475.1 404.5,475.7 435.1,474.8 465.6,473.9 496.2,474.3 526.8,474.2 557.4,454.0 588.0,456.0 618.6,454.3 649.2,453.1 679.8,487.0 710.4,484.7 740.9,483.4 771.5,483.4 802.1,482.9 832.7,482.9 863.3,482.4 893.9,483.1 924.5,482.8 955.1,483.2 985.6,483.9 1016.2,478.5 1046.8,483.1 1077.4,483.8 1108.0,483.9 1108.0,484.2 1077.4,484.1 1046.8,483.5 1016.2,479.6 985.6,484.2 955.1,483.5 924.5,483.1 893.9,483.5 863.3,482.8 832.7,483.2 802.1,483.2 771.5,483.8 740.9,483.7 710.4,485.3 679.8,487.4 649.2,453.3 618.6,454.7 588.0,456.3 557.4,454.3 526.8,474.5 496.2,474.5 465.6,474.2 435.1,475.1 404.5,476.0 373.9,475.8 343.3,476.3 312.7,476.0 282.1,467.5 251.5,469.5 220.9,471.9 190.4,472.3 159.8,473.0 129.2,475.3 98.6,476.7 68.0,484.9" fill="#74c476" fill-opacity="0.9" stroke="#fff" stroke-width="0.4"><title>dynamic_dispatch — frontEndExecute (self)</title></polygon>
<polygon points="68.0,480.5 98.6,471.9 129.2,471.0 159.8,468.7 190.4,467.8 220.9,466.9 251.5,464.9 282.1,462.2 312.7,471.0 343.3,471.6 373.9,457.5 404.5,458.4 435.1,457.7 465.6,456.9 496.2,457.5 526.8,457.0 557.4,282.6 588.0,285.7 618.6,282.5 649.2,281.0 679.8,356.8 710.4,340.8 740.9,329.6 771.5,330.2 802.1,331.7 832.7,330.7 863.3,331.0 893.9,330.5 924.5,331.7 955.1,454.2 985.6,454.9 1016.2,449.6 1046.8,454.9 1077.4,456.0 1108.0,455.7 1108.0,483.9 1077.4,483.8 1046.8,483.1 1016.2,478.5 985.6,483.9 955.1,483.2 924.5,482.8 893.9,483.1 863.3,482.4 832.7,482.9 802.1,482.9 771.5,483.4 740.9,483.4 710.4,484.7 679.8,487.0 649.2,453.1 618.6,454.3 588.0,456.0 557.4,454.0 526.8,474.2 496.2,474.3 465.6,473.9 435.1,474.8 404.5,475.7 373.9,475.1 343.3,475.9 312.7,475.3 282.1,466.8 251.5,469.3 220.9,471.2 190.4,472.1 159.8,472.8 129.2,475.2 98.6,475.9 68.0,484.5" fill="#6baed6" fill-opacity="0.9" stroke="#fff" stroke-width="0.4"><title>dynamic_dispatch — specializeModule</title></polygon>
<polygon points="68.0,442.1 98.6,433.8 129.2,433.0 159.8,427.9 190.4,426.2 220.9,424.6 251.5,421.9 282.1,415.5 312.7,430.1 343.3,430.2 373.9,402.7 404.5,405.6 435.1,406.7 465.6,405.9 496.2,405.7 526.8,405.8 557.4,195.1 588.0,198.7 618.6,194.5 649.2,193.5 679.8,311.4 710.4,293.6 740.9,281.2 771.5,282.1 802.1,282.9 832.7,283.3 863.3,304.1 893.9,303.9 924.5,304.7 955.1,426.7 985.6,428.1 1016.2,422.5 1046.8,432.6 1077.4,433.6 1108.0,432.9 1108.0,455.7 1077.4,456.0 1046.8,454.9 1016.2,449.6 985.6,454.9 955.1,454.2 924.5,331.7 893.9,330.5 863.3,331.0 832.7,330.7 802.1,331.7 771.5,330.2 740.9,329.6 710.4,340.8 679.8,356.8 649.2,281.0 618.6,282.5 588.0,285.7 557.4,282.6 526.8,457.0 496.2,457.5 465.6,456.9 435.1,457.7 404.5,458.4 373.9,457.5 343.3,471.6 312.7,471.0 282.1,462.2 251.5,464.9 220.9,466.9 190.4,467.8 159.8,468.7 129.2,471.0 98.6,471.9 68.0,480.5" fill="#2171b5" fill-opacity="0.9" stroke="#fff" stroke-width="0.4"><title>dynamic_dispatch — simplifyIR</title></polygon>
<polygon points="68.0,439.7 98.6,431.7 129.2,431.0 159.8,425.7 190.4,423.4 220.9,421.7 251.5,419.1 282.1,412.8 312.7,427.8 343.3,427.7 373.9,400.2 404.5,403.6 435.1,404.6 465.6,403.9 496.2,403.6 526.8,403.8 557.4,182.8 588.0,186.6 618.6,182.8 649.2,181.4 679.8,309.4 710.4,291.5 740.9,279.0 771.5,279.9 802.1,280.6 832.7,281.1 863.3,302.0 893.9,301.8 924.5,302.5 955.1,424.9 985.6,426.2 1016.2,420.6 1046.8,430.7 1077.4,431.7 1108.0,431.1 1108.0,432.9 1077.4,433.6 1046.8,432.6 1016.2,422.5 985.6,428.1 955.1,426.7 924.5,304.7 893.9,303.9 863.3,304.1 832.7,283.3 802.1,282.9 771.5,282.1 740.9,281.2 710.4,293.6 679.8,311.4 649.2,193.5 618.6,194.5 588.0,198.7 557.4,195.1 526.8,405.8 496.2,405.7 465.6,405.9 435.1,406.7 404.5,405.6 373.9,402.7 343.3,430.2 312.7,430.1 282.1,415.5 251.5,421.9 220.9,424.6 190.4,426.2 159.8,427.9 129.2,433.0 98.6,433.8 68.0,442.1" fill="#08306b" fill-opacity="0.9" stroke="#fff" stroke-width="0.4"><title>dynamic_dispatch — linkIR</title></polygon>
<polygon points="68.0,439.5 98.6,431.5 129.2,430.8 159.8,425.4 190.4,423.2 220.9,421.5 251.5,418.9 282.1,412.5 312.7,427.6 343.3,427.5 373.9,400.0 404.5,403.3 435.1,404.3 465.6,403.7 496.2,403.4 526.8,403.5 557.4,182.7 588.0,186.5 618.6,182.7 649.2,181.3 679.8,309.3 710.4,291.4 740.9,278.9 771.5,279.8 802.1,280.5 832.7,281.0 863.3,301.9 893.9,301.7 924.5,302.4 955.1,424.3 985.6,425.7 1016.2,420.1 1046.8,430.2 1077.4,431.2 1108.0,430.6 1108.0,431.1 1077.4,431.7 1046.8,430.7 1016.2,420.6 985.6,426.2 955.1,424.9 924.5,302.5 893.9,301.8 863.3,302.0 832.7,281.1 802.1,280.6 771.5,279.9 740.9,279.0 710.4,291.5 679.8,309.4 649.2,181.4 618.6,182.8 588.0,186.6 557.4,182.8 526.8,403.8 496.2,403.6 465.6,403.9 435.1,404.6 404.5,403.6 373.9,400.2 343.3,427.7 312.7,427.8 282.1,412.8 251.5,419.1 220.9,421.7 190.4,423.4 159.8,425.7 129.2,431.0 98.6,431.7 68.0,439.7" fill="#9e9ac8" fill-opacity="0.9" stroke="#fff" stroke-width="0.4"><title>dynamic_dispatch — unrollLoopsInModule</title></polygon>
<polygon points="68.0,433.8 98.6,426.0 129.2,425.2 159.8,419.8 190.4,419.4 220.9,417.8 251.5,415.1 282.1,408.5 312.7,423.8 343.3,423.8 373.9,396.5 404.5,399.9 435.1,400.9 465.6,400.3 496.2,400.0 526.8,400.2 557.4,179.3 588.0,183.2 618.6,179.4 649.2,178.0 679.8,307.0 710.4,289.2 740.9,276.6 771.5,277.4 802.1,278.1 832.7,278.6 863.3,299.6 893.9,299.4 924.5,300.0 955.1,422.1 985.6,423.4 1016.2,417.8 1046.8,427.8 1077.4,429.3 1108.0,428.6 1108.0,430.6 1077.4,431.2 1046.8,430.2 1016.2,420.1 985.6,425.7 955.1,424.3 924.5,302.4 893.9,301.7 863.3,301.9 832.7,281.0 802.1,280.5 771.5,279.8 740.9,278.9 710.4,291.4 679.8,309.3 649.2,181.3 618.6,182.7 588.0,186.5 557.4,182.7 526.8,403.5 496.2,403.4 465.6,403.7 435.1,404.3 404.5,403.3 373.9,400.0 343.3,427.5 312.7,427.6 282.1,412.5 251.5,418.9 220.9,421.5 190.4,423.2 159.8,425.4 129.2,430.8 98.6,431.5 68.0,439.5" fill="#807dba" fill-opacity="0.9" stroke="#fff" stroke-width="0.4"><title>dynamic_dispatch — legalizeResourceTypes</title></polygon>
<polygon points="68.0,426.8 98.6,419.1 129.2,418.3 159.8,412.9 190.4,414.2 220.9,412.7 251.5,410.0 282.1,403.3 312.7,418.8 343.3,418.7 373.9,390.8 404.5,394.2 435.1,395.2 465.6,394.6 496.2,394.3 526.8,394.2 557.4,173.9 588.0,177.8 618.6,174.1 649.2,172.7 679.8,303.6 710.4,285.8 740.9,273.0 771.5,273.9 802.1,274.5 832.7,274.9 863.3,296.1 893.9,295.9 924.5,296.5 955.1,418.5 985.6,419.8 1016.2,414.2 1046.8,424.3 1077.4,426.4 1108.0,425.7 1108.0,428.6 1077.4,429.3 1046.8,427.8 1016.2,417.8 985.6,423.4 955.1,422.1 924.5,300.0 893.9,299.4 863.3,299.6 832.7,278.6 802.1,278.1 771.5,277.4 740.9,276.6 710.4,289.2 679.8,307.0 649.2,178.0 618.6,179.4 588.0,183.2 557.4,179.3 526.8,400.2 496.2,400.0 465.6,400.3 435.1,400.9 404.5,399.9 373.9,396.5 343.3,423.8 312.7,423.8 282.1,408.5 251.5,415.1 220.9,417.8 190.4,419.4 159.8,419.8 129.2,425.2 98.6,426.0 68.0,433.8" fill="#6a51a3" fill-opacity="0.9" stroke="#fff" stroke-width="0.4"><title>dynamic_dispatch — legalizeExistentialTypeLayout</title></polygon>
<polygon points="68.0,426.4 98.6,418.7 129.2,417.9 159.8,412.4 190.4,413.8 220.9,412.3 251.5,409.5 282.1,402.8 312.7,418.3 343.3,418.3 373.9,390.3 404.5,393.8 435.1,394.8 465.6,394.3 496.2,393.9 526.8,393.8 557.4,173.5 588.0,177.4 618.6,173.7 649.2,172.3 679.8,303.3 710.4,285.4 740.9,272.6 771.5,273.5 802.1,274.1 832.7,274.6 863.3,295.7 893.9,295.5 924.5,296.1 955.1,417.8 985.6,419.1 1016.2,413.5 1046.8,423.5 1077.4,425.7 1108.0,424.9 1108.0,425.7 1077.4,426.4 1046.8,424.3 1016.2,414.2 985.6,419.8 955.1,418.5 924.5,296.5 893.9,295.9 863.3,296.1 832.7,274.9 802.1,274.5 771.5,273.9 740.9,273.0 710.4,285.8 679.8,303.6 649.2,172.7 618.6,174.1 588.0,177.8 557.4,173.9 526.8,394.2 496.2,394.3 465.6,394.6 435.1,395.2 404.5,394.2 373.9,390.8 343.3,418.7 312.7,418.8 282.1,403.3 251.5,410.0 220.9,412.7 190.4,414.2 159.8,412.9 129.2,418.3 98.6,419.1 68.0,426.8" fill="#bcbddc" fill-opacity="0.9" stroke="#fff" stroke-width="0.4"><title>dynamic_dispatch — performMandatoryEarlyInlining</title></polygon>
<polygon points="68.0,425.9 98.6,418.2 129.2,417.4 159.8,411.9 190.4,413.3 220.9,411.7 251.5,409.0 282.1,402.3 312.7,417.8 343.3,417.8 373.9,389.9 404.5,393.3 435.1,394.4 465.6,393.8 496.2,393.4 526.8,393.3 557.4,173.1 588.0,176.9 618.6,173.2 649.2,171.9 679.8,302.8 710.4,284.9 740.9,272.2 771.5,273.0 802.1,273.6 832.7,274.1 863.3,295.2 893.9,295.0 924.5,295.6 955.1,417.3 985.6,418.6 1016.2,412.9 1046.8,423.0 1077.4,425.2 1108.0,424.4 1108.0,424.9 1077.4,425.7 1046.8,423.5 1016.2,413.5 985.6,419.1 955.1,417.8 924.5,296.1 893.9,295.5 863.3,295.7 832.7,274.6 802.1,274.1 771.5,273.5 740.9,272.6 710.4,285.4 679.8,303.3 649.2,172.3 618.6,173.7 588.0,177.4 557.4,173.5 526.8,393.8 496.2,393.9 465.6,394.3 435.1,394.8 404.5,393.8 373.9,390.3 343.3,418.3 312.7,418.3 282.1,402.8 251.5,409.5 220.9,412.3 190.4,413.8 159.8,412.4 129.2,417.9 98.6,418.7 68.0,426.4" fill="#dadaeb" fill-opacity="0.9" stroke="#fff" stroke-width="0.4"><title>dynamic_dispatch — performForceInlining</title></polygon>
<polygon points="68.0,398.4 98.6,390.8 129.2,388.9 159.8,382.6 190.4,383.1 220.9,380.3 251.5,375.8 282.1,370.7 312.7,387.4 343.3,387.6 373.9,368.2 404.5,373.4 435.1,374.4 465.6,373.9 496.2,372.2 526.8,373.2 557.4,136.3 588.0,141.5 618.6,138.4 649.2,134.8 679.8,282.9 710.4,264.9 740.9,249.0 771.5,250.5 802.1,250.6 832.7,251.3 863.3,271.0 893.9,271.3 924.5,271.7 955.1,394.7 985.6,395.3 1016.2,390.0 1046.8,400.8 1077.4,403.7 1108.0,402.8 1108.0,424.4 1077.4,425.2 1046.8,423.0 1016.2,412.9 985.6,418.6 955.1,417.3 924.5,295.6 893.9,295.0 863.3,295.2 832.7,274.1 802.1,273.6 771.5,273.0 740.9,272.2 710.4,284.9 679.8,302.8 649.2,171.9 618.6,173.2 588.0,176.9 557.4,173.1 526.8,393.3 496.2,393.4 465.6,393.8 435.1,394.4 404.5,393.3 373.9,389.9 343.3,417.8 312.7,417.8 282.1,402.3 251.5,409.0 220.9,411.7 190.4,413.3 159.8,411.9 129.2,417.4 98.6,418.2 68.0,425.9" fill="#4a1486" fill-opacity="0.9" stroke="#fff" stroke-width="0.4"><title>dynamic_dispatch — linkAndOptimizeIR (self)</title></polygon>
<polygon points="68.0,338.4 98.6,330.6 129.2,328.7 159.8,333.7 190.4,327.5 220.9,328.6 251.5,322.6 282.1,317.2 312.7,336.6 343.3,333.7 373.9,343.0 404.5,348.0 435.1,349.8 465.6,349.7 496.2,347.8 526.8,348.4 557.4,110.1 588.0,115.1 618.6,112.1 649.2,108.7 679.8,258.3 710.4,240.0 740.9,223.5 771.5,223.3 802.1,224.6 832.7,226.5 863.3,245.8 893.9,247.4 924.5,248.2 955.1,370.3 985.6,371.4 1016.2,365.3 1046.8,376.6 1077.4,379.8 1108.0,379.0 1108.0,402.8 1077.4,403.7 1046.8,400.8 1016.2,390.0 985.6,395.3 955.1,394.7 924.5,271.7 893.9,271.3 863.3,271.0 832.7,251.3 802.1,250.6 771.5,250.5 740.9,249.0 710.4,264.9 679.8,282.9 649.2,134.8 618.6,138.4 588.0,141.5 557.4,136.3 526.8,373.2 496.2,372.2 465.6,373.9 435.1,374.4 404.5,373.4 373.9,368.2 343.3,387.6 312.7,387.4 282.1,370.7 251.5,375.8 220.9,380.3 190.4,383.1 159.8,382.6 129.2,388.9 98.6,390.8 68.0,398.4" fill="#e6550d" fill-opacity="0.9" stroke="#fff" stroke-width="0.4"><title>dynamic_dispatch — generateOutput (self)</title></polygon>
<polygon points="68.0,338.4 98.6,330.6 129.2,328.7 159.8,333.7 190.4,327.3 220.9,327.8 251.5,322.6 282.1,317.0 312.7,336.6 343.3,333.7 373.9,343.0 404.5,347.6 435.1,349.8 465.6,349.6 496.2,347.8 526.8,348.2 557.4,110.1 588.0,114.9 618.6,112.1 649.2,108.6 679.8,258.3 710.4,239.8 740.9,223.5 771.5,222.5 802.1,224.5 832.7,226.5 863.3,245.5 893.9,247.3 924.5,248.0 955.1,370.2 985.6,371.2 1016.2,365.1 1046.8,376.5 1077.4,379.8 1108.0,378.8 1108.0,379.0 1077.4,379.8 1046.8,376.6 1016.2,365.3 985.6,371.4 955.1,370.3 924.5,248.2 893.9,247.4 863.3,245.8 832.7,226.5 802.1,224.6 771.5,223.3 740.9,223.5 710.4,240.0 679.8,258.3 649.2,108.7 618.6,112.1 588.0,115.1 557.4,110.1 526.8,348.4 496.2,347.8 465.6,349.7 435.1,349.8 404.5,348.0 373.9,343.0 343.3,333.7 312.7,336.6 282.1,317.2 251.5,322.6 220.9,328.6 190.4,327.5 159.8,333.7 129.2,328.7 98.6,330.6 68.0,338.4" fill="#969696" fill-opacity="0.9" stroke="#fff" stroke-width="0.4"><title>dynamic_dispatch — compileInner (self)</title></polygon>
<text x="12" y="578" fill="#666" font-weight="600">phase buckets</text>
<rect x="12" y="586" width="12" height="12" fill="#c7e9c0"/>
<text x="28" y="596" fill="#222">parseTranslationUnit</text>
<rect x="289" y="586" width="12" height="12" fill="#41ab5d"/>
<text x="305" y="596" fill="#222">SemanticChecking</text>
<rect x="566" y="586" width="12" height="12" fill="#006d2c"/>
<text x="582" y="596" fill="#222">generateIR</text>
<rect x="843" y="586" width="12" height="12" fill="#74c476"/>
<text x="859" y="596" fill="#222">frontEndExecute (self)</text>
<rect x="12" y="604" width="12" height="12" fill="#6baed6"/>
<text x="28" y="614" fill="#222">specializeModule</text>
<rect x="289" y="604" width="12" height="12" fill="#2171b5"/>
<text x="305" y="614" fill="#222">simplifyIR</text>
<rect x="566" y="604" width="12" height="12" fill="#08306b"/>
<text x="582" y="614" fill="#222">linkIR</text>
<rect x="843" y="604" width="12" height="12" fill="#9e9ac8"/>
<text x="859" y="614" fill="#222">unrollLoopsInModule</text>
<rect x="12" y="622" width="12" height="12" fill="#807dba"/>
<text x="28" y="632" fill="#222">legalizeResourceTypes</text>
<rect x="289" y="622" width="12" height="12" fill="#6a51a3"/>
<text x="305" y="632" fill="#222">legalizeExistentialTypeLayout</text>
<rect x="566" y="622" width="12" height="12" fill="#bcbddc"/>
<text x="582" y="632" fill="#222">performMandatoryEarlyInlining</text>
<rect x="843" y="622" width="12" height="12" fill="#dadaeb"/>
<text x="859" y="632" fill="#222">performForceInlining</text>
<rect x="12" y="640" width="12" height="12" fill="#4a1486"/>
<text x="28" y="650" fill="#222">linkAndOptimizeIR (self)</text>
<rect x="289" y="640" width="12" height="12" fill="#fd8d3c"/>
<text x="305" y="650" fill="#222">emitEntryPointsSourceFromIR</text>
<rect x="566" y="640" width="12" height="12" fill="#e6550d"/>
<text x="582" y="650" fill="#222">generateOutput (self)</text>
<rect x="843" y="640" width="12" height="12" fill="#969696"/>
<text x="859" y="650" fill="#222">compileInner (self)</text>
</svg>