<svg xmlns="http://www.w3.org/2000/svg" xmlns:xlink="http://www.w3.org/1999/xlink" width="1132" height="680" viewBox="0 0 1132 680" preserveAspectRatio="xMidYMid meet" font-family="sans-serif" font-size="13">
<rect width="1132" height="680" fill="white"/>
<text x="12" y="30" font-size="20" font-weight="bold">dynamic_dispatch — full phase breakdown across releases (median ms)</text>
<text x="68" y="60" font-size="15" font-weight="600" fill="#1a1a1a">dynamic_dispatch<tspan fill="#888" font-weight="400" text-decoration="none">  1.53×</tspan></text>
<line x1="68.0" y1="516.0" x2="1108.0" y2="516.0" stroke="#eee"/>
<text x="64.0" y="519.0" text-anchor="end" fill="#999">0.0</text>
<line x1="68.0" y1="296.0" x2="1108.0" y2="296.0" stroke="#eee"/>
<text x="64.0" y="299.0" text-anchor="end" fill="#999">244</text>
<line x1="68.0" y1="76.0" x2="1108.0" y2="76.0" stroke="#eee"/>
<text x="64.0" y="79.0" text-anchor="end" fill="#999">487</text>
<line x1="68.0" y1="76.0" x2="68.0" y2="516.0" stroke="#333"/>
<line x1="68.0" y1="516.0" x2="1108.0" y2="516.0" stroke="#333"/>
<line x1="789.3" y1="76.0" x2="789.3" y2="516.0" stroke="#e8731a" stroke-width="1.2" stroke-dasharray="4 3"/>
<text x="792.3" y="87.0" fill="#e8731a" font-size="11">daily →</text>
<line x1="68.0" y1="516.0" x2="68.0" y2="519.0" stroke="#999"/>
<text x="68.0" y="531.0" text-anchor="end" fill="#666" transform="rotate(-50 68.0 531.0)">25.14</text>
<line x1="101.5" y1="516.0" x2="101.5" y2="519.0" stroke="#999"/>
<text x="101.5" y="531.0" text-anchor="end" fill="#666" transform="rotate(-50 101.5 531.0)">25.15</text>
<line x1="135.1" y1="516.0" x2="135.1" y2="519.0" stroke="#999"/>
<text x="135.1" y="531.0" text-anchor="end" fill="#666" transform="rotate(-50 135.1 531.0)">25.16</text>
<line x1="168.6" y1="516.0" x2="168.6" y2="519.0" stroke="#999"/>
<text x="168.6" y="531.0" text-anchor="end" fill="#666" transform="rotate(-50 168.6 531.0)">25.17</text>
<line x1="202.2" y1="516.0" x2="202.2" y2="519.0" stroke="#999"/>
<text x="202.2" y="531.0" text-anchor="end" fill="#666" transform="rotate(-50 202.2 531.0)">25.18</text>
<line x1="235.7" y1="516.0" x2="235.7" y2="519.0" stroke="#999"/>
<text x="235.7" y="531.0" text-anchor="end" fill="#666" transform="rotate(-50 235.7 531.0)">25.19</text>
<line x1="269.3" y1="516.0" x2="269.3" y2="519.0" stroke="#999"/>
<text x="269.3" y="531.0" text-anchor="end" fill="#666" transform="rotate(-50 269.3 531.0)">25.20</text>
<line x1="302.8" y1="516.0" x2="302.8" y2="519.0" stroke="#999"/>
<text x="302.8" y="531.0" text-anchor="end" fill="#666" transform="rotate(-50 302.8 531.0)">25.21</text>
<line x1="336.4" y1="516.0" x2="336.4" y2="519.0" stroke="#999"/>
<text x="336.4" y="531.0" text-anchor="end" fill="#666" transform="rotate(-50 336.4 531.0)">25.22</text>
<line x1="369.9" y1="516.0" x2="369.9" y2="519.0" stroke="#999"/>
<text x="369.9" y="531.0" text-anchor="end" fill="#666" transform="rotate(-50 369.9 531.0)">25.23</text>
<line x1="403.5" y1="516.0" x2="403.5" y2="519.0" stroke="#999"/>
<text x="403.5" y="531.0" text-anchor="end" fill="#666" transform="rotate(-50 403.5 531.0)">25.24</text>
<line x1="437.0" y1="516.0" x2="437.0" y2="519.0" stroke="#999"/>
<text x="437.0" y="531.0" text-anchor="end" fill="#666" transform="rotate(-50 437.0 531.0)">26.1</text>
<line x1="470.6" y1="516.0" x2="470.6" y2="519.0" stroke="#999"/>
<text x="470.6" y="531.0" text-anchor="end" fill="#666" transform="rotate(-50 470.6 531.0)">26.2</text>
<line x1="504.1" y1="516.0" x2="504.1" y2="519.0" stroke="#999"/>
<text x="504.1" y="531.0" text-anchor="end" fill="#666" transform="rotate(-50 504.1 531.0)">26.3</text>
<line x1="537.7" y1="516.0" x2="537.7" y2="519.0" stroke="#999"/>
<text x="537.7" y="531.0" text-anchor="end" fill="#666" transform="rotate(-50 537.7 531.0)">26.4</text>
<line x1="571.2" y1="516.0" x2="571.2" y2="519.0" stroke="#999"/>
<text x="571.2" y="531.0" text-anchor="end" fill="#666" transform="rotate(-50 571.2 531.0)">26.5</text>
<line x1="604.8" y1="516.0" x2="604.8" y2="519.0" stroke="#999"/>
<text x="604.8" y="531.0" text-anchor="end" fill="#666" transform="rotate(-50 604.8 531.0)">26.7</text>
<line x1="638.3" y1="516.0" x2="638.3" y2="519.0" stroke="#999"/>
<text x="638.3" y="531.0" text-anchor="end" fill="#666" transform="rotate(-50 638.3 531.0)">26.8</text>
<line x1="671.9" y1="516.0" x2="671.9" y2="519.0" stroke="#999"/>
<text x="671.9" y="531.0" text-anchor="end" fill="#666" transform="rotate(-50 671.9 531.0)">26.9</text>
<line x1="705.4" y1="516.0" x2="705.4" y2="519.0" stroke="#999"/>
<text x="705.4" y="531.0" text-anchor="end" fill="#666" transform="rotate(-50 705.4 531.0)">26.10</text>
<line x1="739.0" y1="516.0" x2="739.0" y2="519.0" stroke="#999"/>
<text x="739.0" y="531.0" text-anchor="end" fill="#666" transform="rotate(-50 739.0 531.0)">26.11</text>
<line x1="772.5" y1="516.0" x2="772.5" y2="519.0" stroke="#999"/>
<text x="772.5" y="531.0" text-anchor="end" fill="#666" transform="rotate(-50 772.5 531.0)">26.12</text>
<line x1="806.1" y1="516.0" x2="806.1" y2="519.0" stroke="#999"/>
<text x="806.1" y="531.0" text-anchor="end" fill="#e8731a" transform="rotate(-50 806.1 531.0)">06-25</text>
<line x1="839.6" y1="516.0" x2="839.6" y2="519.0" stroke="#999"/>
<text x="839.6" y="531.0" text-anchor="end" fill="#e8731a" transform="rotate(-50 839.6 531.0)">06-26</text>
<line x1="873.2" y1="516.0" x2="873.2" y2="519.0" stroke="#999"/>
<text x="873.2" y="531.0" text-anchor="end" fill="#e8731a" transform="rotate(-50 873.2 531.0)">06-28</text>
<line x1="906.7" y1="516.0" x2="906.7" y2="519.0" stroke="#999"/>
<text x="906.7" y="531.0" text-anchor="end" fill="#e8731a" transform="rotate(-50 906.7 531.0)">07-01</text>
<line x1="940.3" y1="516.0" x2="940.3" y2="519.0" stroke="#999"/>
<text x="940.3" y="531.0" text-anchor="end" fill="#e8731a" transform="rotate(-50 940.3 531.0)">07-02</text>
<line x1="973.8" y1="516.0" x2="973.8" y2="519.0" stroke="#999"/>
<text x="973.8" y="531.0" text-anchor="end" fill="#e8731a" transform="rotate(-50 973.8 531.0)">07-03</text>
<line x1="1007.4" y1="516.0" x2="1007.4" y2="519.0" stroke="#999"/>
<text x="1007.4" y="531.0" text-anchor="end" fill="#e8731a" transform="rotate(-50 1007.4 531.0)">07-03</text>
<line x1="1040.9" y1="516.0" x2="1040.9" y2="519.0" stroke="#999"/>
<text x="1040.9" y="531.0" text-anchor="end" fill="#e8731a" transform="rotate(-50 1040.9 531.0)">07-03</text>
<line x1="1074.5" y1="516.0" x2="1074.5" y2="519.0" stroke="#999"/>
<text x="1074.5" y="531.0" text-anchor="end" fill="#e8731a" transform="rotate(-50 1074.5 531.0)">07-07</text>
<line x1="1108.0" y1="516.0" x2="1108.0" y2="519.0" stroke="#999"/>
<text x="1108.0" y="531.0" text-anchor="end" fill="#e8731a" transform="rotate(-50 1108.0 531.0)">07-07</text>
<polygon points="68.0,514.7 101.5,514.8 135.1,514.8 168.6,514.8 202.2,514.7 235.7,514.7 269.3,514.8 302.8,514.6 336.4,514.8 369.9,514.8 403.5,514.7 437.0,514.8 470.6,514.8 504.1,514.7 537.7,514.7 571.2,514.7 604.8,514.6 638.3,514.7 671.9,514.7 705.4,514.6 739.0,514.6 772.5,514.7 806.1,514.5 839.6,514.6 873.2,514.5 906.7,514.6 940.3,514.6 973.8,514.5 1007.4,514.5 1040.9,514.5 1074.5,514.5 1108.0,514.5 1108.0,516.0 1074.5,516.0 1040.9,516.0 1007.4,516.0 973.8,516.0 940.3,516.0 906.7,516.0 873.2,516.0 839.6,516.0 806.1,516.0 772.5,516.0 739.0,516.0 705.4,516.0 671.9,516.0 638.3,516.0 604.8,516.0 571.2,516.0 537.7,516.0 504.1,516.0 470.6,516.0 437.0,516.0 403.5,516.0 369.9,516.0 336.4,516.0 302.8,516.0 269.3,516.0 235.7,516.0 202.2,516.0 168.6,516.0 135.1,516.0 101.5,516.0 68.0,516.0" fill="#c7e9c0" fill-opacity="0.9" stroke="#fff" stroke-width="0.4"><title>dynamic_dispatch — parseTranslationUnit</title></polygon>
<polygon points="68.0,492.3 101.5,484.0 135.1,482.7 168.6,480.9 202.2,480.3 235.7,479.9 269.3,477.8 302.8,475.9 336.4,484.0 369.9,483.9 403.5,483.8 437.0,483.6 470.6,482.8 504.1,481.8 537.7,482.2 571.2,482.0 604.8,472.8 638.3,474.3 671.9,472.7 705.4,472.0 739.0,496.4 772.5,494.6 806.1,493.6 839.6,493.7 873.2,493.2 906.7,493.2 940.3,492.8 973.8,493.2 1007.4,492.6 1040.9,493.3 1074.5,494.2 1108.0,493.7 1108.0,514.5 1074.5,514.5 1040.9,514.5 1007.4,514.5 973.8,514.5 940.3,514.6 906.7,514.6 873.2,514.5 839.6,514.6 806.1,514.5 772.5,514.7 739.0,514.6 705.4,514.6 671.9,514.7 638.3,514.7 604.8,514.6 571.2,514.7 537.7,514.7 504.1,514.7 470.6,514.8 437.0,514.8 403.5,514.7 369.9,514.8 336.4,514.8 302.8,514.6 269.3,514.8 235.7,514.7 202.2,514.7 168.6,514.8 135.1,514.8 101.5,514.8 68.0,514.7" fill="#41ab5d" fill-opacity="0.9" stroke="#fff" stroke-width="0.4"><title>dynamic_dispatch — SemanticChecking</title></polygon>
<polygon points="68.0,484.9 101.5,476.7 135.1,475.3 168.6,473.0 202.2,472.3 235.7,471.9 269.3,469.5 302.8,467.5 336.4,476.0 369.9,476.3 403.5,475.8 437.0,476.0 470.6,475.1 504.1,474.2 537.7,474.5 571.2,474.5 604.8,454.3 638.3,456.3 671.9,454.7 705.4,453.3 739.0,487.4 772.5,485.3 806.1,483.7 839.6,483.8 873.2,483.2 906.7,483.2 940.3,482.8 973.8,483.2 1007.4,482.4 1040.9,483.4 1074.5,484.0 1108.0,483.6 1108.0,493.7 1074.5,494.2 1040.9,493.3 1007.4,492.6 973.8,493.2 940.3,492.8 906.7,493.2 873.2,493.2 839.6,493.7 806.1,493.6 772.5,494.6 739.0,496.4 705.4,472.0 671.9,472.7 638.3,474.3 604.8,472.8 571.2,482.0 537.7,482.2 504.1,481.8 470.6,482.8 437.0,483.6 403.5,483.8 369.9,483.9 336.4,484.0 302.8,475.9 269.3,477.8 235.7,479.9 202.2,480.3 168.6,480.9 135.1,482.7 101.5,484.0 68.0,492.3" fill="#006d2c" fill-opacity="0.9" stroke="#fff" stroke-width="0.4"><title>dynamic_dispatch — generateIR</title></polygon>
<polygon points="68.0,484.5 101.5,475.9 135.1,475.2 168.6,472.8 202.2,472.1 235.7,471.2 269.3,469.3 302.8,466.8 336.4,475.3 369.9,475.9 403.5,475.1 437.0,475.7 470.6,474.8 504.1,473.9 537.7,474.3 571.2,474.2 604.8,454.0 638.3,456.0 671.9,454.3 705.4,453.1 739.0,487.0 772.5,484.7 806.1,483.4 839.6,483.4 873.2,482.9 906.7,482.9 940.3,482.4 973.8,482.8 1007.4,482.0 1040.9,483.1 1074.5,483.7 1108.0,482.9 1108.0,483.6 1074.5,484.0 1040.9,483.4 1007.4,482.4 973.8,483.2 940.3,482.8 906.7,483.2 873.2,483.2 839.6,483.8 806.1,483.7 772.5,485.3 739.0,487.4 705.4,453.3 671.9,454.7 638.3,456.3 604.8,454.3 571.2,474.5 537.7,474.5 504.1,474.2 470.6,475.1 437.0,476.0 403.5,475.8 369.9,476.3 336.4,476.0 302.8,467.5 269.3,469.5 235.7,471.9 202.2,472.3 168.6,473.0 135.1,475.3 101.5,476.7 68.0,484.9" fill="#74c476" fill-opacity="0.9" stroke="#fff" stroke-width="0.4"><title>dynamic_dispatch — frontEndExecute (self)</title></polygon>
<polygon points="68.0,480.5 101.5,471.9 135.1,471.0 168.6,468.7 202.2,467.8 235.7,466.9 269.3,464.9 302.8,462.2 336.4,471.0 369.9,471.6 403.5,457.5 437.0,458.4 470.6,457.7 504.1,456.9 537.7,457.5 571.2,457.0 604.8,282.6 638.3,285.7 671.9,282.5 705.4,281.0 739.0,356.8 772.5,340.8 806.1,329.6 839.6,330.2 873.2,331.7 906.7,330.7 940.3,331.0 973.8,331.3 1007.4,323.4 1040.9,333.2 1074.5,456.7 1108.0,329.7 1108.0,482.9 1074.5,483.7 1040.9,483.1 1007.4,482.0 973.8,482.8 940.3,482.4 906.7,482.9 873.2,482.9 839.6,483.4 806.1,483.4 772.5,484.7 739.0,487.0 705.4,453.1 671.9,454.3 638.3,456.0 604.8,454.0 571.2,474.2 537.7,474.3 504.1,473.9 470.6,474.8 437.0,475.7 403.5,475.1 369.9,475.9 336.4,475.3 302.8,466.8 269.3,469.3 235.7,471.2 202.2,472.1 168.6,472.8 135.1,475.2 101.5,475.9 68.0,484.5" fill="#6baed6" fill-opacity="0.9" stroke="#fff" stroke-width="0.4"><title>dynamic_dispatch — specializeModule</title></polygon>
<polygon points="68.0,442.1 101.5,433.8 135.1,433.0 168.6,427.9 202.2,426.2 235.7,424.6 269.3,421.9 302.8,415.5 336.4,430.1 369.9,430.2 403.5,402.7 437.0,405.6 470.6,406.7 504.1,405.9 537.7,405.7 571.2,405.8 604.8,195.1 638.3,198.7 671.9,194.5 705.4,193.5 739.0,311.4 772.5,293.6 806.1,281.2 839.6,282.1 873.2,282.9 906.7,283.3 940.3,304.1 973.8,303.7 1007.4,296.1 1040.9,306.5 1074.5,429.6 1108.0,302.9 1108.0,329.7 1074.5,456.7 1040.9,333.2 1007.4,323.4 973.8,331.3 940.3,331.0 906.7,330.7 873.2,331.7 839.6,330.2 806.1,329.6 772.5,340.8 739.0,356.8 705.4,281.0 671.9,282.5 638.3,285.7 604.8,282.6 571.2,457.0 537.7,457.5 504.1,456.9 470.6,457.7 437.0,458.4 403.5,457.5 369.9,471.6 336.4,471.0 302.8,462.2 269.3,464.9 235.7,466.9 202.2,467.8 168.6,468.7 135.1,471.0 101.5,471.9 68.0,480.5" fill="#2171b5" fill-opacity="0.9" stroke="#fff" stroke-width="0.4"><title>dynamic_dispatch — simplifyIR</title></polygon>
<polygon points="68.0,439.7 101.5,431.7 135.1,431.0 168.6,425.7 202.2,423.4 235.7,421.7 269.3,419.1 302.8,412.8 336.4,427.8 369.9,427.7 403.5,400.2 437.0,403.6 470.6,404.6 504.1,403.9 537.7,403.6 571.2,403.8 604.8,182.8 638.3,186.6 671.9,182.8 705.4,181.4 739.0,309.4 772.5,291.5 806.1,279.0 839.6,279.9 873.2,280.6 906.7,281.1 940.3,302.0 973.8,301.6 1007.4,293.9 1040.9,304.4 1074.5,427.4 1108.0,300.8 1108.0,302.9 1074.5,429.6 1040.9,306.5 1007.4,296.1 973.8,303.7 940.3,304.1 906.7,283.3 873.2,282.9 839.6,282.1 806.1,281.2 772.5,293.6 739.0,311.4 705.4,193.5 671.9,194.5 638.3,198.7 604.8,195.1 571.2,405.8 537.7,405.7 504.1,405.9 470.6,406.7 437.0,405.6 403.5,402.7 369.9,430.2 336.4,430.1 302.8,415.5 269.3,421.9 235.7,424.6 202.2,426.2 168.6,427.9 135.1,433.0 101.5,433.8 68.0,442.1" fill="#08306b" fill-opacity="0.9" stroke="#fff" stroke-width="0.4"><title>dynamic_dispatch — linkIR</title></polygon>
<polygon points="68.0,439.5 101.5,431.5 135.1,430.8 168.6,425.4 202.2,423.2 235.7,421.5 269.3,418.9 302.8,412.5 336.4,427.6 369.9,427.5 403.5,400.0 437.0,403.3 470.6,404.3 504.1,403.7 537.7,403.4 571.2,403.5 604.8,182.7 638.3,186.5 671.9,182.7 705.4,181.3 739.0,309.3 772.5,291.4 806.1,278.9 839.6,279.8 873.2,280.5 906.7,281.0 940.3,301.9 973.8,301.5 1007.4,293.8 1040.9,304.3 1074.5,427.2 1108.0,300.7 1108.0,300.8 1074.5,427.4 1040.9,304.4 1007.4,293.9 973.8,301.6 940.3,302.0 906.7,281.1 873.2,280.6 839.6,279.9 806.1,279.0 772.5,291.5 739.0,309.4 705.4,181.4 671.9,182.8 638.3,186.6 604.8,182.8 571.2,403.8 537.7,403.6 504.1,403.9 470.6,404.6 437.0,403.6 403.5,400.2 369.9,427.7 336.4,427.8 302.8,412.8 269.3,419.1 235.7,421.7 202.2,423.4 168.6,425.7 135.1,431.0 101.5,431.7 68.0,439.7" fill="#9e9ac8" fill-opacity="0.9" stroke="#fff" stroke-width="0.4"><title>dynamic_dispatch — unrollLoopsInModule</title></polygon>
<polygon points="68.0,433.8 101.5,426.0 135.1,425.2 168.6,419.8 202.2,419.4 235.7,417.8 269.3,415.1 302.8,408.5 336.4,423.8 369.9,423.8 403.5,396.5 437.0,399.9 470.6,400.9 504.1,400.3 537.7,400.0 571.2,400.2 604.8,179.3 638.3,183.2 671.9,179.4 705.4,178.0 739.0,307.0 772.5,289.2 806.1,276.6 839.6,277.4 873.2,278.1 906.7,278.6 940.3,299.6 973.8,299.2 1007.4,291.4 1040.9,302.0 1074.5,424.8 1108.0,298.3 1108.0,300.7 1074.5,427.2 1040.9,304.3 1007.4,293.8 973.8,301.5 940.3,301.9 906.7,281.0 873.2,280.5 839.6,279.8 806.1,278.9 772.5,291.4 739.0,309.3 705.4,181.3 671.9,182.7 638.3,186.5 604.8,182.7 571.2,403.5 537.7,403.4 504.1,403.7 470.6,404.3 437.0,403.3 403.5,400.0 369.9,427.5 336.4,427.6 302.8,412.5 269.3,418.9 235.7,421.5 202.2,423.2 168.6,425.4 135.1,430.8 101.5,431.5 68.0,439.5" fill="#807dba" fill-opacity="0.9" stroke="#fff" stroke-width="0.4"><title>dynamic_dispatch — legalizeResourceTypes</title></polygon>
<polygon points="68.0,426.8 101.5,419.1 135.1,418.3 168.6,412.9 202.2,414.2 235.7,412.7 269.3,410.0 302.8,403.3 336.4,418.8 369.9,418.7 403.5,390.8 437.0,394.2 470.6,395.2 504.1,394.6 537.7,394.3 571.2,394.2 604.8,173.9 638.3,177.8 671.9,174.1 705.4,172.7 739.0,303.6 772.5,285.8 806.1,273.0 839.6,273.9 873.2,274.5 906.7,274.9 940.3,296.1 973.8,295.6 1007.4,287.6 1040.9,298.4 1074.5,421.1 1108.0,294.7 1108.0,298.3 1074.5,424.8 1040.9,302.0 1007.4,291.4 973.8,299.2 940.3,299.6 906.7,278.6 873.2,278.1 839.6,277.4 806.1,276.6 772.5,289.2 739.0,307.0 705.4,178.0 671.9,179.4 638.3,183.2 604.8,179.3 571.2,400.2 537.7,400.0 504.1,400.3 470.6,400.9 437.0,399.9 403.5,396.5 369.9,423.8 336.4,423.8 302.8,408.5 269.3,415.1 235.7,417.8 202.2,419.4 168.6,419.8 135.1,425.2 101.5,426.0 68.0,433.8" fill="#6a51a3" fill-opacity="0.9" stroke="#fff" stroke-width="0.4"><title>dynamic_dispatch — legalizeExistentialTypeLayout</title></polygon>
<polygon points="68.0,426.4 101.5,418.7 135.1,417.9 168.6,412.4 202.2,413.8 235.7,412.3 269.3,409.5 302.8,402.8 336.4,418.3 369.9,418.3 403.5,390.3 437.0,393.8 470.6,394.8 504.1,394.3 537.7,393.9 571.2,393.8 604.8,173.5 638.3,177.4 671.9,173.7 705.4,172.3 739.0,303.3 772.5,285.4 806.1,272.6 839.6,273.5 873.2,274.1 906.7,274.6 940.3,295.7 973.8,295.2 1007.4,287.3 1040.9,298.1 1074.5,420.8 1108.0,294.3 1108.0,294.7 1074.5,421.1 1040.9,298.4 1007.4,287.6 973.8,295.6 940.3,296.1 906.7,274.9 873.2,274.5 839.6,273.9 806.1,273.0 772.5,285.8 739.0,303.6 705.4,172.7 671.9,174.1 638.3,177.8 604.8,173.9 571.2,394.2 537.7,394.3 504.1,394.6 470.6,395.2 437.0,394.2 403.5,390.8 369.9,418.7 336.4,418.8 302.8,403.3 269.3,410.0 235.7,412.7 202.2,414.2 168.6,412.9 135.1,418.3 101.5,419.1 68.0,426.8" fill="#bcbddc" fill-opacity="0.9" stroke="#fff" stroke-width="0.4"><title>dynamic_dispatch — performMandatoryEarlyInlining</title></polygon>
<polygon points="68.0,425.9 101.5,418.2 135.1,417.4 168.6,411.9 202.2,413.3 235.7,411.7 269.3,409.0 302.8,402.3 336.4,417.8 369.9,417.8 403.5,389.9 437.0,393.3 470.6,394.4 504.1,393.8 537.7,393.4 571.2,393.3 604.8,173.1 638.3,176.9 671.9,173.2 705.4,171.9 739.0,302.8 772.5,284.9 806.1,272.2 839.6,273.0 873.2,273.6 906.7,274.1 940.3,295.2 973.8,294.7 1007.4,286.8 1040.9,297.6 1074.5,420.2 1108.0,293.8 1108.0,294.3 1074.5,420.8 1040.9,298.1 1007.4,287.3 973.8,295.2 940.3,295.7 906.7,274.6 873.2,274.1 839.6,273.5 806.1,272.6 772.5,285.4 739.0,303.3 705.4,172.3 671.9,173.7 638.3,177.4 604.8,173.5 571.2,393.8 537.7,393.9 504.1,394.3 470.6,394.8 437.0,393.8 403.5,390.3 369.9,418.3 336.4,418.3 302.8,402.8 269.3,409.5 235.7,412.3 202.2,413.8 168.6,412.4 135.1,417.9 101.5,418.7 68.0,426.4" fill="#dadaeb" fill-opacity="0.9" stroke="#fff" stroke-width="0.4"><title>dynamic_dispatch — performForceInlining</title></polygon>
<polygon points="68.0,398.4 101.5,390.8 135.1,388.9 168.6,382.6 202.2,383.1 235.7,380.3 269.3,375.8 302.8,370.7 336.4,387.4 369.9,387.6 403.5,368.2 437.0,373.4 470.6,374.4 504.1,373.9 537.7,372.2 571.2,373.2 604.8,136.3 638.3,141.5 671.9,138.4 705.4,134.8 739.0,282.9 772.5,264.9 806.1,249.0 839.6,250.5 873.2,250.6 906.7,251.3 940.3,271.0 973.8,268.8 1007.4,262.8 1040.9,273.7 1074.5,395.6 1108.0,267.9 1108.0,293.8 1074.5,420.2 1040.9,297.6 1007.4,286.8 973.8,294.7 940.3,295.2 906.7,274.1 873.2,273.6 839.6,273.0 806.1,272.2 772.5,284.9 739.0,302.8 705.4,171.9 671.9,173.2 638.3,176.9 604.8,173.1 571.2,393.3 537.7,393.4 504.1,393.8 470.6,394.4 437.0,393.3 403.5,389.9 369.9,417.8 336.4,417.8 302.8,402.3 269.3,409.0 235.7,411.7 202.2,413.3 168.6,411.9 135.1,417.4 101.5,418.2 68.0,425.9" fill="#4a1486" fill-opacity="0.9" stroke="#fff" stroke-width="0.4"><title>dynamic_dispatch — linkAndOptimizeIR (self)</title></polygon>
<polygon points="68.0,338.4 101.5,330.6 135.1,328.7 168.6,333.7 202.2,327.5 235.7,328.6 269.3,322.6 302.8,317.2 336.4,336.6 369.9,333.7 403.5,343.0 437.0,348.0 470.6,349.8 504.1,349.7 537.7,347.8 571.2,348.4 604.8,110.1 638.3,115.1 671.9,112.1 705.4,108.7 739.0,258.3 772.5,240.0 806.1,223.5 839.6,223.3 873.2,224.6 906.7,226.5 940.3,245.8 973.8,245.7 1007.4,238.8 1040.9,249.7 1074.5,371.3 1108.0,244.7 1108.0,267.9 1074.5,395.6 1040.9,273.7 1007.4,262.8 973.8,268.8 940.3,271.0 906.7,251.3 873.2,250.6 839.6,250.5 806.1,249.0 772.5,264.9 739.0,282.9 705.4,134.8 671.9,138.4 638.3,141.5 604.8,136.3 571.2,373.2 537.7,372.2 504.1,373.9 470.6,374.4 437.0,373.4 403.5,368.2 369.9,387.6 336.4,387.4 302.8,370.7 269.3,375.8 235.7,380.3 202.2,383.1 168.6,382.6 135.1,388.9 101.5,390.8 68.0,398.4" fill="#e6550d" fill-opacity="0.9" stroke="#fff" stroke-width="0.4"><title>dynamic_dispatch — generateOutput (self)</title></polygon>
<polygon points="68.0,338.4 101.5,330.6 135.1,328.7 168.6,333.7 202.2,327.3 235.7,327.8 269.3,322.6 302.8,317.0 336.4,336.6 369.9,333.7 403.5,343.0 437.0,347.6 470.6,349.8 504.1,349.6 537.7,347.8 571.2,348.2 604.8,110.1 638.3,114.9 671.9,112.1 705.4,108.6 739.0,258.3 772.5,239.8 806.1,223.5 839.6,222.5 873.2,224.5 906.7,226.5 940.3,245.5 973.8,245.4 1007.4,238.5 1040.9,249.7 1074.5,371.1 1108.0,244.7 1108.0,244.7 1074.5,371.3 1040.9,249.7 1007.4,238.8 973.8,245.7 940.3,245.8 906.7,226.5 873.2,224.6 839.6,223.3 806.1,223.5 772.5,240.0 739.0,258.3 705.4,108.7 671.9,112.1 638.3,115.1 604.8,110.1 571.2,348.4 537.7,347.8 504.1,349.7 470.6,349.8 437.0,348.0 403.5,343.0 369.9,333.7 336.4,336.6 302.8,317.2 269.3,322.6 235.7,328.6 202.2,327.5 168.6,333.7 135.1,328.7 101.5,330.6 68.0,338.4" fill="#969696" fill-opacity="0.9" stroke="#fff" stroke-width="0.4"><title>dynamic_dispatch — compileInner (self)</title></polygon>
<text x="12" y="578" fill="#666" font-weight="600">phase buckets</text>
<rect x="12" y="586" width="12" height="12" fill="#c7e9c0"/>
<text x="28" y="596" fill="#222">parseTranslationUnit</text>
<rect x="289" y="586" width="12" height="12" fill="#41ab5d"/>
<text x="305" y="596" fill="#222">SemanticChecking</text>
<rect x="566" y="586" width="12" height="12" fill="#006d2c"/>
<text x="582" y="596" fill="#222">generateIR</text>
<rect x="843" y="586" width="12" height="12" fill="#74c476"/>
<text x="859" y="596" fill="#222">frontEndExecute (self)</text>
<rect x="12" y="604" width="12" height="12" fill="#6baed6"/>
<text x="28" y="614" fill="#222">specializeModule</text>
<rect x="289" y="604" width="12" height="12" fill="#2171b5"/>
<text x="305" y="614" fill="#222">simplifyIR</text>
<rect x="566" y="604" width="12" height="12" fill="#08306b"/>
<text x="582" y="614" fill="#222">linkIR</text>
<rect x="843" y="604" width="12" height="12" fill="#9e9ac8"/>
<text x="859" y="614" fill="#222">unrollLoopsInModule</text>
<rect x="12" y="622" width="12" height="12" fill="#807dba"/>
<text x="28" y="632" fill="#222">legalizeResourceTypes</text>
<rect x="289" y="622" width="12" height="12" fill="#6a51a3"/>
<text x="305" y="632" fill="#222">legalizeExistentialTypeLayout</text>
<rect x="566" y="622" width="12" height="12" fill="#bcbddc"/>
<text x="582" y="632" fill="#222">performMandatoryEarlyInlining</text>
<rect x="843" y="622" width="12" height="12" fill="#dadaeb"/>
<text x="859" y="632" fill="#222">performForceInlining</text>
<rect x="12" y="640" width="12" height="12" fill="#4a1486"/>
<text x="28" y="650" fill="#222">linkAndOptimizeIR (self)</text>
<rect x="289" y="640" width="12" height="12" fill="#fd8d3c"/>
<text x="305" y="650" fill="#222">emitEntryPointsSourceFromIR</text>
<rect x="566" y="640" width="12" height="12" fill="#e6550d"/>
<text x="582" y="650" fill="#222">generateOutput (self)</text>
<rect x="843" y="640" width="12" height="12" fill="#969696"/>
<text x="859" y="650" fill="#222">compileInner (self)</text>
</svg>