<svg xmlns="http://www.w3.org/2000/svg" xmlns:xlink="http://www.w3.org/1999/xlink" width="1132" height="680" viewBox="0 0 1132 680" preserveAspectRatio="xMidYMid meet" font-family="sans-serif" font-size="13">
<rect width="1132" height="680" fill="white"/>
<text x="12" y="30" font-size="20" font-weight="bold">emit_cuda — full phase breakdown across releases (median ms)</text>
<text x="68" y="60" font-size="15" font-weight="600" fill="#1a1a1a">emit_cuda<tspan fill="#888" font-weight="400" text-decoration="none">  0.31×</tspan></text>
<line x1="68.0" y1="516.0" x2="1108.0" y2="516.0" stroke="#eee"/>
<text x="64.0" y="519.0" text-anchor="end" fill="#999">0.0</text>
<line x1="68.0" y1="296.0" x2="1108.0" y2="296.0" stroke="#eee"/>
<text x="64.0" y="299.0" text-anchor="end" fill="#999">554</text>
<line x1="68.0" y1="76.0" x2="1108.0" y2="76.0" stroke="#eee"/>
<text x="64.0" y="79.0" text-anchor="end" fill="#999">1107</text>
<line x1="68.0" y1="76.0" x2="68.0" y2="516.0" stroke="#333"/>
<line x1="68.0" y1="516.0" x2="1108.0" y2="516.0" stroke="#333"/>
<line x1="706.9" y1="76.0" x2="706.9" y2="516.0" stroke="#e8731a" stroke-width="1.2" stroke-dasharray="4 3"/>
<text x="709.9" y="87.0" fill="#e8731a" font-size="11">daily →</text>
<line x1="68.0" y1="516.0" x2="68.0" y2="519.0" stroke="#999"/>
<text x="68.0" y="531.0" text-anchor="end" fill="#666" transform="rotate(-50 68.0 531.0)">25.14</text>
<line x1="97.7" y1="516.0" x2="97.7" y2="519.0" stroke="#999"/>
<text x="97.7" y="531.0" text-anchor="end" fill="#666" transform="rotate(-50 97.7 531.0)">25.15</text>
<line x1="127.4" y1="516.0" x2="127.4" y2="519.0" stroke="#999"/>
<text x="127.4" y="531.0" text-anchor="end" fill="#666" transform="rotate(-50 127.4 531.0)">25.16</text>
<line x1="157.1" y1="516.0" x2="157.1" y2="519.0" stroke="#999"/>
<text x="157.1" y="531.0" text-anchor="end" fill="#666" transform="rotate(-50 157.1 531.0)">25.17</text>
<line x1="186.9" y1="516.0" x2="186.9" y2="519.0" stroke="#999"/>
<text x="186.9" y="531.0" text-anchor="end" fill="#666" transform="rotate(-50 186.9 531.0)">25.18</text>
<line x1="216.6" y1="516.0" x2="216.6" y2="519.0" stroke="#999"/>
<text x="216.6" y="531.0" text-anchor="end" fill="#666" transform="rotate(-50 216.6 531.0)">25.19</text>
<line x1="246.3" y1="516.0" x2="246.3" y2="519.0" stroke="#999"/>
<text x="246.3" y="531.0" text-anchor="end" fill="#666" transform="rotate(-50 246.3 531.0)">25.20</text>
<line x1="276.0" y1="516.0" x2="276.0" y2="519.0" stroke="#999"/>
<text x="276.0" y="531.0" text-anchor="end" fill="#666" transform="rotate(-50 276.0 531.0)">25.21</text>
<line x1="305.7" y1="516.0" x2="305.7" y2="519.0" stroke="#999"/>
<text x="305.7" y="531.0" text-anchor="end" fill="#666" transform="rotate(-50 305.7 531.0)">25.22</text>
<line x1="335.4" y1="516.0" x2="335.4" y2="519.0" stroke="#999"/>
<text x="335.4" y="531.0" text-anchor="end" fill="#666" transform="rotate(-50 335.4 531.0)">25.23</text>
<line x1="365.1" y1="516.0" x2="365.1" y2="519.0" stroke="#999"/>
<text x="365.1" y="531.0" text-anchor="end" fill="#666" transform="rotate(-50 365.1 531.0)">25.24</text>
<line x1="394.9" y1="516.0" x2="394.9" y2="519.0" stroke="#999"/>
<text x="394.9" y="531.0" text-anchor="end" fill="#666" transform="rotate(-50 394.9 531.0)">26.1</text>
<line x1="424.6" y1="516.0" x2="424.6" y2="519.0" stroke="#999"/>
<text x="424.6" y="531.0" text-anchor="end" fill="#666" transform="rotate(-50 424.6 531.0)">26.2</text>
<line x1="454.3" y1="516.0" x2="454.3" y2="519.0" stroke="#999"/>
<text x="454.3" y="531.0" text-anchor="end" fill="#666" transform="rotate(-50 454.3 531.0)">26.3</text>
<line x1="484.0" y1="516.0" x2="484.0" y2="519.0" stroke="#999"/>
<text x="484.0" y="531.0" text-anchor="end" fill="#666" transform="rotate(-50 484.0 531.0)">26.4</text>
<line x1="513.7" y1="516.0" x2="513.7" y2="519.0" stroke="#999"/>
<text x="513.7" y="531.0" text-anchor="end" fill="#666" transform="rotate(-50 513.7 531.0)">26.5</text>
<line x1="543.4" y1="516.0" x2="543.4" y2="519.0" stroke="#999"/>
<text x="543.4" y="531.0" text-anchor="end" fill="#666" transform="rotate(-50 543.4 531.0)">26.7</text>
<line x1="573.1" y1="516.0" x2="573.1" y2="519.0" stroke="#999"/>
<text x="573.1" y="531.0" text-anchor="end" fill="#666" transform="rotate(-50 573.1 531.0)">26.8</text>
<line x1="602.9" y1="516.0" x2="602.9" y2="519.0" stroke="#999"/>
<text x="602.9" y="531.0" text-anchor="end" fill="#666" transform="rotate(-50 602.9 531.0)">26.9</text>
<line x1="632.6" y1="516.0" x2="632.6" y2="519.0" stroke="#999"/>
<text x="632.6" y="531.0" text-anchor="end" fill="#666" transform="rotate(-50 632.6 531.0)">26.10</text>
<line x1="662.3" y1="516.0" x2="662.3" y2="519.0" stroke="#999"/>
<text x="662.3" y="531.0" text-anchor="end" fill="#666" transform="rotate(-50 662.3 531.0)">26.11</text>
<line x1="692.0" y1="516.0" x2="692.0" y2="519.0" stroke="#999"/>
<text x="692.0" y="531.0" text-anchor="end" fill="#666" transform="rotate(-50 692.0 531.0)">26.12</text>
<line x1="721.7" y1="516.0" x2="721.7" y2="519.0" stroke="#999"/>
<text x="721.7" y="531.0" text-anchor="end" fill="#e8731a" transform="rotate(-50 721.7 531.0)">06-25</text>
<line x1="751.4" y1="516.0" x2="751.4" y2="519.0" stroke="#999"/>
<text x="751.4" y="531.0" text-anchor="end" fill="#e8731a" transform="rotate(-50 751.4 531.0)">06-26</text>
<line x1="781.1" y1="516.0" x2="781.1" y2="519.0" stroke="#999"/>
<text x="781.1" y="531.0" text-anchor="end" fill="#e8731a" transform="rotate(-50 781.1 531.0)">06-28</text>
<line x1="810.9" y1="516.0" x2="810.9" y2="519.0" stroke="#999"/>
<text x="810.9" y="531.0" text-anchor="end" fill="#e8731a" transform="rotate(-50 810.9 531.0)">07-01</text>
<line x1="840.6" y1="516.0" x2="840.6" y2="519.0" stroke="#999"/>
<text x="840.6" y="531.0" text-anchor="end" fill="#e8731a" transform="rotate(-50 840.6 531.0)">07-02</text>
<line x1="870.3" y1="516.0" x2="870.3" y2="519.0" stroke="#999"/>
<text x="870.3" y="531.0" text-anchor="end" fill="#e8731a" transform="rotate(-50 870.3 531.0)">07-03</text>
<line x1="900.0" y1="516.0" x2="900.0" y2="519.0" stroke="#999"/>
<text x="900.0" y="531.0" text-anchor="end" fill="#e8731a" transform="rotate(-50 900.0 531.0)">07-06</text>
<line x1="929.7" y1="516.0" x2="929.7" y2="519.0" stroke="#999"/>
<text x="929.7" y="531.0" text-anchor="end" fill="#e8731a" transform="rotate(-50 929.7 531.0)">07-07</text>
<line x1="959.4" y1="516.0" x2="959.4" y2="519.0" stroke="#999"/>
<text x="959.4" y="531.0" text-anchor="end" fill="#e8731a" transform="rotate(-50 959.4 531.0)">07-08</text>
<line x1="989.1" y1="516.0" x2="989.1" y2="519.0" stroke="#999"/>
<text x="989.1" y="531.0" text-anchor="end" fill="#e8731a" transform="rotate(-50 989.1 531.0)">07-09</text>
<line x1="1018.9" y1="516.0" x2="1018.9" y2="519.0" stroke="#999"/>
<text x="1018.9" y="531.0" text-anchor="end" fill="#e8731a" transform="rotate(-50 1018.9 531.0)">07-10</text>
<line x1="1048.6" y1="516.0" x2="1048.6" y2="519.0" stroke="#999"/>
<text x="1048.6" y="531.0" text-anchor="end" fill="#e8731a" transform="rotate(-50 1048.6 531.0)">07-11</text>
<line x1="1078.3" y1="516.0" x2="1078.3" y2="519.0" stroke="#999"/>
<text x="1078.3" y="531.0" text-anchor="end" fill="#e8731a" transform="rotate(-50 1078.3 531.0)">07-14</text>
<line x1="1108.0" y1="516.0" x2="1108.0" y2="519.0" stroke="#999"/>
<text x="1108.0" y="531.0" text-anchor="end" fill="#e8731a" transform="rotate(-50 1108.0 531.0)">07-15</text>
<polygon points="68.0,515.6 97.7,515.6 127.4,515.5 157.1,515.6 186.9,515.6 216.6,515.6 246.3,515.6 276.0,515.6 305.7,515.6 335.4,515.6 365.1,515.6 394.9,515.6 424.6,515.6 454.3,515.6 484.0,515.6 513.7,515.6 543.4,515.6 573.1,515.6 602.9,515.6 632.6,515.6 662.3,515.6 692.0,515.5 721.7,515.5 751.4,515.6 781.1,515.6 810.9,515.6 840.6,515.6 870.3,515.6 900.0,515.6 929.7,515.6 959.4,515.6 989.1,515.6 1018.9,515.6 1048.6,515.6 1078.3,515.6 1108.0,515.7 1108.0,516.0 1078.3,516.0 1048.6,516.0 1018.9,516.0 989.1,516.0 959.4,516.0 929.7,516.0 900.0,516.0 870.3,516.0 840.6,516.0 810.9,516.0 781.1,516.0 751.4,516.0 721.7,516.0 692.0,516.0 662.3,516.0 632.6,516.0 602.9,516.0 573.1,516.0 543.4,516.0 513.7,516.0 484.0,516.0 454.3,516.0 424.6,516.0 394.9,516.0 365.1,516.0 335.4,516.0 305.7,516.0 276.0,516.0 246.3,516.0 216.6,516.0 186.9,516.0 157.1,516.0 127.4,516.0 97.7,516.0 68.0,516.0" fill="#c7e9c0" fill-opacity="0.9" stroke="#fff" stroke-width="0.4"><title>emit_cuda — parseTranslationUnit</title></polygon>
<polygon points="68.0,497.9 97.7,494.2 127.4,490.4 157.1,490.9 186.9,492.4 216.6,493.3 246.3,493.6 276.0,493.9 305.7,493.6 335.4,493.0 365.1,493.0 394.9,492.7 424.6,491.7 454.3,491.6 484.0,491.3 513.7,489.8 543.4,486.6 573.1,484.2 602.9,485.5 632.6,485.1 662.3,502.5 692.0,499.9 721.7,500.6 751.4,500.7 781.1,500.4 810.9,501.0 840.6,500.5 870.3,500.3 900.0,500.5 929.7,501.7 959.4,500.1 989.1,501.5 1018.9,501.0 1048.6,501.4 1078.3,499.9 1108.0,502.4 1108.0,515.7 1078.3,515.6 1048.6,515.6 1018.9,515.6 989.1,515.6 959.4,515.6 929.7,515.6 900.0,515.6 870.3,515.6 840.6,515.6 810.9,515.6 781.1,515.6 751.4,515.6 721.7,515.5 692.0,515.5 662.3,515.6 632.6,515.6 602.9,515.6 573.1,515.6 543.4,515.6 513.7,515.6 484.0,515.6 454.3,515.6 424.6,515.6 394.9,515.6 365.1,515.6 335.4,515.6 305.7,515.6 276.0,515.6 246.3,515.6 216.6,515.6 186.9,515.6 157.1,515.6 127.4,515.5 97.7,515.6 68.0,515.6" fill="#41ab5d" fill-opacity="0.9" stroke="#fff" stroke-width="0.4"><title>emit_cuda — SemanticChecking</title></polygon>
<polygon points="68.0,494.0 97.7,490.3 127.4,486.0 157.1,486.3 186.9,488.2 216.6,489.3 246.3,489.7 276.0,490.0 305.7,489.7 335.4,489.2 365.1,489.2 394.9,488.8 424.6,487.8 454.3,487.7 484.0,487.3 513.7,485.6 543.4,479.8 573.1,476.9 602.9,478.5 632.6,478.1 662.3,496.4 692.0,492.2 721.7,493.4 751.4,494.0 781.1,493.2 810.9,493.8 840.6,493.8 870.3,493.3 900.0,493.5 929.7,495.0 959.4,493.2 989.1,494.3 1018.9,497.0 1048.6,497.3 1078.3,495.3 1108.0,498.5 1108.0,502.4 1078.3,499.9 1048.6,501.4 1018.9,501.0 989.1,501.5 959.4,500.1 929.7,501.7 900.0,500.5 870.3,500.3 840.6,500.5 810.9,501.0 781.1,500.4 751.4,500.7 721.7,500.6 692.0,499.9 662.3,502.5 632.6,485.1 602.9,485.5 573.1,484.2 543.4,486.6 513.7,489.8 484.0,491.3 454.3,491.6 424.6,491.7 394.9,492.7 365.1,493.0 335.4,493.0 305.7,493.6 276.0,493.9 246.3,493.6 216.6,493.3 186.9,492.4 157.1,490.9 127.4,490.4 97.7,494.2 68.0,497.9" fill="#006d2c" fill-opacity="0.9" stroke="#fff" stroke-width="0.4"><title>emit_cuda — generateIR</title></polygon>
<polygon points="68.0,493.9 97.7,490.3 127.4,485.7 157.1,486.3 186.9,488.0 216.6,489.1 246.3,489.5 276.0,489.9 305.7,489.6 335.4,489.1 365.1,489.1 394.9,488.7 424.6,487.7 454.3,487.5 484.0,487.0 513.7,485.6 543.4,479.5 573.1,476.2 602.9,478.5 632.6,478.0 662.3,496.2 692.0,492.2 721.7,493.4 751.4,493.7 781.1,492.9 810.9,493.6 840.6,493.2 870.3,493.1 900.0,493.4 929.7,494.8 959.4,493.1 989.1,494.0 1018.9,496.9 1048.6,497.1 1078.3,495.2 1108.0,498.4 1108.0,498.5 1078.3,495.3 1048.6,497.3 1018.9,497.0 989.1,494.3 959.4,493.2 929.7,495.0 900.0,493.5 870.3,493.3 840.6,493.8 810.9,493.8 781.1,493.2 751.4,494.0 721.7,493.4 692.0,492.2 662.3,496.4 632.6,478.1 602.9,478.5 573.1,476.9 543.4,479.8 513.7,485.6 484.0,487.3 454.3,487.7 424.6,487.8 394.9,488.8 365.1,489.2 335.4,489.2 305.7,489.7 276.0,490.0 246.3,489.7 216.6,489.3 186.9,488.2 157.1,486.3 127.4,486.0 97.7,490.3 68.0,494.0" fill="#74c476" fill-opacity="0.9" stroke="#fff" stroke-width="0.4"><title>emit_cuda — frontEndExecute (self)</title></polygon>
<polygon points="68.0,492.3 97.7,488.8 127.4,484.1 157.1,484.7 186.9,486.3 216.6,487.4 246.3,488.0 276.0,488.5 305.7,488.2 335.4,487.6 365.1,485.8 394.9,485.5 424.6,484.3 454.3,484.3 484.0,483.7 513.7,482.2 543.4,466.0 573.1,463.3 602.9,466.3 632.6,465.1 662.3,484.6 692.0,475.9 721.7,480.9 751.4,481.7 781.1,480.4 810.9,481.2 840.6,480.9 870.3,481.0 900.0,481.5 929.7,481.4 959.4,478.5 989.1,480.4 1018.9,491.2 1048.6,491.4 1078.3,489.0 1108.0,493.3 1108.0,498.4 1078.3,495.2 1048.6,497.1 1018.9,496.9 989.1,494.0 959.4,493.1 929.7,494.8 900.0,493.4 870.3,493.1 840.6,493.2 810.9,493.6 781.1,492.9 751.4,493.7 721.7,493.4 692.0,492.2 662.3,496.2 632.6,478.0 602.9,478.5 573.1,476.2 543.4,479.5 513.7,485.6 484.0,487.0 454.3,487.5 424.6,487.7 394.9,488.7 365.1,489.1 335.4,489.1 305.7,489.6 276.0,489.9 246.3,489.5 216.6,489.1 186.9,488.0 157.1,486.3 127.4,485.7 97.7,490.3 68.0,493.9" fill="#6baed6" fill-opacity="0.9" stroke="#fff" stroke-width="0.4"><title>emit_cuda — specializeModule</title></polygon>
<polygon points="68.0,488.2 97.7,484.6 127.4,479.5 157.1,480.2 186.9,481.9 216.6,483.1 246.3,483.7 276.0,484.4 305.7,484.0 335.4,483.3 365.1,482.2 394.9,481.7 424.6,480.6 454.3,480.6 484.0,480.0 513.7,478.3 543.4,427.2 573.1,419.0 602.9,426.6 632.6,425.5 662.3,446.2 692.0,430.9 721.7,439.3 751.4,441.6 781.1,439.0 810.9,439.9 840.6,440.0 870.3,440.3 900.0,442.4 929.7,441.7 959.4,436.9 989.1,440.5 1018.9,485.4 1048.6,485.5 1078.3,482.9 1108.0,487.4 1108.0,493.3 1078.3,489.0 1048.6,491.4 1018.9,491.2 989.1,480.4 959.4,478.5 929.7,481.4 900.0,481.5 870.3,481.0 840.6,480.9 810.9,481.2 781.1,480.4 751.4,481.7 721.7,480.9 692.0,475.9 662.3,484.6 632.6,465.1 602.9,466.3 573.1,463.3 543.4,466.0 513.7,482.2 484.0,483.7 454.3,484.3 424.6,484.3 394.9,485.5 365.1,485.8 335.4,487.6 305.7,488.2 276.0,488.5 246.3,488.0 216.6,487.4 186.9,486.3 157.1,484.7 127.4,484.1 97.7,488.8 68.0,492.3" fill="#2171b5" fill-opacity="0.9" stroke="#fff" stroke-width="0.4"><title>emit_cuda — simplifyIR</title></polygon>
<polygon points="68.0,487.3 97.7,483.9 127.4,478.3 157.1,479.2 186.9,480.9 216.6,482.2 246.3,482.9 276.0,483.5 305.7,483.2 335.4,482.6 365.1,481.5 394.9,481.0 424.6,479.8 454.3,479.8 484.0,479.2 513.7,477.3 543.4,418.9 573.1,407.4 602.9,416.2 632.6,414.5 662.3,445.4 692.0,430.0 721.7,438.6 751.4,440.8 781.1,438.1 810.9,439.1 840.6,439.3 870.3,439.5 900.0,441.7 929.7,441.0 959.4,436.2 989.1,439.8 1018.9,484.8 1048.6,484.8 1078.3,482.2 1108.0,486.8 1108.0,487.4 1078.3,482.9 1048.6,485.5 1018.9,485.4 989.1,440.5 959.4,436.9 929.7,441.7 900.0,442.4 870.3,440.3 840.6,440.0 810.9,439.9 781.1,439.0 751.4,441.6 721.7,439.3 692.0,430.9 662.3,446.2 632.6,425.5 602.9,426.6 573.1,419.0 543.4,427.2 513.7,478.3 484.0,480.0 454.3,480.6 424.6,480.6 394.9,481.7 365.1,482.2 335.4,483.3 305.7,484.0 276.0,484.4 246.3,483.7 216.6,483.1 186.9,481.9 157.1,480.2 127.4,479.5 97.7,484.6 68.0,488.2" fill="#08306b" fill-opacity="0.9" stroke="#fff" stroke-width="0.4"><title>emit_cuda — linkIR</title></polygon>
<polygon points="68.0,487.3 97.7,483.9 127.4,478.3 157.1,479.2 186.9,480.9 216.6,482.2 246.3,482.9 276.0,483.5 305.7,483.2 335.4,482.6 365.1,481.5 394.9,481.0 424.6,479.8 454.3,479.8 484.0,479.2 513.7,477.3 543.4,418.9 573.1,407.4 602.9,416.2 632.6,414.5 662.3,445.4 692.0,430.0 721.7,438.6 751.4,440.8 781.1,438.1 810.9,439.1 840.6,439.3 870.3,439.5 900.0,441.7 929.7,441.0 959.4,436.2 989.1,439.8 1018.9,484.8 1048.6,484.8 1078.3,482.2 1108.0,486.8 1108.0,486.8 1078.3,482.2 1048.6,484.8 1018.9,484.8 989.1,439.8 959.4,436.2 929.7,441.0 900.0,441.7 870.3,439.5 840.6,439.3 810.9,439.1 781.1,438.1 751.4,440.8 721.7,438.6 692.0,430.0 662.3,445.4 632.6,414.5 602.9,416.2 573.1,407.4 543.4,418.9 513.7,477.3 484.0,479.2 454.3,479.8 424.6,479.8 394.9,481.0 365.1,481.5 335.4,482.6 305.7,483.2 276.0,483.5 246.3,482.9 216.6,482.2 186.9,480.9 157.1,479.2 127.4,478.3 97.7,483.9 68.0,487.3" fill="#9e9ac8" fill-opacity="0.9" stroke="#fff" stroke-width="0.4"><title>emit_cuda — unrollLoopsInModule</title></polygon>
<polygon points="68.0,487.2 97.7,483.8 127.4,478.1 157.1,479.0 186.9,480.7 216.6,482.0 246.3,482.8 276.0,483.4 305.7,483.0 335.4,482.4 365.1,481.3 394.9,480.8 424.6,479.6 454.3,479.7 484.0,479.0 513.7,477.1 543.4,418.8 573.1,407.3 602.9,416.1 632.6,414.4 662.3,445.3 692.0,429.8 721.7,438.4 751.4,440.7 781.1,438.0 810.9,438.9 840.6,439.1 870.3,439.4 900.0,441.6 929.7,440.8 959.4,436.1 989.1,439.6 1018.9,484.6 1048.6,484.7 1078.3,482.0 1108.0,486.6 1108.0,486.8 1078.3,482.2 1048.6,484.8 1018.9,484.8 989.1,439.8 959.4,436.2 929.7,441.0 900.0,441.7 870.3,439.5 840.6,439.3 810.9,439.1 781.1,438.1 751.4,440.8 721.7,438.6 692.0,430.0 662.3,445.4 632.6,414.5 602.9,416.2 573.1,407.4 543.4,418.9 513.7,477.3 484.0,479.2 454.3,479.8 424.6,479.8 394.9,481.0 365.1,481.5 335.4,482.6 305.7,483.2 276.0,483.5 246.3,482.9 216.6,482.2 186.9,480.9 157.1,479.2 127.4,478.3 97.7,483.9 68.0,487.3" fill="#bcbddc" fill-opacity="0.9" stroke="#fff" stroke-width="0.4"><title>emit_cuda — performMandatoryEarlyInlining</title></polygon>
<polygon points="68.0,487.1 97.7,483.7 127.4,478.0 157.1,478.9 186.9,480.6 216.6,481.9 246.3,482.7 276.0,483.3 305.7,482.9 335.4,482.3 365.1,481.2 394.9,480.7 424.6,479.5 454.3,479.6 484.0,478.9 513.7,477.0 543.4,418.7 573.1,407.2 602.9,416.0 632.6,414.3 662.3,445.2 692.0,429.7 721.7,438.3 751.4,440.6 781.1,437.9 810.9,438.8 840.6,439.0 870.3,439.3 900.0,441.5 929.7,440.7 959.4,435.9 989.1,439.5 1018.9,484.5 1048.6,484.5 1078.3,481.9 1108.0,486.5 1108.0,486.6 1078.3,482.0 1048.6,484.7 1018.9,484.6 989.1,439.6 959.4,436.1 929.7,440.8 900.0,441.6 870.3,439.4 840.6,439.1 810.9,438.9 781.1,438.0 751.4,440.7 721.7,438.4 692.0,429.8 662.3,445.3 632.6,414.4 602.9,416.1 573.1,407.3 543.4,418.8 513.7,477.1 484.0,479.0 454.3,479.7 424.6,479.6 394.9,480.8 365.1,481.3 335.4,482.4 305.7,483.0 276.0,483.4 246.3,482.8 216.6,482.0 186.9,480.7 157.1,479.0 127.4,478.1 97.7,483.8 68.0,487.2" fill="#dadaeb" fill-opacity="0.9" stroke="#fff" stroke-width="0.4"><title>emit_cuda — performForceInlining</title></polygon>
<polygon points="68.0,334.3 97.7,329.7 127.4,298.0 157.1,311.7 186.9,440.2 216.6,444.6 246.3,446.3 276.0,446.7 305.7,446.4 335.4,444.6 365.1,444.7 394.9,444.5 424.6,443.0 454.3,443.2 484.0,442.3 513.7,438.1 543.4,362.7 573.1,339.8 602.9,359.2 632.6,357.4 662.3,382.3 692.0,352.1 721.7,363.0 751.4,373.9 781.1,371.4 810.9,376.9 840.6,375.7 870.3,375.3 900.0,378.1 929.7,380.2 959.4,368.1 989.1,375.8 1018.9,455.8 1048.6,454.9 1078.3,452.4 1108.0,456.8 1108.0,486.5 1078.3,481.9 1048.6,484.5 1018.9,484.5 989.1,439.5 959.4,435.9 929.7,440.7 900.0,441.5 870.3,439.3 840.6,439.0 810.9,438.8 781.1,437.9 751.4,440.6 721.7,438.3 692.0,429.7 662.3,445.2 632.6,414.3 602.9,416.0 573.1,407.2 543.4,418.7 513.7,477.0 484.0,478.9 454.3,479.6 424.6,479.5 394.9,480.7 365.1,481.2 335.4,482.3 305.7,482.9 276.0,483.3 246.3,482.7 216.6,481.9 186.9,480.6 157.1,478.9 127.4,478.0 97.7,483.7 68.0,487.1" fill="#4a1486" fill-opacity="0.9" stroke="#fff" stroke-width="0.4"><title>emit_cuda — linkAndOptimizeIR (self)</title></polygon>
<polygon points="68.0,173.3 97.7,167.6 127.4,108.6 157.1,135.5 186.9,390.9 216.6,398.5 246.3,401.5 276.0,402.0 305.7,401.6 335.4,398.5 365.1,398.6 394.9,398.7 424.6,396.7 454.3,397.3 484.0,396.0 513.7,389.0 543.4,240.7 573.1,196.9 602.9,234.3 632.6,231.3 662.3,262.9 692.0,206.1 721.7,226.9 751.4,248.2 781.1,244.1 810.9,254.5 840.6,252.4 870.3,251.9 900.0,257.4 929.7,260.1 959.4,237.5 989.1,251.9 1018.9,409.0 1048.6,406.9 1078.3,402.4 1108.0,409.5 1108.0,456.8 1078.3,452.4 1048.6,454.9 1018.9,455.8 989.1,375.8 959.4,368.1 929.7,380.2 900.0,378.1 870.3,375.3 840.6,375.7 810.9,376.9 781.1,371.4 751.4,373.9 721.7,363.0 692.0,352.1 662.3,382.3 632.6,357.4 602.9,359.2 573.1,339.8 543.4,362.7 513.7,438.1 484.0,442.3 454.3,443.2 424.6,443.0 394.9,444.5 365.1,444.7 335.4,444.6 305.7,446.4 276.0,446.7 246.3,446.3 216.6,444.6 186.9,440.2 157.1,311.7 127.4,298.0 97.7,329.7 68.0,334.3" fill="#fd8d3c" fill-opacity="0.9" stroke="#fff" stroke-width="0.4"><title>emit_cuda — emitEntryPointsSourceFromIR</title></polygon>
<polygon points="68.0,173.3 97.7,167.4 127.4,108.6 157.1,134.4 186.9,389.2 216.6,398.5 246.3,401.5 276.0,401.8 305.7,401.3 335.4,398.5 365.1,398.3 394.9,398.7 424.6,396.7 454.3,397.0 484.0,396.0 513.7,389.0 543.4,240.7 573.1,196.8 602.9,234.3 632.6,230.4 662.3,262.9 692.0,200.7 721.7,225.4 751.4,248.1 781.1,243.7 810.9,253.9 840.6,252.4 870.3,250.7 900.0,257.1 929.7,260.0 959.4,235.4 989.1,251.9 1018.9,408.8 1048.6,406.8 1078.3,402.4 1108.0,409.4 1108.0,409.5 1078.3,402.4 1048.6,406.9 1018.9,409.0 989.1,251.9 959.4,237.5 929.7,260.1 900.0,257.4 870.3,251.9 840.6,252.4 810.9,254.5 781.1,244.1 751.4,248.2 721.7,226.9 692.0,206.1 662.3,262.9 632.6,231.3 602.9,234.3 573.1,196.9 543.4,240.7 513.7,389.0 484.0,396.0 454.3,397.3 424.6,396.7 394.9,398.7 365.1,398.6 335.4,398.5 305.7,401.6 276.0,402.0 246.3,401.5 216.6,398.5 186.9,390.9 157.1,135.5 127.4,108.6 97.7,167.6 68.0,173.3" fill="#969696" fill-opacity="0.9" stroke="#fff" stroke-width="0.4"><title>emit_cuda — compileInner (self)</title></polygon>
<text x="12" y="578" fill="#666" font-weight="600">phase buckets</text>
<rect x="12" y="586" width="12" height="12" fill="#c7e9c0"/>
<text x="28" y="596" fill="#222">parseTranslationUnit</text>
<rect x="289" y="586" width="12" height="12" fill="#41ab5d"/>
<text x="305" y="596" fill="#222">SemanticChecking</text>
<rect x="566" y="586" width="12" height="12" fill="#006d2c"/>
<text x="582" y="596" fill="#222">generateIR</text>
<rect x="843" y="586" width="12" height="12" fill="#74c476"/>
<text x="859" y="596" fill="#222">frontEndExecute (self)</text>
<rect x="12" y="604" width="12" height="12" fill="#6baed6"/>
<text x="28" y="614" fill="#222">specializeModule</text>
<rect x="289" y="604" width="12" height="12" fill="#2171b5"/>
<text x="305" y="614" fill="#222">simplifyIR</text>
<rect x="566" y="604" width="12" height="12" fill="#08306b"/>
<text x="582" y="614" fill="#222">linkIR</text>
<rect x="843" y="604" width="12" height="12" fill="#9e9ac8"/>
<text x="859" y="614" fill="#222">unrollLoopsInModule</text>
<rect x="12" y="622" width="12" height="12" fill="#807dba"/>
<text x="28" y="632" fill="#222">legalizeResourceTypes</text>
<rect x="289" y="622" width="12" height="12" fill="#6a51a3"/>
<text x="305" y="632" fill="#222">legalizeExistentialTypeLayout</text>
<rect x="566" y="622" width="12" height="12" fill="#bcbddc"/>
<text x="582" y="632" fill="#222">performMandatoryEarlyInlining</text>
<rect x="843" y="622" width="12" height="12" fill="#dadaeb"/>
<text x="859" y="632" fill="#222">performForceInlining</text>
<rect x="12" y="640" width="12" height="12" fill="#4a1486"/>
<text x="28" y="650" fill="#222">linkAndOptimizeIR (self)</text>
<rect x="289" y="640" width="12" height="12" fill="#fd8d3c"/>
<text x="305" y="650" fill="#222">emitEntryPointsSourceFromIR</text>
<rect x="566" y="640" width="12" height="12" fill="#e6550d"/>
<text x="582" y="650" fill="#222">generateOutput (self)</text>
<rect x="843" y="640" width="12" height="12" fill="#969696"/>
<text x="859" y="650" fill="#222">compileInner (self)</text>
</svg>