<svg xmlns="http://www.w3.org/2000/svg" xmlns:xlink="http://www.w3.org/1999/xlink" width="1132" height="680" viewBox="0 0 1132 680" preserveAspectRatio="xMidYMid meet" font-family="sans-serif" font-size="13">
<rect width="1132" height="680" fill="white"/>
<text x="12" y="30" font-size="20" font-weight="bold">emit_wgsl — full phase breakdown across releases (median ms)</text>
<text x="68" y="60" font-size="15" font-weight="600" fill="#1a1a1a">emit_wgsl<tspan fill="#888" font-weight="400" text-decoration="none">  0.20×</tspan></text>
<line x1="68.0" y1="516.0" x2="1108.0" y2="516.0" stroke="#eee"/>
<text x="64.0" y="519.0" text-anchor="end" fill="#999">0.0</text>
<line x1="68.0" y1="296.0" x2="1108.0" y2="296.0" stroke="#eee"/>
<text x="64.0" y="299.0" text-anchor="end" fill="#999">1007</text>
<line x1="68.0" y1="76.0" x2="1108.0" y2="76.0" stroke="#eee"/>
<text x="64.0" y="79.0" text-anchor="end" fill="#999">2013</text>
<line x1="68.0" y1="76.0" x2="68.0" y2="516.0" stroke="#333"/>
<line x1="68.0" y1="516.0" x2="1108.0" y2="516.0" stroke="#333"/>
<line x1="725.6" y1="76.0" x2="725.6" y2="516.0" stroke="#e8731a" stroke-width="1.2" stroke-dasharray="4 3"/>
<text x="728.6" y="87.0" fill="#e8731a" font-size="11">daily →</text>
<line x1="68.0" y1="516.0" x2="68.0" y2="519.0" stroke="#999"/>
<text x="68.0" y="531.0" text-anchor="end" fill="#666" transform="rotate(-50 68.0 531.0)">25.14</text>
<line x1="98.6" y1="516.0" x2="98.6" y2="519.0" stroke="#999"/>
<text x="98.6" y="531.0" text-anchor="end" fill="#666" transform="rotate(-50 98.6 531.0)">25.15</text>
<line x1="129.2" y1="516.0" x2="129.2" y2="519.0" stroke="#999"/>
<text x="129.2" y="531.0" text-anchor="end" fill="#666" transform="rotate(-50 129.2 531.0)">25.16</text>
<line x1="159.8" y1="516.0" x2="159.8" y2="519.0" stroke="#999"/>
<text x="159.8" y="531.0" text-anchor="end" fill="#666" transform="rotate(-50 159.8 531.0)">25.17</text>
<line x1="190.4" y1="516.0" x2="190.4" y2="519.0" stroke="#999"/>
<text x="190.4" y="531.0" text-anchor="end" fill="#666" transform="rotate(-50 190.4 531.0)">25.18</text>
<line x1="220.9" y1="516.0" x2="220.9" y2="519.0" stroke="#999"/>
<text x="220.9" y="531.0" text-anchor="end" fill="#666" transform="rotate(-50 220.9 531.0)">25.19</text>
<line x1="251.5" y1="516.0" x2="251.5" y2="519.0" stroke="#999"/>
<text x="251.5" y="531.0" text-anchor="end" fill="#666" transform="rotate(-50 251.5 531.0)">25.20</text>
<line x1="282.1" y1="516.0" x2="282.1" y2="519.0" stroke="#999"/>
<text x="282.1" y="531.0" text-anchor="end" fill="#666" transform="rotate(-50 282.1 531.0)">25.21</text>
<line x1="312.7" y1="516.0" x2="312.7" y2="519.0" stroke="#999"/>
<text x="312.7" y="531.0" text-anchor="end" fill="#666" transform="rotate(-50 312.7 531.0)">25.22</text>
<line x1="343.3" y1="516.0" x2="343.3" y2="519.0" stroke="#999"/>
<text x="343.3" y="531.0" text-anchor="end" fill="#666" transform="rotate(-50 343.3 531.0)">25.23</text>
<line x1="373.9" y1="516.0" x2="373.9" y2="519.0" stroke="#999"/>
<text x="373.9" y="531.0" text-anchor="end" fill="#666" transform="rotate(-50 373.9 531.0)">25.24</text>
<line x1="404.5" y1="516.0" x2="404.5" y2="519.0" stroke="#999"/>
<text x="404.5" y="531.0" text-anchor="end" fill="#666" transform="rotate(-50 404.5 531.0)">26.1</text>
<line x1="435.1" y1="516.0" x2="435.1" y2="519.0" stroke="#999"/>
<text x="435.1" y="531.0" text-anchor="end" fill="#666" transform="rotate(-50 435.1 531.0)">26.2</text>
<line x1="465.6" y1="516.0" x2="465.6" y2="519.0" stroke="#999"/>
<text x="465.6" y="531.0" text-anchor="end" fill="#666" transform="rotate(-50 465.6 531.0)">26.3</text>
<line x1="496.2" y1="516.0" x2="496.2" y2="519.0" stroke="#999"/>
<text x="496.2" y="531.0" text-anchor="end" fill="#666" transform="rotate(-50 496.2 531.0)">26.4</text>
<line x1="526.8" y1="516.0" x2="526.8" y2="519.0" stroke="#999"/>
<text x="526.8" y="531.0" text-anchor="end" fill="#666" transform="rotate(-50 526.8 531.0)">26.5</text>
<line x1="557.4" y1="516.0" x2="557.4" y2="519.0" stroke="#999"/>
<text x="557.4" y="531.0" text-anchor="end" fill="#666" transform="rotate(-50 557.4 531.0)">26.7</text>
<line x1="588.0" y1="516.0" x2="588.0" y2="519.0" stroke="#999"/>
<text x="588.0" y="531.0" text-anchor="end" fill="#666" transform="rotate(-50 588.0 531.0)">26.8</text>
<line x1="618.6" y1="516.0" x2="618.6" y2="519.0" stroke="#999"/>
<text x="618.6" y="531.0" text-anchor="end" fill="#666" transform="rotate(-50 618.6 531.0)">26.9</text>
<line x1="649.2" y1="516.0" x2="649.2" y2="519.0" stroke="#999"/>
<text x="649.2" y="531.0" text-anchor="end" fill="#666" transform="rotate(-50 649.2 531.0)">26.10</text>
<line x1="679.8" y1="516.0" x2="679.8" y2="519.0" stroke="#999"/>
<text x="679.8" y="531.0" text-anchor="end" fill="#666" transform="rotate(-50 679.8 531.0)">26.11</text>
<line x1="710.4" y1="516.0" x2="710.4" y2="519.0" stroke="#999"/>
<text x="710.4" y="531.0" text-anchor="end" fill="#666" transform="rotate(-50 710.4 531.0)">26.12</text>
<line x1="740.9" y1="516.0" x2="740.9" y2="519.0" stroke="#999"/>
<text x="740.9" y="531.0" text-anchor="end" fill="#e8731a" transform="rotate(-50 740.9 531.0)">06-25</text>
<line x1="771.5" y1="516.0" x2="771.5" y2="519.0" stroke="#999"/>
<text x="771.5" y="531.0" text-anchor="end" fill="#e8731a" transform="rotate(-50 771.5 531.0)">06-26</text>
<line x1="802.1" y1="516.0" x2="802.1" y2="519.0" stroke="#999"/>
<text x="802.1" y="531.0" text-anchor="end" fill="#e8731a" transform="rotate(-50 802.1 531.0)">06-28</text>
<line x1="832.7" y1="516.0" x2="832.7" y2="519.0" stroke="#999"/>
<text x="832.7" y="531.0" text-anchor="end" fill="#e8731a" transform="rotate(-50 832.7 531.0)">07-01</text>
<line x1="863.3" y1="516.0" x2="863.3" y2="519.0" stroke="#999"/>
<text x="863.3" y="531.0" text-anchor="end" fill="#e8731a" transform="rotate(-50 863.3 531.0)">07-02</text>
<line x1="893.9" y1="516.0" x2="893.9" y2="519.0" stroke="#999"/>
<text x="893.9" y="531.0" text-anchor="end" fill="#e8731a" transform="rotate(-50 893.9 531.0)">07-03</text>
<line x1="924.5" y1="516.0" x2="924.5" y2="519.0" stroke="#999"/>
<text x="924.5" y="531.0" text-anchor="end" fill="#e8731a" transform="rotate(-50 924.5 531.0)">07-06</text>
<line x1="955.1" y1="516.0" x2="955.1" y2="519.0" stroke="#999"/>
<text x="955.1" y="531.0" text-anchor="end" fill="#e8731a" transform="rotate(-50 955.1 531.0)">07-07</text>
<line x1="985.6" y1="516.0" x2="985.6" y2="519.0" stroke="#999"/>
<text x="985.6" y="531.0" text-anchor="end" fill="#e8731a" transform="rotate(-50 985.6 531.0)">07-08</text>
<line x1="1016.2" y1="516.0" x2="1016.2" y2="519.0" stroke="#999"/>
<text x="1016.2" y="531.0" text-anchor="end" fill="#e8731a" transform="rotate(-50 1016.2 531.0)">07-09</text>
<line x1="1046.8" y1="516.0" x2="1046.8" y2="519.0" stroke="#999"/>
<text x="1046.8" y="531.0" text-anchor="end" fill="#e8731a" transform="rotate(-50 1046.8 531.0)">07-10</text>
<line x1="1077.4" y1="516.0" x2="1077.4" y2="519.0" stroke="#999"/>
<text x="1077.4" y="531.0" text-anchor="end" fill="#e8731a" transform="rotate(-50 1077.4 531.0)">07-11</text>
<line x1="1108.0" y1="516.0" x2="1108.0" y2="519.0" stroke="#999"/>
<text x="1108.0" y="531.0" text-anchor="end" fill="#e8731a" transform="rotate(-50 1108.0 531.0)">07-14</text>
<polygon points="68.0,515.8 98.6,515.8 129.2,515.8 159.8,515.8 190.4,515.8 220.9,515.8 251.5,515.8 282.1,515.8 312.7,515.8 343.3,515.8 373.9,515.8 404.5,515.8 435.1,515.8 465.6,515.8 496.2,515.8 526.8,515.8 557.4,515.8 588.0,515.8 618.6,515.8 649.2,515.8 679.8,515.8 710.4,515.8 740.9,515.8 771.5,515.8 802.1,515.8 832.7,515.8 863.3,515.8 893.9,515.8 924.5,515.8 955.1,515.8 985.6,515.8 1016.2,515.8 1046.8,515.8 1077.4,515.8 1108.0,515.8 1108.0,516.0 1077.4,516.0 1046.8,516.0 1016.2,516.0 985.6,516.0 955.1,516.0 924.5,516.0 893.9,516.0 863.3,516.0 832.7,516.0 802.1,516.0 771.5,516.0 740.9,516.0 710.4,516.0 679.8,516.0 649.2,516.0 618.6,516.0 588.0,516.0 557.4,516.0 526.8,516.0 496.2,516.0 465.6,516.0 435.1,516.0 404.5,516.0 373.9,516.0 343.3,516.0 312.7,516.0 282.1,516.0 251.5,516.0 220.9,516.0 190.4,516.0 159.8,516.0 129.2,516.0 98.6,516.0 68.0,516.0" fill="#c7e9c0" fill-opacity="0.9" stroke="#fff" stroke-width="0.4"><title>emit_wgsl — parseTranslationUnit</title></polygon>
<polygon points="68.0,506.1 98.6,503.6 129.2,502.6 159.8,502.1 190.4,503.4 220.9,503.1 251.5,503.8 282.1,503.8 312.7,503.7 343.3,503.6 373.9,503.6 404.5,503.2 435.1,502.8 465.6,502.5 496.2,502.6 526.8,502.5 557.4,499.6 588.0,497.3 618.6,498.1 649.2,499.3 679.8,508.6 710.4,508.0 740.9,507.8 771.5,507.9 802.1,507.6 832.7,507.8 863.3,507.6 893.9,507.9 924.5,507.8 955.1,508.2 985.6,507.8 1016.2,507.9 1046.8,507.7 1077.4,507.9 1108.0,507.8 1108.0,515.8 1077.4,515.8 1046.8,515.8 1016.2,515.8 985.6,515.8 955.1,515.8 924.5,515.8 893.9,515.8 863.3,515.8 832.7,515.8 802.1,515.8 771.5,515.8 740.9,515.8 710.4,515.8 679.8,515.8 649.2,515.8 618.6,515.8 588.0,515.8 557.4,515.8 526.8,515.8 496.2,515.8 465.6,515.8 435.1,515.8 404.5,515.8 373.9,515.8 343.3,515.8 312.7,515.8 282.1,515.8 251.5,515.8 220.9,515.8 190.4,515.8 159.8,515.8 129.2,515.8 98.6,515.8 68.0,515.8" fill="#41ab5d" fill-opacity="0.9" stroke="#fff" stroke-width="0.4"><title>emit_wgsl — SemanticChecking</title></polygon>
<polygon points="68.0,503.9 98.6,501.4 129.2,500.2 159.8,499.7 190.4,501.1 220.9,500.9 251.5,501.6 282.1,501.6 312.7,501.5 343.3,501.4 373.9,501.5 404.5,501.0 435.1,500.6 465.6,500.4 496.2,500.5 526.8,500.4 557.4,495.8 588.0,493.1 618.6,494.0 649.2,495.5 679.8,505.2 710.4,504.2 740.9,503.9 771.5,504.2 802.1,503.6 832.7,504.1 863.3,503.9 893.9,504.3 924.5,504.2 955.1,504.6 985.6,503.9 1016.2,504.2 1046.8,505.5 1077.4,505.7 1108.0,505.6 1108.0,507.8 1077.4,507.9 1046.8,507.7 1016.2,507.9 985.6,507.8 955.1,508.2 924.5,507.8 893.9,507.9 863.3,507.6 832.7,507.8 802.1,507.6 771.5,507.9 740.9,507.8 710.4,508.0 679.8,508.6 649.2,499.3 618.6,498.1 588.0,497.3 557.4,499.6 526.8,502.5 496.2,502.6 465.6,502.5 435.1,502.8 404.5,503.2 373.9,503.6 343.3,503.6 312.7,503.7 282.1,503.8 251.5,503.8 220.9,503.1 190.4,503.4 159.8,502.1 129.2,502.6 98.6,503.6 68.0,506.1" fill="#006d2c" fill-opacity="0.9" stroke="#fff" stroke-width="0.4"><title>emit_wgsl — generateIR</title></polygon>
<polygon points="68.0,503.9 98.6,501.4 129.2,500.0 159.8,499.6 190.4,501.1 220.9,500.8 251.5,501.6 282.1,501.4 312.7,501.5 343.3,501.3 373.9,501.4 404.5,500.9 435.1,500.6 465.6,500.3 496.2,500.3 526.8,500.3 557.4,495.8 588.0,493.1 618.6,493.7 649.2,495.4 679.8,505.2 710.4,504.2 740.9,503.9 771.5,504.1 802.1,503.5 832.7,504.1 863.3,503.9 893.9,504.2 924.5,504.1 955.1,504.5 985.6,503.8 1016.2,504.1 1046.8,505.5 1077.4,505.6 1108.0,505.6 1108.0,505.6 1077.4,505.7 1046.8,505.5 1016.2,504.2 985.6,503.9 955.1,504.6 924.5,504.2 893.9,504.3 863.3,503.9 832.7,504.1 802.1,503.6 771.5,504.2 740.9,503.9 710.4,504.2 679.8,505.2 649.2,495.5 618.6,494.0 588.0,493.1 557.4,495.8 526.8,500.4 496.2,500.5 465.6,500.4 435.1,500.6 404.5,501.0 373.9,501.5 343.3,501.4 312.7,501.5 282.1,501.6 251.5,501.6 220.9,500.9 190.4,501.1 159.8,499.7 129.2,500.2 98.6,501.4 68.0,503.9" fill="#74c476" fill-opacity="0.9" stroke="#fff" stroke-width="0.4"><title>emit_wgsl — frontEndExecute (self)</title></polygon>
<polygon points="68.0,503.3 98.6,500.8 129.2,499.4 159.8,499.0 190.4,500.5 220.9,500.2 251.5,500.9 282.1,500.8 312.7,500.9 343.3,500.7 373.9,500.3 404.5,499.7 435.1,499.5 465.6,499.2 496.2,499.2 526.8,499.1 557.4,490.4 588.0,487.5 618.6,488.4 649.2,490.5 679.8,500.5 710.4,499.5 740.9,498.8 771.5,499.2 802.1,498.5 832.7,499.1 863.3,498.9 893.9,499.3 924.5,499.3 955.1,499.1 985.6,498.1 1016.2,498.4 1046.8,502.9 1077.4,503.1 1108.0,503.1 1108.0,505.6 1077.4,505.6 1046.8,505.5 1016.2,504.1 985.6,503.8 955.1,504.5 924.5,504.1 893.9,504.2 863.3,503.9 832.7,504.1 802.1,503.5 771.5,504.1 740.9,503.9 710.4,504.2 679.8,505.2 649.2,495.4 618.6,493.7 588.0,493.1 557.4,495.8 526.8,500.3 496.2,500.3 465.6,500.3 435.1,500.6 404.5,500.9 373.9,501.4 343.3,501.3 312.7,501.5 282.1,501.4 251.5,501.6 220.9,500.8 190.4,501.1 159.8,499.6 129.2,500.0 98.6,501.4 68.0,503.9" fill="#6baed6" fill-opacity="0.9" stroke="#fff" stroke-width="0.4"><title>emit_wgsl — specializeModule</title></polygon>
<polygon points="68.0,502.1 98.6,499.5 129.2,498.2 159.8,497.7 190.4,499.2 220.9,498.9 251.5,499.7 282.1,499.7 312.7,499.7 343.3,499.5 373.9,499.2 404.5,498.7 435.1,498.4 465.6,498.1 496.2,498.1 526.8,498.0 557.4,475.1 588.0,470.6 618.6,471.7 649.2,474.6 679.8,485.2 710.4,484.1 740.9,482.1 771.5,483.4 802.1,482.2 832.7,482.8 863.3,483.0 893.9,483.5 924.5,483.7 955.1,483.3 985.6,481.7 1016.2,481.8 1046.8,500.4 1077.4,500.5 1108.0,500.5 1108.0,503.1 1077.4,503.1 1046.8,502.9 1016.2,498.4 985.6,498.1 955.1,499.1 924.5,499.3 893.9,499.3 863.3,498.9 832.7,499.1 802.1,498.5 771.5,499.2 740.9,498.8 710.4,499.5 679.8,500.5 649.2,490.5 618.6,488.4 588.0,487.5 557.4,490.4 526.8,499.1 496.2,499.2 465.6,499.2 435.1,499.5 404.5,499.7 373.9,500.3 343.3,500.7 312.7,500.9 282.1,500.8 251.5,500.9 220.9,500.2 190.4,500.5 159.8,499.0 129.2,499.4 98.6,500.8 68.0,503.3" fill="#2171b5" fill-opacity="0.9" stroke="#fff" stroke-width="0.4"><title>emit_wgsl — simplifyIR</title></polygon>
<polygon points="68.0,501.9 98.6,499.3 129.2,497.9 159.8,497.5 190.4,498.9 220.9,498.6 251.5,499.5 282.1,499.4 312.7,499.5 343.3,499.3 373.9,499.0 404.5,498.4 435.1,498.2 465.6,497.9 496.2,497.9 526.8,497.8 557.4,472.0 588.0,466.1 618.6,467.3 649.2,470.4 679.8,484.9 710.4,483.8 740.9,481.8 771.5,483.1 802.1,481.9 832.7,482.5 863.3,482.7 893.9,483.2 924.5,483.4 955.1,483.0 985.6,481.4 1016.2,481.5 1046.8,500.1 1077.4,500.3 1108.0,500.3 1108.0,500.5 1077.4,500.5 1046.8,500.4 1016.2,481.8 985.6,481.7 955.1,483.3 924.5,483.7 893.9,483.5 863.3,483.0 832.7,482.8 802.1,482.2 771.5,483.4 740.9,482.1 710.4,484.1 679.8,485.2 649.2,474.6 618.6,471.7 588.0,470.6 557.4,475.1 526.8,498.0 496.2,498.1 465.6,498.1 435.1,498.4 404.5,498.7 373.9,499.2 343.3,499.5 312.7,499.7 282.1,499.7 251.5,499.7 220.9,498.9 190.4,499.2 159.8,497.7 129.2,498.2 98.6,499.5 68.0,502.1" fill="#08306b" fill-opacity="0.9" stroke="#fff" stroke-width="0.4"><title>emit_wgsl — linkIR</title></polygon>
<polygon points="68.0,501.9 98.6,499.3 129.2,497.9 159.8,497.5 190.4,498.9 220.9,498.6 251.5,499.5 282.1,499.4 312.7,499.5 343.3,499.3 373.9,499.0 404.5,498.4 435.1,498.2 465.6,497.9 496.2,497.9 526.8,497.8 557.4,472.0 588.0,466.1 618.6,467.3 649.2,470.4 679.8,484.9 710.4,483.8 740.9,481.8 771.5,483.1 802.1,481.9 832.7,482.5 863.3,482.7 893.9,483.2 924.5,483.4 955.1,483.0 985.6,481.4 1016.2,481.5 1046.8,500.1 1077.4,500.3 1108.0,500.3 1108.0,500.3 1077.4,500.3 1046.8,500.1 1016.2,481.5 985.6,481.4 955.1,483.0 924.5,483.4 893.9,483.2 863.3,482.7 832.7,482.5 802.1,481.9 771.5,483.1 740.9,481.8 710.4,483.8 679.8,484.9 649.2,470.4 618.6,467.3 588.0,466.1 557.4,472.0 526.8,497.8 496.2,497.9 465.6,497.9 435.1,498.2 404.5,498.4 373.9,499.0 343.3,499.3 312.7,499.5 282.1,499.4 251.5,499.5 220.9,498.6 190.4,498.9 159.8,497.5 129.2,497.9 98.6,499.3 68.0,501.9" fill="#9e9ac8" fill-opacity="0.9" stroke="#fff" stroke-width="0.4"><title>emit_wgsl — unrollLoopsInModule</title></polygon>
<polygon points="68.0,415.8 98.6,411.0 129.2,401.0 159.8,402.7 190.4,476.2 220.9,477.1 251.5,478.5 282.1,478.0 312.7,478.4 343.3,478.6 373.9,478.1 404.5,477.5 435.1,477.2 465.6,476.8 496.2,477.0 526.8,476.7 557.4,443.1 588.0,432.7 618.6,434.7 649.2,440.0 679.8,454.6 710.4,452.3 740.9,449.4 771.5,452.3 802.1,450.0 832.7,451.7 863.3,451.8 893.9,452.6 924.5,452.2 955.1,453.4 985.6,450.3 1016.2,449.0 1046.8,488.5 1077.4,488.6 1108.0,488.7 1108.0,500.3 1077.4,500.3 1046.8,500.1 1016.2,481.5 985.6,481.4 955.1,483.0 924.5,483.4 893.9,483.2 863.3,482.7 832.7,482.5 802.1,481.9 771.5,483.1 740.9,481.8 710.4,483.8 679.8,484.9 649.2,470.4 618.6,467.3 588.0,466.1 557.4,472.0 526.8,497.8 496.2,497.9 465.6,497.9 435.1,498.2 404.5,498.4 373.9,499.0 343.3,499.3 312.7,499.5 282.1,499.4 251.5,499.5 220.9,498.6 190.4,498.9 159.8,497.5 129.2,497.9 98.6,499.3 68.0,501.9" fill="#807dba" fill-opacity="0.9" stroke="#fff" stroke-width="0.4"><title>emit_wgsl — legalizeResourceTypes</title></polygon>
<polygon points="68.0,329.5 98.6,322.0 129.2,305.5 159.8,306.9 190.4,452.5 220.9,455.0 251.5,457.5 282.1,456.5 312.7,457.5 343.3,457.4 373.9,456.8 404.5,456.4 435.1,456.0 465.6,455.5 496.2,456.0 526.8,455.5 557.4,413.3 588.0,399.7 618.6,398.9 649.2,409.5 679.8,423.5 710.4,421.3 740.9,416.7 771.5,421.1 802.1,418.3 832.7,420.6 863.3,420.5 893.9,421.2 924.5,421.0 955.1,422.9 985.6,419.1 1016.2,417.5 1046.8,476.8 1077.4,476.7 1108.0,476.8 1108.0,488.7 1077.4,488.6 1046.8,488.5 1016.2,449.0 985.6,450.3 955.1,453.4 924.5,452.2 893.9,452.6 863.3,451.8 832.7,451.7 802.1,450.0 771.5,452.3 740.9,449.4 710.4,452.3 679.8,454.6 649.2,440.0 618.6,434.7 588.0,432.7 557.4,443.1 526.8,476.7 496.2,477.0 465.6,476.8 435.1,477.2 404.5,477.5 373.9,478.1 343.3,478.6 312.7,478.4 282.1,478.0 251.5,478.5 220.9,477.1 190.4,476.2 159.8,402.7 129.2,401.0 98.6,411.0 68.0,415.8" fill="#6a51a3" fill-opacity="0.9" stroke="#fff" stroke-width="0.4"><title>emit_wgsl — legalizeExistentialTypeLayout</title></polygon>
<polygon points="68.0,329.5 98.6,322.0 129.2,305.4 159.8,306.9 190.4,452.4 220.9,454.9 251.5,457.5 282.1,456.5 312.7,457.5 343.3,457.4 373.9,456.7 404.5,456.4 435.1,456.0 465.6,455.5 496.2,455.9 526.8,455.5 557.4,413.2 588.0,399.7 618.6,398.8 649.2,409.4 679.8,423.4 710.4,421.3 740.9,416.7 771.5,421.1 802.1,418.2 832.7,420.6 863.3,420.5 893.9,421.1 924.5,420.9 955.1,422.9 985.6,419.0 1016.2,417.5 1046.8,476.7 1077.4,476.6 1108.0,476.7 1108.0,476.8 1077.4,476.7 1046.8,476.8 1016.2,417.5 985.6,419.1 955.1,422.9 924.5,421.0 893.9,421.2 863.3,420.5 832.7,420.6 802.1,418.3 771.5,421.1 740.9,416.7 710.4,421.3 679.8,423.5 649.2,409.5 618.6,398.9 588.0,399.7 557.4,413.3 526.8,455.5 496.2,456.0 465.6,455.5 435.1,456.0 404.5,456.4 373.9,456.8 343.3,457.4 312.7,457.5 282.1,456.5 251.5,457.5 220.9,455.0 190.4,452.5 159.8,306.9 129.2,305.5 98.6,322.0 68.0,329.5" fill="#bcbddc" fill-opacity="0.9" stroke="#fff" stroke-width="0.4"><title>emit_wgsl — performMandatoryEarlyInlining</title></polygon>
<polygon points="68.0,329.4 98.6,321.9 129.2,305.4 159.8,306.8 190.4,452.4 220.9,454.9 251.5,457.5 282.1,456.4 312.7,457.5 343.3,457.3 373.9,456.7 404.5,456.3 435.1,456.0 465.6,455.4 496.2,455.9 526.8,455.4 557.4,413.2 588.0,399.6 618.6,398.8 649.2,409.4 679.8,423.4 710.4,421.2 740.9,416.6 771.5,421.0 802.1,418.2 832.7,420.5 863.3,420.4 893.9,421.1 924.5,420.9 955.1,422.8 985.6,418.9 1016.2,417.4 1046.8,476.7 1077.4,476.5 1108.0,476.7 1108.0,476.7 1077.4,476.6 1046.8,476.7 1016.2,417.5 985.6,419.0 955.1,422.9 924.5,420.9 893.9,421.1 863.3,420.5 832.7,420.6 802.1,418.2 771.5,421.1 740.9,416.7 710.4,421.3 679.8,423.4 649.2,409.4 618.6,398.8 588.0,399.7 557.4,413.2 526.8,455.5 496.2,455.9 465.6,455.5 435.1,456.0 404.5,456.4 373.9,456.7 343.3,457.4 312.7,457.5 282.1,456.5 251.5,457.5 220.9,454.9 190.4,452.4 159.8,306.9 129.2,305.4 98.6,322.0 68.0,329.5" fill="#dadaeb" fill-opacity="0.9" stroke="#fff" stroke-width="0.4"><title>emit_wgsl — performForceInlining</title></polygon>
<polygon points="68.0,154.3 98.6,141.7 129.2,109.7 159.8,113.2 190.4,402.9 220.9,408.2 251.5,412.6 282.1,410.7 312.7,412.7 343.3,412.6 373.9,411.2 404.5,411.0 435.1,410.5 465.6,409.8 496.2,410.7 526.8,409.8 557.4,327.7 588.0,302.8 618.6,300.4 649.2,320.4 679.8,338.7 710.4,335.4 740.9,326.3 771.5,334.9 802.1,329.9 832.7,333.9 863.3,334.0 893.9,335.0 924.5,334.8 955.1,338.2 985.6,331.2 1016.2,327.3 1046.8,444.9 1077.4,444.4 1108.0,444.7 1108.0,476.7 1077.4,476.5 1046.8,476.7 1016.2,417.4 985.6,418.9 955.1,422.8 924.5,420.9 893.9,421.1 863.3,420.4 832.7,420.5 802.1,418.2 771.5,421.0 740.9,416.6 710.4,421.2 679.8,423.4 649.2,409.4 618.6,398.8 588.0,399.6 557.4,413.2 526.8,455.4 496.2,455.9 465.6,455.4 435.1,456.0 404.5,456.3 373.9,456.7 343.3,457.3 312.7,457.5 282.1,456.4 251.5,457.5 220.9,454.9 190.4,452.4 159.8,306.8 129.2,305.4 98.6,321.9 68.0,329.4" fill="#fd8d3c" fill-opacity="0.9" stroke="#fff" stroke-width="0.4"><title>emit_wgsl — emitEntryPointsSourceFromIR</title></polygon>
<polygon points="68.0,152.3 98.6,141.7 129.2,108.6 159.8,112.8 190.4,402.1 220.9,408.0 251.5,412.5 282.1,410.7 312.7,412.7 343.3,412.6 373.9,411.2 404.5,411.0 435.1,410.5 465.6,409.6 496.2,410.5 526.8,409.7 557.4,327.6 588.0,300.4 618.6,300.3 649.2,320.4 679.8,338.6 710.4,335.4 740.9,326.2 771.5,334.9 802.1,329.7 832.7,333.6 863.3,333.8 893.9,335.0 924.5,334.5 955.1,338.1 985.6,330.5 1016.2,327.0 1046.8,444.9 1077.4,444.2 1108.0,444.7 1108.0,444.7 1077.4,444.4 1046.8,444.9 1016.2,327.3 985.6,331.2 955.1,338.2 924.5,334.8 893.9,335.0 863.3,334.0 832.7,333.9 802.1,329.9 771.5,334.9 740.9,326.3 710.4,335.4 679.8,338.7 649.2,320.4 618.6,300.4 588.0,302.8 557.4,327.7 526.8,409.8 496.2,410.7 465.6,409.8 435.1,410.5 404.5,411.0 373.9,411.2 343.3,412.6 312.7,412.7 282.1,410.7 251.5,412.6 220.9,408.2 190.4,402.9 159.8,113.2 129.2,109.7 98.6,141.7 68.0,154.3" fill="#969696" fill-opacity="0.9" stroke="#fff" stroke-width="0.4"><title>emit_wgsl — compileInner (self)</title></polygon>
<text x="12" y="578" fill="#666" font-weight="600">phase buckets</text>
<rect x="12" y="586" width="12" height="12" fill="#c7e9c0"/>
<text x="28" y="596" fill="#222">parseTranslationUnit</text>
<rect x="289" y="586" width="12" height="12" fill="#41ab5d"/>
<text x="305" y="596" fill="#222">SemanticChecking</text>
<rect x="566" y="586" width="12" height="12" fill="#006d2c"/>
<text x="582" y="596" fill="#222">generateIR</text>
<rect x="843" y="586" width="12" height="12" fill="#74c476"/>
<text x="859" y="596" fill="#222">frontEndExecute (self)</text>
<rect x="12" y="604" width="12" height="12" fill="#6baed6"/>
<text x="28" y="614" fill="#222">specializeModule</text>
<rect x="289" y="604" width="12" height="12" fill="#2171b5"/>
<text x="305" y="614" fill="#222">simplifyIR</text>
<rect x="566" y="604" width="12" height="12" fill="#08306b"/>
<text x="582" y="614" fill="#222">linkIR</text>
<rect x="843" y="604" width="12" height="12" fill="#9e9ac8"/>
<text x="859" y="614" fill="#222">unrollLoopsInModule</text>
<rect x="12" y="622" width="12" height="12" fill="#807dba"/>
<text x="28" y="632" fill="#222">legalizeResourceTypes</text>
<rect x="289" y="622" width="12" height="12" fill="#6a51a3"/>
<text x="305" y="632" fill="#222">legalizeExistentialTypeLayout</text>
<rect x="566" y="622" width="12" height="12" fill="#bcbddc"/>
<text x="582" y="632" fill="#222">performMandatoryEarlyInlining</text>
<rect x="843" y="622" width="12" height="12" fill="#dadaeb"/>
<text x="859" y="632" fill="#222">performForceInlining</text>
<rect x="12" y="640" width="12" height="12" fill="#4a1486"/>
<text x="28" y="650" fill="#222">linkAndOptimizeIR (self)</text>
<rect x="289" y="640" width="12" height="12" fill="#fd8d3c"/>
<text x="305" y="650" fill="#222">emitEntryPointsSourceFromIR</text>
<rect x="566" y="640" width="12" height="12" fill="#e6550d"/>
<text x="582" y="650" fill="#222">generateOutput (self)</text>
<rect x="843" y="640" width="12" height="12" fill="#969696"/>
<text x="859" y="650" fill="#222">compileInner (self)</text>
</svg>