<svg xmlns="http://www.w3.org/2000/svg" xmlns:xlink="http://www.w3.org/1999/xlink" width="1132" height="680" viewBox="0 0 1132 680" preserveAspectRatio="xMidYMid meet" font-family="sans-serif" font-size="13">
<rect width="1132" height="680" fill="white"/>
<text x="12" y="30" font-size="20" font-weight="bold">emit_hlsl — full phase breakdown across releases (median ms)</text>
<text x="68" y="60" font-size="15" font-weight="600" fill="#1a1a1a">emit_hlsl<tspan fill="#888" font-weight="400" text-decoration="none">  0.40×</tspan></text>
<line x1="68.0" y1="516.0" x2="1108.0" y2="516.0" stroke="#eee"/>
<text x="64.0" y="519.0" text-anchor="end" fill="#999">0.0</text>
<line x1="68.0" y1="296.0" x2="1108.0" y2="296.0" stroke="#eee"/>
<text x="64.0" y="299.0" text-anchor="end" fill="#999">464</text>
<line x1="68.0" y1="76.0" x2="1108.0" y2="76.0" stroke="#eee"/>
<text x="64.0" y="79.0" text-anchor="end" fill="#999">928</text>
<line x1="68.0" y1="76.0" x2="68.0" y2="516.0" stroke="#333"/>
<line x1="68.0" y1="516.0" x2="1108.0" y2="516.0" stroke="#333"/>
<line x1="689.1" y1="76.0" x2="689.1" y2="516.0" stroke="#e8731a" stroke-width="1.2" stroke-dasharray="4 3"/>
<text x="692.1" y="87.0" fill="#e8731a" font-size="11">daily →</text>
<line x1="68.0" y1="516.0" x2="68.0" y2="519.0" stroke="#999"/>
<text x="68.0" y="531.0" text-anchor="end" fill="#666" transform="rotate(-50 68.0 531.0)">25.14</text>
<line x1="96.9" y1="516.0" x2="96.9" y2="519.0" stroke="#999"/>
<text x="96.9" y="531.0" text-anchor="end" fill="#666" transform="rotate(-50 96.9 531.0)">25.15</text>
<line x1="125.8" y1="516.0" x2="125.8" y2="519.0" stroke="#999"/>
<text x="125.8" y="531.0" text-anchor="end" fill="#666" transform="rotate(-50 125.8 531.0)">25.16</text>
<line x1="154.7" y1="516.0" x2="154.7" y2="519.0" stroke="#999"/>
<text x="154.7" y="531.0" text-anchor="end" fill="#666" transform="rotate(-50 154.7 531.0)">25.17</text>
<line x1="183.6" y1="516.0" x2="183.6" y2="519.0" stroke="#999"/>
<text x="183.6" y="531.0" text-anchor="end" fill="#666" transform="rotate(-50 183.6 531.0)">25.18</text>
<line x1="212.4" y1="516.0" x2="212.4" y2="519.0" stroke="#999"/>
<text x="212.4" y="531.0" text-anchor="end" fill="#666" transform="rotate(-50 212.4 531.0)">25.19</text>
<line x1="241.3" y1="516.0" x2="241.3" y2="519.0" stroke="#999"/>
<text x="241.3" y="531.0" text-anchor="end" fill="#666" transform="rotate(-50 241.3 531.0)">25.20</text>
<line x1="270.2" y1="516.0" x2="270.2" y2="519.0" stroke="#999"/>
<text x="270.2" y="531.0" text-anchor="end" fill="#666" transform="rotate(-50 270.2 531.0)">25.21</text>
<line x1="299.1" y1="516.0" x2="299.1" y2="519.0" stroke="#999"/>
<text x="299.1" y="531.0" text-anchor="end" fill="#666" transform="rotate(-50 299.1 531.0)">25.22</text>
<line x1="328.0" y1="516.0" x2="328.0" y2="519.0" stroke="#999"/>
<text x="328.0" y="531.0" text-anchor="end" fill="#666" transform="rotate(-50 328.0 531.0)">25.23</text>
<line x1="356.9" y1="516.0" x2="356.9" y2="519.0" stroke="#999"/>
<text x="356.9" y="531.0" text-anchor="end" fill="#666" transform="rotate(-50 356.9 531.0)">25.24</text>
<line x1="385.8" y1="516.0" x2="385.8" y2="519.0" stroke="#999"/>
<text x="385.8" y="531.0" text-anchor="end" fill="#666" transform="rotate(-50 385.8 531.0)">26.1</text>
<line x1="414.7" y1="516.0" x2="414.7" y2="519.0" stroke="#999"/>
<text x="414.7" y="531.0" text-anchor="end" fill="#666" transform="rotate(-50 414.7 531.0)">26.2</text>
<line x1="443.6" y1="516.0" x2="443.6" y2="519.0" stroke="#999"/>
<text x="443.6" y="531.0" text-anchor="end" fill="#666" transform="rotate(-50 443.6 531.0)">26.3</text>
<line x1="472.4" y1="516.0" x2="472.4" y2="519.0" stroke="#999"/>
<text x="472.4" y="531.0" text-anchor="end" fill="#666" transform="rotate(-50 472.4 531.0)">26.4</text>
<line x1="501.3" y1="516.0" x2="501.3" y2="519.0" stroke="#999"/>
<text x="501.3" y="531.0" text-anchor="end" fill="#666" transform="rotate(-50 501.3 531.0)">26.5</text>
<line x1="530.2" y1="516.0" x2="530.2" y2="519.0" stroke="#999"/>
<text x="530.2" y="531.0" text-anchor="end" fill="#666" transform="rotate(-50 530.2 531.0)">26.7</text>
<line x1="559.1" y1="516.0" x2="559.1" y2="519.0" stroke="#999"/>
<text x="559.1" y="531.0" text-anchor="end" fill="#666" transform="rotate(-50 559.1 531.0)">26.8</text>
<line x1="588.0" y1="516.0" x2="588.0" y2="519.0" stroke="#999"/>
<text x="588.0" y="531.0" text-anchor="end" fill="#666" transform="rotate(-50 588.0 531.0)">26.9</text>
<line x1="616.9" y1="516.0" x2="616.9" y2="519.0" stroke="#999"/>
<text x="616.9" y="531.0" text-anchor="end" fill="#666" transform="rotate(-50 616.9 531.0)">26.10</text>
<line x1="645.8" y1="516.0" x2="645.8" y2="519.0" stroke="#999"/>
<text x="645.8" y="531.0" text-anchor="end" fill="#666" transform="rotate(-50 645.8 531.0)">26.11</text>
<line x1="674.7" y1="516.0" x2="674.7" y2="519.0" stroke="#999"/>
<text x="674.7" y="531.0" text-anchor="end" fill="#666" transform="rotate(-50 674.7 531.0)">26.12</text>
<line x1="703.6" y1="516.0" x2="703.6" y2="519.0" stroke="#999"/>
<text x="703.6" y="531.0" text-anchor="end" fill="#e8731a" transform="rotate(-50 703.6 531.0)">06-25</text>
<line x1="732.4" y1="516.0" x2="732.4" y2="519.0" stroke="#999"/>
<text x="732.4" y="531.0" text-anchor="end" fill="#e8731a" transform="rotate(-50 732.4 531.0)">06-26</text>
<line x1="761.3" y1="516.0" x2="761.3" y2="519.0" stroke="#999"/>
<text x="761.3" y="531.0" text-anchor="end" fill="#e8731a" transform="rotate(-50 761.3 531.0)">06-28</text>
<line x1="790.2" y1="516.0" x2="790.2" y2="519.0" stroke="#999"/>
<text x="790.2" y="531.0" text-anchor="end" fill="#e8731a" transform="rotate(-50 790.2 531.0)">07-01</text>
<line x1="819.1" y1="516.0" x2="819.1" y2="519.0" stroke="#999"/>
<text x="819.1" y="531.0" text-anchor="end" fill="#e8731a" transform="rotate(-50 819.1 531.0)">07-02</text>
<line x1="848.0" y1="516.0" x2="848.0" y2="519.0" stroke="#999"/>
<text x="848.0" y="531.0" text-anchor="end" fill="#e8731a" transform="rotate(-50 848.0 531.0)">07-03</text>
<line x1="876.9" y1="516.0" x2="876.9" y2="519.0" stroke="#999"/>
<text x="876.9" y="531.0" text-anchor="end" fill="#e8731a" transform="rotate(-50 876.9 531.0)">07-06</text>
<line x1="905.8" y1="516.0" x2="905.8" y2="519.0" stroke="#999"/>
<text x="905.8" y="531.0" text-anchor="end" fill="#e8731a" transform="rotate(-50 905.8 531.0)">07-07</text>
<line x1="934.7" y1="516.0" x2="934.7" y2="519.0" stroke="#999"/>
<text x="934.7" y="531.0" text-anchor="end" fill="#e8731a" transform="rotate(-50 934.7 531.0)">07-07</text>
<line x1="963.6" y1="516.0" x2="963.6" y2="519.0" stroke="#999"/>
<text x="963.6" y="531.0" text-anchor="end" fill="#e8731a" transform="rotate(-50 963.6 531.0)">07-08</text>
<line x1="992.4" y1="516.0" x2="992.4" y2="519.0" stroke="#999"/>
<text x="992.4" y="531.0" text-anchor="end" fill="#e8731a" transform="rotate(-50 992.4 531.0)">07-09</text>
<line x1="1021.3" y1="516.0" x2="1021.3" y2="519.0" stroke="#999"/>
<text x="1021.3" y="531.0" text-anchor="end" fill="#e8731a" transform="rotate(-50 1021.3 531.0)">07-09</text>
<line x1="1050.2" y1="516.0" x2="1050.2" y2="519.0" stroke="#999"/>
<text x="1050.2" y="531.0" text-anchor="end" fill="#e8731a" transform="rotate(-50 1050.2 531.0)">07-10</text>
<line x1="1079.1" y1="516.0" x2="1079.1" y2="519.0" stroke="#999"/>
<text x="1079.1" y="531.0" text-anchor="end" fill="#e8731a" transform="rotate(-50 1079.1 531.0)">07-11</text>
<line x1="1108.0" y1="516.0" x2="1108.0" y2="519.0" stroke="#999"/>
<text x="1108.0" y="531.0" text-anchor="end" fill="#e8731a" transform="rotate(-50 1108.0 531.0)">07-11</text>
<polygon points="848.0,515.5 876.9,515.5 934.7,515.6 963.6,515.6 1021.3,515.6 1079.1,515.6 1108.0,515.5 1108.0,516.0 1079.1,516.0 1021.3,516.0 963.6,516.0 934.7,516.0 876.9,516.0 848.0,516.0" fill="#c7e9c0" fill-opacity="0.9" stroke="#fff" stroke-width="0.4"><title>emit_hlsl — parseTranslationUnit</title></polygon>
<polygon points="848.0,498.3 876.9,498.1 934.7,498.8 963.6,498.6 1021.3,498.6 1079.1,497.8 1108.0,498.4 1108.0,515.5 1079.1,515.6 1021.3,515.6 963.6,515.6 934.7,515.6 876.9,515.5 848.0,515.5" fill="#41ab5d" fill-opacity="0.9" stroke="#fff" stroke-width="0.4"><title>emit_hlsl — SemanticChecking</title></polygon>
<polygon points="848.0,490.5 876.9,490.4 934.7,490.9 963.6,490.1 1021.3,490.6 1079.1,492.9 1108.0,493.6 1108.0,498.4 1079.1,497.8 1021.3,498.6 963.6,498.6 934.7,498.8 876.9,498.1 848.0,498.3" fill="#006d2c" fill-opacity="0.9" stroke="#fff" stroke-width="0.4"><title>emit_hlsl — generateIR</title></polygon>
<polygon points="848.0,490.3 876.9,490.2 934.7,490.7 963.6,489.8 1021.3,490.4 1079.1,492.7 1108.0,493.4 1108.0,493.6 1079.1,492.9 1021.3,490.6 963.6,490.1 934.7,490.9 876.9,490.4 848.0,490.5" fill="#74c476" fill-opacity="0.9" stroke="#fff" stroke-width="0.4"><title>emit_hlsl — frontEndExecute (self)</title></polygon>
<polygon points="848.0,479.6 876.9,479.6 934.7,478.9 963.6,476.9 1021.3,478.4 1079.1,487.2 1108.0,487.9 1108.0,493.4 1079.1,492.7 1021.3,490.4 963.6,489.8 934.7,490.7 876.9,490.2 848.0,490.3" fill="#6baed6" fill-opacity="0.9" stroke="#fff" stroke-width="0.4"><title>emit_hlsl — specializeModule</title></polygon>
<polygon points="848.0,450.2 876.9,450.9 934.7,449.6 963.6,445.2 1021.3,448.2 1079.1,482.6 1108.0,483.3 1108.0,487.9 1079.1,487.2 1021.3,478.4 963.6,476.9 934.7,478.9 876.9,479.6 848.0,479.6" fill="#2171b5" fill-opacity="0.9" stroke="#fff" stroke-width="0.4"><title>emit_hlsl — simplifyIR</title></polygon>
<polygon points="848.0,449.5 876.9,450.2 934.7,449.0 963.6,444.6 1021.3,447.7 1079.1,482.0 1108.0,482.7 1108.0,483.3 1079.1,482.6 1021.3,448.2 963.6,445.2 934.7,449.6 876.9,450.9 848.0,450.2" fill="#08306b" fill-opacity="0.9" stroke="#fff" stroke-width="0.4"><title>emit_hlsl — linkIR</title></polygon>
<polygon points="848.0,449.5 876.9,450.2 934.7,449.0 963.6,444.6 1021.3,447.7 1079.1,482.0 1108.0,482.7 1108.0,482.7 1079.1,482.0 1021.3,447.7 963.6,444.6 934.7,449.0 876.9,450.2 848.0,449.5" fill="#9e9ac8" fill-opacity="0.9" stroke="#fff" stroke-width="0.4"><title>emit_hlsl — unrollLoopsInModule</title></polygon>
<polygon points="848.0,383.8 876.9,383.1 934.7,383.0 963.6,375.2 1021.3,380.7 1079.1,456.4 1108.0,457.5 1108.0,482.7 1079.1,482.0 1021.3,447.7 963.6,444.6 934.7,449.0 876.9,450.2 848.0,449.5" fill="#807dba" fill-opacity="0.9" stroke="#fff" stroke-width="0.4"><title>emit_hlsl — legalizeResourceTypes</title></polygon>
<polygon points="848.0,316.2 876.9,315.6 934.7,316.9 963.6,303.1 1021.3,313.9 1079.1,430.1 1108.0,431.7 1108.0,457.5 1079.1,456.4 1021.3,380.7 963.6,375.2 934.7,383.0 876.9,383.1 848.0,383.8" fill="#6a51a3" fill-opacity="0.9" stroke="#fff" stroke-width="0.4"><title>emit_hlsl — legalizeExistentialTypeLayout</title></polygon>
<polygon points="848.0,316.1 876.9,315.5 934.7,316.7 963.6,303.0 1021.3,313.8 1079.1,430.0 1108.0,431.5 1108.0,431.7 1079.1,430.1 1021.3,313.9 963.6,303.1 934.7,316.9 876.9,315.6 848.0,316.2" fill="#bcbddc" fill-opacity="0.9" stroke="#fff" stroke-width="0.4"><title>emit_hlsl — performMandatoryEarlyInlining</title></polygon>
<polygon points="848.0,316.0 876.9,315.4 934.7,316.6 963.6,302.9 1021.3,313.7 1079.1,429.9 1108.0,431.4 1108.0,431.5 1079.1,430.0 1021.3,313.8 963.6,303.0 934.7,316.7 876.9,315.5 848.0,316.1" fill="#dadaeb" fill-opacity="0.9" stroke="#fff" stroke-width="0.4"><title>emit_hlsl — performForceInlining</title></polygon>
<polygon points="848.0,135.3 876.9,134.4 934.7,136.0 963.6,108.6 1021.3,130.4 1079.1,360.2 1108.0,362.6 1108.0,431.4 1079.1,429.9 1021.3,313.7 963.6,302.9 934.7,316.6 876.9,315.4 848.0,316.0" fill="#fd8d3c" fill-opacity="0.9" stroke="#fff" stroke-width="0.4"><title>emit_hlsl — emitEntryPointsSourceFromIR</title></polygon>
<polygon points="848.0,135.3 876.9,134.3 934.7,135.8 963.6,108.6 1021.3,127.4 1079.1,360.2 1108.0,362.6 1108.0,362.6 1079.1,360.2 1021.3,130.4 963.6,108.6 934.7,136.0 876.9,134.4 848.0,135.3" fill="#969696" fill-opacity="0.9" stroke="#fff" stroke-width="0.4"><title>emit_hlsl — compileInner (self)</title></polygon>
<text x="12" y="578" fill="#666" font-weight="600">phase buckets</text>
<rect x="12" y="586" width="12" height="12" fill="#c7e9c0"/>
<text x="28" y="596" fill="#222">parseTranslationUnit</text>
<rect x="289" y="586" width="12" height="12" fill="#41ab5d"/>
<text x="305" y="596" fill="#222">SemanticChecking</text>
<rect x="566" y="586" width="12" height="12" fill="#006d2c"/>
<text x="582" y="596" fill="#222">generateIR</text>
<rect x="843" y="586" width="12" height="12" fill="#74c476"/>
<text x="859" y="596" fill="#222">frontEndExecute (self)</text>
<rect x="12" y="604" width="12" height="12" fill="#6baed6"/>
<text x="28" y="614" fill="#222">specializeModule</text>
<rect x="289" y="604" width="12" height="12" fill="#2171b5"/>
<text x="305" y="614" fill="#222">simplifyIR</text>
<rect x="566" y="604" width="12" height="12" fill="#08306b"/>
<text x="582" y="614" fill="#222">linkIR</text>
<rect x="843" y="604" width="12" height="12" fill="#9e9ac8"/>
<text x="859" y="614" fill="#222">unrollLoopsInModule</text>
<rect x="12" y="622" width="12" height="12" fill="#807dba"/>
<text x="28" y="632" fill="#222">legalizeResourceTypes</text>
<rect x="289" y="622" width="12" height="12" fill="#6a51a3"/>
<text x="305" y="632" fill="#222">legalizeExistentialTypeLayout</text>
<rect x="566" y="622" width="12" height="12" fill="#bcbddc"/>
<text x="582" y="632" fill="#222">performMandatoryEarlyInlining</text>
<rect x="843" y="622" width="12" height="12" fill="#dadaeb"/>
<text x="859" y="632" fill="#222">performForceInlining</text>
<rect x="12" y="640" width="12" height="12" fill="#4a1486"/>
<text x="28" y="650" fill="#222">linkAndOptimizeIR (self)</text>
<rect x="289" y="640" width="12" height="12" fill="#fd8d3c"/>
<text x="305" y="650" fill="#222">emitEntryPointsSourceFromIR</text>
<rect x="566" y="640" width="12" height="12" fill="#e6550d"/>
<text x="582" y="650" fill="#222">generateOutput (self)</text>
<rect x="843" y="640" width="12" height="12" fill="#969696"/>
<text x="859" y="650" fill="#222">compileInner (self)</text>
</svg>