<svg xmlns="http://www.w3.org/2000/svg" xmlns:xlink="http://www.w3.org/1999/xlink" width="1132" height="680" viewBox="0 0 1132 680" preserveAspectRatio="xMidYMid meet" font-family="sans-serif" font-size="13">
<rect width="1132" height="680" fill="white"/>
<text x="12" y="30" font-size="20" font-weight="bold">emit_glsl — Daily tip-of-tree (last 30 days) (median ms)</text>
<text x="68" y="60" font-size="15" font-weight="600" fill="#1a1a1a">emit_glsl<tspan fill="#888" font-weight="400" text-decoration="none">  0.35×</tspan></text>
<line x1="68.0" y1="516.0" x2="1108.0" y2="516.0" stroke="#eee"/>
<text x="64.0" y="519.0" text-anchor="end" fill="#999">0.0</text>
<line x1="68.0" y1="296.0" x2="1108.0" y2="296.0" stroke="#eee"/>
<text x="64.0" y="299.0" text-anchor="end" fill="#999">506</text>
<line x1="68.0" y1="76.0" x2="1108.0" y2="76.0" stroke="#eee"/>
<text x="64.0" y="79.0" text-anchor="end" fill="#999">1012</text>
<line x1="68.0" y1="76.0" x2="68.0" y2="516.0" stroke="#333"/>
<line x1="68.0" y1="516.0" x2="1108.0" y2="516.0" stroke="#333"/>
<line x1="68.0" y1="516.0" x2="68.0" y2="519.0" stroke="#999"/>
<text x="68.0" y="531.0" text-anchor="end" fill="#e8731a" transform="rotate(-50 68.0 531.0)">06-25</text>
<line x1="137.3" y1="516.0" x2="137.3" y2="519.0" stroke="#999"/>
<text x="137.3" y="531.0" text-anchor="end" fill="#e8731a" transform="rotate(-50 137.3 531.0)">06-26</text>
<line x1="206.7" y1="516.0" x2="206.7" y2="519.0" stroke="#999"/>
<text x="206.7" y="531.0" text-anchor="end" fill="#e8731a" transform="rotate(-50 206.7 531.0)">06-28</text>
<line x1="276.0" y1="516.0" x2="276.0" y2="519.0" stroke="#999"/>
<text x="276.0" y="531.0" text-anchor="end" fill="#e8731a" transform="rotate(-50 276.0 531.0)">07-01</text>
<line x1="345.3" y1="516.0" x2="345.3" y2="519.0" stroke="#999"/>
<text x="345.3" y="531.0" text-anchor="end" fill="#e8731a" transform="rotate(-50 345.3 531.0)">07-02</text>
<line x1="414.7" y1="516.0" x2="414.7" y2="519.0" stroke="#999"/>
<text x="414.7" y="531.0" text-anchor="end" fill="#e8731a" transform="rotate(-50 414.7 531.0)">07-03</text>
<line x1="484.0" y1="516.0" x2="484.0" y2="519.0" stroke="#999"/>
<text x="484.0" y="531.0" text-anchor="end" fill="#e8731a" transform="rotate(-50 484.0 531.0)">07-06</text>
<line x1="553.3" y1="516.0" x2="553.3" y2="519.0" stroke="#999"/>
<text x="553.3" y="531.0" text-anchor="end" fill="#e8731a" transform="rotate(-50 553.3 531.0)">07-07</text>
<line x1="622.7" y1="516.0" x2="622.7" y2="519.0" stroke="#999"/>
<text x="622.7" y="531.0" text-anchor="end" fill="#e8731a" transform="rotate(-50 622.7 531.0)">07-08</text>
<line x1="692.0" y1="516.0" x2="692.0" y2="519.0" stroke="#999"/>
<text x="692.0" y="531.0" text-anchor="end" fill="#e8731a" transform="rotate(-50 692.0 531.0)">07-09</text>
<line x1="761.3" y1="516.0" x2="761.3" y2="519.0" stroke="#999"/>
<text x="761.3" y="531.0" text-anchor="end" fill="#e8731a" transform="rotate(-50 761.3 531.0)">07-10</text>
<line x1="830.7" y1="516.0" x2="830.7" y2="519.0" stroke="#999"/>
<text x="830.7" y="531.0" text-anchor="end" fill="#e8731a" transform="rotate(-50 830.7 531.0)">07-11</text>
<line x1="900.0" y1="516.0" x2="900.0" y2="519.0" stroke="#999"/>
<text x="900.0" y="531.0" text-anchor="end" fill="#e8731a" transform="rotate(-50 900.0 531.0)">07-14</text>
<line x1="969.3" y1="516.0" x2="969.3" y2="519.0" stroke="#999"/>
<text x="969.3" y="531.0" text-anchor="end" fill="#e8731a" transform="rotate(-50 969.3 531.0)">07-15</text>
<line x1="1038.7" y1="516.0" x2="1038.7" y2="519.0" stroke="#999"/>
<text x="1038.7" y="531.0" text-anchor="end" fill="#e8731a" transform="rotate(-50 1038.7 531.0)">07-15</text>
<line x1="1108.0" y1="516.0" x2="1108.0" y2="519.0" stroke="#999"/>
<text x="1108.0" y="531.0" text-anchor="end" fill="#e8731a" transform="rotate(-50 1108.0 531.0)">07-16</text>
<polygon points="68.0,515.5 137.3,515.5 206.7,515.5 276.0,515.5 345.3,515.5 414.7,515.5 484.0,515.5 553.3,515.6 622.7,515.6 692.0,515.6 761.3,515.6 830.7,515.6 900.0,515.6 969.3,515.6 1038.7,515.6 1108.0,515.6 1108.0,516.0 1038.7,516.0 969.3,516.0 900.0,516.0 830.7,516.0 761.3,516.0 692.0,516.0 622.7,516.0 553.3,516.0 484.0,516.0 414.7,516.0 345.3,516.0 276.0,516.0 206.7,516.0 137.3,516.0 68.0,516.0" fill="#c7e9c0" fill-opacity="0.9" stroke="#fff" stroke-width="0.4"><title>emit_glsl — parseTranslationUnit</title></polygon>
<polygon points="68.0,496.3 137.3,499.4 206.7,498.7 276.0,499.4 345.3,499.3 414.7,499.6 484.0,499.5 553.3,500.1 622.7,499.7 692.0,500.1 761.3,500.5 830.7,499.8 900.0,499.8 969.3,501.0 1038.7,501.1 1108.0,499.1 1108.0,515.6 1038.7,515.6 969.3,515.6 900.0,515.6 830.7,515.6 761.3,515.6 692.0,515.6 622.7,515.6 553.3,515.6 484.0,515.5 414.7,515.5 345.3,515.5 276.0,515.5 206.7,515.5 137.3,515.5 68.0,515.5" fill="#41ab5d" fill-opacity="0.9" stroke="#fff" stroke-width="0.4"><title>emit_glsl — SemanticChecking</title></polygon>
<polygon points="68.0,487.0 137.3,491.9 206.7,491.0 276.0,491.7 345.3,491.6 414.7,492.1 484.0,491.9 553.3,493.0 622.7,491.7 692.0,492.5 761.3,496.1 830.7,495.4 900.0,495.5 969.3,496.6 1038.7,496.8 1108.0,494.9 1108.0,499.1 1038.7,501.1 969.3,501.0 900.0,499.8 830.7,499.8 761.3,500.5 692.0,500.1 622.7,499.7 553.3,500.1 484.0,499.5 414.7,499.6 345.3,499.3 276.0,499.4 206.7,498.7 137.3,499.4 68.0,496.3" fill="#006d2c" fill-opacity="0.9" stroke="#fff" stroke-width="0.4"><title>emit_glsl — generateIR</title></polygon>
<polygon points="68.0,486.4 137.3,491.6 206.7,490.8 276.0,491.4 345.3,491.2 414.7,492.1 484.0,491.9 553.3,492.8 622.7,491.5 692.0,492.1 761.3,495.9 830.7,495.1 900.0,495.4 969.3,496.5 1038.7,496.6 1108.0,494.7 1108.0,494.9 1038.7,496.8 969.3,496.6 900.0,495.5 830.7,495.4 761.3,496.1 692.0,492.5 622.7,491.7 553.3,493.0 484.0,491.9 414.7,492.1 345.3,491.6 276.0,491.7 206.7,491.0 137.3,491.9 68.0,487.0" fill="#74c476" fill-opacity="0.9" stroke="#fff" stroke-width="0.4"><title>emit_glsl — frontEndExecute (self)</title></polygon>
<polygon points="68.0,477.5 137.3,482.8 206.7,482.0 276.0,482.3 345.3,482.5 414.7,483.2 484.0,483.3 553.3,483.5 622.7,481.8 692.0,482.7 761.3,490.8 830.7,490.0 900.0,490.2 969.3,491.9 1038.7,492.0 1108.0,490.0 1108.0,494.7 1038.7,496.6 969.3,496.5 900.0,495.4 830.7,495.1 761.3,495.9 692.0,492.1 622.7,491.5 553.3,492.8 484.0,491.9 414.7,492.1 345.3,491.2 276.0,491.4 206.7,490.8 137.3,491.6 68.0,486.4" fill="#6baed6" fill-opacity="0.9" stroke="#fff" stroke-width="0.4"><title>emit_glsl — specializeModule</title></polygon>
<polygon points="68.0,446.5 137.3,456.0 206.7,454.1 276.0,454.1 345.3,455.0 414.7,455.2 484.0,457.0 553.3,457.1 622.7,454.8 692.0,456.0 761.3,486.1 830.7,485.3 900.0,485.4 969.3,487.1 1038.7,487.2 1108.0,485.3 1108.0,490.0 1038.7,492.0 969.3,491.9 900.0,490.2 830.7,490.0 761.3,490.8 692.0,482.7 622.7,481.8 553.3,483.5 484.0,483.3 414.7,483.2 345.3,482.5 276.0,482.3 206.7,482.0 137.3,482.8 68.0,477.5" fill="#2171b5" fill-opacity="0.9" stroke="#fff" stroke-width="0.4"><title>emit_glsl — simplifyIR</title></polygon>
<polygon points="68.0,445.8 137.3,455.5 206.7,453.5 276.0,453.5 345.3,454.5 414.7,454.7 484.0,456.5 553.3,456.7 622.7,454.3 692.0,455.5 761.3,485.6 830.7,484.7 900.0,484.8 969.3,486.6 1038.7,486.7 1108.0,484.8 1108.0,485.3 1038.7,487.2 969.3,487.1 900.0,485.4 830.7,485.3 761.3,486.1 692.0,456.0 622.7,454.8 553.3,457.1 484.0,457.0 414.7,455.2 345.3,455.0 276.0,454.1 206.7,454.1 137.3,456.0 68.0,446.5" fill="#08306b" fill-opacity="0.9" stroke="#fff" stroke-width="0.4"><title>emit_glsl — linkIR</title></polygon>
<polygon points="68.0,445.8 137.3,455.5 206.7,453.5 276.0,453.5 345.3,454.5 414.7,454.7 484.0,456.5 553.3,456.7 622.7,454.3 692.0,455.5 761.3,485.6 830.7,484.7 900.0,484.8 969.3,486.6 1038.7,486.7 1108.0,484.8 1108.0,484.8 1038.7,486.7 969.3,486.6 900.0,484.8 830.7,484.7 761.3,485.6 692.0,455.5 622.7,454.3 553.3,456.7 484.0,456.5 414.7,454.7 345.3,454.5 276.0,453.5 206.7,453.5 137.3,455.5 68.0,445.8" fill="#9e9ac8" fill-opacity="0.9" stroke="#fff" stroke-width="0.4"><title>emit_glsl — unrollLoopsInModule</title></polygon>
<polygon points="68.0,365.1 137.3,401.1 206.7,395.6 276.0,398.3 345.3,397.7 414.7,397.3 484.0,403.0 553.3,405.0 622.7,401.0 692.0,402.0 761.3,461.9 830.7,461.3 900.0,461.0 969.3,462.2 1038.7,462.5 1108.0,461.2 1108.0,484.8 1038.7,486.7 969.3,486.6 900.0,484.8 830.7,484.7 761.3,485.6 692.0,455.5 622.7,454.3 553.3,456.7 484.0,456.5 414.7,454.7 345.3,454.5 276.0,453.5 206.7,453.5 137.3,455.5 68.0,445.8" fill="#807dba" fill-opacity="0.9" stroke="#fff" stroke-width="0.4"><title>emit_glsl — legalizeResourceTypes</title></polygon>
<polygon points="68.0,301.4 137.3,346.3 206.7,339.7 276.0,340.5 345.3,343.1 414.7,337.9 484.0,348.7 553.3,351.9 622.7,348.2 692.0,347.3 761.3,437.8 830.7,437.5 900.0,436.8 969.3,437.9 1038.7,438.4 1108.0,437.4 1108.0,461.2 1038.7,462.5 969.3,462.2 900.0,461.0 830.7,461.3 761.3,461.9 692.0,402.0 622.7,401.0 553.3,405.0 484.0,403.0 414.7,397.3 345.3,397.7 276.0,398.3 206.7,395.6 137.3,401.1 68.0,365.1" fill="#6a51a3" fill-opacity="0.9" stroke="#fff" stroke-width="0.4"><title>emit_glsl — legalizeExistentialTypeLayout</title></polygon>
<polygon points="68.0,301.3 137.3,346.3 206.7,339.6 276.0,340.4 345.3,343.0 414.7,337.8 484.0,348.6 553.3,351.7 622.7,348.0 692.0,347.2 761.3,437.6 830.7,437.3 900.0,436.6 969.3,437.8 1038.7,438.3 1108.0,437.3 1108.0,437.4 1038.7,438.4 969.3,437.9 900.0,436.8 830.7,437.5 761.3,437.8 692.0,347.3 622.7,348.2 553.3,351.9 484.0,348.7 414.7,337.9 345.3,343.1 276.0,340.5 206.7,339.7 137.3,346.3 68.0,301.4" fill="#bcbddc" fill-opacity="0.9" stroke="#fff" stroke-width="0.4"><title>emit_glsl — performMandatoryEarlyInlining</title></polygon>
<polygon points="68.0,301.3 137.3,346.2 206.7,339.6 276.0,340.3 345.3,342.9 414.7,337.7 484.0,348.5 553.3,351.7 622.7,348.0 692.0,347.1 761.3,437.5 830.7,437.2 900.0,436.6 969.3,437.7 1038.7,438.2 1108.0,437.2 1108.0,437.3 1038.7,438.3 969.3,437.8 900.0,436.6 830.7,437.3 761.3,437.6 692.0,347.2 622.7,348.0 553.3,351.7 484.0,348.6 414.7,337.8 345.3,343.0 276.0,340.4 206.7,339.6 137.3,346.3 68.0,301.3" fill="#dadaeb" fill-opacity="0.9" stroke="#fff" stroke-width="0.4"><title>emit_glsl — performForceInlining</title></polygon>
<polygon points="68.0,108.6 137.3,194.7 206.7,182.0 276.0,183.2 345.3,188.4 414.7,176.7 484.0,199.3 553.3,204.5 622.7,198.4 692.0,196.0 761.3,372.9 830.7,373.1 900.0,371.3 969.3,372.8 1038.7,373.9 1108.0,374.0 1108.0,437.2 1038.7,438.2 969.3,437.7 900.0,436.6 830.7,437.2 761.3,437.5 692.0,347.1 622.7,348.0 553.3,351.7 484.0,348.5 414.7,337.7 345.3,342.9 276.0,340.3 206.7,339.6 137.3,346.2 68.0,301.3" fill="#fd8d3c" fill-opacity="0.9" stroke="#fff" stroke-width="0.4"><title>emit_glsl — emitEntryPointsSourceFromIR</title></polygon>
<polygon points="68.0,108.6 137.3,194.2 206.7,182.0 276.0,180.9 345.3,188.2 414.7,176.7 484.0,199.2 553.3,204.4 622.7,198.3 692.0,196.0 761.3,372.6 830.7,372.6 900.0,371.0 969.3,372.7 1038.7,373.7 1108.0,373.9 1108.0,374.0 1038.7,373.9 969.3,372.8 900.0,371.3 830.7,373.1 761.3,372.9 692.0,196.0 622.7,198.4 553.3,204.5 484.0,199.3 414.7,176.7 345.3,188.4 276.0,183.2 206.7,182.0 137.3,194.7 68.0,108.6" fill="#969696" fill-opacity="0.9" stroke="#fff" stroke-width="0.4"><title>emit_glsl — compileInner (self)</title></polygon>
<text x="12" y="578" fill="#666" font-weight="600">phase buckets</text>
<rect x="12" y="586" width="12" height="12" fill="#c7e9c0"/>
<text x="28" y="596" fill="#222">parseTranslationUnit</text>
<rect x="289" y="586" width="12" height="12" fill="#41ab5d"/>
<text x="305" y="596" fill="#222">SemanticChecking</text>
<rect x="566" y="586" width="12" height="12" fill="#006d2c"/>
<text x="582" y="596" fill="#222">generateIR</text>
<rect x="843" y="586" width="12" height="12" fill="#74c476"/>
<text x="859" y="596" fill="#222">frontEndExecute (self)</text>
<rect x="12" y="604" width="12" height="12" fill="#6baed6"/>
<text x="28" y="614" fill="#222">specializeModule</text>
<rect x="289" y="604" width="12" height="12" fill="#2171b5"/>
<text x="305" y="614" fill="#222">simplifyIR</text>
<rect x="566" y="604" width="12" height="12" fill="#08306b"/>
<text x="582" y="614" fill="#222">linkIR</text>
<rect x="843" y="604" width="12" height="12" fill="#9e9ac8"/>
<text x="859" y="614" fill="#222">unrollLoopsInModule</text>
<rect x="12" y="622" width="12" height="12" fill="#807dba"/>
<text x="28" y="632" fill="#222">legalizeResourceTypes</text>
<rect x="289" y="622" width="12" height="12" fill="#6a51a3"/>
<text x="305" y="632" fill="#222">legalizeExistentialTypeLayout</text>
<rect x="566" y="622" width="12" height="12" fill="#bcbddc"/>
<text x="582" y="632" fill="#222">performMandatoryEarlyInlining</text>
<rect x="843" y="622" width="12" height="12" fill="#dadaeb"/>
<text x="859" y="632" fill="#222">performForceInlining</text>
<rect x="12" y="640" width="12" height="12" fill="#4a1486"/>
<text x="28" y="650" fill="#222">linkAndOptimizeIR (self)</text>
<rect x="289" y="640" width="12" height="12" fill="#fd8d3c"/>
<text x="305" y="650" fill="#222">emitEntryPointsSourceFromIR</text>
<rect x="566" y="640" width="12" height="12" fill="#e6550d"/>
<text x="582" y="650" fill="#222">generateOutput (self)</text>
<rect x="843" y="640" width="12" height="12" fill="#969696"/>
<text x="859" y="650" fill="#222">compileInner (self)</text>
</svg>