<svg xmlns="http://www.w3.org/2000/svg" xmlns:xlink="http://www.w3.org/1999/xlink" width="1132" height="680" viewBox="0 0 1132 680" preserveAspectRatio="xMidYMid meet" font-family="sans-serif" font-size="13">
<rect width="1132" height="680" fill="white"/>
<text x="12" y="30" font-size="20" font-weight="bold">emit_hlsl — Daily tip-of-tree (last 30 days) (median ms)</text>
<text x="68" y="60" font-size="15" font-weight="600" fill="#1a1a1a">emit_hlsl<tspan fill="#888" font-weight="400" text-decoration="none">  0.39×</tspan></text>
<line x1="68.0" y1="516.0" x2="1108.0" y2="516.0" stroke="#eee"/>
<text x="64.0" y="519.0" text-anchor="end" fill="#999">0.0</text>
<line x1="68.0" y1="296.0" x2="1108.0" y2="296.0" stroke="#eee"/>
<text x="64.0" y="299.0" text-anchor="end" fill="#999">493</text>
<line x1="68.0" y1="76.0" x2="1108.0" y2="76.0" stroke="#eee"/>
<text x="64.0" y="79.0" text-anchor="end" fill="#999">987</text>
<line x1="68.0" y1="76.0" x2="68.0" y2="516.0" stroke="#333"/>
<line x1="68.0" y1="516.0" x2="1108.0" y2="516.0" stroke="#333"/>
<line x1="68.0" y1="516.0" x2="68.0" y2="519.0" stroke="#999"/>
<text x="68.0" y="531.0" text-anchor="end" fill="#e8731a" transform="rotate(-50 68.0 531.0)">06-25</text>
<line x1="137.3" y1="516.0" x2="137.3" y2="519.0" stroke="#999"/>
<text x="137.3" y="531.0" text-anchor="end" fill="#e8731a" transform="rotate(-50 137.3 531.0)">06-26</text>
<line x1="206.7" y1="516.0" x2="206.7" y2="519.0" stroke="#999"/>
<text x="206.7" y="531.0" text-anchor="end" fill="#e8731a" transform="rotate(-50 206.7 531.0)">06-28</text>
<line x1="276.0" y1="516.0" x2="276.0" y2="519.0" stroke="#999"/>
<text x="276.0" y="531.0" text-anchor="end" fill="#e8731a" transform="rotate(-50 276.0 531.0)">07-01</text>
<line x1="345.3" y1="516.0" x2="345.3" y2="519.0" stroke="#999"/>
<text x="345.3" y="531.0" text-anchor="end" fill="#e8731a" transform="rotate(-50 345.3 531.0)">07-02</text>
<line x1="414.7" y1="516.0" x2="414.7" y2="519.0" stroke="#999"/>
<text x="414.7" y="531.0" text-anchor="end" fill="#e8731a" transform="rotate(-50 414.7 531.0)">07-03</text>
<line x1="484.0" y1="516.0" x2="484.0" y2="519.0" stroke="#999"/>
<text x="484.0" y="531.0" text-anchor="end" fill="#e8731a" transform="rotate(-50 484.0 531.0)">07-06</text>
<line x1="553.3" y1="516.0" x2="553.3" y2="519.0" stroke="#999"/>
<text x="553.3" y="531.0" text-anchor="end" fill="#e8731a" transform="rotate(-50 553.3 531.0)">07-07</text>
<line x1="622.7" y1="516.0" x2="622.7" y2="519.0" stroke="#999"/>
<text x="622.7" y="531.0" text-anchor="end" fill="#e8731a" transform="rotate(-50 622.7 531.0)">07-08</text>
<line x1="692.0" y1="516.0" x2="692.0" y2="519.0" stroke="#999"/>
<text x="692.0" y="531.0" text-anchor="end" fill="#e8731a" transform="rotate(-50 692.0 531.0)">07-09</text>
<line x1="761.3" y1="516.0" x2="761.3" y2="519.0" stroke="#999"/>
<text x="761.3" y="531.0" text-anchor="end" fill="#e8731a" transform="rotate(-50 761.3 531.0)">07-10</text>
<line x1="830.7" y1="516.0" x2="830.7" y2="519.0" stroke="#999"/>
<text x="830.7" y="531.0" text-anchor="end" fill="#e8731a" transform="rotate(-50 830.7 531.0)">07-11</text>
<line x1="900.0" y1="516.0" x2="900.0" y2="519.0" stroke="#999"/>
<text x="900.0" y="531.0" text-anchor="end" fill="#e8731a" transform="rotate(-50 900.0 531.0)">07-14</text>
<line x1="969.3" y1="516.0" x2="969.3" y2="519.0" stroke="#999"/>
<text x="969.3" y="531.0" text-anchor="end" fill="#e8731a" transform="rotate(-50 969.3 531.0)">07-15</text>
<line x1="1038.7" y1="516.0" x2="1038.7" y2="519.0" stroke="#999"/>
<text x="1038.7" y="531.0" text-anchor="end" fill="#e8731a" transform="rotate(-50 1038.7 531.0)">07-15</text>
<line x1="1108.0" y1="516.0" x2="1108.0" y2="519.0" stroke="#999"/>
<text x="1108.0" y="531.0" text-anchor="end" fill="#e8731a" transform="rotate(-50 1108.0 531.0)">07-16</text>
<polygon points="68.0,515.5 137.3,515.5 206.7,515.5 276.0,515.5 345.3,515.5 414.7,515.5 484.0,515.5 553.3,515.6 622.7,515.6 692.0,515.6 761.3,515.6 830.7,515.6 900.0,515.6 969.3,515.6 1038.7,515.6 1108.0,515.6 1108.0,516.0 1038.7,516.0 969.3,516.0 900.0,516.0 830.7,516.0 761.3,516.0 692.0,516.0 622.7,516.0 553.3,516.0 484.0,516.0 414.7,516.0 345.3,516.0 276.0,516.0 206.7,516.0 137.3,516.0 68.0,516.0" fill="#c7e9c0" fill-opacity="0.9" stroke="#fff" stroke-width="0.4"><title>emit_hlsl — parseTranslationUnit</title></polygon>
<polygon points="68.0,499.0 137.3,498.5 206.7,498.2 276.0,499.5 345.3,498.2 414.7,499.3 484.0,499.2 553.3,499.8 622.7,499.7 692.0,499.6 761.3,499.5 830.7,499.4 900.0,499.1 969.3,500.6 1038.7,500.8 1108.0,498.6 1108.0,515.6 1038.7,515.6 969.3,515.6 900.0,515.6 830.7,515.6 761.3,515.6 692.0,515.6 622.7,515.6 553.3,515.6 484.0,515.5 414.7,515.5 345.3,515.5 276.0,515.5 206.7,515.5 137.3,515.5 68.0,515.5" fill="#41ab5d" fill-opacity="0.9" stroke="#fff" stroke-width="0.4"><title>emit_hlsl — SemanticChecking</title></polygon>
<polygon points="68.0,491.1 137.3,490.9 206.7,490.4 276.0,492.1 345.3,490.2 414.7,492.0 484.0,491.9 553.3,492.4 622.7,491.7 692.0,492.1 761.3,495.0 830.7,494.9 900.0,494.7 969.3,496.2 1038.7,496.4 1108.0,494.4 1108.0,498.6 1038.7,500.8 969.3,500.6 900.0,499.1 830.7,499.4 761.3,499.5 692.0,499.6 622.7,499.7 553.3,499.8 484.0,499.2 414.7,499.3 345.3,498.2 276.0,499.5 206.7,498.2 137.3,498.5 68.0,499.0" fill="#006d2c" fill-opacity="0.9" stroke="#fff" stroke-width="0.4"><title>emit_hlsl — generateIR</title></polygon>
<polygon points="68.0,491.0 137.3,490.5 206.7,490.2 276.0,491.8 345.3,490.2 414.7,491.9 484.0,491.7 553.3,492.2 622.7,491.4 692.0,491.9 761.3,494.8 830.7,494.7 900.0,494.0 969.3,496.0 1038.7,496.2 1108.0,494.3 1108.0,494.4 1038.7,496.4 969.3,496.2 900.0,494.7 830.7,494.9 761.3,495.0 692.0,492.1 622.7,491.7 553.3,492.4 484.0,491.9 414.7,492.0 345.3,490.2 276.0,492.1 206.7,490.4 137.3,490.9 68.0,491.1" fill="#74c476" fill-opacity="0.9" stroke="#fff" stroke-width="0.4"><title>emit_hlsl — frontEndExecute (self)</title></polygon>
<polygon points="68.0,480.8 137.3,479.8 206.7,479.5 276.0,481.5 345.3,479.4 414.7,481.8 484.0,481.7 553.3,481.1 622.7,479.3 692.0,480.7 761.3,489.7 830.7,489.5 900.0,488.8 969.3,491.3 1038.7,491.4 1108.0,489.4 1108.0,494.3 1038.7,496.2 969.3,496.0 900.0,494.0 830.7,494.7 761.3,494.8 692.0,491.9 622.7,491.4 553.3,492.2 484.0,491.7 414.7,491.9 345.3,490.2 276.0,491.8 206.7,490.2 137.3,490.5 68.0,491.0" fill="#6baed6" fill-opacity="0.9" stroke="#fff" stroke-width="0.4"><title>emit_hlsl — specializeModule</title></polygon>
<polygon points="68.0,452.9 137.3,450.9 206.7,449.6 276.0,452.9 345.3,449.1 414.7,454.1 484.0,454.7 553.3,453.6 622.7,449.4 692.0,452.2 761.3,485.4 830.7,485.2 900.0,484.5 969.3,486.9 1038.7,487.0 1108.0,485.1 1108.0,489.4 1038.7,491.4 969.3,491.3 900.0,488.8 830.7,489.5 761.3,489.7 692.0,480.7 622.7,479.3 553.3,481.1 484.0,481.7 414.7,481.8 345.3,479.4 276.0,481.5 206.7,479.5 137.3,479.8 68.0,480.8" fill="#2171b5" fill-opacity="0.9" stroke="#fff" stroke-width="0.4"><title>emit_hlsl — simplifyIR</title></polygon>
<polygon points="68.0,452.3 137.3,450.2 206.7,448.9 276.0,452.3 345.3,448.5 414.7,453.5 484.0,454.1 553.3,453.0 622.7,448.9 692.0,451.7 761.3,484.8 830.7,484.7 900.0,483.9 969.3,486.4 1038.7,486.5 1108.0,484.6 1108.0,485.1 1038.7,487.0 969.3,486.9 900.0,484.5 830.7,485.2 761.3,485.4 692.0,452.2 622.7,449.4 553.3,453.6 484.0,454.7 414.7,454.1 345.3,449.1 276.0,452.9 206.7,449.6 137.3,450.9 68.0,452.9" fill="#08306b" fill-opacity="0.9" stroke="#fff" stroke-width="0.4"><title>emit_hlsl — linkIR</title></polygon>
<polygon points="68.0,452.3 137.3,450.2 206.7,448.9 276.0,452.3 345.3,448.5 414.7,453.5 484.0,454.1 553.3,453.0 622.7,448.9 692.0,451.7 761.3,484.8 830.7,484.7 900.0,483.9 969.3,486.4 1038.7,486.5 1108.0,484.6 1108.0,484.6 1038.7,486.5 969.3,486.4 900.0,483.9 830.7,484.7 761.3,484.8 692.0,451.7 622.7,448.9 553.3,453.0 484.0,454.1 414.7,453.5 345.3,448.5 276.0,452.3 206.7,448.9 137.3,450.2 68.0,452.3" fill="#9e9ac8" fill-opacity="0.9" stroke="#fff" stroke-width="0.4"><title>emit_hlsl — unrollLoopsInModule</title></polygon>
<polygon points="68.0,388.8 137.3,385.4 206.7,373.1 276.0,389.2 345.3,382.7 414.7,391.7 484.0,391.0 553.3,390.9 622.7,383.6 692.0,388.7 761.3,461.1 830.7,460.9 900.0,460.4 969.3,462.1 1038.7,461.8 1108.0,460.7 1108.0,484.6 1038.7,486.5 969.3,486.4 900.0,483.9 830.7,484.7 761.3,484.8 692.0,451.7 622.7,448.9 553.3,453.0 484.0,454.1 414.7,453.5 345.3,448.5 276.0,452.3 206.7,448.9 137.3,450.2 68.0,452.3" fill="#807dba" fill-opacity="0.9" stroke="#fff" stroke-width="0.4"><title>emit_hlsl — legalizeResourceTypes</title></polygon>
<polygon points="68.0,324.6 137.3,319.1 206.7,304.4 276.0,325.0 345.3,316.3 414.7,328.1 484.0,327.5 553.3,328.7 622.7,315.8 692.0,325.9 761.3,436.8 830.7,436.7 900.0,436.0 969.3,437.7 1038.7,437.0 1108.0,436.6 1108.0,460.7 1038.7,461.8 969.3,462.1 900.0,460.4 830.7,460.9 761.3,461.1 692.0,388.7 622.7,383.6 553.3,390.9 484.0,391.0 414.7,391.7 345.3,382.7 276.0,389.2 206.7,373.1 137.3,385.4 68.0,388.8" fill="#6a51a3" fill-opacity="0.9" stroke="#fff" stroke-width="0.4"><title>emit_hlsl — legalizeExistentialTypeLayout</title></polygon>
<polygon points="68.0,324.5 137.3,319.0 206.7,304.2 276.0,324.9 345.3,316.1 414.7,328.0 484.0,327.4 553.3,328.5 622.7,315.6 692.0,325.8 761.3,436.6 830.7,436.5 900.0,435.9 969.3,437.5 1038.7,436.9 1108.0,436.4 1108.0,436.6 1038.7,437.0 969.3,437.7 900.0,436.0 830.7,436.7 761.3,436.8 692.0,325.9 622.7,315.8 553.3,328.7 484.0,327.5 414.7,328.1 345.3,316.3 276.0,325.0 206.7,304.4 137.3,319.1 68.0,324.6" fill="#bcbddc" fill-opacity="0.9" stroke="#fff" stroke-width="0.4"><title>emit_hlsl — performMandatoryEarlyInlining</title></polygon>
<polygon points="68.0,324.4 137.3,318.9 206.7,304.2 276.0,324.8 345.3,316.1 414.7,327.9 484.0,327.3 553.3,328.5 622.7,315.5 692.0,325.7 761.3,436.6 830.7,436.5 900.0,435.8 969.3,437.4 1038.7,436.8 1108.0,436.3 1108.0,436.4 1038.7,436.9 969.3,437.5 900.0,435.9 830.7,436.5 761.3,436.6 692.0,325.8 622.7,315.6 553.3,328.5 484.0,327.4 414.7,328.0 345.3,316.1 276.0,324.9 206.7,304.2 137.3,319.0 68.0,324.5" fill="#dadaeb" fill-opacity="0.9" stroke="#fff" stroke-width="0.4"><title>emit_hlsl — performForceInlining</title></polygon>
<polygon points="68.0,151.9 137.3,141.1 206.7,111.8 276.0,151.6 345.3,135.8 414.7,157.9 484.0,157.0 553.3,158.6 622.7,132.8 692.0,153.3 761.3,372.0 830.7,371.7 900.0,371.1 969.3,372.8 1038.7,371.4 1108.0,372.2 1108.0,436.3 1038.7,436.8 969.3,437.4 900.0,435.8 830.7,436.5 761.3,436.6 692.0,325.7 622.7,315.5 553.3,328.5 484.0,327.3 414.7,327.9 345.3,316.1 276.0,324.8 206.7,304.2 137.3,318.9 68.0,324.4" fill="#fd8d3c" fill-opacity="0.9" stroke="#fff" stroke-width="0.4"><title>emit_hlsl — emitEntryPointsSourceFromIR</title></polygon>
<polygon points="68.0,151.9 137.3,140.8 206.7,108.6 276.0,151.6 345.3,135.8 414.7,157.9 484.0,156.9 553.3,158.4 622.7,132.8 692.0,150.5 761.3,371.4 830.7,371.7 900.0,370.7 969.3,372.7 1038.7,371.4 1108.0,372.2 1108.0,372.2 1038.7,371.4 969.3,372.8 900.0,371.1 830.7,371.7 761.3,372.0 692.0,153.3 622.7,132.8 553.3,158.6 484.0,157.0 414.7,157.9 345.3,135.8 276.0,151.6 206.7,111.8 137.3,141.1 68.0,151.9" fill="#969696" fill-opacity="0.9" stroke="#fff" stroke-width="0.4"><title>emit_hlsl — compileInner (self)</title></polygon>
<text x="12" y="578" fill="#666" font-weight="600">phase buckets</text>
<rect x="12" y="586" width="12" height="12" fill="#c7e9c0"/>
<text x="28" y="596" fill="#222">parseTranslationUnit</text>
<rect x="289" y="586" width="12" height="12" fill="#41ab5d"/>
<text x="305" y="596" fill="#222">SemanticChecking</text>
<rect x="566" y="586" width="12" height="12" fill="#006d2c"/>
<text x="582" y="596" fill="#222">generateIR</text>
<rect x="843" y="586" width="12" height="12" fill="#74c476"/>
<text x="859" y="596" fill="#222">frontEndExecute (self)</text>
<rect x="12" y="604" width="12" height="12" fill="#6baed6"/>
<text x="28" y="614" fill="#222">specializeModule</text>
<rect x="289" y="604" width="12" height="12" fill="#2171b5"/>
<text x="305" y="614" fill="#222">simplifyIR</text>
<rect x="566" y="604" width="12" height="12" fill="#08306b"/>
<text x="582" y="614" fill="#222">linkIR</text>
<rect x="843" y="604" width="12" height="12" fill="#9e9ac8"/>
<text x="859" y="614" fill="#222">unrollLoopsInModule</text>
<rect x="12" y="622" width="12" height="12" fill="#807dba"/>
<text x="28" y="632" fill="#222">legalizeResourceTypes</text>
<rect x="289" y="622" width="12" height="12" fill="#6a51a3"/>
<text x="305" y="632" fill="#222">legalizeExistentialTypeLayout</text>
<rect x="566" y="622" width="12" height="12" fill="#bcbddc"/>
<text x="582" y="632" fill="#222">performMandatoryEarlyInlining</text>
<rect x="843" y="622" width="12" height="12" fill="#dadaeb"/>
<text x="859" y="632" fill="#222">performForceInlining</text>
<rect x="12" y="640" width="12" height="12" fill="#4a1486"/>
<text x="28" y="650" fill="#222">linkAndOptimizeIR (self)</text>
<rect x="289" y="640" width="12" height="12" fill="#fd8d3c"/>
<text x="305" y="650" fill="#222">emitEntryPointsSourceFromIR</text>
<rect x="566" y="640" width="12" height="12" fill="#e6550d"/>
<text x="582" y="650" fill="#222">generateOutput (self)</text>
<rect x="843" y="640" width="12" height="12" fill="#969696"/>
<text x="859" y="650" fill="#222">compileInner (self)</text>
</svg>