<svg xmlns="http://www.w3.org/2000/svg" xmlns:xlink="http://www.w3.org/1999/xlink" width="1132" height="680" viewBox="0 0 1132 680" preserveAspectRatio="xMidYMid meet" font-family="sans-serif" font-size="13">
<rect width="1132" height="680" fill="white"/>
<text x="12" y="30" font-size="20" font-weight="bold">emit_glsl — Across releases (median ms)</text>
<text x="68" y="60" font-size="15" font-weight="600" fill="#1a1a1a">emit_glsl<tspan fill="#888" font-weight="400" text-decoration="none">  0.44×</tspan></text>
<line x1="68.0" y1="516.0" x2="1108.0" y2="516.0" stroke="#eee"/>
<text x="64.0" y="519.0" text-anchor="end" fill="#999">0.0</text>
<line x1="68.0" y1="296.0" x2="1108.0" y2="296.0" stroke="#eee"/>
<text x="64.0" y="299.0" text-anchor="end" fill="#999">1009</text>
<line x1="68.0" y1="76.0" x2="1108.0" y2="76.0" stroke="#eee"/>
<text x="64.0" y="79.0" text-anchor="end" fill="#999">2018</text>
<line x1="68.0" y1="76.0" x2="68.0" y2="516.0" stroke="#333"/>
<line x1="68.0" y1="516.0" x2="1108.0" y2="516.0" stroke="#333"/>
<line x1="68.0" y1="516.0" x2="68.0" y2="519.0" stroke="#999"/>
<text x="68.0" y="531.0" text-anchor="end" fill="#666" transform="rotate(-50 68.0 531.0)">25.12</text>
<line x1="113.2" y1="516.0" x2="113.2" y2="519.0" stroke="#999"/>
<text x="113.2" y="531.0" text-anchor="end" fill="#666" transform="rotate(-50 113.2 531.0)">25.13</text>
<line x1="158.4" y1="516.0" x2="158.4" y2="519.0" stroke="#999"/>
<text x="158.4" y="531.0" text-anchor="end" fill="#666" transform="rotate(-50 158.4 531.0)">25.14</text>
<line x1="203.7" y1="516.0" x2="203.7" y2="519.0" stroke="#999"/>
<text x="203.7" y="531.0" text-anchor="end" fill="#666" transform="rotate(-50 203.7 531.0)">25.15</text>
<line x1="248.9" y1="516.0" x2="248.9" y2="519.0" stroke="#999"/>
<text x="248.9" y="531.0" text-anchor="end" fill="#666" transform="rotate(-50 248.9 531.0)">25.16</text>
<line x1="294.1" y1="516.0" x2="294.1" y2="519.0" stroke="#999"/>
<text x="294.1" y="531.0" text-anchor="end" fill="#666" transform="rotate(-50 294.1 531.0)">25.17</text>
<line x1="339.3" y1="516.0" x2="339.3" y2="519.0" stroke="#999"/>
<text x="339.3" y="531.0" text-anchor="end" fill="#666" transform="rotate(-50 339.3 531.0)">25.18</text>
<line x1="384.5" y1="516.0" x2="384.5" y2="519.0" stroke="#999"/>
<text x="384.5" y="531.0" text-anchor="end" fill="#666" transform="rotate(-50 384.5 531.0)">25.19</text>
<line x1="429.7" y1="516.0" x2="429.7" y2="519.0" stroke="#999"/>
<text x="429.7" y="531.0" text-anchor="end" fill="#666" transform="rotate(-50 429.7 531.0)">25.20</text>
<line x1="475.0" y1="516.0" x2="475.0" y2="519.0" stroke="#999"/>
<text x="475.0" y="531.0" text-anchor="end" fill="#666" transform="rotate(-50 475.0 531.0)">25.21</text>
<line x1="520.2" y1="516.0" x2="520.2" y2="519.0" stroke="#999"/>
<text x="520.2" y="531.0" text-anchor="end" fill="#666" transform="rotate(-50 520.2 531.0)">25.22</text>
<line x1="565.4" y1="516.0" x2="565.4" y2="519.0" stroke="#999"/>
<text x="565.4" y="531.0" text-anchor="end" fill="#666" transform="rotate(-50 565.4 531.0)">25.23</text>
<line x1="610.6" y1="516.0" x2="610.6" y2="519.0" stroke="#999"/>
<text x="610.6" y="531.0" text-anchor="end" fill="#666" transform="rotate(-50 610.6 531.0)">25.24</text>
<line x1="655.8" y1="516.0" x2="655.8" y2="519.0" stroke="#999"/>
<text x="655.8" y="531.0" text-anchor="end" fill="#666" transform="rotate(-50 655.8 531.0)">26.1</text>
<line x1="701.0" y1="516.0" x2="701.0" y2="519.0" stroke="#999"/>
<text x="701.0" y="531.0" text-anchor="end" fill="#666" transform="rotate(-50 701.0 531.0)">26.2</text>
<line x1="746.3" y1="516.0" x2="746.3" y2="519.0" stroke="#999"/>
<text x="746.3" y="531.0" text-anchor="end" fill="#666" transform="rotate(-50 746.3 531.0)">26.3</text>
<line x1="791.5" y1="516.0" x2="791.5" y2="519.0" stroke="#999"/>
<text x="791.5" y="531.0" text-anchor="end" fill="#666" transform="rotate(-50 791.5 531.0)">26.4</text>
<line x1="836.7" y1="516.0" x2="836.7" y2="519.0" stroke="#999"/>
<text x="836.7" y="531.0" text-anchor="end" fill="#666" transform="rotate(-50 836.7 531.0)">26.5</text>
<line x1="881.9" y1="516.0" x2="881.9" y2="519.0" stroke="#999"/>
<text x="881.9" y="531.0" text-anchor="end" fill="#666" transform="rotate(-50 881.9 531.0)">26.7</text>
<line x1="927.1" y1="516.0" x2="927.1" y2="519.0" stroke="#999"/>
<text x="927.1" y="531.0" text-anchor="end" fill="#666" transform="rotate(-50 927.1 531.0)">26.8</text>
<line x1="972.3" y1="516.0" x2="972.3" y2="519.0" stroke="#999"/>
<text x="972.3" y="531.0" text-anchor="end" fill="#666" transform="rotate(-50 972.3 531.0)">26.9</text>
<line x1="1017.6" y1="516.0" x2="1017.6" y2="519.0" stroke="#999"/>
<text x="1017.6" y="531.0" text-anchor="end" fill="#666" transform="rotate(-50 1017.6 531.0)">26.10</text>
<line x1="1062.8" y1="516.0" x2="1062.8" y2="519.0" stroke="#999"/>
<text x="1062.8" y="531.0" text-anchor="end" fill="#666" transform="rotate(-50 1062.8 531.0)">26.11</text>
<line x1="1108.0" y1="516.0" x2="1108.0" y2="519.0" stroke="#999"/>
<text x="1108.0" y="531.0" text-anchor="end" fill="#666" transform="rotate(-50 1108.0 531.0)">26.12</text>
<polygon points="68.0,515.8 113.2,515.6 158.4,515.7 203.7,515.8 248.9,515.8 294.1,515.8 339.3,515.8 384.5,515.8 429.7,515.8 475.0,515.8 520.2,515.8 565.4,515.8 610.6,515.8 655.8,515.8 701.0,515.8 746.3,515.8 791.5,515.8 836.7,515.8 881.9,515.8 927.1,515.8 972.3,515.8 1017.6,515.8 1062.8,515.8 1108.0,515.8 1108.0,516.0 1062.8,516.0 1017.6,516.0 972.3,516.0 927.1,516.0 881.9,516.0 836.7,516.0 791.5,516.0 746.3,516.0 701.0,516.0 655.8,516.0 610.6,516.0 565.4,516.0 520.2,516.0 475.0,516.0 429.7,516.0 384.5,516.0 339.3,516.0 294.1,516.0 248.9,516.0 203.7,516.0 158.4,516.0 113.2,516.0 68.0,516.0" fill="#c7e9c0" fill-opacity="0.9" stroke="#fff" stroke-width="0.4"><title>emit_glsl — parseTranslationUnit</title></polygon>
<polygon points="68.0,506.6 113.2,503.2 158.4,505.9 203.7,503.3 248.9,503.9 294.1,503.7 339.3,503.8 384.5,503.9 429.7,503.8 475.0,503.7 520.2,503.6 565.4,503.3 610.6,503.7 655.8,503.5 701.0,502.8 746.3,502.4 791.5,502.2 836.7,501.0 881.9,498.2 927.1,497.8 972.3,499.3 1017.6,499.5 1062.8,508.6 1108.0,508.0 1108.0,515.8 1062.8,515.8 1017.6,515.8 972.3,515.8 927.1,515.8 881.9,515.8 836.7,515.8 791.5,515.8 746.3,515.8 701.0,515.8 655.8,515.8 610.6,515.8 565.4,515.8 520.2,515.8 475.0,515.8 429.7,515.8 384.5,515.8 339.3,515.8 294.1,515.8 248.9,515.8 203.7,515.8 158.4,515.7 113.2,515.6 68.0,515.8" fill="#41ab5d" fill-opacity="0.9" stroke="#fff" stroke-width="0.4"><title>emit_glsl — SemanticChecking</title></polygon>
<polygon points="68.0,504.7 113.2,500.7 158.4,503.7 203.7,501.1 248.9,501.8 294.1,501.5 339.3,501.7 384.5,501.8 429.7,501.6 475.0,501.6 520.2,501.5 565.4,501.2 610.6,501.6 655.8,501.3 701.0,500.7 746.3,500.3 791.5,500.0 836.7,498.7 881.9,494.2 927.1,493.7 972.3,495.4 1017.6,495.7 1062.8,505.3 1108.0,504.5 1108.0,508.0 1062.8,508.6 1017.6,499.5 972.3,499.3 927.1,497.8 881.9,498.2 836.7,501.0 791.5,502.2 746.3,502.4 701.0,502.8 655.8,503.5 610.6,503.7 565.4,503.3 520.2,503.6 475.0,503.7 429.7,503.8 384.5,503.9 339.3,503.8 294.1,503.7 248.9,503.9 203.7,503.3 158.4,505.9 113.2,503.2 68.0,506.6" fill="#006d2c" fill-opacity="0.9" stroke="#fff" stroke-width="0.4"><title>emit_glsl — generateIR</title></polygon>
<polygon points="68.0,504.4 113.2,500.5 158.4,503.7 203.7,501.1 248.9,501.8 294.1,501.5 339.3,501.6 384.5,501.7 429.7,501.6 475.0,501.5 520.2,501.5 565.4,501.1 610.6,501.5 655.8,501.3 701.0,500.6 746.3,500.2 791.5,500.0 836.7,498.5 881.9,494.2 927.1,493.7 972.3,495.4 1017.6,495.6 1062.8,505.2 1108.0,504.4 1108.0,504.5 1062.8,505.3 1017.6,495.7 972.3,495.4 927.1,493.7 881.9,494.2 836.7,498.7 791.5,500.0 746.3,500.3 701.0,500.7 655.8,501.3 610.6,501.6 565.4,501.2 520.2,501.5 475.0,501.6 429.7,501.6 384.5,501.8 339.3,501.7 294.1,501.5 248.9,501.8 203.7,501.1 158.4,503.7 113.2,500.7 68.0,504.7" fill="#74c476" fill-opacity="0.9" stroke="#fff" stroke-width="0.4"><title>emit_glsl — frontEndExecute (self)</title></polygon>
<polygon points="68.0,503.9 113.2,499.9 158.4,503.1 203.7,500.5 248.9,501.2 294.1,500.9 339.3,501.1 384.5,501.1 429.7,501.0 475.0,500.9 520.2,500.9 565.4,500.5 610.6,500.4 655.8,500.2 701.0,499.5 746.3,499.1 791.5,498.9 836.7,497.2 881.9,489.0 927.1,489.3 972.3,490.9 1017.6,491.3 1062.8,501.2 1108.0,500.4 1108.0,504.4 1062.8,505.2 1017.6,495.6 972.3,495.4 927.1,493.7 881.9,494.2 836.7,498.5 791.5,500.0 746.3,500.2 701.0,500.6 655.8,501.3 610.6,501.5 565.4,501.1 520.2,501.5 475.0,501.5 429.7,501.6 384.5,501.7 339.3,501.6 294.1,501.5 248.9,501.8 203.7,501.1 158.4,503.7 113.2,500.5 68.0,504.4" fill="#6baed6" fill-opacity="0.9" stroke="#fff" stroke-width="0.4"><title>emit_glsl — specializeModule</title></polygon>
<polygon points="68.0,502.9 113.2,498.7 158.4,502.0 203.7,499.4 248.9,500.1 294.1,499.9 339.3,499.9 384.5,500.0 429.7,499.9 475.0,499.9 520.2,499.8 565.4,499.4 610.6,499.5 655.8,499.3 701.0,498.6 746.3,498.1 791.5,497.9 836.7,496.2 881.9,474.6 927.1,475.0 972.3,477.3 1017.6,477.9 1062.8,488.0 1108.0,487.8 1108.0,500.4 1062.8,501.2 1017.6,491.3 972.3,490.9 927.1,489.3 881.9,489.0 836.7,497.2 791.5,498.9 746.3,499.1 701.0,499.5 655.8,500.2 610.6,500.4 565.4,500.5 520.2,500.9 475.0,500.9 429.7,501.0 384.5,501.1 339.3,501.1 294.1,500.9 248.9,501.2 203.7,500.5 158.4,503.1 113.2,499.9 68.0,503.9" fill="#2171b5" fill-opacity="0.9" stroke="#fff" stroke-width="0.4"><title>emit_glsl — simplifyIR</title></polygon>
<polygon points="68.0,502.8 113.2,498.4 158.4,501.7 203.7,499.2 248.9,499.9 294.1,499.7 339.3,499.7 384.5,499.8 429.7,499.6 475.0,499.6 520.2,499.6 565.4,499.2 610.6,499.3 655.8,499.0 701.0,498.4 746.3,497.9 791.5,497.6 836.7,495.9 881.9,470.6 927.1,471.0 972.3,473.4 1017.6,473.9 1062.8,487.7 1108.0,487.6 1108.0,487.8 1062.8,488.0 1017.6,477.9 972.3,477.3 927.1,475.0 881.9,474.6 836.7,496.2 791.5,497.9 746.3,498.1 701.0,498.6 655.8,499.3 610.6,499.5 565.4,499.4 520.2,499.8 475.0,499.9 429.7,499.9 384.5,500.0 339.3,499.9 294.1,499.9 248.9,500.1 203.7,499.4 158.4,502.0 113.2,498.7 68.0,502.9" fill="#08306b" fill-opacity="0.9" stroke="#fff" stroke-width="0.4"><title>emit_glsl — linkIR</title></polygon>
<polygon points="68.0,502.8 113.2,498.4 158.4,501.7 203.7,499.2 248.9,499.9 294.1,499.7 339.3,499.7 384.5,499.8 429.7,499.6 475.0,499.6 520.2,499.6 565.4,499.2 610.6,499.3 655.8,499.0 701.0,498.4 746.3,497.9 791.5,497.6 836.7,495.9 881.9,470.6 927.1,471.0 972.3,473.4 1017.6,473.9 1062.8,487.7 1108.0,487.6 1108.0,487.6 1062.8,487.7 1017.6,473.9 972.3,473.4 927.1,471.0 881.9,470.6 836.7,495.9 791.5,497.6 746.3,497.9 701.0,498.4 655.8,499.0 610.6,499.3 565.4,499.2 520.2,499.6 475.0,499.6 429.7,499.6 384.5,499.8 339.3,499.7 294.1,499.7 248.9,499.9 203.7,499.2 158.4,501.7 113.2,498.4 68.0,502.8" fill="#9e9ac8" fill-opacity="0.9" stroke="#fff" stroke-width="0.4"><title>emit_glsl — unrollLoopsInModule</title></polygon>
<polygon points="68.0,418.3 113.2,403.0 158.4,414.5 203.7,412.1 248.9,417.0 294.1,418.7 339.3,478.3 384.5,478.8 429.7,479.1 475.0,478.9 520.2,478.9 565.4,477.6 610.6,478.7 655.8,478.1 701.0,477.0 746.3,476.9 791.5,476.8 836.7,472.8 881.9,441.8 927.1,443.0 972.3,445.7 1017.6,446.4 1062.8,461.5 1108.0,460.9 1108.0,487.6 1062.8,487.7 1017.6,473.9 972.3,473.4 927.1,471.0 881.9,470.6 836.7,495.9 791.5,497.6 746.3,497.9 701.0,498.4 655.8,499.0 610.6,499.3 565.4,499.2 520.2,499.6 475.0,499.6 429.7,499.6 384.5,499.8 339.3,499.7 294.1,499.7 248.9,499.9 203.7,499.2 158.4,501.7 113.2,498.4 68.0,502.8" fill="#807dba" fill-opacity="0.9" stroke="#fff" stroke-width="0.4"><title>emit_glsl — legalizeResourceTypes</title></polygon>
<polygon points="68.0,333.9 113.2,305.6 158.4,327.3 203.7,324.5 248.9,333.6 294.1,337.5 339.3,456.7 384.5,457.7 429.7,458.4 475.0,458.3 520.2,458.0 565.4,456.5 610.6,457.8 655.8,457.1 701.0,455.6 746.3,455.7 791.5,456.1 836.7,449.6 881.9,413.3 927.1,414.0 972.3,417.8 1017.6,419.8 1062.8,434.8 1108.0,434.2 1108.0,460.9 1062.8,461.5 1017.6,446.4 972.3,445.7 927.1,443.0 881.9,441.8 836.7,472.8 791.5,476.8 746.3,476.9 701.0,477.0 655.8,478.1 610.6,478.7 565.4,477.6 520.2,478.9 475.0,478.9 429.7,479.1 384.5,478.8 339.3,478.3 294.1,418.7 248.9,417.0 203.7,412.1 158.4,414.5 113.2,403.0 68.0,418.3" fill="#6a51a3" fill-opacity="0.9" stroke="#fff" stroke-width="0.4"><title>emit_glsl — legalizeExistentialTypeLayout</title></polygon>
<polygon points="68.0,333.9 113.2,305.6 158.4,327.3 203.7,324.4 248.9,333.5 294.1,337.5 339.3,456.7 384.5,457.7 429.7,458.3 475.0,458.2 520.2,457.9 565.4,456.5 610.6,457.8 655.8,457.0 701.0,455.5 746.3,455.6 791.5,456.1 836.7,449.5 881.9,413.2 927.1,414.0 972.3,417.8 1017.6,419.8 1062.8,434.7 1108.0,434.1 1108.0,434.2 1062.8,434.8 1017.6,419.8 972.3,417.8 927.1,414.0 881.9,413.3 836.7,449.6 791.5,456.1 746.3,455.7 701.0,455.6 655.8,457.1 610.6,457.8 565.4,456.5 520.2,458.0 475.0,458.3 429.7,458.4 384.5,457.7 339.3,456.7 294.1,337.5 248.9,333.6 203.7,324.5 158.4,327.3 113.2,305.6 68.0,333.9" fill="#bcbddc" fill-opacity="0.9" stroke="#fff" stroke-width="0.4"><title>emit_glsl — performMandatoryEarlyInlining</title></polygon>
<polygon points="68.0,333.9 113.2,305.6 158.4,327.3 203.7,324.4 248.9,333.5 294.1,337.5 339.3,456.6 384.5,457.6 429.7,458.3 475.0,458.2 520.2,457.9 565.4,456.4 610.6,457.8 655.8,457.0 701.0,455.5 746.3,455.6 791.5,456.0 836.7,449.5 881.9,413.2 927.1,413.9 972.3,417.7 1017.6,419.7 1062.8,434.7 1108.0,434.1 1108.0,434.1 1062.8,434.7 1017.6,419.8 972.3,417.8 927.1,414.0 881.9,413.2 836.7,449.5 791.5,456.1 746.3,455.6 701.0,455.5 655.8,457.0 610.6,457.8 565.4,456.5 520.2,457.9 475.0,458.2 429.7,458.3 384.5,457.7 339.3,456.7 294.1,337.5 248.9,333.5 203.7,324.4 158.4,327.3 113.2,305.6 68.0,333.9" fill="#dadaeb" fill-opacity="0.9" stroke="#fff" stroke-width="0.4"><title>emit_glsl — performForceInlining</title></polygon>
<polygon points="68.0,162.5 113.2,109.8 158.4,150.1 203.7,146.9 248.9,164.4 294.1,172.6 339.3,410.8 384.5,412.7 429.7,414.2 475.0,414.1 520.2,413.5 565.4,411.0 610.6,413.2 655.8,411.8 701.0,409.5 746.3,410.1 791.5,411.2 836.7,399.3 881.9,328.8 927.1,330.8 972.3,337.1 1017.6,340.3 1062.8,361.3 1108.0,360.9 1108.0,434.1 1062.8,434.7 1017.6,419.7 972.3,417.7 927.1,413.9 881.9,413.2 836.7,449.5 791.5,456.0 746.3,455.6 701.0,455.5 655.8,457.0 610.6,457.8 565.4,456.4 520.2,457.9 475.0,458.2 429.7,458.3 384.5,457.6 339.3,456.6 294.1,337.5 248.9,333.5 203.7,324.4 158.4,327.3 113.2,305.6 68.0,333.9" fill="#fd8d3c" fill-opacity="0.9" stroke="#fff" stroke-width="0.4"><title>emit_glsl — emitEntryPointsSourceFromIR</title></polygon>
<polygon points="68.0,162.3 113.2,108.6 158.4,149.7 203.7,143.9 248.9,164.4 294.1,172.5 339.3,410.3 384.5,412.6 429.7,414.0 475.0,413.7 520.2,413.5 565.4,410.9 610.6,413.0 655.8,411.8 701.0,409.3 746.3,410.1 791.5,411.2 836.7,399.3 881.9,328.8 927.1,330.8 972.3,335.7 1017.6,339.7 1062.8,361.2 1108.0,360.7 1108.0,360.9 1062.8,361.3 1017.6,340.3 972.3,337.1 927.1,330.8 881.9,328.8 836.7,399.3 791.5,411.2 746.3,410.1 701.0,409.5 655.8,411.8 610.6,413.2 565.4,411.0 520.2,413.5 475.0,414.1 429.7,414.2 384.5,412.7 339.3,410.8 294.1,172.6 248.9,164.4 203.7,146.9 158.4,150.1 113.2,109.8 68.0,162.5" fill="#969696" fill-opacity="0.9" stroke="#fff" stroke-width="0.4"><title>emit_glsl — compileInner (self)</title></polygon>
<text x="12" y="578" fill="#666" font-weight="600">phase buckets</text>
<rect x="12" y="586" width="12" height="12" fill="#c7e9c0"/>
<text x="28" y="596" fill="#222">parseTranslationUnit</text>
<rect x="289" y="586" width="12" height="12" fill="#41ab5d"/>
<text x="305" y="596" fill="#222">SemanticChecking</text>
<rect x="566" y="586" width="12" height="12" fill="#006d2c"/>
<text x="582" y="596" fill="#222">generateIR</text>
<rect x="843" y="586" width="12" height="12" fill="#74c476"/>
<text x="859" y="596" fill="#222">frontEndExecute (self)</text>
<rect x="12" y="604" width="12" height="12" fill="#6baed6"/>
<text x="28" y="614" fill="#222">specializeModule</text>
<rect x="289" y="604" width="12" height="12" fill="#2171b5"/>
<text x="305" y="614" fill="#222">simplifyIR</text>
<rect x="566" y="604" width="12" height="12" fill="#08306b"/>
<text x="582" y="614" fill="#222">linkIR</text>
<rect x="843" y="604" width="12" height="12" fill="#9e9ac8"/>
<text x="859" y="614" fill="#222">unrollLoopsInModule</text>
<rect x="12" y="622" width="12" height="12" fill="#807dba"/>
<text x="28" y="632" fill="#222">legalizeResourceTypes</text>
<rect x="289" y="622" width="12" height="12" fill="#6a51a3"/>
<text x="305" y="632" fill="#222">legalizeExistentialTypeLayout</text>
<rect x="566" y="622" width="12" height="12" fill="#bcbddc"/>
<text x="582" y="632" fill="#222">performMandatoryEarlyInlining</text>
<rect x="843" y="622" width="12" height="12" fill="#dadaeb"/>
<text x="859" y="632" fill="#222">performForceInlining</text>
<rect x="12" y="640" width="12" height="12" fill="#4a1486"/>
<text x="28" y="650" fill="#222">linkAndOptimizeIR (self)</text>
<rect x="289" y="640" width="12" height="12" fill="#fd8d3c"/>
<text x="305" y="650" fill="#222">emitEntryPointsSourceFromIR</text>
<rect x="566" y="640" width="12" height="12" fill="#e6550d"/>
<text x="582" y="650" fill="#222">generateOutput (self)</text>
<rect x="843" y="640" width="12" height="12" fill="#969696"/>
<text x="859" y="650" fill="#222">compileInner (self)</text>
</svg>