<svg xmlns="http://www.w3.org/2000/svg" xmlns:xlink="http://www.w3.org/1999/xlink" width="1132" height="680" viewBox="0 0 1132 680" preserveAspectRatio="xMidYMid meet" font-family="sans-serif" font-size="13">
<rect width="1132" height="680" fill="white"/>
<text x="12" y="30" font-size="20" font-weight="bold">emit_hlsl — full phase breakdown across releases (median ms)</text>
<text x="68" y="60" font-size="15" font-weight="600" fill="#1a1a1a">emit_hlsl<tspan fill="#888" font-weight="400" text-decoration="none">  0.40×</tspan></text>
<line x1="68.0" y1="516.0" x2="1108.0" y2="516.0" stroke="#eee"/>
<text x="64.0" y="519.0" text-anchor="end" fill="#999">0.0</text>
<line x1="68.0" y1="296.0" x2="1108.0" y2="296.0" stroke="#eee"/>
<text x="64.0" y="299.0" text-anchor="end" fill="#999">464</text>
<line x1="68.0" y1="76.0" x2="1108.0" y2="76.0" stroke="#eee"/>
<text x="64.0" y="79.0" text-anchor="end" fill="#999">928</text>
<line x1="68.0" y1="76.0" x2="68.0" y2="516.0" stroke="#333"/>
<line x1="68.0" y1="516.0" x2="1108.0" y2="516.0" stroke="#333"/>
<line x1="706.9" y1="76.0" x2="706.9" y2="516.0" stroke="#e8731a" stroke-width="1.2" stroke-dasharray="4 3"/>
<text x="709.9" y="87.0" fill="#e8731a" font-size="11">daily →</text>
<line x1="68.0" y1="516.0" x2="68.0" y2="519.0" stroke="#999"/>
<text x="68.0" y="531.0" text-anchor="end" fill="#666" transform="rotate(-50 68.0 531.0)">25.14</text>
<line x1="97.7" y1="516.0" x2="97.7" y2="519.0" stroke="#999"/>
<text x="97.7" y="531.0" text-anchor="end" fill="#666" transform="rotate(-50 97.7 531.0)">25.15</text>
<line x1="127.4" y1="516.0" x2="127.4" y2="519.0" stroke="#999"/>
<text x="127.4" y="531.0" text-anchor="end" fill="#666" transform="rotate(-50 127.4 531.0)">25.16</text>
<line x1="157.1" y1="516.0" x2="157.1" y2="519.0" stroke="#999"/>
<text x="157.1" y="531.0" text-anchor="end" fill="#666" transform="rotate(-50 157.1 531.0)">25.17</text>
<line x1="186.9" y1="516.0" x2="186.9" y2="519.0" stroke="#999"/>
<text x="186.9" y="531.0" text-anchor="end" fill="#666" transform="rotate(-50 186.9 531.0)">25.18</text>
<line x1="216.6" y1="516.0" x2="216.6" y2="519.0" stroke="#999"/>
<text x="216.6" y="531.0" text-anchor="end" fill="#666" transform="rotate(-50 216.6 531.0)">25.19</text>
<line x1="246.3" y1="516.0" x2="246.3" y2="519.0" stroke="#999"/>
<text x="246.3" y="531.0" text-anchor="end" fill="#666" transform="rotate(-50 246.3 531.0)">25.20</text>
<line x1="276.0" y1="516.0" x2="276.0" y2="519.0" stroke="#999"/>
<text x="276.0" y="531.0" text-anchor="end" fill="#666" transform="rotate(-50 276.0 531.0)">25.21</text>
<line x1="305.7" y1="516.0" x2="305.7" y2="519.0" stroke="#999"/>
<text x="305.7" y="531.0" text-anchor="end" fill="#666" transform="rotate(-50 305.7 531.0)">25.22</text>
<line x1="335.4" y1="516.0" x2="335.4" y2="519.0" stroke="#999"/>
<text x="335.4" y="531.0" text-anchor="end" fill="#666" transform="rotate(-50 335.4 531.0)">25.23</text>
<line x1="365.1" y1="516.0" x2="365.1" y2="519.0" stroke="#999"/>
<text x="365.1" y="531.0" text-anchor="end" fill="#666" transform="rotate(-50 365.1 531.0)">25.24</text>
<line x1="394.9" y1="516.0" x2="394.9" y2="519.0" stroke="#999"/>
<text x="394.9" y="531.0" text-anchor="end" fill="#666" transform="rotate(-50 394.9 531.0)">26.1</text>
<line x1="424.6" y1="516.0" x2="424.6" y2="519.0" stroke="#999"/>
<text x="424.6" y="531.0" text-anchor="end" fill="#666" transform="rotate(-50 424.6 531.0)">26.2</text>
<line x1="454.3" y1="516.0" x2="454.3" y2="519.0" stroke="#999"/>
<text x="454.3" y="531.0" text-anchor="end" fill="#666" transform="rotate(-50 454.3 531.0)">26.3</text>
<line x1="484.0" y1="516.0" x2="484.0" y2="519.0" stroke="#999"/>
<text x="484.0" y="531.0" text-anchor="end" fill="#666" transform="rotate(-50 484.0 531.0)">26.4</text>
<line x1="513.7" y1="516.0" x2="513.7" y2="519.0" stroke="#999"/>
<text x="513.7" y="531.0" text-anchor="end" fill="#666" transform="rotate(-50 513.7 531.0)">26.5</text>
<line x1="543.4" y1="516.0" x2="543.4" y2="519.0" stroke="#999"/>
<text x="543.4" y="531.0" text-anchor="end" fill="#666" transform="rotate(-50 543.4 531.0)">26.7</text>
<line x1="573.1" y1="516.0" x2="573.1" y2="519.0" stroke="#999"/>
<text x="573.1" y="531.0" text-anchor="end" fill="#666" transform="rotate(-50 573.1 531.0)">26.8</text>
<line x1="602.9" y1="516.0" x2="602.9" y2="519.0" stroke="#999"/>
<text x="602.9" y="531.0" text-anchor="end" fill="#666" transform="rotate(-50 602.9 531.0)">26.9</text>
<line x1="632.6" y1="516.0" x2="632.6" y2="519.0" stroke="#999"/>
<text x="632.6" y="531.0" text-anchor="end" fill="#666" transform="rotate(-50 632.6 531.0)">26.10</text>
<line x1="662.3" y1="516.0" x2="662.3" y2="519.0" stroke="#999"/>
<text x="662.3" y="531.0" text-anchor="end" fill="#666" transform="rotate(-50 662.3 531.0)">26.11</text>
<line x1="692.0" y1="516.0" x2="692.0" y2="519.0" stroke="#999"/>
<text x="692.0" y="531.0" text-anchor="end" fill="#666" transform="rotate(-50 692.0 531.0)">26.12</text>
<line x1="721.7" y1="516.0" x2="721.7" y2="519.0" stroke="#999"/>
<text x="721.7" y="531.0" text-anchor="end" fill="#e8731a" transform="rotate(-50 721.7 531.0)">06-25</text>
<line x1="751.4" y1="516.0" x2="751.4" y2="519.0" stroke="#999"/>
<text x="751.4" y="531.0" text-anchor="end" fill="#e8731a" transform="rotate(-50 751.4 531.0)">06-26</text>
<line x1="781.1" y1="516.0" x2="781.1" y2="519.0" stroke="#999"/>
<text x="781.1" y="531.0" text-anchor="end" fill="#e8731a" transform="rotate(-50 781.1 531.0)">06-28</text>
<line x1="810.9" y1="516.0" x2="810.9" y2="519.0" stroke="#999"/>
<text x="810.9" y="531.0" text-anchor="end" fill="#e8731a" transform="rotate(-50 810.9 531.0)">07-01</text>
<line x1="840.6" y1="516.0" x2="840.6" y2="519.0" stroke="#999"/>
<text x="840.6" y="531.0" text-anchor="end" fill="#e8731a" transform="rotate(-50 840.6 531.0)">07-02</text>
<line x1="870.3" y1="516.0" x2="870.3" y2="519.0" stroke="#999"/>
<text x="870.3" y="531.0" text-anchor="end" fill="#e8731a" transform="rotate(-50 870.3 531.0)">07-03</text>
<line x1="900.0" y1="516.0" x2="900.0" y2="519.0" stroke="#999"/>
<text x="900.0" y="531.0" text-anchor="end" fill="#e8731a" transform="rotate(-50 900.0 531.0)">07-06</text>
<line x1="929.7" y1="516.0" x2="929.7" y2="519.0" stroke="#999"/>
<text x="929.7" y="531.0" text-anchor="end" fill="#e8731a" transform="rotate(-50 929.7 531.0)">07-07</text>
<line x1="959.4" y1="516.0" x2="959.4" y2="519.0" stroke="#999"/>
<text x="959.4" y="531.0" text-anchor="end" fill="#e8731a" transform="rotate(-50 959.4 531.0)">07-07</text>
<line x1="989.1" y1="516.0" x2="989.1" y2="519.0" stroke="#999"/>
<text x="989.1" y="531.0" text-anchor="end" fill="#e8731a" transform="rotate(-50 989.1 531.0)">07-08</text>
<line x1="1018.9" y1="516.0" x2="1018.9" y2="519.0" stroke="#999"/>
<text x="1018.9" y="531.0" text-anchor="end" fill="#e8731a" transform="rotate(-50 1018.9 531.0)">07-09</text>
<line x1="1048.6" y1="516.0" x2="1048.6" y2="519.0" stroke="#999"/>
<text x="1048.6" y="531.0" text-anchor="end" fill="#e8731a" transform="rotate(-50 1048.6 531.0)">07-10</text>
<line x1="1078.3" y1="516.0" x2="1078.3" y2="519.0" stroke="#999"/>
<text x="1078.3" y="531.0" text-anchor="end" fill="#e8731a" transform="rotate(-50 1078.3 531.0)">07-11</text>
<line x1="1108.0" y1="516.0" x2="1108.0" y2="519.0" stroke="#999"/>
<text x="1108.0" y="531.0" text-anchor="end" fill="#e8731a" transform="rotate(-50 1108.0 531.0)">07-11</text>
<polygon points="870.3,515.5 900.0,515.5 959.4,515.6 989.1,515.6 1078.3,515.6 1108.0,515.5 1108.0,516.0 1078.3,516.0 989.1,516.0 959.4,516.0 900.0,516.0 870.3,516.0" fill="#c7e9c0" fill-opacity="0.9" stroke="#fff" stroke-width="0.4"><title>emit_hlsl — parseTranslationUnit</title></polygon>
<polygon points="870.3,498.3 900.0,498.1 959.4,498.8 989.1,498.6 1078.3,497.8 1108.0,498.4 1108.0,515.5 1078.3,515.6 989.1,515.6 959.4,515.6 900.0,515.5 870.3,515.5" fill="#41ab5d" fill-opacity="0.9" stroke="#fff" stroke-width="0.4"><title>emit_hlsl — SemanticChecking</title></polygon>
<polygon points="870.3,490.5 900.0,490.4 959.4,490.9 989.1,490.1 1078.3,492.9 1108.0,493.6 1108.0,498.4 1078.3,497.8 989.1,498.6 959.4,498.8 900.0,498.1 870.3,498.3" fill="#006d2c" fill-opacity="0.9" stroke="#fff" stroke-width="0.4"><title>emit_hlsl — generateIR</title></polygon>
<polygon points="870.3,490.3 900.0,490.2 959.4,490.7 989.1,489.8 1078.3,492.7 1108.0,493.4 1108.0,493.6 1078.3,492.9 989.1,490.1 959.4,490.9 900.0,490.4 870.3,490.5" fill="#74c476" fill-opacity="0.9" stroke="#fff" stroke-width="0.4"><title>emit_hlsl — frontEndExecute (self)</title></polygon>
<polygon points="870.3,479.6 900.0,479.6 959.4,478.9 989.1,476.9 1078.3,487.2 1108.0,487.9 1108.0,493.4 1078.3,492.7 989.1,489.8 959.4,490.7 900.0,490.2 870.3,490.3" fill="#6baed6" fill-opacity="0.9" stroke="#fff" stroke-width="0.4"><title>emit_hlsl — specializeModule</title></polygon>
<polygon points="870.3,450.2 900.0,450.9 959.4,449.6 989.1,445.2 1078.3,482.6 1108.0,483.3 1108.0,487.9 1078.3,487.2 989.1,476.9 959.4,478.9 900.0,479.6 870.3,479.6" fill="#2171b5" fill-opacity="0.9" stroke="#fff" stroke-width="0.4"><title>emit_hlsl — simplifyIR</title></polygon>
<polygon points="870.3,449.5 900.0,450.2 959.4,449.0 989.1,444.6 1078.3,482.0 1108.0,482.7 1108.0,483.3 1078.3,482.6 989.1,445.2 959.4,449.6 900.0,450.9 870.3,450.2" fill="#08306b" fill-opacity="0.9" stroke="#fff" stroke-width="0.4"><title>emit_hlsl — linkIR</title></polygon>
<polygon points="870.3,449.5 900.0,450.2 959.4,449.0 989.1,444.6 1078.3,482.0 1108.0,482.7 1108.0,482.7 1078.3,482.0 989.1,444.6 959.4,449.0 900.0,450.2 870.3,449.5" fill="#9e9ac8" fill-opacity="0.9" stroke="#fff" stroke-width="0.4"><title>emit_hlsl — unrollLoopsInModule</title></polygon>
<polygon points="870.3,383.8 900.0,383.1 959.4,383.0 989.1,375.2 1078.3,456.4 1108.0,457.5 1108.0,482.7 1078.3,482.0 989.1,444.6 959.4,449.0 900.0,450.2 870.3,449.5" fill="#807dba" fill-opacity="0.9" stroke="#fff" stroke-width="0.4"><title>emit_hlsl — legalizeResourceTypes</title></polygon>
<polygon points="870.3,316.2 900.0,315.6 959.4,316.9 989.1,303.1 1078.3,430.1 1108.0,431.7 1108.0,457.5 1078.3,456.4 989.1,375.2 959.4,383.0 900.0,383.1 870.3,383.8" fill="#6a51a3" fill-opacity="0.9" stroke="#fff" stroke-width="0.4"><title>emit_hlsl — legalizeExistentialTypeLayout</title></polygon>
<polygon points="870.3,316.1 900.0,315.5 959.4,316.7 989.1,303.0 1078.3,430.0 1108.0,431.5 1108.0,431.7 1078.3,430.1 989.1,303.1 959.4,316.9 900.0,315.6 870.3,316.2" fill="#bcbddc" fill-opacity="0.9" stroke="#fff" stroke-width="0.4"><title>emit_hlsl — performMandatoryEarlyInlining</title></polygon>
<polygon points="870.3,316.0 900.0,315.4 959.4,316.6 989.1,302.9 1078.3,429.9 1108.0,431.4 1108.0,431.5 1078.3,430.0 989.1,303.0 959.4,316.7 900.0,315.5 870.3,316.1" fill="#dadaeb" fill-opacity="0.9" stroke="#fff" stroke-width="0.4"><title>emit_hlsl — performForceInlining</title></polygon>
<polygon points="870.3,135.3 900.0,134.4 959.4,136.0 989.1,108.6 1078.3,360.2 1108.0,362.6 1108.0,431.4 1078.3,429.9 989.1,302.9 959.4,316.6 900.0,315.4 870.3,316.0" fill="#fd8d3c" fill-opacity="0.9" stroke="#fff" stroke-width="0.4"><title>emit_hlsl — emitEntryPointsSourceFromIR</title></polygon>
<polygon points="870.3,135.3 900.0,134.3 959.4,135.8 989.1,108.6 1078.3,360.2 1108.0,362.6 1108.0,362.6 1078.3,360.2 989.1,108.6 959.4,136.0 900.0,134.4 870.3,135.3" fill="#969696" fill-opacity="0.9" stroke="#fff" stroke-width="0.4"><title>emit_hlsl — compileInner (self)</title></polygon>
<text x="12" y="578" fill="#666" font-weight="600">phase buckets</text>
<rect x="12" y="586" width="12" height="12" fill="#c7e9c0"/>
<text x="28" y="596" fill="#222">parseTranslationUnit</text>
<rect x="289" y="586" width="12" height="12" fill="#41ab5d"/>
<text x="305" y="596" fill="#222">SemanticChecking</text>
<rect x="566" y="586" width="12" height="12" fill="#006d2c"/>
<text x="582" y="596" fill="#222">generateIR</text>
<rect x="843" y="586" width="12" height="12" fill="#74c476"/>
<text x="859" y="596" fill="#222">frontEndExecute (self)</text>
<rect x="12" y="604" width="12" height="12" fill="#6baed6"/>
<text x="28" y="614" fill="#222">specializeModule</text>
<rect x="289" y="604" width="12" height="12" fill="#2171b5"/>
<text x="305" y="614" fill="#222">simplifyIR</text>
<rect x="566" y="604" width="12" height="12" fill="#08306b"/>
<text x="582" y="614" fill="#222">linkIR</text>
<rect x="843" y="604" width="12" height="12" fill="#9e9ac8"/>
<text x="859" y="614" fill="#222">unrollLoopsInModule</text>
<rect x="12" y="622" width="12" height="12" fill="#807dba"/>
<text x="28" y="632" fill="#222">legalizeResourceTypes</text>
<rect x="289" y="622" width="12" height="12" fill="#6a51a3"/>
<text x="305" y="632" fill="#222">legalizeExistentialTypeLayout</text>
<rect x="566" y="622" width="12" height="12" fill="#bcbddc"/>
<text x="582" y="632" fill="#222">performMandatoryEarlyInlining</text>
<rect x="843" y="622" width="12" height="12" fill="#dadaeb"/>
<text x="859" y="632" fill="#222">performForceInlining</text>
<rect x="12" y="640" width="12" height="12" fill="#4a1486"/>
<text x="28" y="650" fill="#222">linkAndOptimizeIR (self)</text>
<rect x="289" y="640" width="12" height="12" fill="#fd8d3c"/>
<text x="305" y="650" fill="#222">emitEntryPointsSourceFromIR</text>
<rect x="566" y="640" width="12" height="12" fill="#e6550d"/>
<text x="582" y="650" fill="#222">generateOutput (self)</text>
<rect x="843" y="640" width="12" height="12" fill="#969696"/>
<text x="859" y="650" fill="#222">compileInner (self)</text>
</svg>