<svg xmlns="http://www.w3.org/2000/svg" xmlns:xlink="http://www.w3.org/1999/xlink" width="1132" height="680" viewBox="0 0 1132 680" preserveAspectRatio="xMidYMid meet" font-family="sans-serif" font-size="13">
<rect width="1132" height="680" fill="white"/>
<text x="12" y="30" font-size="20" font-weight="bold">emit_metal — full phase breakdown across releases (median ms)</text>
<text x="68" y="60" font-size="15" font-weight="600" fill="#1a1a1a">emit_metal<tspan fill="#888" font-weight="400" text-decoration="none">  0.46×</tspan></text>
<line x1="68.0" y1="516.0" x2="1108.0" y2="516.0" stroke="#eee"/>
<text x="64.0" y="519.0" text-anchor="end" fill="#999">0.0</text>
<line x1="68.0" y1="296.0" x2="1108.0" y2="296.0" stroke="#eee"/>
<text x="64.0" y="299.0" text-anchor="end" fill="#999">1353</text>
<line x1="68.0" y1="76.0" x2="1108.0" y2="76.0" stroke="#eee"/>
<text x="64.0" y="79.0" text-anchor="end" fill="#999">2705</text>
<line x1="68.0" y1="76.0" x2="68.0" y2="516.0" stroke="#333"/>
<line x1="68.0" y1="516.0" x2="1108.0" y2="516.0" stroke="#333"/>
<line x1="68.0" y1="516.0" x2="68.0" y2="519.0" stroke="#999"/>
<text x="68.0" y="531.0" text-anchor="end" fill="#666" transform="rotate(-50 68.0 531.0)">25.14</text>
<line x1="120.0" y1="516.0" x2="120.0" y2="519.0" stroke="#999"/>
<text x="120.0" y="531.0" text-anchor="end" fill="#666" transform="rotate(-50 120.0 531.0)">25.15</text>
<line x1="172.0" y1="516.0" x2="172.0" y2="519.0" stroke="#999"/>
<text x="172.0" y="531.0" text-anchor="end" fill="#666" transform="rotate(-50 172.0 531.0)">25.16</text>
<line x1="224.0" y1="516.0" x2="224.0" y2="519.0" stroke="#999"/>
<text x="224.0" y="531.0" text-anchor="end" fill="#666" transform="rotate(-50 224.0 531.0)">25.17</text>
<line x1="276.0" y1="516.0" x2="276.0" y2="519.0" stroke="#999"/>
<text x="276.0" y="531.0" text-anchor="end" fill="#666" transform="rotate(-50 276.0 531.0)">25.18</text>
<line x1="328.0" y1="516.0" x2="328.0" y2="519.0" stroke="#999"/>
<text x="328.0" y="531.0" text-anchor="end" fill="#666" transform="rotate(-50 328.0 531.0)">25.19</text>
<line x1="380.0" y1="516.0" x2="380.0" y2="519.0" stroke="#999"/>
<text x="380.0" y="531.0" text-anchor="end" fill="#666" transform="rotate(-50 380.0 531.0)">25.20</text>
<line x1="432.0" y1="516.0" x2="432.0" y2="519.0" stroke="#999"/>
<text x="432.0" y="531.0" text-anchor="end" fill="#666" transform="rotate(-50 432.0 531.0)">25.21</text>
<line x1="484.0" y1="516.0" x2="484.0" y2="519.0" stroke="#999"/>
<text x="484.0" y="531.0" text-anchor="end" fill="#666" transform="rotate(-50 484.0 531.0)">25.22</text>
<line x1="536.0" y1="516.0" x2="536.0" y2="519.0" stroke="#999"/>
<text x="536.0" y="531.0" text-anchor="end" fill="#666" transform="rotate(-50 536.0 531.0)">25.23</text>
<line x1="588.0" y1="516.0" x2="588.0" y2="519.0" stroke="#999"/>
<text x="588.0" y="531.0" text-anchor="end" fill="#666" transform="rotate(-50 588.0 531.0)">25.24</text>
<line x1="640.0" y1="516.0" x2="640.0" y2="519.0" stroke="#999"/>
<text x="640.0" y="531.0" text-anchor="end" fill="#666" transform="rotate(-50 640.0 531.0)">26.1</text>
<line x1="692.0" y1="516.0" x2="692.0" y2="519.0" stroke="#999"/>
<text x="692.0" y="531.0" text-anchor="end" fill="#666" transform="rotate(-50 692.0 531.0)">26.2</text>
<line x1="744.0" y1="516.0" x2="744.0" y2="519.0" stroke="#999"/>
<text x="744.0" y="531.0" text-anchor="end" fill="#666" transform="rotate(-50 744.0 531.0)">26.3</text>
<line x1="796.0" y1="516.0" x2="796.0" y2="519.0" stroke="#999"/>
<text x="796.0" y="531.0" text-anchor="end" fill="#666" transform="rotate(-50 796.0 531.0)">26.4</text>
<line x1="848.0" y1="516.0" x2="848.0" y2="519.0" stroke="#999"/>
<text x="848.0" y="531.0" text-anchor="end" fill="#666" transform="rotate(-50 848.0 531.0)">26.5</text>
<line x1="900.0" y1="516.0" x2="900.0" y2="519.0" stroke="#999"/>
<text x="900.0" y="531.0" text-anchor="end" fill="#666" transform="rotate(-50 900.0 531.0)">26.7</text>
<line x1="952.0" y1="516.0" x2="952.0" y2="519.0" stroke="#999"/>
<text x="952.0" y="531.0" text-anchor="end" fill="#666" transform="rotate(-50 952.0 531.0)">26.8</text>
<line x1="1004.0" y1="516.0" x2="1004.0" y2="519.0" stroke="#999"/>
<text x="1004.0" y="531.0" text-anchor="end" fill="#666" transform="rotate(-50 1004.0 531.0)">26.9</text>
<line x1="1056.0" y1="516.0" x2="1056.0" y2="519.0" stroke="#999"/>
<text x="1056.0" y="531.0" text-anchor="end" fill="#666" transform="rotate(-50 1056.0 531.0)">26.10</text>
<line x1="1108.0" y1="516.0" x2="1108.0" y2="519.0" stroke="#999"/>
<text x="1108.0" y="531.0" text-anchor="end" fill="#666" transform="rotate(-50 1108.0 531.0)">26.11</text>
<polygon points="68.0,515.8 120.0,515.8 172.0,515.8 224.0,515.8 276.0,515.8 328.0,515.8 380.0,515.8 432.0,515.8 484.0,515.8 536.0,515.8 588.0,515.8 640.0,515.8 692.0,515.9 744.0,515.8 796.0,515.8 848.0,515.8 900.0,515.8 952.0,515.8 1004.0,515.8 1056.0,515.8 1108.0,515.8 1108.0,516.0 1056.0,516.0 1004.0,516.0 952.0,516.0 900.0,516.0 848.0,516.0 796.0,516.0 744.0,516.0 692.0,516.0 640.0,516.0 588.0,516.0 536.0,516.0 484.0,516.0 432.0,516.0 380.0,516.0 328.0,516.0 276.0,516.0 224.0,516.0 172.0,516.0 120.0,516.0 68.0,516.0" fill="#c7e9c0" fill-opacity="0.9" stroke="#fff" stroke-width="0.4"><title>emit_metal — parseTranslationUnit</title></polygon>
<polygon points="68.0,508.8 120.0,507.2 172.0,507.2 224.0,506.9 276.0,507.0 328.0,507.0 380.0,507.0 432.0,507.1 484.0,506.8 536.0,506.7 588.0,506.8 640.0,506.5 692.0,506.2 744.0,506.2 796.0,505.8 848.0,505.7 900.0,504.2 952.0,504.1 1004.0,504.2 1056.0,504.0 1108.0,510.5 1108.0,515.8 1056.0,515.8 1004.0,515.8 952.0,515.8 900.0,515.8 848.0,515.8 796.0,515.8 744.0,515.8 692.0,515.9 640.0,515.8 588.0,515.8 536.0,515.8 484.0,515.8 432.0,515.8 380.0,515.8 328.0,515.8 276.0,515.8 224.0,515.8 172.0,515.8 120.0,515.8 68.0,515.8" fill="#41ab5d" fill-opacity="0.9" stroke="#fff" stroke-width="0.4"><title>emit_metal — SemanticChecking</title></polygon>
<polygon points="68.0,507.3 120.0,505.6 172.0,505.7 224.0,505.4 276.0,505.5 328.0,505.5 380.0,505.5 432.0,505.5 484.0,505.2 536.0,505.2 588.0,505.3 640.0,504.9 692.0,504.6 744.0,504.6 796.0,504.2 848.0,504.1 900.0,501.5 952.0,501.4 1004.0,501.4 1056.0,501.2 1108.0,508.0 1108.0,510.5 1056.0,504.0 1004.0,504.2 952.0,504.1 900.0,504.2 848.0,505.7 796.0,505.8 744.0,506.2 692.0,506.2 640.0,506.5 588.0,506.8 536.0,506.7 484.0,506.8 432.0,507.1 380.0,507.0 328.0,507.0 276.0,507.0 224.0,506.9 172.0,507.2 120.0,507.2 68.0,508.8" fill="#006d2c" fill-opacity="0.9" stroke="#fff" stroke-width="0.4"><title>emit_metal — generateIR</title></polygon>
<polygon points="68.0,507.2 120.0,505.6 172.0,505.6 224.0,505.3 276.0,505.5 328.0,505.4 380.0,505.4 432.0,505.5 484.0,505.1 536.0,505.2 588.0,505.2 640.0,504.8 692.0,504.5 744.0,504.5 796.0,504.2 848.0,504.1 900.0,501.4 952.0,501.3 1004.0,501.4 1056.0,501.1 1108.0,508.0 1108.0,508.0 1056.0,501.2 1004.0,501.4 952.0,501.4 900.0,501.5 848.0,504.1 796.0,504.2 744.0,504.6 692.0,504.6 640.0,504.9 588.0,505.3 536.0,505.2 484.0,505.2 432.0,505.5 380.0,505.5 328.0,505.5 276.0,505.5 224.0,505.4 172.0,505.7 120.0,505.6 68.0,507.3" fill="#74c476" fill-opacity="0.9" stroke="#fff" stroke-width="0.4"><title>emit_metal — frontEndExecute (self)</title></polygon>
<polygon points="68.0,506.6 120.0,505.0 172.0,505.0 224.0,504.7 276.0,504.8 328.0,504.8 380.0,504.8 432.0,504.9 484.0,504.6 536.0,504.6 588.0,504.0 640.0,503.7 692.0,503.4 744.0,503.4 796.0,503.0 848.0,502.8 900.0,496.3 952.0,496.7 1004.0,496.7 1056.0,496.5 1108.0,503.6 1108.0,508.0 1056.0,501.1 1004.0,501.4 952.0,501.3 900.0,501.4 848.0,504.1 796.0,504.2 744.0,504.5 692.0,504.5 640.0,504.8 588.0,505.2 536.0,505.2 484.0,505.1 432.0,505.5 380.0,505.4 328.0,505.4 276.0,505.5 224.0,505.3 172.0,505.6 120.0,505.6 68.0,507.2" fill="#6baed6" fill-opacity="0.9" stroke="#fff" stroke-width="0.4"><title>emit_metal — specializeModule</title></polygon>
<polygon points="68.0,505.4 120.0,503.8 172.0,503.7 224.0,503.5 276.0,503.6 328.0,503.5 380.0,503.5 432.0,503.6 484.0,503.3 536.0,503.3 588.0,502.9 640.0,502.6 692.0,502.3 744.0,502.3 796.0,501.8 848.0,501.5 900.0,481.5 952.0,481.9 1004.0,481.9 1056.0,481.6 1108.0,489.4 1108.0,503.6 1056.0,496.5 1004.0,496.7 952.0,496.7 900.0,496.3 848.0,502.8 796.0,503.0 744.0,503.4 692.0,503.4 640.0,503.7 588.0,504.0 536.0,504.6 484.0,504.6 432.0,504.9 380.0,504.8 328.0,504.8 276.0,504.8 224.0,504.7 172.0,505.0 120.0,505.0 68.0,506.6" fill="#2171b5" fill-opacity="0.9" stroke="#fff" stroke-width="0.4"><title>emit_metal — simplifyIR</title></polygon>
<polygon points="68.0,505.2 120.0,503.6 172.0,503.5 224.0,503.3 276.0,503.4 328.0,503.3 380.0,503.3 432.0,503.4 484.0,503.1 536.0,503.1 588.0,502.7 640.0,502.3 692.0,502.0 744.0,502.0 796.0,501.6 848.0,501.2 900.0,478.9 952.0,479.2 1004.0,479.1 1056.0,478.7 1108.0,489.1 1108.0,489.4 1056.0,481.6 1004.0,481.9 952.0,481.9 900.0,481.5 848.0,501.5 796.0,501.8 744.0,502.3 692.0,502.3 640.0,502.6 588.0,502.9 536.0,503.3 484.0,503.3 432.0,503.6 380.0,503.5 328.0,503.5 276.0,503.6 224.0,503.5 172.0,503.7 120.0,503.8 68.0,505.4" fill="#08306b" fill-opacity="0.9" stroke="#fff" stroke-width="0.4"><title>emit_metal — linkIR</title></polygon>
<polygon points="68.0,505.2 120.0,503.6 172.0,503.5 224.0,503.3 276.0,503.4 328.0,503.3 380.0,503.3 432.0,503.4 484.0,503.1 536.0,503.1 588.0,502.7 640.0,502.3 692.0,502.0 744.0,502.0 796.0,501.6 848.0,501.2 900.0,478.9 952.0,479.2 1004.0,479.1 1056.0,478.7 1108.0,489.1 1108.0,489.1 1056.0,478.7 1004.0,479.1 952.0,479.2 900.0,478.9 848.0,501.2 796.0,501.6 744.0,502.0 692.0,502.0 640.0,502.3 588.0,502.7 536.0,503.1 484.0,503.1 432.0,503.4 380.0,503.3 328.0,503.3 276.0,503.4 224.0,503.3 172.0,503.5 120.0,503.6 68.0,505.2" fill="#9e9ac8" fill-opacity="0.9" stroke="#fff" stroke-width="0.4"><title>emit_metal — unrollLoopsInModule</title></polygon>
<polygon points="68.0,409.2 120.0,406.0 172.0,405.4 224.0,405.7 276.0,477.7 328.0,477.5 380.0,477.7 432.0,477.7 484.0,477.7 536.0,477.7 588.0,476.8 640.0,476.3 692.0,476.4 744.0,476.3 796.0,475.2 848.0,474.5 900.0,447.4 952.0,447.4 1004.0,447.2 1056.0,446.5 1108.0,455.6 1108.0,489.1 1056.0,478.7 1004.0,479.1 952.0,479.2 900.0,478.9 848.0,501.2 796.0,501.6 744.0,502.0 692.0,502.0 640.0,502.3 588.0,502.7 536.0,503.1 484.0,503.1 432.0,503.4 380.0,503.3 328.0,503.3 276.0,503.4 224.0,503.3 172.0,503.5 120.0,503.6 68.0,505.2" fill="#807dba" fill-opacity="0.9" stroke="#fff" stroke-width="0.4"><title>emit_metal — legalizeResourceTypes</title></polygon>
<polygon points="68.0,313.5 120.0,309.7 172.0,307.5 224.0,309.4 276.0,451.8 328.0,451.7 380.0,452.1 432.0,451.8 484.0,452.2 536.0,452.0 588.0,450.9 640.0,450.2 692.0,450.7 744.0,450.5 796.0,448.6 848.0,448.0 900.0,415.9 952.0,415.7 1004.0,415.2 1056.0,414.2 1108.0,422.2 1108.0,455.6 1056.0,446.5 1004.0,447.2 952.0,447.4 900.0,447.4 848.0,474.5 796.0,475.2 744.0,476.3 692.0,476.4 640.0,476.3 588.0,476.8 536.0,477.7 484.0,477.7 432.0,477.7 380.0,477.7 328.0,477.5 276.0,477.7 224.0,405.7 172.0,405.4 120.0,406.0 68.0,409.2" fill="#6a51a3" fill-opacity="0.9" stroke="#fff" stroke-width="0.4"><title>emit_metal — legalizeExistentialTypeLayout</title></polygon>
<polygon points="68.0,313.4 120.0,309.6 172.0,307.4 224.0,309.4 276.0,451.8 328.0,451.7 380.0,452.0 432.0,451.8 484.0,452.1 536.0,451.9 588.0,450.9 640.0,450.1 692.0,450.7 744.0,450.5 796.0,448.6 848.0,447.9 900.0,415.9 952.0,415.6 1004.0,415.2 1056.0,414.2 1108.0,422.1 1108.0,422.2 1056.0,414.2 1004.0,415.2 952.0,415.7 900.0,415.9 848.0,448.0 796.0,448.6 744.0,450.5 692.0,450.7 640.0,450.2 588.0,450.9 536.0,452.0 484.0,452.2 432.0,451.8 380.0,452.1 328.0,451.7 276.0,451.8 224.0,309.4 172.0,307.5 120.0,309.7 68.0,313.5" fill="#bcbddc" fill-opacity="0.9" stroke="#fff" stroke-width="0.4"><title>emit_metal — performMandatoryEarlyInlining</title></polygon>
<polygon points="68.0,313.4 120.0,309.6 172.0,307.4 224.0,309.3 276.0,451.8 328.0,451.7 380.0,452.0 432.0,451.8 484.0,452.1 536.0,451.9 588.0,450.9 640.0,450.1 692.0,450.7 744.0,450.4 796.0,448.6 848.0,447.9 900.0,415.8 952.0,415.6 1004.0,415.1 1056.0,414.1 1108.0,422.1 1108.0,422.1 1056.0,414.2 1004.0,415.2 952.0,415.6 900.0,415.9 848.0,447.9 796.0,448.6 744.0,450.5 692.0,450.7 640.0,450.1 588.0,450.9 536.0,451.9 484.0,452.1 432.0,451.8 380.0,452.0 328.0,451.7 276.0,451.8 224.0,309.4 172.0,307.4 120.0,309.6 68.0,313.4" fill="#dadaeb" fill-opacity="0.9" stroke="#fff" stroke-width="0.4"><title>emit_metal — performForceInlining</title></polygon>
<polygon points="68.0,118.9 120.0,113.0 172.0,108.6 224.0,112.8 276.0,397.5 328.0,397.3 380.0,397.9 432.0,397.5 484.0,398.5 536.0,398.0 588.0,395.9 640.0,394.7 692.0,396.2 744.0,395.7 796.0,392.4 848.0,391.2 900.0,328.1 952.0,327.7 1004.0,326.7 1056.0,325.0 1108.0,334.1 1108.0,422.1 1056.0,414.1 1004.0,415.1 952.0,415.6 900.0,415.8 848.0,447.9 796.0,448.6 744.0,450.4 692.0,450.7 640.0,450.1 588.0,450.9 536.0,451.9 484.0,452.1 432.0,451.8 380.0,452.0 328.0,451.7 276.0,451.8 224.0,309.3 172.0,307.4 120.0,309.6 68.0,313.4" fill="#fd8d3c" fill-opacity="0.9" stroke="#fff" stroke-width="0.4"><title>emit_metal — emitEntryPointsSourceFromIR</title></polygon>
<polygon points="68.0,118.9 120.0,113.0 172.0,108.6 224.0,112.7 276.0,397.5 328.0,397.2 380.0,397.9 432.0,397.4 484.0,398.4 536.0,398.0 588.0,395.9 640.0,394.7 692.0,396.2 744.0,395.7 796.0,392.1 848.0,391.2 900.0,328.0 952.0,327.7 1004.0,326.7 1056.0,324.8 1108.0,334.1 1108.0,334.1 1056.0,325.0 1004.0,326.7 952.0,327.7 900.0,328.1 848.0,391.2 796.0,392.4 744.0,395.7 692.0,396.2 640.0,394.7 588.0,395.9 536.0,398.0 484.0,398.5 432.0,397.5 380.0,397.9 328.0,397.3 276.0,397.5 224.0,112.8 172.0,108.6 120.0,113.0 68.0,118.9" fill="#969696" fill-opacity="0.9" stroke="#fff" stroke-width="0.4"><title>emit_metal — compileInner (self)</title></polygon>
<text x="12" y="578" fill="#666" font-weight="600">phase buckets</text>
<rect x="12" y="586" width="12" height="12" fill="#c7e9c0"/>
<text x="28" y="596" fill="#222">parseTranslationUnit</text>
<rect x="289" y="586" width="12" height="12" fill="#41ab5d"/>
<text x="305" y="596" fill="#222">SemanticChecking</text>
<rect x="566" y="586" width="12" height="12" fill="#006d2c"/>
<text x="582" y="596" fill="#222">generateIR</text>
<rect x="843" y="586" width="12" height="12" fill="#74c476"/>
<text x="859" y="596" fill="#222">frontEndExecute (self)</text>
<rect x="12" y="604" width="12" height="12" fill="#6baed6"/>
<text x="28" y="614" fill="#222">specializeModule</text>
<rect x="289" y="604" width="12" height="12" fill="#2171b5"/>
<text x="305" y="614" fill="#222">simplifyIR</text>
<rect x="566" y="604" width="12" height="12" fill="#08306b"/>
<text x="582" y="614" fill="#222">linkIR</text>
<rect x="843" y="604" width="12" height="12" fill="#9e9ac8"/>
<text x="859" y="614" fill="#222">unrollLoopsInModule</text>
<rect x="12" y="622" width="12" height="12" fill="#807dba"/>
<text x="28" y="632" fill="#222">legalizeResourceTypes</text>
<rect x="289" y="622" width="12" height="12" fill="#6a51a3"/>
<text x="305" y="632" fill="#222">legalizeExistentialTypeLayout</text>
<rect x="566" y="622" width="12" height="12" fill="#bcbddc"/>
<text x="582" y="632" fill="#222">performMandatoryEarlyInlining</text>
<rect x="843" y="622" width="12" height="12" fill="#dadaeb"/>
<text x="859" y="632" fill="#222">performForceInlining</text>
<rect x="12" y="640" width="12" height="12" fill="#4a1486"/>
<text x="28" y="650" fill="#222">linkAndOptimizeIR (self)</text>
<rect x="289" y="640" width="12" height="12" fill="#fd8d3c"/>
<text x="305" y="650" fill="#222">emitEntryPointsSourceFromIR</text>
<rect x="566" y="640" width="12" height="12" fill="#e6550d"/>
<text x="582" y="650" fill="#222">generateOutput (self)</text>
<rect x="843" y="640" width="12" height="12" fill="#969696"/>
<text x="859" y="650" fill="#222">compileInner (self)</text>
</svg>