<svg xmlns="http://www.w3.org/2000/svg" xmlns:xlink="http://www.w3.org/1999/xlink" width="1132" height="680" viewBox="0 0 1132 680" preserveAspectRatio="xMidYMid meet" font-family="sans-serif" font-size="13">
<rect width="1132" height="680" fill="white"/>
<text x="12" y="30" font-size="20" font-weight="bold">emit_wgsl — full phase breakdown across releases (median ms)</text>
<text x="68" y="60" font-size="15" font-weight="600" fill="#1a1a1a">emit_wgsl<tspan fill="#888" font-weight="400" text-decoration="none">  0.20×</tspan></text>
<line x1="68.0" y1="516.0" x2="1108.0" y2="516.0" stroke="#eee"/>
<text x="64.0" y="519.0" text-anchor="end" fill="#999">0.0</text>
<line x1="68.0" y1="296.0" x2="1108.0" y2="296.0" stroke="#eee"/>
<text x="64.0" y="299.0" text-anchor="end" fill="#999">937</text>
<line x1="68.0" y1="76.0" x2="1108.0" y2="76.0" stroke="#eee"/>
<text x="64.0" y="79.0" text-anchor="end" fill="#999">1874</text>
<line x1="68.0" y1="76.0" x2="68.0" y2="516.0" stroke="#333"/>
<line x1="68.0" y1="516.0" x2="1108.0" y2="516.0" stroke="#333"/>
<line x1="745.6" y1="76.0" x2="745.6" y2="516.0" stroke="#e8731a" stroke-width="1.2" stroke-dasharray="4 3"/>
<text x="748.6" y="87.0" fill="#e8731a" font-size="11">daily →</text>
<line x1="68.0" y1="516.0" x2="68.0" y2="519.0" stroke="#999"/>
<text x="68.0" y="531.0" text-anchor="end" fill="#666" transform="rotate(-50 68.0 531.0)">25.14</text>
<line x1="99.5" y1="516.0" x2="99.5" y2="519.0" stroke="#999"/>
<text x="99.5" y="531.0" text-anchor="end" fill="#666" transform="rotate(-50 99.5 531.0)">25.15</text>
<line x1="131.0" y1="516.0" x2="131.0" y2="519.0" stroke="#999"/>
<text x="131.0" y="531.0" text-anchor="end" fill="#666" transform="rotate(-50 131.0 531.0)">25.16</text>
<line x1="162.5" y1="516.0" x2="162.5" y2="519.0" stroke="#999"/>
<text x="162.5" y="531.0" text-anchor="end" fill="#666" transform="rotate(-50 162.5 531.0)">25.17</text>
<line x1="194.1" y1="516.0" x2="194.1" y2="519.0" stroke="#999"/>
<text x="194.1" y="531.0" text-anchor="end" fill="#666" transform="rotate(-50 194.1 531.0)">25.18</text>
<line x1="225.6" y1="516.0" x2="225.6" y2="519.0" stroke="#999"/>
<text x="225.6" y="531.0" text-anchor="end" fill="#666" transform="rotate(-50 225.6 531.0)">25.19</text>
<line x1="257.1" y1="516.0" x2="257.1" y2="519.0" stroke="#999"/>
<text x="257.1" y="531.0" text-anchor="end" fill="#666" transform="rotate(-50 257.1 531.0)">25.20</text>
<line x1="288.6" y1="516.0" x2="288.6" y2="519.0" stroke="#999"/>
<text x="288.6" y="531.0" text-anchor="end" fill="#666" transform="rotate(-50 288.6 531.0)">25.21</text>
<line x1="320.1" y1="516.0" x2="320.1" y2="519.0" stroke="#999"/>
<text x="320.1" y="531.0" text-anchor="end" fill="#666" transform="rotate(-50 320.1 531.0)">25.22</text>
<line x1="351.6" y1="516.0" x2="351.6" y2="519.0" stroke="#999"/>
<text x="351.6" y="531.0" text-anchor="end" fill="#666" transform="rotate(-50 351.6 531.0)">25.23</text>
<line x1="383.2" y1="516.0" x2="383.2" y2="519.0" stroke="#999"/>
<text x="383.2" y="531.0" text-anchor="end" fill="#666" transform="rotate(-50 383.2 531.0)">25.24</text>
<line x1="414.7" y1="516.0" x2="414.7" y2="519.0" stroke="#999"/>
<text x="414.7" y="531.0" text-anchor="end" fill="#666" transform="rotate(-50 414.7 531.0)">26.1</text>
<line x1="446.2" y1="516.0" x2="446.2" y2="519.0" stroke="#999"/>
<text x="446.2" y="531.0" text-anchor="end" fill="#666" transform="rotate(-50 446.2 531.0)">26.2</text>
<line x1="477.7" y1="516.0" x2="477.7" y2="519.0" stroke="#999"/>
<text x="477.7" y="531.0" text-anchor="end" fill="#666" transform="rotate(-50 477.7 531.0)">26.3</text>
<line x1="509.2" y1="516.0" x2="509.2" y2="519.0" stroke="#999"/>
<text x="509.2" y="531.0" text-anchor="end" fill="#666" transform="rotate(-50 509.2 531.0)">26.4</text>
<line x1="540.7" y1="516.0" x2="540.7" y2="519.0" stroke="#999"/>
<text x="540.7" y="531.0" text-anchor="end" fill="#666" transform="rotate(-50 540.7 531.0)">26.5</text>
<line x1="572.2" y1="516.0" x2="572.2" y2="519.0" stroke="#999"/>
<text x="572.2" y="531.0" text-anchor="end" fill="#666" transform="rotate(-50 572.2 531.0)">26.7</text>
<line x1="603.8" y1="516.0" x2="603.8" y2="519.0" stroke="#999"/>
<text x="603.8" y="531.0" text-anchor="end" fill="#666" transform="rotate(-50 603.8 531.0)">26.8</text>
<line x1="635.3" y1="516.0" x2="635.3" y2="519.0" stroke="#999"/>
<text x="635.3" y="531.0" text-anchor="end" fill="#666" transform="rotate(-50 635.3 531.0)">26.9</text>
<line x1="666.8" y1="516.0" x2="666.8" y2="519.0" stroke="#999"/>
<text x="666.8" y="531.0" text-anchor="end" fill="#666" transform="rotate(-50 666.8 531.0)">26.10</text>
<line x1="698.3" y1="516.0" x2="698.3" y2="519.0" stroke="#999"/>
<text x="698.3" y="531.0" text-anchor="end" fill="#666" transform="rotate(-50 698.3 531.0)">26.11</text>
<line x1="729.8" y1="516.0" x2="729.8" y2="519.0" stroke="#999"/>
<text x="729.8" y="531.0" text-anchor="end" fill="#666" transform="rotate(-50 729.8 531.0)">26.12</text>
<line x1="761.3" y1="516.0" x2="761.3" y2="519.0" stroke="#999"/>
<text x="761.3" y="531.0" text-anchor="end" fill="#e8731a" transform="rotate(-50 761.3 531.0)">06-25</text>
<line x1="792.8" y1="516.0" x2="792.8" y2="519.0" stroke="#999"/>
<text x="792.8" y="531.0" text-anchor="end" fill="#e8731a" transform="rotate(-50 792.8 531.0)">06-26</text>
<line x1="824.4" y1="516.0" x2="824.4" y2="519.0" stroke="#999"/>
<text x="824.4" y="531.0" text-anchor="end" fill="#e8731a" transform="rotate(-50 824.4 531.0)">06-28</text>
<line x1="855.9" y1="516.0" x2="855.9" y2="519.0" stroke="#999"/>
<text x="855.9" y="531.0" text-anchor="end" fill="#e8731a" transform="rotate(-50 855.9 531.0)">07-01</text>
<line x1="887.4" y1="516.0" x2="887.4" y2="519.0" stroke="#999"/>
<text x="887.4" y="531.0" text-anchor="end" fill="#e8731a" transform="rotate(-50 887.4 531.0)">07-02</text>
<line x1="918.9" y1="516.0" x2="918.9" y2="519.0" stroke="#999"/>
<text x="918.9" y="531.0" text-anchor="end" fill="#e8731a" transform="rotate(-50 918.9 531.0)">07-03</text>
<line x1="950.4" y1="516.0" x2="950.4" y2="519.0" stroke="#999"/>
<text x="950.4" y="531.0" text-anchor="end" fill="#e8731a" transform="rotate(-50 950.4 531.0)">07-07</text>
<line x1="981.9" y1="516.0" x2="981.9" y2="519.0" stroke="#999"/>
<text x="981.9" y="531.0" text-anchor="end" fill="#e8731a" transform="rotate(-50 981.9 531.0)">07-07</text>
<line x1="1013.5" y1="516.0" x2="1013.5" y2="519.0" stroke="#999"/>
<text x="1013.5" y="531.0" text-anchor="end" fill="#e8731a" transform="rotate(-50 1013.5 531.0)">07-09</text>
<line x1="1045.0" y1="516.0" x2="1045.0" y2="519.0" stroke="#999"/>
<text x="1045.0" y="531.0" text-anchor="end" fill="#e8731a" transform="rotate(-50 1045.0 531.0)">07-10</text>
<line x1="1076.5" y1="516.0" x2="1076.5" y2="519.0" stroke="#999"/>
<text x="1076.5" y="531.0" text-anchor="end" fill="#e8731a" transform="rotate(-50 1076.5 531.0)">07-11</text>
<line x1="1108.0" y1="516.0" x2="1108.0" y2="519.0" stroke="#999"/>
<text x="1108.0" y="531.0" text-anchor="end" fill="#e8731a" transform="rotate(-50 1108.0 531.0)">07-11</text>
<polygon points="68.0,515.7 99.5,515.8 131.0,515.8 162.5,515.8 194.1,515.8 225.6,515.8 257.1,515.8 288.6,515.8 320.1,515.8 351.6,515.8 383.2,515.8 414.7,515.8 446.2,515.8 477.7,515.8 509.2,515.8 540.7,515.8 572.2,515.8 603.8,515.8 635.3,515.8 666.8,515.8 698.3,515.8 729.8,515.8 761.3,515.8 792.8,515.7 824.4,515.7 855.9,515.8 887.4,515.8 918.9,515.7 950.4,515.8 981.9,515.8 1013.5,515.8 1045.0,515.8 1076.5,515.8 1108.0,515.8 1108.0,516.0 1076.5,516.0 1045.0,516.0 1013.5,516.0 981.9,516.0 950.4,516.0 918.9,516.0 887.4,516.0 855.9,516.0 824.4,516.0 792.8,516.0 761.3,516.0 729.8,516.0 698.3,516.0 666.8,516.0 635.3,516.0 603.8,516.0 572.2,516.0 540.7,516.0 509.2,516.0 477.7,516.0 446.2,516.0 414.7,516.0 383.2,516.0 351.6,516.0 320.1,516.0 288.6,516.0 257.1,516.0 225.6,516.0 194.1,516.0 162.5,516.0 131.0,516.0 99.5,516.0 68.0,516.0" fill="#c7e9c0" fill-opacity="0.9" stroke="#fff" stroke-width="0.4"><title>emit_wgsl — parseTranslationUnit</title></polygon>
<polygon points="68.0,505.5 99.5,503.4 131.0,503.2 162.5,500.9 194.1,501.0 225.6,501.8 257.1,501.7 288.6,501.8 320.1,502.1 351.6,502.7 383.2,502.7 414.7,502.4 446.2,501.7 477.7,501.5 509.2,501.7 540.7,501.8 572.2,499.4 603.8,499.1 635.3,498.8 666.8,498.7 698.3,508.3 729.8,507.7 761.3,507.2 792.8,507.3 824.4,507.4 855.9,507.2 887.4,507.3 918.9,507.3 950.4,507.6 981.9,507.4 1013.5,507.5 1045.0,507.4 1076.5,507.4 1108.0,507.3 1108.0,515.8 1076.5,515.8 1045.0,515.8 1013.5,515.8 981.9,515.8 950.4,515.8 918.9,515.7 887.4,515.8 855.9,515.8 824.4,515.7 792.8,515.7 761.3,515.8 729.8,515.8 698.3,515.8 666.8,515.8 635.3,515.8 603.8,515.8 572.2,515.8 540.7,515.8 509.2,515.8 477.7,515.8 446.2,515.8 414.7,515.8 383.2,515.8 351.6,515.8 320.1,515.8 288.6,515.8 257.1,515.8 225.6,515.8 194.1,515.8 162.5,515.8 131.0,515.8 99.5,515.8 68.0,515.7" fill="#41ab5d" fill-opacity="0.9" stroke="#fff" stroke-width="0.4"><title>emit_wgsl — SemanticChecking</title></polygon>
<polygon points="68.0,503.2 99.5,501.2 131.0,500.9 162.5,498.4 194.1,498.5 225.6,499.4 257.1,499.1 288.6,499.4 320.1,499.6 351.6,500.5 383.2,500.4 414.7,500.1 446.2,499.4 477.7,499.2 509.2,499.4 540.7,499.6 572.2,495.5 603.8,495.1 635.3,494.9 666.8,494.6 698.3,504.7 729.8,504.1 761.3,503.4 792.8,503.5 824.4,503.5 855.9,503.3 887.4,503.4 918.9,503.4 950.4,503.7 981.9,503.5 1013.5,503.6 1045.0,505.0 1076.5,505.0 1108.0,504.9 1108.0,507.3 1076.5,507.4 1045.0,507.4 1013.5,507.5 981.9,507.4 950.4,507.6 918.9,507.3 887.4,507.3 855.9,507.2 824.4,507.4 792.8,507.3 761.3,507.2 729.8,507.7 698.3,508.3 666.8,498.7 635.3,498.8 603.8,499.1 572.2,499.4 540.7,501.8 509.2,501.7 477.7,501.5 446.2,501.7 414.7,502.4 383.2,502.7 351.6,502.7 320.1,502.1 288.6,501.8 257.1,501.7 225.6,501.8 194.1,501.0 162.5,500.9 131.0,503.2 99.5,503.4 68.0,505.5" fill="#006d2c" fill-opacity="0.9" stroke="#fff" stroke-width="0.4"><title>emit_wgsl — generateIR</title></polygon>
<polygon points="68.0,503.2 99.5,501.2 131.0,500.9 162.5,498.1 194.1,498.5 225.6,498.9 257.1,499.1 288.6,499.3 320.1,499.3 351.6,500.4 383.2,500.3 414.7,500.1 446.2,499.3 477.7,499.1 509.2,499.3 540.7,499.5 572.2,495.3 603.8,495.1 635.3,494.8 666.8,494.6 698.3,504.6 729.8,504.0 761.3,503.3 792.8,503.4 824.4,503.4 855.9,503.2 887.4,503.3 918.9,503.3 950.4,503.6 981.9,503.3 1013.5,503.5 1045.0,504.9 1076.5,504.9 1108.0,504.9 1108.0,504.9 1076.5,505.0 1045.0,505.0 1013.5,503.6 981.9,503.5 950.4,503.7 918.9,503.4 887.4,503.4 855.9,503.3 824.4,503.5 792.8,503.5 761.3,503.4 729.8,504.1 698.3,504.7 666.8,494.6 635.3,494.9 603.8,495.1 572.2,495.5 540.7,499.6 509.2,499.4 477.7,499.2 446.2,499.4 414.7,500.1 383.2,500.4 351.6,500.5 320.1,499.6 288.6,499.4 257.1,499.1 225.6,499.4 194.1,498.5 162.5,498.4 131.0,500.9 99.5,501.2 68.0,503.2" fill="#74c476" fill-opacity="0.9" stroke="#fff" stroke-width="0.4"><title>emit_wgsl — frontEndExecute (self)</title></polygon>
<polygon points="68.0,502.6 99.5,500.6 131.0,500.3 162.5,497.5 194.1,497.9 225.6,498.3 257.1,498.4 288.6,498.7 320.1,498.7 351.6,499.8 383.2,499.2 414.7,498.9 446.2,498.2 477.7,497.9 509.2,498.1 540.7,498.3 572.2,489.7 603.8,489.9 635.3,489.5 666.8,489.4 698.3,499.7 729.8,499.2 761.3,498.0 792.8,498.0 824.4,498.0 855.9,498.0 887.4,498.0 918.9,498.1 950.4,497.8 981.9,497.4 1013.5,497.7 1045.0,502.2 1076.5,502.2 1108.0,502.1 1108.0,504.9 1076.5,504.9 1045.0,504.9 1013.5,503.5 981.9,503.3 950.4,503.6 918.9,503.3 887.4,503.3 855.9,503.2 824.4,503.4 792.8,503.4 761.3,503.3 729.8,504.0 698.3,504.6 666.8,494.6 635.3,494.8 603.8,495.1 572.2,495.3 540.7,499.5 509.2,499.3 477.7,499.1 446.2,499.3 414.7,500.1 383.2,500.3 351.6,500.4 320.1,499.3 288.6,499.3 257.1,499.1 225.6,498.9 194.1,498.5 162.5,498.1 131.0,500.9 99.5,501.2 68.0,503.2" fill="#6baed6" fill-opacity="0.9" stroke="#fff" stroke-width="0.4"><title>emit_wgsl — specializeModule</title></polygon>
<polygon points="68.0,501.4 99.5,499.4 131.0,499.0 162.5,496.1 194.1,496.4 225.6,497.0 257.1,497.1 288.6,497.4 320.1,497.4 351.6,498.5 383.2,498.1 414.7,497.8 446.2,497.0 477.7,496.8 509.2,497.0 540.7,497.2 572.2,473.4 603.8,473.5 635.3,473.0 666.8,472.8 698.3,483.6 729.8,483.4 761.3,481.1 792.8,480.9 824.4,481.1 855.9,480.6 887.4,481.1 918.9,481.0 950.4,480.7 981.9,480.1 1013.5,480.6 1045.0,499.6 1076.5,499.5 1108.0,499.4 1108.0,502.1 1076.5,502.2 1045.0,502.2 1013.5,497.7 981.9,497.4 950.4,497.8 918.9,498.1 887.4,498.0 855.9,498.0 824.4,498.0 792.8,498.0 761.3,498.0 729.8,499.2 698.3,499.7 666.8,489.4 635.3,489.5 603.8,489.9 572.2,489.7 540.7,498.3 509.2,498.1 477.7,497.9 446.2,498.2 414.7,498.9 383.2,499.2 351.6,499.8 320.1,498.7 288.6,498.7 257.1,498.4 225.6,498.3 194.1,497.9 162.5,497.5 131.0,500.3 99.5,500.6 68.0,502.6" fill="#2171b5" fill-opacity="0.9" stroke="#fff" stroke-width="0.4"><title>emit_wgsl — simplifyIR</title></polygon>
<polygon points="68.0,501.1 99.5,499.2 131.0,498.8 162.5,495.8 194.1,496.1 225.6,496.6 257.1,496.7 288.6,497.0 320.1,497.2 351.6,498.3 383.2,497.9 414.7,497.6 446.2,496.8 477.7,496.6 509.2,496.8 540.7,497.0 572.2,470.0 603.8,470.1 635.3,469.0 666.8,469.3 698.3,483.3 729.8,483.1 761.3,480.8 792.8,480.6 824.4,480.8 855.9,480.3 887.4,480.8 918.9,480.7 950.4,480.4 981.9,479.9 1013.5,480.3 1045.0,499.3 1076.5,499.2 1108.0,499.1 1108.0,499.4 1076.5,499.5 1045.0,499.6 1013.5,480.6 981.9,480.1 950.4,480.7 918.9,481.0 887.4,481.1 855.9,480.6 824.4,481.1 792.8,480.9 761.3,481.1 729.8,483.4 698.3,483.6 666.8,472.8 635.3,473.0 603.8,473.5 572.2,473.4 540.7,497.2 509.2,497.0 477.7,496.8 446.2,497.0 414.7,497.8 383.2,498.1 351.6,498.5 320.1,497.4 288.6,497.4 257.1,497.1 225.6,497.0 194.1,496.4 162.5,496.1 131.0,499.0 99.5,499.4 68.0,501.4" fill="#08306b" fill-opacity="0.9" stroke="#fff" stroke-width="0.4"><title>emit_wgsl — linkIR</title></polygon>
<polygon points="68.0,501.1 99.5,499.2 131.0,498.8 162.5,495.8 194.1,496.1 225.6,496.6 257.1,496.7 288.6,497.0 320.1,497.2 351.6,498.3 383.2,497.9 414.7,497.6 446.2,496.8 477.7,496.6 509.2,496.8 540.7,497.0 572.2,470.0 603.8,470.1 635.3,469.0 666.8,469.3 698.3,483.3 729.8,483.1 761.3,480.8 792.8,480.6 824.4,480.8 855.9,480.3 887.4,480.8 918.9,480.7 950.4,480.4 981.9,479.9 1013.5,480.3 1045.0,499.3 1076.5,499.2 1108.0,499.1 1108.0,499.1 1076.5,499.2 1045.0,499.3 1013.5,480.3 981.9,479.9 950.4,480.4 918.9,480.7 887.4,480.8 855.9,480.3 824.4,480.8 792.8,480.6 761.3,480.8 729.8,483.1 698.3,483.3 666.8,469.3 635.3,469.0 603.8,470.1 572.2,470.0 540.7,497.0 509.2,496.8 477.7,496.6 446.2,496.8 414.7,497.6 383.2,497.9 351.6,498.3 320.1,497.2 288.6,497.0 257.1,496.7 225.6,496.6 194.1,496.1 162.5,495.8 131.0,498.8 99.5,499.2 68.0,501.1" fill="#9e9ac8" fill-opacity="0.9" stroke="#fff" stroke-width="0.4"><title>emit_wgsl — unrollLoopsInModule</title></polygon>
<polygon points="68.0,410.9 99.5,409.9 131.0,411.7 162.5,400.1 194.1,470.7 225.6,473.0 257.1,471.9 288.6,474.0 320.1,474.2 351.6,476.4 383.2,472.7 414.7,471.9 446.2,471.0 477.7,474.3 509.2,474.9 540.7,474.9 572.2,439.2 603.8,439.0 635.3,438.0 666.8,437.5 698.3,451.5 729.8,451.0 761.3,448.0 792.8,447.2 824.4,448.0 855.9,447.9 887.4,448.3 918.9,447.9 950.4,448.5 981.9,447.4 1013.5,447.4 1045.0,465.4 1076.5,486.6 1108.0,486.6 1108.0,499.1 1076.5,499.2 1045.0,499.3 1013.5,480.3 981.9,479.9 950.4,480.4 918.9,480.7 887.4,480.8 855.9,480.3 824.4,480.8 792.8,480.6 761.3,480.8 729.8,483.1 698.3,483.3 666.8,469.3 635.3,469.0 603.8,470.1 572.2,470.0 540.7,497.0 509.2,496.8 477.7,496.6 446.2,496.8 414.7,497.6 383.2,497.9 351.6,498.3 320.1,497.2 288.6,497.0 257.1,496.7 225.6,496.6 194.1,496.1 162.5,495.8 131.0,498.8 99.5,499.2 68.0,501.1" fill="#807dba" fill-opacity="0.9" stroke="#fff" stroke-width="0.4"><title>emit_wgsl — legalizeResourceTypes</title></polygon>
<polygon points="68.0,320.4 99.5,320.5 131.0,323.8 162.5,305.1 194.1,445.7 225.6,448.6 257.1,445.9 288.6,449.6 320.1,450.4 351.6,454.0 383.2,446.9 414.7,448.8 446.2,445.5 477.7,451.7 509.2,453.0 540.7,452.9 572.2,408.0 603.8,408.1 635.3,406.4 666.8,406.0 698.3,419.6 729.8,419.0 761.3,414.6 792.8,413.4 824.4,414.8 855.9,415.4 887.4,415.2 918.9,414.1 950.4,415.7 981.9,414.2 1013.5,413.5 1045.0,431.0 1076.5,473.6 1108.0,473.8 1108.0,486.6 1076.5,486.6 1045.0,465.4 1013.5,447.4 981.9,447.4 950.4,448.5 918.9,447.9 887.4,448.3 855.9,447.9 824.4,448.0 792.8,447.2 761.3,448.0 729.8,451.0 698.3,451.5 666.8,437.5 635.3,438.0 603.8,439.0 572.2,439.2 540.7,474.9 509.2,474.9 477.7,474.3 446.2,471.0 414.7,471.9 383.2,472.7 351.6,476.4 320.1,474.2 288.6,474.0 257.1,471.9 225.6,473.0 194.1,470.7 162.5,400.1 131.0,411.7 99.5,409.9 68.0,410.9" fill="#6a51a3" fill-opacity="0.9" stroke="#fff" stroke-width="0.4"><title>emit_wgsl — legalizeExistentialTypeLayout</title></polygon>
<polygon points="68.0,320.3 99.5,320.4 131.0,323.7 162.5,305.0 194.1,445.6 225.6,448.6 257.1,445.9 288.6,449.5 320.1,450.3 351.6,454.0 383.2,446.8 414.7,448.8 446.2,445.4 477.7,451.7 509.2,453.0 540.7,452.9 572.2,408.0 603.8,408.0 635.3,406.4 666.8,406.0 698.3,419.5 729.8,418.9 761.3,414.5 792.8,413.4 824.4,414.8 855.9,415.3 887.4,415.1 918.9,414.1 950.4,415.6 981.9,414.1 1013.5,413.5 1045.0,430.9 1076.5,473.5 1108.0,473.7 1108.0,473.8 1076.5,473.6 1045.0,431.0 1013.5,413.5 981.9,414.2 950.4,415.7 918.9,414.1 887.4,415.2 855.9,415.4 824.4,414.8 792.8,413.4 761.3,414.6 729.8,419.0 698.3,419.6 666.8,406.0 635.3,406.4 603.8,408.1 572.2,408.0 540.7,452.9 509.2,453.0 477.7,451.7 446.2,445.5 414.7,448.8 383.2,446.9 351.6,454.0 320.1,450.4 288.6,449.6 257.1,445.9 225.6,448.6 194.1,445.7 162.5,305.1 131.0,323.8 99.5,320.5 68.0,320.4" fill="#bcbddc" fill-opacity="0.9" stroke="#fff" stroke-width="0.4"><title>emit_wgsl — performMandatoryEarlyInlining</title></polygon>
<polygon points="68.0,320.3 99.5,320.4 131.0,323.7 162.5,305.0 194.1,445.6 225.6,448.5 257.1,445.8 288.6,449.5 320.1,450.3 351.6,454.0 383.2,446.8 414.7,448.8 446.2,445.4 477.7,451.6 509.2,452.9 540.7,452.9 572.2,407.9 603.8,408.0 635.3,406.3 666.8,405.9 698.3,419.5 729.8,418.9 761.3,414.5 792.8,413.3 824.4,414.7 855.9,415.3 887.4,415.1 918.9,414.0 950.4,415.6 981.9,414.1 1013.5,413.4 1045.0,430.9 1076.5,473.5 1108.0,473.6 1108.0,473.7 1076.5,473.5 1045.0,430.9 1013.5,413.5 981.9,414.1 950.4,415.6 918.9,414.1 887.4,415.1 855.9,415.3 824.4,414.8 792.8,413.4 761.3,414.5 729.8,418.9 698.3,419.5 666.8,406.0 635.3,406.4 603.8,408.0 572.2,408.0 540.7,452.9 509.2,453.0 477.7,451.7 446.2,445.4 414.7,448.8 383.2,446.8 351.6,454.0 320.1,450.3 288.6,449.5 257.1,445.9 225.6,448.6 194.1,445.6 162.5,305.0 131.0,323.7 99.5,320.4 68.0,320.3" fill="#dadaeb" fill-opacity="0.9" stroke="#fff" stroke-width="0.4"><title>emit_wgsl — performForceInlining</title></polygon>
<polygon points="68.0,136.6 99.5,138.8 131.0,145.7 162.5,111.1 194.1,391.7 225.6,397.3 257.1,391.7 288.6,398.8 320.1,400.4 351.6,406.7 383.2,392.4 414.7,396.6 446.2,390.6 477.7,403.3 509.2,405.7 540.7,405.3 572.2,317.4 603.8,317.8 635.3,314.8 666.8,314.2 698.3,331.3 729.8,330.7 761.3,322.5 792.8,320.2 824.4,323.0 855.9,324.2 887.4,323.8 918.9,321.6 950.4,324.4 981.9,321.6 1013.5,320.2 1045.0,353.7 1076.5,438.8 1108.0,439.1 1108.0,473.6 1076.5,473.5 1045.0,430.9 1013.5,413.4 981.9,414.1 950.4,415.6 918.9,414.0 887.4,415.1 855.9,415.3 824.4,414.7 792.8,413.3 761.3,414.5 729.8,418.9 698.3,419.5 666.8,405.9 635.3,406.3 603.8,408.0 572.2,407.9 540.7,452.9 509.2,452.9 477.7,451.6 446.2,445.4 414.7,448.8 383.2,446.8 351.6,454.0 320.1,450.3 288.6,449.5 257.1,445.8 225.6,448.5 194.1,445.6 162.5,305.0 131.0,323.7 99.5,320.4 68.0,320.3" fill="#fd8d3c" fill-opacity="0.9" stroke="#fff" stroke-width="0.4"><title>emit_wgsl — emitEntryPointsSourceFromIR</title></polygon>
<polygon points="68.0,136.1 99.5,138.8 131.0,145.7 162.5,108.6 194.1,391.7 225.6,396.8 257.1,391.3 288.6,397.9 320.1,399.8 351.6,406.4 383.2,391.5 414.7,396.5 446.2,390.5 477.7,403.1 509.2,405.6 540.7,405.3 572.2,317.0 603.8,317.8 635.3,314.8 666.8,314.2 698.3,331.0 729.8,330.6 761.3,322.5 792.8,320.1 824.4,322.9 855.9,324.0 887.4,323.8 918.9,321.6 950.4,324.2 981.9,321.6 1013.5,320.2 1045.0,353.0 1076.5,438.8 1108.0,438.9 1108.0,439.1 1076.5,438.8 1045.0,353.7 1013.5,320.2 981.9,321.6 950.4,324.4 918.9,321.6 887.4,323.8 855.9,324.2 824.4,323.0 792.8,320.2 761.3,322.5 729.8,330.7 698.3,331.3 666.8,314.2 635.3,314.8 603.8,317.8 572.2,317.4 540.7,405.3 509.2,405.7 477.7,403.3 446.2,390.6 414.7,396.6 383.2,392.4 351.6,406.7 320.1,400.4 288.6,398.8 257.1,391.7 225.6,397.3 194.1,391.7 162.5,111.1 131.0,145.7 99.5,138.8 68.0,136.6" fill="#969696" fill-opacity="0.9" stroke="#fff" stroke-width="0.4"><title>emit_wgsl — compileInner (self)</title></polygon>
<text x="12" y="578" fill="#666" font-weight="600">phase buckets</text>
<rect x="12" y="586" width="12" height="12" fill="#c7e9c0"/>
<text x="28" y="596" fill="#222">parseTranslationUnit</text>
<rect x="289" y="586" width="12" height="12" fill="#41ab5d"/>
<text x="305" y="596" fill="#222">SemanticChecking</text>
<rect x="566" y="586" width="12" height="12" fill="#006d2c"/>
<text x="582" y="596" fill="#222">generateIR</text>
<rect x="843" y="586" width="12" height="12" fill="#74c476"/>
<text x="859" y="596" fill="#222">frontEndExecute (self)</text>
<rect x="12" y="604" width="12" height="12" fill="#6baed6"/>
<text x="28" y="614" fill="#222">specializeModule</text>
<rect x="289" y="604" width="12" height="12" fill="#2171b5"/>
<text x="305" y="614" fill="#222">simplifyIR</text>
<rect x="566" y="604" width="12" height="12" fill="#08306b"/>
<text x="582" y="614" fill="#222">linkIR</text>
<rect x="843" y="604" width="12" height="12" fill="#9e9ac8"/>
<text x="859" y="614" fill="#222">unrollLoopsInModule</text>
<rect x="12" y="622" width="12" height="12" fill="#807dba"/>
<text x="28" y="632" fill="#222">legalizeResourceTypes</text>
<rect x="289" y="622" width="12" height="12" fill="#6a51a3"/>
<text x="305" y="632" fill="#222">legalizeExistentialTypeLayout</text>
<rect x="566" y="622" width="12" height="12" fill="#bcbddc"/>
<text x="582" y="632" fill="#222">performMandatoryEarlyInlining</text>
<rect x="843" y="622" width="12" height="12" fill="#dadaeb"/>
<text x="859" y="632" fill="#222">performForceInlining</text>
<rect x="12" y="640" width="12" height="12" fill="#4a1486"/>
<text x="28" y="650" fill="#222">linkAndOptimizeIR (self)</text>
<rect x="289" y="640" width="12" height="12" fill="#fd8d3c"/>
<text x="305" y="650" fill="#222">emitEntryPointsSourceFromIR</text>
<rect x="566" y="640" width="12" height="12" fill="#e6550d"/>
<text x="582" y="650" fill="#222">generateOutput (self)</text>
<rect x="843" y="640" width="12" height="12" fill="#969696"/>
<text x="859" y="650" fill="#222">compileInner (self)</text>
</svg>