<svg xmlns="http://www.w3.org/2000/svg" xmlns:xlink="http://www.w3.org/1999/xlink" width="1132" height="680" viewBox="0 0 1132 680" preserveAspectRatio="xMidYMid meet" font-family="sans-serif" font-size="13">
<rect width="1132" height="680" fill="white"/>
<text x="12" y="30" font-size="20" font-weight="bold">emit_cuda — Daily tip-of-tree (last 30 days) (median ms)</text>
<text x="68" y="60" font-size="15" font-weight="600" fill="#1a1a1a">emit_cuda<tspan fill="#888" font-weight="400" text-decoration="none">  0.32×</tspan></text>
<line x1="68.0" y1="516.0" x2="1108.0" y2="516.0" stroke="#eee"/>
<text x="64.0" y="519.0" text-anchor="end" fill="#999">0.0</text>
<line x1="68.0" y1="296.0" x2="1108.0" y2="296.0" stroke="#eee"/>
<text x="64.0" y="299.0" text-anchor="end" fill="#999">395</text>
<line x1="68.0" y1="76.0" x2="1108.0" y2="76.0" stroke="#eee"/>
<text x="64.0" y="79.0" text-anchor="end" fill="#999">790</text>
<line x1="68.0" y1="76.0" x2="68.0" y2="516.0" stroke="#333"/>
<line x1="68.0" y1="516.0" x2="1108.0" y2="516.0" stroke="#333"/>
<line x1="68.0" y1="516.0" x2="68.0" y2="519.0" stroke="#999"/>
<text x="68.0" y="531.0" text-anchor="end" fill="#e8731a" transform="rotate(-50 68.0 531.0)">06-25</text>
<line x1="122.7" y1="516.0" x2="122.7" y2="519.0" stroke="#999"/>
<text x="122.7" y="531.0" text-anchor="end" fill="#e8731a" transform="rotate(-50 122.7 531.0)">06-26</text>
<line x1="177.5" y1="516.0" x2="177.5" y2="519.0" stroke="#999"/>
<text x="177.5" y="531.0" text-anchor="end" fill="#e8731a" transform="rotate(-50 177.5 531.0)">06-28</text>
<line x1="232.2" y1="516.0" x2="232.2" y2="519.0" stroke="#999"/>
<text x="232.2" y="531.0" text-anchor="end" fill="#e8731a" transform="rotate(-50 232.2 531.0)">07-01</text>
<line x1="286.9" y1="516.0" x2="286.9" y2="519.0" stroke="#999"/>
<text x="286.9" y="531.0" text-anchor="end" fill="#e8731a" transform="rotate(-50 286.9 531.0)">07-02</text>
<line x1="341.7" y1="516.0" x2="341.7" y2="519.0" stroke="#999"/>
<text x="341.7" y="531.0" text-anchor="end" fill="#e8731a" transform="rotate(-50 341.7 531.0)">07-03</text>
<line x1="396.4" y1="516.0" x2="396.4" y2="519.0" stroke="#999"/>
<text x="396.4" y="531.0" text-anchor="end" fill="#e8731a" transform="rotate(-50 396.4 531.0)">07-06</text>
<line x1="451.2" y1="516.0" x2="451.2" y2="519.0" stroke="#999"/>
<text x="451.2" y="531.0" text-anchor="end" fill="#e8731a" transform="rotate(-50 451.2 531.0)">07-07</text>
<line x1="505.9" y1="516.0" x2="505.9" y2="519.0" stroke="#999"/>
<text x="505.9" y="531.0" text-anchor="end" fill="#e8731a" transform="rotate(-50 505.9 531.0)">07-08</text>
<line x1="560.6" y1="516.0" x2="560.6" y2="519.0" stroke="#999"/>
<text x="560.6" y="531.0" text-anchor="end" fill="#e8731a" transform="rotate(-50 560.6 531.0)">07-09</text>
<line x1="615.4" y1="516.0" x2="615.4" y2="519.0" stroke="#999"/>
<text x="615.4" y="531.0" text-anchor="end" fill="#e8731a" transform="rotate(-50 615.4 531.0)">07-10</text>
<line x1="670.1" y1="516.0" x2="670.1" y2="519.0" stroke="#999"/>
<text x="670.1" y="531.0" text-anchor="end" fill="#e8731a" transform="rotate(-50 670.1 531.0)">07-11</text>
<line x1="724.8" y1="516.0" x2="724.8" y2="519.0" stroke="#999"/>
<text x="724.8" y="531.0" text-anchor="end" fill="#e8731a" transform="rotate(-50 724.8 531.0)">07-14</text>
<line x1="779.6" y1="516.0" x2="779.6" y2="519.0" stroke="#999"/>
<text x="779.6" y="531.0" text-anchor="end" fill="#e8731a" transform="rotate(-50 779.6 531.0)">07-15</text>
<line x1="834.3" y1="516.0" x2="834.3" y2="519.0" stroke="#999"/>
<text x="834.3" y="531.0" text-anchor="end" fill="#e8731a" transform="rotate(-50 834.3 531.0)">07-15</text>
<line x1="889.1" y1="516.0" x2="889.1" y2="519.0" stroke="#999"/>
<text x="889.1" y="531.0" text-anchor="end" fill="#e8731a" transform="rotate(-50 889.1 531.0)">07-16</text>
<line x1="943.8" y1="516.0" x2="943.8" y2="519.0" stroke="#999"/>
<text x="943.8" y="531.0" text-anchor="end" fill="#e8731a" transform="rotate(-50 943.8 531.0)">07-17</text>
<line x1="998.5" y1="516.0" x2="998.5" y2="519.0" stroke="#999"/>
<text x="998.5" y="531.0" text-anchor="end" fill="#e8731a" transform="rotate(-50 998.5 531.0)">07-18</text>
<line x1="1053.3" y1="516.0" x2="1053.3" y2="519.0" stroke="#999"/>
<text x="1053.3" y="531.0" text-anchor="end" fill="#e8731a" transform="rotate(-50 1053.3 531.0)">07-19</text>
<line x1="1108.0" y1="516.0" x2="1108.0" y2="519.0" stroke="#999"/>
<text x="1108.0" y="531.0" text-anchor="end" fill="#e8731a" transform="rotate(-50 1108.0 531.0)">07-20</text>
<polygon points="68.0,515.4 122.7,515.4 177.5,515.4 232.2,515.4 286.9,515.4 341.7,515.4 396.4,515.4 451.2,515.5 505.9,515.5 560.6,515.5 615.4,515.5 670.1,515.5 724.8,515.5 779.6,515.5 834.3,515.5 889.1,515.5 943.8,515.5 998.5,515.5 1053.3,515.5 1108.0,515.5 1108.0,516.0 1053.3,516.0 998.5,516.0 943.8,516.0 889.1,516.0 834.3,516.0 779.6,516.0 724.8,516.0 670.1,516.0 615.4,516.0 560.6,516.0 505.9,516.0 451.2,516.0 396.4,516.0 341.7,516.0 286.9,516.0 232.2,516.0 177.5,516.0 122.7,516.0 68.0,516.0" fill="#c7e9c0" fill-opacity="0.9" stroke="#fff" stroke-width="0.4"><title>emit_cuda — parseTranslationUnit</title></polygon>
<polygon points="68.0,494.4 122.7,494.6 177.5,494.1 232.2,495.0 286.9,494.3 341.7,494.0 396.4,494.3 451.2,495.9 505.9,493.8 560.6,495.6 615.4,495.0 670.1,495.5 724.8,493.4 779.6,496.9 834.3,496.8 889.1,494.1 943.8,494.2 998.5,498.2 1053.3,498.4 1108.0,498.5 1108.0,515.5 1053.3,515.5 998.5,515.5 943.8,515.5 889.1,515.5 834.3,515.5 779.6,515.5 724.8,515.5 670.1,515.5 615.4,515.5 560.6,515.5 505.9,515.5 451.2,515.5 396.4,515.4 341.7,515.4 286.9,515.4 232.2,515.4 177.5,515.4 122.7,515.4 68.0,515.4" fill="#41ab5d" fill-opacity="0.9" stroke="#fff" stroke-width="0.4"><title>emit_cuda — SemanticChecking</title></polygon>
<polygon points="68.0,484.3 122.7,485.1 177.5,484.0 232.2,484.9 286.9,484.8 341.7,484.1 396.4,484.5 451.2,486.6 505.9,484.0 560.6,485.6 615.4,489.4 670.1,489.8 724.8,486.9 779.6,491.4 834.3,491.3 889.1,488.8 943.8,488.9 998.5,493.6 1053.3,493.7 1108.0,493.8 1108.0,498.5 1053.3,498.4 998.5,498.2 943.8,494.2 889.1,494.1 834.3,496.8 779.6,496.9 724.8,493.4 670.1,495.5 615.4,495.0 560.6,495.6 505.9,493.8 451.2,495.9 396.4,494.3 341.7,494.0 286.9,494.3 232.2,495.0 177.5,494.1 122.7,494.6 68.0,494.4" fill="#006d2c" fill-opacity="0.9" stroke="#fff" stroke-width="0.4"><title>emit_cuda — generateIR</title></polygon>
<polygon points="68.0,484.3 122.7,484.7 177.5,483.7 232.2,484.6 286.9,484.1 341.7,483.9 396.4,484.3 451.2,486.2 505.9,483.9 560.6,485.1 615.4,489.2 670.1,489.6 724.8,486.9 779.6,491.3 834.3,491.2 889.1,488.7 943.8,488.7 998.5,493.4 1053.3,493.5 1108.0,493.7 1108.0,493.8 1053.3,493.7 998.5,493.6 943.8,488.9 889.1,488.8 834.3,491.3 779.6,491.4 724.8,486.9 670.1,489.8 615.4,489.4 560.6,485.6 505.9,484.0 451.2,486.6 396.4,484.5 341.7,484.1 286.9,484.8 232.2,484.9 177.5,484.0 122.7,485.1 68.0,484.3" fill="#74c476" fill-opacity="0.9" stroke="#fff" stroke-width="0.4"><title>emit_cuda — frontEndExecute (self)</title></polygon>
<polygon points="68.0,466.9 122.7,467.9 177.5,466.1 232.2,467.2 286.9,466.9 341.7,466.9 396.4,467.6 451.2,467.5 505.9,463.5 560.6,466.2 615.4,481.3 670.1,481.5 724.8,478.2 779.6,484.1 834.3,483.9 889.1,481.5 943.8,481.4 998.5,486.6 1053.3,486.8 1108.0,486.9 1108.0,493.7 1053.3,493.5 998.5,493.4 943.8,488.7 889.1,488.7 834.3,491.2 779.6,491.3 724.8,486.9 670.1,489.6 615.4,489.2 560.6,485.1 505.9,483.9 451.2,486.2 396.4,484.3 341.7,483.9 286.9,484.1 232.2,484.6 177.5,483.7 122.7,484.7 68.0,484.3" fill="#6baed6" fill-opacity="0.9" stroke="#fff" stroke-width="0.4"><title>emit_cuda — specializeModule</title></polygon>
<polygon points="68.0,408.5 122.7,411.7 177.5,408.0 232.2,409.3 286.9,409.4 341.7,409.8 396.4,412.9 451.2,411.8 505.9,405.2 560.6,410.1 615.4,473.1 670.1,473.2 724.8,469.6 779.6,475.9 834.3,475.6 889.1,473.3 943.8,473.2 998.5,478.6 1053.3,478.7 1108.0,478.9 1108.0,486.9 1053.3,486.8 998.5,486.6 943.8,481.4 889.1,481.5 834.3,483.9 779.6,484.1 724.8,478.2 670.1,481.5 615.4,481.3 560.6,466.2 505.9,463.5 451.2,467.5 396.4,467.6 341.7,466.9 286.9,466.9 232.2,467.2 177.5,466.1 122.7,467.9 68.0,466.9" fill="#2171b5" fill-opacity="0.9" stroke="#fff" stroke-width="0.4"><title>emit_cuda — simplifyIR</title></polygon>
<polygon points="68.0,407.5 122.7,410.7 177.5,406.9 232.2,408.2 286.9,408.4 341.7,408.8 396.4,411.9 451.2,410.9 505.9,404.2 560.6,409.2 615.4,472.2 670.1,472.3 724.8,468.6 779.6,475.1 834.3,474.8 889.1,472.5 943.8,472.4 998.5,477.9 1053.3,478.1 1108.0,478.2 1108.0,478.9 1053.3,478.7 998.5,478.6 943.8,473.2 889.1,473.3 834.3,475.6 779.6,475.9 724.8,469.6 670.1,473.2 615.4,473.1 560.6,410.1 505.9,405.2 451.2,411.8 396.4,412.9 341.7,409.8 286.9,409.4 232.2,409.3 177.5,408.0 122.7,411.7 68.0,408.5" fill="#08306b" fill-opacity="0.9" stroke="#fff" stroke-width="0.4"><title>emit_cuda — linkIR</title></polygon>
<polygon points="68.0,407.5 122.7,410.6 177.5,406.8 232.2,408.2 286.9,408.4 341.7,408.8 396.4,411.9 451.2,410.9 505.9,404.2 560.6,409.2 615.4,472.2 670.1,472.3 724.8,468.6 779.6,475.0 834.3,474.8 889.1,472.5 943.8,472.4 998.5,477.9 1053.3,478.1 1108.0,478.2 1108.0,478.2 1053.3,478.1 998.5,477.9 943.8,472.4 889.1,472.5 834.3,474.8 779.6,475.1 724.8,468.6 670.1,472.3 615.4,472.2 560.6,409.2 505.9,404.2 451.2,410.9 396.4,411.9 341.7,408.8 286.9,408.4 232.2,408.2 177.5,406.9 122.7,410.7 68.0,407.5" fill="#9e9ac8" fill-opacity="0.9" stroke="#fff" stroke-width="0.4"><title>emit_cuda — unrollLoopsInModule</title></polygon>
<polygon points="68.0,407.3 122.7,410.5 177.5,406.7 232.2,408.0 286.9,408.2 341.7,408.6 396.4,411.7 451.2,410.6 505.9,403.9 560.6,408.9 615.4,472.0 670.1,472.1 724.8,468.4 779.6,474.8 834.3,474.5 889.1,472.3 943.8,472.2 998.5,477.7 1053.3,477.8 1108.0,478.0 1108.0,478.2 1053.3,478.1 998.5,477.9 943.8,472.4 889.1,472.5 834.3,474.8 779.6,475.0 724.8,468.6 670.1,472.3 615.4,472.2 560.6,409.2 505.9,404.2 451.2,410.9 396.4,411.9 341.7,408.8 286.9,408.4 232.2,408.2 177.5,406.8 122.7,410.6 68.0,407.5" fill="#bcbddc" fill-opacity="0.9" stroke="#fff" stroke-width="0.4"><title>emit_cuda — performMandatoryEarlyInlining</title></polygon>
<polygon points="68.0,407.1 122.7,410.3 177.5,406.5 232.2,407.8 286.9,408.1 341.7,408.4 396.4,411.5 451.2,410.5 505.9,403.8 560.6,408.8 615.4,471.8 670.1,471.9 724.8,468.2 779.6,474.6 834.3,474.4 889.1,472.1 943.8,472.0 998.5,477.5 1053.3,477.7 1108.0,477.9 1108.0,478.0 1053.3,477.8 998.5,477.7 943.8,472.2 889.1,472.3 834.3,474.5 779.6,474.8 724.8,468.4 670.1,472.1 615.4,472.0 560.6,408.9 505.9,403.9 451.2,410.6 396.4,411.7 341.7,408.6 286.9,408.2 232.2,408.0 177.5,406.7 122.7,410.5 68.0,407.3" fill="#dadaeb" fill-opacity="0.9" stroke="#fff" stroke-width="0.4"><title>emit_cuda — performForceInlining</title></polygon>
<polygon points="68.0,301.6 122.7,316.8 177.5,313.2 232.2,321.0 286.9,319.4 341.7,318.7 396.4,322.7 451.2,325.7 505.9,308.6 560.6,319.5 615.4,431.6 670.1,430.4 724.8,426.8 779.6,433.0 834.3,432.8 889.1,432.5 943.8,431.7 998.5,441.9 1053.3,440.9 1108.0,442.5 1108.0,477.9 1053.3,477.7 998.5,477.5 943.8,472.0 889.1,472.1 834.3,474.4 779.6,474.6 724.8,468.2 670.1,471.9 615.4,471.8 560.6,408.8 505.9,403.8 451.2,410.5 396.4,411.5 341.7,408.4 286.9,408.1 232.2,407.8 177.5,406.5 122.7,410.3 68.0,407.1" fill="#4a1486" fill-opacity="0.9" stroke="#fff" stroke-width="0.4"><title>emit_cuda — linkAndOptimizeIR (self)</title></polygon>
<polygon points="68.0,110.7 122.7,140.6 177.5,134.8 232.2,149.5 286.9,146.6 341.7,145.8 396.4,153.5 451.2,157.3 505.9,125.6 560.6,145.8 615.4,366.0 670.1,363.0 724.8,356.7 779.6,366.7 834.3,366.4 889.1,368.5 943.8,366.5 998.5,384.3 1053.3,382.3 1108.0,385.3 1108.0,442.5 1053.3,440.9 998.5,441.9 943.8,431.7 889.1,432.5 834.3,432.8 779.6,433.0 724.8,426.8 670.1,430.4 615.4,431.6 560.6,319.5 505.9,308.6 451.2,325.7 396.4,322.7 341.7,318.7 286.9,319.4 232.2,321.0 177.5,313.2 122.7,316.8 68.0,301.6" fill="#fd8d3c" fill-opacity="0.9" stroke="#fff" stroke-width="0.4"><title>emit_cuda — emitEntryPointsSourceFromIR</title></polygon>
<polygon points="68.0,108.6 122.7,140.5 177.5,134.2 232.2,148.6 286.9,146.6 341.7,144.0 396.4,153.1 451.2,157.2 505.9,122.7 560.6,145.8 615.4,365.7 670.1,362.9 724.8,356.7 779.6,366.6 834.3,365.7 889.1,368.2 943.8,366.4 998.5,383.7 1053.3,382.0 1108.0,385.3 1108.0,385.3 1053.3,382.3 998.5,384.3 943.8,366.5 889.1,368.5 834.3,366.4 779.6,366.7 724.8,356.7 670.1,363.0 615.4,366.0 560.6,145.8 505.9,125.6 451.2,157.3 396.4,153.5 341.7,145.8 286.9,146.6 232.2,149.5 177.5,134.8 122.7,140.6 68.0,110.7" fill="#969696" fill-opacity="0.9" stroke="#fff" stroke-width="0.4"><title>emit_cuda — compileInner (self)</title></polygon>
<text x="12" y="578" fill="#666" font-weight="600">phase buckets</text>
<rect x="12" y="586" width="12" height="12" fill="#c7e9c0"/>
<text x="28" y="596" fill="#222">parseTranslationUnit</text>
<rect x="289" y="586" width="12" height="12" fill="#41ab5d"/>
<text x="305" y="596" fill="#222">SemanticChecking</text>
<rect x="566" y="586" width="12" height="12" fill="#006d2c"/>
<text x="582" y="596" fill="#222">generateIR</text>
<rect x="843" y="586" width="12" height="12" fill="#74c476"/>
<text x="859" y="596" fill="#222">frontEndExecute (self)</text>
<rect x="12" y="604" width="12" height="12" fill="#6baed6"/>
<text x="28" y="614" fill="#222">specializeModule</text>
<rect x="289" y="604" width="12" height="12" fill="#2171b5"/>
<text x="305" y="614" fill="#222">simplifyIR</text>
<rect x="566" y="604" width="12" height="12" fill="#08306b"/>
<text x="582" y="614" fill="#222">linkIR</text>
<rect x="843" y="604" width="12" height="12" fill="#9e9ac8"/>
<text x="859" y="614" fill="#222">unrollLoopsInModule</text>
<rect x="12" y="622" width="12" height="12" fill="#807dba"/>
<text x="28" y="632" fill="#222">legalizeResourceTypes</text>
<rect x="289" y="622" width="12" height="12" fill="#6a51a3"/>
<text x="305" y="632" fill="#222">legalizeExistentialTypeLayout</text>
<rect x="566" y="622" width="12" height="12" fill="#bcbddc"/>
<text x="582" y="632" fill="#222">performMandatoryEarlyInlining</text>
<rect x="843" y="622" width="12" height="12" fill="#dadaeb"/>
<text x="859" y="632" fill="#222">performForceInlining</text>
<rect x="12" y="640" width="12" height="12" fill="#4a1486"/>
<text x="28" y="650" fill="#222">linkAndOptimizeIR (self)</text>
<rect x="289" y="640" width="12" height="12" fill="#fd8d3c"/>
<text x="305" y="650" fill="#222">emitEntryPointsSourceFromIR</text>
<rect x="566" y="640" width="12" height="12" fill="#e6550d"/>
<text x="582" y="650" fill="#222">generateOutput (self)</text>
<rect x="843" y="640" width="12" height="12" fill="#969696"/>
<text x="859" y="650" fill="#222">compileInner (self)</text>
</svg>