<svg xmlns="http://www.w3.org/2000/svg" xmlns:xlink="http://www.w3.org/1999/xlink" width="1132" height="680" viewBox="0 0 1132 680" preserveAspectRatio="xMidYMid meet" font-family="sans-serif" font-size="13">
<rect width="1132" height="680" fill="white"/>
<text x="12" y="30" font-size="20" font-weight="bold">emit_glsl — full phase breakdown across releases (median ms)</text>
<text x="68" y="60" font-size="15" font-weight="600" fill="#1a1a1a">emit_glsl<tspan fill="#888" font-weight="400" text-decoration="none">  1.00×</tspan></text>
<line x1="68.0" y1="516.0" x2="1108.0" y2="516.0" stroke="#eee"/>
<text x="64.0" y="519.0" text-anchor="end" fill="#999">0.0</text>
<line x1="68.0" y1="296.0" x2="1108.0" y2="296.0" stroke="#eee"/>
<text x="64.0" y="299.0" text-anchor="end" fill="#999">179</text>
<line x1="68.0" y1="76.0" x2="1108.0" y2="76.0" stroke="#eee"/>
<text x="64.0" y="79.0" text-anchor="end" fill="#999">359</text>
<line x1="68.0" y1="76.0" x2="68.0" y2="516.0" stroke="#333"/>
<line x1="68.0" y1="516.0" x2="1108.0" y2="516.0" stroke="#333"/>
<line x1="766.8" y1="76.0" x2="766.8" y2="516.0" stroke="#e8731a" stroke-width="1.2" stroke-dasharray="4 3"/>
<text x="769.8" y="87.0" fill="#e8731a" font-size="11">daily →</text>
<line x1="68.0" y1="516.0" x2="68.0" y2="519.0" stroke="#999"/>
<text x="68.0" y="531.0" text-anchor="end" fill="#666" transform="rotate(-50 68.0 531.0)">25.14</text>
<line x1="100.5" y1="516.0" x2="100.5" y2="519.0" stroke="#999"/>
<text x="100.5" y="531.0" text-anchor="end" fill="#666" transform="rotate(-50 100.5 531.0)">25.15</text>
<line x1="133.0" y1="516.0" x2="133.0" y2="519.0" stroke="#999"/>
<text x="133.0" y="531.0" text-anchor="end" fill="#666" transform="rotate(-50 133.0 531.0)">25.16</text>
<line x1="165.5" y1="516.0" x2="165.5" y2="519.0" stroke="#999"/>
<text x="165.5" y="531.0" text-anchor="end" fill="#666" transform="rotate(-50 165.5 531.0)">25.17</text>
<line x1="198.0" y1="516.0" x2="198.0" y2="519.0" stroke="#999"/>
<text x="198.0" y="531.0" text-anchor="end" fill="#666" transform="rotate(-50 198.0 531.0)">25.18</text>
<line x1="230.5" y1="516.0" x2="230.5" y2="519.0" stroke="#999"/>
<text x="230.5" y="531.0" text-anchor="end" fill="#666" transform="rotate(-50 230.5 531.0)">25.19</text>
<line x1="263.0" y1="516.0" x2="263.0" y2="519.0" stroke="#999"/>
<text x="263.0" y="531.0" text-anchor="end" fill="#666" transform="rotate(-50 263.0 531.0)">25.20</text>
<line x1="295.5" y1="516.0" x2="295.5" y2="519.0" stroke="#999"/>
<text x="295.5" y="531.0" text-anchor="end" fill="#666" transform="rotate(-50 295.5 531.0)">25.21</text>
<line x1="328.0" y1="516.0" x2="328.0" y2="519.0" stroke="#999"/>
<text x="328.0" y="531.0" text-anchor="end" fill="#666" transform="rotate(-50 328.0 531.0)">25.22</text>
<line x1="360.5" y1="516.0" x2="360.5" y2="519.0" stroke="#999"/>
<text x="360.5" y="531.0" text-anchor="end" fill="#666" transform="rotate(-50 360.5 531.0)">25.23</text>
<line x1="393.0" y1="516.0" x2="393.0" y2="519.0" stroke="#999"/>
<text x="393.0" y="531.0" text-anchor="end" fill="#666" transform="rotate(-50 393.0 531.0)">25.24</text>
<line x1="425.5" y1="516.0" x2="425.5" y2="519.0" stroke="#999"/>
<text x="425.5" y="531.0" text-anchor="end" fill="#666" transform="rotate(-50 425.5 531.0)">26.1</text>
<line x1="458.0" y1="516.0" x2="458.0" y2="519.0" stroke="#999"/>
<text x="458.0" y="531.0" text-anchor="end" fill="#666" transform="rotate(-50 458.0 531.0)">26.2</text>
<line x1="490.5" y1="516.0" x2="490.5" y2="519.0" stroke="#999"/>
<text x="490.5" y="531.0" text-anchor="end" fill="#666" transform="rotate(-50 490.5 531.0)">26.3</text>
<line x1="523.0" y1="516.0" x2="523.0" y2="519.0" stroke="#999"/>
<text x="523.0" y="531.0" text-anchor="end" fill="#666" transform="rotate(-50 523.0 531.0)">26.4</text>
<line x1="555.5" y1="516.0" x2="555.5" y2="519.0" stroke="#999"/>
<text x="555.5" y="531.0" text-anchor="end" fill="#666" transform="rotate(-50 555.5 531.0)">26.5</text>
<line x1="588.0" y1="516.0" x2="588.0" y2="519.0" stroke="#999"/>
<text x="588.0" y="531.0" text-anchor="end" fill="#666" transform="rotate(-50 588.0 531.0)">26.7</text>
<line x1="620.5" y1="516.0" x2="620.5" y2="519.0" stroke="#999"/>
<text x="620.5" y="531.0" text-anchor="end" fill="#666" transform="rotate(-50 620.5 531.0)">26.8</text>
<line x1="653.0" y1="516.0" x2="653.0" y2="519.0" stroke="#999"/>
<text x="653.0" y="531.0" text-anchor="end" fill="#666" transform="rotate(-50 653.0 531.0)">26.9</text>
<line x1="685.5" y1="516.0" x2="685.5" y2="519.0" stroke="#999"/>
<text x="685.5" y="531.0" text-anchor="end" fill="#666" transform="rotate(-50 685.5 531.0)">26.10</text>
<line x1="718.0" y1="516.0" x2="718.0" y2="519.0" stroke="#999"/>
<text x="718.0" y="531.0" text-anchor="end" fill="#666" transform="rotate(-50 718.0 531.0)">26.11</text>
<line x1="750.5" y1="516.0" x2="750.5" y2="519.0" stroke="#999"/>
<text x="750.5" y="531.0" text-anchor="end" fill="#666" transform="rotate(-50 750.5 531.0)">26.12</text>
<line x1="783.0" y1="516.0" x2="783.0" y2="519.0" stroke="#999"/>
<text x="783.0" y="531.0" text-anchor="end" fill="#e8731a" transform="rotate(-50 783.0 531.0)">06-25</text>
<line x1="815.5" y1="516.0" x2="815.5" y2="519.0" stroke="#999"/>
<text x="815.5" y="531.0" text-anchor="end" fill="#e8731a" transform="rotate(-50 815.5 531.0)">06-26</text>
<line x1="848.0" y1="516.0" x2="848.0" y2="519.0" stroke="#999"/>
<text x="848.0" y="531.0" text-anchor="end" fill="#e8731a" transform="rotate(-50 848.0 531.0)">06-28</text>
<line x1="880.5" y1="516.0" x2="880.5" y2="519.0" stroke="#999"/>
<text x="880.5" y="531.0" text-anchor="end" fill="#e8731a" transform="rotate(-50 880.5 531.0)">07-01</text>
<line x1="913.0" y1="516.0" x2="913.0" y2="519.0" stroke="#999"/>
<text x="913.0" y="531.0" text-anchor="end" fill="#e8731a" transform="rotate(-50 913.0 531.0)">07-02</text>
<line x1="945.5" y1="516.0" x2="945.5" y2="519.0" stroke="#999"/>
<text x="945.5" y="531.0" text-anchor="end" fill="#e8731a" transform="rotate(-50 945.5 531.0)">07-03</text>
<line x1="978.0" y1="516.0" x2="978.0" y2="519.0" stroke="#999"/>
<text x="978.0" y="531.0" text-anchor="end" fill="#e8731a" transform="rotate(-50 978.0 531.0)">07-07</text>
<line x1="1010.5" y1="516.0" x2="1010.5" y2="519.0" stroke="#999"/>
<text x="1010.5" y="531.0" text-anchor="end" fill="#e8731a" transform="rotate(-50 1010.5 531.0)">07-07</text>
<line x1="1043.0" y1="516.0" x2="1043.0" y2="519.0" stroke="#999"/>
<text x="1043.0" y="531.0" text-anchor="end" fill="#e8731a" transform="rotate(-50 1043.0 531.0)">07-09</text>
<line x1="1075.5" y1="516.0" x2="1075.5" y2="519.0" stroke="#999"/>
<text x="1075.5" y="531.0" text-anchor="end" fill="#e8731a" transform="rotate(-50 1075.5 531.0)">07-10</text>
<line x1="1108.0" y1="516.0" x2="1108.0" y2="519.0" stroke="#999"/>
<text x="1108.0" y="531.0" text-anchor="end" fill="#e8731a" transform="rotate(-50 1108.0 531.0)">07-11</text>
<text x="12" y="578" fill="#666" font-weight="600">phase buckets</text>
<rect x="12" y="586" width="12" height="12" fill="#c7e9c0"/>
<text x="28" y="596" fill="#222">parseTranslationUnit</text>
<rect x="289" y="586" width="12" height="12" fill="#41ab5d"/>
<text x="305" y="596" fill="#222">SemanticChecking</text>
<rect x="566" y="586" width="12" height="12" fill="#006d2c"/>
<text x="582" y="596" fill="#222">generateIR</text>
<rect x="843" y="586" width="12" height="12" fill="#74c476"/>
<text x="859" y="596" fill="#222">frontEndExecute (self)</text>
<rect x="12" y="604" width="12" height="12" fill="#6baed6"/>
<text x="28" y="614" fill="#222">specializeModule</text>
<rect x="289" y="604" width="12" height="12" fill="#2171b5"/>
<text x="305" y="614" fill="#222">simplifyIR</text>
<rect x="566" y="604" width="12" height="12" fill="#08306b"/>
<text x="582" y="614" fill="#222">linkIR</text>
<rect x="843" y="604" width="12" height="12" fill="#9e9ac8"/>
<text x="859" y="614" fill="#222">unrollLoopsInModule</text>
<rect x="12" y="622" width="12" height="12" fill="#807dba"/>
<text x="28" y="632" fill="#222">legalizeResourceTypes</text>
<rect x="289" y="622" width="12" height="12" fill="#6a51a3"/>
<text x="305" y="632" fill="#222">legalizeExistentialTypeLayout</text>
<rect x="566" y="622" width="12" height="12" fill="#bcbddc"/>
<text x="582" y="632" fill="#222">performMandatoryEarlyInlining</text>
<rect x="843" y="622" width="12" height="12" fill="#dadaeb"/>
<text x="859" y="632" fill="#222">performForceInlining</text>
<rect x="12" y="640" width="12" height="12" fill="#4a1486"/>
<text x="28" y="650" fill="#222">linkAndOptimizeIR (self)</text>
<rect x="289" y="640" width="12" height="12" fill="#fd8d3c"/>
<text x="305" y="650" fill="#222">emitEntryPointsSourceFromIR</text>
<rect x="566" y="640" width="12" height="12" fill="#e6550d"/>
<text x="582" y="650" fill="#222">generateOutput (self)</text>
<rect x="843" y="640" width="12" height="12" fill="#969696"/>
<text x="859" y="650" fill="#222">compileInner (self)</text>
</svg>