<svg xmlns="http://www.w3.org/2000/svg" xmlns:xlink="http://www.w3.org/1999/xlink" width="1132" height="680" viewBox="0 0 1132 680" preserveAspectRatio="xMidYMid meet" font-family="sans-serif" font-size="13">
<rect width="1132" height="680" fill="white"/>
<text x="12" y="30" font-size="20" font-weight="bold">emit_wgsl — Daily tip-of-tree (last 30 days) (median ms)</text>
<text x="68" y="60" font-size="15" font-weight="600" fill="#1a1a1a">emit_wgsl<tspan fill="#888" font-weight="400" text-decoration="none">  0.33×</tspan></text>
<line x1="68.0" y1="516.0" x2="1108.0" y2="516.0" stroke="#eee"/>
<text x="64.0" y="519.0" text-anchor="end" fill="#999">0.0</text>
<line x1="68.0" y1="296.0" x2="1108.0" y2="296.0" stroke="#eee"/>
<text x="64.0" y="299.0" text-anchor="end" fill="#999">469</text>
<line x1="68.0" y1="76.0" x2="1108.0" y2="76.0" stroke="#eee"/>
<text x="64.0" y="79.0" text-anchor="end" fill="#999">938</text>
<line x1="68.0" y1="76.0" x2="68.0" y2="516.0" stroke="#333"/>
<line x1="68.0" y1="516.0" x2="1108.0" y2="516.0" stroke="#333"/>
<line x1="68.0" y1="516.0" x2="68.0" y2="519.0" stroke="#999"/>
<text x="68.0" y="531.0" text-anchor="end" fill="#e8731a" transform="rotate(-50 68.0 531.0)">06-25</text>
<line x1="122.7" y1="516.0" x2="122.7" y2="519.0" stroke="#999"/>
<text x="122.7" y="531.0" text-anchor="end" fill="#e8731a" transform="rotate(-50 122.7 531.0)">06-26</text>
<line x1="177.5" y1="516.0" x2="177.5" y2="519.0" stroke="#999"/>
<text x="177.5" y="531.0" text-anchor="end" fill="#e8731a" transform="rotate(-50 177.5 531.0)">06-28</text>
<line x1="232.2" y1="516.0" x2="232.2" y2="519.0" stroke="#999"/>
<text x="232.2" y="531.0" text-anchor="end" fill="#e8731a" transform="rotate(-50 232.2 531.0)">07-01</text>
<line x1="286.9" y1="516.0" x2="286.9" y2="519.0" stroke="#999"/>
<text x="286.9" y="531.0" text-anchor="end" fill="#e8731a" transform="rotate(-50 286.9 531.0)">07-02</text>
<line x1="341.7" y1="516.0" x2="341.7" y2="519.0" stroke="#999"/>
<text x="341.7" y="531.0" text-anchor="end" fill="#e8731a" transform="rotate(-50 341.7 531.0)">07-03</text>
<line x1="396.4" y1="516.0" x2="396.4" y2="519.0" stroke="#999"/>
<text x="396.4" y="531.0" text-anchor="end" fill="#e8731a" transform="rotate(-50 396.4 531.0)">07-06</text>
<line x1="451.2" y1="516.0" x2="451.2" y2="519.0" stroke="#999"/>
<text x="451.2" y="531.0" text-anchor="end" fill="#e8731a" transform="rotate(-50 451.2 531.0)">07-07</text>
<line x1="505.9" y1="516.0" x2="505.9" y2="519.0" stroke="#999"/>
<text x="505.9" y="531.0" text-anchor="end" fill="#e8731a" transform="rotate(-50 505.9 531.0)">07-08</text>
<line x1="560.6" y1="516.0" x2="560.6" y2="519.0" stroke="#999"/>
<text x="560.6" y="531.0" text-anchor="end" fill="#e8731a" transform="rotate(-50 560.6 531.0)">07-09</text>
<line x1="615.4" y1="516.0" x2="615.4" y2="519.0" stroke="#999"/>
<text x="615.4" y="531.0" text-anchor="end" fill="#e8731a" transform="rotate(-50 615.4 531.0)">07-10</text>
<line x1="670.1" y1="516.0" x2="670.1" y2="519.0" stroke="#999"/>
<text x="670.1" y="531.0" text-anchor="end" fill="#e8731a" transform="rotate(-50 670.1 531.0)">07-11</text>
<line x1="724.8" y1="516.0" x2="724.8" y2="519.0" stroke="#999"/>
<text x="724.8" y="531.0" text-anchor="end" fill="#e8731a" transform="rotate(-50 724.8 531.0)">07-14</text>
<line x1="779.6" y1="516.0" x2="779.6" y2="519.0" stroke="#999"/>
<text x="779.6" y="531.0" text-anchor="end" fill="#e8731a" transform="rotate(-50 779.6 531.0)">07-15</text>
<line x1="834.3" y1="516.0" x2="834.3" y2="519.0" stroke="#999"/>
<text x="834.3" y="531.0" text-anchor="end" fill="#e8731a" transform="rotate(-50 834.3 531.0)">07-15</text>
<line x1="889.1" y1="516.0" x2="889.1" y2="519.0" stroke="#999"/>
<text x="889.1" y="531.0" text-anchor="end" fill="#e8731a" transform="rotate(-50 889.1 531.0)">07-16</text>
<line x1="943.8" y1="516.0" x2="943.8" y2="519.0" stroke="#999"/>
<text x="943.8" y="531.0" text-anchor="end" fill="#e8731a" transform="rotate(-50 943.8 531.0)">07-17</text>
<line x1="998.5" y1="516.0" x2="998.5" y2="519.0" stroke="#999"/>
<text x="998.5" y="531.0" text-anchor="end" fill="#e8731a" transform="rotate(-50 998.5 531.0)">07-18</text>
<line x1="1053.3" y1="516.0" x2="1053.3" y2="519.0" stroke="#999"/>
<text x="1053.3" y="531.0" text-anchor="end" fill="#e8731a" transform="rotate(-50 1053.3 531.0)">07-19</text>
<line x1="1108.0" y1="516.0" x2="1108.0" y2="519.0" stroke="#999"/>
<text x="1108.0" y="531.0" text-anchor="end" fill="#e8731a" transform="rotate(-50 1108.0 531.0)">07-20</text>
<polygon points="68.0,515.5 122.7,515.5 177.5,515.5 232.2,515.5 286.9,515.5 341.7,515.5 396.4,515.5 451.2,515.6 505.9,515.6 560.6,515.6 615.4,515.6 670.1,515.6 724.8,515.6 779.6,515.6 834.3,515.6 889.1,515.6 943.8,515.6 998.5,515.6 1053.3,515.6 1108.0,515.6 1108.0,516.0 1053.3,516.0 998.5,516.0 943.8,516.0 889.1,516.0 834.3,516.0 779.6,516.0 724.8,516.0 670.1,516.0 615.4,516.0 560.6,516.0 505.9,516.0 451.2,516.0 396.4,516.0 341.7,516.0 286.9,516.0 232.2,516.0 177.5,516.0 122.7,516.0 68.0,516.0" fill="#c7e9c0" fill-opacity="0.9" stroke="#fff" stroke-width="0.4"><title>emit_wgsl — parseTranslationUnit</title></polygon>
<polygon points="68.0,498.4 122.7,498.5 177.5,497.9 232.2,498.5 286.9,498.0 341.7,498.6 396.4,498.4 451.2,499.2 505.9,498.3 560.6,498.7 615.4,498.3 670.1,498.6 724.8,498.5 779.6,500.1 834.3,499.9 889.1,497.9 943.8,497.9 998.5,501.0 1053.3,501.0 1108.0,501.2 1108.0,515.6 1053.3,515.6 998.5,515.6 943.8,515.6 889.1,515.6 834.3,515.6 779.6,515.6 724.8,515.6 670.1,515.6 615.4,515.6 560.6,515.6 505.9,515.6 451.2,515.6 396.4,515.5 341.7,515.5 286.9,515.5 232.2,515.5 177.5,515.5 122.7,515.5 68.0,515.5" fill="#41ab5d" fill-opacity="0.9" stroke="#fff" stroke-width="0.4"><title>emit_wgsl — SemanticChecking</title></polygon>
<polygon points="68.0,490.0 122.7,490.7 177.5,489.5 232.2,490.5 286.9,490.1 341.7,490.9 396.4,490.7 451.2,491.5 505.9,490.0 560.6,490.6 615.4,493.5 670.1,493.8 724.8,493.8 779.6,495.5 834.3,495.3 889.1,493.4 943.8,493.3 998.5,497.1 1053.3,496.9 1108.0,497.3 1108.0,501.2 1053.3,501.0 998.5,501.0 943.8,497.9 889.1,497.9 834.3,499.9 779.6,500.1 724.8,498.5 670.1,498.6 615.4,498.3 560.6,498.7 505.9,498.3 451.2,499.2 396.4,498.4 341.7,498.6 286.9,498.0 232.2,498.5 177.5,497.9 122.7,498.5 68.0,498.4" fill="#006d2c" fill-opacity="0.9" stroke="#fff" stroke-width="0.4"><title>emit_wgsl — generateIR</title></polygon>
<polygon points="68.0,490.0 122.7,490.6 177.5,489.2 232.2,490.5 286.9,490.0 341.7,490.7 396.4,490.6 451.2,491.3 505.9,489.7 560.6,490.5 615.4,493.4 670.1,493.7 724.8,493.7 779.6,495.4 834.3,495.0 889.1,493.3 943.8,493.1 998.5,497.1 1053.3,496.6 1108.0,497.2 1108.0,497.3 1053.3,496.9 998.5,497.1 943.8,493.3 889.1,493.4 834.3,495.3 779.6,495.5 724.8,493.8 670.1,493.8 615.4,493.5 560.6,490.6 505.9,490.0 451.2,491.5 396.4,490.7 341.7,490.9 286.9,490.1 232.2,490.5 177.5,489.5 122.7,490.7 68.0,490.0" fill="#74c476" fill-opacity="0.9" stroke="#fff" stroke-width="0.4"><title>emit_wgsl — frontEndExecute (self)</title></polygon>
<polygon points="68.0,479.0 122.7,480.0 177.5,478.4 232.2,479.7 286.9,479.4 341.7,480.2 396.4,480.1 451.2,479.7 505.9,477.6 560.6,478.2 615.4,487.9 670.1,488.2 724.8,488.3 779.6,490.3 834.3,489.9 889.1,488.4 943.8,488.2 998.5,492.5 1053.3,492.1 1108.0,492.6 1108.0,497.2 1053.3,496.6 998.5,497.1 943.8,493.1 889.1,493.3 834.3,495.0 779.6,495.4 724.8,493.7 670.1,493.7 615.4,493.4 560.6,490.5 505.9,489.7 451.2,491.3 396.4,490.6 341.7,490.7 286.9,490.0 232.2,490.5 177.5,489.2 122.7,490.6 68.0,490.0" fill="#6baed6" fill-opacity="0.9" stroke="#fff" stroke-width="0.4"><title>emit_wgsl — specializeModule</title></polygon>
<polygon points="68.0,443.3 122.7,445.9 177.5,443.4 232.2,444.7 286.9,445.1 341.7,446.2 396.4,446.6 451.2,445.8 505.9,442.4 560.6,442.5 615.4,482.5 670.1,482.8 724.8,482.8 779.6,484.9 834.3,484.5 889.1,483.1 943.8,482.9 998.5,487.2 1053.3,486.8 1108.0,487.4 1108.0,492.6 1053.3,492.1 998.5,492.5 943.8,488.2 889.1,488.4 834.3,489.9 779.6,490.3 724.8,488.3 670.1,488.2 615.4,487.9 560.6,478.2 505.9,477.6 451.2,479.7 396.4,480.1 341.7,480.2 286.9,479.4 232.2,479.7 177.5,478.4 122.7,480.0 68.0,479.0" fill="#2171b5" fill-opacity="0.9" stroke="#fff" stroke-width="0.4"><title>emit_wgsl — simplifyIR</title></polygon>
<polygon points="68.0,442.5 122.7,445.3 177.5,442.8 232.2,444.1 286.9,444.5 341.7,445.5 396.4,446.0 451.2,445.2 505.9,441.8 560.6,441.9 615.4,481.9 670.1,482.2 724.8,482.2 779.6,484.4 834.3,484.0 889.1,482.5 943.8,482.3 998.5,486.8 1053.3,486.4 1108.0,486.9 1108.0,487.4 1053.3,486.8 998.5,487.2 943.8,482.9 889.1,483.1 834.3,484.5 779.6,484.9 724.8,482.8 670.1,482.8 615.4,482.5 560.6,442.5 505.9,442.4 451.2,445.8 396.4,446.6 341.7,446.2 286.9,445.1 232.2,444.7 177.5,443.4 122.7,445.9 68.0,443.3" fill="#08306b" fill-opacity="0.9" stroke="#fff" stroke-width="0.4"><title>emit_wgsl — linkIR</title></polygon>
<polygon points="68.0,442.5 122.7,445.3 177.5,442.8 232.2,444.1 286.9,444.5 341.7,445.5 396.4,446.0 451.2,445.2 505.9,441.8 560.6,441.9 615.4,481.9 670.1,482.2 724.8,482.2 779.6,484.4 834.3,484.0 889.1,482.5 943.8,482.3 998.5,486.8 1053.3,486.4 1108.0,486.9 1108.0,486.9 1053.3,486.4 998.5,486.8 943.8,482.3 889.1,482.5 834.3,484.0 779.6,484.4 724.8,482.2 670.1,482.2 615.4,481.9 560.6,441.9 505.9,441.8 451.2,445.2 396.4,446.0 341.7,445.5 286.9,444.5 232.2,444.1 177.5,442.8 122.7,445.3 68.0,442.5" fill="#9e9ac8" fill-opacity="0.9" stroke="#fff" stroke-width="0.4"><title>emit_wgsl — unrollLoopsInModule</title></polygon>
<polygon points="68.0,373.2 122.7,379.4 177.5,374.4 232.2,378.1 286.9,378.1 341.7,380.0 396.4,379.0 451.2,381.8 505.9,375.1 560.6,372.3 615.4,457.0 670.1,457.3 724.8,457.3 779.6,458.1 834.3,458.1 889.1,457.8 943.8,457.4 998.5,464.1 1053.3,463.0 1108.0,464.5 1108.0,486.9 1053.3,486.4 998.5,486.8 943.8,482.3 889.1,482.5 834.3,484.0 779.6,484.4 724.8,482.2 670.1,482.2 615.4,481.9 560.6,441.9 505.9,441.8 451.2,445.2 396.4,446.0 341.7,445.5 286.9,444.5 232.2,444.1 177.5,442.8 122.7,445.3 68.0,442.5" fill="#807dba" fill-opacity="0.9" stroke="#fff" stroke-width="0.4"><title>emit_wgsl — legalizeResourceTypes</title></polygon>
<polygon points="68.0,303.0 122.7,312.3 177.5,306.3 232.2,311.3 286.9,311.1 341.7,312.5 396.4,312.1 451.2,316.3 505.9,307.9 560.6,304.7 615.4,431.9 670.1,431.6 724.8,431.9 779.6,431.7 834.3,432.0 889.1,432.6 943.8,432.3 998.5,441.4 1053.3,439.2 1108.0,441.7 1108.0,464.5 1053.3,463.0 998.5,464.1 943.8,457.4 889.1,457.8 834.3,458.1 779.6,458.1 724.8,457.3 670.1,457.3 615.4,457.0 560.6,372.3 505.9,375.1 451.2,381.8 396.4,379.0 341.7,380.0 286.9,378.1 232.2,378.1 177.5,374.4 122.7,379.4 68.0,373.2" fill="#6a51a3" fill-opacity="0.9" stroke="#fff" stroke-width="0.4"><title>emit_wgsl — legalizeExistentialTypeLayout</title></polygon>
<polygon points="68.0,302.9 122.7,312.2 177.5,306.2 232.2,311.2 286.9,311.0 341.7,312.4 396.4,312.0 451.2,316.1 505.9,307.8 560.6,304.5 615.4,431.8 670.1,431.4 724.8,431.7 779.6,431.5 834.3,431.8 889.1,432.4 943.8,432.2 998.5,441.2 1053.3,439.1 1108.0,441.5 1108.0,441.7 1053.3,439.2 998.5,441.4 943.8,432.3 889.1,432.6 834.3,432.0 779.6,431.7 724.8,431.9 670.1,431.6 615.4,431.9 560.6,304.7 505.9,307.9 451.2,316.3 396.4,312.1 341.7,312.5 286.9,311.1 232.2,311.3 177.5,306.3 122.7,312.3 68.0,303.0" fill="#bcbddc" fill-opacity="0.9" stroke="#fff" stroke-width="0.4"><title>emit_wgsl — performMandatoryEarlyInlining</title></polygon>
<polygon points="68.0,302.8 122.7,312.1 177.5,306.1 232.2,311.1 286.9,310.9 341.7,312.3 396.4,311.9 451.2,316.0 505.9,307.7 560.6,304.4 615.4,431.7 670.1,431.3 724.8,431.6 779.6,431.4 834.3,431.7 889.1,432.3 943.8,432.1 998.5,441.1 1053.3,439.0 1108.0,441.4 1108.0,441.5 1053.3,439.1 998.5,441.2 943.8,432.2 889.1,432.4 834.3,431.8 779.6,431.5 724.8,431.7 670.1,431.4 615.4,431.8 560.6,304.5 505.9,307.8 451.2,316.1 396.4,312.0 341.7,312.4 286.9,311.0 232.2,311.2 177.5,306.2 122.7,312.2 68.0,302.9" fill="#dadaeb" fill-opacity="0.9" stroke="#fff" stroke-width="0.4"><title>emit_wgsl — performForceInlining</title></polygon>
<polygon points="68.0,109.0 122.7,127.4 177.5,116.5 232.2,125.2 286.9,125.4 341.7,127.6 396.4,127.1 451.2,134.4 505.9,119.4 560.6,111.1 615.4,363.4 670.1,362.3 724.8,362.9 779.6,361.3 834.3,362.2 889.1,365.2 943.8,364.9 998.5,380.2 1053.3,376.5 1108.0,380.9 1108.0,441.4 1053.3,439.0 998.5,441.1 943.8,432.1 889.1,432.3 834.3,431.7 779.6,431.4 724.8,431.6 670.1,431.3 615.4,431.7 560.6,304.4 505.9,307.7 451.2,316.0 396.4,311.9 341.7,312.3 286.9,310.9 232.2,311.1 177.5,306.1 122.7,312.1 68.0,302.8" fill="#fd8d3c" fill-opacity="0.9" stroke="#fff" stroke-width="0.4"><title>emit_wgsl — emitEntryPointsSourceFromIR</title></polygon>
<polygon points="68.0,108.6 122.7,127.2 177.5,116.2 232.2,124.6 286.9,125.0 341.7,127.6 396.4,126.6 451.2,134.3 505.9,118.0 560.6,110.3 615.4,363.4 670.1,362.0 724.8,362.9 779.6,361.3 834.3,362.2 889.1,364.4 943.8,364.9 998.5,380.0 1053.3,376.5 1108.0,380.8 1108.0,380.9 1053.3,376.5 998.5,380.2 943.8,364.9 889.1,365.2 834.3,362.2 779.6,361.3 724.8,362.9 670.1,362.3 615.4,363.4 560.6,111.1 505.9,119.4 451.2,134.4 396.4,127.1 341.7,127.6 286.9,125.4 232.2,125.2 177.5,116.5 122.7,127.4 68.0,109.0" fill="#969696" fill-opacity="0.9" stroke="#fff" stroke-width="0.4"><title>emit_wgsl — compileInner (self)</title></polygon>
<text x="12" y="578" fill="#666" font-weight="600">phase buckets</text>
<rect x="12" y="586" width="12" height="12" fill="#c7e9c0"/>
<text x="28" y="596" fill="#222">parseTranslationUnit</text>
<rect x="289" y="586" width="12" height="12" fill="#41ab5d"/>
<text x="305" y="596" fill="#222">SemanticChecking</text>
<rect x="566" y="586" width="12" height="12" fill="#006d2c"/>
<text x="582" y="596" fill="#222">generateIR</text>
<rect x="843" y="586" width="12" height="12" fill="#74c476"/>
<text x="859" y="596" fill="#222">frontEndExecute (self)</text>
<rect x="12" y="604" width="12" height="12" fill="#6baed6"/>
<text x="28" y="614" fill="#222">specializeModule</text>
<rect x="289" y="604" width="12" height="12" fill="#2171b5"/>
<text x="305" y="614" fill="#222">simplifyIR</text>
<rect x="566" y="604" width="12" height="12" fill="#08306b"/>
<text x="582" y="614" fill="#222">linkIR</text>
<rect x="843" y="604" width="12" height="12" fill="#9e9ac8"/>
<text x="859" y="614" fill="#222">unrollLoopsInModule</text>
<rect x="12" y="622" width="12" height="12" fill="#807dba"/>
<text x="28" y="632" fill="#222">legalizeResourceTypes</text>
<rect x="289" y="622" width="12" height="12" fill="#6a51a3"/>
<text x="305" y="632" fill="#222">legalizeExistentialTypeLayout</text>
<rect x="566" y="622" width="12" height="12" fill="#bcbddc"/>
<text x="582" y="632" fill="#222">performMandatoryEarlyInlining</text>
<rect x="843" y="622" width="12" height="12" fill="#dadaeb"/>
<text x="859" y="632" fill="#222">performForceInlining</text>
<rect x="12" y="640" width="12" height="12" fill="#4a1486"/>
<text x="28" y="650" fill="#222">linkAndOptimizeIR (self)</text>
<rect x="289" y="640" width="12" height="12" fill="#fd8d3c"/>
<text x="305" y="650" fill="#222">emitEntryPointsSourceFromIR</text>
<rect x="566" y="640" width="12" height="12" fill="#e6550d"/>
<text x="582" y="650" fill="#222">generateOutput (self)</text>
<rect x="843" y="640" width="12" height="12" fill="#969696"/>
<text x="859" y="650" fill="#222">compileInner (self)</text>
</svg>