<svg xmlns="http://www.w3.org/2000/svg" xmlns:xlink="http://www.w3.org/1999/xlink" width="1132" height="680" viewBox="0 0 1132 680" preserveAspectRatio="xMidYMid meet" font-family="sans-serif" font-size="13">
<rect width="1132" height="680" fill="white"/>
<text x="12" y="30" font-size="20" font-weight="bold">emit_glsl — Daily tip-of-tree (last 30 days) (median ms)</text>
<text x="68" y="60" font-size="15" font-weight="600" fill="#1a1a1a">emit_glsl<tspan fill="#888" font-weight="400" text-decoration="none">  0.31×</tspan></text>
<line x1="68.0" y1="516.0" x2="1108.0" y2="516.0" stroke="#eee"/>
<text x="64.0" y="519.0" text-anchor="end" fill="#999">0.0</text>
<line x1="68.0" y1="296.0" x2="1108.0" y2="296.0" stroke="#eee"/>
<text x="64.0" y="299.0" text-anchor="end" fill="#999">506</text>
<line x1="68.0" y1="76.0" x2="1108.0" y2="76.0" stroke="#eee"/>
<text x="64.0" y="79.0" text-anchor="end" fill="#999">1012</text>
<line x1="68.0" y1="76.0" x2="68.0" y2="516.0" stroke="#333"/>
<line x1="68.0" y1="516.0" x2="1108.0" y2="516.0" stroke="#333"/>
<line x1="68.0" y1="516.0" x2="68.0" y2="519.0" stroke="#999"/>
<text x="68.0" y="531.0" text-anchor="end" fill="#e8731a" transform="rotate(-50 68.0 531.0)">06-25</text>
<line x1="120.0" y1="516.0" x2="120.0" y2="519.0" stroke="#999"/>
<text x="120.0" y="531.0" text-anchor="end" fill="#e8731a" transform="rotate(-50 120.0 531.0)">06-26</text>
<line x1="172.0" y1="516.0" x2="172.0" y2="519.0" stroke="#999"/>
<text x="172.0" y="531.0" text-anchor="end" fill="#e8731a" transform="rotate(-50 172.0 531.0)">06-28</text>
<line x1="224.0" y1="516.0" x2="224.0" y2="519.0" stroke="#999"/>
<text x="224.0" y="531.0" text-anchor="end" fill="#e8731a" transform="rotate(-50 224.0 531.0)">07-01</text>
<line x1="276.0" y1="516.0" x2="276.0" y2="519.0" stroke="#999"/>
<text x="276.0" y="531.0" text-anchor="end" fill="#e8731a" transform="rotate(-50 276.0 531.0)">07-02</text>
<line x1="328.0" y1="516.0" x2="328.0" y2="519.0" stroke="#999"/>
<text x="328.0" y="531.0" text-anchor="end" fill="#e8731a" transform="rotate(-50 328.0 531.0)">07-03</text>
<line x1="380.0" y1="516.0" x2="380.0" y2="519.0" stroke="#999"/>
<text x="380.0" y="531.0" text-anchor="end" fill="#e8731a" transform="rotate(-50 380.0 531.0)">07-06</text>
<line x1="432.0" y1="516.0" x2="432.0" y2="519.0" stroke="#999"/>
<text x="432.0" y="531.0" text-anchor="end" fill="#e8731a" transform="rotate(-50 432.0 531.0)">07-07</text>
<line x1="484.0" y1="516.0" x2="484.0" y2="519.0" stroke="#999"/>
<text x="484.0" y="531.0" text-anchor="end" fill="#e8731a" transform="rotate(-50 484.0 531.0)">07-08</text>
<line x1="536.0" y1="516.0" x2="536.0" y2="519.0" stroke="#999"/>
<text x="536.0" y="531.0" text-anchor="end" fill="#e8731a" transform="rotate(-50 536.0 531.0)">07-09</text>
<line x1="588.0" y1="516.0" x2="588.0" y2="519.0" stroke="#999"/>
<text x="588.0" y="531.0" text-anchor="end" fill="#e8731a" transform="rotate(-50 588.0 531.0)">07-10</text>
<line x1="640.0" y1="516.0" x2="640.0" y2="519.0" stroke="#999"/>
<text x="640.0" y="531.0" text-anchor="end" fill="#e8731a" transform="rotate(-50 640.0 531.0)">07-11</text>
<line x1="692.0" y1="516.0" x2="692.0" y2="519.0" stroke="#999"/>
<text x="692.0" y="531.0" text-anchor="end" fill="#e8731a" transform="rotate(-50 692.0 531.0)">07-14</text>
<line x1="744.0" y1="516.0" x2="744.0" y2="519.0" stroke="#999"/>
<text x="744.0" y="531.0" text-anchor="end" fill="#e8731a" transform="rotate(-50 744.0 531.0)">07-15</text>
<line x1="796.0" y1="516.0" x2="796.0" y2="519.0" stroke="#999"/>
<text x="796.0" y="531.0" text-anchor="end" fill="#e8731a" transform="rotate(-50 796.0 531.0)">07-15</text>
<line x1="848.0" y1="516.0" x2="848.0" y2="519.0" stroke="#999"/>
<text x="848.0" y="531.0" text-anchor="end" fill="#e8731a" transform="rotate(-50 848.0 531.0)">07-16</text>
<line x1="900.0" y1="516.0" x2="900.0" y2="519.0" stroke="#999"/>
<text x="900.0" y="531.0" text-anchor="end" fill="#e8731a" transform="rotate(-50 900.0 531.0)">07-17</text>
<line x1="952.0" y1="516.0" x2="952.0" y2="519.0" stroke="#999"/>
<text x="952.0" y="531.0" text-anchor="end" fill="#e8731a" transform="rotate(-50 952.0 531.0)">07-18</text>
<line x1="1004.0" y1="516.0" x2="1004.0" y2="519.0" stroke="#999"/>
<text x="1004.0" y="531.0" text-anchor="end" fill="#e8731a" transform="rotate(-50 1004.0 531.0)">07-19</text>
<line x1="1056.0" y1="516.0" x2="1056.0" y2="519.0" stroke="#999"/>
<text x="1056.0" y="531.0" text-anchor="end" fill="#e8731a" transform="rotate(-50 1056.0 531.0)">07-20</text>
<line x1="1108.0" y1="516.0" x2="1108.0" y2="519.0" stroke="#999"/>
<text x="1108.0" y="531.0" text-anchor="end" fill="#e8731a" transform="rotate(-50 1108.0 531.0)">07-21</text>
<polygon points="68.0,515.5 120.0,515.5 172.0,515.5 224.0,515.5 276.0,515.5 328.0,515.5 380.0,515.5 432.0,515.6 484.0,515.6 536.0,515.6 588.0,515.6 640.0,515.6 692.0,515.6 744.0,515.6 796.0,515.6 848.0,515.6 900.0,515.6 952.0,515.6 1004.0,515.6 1056.0,515.6 1108.0,515.6 1108.0,516.0 1056.0,516.0 1004.0,516.0 952.0,516.0 900.0,516.0 848.0,516.0 796.0,516.0 744.0,516.0 692.0,516.0 640.0,516.0 588.0,516.0 536.0,516.0 484.0,516.0 432.0,516.0 380.0,516.0 328.0,516.0 276.0,516.0 224.0,516.0 172.0,516.0 120.0,516.0 68.0,516.0" fill="#c7e9c0" fill-opacity="0.9" stroke="#fff" stroke-width="0.4"><title>emit_glsl — parseTranslationUnit</title></polygon>
<polygon points="68.0,496.3 120.0,499.4 172.0,498.7 224.0,499.4 276.0,499.3 328.0,499.6 380.0,499.5 432.0,500.1 484.0,499.7 536.0,500.1 588.0,500.5 640.0,499.8 692.0,499.8 744.0,501.0 796.0,501.1 848.0,499.1 900.0,499.0 952.0,502.2 1004.0,502.0 1056.0,502.3 1108.0,502.2 1108.0,515.6 1056.0,515.6 1004.0,515.6 952.0,515.6 900.0,515.6 848.0,515.6 796.0,515.6 744.0,515.6 692.0,515.6 640.0,515.6 588.0,515.6 536.0,515.6 484.0,515.6 432.0,515.6 380.0,515.5 328.0,515.5 276.0,515.5 224.0,515.5 172.0,515.5 120.0,515.5 68.0,515.5" fill="#41ab5d" fill-opacity="0.9" stroke="#fff" stroke-width="0.4"><title>emit_glsl — SemanticChecking</title></polygon>
<polygon points="68.0,487.0 120.0,491.9 172.0,491.0 224.0,491.7 276.0,491.6 328.0,492.1 380.0,491.9 432.0,493.0 484.0,491.7 536.0,492.5 588.0,496.1 640.0,495.4 692.0,495.5 744.0,496.6 796.0,496.8 848.0,494.9 900.0,494.8 952.0,498.7 1004.0,498.3 1056.0,498.6 1108.0,498.4 1108.0,502.2 1056.0,502.3 1004.0,502.0 952.0,502.2 900.0,499.0 848.0,499.1 796.0,501.1 744.0,501.0 692.0,499.8 640.0,499.8 588.0,500.5 536.0,500.1 484.0,499.7 432.0,500.1 380.0,499.5 328.0,499.6 276.0,499.3 224.0,499.4 172.0,498.7 120.0,499.4 68.0,496.3" fill="#006d2c" fill-opacity="0.9" stroke="#fff" stroke-width="0.4"><title>emit_glsl — generateIR</title></polygon>
<polygon points="68.0,486.4 120.0,491.6 172.0,490.8 224.0,491.4 276.0,491.2 328.0,492.1 380.0,491.9 432.0,492.8 484.0,491.5 536.0,492.1 588.0,495.9 640.0,495.1 692.0,495.4 744.0,496.5 796.0,496.6 848.0,494.7 900.0,494.6 952.0,498.5 1004.0,498.2 1056.0,498.5 1108.0,498.4 1108.0,498.4 1056.0,498.6 1004.0,498.3 952.0,498.7 900.0,494.8 848.0,494.9 796.0,496.8 744.0,496.6 692.0,495.5 640.0,495.4 588.0,496.1 536.0,492.5 484.0,491.7 432.0,493.0 380.0,491.9 328.0,492.1 276.0,491.6 224.0,491.7 172.0,491.0 120.0,491.9 68.0,487.0" fill="#74c476" fill-opacity="0.9" stroke="#fff" stroke-width="0.4"><title>emit_glsl — frontEndExecute (self)</title></polygon>
<polygon points="68.0,477.5 120.0,482.8 172.0,482.0 224.0,482.3 276.0,482.5 328.0,483.2 380.0,483.3 432.0,483.5 484.0,481.8 536.0,482.7 588.0,490.8 640.0,490.0 692.0,490.2 744.0,491.9 796.0,492.0 848.0,490.0 900.0,490.0 952.0,494.2 1004.0,493.9 1056.0,494.2 1108.0,494.0 1108.0,498.4 1056.0,498.5 1004.0,498.2 952.0,498.5 900.0,494.6 848.0,494.7 796.0,496.6 744.0,496.5 692.0,495.4 640.0,495.1 588.0,495.9 536.0,492.1 484.0,491.5 432.0,492.8 380.0,491.9 328.0,492.1 276.0,491.2 224.0,491.4 172.0,490.8 120.0,491.6 68.0,486.4" fill="#6baed6" fill-opacity="0.9" stroke="#fff" stroke-width="0.4"><title>emit_glsl — specializeModule</title></polygon>
<polygon points="68.0,446.5 120.0,456.0 172.0,454.1 224.0,454.1 276.0,455.0 328.0,455.2 380.0,457.0 432.0,457.1 484.0,454.8 536.0,456.0 588.0,486.1 640.0,485.3 692.0,485.4 744.0,487.1 796.0,487.2 848.0,485.3 900.0,485.2 952.0,489.5 1004.0,489.2 1056.0,489.5 1108.0,489.2 1108.0,494.0 1056.0,494.2 1004.0,493.9 952.0,494.2 900.0,490.0 848.0,490.0 796.0,492.0 744.0,491.9 692.0,490.2 640.0,490.0 588.0,490.8 536.0,482.7 484.0,481.8 432.0,483.5 380.0,483.3 328.0,483.2 276.0,482.5 224.0,482.3 172.0,482.0 120.0,482.8 68.0,477.5" fill="#2171b5" fill-opacity="0.9" stroke="#fff" stroke-width="0.4"><title>emit_glsl — simplifyIR</title></polygon>
<polygon points="68.0,445.8 120.0,455.5 172.0,453.5 224.0,453.5 276.0,454.5 328.0,454.7 380.0,456.5 432.0,456.7 484.0,454.3 536.0,455.5 588.0,485.6 640.0,484.7 692.0,484.8 744.0,486.6 796.0,486.7 848.0,484.8 900.0,484.7 952.0,489.1 1004.0,488.9 1056.0,489.1 1108.0,488.8 1108.0,489.2 1056.0,489.5 1004.0,489.2 952.0,489.5 900.0,485.2 848.0,485.3 796.0,487.2 744.0,487.1 692.0,485.4 640.0,485.3 588.0,486.1 536.0,456.0 484.0,454.8 432.0,457.1 380.0,457.0 328.0,455.2 276.0,455.0 224.0,454.1 172.0,454.1 120.0,456.0 68.0,446.5" fill="#08306b" fill-opacity="0.9" stroke="#fff" stroke-width="0.4"><title>emit_glsl — linkIR</title></polygon>
<polygon points="68.0,445.8 120.0,455.5 172.0,453.5 224.0,453.5 276.0,454.5 328.0,454.7 380.0,456.5 432.0,456.7 484.0,454.3 536.0,455.5 588.0,485.6 640.0,484.7 692.0,484.8 744.0,486.6 796.0,486.7 848.0,484.8 900.0,484.7 952.0,489.1 1004.0,488.9 1056.0,489.1 1108.0,488.8 1108.0,488.8 1056.0,489.1 1004.0,488.9 952.0,489.1 900.0,484.7 848.0,484.8 796.0,486.7 744.0,486.6 692.0,484.8 640.0,484.7 588.0,485.6 536.0,455.5 484.0,454.3 432.0,456.7 380.0,456.5 328.0,454.7 276.0,454.5 224.0,453.5 172.0,453.5 120.0,455.5 68.0,445.8" fill="#9e9ac8" fill-opacity="0.9" stroke="#fff" stroke-width="0.4"><title>emit_glsl — unrollLoopsInModule</title></polygon>
<polygon points="68.0,365.1 120.0,401.1 172.0,395.6 224.0,398.3 276.0,397.7 328.0,397.3 380.0,403.0 432.0,405.0 484.0,401.0 536.0,402.0 588.0,461.9 640.0,461.3 692.0,461.0 744.0,462.2 796.0,462.5 848.0,461.2 900.0,461.2 952.0,468.1 1004.0,466.6 1056.0,468.2 1108.0,467.5 1108.0,488.8 1056.0,489.1 1004.0,488.9 952.0,489.1 900.0,484.7 848.0,484.8 796.0,486.7 744.0,486.6 692.0,484.8 640.0,484.7 588.0,485.6 536.0,455.5 484.0,454.3 432.0,456.7 380.0,456.5 328.0,454.7 276.0,454.5 224.0,453.5 172.0,453.5 120.0,455.5 68.0,445.8" fill="#807dba" fill-opacity="0.9" stroke="#fff" stroke-width="0.4"><title>emit_glsl — legalizeResourceTypes</title></polygon>
<polygon points="68.0,301.4 120.0,346.3 172.0,339.7 224.0,340.5 276.0,343.1 328.0,337.9 380.0,348.7 432.0,351.9 484.0,348.2 536.0,347.3 588.0,437.8 640.0,437.5 692.0,436.8 744.0,437.9 796.0,438.4 848.0,437.4 900.0,437.7 952.0,446.8 1004.0,444.7 1056.0,446.9 1108.0,446.1 1108.0,467.5 1056.0,468.2 1004.0,466.6 952.0,468.1 900.0,461.2 848.0,461.2 796.0,462.5 744.0,462.2 692.0,461.0 640.0,461.3 588.0,461.9 536.0,402.0 484.0,401.0 432.0,405.0 380.0,403.0 328.0,397.3 276.0,397.7 224.0,398.3 172.0,395.6 120.0,401.1 68.0,365.1" fill="#6a51a3" fill-opacity="0.9" stroke="#fff" stroke-width="0.4"><title>emit_glsl — legalizeExistentialTypeLayout</title></polygon>
<polygon points="68.0,301.3 120.0,346.3 172.0,339.6 224.0,340.4 276.0,343.0 328.0,337.8 380.0,348.6 432.0,351.7 484.0,348.0 536.0,347.2 588.0,437.6 640.0,437.3 692.0,436.6 744.0,437.8 796.0,438.3 848.0,437.3 900.0,437.5 952.0,446.7 1004.0,444.6 1056.0,446.7 1108.0,446.0 1108.0,446.1 1056.0,446.9 1004.0,444.7 952.0,446.8 900.0,437.7 848.0,437.4 796.0,438.4 744.0,437.9 692.0,436.8 640.0,437.5 588.0,437.8 536.0,347.3 484.0,348.2 432.0,351.9 380.0,348.7 328.0,337.9 276.0,343.1 224.0,340.5 172.0,339.7 120.0,346.3 68.0,301.4" fill="#bcbddc" fill-opacity="0.9" stroke="#fff" stroke-width="0.4"><title>emit_glsl — performMandatoryEarlyInlining</title></polygon>
<polygon points="68.0,301.3 120.0,346.2 172.0,339.6 224.0,340.3 276.0,342.9 328.0,337.7 380.0,348.5 432.0,351.7 484.0,348.0 536.0,347.1 588.0,437.5 640.0,437.2 692.0,436.6 744.0,437.7 796.0,438.2 848.0,437.2 900.0,437.5 952.0,446.6 1004.0,444.5 1056.0,446.6 1108.0,445.9 1108.0,446.0 1056.0,446.7 1004.0,444.6 952.0,446.7 900.0,437.5 848.0,437.3 796.0,438.3 744.0,437.8 692.0,436.6 640.0,437.3 588.0,437.6 536.0,347.2 484.0,348.0 432.0,351.7 380.0,348.6 328.0,337.8 276.0,343.0 224.0,340.4 172.0,339.6 120.0,346.3 68.0,301.3" fill="#dadaeb" fill-opacity="0.9" stroke="#fff" stroke-width="0.4"><title>emit_glsl — performForceInlining</title></polygon>
<polygon points="68.0,108.6 120.0,194.7 172.0,182.0 224.0,183.2 276.0,188.4 328.0,176.7 380.0,199.3 432.0,204.5 484.0,198.4 536.0,196.0 588.0,372.9 640.0,373.1 692.0,371.3 744.0,372.8 796.0,373.9 848.0,374.0 900.0,374.3 952.0,389.8 1004.0,386.0 1056.0,390.2 1108.0,388.7 1108.0,445.9 1056.0,446.6 1004.0,444.5 952.0,446.6 900.0,437.5 848.0,437.2 796.0,438.2 744.0,437.7 692.0,436.6 640.0,437.2 588.0,437.5 536.0,347.1 484.0,348.0 432.0,351.7 380.0,348.5 328.0,337.7 276.0,342.9 224.0,340.3 172.0,339.6 120.0,346.2 68.0,301.3" fill="#fd8d3c" fill-opacity="0.9" stroke="#fff" stroke-width="0.4"><title>emit_glsl — emitEntryPointsSourceFromIR</title></polygon>
<polygon points="68.0,108.6 120.0,194.2 172.0,182.0 224.0,180.9 276.0,188.2 328.0,176.7 380.0,199.2 432.0,204.4 484.0,198.3 536.0,196.0 588.0,372.6 640.0,372.6 692.0,371.0 744.0,372.7 796.0,373.7 848.0,373.9 900.0,374.3 952.0,389.6 1004.0,385.9 1056.0,389.9 1108.0,388.7 1108.0,388.7 1056.0,390.2 1004.0,386.0 952.0,389.8 900.0,374.3 848.0,374.0 796.0,373.9 744.0,372.8 692.0,371.3 640.0,373.1 588.0,372.9 536.0,196.0 484.0,198.4 432.0,204.5 380.0,199.3 328.0,176.7 276.0,188.4 224.0,183.2 172.0,182.0 120.0,194.7 68.0,108.6" fill="#969696" fill-opacity="0.9" stroke="#fff" stroke-width="0.4"><title>emit_glsl — compileInner (self)</title></polygon>
<text x="12" y="578" fill="#666" font-weight="600">phase buckets</text>
<rect x="12" y="586" width="12" height="12" fill="#c7e9c0"/>
<text x="28" y="596" fill="#222">parseTranslationUnit</text>
<rect x="289" y="586" width="12" height="12" fill="#41ab5d"/>
<text x="305" y="596" fill="#222">SemanticChecking</text>
<rect x="566" y="586" width="12" height="12" fill="#006d2c"/>
<text x="582" y="596" fill="#222">generateIR</text>
<rect x="843" y="586" width="12" height="12" fill="#74c476"/>
<text x="859" y="596" fill="#222">frontEndExecute (self)</text>
<rect x="12" y="604" width="12" height="12" fill="#6baed6"/>
<text x="28" y="614" fill="#222">specializeModule</text>
<rect x="289" y="604" width="12" height="12" fill="#2171b5"/>
<text x="305" y="614" fill="#222">simplifyIR</text>
<rect x="566" y="604" width="12" height="12" fill="#08306b"/>
<text x="582" y="614" fill="#222">linkIR</text>
<rect x="843" y="604" width="12" height="12" fill="#9e9ac8"/>
<text x="859" y="614" fill="#222">unrollLoopsInModule</text>
<rect x="12" y="622" width="12" height="12" fill="#807dba"/>
<text x="28" y="632" fill="#222">legalizeResourceTypes</text>
<rect x="289" y="622" width="12" height="12" fill="#6a51a3"/>
<text x="305" y="632" fill="#222">legalizeExistentialTypeLayout</text>
<rect x="566" y="622" width="12" height="12" fill="#bcbddc"/>
<text x="582" y="632" fill="#222">performMandatoryEarlyInlining</text>
<rect x="843" y="622" width="12" height="12" fill="#dadaeb"/>
<text x="859" y="632" fill="#222">performForceInlining</text>
<rect x="12" y="640" width="12" height="12" fill="#4a1486"/>
<text x="28" y="650" fill="#222">linkAndOptimizeIR (self)</text>
<rect x="289" y="640" width="12" height="12" fill="#fd8d3c"/>
<text x="305" y="650" fill="#222">emitEntryPointsSourceFromIR</text>
<rect x="566" y="640" width="12" height="12" fill="#e6550d"/>
<text x="582" y="650" fill="#222">generateOutput (self)</text>
<rect x="843" y="640" width="12" height="12" fill="#969696"/>
<text x="859" y="650" fill="#222">compileInner (self)</text>
</svg>