<svg xmlns="http://www.w3.org/2000/svg" xmlns:xlink="http://www.w3.org/1999/xlink" width="1132" height="680" viewBox="0 0 1132 680" preserveAspectRatio="xMidYMid meet" font-family="sans-serif" font-size="13">
<rect width="1132" height="680" fill="white"/>
<text x="12" y="30" font-size="20" font-weight="bold">emit_metal — Daily tip-of-tree (last 30 days) (median ms)</text>
<text x="68" y="60" font-size="15" font-weight="600" fill="#1a1a1a">emit_metal<tspan fill="#888" font-weight="400" text-decoration="none">  0.28×</tspan></text>
<line x1="68.0" y1="516.0" x2="1108.0" y2="516.0" stroke="#eee"/>
<text x="64.0" y="519.0" text-anchor="end" fill="#999">0.0</text>
<line x1="68.0" y1="296.0" x2="1108.0" y2="296.0" stroke="#eee"/>
<text x="64.0" y="299.0" text-anchor="end" fill="#999">622</text>
<line x1="68.0" y1="76.0" x2="1108.0" y2="76.0" stroke="#eee"/>
<text x="64.0" y="79.0" text-anchor="end" fill="#999">1244</text>
<line x1="68.0" y1="76.0" x2="68.0" y2="516.0" stroke="#333"/>
<line x1="68.0" y1="516.0" x2="1108.0" y2="516.0" stroke="#333"/>
<line x1="68.0" y1="516.0" x2="68.0" y2="519.0" stroke="#999"/>
<text x="68.0" y="531.0" text-anchor="end" fill="#e8731a" transform="rotate(-50 68.0 531.0)">06-25</text>
<line x1="122.7" y1="516.0" x2="122.7" y2="519.0" stroke="#999"/>
<text x="122.7" y="531.0" text-anchor="end" fill="#e8731a" transform="rotate(-50 122.7 531.0)">06-26</text>
<line x1="177.5" y1="516.0" x2="177.5" y2="519.0" stroke="#999"/>
<text x="177.5" y="531.0" text-anchor="end" fill="#e8731a" transform="rotate(-50 177.5 531.0)">06-28</text>
<line x1="232.2" y1="516.0" x2="232.2" y2="519.0" stroke="#999"/>
<text x="232.2" y="531.0" text-anchor="end" fill="#e8731a" transform="rotate(-50 232.2 531.0)">07-01</text>
<line x1="286.9" y1="516.0" x2="286.9" y2="519.0" stroke="#999"/>
<text x="286.9" y="531.0" text-anchor="end" fill="#e8731a" transform="rotate(-50 286.9 531.0)">07-02</text>
<line x1="341.7" y1="516.0" x2="341.7" y2="519.0" stroke="#999"/>
<text x="341.7" y="531.0" text-anchor="end" fill="#e8731a" transform="rotate(-50 341.7 531.0)">07-03</text>
<line x1="396.4" y1="516.0" x2="396.4" y2="519.0" stroke="#999"/>
<text x="396.4" y="531.0" text-anchor="end" fill="#e8731a" transform="rotate(-50 396.4 531.0)">07-06</text>
<line x1="451.2" y1="516.0" x2="451.2" y2="519.0" stroke="#999"/>
<text x="451.2" y="531.0" text-anchor="end" fill="#e8731a" transform="rotate(-50 451.2 531.0)">07-07</text>
<line x1="505.9" y1="516.0" x2="505.9" y2="519.0" stroke="#999"/>
<text x="505.9" y="531.0" text-anchor="end" fill="#e8731a" transform="rotate(-50 505.9 531.0)">07-08</text>
<line x1="560.6" y1="516.0" x2="560.6" y2="519.0" stroke="#999"/>
<text x="560.6" y="531.0" text-anchor="end" fill="#e8731a" transform="rotate(-50 560.6 531.0)">07-09</text>
<line x1="615.4" y1="516.0" x2="615.4" y2="519.0" stroke="#999"/>
<text x="615.4" y="531.0" text-anchor="end" fill="#e8731a" transform="rotate(-50 615.4 531.0)">07-10</text>
<line x1="670.1" y1="516.0" x2="670.1" y2="519.0" stroke="#999"/>
<text x="670.1" y="531.0" text-anchor="end" fill="#e8731a" transform="rotate(-50 670.1 531.0)">07-11</text>
<line x1="724.8" y1="516.0" x2="724.8" y2="519.0" stroke="#999"/>
<text x="724.8" y="531.0" text-anchor="end" fill="#e8731a" transform="rotate(-50 724.8 531.0)">07-14</text>
<line x1="779.6" y1="516.0" x2="779.6" y2="519.0" stroke="#999"/>
<text x="779.6" y="531.0" text-anchor="end" fill="#e8731a" transform="rotate(-50 779.6 531.0)">07-15</text>
<line x1="834.3" y1="516.0" x2="834.3" y2="519.0" stroke="#999"/>
<text x="834.3" y="531.0" text-anchor="end" fill="#e8731a" transform="rotate(-50 834.3 531.0)">07-15</text>
<line x1="889.1" y1="516.0" x2="889.1" y2="519.0" stroke="#999"/>
<text x="889.1" y="531.0" text-anchor="end" fill="#e8731a" transform="rotate(-50 889.1 531.0)">07-16</text>
<line x1="943.8" y1="516.0" x2="943.8" y2="519.0" stroke="#999"/>
<text x="943.8" y="531.0" text-anchor="end" fill="#e8731a" transform="rotate(-50 943.8 531.0)">07-17</text>
<line x1="998.5" y1="516.0" x2="998.5" y2="519.0" stroke="#999"/>
<text x="998.5" y="531.0" text-anchor="end" fill="#e8731a" transform="rotate(-50 998.5 531.0)">07-18</text>
<line x1="1053.3" y1="516.0" x2="1053.3" y2="519.0" stroke="#999"/>
<text x="1053.3" y="531.0" text-anchor="end" fill="#e8731a" transform="rotate(-50 1053.3 531.0)">07-19</text>
<line x1="1108.0" y1="516.0" x2="1108.0" y2="519.0" stroke="#999"/>
<text x="1108.0" y="531.0" text-anchor="end" fill="#e8731a" transform="rotate(-50 1108.0 531.0)">07-20</text>
<polygon points="68.0,515.6 122.7,515.6 177.5,515.6 232.2,515.6 286.9,515.6 341.7,515.6 396.4,515.6 451.2,515.7 505.9,515.7 560.6,515.7 615.4,515.7 670.1,515.7 724.8,515.7 779.6,515.7 834.3,515.7 889.1,515.7 943.8,515.7 998.5,515.7 1053.3,515.7 1108.0,515.7 1108.0,516.0 1053.3,516.0 998.5,516.0 943.8,516.0 889.1,516.0 834.3,516.0 779.6,516.0 724.8,516.0 670.1,516.0 615.4,516.0 560.6,516.0 505.9,516.0 451.2,516.0 396.4,516.0 341.7,516.0 286.9,516.0 232.2,516.0 177.5,516.0 122.7,516.0 68.0,516.0" fill="#c7e9c0" fill-opacity="0.9" stroke="#fff" stroke-width="0.4"><title>emit_metal — parseTranslationUnit</title></polygon>
<polygon points="68.0,502.6 122.7,502.9 177.5,502.6 232.2,502.8 286.9,502.4 341.7,502.7 396.4,502.6 451.2,503.3 505.9,502.7 560.6,503.2 615.4,503.2 670.1,502.8 724.8,502.9 779.6,503.6 834.3,503.9 889.1,502.2 943.8,502.0 998.5,504.7 1053.3,504.8 1108.0,504.7 1108.0,515.7 1053.3,515.7 998.5,515.7 943.8,515.7 889.1,515.7 834.3,515.7 779.6,515.7 724.8,515.7 670.1,515.7 615.4,515.7 560.6,515.7 505.9,515.7 451.2,515.7 396.4,515.6 341.7,515.6 286.9,515.6 232.2,515.6 177.5,515.6 122.7,515.6 68.0,515.6" fill="#41ab5d" fill-opacity="0.9" stroke="#fff" stroke-width="0.4"><title>emit_metal — SemanticChecking</title></polygon>
<polygon points="68.0,496.2 122.7,497.0 177.5,496.5 232.2,496.9 286.9,496.5 341.7,496.9 396.4,496.7 451.2,497.5 505.9,496.6 560.6,497.3 615.4,499.6 670.1,499.2 724.8,499.4 779.6,500.1 834.3,500.4 889.1,498.7 943.8,498.6 998.5,501.7 1053.3,501.8 1108.0,501.7 1108.0,504.7 1053.3,504.8 998.5,504.7 943.8,502.0 889.1,502.2 834.3,503.9 779.6,503.6 724.8,502.9 670.1,502.8 615.4,503.2 560.6,503.2 505.9,502.7 451.2,503.3 396.4,502.6 341.7,502.7 286.9,502.4 232.2,502.8 177.5,502.6 122.7,502.9 68.0,502.6" fill="#006d2c" fill-opacity="0.9" stroke="#fff" stroke-width="0.4"><title>emit_metal — generateIR</title></polygon>
<polygon points="68.0,496.1 122.7,496.9 177.5,496.4 232.2,496.8 286.9,496.4 341.7,496.7 396.4,496.6 451.2,497.3 505.9,496.6 560.6,497.1 615.4,499.5 670.1,499.1 724.8,499.1 779.6,500.0 834.3,500.3 889.1,498.7 943.8,498.5 998.5,501.6 1053.3,501.7 1108.0,501.7 1108.0,501.7 1053.3,501.8 998.5,501.7 943.8,498.6 889.1,498.7 834.3,500.4 779.6,500.1 724.8,499.4 670.1,499.2 615.4,499.6 560.6,497.3 505.9,496.6 451.2,497.5 396.4,496.7 341.7,496.9 286.9,496.5 232.2,496.9 177.5,496.5 122.7,497.0 68.0,496.2" fill="#74c476" fill-opacity="0.9" stroke="#fff" stroke-width="0.4"><title>emit_metal — frontEndExecute (self)</title></polygon>
<polygon points="68.0,485.5 122.7,486.7 177.5,485.7 232.2,486.4 286.9,486.2 341.7,486.6 396.4,486.5 451.2,486.2 505.9,485.1 560.6,485.3 615.4,495.3 670.1,494.9 724.8,494.9 779.6,496.2 834.3,496.4 889.1,494.9 943.8,494.6 998.5,498.1 1053.3,498.2 1108.0,498.2 1108.0,501.7 1053.3,501.7 998.5,501.6 943.8,498.5 889.1,498.7 834.3,500.3 779.6,500.0 724.8,499.1 670.1,499.1 615.4,499.5 560.6,497.1 505.9,496.6 451.2,497.3 396.4,496.6 341.7,496.7 286.9,496.4 232.2,496.8 177.5,496.4 122.7,496.9 68.0,496.1" fill="#6baed6" fill-opacity="0.9" stroke="#fff" stroke-width="0.4"><title>emit_metal — specializeModule</title></polygon>
<polygon points="68.0,452.3 122.7,454.2 177.5,451.9 232.2,453.2 286.9,453.4 341.7,453.7 396.4,454.8 451.2,453.6 505.9,450.1 560.6,450.9 615.4,491.2 670.1,490.8 724.8,490.8 779.6,492.1 834.3,492.3 889.1,490.8 943.8,490.5 998.5,494.1 1053.3,494.1 1108.0,494.1 1108.0,498.2 1053.3,498.2 998.5,498.1 943.8,494.6 889.1,494.9 834.3,496.4 779.6,496.2 724.8,494.9 670.1,494.9 615.4,495.3 560.6,485.3 505.9,485.1 451.2,486.2 396.4,486.5 341.7,486.6 286.9,486.2 232.2,486.4 177.5,485.7 122.7,486.7 68.0,485.5" fill="#2171b5" fill-opacity="0.9" stroke="#fff" stroke-width="0.4"><title>emit_metal — simplifyIR</title></polygon>
<polygon points="68.0,451.6 122.7,453.6 177.5,451.3 232.2,452.5 286.9,452.8 341.7,453.1 396.4,454.2 451.2,453.1 505.9,449.5 560.6,450.4 615.4,490.7 670.1,490.4 724.8,490.3 779.6,491.7 834.3,491.9 889.1,490.4 943.8,490.1 998.5,493.8 1053.3,493.8 1108.0,493.7 1108.0,494.1 1053.3,494.1 998.5,494.1 943.8,490.5 889.1,490.8 834.3,492.3 779.6,492.1 724.8,490.8 670.1,490.8 615.4,491.2 560.6,450.9 505.9,450.1 451.2,453.6 396.4,454.8 341.7,453.7 286.9,453.4 232.2,453.2 177.5,451.9 122.7,454.2 68.0,452.3" fill="#08306b" fill-opacity="0.9" stroke="#fff" stroke-width="0.4"><title>emit_metal — linkIR</title></polygon>
<polygon points="68.0,451.6 122.7,453.6 177.5,451.2 232.2,452.5 286.9,452.8 341.7,453.1 396.4,454.2 451.2,453.1 505.9,449.5 560.6,450.4 615.4,490.7 670.1,490.4 724.8,490.3 779.6,491.7 834.3,491.9 889.1,490.4 943.8,490.1 998.5,493.8 1053.3,493.8 1108.0,493.7 1108.0,493.7 1053.3,493.8 998.5,493.8 943.8,490.1 889.1,490.4 834.3,491.9 779.6,491.7 724.8,490.3 670.1,490.4 615.4,490.7 560.6,450.4 505.9,449.5 451.2,453.1 396.4,454.2 341.7,453.1 286.9,452.8 232.2,452.5 177.5,451.3 122.7,453.6 68.0,451.6" fill="#9e9ac8" fill-opacity="0.9" stroke="#fff" stroke-width="0.4"><title>emit_metal — unrollLoopsInModule</title></polygon>
<polygon points="68.0,386.7 122.7,389.7 177.5,387.1 232.2,389.1 286.9,389.8 341.7,391.2 396.4,391.2 451.2,391.7 505.9,374.4 560.6,380.4 615.4,471.2 670.1,470.9 724.8,471.2 779.6,471.9 834.3,472.0 889.1,471.4 943.8,470.8 998.5,476.5 1053.3,475.9 1108.0,476.0 1108.0,493.7 1053.3,493.8 998.5,493.8 943.8,490.1 889.1,490.4 834.3,491.9 779.6,491.7 724.8,490.3 670.1,490.4 615.4,490.7 560.6,450.4 505.9,449.5 451.2,453.1 396.4,454.2 341.7,453.1 286.9,452.8 232.2,452.5 177.5,451.2 122.7,453.6 68.0,451.6" fill="#807dba" fill-opacity="0.9" stroke="#fff" stroke-width="0.4"><title>emit_metal — legalizeResourceTypes</title></polygon>
<polygon points="68.0,321.6 122.7,325.1 177.5,321.9 232.2,325.4 286.9,325.7 341.7,327.6 396.4,327.4 451.2,328.8 505.9,307.7 560.6,314.0 615.4,451.6 670.1,451.1 724.8,451.7 779.6,452.0 834.3,451.9 889.1,452.3 943.8,451.4 998.5,458.8 1053.3,457.5 1108.0,458.1 1108.0,476.0 1053.3,475.9 998.5,476.5 943.8,470.8 889.1,471.4 834.3,472.0 779.6,471.9 724.8,471.2 670.1,470.9 615.4,471.2 560.6,380.4 505.9,374.4 451.2,391.7 396.4,391.2 341.7,391.2 286.9,389.8 232.2,389.1 177.5,387.1 122.7,389.7 68.0,386.7" fill="#6a51a3" fill-opacity="0.9" stroke="#fff" stroke-width="0.4"><title>emit_metal — legalizeExistentialTypeLayout</title></polygon>
<polygon points="68.0,321.4 122.7,325.0 177.5,321.8 232.2,325.3 286.9,325.6 341.7,327.5 396.4,327.2 451.2,328.7 505.9,307.5 560.6,313.9 615.4,451.4 670.1,451.0 724.8,451.6 779.6,451.9 834.3,451.7 889.1,452.2 943.8,451.2 998.5,458.7 1053.3,457.4 1108.0,458.0 1108.0,458.1 1053.3,457.5 998.5,458.8 943.8,451.4 889.1,452.3 834.3,451.9 779.6,452.0 724.8,451.7 670.1,451.1 615.4,451.6 560.6,314.0 505.9,307.7 451.2,328.8 396.4,327.4 341.7,327.6 286.9,325.7 232.2,325.4 177.5,321.9 122.7,325.1 68.0,321.6" fill="#bcbddc" fill-opacity="0.9" stroke="#fff" stroke-width="0.4"><title>emit_metal — performMandatoryEarlyInlining</title></polygon>
<polygon points="68.0,321.3 122.7,324.9 177.5,321.7 232.2,325.2 286.9,325.5 341.7,327.3 396.4,327.1 451.2,328.6 505.9,307.4 560.6,313.7 615.4,451.3 670.1,450.9 724.8,451.5 779.6,451.8 834.3,451.6 889.1,452.0 943.8,451.1 998.5,458.6 1053.3,457.3 1108.0,457.9 1108.0,458.0 1053.3,457.4 998.5,458.7 943.8,451.2 889.1,452.2 834.3,451.7 779.6,451.9 724.8,451.6 670.1,451.0 615.4,451.4 560.6,313.9 505.9,307.5 451.2,328.7 396.4,327.2 341.7,327.5 286.9,325.6 232.2,325.3 177.5,321.8 122.7,325.0 68.0,321.4" fill="#dadaeb" fill-opacity="0.9" stroke="#fff" stroke-width="0.4"><title>emit_metal — performForceInlining</title></polygon>
<polygon points="68.0,141.8 122.7,148.1 177.5,142.0 232.2,148.7 286.9,149.8 341.7,153.2 396.4,152.8 451.2,155.0 505.9,113.3 560.6,125.6 615.4,398.2 670.1,397.7 724.8,398.9 779.6,398.9 834.3,398.2 889.1,400.7 943.8,399.0 998.5,411.9 1053.3,409.4 1108.0,410.4 1108.0,457.9 1053.3,457.3 998.5,458.6 943.8,451.1 889.1,452.0 834.3,451.6 779.6,451.8 724.8,451.5 670.1,450.9 615.4,451.3 560.6,313.7 505.9,307.4 451.2,328.6 396.4,327.1 341.7,327.3 286.9,325.5 232.2,325.2 177.5,321.7 122.7,324.9 68.0,321.3" fill="#fd8d3c" fill-opacity="0.9" stroke="#fff" stroke-width="0.4"><title>emit_metal — emitEntryPointsSourceFromIR</title></polygon>
<polygon points="68.0,141.7 122.7,148.1 177.5,141.5 232.2,148.6 286.9,149.4 341.7,153.1 396.4,152.8 451.2,154.9 505.9,108.6 560.6,125.6 615.4,398.2 670.1,397.4 724.8,398.7 779.6,398.9 834.3,398.1 889.1,400.7 943.8,399.0 998.5,411.9 1053.3,409.4 1108.0,410.2 1108.0,410.4 1053.3,409.4 998.5,411.9 943.8,399.0 889.1,400.7 834.3,398.2 779.6,398.9 724.8,398.9 670.1,397.7 615.4,398.2 560.6,125.6 505.9,113.3 451.2,155.0 396.4,152.8 341.7,153.2 286.9,149.8 232.2,148.7 177.5,142.0 122.7,148.1 68.0,141.8" fill="#969696" fill-opacity="0.9" stroke="#fff" stroke-width="0.4"><title>emit_metal — compileInner (self)</title></polygon>
<text x="12" y="578" fill="#666" font-weight="600">phase buckets</text>
<rect x="12" y="586" width="12" height="12" fill="#c7e9c0"/>
<text x="28" y="596" fill="#222">parseTranslationUnit</text>
<rect x="289" y="586" width="12" height="12" fill="#41ab5d"/>
<text x="305" y="596" fill="#222">SemanticChecking</text>
<rect x="566" y="586" width="12" height="12" fill="#006d2c"/>
<text x="582" y="596" fill="#222">generateIR</text>
<rect x="843" y="586" width="12" height="12" fill="#74c476"/>
<text x="859" y="596" fill="#222">frontEndExecute (self)</text>
<rect x="12" y="604" width="12" height="12" fill="#6baed6"/>
<text x="28" y="614" fill="#222">specializeModule</text>
<rect x="289" y="604" width="12" height="12" fill="#2171b5"/>
<text x="305" y="614" fill="#222">simplifyIR</text>
<rect x="566" y="604" width="12" height="12" fill="#08306b"/>
<text x="582" y="614" fill="#222">linkIR</text>
<rect x="843" y="604" width="12" height="12" fill="#9e9ac8"/>
<text x="859" y="614" fill="#222">unrollLoopsInModule</text>
<rect x="12" y="622" width="12" height="12" fill="#807dba"/>
<text x="28" y="632" fill="#222">legalizeResourceTypes</text>
<rect x="289" y="622" width="12" height="12" fill="#6a51a3"/>
<text x="305" y="632" fill="#222">legalizeExistentialTypeLayout</text>
<rect x="566" y="622" width="12" height="12" fill="#bcbddc"/>
<text x="582" y="632" fill="#222">performMandatoryEarlyInlining</text>
<rect x="843" y="622" width="12" height="12" fill="#dadaeb"/>
<text x="859" y="632" fill="#222">performForceInlining</text>
<rect x="12" y="640" width="12" height="12" fill="#4a1486"/>
<text x="28" y="650" fill="#222">linkAndOptimizeIR (self)</text>
<rect x="289" y="640" width="12" height="12" fill="#fd8d3c"/>
<text x="305" y="650" fill="#222">emitEntryPointsSourceFromIR</text>
<rect x="566" y="640" width="12" height="12" fill="#e6550d"/>
<text x="582" y="650" fill="#222">generateOutput (self)</text>
<rect x="843" y="640" width="12" height="12" fill="#969696"/>
<text x="859" y="650" fill="#222">compileInner (self)</text>
</svg>