<svg xmlns="http://www.w3.org/2000/svg" xmlns:xlink="http://www.w3.org/1999/xlink" width="1132" height="680" viewBox="0 0 1132 680" preserveAspectRatio="xMidYMid meet" font-family="sans-serif" font-size="13">
<rect width="1132" height="680" fill="white"/>
<text x="12" y="30" font-size="20" font-weight="bold">emit_hlsl — Daily tip-of-tree (last 30 days) (median ms)</text>
<text x="68" y="60" font-size="15" font-weight="600" fill="#1a1a1a">emit_hlsl<tspan fill="#888" font-weight="400" text-decoration="none">  0.36×</tspan></text>
<line x1="68.0" y1="516.0" x2="1108.0" y2="516.0" stroke="#eee"/>
<text x="64.0" y="519.0" text-anchor="end" fill="#999">0.0</text>
<line x1="68.0" y1="296.0" x2="1108.0" y2="296.0" stroke="#eee"/>
<text x="64.0" y="299.0" text-anchor="end" fill="#999">493</text>
<line x1="68.0" y1="76.0" x2="1108.0" y2="76.0" stroke="#eee"/>
<text x="64.0" y="79.0" text-anchor="end" fill="#999">987</text>
<line x1="68.0" y1="76.0" x2="68.0" y2="516.0" stroke="#333"/>
<line x1="68.0" y1="516.0" x2="1108.0" y2="516.0" stroke="#333"/>
<line x1="68.0" y1="516.0" x2="68.0" y2="519.0" stroke="#999"/>
<text x="68.0" y="531.0" text-anchor="end" fill="#e8731a" transform="rotate(-50 68.0 531.0)">06-25</text>
<line x1="117.5" y1="516.0" x2="117.5" y2="519.0" stroke="#999"/>
<text x="117.5" y="531.0" text-anchor="end" fill="#e8731a" transform="rotate(-50 117.5 531.0)">06-26</text>
<line x1="167.0" y1="516.0" x2="167.0" y2="519.0" stroke="#999"/>
<text x="167.0" y="531.0" text-anchor="end" fill="#e8731a" transform="rotate(-50 167.0 531.0)">06-28</text>
<line x1="216.6" y1="516.0" x2="216.6" y2="519.0" stroke="#999"/>
<text x="216.6" y="531.0" text-anchor="end" fill="#e8731a" transform="rotate(-50 216.6 531.0)">07-01</text>
<line x1="266.1" y1="516.0" x2="266.1" y2="519.0" stroke="#999"/>
<text x="266.1" y="531.0" text-anchor="end" fill="#e8731a" transform="rotate(-50 266.1 531.0)">07-02</text>
<line x1="315.6" y1="516.0" x2="315.6" y2="519.0" stroke="#999"/>
<text x="315.6" y="531.0" text-anchor="end" fill="#e8731a" transform="rotate(-50 315.6 531.0)">07-03</text>
<line x1="365.1" y1="516.0" x2="365.1" y2="519.0" stroke="#999"/>
<text x="365.1" y="531.0" text-anchor="end" fill="#e8731a" transform="rotate(-50 365.1 531.0)">07-06</text>
<line x1="414.7" y1="516.0" x2="414.7" y2="519.0" stroke="#999"/>
<text x="414.7" y="531.0" text-anchor="end" fill="#e8731a" transform="rotate(-50 414.7 531.0)">07-07</text>
<line x1="464.2" y1="516.0" x2="464.2" y2="519.0" stroke="#999"/>
<text x="464.2" y="531.0" text-anchor="end" fill="#e8731a" transform="rotate(-50 464.2 531.0)">07-08</text>
<line x1="513.7" y1="516.0" x2="513.7" y2="519.0" stroke="#999"/>
<text x="513.7" y="531.0" text-anchor="end" fill="#e8731a" transform="rotate(-50 513.7 531.0)">07-09</text>
<line x1="563.2" y1="516.0" x2="563.2" y2="519.0" stroke="#999"/>
<text x="563.2" y="531.0" text-anchor="end" fill="#e8731a" transform="rotate(-50 563.2 531.0)">07-10</text>
<line x1="612.8" y1="516.0" x2="612.8" y2="519.0" stroke="#999"/>
<text x="612.8" y="531.0" text-anchor="end" fill="#e8731a" transform="rotate(-50 612.8 531.0)">07-11</text>
<line x1="662.3" y1="516.0" x2="662.3" y2="519.0" stroke="#999"/>
<text x="662.3" y="531.0" text-anchor="end" fill="#e8731a" transform="rotate(-50 662.3 531.0)">07-14</text>
<line x1="711.8" y1="516.0" x2="711.8" y2="519.0" stroke="#999"/>
<text x="711.8" y="531.0" text-anchor="end" fill="#e8731a" transform="rotate(-50 711.8 531.0)">07-15</text>
<line x1="761.3" y1="516.0" x2="761.3" y2="519.0" stroke="#999"/>
<text x="761.3" y="531.0" text-anchor="end" fill="#e8731a" transform="rotate(-50 761.3 531.0)">07-15</text>
<line x1="810.9" y1="516.0" x2="810.9" y2="519.0" stroke="#999"/>
<text x="810.9" y="531.0" text-anchor="end" fill="#e8731a" transform="rotate(-50 810.9 531.0)">07-16</text>
<line x1="860.4" y1="516.0" x2="860.4" y2="519.0" stroke="#999"/>
<text x="860.4" y="531.0" text-anchor="end" fill="#e8731a" transform="rotate(-50 860.4 531.0)">07-17</text>
<line x1="909.9" y1="516.0" x2="909.9" y2="519.0" stroke="#999"/>
<text x="909.9" y="531.0" text-anchor="end" fill="#e8731a" transform="rotate(-50 909.9 531.0)">07-18</text>
<line x1="959.4" y1="516.0" x2="959.4" y2="519.0" stroke="#999"/>
<text x="959.4" y="531.0" text-anchor="end" fill="#e8731a" transform="rotate(-50 959.4 531.0)">07-19</text>
<line x1="1009.0" y1="516.0" x2="1009.0" y2="519.0" stroke="#999"/>
<text x="1009.0" y="531.0" text-anchor="end" fill="#e8731a" transform="rotate(-50 1009.0 531.0)">07-20</text>
<line x1="1058.5" y1="516.0" x2="1058.5" y2="519.0" stroke="#999"/>
<text x="1058.5" y="531.0" text-anchor="end" fill="#e8731a" transform="rotate(-50 1058.5 531.0)">07-21</text>
<line x1="1108.0" y1="516.0" x2="1108.0" y2="519.0" stroke="#999"/>
<text x="1108.0" y="531.0" text-anchor="end" fill="#e8731a" transform="rotate(-50 1108.0 531.0)">07-22</text>
<polygon points="68.0,515.5 117.5,515.5 167.0,515.5 216.6,515.5 266.1,515.5 315.6,515.5 365.1,515.5 414.7,515.6 464.2,515.6 513.7,515.6 563.2,515.6 612.8,515.6 662.3,515.6 711.8,515.6 761.3,515.6 810.9,515.6 860.4,515.6 909.9,515.6 959.4,515.6 1009.0,515.6 1058.5,515.6 1108.0,515.6 1108.0,516.0 1058.5,516.0 1009.0,516.0 959.4,516.0 909.9,516.0 860.4,516.0 810.9,516.0 761.3,516.0 711.8,516.0 662.3,516.0 612.8,516.0 563.2,516.0 513.7,516.0 464.2,516.0 414.7,516.0 365.1,516.0 315.6,516.0 266.1,516.0 216.6,516.0 167.0,516.0 117.5,516.0 68.0,516.0" fill="#c7e9c0" fill-opacity="0.9" stroke="#fff" stroke-width="0.4"><title>emit_hlsl — parseTranslationUnit</title></polygon>
<polygon points="68.0,499.0 117.5,498.5 167.0,498.2 216.6,499.5 266.1,498.2 315.6,499.3 365.1,499.2 414.7,499.8 464.2,499.7 513.7,499.6 563.2,499.5 612.8,499.4 662.3,499.1 711.8,500.6 761.3,500.8 810.9,498.6 860.4,498.6 909.9,501.7 959.4,501.7 1009.0,501.9 1058.5,501.9 1108.0,501.6 1108.0,515.6 1058.5,515.6 1009.0,515.6 959.4,515.6 909.9,515.6 860.4,515.6 810.9,515.6 761.3,515.6 711.8,515.6 662.3,515.6 612.8,515.6 563.2,515.6 513.7,515.6 464.2,515.6 414.7,515.6 365.1,515.5 315.6,515.5 266.1,515.5 216.6,515.5 167.0,515.5 117.5,515.5 68.0,515.5" fill="#41ab5d" fill-opacity="0.9" stroke="#fff" stroke-width="0.4"><title>emit_hlsl — SemanticChecking</title></polygon>
<polygon points="68.0,491.1 117.5,490.9 167.0,490.4 216.6,492.1 266.1,490.2 315.6,492.0 365.1,491.9 414.7,492.4 464.2,491.7 513.7,492.1 563.2,495.0 612.8,494.9 662.3,494.7 711.8,496.2 761.3,496.4 810.9,494.4 860.4,494.4 909.9,498.0 959.4,497.9 1009.0,498.2 1058.5,498.1 1108.0,497.9 1108.0,501.6 1058.5,501.9 1009.0,501.9 959.4,501.7 909.9,501.7 860.4,498.6 810.9,498.6 761.3,500.8 711.8,500.6 662.3,499.1 612.8,499.4 563.2,499.5 513.7,499.6 464.2,499.7 414.7,499.8 365.1,499.2 315.6,499.3 266.1,498.2 216.6,499.5 167.0,498.2 117.5,498.5 68.0,499.0" fill="#006d2c" fill-opacity="0.9" stroke="#fff" stroke-width="0.4"><title>emit_hlsl — generateIR</title></polygon>
<polygon points="68.0,491.0 117.5,490.5 167.0,490.2 216.6,491.8 266.1,490.2 315.6,491.9 365.1,491.7 414.7,492.2 464.2,491.4 513.7,491.9 563.2,494.8 612.8,494.7 662.3,494.0 711.8,496.0 761.3,496.2 810.9,494.3 860.4,494.3 909.9,497.9 959.4,497.7 1009.0,498.1 1058.5,498.0 1108.0,497.8 1108.0,497.9 1058.5,498.1 1009.0,498.2 959.4,497.9 909.9,498.0 860.4,494.4 810.9,494.4 761.3,496.4 711.8,496.2 662.3,494.7 612.8,494.9 563.2,495.0 513.7,492.1 464.2,491.7 414.7,492.4 365.1,491.9 315.6,492.0 266.1,490.2 216.6,492.1 167.0,490.4 117.5,490.9 68.0,491.1" fill="#74c476" fill-opacity="0.9" stroke="#fff" stroke-width="0.4"><title>emit_hlsl — frontEndExecute (self)</title></polygon>
<polygon points="68.0,480.8 117.5,479.8 167.0,479.5 216.6,481.5 266.1,479.4 315.6,481.8 365.1,481.7 414.7,481.1 464.2,479.3 513.7,480.7 563.2,489.7 612.8,489.5 662.3,488.8 711.8,491.3 761.3,491.4 810.9,489.4 860.4,489.5 909.9,493.5 959.4,493.3 1009.0,493.7 1058.5,493.6 1108.0,493.4 1108.0,497.8 1058.5,498.0 1009.0,498.1 959.4,497.7 909.9,497.9 860.4,494.3 810.9,494.3 761.3,496.2 711.8,496.0 662.3,494.0 612.8,494.7 563.2,494.8 513.7,491.9 464.2,491.4 414.7,492.2 365.1,491.7 315.6,491.9 266.1,490.2 216.6,491.8 167.0,490.2 117.5,490.5 68.0,491.0" fill="#6baed6" fill-opacity="0.9" stroke="#fff" stroke-width="0.4"><title>emit_hlsl — specializeModule</title></polygon>
<polygon points="68.0,452.9 117.5,450.9 167.0,449.6 216.6,452.9 266.1,449.1 315.6,454.1 365.1,454.7 414.7,453.6 464.2,449.4 513.7,452.2 563.2,485.4 612.8,485.2 662.3,484.5 711.8,486.9 761.3,487.0 810.9,485.1 860.4,485.3 909.9,489.2 959.4,489.1 1009.0,489.5 1058.5,489.4 1108.0,489.2 1108.0,493.4 1058.5,493.6 1009.0,493.7 959.4,493.3 909.9,493.5 860.4,489.5 810.9,489.4 761.3,491.4 711.8,491.3 662.3,488.8 612.8,489.5 563.2,489.7 513.7,480.7 464.2,479.3 414.7,481.1 365.1,481.7 315.6,481.8 266.1,479.4 216.6,481.5 167.0,479.5 117.5,479.8 68.0,480.8" fill="#2171b5" fill-opacity="0.9" stroke="#fff" stroke-width="0.4"><title>emit_hlsl — simplifyIR</title></polygon>
<polygon points="68.0,452.3 117.5,450.2 167.0,448.9 216.6,452.3 266.1,448.5 315.6,453.5 365.1,454.1 414.7,453.0 464.2,448.9 513.7,451.7 563.2,484.8 612.8,484.7 662.3,483.9 711.8,486.4 761.3,486.5 810.9,484.6 860.4,484.8 909.9,488.8 959.4,488.7 1009.0,489.1 1058.5,489.0 1108.0,488.8 1108.0,489.2 1058.5,489.4 1009.0,489.5 959.4,489.1 909.9,489.2 860.4,485.3 810.9,485.1 761.3,487.0 711.8,486.9 662.3,484.5 612.8,485.2 563.2,485.4 513.7,452.2 464.2,449.4 414.7,453.6 365.1,454.7 315.6,454.1 266.1,449.1 216.6,452.9 167.0,449.6 117.5,450.9 68.0,452.9" fill="#08306b" fill-opacity="0.9" stroke="#fff" stroke-width="0.4"><title>emit_hlsl — linkIR</title></polygon>
<polygon points="68.0,452.3 117.5,450.2 167.0,448.9 216.6,452.3 266.1,448.5 315.6,453.5 365.1,454.1 414.7,453.0 464.2,448.9 513.7,451.7 563.2,484.8 612.8,484.7 662.3,483.9 711.8,486.4 761.3,486.5 810.9,484.6 860.4,484.8 909.9,488.8 959.4,488.7 1009.0,489.0 1058.5,489.0 1108.0,488.8 1108.0,488.8 1058.5,489.0 1009.0,489.1 959.4,488.7 909.9,488.8 860.4,484.8 810.9,484.6 761.3,486.5 711.8,486.4 662.3,483.9 612.8,484.7 563.2,484.8 513.7,451.7 464.2,448.9 414.7,453.0 365.1,454.1 315.6,453.5 266.1,448.5 216.6,452.3 167.0,448.9 117.5,450.2 68.0,452.3" fill="#9e9ac8" fill-opacity="0.9" stroke="#fff" stroke-width="0.4"><title>emit_hlsl — unrollLoopsInModule</title></polygon>
<polygon points="68.0,388.8 117.5,385.4 167.0,373.1 216.6,389.2 266.1,382.7 315.6,391.7 365.1,391.0 414.7,390.9 464.2,383.6 513.7,388.7 563.2,461.1 612.8,460.9 662.3,460.4 711.8,462.1 761.3,461.8 810.9,460.7 860.4,461.3 909.9,466.7 959.4,466.6 1009.0,467.7 1058.5,467.4 1108.0,467.1 1108.0,488.8 1058.5,489.0 1009.0,489.0 959.4,488.7 909.9,488.8 860.4,484.8 810.9,484.6 761.3,486.5 711.8,486.4 662.3,483.9 612.8,484.7 563.2,484.8 513.7,451.7 464.2,448.9 414.7,453.0 365.1,454.1 315.6,453.5 266.1,448.5 216.6,452.3 167.0,448.9 117.5,450.2 68.0,452.3" fill="#807dba" fill-opacity="0.9" stroke="#fff" stroke-width="0.4"><title>emit_hlsl — legalizeResourceTypes</title></polygon>
<polygon points="68.0,324.6 117.5,319.1 167.0,304.4 216.6,325.0 266.1,316.3 315.6,328.1 365.1,327.5 414.7,328.7 464.2,315.8 513.7,325.9 563.2,436.8 612.8,436.7 662.3,436.0 711.8,437.7 761.3,437.0 810.9,436.6 860.4,437.4 909.9,444.9 959.4,444.5 1009.0,445.9 1058.5,445.3 1108.0,445.0 1108.0,467.1 1058.5,467.4 1009.0,467.7 959.4,466.6 909.9,466.7 860.4,461.3 810.9,460.7 761.3,461.8 711.8,462.1 662.3,460.4 612.8,460.9 563.2,461.1 513.7,388.7 464.2,383.6 414.7,390.9 365.1,391.0 315.6,391.7 266.1,382.7 216.6,389.2 167.0,373.1 117.5,385.4 68.0,388.8" fill="#6a51a3" fill-opacity="0.9" stroke="#fff" stroke-width="0.4"><title>emit_hlsl — legalizeExistentialTypeLayout</title></polygon>
<polygon points="68.0,324.5 117.5,319.0 167.0,304.2 216.6,324.9 266.1,316.1 315.6,328.0 365.1,327.4 414.7,328.5 464.2,315.6 513.7,325.8 563.2,436.6 612.8,436.5 662.3,435.9 711.8,437.5 761.3,436.9 810.9,436.4 860.4,437.3 909.9,444.7 959.4,444.3 1009.0,445.7 1058.5,445.1 1108.0,444.8 1108.0,445.0 1058.5,445.3 1009.0,445.9 959.4,444.5 909.9,444.9 860.4,437.4 810.9,436.6 761.3,437.0 711.8,437.7 662.3,436.0 612.8,436.7 563.2,436.8 513.7,325.9 464.2,315.8 414.7,328.7 365.1,327.5 315.6,328.1 266.1,316.3 216.6,325.0 167.0,304.4 117.5,319.1 68.0,324.6" fill="#bcbddc" fill-opacity="0.9" stroke="#fff" stroke-width="0.4"><title>emit_hlsl — performMandatoryEarlyInlining</title></polygon>
<polygon points="68.0,324.4 117.5,318.9 167.0,304.2 216.6,324.8 266.1,316.1 315.6,327.9 365.1,327.3 414.7,328.5 464.2,315.5 513.7,325.7 563.2,436.6 612.8,436.5 662.3,435.8 711.8,437.4 761.3,436.8 810.9,436.3 860.4,437.2 909.9,444.6 959.4,444.2 1009.0,445.7 1058.5,445.0 1108.0,444.7 1108.0,444.8 1058.5,445.1 1009.0,445.7 959.4,444.3 909.9,444.7 860.4,437.3 810.9,436.4 761.3,436.9 711.8,437.5 662.3,435.9 612.8,436.5 563.2,436.6 513.7,325.8 464.2,315.6 414.7,328.5 365.1,327.4 315.6,328.0 266.1,316.1 216.6,324.9 167.0,304.2 117.5,319.0 68.0,324.5" fill="#dadaeb" fill-opacity="0.9" stroke="#fff" stroke-width="0.4"><title>emit_hlsl — performForceInlining</title></polygon>
<polygon points="68.0,151.9 117.5,141.1 167.0,111.8 216.6,151.6 266.1,135.8 315.6,157.9 365.1,157.0 414.7,158.6 464.2,132.8 513.7,153.3 563.2,372.0 612.8,371.7 662.3,371.1 711.8,372.8 761.3,371.4 810.9,372.2 860.4,374.1 909.9,386.5 959.4,386.1 1009.0,388.0 1058.5,387.3 1108.0,387.0 1108.0,444.7 1058.5,445.0 1009.0,445.7 959.4,444.2 909.9,444.6 860.4,437.2 810.9,436.3 761.3,436.8 711.8,437.4 662.3,435.8 612.8,436.5 563.2,436.6 513.7,325.7 464.2,315.5 414.7,328.5 365.1,327.3 315.6,327.9 266.1,316.1 216.6,324.8 167.0,304.2 117.5,318.9 68.0,324.4" fill="#fd8d3c" fill-opacity="0.9" stroke="#fff" stroke-width="0.4"><title>emit_hlsl — emitEntryPointsSourceFromIR</title></polygon>
<polygon points="68.0,151.9 117.5,140.8 167.0,108.6 216.6,151.6 266.1,135.8 315.6,157.9 365.1,156.9 414.7,158.4 464.2,132.8 513.7,150.5 563.2,371.4 612.8,371.7 662.3,370.7 711.8,372.7 761.3,371.4 810.9,372.2 860.4,374.0 909.9,386.3 959.4,385.7 1009.0,388.0 1058.5,387.3 1108.0,386.7 1108.0,387.0 1058.5,387.3 1009.0,388.0 959.4,386.1 909.9,386.5 860.4,374.1 810.9,372.2 761.3,371.4 711.8,372.8 662.3,371.1 612.8,371.7 563.2,372.0 513.7,153.3 464.2,132.8 414.7,158.6 365.1,157.0 315.6,157.9 266.1,135.8 216.6,151.6 167.0,111.8 117.5,141.1 68.0,151.9" fill="#969696" fill-opacity="0.9" stroke="#fff" stroke-width="0.4"><title>emit_hlsl — compileInner (self)</title></polygon>
<text x="12" y="578" fill="#666" font-weight="600">phase buckets</text>
<rect x="12" y="586" width="12" height="12" fill="#c7e9c0"/>
<text x="28" y="596" fill="#222">parseTranslationUnit</text>
<rect x="289" y="586" width="12" height="12" fill="#41ab5d"/>
<text x="305" y="596" fill="#222">SemanticChecking</text>
<rect x="566" y="586" width="12" height="12" fill="#006d2c"/>
<text x="582" y="596" fill="#222">generateIR</text>
<rect x="843" y="586" width="12" height="12" fill="#74c476"/>
<text x="859" y="596" fill="#222">frontEndExecute (self)</text>
<rect x="12" y="604" width="12" height="12" fill="#6baed6"/>
<text x="28" y="614" fill="#222">specializeModule</text>
<rect x="289" y="604" width="12" height="12" fill="#2171b5"/>
<text x="305" y="614" fill="#222">simplifyIR</text>
<rect x="566" y="604" width="12" height="12" fill="#08306b"/>
<text x="582" y="614" fill="#222">linkIR</text>
<rect x="843" y="604" width="12" height="12" fill="#9e9ac8"/>
<text x="859" y="614" fill="#222">unrollLoopsInModule</text>
<rect x="12" y="622" width="12" height="12" fill="#807dba"/>
<text x="28" y="632" fill="#222">legalizeResourceTypes</text>
<rect x="289" y="622" width="12" height="12" fill="#6a51a3"/>
<text x="305" y="632" fill="#222">legalizeExistentialTypeLayout</text>
<rect x="566" y="622" width="12" height="12" fill="#bcbddc"/>
<text x="582" y="632" fill="#222">performMandatoryEarlyInlining</text>
<rect x="843" y="622" width="12" height="12" fill="#dadaeb"/>
<text x="859" y="632" fill="#222">performForceInlining</text>
<rect x="12" y="640" width="12" height="12" fill="#4a1486"/>
<text x="28" y="650" fill="#222">linkAndOptimizeIR (self)</text>
<rect x="289" y="640" width="12" height="12" fill="#fd8d3c"/>
<text x="305" y="650" fill="#222">emitEntryPointsSourceFromIR</text>
<rect x="566" y="640" width="12" height="12" fill="#e6550d"/>
<text x="582" y="650" fill="#222">generateOutput (self)</text>
<rect x="843" y="640" width="12" height="12" fill="#969696"/>
<text x="859" y="650" fill="#222">compileInner (self)</text>
</svg>