<svg xmlns="http://www.w3.org/2000/svg" xmlns:xlink="http://www.w3.org/1999/xlink" width="1132" height="680" viewBox="0 0 1132 680" preserveAspectRatio="xMidYMid meet" font-family="sans-serif" font-size="13">
<rect width="1132" height="680" fill="white"/>
<text x="12" y="30" font-size="20" font-weight="bold">emit_hlsl — Daily tip-of-tree (last 30 days) (median ms)</text>
<text x="68" y="60" font-size="15" font-weight="600" fill="#1a1a1a">emit_hlsl<tspan fill="#888" font-weight="400" text-decoration="none">  0.40×</tspan></text>
<line x1="68.0" y1="516.0" x2="1108.0" y2="516.0" stroke="#eee"/>
<text x="64.0" y="519.0" text-anchor="end" fill="#999">0.0</text>
<line x1="68.0" y1="296.0" x2="1108.0" y2="296.0" stroke="#eee"/>
<text x="64.0" y="299.0" text-anchor="end" fill="#999">493</text>
<line x1="68.0" y1="76.0" x2="1108.0" y2="76.0" stroke="#eee"/>
<text x="64.0" y="79.0" text-anchor="end" fill="#999">987</text>
<line x1="68.0" y1="76.0" x2="68.0" y2="516.0" stroke="#333"/>
<line x1="68.0" y1="516.0" x2="1108.0" y2="516.0" stroke="#333"/>
<line x1="68.0" y1="516.0" x2="68.0" y2="519.0" stroke="#999"/>
<text x="68.0" y="531.0" text-anchor="end" fill="#e8731a" transform="rotate(-50 68.0 531.0)">06-25</text>
<line x1="142.3" y1="516.0" x2="142.3" y2="519.0" stroke="#999"/>
<text x="142.3" y="531.0" text-anchor="end" fill="#e8731a" transform="rotate(-50 142.3 531.0)">06-26</text>
<line x1="216.6" y1="516.0" x2="216.6" y2="519.0" stroke="#999"/>
<text x="216.6" y="531.0" text-anchor="end" fill="#e8731a" transform="rotate(-50 216.6 531.0)">06-28</text>
<line x1="290.9" y1="516.0" x2="290.9" y2="519.0" stroke="#999"/>
<text x="290.9" y="531.0" text-anchor="end" fill="#e8731a" transform="rotate(-50 290.9 531.0)">07-01</text>
<line x1="365.1" y1="516.0" x2="365.1" y2="519.0" stroke="#999"/>
<text x="365.1" y="531.0" text-anchor="end" fill="#e8731a" transform="rotate(-50 365.1 531.0)">07-02</text>
<line x1="439.4" y1="516.0" x2="439.4" y2="519.0" stroke="#999"/>
<text x="439.4" y="531.0" text-anchor="end" fill="#e8731a" transform="rotate(-50 439.4 531.0)">07-03</text>
<line x1="513.7" y1="516.0" x2="513.7" y2="519.0" stroke="#999"/>
<text x="513.7" y="531.0" text-anchor="end" fill="#e8731a" transform="rotate(-50 513.7 531.0)">07-06</text>
<line x1="588.0" y1="516.0" x2="588.0" y2="519.0" stroke="#999"/>
<text x="588.0" y="531.0" text-anchor="end" fill="#e8731a" transform="rotate(-50 588.0 531.0)">07-07</text>
<line x1="662.3" y1="516.0" x2="662.3" y2="519.0" stroke="#999"/>
<text x="662.3" y="531.0" text-anchor="end" fill="#e8731a" transform="rotate(-50 662.3 531.0)">07-08</text>
<line x1="736.6" y1="516.0" x2="736.6" y2="519.0" stroke="#999"/>
<text x="736.6" y="531.0" text-anchor="end" fill="#e8731a" transform="rotate(-50 736.6 531.0)">07-09</text>
<line x1="810.9" y1="516.0" x2="810.9" y2="519.0" stroke="#999"/>
<text x="810.9" y="531.0" text-anchor="end" fill="#e8731a" transform="rotate(-50 810.9 531.0)">07-10</text>
<line x1="885.1" y1="516.0" x2="885.1" y2="519.0" stroke="#999"/>
<text x="885.1" y="531.0" text-anchor="end" fill="#e8731a" transform="rotate(-50 885.1 531.0)">07-11</text>
<line x1="959.4" y1="516.0" x2="959.4" y2="519.0" stroke="#999"/>
<text x="959.4" y="531.0" text-anchor="end" fill="#e8731a" transform="rotate(-50 959.4 531.0)">07-14</text>
<line x1="1033.7" y1="516.0" x2="1033.7" y2="519.0" stroke="#999"/>
<text x="1033.7" y="531.0" text-anchor="end" fill="#e8731a" transform="rotate(-50 1033.7 531.0)">07-15</text>
<line x1="1108.0" y1="516.0" x2="1108.0" y2="519.0" stroke="#999"/>
<text x="1108.0" y="531.0" text-anchor="end" fill="#e8731a" transform="rotate(-50 1108.0 531.0)">07-15</text>
<polygon points="68.0,515.5 142.3,515.5 216.6,515.5 290.9,515.5 365.1,515.5 439.4,515.5 513.7,515.5 588.0,515.6 662.3,515.6 736.6,515.6 810.9,515.6 885.1,515.6 959.4,515.6 1033.7,515.6 1108.0,515.6 1108.0,516.0 1033.7,516.0 959.4,516.0 885.1,516.0 810.9,516.0 736.6,516.0 662.3,516.0 588.0,516.0 513.7,516.0 439.4,516.0 365.1,516.0 290.9,516.0 216.6,516.0 142.3,516.0 68.0,516.0" fill="#c7e9c0" fill-opacity="0.9" stroke="#fff" stroke-width="0.4"><title>emit_hlsl — parseTranslationUnit</title></polygon>
<polygon points="68.0,499.0 142.3,498.5 216.6,498.2 290.9,499.5 365.1,498.2 439.4,499.3 513.7,499.2 588.0,499.8 662.3,499.7 736.6,499.6 810.9,499.5 885.1,499.4 959.4,499.1 1033.7,500.6 1108.0,500.8 1108.0,515.6 1033.7,515.6 959.4,515.6 885.1,515.6 810.9,515.6 736.6,515.6 662.3,515.6 588.0,515.6 513.7,515.5 439.4,515.5 365.1,515.5 290.9,515.5 216.6,515.5 142.3,515.5 68.0,515.5" fill="#41ab5d" fill-opacity="0.9" stroke="#fff" stroke-width="0.4"><title>emit_hlsl — SemanticChecking</title></polygon>
<polygon points="68.0,491.1 142.3,490.9 216.6,490.4 290.9,492.1 365.1,490.2 439.4,492.0 513.7,491.9 588.0,492.4 662.3,491.7 736.6,492.1 810.9,495.0 885.1,494.9 959.4,494.7 1033.7,496.2 1108.0,496.4 1108.0,500.8 1033.7,500.6 959.4,499.1 885.1,499.4 810.9,499.5 736.6,499.6 662.3,499.7 588.0,499.8 513.7,499.2 439.4,499.3 365.1,498.2 290.9,499.5 216.6,498.2 142.3,498.5 68.0,499.0" fill="#006d2c" fill-opacity="0.9" stroke="#fff" stroke-width="0.4"><title>emit_hlsl — generateIR</title></polygon>
<polygon points="68.0,491.0 142.3,490.5 216.6,490.2 290.9,491.8 365.1,490.2 439.4,491.9 513.7,491.7 588.0,492.2 662.3,491.4 736.6,491.9 810.9,494.8 885.1,494.7 959.4,494.0 1033.7,496.0 1108.0,496.2 1108.0,496.4 1033.7,496.2 959.4,494.7 885.1,494.9 810.9,495.0 736.6,492.1 662.3,491.7 588.0,492.4 513.7,491.9 439.4,492.0 365.1,490.2 290.9,492.1 216.6,490.4 142.3,490.9 68.0,491.1" fill="#74c476" fill-opacity="0.9" stroke="#fff" stroke-width="0.4"><title>emit_hlsl — frontEndExecute (self)</title></polygon>
<polygon points="68.0,480.8 142.3,479.8 216.6,479.5 290.9,481.5 365.1,479.4 439.4,481.8 513.7,481.7 588.0,481.1 662.3,479.3 736.6,480.7 810.9,489.7 885.1,489.5 959.4,488.8 1033.7,491.3 1108.0,491.4 1108.0,496.2 1033.7,496.0 959.4,494.0 885.1,494.7 810.9,494.8 736.6,491.9 662.3,491.4 588.0,492.2 513.7,491.7 439.4,491.9 365.1,490.2 290.9,491.8 216.6,490.2 142.3,490.5 68.0,491.0" fill="#6baed6" fill-opacity="0.9" stroke="#fff" stroke-width="0.4"><title>emit_hlsl — specializeModule</title></polygon>
<polygon points="68.0,452.9 142.3,450.9 216.6,449.6 290.9,452.9 365.1,449.1 439.4,454.1 513.7,454.7 588.0,453.6 662.3,449.4 736.6,452.2 810.9,485.4 885.1,485.2 959.4,484.5 1033.7,486.9 1108.0,487.0 1108.0,491.4 1033.7,491.3 959.4,488.8 885.1,489.5 810.9,489.7 736.6,480.7 662.3,479.3 588.0,481.1 513.7,481.7 439.4,481.8 365.1,479.4 290.9,481.5 216.6,479.5 142.3,479.8 68.0,480.8" fill="#2171b5" fill-opacity="0.9" stroke="#fff" stroke-width="0.4"><title>emit_hlsl — simplifyIR</title></polygon>
<polygon points="68.0,452.3 142.3,450.2 216.6,448.9 290.9,452.3 365.1,448.5 439.4,453.5 513.7,454.1 588.0,453.0 662.3,448.9 736.6,451.7 810.9,484.8 885.1,484.7 959.4,483.9 1033.7,486.4 1108.0,486.5 1108.0,487.0 1033.7,486.9 959.4,484.5 885.1,485.2 810.9,485.4 736.6,452.2 662.3,449.4 588.0,453.6 513.7,454.7 439.4,454.1 365.1,449.1 290.9,452.9 216.6,449.6 142.3,450.9 68.0,452.9" fill="#08306b" fill-opacity="0.9" stroke="#fff" stroke-width="0.4"><title>emit_hlsl — linkIR</title></polygon>
<polygon points="68.0,452.3 142.3,450.2 216.6,448.9 290.9,452.3 365.1,448.5 439.4,453.5 513.7,454.1 588.0,453.0 662.3,448.9 736.6,451.7 810.9,484.8 885.1,484.7 959.4,483.9 1033.7,486.4 1108.0,486.5 1108.0,486.5 1033.7,486.4 959.4,483.9 885.1,484.7 810.9,484.8 736.6,451.7 662.3,448.9 588.0,453.0 513.7,454.1 439.4,453.5 365.1,448.5 290.9,452.3 216.6,448.9 142.3,450.2 68.0,452.3" fill="#9e9ac8" fill-opacity="0.9" stroke="#fff" stroke-width="0.4"><title>emit_hlsl — unrollLoopsInModule</title></polygon>
<polygon points="68.0,388.8 142.3,385.4 216.6,373.1 290.9,389.2 365.1,382.7 439.4,391.7 513.7,391.0 588.0,390.9 662.3,383.6 736.6,388.7 810.9,461.1 885.1,460.9 959.4,460.4 1033.7,462.1 1108.0,461.8 1108.0,486.5 1033.7,486.4 959.4,483.9 885.1,484.7 810.9,484.8 736.6,451.7 662.3,448.9 588.0,453.0 513.7,454.1 439.4,453.5 365.1,448.5 290.9,452.3 216.6,448.9 142.3,450.2 68.0,452.3" fill="#807dba" fill-opacity="0.9" stroke="#fff" stroke-width="0.4"><title>emit_hlsl — legalizeResourceTypes</title></polygon>
<polygon points="68.0,324.6 142.3,319.1 216.6,304.4 290.9,325.0 365.1,316.3 439.4,328.1 513.7,327.5 588.0,328.7 662.3,315.8 736.6,325.9 810.9,436.8 885.1,436.7 959.4,436.0 1033.7,437.7 1108.0,437.0 1108.0,461.8 1033.7,462.1 959.4,460.4 885.1,460.9 810.9,461.1 736.6,388.7 662.3,383.6 588.0,390.9 513.7,391.0 439.4,391.7 365.1,382.7 290.9,389.2 216.6,373.1 142.3,385.4 68.0,388.8" fill="#6a51a3" fill-opacity="0.9" stroke="#fff" stroke-width="0.4"><title>emit_hlsl — legalizeExistentialTypeLayout</title></polygon>
<polygon points="68.0,324.5 142.3,319.0 216.6,304.2 290.9,324.9 365.1,316.1 439.4,328.0 513.7,327.4 588.0,328.5 662.3,315.6 736.6,325.8 810.9,436.6 885.1,436.5 959.4,435.9 1033.7,437.5 1108.0,436.9 1108.0,437.0 1033.7,437.7 959.4,436.0 885.1,436.7 810.9,436.8 736.6,325.9 662.3,315.8 588.0,328.7 513.7,327.5 439.4,328.1 365.1,316.3 290.9,325.0 216.6,304.4 142.3,319.1 68.0,324.6" fill="#bcbddc" fill-opacity="0.9" stroke="#fff" stroke-width="0.4"><title>emit_hlsl — performMandatoryEarlyInlining</title></polygon>
<polygon points="68.0,324.4 142.3,318.9 216.6,304.2 290.9,324.8 365.1,316.1 439.4,327.9 513.7,327.3 588.0,328.5 662.3,315.5 736.6,325.7 810.9,436.6 885.1,436.5 959.4,435.8 1033.7,437.4 1108.0,436.8 1108.0,436.9 1033.7,437.5 959.4,435.9 885.1,436.5 810.9,436.6 736.6,325.8 662.3,315.6 588.0,328.5 513.7,327.4 439.4,328.0 365.1,316.1 290.9,324.9 216.6,304.2 142.3,319.0 68.0,324.5" fill="#dadaeb" fill-opacity="0.9" stroke="#fff" stroke-width="0.4"><title>emit_hlsl — performForceInlining</title></polygon>
<polygon points="68.0,151.9 142.3,141.1 216.6,111.8 290.9,151.6 365.1,135.8 439.4,157.9 513.7,157.0 588.0,158.6 662.3,132.8 736.6,153.3 810.9,372.0 885.1,371.7 959.4,371.1 1033.7,372.8 1108.0,371.4 1108.0,436.8 1033.7,437.4 959.4,435.8 885.1,436.5 810.9,436.6 736.6,325.7 662.3,315.5 588.0,328.5 513.7,327.3 439.4,327.9 365.1,316.1 290.9,324.8 216.6,304.2 142.3,318.9 68.0,324.4" fill="#fd8d3c" fill-opacity="0.9" stroke="#fff" stroke-width="0.4"><title>emit_hlsl — emitEntryPointsSourceFromIR</title></polygon>
<polygon points="68.0,151.9 142.3,140.8 216.6,108.6 290.9,151.6 365.1,135.8 439.4,157.9 513.7,156.9 588.0,158.4 662.3,132.8 736.6,150.5 810.9,371.4 885.1,371.7 959.4,370.7 1033.7,372.7 1108.0,371.4 1108.0,371.4 1033.7,372.8 959.4,371.1 885.1,371.7 810.9,372.0 736.6,153.3 662.3,132.8 588.0,158.6 513.7,157.0 439.4,157.9 365.1,135.8 290.9,151.6 216.6,111.8 142.3,141.1 68.0,151.9" fill="#969696" fill-opacity="0.9" stroke="#fff" stroke-width="0.4"><title>emit_hlsl — compileInner (self)</title></polygon>
<text x="12" y="578" fill="#666" font-weight="600">phase buckets</text>
<rect x="12" y="586" width="12" height="12" fill="#c7e9c0"/>
<text x="28" y="596" fill="#222">parseTranslationUnit</text>
<rect x="289" y="586" width="12" height="12" fill="#41ab5d"/>
<text x="305" y="596" fill="#222">SemanticChecking</text>
<rect x="566" y="586" width="12" height="12" fill="#006d2c"/>
<text x="582" y="596" fill="#222">generateIR</text>
<rect x="843" y="586" width="12" height="12" fill="#74c476"/>
<text x="859" y="596" fill="#222">frontEndExecute (self)</text>
<rect x="12" y="604" width="12" height="12" fill="#6baed6"/>
<text x="28" y="614" fill="#222">specializeModule</text>
<rect x="289" y="604" width="12" height="12" fill="#2171b5"/>
<text x="305" y="614" fill="#222">simplifyIR</text>
<rect x="566" y="604" width="12" height="12" fill="#08306b"/>
<text x="582" y="614" fill="#222">linkIR</text>
<rect x="843" y="604" width="12" height="12" fill="#9e9ac8"/>
<text x="859" y="614" fill="#222">unrollLoopsInModule</text>
<rect x="12" y="622" width="12" height="12" fill="#807dba"/>
<text x="28" y="632" fill="#222">legalizeResourceTypes</text>
<rect x="289" y="622" width="12" height="12" fill="#6a51a3"/>
<text x="305" y="632" fill="#222">legalizeExistentialTypeLayout</text>
<rect x="566" y="622" width="12" height="12" fill="#bcbddc"/>
<text x="582" y="632" fill="#222">performMandatoryEarlyInlining</text>
<rect x="843" y="622" width="12" height="12" fill="#dadaeb"/>
<text x="859" y="632" fill="#222">performForceInlining</text>
<rect x="12" y="640" width="12" height="12" fill="#4a1486"/>
<text x="28" y="650" fill="#222">linkAndOptimizeIR (self)</text>
<rect x="289" y="640" width="12" height="12" fill="#fd8d3c"/>
<text x="305" y="650" fill="#222">emitEntryPointsSourceFromIR</text>
<rect x="566" y="640" width="12" height="12" fill="#e6550d"/>
<text x="582" y="650" fill="#222">generateOutput (self)</text>
<rect x="843" y="640" width="12" height="12" fill="#969696"/>
<text x="859" y="650" fill="#222">compileInner (self)</text>
</svg>