<svg xmlns="http://www.w3.org/2000/svg" xmlns:xlink="http://www.w3.org/1999/xlink" width="1132" height="680" viewBox="0 0 1132 680" preserveAspectRatio="xMidYMid meet" font-family="sans-serif" font-size="13">
<rect width="1132" height="680" fill="white"/>
<text x="12" y="30" font-size="20" font-weight="bold">emit_metal — Daily tip-of-tree (last 30 days) (median ms)</text>
<text x="68" y="60" font-size="15" font-weight="600" fill="#1a1a1a">emit_metal<tspan fill="#888" font-weight="400" text-decoration="none">  0.28×</tspan></text>
<line x1="68.0" y1="516.0" x2="1108.0" y2="516.0" stroke="#eee"/>
<text x="64.0" y="519.0" text-anchor="end" fill="#999">0.0</text>
<line x1="68.0" y1="296.0" x2="1108.0" y2="296.0" stroke="#eee"/>
<text x="64.0" y="299.0" text-anchor="end" fill="#999">622</text>
<line x1="68.0" y1="76.0" x2="1108.0" y2="76.0" stroke="#eee"/>
<text x="64.0" y="79.0" text-anchor="end" fill="#999">1244</text>
<line x1="68.0" y1="76.0" x2="68.0" y2="516.0" stroke="#333"/>
<line x1="68.0" y1="516.0" x2="1108.0" y2="516.0" stroke="#333"/>
<line x1="68.0" y1="516.0" x2="68.0" y2="519.0" stroke="#999"/>
<text x="68.0" y="531.0" text-anchor="end" fill="#e8731a" transform="rotate(-50 68.0 531.0)">06-25</text>
<line x1="129.2" y1="516.0" x2="129.2" y2="519.0" stroke="#999"/>
<text x="129.2" y="531.0" text-anchor="end" fill="#e8731a" transform="rotate(-50 129.2 531.0)">06-26</text>
<line x1="190.4" y1="516.0" x2="190.4" y2="519.0" stroke="#999"/>
<text x="190.4" y="531.0" text-anchor="end" fill="#e8731a" transform="rotate(-50 190.4 531.0)">06-28</text>
<line x1="251.5" y1="516.0" x2="251.5" y2="519.0" stroke="#999"/>
<text x="251.5" y="531.0" text-anchor="end" fill="#e8731a" transform="rotate(-50 251.5 531.0)">07-01</text>
<line x1="312.7" y1="516.0" x2="312.7" y2="519.0" stroke="#999"/>
<text x="312.7" y="531.0" text-anchor="end" fill="#e8731a" transform="rotate(-50 312.7 531.0)">07-02</text>
<line x1="373.9" y1="516.0" x2="373.9" y2="519.0" stroke="#999"/>
<text x="373.9" y="531.0" text-anchor="end" fill="#e8731a" transform="rotate(-50 373.9 531.0)">07-03</text>
<line x1="435.1" y1="516.0" x2="435.1" y2="519.0" stroke="#999"/>
<text x="435.1" y="531.0" text-anchor="end" fill="#e8731a" transform="rotate(-50 435.1 531.0)">07-06</text>
<line x1="496.2" y1="516.0" x2="496.2" y2="519.0" stroke="#999"/>
<text x="496.2" y="531.0" text-anchor="end" fill="#e8731a" transform="rotate(-50 496.2 531.0)">07-07</text>
<line x1="557.4" y1="516.0" x2="557.4" y2="519.0" stroke="#999"/>
<text x="557.4" y="531.0" text-anchor="end" fill="#e8731a" transform="rotate(-50 557.4 531.0)">07-08</text>
<line x1="618.6" y1="516.0" x2="618.6" y2="519.0" stroke="#999"/>
<text x="618.6" y="531.0" text-anchor="end" fill="#e8731a" transform="rotate(-50 618.6 531.0)">07-09</text>
<line x1="679.8" y1="516.0" x2="679.8" y2="519.0" stroke="#999"/>
<text x="679.8" y="531.0" text-anchor="end" fill="#e8731a" transform="rotate(-50 679.8 531.0)">07-10</text>
<line x1="740.9" y1="516.0" x2="740.9" y2="519.0" stroke="#999"/>
<text x="740.9" y="531.0" text-anchor="end" fill="#e8731a" transform="rotate(-50 740.9 531.0)">07-11</text>
<line x1="802.1" y1="516.0" x2="802.1" y2="519.0" stroke="#999"/>
<text x="802.1" y="531.0" text-anchor="end" fill="#e8731a" transform="rotate(-50 802.1 531.0)">07-14</text>
<line x1="863.3" y1="516.0" x2="863.3" y2="519.0" stroke="#999"/>
<text x="863.3" y="531.0" text-anchor="end" fill="#e8731a" transform="rotate(-50 863.3 531.0)">07-15</text>
<line x1="924.5" y1="516.0" x2="924.5" y2="519.0" stroke="#999"/>
<text x="924.5" y="531.0" text-anchor="end" fill="#e8731a" transform="rotate(-50 924.5 531.0)">07-15</text>
<line x1="985.6" y1="516.0" x2="985.6" y2="519.0" stroke="#999"/>
<text x="985.6" y="531.0" text-anchor="end" fill="#e8731a" transform="rotate(-50 985.6 531.0)">07-16</text>
<line x1="1046.8" y1="516.0" x2="1046.8" y2="519.0" stroke="#999"/>
<text x="1046.8" y="531.0" text-anchor="end" fill="#e8731a" transform="rotate(-50 1046.8 531.0)">07-17</text>
<line x1="1108.0" y1="516.0" x2="1108.0" y2="519.0" stroke="#999"/>
<text x="1108.0" y="531.0" text-anchor="end" fill="#e8731a" transform="rotate(-50 1108.0 531.0)">07-18</text>
<polygon points="68.0,515.6 129.2,515.6 190.4,515.6 251.5,515.6 312.7,515.6 373.9,515.6 435.1,515.6 496.2,515.7 557.4,515.7 618.6,515.7 679.8,515.7 740.9,515.7 802.1,515.7 863.3,515.7 924.5,515.7 985.6,515.7 1046.8,515.7 1108.0,515.7 1108.0,516.0 1046.8,516.0 985.6,516.0 924.5,516.0 863.3,516.0 802.1,516.0 740.9,516.0 679.8,516.0 618.6,516.0 557.4,516.0 496.2,516.0 435.1,516.0 373.9,516.0 312.7,516.0 251.5,516.0 190.4,516.0 129.2,516.0 68.0,516.0" fill="#c7e9c0" fill-opacity="0.9" stroke="#fff" stroke-width="0.4"><title>emit_metal — parseTranslationUnit</title></polygon>
<polygon points="68.0,502.6 129.2,502.9 190.4,502.6 251.5,502.8 312.7,502.4 373.9,502.7 435.1,502.6 496.2,503.3 557.4,502.7 618.6,503.2 679.8,503.2 740.9,502.8 802.1,502.9 863.3,503.6 924.5,503.9 985.6,502.2 1046.8,502.0 1108.0,504.7 1108.0,515.7 1046.8,515.7 985.6,515.7 924.5,515.7 863.3,515.7 802.1,515.7 740.9,515.7 679.8,515.7 618.6,515.7 557.4,515.7 496.2,515.7 435.1,515.6 373.9,515.6 312.7,515.6 251.5,515.6 190.4,515.6 129.2,515.6 68.0,515.6" fill="#41ab5d" fill-opacity="0.9" stroke="#fff" stroke-width="0.4"><title>emit_metal — SemanticChecking</title></polygon>
<polygon points="68.0,496.2 129.2,497.0 190.4,496.5 251.5,496.9 312.7,496.5 373.9,496.9 435.1,496.7 496.2,497.5 557.4,496.6 618.6,497.3 679.8,499.6 740.9,499.2 802.1,499.4 863.3,500.1 924.5,500.4 985.6,498.7 1046.8,498.6 1108.0,501.7 1108.0,504.7 1046.8,502.0 985.6,502.2 924.5,503.9 863.3,503.6 802.1,502.9 740.9,502.8 679.8,503.2 618.6,503.2 557.4,502.7 496.2,503.3 435.1,502.6 373.9,502.7 312.7,502.4 251.5,502.8 190.4,502.6 129.2,502.9 68.0,502.6" fill="#006d2c" fill-opacity="0.9" stroke="#fff" stroke-width="0.4"><title>emit_metal — generateIR</title></polygon>
<polygon points="68.0,496.1 129.2,496.9 190.4,496.4 251.5,496.8 312.7,496.4 373.9,496.7 435.1,496.6 496.2,497.3 557.4,496.6 618.6,497.1 679.8,499.5 740.9,499.1 802.1,499.1 863.3,500.0 924.5,500.3 985.6,498.7 1046.8,498.5 1108.0,501.6 1108.0,501.7 1046.8,498.6 985.6,498.7 924.5,500.4 863.3,500.1 802.1,499.4 740.9,499.2 679.8,499.6 618.6,497.3 557.4,496.6 496.2,497.5 435.1,496.7 373.9,496.9 312.7,496.5 251.5,496.9 190.4,496.5 129.2,497.0 68.0,496.2" fill="#74c476" fill-opacity="0.9" stroke="#fff" stroke-width="0.4"><title>emit_metal — frontEndExecute (self)</title></polygon>
<polygon points="68.0,485.5 129.2,486.7 190.4,485.7 251.5,486.4 312.7,486.2 373.9,486.6 435.1,486.5 496.2,486.2 557.4,485.1 618.6,485.3 679.8,495.3 740.9,494.9 802.1,494.9 863.3,496.2 924.5,496.4 985.6,494.9 1046.8,494.6 1108.0,498.1 1108.0,501.6 1046.8,498.5 985.6,498.7 924.5,500.3 863.3,500.0 802.1,499.1 740.9,499.1 679.8,499.5 618.6,497.1 557.4,496.6 496.2,497.3 435.1,496.6 373.9,496.7 312.7,496.4 251.5,496.8 190.4,496.4 129.2,496.9 68.0,496.1" fill="#6baed6" fill-opacity="0.9" stroke="#fff" stroke-width="0.4"><title>emit_metal — specializeModule</title></polygon>
<polygon points="68.0,452.3 129.2,454.2 190.4,451.9 251.5,453.2 312.7,453.4 373.9,453.7 435.1,454.8 496.2,453.6 557.4,450.1 618.6,450.9 679.8,491.2 740.9,490.8 802.1,490.8 863.3,492.1 924.5,492.3 985.6,490.8 1046.8,490.5 1108.0,494.1 1108.0,498.1 1046.8,494.6 985.6,494.9 924.5,496.4 863.3,496.2 802.1,494.9 740.9,494.9 679.8,495.3 618.6,485.3 557.4,485.1 496.2,486.2 435.1,486.5 373.9,486.6 312.7,486.2 251.5,486.4 190.4,485.7 129.2,486.7 68.0,485.5" fill="#2171b5" fill-opacity="0.9" stroke="#fff" stroke-width="0.4"><title>emit_metal — simplifyIR</title></polygon>
<polygon points="68.0,451.6 129.2,453.6 190.4,451.3 251.5,452.5 312.7,452.8 373.9,453.1 435.1,454.2 496.2,453.1 557.4,449.5 618.6,450.4 679.8,490.7 740.9,490.4 802.1,490.3 863.3,491.7 924.5,491.9 985.6,490.4 1046.8,490.1 1108.0,493.8 1108.0,494.1 1046.8,490.5 985.6,490.8 924.5,492.3 863.3,492.1 802.1,490.8 740.9,490.8 679.8,491.2 618.6,450.9 557.4,450.1 496.2,453.6 435.1,454.8 373.9,453.7 312.7,453.4 251.5,453.2 190.4,451.9 129.2,454.2 68.0,452.3" fill="#08306b" fill-opacity="0.9" stroke="#fff" stroke-width="0.4"><title>emit_metal — linkIR</title></polygon>
<polygon points="68.0,451.6 129.2,453.6 190.4,451.2 251.5,452.5 312.7,452.8 373.9,453.1 435.1,454.2 496.2,453.1 557.4,449.5 618.6,450.4 679.8,490.7 740.9,490.4 802.1,490.3 863.3,491.7 924.5,491.9 985.6,490.4 1046.8,490.1 1108.0,493.8 1108.0,493.8 1046.8,490.1 985.6,490.4 924.5,491.9 863.3,491.7 802.1,490.3 740.9,490.4 679.8,490.7 618.6,450.4 557.4,449.5 496.2,453.1 435.1,454.2 373.9,453.1 312.7,452.8 251.5,452.5 190.4,451.3 129.2,453.6 68.0,451.6" fill="#9e9ac8" fill-opacity="0.9" stroke="#fff" stroke-width="0.4"><title>emit_metal — unrollLoopsInModule</title></polygon>
<polygon points="68.0,386.7 129.2,389.7 190.4,387.1 251.5,389.1 312.7,389.8 373.9,391.2 435.1,391.2 496.2,391.7 557.4,374.4 618.6,380.4 679.8,471.2 740.9,470.9 802.1,471.2 863.3,471.9 924.5,472.0 985.6,471.4 1046.8,470.8 1108.0,476.5 1108.0,493.8 1046.8,490.1 985.6,490.4 924.5,491.9 863.3,491.7 802.1,490.3 740.9,490.4 679.8,490.7 618.6,450.4 557.4,449.5 496.2,453.1 435.1,454.2 373.9,453.1 312.7,452.8 251.5,452.5 190.4,451.2 129.2,453.6 68.0,451.6" fill="#807dba" fill-opacity="0.9" stroke="#fff" stroke-width="0.4"><title>emit_metal — legalizeResourceTypes</title></polygon>
<polygon points="68.0,321.6 129.2,325.1 190.4,321.9 251.5,325.4 312.7,325.7 373.9,327.6 435.1,327.4 496.2,328.8 557.4,307.7 618.6,314.0 679.8,451.6 740.9,451.1 802.1,451.7 863.3,452.0 924.5,451.9 985.6,452.3 1046.8,451.4 1108.0,458.8 1108.0,476.5 1046.8,470.8 985.6,471.4 924.5,472.0 863.3,471.9 802.1,471.2 740.9,470.9 679.8,471.2 618.6,380.4 557.4,374.4 496.2,391.7 435.1,391.2 373.9,391.2 312.7,389.8 251.5,389.1 190.4,387.1 129.2,389.7 68.0,386.7" fill="#6a51a3" fill-opacity="0.9" stroke="#fff" stroke-width="0.4"><title>emit_metal — legalizeExistentialTypeLayout</title></polygon>
<polygon points="68.0,321.4 129.2,325.0 190.4,321.8 251.5,325.3 312.7,325.6 373.9,327.5 435.1,327.2 496.2,328.7 557.4,307.5 618.6,313.9 679.8,451.4 740.9,451.0 802.1,451.6 863.3,451.9 924.5,451.7 985.6,452.2 1046.8,451.2 1108.0,458.7 1108.0,458.8 1046.8,451.4 985.6,452.3 924.5,451.9 863.3,452.0 802.1,451.7 740.9,451.1 679.8,451.6 618.6,314.0 557.4,307.7 496.2,328.8 435.1,327.4 373.9,327.6 312.7,325.7 251.5,325.4 190.4,321.9 129.2,325.1 68.0,321.6" fill="#bcbddc" fill-opacity="0.9" stroke="#fff" stroke-width="0.4"><title>emit_metal — performMandatoryEarlyInlining</title></polygon>
<polygon points="68.0,321.3 129.2,324.9 190.4,321.7 251.5,325.2 312.7,325.5 373.9,327.3 435.1,327.1 496.2,328.6 557.4,307.4 618.6,313.7 679.8,451.3 740.9,450.9 802.1,451.5 863.3,451.8 924.5,451.6 985.6,452.0 1046.8,451.1 1108.0,458.6 1108.0,458.7 1046.8,451.2 985.6,452.2 924.5,451.7 863.3,451.9 802.1,451.6 740.9,451.0 679.8,451.4 618.6,313.9 557.4,307.5 496.2,328.7 435.1,327.2 373.9,327.5 312.7,325.6 251.5,325.3 190.4,321.8 129.2,325.0 68.0,321.4" fill="#dadaeb" fill-opacity="0.9" stroke="#fff" stroke-width="0.4"><title>emit_metal — performForceInlining</title></polygon>
<polygon points="68.0,141.8 129.2,148.1 190.4,142.0 251.5,148.7 312.7,149.8 373.9,153.2 435.1,152.8 496.2,155.0 557.4,113.3 618.6,125.6 679.8,398.2 740.9,397.7 802.1,398.9 863.3,398.9 924.5,398.2 985.6,400.7 1046.8,399.0 1108.0,411.9 1108.0,458.6 1046.8,451.1 985.6,452.0 924.5,451.6 863.3,451.8 802.1,451.5 740.9,450.9 679.8,451.3 618.6,313.7 557.4,307.4 496.2,328.6 435.1,327.1 373.9,327.3 312.7,325.5 251.5,325.2 190.4,321.7 129.2,324.9 68.0,321.3" fill="#fd8d3c" fill-opacity="0.9" stroke="#fff" stroke-width="0.4"><title>emit_metal — emitEntryPointsSourceFromIR</title></polygon>
<polygon points="68.0,141.7 129.2,148.1 190.4,141.5 251.5,148.6 312.7,149.4 373.9,153.1 435.1,152.8 496.2,154.9 557.4,108.6 618.6,125.6 679.8,398.2 740.9,397.4 802.1,398.7 863.3,398.9 924.5,398.1 985.6,400.7 1046.8,399.0 1108.0,411.9 1108.0,411.9 1046.8,399.0 985.6,400.7 924.5,398.2 863.3,398.9 802.1,398.9 740.9,397.7 679.8,398.2 618.6,125.6 557.4,113.3 496.2,155.0 435.1,152.8 373.9,153.2 312.7,149.8 251.5,148.7 190.4,142.0 129.2,148.1 68.0,141.8" fill="#969696" fill-opacity="0.9" stroke="#fff" stroke-width="0.4"><title>emit_metal — compileInner (self)</title></polygon>
<text x="12" y="578" fill="#666" font-weight="600">phase buckets</text>
<rect x="12" y="586" width="12" height="12" fill="#c7e9c0"/>
<text x="28" y="596" fill="#222">parseTranslationUnit</text>
<rect x="289" y="586" width="12" height="12" fill="#41ab5d"/>
<text x="305" y="596" fill="#222">SemanticChecking</text>
<rect x="566" y="586" width="12" height="12" fill="#006d2c"/>
<text x="582" y="596" fill="#222">generateIR</text>
<rect x="843" y="586" width="12" height="12" fill="#74c476"/>
<text x="859" y="596" fill="#222">frontEndExecute (self)</text>
<rect x="12" y="604" width="12" height="12" fill="#6baed6"/>
<text x="28" y="614" fill="#222">specializeModule</text>
<rect x="289" y="604" width="12" height="12" fill="#2171b5"/>
<text x="305" y="614" fill="#222">simplifyIR</text>
<rect x="566" y="604" width="12" height="12" fill="#08306b"/>
<text x="582" y="614" fill="#222">linkIR</text>
<rect x="843" y="604" width="12" height="12" fill="#9e9ac8"/>
<text x="859" y="614" fill="#222">unrollLoopsInModule</text>
<rect x="12" y="622" width="12" height="12" fill="#807dba"/>
<text x="28" y="632" fill="#222">legalizeResourceTypes</text>
<rect x="289" y="622" width="12" height="12" fill="#6a51a3"/>
<text x="305" y="632" fill="#222">legalizeExistentialTypeLayout</text>
<rect x="566" y="622" width="12" height="12" fill="#bcbddc"/>
<text x="582" y="632" fill="#222">performMandatoryEarlyInlining</text>
<rect x="843" y="622" width="12" height="12" fill="#dadaeb"/>
<text x="859" y="632" fill="#222">performForceInlining</text>
<rect x="12" y="640" width="12" height="12" fill="#4a1486"/>
<text x="28" y="650" fill="#222">linkAndOptimizeIR (self)</text>
<rect x="289" y="640" width="12" height="12" fill="#fd8d3c"/>
<text x="305" y="650" fill="#222">emitEntryPointsSourceFromIR</text>
<rect x="566" y="640" width="12" height="12" fill="#e6550d"/>
<text x="582" y="650" fill="#222">generateOutput (self)</text>
<rect x="843" y="640" width="12" height="12" fill="#969696"/>
<text x="859" y="650" fill="#222">compileInner (self)</text>
</svg>