<svg xmlns="http://www.w3.org/2000/svg" xmlns:xlink="http://www.w3.org/1999/xlink" width="1132" height="680" viewBox="0 0 1132 680" preserveAspectRatio="xMidYMid meet" font-family="sans-serif" font-size="13">
<rect width="1132" height="680" fill="white"/>
<text x="12" y="30" font-size="20" font-weight="bold">emit_metal — Daily tip-of-tree (last 30 days) (median ms)</text>
<text x="68" y="60" font-size="15" font-weight="600" fill="#1a1a1a">emit_metal<tspan fill="#888" font-weight="400" text-decoration="none">  0.31×</tspan></text>
<line x1="68.0" y1="516.0" x2="1108.0" y2="516.0" stroke="#eee"/>
<text x="64.0" y="519.0" text-anchor="end" fill="#999">0.0</text>
<line x1="68.0" y1="296.0" x2="1108.0" y2="296.0" stroke="#eee"/>
<text x="64.0" y="299.0" text-anchor="end" fill="#999">622</text>
<line x1="68.0" y1="76.0" x2="1108.0" y2="76.0" stroke="#eee"/>
<text x="64.0" y="79.0" text-anchor="end" fill="#999">1244</text>
<line x1="68.0" y1="76.0" x2="68.0" y2="516.0" stroke="#333"/>
<line x1="68.0" y1="516.0" x2="1108.0" y2="516.0" stroke="#333"/>
<line x1="68.0" y1="516.0" x2="68.0" y2="519.0" stroke="#999"/>
<text x="68.0" y="531.0" text-anchor="end" fill="#e8731a" transform="rotate(-50 68.0 531.0)">06-25</text>
<line x1="133.0" y1="516.0" x2="133.0" y2="519.0" stroke="#999"/>
<text x="133.0" y="531.0" text-anchor="end" fill="#e8731a" transform="rotate(-50 133.0 531.0)">06-26</text>
<line x1="198.0" y1="516.0" x2="198.0" y2="519.0" stroke="#999"/>
<text x="198.0" y="531.0" text-anchor="end" fill="#e8731a" transform="rotate(-50 198.0 531.0)">06-28</text>
<line x1="263.0" y1="516.0" x2="263.0" y2="519.0" stroke="#999"/>
<text x="263.0" y="531.0" text-anchor="end" fill="#e8731a" transform="rotate(-50 263.0 531.0)">07-01</text>
<line x1="328.0" y1="516.0" x2="328.0" y2="519.0" stroke="#999"/>
<text x="328.0" y="531.0" text-anchor="end" fill="#e8731a" transform="rotate(-50 328.0 531.0)">07-02</text>
<line x1="393.0" y1="516.0" x2="393.0" y2="519.0" stroke="#999"/>
<text x="393.0" y="531.0" text-anchor="end" fill="#e8731a" transform="rotate(-50 393.0 531.0)">07-03</text>
<line x1="458.0" y1="516.0" x2="458.0" y2="519.0" stroke="#999"/>
<text x="458.0" y="531.0" text-anchor="end" fill="#e8731a" transform="rotate(-50 458.0 531.0)">07-06</text>
<line x1="523.0" y1="516.0" x2="523.0" y2="519.0" stroke="#999"/>
<text x="523.0" y="531.0" text-anchor="end" fill="#e8731a" transform="rotate(-50 523.0 531.0)">07-07</text>
<line x1="588.0" y1="516.0" x2="588.0" y2="519.0" stroke="#999"/>
<text x="588.0" y="531.0" text-anchor="end" fill="#e8731a" transform="rotate(-50 588.0 531.0)">07-08</text>
<line x1="653.0" y1="516.0" x2="653.0" y2="519.0" stroke="#999"/>
<text x="653.0" y="531.0" text-anchor="end" fill="#e8731a" transform="rotate(-50 653.0 531.0)">07-09</text>
<line x1="718.0" y1="516.0" x2="718.0" y2="519.0" stroke="#999"/>
<text x="718.0" y="531.0" text-anchor="end" fill="#e8731a" transform="rotate(-50 718.0 531.0)">07-10</text>
<line x1="783.0" y1="516.0" x2="783.0" y2="519.0" stroke="#999"/>
<text x="783.0" y="531.0" text-anchor="end" fill="#e8731a" transform="rotate(-50 783.0 531.0)">07-11</text>
<line x1="848.0" y1="516.0" x2="848.0" y2="519.0" stroke="#999"/>
<text x="848.0" y="531.0" text-anchor="end" fill="#e8731a" transform="rotate(-50 848.0 531.0)">07-14</text>
<line x1="913.0" y1="516.0" x2="913.0" y2="519.0" stroke="#999"/>
<text x="913.0" y="531.0" text-anchor="end" fill="#e8731a" transform="rotate(-50 913.0 531.0)">07-15</text>
<line x1="978.0" y1="516.0" x2="978.0" y2="519.0" stroke="#999"/>
<text x="978.0" y="531.0" text-anchor="end" fill="#e8731a" transform="rotate(-50 978.0 531.0)">07-15</text>
<line x1="1043.0" y1="516.0" x2="1043.0" y2="519.0" stroke="#999"/>
<text x="1043.0" y="531.0" text-anchor="end" fill="#e8731a" transform="rotate(-50 1043.0 531.0)">07-16</text>
<line x1="1108.0" y1="516.0" x2="1108.0" y2="519.0" stroke="#999"/>
<text x="1108.0" y="531.0" text-anchor="end" fill="#e8731a" transform="rotate(-50 1108.0 531.0)">07-17</text>
<polygon points="68.0,515.6 133.0,515.6 198.0,515.6 263.0,515.6 328.0,515.6 393.0,515.6 458.0,515.6 523.0,515.7 588.0,515.7 653.0,515.7 718.0,515.7 783.0,515.7 848.0,515.7 913.0,515.7 978.0,515.7 1043.0,515.7 1108.0,515.7 1108.0,516.0 1043.0,516.0 978.0,516.0 913.0,516.0 848.0,516.0 783.0,516.0 718.0,516.0 653.0,516.0 588.0,516.0 523.0,516.0 458.0,516.0 393.0,516.0 328.0,516.0 263.0,516.0 198.0,516.0 133.0,516.0 68.0,516.0" fill="#c7e9c0" fill-opacity="0.9" stroke="#fff" stroke-width="0.4"><title>emit_metal — parseTranslationUnit</title></polygon>
<polygon points="68.0,502.6 133.0,502.9 198.0,502.6 263.0,502.8 328.0,502.4 393.0,502.7 458.0,502.6 523.0,503.3 588.0,502.7 653.0,503.2 718.0,503.2 783.0,502.8 848.0,502.9 913.0,503.6 978.0,503.9 1043.0,502.2 1108.0,502.0 1108.0,515.7 1043.0,515.7 978.0,515.7 913.0,515.7 848.0,515.7 783.0,515.7 718.0,515.7 653.0,515.7 588.0,515.7 523.0,515.7 458.0,515.6 393.0,515.6 328.0,515.6 263.0,515.6 198.0,515.6 133.0,515.6 68.0,515.6" fill="#41ab5d" fill-opacity="0.9" stroke="#fff" stroke-width="0.4"><title>emit_metal — SemanticChecking</title></polygon>
<polygon points="68.0,496.2 133.0,497.0 198.0,496.5 263.0,496.9 328.0,496.5 393.0,496.9 458.0,496.7 523.0,497.5 588.0,496.6 653.0,497.3 718.0,499.6 783.0,499.2 848.0,499.4 913.0,500.1 978.0,500.4 1043.0,498.7 1108.0,498.6 1108.0,502.0 1043.0,502.2 978.0,503.9 913.0,503.6 848.0,502.9 783.0,502.8 718.0,503.2 653.0,503.2 588.0,502.7 523.0,503.3 458.0,502.6 393.0,502.7 328.0,502.4 263.0,502.8 198.0,502.6 133.0,502.9 68.0,502.6" fill="#006d2c" fill-opacity="0.9" stroke="#fff" stroke-width="0.4"><title>emit_metal — generateIR</title></polygon>
<polygon points="68.0,496.1 133.0,496.9 198.0,496.4 263.0,496.8 328.0,496.4 393.0,496.7 458.0,496.6 523.0,497.3 588.0,496.6 653.0,497.1 718.0,499.5 783.0,499.1 848.0,499.1 913.0,500.0 978.0,500.3 1043.0,498.7 1108.0,498.5 1108.0,498.6 1043.0,498.7 978.0,500.4 913.0,500.1 848.0,499.4 783.0,499.2 718.0,499.6 653.0,497.3 588.0,496.6 523.0,497.5 458.0,496.7 393.0,496.9 328.0,496.5 263.0,496.9 198.0,496.5 133.0,497.0 68.0,496.2" fill="#74c476" fill-opacity="0.9" stroke="#fff" stroke-width="0.4"><title>emit_metal — frontEndExecute (self)</title></polygon>
<polygon points="68.0,485.5 133.0,486.7 198.0,485.7 263.0,486.4 328.0,486.2 393.0,486.6 458.0,486.5 523.0,486.2 588.0,485.1 653.0,485.3 718.0,495.3 783.0,494.9 848.0,494.9 913.0,496.2 978.0,496.4 1043.0,494.9 1108.0,494.6 1108.0,498.5 1043.0,498.7 978.0,500.3 913.0,500.0 848.0,499.1 783.0,499.1 718.0,499.5 653.0,497.1 588.0,496.6 523.0,497.3 458.0,496.6 393.0,496.7 328.0,496.4 263.0,496.8 198.0,496.4 133.0,496.9 68.0,496.1" fill="#6baed6" fill-opacity="0.9" stroke="#fff" stroke-width="0.4"><title>emit_metal — specializeModule</title></polygon>
<polygon points="68.0,452.3 133.0,454.2 198.0,451.9 263.0,453.2 328.0,453.4 393.0,453.7 458.0,454.8 523.0,453.6 588.0,450.1 653.0,450.9 718.0,491.2 783.0,490.8 848.0,490.8 913.0,492.1 978.0,492.3 1043.0,490.8 1108.0,490.5 1108.0,494.6 1043.0,494.9 978.0,496.4 913.0,496.2 848.0,494.9 783.0,494.9 718.0,495.3 653.0,485.3 588.0,485.1 523.0,486.2 458.0,486.5 393.0,486.6 328.0,486.2 263.0,486.4 198.0,485.7 133.0,486.7 68.0,485.5" fill="#2171b5" fill-opacity="0.9" stroke="#fff" stroke-width="0.4"><title>emit_metal — simplifyIR</title></polygon>
<polygon points="68.0,451.6 133.0,453.6 198.0,451.3 263.0,452.5 328.0,452.8 393.0,453.1 458.0,454.2 523.0,453.1 588.0,449.5 653.0,450.4 718.0,490.7 783.0,490.4 848.0,490.3 913.0,491.7 978.0,491.9 1043.0,490.4 1108.0,490.1 1108.0,490.5 1043.0,490.8 978.0,492.3 913.0,492.1 848.0,490.8 783.0,490.8 718.0,491.2 653.0,450.9 588.0,450.1 523.0,453.6 458.0,454.8 393.0,453.7 328.0,453.4 263.0,453.2 198.0,451.9 133.0,454.2 68.0,452.3" fill="#08306b" fill-opacity="0.9" stroke="#fff" stroke-width="0.4"><title>emit_metal — linkIR</title></polygon>
<polygon points="68.0,451.6 133.0,453.6 198.0,451.2 263.0,452.5 328.0,452.8 393.0,453.1 458.0,454.2 523.0,453.1 588.0,449.5 653.0,450.4 718.0,490.7 783.0,490.4 848.0,490.3 913.0,491.7 978.0,491.9 1043.0,490.4 1108.0,490.1 1108.0,490.1 1043.0,490.4 978.0,491.9 913.0,491.7 848.0,490.3 783.0,490.4 718.0,490.7 653.0,450.4 588.0,449.5 523.0,453.1 458.0,454.2 393.0,453.1 328.0,452.8 263.0,452.5 198.0,451.3 133.0,453.6 68.0,451.6" fill="#9e9ac8" fill-opacity="0.9" stroke="#fff" stroke-width="0.4"><title>emit_metal — unrollLoopsInModule</title></polygon>
<polygon points="68.0,386.7 133.0,389.7 198.0,387.1 263.0,389.1 328.0,389.8 393.0,391.2 458.0,391.2 523.0,391.7 588.0,374.4 653.0,380.4 718.0,471.2 783.0,470.9 848.0,471.2 913.0,471.9 978.0,472.0 1043.0,471.4 1108.0,470.8 1108.0,490.1 1043.0,490.4 978.0,491.9 913.0,491.7 848.0,490.3 783.0,490.4 718.0,490.7 653.0,450.4 588.0,449.5 523.0,453.1 458.0,454.2 393.0,453.1 328.0,452.8 263.0,452.5 198.0,451.2 133.0,453.6 68.0,451.6" fill="#807dba" fill-opacity="0.9" stroke="#fff" stroke-width="0.4"><title>emit_metal — legalizeResourceTypes</title></polygon>
<polygon points="68.0,321.6 133.0,325.1 198.0,321.9 263.0,325.4 328.0,325.7 393.0,327.6 458.0,327.4 523.0,328.8 588.0,307.7 653.0,314.0 718.0,451.6 783.0,451.1 848.0,451.7 913.0,452.0 978.0,451.9 1043.0,452.3 1108.0,451.4 1108.0,470.8 1043.0,471.4 978.0,472.0 913.0,471.9 848.0,471.2 783.0,470.9 718.0,471.2 653.0,380.4 588.0,374.4 523.0,391.7 458.0,391.2 393.0,391.2 328.0,389.8 263.0,389.1 198.0,387.1 133.0,389.7 68.0,386.7" fill="#6a51a3" fill-opacity="0.9" stroke="#fff" stroke-width="0.4"><title>emit_metal — legalizeExistentialTypeLayout</title></polygon>
<polygon points="68.0,321.4 133.0,325.0 198.0,321.8 263.0,325.3 328.0,325.6 393.0,327.5 458.0,327.2 523.0,328.7 588.0,307.5 653.0,313.9 718.0,451.4 783.0,451.0 848.0,451.6 913.0,451.9 978.0,451.7 1043.0,452.2 1108.0,451.2 1108.0,451.4 1043.0,452.3 978.0,451.9 913.0,452.0 848.0,451.7 783.0,451.1 718.0,451.6 653.0,314.0 588.0,307.7 523.0,328.8 458.0,327.4 393.0,327.6 328.0,325.7 263.0,325.4 198.0,321.9 133.0,325.1 68.0,321.6" fill="#bcbddc" fill-opacity="0.9" stroke="#fff" stroke-width="0.4"><title>emit_metal — performMandatoryEarlyInlining</title></polygon>
<polygon points="68.0,321.3 133.0,324.9 198.0,321.7 263.0,325.2 328.0,325.5 393.0,327.3 458.0,327.1 523.0,328.6 588.0,307.4 653.0,313.7 718.0,451.3 783.0,450.9 848.0,451.5 913.0,451.8 978.0,451.6 1043.0,452.0 1108.0,451.1 1108.0,451.2 1043.0,452.2 978.0,451.7 913.0,451.9 848.0,451.6 783.0,451.0 718.0,451.4 653.0,313.9 588.0,307.5 523.0,328.7 458.0,327.2 393.0,327.5 328.0,325.6 263.0,325.3 198.0,321.8 133.0,325.0 68.0,321.4" fill="#dadaeb" fill-opacity="0.9" stroke="#fff" stroke-width="0.4"><title>emit_metal — performForceInlining</title></polygon>
<polygon points="68.0,141.8 133.0,148.1 198.0,142.0 263.0,148.7 328.0,149.8 393.0,153.2 458.0,152.8 523.0,155.0 588.0,113.3 653.0,125.6 718.0,398.2 783.0,397.7 848.0,398.9 913.0,398.9 978.0,398.2 1043.0,400.7 1108.0,399.0 1108.0,451.1 1043.0,452.0 978.0,451.6 913.0,451.8 848.0,451.5 783.0,450.9 718.0,451.3 653.0,313.7 588.0,307.4 523.0,328.6 458.0,327.1 393.0,327.3 328.0,325.5 263.0,325.2 198.0,321.7 133.0,324.9 68.0,321.3" fill="#fd8d3c" fill-opacity="0.9" stroke="#fff" stroke-width="0.4"><title>emit_metal — emitEntryPointsSourceFromIR</title></polygon>
<polygon points="68.0,141.7 133.0,148.1 198.0,141.5 263.0,148.6 328.0,149.4 393.0,153.1 458.0,152.8 523.0,154.9 588.0,108.6 653.0,125.6 718.0,398.2 783.0,397.4 848.0,398.7 913.0,398.9 978.0,398.1 1043.0,400.7 1108.0,399.0 1108.0,399.0 1043.0,400.7 978.0,398.2 913.0,398.9 848.0,398.9 783.0,397.7 718.0,398.2 653.0,125.6 588.0,113.3 523.0,155.0 458.0,152.8 393.0,153.2 328.0,149.8 263.0,148.7 198.0,142.0 133.0,148.1 68.0,141.8" fill="#969696" fill-opacity="0.9" stroke="#fff" stroke-width="0.4"><title>emit_metal — compileInner (self)</title></polygon>
<text x="12" y="578" fill="#666" font-weight="600">phase buckets</text>
<rect x="12" y="586" width="12" height="12" fill="#c7e9c0"/>
<text x="28" y="596" fill="#222">parseTranslationUnit</text>
<rect x="289" y="586" width="12" height="12" fill="#41ab5d"/>
<text x="305" y="596" fill="#222">SemanticChecking</text>
<rect x="566" y="586" width="12" height="12" fill="#006d2c"/>
<text x="582" y="596" fill="#222">generateIR</text>
<rect x="843" y="586" width="12" height="12" fill="#74c476"/>
<text x="859" y="596" fill="#222">frontEndExecute (self)</text>
<rect x="12" y="604" width="12" height="12" fill="#6baed6"/>
<text x="28" y="614" fill="#222">specializeModule</text>
<rect x="289" y="604" width="12" height="12" fill="#2171b5"/>
<text x="305" y="614" fill="#222">simplifyIR</text>
<rect x="566" y="604" width="12" height="12" fill="#08306b"/>
<text x="582" y="614" fill="#222">linkIR</text>
<rect x="843" y="604" width="12" height="12" fill="#9e9ac8"/>
<text x="859" y="614" fill="#222">unrollLoopsInModule</text>
<rect x="12" y="622" width="12" height="12" fill="#807dba"/>
<text x="28" y="632" fill="#222">legalizeResourceTypes</text>
<rect x="289" y="622" width="12" height="12" fill="#6a51a3"/>
<text x="305" y="632" fill="#222">legalizeExistentialTypeLayout</text>
<rect x="566" y="622" width="12" height="12" fill="#bcbddc"/>
<text x="582" y="632" fill="#222">performMandatoryEarlyInlining</text>
<rect x="843" y="622" width="12" height="12" fill="#dadaeb"/>
<text x="859" y="632" fill="#222">performForceInlining</text>
<rect x="12" y="640" width="12" height="12" fill="#4a1486"/>
<text x="28" y="650" fill="#222">linkAndOptimizeIR (self)</text>
<rect x="289" y="640" width="12" height="12" fill="#fd8d3c"/>
<text x="305" y="650" fill="#222">emitEntryPointsSourceFromIR</text>
<rect x="566" y="640" width="12" height="12" fill="#e6550d"/>
<text x="582" y="650" fill="#222">generateOutput (self)</text>
<rect x="843" y="640" width="12" height="12" fill="#969696"/>
<text x="859" y="650" fill="#222">compileInner (self)</text>
</svg>