<svg xmlns="http://www.w3.org/2000/svg" xmlns:xlink="http://www.w3.org/1999/xlink" width="1132" height="680" viewBox="0 0 1132 680" preserveAspectRatio="xMidYMid meet" font-family="sans-serif" font-size="13">
<rect width="1132" height="680" fill="white"/>
<text x="12" y="30" font-size="20" font-weight="bold">emit_cuda — Across releases (median ms)</text>
<text x="68" y="60" font-size="15" font-weight="600" fill="#1a1a1a">emit_cuda<tspan fill="#888" font-weight="400" text-decoration="none">  0.75×</tspan></text>
<line x1="68.0" y1="516.0" x2="1108.0" y2="516.0" stroke="#eee"/>
<text x="64.0" y="519.0" text-anchor="end" fill="#999">0.0</text>
<line x1="68.0" y1="296.0" x2="1108.0" y2="296.0" stroke="#eee"/>
<text x="64.0" y="299.0" text-anchor="end" fill="#999">546</text>
<line x1="68.0" y1="76.0" x2="1108.0" y2="76.0" stroke="#eee"/>
<text x="64.0" y="79.0" text-anchor="end" fill="#999">1092</text>
<line x1="68.0" y1="76.0" x2="68.0" y2="516.0" stroke="#333"/>
<line x1="68.0" y1="516.0" x2="1108.0" y2="516.0" stroke="#333"/>
<line x1="68.0" y1="516.0" x2="68.0" y2="519.0" stroke="#999"/>
<text x="68.0" y="531.0" text-anchor="end" fill="#666" transform="rotate(-50 68.0 531.0)">25.12</text>
<line x1="111.3" y1="516.0" x2="111.3" y2="519.0" stroke="#999"/>
<text x="111.3" y="531.0" text-anchor="end" fill="#666" transform="rotate(-50 111.3 531.0)">25.13</text>
<line x1="154.7" y1="516.0" x2="154.7" y2="519.0" stroke="#999"/>
<text x="154.7" y="531.0" text-anchor="end" fill="#666" transform="rotate(-50 154.7 531.0)">25.14</text>
<line x1="198.0" y1="516.0" x2="198.0" y2="519.0" stroke="#999"/>
<text x="198.0" y="531.0" text-anchor="end" fill="#666" transform="rotate(-50 198.0 531.0)">25.15</text>
<line x1="241.3" y1="516.0" x2="241.3" y2="519.0" stroke="#999"/>
<text x="241.3" y="531.0" text-anchor="end" fill="#666" transform="rotate(-50 241.3 531.0)">25.16</text>
<line x1="284.7" y1="516.0" x2="284.7" y2="519.0" stroke="#999"/>
<text x="284.7" y="531.0" text-anchor="end" fill="#666" transform="rotate(-50 284.7 531.0)">25.17</text>
<line x1="328.0" y1="516.0" x2="328.0" y2="519.0" stroke="#999"/>
<text x="328.0" y="531.0" text-anchor="end" fill="#666" transform="rotate(-50 328.0 531.0)">25.18</text>
<line x1="371.3" y1="516.0" x2="371.3" y2="519.0" stroke="#999"/>
<text x="371.3" y="531.0" text-anchor="end" fill="#666" transform="rotate(-50 371.3 531.0)">25.19</text>
<line x1="414.7" y1="516.0" x2="414.7" y2="519.0" stroke="#999"/>
<text x="414.7" y="531.0" text-anchor="end" fill="#666" transform="rotate(-50 414.7 531.0)">25.20</text>
<line x1="458.0" y1="516.0" x2="458.0" y2="519.0" stroke="#999"/>
<text x="458.0" y="531.0" text-anchor="end" fill="#666" transform="rotate(-50 458.0 531.0)">25.21</text>
<line x1="501.3" y1="516.0" x2="501.3" y2="519.0" stroke="#999"/>
<text x="501.3" y="531.0" text-anchor="end" fill="#666" transform="rotate(-50 501.3 531.0)">25.22</text>
<line x1="544.7" y1="516.0" x2="544.7" y2="519.0" stroke="#999"/>
<text x="544.7" y="531.0" text-anchor="end" fill="#666" transform="rotate(-50 544.7 531.0)">25.23</text>
<line x1="588.0" y1="516.0" x2="588.0" y2="519.0" stroke="#999"/>
<text x="588.0" y="531.0" text-anchor="end" fill="#666" transform="rotate(-50 588.0 531.0)">25.24</text>
<line x1="631.3" y1="516.0" x2="631.3" y2="519.0" stroke="#999"/>
<text x="631.3" y="531.0" text-anchor="end" fill="#666" transform="rotate(-50 631.3 531.0)">26.1</text>
<line x1="674.7" y1="516.0" x2="674.7" y2="519.0" stroke="#999"/>
<text x="674.7" y="531.0" text-anchor="end" fill="#666" transform="rotate(-50 674.7 531.0)">26.2</text>
<line x1="718.0" y1="516.0" x2="718.0" y2="519.0" stroke="#999"/>
<text x="718.0" y="531.0" text-anchor="end" fill="#666" transform="rotate(-50 718.0 531.0)">26.3</text>
<line x1="761.3" y1="516.0" x2="761.3" y2="519.0" stroke="#999"/>
<text x="761.3" y="531.0" text-anchor="end" fill="#666" transform="rotate(-50 761.3 531.0)">26.4</text>
<line x1="804.7" y1="516.0" x2="804.7" y2="519.0" stroke="#999"/>
<text x="804.7" y="531.0" text-anchor="end" fill="#666" transform="rotate(-50 804.7 531.0)">26.5</text>
<line x1="848.0" y1="516.0" x2="848.0" y2="519.0" stroke="#999"/>
<text x="848.0" y="531.0" text-anchor="end" fill="#666" transform="rotate(-50 848.0 531.0)">26.7</text>
<line x1="891.3" y1="516.0" x2="891.3" y2="519.0" stroke="#999"/>
<text x="891.3" y="531.0" text-anchor="end" fill="#666" transform="rotate(-50 891.3 531.0)">26.8</text>
<line x1="934.7" y1="516.0" x2="934.7" y2="519.0" stroke="#999"/>
<text x="934.7" y="531.0" text-anchor="end" fill="#666" transform="rotate(-50 934.7 531.0)">26.9</text>
<line x1="978.0" y1="516.0" x2="978.0" y2="519.0" stroke="#999"/>
<text x="978.0" y="531.0" text-anchor="end" fill="#666" transform="rotate(-50 978.0 531.0)">26.10</text>
<line x1="1021.3" y1="516.0" x2="1021.3" y2="519.0" stroke="#999"/>
<text x="1021.3" y="531.0" text-anchor="end" fill="#666" transform="rotate(-50 1021.3 531.0)">26.11</text>
<line x1="1064.7" y1="516.0" x2="1064.7" y2="519.0" stroke="#999"/>
<text x="1064.7" y="531.0" text-anchor="end" fill="#666" transform="rotate(-50 1064.7 531.0)">26.12</text>
<line x1="1108.0" y1="516.0" x2="1108.0" y2="519.0" stroke="#999"/>
<text x="1108.0" y="531.0" text-anchor="end" fill="#666" transform="rotate(-50 1108.0 531.0)">26.13</text>
<polygon points="68.0,515.6 111.3,515.5 154.7,515.5 198.0,515.6 241.3,515.6 284.7,515.6 328.0,515.6 371.3,515.6 414.7,515.6 458.0,515.6 501.3,515.6 544.7,515.6 588.0,515.6 631.3,515.6 674.7,515.6 718.0,515.6 761.3,515.6 804.7,515.5 848.0,515.5 891.3,515.6 934.7,515.6 978.0,515.6 1021.3,515.6 1064.7,515.6 1108.0,515.6 1108.0,516.0 1064.7,516.0 1021.3,516.0 978.0,516.0 934.7,516.0 891.3,516.0 848.0,516.0 804.7,516.0 761.3,516.0 718.0,516.0 674.7,516.0 631.3,516.0 588.0,516.0 544.7,516.0 501.3,516.0 458.0,516.0 414.7,516.0 371.3,516.0 328.0,516.0 284.7,516.0 241.3,516.0 198.0,516.0 154.7,516.0 111.3,516.0 68.0,516.0" fill="#c7e9c0" fill-opacity="0.9" stroke="#fff" stroke-width="0.4"><title>emit_cuda — parseTranslationUnit</title></polygon>
<polygon points="68.0,498.7 111.3,494.4 154.7,496.9 198.0,492.7 241.3,493.5 284.7,493.4 328.0,493.3 371.3,493.6 414.7,493.0 458.0,493.3 501.3,493.1 544.7,493.0 588.0,492.7 631.3,492.1 674.7,491.1 718.0,491.3 761.3,490.8 804.7,487.9 848.0,480.5 891.3,486.5 934.7,486.5 978.0,479.7 1021.3,502.0 1064.7,501.0 1108.0,501.6 1108.0,515.6 1064.7,515.6 1021.3,515.6 978.0,515.6 934.7,515.6 891.3,515.6 848.0,515.5 804.7,515.5 761.3,515.6 718.0,515.6 674.7,515.6 631.3,515.6 588.0,515.6 544.7,515.6 501.3,515.6 458.0,515.6 414.7,515.6 371.3,515.6 328.0,515.6 284.7,515.6 241.3,515.6 198.0,515.6 154.7,515.5 111.3,515.5 68.0,515.6" fill="#41ab5d" fill-opacity="0.9" stroke="#fff" stroke-width="0.4"><title>emit_cuda — SemanticChecking</title></polygon>
<polygon points="68.0,495.1 111.3,488.7 154.7,492.8 198.0,488.7 241.3,489.6 284.7,489.4 328.0,489.3 371.3,489.6 414.7,489.1 458.0,489.3 501.3,489.1 544.7,489.1 588.0,488.9 631.3,488.2 674.7,487.1 718.0,487.4 761.3,486.8 804.7,483.7 848.0,473.0 891.3,479.5 934.7,479.5 978.0,471.8 1021.3,494.9 1064.7,493.7 1108.0,494.9 1108.0,501.6 1064.7,501.0 1021.3,502.0 978.0,479.7 934.7,486.5 891.3,486.5 848.0,480.5 804.7,487.9 761.3,490.8 718.0,491.3 674.7,491.1 631.3,492.1 588.0,492.7 544.7,493.0 501.3,493.1 458.0,493.3 414.7,493.0 371.3,493.6 328.0,493.3 284.7,493.4 241.3,493.5 198.0,492.7 154.7,496.9 111.3,494.4 68.0,498.7" fill="#006d2c" fill-opacity="0.9" stroke="#fff" stroke-width="0.4"><title>emit_cuda — generateIR</title></polygon>
<polygon points="68.0,494.7 111.3,488.7 154.7,492.7 198.0,488.7 241.3,489.5 284.7,489.2 328.0,489.2 371.3,489.2 414.7,488.9 458.0,489.3 501.3,488.6 544.7,488.9 588.0,488.7 631.3,488.0 674.7,487.0 718.0,487.2 761.3,486.7 804.7,483.7 848.0,473.0 891.3,479.1 934.7,479.4 978.0,471.1 1021.3,494.7 1064.7,493.7 1108.0,494.8 1108.0,494.9 1064.7,493.7 1021.3,494.9 978.0,471.8 934.7,479.5 891.3,479.5 848.0,473.0 804.7,483.7 761.3,486.8 718.0,487.4 674.7,487.1 631.3,488.2 588.0,488.9 544.7,489.1 501.3,489.1 458.0,489.3 414.7,489.1 371.3,489.6 328.0,489.3 284.7,489.4 241.3,489.6 198.0,488.7 154.7,492.8 111.3,488.7 68.0,495.1" fill="#74c476" fill-opacity="0.9" stroke="#fff" stroke-width="0.4"><title>emit_cuda — frontEndExecute (self)</title></polygon>
<polygon points="68.0,493.4 111.3,487.0 154.7,491.1 198.0,487.1 241.3,487.9 284.7,487.6 328.0,487.6 371.3,487.6 414.7,487.4 458.0,487.8 501.3,487.2 544.7,487.5 588.0,485.4 631.3,484.7 674.7,483.8 718.0,483.9 761.3,483.4 804.7,480.1 848.0,457.9 891.3,466.7 934.7,467.1 978.0,456.3 1021.3,482.4 1064.7,481.9 1108.0,481.9 1108.0,494.8 1064.7,493.7 1021.3,494.7 978.0,471.1 934.7,479.4 891.3,479.1 848.0,473.0 804.7,483.7 761.3,486.7 718.0,487.2 674.7,487.0 631.3,488.0 588.0,488.7 544.7,488.9 501.3,488.6 458.0,489.3 414.7,488.9 371.3,489.2 328.0,489.2 284.7,489.2 241.3,489.5 198.0,488.7 154.7,492.7 111.3,488.7 68.0,494.7" fill="#6baed6" fill-opacity="0.9" stroke="#fff" stroke-width="0.4"><title>emit_cuda — specializeModule</title></polygon>
<polygon points="68.0,489.4 111.3,482.2 154.7,486.9 198.0,482.8 241.3,483.7 284.7,483.5 328.0,483.4 371.3,483.5 414.7,483.1 458.0,483.5 501.3,482.9 544.7,483.1 588.0,481.7 631.3,481.0 674.7,480.0 718.0,480.1 761.3,479.6 804.7,476.1 848.0,414.4 891.3,426.8 934.7,427.3 978.0,411.9 1021.3,440.6 1064.7,441.1 1108.0,442.5 1108.0,481.9 1064.7,481.9 1021.3,482.4 978.0,456.3 934.7,467.1 891.3,466.7 848.0,457.9 804.7,480.1 761.3,483.4 718.0,483.9 674.7,483.8 631.3,484.7 588.0,485.4 544.7,487.5 501.3,487.2 458.0,487.8 414.7,487.4 371.3,487.6 328.0,487.6 284.7,487.6 241.3,487.9 198.0,487.1 154.7,491.1 111.3,487.0 68.0,493.4" fill="#2171b5" fill-opacity="0.9" stroke="#fff" stroke-width="0.4"><title>emit_cuda — simplifyIR</title></polygon>
<polygon points="68.0,488.6 111.3,481.0 154.7,485.8 198.0,482.0 241.3,483.0 284.7,482.7 328.0,482.6 371.3,482.7 414.7,482.3 458.0,482.7 501.3,482.2 544.7,482.3 588.0,480.9 631.3,480.3 674.7,479.2 718.0,479.4 761.3,478.7 804.7,474.9 848.0,403.1 891.3,418.7 934.7,419.1 978.0,400.0 1021.3,439.7 1064.7,440.3 1108.0,441.9 1108.0,442.5 1064.7,441.1 1021.3,440.6 978.0,411.9 934.7,427.3 891.3,426.8 848.0,414.4 804.7,476.1 761.3,479.6 718.0,480.1 674.7,480.0 631.3,481.0 588.0,481.7 544.7,483.1 501.3,482.9 458.0,483.5 414.7,483.1 371.3,483.5 328.0,483.4 284.7,483.5 241.3,483.7 198.0,482.8 154.7,486.9 111.3,482.2 68.0,489.4" fill="#08306b" fill-opacity="0.9" stroke="#fff" stroke-width="0.4"><title>emit_cuda — linkIR</title></polygon>
<polygon points="68.0,488.6 111.3,481.0 154.7,485.8 198.0,482.0 241.3,483.0 284.7,482.7 328.0,482.6 371.3,482.7 414.7,482.3 458.0,482.7 501.3,482.2 544.7,482.3 588.0,480.9 631.3,480.2 674.7,479.2 718.0,479.3 761.3,478.7 804.7,474.9 848.0,403.1 891.3,418.7 934.7,419.1 978.0,399.9 1021.3,439.7 1064.7,440.3 1108.0,441.9 1108.0,441.9 1064.7,440.3 1021.3,439.7 978.0,400.0 934.7,419.1 891.3,418.7 848.0,403.1 804.7,474.9 761.3,478.7 718.0,479.4 674.7,479.2 631.3,480.3 588.0,480.9 544.7,482.3 501.3,482.2 458.0,482.7 414.7,482.3 371.3,482.7 328.0,482.6 284.7,482.7 241.3,483.0 198.0,482.0 154.7,485.8 111.3,481.0 68.0,488.6" fill="#9e9ac8" fill-opacity="0.9" stroke="#fff" stroke-width="0.4"><title>emit_cuda — unrollLoopsInModule</title></polygon>
<polygon points="68.0,488.6 111.3,480.8 154.7,485.6 198.0,481.8 241.3,482.8 284.7,482.5 328.0,482.4 371.3,482.5 414.7,482.1 458.0,482.5 501.3,482.0 544.7,482.1 588.0,480.7 631.3,480.1 674.7,479.1 718.0,479.2 761.3,478.5 804.7,474.7 848.0,403.0 891.3,418.5 934.7,419.0 978.0,399.8 1021.3,439.5 1064.7,440.2 1108.0,441.7 1108.0,441.9 1064.7,440.3 1021.3,439.7 978.0,399.9 934.7,419.1 891.3,418.7 848.0,403.1 804.7,474.9 761.3,478.7 718.0,479.3 674.7,479.2 631.3,480.2 588.0,480.9 544.7,482.3 501.3,482.2 458.0,482.7 414.7,482.3 371.3,482.7 328.0,482.6 284.7,482.7 241.3,483.0 198.0,482.0 154.7,485.8 111.3,481.0 68.0,488.6" fill="#bcbddc" fill-opacity="0.9" stroke="#fff" stroke-width="0.4"><title>emit_cuda — performMandatoryEarlyInlining</title></polygon>
<polygon points="68.0,488.6 111.3,480.6 154.7,485.5 198.0,481.7 241.3,482.7 284.7,482.4 328.0,482.3 371.3,482.4 414.7,482.1 458.0,482.4 501.3,481.9 544.7,482.0 588.0,480.6 631.3,480.0 674.7,479.0 718.0,479.1 761.3,478.4 804.7,474.6 848.0,402.8 891.3,418.4 934.7,418.8 978.0,399.7 1021.3,439.4 1064.7,440.1 1108.0,441.6 1108.0,441.7 1064.7,440.2 1021.3,439.5 978.0,399.8 934.7,419.0 891.3,418.5 848.0,403.0 804.7,474.7 761.3,478.5 718.0,479.2 674.7,479.1 631.3,480.1 588.0,480.7 544.7,482.1 501.3,482.0 458.0,482.5 414.7,482.1 371.3,482.5 328.0,482.4 284.7,482.5 241.3,482.8 198.0,481.8 154.7,485.6 111.3,480.8 68.0,488.6" fill="#dadaeb" fill-opacity="0.9" stroke="#fff" stroke-width="0.4"><title>emit_cuda — performForceInlining</title></polygon>
<polygon points="68.0,332.5 111.3,300.3 154.7,327.3 198.0,322.0 241.3,331.3 284.7,333.1 328.0,444.0 371.3,445.5 414.7,444.8 458.0,445.1 501.3,445.0 544.7,444.9 588.0,444.3 631.3,443.0 674.7,442.1 718.0,441.5 761.3,442.1 804.7,435.4 848.0,343.0 891.3,361.2 934.7,361.3 978.0,333.6 1021.3,371.0 1064.7,373.0 1108.0,379.3 1108.0,441.6 1064.7,440.1 1021.3,439.4 978.0,399.7 934.7,418.8 891.3,418.4 848.0,402.8 804.7,474.6 761.3,478.4 718.0,479.1 674.7,479.0 631.3,480.0 588.0,480.6 544.7,482.0 501.3,481.9 458.0,482.4 414.7,482.1 371.3,482.4 328.0,482.3 284.7,482.4 241.3,482.7 198.0,481.7 154.7,485.5 111.3,480.6 68.0,488.6" fill="#4a1486" fill-opacity="0.9" stroke="#fff" stroke-width="0.4"><title>emit_cuda — linkAndOptimizeIR (self)</title></polygon>
<polygon points="68.0,168.8 111.3,110.0 154.7,160.4 198.0,153.7 241.3,171.7 284.7,175.4 328.0,397.2 371.3,400.2 414.7,399.2 458.0,399.4 501.3,399.9 544.7,399.3 588.0,398.4 631.3,396.2 674.7,395.5 718.0,394.2 761.3,395.8 804.7,385.2 848.0,207.3 891.3,237.7 934.7,237.7 978.0,189.1 1021.3,241.5 1064.7,246.9 1108.0,258.2 1108.0,379.3 1064.7,373.0 1021.3,371.0 978.0,333.6 934.7,361.3 891.3,361.2 848.0,343.0 804.7,435.4 761.3,442.1 718.0,441.5 674.7,442.1 631.3,443.0 588.0,444.3 544.7,444.9 501.3,445.0 458.0,445.1 414.7,444.8 371.3,445.5 328.0,444.0 284.7,333.1 241.3,331.3 198.0,322.0 154.7,327.3 111.3,300.3 68.0,332.5" fill="#fd8d3c" fill-opacity="0.9" stroke="#fff" stroke-width="0.4"><title>emit_cuda — emitEntryPointsSourceFromIR</title></polygon>
<polygon points="68.0,168.8 111.3,108.6 154.7,159.6 198.0,153.7 241.3,171.7 284.7,175.4 328.0,397.1 371.3,400.1 414.7,399.1 458.0,399.1 501.3,399.8 544.7,399.2 588.0,398.0 631.3,396.0 674.7,395.5 718.0,394.0 761.3,395.7 804.7,385.2 848.0,205.3 891.3,237.7 934.7,237.7 978.0,188.7 1021.3,237.9 1064.7,246.9 1108.0,257.3 1108.0,258.2 1064.7,246.9 1021.3,241.5 978.0,189.1 934.7,237.7 891.3,237.7 848.0,207.3 804.7,385.2 761.3,395.8 718.0,394.2 674.7,395.5 631.3,396.2 588.0,398.4 544.7,399.3 501.3,399.9 458.0,399.4 414.7,399.2 371.3,400.2 328.0,397.2 284.7,175.4 241.3,171.7 198.0,153.7 154.7,160.4 111.3,110.0 68.0,168.8" fill="#969696" fill-opacity="0.9" stroke="#fff" stroke-width="0.4"><title>emit_cuda — compileInner (self)</title></polygon>
<text x="12" y="578" fill="#666" font-weight="600">phase buckets</text>
<rect x="12" y="586" width="12" height="12" fill="#c7e9c0"/>
<text x="28" y="596" fill="#222">parseTranslationUnit</text>
<rect x="289" y="586" width="12" height="12" fill="#41ab5d"/>
<text x="305" y="596" fill="#222">SemanticChecking</text>
<rect x="566" y="586" width="12" height="12" fill="#006d2c"/>
<text x="582" y="596" fill="#222">generateIR</text>
<rect x="843" y="586" width="12" height="12" fill="#74c476"/>
<text x="859" y="596" fill="#222">frontEndExecute (self)</text>
<rect x="12" y="604" width="12" height="12" fill="#6baed6"/>
<text x="28" y="614" fill="#222">specializeModule</text>
<rect x="289" y="604" width="12" height="12" fill="#2171b5"/>
<text x="305" y="614" fill="#222">simplifyIR</text>
<rect x="566" y="604" width="12" height="12" fill="#08306b"/>
<text x="582" y="614" fill="#222">linkIR</text>
<rect x="843" y="604" width="12" height="12" fill="#9e9ac8"/>
<text x="859" y="614" fill="#222">unrollLoopsInModule</text>
<rect x="12" y="622" width="12" height="12" fill="#807dba"/>
<text x="28" y="632" fill="#222">legalizeResourceTypes</text>
<rect x="289" y="622" width="12" height="12" fill="#6a51a3"/>
<text x="305" y="632" fill="#222">legalizeExistentialTypeLayout</text>
<rect x="566" y="622" width="12" height="12" fill="#bcbddc"/>
<text x="582" y="632" fill="#222">performMandatoryEarlyInlining</text>
<rect x="843" y="622" width="12" height="12" fill="#dadaeb"/>
<text x="859" y="632" fill="#222">performForceInlining</text>
<rect x="12" y="640" width="12" height="12" fill="#4a1486"/>
<text x="28" y="650" fill="#222">linkAndOptimizeIR (self)</text>
<rect x="289" y="640" width="12" height="12" fill="#fd8d3c"/>
<text x="305" y="650" fill="#222">emitEntryPointsSourceFromIR</text>
<rect x="566" y="640" width="12" height="12" fill="#e6550d"/>
<text x="582" y="650" fill="#222">generateOutput (self)</text>
<rect x="843" y="640" width="12" height="12" fill="#969696"/>
<text x="859" y="650" fill="#222">compileInner (self)</text>
</svg>