<svg xmlns="http://www.w3.org/2000/svg" xmlns:xlink="http://www.w3.org/1999/xlink" width="1132" height="680" viewBox="0 0 1132 680" preserveAspectRatio="xMidYMid meet" font-family="sans-serif" font-size="13">
<rect width="1132" height="680" fill="white"/>
<text x="12" y="30" font-size="20" font-weight="bold">emit_metal — Daily tip-of-tree (last 30 days) (median ms)</text>
<text x="68" y="60" font-size="15" font-weight="600" fill="#1a1a1a">emit_metal<tspan fill="#888" font-weight="400" text-decoration="none">  0.31×</tspan></text>
<line x1="68.0" y1="516.0" x2="1108.0" y2="516.0" stroke="#eee"/>
<text x="64.0" y="519.0" text-anchor="end" fill="#999">0.0</text>
<line x1="68.0" y1="296.0" x2="1108.0" y2="296.0" stroke="#eee"/>
<text x="64.0" y="299.0" text-anchor="end" fill="#999">622</text>
<line x1="68.0" y1="76.0" x2="1108.0" y2="76.0" stroke="#eee"/>
<text x="64.0" y="79.0" text-anchor="end" fill="#999">1244</text>
<line x1="68.0" y1="76.0" x2="68.0" y2="516.0" stroke="#333"/>
<line x1="68.0" y1="516.0" x2="1108.0" y2="516.0" stroke="#333"/>
<line x1="68.0" y1="516.0" x2="68.0" y2="519.0" stroke="#999"/>
<text x="68.0" y="531.0" text-anchor="end" fill="#e8731a" transform="rotate(-50 68.0 531.0)">06-25</text>
<line x1="142.3" y1="516.0" x2="142.3" y2="519.0" stroke="#999"/>
<text x="142.3" y="531.0" text-anchor="end" fill="#e8731a" transform="rotate(-50 142.3 531.0)">06-26</text>
<line x1="216.6" y1="516.0" x2="216.6" y2="519.0" stroke="#999"/>
<text x="216.6" y="531.0" text-anchor="end" fill="#e8731a" transform="rotate(-50 216.6 531.0)">06-28</text>
<line x1="290.9" y1="516.0" x2="290.9" y2="519.0" stroke="#999"/>
<text x="290.9" y="531.0" text-anchor="end" fill="#e8731a" transform="rotate(-50 290.9 531.0)">07-01</text>
<line x1="365.1" y1="516.0" x2="365.1" y2="519.0" stroke="#999"/>
<text x="365.1" y="531.0" text-anchor="end" fill="#e8731a" transform="rotate(-50 365.1 531.0)">07-02</text>
<line x1="439.4" y1="516.0" x2="439.4" y2="519.0" stroke="#999"/>
<text x="439.4" y="531.0" text-anchor="end" fill="#e8731a" transform="rotate(-50 439.4 531.0)">07-03</text>
<line x1="513.7" y1="516.0" x2="513.7" y2="519.0" stroke="#999"/>
<text x="513.7" y="531.0" text-anchor="end" fill="#e8731a" transform="rotate(-50 513.7 531.0)">07-06</text>
<line x1="588.0" y1="516.0" x2="588.0" y2="519.0" stroke="#999"/>
<text x="588.0" y="531.0" text-anchor="end" fill="#e8731a" transform="rotate(-50 588.0 531.0)">07-07</text>
<line x1="662.3" y1="516.0" x2="662.3" y2="519.0" stroke="#999"/>
<text x="662.3" y="531.0" text-anchor="end" fill="#e8731a" transform="rotate(-50 662.3 531.0)">07-08</text>
<line x1="736.6" y1="516.0" x2="736.6" y2="519.0" stroke="#999"/>
<text x="736.6" y="531.0" text-anchor="end" fill="#e8731a" transform="rotate(-50 736.6 531.0)">07-09</text>
<line x1="810.9" y1="516.0" x2="810.9" y2="519.0" stroke="#999"/>
<text x="810.9" y="531.0" text-anchor="end" fill="#e8731a" transform="rotate(-50 810.9 531.0)">07-10</text>
<line x1="885.1" y1="516.0" x2="885.1" y2="519.0" stroke="#999"/>
<text x="885.1" y="531.0" text-anchor="end" fill="#e8731a" transform="rotate(-50 885.1 531.0)">07-11</text>
<line x1="959.4" y1="516.0" x2="959.4" y2="519.0" stroke="#999"/>
<text x="959.4" y="531.0" text-anchor="end" fill="#e8731a" transform="rotate(-50 959.4 531.0)">07-13</text>
<line x1="1033.7" y1="516.0" x2="1033.7" y2="519.0" stroke="#999"/>
<text x="1033.7" y="531.0" text-anchor="end" fill="#e8731a" transform="rotate(-50 1033.7 531.0)">07-14</text>
<line x1="1108.0" y1="516.0" x2="1108.0" y2="519.0" stroke="#999"/>
<text x="1108.0" y="531.0" text-anchor="end" fill="#e8731a" transform="rotate(-50 1108.0 531.0)">07-15</text>
<polygon points="68.0,515.6 142.3,515.6 216.6,515.6 290.9,515.6 365.1,515.6 439.4,515.6 513.7,515.6 588.0,515.7 662.3,515.7 736.6,515.7 810.9,515.7 885.1,515.7 1033.7,515.7 1108.0,515.7 1108.0,516.0 1033.7,516.0 885.1,516.0 810.9,516.0 736.6,516.0 662.3,516.0 588.0,516.0 513.7,516.0 439.4,516.0 365.1,516.0 290.9,516.0 216.6,516.0 142.3,516.0 68.0,516.0" fill="#c7e9c0" fill-opacity="0.9" stroke="#fff" stroke-width="0.4"><title>emit_metal — parseTranslationUnit</title></polygon>
<polygon points="68.0,502.6 142.3,502.9 216.6,502.6 290.9,502.8 365.1,502.4 439.4,502.7 513.7,502.6 588.0,503.3 662.3,502.7 736.6,503.2 810.9,503.2 885.1,502.8 1033.7,502.9 1108.0,503.6 1108.0,515.7 1033.7,515.7 885.1,515.7 810.9,515.7 736.6,515.7 662.3,515.7 588.0,515.7 513.7,515.6 439.4,515.6 365.1,515.6 290.9,515.6 216.6,515.6 142.3,515.6 68.0,515.6" fill="#41ab5d" fill-opacity="0.9" stroke="#fff" stroke-width="0.4"><title>emit_metal — SemanticChecking</title></polygon>
<polygon points="68.0,496.2 142.3,497.0 216.6,496.5 290.9,496.9 365.1,496.5 439.4,496.9 513.7,496.7 588.0,497.5 662.3,496.6 736.6,497.3 810.9,499.6 885.1,499.2 1033.7,499.4 1108.0,500.1 1108.0,503.6 1033.7,502.9 885.1,502.8 810.9,503.2 736.6,503.2 662.3,502.7 588.0,503.3 513.7,502.6 439.4,502.7 365.1,502.4 290.9,502.8 216.6,502.6 142.3,502.9 68.0,502.6" fill="#006d2c" fill-opacity="0.9" stroke="#fff" stroke-width="0.4"><title>emit_metal — generateIR</title></polygon>
<polygon points="68.0,496.1 142.3,496.9 216.6,496.4 290.9,496.8 365.1,496.4 439.4,496.7 513.7,496.6 588.0,497.3 662.3,496.6 736.6,497.1 810.9,499.5 885.1,499.1 1033.7,499.1 1108.0,500.0 1108.0,500.1 1033.7,499.4 885.1,499.2 810.9,499.6 736.6,497.3 662.3,496.6 588.0,497.5 513.7,496.7 439.4,496.9 365.1,496.5 290.9,496.9 216.6,496.5 142.3,497.0 68.0,496.2" fill="#74c476" fill-opacity="0.9" stroke="#fff" stroke-width="0.4"><title>emit_metal — frontEndExecute (self)</title></polygon>
<polygon points="68.0,485.5 142.3,486.7 216.6,485.7 290.9,486.4 365.1,486.2 439.4,486.6 513.7,486.5 588.0,486.2 662.3,485.1 736.6,485.3 810.9,495.3 885.1,494.9 1033.7,494.9 1108.0,496.2 1108.0,500.0 1033.7,499.1 885.1,499.1 810.9,499.5 736.6,497.1 662.3,496.6 588.0,497.3 513.7,496.6 439.4,496.7 365.1,496.4 290.9,496.8 216.6,496.4 142.3,496.9 68.0,496.1" fill="#6baed6" fill-opacity="0.9" stroke="#fff" stroke-width="0.4"><title>emit_metal — specializeModule</title></polygon>
<polygon points="68.0,452.3 142.3,454.2 216.6,451.9 290.9,453.2 365.1,453.4 439.4,453.7 513.7,454.8 588.0,453.6 662.3,450.1 736.6,450.9 810.9,491.2 885.1,490.8 1033.7,490.8 1108.0,492.1 1108.0,496.2 1033.7,494.9 885.1,494.9 810.9,495.3 736.6,485.3 662.3,485.1 588.0,486.2 513.7,486.5 439.4,486.6 365.1,486.2 290.9,486.4 216.6,485.7 142.3,486.7 68.0,485.5" fill="#2171b5" fill-opacity="0.9" stroke="#fff" stroke-width="0.4"><title>emit_metal — simplifyIR</title></polygon>
<polygon points="68.0,451.6 142.3,453.6 216.6,451.3 290.9,452.5 365.1,452.8 439.4,453.1 513.7,454.2 588.0,453.1 662.3,449.5 736.6,450.4 810.9,490.7 885.1,490.4 1033.7,490.3 1108.0,491.7 1108.0,492.1 1033.7,490.8 885.1,490.8 810.9,491.2 736.6,450.9 662.3,450.1 588.0,453.6 513.7,454.8 439.4,453.7 365.1,453.4 290.9,453.2 216.6,451.9 142.3,454.2 68.0,452.3" fill="#08306b" fill-opacity="0.9" stroke="#fff" stroke-width="0.4"><title>emit_metal — linkIR</title></polygon>
<polygon points="68.0,451.6 142.3,453.6 216.6,451.2 290.9,452.5 365.1,452.8 439.4,453.1 513.7,454.2 588.0,453.1 662.3,449.5 736.6,450.4 810.9,490.7 885.1,490.4 1033.7,490.3 1108.0,491.7 1108.0,491.7 1033.7,490.3 885.1,490.4 810.9,490.7 736.6,450.4 662.3,449.5 588.0,453.1 513.7,454.2 439.4,453.1 365.1,452.8 290.9,452.5 216.6,451.3 142.3,453.6 68.0,451.6" fill="#9e9ac8" fill-opacity="0.9" stroke="#fff" stroke-width="0.4"><title>emit_metal — unrollLoopsInModule</title></polygon>
<polygon points="68.0,386.7 142.3,389.7 216.6,387.1 290.9,389.1 365.1,389.8 439.4,391.2 513.7,391.2 588.0,391.7 662.3,374.4 736.6,380.4 810.9,471.2 885.1,470.9 1033.7,471.2 1108.0,471.9 1108.0,491.7 1033.7,490.3 885.1,490.4 810.9,490.7 736.6,450.4 662.3,449.5 588.0,453.1 513.7,454.2 439.4,453.1 365.1,452.8 290.9,452.5 216.6,451.2 142.3,453.6 68.0,451.6" fill="#807dba" fill-opacity="0.9" stroke="#fff" stroke-width="0.4"><title>emit_metal — legalizeResourceTypes</title></polygon>
<polygon points="68.0,321.6 142.3,325.1 216.6,321.9 290.9,325.4 365.1,325.7 439.4,327.6 513.7,327.4 588.0,328.8 662.3,307.7 736.6,314.0 810.9,451.6 885.1,451.1 1033.7,451.7 1108.0,452.0 1108.0,471.9 1033.7,471.2 885.1,470.9 810.9,471.2 736.6,380.4 662.3,374.4 588.0,391.7 513.7,391.2 439.4,391.2 365.1,389.8 290.9,389.1 216.6,387.1 142.3,389.7 68.0,386.7" fill="#6a51a3" fill-opacity="0.9" stroke="#fff" stroke-width="0.4"><title>emit_metal — legalizeExistentialTypeLayout</title></polygon>
<polygon points="68.0,321.4 142.3,325.0 216.6,321.8 290.9,325.3 365.1,325.6 439.4,327.5 513.7,327.2 588.0,328.7 662.3,307.5 736.6,313.9 810.9,451.4 885.1,451.0 1033.7,451.6 1108.0,451.9 1108.0,452.0 1033.7,451.7 885.1,451.1 810.9,451.6 736.6,314.0 662.3,307.7 588.0,328.8 513.7,327.4 439.4,327.6 365.1,325.7 290.9,325.4 216.6,321.9 142.3,325.1 68.0,321.6" fill="#bcbddc" fill-opacity="0.9" stroke="#fff" stroke-width="0.4"><title>emit_metal — performMandatoryEarlyInlining</title></polygon>
<polygon points="68.0,321.3 142.3,324.9 216.6,321.7 290.9,325.2 365.1,325.5 439.4,327.3 513.7,327.1 588.0,328.6 662.3,307.4 736.6,313.7 810.9,451.3 885.1,450.9 1033.7,451.5 1108.0,451.8 1108.0,451.9 1033.7,451.6 885.1,451.0 810.9,451.4 736.6,313.9 662.3,307.5 588.0,328.7 513.7,327.2 439.4,327.5 365.1,325.6 290.9,325.3 216.6,321.8 142.3,325.0 68.0,321.4" fill="#dadaeb" fill-opacity="0.9" stroke="#fff" stroke-width="0.4"><title>emit_metal — performForceInlining</title></polygon>
<polygon points="68.0,141.8 142.3,148.1 216.6,142.0 290.9,148.7 365.1,149.8 439.4,153.2 513.7,152.8 588.0,155.0 662.3,113.3 736.6,125.6 810.9,398.2 885.1,397.7 1033.7,398.9 1108.0,398.9 1108.0,451.8 1033.7,451.5 885.1,450.9 810.9,451.3 736.6,313.7 662.3,307.4 588.0,328.6 513.7,327.1 439.4,327.3 365.1,325.5 290.9,325.2 216.6,321.7 142.3,324.9 68.0,321.3" fill="#fd8d3c" fill-opacity="0.9" stroke="#fff" stroke-width="0.4"><title>emit_metal — emitEntryPointsSourceFromIR</title></polygon>
<polygon points="68.0,141.7 142.3,148.1 216.6,141.5 290.9,148.6 365.1,149.4 439.4,153.1 513.7,152.8 588.0,154.9 662.3,108.6 736.6,125.6 810.9,398.2 885.1,397.4 1033.7,398.7 1108.0,398.9 1108.0,398.9 1033.7,398.9 885.1,397.7 810.9,398.2 736.6,125.6 662.3,113.3 588.0,155.0 513.7,152.8 439.4,153.2 365.1,149.8 290.9,148.7 216.6,142.0 142.3,148.1 68.0,141.8" fill="#969696" fill-opacity="0.9" stroke="#fff" stroke-width="0.4"><title>emit_metal — compileInner (self)</title></polygon>
<text x="12" y="578" fill="#666" font-weight="600">phase buckets</text>
<rect x="12" y="586" width="12" height="12" fill="#c7e9c0"/>
<text x="28" y="596" fill="#222">parseTranslationUnit</text>
<rect x="289" y="586" width="12" height="12" fill="#41ab5d"/>
<text x="305" y="596" fill="#222">SemanticChecking</text>
<rect x="566" y="586" width="12" height="12" fill="#006d2c"/>
<text x="582" y="596" fill="#222">generateIR</text>
<rect x="843" y="586" width="12" height="12" fill="#74c476"/>
<text x="859" y="596" fill="#222">frontEndExecute (self)</text>
<rect x="12" y="604" width="12" height="12" fill="#6baed6"/>
<text x="28" y="614" fill="#222">specializeModule</text>
<rect x="289" y="604" width="12" height="12" fill="#2171b5"/>
<text x="305" y="614" fill="#222">simplifyIR</text>
<rect x="566" y="604" width="12" height="12" fill="#08306b"/>
<text x="582" y="614" fill="#222">linkIR</text>
<rect x="843" y="604" width="12" height="12" fill="#9e9ac8"/>
<text x="859" y="614" fill="#222">unrollLoopsInModule</text>
<rect x="12" y="622" width="12" height="12" fill="#807dba"/>
<text x="28" y="632" fill="#222">legalizeResourceTypes</text>
<rect x="289" y="622" width="12" height="12" fill="#6a51a3"/>
<text x="305" y="632" fill="#222">legalizeExistentialTypeLayout</text>
<rect x="566" y="622" width="12" height="12" fill="#bcbddc"/>
<text x="582" y="632" fill="#222">performMandatoryEarlyInlining</text>
<rect x="843" y="622" width="12" height="12" fill="#dadaeb"/>
<text x="859" y="632" fill="#222">performForceInlining</text>
<rect x="12" y="640" width="12" height="12" fill="#4a1486"/>
<text x="28" y="650" fill="#222">linkAndOptimizeIR (self)</text>
<rect x="289" y="640" width="12" height="12" fill="#fd8d3c"/>
<text x="305" y="650" fill="#222">emitEntryPointsSourceFromIR</text>
<rect x="566" y="640" width="12" height="12" fill="#e6550d"/>
<text x="582" y="650" fill="#222">generateOutput (self)</text>
<rect x="843" y="640" width="12" height="12" fill="#969696"/>
<text x="859" y="650" fill="#222">compileInner (self)</text>
</svg>