<svg xmlns="http://www.w3.org/2000/svg" xmlns:xlink="http://www.w3.org/1999/xlink" width="1132" height="680" viewBox="0 0 1132 680" preserveAspectRatio="xMidYMid meet" font-family="sans-serif" font-size="13">
<rect width="1132" height="680" fill="white"/>
<text x="12" y="30" font-size="20" font-weight="bold">emit_hlsl — Daily tip-of-tree (last 30 days) (median ms)</text>
<text x="68" y="60" font-size="15" font-weight="600" fill="#1a1a1a">emit_hlsl<tspan fill="#888" font-weight="400" text-decoration="none">  0.39×</tspan></text>
<line x1="68.0" y1="516.0" x2="1108.0" y2="516.0" stroke="#eee"/>
<text x="64.0" y="519.0" text-anchor="end" fill="#999">0.0</text>
<line x1="68.0" y1="296.0" x2="1108.0" y2="296.0" stroke="#eee"/>
<text x="64.0" y="299.0" text-anchor="end" fill="#999">493</text>
<line x1="68.0" y1="76.0" x2="1108.0" y2="76.0" stroke="#eee"/>
<text x="64.0" y="79.0" text-anchor="end" fill="#999">987</text>
<line x1="68.0" y1="76.0" x2="68.0" y2="516.0" stroke="#333"/>
<line x1="68.0" y1="516.0" x2="1108.0" y2="516.0" stroke="#333"/>
<line x1="68.0" y1="516.0" x2="68.0" y2="519.0" stroke="#999"/>
<text x="68.0" y="531.0" text-anchor="end" fill="#e8731a" transform="rotate(-50 68.0 531.0)">06-25</text>
<line x1="133.0" y1="516.0" x2="133.0" y2="519.0" stroke="#999"/>
<text x="133.0" y="531.0" text-anchor="end" fill="#e8731a" transform="rotate(-50 133.0 531.0)">06-26</text>
<line x1="198.0" y1="516.0" x2="198.0" y2="519.0" stroke="#999"/>
<text x="198.0" y="531.0" text-anchor="end" fill="#e8731a" transform="rotate(-50 198.0 531.0)">06-28</text>
<line x1="263.0" y1="516.0" x2="263.0" y2="519.0" stroke="#999"/>
<text x="263.0" y="531.0" text-anchor="end" fill="#e8731a" transform="rotate(-50 263.0 531.0)">07-01</text>
<line x1="328.0" y1="516.0" x2="328.0" y2="519.0" stroke="#999"/>
<text x="328.0" y="531.0" text-anchor="end" fill="#e8731a" transform="rotate(-50 328.0 531.0)">07-02</text>
<line x1="393.0" y1="516.0" x2="393.0" y2="519.0" stroke="#999"/>
<text x="393.0" y="531.0" text-anchor="end" fill="#e8731a" transform="rotate(-50 393.0 531.0)">07-03</text>
<line x1="458.0" y1="516.0" x2="458.0" y2="519.0" stroke="#999"/>
<text x="458.0" y="531.0" text-anchor="end" fill="#e8731a" transform="rotate(-50 458.0 531.0)">07-06</text>
<line x1="523.0" y1="516.0" x2="523.0" y2="519.0" stroke="#999"/>
<text x="523.0" y="531.0" text-anchor="end" fill="#e8731a" transform="rotate(-50 523.0 531.0)">07-07</text>
<line x1="588.0" y1="516.0" x2="588.0" y2="519.0" stroke="#999"/>
<text x="588.0" y="531.0" text-anchor="end" fill="#e8731a" transform="rotate(-50 588.0 531.0)">07-08</text>
<line x1="653.0" y1="516.0" x2="653.0" y2="519.0" stroke="#999"/>
<text x="653.0" y="531.0" text-anchor="end" fill="#e8731a" transform="rotate(-50 653.0 531.0)">07-09</text>
<line x1="718.0" y1="516.0" x2="718.0" y2="519.0" stroke="#999"/>
<text x="718.0" y="531.0" text-anchor="end" fill="#e8731a" transform="rotate(-50 718.0 531.0)">07-10</text>
<line x1="783.0" y1="516.0" x2="783.0" y2="519.0" stroke="#999"/>
<text x="783.0" y="531.0" text-anchor="end" fill="#e8731a" transform="rotate(-50 783.0 531.0)">07-11</text>
<line x1="848.0" y1="516.0" x2="848.0" y2="519.0" stroke="#999"/>
<text x="848.0" y="531.0" text-anchor="end" fill="#e8731a" transform="rotate(-50 848.0 531.0)">07-14</text>
<line x1="913.0" y1="516.0" x2="913.0" y2="519.0" stroke="#999"/>
<text x="913.0" y="531.0" text-anchor="end" fill="#e8731a" transform="rotate(-50 913.0 531.0)">07-15</text>
<line x1="978.0" y1="516.0" x2="978.0" y2="519.0" stroke="#999"/>
<text x="978.0" y="531.0" text-anchor="end" fill="#e8731a" transform="rotate(-50 978.0 531.0)">07-15</text>
<line x1="1043.0" y1="516.0" x2="1043.0" y2="519.0" stroke="#999"/>
<text x="1043.0" y="531.0" text-anchor="end" fill="#e8731a" transform="rotate(-50 1043.0 531.0)">07-16</text>
<line x1="1108.0" y1="516.0" x2="1108.0" y2="519.0" stroke="#999"/>
<text x="1108.0" y="531.0" text-anchor="end" fill="#e8731a" transform="rotate(-50 1108.0 531.0)">07-17</text>
<polygon points="68.0,515.5 133.0,515.5 198.0,515.5 263.0,515.5 328.0,515.5 393.0,515.5 458.0,515.5 523.0,515.6 588.0,515.6 653.0,515.6 718.0,515.6 783.0,515.6 848.0,515.6 913.0,515.6 978.0,515.6 1043.0,515.6 1108.0,515.6 1108.0,516.0 1043.0,516.0 978.0,516.0 913.0,516.0 848.0,516.0 783.0,516.0 718.0,516.0 653.0,516.0 588.0,516.0 523.0,516.0 458.0,516.0 393.0,516.0 328.0,516.0 263.0,516.0 198.0,516.0 133.0,516.0 68.0,516.0" fill="#c7e9c0" fill-opacity="0.9" stroke="#fff" stroke-width="0.4"><title>emit_hlsl — parseTranslationUnit</title></polygon>
<polygon points="68.0,499.0 133.0,498.5 198.0,498.2 263.0,499.5 328.0,498.2 393.0,499.3 458.0,499.2 523.0,499.8 588.0,499.7 653.0,499.6 718.0,499.5 783.0,499.4 848.0,499.1 913.0,500.6 978.0,500.8 1043.0,498.6 1108.0,498.6 1108.0,515.6 1043.0,515.6 978.0,515.6 913.0,515.6 848.0,515.6 783.0,515.6 718.0,515.6 653.0,515.6 588.0,515.6 523.0,515.6 458.0,515.5 393.0,515.5 328.0,515.5 263.0,515.5 198.0,515.5 133.0,515.5 68.0,515.5" fill="#41ab5d" fill-opacity="0.9" stroke="#fff" stroke-width="0.4"><title>emit_hlsl — SemanticChecking</title></polygon>
<polygon points="68.0,491.1 133.0,490.9 198.0,490.4 263.0,492.1 328.0,490.2 393.0,492.0 458.0,491.9 523.0,492.4 588.0,491.7 653.0,492.1 718.0,495.0 783.0,494.9 848.0,494.7 913.0,496.2 978.0,496.4 1043.0,494.4 1108.0,494.4 1108.0,498.6 1043.0,498.6 978.0,500.8 913.0,500.6 848.0,499.1 783.0,499.4 718.0,499.5 653.0,499.6 588.0,499.7 523.0,499.8 458.0,499.2 393.0,499.3 328.0,498.2 263.0,499.5 198.0,498.2 133.0,498.5 68.0,499.0" fill="#006d2c" fill-opacity="0.9" stroke="#fff" stroke-width="0.4"><title>emit_hlsl — generateIR</title></polygon>
<polygon points="68.0,491.0 133.0,490.5 198.0,490.2 263.0,491.8 328.0,490.2 393.0,491.9 458.0,491.7 523.0,492.2 588.0,491.4 653.0,491.9 718.0,494.8 783.0,494.7 848.0,494.0 913.0,496.0 978.0,496.2 1043.0,494.3 1108.0,494.3 1108.0,494.4 1043.0,494.4 978.0,496.4 913.0,496.2 848.0,494.7 783.0,494.9 718.0,495.0 653.0,492.1 588.0,491.7 523.0,492.4 458.0,491.9 393.0,492.0 328.0,490.2 263.0,492.1 198.0,490.4 133.0,490.9 68.0,491.1" fill="#74c476" fill-opacity="0.9" stroke="#fff" stroke-width="0.4"><title>emit_hlsl — frontEndExecute (self)</title></polygon>
<polygon points="68.0,480.8 133.0,479.8 198.0,479.5 263.0,481.5 328.0,479.4 393.0,481.8 458.0,481.7 523.0,481.1 588.0,479.3 653.0,480.7 718.0,489.7 783.0,489.5 848.0,488.8 913.0,491.3 978.0,491.4 1043.0,489.4 1108.0,489.5 1108.0,494.3 1043.0,494.3 978.0,496.2 913.0,496.0 848.0,494.0 783.0,494.7 718.0,494.8 653.0,491.9 588.0,491.4 523.0,492.2 458.0,491.7 393.0,491.9 328.0,490.2 263.0,491.8 198.0,490.2 133.0,490.5 68.0,491.0" fill="#6baed6" fill-opacity="0.9" stroke="#fff" stroke-width="0.4"><title>emit_hlsl — specializeModule</title></polygon>
<polygon points="68.0,452.9 133.0,450.9 198.0,449.6 263.0,452.9 328.0,449.1 393.0,454.1 458.0,454.7 523.0,453.6 588.0,449.4 653.0,452.2 718.0,485.4 783.0,485.2 848.0,484.5 913.0,486.9 978.0,487.0 1043.0,485.1 1108.0,485.3 1108.0,489.5 1043.0,489.4 978.0,491.4 913.0,491.3 848.0,488.8 783.0,489.5 718.0,489.7 653.0,480.7 588.0,479.3 523.0,481.1 458.0,481.7 393.0,481.8 328.0,479.4 263.0,481.5 198.0,479.5 133.0,479.8 68.0,480.8" fill="#2171b5" fill-opacity="0.9" stroke="#fff" stroke-width="0.4"><title>emit_hlsl — simplifyIR</title></polygon>
<polygon points="68.0,452.3 133.0,450.2 198.0,448.9 263.0,452.3 328.0,448.5 393.0,453.5 458.0,454.1 523.0,453.0 588.0,448.9 653.0,451.7 718.0,484.8 783.0,484.7 848.0,483.9 913.0,486.4 978.0,486.5 1043.0,484.6 1108.0,484.8 1108.0,485.3 1043.0,485.1 978.0,487.0 913.0,486.9 848.0,484.5 783.0,485.2 718.0,485.4 653.0,452.2 588.0,449.4 523.0,453.6 458.0,454.7 393.0,454.1 328.0,449.1 263.0,452.9 198.0,449.6 133.0,450.9 68.0,452.9" fill="#08306b" fill-opacity="0.9" stroke="#fff" stroke-width="0.4"><title>emit_hlsl — linkIR</title></polygon>
<polygon points="68.0,452.3 133.0,450.2 198.0,448.9 263.0,452.3 328.0,448.5 393.0,453.5 458.0,454.1 523.0,453.0 588.0,448.9 653.0,451.7 718.0,484.8 783.0,484.7 848.0,483.9 913.0,486.4 978.0,486.5 1043.0,484.6 1108.0,484.8 1108.0,484.8 1043.0,484.6 978.0,486.5 913.0,486.4 848.0,483.9 783.0,484.7 718.0,484.8 653.0,451.7 588.0,448.9 523.0,453.0 458.0,454.1 393.0,453.5 328.0,448.5 263.0,452.3 198.0,448.9 133.0,450.2 68.0,452.3" fill="#9e9ac8" fill-opacity="0.9" stroke="#fff" stroke-width="0.4"><title>emit_hlsl — unrollLoopsInModule</title></polygon>
<polygon points="68.0,388.8 133.0,385.4 198.0,373.1 263.0,389.2 328.0,382.7 393.0,391.7 458.0,391.0 523.0,390.9 588.0,383.6 653.0,388.7 718.0,461.1 783.0,460.9 848.0,460.4 913.0,462.1 978.0,461.8 1043.0,460.7 1108.0,461.3 1108.0,484.8 1043.0,484.6 978.0,486.5 913.0,486.4 848.0,483.9 783.0,484.7 718.0,484.8 653.0,451.7 588.0,448.9 523.0,453.0 458.0,454.1 393.0,453.5 328.0,448.5 263.0,452.3 198.0,448.9 133.0,450.2 68.0,452.3" fill="#807dba" fill-opacity="0.9" stroke="#fff" stroke-width="0.4"><title>emit_hlsl — legalizeResourceTypes</title></polygon>
<polygon points="68.0,324.6 133.0,319.1 198.0,304.4 263.0,325.0 328.0,316.3 393.0,328.1 458.0,327.5 523.0,328.7 588.0,315.8 653.0,325.9 718.0,436.8 783.0,436.7 848.0,436.0 913.0,437.7 978.0,437.0 1043.0,436.6 1108.0,437.4 1108.0,461.3 1043.0,460.7 978.0,461.8 913.0,462.1 848.0,460.4 783.0,460.9 718.0,461.1 653.0,388.7 588.0,383.6 523.0,390.9 458.0,391.0 393.0,391.7 328.0,382.7 263.0,389.2 198.0,373.1 133.0,385.4 68.0,388.8" fill="#6a51a3" fill-opacity="0.9" stroke="#fff" stroke-width="0.4"><title>emit_hlsl — legalizeExistentialTypeLayout</title></polygon>
<polygon points="68.0,324.5 133.0,319.0 198.0,304.2 263.0,324.9 328.0,316.1 393.0,328.0 458.0,327.4 523.0,328.5 588.0,315.6 653.0,325.8 718.0,436.6 783.0,436.5 848.0,435.9 913.0,437.5 978.0,436.9 1043.0,436.4 1108.0,437.3 1108.0,437.4 1043.0,436.6 978.0,437.0 913.0,437.7 848.0,436.0 783.0,436.7 718.0,436.8 653.0,325.9 588.0,315.8 523.0,328.7 458.0,327.5 393.0,328.1 328.0,316.3 263.0,325.0 198.0,304.4 133.0,319.1 68.0,324.6" fill="#bcbddc" fill-opacity="0.9" stroke="#fff" stroke-width="0.4"><title>emit_hlsl — performMandatoryEarlyInlining</title></polygon>
<polygon points="68.0,324.4 133.0,318.9 198.0,304.2 263.0,324.8 328.0,316.1 393.0,327.9 458.0,327.3 523.0,328.5 588.0,315.5 653.0,325.7 718.0,436.6 783.0,436.5 848.0,435.8 913.0,437.4 978.0,436.8 1043.0,436.3 1108.0,437.2 1108.0,437.3 1043.0,436.4 978.0,436.9 913.0,437.5 848.0,435.9 783.0,436.5 718.0,436.6 653.0,325.8 588.0,315.6 523.0,328.5 458.0,327.4 393.0,328.0 328.0,316.1 263.0,324.9 198.0,304.2 133.0,319.0 68.0,324.5" fill="#dadaeb" fill-opacity="0.9" stroke="#fff" stroke-width="0.4"><title>emit_hlsl — performForceInlining</title></polygon>
<polygon points="68.0,151.9 133.0,141.1 198.0,111.8 263.0,151.6 328.0,135.8 393.0,157.9 458.0,157.0 523.0,158.6 588.0,132.8 653.0,153.3 718.0,372.0 783.0,371.7 848.0,371.1 913.0,372.8 978.0,371.4 1043.0,372.2 1108.0,374.1 1108.0,437.2 1043.0,436.3 978.0,436.8 913.0,437.4 848.0,435.8 783.0,436.5 718.0,436.6 653.0,325.7 588.0,315.5 523.0,328.5 458.0,327.3 393.0,327.9 328.0,316.1 263.0,324.8 198.0,304.2 133.0,318.9 68.0,324.4" fill="#fd8d3c" fill-opacity="0.9" stroke="#fff" stroke-width="0.4"><title>emit_hlsl — emitEntryPointsSourceFromIR</title></polygon>
<polygon points="68.0,151.9 133.0,140.8 198.0,108.6 263.0,151.6 328.0,135.8 393.0,157.9 458.0,156.9 523.0,158.4 588.0,132.8 653.0,150.5 718.0,371.4 783.0,371.7 848.0,370.7 913.0,372.7 978.0,371.4 1043.0,372.2 1108.0,374.0 1108.0,374.1 1043.0,372.2 978.0,371.4 913.0,372.8 848.0,371.1 783.0,371.7 718.0,372.0 653.0,153.3 588.0,132.8 523.0,158.6 458.0,157.0 393.0,157.9 328.0,135.8 263.0,151.6 198.0,111.8 133.0,141.1 68.0,151.9" fill="#969696" fill-opacity="0.9" stroke="#fff" stroke-width="0.4"><title>emit_hlsl — compileInner (self)</title></polygon>
<text x="12" y="578" fill="#666" font-weight="600">phase buckets</text>
<rect x="12" y="586" width="12" height="12" fill="#c7e9c0"/>
<text x="28" y="596" fill="#222">parseTranslationUnit</text>
<rect x="289" y="586" width="12" height="12" fill="#41ab5d"/>
<text x="305" y="596" fill="#222">SemanticChecking</text>
<rect x="566" y="586" width="12" height="12" fill="#006d2c"/>
<text x="582" y="596" fill="#222">generateIR</text>
<rect x="843" y="586" width="12" height="12" fill="#74c476"/>
<text x="859" y="596" fill="#222">frontEndExecute (self)</text>
<rect x="12" y="604" width="12" height="12" fill="#6baed6"/>
<text x="28" y="614" fill="#222">specializeModule</text>
<rect x="289" y="604" width="12" height="12" fill="#2171b5"/>
<text x="305" y="614" fill="#222">simplifyIR</text>
<rect x="566" y="604" width="12" height="12" fill="#08306b"/>
<text x="582" y="614" fill="#222">linkIR</text>
<rect x="843" y="604" width="12" height="12" fill="#9e9ac8"/>
<text x="859" y="614" fill="#222">unrollLoopsInModule</text>
<rect x="12" y="622" width="12" height="12" fill="#807dba"/>
<text x="28" y="632" fill="#222">legalizeResourceTypes</text>
<rect x="289" y="622" width="12" height="12" fill="#6a51a3"/>
<text x="305" y="632" fill="#222">legalizeExistentialTypeLayout</text>
<rect x="566" y="622" width="12" height="12" fill="#bcbddc"/>
<text x="582" y="632" fill="#222">performMandatoryEarlyInlining</text>
<rect x="843" y="622" width="12" height="12" fill="#dadaeb"/>
<text x="859" y="632" fill="#222">performForceInlining</text>
<rect x="12" y="640" width="12" height="12" fill="#4a1486"/>
<text x="28" y="650" fill="#222">linkAndOptimizeIR (self)</text>
<rect x="289" y="640" width="12" height="12" fill="#fd8d3c"/>
<text x="305" y="650" fill="#222">emitEntryPointsSourceFromIR</text>
<rect x="566" y="640" width="12" height="12" fill="#e6550d"/>
<text x="582" y="650" fill="#222">generateOutput (self)</text>
<rect x="843" y="640" width="12" height="12" fill="#969696"/>
<text x="859" y="650" fill="#222">compileInner (self)</text>
</svg>