<svg xmlns="http://www.w3.org/2000/svg" xmlns:xlink="http://www.w3.org/1999/xlink" width="1132" height="680" viewBox="0 0 1132 680" preserveAspectRatio="xMidYMid meet" font-family="sans-serif" font-size="13">
<rect width="1132" height="680" fill="white"/>
<text x="12" y="30" font-size="20" font-weight="bold">emit_metal — full phase breakdown across releases (median ms)</text>
<text x="68" y="60" font-size="15" font-weight="600" fill="#1a1a1a">emit_metal<tspan fill="#888" font-weight="400" text-decoration="none">  0.43×</tspan></text>
<line x1="68.0" y1="516.0" x2="1108.0" y2="516.0" stroke="#eee"/>
<text x="64.0" y="519.0" text-anchor="end" fill="#999">0.0</text>
<line x1="68.0" y1="296.0" x2="1108.0" y2="296.0" stroke="#eee"/>
<text x="64.0" y="299.0" text-anchor="end" fill="#999">1352</text>
<line x1="68.0" y1="76.0" x2="1108.0" y2="76.0" stroke="#eee"/>
<text x="64.0" y="79.0" text-anchor="end" fill="#999">2704</text>
<line x1="68.0" y1="76.0" x2="68.0" y2="516.0" stroke="#333"/>
<line x1="68.0" y1="516.0" x2="1108.0" y2="516.0" stroke="#333"/>
<line x1="866.6" y1="76.0" x2="866.6" y2="516.0" stroke="#e8731a" stroke-width="1.2" stroke-dasharray="4 3"/>
<text x="869.6" y="87.0" fill="#e8731a" font-size="11">daily →</text>
<line x1="68.0" y1="516.0" x2="68.0" y2="519.0" stroke="#999"/>
<text x="68.0" y="531.0" text-anchor="end" fill="#666" transform="rotate(-50 68.0 531.0)">25.14</text>
<line x1="105.1" y1="516.0" x2="105.1" y2="519.0" stroke="#999"/>
<text x="105.1" y="531.0" text-anchor="end" fill="#666" transform="rotate(-50 105.1 531.0)">25.15</text>
<line x1="142.3" y1="516.0" x2="142.3" y2="519.0" stroke="#999"/>
<text x="142.3" y="531.0" text-anchor="end" fill="#666" transform="rotate(-50 142.3 531.0)">25.16</text>
<line x1="179.4" y1="516.0" x2="179.4" y2="519.0" stroke="#999"/>
<text x="179.4" y="531.0" text-anchor="end" fill="#666" transform="rotate(-50 179.4 531.0)">25.17</text>
<line x1="216.6" y1="516.0" x2="216.6" y2="519.0" stroke="#999"/>
<text x="216.6" y="531.0" text-anchor="end" fill="#666" transform="rotate(-50 216.6 531.0)">25.18</text>
<line x1="253.7" y1="516.0" x2="253.7" y2="519.0" stroke="#999"/>
<text x="253.7" y="531.0" text-anchor="end" fill="#666" transform="rotate(-50 253.7 531.0)">25.19</text>
<line x1="290.9" y1="516.0" x2="290.9" y2="519.0" stroke="#999"/>
<text x="290.9" y="531.0" text-anchor="end" fill="#666" transform="rotate(-50 290.9 531.0)">25.20</text>
<line x1="328.0" y1="516.0" x2="328.0" y2="519.0" stroke="#999"/>
<text x="328.0" y="531.0" text-anchor="end" fill="#666" transform="rotate(-50 328.0 531.0)">25.21</text>
<line x1="365.1" y1="516.0" x2="365.1" y2="519.0" stroke="#999"/>
<text x="365.1" y="531.0" text-anchor="end" fill="#666" transform="rotate(-50 365.1 531.0)">25.22</text>
<line x1="402.3" y1="516.0" x2="402.3" y2="519.0" stroke="#999"/>
<text x="402.3" y="531.0" text-anchor="end" fill="#666" transform="rotate(-50 402.3 531.0)">25.23</text>
<line x1="439.4" y1="516.0" x2="439.4" y2="519.0" stroke="#999"/>
<text x="439.4" y="531.0" text-anchor="end" fill="#666" transform="rotate(-50 439.4 531.0)">25.24</text>
<line x1="476.6" y1="516.0" x2="476.6" y2="519.0" stroke="#999"/>
<text x="476.6" y="531.0" text-anchor="end" fill="#666" transform="rotate(-50 476.6 531.0)">26.1</text>
<line x1="513.7" y1="516.0" x2="513.7" y2="519.0" stroke="#999"/>
<text x="513.7" y="531.0" text-anchor="end" fill="#666" transform="rotate(-50 513.7 531.0)">26.2</text>
<line x1="550.9" y1="516.0" x2="550.9" y2="519.0" stroke="#999"/>
<text x="550.9" y="531.0" text-anchor="end" fill="#666" transform="rotate(-50 550.9 531.0)">26.3</text>
<line x1="588.0" y1="516.0" x2="588.0" y2="519.0" stroke="#999"/>
<text x="588.0" y="531.0" text-anchor="end" fill="#666" transform="rotate(-50 588.0 531.0)">26.4</text>
<line x1="625.1" y1="516.0" x2="625.1" y2="519.0" stroke="#999"/>
<text x="625.1" y="531.0" text-anchor="end" fill="#666" transform="rotate(-50 625.1 531.0)">26.5</text>
<line x1="662.3" y1="516.0" x2="662.3" y2="519.0" stroke="#999"/>
<text x="662.3" y="531.0" text-anchor="end" fill="#666" transform="rotate(-50 662.3 531.0)">26.7</text>
<line x1="699.4" y1="516.0" x2="699.4" y2="519.0" stroke="#999"/>
<text x="699.4" y="531.0" text-anchor="end" fill="#666" transform="rotate(-50 699.4 531.0)">26.8</text>
<line x1="736.6" y1="516.0" x2="736.6" y2="519.0" stroke="#999"/>
<text x="736.6" y="531.0" text-anchor="end" fill="#666" transform="rotate(-50 736.6 531.0)">26.9</text>
<line x1="773.7" y1="516.0" x2="773.7" y2="519.0" stroke="#999"/>
<text x="773.7" y="531.0" text-anchor="end" fill="#666" transform="rotate(-50 773.7 531.0)">26.10</text>
<line x1="810.9" y1="516.0" x2="810.9" y2="519.0" stroke="#999"/>
<text x="810.9" y="531.0" text-anchor="end" fill="#666" transform="rotate(-50 810.9 531.0)">26.11</text>
<line x1="848.0" y1="516.0" x2="848.0" y2="519.0" stroke="#999"/>
<text x="848.0" y="531.0" text-anchor="end" fill="#666" transform="rotate(-50 848.0 531.0)">26.12</text>
<line x1="885.1" y1="516.0" x2="885.1" y2="519.0" stroke="#999"/>
<text x="885.1" y="531.0" text-anchor="end" fill="#e8731a" transform="rotate(-50 885.1 531.0)">06-25</text>
<line x1="922.3" y1="516.0" x2="922.3" y2="519.0" stroke="#999"/>
<text x="922.3" y="531.0" text-anchor="end" fill="#e8731a" transform="rotate(-50 922.3 531.0)">06-26</text>
<line x1="959.4" y1="516.0" x2="959.4" y2="519.0" stroke="#999"/>
<text x="959.4" y="531.0" text-anchor="end" fill="#e8731a" transform="rotate(-50 959.4 531.0)">06-28</text>
<line x1="996.6" y1="516.0" x2="996.6" y2="519.0" stroke="#999"/>
<text x="996.6" y="531.0" text-anchor="end" fill="#e8731a" transform="rotate(-50 996.6 531.0)">07-01</text>
<line x1="1033.7" y1="516.0" x2="1033.7" y2="519.0" stroke="#999"/>
<text x="1033.7" y="531.0" text-anchor="end" fill="#e8731a" transform="rotate(-50 1033.7 531.0)">07-02</text>
<line x1="1070.9" y1="516.0" x2="1070.9" y2="519.0" stroke="#999"/>
<text x="1070.9" y="531.0" text-anchor="end" fill="#e8731a" transform="rotate(-50 1070.9 531.0)">07-03</text>
<line x1="1108.0" y1="516.0" x2="1108.0" y2="519.0" stroke="#999"/>
<text x="1108.0" y="531.0" text-anchor="end" fill="#e8731a" transform="rotate(-50 1108.0 531.0)">07-07</text>
<polygon points="68.0,515.8 105.1,515.8 142.3,515.8 179.4,515.8 216.6,515.8 253.7,515.8 290.9,515.8 328.0,515.8 365.1,515.8 402.3,515.8 439.4,515.8 476.6,515.8 513.7,515.8 550.9,515.8 588.0,515.8 625.1,515.8 662.3,515.8 699.4,515.8 736.6,515.8 773.7,515.8 810.9,515.8 848.0,515.8 885.1,515.8 922.3,515.8 959.4,515.8 996.6,515.8 1033.7,515.8 1070.9,515.8 1108.0,515.9 1108.0,516.0 1070.9,516.0 1033.7,516.0 996.6,516.0 959.4,516.0 922.3,516.0 885.1,516.0 848.0,516.0 810.9,516.0 773.7,516.0 736.6,516.0 699.4,516.0 662.3,516.0 625.1,516.0 588.0,516.0 550.9,516.0 513.7,516.0 476.6,516.0 439.4,516.0 402.3,516.0 365.1,516.0 328.0,516.0 290.9,516.0 253.7,516.0 216.6,516.0 179.4,516.0 142.3,516.0 105.1,516.0 68.0,516.0" fill="#c7e9c0" fill-opacity="0.9" stroke="#fff" stroke-width="0.4"><title>emit_metal — parseTranslationUnit</title></polygon>
<polygon points="68.0,508.5 105.1,507.2 142.3,507.1 179.4,506.1 216.6,506.1 253.7,506.5 290.9,506.4 328.0,505.3 365.1,506.5 402.3,506.8 439.4,506.7 476.6,506.7 513.7,506.1 550.9,506.1 588.0,506.1 625.1,506.2 662.3,504.2 699.4,504.5 736.6,504.3 773.7,504.0 810.9,510.5 848.0,510.2 885.1,509.9 922.3,510.0 959.4,509.9 996.6,510.0 1033.7,509.9 1070.9,509.9 1108.0,510.1 1108.0,515.9 1070.9,515.8 1033.7,515.8 996.6,515.8 959.4,515.8 922.3,515.8 885.1,515.8 848.0,515.8 810.9,515.8 773.7,515.8 736.6,515.8 699.4,515.8 662.3,515.8 625.1,515.8 588.0,515.8 550.9,515.8 513.7,515.8 476.6,515.8 439.4,515.8 402.3,515.8 365.1,515.8 328.0,515.8 290.9,515.8 253.7,515.8 216.6,515.8 179.4,515.8 142.3,515.8 105.1,515.8 68.0,515.8" fill="#41ab5d" fill-opacity="0.9" stroke="#fff" stroke-width="0.4"><title>emit_metal — SemanticChecking</title></polygon>
<polygon points="68.0,506.9 105.1,505.7 142.3,505.5 179.4,504.4 216.6,504.5 253.7,504.8 290.9,504.7 328.0,503.6 365.1,504.8 402.3,505.3 439.4,505.1 476.6,505.2 513.7,504.5 550.9,504.5 588.0,504.5 625.1,504.7 662.3,501.5 699.4,501.7 736.6,501.6 773.7,501.2 810.9,508.0 848.0,507.7 885.1,507.3 922.3,507.3 959.4,507.2 996.6,507.3 1033.7,507.3 1070.9,507.1 1108.0,507.3 1108.0,510.1 1070.9,509.9 1033.7,509.9 996.6,510.0 959.4,509.9 922.3,510.0 885.1,509.9 848.0,510.2 810.9,510.5 773.7,504.0 736.6,504.3 699.4,504.5 662.3,504.2 625.1,506.2 588.0,506.1 550.9,506.1 513.7,506.1 476.6,506.7 439.4,506.7 402.3,506.8 365.1,506.5 328.0,505.3 290.9,506.4 253.7,506.5 216.6,506.1 179.4,506.1 142.3,507.1 105.1,507.2 68.0,508.5" fill="#006d2c" fill-opacity="0.9" stroke="#fff" stroke-width="0.4"><title>emit_metal — generateIR</title></polygon>
<polygon points="68.0,506.9 105.1,505.6 142.3,505.5 179.4,504.3 216.6,504.5 253.7,504.8 290.9,504.7 328.0,503.4 365.1,504.8 402.3,505.2 439.4,505.0 476.6,505.1 513.7,504.5 550.9,504.5 588.0,504.4 625.1,504.6 662.3,501.4 699.4,501.7 736.6,501.5 773.7,501.2 810.9,507.9 848.0,507.6 885.1,507.2 922.3,507.2 959.4,507.2 996.6,507.2 1033.7,507.3 1070.9,507.1 1108.0,507.3 1108.0,507.3 1070.9,507.1 1033.7,507.3 996.6,507.3 959.4,507.2 922.3,507.3 885.1,507.3 848.0,507.7 810.9,508.0 773.7,501.2 736.6,501.6 699.4,501.7 662.3,501.5 625.1,504.7 588.0,504.5 550.9,504.5 513.7,504.5 476.6,505.2 439.4,505.1 402.3,505.3 365.1,504.8 328.0,503.6 290.9,504.7 253.7,504.8 216.6,504.5 179.4,504.4 142.3,505.5 105.1,505.7 68.0,506.9" fill="#74c476" fill-opacity="0.9" stroke="#fff" stroke-width="0.4"><title>emit_metal — frontEndExecute (self)</title></polygon>
<polygon points="68.0,506.2 105.1,505.0 142.3,504.9 179.4,503.7 216.6,503.8 253.7,504.1 290.9,504.0 328.0,502.8 365.1,504.1 402.3,504.6 439.4,503.9 476.6,504.0 513.7,503.3 550.9,503.3 588.0,503.3 625.1,503.4 662.3,496.4 699.4,497.2 736.6,497.0 773.7,496.6 810.9,503.5 848.0,503.3 885.1,502.6 922.3,502.5 959.4,502.5 996.6,502.6 1033.7,502.7 1070.9,502.4 1108.0,502.2 1108.0,507.3 1070.9,507.1 1033.7,507.3 996.6,507.2 959.4,507.2 922.3,507.2 885.1,507.2 848.0,507.6 810.9,507.9 773.7,501.2 736.6,501.5 699.4,501.7 662.3,501.4 625.1,504.6 588.0,504.4 550.9,504.5 513.7,504.5 476.6,505.1 439.4,505.0 402.3,505.2 365.1,504.8 328.0,503.4 290.9,504.7 253.7,504.8 216.6,504.5 179.4,504.3 142.3,505.5 105.1,505.6 68.0,506.9" fill="#6baed6" fill-opacity="0.9" stroke="#fff" stroke-width="0.4"><title>emit_metal — specializeModule</title></polygon>
<polygon points="68.0,505.0 105.1,503.8 142.3,503.6 179.4,502.4 216.6,502.5 253.7,502.8 290.9,502.6 328.0,501.4 365.1,502.8 402.3,503.3 439.4,502.8 476.6,502.8 513.7,502.1 550.9,502.2 588.0,502.2 625.1,502.2 662.3,482.2 699.4,483.2 736.6,482.5 773.7,481.9 810.9,489.2 848.0,489.1 885.1,487.7 922.3,487.5 959.4,487.5 996.6,487.1 1033.7,487.7 1070.9,487.4 1108.0,487.3 1108.0,502.2 1070.9,502.4 1033.7,502.7 996.6,502.6 959.4,502.5 922.3,502.5 885.1,502.6 848.0,503.3 810.9,503.5 773.7,496.6 736.6,497.0 699.4,497.2 662.3,496.4 625.1,503.4 588.0,503.3 550.9,503.3 513.7,503.3 476.6,504.0 439.4,503.9 402.3,504.6 365.1,504.1 328.0,502.8 290.9,504.0 253.7,504.1 216.6,503.8 179.4,503.7 142.3,504.9 105.1,505.0 68.0,506.2" fill="#2171b5" fill-opacity="0.9" stroke="#fff" stroke-width="0.4"><title>emit_metal — simplifyIR</title></polygon>
<polygon points="68.0,504.7 105.1,503.6 142.3,503.4 179.4,502.0 216.6,502.1 253.7,502.4 290.9,502.2 328.0,501.1 365.1,502.5 402.3,503.1 439.4,502.5 476.6,502.6 513.7,501.9 550.9,502.0 588.0,501.9 625.1,502.0 662.3,479.2 699.4,479.8 736.6,479.1 773.7,478.5 810.9,488.9 848.0,488.9 885.1,487.4 922.3,487.2 959.4,487.2 996.6,486.9 1033.7,487.4 1070.9,487.1 1108.0,487.1 1108.0,487.3 1070.9,487.4 1033.7,487.7 996.6,487.1 959.4,487.5 922.3,487.5 885.1,487.7 848.0,489.1 810.9,489.2 773.7,481.9 736.6,482.5 699.4,483.2 662.3,482.2 625.1,502.2 588.0,502.2 550.9,502.2 513.7,502.1 476.6,502.8 439.4,502.8 402.3,503.3 365.1,502.8 328.0,501.4 290.9,502.6 253.7,502.8 216.6,502.5 179.4,502.4 142.3,503.6 105.1,503.8 68.0,505.0" fill="#08306b" fill-opacity="0.9" stroke="#fff" stroke-width="0.4"><title>emit_metal — linkIR</title></polygon>
<polygon points="68.0,504.7 105.1,503.6 142.3,503.4 179.4,502.0 216.6,502.1 253.7,502.4 290.9,502.2 328.0,501.1 365.1,502.5 402.3,503.1 439.4,502.5 476.6,502.6 513.7,501.9 550.9,502.0 588.0,501.9 625.1,502.0 662.3,479.2 699.4,479.8 736.6,479.1 773.7,478.5 810.9,488.9 848.0,488.9 885.1,487.4 922.3,487.2 959.4,487.2 996.6,486.9 1033.7,487.4 1070.9,487.1 1108.0,487.1 1108.0,487.1 1070.9,487.1 1033.7,487.4 996.6,486.9 959.4,487.2 922.3,487.2 885.1,487.4 848.0,488.9 810.9,488.9 773.7,478.5 736.6,479.1 699.4,479.8 662.3,479.2 625.1,502.0 588.0,501.9 550.9,502.0 513.7,501.9 476.6,502.6 439.4,502.5 402.3,503.1 365.1,502.5 328.0,501.1 290.9,502.2 253.7,502.4 216.6,502.1 179.4,502.0 142.3,503.4 105.1,503.6 68.0,504.7" fill="#9e9ac8" fill-opacity="0.9" stroke="#fff" stroke-width="0.4"><title>emit_metal — unrollLoopsInModule</title></polygon>
<polygon points="68.0,412.5 105.1,412.8 142.3,413.0 179.4,406.1 216.6,477.3 253.7,478.4 290.9,475.8 328.0,477.1 365.1,479.4 402.3,479.9 439.4,480.1 476.6,480.2 513.7,479.1 550.9,479.6 588.0,479.5 625.1,480.1 662.3,452.5 699.4,453.0 736.6,452.1 773.7,451.1 810.9,460.5 848.0,460.0 885.1,457.9 922.3,457.9 959.4,457.9 996.6,457.9 1033.7,458.8 1070.9,457.5 1108.0,458.9 1108.0,487.1 1070.9,487.1 1033.7,487.4 996.6,486.9 959.4,487.2 922.3,487.2 885.1,487.4 848.0,488.9 810.9,488.9 773.7,478.5 736.6,479.1 699.4,479.8 662.3,479.2 625.1,502.0 588.0,501.9 550.9,502.0 513.7,501.9 476.6,502.6 439.4,502.5 402.3,503.1 365.1,502.5 328.0,501.1 290.9,502.2 253.7,502.4 216.6,502.1 179.4,502.0 142.3,503.4 105.1,503.6 68.0,504.7" fill="#807dba" fill-opacity="0.9" stroke="#fff" stroke-width="0.4"><title>emit_metal — legalizeResourceTypes</title></polygon>
<polygon points="68.0,319.4 105.1,322.2 142.3,321.9 179.4,306.9 216.6,452.4 253.7,454.5 290.9,451.4 328.0,452.1 365.1,455.3 402.3,456.7 439.4,457.7 476.6,457.8 513.7,456.6 550.9,457.1 588.0,457.6 625.1,458.0 662.3,425.5 699.4,425.9 736.6,424.7 773.7,423.6 810.9,432.0 848.0,431.3 885.1,427.5 922.3,427.9 959.4,428.7 996.6,428.9 1033.7,430.4 1070.9,427.5 1108.0,429.9 1108.0,458.9 1070.9,457.5 1033.7,458.8 996.6,457.9 959.4,457.9 922.3,457.9 885.1,457.9 848.0,460.0 810.9,460.5 773.7,451.1 736.6,452.1 699.4,453.0 662.3,452.5 625.1,480.1 588.0,479.5 550.9,479.6 513.7,479.1 476.6,480.2 439.4,480.1 402.3,479.9 365.1,479.4 328.0,477.1 290.9,475.8 253.7,478.4 216.6,477.3 179.4,406.1 142.3,413.0 105.1,412.8 68.0,412.5" fill="#6a51a3" fill-opacity="0.9" stroke="#fff" stroke-width="0.4"><title>emit_metal — legalizeExistentialTypeLayout</title></polygon>
<polygon points="68.0,319.4 105.1,322.1 142.3,321.8 179.4,306.8 216.6,452.4 253.7,454.5 290.9,451.3 328.0,452.1 365.1,455.3 402.3,456.6 439.4,457.6 476.6,457.7 513.7,456.5 550.9,457.1 588.0,457.5 625.1,458.0 662.3,425.4 699.4,425.8 736.6,424.7 773.7,423.6 810.9,431.9 848.0,431.3 885.1,427.5 922.3,427.8 959.4,428.6 996.6,428.9 1033.7,430.3 1070.9,427.4 1108.0,429.8 1108.0,429.9 1070.9,427.5 1033.7,430.4 996.6,428.9 959.4,428.7 922.3,427.9 885.1,427.5 848.0,431.3 810.9,432.0 773.7,423.6 736.6,424.7 699.4,425.9 662.3,425.5 625.1,458.0 588.0,457.6 550.9,457.1 513.7,456.6 476.6,457.8 439.4,457.7 402.3,456.7 365.1,455.3 328.0,452.1 290.9,451.4 253.7,454.5 216.6,452.4 179.4,306.9 142.3,321.9 105.1,322.2 68.0,319.4" fill="#bcbddc" fill-opacity="0.9" stroke="#fff" stroke-width="0.4"><title>emit_metal — performMandatoryEarlyInlining</title></polygon>
<polygon points="68.0,319.3 105.1,322.1 142.3,321.8 179.4,306.8 216.6,452.3 253.7,454.4 290.9,451.3 328.0,452.1 365.1,455.3 402.3,456.6 439.4,457.6 476.6,457.7 513.7,456.5 550.9,457.0 588.0,457.5 625.1,458.0 662.3,425.4 699.4,425.8 736.6,424.6 773.7,423.6 810.9,431.9 848.0,431.2 885.1,427.4 922.3,427.8 959.4,428.5 996.6,428.8 1033.7,430.3 1070.9,427.4 1108.0,429.7 1108.0,429.8 1070.9,427.4 1033.7,430.3 996.6,428.9 959.4,428.6 922.3,427.8 885.1,427.5 848.0,431.3 810.9,431.9 773.7,423.6 736.6,424.7 699.4,425.8 662.3,425.4 625.1,458.0 588.0,457.5 550.9,457.1 513.7,456.5 476.6,457.7 439.4,457.6 402.3,456.6 365.1,455.3 328.0,452.1 290.9,451.3 253.7,454.5 216.6,452.4 179.4,306.8 142.3,321.8 105.1,322.1 68.0,319.4" fill="#dadaeb" fill-opacity="0.9" stroke="#fff" stroke-width="0.4"><title>emit_metal — performForceInlining</title></polygon>
<polygon points="68.0,131.3 105.1,138.0 142.3,137.6 179.4,108.6 216.6,399.6 253.7,403.5 290.9,397.2 328.0,400.1 365.1,405.1 402.3,407.4 439.4,409.6 476.6,409.7 513.7,407.9 550.9,409.0 588.0,410.0 625.1,410.7 662.3,347.3 699.4,347.8 736.6,345.6 773.7,343.8 810.9,353.7 848.0,352.8 885.1,345.5 922.3,346.1 959.4,347.7 996.6,348.2 1033.7,351.1 1070.9,345.5 1108.0,350.0 1108.0,429.7 1070.9,427.4 1033.7,430.3 996.6,428.8 959.4,428.5 922.3,427.8 885.1,427.4 848.0,431.2 810.9,431.9 773.7,423.6 736.6,424.6 699.4,425.8 662.3,425.4 625.1,458.0 588.0,457.5 550.9,457.0 513.7,456.5 476.6,457.7 439.4,457.6 402.3,456.6 365.1,455.3 328.0,452.1 290.9,451.3 253.7,454.4 216.6,452.3 179.4,306.8 142.3,321.8 105.1,322.1 68.0,319.3" fill="#fd8d3c" fill-opacity="0.9" stroke="#fff" stroke-width="0.4"><title>emit_metal — emitEntryPointsSourceFromIR</title></polygon>
<polygon points="68.0,131.1 105.1,138.0 142.3,137.4 179.4,108.6 216.6,399.6 253.7,403.5 290.9,396.5 328.0,400.1 365.1,405.1 402.3,407.2 439.4,409.4 476.6,409.7 513.7,407.9 550.9,409.0 588.0,410.0 625.1,410.7 662.3,347.3 699.4,347.1 736.6,345.4 773.7,343.8 810.9,353.7 848.0,352.8 885.1,345.5 922.3,346.0 959.4,347.6 996.6,348.2 1033.7,351.1 1070.9,345.5 1108.0,349.8 1108.0,350.0 1070.9,345.5 1033.7,351.1 996.6,348.2 959.4,347.7 922.3,346.1 885.1,345.5 848.0,352.8 810.9,353.7 773.7,343.8 736.6,345.6 699.4,347.8 662.3,347.3 625.1,410.7 588.0,410.0 550.9,409.0 513.7,407.9 476.6,409.7 439.4,409.6 402.3,407.4 365.1,405.1 328.0,400.1 290.9,397.2 253.7,403.5 216.6,399.6 179.4,108.6 142.3,137.6 105.1,138.0 68.0,131.3" fill="#969696" fill-opacity="0.9" stroke="#fff" stroke-width="0.4"><title>emit_metal — compileInner (self)</title></polygon>
<text x="12" y="578" fill="#666" font-weight="600">phase buckets</text>
<rect x="12" y="586" width="12" height="12" fill="#c7e9c0"/>
<text x="28" y="596" fill="#222">parseTranslationUnit</text>
<rect x="289" y="586" width="12" height="12" fill="#41ab5d"/>
<text x="305" y="596" fill="#222">SemanticChecking</text>
<rect x="566" y="586" width="12" height="12" fill="#006d2c"/>
<text x="582" y="596" fill="#222">generateIR</text>
<rect x="843" y="586" width="12" height="12" fill="#74c476"/>
<text x="859" y="596" fill="#222">frontEndExecute (self)</text>
<rect x="12" y="604" width="12" height="12" fill="#6baed6"/>
<text x="28" y="614" fill="#222">specializeModule</text>
<rect x="289" y="604" width="12" height="12" fill="#2171b5"/>
<text x="305" y="614" fill="#222">simplifyIR</text>
<rect x="566" y="604" width="12" height="12" fill="#08306b"/>
<text x="582" y="614" fill="#222">linkIR</text>
<rect x="843" y="604" width="12" height="12" fill="#9e9ac8"/>
<text x="859" y="614" fill="#222">unrollLoopsInModule</text>
<rect x="12" y="622" width="12" height="12" fill="#807dba"/>
<text x="28" y="632" fill="#222">legalizeResourceTypes</text>
<rect x="289" y="622" width="12" height="12" fill="#6a51a3"/>
<text x="305" y="632" fill="#222">legalizeExistentialTypeLayout</text>
<rect x="566" y="622" width="12" height="12" fill="#bcbddc"/>
<text x="582" y="632" fill="#222">performMandatoryEarlyInlining</text>
<rect x="843" y="622" width="12" height="12" fill="#dadaeb"/>
<text x="859" y="632" fill="#222">performForceInlining</text>
<rect x="12" y="640" width="12" height="12" fill="#4a1486"/>
<text x="28" y="650" fill="#222">linkAndOptimizeIR (self)</text>
<rect x="289" y="640" width="12" height="12" fill="#fd8d3c"/>
<text x="305" y="650" fill="#222">emitEntryPointsSourceFromIR</text>
<rect x="566" y="640" width="12" height="12" fill="#e6550d"/>
<text x="582" y="650" fill="#222">generateOutput (self)</text>
<rect x="843" y="640" width="12" height="12" fill="#969696"/>
<text x="859" y="650" fill="#222">compileInner (self)</text>
</svg>