<svg xmlns="http://www.w3.org/2000/svg" xmlns:xlink="http://www.w3.org/1999/xlink" width="1132" height="680" viewBox="0 0 1132 680" preserveAspectRatio="xMidYMid meet" font-family="sans-serif" font-size="13">
<rect width="1132" height="680" fill="white"/>
<text x="12" y="30" font-size="20" font-weight="bold">emit_wgsl — full phase breakdown across releases (median ms)</text>
<text x="68" y="60" font-size="15" font-weight="600" fill="#1a1a1a">emit_wgsl<tspan fill="#888" font-weight="400" text-decoration="none">  1.01×</tspan></text>
<line x1="68.0" y1="516.0" x2="1108.0" y2="516.0" stroke="#eee"/>
<text x="64.0" y="519.0" text-anchor="end" fill="#999">0.0</text>
<line x1="68.0" y1="296.0" x2="1108.0" y2="296.0" stroke="#eee"/>
<text x="64.0" y="299.0" text-anchor="end" fill="#999">513</text>
<line x1="68.0" y1="76.0" x2="1108.0" y2="76.0" stroke="#eee"/>
<text x="64.0" y="79.0" text-anchor="end" fill="#999">1026</text>
<line x1="68.0" y1="76.0" x2="68.0" y2="516.0" stroke="#333"/>
<line x1="68.0" y1="516.0" x2="1108.0" y2="516.0" stroke="#333"/>
<line x1="68.0" y1="516.0" x2="68.0" y2="519.0" stroke="#999"/>
<text x="68.0" y="531.0" text-anchor="end" fill="#666" transform="rotate(-50 68.0 531.0)">26.7</text>
<line x1="1108.0" y1="516.0" x2="1108.0" y2="519.0" stroke="#999"/>
<text x="1108.0" y="531.0" text-anchor="end" fill="#666" transform="rotate(-50 1108.0 531.0)">26.8</text>
<polygon points="68.0,515.6 1108.0,515.6 1108.0,516.0 68.0,516.0" fill="#c7e9c0" fill-opacity="0.9" stroke="#fff" stroke-width="0.4"><title>emit_wgsl — parseTranslationUnit</title></polygon>
<polygon points="68.0,484.9 1108.0,484.8 1108.0,515.6 68.0,515.6" fill="#41ab5d" fill-opacity="0.9" stroke="#fff" stroke-width="0.4"><title>emit_wgsl — SemanticChecking</title></polygon>
<polygon points="68.0,477.6 1108.0,477.5 1108.0,484.8 68.0,484.9" fill="#006d2c" fill-opacity="0.9" stroke="#fff" stroke-width="0.4"><title>emit_wgsl — generateIR</title></polygon>
<polygon points="68.0,477.5 1108.0,477.4 1108.0,477.5 68.0,477.6" fill="#74c476" fill-opacity="0.9" stroke="#fff" stroke-width="0.4"><title>emit_wgsl — frontEndExecute (self)</title></polygon>
<polygon points="68.0,466.7 1108.0,467.8 1108.0,477.4 68.0,477.5" fill="#6baed6" fill-opacity="0.9" stroke="#fff" stroke-width="0.4"><title>emit_wgsl — specializeModule</title></polygon>
<polygon points="68.0,435.9 1108.0,436.8 1108.0,467.8 68.0,466.7" fill="#2171b5" fill-opacity="0.9" stroke="#fff" stroke-width="0.4"><title>emit_wgsl — simplifyIR</title></polygon>
<polygon points="68.0,430.2 1108.0,431.2 1108.0,436.8 68.0,435.9" fill="#08306b" fill-opacity="0.9" stroke="#fff" stroke-width="0.4"><title>emit_wgsl — linkIR</title></polygon>
<polygon points="68.0,430.2 1108.0,431.2 1108.0,431.2 68.0,430.2" fill="#9e9ac8" fill-opacity="0.9" stroke="#fff" stroke-width="0.4"><title>emit_wgsl — unrollLoopsInModule</title></polygon>
<polygon points="68.0,364.4 1108.0,363.7 1108.0,431.2 68.0,430.2" fill="#807dba" fill-opacity="0.9" stroke="#fff" stroke-width="0.4"><title>emit_wgsl — legalizeResourceTypes</title></polygon>
<polygon points="68.0,298.7 1108.0,296.2 1108.0,363.7 68.0,364.4" fill="#6a51a3" fill-opacity="0.9" stroke="#fff" stroke-width="0.4"><title>emit_wgsl — legalizeExistentialTypeLayout</title></polygon>
<polygon points="68.0,298.6 1108.0,296.1 1108.0,296.2 68.0,298.7" fill="#bcbddc" fill-opacity="0.9" stroke="#fff" stroke-width="0.4"><title>emit_wgsl — performMandatoryEarlyInlining</title></polygon>
<polygon points="68.0,298.5 1108.0,296.0 1108.0,296.1 68.0,298.6" fill="#dadaeb" fill-opacity="0.9" stroke="#fff" stroke-width="0.4"><title>emit_wgsl — performForceInlining</title></polygon>
<polygon points="68.0,113.6 1108.0,108.9 1108.0,296.0 68.0,298.5" fill="#fd8d3c" fill-opacity="0.9" stroke="#fff" stroke-width="0.4"><title>emit_wgsl — emitEntryPointsSourceFromIR</title></polygon>
<polygon points="68.0,113.3 1108.0,108.6 1108.0,108.9 68.0,113.6" fill="#969696" fill-opacity="0.9" stroke="#fff" stroke-width="0.4"><title>emit_wgsl — compileInner (self)</title></polygon>
<text x="12" y="578" fill="#666" font-weight="600">phase buckets</text>
<rect x="12" y="586" width="12" height="12" fill="#c7e9c0"/>
<text x="28" y="596" fill="#222">parseTranslationUnit</text>
<rect x="289" y="586" width="12" height="12" fill="#41ab5d"/>
<text x="305" y="596" fill="#222">SemanticChecking</text>
<rect x="566" y="586" width="12" height="12" fill="#006d2c"/>
<text x="582" y="596" fill="#222">generateIR</text>
<rect x="843" y="586" width="12" height="12" fill="#74c476"/>
<text x="859" y="596" fill="#222">frontEndExecute (self)</text>
<rect x="12" y="604" width="12" height="12" fill="#6baed6"/>
<text x="28" y="614" fill="#222">specializeModule</text>
<rect x="289" y="604" width="12" height="12" fill="#2171b5"/>
<text x="305" y="614" fill="#222">simplifyIR</text>
<rect x="566" y="604" width="12" height="12" fill="#08306b"/>
<text x="582" y="614" fill="#222">linkIR</text>
<rect x="843" y="604" width="12" height="12" fill="#9e9ac8"/>
<text x="859" y="614" fill="#222">unrollLoopsInModule</text>
<rect x="12" y="622" width="12" height="12" fill="#807dba"/>
<text x="28" y="632" fill="#222">legalizeResourceTypes</text>
<rect x="289" y="622" width="12" height="12" fill="#6a51a3"/>
<text x="305" y="632" fill="#222">legalizeExistentialTypeLayout</text>
<rect x="566" y="622" width="12" height="12" fill="#bcbddc"/>
<text x="582" y="632" fill="#222">performMandatoryEarlyInlining</text>
<rect x="843" y="622" width="12" height="12" fill="#dadaeb"/>
<text x="859" y="632" fill="#222">performForceInlining</text>
<rect x="12" y="640" width="12" height="12" fill="#4a1486"/>
<text x="28" y="650" fill="#222">linkAndOptimizeIR (self)</text>
<rect x="289" y="640" width="12" height="12" fill="#fd8d3c"/>
<text x="305" y="650" fill="#222">emitEntryPointsSourceFromIR</text>
<rect x="566" y="640" width="12" height="12" fill="#e6550d"/>
<text x="582" y="650" fill="#222">generateOutput (self)</text>
<rect x="843" y="640" width="12" height="12" fill="#969696"/>
<text x="859" y="650" fill="#222">compileInner (self)</text>
</svg>