<svg xmlns="http://www.w3.org/2000/svg" xmlns:xlink="http://www.w3.org/1999/xlink" width="1132" height="680" viewBox="0 0 1132 680" preserveAspectRatio="xMidYMid meet" font-family="sans-serif" font-size="13">
<rect width="1132" height="680" fill="white"/>
<text x="12" y="30" font-size="20" font-weight="bold">emit_glsl — Daily tip-of-tree (last 30 days) (median ms)</text>
<text x="68" y="60" font-size="15" font-weight="600" fill="#1a1a1a">emit_glsl<tspan fill="#888" font-weight="400" text-decoration="none">  0.32×</tspan></text>
<line x1="68.0" y1="516.0" x2="1108.0" y2="516.0" stroke="#eee"/>
<text x="64.0" y="519.0" text-anchor="end" fill="#999">0.0</text>
<line x1="68.0" y1="296.0" x2="1108.0" y2="296.0" stroke="#eee"/>
<text x="64.0" y="299.0" text-anchor="end" fill="#999">506</text>
<line x1="68.0" y1="76.0" x2="1108.0" y2="76.0" stroke="#eee"/>
<text x="64.0" y="79.0" text-anchor="end" fill="#999">1012</text>
<line x1="68.0" y1="76.0" x2="68.0" y2="516.0" stroke="#333"/>
<line x1="68.0" y1="516.0" x2="1108.0" y2="516.0" stroke="#333"/>
<line x1="68.0" y1="516.0" x2="68.0" y2="519.0" stroke="#999"/>
<text x="68.0" y="531.0" text-anchor="end" fill="#e8731a" transform="rotate(-50 68.0 531.0)">06-25</text>
<line x1="115.3" y1="516.0" x2="115.3" y2="519.0" stroke="#999"/>
<text x="115.3" y="531.0" text-anchor="end" fill="#e8731a" transform="rotate(-50 115.3 531.0)">06-26</text>
<line x1="162.5" y1="516.0" x2="162.5" y2="519.0" stroke="#999"/>
<text x="162.5" y="531.0" text-anchor="end" fill="#e8731a" transform="rotate(-50 162.5 531.0)">06-28</text>
<line x1="209.8" y1="516.0" x2="209.8" y2="519.0" stroke="#999"/>
<text x="209.8" y="531.0" text-anchor="end" fill="#e8731a" transform="rotate(-50 209.8 531.0)">07-01</text>
<line x1="257.1" y1="516.0" x2="257.1" y2="519.0" stroke="#999"/>
<text x="257.1" y="531.0" text-anchor="end" fill="#e8731a" transform="rotate(-50 257.1 531.0)">07-02</text>
<line x1="304.4" y1="516.0" x2="304.4" y2="519.0" stroke="#999"/>
<text x="304.4" y="531.0" text-anchor="end" fill="#e8731a" transform="rotate(-50 304.4 531.0)">07-03</text>
<line x1="351.6" y1="516.0" x2="351.6" y2="519.0" stroke="#999"/>
<text x="351.6" y="531.0" text-anchor="end" fill="#e8731a" transform="rotate(-50 351.6 531.0)">07-06</text>
<line x1="398.9" y1="516.0" x2="398.9" y2="519.0" stroke="#999"/>
<text x="398.9" y="531.0" text-anchor="end" fill="#e8731a" transform="rotate(-50 398.9 531.0)">07-07</text>
<line x1="446.2" y1="516.0" x2="446.2" y2="519.0" stroke="#999"/>
<text x="446.2" y="531.0" text-anchor="end" fill="#e8731a" transform="rotate(-50 446.2 531.0)">07-08</text>
<line x1="493.5" y1="516.0" x2="493.5" y2="519.0" stroke="#999"/>
<text x="493.5" y="531.0" text-anchor="end" fill="#e8731a" transform="rotate(-50 493.5 531.0)">07-09</text>
<line x1="540.7" y1="516.0" x2="540.7" y2="519.0" stroke="#999"/>
<text x="540.7" y="531.0" text-anchor="end" fill="#e8731a" transform="rotate(-50 540.7 531.0)">07-10</text>
<line x1="588.0" y1="516.0" x2="588.0" y2="519.0" stroke="#999"/>
<text x="588.0" y="531.0" text-anchor="end" fill="#e8731a" transform="rotate(-50 588.0 531.0)">07-11</text>
<line x1="635.3" y1="516.0" x2="635.3" y2="519.0" stroke="#999"/>
<text x="635.3" y="531.0" text-anchor="end" fill="#e8731a" transform="rotate(-50 635.3 531.0)">07-14</text>
<line x1="682.5" y1="516.0" x2="682.5" y2="519.0" stroke="#999"/>
<text x="682.5" y="531.0" text-anchor="end" fill="#e8731a" transform="rotate(-50 682.5 531.0)">07-15</text>
<line x1="729.8" y1="516.0" x2="729.8" y2="519.0" stroke="#999"/>
<text x="729.8" y="531.0" text-anchor="end" fill="#e8731a" transform="rotate(-50 729.8 531.0)">07-15</text>
<line x1="777.1" y1="516.0" x2="777.1" y2="519.0" stroke="#999"/>
<text x="777.1" y="531.0" text-anchor="end" fill="#e8731a" transform="rotate(-50 777.1 531.0)">07-16</text>
<line x1="824.4" y1="516.0" x2="824.4" y2="519.0" stroke="#999"/>
<text x="824.4" y="531.0" text-anchor="end" fill="#e8731a" transform="rotate(-50 824.4 531.0)">07-17</text>
<line x1="871.6" y1="516.0" x2="871.6" y2="519.0" stroke="#999"/>
<text x="871.6" y="531.0" text-anchor="end" fill="#e8731a" transform="rotate(-50 871.6 531.0)">07-18</text>
<line x1="918.9" y1="516.0" x2="918.9" y2="519.0" stroke="#999"/>
<text x="918.9" y="531.0" text-anchor="end" fill="#e8731a" transform="rotate(-50 918.9 531.0)">07-19</text>
<line x1="966.2" y1="516.0" x2="966.2" y2="519.0" stroke="#999"/>
<text x="966.2" y="531.0" text-anchor="end" fill="#e8731a" transform="rotate(-50 966.2 531.0)">07-20</text>
<line x1="1013.5" y1="516.0" x2="1013.5" y2="519.0" stroke="#999"/>
<text x="1013.5" y="531.0" text-anchor="end" fill="#e8731a" transform="rotate(-50 1013.5 531.0)">07-21</text>
<line x1="1060.7" y1="516.0" x2="1060.7" y2="519.0" stroke="#999"/>
<text x="1060.7" y="531.0" text-anchor="end" fill="#e8731a" transform="rotate(-50 1060.7 531.0)">07-22</text>
<line x1="1108.0" y1="516.0" x2="1108.0" y2="519.0" stroke="#999"/>
<text x="1108.0" y="531.0" text-anchor="end" fill="#e8731a" transform="rotate(-50 1108.0 531.0)">07-23</text>
<polygon points="68.0,515.5 115.3,515.5 162.5,515.5 209.8,515.5 257.1,515.5 304.4,515.5 351.6,515.5 398.9,515.6 446.2,515.6 493.5,515.6 540.7,515.6 588.0,515.6 635.3,515.6 682.5,515.6 729.8,515.6 777.1,515.6 824.4,515.6 871.6,515.6 918.9,515.6 966.2,515.6 1013.5,515.6 1060.7,515.6 1108.0,515.6 1108.0,516.0 1060.7,516.0 1013.5,516.0 966.2,516.0 918.9,516.0 871.6,516.0 824.4,516.0 777.1,516.0 729.8,516.0 682.5,516.0 635.3,516.0 588.0,516.0 540.7,516.0 493.5,516.0 446.2,516.0 398.9,516.0 351.6,516.0 304.4,516.0 257.1,516.0 209.8,516.0 162.5,516.0 115.3,516.0 68.0,516.0" fill="#c7e9c0" fill-opacity="0.9" stroke="#fff" stroke-width="0.4"><title>emit_glsl — parseTranslationUnit</title></polygon>
<polygon points="68.0,496.3 115.3,499.4 162.5,498.7 209.8,499.4 257.1,499.3 304.4,499.6 351.6,499.5 398.9,500.1 446.2,499.7 493.5,500.1 540.7,500.5 588.0,499.8 635.3,499.8 682.5,501.0 729.8,501.1 777.1,499.1 824.4,499.0 871.6,502.2 918.9,502.0 966.2,502.3 1013.5,502.2 1060.7,502.2 1108.0,502.1 1108.0,515.6 1060.7,515.6 1013.5,515.6 966.2,515.6 918.9,515.6 871.6,515.6 824.4,515.6 777.1,515.6 729.8,515.6 682.5,515.6 635.3,515.6 588.0,515.6 540.7,515.6 493.5,515.6 446.2,515.6 398.9,515.6 351.6,515.5 304.4,515.5 257.1,515.5 209.8,515.5 162.5,515.5 115.3,515.5 68.0,515.5" fill="#41ab5d" fill-opacity="0.9" stroke="#fff" stroke-width="0.4"><title>emit_glsl — SemanticChecking</title></polygon>
<polygon points="68.0,487.0 115.3,491.9 162.5,491.0 209.8,491.7 257.1,491.6 304.4,492.1 351.6,491.9 398.9,493.0 446.2,491.7 493.5,492.5 540.7,496.1 588.0,495.4 635.3,495.5 682.5,496.6 729.8,496.8 777.1,494.9 824.4,494.8 871.6,498.7 918.9,498.3 966.2,498.6 1013.5,498.4 1060.7,498.5 1108.0,498.3 1108.0,502.1 1060.7,502.2 1013.5,502.2 966.2,502.3 918.9,502.0 871.6,502.2 824.4,499.0 777.1,499.1 729.8,501.1 682.5,501.0 635.3,499.8 588.0,499.8 540.7,500.5 493.5,500.1 446.2,499.7 398.9,500.1 351.6,499.5 304.4,499.6 257.1,499.3 209.8,499.4 162.5,498.7 115.3,499.4 68.0,496.3" fill="#006d2c" fill-opacity="0.9" stroke="#fff" stroke-width="0.4"><title>emit_glsl — generateIR</title></polygon>
<polygon points="68.0,486.4 115.3,491.6 162.5,490.8 209.8,491.4 257.1,491.2 304.4,492.1 351.6,491.9 398.9,492.8 446.2,491.5 493.5,492.1 540.7,495.9 588.0,495.1 635.3,495.4 682.5,496.5 729.8,496.6 777.1,494.7 824.4,494.6 871.6,498.5 918.9,498.2 966.2,498.5 1013.5,498.4 1060.7,498.3 1108.0,498.0 1108.0,498.3 1060.7,498.5 1013.5,498.4 966.2,498.6 918.9,498.3 871.6,498.7 824.4,494.8 777.1,494.9 729.8,496.8 682.5,496.6 635.3,495.5 588.0,495.4 540.7,496.1 493.5,492.5 446.2,491.7 398.9,493.0 351.6,491.9 304.4,492.1 257.1,491.6 209.8,491.7 162.5,491.0 115.3,491.9 68.0,487.0" fill="#74c476" fill-opacity="0.9" stroke="#fff" stroke-width="0.4"><title>emit_glsl — frontEndExecute (self)</title></polygon>
<polygon points="68.0,477.5 115.3,482.8 162.5,482.0 209.8,482.3 257.1,482.5 304.4,483.2 351.6,483.3 398.9,483.5 446.2,481.8 493.5,482.7 540.7,490.8 588.0,490.0 635.3,490.2 682.5,491.9 729.8,492.0 777.1,490.0 824.4,490.0 871.6,494.2 918.9,493.9 966.2,494.2 1013.5,494.0 1060.7,493.9 1108.0,493.8 1108.0,498.0 1060.7,498.3 1013.5,498.4 966.2,498.5 918.9,498.2 871.6,498.5 824.4,494.6 777.1,494.7 729.8,496.6 682.5,496.5 635.3,495.4 588.0,495.1 540.7,495.9 493.5,492.1 446.2,491.5 398.9,492.8 351.6,491.9 304.4,492.1 257.1,491.2 209.8,491.4 162.5,490.8 115.3,491.6 68.0,486.4" fill="#6baed6" fill-opacity="0.9" stroke="#fff" stroke-width="0.4"><title>emit_glsl — specializeModule</title></polygon>
<polygon points="68.0,446.5 115.3,456.0 162.5,454.1 209.8,454.1 257.1,455.0 304.4,455.2 351.6,457.0 398.9,457.1 446.2,454.8 493.5,456.0 540.7,486.1 588.0,485.3 635.3,485.4 682.5,487.1 729.8,487.2 777.1,485.3 824.4,485.2 871.6,489.5 918.9,489.2 966.2,489.5 1013.5,489.2 1060.7,489.2 1108.0,489.1 1108.0,493.8 1060.7,493.9 1013.5,494.0 966.2,494.2 918.9,493.9 871.6,494.2 824.4,490.0 777.1,490.0 729.8,492.0 682.5,491.9 635.3,490.2 588.0,490.0 540.7,490.8 493.5,482.7 446.2,481.8 398.9,483.5 351.6,483.3 304.4,483.2 257.1,482.5 209.8,482.3 162.5,482.0 115.3,482.8 68.0,477.5" fill="#2171b5" fill-opacity="0.9" stroke="#fff" stroke-width="0.4"><title>emit_glsl — simplifyIR</title></polygon>
<polygon points="68.0,445.8 115.3,455.5 162.5,453.5 209.8,453.5 257.1,454.5 304.4,454.7 351.6,456.5 398.9,456.7 446.2,454.3 493.5,455.5 540.7,485.6 588.0,484.7 635.3,484.8 682.5,486.6 729.8,486.7 777.1,484.8 824.4,484.7 871.6,489.1 918.9,488.9 966.2,489.1 1013.5,488.8 1060.7,488.8 1108.0,488.7 1108.0,489.1 1060.7,489.2 1013.5,489.2 966.2,489.5 918.9,489.2 871.6,489.5 824.4,485.2 777.1,485.3 729.8,487.2 682.5,487.1 635.3,485.4 588.0,485.3 540.7,486.1 493.5,456.0 446.2,454.8 398.9,457.1 351.6,457.0 304.4,455.2 257.1,455.0 209.8,454.1 162.5,454.1 115.3,456.0 68.0,446.5" fill="#08306b" fill-opacity="0.9" stroke="#fff" stroke-width="0.4"><title>emit_glsl — linkIR</title></polygon>
<polygon points="68.0,445.8 115.3,455.5 162.5,453.5 209.8,453.5 257.1,454.5 304.4,454.7 351.6,456.5 398.9,456.7 446.2,454.3 493.5,455.5 540.7,485.6 588.0,484.7 635.3,484.8 682.5,486.6 729.8,486.7 777.1,484.8 824.4,484.7 871.6,489.1 918.9,488.9 966.2,489.1 1013.5,488.8 1060.7,488.8 1108.0,488.7 1108.0,488.7 1060.7,488.8 1013.5,488.8 966.2,489.1 918.9,488.9 871.6,489.1 824.4,484.7 777.1,484.8 729.8,486.7 682.5,486.6 635.3,484.8 588.0,484.7 540.7,485.6 493.5,455.5 446.2,454.3 398.9,456.7 351.6,456.5 304.4,454.7 257.1,454.5 209.8,453.5 162.5,453.5 115.3,455.5 68.0,445.8" fill="#9e9ac8" fill-opacity="0.9" stroke="#fff" stroke-width="0.4"><title>emit_glsl — unrollLoopsInModule</title></polygon>
<polygon points="68.0,365.1 115.3,401.1 162.5,395.6 209.8,398.3 257.1,397.7 304.4,397.3 351.6,403.0 398.9,405.0 446.2,401.0 493.5,402.0 540.7,461.9 588.0,461.3 635.3,461.0 682.5,462.2 729.8,462.5 777.1,461.2 824.4,461.2 871.6,468.1 918.9,466.6 966.2,468.2 1013.5,467.5 1060.7,467.3 1108.0,467.2 1108.0,488.7 1060.7,488.8 1013.5,488.8 966.2,489.1 918.9,488.9 871.6,489.1 824.4,484.7 777.1,484.8 729.8,486.7 682.5,486.6 635.3,484.8 588.0,484.7 540.7,485.6 493.5,455.5 446.2,454.3 398.9,456.7 351.6,456.5 304.4,454.7 257.1,454.5 209.8,453.5 162.5,453.5 115.3,455.5 68.0,445.8" fill="#807dba" fill-opacity="0.9" stroke="#fff" stroke-width="0.4"><title>emit_glsl — legalizeResourceTypes</title></polygon>
<polygon points="68.0,301.4 115.3,346.3 162.5,339.7 209.8,340.5 257.1,343.1 304.4,337.9 351.6,348.7 398.9,351.9 446.2,348.2 493.5,347.3 540.7,437.8 588.0,437.5 635.3,436.8 682.5,437.9 729.8,438.4 777.1,437.4 824.4,437.7 871.6,446.8 918.9,444.7 966.2,446.9 1013.5,446.1 1060.7,445.6 1108.0,445.6 1108.0,467.2 1060.7,467.3 1013.5,467.5 966.2,468.2 918.9,466.6 871.6,468.1 824.4,461.2 777.1,461.2 729.8,462.5 682.5,462.2 635.3,461.0 588.0,461.3 540.7,461.9 493.5,402.0 446.2,401.0 398.9,405.0 351.6,403.0 304.4,397.3 257.1,397.7 209.8,398.3 162.5,395.6 115.3,401.1 68.0,365.1" fill="#6a51a3" fill-opacity="0.9" stroke="#fff" stroke-width="0.4"><title>emit_glsl — legalizeExistentialTypeLayout</title></polygon>
<polygon points="68.0,301.3 115.3,346.3 162.5,339.6 209.8,340.4 257.1,343.0 304.4,337.8 351.6,348.6 398.9,351.7 446.2,348.0 493.5,347.2 540.7,437.6 588.0,437.3 635.3,436.6 682.5,437.8 729.8,438.3 777.1,437.3 824.4,437.5 871.6,446.7 918.9,444.6 966.2,446.7 1013.5,446.0 1060.7,445.5 1108.0,445.4 1108.0,445.6 1060.7,445.6 1013.5,446.1 966.2,446.9 918.9,444.7 871.6,446.8 824.4,437.7 777.1,437.4 729.8,438.4 682.5,437.9 635.3,436.8 588.0,437.5 540.7,437.8 493.5,347.3 446.2,348.2 398.9,351.9 351.6,348.7 304.4,337.9 257.1,343.1 209.8,340.5 162.5,339.7 115.3,346.3 68.0,301.4" fill="#bcbddc" fill-opacity="0.9" stroke="#fff" stroke-width="0.4"><title>emit_glsl — performMandatoryEarlyInlining</title></polygon>
<polygon points="68.0,301.3 115.3,346.2 162.5,339.6 209.8,340.3 257.1,342.9 304.4,337.7 351.6,348.5 398.9,351.7 446.2,348.0 493.5,347.1 540.7,437.5 588.0,437.2 635.3,436.6 682.5,437.7 729.8,438.2 777.1,437.2 824.4,437.5 871.6,446.6 918.9,444.5 966.2,446.6 1013.5,445.9 1060.7,445.4 1108.0,445.4 1108.0,445.4 1060.7,445.5 1013.5,446.0 966.2,446.7 918.9,444.6 871.6,446.7 824.4,437.5 777.1,437.3 729.8,438.3 682.5,437.8 635.3,436.6 588.0,437.3 540.7,437.6 493.5,347.2 446.2,348.0 398.9,351.7 351.6,348.6 304.4,337.8 257.1,343.0 209.8,340.4 162.5,339.6 115.3,346.3 68.0,301.3" fill="#dadaeb" fill-opacity="0.9" stroke="#fff" stroke-width="0.4"><title>emit_glsl — performForceInlining</title></polygon>
<polygon points="68.0,108.6 115.3,194.7 162.5,182.0 209.8,183.2 257.1,188.4 304.4,176.7 351.6,199.3 398.9,204.5 446.2,198.4 493.5,196.0 540.7,372.9 588.0,373.1 635.3,371.3 682.5,372.8 729.8,373.9 777.1,374.0 824.4,374.3 871.6,389.8 918.9,386.0 966.2,390.2 1013.5,388.7 1060.7,387.7 1108.0,387.9 1108.0,445.4 1060.7,445.4 1013.5,445.9 966.2,446.6 918.9,444.5 871.6,446.6 824.4,437.5 777.1,437.2 729.8,438.2 682.5,437.7 635.3,436.6 588.0,437.2 540.7,437.5 493.5,347.1 446.2,348.0 398.9,351.7 351.6,348.5 304.4,337.7 257.1,342.9 209.8,340.3 162.5,339.6 115.3,346.2 68.0,301.3" fill="#fd8d3c" fill-opacity="0.9" stroke="#fff" stroke-width="0.4"><title>emit_glsl — emitEntryPointsSourceFromIR</title></polygon>
<polygon points="68.0,108.6 115.3,194.2 162.5,182.0 209.8,180.9 257.1,188.2 304.4,176.7 351.6,199.2 398.9,204.4 446.2,198.3 493.5,196.0 540.7,372.6 588.0,372.6 635.3,371.0 682.5,372.7 729.8,373.7 777.1,373.9 824.4,374.3 871.6,389.6 918.9,385.9 966.2,389.9 1013.5,388.7 1060.7,387.7 1108.0,387.2 1108.0,387.9 1060.7,387.7 1013.5,388.7 966.2,390.2 918.9,386.0 871.6,389.8 824.4,374.3 777.1,374.0 729.8,373.9 682.5,372.8 635.3,371.3 588.0,373.1 540.7,372.9 493.5,196.0 446.2,198.4 398.9,204.5 351.6,199.3 304.4,176.7 257.1,188.4 209.8,183.2 162.5,182.0 115.3,194.7 68.0,108.6" fill="#969696" fill-opacity="0.9" stroke="#fff" stroke-width="0.4"><title>emit_glsl — compileInner (self)</title></polygon>
<text x="12" y="578" fill="#666" font-weight="600">phase buckets</text>
<rect x="12" y="586" width="12" height="12" fill="#c7e9c0"/>
<text x="28" y="596" fill="#222">parseTranslationUnit</text>
<rect x="289" y="586" width="12" height="12" fill="#41ab5d"/>
<text x="305" y="596" fill="#222">SemanticChecking</text>
<rect x="566" y="586" width="12" height="12" fill="#006d2c"/>
<text x="582" y="596" fill="#222">generateIR</text>
<rect x="843" y="586" width="12" height="12" fill="#74c476"/>
<text x="859" y="596" fill="#222">frontEndExecute (self)</text>
<rect x="12" y="604" width="12" height="12" fill="#6baed6"/>
<text x="28" y="614" fill="#222">specializeModule</text>
<rect x="289" y="604" width="12" height="12" fill="#2171b5"/>
<text x="305" y="614" fill="#222">simplifyIR</text>
<rect x="566" y="604" width="12" height="12" fill="#08306b"/>
<text x="582" y="614" fill="#222">linkIR</text>
<rect x="843" y="604" width="12" height="12" fill="#9e9ac8"/>
<text x="859" y="614" fill="#222">unrollLoopsInModule</text>
<rect x="12" y="622" width="12" height="12" fill="#807dba"/>
<text x="28" y="632" fill="#222">legalizeResourceTypes</text>
<rect x="289" y="622" width="12" height="12" fill="#6a51a3"/>
<text x="305" y="632" fill="#222">legalizeExistentialTypeLayout</text>
<rect x="566" y="622" width="12" height="12" fill="#bcbddc"/>
<text x="582" y="632" fill="#222">performMandatoryEarlyInlining</text>
<rect x="843" y="622" width="12" height="12" fill="#dadaeb"/>
<text x="859" y="632" fill="#222">performForceInlining</text>
<rect x="12" y="640" width="12" height="12" fill="#4a1486"/>
<text x="28" y="650" fill="#222">linkAndOptimizeIR (self)</text>
<rect x="289" y="640" width="12" height="12" fill="#fd8d3c"/>
<text x="305" y="650" fill="#222">emitEntryPointsSourceFromIR</text>
<rect x="566" y="640" width="12" height="12" fill="#e6550d"/>
<text x="582" y="650" fill="#222">generateOutput (self)</text>
<rect x="843" y="640" width="12" height="12" fill="#969696"/>
<text x="859" y="650" fill="#222">compileInner (self)</text>
</svg>