<svg xmlns="http://www.w3.org/2000/svg" xmlns:xlink="http://www.w3.org/1999/xlink" width="1132" height="680" viewBox="0 0 1132 680" preserveAspectRatio="xMidYMid meet" font-family="sans-serif" font-size="13">
<rect width="1132" height="680" fill="white"/>
<text x="12" y="30" font-size="20" font-weight="bold">emit_glsl — Across releases (median ms)</text>
<text x="68" y="60" font-size="15" font-weight="600" fill="#1a1a1a">emit_glsl<tspan fill="#888" font-weight="400" text-decoration="none">  0.45×</tspan></text>
<line x1="68.0" y1="516.0" x2="1108.0" y2="516.0" stroke="#eee"/>
<text x="64.0" y="519.0" text-anchor="end" fill="#999">0.0</text>
<line x1="68.0" y1="296.0" x2="1108.0" y2="296.0" stroke="#eee"/>
<text x="64.0" y="299.0" text-anchor="end" fill="#999">1009</text>
<line x1="68.0" y1="76.0" x2="1108.0" y2="76.0" stroke="#eee"/>
<text x="64.0" y="79.0" text-anchor="end" fill="#999">2018</text>
<line x1="68.0" y1="76.0" x2="68.0" y2="516.0" stroke="#333"/>
<line x1="68.0" y1="516.0" x2="1108.0" y2="516.0" stroke="#333"/>
<line x1="68.0" y1="516.0" x2="68.0" y2="519.0" stroke="#999"/>
<text x="68.0" y="531.0" text-anchor="end" fill="#666" transform="rotate(-50 68.0 531.0)">25.12</text>
<line x1="111.3" y1="516.0" x2="111.3" y2="519.0" stroke="#999"/>
<text x="111.3" y="531.0" text-anchor="end" fill="#666" transform="rotate(-50 111.3 531.0)">25.13</text>
<line x1="154.7" y1="516.0" x2="154.7" y2="519.0" stroke="#999"/>
<text x="154.7" y="531.0" text-anchor="end" fill="#666" transform="rotate(-50 154.7 531.0)">25.14</text>
<line x1="198.0" y1="516.0" x2="198.0" y2="519.0" stroke="#999"/>
<text x="198.0" y="531.0" text-anchor="end" fill="#666" transform="rotate(-50 198.0 531.0)">25.15</text>
<line x1="241.3" y1="516.0" x2="241.3" y2="519.0" stroke="#999"/>
<text x="241.3" y="531.0" text-anchor="end" fill="#666" transform="rotate(-50 241.3 531.0)">25.16</text>
<line x1="284.7" y1="516.0" x2="284.7" y2="519.0" stroke="#999"/>
<text x="284.7" y="531.0" text-anchor="end" fill="#666" transform="rotate(-50 284.7 531.0)">25.17</text>
<line x1="328.0" y1="516.0" x2="328.0" y2="519.0" stroke="#999"/>
<text x="328.0" y="531.0" text-anchor="end" fill="#666" transform="rotate(-50 328.0 531.0)">25.18</text>
<line x1="371.3" y1="516.0" x2="371.3" y2="519.0" stroke="#999"/>
<text x="371.3" y="531.0" text-anchor="end" fill="#666" transform="rotate(-50 371.3 531.0)">25.19</text>
<line x1="414.7" y1="516.0" x2="414.7" y2="519.0" stroke="#999"/>
<text x="414.7" y="531.0" text-anchor="end" fill="#666" transform="rotate(-50 414.7 531.0)">25.20</text>
<line x1="458.0" y1="516.0" x2="458.0" y2="519.0" stroke="#999"/>
<text x="458.0" y="531.0" text-anchor="end" fill="#666" transform="rotate(-50 458.0 531.0)">25.21</text>
<line x1="501.3" y1="516.0" x2="501.3" y2="519.0" stroke="#999"/>
<text x="501.3" y="531.0" text-anchor="end" fill="#666" transform="rotate(-50 501.3 531.0)">25.22</text>
<line x1="544.7" y1="516.0" x2="544.7" y2="519.0" stroke="#999"/>
<text x="544.7" y="531.0" text-anchor="end" fill="#666" transform="rotate(-50 544.7 531.0)">25.23</text>
<line x1="588.0" y1="516.0" x2="588.0" y2="519.0" stroke="#999"/>
<text x="588.0" y="531.0" text-anchor="end" fill="#666" transform="rotate(-50 588.0 531.0)">25.24</text>
<line x1="631.3" y1="516.0" x2="631.3" y2="519.0" stroke="#999"/>
<text x="631.3" y="531.0" text-anchor="end" fill="#666" transform="rotate(-50 631.3 531.0)">26.1</text>
<line x1="674.7" y1="516.0" x2="674.7" y2="519.0" stroke="#999"/>
<text x="674.7" y="531.0" text-anchor="end" fill="#666" transform="rotate(-50 674.7 531.0)">26.2</text>
<line x1="718.0" y1="516.0" x2="718.0" y2="519.0" stroke="#999"/>
<text x="718.0" y="531.0" text-anchor="end" fill="#666" transform="rotate(-50 718.0 531.0)">26.3</text>
<line x1="761.3" y1="516.0" x2="761.3" y2="519.0" stroke="#999"/>
<text x="761.3" y="531.0" text-anchor="end" fill="#666" transform="rotate(-50 761.3 531.0)">26.4</text>
<line x1="804.7" y1="516.0" x2="804.7" y2="519.0" stroke="#999"/>
<text x="804.7" y="531.0" text-anchor="end" fill="#666" transform="rotate(-50 804.7 531.0)">26.5</text>
<line x1="848.0" y1="516.0" x2="848.0" y2="519.0" stroke="#999"/>
<text x="848.0" y="531.0" text-anchor="end" fill="#666" transform="rotate(-50 848.0 531.0)">26.7</text>
<line x1="891.3" y1="516.0" x2="891.3" y2="519.0" stroke="#999"/>
<text x="891.3" y="531.0" text-anchor="end" fill="#666" transform="rotate(-50 891.3 531.0)">26.8</text>
<line x1="934.7" y1="516.0" x2="934.7" y2="519.0" stroke="#999"/>
<text x="934.7" y="531.0" text-anchor="end" fill="#666" transform="rotate(-50 934.7 531.0)">26.9</text>
<line x1="978.0" y1="516.0" x2="978.0" y2="519.0" stroke="#999"/>
<text x="978.0" y="531.0" text-anchor="end" fill="#666" transform="rotate(-50 978.0 531.0)">26.10</text>
<line x1="1021.3" y1="516.0" x2="1021.3" y2="519.0" stroke="#999"/>
<text x="1021.3" y="531.0" text-anchor="end" fill="#666" transform="rotate(-50 1021.3 531.0)">26.11</text>
<line x1="1064.7" y1="516.0" x2="1064.7" y2="519.0" stroke="#999"/>
<text x="1064.7" y="531.0" text-anchor="end" fill="#666" transform="rotate(-50 1064.7 531.0)">26.12</text>
<line x1="1108.0" y1="516.0" x2="1108.0" y2="519.0" stroke="#999"/>
<text x="1108.0" y="531.0" text-anchor="end" fill="#666" transform="rotate(-50 1108.0 531.0)">26.13</text>
<polygon points="68.0,515.8 111.3,515.6 154.7,515.7 198.0,515.8 241.3,515.8 284.7,515.8 328.0,515.8 371.3,515.8 414.7,515.8 458.0,515.8 501.3,515.8 544.7,515.8 588.0,515.8 631.3,515.8 674.7,515.8 718.0,515.8 761.3,515.8 804.7,515.8 848.0,515.8 891.3,515.8 934.7,515.8 978.0,515.8 1021.3,515.7 1064.7,515.8 1108.0,515.8 1108.0,516.0 1064.7,516.0 1021.3,516.0 978.0,516.0 934.7,516.0 891.3,516.0 848.0,516.0 804.7,516.0 761.3,516.0 718.0,516.0 674.7,516.0 631.3,516.0 588.0,516.0 544.7,516.0 501.3,516.0 458.0,516.0 414.7,516.0 371.3,516.0 328.0,516.0 284.7,516.0 241.3,516.0 198.0,516.0 154.7,516.0 111.3,516.0 68.0,516.0" fill="#c7e9c0" fill-opacity="0.9" stroke="#fff" stroke-width="0.4"><title>emit_glsl — parseTranslationUnit</title></polygon>
<polygon points="68.0,506.6 111.3,503.2 154.7,505.9 198.0,503.3 241.3,503.9 284.7,503.7 328.0,503.8 371.3,503.9 414.7,503.8 458.0,503.7 501.3,503.6 544.7,503.3 588.0,503.7 631.3,503.5 674.7,502.8 718.0,502.4 761.3,502.2 804.7,501.0 848.0,498.2 891.3,500.0 934.7,500.0 978.0,496.7 1021.3,506.8 1064.7,507.9 1108.0,508.2 1108.0,515.8 1064.7,515.8 1021.3,515.7 978.0,515.8 934.7,515.8 891.3,515.8 848.0,515.8 804.7,515.8 761.3,515.8 718.0,515.8 674.7,515.8 631.3,515.8 588.0,515.8 544.7,515.8 501.3,515.8 458.0,515.8 414.7,515.8 371.3,515.8 328.0,515.8 284.7,515.8 241.3,515.8 198.0,515.8 154.7,515.7 111.3,515.6 68.0,515.8" fill="#41ab5d" fill-opacity="0.9" stroke="#fff" stroke-width="0.4"><title>emit_glsl — SemanticChecking</title></polygon>
<polygon points="68.0,504.7 111.3,500.7 154.7,503.7 198.0,501.1 241.3,501.8 284.7,501.5 328.0,501.7 371.3,501.8 414.7,501.6 458.0,501.6 501.3,501.5 544.7,501.2 588.0,501.6 631.3,501.3 674.7,500.7 718.0,500.3 761.3,500.0 804.7,498.7 848.0,494.2 891.3,496.2 934.7,496.2 978.0,492.5 1021.3,502.6 1064.7,503.9 1108.0,504.6 1108.0,508.2 1064.7,507.9 1021.3,506.8 978.0,496.7 934.7,500.0 891.3,500.0 848.0,498.2 804.7,501.0 761.3,502.2 718.0,502.4 674.7,502.8 631.3,503.5 588.0,503.7 544.7,503.3 501.3,503.6 458.0,503.7 414.7,503.8 371.3,503.9 328.0,503.8 284.7,503.7 241.3,503.9 198.0,503.3 154.7,505.9 111.3,503.2 68.0,506.6" fill="#006d2c" fill-opacity="0.9" stroke="#fff" stroke-width="0.4"><title>emit_glsl — generateIR</title></polygon>
<polygon points="68.0,504.4 111.3,500.5 154.7,503.7 198.0,501.1 241.3,501.8 284.7,501.5 328.0,501.6 371.3,501.7 414.7,501.6 458.0,501.5 501.3,501.5 544.7,501.1 588.0,501.5 631.3,501.3 674.7,500.6 718.0,500.2 761.3,500.0 804.7,498.5 848.0,494.2 891.3,496.1 934.7,496.1 978.0,492.5 1021.3,502.6 1064.7,503.9 1108.0,504.6 1108.0,504.6 1064.7,503.9 1021.3,502.6 978.0,492.5 934.7,496.2 891.3,496.2 848.0,494.2 804.7,498.7 761.3,500.0 718.0,500.3 674.7,500.7 631.3,501.3 588.0,501.6 544.7,501.2 501.3,501.5 458.0,501.6 414.7,501.6 371.3,501.8 328.0,501.7 284.7,501.5 241.3,501.8 198.0,501.1 154.7,503.7 111.3,500.7 68.0,504.7" fill="#74c476" fill-opacity="0.9" stroke="#fff" stroke-width="0.4"><title>emit_glsl — frontEndExecute (self)</title></polygon>
<polygon points="68.0,503.9 111.3,499.9 154.7,503.1 198.0,500.5 241.3,501.2 284.7,500.9 328.0,501.1 371.3,501.1 414.7,501.0 458.0,500.9 501.3,500.9 544.7,500.5 588.0,500.4 631.3,500.2 674.7,499.5 718.0,499.1 761.3,498.9 804.7,497.2 848.0,489.0 891.3,491.8 934.7,491.7 978.0,487.9 1021.3,498.2 1064.7,499.7 1108.0,500.1 1108.0,504.6 1064.7,503.9 1021.3,502.6 978.0,492.5 934.7,496.1 891.3,496.1 848.0,494.2 804.7,498.5 761.3,500.0 718.0,500.2 674.7,500.6 631.3,501.3 588.0,501.5 544.7,501.1 501.3,501.5 458.0,501.5 414.7,501.6 371.3,501.7 328.0,501.6 284.7,501.5 241.3,501.8 198.0,501.1 154.7,503.7 111.3,500.5 68.0,504.4" fill="#6baed6" fill-opacity="0.9" stroke="#fff" stroke-width="0.4"><title>emit_glsl — specializeModule</title></polygon>
<polygon points="68.0,502.9 111.3,498.7 154.7,502.0 198.0,499.4 241.3,500.1 284.7,499.9 328.0,499.9 371.3,500.0 414.7,499.9 458.0,499.9 501.3,499.8 544.7,499.4 588.0,499.5 631.3,499.3 674.7,498.6 718.0,498.1 761.3,497.9 804.7,496.2 848.0,474.6 891.3,478.1 934.7,478.1 978.0,473.9 1021.3,483.8 1064.7,485.8 1108.0,486.8 1108.0,500.1 1064.7,499.7 1021.3,498.2 978.0,487.9 934.7,491.7 891.3,491.8 848.0,489.0 804.7,497.2 761.3,498.9 718.0,499.1 674.7,499.5 631.3,500.2 588.0,500.4 544.7,500.5 501.3,500.9 458.0,500.9 414.7,501.0 371.3,501.1 328.0,501.1 284.7,500.9 241.3,501.2 198.0,500.5 154.7,503.1 111.3,499.9 68.0,503.9" fill="#2171b5" fill-opacity="0.9" stroke="#fff" stroke-width="0.4"><title>emit_glsl — simplifyIR</title></polygon>
<polygon points="68.0,502.8 111.3,498.4 154.7,501.7 198.0,499.2 241.3,499.9 284.7,499.7 328.0,499.7 371.3,499.8 414.7,499.6 458.0,499.6 501.3,499.6 544.7,499.2 588.0,499.3 631.3,499.0 674.7,498.4 718.0,497.9 761.3,497.6 804.7,495.9 848.0,470.6 891.3,475.3 934.7,475.2 978.0,470.1 1021.3,483.5 1064.7,485.5 1108.0,486.5 1108.0,486.8 1064.7,485.8 1021.3,483.8 978.0,473.9 934.7,478.1 891.3,478.1 848.0,474.6 804.7,496.2 761.3,497.9 718.0,498.1 674.7,498.6 631.3,499.3 588.0,499.5 544.7,499.4 501.3,499.8 458.0,499.9 414.7,499.9 371.3,500.0 328.0,499.9 284.7,499.9 241.3,500.1 198.0,499.4 154.7,502.0 111.3,498.7 68.0,502.9" fill="#08306b" fill-opacity="0.9" stroke="#fff" stroke-width="0.4"><title>emit_glsl — linkIR</title></polygon>
<polygon points="68.0,502.8 111.3,498.4 154.7,501.7 198.0,499.2 241.3,499.9 284.7,499.7 328.0,499.7 371.3,499.8 414.7,499.6 458.0,499.6 501.3,499.6 544.7,499.2 588.0,499.3 631.3,499.0 674.7,498.4 718.0,497.9 761.3,497.6 804.7,495.9 848.0,470.6 891.3,475.3 934.7,475.2 978.0,470.1 1021.3,483.5 1064.7,485.5 1108.0,486.5 1108.0,486.5 1064.7,485.5 1021.3,483.5 978.0,470.1 934.7,475.2 891.3,475.3 848.0,470.6 804.7,495.9 761.3,497.6 718.0,497.9 674.7,498.4 631.3,499.0 588.0,499.3 544.7,499.2 501.3,499.6 458.0,499.6 414.7,499.6 371.3,499.8 328.0,499.7 284.7,499.7 241.3,499.9 198.0,499.2 154.7,501.7 111.3,498.4 68.0,502.8" fill="#9e9ac8" fill-opacity="0.9" stroke="#fff" stroke-width="0.4"><title>emit_glsl — unrollLoopsInModule</title></polygon>
<polygon points="68.0,418.3 111.3,403.0 154.7,414.5 198.0,412.1 241.3,417.0 284.7,418.7 328.0,478.3 371.3,478.8 414.7,479.1 458.0,478.9 501.3,478.9 544.7,477.6 588.0,478.7 631.3,478.1 674.7,477.0 718.0,476.9 761.3,476.8 804.7,472.8 848.0,441.8 891.3,449.5 934.7,449.4 978.0,440.4 1021.3,452.5 1064.7,456.4 1108.0,459.5 1108.0,486.5 1064.7,485.5 1021.3,483.5 978.0,470.1 934.7,475.2 891.3,475.3 848.0,470.6 804.7,495.9 761.3,497.6 718.0,497.9 674.7,498.4 631.3,499.0 588.0,499.3 544.7,499.2 501.3,499.6 458.0,499.6 414.7,499.6 371.3,499.8 328.0,499.7 284.7,499.7 241.3,499.9 198.0,499.2 154.7,501.7 111.3,498.4 68.0,502.8" fill="#807dba" fill-opacity="0.9" stroke="#fff" stroke-width="0.4"><title>emit_glsl — legalizeResourceTypes</title></polygon>
<polygon points="68.0,333.9 111.3,305.6 154.7,327.3 198.0,324.5 241.3,333.6 284.7,337.5 328.0,456.7 371.3,457.7 414.7,458.4 458.0,458.3 501.3,458.0 544.7,456.5 588.0,457.8 631.3,457.1 674.7,455.6 718.0,455.7 761.3,456.1 804.7,449.6 848.0,413.3 891.3,423.4 934.7,423.2 978.0,411.7 1021.3,423.4 1064.7,426.1 1108.0,432.9 1108.0,459.5 1064.7,456.4 1021.3,452.5 978.0,440.4 934.7,449.4 891.3,449.5 848.0,441.8 804.7,472.8 761.3,476.8 718.0,476.9 674.7,477.0 631.3,478.1 588.0,478.7 544.7,477.6 501.3,478.9 458.0,478.9 414.7,479.1 371.3,478.8 328.0,478.3 284.7,418.7 241.3,417.0 198.0,412.1 154.7,414.5 111.3,403.0 68.0,418.3" fill="#6a51a3" fill-opacity="0.9" stroke="#fff" stroke-width="0.4"><title>emit_glsl — legalizeExistentialTypeLayout</title></polygon>
<polygon points="68.0,333.9 111.3,305.6 154.7,327.3 198.0,324.4 241.3,333.5 284.7,337.5 328.0,456.7 371.3,457.7 414.7,458.3 458.0,458.2 501.3,457.9 544.7,456.5 588.0,457.8 631.3,457.0 674.7,455.5 718.0,455.6 761.3,456.1 804.7,449.5 848.0,413.2 891.3,423.3 934.7,423.2 978.0,411.6 1021.3,423.3 1064.7,426.0 1108.0,432.9 1108.0,432.9 1064.7,426.1 1021.3,423.4 978.0,411.7 934.7,423.2 891.3,423.4 848.0,413.3 804.7,449.6 761.3,456.1 718.0,455.7 674.7,455.6 631.3,457.1 588.0,457.8 544.7,456.5 501.3,458.0 458.0,458.3 414.7,458.4 371.3,457.7 328.0,456.7 284.7,337.5 241.3,333.6 198.0,324.5 154.7,327.3 111.3,305.6 68.0,333.9" fill="#bcbddc" fill-opacity="0.9" stroke="#fff" stroke-width="0.4"><title>emit_glsl — performMandatoryEarlyInlining</title></polygon>
<polygon points="68.0,333.9 111.3,305.6 154.7,327.3 198.0,324.4 241.3,333.5 284.7,337.5 328.0,456.6 371.3,457.6 414.7,458.3 458.0,458.2 501.3,457.9 544.7,456.4 588.0,457.8 631.3,457.0 674.7,455.5 718.0,455.6 761.3,456.0 804.7,449.5 848.0,413.2 891.3,423.3 934.7,423.1 978.0,411.6 1021.3,423.3 1064.7,426.0 1108.0,432.8 1108.0,432.9 1064.7,426.0 1021.3,423.3 978.0,411.6 934.7,423.2 891.3,423.3 848.0,413.2 804.7,449.5 761.3,456.1 718.0,455.6 674.7,455.5 631.3,457.0 588.0,457.8 544.7,456.5 501.3,457.9 458.0,458.2 414.7,458.3 371.3,457.7 328.0,456.7 284.7,337.5 241.3,333.5 198.0,324.4 154.7,327.3 111.3,305.6 68.0,333.9" fill="#dadaeb" fill-opacity="0.9" stroke="#fff" stroke-width="0.4"><title>emit_glsl — performForceInlining</title></polygon>
<polygon points="68.0,162.5 111.3,109.8 154.7,150.1 198.0,146.9 241.3,164.4 284.7,172.6 328.0,410.8 371.3,412.7 414.7,414.2 458.0,414.1 501.3,413.5 544.7,411.0 588.0,413.2 631.3,411.8 674.7,409.5 718.0,410.1 761.3,411.2 804.7,399.3 848.0,328.8 891.3,347.5 934.7,347.3 978.0,327.3 1021.3,340.8 1064.7,345.1 1108.0,358.1 1108.0,432.8 1064.7,426.0 1021.3,423.3 978.0,411.6 934.7,423.1 891.3,423.3 848.0,413.2 804.7,449.5 761.3,456.0 718.0,455.6 674.7,455.5 631.3,457.0 588.0,457.8 544.7,456.4 501.3,457.9 458.0,458.2 414.7,458.3 371.3,457.6 328.0,456.6 284.7,337.5 241.3,333.5 198.0,324.4 154.7,327.3 111.3,305.6 68.0,333.9" fill="#fd8d3c" fill-opacity="0.9" stroke="#fff" stroke-width="0.4"><title>emit_glsl — emitEntryPointsSourceFromIR</title></polygon>
<polygon points="68.0,162.3 111.3,108.6 154.7,149.7 198.0,143.9 241.3,164.4 284.7,172.5 328.0,410.3 371.3,412.6 414.7,414.0 458.0,413.7 501.3,413.5 544.7,410.9 588.0,413.0 631.3,411.8 674.7,409.3 718.0,410.1 761.3,411.2 804.7,399.3 848.0,328.8 891.3,347.5 934.7,347.2 978.0,327.0 1021.3,340.8 1064.7,345.1 1108.0,358.0 1108.0,358.1 1064.7,345.1 1021.3,340.8 978.0,327.3 934.7,347.3 891.3,347.5 848.0,328.8 804.7,399.3 761.3,411.2 718.0,410.1 674.7,409.5 631.3,411.8 588.0,413.2 544.7,411.0 501.3,413.5 458.0,414.1 414.7,414.2 371.3,412.7 328.0,410.8 284.7,172.6 241.3,164.4 198.0,146.9 154.7,150.1 111.3,109.8 68.0,162.5" fill="#969696" fill-opacity="0.9" stroke="#fff" stroke-width="0.4"><title>emit_glsl — compileInner (self)</title></polygon>
<text x="12" y="578" fill="#666" font-weight="600">phase buckets</text>
<rect x="12" y="586" width="12" height="12" fill="#c7e9c0"/>
<text x="28" y="596" fill="#222">parseTranslationUnit</text>
<rect x="289" y="586" width="12" height="12" fill="#41ab5d"/>
<text x="305" y="596" fill="#222">SemanticChecking</text>
<rect x="566" y="586" width="12" height="12" fill="#006d2c"/>
<text x="582" y="596" fill="#222">generateIR</text>
<rect x="843" y="586" width="12" height="12" fill="#74c476"/>
<text x="859" y="596" fill="#222">frontEndExecute (self)</text>
<rect x="12" y="604" width="12" height="12" fill="#6baed6"/>
<text x="28" y="614" fill="#222">specializeModule</text>
<rect x="289" y="604" width="12" height="12" fill="#2171b5"/>
<text x="305" y="614" fill="#222">simplifyIR</text>
<rect x="566" y="604" width="12" height="12" fill="#08306b"/>
<text x="582" y="614" fill="#222">linkIR</text>
<rect x="843" y="604" width="12" height="12" fill="#9e9ac8"/>
<text x="859" y="614" fill="#222">unrollLoopsInModule</text>
<rect x="12" y="622" width="12" height="12" fill="#807dba"/>
<text x="28" y="632" fill="#222">legalizeResourceTypes</text>
<rect x="289" y="622" width="12" height="12" fill="#6a51a3"/>
<text x="305" y="632" fill="#222">legalizeExistentialTypeLayout</text>
<rect x="566" y="622" width="12" height="12" fill="#bcbddc"/>
<text x="582" y="632" fill="#222">performMandatoryEarlyInlining</text>
<rect x="843" y="622" width="12" height="12" fill="#dadaeb"/>
<text x="859" y="632" fill="#222">performForceInlining</text>
<rect x="12" y="640" width="12" height="12" fill="#4a1486"/>
<text x="28" y="650" fill="#222">linkAndOptimizeIR (self)</text>
<rect x="289" y="640" width="12" height="12" fill="#fd8d3c"/>
<text x="305" y="650" fill="#222">emitEntryPointsSourceFromIR</text>
<rect x="566" y="640" width="12" height="12" fill="#e6550d"/>
<text x="582" y="650" fill="#222">generateOutput (self)</text>
<rect x="843" y="640" width="12" height="12" fill="#969696"/>
<text x="859" y="650" fill="#222">compileInner (self)</text>
</svg>