<svg xmlns="http://www.w3.org/2000/svg" xmlns:xlink="http://www.w3.org/1999/xlink" width="1132" height="680" viewBox="0 0 1132 680" preserveAspectRatio="xMidYMid meet" font-family="sans-serif" font-size="13">
<rect width="1132" height="680" fill="white"/>
<text x="12" y="30" font-size="20" font-weight="bold">emit_wgsl — Daily tip-of-tree (last 30 days) (median ms)</text>
<text x="68" y="60" font-size="15" font-weight="600" fill="#1a1a1a">emit_wgsl<tspan fill="#888" font-weight="400" text-decoration="none">  0.38×</tspan></text>
<line x1="68.0" y1="516.0" x2="1108.0" y2="516.0" stroke="#eee"/>
<text x="64.0" y="519.0" text-anchor="end" fill="#999">0.0</text>
<line x1="68.0" y1="296.0" x2="1108.0" y2="296.0" stroke="#eee"/>
<text x="64.0" y="299.0" text-anchor="end" fill="#999">469</text>
<line x1="68.0" y1="76.0" x2="1108.0" y2="76.0" stroke="#eee"/>
<text x="64.0" y="79.0" text-anchor="end" fill="#999">938</text>
<line x1="68.0" y1="76.0" x2="68.0" y2="516.0" stroke="#333"/>
<line x1="68.0" y1="516.0" x2="1108.0" y2="516.0" stroke="#333"/>
<line x1="68.0" y1="516.0" x2="68.0" y2="519.0" stroke="#999"/>
<text x="68.0" y="531.0" text-anchor="end" fill="#e8731a" transform="rotate(-50 68.0 531.0)">06-25</text>
<line x1="148.0" y1="516.0" x2="148.0" y2="519.0" stroke="#999"/>
<text x="148.0" y="531.0" text-anchor="end" fill="#e8731a" transform="rotate(-50 148.0 531.0)">06-26</text>
<line x1="228.0" y1="516.0" x2="228.0" y2="519.0" stroke="#999"/>
<text x="228.0" y="531.0" text-anchor="end" fill="#e8731a" transform="rotate(-50 228.0 531.0)">06-28</text>
<line x1="308.0" y1="516.0" x2="308.0" y2="519.0" stroke="#999"/>
<text x="308.0" y="531.0" text-anchor="end" fill="#e8731a" transform="rotate(-50 308.0 531.0)">07-01</text>
<line x1="388.0" y1="516.0" x2="388.0" y2="519.0" stroke="#999"/>
<text x="388.0" y="531.0" text-anchor="end" fill="#e8731a" transform="rotate(-50 388.0 531.0)">07-02</text>
<line x1="468.0" y1="516.0" x2="468.0" y2="519.0" stroke="#999"/>
<text x="468.0" y="531.0" text-anchor="end" fill="#e8731a" transform="rotate(-50 468.0 531.0)">07-03</text>
<line x1="548.0" y1="516.0" x2="548.0" y2="519.0" stroke="#999"/>
<text x="548.0" y="531.0" text-anchor="end" fill="#e8731a" transform="rotate(-50 548.0 531.0)">07-06</text>
<line x1="628.0" y1="516.0" x2="628.0" y2="519.0" stroke="#999"/>
<text x="628.0" y="531.0" text-anchor="end" fill="#e8731a" transform="rotate(-50 628.0 531.0)">07-07</text>
<line x1="708.0" y1="516.0" x2="708.0" y2="519.0" stroke="#999"/>
<text x="708.0" y="531.0" text-anchor="end" fill="#e8731a" transform="rotate(-50 708.0 531.0)">07-08</text>
<line x1="788.0" y1="516.0" x2="788.0" y2="519.0" stroke="#999"/>
<text x="788.0" y="531.0" text-anchor="end" fill="#e8731a" transform="rotate(-50 788.0 531.0)">07-09</text>
<line x1="868.0" y1="516.0" x2="868.0" y2="519.0" stroke="#999"/>
<text x="868.0" y="531.0" text-anchor="end" fill="#e8731a" transform="rotate(-50 868.0 531.0)">07-10</text>
<line x1="948.0" y1="516.0" x2="948.0" y2="519.0" stroke="#999"/>
<text x="948.0" y="531.0" text-anchor="end" fill="#e8731a" transform="rotate(-50 948.0 531.0)">07-11</text>
<line x1="1028.0" y1="516.0" x2="1028.0" y2="519.0" stroke="#999"/>
<text x="1028.0" y="531.0" text-anchor="end" fill="#e8731a" transform="rotate(-50 1028.0 531.0)">07-14</text>
<line x1="1108.0" y1="516.0" x2="1108.0" y2="519.0" stroke="#999"/>
<text x="1108.0" y="531.0" text-anchor="end" fill="#e8731a" transform="rotate(-50 1108.0 531.0)">07-15</text>
<polygon points="68.0,515.5 148.0,515.5 228.0,515.5 308.0,515.5 388.0,515.5 468.0,515.5 548.0,515.5 628.0,515.6 708.0,515.6 788.0,515.6 868.0,515.6 948.0,515.6 1028.0,515.6 1108.0,515.6 1108.0,516.0 1028.0,516.0 948.0,516.0 868.0,516.0 788.0,516.0 708.0,516.0 628.0,516.0 548.0,516.0 468.0,516.0 388.0,516.0 308.0,516.0 228.0,516.0 148.0,516.0 68.0,516.0" fill="#c7e9c0" fill-opacity="0.9" stroke="#fff" stroke-width="0.4"><title>emit_wgsl — parseTranslationUnit</title></polygon>
<polygon points="68.0,498.4 148.0,498.5 228.0,497.9 308.0,498.5 388.0,498.0 468.0,498.6 548.0,498.4 628.0,499.2 708.0,498.3 788.0,498.7 868.0,498.3 948.0,498.6 1028.0,498.5 1108.0,500.1 1108.0,515.6 1028.0,515.6 948.0,515.6 868.0,515.6 788.0,515.6 708.0,515.6 628.0,515.6 548.0,515.5 468.0,515.5 388.0,515.5 308.0,515.5 228.0,515.5 148.0,515.5 68.0,515.5" fill="#41ab5d" fill-opacity="0.9" stroke="#fff" stroke-width="0.4"><title>emit_wgsl — SemanticChecking</title></polygon>
<polygon points="68.0,490.0 148.0,490.7 228.0,489.5 308.0,490.5 388.0,490.1 468.0,490.9 548.0,490.7 628.0,491.5 708.0,490.0 788.0,490.6 868.0,493.5 948.0,493.8 1028.0,493.8 1108.0,495.5 1108.0,500.1 1028.0,498.5 948.0,498.6 868.0,498.3 788.0,498.7 708.0,498.3 628.0,499.2 548.0,498.4 468.0,498.6 388.0,498.0 308.0,498.5 228.0,497.9 148.0,498.5 68.0,498.4" fill="#006d2c" fill-opacity="0.9" stroke="#fff" stroke-width="0.4"><title>emit_wgsl — generateIR</title></polygon>
<polygon points="68.0,490.0 148.0,490.6 228.0,489.2 308.0,490.5 388.0,490.0 468.0,490.7 548.0,490.6 628.0,491.3 708.0,489.7 788.0,490.5 868.0,493.4 948.0,493.7 1028.0,493.7 1108.0,495.4 1108.0,495.5 1028.0,493.8 948.0,493.8 868.0,493.5 788.0,490.6 708.0,490.0 628.0,491.5 548.0,490.7 468.0,490.9 388.0,490.1 308.0,490.5 228.0,489.5 148.0,490.7 68.0,490.0" fill="#74c476" fill-opacity="0.9" stroke="#fff" stroke-width="0.4"><title>emit_wgsl — frontEndExecute (self)</title></polygon>
<polygon points="68.0,479.0 148.0,480.0 228.0,478.4 308.0,479.7 388.0,479.4 468.0,480.2 548.0,480.1 628.0,479.7 708.0,477.6 788.0,478.2 868.0,487.9 948.0,488.2 1028.0,488.3 1108.0,490.3 1108.0,495.4 1028.0,493.7 948.0,493.7 868.0,493.4 788.0,490.5 708.0,489.7 628.0,491.3 548.0,490.6 468.0,490.7 388.0,490.0 308.0,490.5 228.0,489.2 148.0,490.6 68.0,490.0" fill="#6baed6" fill-opacity="0.9" stroke="#fff" stroke-width="0.4"><title>emit_wgsl — specializeModule</title></polygon>
<polygon points="68.0,443.3 148.0,445.9 228.0,443.4 308.0,444.7 388.0,445.1 468.0,446.2 548.0,446.6 628.0,445.8 708.0,442.4 788.0,442.5 868.0,482.5 948.0,482.8 1028.0,482.8 1108.0,484.9 1108.0,490.3 1028.0,488.3 948.0,488.2 868.0,487.9 788.0,478.2 708.0,477.6 628.0,479.7 548.0,480.1 468.0,480.2 388.0,479.4 308.0,479.7 228.0,478.4 148.0,480.0 68.0,479.0" fill="#2171b5" fill-opacity="0.9" stroke="#fff" stroke-width="0.4"><title>emit_wgsl — simplifyIR</title></polygon>
<polygon points="68.0,442.5 148.0,445.3 228.0,442.8 308.0,444.1 388.0,444.5 468.0,445.5 548.0,446.0 628.0,445.2 708.0,441.8 788.0,441.9 868.0,481.9 948.0,482.2 1028.0,482.2 1108.0,484.4 1108.0,484.9 1028.0,482.8 948.0,482.8 868.0,482.5 788.0,442.5 708.0,442.4 628.0,445.8 548.0,446.6 468.0,446.2 388.0,445.1 308.0,444.7 228.0,443.4 148.0,445.9 68.0,443.3" fill="#08306b" fill-opacity="0.9" stroke="#fff" stroke-width="0.4"><title>emit_wgsl — linkIR</title></polygon>
<polygon points="68.0,442.5 148.0,445.3 228.0,442.8 308.0,444.1 388.0,444.5 468.0,445.5 548.0,446.0 628.0,445.2 708.0,441.8 788.0,441.9 868.0,481.9 948.0,482.2 1028.0,482.2 1108.0,484.4 1108.0,484.4 1028.0,482.2 948.0,482.2 868.0,481.9 788.0,441.9 708.0,441.8 628.0,445.2 548.0,446.0 468.0,445.5 388.0,444.5 308.0,444.1 228.0,442.8 148.0,445.3 68.0,442.5" fill="#9e9ac8" fill-opacity="0.9" stroke="#fff" stroke-width="0.4"><title>emit_wgsl — unrollLoopsInModule</title></polygon>
<polygon points="68.0,373.2 148.0,379.4 228.0,374.4 308.0,378.1 388.0,378.1 468.0,380.0 548.0,379.0 628.0,381.8 708.0,375.1 788.0,372.3 868.0,457.0 948.0,457.3 1028.0,457.3 1108.0,458.1 1108.0,484.4 1028.0,482.2 948.0,482.2 868.0,481.9 788.0,441.9 708.0,441.8 628.0,445.2 548.0,446.0 468.0,445.5 388.0,444.5 308.0,444.1 228.0,442.8 148.0,445.3 68.0,442.5" fill="#807dba" fill-opacity="0.9" stroke="#fff" stroke-width="0.4"><title>emit_wgsl — legalizeResourceTypes</title></polygon>
<polygon points="68.0,303.0 148.0,312.3 228.0,306.3 308.0,311.3 388.0,311.1 468.0,312.5 548.0,312.1 628.0,316.3 708.0,307.9 788.0,304.7 868.0,431.9 948.0,431.6 1028.0,431.9 1108.0,431.7 1108.0,458.1 1028.0,457.3 948.0,457.3 868.0,457.0 788.0,372.3 708.0,375.1 628.0,381.8 548.0,379.0 468.0,380.0 388.0,378.1 308.0,378.1 228.0,374.4 148.0,379.4 68.0,373.2" fill="#6a51a3" fill-opacity="0.9" stroke="#fff" stroke-width="0.4"><title>emit_wgsl — legalizeExistentialTypeLayout</title></polygon>
<polygon points="68.0,302.9 148.0,312.2 228.0,306.2 308.0,311.2 388.0,311.0 468.0,312.4 548.0,312.0 628.0,316.1 708.0,307.8 788.0,304.5 868.0,431.8 948.0,431.4 1028.0,431.7 1108.0,431.5 1108.0,431.7 1028.0,431.9 948.0,431.6 868.0,431.9 788.0,304.7 708.0,307.9 628.0,316.3 548.0,312.1 468.0,312.5 388.0,311.1 308.0,311.3 228.0,306.3 148.0,312.3 68.0,303.0" fill="#bcbddc" fill-opacity="0.9" stroke="#fff" stroke-width="0.4"><title>emit_wgsl — performMandatoryEarlyInlining</title></polygon>
<polygon points="68.0,302.8 148.0,312.1 228.0,306.1 308.0,311.1 388.0,310.9 468.0,312.3 548.0,311.9 628.0,316.0 708.0,307.7 788.0,304.4 868.0,431.7 948.0,431.3 1028.0,431.6 1108.0,431.4 1108.0,431.5 1028.0,431.7 948.0,431.4 868.0,431.8 788.0,304.5 708.0,307.8 628.0,316.1 548.0,312.0 468.0,312.4 388.0,311.0 308.0,311.2 228.0,306.2 148.0,312.2 68.0,302.9" fill="#dadaeb" fill-opacity="0.9" stroke="#fff" stroke-width="0.4"><title>emit_wgsl — performForceInlining</title></polygon>
<polygon points="68.0,109.0 148.0,127.4 228.0,116.5 308.0,125.2 388.0,125.4 468.0,127.6 548.0,127.1 628.0,134.4 708.0,119.4 788.0,111.1 868.0,363.4 948.0,362.3 1028.0,362.9 1108.0,361.3 1108.0,431.4 1028.0,431.6 948.0,431.3 868.0,431.7 788.0,304.4 708.0,307.7 628.0,316.0 548.0,311.9 468.0,312.3 388.0,310.9 308.0,311.1 228.0,306.1 148.0,312.1 68.0,302.8" fill="#fd8d3c" fill-opacity="0.9" stroke="#fff" stroke-width="0.4"><title>emit_wgsl — emitEntryPointsSourceFromIR</title></polygon>
<polygon points="68.0,108.6 148.0,127.2 228.0,116.2 308.0,124.6 388.0,125.0 468.0,127.6 548.0,126.6 628.0,134.3 708.0,118.0 788.0,110.3 868.0,363.4 948.0,362.0 1028.0,362.9 1108.0,361.3 1108.0,361.3 1028.0,362.9 948.0,362.3 868.0,363.4 788.0,111.1 708.0,119.4 628.0,134.4 548.0,127.1 468.0,127.6 388.0,125.4 308.0,125.2 228.0,116.5 148.0,127.4 68.0,109.0" fill="#969696" fill-opacity="0.9" stroke="#fff" stroke-width="0.4"><title>emit_wgsl — compileInner (self)</title></polygon>
<text x="12" y="578" fill="#666" font-weight="600">phase buckets</text>
<rect x="12" y="586" width="12" height="12" fill="#c7e9c0"/>
<text x="28" y="596" fill="#222">parseTranslationUnit</text>
<rect x="289" y="586" width="12" height="12" fill="#41ab5d"/>
<text x="305" y="596" fill="#222">SemanticChecking</text>
<rect x="566" y="586" width="12" height="12" fill="#006d2c"/>
<text x="582" y="596" fill="#222">generateIR</text>
<rect x="843" y="586" width="12" height="12" fill="#74c476"/>
<text x="859" y="596" fill="#222">frontEndExecute (self)</text>
<rect x="12" y="604" width="12" height="12" fill="#6baed6"/>
<text x="28" y="614" fill="#222">specializeModule</text>
<rect x="289" y="604" width="12" height="12" fill="#2171b5"/>
<text x="305" y="614" fill="#222">simplifyIR</text>
<rect x="566" y="604" width="12" height="12" fill="#08306b"/>
<text x="582" y="614" fill="#222">linkIR</text>
<rect x="843" y="604" width="12" height="12" fill="#9e9ac8"/>
<text x="859" y="614" fill="#222">unrollLoopsInModule</text>
<rect x="12" y="622" width="12" height="12" fill="#807dba"/>
<text x="28" y="632" fill="#222">legalizeResourceTypes</text>
<rect x="289" y="622" width="12" height="12" fill="#6a51a3"/>
<text x="305" y="632" fill="#222">legalizeExistentialTypeLayout</text>
<rect x="566" y="622" width="12" height="12" fill="#bcbddc"/>
<text x="582" y="632" fill="#222">performMandatoryEarlyInlining</text>
<rect x="843" y="622" width="12" height="12" fill="#dadaeb"/>
<text x="859" y="632" fill="#222">performForceInlining</text>
<rect x="12" y="640" width="12" height="12" fill="#4a1486"/>
<text x="28" y="650" fill="#222">linkAndOptimizeIR (self)</text>
<rect x="289" y="640" width="12" height="12" fill="#fd8d3c"/>
<text x="305" y="650" fill="#222">emitEntryPointsSourceFromIR</text>
<rect x="566" y="640" width="12" height="12" fill="#e6550d"/>
<text x="582" y="650" fill="#222">generateOutput (self)</text>
<rect x="843" y="640" width="12" height="12" fill="#969696"/>
<text x="859" y="650" fill="#222">compileInner (self)</text>
</svg>