<svg xmlns="http://www.w3.org/2000/svg" xmlns:xlink="http://www.w3.org/1999/xlink" width="1132" height="680" viewBox="0 0 1132 680" preserveAspectRatio="xMidYMid meet" font-family="sans-serif" font-size="13">
<rect width="1132" height="680" fill="white"/>
<text x="12" y="30" font-size="20" font-weight="bold">emit_metal — Across releases (median ms)</text>
<text x="68" y="60" font-size="15" font-weight="600" fill="#1a1a1a">emit_metal<tspan fill="#888" font-weight="400" text-decoration="none">  0.14×</tspan></text>
<line x1="68.0" y1="516.0" x2="1108.0" y2="516.0" stroke="#eee"/>
<text x="64.0" y="519.0" text-anchor="end" fill="#999">0.0</text>
<line x1="68.0" y1="296.0" x2="1108.0" y2="296.0" stroke="#eee"/>
<text x="64.0" y="299.0" text-anchor="end" fill="#999">1522</text>
<line x1="68.0" y1="76.0" x2="1108.0" y2="76.0" stroke="#eee"/>
<text x="64.0" y="79.0" text-anchor="end" fill="#999">3043</text>
<line x1="68.0" y1="76.0" x2="68.0" y2="516.0" stroke="#333"/>
<line x1="68.0" y1="516.0" x2="1108.0" y2="516.0" stroke="#333"/>
<line x1="68.0" y1="516.0" x2="68.0" y2="519.0" stroke="#999"/>
<text x="68.0" y="531.0" text-anchor="end" fill="#666" transform="rotate(-50 68.0 531.0)">25.12</text>
<line x1="109.6" y1="516.0" x2="109.6" y2="519.0" stroke="#999"/>
<text x="109.6" y="531.0" text-anchor="end" fill="#666" transform="rotate(-50 109.6 531.0)">25.13</text>
<line x1="151.2" y1="516.0" x2="151.2" y2="519.0" stroke="#999"/>
<text x="151.2" y="531.0" text-anchor="end" fill="#666" transform="rotate(-50 151.2 531.0)">25.14</text>
<line x1="192.8" y1="516.0" x2="192.8" y2="519.0" stroke="#999"/>
<text x="192.8" y="531.0" text-anchor="end" fill="#666" transform="rotate(-50 192.8 531.0)">25.15</text>
<line x1="234.4" y1="516.0" x2="234.4" y2="519.0" stroke="#999"/>
<text x="234.4" y="531.0" text-anchor="end" fill="#666" transform="rotate(-50 234.4 531.0)">25.16</text>
<line x1="276.0" y1="516.0" x2="276.0" y2="519.0" stroke="#999"/>
<text x="276.0" y="531.0" text-anchor="end" fill="#666" transform="rotate(-50 276.0 531.0)">25.17</text>
<line x1="317.6" y1="516.0" x2="317.6" y2="519.0" stroke="#999"/>
<text x="317.6" y="531.0" text-anchor="end" fill="#666" transform="rotate(-50 317.6 531.0)">25.18</text>
<line x1="359.2" y1="516.0" x2="359.2" y2="519.0" stroke="#999"/>
<text x="359.2" y="531.0" text-anchor="end" fill="#666" transform="rotate(-50 359.2 531.0)">25.19</text>
<line x1="400.8" y1="516.0" x2="400.8" y2="519.0" stroke="#999"/>
<text x="400.8" y="531.0" text-anchor="end" fill="#666" transform="rotate(-50 400.8 531.0)">25.20</text>
<line x1="442.4" y1="516.0" x2="442.4" y2="519.0" stroke="#999"/>
<text x="442.4" y="531.0" text-anchor="end" fill="#666" transform="rotate(-50 442.4 531.0)">25.21</text>
<line x1="484.0" y1="516.0" x2="484.0" y2="519.0" stroke="#999"/>
<text x="484.0" y="531.0" text-anchor="end" fill="#666" transform="rotate(-50 484.0 531.0)">25.22</text>
<line x1="525.6" y1="516.0" x2="525.6" y2="519.0" stroke="#999"/>
<text x="525.6" y="531.0" text-anchor="end" fill="#666" transform="rotate(-50 525.6 531.0)">25.23</text>
<line x1="567.2" y1="516.0" x2="567.2" y2="519.0" stroke="#999"/>
<text x="567.2" y="531.0" text-anchor="end" fill="#666" transform="rotate(-50 567.2 531.0)">25.24</text>
<line x1="608.8" y1="516.0" x2="608.8" y2="519.0" stroke="#999"/>
<text x="608.8" y="531.0" text-anchor="end" fill="#666" transform="rotate(-50 608.8 531.0)">26.1</text>
<line x1="650.4" y1="516.0" x2="650.4" y2="519.0" stroke="#999"/>
<text x="650.4" y="531.0" text-anchor="end" fill="#666" transform="rotate(-50 650.4 531.0)">26.2</text>
<line x1="692.0" y1="516.0" x2="692.0" y2="519.0" stroke="#999"/>
<text x="692.0" y="531.0" text-anchor="end" fill="#666" transform="rotate(-50 692.0 531.0)">26.3</text>
<line x1="733.6" y1="516.0" x2="733.6" y2="519.0" stroke="#999"/>
<text x="733.6" y="531.0" text-anchor="end" fill="#666" transform="rotate(-50 733.6 531.0)">26.4</text>
<line x1="775.2" y1="516.0" x2="775.2" y2="519.0" stroke="#999"/>
<text x="775.2" y="531.0" text-anchor="end" fill="#666" transform="rotate(-50 775.2 531.0)">26.5</text>
<line x1="816.8" y1="516.0" x2="816.8" y2="519.0" stroke="#999"/>
<text x="816.8" y="531.0" text-anchor="end" fill="#666" transform="rotate(-50 816.8 531.0)">26.7</text>
<line x1="858.4" y1="516.0" x2="858.4" y2="519.0" stroke="#999"/>
<text x="858.4" y="531.0" text-anchor="end" fill="#666" transform="rotate(-50 858.4 531.0)">26.8</text>
<line x1="900.0" y1="516.0" x2="900.0" y2="519.0" stroke="#999"/>
<text x="900.0" y="531.0" text-anchor="end" fill="#666" transform="rotate(-50 900.0 531.0)">26.9</text>
<line x1="941.6" y1="516.0" x2="941.6" y2="519.0" stroke="#999"/>
<text x="941.6" y="531.0" text-anchor="end" fill="#666" transform="rotate(-50 941.6 531.0)">26.10</text>
<line x1="983.2" y1="516.0" x2="983.2" y2="519.0" stroke="#999"/>
<text x="983.2" y="531.0" text-anchor="end" fill="#666" transform="rotate(-50 983.2 531.0)">26.11</text>
<line x1="1024.8" y1="516.0" x2="1024.8" y2="519.0" stroke="#999"/>
<text x="1024.8" y="531.0" text-anchor="end" fill="#666" transform="rotate(-50 1024.8 531.0)">26.12</text>
<line x1="1066.4" y1="516.0" x2="1066.4" y2="519.0" stroke="#999"/>
<text x="1066.4" y="531.0" text-anchor="end" fill="#666" transform="rotate(-50 1066.4 531.0)">26.13</text>
<line x1="1108.0" y1="516.0" x2="1108.0" y2="519.0" stroke="#999"/>
<text x="1108.0" y="531.0" text-anchor="end" fill="#666" transform="rotate(-50 1108.0 531.0)">26.13.1</text>
<polygon points="68.0,515.9 109.6,515.8 151.2,515.8 192.8,515.9 234.4,515.9 276.0,515.9 317.6,515.9 359.2,515.9 400.8,515.9 442.4,515.9 484.0,515.9 525.6,515.9 567.2,515.9 608.8,515.9 650.4,515.9 692.0,515.9 733.6,515.9 775.2,515.9 816.8,515.8 858.4,515.8 900.0,515.8 941.6,515.8 983.2,515.8 1024.8,515.9 1066.4,515.8 1108.0,515.8 1108.0,516.0 1066.4,516.0 1024.8,516.0 983.2,516.0 941.6,516.0 900.0,516.0 858.4,516.0 816.8,516.0 775.2,516.0 733.6,516.0 692.0,516.0 650.4,516.0 608.8,516.0 567.2,516.0 525.6,516.0 484.0,516.0 442.4,516.0 400.8,516.0 359.2,516.0 317.6,516.0 276.0,516.0 234.4,516.0 192.8,516.0 151.2,516.0 109.6,516.0 68.0,516.0" fill="#c7e9c0" fill-opacity="0.9" stroke="#fff" stroke-width="0.4"><title>emit_metal — parseTranslationUnit</title></polygon>
<polygon points="68.0,509.6 109.6,508.9 151.2,507.5 192.8,507.6 234.4,508.0 276.0,507.9 317.6,508.0 359.2,507.9 400.8,507.9 442.4,507.8 484.0,507.9 525.6,507.7 567.2,507.8 608.8,507.6 650.4,507.2 692.0,507.1 733.6,507.0 775.2,507.1 816.8,503.9 858.4,505.4 900.0,504.8 941.6,503.8 983.2,510.4 1024.8,510.5 1066.4,510.9 1108.0,510.7 1108.0,515.8 1066.4,515.8 1024.8,515.9 983.2,515.8 941.6,515.8 900.0,515.8 858.4,515.8 816.8,515.8 775.2,515.9 733.6,515.9 692.0,515.9 650.4,515.9 608.8,515.9 567.2,515.9 525.6,515.9 484.0,515.9 442.4,515.9 400.8,515.9 359.2,515.9 317.6,515.9 276.0,515.9 234.4,515.9 192.8,515.9 151.2,515.8 109.6,515.8 68.0,515.9" fill="#41ab5d" fill-opacity="0.9" stroke="#fff" stroke-width="0.4"><title>emit_metal — SemanticChecking</title></polygon>
<polygon points="68.0,508.3 109.6,507.4 151.2,505.9 192.8,506.1 234.4,506.6 276.0,506.4 317.6,506.6 359.2,506.5 400.8,506.5 442.4,506.4 484.0,506.5 525.6,506.3 567.2,506.4 608.8,506.2 650.4,505.8 692.0,505.7 733.6,505.6 775.2,505.7 816.8,501.2 858.4,502.9 900.0,502.1 941.6,501.1 983.2,507.6 1024.8,508.0 1066.4,508.5 1108.0,509.2 1108.0,510.7 1066.4,510.9 1024.8,510.5 983.2,510.4 941.6,503.8 900.0,504.8 858.4,505.4 816.8,503.9 775.2,507.1 733.6,507.0 692.0,507.1 650.4,507.2 608.8,507.6 567.2,507.8 525.6,507.7 484.0,507.9 442.4,507.8 400.8,507.9 359.2,507.9 317.6,508.0 276.0,507.9 234.4,508.0 192.8,507.6 151.2,507.5 109.6,508.9 68.0,509.6" fill="#006d2c" fill-opacity="0.9" stroke="#fff" stroke-width="0.4"><title>emit_metal — generateIR</title></polygon>
<polygon points="68.0,508.2 109.6,507.4 151.2,505.6 192.8,506.1 234.4,506.6 276.0,506.4 317.6,506.5 359.2,506.4 400.8,506.5 442.4,506.3 484.0,506.4 525.6,506.3 567.2,506.3 608.8,506.1 650.4,505.7 692.0,505.6 733.6,505.5 775.2,505.7 816.8,501.1 858.4,502.8 900.0,502.1 941.6,501.1 983.2,507.6 1024.8,507.9 1066.4,508.4 1108.0,509.1 1108.0,509.2 1066.4,508.5 1024.8,508.0 983.2,507.6 941.6,501.1 900.0,502.1 858.4,502.9 816.8,501.2 775.2,505.7 733.6,505.6 692.0,505.7 650.4,505.8 608.8,506.2 567.2,506.4 525.6,506.3 484.0,506.5 442.4,506.4 400.8,506.5 359.2,506.5 317.6,506.6 276.0,506.4 234.4,506.6 192.8,506.1 151.2,505.9 109.6,507.4 68.0,508.3" fill="#74c476" fill-opacity="0.9" stroke="#fff" stroke-width="0.4"><title>emit_metal — frontEndExecute (self)</title></polygon>
<polygon points="68.0,507.6 109.6,506.8 151.2,505.0 192.8,505.5 234.4,506.1 276.0,505.9 317.6,505.9 359.2,505.9 400.8,505.9 442.4,505.8 484.0,505.9 525.6,505.8 567.2,505.3 608.8,505.0 650.4,504.7 692.0,504.5 733.6,504.5 775.2,504.5 816.8,496.4 858.4,498.7 900.0,497.8 941.6,496.7 983.2,502.2 1024.8,503.6 1066.4,504.2 1108.0,507.5 1108.0,509.1 1066.4,508.4 1024.8,507.9 983.2,507.6 941.6,501.1 900.0,502.1 858.4,502.8 816.8,501.1 775.2,505.7 733.6,505.5 692.0,505.6 650.4,505.7 608.8,506.1 567.2,506.3 525.6,506.3 484.0,506.4 442.4,506.3 400.8,506.5 359.2,506.4 317.6,506.5 276.0,506.4 234.4,506.6 192.8,506.1 151.2,505.6 109.6,507.4 68.0,508.2" fill="#6baed6" fill-opacity="0.9" stroke="#fff" stroke-width="0.4"><title>emit_metal — specializeModule</title></polygon>
<polygon points="68.0,506.6 109.6,505.6 151.2,503.7 192.8,504.3 234.4,504.9 276.0,504.8 317.6,504.8 359.2,504.7 400.8,504.7 442.4,504.6 484.0,504.7 525.6,504.6 567.2,504.3 608.8,504.0 650.4,503.6 692.0,503.5 733.6,503.4 775.2,503.5 816.8,482.3 858.4,485.7 900.0,484.3 941.6,482.5 983.2,487.4 1024.8,488.7 1066.4,491.7 1108.0,505.9 1108.0,507.5 1066.4,504.2 1024.8,503.6 983.2,502.2 941.6,496.7 900.0,497.8 858.4,498.7 816.8,496.4 775.2,504.5 733.6,504.5 692.0,504.5 650.4,504.7 608.8,505.0 567.2,505.3 525.6,505.8 484.0,505.9 442.4,505.8 400.8,505.9 359.2,505.9 317.6,505.9 276.0,505.9 234.4,506.1 192.8,505.5 151.2,505.0 109.6,506.8 68.0,507.6" fill="#2171b5" fill-opacity="0.9" stroke="#fff" stroke-width="0.4"><title>emit_metal — simplifyIR</title></polygon>
<polygon points="68.0,506.4 109.6,505.3 151.2,503.4 192.8,504.0 234.4,504.7 276.0,504.5 317.6,504.5 359.2,504.5 400.8,504.5 442.4,504.4 484.0,504.5 525.6,504.4 567.2,504.1 608.8,503.8 650.4,503.4 692.0,503.3 733.6,503.2 775.2,503.3 816.8,478.7 858.4,483.1 900.0,480.9 941.6,478.8 983.2,487.2 1024.8,488.4 1066.4,491.5 1108.0,505.7 1108.0,505.9 1066.4,491.7 1024.8,488.7 983.2,487.4 941.6,482.5 900.0,484.3 858.4,485.7 816.8,482.3 775.2,503.5 733.6,503.4 692.0,503.5 650.4,503.6 608.8,504.0 567.2,504.3 525.6,504.6 484.0,504.7 442.4,504.6 400.8,504.7 359.2,504.7 317.6,504.8 276.0,504.8 234.4,504.9 192.8,504.3 151.2,503.7 109.6,505.6 68.0,506.6" fill="#08306b" fill-opacity="0.9" stroke="#fff" stroke-width="0.4"><title>emit_metal — linkIR</title></polygon>
<polygon points="68.0,506.4 109.6,505.3 151.2,503.4 192.8,504.0 234.4,504.7 276.0,504.5 317.6,504.5 359.2,504.5 400.8,504.5 442.4,504.4 484.0,504.5 525.6,504.4 567.2,504.1 608.8,503.8 650.4,503.4 692.0,503.3 733.6,503.2 775.2,503.3 816.8,478.7 858.4,483.1 900.0,480.9 941.6,478.8 983.2,487.2 1024.8,488.4 1066.4,491.5 1108.0,505.7 1108.0,505.7 1066.4,491.5 1024.8,488.4 983.2,487.2 941.6,478.8 900.0,480.9 858.4,483.1 816.8,478.7 775.2,503.3 733.6,503.2 692.0,503.3 650.4,503.4 608.8,503.8 567.2,504.1 525.6,504.4 484.0,504.5 442.4,504.4 400.8,504.5 359.2,504.5 317.6,504.5 276.0,504.5 234.4,504.7 192.8,504.0 151.2,503.4 109.6,505.3 68.0,506.4" fill="#9e9ac8" fill-opacity="0.9" stroke="#fff" stroke-width="0.4"><title>emit_metal — unrollLoopsInModule</title></polygon>
<polygon points="68.0,423.1 109.6,407.7 151.2,408.7 192.8,420.1 234.4,423.2 276.0,425.9 317.6,483.5 359.2,484.3 400.8,484.6 442.4,484.3 484.0,484.7 525.6,484.3 567.2,483.8 608.8,483.7 650.4,483.3 692.0,483.0 733.6,482.9 775.2,483.3 816.8,452.3 858.4,458.8 900.0,456.0 941.6,451.7 983.2,457.1 1024.8,457.4 1066.4,466.4 1108.0,497.9 1108.0,505.7 1066.4,491.5 1024.8,488.4 983.2,487.2 941.6,478.8 900.0,480.9 858.4,483.1 816.8,478.7 775.2,503.3 733.6,503.2 692.0,503.3 650.4,503.4 608.8,503.8 567.2,504.1 525.6,504.4 484.0,504.5 442.4,504.4 400.8,504.5 359.2,504.5 317.6,504.5 276.0,504.5 234.4,504.7 192.8,504.0 151.2,503.4 109.6,505.3 68.0,506.4" fill="#807dba" fill-opacity="0.9" stroke="#fff" stroke-width="0.4"><title>emit_metal — legalizeResourceTypes</title></polygon>
<polygon points="68.0,338.8 109.6,308.3 151.2,313.7 192.8,332.5 234.4,341.7 276.0,343.2 317.6,462.4 359.2,464.0 400.8,464.6 442.4,464.0 484.0,464.4 525.6,464.0 567.2,463.6 608.8,463.4 650.4,462.8 692.0,462.6 733.6,462.5 775.2,463.3 816.8,425.2 858.4,434.4 900.0,431.0 941.6,424.1 983.2,426.5 1024.8,428.2 1066.4,441.0 1108.0,489.6 1108.0,497.9 1066.4,466.4 1024.8,457.4 983.2,457.1 941.6,451.7 900.0,456.0 858.4,458.8 816.8,452.3 775.2,483.3 733.6,482.9 692.0,483.0 650.4,483.3 608.8,483.7 567.2,483.8 525.6,484.3 484.0,484.7 442.4,484.3 400.8,484.6 359.2,484.3 317.6,483.5 276.0,425.9 234.4,423.2 192.8,420.1 151.2,408.7 109.6,407.7 68.0,423.1" fill="#6a51a3" fill-opacity="0.9" stroke="#fff" stroke-width="0.4"><title>emit_metal — legalizeExistentialTypeLayout</title></polygon>
<polygon points="68.0,338.8 109.6,308.3 151.2,313.7 192.8,332.5 234.4,341.6 276.0,343.1 317.6,462.4 359.2,463.9 400.8,464.5 442.4,463.9 484.0,464.4 525.6,463.9 567.2,463.5 608.8,463.3 650.4,462.8 692.0,462.5 733.6,462.5 775.2,463.2 816.8,425.2 858.4,434.4 900.0,431.0 941.6,424.1 983.2,426.4 1024.8,428.1 1066.4,441.0 1108.0,489.6 1108.0,489.6 1066.4,441.0 1024.8,428.2 983.2,426.5 941.6,424.1 900.0,431.0 858.4,434.4 816.8,425.2 775.2,463.3 733.6,462.5 692.0,462.6 650.4,462.8 608.8,463.4 567.2,463.6 525.6,464.0 484.0,464.4 442.4,464.0 400.8,464.6 359.2,464.0 317.6,462.4 276.0,343.2 234.4,341.7 192.8,332.5 151.2,313.7 109.6,308.3 68.0,338.8" fill="#bcbddc" fill-opacity="0.9" stroke="#fff" stroke-width="0.4"><title>emit_metal — performMandatoryEarlyInlining</title></polygon>
<polygon points="68.0,338.8 109.6,308.3 151.2,313.7 192.8,332.4 234.4,341.6 276.0,343.1 317.6,462.3 359.2,463.9 400.8,464.5 442.4,463.9 484.0,464.4 525.6,463.9 567.2,463.5 608.8,463.3 650.4,462.7 692.0,462.5 733.6,462.4 775.2,463.2 816.8,425.2 858.4,434.3 900.0,431.0 941.6,424.1 983.2,426.4 1024.8,428.1 1066.4,440.9 1108.0,489.5 1108.0,489.6 1066.4,441.0 1024.8,428.1 983.2,426.4 941.6,424.1 900.0,431.0 858.4,434.4 816.8,425.2 775.2,463.2 733.6,462.5 692.0,462.5 650.4,462.8 608.8,463.3 567.2,463.5 525.6,463.9 484.0,464.4 442.4,463.9 400.8,464.5 359.2,463.9 317.6,462.4 276.0,343.1 234.4,341.6 192.8,332.5 151.2,313.7 109.6,308.3 68.0,338.8" fill="#dadaeb" fill-opacity="0.9" stroke="#fff" stroke-width="0.4"><title>emit_metal — performForceInlining</title></polygon>
<polygon points="68.0,169.0 109.6,108.6 151.2,121.3 192.8,158.3 234.4,176.0 276.0,179.3 317.6,417.7 359.2,420.8 400.8,422.0 442.4,420.9 484.0,421.8 525.6,421.0 567.2,420.1 608.8,420.0 650.4,419.2 692.0,418.9 733.6,418.8 775.2,420.2 816.8,347.2 858.4,363.9 900.0,357.8 941.6,344.7 983.2,342.9 1024.8,346.3 1066.4,371.6 1108.0,468.0 1108.0,489.5 1066.4,440.9 1024.8,428.1 983.2,426.4 941.6,424.1 900.0,431.0 858.4,434.3 816.8,425.2 775.2,463.2 733.6,462.4 692.0,462.5 650.4,462.7 608.8,463.3 567.2,463.5 525.6,463.9 484.0,464.4 442.4,463.9 400.8,464.5 359.2,463.9 317.6,462.3 276.0,343.1 234.4,341.6 192.8,332.4 151.2,313.7 109.6,308.3 68.0,338.8" fill="#fd8d3c" fill-opacity="0.9" stroke="#fff" stroke-width="0.4"><title>emit_metal — emitEntryPointsSourceFromIR</title></polygon>
<polygon points="68.0,169.0 109.6,108.6 151.2,121.3 192.8,158.3 234.4,175.7 276.0,179.2 317.6,417.7 359.2,420.8 400.8,422.0 442.4,420.9 484.0,421.8 525.6,421.0 567.2,420.1 608.8,420.0 650.4,419.2 692.0,418.7 733.6,418.6 775.2,420.1 816.8,346.5 858.4,363.9 900.0,357.8 941.6,342.1 983.2,342.9 1024.8,345.5 1066.4,371.5 1108.0,468.0 1108.0,468.0 1066.4,371.6 1024.8,346.3 983.2,342.9 941.6,344.7 900.0,357.8 858.4,363.9 816.8,347.2 775.2,420.2 733.6,418.8 692.0,418.9 650.4,419.2 608.8,420.0 567.2,420.1 525.6,421.0 484.0,421.8 442.4,420.9 400.8,422.0 359.2,420.8 317.6,417.7 276.0,179.3 234.4,176.0 192.8,158.3 151.2,121.3 109.6,108.6 68.0,169.0" fill="#969696" fill-opacity="0.9" stroke="#fff" stroke-width="0.4"><title>emit_metal — compileInner (self)</title></polygon>
<text x="12" y="578" fill="#666" font-weight="600">phase buckets</text>
<rect x="12" y="586" width="12" height="12" fill="#c7e9c0"/>
<text x="28" y="596" fill="#222">parseTranslationUnit</text>
<rect x="289" y="586" width="12" height="12" fill="#41ab5d"/>
<text x="305" y="596" fill="#222">SemanticChecking</text>
<rect x="566" y="586" width="12" height="12" fill="#006d2c"/>
<text x="582" y="596" fill="#222">generateIR</text>
<rect x="843" y="586" width="12" height="12" fill="#74c476"/>
<text x="859" y="596" fill="#222">frontEndExecute (self)</text>
<rect x="12" y="604" width="12" height="12" fill="#6baed6"/>
<text x="28" y="614" fill="#222">specializeModule</text>
<rect x="289" y="604" width="12" height="12" fill="#2171b5"/>
<text x="305" y="614" fill="#222">simplifyIR</text>
<rect x="566" y="604" width="12" height="12" fill="#08306b"/>
<text x="582" y="614" fill="#222">linkIR</text>
<rect x="843" y="604" width="12" height="12" fill="#9e9ac8"/>
<text x="859" y="614" fill="#222">unrollLoopsInModule</text>
<rect x="12" y="622" width="12" height="12" fill="#807dba"/>
<text x="28" y="632" fill="#222">legalizeResourceTypes</text>
<rect x="289" y="622" width="12" height="12" fill="#6a51a3"/>
<text x="305" y="632" fill="#222">legalizeExistentialTypeLayout</text>
<rect x="566" y="622" width="12" height="12" fill="#bcbddc"/>
<text x="582" y="632" fill="#222">performMandatoryEarlyInlining</text>
<rect x="843" y="622" width="12" height="12" fill="#dadaeb"/>
<text x="859" y="632" fill="#222">performForceInlining</text>
<rect x="12" y="640" width="12" height="12" fill="#4a1486"/>
<text x="28" y="650" fill="#222">linkAndOptimizeIR (self)</text>
<rect x="289" y="640" width="12" height="12" fill="#fd8d3c"/>
<text x="305" y="650" fill="#222">emitEntryPointsSourceFromIR</text>
<rect x="566" y="640" width="12" height="12" fill="#e6550d"/>
<text x="582" y="650" fill="#222">generateOutput (self)</text>
<rect x="843" y="640" width="12" height="12" fill="#969696"/>
<text x="859" y="650" fill="#222">compileInner (self)</text>
</svg>