<svg xmlns="http://www.w3.org/2000/svg" xmlns:xlink="http://www.w3.org/1999/xlink" width="1132" height="680" viewBox="0 0 1132 680" preserveAspectRatio="xMidYMid meet" font-family="sans-serif" font-size="13">
<rect width="1132" height="680" fill="white"/>
<text x="12" y="30" font-size="20" font-weight="bold">emit_hlsl — Across releases (median ms)</text>
<text x="68" y="60" font-size="15" font-weight="600" fill="#1a1a1a">emit_hlsl<tspan fill="#888" font-weight="400" text-decoration="none">  0.49×</tspan></text>
<line x1="68.0" y1="516.0" x2="1108.0" y2="516.0" stroke="#eee"/>
<text x="64.0" y="519.0" text-anchor="end" fill="#999">0.0</text>
<line x1="68.0" y1="296.0" x2="1108.0" y2="296.0" stroke="#eee"/>
<text x="64.0" y="299.0" text-anchor="end" fill="#999">974</text>
<line x1="68.0" y1="76.0" x2="1108.0" y2="76.0" stroke="#eee"/>
<text x="64.0" y="79.0" text-anchor="end" fill="#999">1948</text>
<line x1="68.0" y1="76.0" x2="68.0" y2="516.0" stroke="#333"/>
<line x1="68.0" y1="516.0" x2="1108.0" y2="516.0" stroke="#333"/>
<line x1="68.0" y1="516.0" x2="68.0" y2="519.0" stroke="#999"/>
<text x="68.0" y="531.0" text-anchor="end" fill="#666" transform="rotate(-50 68.0 531.0)">25.12</text>
<line x1="111.3" y1="516.0" x2="111.3" y2="519.0" stroke="#999"/>
<text x="111.3" y="531.0" text-anchor="end" fill="#666" transform="rotate(-50 111.3 531.0)">25.13</text>
<line x1="154.7" y1="516.0" x2="154.7" y2="519.0" stroke="#999"/>
<text x="154.7" y="531.0" text-anchor="end" fill="#666" transform="rotate(-50 154.7 531.0)">25.14</text>
<line x1="198.0" y1="516.0" x2="198.0" y2="519.0" stroke="#999"/>
<text x="198.0" y="531.0" text-anchor="end" fill="#666" transform="rotate(-50 198.0 531.0)">25.15</text>
<line x1="241.3" y1="516.0" x2="241.3" y2="519.0" stroke="#999"/>
<text x="241.3" y="531.0" text-anchor="end" fill="#666" transform="rotate(-50 241.3 531.0)">25.16</text>
<line x1="284.7" y1="516.0" x2="284.7" y2="519.0" stroke="#999"/>
<text x="284.7" y="531.0" text-anchor="end" fill="#666" transform="rotate(-50 284.7 531.0)">25.17</text>
<line x1="328.0" y1="516.0" x2="328.0" y2="519.0" stroke="#999"/>
<text x="328.0" y="531.0" text-anchor="end" fill="#666" transform="rotate(-50 328.0 531.0)">25.18</text>
<line x1="371.3" y1="516.0" x2="371.3" y2="519.0" stroke="#999"/>
<text x="371.3" y="531.0" text-anchor="end" fill="#666" transform="rotate(-50 371.3 531.0)">25.19</text>
<line x1="414.7" y1="516.0" x2="414.7" y2="519.0" stroke="#999"/>
<text x="414.7" y="531.0" text-anchor="end" fill="#666" transform="rotate(-50 414.7 531.0)">25.20</text>
<line x1="458.0" y1="516.0" x2="458.0" y2="519.0" stroke="#999"/>
<text x="458.0" y="531.0" text-anchor="end" fill="#666" transform="rotate(-50 458.0 531.0)">25.21</text>
<line x1="501.3" y1="516.0" x2="501.3" y2="519.0" stroke="#999"/>
<text x="501.3" y="531.0" text-anchor="end" fill="#666" transform="rotate(-50 501.3 531.0)">25.22</text>
<line x1="544.7" y1="516.0" x2="544.7" y2="519.0" stroke="#999"/>
<text x="544.7" y="531.0" text-anchor="end" fill="#666" transform="rotate(-50 544.7 531.0)">25.23</text>
<line x1="588.0" y1="516.0" x2="588.0" y2="519.0" stroke="#999"/>
<text x="588.0" y="531.0" text-anchor="end" fill="#666" transform="rotate(-50 588.0 531.0)">25.24</text>
<line x1="631.3" y1="516.0" x2="631.3" y2="519.0" stroke="#999"/>
<text x="631.3" y="531.0" text-anchor="end" fill="#666" transform="rotate(-50 631.3 531.0)">26.1</text>
<line x1="674.7" y1="516.0" x2="674.7" y2="519.0" stroke="#999"/>
<text x="674.7" y="531.0" text-anchor="end" fill="#666" transform="rotate(-50 674.7 531.0)">26.2</text>
<line x1="718.0" y1="516.0" x2="718.0" y2="519.0" stroke="#999"/>
<text x="718.0" y="531.0" text-anchor="end" fill="#666" transform="rotate(-50 718.0 531.0)">26.3</text>
<line x1="761.3" y1="516.0" x2="761.3" y2="519.0" stroke="#999"/>
<text x="761.3" y="531.0" text-anchor="end" fill="#666" transform="rotate(-50 761.3 531.0)">26.4</text>
<line x1="804.7" y1="516.0" x2="804.7" y2="519.0" stroke="#999"/>
<text x="804.7" y="531.0" text-anchor="end" fill="#666" transform="rotate(-50 804.7 531.0)">26.5</text>
<line x1="848.0" y1="516.0" x2="848.0" y2="519.0" stroke="#999"/>
<text x="848.0" y="531.0" text-anchor="end" fill="#666" transform="rotate(-50 848.0 531.0)">26.7</text>
<line x1="891.3" y1="516.0" x2="891.3" y2="519.0" stroke="#999"/>
<text x="891.3" y="531.0" text-anchor="end" fill="#666" transform="rotate(-50 891.3 531.0)">26.8</text>
<line x1="934.7" y1="516.0" x2="934.7" y2="519.0" stroke="#999"/>
<text x="934.7" y="531.0" text-anchor="end" fill="#666" transform="rotate(-50 934.7 531.0)">26.9</text>
<line x1="978.0" y1="516.0" x2="978.0" y2="519.0" stroke="#999"/>
<text x="978.0" y="531.0" text-anchor="end" fill="#666" transform="rotate(-50 978.0 531.0)">26.10</text>
<line x1="1021.3" y1="516.0" x2="1021.3" y2="519.0" stroke="#999"/>
<text x="1021.3" y="531.0" text-anchor="end" fill="#666" transform="rotate(-50 1021.3 531.0)">26.11</text>
<line x1="1064.7" y1="516.0" x2="1064.7" y2="519.0" stroke="#999"/>
<text x="1064.7" y="531.0" text-anchor="end" fill="#666" transform="rotate(-50 1064.7 531.0)">26.12</text>
<line x1="1108.0" y1="516.0" x2="1108.0" y2="519.0" stroke="#999"/>
<text x="1108.0" y="531.0" text-anchor="end" fill="#666" transform="rotate(-50 1108.0 531.0)">26.13</text>
<polygon points="68.0,515.8 111.3,515.7 154.7,515.7 198.0,515.8 241.3,515.8 284.7,515.8 328.0,515.8 371.3,515.8 414.7,515.8 458.0,515.8 501.3,515.8 544.7,515.8 588.0,515.8 631.3,515.8 674.7,515.8 718.0,515.8 761.3,515.8 804.7,515.8 848.0,515.8 891.3,515.8 934.7,515.8 978.0,515.8 1021.3,515.8 1064.7,515.8 1108.0,515.8 1108.0,516.0 1064.7,516.0 1021.3,516.0 978.0,516.0 934.7,516.0 891.3,516.0 848.0,516.0 804.7,516.0 761.3,516.0 718.0,516.0 674.7,516.0 631.3,516.0 588.0,516.0 544.7,516.0 501.3,516.0 458.0,516.0 414.7,516.0 371.3,516.0 328.0,516.0 284.7,516.0 241.3,516.0 198.0,516.0 154.7,516.0 111.3,516.0 68.0,516.0" fill="#c7e9c0" fill-opacity="0.9" stroke="#fff" stroke-width="0.4"><title>emit_hlsl — parseTranslationUnit</title></polygon>
<polygon points="68.0,506.3 111.3,503.4 154.7,505.6 198.0,503.1 241.3,503.6 284.7,503.3 328.0,503.5 371.3,503.3 414.7,503.0 458.0,503.3 501.3,503.3 544.7,503.0 588.0,503.1 631.3,502.8 674.7,502.2 718.0,502.0 761.3,501.6 804.7,500.7 848.0,498.3 891.3,499.4 934.7,499.2 978.0,497.1 1021.3,507.5 1064.7,507.6 1108.0,508.0 1108.0,515.8 1064.7,515.8 1021.3,515.8 978.0,515.8 934.7,515.8 891.3,515.8 848.0,515.8 804.7,515.8 761.3,515.8 718.0,515.8 674.7,515.8 631.3,515.8 588.0,515.8 544.7,515.8 501.3,515.8 458.0,515.8 414.7,515.8 371.3,515.8 328.0,515.8 284.7,515.8 241.3,515.8 198.0,515.8 154.7,515.7 111.3,515.7 68.0,515.8" fill="#41ab5d" fill-opacity="0.9" stroke="#fff" stroke-width="0.4"><title>emit_hlsl — SemanticChecking</title></polygon>
<polygon points="68.0,504.3 111.3,500.9 154.7,503.3 198.0,500.9 241.3,501.4 284.7,501.1 328.0,501.2 371.3,501.2 414.7,500.8 458.0,501.1 501.3,501.1 544.7,500.9 588.0,500.9 631.3,500.6 674.7,499.9 718.0,499.7 761.3,499.3 804.7,498.4 848.0,494.2 891.3,495.6 934.7,495.2 978.0,492.6 1021.3,502.9 1064.7,503.6 1108.0,504.1 1108.0,508.0 1064.7,507.6 1021.3,507.5 978.0,497.1 934.7,499.2 891.3,499.4 848.0,498.3 804.7,500.7 761.3,501.6 718.0,502.0 674.7,502.2 631.3,502.8 588.0,503.1 544.7,503.0 501.3,503.3 458.0,503.3 414.7,503.0 371.3,503.3 328.0,503.5 284.7,503.3 241.3,503.6 198.0,503.1 154.7,505.6 111.3,503.4 68.0,506.3" fill="#006d2c" fill-opacity="0.9" stroke="#fff" stroke-width="0.4"><title>emit_hlsl — generateIR</title></polygon>
<polygon points="68.0,503.8 111.3,500.9 154.7,503.2 198.0,500.9 241.3,501.3 284.7,501.0 328.0,501.2 371.3,501.1 414.7,500.8 458.0,501.1 501.3,501.0 544.7,500.8 588.0,500.9 631.3,500.5 674.7,499.9 718.0,499.7 761.3,499.2 804.7,498.3 848.0,494.1 891.3,495.5 934.7,495.2 978.0,492.4 1021.3,502.2 1064.7,503.6 1108.0,504.0 1108.0,504.1 1064.7,503.6 1021.3,502.9 978.0,492.6 934.7,495.2 891.3,495.6 848.0,494.2 804.7,498.4 761.3,499.3 718.0,499.7 674.7,499.9 631.3,500.6 588.0,500.9 544.7,500.9 501.3,501.1 458.0,501.1 414.7,500.8 371.3,501.2 328.0,501.2 284.7,501.1 241.3,501.4 198.0,500.9 154.7,503.3 111.3,500.9 68.0,504.3" fill="#74c476" fill-opacity="0.9" stroke="#fff" stroke-width="0.4"><title>emit_hlsl — frontEndExecute (self)</title></polygon>
<polygon points="68.0,503.2 111.3,500.3 154.7,502.7 198.0,500.3 241.3,500.7 284.7,500.5 328.0,500.6 371.3,500.5 414.7,500.2 458.0,500.5 501.3,500.4 544.7,500.2 588.0,499.7 631.3,499.3 674.7,498.8 718.0,498.5 761.3,498.1 804.7,497.1 848.0,488.1 891.3,490.4 934.7,490.0 978.0,486.9 1021.3,497.0 1064.7,498.6 1108.0,498.5 1108.0,504.0 1064.7,503.6 1021.3,502.2 978.0,492.4 934.7,495.2 891.3,495.5 848.0,494.1 804.7,498.3 761.3,499.2 718.0,499.7 674.7,499.9 631.3,500.5 588.0,500.9 544.7,500.8 501.3,501.0 458.0,501.1 414.7,500.8 371.3,501.1 328.0,501.2 284.7,501.0 241.3,501.3 198.0,500.9 154.7,503.2 111.3,500.9 68.0,503.8" fill="#6baed6" fill-opacity="0.9" stroke="#fff" stroke-width="0.4"><title>emit_hlsl — specializeModule</title></polygon>
<polygon points="68.0,502.3 111.3,499.3 154.7,501.7 198.0,499.3 241.3,499.8 284.7,499.5 328.0,499.6 371.3,499.5 414.7,499.1 458.0,499.5 501.3,499.4 544.7,499.2 588.0,498.9 631.3,498.5 674.7,497.9 718.0,497.7 761.3,497.2 804.7,496.1 848.0,473.0 891.3,476.1 934.7,476.1 978.0,471.7 1021.3,481.8 1064.7,484.1 1108.0,484.5 1108.0,498.5 1064.7,498.6 1021.3,497.0 978.0,486.9 934.7,490.0 891.3,490.4 848.0,488.1 804.7,497.1 761.3,498.1 718.0,498.5 674.7,498.8 631.3,499.3 588.0,499.7 544.7,500.2 501.3,500.4 458.0,500.5 414.7,500.2 371.3,500.5 328.0,500.6 284.7,500.5 241.3,500.7 198.0,500.3 154.7,502.7 111.3,500.3 68.0,503.2" fill="#2171b5" fill-opacity="0.9" stroke="#fff" stroke-width="0.4"><title>emit_hlsl — simplifyIR</title></polygon>
<polygon points="68.0,502.1 111.3,499.0 154.7,501.4 198.0,499.0 241.3,499.6 284.7,499.3 328.0,499.4 371.3,499.3 414.7,498.9 458.0,499.3 501.3,499.2 544.7,498.9 588.0,498.7 631.3,498.2 674.7,497.7 718.0,497.5 761.3,496.9 804.7,495.8 848.0,468.7 891.3,472.9 934.7,472.8 978.0,466.7 1021.3,481.4 1064.7,483.8 1108.0,484.2 1108.0,484.5 1064.7,484.1 1021.3,481.8 978.0,471.7 934.7,476.1 891.3,476.1 848.0,473.0 804.7,496.1 761.3,497.2 718.0,497.7 674.7,497.9 631.3,498.5 588.0,498.9 544.7,499.2 501.3,499.4 458.0,499.5 414.7,499.1 371.3,499.5 328.0,499.6 284.7,499.5 241.3,499.8 198.0,499.3 154.7,501.7 111.3,499.3 68.0,502.3" fill="#08306b" fill-opacity="0.9" stroke="#fff" stroke-width="0.4"><title>emit_hlsl — linkIR</title></polygon>
<polygon points="68.0,502.1 111.3,499.0 154.7,501.4 198.0,499.0 241.3,499.6 284.7,499.3 328.0,499.4 371.3,499.3 414.7,498.9 458.0,499.3 501.3,499.2 544.7,498.9 588.0,498.7 631.3,498.2 674.7,497.7 718.0,497.5 761.3,496.9 804.7,495.8 848.0,468.7 891.3,472.8 934.7,472.8 978.0,466.7 1021.3,481.4 1064.7,483.8 1108.0,484.2 1108.0,484.2 1064.7,483.8 1021.3,481.4 978.0,466.7 934.7,472.8 891.3,472.9 848.0,468.7 804.7,495.8 761.3,496.9 718.0,497.5 674.7,497.7 631.3,498.2 588.0,498.7 544.7,498.9 501.3,499.2 458.0,499.3 414.7,498.9 371.3,499.3 328.0,499.4 284.7,499.3 241.3,499.6 198.0,499.0 154.7,501.4 111.3,499.0 68.0,502.1" fill="#9e9ac8" fill-opacity="0.9" stroke="#fff" stroke-width="0.4"><title>emit_hlsl — unrollLoopsInModule</title></polygon>
<polygon points="68.0,413.7 111.3,403.9 154.7,408.0 198.0,404.2 241.3,413.0 284.7,415.8 328.0,477.3 371.3,477.4 414.7,476.9 458.0,477.9 501.3,478.1 544.7,477.2 588.0,477.1 631.3,476.3 674.7,476.0 718.0,475.7 761.3,475.6 804.7,471.9 848.0,436.9 891.3,441.4 934.7,441.8 978.0,433.2 1021.3,445.6 1064.7,449.7 1108.0,451.8 1108.0,484.2 1064.7,483.8 1021.3,481.4 978.0,466.7 934.7,472.8 891.3,472.8 848.0,468.7 804.7,495.8 761.3,496.9 718.0,497.5 674.7,497.7 631.3,498.2 588.0,498.7 544.7,498.9 501.3,499.2 458.0,499.3 414.7,498.9 371.3,499.3 328.0,499.4 284.7,499.3 241.3,499.6 198.0,499.0 154.7,501.4 111.3,499.0 68.0,502.1" fill="#807dba" fill-opacity="0.9" stroke="#fff" stroke-width="0.4"><title>emit_hlsl — legalizeResourceTypes</title></polygon>
<polygon points="68.0,323.8 111.3,305.6 154.7,317.3 198.0,312.6 241.3,326.6 284.7,331.8 328.0,455.2 371.3,455.6 414.7,455.1 458.0,456.5 501.3,456.6 544.7,455.2 588.0,455.3 631.3,454.4 674.7,454.1 718.0,453.7 761.3,454.2 804.7,447.8 848.0,403.0 891.3,410.9 934.7,410.3 978.0,397.1 1021.3,408.8 1064.7,414.7 1108.0,419.7 1108.0,451.8 1064.7,449.7 1021.3,445.6 978.0,433.2 934.7,441.8 891.3,441.4 848.0,436.9 804.7,471.9 761.3,475.6 718.0,475.7 674.7,476.0 631.3,476.3 588.0,477.1 544.7,477.2 501.3,478.1 458.0,477.9 414.7,476.9 371.3,477.4 328.0,477.3 284.7,415.8 241.3,413.0 198.0,404.2 154.7,408.0 111.3,403.9 68.0,413.7" fill="#6a51a3" fill-opacity="0.9" stroke="#fff" stroke-width="0.4"><title>emit_hlsl — legalizeExistentialTypeLayout</title></polygon>
<polygon points="68.0,323.8 111.3,305.6 154.7,317.3 198.0,312.5 241.3,326.6 284.7,331.8 328.0,455.1 371.3,455.5 414.7,455.1 458.0,456.4 501.3,456.6 544.7,455.2 588.0,455.3 631.3,454.4 674.7,454.0 718.0,453.6 761.3,454.1 804.7,447.7 848.0,402.9 891.3,410.8 934.7,410.2 978.0,397.0 1021.3,408.7 1064.7,414.7 1108.0,419.7 1108.0,419.7 1064.7,414.7 1021.3,408.8 978.0,397.1 934.7,410.3 891.3,410.9 848.0,403.0 804.7,447.8 761.3,454.2 718.0,453.7 674.7,454.1 631.3,454.4 588.0,455.3 544.7,455.2 501.3,456.6 458.0,456.5 414.7,455.1 371.3,455.6 328.0,455.2 284.7,331.8 241.3,326.6 198.0,312.6 154.7,317.3 111.3,305.6 68.0,323.8" fill="#bcbddc" fill-opacity="0.9" stroke="#fff" stroke-width="0.4"><title>emit_hlsl — performMandatoryEarlyInlining</title></polygon>
<polygon points="68.0,323.8 111.3,305.5 154.7,317.3 198.0,312.5 241.3,326.6 284.7,331.7 328.0,455.1 371.3,455.5 414.7,455.0 458.0,456.4 501.3,456.6 544.7,455.2 588.0,455.2 631.3,454.4 674.7,454.0 718.0,453.6 761.3,454.1 804.7,447.7 848.0,402.9 891.3,410.8 934.7,410.2 978.0,397.0 1021.3,408.7 1064.7,414.6 1108.0,419.6 1108.0,419.7 1064.7,414.7 1021.3,408.7 978.0,397.0 934.7,410.2 891.3,410.8 848.0,402.9 804.7,447.7 761.3,454.1 718.0,453.6 674.7,454.0 631.3,454.4 588.0,455.3 544.7,455.2 501.3,456.6 458.0,456.4 414.7,455.1 371.3,455.5 328.0,455.1 284.7,331.8 241.3,326.6 198.0,312.5 154.7,317.3 111.3,305.6 68.0,323.8" fill="#dadaeb" fill-opacity="0.9" stroke="#fff" stroke-width="0.4"><title>emit_hlsl — performForceInlining</title></polygon>
<polygon points="68.0,142.9 111.3,109.0 154.7,130.4 198.0,123.4 241.3,151.0 284.7,161.6 328.0,408.2 371.3,409.0 414.7,408.5 458.0,411.0 501.3,411.3 544.7,408.8 588.0,408.8 631.3,407.3 674.7,407.3 718.0,406.7 761.3,408.1 804.7,396.2 848.0,308.6 891.3,323.1 934.7,322.2 978.0,298.2 1021.3,312.0 1064.7,322.5 1108.0,332.0 1108.0,419.6 1064.7,414.6 1021.3,408.7 978.0,397.0 934.7,410.2 891.3,410.8 848.0,402.9 804.7,447.7 761.3,454.1 718.0,453.6 674.7,454.0 631.3,454.4 588.0,455.2 544.7,455.2 501.3,456.6 458.0,456.4 414.7,455.0 371.3,455.5 328.0,455.1 284.7,331.7 241.3,326.6 198.0,312.5 154.7,317.3 111.3,305.5 68.0,323.8" fill="#fd8d3c" fill-opacity="0.9" stroke="#fff" stroke-width="0.4"><title>emit_hlsl — emitEntryPointsSourceFromIR</title></polygon>
<polygon points="68.0,142.9 111.3,108.6 154.7,130.4 198.0,123.4 241.3,150.9 284.7,161.6 328.0,408.2 371.3,409.0 414.7,408.5 458.0,410.8 501.3,411.1 544.7,408.8 588.0,408.7 631.3,407.3 674.7,406.7 718.0,406.5 761.3,408.0 804.7,395.2 848.0,307.0 891.3,323.1 934.7,322.2 978.0,297.2 1021.3,312.0 1064.7,322.5 1108.0,331.9 1108.0,332.0 1064.7,322.5 1021.3,312.0 978.0,298.2 934.7,322.2 891.3,323.1 848.0,308.6 804.7,396.2 761.3,408.1 718.0,406.7 674.7,407.3 631.3,407.3 588.0,408.8 544.7,408.8 501.3,411.3 458.0,411.0 414.7,408.5 371.3,409.0 328.0,408.2 284.7,161.6 241.3,151.0 198.0,123.4 154.7,130.4 111.3,109.0 68.0,142.9" fill="#969696" fill-opacity="0.9" stroke="#fff" stroke-width="0.4"><title>emit_hlsl — compileInner (self)</title></polygon>
<text x="12" y="578" fill="#666" font-weight="600">phase buckets</text>
<rect x="12" y="586" width="12" height="12" fill="#c7e9c0"/>
<text x="28" y="596" fill="#222">parseTranslationUnit</text>
<rect x="289" y="586" width="12" height="12" fill="#41ab5d"/>
<text x="305" y="596" fill="#222">SemanticChecking</text>
<rect x="566" y="586" width="12" height="12" fill="#006d2c"/>
<text x="582" y="596" fill="#222">generateIR</text>
<rect x="843" y="586" width="12" height="12" fill="#74c476"/>
<text x="859" y="596" fill="#222">frontEndExecute (self)</text>
<rect x="12" y="604" width="12" height="12" fill="#6baed6"/>
<text x="28" y="614" fill="#222">specializeModule</text>
<rect x="289" y="604" width="12" height="12" fill="#2171b5"/>
<text x="305" y="614" fill="#222">simplifyIR</text>
<rect x="566" y="604" width="12" height="12" fill="#08306b"/>
<text x="582" y="614" fill="#222">linkIR</text>
<rect x="843" y="604" width="12" height="12" fill="#9e9ac8"/>
<text x="859" y="614" fill="#222">unrollLoopsInModule</text>
<rect x="12" y="622" width="12" height="12" fill="#807dba"/>
<text x="28" y="632" fill="#222">legalizeResourceTypes</text>
<rect x="289" y="622" width="12" height="12" fill="#6a51a3"/>
<text x="305" y="632" fill="#222">legalizeExistentialTypeLayout</text>
<rect x="566" y="622" width="12" height="12" fill="#bcbddc"/>
<text x="582" y="632" fill="#222">performMandatoryEarlyInlining</text>
<rect x="843" y="622" width="12" height="12" fill="#dadaeb"/>
<text x="859" y="632" fill="#222">performForceInlining</text>
<rect x="12" y="640" width="12" height="12" fill="#4a1486"/>
<text x="28" y="650" fill="#222">linkAndOptimizeIR (self)</text>
<rect x="289" y="640" width="12" height="12" fill="#fd8d3c"/>
<text x="305" y="650" fill="#222">emitEntryPointsSourceFromIR</text>
<rect x="566" y="640" width="12" height="12" fill="#e6550d"/>
<text x="582" y="650" fill="#222">generateOutput (self)</text>
<rect x="843" y="640" width="12" height="12" fill="#969696"/>
<text x="859" y="650" fill="#222">compileInner (self)</text>
</svg>