<svg xmlns="http://www.w3.org/2000/svg" xmlns:xlink="http://www.w3.org/1999/xlink" width="1132" height="680" viewBox="0 0 1132 680" preserveAspectRatio="xMidYMid meet" font-family="sans-serif" font-size="13">
<rect width="1132" height="680" fill="white"/>
<text x="12" y="30" font-size="20" font-weight="bold">emit_wgsl — full phase breakdown across releases (median ms)</text>
<text x="68" y="60" font-size="15" font-weight="600" fill="#1a1a1a">emit_wgsl<tspan fill="#888" font-weight="400" text-decoration="none">  0.52×</tspan></text>
<line x1="68.0" y1="516.0" x2="1108.0" y2="516.0" stroke="#eee"/>
<text x="64.0" y="519.0" text-anchor="end" fill="#999">0.0</text>
<line x1="68.0" y1="296.0" x2="1108.0" y2="296.0" stroke="#eee"/>
<text x="64.0" y="299.0" text-anchor="end" fill="#999">937</text>
<line x1="68.0" y1="76.0" x2="1108.0" y2="76.0" stroke="#eee"/>
<text x="64.0" y="79.0" text-anchor="end" fill="#999">1874</text>
<line x1="68.0" y1="76.0" x2="68.0" y2="516.0" stroke="#333"/>
<line x1="68.0" y1="516.0" x2="1108.0" y2="516.0" stroke="#333"/>
<line x1="896.1" y1="76.0" x2="896.1" y2="516.0" stroke="#e8731a" stroke-width="1.2" stroke-dasharray="4 3"/>
<text x="899.1" y="87.0" fill="#e8731a" font-size="11">daily →</text>
<line x1="68.0" y1="516.0" x2="68.0" y2="519.0" stroke="#999"/>
<text x="68.0" y="531.0" text-anchor="end" fill="#666" transform="rotate(-50 68.0 531.0)">25.14</text>
<line x1="106.5" y1="516.0" x2="106.5" y2="519.0" stroke="#999"/>
<text x="106.5" y="531.0" text-anchor="end" fill="#666" transform="rotate(-50 106.5 531.0)">25.15</text>
<line x1="145.0" y1="516.0" x2="145.0" y2="519.0" stroke="#999"/>
<text x="145.0" y="531.0" text-anchor="end" fill="#666" transform="rotate(-50 145.0 531.0)">25.16</text>
<line x1="183.6" y1="516.0" x2="183.6" y2="519.0" stroke="#999"/>
<text x="183.6" y="531.0" text-anchor="end" fill="#666" transform="rotate(-50 183.6 531.0)">25.17</text>
<line x1="222.1" y1="516.0" x2="222.1" y2="519.0" stroke="#999"/>
<text x="222.1" y="531.0" text-anchor="end" fill="#666" transform="rotate(-50 222.1 531.0)">25.18</text>
<line x1="260.6" y1="516.0" x2="260.6" y2="519.0" stroke="#999"/>
<text x="260.6" y="531.0" text-anchor="end" fill="#666" transform="rotate(-50 260.6 531.0)">25.19</text>
<line x1="299.1" y1="516.0" x2="299.1" y2="519.0" stroke="#999"/>
<text x="299.1" y="531.0" text-anchor="end" fill="#666" transform="rotate(-50 299.1 531.0)">25.20</text>
<line x1="337.6" y1="516.0" x2="337.6" y2="519.0" stroke="#999"/>
<text x="337.6" y="531.0" text-anchor="end" fill="#666" transform="rotate(-50 337.6 531.0)">25.21</text>
<line x1="376.1" y1="516.0" x2="376.1" y2="519.0" stroke="#999"/>
<text x="376.1" y="531.0" text-anchor="end" fill="#666" transform="rotate(-50 376.1 531.0)">25.22</text>
<line x1="414.7" y1="516.0" x2="414.7" y2="519.0" stroke="#999"/>
<text x="414.7" y="531.0" text-anchor="end" fill="#666" transform="rotate(-50 414.7 531.0)">25.23</text>
<line x1="453.2" y1="516.0" x2="453.2" y2="519.0" stroke="#999"/>
<text x="453.2" y="531.0" text-anchor="end" fill="#666" transform="rotate(-50 453.2 531.0)">25.24</text>
<line x1="491.7" y1="516.0" x2="491.7" y2="519.0" stroke="#999"/>
<text x="491.7" y="531.0" text-anchor="end" fill="#666" transform="rotate(-50 491.7 531.0)">26.1</text>
<line x1="530.2" y1="516.0" x2="530.2" y2="519.0" stroke="#999"/>
<text x="530.2" y="531.0" text-anchor="end" fill="#666" transform="rotate(-50 530.2 531.0)">26.2</text>
<line x1="568.7" y1="516.0" x2="568.7" y2="519.0" stroke="#999"/>
<text x="568.7" y="531.0" text-anchor="end" fill="#666" transform="rotate(-50 568.7 531.0)">26.3</text>
<line x1="607.3" y1="516.0" x2="607.3" y2="519.0" stroke="#999"/>
<text x="607.3" y="531.0" text-anchor="end" fill="#666" transform="rotate(-50 607.3 531.0)">26.4</text>
<line x1="645.8" y1="516.0" x2="645.8" y2="519.0" stroke="#999"/>
<text x="645.8" y="531.0" text-anchor="end" fill="#666" transform="rotate(-50 645.8 531.0)">26.5</text>
<line x1="684.3" y1="516.0" x2="684.3" y2="519.0" stroke="#999"/>
<text x="684.3" y="531.0" text-anchor="end" fill="#666" transform="rotate(-50 684.3 531.0)">26.7</text>
<line x1="722.8" y1="516.0" x2="722.8" y2="519.0" stroke="#999"/>
<text x="722.8" y="531.0" text-anchor="end" fill="#666" transform="rotate(-50 722.8 531.0)">26.8</text>
<line x1="761.3" y1="516.0" x2="761.3" y2="519.0" stroke="#999"/>
<text x="761.3" y="531.0" text-anchor="end" fill="#666" transform="rotate(-50 761.3 531.0)">26.9</text>
<line x1="799.9" y1="516.0" x2="799.9" y2="519.0" stroke="#999"/>
<text x="799.9" y="531.0" text-anchor="end" fill="#666" transform="rotate(-50 799.9 531.0)">26.10</text>
<line x1="838.4" y1="516.0" x2="838.4" y2="519.0" stroke="#999"/>
<text x="838.4" y="531.0" text-anchor="end" fill="#666" transform="rotate(-50 838.4 531.0)">26.11</text>
<line x1="876.9" y1="516.0" x2="876.9" y2="519.0" stroke="#999"/>
<text x="876.9" y="531.0" text-anchor="end" fill="#666" transform="rotate(-50 876.9 531.0)">26.12</text>
<line x1="915.4" y1="516.0" x2="915.4" y2="519.0" stroke="#999"/>
<text x="915.4" y="531.0" text-anchor="end" fill="#e8731a" transform="rotate(-50 915.4 531.0)">06-25</text>
<line x1="953.9" y1="516.0" x2="953.9" y2="519.0" stroke="#999"/>
<text x="953.9" y="531.0" text-anchor="end" fill="#e8731a" transform="rotate(-50 953.9 531.0)">06-26</text>
<line x1="992.4" y1="516.0" x2="992.4" y2="519.0" stroke="#999"/>
<text x="992.4" y="531.0" text-anchor="end" fill="#e8731a" transform="rotate(-50 992.4 531.0)">06-28</text>
<line x1="1031.0" y1="516.0" x2="1031.0" y2="519.0" stroke="#999"/>
<text x="1031.0" y="531.0" text-anchor="end" fill="#e8731a" transform="rotate(-50 1031.0 531.0)">07-01</text>
<line x1="1069.5" y1="516.0" x2="1069.5" y2="519.0" stroke="#999"/>
<text x="1069.5" y="531.0" text-anchor="end" fill="#e8731a" transform="rotate(-50 1069.5 531.0)">07-02</text>
<line x1="1108.0" y1="516.0" x2="1108.0" y2="519.0" stroke="#999"/>
<text x="1108.0" y="531.0" text-anchor="end" fill="#e8731a" transform="rotate(-50 1108.0 531.0)">07-03</text>
<polygon points="68.0,515.7 106.5,515.8 145.0,515.8 183.6,515.8 222.1,515.8 260.6,515.8 299.1,515.8 337.6,515.8 376.1,515.8 414.7,515.8 453.2,515.8 491.7,515.8 530.2,515.8 568.7,515.8 607.3,515.8 645.8,515.8 684.3,515.8 722.8,515.8 761.3,515.8 799.9,515.8 838.4,515.8 876.9,515.8 915.4,515.8 953.9,515.7 992.4,515.7 1031.0,515.8 1069.5,515.8 1108.0,515.7 1108.0,516.0 1069.5,516.0 1031.0,516.0 992.4,516.0 953.9,516.0 915.4,516.0 876.9,516.0 838.4,516.0 799.9,516.0 761.3,516.0 722.8,516.0 684.3,516.0 645.8,516.0 607.3,516.0 568.7,516.0 530.2,516.0 491.7,516.0 453.2,516.0 414.7,516.0 376.1,516.0 337.6,516.0 299.1,516.0 260.6,516.0 222.1,516.0 183.6,516.0 145.0,516.0 106.5,516.0 68.0,516.0" fill="#c7e9c0" fill-opacity="0.9" stroke="#fff" stroke-width="0.4"><title>emit_wgsl — parseTranslationUnit</title></polygon>
<polygon points="68.0,505.5 106.5,503.4 145.0,503.2 183.6,500.9 222.1,501.0 260.6,501.8 299.1,501.7 337.6,501.8 376.1,502.1 414.7,502.7 453.2,502.7 491.7,502.4 530.2,501.7 568.7,501.5 607.3,501.7 645.8,501.8 684.3,499.4 722.8,499.1 761.3,498.8 799.9,498.7 838.4,508.3 876.9,507.7 915.4,507.2 953.9,507.3 992.4,507.4 1031.0,507.2 1069.5,507.3 1108.0,507.2 1108.0,515.7 1069.5,515.8 1031.0,515.8 992.4,515.7 953.9,515.7 915.4,515.8 876.9,515.8 838.4,515.8 799.9,515.8 761.3,515.8 722.8,515.8 684.3,515.8 645.8,515.8 607.3,515.8 568.7,515.8 530.2,515.8 491.7,515.8 453.2,515.8 414.7,515.8 376.1,515.8 337.6,515.8 299.1,515.8 260.6,515.8 222.1,515.8 183.6,515.8 145.0,515.8 106.5,515.8 68.0,515.7" fill="#41ab5d" fill-opacity="0.9" stroke="#fff" stroke-width="0.4"><title>emit_wgsl — SemanticChecking</title></polygon>
<polygon points="68.0,503.2 106.5,501.2 145.0,500.9 183.6,498.4 222.1,498.5 260.6,499.4 299.1,499.1 337.6,499.4 376.1,499.6 414.7,500.5 453.2,500.4 491.7,500.1 530.2,499.4 568.7,499.2 607.3,499.4 645.8,499.6 684.3,495.5 722.8,495.1 761.3,494.9 799.9,494.6 838.4,504.7 876.9,504.1 915.4,503.4 953.9,503.5 992.4,503.5 1031.0,503.3 1069.5,503.4 1108.0,503.3 1108.0,507.2 1069.5,507.3 1031.0,507.2 992.4,507.4 953.9,507.3 915.4,507.2 876.9,507.7 838.4,508.3 799.9,498.7 761.3,498.8 722.8,499.1 684.3,499.4 645.8,501.8 607.3,501.7 568.7,501.5 530.2,501.7 491.7,502.4 453.2,502.7 414.7,502.7 376.1,502.1 337.6,501.8 299.1,501.7 260.6,501.8 222.1,501.0 183.6,500.9 145.0,503.2 106.5,503.4 68.0,505.5" fill="#006d2c" fill-opacity="0.9" stroke="#fff" stroke-width="0.4"><title>emit_wgsl — generateIR</title></polygon>
<polygon points="68.0,503.2 106.5,501.2 145.0,500.9 183.6,498.1 222.1,498.5 260.6,498.9 299.1,499.1 337.6,499.3 376.1,499.3 414.7,500.4 453.2,500.3 491.7,500.1 530.2,499.3 568.7,499.1 607.3,499.3 645.8,499.5 684.3,495.3 722.8,495.1 761.3,494.8 799.9,494.6 838.4,504.6 876.9,504.0 915.4,503.3 953.9,503.4 992.4,503.4 1031.0,503.2 1069.5,503.3 1108.0,503.3 1108.0,503.3 1069.5,503.4 1031.0,503.3 992.4,503.5 953.9,503.5 915.4,503.4 876.9,504.1 838.4,504.7 799.9,494.6 761.3,494.9 722.8,495.1 684.3,495.5 645.8,499.6 607.3,499.4 568.7,499.2 530.2,499.4 491.7,500.1 453.2,500.4 414.7,500.5 376.1,499.6 337.6,499.4 299.1,499.1 260.6,499.4 222.1,498.5 183.6,498.4 145.0,500.9 106.5,501.2 68.0,503.2" fill="#74c476" fill-opacity="0.9" stroke="#fff" stroke-width="0.4"><title>emit_wgsl — frontEndExecute (self)</title></polygon>
<polygon points="68.0,502.6 106.5,500.6 145.0,500.3 183.6,497.5 222.1,497.9 260.6,498.3 299.1,498.4 337.6,498.7 376.1,498.7 414.7,499.8 453.2,499.2 491.7,498.9 530.2,498.2 568.7,497.9 607.3,498.1 645.8,498.3 684.3,489.7 722.8,489.9 761.3,489.5 799.9,489.4 838.4,499.7 876.9,499.2 915.4,498.0 953.9,498.0 992.4,498.0 1031.0,498.0 1069.5,498.0 1108.0,497.9 1108.0,503.3 1069.5,503.3 1031.0,503.2 992.4,503.4 953.9,503.4 915.4,503.3 876.9,504.0 838.4,504.6 799.9,494.6 761.3,494.8 722.8,495.1 684.3,495.3 645.8,499.5 607.3,499.3 568.7,499.1 530.2,499.3 491.7,500.1 453.2,500.3 414.7,500.4 376.1,499.3 337.6,499.3 299.1,499.1 260.6,498.9 222.1,498.5 183.6,498.1 145.0,500.9 106.5,501.2 68.0,503.2" fill="#6baed6" fill-opacity="0.9" stroke="#fff" stroke-width="0.4"><title>emit_wgsl — specializeModule</title></polygon>
<polygon points="68.0,501.4 106.5,499.4 145.0,499.0 183.6,496.1 222.1,496.4 260.6,497.0 299.1,497.1 337.6,497.4 376.1,497.4 414.7,498.5 453.2,498.1 491.7,497.8 530.2,497.0 568.7,496.8 607.3,497.0 645.8,497.2 684.3,473.4 722.8,473.5 761.3,473.0 799.9,472.8 838.4,483.6 876.9,483.4 915.4,481.1 953.9,480.9 992.4,481.1 1031.0,480.6 1069.5,481.1 1108.0,480.6 1108.0,497.9 1069.5,498.0 1031.0,498.0 992.4,498.0 953.9,498.0 915.4,498.0 876.9,499.2 838.4,499.7 799.9,489.4 761.3,489.5 722.8,489.9 684.3,489.7 645.8,498.3 607.3,498.1 568.7,497.9 530.2,498.2 491.7,498.9 453.2,499.2 414.7,499.8 376.1,498.7 337.6,498.7 299.1,498.4 260.6,498.3 222.1,497.9 183.6,497.5 145.0,500.3 106.5,500.6 68.0,502.6" fill="#2171b5" fill-opacity="0.9" stroke="#fff" stroke-width="0.4"><title>emit_wgsl — simplifyIR</title></polygon>
<polygon points="68.0,501.1 106.5,499.2 145.0,498.8 183.6,495.8 222.1,496.1 260.6,496.6 299.1,496.7 337.6,497.0 376.1,497.2 414.7,498.3 453.2,497.9 491.7,497.6 530.2,496.8 568.7,496.6 607.3,496.8 645.8,497.0 684.3,470.0 722.8,470.1 761.3,469.0 799.9,469.3 838.4,483.3 876.9,483.1 915.4,480.8 953.9,480.6 992.4,480.8 1031.0,480.3 1069.5,480.8 1108.0,480.3 1108.0,480.6 1069.5,481.1 1031.0,480.6 992.4,481.1 953.9,480.9 915.4,481.1 876.9,483.4 838.4,483.6 799.9,472.8 761.3,473.0 722.8,473.5 684.3,473.4 645.8,497.2 607.3,497.0 568.7,496.8 530.2,497.0 491.7,497.8 453.2,498.1 414.7,498.5 376.1,497.4 337.6,497.4 299.1,497.1 260.6,497.0 222.1,496.4 183.6,496.1 145.0,499.0 106.5,499.4 68.0,501.4" fill="#08306b" fill-opacity="0.9" stroke="#fff" stroke-width="0.4"><title>emit_wgsl — linkIR</title></polygon>
<polygon points="68.0,501.1 106.5,499.2 145.0,498.8 183.6,495.8 222.1,496.1 260.6,496.6 299.1,496.7 337.6,497.0 376.1,497.2 414.7,498.3 453.2,497.9 491.7,497.6 530.2,496.8 568.7,496.6 607.3,496.8 645.8,497.0 684.3,470.0 722.8,470.1 761.3,469.0 799.9,469.3 838.4,483.3 876.9,483.1 915.4,480.8 953.9,480.6 992.4,480.8 1031.0,480.3 1069.5,480.8 1108.0,480.3 1108.0,480.3 1069.5,480.8 1031.0,480.3 992.4,480.8 953.9,480.6 915.4,480.8 876.9,483.1 838.4,483.3 799.9,469.3 761.3,469.0 722.8,470.1 684.3,470.0 645.8,497.0 607.3,496.8 568.7,496.6 530.2,496.8 491.7,497.6 453.2,497.9 414.7,498.3 376.1,497.2 337.6,497.0 299.1,496.7 260.6,496.6 222.1,496.1 183.6,495.8 145.0,498.8 106.5,499.2 68.0,501.1" fill="#9e9ac8" fill-opacity="0.9" stroke="#fff" stroke-width="0.4"><title>emit_wgsl — unrollLoopsInModule</title></polygon>
<polygon points="68.0,410.9 106.5,409.9 145.0,411.7 183.6,400.1 222.1,470.7 260.6,473.0 299.1,471.9 337.6,474.0 376.1,474.2 414.7,476.4 453.2,472.7 491.7,471.9 530.2,471.0 568.7,474.3 607.3,474.9 645.8,474.9 684.3,439.2 722.8,439.0 761.3,438.0 799.9,437.5 838.4,451.5 876.9,451.0 915.4,448.0 953.9,447.2 992.4,448.0 1031.0,447.9 1069.5,448.3 1108.0,446.6 1108.0,480.3 1069.5,480.8 1031.0,480.3 992.4,480.8 953.9,480.6 915.4,480.8 876.9,483.1 838.4,483.3 799.9,469.3 761.3,469.0 722.8,470.1 684.3,470.0 645.8,497.0 607.3,496.8 568.7,496.6 530.2,496.8 491.7,497.6 453.2,497.9 414.7,498.3 376.1,497.2 337.6,497.0 299.1,496.7 260.6,496.6 222.1,496.1 183.6,495.8 145.0,498.8 106.5,499.2 68.0,501.1" fill="#807dba" fill-opacity="0.9" stroke="#fff" stroke-width="0.4"><title>emit_wgsl — legalizeResourceTypes</title></polygon>
<polygon points="68.0,320.4 106.5,320.5 145.0,323.8 183.6,305.1 222.1,445.7 260.6,448.6 299.1,445.9 337.6,449.6 376.1,450.4 414.7,454.0 453.2,446.9 491.7,448.8 530.2,445.5 568.7,451.7 607.3,453.0 645.8,452.9 684.3,408.0 722.8,408.1 761.3,406.4 799.9,406.0 838.4,419.6 876.9,419.0 915.4,414.6 953.9,413.4 992.4,414.8 1031.0,415.4 1069.5,415.2 1108.0,411.7 1108.0,446.6 1069.5,448.3 1031.0,447.9 992.4,448.0 953.9,447.2 915.4,448.0 876.9,451.0 838.4,451.5 799.9,437.5 761.3,438.0 722.8,439.0 684.3,439.2 645.8,474.9 607.3,474.9 568.7,474.3 530.2,471.0 491.7,471.9 453.2,472.7 414.7,476.4 376.1,474.2 337.6,474.0 299.1,471.9 260.6,473.0 222.1,470.7 183.6,400.1 145.0,411.7 106.5,409.9 68.0,410.9" fill="#6a51a3" fill-opacity="0.9" stroke="#fff" stroke-width="0.4"><title>emit_wgsl — legalizeExistentialTypeLayout</title></polygon>
<polygon points="68.0,320.3 106.5,320.4 145.0,323.7 183.6,305.0 222.1,445.6 260.6,448.6 299.1,445.9 337.6,449.5 376.1,450.3 414.7,454.0 453.2,446.8 491.7,448.8 530.2,445.4 568.7,451.7 607.3,453.0 645.8,452.9 684.3,408.0 722.8,408.0 761.3,406.4 799.9,406.0 838.4,419.5 876.9,418.9 915.4,414.5 953.9,413.4 992.4,414.8 1031.0,415.3 1069.5,415.1 1108.0,411.7 1108.0,411.7 1069.5,415.2 1031.0,415.4 992.4,414.8 953.9,413.4 915.4,414.6 876.9,419.0 838.4,419.6 799.9,406.0 761.3,406.4 722.8,408.1 684.3,408.0 645.8,452.9 607.3,453.0 568.7,451.7 530.2,445.5 491.7,448.8 453.2,446.9 414.7,454.0 376.1,450.4 337.6,449.6 299.1,445.9 260.6,448.6 222.1,445.7 183.6,305.1 145.0,323.8 106.5,320.5 68.0,320.4" fill="#bcbddc" fill-opacity="0.9" stroke="#fff" stroke-width="0.4"><title>emit_wgsl — performMandatoryEarlyInlining</title></polygon>
<polygon points="68.0,320.3 106.5,320.4 145.0,323.7 183.6,305.0 222.1,445.6 260.6,448.5 299.1,445.8 337.6,449.5 376.1,450.3 414.7,454.0 453.2,446.8 491.7,448.8 530.2,445.4 568.7,451.6 607.3,452.9 645.8,452.9 684.3,407.9 722.8,408.0 761.3,406.3 799.9,405.9 838.4,419.5 876.9,418.9 915.4,414.5 953.9,413.3 992.4,414.7 1031.0,415.3 1069.5,415.1 1108.0,411.6 1108.0,411.7 1069.5,415.1 1031.0,415.3 992.4,414.8 953.9,413.4 915.4,414.5 876.9,418.9 838.4,419.5 799.9,406.0 761.3,406.4 722.8,408.0 684.3,408.0 645.8,452.9 607.3,453.0 568.7,451.7 530.2,445.4 491.7,448.8 453.2,446.8 414.7,454.0 376.1,450.3 337.6,449.5 299.1,445.9 260.6,448.6 222.1,445.6 183.6,305.0 145.0,323.7 106.5,320.4 68.0,320.3" fill="#dadaeb" fill-opacity="0.9" stroke="#fff" stroke-width="0.4"><title>emit_wgsl — performForceInlining</title></polygon>
<polygon points="68.0,136.6 106.5,138.8 145.0,145.7 183.6,111.1 222.1,391.7 260.6,397.3 299.1,391.7 337.6,398.8 376.1,400.4 414.7,406.7 453.2,392.4 491.7,396.6 530.2,390.6 568.7,403.3 607.3,405.7 645.8,405.3 684.3,317.4 722.8,317.8 761.3,314.8 799.9,314.2 838.4,331.3 876.9,330.7 915.4,322.5 953.9,320.2 992.4,323.0 1031.0,324.2 1069.5,323.8 1108.0,316.8 1108.0,411.6 1069.5,415.1 1031.0,415.3 992.4,414.7 953.9,413.3 915.4,414.5 876.9,418.9 838.4,419.5 799.9,405.9 761.3,406.3 722.8,408.0 684.3,407.9 645.8,452.9 607.3,452.9 568.7,451.6 530.2,445.4 491.7,448.8 453.2,446.8 414.7,454.0 376.1,450.3 337.6,449.5 299.1,445.8 260.6,448.5 222.1,445.6 183.6,305.0 145.0,323.7 106.5,320.4 68.0,320.3" fill="#fd8d3c" fill-opacity="0.9" stroke="#fff" stroke-width="0.4"><title>emit_wgsl — emitEntryPointsSourceFromIR</title></polygon>
<polygon points="68.0,136.1 106.5,138.8 145.0,145.7 183.6,108.6 222.1,391.7 260.6,396.8 299.1,391.3 337.6,397.9 376.1,399.8 414.7,406.4 453.2,391.5 491.7,396.5 530.2,390.5 568.7,403.1 607.3,405.6 645.8,405.3 684.3,317.0 722.8,317.8 761.3,314.8 799.9,314.2 838.4,331.0 876.9,330.6 915.4,322.5 953.9,320.1 992.4,322.9 1031.0,324.0 1069.5,323.8 1108.0,316.8 1108.0,316.8 1069.5,323.8 1031.0,324.2 992.4,323.0 953.9,320.2 915.4,322.5 876.9,330.7 838.4,331.3 799.9,314.2 761.3,314.8 722.8,317.8 684.3,317.4 645.8,405.3 607.3,405.7 568.7,403.3 530.2,390.6 491.7,396.6 453.2,392.4 414.7,406.7 376.1,400.4 337.6,398.8 299.1,391.7 260.6,397.3 222.1,391.7 183.6,111.1 145.0,145.7 106.5,138.8 68.0,136.6" fill="#969696" fill-opacity="0.9" stroke="#fff" stroke-width="0.4"><title>emit_wgsl — compileInner (self)</title></polygon>
<text x="12" y="578" fill="#666" font-weight="600">phase buckets</text>
<rect x="12" y="586" width="12" height="12" fill="#c7e9c0"/>
<text x="28" y="596" fill="#222">parseTranslationUnit</text>
<rect x="289" y="586" width="12" height="12" fill="#41ab5d"/>
<text x="305" y="596" fill="#222">SemanticChecking</text>
<rect x="566" y="586" width="12" height="12" fill="#006d2c"/>
<text x="582" y="596" fill="#222">generateIR</text>
<rect x="843" y="586" width="12" height="12" fill="#74c476"/>
<text x="859" y="596" fill="#222">frontEndExecute (self)</text>
<rect x="12" y="604" width="12" height="12" fill="#6baed6"/>
<text x="28" y="614" fill="#222">specializeModule</text>
<rect x="289" y="604" width="12" height="12" fill="#2171b5"/>
<text x="305" y="614" fill="#222">simplifyIR</text>
<rect x="566" y="604" width="12" height="12" fill="#08306b"/>
<text x="582" y="614" fill="#222">linkIR</text>
<rect x="843" y="604" width="12" height="12" fill="#9e9ac8"/>
<text x="859" y="614" fill="#222">unrollLoopsInModule</text>
<rect x="12" y="622" width="12" height="12" fill="#807dba"/>
<text x="28" y="632" fill="#222">legalizeResourceTypes</text>
<rect x="289" y="622" width="12" height="12" fill="#6a51a3"/>
<text x="305" y="632" fill="#222">legalizeExistentialTypeLayout</text>
<rect x="566" y="622" width="12" height="12" fill="#bcbddc"/>
<text x="582" y="632" fill="#222">performMandatoryEarlyInlining</text>
<rect x="843" y="622" width="12" height="12" fill="#dadaeb"/>
<text x="859" y="632" fill="#222">performForceInlining</text>
<rect x="12" y="640" width="12" height="12" fill="#4a1486"/>
<text x="28" y="650" fill="#222">linkAndOptimizeIR (self)</text>
<rect x="289" y="640" width="12" height="12" fill="#fd8d3c"/>
<text x="305" y="650" fill="#222">emitEntryPointsSourceFromIR</text>
<rect x="566" y="640" width="12" height="12" fill="#e6550d"/>
<text x="582" y="650" fill="#222">generateOutput (self)</text>
<rect x="843" y="640" width="12" height="12" fill="#969696"/>
<text x="859" y="650" fill="#222">compileInner (self)</text>
</svg>