<svg xmlns="http://www.w3.org/2000/svg" xmlns:xlink="http://www.w3.org/1999/xlink" width="1132" height="680" viewBox="0 0 1132 680" preserveAspectRatio="xMidYMid meet" font-family="sans-serif" font-size="13">
<rect width="1132" height="680" fill="white"/>
<text x="12" y="30" font-size="20" font-weight="bold">existential_aggregate — Daily tip-of-tree (last 30 days) (median ms)</text>
<text x="68" y="60" font-size="15" font-weight="600" fill="#1a1a1a">existential_aggregate<tspan fill="#888" font-weight="400" text-decoration="none">  0.55×</tspan></text>
<line x1="68.0" y1="516.0" x2="1108.0" y2="516.0" stroke="#eee"/>
<text x="64.0" y="519.0" text-anchor="end" fill="#999">0.0</text>
<line x1="68.0" y1="296.0" x2="1108.0" y2="296.0" stroke="#eee"/>
<text x="64.0" y="299.0" text-anchor="end" fill="#999">82</text>
<line x1="68.0" y1="76.0" x2="1108.0" y2="76.0" stroke="#eee"/>
<text x="64.0" y="79.0" text-anchor="end" fill="#999">164</text>
<line x1="68.0" y1="76.0" x2="68.0" y2="516.0" stroke="#333"/>
<line x1="68.0" y1="516.0" x2="1108.0" y2="516.0" stroke="#333"/>
<line x1="68.0" y1="516.0" x2="68.0" y2="519.0" stroke="#999"/>
<text x="68.0" y="531.0" text-anchor="end" fill="#e8731a" transform="rotate(-50 68.0 531.0)">06-25</text>
<line x1="117.5" y1="516.0" x2="117.5" y2="519.0" stroke="#999"/>
<text x="117.5" y="531.0" text-anchor="end" fill="#e8731a" transform="rotate(-50 117.5 531.0)">06-26</text>
<line x1="167.0" y1="516.0" x2="167.0" y2="519.0" stroke="#999"/>
<text x="167.0" y="531.0" text-anchor="end" fill="#e8731a" transform="rotate(-50 167.0 531.0)">06-28</text>
<line x1="216.6" y1="516.0" x2="216.6" y2="519.0" stroke="#999"/>
<text x="216.6" y="531.0" text-anchor="end" fill="#e8731a" transform="rotate(-50 216.6 531.0)">07-01</text>
<line x1="266.1" y1="516.0" x2="266.1" y2="519.0" stroke="#999"/>
<text x="266.1" y="531.0" text-anchor="end" fill="#e8731a" transform="rotate(-50 266.1 531.0)">07-02</text>
<line x1="315.6" y1="516.0" x2="315.6" y2="519.0" stroke="#999"/>
<text x="315.6" y="531.0" text-anchor="end" fill="#e8731a" transform="rotate(-50 315.6 531.0)">07-03</text>
<line x1="365.1" y1="516.0" x2="365.1" y2="519.0" stroke="#999"/>
<text x="365.1" y="531.0" text-anchor="end" fill="#e8731a" transform="rotate(-50 365.1 531.0)">07-06</text>
<line x1="414.7" y1="516.0" x2="414.7" y2="519.0" stroke="#999"/>
<text x="414.7" y="531.0" text-anchor="end" fill="#e8731a" transform="rotate(-50 414.7 531.0)">07-07</text>
<line x1="464.2" y1="516.0" x2="464.2" y2="519.0" stroke="#999"/>
<text x="464.2" y="531.0" text-anchor="end" fill="#e8731a" transform="rotate(-50 464.2 531.0)">07-08</text>
<line x1="513.7" y1="516.0" x2="513.7" y2="519.0" stroke="#999"/>
<text x="513.7" y="531.0" text-anchor="end" fill="#e8731a" transform="rotate(-50 513.7 531.0)">07-09</text>
<line x1="563.2" y1="516.0" x2="563.2" y2="519.0" stroke="#999"/>
<text x="563.2" y="531.0" text-anchor="end" fill="#e8731a" transform="rotate(-50 563.2 531.0)">07-10</text>
<line x1="612.8" y1="516.0" x2="612.8" y2="519.0" stroke="#999"/>
<text x="612.8" y="531.0" text-anchor="end" fill="#e8731a" transform="rotate(-50 612.8 531.0)">07-11</text>
<line x1="662.3" y1="516.0" x2="662.3" y2="519.0" stroke="#999"/>
<text x="662.3" y="531.0" text-anchor="end" fill="#e8731a" transform="rotate(-50 662.3 531.0)">07-14</text>
<line x1="711.8" y1="516.0" x2="711.8" y2="519.0" stroke="#999"/>
<text x="711.8" y="531.0" text-anchor="end" fill="#e8731a" transform="rotate(-50 711.8 531.0)">07-15</text>
<line x1="761.3" y1="516.0" x2="761.3" y2="519.0" stroke="#999"/>
<text x="761.3" y="531.0" text-anchor="end" fill="#e8731a" transform="rotate(-50 761.3 531.0)">07-15</text>
<line x1="810.9" y1="516.0" x2="810.9" y2="519.0" stroke="#999"/>
<text x="810.9" y="531.0" text-anchor="end" fill="#e8731a" transform="rotate(-50 810.9 531.0)">07-16</text>
<line x1="860.4" y1="516.0" x2="860.4" y2="519.0" stroke="#999"/>
<text x="860.4" y="531.0" text-anchor="end" fill="#e8731a" transform="rotate(-50 860.4 531.0)">07-17</text>
<line x1="909.9" y1="516.0" x2="909.9" y2="519.0" stroke="#999"/>
<text x="909.9" y="531.0" text-anchor="end" fill="#e8731a" transform="rotate(-50 909.9 531.0)">07-18</text>
<line x1="959.4" y1="516.0" x2="959.4" y2="519.0" stroke="#999"/>
<text x="959.4" y="531.0" text-anchor="end" fill="#e8731a" transform="rotate(-50 959.4 531.0)">07-19</text>
<line x1="1009.0" y1="516.0" x2="1009.0" y2="519.0" stroke="#999"/>
<text x="1009.0" y="531.0" text-anchor="end" fill="#e8731a" transform="rotate(-50 1009.0 531.0)">07-20</text>
<line x1="1058.5" y1="516.0" x2="1058.5" y2="519.0" stroke="#999"/>
<text x="1058.5" y="531.0" text-anchor="end" fill="#e8731a" transform="rotate(-50 1058.5 531.0)">07-21</text>
<line x1="1108.0" y1="516.0" x2="1108.0" y2="519.0" stroke="#999"/>
<text x="1108.0" y="531.0" text-anchor="end" fill="#e8731a" transform="rotate(-50 1108.0 531.0)">07-22</text>
<polygon points="68.0,513.5 117.5,513.5 167.0,513.5 216.6,513.5 266.1,513.5 315.6,513.5 365.1,513.4 414.7,513.7 464.2,513.6 513.7,513.6 563.2,513.5 612.8,513.6 662.3,513.7 711.8,513.7 761.3,513.8 810.9,513.6 860.4,513.7 909.9,513.9 959.4,513.9 1009.0,513.9 1058.5,513.8 1108.0,513.8 1108.0,516.0 1058.5,516.0 1009.0,516.0 959.4,516.0 909.9,516.0 860.4,516.0 810.9,516.0 761.3,516.0 711.8,516.0 662.3,516.0 612.8,516.0 563.2,516.0 513.7,516.0 464.2,516.0 414.7,516.0 365.1,516.0 315.6,516.0 266.1,516.0 216.6,516.0 167.0,516.0 117.5,516.0 68.0,516.0" fill="#c7e9c0" fill-opacity="0.9" stroke="#fff" stroke-width="0.4"><title>existential_aggregate — parseTranslationUnit</title></polygon>
<polygon points="68.0,466.0 117.5,466.7 167.0,464.7 216.6,465.6 266.1,465.2 315.6,465.8 365.1,465.3 414.7,468.7 464.2,468.7 513.7,467.7 563.2,467.8 612.8,468.1 662.3,468.7 711.8,471.5 761.3,472.0 810.9,466.4 860.4,467.0 909.9,476.3 959.4,475.9 1009.0,477.2 1058.5,475.6 1108.0,474.7 1108.0,513.8 1058.5,513.8 1009.0,513.9 959.4,513.9 909.9,513.9 860.4,513.7 810.9,513.6 761.3,513.8 711.8,513.7 662.3,513.7 612.8,513.6 563.2,513.5 513.7,513.6 464.2,513.6 414.7,513.7 365.1,513.4 315.6,513.5 266.1,513.5 216.6,513.5 167.0,513.5 117.5,513.5 68.0,513.5" fill="#41ab5d" fill-opacity="0.9" stroke="#fff" stroke-width="0.4"><title>existential_aggregate — SemanticChecking</title></polygon>
<polygon points="68.0,443.6 117.5,444.7 167.0,442.5 216.6,443.4 266.1,442.2 315.6,443.2 365.1,442.5 414.7,446.0 464.2,445.8 513.7,444.8 563.2,445.4 612.8,445.9 662.3,446.4 711.8,450.1 761.3,450.7 810.9,445.2 860.4,445.9 909.9,459.2 959.4,458.3 1009.0,459.6 1058.5,457.9 1108.0,456.9 1108.0,474.7 1058.5,475.6 1009.0,477.2 959.4,475.9 909.9,476.3 860.4,467.0 810.9,466.4 761.3,472.0 711.8,471.5 662.3,468.7 612.8,468.1 563.2,467.8 513.7,467.7 464.2,468.7 414.7,468.7 365.1,465.3 315.6,465.8 266.1,465.2 216.6,465.6 167.0,464.7 117.5,466.7 68.0,466.0" fill="#006d2c" fill-opacity="0.9" stroke="#fff" stroke-width="0.4"><title>existential_aggregate — generateIR</title></polygon>
<polygon points="68.0,442.6 117.5,443.3 167.0,441.4 216.6,442.7 266.1,441.4 315.6,442.2 365.1,440.6 414.7,445.1 464.2,444.3 513.7,443.8 563.2,444.4 612.8,444.8 662.3,445.5 711.8,449.1 761.3,449.8 810.9,444.5 860.4,444.8 909.9,458.1 959.4,457.7 1009.0,458.0 1058.5,456.9 1108.0,456.3 1108.0,456.9 1058.5,457.9 1009.0,459.6 959.4,458.3 909.9,459.2 860.4,445.9 810.9,445.2 761.3,450.7 711.8,450.1 662.3,446.4 612.8,445.9 563.2,445.4 513.7,444.8 464.2,445.8 414.7,446.0 365.1,442.5 315.6,443.2 266.1,442.2 216.6,443.4 167.0,442.5 117.5,444.7 68.0,443.6" fill="#74c476" fill-opacity="0.9" stroke="#fff" stroke-width="0.4"><title>existential_aggregate — frontEndExecute (self)</title></polygon>
<polygon points="68.0,260.2 117.5,262.0 167.0,258.6 216.6,263.8 266.1,259.3 315.6,259.9 365.1,260.2 414.7,381.2 464.2,380.9 513.7,379.3 563.2,381.7 612.8,382.2 662.3,382.0 711.8,392.2 761.3,393.0 810.9,386.6 860.4,387.0 909.9,396.9 959.4,399.8 1009.0,399.5 1058.5,399.7 1108.0,396.7 1108.0,456.3 1058.5,456.9 1009.0,458.0 959.4,457.7 909.9,458.1 860.4,444.8 810.9,444.5 761.3,449.8 711.8,449.1 662.3,445.5 612.8,444.8 563.2,444.4 513.7,443.8 464.2,444.3 414.7,445.1 365.1,440.6 315.6,442.2 266.1,441.4 216.6,442.7 167.0,441.4 117.5,443.3 68.0,442.6" fill="#6baed6" fill-opacity="0.9" stroke="#fff" stroke-width="0.4"><title>existential_aggregate — specializeModule</title></polygon>
<polygon points="68.0,203.1 117.5,204.6 167.0,202.1 216.6,207.2 266.1,219.2 315.6,219.8 365.1,220.3 414.7,341.0 464.2,341.8 513.7,339.7 563.2,344.7 612.8,344.9 662.3,345.7 711.8,360.2 761.3,361.0 810.9,354.6 860.4,355.2 909.9,368.9 959.4,371.3 1009.0,371.4 1058.5,371.5 1108.0,368.3 1108.0,396.7 1058.5,399.7 1009.0,399.5 959.4,399.8 909.9,396.9 860.4,387.0 810.9,386.6 761.3,393.0 711.8,392.2 662.3,382.0 612.8,382.2 563.2,381.7 513.7,379.3 464.2,380.9 414.7,381.2 365.1,260.2 315.6,259.9 266.1,259.3 216.6,263.8 167.0,258.6 117.5,262.0 68.0,260.2" fill="#2171b5" fill-opacity="0.9" stroke="#fff" stroke-width="0.4"><title>existential_aggregate — simplifyIR</title></polygon>
<polygon points="68.0,198.8 117.5,200.4 167.0,197.6 216.6,202.9 266.1,215.0 315.6,215.6 365.1,216.0 414.7,337.4 464.2,338.2 513.7,336.1 563.2,341.1 612.8,341.2 662.3,341.9 711.8,357.0 761.3,357.9 810.9,351.4 860.4,352.1 909.9,366.1 959.4,368.4 1009.0,368.6 1058.5,368.6 1108.0,365.3 1108.0,368.3 1058.5,371.5 1009.0,371.4 959.4,371.3 909.9,368.9 860.4,355.2 810.9,354.6 761.3,361.0 711.8,360.2 662.3,345.7 612.8,344.9 563.2,344.7 513.7,339.7 464.2,341.8 414.7,341.0 365.1,220.3 315.6,219.8 266.1,219.2 216.6,207.2 167.0,202.1 117.5,204.6 68.0,203.1" fill="#08306b" fill-opacity="0.9" stroke="#fff" stroke-width="0.4"><title>existential_aggregate — linkIR</title></polygon>
<polygon points="68.0,198.7 117.5,200.3 167.0,197.5 216.6,202.7 266.1,214.9 315.6,215.5 365.1,215.9 414.7,336.8 464.2,337.5 513.7,335.5 563.2,340.4 612.8,340.6 662.3,341.3 711.8,356.5 761.3,357.4 810.9,350.9 860.4,351.6 909.9,365.6 959.4,367.9 1009.0,368.2 1058.5,368.1 1108.0,364.9 1108.0,365.3 1058.5,368.6 1009.0,368.6 959.4,368.4 909.9,366.1 860.4,352.1 810.9,351.4 761.3,357.9 711.8,357.0 662.3,341.9 612.8,341.2 563.2,341.1 513.7,336.1 464.2,338.2 414.7,337.4 365.1,216.0 315.6,215.6 266.1,215.0 216.6,202.9 167.0,197.6 117.5,200.4 68.0,198.8" fill="#9e9ac8" fill-opacity="0.9" stroke="#fff" stroke-width="0.4"><title>existential_aggregate — unrollLoopsInModule</title></polygon>
<polygon points="68.0,195.3 117.5,196.9 167.0,194.0 216.6,199.3 266.1,211.5 315.6,212.1 365.1,212.5 414.7,333.5 464.2,334.2 513.7,332.2 563.2,337.8 612.8,337.9 662.3,338.6 711.8,353.8 761.3,354.5 810.9,348.1 860.4,348.8 909.9,362.9 959.4,365.1 1009.0,365.5 1058.5,365.5 1108.0,362.1 1108.0,364.9 1058.5,368.1 1009.0,368.2 959.4,367.9 909.9,365.6 860.4,351.6 810.9,350.9 761.3,357.4 711.8,356.5 662.3,341.3 612.8,340.6 563.2,340.4 513.7,335.5 464.2,337.5 414.7,336.8 365.1,215.9 315.6,215.5 266.1,214.9 216.6,202.7 167.0,197.5 117.5,200.3 68.0,198.7" fill="#807dba" fill-opacity="0.9" stroke="#fff" stroke-width="0.4"><title>existential_aggregate — legalizeResourceTypes</title></polygon>
<polygon points="68.0,190.2 117.5,191.6 167.0,188.7 216.6,194.0 266.1,206.5 315.6,207.0 365.1,207.5 414.7,328.4 464.2,329.1 513.7,327.0 563.2,333.5 612.8,333.4 662.3,334.2 711.8,349.7 761.3,350.4 810.9,344.0 860.4,344.6 909.9,358.8 959.4,360.9 1009.0,361.4 1058.5,361.3 1108.0,357.8 1108.0,362.1 1058.5,365.5 1009.0,365.5 959.4,365.1 909.9,362.9 860.4,348.8 810.9,348.1 761.3,354.5 711.8,353.8 662.3,338.6 612.8,337.9 563.2,337.8 513.7,332.2 464.2,334.2 414.7,333.5 365.1,212.5 315.6,212.1 266.1,211.5 216.6,199.3 167.0,194.0 117.5,196.9 68.0,195.3" fill="#6a51a3" fill-opacity="0.9" stroke="#fff" stroke-width="0.4"><title>existential_aggregate — legalizeExistentialTypeLayout</title></polygon>
<polygon points="68.0,189.5 117.5,191.0 167.0,188.1 216.6,193.4 266.1,205.9 315.6,206.3 365.1,206.8 414.7,327.1 464.2,327.9 513.7,325.8 563.2,332.3 612.8,332.2 662.3,333.0 711.8,348.5 761.3,349.2 810.9,342.8 860.4,343.3 909.9,357.8 959.4,359.8 1009.0,360.4 1058.5,360.3 1108.0,356.8 1108.0,357.8 1058.5,361.3 1009.0,361.4 959.4,360.9 909.9,358.8 860.4,344.6 810.9,344.0 761.3,350.4 711.8,349.7 662.3,334.2 612.8,333.4 563.2,333.5 513.7,327.0 464.2,329.1 414.7,328.4 365.1,207.5 315.6,207.0 266.1,206.5 216.6,194.0 167.0,188.7 117.5,191.6 68.0,190.2" fill="#bcbddc" fill-opacity="0.9" stroke="#fff" stroke-width="0.4"><title>existential_aggregate — performMandatoryEarlyInlining</title></polygon>
<polygon points="68.0,188.8 117.5,190.2 167.0,187.4 216.6,192.6 266.1,205.2 315.6,205.5 365.1,206.1 414.7,326.4 464.2,327.2 513.7,325.1 563.2,331.5 612.8,331.4 662.3,332.3 711.8,347.7 761.3,348.4 810.9,342.0 860.4,342.5 909.9,357.2 959.4,359.2 1009.0,359.9 1058.5,359.7 1108.0,356.2 1108.0,356.8 1058.5,360.3 1009.0,360.4 959.4,359.8 909.9,357.8 860.4,343.3 810.9,342.8 761.3,349.2 711.8,348.5 662.3,333.0 612.8,332.2 563.2,332.3 513.7,325.8 464.2,327.9 414.7,327.1 365.1,206.8 315.6,206.3 266.1,205.9 216.6,193.4 167.0,188.1 117.5,191.0 68.0,189.5" fill="#dadaeb" fill-opacity="0.9" stroke="#fff" stroke-width="0.4"><title>existential_aggregate — performForceInlining</title></polygon>
<polygon points="68.0,152.0 117.5,153.5 167.0,150.1 216.6,154.6 266.1,166.8 315.6,166.5 365.1,165.6 414.7,290.3 464.2,292.2 513.7,289.8 563.2,297.2 612.8,296.6 662.3,297.9 711.8,319.6 761.3,319.2 810.9,314.2 860.4,313.7 909.9,331.8 959.4,332.9 1009.0,334.2 1058.5,334.0 1108.0,330.3 1108.0,356.2 1058.5,359.7 1009.0,359.9 959.4,359.2 909.9,357.2 860.4,342.5 810.9,342.0 761.3,348.4 711.8,347.7 662.3,332.3 612.8,331.4 563.2,331.5 513.7,325.1 464.2,327.2 414.7,326.4 365.1,206.1 315.6,205.5 266.1,205.2 216.6,192.6 167.0,187.4 117.5,190.2 68.0,188.8" fill="#4a1486" fill-opacity="0.9" stroke="#fff" stroke-width="0.4"><title>existential_aggregate — linkAndOptimizeIR (self)</title></polygon>
<polygon points="68.0,109.7 117.5,112.3 167.0,108.6 216.6,113.7 266.1,126.2 315.6,126.3 365.1,124.9 414.7,249.7 464.2,252.0 513.7,249.0 563.2,256.2 612.8,255.8 662.3,258.7 711.8,280.4 761.3,280.9 810.9,276.6 860.4,275.4 909.9,294.3 959.4,296.2 1009.0,296.5 1058.5,296.6 1108.0,293.5 1108.0,330.3 1058.5,334.0 1009.0,334.2 959.4,332.9 909.9,331.8 860.4,313.7 810.9,314.2 761.3,319.2 711.8,319.6 662.3,297.9 612.8,296.6 563.2,297.2 513.7,289.8 464.2,292.2 414.7,290.3 365.1,165.6 315.6,166.5 266.1,166.8 216.6,154.6 167.0,150.1 117.5,153.5 68.0,152.0" fill="#e6550d" fill-opacity="0.9" stroke="#fff" stroke-width="0.4"><title>existential_aggregate — generateOutput (self)</title></polygon>
<polygon points="68.0,109.7 117.5,112.3 167.0,108.6 216.6,113.7 266.1,126.2 315.6,125.5 365.1,124.4 414.7,249.2 464.2,251.5 513.7,248.5 563.2,254.6 612.8,255.6 662.3,258.4 711.8,280.1 761.3,280.9 810.9,276.0 860.4,275.2 909.9,292.1 959.4,295.4 1009.0,296.0 1058.5,295.4 1108.0,293.5 1108.0,293.5 1058.5,296.6 1009.0,296.5 959.4,296.2 909.9,294.3 860.4,275.4 810.9,276.6 761.3,280.9 711.8,280.4 662.3,258.7 612.8,255.8 563.2,256.2 513.7,249.0 464.2,252.0 414.7,249.7 365.1,124.9 315.6,126.3 266.1,126.2 216.6,113.7 167.0,108.6 117.5,112.3 68.0,109.7" fill="#969696" fill-opacity="0.9" stroke="#fff" stroke-width="0.4"><title>existential_aggregate — compileInner (self)</title></polygon>
<text x="12" y="578" fill="#666" font-weight="600">phase buckets</text>
<rect x="12" y="586" width="12" height="12" fill="#c7e9c0"/>
<text x="28" y="596" fill="#222">parseTranslationUnit</text>
<rect x="289" y="586" width="12" height="12" fill="#41ab5d"/>
<text x="305" y="596" fill="#222">SemanticChecking</text>
<rect x="566" y="586" width="12" height="12" fill="#006d2c"/>
<text x="582" y="596" fill="#222">generateIR</text>
<rect x="843" y="586" width="12" height="12" fill="#74c476"/>
<text x="859" y="596" fill="#222">frontEndExecute (self)</text>
<rect x="12" y="604" width="12" height="12" fill="#6baed6"/>
<text x="28" y="614" fill="#222">specializeModule</text>
<rect x="289" y="604" width="12" height="12" fill="#2171b5"/>
<text x="305" y="614" fill="#222">simplifyIR</text>
<rect x="566" y="604" width="12" height="12" fill="#08306b"/>
<text x="582" y="614" fill="#222">linkIR</text>
<rect x="843" y="604" width="12" height="12" fill="#9e9ac8"/>
<text x="859" y="614" fill="#222">unrollLoopsInModule</text>
<rect x="12" y="622" width="12" height="12" fill="#807dba"/>
<text x="28" y="632" fill="#222">legalizeResourceTypes</text>
<rect x="289" y="622" width="12" height="12" fill="#6a51a3"/>
<text x="305" y="632" fill="#222">legalizeExistentialTypeLayout</text>
<rect x="566" y="622" width="12" height="12" fill="#bcbddc"/>
<text x="582" y="632" fill="#222">performMandatoryEarlyInlining</text>
<rect x="843" y="622" width="12" height="12" fill="#dadaeb"/>
<text x="859" y="632" fill="#222">performForceInlining</text>
<rect x="12" y="640" width="12" height="12" fill="#4a1486"/>
<text x="28" y="650" fill="#222">linkAndOptimizeIR (self)</text>
<rect x="289" y="640" width="12" height="12" fill="#fd8d3c"/>
<text x="305" y="650" fill="#222">emitEntryPointsSourceFromIR</text>
<rect x="566" y="640" width="12" height="12" fill="#e6550d"/>
<text x="582" y="650" fill="#222">generateOutput (self)</text>
<rect x="843" y="640" width="12" height="12" fill="#969696"/>
<text x="859" y="650" fill="#222">compileInner (self)</text>
</svg>