<svg xmlns="http://www.w3.org/2000/svg" xmlns:xlink="http://www.w3.org/1999/xlink" width="1132" height="680" viewBox="0 0 1132 680" preserveAspectRatio="xMidYMid meet" font-family="sans-serif" font-size="13">
<rect width="1132" height="680" fill="white"/>
<text x="12" y="30" font-size="20" font-weight="bold">existential_aggregate — full phase breakdown across releases (median ms)</text>
<text x="68" y="60" font-size="15" font-weight="600" fill="#1a1a1a">existential_aggregate<tspan fill="#888" font-weight="400" text-decoration="none">  1.36×</tspan></text>
<line x1="68.0" y1="516.0" x2="1108.0" y2="516.0" stroke="#eee"/>
<text x="64.0" y="519.0" text-anchor="end" fill="#999">0.0</text>
<line x1="68.0" y1="296.0" x2="1108.0" y2="296.0" stroke="#eee"/>
<text x="64.0" y="299.0" text-anchor="end" fill="#999">114</text>
<line x1="68.0" y1="76.0" x2="1108.0" y2="76.0" stroke="#eee"/>
<text x="64.0" y="79.0" text-anchor="end" fill="#999">227</text>
<line x1="68.0" y1="76.0" x2="68.0" y2="516.0" stroke="#333"/>
<line x1="68.0" y1="516.0" x2="1108.0" y2="516.0" stroke="#333"/>
<line x1="68.0" y1="516.0" x2="68.0" y2="519.0" stroke="#999"/>
<text x="68.0" y="531.0" text-anchor="end" fill="#666" transform="rotate(-50 68.0 531.0)">26.1</text>
<line x1="183.6" y1="516.0" x2="183.6" y2="519.0" stroke="#999"/>
<text x="183.6" y="531.0" text-anchor="end" fill="#666" transform="rotate(-50 183.6 531.0)">26.2</text>
<line x1="299.1" y1="516.0" x2="299.1" y2="519.0" stroke="#999"/>
<text x="299.1" y="531.0" text-anchor="end" fill="#666" transform="rotate(-50 299.1 531.0)">26.3</text>
<line x1="414.7" y1="516.0" x2="414.7" y2="519.0" stroke="#999"/>
<text x="414.7" y="531.0" text-anchor="end" fill="#666" transform="rotate(-50 414.7 531.0)">26.4</text>
<line x1="530.2" y1="516.0" x2="530.2" y2="519.0" stroke="#999"/>
<text x="530.2" y="531.0" text-anchor="end" fill="#666" transform="rotate(-50 530.2 531.0)">26.5</text>
<line x1="645.8" y1="516.0" x2="645.8" y2="519.0" stroke="#999"/>
<text x="645.8" y="531.0" text-anchor="end" fill="#666" transform="rotate(-50 645.8 531.0)">26.7</text>
<line x1="761.3" y1="516.0" x2="761.3" y2="519.0" stroke="#999"/>
<text x="761.3" y="531.0" text-anchor="end" fill="#666" transform="rotate(-50 761.3 531.0)">26.8</text>
<line x1="876.9" y1="516.0" x2="876.9" y2="519.0" stroke="#999"/>
<text x="876.9" y="531.0" text-anchor="end" fill="#666" transform="rotate(-50 876.9 531.0)">26.9</text>
<line x1="992.4" y1="516.0" x2="992.4" y2="519.0" stroke="#999"/>
<text x="992.4" y="531.0" text-anchor="end" fill="#666" transform="rotate(-50 992.4 531.0)">26.10</text>
<line x1="1108.0" y1="516.0" x2="1108.0" y2="519.0" stroke="#999"/>
<text x="1108.0" y="531.0" text-anchor="end" fill="#666" transform="rotate(-50 1108.0 531.0)">26.11</text>
<polygon points="68.0,514.5 183.6,514.5 299.1,514.5 414.7,514.4 530.2,514.4 645.8,514.4 761.3,514.4 876.9,514.4 992.4,514.2 1108.0,514.4 1108.0,516.0 992.4,516.0 876.9,516.0 761.3,516.0 645.8,516.0 530.2,516.0 414.7,516.0 299.1,516.0 183.6,516.0 68.0,516.0" fill="#c7e9c0" fill-opacity="0.9" stroke="#fff" stroke-width="0.4"><title>existential_aggregate — parseTranslationUnit</title></polygon>
<polygon points="68.0,464.0 183.6,460.3 299.1,460.2 414.7,457.7 530.2,457.1 645.8,442.3 761.3,442.2 876.9,441.3 992.4,438.4 1108.0,485.4 1108.0,514.4 992.4,514.2 876.9,514.4 761.3,514.4 645.8,514.4 530.2,514.4 414.7,514.4 299.1,514.5 183.6,514.5 68.0,514.5" fill="#41ab5d" fill-opacity="0.9" stroke="#fff" stroke-width="0.4"><title>existential_aggregate — SemanticChecking</title></polygon>
<polygon points="68.0,452.1 183.6,448.1 299.1,447.6 414.7,444.9 530.2,444.3 645.8,411.4 761.3,410.9 876.9,409.8 992.4,407.1 1108.0,470.8 1108.0,485.4 992.4,438.4 876.9,441.3 761.3,442.2 645.8,442.3 530.2,457.1 414.7,457.7 299.1,460.2 183.6,460.3 68.0,464.0" fill="#006d2c" fill-opacity="0.9" stroke="#fff" stroke-width="0.4"><title>existential_aggregate — generateIR</title></polygon>
<polygon points="68.0,451.4 183.6,447.4 299.1,447.0 414.7,444.4 530.2,443.6 645.8,410.5 761.3,410.4 876.9,409.7 992.4,406.2 1108.0,470.2 1108.0,470.8 992.4,407.1 876.9,409.8 761.3,410.9 645.8,411.4 530.2,444.3 414.7,444.9 299.1,447.6 183.6,448.1 68.0,452.1" fill="#74c476" fill-opacity="0.9" stroke="#fff" stroke-width="0.4"><title>existential_aggregate — frontEndExecute (self)</title></polygon>
<polygon points="68.0,423.2 183.6,419.9 299.1,418.9 414.7,415.7 530.2,415.0 645.8,271.4 761.3,271.2 876.9,271.3 992.4,267.2 1108.0,348.6 1108.0,470.2 992.4,406.2 876.9,409.7 761.3,410.4 645.8,410.5 530.2,443.6 414.7,444.4 299.1,447.0 183.6,447.4 68.0,451.4" fill="#6baed6" fill-opacity="0.9" stroke="#fff" stroke-width="0.4"><title>existential_aggregate — specializeModule</title></polygon>
<polygon points="68.0,378.9 183.6,375.9 299.1,374.8 414.7,369.6 530.2,368.7 645.8,208.0 761.3,207.7 876.9,208.3 992.4,203.9 1108.0,309.3 1108.0,348.6 992.4,267.2 876.9,271.3 761.3,271.2 645.8,271.4 530.2,415.0 414.7,415.7 299.1,418.9 183.6,419.9 68.0,423.2" fill="#2171b5" fill-opacity="0.9" stroke="#fff" stroke-width="0.4"><title>existential_aggregate — simplifyIR</title></polygon>
<polygon points="68.0,376.1 183.6,373.1 299.1,372.0 414.7,366.2 530.2,365.5 645.8,187.5 761.3,186.4 876.9,187.1 992.4,182.5 1108.0,306.5 1108.0,309.3 992.4,203.9 876.9,208.3 761.3,207.7 645.8,208.0 530.2,368.7 414.7,369.6 299.1,374.8 183.6,375.9 68.0,378.9" fill="#08306b" fill-opacity="0.9" stroke="#fff" stroke-width="0.4"><title>existential_aggregate — linkIR</title></polygon>
<polygon points="68.0,375.9 183.6,372.9 299.1,371.8 414.7,366.0 530.2,365.3 645.8,187.4 761.3,186.3 876.9,187.0 992.4,182.4 1108.0,306.4 1108.0,306.5 992.4,182.5 876.9,187.1 761.3,186.4 645.8,187.5 530.2,365.5 414.7,366.2 299.1,372.0 183.6,373.1 68.0,376.1" fill="#9e9ac8" fill-opacity="0.9" stroke="#fff" stroke-width="0.4"><title>existential_aggregate — unrollLoopsInModule</title></polygon>
<polygon points="68.0,373.2 183.6,370.2 299.1,369.1 414.7,363.2 530.2,362.5 645.8,184.6 761.3,183.5 876.9,184.3 992.4,179.6 1108.0,304.1 1108.0,306.4 992.4,182.4 876.9,187.0 761.3,186.3 645.8,187.4 530.2,365.3 414.7,366.0 299.1,371.8 183.6,372.9 68.0,375.9" fill="#807dba" fill-opacity="0.9" stroke="#fff" stroke-width="0.4"><title>existential_aggregate — legalizeResourceTypes</title></polygon>
<polygon points="68.0,368.6 183.6,365.6 299.1,364.6 414.7,358.6 530.2,357.8 645.8,180.3 761.3,179.1 876.9,180.0 992.4,175.3 1108.0,300.5 1108.0,304.1 992.4,179.6 876.9,184.3 761.3,183.5 645.8,184.6 530.2,362.5 414.7,363.2 299.1,369.1 183.6,370.2 68.0,373.2" fill="#6a51a3" fill-opacity="0.9" stroke="#fff" stroke-width="0.4"><title>existential_aggregate — legalizeExistentialTypeLayout</title></polygon>
<polygon points="68.0,368.1 183.6,365.1 299.1,364.1 414.7,358.1 530.2,357.3 645.8,179.8 761.3,178.7 876.9,179.5 992.4,174.9 1108.0,300.1 1108.0,300.5 992.4,175.3 876.9,180.0 761.3,179.1 645.8,180.3 530.2,357.8 414.7,358.6 299.1,364.6 183.6,365.6 68.0,368.6" fill="#bcbddc" fill-opacity="0.9" stroke="#fff" stroke-width="0.4"><title>existential_aggregate — performMandatoryEarlyInlining</title></polygon>
<polygon points="68.0,367.6 183.6,364.6 299.1,363.6 414.7,357.5 530.2,356.8 645.8,179.3 761.3,178.1 876.9,179.0 992.4,174.3 1108.0,299.5 1108.0,300.1 992.4,174.9 876.9,179.5 761.3,178.7 645.8,179.8 530.2,357.3 414.7,358.1 299.1,364.1 183.6,365.1 68.0,368.1" fill="#dadaeb" fill-opacity="0.9" stroke="#fff" stroke-width="0.4"><title>existential_aggregate — performForceInlining</title></polygon>
<polygon points="68.0,346.0 183.6,343.2 299.1,342.5 414.7,334.8 530.2,333.9 645.8,143.3 761.3,141.5 876.9,141.8 992.4,137.5 1108.0,275.6 1108.0,299.5 992.4,174.3 876.9,179.0 761.3,178.1 645.8,179.3 530.2,356.8 414.7,357.5 299.1,363.6 183.6,364.6 68.0,367.6" fill="#4a1486" fill-opacity="0.9" stroke="#fff" stroke-width="0.4"><title>existential_aggregate — linkAndOptimizeIR (self)</title></polygon>
<polygon points="68.0,318.0 183.6,315.1 299.1,314.6 414.7,305.4 530.2,304.9 645.8,114.3 761.3,111.6 876.9,112.8 992.4,108.6 1108.0,247.5 1108.0,275.6 992.4,137.5 876.9,141.8 761.3,141.5 645.8,143.3 530.2,333.9 414.7,334.8 299.1,342.5 183.6,343.2 68.0,346.0" fill="#e6550d" fill-opacity="0.9" stroke="#fff" stroke-width="0.4"><title>existential_aggregate — generateOutput (self)</title></polygon>
<polygon points="68.0,317.9 183.6,314.6 299.1,313.6 414.7,305.2 530.2,304.0 645.8,112.9 761.3,109.8 876.9,112.8 992.4,108.6 1108.0,247.5 1108.0,247.5 992.4,108.6 876.9,112.8 761.3,111.6 645.8,114.3 530.2,304.9 414.7,305.4 299.1,314.6 183.6,315.1 68.0,318.0" fill="#969696" fill-opacity="0.9" stroke="#fff" stroke-width="0.4"><title>existential_aggregate — compileInner (self)</title></polygon>
<text x="12" y="578" fill="#666" font-weight="600">phase buckets</text>
<rect x="12" y="586" width="12" height="12" fill="#c7e9c0"/>
<text x="28" y="596" fill="#222">parseTranslationUnit</text>
<rect x="289" y="586" width="12" height="12" fill="#41ab5d"/>
<text x="305" y="596" fill="#222">SemanticChecking</text>
<rect x="566" y="586" width="12" height="12" fill="#006d2c"/>
<text x="582" y="596" fill="#222">generateIR</text>
<rect x="843" y="586" width="12" height="12" fill="#74c476"/>
<text x="859" y="596" fill="#222">frontEndExecute (self)</text>
<rect x="12" y="604" width="12" height="12" fill="#6baed6"/>
<text x="28" y="614" fill="#222">specializeModule</text>
<rect x="289" y="604" width="12" height="12" fill="#2171b5"/>
<text x="305" y="614" fill="#222">simplifyIR</text>
<rect x="566" y="604" width="12" height="12" fill="#08306b"/>
<text x="582" y="614" fill="#222">linkIR</text>
<rect x="843" y="604" width="12" height="12" fill="#9e9ac8"/>
<text x="859" y="614" fill="#222">unrollLoopsInModule</text>
<rect x="12" y="622" width="12" height="12" fill="#807dba"/>
<text x="28" y="632" fill="#222">legalizeResourceTypes</text>
<rect x="289" y="622" width="12" height="12" fill="#6a51a3"/>
<text x="305" y="632" fill="#222">legalizeExistentialTypeLayout</text>
<rect x="566" y="622" width="12" height="12" fill="#bcbddc"/>
<text x="582" y="632" fill="#222">performMandatoryEarlyInlining</text>
<rect x="843" y="622" width="12" height="12" fill="#dadaeb"/>
<text x="859" y="632" fill="#222">performForceInlining</text>
<rect x="12" y="640" width="12" height="12" fill="#4a1486"/>
<text x="28" y="650" fill="#222">linkAndOptimizeIR (self)</text>
<rect x="289" y="640" width="12" height="12" fill="#fd8d3c"/>
<text x="305" y="650" fill="#222">emitEntryPointsSourceFromIR</text>
<rect x="566" y="640" width="12" height="12" fill="#e6550d"/>
<text x="582" y="650" fill="#222">generateOutput (self)</text>
<rect x="843" y="640" width="12" height="12" fill="#969696"/>
<text x="859" y="650" fill="#222">compileInner (self)</text>
</svg>