<svg xmlns="http://www.w3.org/2000/svg" xmlns:xlink="http://www.w3.org/1999/xlink" width="1132" height="680" viewBox="0 0 1132 680" preserveAspectRatio="xMidYMid meet" font-family="sans-serif" font-size="13">
<rect width="1132" height="680" fill="white"/>
<text x="12" y="30" font-size="20" font-weight="bold">existential_aggregate — full phase breakdown across releases (median ms)</text>
<text x="68" y="60" font-size="15" font-weight="600" fill="#1a1a1a">existential_aggregate<tspan fill="#888" font-weight="400" text-decoration="none">  0.97×</tspan></text>
<line x1="68.0" y1="516.0" x2="1108.0" y2="516.0" stroke="#eee"/>
<text x="64.0" y="519.0" text-anchor="end" fill="#999">0.0</text>
<line x1="68.0" y1="296.0" x2="1108.0" y2="296.0" stroke="#eee"/>
<text x="64.0" y="299.0" text-anchor="end" fill="#999">115</text>
<line x1="68.0" y1="76.0" x2="1108.0" y2="76.0" stroke="#eee"/>
<text x="64.0" y="79.0" text-anchor="end" fill="#999">231</text>
<line x1="68.0" y1="76.0" x2="68.0" y2="516.0" stroke="#333"/>
<line x1="68.0" y1="516.0" x2="1108.0" y2="516.0" stroke="#333"/>
<line x1="766.8" y1="76.0" x2="766.8" y2="516.0" stroke="#e8731a" stroke-width="1.2" stroke-dasharray="4 3"/>
<text x="769.8" y="87.0" fill="#e8731a" font-size="11">daily →</text>
<line x1="68.0" y1="516.0" x2="68.0" y2="519.0" stroke="#999"/>
<text x="68.0" y="531.0" text-anchor="end" fill="#666" transform="rotate(-50 68.0 531.0)">25.14</text>
<line x1="100.5" y1="516.0" x2="100.5" y2="519.0" stroke="#999"/>
<text x="100.5" y="531.0" text-anchor="end" fill="#666" transform="rotate(-50 100.5 531.0)">25.15</text>
<line x1="133.0" y1="516.0" x2="133.0" y2="519.0" stroke="#999"/>
<text x="133.0" y="531.0" text-anchor="end" fill="#666" transform="rotate(-50 133.0 531.0)">25.16</text>
<line x1="165.5" y1="516.0" x2="165.5" y2="519.0" stroke="#999"/>
<text x="165.5" y="531.0" text-anchor="end" fill="#666" transform="rotate(-50 165.5 531.0)">25.17</text>
<line x1="198.0" y1="516.0" x2="198.0" y2="519.0" stroke="#999"/>
<text x="198.0" y="531.0" text-anchor="end" fill="#666" transform="rotate(-50 198.0 531.0)">25.18</text>
<line x1="230.5" y1="516.0" x2="230.5" y2="519.0" stroke="#999"/>
<text x="230.5" y="531.0" text-anchor="end" fill="#666" transform="rotate(-50 230.5 531.0)">25.19</text>
<line x1="263.0" y1="516.0" x2="263.0" y2="519.0" stroke="#999"/>
<text x="263.0" y="531.0" text-anchor="end" fill="#666" transform="rotate(-50 263.0 531.0)">25.20</text>
<line x1="295.5" y1="516.0" x2="295.5" y2="519.0" stroke="#999"/>
<text x="295.5" y="531.0" text-anchor="end" fill="#666" transform="rotate(-50 295.5 531.0)">25.21</text>
<line x1="328.0" y1="516.0" x2="328.0" y2="519.0" stroke="#999"/>
<text x="328.0" y="531.0" text-anchor="end" fill="#666" transform="rotate(-50 328.0 531.0)">25.22</text>
<line x1="360.5" y1="516.0" x2="360.5" y2="519.0" stroke="#999"/>
<text x="360.5" y="531.0" text-anchor="end" fill="#666" transform="rotate(-50 360.5 531.0)">25.23</text>
<line x1="393.0" y1="516.0" x2="393.0" y2="519.0" stroke="#999"/>
<text x="393.0" y="531.0" text-anchor="end" fill="#666" transform="rotate(-50 393.0 531.0)">25.24</text>
<line x1="425.5" y1="516.0" x2="425.5" y2="519.0" stroke="#999"/>
<text x="425.5" y="531.0" text-anchor="end" fill="#666" transform="rotate(-50 425.5 531.0)">26.1</text>
<line x1="458.0" y1="516.0" x2="458.0" y2="519.0" stroke="#999"/>
<text x="458.0" y="531.0" text-anchor="end" fill="#666" transform="rotate(-50 458.0 531.0)">26.2</text>
<line x1="490.5" y1="516.0" x2="490.5" y2="519.0" stroke="#999"/>
<text x="490.5" y="531.0" text-anchor="end" fill="#666" transform="rotate(-50 490.5 531.0)">26.3</text>
<line x1="523.0" y1="516.0" x2="523.0" y2="519.0" stroke="#999"/>
<text x="523.0" y="531.0" text-anchor="end" fill="#666" transform="rotate(-50 523.0 531.0)">26.4</text>
<line x1="555.5" y1="516.0" x2="555.5" y2="519.0" stroke="#999"/>
<text x="555.5" y="531.0" text-anchor="end" fill="#666" transform="rotate(-50 555.5 531.0)">26.5</text>
<line x1="588.0" y1="516.0" x2="588.0" y2="519.0" stroke="#999"/>
<text x="588.0" y="531.0" text-anchor="end" fill="#666" transform="rotate(-50 588.0 531.0)">26.7</text>
<line x1="620.5" y1="516.0" x2="620.5" y2="519.0" stroke="#999"/>
<text x="620.5" y="531.0" text-anchor="end" fill="#666" transform="rotate(-50 620.5 531.0)">26.8</text>
<line x1="653.0" y1="516.0" x2="653.0" y2="519.0" stroke="#999"/>
<text x="653.0" y="531.0" text-anchor="end" fill="#666" transform="rotate(-50 653.0 531.0)">26.9</text>
<line x1="685.5" y1="516.0" x2="685.5" y2="519.0" stroke="#999"/>
<text x="685.5" y="531.0" text-anchor="end" fill="#666" transform="rotate(-50 685.5 531.0)">26.10</text>
<line x1="718.0" y1="516.0" x2="718.0" y2="519.0" stroke="#999"/>
<text x="718.0" y="531.0" text-anchor="end" fill="#666" transform="rotate(-50 718.0 531.0)">26.11</text>
<line x1="750.5" y1="516.0" x2="750.5" y2="519.0" stroke="#999"/>
<text x="750.5" y="531.0" text-anchor="end" fill="#666" transform="rotate(-50 750.5 531.0)">26.12</text>
<line x1="783.0" y1="516.0" x2="783.0" y2="519.0" stroke="#999"/>
<text x="783.0" y="531.0" text-anchor="end" fill="#e8731a" transform="rotate(-50 783.0 531.0)">06-25</text>
<line x1="815.5" y1="516.0" x2="815.5" y2="519.0" stroke="#999"/>
<text x="815.5" y="531.0" text-anchor="end" fill="#e8731a" transform="rotate(-50 815.5 531.0)">06-26</text>
<line x1="848.0" y1="516.0" x2="848.0" y2="519.0" stroke="#999"/>
<text x="848.0" y="531.0" text-anchor="end" fill="#e8731a" transform="rotate(-50 848.0 531.0)">06-28</text>
<line x1="880.5" y1="516.0" x2="880.5" y2="519.0" stroke="#999"/>
<text x="880.5" y="531.0" text-anchor="end" fill="#e8731a" transform="rotate(-50 880.5 531.0)">07-01</text>
<line x1="913.0" y1="516.0" x2="913.0" y2="519.0" stroke="#999"/>
<text x="913.0" y="531.0" text-anchor="end" fill="#e8731a" transform="rotate(-50 913.0 531.0)">07-02</text>
<line x1="945.5" y1="516.0" x2="945.5" y2="519.0" stroke="#999"/>
<text x="945.5" y="531.0" text-anchor="end" fill="#e8731a" transform="rotate(-50 945.5 531.0)">07-03</text>
<line x1="978.0" y1="516.0" x2="978.0" y2="519.0" stroke="#999"/>
<text x="978.0" y="531.0" text-anchor="end" fill="#e8731a" transform="rotate(-50 978.0 531.0)">07-07</text>
<line x1="1010.5" y1="516.0" x2="1010.5" y2="519.0" stroke="#999"/>
<text x="1010.5" y="531.0" text-anchor="end" fill="#e8731a" transform="rotate(-50 1010.5 531.0)">07-07</text>
<line x1="1043.0" y1="516.0" x2="1043.0" y2="519.0" stroke="#999"/>
<text x="1043.0" y="531.0" text-anchor="end" fill="#e8731a" transform="rotate(-50 1043.0 531.0)">07-09</text>
<line x1="1075.5" y1="516.0" x2="1075.5" y2="519.0" stroke="#999"/>
<text x="1075.5" y="531.0" text-anchor="end" fill="#e8731a" transform="rotate(-50 1075.5 531.0)">07-10</text>
<line x1="1108.0" y1="516.0" x2="1108.0" y2="519.0" stroke="#999"/>
<text x="1108.0" y="531.0" text-anchor="end" fill="#e8731a" transform="rotate(-50 1108.0 531.0)">07-11</text>
<polygon points="68.0,514.2 100.5,514.5 133.0,514.6 165.5,514.5 198.0,514.5 230.5,514.4 263.0,514.4 295.5,514.4 328.0,514.5 360.5,514.5 393.0,514.3 425.5,514.4 458.0,514.5 490.5,514.4 523.0,514.4 555.5,514.4 588.0,514.4 620.5,514.4 653.0,514.4 685.5,514.3 718.0,514.2 750.5,514.3 783.0,514.2 815.5,514.2 848.0,514.3 880.5,514.2 913.0,514.3 945.5,514.2 978.0,514.4 1010.5,514.3 1043.0,514.0 1075.5,514.3 1108.0,514.3 1108.0,516.0 1075.5,516.0 1043.0,516.0 1010.5,516.0 978.0,516.0 945.5,516.0 913.0,516.0 880.5,516.0 848.0,516.0 815.5,516.0 783.0,516.0 750.5,516.0 718.0,516.0 685.5,516.0 653.0,516.0 620.5,516.0 588.0,516.0 555.5,516.0 523.0,516.0 490.5,516.0 458.0,516.0 425.5,516.0 393.0,516.0 360.5,516.0 328.0,516.0 295.5,516.0 263.0,516.0 230.5,516.0 198.0,516.0 165.5,516.0 133.0,516.0 100.5,516.0 68.0,516.0" fill="#c7e9c0" fill-opacity="0.9" stroke="#fff" stroke-width="0.4"><title>existential_aggregate — parseTranslationUnit</title></polygon>
<polygon points="68.0,477.8 100.5,459.5 133.0,459.1 165.5,455.5 198.0,455.2 230.5,453.5 263.0,452.0 295.5,450.0 328.0,464.6 360.5,461.7 393.0,464.0 425.5,464.0 458.0,459.9 490.5,460.1 523.0,459.7 555.5,458.7 588.0,443.0 620.5,443.5 653.0,441.3 685.5,440.4 718.0,485.2 750.5,483.1 783.0,481.3 815.5,480.3 848.0,480.2 880.5,480.2 913.0,480.8 945.5,479.9 978.0,482.0 1010.5,482.1 1043.0,480.9 1075.5,481.0 1108.0,482.7 1108.0,514.3 1075.5,514.3 1043.0,514.0 1010.5,514.3 978.0,514.4 945.5,514.2 913.0,514.3 880.5,514.2 848.0,514.3 815.5,514.2 783.0,514.2 750.5,514.3 718.0,514.2 685.5,514.3 653.0,514.4 620.5,514.4 588.0,514.4 555.5,514.4 523.0,514.4 490.5,514.4 458.0,514.5 425.5,514.4 393.0,514.3 360.5,514.5 328.0,514.5 295.5,514.4 263.0,514.4 230.5,514.4 198.0,514.5 165.5,514.5 133.0,514.6 100.5,514.5 68.0,514.2" fill="#41ab5d" fill-opacity="0.9" stroke="#fff" stroke-width="0.4"><title>existential_aggregate — SemanticChecking</title></polygon>
<polygon points="68.0,467.3 100.5,449.3 133.0,448.7 165.5,444.7 198.0,444.1 230.5,440.5 263.0,438.6 295.5,436.5 328.0,452.5 360.5,449.5 393.0,452.4 425.5,452.4 458.0,447.7 490.5,448.0 523.0,447.7 555.5,446.6 588.0,410.8 620.5,411.4 653.0,409.0 685.5,407.6 718.0,470.5 750.5,468.3 783.0,465.6 815.5,464.5 848.0,464.6 880.5,464.8 913.0,465.3 945.5,463.7 978.0,465.8 1010.5,465.7 1043.0,464.0 1075.5,464.7 1108.0,466.6 1108.0,482.7 1075.5,481.0 1043.0,480.9 1010.5,482.1 978.0,482.0 945.5,479.9 913.0,480.8 880.5,480.2 848.0,480.2 815.5,480.3 783.0,481.3 750.5,483.1 718.0,485.2 685.5,440.4 653.0,441.3 620.5,443.5 588.0,443.0 555.5,458.7 523.0,459.7 490.5,460.1 458.0,459.9 425.5,464.0 393.0,464.0 360.5,461.7 328.0,464.6 295.5,450.0 263.0,452.0 230.5,453.5 198.0,455.2 165.5,455.5 133.0,459.1 100.5,459.5 68.0,477.8" fill="#006d2c" fill-opacity="0.9" stroke="#fff" stroke-width="0.4"><title>existential_aggregate — generateIR</title></polygon>
<polygon points="68.0,466.7 100.5,448.8 133.0,448.6 165.5,444.1 198.0,443.6 230.5,440.1 263.0,438.2 295.5,436.5 328.0,452.0 360.5,448.7 393.0,452.1 425.5,451.8 458.0,446.7 490.5,447.4 523.0,447.2 555.5,445.7 588.0,409.6 620.5,410.7 653.0,408.7 685.5,405.3 718.0,469.8 750.5,467.7 783.0,464.9 815.5,463.8 848.0,463.6 880.5,463.7 913.0,464.4 945.5,463.0 978.0,464.8 1010.5,465.1 1043.0,463.1 1075.5,463.7 1108.0,465.6 1108.0,466.6 1075.5,464.7 1043.0,464.0 1010.5,465.7 978.0,465.8 945.5,463.7 913.0,465.3 880.5,464.8 848.0,464.6 815.5,464.5 783.0,465.6 750.5,468.3 718.0,470.5 685.5,407.6 653.0,409.0 620.5,411.4 588.0,410.8 555.5,446.6 523.0,447.7 490.5,448.0 458.0,447.7 425.5,452.4 393.0,452.4 360.5,449.5 328.0,452.5 295.5,436.5 263.0,438.6 230.5,440.5 198.0,444.1 165.5,444.7 133.0,448.7 100.5,449.3 68.0,467.3" fill="#74c476" fill-opacity="0.9" stroke="#fff" stroke-width="0.4"><title>existential_aggregate — frontEndExecute (self)</title></polygon>
<polygon points="68.0,462.1 100.5,444.2 133.0,444.0 165.5,439.3 198.0,438.9 230.5,435.0 263.0,433.1 295.5,431.1 328.0,446.8 360.5,443.6 393.0,423.1 425.5,424.9 458.0,419.4 490.5,420.4 523.0,420.7 555.5,418.8 588.0,272.7 620.5,274.6 653.0,273.8 685.5,269.9 718.0,353.1 750.5,345.4 783.0,334.5 815.5,330.9 848.0,333.8 880.5,336.3 913.0,336.3 945.5,335.0 978.0,419.5 1010.5,420.3 1043.0,418.1 1075.5,418.7 1108.0,421.0 1108.0,465.6 1075.5,463.7 1043.0,463.1 1010.5,465.1 978.0,464.8 945.5,463.0 913.0,464.4 880.5,463.7 848.0,463.6 815.5,463.8 783.0,464.9 750.5,467.7 718.0,469.8 685.5,405.3 653.0,408.7 620.5,410.7 588.0,409.6 555.5,445.7 523.0,447.2 490.5,447.4 458.0,446.7 425.5,451.8 393.0,452.1 360.5,448.7 328.0,452.0 295.5,436.5 263.0,438.2 230.5,440.1 198.0,443.6 165.5,444.1 133.0,448.6 100.5,448.8 68.0,466.7" fill="#6baed6" fill-opacity="0.9" stroke="#fff" stroke-width="0.4"><title>existential_aggregate — specializeModule</title></polygon>
<polygon points="68.0,431.2 100.5,413.3 133.0,413.5 165.5,406.2 198.0,404.8 230.5,399.2 263.0,397.8 295.5,393.9 328.0,412.5 360.5,408.0 393.0,376.7 425.5,381.1 458.0,375.6 490.5,377.5 523.0,376.9 555.5,375.3 588.0,210.7 620.5,213.5 653.0,211.8 685.5,208.3 718.0,314.2 750.5,307.1 783.0,292.9 815.5,289.3 848.0,293.2 880.5,296.8 913.0,308.4 945.5,306.2 978.0,391.0 1010.5,391.2 1043.0,389.3 1075.5,392.6 1108.0,394.8 1108.0,421.0 1075.5,418.7 1043.0,418.1 1010.5,420.3 978.0,419.5 945.5,335.0 913.0,336.3 880.5,336.3 848.0,333.8 815.5,330.9 783.0,334.5 750.5,345.4 718.0,353.1 685.5,269.9 653.0,273.8 620.5,274.6 588.0,272.7 555.5,418.8 523.0,420.7 490.5,420.4 458.0,419.4 425.5,424.9 393.0,423.1 360.5,443.6 328.0,446.8 295.5,431.1 263.0,433.1 230.5,435.0 198.0,438.9 165.5,439.3 133.0,444.0 100.5,444.2 68.0,462.1" fill="#2171b5" fill-opacity="0.9" stroke="#fff" stroke-width="0.4"><title>existential_aggregate — simplifyIR</title></polygon>
<polygon points="68.0,428.2 100.5,410.6 133.0,410.8 165.5,403.0 198.0,401.3 230.5,395.6 263.0,394.3 295.5,390.0 328.0,409.1 360.5,404.3 393.0,373.5 425.5,378.2 458.0,372.5 490.5,374.6 523.0,373.9 555.5,372.2 588.0,187.0 620.5,190.1 653.0,188.0 685.5,184.5 718.0,311.3 750.5,304.2 783.0,290.0 815.5,286.4 848.0,290.2 880.5,293.7 913.0,305.5 945.5,303.2 978.0,388.4 1010.5,388.6 1043.0,386.8 1075.5,390.1 1108.0,392.2 1108.0,394.8 1075.5,392.6 1043.0,389.3 1010.5,391.2 978.0,391.0 945.5,306.2 913.0,308.4 880.5,296.8 848.0,293.2 815.5,289.3 783.0,292.9 750.5,307.1 718.0,314.2 685.5,208.3 653.0,211.8 620.5,213.5 588.0,210.7 555.5,375.3 523.0,376.9 490.5,377.5 458.0,375.6 425.5,381.1 393.0,376.7 360.5,408.0 328.0,412.5 295.5,393.9 263.0,397.8 230.5,399.2 198.0,404.8 165.5,406.2 133.0,413.5 100.5,413.3 68.0,431.2" fill="#08306b" fill-opacity="0.9" stroke="#fff" stroke-width="0.4"><title>existential_aggregate — linkIR</title></polygon>
<polygon points="68.0,428.0 100.5,410.4 133.0,410.7 165.5,402.8 198.0,401.1 230.5,395.4 263.0,394.1 295.5,389.8 328.0,408.9 360.5,404.1 393.0,373.3 425.5,378.0 458.0,372.3 490.5,374.4 523.0,373.7 555.5,372.0 588.0,186.9 620.5,190.0 653.0,187.9 685.5,184.3 718.0,311.2 750.5,304.1 783.0,289.9 815.5,286.3 848.0,290.1 880.5,293.6 913.0,305.4 945.5,303.1 978.0,387.9 1010.5,388.1 1043.0,386.3 1075.5,389.6 1108.0,391.8 1108.0,392.2 1075.5,390.1 1043.0,386.8 1010.5,388.6 978.0,388.4 945.5,303.2 913.0,305.5 880.5,293.7 848.0,290.2 815.5,286.4 783.0,290.0 750.5,304.2 718.0,311.3 685.5,184.5 653.0,188.0 620.5,190.1 588.0,187.0 555.5,372.2 523.0,373.9 490.5,374.6 458.0,372.5 425.5,378.2 393.0,373.5 360.5,404.3 328.0,409.1 295.5,390.0 263.0,394.3 230.5,395.6 198.0,401.3 165.5,403.0 133.0,410.8 100.5,410.6 68.0,428.2" fill="#9e9ac8" fill-opacity="0.9" stroke="#fff" stroke-width="0.4"><title>existential_aggregate — unrollLoopsInModule</title></polygon>
<polygon points="68.0,423.2 100.5,405.6 133.0,405.9 165.5,398.2 198.0,397.8 230.5,392.2 263.0,390.8 295.5,386.2 328.0,405.7 360.5,400.8 393.0,370.5 425.5,375.2 458.0,369.5 490.5,371.7 523.0,371.0 555.5,369.3 588.0,184.2 620.5,187.3 653.0,185.2 685.5,181.7 718.0,308.9 750.5,301.8 783.0,287.5 815.5,283.9 848.0,287.6 880.5,291.1 913.0,303.0 945.5,300.6 978.0,385.6 1010.5,385.8 1043.0,383.9 1075.5,387.2 1108.0,389.8 1108.0,391.8 1075.5,389.6 1043.0,386.3 1010.5,388.1 978.0,387.9 945.5,303.1 913.0,305.4 880.5,293.6 848.0,290.1 815.5,286.3 783.0,289.9 750.5,304.1 718.0,311.2 685.5,184.3 653.0,187.9 620.5,190.0 588.0,186.9 555.5,372.0 523.0,373.7 490.5,374.4 458.0,372.3 425.5,378.0 393.0,373.3 360.5,404.1 328.0,408.9 295.5,389.8 263.0,394.1 230.5,395.4 198.0,401.1 165.5,402.8 133.0,410.7 100.5,410.4 68.0,428.0" fill="#807dba" fill-opacity="0.9" stroke="#fff" stroke-width="0.4"><title>existential_aggregate — legalizeResourceTypes</title></polygon>
<polygon points="68.0,417.2 100.5,399.6 133.0,399.9 165.5,392.3 198.0,393.3 230.5,387.7 263.0,386.4 295.5,381.7 328.0,401.3 360.5,396.4 393.0,366.0 425.5,370.7 458.0,364.9 490.5,367.3 523.0,366.5 555.5,364.7 588.0,179.8 620.5,182.9 653.0,181.0 685.5,177.4 718.0,305.2 750.5,298.2 783.0,283.8 815.5,280.2 848.0,283.8 880.5,287.4 913.0,299.5 945.5,296.9 978.0,382.0 1010.5,382.1 1043.0,380.3 1075.5,383.5 1108.0,386.7 1108.0,389.8 1075.5,387.2 1043.0,383.9 1010.5,385.8 978.0,385.6 945.5,300.6 913.0,303.0 880.5,291.1 848.0,287.6 815.5,283.9 783.0,287.5 750.5,301.8 718.0,308.9 685.5,181.7 653.0,185.2 620.5,187.3 588.0,184.2 555.5,369.3 523.0,371.0 490.5,371.7 458.0,369.5 425.5,375.2 393.0,370.5 360.5,400.8 328.0,405.7 295.5,386.2 263.0,390.8 230.5,392.2 198.0,397.8 165.5,398.2 133.0,405.9 100.5,405.6 68.0,423.2" fill="#6a51a3" fill-opacity="0.9" stroke="#fff" stroke-width="0.4"><title>existential_aggregate — legalizeExistentialTypeLayout</title></polygon>
<polygon points="68.0,416.8 100.5,399.1 133.0,399.5 165.5,391.8 198.0,392.9 230.5,387.2 263.0,386.0 295.5,381.2 328.0,400.8 360.5,396.0 393.0,365.5 425.5,370.2 458.0,364.4 490.5,366.8 523.0,366.0 555.5,364.3 588.0,179.4 620.5,182.5 653.0,180.5 685.5,176.9 718.0,304.8 750.5,297.7 783.0,283.3 815.5,279.7 848.0,283.4 880.5,287.0 913.0,299.1 945.5,296.4 978.0,381.1 1010.5,381.3 1043.0,379.4 1075.5,382.6 1108.0,385.8 1108.0,386.7 1075.5,383.5 1043.0,380.3 1010.5,382.1 978.0,382.0 945.5,296.9 913.0,299.5 880.5,287.4 848.0,283.8 815.5,280.2 783.0,283.8 750.5,298.2 718.0,305.2 685.5,177.4 653.0,181.0 620.5,182.9 588.0,179.8 555.5,364.7 523.0,366.5 490.5,367.3 458.0,364.9 425.5,370.7 393.0,366.0 360.5,396.4 328.0,401.3 295.5,381.7 263.0,386.4 230.5,387.7 198.0,393.3 165.5,392.3 133.0,399.9 100.5,399.6 68.0,417.2" fill="#bcbddc" fill-opacity="0.9" stroke="#fff" stroke-width="0.4"><title>existential_aggregate — performMandatoryEarlyInlining</title></polygon>
<polygon points="68.0,416.3 100.5,398.6 133.0,398.9 165.5,391.3 198.0,392.3 230.5,386.6 263.0,385.4 295.5,380.6 328.0,400.2 360.5,395.4 393.0,365.0 425.5,369.7 458.0,363.9 490.5,366.3 523.0,365.5 555.5,363.8 588.0,178.9 620.5,182.0 653.0,180.0 685.5,176.4 718.0,304.3 750.5,297.2 783.0,282.8 815.5,279.2 848.0,282.9 880.5,286.4 913.0,298.5 945.5,295.9 978.0,380.5 1010.5,380.7 1043.0,378.9 1075.5,382.1 1108.0,385.3 1108.0,385.8 1075.5,382.6 1043.0,379.4 1010.5,381.3 978.0,381.1 945.5,296.4 913.0,299.1 880.5,287.0 848.0,283.4 815.5,279.7 783.0,283.3 750.5,297.7 718.0,304.8 685.5,176.9 653.0,180.5 620.5,182.5 588.0,179.4 555.5,364.3 523.0,366.0 490.5,366.8 458.0,364.4 425.5,370.2 393.0,365.5 360.5,396.0 328.0,400.8 295.5,381.2 263.0,386.0 230.5,387.2 198.0,392.9 165.5,391.8 133.0,399.5 100.5,399.1 68.0,416.8" fill="#dadaeb" fill-opacity="0.9" stroke="#fff" stroke-width="0.4"><title>existential_aggregate — performForceInlining</title></polygon>
<polygon points="68.0,394.0 100.5,376.4 133.0,376.8 165.5,367.6 198.0,367.7 230.5,360.8 263.0,358.6 295.5,352.7 328.0,374.2 360.5,369.0 393.0,343.3 425.5,348.6 458.0,342.7 490.5,345.8 523.0,343.7 555.5,342.2 588.0,142.8 620.5,145.9 653.0,142.6 685.5,139.7 718.0,280.4 750.5,274.2 783.0,255.6 815.5,252.9 848.0,256.9 880.5,260.7 913.0,271.9 945.5,268.1 978.0,354.2 1010.5,356.2 1043.0,352.1 1075.5,358.0 1108.0,360.6 1108.0,385.3 1075.5,382.1 1043.0,378.9 1010.5,380.7 978.0,380.5 945.5,295.9 913.0,298.5 880.5,286.4 848.0,282.9 815.5,279.2 783.0,282.8 750.5,297.2 718.0,304.3 685.5,176.4 653.0,180.0 620.5,182.0 588.0,178.9 555.5,363.8 523.0,365.5 490.5,366.3 458.0,363.9 425.5,369.7 393.0,365.0 360.5,395.4 328.0,400.2 295.5,380.6 263.0,385.4 230.5,386.6 198.0,392.3 165.5,391.3 133.0,398.9 100.5,398.6 68.0,416.3" fill="#4a1486" fill-opacity="0.9" stroke="#fff" stroke-width="0.4"><title>existential_aggregate — linkAndOptimizeIR (self)</title></polygon>
<polygon points="68.0,322.7 100.5,305.0 133.0,305.5 165.5,311.4 198.0,306.8 230.5,303.6 263.0,304.0 295.5,294.4 328.0,318.6 360.5,313.9 393.0,313.5 425.5,319.0 458.0,313.9 490.5,316.0 523.0,315.5 555.5,311.6 588.0,111.5 620.5,116.8 653.0,114.2 685.5,110.6 718.0,251.6 750.5,244.9 783.0,225.4 815.5,223.7 848.0,227.1 880.5,231.3 913.0,243.8 945.5,239.3 978.0,325.7 1010.5,326.8 1043.0,321.8 1075.5,329.6 1108.0,330.1 1108.0,360.6 1075.5,358.0 1043.0,352.1 1010.5,356.2 978.0,354.2 945.5,268.1 913.0,271.9 880.5,260.7 848.0,256.9 815.5,252.9 783.0,255.6 750.5,274.2 718.0,280.4 685.5,139.7 653.0,142.6 620.5,145.9 588.0,142.8 555.5,342.2 523.0,343.7 490.5,345.8 458.0,342.7 425.5,348.6 393.0,343.3 360.5,369.0 328.0,374.2 295.5,352.7 263.0,358.6 230.5,360.8 198.0,367.7 165.5,367.6 133.0,376.8 100.5,376.4 68.0,394.0" fill="#e6550d" fill-opacity="0.9" stroke="#fff" stroke-width="0.4"><title>existential_aggregate — generateOutput (self)</title></polygon>
<polygon points="68.0,322.2 100.5,304.6 133.0,305.5 165.5,308.4 198.0,306.3 230.5,303.6 263.0,304.0 295.5,294.4 328.0,318.6 360.5,313.4 393.0,310.6 425.5,318.7 458.0,312.9 490.5,316.0 523.0,315.1 555.5,310.8 588.0,108.6 620.5,116.8 653.0,114.2 685.5,110.4 718.0,250.6 750.5,244.6 783.0,224.6 815.5,222.0 848.0,226.5 880.5,230.8 913.0,243.7 945.5,237.9 978.0,325.7 1010.5,326.2 1043.0,321.8 1075.5,329.2 1108.0,327.9 1108.0,330.1 1075.5,329.6 1043.0,321.8 1010.5,326.8 978.0,325.7 945.5,239.3 913.0,243.8 880.5,231.3 848.0,227.1 815.5,223.7 783.0,225.4 750.5,244.9 718.0,251.6 685.5,110.6 653.0,114.2 620.5,116.8 588.0,111.5 555.5,311.6 523.0,315.5 490.5,316.0 458.0,313.9 425.5,319.0 393.0,313.5 360.5,313.9 328.0,318.6 295.5,294.4 263.0,304.0 230.5,303.6 198.0,306.8 165.5,311.4 133.0,305.5 100.5,305.0 68.0,322.7" fill="#969696" fill-opacity="0.9" stroke="#fff" stroke-width="0.4"><title>existential_aggregate — compileInner (self)</title></polygon>
<text x="12" y="578" fill="#666" font-weight="600">phase buckets</text>
<rect x="12" y="586" width="12" height="12" fill="#c7e9c0"/>
<text x="28" y="596" fill="#222">parseTranslationUnit</text>
<rect x="289" y="586" width="12" height="12" fill="#41ab5d"/>
<text x="305" y="596" fill="#222">SemanticChecking</text>
<rect x="566" y="586" width="12" height="12" fill="#006d2c"/>
<text x="582" y="596" fill="#222">generateIR</text>
<rect x="843" y="586" width="12" height="12" fill="#74c476"/>
<text x="859" y="596" fill="#222">frontEndExecute (self)</text>
<rect x="12" y="604" width="12" height="12" fill="#6baed6"/>
<text x="28" y="614" fill="#222">specializeModule</text>
<rect x="289" y="604" width="12" height="12" fill="#2171b5"/>
<text x="305" y="614" fill="#222">simplifyIR</text>
<rect x="566" y="604" width="12" height="12" fill="#08306b"/>
<text x="582" y="614" fill="#222">linkIR</text>
<rect x="843" y="604" width="12" height="12" fill="#9e9ac8"/>
<text x="859" y="614" fill="#222">unrollLoopsInModule</text>
<rect x="12" y="622" width="12" height="12" fill="#807dba"/>
<text x="28" y="632" fill="#222">legalizeResourceTypes</text>
<rect x="289" y="622" width="12" height="12" fill="#6a51a3"/>
<text x="305" y="632" fill="#222">legalizeExistentialTypeLayout</text>
<rect x="566" y="622" width="12" height="12" fill="#bcbddc"/>
<text x="582" y="632" fill="#222">performMandatoryEarlyInlining</text>
<rect x="843" y="622" width="12" height="12" fill="#dadaeb"/>
<text x="859" y="632" fill="#222">performForceInlining</text>
<rect x="12" y="640" width="12" height="12" fill="#4a1486"/>
<text x="28" y="650" fill="#222">linkAndOptimizeIR (self)</text>
<rect x="289" y="640" width="12" height="12" fill="#fd8d3c"/>
<text x="305" y="650" fill="#222">emitEntryPointsSourceFromIR</text>
<rect x="566" y="640" width="12" height="12" fill="#e6550d"/>
<text x="582" y="650" fill="#222">generateOutput (self)</text>
<rect x="843" y="640" width="12" height="12" fill="#969696"/>
<text x="859" y="650" fill="#222">compileInner (self)</text>
</svg>