<svg xmlns="http://www.w3.org/2000/svg" xmlns:xlink="http://www.w3.org/1999/xlink" width="1132" height="680" viewBox="0 0 1132 680" preserveAspectRatio="xMidYMid meet" font-family="sans-serif" font-size="13">
<rect width="1132" height="680" fill="white"/>
<text x="12" y="30" font-size="20" font-weight="bold">existential_aggregate — full phase breakdown across releases (median ms)</text>
<text x="68" y="60" font-size="15" font-weight="600" fill="#1a1a1a">existential_aggregate<tspan fill="#888" font-weight="400" text-decoration="none">  0.96×</tspan></text>
<line x1="68.0" y1="516.0" x2="1108.0" y2="516.0" stroke="#eee"/>
<text x="64.0" y="519.0" text-anchor="end" fill="#999">0.0</text>
<line x1="68.0" y1="296.0" x2="1108.0" y2="296.0" stroke="#eee"/>
<text x="64.0" y="299.0" text-anchor="end" fill="#999">115</text>
<line x1="68.0" y1="76.0" x2="1108.0" y2="76.0" stroke="#eee"/>
<text x="64.0" y="79.0" text-anchor="end" fill="#999">231</text>
<line x1="68.0" y1="76.0" x2="68.0" y2="516.0" stroke="#333"/>
<line x1="68.0" y1="516.0" x2="1108.0" y2="516.0" stroke="#333"/>
<line x1="745.6" y1="76.0" x2="745.6" y2="516.0" stroke="#e8731a" stroke-width="1.2" stroke-dasharray="4 3"/>
<text x="748.6" y="87.0" fill="#e8731a" font-size="11">daily →</text>
<line x1="68.0" y1="516.0" x2="68.0" y2="519.0" stroke="#999"/>
<text x="68.0" y="531.0" text-anchor="end" fill="#666" transform="rotate(-50 68.0 531.0)">25.14</text>
<line x1="99.5" y1="516.0" x2="99.5" y2="519.0" stroke="#999"/>
<text x="99.5" y="531.0" text-anchor="end" fill="#666" transform="rotate(-50 99.5 531.0)">25.15</text>
<line x1="131.0" y1="516.0" x2="131.0" y2="519.0" stroke="#999"/>
<text x="131.0" y="531.0" text-anchor="end" fill="#666" transform="rotate(-50 131.0 531.0)">25.16</text>
<line x1="162.5" y1="516.0" x2="162.5" y2="519.0" stroke="#999"/>
<text x="162.5" y="531.0" text-anchor="end" fill="#666" transform="rotate(-50 162.5 531.0)">25.17</text>
<line x1="194.1" y1="516.0" x2="194.1" y2="519.0" stroke="#999"/>
<text x="194.1" y="531.0" text-anchor="end" fill="#666" transform="rotate(-50 194.1 531.0)">25.18</text>
<line x1="225.6" y1="516.0" x2="225.6" y2="519.0" stroke="#999"/>
<text x="225.6" y="531.0" text-anchor="end" fill="#666" transform="rotate(-50 225.6 531.0)">25.19</text>
<line x1="257.1" y1="516.0" x2="257.1" y2="519.0" stroke="#999"/>
<text x="257.1" y="531.0" text-anchor="end" fill="#666" transform="rotate(-50 257.1 531.0)">25.20</text>
<line x1="288.6" y1="516.0" x2="288.6" y2="519.0" stroke="#999"/>
<text x="288.6" y="531.0" text-anchor="end" fill="#666" transform="rotate(-50 288.6 531.0)">25.21</text>
<line x1="320.1" y1="516.0" x2="320.1" y2="519.0" stroke="#999"/>
<text x="320.1" y="531.0" text-anchor="end" fill="#666" transform="rotate(-50 320.1 531.0)">25.22</text>
<line x1="351.6" y1="516.0" x2="351.6" y2="519.0" stroke="#999"/>
<text x="351.6" y="531.0" text-anchor="end" fill="#666" transform="rotate(-50 351.6 531.0)">25.23</text>
<line x1="383.2" y1="516.0" x2="383.2" y2="519.0" stroke="#999"/>
<text x="383.2" y="531.0" text-anchor="end" fill="#666" transform="rotate(-50 383.2 531.0)">25.24</text>
<line x1="414.7" y1="516.0" x2="414.7" y2="519.0" stroke="#999"/>
<text x="414.7" y="531.0" text-anchor="end" fill="#666" transform="rotate(-50 414.7 531.0)">26.1</text>
<line x1="446.2" y1="516.0" x2="446.2" y2="519.0" stroke="#999"/>
<text x="446.2" y="531.0" text-anchor="end" fill="#666" transform="rotate(-50 446.2 531.0)">26.2</text>
<line x1="477.7" y1="516.0" x2="477.7" y2="519.0" stroke="#999"/>
<text x="477.7" y="531.0" text-anchor="end" fill="#666" transform="rotate(-50 477.7 531.0)">26.3</text>
<line x1="509.2" y1="516.0" x2="509.2" y2="519.0" stroke="#999"/>
<text x="509.2" y="531.0" text-anchor="end" fill="#666" transform="rotate(-50 509.2 531.0)">26.4</text>
<line x1="540.7" y1="516.0" x2="540.7" y2="519.0" stroke="#999"/>
<text x="540.7" y="531.0" text-anchor="end" fill="#666" transform="rotate(-50 540.7 531.0)">26.5</text>
<line x1="572.2" y1="516.0" x2="572.2" y2="519.0" stroke="#999"/>
<text x="572.2" y="531.0" text-anchor="end" fill="#666" transform="rotate(-50 572.2 531.0)">26.7</text>
<line x1="603.8" y1="516.0" x2="603.8" y2="519.0" stroke="#999"/>
<text x="603.8" y="531.0" text-anchor="end" fill="#666" transform="rotate(-50 603.8 531.0)">26.8</text>
<line x1="635.3" y1="516.0" x2="635.3" y2="519.0" stroke="#999"/>
<text x="635.3" y="531.0" text-anchor="end" fill="#666" transform="rotate(-50 635.3 531.0)">26.9</text>
<line x1="666.8" y1="516.0" x2="666.8" y2="519.0" stroke="#999"/>
<text x="666.8" y="531.0" text-anchor="end" fill="#666" transform="rotate(-50 666.8 531.0)">26.10</text>
<line x1="698.3" y1="516.0" x2="698.3" y2="519.0" stroke="#999"/>
<text x="698.3" y="531.0" text-anchor="end" fill="#666" transform="rotate(-50 698.3 531.0)">26.11</text>
<line x1="729.8" y1="516.0" x2="729.8" y2="519.0" stroke="#999"/>
<text x="729.8" y="531.0" text-anchor="end" fill="#666" transform="rotate(-50 729.8 531.0)">26.12</text>
<line x1="761.3" y1="516.0" x2="761.3" y2="519.0" stroke="#999"/>
<text x="761.3" y="531.0" text-anchor="end" fill="#e8731a" transform="rotate(-50 761.3 531.0)">06-25</text>
<line x1="792.8" y1="516.0" x2="792.8" y2="519.0" stroke="#999"/>
<text x="792.8" y="531.0" text-anchor="end" fill="#e8731a" transform="rotate(-50 792.8 531.0)">06-26</text>
<line x1="824.4" y1="516.0" x2="824.4" y2="519.0" stroke="#999"/>
<text x="824.4" y="531.0" text-anchor="end" fill="#e8731a" transform="rotate(-50 824.4 531.0)">06-28</text>
<line x1="855.9" y1="516.0" x2="855.9" y2="519.0" stroke="#999"/>
<text x="855.9" y="531.0" text-anchor="end" fill="#e8731a" transform="rotate(-50 855.9 531.0)">07-01</text>
<line x1="887.4" y1="516.0" x2="887.4" y2="519.0" stroke="#999"/>
<text x="887.4" y="531.0" text-anchor="end" fill="#e8731a" transform="rotate(-50 887.4 531.0)">07-02</text>
<line x1="918.9" y1="516.0" x2="918.9" y2="519.0" stroke="#999"/>
<text x="918.9" y="531.0" text-anchor="end" fill="#e8731a" transform="rotate(-50 918.9 531.0)">07-03</text>
<line x1="950.4" y1="516.0" x2="950.4" y2="519.0" stroke="#999"/>
<text x="950.4" y="531.0" text-anchor="end" fill="#e8731a" transform="rotate(-50 950.4 531.0)">07-07</text>
<line x1="981.9" y1="516.0" x2="981.9" y2="519.0" stroke="#999"/>
<text x="981.9" y="531.0" text-anchor="end" fill="#e8731a" transform="rotate(-50 981.9 531.0)">07-07</text>
<line x1="1013.5" y1="516.0" x2="1013.5" y2="519.0" stroke="#999"/>
<text x="1013.5" y="531.0" text-anchor="end" fill="#e8731a" transform="rotate(-50 1013.5 531.0)">07-09</text>
<line x1="1045.0" y1="516.0" x2="1045.0" y2="519.0" stroke="#999"/>
<text x="1045.0" y="531.0" text-anchor="end" fill="#e8731a" transform="rotate(-50 1045.0 531.0)">07-10</text>
<line x1="1076.5" y1="516.0" x2="1076.5" y2="519.0" stroke="#999"/>
<text x="1076.5" y="531.0" text-anchor="end" fill="#e8731a" transform="rotate(-50 1076.5 531.0)">07-11</text>
<line x1="1108.0" y1="516.0" x2="1108.0" y2="519.0" stroke="#999"/>
<text x="1108.0" y="531.0" text-anchor="end" fill="#e8731a" transform="rotate(-50 1108.0 531.0)">07-11</text>
<polygon points="68.0,514.2 99.5,514.5 131.0,514.6 162.5,514.5 194.1,514.5 225.6,514.4 257.1,514.4 288.6,514.4 320.1,514.5 351.6,514.5 383.2,514.3 414.7,514.4 446.2,514.5 477.7,514.4 509.2,514.4 540.7,514.4 572.2,514.4 603.8,514.4 635.3,514.4 666.8,514.3 698.3,514.2 729.8,514.3 761.3,514.2 792.8,514.2 824.4,514.3 855.9,514.2 887.4,514.3 918.9,514.2 950.4,514.4 981.9,514.3 1013.5,514.0 1045.0,514.3 1076.5,514.3 1108.0,514.3 1108.0,516.0 1076.5,516.0 1045.0,516.0 1013.5,516.0 981.9,516.0 950.4,516.0 918.9,516.0 887.4,516.0 855.9,516.0 824.4,516.0 792.8,516.0 761.3,516.0 729.8,516.0 698.3,516.0 666.8,516.0 635.3,516.0 603.8,516.0 572.2,516.0 540.7,516.0 509.2,516.0 477.7,516.0 446.2,516.0 414.7,516.0 383.2,516.0 351.6,516.0 320.1,516.0 288.6,516.0 257.1,516.0 225.6,516.0 194.1,516.0 162.5,516.0 131.0,516.0 99.5,516.0 68.0,516.0" fill="#c7e9c0" fill-opacity="0.9" stroke="#fff" stroke-width="0.4"><title>existential_aggregate — parseTranslationUnit</title></polygon>
<polygon points="68.0,477.8 99.5,459.5 131.0,459.1 162.5,455.5 194.1,455.2 225.6,453.5 257.1,452.0 288.6,450.0 320.1,464.6 351.6,461.7 383.2,464.0 414.7,464.0 446.2,459.9 477.7,460.1 509.2,459.7 540.7,458.7 572.2,443.0 603.8,443.5 635.3,441.3 666.8,440.4 698.3,485.2 729.8,483.1 761.3,481.3 792.8,480.3 824.4,480.2 855.9,480.2 887.4,480.8 918.9,480.1 950.4,482.0 981.9,482.1 1013.5,480.9 1045.0,481.0 1076.5,482.7 1108.0,481.9 1108.0,514.3 1076.5,514.3 1045.0,514.3 1013.5,514.0 981.9,514.3 950.4,514.4 918.9,514.2 887.4,514.3 855.9,514.2 824.4,514.3 792.8,514.2 761.3,514.2 729.8,514.3 698.3,514.2 666.8,514.3 635.3,514.4 603.8,514.4 572.2,514.4 540.7,514.4 509.2,514.4 477.7,514.4 446.2,514.5 414.7,514.4 383.2,514.3 351.6,514.5 320.1,514.5 288.6,514.4 257.1,514.4 225.6,514.4 194.1,514.5 162.5,514.5 131.0,514.6 99.5,514.5 68.0,514.2" fill="#41ab5d" fill-opacity="0.9" stroke="#fff" stroke-width="0.4"><title>existential_aggregate — SemanticChecking</title></polygon>
<polygon points="68.0,467.3 99.5,449.3 131.0,448.7 162.5,444.7 194.1,444.1 225.6,440.5 257.1,438.6 288.6,436.5 320.1,452.5 351.6,449.5 383.2,452.4 414.7,452.4 446.2,447.7 477.7,448.0 509.2,447.7 540.7,446.6 572.2,410.8 603.8,411.4 635.3,409.0 666.8,407.6 698.3,470.5 729.8,468.3 761.3,465.6 792.8,464.5 824.4,464.6 855.9,464.8 887.4,465.3 918.9,463.8 950.4,465.8 981.9,465.7 1013.5,464.0 1045.0,464.7 1076.5,466.6 1108.0,466.1 1108.0,481.9 1076.5,482.7 1045.0,481.0 1013.5,480.9 981.9,482.1 950.4,482.0 918.9,480.1 887.4,480.8 855.9,480.2 824.4,480.2 792.8,480.3 761.3,481.3 729.8,483.1 698.3,485.2 666.8,440.4 635.3,441.3 603.8,443.5 572.2,443.0 540.7,458.7 509.2,459.7 477.7,460.1 446.2,459.9 414.7,464.0 383.2,464.0 351.6,461.7 320.1,464.6 288.6,450.0 257.1,452.0 225.6,453.5 194.1,455.2 162.5,455.5 131.0,459.1 99.5,459.5 68.0,477.8" fill="#006d2c" fill-opacity="0.9" stroke="#fff" stroke-width="0.4"><title>existential_aggregate — generateIR</title></polygon>
<polygon points="68.0,466.7 99.5,448.8 131.0,448.6 162.5,444.1 194.1,443.6 225.6,440.1 257.1,438.2 288.6,436.5 320.1,452.0 351.6,448.7 383.2,452.1 414.7,451.8 446.2,446.7 477.7,447.4 509.2,447.2 540.7,445.7 572.2,409.6 603.8,410.7 635.3,408.7 666.8,405.3 698.3,469.8 729.8,467.7 761.3,464.9 792.8,463.8 824.4,463.6 855.9,463.7 887.4,464.4 918.9,463.0 950.4,464.8 981.9,465.1 1013.5,463.1 1045.0,463.7 1076.5,465.6 1108.0,465.3 1108.0,466.1 1076.5,466.6 1045.0,464.7 1013.5,464.0 981.9,465.7 950.4,465.8 918.9,463.8 887.4,465.3 855.9,464.8 824.4,464.6 792.8,464.5 761.3,465.6 729.8,468.3 698.3,470.5 666.8,407.6 635.3,409.0 603.8,411.4 572.2,410.8 540.7,446.6 509.2,447.7 477.7,448.0 446.2,447.7 414.7,452.4 383.2,452.4 351.6,449.5 320.1,452.5 288.6,436.5 257.1,438.6 225.6,440.5 194.1,444.1 162.5,444.7 131.0,448.7 99.5,449.3 68.0,467.3" fill="#74c476" fill-opacity="0.9" stroke="#fff" stroke-width="0.4"><title>existential_aggregate — frontEndExecute (self)</title></polygon>
<polygon points="68.0,462.1 99.5,444.2 131.0,444.0 162.5,439.3 194.1,438.9 225.6,435.0 257.1,433.1 288.6,431.1 320.1,446.8 351.6,443.6 383.2,423.1 414.7,424.9 446.2,419.4 477.7,420.4 509.2,420.7 540.7,418.8 572.2,272.7 603.8,274.6 635.3,273.8 666.8,269.9 698.3,353.1 729.8,345.4 761.3,334.5 792.8,330.9 824.4,333.8 855.9,336.3 887.4,336.3 918.9,332.6 950.4,419.5 981.9,420.3 1013.5,418.1 1045.0,418.7 1076.5,421.0 1108.0,420.7 1108.0,465.3 1076.5,465.6 1045.0,463.7 1013.5,463.1 981.9,465.1 950.4,464.8 918.9,463.0 887.4,464.4 855.9,463.7 824.4,463.6 792.8,463.8 761.3,464.9 729.8,467.7 698.3,469.8 666.8,405.3 635.3,408.7 603.8,410.7 572.2,409.6 540.7,445.7 509.2,447.2 477.7,447.4 446.2,446.7 414.7,451.8 383.2,452.1 351.6,448.7 320.1,452.0 288.6,436.5 257.1,438.2 225.6,440.1 194.1,443.6 162.5,444.1 131.0,448.6 99.5,448.8 68.0,466.7" fill="#6baed6" fill-opacity="0.9" stroke="#fff" stroke-width="0.4"><title>existential_aggregate — specializeModule</title></polygon>
<polygon points="68.0,431.2 99.5,413.3 131.0,413.5 162.5,406.2 194.1,404.8 225.6,399.2 257.1,397.8 288.6,393.9 320.1,412.5 351.6,408.0 383.2,376.7 414.7,381.1 446.2,375.6 477.7,377.5 509.2,376.9 540.7,375.3 572.2,210.7 603.8,213.5 635.3,211.8 666.8,208.3 698.3,314.2 729.8,307.1 761.3,292.9 792.8,289.3 824.4,293.2 855.9,296.8 887.4,308.4 918.9,304.2 950.4,391.0 981.9,391.2 1013.5,389.3 1045.0,392.6 1076.5,394.8 1108.0,394.1 1108.0,420.7 1076.5,421.0 1045.0,418.7 1013.5,418.1 981.9,420.3 950.4,419.5 918.9,332.6 887.4,336.3 855.9,336.3 824.4,333.8 792.8,330.9 761.3,334.5 729.8,345.4 698.3,353.1 666.8,269.9 635.3,273.8 603.8,274.6 572.2,272.7 540.7,418.8 509.2,420.7 477.7,420.4 446.2,419.4 414.7,424.9 383.2,423.1 351.6,443.6 320.1,446.8 288.6,431.1 257.1,433.1 225.6,435.0 194.1,438.9 162.5,439.3 131.0,444.0 99.5,444.2 68.0,462.1" fill="#2171b5" fill-opacity="0.9" stroke="#fff" stroke-width="0.4"><title>existential_aggregate — simplifyIR</title></polygon>
<polygon points="68.0,428.2 99.5,410.6 131.0,410.8 162.5,403.0 194.1,401.3 225.6,395.6 257.1,394.3 288.6,390.0 320.1,409.1 351.6,404.3 383.2,373.5 414.7,378.2 446.2,372.5 477.7,374.6 509.2,373.9 540.7,372.2 572.2,187.0 603.8,190.1 635.3,188.0 666.8,184.5 698.3,311.3 729.8,304.2 761.3,290.0 792.8,286.4 824.4,290.2 855.9,293.7 887.4,305.5 918.9,301.2 950.4,388.4 981.9,388.6 1013.5,386.8 1045.0,390.1 1076.5,392.2 1108.0,391.5 1108.0,394.1 1076.5,394.8 1045.0,392.6 1013.5,389.3 981.9,391.2 950.4,391.0 918.9,304.2 887.4,308.4 855.9,296.8 824.4,293.2 792.8,289.3 761.3,292.9 729.8,307.1 698.3,314.2 666.8,208.3 635.3,211.8 603.8,213.5 572.2,210.7 540.7,375.3 509.2,376.9 477.7,377.5 446.2,375.6 414.7,381.1 383.2,376.7 351.6,408.0 320.1,412.5 288.6,393.9 257.1,397.8 225.6,399.2 194.1,404.8 162.5,406.2 131.0,413.5 99.5,413.3 68.0,431.2" fill="#08306b" fill-opacity="0.9" stroke="#fff" stroke-width="0.4"><title>existential_aggregate — linkIR</title></polygon>
<polygon points="68.0,428.0 99.5,410.4 131.0,410.7 162.5,402.8 194.1,401.1 225.6,395.4 257.1,394.1 288.6,389.8 320.1,408.9 351.6,404.1 383.2,373.3 414.7,378.0 446.2,372.3 477.7,374.4 509.2,373.7 540.7,372.0 572.2,186.9 603.8,190.0 635.3,187.9 666.8,184.3 698.3,311.2 729.8,304.1 761.3,289.9 792.8,286.3 824.4,290.1 855.9,293.6 887.4,305.4 918.9,301.1 950.4,387.9 981.9,388.1 1013.5,386.3 1045.0,389.6 1076.5,391.8 1108.0,391.0 1108.0,391.5 1076.5,392.2 1045.0,390.1 1013.5,386.8 981.9,388.6 950.4,388.4 918.9,301.2 887.4,305.5 855.9,293.7 824.4,290.2 792.8,286.4 761.3,290.0 729.8,304.2 698.3,311.3 666.8,184.5 635.3,188.0 603.8,190.1 572.2,187.0 540.7,372.2 509.2,373.9 477.7,374.6 446.2,372.5 414.7,378.2 383.2,373.5 351.6,404.3 320.1,409.1 288.6,390.0 257.1,394.3 225.6,395.6 194.1,401.3 162.5,403.0 131.0,410.8 99.5,410.6 68.0,428.2" fill="#9e9ac8" fill-opacity="0.9" stroke="#fff" stroke-width="0.4"><title>existential_aggregate — unrollLoopsInModule</title></polygon>
<polygon points="68.0,423.2 99.5,405.6 131.0,405.9 162.5,398.2 194.1,397.8 225.6,392.2 257.1,390.8 288.6,386.2 320.1,405.7 351.6,400.8 383.2,370.5 414.7,375.2 446.2,369.5 477.7,371.7 509.2,371.0 540.7,369.3 572.2,184.2 603.8,187.3 635.3,185.2 666.8,181.7 698.3,308.9 729.8,301.8 761.3,287.5 792.8,283.9 824.4,287.6 855.9,291.1 887.4,303.0 918.9,298.7 950.4,385.6 981.9,385.8 1013.5,383.9 1045.0,387.2 1076.5,389.8 1108.0,389.1 1108.0,391.0 1076.5,391.8 1045.0,389.6 1013.5,386.3 981.9,388.1 950.4,387.9 918.9,301.1 887.4,305.4 855.9,293.6 824.4,290.1 792.8,286.3 761.3,289.9 729.8,304.1 698.3,311.2 666.8,184.3 635.3,187.9 603.8,190.0 572.2,186.9 540.7,372.0 509.2,373.7 477.7,374.4 446.2,372.3 414.7,378.0 383.2,373.3 351.6,404.1 320.1,408.9 288.6,389.8 257.1,394.1 225.6,395.4 194.1,401.1 162.5,402.8 131.0,410.7 99.5,410.4 68.0,428.0" fill="#807dba" fill-opacity="0.9" stroke="#fff" stroke-width="0.4"><title>existential_aggregate — legalizeResourceTypes</title></polygon>
<polygon points="68.0,417.2 99.5,399.6 131.0,399.9 162.5,392.3 194.1,393.3 225.6,387.7 257.1,386.4 288.6,381.7 320.1,401.3 351.6,396.4 383.2,366.0 414.7,370.7 446.2,364.9 477.7,367.3 509.2,366.5 540.7,364.7 572.2,179.8 603.8,182.9 635.3,181.0 666.8,177.4 698.3,305.2 729.8,298.2 761.3,283.8 792.8,280.2 824.4,283.8 855.9,287.4 887.4,299.5 918.9,295.1 950.4,382.0 981.9,382.1 1013.5,380.3 1045.0,383.5 1076.5,386.7 1108.0,385.9 1108.0,389.1 1076.5,389.8 1045.0,387.2 1013.5,383.9 981.9,385.8 950.4,385.6 918.9,298.7 887.4,303.0 855.9,291.1 824.4,287.6 792.8,283.9 761.3,287.5 729.8,301.8 698.3,308.9 666.8,181.7 635.3,185.2 603.8,187.3 572.2,184.2 540.7,369.3 509.2,371.0 477.7,371.7 446.2,369.5 414.7,375.2 383.2,370.5 351.6,400.8 320.1,405.7 288.6,386.2 257.1,390.8 225.6,392.2 194.1,397.8 162.5,398.2 131.0,405.9 99.5,405.6 68.0,423.2" fill="#6a51a3" fill-opacity="0.9" stroke="#fff" stroke-width="0.4"><title>existential_aggregate — legalizeExistentialTypeLayout</title></polygon>
<polygon points="68.0,416.8 99.5,399.1 131.0,399.5 162.5,391.8 194.1,392.9 225.6,387.2 257.1,386.0 288.6,381.2 320.1,400.8 351.6,396.0 383.2,365.5 414.7,370.2 446.2,364.4 477.7,366.8 509.2,366.0 540.7,364.3 572.2,179.4 603.8,182.5 635.3,180.5 666.8,176.9 698.3,304.8 729.8,297.7 761.3,283.3 792.8,279.7 824.4,283.4 855.9,287.0 887.4,299.1 918.9,294.6 950.4,381.1 981.9,381.3 1013.5,379.4 1045.0,382.6 1076.5,385.8 1108.0,385.1 1108.0,385.9 1076.5,386.7 1045.0,383.5 1013.5,380.3 981.9,382.1 950.4,382.0 918.9,295.1 887.4,299.5 855.9,287.4 824.4,283.8 792.8,280.2 761.3,283.8 729.8,298.2 698.3,305.2 666.8,177.4 635.3,181.0 603.8,182.9 572.2,179.8 540.7,364.7 509.2,366.5 477.7,367.3 446.2,364.9 414.7,370.7 383.2,366.0 351.6,396.4 320.1,401.3 288.6,381.7 257.1,386.4 225.6,387.7 194.1,393.3 162.5,392.3 131.0,399.9 99.5,399.6 68.0,417.2" fill="#bcbddc" fill-opacity="0.9" stroke="#fff" stroke-width="0.4"><title>existential_aggregate — performMandatoryEarlyInlining</title></polygon>
<polygon points="68.0,416.3 99.5,398.6 131.0,398.9 162.5,391.3 194.1,392.3 225.6,386.6 257.1,385.4 288.6,380.6 320.1,400.2 351.6,395.4 383.2,365.0 414.7,369.7 446.2,363.9 477.7,366.3 509.2,365.5 540.7,363.8 572.2,178.9 603.8,182.0 635.3,180.0 666.8,176.4 698.3,304.3 729.8,297.2 761.3,282.8 792.8,279.2 824.4,282.9 855.9,286.4 887.4,298.5 918.9,294.1 950.4,380.5 981.9,380.7 1013.5,378.9 1045.0,382.1 1076.5,385.3 1108.0,384.5 1108.0,385.1 1076.5,385.8 1045.0,382.6 1013.5,379.4 981.9,381.3 950.4,381.1 918.9,294.6 887.4,299.1 855.9,287.0 824.4,283.4 792.8,279.7 761.3,283.3 729.8,297.7 698.3,304.8 666.8,176.9 635.3,180.5 603.8,182.5 572.2,179.4 540.7,364.3 509.2,366.0 477.7,366.8 446.2,364.4 414.7,370.2 383.2,365.5 351.6,396.0 320.1,400.8 288.6,381.2 257.1,386.0 225.6,387.2 194.1,392.9 162.5,391.8 131.0,399.5 99.5,399.1 68.0,416.8" fill="#dadaeb" fill-opacity="0.9" stroke="#fff" stroke-width="0.4"><title>existential_aggregate — performForceInlining</title></polygon>
<polygon points="68.0,394.0 99.5,376.4 131.0,376.8 162.5,367.6 194.1,367.7 225.6,360.8 257.1,358.6 288.6,352.7 320.1,374.2 351.6,369.0 383.2,343.3 414.7,348.6 446.2,342.7 477.7,345.8 509.2,343.7 540.7,342.2 572.2,142.8 603.8,145.9 635.3,142.6 666.8,139.7 698.3,280.4 729.8,274.2 761.3,255.6 792.8,252.9 824.4,256.9 855.9,260.7 887.4,271.9 918.9,265.9 950.4,354.2 981.9,356.2 1013.5,352.1 1045.0,358.0 1076.5,360.6 1108.0,359.7 1108.0,384.5 1076.5,385.3 1045.0,382.1 1013.5,378.9 981.9,380.7 950.4,380.5 918.9,294.1 887.4,298.5 855.9,286.4 824.4,282.9 792.8,279.2 761.3,282.8 729.8,297.2 698.3,304.3 666.8,176.4 635.3,180.0 603.8,182.0 572.2,178.9 540.7,363.8 509.2,365.5 477.7,366.3 446.2,363.9 414.7,369.7 383.2,365.0 351.6,395.4 320.1,400.2 288.6,380.6 257.1,385.4 225.6,386.6 194.1,392.3 162.5,391.3 131.0,398.9 99.5,398.6 68.0,416.3" fill="#4a1486" fill-opacity="0.9" stroke="#fff" stroke-width="0.4"><title>existential_aggregate — linkAndOptimizeIR (self)</title></polygon>
<polygon points="68.0,322.7 99.5,305.0 131.0,305.5 162.5,311.4 194.1,306.8 225.6,303.6 257.1,304.0 288.6,294.4 320.1,318.6 351.6,313.9 383.2,313.5 414.7,319.0 446.2,313.9 477.7,316.0 509.2,315.5 540.7,311.6 572.2,111.5 603.8,116.8 635.3,114.2 666.8,110.6 698.3,251.6 729.8,244.9 761.3,225.4 792.8,223.7 824.4,227.1 855.9,231.3 887.4,243.8 918.9,237.1 950.4,325.7 981.9,326.8 1013.5,321.8 1045.0,329.6 1076.5,330.1 1108.0,330.6 1108.0,359.7 1076.5,360.6 1045.0,358.0 1013.5,352.1 981.9,356.2 950.4,354.2 918.9,265.9 887.4,271.9 855.9,260.7 824.4,256.9 792.8,252.9 761.3,255.6 729.8,274.2 698.3,280.4 666.8,139.7 635.3,142.6 603.8,145.9 572.2,142.8 540.7,342.2 509.2,343.7 477.7,345.8 446.2,342.7 414.7,348.6 383.2,343.3 351.6,369.0 320.1,374.2 288.6,352.7 257.1,358.6 225.6,360.8 194.1,367.7 162.5,367.6 131.0,376.8 99.5,376.4 68.0,394.0" fill="#e6550d" fill-opacity="0.9" stroke="#fff" stroke-width="0.4"><title>existential_aggregate — generateOutput (self)</title></polygon>
<polygon points="68.0,322.2 99.5,304.6 131.0,305.5 162.5,308.4 194.1,306.3 225.6,303.6 257.1,304.0 288.6,294.4 320.1,318.6 351.6,313.4 383.2,310.6 414.7,318.7 446.2,312.9 477.7,316.0 509.2,315.1 540.7,310.8 572.2,108.6 603.8,116.8 635.3,114.2 666.8,110.4 698.3,250.6 729.8,244.6 761.3,224.6 792.8,222.0 824.4,226.5 855.9,230.8 887.4,243.7 918.9,235.9 950.4,325.7 981.9,326.2 1013.5,321.8 1045.0,329.2 1076.5,327.9 1108.0,330.5 1108.0,330.6 1076.5,330.1 1045.0,329.6 1013.5,321.8 981.9,326.8 950.4,325.7 918.9,237.1 887.4,243.8 855.9,231.3 824.4,227.1 792.8,223.7 761.3,225.4 729.8,244.9 698.3,251.6 666.8,110.6 635.3,114.2 603.8,116.8 572.2,111.5 540.7,311.6 509.2,315.5 477.7,316.0 446.2,313.9 414.7,319.0 383.2,313.5 351.6,313.9 320.1,318.6 288.6,294.4 257.1,304.0 225.6,303.6 194.1,306.8 162.5,311.4 131.0,305.5 99.5,305.0 68.0,322.7" fill="#969696" fill-opacity="0.9" stroke="#fff" stroke-width="0.4"><title>existential_aggregate — compileInner (self)</title></polygon>
<text x="12" y="578" fill="#666" font-weight="600">phase buckets</text>
<rect x="12" y="586" width="12" height="12" fill="#c7e9c0"/>
<text x="28" y="596" fill="#222">parseTranslationUnit</text>
<rect x="289" y="586" width="12" height="12" fill="#41ab5d"/>
<text x="305" y="596" fill="#222">SemanticChecking</text>
<rect x="566" y="586" width="12" height="12" fill="#006d2c"/>
<text x="582" y="596" fill="#222">generateIR</text>
<rect x="843" y="586" width="12" height="12" fill="#74c476"/>
<text x="859" y="596" fill="#222">frontEndExecute (self)</text>
<rect x="12" y="604" width="12" height="12" fill="#6baed6"/>
<text x="28" y="614" fill="#222">specializeModule</text>
<rect x="289" y="604" width="12" height="12" fill="#2171b5"/>
<text x="305" y="614" fill="#222">simplifyIR</text>
<rect x="566" y="604" width="12" height="12" fill="#08306b"/>
<text x="582" y="614" fill="#222">linkIR</text>
<rect x="843" y="604" width="12" height="12" fill="#9e9ac8"/>
<text x="859" y="614" fill="#222">unrollLoopsInModule</text>
<rect x="12" y="622" width="12" height="12" fill="#807dba"/>
<text x="28" y="632" fill="#222">legalizeResourceTypes</text>
<rect x="289" y="622" width="12" height="12" fill="#6a51a3"/>
<text x="305" y="632" fill="#222">legalizeExistentialTypeLayout</text>
<rect x="566" y="622" width="12" height="12" fill="#bcbddc"/>
<text x="582" y="632" fill="#222">performMandatoryEarlyInlining</text>
<rect x="843" y="622" width="12" height="12" fill="#dadaeb"/>
<text x="859" y="632" fill="#222">performForceInlining</text>
<rect x="12" y="640" width="12" height="12" fill="#4a1486"/>
<text x="28" y="650" fill="#222">linkAndOptimizeIR (self)</text>
<rect x="289" y="640" width="12" height="12" fill="#fd8d3c"/>
<text x="305" y="650" fill="#222">emitEntryPointsSourceFromIR</text>
<rect x="566" y="640" width="12" height="12" fill="#e6550d"/>
<text x="582" y="650" fill="#222">generateOutput (self)</text>
<rect x="843" y="640" width="12" height="12" fill="#969696"/>
<text x="859" y="650" fill="#222">compileInner (self)</text>
</svg>