<svg xmlns="http://www.w3.org/2000/svg" xmlns:xlink="http://www.w3.org/1999/xlink" width="1132" height="680" viewBox="0 0 1132 680" preserveAspectRatio="xMidYMid meet" font-family="sans-serif" font-size="13">
<rect width="1132" height="680" fill="white"/>
<text x="12" y="30" font-size="20" font-weight="bold">existential_aggregate — Daily tip-of-tree (last 30 days) (median ms)</text>
<text x="68" y="60" font-size="15" font-weight="600" fill="#1a1a1a">existential_aggregate<tspan fill="#888" font-weight="400" text-decoration="none">  0.58×</tspan></text>
<line x1="68.0" y1="516.0" x2="1108.0" y2="516.0" stroke="#eee"/>
<text x="64.0" y="519.0" text-anchor="end" fill="#999">0.0</text>
<line x1="68.0" y1="296.0" x2="1108.0" y2="296.0" stroke="#eee"/>
<text x="64.0" y="299.0" text-anchor="end" fill="#999">82</text>
<line x1="68.0" y1="76.0" x2="1108.0" y2="76.0" stroke="#eee"/>
<text x="64.0" y="79.0" text-anchor="end" fill="#999">164</text>
<line x1="68.0" y1="76.0" x2="68.0" y2="516.0" stroke="#333"/>
<line x1="68.0" y1="516.0" x2="1108.0" y2="516.0" stroke="#333"/>
<line x1="68.0" y1="516.0" x2="68.0" y2="519.0" stroke="#999"/>
<text x="68.0" y="531.0" text-anchor="end" fill="#e8731a" transform="rotate(-50 68.0 531.0)">06-25</text>
<line x1="148.0" y1="516.0" x2="148.0" y2="519.0" stroke="#999"/>
<text x="148.0" y="531.0" text-anchor="end" fill="#e8731a" transform="rotate(-50 148.0 531.0)">06-26</text>
<line x1="228.0" y1="516.0" x2="228.0" y2="519.0" stroke="#999"/>
<text x="228.0" y="531.0" text-anchor="end" fill="#e8731a" transform="rotate(-50 228.0 531.0)">06-28</text>
<line x1="308.0" y1="516.0" x2="308.0" y2="519.0" stroke="#999"/>
<text x="308.0" y="531.0" text-anchor="end" fill="#e8731a" transform="rotate(-50 308.0 531.0)">07-01</text>
<line x1="388.0" y1="516.0" x2="388.0" y2="519.0" stroke="#999"/>
<text x="388.0" y="531.0" text-anchor="end" fill="#e8731a" transform="rotate(-50 388.0 531.0)">07-02</text>
<line x1="468.0" y1="516.0" x2="468.0" y2="519.0" stroke="#999"/>
<text x="468.0" y="531.0" text-anchor="end" fill="#e8731a" transform="rotate(-50 468.0 531.0)">07-03</text>
<line x1="548.0" y1="516.0" x2="548.0" y2="519.0" stroke="#999"/>
<text x="548.0" y="531.0" text-anchor="end" fill="#e8731a" transform="rotate(-50 548.0 531.0)">07-06</text>
<line x1="628.0" y1="516.0" x2="628.0" y2="519.0" stroke="#999"/>
<text x="628.0" y="531.0" text-anchor="end" fill="#e8731a" transform="rotate(-50 628.0 531.0)">07-07</text>
<line x1="708.0" y1="516.0" x2="708.0" y2="519.0" stroke="#999"/>
<text x="708.0" y="531.0" text-anchor="end" fill="#e8731a" transform="rotate(-50 708.0 531.0)">07-08</text>
<line x1="788.0" y1="516.0" x2="788.0" y2="519.0" stroke="#999"/>
<text x="788.0" y="531.0" text-anchor="end" fill="#e8731a" transform="rotate(-50 788.0 531.0)">07-09</text>
<line x1="868.0" y1="516.0" x2="868.0" y2="519.0" stroke="#999"/>
<text x="868.0" y="531.0" text-anchor="end" fill="#e8731a" transform="rotate(-50 868.0 531.0)">07-10</text>
<line x1="948.0" y1="516.0" x2="948.0" y2="519.0" stroke="#999"/>
<text x="948.0" y="531.0" text-anchor="end" fill="#e8731a" transform="rotate(-50 948.0 531.0)">07-11</text>
<line x1="1028.0" y1="516.0" x2="1028.0" y2="519.0" stroke="#999"/>
<text x="1028.0" y="531.0" text-anchor="end" fill="#e8731a" transform="rotate(-50 1028.0 531.0)">07-14</text>
<line x1="1108.0" y1="516.0" x2="1108.0" y2="519.0" stroke="#999"/>
<text x="1108.0" y="531.0" text-anchor="end" fill="#e8731a" transform="rotate(-50 1108.0 531.0)">07-15</text>
<polygon points="68.0,513.5 148.0,513.5 228.0,513.5 308.0,513.5 388.0,513.5 468.0,513.5 548.0,513.4 628.0,513.7 708.0,513.6 788.0,513.6 868.0,513.5 948.0,513.6 1028.0,513.7 1108.0,513.7 1108.0,516.0 1028.0,516.0 948.0,516.0 868.0,516.0 788.0,516.0 708.0,516.0 628.0,516.0 548.0,516.0 468.0,516.0 388.0,516.0 308.0,516.0 228.0,516.0 148.0,516.0 68.0,516.0" fill="#c7e9c0" fill-opacity="0.9" stroke="#fff" stroke-width="0.4"><title>existential_aggregate — parseTranslationUnit</title></polygon>
<polygon points="68.0,466.0 148.0,466.7 228.0,464.7 308.0,465.6 388.0,465.2 468.0,465.8 548.0,465.3 628.0,468.7 708.0,468.7 788.0,467.7 868.0,467.8 948.0,468.1 1028.0,468.7 1108.0,471.5 1108.0,513.7 1028.0,513.7 948.0,513.6 868.0,513.5 788.0,513.6 708.0,513.6 628.0,513.7 548.0,513.4 468.0,513.5 388.0,513.5 308.0,513.5 228.0,513.5 148.0,513.5 68.0,513.5" fill="#41ab5d" fill-opacity="0.9" stroke="#fff" stroke-width="0.4"><title>existential_aggregate — SemanticChecking</title></polygon>
<polygon points="68.0,443.6 148.0,444.7 228.0,442.5 308.0,443.4 388.0,442.2 468.0,443.2 548.0,442.5 628.0,446.0 708.0,445.8 788.0,444.8 868.0,445.4 948.0,445.9 1028.0,446.4 1108.0,450.1 1108.0,471.5 1028.0,468.7 948.0,468.1 868.0,467.8 788.0,467.7 708.0,468.7 628.0,468.7 548.0,465.3 468.0,465.8 388.0,465.2 308.0,465.6 228.0,464.7 148.0,466.7 68.0,466.0" fill="#006d2c" fill-opacity="0.9" stroke="#fff" stroke-width="0.4"><title>existential_aggregate — generateIR</title></polygon>
<polygon points="68.0,442.6 148.0,443.3 228.0,441.4 308.0,442.7 388.0,441.4 468.0,442.2 548.0,440.6 628.0,445.1 708.0,444.3 788.0,443.8 868.0,444.4 948.0,444.8 1028.0,445.5 1108.0,449.1 1108.0,450.1 1028.0,446.4 948.0,445.9 868.0,445.4 788.0,444.8 708.0,445.8 628.0,446.0 548.0,442.5 468.0,443.2 388.0,442.2 308.0,443.4 228.0,442.5 148.0,444.7 68.0,443.6" fill="#74c476" fill-opacity="0.9" stroke="#fff" stroke-width="0.4"><title>existential_aggregate — frontEndExecute (self)</title></polygon>
<polygon points="68.0,260.2 148.0,262.0 228.0,258.6 308.0,263.8 388.0,259.3 468.0,259.9 548.0,260.2 628.0,381.2 708.0,380.9 788.0,379.3 868.0,381.7 948.0,382.2 1028.0,382.0 1108.0,392.2 1108.0,449.1 1028.0,445.5 948.0,444.8 868.0,444.4 788.0,443.8 708.0,444.3 628.0,445.1 548.0,440.6 468.0,442.2 388.0,441.4 308.0,442.7 228.0,441.4 148.0,443.3 68.0,442.6" fill="#6baed6" fill-opacity="0.9" stroke="#fff" stroke-width="0.4"><title>existential_aggregate — specializeModule</title></polygon>
<polygon points="68.0,203.1 148.0,204.6 228.0,202.1 308.0,207.2 388.0,219.2 468.0,219.8 548.0,220.3 628.0,341.0 708.0,341.8 788.0,339.7 868.0,344.7 948.0,344.9 1028.0,345.7 1108.0,360.2 1108.0,392.2 1028.0,382.0 948.0,382.2 868.0,381.7 788.0,379.3 708.0,380.9 628.0,381.2 548.0,260.2 468.0,259.9 388.0,259.3 308.0,263.8 228.0,258.6 148.0,262.0 68.0,260.2" fill="#2171b5" fill-opacity="0.9" stroke="#fff" stroke-width="0.4"><title>existential_aggregate — simplifyIR</title></polygon>
<polygon points="68.0,198.8 148.0,200.4 228.0,197.6 308.0,202.9 388.0,215.0 468.0,215.6 548.0,216.0 628.0,337.4 708.0,338.2 788.0,336.1 868.0,341.1 948.0,341.2 1028.0,341.9 1108.0,357.0 1108.0,360.2 1028.0,345.7 948.0,344.9 868.0,344.7 788.0,339.7 708.0,341.8 628.0,341.0 548.0,220.3 468.0,219.8 388.0,219.2 308.0,207.2 228.0,202.1 148.0,204.6 68.0,203.1" fill="#08306b" fill-opacity="0.9" stroke="#fff" stroke-width="0.4"><title>existential_aggregate — linkIR</title></polygon>
<polygon points="68.0,198.7 148.0,200.3 228.0,197.5 308.0,202.7 388.0,214.9 468.0,215.5 548.0,215.9 628.0,336.8 708.0,337.5 788.0,335.5 868.0,340.4 948.0,340.6 1028.0,341.3 1108.0,356.5 1108.0,357.0 1028.0,341.9 948.0,341.2 868.0,341.1 788.0,336.1 708.0,338.2 628.0,337.4 548.0,216.0 468.0,215.6 388.0,215.0 308.0,202.9 228.0,197.6 148.0,200.4 68.0,198.8" fill="#9e9ac8" fill-opacity="0.9" stroke="#fff" stroke-width="0.4"><title>existential_aggregate — unrollLoopsInModule</title></polygon>
<polygon points="68.0,195.3 148.0,196.9 228.0,194.0 308.0,199.3 388.0,211.5 468.0,212.1 548.0,212.5 628.0,333.5 708.0,334.2 788.0,332.2 868.0,337.8 948.0,337.9 1028.0,338.6 1108.0,353.8 1108.0,356.5 1028.0,341.3 948.0,340.6 868.0,340.4 788.0,335.5 708.0,337.5 628.0,336.8 548.0,215.9 468.0,215.5 388.0,214.9 308.0,202.7 228.0,197.5 148.0,200.3 68.0,198.7" fill="#807dba" fill-opacity="0.9" stroke="#fff" stroke-width="0.4"><title>existential_aggregate — legalizeResourceTypes</title></polygon>
<polygon points="68.0,190.2 148.0,191.6 228.0,188.7 308.0,194.0 388.0,206.5 468.0,207.0 548.0,207.5 628.0,328.4 708.0,329.1 788.0,327.0 868.0,333.5 948.0,333.4 1028.0,334.2 1108.0,349.7 1108.0,353.8 1028.0,338.6 948.0,337.9 868.0,337.8 788.0,332.2 708.0,334.2 628.0,333.5 548.0,212.5 468.0,212.1 388.0,211.5 308.0,199.3 228.0,194.0 148.0,196.9 68.0,195.3" fill="#6a51a3" fill-opacity="0.9" stroke="#fff" stroke-width="0.4"><title>existential_aggregate — legalizeExistentialTypeLayout</title></polygon>
<polygon points="68.0,189.5 148.0,191.0 228.0,188.1 308.0,193.4 388.0,205.9 468.0,206.3 548.0,206.8 628.0,327.1 708.0,327.9 788.0,325.8 868.0,332.3 948.0,332.2 1028.0,333.0 1108.0,348.5 1108.0,349.7 1028.0,334.2 948.0,333.4 868.0,333.5 788.0,327.0 708.0,329.1 628.0,328.4 548.0,207.5 468.0,207.0 388.0,206.5 308.0,194.0 228.0,188.7 148.0,191.6 68.0,190.2" fill="#bcbddc" fill-opacity="0.9" stroke="#fff" stroke-width="0.4"><title>existential_aggregate — performMandatoryEarlyInlining</title></polygon>
<polygon points="68.0,188.8 148.0,190.2 228.0,187.4 308.0,192.6 388.0,205.2 468.0,205.5 548.0,206.1 628.0,326.4 708.0,327.2 788.0,325.1 868.0,331.5 948.0,331.4 1028.0,332.3 1108.0,347.7 1108.0,348.5 1028.0,333.0 948.0,332.2 868.0,332.3 788.0,325.8 708.0,327.9 628.0,327.1 548.0,206.8 468.0,206.3 388.0,205.9 308.0,193.4 228.0,188.1 148.0,191.0 68.0,189.5" fill="#dadaeb" fill-opacity="0.9" stroke="#fff" stroke-width="0.4"><title>existential_aggregate — performForceInlining</title></polygon>
<polygon points="68.0,152.0 148.0,153.5 228.0,150.1 308.0,154.6 388.0,166.8 468.0,166.5 548.0,165.6 628.0,290.3 708.0,292.2 788.0,289.8 868.0,297.2 948.0,296.6 1028.0,297.9 1108.0,319.6 1108.0,347.7 1028.0,332.3 948.0,331.4 868.0,331.5 788.0,325.1 708.0,327.2 628.0,326.4 548.0,206.1 468.0,205.5 388.0,205.2 308.0,192.6 228.0,187.4 148.0,190.2 68.0,188.8" fill="#4a1486" fill-opacity="0.9" stroke="#fff" stroke-width="0.4"><title>existential_aggregate — linkAndOptimizeIR (self)</title></polygon>
<polygon points="68.0,109.7 148.0,112.3 228.0,108.6 308.0,113.7 388.0,126.2 468.0,126.3 548.0,124.9 628.0,249.7 708.0,252.0 788.0,249.0 868.0,256.2 948.0,255.8 1028.0,258.7 1108.0,280.4 1108.0,319.6 1028.0,297.9 948.0,296.6 868.0,297.2 788.0,289.8 708.0,292.2 628.0,290.3 548.0,165.6 468.0,166.5 388.0,166.8 308.0,154.6 228.0,150.1 148.0,153.5 68.0,152.0" fill="#e6550d" fill-opacity="0.9" stroke="#fff" stroke-width="0.4"><title>existential_aggregate — generateOutput (self)</title></polygon>
<polygon points="68.0,109.7 148.0,112.3 228.0,108.6 308.0,113.7 388.0,126.2 468.0,125.5 548.0,124.4 628.0,249.2 708.0,251.5 788.0,248.5 868.0,254.6 948.0,255.6 1028.0,258.4 1108.0,280.1 1108.0,280.4 1028.0,258.7 948.0,255.8 868.0,256.2 788.0,249.0 708.0,252.0 628.0,249.7 548.0,124.9 468.0,126.3 388.0,126.2 308.0,113.7 228.0,108.6 148.0,112.3 68.0,109.7" fill="#969696" fill-opacity="0.9" stroke="#fff" stroke-width="0.4"><title>existential_aggregate — compileInner (self)</title></polygon>
<text x="12" y="578" fill="#666" font-weight="600">phase buckets</text>
<rect x="12" y="586" width="12" height="12" fill="#c7e9c0"/>
<text x="28" y="596" fill="#222">parseTranslationUnit</text>
<rect x="289" y="586" width="12" height="12" fill="#41ab5d"/>
<text x="305" y="596" fill="#222">SemanticChecking</text>
<rect x="566" y="586" width="12" height="12" fill="#006d2c"/>
<text x="582" y="596" fill="#222">generateIR</text>
<rect x="843" y="586" width="12" height="12" fill="#74c476"/>
<text x="859" y="596" fill="#222">frontEndExecute (self)</text>
<rect x="12" y="604" width="12" height="12" fill="#6baed6"/>
<text x="28" y="614" fill="#222">specializeModule</text>
<rect x="289" y="604" width="12" height="12" fill="#2171b5"/>
<text x="305" y="614" fill="#222">simplifyIR</text>
<rect x="566" y="604" width="12" height="12" fill="#08306b"/>
<text x="582" y="614" fill="#222">linkIR</text>
<rect x="843" y="604" width="12" height="12" fill="#9e9ac8"/>
<text x="859" y="614" fill="#222">unrollLoopsInModule</text>
<rect x="12" y="622" width="12" height="12" fill="#807dba"/>
<text x="28" y="632" fill="#222">legalizeResourceTypes</text>
<rect x="289" y="622" width="12" height="12" fill="#6a51a3"/>
<text x="305" y="632" fill="#222">legalizeExistentialTypeLayout</text>
<rect x="566" y="622" width="12" height="12" fill="#bcbddc"/>
<text x="582" y="632" fill="#222">performMandatoryEarlyInlining</text>
<rect x="843" y="622" width="12" height="12" fill="#dadaeb"/>
<text x="859" y="632" fill="#222">performForceInlining</text>
<rect x="12" y="640" width="12" height="12" fill="#4a1486"/>
<text x="28" y="650" fill="#222">linkAndOptimizeIR (self)</text>
<rect x="289" y="640" width="12" height="12" fill="#fd8d3c"/>
<text x="305" y="650" fill="#222">emitEntryPointsSourceFromIR</text>
<rect x="566" y="640" width="12" height="12" fill="#e6550d"/>
<text x="582" y="650" fill="#222">generateOutput (self)</text>
<rect x="843" y="640" width="12" height="12" fill="#969696"/>
<text x="859" y="650" fill="#222">compileInner (self)</text>
</svg>