<svg xmlns="http://www.w3.org/2000/svg" xmlns:xlink="http://www.w3.org/1999/xlink" width="1132" height="680" viewBox="0 0 1132 680" preserveAspectRatio="xMidYMid meet" font-family="sans-serif" font-size="13">
<rect width="1132" height="680" fill="white"/>
<text x="12" y="30" font-size="20" font-weight="bold">existential_aggregate — full phase breakdown across releases (median ms)</text>
<text x="68" y="60" font-size="15" font-weight="600" fill="#1a1a1a">existential_aggregate<tspan fill="#888" font-weight="400" text-decoration="none">  1.52×</tspan></text>
<line x1="68.0" y1="516.0" x2="1108.0" y2="516.0" stroke="#eee"/>
<text x="64.0" y="519.0" text-anchor="end" fill="#999">0.0</text>
<line x1="68.0" y1="296.0" x2="1108.0" y2="296.0" stroke="#eee"/>
<text x="64.0" y="299.0" text-anchor="end" fill="#999">114</text>
<line x1="68.0" y1="76.0" x2="1108.0" y2="76.0" stroke="#eee"/>
<text x="64.0" y="79.0" text-anchor="end" fill="#999">227</text>
<line x1="68.0" y1="76.0" x2="68.0" y2="516.0" stroke="#333"/>
<line x1="68.0" y1="516.0" x2="1108.0" y2="516.0" stroke="#333"/>
<line x1="1037.1" y1="76.0" x2="1037.1" y2="516.0" stroke="#e8731a" stroke-width="1.2" stroke-dasharray="4 3"/>
<text x="1040.1" y="87.0" fill="#e8731a" font-size="11">daily →</text>
<line x1="68.0" y1="516.0" x2="68.0" y2="519.0" stroke="#999"/>
<text x="68.0" y="531.0" text-anchor="end" fill="#666" transform="rotate(-50 68.0 531.0)">25.14</text>
<line x1="115.3" y1="516.0" x2="115.3" y2="519.0" stroke="#999"/>
<text x="115.3" y="531.0" text-anchor="end" fill="#666" transform="rotate(-50 115.3 531.0)">25.15</text>
<line x1="162.5" y1="516.0" x2="162.5" y2="519.0" stroke="#999"/>
<text x="162.5" y="531.0" text-anchor="end" fill="#666" transform="rotate(-50 162.5 531.0)">25.16</text>
<line x1="209.8" y1="516.0" x2="209.8" y2="519.0" stroke="#999"/>
<text x="209.8" y="531.0" text-anchor="end" fill="#666" transform="rotate(-50 209.8 531.0)">25.17</text>
<line x1="257.1" y1="516.0" x2="257.1" y2="519.0" stroke="#999"/>
<text x="257.1" y="531.0" text-anchor="end" fill="#666" transform="rotate(-50 257.1 531.0)">25.18</text>
<line x1="304.4" y1="516.0" x2="304.4" y2="519.0" stroke="#999"/>
<text x="304.4" y="531.0" text-anchor="end" fill="#666" transform="rotate(-50 304.4 531.0)">25.19</text>
<line x1="351.6" y1="516.0" x2="351.6" y2="519.0" stroke="#999"/>
<text x="351.6" y="531.0" text-anchor="end" fill="#666" transform="rotate(-50 351.6 531.0)">25.20</text>
<line x1="398.9" y1="516.0" x2="398.9" y2="519.0" stroke="#999"/>
<text x="398.9" y="531.0" text-anchor="end" fill="#666" transform="rotate(-50 398.9 531.0)">25.21</text>
<line x1="446.2" y1="516.0" x2="446.2" y2="519.0" stroke="#999"/>
<text x="446.2" y="531.0" text-anchor="end" fill="#666" transform="rotate(-50 446.2 531.0)">25.22</text>
<line x1="493.5" y1="516.0" x2="493.5" y2="519.0" stroke="#999"/>
<text x="493.5" y="531.0" text-anchor="end" fill="#666" transform="rotate(-50 493.5 531.0)">25.23</text>
<line x1="540.7" y1="516.0" x2="540.7" y2="519.0" stroke="#999"/>
<text x="540.7" y="531.0" text-anchor="end" fill="#666" transform="rotate(-50 540.7 531.0)">25.24</text>
<line x1="588.0" y1="516.0" x2="588.0" y2="519.0" stroke="#999"/>
<text x="588.0" y="531.0" text-anchor="end" fill="#666" transform="rotate(-50 588.0 531.0)">26.1</text>
<line x1="635.3" y1="516.0" x2="635.3" y2="519.0" stroke="#999"/>
<text x="635.3" y="531.0" text-anchor="end" fill="#666" transform="rotate(-50 635.3 531.0)">26.2</text>
<line x1="682.5" y1="516.0" x2="682.5" y2="519.0" stroke="#999"/>
<text x="682.5" y="531.0" text-anchor="end" fill="#666" transform="rotate(-50 682.5 531.0)">26.3</text>
<line x1="729.8" y1="516.0" x2="729.8" y2="519.0" stroke="#999"/>
<text x="729.8" y="531.0" text-anchor="end" fill="#666" transform="rotate(-50 729.8 531.0)">26.4</text>
<line x1="777.1" y1="516.0" x2="777.1" y2="519.0" stroke="#999"/>
<text x="777.1" y="531.0" text-anchor="end" fill="#666" transform="rotate(-50 777.1 531.0)">26.5</text>
<line x1="824.4" y1="516.0" x2="824.4" y2="519.0" stroke="#999"/>
<text x="824.4" y="531.0" text-anchor="end" fill="#666" transform="rotate(-50 824.4 531.0)">26.7</text>
<line x1="871.6" y1="516.0" x2="871.6" y2="519.0" stroke="#999"/>
<text x="871.6" y="531.0" text-anchor="end" fill="#666" transform="rotate(-50 871.6 531.0)">26.8</text>
<line x1="918.9" y1="516.0" x2="918.9" y2="519.0" stroke="#999"/>
<text x="918.9" y="531.0" text-anchor="end" fill="#666" transform="rotate(-50 918.9 531.0)">26.9</text>
<line x1="966.2" y1="516.0" x2="966.2" y2="519.0" stroke="#999"/>
<text x="966.2" y="531.0" text-anchor="end" fill="#666" transform="rotate(-50 966.2 531.0)">26.10</text>
<line x1="1013.5" y1="516.0" x2="1013.5" y2="519.0" stroke="#999"/>
<text x="1013.5" y="531.0" text-anchor="end" fill="#666" transform="rotate(-50 1013.5 531.0)">26.11</text>
<line x1="1060.7" y1="516.0" x2="1060.7" y2="519.0" stroke="#999"/>
<text x="1060.7" y="531.0" text-anchor="end" fill="#e8731a" transform="rotate(-50 1060.7 531.0)">06-25</text>
<line x1="1108.0" y1="516.0" x2="1108.0" y2="519.0" stroke="#999"/>
<text x="1108.0" y="531.0" text-anchor="end" fill="#e8731a" transform="rotate(-50 1108.0 531.0)">06-26</text>
<polygon points="68.0,514.3 115.3,514.5 162.5,514.5 209.8,514.6 257.1,514.6 304.4,514.5 351.6,514.5 398.9,514.5 446.2,514.5 493.5,514.5 540.7,514.4 588.0,514.5 635.3,514.5 682.5,514.5 729.8,514.4 777.1,514.4 824.4,514.4 871.6,514.4 918.9,514.4 966.2,514.2 1013.5,514.4 1060.7,514.3 1108.0,514.3 1108.0,516.0 1060.7,516.0 1013.5,516.0 966.2,516.0 918.9,516.0 871.6,516.0 824.4,516.0 777.1,516.0 729.8,516.0 682.5,516.0 635.3,516.0 588.0,516.0 540.7,516.0 493.5,516.0 446.2,516.0 398.9,516.0 351.6,516.0 304.4,516.0 257.1,516.0 209.8,516.0 162.5,516.0 115.3,516.0 68.0,516.0" fill="#c7e9c0" fill-opacity="0.9" stroke="#fff" stroke-width="0.4"><title>existential_aggregate — parseTranslationUnit</title></polygon>
<polygon points="68.0,478.9 115.3,458.0 162.5,458.2 209.8,455.6 257.1,456.6 304.4,456.1 351.6,456.1 398.9,455.5 446.2,464.8 493.5,464.4 540.7,464.9 588.0,464.0 635.3,460.3 682.5,460.2 729.8,457.7 777.1,457.1 824.4,442.3 871.6,442.2 918.9,441.3 966.2,438.4 1013.5,485.4 1060.7,481.0 1108.0,481.0 1108.0,514.3 1060.7,514.3 1013.5,514.4 966.2,514.2 918.9,514.4 871.6,514.4 824.4,514.4 777.1,514.4 729.8,514.4 682.5,514.5 635.3,514.5 588.0,514.5 540.7,514.4 493.5,514.5 446.2,514.5 398.9,514.5 351.6,514.5 304.4,514.5 257.1,514.6 209.8,514.6 162.5,514.5 115.3,514.5 68.0,514.3" fill="#41ab5d" fill-opacity="0.9" stroke="#fff" stroke-width="0.4"><title>existential_aggregate — SemanticChecking</title></polygon>
<polygon points="68.0,468.5 115.3,447.5 162.5,448.0 209.8,445.1 257.1,445.9 304.4,444.2 351.6,444.1 398.9,443.5 446.2,453.0 493.5,452.3 540.7,453.3 588.0,452.1 635.3,448.1 682.5,447.6 729.8,444.9 777.1,444.3 824.4,411.4 871.6,410.9 918.9,409.8 966.2,407.1 1013.5,470.8 1060.7,465.7 1108.0,465.8 1108.0,481.0 1060.7,481.0 1013.5,485.4 966.2,438.4 918.9,441.3 871.6,442.2 824.4,442.3 777.1,457.1 729.8,457.7 682.5,460.2 635.3,460.3 588.0,464.0 540.7,464.9 493.5,464.4 446.2,464.8 398.9,455.5 351.6,456.1 304.4,456.1 257.1,456.6 209.8,455.6 162.5,458.2 115.3,458.0 68.0,478.9" fill="#006d2c" fill-opacity="0.9" stroke="#fff" stroke-width="0.4"><title>existential_aggregate — generateIR</title></polygon>
<polygon points="68.0,468.1 115.3,447.1 162.5,447.5 209.8,444.6 257.1,445.2 304.4,443.5 351.6,443.5 398.9,442.8 446.2,452.6 493.5,451.8 540.7,452.8 588.0,451.4 635.3,447.4 682.5,447.0 729.8,444.4 777.1,443.6 824.4,410.5 871.6,410.4 918.9,409.7 966.2,406.2 1013.5,470.2 1060.7,465.0 1108.0,464.9 1108.0,465.8 1060.7,465.7 1013.5,470.8 966.2,407.1 918.9,409.8 871.6,410.9 824.4,411.4 777.1,444.3 729.8,444.9 682.5,447.6 635.3,448.1 588.0,452.1 540.7,453.3 493.5,452.3 446.2,453.0 398.9,443.5 351.6,444.1 304.4,444.2 257.1,445.9 209.8,445.1 162.5,448.0 115.3,447.5 68.0,468.5" fill="#74c476" fill-opacity="0.9" stroke="#fff" stroke-width="0.4"><title>existential_aggregate — frontEndExecute (self)</title></polygon>
<polygon points="68.0,463.4 115.3,442.5 162.5,442.9 209.8,439.9 257.1,440.6 304.4,438.7 351.6,438.6 398.9,437.9 446.2,447.8 493.5,447.0 540.7,425.5 588.0,423.2 635.3,419.9 682.5,418.9 729.8,415.7 777.1,415.0 824.4,271.4 871.6,271.2 918.9,271.3 966.2,267.2 1013.5,348.6 1060.7,330.2 1108.0,331.0 1108.0,464.9 1060.7,465.0 1013.5,470.2 966.2,406.2 918.9,409.7 871.6,410.4 824.4,410.5 777.1,443.6 729.8,444.4 682.5,447.0 635.3,447.4 588.0,451.4 540.7,452.8 493.5,451.8 446.2,452.6 398.9,442.8 351.6,443.5 304.4,443.5 257.1,445.2 209.8,444.6 162.5,447.5 115.3,447.1 68.0,468.1" fill="#6baed6" fill-opacity="0.9" stroke="#fff" stroke-width="0.4"><title>existential_aggregate — specializeModule</title></polygon>
<polygon points="68.0,432.2 115.3,411.5 162.5,412.0 209.8,406.9 257.1,407.1 304.4,405.1 351.6,404.8 398.9,404.2 446.2,414.3 493.5,413.4 540.7,381.3 588.0,378.9 635.3,375.9 682.5,374.8 729.8,369.6 777.1,368.7 824.4,208.0 871.6,207.7 918.9,208.3 966.2,203.9 1013.5,309.3 1060.7,289.4 1108.0,290.4 1108.0,331.0 1060.7,330.2 1013.5,348.6 966.2,267.2 918.9,271.3 871.6,271.2 824.4,271.4 777.1,415.0 729.8,415.7 682.5,418.9 635.3,419.9 588.0,423.2 540.7,425.5 493.5,447.0 446.2,447.8 398.9,437.9 351.6,438.6 304.4,438.7 257.1,440.6 209.8,439.9 162.5,442.9 115.3,442.5 68.0,463.4" fill="#2171b5" fill-opacity="0.9" stroke="#fff" stroke-width="0.4"><title>existential_aggregate — simplifyIR</title></polygon>
<polygon points="68.0,429.0 115.3,408.9 162.5,409.5 209.8,404.3 257.1,404.4 304.4,402.3 351.6,402.0 398.9,401.3 446.2,411.5 493.5,410.6 540.7,378.6 588.0,376.1 635.3,373.1 682.5,372.0 729.8,366.2 777.1,365.5 824.4,187.5 871.6,186.4 918.9,187.1 966.2,182.5 1013.5,306.5 1060.7,286.5 1108.0,287.6 1108.0,290.4 1060.7,289.4 1013.5,309.3 966.2,203.9 918.9,208.3 871.6,207.7 824.4,208.0 777.1,368.7 729.8,369.6 682.5,374.8 635.3,375.9 588.0,378.9 540.7,381.3 493.5,413.4 446.2,414.3 398.9,404.2 351.6,404.8 304.4,405.1 257.1,407.1 209.8,406.9 162.5,412.0 115.3,411.5 68.0,432.2" fill="#08306b" fill-opacity="0.9" stroke="#fff" stroke-width="0.4"><title>existential_aggregate — linkIR</title></polygon>
<polygon points="68.0,428.8 115.3,408.8 162.5,409.3 209.8,404.1 257.1,404.2 304.4,402.1 351.6,401.8 398.9,401.1 446.2,411.4 493.5,410.4 540.7,378.4 588.0,375.9 635.3,372.9 682.5,371.8 729.8,366.0 777.1,365.3 824.4,187.4 871.6,186.3 918.9,187.0 966.2,182.4 1013.5,306.4 1060.7,286.4 1108.0,287.5 1108.0,287.6 1060.7,286.5 1013.5,306.5 966.2,182.5 918.9,187.1 871.6,186.4 824.4,187.5 777.1,365.5 729.8,366.2 682.5,372.0 635.3,373.1 588.0,376.1 540.7,378.6 493.5,410.6 446.2,411.5 398.9,401.3 351.6,402.0 304.4,402.3 257.1,404.4 209.8,404.3 162.5,409.5 115.3,408.9 68.0,429.0" fill="#9e9ac8" fill-opacity="0.9" stroke="#fff" stroke-width="0.4"><title>existential_aggregate — unrollLoopsInModule</title></polygon>
<polygon points="68.0,424.1 115.3,404.0 162.5,404.6 209.8,399.4 257.1,401.0 304.4,398.9 351.6,398.7 398.9,398.0 446.2,408.2 493.5,407.2 540.7,375.7 588.0,373.2 635.3,370.2 682.5,369.1 729.8,363.2 777.1,362.5 824.4,184.6 871.6,183.5 918.9,184.3 966.2,179.6 1013.5,304.1 1060.7,283.9 1108.0,285.0 1108.0,287.5 1060.7,286.4 1013.5,306.4 966.2,182.4 918.9,187.0 871.6,186.3 824.4,187.4 777.1,365.3 729.8,366.0 682.5,371.8 635.3,372.9 588.0,375.9 540.7,378.4 493.5,410.4 446.2,411.4 398.9,401.1 351.6,401.8 304.4,402.1 257.1,404.2 209.8,404.1 162.5,409.3 115.3,408.8 68.0,428.8" fill="#807dba" fill-opacity="0.9" stroke="#fff" stroke-width="0.4"><title>existential_aggregate — legalizeResourceTypes</title></polygon>
<polygon points="68.0,418.3 115.3,398.2 162.5,398.7 209.8,393.5 257.1,396.8 304.4,394.7 351.6,394.5 398.9,393.8 446.2,404.0 493.5,403.1 540.7,371.1 588.0,368.6 635.3,365.6 682.5,364.6 729.8,358.6 777.1,357.8 824.4,180.3 871.6,179.1 918.9,180.0 966.2,175.3 1013.5,300.5 1060.7,280.1 1108.0,281.2 1108.0,285.0 1060.7,283.9 1013.5,304.1 966.2,179.6 918.9,184.3 871.6,183.5 824.4,184.6 777.1,362.5 729.8,363.2 682.5,369.1 635.3,370.2 588.0,373.2 540.7,375.7 493.5,407.2 446.2,408.2 398.9,398.0 351.6,398.7 304.4,398.9 257.1,401.0 209.8,399.4 162.5,404.6 115.3,404.0 68.0,424.1" fill="#6a51a3" fill-opacity="0.9" stroke="#fff" stroke-width="0.4"><title>existential_aggregate — legalizeExistentialTypeLayout</title></polygon>
<polygon points="68.0,417.9 115.3,397.7 162.5,398.2 209.8,393.0 257.1,396.3 304.4,394.2 351.6,394.1 398.9,393.3 446.2,403.5 493.5,402.6 540.7,370.7 588.0,368.1 635.3,365.1 682.5,364.1 729.8,358.1 777.1,357.3 824.4,179.8 871.6,178.7 918.9,179.5 966.2,174.9 1013.5,300.1 1060.7,279.7 1108.0,280.8 1108.0,281.2 1060.7,280.1 1013.5,300.5 966.2,175.3 918.9,180.0 871.6,179.1 824.4,180.3 777.1,357.8 729.8,358.6 682.5,364.6 635.3,365.6 588.0,368.6 540.7,371.1 493.5,403.1 446.2,404.0 398.9,393.8 351.6,394.5 304.4,394.7 257.1,396.8 209.8,393.5 162.5,398.7 115.3,398.2 68.0,418.3" fill="#bcbddc" fill-opacity="0.9" stroke="#fff" stroke-width="0.4"><title>existential_aggregate — performMandatoryEarlyInlining</title></polygon>
<polygon points="68.0,417.3 115.3,397.2 162.5,397.7 209.8,392.5 257.1,395.8 304.4,393.7 351.6,393.5 398.9,392.8 446.2,403.0 493.5,402.1 540.7,370.2 588.0,367.6 635.3,364.6 682.5,363.6 729.8,357.5 777.1,356.8 824.4,179.3 871.6,178.1 918.9,179.0 966.2,174.3 1013.5,299.5 1060.7,279.1 1108.0,280.2 1108.0,280.8 1060.7,279.7 1013.5,300.1 966.2,174.9 918.9,179.5 871.6,178.7 824.4,179.8 777.1,357.3 729.8,358.1 682.5,364.1 635.3,365.1 588.0,368.1 540.7,370.7 493.5,402.6 446.2,403.5 398.9,393.3 351.6,394.1 304.4,394.2 257.1,396.3 209.8,393.0 162.5,398.2 115.3,397.7 68.0,417.9" fill="#dadaeb" fill-opacity="0.9" stroke="#fff" stroke-width="0.4"><title>existential_aggregate — performForceInlining</title></polygon>
<polygon points="68.0,395.0 115.3,374.7 162.5,375.3 209.8,368.8 257.1,371.9 304.4,369.4 351.6,368.9 398.9,368.1 446.2,378.3 493.5,377.7 540.7,349.2 588.0,346.0 635.3,343.2 682.5,342.5 729.8,334.8 777.1,333.9 824.4,143.3 871.6,141.5 918.9,141.8 966.2,137.5 1013.5,275.6 1060.7,253.2 1108.0,253.9 1108.0,280.2 1060.7,279.1 1013.5,299.5 966.2,174.3 918.9,179.0 871.6,178.1 824.4,179.3 777.1,356.8 729.8,357.5 682.5,363.6 635.3,364.6 588.0,367.6 540.7,370.2 493.5,402.1 446.2,403.0 398.9,392.8 351.6,393.5 304.4,393.7 257.1,395.8 209.8,392.5 162.5,397.7 115.3,397.2 68.0,417.3" fill="#4a1486" fill-opacity="0.9" stroke="#fff" stroke-width="0.4"><title>existential_aggregate — linkAndOptimizeIR (self)</title></polygon>
<polygon points="68.0,324.5 115.3,304.2 162.5,304.8 209.8,313.6 257.1,318.6 304.4,315.6 351.6,316.9 398.9,316.2 446.2,326.3 493.5,325.4 540.7,321.2 588.0,318.0 635.3,315.1 682.5,314.6 729.8,305.4 777.1,304.9 824.4,114.3 871.6,111.6 918.9,112.8 966.2,108.6 1013.5,247.5 1060.7,224.6 1108.0,224.7 1108.0,253.9 1060.7,253.2 1013.5,275.6 966.2,137.5 918.9,141.8 871.6,141.5 824.4,143.3 777.1,333.9 729.8,334.8 682.5,342.5 635.3,343.2 588.0,346.0 540.7,349.2 493.5,377.7 446.2,378.3 398.9,368.1 351.6,368.9 304.4,369.4 257.1,371.9 209.8,368.8 162.5,375.3 115.3,374.7 68.0,395.0" fill="#e6550d" fill-opacity="0.9" stroke="#fff" stroke-width="0.4"><title>existential_aggregate — generateOutput (self)</title></polygon>
<polygon points="68.0,323.8 115.3,303.7 162.5,304.5 209.8,313.3 257.1,317.7 304.4,315.4 351.6,316.6 398.9,315.9 446.2,325.7 493.5,325.0 540.7,320.7 588.0,317.9 635.3,314.6 682.5,313.6 729.8,305.2 777.1,304.0 824.4,112.9 871.6,109.8 918.9,112.8 966.2,108.6 1013.5,247.5 1060.7,224.2 1108.0,224.7 1108.0,224.7 1060.7,224.6 1013.5,247.5 966.2,108.6 918.9,112.8 871.6,111.6 824.4,114.3 777.1,304.9 729.8,305.4 682.5,314.6 635.3,315.1 588.0,318.0 540.7,321.2 493.5,325.4 446.2,326.3 398.9,316.2 351.6,316.9 304.4,315.6 257.1,318.6 209.8,313.6 162.5,304.8 115.3,304.2 68.0,324.5" fill="#969696" fill-opacity="0.9" stroke="#fff" stroke-width="0.4"><title>existential_aggregate — compileInner (self)</title></polygon>
<text x="12" y="578" fill="#666" font-weight="600">phase buckets</text>
<rect x="12" y="586" width="12" height="12" fill="#c7e9c0"/>
<text x="28" y="596" fill="#222">parseTranslationUnit</text>
<rect x="289" y="586" width="12" height="12" fill="#41ab5d"/>
<text x="305" y="596" fill="#222">SemanticChecking</text>
<rect x="566" y="586" width="12" height="12" fill="#006d2c"/>
<text x="582" y="596" fill="#222">generateIR</text>
<rect x="843" y="586" width="12" height="12" fill="#74c476"/>
<text x="859" y="596" fill="#222">frontEndExecute (self)</text>
<rect x="12" y="604" width="12" height="12" fill="#6baed6"/>
<text x="28" y="614" fill="#222">specializeModule</text>
<rect x="289" y="604" width="12" height="12" fill="#2171b5"/>
<text x="305" y="614" fill="#222">simplifyIR</text>
<rect x="566" y="604" width="12" height="12" fill="#08306b"/>
<text x="582" y="614" fill="#222">linkIR</text>
<rect x="843" y="604" width="12" height="12" fill="#9e9ac8"/>
<text x="859" y="614" fill="#222">unrollLoopsInModule</text>
<rect x="12" y="622" width="12" height="12" fill="#807dba"/>
<text x="28" y="632" fill="#222">legalizeResourceTypes</text>
<rect x="289" y="622" width="12" height="12" fill="#6a51a3"/>
<text x="305" y="632" fill="#222">legalizeExistentialTypeLayout</text>
<rect x="566" y="622" width="12" height="12" fill="#bcbddc"/>
<text x="582" y="632" fill="#222">performMandatoryEarlyInlining</text>
<rect x="843" y="622" width="12" height="12" fill="#dadaeb"/>
<text x="859" y="632" fill="#222">performForceInlining</text>
<rect x="12" y="640" width="12" height="12" fill="#4a1486"/>
<text x="28" y="650" fill="#222">linkAndOptimizeIR (self)</text>
<rect x="289" y="640" width="12" height="12" fill="#fd8d3c"/>
<text x="305" y="650" fill="#222">emitEntryPointsSourceFromIR</text>
<rect x="566" y="640" width="12" height="12" fill="#e6550d"/>
<text x="582" y="650" fill="#222">generateOutput (self)</text>
<rect x="843" y="640" width="12" height="12" fill="#969696"/>
<text x="859" y="650" fill="#222">compileInner (self)</text>
</svg>