<svg xmlns="http://www.w3.org/2000/svg" xmlns:xlink="http://www.w3.org/1999/xlink" width="1132" height="680" viewBox="0 0 1132 680" preserveAspectRatio="xMidYMid meet" font-family="sans-serif" font-size="13">
<rect width="1132" height="680" fill="white"/>
<text x="12" y="30" font-size="20" font-weight="bold">existential_aggregate — Daily tip-of-tree (last 30 days) (median ms)</text>
<text x="68" y="60" font-size="15" font-weight="600" fill="#1a1a1a">existential_aggregate<tspan fill="#888" font-weight="400" text-decoration="none">  0.54×</tspan></text>
<line x1="68.0" y1="516.0" x2="1108.0" y2="516.0" stroke="#eee"/>
<text x="64.0" y="519.0" text-anchor="end" fill="#999">0.0</text>
<line x1="68.0" y1="296.0" x2="1108.0" y2="296.0" stroke="#eee"/>
<text x="64.0" y="299.0" text-anchor="end" fill="#999">82</text>
<line x1="68.0" y1="76.0" x2="1108.0" y2="76.0" stroke="#eee"/>
<text x="64.0" y="79.0" text-anchor="end" fill="#999">164</text>
<line x1="68.0" y1="76.0" x2="68.0" y2="516.0" stroke="#333"/>
<line x1="68.0" y1="516.0" x2="1108.0" y2="516.0" stroke="#333"/>
<line x1="68.0" y1="516.0" x2="68.0" y2="519.0" stroke="#999"/>
<text x="68.0" y="531.0" text-anchor="end" fill="#e8731a" transform="rotate(-50 68.0 531.0)">06-25</text>
<line x1="122.7" y1="516.0" x2="122.7" y2="519.0" stroke="#999"/>
<text x="122.7" y="531.0" text-anchor="end" fill="#e8731a" transform="rotate(-50 122.7 531.0)">06-26</text>
<line x1="177.5" y1="516.0" x2="177.5" y2="519.0" stroke="#999"/>
<text x="177.5" y="531.0" text-anchor="end" fill="#e8731a" transform="rotate(-50 177.5 531.0)">06-28</text>
<line x1="232.2" y1="516.0" x2="232.2" y2="519.0" stroke="#999"/>
<text x="232.2" y="531.0" text-anchor="end" fill="#e8731a" transform="rotate(-50 232.2 531.0)">07-01</text>
<line x1="286.9" y1="516.0" x2="286.9" y2="519.0" stroke="#999"/>
<text x="286.9" y="531.0" text-anchor="end" fill="#e8731a" transform="rotate(-50 286.9 531.0)">07-02</text>
<line x1="341.7" y1="516.0" x2="341.7" y2="519.0" stroke="#999"/>
<text x="341.7" y="531.0" text-anchor="end" fill="#e8731a" transform="rotate(-50 341.7 531.0)">07-03</text>
<line x1="396.4" y1="516.0" x2="396.4" y2="519.0" stroke="#999"/>
<text x="396.4" y="531.0" text-anchor="end" fill="#e8731a" transform="rotate(-50 396.4 531.0)">07-06</text>
<line x1="451.2" y1="516.0" x2="451.2" y2="519.0" stroke="#999"/>
<text x="451.2" y="531.0" text-anchor="end" fill="#e8731a" transform="rotate(-50 451.2 531.0)">07-07</text>
<line x1="505.9" y1="516.0" x2="505.9" y2="519.0" stroke="#999"/>
<text x="505.9" y="531.0" text-anchor="end" fill="#e8731a" transform="rotate(-50 505.9 531.0)">07-08</text>
<line x1="560.6" y1="516.0" x2="560.6" y2="519.0" stroke="#999"/>
<text x="560.6" y="531.0" text-anchor="end" fill="#e8731a" transform="rotate(-50 560.6 531.0)">07-09</text>
<line x1="615.4" y1="516.0" x2="615.4" y2="519.0" stroke="#999"/>
<text x="615.4" y="531.0" text-anchor="end" fill="#e8731a" transform="rotate(-50 615.4 531.0)">07-10</text>
<line x1="670.1" y1="516.0" x2="670.1" y2="519.0" stroke="#999"/>
<text x="670.1" y="531.0" text-anchor="end" fill="#e8731a" transform="rotate(-50 670.1 531.0)">07-11</text>
<line x1="724.8" y1="516.0" x2="724.8" y2="519.0" stroke="#999"/>
<text x="724.8" y="531.0" text-anchor="end" fill="#e8731a" transform="rotate(-50 724.8 531.0)">07-14</text>
<line x1="779.6" y1="516.0" x2="779.6" y2="519.0" stroke="#999"/>
<text x="779.6" y="531.0" text-anchor="end" fill="#e8731a" transform="rotate(-50 779.6 531.0)">07-15</text>
<line x1="834.3" y1="516.0" x2="834.3" y2="519.0" stroke="#999"/>
<text x="834.3" y="531.0" text-anchor="end" fill="#e8731a" transform="rotate(-50 834.3 531.0)">07-15</text>
<line x1="889.1" y1="516.0" x2="889.1" y2="519.0" stroke="#999"/>
<text x="889.1" y="531.0" text-anchor="end" fill="#e8731a" transform="rotate(-50 889.1 531.0)">07-16</text>
<line x1="943.8" y1="516.0" x2="943.8" y2="519.0" stroke="#999"/>
<text x="943.8" y="531.0" text-anchor="end" fill="#e8731a" transform="rotate(-50 943.8 531.0)">07-17</text>
<line x1="998.5" y1="516.0" x2="998.5" y2="519.0" stroke="#999"/>
<text x="998.5" y="531.0" text-anchor="end" fill="#e8731a" transform="rotate(-50 998.5 531.0)">07-18</text>
<line x1="1053.3" y1="516.0" x2="1053.3" y2="519.0" stroke="#999"/>
<text x="1053.3" y="531.0" text-anchor="end" fill="#e8731a" transform="rotate(-50 1053.3 531.0)">07-19</text>
<line x1="1108.0" y1="516.0" x2="1108.0" y2="519.0" stroke="#999"/>
<text x="1108.0" y="531.0" text-anchor="end" fill="#e8731a" transform="rotate(-50 1108.0 531.0)">07-20</text>
<polygon points="68.0,513.5 122.7,513.5 177.5,513.5 232.2,513.5 286.9,513.5 341.7,513.5 396.4,513.4 451.2,513.7 505.9,513.6 560.6,513.6 615.4,513.5 670.1,513.6 724.8,513.7 779.6,513.7 834.3,513.8 889.1,513.6 943.8,513.7 998.5,513.9 1053.3,513.9 1108.0,513.9 1108.0,516.0 1053.3,516.0 998.5,516.0 943.8,516.0 889.1,516.0 834.3,516.0 779.6,516.0 724.8,516.0 670.1,516.0 615.4,516.0 560.6,516.0 505.9,516.0 451.2,516.0 396.4,516.0 341.7,516.0 286.9,516.0 232.2,516.0 177.5,516.0 122.7,516.0 68.0,516.0" fill="#c7e9c0" fill-opacity="0.9" stroke="#fff" stroke-width="0.4"><title>existential_aggregate — parseTranslationUnit</title></polygon>
<polygon points="68.0,466.0 122.7,466.7 177.5,464.7 232.2,465.6 286.9,465.2 341.7,465.8 396.4,465.3 451.2,468.7 505.9,468.7 560.6,467.7 615.4,467.8 670.1,468.1 724.8,468.7 779.6,471.5 834.3,472.0 889.1,466.4 943.8,467.0 998.5,476.3 1053.3,475.9 1108.0,477.2 1108.0,513.9 1053.3,513.9 998.5,513.9 943.8,513.7 889.1,513.6 834.3,513.8 779.6,513.7 724.8,513.7 670.1,513.6 615.4,513.5 560.6,513.6 505.9,513.6 451.2,513.7 396.4,513.4 341.7,513.5 286.9,513.5 232.2,513.5 177.5,513.5 122.7,513.5 68.0,513.5" fill="#41ab5d" fill-opacity="0.9" stroke="#fff" stroke-width="0.4"><title>existential_aggregate — SemanticChecking</title></polygon>
<polygon points="68.0,443.6 122.7,444.7 177.5,442.5 232.2,443.4 286.9,442.2 341.7,443.2 396.4,442.5 451.2,446.0 505.9,445.8 560.6,444.8 615.4,445.4 670.1,445.9 724.8,446.4 779.6,450.1 834.3,450.7 889.1,445.2 943.8,445.9 998.5,459.2 1053.3,458.3 1108.0,459.6 1108.0,477.2 1053.3,475.9 998.5,476.3 943.8,467.0 889.1,466.4 834.3,472.0 779.6,471.5 724.8,468.7 670.1,468.1 615.4,467.8 560.6,467.7 505.9,468.7 451.2,468.7 396.4,465.3 341.7,465.8 286.9,465.2 232.2,465.6 177.5,464.7 122.7,466.7 68.0,466.0" fill="#006d2c" fill-opacity="0.9" stroke="#fff" stroke-width="0.4"><title>existential_aggregate — generateIR</title></polygon>
<polygon points="68.0,442.6 122.7,443.3 177.5,441.4 232.2,442.7 286.9,441.4 341.7,442.2 396.4,440.6 451.2,445.1 505.9,444.3 560.6,443.8 615.4,444.4 670.1,444.8 724.8,445.5 779.6,449.1 834.3,449.8 889.1,444.5 943.8,444.8 998.5,458.1 1053.3,457.7 1108.0,458.0 1108.0,459.6 1053.3,458.3 998.5,459.2 943.8,445.9 889.1,445.2 834.3,450.7 779.6,450.1 724.8,446.4 670.1,445.9 615.4,445.4 560.6,444.8 505.9,445.8 451.2,446.0 396.4,442.5 341.7,443.2 286.9,442.2 232.2,443.4 177.5,442.5 122.7,444.7 68.0,443.6" fill="#74c476" fill-opacity="0.9" stroke="#fff" stroke-width="0.4"><title>existential_aggregate — frontEndExecute (self)</title></polygon>
<polygon points="68.0,260.2 122.7,262.0 177.5,258.6 232.2,263.8 286.9,259.3 341.7,259.9 396.4,260.2 451.2,381.2 505.9,380.9 560.6,379.3 615.4,381.7 670.1,382.2 724.8,382.0 779.6,392.2 834.3,393.0 889.1,386.6 943.8,387.0 998.5,396.9 1053.3,399.8 1108.0,399.5 1108.0,458.0 1053.3,457.7 998.5,458.1 943.8,444.8 889.1,444.5 834.3,449.8 779.6,449.1 724.8,445.5 670.1,444.8 615.4,444.4 560.6,443.8 505.9,444.3 451.2,445.1 396.4,440.6 341.7,442.2 286.9,441.4 232.2,442.7 177.5,441.4 122.7,443.3 68.0,442.6" fill="#6baed6" fill-opacity="0.9" stroke="#fff" stroke-width="0.4"><title>existential_aggregate — specializeModule</title></polygon>
<polygon points="68.0,203.1 122.7,204.6 177.5,202.1 232.2,207.2 286.9,219.2 341.7,219.8 396.4,220.3 451.2,341.0 505.9,341.8 560.6,339.7 615.4,344.7 670.1,344.9 724.8,345.7 779.6,360.2 834.3,361.0 889.1,354.6 943.8,355.2 998.5,368.9 1053.3,371.3 1108.0,371.4 1108.0,399.5 1053.3,399.8 998.5,396.9 943.8,387.0 889.1,386.6 834.3,393.0 779.6,392.2 724.8,382.0 670.1,382.2 615.4,381.7 560.6,379.3 505.9,380.9 451.2,381.2 396.4,260.2 341.7,259.9 286.9,259.3 232.2,263.8 177.5,258.6 122.7,262.0 68.0,260.2" fill="#2171b5" fill-opacity="0.9" stroke="#fff" stroke-width="0.4"><title>existential_aggregate — simplifyIR</title></polygon>
<polygon points="68.0,198.8 122.7,200.4 177.5,197.6 232.2,202.9 286.9,215.0 341.7,215.6 396.4,216.0 451.2,337.4 505.9,338.2 560.6,336.1 615.4,341.1 670.1,341.2 724.8,341.9 779.6,357.0 834.3,357.9 889.1,351.4 943.8,352.1 998.5,366.1 1053.3,368.4 1108.0,368.6 1108.0,371.4 1053.3,371.3 998.5,368.9 943.8,355.2 889.1,354.6 834.3,361.0 779.6,360.2 724.8,345.7 670.1,344.9 615.4,344.7 560.6,339.7 505.9,341.8 451.2,341.0 396.4,220.3 341.7,219.8 286.9,219.2 232.2,207.2 177.5,202.1 122.7,204.6 68.0,203.1" fill="#08306b" fill-opacity="0.9" stroke="#fff" stroke-width="0.4"><title>existential_aggregate — linkIR</title></polygon>
<polygon points="68.0,198.7 122.7,200.3 177.5,197.5 232.2,202.7 286.9,214.9 341.7,215.5 396.4,215.9 451.2,336.8 505.9,337.5 560.6,335.5 615.4,340.4 670.1,340.6 724.8,341.3 779.6,356.5 834.3,357.4 889.1,350.9 943.8,351.6 998.5,365.6 1053.3,367.9 1108.0,368.2 1108.0,368.6 1053.3,368.4 998.5,366.1 943.8,352.1 889.1,351.4 834.3,357.9 779.6,357.0 724.8,341.9 670.1,341.2 615.4,341.1 560.6,336.1 505.9,338.2 451.2,337.4 396.4,216.0 341.7,215.6 286.9,215.0 232.2,202.9 177.5,197.6 122.7,200.4 68.0,198.8" fill="#9e9ac8" fill-opacity="0.9" stroke="#fff" stroke-width="0.4"><title>existential_aggregate — unrollLoopsInModule</title></polygon>
<polygon points="68.0,195.3 122.7,196.9 177.5,194.0 232.2,199.3 286.9,211.5 341.7,212.1 396.4,212.5 451.2,333.5 505.9,334.2 560.6,332.2 615.4,337.8 670.1,337.9 724.8,338.6 779.6,353.8 834.3,354.5 889.1,348.1 943.8,348.8 998.5,362.9 1053.3,365.1 1108.0,365.5 1108.0,368.2 1053.3,367.9 998.5,365.6 943.8,351.6 889.1,350.9 834.3,357.4 779.6,356.5 724.8,341.3 670.1,340.6 615.4,340.4 560.6,335.5 505.9,337.5 451.2,336.8 396.4,215.9 341.7,215.5 286.9,214.9 232.2,202.7 177.5,197.5 122.7,200.3 68.0,198.7" fill="#807dba" fill-opacity="0.9" stroke="#fff" stroke-width="0.4"><title>existential_aggregate — legalizeResourceTypes</title></polygon>
<polygon points="68.0,190.2 122.7,191.6 177.5,188.7 232.2,194.0 286.9,206.5 341.7,207.0 396.4,207.5 451.2,328.4 505.9,329.1 560.6,327.0 615.4,333.5 670.1,333.4 724.8,334.2 779.6,349.7 834.3,350.4 889.1,344.0 943.8,344.6 998.5,358.8 1053.3,360.9 1108.0,361.4 1108.0,365.5 1053.3,365.1 998.5,362.9 943.8,348.8 889.1,348.1 834.3,354.5 779.6,353.8 724.8,338.6 670.1,337.9 615.4,337.8 560.6,332.2 505.9,334.2 451.2,333.5 396.4,212.5 341.7,212.1 286.9,211.5 232.2,199.3 177.5,194.0 122.7,196.9 68.0,195.3" fill="#6a51a3" fill-opacity="0.9" stroke="#fff" stroke-width="0.4"><title>existential_aggregate — legalizeExistentialTypeLayout</title></polygon>
<polygon points="68.0,189.5 122.7,191.0 177.5,188.1 232.2,193.4 286.9,205.9 341.7,206.3 396.4,206.8 451.2,327.1 505.9,327.9 560.6,325.8 615.4,332.3 670.1,332.2 724.8,333.0 779.6,348.5 834.3,349.2 889.1,342.8 943.8,343.3 998.5,357.8 1053.3,359.8 1108.0,360.4 1108.0,361.4 1053.3,360.9 998.5,358.8 943.8,344.6 889.1,344.0 834.3,350.4 779.6,349.7 724.8,334.2 670.1,333.4 615.4,333.5 560.6,327.0 505.9,329.1 451.2,328.4 396.4,207.5 341.7,207.0 286.9,206.5 232.2,194.0 177.5,188.7 122.7,191.6 68.0,190.2" fill="#bcbddc" fill-opacity="0.9" stroke="#fff" stroke-width="0.4"><title>existential_aggregate — performMandatoryEarlyInlining</title></polygon>
<polygon points="68.0,188.8 122.7,190.2 177.5,187.4 232.2,192.6 286.9,205.2 341.7,205.5 396.4,206.1 451.2,326.4 505.9,327.2 560.6,325.1 615.4,331.5 670.1,331.4 724.8,332.3 779.6,347.7 834.3,348.4 889.1,342.0 943.8,342.5 998.5,357.2 1053.3,359.2 1108.0,359.9 1108.0,360.4 1053.3,359.8 998.5,357.8 943.8,343.3 889.1,342.8 834.3,349.2 779.6,348.5 724.8,333.0 670.1,332.2 615.4,332.3 560.6,325.8 505.9,327.9 451.2,327.1 396.4,206.8 341.7,206.3 286.9,205.9 232.2,193.4 177.5,188.1 122.7,191.0 68.0,189.5" fill="#dadaeb" fill-opacity="0.9" stroke="#fff" stroke-width="0.4"><title>existential_aggregate — performForceInlining</title></polygon>
<polygon points="68.0,152.0 122.7,153.5 177.5,150.1 232.2,154.6 286.9,166.8 341.7,166.5 396.4,165.6 451.2,290.3 505.9,292.2 560.6,289.8 615.4,297.2 670.1,296.6 724.8,297.9 779.6,319.6 834.3,319.2 889.1,314.2 943.8,313.7 998.5,331.8 1053.3,332.9 1108.0,334.2 1108.0,359.9 1053.3,359.2 998.5,357.2 943.8,342.5 889.1,342.0 834.3,348.4 779.6,347.7 724.8,332.3 670.1,331.4 615.4,331.5 560.6,325.1 505.9,327.2 451.2,326.4 396.4,206.1 341.7,205.5 286.9,205.2 232.2,192.6 177.5,187.4 122.7,190.2 68.0,188.8" fill="#4a1486" fill-opacity="0.9" stroke="#fff" stroke-width="0.4"><title>existential_aggregate — linkAndOptimizeIR (self)</title></polygon>
<polygon points="68.0,109.7 122.7,112.3 177.5,108.6 232.2,113.7 286.9,126.2 341.7,126.3 396.4,124.9 451.2,249.7 505.9,252.0 560.6,249.0 615.4,256.2 670.1,255.8 724.8,258.7 779.6,280.4 834.3,280.9 889.1,276.6 943.8,275.4 998.5,294.3 1053.3,296.2 1108.0,296.5 1108.0,334.2 1053.3,332.9 998.5,331.8 943.8,313.7 889.1,314.2 834.3,319.2 779.6,319.6 724.8,297.9 670.1,296.6 615.4,297.2 560.6,289.8 505.9,292.2 451.2,290.3 396.4,165.6 341.7,166.5 286.9,166.8 232.2,154.6 177.5,150.1 122.7,153.5 68.0,152.0" fill="#e6550d" fill-opacity="0.9" stroke="#fff" stroke-width="0.4"><title>existential_aggregate — generateOutput (self)</title></polygon>
<polygon points="68.0,109.7 122.7,112.3 177.5,108.6 232.2,113.7 286.9,126.2 341.7,125.5 396.4,124.4 451.2,249.2 505.9,251.5 560.6,248.5 615.4,254.6 670.1,255.6 724.8,258.4 779.6,280.1 834.3,280.9 889.1,276.0 943.8,275.2 998.5,292.1 1053.3,295.4 1108.0,296.0 1108.0,296.5 1053.3,296.2 998.5,294.3 943.8,275.4 889.1,276.6 834.3,280.9 779.6,280.4 724.8,258.7 670.1,255.8 615.4,256.2 560.6,249.0 505.9,252.0 451.2,249.7 396.4,124.9 341.7,126.3 286.9,126.2 232.2,113.7 177.5,108.6 122.7,112.3 68.0,109.7" fill="#969696" fill-opacity="0.9" stroke="#fff" stroke-width="0.4"><title>existential_aggregate — compileInner (self)</title></polygon>
<text x="12" y="578" fill="#666" font-weight="600">phase buckets</text>
<rect x="12" y="586" width="12" height="12" fill="#c7e9c0"/>
<text x="28" y="596" fill="#222">parseTranslationUnit</text>
<rect x="289" y="586" width="12" height="12" fill="#41ab5d"/>
<text x="305" y="596" fill="#222">SemanticChecking</text>
<rect x="566" y="586" width="12" height="12" fill="#006d2c"/>
<text x="582" y="596" fill="#222">generateIR</text>
<rect x="843" y="586" width="12" height="12" fill="#74c476"/>
<text x="859" y="596" fill="#222">frontEndExecute (self)</text>
<rect x="12" y="604" width="12" height="12" fill="#6baed6"/>
<text x="28" y="614" fill="#222">specializeModule</text>
<rect x="289" y="604" width="12" height="12" fill="#2171b5"/>
<text x="305" y="614" fill="#222">simplifyIR</text>
<rect x="566" y="604" width="12" height="12" fill="#08306b"/>
<text x="582" y="614" fill="#222">linkIR</text>
<rect x="843" y="604" width="12" height="12" fill="#9e9ac8"/>
<text x="859" y="614" fill="#222">unrollLoopsInModule</text>
<rect x="12" y="622" width="12" height="12" fill="#807dba"/>
<text x="28" y="632" fill="#222">legalizeResourceTypes</text>
<rect x="289" y="622" width="12" height="12" fill="#6a51a3"/>
<text x="305" y="632" fill="#222">legalizeExistentialTypeLayout</text>
<rect x="566" y="622" width="12" height="12" fill="#bcbddc"/>
<text x="582" y="632" fill="#222">performMandatoryEarlyInlining</text>
<rect x="843" y="622" width="12" height="12" fill="#dadaeb"/>
<text x="859" y="632" fill="#222">performForceInlining</text>
<rect x="12" y="640" width="12" height="12" fill="#4a1486"/>
<text x="28" y="650" fill="#222">linkAndOptimizeIR (self)</text>
<rect x="289" y="640" width="12" height="12" fill="#fd8d3c"/>
<text x="305" y="650" fill="#222">emitEntryPointsSourceFromIR</text>
<rect x="566" y="640" width="12" height="12" fill="#e6550d"/>
<text x="582" y="650" fill="#222">generateOutput (self)</text>
<rect x="843" y="640" width="12" height="12" fill="#969696"/>
<text x="859" y="650" fill="#222">compileInner (self)</text>
</svg>