<svg xmlns="http://www.w3.org/2000/svg" xmlns:xlink="http://www.w3.org/1999/xlink" width="1132" height="680" viewBox="0 0 1132 680" preserveAspectRatio="xMidYMid meet" font-family="sans-serif" font-size="13">
<rect width="1132" height="680" fill="white"/>
<text x="12" y="30" font-size="20" font-weight="bold">existential_aggregate — Daily tip-of-tree (last 30 days) (median ms)</text>
<text x="68" y="60" font-size="15" font-weight="600" fill="#1a1a1a">existential_aggregate<tspan fill="#888" font-weight="400" text-decoration="none">  0.54×</tspan></text>
<line x1="68.0" y1="516.0" x2="1108.0" y2="516.0" stroke="#eee"/>
<text x="64.0" y="519.0" text-anchor="end" fill="#999">0.0</text>
<line x1="68.0" y1="296.0" x2="1108.0" y2="296.0" stroke="#eee"/>
<text x="64.0" y="299.0" text-anchor="end" fill="#999">82</text>
<line x1="68.0" y1="76.0" x2="1108.0" y2="76.0" stroke="#eee"/>
<text x="64.0" y="79.0" text-anchor="end" fill="#999">164</text>
<line x1="68.0" y1="76.0" x2="68.0" y2="516.0" stroke="#333"/>
<line x1="68.0" y1="516.0" x2="1108.0" y2="516.0" stroke="#333"/>
<line x1="68.0" y1="516.0" x2="68.0" y2="519.0" stroke="#999"/>
<text x="68.0" y="531.0" text-anchor="end" fill="#e8731a" transform="rotate(-50 68.0 531.0)">06-25</text>
<line x1="125.8" y1="516.0" x2="125.8" y2="519.0" stroke="#999"/>
<text x="125.8" y="531.0" text-anchor="end" fill="#e8731a" transform="rotate(-50 125.8 531.0)">06-26</text>
<line x1="183.6" y1="516.0" x2="183.6" y2="519.0" stroke="#999"/>
<text x="183.6" y="531.0" text-anchor="end" fill="#e8731a" transform="rotate(-50 183.6 531.0)">06-28</text>
<line x1="241.3" y1="516.0" x2="241.3" y2="519.0" stroke="#999"/>
<text x="241.3" y="531.0" text-anchor="end" fill="#e8731a" transform="rotate(-50 241.3 531.0)">07-01</text>
<line x1="299.1" y1="516.0" x2="299.1" y2="519.0" stroke="#999"/>
<text x="299.1" y="531.0" text-anchor="end" fill="#e8731a" transform="rotate(-50 299.1 531.0)">07-02</text>
<line x1="356.9" y1="516.0" x2="356.9" y2="519.0" stroke="#999"/>
<text x="356.9" y="531.0" text-anchor="end" fill="#e8731a" transform="rotate(-50 356.9 531.0)">07-03</text>
<line x1="414.7" y1="516.0" x2="414.7" y2="519.0" stroke="#999"/>
<text x="414.7" y="531.0" text-anchor="end" fill="#e8731a" transform="rotate(-50 414.7 531.0)">07-06</text>
<line x1="472.4" y1="516.0" x2="472.4" y2="519.0" stroke="#999"/>
<text x="472.4" y="531.0" text-anchor="end" fill="#e8731a" transform="rotate(-50 472.4 531.0)">07-07</text>
<line x1="530.2" y1="516.0" x2="530.2" y2="519.0" stroke="#999"/>
<text x="530.2" y="531.0" text-anchor="end" fill="#e8731a" transform="rotate(-50 530.2 531.0)">07-08</text>
<line x1="588.0" y1="516.0" x2="588.0" y2="519.0" stroke="#999"/>
<text x="588.0" y="531.0" text-anchor="end" fill="#e8731a" transform="rotate(-50 588.0 531.0)">07-09</text>
<line x1="645.8" y1="516.0" x2="645.8" y2="519.0" stroke="#999"/>
<text x="645.8" y="531.0" text-anchor="end" fill="#e8731a" transform="rotate(-50 645.8 531.0)">07-10</text>
<line x1="703.6" y1="516.0" x2="703.6" y2="519.0" stroke="#999"/>
<text x="703.6" y="531.0" text-anchor="end" fill="#e8731a" transform="rotate(-50 703.6 531.0)">07-11</text>
<line x1="761.3" y1="516.0" x2="761.3" y2="519.0" stroke="#999"/>
<text x="761.3" y="531.0" text-anchor="end" fill="#e8731a" transform="rotate(-50 761.3 531.0)">07-14</text>
<line x1="819.1" y1="516.0" x2="819.1" y2="519.0" stroke="#999"/>
<text x="819.1" y="531.0" text-anchor="end" fill="#e8731a" transform="rotate(-50 819.1 531.0)">07-15</text>
<line x1="876.9" y1="516.0" x2="876.9" y2="519.0" stroke="#999"/>
<text x="876.9" y="531.0" text-anchor="end" fill="#e8731a" transform="rotate(-50 876.9 531.0)">07-15</text>
<line x1="934.7" y1="516.0" x2="934.7" y2="519.0" stroke="#999"/>
<text x="934.7" y="531.0" text-anchor="end" fill="#e8731a" transform="rotate(-50 934.7 531.0)">07-16</text>
<line x1="992.4" y1="516.0" x2="992.4" y2="519.0" stroke="#999"/>
<text x="992.4" y="531.0" text-anchor="end" fill="#e8731a" transform="rotate(-50 992.4 531.0)">07-17</text>
<line x1="1050.2" y1="516.0" x2="1050.2" y2="519.0" stroke="#999"/>
<text x="1050.2" y="531.0" text-anchor="end" fill="#e8731a" transform="rotate(-50 1050.2 531.0)">07-18</text>
<line x1="1108.0" y1="516.0" x2="1108.0" y2="519.0" stroke="#999"/>
<text x="1108.0" y="531.0" text-anchor="end" fill="#e8731a" transform="rotate(-50 1108.0 531.0)">07-19</text>
<polygon points="68.0,513.5 125.8,513.5 183.6,513.5 241.3,513.5 299.1,513.5 356.9,513.5 414.7,513.4 472.4,513.7 530.2,513.6 588.0,513.6 645.8,513.5 703.6,513.6 761.3,513.7 819.1,513.7 876.9,513.8 934.7,513.6 992.4,513.7 1050.2,513.9 1108.0,513.9 1108.0,516.0 1050.2,516.0 992.4,516.0 934.7,516.0 876.9,516.0 819.1,516.0 761.3,516.0 703.6,516.0 645.8,516.0 588.0,516.0 530.2,516.0 472.4,516.0 414.7,516.0 356.9,516.0 299.1,516.0 241.3,516.0 183.6,516.0 125.8,516.0 68.0,516.0" fill="#c7e9c0" fill-opacity="0.9" stroke="#fff" stroke-width="0.4"><title>existential_aggregate — parseTranslationUnit</title></polygon>
<polygon points="68.0,466.0 125.8,466.7 183.6,464.7 241.3,465.6 299.1,465.2 356.9,465.8 414.7,465.3 472.4,468.7 530.2,468.7 588.0,467.7 645.8,467.8 703.6,468.1 761.3,468.7 819.1,471.5 876.9,472.0 934.7,466.4 992.4,467.0 1050.2,476.3 1108.0,475.9 1108.0,513.9 1050.2,513.9 992.4,513.7 934.7,513.6 876.9,513.8 819.1,513.7 761.3,513.7 703.6,513.6 645.8,513.5 588.0,513.6 530.2,513.6 472.4,513.7 414.7,513.4 356.9,513.5 299.1,513.5 241.3,513.5 183.6,513.5 125.8,513.5 68.0,513.5" fill="#41ab5d" fill-opacity="0.9" stroke="#fff" stroke-width="0.4"><title>existential_aggregate — SemanticChecking</title></polygon>
<polygon points="68.0,443.6 125.8,444.7 183.6,442.5 241.3,443.4 299.1,442.2 356.9,443.2 414.7,442.5 472.4,446.0 530.2,445.8 588.0,444.8 645.8,445.4 703.6,445.9 761.3,446.4 819.1,450.1 876.9,450.7 934.7,445.2 992.4,445.9 1050.2,459.2 1108.0,458.3 1108.0,475.9 1050.2,476.3 992.4,467.0 934.7,466.4 876.9,472.0 819.1,471.5 761.3,468.7 703.6,468.1 645.8,467.8 588.0,467.7 530.2,468.7 472.4,468.7 414.7,465.3 356.9,465.8 299.1,465.2 241.3,465.6 183.6,464.7 125.8,466.7 68.0,466.0" fill="#006d2c" fill-opacity="0.9" stroke="#fff" stroke-width="0.4"><title>existential_aggregate — generateIR</title></polygon>
<polygon points="68.0,442.6 125.8,443.3 183.6,441.4 241.3,442.7 299.1,441.4 356.9,442.2 414.7,440.6 472.4,445.1 530.2,444.3 588.0,443.8 645.8,444.4 703.6,444.8 761.3,445.5 819.1,449.1 876.9,449.8 934.7,444.5 992.4,444.8 1050.2,458.1 1108.0,457.7 1108.0,458.3 1050.2,459.2 992.4,445.9 934.7,445.2 876.9,450.7 819.1,450.1 761.3,446.4 703.6,445.9 645.8,445.4 588.0,444.8 530.2,445.8 472.4,446.0 414.7,442.5 356.9,443.2 299.1,442.2 241.3,443.4 183.6,442.5 125.8,444.7 68.0,443.6" fill="#74c476" fill-opacity="0.9" stroke="#fff" stroke-width="0.4"><title>existential_aggregate — frontEndExecute (self)</title></polygon>
<polygon points="68.0,260.2 125.8,262.0 183.6,258.6 241.3,263.8 299.1,259.3 356.9,259.9 414.7,260.2 472.4,381.2 530.2,380.9 588.0,379.3 645.8,381.7 703.6,382.2 761.3,382.0 819.1,392.2 876.9,393.0 934.7,386.6 992.4,387.0 1050.2,396.9 1108.0,399.8 1108.0,457.7 1050.2,458.1 992.4,444.8 934.7,444.5 876.9,449.8 819.1,449.1 761.3,445.5 703.6,444.8 645.8,444.4 588.0,443.8 530.2,444.3 472.4,445.1 414.7,440.6 356.9,442.2 299.1,441.4 241.3,442.7 183.6,441.4 125.8,443.3 68.0,442.6" fill="#6baed6" fill-opacity="0.9" stroke="#fff" stroke-width="0.4"><title>existential_aggregate — specializeModule</title></polygon>
<polygon points="68.0,203.1 125.8,204.6 183.6,202.1 241.3,207.2 299.1,219.2 356.9,219.8 414.7,220.3 472.4,341.0 530.2,341.8 588.0,339.7 645.8,344.7 703.6,344.9 761.3,345.7 819.1,360.2 876.9,361.0 934.7,354.6 992.4,355.2 1050.2,368.9 1108.0,371.3 1108.0,399.8 1050.2,396.9 992.4,387.0 934.7,386.6 876.9,393.0 819.1,392.2 761.3,382.0 703.6,382.2 645.8,381.7 588.0,379.3 530.2,380.9 472.4,381.2 414.7,260.2 356.9,259.9 299.1,259.3 241.3,263.8 183.6,258.6 125.8,262.0 68.0,260.2" fill="#2171b5" fill-opacity="0.9" stroke="#fff" stroke-width="0.4"><title>existential_aggregate — simplifyIR</title></polygon>
<polygon points="68.0,198.8 125.8,200.4 183.6,197.6 241.3,202.9 299.1,215.0 356.9,215.6 414.7,216.0 472.4,337.4 530.2,338.2 588.0,336.1 645.8,341.1 703.6,341.2 761.3,341.9 819.1,357.0 876.9,357.9 934.7,351.4 992.4,352.1 1050.2,366.1 1108.0,368.4 1108.0,371.3 1050.2,368.9 992.4,355.2 934.7,354.6 876.9,361.0 819.1,360.2 761.3,345.7 703.6,344.9 645.8,344.7 588.0,339.7 530.2,341.8 472.4,341.0 414.7,220.3 356.9,219.8 299.1,219.2 241.3,207.2 183.6,202.1 125.8,204.6 68.0,203.1" fill="#08306b" fill-opacity="0.9" stroke="#fff" stroke-width="0.4"><title>existential_aggregate — linkIR</title></polygon>
<polygon points="68.0,198.7 125.8,200.3 183.6,197.5 241.3,202.7 299.1,214.9 356.9,215.5 414.7,215.9 472.4,336.8 530.2,337.5 588.0,335.5 645.8,340.4 703.6,340.6 761.3,341.3 819.1,356.5 876.9,357.4 934.7,350.9 992.4,351.6 1050.2,365.6 1108.0,367.9 1108.0,368.4 1050.2,366.1 992.4,352.1 934.7,351.4 876.9,357.9 819.1,357.0 761.3,341.9 703.6,341.2 645.8,341.1 588.0,336.1 530.2,338.2 472.4,337.4 414.7,216.0 356.9,215.6 299.1,215.0 241.3,202.9 183.6,197.6 125.8,200.4 68.0,198.8" fill="#9e9ac8" fill-opacity="0.9" stroke="#fff" stroke-width="0.4"><title>existential_aggregate — unrollLoopsInModule</title></polygon>
<polygon points="68.0,195.3 125.8,196.9 183.6,194.0 241.3,199.3 299.1,211.5 356.9,212.1 414.7,212.5 472.4,333.5 530.2,334.2 588.0,332.2 645.8,337.8 703.6,337.9 761.3,338.6 819.1,353.8 876.9,354.5 934.7,348.1 992.4,348.8 1050.2,362.9 1108.0,365.1 1108.0,367.9 1050.2,365.6 992.4,351.6 934.7,350.9 876.9,357.4 819.1,356.5 761.3,341.3 703.6,340.6 645.8,340.4 588.0,335.5 530.2,337.5 472.4,336.8 414.7,215.9 356.9,215.5 299.1,214.9 241.3,202.7 183.6,197.5 125.8,200.3 68.0,198.7" fill="#807dba" fill-opacity="0.9" stroke="#fff" stroke-width="0.4"><title>existential_aggregate — legalizeResourceTypes</title></polygon>
<polygon points="68.0,190.2 125.8,191.6 183.6,188.7 241.3,194.0 299.1,206.5 356.9,207.0 414.7,207.5 472.4,328.4 530.2,329.1 588.0,327.0 645.8,333.5 703.6,333.4 761.3,334.2 819.1,349.7 876.9,350.4 934.7,344.0 992.4,344.6 1050.2,358.8 1108.0,360.9 1108.0,365.1 1050.2,362.9 992.4,348.8 934.7,348.1 876.9,354.5 819.1,353.8 761.3,338.6 703.6,337.9 645.8,337.8 588.0,332.2 530.2,334.2 472.4,333.5 414.7,212.5 356.9,212.1 299.1,211.5 241.3,199.3 183.6,194.0 125.8,196.9 68.0,195.3" fill="#6a51a3" fill-opacity="0.9" stroke="#fff" stroke-width="0.4"><title>existential_aggregate — legalizeExistentialTypeLayout</title></polygon>
<polygon points="68.0,189.5 125.8,191.0 183.6,188.1 241.3,193.4 299.1,205.9 356.9,206.3 414.7,206.8 472.4,327.1 530.2,327.9 588.0,325.8 645.8,332.3 703.6,332.2 761.3,333.0 819.1,348.5 876.9,349.2 934.7,342.8 992.4,343.3 1050.2,357.8 1108.0,359.8 1108.0,360.9 1050.2,358.8 992.4,344.6 934.7,344.0 876.9,350.4 819.1,349.7 761.3,334.2 703.6,333.4 645.8,333.5 588.0,327.0 530.2,329.1 472.4,328.4 414.7,207.5 356.9,207.0 299.1,206.5 241.3,194.0 183.6,188.7 125.8,191.6 68.0,190.2" fill="#bcbddc" fill-opacity="0.9" stroke="#fff" stroke-width="0.4"><title>existential_aggregate — performMandatoryEarlyInlining</title></polygon>
<polygon points="68.0,188.8 125.8,190.2 183.6,187.4 241.3,192.6 299.1,205.2 356.9,205.5 414.7,206.1 472.4,326.4 530.2,327.2 588.0,325.1 645.8,331.5 703.6,331.4 761.3,332.3 819.1,347.7 876.9,348.4 934.7,342.0 992.4,342.5 1050.2,357.2 1108.0,359.2 1108.0,359.8 1050.2,357.8 992.4,343.3 934.7,342.8 876.9,349.2 819.1,348.5 761.3,333.0 703.6,332.2 645.8,332.3 588.0,325.8 530.2,327.9 472.4,327.1 414.7,206.8 356.9,206.3 299.1,205.9 241.3,193.4 183.6,188.1 125.8,191.0 68.0,189.5" fill="#dadaeb" fill-opacity="0.9" stroke="#fff" stroke-width="0.4"><title>existential_aggregate — performForceInlining</title></polygon>
<polygon points="68.0,152.0 125.8,153.5 183.6,150.1 241.3,154.6 299.1,166.8 356.9,166.5 414.7,165.6 472.4,290.3 530.2,292.2 588.0,289.8 645.8,297.2 703.6,296.6 761.3,297.9 819.1,319.6 876.9,319.2 934.7,314.2 992.4,313.7 1050.2,331.8 1108.0,332.9 1108.0,359.2 1050.2,357.2 992.4,342.5 934.7,342.0 876.9,348.4 819.1,347.7 761.3,332.3 703.6,331.4 645.8,331.5 588.0,325.1 530.2,327.2 472.4,326.4 414.7,206.1 356.9,205.5 299.1,205.2 241.3,192.6 183.6,187.4 125.8,190.2 68.0,188.8" fill="#4a1486" fill-opacity="0.9" stroke="#fff" stroke-width="0.4"><title>existential_aggregate — linkAndOptimizeIR (self)</title></polygon>
<polygon points="68.0,109.7 125.8,112.3 183.6,108.6 241.3,113.7 299.1,126.2 356.9,126.3 414.7,124.9 472.4,249.7 530.2,252.0 588.0,249.0 645.8,256.2 703.6,255.8 761.3,258.7 819.1,280.4 876.9,280.9 934.7,276.6 992.4,275.4 1050.2,294.3 1108.0,296.2 1108.0,332.9 1050.2,331.8 992.4,313.7 934.7,314.2 876.9,319.2 819.1,319.6 761.3,297.9 703.6,296.6 645.8,297.2 588.0,289.8 530.2,292.2 472.4,290.3 414.7,165.6 356.9,166.5 299.1,166.8 241.3,154.6 183.6,150.1 125.8,153.5 68.0,152.0" fill="#e6550d" fill-opacity="0.9" stroke="#fff" stroke-width="0.4"><title>existential_aggregate — generateOutput (self)</title></polygon>
<polygon points="68.0,109.7 125.8,112.3 183.6,108.6 241.3,113.7 299.1,126.2 356.9,125.5 414.7,124.4 472.4,249.2 530.2,251.5 588.0,248.5 645.8,254.6 703.6,255.6 761.3,258.4 819.1,280.1 876.9,280.9 934.7,276.0 992.4,275.2 1050.2,292.1 1108.0,295.4 1108.0,296.2 1050.2,294.3 992.4,275.4 934.7,276.6 876.9,280.9 819.1,280.4 761.3,258.7 703.6,255.8 645.8,256.2 588.0,249.0 530.2,252.0 472.4,249.7 414.7,124.9 356.9,126.3 299.1,126.2 241.3,113.7 183.6,108.6 125.8,112.3 68.0,109.7" fill="#969696" fill-opacity="0.9" stroke="#fff" stroke-width="0.4"><title>existential_aggregate — compileInner (self)</title></polygon>
<text x="12" y="578" fill="#666" font-weight="600">phase buckets</text>
<rect x="12" y="586" width="12" height="12" fill="#c7e9c0"/>
<text x="28" y="596" fill="#222">parseTranslationUnit</text>
<rect x="289" y="586" width="12" height="12" fill="#41ab5d"/>
<text x="305" y="596" fill="#222">SemanticChecking</text>
<rect x="566" y="586" width="12" height="12" fill="#006d2c"/>
<text x="582" y="596" fill="#222">generateIR</text>
<rect x="843" y="586" width="12" height="12" fill="#74c476"/>
<text x="859" y="596" fill="#222">frontEndExecute (self)</text>
<rect x="12" y="604" width="12" height="12" fill="#6baed6"/>
<text x="28" y="614" fill="#222">specializeModule</text>
<rect x="289" y="604" width="12" height="12" fill="#2171b5"/>
<text x="305" y="614" fill="#222">simplifyIR</text>
<rect x="566" y="604" width="12" height="12" fill="#08306b"/>
<text x="582" y="614" fill="#222">linkIR</text>
<rect x="843" y="604" width="12" height="12" fill="#9e9ac8"/>
<text x="859" y="614" fill="#222">unrollLoopsInModule</text>
<rect x="12" y="622" width="12" height="12" fill="#807dba"/>
<text x="28" y="632" fill="#222">legalizeResourceTypes</text>
<rect x="289" y="622" width="12" height="12" fill="#6a51a3"/>
<text x="305" y="632" fill="#222">legalizeExistentialTypeLayout</text>
<rect x="566" y="622" width="12" height="12" fill="#bcbddc"/>
<text x="582" y="632" fill="#222">performMandatoryEarlyInlining</text>
<rect x="843" y="622" width="12" height="12" fill="#dadaeb"/>
<text x="859" y="632" fill="#222">performForceInlining</text>
<rect x="12" y="640" width="12" height="12" fill="#4a1486"/>
<text x="28" y="650" fill="#222">linkAndOptimizeIR (self)</text>
<rect x="289" y="640" width="12" height="12" fill="#fd8d3c"/>
<text x="305" y="650" fill="#222">emitEntryPointsSourceFromIR</text>
<rect x="566" y="640" width="12" height="12" fill="#e6550d"/>
<text x="582" y="650" fill="#222">generateOutput (self)</text>
<rect x="843" y="640" width="12" height="12" fill="#969696"/>
<text x="859" y="650" fill="#222">compileInner (self)</text>
</svg>