<svg xmlns="http://www.w3.org/2000/svg" xmlns:xlink="http://www.w3.org/1999/xlink" width="1132" height="680" viewBox="0 0 1132 680" preserveAspectRatio="xMidYMid meet" font-family="sans-serif" font-size="13">
<rect width="1132" height="680" fill="white"/>
<text x="12" y="30" font-size="20" font-weight="bold">generic_nesting — Across releases (median ms)</text>
<text x="68" y="60" font-size="15" font-weight="600" fill="#1a1a1a">generic_nesting<tspan fill="#888" font-weight="400" text-decoration="none">  1.18×</tspan></text>
<line x1="68.0" y1="516.0" x2="1108.0" y2="516.0" stroke="#eee"/>
<text x="64.0" y="519.0" text-anchor="end" fill="#999">0.0</text>
<line x1="68.0" y1="296.0" x2="1108.0" y2="296.0" stroke="#eee"/>
<text x="64.0" y="299.0" text-anchor="end" fill="#999">61</text>
<line x1="68.0" y1="76.0" x2="1108.0" y2="76.0" stroke="#eee"/>
<text x="64.0" y="79.0" text-anchor="end" fill="#999">123</text>
<line x1="68.0" y1="76.0" x2="68.0" y2="516.0" stroke="#333"/>
<line x1="68.0" y1="516.0" x2="1108.0" y2="516.0" stroke="#333"/>
<line x1="68.0" y1="516.0" x2="68.0" y2="519.0" stroke="#999"/>
<text x="68.0" y="531.0" text-anchor="end" fill="#666" transform="rotate(-50 68.0 531.0)">25.12</text>
<line x1="113.2" y1="516.0" x2="113.2" y2="519.0" stroke="#999"/>
<text x="113.2" y="531.0" text-anchor="end" fill="#666" transform="rotate(-50 113.2 531.0)">25.13</text>
<line x1="158.4" y1="516.0" x2="158.4" y2="519.0" stroke="#999"/>
<text x="158.4" y="531.0" text-anchor="end" fill="#666" transform="rotate(-50 158.4 531.0)">25.14</text>
<line x1="203.7" y1="516.0" x2="203.7" y2="519.0" stroke="#999"/>
<text x="203.7" y="531.0" text-anchor="end" fill="#666" transform="rotate(-50 203.7 531.0)">25.15</text>
<line x1="248.9" y1="516.0" x2="248.9" y2="519.0" stroke="#999"/>
<text x="248.9" y="531.0" text-anchor="end" fill="#666" transform="rotate(-50 248.9 531.0)">25.16</text>
<line x1="294.1" y1="516.0" x2="294.1" y2="519.0" stroke="#999"/>
<text x="294.1" y="531.0" text-anchor="end" fill="#666" transform="rotate(-50 294.1 531.0)">25.17</text>
<line x1="339.3" y1="516.0" x2="339.3" y2="519.0" stroke="#999"/>
<text x="339.3" y="531.0" text-anchor="end" fill="#666" transform="rotate(-50 339.3 531.0)">25.18</text>
<line x1="384.5" y1="516.0" x2="384.5" y2="519.0" stroke="#999"/>
<text x="384.5" y="531.0" text-anchor="end" fill="#666" transform="rotate(-50 384.5 531.0)">25.19</text>
<line x1="429.7" y1="516.0" x2="429.7" y2="519.0" stroke="#999"/>
<text x="429.7" y="531.0" text-anchor="end" fill="#666" transform="rotate(-50 429.7 531.0)">25.20</text>
<line x1="475.0" y1="516.0" x2="475.0" y2="519.0" stroke="#999"/>
<text x="475.0" y="531.0" text-anchor="end" fill="#666" transform="rotate(-50 475.0 531.0)">25.21</text>
<line x1="520.2" y1="516.0" x2="520.2" y2="519.0" stroke="#999"/>
<text x="520.2" y="531.0" text-anchor="end" fill="#666" transform="rotate(-50 520.2 531.0)">25.22</text>
<line x1="565.4" y1="516.0" x2="565.4" y2="519.0" stroke="#999"/>
<text x="565.4" y="531.0" text-anchor="end" fill="#666" transform="rotate(-50 565.4 531.0)">25.23</text>
<line x1="610.6" y1="516.0" x2="610.6" y2="519.0" stroke="#999"/>
<text x="610.6" y="531.0" text-anchor="end" fill="#666" transform="rotate(-50 610.6 531.0)">25.24</text>
<line x1="655.8" y1="516.0" x2="655.8" y2="519.0" stroke="#999"/>
<text x="655.8" y="531.0" text-anchor="end" fill="#666" transform="rotate(-50 655.8 531.0)">26.1</text>
<line x1="701.0" y1="516.0" x2="701.0" y2="519.0" stroke="#999"/>
<text x="701.0" y="531.0" text-anchor="end" fill="#666" transform="rotate(-50 701.0 531.0)">26.2</text>
<line x1="746.3" y1="516.0" x2="746.3" y2="519.0" stroke="#999"/>
<text x="746.3" y="531.0" text-anchor="end" fill="#666" transform="rotate(-50 746.3 531.0)">26.3</text>
<line x1="791.5" y1="516.0" x2="791.5" y2="519.0" stroke="#999"/>
<text x="791.5" y="531.0" text-anchor="end" fill="#666" transform="rotate(-50 791.5 531.0)">26.4</text>
<line x1="836.7" y1="516.0" x2="836.7" y2="519.0" stroke="#999"/>
<text x="836.7" y="531.0" text-anchor="end" fill="#666" transform="rotate(-50 836.7 531.0)">26.5</text>
<line x1="881.9" y1="516.0" x2="881.9" y2="519.0" stroke="#999"/>
<text x="881.9" y="531.0" text-anchor="end" fill="#666" transform="rotate(-50 881.9 531.0)">26.7</text>
<line x1="927.1" y1="516.0" x2="927.1" y2="519.0" stroke="#999"/>
<text x="927.1" y="531.0" text-anchor="end" fill="#666" transform="rotate(-50 927.1 531.0)">26.8</text>
<line x1="972.3" y1="516.0" x2="972.3" y2="519.0" stroke="#999"/>
<text x="972.3" y="531.0" text-anchor="end" fill="#666" transform="rotate(-50 972.3 531.0)">26.9</text>
<line x1="1017.6" y1="516.0" x2="1017.6" y2="519.0" stroke="#999"/>
<text x="1017.6" y="531.0" text-anchor="end" fill="#666" transform="rotate(-50 1017.6 531.0)">26.10</text>
<line x1="1062.8" y1="516.0" x2="1062.8" y2="519.0" stroke="#999"/>
<text x="1062.8" y="531.0" text-anchor="end" fill="#666" transform="rotate(-50 1062.8 531.0)">26.11</text>
<line x1="1108.0" y1="516.0" x2="1108.0" y2="519.0" stroke="#999"/>
<text x="1108.0" y="531.0" text-anchor="end" fill="#666" transform="rotate(-50 1108.0 531.0)">26.12</text>
<polygon points="68.0,516.0 113.2,512.6 158.4,514.7 203.7,515.4 248.9,515.4 294.1,515.4 339.3,515.4 384.5,515.4 429.7,515.4 475.0,515.4 520.2,515.4 565.4,515.4 610.6,515.3 655.8,515.4 701.0,515.4 746.3,515.4 791.5,515.3 836.7,515.3 881.9,515.2 881.9,516.0 836.7,516.0 791.5,516.0 746.3,516.0 701.0,516.0 655.8,516.0 610.6,516.0 565.4,516.0 520.2,516.0 475.0,516.0 429.7,516.0 384.5,516.0 339.3,516.0 294.1,516.0 248.9,516.0 203.7,516.0 158.4,516.0 113.2,516.0 68.0,516.0" fill="#c7e9c0" fill-opacity="0.9" stroke="#fff" stroke-width="0.4"><title>generic_nesting — parseTranslationUnit</title></polygon>
<polygon points="68.0,516.0 113.2,510.8 158.4,513.0 203.7,513.7 248.9,513.8 294.1,513.8 339.3,513.7 384.5,513.8 429.7,513.7 475.0,513.7 520.2,513.6 565.4,513.7 610.6,513.5 655.8,513.6 701.0,513.4 746.3,513.4 791.5,513.2 836.7,513.2 881.9,512.2 881.9,515.2 836.7,515.3 791.5,515.3 746.3,515.4 701.0,515.4 655.8,515.4 610.6,515.3 565.4,515.4 520.2,515.4 475.0,515.4 429.7,515.4 384.5,515.4 339.3,515.4 294.1,515.4 248.9,515.4 203.7,515.4 158.4,514.7 113.2,512.6 68.0,516.0" fill="#41ab5d" fill-opacity="0.9" stroke="#fff" stroke-width="0.4"><title>generic_nesting — SemanticChecking</title></polygon>
<polygon points="68.0,175.4 113.2,166.6 158.4,148.7 203.7,159.7 248.9,156.1 294.1,156.8 339.3,163.1 384.5,174.5 429.7,167.2 475.0,165.7 520.2,162.7 565.4,166.7 610.6,161.5 655.8,157.1 701.0,150.9 746.3,153.7 791.5,149.4 836.7,169.0 881.9,121.2 881.9,512.2 836.7,513.2 791.5,513.2 746.3,513.4 701.0,513.4 655.8,513.6 610.6,513.5 565.4,513.7 520.2,513.6 475.0,513.7 429.7,513.7 384.5,513.8 339.3,513.7 294.1,513.8 248.9,513.8 203.7,513.7 158.4,513.0 113.2,510.8 68.0,516.0" fill="#006d2c" fill-opacity="0.9" stroke="#fff" stroke-width="0.4"><title>generic_nesting — generateIR</title></polygon>
<polygon points="68.0,171.8 113.2,166.6 158.4,148.3 203.7,159.3 248.9,154.7 294.1,156.3 339.3,163.1 384.5,174.2 429.7,166.8 475.0,165.3 520.2,162.4 565.4,166.4 610.6,161.3 655.8,156.5 701.0,150.4 746.3,152.3 791.5,148.9 836.7,168.9 881.9,120.7 881.9,121.2 836.7,169.0 791.5,149.4 746.3,153.7 701.0,150.9 655.8,157.1 610.6,161.5 565.4,166.7 520.2,162.7 475.0,165.7 429.7,167.2 384.5,174.5 339.3,163.1 294.1,156.8 248.9,156.1 203.7,159.7 158.4,148.7 113.2,166.6 68.0,175.4" fill="#74c476" fill-opacity="0.9" stroke="#fff" stroke-width="0.4"><title>generic_nesting — frontEndExecute (self)</title></polygon>
<polygon points="68.0,171.8 113.2,163.4 158.4,145.2 203.7,156.2 248.9,151.8 294.1,153.2 339.3,160.0 384.5,171.3 429.7,163.8 475.0,162.3 520.2,159.4 565.4,163.3 610.6,158.1 655.8,153.3 701.0,147.2 746.3,149.0 791.5,145.2 836.7,165.5 881.9,116.5 881.9,120.7 836.7,168.9 791.5,148.9 746.3,152.3 701.0,150.4 655.8,156.5 610.6,161.3 565.4,166.4 520.2,162.4 475.0,165.3 429.7,166.8 384.5,174.2 339.3,163.1 294.1,156.3 248.9,154.7 203.7,159.3 158.4,148.3 113.2,166.6 68.0,171.8" fill="#e6550d" fill-opacity="0.9" stroke="#fff" stroke-width="0.4"><title>generic_nesting — generateOutput (self)</title></polygon>
<polygon points="68.0,171.8 113.2,163.4 158.4,145.2 203.7,156.2 248.9,151.8 294.1,152.9 339.3,160.0 384.5,171.3 429.7,163.8 475.0,162.3 520.2,159.4 565.4,163.3 610.6,158.1 655.8,153.3 701.0,147.2 746.3,149.0 791.5,145.2 836.7,165.5 881.9,108.6 881.9,116.5 836.7,165.5 791.5,145.2 746.3,149.0 701.0,147.2 655.8,153.3 610.6,158.1 565.4,163.3 520.2,159.4 475.0,162.3 429.7,163.8 384.5,171.3 339.3,160.0 294.1,153.2 248.9,151.8 203.7,156.2 158.4,145.2 113.2,163.4 68.0,171.8" fill="#969696" fill-opacity="0.9" stroke="#fff" stroke-width="0.4"><title>generic_nesting — compileInner (self)</title></polygon>
<text x="12" y="578" fill="#666" font-weight="600">phase buckets</text>
<rect x="12" y="586" width="12" height="12" fill="#c7e9c0"/>
<text x="28" y="596" fill="#222">parseTranslationUnit</text>
<rect x="289" y="586" width="12" height="12" fill="#41ab5d"/>
<text x="305" y="596" fill="#222">SemanticChecking</text>
<rect x="566" y="586" width="12" height="12" fill="#006d2c"/>
<text x="582" y="596" fill="#222">generateIR</text>
<rect x="843" y="586" width="12" height="12" fill="#74c476"/>
<text x="859" y="596" fill="#222">frontEndExecute (self)</text>
<rect x="12" y="604" width="12" height="12" fill="#6baed6"/>
<text x="28" y="614" fill="#222">specializeModule</text>
<rect x="289" y="604" width="12" height="12" fill="#2171b5"/>
<text x="305" y="614" fill="#222">simplifyIR</text>
<rect x="566" y="604" width="12" height="12" fill="#08306b"/>
<text x="582" y="614" fill="#222">linkIR</text>
<rect x="843" y="604" width="12" height="12" fill="#9e9ac8"/>
<text x="859" y="614" fill="#222">unrollLoopsInModule</text>
<rect x="12" y="622" width="12" height="12" fill="#807dba"/>
<text x="28" y="632" fill="#222">legalizeResourceTypes</text>
<rect x="289" y="622" width="12" height="12" fill="#6a51a3"/>
<text x="305" y="632" fill="#222">legalizeExistentialTypeLayout</text>
<rect x="566" y="622" width="12" height="12" fill="#bcbddc"/>
<text x="582" y="632" fill="#222">performMandatoryEarlyInlining</text>
<rect x="843" y="622" width="12" height="12" fill="#dadaeb"/>
<text x="859" y="632" fill="#222">performForceInlining</text>
<rect x="12" y="640" width="12" height="12" fill="#4a1486"/>
<text x="28" y="650" fill="#222">linkAndOptimizeIR (self)</text>
<rect x="289" y="640" width="12" height="12" fill="#fd8d3c"/>
<text x="305" y="650" fill="#222">emitEntryPointsSourceFromIR</text>
<rect x="566" y="640" width="12" height="12" fill="#e6550d"/>
<text x="582" y="650" fill="#222">generateOutput (self)</text>
<rect x="843" y="640" width="12" height="12" fill="#969696"/>
<text x="859" y="650" fill="#222">compileInner (self)</text>
</svg>