<svg xmlns="http://www.w3.org/2000/svg" xmlns:xlink="http://www.w3.org/1999/xlink" width="1132" height="680" viewBox="0 0 1132 680" preserveAspectRatio="xMidYMid meet" font-family="sans-serif" font-size="13">
<rect width="1132" height="680" fill="white"/>
<text x="12" y="30" font-size="20" font-weight="bold">generic_nesting — Across releases (median ms)</text>
<text x="68" y="60" font-size="15" font-weight="600" fill="#1a1a1a">generic_nesting<tspan fill="#888" font-weight="400" text-decoration="none">  1.04×</tspan></text>
<line x1="68.0" y1="516.0" x2="1108.0" y2="516.0" stroke="#eee"/>
<text x="64.0" y="519.0" text-anchor="end" fill="#999">0.0</text>
<line x1="68.0" y1="296.0" x2="1108.0" y2="296.0" stroke="#eee"/>
<text x="64.0" y="299.0" text-anchor="end" fill="#999">56</text>
<line x1="68.0" y1="76.0" x2="1108.0" y2="76.0" stroke="#eee"/>
<text x="64.0" y="79.0" text-anchor="end" fill="#999">112</text>
<line x1="68.0" y1="76.0" x2="68.0" y2="516.0" stroke="#333"/>
<line x1="68.0" y1="516.0" x2="1108.0" y2="516.0" stroke="#333"/>
<line x1="68.0" y1="516.0" x2="68.0" y2="519.0" stroke="#999"/>
<text x="68.0" y="531.0" text-anchor="end" fill="#666" transform="rotate(-50 68.0 531.0)">25.12</text>
<line x1="113.2" y1="516.0" x2="113.2" y2="519.0" stroke="#999"/>
<text x="113.2" y="531.0" text-anchor="end" fill="#666" transform="rotate(-50 113.2 531.0)">25.13</text>
<line x1="158.4" y1="516.0" x2="158.4" y2="519.0" stroke="#999"/>
<text x="158.4" y="531.0" text-anchor="end" fill="#666" transform="rotate(-50 158.4 531.0)">25.14</text>
<line x1="203.7" y1="516.0" x2="203.7" y2="519.0" stroke="#999"/>
<text x="203.7" y="531.0" text-anchor="end" fill="#666" transform="rotate(-50 203.7 531.0)">25.15</text>
<line x1="248.9" y1="516.0" x2="248.9" y2="519.0" stroke="#999"/>
<text x="248.9" y="531.0" text-anchor="end" fill="#666" transform="rotate(-50 248.9 531.0)">25.16</text>
<line x1="294.1" y1="516.0" x2="294.1" y2="519.0" stroke="#999"/>
<text x="294.1" y="531.0" text-anchor="end" fill="#666" transform="rotate(-50 294.1 531.0)">25.17</text>
<line x1="339.3" y1="516.0" x2="339.3" y2="519.0" stroke="#999"/>
<text x="339.3" y="531.0" text-anchor="end" fill="#666" transform="rotate(-50 339.3 531.0)">25.18</text>
<line x1="384.5" y1="516.0" x2="384.5" y2="519.0" stroke="#999"/>
<text x="384.5" y="531.0" text-anchor="end" fill="#666" transform="rotate(-50 384.5 531.0)">25.19</text>
<line x1="429.7" y1="516.0" x2="429.7" y2="519.0" stroke="#999"/>
<text x="429.7" y="531.0" text-anchor="end" fill="#666" transform="rotate(-50 429.7 531.0)">25.20</text>
<line x1="475.0" y1="516.0" x2="475.0" y2="519.0" stroke="#999"/>
<text x="475.0" y="531.0" text-anchor="end" fill="#666" transform="rotate(-50 475.0 531.0)">25.21</text>
<line x1="520.2" y1="516.0" x2="520.2" y2="519.0" stroke="#999"/>
<text x="520.2" y="531.0" text-anchor="end" fill="#666" transform="rotate(-50 520.2 531.0)">25.22</text>
<line x1="565.4" y1="516.0" x2="565.4" y2="519.0" stroke="#999"/>
<text x="565.4" y="531.0" text-anchor="end" fill="#666" transform="rotate(-50 565.4 531.0)">25.23</text>
<line x1="610.6" y1="516.0" x2="610.6" y2="519.0" stroke="#999"/>
<text x="610.6" y="531.0" text-anchor="end" fill="#666" transform="rotate(-50 610.6 531.0)">25.24</text>
<line x1="655.8" y1="516.0" x2="655.8" y2="519.0" stroke="#999"/>
<text x="655.8" y="531.0" text-anchor="end" fill="#666" transform="rotate(-50 655.8 531.0)">26.1</text>
<line x1="701.0" y1="516.0" x2="701.0" y2="519.0" stroke="#999"/>
<text x="701.0" y="531.0" text-anchor="end" fill="#666" transform="rotate(-50 701.0 531.0)">26.2</text>
<line x1="746.3" y1="516.0" x2="746.3" y2="519.0" stroke="#999"/>
<text x="746.3" y="531.0" text-anchor="end" fill="#666" transform="rotate(-50 746.3 531.0)">26.3</text>
<line x1="791.5" y1="516.0" x2="791.5" y2="519.0" stroke="#999"/>
<text x="791.5" y="531.0" text-anchor="end" fill="#666" transform="rotate(-50 791.5 531.0)">26.4</text>
<line x1="836.7" y1="516.0" x2="836.7" y2="519.0" stroke="#999"/>
<text x="836.7" y="531.0" text-anchor="end" fill="#666" transform="rotate(-50 836.7 531.0)">26.5</text>
<line x1="881.9" y1="516.0" x2="881.9" y2="519.0" stroke="#999"/>
<text x="881.9" y="531.0" text-anchor="end" fill="#666" transform="rotate(-50 881.9 531.0)">26.7</text>
<line x1="927.1" y1="516.0" x2="927.1" y2="519.0" stroke="#999"/>
<text x="927.1" y="531.0" text-anchor="end" fill="#666" transform="rotate(-50 927.1 531.0)">26.8</text>
<line x1="972.3" y1="516.0" x2="972.3" y2="519.0" stroke="#999"/>
<text x="972.3" y="531.0" text-anchor="end" fill="#666" transform="rotate(-50 972.3 531.0)">26.9</text>
<line x1="1017.6" y1="516.0" x2="1017.6" y2="519.0" stroke="#999"/>
<text x="1017.6" y="531.0" text-anchor="end" fill="#666" transform="rotate(-50 1017.6 531.0)">26.10</text>
<line x1="1062.8" y1="516.0" x2="1062.8" y2="519.0" stroke="#999"/>
<text x="1062.8" y="531.0" text-anchor="end" fill="#666" transform="rotate(-50 1062.8 531.0)">26.11</text>
<line x1="1108.0" y1="516.0" x2="1108.0" y2="519.0" stroke="#999"/>
<text x="1108.0" y="531.0" text-anchor="end" fill="#666" transform="rotate(-50 1108.0 531.0)">26.12</text>
<polygon points="68.0,516.0 113.2,512.2 158.4,514.6 203.7,515.3 248.9,515.3 294.1,515.3 339.3,515.3 384.5,515.3 429.7,515.3 475.0,515.3 520.2,515.3 565.4,515.3 610.6,515.2 610.6,516.0 565.4,516.0 520.2,516.0 475.0,516.0 429.7,516.0 384.5,516.0 339.3,516.0 294.1,516.0 248.9,516.0 203.7,516.0 158.4,516.0 113.2,516.0 68.0,516.0" fill="#c7e9c0" fill-opacity="0.9" stroke="#fff" stroke-width="0.4"><title>generic_nesting — parseTranslationUnit</title></polygon>
<polygon points="68.0,516.0 113.2,510.2 158.4,512.7 203.7,513.5 248.9,513.6 294.1,513.6 339.3,513.5 384.5,513.6 429.7,513.5 475.0,513.5 520.2,513.4 565.4,513.4 610.6,513.3 610.6,515.2 565.4,515.3 520.2,515.3 475.0,515.3 429.7,515.3 384.5,515.3 339.3,515.3 294.1,515.3 248.9,515.3 203.7,515.3 158.4,514.6 113.2,512.2 68.0,516.0" fill="#41ab5d" fill-opacity="0.9" stroke="#fff" stroke-width="0.4"><title>generic_nesting — SemanticChecking</title></polygon>
<polygon points="68.0,141.8 113.2,132.1 158.4,112.5 203.7,124.5 248.9,120.5 294.1,121.3 339.3,128.2 384.5,140.8 429.7,132.8 475.0,131.2 520.2,127.8 565.4,132.2 610.6,126.6 610.6,513.3 565.4,513.4 520.2,513.4 475.0,513.5 429.7,513.5 384.5,513.6 339.3,513.5 294.1,513.6 248.9,513.6 203.7,513.5 158.4,512.7 113.2,510.2 68.0,516.0" fill="#006d2c" fill-opacity="0.9" stroke="#fff" stroke-width="0.4"><title>generic_nesting — generateIR</title></polygon>
<polygon points="68.0,137.8 113.2,132.1 158.4,112.0 203.7,124.1 248.9,119.1 294.1,120.8 339.3,128.2 384.5,140.5 429.7,132.3 475.0,130.7 520.2,127.5 565.4,131.9 610.6,126.2 610.6,126.6 565.4,132.2 520.2,127.8 475.0,131.2 429.7,132.8 384.5,140.8 339.3,128.2 294.1,121.3 248.9,120.5 203.7,124.5 158.4,112.5 113.2,132.1 68.0,141.8" fill="#74c476" fill-opacity="0.9" stroke="#fff" stroke-width="0.4"><title>generic_nesting — frontEndExecute (self)</title></polygon>
<polygon points="68.0,137.8 113.2,128.6 158.4,108.6 203.7,120.7 248.9,115.9 294.1,117.4 339.3,124.9 384.5,137.2 429.7,129.1 475.0,127.3 520.2,124.2 565.4,128.5 610.6,122.7 610.6,126.2 565.4,131.9 520.2,127.5 475.0,130.7 429.7,132.3 384.5,140.5 339.3,128.2 294.1,120.8 248.9,119.1 203.7,124.1 158.4,112.0 113.2,132.1 68.0,137.8" fill="#e6550d" fill-opacity="0.9" stroke="#fff" stroke-width="0.4"><title>generic_nesting — generateOutput (self)</title></polygon>
<polygon points="68.0,137.8 113.2,128.6 158.4,108.6 203.7,120.7 248.9,115.9 294.1,117.0 339.3,124.9 384.5,137.2 429.7,129.1 475.0,127.3 520.2,124.2 565.4,128.5 610.6,122.7 610.6,122.7 565.4,128.5 520.2,124.2 475.0,127.3 429.7,129.1 384.5,137.2 339.3,124.9 294.1,117.4 248.9,115.9 203.7,120.7 158.4,108.6 113.2,128.6 68.0,137.8" fill="#969696" fill-opacity="0.9" stroke="#fff" stroke-width="0.4"><title>generic_nesting — compileInner (self)</title></polygon>
<text x="12" y="578" fill="#666" font-weight="600">phase buckets</text>
<rect x="12" y="586" width="12" height="12" fill="#c7e9c0"/>
<text x="28" y="596" fill="#222">parseTranslationUnit</text>
<rect x="289" y="586" width="12" height="12" fill="#41ab5d"/>
<text x="305" y="596" fill="#222">SemanticChecking</text>
<rect x="566" y="586" width="12" height="12" fill="#006d2c"/>
<text x="582" y="596" fill="#222">generateIR</text>
<rect x="843" y="586" width="12" height="12" fill="#74c476"/>
<text x="859" y="596" fill="#222">frontEndExecute (self)</text>
<rect x="12" y="604" width="12" height="12" fill="#6baed6"/>
<text x="28" y="614" fill="#222">specializeModule</text>
<rect x="289" y="604" width="12" height="12" fill="#2171b5"/>
<text x="305" y="614" fill="#222">simplifyIR</text>
<rect x="566" y="604" width="12" height="12" fill="#08306b"/>
<text x="582" y="614" fill="#222">linkIR</text>
<rect x="843" y="604" width="12" height="12" fill="#9e9ac8"/>
<text x="859" y="614" fill="#222">unrollLoopsInModule</text>
<rect x="12" y="622" width="12" height="12" fill="#807dba"/>
<text x="28" y="632" fill="#222">legalizeResourceTypes</text>
<rect x="289" y="622" width="12" height="12" fill="#6a51a3"/>
<text x="305" y="632" fill="#222">legalizeExistentialTypeLayout</text>
<rect x="566" y="622" width="12" height="12" fill="#bcbddc"/>
<text x="582" y="632" fill="#222">performMandatoryEarlyInlining</text>
<rect x="843" y="622" width="12" height="12" fill="#dadaeb"/>
<text x="859" y="632" fill="#222">performForceInlining</text>
<rect x="12" y="640" width="12" height="12" fill="#4a1486"/>
<text x="28" y="650" fill="#222">linkAndOptimizeIR (self)</text>
<rect x="289" y="640" width="12" height="12" fill="#fd8d3c"/>
<text x="305" y="650" fill="#222">emitEntryPointsSourceFromIR</text>
<rect x="566" y="640" width="12" height="12" fill="#e6550d"/>
<text x="582" y="650" fill="#222">generateOutput (self)</text>
<rect x="843" y="640" width="12" height="12" fill="#969696"/>
<text x="859" y="650" fill="#222">compileInner (self)</text>
</svg>