<svg xmlns="http://www.w3.org/2000/svg" xmlns:xlink="http://www.w3.org/1999/xlink" width="1132" height="680" viewBox="0 0 1132 680" preserveAspectRatio="xMidYMid meet" font-family="sans-serif" font-size="13">
<rect width="1132" height="680" fill="white"/>
<text x="12" y="30" font-size="20" font-weight="bold">implicit_conversion — full phase breakdown across releases (median ms)</text>
<text x="68" y="60" font-size="15" font-weight="600" fill="#1a1a1a">implicit_conversion<tspan fill="#888" font-weight="400" text-decoration="none">  1.06×</tspan></text>
<line x1="68.0" y1="516.0" x2="1108.0" y2="516.0" stroke="#eee"/>
<text x="64.0" y="519.0" text-anchor="end" fill="#999">0.0</text>
<line x1="68.0" y1="296.0" x2="1108.0" y2="296.0" stroke="#eee"/>
<text x="64.0" y="299.0" text-anchor="end" fill="#999">83</text>
<line x1="68.0" y1="76.0" x2="1108.0" y2="76.0" stroke="#eee"/>
<text x="64.0" y="79.0" text-anchor="end" fill="#999">167</text>
<line x1="68.0" y1="76.0" x2="68.0" y2="516.0" stroke="#333"/>
<line x1="68.0" y1="516.0" x2="1108.0" y2="516.0" stroke="#333"/>
<line x1="745.6" y1="76.0" x2="745.6" y2="516.0" stroke="#e8731a" stroke-width="1.2" stroke-dasharray="4 3"/>
<text x="748.6" y="87.0" fill="#e8731a" font-size="11">daily →</text>
<line x1="68.0" y1="516.0" x2="68.0" y2="519.0" stroke="#999"/>
<text x="68.0" y="531.0" text-anchor="end" fill="#666" transform="rotate(-50 68.0 531.0)">25.14</text>
<line x1="99.5" y1="516.0" x2="99.5" y2="519.0" stroke="#999"/>
<text x="99.5" y="531.0" text-anchor="end" fill="#666" transform="rotate(-50 99.5 531.0)">25.15</text>
<line x1="131.0" y1="516.0" x2="131.0" y2="519.0" stroke="#999"/>
<text x="131.0" y="531.0" text-anchor="end" fill="#666" transform="rotate(-50 131.0 531.0)">25.16</text>
<line x1="162.5" y1="516.0" x2="162.5" y2="519.0" stroke="#999"/>
<text x="162.5" y="531.0" text-anchor="end" fill="#666" transform="rotate(-50 162.5 531.0)">25.17</text>
<line x1="194.1" y1="516.0" x2="194.1" y2="519.0" stroke="#999"/>
<text x="194.1" y="531.0" text-anchor="end" fill="#666" transform="rotate(-50 194.1 531.0)">25.18</text>
<line x1="225.6" y1="516.0" x2="225.6" y2="519.0" stroke="#999"/>
<text x="225.6" y="531.0" text-anchor="end" fill="#666" transform="rotate(-50 225.6 531.0)">25.19</text>
<line x1="257.1" y1="516.0" x2="257.1" y2="519.0" stroke="#999"/>
<text x="257.1" y="531.0" text-anchor="end" fill="#666" transform="rotate(-50 257.1 531.0)">25.20</text>
<line x1="288.6" y1="516.0" x2="288.6" y2="519.0" stroke="#999"/>
<text x="288.6" y="531.0" text-anchor="end" fill="#666" transform="rotate(-50 288.6 531.0)">25.21</text>
<line x1="320.1" y1="516.0" x2="320.1" y2="519.0" stroke="#999"/>
<text x="320.1" y="531.0" text-anchor="end" fill="#666" transform="rotate(-50 320.1 531.0)">25.22</text>
<line x1="351.6" y1="516.0" x2="351.6" y2="519.0" stroke="#999"/>
<text x="351.6" y="531.0" text-anchor="end" fill="#666" transform="rotate(-50 351.6 531.0)">25.23</text>
<line x1="383.2" y1="516.0" x2="383.2" y2="519.0" stroke="#999"/>
<text x="383.2" y="531.0" text-anchor="end" fill="#666" transform="rotate(-50 383.2 531.0)">25.24</text>
<line x1="414.7" y1="516.0" x2="414.7" y2="519.0" stroke="#999"/>
<text x="414.7" y="531.0" text-anchor="end" fill="#666" transform="rotate(-50 414.7 531.0)">26.1</text>
<line x1="446.2" y1="516.0" x2="446.2" y2="519.0" stroke="#999"/>
<text x="446.2" y="531.0" text-anchor="end" fill="#666" transform="rotate(-50 446.2 531.0)">26.2</text>
<line x1="477.7" y1="516.0" x2="477.7" y2="519.0" stroke="#999"/>
<text x="477.7" y="531.0" text-anchor="end" fill="#666" transform="rotate(-50 477.7 531.0)">26.3</text>
<line x1="509.2" y1="516.0" x2="509.2" y2="519.0" stroke="#999"/>
<text x="509.2" y="531.0" text-anchor="end" fill="#666" transform="rotate(-50 509.2 531.0)">26.4</text>
<line x1="540.7" y1="516.0" x2="540.7" y2="519.0" stroke="#999"/>
<text x="540.7" y="531.0" text-anchor="end" fill="#666" transform="rotate(-50 540.7 531.0)">26.5</text>
<line x1="572.2" y1="516.0" x2="572.2" y2="519.0" stroke="#999"/>
<text x="572.2" y="531.0" text-anchor="end" fill="#666" transform="rotate(-50 572.2 531.0)">26.7</text>
<line x1="603.8" y1="516.0" x2="603.8" y2="519.0" stroke="#999"/>
<text x="603.8" y="531.0" text-anchor="end" fill="#666" transform="rotate(-50 603.8 531.0)">26.8</text>
<line x1="635.3" y1="516.0" x2="635.3" y2="519.0" stroke="#999"/>
<text x="635.3" y="531.0" text-anchor="end" fill="#666" transform="rotate(-50 635.3 531.0)">26.9</text>
<line x1="666.8" y1="516.0" x2="666.8" y2="519.0" stroke="#999"/>
<text x="666.8" y="531.0" text-anchor="end" fill="#666" transform="rotate(-50 666.8 531.0)">26.10</text>
<line x1="698.3" y1="516.0" x2="698.3" y2="519.0" stroke="#999"/>
<text x="698.3" y="531.0" text-anchor="end" fill="#666" transform="rotate(-50 698.3 531.0)">26.11</text>
<line x1="729.8" y1="516.0" x2="729.8" y2="519.0" stroke="#999"/>
<text x="729.8" y="531.0" text-anchor="end" fill="#666" transform="rotate(-50 729.8 531.0)">26.12</text>
<line x1="761.3" y1="516.0" x2="761.3" y2="519.0" stroke="#999"/>
<text x="761.3" y="531.0" text-anchor="end" fill="#e8731a" transform="rotate(-50 761.3 531.0)">06-25</text>
<line x1="792.8" y1="516.0" x2="792.8" y2="519.0" stroke="#999"/>
<text x="792.8" y="531.0" text-anchor="end" fill="#e8731a" transform="rotate(-50 792.8 531.0)">06-26</text>
<line x1="824.4" y1="516.0" x2="824.4" y2="519.0" stroke="#999"/>
<text x="824.4" y="531.0" text-anchor="end" fill="#e8731a" transform="rotate(-50 824.4 531.0)">06-28</text>
<line x1="855.9" y1="516.0" x2="855.9" y2="519.0" stroke="#999"/>
<text x="855.9" y="531.0" text-anchor="end" fill="#e8731a" transform="rotate(-50 855.9 531.0)">07-01</text>
<line x1="887.4" y1="516.0" x2="887.4" y2="519.0" stroke="#999"/>
<text x="887.4" y="531.0" text-anchor="end" fill="#e8731a" transform="rotate(-50 887.4 531.0)">07-02</text>
<line x1="918.9" y1="516.0" x2="918.9" y2="519.0" stroke="#999"/>
<text x="918.9" y="531.0" text-anchor="end" fill="#e8731a" transform="rotate(-50 918.9 531.0)">07-03</text>
<line x1="950.4" y1="516.0" x2="950.4" y2="519.0" stroke="#999"/>
<text x="950.4" y="531.0" text-anchor="end" fill="#e8731a" transform="rotate(-50 950.4 531.0)">07-07</text>
<line x1="981.9" y1="516.0" x2="981.9" y2="519.0" stroke="#999"/>
<text x="981.9" y="531.0" text-anchor="end" fill="#e8731a" transform="rotate(-50 981.9 531.0)">07-07</text>
<line x1="1013.5" y1="516.0" x2="1013.5" y2="519.0" stroke="#999"/>
<text x="1013.5" y="531.0" text-anchor="end" fill="#e8731a" transform="rotate(-50 1013.5 531.0)">07-09</text>
<line x1="1045.0" y1="516.0" x2="1045.0" y2="519.0" stroke="#999"/>
<text x="1045.0" y="531.0" text-anchor="end" fill="#e8731a" transform="rotate(-50 1045.0 531.0)">07-10</text>
<line x1="1076.5" y1="516.0" x2="1076.5" y2="519.0" stroke="#999"/>
<text x="1076.5" y="531.0" text-anchor="end" fill="#e8731a" transform="rotate(-50 1076.5 531.0)">07-11</text>
<line x1="1108.0" y1="516.0" x2="1108.0" y2="519.0" stroke="#999"/>
<text x="1108.0" y="531.0" text-anchor="end" fill="#e8731a" transform="rotate(-50 1108.0 531.0)">07-11</text>
<polygon points="68.0,501.2 99.5,501.4 131.0,501.7 162.5,501.0 194.1,500.2 225.6,501.0 257.1,501.1 288.6,500.5 320.1,501.0 351.6,501.4 383.2,501.5 414.7,501.4 446.2,501.2 477.7,501.4 509.2,501.1 540.7,500.7 572.2,501.0 603.8,501.0 635.3,501.2 666.8,501.1 698.3,500.7 729.8,500.6 761.3,499.3 792.8,499.1 824.4,499.2 855.9,499.3 887.4,499.5 918.9,498.8 950.4,501.6 981.9,501.4 1013.5,501.6 1045.0,501.7 1076.5,501.6 1108.0,501.3 1108.0,516.0 1076.5,516.0 1045.0,516.0 1013.5,516.0 981.9,516.0 950.4,516.0 918.9,516.0 887.4,516.0 855.9,516.0 824.4,516.0 792.8,516.0 761.3,516.0 729.8,516.0 698.3,516.0 666.8,516.0 635.3,516.0 603.8,516.0 572.2,516.0 540.7,516.0 509.2,516.0 477.7,516.0 446.2,516.0 414.7,516.0 383.2,516.0 351.6,516.0 320.1,516.0 288.6,516.0 257.1,516.0 225.6,516.0 194.1,516.0 162.5,516.0 131.0,516.0 99.5,516.0 68.0,516.0" fill="#c7e9c0" fill-opacity="0.9" stroke="#fff" stroke-width="0.4"><title>implicit_conversion — parseTranslationUnit</title></polygon>
<polygon points="68.0,325.9 99.5,309.2 131.0,308.5 162.5,289.8 194.1,244.7 225.6,298.6 257.1,274.4 288.6,279.7 320.1,267.7 351.6,284.6 383.2,291.2 414.7,288.0 446.2,288.2 477.7,284.1 509.2,288.4 540.7,287.5 572.2,265.5 603.8,259.7 635.3,263.1 666.8,257.5 698.3,338.3 729.8,341.0 761.3,324.2 792.8,320.6 824.4,323.3 855.9,324.1 887.4,324.3 918.9,320.4 950.4,320.5 981.9,324.2 1013.5,324.8 1045.0,323.8 1076.5,326.0 1108.0,318.4 1108.0,501.3 1076.5,501.6 1045.0,501.7 1013.5,501.6 981.9,501.4 950.4,501.6 918.9,498.8 887.4,499.5 855.9,499.3 824.4,499.2 792.8,499.1 761.3,499.3 729.8,500.6 698.3,500.7 666.8,501.1 635.3,501.2 603.8,501.0 572.2,501.0 540.7,500.7 509.2,501.1 477.7,501.4 446.2,501.2 414.7,501.4 383.2,501.5 351.6,501.4 320.1,501.0 288.6,500.5 257.1,501.1 225.6,501.0 194.1,500.2 162.5,501.0 131.0,501.7 99.5,501.4 68.0,501.2" fill="#41ab5d" fill-opacity="0.9" stroke="#fff" stroke-width="0.4"><title>implicit_conversion — SemanticChecking</title></polygon>
<polygon points="68.0,229.4 99.5,210.7 131.0,210.1 162.5,187.4 194.1,130.4 225.6,198.3 257.1,165.8 288.6,171.3 320.1,162.6 351.6,182.9 383.2,196.4 414.7,189.3 446.2,192.6 477.7,187.5 509.2,192.9 540.7,192.2 572.2,140.6 603.8,128.2 635.3,136.5 666.8,130.2 698.3,245.0 729.8,248.1 761.3,225.4 792.8,219.2 824.4,221.9 855.9,223.7 887.4,225.6 918.9,218.4 950.4,218.7 981.9,220.3 1013.5,222.4 1045.0,221.1 1076.5,224.3 1108.0,215.0 1108.0,318.4 1076.5,326.0 1045.0,323.8 1013.5,324.8 981.9,324.2 950.4,320.5 918.9,320.4 887.4,324.3 855.9,324.1 824.4,323.3 792.8,320.6 761.3,324.2 729.8,341.0 698.3,338.3 666.8,257.5 635.3,263.1 603.8,259.7 572.2,265.5 540.7,287.5 509.2,288.4 477.7,284.1 446.2,288.2 414.7,288.0 383.2,291.2 351.6,284.6 320.1,267.7 288.6,279.7 257.1,274.4 225.6,298.6 194.1,244.7 162.5,289.8 131.0,308.5 99.5,309.2 68.0,325.9" fill="#006d2c" fill-opacity="0.9" stroke="#fff" stroke-width="0.4"><title>implicit_conversion — generateIR</title></polygon>
<polygon points="68.0,228.8 99.5,210.7 131.0,210.1 162.5,180.8 194.1,130.4 225.6,198.3 257.1,165.8 288.6,171.3 320.1,160.0 351.6,178.9 383.2,196.4 414.7,189.3 446.2,192.6 477.7,187.5 509.2,192.1 540.7,189.8 572.2,140.6 603.8,128.2 635.3,133.0 666.8,130.2 698.3,243.4 729.8,248.1 761.3,225.4 792.8,219.2 824.4,221.1 855.9,222.6 887.4,225.3 918.9,217.6 950.4,218.7 981.9,219.7 1013.5,221.9 1045.0,220.3 1076.5,224.3 1108.0,213.2 1108.0,215.0 1076.5,224.3 1045.0,221.1 1013.5,222.4 981.9,220.3 950.4,218.7 918.9,218.4 887.4,225.6 855.9,223.7 824.4,221.9 792.8,219.2 761.3,225.4 729.8,248.1 698.3,245.0 666.8,130.2 635.3,136.5 603.8,128.2 572.2,140.6 540.7,192.2 509.2,192.9 477.7,187.5 446.2,192.6 414.7,189.3 383.2,196.4 351.6,182.9 320.1,162.6 288.6,171.3 257.1,165.8 225.6,198.3 194.1,130.4 162.5,187.4 131.0,210.1 99.5,210.7 68.0,229.4" fill="#74c476" fill-opacity="0.9" stroke="#fff" stroke-width="0.4"><title>implicit_conversion — frontEndExecute (self)</title></polygon>
<polygon points="68.0,211.6 99.5,193.6 131.0,193.0 162.5,160.1 194.1,108.6 225.6,180.2 257.1,147.1 288.6,153.0 320.1,141.1 351.6,159.8 383.2,178.3 414.7,170.5 446.2,174.9 477.7,169.4 509.2,174.3 540.7,171.7 572.2,122.1 603.8,109.6 635.3,114.6 666.8,111.7 698.3,226.5 729.8,230.8 761.3,204.6 792.8,197.8 824.4,198.9 855.9,201.5 887.4,203.7 918.9,196.8 950.4,197.4 981.9,197.4 1013.5,201.5 1045.0,199.8 1076.5,203.7 1108.0,191.9 1108.0,213.2 1076.5,224.3 1045.0,220.3 1013.5,221.9 981.9,219.7 950.4,218.7 918.9,217.6 887.4,225.3 855.9,222.6 824.4,221.1 792.8,219.2 761.3,225.4 729.8,248.1 698.3,243.4 666.8,130.2 635.3,133.0 603.8,128.2 572.2,140.6 540.7,189.8 509.2,192.1 477.7,187.5 446.2,192.6 414.7,189.3 383.2,196.4 351.6,178.9 320.1,160.0 288.6,171.3 257.1,165.8 225.6,198.3 194.1,130.4 162.5,180.8 131.0,210.1 99.5,210.7 68.0,228.8" fill="#e6550d" fill-opacity="0.9" stroke="#fff" stroke-width="0.4"><title>implicit_conversion — generateOutput (self)</title></polygon>
<polygon points="68.0,211.3 99.5,193.6 131.0,193.0 162.5,160.1 194.1,108.6 225.6,178.5 257.1,147.1 288.6,151.1 320.1,141.1 351.6,159.7 383.2,178.3 414.7,170.5 446.2,174.9 477.7,169.4 509.2,174.3 540.7,170.3 572.2,122.1 603.8,109.6 635.3,114.6 666.8,109.8 698.3,226.5 729.8,230.8 761.3,204.6 792.8,197.8 824.4,198.9 855.9,201.5 887.4,203.7 918.9,196.0 950.4,197.4 981.9,194.9 1013.5,201.5 1045.0,199.8 1076.5,203.7 1108.0,191.9 1108.0,191.9 1076.5,203.7 1045.0,199.8 1013.5,201.5 981.9,197.4 950.4,197.4 918.9,196.8 887.4,203.7 855.9,201.5 824.4,198.9 792.8,197.8 761.3,204.6 729.8,230.8 698.3,226.5 666.8,111.7 635.3,114.6 603.8,109.6 572.2,122.1 540.7,171.7 509.2,174.3 477.7,169.4 446.2,174.9 414.7,170.5 383.2,178.3 351.6,159.8 320.1,141.1 288.6,153.0 257.1,147.1 225.6,180.2 194.1,108.6 162.5,160.1 131.0,193.0 99.5,193.6 68.0,211.6" fill="#969696" fill-opacity="0.9" stroke="#fff" stroke-width="0.4"><title>implicit_conversion — compileInner (self)</title></polygon>
<text x="12" y="578" fill="#666" font-weight="600">phase buckets</text>
<rect x="12" y="586" width="12" height="12" fill="#c7e9c0"/>
<text x="28" y="596" fill="#222">parseTranslationUnit</text>
<rect x="289" y="586" width="12" height="12" fill="#41ab5d"/>
<text x="305" y="596" fill="#222">SemanticChecking</text>
<rect x="566" y="586" width="12" height="12" fill="#006d2c"/>
<text x="582" y="596" fill="#222">generateIR</text>
<rect x="843" y="586" width="12" height="12" fill="#74c476"/>
<text x="859" y="596" fill="#222">frontEndExecute (self)</text>
<rect x="12" y="604" width="12" height="12" fill="#6baed6"/>
<text x="28" y="614" fill="#222">specializeModule</text>
<rect x="289" y="604" width="12" height="12" fill="#2171b5"/>
<text x="305" y="614" fill="#222">simplifyIR</text>
<rect x="566" y="604" width="12" height="12" fill="#08306b"/>
<text x="582" y="614" fill="#222">linkIR</text>
<rect x="843" y="604" width="12" height="12" fill="#9e9ac8"/>
<text x="859" y="614" fill="#222">unrollLoopsInModule</text>
<rect x="12" y="622" width="12" height="12" fill="#807dba"/>
<text x="28" y="632" fill="#222">legalizeResourceTypes</text>
<rect x="289" y="622" width="12" height="12" fill="#6a51a3"/>
<text x="305" y="632" fill="#222">legalizeExistentialTypeLayout</text>
<rect x="566" y="622" width="12" height="12" fill="#bcbddc"/>
<text x="582" y="632" fill="#222">performMandatoryEarlyInlining</text>
<rect x="843" y="622" width="12" height="12" fill="#dadaeb"/>
<text x="859" y="632" fill="#222">performForceInlining</text>
<rect x="12" y="640" width="12" height="12" fill="#4a1486"/>
<text x="28" y="650" fill="#222">linkAndOptimizeIR (self)</text>
<rect x="289" y="640" width="12" height="12" fill="#fd8d3c"/>
<text x="305" y="650" fill="#222">emitEntryPointsSourceFromIR</text>
<rect x="566" y="640" width="12" height="12" fill="#e6550d"/>
<text x="582" y="650" fill="#222">generateOutput (self)</text>
<rect x="843" y="640" width="12" height="12" fill="#969696"/>
<text x="859" y="650" fill="#222">compileInner (self)</text>
</svg>