<svg xmlns="http://www.w3.org/2000/svg" xmlns:xlink="http://www.w3.org/1999/xlink" width="1132" height="680" viewBox="0 0 1132 680" preserveAspectRatio="xMidYMid meet" font-family="sans-serif" font-size="13">
<rect width="1132" height="680" fill="white"/>
<text x="12" y="30" font-size="20" font-weight="bold">implicit_conversion — Across releases (median ms)</text>
<text x="68" y="60" font-size="15" font-weight="600" fill="#1a1a1a">implicit_conversion<tspan fill="#888" font-weight="400" text-decoration="none">  0.66×</tspan></text>
<line x1="68.0" y1="516.0" x2="1108.0" y2="516.0" stroke="#eee"/>
<text x="64.0" y="519.0" text-anchor="end" fill="#999">0.0</text>
<line x1="68.0" y1="296.0" x2="1108.0" y2="296.0" stroke="#eee"/>
<text x="64.0" y="299.0" text-anchor="end" fill="#999">100</text>
<line x1="68.0" y1="76.0" x2="1108.0" y2="76.0" stroke="#eee"/>
<text x="64.0" y="79.0" text-anchor="end" fill="#999">200</text>
<line x1="68.0" y1="76.0" x2="68.0" y2="516.0" stroke="#333"/>
<line x1="68.0" y1="516.0" x2="1108.0" y2="516.0" stroke="#333"/>
<line x1="68.0" y1="516.0" x2="68.0" y2="519.0" stroke="#999"/>
<text x="68.0" y="531.0" text-anchor="end" fill="#666" transform="rotate(-50 68.0 531.0)">25.12</text>
<line x1="108.0" y1="516.0" x2="108.0" y2="519.0" stroke="#999"/>
<text x="108.0" y="531.0" text-anchor="end" fill="#666" transform="rotate(-50 108.0 531.0)">25.13</text>
<line x1="148.0" y1="516.0" x2="148.0" y2="519.0" stroke="#999"/>
<text x="148.0" y="531.0" text-anchor="end" fill="#666" transform="rotate(-50 148.0 531.0)">25.14</text>
<line x1="188.0" y1="516.0" x2="188.0" y2="519.0" stroke="#999"/>
<text x="188.0" y="531.0" text-anchor="end" fill="#666" transform="rotate(-50 188.0 531.0)">25.15</text>
<line x1="228.0" y1="516.0" x2="228.0" y2="519.0" stroke="#999"/>
<text x="228.0" y="531.0" text-anchor="end" fill="#666" transform="rotate(-50 228.0 531.0)">25.16</text>
<line x1="268.0" y1="516.0" x2="268.0" y2="519.0" stroke="#999"/>
<text x="268.0" y="531.0" text-anchor="end" fill="#666" transform="rotate(-50 268.0 531.0)">25.17</text>
<line x1="308.0" y1="516.0" x2="308.0" y2="519.0" stroke="#999"/>
<text x="308.0" y="531.0" text-anchor="end" fill="#666" transform="rotate(-50 308.0 531.0)">25.18</text>
<line x1="348.0" y1="516.0" x2="348.0" y2="519.0" stroke="#999"/>
<text x="348.0" y="531.0" text-anchor="end" fill="#666" transform="rotate(-50 348.0 531.0)">25.19</text>
<line x1="388.0" y1="516.0" x2="388.0" y2="519.0" stroke="#999"/>
<text x="388.0" y="531.0" text-anchor="end" fill="#666" transform="rotate(-50 388.0 531.0)">25.20</text>
<line x1="428.0" y1="516.0" x2="428.0" y2="519.0" stroke="#999"/>
<text x="428.0" y="531.0" text-anchor="end" fill="#666" transform="rotate(-50 428.0 531.0)">25.21</text>
<line x1="468.0" y1="516.0" x2="468.0" y2="519.0" stroke="#999"/>
<text x="468.0" y="531.0" text-anchor="end" fill="#666" transform="rotate(-50 468.0 531.0)">25.22</text>
<line x1="508.0" y1="516.0" x2="508.0" y2="519.0" stroke="#999"/>
<text x="508.0" y="531.0" text-anchor="end" fill="#666" transform="rotate(-50 508.0 531.0)">25.23</text>
<line x1="548.0" y1="516.0" x2="548.0" y2="519.0" stroke="#999"/>
<text x="548.0" y="531.0" text-anchor="end" fill="#666" transform="rotate(-50 548.0 531.0)">25.24</text>
<line x1="588.0" y1="516.0" x2="588.0" y2="519.0" stroke="#999"/>
<text x="588.0" y="531.0" text-anchor="end" fill="#666" transform="rotate(-50 588.0 531.0)">26.1</text>
<line x1="628.0" y1="516.0" x2="628.0" y2="519.0" stroke="#999"/>
<text x="628.0" y="531.0" text-anchor="end" fill="#666" transform="rotate(-50 628.0 531.0)">26.2</text>
<line x1="668.0" y1="516.0" x2="668.0" y2="519.0" stroke="#999"/>
<text x="668.0" y="531.0" text-anchor="end" fill="#666" transform="rotate(-50 668.0 531.0)">26.3</text>
<line x1="708.0" y1="516.0" x2="708.0" y2="519.0" stroke="#999"/>
<text x="708.0" y="531.0" text-anchor="end" fill="#666" transform="rotate(-50 708.0 531.0)">26.4</text>
<line x1="748.0" y1="516.0" x2="748.0" y2="519.0" stroke="#999"/>
<text x="748.0" y="531.0" text-anchor="end" fill="#666" transform="rotate(-50 748.0 531.0)">26.5</text>
<line x1="788.0" y1="516.0" x2="788.0" y2="519.0" stroke="#999"/>
<text x="788.0" y="531.0" text-anchor="end" fill="#666" transform="rotate(-50 788.0 531.0)">26.7</text>
<line x1="828.0" y1="516.0" x2="828.0" y2="519.0" stroke="#999"/>
<text x="828.0" y="531.0" text-anchor="end" fill="#666" transform="rotate(-50 828.0 531.0)">26.8</text>
<line x1="868.0" y1="516.0" x2="868.0" y2="519.0" stroke="#999"/>
<text x="868.0" y="531.0" text-anchor="end" fill="#666" transform="rotate(-50 868.0 531.0)">26.9</text>
<line x1="908.0" y1="516.0" x2="908.0" y2="519.0" stroke="#999"/>
<text x="908.0" y="531.0" text-anchor="end" fill="#666" transform="rotate(-50 908.0 531.0)">26.10</text>
<line x1="948.0" y1="516.0" x2="948.0" y2="519.0" stroke="#999"/>
<text x="948.0" y="531.0" text-anchor="end" fill="#666" transform="rotate(-50 948.0 531.0)">26.11</text>
<line x1="988.0" y1="516.0" x2="988.0" y2="519.0" stroke="#999"/>
<text x="988.0" y="531.0" text-anchor="end" fill="#666" transform="rotate(-50 988.0 531.0)">26.12</text>
<line x1="1028.0" y1="516.0" x2="1028.0" y2="519.0" stroke="#999"/>
<text x="1028.0" y="531.0" text-anchor="end" fill="#666" transform="rotate(-50 1028.0 531.0)">26.13</text>
<line x1="1068.0" y1="516.0" x2="1068.0" y2="519.0" stroke="#999"/>
<text x="1068.0" y="531.0" text-anchor="end" fill="#666" transform="rotate(-50 1068.0 531.0)">26.13.1</text>
<line x1="1108.0" y1="516.0" x2="1108.0" y2="519.0" stroke="#999"/>
<text x="1108.0" y="531.0" text-anchor="end" fill="#666" transform="rotate(-50 1108.0 531.0)">26.14</text>
<polygon points="68.0,505.0 108.0,502.1 148.0,502.7 188.0,503.1 228.0,503.8 268.0,503.9 308.0,504.1 348.0,503.7 388.0,503.8 428.0,503.7 468.0,503.9 508.0,504.0 548.0,503.6 588.0,503.4 628.0,503.3 668.0,503.2 708.0,502.4 748.0,503.5 788.0,502.6 828.0,502.8 868.0,502.9 908.0,501.7 948.0,501.6 988.0,503.0 1028.0,503.0 1068.0,503.0 1108.0,505.0 1108.0,516.0 1068.0,516.0 1028.0,516.0 988.0,516.0 948.0,516.0 908.0,516.0 868.0,516.0 828.0,516.0 788.0,516.0 748.0,516.0 708.0,516.0 668.0,516.0 628.0,516.0 588.0,516.0 548.0,516.0 508.0,516.0 468.0,516.0 428.0,516.0 388.0,516.0 348.0,516.0 308.0,516.0 268.0,516.0 228.0,516.0 188.0,516.0 148.0,516.0 108.0,516.0 68.0,516.0" fill="#c7e9c0" fill-opacity="0.9" stroke="#fff" stroke-width="0.4"><title>implicit_conversion — parseTranslationUnit</title></polygon>
<polygon points="68.0,359.9 108.0,353.9 148.0,334.8 188.0,322.6 228.0,338.0 268.0,337.7 308.0,337.7 348.0,337.9 388.0,333.4 428.0,337.1 468.0,326.8 508.0,326.1 548.0,325.7 588.0,324.3 628.0,324.3 668.0,323.4 708.0,316.9 748.0,318.0 788.0,276.5 828.0,300.3 868.0,300.9 908.0,261.5 948.0,336.8 988.0,366.0 1028.0,365.2 1068.0,366.5 1108.0,344.6 1108.0,505.0 1068.0,503.0 1028.0,503.0 988.0,503.0 948.0,501.6 908.0,501.7 868.0,502.9 828.0,502.8 788.0,502.6 748.0,503.5 708.0,502.4 668.0,503.2 628.0,503.3 588.0,503.4 548.0,503.6 508.0,504.0 468.0,503.9 428.0,503.7 388.0,503.8 348.0,503.7 308.0,504.1 268.0,503.9 228.0,503.8 188.0,503.1 148.0,502.7 108.0,502.1 68.0,505.0" fill="#41ab5d" fill-opacity="0.9" stroke="#fff" stroke-width="0.4"><title>implicit_conversion — SemanticChecking</title></polygon>
<polygon points="68.0,280.8 108.0,272.9 148.0,246.0 188.0,231.6 228.0,251.6 268.0,251.8 308.0,256.1 348.0,253.7 388.0,250.0 428.0,254.6 468.0,245.0 508.0,246.4 548.0,246.2 588.0,243.5 628.0,242.1 668.0,241.0 708.0,230.5 748.0,238.5 788.0,149.5 828.0,192.9 868.0,191.3 908.0,129.3 948.0,243.5 988.0,287.1 1028.0,283.7 1068.0,287.4 1108.0,274.0 1108.0,344.6 1068.0,366.5 1028.0,365.2 988.0,366.0 948.0,336.8 908.0,261.5 868.0,300.9 828.0,300.3 788.0,276.5 748.0,318.0 708.0,316.9 668.0,323.4 628.0,324.3 588.0,324.3 548.0,325.7 508.0,326.1 468.0,326.8 428.0,337.1 388.0,333.4 348.0,337.9 308.0,337.7 268.0,337.7 228.0,338.0 188.0,322.6 148.0,334.8 108.0,353.9 68.0,359.9" fill="#006d2c" fill-opacity="0.9" stroke="#fff" stroke-width="0.4"><title>implicit_conversion — generateIR</title></polygon>
<polygon points="68.0,274.2 108.0,272.0 148.0,245.6 188.0,231.6 228.0,250.2 268.0,251.8 308.0,255.1 348.0,253.7 388.0,250.0 428.0,254.3 468.0,244.8 508.0,245.6 548.0,245.2 588.0,243.2 628.0,239.3 668.0,240.9 708.0,230.3 748.0,237.8 788.0,149.5 828.0,192.9 868.0,190.9 908.0,128.9 948.0,243.5 988.0,286.2 1028.0,282.3 1068.0,286.6 1108.0,274.0 1108.0,274.0 1068.0,287.4 1028.0,283.7 988.0,287.1 948.0,243.5 908.0,129.3 868.0,191.3 828.0,192.9 788.0,149.5 748.0,238.5 708.0,230.5 668.0,241.0 628.0,242.1 588.0,243.5 548.0,246.2 508.0,246.4 468.0,245.0 428.0,254.6 388.0,250.0 348.0,253.7 308.0,256.1 268.0,251.8 228.0,251.6 188.0,231.6 148.0,246.0 108.0,272.9 68.0,280.8" fill="#74c476" fill-opacity="0.9" stroke="#fff" stroke-width="0.4"><title>implicit_conversion — frontEndExecute (self)</title></polygon>
<polygon points="68.0,133.5 108.0,257.2 148.0,229.0 188.0,216.4 228.0,235.4 268.0,235.0 308.0,238.0 348.0,238.4 388.0,235.1 428.0,239.2 468.0,229.5 508.0,230.0 548.0,230.0 588.0,227.2 628.0,224.2 668.0,225.6 708.0,214.7 748.0,222.3 788.0,131.8 828.0,177.1 868.0,175.1 908.0,110.5 948.0,227.7 988.0,271.8 1028.0,268.0 1068.0,272.0 1108.0,260.3 1108.0,274.0 1068.0,286.6 1028.0,282.3 988.0,286.2 948.0,243.5 908.0,128.9 868.0,190.9 828.0,192.9 788.0,149.5 748.0,237.8 708.0,230.3 668.0,240.9 628.0,239.3 588.0,243.2 548.0,245.2 508.0,245.6 468.0,244.8 428.0,254.3 388.0,250.0 348.0,253.7 308.0,255.1 268.0,251.8 228.0,250.2 188.0,231.6 148.0,245.6 108.0,272.0 68.0,274.2" fill="#e6550d" fill-opacity="0.9" stroke="#fff" stroke-width="0.4"><title>implicit_conversion — generateOutput (self)</title></polygon>
<polygon points="68.0,126.9 108.0,257.2 148.0,228.8 188.0,215.3 228.0,235.4 268.0,234.7 308.0,237.9 348.0,238.4 388.0,235.1 428.0,239.1 468.0,229.1 508.0,230.0 548.0,230.0 588.0,227.2 628.0,224.2 668.0,225.6 708.0,214.1 748.0,222.3 788.0,131.8 828.0,177.1 868.0,174.7 908.0,108.6 948.0,222.1 988.0,271.7 1028.0,268.0 1068.0,272.0 1108.0,259.9 1108.0,260.3 1068.0,272.0 1028.0,268.0 988.0,271.8 948.0,227.7 908.0,110.5 868.0,175.1 828.0,177.1 788.0,131.8 748.0,222.3 708.0,214.7 668.0,225.6 628.0,224.2 588.0,227.2 548.0,230.0 508.0,230.0 468.0,229.5 428.0,239.2 388.0,235.1 348.0,238.4 308.0,238.0 268.0,235.0 228.0,235.4 188.0,216.4 148.0,229.0 108.0,257.2 68.0,133.5" fill="#969696" fill-opacity="0.9" stroke="#fff" stroke-width="0.4"><title>implicit_conversion — compileInner (self)</title></polygon>
<text x="12" y="578" fill="#666" font-weight="600">phase buckets</text>
<rect x="12" y="586" width="12" height="12" fill="#c7e9c0"/>
<text x="28" y="596" fill="#222">parseTranslationUnit</text>
<rect x="289" y="586" width="12" height="12" fill="#41ab5d"/>
<text x="305" y="596" fill="#222">SemanticChecking</text>
<rect x="566" y="586" width="12" height="12" fill="#006d2c"/>
<text x="582" y="596" fill="#222">generateIR</text>
<rect x="843" y="586" width="12" height="12" fill="#74c476"/>
<text x="859" y="596" fill="#222">frontEndExecute (self)</text>
<rect x="12" y="604" width="12" height="12" fill="#6baed6"/>
<text x="28" y="614" fill="#222">specializeModule</text>
<rect x="289" y="604" width="12" height="12" fill="#2171b5"/>
<text x="305" y="614" fill="#222">simplifyIR</text>
<rect x="566" y="604" width="12" height="12" fill="#08306b"/>
<text x="582" y="614" fill="#222">linkIR</text>
<rect x="843" y="604" width="12" height="12" fill="#9e9ac8"/>
<text x="859" y="614" fill="#222">unrollLoopsInModule</text>
<rect x="12" y="622" width="12" height="12" fill="#807dba"/>
<text x="28" y="632" fill="#222">legalizeResourceTypes</text>
<rect x="289" y="622" width="12" height="12" fill="#6a51a3"/>
<text x="305" y="632" fill="#222">legalizeExistentialTypeLayout</text>
<rect x="566" y="622" width="12" height="12" fill="#bcbddc"/>
<text x="582" y="632" fill="#222">performMandatoryEarlyInlining</text>
<rect x="843" y="622" width="12" height="12" fill="#dadaeb"/>
<text x="859" y="632" fill="#222">performForceInlining</text>
<rect x="12" y="640" width="12" height="12" fill="#4a1486"/>
<text x="28" y="650" fill="#222">linkAndOptimizeIR (self)</text>
<rect x="289" y="640" width="12" height="12" fill="#fd8d3c"/>
<text x="305" y="650" fill="#222">emitEntryPointsSourceFromIR</text>
<rect x="566" y="640" width="12" height="12" fill="#e6550d"/>
<text x="582" y="650" fill="#222">generateOutput (self)</text>
<rect x="843" y="640" width="12" height="12" fill="#969696"/>
<text x="859" y="650" fill="#222">compileInner (self)</text>
</svg>