<svg xmlns="http://www.w3.org/2000/svg" xmlns:xlink="http://www.w3.org/1999/xlink" width="1132" height="680" viewBox="0 0 1132 680" preserveAspectRatio="xMidYMid meet" font-family="sans-serif" font-size="13">
<rect width="1132" height="680" fill="white"/>
<text x="12" y="30" font-size="20" font-weight="bold">implicit_conversion — Across releases (median ms)</text>
<text x="68" y="60" font-size="15" font-weight="600" fill="#1a1a1a">implicit_conversion<tspan fill="#888" font-weight="400" text-decoration="none">  0.64×</tspan></text>
<line x1="68.0" y1="516.0" x2="1108.0" y2="516.0" stroke="#eee"/>
<text x="64.0" y="519.0" text-anchor="end" fill="#999">0.0</text>
<line x1="68.0" y1="296.0" x2="1108.0" y2="296.0" stroke="#eee"/>
<text x="64.0" y="299.0" text-anchor="end" fill="#999">97</text>
<line x1="68.0" y1="76.0" x2="1108.0" y2="76.0" stroke="#eee"/>
<text x="64.0" y="79.0" text-anchor="end" fill="#999">195</text>
<line x1="68.0" y1="76.0" x2="68.0" y2="516.0" stroke="#333"/>
<line x1="68.0" y1="516.0" x2="1108.0" y2="516.0" stroke="#333"/>
<line x1="68.0" y1="516.0" x2="68.0" y2="519.0" stroke="#999"/>
<text x="68.0" y="531.0" text-anchor="end" fill="#666" transform="rotate(-50 68.0 531.0)">25.12</text>
<line x1="113.2" y1="516.0" x2="113.2" y2="519.0" stroke="#999"/>
<text x="113.2" y="531.0" text-anchor="end" fill="#666" transform="rotate(-50 113.2 531.0)">25.13</text>
<line x1="158.4" y1="516.0" x2="158.4" y2="519.0" stroke="#999"/>
<text x="158.4" y="531.0" text-anchor="end" fill="#666" transform="rotate(-50 158.4 531.0)">25.14</text>
<line x1="203.7" y1="516.0" x2="203.7" y2="519.0" stroke="#999"/>
<text x="203.7" y="531.0" text-anchor="end" fill="#666" transform="rotate(-50 203.7 531.0)">25.15</text>
<line x1="248.9" y1="516.0" x2="248.9" y2="519.0" stroke="#999"/>
<text x="248.9" y="531.0" text-anchor="end" fill="#666" transform="rotate(-50 248.9 531.0)">25.16</text>
<line x1="294.1" y1="516.0" x2="294.1" y2="519.0" stroke="#999"/>
<text x="294.1" y="531.0" text-anchor="end" fill="#666" transform="rotate(-50 294.1 531.0)">25.17</text>
<line x1="339.3" y1="516.0" x2="339.3" y2="519.0" stroke="#999"/>
<text x="339.3" y="531.0" text-anchor="end" fill="#666" transform="rotate(-50 339.3 531.0)">25.18</text>
<line x1="384.5" y1="516.0" x2="384.5" y2="519.0" stroke="#999"/>
<text x="384.5" y="531.0" text-anchor="end" fill="#666" transform="rotate(-50 384.5 531.0)">25.19</text>
<line x1="429.7" y1="516.0" x2="429.7" y2="519.0" stroke="#999"/>
<text x="429.7" y="531.0" text-anchor="end" fill="#666" transform="rotate(-50 429.7 531.0)">25.20</text>
<line x1="475.0" y1="516.0" x2="475.0" y2="519.0" stroke="#999"/>
<text x="475.0" y="531.0" text-anchor="end" fill="#666" transform="rotate(-50 475.0 531.0)">25.21</text>
<line x1="520.2" y1="516.0" x2="520.2" y2="519.0" stroke="#999"/>
<text x="520.2" y="531.0" text-anchor="end" fill="#666" transform="rotate(-50 520.2 531.0)">25.22</text>
<line x1="565.4" y1="516.0" x2="565.4" y2="519.0" stroke="#999"/>
<text x="565.4" y="531.0" text-anchor="end" fill="#666" transform="rotate(-50 565.4 531.0)">25.23</text>
<line x1="610.6" y1="516.0" x2="610.6" y2="519.0" stroke="#999"/>
<text x="610.6" y="531.0" text-anchor="end" fill="#666" transform="rotate(-50 610.6 531.0)">25.24</text>
<line x1="655.8" y1="516.0" x2="655.8" y2="519.0" stroke="#999"/>
<text x="655.8" y="531.0" text-anchor="end" fill="#666" transform="rotate(-50 655.8 531.0)">26.1</text>
<line x1="701.0" y1="516.0" x2="701.0" y2="519.0" stroke="#999"/>
<text x="701.0" y="531.0" text-anchor="end" fill="#666" transform="rotate(-50 701.0 531.0)">26.2</text>
<line x1="746.3" y1="516.0" x2="746.3" y2="519.0" stroke="#999"/>
<text x="746.3" y="531.0" text-anchor="end" fill="#666" transform="rotate(-50 746.3 531.0)">26.3</text>
<line x1="791.5" y1="516.0" x2="791.5" y2="519.0" stroke="#999"/>
<text x="791.5" y="531.0" text-anchor="end" fill="#666" transform="rotate(-50 791.5 531.0)">26.4</text>
<line x1="836.7" y1="516.0" x2="836.7" y2="519.0" stroke="#999"/>
<text x="836.7" y="531.0" text-anchor="end" fill="#666" transform="rotate(-50 836.7 531.0)">26.5</text>
<line x1="881.9" y1="516.0" x2="881.9" y2="519.0" stroke="#999"/>
<text x="881.9" y="531.0" text-anchor="end" fill="#666" transform="rotate(-50 881.9 531.0)">26.7</text>
<line x1="927.1" y1="516.0" x2="927.1" y2="519.0" stroke="#999"/>
<text x="927.1" y="531.0" text-anchor="end" fill="#666" transform="rotate(-50 927.1 531.0)">26.8</text>
<line x1="972.3" y1="516.0" x2="972.3" y2="519.0" stroke="#999"/>
<text x="972.3" y="531.0" text-anchor="end" fill="#666" transform="rotate(-50 972.3 531.0)">26.9</text>
<line x1="1017.6" y1="516.0" x2="1017.6" y2="519.0" stroke="#999"/>
<text x="1017.6" y="531.0" text-anchor="end" fill="#666" transform="rotate(-50 1017.6 531.0)">26.10</text>
<line x1="1062.8" y1="516.0" x2="1062.8" y2="519.0" stroke="#999"/>
<text x="1062.8" y="531.0" text-anchor="end" fill="#666" transform="rotate(-50 1062.8 531.0)">26.11</text>
<line x1="1108.0" y1="516.0" x2="1108.0" y2="519.0" stroke="#999"/>
<text x="1108.0" y="531.0" text-anchor="end" fill="#666" transform="rotate(-50 1108.0 531.0)">26.12</text>
<polygon points="68.0,504.7 113.2,501.7 158.4,502.3 203.7,502.8 248.9,503.4 294.1,503.5 339.3,503.8 384.5,503.4 429.7,503.5 475.0,503.4 520.2,503.6 565.4,503.7 610.6,503.3 655.8,503.1 701.0,502.9 746.3,502.9 791.5,502.9 836.7,503.0 881.9,503.1 927.1,502.1 972.3,502.5 1017.6,503.0 1062.8,502.6 1108.0,502.4 1108.0,516.0 1062.8,516.0 1017.6,516.0 972.3,516.0 927.1,516.0 881.9,516.0 836.7,516.0 791.5,516.0 746.3,516.0 701.0,516.0 655.8,516.0 610.6,516.0 565.4,516.0 520.2,516.0 475.0,516.0 429.7,516.0 384.5,516.0 339.3,516.0 294.1,516.0 248.9,516.0 203.7,516.0 158.4,516.0 113.2,516.0 68.0,516.0" fill="#c7e9c0" fill-opacity="0.9" stroke="#fff" stroke-width="0.4"><title>implicit_conversion — parseTranslationUnit</title></polygon>
<polygon points="68.0,355.7 113.2,349.5 158.4,329.9 203.7,317.3 248.9,333.1 294.1,332.8 339.3,332.9 384.5,333.1 429.7,328.4 475.0,332.3 520.2,321.7 565.4,320.9 610.6,320.5 655.8,320.6 701.0,316.8 746.3,311.9 791.5,315.9 836.7,312.6 881.9,282.0 927.1,265.0 972.3,272.9 1017.6,287.5 1062.8,363.2 1108.0,359.5 1108.0,502.4 1062.8,502.6 1017.6,503.0 972.3,502.5 927.1,502.1 881.9,503.1 836.7,503.0 791.5,502.9 746.3,502.9 701.0,502.9 655.8,503.1 610.6,503.3 565.4,503.7 520.2,503.6 475.0,503.4 429.7,503.5 384.5,503.4 339.3,503.8 294.1,503.5 248.9,503.4 203.7,502.8 158.4,502.3 113.2,501.7 68.0,504.7" fill="#41ab5d" fill-opacity="0.9" stroke="#fff" stroke-width="0.4"><title>implicit_conversion — SemanticChecking</title></polygon>
<polygon points="68.0,274.4 113.2,266.3 158.4,238.7 203.7,223.9 248.9,244.4 294.1,244.6 339.3,249.0 384.5,246.6 429.7,242.7 475.0,247.5 520.2,237.7 565.4,239.1 610.6,238.8 655.8,238.6 701.0,233.4 746.3,228.4 791.5,232.9 836.7,229.8 881.9,167.2 927.1,126.8 972.3,149.6 1017.6,170.1 1062.8,283.0 1108.0,276.9 1108.0,359.5 1062.8,363.2 1017.6,287.5 972.3,272.9 927.1,265.0 881.9,282.0 836.7,312.6 791.5,315.9 746.3,311.9 701.0,316.8 655.8,320.6 610.6,320.5 565.4,320.9 520.2,321.7 475.0,332.3 429.7,328.4 384.5,333.1 339.3,332.9 294.1,332.8 248.9,333.1 203.7,317.3 158.4,329.9 113.2,349.5 68.0,355.7" fill="#006d2c" fill-opacity="0.9" stroke="#fff" stroke-width="0.4"><title>implicit_conversion — generateIR</title></polygon>
<polygon points="68.0,267.6 113.2,265.3 158.4,238.2 203.7,223.9 248.9,243.0 294.1,244.6 339.3,248.0 384.5,246.6 429.7,242.7 475.0,247.2 520.2,237.4 565.4,238.3 610.6,237.8 655.8,238.6 701.0,233.0 746.3,227.2 791.5,232.8 836.7,229.8 881.9,166.4 927.1,126.8 972.3,148.1 1017.6,165.0 1062.8,281.1 1108.0,276.3 1108.0,276.9 1062.8,283.0 1017.6,170.1 972.3,149.6 927.1,126.8 881.9,167.2 836.7,229.8 791.5,232.9 746.3,228.4 701.0,233.4 655.8,238.6 610.6,238.8 565.4,239.1 520.2,237.7 475.0,247.5 429.7,242.7 384.5,246.6 339.3,249.0 294.1,244.6 248.9,244.4 203.7,223.9 158.4,238.7 113.2,266.3 68.0,274.4" fill="#74c476" fill-opacity="0.9" stroke="#fff" stroke-width="0.4"><title>implicit_conversion — frontEndExecute (self)</title></polygon>
<polygon points="68.0,123.1 113.2,250.2 158.4,221.2 203.7,208.2 248.9,227.7 294.1,227.3 339.3,230.5 384.5,230.9 429.7,227.5 475.0,231.7 520.2,221.7 565.4,222.2 610.6,222.2 655.8,222.5 701.0,217.3 746.3,211.7 791.5,216.5 836.7,214.1 881.9,150.0 927.1,109.7 972.3,131.1 1017.6,145.8 1062.8,266.1 1108.0,261.4 1108.0,276.3 1062.8,281.1 1017.6,165.0 972.3,148.1 927.1,126.8 881.9,166.4 836.7,229.8 791.5,232.8 746.3,227.2 701.0,233.0 655.8,238.6 610.6,237.8 565.4,238.3 520.2,237.4 475.0,247.2 429.7,242.7 384.5,246.6 339.3,248.0 294.1,244.6 248.9,243.0 203.7,223.9 158.4,238.2 113.2,265.3 68.0,267.6" fill="#e6550d" fill-opacity="0.9" stroke="#fff" stroke-width="0.4"><title>implicit_conversion — generateOutput (self)</title></polygon>
<polygon points="68.0,116.3 113.2,250.2 158.4,220.9 203.7,207.1 248.9,227.7 294.1,227.0 339.3,230.3 384.5,230.9 429.7,227.5 475.0,231.6 520.2,221.3 565.4,222.2 610.6,222.2 655.8,218.6 701.0,217.1 746.3,211.7 791.5,216.5 836.7,214.0 881.9,150.0 927.1,108.6 972.3,131.1 1017.6,143.2 1062.8,265.7 1108.0,261.4 1108.0,261.4 1062.8,266.1 1017.6,145.8 972.3,131.1 927.1,109.7 881.9,150.0 836.7,214.1 791.5,216.5 746.3,211.7 701.0,217.3 655.8,222.5 610.6,222.2 565.4,222.2 520.2,221.7 475.0,231.7 429.7,227.5 384.5,230.9 339.3,230.5 294.1,227.3 248.9,227.7 203.7,208.2 158.4,221.2 113.2,250.2 68.0,123.1" fill="#969696" fill-opacity="0.9" stroke="#fff" stroke-width="0.4"><title>implicit_conversion — compileInner (self)</title></polygon>
<text x="12" y="578" fill="#666" font-weight="600">phase buckets</text>
<rect x="12" y="586" width="12" height="12" fill="#c7e9c0"/>
<text x="28" y="596" fill="#222">parseTranslationUnit</text>
<rect x="289" y="586" width="12" height="12" fill="#41ab5d"/>
<text x="305" y="596" fill="#222">SemanticChecking</text>
<rect x="566" y="586" width="12" height="12" fill="#006d2c"/>
<text x="582" y="596" fill="#222">generateIR</text>
<rect x="843" y="586" width="12" height="12" fill="#74c476"/>
<text x="859" y="596" fill="#222">frontEndExecute (self)</text>
<rect x="12" y="604" width="12" height="12" fill="#6baed6"/>
<text x="28" y="614" fill="#222">specializeModule</text>
<rect x="289" y="604" width="12" height="12" fill="#2171b5"/>
<text x="305" y="614" fill="#222">simplifyIR</text>
<rect x="566" y="604" width="12" height="12" fill="#08306b"/>
<text x="582" y="614" fill="#222">linkIR</text>
<rect x="843" y="604" width="12" height="12" fill="#9e9ac8"/>
<text x="859" y="614" fill="#222">unrollLoopsInModule</text>
<rect x="12" y="622" width="12" height="12" fill="#807dba"/>
<text x="28" y="632" fill="#222">legalizeResourceTypes</text>
<rect x="289" y="622" width="12" height="12" fill="#6a51a3"/>
<text x="305" y="632" fill="#222">legalizeExistentialTypeLayout</text>
<rect x="566" y="622" width="12" height="12" fill="#bcbddc"/>
<text x="582" y="632" fill="#222">performMandatoryEarlyInlining</text>
<rect x="843" y="622" width="12" height="12" fill="#dadaeb"/>
<text x="859" y="632" fill="#222">performForceInlining</text>
<rect x="12" y="640" width="12" height="12" fill="#4a1486"/>
<text x="28" y="650" fill="#222">linkAndOptimizeIR (self)</text>
<rect x="289" y="640" width="12" height="12" fill="#fd8d3c"/>
<text x="305" y="650" fill="#222">emitEntryPointsSourceFromIR</text>
<rect x="566" y="640" width="12" height="12" fill="#e6550d"/>
<text x="582" y="650" fill="#222">generateOutput (self)</text>
<rect x="843" y="640" width="12" height="12" fill="#969696"/>
<text x="859" y="650" fill="#222">compileInner (self)</text>
</svg>