<svg xmlns="http://www.w3.org/2000/svg" xmlns:xlink="http://www.w3.org/1999/xlink" width="1132" height="680" viewBox="0 0 1132 680" preserveAspectRatio="xMidYMid meet" font-family="sans-serif" font-size="13">
<rect width="1132" height="680" fill="white"/>
<text x="12" y="30" font-size="20" font-weight="bold">implicit_conversion — Daily tip-of-tree (last 30 days) (median ms)</text>
<text x="68" y="60" font-size="15" font-weight="600" fill="#1a1a1a">implicit_conversion<tspan fill="#888" font-weight="400" text-decoration="none">  0.98×</tspan></text>
<line x1="68.0" y1="516.0" x2="1108.0" y2="516.0" stroke="#eee"/>
<text x="64.0" y="519.0" text-anchor="end" fill="#999">0.0</text>
<line x1="68.0" y1="296.0" x2="1108.0" y2="296.0" stroke="#eee"/>
<text x="64.0" y="299.0" text-anchor="end" fill="#999">70</text>
<line x1="68.0" y1="76.0" x2="1108.0" y2="76.0" stroke="#eee"/>
<text x="64.0" y="79.0" text-anchor="end" fill="#999">140</text>
<line x1="68.0" y1="76.0" x2="68.0" y2="516.0" stroke="#333"/>
<line x1="68.0" y1="516.0" x2="1108.0" y2="516.0" stroke="#333"/>
<line x1="68.0" y1="516.0" x2="68.0" y2="519.0" stroke="#999"/>
<text x="68.0" y="531.0" text-anchor="end" fill="#e8731a" transform="rotate(-50 68.0 531.0)">06-25</text>
<line x1="120.0" y1="516.0" x2="120.0" y2="519.0" stroke="#999"/>
<text x="120.0" y="531.0" text-anchor="end" fill="#e8731a" transform="rotate(-50 120.0 531.0)">06-26</text>
<line x1="172.0" y1="516.0" x2="172.0" y2="519.0" stroke="#999"/>
<text x="172.0" y="531.0" text-anchor="end" fill="#e8731a" transform="rotate(-50 172.0 531.0)">06-28</text>
<line x1="224.0" y1="516.0" x2="224.0" y2="519.0" stroke="#999"/>
<text x="224.0" y="531.0" text-anchor="end" fill="#e8731a" transform="rotate(-50 224.0 531.0)">07-01</text>
<line x1="276.0" y1="516.0" x2="276.0" y2="519.0" stroke="#999"/>
<text x="276.0" y="531.0" text-anchor="end" fill="#e8731a" transform="rotate(-50 276.0 531.0)">07-02</text>
<line x1="328.0" y1="516.0" x2="328.0" y2="519.0" stroke="#999"/>
<text x="328.0" y="531.0" text-anchor="end" fill="#e8731a" transform="rotate(-50 328.0 531.0)">07-03</text>
<line x1="380.0" y1="516.0" x2="380.0" y2="519.0" stroke="#999"/>
<text x="380.0" y="531.0" text-anchor="end" fill="#e8731a" transform="rotate(-50 380.0 531.0)">07-06</text>
<line x1="432.0" y1="516.0" x2="432.0" y2="519.0" stroke="#999"/>
<text x="432.0" y="531.0" text-anchor="end" fill="#e8731a" transform="rotate(-50 432.0 531.0)">07-07</text>
<line x1="484.0" y1="516.0" x2="484.0" y2="519.0" stroke="#999"/>
<text x="484.0" y="531.0" text-anchor="end" fill="#e8731a" transform="rotate(-50 484.0 531.0)">07-08</text>
<line x1="536.0" y1="516.0" x2="536.0" y2="519.0" stroke="#999"/>
<text x="536.0" y="531.0" text-anchor="end" fill="#e8731a" transform="rotate(-50 536.0 531.0)">07-09</text>
<line x1="588.0" y1="516.0" x2="588.0" y2="519.0" stroke="#999"/>
<text x="588.0" y="531.0" text-anchor="end" fill="#e8731a" transform="rotate(-50 588.0 531.0)">07-10</text>
<line x1="640.0" y1="516.0" x2="640.0" y2="519.0" stroke="#999"/>
<text x="640.0" y="531.0" text-anchor="end" fill="#e8731a" transform="rotate(-50 640.0 531.0)">07-11</text>
<line x1="692.0" y1="516.0" x2="692.0" y2="519.0" stroke="#999"/>
<text x="692.0" y="531.0" text-anchor="end" fill="#e8731a" transform="rotate(-50 692.0 531.0)">07-14</text>
<line x1="744.0" y1="516.0" x2="744.0" y2="519.0" stroke="#999"/>
<text x="744.0" y="531.0" text-anchor="end" fill="#e8731a" transform="rotate(-50 744.0 531.0)">07-15</text>
<line x1="796.0" y1="516.0" x2="796.0" y2="519.0" stroke="#999"/>
<text x="796.0" y="531.0" text-anchor="end" fill="#e8731a" transform="rotate(-50 796.0 531.0)">07-15</text>
<line x1="848.0" y1="516.0" x2="848.0" y2="519.0" stroke="#999"/>
<text x="848.0" y="531.0" text-anchor="end" fill="#e8731a" transform="rotate(-50 848.0 531.0)">07-16</text>
<line x1="900.0" y1="516.0" x2="900.0" y2="519.0" stroke="#999"/>
<text x="900.0" y="531.0" text-anchor="end" fill="#e8731a" transform="rotate(-50 900.0 531.0)">07-17</text>
<line x1="952.0" y1="516.0" x2="952.0" y2="519.0" stroke="#999"/>
<text x="952.0" y="531.0" text-anchor="end" fill="#e8731a" transform="rotate(-50 952.0 531.0)">07-18</text>
<line x1="1004.0" y1="516.0" x2="1004.0" y2="519.0" stroke="#999"/>
<text x="1004.0" y="531.0" text-anchor="end" fill="#e8731a" transform="rotate(-50 1004.0 531.0)">07-19</text>
<line x1="1056.0" y1="516.0" x2="1056.0" y2="519.0" stroke="#999"/>
<text x="1056.0" y="531.0" text-anchor="end" fill="#e8731a" transform="rotate(-50 1056.0 531.0)">07-20</text>
<line x1="1108.0" y1="516.0" x2="1108.0" y2="519.0" stroke="#999"/>
<text x="1108.0" y="531.0" text-anchor="end" fill="#e8731a" transform="rotate(-50 1108.0 531.0)">07-21</text>
<polygon points="68.0,495.8 120.0,495.5 172.0,495.7 224.0,495.4 276.0,495.7 328.0,496.1 380.0,495.3 432.0,498.5 484.0,498.4 536.0,498.6 588.0,498.6 640.0,498.4 692.0,498.6 744.0,500.0 796.0,500.2 848.0,500.1 900.0,499.9 952.0,502.0 1004.0,502.0 1056.0,501.6 1108.0,502.0 1108.0,516.0 1056.0,516.0 1004.0,516.0 952.0,516.0 900.0,516.0 848.0,516.0 796.0,516.0 744.0,516.0 692.0,516.0 640.0,516.0 588.0,516.0 536.0,516.0 484.0,516.0 432.0,516.0 380.0,516.0 328.0,516.0 276.0,516.0 224.0,516.0 172.0,516.0 120.0,516.0 68.0,516.0" fill="#c7e9c0" fill-opacity="0.9" stroke="#fff" stroke-width="0.4"><title>implicit_conversion — parseTranslationUnit</title></polygon>
<polygon points="68.0,283.7 120.0,283.0 172.0,285.0 224.0,285.4 276.0,283.8 328.0,284.9 380.0,282.7 432.0,287.6 484.0,287.8 536.0,285.9 588.0,286.3 640.0,280.6 692.0,283.5 744.0,303.6 796.0,305.1 848.0,252.7 900.0,248.1 952.0,269.4 1004.0,269.8 1056.0,268.3 1108.0,269.9 1108.0,502.0 1056.0,501.6 1004.0,502.0 952.0,502.0 900.0,499.9 848.0,500.1 796.0,500.2 744.0,500.0 692.0,498.6 640.0,498.4 588.0,498.6 536.0,498.6 484.0,498.4 432.0,498.5 380.0,495.3 328.0,496.1 276.0,495.7 224.0,495.4 172.0,495.7 120.0,495.5 68.0,495.8" fill="#41ab5d" fill-opacity="0.9" stroke="#fff" stroke-width="0.4"><title>implicit_conversion — SemanticChecking</title></polygon>
<polygon points="68.0,163.8 120.0,163.2 172.0,166.2 224.0,167.3 276.0,163.5 328.0,164.0 380.0,162.0 432.0,167.3 484.0,165.6 536.0,165.3 588.0,165.3 640.0,157.3 692.0,162.3 744.0,186.9 796.0,189.3 848.0,137.9 900.0,134.7 952.0,166.6 1004.0,167.6 1056.0,167.3 1108.0,168.0 1108.0,269.9 1056.0,268.3 1004.0,269.8 952.0,269.4 900.0,248.1 848.0,252.7 796.0,305.1 744.0,303.6 692.0,283.5 640.0,280.6 588.0,286.3 536.0,285.9 484.0,287.8 432.0,287.6 380.0,282.7 328.0,284.9 276.0,283.8 224.0,285.4 172.0,285.0 120.0,283.0 68.0,283.7" fill="#006d2c" fill-opacity="0.9" stroke="#fff" stroke-width="0.4"><title>implicit_conversion — generateIR</title></polygon>
<polygon points="68.0,162.9 120.0,162.9 172.0,165.4 224.0,165.5 276.0,161.3 328.0,161.9 380.0,160.8 432.0,166.9 484.0,163.8 536.0,164.6 588.0,165.3 640.0,155.2 692.0,162.3 744.0,184.2 796.0,189.3 848.0,137.1 900.0,134.5 952.0,164.8 1004.0,167.4 1056.0,167.3 1108.0,166.7 1108.0,168.0 1056.0,167.3 1004.0,167.6 952.0,166.6 900.0,134.7 848.0,137.9 796.0,189.3 744.0,186.9 692.0,162.3 640.0,157.3 588.0,165.3 536.0,165.3 484.0,165.6 432.0,167.3 380.0,162.0 328.0,164.0 276.0,163.5 224.0,167.3 172.0,166.2 120.0,163.2 68.0,163.8" fill="#74c476" fill-opacity="0.9" stroke="#fff" stroke-width="0.4"><title>implicit_conversion — frontEndExecute (self)</title></polygon>
<polygon points="68.0,138.2 120.0,138.0 172.0,139.0 224.0,141.2 276.0,135.0 328.0,137.2 380.0,136.4 432.0,141.7 484.0,137.3 536.0,139.7 588.0,140.7 640.0,129.8 692.0,137.7 744.0,159.0 796.0,164.4 848.0,112.2 900.0,109.6 952.0,142.2 1004.0,145.0 1056.0,145.7 1108.0,145.3 1108.0,166.7 1056.0,167.3 1004.0,167.4 952.0,164.8 900.0,134.5 848.0,137.1 796.0,189.3 744.0,184.2 692.0,162.3 640.0,155.2 588.0,165.3 536.0,164.6 484.0,163.8 432.0,166.9 380.0,160.8 328.0,161.9 276.0,161.3 224.0,165.5 172.0,165.4 120.0,162.9 68.0,162.9" fill="#e6550d" fill-opacity="0.9" stroke="#fff" stroke-width="0.4"><title>implicit_conversion — generateOutput (self)</title></polygon>
<polygon points="68.0,138.2 120.0,138.0 172.0,138.6 224.0,141.2 276.0,134.8 328.0,137.2 380.0,135.8 432.0,141.7 484.0,132.8 536.0,139.2 588.0,140.1 640.0,129.8 692.0,137.4 744.0,158.6 796.0,164.4 848.0,111.8 900.0,108.6 952.0,142.2 1004.0,145.0 1056.0,145.7 1108.0,145.3 1108.0,145.3 1056.0,145.7 1004.0,145.0 952.0,142.2 900.0,109.6 848.0,112.2 796.0,164.4 744.0,159.0 692.0,137.7 640.0,129.8 588.0,140.7 536.0,139.7 484.0,137.3 432.0,141.7 380.0,136.4 328.0,137.2 276.0,135.0 224.0,141.2 172.0,139.0 120.0,138.0 68.0,138.2" fill="#969696" fill-opacity="0.9" stroke="#fff" stroke-width="0.4"><title>implicit_conversion — compileInner (self)</title></polygon>
<text x="12" y="578" fill="#666" font-weight="600">phase buckets</text>
<rect x="12" y="586" width="12" height="12" fill="#c7e9c0"/>
<text x="28" y="596" fill="#222">parseTranslationUnit</text>
<rect x="289" y="586" width="12" height="12" fill="#41ab5d"/>
<text x="305" y="596" fill="#222">SemanticChecking</text>
<rect x="566" y="586" width="12" height="12" fill="#006d2c"/>
<text x="582" y="596" fill="#222">generateIR</text>
<rect x="843" y="586" width="12" height="12" fill="#74c476"/>
<text x="859" y="596" fill="#222">frontEndExecute (self)</text>
<rect x="12" y="604" width="12" height="12" fill="#6baed6"/>
<text x="28" y="614" fill="#222">specializeModule</text>
<rect x="289" y="604" width="12" height="12" fill="#2171b5"/>
<text x="305" y="614" fill="#222">simplifyIR</text>
<rect x="566" y="604" width="12" height="12" fill="#08306b"/>
<text x="582" y="614" fill="#222">linkIR</text>
<rect x="843" y="604" width="12" height="12" fill="#9e9ac8"/>
<text x="859" y="614" fill="#222">unrollLoopsInModule</text>
<rect x="12" y="622" width="12" height="12" fill="#807dba"/>
<text x="28" y="632" fill="#222">legalizeResourceTypes</text>
<rect x="289" y="622" width="12" height="12" fill="#6a51a3"/>
<text x="305" y="632" fill="#222">legalizeExistentialTypeLayout</text>
<rect x="566" y="622" width="12" height="12" fill="#bcbddc"/>
<text x="582" y="632" fill="#222">performMandatoryEarlyInlining</text>
<rect x="843" y="622" width="12" height="12" fill="#dadaeb"/>
<text x="859" y="632" fill="#222">performForceInlining</text>
<rect x="12" y="640" width="12" height="12" fill="#4a1486"/>
<text x="28" y="650" fill="#222">linkAndOptimizeIR (self)</text>
<rect x="289" y="640" width="12" height="12" fill="#fd8d3c"/>
<text x="305" y="650" fill="#222">emitEntryPointsSourceFromIR</text>
<rect x="566" y="640" width="12" height="12" fill="#e6550d"/>
<text x="582" y="650" fill="#222">generateOutput (self)</text>
<rect x="843" y="640" width="12" height="12" fill="#969696"/>
<text x="859" y="650" fill="#222">compileInner (self)</text>
</svg>