<svg xmlns="http://www.w3.org/2000/svg" xmlns:xlink="http://www.w3.org/1999/xlink" width="1132" height="680" viewBox="0 0 1132 680" preserveAspectRatio="xMidYMid meet" font-family="sans-serif" font-size="13">
<rect width="1132" height="680" fill="white"/>
<text x="12" y="30" font-size="20" font-weight="bold">implicit_conversion — Daily tip-of-tree (last 30 days) (median ms)</text>
<text x="68" y="60" font-size="15" font-weight="600" fill="#1a1a1a">implicit_conversion<tspan fill="#888" font-weight="400" text-decoration="none">  0.98×</tspan></text>
<line x1="68.0" y1="516.0" x2="1108.0" y2="516.0" stroke="#eee"/>
<text x="64.0" y="519.0" text-anchor="end" fill="#999">0.0</text>
<line x1="68.0" y1="296.0" x2="1108.0" y2="296.0" stroke="#eee"/>
<text x="64.0" y="299.0" text-anchor="end" fill="#999">70</text>
<line x1="68.0" y1="76.0" x2="1108.0" y2="76.0" stroke="#eee"/>
<text x="64.0" y="79.0" text-anchor="end" fill="#999">140</text>
<line x1="68.0" y1="76.0" x2="68.0" y2="516.0" stroke="#333"/>
<line x1="68.0" y1="516.0" x2="1108.0" y2="516.0" stroke="#333"/>
<line x1="68.0" y1="516.0" x2="68.0" y2="519.0" stroke="#999"/>
<text x="68.0" y="531.0" text-anchor="end" fill="#e8731a" transform="rotate(-50 68.0 531.0)">06-25</text>
<line x1="122.7" y1="516.0" x2="122.7" y2="519.0" stroke="#999"/>
<text x="122.7" y="531.0" text-anchor="end" fill="#e8731a" transform="rotate(-50 122.7 531.0)">06-26</text>
<line x1="177.5" y1="516.0" x2="177.5" y2="519.0" stroke="#999"/>
<text x="177.5" y="531.0" text-anchor="end" fill="#e8731a" transform="rotate(-50 177.5 531.0)">06-28</text>
<line x1="232.2" y1="516.0" x2="232.2" y2="519.0" stroke="#999"/>
<text x="232.2" y="531.0" text-anchor="end" fill="#e8731a" transform="rotate(-50 232.2 531.0)">07-01</text>
<line x1="286.9" y1="516.0" x2="286.9" y2="519.0" stroke="#999"/>
<text x="286.9" y="531.0" text-anchor="end" fill="#e8731a" transform="rotate(-50 286.9 531.0)">07-02</text>
<line x1="341.7" y1="516.0" x2="341.7" y2="519.0" stroke="#999"/>
<text x="341.7" y="531.0" text-anchor="end" fill="#e8731a" transform="rotate(-50 341.7 531.0)">07-03</text>
<line x1="396.4" y1="516.0" x2="396.4" y2="519.0" stroke="#999"/>
<text x="396.4" y="531.0" text-anchor="end" fill="#e8731a" transform="rotate(-50 396.4 531.0)">07-06</text>
<line x1="451.2" y1="516.0" x2="451.2" y2="519.0" stroke="#999"/>
<text x="451.2" y="531.0" text-anchor="end" fill="#e8731a" transform="rotate(-50 451.2 531.0)">07-07</text>
<line x1="505.9" y1="516.0" x2="505.9" y2="519.0" stroke="#999"/>
<text x="505.9" y="531.0" text-anchor="end" fill="#e8731a" transform="rotate(-50 505.9 531.0)">07-08</text>
<line x1="560.6" y1="516.0" x2="560.6" y2="519.0" stroke="#999"/>
<text x="560.6" y="531.0" text-anchor="end" fill="#e8731a" transform="rotate(-50 560.6 531.0)">07-09</text>
<line x1="615.4" y1="516.0" x2="615.4" y2="519.0" stroke="#999"/>
<text x="615.4" y="531.0" text-anchor="end" fill="#e8731a" transform="rotate(-50 615.4 531.0)">07-10</text>
<line x1="670.1" y1="516.0" x2="670.1" y2="519.0" stroke="#999"/>
<text x="670.1" y="531.0" text-anchor="end" fill="#e8731a" transform="rotate(-50 670.1 531.0)">07-11</text>
<line x1="724.8" y1="516.0" x2="724.8" y2="519.0" stroke="#999"/>
<text x="724.8" y="531.0" text-anchor="end" fill="#e8731a" transform="rotate(-50 724.8 531.0)">07-14</text>
<line x1="779.6" y1="516.0" x2="779.6" y2="519.0" stroke="#999"/>
<text x="779.6" y="531.0" text-anchor="end" fill="#e8731a" transform="rotate(-50 779.6 531.0)">07-15</text>
<line x1="834.3" y1="516.0" x2="834.3" y2="519.0" stroke="#999"/>
<text x="834.3" y="531.0" text-anchor="end" fill="#e8731a" transform="rotate(-50 834.3 531.0)">07-15</text>
<line x1="889.1" y1="516.0" x2="889.1" y2="519.0" stroke="#999"/>
<text x="889.1" y="531.0" text-anchor="end" fill="#e8731a" transform="rotate(-50 889.1 531.0)">07-16</text>
<line x1="943.8" y1="516.0" x2="943.8" y2="519.0" stroke="#999"/>
<text x="943.8" y="531.0" text-anchor="end" fill="#e8731a" transform="rotate(-50 943.8 531.0)">07-17</text>
<line x1="998.5" y1="516.0" x2="998.5" y2="519.0" stroke="#999"/>
<text x="998.5" y="531.0" text-anchor="end" fill="#e8731a" transform="rotate(-50 998.5 531.0)">07-18</text>
<line x1="1053.3" y1="516.0" x2="1053.3" y2="519.0" stroke="#999"/>
<text x="1053.3" y="531.0" text-anchor="end" fill="#e8731a" transform="rotate(-50 1053.3 531.0)">07-19</text>
<line x1="1108.0" y1="516.0" x2="1108.0" y2="519.0" stroke="#999"/>
<text x="1108.0" y="531.0" text-anchor="end" fill="#e8731a" transform="rotate(-50 1108.0 531.0)">07-20</text>
<polygon points="68.0,495.8 122.7,495.5 177.5,495.7 232.2,495.4 286.9,495.7 341.7,496.1 396.4,495.3 451.2,498.5 505.9,498.4 560.6,498.6 615.4,498.6 670.1,498.4 724.8,498.6 779.6,500.0 834.3,500.2 889.1,500.1 943.8,499.9 998.5,502.0 1053.3,502.0 1108.0,501.6 1108.0,516.0 1053.3,516.0 998.5,516.0 943.8,516.0 889.1,516.0 834.3,516.0 779.6,516.0 724.8,516.0 670.1,516.0 615.4,516.0 560.6,516.0 505.9,516.0 451.2,516.0 396.4,516.0 341.7,516.0 286.9,516.0 232.2,516.0 177.5,516.0 122.7,516.0 68.0,516.0" fill="#c7e9c0" fill-opacity="0.9" stroke="#fff" stroke-width="0.4"><title>implicit_conversion — parseTranslationUnit</title></polygon>
<polygon points="68.0,283.7 122.7,283.0 177.5,285.0 232.2,285.4 286.9,283.8 341.7,284.9 396.4,282.7 451.2,287.6 505.9,287.8 560.6,285.9 615.4,286.3 670.1,280.6 724.8,283.5 779.6,303.6 834.3,305.1 889.1,252.7 943.8,248.1 998.5,269.4 1053.3,269.8 1108.0,268.3 1108.0,501.6 1053.3,502.0 998.5,502.0 943.8,499.9 889.1,500.1 834.3,500.2 779.6,500.0 724.8,498.6 670.1,498.4 615.4,498.6 560.6,498.6 505.9,498.4 451.2,498.5 396.4,495.3 341.7,496.1 286.9,495.7 232.2,495.4 177.5,495.7 122.7,495.5 68.0,495.8" fill="#41ab5d" fill-opacity="0.9" stroke="#fff" stroke-width="0.4"><title>implicit_conversion — SemanticChecking</title></polygon>
<polygon points="68.0,163.8 122.7,163.2 177.5,166.2 232.2,167.3 286.9,163.5 341.7,164.0 396.4,162.0 451.2,167.3 505.9,165.6 560.6,165.3 615.4,165.3 670.1,157.3 724.8,162.3 779.6,186.9 834.3,189.3 889.1,137.9 943.8,134.7 998.5,166.6 1053.3,167.6 1108.0,167.3 1108.0,268.3 1053.3,269.8 998.5,269.4 943.8,248.1 889.1,252.7 834.3,305.1 779.6,303.6 724.8,283.5 670.1,280.6 615.4,286.3 560.6,285.9 505.9,287.8 451.2,287.6 396.4,282.7 341.7,284.9 286.9,283.8 232.2,285.4 177.5,285.0 122.7,283.0 68.0,283.7" fill="#006d2c" fill-opacity="0.9" stroke="#fff" stroke-width="0.4"><title>implicit_conversion — generateIR</title></polygon>
<polygon points="68.0,162.9 122.7,162.9 177.5,165.4 232.2,165.5 286.9,161.3 341.7,161.9 396.4,160.8 451.2,166.9 505.9,163.8 560.6,164.6 615.4,165.3 670.1,155.2 724.8,162.3 779.6,184.2 834.3,189.3 889.1,137.1 943.8,134.5 998.5,164.8 1053.3,167.4 1108.0,167.3 1108.0,167.3 1053.3,167.6 998.5,166.6 943.8,134.7 889.1,137.9 834.3,189.3 779.6,186.9 724.8,162.3 670.1,157.3 615.4,165.3 560.6,165.3 505.9,165.6 451.2,167.3 396.4,162.0 341.7,164.0 286.9,163.5 232.2,167.3 177.5,166.2 122.7,163.2 68.0,163.8" fill="#74c476" fill-opacity="0.9" stroke="#fff" stroke-width="0.4"><title>implicit_conversion — frontEndExecute (self)</title></polygon>
<polygon points="68.0,138.2 122.7,138.0 177.5,139.0 232.2,141.2 286.9,135.0 341.7,137.2 396.4,136.4 451.2,141.7 505.9,137.3 560.6,139.7 615.4,140.7 670.1,129.8 724.8,137.7 779.6,159.0 834.3,164.4 889.1,112.2 943.8,109.6 998.5,142.2 1053.3,145.0 1108.0,145.7 1108.0,167.3 1053.3,167.4 998.5,164.8 943.8,134.5 889.1,137.1 834.3,189.3 779.6,184.2 724.8,162.3 670.1,155.2 615.4,165.3 560.6,164.6 505.9,163.8 451.2,166.9 396.4,160.8 341.7,161.9 286.9,161.3 232.2,165.5 177.5,165.4 122.7,162.9 68.0,162.9" fill="#e6550d" fill-opacity="0.9" stroke="#fff" stroke-width="0.4"><title>implicit_conversion — generateOutput (self)</title></polygon>
<polygon points="68.0,138.2 122.7,138.0 177.5,138.6 232.2,141.2 286.9,134.8 341.7,137.2 396.4,135.8 451.2,141.7 505.9,132.8 560.6,139.2 615.4,140.1 670.1,129.8 724.8,137.4 779.6,158.6 834.3,164.4 889.1,111.8 943.8,108.6 998.5,142.2 1053.3,145.0 1108.0,145.7 1108.0,145.7 1053.3,145.0 998.5,142.2 943.8,109.6 889.1,112.2 834.3,164.4 779.6,159.0 724.8,137.7 670.1,129.8 615.4,140.7 560.6,139.7 505.9,137.3 451.2,141.7 396.4,136.4 341.7,137.2 286.9,135.0 232.2,141.2 177.5,139.0 122.7,138.0 68.0,138.2" fill="#969696" fill-opacity="0.9" stroke="#fff" stroke-width="0.4"><title>implicit_conversion — compileInner (self)</title></polygon>
<text x="12" y="578" fill="#666" font-weight="600">phase buckets</text>
<rect x="12" y="586" width="12" height="12" fill="#c7e9c0"/>
<text x="28" y="596" fill="#222">parseTranslationUnit</text>
<rect x="289" y="586" width="12" height="12" fill="#41ab5d"/>
<text x="305" y="596" fill="#222">SemanticChecking</text>
<rect x="566" y="586" width="12" height="12" fill="#006d2c"/>
<text x="582" y="596" fill="#222">generateIR</text>
<rect x="843" y="586" width="12" height="12" fill="#74c476"/>
<text x="859" y="596" fill="#222">frontEndExecute (self)</text>
<rect x="12" y="604" width="12" height="12" fill="#6baed6"/>
<text x="28" y="614" fill="#222">specializeModule</text>
<rect x="289" y="604" width="12" height="12" fill="#2171b5"/>
<text x="305" y="614" fill="#222">simplifyIR</text>
<rect x="566" y="604" width="12" height="12" fill="#08306b"/>
<text x="582" y="614" fill="#222">linkIR</text>
<rect x="843" y="604" width="12" height="12" fill="#9e9ac8"/>
<text x="859" y="614" fill="#222">unrollLoopsInModule</text>
<rect x="12" y="622" width="12" height="12" fill="#807dba"/>
<text x="28" y="632" fill="#222">legalizeResourceTypes</text>
<rect x="289" y="622" width="12" height="12" fill="#6a51a3"/>
<text x="305" y="632" fill="#222">legalizeExistentialTypeLayout</text>
<rect x="566" y="622" width="12" height="12" fill="#bcbddc"/>
<text x="582" y="632" fill="#222">performMandatoryEarlyInlining</text>
<rect x="843" y="622" width="12" height="12" fill="#dadaeb"/>
<text x="859" y="632" fill="#222">performForceInlining</text>
<rect x="12" y="640" width="12" height="12" fill="#4a1486"/>
<text x="28" y="650" fill="#222">linkAndOptimizeIR (self)</text>
<rect x="289" y="640" width="12" height="12" fill="#fd8d3c"/>
<text x="305" y="650" fill="#222">emitEntryPointsSourceFromIR</text>
<rect x="566" y="640" width="12" height="12" fill="#e6550d"/>
<text x="582" y="650" fill="#222">generateOutput (self)</text>
<rect x="843" y="640" width="12" height="12" fill="#969696"/>
<text x="859" y="650" fill="#222">compileInner (self)</text>
</svg>