<svg xmlns="http://www.w3.org/2000/svg" xmlns:xlink="http://www.w3.org/1999/xlink" width="1132" height="680" viewBox="0 0 1132 680" preserveAspectRatio="xMidYMid meet" font-family="sans-serif" font-size="13">
<rect width="1132" height="680" fill="white"/>
<text x="12" y="30" font-size="20" font-weight="bold">implicit_conversion — full phase breakdown across releases (median ms)</text>
<text x="68" y="60" font-size="15" font-weight="600" fill="#1a1a1a">implicit_conversion<tspan fill="#888" font-weight="400" text-decoration="none">  1.06×</tspan></text>
<line x1="68.0" y1="516.0" x2="1108.0" y2="516.0" stroke="#eee"/>
<text x="64.0" y="519.0" text-anchor="end" fill="#999">0.0</text>
<line x1="68.0" y1="296.0" x2="1108.0" y2="296.0" stroke="#eee"/>
<text x="64.0" y="299.0" text-anchor="end" fill="#999">83</text>
<line x1="68.0" y1="76.0" x2="1108.0" y2="76.0" stroke="#eee"/>
<text x="64.0" y="79.0" text-anchor="end" fill="#999">167</text>
<line x1="68.0" y1="76.0" x2="68.0" y2="516.0" stroke="#333"/>
<line x1="68.0" y1="516.0" x2="1108.0" y2="516.0" stroke="#333"/>
<line x1="706.9" y1="76.0" x2="706.9" y2="516.0" stroke="#e8731a" stroke-width="1.2" stroke-dasharray="4 3"/>
<text x="709.9" y="87.0" fill="#e8731a" font-size="11">daily →</text>
<line x1="68.0" y1="516.0" x2="68.0" y2="519.0" stroke="#999"/>
<text x="68.0" y="531.0" text-anchor="end" fill="#666" transform="rotate(-50 68.0 531.0)">25.14</text>
<line x1="97.7" y1="516.0" x2="97.7" y2="519.0" stroke="#999"/>
<text x="97.7" y="531.0" text-anchor="end" fill="#666" transform="rotate(-50 97.7 531.0)">25.15</text>
<line x1="127.4" y1="516.0" x2="127.4" y2="519.0" stroke="#999"/>
<text x="127.4" y="531.0" text-anchor="end" fill="#666" transform="rotate(-50 127.4 531.0)">25.16</text>
<line x1="157.1" y1="516.0" x2="157.1" y2="519.0" stroke="#999"/>
<text x="157.1" y="531.0" text-anchor="end" fill="#666" transform="rotate(-50 157.1 531.0)">25.17</text>
<line x1="186.9" y1="516.0" x2="186.9" y2="519.0" stroke="#999"/>
<text x="186.9" y="531.0" text-anchor="end" fill="#666" transform="rotate(-50 186.9 531.0)">25.18</text>
<line x1="216.6" y1="516.0" x2="216.6" y2="519.0" stroke="#999"/>
<text x="216.6" y="531.0" text-anchor="end" fill="#666" transform="rotate(-50 216.6 531.0)">25.19</text>
<line x1="246.3" y1="516.0" x2="246.3" y2="519.0" stroke="#999"/>
<text x="246.3" y="531.0" text-anchor="end" fill="#666" transform="rotate(-50 246.3 531.0)">25.20</text>
<line x1="276.0" y1="516.0" x2="276.0" y2="519.0" stroke="#999"/>
<text x="276.0" y="531.0" text-anchor="end" fill="#666" transform="rotate(-50 276.0 531.0)">25.21</text>
<line x1="305.7" y1="516.0" x2="305.7" y2="519.0" stroke="#999"/>
<text x="305.7" y="531.0" text-anchor="end" fill="#666" transform="rotate(-50 305.7 531.0)">25.22</text>
<line x1="335.4" y1="516.0" x2="335.4" y2="519.0" stroke="#999"/>
<text x="335.4" y="531.0" text-anchor="end" fill="#666" transform="rotate(-50 335.4 531.0)">25.23</text>
<line x1="365.1" y1="516.0" x2="365.1" y2="519.0" stroke="#999"/>
<text x="365.1" y="531.0" text-anchor="end" fill="#666" transform="rotate(-50 365.1 531.0)">25.24</text>
<line x1="394.9" y1="516.0" x2="394.9" y2="519.0" stroke="#999"/>
<text x="394.9" y="531.0" text-anchor="end" fill="#666" transform="rotate(-50 394.9 531.0)">26.1</text>
<line x1="424.6" y1="516.0" x2="424.6" y2="519.0" stroke="#999"/>
<text x="424.6" y="531.0" text-anchor="end" fill="#666" transform="rotate(-50 424.6 531.0)">26.2</text>
<line x1="454.3" y1="516.0" x2="454.3" y2="519.0" stroke="#999"/>
<text x="454.3" y="531.0" text-anchor="end" fill="#666" transform="rotate(-50 454.3 531.0)">26.3</text>
<line x1="484.0" y1="516.0" x2="484.0" y2="519.0" stroke="#999"/>
<text x="484.0" y="531.0" text-anchor="end" fill="#666" transform="rotate(-50 484.0 531.0)">26.4</text>
<line x1="513.7" y1="516.0" x2="513.7" y2="519.0" stroke="#999"/>
<text x="513.7" y="531.0" text-anchor="end" fill="#666" transform="rotate(-50 513.7 531.0)">26.5</text>
<line x1="543.4" y1="516.0" x2="543.4" y2="519.0" stroke="#999"/>
<text x="543.4" y="531.0" text-anchor="end" fill="#666" transform="rotate(-50 543.4 531.0)">26.7</text>
<line x1="573.1" y1="516.0" x2="573.1" y2="519.0" stroke="#999"/>
<text x="573.1" y="531.0" text-anchor="end" fill="#666" transform="rotate(-50 573.1 531.0)">26.8</text>
<line x1="602.9" y1="516.0" x2="602.9" y2="519.0" stroke="#999"/>
<text x="602.9" y="531.0" text-anchor="end" fill="#666" transform="rotate(-50 602.9 531.0)">26.9</text>
<line x1="632.6" y1="516.0" x2="632.6" y2="519.0" stroke="#999"/>
<text x="632.6" y="531.0" text-anchor="end" fill="#666" transform="rotate(-50 632.6 531.0)">26.10</text>
<line x1="662.3" y1="516.0" x2="662.3" y2="519.0" stroke="#999"/>
<text x="662.3" y="531.0" text-anchor="end" fill="#666" transform="rotate(-50 662.3 531.0)">26.11</text>
<line x1="692.0" y1="516.0" x2="692.0" y2="519.0" stroke="#999"/>
<text x="692.0" y="531.0" text-anchor="end" fill="#666" transform="rotate(-50 692.0 531.0)">26.12</text>
<line x1="721.7" y1="516.0" x2="721.7" y2="519.0" stroke="#999"/>
<text x="721.7" y="531.0" text-anchor="end" fill="#e8731a" transform="rotate(-50 721.7 531.0)">06-25</text>
<line x1="751.4" y1="516.0" x2="751.4" y2="519.0" stroke="#999"/>
<text x="751.4" y="531.0" text-anchor="end" fill="#e8731a" transform="rotate(-50 751.4 531.0)">06-26</text>
<line x1="781.1" y1="516.0" x2="781.1" y2="519.0" stroke="#999"/>
<text x="781.1" y="531.0" text-anchor="end" fill="#e8731a" transform="rotate(-50 781.1 531.0)">06-28</text>
<line x1="810.9" y1="516.0" x2="810.9" y2="519.0" stroke="#999"/>
<text x="810.9" y="531.0" text-anchor="end" fill="#e8731a" transform="rotate(-50 810.9 531.0)">07-01</text>
<line x1="840.6" y1="516.0" x2="840.6" y2="519.0" stroke="#999"/>
<text x="840.6" y="531.0" text-anchor="end" fill="#e8731a" transform="rotate(-50 840.6 531.0)">07-02</text>
<line x1="870.3" y1="516.0" x2="870.3" y2="519.0" stroke="#999"/>
<text x="870.3" y="531.0" text-anchor="end" fill="#e8731a" transform="rotate(-50 870.3 531.0)">07-03</text>
<line x1="900.0" y1="516.0" x2="900.0" y2="519.0" stroke="#999"/>
<text x="900.0" y="531.0" text-anchor="end" fill="#e8731a" transform="rotate(-50 900.0 531.0)">07-06</text>
<line x1="929.7" y1="516.0" x2="929.7" y2="519.0" stroke="#999"/>
<text x="929.7" y="531.0" text-anchor="end" fill="#e8731a" transform="rotate(-50 929.7 531.0)">07-07</text>
<line x1="959.4" y1="516.0" x2="959.4" y2="519.0" stroke="#999"/>
<text x="959.4" y="531.0" text-anchor="end" fill="#e8731a" transform="rotate(-50 959.4 531.0)">07-07</text>
<line x1="989.1" y1="516.0" x2="989.1" y2="519.0" stroke="#999"/>
<text x="989.1" y="531.0" text-anchor="end" fill="#e8731a" transform="rotate(-50 989.1 531.0)">07-08</text>
<line x1="1018.9" y1="516.0" x2="1018.9" y2="519.0" stroke="#999"/>
<text x="1018.9" y="531.0" text-anchor="end" fill="#e8731a" transform="rotate(-50 1018.9 531.0)">07-09</text>
<line x1="1048.6" y1="516.0" x2="1048.6" y2="519.0" stroke="#999"/>
<text x="1048.6" y="531.0" text-anchor="end" fill="#e8731a" transform="rotate(-50 1048.6 531.0)">07-10</text>
<line x1="1078.3" y1="516.0" x2="1078.3" y2="519.0" stroke="#999"/>
<text x="1078.3" y="531.0" text-anchor="end" fill="#e8731a" transform="rotate(-50 1078.3 531.0)">07-11</text>
<line x1="1108.0" y1="516.0" x2="1108.0" y2="519.0" stroke="#999"/>
<text x="1108.0" y="531.0" text-anchor="end" fill="#e8731a" transform="rotate(-50 1108.0 531.0)">07-11</text>
<polygon points="68.0,501.2 97.7,501.4 127.4,501.7 157.1,501.0 186.9,500.2 216.6,501.0 246.3,501.1 276.0,500.5 305.7,501.0 335.4,501.4 365.1,501.5 394.9,501.4 424.6,501.2 454.3,501.4 484.0,501.1 513.7,500.7 543.4,501.0 573.1,501.0 602.9,501.2 632.6,501.1 662.3,500.7 692.0,500.6 721.7,499.3 751.4,499.1 781.1,499.2 810.9,499.3 840.6,499.5 870.3,499.3 900.0,498.6 929.7,501.4 959.4,501.3 989.1,501.3 1018.9,501.6 1048.6,501.7 1078.3,501.6 1108.0,501.3 1108.0,516.0 1078.3,516.0 1048.6,516.0 1018.9,516.0 989.1,516.0 959.4,516.0 929.7,516.0 900.0,516.0 870.3,516.0 840.6,516.0 810.9,516.0 781.1,516.0 751.4,516.0 721.7,516.0 692.0,516.0 662.3,516.0 632.6,516.0 602.9,516.0 573.1,516.0 543.4,516.0 513.7,516.0 484.0,516.0 454.3,516.0 424.6,516.0 394.9,516.0 365.1,516.0 335.4,516.0 305.7,516.0 276.0,516.0 246.3,516.0 216.6,516.0 186.9,516.0 157.1,516.0 127.4,516.0 97.7,516.0 68.0,516.0" fill="#c7e9c0" fill-opacity="0.9" stroke="#fff" stroke-width="0.4"><title>implicit_conversion — parseTranslationUnit</title></polygon>
<polygon points="68.0,325.9 97.7,309.2 127.4,308.5 157.1,289.8 186.9,244.7 216.6,298.6 246.3,274.4 276.0,279.7 305.7,267.7 335.4,284.6 365.1,291.2 394.9,288.0 424.6,288.2 454.3,284.1 484.0,288.4 513.7,287.5 543.4,265.5 573.1,259.7 602.9,263.1 632.6,257.5 662.3,338.3 692.0,341.0 721.7,324.2 751.4,320.6 781.1,323.3 810.9,324.1 840.6,324.3 870.3,322.1 900.0,320.2 929.7,324.2 959.4,324.3 989.1,324.5 1018.9,324.8 1048.6,323.8 1078.3,326.0 1108.0,318.4 1108.0,501.3 1078.3,501.6 1048.6,501.7 1018.9,501.6 989.1,501.3 959.4,501.3 929.7,501.4 900.0,498.6 870.3,499.3 840.6,499.5 810.9,499.3 781.1,499.2 751.4,499.1 721.7,499.3 692.0,500.6 662.3,500.7 632.6,501.1 602.9,501.2 573.1,501.0 543.4,501.0 513.7,500.7 484.0,501.1 454.3,501.4 424.6,501.2 394.9,501.4 365.1,501.5 335.4,501.4 305.7,501.0 276.0,500.5 246.3,501.1 216.6,501.0 186.9,500.2 157.1,501.0 127.4,501.7 97.7,501.4 68.0,501.2" fill="#41ab5d" fill-opacity="0.9" stroke="#fff" stroke-width="0.4"><title>implicit_conversion — SemanticChecking</title></polygon>
<polygon points="68.0,229.4 97.7,210.7 127.4,210.1 157.1,187.4 186.9,130.4 216.6,198.3 246.3,165.8 276.0,171.3 305.7,162.6 335.4,182.9 365.1,196.4 394.9,189.3 424.6,192.6 454.3,187.5 484.0,192.9 513.7,192.2 543.4,140.6 573.1,128.2 602.9,136.5 632.6,130.2 662.3,245.0 692.0,248.1 721.7,225.4 751.4,219.2 781.1,221.9 810.9,223.7 840.6,225.6 870.3,220.6 900.0,219.0 929.7,220.3 959.4,223.4 989.1,222.0 1018.9,222.4 1048.6,221.1 1078.3,224.3 1108.0,215.0 1108.0,318.4 1078.3,326.0 1048.6,323.8 1018.9,324.8 989.1,324.5 959.4,324.3 929.7,324.2 900.0,320.2 870.3,322.1 840.6,324.3 810.9,324.1 781.1,323.3 751.4,320.6 721.7,324.2 692.0,341.0 662.3,338.3 632.6,257.5 602.9,263.1 573.1,259.7 543.4,265.5 513.7,287.5 484.0,288.4 454.3,284.1 424.6,288.2 394.9,288.0 365.1,291.2 335.4,284.6 305.7,267.7 276.0,279.7 246.3,274.4 216.6,298.6 186.9,244.7 157.1,289.8 127.4,308.5 97.7,309.2 68.0,325.9" fill="#006d2c" fill-opacity="0.9" stroke="#fff" stroke-width="0.4"><title>implicit_conversion — generateIR</title></polygon>
<polygon points="68.0,228.8 97.7,210.7 127.4,210.1 157.1,180.8 186.9,130.4 216.6,198.3 246.3,165.8 276.0,171.3 305.7,160.0 335.4,178.9 365.1,196.4 394.9,189.3 424.6,192.6 454.3,187.5 484.0,192.1 513.7,189.8 543.4,140.6 573.1,128.2 602.9,133.0 632.6,130.2 662.3,243.4 692.0,248.1 721.7,225.4 751.4,219.2 781.1,221.1 810.9,222.6 840.6,225.3 870.3,218.9 900.0,218.0 929.7,219.7 959.4,223.1 989.1,220.5 1018.9,221.9 1048.6,220.3 1078.3,224.3 1108.0,213.2 1108.0,215.0 1078.3,224.3 1048.6,221.1 1018.9,222.4 989.1,222.0 959.4,223.4 929.7,220.3 900.0,219.0 870.3,220.6 840.6,225.6 810.9,223.7 781.1,221.9 751.4,219.2 721.7,225.4 692.0,248.1 662.3,245.0 632.6,130.2 602.9,136.5 573.1,128.2 543.4,140.6 513.7,192.2 484.0,192.9 454.3,187.5 424.6,192.6 394.9,189.3 365.1,196.4 335.4,182.9 305.7,162.6 276.0,171.3 246.3,165.8 216.6,198.3 186.9,130.4 157.1,187.4 127.4,210.1 97.7,210.7 68.0,229.4" fill="#74c476" fill-opacity="0.9" stroke="#fff" stroke-width="0.4"><title>implicit_conversion — frontEndExecute (self)</title></polygon>
<polygon points="68.0,211.6 97.7,193.6 127.4,193.0 157.1,160.1 186.9,108.6 216.6,180.2 246.3,147.1 276.0,153.0 305.7,141.1 335.4,159.8 365.1,178.3 394.9,170.5 424.6,174.9 454.3,169.4 484.0,174.3 513.7,171.7 543.4,122.1 573.1,109.6 602.9,114.6 632.6,111.7 662.3,226.5 692.0,230.8 721.7,204.6 751.4,197.8 781.1,198.9 810.9,201.5 840.6,203.7 870.3,198.1 900.0,197.5 929.7,197.4 959.4,201.9 989.1,198.2 1018.9,201.5 1048.6,199.8 1078.3,203.7 1108.0,191.9 1108.0,213.2 1078.3,224.3 1048.6,220.3 1018.9,221.9 989.1,220.5 959.4,223.1 929.7,219.7 900.0,218.0 870.3,218.9 840.6,225.3 810.9,222.6 781.1,221.1 751.4,219.2 721.7,225.4 692.0,248.1 662.3,243.4 632.6,130.2 602.9,133.0 573.1,128.2 543.4,140.6 513.7,189.8 484.0,192.1 454.3,187.5 424.6,192.6 394.9,189.3 365.1,196.4 335.4,178.9 305.7,160.0 276.0,171.3 246.3,165.8 216.6,198.3 186.9,130.4 157.1,180.8 127.4,210.1 97.7,210.7 68.0,228.8" fill="#e6550d" fill-opacity="0.9" stroke="#fff" stroke-width="0.4"><title>implicit_conversion — generateOutput (self)</title></polygon>
<polygon points="68.0,211.3 97.7,193.6 127.4,193.0 157.1,160.1 186.9,108.6 216.6,178.5 246.3,147.1 276.0,151.1 305.7,141.1 335.4,159.7 365.1,178.3 394.9,170.5 424.6,174.9 454.3,169.4 484.0,174.3 513.7,170.3 543.4,122.1 573.1,109.6 602.9,114.6 632.6,109.8 662.3,226.5 692.0,230.8 721.7,204.6 751.4,197.8 781.1,198.9 810.9,201.5 840.6,203.7 870.3,198.1 900.0,197.0 929.7,194.9 959.4,201.9 989.1,194.5 1018.9,201.5 1048.6,199.8 1078.3,203.7 1108.0,191.9 1108.0,191.9 1078.3,203.7 1048.6,199.8 1018.9,201.5 989.1,198.2 959.4,201.9 929.7,197.4 900.0,197.5 870.3,198.1 840.6,203.7 810.9,201.5 781.1,198.9 751.4,197.8 721.7,204.6 692.0,230.8 662.3,226.5 632.6,111.7 602.9,114.6 573.1,109.6 543.4,122.1 513.7,171.7 484.0,174.3 454.3,169.4 424.6,174.9 394.9,170.5 365.1,178.3 335.4,159.8 305.7,141.1 276.0,153.0 246.3,147.1 216.6,180.2 186.9,108.6 157.1,160.1 127.4,193.0 97.7,193.6 68.0,211.6" fill="#969696" fill-opacity="0.9" stroke="#fff" stroke-width="0.4"><title>implicit_conversion — compileInner (self)</title></polygon>
<text x="12" y="578" fill="#666" font-weight="600">phase buckets</text>
<rect x="12" y="586" width="12" height="12" fill="#c7e9c0"/>
<text x="28" y="596" fill="#222">parseTranslationUnit</text>
<rect x="289" y="586" width="12" height="12" fill="#41ab5d"/>
<text x="305" y="596" fill="#222">SemanticChecking</text>
<rect x="566" y="586" width="12" height="12" fill="#006d2c"/>
<text x="582" y="596" fill="#222">generateIR</text>
<rect x="843" y="586" width="12" height="12" fill="#74c476"/>
<text x="859" y="596" fill="#222">frontEndExecute (self)</text>
<rect x="12" y="604" width="12" height="12" fill="#6baed6"/>
<text x="28" y="614" fill="#222">specializeModule</text>
<rect x="289" y="604" width="12" height="12" fill="#2171b5"/>
<text x="305" y="614" fill="#222">simplifyIR</text>
<rect x="566" y="604" width="12" height="12" fill="#08306b"/>
<text x="582" y="614" fill="#222">linkIR</text>
<rect x="843" y="604" width="12" height="12" fill="#9e9ac8"/>
<text x="859" y="614" fill="#222">unrollLoopsInModule</text>
<rect x="12" y="622" width="12" height="12" fill="#807dba"/>
<text x="28" y="632" fill="#222">legalizeResourceTypes</text>
<rect x="289" y="622" width="12" height="12" fill="#6a51a3"/>
<text x="305" y="632" fill="#222">legalizeExistentialTypeLayout</text>
<rect x="566" y="622" width="12" height="12" fill="#bcbddc"/>
<text x="582" y="632" fill="#222">performMandatoryEarlyInlining</text>
<rect x="843" y="622" width="12" height="12" fill="#dadaeb"/>
<text x="859" y="632" fill="#222">performForceInlining</text>
<rect x="12" y="640" width="12" height="12" fill="#4a1486"/>
<text x="28" y="650" fill="#222">linkAndOptimizeIR (self)</text>
<rect x="289" y="640" width="12" height="12" fill="#fd8d3c"/>
<text x="305" y="650" fill="#222">emitEntryPointsSourceFromIR</text>
<rect x="566" y="640" width="12" height="12" fill="#e6550d"/>
<text x="582" y="650" fill="#222">generateOutput (self)</text>
<rect x="843" y="640" width="12" height="12" fill="#969696"/>
<text x="859" y="650" fill="#222">compileInner (self)</text>
</svg>