<svg xmlns="http://www.w3.org/2000/svg" xmlns:xlink="http://www.w3.org/1999/xlink" width="1132" height="680" viewBox="0 0 1132 680" preserveAspectRatio="xMidYMid meet" font-family="sans-serif" font-size="13">
<rect width="1132" height="680" fill="white"/>
<text x="12" y="30" font-size="20" font-weight="bold">implicit_conversion — full phase breakdown across releases (median ms)</text>
<text x="68" y="60" font-size="15" font-weight="600" fill="#1a1a1a">implicit_conversion<tspan fill="#888" font-weight="400" text-decoration="none">  1.02×</tspan></text>
<line x1="68.0" y1="516.0" x2="1108.0" y2="516.0" stroke="#eee"/>
<text x="64.0" y="519.0" text-anchor="end" fill="#999">0.0</text>
<line x1="68.0" y1="296.0" x2="1108.0" y2="296.0" stroke="#eee"/>
<text x="64.0" y="299.0" text-anchor="end" fill="#999">97</text>
<line x1="68.0" y1="76.0" x2="1108.0" y2="76.0" stroke="#eee"/>
<text x="64.0" y="79.0" text-anchor="end" fill="#999">195</text>
<line x1="68.0" y1="76.0" x2="68.0" y2="516.0" stroke="#333"/>
<line x1="68.0" y1="516.0" x2="1108.0" y2="516.0" stroke="#333"/>
<line x1="725.6" y1="76.0" x2="725.6" y2="516.0" stroke="#e8731a" stroke-width="1.2" stroke-dasharray="4 3"/>
<text x="728.6" y="87.0" fill="#e8731a" font-size="11">daily →</text>
<line x1="68.0" y1="516.0" x2="68.0" y2="519.0" stroke="#999"/>
<text x="68.0" y="531.0" text-anchor="end" fill="#666" transform="rotate(-50 68.0 531.0)">25.14</text>
<line x1="98.6" y1="516.0" x2="98.6" y2="519.0" stroke="#999"/>
<text x="98.6" y="531.0" text-anchor="end" fill="#666" transform="rotate(-50 98.6 531.0)">25.15</text>
<line x1="129.2" y1="516.0" x2="129.2" y2="519.0" stroke="#999"/>
<text x="129.2" y="531.0" text-anchor="end" fill="#666" transform="rotate(-50 129.2 531.0)">25.16</text>
<line x1="159.8" y1="516.0" x2="159.8" y2="519.0" stroke="#999"/>
<text x="159.8" y="531.0" text-anchor="end" fill="#666" transform="rotate(-50 159.8 531.0)">25.17</text>
<line x1="190.4" y1="516.0" x2="190.4" y2="519.0" stroke="#999"/>
<text x="190.4" y="531.0" text-anchor="end" fill="#666" transform="rotate(-50 190.4 531.0)">25.18</text>
<line x1="220.9" y1="516.0" x2="220.9" y2="519.0" stroke="#999"/>
<text x="220.9" y="531.0" text-anchor="end" fill="#666" transform="rotate(-50 220.9 531.0)">25.19</text>
<line x1="251.5" y1="516.0" x2="251.5" y2="519.0" stroke="#999"/>
<text x="251.5" y="531.0" text-anchor="end" fill="#666" transform="rotate(-50 251.5 531.0)">25.20</text>
<line x1="282.1" y1="516.0" x2="282.1" y2="519.0" stroke="#999"/>
<text x="282.1" y="531.0" text-anchor="end" fill="#666" transform="rotate(-50 282.1 531.0)">25.21</text>
<line x1="312.7" y1="516.0" x2="312.7" y2="519.0" stroke="#999"/>
<text x="312.7" y="531.0" text-anchor="end" fill="#666" transform="rotate(-50 312.7 531.0)">25.22</text>
<line x1="343.3" y1="516.0" x2="343.3" y2="519.0" stroke="#999"/>
<text x="343.3" y="531.0" text-anchor="end" fill="#666" transform="rotate(-50 343.3 531.0)">25.23</text>
<line x1="373.9" y1="516.0" x2="373.9" y2="519.0" stroke="#999"/>
<text x="373.9" y="531.0" text-anchor="end" fill="#666" transform="rotate(-50 373.9 531.0)">25.24</text>
<line x1="404.5" y1="516.0" x2="404.5" y2="519.0" stroke="#999"/>
<text x="404.5" y="531.0" text-anchor="end" fill="#666" transform="rotate(-50 404.5 531.0)">26.1</text>
<line x1="435.1" y1="516.0" x2="435.1" y2="519.0" stroke="#999"/>
<text x="435.1" y="531.0" text-anchor="end" fill="#666" transform="rotate(-50 435.1 531.0)">26.2</text>
<line x1="465.6" y1="516.0" x2="465.6" y2="519.0" stroke="#999"/>
<text x="465.6" y="531.0" text-anchor="end" fill="#666" transform="rotate(-50 465.6 531.0)">26.3</text>
<line x1="496.2" y1="516.0" x2="496.2" y2="519.0" stroke="#999"/>
<text x="496.2" y="531.0" text-anchor="end" fill="#666" transform="rotate(-50 496.2 531.0)">26.4</text>
<line x1="526.8" y1="516.0" x2="526.8" y2="519.0" stroke="#999"/>
<text x="526.8" y="531.0" text-anchor="end" fill="#666" transform="rotate(-50 526.8 531.0)">26.5</text>
<line x1="557.4" y1="516.0" x2="557.4" y2="519.0" stroke="#999"/>
<text x="557.4" y="531.0" text-anchor="end" fill="#666" transform="rotate(-50 557.4 531.0)">26.7</text>
<line x1="588.0" y1="516.0" x2="588.0" y2="519.0" stroke="#999"/>
<text x="588.0" y="531.0" text-anchor="end" fill="#666" transform="rotate(-50 588.0 531.0)">26.8</text>
<line x1="618.6" y1="516.0" x2="618.6" y2="519.0" stroke="#999"/>
<text x="618.6" y="531.0" text-anchor="end" fill="#666" transform="rotate(-50 618.6 531.0)">26.9</text>
<line x1="649.2" y1="516.0" x2="649.2" y2="519.0" stroke="#999"/>
<text x="649.2" y="531.0" text-anchor="end" fill="#666" transform="rotate(-50 649.2 531.0)">26.10</text>
<line x1="679.8" y1="516.0" x2="679.8" y2="519.0" stroke="#999"/>
<text x="679.8" y="531.0" text-anchor="end" fill="#666" transform="rotate(-50 679.8 531.0)">26.11</text>
<line x1="710.4" y1="516.0" x2="710.4" y2="519.0" stroke="#999"/>
<text x="710.4" y="531.0" text-anchor="end" fill="#666" transform="rotate(-50 710.4 531.0)">26.12</text>
<line x1="740.9" y1="516.0" x2="740.9" y2="519.0" stroke="#999"/>
<text x="740.9" y="531.0" text-anchor="end" fill="#e8731a" transform="rotate(-50 740.9 531.0)">06-25</text>
<line x1="771.5" y1="516.0" x2="771.5" y2="519.0" stroke="#999"/>
<text x="771.5" y="531.0" text-anchor="end" fill="#e8731a" transform="rotate(-50 771.5 531.0)">06-26</text>
<line x1="802.1" y1="516.0" x2="802.1" y2="519.0" stroke="#999"/>
<text x="802.1" y="531.0" text-anchor="end" fill="#e8731a" transform="rotate(-50 802.1 531.0)">06-28</text>
<line x1="832.7" y1="516.0" x2="832.7" y2="519.0" stroke="#999"/>
<text x="832.7" y="531.0" text-anchor="end" fill="#e8731a" transform="rotate(-50 832.7 531.0)">07-01</text>
<line x1="863.3" y1="516.0" x2="863.3" y2="519.0" stroke="#999"/>
<text x="863.3" y="531.0" text-anchor="end" fill="#e8731a" transform="rotate(-50 863.3 531.0)">07-02</text>
<line x1="893.9" y1="516.0" x2="893.9" y2="519.0" stroke="#999"/>
<text x="893.9" y="531.0" text-anchor="end" fill="#e8731a" transform="rotate(-50 893.9 531.0)">07-03</text>
<line x1="924.5" y1="516.0" x2="924.5" y2="519.0" stroke="#999"/>
<text x="924.5" y="531.0" text-anchor="end" fill="#e8731a" transform="rotate(-50 924.5 531.0)">07-06</text>
<line x1="955.1" y1="516.0" x2="955.1" y2="519.0" stroke="#999"/>
<text x="955.1" y="531.0" text-anchor="end" fill="#e8731a" transform="rotate(-50 955.1 531.0)">07-07</text>
<line x1="985.6" y1="516.0" x2="985.6" y2="519.0" stroke="#999"/>
<text x="985.6" y="531.0" text-anchor="end" fill="#e8731a" transform="rotate(-50 985.6 531.0)">07-08</text>
<line x1="1016.2" y1="516.0" x2="1016.2" y2="519.0" stroke="#999"/>
<text x="1016.2" y="531.0" text-anchor="end" fill="#e8731a" transform="rotate(-50 1016.2 531.0)">07-09</text>
<line x1="1046.8" y1="516.0" x2="1046.8" y2="519.0" stroke="#999"/>
<text x="1046.8" y="531.0" text-anchor="end" fill="#e8731a" transform="rotate(-50 1046.8 531.0)">07-10</text>
<line x1="1077.4" y1="516.0" x2="1077.4" y2="519.0" stroke="#999"/>
<text x="1077.4" y="531.0" text-anchor="end" fill="#e8731a" transform="rotate(-50 1077.4 531.0)">07-11</text>
<line x1="1108.0" y1="516.0" x2="1108.0" y2="519.0" stroke="#999"/>
<text x="1108.0" y="531.0" text-anchor="end" fill="#e8731a" transform="rotate(-50 1108.0 531.0)">07-14</text>
<polygon points="68.0,503.2 98.6,503.4 129.2,502.9 159.8,502.8 190.4,503.4 220.9,503.0 251.5,503.4 282.1,503.2 312.7,503.4 343.3,503.5 373.9,503.1 404.5,503.1 435.1,502.9 465.6,502.9 496.2,502.9 526.8,503.0 557.4,503.1 588.0,502.1 618.6,502.5 649.2,503.0 679.8,502.6 710.4,502.3 740.9,501.5 771.5,501.3 802.1,501.4 832.7,501.2 863.3,501.4 893.9,501.7 924.5,501.1 955.1,503.4 985.6,503.4 1016.2,503.5 1046.8,503.5 1077.4,503.4 1108.0,503.5 1108.0,516.0 1077.4,516.0 1046.8,516.0 1016.2,516.0 985.6,516.0 955.1,516.0 924.5,516.0 893.9,516.0 863.3,516.0 832.7,516.0 802.1,516.0 771.5,516.0 740.9,516.0 710.4,516.0 679.8,516.0 649.2,516.0 618.6,516.0 588.0,516.0 557.4,516.0 526.8,516.0 496.2,516.0 465.6,516.0 435.1,516.0 404.5,516.0 373.9,516.0 343.3,516.0 312.7,516.0 282.1,516.0 251.5,516.0 220.9,516.0 190.4,516.0 159.8,516.0 129.2,516.0 98.6,516.0 68.0,516.0" fill="#c7e9c0" fill-opacity="0.9" stroke="#fff" stroke-width="0.4"><title>implicit_conversion — parseTranslationUnit</title></polygon>
<polygon points="68.0,349.0 98.6,340.9 129.2,327.2 159.8,318.1 190.4,312.1 220.9,323.5 251.5,331.5 282.1,330.3 312.7,319.8 343.3,321.6 373.9,322.0 404.5,320.6 435.1,316.8 465.6,311.9 496.2,315.9 526.8,312.6 557.4,282.0 588.0,265.0 618.6,272.9 649.2,287.5 679.8,363.2 710.4,361.7 740.9,349.1 771.5,348.6 802.1,350.0 832.7,350.3 863.3,349.1 893.9,350.0 924.5,348.4 955.1,351.9 985.6,352.0 1016.2,350.7 1046.8,351.0 1077.4,346.8 1108.0,348.9 1108.0,503.5 1077.4,503.4 1046.8,503.5 1016.2,503.5 985.6,503.4 955.1,503.4 924.5,501.1 893.9,501.7 863.3,501.4 832.7,501.2 802.1,501.4 771.5,501.3 740.9,501.5 710.4,502.3 679.8,502.6 649.2,503.0 618.6,502.5 588.0,502.1 557.4,503.1 526.8,503.0 496.2,502.9 465.6,502.9 435.1,502.9 404.5,503.1 373.9,503.1 343.3,503.5 312.7,503.4 282.1,503.2 251.5,503.4 220.9,503.0 190.4,503.4 159.8,502.8 129.2,502.9 98.6,503.4 68.0,503.2" fill="#41ab5d" fill-opacity="0.9" stroke="#fff" stroke-width="0.4"><title>implicit_conversion — SemanticChecking</title></polygon>
<polygon points="68.0,265.7 98.6,258.2 129.2,234.3 159.8,222.7 190.4,218.6 220.9,232.0 251.5,246.1 282.1,243.0 312.7,236.0 343.3,238.9 373.9,238.2 404.5,238.6 435.1,233.4 465.6,228.4 496.2,232.9 526.8,229.8 557.4,167.2 588.0,126.8 618.6,149.6 649.2,170.1 679.8,283.0 710.4,280.4 740.9,262.9 771.5,262.5 802.1,264.7 832.7,265.5 863.3,262.7 893.9,263.1 924.5,261.7 955.1,265.5 985.6,264.2 1016.2,264.0 1046.8,264.0 1077.4,258.2 1108.0,261.9 1108.0,348.9 1077.4,346.8 1046.8,351.0 1016.2,350.7 985.6,352.0 955.1,351.9 924.5,348.4 893.9,350.0 863.3,349.1 832.7,350.3 802.1,350.0 771.5,348.6 740.9,349.1 710.4,361.7 679.8,363.2 649.2,287.5 618.6,272.9 588.0,265.0 557.4,282.0 526.8,312.6 496.2,315.9 465.6,311.9 435.1,316.8 404.5,320.6 373.9,322.0 343.3,321.6 312.7,319.8 282.1,330.3 251.5,331.5 220.9,323.5 190.4,312.1 159.8,318.1 129.2,327.2 98.6,340.9 68.0,349.0" fill="#006d2c" fill-opacity="0.9" stroke="#fff" stroke-width="0.4"><title>implicit_conversion — generateIR</title></polygon>
<polygon points="68.0,265.0 98.6,256.2 129.2,234.3 159.8,222.2 190.4,218.6 220.9,232.0 251.5,245.7 282.1,241.6 312.7,234.6 343.3,237.9 373.9,237.6 404.5,238.6 435.1,233.0 465.6,227.2 496.2,232.8 526.8,229.8 557.4,166.4 588.0,126.8 618.6,148.1 649.2,165.0 679.8,281.1 710.4,280.2 740.9,262.3 771.5,262.3 802.1,264.1 832.7,264.2 863.3,261.1 893.9,261.6 924.5,260.8 955.1,265.2 985.6,263.0 1016.2,263.5 1046.8,264.0 1077.4,256.7 1108.0,261.9 1108.0,261.9 1077.4,258.2 1046.8,264.0 1016.2,264.0 985.6,264.2 955.1,265.5 924.5,261.7 893.9,263.1 863.3,262.7 832.7,265.5 802.1,264.7 771.5,262.5 740.9,262.9 710.4,280.4 679.8,283.0 649.2,170.1 618.6,149.6 588.0,126.8 557.4,167.2 526.8,229.8 496.2,232.9 465.6,228.4 435.1,233.4 404.5,238.6 373.9,238.2 343.3,238.9 312.7,236.0 282.1,243.0 251.5,246.1 220.9,232.0 190.4,218.6 159.8,222.7 129.2,234.3 98.6,258.2 68.0,265.7" fill="#74c476" fill-opacity="0.9" stroke="#fff" stroke-width="0.4"><title>implicit_conversion — frontEndExecute (self)</title></polygon>
<polygon points="68.0,249.9 98.6,241.4 129.2,217.7 159.8,204.5 190.4,200.8 220.9,216.5 251.5,230.5 282.1,226.2 312.7,218.9 343.3,222.2 373.9,221.9 404.5,222.5 435.1,217.3 465.6,211.7 496.2,216.5 526.8,214.1 557.4,150.0 588.0,109.7 618.6,131.1 649.2,145.8 679.8,266.1 710.4,265.3 740.9,244.5 771.5,244.4 802.1,245.1 832.7,246.7 863.3,242.2 893.9,243.8 924.5,243.3 955.1,247.1 985.6,243.9 1016.2,245.6 1046.8,246.3 1077.4,238.5 1108.0,244.2 1108.0,261.9 1077.4,256.7 1046.8,264.0 1016.2,263.5 985.6,263.0 955.1,265.2 924.5,260.8 893.9,261.6 863.3,261.1 832.7,264.2 802.1,264.1 771.5,262.3 740.9,262.3 710.4,280.2 679.8,281.1 649.2,165.0 618.6,148.1 588.0,126.8 557.4,166.4 526.8,229.8 496.2,232.8 465.6,227.2 435.1,233.0 404.5,238.6 373.9,237.6 343.3,237.9 312.7,234.6 282.1,241.6 251.5,245.7 220.9,232.0 190.4,218.6 159.8,222.2 129.2,234.3 98.6,256.2 68.0,265.0" fill="#e6550d" fill-opacity="0.9" stroke="#fff" stroke-width="0.4"><title>implicit_conversion — generateOutput (self)</title></polygon>
<polygon points="68.0,249.9 98.6,240.5 129.2,200.4 159.8,204.5 190.4,200.7 220.9,216.5 251.5,230.3 282.1,226.2 312.7,218.9 343.3,221.8 373.9,221.6 404.5,218.6 435.1,217.1 465.6,211.7 496.2,216.5 526.8,214.0 557.4,150.0 588.0,108.6 618.6,131.1 649.2,143.2 679.8,265.7 710.4,265.1 740.9,244.5 771.5,244.4 802.1,244.8 832.7,246.7 863.3,242.1 893.9,243.8 924.5,242.8 955.1,247.1 985.6,240.7 1016.2,245.3 1046.8,245.9 1077.4,238.5 1108.0,244.0 1108.0,244.2 1077.4,238.5 1046.8,246.3 1016.2,245.6 985.6,243.9 955.1,247.1 924.5,243.3 893.9,243.8 863.3,242.2 832.7,246.7 802.1,245.1 771.5,244.4 740.9,244.5 710.4,265.3 679.8,266.1 649.2,145.8 618.6,131.1 588.0,109.7 557.4,150.0 526.8,214.1 496.2,216.5 465.6,211.7 435.1,217.3 404.5,222.5 373.9,221.9 343.3,222.2 312.7,218.9 282.1,226.2 251.5,230.5 220.9,216.5 190.4,200.8 159.8,204.5 129.2,217.7 98.6,241.4 68.0,249.9" fill="#969696" fill-opacity="0.9" stroke="#fff" stroke-width="0.4"><title>implicit_conversion — compileInner (self)</title></polygon>
<text x="12" y="578" fill="#666" font-weight="600">phase buckets</text>
<rect x="12" y="586" width="12" height="12" fill="#c7e9c0"/>
<text x="28" y="596" fill="#222">parseTranslationUnit</text>
<rect x="289" y="586" width="12" height="12" fill="#41ab5d"/>
<text x="305" y="596" fill="#222">SemanticChecking</text>
<rect x="566" y="586" width="12" height="12" fill="#006d2c"/>
<text x="582" y="596" fill="#222">generateIR</text>
<rect x="843" y="586" width="12" height="12" fill="#74c476"/>
<text x="859" y="596" fill="#222">frontEndExecute (self)</text>
<rect x="12" y="604" width="12" height="12" fill="#6baed6"/>
<text x="28" y="614" fill="#222">specializeModule</text>
<rect x="289" y="604" width="12" height="12" fill="#2171b5"/>
<text x="305" y="614" fill="#222">simplifyIR</text>
<rect x="566" y="604" width="12" height="12" fill="#08306b"/>
<text x="582" y="614" fill="#222">linkIR</text>
<rect x="843" y="604" width="12" height="12" fill="#9e9ac8"/>
<text x="859" y="614" fill="#222">unrollLoopsInModule</text>
<rect x="12" y="622" width="12" height="12" fill="#807dba"/>
<text x="28" y="632" fill="#222">legalizeResourceTypes</text>
<rect x="289" y="622" width="12" height="12" fill="#6a51a3"/>
<text x="305" y="632" fill="#222">legalizeExistentialTypeLayout</text>
<rect x="566" y="622" width="12" height="12" fill="#bcbddc"/>
<text x="582" y="632" fill="#222">performMandatoryEarlyInlining</text>
<rect x="843" y="622" width="12" height="12" fill="#dadaeb"/>
<text x="859" y="632" fill="#222">performForceInlining</text>
<rect x="12" y="640" width="12" height="12" fill="#4a1486"/>
<text x="28" y="650" fill="#222">linkAndOptimizeIR (self)</text>
<rect x="289" y="640" width="12" height="12" fill="#fd8d3c"/>
<text x="305" y="650" fill="#222">emitEntryPointsSourceFromIR</text>
<rect x="566" y="640" width="12" height="12" fill="#e6550d"/>
<text x="582" y="650" fill="#222">generateOutput (self)</text>
<rect x="843" y="640" width="12" height="12" fill="#969696"/>
<text x="859" y="650" fill="#222">compileInner (self)</text>
</svg>