<svg xmlns="http://www.w3.org/2000/svg" xmlns:xlink="http://www.w3.org/1999/xlink" width="1132" height="680" viewBox="0 0 1132 680" preserveAspectRatio="xMidYMid meet" font-family="sans-serif" font-size="13">
<rect width="1132" height="680" fill="white"/>
<text x="12" y="30" font-size="20" font-weight="bold">implicit_conversion — Daily tip-of-tree (last 30 days) (median ms)</text>
<text x="68" y="60" font-size="15" font-weight="600" fill="#1a1a1a">implicit_conversion<tspan fill="#888" font-weight="400" text-decoration="none">  0.99×</tspan></text>
<line x1="68.0" y1="516.0" x2="1108.0" y2="516.0" stroke="#eee"/>
<text x="64.0" y="519.0" text-anchor="end" fill="#999">0.0</text>
<line x1="68.0" y1="296.0" x2="1108.0" y2="296.0" stroke="#eee"/>
<text x="64.0" y="299.0" text-anchor="end" fill="#999">70</text>
<line x1="68.0" y1="76.0" x2="1108.0" y2="76.0" stroke="#eee"/>
<text x="64.0" y="79.0" text-anchor="end" fill="#999">140</text>
<line x1="68.0" y1="76.0" x2="68.0" y2="516.0" stroke="#333"/>
<line x1="68.0" y1="516.0" x2="1108.0" y2="516.0" stroke="#333"/>
<line x1="68.0" y1="516.0" x2="68.0" y2="519.0" stroke="#999"/>
<text x="68.0" y="531.0" text-anchor="end" fill="#e8731a" transform="rotate(-50 68.0 531.0)">06-25</text>
<line x1="113.2" y1="516.0" x2="113.2" y2="519.0" stroke="#999"/>
<text x="113.2" y="531.0" text-anchor="end" fill="#e8731a" transform="rotate(-50 113.2 531.0)">06-26</text>
<line x1="158.4" y1="516.0" x2="158.4" y2="519.0" stroke="#999"/>
<text x="158.4" y="531.0" text-anchor="end" fill="#e8731a" transform="rotate(-50 158.4 531.0)">06-28</text>
<line x1="203.7" y1="516.0" x2="203.7" y2="519.0" stroke="#999"/>
<text x="203.7" y="531.0" text-anchor="end" fill="#e8731a" transform="rotate(-50 203.7 531.0)">07-01</text>
<line x1="248.9" y1="516.0" x2="248.9" y2="519.0" stroke="#999"/>
<text x="248.9" y="531.0" text-anchor="end" fill="#e8731a" transform="rotate(-50 248.9 531.0)">07-02</text>
<line x1="294.1" y1="516.0" x2="294.1" y2="519.0" stroke="#999"/>
<text x="294.1" y="531.0" text-anchor="end" fill="#e8731a" transform="rotate(-50 294.1 531.0)">07-03</text>
<line x1="339.3" y1="516.0" x2="339.3" y2="519.0" stroke="#999"/>
<text x="339.3" y="531.0" text-anchor="end" fill="#e8731a" transform="rotate(-50 339.3 531.0)">07-06</text>
<line x1="384.5" y1="516.0" x2="384.5" y2="519.0" stroke="#999"/>
<text x="384.5" y="531.0" text-anchor="end" fill="#e8731a" transform="rotate(-50 384.5 531.0)">07-07</text>
<line x1="429.7" y1="516.0" x2="429.7" y2="519.0" stroke="#999"/>
<text x="429.7" y="531.0" text-anchor="end" fill="#e8731a" transform="rotate(-50 429.7 531.0)">07-08</text>
<line x1="475.0" y1="516.0" x2="475.0" y2="519.0" stroke="#999"/>
<text x="475.0" y="531.0" text-anchor="end" fill="#e8731a" transform="rotate(-50 475.0 531.0)">07-09</text>
<line x1="520.2" y1="516.0" x2="520.2" y2="519.0" stroke="#999"/>
<text x="520.2" y="531.0" text-anchor="end" fill="#e8731a" transform="rotate(-50 520.2 531.0)">07-10</text>
<line x1="565.4" y1="516.0" x2="565.4" y2="519.0" stroke="#999"/>
<text x="565.4" y="531.0" text-anchor="end" fill="#e8731a" transform="rotate(-50 565.4 531.0)">07-11</text>
<line x1="610.6" y1="516.0" x2="610.6" y2="519.0" stroke="#999"/>
<text x="610.6" y="531.0" text-anchor="end" fill="#e8731a" transform="rotate(-50 610.6 531.0)">07-14</text>
<line x1="655.8" y1="516.0" x2="655.8" y2="519.0" stroke="#999"/>
<text x="655.8" y="531.0" text-anchor="end" fill="#e8731a" transform="rotate(-50 655.8 531.0)">07-15</text>
<line x1="701.0" y1="516.0" x2="701.0" y2="519.0" stroke="#999"/>
<text x="701.0" y="531.0" text-anchor="end" fill="#e8731a" transform="rotate(-50 701.0 531.0)">07-15</text>
<line x1="746.3" y1="516.0" x2="746.3" y2="519.0" stroke="#999"/>
<text x="746.3" y="531.0" text-anchor="end" fill="#e8731a" transform="rotate(-50 746.3 531.0)">07-16</text>
<line x1="791.5" y1="516.0" x2="791.5" y2="519.0" stroke="#999"/>
<text x="791.5" y="531.0" text-anchor="end" fill="#e8731a" transform="rotate(-50 791.5 531.0)">07-17</text>
<line x1="836.7" y1="516.0" x2="836.7" y2="519.0" stroke="#999"/>
<text x="836.7" y="531.0" text-anchor="end" fill="#e8731a" transform="rotate(-50 836.7 531.0)">07-18</text>
<line x1="881.9" y1="516.0" x2="881.9" y2="519.0" stroke="#999"/>
<text x="881.9" y="531.0" text-anchor="end" fill="#e8731a" transform="rotate(-50 881.9 531.0)">07-19</text>
<line x1="927.1" y1="516.0" x2="927.1" y2="519.0" stroke="#999"/>
<text x="927.1" y="531.0" text-anchor="end" fill="#e8731a" transform="rotate(-50 927.1 531.0)">07-20</text>
<line x1="972.3" y1="516.0" x2="972.3" y2="519.0" stroke="#999"/>
<text x="972.3" y="531.0" text-anchor="end" fill="#e8731a" transform="rotate(-50 972.3 531.0)">07-21</text>
<line x1="1017.6" y1="516.0" x2="1017.6" y2="519.0" stroke="#999"/>
<text x="1017.6" y="531.0" text-anchor="end" fill="#e8731a" transform="rotate(-50 1017.6 531.0)">07-22</text>
<line x1="1062.8" y1="516.0" x2="1062.8" y2="519.0" stroke="#999"/>
<text x="1062.8" y="531.0" text-anchor="end" fill="#e8731a" transform="rotate(-50 1062.8 531.0)">07-23</text>
<line x1="1108.0" y1="516.0" x2="1108.0" y2="519.0" stroke="#999"/>
<text x="1108.0" y="531.0" text-anchor="end" fill="#e8731a" transform="rotate(-50 1108.0 531.0)">07-24</text>
<polygon points="68.0,495.8 113.2,495.5 158.4,495.7 203.7,495.4 248.9,495.7 294.1,496.1 339.3,495.3 384.5,498.5 429.7,498.4 475.0,498.6 520.2,498.6 565.4,498.4 610.6,498.6 655.8,500.0 701.0,500.2 746.3,500.1 791.5,499.9 836.7,502.0 881.9,502.0 927.1,501.6 972.3,502.0 1017.6,501.7 1062.8,501.6 1108.0,501.8 1108.0,516.0 1062.8,516.0 1017.6,516.0 972.3,516.0 927.1,516.0 881.9,516.0 836.7,516.0 791.5,516.0 746.3,516.0 701.0,516.0 655.8,516.0 610.6,516.0 565.4,516.0 520.2,516.0 475.0,516.0 429.7,516.0 384.5,516.0 339.3,516.0 294.1,516.0 248.9,516.0 203.7,516.0 158.4,516.0 113.2,516.0 68.0,516.0" fill="#c7e9c0" fill-opacity="0.9" stroke="#fff" stroke-width="0.4"><title>implicit_conversion — parseTranslationUnit</title></polygon>
<polygon points="68.0,283.7 113.2,283.0 158.4,285.0 203.7,285.4 248.9,283.8 294.1,284.9 339.3,282.7 384.5,287.6 429.7,287.8 475.0,285.9 520.2,286.3 565.4,280.6 610.6,283.5 655.8,303.6 701.0,305.1 746.3,252.7 791.5,248.1 836.7,269.4 881.9,269.8 927.1,268.3 972.3,269.9 1017.6,270.3 1062.8,270.8 1108.0,265.8 1108.0,501.8 1062.8,501.6 1017.6,501.7 972.3,502.0 927.1,501.6 881.9,502.0 836.7,502.0 791.5,499.9 746.3,500.1 701.0,500.2 655.8,500.0 610.6,498.6 565.4,498.4 520.2,498.6 475.0,498.6 429.7,498.4 384.5,498.5 339.3,495.3 294.1,496.1 248.9,495.7 203.7,495.4 158.4,495.7 113.2,495.5 68.0,495.8" fill="#41ab5d" fill-opacity="0.9" stroke="#fff" stroke-width="0.4"><title>implicit_conversion — SemanticChecking</title></polygon>
<polygon points="68.0,163.8 113.2,163.2 158.4,166.2 203.7,167.3 248.9,163.5 294.1,164.0 339.3,162.0 384.5,167.3 429.7,165.6 475.0,165.3 520.2,165.3 565.4,157.3 610.6,162.3 655.8,186.9 701.0,189.3 746.3,137.9 791.5,134.7 836.7,166.6 881.9,167.6 927.1,167.3 972.3,168.0 1017.6,166.6 1062.8,167.6 1108.0,164.3 1108.0,265.8 1062.8,270.8 1017.6,270.3 972.3,269.9 927.1,268.3 881.9,269.8 836.7,269.4 791.5,248.1 746.3,252.7 701.0,305.1 655.8,303.6 610.6,283.5 565.4,280.6 520.2,286.3 475.0,285.9 429.7,287.8 384.5,287.6 339.3,282.7 294.1,284.9 248.9,283.8 203.7,285.4 158.4,285.0 113.2,283.0 68.0,283.7" fill="#006d2c" fill-opacity="0.9" stroke="#fff" stroke-width="0.4"><title>implicit_conversion — generateIR</title></polygon>
<polygon points="68.0,162.9 113.2,162.9 158.4,165.4 203.7,165.5 248.9,161.3 294.1,161.9 339.3,160.8 384.5,166.9 429.7,163.8 475.0,164.6 520.2,165.3 565.4,155.2 610.6,162.3 655.8,184.2 701.0,189.3 746.3,137.1 791.5,134.5 836.7,164.8 881.9,167.4 927.1,167.3 972.3,166.7 1017.6,164.5 1062.8,167.6 1108.0,162.8 1108.0,164.3 1062.8,167.6 1017.6,166.6 972.3,168.0 927.1,167.3 881.9,167.6 836.7,166.6 791.5,134.7 746.3,137.9 701.0,189.3 655.8,186.9 610.6,162.3 565.4,157.3 520.2,165.3 475.0,165.3 429.7,165.6 384.5,167.3 339.3,162.0 294.1,164.0 248.9,163.5 203.7,167.3 158.4,166.2 113.2,163.2 68.0,163.8" fill="#74c476" fill-opacity="0.9" stroke="#fff" stroke-width="0.4"><title>implicit_conversion — frontEndExecute (self)</title></polygon>
<polygon points="68.0,138.2 113.2,138.0 158.4,139.0 203.7,141.2 248.9,135.0 294.1,137.2 339.3,136.4 384.5,141.7 429.7,137.3 475.0,139.7 520.2,140.7 565.4,129.8 610.6,137.7 655.8,159.0 701.0,164.4 746.3,112.2 791.5,109.6 836.7,142.2 881.9,145.0 927.1,145.7 972.3,145.3 1017.6,143.1 1062.8,146.0 1108.0,140.8 1108.0,162.8 1062.8,167.6 1017.6,164.5 972.3,166.7 927.1,167.3 881.9,167.4 836.7,164.8 791.5,134.5 746.3,137.1 701.0,189.3 655.8,184.2 610.6,162.3 565.4,155.2 520.2,165.3 475.0,164.6 429.7,163.8 384.5,166.9 339.3,160.8 294.1,161.9 248.9,161.3 203.7,165.5 158.4,165.4 113.2,162.9 68.0,162.9" fill="#e6550d" fill-opacity="0.9" stroke="#fff" stroke-width="0.4"><title>implicit_conversion — generateOutput (self)</title></polygon>
<polygon points="68.0,138.2 113.2,138.0 158.4,138.6 203.7,141.2 248.9,134.8 294.1,137.2 339.3,135.8 384.5,141.7 429.7,132.8 475.0,139.2 520.2,140.1 565.4,129.8 610.6,137.4 655.8,158.6 701.0,164.4 746.3,111.8 791.5,108.6 836.7,142.2 881.9,145.0 927.1,145.7 972.3,145.3 1017.6,143.1 1062.8,146.0 1108.0,140.8 1108.0,140.8 1062.8,146.0 1017.6,143.1 972.3,145.3 927.1,145.7 881.9,145.0 836.7,142.2 791.5,109.6 746.3,112.2 701.0,164.4 655.8,159.0 610.6,137.7 565.4,129.8 520.2,140.7 475.0,139.7 429.7,137.3 384.5,141.7 339.3,136.4 294.1,137.2 248.9,135.0 203.7,141.2 158.4,139.0 113.2,138.0 68.0,138.2" fill="#969696" fill-opacity="0.9" stroke="#fff" stroke-width="0.4"><title>implicit_conversion — compileInner (self)</title></polygon>
<text x="12" y="578" fill="#666" font-weight="600">phase buckets</text>
<rect x="12" y="586" width="12" height="12" fill="#c7e9c0"/>
<text x="28" y="596" fill="#222">parseTranslationUnit</text>
<rect x="289" y="586" width="12" height="12" fill="#41ab5d"/>
<text x="305" y="596" fill="#222">SemanticChecking</text>
<rect x="566" y="586" width="12" height="12" fill="#006d2c"/>
<text x="582" y="596" fill="#222">generateIR</text>
<rect x="843" y="586" width="12" height="12" fill="#74c476"/>
<text x="859" y="596" fill="#222">frontEndExecute (self)</text>
<rect x="12" y="604" width="12" height="12" fill="#6baed6"/>
<text x="28" y="614" fill="#222">specializeModule</text>
<rect x="289" y="604" width="12" height="12" fill="#2171b5"/>
<text x="305" y="614" fill="#222">simplifyIR</text>
<rect x="566" y="604" width="12" height="12" fill="#08306b"/>
<text x="582" y="614" fill="#222">linkIR</text>
<rect x="843" y="604" width="12" height="12" fill="#9e9ac8"/>
<text x="859" y="614" fill="#222">unrollLoopsInModule</text>
<rect x="12" y="622" width="12" height="12" fill="#807dba"/>
<text x="28" y="632" fill="#222">legalizeResourceTypes</text>
<rect x="289" y="622" width="12" height="12" fill="#6a51a3"/>
<text x="305" y="632" fill="#222">legalizeExistentialTypeLayout</text>
<rect x="566" y="622" width="12" height="12" fill="#bcbddc"/>
<text x="582" y="632" fill="#222">performMandatoryEarlyInlining</text>
<rect x="843" y="622" width="12" height="12" fill="#dadaeb"/>
<text x="859" y="632" fill="#222">performForceInlining</text>
<rect x="12" y="640" width="12" height="12" fill="#4a1486"/>
<text x="28" y="650" fill="#222">linkAndOptimizeIR (self)</text>
<rect x="289" y="640" width="12" height="12" fill="#fd8d3c"/>
<text x="305" y="650" fill="#222">emitEntryPointsSourceFromIR</text>
<rect x="566" y="640" width="12" height="12" fill="#e6550d"/>
<text x="582" y="650" fill="#222">generateOutput (self)</text>
<rect x="843" y="640" width="12" height="12" fill="#969696"/>
<text x="859" y="650" fill="#222">compileInner (self)</text>
</svg>