<svg xmlns="http://www.w3.org/2000/svg" xmlns:xlink="http://www.w3.org/1999/xlink" width="1132" height="680" viewBox="0 0 1132 680" preserveAspectRatio="xMidYMid meet" font-family="sans-serif" font-size="13">
<rect width="1132" height="680" fill="white"/>
<text x="12" y="30" font-size="20" font-weight="bold">implicit_conversion — Across releases (median ms)</text>
<text x="68" y="60" font-size="15" font-weight="600" fill="#1a1a1a">implicit_conversion<tspan fill="#888" font-weight="400" text-decoration="none">  0.62×</tspan></text>
<line x1="68.0" y1="516.0" x2="1108.0" y2="516.0" stroke="#eee"/>
<text x="64.0" y="519.0" text-anchor="end" fill="#999">0.0</text>
<line x1="68.0" y1="296.0" x2="1108.0" y2="296.0" stroke="#eee"/>
<text x="64.0" y="299.0" text-anchor="end" fill="#999">100</text>
<line x1="68.0" y1="76.0" x2="1108.0" y2="76.0" stroke="#eee"/>
<text x="64.0" y="79.0" text-anchor="end" fill="#999">200</text>
<line x1="68.0" y1="76.0" x2="68.0" y2="516.0" stroke="#333"/>
<line x1="68.0" y1="516.0" x2="1108.0" y2="516.0" stroke="#333"/>
<line x1="68.0" y1="516.0" x2="68.0" y2="519.0" stroke="#999"/>
<text x="68.0" y="531.0" text-anchor="end" fill="#666" transform="rotate(-50 68.0 531.0)">25.12</text>
<line x1="109.6" y1="516.0" x2="109.6" y2="519.0" stroke="#999"/>
<text x="109.6" y="531.0" text-anchor="end" fill="#666" transform="rotate(-50 109.6 531.0)">25.13</text>
<line x1="151.2" y1="516.0" x2="151.2" y2="519.0" stroke="#999"/>
<text x="151.2" y="531.0" text-anchor="end" fill="#666" transform="rotate(-50 151.2 531.0)">25.14</text>
<line x1="192.8" y1="516.0" x2="192.8" y2="519.0" stroke="#999"/>
<text x="192.8" y="531.0" text-anchor="end" fill="#666" transform="rotate(-50 192.8 531.0)">25.15</text>
<line x1="234.4" y1="516.0" x2="234.4" y2="519.0" stroke="#999"/>
<text x="234.4" y="531.0" text-anchor="end" fill="#666" transform="rotate(-50 234.4 531.0)">25.16</text>
<line x1="276.0" y1="516.0" x2="276.0" y2="519.0" stroke="#999"/>
<text x="276.0" y="531.0" text-anchor="end" fill="#666" transform="rotate(-50 276.0 531.0)">25.17</text>
<line x1="317.6" y1="516.0" x2="317.6" y2="519.0" stroke="#999"/>
<text x="317.6" y="531.0" text-anchor="end" fill="#666" transform="rotate(-50 317.6 531.0)">25.18</text>
<line x1="359.2" y1="516.0" x2="359.2" y2="519.0" stroke="#999"/>
<text x="359.2" y="531.0" text-anchor="end" fill="#666" transform="rotate(-50 359.2 531.0)">25.19</text>
<line x1="400.8" y1="516.0" x2="400.8" y2="519.0" stroke="#999"/>
<text x="400.8" y="531.0" text-anchor="end" fill="#666" transform="rotate(-50 400.8 531.0)">25.20</text>
<line x1="442.4" y1="516.0" x2="442.4" y2="519.0" stroke="#999"/>
<text x="442.4" y="531.0" text-anchor="end" fill="#666" transform="rotate(-50 442.4 531.0)">25.21</text>
<line x1="484.0" y1="516.0" x2="484.0" y2="519.0" stroke="#999"/>
<text x="484.0" y="531.0" text-anchor="end" fill="#666" transform="rotate(-50 484.0 531.0)">25.22</text>
<line x1="525.6" y1="516.0" x2="525.6" y2="519.0" stroke="#999"/>
<text x="525.6" y="531.0" text-anchor="end" fill="#666" transform="rotate(-50 525.6 531.0)">25.23</text>
<line x1="567.2" y1="516.0" x2="567.2" y2="519.0" stroke="#999"/>
<text x="567.2" y="531.0" text-anchor="end" fill="#666" transform="rotate(-50 567.2 531.0)">25.24</text>
<line x1="608.8" y1="516.0" x2="608.8" y2="519.0" stroke="#999"/>
<text x="608.8" y="531.0" text-anchor="end" fill="#666" transform="rotate(-50 608.8 531.0)">26.1</text>
<line x1="650.4" y1="516.0" x2="650.4" y2="519.0" stroke="#999"/>
<text x="650.4" y="531.0" text-anchor="end" fill="#666" transform="rotate(-50 650.4 531.0)">26.2</text>
<line x1="692.0" y1="516.0" x2="692.0" y2="519.0" stroke="#999"/>
<text x="692.0" y="531.0" text-anchor="end" fill="#666" transform="rotate(-50 692.0 531.0)">26.3</text>
<line x1="733.6" y1="516.0" x2="733.6" y2="519.0" stroke="#999"/>
<text x="733.6" y="531.0" text-anchor="end" fill="#666" transform="rotate(-50 733.6 531.0)">26.4</text>
<line x1="775.2" y1="516.0" x2="775.2" y2="519.0" stroke="#999"/>
<text x="775.2" y="531.0" text-anchor="end" fill="#666" transform="rotate(-50 775.2 531.0)">26.5</text>
<line x1="816.8" y1="516.0" x2="816.8" y2="519.0" stroke="#999"/>
<text x="816.8" y="531.0" text-anchor="end" fill="#666" transform="rotate(-50 816.8 531.0)">26.7</text>
<line x1="858.4" y1="516.0" x2="858.4" y2="519.0" stroke="#999"/>
<text x="858.4" y="531.0" text-anchor="end" fill="#666" transform="rotate(-50 858.4 531.0)">26.8</text>
<line x1="900.0" y1="516.0" x2="900.0" y2="519.0" stroke="#999"/>
<text x="900.0" y="531.0" text-anchor="end" fill="#666" transform="rotate(-50 900.0 531.0)">26.9</text>
<line x1="941.6" y1="516.0" x2="941.6" y2="519.0" stroke="#999"/>
<text x="941.6" y="531.0" text-anchor="end" fill="#666" transform="rotate(-50 941.6 531.0)">26.10</text>
<line x1="983.2" y1="516.0" x2="983.2" y2="519.0" stroke="#999"/>
<text x="983.2" y="531.0" text-anchor="end" fill="#666" transform="rotate(-50 983.2 531.0)">26.11</text>
<line x1="1024.8" y1="516.0" x2="1024.8" y2="519.0" stroke="#999"/>
<text x="1024.8" y="531.0" text-anchor="end" fill="#666" transform="rotate(-50 1024.8 531.0)">26.12</text>
<line x1="1066.4" y1="516.0" x2="1066.4" y2="519.0" stroke="#999"/>
<text x="1066.4" y="531.0" text-anchor="end" fill="#666" transform="rotate(-50 1066.4 531.0)">26.13</text>
<line x1="1108.0" y1="516.0" x2="1108.0" y2="519.0" stroke="#999"/>
<text x="1108.0" y="531.0" text-anchor="end" fill="#666" transform="rotate(-50 1108.0 531.0)">26.13.1</text>
<polygon points="68.0,505.0 109.6,502.1 151.2,502.7 192.8,503.1 234.4,503.8 276.0,503.9 317.6,504.1 359.2,503.7 400.8,503.8 442.4,503.7 484.0,503.9 525.6,504.0 567.2,503.6 608.8,503.4 650.4,503.3 692.0,503.2 733.6,502.4 775.2,503.5 816.8,502.6 858.4,502.8 900.0,502.9 941.6,501.7 983.2,501.6 1024.8,503.0 1066.4,503.0 1108.0,503.0 1108.0,516.0 1066.4,516.0 1024.8,516.0 983.2,516.0 941.6,516.0 900.0,516.0 858.4,516.0 816.8,516.0 775.2,516.0 733.6,516.0 692.0,516.0 650.4,516.0 608.8,516.0 567.2,516.0 525.6,516.0 484.0,516.0 442.4,516.0 400.8,516.0 359.2,516.0 317.6,516.0 276.0,516.0 234.4,516.0 192.8,516.0 151.2,516.0 109.6,516.0 68.0,516.0" fill="#c7e9c0" fill-opacity="0.9" stroke="#fff" stroke-width="0.4"><title>implicit_conversion — parseTranslationUnit</title></polygon>
<polygon points="68.0,359.9 109.6,353.9 151.2,334.8 192.8,322.6 234.4,338.0 276.0,337.7 317.6,337.7 359.2,337.9 400.8,333.4 442.4,337.1 484.0,326.8 525.6,326.1 567.2,325.7 608.8,324.3 650.4,324.3 692.0,323.4 733.6,316.9 775.2,318.0 816.8,276.5 858.4,300.3 900.0,300.9 941.6,261.5 983.2,336.8 1024.8,366.0 1066.4,365.2 1108.0,367.5 1108.0,503.0 1066.4,503.0 1024.8,503.0 983.2,501.6 941.6,501.7 900.0,502.9 858.4,502.8 816.8,502.6 775.2,503.5 733.6,502.4 692.0,503.2 650.4,503.3 608.8,503.4 567.2,503.6 525.6,504.0 484.0,503.9 442.4,503.7 400.8,503.8 359.2,503.7 317.6,504.1 276.0,503.9 234.4,503.8 192.8,503.1 151.2,502.7 109.6,502.1 68.0,505.0" fill="#41ab5d" fill-opacity="0.9" stroke="#fff" stroke-width="0.4"><title>implicit_conversion — SemanticChecking</title></polygon>
<polygon points="68.0,280.8 109.6,272.9 151.2,246.0 192.8,231.6 234.4,251.6 276.0,251.8 317.6,256.1 359.2,253.7 400.8,250.0 442.4,254.6 484.0,245.0 525.6,246.4 567.2,246.2 608.8,243.5 650.4,242.1 692.0,241.0 733.6,230.5 775.2,238.5 816.8,149.5 858.4,192.9 900.0,191.3 941.6,129.3 983.2,243.5 1024.8,287.1 1066.4,283.7 1108.0,287.9 1108.0,367.5 1066.4,365.2 1024.8,366.0 983.2,336.8 941.6,261.5 900.0,300.9 858.4,300.3 816.8,276.5 775.2,318.0 733.6,316.9 692.0,323.4 650.4,324.3 608.8,324.3 567.2,325.7 525.6,326.1 484.0,326.8 442.4,337.1 400.8,333.4 359.2,337.9 317.6,337.7 276.0,337.7 234.4,338.0 192.8,322.6 151.2,334.8 109.6,353.9 68.0,359.9" fill="#006d2c" fill-opacity="0.9" stroke="#fff" stroke-width="0.4"><title>implicit_conversion — generateIR</title></polygon>
<polygon points="68.0,274.2 109.6,272.0 151.2,245.6 192.8,231.6 234.4,250.2 276.0,251.8 317.6,255.1 359.2,253.7 400.8,250.0 442.4,254.3 484.0,244.8 525.6,245.6 567.2,245.2 608.8,243.2 650.4,239.3 692.0,240.9 733.6,230.3 775.2,237.8 816.8,149.5 858.4,192.9 900.0,190.9 941.6,128.9 983.2,243.5 1024.8,286.2 1066.4,282.3 1108.0,287.9 1108.0,287.9 1066.4,283.7 1024.8,287.1 983.2,243.5 941.6,129.3 900.0,191.3 858.4,192.9 816.8,149.5 775.2,238.5 733.6,230.5 692.0,241.0 650.4,242.1 608.8,243.5 567.2,246.2 525.6,246.4 484.0,245.0 442.4,254.6 400.8,250.0 359.2,253.7 317.6,256.1 276.0,251.8 234.4,251.6 192.8,231.6 151.2,246.0 109.6,272.9 68.0,280.8" fill="#74c476" fill-opacity="0.9" stroke="#fff" stroke-width="0.4"><title>implicit_conversion — frontEndExecute (self)</title></polygon>
<polygon points="68.0,133.5 109.6,257.2 151.2,229.0 192.8,216.4 234.4,235.4 276.0,235.0 317.6,238.0 359.2,238.4 400.8,235.1 442.4,239.2 484.0,229.5 525.6,230.0 567.2,230.0 608.8,227.2 650.4,224.2 692.0,225.6 733.6,214.7 775.2,222.3 816.8,131.8 858.4,177.1 900.0,175.1 941.6,110.5 983.2,227.7 1024.8,271.8 1066.4,268.0 1108.0,273.5 1108.0,287.9 1066.4,282.3 1024.8,286.2 983.2,243.5 941.6,128.9 900.0,190.9 858.4,192.9 816.8,149.5 775.2,237.8 733.6,230.3 692.0,240.9 650.4,239.3 608.8,243.2 567.2,245.2 525.6,245.6 484.0,244.8 442.4,254.3 400.8,250.0 359.2,253.7 317.6,255.1 276.0,251.8 234.4,250.2 192.8,231.6 151.2,245.6 109.6,272.0 68.0,274.2" fill="#e6550d" fill-opacity="0.9" stroke="#fff" stroke-width="0.4"><title>implicit_conversion — generateOutput (self)</title></polygon>
<polygon points="68.0,126.9 109.6,257.2 151.2,228.8 192.8,215.3 234.4,235.4 276.0,234.7 317.6,237.9 359.2,238.4 400.8,235.1 442.4,239.1 484.0,229.1 525.6,230.0 567.2,230.0 608.8,227.2 650.4,224.2 692.0,225.6 733.6,214.1 775.2,222.3 816.8,131.8 858.4,177.1 900.0,174.7 941.6,108.6 983.2,222.1 1024.8,271.7 1066.4,268.0 1108.0,273.3 1108.0,273.5 1066.4,268.0 1024.8,271.8 983.2,227.7 941.6,110.5 900.0,175.1 858.4,177.1 816.8,131.8 775.2,222.3 733.6,214.7 692.0,225.6 650.4,224.2 608.8,227.2 567.2,230.0 525.6,230.0 484.0,229.5 442.4,239.2 400.8,235.1 359.2,238.4 317.6,238.0 276.0,235.0 234.4,235.4 192.8,216.4 151.2,229.0 109.6,257.2 68.0,133.5" fill="#969696" fill-opacity="0.9" stroke="#fff" stroke-width="0.4"><title>implicit_conversion — compileInner (self)</title></polygon>
<text x="12" y="578" fill="#666" font-weight="600">phase buckets</text>
<rect x="12" y="586" width="12" height="12" fill="#c7e9c0"/>
<text x="28" y="596" fill="#222">parseTranslationUnit</text>
<rect x="289" y="586" width="12" height="12" fill="#41ab5d"/>
<text x="305" y="596" fill="#222">SemanticChecking</text>
<rect x="566" y="586" width="12" height="12" fill="#006d2c"/>
<text x="582" y="596" fill="#222">generateIR</text>
<rect x="843" y="586" width="12" height="12" fill="#74c476"/>
<text x="859" y="596" fill="#222">frontEndExecute (self)</text>
<rect x="12" y="604" width="12" height="12" fill="#6baed6"/>
<text x="28" y="614" fill="#222">specializeModule</text>
<rect x="289" y="604" width="12" height="12" fill="#2171b5"/>
<text x="305" y="614" fill="#222">simplifyIR</text>
<rect x="566" y="604" width="12" height="12" fill="#08306b"/>
<text x="582" y="614" fill="#222">linkIR</text>
<rect x="843" y="604" width="12" height="12" fill="#9e9ac8"/>
<text x="859" y="614" fill="#222">unrollLoopsInModule</text>
<rect x="12" y="622" width="12" height="12" fill="#807dba"/>
<text x="28" y="632" fill="#222">legalizeResourceTypes</text>
<rect x="289" y="622" width="12" height="12" fill="#6a51a3"/>
<text x="305" y="632" fill="#222">legalizeExistentialTypeLayout</text>
<rect x="566" y="622" width="12" height="12" fill="#bcbddc"/>
<text x="582" y="632" fill="#222">performMandatoryEarlyInlining</text>
<rect x="843" y="622" width="12" height="12" fill="#dadaeb"/>
<text x="859" y="632" fill="#222">performForceInlining</text>
<rect x="12" y="640" width="12" height="12" fill="#4a1486"/>
<text x="28" y="650" fill="#222">linkAndOptimizeIR (self)</text>
<rect x="289" y="640" width="12" height="12" fill="#fd8d3c"/>
<text x="305" y="650" fill="#222">emitEntryPointsSourceFromIR</text>
<rect x="566" y="640" width="12" height="12" fill="#e6550d"/>
<text x="582" y="650" fill="#222">generateOutput (self)</text>
<rect x="843" y="640" width="12" height="12" fill="#969696"/>
<text x="859" y="650" fill="#222">compileInner (self)</text>
</svg>