<svg xmlns="http://www.w3.org/2000/svg" xmlns:xlink="http://www.w3.org/1999/xlink" width="1132" height="680" viewBox="0 0 1132 680" preserveAspectRatio="xMidYMid meet" font-family="sans-serif" font-size="13">
<rect width="1132" height="680" fill="white"/>
<text x="12" y="30" font-size="20" font-weight="bold">inlining — full phase breakdown across releases (median ms)</text>
<text x="68" y="60" font-size="15" font-weight="600" fill="#1a1a1a">inlining<tspan fill="#888" font-weight="400" text-decoration="none">  5.00×</tspan></text>
<line x1="68.0" y1="516.0" x2="1108.0" y2="516.0" stroke="#eee"/>
<text x="64.0" y="519.0" text-anchor="end" fill="#999">0.0</text>
<line x1="68.0" y1="296.0" x2="1108.0" y2="296.0" stroke="#eee"/>
<text x="64.0" y="299.0" text-anchor="end" fill="#999">302</text>
<line x1="68.0" y1="76.0" x2="1108.0" y2="76.0" stroke="#eee"/>
<text x="64.0" y="79.0" text-anchor="end" fill="#999">604</text>
<line x1="68.0" y1="76.0" x2="68.0" y2="516.0" stroke="#333"/>
<line x1="68.0" y1="516.0" x2="1108.0" y2="516.0" stroke="#333"/>
<line x1="68.0" y1="516.0" x2="68.0" y2="519.0" stroke="#999"/>
<text x="68.0" y="531.0" text-anchor="end" fill="#666" transform="rotate(-50 68.0 531.0)">25.19</text>
<line x1="137.3" y1="516.0" x2="137.3" y2="519.0" stroke="#999"/>
<text x="137.3" y="531.0" text-anchor="end" fill="#666" transform="rotate(-50 137.3 531.0)">25.20</text>
<line x1="206.7" y1="516.0" x2="206.7" y2="519.0" stroke="#999"/>
<text x="206.7" y="531.0" text-anchor="end" fill="#666" transform="rotate(-50 206.7 531.0)">25.21</text>
<line x1="276.0" y1="516.0" x2="276.0" y2="519.0" stroke="#999"/>
<text x="276.0" y="531.0" text-anchor="end" fill="#666" transform="rotate(-50 276.0 531.0)">25.22</text>
<line x1="345.3" y1="516.0" x2="345.3" y2="519.0" stroke="#999"/>
<text x="345.3" y="531.0" text-anchor="end" fill="#666" transform="rotate(-50 345.3 531.0)">25.23</text>
<line x1="414.7" y1="516.0" x2="414.7" y2="519.0" stroke="#999"/>
<text x="414.7" y="531.0" text-anchor="end" fill="#666" transform="rotate(-50 414.7 531.0)">25.24</text>
<line x1="484.0" y1="516.0" x2="484.0" y2="519.0" stroke="#999"/>
<text x="484.0" y="531.0" text-anchor="end" fill="#666" transform="rotate(-50 484.0 531.0)">26.1</text>
<line x1="553.3" y1="516.0" x2="553.3" y2="519.0" stroke="#999"/>
<text x="553.3" y="531.0" text-anchor="end" fill="#666" transform="rotate(-50 553.3 531.0)">26.2</text>
<line x1="622.7" y1="516.0" x2="622.7" y2="519.0" stroke="#999"/>
<text x="622.7" y="531.0" text-anchor="end" fill="#666" transform="rotate(-50 622.7 531.0)">26.3</text>
<line x1="692.0" y1="516.0" x2="692.0" y2="519.0" stroke="#999"/>
<text x="692.0" y="531.0" text-anchor="end" fill="#666" transform="rotate(-50 692.0 531.0)">26.4</text>
<line x1="761.3" y1="516.0" x2="761.3" y2="519.0" stroke="#999"/>
<text x="761.3" y="531.0" text-anchor="end" fill="#666" transform="rotate(-50 761.3 531.0)">26.5</text>
<line x1="830.7" y1="516.0" x2="830.7" y2="519.0" stroke="#999"/>
<text x="830.7" y="531.0" text-anchor="end" fill="#666" transform="rotate(-50 830.7 531.0)">26.7</text>
<line x1="900.0" y1="516.0" x2="900.0" y2="519.0" stroke="#999"/>
<text x="900.0" y="531.0" text-anchor="end" fill="#666" transform="rotate(-50 900.0 531.0)">26.8</text>
<line x1="969.3" y1="516.0" x2="969.3" y2="519.0" stroke="#999"/>
<text x="969.3" y="531.0" text-anchor="end" fill="#666" transform="rotate(-50 969.3 531.0)">26.9</text>
<line x1="1038.7" y1="516.0" x2="1038.7" y2="519.0" stroke="#999"/>
<text x="1038.7" y="531.0" text-anchor="end" fill="#666" transform="rotate(-50 1038.7 531.0)">26.10</text>
<line x1="1108.0" y1="516.0" x2="1108.0" y2="519.0" stroke="#999"/>
<text x="1108.0" y="531.0" text-anchor="end" fill="#666" transform="rotate(-50 1108.0 531.0)">26.11</text>
<polygon points="68.0,514.8 137.3,514.8 206.7,514.8 276.0,514.8 345.3,514.8 414.7,514.8 484.0,514.8 553.3,514.8 622.7,514.8 692.0,514.7 761.3,514.7 830.7,514.6 900.0,514.7 969.3,514.7 1038.7,514.5 1108.0,514.7 1108.0,516.0 1038.7,516.0 969.3,516.0 900.0,516.0 830.7,516.0 761.3,516.0 692.0,516.0 622.7,516.0 553.3,516.0 484.0,516.0 414.7,516.0 345.3,516.0 276.0,516.0 206.7,516.0 137.3,516.0 68.0,516.0" fill="#c7e9c0" fill-opacity="0.9" stroke="#fff" stroke-width="0.4"><title>inlining — parseTranslationUnit</title></polygon>
<polygon points="68.0,482.6 137.3,482.3 206.7,482.7 276.0,478.7 345.3,478.6 414.7,478.8 484.0,476.6 553.3,474.1 622.7,475.2 692.0,474.2 761.3,474.1 830.7,470.0 900.0,469.8 969.3,469.8 1038.7,468.8 1108.0,488.2 1108.0,514.7 1038.7,514.5 969.3,514.7 900.0,514.7 830.7,514.6 761.3,514.7 692.0,514.7 622.7,514.8 553.3,514.8 484.0,514.8 414.7,514.8 345.3,514.8 276.0,514.8 206.7,514.8 137.3,514.8 68.0,514.8" fill="#41ab5d" fill-opacity="0.9" stroke="#fff" stroke-width="0.4"><title>inlining — SemanticChecking</title></polygon>
<polygon points="68.0,475.2 137.3,474.8 206.7,475.2 276.0,471.2 345.3,471.2 414.7,471.5 484.0,469.2 553.3,466.6 622.7,467.7 692.0,466.6 761.3,466.4 830.7,453.7 900.0,453.2 969.3,453.1 1038.7,452.2 1108.0,478.0 1108.0,488.2 1038.7,468.8 969.3,469.8 900.0,469.8 830.7,470.0 761.3,474.1 692.0,474.2 622.7,475.2 553.3,474.1 484.0,476.6 414.7,478.8 345.3,478.6 276.0,478.7 206.7,482.7 137.3,482.3 68.0,482.6" fill="#006d2c" fill-opacity="0.9" stroke="#fff" stroke-width="0.4"><title>inlining — generateIR</title></polygon>
<polygon points="68.0,474.8 137.3,474.6 206.7,474.9 276.0,471.1 345.3,471.1 414.7,471.2 484.0,468.8 553.3,466.3 622.7,467.4 692.0,466.5 761.3,466.1 830.7,453.3 900.0,453.0 969.3,452.6 1038.7,452.0 1108.0,477.7 1108.0,478.0 1038.7,452.2 969.3,453.1 900.0,453.2 830.7,453.7 761.3,466.4 692.0,466.6 622.7,467.7 553.3,466.6 484.0,469.2 414.7,471.5 345.3,471.2 276.0,471.2 206.7,475.2 137.3,474.8 68.0,475.2" fill="#74c476" fill-opacity="0.9" stroke="#fff" stroke-width="0.4"><title>inlining — frontEndExecute (self)</title></polygon>
<polygon points="68.0,471.5 137.3,471.2 206.7,471.5 276.0,467.7 345.3,467.6 414.7,466.4 484.0,464.0 553.3,461.5 622.7,462.6 692.0,461.5 761.3,460.9 830.7,433.3 900.0,432.8 969.3,432.7 1038.7,431.7 1108.0,463.5 1108.0,477.7 1038.7,452.0 969.3,452.6 900.0,453.0 830.7,453.3 761.3,466.1 692.0,466.5 622.7,467.4 553.3,466.3 484.0,468.8 414.7,471.2 345.3,471.1 276.0,471.1 206.7,474.9 137.3,474.6 68.0,474.8" fill="#6baed6" fill-opacity="0.9" stroke="#fff" stroke-width="0.4"><title>inlining — specializeModule</title></polygon>
<polygon points="68.0,462.4 137.3,462.0 206.7,462.5 276.0,458.6 345.3,458.6 414.7,457.8 484.0,455.3 553.3,452.9 622.7,453.9 692.0,452.6 761.3,451.9 830.7,139.3 900.0,136.6 969.3,147.0 1038.7,146.0 1108.0,199.5 1108.0,463.5 1038.7,431.7 969.3,432.7 900.0,432.8 830.7,433.3 761.3,460.9 692.0,461.5 622.7,462.6 553.3,461.5 484.0,464.0 414.7,466.4 345.3,467.6 276.0,467.7 206.7,471.5 137.3,471.2 68.0,471.5" fill="#2171b5" fill-opacity="0.9" stroke="#fff" stroke-width="0.4"><title>inlining — simplifyIR</title></polygon>
<polygon points="68.0,460.9 137.3,460.5 206.7,460.9 276.0,457.2 345.3,457.1 414.7,456.4 484.0,453.8 553.3,451.3 622.7,452.3 692.0,450.7 761.3,450.1 830.7,130.5 900.0,127.6 969.3,138.1 1038.7,136.8 1108.0,198.0 1108.0,199.5 1038.7,146.0 969.3,147.0 900.0,136.6 830.7,139.3 761.3,451.9 692.0,452.6 622.7,453.9 553.3,452.9 484.0,455.3 414.7,457.8 345.3,458.6 276.0,458.6 206.7,462.5 137.3,462.0 68.0,462.4" fill="#08306b" fill-opacity="0.9" stroke="#fff" stroke-width="0.4"><title>inlining — linkIR</title></polygon>
<polygon points="68.0,460.7 137.3,460.3 206.7,460.7 276.0,457.0 345.3,456.9 414.7,456.3 484.0,453.6 553.3,451.2 622.7,452.2 692.0,450.6 761.3,450.0 830.7,130.4 900.0,127.6 969.3,138.0 1038.7,136.7 1108.0,198.0 1108.0,198.0 1038.7,136.8 969.3,138.1 900.0,127.6 830.7,130.5 761.3,450.1 692.0,450.7 622.7,452.3 553.3,451.3 484.0,453.8 414.7,456.4 345.3,457.1 276.0,457.2 206.7,460.9 137.3,460.5 68.0,460.9" fill="#9e9ac8" fill-opacity="0.9" stroke="#fff" stroke-width="0.4"><title>inlining — unrollLoopsInModule</title></polygon>
<polygon points="68.0,459.6 137.3,459.2 206.7,459.5 276.0,455.8 345.3,455.7 414.7,455.0 484.0,452.4 553.3,450.0 622.7,451.0 692.0,449.3 761.3,448.7 830.7,129.2 900.0,126.3 969.3,136.8 1038.7,135.5 1108.0,196.8 1108.0,198.0 1038.7,136.7 969.3,138.0 900.0,127.6 830.7,130.4 761.3,450.0 692.0,450.6 622.7,452.2 553.3,451.2 484.0,453.6 414.7,456.3 345.3,456.9 276.0,457.0 206.7,460.7 137.3,460.3 68.0,460.7" fill="#807dba" fill-opacity="0.9" stroke="#fff" stroke-width="0.4"><title>inlining — legalizeResourceTypes</title></polygon>
<polygon points="68.0,458.3 137.3,458.0 206.7,458.3 276.0,454.6 345.3,454.5 414.7,453.8 484.0,451.2 553.3,448.9 622.7,449.8 692.0,448.0 761.3,447.5 830.7,127.9 900.0,125.1 969.3,135.6 1038.7,134.2 1108.0,195.6 1108.0,196.8 1038.7,135.5 969.3,136.8 900.0,126.3 830.7,129.2 761.3,448.7 692.0,449.3 622.7,451.0 553.3,450.0 484.0,452.4 414.7,455.0 345.3,455.7 276.0,455.8 206.7,459.5 137.3,459.2 68.0,459.6" fill="#6a51a3" fill-opacity="0.9" stroke="#fff" stroke-width="0.4"><title>inlining — legalizeExistentialTypeLayout</title></polygon>
<polygon points="68.0,457.8 137.3,457.4 206.7,457.7 276.0,454.0 345.3,453.9 414.7,453.3 484.0,450.6 553.3,448.3 622.7,449.2 692.0,447.4 761.3,446.9 830.7,127.4 900.0,124.6 969.3,135.1 1038.7,133.8 1108.0,195.1 1108.0,195.6 1038.7,134.2 969.3,135.6 900.0,125.1 830.7,127.9 761.3,447.5 692.0,448.0 622.7,449.8 553.3,448.9 484.0,451.2 414.7,453.8 345.3,454.5 276.0,454.6 206.7,458.3 137.3,458.0 68.0,458.3" fill="#bcbddc" fill-opacity="0.9" stroke="#fff" stroke-width="0.4"><title>inlining — performMandatoryEarlyInlining</title></polygon>
<polygon points="68.0,456.1 137.3,455.8 206.7,456.1 276.0,452.4 345.3,452.3 414.7,451.7 484.0,449.0 553.3,446.7 622.7,447.6 692.0,445.8 761.3,445.2 830.7,125.7 900.0,122.8 969.3,133.4 1038.7,132.0 1108.0,193.4 1108.0,195.1 1038.7,133.8 969.3,135.1 900.0,124.6 830.7,127.4 761.3,446.9 692.0,447.4 622.7,449.2 553.3,448.3 484.0,450.6 414.7,453.3 345.3,453.9 276.0,454.0 206.7,457.7 137.3,457.4 68.0,457.8" fill="#dadaeb" fill-opacity="0.9" stroke="#fff" stroke-width="0.4"><title>inlining — performForceInlining</title></polygon>
<polygon points="68.0,450.9 137.3,450.6 206.7,451.0 276.0,447.3 345.3,447.1 414.7,446.3 484.0,443.6 553.3,441.1 622.7,442.0 692.0,439.9 761.3,439.5 830.7,114.0 900.0,111.0 969.3,121.3 1038.7,119.7 1108.0,183.4 1108.0,193.4 1038.7,132.0 969.3,133.4 900.0,122.8 830.7,125.7 761.3,445.2 692.0,445.8 622.7,447.6 553.3,446.7 484.0,449.0 414.7,451.7 345.3,452.3 276.0,452.4 206.7,456.1 137.3,455.8 68.0,456.1" fill="#4a1486" fill-opacity="0.9" stroke="#fff" stroke-width="0.4"><title>inlining — linkAndOptimizeIR (self)</title></polygon>
<polygon points="68.0,449.3 137.3,449.0 206.7,449.4 276.0,445.7 345.3,445.5 414.7,444.7 484.0,442.0 553.3,439.5 622.7,440.4 692.0,438.2 761.3,437.8 830.7,112.1 900.0,109.0 969.3,119.5 1038.7,117.9 1108.0,181.8 1108.0,183.4 1038.7,119.7 969.3,121.3 900.0,111.0 830.7,114.0 761.3,439.5 692.0,439.9 622.7,442.0 553.3,441.1 484.0,443.6 414.7,446.3 345.3,447.1 276.0,447.3 206.7,451.0 137.3,450.6 68.0,450.9" fill="#e6550d" fill-opacity="0.9" stroke="#fff" stroke-width="0.4"><title>inlining — generateOutput (self)</title></polygon>
<polygon points="68.0,449.1 137.3,448.9 206.7,448.9 276.0,445.6 345.3,445.4 414.7,444.7 484.0,441.9 553.3,439.3 622.7,440.3 692.0,437.8 761.3,437.7 830.7,111.3 900.0,108.6 969.3,117.9 1038.7,117.8 1108.0,181.8 1108.0,181.8 1038.7,117.9 969.3,119.5 900.0,109.0 830.7,112.1 761.3,437.8 692.0,438.2 622.7,440.4 553.3,439.5 484.0,442.0 414.7,444.7 345.3,445.5 276.0,445.7 206.7,449.4 137.3,449.0 68.0,449.3" fill="#969696" fill-opacity="0.9" stroke="#fff" stroke-width="0.4"><title>inlining — compileInner (self)</title></polygon>
<text x="12" y="578" fill="#666" font-weight="600">phase buckets</text>
<rect x="12" y="586" width="12" height="12" fill="#c7e9c0"/>
<text x="28" y="596" fill="#222">parseTranslationUnit</text>
<rect x="289" y="586" width="12" height="12" fill="#41ab5d"/>
<text x="305" y="596" fill="#222">SemanticChecking</text>
<rect x="566" y="586" width="12" height="12" fill="#006d2c"/>
<text x="582" y="596" fill="#222">generateIR</text>
<rect x="843" y="586" width="12" height="12" fill="#74c476"/>
<text x="859" y="596" fill="#222">frontEndExecute (self)</text>
<rect x="12" y="604" width="12" height="12" fill="#6baed6"/>
<text x="28" y="614" fill="#222">specializeModule</text>
<rect x="289" y="604" width="12" height="12" fill="#2171b5"/>
<text x="305" y="614" fill="#222">simplifyIR</text>
<rect x="566" y="604" width="12" height="12" fill="#08306b"/>
<text x="582" y="614" fill="#222">linkIR</text>
<rect x="843" y="604" width="12" height="12" fill="#9e9ac8"/>
<text x="859" y="614" fill="#222">unrollLoopsInModule</text>
<rect x="12" y="622" width="12" height="12" fill="#807dba"/>
<text x="28" y="632" fill="#222">legalizeResourceTypes</text>
<rect x="289" y="622" width="12" height="12" fill="#6a51a3"/>
<text x="305" y="632" fill="#222">legalizeExistentialTypeLayout</text>
<rect x="566" y="622" width="12" height="12" fill="#bcbddc"/>
<text x="582" y="632" fill="#222">performMandatoryEarlyInlining</text>
<rect x="843" y="622" width="12" height="12" fill="#dadaeb"/>
<text x="859" y="632" fill="#222">performForceInlining</text>
<rect x="12" y="640" width="12" height="12" fill="#4a1486"/>
<text x="28" y="650" fill="#222">linkAndOptimizeIR (self)</text>
<rect x="289" y="640" width="12" height="12" fill="#fd8d3c"/>
<text x="305" y="650" fill="#222">emitEntryPointsSourceFromIR</text>
<rect x="566" y="640" width="12" height="12" fill="#e6550d"/>
<text x="582" y="650" fill="#222">generateOutput (self)</text>
<rect x="843" y="640" width="12" height="12" fill="#969696"/>
<text x="859" y="650" fill="#222">compileInner (self)</text>
</svg>