<svg xmlns="http://www.w3.org/2000/svg" xmlns:xlink="http://www.w3.org/1999/xlink" width="1132" height="680" viewBox="0 0 1132 680" preserveAspectRatio="xMidYMid meet" font-family="sans-serif" font-size="13">
<rect width="1132" height="680" fill="white"/>
<text x="12" y="30" font-size="20" font-weight="bold">inlining — Daily tip-of-tree (last 30 days) (median ms)</text>
<text x="68" y="60" font-size="15" font-weight="600" fill="#1a1a1a">inlining<tspan fill="#888" font-weight="400" text-decoration="none">  0.21×</tspan></text>
<line x1="68.0" y1="516.0" x2="1108.0" y2="516.0" stroke="#eee"/>
<text x="64.0" y="519.0" text-anchor="end" fill="#999">0.0</text>
<line x1="68.0" y1="296.0" x2="1108.0" y2="296.0" stroke="#eee"/>
<text x="64.0" y="299.0" text-anchor="end" fill="#999">276</text>
<line x1="68.0" y1="76.0" x2="1108.0" y2="76.0" stroke="#eee"/>
<text x="64.0" y="79.0" text-anchor="end" fill="#999">552</text>
<line x1="68.0" y1="76.0" x2="68.0" y2="516.0" stroke="#333"/>
<line x1="68.0" y1="516.0" x2="1108.0" y2="516.0" stroke="#333"/>
<line x1="68.0" y1="516.0" x2="68.0" y2="519.0" stroke="#999"/>
<text x="68.0" y="531.0" text-anchor="end" fill="#e8731a" transform="rotate(-50 68.0 531.0)">06-25</text>
<line x1="133.0" y1="516.0" x2="133.0" y2="519.0" stroke="#999"/>
<text x="133.0" y="531.0" text-anchor="end" fill="#e8731a" transform="rotate(-50 133.0 531.0)">06-26</text>
<line x1="198.0" y1="516.0" x2="198.0" y2="519.0" stroke="#999"/>
<text x="198.0" y="531.0" text-anchor="end" fill="#e8731a" transform="rotate(-50 198.0 531.0)">06-28</text>
<line x1="263.0" y1="516.0" x2="263.0" y2="519.0" stroke="#999"/>
<text x="263.0" y="531.0" text-anchor="end" fill="#e8731a" transform="rotate(-50 263.0 531.0)">07-01</text>
<line x1="328.0" y1="516.0" x2="328.0" y2="519.0" stroke="#999"/>
<text x="328.0" y="531.0" text-anchor="end" fill="#e8731a" transform="rotate(-50 328.0 531.0)">07-02</text>
<line x1="393.0" y1="516.0" x2="393.0" y2="519.0" stroke="#999"/>
<text x="393.0" y="531.0" text-anchor="end" fill="#e8731a" transform="rotate(-50 393.0 531.0)">07-03</text>
<line x1="458.0" y1="516.0" x2="458.0" y2="519.0" stroke="#999"/>
<text x="458.0" y="531.0" text-anchor="end" fill="#e8731a" transform="rotate(-50 458.0 531.0)">07-06</text>
<line x1="523.0" y1="516.0" x2="523.0" y2="519.0" stroke="#999"/>
<text x="523.0" y="531.0" text-anchor="end" fill="#e8731a" transform="rotate(-50 523.0 531.0)">07-07</text>
<line x1="588.0" y1="516.0" x2="588.0" y2="519.0" stroke="#999"/>
<text x="588.0" y="531.0" text-anchor="end" fill="#e8731a" transform="rotate(-50 588.0 531.0)">07-08</text>
<line x1="653.0" y1="516.0" x2="653.0" y2="519.0" stroke="#999"/>
<text x="653.0" y="531.0" text-anchor="end" fill="#e8731a" transform="rotate(-50 653.0 531.0)">07-09</text>
<line x1="718.0" y1="516.0" x2="718.0" y2="519.0" stroke="#999"/>
<text x="718.0" y="531.0" text-anchor="end" fill="#e8731a" transform="rotate(-50 718.0 531.0)">07-10</text>
<line x1="783.0" y1="516.0" x2="783.0" y2="519.0" stroke="#999"/>
<text x="783.0" y="531.0" text-anchor="end" fill="#e8731a" transform="rotate(-50 783.0 531.0)">07-11</text>
<line x1="848.0" y1="516.0" x2="848.0" y2="519.0" stroke="#999"/>
<text x="848.0" y="531.0" text-anchor="end" fill="#e8731a" transform="rotate(-50 848.0 531.0)">07-14</text>
<line x1="913.0" y1="516.0" x2="913.0" y2="519.0" stroke="#999"/>
<text x="913.0" y="531.0" text-anchor="end" fill="#e8731a" transform="rotate(-50 913.0 531.0)">07-15</text>
<line x1="978.0" y1="516.0" x2="978.0" y2="519.0" stroke="#999"/>
<text x="978.0" y="531.0" text-anchor="end" fill="#e8731a" transform="rotate(-50 978.0 531.0)">07-15</text>
<line x1="1043.0" y1="516.0" x2="1043.0" y2="519.0" stroke="#999"/>
<text x="1043.0" y="531.0" text-anchor="end" fill="#e8731a" transform="rotate(-50 1043.0 531.0)">07-16</text>
<line x1="1108.0" y1="516.0" x2="1108.0" y2="519.0" stroke="#999"/>
<text x="1108.0" y="531.0" text-anchor="end" fill="#e8731a" transform="rotate(-50 1108.0 531.0)">07-17</text>
<polygon points="68.0,514.3 133.0,514.3 198.0,514.4 263.0,514.3 328.0,514.3 393.0,514.3 458.0,514.3 523.0,514.5 588.0,514.5 653.0,514.4 718.0,514.5 783.0,514.5 848.0,514.5 913.0,514.6 978.0,514.5 1043.0,514.6 1108.0,514.6 1108.0,516.0 1043.0,516.0 978.0,516.0 913.0,516.0 848.0,516.0 783.0,516.0 718.0,516.0 653.0,516.0 588.0,516.0 523.0,516.0 458.0,516.0 393.0,516.0 328.0,516.0 263.0,516.0 198.0,516.0 133.0,516.0 68.0,516.0" fill="#c7e9c0" fill-opacity="0.9" stroke="#fff" stroke-width="0.4"><title>inlining — parseTranslationUnit</title></polygon>
<polygon points="68.0,483.8 133.0,484.0 198.0,484.3 263.0,482.0 328.0,481.1 393.0,480.8 458.0,480.8 523.0,480.9 588.0,481.3 653.0,481.1 718.0,481.9 783.0,480.1 848.0,481.0 913.0,485.7 978.0,485.2 1043.0,483.2 1108.0,483.1 1108.0,514.6 1043.0,514.6 978.0,514.5 913.0,514.6 848.0,514.5 783.0,514.5 718.0,514.5 653.0,514.4 588.0,514.5 523.0,514.5 458.0,514.3 393.0,514.3 328.0,514.3 263.0,514.3 198.0,514.4 133.0,514.3 68.0,514.3" fill="#41ab5d" fill-opacity="0.9" stroke="#fff" stroke-width="0.4"><title>inlining — SemanticChecking</title></polygon>
<polygon points="68.0,471.5 133.0,471.6 198.0,472.0 263.0,469.5 328.0,468.8 393.0,468.5 458.0,468.4 523.0,468.7 588.0,469.0 653.0,468.5 718.0,470.6 783.0,468.5 848.0,469.9 913.0,475.0 978.0,474.6 1043.0,472.4 1108.0,472.4 1108.0,483.1 1043.0,483.2 978.0,485.2 913.0,485.7 848.0,481.0 783.0,480.1 718.0,481.9 653.0,481.1 588.0,481.3 523.0,480.9 458.0,480.8 393.0,480.8 328.0,481.1 263.0,482.0 198.0,484.3 133.0,484.0 68.0,483.8" fill="#006d2c" fill-opacity="0.9" stroke="#fff" stroke-width="0.4"><title>inlining — generateIR</title></polygon>
<polygon points="68.0,471.2 133.0,471.4 198.0,471.7 263.0,469.2 328.0,468.7 393.0,468.3 458.0,468.0 523.0,468.3 588.0,468.8 653.0,468.4 718.0,470.2 783.0,467.9 848.0,469.6 913.0,474.8 978.0,474.2 1043.0,472.1 1108.0,472.1 1108.0,472.4 1043.0,472.4 978.0,474.6 913.0,475.0 848.0,469.9 783.0,468.5 718.0,470.6 653.0,468.5 588.0,469.0 523.0,468.7 458.0,468.4 393.0,468.5 328.0,468.8 263.0,469.5 198.0,472.0 133.0,471.6 68.0,471.5" fill="#74c476" fill-opacity="0.9" stroke="#fff" stroke-width="0.4"><title>inlining — frontEndExecute (self)</title></polygon>
<polygon points="68.0,454.3 133.0,454.5 198.0,454.8 263.0,452.5 328.0,452.0 393.0,451.6 458.0,451.5 523.0,450.3 588.0,450.4 653.0,450.5 718.0,454.2 783.0,451.7 848.0,453.2 913.0,460.0 978.0,459.6 1043.0,457.5 1108.0,457.3 1108.0,472.1 1043.0,472.1 978.0,474.2 913.0,474.8 848.0,469.6 783.0,467.9 718.0,470.2 653.0,468.4 588.0,468.8 523.0,468.3 458.0,468.0 393.0,468.3 328.0,468.7 263.0,469.2 198.0,471.7 133.0,471.4 68.0,471.2" fill="#6baed6" fill-opacity="0.9" stroke="#fff" stroke-width="0.4"><title>inlining — specializeModule</title></polygon>
<polygon points="68.0,133.4 133.0,139.5 198.0,133.1 263.0,128.6 328.0,140.9 393.0,140.9 458.0,145.0 523.0,142.8 588.0,139.0 653.0,142.0 718.0,439.3 783.0,436.6 848.0,438.3 913.0,446.4 978.0,445.8 1043.0,444.1 1108.0,443.6 1108.0,457.3 1043.0,457.5 978.0,459.6 913.0,460.0 848.0,453.2 783.0,451.7 718.0,454.2 653.0,450.5 588.0,450.4 523.0,450.3 458.0,451.5 393.0,451.6 328.0,452.0 263.0,452.5 198.0,454.8 133.0,454.5 68.0,454.3" fill="#2171b5" fill-opacity="0.9" stroke="#fff" stroke-width="0.4"><title>inlining — simplifyIR</title></polygon>
<polygon points="68.0,131.6 133.0,137.8 198.0,131.3 263.0,126.7 328.0,139.2 393.0,139.2 458.0,143.2 523.0,141.2 588.0,137.5 653.0,140.5 718.0,437.7 783.0,435.0 848.0,436.7 913.0,444.9 978.0,444.4 1043.0,442.6 1108.0,442.2 1108.0,443.6 1043.0,444.1 978.0,445.8 913.0,446.4 848.0,438.3 783.0,436.6 718.0,439.3 653.0,142.0 588.0,139.0 523.0,142.8 458.0,145.0 393.0,140.9 328.0,140.9 263.0,128.6 198.0,133.1 133.0,139.5 68.0,133.4" fill="#08306b" fill-opacity="0.9" stroke="#fff" stroke-width="0.4"><title>inlining — linkIR</title></polygon>
<polygon points="68.0,131.5 133.0,137.7 198.0,131.2 263.0,126.6 328.0,139.1 393.0,139.1 458.0,143.2 523.0,141.1 588.0,137.3 653.0,140.3 718.0,437.5 783.0,434.9 848.0,436.5 913.0,444.8 978.0,444.3 1043.0,442.5 1108.0,442.1 1108.0,442.2 1043.0,442.6 978.0,444.4 913.0,444.9 848.0,436.7 783.0,435.0 718.0,437.7 653.0,140.5 588.0,137.5 523.0,141.2 458.0,143.2 393.0,139.2 328.0,139.2 263.0,126.7 198.0,131.3 133.0,137.8 68.0,131.6" fill="#9e9ac8" fill-opacity="0.9" stroke="#fff" stroke-width="0.4"><title>inlining — unrollLoopsInModule</title></polygon>
<polygon points="68.0,130.1 133.0,136.3 198.0,129.8 263.0,125.2 328.0,137.7 393.0,137.7 458.0,141.7 523.0,139.7 588.0,135.9 653.0,139.0 718.0,437.2 783.0,434.5 848.0,436.2 913.0,444.5 978.0,444.0 1043.0,442.2 1108.0,441.8 1108.0,442.1 1043.0,442.5 978.0,444.3 913.0,444.8 848.0,436.5 783.0,434.9 718.0,437.5 653.0,140.3 588.0,137.3 523.0,141.1 458.0,143.2 393.0,139.1 328.0,139.1 263.0,126.6 198.0,131.2 133.0,137.7 68.0,131.5" fill="#807dba" fill-opacity="0.9" stroke="#fff" stroke-width="0.4"><title>inlining — legalizeResourceTypes</title></polygon>
<polygon points="68.0,128.6 133.0,134.8 198.0,128.3 263.0,123.8 328.0,136.3 393.0,136.1 458.0,140.2 523.0,138.3 588.0,134.5 653.0,137.6 718.0,436.9 783.0,434.2 848.0,435.9 913.0,444.1 978.0,443.6 1043.0,441.9 1108.0,441.4 1108.0,441.8 1043.0,442.2 978.0,444.0 913.0,444.5 848.0,436.2 783.0,434.5 718.0,437.2 653.0,139.0 588.0,135.9 523.0,139.7 458.0,141.7 393.0,137.7 328.0,137.7 263.0,125.2 198.0,129.8 133.0,136.3 68.0,130.1" fill="#6a51a3" fill-opacity="0.9" stroke="#fff" stroke-width="0.4"><title>inlining — legalizeExistentialTypeLayout</title></polygon>
<polygon points="68.0,128.0 133.0,134.2 198.0,127.8 263.0,123.3 328.0,135.8 393.0,135.6 458.0,139.7 523.0,137.7 588.0,133.9 653.0,136.9 718.0,436.2 783.0,433.5 848.0,435.3 913.0,443.5 978.0,443.0 1043.0,441.2 1108.0,440.7 1108.0,441.4 1043.0,441.9 978.0,443.6 913.0,444.1 848.0,435.9 783.0,434.2 718.0,436.9 653.0,137.6 588.0,134.5 523.0,138.3 458.0,140.2 393.0,136.1 328.0,136.3 263.0,123.8 198.0,128.3 133.0,134.8 68.0,128.6" fill="#bcbddc" fill-opacity="0.9" stroke="#fff" stroke-width="0.4"><title>inlining — performMandatoryEarlyInlining</title></polygon>
<polygon points="68.0,126.1 133.0,132.2 198.0,125.8 263.0,121.3 328.0,133.8 393.0,133.6 458.0,137.8 523.0,135.5 588.0,131.9 653.0,134.9 718.0,434.3 783.0,431.6 848.0,433.4 913.0,441.8 978.0,441.2 1043.0,439.5 1108.0,439.0 1108.0,440.7 1043.0,441.2 978.0,443.0 913.0,443.5 848.0,435.3 783.0,433.5 718.0,436.2 653.0,136.9 588.0,133.9 523.0,137.7 458.0,139.7 393.0,135.6 328.0,135.8 263.0,123.3 198.0,127.8 133.0,134.2 68.0,128.0" fill="#dadaeb" fill-opacity="0.9" stroke="#fff" stroke-width="0.4"><title>inlining — performForceInlining</title></polygon>
<polygon points="68.0,116.4 133.0,121.7 198.0,115.5 263.0,110.9 328.0,123.1 393.0,122.9 458.0,127.1 523.0,125.3 588.0,121.6 653.0,125.3 718.0,428.3 783.0,425.3 848.0,427.3 913.0,436.7 978.0,436.2 1043.0,434.7 1108.0,433.9 1108.0,439.0 1043.0,439.5 978.0,441.2 913.0,441.8 848.0,433.4 783.0,431.6 718.0,434.3 653.0,134.9 588.0,131.9 523.0,135.5 458.0,137.8 393.0,133.6 328.0,133.8 263.0,121.3 198.0,125.8 133.0,132.2 68.0,126.1" fill="#4a1486" fill-opacity="0.9" stroke="#fff" stroke-width="0.4"><title>inlining — linkAndOptimizeIR (self)</title></polygon>
<polygon points="68.0,114.6 133.0,119.5 198.0,113.3 263.0,108.6 328.0,120.9 393.0,120.9 458.0,124.9 523.0,123.0 588.0,119.4 653.0,123.1 718.0,426.3 783.0,423.3 848.0,425.0 913.0,435.0 978.0,434.5 1043.0,432.9 1108.0,432.0 1108.0,433.9 1043.0,434.7 978.0,436.2 913.0,436.7 848.0,427.3 783.0,425.3 718.0,428.3 653.0,125.3 588.0,121.6 523.0,125.3 458.0,127.1 393.0,122.9 328.0,123.1 263.0,110.9 198.0,115.5 133.0,121.7 68.0,116.4" fill="#e6550d" fill-opacity="0.9" stroke="#fff" stroke-width="0.4"><title>inlining — generateOutput (self)</title></polygon>
<polygon points="68.0,114.6 133.0,119.0 198.0,112.1 263.0,108.6 328.0,120.9 393.0,120.9 458.0,124.7 523.0,121.1 588.0,119.4 653.0,122.9 718.0,426.0 783.0,423.2 848.0,424.8 913.0,434.7 978.0,434.4 1043.0,432.8 1108.0,431.9 1108.0,432.0 1043.0,432.9 978.0,434.5 913.0,435.0 848.0,425.0 783.0,423.3 718.0,426.3 653.0,123.1 588.0,119.4 523.0,123.0 458.0,124.9 393.0,120.9 328.0,120.9 263.0,108.6 198.0,113.3 133.0,119.5 68.0,114.6" fill="#969696" fill-opacity="0.9" stroke="#fff" stroke-width="0.4"><title>inlining — compileInner (self)</title></polygon>
<text x="12" y="578" fill="#666" font-weight="600">phase buckets</text>
<rect x="12" y="586" width="12" height="12" fill="#c7e9c0"/>
<text x="28" y="596" fill="#222">parseTranslationUnit</text>
<rect x="289" y="586" width="12" height="12" fill="#41ab5d"/>
<text x="305" y="596" fill="#222">SemanticChecking</text>
<rect x="566" y="586" width="12" height="12" fill="#006d2c"/>
<text x="582" y="596" fill="#222">generateIR</text>
<rect x="843" y="586" width="12" height="12" fill="#74c476"/>
<text x="859" y="596" fill="#222">frontEndExecute (self)</text>
<rect x="12" y="604" width="12" height="12" fill="#6baed6"/>
<text x="28" y="614" fill="#222">specializeModule</text>
<rect x="289" y="604" width="12" height="12" fill="#2171b5"/>
<text x="305" y="614" fill="#222">simplifyIR</text>
<rect x="566" y="604" width="12" height="12" fill="#08306b"/>
<text x="582" y="614" fill="#222">linkIR</text>
<rect x="843" y="604" width="12" height="12" fill="#9e9ac8"/>
<text x="859" y="614" fill="#222">unrollLoopsInModule</text>
<rect x="12" y="622" width="12" height="12" fill="#807dba"/>
<text x="28" y="632" fill="#222">legalizeResourceTypes</text>
<rect x="289" y="622" width="12" height="12" fill="#6a51a3"/>
<text x="305" y="632" fill="#222">legalizeExistentialTypeLayout</text>
<rect x="566" y="622" width="12" height="12" fill="#bcbddc"/>
<text x="582" y="632" fill="#222">performMandatoryEarlyInlining</text>
<rect x="843" y="622" width="12" height="12" fill="#dadaeb"/>
<text x="859" y="632" fill="#222">performForceInlining</text>
<rect x="12" y="640" width="12" height="12" fill="#4a1486"/>
<text x="28" y="650" fill="#222">linkAndOptimizeIR (self)</text>
<rect x="289" y="640" width="12" height="12" fill="#fd8d3c"/>
<text x="305" y="650" fill="#222">emitEntryPointsSourceFromIR</text>
<rect x="566" y="640" width="12" height="12" fill="#e6550d"/>
<text x="582" y="650" fill="#222">generateOutput (self)</text>
<rect x="843" y="640" width="12" height="12" fill="#969696"/>
<text x="859" y="650" fill="#222">compileInner (self)</text>
</svg>