<svg xmlns="http://www.w3.org/2000/svg" xmlns:xlink="http://www.w3.org/1999/xlink" width="1132" height="680" viewBox="0 0 1132 680" preserveAspectRatio="xMidYMid meet" font-family="sans-serif" font-size="13">
<rect width="1132" height="680" fill="white"/>
<text x="12" y="30" font-size="20" font-weight="bold">inlining — Daily tip-of-tree (last 30 days) (median ms)</text>
<text x="68" y="60" font-size="15" font-weight="600" fill="#1a1a1a">inlining<tspan fill="#888" font-weight="400" text-decoration="none">  0.17×</tspan></text>
<line x1="68.0" y1="516.0" x2="1108.0" y2="516.0" stroke="#eee"/>
<text x="64.0" y="519.0" text-anchor="end" fill="#999">0.0</text>
<line x1="68.0" y1="296.0" x2="1108.0" y2="296.0" stroke="#eee"/>
<text x="64.0" y="299.0" text-anchor="end" fill="#999">276</text>
<line x1="68.0" y1="76.0" x2="1108.0" y2="76.0" stroke="#eee"/>
<text x="64.0" y="79.0" text-anchor="end" fill="#999">552</text>
<line x1="68.0" y1="76.0" x2="68.0" y2="516.0" stroke="#333"/>
<line x1="68.0" y1="516.0" x2="1108.0" y2="516.0" stroke="#333"/>
<line x1="68.0" y1="516.0" x2="68.0" y2="519.0" stroke="#999"/>
<text x="68.0" y="531.0" text-anchor="end" fill="#e8731a" transform="rotate(-50 68.0 531.0)">06-25</text>
<line x1="129.2" y1="516.0" x2="129.2" y2="519.0" stroke="#999"/>
<text x="129.2" y="531.0" text-anchor="end" fill="#e8731a" transform="rotate(-50 129.2 531.0)">06-26</text>
<line x1="190.4" y1="516.0" x2="190.4" y2="519.0" stroke="#999"/>
<text x="190.4" y="531.0" text-anchor="end" fill="#e8731a" transform="rotate(-50 190.4 531.0)">06-28</text>
<line x1="251.5" y1="516.0" x2="251.5" y2="519.0" stroke="#999"/>
<text x="251.5" y="531.0" text-anchor="end" fill="#e8731a" transform="rotate(-50 251.5 531.0)">07-01</text>
<line x1="312.7" y1="516.0" x2="312.7" y2="519.0" stroke="#999"/>
<text x="312.7" y="531.0" text-anchor="end" fill="#e8731a" transform="rotate(-50 312.7 531.0)">07-02</text>
<line x1="373.9" y1="516.0" x2="373.9" y2="519.0" stroke="#999"/>
<text x="373.9" y="531.0" text-anchor="end" fill="#e8731a" transform="rotate(-50 373.9 531.0)">07-03</text>
<line x1="435.1" y1="516.0" x2="435.1" y2="519.0" stroke="#999"/>
<text x="435.1" y="531.0" text-anchor="end" fill="#e8731a" transform="rotate(-50 435.1 531.0)">07-06</text>
<line x1="496.2" y1="516.0" x2="496.2" y2="519.0" stroke="#999"/>
<text x="496.2" y="531.0" text-anchor="end" fill="#e8731a" transform="rotate(-50 496.2 531.0)">07-07</text>
<line x1="557.4" y1="516.0" x2="557.4" y2="519.0" stroke="#999"/>
<text x="557.4" y="531.0" text-anchor="end" fill="#e8731a" transform="rotate(-50 557.4 531.0)">07-08</text>
<line x1="618.6" y1="516.0" x2="618.6" y2="519.0" stroke="#999"/>
<text x="618.6" y="531.0" text-anchor="end" fill="#e8731a" transform="rotate(-50 618.6 531.0)">07-09</text>
<line x1="679.8" y1="516.0" x2="679.8" y2="519.0" stroke="#999"/>
<text x="679.8" y="531.0" text-anchor="end" fill="#e8731a" transform="rotate(-50 679.8 531.0)">07-10</text>
<line x1="740.9" y1="516.0" x2="740.9" y2="519.0" stroke="#999"/>
<text x="740.9" y="531.0" text-anchor="end" fill="#e8731a" transform="rotate(-50 740.9 531.0)">07-11</text>
<line x1="802.1" y1="516.0" x2="802.1" y2="519.0" stroke="#999"/>
<text x="802.1" y="531.0" text-anchor="end" fill="#e8731a" transform="rotate(-50 802.1 531.0)">07-14</text>
<line x1="863.3" y1="516.0" x2="863.3" y2="519.0" stroke="#999"/>
<text x="863.3" y="531.0" text-anchor="end" fill="#e8731a" transform="rotate(-50 863.3 531.0)">07-15</text>
<line x1="924.5" y1="516.0" x2="924.5" y2="519.0" stroke="#999"/>
<text x="924.5" y="531.0" text-anchor="end" fill="#e8731a" transform="rotate(-50 924.5 531.0)">07-15</text>
<line x1="985.6" y1="516.0" x2="985.6" y2="519.0" stroke="#999"/>
<text x="985.6" y="531.0" text-anchor="end" fill="#e8731a" transform="rotate(-50 985.6 531.0)">07-16</text>
<line x1="1046.8" y1="516.0" x2="1046.8" y2="519.0" stroke="#999"/>
<text x="1046.8" y="531.0" text-anchor="end" fill="#e8731a" transform="rotate(-50 1046.8 531.0)">07-17</text>
<line x1="1108.0" y1="516.0" x2="1108.0" y2="519.0" stroke="#999"/>
<text x="1108.0" y="531.0" text-anchor="end" fill="#e8731a" transform="rotate(-50 1108.0 531.0)">07-18</text>
<polygon points="68.0,514.3 129.2,514.3 190.4,514.4 251.5,514.3 312.7,514.3 373.9,514.3 435.1,514.3 496.2,514.5 557.4,514.5 618.6,514.4 679.8,514.5 740.9,514.5 802.1,514.5 863.3,514.6 924.5,514.5 985.6,514.6 1046.8,514.6 1108.0,514.7 1108.0,516.0 1046.8,516.0 985.6,516.0 924.5,516.0 863.3,516.0 802.1,516.0 740.9,516.0 679.8,516.0 618.6,516.0 557.4,516.0 496.2,516.0 435.1,516.0 373.9,516.0 312.7,516.0 251.5,516.0 190.4,516.0 129.2,516.0 68.0,516.0" fill="#c7e9c0" fill-opacity="0.9" stroke="#fff" stroke-width="0.4"><title>inlining — parseTranslationUnit</title></polygon>
<polygon points="68.0,483.8 129.2,484.0 190.4,484.3 251.5,482.0 312.7,481.1 373.9,480.8 435.1,480.8 496.2,480.9 557.4,481.3 618.6,481.1 679.8,481.9 740.9,480.1 802.1,481.0 863.3,485.7 924.5,485.2 985.6,483.2 1046.8,483.1 1108.0,491.5 1108.0,514.7 1046.8,514.6 985.6,514.6 924.5,514.5 863.3,514.6 802.1,514.5 740.9,514.5 679.8,514.5 618.6,514.4 557.4,514.5 496.2,514.5 435.1,514.3 373.9,514.3 312.7,514.3 251.5,514.3 190.4,514.4 129.2,514.3 68.0,514.3" fill="#41ab5d" fill-opacity="0.9" stroke="#fff" stroke-width="0.4"><title>inlining — SemanticChecking</title></polygon>
<polygon points="68.0,471.5 129.2,471.6 190.4,472.0 251.5,469.5 312.7,468.8 373.9,468.5 435.1,468.4 496.2,468.7 557.4,469.0 618.6,468.5 679.8,470.6 740.9,468.5 802.1,469.9 863.3,475.0 924.5,474.6 985.6,472.4 1046.8,472.4 1108.0,481.8 1108.0,491.5 1046.8,483.1 985.6,483.2 924.5,485.2 863.3,485.7 802.1,481.0 740.9,480.1 679.8,481.9 618.6,481.1 557.4,481.3 496.2,480.9 435.1,480.8 373.9,480.8 312.7,481.1 251.5,482.0 190.4,484.3 129.2,484.0 68.0,483.8" fill="#006d2c" fill-opacity="0.9" stroke="#fff" stroke-width="0.4"><title>inlining — generateIR</title></polygon>
<polygon points="68.0,471.2 129.2,471.4 190.4,471.7 251.5,469.2 312.7,468.7 373.9,468.3 435.1,468.0 496.2,468.3 557.4,468.8 618.6,468.4 679.8,470.2 740.9,467.9 802.1,469.6 863.3,474.8 924.5,474.2 985.6,472.1 1046.8,472.1 1108.0,481.6 1108.0,481.8 1046.8,472.4 985.6,472.4 924.5,474.6 863.3,475.0 802.1,469.9 740.9,468.5 679.8,470.6 618.6,468.5 557.4,469.0 496.2,468.7 435.1,468.4 373.9,468.5 312.7,468.8 251.5,469.5 190.4,472.0 129.2,471.6 68.0,471.5" fill="#74c476" fill-opacity="0.9" stroke="#fff" stroke-width="0.4"><title>inlining — frontEndExecute (self)</title></polygon>
<polygon points="68.0,454.3 129.2,454.5 190.4,454.8 251.5,452.5 312.7,452.0 373.9,451.6 435.1,451.5 496.2,450.3 557.4,450.4 618.6,450.5 679.8,454.2 740.9,451.7 802.1,453.2 863.3,460.0 924.5,459.6 985.6,457.5 1046.8,457.3 1108.0,468.6 1108.0,481.6 1046.8,472.1 985.6,472.1 924.5,474.2 863.3,474.8 802.1,469.6 740.9,467.9 679.8,470.2 618.6,468.4 557.4,468.8 496.2,468.3 435.1,468.0 373.9,468.3 312.7,468.7 251.5,469.2 190.4,471.7 129.2,471.4 68.0,471.2" fill="#6baed6" fill-opacity="0.9" stroke="#fff" stroke-width="0.4"><title>inlining — specializeModule</title></polygon>
<polygon points="68.0,133.4 129.2,139.5 190.4,133.1 251.5,128.6 312.7,140.9 373.9,140.9 435.1,145.0 496.2,142.8 557.4,139.0 618.6,142.0 679.8,439.3 740.9,436.6 802.1,438.3 863.3,446.4 924.5,445.8 985.6,444.1 1046.8,443.6 1108.0,456.1 1108.0,468.6 1046.8,457.3 985.6,457.5 924.5,459.6 863.3,460.0 802.1,453.2 740.9,451.7 679.8,454.2 618.6,450.5 557.4,450.4 496.2,450.3 435.1,451.5 373.9,451.6 312.7,452.0 251.5,452.5 190.4,454.8 129.2,454.5 68.0,454.3" fill="#2171b5" fill-opacity="0.9" stroke="#fff" stroke-width="0.4"><title>inlining — simplifyIR</title></polygon>
<polygon points="68.0,131.6 129.2,137.8 190.4,131.3 251.5,126.7 312.7,139.2 373.9,139.2 435.1,143.2 496.2,141.2 557.4,137.5 618.6,140.5 679.8,437.7 740.9,435.0 802.1,436.7 863.3,444.9 924.5,444.4 985.6,442.6 1046.8,442.2 1108.0,454.9 1108.0,456.1 1046.8,443.6 985.6,444.1 924.5,445.8 863.3,446.4 802.1,438.3 740.9,436.6 679.8,439.3 618.6,142.0 557.4,139.0 496.2,142.8 435.1,145.0 373.9,140.9 312.7,140.9 251.5,128.6 190.4,133.1 129.2,139.5 68.0,133.4" fill="#08306b" fill-opacity="0.9" stroke="#fff" stroke-width="0.4"><title>inlining — linkIR</title></polygon>
<polygon points="68.0,131.5 129.2,137.7 190.4,131.2 251.5,126.6 312.7,139.1 373.9,139.1 435.1,143.2 496.2,141.1 557.4,137.3 618.6,140.3 679.8,437.5 740.9,434.9 802.1,436.5 863.3,444.8 924.5,444.3 985.6,442.5 1046.8,442.1 1108.0,454.8 1108.0,454.9 1046.8,442.2 985.6,442.6 924.5,444.4 863.3,444.9 802.1,436.7 740.9,435.0 679.8,437.7 618.6,140.5 557.4,137.5 496.2,141.2 435.1,143.2 373.9,139.2 312.7,139.2 251.5,126.7 190.4,131.3 129.2,137.8 68.0,131.6" fill="#9e9ac8" fill-opacity="0.9" stroke="#fff" stroke-width="0.4"><title>inlining — unrollLoopsInModule</title></polygon>
<polygon points="68.0,130.1 129.2,136.3 190.4,129.8 251.5,125.2 312.7,137.7 373.9,137.7 435.1,141.7 496.2,139.7 557.4,135.9 618.6,139.0 679.8,437.2 740.9,434.5 802.1,436.2 863.3,444.5 924.5,444.0 985.6,442.2 1046.8,441.8 1108.0,454.5 1108.0,454.8 1046.8,442.1 985.6,442.5 924.5,444.3 863.3,444.8 802.1,436.5 740.9,434.9 679.8,437.5 618.6,140.3 557.4,137.3 496.2,141.1 435.1,143.2 373.9,139.1 312.7,139.1 251.5,126.6 190.4,131.2 129.2,137.7 68.0,131.5" fill="#807dba" fill-opacity="0.9" stroke="#fff" stroke-width="0.4"><title>inlining — legalizeResourceTypes</title></polygon>
<polygon points="68.0,128.6 129.2,134.8 190.4,128.3 251.5,123.8 312.7,136.3 373.9,136.1 435.1,140.2 496.2,138.3 557.4,134.5 618.6,137.6 679.8,436.9 740.9,434.2 802.1,435.9 863.3,444.1 924.5,443.6 985.6,441.9 1046.8,441.4 1108.0,454.2 1108.0,454.5 1046.8,441.8 985.6,442.2 924.5,444.0 863.3,444.5 802.1,436.2 740.9,434.5 679.8,437.2 618.6,139.0 557.4,135.9 496.2,139.7 435.1,141.7 373.9,137.7 312.7,137.7 251.5,125.2 190.4,129.8 129.2,136.3 68.0,130.1" fill="#6a51a3" fill-opacity="0.9" stroke="#fff" stroke-width="0.4"><title>inlining — legalizeExistentialTypeLayout</title></polygon>
<polygon points="68.0,128.0 129.2,134.2 190.4,127.8 251.5,123.3 312.7,135.8 373.9,135.6 435.1,139.7 496.2,137.7 557.4,133.9 618.6,136.9 679.8,436.2 740.9,433.5 802.1,435.3 863.3,443.5 924.5,443.0 985.6,441.2 1046.8,440.7 1108.0,453.6 1108.0,454.2 1046.8,441.4 985.6,441.9 924.5,443.6 863.3,444.1 802.1,435.9 740.9,434.2 679.8,436.9 618.6,137.6 557.4,134.5 496.2,138.3 435.1,140.2 373.9,136.1 312.7,136.3 251.5,123.8 190.4,128.3 129.2,134.8 68.0,128.6" fill="#bcbddc" fill-opacity="0.9" stroke="#fff" stroke-width="0.4"><title>inlining — performMandatoryEarlyInlining</title></polygon>
<polygon points="68.0,126.1 129.2,132.2 190.4,125.8 251.5,121.3 312.7,133.8 373.9,133.6 435.1,137.8 496.2,135.5 557.4,131.9 618.6,134.9 679.8,434.3 740.9,431.6 802.1,433.4 863.3,441.8 924.5,441.2 985.6,439.5 1046.8,439.0 1108.0,452.3 1108.0,453.6 1046.8,440.7 985.6,441.2 924.5,443.0 863.3,443.5 802.1,435.3 740.9,433.5 679.8,436.2 618.6,136.9 557.4,133.9 496.2,137.7 435.1,139.7 373.9,135.6 312.7,135.8 251.5,123.3 190.4,127.8 129.2,134.2 68.0,128.0" fill="#dadaeb" fill-opacity="0.9" stroke="#fff" stroke-width="0.4"><title>inlining — performForceInlining</title></polygon>
<polygon points="68.0,116.4 129.2,121.7 190.4,115.5 251.5,110.9 312.7,123.1 373.9,122.9 435.1,127.1 496.2,125.3 557.4,121.6 618.6,125.3 679.8,428.3 740.9,425.3 802.1,427.3 863.3,436.7 924.5,436.2 985.6,434.7 1046.8,433.9 1108.0,447.7 1108.0,452.3 1046.8,439.0 985.6,439.5 924.5,441.2 863.3,441.8 802.1,433.4 740.9,431.6 679.8,434.3 618.6,134.9 557.4,131.9 496.2,135.5 435.1,137.8 373.9,133.6 312.7,133.8 251.5,121.3 190.4,125.8 129.2,132.2 68.0,126.1" fill="#4a1486" fill-opacity="0.9" stroke="#fff" stroke-width="0.4"><title>inlining — linkAndOptimizeIR (self)</title></polygon>
<polygon points="68.0,114.6 129.2,119.5 190.4,113.3 251.5,108.6 312.7,120.9 373.9,120.9 435.1,124.9 496.2,123.0 557.4,119.4 618.6,123.1 679.8,426.3 740.9,423.3 802.1,425.0 863.3,435.0 924.5,434.5 985.6,432.9 1046.8,432.0 1108.0,445.9 1108.0,447.7 1046.8,433.9 985.6,434.7 924.5,436.2 863.3,436.7 802.1,427.3 740.9,425.3 679.8,428.3 618.6,125.3 557.4,121.6 496.2,125.3 435.1,127.1 373.9,122.9 312.7,123.1 251.5,110.9 190.4,115.5 129.2,121.7 68.0,116.4" fill="#e6550d" fill-opacity="0.9" stroke="#fff" stroke-width="0.4"><title>inlining — generateOutput (self)</title></polygon>
<polygon points="68.0,114.6 129.2,119.0 190.4,112.1 251.5,108.6 312.7,120.9 373.9,120.9 435.1,124.7 496.2,121.1 557.4,119.4 618.6,122.9 679.8,426.0 740.9,423.2 802.1,424.8 863.3,434.7 924.5,434.4 985.6,432.8 1046.8,431.9 1108.0,445.9 1108.0,445.9 1046.8,432.0 985.6,432.9 924.5,434.5 863.3,435.0 802.1,425.0 740.9,423.3 679.8,426.3 618.6,123.1 557.4,119.4 496.2,123.0 435.1,124.9 373.9,120.9 312.7,120.9 251.5,108.6 190.4,113.3 129.2,119.5 68.0,114.6" fill="#969696" fill-opacity="0.9" stroke="#fff" stroke-width="0.4"><title>inlining — compileInner (self)</title></polygon>
<text x="12" y="578" fill="#666" font-weight="600">phase buckets</text>
<rect x="12" y="586" width="12" height="12" fill="#c7e9c0"/>
<text x="28" y="596" fill="#222">parseTranslationUnit</text>
<rect x="289" y="586" width="12" height="12" fill="#41ab5d"/>
<text x="305" y="596" fill="#222">SemanticChecking</text>
<rect x="566" y="586" width="12" height="12" fill="#006d2c"/>
<text x="582" y="596" fill="#222">generateIR</text>
<rect x="843" y="586" width="12" height="12" fill="#74c476"/>
<text x="859" y="596" fill="#222">frontEndExecute (self)</text>
<rect x="12" y="604" width="12" height="12" fill="#6baed6"/>
<text x="28" y="614" fill="#222">specializeModule</text>
<rect x="289" y="604" width="12" height="12" fill="#2171b5"/>
<text x="305" y="614" fill="#222">simplifyIR</text>
<rect x="566" y="604" width="12" height="12" fill="#08306b"/>
<text x="582" y="614" fill="#222">linkIR</text>
<rect x="843" y="604" width="12" height="12" fill="#9e9ac8"/>
<text x="859" y="614" fill="#222">unrollLoopsInModule</text>
<rect x="12" y="622" width="12" height="12" fill="#807dba"/>
<text x="28" y="632" fill="#222">legalizeResourceTypes</text>
<rect x="289" y="622" width="12" height="12" fill="#6a51a3"/>
<text x="305" y="632" fill="#222">legalizeExistentialTypeLayout</text>
<rect x="566" y="622" width="12" height="12" fill="#bcbddc"/>
<text x="582" y="632" fill="#222">performMandatoryEarlyInlining</text>
<rect x="843" y="622" width="12" height="12" fill="#dadaeb"/>
<text x="859" y="632" fill="#222">performForceInlining</text>
<rect x="12" y="640" width="12" height="12" fill="#4a1486"/>
<text x="28" y="650" fill="#222">linkAndOptimizeIR (self)</text>
<rect x="289" y="640" width="12" height="12" fill="#fd8d3c"/>
<text x="305" y="650" fill="#222">emitEntryPointsSourceFromIR</text>
<rect x="566" y="640" width="12" height="12" fill="#e6550d"/>
<text x="582" y="650" fill="#222">generateOutput (self)</text>
<rect x="843" y="640" width="12" height="12" fill="#969696"/>
<text x="859" y="650" fill="#222">compileInner (self)</text>
</svg>