<svg xmlns="http://www.w3.org/2000/svg" xmlns:xlink="http://www.w3.org/1999/xlink" width="1132" height="680" viewBox="0 0 1132 680" preserveAspectRatio="xMidYMid meet" font-family="sans-serif" font-size="13">
<rect width="1132" height="680" fill="white"/>
<text x="12" y="30" font-size="20" font-weight="bold">inlining — full phase breakdown across releases (median ms)</text>
<text x="68" y="60" font-size="15" font-weight="600" fill="#1a1a1a">inlining<tspan fill="#888" font-weight="400" text-decoration="none">  5.88×</tspan></text>
<line x1="68.0" y1="516.0" x2="1108.0" y2="516.0" stroke="#eee"/>
<text x="64.0" y="519.0" text-anchor="end" fill="#999">0.0</text>
<line x1="68.0" y1="296.0" x2="1108.0" y2="296.0" stroke="#eee"/>
<text x="64.0" y="299.0" text-anchor="end" fill="#999">302</text>
<line x1="68.0" y1="76.0" x2="1108.0" y2="76.0" stroke="#eee"/>
<text x="64.0" y="79.0" text-anchor="end" fill="#999">604</text>
<line x1="68.0" y1="76.0" x2="68.0" y2="516.0" stroke="#333"/>
<line x1="68.0" y1="516.0" x2="1108.0" y2="516.0" stroke="#333"/>
<line x1="956.3" y1="76.0" x2="956.3" y2="516.0" stroke="#e8731a" stroke-width="1.2" stroke-dasharray="4 3"/>
<text x="959.3" y="87.0" fill="#e8731a" font-size="11">daily →</text>
<line x1="68.0" y1="516.0" x2="68.0" y2="519.0" stroke="#999"/>
<text x="68.0" y="531.0" text-anchor="end" fill="#666" transform="rotate(-50 68.0 531.0)">25.14</text>
<line x1="111.3" y1="516.0" x2="111.3" y2="519.0" stroke="#999"/>
<text x="111.3" y="531.0" text-anchor="end" fill="#666" transform="rotate(-50 111.3 531.0)">25.15</text>
<line x1="154.7" y1="516.0" x2="154.7" y2="519.0" stroke="#999"/>
<text x="154.7" y="531.0" text-anchor="end" fill="#666" transform="rotate(-50 154.7 531.0)">25.16</text>
<line x1="198.0" y1="516.0" x2="198.0" y2="519.0" stroke="#999"/>
<text x="198.0" y="531.0" text-anchor="end" fill="#666" transform="rotate(-50 198.0 531.0)">25.17</text>
<line x1="241.3" y1="516.0" x2="241.3" y2="519.0" stroke="#999"/>
<text x="241.3" y="531.0" text-anchor="end" fill="#666" transform="rotate(-50 241.3 531.0)">25.18</text>
<line x1="284.7" y1="516.0" x2="284.7" y2="519.0" stroke="#999"/>
<text x="284.7" y="531.0" text-anchor="end" fill="#666" transform="rotate(-50 284.7 531.0)">25.19</text>
<line x1="328.0" y1="516.0" x2="328.0" y2="519.0" stroke="#999"/>
<text x="328.0" y="531.0" text-anchor="end" fill="#666" transform="rotate(-50 328.0 531.0)">25.20</text>
<line x1="371.3" y1="516.0" x2="371.3" y2="519.0" stroke="#999"/>
<text x="371.3" y="531.0" text-anchor="end" fill="#666" transform="rotate(-50 371.3 531.0)">25.21</text>
<line x1="414.7" y1="516.0" x2="414.7" y2="519.0" stroke="#999"/>
<text x="414.7" y="531.0" text-anchor="end" fill="#666" transform="rotate(-50 414.7 531.0)">25.22</text>
<line x1="458.0" y1="516.0" x2="458.0" y2="519.0" stroke="#999"/>
<text x="458.0" y="531.0" text-anchor="end" fill="#666" transform="rotate(-50 458.0 531.0)">25.23</text>
<line x1="501.3" y1="516.0" x2="501.3" y2="519.0" stroke="#999"/>
<text x="501.3" y="531.0" text-anchor="end" fill="#666" transform="rotate(-50 501.3 531.0)">25.24</text>
<line x1="544.7" y1="516.0" x2="544.7" y2="519.0" stroke="#999"/>
<text x="544.7" y="531.0" text-anchor="end" fill="#666" transform="rotate(-50 544.7 531.0)">26.1</text>
<line x1="588.0" y1="516.0" x2="588.0" y2="519.0" stroke="#999"/>
<text x="588.0" y="531.0" text-anchor="end" fill="#666" transform="rotate(-50 588.0 531.0)">26.2</text>
<line x1="631.3" y1="516.0" x2="631.3" y2="519.0" stroke="#999"/>
<text x="631.3" y="531.0" text-anchor="end" fill="#666" transform="rotate(-50 631.3 531.0)">26.3</text>
<line x1="674.7" y1="516.0" x2="674.7" y2="519.0" stroke="#999"/>
<text x="674.7" y="531.0" text-anchor="end" fill="#666" transform="rotate(-50 674.7 531.0)">26.4</text>
<line x1="718.0" y1="516.0" x2="718.0" y2="519.0" stroke="#999"/>
<text x="718.0" y="531.0" text-anchor="end" fill="#666" transform="rotate(-50 718.0 531.0)">26.5</text>
<line x1="761.3" y1="516.0" x2="761.3" y2="519.0" stroke="#999"/>
<text x="761.3" y="531.0" text-anchor="end" fill="#666" transform="rotate(-50 761.3 531.0)">26.7</text>
<line x1="804.7" y1="516.0" x2="804.7" y2="519.0" stroke="#999"/>
<text x="804.7" y="531.0" text-anchor="end" fill="#666" transform="rotate(-50 804.7 531.0)">26.8</text>
<line x1="848.0" y1="516.0" x2="848.0" y2="519.0" stroke="#999"/>
<text x="848.0" y="531.0" text-anchor="end" fill="#666" transform="rotate(-50 848.0 531.0)">26.9</text>
<line x1="891.3" y1="516.0" x2="891.3" y2="519.0" stroke="#999"/>
<text x="891.3" y="531.0" text-anchor="end" fill="#666" transform="rotate(-50 891.3 531.0)">26.10</text>
<line x1="934.7" y1="516.0" x2="934.7" y2="519.0" stroke="#999"/>
<text x="934.7" y="531.0" text-anchor="end" fill="#666" transform="rotate(-50 934.7 531.0)">26.11</text>
<line x1="978.0" y1="516.0" x2="978.0" y2="519.0" stroke="#999"/>
<text x="978.0" y="531.0" text-anchor="end" fill="#e8731a" transform="rotate(-50 978.0 531.0)">06-25</text>
<line x1="1021.3" y1="516.0" x2="1021.3" y2="519.0" stroke="#999"/>
<text x="1021.3" y="531.0" text-anchor="end" fill="#e8731a" transform="rotate(-50 1021.3 531.0)">06-26</text>
<line x1="1064.7" y1="516.0" x2="1064.7" y2="519.0" stroke="#999"/>
<text x="1064.7" y="531.0" text-anchor="end" fill="#e8731a" transform="rotate(-50 1064.7 531.0)">06-28</text>
<line x1="1108.0" y1="516.0" x2="1108.0" y2="519.0" stroke="#999"/>
<text x="1108.0" y="531.0" text-anchor="end" fill="#e8731a" transform="rotate(-50 1108.0 531.0)">07-01</text>
<polygon points="68.0,514.7 111.3,514.9 154.7,514.8 198.0,514.8 241.3,514.8 284.7,514.8 328.0,514.8 371.3,514.8 414.7,514.8 458.0,514.8 501.3,514.8 544.7,514.8 588.0,514.8 631.3,514.8 674.7,514.7 718.0,514.7 761.3,514.6 804.7,514.7 848.0,514.7 891.3,514.5 934.7,514.7 978.0,514.6 1021.3,514.5 1064.7,514.6 1108.0,514.6 1108.0,516.0 1064.7,516.0 1021.3,516.0 978.0,516.0 934.7,516.0 891.3,516.0 848.0,516.0 804.7,516.0 761.3,516.0 718.0,516.0 674.7,516.0 631.3,516.0 588.0,516.0 544.7,516.0 501.3,516.0 458.0,516.0 414.7,516.0 371.3,516.0 328.0,516.0 284.7,516.0 241.3,516.0 198.0,516.0 154.7,516.0 111.3,516.0 68.0,516.0" fill="#c7e9c0" fill-opacity="0.9" stroke="#fff" stroke-width="0.4"><title>inlining — parseTranslationUnit</title></polygon>
<polygon points="68.0,490.5 111.3,483.3 154.7,483.3 198.0,482.2 241.3,482.5 284.7,482.6 328.0,482.3 371.3,482.7 414.7,478.7 458.0,478.6 501.3,478.8 544.7,476.6 588.0,474.1 631.3,475.2 674.7,474.2 718.0,474.1 761.3,470.0 804.7,469.8 848.0,469.8 891.3,468.8 934.7,488.2 978.0,486.3 1021.3,486.3 1064.7,486.3 1108.0,486.0 1108.0,514.6 1064.7,514.6 1021.3,514.5 978.0,514.6 934.7,514.7 891.3,514.5 848.0,514.7 804.7,514.7 761.3,514.6 718.0,514.7 674.7,514.7 631.3,514.8 588.0,514.8 544.7,514.8 501.3,514.8 458.0,514.8 414.7,514.8 371.3,514.8 328.0,514.8 284.7,514.8 241.3,514.8 198.0,514.8 154.7,514.8 111.3,514.9 68.0,514.7" fill="#41ab5d" fill-opacity="0.9" stroke="#fff" stroke-width="0.4"><title>inlining — SemanticChecking</title></polygon>
<polygon points="68.0,483.3 111.3,476.1 154.7,476.0 198.0,474.7 241.3,475.1 284.7,475.2 328.0,474.8 371.3,475.2 414.7,471.2 458.0,471.2 501.3,471.5 544.7,469.2 588.0,466.6 631.3,467.7 674.7,466.6 718.0,466.4 761.3,453.7 804.7,453.2 848.0,453.1 891.3,452.2 934.7,478.0 978.0,475.6 1021.3,475.5 1064.7,475.6 1108.0,475.1 1108.0,486.0 1064.7,486.3 1021.3,486.3 978.0,486.3 934.7,488.2 891.3,468.8 848.0,469.8 804.7,469.8 761.3,470.0 718.0,474.1 674.7,474.2 631.3,475.2 588.0,474.1 544.7,476.6 501.3,478.8 458.0,478.6 414.7,478.7 371.3,482.7 328.0,482.3 284.7,482.6 241.3,482.5 198.0,482.2 154.7,483.3 111.3,483.3 68.0,490.5" fill="#006d2c" fill-opacity="0.9" stroke="#fff" stroke-width="0.4"><title>inlining — generateIR</title></polygon>
<polygon points="68.0,483.2 111.3,475.9 154.7,475.8 198.0,474.5 241.3,474.9 284.7,474.8 328.0,474.6 371.3,474.9 414.7,471.1 458.0,471.1 501.3,471.2 544.7,468.8 588.0,466.3 631.3,467.4 674.7,466.5 718.0,466.1 761.3,453.3 804.7,453.0 848.0,452.6 891.3,452.0 934.7,477.7 978.0,475.3 1021.3,475.4 1064.7,475.4 1108.0,474.9 1108.0,475.1 1064.7,475.6 1021.3,475.5 978.0,475.6 934.7,478.0 891.3,452.2 848.0,453.1 804.7,453.2 761.3,453.7 718.0,466.4 674.7,466.6 631.3,467.7 588.0,466.6 544.7,469.2 501.3,471.5 458.0,471.2 414.7,471.2 371.3,475.2 328.0,474.8 284.7,475.2 241.3,475.1 198.0,474.7 154.7,476.0 111.3,476.1 68.0,483.3" fill="#74c476" fill-opacity="0.9" stroke="#fff" stroke-width="0.4"><title>inlining — frontEndExecute (self)</title></polygon>
<polygon points="68.0,479.9 111.3,472.7 154.7,472.5 198.0,471.2 241.3,471.6 284.7,471.5 328.0,471.2 371.3,471.5 414.7,467.7 458.0,467.6 501.3,466.4 544.7,464.0 588.0,461.5 631.3,462.6 674.7,461.5 718.0,460.9 761.3,433.3 804.7,432.8 848.0,432.7 891.3,431.7 934.7,463.5 978.0,460.3 1021.3,460.4 1064.7,460.4 1108.0,459.7 1108.0,474.9 1064.7,475.4 1021.3,475.4 978.0,475.3 934.7,477.7 891.3,452.0 848.0,452.6 804.7,453.0 761.3,453.3 718.0,466.1 674.7,466.5 631.3,467.4 588.0,466.3 544.7,468.8 501.3,471.2 458.0,471.1 414.7,471.1 371.3,474.9 328.0,474.6 284.7,474.8 241.3,474.9 198.0,474.5 154.7,475.8 111.3,475.9 68.0,483.2" fill="#6baed6" fill-opacity="0.9" stroke="#fff" stroke-width="0.4"><title>inlining — specializeModule</title></polygon>
<polygon points="68.0,471.6 111.3,464.3 154.7,464.2 198.0,462.3 241.3,462.6 284.7,462.4 328.0,462.0 371.3,462.5 414.7,458.6 458.0,458.6 501.3,457.8 544.7,455.3 588.0,452.9 631.3,453.9 674.7,452.6 718.0,451.9 761.3,139.3 804.7,136.6 848.0,147.0 891.3,146.0 934.7,199.5 978.0,188.0 1021.3,184.7 1064.7,182.2 1108.0,176.5 1108.0,459.7 1064.7,460.4 1021.3,460.4 978.0,460.3 934.7,463.5 891.3,431.7 848.0,432.7 804.7,432.8 761.3,433.3 718.0,460.9 674.7,461.5 631.3,462.6 588.0,461.5 544.7,464.0 501.3,466.4 458.0,467.6 414.7,467.7 371.3,471.5 328.0,471.2 284.7,471.5 241.3,471.6 198.0,471.2 154.7,472.5 111.3,472.7 68.0,479.9" fill="#2171b5" fill-opacity="0.9" stroke="#fff" stroke-width="0.4"><title>inlining — simplifyIR</title></polygon>
<polygon points="68.0,469.9 111.3,463.0 154.7,462.7 198.0,460.8 241.3,461.0 284.7,460.9 328.0,460.5 371.3,460.9 414.7,457.2 458.0,457.1 501.3,456.4 544.7,453.8 588.0,451.3 631.3,452.3 674.7,450.7 718.0,450.1 761.3,130.5 804.7,127.6 848.0,138.1 891.3,136.8 934.7,198.0 978.0,186.6 1021.3,183.1 1064.7,180.7 1108.0,175.0 1108.0,176.5 1064.7,182.2 1021.3,184.7 978.0,188.0 934.7,199.5 891.3,146.0 848.0,147.0 804.7,136.6 761.3,139.3 718.0,451.9 674.7,452.6 631.3,453.9 588.0,452.9 544.7,455.3 501.3,457.8 458.0,458.6 414.7,458.6 371.3,462.5 328.0,462.0 284.7,462.4 241.3,462.6 198.0,462.3 154.7,464.2 111.3,464.3 68.0,471.6" fill="#08306b" fill-opacity="0.9" stroke="#fff" stroke-width="0.4"><title>inlining — linkIR</title></polygon>
<polygon points="68.0,469.7 111.3,462.9 154.7,462.6 198.0,460.6 241.3,460.9 284.7,460.7 328.0,460.3 371.3,460.7 414.7,457.0 458.0,456.9 501.3,456.3 544.7,453.6 588.0,451.2 631.3,452.2 674.7,450.6 718.0,450.0 761.3,130.4 804.7,127.6 848.0,138.0 891.3,136.7 934.7,198.0 978.0,186.5 1021.3,183.0 1064.7,180.6 1108.0,174.9 1108.0,175.0 1064.7,180.7 1021.3,183.1 978.0,186.6 934.7,198.0 891.3,136.8 848.0,138.1 804.7,127.6 761.3,130.5 718.0,450.1 674.7,450.7 631.3,452.3 588.0,451.3 544.7,453.8 501.3,456.4 458.0,457.1 414.7,457.2 371.3,460.9 328.0,460.5 284.7,460.9 241.3,461.0 198.0,460.8 154.7,462.7 111.3,463.0 68.0,469.9" fill="#9e9ac8" fill-opacity="0.9" stroke="#fff" stroke-width="0.4"><title>inlining — unrollLoopsInModule</title></polygon>
<polygon points="68.0,466.6 111.3,459.7 154.7,459.3 198.0,457.4 241.3,459.7 284.7,459.6 328.0,459.2 371.3,459.5 414.7,455.8 458.0,455.7 501.3,455.0 544.7,452.4 588.0,450.0 631.3,451.0 674.7,449.3 718.0,448.7 761.3,129.2 804.7,126.3 848.0,136.8 891.3,135.5 934.7,196.8 978.0,185.2 1021.3,181.8 1064.7,179.3 1108.0,173.6 1108.0,174.9 1064.7,180.6 1021.3,183.0 978.0,186.5 934.7,198.0 891.3,136.7 848.0,138.0 804.7,127.6 761.3,130.4 718.0,450.0 674.7,450.6 631.3,452.2 588.0,451.2 544.7,453.6 501.3,456.3 458.0,456.9 414.7,457.0 371.3,460.7 328.0,460.3 284.7,460.7 241.3,460.9 198.0,460.6 154.7,462.6 111.3,462.9 68.0,469.7" fill="#807dba" fill-opacity="0.9" stroke="#fff" stroke-width="0.4"><title>inlining — legalizeResourceTypes</title></polygon>
<polygon points="68.0,463.4 111.3,456.5 154.7,456.0 198.0,454.2 241.3,458.5 284.7,458.3 328.0,458.0 371.3,458.3 414.7,454.6 458.0,454.5 501.3,453.8 544.7,451.2 588.0,448.9 631.3,449.8 674.7,448.0 718.0,447.5 761.3,127.9 804.7,125.1 848.0,135.6 891.3,134.2 934.7,195.6 978.0,184.0 1021.3,180.5 1064.7,178.0 1108.0,172.3 1108.0,173.6 1064.7,179.3 1021.3,181.8 978.0,185.2 934.7,196.8 891.3,135.5 848.0,136.8 804.7,126.3 761.3,129.2 718.0,448.7 674.7,449.3 631.3,451.0 588.0,450.0 544.7,452.4 501.3,455.0 458.0,455.7 414.7,455.8 371.3,459.5 328.0,459.2 284.7,459.6 241.3,459.7 198.0,457.4 154.7,459.3 111.3,459.7 68.0,466.6" fill="#6a51a3" fill-opacity="0.9" stroke="#fff" stroke-width="0.4"><title>inlining — legalizeExistentialTypeLayout</title></polygon>
<polygon points="68.0,462.8 111.3,455.9 154.7,455.5 198.0,453.6 241.3,457.9 284.7,457.8 328.0,457.4 371.3,457.7 414.7,454.0 458.0,453.9 501.3,453.3 544.7,450.6 588.0,448.3 631.3,449.2 674.7,447.4 718.0,446.9 761.3,127.4 804.7,124.6 848.0,135.1 891.3,133.8 934.7,195.1 978.0,183.5 1021.3,180.0 1064.7,177.5 1108.0,171.8 1108.0,172.3 1064.7,178.0 1021.3,180.5 978.0,184.0 934.7,195.6 891.3,134.2 848.0,135.6 804.7,125.1 761.3,127.9 718.0,447.5 674.7,448.0 631.3,449.8 588.0,448.9 544.7,451.2 501.3,453.8 458.0,454.5 414.7,454.6 371.3,458.3 328.0,458.0 284.7,458.3 241.3,458.5 198.0,454.2 154.7,456.0 111.3,456.5 68.0,463.4" fill="#bcbddc" fill-opacity="0.9" stroke="#fff" stroke-width="0.4"><title>inlining — performMandatoryEarlyInlining</title></polygon>
<polygon points="68.0,461.5 111.3,454.6 154.7,454.2 198.0,451.9 241.3,456.2 284.7,456.1 328.0,455.8 371.3,456.1 414.7,452.4 458.0,452.3 501.3,451.7 544.7,449.0 588.0,446.7 631.3,447.6 674.7,445.8 718.0,445.2 761.3,125.7 804.7,122.8 848.0,133.4 891.3,132.0 934.7,193.4 978.0,181.7 1021.3,178.3 1064.7,175.8 1108.0,170.0 1108.0,171.8 1064.7,177.5 1021.3,180.0 978.0,183.5 934.7,195.1 891.3,133.8 848.0,135.1 804.7,124.6 761.3,127.4 718.0,446.9 674.7,447.4 631.3,449.2 588.0,448.3 544.7,450.6 501.3,453.3 458.0,453.9 414.7,454.0 371.3,457.7 328.0,457.4 284.7,457.8 241.3,457.9 198.0,453.6 154.7,455.5 111.3,455.9 68.0,462.8" fill="#dadaeb" fill-opacity="0.9" stroke="#fff" stroke-width="0.4"><title>inlining — performForceInlining</title></polygon>
<polygon points="68.0,456.6 111.3,449.8 154.7,449.3 198.0,446.7 241.3,451.0 284.7,450.9 328.0,450.6 371.3,451.0 414.7,447.3 458.0,447.1 501.3,446.3 544.7,443.6 588.0,441.1 631.3,442.0 674.7,439.9 718.0,439.5 761.3,114.0 804.7,111.0 848.0,121.3 891.3,119.7 934.7,183.4 978.0,172.7 1021.3,168.9 1064.7,166.5 1108.0,158.5 1108.0,170.0 1064.7,175.8 1021.3,178.3 978.0,181.7 934.7,193.4 891.3,132.0 848.0,133.4 804.7,122.8 761.3,125.7 718.0,445.2 674.7,445.8 631.3,447.6 588.0,446.7 544.7,449.0 501.3,451.7 458.0,452.3 414.7,452.4 371.3,456.1 328.0,455.8 284.7,456.1 241.3,456.2 198.0,451.9 154.7,454.2 111.3,454.6 68.0,461.5" fill="#4a1486" fill-opacity="0.9" stroke="#fff" stroke-width="0.4"><title>inlining — linkAndOptimizeIR (self)</title></polygon>
<polygon points="68.0,454.9 111.3,448.0 154.7,447.5 198.0,444.8 241.3,449.4 284.7,449.3 328.0,449.0 371.3,449.4 414.7,445.7 458.0,445.5 501.3,444.7 544.7,442.0 588.0,439.5 631.3,440.4 674.7,438.2 718.0,437.8 761.3,112.1 804.7,109.0 848.0,119.5 891.3,117.9 934.7,181.8 978.0,170.8 1021.3,167.1 1064.7,164.7 1108.0,156.5 1108.0,158.5 1064.7,166.5 1021.3,168.9 978.0,172.7 934.7,183.4 891.3,119.7 848.0,121.3 804.7,111.0 761.3,114.0 718.0,439.5 674.7,439.9 631.3,442.0 588.0,441.1 544.7,443.6 501.3,446.3 458.0,447.1 414.7,447.3 371.3,451.0 328.0,450.6 284.7,450.9 241.3,451.0 198.0,446.7 154.7,449.3 111.3,449.8 68.0,456.6" fill="#e6550d" fill-opacity="0.9" stroke="#fff" stroke-width="0.4"><title>inlining — generateOutput (self)</title></polygon>
<polygon points="68.0,454.9 111.3,447.9 154.7,447.5 198.0,444.7 241.3,449.3 284.7,449.1 328.0,448.9 371.3,448.9 414.7,445.6 458.0,445.4 501.3,444.7 544.7,441.9 588.0,439.3 631.3,440.3 674.7,437.8 718.0,437.7 761.3,111.3 804.7,108.6 848.0,117.9 891.3,117.8 934.7,181.8 978.0,170.4 1021.3,166.9 1064.7,164.7 1108.0,156.2 1108.0,156.5 1064.7,164.7 1021.3,167.1 978.0,170.8 934.7,181.8 891.3,117.9 848.0,119.5 804.7,109.0 761.3,112.1 718.0,437.8 674.7,438.2 631.3,440.4 588.0,439.5 544.7,442.0 501.3,444.7 458.0,445.5 414.7,445.7 371.3,449.4 328.0,449.0 284.7,449.3 241.3,449.4 198.0,444.8 154.7,447.5 111.3,448.0 68.0,454.9" fill="#969696" fill-opacity="0.9" stroke="#fff" stroke-width="0.4"><title>inlining — compileInner (self)</title></polygon>
<text x="12" y="578" fill="#666" font-weight="600">phase buckets</text>
<rect x="12" y="586" width="12" height="12" fill="#c7e9c0"/>
<text x="28" y="596" fill="#222">parseTranslationUnit</text>
<rect x="289" y="586" width="12" height="12" fill="#41ab5d"/>
<text x="305" y="596" fill="#222">SemanticChecking</text>
<rect x="566" y="586" width="12" height="12" fill="#006d2c"/>
<text x="582" y="596" fill="#222">generateIR</text>
<rect x="843" y="586" width="12" height="12" fill="#74c476"/>
<text x="859" y="596" fill="#222">frontEndExecute (self)</text>
<rect x="12" y="604" width="12" height="12" fill="#6baed6"/>
<text x="28" y="614" fill="#222">specializeModule</text>
<rect x="289" y="604" width="12" height="12" fill="#2171b5"/>
<text x="305" y="614" fill="#222">simplifyIR</text>
<rect x="566" y="604" width="12" height="12" fill="#08306b"/>
<text x="582" y="614" fill="#222">linkIR</text>
<rect x="843" y="604" width="12" height="12" fill="#9e9ac8"/>
<text x="859" y="614" fill="#222">unrollLoopsInModule</text>
<rect x="12" y="622" width="12" height="12" fill="#807dba"/>
<text x="28" y="632" fill="#222">legalizeResourceTypes</text>
<rect x="289" y="622" width="12" height="12" fill="#6a51a3"/>
<text x="305" y="632" fill="#222">legalizeExistentialTypeLayout</text>
<rect x="566" y="622" width="12" height="12" fill="#bcbddc"/>
<text x="582" y="632" fill="#222">performMandatoryEarlyInlining</text>
<rect x="843" y="622" width="12" height="12" fill="#dadaeb"/>
<text x="859" y="632" fill="#222">performForceInlining</text>
<rect x="12" y="640" width="12" height="12" fill="#4a1486"/>
<text x="28" y="650" fill="#222">linkAndOptimizeIR (self)</text>
<rect x="289" y="640" width="12" height="12" fill="#fd8d3c"/>
<text x="305" y="650" fill="#222">emitEntryPointsSourceFromIR</text>
<rect x="566" y="640" width="12" height="12" fill="#e6550d"/>
<text x="582" y="650" fill="#222">generateOutput (self)</text>
<rect x="843" y="640" width="12" height="12" fill="#969696"/>
<text x="859" y="650" fill="#222">compileInner (self)</text>
</svg>