<svg xmlns="http://www.w3.org/2000/svg" xmlns:xlink="http://www.w3.org/1999/xlink" width="1132" height="680" viewBox="0 0 1132 680" preserveAspectRatio="xMidYMid meet" font-family="sans-serif" font-size="13">
<rect width="1132" height="680" fill="white"/>
<text x="12" y="30" font-size="20" font-weight="bold">inlining — Daily tip-of-tree (last 30 days) (median ms)</text>
<text x="68" y="60" font-size="15" font-weight="600" fill="#1a1a1a">inlining<tspan fill="#888" font-weight="400" text-decoration="none">  0.17×</tspan></text>
<line x1="68.0" y1="516.0" x2="1108.0" y2="516.0" stroke="#eee"/>
<text x="64.0" y="519.0" text-anchor="end" fill="#999">0.0</text>
<line x1="68.0" y1="296.0" x2="1108.0" y2="296.0" stroke="#eee"/>
<text x="64.0" y="299.0" text-anchor="end" fill="#999">276</text>
<line x1="68.0" y1="76.0" x2="1108.0" y2="76.0" stroke="#eee"/>
<text x="64.0" y="79.0" text-anchor="end" fill="#999">552</text>
<line x1="68.0" y1="76.0" x2="68.0" y2="516.0" stroke="#333"/>
<line x1="68.0" y1="516.0" x2="1108.0" y2="516.0" stroke="#333"/>
<line x1="68.0" y1="516.0" x2="68.0" y2="519.0" stroke="#999"/>
<text x="68.0" y="531.0" text-anchor="end" fill="#e8731a" transform="rotate(-50 68.0 531.0)">06-25</text>
<line x1="122.7" y1="516.0" x2="122.7" y2="519.0" stroke="#999"/>
<text x="122.7" y="531.0" text-anchor="end" fill="#e8731a" transform="rotate(-50 122.7 531.0)">06-26</text>
<line x1="177.5" y1="516.0" x2="177.5" y2="519.0" stroke="#999"/>
<text x="177.5" y="531.0" text-anchor="end" fill="#e8731a" transform="rotate(-50 177.5 531.0)">06-28</text>
<line x1="232.2" y1="516.0" x2="232.2" y2="519.0" stroke="#999"/>
<text x="232.2" y="531.0" text-anchor="end" fill="#e8731a" transform="rotate(-50 232.2 531.0)">07-01</text>
<line x1="286.9" y1="516.0" x2="286.9" y2="519.0" stroke="#999"/>
<text x="286.9" y="531.0" text-anchor="end" fill="#e8731a" transform="rotate(-50 286.9 531.0)">07-02</text>
<line x1="341.7" y1="516.0" x2="341.7" y2="519.0" stroke="#999"/>
<text x="341.7" y="531.0" text-anchor="end" fill="#e8731a" transform="rotate(-50 341.7 531.0)">07-03</text>
<line x1="396.4" y1="516.0" x2="396.4" y2="519.0" stroke="#999"/>
<text x="396.4" y="531.0" text-anchor="end" fill="#e8731a" transform="rotate(-50 396.4 531.0)">07-06</text>
<line x1="451.2" y1="516.0" x2="451.2" y2="519.0" stroke="#999"/>
<text x="451.2" y="531.0" text-anchor="end" fill="#e8731a" transform="rotate(-50 451.2 531.0)">07-07</text>
<line x1="505.9" y1="516.0" x2="505.9" y2="519.0" stroke="#999"/>
<text x="505.9" y="531.0" text-anchor="end" fill="#e8731a" transform="rotate(-50 505.9 531.0)">07-08</text>
<line x1="560.6" y1="516.0" x2="560.6" y2="519.0" stroke="#999"/>
<text x="560.6" y="531.0" text-anchor="end" fill="#e8731a" transform="rotate(-50 560.6 531.0)">07-09</text>
<line x1="615.4" y1="516.0" x2="615.4" y2="519.0" stroke="#999"/>
<text x="615.4" y="531.0" text-anchor="end" fill="#e8731a" transform="rotate(-50 615.4 531.0)">07-10</text>
<line x1="670.1" y1="516.0" x2="670.1" y2="519.0" stroke="#999"/>
<text x="670.1" y="531.0" text-anchor="end" fill="#e8731a" transform="rotate(-50 670.1 531.0)">07-11</text>
<line x1="724.8" y1="516.0" x2="724.8" y2="519.0" stroke="#999"/>
<text x="724.8" y="531.0" text-anchor="end" fill="#e8731a" transform="rotate(-50 724.8 531.0)">07-14</text>
<line x1="779.6" y1="516.0" x2="779.6" y2="519.0" stroke="#999"/>
<text x="779.6" y="531.0" text-anchor="end" fill="#e8731a" transform="rotate(-50 779.6 531.0)">07-15</text>
<line x1="834.3" y1="516.0" x2="834.3" y2="519.0" stroke="#999"/>
<text x="834.3" y="531.0" text-anchor="end" fill="#e8731a" transform="rotate(-50 834.3 531.0)">07-15</text>
<line x1="889.1" y1="516.0" x2="889.1" y2="519.0" stroke="#999"/>
<text x="889.1" y="531.0" text-anchor="end" fill="#e8731a" transform="rotate(-50 889.1 531.0)">07-16</text>
<line x1="943.8" y1="516.0" x2="943.8" y2="519.0" stroke="#999"/>
<text x="943.8" y="531.0" text-anchor="end" fill="#e8731a" transform="rotate(-50 943.8 531.0)">07-17</text>
<line x1="998.5" y1="516.0" x2="998.5" y2="519.0" stroke="#999"/>
<text x="998.5" y="531.0" text-anchor="end" fill="#e8731a" transform="rotate(-50 998.5 531.0)">07-18</text>
<line x1="1053.3" y1="516.0" x2="1053.3" y2="519.0" stroke="#999"/>
<text x="1053.3" y="531.0" text-anchor="end" fill="#e8731a" transform="rotate(-50 1053.3 531.0)">07-19</text>
<line x1="1108.0" y1="516.0" x2="1108.0" y2="519.0" stroke="#999"/>
<text x="1108.0" y="531.0" text-anchor="end" fill="#e8731a" transform="rotate(-50 1108.0 531.0)">07-20</text>
<polygon points="68.0,514.3 122.7,514.3 177.5,514.4 232.2,514.3 286.9,514.3 341.7,514.3 396.4,514.3 451.2,514.5 505.9,514.5 560.6,514.4 615.4,514.5 670.1,514.5 724.8,514.5 779.6,514.6 834.3,514.5 889.1,514.6 943.8,514.6 998.5,514.7 1053.3,514.7 1108.0,514.7 1108.0,516.0 1053.3,516.0 998.5,516.0 943.8,516.0 889.1,516.0 834.3,516.0 779.6,516.0 724.8,516.0 670.1,516.0 615.4,516.0 560.6,516.0 505.9,516.0 451.2,516.0 396.4,516.0 341.7,516.0 286.9,516.0 232.2,516.0 177.5,516.0 122.7,516.0 68.0,516.0" fill="#c7e9c0" fill-opacity="0.9" stroke="#fff" stroke-width="0.4"><title>inlining — parseTranslationUnit</title></polygon>
<polygon points="68.0,483.8 122.7,484.0 177.5,484.3 232.2,482.0 286.9,481.1 341.7,480.8 396.4,480.8 451.2,480.9 505.9,481.3 560.6,481.1 615.4,481.9 670.1,480.1 724.8,481.0 779.6,485.7 834.3,485.2 889.1,483.2 943.8,483.1 998.5,491.5 1053.3,492.6 1108.0,492.3 1108.0,514.7 1053.3,514.7 998.5,514.7 943.8,514.6 889.1,514.6 834.3,514.5 779.6,514.6 724.8,514.5 670.1,514.5 615.4,514.5 560.6,514.4 505.9,514.5 451.2,514.5 396.4,514.3 341.7,514.3 286.9,514.3 232.2,514.3 177.5,514.4 122.7,514.3 68.0,514.3" fill="#41ab5d" fill-opacity="0.9" stroke="#fff" stroke-width="0.4"><title>inlining — SemanticChecking</title></polygon>
<polygon points="68.0,471.5 122.7,471.6 177.5,472.0 232.2,469.5 286.9,468.8 341.7,468.5 396.4,468.4 451.2,468.7 505.9,469.0 560.6,468.5 615.4,470.6 670.1,468.5 724.8,469.9 779.6,475.0 834.3,474.6 889.1,472.4 943.8,472.4 998.5,481.8 1053.3,483.3 1108.0,483.1 1108.0,492.3 1053.3,492.6 998.5,491.5 943.8,483.1 889.1,483.2 834.3,485.2 779.6,485.7 724.8,481.0 670.1,480.1 615.4,481.9 560.6,481.1 505.9,481.3 451.2,480.9 396.4,480.8 341.7,480.8 286.9,481.1 232.2,482.0 177.5,484.3 122.7,484.0 68.0,483.8" fill="#006d2c" fill-opacity="0.9" stroke="#fff" stroke-width="0.4"><title>inlining — generateIR</title></polygon>
<polygon points="68.0,471.2 122.7,471.4 177.5,471.7 232.2,469.2 286.9,468.7 341.7,468.3 396.4,468.0 451.2,468.3 505.9,468.8 560.6,468.4 615.4,470.2 670.1,467.9 724.8,469.6 779.6,474.8 834.3,474.2 889.1,472.1 943.8,472.1 998.5,481.6 1053.3,483.1 1108.0,482.9 1108.0,483.1 1053.3,483.3 998.5,481.8 943.8,472.4 889.1,472.4 834.3,474.6 779.6,475.0 724.8,469.9 670.1,468.5 615.4,470.6 560.6,468.5 505.9,469.0 451.2,468.7 396.4,468.4 341.7,468.5 286.9,468.8 232.2,469.5 177.5,472.0 122.7,471.6 68.0,471.5" fill="#74c476" fill-opacity="0.9" stroke="#fff" stroke-width="0.4"><title>inlining — frontEndExecute (self)</title></polygon>
<polygon points="68.0,454.3 122.7,454.5 177.5,454.8 232.2,452.5 286.9,452.0 341.7,451.6 396.4,451.5 451.2,450.3 505.9,450.4 560.6,450.5 615.4,454.2 670.1,451.7 724.8,453.2 779.6,460.0 834.3,459.6 889.1,457.5 943.8,457.3 998.5,468.6 1053.3,470.1 1108.0,469.8 1108.0,482.9 1053.3,483.1 998.5,481.6 943.8,472.1 889.1,472.1 834.3,474.2 779.6,474.8 724.8,469.6 670.1,467.9 615.4,470.2 560.6,468.4 505.9,468.8 451.2,468.3 396.4,468.0 341.7,468.3 286.9,468.7 232.2,469.2 177.5,471.7 122.7,471.4 68.0,471.2" fill="#6baed6" fill-opacity="0.9" stroke="#fff" stroke-width="0.4"><title>inlining — specializeModule</title></polygon>
<polygon points="68.0,133.4 122.7,139.5 177.5,133.1 232.2,128.6 286.9,140.9 341.7,140.9 396.4,145.0 451.2,142.8 505.9,139.0 560.6,142.0 615.4,439.3 670.1,436.6 724.8,438.3 779.6,446.4 834.3,445.8 889.1,444.1 943.8,443.6 998.5,456.1 1053.3,457.6 1108.0,457.4 1108.0,469.8 1053.3,470.1 998.5,468.6 943.8,457.3 889.1,457.5 834.3,459.6 779.6,460.0 724.8,453.2 670.1,451.7 615.4,454.2 560.6,450.5 505.9,450.4 451.2,450.3 396.4,451.5 341.7,451.6 286.9,452.0 232.2,452.5 177.5,454.8 122.7,454.5 68.0,454.3" fill="#2171b5" fill-opacity="0.9" stroke="#fff" stroke-width="0.4"><title>inlining — simplifyIR</title></polygon>
<polygon points="68.0,131.6 122.7,137.8 177.5,131.3 232.2,126.7 286.9,139.2 341.7,139.2 396.4,143.2 451.2,141.2 505.9,137.5 560.6,140.5 615.4,437.7 670.1,435.0 724.8,436.7 779.6,444.9 834.3,444.4 889.1,442.6 943.8,442.2 998.5,454.9 1053.3,456.4 1108.0,456.3 1108.0,457.4 1053.3,457.6 998.5,456.1 943.8,443.6 889.1,444.1 834.3,445.8 779.6,446.4 724.8,438.3 670.1,436.6 615.4,439.3 560.6,142.0 505.9,139.0 451.2,142.8 396.4,145.0 341.7,140.9 286.9,140.9 232.2,128.6 177.5,133.1 122.7,139.5 68.0,133.4" fill="#08306b" fill-opacity="0.9" stroke="#fff" stroke-width="0.4"><title>inlining — linkIR</title></polygon>
<polygon points="68.0,131.5 122.7,137.7 177.5,131.2 232.2,126.6 286.9,139.1 341.7,139.1 396.4,143.2 451.2,141.1 505.9,137.3 560.6,140.3 615.4,437.5 670.1,434.9 724.8,436.5 779.6,444.8 834.3,444.3 889.1,442.5 943.8,442.1 998.5,454.8 1053.3,456.3 1108.0,456.2 1108.0,456.3 1053.3,456.4 998.5,454.9 943.8,442.2 889.1,442.6 834.3,444.4 779.6,444.9 724.8,436.7 670.1,435.0 615.4,437.7 560.6,140.5 505.9,137.5 451.2,141.2 396.4,143.2 341.7,139.2 286.9,139.2 232.2,126.7 177.5,131.3 122.7,137.8 68.0,131.6" fill="#9e9ac8" fill-opacity="0.9" stroke="#fff" stroke-width="0.4"><title>inlining — unrollLoopsInModule</title></polygon>
<polygon points="68.0,130.1 122.7,136.3 177.5,129.8 232.2,125.2 286.9,137.7 341.7,137.7 396.4,141.7 451.2,139.7 505.9,135.9 560.6,139.0 615.4,437.2 670.1,434.5 724.8,436.2 779.6,444.5 834.3,444.0 889.1,442.2 943.8,441.8 998.5,454.5 1053.3,456.0 1108.0,455.9 1108.0,456.2 1053.3,456.3 998.5,454.8 943.8,442.1 889.1,442.5 834.3,444.3 779.6,444.8 724.8,436.5 670.1,434.9 615.4,437.5 560.6,140.3 505.9,137.3 451.2,141.1 396.4,143.2 341.7,139.1 286.9,139.1 232.2,126.6 177.5,131.2 122.7,137.7 68.0,131.5" fill="#807dba" fill-opacity="0.9" stroke="#fff" stroke-width="0.4"><title>inlining — legalizeResourceTypes</title></polygon>
<polygon points="68.0,128.6 122.7,134.8 177.5,128.3 232.2,123.8 286.9,136.3 341.7,136.1 396.4,140.2 451.2,138.3 505.9,134.5 560.6,137.6 615.4,436.9 670.1,434.2 724.8,435.9 779.6,444.1 834.3,443.6 889.1,441.9 943.8,441.4 998.5,454.2 1053.3,455.7 1108.0,455.6 1108.0,455.9 1053.3,456.0 998.5,454.5 943.8,441.8 889.1,442.2 834.3,444.0 779.6,444.5 724.8,436.2 670.1,434.5 615.4,437.2 560.6,139.0 505.9,135.9 451.2,139.7 396.4,141.7 341.7,137.7 286.9,137.7 232.2,125.2 177.5,129.8 122.7,136.3 68.0,130.1" fill="#6a51a3" fill-opacity="0.9" stroke="#fff" stroke-width="0.4"><title>inlining — legalizeExistentialTypeLayout</title></polygon>
<polygon points="68.0,128.0 122.7,134.2 177.5,127.8 232.2,123.3 286.9,135.8 341.7,135.6 396.4,139.7 451.2,137.7 505.9,133.9 560.6,136.9 615.4,436.2 670.1,433.5 724.8,435.3 779.6,443.5 834.3,443.0 889.1,441.2 943.8,440.7 998.5,453.6 1053.3,455.1 1108.0,455.0 1108.0,455.6 1053.3,455.7 998.5,454.2 943.8,441.4 889.1,441.9 834.3,443.6 779.6,444.1 724.8,435.9 670.1,434.2 615.4,436.9 560.6,137.6 505.9,134.5 451.2,138.3 396.4,140.2 341.7,136.1 286.9,136.3 232.2,123.8 177.5,128.3 122.7,134.8 68.0,128.6" fill="#bcbddc" fill-opacity="0.9" stroke="#fff" stroke-width="0.4"><title>inlining — performMandatoryEarlyInlining</title></polygon>
<polygon points="68.0,126.1 122.7,132.2 177.5,125.8 232.2,121.3 286.9,133.8 341.7,133.6 396.4,137.8 451.2,135.5 505.9,131.9 560.6,134.9 615.4,434.3 670.1,431.6 724.8,433.4 779.6,441.8 834.3,441.2 889.1,439.5 943.8,439.0 998.5,452.3 1053.3,453.9 1108.0,453.7 1108.0,455.0 1053.3,455.1 998.5,453.6 943.8,440.7 889.1,441.2 834.3,443.0 779.6,443.5 724.8,435.3 670.1,433.5 615.4,436.2 560.6,136.9 505.9,133.9 451.2,137.7 396.4,139.7 341.7,135.6 286.9,135.8 232.2,123.3 177.5,127.8 122.7,134.2 68.0,128.0" fill="#dadaeb" fill-opacity="0.9" stroke="#fff" stroke-width="0.4"><title>inlining — performForceInlining</title></polygon>
<polygon points="68.0,116.4 122.7,121.7 177.5,115.5 232.2,110.9 286.9,123.1 341.7,122.9 396.4,127.1 451.2,125.3 505.9,121.6 560.6,125.3 615.4,428.3 670.1,425.3 724.8,427.3 779.6,436.7 834.3,436.2 889.1,434.7 943.8,433.9 998.5,447.7 1053.3,449.3 1108.0,449.1 1108.0,453.7 1053.3,453.9 998.5,452.3 943.8,439.0 889.1,439.5 834.3,441.2 779.6,441.8 724.8,433.4 670.1,431.6 615.4,434.3 560.6,134.9 505.9,131.9 451.2,135.5 396.4,137.8 341.7,133.6 286.9,133.8 232.2,121.3 177.5,125.8 122.7,132.2 68.0,126.1" fill="#4a1486" fill-opacity="0.9" stroke="#fff" stroke-width="0.4"><title>inlining — linkAndOptimizeIR (self)</title></polygon>
<polygon points="68.0,114.6 122.7,119.5 177.5,113.3 232.2,108.6 286.9,120.9 341.7,120.9 396.4,124.9 451.2,123.0 505.9,119.4 560.6,123.1 615.4,426.3 670.1,423.3 724.8,425.0 779.6,435.0 834.3,434.5 889.1,432.9 943.8,432.0 998.5,445.9 1053.3,447.6 1108.0,447.1 1108.0,449.1 1053.3,449.3 998.5,447.7 943.8,433.9 889.1,434.7 834.3,436.2 779.6,436.7 724.8,427.3 670.1,425.3 615.4,428.3 560.6,125.3 505.9,121.6 451.2,125.3 396.4,127.1 341.7,122.9 286.9,123.1 232.2,110.9 177.5,115.5 122.7,121.7 68.0,116.4" fill="#e6550d" fill-opacity="0.9" stroke="#fff" stroke-width="0.4"><title>inlining — generateOutput (self)</title></polygon>
<polygon points="68.0,114.6 122.7,119.0 177.5,112.1 232.2,108.6 286.9,120.9 341.7,120.9 396.4,124.7 451.2,121.1 505.9,119.4 560.6,122.9 615.4,426.0 670.1,423.2 724.8,424.8 779.6,434.7 834.3,434.4 889.1,432.8 943.8,431.9 998.5,445.9 1053.3,447.6 1108.0,447.1 1108.0,447.1 1053.3,447.6 998.5,445.9 943.8,432.0 889.1,432.9 834.3,434.5 779.6,435.0 724.8,425.0 670.1,423.3 615.4,426.3 560.6,123.1 505.9,119.4 451.2,123.0 396.4,124.9 341.7,120.9 286.9,120.9 232.2,108.6 177.5,113.3 122.7,119.5 68.0,114.6" fill="#969696" fill-opacity="0.9" stroke="#fff" stroke-width="0.4"><title>inlining — compileInner (self)</title></polygon>
<text x="12" y="578" fill="#666" font-weight="600">phase buckets</text>
<rect x="12" y="586" width="12" height="12" fill="#c7e9c0"/>
<text x="28" y="596" fill="#222">parseTranslationUnit</text>
<rect x="289" y="586" width="12" height="12" fill="#41ab5d"/>
<text x="305" y="596" fill="#222">SemanticChecking</text>
<rect x="566" y="586" width="12" height="12" fill="#006d2c"/>
<text x="582" y="596" fill="#222">generateIR</text>
<rect x="843" y="586" width="12" height="12" fill="#74c476"/>
<text x="859" y="596" fill="#222">frontEndExecute (self)</text>
<rect x="12" y="604" width="12" height="12" fill="#6baed6"/>
<text x="28" y="614" fill="#222">specializeModule</text>
<rect x="289" y="604" width="12" height="12" fill="#2171b5"/>
<text x="305" y="614" fill="#222">simplifyIR</text>
<rect x="566" y="604" width="12" height="12" fill="#08306b"/>
<text x="582" y="614" fill="#222">linkIR</text>
<rect x="843" y="604" width="12" height="12" fill="#9e9ac8"/>
<text x="859" y="614" fill="#222">unrollLoopsInModule</text>
<rect x="12" y="622" width="12" height="12" fill="#807dba"/>
<text x="28" y="632" fill="#222">legalizeResourceTypes</text>
<rect x="289" y="622" width="12" height="12" fill="#6a51a3"/>
<text x="305" y="632" fill="#222">legalizeExistentialTypeLayout</text>
<rect x="566" y="622" width="12" height="12" fill="#bcbddc"/>
<text x="582" y="632" fill="#222">performMandatoryEarlyInlining</text>
<rect x="843" y="622" width="12" height="12" fill="#dadaeb"/>
<text x="859" y="632" fill="#222">performForceInlining</text>
<rect x="12" y="640" width="12" height="12" fill="#4a1486"/>
<text x="28" y="650" fill="#222">linkAndOptimizeIR (self)</text>
<rect x="289" y="640" width="12" height="12" fill="#fd8d3c"/>
<text x="305" y="650" fill="#222">emitEntryPointsSourceFromIR</text>
<rect x="566" y="640" width="12" height="12" fill="#e6550d"/>
<text x="582" y="650" fill="#222">generateOutput (self)</text>
<rect x="843" y="640" width="12" height="12" fill="#969696"/>
<text x="859" y="650" fill="#222">compileInner (self)</text>
</svg>