<svg xmlns="http://www.w3.org/2000/svg" xmlns:xlink="http://www.w3.org/1999/xlink" width="1132" height="680" viewBox="0 0 1132 680" preserveAspectRatio="xMidYMid meet" font-family="sans-serif" font-size="13">
<rect width="1132" height="680" fill="white"/>
<text x="12" y="30" font-size="20" font-weight="bold">inlining — Daily tip-of-tree (last 30 days) (median ms)</text>
<text x="68" y="60" font-size="15" font-weight="600" fill="#1a1a1a">inlining<tspan fill="#888" font-weight="400" text-decoration="none">  0.17×</tspan></text>
<line x1="68.0" y1="516.0" x2="1108.0" y2="516.0" stroke="#eee"/>
<text x="64.0" y="519.0" text-anchor="end" fill="#999">0.0</text>
<line x1="68.0" y1="296.0" x2="1108.0" y2="296.0" stroke="#eee"/>
<text x="64.0" y="299.0" text-anchor="end" fill="#999">276</text>
<line x1="68.0" y1="76.0" x2="1108.0" y2="76.0" stroke="#eee"/>
<text x="64.0" y="79.0" text-anchor="end" fill="#999">552</text>
<line x1="68.0" y1="76.0" x2="68.0" y2="516.0" stroke="#333"/>
<line x1="68.0" y1="516.0" x2="1108.0" y2="516.0" stroke="#333"/>
<line x1="68.0" y1="516.0" x2="68.0" y2="519.0" stroke="#999"/>
<text x="68.0" y="531.0" text-anchor="end" fill="#e8731a" transform="rotate(-50 68.0 531.0)">06-25</text>
<line x1="125.8" y1="516.0" x2="125.8" y2="519.0" stroke="#999"/>
<text x="125.8" y="531.0" text-anchor="end" fill="#e8731a" transform="rotate(-50 125.8 531.0)">06-26</text>
<line x1="183.6" y1="516.0" x2="183.6" y2="519.0" stroke="#999"/>
<text x="183.6" y="531.0" text-anchor="end" fill="#e8731a" transform="rotate(-50 183.6 531.0)">06-28</text>
<line x1="241.3" y1="516.0" x2="241.3" y2="519.0" stroke="#999"/>
<text x="241.3" y="531.0" text-anchor="end" fill="#e8731a" transform="rotate(-50 241.3 531.0)">07-01</text>
<line x1="299.1" y1="516.0" x2="299.1" y2="519.0" stroke="#999"/>
<text x="299.1" y="531.0" text-anchor="end" fill="#e8731a" transform="rotate(-50 299.1 531.0)">07-02</text>
<line x1="356.9" y1="516.0" x2="356.9" y2="519.0" stroke="#999"/>
<text x="356.9" y="531.0" text-anchor="end" fill="#e8731a" transform="rotate(-50 356.9 531.0)">07-03</text>
<line x1="414.7" y1="516.0" x2="414.7" y2="519.0" stroke="#999"/>
<text x="414.7" y="531.0" text-anchor="end" fill="#e8731a" transform="rotate(-50 414.7 531.0)">07-06</text>
<line x1="472.4" y1="516.0" x2="472.4" y2="519.0" stroke="#999"/>
<text x="472.4" y="531.0" text-anchor="end" fill="#e8731a" transform="rotate(-50 472.4 531.0)">07-07</text>
<line x1="530.2" y1="516.0" x2="530.2" y2="519.0" stroke="#999"/>
<text x="530.2" y="531.0" text-anchor="end" fill="#e8731a" transform="rotate(-50 530.2 531.0)">07-08</text>
<line x1="588.0" y1="516.0" x2="588.0" y2="519.0" stroke="#999"/>
<text x="588.0" y="531.0" text-anchor="end" fill="#e8731a" transform="rotate(-50 588.0 531.0)">07-09</text>
<line x1="645.8" y1="516.0" x2="645.8" y2="519.0" stroke="#999"/>
<text x="645.8" y="531.0" text-anchor="end" fill="#e8731a" transform="rotate(-50 645.8 531.0)">07-10</text>
<line x1="703.6" y1="516.0" x2="703.6" y2="519.0" stroke="#999"/>
<text x="703.6" y="531.0" text-anchor="end" fill="#e8731a" transform="rotate(-50 703.6 531.0)">07-11</text>
<line x1="761.3" y1="516.0" x2="761.3" y2="519.0" stroke="#999"/>
<text x="761.3" y="531.0" text-anchor="end" fill="#e8731a" transform="rotate(-50 761.3 531.0)">07-14</text>
<line x1="819.1" y1="516.0" x2="819.1" y2="519.0" stroke="#999"/>
<text x="819.1" y="531.0" text-anchor="end" fill="#e8731a" transform="rotate(-50 819.1 531.0)">07-15</text>
<line x1="876.9" y1="516.0" x2="876.9" y2="519.0" stroke="#999"/>
<text x="876.9" y="531.0" text-anchor="end" fill="#e8731a" transform="rotate(-50 876.9 531.0)">07-15</text>
<line x1="934.7" y1="516.0" x2="934.7" y2="519.0" stroke="#999"/>
<text x="934.7" y="531.0" text-anchor="end" fill="#e8731a" transform="rotate(-50 934.7 531.0)">07-16</text>
<line x1="992.4" y1="516.0" x2="992.4" y2="519.0" stroke="#999"/>
<text x="992.4" y="531.0" text-anchor="end" fill="#e8731a" transform="rotate(-50 992.4 531.0)">07-17</text>
<line x1="1050.2" y1="516.0" x2="1050.2" y2="519.0" stroke="#999"/>
<text x="1050.2" y="531.0" text-anchor="end" fill="#e8731a" transform="rotate(-50 1050.2 531.0)">07-18</text>
<line x1="1108.0" y1="516.0" x2="1108.0" y2="519.0" stroke="#999"/>
<text x="1108.0" y="531.0" text-anchor="end" fill="#e8731a" transform="rotate(-50 1108.0 531.0)">07-19</text>
<polygon points="68.0,514.3 125.8,514.3 183.6,514.4 241.3,514.3 299.1,514.3 356.9,514.3 414.7,514.3 472.4,514.5 530.2,514.5 588.0,514.4 645.8,514.5 703.6,514.5 761.3,514.5 819.1,514.6 876.9,514.5 934.7,514.6 992.4,514.6 1050.2,514.7 1108.0,514.7 1108.0,516.0 1050.2,516.0 992.4,516.0 934.7,516.0 876.9,516.0 819.1,516.0 761.3,516.0 703.6,516.0 645.8,516.0 588.0,516.0 530.2,516.0 472.4,516.0 414.7,516.0 356.9,516.0 299.1,516.0 241.3,516.0 183.6,516.0 125.8,516.0 68.0,516.0" fill="#c7e9c0" fill-opacity="0.9" stroke="#fff" stroke-width="0.4"><title>inlining — parseTranslationUnit</title></polygon>
<polygon points="68.0,483.8 125.8,484.0 183.6,484.3 241.3,482.0 299.1,481.1 356.9,480.8 414.7,480.8 472.4,480.9 530.2,481.3 588.0,481.1 645.8,481.9 703.6,480.1 761.3,481.0 819.1,485.7 876.9,485.2 934.7,483.2 992.4,483.1 1050.2,491.5 1108.0,492.6 1108.0,514.7 1050.2,514.7 992.4,514.6 934.7,514.6 876.9,514.5 819.1,514.6 761.3,514.5 703.6,514.5 645.8,514.5 588.0,514.4 530.2,514.5 472.4,514.5 414.7,514.3 356.9,514.3 299.1,514.3 241.3,514.3 183.6,514.4 125.8,514.3 68.0,514.3" fill="#41ab5d" fill-opacity="0.9" stroke="#fff" stroke-width="0.4"><title>inlining — SemanticChecking</title></polygon>
<polygon points="68.0,471.5 125.8,471.6 183.6,472.0 241.3,469.5 299.1,468.8 356.9,468.5 414.7,468.4 472.4,468.7 530.2,469.0 588.0,468.5 645.8,470.6 703.6,468.5 761.3,469.9 819.1,475.0 876.9,474.6 934.7,472.4 992.4,472.4 1050.2,481.8 1108.0,483.3 1108.0,492.6 1050.2,491.5 992.4,483.1 934.7,483.2 876.9,485.2 819.1,485.7 761.3,481.0 703.6,480.1 645.8,481.9 588.0,481.1 530.2,481.3 472.4,480.9 414.7,480.8 356.9,480.8 299.1,481.1 241.3,482.0 183.6,484.3 125.8,484.0 68.0,483.8" fill="#006d2c" fill-opacity="0.9" stroke="#fff" stroke-width="0.4"><title>inlining — generateIR</title></polygon>
<polygon points="68.0,471.2 125.8,471.4 183.6,471.7 241.3,469.2 299.1,468.7 356.9,468.3 414.7,468.0 472.4,468.3 530.2,468.8 588.0,468.4 645.8,470.2 703.6,467.9 761.3,469.6 819.1,474.8 876.9,474.2 934.7,472.1 992.4,472.1 1050.2,481.6 1108.0,483.1 1108.0,483.3 1050.2,481.8 992.4,472.4 934.7,472.4 876.9,474.6 819.1,475.0 761.3,469.9 703.6,468.5 645.8,470.6 588.0,468.5 530.2,469.0 472.4,468.7 414.7,468.4 356.9,468.5 299.1,468.8 241.3,469.5 183.6,472.0 125.8,471.6 68.0,471.5" fill="#74c476" fill-opacity="0.9" stroke="#fff" stroke-width="0.4"><title>inlining — frontEndExecute (self)</title></polygon>
<polygon points="68.0,454.3 125.8,454.5 183.6,454.8 241.3,452.5 299.1,452.0 356.9,451.6 414.7,451.5 472.4,450.3 530.2,450.4 588.0,450.5 645.8,454.2 703.6,451.7 761.3,453.2 819.1,460.0 876.9,459.6 934.7,457.5 992.4,457.3 1050.2,468.6 1108.0,470.1 1108.0,483.1 1050.2,481.6 992.4,472.1 934.7,472.1 876.9,474.2 819.1,474.8 761.3,469.6 703.6,467.9 645.8,470.2 588.0,468.4 530.2,468.8 472.4,468.3 414.7,468.0 356.9,468.3 299.1,468.7 241.3,469.2 183.6,471.7 125.8,471.4 68.0,471.2" fill="#6baed6" fill-opacity="0.9" stroke="#fff" stroke-width="0.4"><title>inlining — specializeModule</title></polygon>
<polygon points="68.0,133.4 125.8,139.5 183.6,133.1 241.3,128.6 299.1,140.9 356.9,140.9 414.7,145.0 472.4,142.8 530.2,139.0 588.0,142.0 645.8,439.3 703.6,436.6 761.3,438.3 819.1,446.4 876.9,445.8 934.7,444.1 992.4,443.6 1050.2,456.1 1108.0,457.6 1108.0,470.1 1050.2,468.6 992.4,457.3 934.7,457.5 876.9,459.6 819.1,460.0 761.3,453.2 703.6,451.7 645.8,454.2 588.0,450.5 530.2,450.4 472.4,450.3 414.7,451.5 356.9,451.6 299.1,452.0 241.3,452.5 183.6,454.8 125.8,454.5 68.0,454.3" fill="#2171b5" fill-opacity="0.9" stroke="#fff" stroke-width="0.4"><title>inlining — simplifyIR</title></polygon>
<polygon points="68.0,131.6 125.8,137.8 183.6,131.3 241.3,126.7 299.1,139.2 356.9,139.2 414.7,143.2 472.4,141.2 530.2,137.5 588.0,140.5 645.8,437.7 703.6,435.0 761.3,436.7 819.1,444.9 876.9,444.4 934.7,442.6 992.4,442.2 1050.2,454.9 1108.0,456.4 1108.0,457.6 1050.2,456.1 992.4,443.6 934.7,444.1 876.9,445.8 819.1,446.4 761.3,438.3 703.6,436.6 645.8,439.3 588.0,142.0 530.2,139.0 472.4,142.8 414.7,145.0 356.9,140.9 299.1,140.9 241.3,128.6 183.6,133.1 125.8,139.5 68.0,133.4" fill="#08306b" fill-opacity="0.9" stroke="#fff" stroke-width="0.4"><title>inlining — linkIR</title></polygon>
<polygon points="68.0,131.5 125.8,137.7 183.6,131.2 241.3,126.6 299.1,139.1 356.9,139.1 414.7,143.2 472.4,141.1 530.2,137.3 588.0,140.3 645.8,437.5 703.6,434.9 761.3,436.5 819.1,444.8 876.9,444.3 934.7,442.5 992.4,442.1 1050.2,454.8 1108.0,456.3 1108.0,456.4 1050.2,454.9 992.4,442.2 934.7,442.6 876.9,444.4 819.1,444.9 761.3,436.7 703.6,435.0 645.8,437.7 588.0,140.5 530.2,137.5 472.4,141.2 414.7,143.2 356.9,139.2 299.1,139.2 241.3,126.7 183.6,131.3 125.8,137.8 68.0,131.6" fill="#9e9ac8" fill-opacity="0.9" stroke="#fff" stroke-width="0.4"><title>inlining — unrollLoopsInModule</title></polygon>
<polygon points="68.0,130.1 125.8,136.3 183.6,129.8 241.3,125.2 299.1,137.7 356.9,137.7 414.7,141.7 472.4,139.7 530.2,135.9 588.0,139.0 645.8,437.2 703.6,434.5 761.3,436.2 819.1,444.5 876.9,444.0 934.7,442.2 992.4,441.8 1050.2,454.5 1108.0,456.0 1108.0,456.3 1050.2,454.8 992.4,442.1 934.7,442.5 876.9,444.3 819.1,444.8 761.3,436.5 703.6,434.9 645.8,437.5 588.0,140.3 530.2,137.3 472.4,141.1 414.7,143.2 356.9,139.1 299.1,139.1 241.3,126.6 183.6,131.2 125.8,137.7 68.0,131.5" fill="#807dba" fill-opacity="0.9" stroke="#fff" stroke-width="0.4"><title>inlining — legalizeResourceTypes</title></polygon>
<polygon points="68.0,128.6 125.8,134.8 183.6,128.3 241.3,123.8 299.1,136.3 356.9,136.1 414.7,140.2 472.4,138.3 530.2,134.5 588.0,137.6 645.8,436.9 703.6,434.2 761.3,435.9 819.1,444.1 876.9,443.6 934.7,441.9 992.4,441.4 1050.2,454.2 1108.0,455.7 1108.0,456.0 1050.2,454.5 992.4,441.8 934.7,442.2 876.9,444.0 819.1,444.5 761.3,436.2 703.6,434.5 645.8,437.2 588.0,139.0 530.2,135.9 472.4,139.7 414.7,141.7 356.9,137.7 299.1,137.7 241.3,125.2 183.6,129.8 125.8,136.3 68.0,130.1" fill="#6a51a3" fill-opacity="0.9" stroke="#fff" stroke-width="0.4"><title>inlining — legalizeExistentialTypeLayout</title></polygon>
<polygon points="68.0,128.0 125.8,134.2 183.6,127.8 241.3,123.3 299.1,135.8 356.9,135.6 414.7,139.7 472.4,137.7 530.2,133.9 588.0,136.9 645.8,436.2 703.6,433.5 761.3,435.3 819.1,443.5 876.9,443.0 934.7,441.2 992.4,440.7 1050.2,453.6 1108.0,455.1 1108.0,455.7 1050.2,454.2 992.4,441.4 934.7,441.9 876.9,443.6 819.1,444.1 761.3,435.9 703.6,434.2 645.8,436.9 588.0,137.6 530.2,134.5 472.4,138.3 414.7,140.2 356.9,136.1 299.1,136.3 241.3,123.8 183.6,128.3 125.8,134.8 68.0,128.6" fill="#bcbddc" fill-opacity="0.9" stroke="#fff" stroke-width="0.4"><title>inlining — performMandatoryEarlyInlining</title></polygon>
<polygon points="68.0,126.1 125.8,132.2 183.6,125.8 241.3,121.3 299.1,133.8 356.9,133.6 414.7,137.8 472.4,135.5 530.2,131.9 588.0,134.9 645.8,434.3 703.6,431.6 761.3,433.4 819.1,441.8 876.9,441.2 934.7,439.5 992.4,439.0 1050.2,452.3 1108.0,453.9 1108.0,455.1 1050.2,453.6 992.4,440.7 934.7,441.2 876.9,443.0 819.1,443.5 761.3,435.3 703.6,433.5 645.8,436.2 588.0,136.9 530.2,133.9 472.4,137.7 414.7,139.7 356.9,135.6 299.1,135.8 241.3,123.3 183.6,127.8 125.8,134.2 68.0,128.0" fill="#dadaeb" fill-opacity="0.9" stroke="#fff" stroke-width="0.4"><title>inlining — performForceInlining</title></polygon>
<polygon points="68.0,116.4 125.8,121.7 183.6,115.5 241.3,110.9 299.1,123.1 356.9,122.9 414.7,127.1 472.4,125.3 530.2,121.6 588.0,125.3 645.8,428.3 703.6,425.3 761.3,427.3 819.1,436.7 876.9,436.2 934.7,434.7 992.4,433.9 1050.2,447.7 1108.0,449.3 1108.0,453.9 1050.2,452.3 992.4,439.0 934.7,439.5 876.9,441.2 819.1,441.8 761.3,433.4 703.6,431.6 645.8,434.3 588.0,134.9 530.2,131.9 472.4,135.5 414.7,137.8 356.9,133.6 299.1,133.8 241.3,121.3 183.6,125.8 125.8,132.2 68.0,126.1" fill="#4a1486" fill-opacity="0.9" stroke="#fff" stroke-width="0.4"><title>inlining — linkAndOptimizeIR (self)</title></polygon>
<polygon points="68.0,114.6 125.8,119.5 183.6,113.3 241.3,108.6 299.1,120.9 356.9,120.9 414.7,124.9 472.4,123.0 530.2,119.4 588.0,123.1 645.8,426.3 703.6,423.3 761.3,425.0 819.1,435.0 876.9,434.5 934.7,432.9 992.4,432.0 1050.2,445.9 1108.0,447.6 1108.0,449.3 1050.2,447.7 992.4,433.9 934.7,434.7 876.9,436.2 819.1,436.7 761.3,427.3 703.6,425.3 645.8,428.3 588.0,125.3 530.2,121.6 472.4,125.3 414.7,127.1 356.9,122.9 299.1,123.1 241.3,110.9 183.6,115.5 125.8,121.7 68.0,116.4" fill="#e6550d" fill-opacity="0.9" stroke="#fff" stroke-width="0.4"><title>inlining — generateOutput (self)</title></polygon>
<polygon points="68.0,114.6 125.8,119.0 183.6,112.1 241.3,108.6 299.1,120.9 356.9,120.9 414.7,124.7 472.4,121.1 530.2,119.4 588.0,122.9 645.8,426.0 703.6,423.2 761.3,424.8 819.1,434.7 876.9,434.4 934.7,432.8 992.4,431.9 1050.2,445.9 1108.0,447.6 1108.0,447.6 1050.2,445.9 992.4,432.0 934.7,432.9 876.9,434.5 819.1,435.0 761.3,425.0 703.6,423.3 645.8,426.3 588.0,123.1 530.2,119.4 472.4,123.0 414.7,124.9 356.9,120.9 299.1,120.9 241.3,108.6 183.6,113.3 125.8,119.5 68.0,114.6" fill="#969696" fill-opacity="0.9" stroke="#fff" stroke-width="0.4"><title>inlining — compileInner (self)</title></polygon>
<text x="12" y="578" fill="#666" font-weight="600">phase buckets</text>
<rect x="12" y="586" width="12" height="12" fill="#c7e9c0"/>
<text x="28" y="596" fill="#222">parseTranslationUnit</text>
<rect x="289" y="586" width="12" height="12" fill="#41ab5d"/>
<text x="305" y="596" fill="#222">SemanticChecking</text>
<rect x="566" y="586" width="12" height="12" fill="#006d2c"/>
<text x="582" y="596" fill="#222">generateIR</text>
<rect x="843" y="586" width="12" height="12" fill="#74c476"/>
<text x="859" y="596" fill="#222">frontEndExecute (self)</text>
<rect x="12" y="604" width="12" height="12" fill="#6baed6"/>
<text x="28" y="614" fill="#222">specializeModule</text>
<rect x="289" y="604" width="12" height="12" fill="#2171b5"/>
<text x="305" y="614" fill="#222">simplifyIR</text>
<rect x="566" y="604" width="12" height="12" fill="#08306b"/>
<text x="582" y="614" fill="#222">linkIR</text>
<rect x="843" y="604" width="12" height="12" fill="#9e9ac8"/>
<text x="859" y="614" fill="#222">unrollLoopsInModule</text>
<rect x="12" y="622" width="12" height="12" fill="#807dba"/>
<text x="28" y="632" fill="#222">legalizeResourceTypes</text>
<rect x="289" y="622" width="12" height="12" fill="#6a51a3"/>
<text x="305" y="632" fill="#222">legalizeExistentialTypeLayout</text>
<rect x="566" y="622" width="12" height="12" fill="#bcbddc"/>
<text x="582" y="632" fill="#222">performMandatoryEarlyInlining</text>
<rect x="843" y="622" width="12" height="12" fill="#dadaeb"/>
<text x="859" y="632" fill="#222">performForceInlining</text>
<rect x="12" y="640" width="12" height="12" fill="#4a1486"/>
<text x="28" y="650" fill="#222">linkAndOptimizeIR (self)</text>
<rect x="289" y="640" width="12" height="12" fill="#fd8d3c"/>
<text x="305" y="650" fill="#222">emitEntryPointsSourceFromIR</text>
<rect x="566" y="640" width="12" height="12" fill="#e6550d"/>
<text x="582" y="650" fill="#222">generateOutput (self)</text>
<rect x="843" y="640" width="12" height="12" fill="#969696"/>
<text x="859" y="650" fill="#222">compileInner (self)</text>
</svg>