<svg xmlns="http://www.w3.org/2000/svg" xmlns:xlink="http://www.w3.org/1999/xlink" width="1132" height="680" viewBox="0 0 1132 680" preserveAspectRatio="xMidYMid meet" font-family="sans-serif" font-size="13">
<rect width="1132" height="680" fill="white"/>
<text x="12" y="30" font-size="20" font-weight="bold">inlining — Daily tip-of-tree (last 30 days) (median ms)</text>
<text x="68" y="60" font-size="15" font-weight="600" fill="#1a1a1a">inlining<tspan fill="#888" font-weight="400" text-decoration="none">  0.17×</tspan></text>
<line x1="68.0" y1="516.0" x2="1108.0" y2="516.0" stroke="#eee"/>
<text x="64.0" y="519.0" text-anchor="end" fill="#999">0.0</text>
<line x1="68.0" y1="296.0" x2="1108.0" y2="296.0" stroke="#eee"/>
<text x="64.0" y="299.0" text-anchor="end" fill="#999">276</text>
<line x1="68.0" y1="76.0" x2="1108.0" y2="76.0" stroke="#eee"/>
<text x="64.0" y="79.0" text-anchor="end" fill="#999">552</text>
<line x1="68.0" y1="76.0" x2="68.0" y2="516.0" stroke="#333"/>
<line x1="68.0" y1="516.0" x2="1108.0" y2="516.0" stroke="#333"/>
<line x1="68.0" y1="516.0" x2="68.0" y2="519.0" stroke="#999"/>
<text x="68.0" y="531.0" text-anchor="end" fill="#e8731a" transform="rotate(-50 68.0 531.0)">06-25</text>
<line x1="120.0" y1="516.0" x2="120.0" y2="519.0" stroke="#999"/>
<text x="120.0" y="531.0" text-anchor="end" fill="#e8731a" transform="rotate(-50 120.0 531.0)">06-26</text>
<line x1="172.0" y1="516.0" x2="172.0" y2="519.0" stroke="#999"/>
<text x="172.0" y="531.0" text-anchor="end" fill="#e8731a" transform="rotate(-50 172.0 531.0)">06-28</text>
<line x1="224.0" y1="516.0" x2="224.0" y2="519.0" stroke="#999"/>
<text x="224.0" y="531.0" text-anchor="end" fill="#e8731a" transform="rotate(-50 224.0 531.0)">07-01</text>
<line x1="276.0" y1="516.0" x2="276.0" y2="519.0" stroke="#999"/>
<text x="276.0" y="531.0" text-anchor="end" fill="#e8731a" transform="rotate(-50 276.0 531.0)">07-02</text>
<line x1="328.0" y1="516.0" x2="328.0" y2="519.0" stroke="#999"/>
<text x="328.0" y="531.0" text-anchor="end" fill="#e8731a" transform="rotate(-50 328.0 531.0)">07-03</text>
<line x1="380.0" y1="516.0" x2="380.0" y2="519.0" stroke="#999"/>
<text x="380.0" y="531.0" text-anchor="end" fill="#e8731a" transform="rotate(-50 380.0 531.0)">07-06</text>
<line x1="432.0" y1="516.0" x2="432.0" y2="519.0" stroke="#999"/>
<text x="432.0" y="531.0" text-anchor="end" fill="#e8731a" transform="rotate(-50 432.0 531.0)">07-07</text>
<line x1="484.0" y1="516.0" x2="484.0" y2="519.0" stroke="#999"/>
<text x="484.0" y="531.0" text-anchor="end" fill="#e8731a" transform="rotate(-50 484.0 531.0)">07-08</text>
<line x1="536.0" y1="516.0" x2="536.0" y2="519.0" stroke="#999"/>
<text x="536.0" y="531.0" text-anchor="end" fill="#e8731a" transform="rotate(-50 536.0 531.0)">07-09</text>
<line x1="588.0" y1="516.0" x2="588.0" y2="519.0" stroke="#999"/>
<text x="588.0" y="531.0" text-anchor="end" fill="#e8731a" transform="rotate(-50 588.0 531.0)">07-10</text>
<line x1="640.0" y1="516.0" x2="640.0" y2="519.0" stroke="#999"/>
<text x="640.0" y="531.0" text-anchor="end" fill="#e8731a" transform="rotate(-50 640.0 531.0)">07-11</text>
<line x1="692.0" y1="516.0" x2="692.0" y2="519.0" stroke="#999"/>
<text x="692.0" y="531.0" text-anchor="end" fill="#e8731a" transform="rotate(-50 692.0 531.0)">07-14</text>
<line x1="744.0" y1="516.0" x2="744.0" y2="519.0" stroke="#999"/>
<text x="744.0" y="531.0" text-anchor="end" fill="#e8731a" transform="rotate(-50 744.0 531.0)">07-15</text>
<line x1="796.0" y1="516.0" x2="796.0" y2="519.0" stroke="#999"/>
<text x="796.0" y="531.0" text-anchor="end" fill="#e8731a" transform="rotate(-50 796.0 531.0)">07-15</text>
<line x1="848.0" y1="516.0" x2="848.0" y2="519.0" stroke="#999"/>
<text x="848.0" y="531.0" text-anchor="end" fill="#e8731a" transform="rotate(-50 848.0 531.0)">07-16</text>
<line x1="900.0" y1="516.0" x2="900.0" y2="519.0" stroke="#999"/>
<text x="900.0" y="531.0" text-anchor="end" fill="#e8731a" transform="rotate(-50 900.0 531.0)">07-17</text>
<line x1="952.0" y1="516.0" x2="952.0" y2="519.0" stroke="#999"/>
<text x="952.0" y="531.0" text-anchor="end" fill="#e8731a" transform="rotate(-50 952.0 531.0)">07-18</text>
<line x1="1004.0" y1="516.0" x2="1004.0" y2="519.0" stroke="#999"/>
<text x="1004.0" y="531.0" text-anchor="end" fill="#e8731a" transform="rotate(-50 1004.0 531.0)">07-19</text>
<line x1="1056.0" y1="516.0" x2="1056.0" y2="519.0" stroke="#999"/>
<text x="1056.0" y="531.0" text-anchor="end" fill="#e8731a" transform="rotate(-50 1056.0 531.0)">07-20</text>
<line x1="1108.0" y1="516.0" x2="1108.0" y2="519.0" stroke="#999"/>
<text x="1108.0" y="531.0" text-anchor="end" fill="#e8731a" transform="rotate(-50 1108.0 531.0)">07-21</text>
<polygon points="68.0,514.3 120.0,514.3 172.0,514.4 224.0,514.3 276.0,514.3 328.0,514.3 380.0,514.3 432.0,514.5 484.0,514.5 536.0,514.4 588.0,514.5 640.0,514.5 692.0,514.5 744.0,514.6 796.0,514.5 848.0,514.6 900.0,514.6 952.0,514.7 1004.0,514.7 1056.0,514.7 1108.0,514.7 1108.0,516.0 1056.0,516.0 1004.0,516.0 952.0,516.0 900.0,516.0 848.0,516.0 796.0,516.0 744.0,516.0 692.0,516.0 640.0,516.0 588.0,516.0 536.0,516.0 484.0,516.0 432.0,516.0 380.0,516.0 328.0,516.0 276.0,516.0 224.0,516.0 172.0,516.0 120.0,516.0 68.0,516.0" fill="#c7e9c0" fill-opacity="0.9" stroke="#fff" stroke-width="0.4"><title>inlining — parseTranslationUnit</title></polygon>
<polygon points="68.0,483.8 120.0,484.0 172.0,484.3 224.0,482.0 276.0,481.1 328.0,480.8 380.0,480.8 432.0,480.9 484.0,481.3 536.0,481.1 588.0,481.9 640.0,480.1 692.0,481.0 744.0,485.7 796.0,485.2 848.0,483.2 900.0,483.1 952.0,491.5 1004.0,492.6 1056.0,492.3 1108.0,492.5 1108.0,514.7 1056.0,514.7 1004.0,514.7 952.0,514.7 900.0,514.6 848.0,514.6 796.0,514.5 744.0,514.6 692.0,514.5 640.0,514.5 588.0,514.5 536.0,514.4 484.0,514.5 432.0,514.5 380.0,514.3 328.0,514.3 276.0,514.3 224.0,514.3 172.0,514.4 120.0,514.3 68.0,514.3" fill="#41ab5d" fill-opacity="0.9" stroke="#fff" stroke-width="0.4"><title>inlining — SemanticChecking</title></polygon>
<polygon points="68.0,471.5 120.0,471.6 172.0,472.0 224.0,469.5 276.0,468.8 328.0,468.5 380.0,468.4 432.0,468.7 484.0,469.0 536.0,468.5 588.0,470.6 640.0,468.5 692.0,469.9 744.0,475.0 796.0,474.6 848.0,472.4 900.0,472.4 952.0,481.8 1004.0,483.3 1056.0,483.1 1108.0,483.2 1108.0,492.5 1056.0,492.3 1004.0,492.6 952.0,491.5 900.0,483.1 848.0,483.2 796.0,485.2 744.0,485.7 692.0,481.0 640.0,480.1 588.0,481.9 536.0,481.1 484.0,481.3 432.0,480.9 380.0,480.8 328.0,480.8 276.0,481.1 224.0,482.0 172.0,484.3 120.0,484.0 68.0,483.8" fill="#006d2c" fill-opacity="0.9" stroke="#fff" stroke-width="0.4"><title>inlining — generateIR</title></polygon>
<polygon points="68.0,471.2 120.0,471.4 172.0,471.7 224.0,469.2 276.0,468.7 328.0,468.3 380.0,468.0 432.0,468.3 484.0,468.8 536.0,468.4 588.0,470.2 640.0,467.9 692.0,469.6 744.0,474.8 796.0,474.2 848.0,472.1 900.0,472.1 952.0,481.6 1004.0,483.1 1056.0,482.9 1108.0,482.9 1108.0,483.2 1056.0,483.1 1004.0,483.3 952.0,481.8 900.0,472.4 848.0,472.4 796.0,474.6 744.0,475.0 692.0,469.9 640.0,468.5 588.0,470.6 536.0,468.5 484.0,469.0 432.0,468.7 380.0,468.4 328.0,468.5 276.0,468.8 224.0,469.5 172.0,472.0 120.0,471.6 68.0,471.5" fill="#74c476" fill-opacity="0.9" stroke="#fff" stroke-width="0.4"><title>inlining — frontEndExecute (self)</title></polygon>
<polygon points="68.0,454.3 120.0,454.5 172.0,454.8 224.0,452.5 276.0,452.0 328.0,451.6 380.0,451.5 432.0,450.3 484.0,450.4 536.0,450.5 588.0,454.2 640.0,451.7 692.0,453.2 744.0,460.0 796.0,459.6 848.0,457.5 900.0,457.3 952.0,468.6 1004.0,470.1 1056.0,469.8 1108.0,469.9 1108.0,482.9 1056.0,482.9 1004.0,483.1 952.0,481.6 900.0,472.1 848.0,472.1 796.0,474.2 744.0,474.8 692.0,469.6 640.0,467.9 588.0,470.2 536.0,468.4 484.0,468.8 432.0,468.3 380.0,468.0 328.0,468.3 276.0,468.7 224.0,469.2 172.0,471.7 120.0,471.4 68.0,471.2" fill="#6baed6" fill-opacity="0.9" stroke="#fff" stroke-width="0.4"><title>inlining — specializeModule</title></polygon>
<polygon points="68.0,133.4 120.0,139.5 172.0,133.1 224.0,128.6 276.0,140.9 328.0,140.9 380.0,145.0 432.0,142.8 484.0,139.0 536.0,142.0 588.0,439.3 640.0,436.6 692.0,438.3 744.0,446.4 796.0,445.8 848.0,444.1 900.0,443.6 952.0,456.1 1004.0,457.6 1056.0,457.4 1108.0,457.5 1108.0,469.9 1056.0,469.8 1004.0,470.1 952.0,468.6 900.0,457.3 848.0,457.5 796.0,459.6 744.0,460.0 692.0,453.2 640.0,451.7 588.0,454.2 536.0,450.5 484.0,450.4 432.0,450.3 380.0,451.5 328.0,451.6 276.0,452.0 224.0,452.5 172.0,454.8 120.0,454.5 68.0,454.3" fill="#2171b5" fill-opacity="0.9" stroke="#fff" stroke-width="0.4"><title>inlining — simplifyIR</title></polygon>
<polygon points="68.0,131.6 120.0,137.8 172.0,131.3 224.0,126.7 276.0,139.2 328.0,139.2 380.0,143.2 432.0,141.2 484.0,137.5 536.0,140.5 588.0,437.7 640.0,435.0 692.0,436.7 744.0,444.9 796.0,444.4 848.0,442.6 900.0,442.2 952.0,454.9 1004.0,456.4 1056.0,456.3 1108.0,456.3 1108.0,457.5 1056.0,457.4 1004.0,457.6 952.0,456.1 900.0,443.6 848.0,444.1 796.0,445.8 744.0,446.4 692.0,438.3 640.0,436.6 588.0,439.3 536.0,142.0 484.0,139.0 432.0,142.8 380.0,145.0 328.0,140.9 276.0,140.9 224.0,128.6 172.0,133.1 120.0,139.5 68.0,133.4" fill="#08306b" fill-opacity="0.9" stroke="#fff" stroke-width="0.4"><title>inlining — linkIR</title></polygon>
<polygon points="68.0,131.5 120.0,137.7 172.0,131.2 224.0,126.6 276.0,139.1 328.0,139.1 380.0,143.2 432.0,141.1 484.0,137.3 536.0,140.3 588.0,437.5 640.0,434.9 692.0,436.5 744.0,444.8 796.0,444.3 848.0,442.5 900.0,442.1 952.0,454.8 1004.0,456.3 1056.0,456.2 1108.0,456.2 1108.0,456.3 1056.0,456.3 1004.0,456.4 952.0,454.9 900.0,442.2 848.0,442.6 796.0,444.4 744.0,444.9 692.0,436.7 640.0,435.0 588.0,437.7 536.0,140.5 484.0,137.5 432.0,141.2 380.0,143.2 328.0,139.2 276.0,139.2 224.0,126.7 172.0,131.3 120.0,137.8 68.0,131.6" fill="#9e9ac8" fill-opacity="0.9" stroke="#fff" stroke-width="0.4"><title>inlining — unrollLoopsInModule</title></polygon>
<polygon points="68.0,130.1 120.0,136.3 172.0,129.8 224.0,125.2 276.0,137.7 328.0,137.7 380.0,141.7 432.0,139.7 484.0,135.9 536.0,139.0 588.0,437.2 640.0,434.5 692.0,436.2 744.0,444.5 796.0,444.0 848.0,442.2 900.0,441.8 952.0,454.5 1004.0,456.0 1056.0,455.9 1108.0,455.9 1108.0,456.2 1056.0,456.2 1004.0,456.3 952.0,454.8 900.0,442.1 848.0,442.5 796.0,444.3 744.0,444.8 692.0,436.5 640.0,434.9 588.0,437.5 536.0,140.3 484.0,137.3 432.0,141.1 380.0,143.2 328.0,139.1 276.0,139.1 224.0,126.6 172.0,131.2 120.0,137.7 68.0,131.5" fill="#807dba" fill-opacity="0.9" stroke="#fff" stroke-width="0.4"><title>inlining — legalizeResourceTypes</title></polygon>
<polygon points="68.0,128.6 120.0,134.8 172.0,128.3 224.0,123.8 276.0,136.3 328.0,136.1 380.0,140.2 432.0,138.3 484.0,134.5 536.0,137.6 588.0,436.9 640.0,434.2 692.0,435.9 744.0,444.1 796.0,443.6 848.0,441.9 900.0,441.4 952.0,454.2 1004.0,455.7 1056.0,455.6 1108.0,455.6 1108.0,455.9 1056.0,455.9 1004.0,456.0 952.0,454.5 900.0,441.8 848.0,442.2 796.0,444.0 744.0,444.5 692.0,436.2 640.0,434.5 588.0,437.2 536.0,139.0 484.0,135.9 432.0,139.7 380.0,141.7 328.0,137.7 276.0,137.7 224.0,125.2 172.0,129.8 120.0,136.3 68.0,130.1" fill="#6a51a3" fill-opacity="0.9" stroke="#fff" stroke-width="0.4"><title>inlining — legalizeExistentialTypeLayout</title></polygon>
<polygon points="68.0,128.0 120.0,134.2 172.0,127.8 224.0,123.3 276.0,135.8 328.0,135.6 380.0,139.7 432.0,137.7 484.0,133.9 536.0,136.9 588.0,436.2 640.0,433.5 692.0,435.3 744.0,443.5 796.0,443.0 848.0,441.2 900.0,440.7 952.0,453.6 1004.0,455.1 1056.0,455.0 1108.0,455.0 1108.0,455.6 1056.0,455.6 1004.0,455.7 952.0,454.2 900.0,441.4 848.0,441.9 796.0,443.6 744.0,444.1 692.0,435.9 640.0,434.2 588.0,436.9 536.0,137.6 484.0,134.5 432.0,138.3 380.0,140.2 328.0,136.1 276.0,136.3 224.0,123.8 172.0,128.3 120.0,134.8 68.0,128.6" fill="#bcbddc" fill-opacity="0.9" stroke="#fff" stroke-width="0.4"><title>inlining — performMandatoryEarlyInlining</title></polygon>
<polygon points="68.0,126.1 120.0,132.2 172.0,125.8 224.0,121.3 276.0,133.8 328.0,133.6 380.0,137.8 432.0,135.5 484.0,131.9 536.0,134.9 588.0,434.3 640.0,431.6 692.0,433.4 744.0,441.8 796.0,441.2 848.0,439.5 900.0,439.0 952.0,452.3 1004.0,453.9 1056.0,453.7 1108.0,453.8 1108.0,455.0 1056.0,455.0 1004.0,455.1 952.0,453.6 900.0,440.7 848.0,441.2 796.0,443.0 744.0,443.5 692.0,435.3 640.0,433.5 588.0,436.2 536.0,136.9 484.0,133.9 432.0,137.7 380.0,139.7 328.0,135.6 276.0,135.8 224.0,123.3 172.0,127.8 120.0,134.2 68.0,128.0" fill="#dadaeb" fill-opacity="0.9" stroke="#fff" stroke-width="0.4"><title>inlining — performForceInlining</title></polygon>
<polygon points="68.0,116.4 120.0,121.7 172.0,115.5 224.0,110.9 276.0,123.1 328.0,122.9 380.0,127.1 432.0,125.3 484.0,121.6 536.0,125.3 588.0,428.3 640.0,425.3 692.0,427.3 744.0,436.7 796.0,436.2 848.0,434.7 900.0,433.9 952.0,447.7 1004.0,449.3 1056.0,449.1 1108.0,449.1 1108.0,453.8 1056.0,453.7 1004.0,453.9 952.0,452.3 900.0,439.0 848.0,439.5 796.0,441.2 744.0,441.8 692.0,433.4 640.0,431.6 588.0,434.3 536.0,134.9 484.0,131.9 432.0,135.5 380.0,137.8 328.0,133.6 276.0,133.8 224.0,121.3 172.0,125.8 120.0,132.2 68.0,126.1" fill="#4a1486" fill-opacity="0.9" stroke="#fff" stroke-width="0.4"><title>inlining — linkAndOptimizeIR (self)</title></polygon>
<polygon points="68.0,114.6 120.0,119.5 172.0,113.3 224.0,108.6 276.0,120.9 328.0,120.9 380.0,124.9 432.0,123.0 484.0,119.4 536.0,123.1 588.0,426.3 640.0,423.3 692.0,425.0 744.0,435.0 796.0,434.5 848.0,432.9 900.0,432.0 952.0,445.9 1004.0,447.6 1056.0,447.1 1108.0,447.3 1108.0,449.1 1056.0,449.1 1004.0,449.3 952.0,447.7 900.0,433.9 848.0,434.7 796.0,436.2 744.0,436.7 692.0,427.3 640.0,425.3 588.0,428.3 536.0,125.3 484.0,121.6 432.0,125.3 380.0,127.1 328.0,122.9 276.0,123.1 224.0,110.9 172.0,115.5 120.0,121.7 68.0,116.4" fill="#e6550d" fill-opacity="0.9" stroke="#fff" stroke-width="0.4"><title>inlining — generateOutput (self)</title></polygon>
<polygon points="68.0,114.6 120.0,119.0 172.0,112.1 224.0,108.6 276.0,120.9 328.0,120.9 380.0,124.7 432.0,121.1 484.0,119.4 536.0,122.9 588.0,426.0 640.0,423.2 692.0,424.8 744.0,434.7 796.0,434.4 848.0,432.8 900.0,431.9 952.0,445.9 1004.0,447.6 1056.0,447.1 1108.0,447.3 1108.0,447.3 1056.0,447.1 1004.0,447.6 952.0,445.9 900.0,432.0 848.0,432.9 796.0,434.5 744.0,435.0 692.0,425.0 640.0,423.3 588.0,426.3 536.0,123.1 484.0,119.4 432.0,123.0 380.0,124.9 328.0,120.9 276.0,120.9 224.0,108.6 172.0,113.3 120.0,119.5 68.0,114.6" fill="#969696" fill-opacity="0.9" stroke="#fff" stroke-width="0.4"><title>inlining — compileInner (self)</title></polygon>
<text x="12" y="578" fill="#666" font-weight="600">phase buckets</text>
<rect x="12" y="586" width="12" height="12" fill="#c7e9c0"/>
<text x="28" y="596" fill="#222">parseTranslationUnit</text>
<rect x="289" y="586" width="12" height="12" fill="#41ab5d"/>
<text x="305" y="596" fill="#222">SemanticChecking</text>
<rect x="566" y="586" width="12" height="12" fill="#006d2c"/>
<text x="582" y="596" fill="#222">generateIR</text>
<rect x="843" y="586" width="12" height="12" fill="#74c476"/>
<text x="859" y="596" fill="#222">frontEndExecute (self)</text>
<rect x="12" y="604" width="12" height="12" fill="#6baed6"/>
<text x="28" y="614" fill="#222">specializeModule</text>
<rect x="289" y="604" width="12" height="12" fill="#2171b5"/>
<text x="305" y="614" fill="#222">simplifyIR</text>
<rect x="566" y="604" width="12" height="12" fill="#08306b"/>
<text x="582" y="614" fill="#222">linkIR</text>
<rect x="843" y="604" width="12" height="12" fill="#9e9ac8"/>
<text x="859" y="614" fill="#222">unrollLoopsInModule</text>
<rect x="12" y="622" width="12" height="12" fill="#807dba"/>
<text x="28" y="632" fill="#222">legalizeResourceTypes</text>
<rect x="289" y="622" width="12" height="12" fill="#6a51a3"/>
<text x="305" y="632" fill="#222">legalizeExistentialTypeLayout</text>
<rect x="566" y="622" width="12" height="12" fill="#bcbddc"/>
<text x="582" y="632" fill="#222">performMandatoryEarlyInlining</text>
<rect x="843" y="622" width="12" height="12" fill="#dadaeb"/>
<text x="859" y="632" fill="#222">performForceInlining</text>
<rect x="12" y="640" width="12" height="12" fill="#4a1486"/>
<text x="28" y="650" fill="#222">linkAndOptimizeIR (self)</text>
<rect x="289" y="640" width="12" height="12" fill="#fd8d3c"/>
<text x="305" y="650" fill="#222">emitEntryPointsSourceFromIR</text>
<rect x="566" y="640" width="12" height="12" fill="#e6550d"/>
<text x="582" y="650" fill="#222">generateOutput (self)</text>
<rect x="843" y="640" width="12" height="12" fill="#969696"/>
<text x="859" y="650" fill="#222">compileInner (self)</text>
</svg>