<svg xmlns="http://www.w3.org/2000/svg" xmlns:xlink="http://www.w3.org/1999/xlink" width="1132" height="680" viewBox="0 0 1132 680" preserveAspectRatio="xMidYMid meet" font-family="sans-serif" font-size="13">
<rect width="1132" height="680" fill="white"/>
<text x="12" y="30" font-size="20" font-weight="bold">inlining — Daily tip-of-tree (last 30 days) (median ms)</text>
<text x="68" y="60" font-size="15" font-weight="600" fill="#1a1a1a">inlining<tspan fill="#888" font-weight="400" text-decoration="none">  0.20×</tspan></text>
<line x1="68.0" y1="516.0" x2="1108.0" y2="516.0" stroke="#eee"/>
<text x="64.0" y="519.0" text-anchor="end" fill="#999">0.0</text>
<line x1="68.0" y1="296.0" x2="1108.0" y2="296.0" stroke="#eee"/>
<text x="64.0" y="299.0" text-anchor="end" fill="#999">276</text>
<line x1="68.0" y1="76.0" x2="1108.0" y2="76.0" stroke="#eee"/>
<text x="64.0" y="79.0" text-anchor="end" fill="#999">552</text>
<line x1="68.0" y1="76.0" x2="68.0" y2="516.0" stroke="#333"/>
<line x1="68.0" y1="516.0" x2="1108.0" y2="516.0" stroke="#333"/>
<line x1="68.0" y1="516.0" x2="68.0" y2="519.0" stroke="#999"/>
<text x="68.0" y="531.0" text-anchor="end" fill="#e8731a" transform="rotate(-50 68.0 531.0)">06-25</text>
<line x1="142.3" y1="516.0" x2="142.3" y2="519.0" stroke="#999"/>
<text x="142.3" y="531.0" text-anchor="end" fill="#e8731a" transform="rotate(-50 142.3 531.0)">06-26</text>
<line x1="216.6" y1="516.0" x2="216.6" y2="519.0" stroke="#999"/>
<text x="216.6" y="531.0" text-anchor="end" fill="#e8731a" transform="rotate(-50 216.6 531.0)">06-28</text>
<line x1="290.9" y1="516.0" x2="290.9" y2="519.0" stroke="#999"/>
<text x="290.9" y="531.0" text-anchor="end" fill="#e8731a" transform="rotate(-50 290.9 531.0)">07-01</text>
<line x1="365.1" y1="516.0" x2="365.1" y2="519.0" stroke="#999"/>
<text x="365.1" y="531.0" text-anchor="end" fill="#e8731a" transform="rotate(-50 365.1 531.0)">07-02</text>
<line x1="439.4" y1="516.0" x2="439.4" y2="519.0" stroke="#999"/>
<text x="439.4" y="531.0" text-anchor="end" fill="#e8731a" transform="rotate(-50 439.4 531.0)">07-03</text>
<line x1="513.7" y1="516.0" x2="513.7" y2="519.0" stroke="#999"/>
<text x="513.7" y="531.0" text-anchor="end" fill="#e8731a" transform="rotate(-50 513.7 531.0)">07-06</text>
<line x1="588.0" y1="516.0" x2="588.0" y2="519.0" stroke="#999"/>
<text x="588.0" y="531.0" text-anchor="end" fill="#e8731a" transform="rotate(-50 588.0 531.0)">07-07</text>
<line x1="662.3" y1="516.0" x2="662.3" y2="519.0" stroke="#999"/>
<text x="662.3" y="531.0" text-anchor="end" fill="#e8731a" transform="rotate(-50 662.3 531.0)">07-08</text>
<line x1="736.6" y1="516.0" x2="736.6" y2="519.0" stroke="#999"/>
<text x="736.6" y="531.0" text-anchor="end" fill="#e8731a" transform="rotate(-50 736.6 531.0)">07-09</text>
<line x1="810.9" y1="516.0" x2="810.9" y2="519.0" stroke="#999"/>
<text x="810.9" y="531.0" text-anchor="end" fill="#e8731a" transform="rotate(-50 810.9 531.0)">07-10</text>
<line x1="885.1" y1="516.0" x2="885.1" y2="519.0" stroke="#999"/>
<text x="885.1" y="531.0" text-anchor="end" fill="#e8731a" transform="rotate(-50 885.1 531.0)">07-11</text>
<line x1="959.4" y1="516.0" x2="959.4" y2="519.0" stroke="#999"/>
<text x="959.4" y="531.0" text-anchor="end" fill="#e8731a" transform="rotate(-50 959.4 531.0)">07-14</text>
<line x1="1033.7" y1="516.0" x2="1033.7" y2="519.0" stroke="#999"/>
<text x="1033.7" y="531.0" text-anchor="end" fill="#e8731a" transform="rotate(-50 1033.7 531.0)">07-15</text>
<line x1="1108.0" y1="516.0" x2="1108.0" y2="519.0" stroke="#999"/>
<text x="1108.0" y="531.0" text-anchor="end" fill="#e8731a" transform="rotate(-50 1108.0 531.0)">07-15</text>
<polygon points="68.0,514.3 142.3,514.3 216.6,514.4 290.9,514.3 365.1,514.3 439.4,514.3 513.7,514.3 588.0,514.5 662.3,514.5 736.6,514.4 810.9,514.5 885.1,514.5 959.4,514.5 1033.7,514.6 1108.0,514.5 1108.0,516.0 1033.7,516.0 959.4,516.0 885.1,516.0 810.9,516.0 736.6,516.0 662.3,516.0 588.0,516.0 513.7,516.0 439.4,516.0 365.1,516.0 290.9,516.0 216.6,516.0 142.3,516.0 68.0,516.0" fill="#c7e9c0" fill-opacity="0.9" stroke="#fff" stroke-width="0.4"><title>inlining — parseTranslationUnit</title></polygon>
<polygon points="68.0,483.8 142.3,484.0 216.6,484.3 290.9,482.0 365.1,481.1 439.4,480.8 513.7,480.8 588.0,480.9 662.3,481.3 736.6,481.1 810.9,481.9 885.1,480.1 959.4,481.0 1033.7,485.7 1108.0,485.2 1108.0,514.5 1033.7,514.6 959.4,514.5 885.1,514.5 810.9,514.5 736.6,514.4 662.3,514.5 588.0,514.5 513.7,514.3 439.4,514.3 365.1,514.3 290.9,514.3 216.6,514.4 142.3,514.3 68.0,514.3" fill="#41ab5d" fill-opacity="0.9" stroke="#fff" stroke-width="0.4"><title>inlining — SemanticChecking</title></polygon>
<polygon points="68.0,471.5 142.3,471.6 216.6,472.0 290.9,469.5 365.1,468.8 439.4,468.5 513.7,468.4 588.0,468.7 662.3,469.0 736.6,468.5 810.9,470.6 885.1,468.5 959.4,469.9 1033.7,475.0 1108.0,474.6 1108.0,485.2 1033.7,485.7 959.4,481.0 885.1,480.1 810.9,481.9 736.6,481.1 662.3,481.3 588.0,480.9 513.7,480.8 439.4,480.8 365.1,481.1 290.9,482.0 216.6,484.3 142.3,484.0 68.0,483.8" fill="#006d2c" fill-opacity="0.9" stroke="#fff" stroke-width="0.4"><title>inlining — generateIR</title></polygon>
<polygon points="68.0,471.2 142.3,471.4 216.6,471.7 290.9,469.2 365.1,468.7 439.4,468.3 513.7,468.0 588.0,468.3 662.3,468.8 736.6,468.4 810.9,470.2 885.1,467.9 959.4,469.6 1033.7,474.8 1108.0,474.2 1108.0,474.6 1033.7,475.0 959.4,469.9 885.1,468.5 810.9,470.6 736.6,468.5 662.3,469.0 588.0,468.7 513.7,468.4 439.4,468.5 365.1,468.8 290.9,469.5 216.6,472.0 142.3,471.6 68.0,471.5" fill="#74c476" fill-opacity="0.9" stroke="#fff" stroke-width="0.4"><title>inlining — frontEndExecute (self)</title></polygon>
<polygon points="68.0,454.3 142.3,454.5 216.6,454.8 290.9,452.5 365.1,452.0 439.4,451.6 513.7,451.5 588.0,450.3 662.3,450.4 736.6,450.5 810.9,454.2 885.1,451.7 959.4,453.2 1033.7,460.0 1108.0,459.6 1108.0,474.2 1033.7,474.8 959.4,469.6 885.1,467.9 810.9,470.2 736.6,468.4 662.3,468.8 588.0,468.3 513.7,468.0 439.4,468.3 365.1,468.7 290.9,469.2 216.6,471.7 142.3,471.4 68.0,471.2" fill="#6baed6" fill-opacity="0.9" stroke="#fff" stroke-width="0.4"><title>inlining — specializeModule</title></polygon>
<polygon points="68.0,133.4 142.3,139.5 216.6,133.1 290.9,128.6 365.1,140.9 439.4,140.9 513.7,145.0 588.0,142.8 662.3,139.0 736.6,142.0 810.9,439.3 885.1,436.6 959.4,438.3 1033.7,446.4 1108.0,445.8 1108.0,459.6 1033.7,460.0 959.4,453.2 885.1,451.7 810.9,454.2 736.6,450.5 662.3,450.4 588.0,450.3 513.7,451.5 439.4,451.6 365.1,452.0 290.9,452.5 216.6,454.8 142.3,454.5 68.0,454.3" fill="#2171b5" fill-opacity="0.9" stroke="#fff" stroke-width="0.4"><title>inlining — simplifyIR</title></polygon>
<polygon points="68.0,131.6 142.3,137.8 216.6,131.3 290.9,126.7 365.1,139.2 439.4,139.2 513.7,143.2 588.0,141.2 662.3,137.5 736.6,140.5 810.9,437.7 885.1,435.0 959.4,436.7 1033.7,444.9 1108.0,444.4 1108.0,445.8 1033.7,446.4 959.4,438.3 885.1,436.6 810.9,439.3 736.6,142.0 662.3,139.0 588.0,142.8 513.7,145.0 439.4,140.9 365.1,140.9 290.9,128.6 216.6,133.1 142.3,139.5 68.0,133.4" fill="#08306b" fill-opacity="0.9" stroke="#fff" stroke-width="0.4"><title>inlining — linkIR</title></polygon>
<polygon points="68.0,131.5 142.3,137.7 216.6,131.2 290.9,126.6 365.1,139.1 439.4,139.1 513.7,143.2 588.0,141.1 662.3,137.3 736.6,140.3 810.9,437.5 885.1,434.9 959.4,436.5 1033.7,444.8 1108.0,444.3 1108.0,444.4 1033.7,444.9 959.4,436.7 885.1,435.0 810.9,437.7 736.6,140.5 662.3,137.5 588.0,141.2 513.7,143.2 439.4,139.2 365.1,139.2 290.9,126.7 216.6,131.3 142.3,137.8 68.0,131.6" fill="#9e9ac8" fill-opacity="0.9" stroke="#fff" stroke-width="0.4"><title>inlining — unrollLoopsInModule</title></polygon>
<polygon points="68.0,130.1 142.3,136.3 216.6,129.8 290.9,125.2 365.1,137.7 439.4,137.7 513.7,141.7 588.0,139.7 662.3,135.9 736.6,139.0 810.9,437.2 885.1,434.5 959.4,436.2 1033.7,444.5 1108.0,444.0 1108.0,444.3 1033.7,444.8 959.4,436.5 885.1,434.9 810.9,437.5 736.6,140.3 662.3,137.3 588.0,141.1 513.7,143.2 439.4,139.1 365.1,139.1 290.9,126.6 216.6,131.2 142.3,137.7 68.0,131.5" fill="#807dba" fill-opacity="0.9" stroke="#fff" stroke-width="0.4"><title>inlining — legalizeResourceTypes</title></polygon>
<polygon points="68.0,128.6 142.3,134.8 216.6,128.3 290.9,123.8 365.1,136.3 439.4,136.1 513.7,140.2 588.0,138.3 662.3,134.5 736.6,137.6 810.9,436.9 885.1,434.2 959.4,435.9 1033.7,444.1 1108.0,443.6 1108.0,444.0 1033.7,444.5 959.4,436.2 885.1,434.5 810.9,437.2 736.6,139.0 662.3,135.9 588.0,139.7 513.7,141.7 439.4,137.7 365.1,137.7 290.9,125.2 216.6,129.8 142.3,136.3 68.0,130.1" fill="#6a51a3" fill-opacity="0.9" stroke="#fff" stroke-width="0.4"><title>inlining — legalizeExistentialTypeLayout</title></polygon>
<polygon points="68.0,128.0 142.3,134.2 216.6,127.8 290.9,123.3 365.1,135.8 439.4,135.6 513.7,139.7 588.0,137.7 662.3,133.9 736.6,136.9 810.9,436.2 885.1,433.5 959.4,435.3 1033.7,443.5 1108.0,443.0 1108.0,443.6 1033.7,444.1 959.4,435.9 885.1,434.2 810.9,436.9 736.6,137.6 662.3,134.5 588.0,138.3 513.7,140.2 439.4,136.1 365.1,136.3 290.9,123.8 216.6,128.3 142.3,134.8 68.0,128.6" fill="#bcbddc" fill-opacity="0.9" stroke="#fff" stroke-width="0.4"><title>inlining — performMandatoryEarlyInlining</title></polygon>
<polygon points="68.0,126.1 142.3,132.2 216.6,125.8 290.9,121.3 365.1,133.8 439.4,133.6 513.7,137.8 588.0,135.5 662.3,131.9 736.6,134.9 810.9,434.3 885.1,431.6 959.4,433.4 1033.7,441.8 1108.0,441.2 1108.0,443.0 1033.7,443.5 959.4,435.3 885.1,433.5 810.9,436.2 736.6,136.9 662.3,133.9 588.0,137.7 513.7,139.7 439.4,135.6 365.1,135.8 290.9,123.3 216.6,127.8 142.3,134.2 68.0,128.0" fill="#dadaeb" fill-opacity="0.9" stroke="#fff" stroke-width="0.4"><title>inlining — performForceInlining</title></polygon>
<polygon points="68.0,116.4 142.3,121.7 216.6,115.5 290.9,110.9 365.1,123.1 439.4,122.9 513.7,127.1 588.0,125.3 662.3,121.6 736.6,125.3 810.9,428.3 885.1,425.3 959.4,427.3 1033.7,436.7 1108.0,436.2 1108.0,441.2 1033.7,441.8 959.4,433.4 885.1,431.6 810.9,434.3 736.6,134.9 662.3,131.9 588.0,135.5 513.7,137.8 439.4,133.6 365.1,133.8 290.9,121.3 216.6,125.8 142.3,132.2 68.0,126.1" fill="#4a1486" fill-opacity="0.9" stroke="#fff" stroke-width="0.4"><title>inlining — linkAndOptimizeIR (self)</title></polygon>
<polygon points="68.0,114.6 142.3,119.5 216.6,113.3 290.9,108.6 365.1,120.9 439.4,120.9 513.7,124.9 588.0,123.0 662.3,119.4 736.6,123.1 810.9,426.3 885.1,423.3 959.4,425.0 1033.7,435.0 1108.0,434.5 1108.0,436.2 1033.7,436.7 959.4,427.3 885.1,425.3 810.9,428.3 736.6,125.3 662.3,121.6 588.0,125.3 513.7,127.1 439.4,122.9 365.1,123.1 290.9,110.9 216.6,115.5 142.3,121.7 68.0,116.4" fill="#e6550d" fill-opacity="0.9" stroke="#fff" stroke-width="0.4"><title>inlining — generateOutput (self)</title></polygon>
<polygon points="68.0,114.6 142.3,119.0 216.6,112.1 290.9,108.6 365.1,120.9 439.4,120.9 513.7,124.7 588.0,121.1 662.3,119.4 736.6,122.9 810.9,426.0 885.1,423.2 959.4,424.8 1033.7,434.7 1108.0,434.4 1108.0,434.5 1033.7,435.0 959.4,425.0 885.1,423.3 810.9,426.3 736.6,123.1 662.3,119.4 588.0,123.0 513.7,124.9 439.4,120.9 365.1,120.9 290.9,108.6 216.6,113.3 142.3,119.5 68.0,114.6" fill="#969696" fill-opacity="0.9" stroke="#fff" stroke-width="0.4"><title>inlining — compileInner (self)</title></polygon>
<text x="12" y="578" fill="#666" font-weight="600">phase buckets</text>
<rect x="12" y="586" width="12" height="12" fill="#c7e9c0"/>
<text x="28" y="596" fill="#222">parseTranslationUnit</text>
<rect x="289" y="586" width="12" height="12" fill="#41ab5d"/>
<text x="305" y="596" fill="#222">SemanticChecking</text>
<rect x="566" y="586" width="12" height="12" fill="#006d2c"/>
<text x="582" y="596" fill="#222">generateIR</text>
<rect x="843" y="586" width="12" height="12" fill="#74c476"/>
<text x="859" y="596" fill="#222">frontEndExecute (self)</text>
<rect x="12" y="604" width="12" height="12" fill="#6baed6"/>
<text x="28" y="614" fill="#222">specializeModule</text>
<rect x="289" y="604" width="12" height="12" fill="#2171b5"/>
<text x="305" y="614" fill="#222">simplifyIR</text>
<rect x="566" y="604" width="12" height="12" fill="#08306b"/>
<text x="582" y="614" fill="#222">linkIR</text>
<rect x="843" y="604" width="12" height="12" fill="#9e9ac8"/>
<text x="859" y="614" fill="#222">unrollLoopsInModule</text>
<rect x="12" y="622" width="12" height="12" fill="#807dba"/>
<text x="28" y="632" fill="#222">legalizeResourceTypes</text>
<rect x="289" y="622" width="12" height="12" fill="#6a51a3"/>
<text x="305" y="632" fill="#222">legalizeExistentialTypeLayout</text>
<rect x="566" y="622" width="12" height="12" fill="#bcbddc"/>
<text x="582" y="632" fill="#222">performMandatoryEarlyInlining</text>
<rect x="843" y="622" width="12" height="12" fill="#dadaeb"/>
<text x="859" y="632" fill="#222">performForceInlining</text>
<rect x="12" y="640" width="12" height="12" fill="#4a1486"/>
<text x="28" y="650" fill="#222">linkAndOptimizeIR (self)</text>
<rect x="289" y="640" width="12" height="12" fill="#fd8d3c"/>
<text x="305" y="650" fill="#222">emitEntryPointsSourceFromIR</text>
<rect x="566" y="640" width="12" height="12" fill="#e6550d"/>
<text x="582" y="650" fill="#222">generateOutput (self)</text>
<rect x="843" y="640" width="12" height="12" fill="#969696"/>
<text x="859" y="650" fill="#222">compileInner (self)</text>
</svg>