<svg xmlns="http://www.w3.org/2000/svg" xmlns:xlink="http://www.w3.org/1999/xlink" width="1132" height="680" viewBox="0 0 1132 680" preserveAspectRatio="xMidYMid meet" font-family="sans-serif" font-size="13">
<rect width="1132" height="680" fill="white"/>
<text x="12" y="30" font-size="20" font-weight="bold">inlining — full phase breakdown across releases (median ms)</text>
<text x="68" y="60" font-size="15" font-weight="600" fill="#1a1a1a">inlining<tspan fill="#888" font-weight="400" text-decoration="none">  1.36×</tspan></text>
<line x1="68.0" y1="516.0" x2="1108.0" y2="516.0" stroke="#eee"/>
<text x="64.0" y="519.0" text-anchor="end" fill="#999">0.0</text>
<line x1="68.0" y1="296.0" x2="1108.0" y2="296.0" stroke="#eee"/>
<text x="64.0" y="299.0" text-anchor="end" fill="#999">300</text>
<line x1="68.0" y1="76.0" x2="1108.0" y2="76.0" stroke="#eee"/>
<text x="64.0" y="79.0" text-anchor="end" fill="#999">600</text>
<line x1="68.0" y1="76.0" x2="68.0" y2="516.0" stroke="#333"/>
<line x1="68.0" y1="516.0" x2="1108.0" y2="516.0" stroke="#333"/>
<line x1="672.3" y1="76.0" x2="672.3" y2="516.0" stroke="#e8731a" stroke-width="1.2" stroke-dasharray="4 3"/>
<text x="675.3" y="87.0" fill="#e8731a" font-size="11">daily →</text>
<line x1="68.0" y1="516.0" x2="68.0" y2="519.0" stroke="#999"/>
<text x="68.0" y="531.0" text-anchor="end" fill="#666" transform="rotate(-50 68.0 531.0)">25.14</text>
<line x1="96.1" y1="516.0" x2="96.1" y2="519.0" stroke="#999"/>
<text x="96.1" y="531.0" text-anchor="end" fill="#666" transform="rotate(-50 96.1 531.0)">25.15</text>
<line x1="124.2" y1="516.0" x2="124.2" y2="519.0" stroke="#999"/>
<text x="124.2" y="531.0" text-anchor="end" fill="#666" transform="rotate(-50 124.2 531.0)">25.16</text>
<line x1="152.3" y1="516.0" x2="152.3" y2="519.0" stroke="#999"/>
<text x="152.3" y="531.0" text-anchor="end" fill="#666" transform="rotate(-50 152.3 531.0)">25.17</text>
<line x1="180.4" y1="516.0" x2="180.4" y2="519.0" stroke="#999"/>
<text x="180.4" y="531.0" text-anchor="end" fill="#666" transform="rotate(-50 180.4 531.0)">25.18</text>
<line x1="208.5" y1="516.0" x2="208.5" y2="519.0" stroke="#999"/>
<text x="208.5" y="531.0" text-anchor="end" fill="#666" transform="rotate(-50 208.5 531.0)">25.19</text>
<line x1="236.6" y1="516.0" x2="236.6" y2="519.0" stroke="#999"/>
<text x="236.6" y="531.0" text-anchor="end" fill="#666" transform="rotate(-50 236.6 531.0)">25.20</text>
<line x1="264.8" y1="516.0" x2="264.8" y2="519.0" stroke="#999"/>
<text x="264.8" y="531.0" text-anchor="end" fill="#666" transform="rotate(-50 264.8 531.0)">25.21</text>
<line x1="292.9" y1="516.0" x2="292.9" y2="519.0" stroke="#999"/>
<text x="292.9" y="531.0" text-anchor="end" fill="#666" transform="rotate(-50 292.9 531.0)">25.22</text>
<line x1="321.0" y1="516.0" x2="321.0" y2="519.0" stroke="#999"/>
<text x="321.0" y="531.0" text-anchor="end" fill="#666" transform="rotate(-50 321.0 531.0)">25.23</text>
<line x1="349.1" y1="516.0" x2="349.1" y2="519.0" stroke="#999"/>
<text x="349.1" y="531.0" text-anchor="end" fill="#666" transform="rotate(-50 349.1 531.0)">25.24</text>
<line x1="377.2" y1="516.0" x2="377.2" y2="519.0" stroke="#999"/>
<text x="377.2" y="531.0" text-anchor="end" fill="#666" transform="rotate(-50 377.2 531.0)">26.1</text>
<line x1="405.3" y1="516.0" x2="405.3" y2="519.0" stroke="#999"/>
<text x="405.3" y="531.0" text-anchor="end" fill="#666" transform="rotate(-50 405.3 531.0)">26.2</text>
<line x1="433.4" y1="516.0" x2="433.4" y2="519.0" stroke="#999"/>
<text x="433.4" y="531.0" text-anchor="end" fill="#666" transform="rotate(-50 433.4 531.0)">26.3</text>
<line x1="461.5" y1="516.0" x2="461.5" y2="519.0" stroke="#999"/>
<text x="461.5" y="531.0" text-anchor="end" fill="#666" transform="rotate(-50 461.5 531.0)">26.4</text>
<line x1="489.6" y1="516.0" x2="489.6" y2="519.0" stroke="#999"/>
<text x="489.6" y="531.0" text-anchor="end" fill="#666" transform="rotate(-50 489.6 531.0)">26.5</text>
<line x1="517.7" y1="516.0" x2="517.7" y2="519.0" stroke="#999"/>
<text x="517.7" y="531.0" text-anchor="end" fill="#666" transform="rotate(-50 517.7 531.0)">26.7</text>
<line x1="545.8" y1="516.0" x2="545.8" y2="519.0" stroke="#999"/>
<text x="545.8" y="531.0" text-anchor="end" fill="#666" transform="rotate(-50 545.8 531.0)">26.8</text>
<line x1="573.9" y1="516.0" x2="573.9" y2="519.0" stroke="#999"/>
<text x="573.9" y="531.0" text-anchor="end" fill="#666" transform="rotate(-50 573.9 531.0)">26.9</text>
<line x1="602.1" y1="516.0" x2="602.1" y2="519.0" stroke="#999"/>
<text x="602.1" y="531.0" text-anchor="end" fill="#666" transform="rotate(-50 602.1 531.0)">26.10</text>
<line x1="630.2" y1="516.0" x2="630.2" y2="519.0" stroke="#999"/>
<text x="630.2" y="531.0" text-anchor="end" fill="#666" transform="rotate(-50 630.2 531.0)">26.11</text>
<line x1="658.3" y1="516.0" x2="658.3" y2="519.0" stroke="#999"/>
<text x="658.3" y="531.0" text-anchor="end" fill="#666" transform="rotate(-50 658.3 531.0)">26.12</text>
<line x1="686.4" y1="516.0" x2="686.4" y2="519.0" stroke="#999"/>
<text x="686.4" y="531.0" text-anchor="end" fill="#e8731a" transform="rotate(-50 686.4 531.0)">06-25</text>
<line x1="714.5" y1="516.0" x2="714.5" y2="519.0" stroke="#999"/>
<text x="714.5" y="531.0" text-anchor="end" fill="#e8731a" transform="rotate(-50 714.5 531.0)">06-26</text>
<line x1="742.6" y1="516.0" x2="742.6" y2="519.0" stroke="#999"/>
<text x="742.6" y="531.0" text-anchor="end" fill="#e8731a" transform="rotate(-50 742.6 531.0)">06-28</text>
<line x1="770.7" y1="516.0" x2="770.7" y2="519.0" stroke="#999"/>
<text x="770.7" y="531.0" text-anchor="end" fill="#e8731a" transform="rotate(-50 770.7 531.0)">07-01</text>
<line x1="798.8" y1="516.0" x2="798.8" y2="519.0" stroke="#999"/>
<text x="798.8" y="531.0" text-anchor="end" fill="#e8731a" transform="rotate(-50 798.8 531.0)">07-02</text>
<line x1="826.9" y1="516.0" x2="826.9" y2="519.0" stroke="#999"/>
<text x="826.9" y="531.0" text-anchor="end" fill="#e8731a" transform="rotate(-50 826.9 531.0)">07-03</text>
<line x1="855.0" y1="516.0" x2="855.0" y2="519.0" stroke="#999"/>
<text x="855.0" y="531.0" text-anchor="end" fill="#e8731a" transform="rotate(-50 855.0 531.0)">07-06</text>
<line x1="883.1" y1="516.0" x2="883.1" y2="519.0" stroke="#999"/>
<text x="883.1" y="531.0" text-anchor="end" fill="#e8731a" transform="rotate(-50 883.1 531.0)">07-07</text>
<line x1="911.2" y1="516.0" x2="911.2" y2="519.0" stroke="#999"/>
<text x="911.2" y="531.0" text-anchor="end" fill="#e8731a" transform="rotate(-50 911.2 531.0)">07-07</text>
<line x1="939.4" y1="516.0" x2="939.4" y2="519.0" stroke="#999"/>
<text x="939.4" y="531.0" text-anchor="end" fill="#e8731a" transform="rotate(-50 939.4 531.0)">07-08</text>
<line x1="967.5" y1="516.0" x2="967.5" y2="519.0" stroke="#999"/>
<text x="967.5" y="531.0" text-anchor="end" fill="#e8731a" transform="rotate(-50 967.5 531.0)">07-09</text>
<line x1="995.6" y1="516.0" x2="995.6" y2="519.0" stroke="#999"/>
<text x="995.6" y="531.0" text-anchor="end" fill="#e8731a" transform="rotate(-50 995.6 531.0)">07-09</text>
<line x1="1023.7" y1="516.0" x2="1023.7" y2="519.0" stroke="#999"/>
<text x="1023.7" y="531.0" text-anchor="end" fill="#e8731a" transform="rotate(-50 1023.7 531.0)">07-10</text>
<line x1="1051.8" y1="516.0" x2="1051.8" y2="519.0" stroke="#999"/>
<text x="1051.8" y="531.0" text-anchor="end" fill="#e8731a" transform="rotate(-50 1051.8 531.0)">07-10</text>
<line x1="1079.9" y1="516.0" x2="1079.9" y2="519.0" stroke="#999"/>
<text x="1079.9" y="531.0" text-anchor="end" fill="#e8731a" transform="rotate(-50 1079.9 531.0)">07-11</text>
<line x1="1108.0" y1="516.0" x2="1108.0" y2="519.0" stroke="#999"/>
<text x="1108.0" y="531.0" text-anchor="end" fill="#e8731a" transform="rotate(-50 1108.0 531.0)">07-11</text>
<polygon points="68.0,514.7 96.1,514.8 124.2,514.8 152.3,514.7 180.4,514.8 208.5,514.7 236.6,514.6 264.8,514.7 292.9,514.8 321.0,514.8 349.1,514.8 377.2,514.8 405.3,514.8 433.4,514.7 461.5,514.7 489.6,514.7 517.7,514.6 545.8,514.7 573.9,514.7 602.1,514.7 630.2,514.6 658.3,514.6 686.4,514.5 714.5,514.5 742.6,514.5 770.7,514.5 798.8,514.2 826.9,514.4 855.0,514.4 883.1,514.6 911.2,514.6 939.4,514.6 967.5,514.6 995.6,514.6 1023.7,514.5 1051.8,514.6 1079.9,514.5 1108.0,514.6 1108.0,516.0 1079.9,516.0 1051.8,516.0 1023.7,516.0 995.6,516.0 967.5,516.0 939.4,516.0 911.2,516.0 883.1,516.0 855.0,516.0 826.9,516.0 798.8,516.0 770.7,516.0 742.6,516.0 714.5,516.0 686.4,516.0 658.3,516.0 630.2,516.0 602.1,516.0 573.9,516.0 545.8,516.0 517.7,516.0 489.6,516.0 461.5,516.0 433.4,516.0 405.3,516.0 377.2,516.0 349.1,516.0 321.0,516.0 292.9,516.0 264.8,516.0 236.6,516.0 208.5,516.0 180.4,516.0 152.3,516.0 124.2,516.0 96.1,516.0 68.0,516.0" fill="#c7e9c0" fill-opacity="0.9" stroke="#fff" stroke-width="0.4"><title>inlining — parseTranslationUnit</title></polygon>
<polygon points="68.0,489.7 96.1,483.0 124.2,482.4 152.3,481.1 180.4,479.1 208.5,480.0 236.6,478.9 264.8,478.0 292.9,478.1 321.0,478.8 349.1,479.3 377.2,477.9 405.3,476.4 433.4,476.0 461.5,476.6 489.6,476.2 517.7,469.7 545.8,470.2 573.9,470.0 602.1,469.3 630.2,489.6 658.3,487.4 686.4,486.6 714.5,486.5 742.6,487.0 770.7,485.0 798.8,484.0 826.9,483.6 855.0,483.6 883.1,484.3 911.2,483.7 939.4,484.1 967.5,483.5 995.6,483.9 1023.7,485.1 1051.8,484.6 1079.9,484.3 1108.0,483.0 1108.0,514.6 1079.9,514.5 1051.8,514.6 1023.7,514.5 995.6,514.6 967.5,514.6 939.4,514.6 911.2,514.6 883.1,514.6 855.0,514.4 826.9,514.4 798.8,514.2 770.7,514.5 742.6,514.5 714.5,514.5 686.4,514.5 658.3,514.6 630.2,514.6 602.1,514.7 573.9,514.7 545.8,514.7 517.7,514.6 489.6,514.7 461.5,514.7 433.4,514.7 405.3,514.8 377.2,514.8 349.1,514.8 321.0,514.8 292.9,514.8 264.8,514.7 236.6,514.6 208.5,514.7 180.4,514.8 152.3,514.7 124.2,514.8 96.1,514.8 68.0,514.7" fill="#41ab5d" fill-opacity="0.9" stroke="#fff" stroke-width="0.4"><title>inlining — SemanticChecking</title></polygon>
<polygon points="68.0,482.3 96.1,475.6 124.2,474.5 152.3,473.3 180.4,470.9 208.5,471.7 236.6,470.8 264.8,469.9 292.9,470.5 321.0,471.5 349.1,471.9 377.2,470.4 405.3,469.0 433.4,468.1 461.5,469.1 489.6,468.8 517.7,452.4 545.8,452.5 573.9,452.2 602.1,451.7 630.2,479.3 658.3,476.9 686.4,475.4 714.5,475.3 742.6,475.8 770.7,473.9 798.8,472.8 826.9,472.3 855.0,472.2 883.1,472.9 911.2,472.4 939.4,472.8 967.5,472.2 995.6,472.4 1023.7,474.8 1051.8,474.2 1079.9,473.8 1108.0,472.3 1108.0,483.0 1079.9,484.3 1051.8,484.6 1023.7,485.1 995.6,483.9 967.5,483.5 939.4,484.1 911.2,483.7 883.1,484.3 855.0,483.6 826.9,483.6 798.8,484.0 770.7,485.0 742.6,487.0 714.5,486.5 686.4,486.6 658.3,487.4 630.2,489.6 602.1,469.3 573.9,470.0 545.8,470.2 517.7,469.7 489.6,476.2 461.5,476.6 433.4,476.0 405.3,476.4 377.2,477.9 349.1,479.3 321.0,478.8 292.9,478.1 264.8,478.0 236.6,478.9 208.5,480.0 180.4,479.1 152.3,481.1 124.2,482.4 96.1,483.0 68.0,489.7" fill="#006d2c" fill-opacity="0.9" stroke="#fff" stroke-width="0.4"><title>inlining — generateIR</title></polygon>
<polygon points="68.0,482.2 96.1,475.2 124.2,474.5 152.3,472.9 180.4,470.7 208.5,471.5 236.6,470.4 264.8,469.6 292.9,470.4 321.0,471.2 349.1,471.7 377.2,470.0 405.3,468.8 433.4,467.9 461.5,468.9 489.6,468.5 517.7,452.2 545.8,452.3 573.9,452.2 602.1,450.8 630.2,478.9 658.3,476.6 686.4,475.1 714.5,475.1 742.6,475.4 770.7,473.9 798.8,472.3 826.9,472.1 855.0,471.9 883.1,472.4 911.2,472.2 939.4,472.5 967.5,471.6 995.6,472.2 1023.7,474.4 1051.8,473.9 1079.9,473.5 1108.0,471.7 1108.0,472.3 1079.9,473.8 1051.8,474.2 1023.7,474.8 995.6,472.4 967.5,472.2 939.4,472.8 911.2,472.4 883.1,472.9 855.0,472.2 826.9,472.3 798.8,472.8 770.7,473.9 742.6,475.8 714.5,475.3 686.4,475.4 658.3,476.9 630.2,479.3 602.1,451.7 573.9,452.2 545.8,452.5 517.7,452.4 489.6,468.8 461.5,469.1 433.4,468.1 405.3,469.0 377.2,470.4 349.1,471.9 321.0,471.5 292.9,470.5 264.8,469.9 236.6,470.8 208.5,471.7 180.4,470.9 152.3,473.3 124.2,474.5 96.1,475.6 68.0,482.3" fill="#74c476" fill-opacity="0.9" stroke="#fff" stroke-width="0.4"><title>inlining — frontEndExecute (self)</title></polygon>
<polygon points="68.0,478.8 96.1,471.8 124.2,471.1 152.3,469.6 180.4,467.2 208.5,467.8 236.6,466.8 264.8,465.9 292.9,466.8 321.0,467.7 349.1,466.9 377.2,465.2 405.3,464.0 433.4,463.0 461.5,464.1 489.6,463.5 517.7,432.2 545.8,432.4 573.9,432.1 602.1,430.9 630.2,464.9 658.3,462.7 686.4,459.7 714.5,459.6 742.6,459.9 770.7,458.7 798.8,457.1 826.9,456.7 855.0,456.6 883.1,455.9 911.2,455.5 939.4,455.7 967.5,455.1 995.6,455.8 1023.7,459.9 1051.8,459.1 1079.9,459.0 1108.0,456.8 1108.0,471.7 1079.9,473.5 1051.8,473.9 1023.7,474.4 995.6,472.2 967.5,471.6 939.4,472.5 911.2,472.2 883.1,472.4 855.0,471.9 826.9,472.1 798.8,472.3 770.7,473.9 742.6,475.4 714.5,475.1 686.4,475.1 658.3,476.6 630.2,478.9 602.1,450.8 573.9,452.2 545.8,452.3 517.7,452.2 489.6,468.5 461.5,468.9 433.4,467.9 405.3,468.8 377.2,470.0 349.1,471.7 321.0,471.2 292.9,470.4 264.8,469.6 236.6,470.4 208.5,471.5 180.4,470.7 152.3,472.9 124.2,474.5 96.1,475.2 68.0,482.2" fill="#6baed6" fill-opacity="0.9" stroke="#fff" stroke-width="0.4"><title>inlining — specializeModule</title></polygon>
<polygon points="68.0,470.6 96.1,463.8 124.2,462.7 152.3,460.3 180.4,457.7 208.5,458.1 236.6,457.4 264.8,456.3 292.9,457.7 321.0,458.8 349.1,458.5 377.2,456.7 405.3,455.5 433.4,454.5 461.5,455.6 489.6,454.9 517.7,142.0 545.8,137.7 573.9,142.3 602.1,146.2 630.2,189.7 658.3,190.1 686.4,172.8 714.5,171.4 742.6,168.6 770.7,166.1 798.8,176.5 826.9,171.0 855.0,174.7 883.1,171.1 911.2,172.7 939.4,169.2 967.5,173.0 995.6,172.0 1023.7,446.3 1051.8,445.4 1079.9,445.4 1108.0,443.0 1108.0,456.8 1079.9,459.0 1051.8,459.1 1023.7,459.9 995.6,455.8 967.5,455.1 939.4,455.7 911.2,455.5 883.1,455.9 855.0,456.6 826.9,456.7 798.8,457.1 770.7,458.7 742.6,459.9 714.5,459.6 686.4,459.7 658.3,462.7 630.2,464.9 602.1,430.9 573.9,432.1 545.8,432.4 517.7,432.2 489.6,463.5 461.5,464.1 433.4,463.0 405.3,464.0 377.2,465.2 349.1,466.9 321.0,467.7 292.9,466.8 264.8,465.9 236.6,466.8 208.5,467.8 180.4,467.2 152.3,469.6 124.2,471.1 96.1,471.8 68.0,478.8" fill="#2171b5" fill-opacity="0.9" stroke="#fff" stroke-width="0.4"><title>inlining — simplifyIR</title></polygon>
<polygon points="68.0,468.8 96.1,462.3 124.2,461.0 152.3,458.4 180.4,455.4 208.5,456.0 236.6,455.5 264.8,454.1 292.9,455.9 321.0,457.2 349.1,456.9 377.2,455.1 405.3,453.8 433.4,452.8 461.5,453.9 489.6,453.3 517.7,131.2 545.8,127.0 573.9,131.2 602.1,135.4 630.2,188.2 658.3,188.6 686.4,171.2 714.5,169.8 742.6,167.0 770.7,164.5 798.8,174.9 826.9,169.4 855.0,173.1 883.1,169.6 911.2,171.3 939.4,167.8 967.5,171.5 995.6,170.6 1023.7,444.8 1051.8,444.0 1079.9,444.0 1108.0,441.5 1108.0,443.0 1079.9,445.4 1051.8,445.4 1023.7,446.3 995.6,172.0 967.5,173.0 939.4,169.2 911.2,172.7 883.1,171.1 855.0,174.7 826.9,171.0 798.8,176.5 770.7,166.1 742.6,168.6 714.5,171.4 686.4,172.8 658.3,190.1 630.2,189.7 602.1,146.2 573.9,142.3 545.8,137.7 517.7,142.0 489.6,454.9 461.5,455.6 433.4,454.5 405.3,455.5 377.2,456.7 349.1,458.5 321.0,458.8 292.9,457.7 264.8,456.3 236.6,457.4 208.5,458.1 180.4,457.7 152.3,460.3 124.2,462.7 96.1,463.8 68.0,470.6" fill="#08306b" fill-opacity="0.9" stroke="#fff" stroke-width="0.4"><title>inlining — linkIR</title></polygon>
<polygon points="68.0,468.7 96.1,462.2 124.2,460.9 152.3,458.2 180.4,455.3 208.5,455.9 236.6,455.3 264.8,453.9 292.9,455.7 321.0,457.1 349.1,456.7 377.2,454.9 405.3,453.7 433.4,452.7 461.5,453.8 489.6,453.1 517.7,131.1 545.8,126.9 573.9,131.2 602.1,135.3 630.2,188.2 658.3,188.5 686.4,171.2 714.5,169.7 742.6,166.9 770.7,164.5 798.8,174.8 826.9,169.3 855.0,173.0 883.1,169.4 911.2,171.1 939.4,167.6 967.5,171.4 995.6,170.4 1023.7,444.7 1051.8,443.8 1079.9,443.8 1108.0,441.4 1108.0,441.5 1079.9,444.0 1051.8,444.0 1023.7,444.8 995.6,170.6 967.5,171.5 939.4,167.8 911.2,171.3 883.1,169.6 855.0,173.1 826.9,169.4 798.8,174.9 770.7,164.5 742.6,167.0 714.5,169.8 686.4,171.2 658.3,188.6 630.2,188.2 602.1,135.4 573.9,131.2 545.8,127.0 517.7,131.2 489.6,453.3 461.5,453.9 433.4,452.8 405.3,453.8 377.2,455.1 349.1,456.9 321.0,457.2 292.9,455.9 264.8,454.1 236.6,455.5 208.5,456.0 180.4,455.4 152.3,458.4 124.2,461.0 96.1,462.3 68.0,468.8" fill="#9e9ac8" fill-opacity="0.9" stroke="#fff" stroke-width="0.4"><title>inlining — unrollLoopsInModule</title></polygon>
<polygon points="68.0,465.5 96.1,459.1 124.2,457.7 152.3,455.0 180.4,454.1 208.5,454.6 236.6,454.0 264.8,452.7 292.9,454.5 321.0,455.9 349.1,455.6 377.2,453.8 405.3,452.5 433.4,451.5 461.5,452.6 489.6,452.0 517.7,129.8 545.8,125.7 573.9,129.9 602.1,134.1 630.2,187.0 658.3,187.3 686.4,169.8 714.5,168.5 742.6,165.5 770.7,163.1 798.8,173.5 826.9,168.0 855.0,171.7 883.1,168.2 911.2,169.9 939.4,166.4 967.5,170.1 995.6,169.2 1023.7,443.5 1051.8,443.6 1079.9,443.5 1108.0,441.1 1108.0,441.4 1079.9,443.8 1051.8,443.8 1023.7,444.7 995.6,170.4 967.5,171.4 939.4,167.6 911.2,171.1 883.1,169.4 855.0,173.0 826.9,169.3 798.8,174.8 770.7,164.5 742.6,166.9 714.5,169.7 686.4,171.2 658.3,188.5 630.2,188.2 602.1,135.3 573.9,131.2 545.8,126.9 517.7,131.1 489.6,453.1 461.5,453.8 433.4,452.7 405.3,453.7 377.2,454.9 349.1,456.7 321.0,457.1 292.9,455.7 264.8,453.9 236.6,455.3 208.5,455.9 180.4,455.3 152.3,458.2 124.2,460.9 96.1,462.2 68.0,468.7" fill="#807dba" fill-opacity="0.9" stroke="#fff" stroke-width="0.4"><title>inlining — legalizeResourceTypes</title></polygon>
<polygon points="68.0,462.3 96.1,456.0 124.2,454.5 152.3,451.7 180.4,452.8 208.5,453.4 236.6,452.7 264.8,451.4 292.9,453.3 321.0,454.8 349.1,454.4 377.2,452.6 405.3,451.3 433.4,450.2 461.5,451.4 489.6,450.8 517.7,128.6 545.8,124.4 573.9,128.7 602.1,132.9 630.2,185.8 658.3,186.0 686.4,168.5 714.5,167.1 742.6,164.1 770.7,161.8 798.8,172.3 826.9,166.6 855.0,170.3 883.1,166.9 911.2,168.6 939.4,165.1 967.5,168.8 995.6,167.9 1023.7,442.2 1051.8,443.3 1079.9,443.2 1108.0,440.8 1108.0,441.1 1079.9,443.5 1051.8,443.6 1023.7,443.5 995.6,169.2 967.5,170.1 939.4,166.4 911.2,169.9 883.1,168.2 855.0,171.7 826.9,168.0 798.8,173.5 770.7,163.1 742.6,165.5 714.5,168.5 686.4,169.8 658.3,187.3 630.2,187.0 602.1,134.1 573.9,129.9 545.8,125.7 517.7,129.8 489.6,452.0 461.5,452.6 433.4,451.5 405.3,452.5 377.2,453.8 349.1,455.6 321.0,455.9 292.9,454.5 264.8,452.7 236.6,454.0 208.5,454.6 180.4,454.1 152.3,455.0 124.2,457.7 96.1,459.1 68.0,465.5" fill="#6a51a3" fill-opacity="0.9" stroke="#fff" stroke-width="0.4"><title>inlining — legalizeExistentialTypeLayout</title></polygon>
<polygon points="68.0,461.8 96.1,455.4 124.2,454.0 152.3,451.1 180.4,452.1 208.5,452.8 236.6,452.1 264.8,450.8 292.9,452.7 321.0,454.2 349.1,453.9 377.2,452.0 405.3,450.8 433.4,449.7 461.5,450.9 489.6,450.2 517.7,128.1 545.8,123.9 573.9,128.2 602.1,132.4 630.2,185.3 658.3,185.5 686.4,168.0 714.5,166.6 742.6,163.6 770.7,161.3 798.8,171.8 826.9,166.0 855.0,169.8 883.1,166.2 911.2,168.0 939.4,164.5 967.5,168.2 995.6,167.3 1023.7,441.6 1051.8,442.6 1079.9,442.6 1108.0,440.2 1108.0,440.8 1079.9,443.2 1051.8,443.3 1023.7,442.2 995.6,167.9 967.5,168.8 939.4,165.1 911.2,168.6 883.1,166.9 855.0,170.3 826.9,166.6 798.8,172.3 770.7,161.8 742.6,164.1 714.5,167.1 686.4,168.5 658.3,186.0 630.2,185.8 602.1,132.9 573.9,128.7 545.8,124.4 517.7,128.6 489.6,450.8 461.5,451.4 433.4,450.2 405.3,451.3 377.2,452.6 349.1,454.4 321.0,454.8 292.9,453.3 264.8,451.4 236.6,452.7 208.5,453.4 180.4,452.8 152.3,451.7 124.2,454.5 96.1,456.0 68.0,462.3" fill="#bcbddc" fill-opacity="0.9" stroke="#fff" stroke-width="0.4"><title>inlining — performMandatoryEarlyInlining</title></polygon>
<polygon points="68.0,460.4 96.1,454.1 124.2,452.6 152.3,449.4 180.4,450.3 208.5,451.0 236.6,450.3 264.8,449.1 292.9,451.0 321.0,452.6 349.1,452.3 377.2,450.4 405.3,449.2 433.4,448.1 461.5,449.3 489.6,448.6 517.7,126.3 545.8,122.1 573.9,126.4 602.1,130.7 630.2,183.6 658.3,183.8 686.4,166.1 714.5,164.7 742.6,161.7 770.7,159.5 798.8,170.0 826.9,164.3 855.0,168.1 883.1,164.3 911.2,166.0 939.4,162.6 967.5,166.3 995.6,165.4 1023.7,439.9 1051.8,440.8 1079.9,440.9 1108.0,438.3 1108.0,440.2 1079.9,442.6 1051.8,442.6 1023.7,441.6 995.6,167.3 967.5,168.2 939.4,164.5 911.2,168.0 883.1,166.2 855.0,169.8 826.9,166.0 798.8,171.8 770.7,161.3 742.6,163.6 714.5,166.6 686.4,168.0 658.3,185.5 630.2,185.3 602.1,132.4 573.9,128.2 545.8,123.9 517.7,128.1 489.6,450.2 461.5,450.9 433.4,449.7 405.3,450.8 377.2,452.0 349.1,453.9 321.0,454.2 292.9,452.7 264.8,450.8 236.6,452.1 208.5,452.8 180.4,452.1 152.3,451.1 124.2,454.0 96.1,455.4 68.0,461.8" fill="#dadaeb" fill-opacity="0.9" stroke="#fff" stroke-width="0.4"><title>inlining — performForceInlining</title></polygon>
<polygon points="68.0,455.5 96.1,449.1 124.2,447.5 152.3,443.9 180.4,444.6 208.5,445.6 236.6,444.7 264.8,443.5 292.9,445.7 321.0,447.4 349.1,446.9 377.2,444.8 405.3,443.6 433.4,442.5 461.5,443.8 489.6,443.1 517.7,115.1 545.8,110.4 573.9,113.8 602.1,119.5 630.2,175.3 658.3,175.9 686.4,155.1 714.5,155.2 742.6,152.4 770.7,150.4 798.8,160.2 826.9,154.4 855.0,158.3 883.1,155.9 911.2,156.6 939.4,153.2 967.5,157.1 995.6,156.6 1023.7,434.2 1051.8,435.4 1079.9,435.3 1108.0,432.6 1108.0,438.3 1079.9,440.9 1051.8,440.8 1023.7,439.9 995.6,165.4 967.5,166.3 939.4,162.6 911.2,166.0 883.1,164.3 855.0,168.1 826.9,164.3 798.8,170.0 770.7,159.5 742.6,161.7 714.5,164.7 686.4,166.1 658.3,183.8 630.2,183.6 602.1,130.7 573.9,126.4 545.8,122.1 517.7,126.3 489.6,448.6 461.5,449.3 433.4,448.1 405.3,449.2 377.2,450.4 349.1,452.3 321.0,452.6 292.9,451.0 264.8,449.1 236.6,450.3 208.5,451.0 180.4,450.3 152.3,449.4 124.2,452.6 96.1,454.1 68.0,460.4" fill="#4a1486" fill-opacity="0.9" stroke="#fff" stroke-width="0.4"><title>inlining — linkAndOptimizeIR (self)</title></polygon>
<polygon points="68.0,453.3 96.1,446.9 124.2,445.3 152.3,441.7 180.4,442.5 208.5,443.8 236.6,442.6 264.8,441.6 292.9,443.7 321.0,445.6 349.1,444.9 377.2,443.1 405.3,441.6 433.4,440.5 461.5,441.5 489.6,441.2 517.7,114.2 545.8,108.6 573.9,111.4 602.1,117.3 630.2,173.1 658.3,174.2 686.4,152.6 714.5,153.2 742.6,149.9 770.7,148.5 798.8,158.8 826.9,152.6 855.0,156.2 883.1,154.2 911.2,154.5 939.4,151.1 967.5,155.0 995.6,154.5 1023.7,432.1 1051.8,433.5 1079.9,433.4 1108.0,430.8 1108.0,432.6 1079.9,435.3 1051.8,435.4 1023.7,434.2 995.6,156.6 967.5,157.1 939.4,153.2 911.2,156.6 883.1,155.9 855.0,158.3 826.9,154.4 798.8,160.2 770.7,150.4 742.6,152.4 714.5,155.2 686.4,155.1 658.3,175.9 630.2,175.3 602.1,119.5 573.9,113.8 545.8,110.4 517.7,115.1 489.6,443.1 461.5,443.8 433.4,442.5 405.3,443.6 377.2,444.8 349.1,446.9 321.0,447.4 292.9,445.7 264.8,443.5 236.6,444.7 208.5,445.6 180.4,444.6 152.3,443.9 124.2,447.5 96.1,449.1 68.0,455.5" fill="#e6550d" fill-opacity="0.9" stroke="#fff" stroke-width="0.4"><title>inlining — generateOutput (self)</title></polygon>
<polygon points="68.0,453.3 96.1,446.4 124.2,445.3 152.3,441.6 180.4,442.3 208.5,442.7 236.6,442.0 264.8,441.6 292.9,443.5 321.0,445.4 349.1,444.7 377.2,442.8 405.3,441.5 433.4,439.9 461.5,441.3 489.6,441.2 517.7,114.2 545.8,108.6 573.9,110.9 602.1,116.5 630.2,172.9 658.3,174.2 686.4,152.3 714.5,152.7 742.6,149.3 770.7,148.5 798.8,158.8 826.9,152.6 855.0,156.1 883.1,154.2 911.2,152.8 939.4,151.1 967.5,154.9 995.6,154.4 1023.7,432.0 1051.8,433.2 1079.9,433.2 1108.0,430.7 1108.0,430.8 1079.9,433.4 1051.8,433.5 1023.7,432.1 995.6,154.5 967.5,155.0 939.4,151.1 911.2,154.5 883.1,154.2 855.0,156.2 826.9,152.6 798.8,158.8 770.7,148.5 742.6,149.9 714.5,153.2 686.4,152.6 658.3,174.2 630.2,173.1 602.1,117.3 573.9,111.4 545.8,108.6 517.7,114.2 489.6,441.2 461.5,441.5 433.4,440.5 405.3,441.6 377.2,443.1 349.1,444.9 321.0,445.6 292.9,443.7 264.8,441.6 236.6,442.6 208.5,443.8 180.4,442.5 152.3,441.7 124.2,445.3 96.1,446.9 68.0,453.3" fill="#969696" fill-opacity="0.9" stroke="#fff" stroke-width="0.4"><title>inlining — compileInner (self)</title></polygon>
<text x="12" y="578" fill="#666" font-weight="600">phase buckets</text>
<rect x="12" y="586" width="12" height="12" fill="#c7e9c0"/>
<text x="28" y="596" fill="#222">parseTranslationUnit</text>
<rect x="289" y="586" width="12" height="12" fill="#41ab5d"/>
<text x="305" y="596" fill="#222">SemanticChecking</text>
<rect x="566" y="586" width="12" height="12" fill="#006d2c"/>
<text x="582" y="596" fill="#222">generateIR</text>
<rect x="843" y="586" width="12" height="12" fill="#74c476"/>
<text x="859" y="596" fill="#222">frontEndExecute (self)</text>
<rect x="12" y="604" width="12" height="12" fill="#6baed6"/>
<text x="28" y="614" fill="#222">specializeModule</text>
<rect x="289" y="604" width="12" height="12" fill="#2171b5"/>
<text x="305" y="614" fill="#222">simplifyIR</text>
<rect x="566" y="604" width="12" height="12" fill="#08306b"/>
<text x="582" y="614" fill="#222">linkIR</text>
<rect x="843" y="604" width="12" height="12" fill="#9e9ac8"/>
<text x="859" y="614" fill="#222">unrollLoopsInModule</text>
<rect x="12" y="622" width="12" height="12" fill="#807dba"/>
<text x="28" y="632" fill="#222">legalizeResourceTypes</text>
<rect x="289" y="622" width="12" height="12" fill="#6a51a3"/>
<text x="305" y="632" fill="#222">legalizeExistentialTypeLayout</text>
<rect x="566" y="622" width="12" height="12" fill="#bcbddc"/>
<text x="582" y="632" fill="#222">performMandatoryEarlyInlining</text>
<rect x="843" y="622" width="12" height="12" fill="#dadaeb"/>
<text x="859" y="632" fill="#222">performForceInlining</text>
<rect x="12" y="640" width="12" height="12" fill="#4a1486"/>
<text x="28" y="650" fill="#222">linkAndOptimizeIR (self)</text>
<rect x="289" y="640" width="12" height="12" fill="#fd8d3c"/>
<text x="305" y="650" fill="#222">emitEntryPointsSourceFromIR</text>
<rect x="566" y="640" width="12" height="12" fill="#e6550d"/>
<text x="582" y="650" fill="#222">generateOutput (self)</text>
<rect x="843" y="640" width="12" height="12" fill="#969696"/>
<text x="859" y="650" fill="#222">compileInner (self)</text>
</svg>