<svg xmlns="http://www.w3.org/2000/svg" xmlns:xlink="http://www.w3.org/1999/xlink" width="1132" height="680" viewBox="0 0 1132 680" preserveAspectRatio="xMidYMid meet" font-family="sans-serif" font-size="13">
<rect width="1132" height="680" fill="white"/>
<text x="12" y="30" font-size="20" font-weight="bold">interface_depth — Across releases (median ms)</text>
<text x="68" y="60" font-size="15" font-weight="600" fill="#1a1a1a">interface_depth<tspan fill="#888" font-weight="400" text-decoration="none">  4.75×</tspan></text>
<line x1="68.0" y1="516.0" x2="1108.0" y2="516.0" stroke="#eee"/>
<text x="64.0" y="519.0" text-anchor="end" fill="#999">0.0</text>
<line x1="68.0" y1="296.0" x2="1108.0" y2="296.0" stroke="#eee"/>
<text x="64.0" y="299.0" text-anchor="end" fill="#999">26</text>
<line x1="68.0" y1="76.0" x2="1108.0" y2="76.0" stroke="#eee"/>
<text x="64.0" y="79.0" text-anchor="end" fill="#999">51</text>
<line x1="68.0" y1="76.0" x2="68.0" y2="516.0" stroke="#333"/>
<line x1="68.0" y1="516.0" x2="1108.0" y2="516.0" stroke="#333"/>
<line x1="68.0" y1="516.0" x2="68.0" y2="519.0" stroke="#999"/>
<text x="68.0" y="531.0" text-anchor="end" fill="#666" transform="rotate(-50 68.0 531.0)">25.12</text>
<line x1="108.0" y1="516.0" x2="108.0" y2="519.0" stroke="#999"/>
<text x="108.0" y="531.0" text-anchor="end" fill="#666" transform="rotate(-50 108.0 531.0)">25.13</text>
<line x1="148.0" y1="516.0" x2="148.0" y2="519.0" stroke="#999"/>
<text x="148.0" y="531.0" text-anchor="end" fill="#666" transform="rotate(-50 148.0 531.0)">25.14</text>
<line x1="188.0" y1="516.0" x2="188.0" y2="519.0" stroke="#999"/>
<text x="188.0" y="531.0" text-anchor="end" fill="#666" transform="rotate(-50 188.0 531.0)">25.15</text>
<line x1="228.0" y1="516.0" x2="228.0" y2="519.0" stroke="#999"/>
<text x="228.0" y="531.0" text-anchor="end" fill="#666" transform="rotate(-50 228.0 531.0)">25.16</text>
<line x1="268.0" y1="516.0" x2="268.0" y2="519.0" stroke="#999"/>
<text x="268.0" y="531.0" text-anchor="end" fill="#666" transform="rotate(-50 268.0 531.0)">25.17</text>
<line x1="308.0" y1="516.0" x2="308.0" y2="519.0" stroke="#999"/>
<text x="308.0" y="531.0" text-anchor="end" fill="#666" transform="rotate(-50 308.0 531.0)">25.18</text>
<line x1="348.0" y1="516.0" x2="348.0" y2="519.0" stroke="#999"/>
<text x="348.0" y="531.0" text-anchor="end" fill="#666" transform="rotate(-50 348.0 531.0)">25.19</text>
<line x1="388.0" y1="516.0" x2="388.0" y2="519.0" stroke="#999"/>
<text x="388.0" y="531.0" text-anchor="end" fill="#666" transform="rotate(-50 388.0 531.0)">25.20</text>
<line x1="428.0" y1="516.0" x2="428.0" y2="519.0" stroke="#999"/>
<text x="428.0" y="531.0" text-anchor="end" fill="#666" transform="rotate(-50 428.0 531.0)">25.21</text>
<line x1="468.0" y1="516.0" x2="468.0" y2="519.0" stroke="#999"/>
<text x="468.0" y="531.0" text-anchor="end" fill="#666" transform="rotate(-50 468.0 531.0)">25.22</text>
<line x1="508.0" y1="516.0" x2="508.0" y2="519.0" stroke="#999"/>
<text x="508.0" y="531.0" text-anchor="end" fill="#666" transform="rotate(-50 508.0 531.0)">25.23</text>
<line x1="548.0" y1="516.0" x2="548.0" y2="519.0" stroke="#999"/>
<text x="548.0" y="531.0" text-anchor="end" fill="#666" transform="rotate(-50 548.0 531.0)">25.24</text>
<line x1="588.0" y1="516.0" x2="588.0" y2="519.0" stroke="#999"/>
<text x="588.0" y="531.0" text-anchor="end" fill="#666" transform="rotate(-50 588.0 531.0)">26.1</text>
<line x1="628.0" y1="516.0" x2="628.0" y2="519.0" stroke="#999"/>
<text x="628.0" y="531.0" text-anchor="end" fill="#666" transform="rotate(-50 628.0 531.0)">26.2</text>
<line x1="668.0" y1="516.0" x2="668.0" y2="519.0" stroke="#999"/>
<text x="668.0" y="531.0" text-anchor="end" fill="#666" transform="rotate(-50 668.0 531.0)">26.3</text>
<line x1="708.0" y1="516.0" x2="708.0" y2="519.0" stroke="#999"/>
<text x="708.0" y="531.0" text-anchor="end" fill="#666" transform="rotate(-50 708.0 531.0)">26.4</text>
<line x1="748.0" y1="516.0" x2="748.0" y2="519.0" stroke="#999"/>
<text x="748.0" y="531.0" text-anchor="end" fill="#666" transform="rotate(-50 748.0 531.0)">26.5</text>
<line x1="788.0" y1="516.0" x2="788.0" y2="519.0" stroke="#999"/>
<text x="788.0" y="531.0" text-anchor="end" fill="#666" transform="rotate(-50 788.0 531.0)">26.7</text>
<line x1="828.0" y1="516.0" x2="828.0" y2="519.0" stroke="#999"/>
<text x="828.0" y="531.0" text-anchor="end" fill="#666" transform="rotate(-50 828.0 531.0)">26.8</text>
<line x1="868.0" y1="516.0" x2="868.0" y2="519.0" stroke="#999"/>
<text x="868.0" y="531.0" text-anchor="end" fill="#666" transform="rotate(-50 868.0 531.0)">26.9</text>
<line x1="908.0" y1="516.0" x2="908.0" y2="519.0" stroke="#999"/>
<text x="908.0" y="531.0" text-anchor="end" fill="#666" transform="rotate(-50 908.0 531.0)">26.10</text>
<line x1="948.0" y1="516.0" x2="948.0" y2="519.0" stroke="#999"/>
<text x="948.0" y="531.0" text-anchor="end" fill="#666" transform="rotate(-50 948.0 531.0)">26.11</text>
<line x1="988.0" y1="516.0" x2="988.0" y2="519.0" stroke="#999"/>
<text x="988.0" y="531.0" text-anchor="end" fill="#666" transform="rotate(-50 988.0 531.0)">26.12</text>
<line x1="1028.0" y1="516.0" x2="1028.0" y2="519.0" stroke="#999"/>
<text x="1028.0" y="531.0" text-anchor="end" fill="#666" transform="rotate(-50 1028.0 531.0)">26.13</text>
<line x1="1068.0" y1="516.0" x2="1068.0" y2="519.0" stroke="#999"/>
<text x="1068.0" y="531.0" text-anchor="end" fill="#666" transform="rotate(-50 1068.0 531.0)">26.13.1</text>
<line x1="1108.0" y1="516.0" x2="1108.0" y2="519.0" stroke="#999"/>
<text x="1108.0" y="531.0" text-anchor="end" fill="#666" transform="rotate(-50 1108.0 531.0)">26.14</text>
<polygon points="68.0,516.0 108.0,506.7 148.0,512.1 188.0,513.3 228.0,513.7 268.0,513.5 308.0,513.6 348.0,513.5 388.0,513.4 428.0,513.4 468.0,513.5 508.0,513.6 548.0,513.2 588.0,513.2 628.0,513.3 668.0,513.1 708.0,512.7 748.0,513.3 788.0,512.7 828.0,513.0 868.0,513.1 908.0,512.7 948.0,512.5 988.0,512.7 1028.0,513.1 1068.0,513.1 1108.0,513.8 1108.0,516.0 1068.0,516.0 1028.0,516.0 988.0,516.0 948.0,516.0 908.0,516.0 868.0,516.0 828.0,516.0 788.0,516.0 748.0,516.0 708.0,516.0 668.0,516.0 628.0,516.0 588.0,516.0 548.0,516.0 508.0,516.0 468.0,516.0 428.0,516.0 388.0,516.0 348.0,516.0 308.0,516.0 268.0,516.0 228.0,516.0 188.0,516.0 148.0,516.0 108.0,516.0 68.0,516.0" fill="#c7e9c0" fill-opacity="0.9" stroke="#fff" stroke-width="0.4"><title>interface_depth — parseTranslationUnit</title></polygon>
<polygon points="68.0,473.1 108.0,454.1 148.0,454.6 188.0,450.8 228.0,452.3 268.0,451.4 308.0,448.7 348.0,446.4 388.0,449.3 428.0,449.2 468.0,453.5 508.0,453.1 548.0,452.9 588.0,451.2 628.0,452.0 668.0,448.9 708.0,447.0 748.0,456.7 788.0,237.5 828.0,259.1 868.0,255.7 908.0,231.0 948.0,254.4 988.0,267.3 1028.0,272.5 1068.0,272.8 1108.0,151.8 1108.0,513.8 1068.0,513.1 1028.0,513.1 988.0,512.7 948.0,512.5 908.0,512.7 868.0,513.1 828.0,513.0 788.0,512.7 748.0,513.3 708.0,512.7 668.0,513.1 628.0,513.3 588.0,513.2 548.0,513.2 508.0,513.6 468.0,513.5 428.0,513.4 388.0,513.4 348.0,513.5 308.0,513.6 268.0,513.5 228.0,513.7 188.0,513.3 148.0,512.1 108.0,506.7 68.0,516.0" fill="#41ab5d" fill-opacity="0.9" stroke="#fff" stroke-width="0.4"><title>interface_depth — SemanticChecking</title></polygon>
<polygon points="68.0,456.0 108.0,431.7 148.0,431.5 188.0,428.8 228.0,430.3 268.0,429.0 308.0,426.0 348.0,424.0 388.0,426.3 428.0,425.3 468.0,430.4 508.0,430.0 548.0,429.8 588.0,427.3 628.0,428.2 668.0,425.3 708.0,421.8 748.0,433.5 788.0,209.8 828.0,233.5 868.0,230.2 908.0,204.4 948.0,213.3 988.0,241.1 1028.0,246.5 1068.0,247.0 1108.0,124.4 1108.0,151.8 1068.0,272.8 1028.0,272.5 988.0,267.3 948.0,254.4 908.0,231.0 868.0,255.7 828.0,259.1 788.0,237.5 748.0,456.7 708.0,447.0 668.0,448.9 628.0,452.0 588.0,451.2 548.0,452.9 508.0,453.1 468.0,453.5 428.0,449.2 388.0,449.3 348.0,446.4 308.0,448.7 268.0,451.4 228.0,452.3 188.0,450.8 148.0,454.6 108.0,454.1 68.0,473.1" fill="#006d2c" fill-opacity="0.9" stroke="#fff" stroke-width="0.4"><title>interface_depth — generateIR</title></polygon>
<polygon points="68.0,447.4 108.0,430.9 148.0,429.3 188.0,426.8 228.0,429.5 268.0,427.9 308.0,425.4 348.0,421.6 388.0,425.5 428.0,420.6 468.0,426.7 508.0,430.0 548.0,428.6 588.0,426.7 628.0,427.3 668.0,424.6 708.0,421.8 748.0,432.4 788.0,208.2 828.0,232.1 868.0,229.4 908.0,203.6 948.0,210.0 988.0,239.7 1028.0,245.8 1068.0,246.3 1108.0,124.4 1108.0,124.4 1068.0,247.0 1028.0,246.5 988.0,241.1 948.0,213.3 908.0,204.4 868.0,230.2 828.0,233.5 788.0,209.8 748.0,433.5 708.0,421.8 668.0,425.3 628.0,428.2 588.0,427.3 548.0,429.8 508.0,430.0 468.0,430.4 428.0,425.3 388.0,426.3 348.0,424.0 308.0,426.0 268.0,429.0 228.0,430.3 188.0,428.8 148.0,431.5 108.0,431.7 68.0,456.0" fill="#74c476" fill-opacity="0.9" stroke="#fff" stroke-width="0.4"><title>interface_depth — frontEndExecute (self)</title></polygon>
<polygon points="68.0,438.8 108.0,414.4 148.0,412.8 188.0,410.9 228.0,413.4 268.0,410.7 308.0,408.0 348.0,404.9 388.0,408.1 428.0,403.2 468.0,408.0 508.0,411.5 548.0,409.0 588.0,406.2 628.0,408.2 668.0,403.9 708.0,400.8 748.0,413.1 788.0,187.8 828.0,212.0 868.0,209.8 908.0,182.0 948.0,187.4 988.0,220.5 1028.0,225.8 1068.0,225.9 1108.0,108.6 1108.0,124.4 1068.0,246.3 1028.0,245.8 988.0,239.7 948.0,210.0 908.0,203.6 868.0,229.4 828.0,232.1 788.0,208.2 748.0,432.4 708.0,421.8 668.0,424.6 628.0,427.3 588.0,426.7 548.0,428.6 508.0,430.0 468.0,426.7 428.0,420.6 388.0,425.5 348.0,421.6 308.0,425.4 268.0,427.9 228.0,429.5 188.0,426.8 148.0,429.3 108.0,430.9 68.0,447.4" fill="#e6550d" fill-opacity="0.9" stroke="#fff" stroke-width="0.4"><title>interface_depth — generateOutput (self)</title></polygon>
<polygon points="68.0,430.3 108.0,414.4 148.0,412.8 188.0,410.3 228.0,413.4 268.0,410.7 308.0,408.0 348.0,404.4 388.0,408.1 428.0,403.2 468.0,408.0 508.0,411.5 548.0,409.0 588.0,406.2 628.0,407.0 668.0,403.9 708.0,400.0 748.0,413.1 788.0,185.6 828.0,212.0 868.0,209.8 908.0,182.0 948.0,186.4 988.0,219.7 1028.0,224.7 1068.0,225.9 1108.0,108.6 1108.0,108.6 1068.0,225.9 1028.0,225.8 988.0,220.5 948.0,187.4 908.0,182.0 868.0,209.8 828.0,212.0 788.0,187.8 748.0,413.1 708.0,400.8 668.0,403.9 628.0,408.2 588.0,406.2 548.0,409.0 508.0,411.5 468.0,408.0 428.0,403.2 388.0,408.1 348.0,404.9 308.0,408.0 268.0,410.7 228.0,413.4 188.0,410.9 148.0,412.8 108.0,414.4 68.0,438.8" fill="#969696" fill-opacity="0.9" stroke="#fff" stroke-width="0.4"><title>interface_depth — compileInner (self)</title></polygon>
<text x="12" y="578" fill="#666" font-weight="600">phase buckets</text>
<rect x="12" y="586" width="12" height="12" fill="#c7e9c0"/>
<text x="28" y="596" fill="#222">parseTranslationUnit</text>
<rect x="289" y="586" width="12" height="12" fill="#41ab5d"/>
<text x="305" y="596" fill="#222">SemanticChecking</text>
<rect x="566" y="586" width="12" height="12" fill="#006d2c"/>
<text x="582" y="596" fill="#222">generateIR</text>
<rect x="843" y="586" width="12" height="12" fill="#74c476"/>
<text x="859" y="596" fill="#222">frontEndExecute (self)</text>
<rect x="12" y="604" width="12" height="12" fill="#6baed6"/>
<text x="28" y="614" fill="#222">specializeModule</text>
<rect x="289" y="604" width="12" height="12" fill="#2171b5"/>
<text x="305" y="614" fill="#222">simplifyIR</text>
<rect x="566" y="604" width="12" height="12" fill="#08306b"/>
<text x="582" y="614" fill="#222">linkIR</text>
<rect x="843" y="604" width="12" height="12" fill="#9e9ac8"/>
<text x="859" y="614" fill="#222">unrollLoopsInModule</text>
<rect x="12" y="622" width="12" height="12" fill="#807dba"/>
<text x="28" y="632" fill="#222">legalizeResourceTypes</text>
<rect x="289" y="622" width="12" height="12" fill="#6a51a3"/>
<text x="305" y="632" fill="#222">legalizeExistentialTypeLayout</text>
<rect x="566" y="622" width="12" height="12" fill="#bcbddc"/>
<text x="582" y="632" fill="#222">performMandatoryEarlyInlining</text>
<rect x="843" y="622" width="12" height="12" fill="#dadaeb"/>
<text x="859" y="632" fill="#222">performForceInlining</text>
<rect x="12" y="640" width="12" height="12" fill="#4a1486"/>
<text x="28" y="650" fill="#222">linkAndOptimizeIR (self)</text>
<rect x="289" y="640" width="12" height="12" fill="#fd8d3c"/>
<text x="305" y="650" fill="#222">emitEntryPointsSourceFromIR</text>
<rect x="566" y="640" width="12" height="12" fill="#e6550d"/>
<text x="582" y="650" fill="#222">generateOutput (self)</text>
<rect x="843" y="640" width="12" height="12" fill="#969696"/>
<text x="859" y="650" fill="#222">compileInner (self)</text>
</svg>