<svg xmlns="http://www.w3.org/2000/svg" xmlns:xlink="http://www.w3.org/1999/xlink" width="1132" height="680" viewBox="0 0 1132 680" preserveAspectRatio="xMidYMid meet" font-family="sans-serif" font-size="13">
<rect width="1132" height="680" fill="white"/>
<text x="12" y="30" font-size="20" font-weight="bold">interface_depth — Daily tip-of-tree (last 30 days) (median ms)</text>
<text x="68" y="60" font-size="15" font-weight="600" fill="#1a1a1a">interface_depth<tspan fill="#888" font-weight="400" text-decoration="none">  1.34×</tspan></text>
<line x1="68.0" y1="516.0" x2="1108.0" y2="516.0" stroke="#eee"/>
<text x="64.0" y="519.0" text-anchor="end" fill="#999">0.0</text>
<line x1="68.0" y1="296.0" x2="1108.0" y2="296.0" stroke="#eee"/>
<text x="64.0" y="299.0" text-anchor="end" fill="#999">27</text>
<line x1="68.0" y1="76.0" x2="1108.0" y2="76.0" stroke="#eee"/>
<text x="64.0" y="79.0" text-anchor="end" fill="#999">54</text>
<line x1="68.0" y1="76.0" x2="68.0" y2="516.0" stroke="#333"/>
<line x1="68.0" y1="516.0" x2="1108.0" y2="516.0" stroke="#333"/>
<line x1="68.0" y1="516.0" x2="68.0" y2="519.0" stroke="#999"/>
<text x="68.0" y="531.0" text-anchor="end" fill="#e8731a" transform="rotate(-50 68.0 531.0)">06-25</text>
<line x1="113.2" y1="516.0" x2="113.2" y2="519.0" stroke="#999"/>
<text x="113.2" y="531.0" text-anchor="end" fill="#e8731a" transform="rotate(-50 113.2 531.0)">06-26</text>
<line x1="158.4" y1="516.0" x2="158.4" y2="519.0" stroke="#999"/>
<text x="158.4" y="531.0" text-anchor="end" fill="#e8731a" transform="rotate(-50 158.4 531.0)">06-28</text>
<line x1="203.7" y1="516.0" x2="203.7" y2="519.0" stroke="#999"/>
<text x="203.7" y="531.0" text-anchor="end" fill="#e8731a" transform="rotate(-50 203.7 531.0)">07-01</text>
<line x1="248.9" y1="516.0" x2="248.9" y2="519.0" stroke="#999"/>
<text x="248.9" y="531.0" text-anchor="end" fill="#e8731a" transform="rotate(-50 248.9 531.0)">07-02</text>
<line x1="294.1" y1="516.0" x2="294.1" y2="519.0" stroke="#999"/>
<text x="294.1" y="531.0" text-anchor="end" fill="#e8731a" transform="rotate(-50 294.1 531.0)">07-03</text>
<line x1="339.3" y1="516.0" x2="339.3" y2="519.0" stroke="#999"/>
<text x="339.3" y="531.0" text-anchor="end" fill="#e8731a" transform="rotate(-50 339.3 531.0)">07-06</text>
<line x1="384.5" y1="516.0" x2="384.5" y2="519.0" stroke="#999"/>
<text x="384.5" y="531.0" text-anchor="end" fill="#e8731a" transform="rotate(-50 384.5 531.0)">07-07</text>
<line x1="429.7" y1="516.0" x2="429.7" y2="519.0" stroke="#999"/>
<text x="429.7" y="531.0" text-anchor="end" fill="#e8731a" transform="rotate(-50 429.7 531.0)">07-08</text>
<line x1="475.0" y1="516.0" x2="475.0" y2="519.0" stroke="#999"/>
<text x="475.0" y="531.0" text-anchor="end" fill="#e8731a" transform="rotate(-50 475.0 531.0)">07-09</text>
<line x1="520.2" y1="516.0" x2="520.2" y2="519.0" stroke="#999"/>
<text x="520.2" y="531.0" text-anchor="end" fill="#e8731a" transform="rotate(-50 520.2 531.0)">07-10</text>
<line x1="565.4" y1="516.0" x2="565.4" y2="519.0" stroke="#999"/>
<text x="565.4" y="531.0" text-anchor="end" fill="#e8731a" transform="rotate(-50 565.4 531.0)">07-11</text>
<line x1="610.6" y1="516.0" x2="610.6" y2="519.0" stroke="#999"/>
<text x="610.6" y="531.0" text-anchor="end" fill="#e8731a" transform="rotate(-50 610.6 531.0)">07-14</text>
<line x1="655.8" y1="516.0" x2="655.8" y2="519.0" stroke="#999"/>
<text x="655.8" y="531.0" text-anchor="end" fill="#e8731a" transform="rotate(-50 655.8 531.0)">07-15</text>
<line x1="701.0" y1="516.0" x2="701.0" y2="519.0" stroke="#999"/>
<text x="701.0" y="531.0" text-anchor="end" fill="#e8731a" transform="rotate(-50 701.0 531.0)">07-15</text>
<line x1="746.3" y1="516.0" x2="746.3" y2="519.0" stroke="#999"/>
<text x="746.3" y="531.0" text-anchor="end" fill="#e8731a" transform="rotate(-50 746.3 531.0)">07-16</text>
<line x1="791.5" y1="516.0" x2="791.5" y2="519.0" stroke="#999"/>
<text x="791.5" y="531.0" text-anchor="end" fill="#e8731a" transform="rotate(-50 791.5 531.0)">07-17</text>
<line x1="836.7" y1="516.0" x2="836.7" y2="519.0" stroke="#999"/>
<text x="836.7" y="531.0" text-anchor="end" fill="#e8731a" transform="rotate(-50 836.7 531.0)">07-18</text>
<line x1="881.9" y1="516.0" x2="881.9" y2="519.0" stroke="#999"/>
<text x="881.9" y="531.0" text-anchor="end" fill="#e8731a" transform="rotate(-50 881.9 531.0)">07-19</text>
<line x1="927.1" y1="516.0" x2="927.1" y2="519.0" stroke="#999"/>
<text x="927.1" y="531.0" text-anchor="end" fill="#e8731a" transform="rotate(-50 927.1 531.0)">07-20</text>
<line x1="972.3" y1="516.0" x2="972.3" y2="519.0" stroke="#999"/>
<text x="972.3" y="531.0" text-anchor="end" fill="#e8731a" transform="rotate(-50 972.3 531.0)">07-21</text>
<line x1="1017.6" y1="516.0" x2="1017.6" y2="519.0" stroke="#999"/>
<text x="1017.6" y="531.0" text-anchor="end" fill="#e8731a" transform="rotate(-50 1017.6 531.0)">07-22</text>
<line x1="1062.8" y1="516.0" x2="1062.8" y2="519.0" stroke="#999"/>
<text x="1062.8" y="531.0" text-anchor="end" fill="#e8731a" transform="rotate(-50 1062.8 531.0)">07-23</text>
<line x1="1108.0" y1="516.0" x2="1108.0" y2="519.0" stroke="#999"/>
<text x="1108.0" y="531.0" text-anchor="end" fill="#e8731a" transform="rotate(-50 1108.0 531.0)">07-24</text>
<polygon points="565.4,513.2 610.6,513.3 655.8,513.5 701.0,513.6 746.3,513.4 791.5,513.4 836.7,513.8 881.9,513.9 927.1,514.0 972.3,513.9 1017.6,513.9 1062.8,513.9 1108.0,513.7 1108.0,516.0 1062.8,516.0 1017.6,516.0 972.3,516.0 927.1,516.0 881.9,516.0 836.7,516.0 791.5,516.0 746.3,516.0 701.0,516.0 655.8,516.0 610.6,516.0 565.4,516.0" fill="#c7e9c0" fill-opacity="0.9" stroke="#fff" stroke-width="0.4"><title>interface_depth — parseTranslationUnit</title></polygon>
<polygon points="565.4,274.6 610.6,273.8 655.8,277.7 701.0,278.2 746.3,163.6 791.5,157.6 836.7,176.6 881.9,166.5 927.1,169.1 972.3,165.2 1017.6,163.2 1062.8,178.7 1108.0,166.7 1108.0,513.7 1062.8,513.9 1017.6,513.9 972.3,513.9 927.1,514.0 881.9,513.9 836.7,513.8 791.5,513.4 746.3,513.4 701.0,513.6 655.8,513.5 610.6,513.3 565.4,513.2" fill="#41ab5d" fill-opacity="0.9" stroke="#fff" stroke-width="0.4"><title>interface_depth — SemanticChecking</title></polygon>
<polygon points="565.4,245.1 610.6,244.5 655.8,249.5 701.0,250.4 746.3,135.4 791.5,128.1 836.7,150.4 881.9,140.3 927.1,142.8 972.3,138.3 1017.6,136.7 1062.8,152.7 1108.0,140.5 1108.0,166.7 1062.8,178.7 1017.6,163.2 972.3,165.2 927.1,169.1 881.9,166.5 836.7,176.6 791.5,157.6 746.3,163.6 701.0,278.2 655.8,277.7 610.6,273.8 565.4,274.6" fill="#006d2c" fill-opacity="0.9" stroke="#fff" stroke-width="0.4"><title>interface_depth — generateIR</title></polygon>
<polygon points="565.4,244.2 610.6,242.3 655.8,248.9 701.0,249.1 746.3,133.9 791.5,127.6 836.7,148.8 881.9,139.2 927.1,142.8 972.3,137.1 1017.6,136.7 1062.8,151.0 1108.0,139.9 1108.0,140.5 1062.8,152.7 1017.6,136.7 972.3,138.3 927.1,142.8 881.9,140.3 836.7,150.4 791.5,128.1 746.3,135.4 701.0,250.4 655.8,249.5 610.6,244.5 565.4,245.1" fill="#74c476" fill-opacity="0.9" stroke="#fff" stroke-width="0.4"><title>interface_depth — frontEndExecute (self)</title></polygon>
<polygon points="565.4,224.2 610.6,222.6 655.8,229.9 701.0,230.0 746.3,115.0 791.5,108.6 836.7,131.4 881.9,122.0 927.1,125.8 972.3,120.8 1017.6,120.1 1062.8,134.2 1108.0,123.6 1108.0,139.9 1062.8,151.0 1017.6,136.7 972.3,137.1 927.1,142.8 881.9,139.2 836.7,148.8 791.5,127.6 746.3,133.9 701.0,249.1 655.8,248.9 610.6,242.3 565.4,244.2" fill="#e6550d" fill-opacity="0.9" stroke="#fff" stroke-width="0.4"><title>interface_depth — generateOutput (self)</title></polygon>
<polygon points="565.4,224.2 610.6,222.6 655.8,229.9 701.0,230.0 746.3,115.0 791.5,108.6 836.7,131.4 881.9,122.0 927.1,125.8 972.3,120.3 1017.6,119.6 1062.8,134.2 1108.0,123.6 1108.0,123.6 1062.8,134.2 1017.6,120.1 972.3,120.8 927.1,125.8 881.9,122.0 836.7,131.4 791.5,108.6 746.3,115.0 701.0,230.0 655.8,229.9 610.6,222.6 565.4,224.2" fill="#969696" fill-opacity="0.9" stroke="#fff" stroke-width="0.4"><title>interface_depth — compileInner (self)</title></polygon>
<text x="12" y="578" fill="#666" font-weight="600">phase buckets</text>
<rect x="12" y="586" width="12" height="12" fill="#c7e9c0"/>
<text x="28" y="596" fill="#222">parseTranslationUnit</text>
<rect x="289" y="586" width="12" height="12" fill="#41ab5d"/>
<text x="305" y="596" fill="#222">SemanticChecking</text>
<rect x="566" y="586" width="12" height="12" fill="#006d2c"/>
<text x="582" y="596" fill="#222">generateIR</text>
<rect x="843" y="586" width="12" height="12" fill="#74c476"/>
<text x="859" y="596" fill="#222">frontEndExecute (self)</text>
<rect x="12" y="604" width="12" height="12" fill="#6baed6"/>
<text x="28" y="614" fill="#222">specializeModule</text>
<rect x="289" y="604" width="12" height="12" fill="#2171b5"/>
<text x="305" y="614" fill="#222">simplifyIR</text>
<rect x="566" y="604" width="12" height="12" fill="#08306b"/>
<text x="582" y="614" fill="#222">linkIR</text>
<rect x="843" y="604" width="12" height="12" fill="#9e9ac8"/>
<text x="859" y="614" fill="#222">unrollLoopsInModule</text>
<rect x="12" y="622" width="12" height="12" fill="#807dba"/>
<text x="28" y="632" fill="#222">legalizeResourceTypes</text>
<rect x="289" y="622" width="12" height="12" fill="#6a51a3"/>
<text x="305" y="632" fill="#222">legalizeExistentialTypeLayout</text>
<rect x="566" y="622" width="12" height="12" fill="#bcbddc"/>
<text x="582" y="632" fill="#222">performMandatoryEarlyInlining</text>
<rect x="843" y="622" width="12" height="12" fill="#dadaeb"/>
<text x="859" y="632" fill="#222">performForceInlining</text>
<rect x="12" y="640" width="12" height="12" fill="#4a1486"/>
<text x="28" y="650" fill="#222">linkAndOptimizeIR (self)</text>
<rect x="289" y="640" width="12" height="12" fill="#fd8d3c"/>
<text x="305" y="650" fill="#222">emitEntryPointsSourceFromIR</text>
<rect x="566" y="640" width="12" height="12" fill="#e6550d"/>
<text x="582" y="650" fill="#222">generateOutput (self)</text>
<rect x="843" y="640" width="12" height="12" fill="#969696"/>
<text x="859" y="650" fill="#222">compileInner (self)</text>
</svg>