<svg xmlns="http://www.w3.org/2000/svg" xmlns:xlink="http://www.w3.org/1999/xlink" width="1132" height="680" viewBox="0 0 1132 680" preserveAspectRatio="xMidYMid meet" font-family="sans-serif" font-size="13">
<rect width="1132" height="680" fill="white"/>
<text x="12" y="30" font-size="20" font-weight="bold">ir_builder — Daily tip-of-tree (last 30 days) (median ms)</text>
<text x="68" y="60" font-size="15" font-weight="600" fill="#1a1a1a">ir_builder<tspan fill="#888" font-weight="400" text-decoration="none">  0.05×</tspan></text>
<line x1="68.0" y1="516.0" x2="1108.0" y2="516.0" stroke="#eee"/>
<text x="64.0" y="519.0" text-anchor="end" fill="#999">0.0</text>
<line x1="68.0" y1="296.0" x2="1108.0" y2="296.0" stroke="#eee"/>
<text x="64.0" y="299.0" text-anchor="end" fill="#999">716</text>
<line x1="68.0" y1="76.0" x2="1108.0" y2="76.0" stroke="#eee"/>
<text x="64.0" y="79.0" text-anchor="end" fill="#999">1431</text>
<line x1="68.0" y1="76.0" x2="68.0" y2="516.0" stroke="#333"/>
<line x1="68.0" y1="516.0" x2="1108.0" y2="516.0" stroke="#333"/>
<line x1="68.0" y1="516.0" x2="68.0" y2="519.0" stroke="#999"/>
<text x="68.0" y="531.0" text-anchor="end" fill="#e8731a" transform="rotate(-50 68.0 531.0)">06-25</text>
<line x1="122.7" y1="516.0" x2="122.7" y2="519.0" stroke="#999"/>
<text x="122.7" y="531.0" text-anchor="end" fill="#e8731a" transform="rotate(-50 122.7 531.0)">06-26</text>
<line x1="177.5" y1="516.0" x2="177.5" y2="519.0" stroke="#999"/>
<text x="177.5" y="531.0" text-anchor="end" fill="#e8731a" transform="rotate(-50 177.5 531.0)">06-28</text>
<line x1="232.2" y1="516.0" x2="232.2" y2="519.0" stroke="#999"/>
<text x="232.2" y="531.0" text-anchor="end" fill="#e8731a" transform="rotate(-50 232.2 531.0)">07-01</text>
<line x1="286.9" y1="516.0" x2="286.9" y2="519.0" stroke="#999"/>
<text x="286.9" y="531.0" text-anchor="end" fill="#e8731a" transform="rotate(-50 286.9 531.0)">07-02</text>
<line x1="341.7" y1="516.0" x2="341.7" y2="519.0" stroke="#999"/>
<text x="341.7" y="531.0" text-anchor="end" fill="#e8731a" transform="rotate(-50 341.7 531.0)">07-03</text>
<line x1="396.4" y1="516.0" x2="396.4" y2="519.0" stroke="#999"/>
<text x="396.4" y="531.0" text-anchor="end" fill="#e8731a" transform="rotate(-50 396.4 531.0)">07-06</text>
<line x1="451.2" y1="516.0" x2="451.2" y2="519.0" stroke="#999"/>
<text x="451.2" y="531.0" text-anchor="end" fill="#e8731a" transform="rotate(-50 451.2 531.0)">07-07</text>
<line x1="505.9" y1="516.0" x2="505.9" y2="519.0" stroke="#999"/>
<text x="505.9" y="531.0" text-anchor="end" fill="#e8731a" transform="rotate(-50 505.9 531.0)">07-08</text>
<line x1="560.6" y1="516.0" x2="560.6" y2="519.0" stroke="#999"/>
<text x="560.6" y="531.0" text-anchor="end" fill="#e8731a" transform="rotate(-50 560.6 531.0)">07-09</text>
<line x1="615.4" y1="516.0" x2="615.4" y2="519.0" stroke="#999"/>
<text x="615.4" y="531.0" text-anchor="end" fill="#e8731a" transform="rotate(-50 615.4 531.0)">07-10</text>
<line x1="670.1" y1="516.0" x2="670.1" y2="519.0" stroke="#999"/>
<text x="670.1" y="531.0" text-anchor="end" fill="#e8731a" transform="rotate(-50 670.1 531.0)">07-11</text>
<line x1="724.8" y1="516.0" x2="724.8" y2="519.0" stroke="#999"/>
<text x="724.8" y="531.0" text-anchor="end" fill="#e8731a" transform="rotate(-50 724.8 531.0)">07-14</text>
<line x1="779.6" y1="516.0" x2="779.6" y2="519.0" stroke="#999"/>
<text x="779.6" y="531.0" text-anchor="end" fill="#e8731a" transform="rotate(-50 779.6 531.0)">07-15</text>
<line x1="834.3" y1="516.0" x2="834.3" y2="519.0" stroke="#999"/>
<text x="834.3" y="531.0" text-anchor="end" fill="#e8731a" transform="rotate(-50 834.3 531.0)">07-15</text>
<line x1="889.1" y1="516.0" x2="889.1" y2="519.0" stroke="#999"/>
<text x="889.1" y="531.0" text-anchor="end" fill="#e8731a" transform="rotate(-50 889.1 531.0)">07-16</text>
<line x1="943.8" y1="516.0" x2="943.8" y2="519.0" stroke="#999"/>
<text x="943.8" y="531.0" text-anchor="end" fill="#e8731a" transform="rotate(-50 943.8 531.0)">07-17</text>
<line x1="998.5" y1="516.0" x2="998.5" y2="519.0" stroke="#999"/>
<text x="998.5" y="531.0" text-anchor="end" fill="#e8731a" transform="rotate(-50 998.5 531.0)">07-18</text>
<line x1="1053.3" y1="516.0" x2="1053.3" y2="519.0" stroke="#999"/>
<text x="1053.3" y="531.0" text-anchor="end" fill="#e8731a" transform="rotate(-50 1053.3 531.0)">07-19</text>
<line x1="1108.0" y1="516.0" x2="1108.0" y2="519.0" stroke="#999"/>
<text x="1108.0" y="531.0" text-anchor="end" fill="#e8731a" transform="rotate(-50 1108.0 531.0)">07-20</text>
<polygon points="68.0,515.4 122.7,515.4 177.5,515.4 232.2,515.4 286.9,515.4 341.7,515.4 396.4,515.3 451.2,515.5 505.9,515.5 560.6,515.5 615.4,515.5 670.1,515.4 724.8,515.5 779.6,515.5 834.3,515.5 889.1,515.5 943.8,515.5 998.5,515.5 1053.3,515.5 1108.0,515.5 1108.0,516.0 1053.3,516.0 998.5,516.0 943.8,516.0 889.1,516.0 834.3,516.0 779.6,516.0 724.8,516.0 670.1,516.0 615.4,516.0 560.6,516.0 505.9,516.0 451.2,516.0 396.4,516.0 341.7,516.0 286.9,516.0 232.2,516.0 177.5,516.0 122.7,516.0 68.0,516.0" fill="#c7e9c0" fill-opacity="0.9" stroke="#fff" stroke-width="0.4"><title>ir_builder — parseTranslationUnit</title></polygon>
<polygon points="68.0,510.2 122.7,510.2 177.5,510.2 232.2,510.2 286.9,510.2 341.7,510.2 396.4,510.1 451.2,510.7 505.9,510.7 560.6,510.6 615.4,510.6 670.1,510.7 724.8,510.7 779.6,511.1 834.3,511.2 889.1,510.8 943.8,510.7 998.5,511.2 1053.3,511.1 1108.0,511.1 1108.0,515.5 1053.3,515.5 998.5,515.5 943.8,515.5 889.1,515.5 834.3,515.5 779.6,515.5 724.8,515.5 670.1,515.4 615.4,515.5 560.6,515.5 505.9,515.5 451.2,515.5 396.4,515.3 341.7,515.4 286.9,515.4 232.2,515.4 177.5,515.4 122.7,515.4 68.0,515.4" fill="#41ab5d" fill-opacity="0.9" stroke="#fff" stroke-width="0.4"><title>ir_builder — SemanticChecking</title></polygon>
<polygon points="68.0,507.7 122.7,507.8 177.5,507.7 232.2,507.7 286.9,507.8 341.7,507.6 396.4,507.7 451.2,508.1 505.9,508.2 560.6,508.2 615.4,508.0 670.1,508.2 724.8,508.2 779.6,508.8 834.3,508.7 889.1,508.6 943.8,508.5 998.5,509.4 1053.3,509.3 1108.0,509.4 1108.0,511.1 1053.3,511.1 998.5,511.2 943.8,510.7 889.1,510.8 834.3,511.2 779.6,511.1 724.8,510.7 670.1,510.7 615.4,510.6 560.6,510.6 505.9,510.7 451.2,510.7 396.4,510.1 341.7,510.2 286.9,510.2 232.2,510.2 177.5,510.2 122.7,510.2 68.0,510.2" fill="#006d2c" fill-opacity="0.9" stroke="#fff" stroke-width="0.4"><title>ir_builder — generateIR</title></polygon>
<polygon points="68.0,507.6 122.7,507.6 177.5,507.5 232.2,507.6 286.9,507.6 341.7,507.6 396.4,507.5 451.2,508.0 505.9,508.1 560.6,508.0 615.4,507.9 670.1,508.1 724.8,508.1 779.6,508.6 834.3,508.6 889.1,508.5 943.8,508.4 998.5,509.3 1053.3,509.2 1108.0,509.3 1108.0,509.4 1053.3,509.3 998.5,509.4 943.8,508.5 889.1,508.6 834.3,508.7 779.6,508.8 724.8,508.2 670.1,508.2 615.4,508.0 560.6,508.2 505.9,508.2 451.2,508.1 396.4,507.7 341.7,507.6 286.9,507.8 232.2,507.7 177.5,507.7 122.7,507.8 68.0,507.7" fill="#74c476" fill-opacity="0.9" stroke="#fff" stroke-width="0.4"><title>ir_builder — frontEndExecute (self)</title></polygon>
<polygon points="68.0,505.0 122.7,505.1 177.5,504.9 232.2,505.0 286.9,505.0 341.7,505.0 396.4,504.9 451.2,506.9 505.9,506.9 560.6,506.9 615.4,506.8 670.1,506.9 724.8,506.9 779.6,507.6 834.3,507.6 889.1,507.5 943.8,507.4 998.5,508.3 1053.3,508.2 1108.0,508.3 1108.0,509.3 1053.3,509.2 998.5,509.3 943.8,508.4 889.1,508.5 834.3,508.6 779.6,508.6 724.8,508.1 670.1,508.1 615.4,507.9 560.6,508.0 505.9,508.1 451.2,508.0 396.4,507.5 341.7,507.6 286.9,507.6 232.2,507.6 177.5,507.5 122.7,507.6 68.0,507.6" fill="#6baed6" fill-opacity="0.9" stroke="#fff" stroke-width="0.4"><title>ir_builder — specializeModule</title></polygon>
<polygon points="68.0,501.2 122.7,501.3 177.5,501.1 232.2,501.2 286.9,500.8 341.7,501.0 396.4,500.9 451.2,504.5 505.9,504.3 560.6,504.4 615.4,504.3 670.1,504.3 724.8,504.4 779.6,505.0 834.3,505.0 889.1,504.9 943.8,504.8 998.5,506.4 1053.3,506.2 1108.0,506.3 1108.0,508.3 1053.3,508.2 998.5,508.3 943.8,507.4 889.1,507.5 834.3,507.6 779.6,507.6 724.8,506.9 670.1,506.9 615.4,506.8 560.6,506.9 505.9,506.9 451.2,506.9 396.4,504.9 341.7,505.0 286.9,505.0 232.2,505.0 177.5,504.9 122.7,505.1 68.0,505.0" fill="#2171b5" fill-opacity="0.9" stroke="#fff" stroke-width="0.4"><title>ir_builder — simplifyIR</title></polygon>
<polygon points="68.0,500.6 122.7,500.7 177.5,500.4 232.2,500.7 286.9,500.2 341.7,500.5 396.4,500.3 451.2,503.9 505.9,503.8 560.6,503.9 615.4,503.8 670.1,503.8 724.8,503.9 779.6,504.5 834.3,504.5 889.1,504.4 943.8,504.4 998.5,505.9 1053.3,505.7 1108.0,505.8 1108.0,506.3 1053.3,506.2 998.5,506.4 943.8,504.8 889.1,504.9 834.3,505.0 779.6,505.0 724.8,504.4 670.1,504.3 615.4,504.3 560.6,504.4 505.9,504.3 451.2,504.5 396.4,500.9 341.7,501.0 286.9,500.8 232.2,501.2 177.5,501.1 122.7,501.3 68.0,501.2" fill="#08306b" fill-opacity="0.9" stroke="#fff" stroke-width="0.4"><title>ir_builder — linkIR</title></polygon>
<polygon points="68.0,500.5 122.7,500.7 177.5,500.4 232.2,500.7 286.9,500.2 341.7,500.5 396.4,500.3 451.2,503.9 505.9,503.8 560.6,503.9 615.4,503.8 670.1,503.8 724.8,503.9 779.6,504.5 834.3,504.5 889.1,504.4 943.8,504.4 998.5,505.9 1053.3,505.7 1108.0,505.8 1108.0,505.8 1053.3,505.7 998.5,505.9 943.8,504.4 889.1,504.4 834.3,504.5 779.6,504.5 724.8,503.9 670.1,503.8 615.4,503.8 560.6,503.9 505.9,503.8 451.2,503.9 396.4,500.3 341.7,500.5 286.9,500.2 232.2,500.7 177.5,500.4 122.7,500.7 68.0,500.6" fill="#9e9ac8" fill-opacity="0.9" stroke="#fff" stroke-width="0.4"><title>ir_builder — unrollLoopsInModule</title></polygon>
<polygon points="68.0,405.4 122.7,406.0 177.5,405.8 232.2,404.5 286.9,404.5 341.7,407.8 396.4,406.3 451.2,412.5 505.9,409.8 560.6,409.0 615.4,503.4 670.1,503.3 724.8,503.4 779.6,504.1 834.3,504.1 889.1,504.0 943.8,504.0 998.5,505.5 1053.3,505.3 1108.0,505.4 1108.0,505.8 1053.3,505.7 998.5,505.9 943.8,504.4 889.1,504.4 834.3,504.5 779.6,504.5 724.8,503.9 670.1,503.8 615.4,503.8 560.6,503.9 505.9,503.8 451.2,503.9 396.4,500.3 341.7,500.5 286.9,500.2 232.2,500.7 177.5,500.4 122.7,500.7 68.0,500.5" fill="#807dba" fill-opacity="0.9" stroke="#fff" stroke-width="0.4"><title>ir_builder — legalizeResourceTypes</title></polygon>
<polygon points="68.0,309.4 122.7,310.3 177.5,310.0 232.2,307.7 286.9,307.6 341.7,312.6 396.4,311.6 451.2,318.7 505.9,315.0 560.6,313.9 615.4,503.0 670.1,502.9 724.8,503.0 779.6,503.6 834.3,503.6 889.1,503.6 943.8,503.5 998.5,505.1 1053.3,504.9 1108.0,505.0 1108.0,505.4 1053.3,505.3 998.5,505.5 943.8,504.0 889.1,504.0 834.3,504.1 779.6,504.1 724.8,503.4 670.1,503.3 615.4,503.4 560.6,409.0 505.9,409.8 451.2,412.5 396.4,406.3 341.7,407.8 286.9,404.5 232.2,404.5 177.5,405.8 122.7,406.0 68.0,405.4" fill="#6a51a3" fill-opacity="0.9" stroke="#fff" stroke-width="0.4"><title>ir_builder — legalizeExistentialTypeLayout</title></polygon>
<polygon points="68.0,309.4 122.7,310.3 177.5,310.0 232.2,307.7 286.9,307.6 341.7,312.6 396.4,311.5 451.2,318.7 505.9,315.0 560.6,313.8 615.4,503.0 670.1,502.8 724.8,502.9 779.6,503.6 834.3,503.6 889.1,503.5 943.8,503.5 998.5,505.1 1053.3,504.9 1108.0,505.0 1108.0,505.0 1053.3,504.9 998.5,505.1 943.8,503.5 889.1,503.6 834.3,503.6 779.6,503.6 724.8,503.0 670.1,502.9 615.4,503.0 560.6,313.9 505.9,315.0 451.2,318.7 396.4,311.6 341.7,312.6 286.9,307.6 232.2,307.7 177.5,310.0 122.7,310.3 68.0,309.4" fill="#bcbddc" fill-opacity="0.9" stroke="#fff" stroke-width="0.4"><title>ir_builder — performMandatoryEarlyInlining</title></polygon>
<polygon points="68.0,309.4 122.7,310.2 177.5,309.9 232.2,307.6 286.9,307.5 341.7,312.5 396.4,311.5 451.2,318.6 505.9,314.9 560.6,313.8 615.4,502.9 670.1,502.8 724.8,502.9 779.6,503.6 834.3,503.6 889.1,503.5 943.8,503.4 998.5,505.0 1053.3,504.8 1108.0,504.9 1108.0,505.0 1053.3,504.9 998.5,505.1 943.8,503.5 889.1,503.5 834.3,503.6 779.6,503.6 724.8,502.9 670.1,502.8 615.4,503.0 560.6,313.8 505.9,315.0 451.2,318.7 396.4,311.5 341.7,312.6 286.9,307.6 232.2,307.7 177.5,310.0 122.7,310.3 68.0,309.4" fill="#dadaeb" fill-opacity="0.9" stroke="#fff" stroke-width="0.4"><title>ir_builder — performForceInlining</title></polygon>
<polygon points="68.0,211.0 122.7,211.6 177.5,212.2 232.2,209.4 286.9,208.6 341.7,216.7 396.4,213.9 451.2,223.7 505.9,217.7 560.6,216.1 615.4,500.0 670.1,499.6 724.8,499.8 779.6,501.1 834.3,501.0 889.1,501.0 943.8,500.9 998.5,502.8 1053.3,502.6 1108.0,502.7 1108.0,504.9 1053.3,504.8 998.5,505.0 943.8,503.4 889.1,503.5 834.3,503.6 779.6,503.6 724.8,502.9 670.1,502.8 615.4,502.9 560.6,313.8 505.9,314.9 451.2,318.6 396.4,311.5 341.7,312.5 286.9,307.5 232.2,307.6 177.5,309.9 122.7,310.2 68.0,309.4" fill="#4a1486" fill-opacity="0.9" stroke="#fff" stroke-width="0.4"><title>ir_builder — linkAndOptimizeIR (self)</title></polygon>
<polygon points="68.0,110.2 122.7,113.3 177.5,112.6 232.2,108.7 286.9,109.0 341.7,118.4 396.4,115.0 451.2,124.8 505.9,119.7 560.6,116.7 615.4,494.9 670.1,494.0 724.8,494.5 779.6,496.0 834.3,495.7 889.1,495.8 943.8,495.7 998.5,497.8 1053.3,497.6 1108.0,497.7 1108.0,502.7 1053.3,502.6 998.5,502.8 943.8,500.9 889.1,501.0 834.3,501.0 779.6,501.1 724.8,499.8 670.1,499.6 615.4,500.0 560.6,216.1 505.9,217.7 451.2,223.7 396.4,213.9 341.7,216.7 286.9,208.6 232.2,209.4 177.5,212.2 122.7,211.6 68.0,211.0" fill="#e6550d" fill-opacity="0.9" stroke="#fff" stroke-width="0.4"><title>ir_builder — generateOutput (self)</title></polygon>
<polygon points="68.0,110.2 122.7,112.9 177.5,112.6 232.2,108.6 286.9,109.0 341.7,118.4 396.4,114.9 451.2,124.6 505.9,119.6 560.6,116.5 615.4,494.6 670.1,494.0 724.8,494.5 779.6,495.9 834.3,495.7 889.1,495.7 943.8,495.6 998.5,497.8 1053.3,497.5 1108.0,497.7 1108.0,497.7 1053.3,497.6 998.5,497.8 943.8,495.7 889.1,495.8 834.3,495.7 779.6,496.0 724.8,494.5 670.1,494.0 615.4,494.9 560.6,116.7 505.9,119.7 451.2,124.8 396.4,115.0 341.7,118.4 286.9,109.0 232.2,108.7 177.5,112.6 122.7,113.3 68.0,110.2" fill="#969696" fill-opacity="0.9" stroke="#fff" stroke-width="0.4"><title>ir_builder — compileInner (self)</title></polygon>
<text x="12" y="578" fill="#666" font-weight="600">phase buckets</text>
<rect x="12" y="586" width="12" height="12" fill="#c7e9c0"/>
<text x="28" y="596" fill="#222">parseTranslationUnit</text>
<rect x="289" y="586" width="12" height="12" fill="#41ab5d"/>
<text x="305" y="596" fill="#222">SemanticChecking</text>
<rect x="566" y="586" width="12" height="12" fill="#006d2c"/>
<text x="582" y="596" fill="#222">generateIR</text>
<rect x="843" y="586" width="12" height="12" fill="#74c476"/>
<text x="859" y="596" fill="#222">frontEndExecute (self)</text>
<rect x="12" y="604" width="12" height="12" fill="#6baed6"/>
<text x="28" y="614" fill="#222">specializeModule</text>
<rect x="289" y="604" width="12" height="12" fill="#2171b5"/>
<text x="305" y="614" fill="#222">simplifyIR</text>
<rect x="566" y="604" width="12" height="12" fill="#08306b"/>
<text x="582" y="614" fill="#222">linkIR</text>
<rect x="843" y="604" width="12" height="12" fill="#9e9ac8"/>
<text x="859" y="614" fill="#222">unrollLoopsInModule</text>
<rect x="12" y="622" width="12" height="12" fill="#807dba"/>
<text x="28" y="632" fill="#222">legalizeResourceTypes</text>
<rect x="289" y="622" width="12" height="12" fill="#6a51a3"/>
<text x="305" y="632" fill="#222">legalizeExistentialTypeLayout</text>
<rect x="566" y="622" width="12" height="12" fill="#bcbddc"/>
<text x="582" y="632" fill="#222">performMandatoryEarlyInlining</text>
<rect x="843" y="622" width="12" height="12" fill="#dadaeb"/>
<text x="859" y="632" fill="#222">performForceInlining</text>
<rect x="12" y="640" width="12" height="12" fill="#4a1486"/>
<text x="28" y="650" fill="#222">linkAndOptimizeIR (self)</text>
<rect x="289" y="640" width="12" height="12" fill="#fd8d3c"/>
<text x="305" y="650" fill="#222">emitEntryPointsSourceFromIR</text>
<rect x="566" y="640" width="12" height="12" fill="#e6550d"/>
<text x="582" y="650" fill="#222">generateOutput (self)</text>
<rect x="843" y="640" width="12" height="12" fill="#969696"/>
<text x="859" y="650" fill="#222">compileInner (self)</text>
</svg>