<svg xmlns="http://www.w3.org/2000/svg" xmlns:xlink="http://www.w3.org/1999/xlink" width="1132" height="680" viewBox="0 0 1132 680" preserveAspectRatio="xMidYMid meet" font-family="sans-serif" font-size="13">
<rect width="1132" height="680" fill="white"/>
<text x="12" y="30" font-size="20" font-weight="bold">ir_builder — Across releases (median ms)</text>
<text x="68" y="60" font-size="15" font-weight="600" fill="#1a1a1a">ir_builder<tspan fill="#888" font-weight="400" text-decoration="none">  0.01×</tspan></text>
<line x1="68.0" y1="516.0" x2="1108.0" y2="516.0" stroke="#eee"/>
<text x="64.0" y="519.0" text-anchor="end" fill="#999">0.0</text>
<line x1="68.0" y1="296.0" x2="1108.0" y2="296.0" stroke="#eee"/>
<text x="64.0" y="299.0" text-anchor="end" fill="#999">2610</text>
<line x1="68.0" y1="76.0" x2="1108.0" y2="76.0" stroke="#eee"/>
<text x="64.0" y="79.0" text-anchor="end" fill="#999">5219</text>
<line x1="68.0" y1="76.0" x2="68.0" y2="516.0" stroke="#333"/>
<line x1="68.0" y1="516.0" x2="1108.0" y2="516.0" stroke="#333"/>
<line x1="68.0" y1="516.0" x2="68.0" y2="519.0" stroke="#999"/>
<text x="68.0" y="531.0" text-anchor="end" fill="#666" transform="rotate(-50 68.0 531.0)">25.12</text>
<line x1="108.0" y1="516.0" x2="108.0" y2="519.0" stroke="#999"/>
<text x="108.0" y="531.0" text-anchor="end" fill="#666" transform="rotate(-50 108.0 531.0)">25.13</text>
<line x1="148.0" y1="516.0" x2="148.0" y2="519.0" stroke="#999"/>
<text x="148.0" y="531.0" text-anchor="end" fill="#666" transform="rotate(-50 148.0 531.0)">25.14</text>
<line x1="188.0" y1="516.0" x2="188.0" y2="519.0" stroke="#999"/>
<text x="188.0" y="531.0" text-anchor="end" fill="#666" transform="rotate(-50 188.0 531.0)">25.15</text>
<line x1="228.0" y1="516.0" x2="228.0" y2="519.0" stroke="#999"/>
<text x="228.0" y="531.0" text-anchor="end" fill="#666" transform="rotate(-50 228.0 531.0)">25.16</text>
<line x1="268.0" y1="516.0" x2="268.0" y2="519.0" stroke="#999"/>
<text x="268.0" y="531.0" text-anchor="end" fill="#666" transform="rotate(-50 268.0 531.0)">25.17</text>
<line x1="308.0" y1="516.0" x2="308.0" y2="519.0" stroke="#999"/>
<text x="308.0" y="531.0" text-anchor="end" fill="#666" transform="rotate(-50 308.0 531.0)">25.18</text>
<line x1="348.0" y1="516.0" x2="348.0" y2="519.0" stroke="#999"/>
<text x="348.0" y="531.0" text-anchor="end" fill="#666" transform="rotate(-50 348.0 531.0)">25.19</text>
<line x1="388.0" y1="516.0" x2="388.0" y2="519.0" stroke="#999"/>
<text x="388.0" y="531.0" text-anchor="end" fill="#666" transform="rotate(-50 388.0 531.0)">25.20</text>
<line x1="428.0" y1="516.0" x2="428.0" y2="519.0" stroke="#999"/>
<text x="428.0" y="531.0" text-anchor="end" fill="#666" transform="rotate(-50 428.0 531.0)">25.21</text>
<line x1="468.0" y1="516.0" x2="468.0" y2="519.0" stroke="#999"/>
<text x="468.0" y="531.0" text-anchor="end" fill="#666" transform="rotate(-50 468.0 531.0)">25.22</text>
<line x1="508.0" y1="516.0" x2="508.0" y2="519.0" stroke="#999"/>
<text x="508.0" y="531.0" text-anchor="end" fill="#666" transform="rotate(-50 508.0 531.0)">25.23</text>
<line x1="548.0" y1="516.0" x2="548.0" y2="519.0" stroke="#999"/>
<text x="548.0" y="531.0" text-anchor="end" fill="#666" transform="rotate(-50 548.0 531.0)">25.24</text>
<line x1="588.0" y1="516.0" x2="588.0" y2="519.0" stroke="#999"/>
<text x="588.0" y="531.0" text-anchor="end" fill="#666" transform="rotate(-50 588.0 531.0)">26.1</text>
<line x1="628.0" y1="516.0" x2="628.0" y2="519.0" stroke="#999"/>
<text x="628.0" y="531.0" text-anchor="end" fill="#666" transform="rotate(-50 628.0 531.0)">26.2</text>
<line x1="668.0" y1="516.0" x2="668.0" y2="519.0" stroke="#999"/>
<text x="668.0" y="531.0" text-anchor="end" fill="#666" transform="rotate(-50 668.0 531.0)">26.3</text>
<line x1="708.0" y1="516.0" x2="708.0" y2="519.0" stroke="#999"/>
<text x="708.0" y="531.0" text-anchor="end" fill="#666" transform="rotate(-50 708.0 531.0)">26.4</text>
<line x1="748.0" y1="516.0" x2="748.0" y2="519.0" stroke="#999"/>
<text x="748.0" y="531.0" text-anchor="end" fill="#666" transform="rotate(-50 748.0 531.0)">26.5</text>
<line x1="788.0" y1="516.0" x2="788.0" y2="519.0" stroke="#999"/>
<text x="788.0" y="531.0" text-anchor="end" fill="#666" transform="rotate(-50 788.0 531.0)">26.7</text>
<line x1="828.0" y1="516.0" x2="828.0" y2="519.0" stroke="#999"/>
<text x="828.0" y="531.0" text-anchor="end" fill="#666" transform="rotate(-50 828.0 531.0)">26.8</text>
<line x1="868.0" y1="516.0" x2="868.0" y2="519.0" stroke="#999"/>
<text x="868.0" y="531.0" text-anchor="end" fill="#666" transform="rotate(-50 868.0 531.0)">26.9</text>
<line x1="908.0" y1="516.0" x2="908.0" y2="519.0" stroke="#999"/>
<text x="908.0" y="531.0" text-anchor="end" fill="#666" transform="rotate(-50 908.0 531.0)">26.10</text>
<line x1="948.0" y1="516.0" x2="948.0" y2="519.0" stroke="#999"/>
<text x="948.0" y="531.0" text-anchor="end" fill="#666" transform="rotate(-50 948.0 531.0)">26.11</text>
<line x1="988.0" y1="516.0" x2="988.0" y2="519.0" stroke="#999"/>
<text x="988.0" y="531.0" text-anchor="end" fill="#666" transform="rotate(-50 988.0 531.0)">26.12</text>
<line x1="1028.0" y1="516.0" x2="1028.0" y2="519.0" stroke="#999"/>
<text x="1028.0" y="531.0" text-anchor="end" fill="#666" transform="rotate(-50 1028.0 531.0)">26.13</text>
<line x1="1068.0" y1="516.0" x2="1068.0" y2="519.0" stroke="#999"/>
<text x="1068.0" y="531.0" text-anchor="end" fill="#666" transform="rotate(-50 1068.0 531.0)">26.13.1</text>
<line x1="1108.0" y1="516.0" x2="1108.0" y2="519.0" stroke="#999"/>
<text x="1108.0" y="531.0" text-anchor="end" fill="#666" transform="rotate(-50 1108.0 531.0)">26.14</text>
<polygon points="68.0,515.8 108.0,515.8 148.0,515.8 188.0,514.4 228.0,515.8 268.0,515.8 308.0,515.8 348.0,515.8 388.0,515.8 428.0,515.8 468.0,515.8 508.0,515.8 548.0,515.8 588.0,515.8 628.0,515.8 668.0,515.8 708.0,515.8 748.0,515.8 788.0,515.8 828.0,515.8 868.0,515.8 908.0,515.8 948.0,515.8 988.0,515.8 1028.0,515.8 1068.0,515.8 1108.0,515.8 1108.0,516.0 1068.0,516.0 1028.0,516.0 988.0,516.0 948.0,516.0 908.0,516.0 868.0,516.0 828.0,516.0 788.0,516.0 748.0,516.0 708.0,516.0 668.0,516.0 628.0,516.0 588.0,516.0 548.0,516.0 508.0,516.0 468.0,516.0 428.0,516.0 388.0,516.0 348.0,516.0 308.0,516.0 268.0,516.0 228.0,516.0 188.0,516.0 148.0,516.0 108.0,516.0 68.0,516.0" fill="#c7e9c0" fill-opacity="0.9" stroke="#fff" stroke-width="0.4"><title>ir_builder — parseTranslationUnit</title></polygon>
<polygon points="68.0,512.8 108.0,512.7 148.0,512.3 188.0,510.1 228.0,511.8 268.0,511.7 308.0,511.7 348.0,511.8 388.0,511.8 428.0,511.7 468.0,512.1 508.0,512.1 548.0,512.1 588.0,512.1 628.0,511.8 668.0,511.7 708.0,511.8 748.0,511.8 788.0,510.5 828.0,510.9 868.0,511.1 908.0,510.0 948.0,514.4 988.0,514.6 1028.0,514.7 1068.0,514.7 1108.0,514.8 1108.0,515.8 1068.0,515.8 1028.0,515.8 988.0,515.8 948.0,515.8 908.0,515.8 868.0,515.8 828.0,515.8 788.0,515.8 748.0,515.8 708.0,515.8 668.0,515.8 628.0,515.8 588.0,515.8 548.0,515.8 508.0,515.8 468.0,515.8 428.0,515.8 388.0,515.8 348.0,515.8 308.0,515.8 268.0,515.8 228.0,515.8 188.0,514.4 148.0,515.8 108.0,515.8 68.0,515.8" fill="#41ab5d" fill-opacity="0.9" stroke="#fff" stroke-width="0.4"><title>ir_builder — SemanticChecking</title></polygon>
<polygon points="68.0,512.0 108.0,511.9 148.0,511.5 188.0,509.4 228.0,511.1 268.0,510.9 308.0,511.0 348.0,511.0 388.0,511.0 428.0,510.9 468.0,511.4 508.0,511.3 548.0,511.4 588.0,511.3 628.0,511.1 668.0,511.0 708.0,511.0 748.0,511.0 788.0,509.7 828.0,510.2 868.0,510.3 908.0,509.1 948.0,513.7 988.0,514.0 1028.0,514.0 1068.0,514.0 1108.0,514.3 1108.0,514.8 1068.0,514.7 1028.0,514.7 988.0,514.6 948.0,514.4 908.0,510.0 868.0,511.1 828.0,510.9 788.0,510.5 748.0,511.8 708.0,511.8 668.0,511.7 628.0,511.8 588.0,512.1 548.0,512.1 508.0,512.1 468.0,512.1 428.0,511.7 388.0,511.8 348.0,511.8 308.0,511.7 268.0,511.7 228.0,511.8 188.0,510.1 148.0,512.3 108.0,512.7 68.0,512.8" fill="#006d2c" fill-opacity="0.9" stroke="#fff" stroke-width="0.4"><title>ir_builder — generateIR</title></polygon>
<polygon points="68.0,512.0 108.0,511.9 148.0,511.5 188.0,509.3 228.0,511.1 268.0,510.9 308.0,511.0 348.0,511.0 388.0,511.0 428.0,510.9 468.0,511.3 508.0,511.3 548.0,511.3 588.0,511.3 628.0,511.0 668.0,511.0 708.0,511.0 748.0,511.0 788.0,509.7 828.0,510.1 868.0,510.3 908.0,509.0 948.0,513.6 988.0,513.9 1028.0,514.0 1068.0,514.0 1108.0,514.3 1108.0,514.3 1068.0,514.0 1028.0,514.0 988.0,514.0 948.0,513.7 908.0,509.1 868.0,510.3 828.0,510.2 788.0,509.7 748.0,511.0 708.0,511.0 668.0,511.0 628.0,511.1 588.0,511.3 548.0,511.4 508.0,511.3 468.0,511.4 428.0,510.9 388.0,511.0 348.0,511.0 308.0,511.0 268.0,510.9 228.0,511.1 188.0,509.4 148.0,511.5 108.0,511.9 68.0,512.0" fill="#74c476" fill-opacity="0.9" stroke="#fff" stroke-width="0.4"><title>ir_builder — frontEndExecute (self)</title></polygon>
<polygon points="68.0,511.9 108.0,511.8 148.0,511.3 188.0,509.1 228.0,510.9 268.0,510.8 308.0,510.8 348.0,510.8 388.0,510.8 428.0,510.7 468.0,511.2 508.0,511.1 548.0,511.0 588.0,511.0 628.0,510.7 668.0,510.7 708.0,510.6 748.0,510.7 788.0,508.9 828.0,509.4 868.0,509.5 908.0,508.3 948.0,513.0 988.0,513.3 1028.0,513.7 1068.0,513.7 1108.0,514.0 1108.0,514.3 1068.0,514.0 1028.0,514.0 988.0,513.9 948.0,513.6 908.0,509.0 868.0,510.3 828.0,510.1 788.0,509.7 748.0,511.0 708.0,511.0 668.0,511.0 628.0,511.0 588.0,511.3 548.0,511.3 508.0,511.3 468.0,511.3 428.0,510.9 388.0,511.0 348.0,511.0 308.0,511.0 268.0,510.9 228.0,511.1 188.0,509.3 148.0,511.5 108.0,511.9 68.0,512.0" fill="#6baed6" fill-opacity="0.9" stroke="#fff" stroke-width="0.4"><title>ir_builder — specializeModule</title></polygon>
<polygon points="68.0,511.1 108.0,511.0 148.0,510.6 188.0,508.4 228.0,510.2 268.0,510.0 308.0,510.1 348.0,510.1 388.0,510.1 428.0,510.0 468.0,510.5 508.0,510.4 548.0,510.4 588.0,510.4 628.0,510.1 668.0,510.0 708.0,510.0 748.0,510.1 788.0,507.8 828.0,508.4 868.0,508.5 908.0,507.2 948.0,512.0 988.0,512.4 1028.0,513.1 1068.0,513.0 1108.0,513.6 1108.0,514.0 1068.0,513.7 1028.0,513.7 988.0,513.3 948.0,513.0 908.0,508.3 868.0,509.5 828.0,509.4 788.0,508.9 748.0,510.7 708.0,510.6 668.0,510.7 628.0,510.7 588.0,511.0 548.0,511.0 508.0,511.1 468.0,511.2 428.0,510.7 388.0,510.8 348.0,510.8 308.0,510.8 268.0,510.8 228.0,510.9 188.0,509.1 148.0,511.3 108.0,511.8 68.0,511.9" fill="#2171b5" fill-opacity="0.9" stroke="#fff" stroke-width="0.4"><title>ir_builder — simplifyIR</title></polygon>
<polygon points="68.0,510.9 108.0,510.8 148.0,510.3 188.0,508.2 228.0,510.0 268.0,509.8 308.0,509.9 348.0,509.9 388.0,509.9 428.0,509.8 468.0,510.3 508.0,510.2 548.0,510.2 588.0,510.2 628.0,509.9 668.0,509.9 708.0,509.8 748.0,509.9 788.0,505.7 828.0,506.8 868.0,507.0 908.0,505.0 948.0,511.8 988.0,512.2 1028.0,512.9 1068.0,512.9 1108.0,513.4 1108.0,513.6 1068.0,513.0 1028.0,513.1 988.0,512.4 948.0,512.0 908.0,507.2 868.0,508.5 828.0,508.4 788.0,507.8 748.0,510.1 708.0,510.0 668.0,510.0 628.0,510.1 588.0,510.4 548.0,510.4 508.0,510.4 468.0,510.5 428.0,510.0 388.0,510.1 348.0,510.1 308.0,510.1 268.0,510.0 228.0,510.2 188.0,508.4 148.0,510.6 108.0,511.0 68.0,511.1" fill="#08306b" fill-opacity="0.9" stroke="#fff" stroke-width="0.4"><title>ir_builder — linkIR</title></polygon>
<polygon points="68.0,510.9 108.0,510.8 148.0,510.3 188.0,508.2 228.0,510.0 268.0,509.8 308.0,509.9 348.0,509.9 388.0,509.9 428.0,509.8 468.0,510.3 508.0,510.2 548.0,510.2 588.0,510.2 628.0,509.9 668.0,509.9 708.0,509.8 748.0,509.9 788.0,505.7 828.0,506.8 868.0,507.0 908.0,505.0 948.0,511.8 988.0,512.2 1028.0,512.9 1068.0,512.9 1108.0,513.4 1108.0,513.4 1068.0,512.9 1028.0,512.9 988.0,512.2 948.0,511.8 908.0,505.0 868.0,507.0 828.0,506.8 788.0,505.7 748.0,509.9 708.0,509.8 668.0,509.9 628.0,509.9 588.0,510.2 548.0,510.2 508.0,510.2 468.0,510.3 428.0,509.8 388.0,509.9 348.0,509.9 308.0,509.9 268.0,509.8 228.0,510.0 188.0,508.2 148.0,510.3 108.0,510.8 68.0,510.9" fill="#9e9ac8" fill-opacity="0.9" stroke="#fff" stroke-width="0.4"><title>ir_builder — unrollLoopsInModule</title></polygon>
<polygon points="68.0,386.3 108.0,387.9 148.0,377.8 188.0,380.9 228.0,388.8 268.0,391.4 308.0,484.3 348.0,485.1 388.0,485.3 428.0,485.4 468.0,486.1 508.0,485.9 548.0,485.8 588.0,485.6 628.0,484.8 668.0,484.5 708.0,484.6 748.0,485.0 788.0,477.1 828.0,481.6 868.0,482.3 908.0,477.1 948.0,483.0 988.0,485.6 1028.0,487.0 1068.0,512.8 1108.0,513.3 1108.0,513.4 1068.0,512.9 1028.0,512.9 988.0,512.2 948.0,511.8 908.0,505.0 868.0,507.0 828.0,506.8 788.0,505.7 748.0,509.9 708.0,509.8 668.0,509.9 628.0,509.9 588.0,510.2 548.0,510.2 508.0,510.2 468.0,510.3 428.0,509.8 388.0,509.9 348.0,509.9 308.0,509.9 268.0,509.8 228.0,510.0 188.0,508.2 148.0,510.3 108.0,510.8 68.0,510.9" fill="#807dba" fill-opacity="0.9" stroke="#fff" stroke-width="0.4"><title>ir_builder — legalizeResourceTypes</title></polygon>
<polygon points="68.0,260.5 108.0,264.9 148.0,245.7 188.0,253.7 228.0,267.3 268.0,270.8 308.0,458.6 348.0,460.0 388.0,460.5 428.0,460.9 468.0,461.6 508.0,461.5 548.0,460.9 588.0,461.0 628.0,459.7 668.0,459.1 708.0,459.2 748.0,460.0 788.0,450.0 828.0,456.8 868.0,457.4 908.0,449.3 948.0,453.2 988.0,459.0 1028.0,460.7 1068.0,512.6 1108.0,513.2 1108.0,513.3 1068.0,512.8 1028.0,487.0 988.0,485.6 948.0,483.0 908.0,477.1 868.0,482.3 828.0,481.6 788.0,477.1 748.0,485.0 708.0,484.6 668.0,484.5 628.0,484.8 588.0,485.6 548.0,485.8 508.0,485.9 468.0,486.1 428.0,485.4 388.0,485.3 348.0,485.1 308.0,484.3 268.0,391.4 228.0,388.8 188.0,380.9 148.0,377.8 108.0,387.9 68.0,386.3" fill="#6a51a3" fill-opacity="0.9" stroke="#fff" stroke-width="0.4"><title>ir_builder — legalizeExistentialTypeLayout</title></polygon>
<polygon points="68.0,260.5 108.0,264.9 148.0,245.7 188.0,253.7 228.0,267.3 268.0,270.8 308.0,458.6 348.0,459.9 388.0,460.5 428.0,460.9 468.0,461.6 508.0,461.5 548.0,460.9 588.0,461.0 628.0,459.7 668.0,459.1 708.0,459.2 748.0,460.0 788.0,450.0 828.0,456.8 868.0,457.4 908.0,449.3 948.0,453.2 988.0,459.0 1028.0,460.7 1068.0,512.6 1108.0,513.2 1108.0,513.2 1068.0,512.6 1028.0,460.7 988.0,459.0 948.0,453.2 908.0,449.3 868.0,457.4 828.0,456.8 788.0,450.0 748.0,460.0 708.0,459.2 668.0,459.1 628.0,459.7 588.0,461.0 548.0,460.9 508.0,461.5 468.0,461.6 428.0,460.9 388.0,460.5 348.0,460.0 308.0,458.6 268.0,270.8 228.0,267.3 188.0,253.7 148.0,245.7 108.0,264.9 68.0,260.5" fill="#bcbddc" fill-opacity="0.9" stroke="#fff" stroke-width="0.4"><title>ir_builder — performMandatoryEarlyInlining</title></polygon>
<polygon points="68.0,260.5 108.0,264.8 148.0,245.7 188.0,253.7 228.0,267.3 268.0,270.8 308.0,458.6 348.0,459.9 388.0,460.5 428.0,460.8 468.0,461.6 508.0,461.5 548.0,460.8 588.0,461.0 628.0,459.7 668.0,459.1 708.0,459.2 748.0,460.0 788.0,450.0 828.0,456.8 868.0,457.4 908.0,449.3 948.0,453.2 988.0,458.9 1028.0,460.6 1068.0,512.6 1108.0,513.2 1108.0,513.2 1068.0,512.6 1028.0,460.7 988.0,459.0 948.0,453.2 908.0,449.3 868.0,457.4 828.0,456.8 788.0,450.0 748.0,460.0 708.0,459.2 668.0,459.1 628.0,459.7 588.0,461.0 548.0,460.9 508.0,461.5 468.0,461.6 428.0,460.9 388.0,460.5 348.0,459.9 308.0,458.6 268.0,270.8 228.0,267.3 188.0,253.7 148.0,245.7 108.0,264.9 68.0,260.5" fill="#dadaeb" fill-opacity="0.9" stroke="#fff" stroke-width="0.4"><title>ir_builder — performForceInlining</title></polygon>
<polygon points="68.0,259.8 108.0,264.3 148.0,245.7 188.0,250.4 228.0,266.9 268.0,270.6 308.0,458.1 348.0,459.3 388.0,460.0 428.0,460.0 468.0,461.0 508.0,461.0 548.0,460.3 588.0,460.4 628.0,459.4 668.0,458.6 708.0,458.2 748.0,459.4 788.0,422.1 828.0,430.7 868.0,432.1 908.0,421.3 948.0,422.3 988.0,431.6 1028.0,433.5 1068.0,511.9 1108.0,512.6 1108.0,513.2 1068.0,512.6 1028.0,460.6 988.0,458.9 948.0,453.2 908.0,449.3 868.0,457.4 828.0,456.8 788.0,450.0 748.0,460.0 708.0,459.2 668.0,459.1 628.0,459.7 588.0,461.0 548.0,460.8 508.0,461.5 468.0,461.6 428.0,460.8 388.0,460.5 348.0,459.9 308.0,458.6 268.0,270.8 228.0,267.3 188.0,253.7 148.0,245.7 108.0,264.8 68.0,260.5" fill="#4a1486" fill-opacity="0.9" stroke="#fff" stroke-width="0.4"><title>ir_builder — linkAndOptimizeIR (self)</title></polygon>
<polygon points="68.0,132.3 108.0,138.9 148.0,108.6 188.0,122.6 228.0,144.7 268.0,150.6 308.0,431.3 348.0,433.1 388.0,434.0 428.0,434.3 468.0,435.6 508.0,435.2 548.0,434.7 588.0,434.8 628.0,433.3 668.0,432.2 708.0,431.8 748.0,433.3 788.0,391.6 828.0,404.2 868.0,405.7 908.0,392.9 948.0,391.1 988.0,403.5 1028.0,406.0 1068.0,510.4 1108.0,511.3 1108.0,512.6 1068.0,511.9 1028.0,433.5 988.0,431.6 948.0,422.3 908.0,421.3 868.0,432.1 828.0,430.7 788.0,422.1 748.0,459.4 708.0,458.2 668.0,458.6 628.0,459.4 588.0,460.4 548.0,460.3 508.0,461.0 468.0,461.0 428.0,460.0 388.0,460.0 348.0,459.3 308.0,458.1 268.0,270.6 228.0,266.9 188.0,250.4 148.0,245.7 108.0,264.3 68.0,259.8" fill="#e6550d" fill-opacity="0.9" stroke="#fff" stroke-width="0.4"><title>ir_builder — generateOutput (self)</title></polygon>
<polygon points="68.0,132.3 108.0,138.9 148.0,108.6 188.0,122.5 228.0,144.6 268.0,150.5 308.0,431.2 348.0,433.1 388.0,433.8 428.0,434.3 468.0,435.6 508.0,435.2 548.0,434.7 588.0,434.8 628.0,433.3 668.0,432.2 708.0,431.8 748.0,433.3 788.0,391.6 828.0,404.2 868.0,405.7 908.0,392.8 948.0,391.1 988.0,403.5 1028.0,406.0 1068.0,510.4 1108.0,511.3 1108.0,511.3 1068.0,510.4 1028.0,406.0 988.0,403.5 948.0,391.1 908.0,392.9 868.0,405.7 828.0,404.2 788.0,391.6 748.0,433.3 708.0,431.8 668.0,432.2 628.0,433.3 588.0,434.8 548.0,434.7 508.0,435.2 468.0,435.6 428.0,434.3 388.0,434.0 348.0,433.1 308.0,431.3 268.0,150.6 228.0,144.7 188.0,122.6 148.0,108.6 108.0,138.9 68.0,132.3" fill="#969696" fill-opacity="0.9" stroke="#fff" stroke-width="0.4"><title>ir_builder — compileInner (self)</title></polygon>
<text x="12" y="578" fill="#666" font-weight="600">phase buckets</text>
<rect x="12" y="586" width="12" height="12" fill="#c7e9c0"/>
<text x="28" y="596" fill="#222">parseTranslationUnit</text>
<rect x="289" y="586" width="12" height="12" fill="#41ab5d"/>
<text x="305" y="596" fill="#222">SemanticChecking</text>
<rect x="566" y="586" width="12" height="12" fill="#006d2c"/>
<text x="582" y="596" fill="#222">generateIR</text>
<rect x="843" y="586" width="12" height="12" fill="#74c476"/>
<text x="859" y="596" fill="#222">frontEndExecute (self)</text>
<rect x="12" y="604" width="12" height="12" fill="#6baed6"/>
<text x="28" y="614" fill="#222">specializeModule</text>
<rect x="289" y="604" width="12" height="12" fill="#2171b5"/>
<text x="305" y="614" fill="#222">simplifyIR</text>
<rect x="566" y="604" width="12" height="12" fill="#08306b"/>
<text x="582" y="614" fill="#222">linkIR</text>
<rect x="843" y="604" width="12" height="12" fill="#9e9ac8"/>
<text x="859" y="614" fill="#222">unrollLoopsInModule</text>
<rect x="12" y="622" width="12" height="12" fill="#807dba"/>
<text x="28" y="632" fill="#222">legalizeResourceTypes</text>
<rect x="289" y="622" width="12" height="12" fill="#6a51a3"/>
<text x="305" y="632" fill="#222">legalizeExistentialTypeLayout</text>
<rect x="566" y="622" width="12" height="12" fill="#bcbddc"/>
<text x="582" y="632" fill="#222">performMandatoryEarlyInlining</text>
<rect x="843" y="622" width="12" height="12" fill="#dadaeb"/>
<text x="859" y="632" fill="#222">performForceInlining</text>
<rect x="12" y="640" width="12" height="12" fill="#4a1486"/>
<text x="28" y="650" fill="#222">linkAndOptimizeIR (self)</text>
<rect x="289" y="640" width="12" height="12" fill="#fd8d3c"/>
<text x="305" y="650" fill="#222">emitEntryPointsSourceFromIR</text>
<rect x="566" y="640" width="12" height="12" fill="#e6550d"/>
<text x="582" y="650" fill="#222">generateOutput (self)</text>
<rect x="843" y="640" width="12" height="12" fill="#969696"/>
<text x="859" y="650" fill="#222">compileInner (self)</text>
</svg>