<svg xmlns="http://www.w3.org/2000/svg" xmlns:xlink="http://www.w3.org/1999/xlink" width="1132" height="680" viewBox="0 0 1132 680" preserveAspectRatio="xMidYMid meet" font-family="sans-serif" font-size="13">
<rect width="1132" height="680" fill="white"/>
<text x="12" y="30" font-size="20" font-weight="bold">ir_builder — Daily tip-of-tree (last 30 days) (median ms)</text>
<text x="68" y="60" font-size="15" font-weight="600" fill="#1a1a1a">ir_builder<tspan fill="#888" font-weight="400" text-decoration="none">  0.05×</tspan></text>
<line x1="68.0" y1="516.0" x2="1108.0" y2="516.0" stroke="#eee"/>
<text x="64.0" y="519.0" text-anchor="end" fill="#999">0.0</text>
<line x1="68.0" y1="296.0" x2="1108.0" y2="296.0" stroke="#eee"/>
<text x="64.0" y="299.0" text-anchor="end" fill="#999">716</text>
<line x1="68.0" y1="76.0" x2="1108.0" y2="76.0" stroke="#eee"/>
<text x="64.0" y="79.0" text-anchor="end" fill="#999">1431</text>
<line x1="68.0" y1="76.0" x2="68.0" y2="516.0" stroke="#333"/>
<line x1="68.0" y1="516.0" x2="1108.0" y2="516.0" stroke="#333"/>
<line x1="68.0" y1="516.0" x2="68.0" y2="519.0" stroke="#999"/>
<text x="68.0" y="531.0" text-anchor="end" fill="#e8731a" transform="rotate(-50 68.0 531.0)">06-25</text>
<line x1="125.8" y1="516.0" x2="125.8" y2="519.0" stroke="#999"/>
<text x="125.8" y="531.0" text-anchor="end" fill="#e8731a" transform="rotate(-50 125.8 531.0)">06-26</text>
<line x1="183.6" y1="516.0" x2="183.6" y2="519.0" stroke="#999"/>
<text x="183.6" y="531.0" text-anchor="end" fill="#e8731a" transform="rotate(-50 183.6 531.0)">06-28</text>
<line x1="241.3" y1="516.0" x2="241.3" y2="519.0" stroke="#999"/>
<text x="241.3" y="531.0" text-anchor="end" fill="#e8731a" transform="rotate(-50 241.3 531.0)">07-01</text>
<line x1="299.1" y1="516.0" x2="299.1" y2="519.0" stroke="#999"/>
<text x="299.1" y="531.0" text-anchor="end" fill="#e8731a" transform="rotate(-50 299.1 531.0)">07-02</text>
<line x1="356.9" y1="516.0" x2="356.9" y2="519.0" stroke="#999"/>
<text x="356.9" y="531.0" text-anchor="end" fill="#e8731a" transform="rotate(-50 356.9 531.0)">07-03</text>
<line x1="414.7" y1="516.0" x2="414.7" y2="519.0" stroke="#999"/>
<text x="414.7" y="531.0" text-anchor="end" fill="#e8731a" transform="rotate(-50 414.7 531.0)">07-06</text>
<line x1="472.4" y1="516.0" x2="472.4" y2="519.0" stroke="#999"/>
<text x="472.4" y="531.0" text-anchor="end" fill="#e8731a" transform="rotate(-50 472.4 531.0)">07-07</text>
<line x1="530.2" y1="516.0" x2="530.2" y2="519.0" stroke="#999"/>
<text x="530.2" y="531.0" text-anchor="end" fill="#e8731a" transform="rotate(-50 530.2 531.0)">07-08</text>
<line x1="588.0" y1="516.0" x2="588.0" y2="519.0" stroke="#999"/>
<text x="588.0" y="531.0" text-anchor="end" fill="#e8731a" transform="rotate(-50 588.0 531.0)">07-09</text>
<line x1="645.8" y1="516.0" x2="645.8" y2="519.0" stroke="#999"/>
<text x="645.8" y="531.0" text-anchor="end" fill="#e8731a" transform="rotate(-50 645.8 531.0)">07-10</text>
<line x1="703.6" y1="516.0" x2="703.6" y2="519.0" stroke="#999"/>
<text x="703.6" y="531.0" text-anchor="end" fill="#e8731a" transform="rotate(-50 703.6 531.0)">07-11</text>
<line x1="761.3" y1="516.0" x2="761.3" y2="519.0" stroke="#999"/>
<text x="761.3" y="531.0" text-anchor="end" fill="#e8731a" transform="rotate(-50 761.3 531.0)">07-14</text>
<line x1="819.1" y1="516.0" x2="819.1" y2="519.0" stroke="#999"/>
<text x="819.1" y="531.0" text-anchor="end" fill="#e8731a" transform="rotate(-50 819.1 531.0)">07-15</text>
<line x1="876.9" y1="516.0" x2="876.9" y2="519.0" stroke="#999"/>
<text x="876.9" y="531.0" text-anchor="end" fill="#e8731a" transform="rotate(-50 876.9 531.0)">07-15</text>
<line x1="934.7" y1="516.0" x2="934.7" y2="519.0" stroke="#999"/>
<text x="934.7" y="531.0" text-anchor="end" fill="#e8731a" transform="rotate(-50 934.7 531.0)">07-16</text>
<line x1="992.4" y1="516.0" x2="992.4" y2="519.0" stroke="#999"/>
<text x="992.4" y="531.0" text-anchor="end" fill="#e8731a" transform="rotate(-50 992.4 531.0)">07-17</text>
<line x1="1050.2" y1="516.0" x2="1050.2" y2="519.0" stroke="#999"/>
<text x="1050.2" y="531.0" text-anchor="end" fill="#e8731a" transform="rotate(-50 1050.2 531.0)">07-18</text>
<line x1="1108.0" y1="516.0" x2="1108.0" y2="519.0" stroke="#999"/>
<text x="1108.0" y="531.0" text-anchor="end" fill="#e8731a" transform="rotate(-50 1108.0 531.0)">07-19</text>
<polygon points="68.0,515.4 125.8,515.4 183.6,515.4 241.3,515.4 299.1,515.4 356.9,515.4 414.7,515.3 472.4,515.5 530.2,515.5 588.0,515.5 645.8,515.5 703.6,515.4 761.3,515.5 819.1,515.5 876.9,515.5 934.7,515.5 992.4,515.5 1050.2,515.5 1108.0,515.5 1108.0,516.0 1050.2,516.0 992.4,516.0 934.7,516.0 876.9,516.0 819.1,516.0 761.3,516.0 703.6,516.0 645.8,516.0 588.0,516.0 530.2,516.0 472.4,516.0 414.7,516.0 356.9,516.0 299.1,516.0 241.3,516.0 183.6,516.0 125.8,516.0 68.0,516.0" fill="#c7e9c0" fill-opacity="0.9" stroke="#fff" stroke-width="0.4"><title>ir_builder — parseTranslationUnit</title></polygon>
<polygon points="68.0,510.2 125.8,510.2 183.6,510.2 241.3,510.2 299.1,510.2 356.9,510.2 414.7,510.1 472.4,510.7 530.2,510.7 588.0,510.6 645.8,510.6 703.6,510.7 761.3,510.7 819.1,511.1 876.9,511.2 934.7,510.8 992.4,510.7 1050.2,511.2 1108.0,511.1 1108.0,515.5 1050.2,515.5 992.4,515.5 934.7,515.5 876.9,515.5 819.1,515.5 761.3,515.5 703.6,515.4 645.8,515.5 588.0,515.5 530.2,515.5 472.4,515.5 414.7,515.3 356.9,515.4 299.1,515.4 241.3,515.4 183.6,515.4 125.8,515.4 68.0,515.4" fill="#41ab5d" fill-opacity="0.9" stroke="#fff" stroke-width="0.4"><title>ir_builder — SemanticChecking</title></polygon>
<polygon points="68.0,507.7 125.8,507.8 183.6,507.7 241.3,507.7 299.1,507.8 356.9,507.6 414.7,507.7 472.4,508.1 530.2,508.2 588.0,508.2 645.8,508.0 703.6,508.2 761.3,508.2 819.1,508.8 876.9,508.7 934.7,508.6 992.4,508.5 1050.2,509.4 1108.0,509.3 1108.0,511.1 1050.2,511.2 992.4,510.7 934.7,510.8 876.9,511.2 819.1,511.1 761.3,510.7 703.6,510.7 645.8,510.6 588.0,510.6 530.2,510.7 472.4,510.7 414.7,510.1 356.9,510.2 299.1,510.2 241.3,510.2 183.6,510.2 125.8,510.2 68.0,510.2" fill="#006d2c" fill-opacity="0.9" stroke="#fff" stroke-width="0.4"><title>ir_builder — generateIR</title></polygon>
<polygon points="68.0,507.6 125.8,507.6 183.6,507.5 241.3,507.6 299.1,507.6 356.9,507.6 414.7,507.5 472.4,508.0 530.2,508.1 588.0,508.0 645.8,507.9 703.6,508.1 761.3,508.1 819.1,508.6 876.9,508.6 934.7,508.5 992.4,508.4 1050.2,509.3 1108.0,509.2 1108.0,509.3 1050.2,509.4 992.4,508.5 934.7,508.6 876.9,508.7 819.1,508.8 761.3,508.2 703.6,508.2 645.8,508.0 588.0,508.2 530.2,508.2 472.4,508.1 414.7,507.7 356.9,507.6 299.1,507.8 241.3,507.7 183.6,507.7 125.8,507.8 68.0,507.7" fill="#74c476" fill-opacity="0.9" stroke="#fff" stroke-width="0.4"><title>ir_builder — frontEndExecute (self)</title></polygon>
<polygon points="68.0,505.0 125.8,505.1 183.6,504.9 241.3,505.0 299.1,505.0 356.9,505.0 414.7,504.9 472.4,506.9 530.2,506.9 588.0,506.9 645.8,506.8 703.6,506.9 761.3,506.9 819.1,507.6 876.9,507.6 934.7,507.5 992.4,507.4 1050.2,508.3 1108.0,508.2 1108.0,509.2 1050.2,509.3 992.4,508.4 934.7,508.5 876.9,508.6 819.1,508.6 761.3,508.1 703.6,508.1 645.8,507.9 588.0,508.0 530.2,508.1 472.4,508.0 414.7,507.5 356.9,507.6 299.1,507.6 241.3,507.6 183.6,507.5 125.8,507.6 68.0,507.6" fill="#6baed6" fill-opacity="0.9" stroke="#fff" stroke-width="0.4"><title>ir_builder — specializeModule</title></polygon>
<polygon points="68.0,501.2 125.8,501.3 183.6,501.1 241.3,501.2 299.1,500.8 356.9,501.0 414.7,500.9 472.4,504.5 530.2,504.3 588.0,504.4 645.8,504.3 703.6,504.3 761.3,504.4 819.1,505.0 876.9,505.0 934.7,504.9 992.4,504.8 1050.2,506.4 1108.0,506.2 1108.0,508.2 1050.2,508.3 992.4,507.4 934.7,507.5 876.9,507.6 819.1,507.6 761.3,506.9 703.6,506.9 645.8,506.8 588.0,506.9 530.2,506.9 472.4,506.9 414.7,504.9 356.9,505.0 299.1,505.0 241.3,505.0 183.6,504.9 125.8,505.1 68.0,505.0" fill="#2171b5" fill-opacity="0.9" stroke="#fff" stroke-width="0.4"><title>ir_builder — simplifyIR</title></polygon>
<polygon points="68.0,500.6 125.8,500.7 183.6,500.4 241.3,500.7 299.1,500.2 356.9,500.5 414.7,500.3 472.4,503.9 530.2,503.8 588.0,503.9 645.8,503.8 703.6,503.8 761.3,503.9 819.1,504.5 876.9,504.5 934.7,504.4 992.4,504.4 1050.2,505.9 1108.0,505.7 1108.0,506.2 1050.2,506.4 992.4,504.8 934.7,504.9 876.9,505.0 819.1,505.0 761.3,504.4 703.6,504.3 645.8,504.3 588.0,504.4 530.2,504.3 472.4,504.5 414.7,500.9 356.9,501.0 299.1,500.8 241.3,501.2 183.6,501.1 125.8,501.3 68.0,501.2" fill="#08306b" fill-opacity="0.9" stroke="#fff" stroke-width="0.4"><title>ir_builder — linkIR</title></polygon>
<polygon points="68.0,500.5 125.8,500.7 183.6,500.4 241.3,500.7 299.1,500.2 356.9,500.5 414.7,500.3 472.4,503.9 530.2,503.8 588.0,503.9 645.8,503.8 703.6,503.8 761.3,503.9 819.1,504.5 876.9,504.5 934.7,504.4 992.4,504.4 1050.2,505.9 1108.0,505.7 1108.0,505.7 1050.2,505.9 992.4,504.4 934.7,504.4 876.9,504.5 819.1,504.5 761.3,503.9 703.6,503.8 645.8,503.8 588.0,503.9 530.2,503.8 472.4,503.9 414.7,500.3 356.9,500.5 299.1,500.2 241.3,500.7 183.6,500.4 125.8,500.7 68.0,500.6" fill="#9e9ac8" fill-opacity="0.9" stroke="#fff" stroke-width="0.4"><title>ir_builder — unrollLoopsInModule</title></polygon>
<polygon points="68.0,405.4 125.8,406.0 183.6,405.8 241.3,404.5 299.1,404.5 356.9,407.8 414.7,406.3 472.4,412.5 530.2,409.8 588.0,409.0 645.8,503.4 703.6,503.3 761.3,503.4 819.1,504.1 876.9,504.1 934.7,504.0 992.4,504.0 1050.2,505.5 1108.0,505.3 1108.0,505.7 1050.2,505.9 992.4,504.4 934.7,504.4 876.9,504.5 819.1,504.5 761.3,503.9 703.6,503.8 645.8,503.8 588.0,503.9 530.2,503.8 472.4,503.9 414.7,500.3 356.9,500.5 299.1,500.2 241.3,500.7 183.6,500.4 125.8,500.7 68.0,500.5" fill="#807dba" fill-opacity="0.9" stroke="#fff" stroke-width="0.4"><title>ir_builder — legalizeResourceTypes</title></polygon>
<polygon points="68.0,309.4 125.8,310.3 183.6,310.0 241.3,307.7 299.1,307.6 356.9,312.6 414.7,311.6 472.4,318.7 530.2,315.0 588.0,313.9 645.8,503.0 703.6,502.9 761.3,503.0 819.1,503.6 876.9,503.6 934.7,503.6 992.4,503.5 1050.2,505.1 1108.0,504.9 1108.0,505.3 1050.2,505.5 992.4,504.0 934.7,504.0 876.9,504.1 819.1,504.1 761.3,503.4 703.6,503.3 645.8,503.4 588.0,409.0 530.2,409.8 472.4,412.5 414.7,406.3 356.9,407.8 299.1,404.5 241.3,404.5 183.6,405.8 125.8,406.0 68.0,405.4" fill="#6a51a3" fill-opacity="0.9" stroke="#fff" stroke-width="0.4"><title>ir_builder — legalizeExistentialTypeLayout</title></polygon>
<polygon points="68.0,309.4 125.8,310.3 183.6,310.0 241.3,307.7 299.1,307.6 356.9,312.6 414.7,311.5 472.4,318.7 530.2,315.0 588.0,313.8 645.8,503.0 703.6,502.8 761.3,502.9 819.1,503.6 876.9,503.6 934.7,503.5 992.4,503.5 1050.2,505.1 1108.0,504.9 1108.0,504.9 1050.2,505.1 992.4,503.5 934.7,503.6 876.9,503.6 819.1,503.6 761.3,503.0 703.6,502.9 645.8,503.0 588.0,313.9 530.2,315.0 472.4,318.7 414.7,311.6 356.9,312.6 299.1,307.6 241.3,307.7 183.6,310.0 125.8,310.3 68.0,309.4" fill="#bcbddc" fill-opacity="0.9" stroke="#fff" stroke-width="0.4"><title>ir_builder — performMandatoryEarlyInlining</title></polygon>
<polygon points="68.0,309.4 125.8,310.2 183.6,309.9 241.3,307.6 299.1,307.5 356.9,312.5 414.7,311.5 472.4,318.6 530.2,314.9 588.0,313.8 645.8,502.9 703.6,502.8 761.3,502.9 819.1,503.6 876.9,503.6 934.7,503.5 992.4,503.4 1050.2,505.0 1108.0,504.8 1108.0,504.9 1050.2,505.1 992.4,503.5 934.7,503.5 876.9,503.6 819.1,503.6 761.3,502.9 703.6,502.8 645.8,503.0 588.0,313.8 530.2,315.0 472.4,318.7 414.7,311.5 356.9,312.6 299.1,307.6 241.3,307.7 183.6,310.0 125.8,310.3 68.0,309.4" fill="#dadaeb" fill-opacity="0.9" stroke="#fff" stroke-width="0.4"><title>ir_builder — performForceInlining</title></polygon>
<polygon points="68.0,211.0 125.8,211.6 183.6,212.2 241.3,209.4 299.1,208.6 356.9,216.7 414.7,213.9 472.4,223.7 530.2,217.7 588.0,216.1 645.8,500.0 703.6,499.6 761.3,499.8 819.1,501.1 876.9,501.0 934.7,501.0 992.4,500.9 1050.2,502.8 1108.0,502.6 1108.0,504.8 1050.2,505.0 992.4,503.4 934.7,503.5 876.9,503.6 819.1,503.6 761.3,502.9 703.6,502.8 645.8,502.9 588.0,313.8 530.2,314.9 472.4,318.6 414.7,311.5 356.9,312.5 299.1,307.5 241.3,307.6 183.6,309.9 125.8,310.2 68.0,309.4" fill="#4a1486" fill-opacity="0.9" stroke="#fff" stroke-width="0.4"><title>ir_builder — linkAndOptimizeIR (self)</title></polygon>
<polygon points="68.0,110.2 125.8,113.3 183.6,112.6 241.3,108.7 299.1,109.0 356.9,118.4 414.7,115.0 472.4,124.8 530.2,119.7 588.0,116.7 645.8,494.9 703.6,494.0 761.3,494.5 819.1,496.0 876.9,495.7 934.7,495.8 992.4,495.7 1050.2,497.8 1108.0,497.6 1108.0,502.6 1050.2,502.8 992.4,500.9 934.7,501.0 876.9,501.0 819.1,501.1 761.3,499.8 703.6,499.6 645.8,500.0 588.0,216.1 530.2,217.7 472.4,223.7 414.7,213.9 356.9,216.7 299.1,208.6 241.3,209.4 183.6,212.2 125.8,211.6 68.0,211.0" fill="#e6550d" fill-opacity="0.9" stroke="#fff" stroke-width="0.4"><title>ir_builder — generateOutput (self)</title></polygon>
<polygon points="68.0,110.2 125.8,112.9 183.6,112.6 241.3,108.6 299.1,109.0 356.9,118.4 414.7,114.9 472.4,124.6 530.2,119.6 588.0,116.5 645.8,494.6 703.6,494.0 761.3,494.5 819.1,495.9 876.9,495.7 934.7,495.7 992.4,495.6 1050.2,497.8 1108.0,497.5 1108.0,497.6 1050.2,497.8 992.4,495.7 934.7,495.8 876.9,495.7 819.1,496.0 761.3,494.5 703.6,494.0 645.8,494.9 588.0,116.7 530.2,119.7 472.4,124.8 414.7,115.0 356.9,118.4 299.1,109.0 241.3,108.7 183.6,112.6 125.8,113.3 68.0,110.2" fill="#969696" fill-opacity="0.9" stroke="#fff" stroke-width="0.4"><title>ir_builder — compileInner (self)</title></polygon>
<text x="12" y="578" fill="#666" font-weight="600">phase buckets</text>
<rect x="12" y="586" width="12" height="12" fill="#c7e9c0"/>
<text x="28" y="596" fill="#222">parseTranslationUnit</text>
<rect x="289" y="586" width="12" height="12" fill="#41ab5d"/>
<text x="305" y="596" fill="#222">SemanticChecking</text>
<rect x="566" y="586" width="12" height="12" fill="#006d2c"/>
<text x="582" y="596" fill="#222">generateIR</text>
<rect x="843" y="586" width="12" height="12" fill="#74c476"/>
<text x="859" y="596" fill="#222">frontEndExecute (self)</text>
<rect x="12" y="604" width="12" height="12" fill="#6baed6"/>
<text x="28" y="614" fill="#222">specializeModule</text>
<rect x="289" y="604" width="12" height="12" fill="#2171b5"/>
<text x="305" y="614" fill="#222">simplifyIR</text>
<rect x="566" y="604" width="12" height="12" fill="#08306b"/>
<text x="582" y="614" fill="#222">linkIR</text>
<rect x="843" y="604" width="12" height="12" fill="#9e9ac8"/>
<text x="859" y="614" fill="#222">unrollLoopsInModule</text>
<rect x="12" y="622" width="12" height="12" fill="#807dba"/>
<text x="28" y="632" fill="#222">legalizeResourceTypes</text>
<rect x="289" y="622" width="12" height="12" fill="#6a51a3"/>
<text x="305" y="632" fill="#222">legalizeExistentialTypeLayout</text>
<rect x="566" y="622" width="12" height="12" fill="#bcbddc"/>
<text x="582" y="632" fill="#222">performMandatoryEarlyInlining</text>
<rect x="843" y="622" width="12" height="12" fill="#dadaeb"/>
<text x="859" y="632" fill="#222">performForceInlining</text>
<rect x="12" y="640" width="12" height="12" fill="#4a1486"/>
<text x="28" y="650" fill="#222">linkAndOptimizeIR (self)</text>
<rect x="289" y="640" width="12" height="12" fill="#fd8d3c"/>
<text x="305" y="650" fill="#222">emitEntryPointsSourceFromIR</text>
<rect x="566" y="640" width="12" height="12" fill="#e6550d"/>
<text x="582" y="650" fill="#222">generateOutput (self)</text>
<rect x="843" y="640" width="12" height="12" fill="#969696"/>
<text x="859" y="650" fill="#222">compileInner (self)</text>
</svg>