<svg xmlns="http://www.w3.org/2000/svg" xmlns:xlink="http://www.w3.org/1999/xlink" width="1132" height="680" viewBox="0 0 1132 680" preserveAspectRatio="xMidYMid meet" font-family="sans-serif" font-size="13">
<rect width="1132" height="680" fill="white"/>
<text x="12" y="30" font-size="20" font-weight="bold">ir_builder — Daily tip-of-tree (last 30 days) (median ms)</text>
<text x="68" y="60" font-size="15" font-weight="600" fill="#1a1a1a">ir_builder<tspan fill="#888" font-weight="400" text-decoration="none">  0.05×</tspan></text>
<line x1="68.0" y1="516.0" x2="1108.0" y2="516.0" stroke="#eee"/>
<text x="64.0" y="519.0" text-anchor="end" fill="#999">0.0</text>
<line x1="68.0" y1="296.0" x2="1108.0" y2="296.0" stroke="#eee"/>
<text x="64.0" y="299.0" text-anchor="end" fill="#999">716</text>
<line x1="68.0" y1="76.0" x2="1108.0" y2="76.0" stroke="#eee"/>
<text x="64.0" y="79.0" text-anchor="end" fill="#999">1431</text>
<line x1="68.0" y1="76.0" x2="68.0" y2="516.0" stroke="#333"/>
<line x1="68.0" y1="516.0" x2="1108.0" y2="516.0" stroke="#333"/>
<line x1="68.0" y1="516.0" x2="68.0" y2="519.0" stroke="#999"/>
<text x="68.0" y="531.0" text-anchor="end" fill="#e8731a" transform="rotate(-50 68.0 531.0)">06-25</text>
<line x1="133.0" y1="516.0" x2="133.0" y2="519.0" stroke="#999"/>
<text x="133.0" y="531.0" text-anchor="end" fill="#e8731a" transform="rotate(-50 133.0 531.0)">06-26</text>
<line x1="198.0" y1="516.0" x2="198.0" y2="519.0" stroke="#999"/>
<text x="198.0" y="531.0" text-anchor="end" fill="#e8731a" transform="rotate(-50 198.0 531.0)">06-28</text>
<line x1="263.0" y1="516.0" x2="263.0" y2="519.0" stroke="#999"/>
<text x="263.0" y="531.0" text-anchor="end" fill="#e8731a" transform="rotate(-50 263.0 531.0)">07-01</text>
<line x1="328.0" y1="516.0" x2="328.0" y2="519.0" stroke="#999"/>
<text x="328.0" y="531.0" text-anchor="end" fill="#e8731a" transform="rotate(-50 328.0 531.0)">07-02</text>
<line x1="393.0" y1="516.0" x2="393.0" y2="519.0" stroke="#999"/>
<text x="393.0" y="531.0" text-anchor="end" fill="#e8731a" transform="rotate(-50 393.0 531.0)">07-03</text>
<line x1="458.0" y1="516.0" x2="458.0" y2="519.0" stroke="#999"/>
<text x="458.0" y="531.0" text-anchor="end" fill="#e8731a" transform="rotate(-50 458.0 531.0)">07-06</text>
<line x1="523.0" y1="516.0" x2="523.0" y2="519.0" stroke="#999"/>
<text x="523.0" y="531.0" text-anchor="end" fill="#e8731a" transform="rotate(-50 523.0 531.0)">07-07</text>
<line x1="588.0" y1="516.0" x2="588.0" y2="519.0" stroke="#999"/>
<text x="588.0" y="531.0" text-anchor="end" fill="#e8731a" transform="rotate(-50 588.0 531.0)">07-08</text>
<line x1="653.0" y1="516.0" x2="653.0" y2="519.0" stroke="#999"/>
<text x="653.0" y="531.0" text-anchor="end" fill="#e8731a" transform="rotate(-50 653.0 531.0)">07-09</text>
<line x1="718.0" y1="516.0" x2="718.0" y2="519.0" stroke="#999"/>
<text x="718.0" y="531.0" text-anchor="end" fill="#e8731a" transform="rotate(-50 718.0 531.0)">07-10</text>
<line x1="783.0" y1="516.0" x2="783.0" y2="519.0" stroke="#999"/>
<text x="783.0" y="531.0" text-anchor="end" fill="#e8731a" transform="rotate(-50 783.0 531.0)">07-11</text>
<line x1="848.0" y1="516.0" x2="848.0" y2="519.0" stroke="#999"/>
<text x="848.0" y="531.0" text-anchor="end" fill="#e8731a" transform="rotate(-50 848.0 531.0)">07-14</text>
<line x1="913.0" y1="516.0" x2="913.0" y2="519.0" stroke="#999"/>
<text x="913.0" y="531.0" text-anchor="end" fill="#e8731a" transform="rotate(-50 913.0 531.0)">07-15</text>
<line x1="978.0" y1="516.0" x2="978.0" y2="519.0" stroke="#999"/>
<text x="978.0" y="531.0" text-anchor="end" fill="#e8731a" transform="rotate(-50 978.0 531.0)">07-15</text>
<line x1="1043.0" y1="516.0" x2="1043.0" y2="519.0" stroke="#999"/>
<text x="1043.0" y="531.0" text-anchor="end" fill="#e8731a" transform="rotate(-50 1043.0 531.0)">07-16</text>
<line x1="1108.0" y1="516.0" x2="1108.0" y2="519.0" stroke="#999"/>
<text x="1108.0" y="531.0" text-anchor="end" fill="#e8731a" transform="rotate(-50 1108.0 531.0)">07-17</text>
<polygon points="68.0,515.4 133.0,515.4 198.0,515.4 263.0,515.4 328.0,515.4 393.0,515.4 458.0,515.3 523.0,515.5 588.0,515.5 653.0,515.5 718.0,515.5 783.0,515.4 848.0,515.5 913.0,515.5 978.0,515.5 1043.0,515.5 1108.0,515.5 1108.0,516.0 1043.0,516.0 978.0,516.0 913.0,516.0 848.0,516.0 783.0,516.0 718.0,516.0 653.0,516.0 588.0,516.0 523.0,516.0 458.0,516.0 393.0,516.0 328.0,516.0 263.0,516.0 198.0,516.0 133.0,516.0 68.0,516.0" fill="#c7e9c0" fill-opacity="0.9" stroke="#fff" stroke-width="0.4"><title>ir_builder — parseTranslationUnit</title></polygon>
<polygon points="68.0,510.2 133.0,510.2 198.0,510.2 263.0,510.2 328.0,510.2 393.0,510.2 458.0,510.1 523.0,510.7 588.0,510.7 653.0,510.6 718.0,510.6 783.0,510.7 848.0,510.7 913.0,511.1 978.0,511.2 1043.0,510.8 1108.0,510.7 1108.0,515.5 1043.0,515.5 978.0,515.5 913.0,515.5 848.0,515.5 783.0,515.4 718.0,515.5 653.0,515.5 588.0,515.5 523.0,515.5 458.0,515.3 393.0,515.4 328.0,515.4 263.0,515.4 198.0,515.4 133.0,515.4 68.0,515.4" fill="#41ab5d" fill-opacity="0.9" stroke="#fff" stroke-width="0.4"><title>ir_builder — SemanticChecking</title></polygon>
<polygon points="68.0,507.7 133.0,507.8 198.0,507.7 263.0,507.7 328.0,507.8 393.0,507.6 458.0,507.7 523.0,508.1 588.0,508.2 653.0,508.2 718.0,508.0 783.0,508.2 848.0,508.2 913.0,508.8 978.0,508.7 1043.0,508.6 1108.0,508.5 1108.0,510.7 1043.0,510.8 978.0,511.2 913.0,511.1 848.0,510.7 783.0,510.7 718.0,510.6 653.0,510.6 588.0,510.7 523.0,510.7 458.0,510.1 393.0,510.2 328.0,510.2 263.0,510.2 198.0,510.2 133.0,510.2 68.0,510.2" fill="#006d2c" fill-opacity="0.9" stroke="#fff" stroke-width="0.4"><title>ir_builder — generateIR</title></polygon>
<polygon points="68.0,507.6 133.0,507.6 198.0,507.5 263.0,507.6 328.0,507.6 393.0,507.6 458.0,507.5 523.0,508.0 588.0,508.1 653.0,508.0 718.0,507.9 783.0,508.1 848.0,508.1 913.0,508.6 978.0,508.6 1043.0,508.5 1108.0,508.4 1108.0,508.5 1043.0,508.6 978.0,508.7 913.0,508.8 848.0,508.2 783.0,508.2 718.0,508.0 653.0,508.2 588.0,508.2 523.0,508.1 458.0,507.7 393.0,507.6 328.0,507.8 263.0,507.7 198.0,507.7 133.0,507.8 68.0,507.7" fill="#74c476" fill-opacity="0.9" stroke="#fff" stroke-width="0.4"><title>ir_builder — frontEndExecute (self)</title></polygon>
<polygon points="68.0,505.0 133.0,505.1 198.0,504.9 263.0,505.0 328.0,505.0 393.0,505.0 458.0,504.9 523.0,506.9 588.0,506.9 653.0,506.9 718.0,506.8 783.0,506.9 848.0,506.9 913.0,507.6 978.0,507.6 1043.0,507.5 1108.0,507.4 1108.0,508.4 1043.0,508.5 978.0,508.6 913.0,508.6 848.0,508.1 783.0,508.1 718.0,507.9 653.0,508.0 588.0,508.1 523.0,508.0 458.0,507.5 393.0,507.6 328.0,507.6 263.0,507.6 198.0,507.5 133.0,507.6 68.0,507.6" fill="#6baed6" fill-opacity="0.9" stroke="#fff" stroke-width="0.4"><title>ir_builder — specializeModule</title></polygon>
<polygon points="68.0,501.2 133.0,501.3 198.0,501.1 263.0,501.2 328.0,500.8 393.0,501.0 458.0,500.9 523.0,504.5 588.0,504.3 653.0,504.4 718.0,504.3 783.0,504.3 848.0,504.4 913.0,505.0 978.0,505.0 1043.0,504.9 1108.0,504.8 1108.0,507.4 1043.0,507.5 978.0,507.6 913.0,507.6 848.0,506.9 783.0,506.9 718.0,506.8 653.0,506.9 588.0,506.9 523.0,506.9 458.0,504.9 393.0,505.0 328.0,505.0 263.0,505.0 198.0,504.9 133.0,505.1 68.0,505.0" fill="#2171b5" fill-opacity="0.9" stroke="#fff" stroke-width="0.4"><title>ir_builder — simplifyIR</title></polygon>
<polygon points="68.0,500.6 133.0,500.7 198.0,500.4 263.0,500.7 328.0,500.2 393.0,500.5 458.0,500.3 523.0,503.9 588.0,503.8 653.0,503.9 718.0,503.8 783.0,503.8 848.0,503.9 913.0,504.5 978.0,504.5 1043.0,504.4 1108.0,504.4 1108.0,504.8 1043.0,504.9 978.0,505.0 913.0,505.0 848.0,504.4 783.0,504.3 718.0,504.3 653.0,504.4 588.0,504.3 523.0,504.5 458.0,500.9 393.0,501.0 328.0,500.8 263.0,501.2 198.0,501.1 133.0,501.3 68.0,501.2" fill="#08306b" fill-opacity="0.9" stroke="#fff" stroke-width="0.4"><title>ir_builder — linkIR</title></polygon>
<polygon points="68.0,500.5 133.0,500.7 198.0,500.4 263.0,500.7 328.0,500.2 393.0,500.5 458.0,500.3 523.0,503.9 588.0,503.8 653.0,503.9 718.0,503.8 783.0,503.8 848.0,503.9 913.0,504.5 978.0,504.5 1043.0,504.4 1108.0,504.4 1108.0,504.4 1043.0,504.4 978.0,504.5 913.0,504.5 848.0,503.9 783.0,503.8 718.0,503.8 653.0,503.9 588.0,503.8 523.0,503.9 458.0,500.3 393.0,500.5 328.0,500.2 263.0,500.7 198.0,500.4 133.0,500.7 68.0,500.6" fill="#9e9ac8" fill-opacity="0.9" stroke="#fff" stroke-width="0.4"><title>ir_builder — unrollLoopsInModule</title></polygon>
<polygon points="68.0,405.4 133.0,406.0 198.0,405.8 263.0,404.5 328.0,404.5 393.0,407.8 458.0,406.3 523.0,412.5 588.0,409.8 653.0,409.0 718.0,503.4 783.0,503.3 848.0,503.4 913.0,504.1 978.0,504.1 1043.0,504.0 1108.0,504.0 1108.0,504.4 1043.0,504.4 978.0,504.5 913.0,504.5 848.0,503.9 783.0,503.8 718.0,503.8 653.0,503.9 588.0,503.8 523.0,503.9 458.0,500.3 393.0,500.5 328.0,500.2 263.0,500.7 198.0,500.4 133.0,500.7 68.0,500.5" fill="#807dba" fill-opacity="0.9" stroke="#fff" stroke-width="0.4"><title>ir_builder — legalizeResourceTypes</title></polygon>
<polygon points="68.0,309.4 133.0,310.3 198.0,310.0 263.0,307.7 328.0,307.6 393.0,312.6 458.0,311.6 523.0,318.7 588.0,315.0 653.0,313.9 718.0,503.0 783.0,502.9 848.0,503.0 913.0,503.6 978.0,503.6 1043.0,503.6 1108.0,503.5 1108.0,504.0 1043.0,504.0 978.0,504.1 913.0,504.1 848.0,503.4 783.0,503.3 718.0,503.4 653.0,409.0 588.0,409.8 523.0,412.5 458.0,406.3 393.0,407.8 328.0,404.5 263.0,404.5 198.0,405.8 133.0,406.0 68.0,405.4" fill="#6a51a3" fill-opacity="0.9" stroke="#fff" stroke-width="0.4"><title>ir_builder — legalizeExistentialTypeLayout</title></polygon>
<polygon points="68.0,309.4 133.0,310.3 198.0,310.0 263.0,307.7 328.0,307.6 393.0,312.6 458.0,311.5 523.0,318.7 588.0,315.0 653.0,313.8 718.0,503.0 783.0,502.8 848.0,502.9 913.0,503.6 978.0,503.6 1043.0,503.5 1108.0,503.5 1108.0,503.5 1043.0,503.6 978.0,503.6 913.0,503.6 848.0,503.0 783.0,502.9 718.0,503.0 653.0,313.9 588.0,315.0 523.0,318.7 458.0,311.6 393.0,312.6 328.0,307.6 263.0,307.7 198.0,310.0 133.0,310.3 68.0,309.4" fill="#bcbddc" fill-opacity="0.9" stroke="#fff" stroke-width="0.4"><title>ir_builder — performMandatoryEarlyInlining</title></polygon>
<polygon points="68.0,309.4 133.0,310.2 198.0,309.9 263.0,307.6 328.0,307.5 393.0,312.5 458.0,311.5 523.0,318.6 588.0,314.9 653.0,313.8 718.0,502.9 783.0,502.8 848.0,502.9 913.0,503.6 978.0,503.6 1043.0,503.5 1108.0,503.4 1108.0,503.5 1043.0,503.5 978.0,503.6 913.0,503.6 848.0,502.9 783.0,502.8 718.0,503.0 653.0,313.8 588.0,315.0 523.0,318.7 458.0,311.5 393.0,312.6 328.0,307.6 263.0,307.7 198.0,310.0 133.0,310.3 68.0,309.4" fill="#dadaeb" fill-opacity="0.9" stroke="#fff" stroke-width="0.4"><title>ir_builder — performForceInlining</title></polygon>
<polygon points="68.0,211.0 133.0,211.6 198.0,212.2 263.0,209.4 328.0,208.6 393.0,216.7 458.0,213.9 523.0,223.7 588.0,217.7 653.0,216.1 718.0,500.0 783.0,499.6 848.0,499.8 913.0,501.1 978.0,501.0 1043.0,501.0 1108.0,500.9 1108.0,503.4 1043.0,503.5 978.0,503.6 913.0,503.6 848.0,502.9 783.0,502.8 718.0,502.9 653.0,313.8 588.0,314.9 523.0,318.6 458.0,311.5 393.0,312.5 328.0,307.5 263.0,307.6 198.0,309.9 133.0,310.2 68.0,309.4" fill="#4a1486" fill-opacity="0.9" stroke="#fff" stroke-width="0.4"><title>ir_builder — linkAndOptimizeIR (self)</title></polygon>
<polygon points="68.0,110.2 133.0,113.3 198.0,112.6 263.0,108.7 328.0,109.0 393.0,118.4 458.0,115.0 523.0,124.8 588.0,119.7 653.0,116.7 718.0,494.9 783.0,494.0 848.0,494.5 913.0,496.0 978.0,495.7 1043.0,495.8 1108.0,495.7 1108.0,500.9 1043.0,501.0 978.0,501.0 913.0,501.1 848.0,499.8 783.0,499.6 718.0,500.0 653.0,216.1 588.0,217.7 523.0,223.7 458.0,213.9 393.0,216.7 328.0,208.6 263.0,209.4 198.0,212.2 133.0,211.6 68.0,211.0" fill="#e6550d" fill-opacity="0.9" stroke="#fff" stroke-width="0.4"><title>ir_builder — generateOutput (self)</title></polygon>
<polygon points="68.0,110.2 133.0,112.9 198.0,112.6 263.0,108.6 328.0,109.0 393.0,118.4 458.0,114.9 523.0,124.6 588.0,119.6 653.0,116.5 718.0,494.6 783.0,494.0 848.0,494.5 913.0,495.9 978.0,495.7 1043.0,495.7 1108.0,495.6 1108.0,495.7 1043.0,495.8 978.0,495.7 913.0,496.0 848.0,494.5 783.0,494.0 718.0,494.9 653.0,116.7 588.0,119.7 523.0,124.8 458.0,115.0 393.0,118.4 328.0,109.0 263.0,108.7 198.0,112.6 133.0,113.3 68.0,110.2" fill="#969696" fill-opacity="0.9" stroke="#fff" stroke-width="0.4"><title>ir_builder — compileInner (self)</title></polygon>
<text x="12" y="578" fill="#666" font-weight="600">phase buckets</text>
<rect x="12" y="586" width="12" height="12" fill="#c7e9c0"/>
<text x="28" y="596" fill="#222">parseTranslationUnit</text>
<rect x="289" y="586" width="12" height="12" fill="#41ab5d"/>
<text x="305" y="596" fill="#222">SemanticChecking</text>
<rect x="566" y="586" width="12" height="12" fill="#006d2c"/>
<text x="582" y="596" fill="#222">generateIR</text>
<rect x="843" y="586" width="12" height="12" fill="#74c476"/>
<text x="859" y="596" fill="#222">frontEndExecute (self)</text>
<rect x="12" y="604" width="12" height="12" fill="#6baed6"/>
<text x="28" y="614" fill="#222">specializeModule</text>
<rect x="289" y="604" width="12" height="12" fill="#2171b5"/>
<text x="305" y="614" fill="#222">simplifyIR</text>
<rect x="566" y="604" width="12" height="12" fill="#08306b"/>
<text x="582" y="614" fill="#222">linkIR</text>
<rect x="843" y="604" width="12" height="12" fill="#9e9ac8"/>
<text x="859" y="614" fill="#222">unrollLoopsInModule</text>
<rect x="12" y="622" width="12" height="12" fill="#807dba"/>
<text x="28" y="632" fill="#222">legalizeResourceTypes</text>
<rect x="289" y="622" width="12" height="12" fill="#6a51a3"/>
<text x="305" y="632" fill="#222">legalizeExistentialTypeLayout</text>
<rect x="566" y="622" width="12" height="12" fill="#bcbddc"/>
<text x="582" y="632" fill="#222">performMandatoryEarlyInlining</text>
<rect x="843" y="622" width="12" height="12" fill="#dadaeb"/>
<text x="859" y="632" fill="#222">performForceInlining</text>
<rect x="12" y="640" width="12" height="12" fill="#4a1486"/>
<text x="28" y="650" fill="#222">linkAndOptimizeIR (self)</text>
<rect x="289" y="640" width="12" height="12" fill="#fd8d3c"/>
<text x="305" y="650" fill="#222">emitEntryPointsSourceFromIR</text>
<rect x="566" y="640" width="12" height="12" fill="#e6550d"/>
<text x="582" y="650" fill="#222">generateOutput (self)</text>
<rect x="843" y="640" width="12" height="12" fill="#969696"/>
<text x="859" y="650" fill="#222">compileInner (self)</text>
</svg>