<svg xmlns="http://www.w3.org/2000/svg" xmlns:xlink="http://www.w3.org/1999/xlink" width="1132" height="680" viewBox="0 0 1132 680" preserveAspectRatio="xMidYMid meet" font-family="sans-serif" font-size="13">
<rect width="1132" height="680" fill="white"/>
<text x="12" y="30" font-size="20" font-weight="bold">ir_builder — full phase breakdown across releases (median ms)</text>
<text x="68" y="60" font-size="15" font-weight="600" fill="#1a1a1a">ir_builder<tspan fill="#888" font-weight="400" text-decoration="none">  0.02×</tspan></text>
<line x1="68.0" y1="516.0" x2="1108.0" y2="516.0" stroke="#eee"/>
<text x="64.0" y="519.0" text-anchor="end" fill="#999">0.0</text>
<line x1="68.0" y1="296.0" x2="1108.0" y2="296.0" stroke="#eee"/>
<text x="64.0" y="299.0" text-anchor="end" fill="#999">2536</text>
<line x1="68.0" y1="76.0" x2="1108.0" y2="76.0" stroke="#eee"/>
<text x="64.0" y="79.0" text-anchor="end" fill="#999">5071</text>
<line x1="68.0" y1="76.0" x2="68.0" y2="516.0" stroke="#333"/>
<line x1="68.0" y1="516.0" x2="1108.0" y2="516.0" stroke="#333"/>
<line x1="766.8" y1="76.0" x2="766.8" y2="516.0" stroke="#e8731a" stroke-width="1.2" stroke-dasharray="4 3"/>
<text x="769.8" y="87.0" fill="#e8731a" font-size="11">daily →</text>
<line x1="68.0" y1="516.0" x2="68.0" y2="519.0" stroke="#999"/>
<text x="68.0" y="531.0" text-anchor="end" fill="#666" transform="rotate(-50 68.0 531.0)">25.14</text>
<line x1="100.5" y1="516.0" x2="100.5" y2="519.0" stroke="#999"/>
<text x="100.5" y="531.0" text-anchor="end" fill="#666" transform="rotate(-50 100.5 531.0)">25.15</text>
<line x1="133.0" y1="516.0" x2="133.0" y2="519.0" stroke="#999"/>
<text x="133.0" y="531.0" text-anchor="end" fill="#666" transform="rotate(-50 133.0 531.0)">25.16</text>
<line x1="165.5" y1="516.0" x2="165.5" y2="519.0" stroke="#999"/>
<text x="165.5" y="531.0" text-anchor="end" fill="#666" transform="rotate(-50 165.5 531.0)">25.17</text>
<line x1="198.0" y1="516.0" x2="198.0" y2="519.0" stroke="#999"/>
<text x="198.0" y="531.0" text-anchor="end" fill="#666" transform="rotate(-50 198.0 531.0)">25.18</text>
<line x1="230.5" y1="516.0" x2="230.5" y2="519.0" stroke="#999"/>
<text x="230.5" y="531.0" text-anchor="end" fill="#666" transform="rotate(-50 230.5 531.0)">25.19</text>
<line x1="263.0" y1="516.0" x2="263.0" y2="519.0" stroke="#999"/>
<text x="263.0" y="531.0" text-anchor="end" fill="#666" transform="rotate(-50 263.0 531.0)">25.20</text>
<line x1="295.5" y1="516.0" x2="295.5" y2="519.0" stroke="#999"/>
<text x="295.5" y="531.0" text-anchor="end" fill="#666" transform="rotate(-50 295.5 531.0)">25.21</text>
<line x1="328.0" y1="516.0" x2="328.0" y2="519.0" stroke="#999"/>
<text x="328.0" y="531.0" text-anchor="end" fill="#666" transform="rotate(-50 328.0 531.0)">25.22</text>
<line x1="360.5" y1="516.0" x2="360.5" y2="519.0" stroke="#999"/>
<text x="360.5" y="531.0" text-anchor="end" fill="#666" transform="rotate(-50 360.5 531.0)">25.23</text>
<line x1="393.0" y1="516.0" x2="393.0" y2="519.0" stroke="#999"/>
<text x="393.0" y="531.0" text-anchor="end" fill="#666" transform="rotate(-50 393.0 531.0)">25.24</text>
<line x1="425.5" y1="516.0" x2="425.5" y2="519.0" stroke="#999"/>
<text x="425.5" y="531.0" text-anchor="end" fill="#666" transform="rotate(-50 425.5 531.0)">26.1</text>
<line x1="458.0" y1="516.0" x2="458.0" y2="519.0" stroke="#999"/>
<text x="458.0" y="531.0" text-anchor="end" fill="#666" transform="rotate(-50 458.0 531.0)">26.2</text>
<line x1="490.5" y1="516.0" x2="490.5" y2="519.0" stroke="#999"/>
<text x="490.5" y="531.0" text-anchor="end" fill="#666" transform="rotate(-50 490.5 531.0)">26.3</text>
<line x1="523.0" y1="516.0" x2="523.0" y2="519.0" stroke="#999"/>
<text x="523.0" y="531.0" text-anchor="end" fill="#666" transform="rotate(-50 523.0 531.0)">26.4</text>
<line x1="555.5" y1="516.0" x2="555.5" y2="519.0" stroke="#999"/>
<text x="555.5" y="531.0" text-anchor="end" fill="#666" transform="rotate(-50 555.5 531.0)">26.5</text>
<line x1="588.0" y1="516.0" x2="588.0" y2="519.0" stroke="#999"/>
<text x="588.0" y="531.0" text-anchor="end" fill="#666" transform="rotate(-50 588.0 531.0)">26.7</text>
<line x1="620.5" y1="516.0" x2="620.5" y2="519.0" stroke="#999"/>
<text x="620.5" y="531.0" text-anchor="end" fill="#666" transform="rotate(-50 620.5 531.0)">26.8</text>
<line x1="653.0" y1="516.0" x2="653.0" y2="519.0" stroke="#999"/>
<text x="653.0" y="531.0" text-anchor="end" fill="#666" transform="rotate(-50 653.0 531.0)">26.9</text>
<line x1="685.5" y1="516.0" x2="685.5" y2="519.0" stroke="#999"/>
<text x="685.5" y="531.0" text-anchor="end" fill="#666" transform="rotate(-50 685.5 531.0)">26.10</text>
<line x1="718.0" y1="516.0" x2="718.0" y2="519.0" stroke="#999"/>
<text x="718.0" y="531.0" text-anchor="end" fill="#666" transform="rotate(-50 718.0 531.0)">26.11</text>
<line x1="750.5" y1="516.0" x2="750.5" y2="519.0" stroke="#999"/>
<text x="750.5" y="531.0" text-anchor="end" fill="#666" transform="rotate(-50 750.5 531.0)">26.12</text>
<line x1="783.0" y1="516.0" x2="783.0" y2="519.0" stroke="#999"/>
<text x="783.0" y="531.0" text-anchor="end" fill="#e8731a" transform="rotate(-50 783.0 531.0)">06-25</text>
<line x1="815.5" y1="516.0" x2="815.5" y2="519.0" stroke="#999"/>
<text x="815.5" y="531.0" text-anchor="end" fill="#e8731a" transform="rotate(-50 815.5 531.0)">06-26</text>
<line x1="848.0" y1="516.0" x2="848.0" y2="519.0" stroke="#999"/>
<text x="848.0" y="531.0" text-anchor="end" fill="#e8731a" transform="rotate(-50 848.0 531.0)">06-28</text>
<line x1="880.5" y1="516.0" x2="880.5" y2="519.0" stroke="#999"/>
<text x="880.5" y="531.0" text-anchor="end" fill="#e8731a" transform="rotate(-50 880.5 531.0)">07-01</text>
<line x1="913.0" y1="516.0" x2="913.0" y2="519.0" stroke="#999"/>
<text x="913.0" y="531.0" text-anchor="end" fill="#e8731a" transform="rotate(-50 913.0 531.0)">07-02</text>
<line x1="945.5" y1="516.0" x2="945.5" y2="519.0" stroke="#999"/>
<text x="945.5" y="531.0" text-anchor="end" fill="#e8731a" transform="rotate(-50 945.5 531.0)">07-03</text>
<line x1="978.0" y1="516.0" x2="978.0" y2="519.0" stroke="#999"/>
<text x="978.0" y="531.0" text-anchor="end" fill="#e8731a" transform="rotate(-50 978.0 531.0)">07-07</text>
<line x1="1010.5" y1="516.0" x2="1010.5" y2="519.0" stroke="#999"/>
<text x="1010.5" y="531.0" text-anchor="end" fill="#e8731a" transform="rotate(-50 1010.5 531.0)">07-07</text>
<line x1="1043.0" y1="516.0" x2="1043.0" y2="519.0" stroke="#999"/>
<text x="1043.0" y="531.0" text-anchor="end" fill="#e8731a" transform="rotate(-50 1043.0 531.0)">07-09</text>
<line x1="1075.5" y1="516.0" x2="1075.5" y2="519.0" stroke="#999"/>
<text x="1075.5" y="531.0" text-anchor="end" fill="#e8731a" transform="rotate(-50 1075.5 531.0)">07-10</text>
<line x1="1108.0" y1="516.0" x2="1108.0" y2="519.0" stroke="#999"/>
<text x="1108.0" y="531.0" text-anchor="end" fill="#e8731a" transform="rotate(-50 1108.0 531.0)">07-11</text>
<polygon points="68.0,515.8 100.5,515.8 133.0,515.8 165.5,515.8 198.0,515.8 230.5,515.8 263.0,515.8 295.5,515.8 328.0,515.8 360.5,515.8 393.0,515.8 425.5,515.8 458.0,515.8 490.5,515.8 523.0,515.8 555.5,515.8 588.0,515.8 620.5,515.8 653.0,515.8 685.5,515.8 718.0,515.8 750.5,515.8 783.0,515.8 815.5,515.8 848.0,515.8 880.5,515.8 913.0,515.8 945.5,515.8 978.0,515.8 1010.5,515.8 1043.0,515.8 1075.5,515.8 1108.0,515.8 1108.0,516.0 1075.5,516.0 1043.0,516.0 1010.5,516.0 978.0,516.0 945.5,516.0 913.0,516.0 880.5,516.0 848.0,516.0 815.5,516.0 783.0,516.0 750.5,516.0 718.0,516.0 685.5,516.0 653.0,516.0 620.5,516.0 588.0,516.0 555.5,516.0 523.0,516.0 490.5,516.0 458.0,516.0 425.5,516.0 393.0,516.0 360.5,516.0 328.0,516.0 295.5,516.0 263.0,516.0 230.5,516.0 198.0,516.0 165.5,516.0 133.0,516.0 100.5,516.0 68.0,516.0" fill="#c7e9c0" fill-opacity="0.9" stroke="#fff" stroke-width="0.4"><title>ir_builder — parseTranslationUnit</title></polygon>
<polygon points="68.0,512.6 100.5,511.7 133.0,511.5 165.5,511.6 198.0,511.5 230.5,511.4 263.0,511.6 295.5,511.1 328.0,511.7 360.5,511.7 393.0,512.0 425.5,512.0 458.0,511.8 490.5,511.8 523.0,511.8 555.5,511.7 588.0,511.0 620.5,511.0 653.0,511.0 685.5,511.0 718.0,514.6 750.5,514.6 783.0,514.4 815.5,514.4 848.0,514.4 880.5,514.4 913.0,514.4 945.5,514.3 978.0,514.5 1010.5,514.5 1043.0,514.5 1075.5,514.5 1108.0,514.5 1108.0,515.8 1075.5,515.8 1043.0,515.8 1010.5,515.8 978.0,515.8 945.5,515.8 913.0,515.8 880.5,515.8 848.0,515.8 815.5,515.8 783.0,515.8 750.5,515.8 718.0,515.8 685.5,515.8 653.0,515.8 620.5,515.8 588.0,515.8 555.5,515.8 523.0,515.8 490.5,515.8 458.0,515.8 425.5,515.8 393.0,515.8 360.5,515.8 328.0,515.8 295.5,515.8 263.0,515.8 230.5,515.8 198.0,515.8 165.5,515.8 133.0,515.8 100.5,515.8 68.0,515.8" fill="#41ab5d" fill-opacity="0.9" stroke="#fff" stroke-width="0.4"><title>ir_builder — SemanticChecking</title></polygon>
<polygon points="68.0,511.8 100.5,510.9 133.0,510.7 165.5,510.9 198.0,510.7 230.5,510.5 263.0,510.8 295.5,510.3 328.0,510.9 360.5,510.9 393.0,511.2 425.5,511.3 458.0,511.0 490.5,511.1 523.0,511.0 555.5,511.0 588.0,510.2 620.5,510.3 653.0,510.2 685.5,510.2 718.0,514.0 750.5,513.9 783.0,513.7 815.5,513.7 848.0,513.7 880.5,513.7 913.0,513.7 945.5,513.6 978.0,513.8 1010.5,513.8 1043.0,513.8 1075.5,513.8 1108.0,513.8 1108.0,514.5 1075.5,514.5 1043.0,514.5 1010.5,514.5 978.0,514.5 945.5,514.3 913.0,514.4 880.5,514.4 848.0,514.4 815.5,514.4 783.0,514.4 750.5,514.6 718.0,514.6 685.5,511.0 653.0,511.0 620.5,511.0 588.0,511.0 555.5,511.7 523.0,511.8 490.5,511.8 458.0,511.8 425.5,512.0 393.0,512.0 360.5,511.7 328.0,511.7 295.5,511.1 263.0,511.6 230.5,511.4 198.0,511.5 165.5,511.6 133.0,511.5 100.5,511.7 68.0,512.6" fill="#006d2c" fill-opacity="0.9" stroke="#fff" stroke-width="0.4"><title>ir_builder — generateIR</title></polygon>
<polygon points="68.0,511.8 100.5,510.9 133.0,510.7 165.5,510.9 198.0,510.7 230.5,510.5 263.0,510.8 295.5,510.3 328.0,510.9 360.5,510.9 393.0,511.1 425.5,511.3 458.0,511.0 490.5,511.0 523.0,511.0 555.5,511.0 588.0,510.1 620.5,510.2 653.0,510.2 685.5,510.2 718.0,513.9 750.5,513.9 783.0,513.7 815.5,513.7 848.0,513.6 880.5,513.7 913.0,513.6 945.5,513.6 978.0,513.8 1010.5,513.8 1043.0,513.8 1075.5,513.8 1108.0,513.8 1108.0,513.8 1075.5,513.8 1043.0,513.8 1010.5,513.8 978.0,513.8 945.5,513.6 913.0,513.7 880.5,513.7 848.0,513.7 815.5,513.7 783.0,513.7 750.5,513.9 718.0,514.0 685.5,510.2 653.0,510.2 620.5,510.3 588.0,510.2 555.5,511.0 523.0,511.0 490.5,511.1 458.0,511.0 425.5,511.3 393.0,511.2 360.5,510.9 328.0,510.9 295.5,510.3 263.0,510.8 230.5,510.5 198.0,510.7 165.5,510.9 133.0,510.7 100.5,510.9 68.0,511.8" fill="#74c476" fill-opacity="0.9" stroke="#fff" stroke-width="0.4"><title>ir_builder — frontEndExecute (self)</title></polygon>
<polygon points="68.0,511.7 100.5,510.8 133.0,510.5 165.5,510.7 198.0,510.6 230.5,510.4 263.0,510.6 295.5,510.1 328.0,510.8 360.5,510.7 393.0,510.9 425.5,511.0 458.0,510.7 490.5,510.7 523.0,510.7 555.5,510.7 588.0,509.4 620.5,509.5 653.0,509.5 685.5,509.4 718.0,513.3 750.5,513.3 783.0,513.0 815.5,512.9 848.0,512.9 880.5,513.0 913.0,512.9 945.5,512.8 978.0,513.5 1010.5,513.4 1043.0,513.4 1075.5,513.4 1108.0,513.5 1108.0,513.8 1075.5,513.8 1043.0,513.8 1010.5,513.8 978.0,513.8 945.5,513.6 913.0,513.6 880.5,513.7 848.0,513.6 815.5,513.7 783.0,513.7 750.5,513.9 718.0,513.9 685.5,510.2 653.0,510.2 620.5,510.2 588.0,510.1 555.5,511.0 523.0,511.0 490.5,511.0 458.0,511.0 425.5,511.3 393.0,511.1 360.5,510.9 328.0,510.9 295.5,510.3 263.0,510.8 230.5,510.5 198.0,510.7 165.5,510.9 133.0,510.7 100.5,510.9 68.0,511.8" fill="#6baed6" fill-opacity="0.9" stroke="#fff" stroke-width="0.4"><title>ir_builder — specializeModule</title></polygon>
<polygon points="68.0,511.0 100.5,510.0 133.0,509.7 165.5,510.0 198.0,509.8 230.5,509.6 263.0,509.8 295.5,509.3 328.0,510.0 360.5,509.9 393.0,510.2 425.5,510.3 458.0,510.0 490.5,510.1 523.0,510.1 555.5,510.0 588.0,508.4 620.5,508.5 653.0,508.5 685.5,508.4 718.0,512.4 750.5,512.3 783.0,511.9 815.5,511.9 848.0,511.9 880.5,512.0 913.0,511.8 945.5,511.7 978.0,512.8 1010.5,512.8 1043.0,512.7 1075.5,512.7 1108.0,512.8 1108.0,513.5 1075.5,513.4 1043.0,513.4 1010.5,513.4 978.0,513.5 945.5,512.8 913.0,512.9 880.5,513.0 848.0,512.9 815.5,512.9 783.0,513.0 750.5,513.3 718.0,513.3 685.5,509.4 653.0,509.5 620.5,509.5 588.0,509.4 555.5,510.7 523.0,510.7 490.5,510.7 458.0,510.7 425.5,511.0 393.0,510.9 360.5,510.7 328.0,510.8 295.5,510.1 263.0,510.6 230.5,510.4 198.0,510.6 165.5,510.7 133.0,510.5 100.5,510.8 68.0,511.7" fill="#2171b5" fill-opacity="0.9" stroke="#fff" stroke-width="0.4"><title>ir_builder — simplifyIR</title></polygon>
<polygon points="68.0,510.8 100.5,509.9 133.0,509.5 165.5,509.8 198.0,509.6 230.5,509.4 263.0,509.6 295.5,509.0 328.0,509.7 360.5,509.7 393.0,510.0 425.5,510.2 458.0,509.9 490.5,509.9 523.0,509.9 555.5,509.9 588.0,506.8 620.5,506.9 653.0,506.9 685.5,506.8 718.0,512.2 750.5,512.1 783.0,511.7 815.5,511.7 848.0,511.7 880.5,511.8 913.0,511.6 945.5,511.5 978.0,512.6 1010.5,512.6 1043.0,512.6 1075.5,512.6 1108.0,512.6 1108.0,512.8 1075.5,512.7 1043.0,512.7 1010.5,512.8 978.0,512.8 945.5,511.7 913.0,511.8 880.5,512.0 848.0,511.9 815.5,511.9 783.0,511.9 750.5,512.3 718.0,512.4 685.5,508.4 653.0,508.5 620.5,508.5 588.0,508.4 555.5,510.0 523.0,510.1 490.5,510.1 458.0,510.0 425.5,510.3 393.0,510.2 360.5,509.9 328.0,510.0 295.5,509.3 263.0,509.8 230.5,509.6 198.0,509.8 165.5,510.0 133.0,509.7 100.5,510.0 68.0,511.0" fill="#08306b" fill-opacity="0.9" stroke="#fff" stroke-width="0.4"><title>ir_builder — linkIR</title></polygon>
<polygon points="68.0,510.8 100.5,509.9 133.0,509.5 165.5,509.8 198.0,509.6 230.5,509.4 263.0,509.6 295.5,509.0 328.0,509.7 360.5,509.7 393.0,510.0 425.5,510.2 458.0,509.9 490.5,509.9 523.0,509.9 555.5,509.9 588.0,506.8 620.5,506.9 653.0,506.9 685.5,506.8 718.0,512.2 750.5,512.1 783.0,511.7 815.5,511.7 848.0,511.7 880.5,511.8 913.0,511.6 945.5,511.5 978.0,512.6 1010.5,512.6 1043.0,512.6 1075.5,512.6 1108.0,512.6 1108.0,512.6 1075.5,512.6 1043.0,512.6 1010.5,512.6 978.0,512.6 945.5,511.5 913.0,511.6 880.5,511.8 848.0,511.7 815.5,511.7 783.0,511.7 750.5,512.1 718.0,512.2 685.5,506.8 653.0,506.9 620.5,506.9 588.0,506.8 555.5,509.9 523.0,509.9 490.5,509.9 458.0,509.9 425.5,510.2 393.0,510.0 360.5,509.7 328.0,509.7 295.5,509.0 263.0,509.6 230.5,509.4 198.0,509.6 165.5,509.8 133.0,509.5 100.5,509.9 68.0,510.8" fill="#9e9ac8" fill-opacity="0.9" stroke="#fff" stroke-width="0.4"><title>ir_builder — unrollLoopsInModule</title></polygon>
<polygon points="68.0,388.4 100.5,387.2 133.0,378.4 165.5,387.6 198.0,482.9 230.5,483.1 263.0,484.0 295.5,482.2 328.0,482.5 360.5,482.0 393.0,484.5 425.5,485.6 458.0,484.6 490.5,485.0 523.0,485.0 555.5,484.8 588.0,481.4 620.5,481.7 653.0,481.6 685.5,481.5 718.0,485.2 750.5,484.5 783.0,485.1 815.5,485.3 848.0,484.7 880.5,485.2 913.0,484.9 945.5,484.6 978.0,486.1 1010.5,486.5 1043.0,485.2 1075.5,486.0 1108.0,512.5 1108.0,512.6 1075.5,512.6 1043.0,512.6 1010.5,512.6 978.0,512.6 945.5,511.5 913.0,511.6 880.5,511.8 848.0,511.7 815.5,511.7 783.0,511.7 750.5,512.1 718.0,512.2 685.5,506.8 653.0,506.9 620.5,506.9 588.0,506.8 555.5,509.9 523.0,509.9 490.5,509.9 458.0,509.9 425.5,510.2 393.0,510.0 360.5,509.7 328.0,509.7 295.5,509.0 263.0,509.6 230.5,509.4 198.0,509.6 165.5,509.8 133.0,509.5 100.5,509.9 68.0,510.8" fill="#807dba" fill-opacity="0.9" stroke="#fff" stroke-width="0.4"><title>ir_builder — legalizeResourceTypes</title></polygon>
<polygon points="68.0,265.2 100.5,262.5 133.0,239.6 165.5,265.3 198.0,456.2 230.5,456.8 263.0,457.5 295.5,454.6 328.0,455.6 360.5,454.8 393.0,458.6 425.5,460.8 458.0,458.9 490.5,459.5 523.0,459.6 555.5,459.3 588.0,455.0 620.5,455.9 653.0,456.0 685.5,455.9 718.0,457.8 750.5,456.4 783.0,457.8 815.5,458.1 848.0,457.6 880.5,458.2 913.0,457.7 945.5,457.3 978.0,459.1 1010.5,460.2 1043.0,457.7 1075.5,458.9 1108.0,512.4 1108.0,512.5 1075.5,486.0 1043.0,485.2 1010.5,486.5 978.0,486.1 945.5,484.6 913.0,484.9 880.5,485.2 848.0,484.7 815.5,485.3 783.0,485.1 750.5,484.5 718.0,485.2 685.5,481.5 653.0,481.6 620.5,481.7 588.0,481.4 555.5,484.8 523.0,485.0 490.5,485.0 458.0,484.6 425.5,485.6 393.0,484.5 360.5,482.0 328.0,482.5 295.5,482.2 263.0,484.0 230.5,483.1 198.0,482.9 165.5,387.6 133.0,378.4 100.5,387.2 68.0,388.4" fill="#6a51a3" fill-opacity="0.9" stroke="#fff" stroke-width="0.4"><title>ir_builder — legalizeExistentialTypeLayout</title></polygon>
<polygon points="68.0,265.2 100.5,262.5 133.0,239.6 165.5,265.3 198.0,456.2 230.5,456.8 263.0,457.5 295.5,454.6 328.0,455.6 360.5,454.8 393.0,458.6 425.5,460.8 458.0,458.9 490.5,459.5 523.0,459.6 555.5,459.3 588.0,455.0 620.5,455.9 653.0,456.0 685.5,455.9 718.0,457.8 750.5,456.4 783.0,457.8 815.5,458.1 848.0,457.6 880.5,458.2 913.0,457.7 945.5,457.2 978.0,459.1 1010.5,460.2 1043.0,457.7 1075.5,458.9 1108.0,512.4 1108.0,512.4 1075.5,458.9 1043.0,457.7 1010.5,460.2 978.0,459.1 945.5,457.3 913.0,457.7 880.5,458.2 848.0,457.6 815.5,458.1 783.0,457.8 750.5,456.4 718.0,457.8 685.5,455.9 653.0,456.0 620.5,455.9 588.0,455.0 555.5,459.3 523.0,459.6 490.5,459.5 458.0,458.9 425.5,460.8 393.0,458.6 360.5,454.8 328.0,455.6 295.5,454.6 263.0,457.5 230.5,456.8 198.0,456.2 165.5,265.3 133.0,239.6 100.5,262.5 68.0,265.2" fill="#bcbddc" fill-opacity="0.9" stroke="#fff" stroke-width="0.4"><title>ir_builder — performMandatoryEarlyInlining</title></polygon>
<polygon points="68.0,265.2 100.5,262.5 133.0,239.6 165.5,265.3 198.0,456.2 230.5,456.8 263.0,457.5 295.5,454.6 328.0,455.5 360.5,454.8 393.0,458.6 425.5,460.8 458.0,458.9 490.5,459.5 523.0,459.5 555.5,459.3 588.0,455.0 620.5,455.9 653.0,456.0 685.5,455.9 718.0,457.8 750.5,456.4 783.0,457.8 815.5,458.1 848.0,457.6 880.5,458.2 913.0,457.6 945.5,457.2 978.0,459.0 1010.5,460.2 1043.0,457.6 1075.5,458.9 1108.0,512.4 1108.0,512.4 1075.5,458.9 1043.0,457.7 1010.5,460.2 978.0,459.1 945.5,457.2 913.0,457.7 880.5,458.2 848.0,457.6 815.5,458.1 783.0,457.8 750.5,456.4 718.0,457.8 685.5,455.9 653.0,456.0 620.5,455.9 588.0,455.0 555.5,459.3 523.0,459.6 490.5,459.5 458.0,458.9 425.5,460.8 393.0,458.6 360.5,454.8 328.0,455.6 295.5,454.6 263.0,457.5 230.5,456.8 198.0,456.2 165.5,265.3 133.0,239.6 100.5,262.5 68.0,265.2" fill="#dadaeb" fill-opacity="0.9" stroke="#fff" stroke-width="0.4"><title>ir_builder — performForceInlining</title></polygon>
<polygon points="68.0,264.7 100.5,262.0 133.0,238.5 165.5,264.5 198.0,455.6 230.5,456.3 263.0,456.4 295.5,451.8 328.0,455.1 360.5,454.2 393.0,458.2 425.5,460.2 458.0,458.4 490.5,458.9 523.0,459.0 555.5,458.6 588.0,428.1 620.5,429.2 653.0,430.6 685.5,429.8 718.0,430.6 750.5,428.5 783.0,430.6 815.5,431.1 848.0,429.7 880.5,431.2 913.0,430.5 945.5,429.5 978.0,432.1 1010.5,433.3 1043.0,429.6 1075.5,431.2 1108.0,511.5 1108.0,512.4 1075.5,458.9 1043.0,457.6 1010.5,460.2 978.0,459.0 945.5,457.2 913.0,457.6 880.5,458.2 848.0,457.6 815.5,458.1 783.0,457.8 750.5,456.4 718.0,457.8 685.5,455.9 653.0,456.0 620.5,455.9 588.0,455.0 555.5,459.3 523.0,459.5 490.5,459.5 458.0,458.9 425.5,460.8 393.0,458.6 360.5,454.8 328.0,455.5 295.5,454.6 263.0,457.5 230.5,456.8 198.0,456.2 165.5,265.3 133.0,239.6 100.5,262.5 68.0,265.2" fill="#4a1486" fill-opacity="0.9" stroke="#fff" stroke-width="0.4"><title>ir_builder — linkAndOptimizeIR (self)</title></polygon>
<polygon points="68.0,140.6 100.5,135.5 133.0,110.9 165.5,141.1 198.0,426.6 230.5,428.7 263.0,429.0 295.5,423.6 328.0,426.1 360.5,426.2 393.0,431.4 425.5,434.2 458.0,431.5 490.5,432.3 523.0,432.7 555.5,432.1 588.0,400.7 620.5,402.9 653.0,404.0 685.5,402.7 718.0,402.4 750.5,399.6 783.0,402.3 815.5,403.1 848.0,401.3 880.5,403.2 913.0,402.5 945.5,400.2 978.0,404.4 1010.5,405.7 1043.0,401.2 1075.5,403.0 1108.0,510.1 1108.0,511.5 1075.5,431.2 1043.0,429.6 1010.5,433.3 978.0,432.1 945.5,429.5 913.0,430.5 880.5,431.2 848.0,429.7 815.5,431.1 783.0,430.6 750.5,428.5 718.0,430.6 685.5,429.8 653.0,430.6 620.5,429.2 588.0,428.1 555.5,458.6 523.0,459.0 490.5,458.9 458.0,458.4 425.5,460.2 393.0,458.2 360.5,454.2 328.0,455.1 295.5,451.8 263.0,456.4 230.5,456.3 198.0,455.6 165.5,264.5 133.0,238.5 100.5,262.0 68.0,264.7" fill="#e6550d" fill-opacity="0.9" stroke="#fff" stroke-width="0.4"><title>ir_builder — generateOutput (self)</title></polygon>
<polygon points="68.0,140.6 100.5,135.5 133.0,108.6 165.5,141.0 198.0,426.6 230.5,428.3 263.0,429.0 295.5,423.5 328.0,425.2 360.5,426.2 393.0,431.4 425.5,434.1 458.0,431.5 490.5,432.3 523.0,432.6 555.5,432.1 588.0,400.7 620.5,402.8 653.0,404.0 685.5,402.7 718.0,402.3 750.5,399.6 783.0,402.3 815.5,403.1 848.0,401.3 880.5,403.1 913.0,402.4 945.5,400.2 978.0,404.3 1010.5,405.6 1043.0,401.2 1075.5,403.0 1108.0,510.0 1108.0,510.1 1075.5,403.0 1043.0,401.2 1010.5,405.7 978.0,404.4 945.5,400.2 913.0,402.5 880.5,403.2 848.0,401.3 815.5,403.1 783.0,402.3 750.5,399.6 718.0,402.4 685.5,402.7 653.0,404.0 620.5,402.9 588.0,400.7 555.5,432.1 523.0,432.7 490.5,432.3 458.0,431.5 425.5,434.2 393.0,431.4 360.5,426.2 328.0,426.1 295.5,423.6 263.0,429.0 230.5,428.7 198.0,426.6 165.5,141.1 133.0,110.9 100.5,135.5 68.0,140.6" fill="#969696" fill-opacity="0.9" stroke="#fff" stroke-width="0.4"><title>ir_builder — compileInner (self)</title></polygon>
<text x="12" y="578" fill="#666" font-weight="600">phase buckets</text>
<rect x="12" y="586" width="12" height="12" fill="#c7e9c0"/>
<text x="28" y="596" fill="#222">parseTranslationUnit</text>
<rect x="289" y="586" width="12" height="12" fill="#41ab5d"/>
<text x="305" y="596" fill="#222">SemanticChecking</text>
<rect x="566" y="586" width="12" height="12" fill="#006d2c"/>
<text x="582" y="596" fill="#222">generateIR</text>
<rect x="843" y="586" width="12" height="12" fill="#74c476"/>
<text x="859" y="596" fill="#222">frontEndExecute (self)</text>
<rect x="12" y="604" width="12" height="12" fill="#6baed6"/>
<text x="28" y="614" fill="#222">specializeModule</text>
<rect x="289" y="604" width="12" height="12" fill="#2171b5"/>
<text x="305" y="614" fill="#222">simplifyIR</text>
<rect x="566" y="604" width="12" height="12" fill="#08306b"/>
<text x="582" y="614" fill="#222">linkIR</text>
<rect x="843" y="604" width="12" height="12" fill="#9e9ac8"/>
<text x="859" y="614" fill="#222">unrollLoopsInModule</text>
<rect x="12" y="622" width="12" height="12" fill="#807dba"/>
<text x="28" y="632" fill="#222">legalizeResourceTypes</text>
<rect x="289" y="622" width="12" height="12" fill="#6a51a3"/>
<text x="305" y="632" fill="#222">legalizeExistentialTypeLayout</text>
<rect x="566" y="622" width="12" height="12" fill="#bcbddc"/>
<text x="582" y="632" fill="#222">performMandatoryEarlyInlining</text>
<rect x="843" y="622" width="12" height="12" fill="#dadaeb"/>
<text x="859" y="632" fill="#222">performForceInlining</text>
<rect x="12" y="640" width="12" height="12" fill="#4a1486"/>
<text x="28" y="650" fill="#222">linkAndOptimizeIR (self)</text>
<rect x="289" y="640" width="12" height="12" fill="#fd8d3c"/>
<text x="305" y="650" fill="#222">emitEntryPointsSourceFromIR</text>
<rect x="566" y="640" width="12" height="12" fill="#e6550d"/>
<text x="582" y="650" fill="#222">generateOutput (self)</text>
<rect x="843" y="640" width="12" height="12" fill="#969696"/>
<text x="859" y="650" fill="#222">compileInner (self)</text>
</svg>