<svg xmlns="http://www.w3.org/2000/svg" xmlns:xlink="http://www.w3.org/1999/xlink" width="1132" height="680" viewBox="0 0 1132 680" preserveAspectRatio="xMidYMid meet" font-family="sans-serif" font-size="13">
<rect width="1132" height="680" fill="white"/>
<text x="12" y="30" font-size="20" font-weight="bold">loop_unroll — Across releases (median ms)</text>
<text x="68" y="60" font-size="15" font-weight="600" fill="#1a1a1a">loop_unroll<tspan fill="#888" font-weight="400" text-decoration="none">  0.30×</tspan></text>
<line x1="68.0" y1="516.0" x2="1108.0" y2="516.0" stroke="#eee"/>
<text x="64.0" y="519.0" text-anchor="end" fill="#999">0.0</text>
<line x1="68.0" y1="296.0" x2="1108.0" y2="296.0" stroke="#eee"/>
<text x="64.0" y="299.0" text-anchor="end" fill="#999">535</text>
<line x1="68.0" y1="76.0" x2="1108.0" y2="76.0" stroke="#eee"/>
<text x="64.0" y="79.0" text-anchor="end" fill="#999">1071</text>
<line x1="68.0" y1="76.0" x2="68.0" y2="516.0" stroke="#333"/>
<line x1="68.0" y1="516.0" x2="1108.0" y2="516.0" stroke="#333"/>
<line x1="68.0" y1="516.0" x2="68.0" y2="519.0" stroke="#999"/>
<text x="68.0" y="531.0" text-anchor="end" fill="#666" transform="rotate(-50 68.0 531.0)">25.12</text>
<line x1="109.6" y1="516.0" x2="109.6" y2="519.0" stroke="#999"/>
<text x="109.6" y="531.0" text-anchor="end" fill="#666" transform="rotate(-50 109.6 531.0)">25.13</text>
<line x1="151.2" y1="516.0" x2="151.2" y2="519.0" stroke="#999"/>
<text x="151.2" y="531.0" text-anchor="end" fill="#666" transform="rotate(-50 151.2 531.0)">25.14</text>
<line x1="192.8" y1="516.0" x2="192.8" y2="519.0" stroke="#999"/>
<text x="192.8" y="531.0" text-anchor="end" fill="#666" transform="rotate(-50 192.8 531.0)">25.15</text>
<line x1="234.4" y1="516.0" x2="234.4" y2="519.0" stroke="#999"/>
<text x="234.4" y="531.0" text-anchor="end" fill="#666" transform="rotate(-50 234.4 531.0)">25.16</text>
<line x1="276.0" y1="516.0" x2="276.0" y2="519.0" stroke="#999"/>
<text x="276.0" y="531.0" text-anchor="end" fill="#666" transform="rotate(-50 276.0 531.0)">25.17</text>
<line x1="317.6" y1="516.0" x2="317.6" y2="519.0" stroke="#999"/>
<text x="317.6" y="531.0" text-anchor="end" fill="#666" transform="rotate(-50 317.6 531.0)">25.18</text>
<line x1="359.2" y1="516.0" x2="359.2" y2="519.0" stroke="#999"/>
<text x="359.2" y="531.0" text-anchor="end" fill="#666" transform="rotate(-50 359.2 531.0)">25.19</text>
<line x1="400.8" y1="516.0" x2="400.8" y2="519.0" stroke="#999"/>
<text x="400.8" y="531.0" text-anchor="end" fill="#666" transform="rotate(-50 400.8 531.0)">25.20</text>
<line x1="442.4" y1="516.0" x2="442.4" y2="519.0" stroke="#999"/>
<text x="442.4" y="531.0" text-anchor="end" fill="#666" transform="rotate(-50 442.4 531.0)">25.21</text>
<line x1="484.0" y1="516.0" x2="484.0" y2="519.0" stroke="#999"/>
<text x="484.0" y="531.0" text-anchor="end" fill="#666" transform="rotate(-50 484.0 531.0)">25.22</text>
<line x1="525.6" y1="516.0" x2="525.6" y2="519.0" stroke="#999"/>
<text x="525.6" y="531.0" text-anchor="end" fill="#666" transform="rotate(-50 525.6 531.0)">25.23</text>
<line x1="567.2" y1="516.0" x2="567.2" y2="519.0" stroke="#999"/>
<text x="567.2" y="531.0" text-anchor="end" fill="#666" transform="rotate(-50 567.2 531.0)">25.24</text>
<line x1="608.8" y1="516.0" x2="608.8" y2="519.0" stroke="#999"/>
<text x="608.8" y="531.0" text-anchor="end" fill="#666" transform="rotate(-50 608.8 531.0)">26.1</text>
<line x1="650.4" y1="516.0" x2="650.4" y2="519.0" stroke="#999"/>
<text x="650.4" y="531.0" text-anchor="end" fill="#666" transform="rotate(-50 650.4 531.0)">26.2</text>
<line x1="692.0" y1="516.0" x2="692.0" y2="519.0" stroke="#999"/>
<text x="692.0" y="531.0" text-anchor="end" fill="#666" transform="rotate(-50 692.0 531.0)">26.3</text>
<line x1="733.6" y1="516.0" x2="733.6" y2="519.0" stroke="#999"/>
<text x="733.6" y="531.0" text-anchor="end" fill="#666" transform="rotate(-50 733.6 531.0)">26.4</text>
<line x1="775.2" y1="516.0" x2="775.2" y2="519.0" stroke="#999"/>
<text x="775.2" y="531.0" text-anchor="end" fill="#666" transform="rotate(-50 775.2 531.0)">26.5</text>
<line x1="816.8" y1="516.0" x2="816.8" y2="519.0" stroke="#999"/>
<text x="816.8" y="531.0" text-anchor="end" fill="#666" transform="rotate(-50 816.8 531.0)">26.7</text>
<line x1="858.4" y1="516.0" x2="858.4" y2="519.0" stroke="#999"/>
<text x="858.4" y="531.0" text-anchor="end" fill="#666" transform="rotate(-50 858.4 531.0)">26.8</text>
<line x1="900.0" y1="516.0" x2="900.0" y2="519.0" stroke="#999"/>
<text x="900.0" y="531.0" text-anchor="end" fill="#666" transform="rotate(-50 900.0 531.0)">26.9</text>
<line x1="941.6" y1="516.0" x2="941.6" y2="519.0" stroke="#999"/>
<text x="941.6" y="531.0" text-anchor="end" fill="#666" transform="rotate(-50 941.6 531.0)">26.10</text>
<line x1="983.2" y1="516.0" x2="983.2" y2="519.0" stroke="#999"/>
<text x="983.2" y="531.0" text-anchor="end" fill="#666" transform="rotate(-50 983.2 531.0)">26.11</text>
<line x1="1024.8" y1="516.0" x2="1024.8" y2="519.0" stroke="#999"/>
<text x="1024.8" y="531.0" text-anchor="end" fill="#666" transform="rotate(-50 1024.8 531.0)">26.12</text>
<line x1="1066.4" y1="516.0" x2="1066.4" y2="519.0" stroke="#999"/>
<text x="1066.4" y="531.0" text-anchor="end" fill="#666" transform="rotate(-50 1066.4 531.0)">26.13</text>
<line x1="1108.0" y1="516.0" x2="1108.0" y2="519.0" stroke="#999"/>
<text x="1108.0" y="531.0" text-anchor="end" fill="#666" transform="rotate(-50 1108.0 531.0)">26.13.1</text>
<polygon points="68.0,516.0 109.6,515.8 151.2,515.9 192.8,515.9 234.4,516.0 276.0,516.0 317.6,515.9 359.2,515.9 400.8,516.0 442.4,515.9 484.0,516.0 525.6,516.0 567.2,516.0 608.8,515.9 650.4,515.9 692.0,516.0 733.6,515.9 775.2,515.9 816.8,515.9 858.4,515.9 900.0,515.9 941.6,515.9 983.2,515.9 1024.8,515.9 1066.4,515.9 1108.0,515.9 1108.0,516.0 1066.4,516.0 1024.8,516.0 983.2,516.0 941.6,516.0 900.0,516.0 858.4,516.0 816.8,516.0 775.2,516.0 733.6,516.0 692.0,516.0 650.4,516.0 608.8,516.0 567.2,516.0 525.6,516.0 484.0,516.0 442.4,516.0 400.8,516.0 359.2,516.0 317.6,516.0 276.0,516.0 234.4,516.0 192.8,516.0 151.2,516.0 109.6,516.0 68.0,516.0" fill="#c7e9c0" fill-opacity="0.9" stroke="#fff" stroke-width="0.4"><title>loop_unroll — parseTranslationUnit</title></polygon>
<polygon points="68.0,511.9 109.6,511.4 151.2,509.0 192.8,505.9 234.4,506.6 276.0,506.4 317.6,506.5 359.2,506.5 400.8,506.4 442.4,506.2 484.0,508.8 525.6,508.7 567.2,508.8 608.8,508.5 650.4,507.7 692.0,507.9 733.6,507.6 775.2,507.7 816.8,503.3 858.4,504.4 900.0,504.0 941.6,501.4 983.2,512.0 1024.8,511.8 1066.4,512.1 1108.0,512.3 1108.0,515.9 1066.4,515.9 1024.8,515.9 983.2,515.9 941.6,515.9 900.0,515.9 858.4,515.9 816.8,515.9 775.2,515.9 733.6,515.9 692.0,516.0 650.4,515.9 608.8,515.9 567.2,516.0 525.6,516.0 484.0,516.0 442.4,515.9 400.8,516.0 359.2,515.9 317.6,515.9 276.0,516.0 234.4,516.0 192.8,515.9 151.2,515.9 109.6,515.8 68.0,516.0" fill="#41ab5d" fill-opacity="0.9" stroke="#fff" stroke-width="0.4"><title>loop_unroll — SemanticChecking</title></polygon>
<polygon points="68.0,511.5 109.6,510.6 151.2,508.1 192.8,505.1 234.4,505.8 276.0,505.5 317.6,505.6 359.2,505.6 400.8,505.5 442.4,505.3 484.0,508.0 525.6,507.9 567.2,507.9 608.8,507.7 650.4,506.7 692.0,507.0 733.6,506.7 775.2,506.8 816.8,496.5 858.4,499.6 900.0,498.7 941.6,494.2 983.2,510.0 1024.8,510.4 1066.4,510.4 1108.0,510.8 1108.0,512.3 1066.4,512.1 1024.8,511.8 983.2,512.0 941.6,501.4 900.0,504.0 858.4,504.4 816.8,503.3 775.2,507.7 733.6,507.6 692.0,507.9 650.4,507.7 608.8,508.5 567.2,508.8 525.6,508.7 484.0,508.8 442.4,506.2 400.8,506.4 359.2,506.5 317.6,506.5 276.0,506.4 234.4,506.6 192.8,505.9 151.2,509.0 109.6,511.4 68.0,511.9" fill="#006d2c" fill-opacity="0.9" stroke="#fff" stroke-width="0.4"><title>loop_unroll — generateIR</title></polygon>
<polygon points="68.0,511.1 109.6,510.5 151.2,508.1 192.8,505.0 234.4,505.7 276.0,505.4 317.6,505.5 359.2,505.5 400.8,505.4 442.4,505.2 484.0,507.9 525.6,507.7 567.2,507.8 608.8,507.6 650.4,506.6 692.0,506.9 733.6,506.5 775.2,506.7 816.8,496.3 858.4,499.3 900.0,498.1 941.6,493.7 983.2,510.0 1024.8,510.2 1066.4,510.1 1108.0,510.6 1108.0,510.8 1066.4,510.4 1024.8,510.4 983.2,510.0 941.6,494.2 900.0,498.7 858.4,499.6 816.8,496.5 775.2,506.8 733.6,506.7 692.0,507.0 650.4,506.7 608.8,507.7 567.2,507.9 525.6,507.9 484.0,508.0 442.4,505.3 400.8,505.5 359.2,505.6 317.6,505.6 276.0,505.5 234.4,505.8 192.8,505.1 151.2,508.1 109.6,510.6 68.0,511.5" fill="#74c476" fill-opacity="0.9" stroke="#fff" stroke-width="0.4"><title>loop_unroll — frontEndExecute (self)</title></polygon>
<polygon points="68.0,499.1 109.6,498.3 151.2,490.6 192.8,492.3 234.4,493.7 276.0,493.4 317.6,493.1 359.2,493.3 400.8,493.2 442.4,493.0 484.0,495.7 525.6,495.6 567.2,488.8 608.8,487.1 650.4,486.1 692.0,486.5 733.6,485.8 775.2,481.7 816.8,434.1 858.4,442.5 900.0,440.2 941.6,427.9 983.2,459.4 1024.8,465.2 1066.4,461.2 1108.0,471.6 1108.0,510.6 1066.4,510.1 1024.8,510.2 983.2,510.0 941.6,493.7 900.0,498.1 858.4,499.3 816.8,496.3 775.2,506.7 733.6,506.5 692.0,506.9 650.4,506.6 608.8,507.6 567.2,507.8 525.6,507.7 484.0,507.9 442.4,505.2 400.8,505.4 359.2,505.5 317.6,505.5 276.0,505.4 234.4,505.7 192.8,505.0 151.2,508.1 109.6,510.5 68.0,511.1" fill="#6baed6" fill-opacity="0.9" stroke="#fff" stroke-width="0.4"><title>loop_unroll — specializeModule</title></polygon>
<polygon points="68.0,481.1 109.6,481.0 151.2,469.2 192.8,473.2 234.4,475.9 276.0,473.9 317.6,473.5 359.2,473.5 400.8,475.1 442.4,474.3 484.0,475.8 525.6,476.8 567.2,470.6 608.8,468.9 650.4,467.9 692.0,468.4 733.6,466.9 775.2,463.3 816.8,400.7 858.4,414.1 900.0,410.4 941.6,395.2 983.2,430.5 1024.8,438.8 1066.4,433.4 1108.0,460.5 1108.0,471.6 1066.4,461.2 1024.8,465.2 983.2,459.4 941.6,427.9 900.0,440.2 858.4,442.5 816.8,434.1 775.2,481.7 733.6,485.8 692.0,486.5 650.4,486.1 608.8,487.1 567.2,488.8 525.6,495.6 484.0,495.7 442.4,493.0 400.8,493.2 359.2,493.3 317.6,493.1 276.0,493.4 234.4,493.7 192.8,492.3 151.2,490.6 109.6,498.3 68.0,499.1" fill="#2171b5" fill-opacity="0.9" stroke="#fff" stroke-width="0.4"><title>loop_unroll — simplifyIR</title></polygon>
<polygon points="68.0,481.1 109.6,480.6 151.2,468.5 192.8,472.8 234.4,475.7 276.0,473.6 317.6,473.2 359.2,473.2 400.8,474.8 442.4,474.0 484.0,475.5 525.6,476.5 567.2,470.3 608.8,468.6 650.4,467.6 692.0,468.0 733.6,466.6 775.2,463.0 816.8,396.1 858.4,410.6 900.0,406.6 941.6,389.6 983.2,430.2 1024.8,438.5 1066.4,433.3 1108.0,460.3 1108.0,460.5 1066.4,433.4 1024.8,438.8 983.2,430.5 941.6,395.2 900.0,410.4 858.4,414.1 816.8,400.7 775.2,463.3 733.6,466.9 692.0,468.4 650.4,467.9 608.8,468.9 567.2,470.6 525.6,476.8 484.0,475.8 442.4,474.3 400.8,475.1 359.2,473.5 317.6,473.5 276.0,473.9 234.4,475.9 192.8,473.2 151.2,469.2 109.6,481.0 68.0,481.1" fill="#08306b" fill-opacity="0.9" stroke="#fff" stroke-width="0.4"><title>loop_unroll — linkIR</title></polygon>
<polygon points="68.0,405.9 109.6,410.5 151.2,366.7 192.8,383.3 234.4,403.6 276.0,393.8 317.6,391.1 359.2,385.5 400.8,402.8 442.4,394.5 484.0,392.4 525.6,401.2 567.2,395.0 608.8,404.2 650.4,402.9 692.0,403.8 733.6,402.3 775.2,395.7 816.8,342.7 858.4,363.6 900.0,356.8 941.6,333.0 983.2,386.1 1024.8,399.8 1066.4,391.2 1108.0,425.9 1108.0,460.3 1066.4,433.3 1024.8,438.5 983.2,430.2 941.6,389.6 900.0,406.6 858.4,410.6 816.8,396.1 775.2,463.0 733.6,466.6 692.0,468.0 650.4,467.6 608.8,468.6 567.2,470.3 525.6,476.5 484.0,475.5 442.4,474.0 400.8,474.8 359.2,473.2 317.6,473.2 276.0,473.6 234.4,475.7 192.8,472.8 151.2,468.5 109.6,480.6 68.0,481.1" fill="#9e9ac8" fill-opacity="0.9" stroke="#fff" stroke-width="0.4"><title>loop_unroll — unrollLoopsInModule</title></polygon>
<polygon points="68.0,322.0 109.6,328.4 151.2,278.5 192.8,294.8 234.4,323.9 276.0,313.7 317.6,366.6 359.2,362.3 400.8,380.1 442.4,371.5 484.0,369.3 525.6,378.4 567.2,371.9 608.8,381.7 650.4,379.7 692.0,380.8 733.6,380.0 775.2,373.1 816.8,322.7 858.4,345.3 900.0,337.8 941.6,312.4 983.2,364.8 1024.8,380.2 1066.4,372.0 1108.0,420.0 1108.0,425.9 1066.4,391.2 1024.8,399.8 983.2,386.1 941.6,333.0 900.0,356.8 858.4,363.6 816.8,342.7 775.2,395.7 733.6,402.3 692.0,403.8 650.4,402.9 608.8,404.2 567.2,395.0 525.6,401.2 484.0,392.4 442.4,394.5 400.8,402.8 359.2,385.5 317.6,391.1 276.0,393.8 234.4,403.6 192.8,383.3 151.2,366.7 109.6,410.5 68.0,405.9" fill="#807dba" fill-opacity="0.9" stroke="#fff" stroke-width="0.4"><title>loop_unroll — legalizeResourceTypes</title></polygon>
<polygon points="68.0,238.2 109.6,245.7 151.2,183.8 192.8,205.5 234.4,244.3 276.0,233.3 317.6,341.4 359.2,339.0 400.8,357.5 442.4,348.0 484.0,345.7 525.6,355.5 567.2,348.6 608.8,359.3 650.4,357.0 692.0,357.5 733.6,357.7 775.2,350.1 816.8,301.9 858.4,327.1 900.0,318.5 941.6,290.8 983.2,343.0 1024.8,360.8 1066.4,353.3 1108.0,413.9 1108.0,420.0 1066.4,372.0 1024.8,380.2 983.2,364.8 941.6,312.4 900.0,337.8 858.4,345.3 816.8,322.7 775.2,373.1 733.6,380.0 692.0,380.8 650.4,379.7 608.8,381.7 567.2,371.9 525.6,378.4 484.0,369.3 442.4,371.5 400.8,380.1 359.2,362.3 317.6,366.6 276.0,313.7 234.4,323.9 192.8,294.8 151.2,278.5 109.6,328.4 68.0,322.0" fill="#6a51a3" fill-opacity="0.9" stroke="#fff" stroke-width="0.4"><title>loop_unroll — legalizeExistentialTypeLayout</title></polygon>
<polygon points="68.0,238.2 109.6,245.7 151.2,183.7 192.8,205.4 234.4,244.2 276.0,233.2 317.6,341.4 359.2,338.9 400.8,357.5 442.4,348.0 484.0,345.6 525.6,355.4 567.2,348.6 608.8,359.2 650.4,356.9 692.0,357.5 733.6,357.6 775.2,350.0 816.8,301.8 858.4,327.0 900.0,318.5 941.6,290.7 983.2,343.0 1024.8,360.8 1066.4,353.3 1108.0,413.8 1108.0,413.9 1066.4,353.3 1024.8,360.8 983.2,343.0 941.6,290.8 900.0,318.5 858.4,327.1 816.8,301.9 775.2,350.1 733.6,357.7 692.0,357.5 650.4,357.0 608.8,359.3 567.2,348.6 525.6,355.5 484.0,345.7 442.4,348.0 400.8,357.5 359.2,339.0 317.6,341.4 276.0,233.3 234.4,244.3 192.8,205.5 151.2,183.8 109.6,245.7 68.0,238.2" fill="#bcbddc" fill-opacity="0.9" stroke="#fff" stroke-width="0.4"><title>loop_unroll — performMandatoryEarlyInlining</title></polygon>
<polygon points="68.0,238.2 109.6,245.6 151.2,183.6 192.8,205.3 234.4,244.1 276.0,233.1 317.6,341.3 359.2,338.8 400.8,357.4 442.4,347.9 484.0,345.5 525.6,355.3 567.2,348.5 608.8,359.1 650.4,356.8 692.0,357.4 733.6,357.5 775.2,349.9 816.8,301.7 858.4,326.9 900.0,318.4 941.6,290.6 983.2,342.9 1024.8,360.7 1066.4,353.2 1108.0,413.8 1108.0,413.8 1066.4,353.3 1024.8,360.8 983.2,343.0 941.6,290.7 900.0,318.5 858.4,327.0 816.8,301.8 775.2,350.0 733.6,357.6 692.0,357.5 650.4,356.9 608.8,359.2 567.2,348.6 525.6,355.4 484.0,345.6 442.4,348.0 400.8,357.5 359.2,338.9 317.6,341.4 276.0,233.2 234.4,244.2 192.8,205.4 151.2,183.7 109.6,245.7 68.0,238.2" fill="#dadaeb" fill-opacity="0.9" stroke="#fff" stroke-width="0.4"><title>loop_unroll — performForceInlining</title></polygon>
<polygon points="68.0,230.8 109.6,242.0 151.2,183.6 192.8,198.4 234.4,241.0 276.0,230.7 317.6,336.8 359.2,336.3 400.8,354.9 442.4,346.0 484.0,339.6 525.6,350.9 567.2,344.7 608.8,356.5 650.4,352.7 692.0,353.5 733.6,353.7 775.2,347.5 816.8,301.7 858.4,326.9 900.0,318.4 941.6,290.6 983.2,342.9 1024.8,360.7 1066.4,353.2 1108.0,413.8 1108.0,413.8 1066.4,353.2 1024.8,360.7 983.2,342.9 941.6,290.6 900.0,318.4 858.4,326.9 816.8,301.7 775.2,349.9 733.6,357.5 692.0,357.4 650.4,356.8 608.8,359.1 567.2,348.5 525.6,355.3 484.0,345.5 442.4,347.9 400.8,357.4 359.2,338.8 317.6,341.3 276.0,233.1 234.4,244.1 192.8,205.3 151.2,183.6 109.6,245.6 68.0,238.2" fill="#4a1486" fill-opacity="0.9" stroke="#fff" stroke-width="0.4"><title>loop_unroll — linkAndOptimizeIR (self)</title></polygon>
<polygon points="68.0,163.4 109.6,175.2 151.2,108.6 192.8,125.6 234.4,175.2 276.0,165.4 317.6,313.3 359.2,313.3 400.8,332.8 442.4,323.9 484.0,317.9 525.6,328.7 567.2,322.6 608.8,333.4 650.4,329.8 692.0,331.4 733.6,331.4 775.2,325.1 816.8,272.9 858.4,304.1 900.0,258.8 941.6,261.9 983.2,318.2 1024.8,337.5 1066.4,326.5 1108.0,409.1 1108.0,413.8 1066.4,353.2 1024.8,360.7 983.2,342.9 941.6,290.6 900.0,318.4 858.4,326.9 816.8,301.7 775.2,347.5 733.6,353.7 692.0,353.5 650.4,352.7 608.8,356.5 567.2,344.7 525.6,350.9 484.0,339.6 442.4,346.0 400.8,354.9 359.2,336.3 317.6,336.8 276.0,230.7 234.4,241.0 192.8,198.4 151.2,183.6 109.6,242.0 68.0,230.8" fill="#e6550d" fill-opacity="0.9" stroke="#fff" stroke-width="0.4"><title>loop_unroll — generateOutput (self)</title></polygon>
<polygon points="68.0,162.9 109.6,175.2 151.2,108.6 192.8,125.6 234.4,175.0 276.0,165.4 317.6,313.3 359.2,312.7 400.8,332.8 442.4,323.6 484.0,317.8 525.6,328.7 567.2,322.6 608.8,333.4 650.4,329.7 692.0,331.2 733.6,331.4 775.2,324.2 816.8,272.9 858.4,304.1 900.0,258.7 941.6,260.0 983.2,316.3 1024.8,337.4 1066.4,326.1 1108.0,409.0 1108.0,409.1 1066.4,326.5 1024.8,337.5 983.2,318.2 941.6,261.9 900.0,258.8 858.4,304.1 816.8,272.9 775.2,325.1 733.6,331.4 692.0,331.4 650.4,329.8 608.8,333.4 567.2,322.6 525.6,328.7 484.0,317.9 442.4,323.9 400.8,332.8 359.2,313.3 317.6,313.3 276.0,165.4 234.4,175.2 192.8,125.6 151.2,108.6 109.6,175.2 68.0,163.4" fill="#969696" fill-opacity="0.9" stroke="#fff" stroke-width="0.4"><title>loop_unroll — compileInner (self)</title></polygon>
<text x="12" y="578" fill="#666" font-weight="600">phase buckets</text>
<rect x="12" y="586" width="12" height="12" fill="#c7e9c0"/>
<text x="28" y="596" fill="#222">parseTranslationUnit</text>
<rect x="289" y="586" width="12" height="12" fill="#41ab5d"/>
<text x="305" y="596" fill="#222">SemanticChecking</text>
<rect x="566" y="586" width="12" height="12" fill="#006d2c"/>
<text x="582" y="596" fill="#222">generateIR</text>
<rect x="843" y="586" width="12" height="12" fill="#74c476"/>
<text x="859" y="596" fill="#222">frontEndExecute (self)</text>
<rect x="12" y="604" width="12" height="12" fill="#6baed6"/>
<text x="28" y="614" fill="#222">specializeModule</text>
<rect x="289" y="604" width="12" height="12" fill="#2171b5"/>
<text x="305" y="614" fill="#222">simplifyIR</text>
<rect x="566" y="604" width="12" height="12" fill="#08306b"/>
<text x="582" y="614" fill="#222">linkIR</text>
<rect x="843" y="604" width="12" height="12" fill="#9e9ac8"/>
<text x="859" y="614" fill="#222">unrollLoopsInModule</text>
<rect x="12" y="622" width="12" height="12" fill="#807dba"/>
<text x="28" y="632" fill="#222">legalizeResourceTypes</text>
<rect x="289" y="622" width="12" height="12" fill="#6a51a3"/>
<text x="305" y="632" fill="#222">legalizeExistentialTypeLayout</text>
<rect x="566" y="622" width="12" height="12" fill="#bcbddc"/>
<text x="582" y="632" fill="#222">performMandatoryEarlyInlining</text>
<rect x="843" y="622" width="12" height="12" fill="#dadaeb"/>
<text x="859" y="632" fill="#222">performForceInlining</text>
<rect x="12" y="640" width="12" height="12" fill="#4a1486"/>
<text x="28" y="650" fill="#222">linkAndOptimizeIR (self)</text>
<rect x="289" y="640" width="12" height="12" fill="#fd8d3c"/>
<text x="305" y="650" fill="#222">emitEntryPointsSourceFromIR</text>
<rect x="566" y="640" width="12" height="12" fill="#e6550d"/>
<text x="582" y="650" fill="#222">generateOutput (self)</text>
<rect x="843" y="640" width="12" height="12" fill="#969696"/>
<text x="859" y="650" fill="#222">compileInner (self)</text>
</svg>