<svg xmlns="http://www.w3.org/2000/svg" xmlns:xlink="http://www.w3.org/1999/xlink" width="1132" height="680" viewBox="0 0 1132 680" preserveAspectRatio="xMidYMid meet" font-family="sans-serif" font-size="13">
<rect width="1132" height="680" fill="white"/>
<text x="12" y="30" font-size="20" font-weight="bold">loop_unroll — full phase breakdown across releases (median ms)</text>
<text x="68" y="60" font-size="15" font-weight="600" fill="#1a1a1a">loop_unroll<tspan fill="#888" font-weight="400" text-decoration="none">  0.55×</tspan></text>
<line x1="68.0" y1="516.0" x2="1108.0" y2="516.0" stroke="#eee"/>
<text x="64.0" y="519.0" text-anchor="end" fill="#999">0.0</text>
<line x1="68.0" y1="296.0" x2="1108.0" y2="296.0" stroke="#eee"/>
<text x="64.0" y="299.0" text-anchor="end" fill="#999">497</text>
<line x1="68.0" y1="76.0" x2="1108.0" y2="76.0" stroke="#eee"/>
<text x="64.0" y="79.0" text-anchor="end" fill="#999">993</text>
<line x1="68.0" y1="76.0" x2="68.0" y2="516.0" stroke="#333"/>
<line x1="68.0" y1="516.0" x2="1108.0" y2="516.0" stroke="#333"/>
<line x1="956.3" y1="76.0" x2="956.3" y2="516.0" stroke="#e8731a" stroke-width="1.2" stroke-dasharray="4 3"/>
<text x="959.3" y="87.0" fill="#e8731a" font-size="11">daily →</text>
<line x1="68.0" y1="516.0" x2="68.0" y2="519.0" stroke="#999"/>
<text x="68.0" y="531.0" text-anchor="end" fill="#666" transform="rotate(-50 68.0 531.0)">25.14</text>
<line x1="111.3" y1="516.0" x2="111.3" y2="519.0" stroke="#999"/>
<text x="111.3" y="531.0" text-anchor="end" fill="#666" transform="rotate(-50 111.3 531.0)">25.15</text>
<line x1="154.7" y1="516.0" x2="154.7" y2="519.0" stroke="#999"/>
<text x="154.7" y="531.0" text-anchor="end" fill="#666" transform="rotate(-50 154.7 531.0)">25.16</text>
<line x1="198.0" y1="516.0" x2="198.0" y2="519.0" stroke="#999"/>
<text x="198.0" y="531.0" text-anchor="end" fill="#666" transform="rotate(-50 198.0 531.0)">25.17</text>
<line x1="241.3" y1="516.0" x2="241.3" y2="519.0" stroke="#999"/>
<text x="241.3" y="531.0" text-anchor="end" fill="#666" transform="rotate(-50 241.3 531.0)">25.18</text>
<line x1="284.7" y1="516.0" x2="284.7" y2="519.0" stroke="#999"/>
<text x="284.7" y="531.0" text-anchor="end" fill="#666" transform="rotate(-50 284.7 531.0)">25.19</text>
<line x1="328.0" y1="516.0" x2="328.0" y2="519.0" stroke="#999"/>
<text x="328.0" y="531.0" text-anchor="end" fill="#666" transform="rotate(-50 328.0 531.0)">25.20</text>
<line x1="371.3" y1="516.0" x2="371.3" y2="519.0" stroke="#999"/>
<text x="371.3" y="531.0" text-anchor="end" fill="#666" transform="rotate(-50 371.3 531.0)">25.21</text>
<line x1="414.7" y1="516.0" x2="414.7" y2="519.0" stroke="#999"/>
<text x="414.7" y="531.0" text-anchor="end" fill="#666" transform="rotate(-50 414.7 531.0)">25.22</text>
<line x1="458.0" y1="516.0" x2="458.0" y2="519.0" stroke="#999"/>
<text x="458.0" y="531.0" text-anchor="end" fill="#666" transform="rotate(-50 458.0 531.0)">25.23</text>
<line x1="501.3" y1="516.0" x2="501.3" y2="519.0" stroke="#999"/>
<text x="501.3" y="531.0" text-anchor="end" fill="#666" transform="rotate(-50 501.3 531.0)">25.24</text>
<line x1="544.7" y1="516.0" x2="544.7" y2="519.0" stroke="#999"/>
<text x="544.7" y="531.0" text-anchor="end" fill="#666" transform="rotate(-50 544.7 531.0)">26.1</text>
<line x1="588.0" y1="516.0" x2="588.0" y2="519.0" stroke="#999"/>
<text x="588.0" y="531.0" text-anchor="end" fill="#666" transform="rotate(-50 588.0 531.0)">26.2</text>
<line x1="631.3" y1="516.0" x2="631.3" y2="519.0" stroke="#999"/>
<text x="631.3" y="531.0" text-anchor="end" fill="#666" transform="rotate(-50 631.3 531.0)">26.3</text>
<line x1="674.7" y1="516.0" x2="674.7" y2="519.0" stroke="#999"/>
<text x="674.7" y="531.0" text-anchor="end" fill="#666" transform="rotate(-50 674.7 531.0)">26.4</text>
<line x1="718.0" y1="516.0" x2="718.0" y2="519.0" stroke="#999"/>
<text x="718.0" y="531.0" text-anchor="end" fill="#666" transform="rotate(-50 718.0 531.0)">26.5</text>
<line x1="761.3" y1="516.0" x2="761.3" y2="519.0" stroke="#999"/>
<text x="761.3" y="531.0" text-anchor="end" fill="#666" transform="rotate(-50 761.3 531.0)">26.7</text>
<line x1="804.7" y1="516.0" x2="804.7" y2="519.0" stroke="#999"/>
<text x="804.7" y="531.0" text-anchor="end" fill="#666" transform="rotate(-50 804.7 531.0)">26.8</text>
<line x1="848.0" y1="516.0" x2="848.0" y2="519.0" stroke="#999"/>
<text x="848.0" y="531.0" text-anchor="end" fill="#666" transform="rotate(-50 848.0 531.0)">26.9</text>
<line x1="891.3" y1="516.0" x2="891.3" y2="519.0" stroke="#999"/>
<text x="891.3" y="531.0" text-anchor="end" fill="#666" transform="rotate(-50 891.3 531.0)">26.10</text>
<line x1="934.7" y1="516.0" x2="934.7" y2="519.0" stroke="#999"/>
<text x="934.7" y="531.0" text-anchor="end" fill="#666" transform="rotate(-50 934.7 531.0)">26.11</text>
<line x1="978.0" y1="516.0" x2="978.0" y2="519.0" stroke="#999"/>
<text x="978.0" y="531.0" text-anchor="end" fill="#e8731a" transform="rotate(-50 978.0 531.0)">06-25</text>
<line x1="1021.3" y1="516.0" x2="1021.3" y2="519.0" stroke="#999"/>
<text x="1021.3" y="531.0" text-anchor="end" fill="#e8731a" transform="rotate(-50 1021.3 531.0)">06-26</text>
<line x1="1064.7" y1="516.0" x2="1064.7" y2="519.0" stroke="#999"/>
<text x="1064.7" y="531.0" text-anchor="end" fill="#e8731a" transform="rotate(-50 1064.7 531.0)">06-28</text>
<line x1="1108.0" y1="516.0" x2="1108.0" y2="519.0" stroke="#999"/>
<text x="1108.0" y="531.0" text-anchor="end" fill="#e8731a" transform="rotate(-50 1108.0 531.0)">07-01</text>
<polygon points="68.0,515.9 111.3,515.9 154.7,515.9 198.0,515.9 241.3,515.9 284.7,515.9 328.0,515.9 371.3,515.9 414.7,515.9 458.0,515.9 501.3,515.9 544.7,515.9 588.0,515.9 631.3,515.9 674.7,515.9 718.0,515.9 761.3,515.9 804.7,515.9 848.0,515.9 891.3,515.9 934.7,515.9 978.0,515.9 1021.3,515.9 1064.7,515.9 1108.0,515.9 1108.0,516.0 1064.7,516.0 1021.3,516.0 978.0,516.0 934.7,516.0 891.3,516.0 848.0,516.0 804.7,516.0 761.3,516.0 718.0,516.0 674.7,516.0 631.3,516.0 588.0,516.0 544.7,516.0 501.3,516.0 458.0,516.0 414.7,516.0 371.3,516.0 328.0,516.0 284.7,516.0 241.3,516.0 198.0,516.0 154.7,516.0 111.3,516.0 68.0,516.0" fill="#c7e9c0" fill-opacity="0.9" stroke="#fff" stroke-width="0.4"><title>loop_unroll — parseTranslationUnit</title></polygon>
<polygon points="68.0,510.7 111.3,506.0 154.7,506.0 198.0,505.6 241.3,505.7 284.7,505.5 328.0,505.6 371.3,505.6 414.7,508.2 458.0,508.2 501.3,508.1 544.7,508.2 588.0,507.4 631.3,507.3 674.7,507.3 718.0,507.2 761.3,504.0 804.7,503.8 848.0,503.8 891.3,502.9 934.7,512.3 978.0,511.2 1021.3,511.4 1064.7,511.3 1108.0,511.3 1108.0,515.9 1064.7,515.9 1021.3,515.9 978.0,515.9 934.7,515.9 891.3,515.9 848.0,515.9 804.7,515.9 761.3,515.9 718.0,515.9 674.7,515.9 631.3,515.9 588.0,515.9 544.7,515.9 501.3,515.9 458.0,515.9 414.7,515.9 371.3,515.9 328.0,515.9 284.7,515.9 241.3,515.9 198.0,515.9 154.7,515.9 111.3,515.9 68.0,515.9" fill="#41ab5d" fill-opacity="0.9" stroke="#fff" stroke-width="0.4"><title>loop_unroll — SemanticChecking</title></polygon>
<polygon points="68.0,509.8 111.3,505.1 154.7,505.1 198.0,504.7 241.3,504.8 284.7,504.6 328.0,504.7 371.3,504.7 414.7,507.4 458.0,507.3 501.3,507.2 544.7,507.2 588.0,506.4 631.3,506.4 674.7,506.3 718.0,506.2 761.3,499.2 804.7,498.9 848.0,498.9 891.3,498.0 934.7,510.8 978.0,509.7 1021.3,509.9 1064.7,509.8 1108.0,509.8 1108.0,511.3 1064.7,511.3 1021.3,511.4 978.0,511.2 934.7,512.3 891.3,502.9 848.0,503.8 804.7,503.8 761.3,504.0 718.0,507.2 674.7,507.3 631.3,507.3 588.0,507.4 544.7,508.2 501.3,508.1 458.0,508.2 414.7,508.2 371.3,505.6 328.0,505.6 284.7,505.5 241.3,505.7 198.0,505.6 154.7,506.0 111.3,506.0 68.0,510.7" fill="#006d2c" fill-opacity="0.9" stroke="#fff" stroke-width="0.4"><title>loop_unroll — generateIR</title></polygon>
<polygon points="68.0,509.8 111.3,505.0 154.7,505.0 198.0,504.6 241.3,504.7 284.7,504.5 328.0,504.6 371.3,504.6 414.7,507.3 458.0,507.2 501.3,507.1 544.7,507.1 588.0,506.3 631.3,506.2 674.7,506.2 718.0,506.0 761.3,499.0 804.7,498.8 848.0,498.8 891.3,497.9 934.7,510.7 978.0,509.5 1021.3,509.7 1064.7,509.7 1108.0,509.6 1108.0,509.8 1064.7,509.8 1021.3,509.9 978.0,509.7 934.7,510.8 891.3,498.0 848.0,498.9 804.7,498.9 761.3,499.2 718.0,506.2 674.7,506.3 631.3,506.4 588.0,506.4 544.7,507.2 501.3,507.2 458.0,507.3 414.7,507.4 371.3,504.7 328.0,504.7 284.7,504.6 241.3,504.8 198.0,504.7 154.7,505.1 111.3,505.1 68.0,509.8" fill="#74c476" fill-opacity="0.9" stroke="#fff" stroke-width="0.4"><title>loop_unroll — frontEndExecute (self)</title></polygon>
<polygon points="68.0,496.6 111.3,492.0 154.7,492.0 198.0,491.6 241.3,491.5 284.7,491.4 328.0,491.4 371.3,491.4 414.7,494.3 458.0,494.1 501.3,486.7 544.7,484.3 588.0,483.8 631.3,483.6 674.7,482.7 718.0,478.2 761.3,439.5 804.7,438.6 848.0,439.5 891.3,437.8 934.7,460.6 978.0,451.1 1021.3,451.8 1064.7,451.5 1108.0,451.3 1108.0,509.6 1064.7,509.7 1021.3,509.7 978.0,509.5 934.7,510.7 891.3,497.9 848.0,498.8 804.7,498.8 761.3,499.0 718.0,506.0 674.7,506.2 631.3,506.2 588.0,506.3 544.7,507.1 501.3,507.1 458.0,507.2 414.7,507.3 371.3,504.6 328.0,504.6 284.7,504.5 241.3,504.7 198.0,504.6 154.7,505.0 111.3,505.0 68.0,509.8" fill="#6baed6" fill-opacity="0.9" stroke="#fff" stroke-width="0.4"><title>loop_unroll — specializeModule</title></polygon>
<polygon points="68.0,477.0 111.3,472.3 154.7,471.8 198.0,472.3 241.3,470.5 284.7,469.6 328.0,470.4 371.3,471.6 414.7,473.5 458.0,472.6 501.3,468.0 544.7,465.2 588.0,464.0 631.3,465.0 674.7,463.5 718.0,458.4 761.3,408.6 804.7,407.6 848.0,408.8 891.3,407.7 934.7,432.7 978.0,421.4 1021.3,422.5 1064.7,422.1 1108.0,421.6 1108.0,451.3 1064.7,451.5 1021.3,451.8 978.0,451.1 934.7,460.6 891.3,437.8 848.0,439.5 804.7,438.6 761.3,439.5 718.0,478.2 674.7,482.7 631.3,483.6 588.0,483.8 544.7,484.3 501.3,486.7 458.0,494.1 414.7,494.3 371.3,491.4 328.0,491.4 284.7,491.4 241.3,491.5 198.0,491.6 154.7,492.0 111.3,492.0 68.0,496.6" fill="#2171b5" fill-opacity="0.9" stroke="#fff" stroke-width="0.4"><title>loop_unroll — simplifyIR</title></polygon>
<polygon points="68.0,476.6 111.3,472.1 154.7,471.6 198.0,472.0 241.3,470.2 284.7,469.3 328.0,470.2 371.3,471.3 414.7,473.3 458.0,472.3 501.3,467.7 544.7,464.9 588.0,463.7 631.3,464.7 674.7,463.2 718.0,458.1 761.3,405.2 804.7,404.2 848.0,405.4 891.3,404.2 934.7,432.4 978.0,421.2 1021.3,422.3 1064.7,421.9 1108.0,421.3 1108.0,421.6 1064.7,422.1 1021.3,422.5 978.0,421.4 934.7,432.7 891.3,407.7 848.0,408.8 804.7,407.6 761.3,408.6 718.0,458.4 674.7,463.5 631.3,465.0 588.0,464.0 544.7,465.2 501.3,468.0 458.0,472.6 414.7,473.5 371.3,471.6 328.0,470.4 284.7,469.6 241.3,470.5 198.0,472.3 154.7,471.8 111.3,472.3 68.0,477.0" fill="#08306b" fill-opacity="0.9" stroke="#fff" stroke-width="0.4"><title>loop_unroll — linkIR</title></polygon>
<polygon points="68.0,393.6 111.3,391.4 154.7,384.8 198.0,394.6 241.3,382.4 284.7,369.2 328.0,383.9 371.3,388.0 414.7,379.0 458.0,372.9 501.3,392.6 544.7,395.2 588.0,392.8 631.3,392.1 674.7,392.6 718.0,385.3 761.3,354.6 804.7,352.5 848.0,354.7 891.3,352.5 934.7,389.3 978.0,371.3 1021.3,372.7 1064.7,372.1 1108.0,371.5 1108.0,421.3 1064.7,421.9 1021.3,422.3 978.0,421.2 934.7,432.4 891.3,404.2 848.0,405.4 804.7,404.2 761.3,405.2 718.0,458.1 674.7,463.2 631.3,464.7 588.0,463.7 544.7,464.9 501.3,467.7 458.0,472.3 414.7,473.3 371.3,471.3 328.0,470.2 284.7,469.3 241.3,470.2 198.0,472.0 154.7,471.6 111.3,472.1 68.0,476.6" fill="#9e9ac8" fill-opacity="0.9" stroke="#fff" stroke-width="0.4"><title>loop_unroll — unrollLoopsInModule</title></polygon>
<polygon points="68.0,298.1 111.3,296.9 154.7,286.9 198.0,300.2 241.3,357.4 284.7,343.8 328.0,358.7 371.3,363.1 414.7,353.9 458.0,347.2 501.3,367.4 544.7,369.4 588.0,367.4 631.3,366.8 674.7,367.3 718.0,359.3 761.3,334.2 804.7,332.0 848.0,333.9 891.3,331.7 934.7,367.3 978.0,349.2 1021.3,351.3 1064.7,350.0 1108.0,350.4 1108.0,371.5 1064.7,372.1 1021.3,372.7 978.0,371.3 934.7,389.3 891.3,352.5 848.0,354.7 804.7,352.5 761.3,354.6 718.0,385.3 674.7,392.6 631.3,392.1 588.0,392.8 544.7,395.2 501.3,392.6 458.0,372.9 414.7,379.0 371.3,388.0 328.0,383.9 284.7,369.2 241.3,382.4 198.0,394.6 154.7,384.8 111.3,391.4 68.0,393.6" fill="#807dba" fill-opacity="0.9" stroke="#fff" stroke-width="0.4"><title>loop_unroll — legalizeResourceTypes</title></polygon>
<polygon points="68.0,202.7 111.3,202.5 154.7,189.0 198.0,205.5 241.3,332.5 284.7,318.7 328.0,333.4 371.3,338.1 414.7,329.0 458.0,321.1 501.3,342.1 544.7,343.8 588.0,342.1 631.3,341.4 674.7,342.1 718.0,332.9 761.3,314.0 804.7,311.6 848.0,313.0 891.3,311.0 934.7,345.5 978.0,327.3 1021.3,330.1 1064.7,328.3 1108.0,329.3 1108.0,350.4 1064.7,350.0 1021.3,351.3 978.0,349.2 934.7,367.3 891.3,331.7 848.0,333.9 804.7,332.0 761.3,334.2 718.0,359.3 674.7,367.3 631.3,366.8 588.0,367.4 544.7,369.4 501.3,367.4 458.0,347.2 414.7,353.9 371.3,363.1 328.0,358.7 284.7,343.8 241.3,357.4 198.0,300.2 154.7,286.9 111.3,296.9 68.0,298.1" fill="#6a51a3" fill-opacity="0.9" stroke="#fff" stroke-width="0.4"><title>loop_unroll — legalizeExistentialTypeLayout</title></polygon>
<polygon points="68.0,202.6 111.3,202.4 154.7,188.9 198.0,205.4 241.3,332.4 284.7,318.7 328.0,333.3 371.3,338.0 414.7,329.0 458.0,321.0 501.3,342.0 544.7,343.8 588.0,342.0 631.3,341.3 674.7,342.1 718.0,332.8 761.3,314.0 804.7,311.5 848.0,312.9 891.3,311.0 934.7,345.5 978.0,327.3 1021.3,330.1 1064.7,328.3 1108.0,329.3 1108.0,329.3 1064.7,328.3 1021.3,330.1 978.0,327.3 934.7,345.5 891.3,311.0 848.0,313.0 804.7,311.6 761.3,314.0 718.0,332.9 674.7,342.1 631.3,341.4 588.0,342.1 544.7,343.8 501.3,342.1 458.0,321.1 414.7,329.0 371.3,338.1 328.0,333.4 284.7,318.7 241.3,332.5 198.0,205.5 154.7,189.0 111.3,202.5 68.0,202.7" fill="#bcbddc" fill-opacity="0.9" stroke="#fff" stroke-width="0.4"><title>loop_unroll — performMandatoryEarlyInlining</title></polygon>
<polygon points="68.0,202.5 111.3,202.3 154.7,188.8 198.0,205.3 241.3,332.3 284.7,318.6 328.0,333.2 371.3,337.9 414.7,328.9 458.0,320.9 501.3,341.9 544.7,343.7 588.0,341.9 631.3,341.2 674.7,342.0 718.0,332.7 761.3,313.9 804.7,311.5 848.0,312.8 891.3,310.9 934.7,345.4 978.0,327.2 1021.3,330.0 1064.7,328.2 1108.0,329.2 1108.0,329.3 1064.7,328.3 1021.3,330.1 978.0,327.3 934.7,345.5 891.3,311.0 848.0,312.9 804.7,311.5 761.3,314.0 718.0,332.8 674.7,342.1 631.3,341.3 588.0,342.0 544.7,343.8 501.3,342.0 458.0,321.0 414.7,329.0 371.3,338.0 328.0,333.3 284.7,318.7 241.3,332.4 198.0,205.4 154.7,188.9 111.3,202.4 68.0,202.6" fill="#dadaeb" fill-opacity="0.9" stroke="#fff" stroke-width="0.4"><title>loop_unroll — performForceInlining</title></polygon>
<polygon points="68.0,202.4 111.3,200.0 154.7,182.4 198.0,201.3 241.3,329.7 284.7,315.9 328.0,329.8 371.3,331.2 414.7,325.1 458.0,318.8 501.3,338.9 544.7,340.3 588.0,338.8 631.3,337.3 674.7,337.4 718.0,328.3 761.3,313.9 804.7,311.5 848.0,312.8 891.3,310.9 934.7,345.4 978.0,327.2 1021.3,330.0 1064.7,328.2 1108.0,329.2 1108.0,329.2 1064.7,328.2 1021.3,330.0 978.0,327.2 934.7,345.4 891.3,310.9 848.0,312.8 804.7,311.5 761.3,313.9 718.0,332.7 674.7,342.0 631.3,341.2 588.0,341.9 544.7,343.7 501.3,341.9 458.0,320.9 414.7,328.9 371.3,337.9 328.0,333.2 284.7,318.6 241.3,332.3 198.0,205.3 154.7,188.8 111.3,202.3 68.0,202.5" fill="#4a1486" fill-opacity="0.9" stroke="#fff" stroke-width="0.4"><title>loop_unroll — linkAndOptimizeIR (self)</title></polygon>
<polygon points="68.0,129.2 111.3,127.0 154.7,108.6 198.0,129.4 241.3,305.7 284.7,291.6 328.0,306.1 371.3,307.2 414.7,301.2 458.0,294.5 501.3,315.2 544.7,316.0 588.0,314.8 631.3,313.1 674.7,312.7 718.0,303.4 761.3,288.8 804.7,286.2 848.0,288.2 891.3,285.9 934.7,319.6 978.0,301.5 1021.3,304.7 1064.7,303.0 1108.0,302.8 1108.0,329.2 1064.7,328.2 1021.3,330.0 978.0,327.2 934.7,345.4 891.3,310.9 848.0,312.8 804.7,311.5 761.3,313.9 718.0,328.3 674.7,337.4 631.3,337.3 588.0,338.8 544.7,340.3 501.3,338.9 458.0,318.8 414.7,325.1 371.3,331.2 328.0,329.8 284.7,315.9 241.3,329.7 198.0,201.3 154.7,182.4 111.3,200.0 68.0,202.4" fill="#e6550d" fill-opacity="0.9" stroke="#fff" stroke-width="0.4"><title>loop_unroll — generateOutput (self)</title></polygon>
<polygon points="68.0,129.2 111.3,127.0 154.7,108.6 198.0,129.3 241.3,305.5 284.7,291.6 328.0,306.0 371.3,307.2 414.7,301.2 458.0,294.4 501.3,315.0 544.7,315.7 588.0,314.7 631.3,313.1 674.7,312.7 718.0,303.3 761.3,288.8 804.7,286.2 848.0,288.2 891.3,284.1 934.7,319.5 978.0,301.1 1021.3,304.5 1064.7,302.9 1108.0,302.8 1108.0,302.8 1064.7,303.0 1021.3,304.7 978.0,301.5 934.7,319.6 891.3,285.9 848.0,288.2 804.7,286.2 761.3,288.8 718.0,303.4 674.7,312.7 631.3,313.1 588.0,314.8 544.7,316.0 501.3,315.2 458.0,294.5 414.7,301.2 371.3,307.2 328.0,306.1 284.7,291.6 241.3,305.7 198.0,129.4 154.7,108.6 111.3,127.0 68.0,129.2" fill="#969696" fill-opacity="0.9" stroke="#fff" stroke-width="0.4"><title>loop_unroll — compileInner (self)</title></polygon>
<text x="12" y="578" fill="#666" font-weight="600">phase buckets</text>
<rect x="12" y="586" width="12" height="12" fill="#c7e9c0"/>
<text x="28" y="596" fill="#222">parseTranslationUnit</text>
<rect x="289" y="586" width="12" height="12" fill="#41ab5d"/>
<text x="305" y="596" fill="#222">SemanticChecking</text>
<rect x="566" y="586" width="12" height="12" fill="#006d2c"/>
<text x="582" y="596" fill="#222">generateIR</text>
<rect x="843" y="586" width="12" height="12" fill="#74c476"/>
<text x="859" y="596" fill="#222">frontEndExecute (self)</text>
<rect x="12" y="604" width="12" height="12" fill="#6baed6"/>
<text x="28" y="614" fill="#222">specializeModule</text>
<rect x="289" y="604" width="12" height="12" fill="#2171b5"/>
<text x="305" y="614" fill="#222">simplifyIR</text>
<rect x="566" y="604" width="12" height="12" fill="#08306b"/>
<text x="582" y="614" fill="#222">linkIR</text>
<rect x="843" y="604" width="12" height="12" fill="#9e9ac8"/>
<text x="859" y="614" fill="#222">unrollLoopsInModule</text>
<rect x="12" y="622" width="12" height="12" fill="#807dba"/>
<text x="28" y="632" fill="#222">legalizeResourceTypes</text>
<rect x="289" y="622" width="12" height="12" fill="#6a51a3"/>
<text x="305" y="632" fill="#222">legalizeExistentialTypeLayout</text>
<rect x="566" y="622" width="12" height="12" fill="#bcbddc"/>
<text x="582" y="632" fill="#222">performMandatoryEarlyInlining</text>
<rect x="843" y="622" width="12" height="12" fill="#dadaeb"/>
<text x="859" y="632" fill="#222">performForceInlining</text>
<rect x="12" y="640" width="12" height="12" fill="#4a1486"/>
<text x="28" y="650" fill="#222">linkAndOptimizeIR (self)</text>
<rect x="289" y="640" width="12" height="12" fill="#fd8d3c"/>
<text x="305" y="650" fill="#222">emitEntryPointsSourceFromIR</text>
<rect x="566" y="640" width="12" height="12" fill="#e6550d"/>
<text x="582" y="650" fill="#222">generateOutput (self)</text>
<rect x="843" y="640" width="12" height="12" fill="#969696"/>
<text x="859" y="650" fill="#222">compileInner (self)</text>
</svg>