<svg xmlns="http://www.w3.org/2000/svg" xmlns:xlink="http://www.w3.org/1999/xlink" width="1132" height="680" viewBox="0 0 1132 680" preserveAspectRatio="xMidYMid meet" font-family="sans-serif" font-size="13">
<rect width="1132" height="680" fill="white"/>
<text x="12" y="30" font-size="20" font-weight="bold">loop_unroll — full phase breakdown across releases (median ms)</text>
<text x="68" y="60" font-size="15" font-weight="600" fill="#1a1a1a">loop_unroll<tspan fill="#888" font-weight="400" text-decoration="none">  0.49×</tspan></text>
<line x1="68.0" y1="516.0" x2="1108.0" y2="516.0" stroke="#eee"/>
<text x="64.0" y="519.0" text-anchor="end" fill="#999">0.0</text>
<line x1="68.0" y1="296.0" x2="1108.0" y2="296.0" stroke="#eee"/>
<text x="64.0" y="299.0" text-anchor="end" fill="#999">470</text>
<line x1="68.0" y1="76.0" x2="1108.0" y2="76.0" stroke="#eee"/>
<text x="64.0" y="79.0" text-anchor="end" fill="#999">940</text>
<line x1="68.0" y1="76.0" x2="68.0" y2="516.0" stroke="#333"/>
<line x1="68.0" y1="516.0" x2="1108.0" y2="516.0" stroke="#333"/>
<line x1="789.3" y1="76.0" x2="789.3" y2="516.0" stroke="#e8731a" stroke-width="1.2" stroke-dasharray="4 3"/>
<text x="792.3" y="87.0" fill="#e8731a" font-size="11">daily →</text>
<line x1="68.0" y1="516.0" x2="68.0" y2="519.0" stroke="#999"/>
<text x="68.0" y="531.0" text-anchor="end" fill="#666" transform="rotate(-50 68.0 531.0)">25.14</text>
<line x1="101.5" y1="516.0" x2="101.5" y2="519.0" stroke="#999"/>
<text x="101.5" y="531.0" text-anchor="end" fill="#666" transform="rotate(-50 101.5 531.0)">25.15</text>
<line x1="135.1" y1="516.0" x2="135.1" y2="519.0" stroke="#999"/>
<text x="135.1" y="531.0" text-anchor="end" fill="#666" transform="rotate(-50 135.1 531.0)">25.16</text>
<line x1="168.6" y1="516.0" x2="168.6" y2="519.0" stroke="#999"/>
<text x="168.6" y="531.0" text-anchor="end" fill="#666" transform="rotate(-50 168.6 531.0)">25.17</text>
<line x1="202.2" y1="516.0" x2="202.2" y2="519.0" stroke="#999"/>
<text x="202.2" y="531.0" text-anchor="end" fill="#666" transform="rotate(-50 202.2 531.0)">25.18</text>
<line x1="235.7" y1="516.0" x2="235.7" y2="519.0" stroke="#999"/>
<text x="235.7" y="531.0" text-anchor="end" fill="#666" transform="rotate(-50 235.7 531.0)">25.19</text>
<line x1="269.3" y1="516.0" x2="269.3" y2="519.0" stroke="#999"/>
<text x="269.3" y="531.0" text-anchor="end" fill="#666" transform="rotate(-50 269.3 531.0)">25.20</text>
<line x1="302.8" y1="516.0" x2="302.8" y2="519.0" stroke="#999"/>
<text x="302.8" y="531.0" text-anchor="end" fill="#666" transform="rotate(-50 302.8 531.0)">25.21</text>
<line x1="336.4" y1="516.0" x2="336.4" y2="519.0" stroke="#999"/>
<text x="336.4" y="531.0" text-anchor="end" fill="#666" transform="rotate(-50 336.4 531.0)">25.22</text>
<line x1="369.9" y1="516.0" x2="369.9" y2="519.0" stroke="#999"/>
<text x="369.9" y="531.0" text-anchor="end" fill="#666" transform="rotate(-50 369.9 531.0)">25.23</text>
<line x1="403.5" y1="516.0" x2="403.5" y2="519.0" stroke="#999"/>
<text x="403.5" y="531.0" text-anchor="end" fill="#666" transform="rotate(-50 403.5 531.0)">25.24</text>
<line x1="437.0" y1="516.0" x2="437.0" y2="519.0" stroke="#999"/>
<text x="437.0" y="531.0" text-anchor="end" fill="#666" transform="rotate(-50 437.0 531.0)">26.1</text>
<line x1="470.6" y1="516.0" x2="470.6" y2="519.0" stroke="#999"/>
<text x="470.6" y="531.0" text-anchor="end" fill="#666" transform="rotate(-50 470.6 531.0)">26.2</text>
<line x1="504.1" y1="516.0" x2="504.1" y2="519.0" stroke="#999"/>
<text x="504.1" y="531.0" text-anchor="end" fill="#666" transform="rotate(-50 504.1 531.0)">26.3</text>
<line x1="537.7" y1="516.0" x2="537.7" y2="519.0" stroke="#999"/>
<text x="537.7" y="531.0" text-anchor="end" fill="#666" transform="rotate(-50 537.7 531.0)">26.4</text>
<line x1="571.2" y1="516.0" x2="571.2" y2="519.0" stroke="#999"/>
<text x="571.2" y="531.0" text-anchor="end" fill="#666" transform="rotate(-50 571.2 531.0)">26.5</text>
<line x1="604.8" y1="516.0" x2="604.8" y2="519.0" stroke="#999"/>
<text x="604.8" y="531.0" text-anchor="end" fill="#666" transform="rotate(-50 604.8 531.0)">26.7</text>
<line x1="638.3" y1="516.0" x2="638.3" y2="519.0" stroke="#999"/>
<text x="638.3" y="531.0" text-anchor="end" fill="#666" transform="rotate(-50 638.3 531.0)">26.8</text>
<line x1="671.9" y1="516.0" x2="671.9" y2="519.0" stroke="#999"/>
<text x="671.9" y="531.0" text-anchor="end" fill="#666" transform="rotate(-50 671.9 531.0)">26.9</text>
<line x1="705.4" y1="516.0" x2="705.4" y2="519.0" stroke="#999"/>
<text x="705.4" y="531.0" text-anchor="end" fill="#666" transform="rotate(-50 705.4 531.0)">26.10</text>
<line x1="739.0" y1="516.0" x2="739.0" y2="519.0" stroke="#999"/>
<text x="739.0" y="531.0" text-anchor="end" fill="#666" transform="rotate(-50 739.0 531.0)">26.11</text>
<line x1="772.5" y1="516.0" x2="772.5" y2="519.0" stroke="#999"/>
<text x="772.5" y="531.0" text-anchor="end" fill="#666" transform="rotate(-50 772.5 531.0)">26.12</text>
<line x1="806.1" y1="516.0" x2="806.1" y2="519.0" stroke="#999"/>
<text x="806.1" y="531.0" text-anchor="end" fill="#e8731a" transform="rotate(-50 806.1 531.0)">06-25</text>
<line x1="839.6" y1="516.0" x2="839.6" y2="519.0" stroke="#999"/>
<text x="839.6" y="531.0" text-anchor="end" fill="#e8731a" transform="rotate(-50 839.6 531.0)">06-26</text>
<line x1="873.2" y1="516.0" x2="873.2" y2="519.0" stroke="#999"/>
<text x="873.2" y="531.0" text-anchor="end" fill="#e8731a" transform="rotate(-50 873.2 531.0)">06-28</text>
<line x1="906.7" y1="516.0" x2="906.7" y2="519.0" stroke="#999"/>
<text x="906.7" y="531.0" text-anchor="end" fill="#e8731a" transform="rotate(-50 906.7 531.0)">07-01</text>
<line x1="940.3" y1="516.0" x2="940.3" y2="519.0" stroke="#999"/>
<text x="940.3" y="531.0" text-anchor="end" fill="#e8731a" transform="rotate(-50 940.3 531.0)">07-02</text>
<line x1="973.8" y1="516.0" x2="973.8" y2="519.0" stroke="#999"/>
<text x="973.8" y="531.0" text-anchor="end" fill="#e8731a" transform="rotate(-50 973.8 531.0)">07-03</text>
<line x1="1007.4" y1="516.0" x2="1007.4" y2="519.0" stroke="#999"/>
<text x="1007.4" y="531.0" text-anchor="end" fill="#e8731a" transform="rotate(-50 1007.4 531.0)">07-07</text>
<line x1="1040.9" y1="516.0" x2="1040.9" y2="519.0" stroke="#999"/>
<text x="1040.9" y="531.0" text-anchor="end" fill="#e8731a" transform="rotate(-50 1040.9 531.0)">07-07</text>
<line x1="1074.5" y1="516.0" x2="1074.5" y2="519.0" stroke="#999"/>
<text x="1074.5" y="531.0" text-anchor="end" fill="#e8731a" transform="rotate(-50 1074.5 531.0)">07-09</text>
<line x1="1108.0" y1="516.0" x2="1108.0" y2="519.0" stroke="#999"/>
<text x="1108.0" y="531.0" text-anchor="end" fill="#e8731a" transform="rotate(-50 1108.0 531.0)">07-10</text>
<polygon points="68.0,515.9 101.5,515.9 135.1,515.9 168.6,515.9 202.2,515.9 235.7,515.9 269.3,515.9 302.8,515.9 336.4,515.9 369.9,515.9 403.5,515.9 437.0,515.9 470.6,515.9 504.1,515.9 537.7,515.9 571.2,515.9 604.8,515.9 638.3,515.9 671.9,515.9 705.4,515.9 739.0,515.9 772.5,515.9 806.1,515.9 839.6,515.9 873.2,515.9 906.7,515.9 940.3,515.9 973.8,515.9 1007.4,515.9 1040.9,515.9 1074.5,515.9 1108.0,515.9 1108.0,516.0 1074.5,516.0 1040.9,516.0 1007.4,516.0 973.8,516.0 940.3,516.0 906.7,516.0 873.2,516.0 839.6,516.0 806.1,516.0 772.5,516.0 739.0,516.0 705.4,516.0 671.9,516.0 638.3,516.0 604.8,516.0 571.2,516.0 537.7,516.0 504.1,516.0 470.6,516.0 437.0,516.0 403.5,516.0 369.9,516.0 336.4,516.0 302.8,516.0 269.3,516.0 235.7,516.0 202.2,516.0 168.6,516.0 135.1,516.0 101.5,516.0 68.0,516.0" fill="#c7e9c0" fill-opacity="0.9" stroke="#fff" stroke-width="0.4"><title>loop_unroll — parseTranslationUnit</title></polygon>
<polygon points="68.0,510.3 101.5,505.5 135.1,505.2 168.6,504.5 202.2,504.7 235.7,504.3 269.3,504.7 302.8,504.4 336.4,507.1 369.9,507.1 403.5,507.3 437.0,507.8 470.6,506.6 504.1,506.8 537.7,506.4 571.2,506.6 604.8,502.9 638.3,503.1 671.9,502.8 705.4,502.2 739.0,512.0 772.5,511.2 806.1,510.9 839.6,511.0 873.2,510.7 906.7,510.8 940.3,510.8 973.8,510.6 1007.4,511.4 1040.9,511.4 1074.5,511.4 1108.0,511.3 1108.0,515.9 1074.5,515.9 1040.9,515.9 1007.4,515.9 973.8,515.9 940.3,515.9 906.7,515.9 873.2,515.9 839.6,515.9 806.1,515.9 772.5,515.9 739.0,515.9 705.4,515.9 671.9,515.9 638.3,515.9 604.8,515.9 571.2,515.9 537.7,515.9 504.1,515.9 470.6,515.9 437.0,515.9 403.5,515.9 369.9,515.9 336.4,515.9 302.8,515.9 269.3,515.9 235.7,515.9 202.2,515.9 168.6,515.9 135.1,515.9 101.5,515.9 68.0,515.9" fill="#41ab5d" fill-opacity="0.9" stroke="#fff" stroke-width="0.4"><title>loop_unroll — SemanticChecking</title></polygon>
<polygon points="68.0,509.4 101.5,504.6 135.1,504.3 168.6,503.4 202.2,503.6 235.7,503.3 269.3,503.7 302.8,503.4 336.4,506.1 369.9,506.0 403.5,506.3 437.0,506.9 470.6,505.5 504.1,505.8 537.7,505.4 571.2,505.6 604.8,497.4 638.3,497.5 671.9,497.2 705.4,496.4 739.0,510.4 772.5,509.6 806.1,509.2 839.6,509.3 873.2,509.0 906.7,509.2 940.3,509.1 973.8,508.9 1007.4,509.6 1040.9,509.6 1074.5,509.6 1108.0,509.5 1108.0,511.3 1074.5,511.4 1040.9,511.4 1007.4,511.4 973.8,510.6 940.3,510.8 906.7,510.8 873.2,510.7 839.6,511.0 806.1,510.9 772.5,511.2 739.0,512.0 705.4,502.2 671.9,502.8 638.3,503.1 604.8,502.9 571.2,506.6 537.7,506.4 504.1,506.8 470.6,506.6 437.0,507.8 403.5,507.3 369.9,507.1 336.4,507.1 302.8,504.4 269.3,504.7 235.7,504.3 202.2,504.7 168.6,504.5 135.1,505.2 101.5,505.5 68.0,510.3" fill="#006d2c" fill-opacity="0.9" stroke="#fff" stroke-width="0.4"><title>loop_unroll — generateIR</title></polygon>
<polygon points="68.0,509.3 101.5,504.5 135.1,504.2 168.6,503.3 202.2,503.5 235.7,503.1 269.3,503.6 302.8,503.3 336.4,506.0 369.9,505.9 403.5,506.2 437.0,506.7 470.6,505.4 504.1,505.6 537.7,505.2 571.2,505.4 604.8,497.2 638.3,497.3 671.9,497.2 705.4,495.7 739.0,510.2 772.5,509.5 806.1,509.1 839.6,509.1 873.2,508.8 906.7,509.0 940.3,508.9 973.8,508.7 1007.4,509.5 1040.9,509.4 1074.5,509.5 1108.0,509.3 1108.0,509.5 1074.5,509.6 1040.9,509.6 1007.4,509.6 973.8,508.9 940.3,509.1 906.7,509.2 873.2,509.0 839.6,509.3 806.1,509.2 772.5,509.6 739.0,510.4 705.4,496.4 671.9,497.2 638.3,497.5 604.8,497.4 571.2,505.6 537.7,505.4 504.1,505.8 470.6,505.5 437.0,506.9 403.5,506.3 369.9,506.0 336.4,506.1 302.8,503.4 269.3,503.7 235.7,503.3 202.2,503.6 168.6,503.4 135.1,504.3 101.5,504.6 68.0,509.4" fill="#74c476" fill-opacity="0.9" stroke="#fff" stroke-width="0.4"><title>loop_unroll — frontEndExecute (self)</title></polygon>
<polygon points="68.0,496.1 101.5,491.4 135.1,490.9 168.6,490.0 202.2,489.2 235.7,489.0 269.3,489.4 302.8,488.9 336.4,492.0 369.9,491.9 403.5,484.7 437.0,484.2 470.6,482.2 504.1,483.1 537.7,482.6 571.2,478.1 604.8,435.4 638.3,436.7 671.9,436.4 705.4,435.0 739.0,459.9 772.5,455.0 806.1,448.5 839.6,447.8 873.2,447.6 906.7,448.5 940.3,449.4 973.8,447.3 1007.4,448.1 1040.9,447.7 1074.5,448.5 1108.0,453.7 1108.0,509.3 1074.5,509.5 1040.9,509.4 1007.4,509.5 973.8,508.7 940.3,508.9 906.7,509.0 873.2,508.8 839.6,509.1 806.1,509.1 772.5,509.5 739.0,510.2 705.4,495.7 671.9,497.2 638.3,497.3 604.8,497.2 571.2,505.4 537.7,505.2 504.1,505.6 470.6,505.4 437.0,506.7 403.5,506.2 369.9,505.9 336.4,506.0 302.8,503.3 269.3,503.6 235.7,503.1 202.2,503.5 168.6,503.3 135.1,504.2 101.5,504.5 68.0,509.3" fill="#6baed6" fill-opacity="0.9" stroke="#fff" stroke-width="0.4"><title>loop_unroll — specializeModule</title></polygon>
<polygon points="68.0,475.6 101.5,470.6 135.1,469.4 168.6,469.4 202.2,467.5 235.7,467.1 269.3,466.8 302.8,464.9 336.4,468.6 369.9,468.5 403.5,463.5 437.0,463.7 470.6,461.5 504.1,463.3 537.7,462.5 571.2,458.1 604.8,403.0 638.3,404.6 671.9,404.7 705.4,403.0 739.0,430.7 772.5,424.5 806.1,416.8 839.6,415.7 873.2,414.5 906.7,416.0 940.3,418.5 973.8,414.0 1007.4,415.7 1040.9,415.6 1074.5,416.6 1108.0,438.7 1108.0,453.7 1074.5,448.5 1040.9,447.7 1007.4,448.1 973.8,447.3 940.3,449.4 906.7,448.5 873.2,447.6 839.6,447.8 806.1,448.5 772.5,455.0 739.0,459.9 705.4,435.0 671.9,436.4 638.3,436.7 604.8,435.4 571.2,478.1 537.7,482.6 504.1,483.1 470.6,482.2 437.0,484.2 403.5,484.7 369.9,491.9 336.4,492.0 302.8,488.9 269.3,489.4 235.7,489.0 202.2,489.2 168.6,490.0 135.1,490.9 101.5,491.4 68.0,496.1" fill="#2171b5" fill-opacity="0.9" stroke="#fff" stroke-width="0.4"><title>loop_unroll — simplifyIR</title></polygon>
<polygon points="68.0,475.2 101.5,470.3 135.1,469.2 168.6,469.0 202.2,467.0 235.7,466.6 269.3,466.4 302.8,464.4 336.4,468.2 369.9,468.1 403.5,463.2 437.0,463.4 470.6,461.1 504.1,462.9 537.7,462.2 571.2,457.7 604.8,398.8 638.3,400.4 671.9,400.5 705.4,398.5 739.0,430.4 772.5,424.3 806.1,416.5 839.6,415.4 873.2,414.2 906.7,415.7 940.3,418.2 973.8,413.7 1007.4,415.5 1040.9,415.4 1074.5,416.4 1108.0,438.4 1108.0,438.7 1074.5,416.6 1040.9,415.6 1007.4,415.7 973.8,414.0 940.3,418.5 906.7,416.0 873.2,414.5 839.6,415.7 806.1,416.8 772.5,424.5 739.0,430.7 705.4,403.0 671.9,404.7 638.3,404.6 604.8,403.0 571.2,458.1 537.7,462.5 504.1,463.3 470.6,461.5 437.0,463.7 403.5,463.5 369.9,468.5 336.4,468.6 302.8,464.9 269.3,466.8 235.7,467.1 202.2,467.5 168.6,469.4 135.1,469.4 101.5,470.6 68.0,475.6" fill="#08306b" fill-opacity="0.9" stroke="#fff" stroke-width="0.4"><title>loop_unroll — linkIR</title></polygon>
<polygon points="68.0,391.4 101.5,387.5 135.1,386.3 168.6,387.6 202.2,376.5 235.7,380.6 269.3,370.0 302.8,354.6 336.4,365.7 369.9,357.4 403.5,373.6 437.0,390.5 470.6,387.2 504.1,391.7 537.7,390.4 571.2,386.4 604.8,346.2 638.3,348.7 671.9,348.4 705.4,346.7 739.0,387.3 772.5,377.2 806.1,365.3 839.6,363.9 873.2,362.1 906.7,364.6 940.3,367.8 973.8,361.5 1007.4,363.8 1040.9,363.2 1074.5,364.9 1108.0,390.0 1108.0,438.4 1074.5,416.4 1040.9,415.4 1007.4,415.5 973.8,413.7 940.3,418.2 906.7,415.7 873.2,414.2 839.6,415.4 806.1,416.5 772.5,424.3 739.0,430.4 705.4,398.5 671.9,400.5 638.3,400.4 604.8,398.8 571.2,457.7 537.7,462.2 504.1,462.9 470.6,461.1 437.0,463.4 403.5,463.2 369.9,468.1 336.4,468.2 302.8,464.4 269.3,466.4 235.7,466.6 202.2,467.0 168.6,469.0 135.1,469.2 101.5,470.3 68.0,475.2" fill="#9e9ac8" fill-opacity="0.9" stroke="#fff" stroke-width="0.4"><title>loop_unroll — unrollLoopsInModule</title></polygon>
<polygon points="68.0,298.1 101.5,296.2 135.1,287.3 168.6,293.8 202.2,348.8 235.7,354.1 269.3,343.9 302.8,327.7 336.4,339.5 369.9,330.5 403.5,347.0 437.0,366.1 470.6,361.2 504.1,366.7 537.7,365.8 571.2,360.9 604.8,326.7 638.3,328.4 671.9,328.3 705.4,326.0 739.0,366.3 772.5,355.5 806.1,343.2 839.6,342.1 873.2,340.0 906.7,343.5 940.3,347.2 973.8,339.7 1007.4,342.7 1040.9,342.1 1074.5,343.1 1108.0,370.0 1108.0,390.0 1074.5,364.9 1040.9,363.2 1007.4,363.8 973.8,361.5 940.3,367.8 906.7,364.6 873.2,362.1 839.6,363.9 806.1,365.3 772.5,377.2 739.0,387.3 705.4,346.7 671.9,348.4 638.3,348.7 604.8,346.2 571.2,386.4 537.7,390.4 504.1,391.7 470.6,387.2 437.0,390.5 403.5,373.6 369.9,357.4 336.4,365.7 302.8,354.6 269.3,370.0 235.7,380.6 202.2,376.5 168.6,387.6 135.1,386.3 101.5,387.5 68.0,391.4" fill="#807dba" fill-opacity="0.9" stroke="#fff" stroke-width="0.4"><title>loop_unroll — legalizeResourceTypes</title></polygon>
<polygon points="68.0,203.7 101.5,205.3 135.1,191.9 168.6,202.3 202.2,321.2 235.7,327.5 269.3,317.8 302.8,299.9 336.4,312.8 369.9,302.5 403.5,320.3 437.0,341.3 470.6,334.9 504.1,341.7 537.7,341.2 571.2,335.7 604.8,307.2 638.3,308.1 671.9,308.2 705.4,305.3 739.0,345.4 772.5,331.7 806.1,320.6 839.6,319.6 873.2,317.9 906.7,322.2 940.3,326.6 973.8,318.0 1007.4,321.0 1040.9,320.7 1074.5,321.4 1108.0,350.1 1108.0,370.0 1074.5,343.1 1040.9,342.1 1007.4,342.7 973.8,339.7 940.3,347.2 906.7,343.5 873.2,340.0 839.6,342.1 806.1,343.2 772.5,355.5 739.0,366.3 705.4,326.0 671.9,328.3 638.3,328.4 604.8,326.7 571.2,360.9 537.7,365.8 504.1,366.7 470.6,361.2 437.0,366.1 403.5,347.0 369.9,330.5 336.4,339.5 302.8,327.7 269.3,343.9 235.7,354.1 202.2,348.8 168.6,293.8 135.1,287.3 101.5,296.2 68.0,298.1" fill="#6a51a3" fill-opacity="0.9" stroke="#fff" stroke-width="0.4"><title>loop_unroll — legalizeExistentialTypeLayout</title></polygon>
<polygon points="68.0,203.6 101.5,205.2 135.1,191.9 168.6,202.3 202.2,321.1 235.7,327.5 269.3,317.8 302.8,299.9 336.4,312.7 369.9,302.5 403.5,320.2 437.0,341.2 470.6,334.8 504.1,341.7 537.7,341.1 571.2,335.7 604.8,307.2 638.3,308.1 671.9,308.1 705.4,305.3 739.0,345.4 772.5,331.7 806.1,320.5 839.6,319.6 873.2,317.9 906.7,322.2 940.3,326.6 973.8,317.9 1007.4,321.0 1040.9,320.6 1074.5,321.4 1108.0,350.0 1108.0,350.1 1074.5,321.4 1040.9,320.7 1007.4,321.0 973.8,318.0 940.3,326.6 906.7,322.2 873.2,317.9 839.6,319.6 806.1,320.6 772.5,331.7 739.0,345.4 705.4,305.3 671.9,308.2 638.3,308.1 604.8,307.2 571.2,335.7 537.7,341.2 504.1,341.7 470.6,334.9 437.0,341.3 403.5,320.3 369.9,302.5 336.4,312.8 302.8,299.9 269.3,317.8 235.7,327.5 202.2,321.2 168.6,202.3 135.1,191.9 101.5,205.3 68.0,203.7" fill="#bcbddc" fill-opacity="0.9" stroke="#fff" stroke-width="0.4"><title>loop_unroll — performMandatoryEarlyInlining</title></polygon>
<polygon points="68.0,203.5 101.5,205.1 135.1,191.7 168.6,202.1 202.2,321.0 235.7,327.3 269.3,317.7 302.8,299.8 336.4,312.6 369.9,302.3 403.5,320.1 437.0,341.1 470.6,334.7 504.1,341.5 537.7,341.0 571.2,335.6 604.8,307.1 638.3,308.0 671.9,308.1 705.4,305.2 739.0,345.3 772.5,331.6 806.1,320.4 839.6,319.5 873.2,317.8 906.7,322.1 940.3,326.5 973.8,317.8 1007.4,320.9 1040.9,320.5 1074.5,321.3 1108.0,349.9 1108.0,350.0 1074.5,321.4 1040.9,320.6 1007.4,321.0 973.8,317.9 940.3,326.6 906.7,322.2 873.2,317.9 839.6,319.6 806.1,320.5 772.5,331.7 739.0,345.4 705.4,305.3 671.9,308.1 638.3,308.1 604.8,307.2 571.2,335.7 537.7,341.1 504.1,341.7 470.6,334.8 437.0,341.2 403.5,320.2 369.9,302.5 336.4,312.7 302.8,299.9 269.3,317.8 235.7,327.5 202.2,321.1 168.6,202.3 135.1,191.9 101.5,205.2 68.0,203.6" fill="#dadaeb" fill-opacity="0.9" stroke="#fff" stroke-width="0.4"><title>loop_unroll — performForceInlining</title></polygon>
<polygon points="68.0,201.2 101.5,199.9 135.1,189.0 168.6,191.4 202.2,316.2 235.7,325.5 269.3,315.7 302.8,296.0 336.4,311.6 369.9,297.9 403.5,315.0 437.0,337.2 470.6,331.3 504.1,338.4 537.7,336.6 571.2,332.4 604.8,307.1 638.3,308.0 671.9,308.1 705.4,305.2 739.0,345.3 772.5,331.6 806.1,320.4 839.6,319.5 873.2,317.8 906.7,322.1 940.3,326.5 973.8,317.8 1007.4,320.9 1040.9,320.5 1074.5,321.3 1108.0,349.9 1108.0,349.9 1074.5,321.3 1040.9,320.5 1007.4,320.9 973.8,317.8 940.3,326.5 906.7,322.1 873.2,317.8 839.6,319.5 806.1,320.4 772.5,331.6 739.0,345.3 705.4,305.2 671.9,308.1 638.3,308.0 604.8,307.1 571.2,335.6 537.7,341.0 504.1,341.5 470.6,334.7 437.0,341.1 403.5,320.1 369.9,302.3 336.4,312.6 302.8,299.8 269.3,317.7 235.7,327.3 202.2,321.0 168.6,202.1 135.1,191.7 101.5,205.1 68.0,203.5" fill="#4a1486" fill-opacity="0.9" stroke="#fff" stroke-width="0.4"><title>loop_unroll — linkAndOptimizeIR (self)</title></polygon>
<polygon points="68.0,122.6 101.5,125.6 135.1,110.9 168.6,109.0 202.2,288.4 235.7,295.8 269.3,289.4 302.8,270.1 336.4,285.5 369.9,272.9 403.5,289.1 437.0,312.4 470.6,306.3 504.1,313.8 537.7,312.1 571.2,306.2 604.8,281.6 638.3,282.4 671.9,281.5 705.4,279.0 739.0,319.6 772.5,305.5 806.1,293.4 839.6,292.4 873.2,289.8 906.7,295.3 940.3,300.2 973.8,289.8 1007.4,295.1 1040.9,294.5 1074.5,294.7 1108.0,323.1 1108.0,349.9 1074.5,321.3 1040.9,320.5 1007.4,320.9 973.8,317.8 940.3,326.5 906.7,322.1 873.2,317.8 839.6,319.5 806.1,320.4 772.5,331.6 739.0,345.3 705.4,305.2 671.9,308.1 638.3,308.0 604.8,307.1 571.2,332.4 537.7,336.6 504.1,338.4 470.6,331.3 437.0,337.2 403.5,315.0 369.9,297.9 336.4,311.6 302.8,296.0 269.3,315.7 235.7,325.5 202.2,316.2 168.6,191.4 135.1,189.0 101.5,199.9 68.0,201.2" fill="#e6550d" fill-opacity="0.9" stroke="#fff" stroke-width="0.4"><title>loop_unroll — generateOutput (self)</title></polygon>
<polygon points="68.0,122.5 101.5,125.4 135.1,110.9 168.6,108.6 202.2,287.9 235.7,295.7 269.3,289.3 302.8,268.3 336.4,285.2 369.9,271.8 403.5,288.9 437.0,312.4 470.6,306.3 504.1,313.8 537.7,312.1 571.2,306.1 604.8,281.5 638.3,282.0 671.9,280.6 705.4,278.9 739.0,319.2 772.5,305.5 806.1,293.3 839.6,292.1 873.2,289.8 906.7,295.3 940.3,300.0 973.8,289.7 1007.4,295.1 1040.9,294.4 1074.5,294.3 1108.0,323.1 1108.0,323.1 1074.5,294.7 1040.9,294.5 1007.4,295.1 973.8,289.8 940.3,300.2 906.7,295.3 873.2,289.8 839.6,292.4 806.1,293.4 772.5,305.5 739.0,319.6 705.4,279.0 671.9,281.5 638.3,282.4 604.8,281.6 571.2,306.2 537.7,312.1 504.1,313.8 470.6,306.3 437.0,312.4 403.5,289.1 369.9,272.9 336.4,285.5 302.8,270.1 269.3,289.4 235.7,295.8 202.2,288.4 168.6,109.0 135.1,110.9 101.5,125.6 68.0,122.6" fill="#969696" fill-opacity="0.9" stroke="#fff" stroke-width="0.4"><title>loop_unroll — compileInner (self)</title></polygon>
<text x="12" y="578" fill="#666" font-weight="600">phase buckets</text>
<rect x="12" y="586" width="12" height="12" fill="#c7e9c0"/>
<text x="28" y="596" fill="#222">parseTranslationUnit</text>
<rect x="289" y="586" width="12" height="12" fill="#41ab5d"/>
<text x="305" y="596" fill="#222">SemanticChecking</text>
<rect x="566" y="586" width="12" height="12" fill="#006d2c"/>
<text x="582" y="596" fill="#222">generateIR</text>
<rect x="843" y="586" width="12" height="12" fill="#74c476"/>
<text x="859" y="596" fill="#222">frontEndExecute (self)</text>
<rect x="12" y="604" width="12" height="12" fill="#6baed6"/>
<text x="28" y="614" fill="#222">specializeModule</text>
<rect x="289" y="604" width="12" height="12" fill="#2171b5"/>
<text x="305" y="614" fill="#222">simplifyIR</text>
<rect x="566" y="604" width="12" height="12" fill="#08306b"/>
<text x="582" y="614" fill="#222">linkIR</text>
<rect x="843" y="604" width="12" height="12" fill="#9e9ac8"/>
<text x="859" y="614" fill="#222">unrollLoopsInModule</text>
<rect x="12" y="622" width="12" height="12" fill="#807dba"/>
<text x="28" y="632" fill="#222">legalizeResourceTypes</text>
<rect x="289" y="622" width="12" height="12" fill="#6a51a3"/>
<text x="305" y="632" fill="#222">legalizeExistentialTypeLayout</text>
<rect x="566" y="622" width="12" height="12" fill="#bcbddc"/>
<text x="582" y="632" fill="#222">performMandatoryEarlyInlining</text>
<rect x="843" y="622" width="12" height="12" fill="#dadaeb"/>
<text x="859" y="632" fill="#222">performForceInlining</text>
<rect x="12" y="640" width="12" height="12" fill="#4a1486"/>
<text x="28" y="650" fill="#222">linkAndOptimizeIR (self)</text>
<rect x="289" y="640" width="12" height="12" fill="#fd8d3c"/>
<text x="305" y="650" fill="#222">emitEntryPointsSourceFromIR</text>
<rect x="566" y="640" width="12" height="12" fill="#e6550d"/>
<text x="582" y="650" fill="#222">generateOutput (self)</text>
<rect x="843" y="640" width="12" height="12" fill="#969696"/>
<text x="859" y="650" fill="#222">compileInner (self)</text>
</svg>