<svg xmlns="http://www.w3.org/2000/svg" xmlns:xlink="http://www.w3.org/1999/xlink" width="1132" height="680" viewBox="0 0 1132 680" preserveAspectRatio="xMidYMid meet" font-family="sans-serif" font-size="13">
<rect width="1132" height="680" fill="white"/>
<text x="12" y="30" font-size="20" font-weight="bold">loop_unroll — full phase breakdown across releases (median ms)</text>
<text x="68" y="60" font-size="15" font-weight="600" fill="#1a1a1a">loop_unroll<tspan fill="#888" font-weight="400" text-decoration="none">  0.55×</tspan></text>
<line x1="68.0" y1="516.0" x2="1108.0" y2="516.0" stroke="#eee"/>
<text x="64.0" y="519.0" text-anchor="end" fill="#999">0.0</text>
<line x1="68.0" y1="296.0" x2="1108.0" y2="296.0" stroke="#eee"/>
<text x="64.0" y="299.0" text-anchor="end" fill="#999">470</text>
<line x1="68.0" y1="76.0" x2="1108.0" y2="76.0" stroke="#eee"/>
<text x="64.0" y="79.0" text-anchor="end" fill="#999">940</text>
<line x1="68.0" y1="76.0" x2="68.0" y2="516.0" stroke="#333"/>
<line x1="68.0" y1="516.0" x2="1108.0" y2="516.0" stroke="#333"/>
<line x1="896.1" y1="76.0" x2="896.1" y2="516.0" stroke="#e8731a" stroke-width="1.2" stroke-dasharray="4 3"/>
<text x="899.1" y="87.0" fill="#e8731a" font-size="11">daily →</text>
<line x1="68.0" y1="516.0" x2="68.0" y2="519.0" stroke="#999"/>
<text x="68.0" y="531.0" text-anchor="end" fill="#666" transform="rotate(-50 68.0 531.0)">25.14</text>
<line x1="106.5" y1="516.0" x2="106.5" y2="519.0" stroke="#999"/>
<text x="106.5" y="531.0" text-anchor="end" fill="#666" transform="rotate(-50 106.5 531.0)">25.15</text>
<line x1="145.0" y1="516.0" x2="145.0" y2="519.0" stroke="#999"/>
<text x="145.0" y="531.0" text-anchor="end" fill="#666" transform="rotate(-50 145.0 531.0)">25.16</text>
<line x1="183.6" y1="516.0" x2="183.6" y2="519.0" stroke="#999"/>
<text x="183.6" y="531.0" text-anchor="end" fill="#666" transform="rotate(-50 183.6 531.0)">25.17</text>
<line x1="222.1" y1="516.0" x2="222.1" y2="519.0" stroke="#999"/>
<text x="222.1" y="531.0" text-anchor="end" fill="#666" transform="rotate(-50 222.1 531.0)">25.18</text>
<line x1="260.6" y1="516.0" x2="260.6" y2="519.0" stroke="#999"/>
<text x="260.6" y="531.0" text-anchor="end" fill="#666" transform="rotate(-50 260.6 531.0)">25.19</text>
<line x1="299.1" y1="516.0" x2="299.1" y2="519.0" stroke="#999"/>
<text x="299.1" y="531.0" text-anchor="end" fill="#666" transform="rotate(-50 299.1 531.0)">25.20</text>
<line x1="337.6" y1="516.0" x2="337.6" y2="519.0" stroke="#999"/>
<text x="337.6" y="531.0" text-anchor="end" fill="#666" transform="rotate(-50 337.6 531.0)">25.21</text>
<line x1="376.1" y1="516.0" x2="376.1" y2="519.0" stroke="#999"/>
<text x="376.1" y="531.0" text-anchor="end" fill="#666" transform="rotate(-50 376.1 531.0)">25.22</text>
<line x1="414.7" y1="516.0" x2="414.7" y2="519.0" stroke="#999"/>
<text x="414.7" y="531.0" text-anchor="end" fill="#666" transform="rotate(-50 414.7 531.0)">25.23</text>
<line x1="453.2" y1="516.0" x2="453.2" y2="519.0" stroke="#999"/>
<text x="453.2" y="531.0" text-anchor="end" fill="#666" transform="rotate(-50 453.2 531.0)">25.24</text>
<line x1="491.7" y1="516.0" x2="491.7" y2="519.0" stroke="#999"/>
<text x="491.7" y="531.0" text-anchor="end" fill="#666" transform="rotate(-50 491.7 531.0)">26.1</text>
<line x1="530.2" y1="516.0" x2="530.2" y2="519.0" stroke="#999"/>
<text x="530.2" y="531.0" text-anchor="end" fill="#666" transform="rotate(-50 530.2 531.0)">26.2</text>
<line x1="568.7" y1="516.0" x2="568.7" y2="519.0" stroke="#999"/>
<text x="568.7" y="531.0" text-anchor="end" fill="#666" transform="rotate(-50 568.7 531.0)">26.3</text>
<line x1="607.3" y1="516.0" x2="607.3" y2="519.0" stroke="#999"/>
<text x="607.3" y="531.0" text-anchor="end" fill="#666" transform="rotate(-50 607.3 531.0)">26.4</text>
<line x1="645.8" y1="516.0" x2="645.8" y2="519.0" stroke="#999"/>
<text x="645.8" y="531.0" text-anchor="end" fill="#666" transform="rotate(-50 645.8 531.0)">26.5</text>
<line x1="684.3" y1="516.0" x2="684.3" y2="519.0" stroke="#999"/>
<text x="684.3" y="531.0" text-anchor="end" fill="#666" transform="rotate(-50 684.3 531.0)">26.7</text>
<line x1="722.8" y1="516.0" x2="722.8" y2="519.0" stroke="#999"/>
<text x="722.8" y="531.0" text-anchor="end" fill="#666" transform="rotate(-50 722.8 531.0)">26.8</text>
<line x1="761.3" y1="516.0" x2="761.3" y2="519.0" stroke="#999"/>
<text x="761.3" y="531.0" text-anchor="end" fill="#666" transform="rotate(-50 761.3 531.0)">26.9</text>
<line x1="799.9" y1="516.0" x2="799.9" y2="519.0" stroke="#999"/>
<text x="799.9" y="531.0" text-anchor="end" fill="#666" transform="rotate(-50 799.9 531.0)">26.10</text>
<line x1="838.4" y1="516.0" x2="838.4" y2="519.0" stroke="#999"/>
<text x="838.4" y="531.0" text-anchor="end" fill="#666" transform="rotate(-50 838.4 531.0)">26.11</text>
<line x1="876.9" y1="516.0" x2="876.9" y2="519.0" stroke="#999"/>
<text x="876.9" y="531.0" text-anchor="end" fill="#666" transform="rotate(-50 876.9 531.0)">26.12</text>
<line x1="915.4" y1="516.0" x2="915.4" y2="519.0" stroke="#999"/>
<text x="915.4" y="531.0" text-anchor="end" fill="#e8731a" transform="rotate(-50 915.4 531.0)">06-25</text>
<line x1="953.9" y1="516.0" x2="953.9" y2="519.0" stroke="#999"/>
<text x="953.9" y="531.0" text-anchor="end" fill="#e8731a" transform="rotate(-50 953.9 531.0)">06-26</text>
<line x1="992.4" y1="516.0" x2="992.4" y2="519.0" stroke="#999"/>
<text x="992.4" y="531.0" text-anchor="end" fill="#e8731a" transform="rotate(-50 992.4 531.0)">06-28</text>
<line x1="1031.0" y1="516.0" x2="1031.0" y2="519.0" stroke="#999"/>
<text x="1031.0" y="531.0" text-anchor="end" fill="#e8731a" transform="rotate(-50 1031.0 531.0)">07-01</text>
<line x1="1069.5" y1="516.0" x2="1069.5" y2="519.0" stroke="#999"/>
<text x="1069.5" y="531.0" text-anchor="end" fill="#e8731a" transform="rotate(-50 1069.5 531.0)">07-02</text>
<line x1="1108.0" y1="516.0" x2="1108.0" y2="519.0" stroke="#999"/>
<text x="1108.0" y="531.0" text-anchor="end" fill="#e8731a" transform="rotate(-50 1108.0 531.0)">07-03</text>
<polygon points="68.0,515.9 106.5,515.9 145.0,515.9 183.6,515.9 222.1,515.9 260.6,515.9 299.1,515.9 337.6,515.9 376.1,515.9 414.7,515.9 453.2,515.9 491.7,515.9 530.2,515.9 568.7,515.9 607.3,515.9 645.8,515.9 684.3,515.9 722.8,515.9 761.3,515.9 799.9,515.9 838.4,515.9 876.9,515.9 915.4,515.9 953.9,515.9 992.4,515.9 1031.0,515.9 1069.5,515.9 1108.0,515.9 1108.0,516.0 1069.5,516.0 1031.0,516.0 992.4,516.0 953.9,516.0 915.4,516.0 876.9,516.0 838.4,516.0 799.9,516.0 761.3,516.0 722.8,516.0 684.3,516.0 645.8,516.0 607.3,516.0 568.7,516.0 530.2,516.0 491.7,516.0 453.2,516.0 414.7,516.0 376.1,516.0 337.6,516.0 299.1,516.0 260.6,516.0 222.1,516.0 183.6,516.0 145.0,516.0 106.5,516.0 68.0,516.0" fill="#c7e9c0" fill-opacity="0.9" stroke="#fff" stroke-width="0.4"><title>loop_unroll — parseTranslationUnit</title></polygon>
<polygon points="68.0,510.3 106.5,505.5 145.0,505.2 183.6,504.5 222.1,504.7 260.6,504.3 299.1,504.7 337.6,504.4 376.1,507.1 414.7,507.1 453.2,507.3 491.7,507.8 530.2,506.6 568.7,506.8 607.3,506.4 645.8,506.6 684.3,502.9 722.8,503.1 761.3,502.8 799.9,502.2 838.4,512.0 876.9,511.2 915.4,510.9 953.9,511.0 992.4,510.7 1031.0,510.8 1069.5,510.8 1108.0,510.9 1108.0,515.9 1069.5,515.9 1031.0,515.9 992.4,515.9 953.9,515.9 915.4,515.9 876.9,515.9 838.4,515.9 799.9,515.9 761.3,515.9 722.8,515.9 684.3,515.9 645.8,515.9 607.3,515.9 568.7,515.9 530.2,515.9 491.7,515.9 453.2,515.9 414.7,515.9 376.1,515.9 337.6,515.9 299.1,515.9 260.6,515.9 222.1,515.9 183.6,515.9 145.0,515.9 106.5,515.9 68.0,515.9" fill="#41ab5d" fill-opacity="0.9" stroke="#fff" stroke-width="0.4"><title>loop_unroll — SemanticChecking</title></polygon>
<polygon points="68.0,509.4 106.5,504.6 145.0,504.3 183.6,503.4 222.1,503.6 260.6,503.3 299.1,503.7 337.6,503.4 376.1,506.1 414.7,506.0 453.2,506.3 491.7,506.9 530.2,505.5 568.7,505.8 607.3,505.4 645.8,505.6 684.3,497.4 722.8,497.5 761.3,497.2 799.9,496.4 838.4,510.4 876.9,509.6 915.4,509.2 953.9,509.3 992.4,509.0 1031.0,509.2 1069.5,509.1 1108.0,509.3 1108.0,510.9 1069.5,510.8 1031.0,510.8 992.4,510.7 953.9,511.0 915.4,510.9 876.9,511.2 838.4,512.0 799.9,502.2 761.3,502.8 722.8,503.1 684.3,502.9 645.8,506.6 607.3,506.4 568.7,506.8 530.2,506.6 491.7,507.8 453.2,507.3 414.7,507.1 376.1,507.1 337.6,504.4 299.1,504.7 260.6,504.3 222.1,504.7 183.6,504.5 145.0,505.2 106.5,505.5 68.0,510.3" fill="#006d2c" fill-opacity="0.9" stroke="#fff" stroke-width="0.4"><title>loop_unroll — generateIR</title></polygon>
<polygon points="68.0,509.3 106.5,504.5 145.0,504.2 183.6,503.3 222.1,503.5 260.6,503.1 299.1,503.6 337.6,503.3 376.1,506.0 414.7,505.9 453.2,506.2 491.7,506.7 530.2,505.4 568.7,505.6 607.3,505.2 645.8,505.4 684.3,497.2 722.8,497.3 761.3,497.2 799.9,495.7 838.4,510.2 876.9,509.5 915.4,509.1 953.9,509.1 992.4,508.8 1031.0,509.0 1069.5,508.9 1108.0,509.1 1108.0,509.3 1069.5,509.1 1031.0,509.2 992.4,509.0 953.9,509.3 915.4,509.2 876.9,509.6 838.4,510.4 799.9,496.4 761.3,497.2 722.8,497.5 684.3,497.4 645.8,505.6 607.3,505.4 568.7,505.8 530.2,505.5 491.7,506.9 453.2,506.3 414.7,506.0 376.1,506.1 337.6,503.4 299.1,503.7 260.6,503.3 222.1,503.6 183.6,503.4 145.0,504.3 106.5,504.6 68.0,509.4" fill="#74c476" fill-opacity="0.9" stroke="#fff" stroke-width="0.4"><title>loop_unroll — frontEndExecute (self)</title></polygon>
<polygon points="68.0,496.1 106.5,491.4 145.0,490.9 183.6,490.0 222.1,489.2 260.6,489.0 299.1,489.4 337.6,488.9 376.1,492.0 414.7,491.9 453.2,484.7 491.7,484.2 530.2,482.2 568.7,483.1 607.3,482.6 645.8,478.1 684.3,435.4 722.8,436.7 761.3,436.4 799.9,435.0 838.4,459.9 876.9,455.0 915.4,448.5 953.9,447.8 992.4,447.6 1031.0,448.5 1069.5,449.4 1108.0,449.9 1108.0,509.1 1069.5,508.9 1031.0,509.0 992.4,508.8 953.9,509.1 915.4,509.1 876.9,509.5 838.4,510.2 799.9,495.7 761.3,497.2 722.8,497.3 684.3,497.2 645.8,505.4 607.3,505.2 568.7,505.6 530.2,505.4 491.7,506.7 453.2,506.2 414.7,505.9 376.1,506.0 337.6,503.3 299.1,503.6 260.6,503.1 222.1,503.5 183.6,503.3 145.0,504.2 106.5,504.5 68.0,509.3" fill="#6baed6" fill-opacity="0.9" stroke="#fff" stroke-width="0.4"><title>loop_unroll — specializeModule</title></polygon>
<polygon points="68.0,475.6 106.5,470.6 145.0,469.4 183.6,469.4 222.1,467.5 260.6,467.1 299.1,466.8 337.6,464.9 376.1,468.6 414.7,468.5 453.2,463.5 491.7,463.7 530.2,461.5 568.7,463.3 607.3,462.5 645.8,458.1 684.3,403.0 722.8,404.6 761.3,404.7 799.9,403.0 838.4,430.7 876.9,424.5 915.4,416.8 953.9,415.7 992.4,414.5 1031.0,416.0 1069.5,418.5 1108.0,418.3 1108.0,449.9 1069.5,449.4 1031.0,448.5 992.4,447.6 953.9,447.8 915.4,448.5 876.9,455.0 838.4,459.9 799.9,435.0 761.3,436.4 722.8,436.7 684.3,435.4 645.8,478.1 607.3,482.6 568.7,483.1 530.2,482.2 491.7,484.2 453.2,484.7 414.7,491.9 376.1,492.0 337.6,488.9 299.1,489.4 260.6,489.0 222.1,489.2 183.6,490.0 145.0,490.9 106.5,491.4 68.0,496.1" fill="#2171b5" fill-opacity="0.9" stroke="#fff" stroke-width="0.4"><title>loop_unroll — simplifyIR</title></polygon>
<polygon points="68.0,475.2 106.5,470.3 145.0,469.2 183.6,469.0 222.1,467.0 260.6,466.6 299.1,466.4 337.6,464.4 376.1,468.2 414.7,468.1 453.2,463.2 491.7,463.4 530.2,461.1 568.7,462.9 607.3,462.2 645.8,457.7 684.3,398.8 722.8,400.4 761.3,400.5 799.9,398.5 838.4,430.4 876.9,424.3 915.4,416.5 953.9,415.4 992.4,414.2 1031.0,415.7 1069.5,418.2 1108.0,418.0 1108.0,418.3 1069.5,418.5 1031.0,416.0 992.4,414.5 953.9,415.7 915.4,416.8 876.9,424.5 838.4,430.7 799.9,403.0 761.3,404.7 722.8,404.6 684.3,403.0 645.8,458.1 607.3,462.5 568.7,463.3 530.2,461.5 491.7,463.7 453.2,463.5 414.7,468.5 376.1,468.6 337.6,464.9 299.1,466.8 260.6,467.1 222.1,467.5 183.6,469.4 145.0,469.4 106.5,470.6 68.0,475.6" fill="#08306b" fill-opacity="0.9" stroke="#fff" stroke-width="0.4"><title>loop_unroll — linkIR</title></polygon>
<polygon points="68.0,391.4 106.5,387.5 145.0,386.3 183.6,387.6 222.1,376.5 260.6,380.6 299.1,370.0 337.6,354.6 376.1,365.7 414.7,357.4 453.2,373.6 491.7,390.5 530.2,387.2 568.7,391.7 607.3,390.4 645.8,386.4 684.3,346.2 722.8,348.7 761.3,348.4 799.9,346.7 838.4,387.3 876.9,377.2 915.4,365.3 953.9,363.9 992.4,362.1 1031.0,364.6 1069.5,367.8 1108.0,367.6 1108.0,418.0 1069.5,418.2 1031.0,415.7 992.4,414.2 953.9,415.4 915.4,416.5 876.9,424.3 838.4,430.4 799.9,398.5 761.3,400.5 722.8,400.4 684.3,398.8 645.8,457.7 607.3,462.2 568.7,462.9 530.2,461.1 491.7,463.4 453.2,463.2 414.7,468.1 376.1,468.2 337.6,464.4 299.1,466.4 260.6,466.6 222.1,467.0 183.6,469.0 145.0,469.2 106.5,470.3 68.0,475.2" fill="#9e9ac8" fill-opacity="0.9" stroke="#fff" stroke-width="0.4"><title>loop_unroll — unrollLoopsInModule</title></polygon>
<polygon points="68.0,298.1 106.5,296.2 145.0,287.3 183.6,293.8 222.1,348.8 260.6,354.1 299.1,343.9 337.6,327.7 376.1,339.5 414.7,330.5 453.2,347.0 491.7,366.1 530.2,361.2 568.7,366.7 607.3,365.8 645.8,360.9 684.3,326.7 722.8,328.4 761.3,328.3 799.9,326.0 838.4,366.3 876.9,355.5 915.4,343.2 953.9,342.1 992.4,340.0 1031.0,343.5 1069.5,347.2 1108.0,346.8 1108.0,367.6 1069.5,367.8 1031.0,364.6 992.4,362.1 953.9,363.9 915.4,365.3 876.9,377.2 838.4,387.3 799.9,346.7 761.3,348.4 722.8,348.7 684.3,346.2 645.8,386.4 607.3,390.4 568.7,391.7 530.2,387.2 491.7,390.5 453.2,373.6 414.7,357.4 376.1,365.7 337.6,354.6 299.1,370.0 260.6,380.6 222.1,376.5 183.6,387.6 145.0,386.3 106.5,387.5 68.0,391.4" fill="#807dba" fill-opacity="0.9" stroke="#fff" stroke-width="0.4"><title>loop_unroll — legalizeResourceTypes</title></polygon>
<polygon points="68.0,203.7 106.5,205.3 145.0,191.9 183.6,202.3 222.1,321.2 260.6,327.5 299.1,317.8 337.6,299.9 376.1,312.8 414.7,302.5 453.2,320.3 491.7,341.3 530.2,334.9 568.7,341.7 607.3,341.2 645.8,335.7 684.3,307.2 722.8,308.1 761.3,308.2 799.9,305.3 838.4,345.4 876.9,331.7 915.4,320.6 953.9,319.6 992.4,317.9 1031.0,322.2 1069.5,326.6 1108.0,325.9 1108.0,346.8 1069.5,347.2 1031.0,343.5 992.4,340.0 953.9,342.1 915.4,343.2 876.9,355.5 838.4,366.3 799.9,326.0 761.3,328.3 722.8,328.4 684.3,326.7 645.8,360.9 607.3,365.8 568.7,366.7 530.2,361.2 491.7,366.1 453.2,347.0 414.7,330.5 376.1,339.5 337.6,327.7 299.1,343.9 260.6,354.1 222.1,348.8 183.6,293.8 145.0,287.3 106.5,296.2 68.0,298.1" fill="#6a51a3" fill-opacity="0.9" stroke="#fff" stroke-width="0.4"><title>loop_unroll — legalizeExistentialTypeLayout</title></polygon>
<polygon points="68.0,203.6 106.5,205.2 145.0,191.9 183.6,202.3 222.1,321.1 260.6,327.5 299.1,317.8 337.6,299.9 376.1,312.7 414.7,302.5 453.2,320.2 491.7,341.2 530.2,334.8 568.7,341.7 607.3,341.1 645.8,335.7 684.3,307.2 722.8,308.1 761.3,308.1 799.9,305.3 838.4,345.4 876.9,331.7 915.4,320.5 953.9,319.6 992.4,317.9 1031.0,322.2 1069.5,326.6 1108.0,325.9 1108.0,325.9 1069.5,326.6 1031.0,322.2 992.4,317.9 953.9,319.6 915.4,320.6 876.9,331.7 838.4,345.4 799.9,305.3 761.3,308.2 722.8,308.1 684.3,307.2 645.8,335.7 607.3,341.2 568.7,341.7 530.2,334.9 491.7,341.3 453.2,320.3 414.7,302.5 376.1,312.8 337.6,299.9 299.1,317.8 260.6,327.5 222.1,321.2 183.6,202.3 145.0,191.9 106.5,205.3 68.0,203.7" fill="#bcbddc" fill-opacity="0.9" stroke="#fff" stroke-width="0.4"><title>loop_unroll — performMandatoryEarlyInlining</title></polygon>
<polygon points="68.0,203.5 106.5,205.1 145.0,191.7 183.6,202.1 222.1,321.0 260.6,327.3 299.1,317.7 337.6,299.8 376.1,312.6 414.7,302.3 453.2,320.1 491.7,341.1 530.2,334.7 568.7,341.5 607.3,341.0 645.8,335.6 684.3,307.1 722.8,308.0 761.3,308.1 799.9,305.2 838.4,345.3 876.9,331.6 915.4,320.4 953.9,319.5 992.4,317.8 1031.0,322.1 1069.5,326.5 1108.0,325.8 1108.0,325.9 1069.5,326.6 1031.0,322.2 992.4,317.9 953.9,319.6 915.4,320.5 876.9,331.7 838.4,345.4 799.9,305.3 761.3,308.1 722.8,308.1 684.3,307.2 645.8,335.7 607.3,341.1 568.7,341.7 530.2,334.8 491.7,341.2 453.2,320.2 414.7,302.5 376.1,312.7 337.6,299.9 299.1,317.8 260.6,327.5 222.1,321.1 183.6,202.3 145.0,191.9 106.5,205.2 68.0,203.6" fill="#dadaeb" fill-opacity="0.9" stroke="#fff" stroke-width="0.4"><title>loop_unroll — performForceInlining</title></polygon>
<polygon points="68.0,201.2 106.5,199.9 145.0,189.0 183.6,191.4 222.1,316.2 260.6,325.5 299.1,315.7 337.6,296.0 376.1,311.6 414.7,297.9 453.2,315.0 491.7,337.2 530.2,331.3 568.7,338.4 607.3,336.6 645.8,332.4 684.3,307.1 722.8,308.0 761.3,308.1 799.9,305.2 838.4,345.3 876.9,331.6 915.4,320.4 953.9,319.5 992.4,317.8 1031.0,322.1 1069.5,326.5 1108.0,325.8 1108.0,325.8 1069.5,326.5 1031.0,322.1 992.4,317.8 953.9,319.5 915.4,320.4 876.9,331.6 838.4,345.3 799.9,305.2 761.3,308.1 722.8,308.0 684.3,307.1 645.8,335.6 607.3,341.0 568.7,341.5 530.2,334.7 491.7,341.1 453.2,320.1 414.7,302.3 376.1,312.6 337.6,299.8 299.1,317.7 260.6,327.3 222.1,321.0 183.6,202.1 145.0,191.7 106.5,205.1 68.0,203.5" fill="#4a1486" fill-opacity="0.9" stroke="#fff" stroke-width="0.4"><title>loop_unroll — linkAndOptimizeIR (self)</title></polygon>
<polygon points="68.0,122.6 106.5,125.6 145.0,110.9 183.6,109.0 222.1,288.4 260.6,295.8 299.1,289.4 337.6,270.1 376.1,285.5 414.7,272.9 453.2,289.1 491.7,312.4 530.2,306.3 568.7,313.8 607.3,312.1 645.8,306.2 684.3,281.6 722.8,282.4 761.3,281.5 799.9,279.0 838.4,319.6 876.9,305.5 915.4,293.4 953.9,292.4 992.4,289.8 1031.0,295.3 1069.5,300.2 1108.0,298.7 1108.0,325.8 1069.5,326.5 1031.0,322.1 992.4,317.8 953.9,319.5 915.4,320.4 876.9,331.6 838.4,345.3 799.9,305.2 761.3,308.1 722.8,308.0 684.3,307.1 645.8,332.4 607.3,336.6 568.7,338.4 530.2,331.3 491.7,337.2 453.2,315.0 414.7,297.9 376.1,311.6 337.6,296.0 299.1,315.7 260.6,325.5 222.1,316.2 183.6,191.4 145.0,189.0 106.5,199.9 68.0,201.2" fill="#e6550d" fill-opacity="0.9" stroke="#fff" stroke-width="0.4"><title>loop_unroll — generateOutput (self)</title></polygon>
<polygon points="68.0,122.5 106.5,125.4 145.0,110.9 183.6,108.6 222.1,287.9 260.6,295.7 299.1,289.3 337.6,268.3 376.1,285.2 414.7,271.8 453.2,288.9 491.7,312.4 530.2,306.3 568.7,313.8 607.3,312.1 645.8,306.1 684.3,281.5 722.8,282.0 761.3,280.6 799.9,278.9 838.4,319.2 876.9,305.5 915.4,293.3 953.9,292.1 992.4,289.8 1031.0,295.3 1069.5,300.0 1108.0,298.6 1108.0,298.7 1069.5,300.2 1031.0,295.3 992.4,289.8 953.9,292.4 915.4,293.4 876.9,305.5 838.4,319.6 799.9,279.0 761.3,281.5 722.8,282.4 684.3,281.6 645.8,306.2 607.3,312.1 568.7,313.8 530.2,306.3 491.7,312.4 453.2,289.1 414.7,272.9 376.1,285.5 337.6,270.1 299.1,289.4 260.6,295.8 222.1,288.4 183.6,109.0 145.0,110.9 106.5,125.6 68.0,122.6" fill="#969696" fill-opacity="0.9" stroke="#fff" stroke-width="0.4"><title>loop_unroll — compileInner (self)</title></polygon>
<text x="12" y="578" fill="#666" font-weight="600">phase buckets</text>
<rect x="12" y="586" width="12" height="12" fill="#c7e9c0"/>
<text x="28" y="596" fill="#222">parseTranslationUnit</text>
<rect x="289" y="586" width="12" height="12" fill="#41ab5d"/>
<text x="305" y="596" fill="#222">SemanticChecking</text>
<rect x="566" y="586" width="12" height="12" fill="#006d2c"/>
<text x="582" y="596" fill="#222">generateIR</text>
<rect x="843" y="586" width="12" height="12" fill="#74c476"/>
<text x="859" y="596" fill="#222">frontEndExecute (self)</text>
<rect x="12" y="604" width="12" height="12" fill="#6baed6"/>
<text x="28" y="614" fill="#222">specializeModule</text>
<rect x="289" y="604" width="12" height="12" fill="#2171b5"/>
<text x="305" y="614" fill="#222">simplifyIR</text>
<rect x="566" y="604" width="12" height="12" fill="#08306b"/>
<text x="582" y="614" fill="#222">linkIR</text>
<rect x="843" y="604" width="12" height="12" fill="#9e9ac8"/>
<text x="859" y="614" fill="#222">unrollLoopsInModule</text>
<rect x="12" y="622" width="12" height="12" fill="#807dba"/>
<text x="28" y="632" fill="#222">legalizeResourceTypes</text>
<rect x="289" y="622" width="12" height="12" fill="#6a51a3"/>
<text x="305" y="632" fill="#222">legalizeExistentialTypeLayout</text>
<rect x="566" y="622" width="12" height="12" fill="#bcbddc"/>
<text x="582" y="632" fill="#222">performMandatoryEarlyInlining</text>
<rect x="843" y="622" width="12" height="12" fill="#dadaeb"/>
<text x="859" y="632" fill="#222">performForceInlining</text>
<rect x="12" y="640" width="12" height="12" fill="#4a1486"/>
<text x="28" y="650" fill="#222">linkAndOptimizeIR (self)</text>
<rect x="289" y="640" width="12" height="12" fill="#fd8d3c"/>
<text x="305" y="650" fill="#222">emitEntryPointsSourceFromIR</text>
<rect x="566" y="640" width="12" height="12" fill="#e6550d"/>
<text x="582" y="650" fill="#222">generateOutput (self)</text>
<rect x="843" y="640" width="12" height="12" fill="#969696"/>
<text x="859" y="650" fill="#222">compileInner (self)</text>
</svg>