<svg xmlns="http://www.w3.org/2000/svg" xmlns:xlink="http://www.w3.org/1999/xlink" width="1132" height="680" viewBox="0 0 1132 680" preserveAspectRatio="xMidYMid meet" font-family="sans-serif" font-size="13">
<rect width="1132" height="680" fill="white"/>
<text x="12" y="30" font-size="20" font-weight="bold">loop_unroll — Across releases (median ms)</text>
<text x="68" y="60" font-size="15" font-weight="600" fill="#1a1a1a">loop_unroll<tspan fill="#888" font-weight="400" text-decoration="none">  0.54×</tspan></text>
<line x1="68.0" y1="516.0" x2="1108.0" y2="516.0" stroke="#eee"/>
<text x="64.0" y="519.0" text-anchor="end" fill="#999">0.0</text>
<line x1="68.0" y1="296.0" x2="1108.0" y2="296.0" stroke="#eee"/>
<text x="64.0" y="299.0" text-anchor="end" fill="#999">535</text>
<line x1="68.0" y1="76.0" x2="1108.0" y2="76.0" stroke="#eee"/>
<text x="64.0" y="79.0" text-anchor="end" fill="#999">1071</text>
<line x1="68.0" y1="76.0" x2="68.0" y2="516.0" stroke="#333"/>
<line x1="68.0" y1="516.0" x2="1108.0" y2="516.0" stroke="#333"/>
<line x1="68.0" y1="516.0" x2="68.0" y2="519.0" stroke="#999"/>
<text x="68.0" y="531.0" text-anchor="end" fill="#666" transform="rotate(-50 68.0 531.0)">25.12</text>
<line x1="111.3" y1="516.0" x2="111.3" y2="519.0" stroke="#999"/>
<text x="111.3" y="531.0" text-anchor="end" fill="#666" transform="rotate(-50 111.3 531.0)">25.13</text>
<line x1="154.7" y1="516.0" x2="154.7" y2="519.0" stroke="#999"/>
<text x="154.7" y="531.0" text-anchor="end" fill="#666" transform="rotate(-50 154.7 531.0)">25.14</text>
<line x1="198.0" y1="516.0" x2="198.0" y2="519.0" stroke="#999"/>
<text x="198.0" y="531.0" text-anchor="end" fill="#666" transform="rotate(-50 198.0 531.0)">25.15</text>
<line x1="241.3" y1="516.0" x2="241.3" y2="519.0" stroke="#999"/>
<text x="241.3" y="531.0" text-anchor="end" fill="#666" transform="rotate(-50 241.3 531.0)">25.16</text>
<line x1="284.7" y1="516.0" x2="284.7" y2="519.0" stroke="#999"/>
<text x="284.7" y="531.0" text-anchor="end" fill="#666" transform="rotate(-50 284.7 531.0)">25.17</text>
<line x1="328.0" y1="516.0" x2="328.0" y2="519.0" stroke="#999"/>
<text x="328.0" y="531.0" text-anchor="end" fill="#666" transform="rotate(-50 328.0 531.0)">25.18</text>
<line x1="371.3" y1="516.0" x2="371.3" y2="519.0" stroke="#999"/>
<text x="371.3" y="531.0" text-anchor="end" fill="#666" transform="rotate(-50 371.3 531.0)">25.19</text>
<line x1="414.7" y1="516.0" x2="414.7" y2="519.0" stroke="#999"/>
<text x="414.7" y="531.0" text-anchor="end" fill="#666" transform="rotate(-50 414.7 531.0)">25.20</text>
<line x1="458.0" y1="516.0" x2="458.0" y2="519.0" stroke="#999"/>
<text x="458.0" y="531.0" text-anchor="end" fill="#666" transform="rotate(-50 458.0 531.0)">25.21</text>
<line x1="501.3" y1="516.0" x2="501.3" y2="519.0" stroke="#999"/>
<text x="501.3" y="531.0" text-anchor="end" fill="#666" transform="rotate(-50 501.3 531.0)">25.22</text>
<line x1="544.7" y1="516.0" x2="544.7" y2="519.0" stroke="#999"/>
<text x="544.7" y="531.0" text-anchor="end" fill="#666" transform="rotate(-50 544.7 531.0)">25.23</text>
<line x1="588.0" y1="516.0" x2="588.0" y2="519.0" stroke="#999"/>
<text x="588.0" y="531.0" text-anchor="end" fill="#666" transform="rotate(-50 588.0 531.0)">25.24</text>
<line x1="631.3" y1="516.0" x2="631.3" y2="519.0" stroke="#999"/>
<text x="631.3" y="531.0" text-anchor="end" fill="#666" transform="rotate(-50 631.3 531.0)">26.1</text>
<line x1="674.7" y1="516.0" x2="674.7" y2="519.0" stroke="#999"/>
<text x="674.7" y="531.0" text-anchor="end" fill="#666" transform="rotate(-50 674.7 531.0)">26.2</text>
<line x1="718.0" y1="516.0" x2="718.0" y2="519.0" stroke="#999"/>
<text x="718.0" y="531.0" text-anchor="end" fill="#666" transform="rotate(-50 718.0 531.0)">26.3</text>
<line x1="761.3" y1="516.0" x2="761.3" y2="519.0" stroke="#999"/>
<text x="761.3" y="531.0" text-anchor="end" fill="#666" transform="rotate(-50 761.3 531.0)">26.4</text>
<line x1="804.7" y1="516.0" x2="804.7" y2="519.0" stroke="#999"/>
<text x="804.7" y="531.0" text-anchor="end" fill="#666" transform="rotate(-50 804.7 531.0)">26.5</text>
<line x1="848.0" y1="516.0" x2="848.0" y2="519.0" stroke="#999"/>
<text x="848.0" y="531.0" text-anchor="end" fill="#666" transform="rotate(-50 848.0 531.0)">26.7</text>
<line x1="891.3" y1="516.0" x2="891.3" y2="519.0" stroke="#999"/>
<text x="891.3" y="531.0" text-anchor="end" fill="#666" transform="rotate(-50 891.3 531.0)">26.8</text>
<line x1="934.7" y1="516.0" x2="934.7" y2="519.0" stroke="#999"/>
<text x="934.7" y="531.0" text-anchor="end" fill="#666" transform="rotate(-50 934.7 531.0)">26.9</text>
<line x1="978.0" y1="516.0" x2="978.0" y2="519.0" stroke="#999"/>
<text x="978.0" y="531.0" text-anchor="end" fill="#666" transform="rotate(-50 978.0 531.0)">26.10</text>
<line x1="1021.3" y1="516.0" x2="1021.3" y2="519.0" stroke="#999"/>
<text x="1021.3" y="531.0" text-anchor="end" fill="#666" transform="rotate(-50 1021.3 531.0)">26.11</text>
<line x1="1064.7" y1="516.0" x2="1064.7" y2="519.0" stroke="#999"/>
<text x="1064.7" y="531.0" text-anchor="end" fill="#666" transform="rotate(-50 1064.7 531.0)">26.12</text>
<line x1="1108.0" y1="516.0" x2="1108.0" y2="519.0" stroke="#999"/>
<text x="1108.0" y="531.0" text-anchor="end" fill="#666" transform="rotate(-50 1108.0 531.0)">26.13</text>
<polygon points="68.0,516.0 111.3,515.8 154.7,515.9 198.0,515.9 241.3,516.0 284.7,516.0 328.0,515.9 371.3,515.9 414.7,516.0 458.0,515.9 501.3,516.0 544.7,516.0 588.0,516.0 631.3,515.9 674.7,515.9 718.0,516.0 761.3,515.9 804.7,515.9 848.0,515.9 891.3,515.9 934.7,515.9 978.0,515.9 1021.3,515.9 1064.7,515.9 1108.0,515.9 1108.0,516.0 1064.7,516.0 1021.3,516.0 978.0,516.0 934.7,516.0 891.3,516.0 848.0,516.0 804.7,516.0 761.3,516.0 718.0,516.0 674.7,516.0 631.3,516.0 588.0,516.0 544.7,516.0 501.3,516.0 458.0,516.0 414.7,516.0 371.3,516.0 328.0,516.0 284.7,516.0 241.3,516.0 198.0,516.0 154.7,516.0 111.3,516.0 68.0,516.0" fill="#c7e9c0" fill-opacity="0.9" stroke="#fff" stroke-width="0.4"><title>loop_unroll — parseTranslationUnit</title></polygon>
<polygon points="68.0,511.9 111.3,511.4 154.7,509.0 198.0,505.9 241.3,506.6 284.7,506.4 328.0,506.5 371.3,506.5 414.7,506.4 458.0,506.2 501.3,508.8 544.7,508.7 588.0,508.8 631.3,508.5 674.7,507.7 718.0,507.9 761.3,507.6 804.7,506.8 848.0,503.3 891.3,504.4 934.7,504.0 978.0,501.4 1021.3,512.0 1064.7,511.7 1108.0,512.1 1108.0,515.9 1064.7,515.9 1021.3,515.9 978.0,515.9 934.7,515.9 891.3,515.9 848.0,515.9 804.7,515.9 761.3,515.9 718.0,516.0 674.7,515.9 631.3,515.9 588.0,516.0 544.7,516.0 501.3,516.0 458.0,515.9 414.7,516.0 371.3,515.9 328.0,515.9 284.7,516.0 241.3,516.0 198.0,515.9 154.7,515.9 111.3,515.8 68.0,516.0" fill="#41ab5d" fill-opacity="0.9" stroke="#fff" stroke-width="0.4"><title>loop_unroll — SemanticChecking</title></polygon>
<polygon points="68.0,511.5 111.3,510.6 154.7,508.1 198.0,505.1 241.3,505.8 284.7,505.5 328.0,505.6 371.3,505.6 414.7,505.5 458.0,505.3 501.3,508.0 544.7,507.9 588.0,507.9 631.3,507.7 674.7,506.7 718.0,507.0 761.3,506.7 804.7,505.8 848.0,496.5 891.3,499.6 934.7,498.7 978.0,494.2 1021.3,510.0 1064.7,509.9 1108.0,510.4 1108.0,512.1 1064.7,511.7 1021.3,512.0 978.0,501.4 934.7,504.0 891.3,504.4 848.0,503.3 804.7,506.8 761.3,507.6 718.0,507.9 674.7,507.7 631.3,508.5 588.0,508.8 544.7,508.7 501.3,508.8 458.0,506.2 414.7,506.4 371.3,506.5 328.0,506.5 284.7,506.4 241.3,506.6 198.0,505.9 154.7,509.0 111.3,511.4 68.0,511.9" fill="#006d2c" fill-opacity="0.9" stroke="#fff" stroke-width="0.4"><title>loop_unroll — generateIR</title></polygon>
<polygon points="68.0,511.1 111.3,510.5 154.7,508.1 198.0,505.0 241.3,505.7 284.7,505.4 328.0,505.5 371.3,505.5 414.7,505.4 458.0,505.2 501.3,507.9 544.7,507.7 588.0,507.8 631.3,507.6 674.7,506.6 718.0,506.9 761.3,506.5 804.7,505.7 848.0,496.3 891.3,499.3 934.7,498.1 978.0,493.7 1021.3,510.0 1064.7,509.5 1108.0,510.1 1108.0,510.4 1064.7,509.9 1021.3,510.0 978.0,494.2 934.7,498.7 891.3,499.6 848.0,496.5 804.7,505.8 761.3,506.7 718.0,507.0 674.7,506.7 631.3,507.7 588.0,507.9 544.7,507.9 501.3,508.0 458.0,505.3 414.7,505.5 371.3,505.6 328.0,505.6 284.7,505.5 241.3,505.8 198.0,505.1 154.7,508.1 111.3,510.6 68.0,511.5" fill="#74c476" fill-opacity="0.9" stroke="#fff" stroke-width="0.4"><title>loop_unroll — frontEndExecute (self)</title></polygon>
<polygon points="68.0,499.1 111.3,498.3 154.7,490.6 198.0,492.3 241.3,493.7 284.7,493.4 328.0,493.1 371.3,493.3 414.7,493.2 458.0,493.0 501.3,495.7 544.7,495.6 588.0,488.8 631.3,487.1 674.7,486.1 718.0,486.5 761.3,485.8 804.7,479.3 848.0,434.1 891.3,442.5 934.7,440.2 978.0,427.9 1021.3,459.4 1064.7,459.6 1108.0,461.2 1108.0,510.1 1064.7,509.5 1021.3,510.0 978.0,493.7 934.7,498.1 891.3,499.3 848.0,496.3 804.7,505.7 761.3,506.5 718.0,506.9 674.7,506.6 631.3,507.6 588.0,507.8 544.7,507.7 501.3,507.9 458.0,505.2 414.7,505.4 371.3,505.5 328.0,505.5 284.7,505.4 241.3,505.7 198.0,505.0 154.7,508.1 111.3,510.5 68.0,511.1" fill="#6baed6" fill-opacity="0.9" stroke="#fff" stroke-width="0.4"><title>loop_unroll — specializeModule</title></polygon>
<polygon points="68.0,481.1 111.3,481.0 154.7,469.2 198.0,473.2 241.3,475.9 284.7,473.9 328.0,473.5 371.3,473.5 414.7,475.1 458.0,474.3 501.3,475.8 544.7,476.8 588.0,470.6 631.3,468.9 674.7,467.9 718.0,468.4 761.3,466.9 804.7,459.1 848.0,400.7 891.3,414.1 934.7,410.4 978.0,395.2 1021.3,430.5 1064.7,431.0 1108.0,433.4 1108.0,461.2 1064.7,459.6 1021.3,459.4 978.0,427.9 934.7,440.2 891.3,442.5 848.0,434.1 804.7,479.3 761.3,485.8 718.0,486.5 674.7,486.1 631.3,487.1 588.0,488.8 544.7,495.6 501.3,495.7 458.0,493.0 414.7,493.2 371.3,493.3 328.0,493.1 284.7,493.4 241.3,493.7 198.0,492.3 154.7,490.6 111.3,498.3 68.0,499.1" fill="#2171b5" fill-opacity="0.9" stroke="#fff" stroke-width="0.4"><title>loop_unroll — simplifyIR</title></polygon>
<polygon points="68.0,481.1 111.3,480.6 154.7,468.5 198.0,472.8 241.3,475.7 284.7,473.6 328.0,473.2 371.3,473.2 414.7,474.8 458.0,474.0 501.3,475.5 544.7,476.5 588.0,470.3 631.3,468.6 674.7,467.6 718.0,468.0 761.3,466.6 804.7,458.6 848.0,396.1 891.3,410.6 934.7,406.6 978.0,389.6 1021.3,430.2 1064.7,430.7 1108.0,433.3 1108.0,433.4 1064.7,431.0 1021.3,430.5 978.0,395.2 934.7,410.4 891.3,414.1 848.0,400.7 804.7,459.1 761.3,466.9 718.0,468.4 674.7,467.9 631.3,468.9 588.0,470.6 544.7,476.8 501.3,475.8 458.0,474.3 414.7,475.1 371.3,473.5 328.0,473.5 284.7,473.9 241.3,475.9 198.0,473.2 154.7,469.2 111.3,481.0 68.0,481.1" fill="#08306b" fill-opacity="0.9" stroke="#fff" stroke-width="0.4"><title>loop_unroll — linkIR</title></polygon>
<polygon points="68.0,405.9 111.3,410.5 154.7,366.7 198.0,383.3 241.3,403.6 284.7,393.8 328.0,391.1 371.3,385.5 414.7,402.8 458.0,394.5 501.3,392.4 544.7,401.2 588.0,395.0 631.3,404.2 674.7,402.9 718.0,403.8 761.3,402.3 804.7,384.2 848.0,342.7 891.3,363.6 934.7,356.8 978.0,333.0 1021.3,386.1 1064.7,387.2 1108.0,391.2 1108.0,433.3 1064.7,430.7 1021.3,430.2 978.0,389.6 934.7,406.6 891.3,410.6 848.0,396.1 804.7,458.6 761.3,466.6 718.0,468.0 674.7,467.6 631.3,468.6 588.0,470.3 544.7,476.5 501.3,475.5 458.0,474.0 414.7,474.8 371.3,473.2 328.0,473.2 284.7,473.6 241.3,475.7 198.0,472.8 154.7,468.5 111.3,480.6 68.0,481.1" fill="#9e9ac8" fill-opacity="0.9" stroke="#fff" stroke-width="0.4"><title>loop_unroll — unrollLoopsInModule</title></polygon>
<polygon points="68.0,322.0 111.3,328.4 154.7,278.5 198.0,294.8 241.3,323.9 284.7,313.7 328.0,366.6 371.3,362.3 414.7,380.1 458.0,371.5 501.3,369.3 544.7,378.4 588.0,371.9 631.3,381.7 674.7,379.7 718.0,380.8 761.3,380.0 804.7,359.2 848.0,322.7 891.3,345.3 934.7,337.8 978.0,312.4 1021.3,364.8 1064.7,367.3 1108.0,372.0 1108.0,391.2 1064.7,387.2 1021.3,386.1 978.0,333.0 934.7,356.8 891.3,363.6 848.0,342.7 804.7,384.2 761.3,402.3 718.0,403.8 674.7,402.9 631.3,404.2 588.0,395.0 544.7,401.2 501.3,392.4 458.0,394.5 414.7,402.8 371.3,385.5 328.0,391.1 284.7,393.8 241.3,403.6 198.0,383.3 154.7,366.7 111.3,410.5 68.0,405.9" fill="#807dba" fill-opacity="0.9" stroke="#fff" stroke-width="0.4"><title>loop_unroll — legalizeResourceTypes</title></polygon>
<polygon points="68.0,238.2 111.3,245.7 154.7,183.8 198.0,205.5 241.3,244.3 284.7,233.3 328.0,341.4 371.3,339.0 414.7,357.5 458.0,348.0 501.3,345.7 544.7,355.5 588.0,348.6 631.3,359.3 674.7,357.0 718.0,357.5 761.3,357.7 804.7,334.0 848.0,301.9 891.3,327.1 934.7,318.5 978.0,290.8 1021.3,343.0 1064.7,347.2 1108.0,353.3 1108.0,372.0 1064.7,367.3 1021.3,364.8 978.0,312.4 934.7,337.8 891.3,345.3 848.0,322.7 804.7,359.2 761.3,380.0 718.0,380.8 674.7,379.7 631.3,381.7 588.0,371.9 544.7,378.4 501.3,369.3 458.0,371.5 414.7,380.1 371.3,362.3 328.0,366.6 284.7,313.7 241.3,323.9 198.0,294.8 154.7,278.5 111.3,328.4 68.0,322.0" fill="#6a51a3" fill-opacity="0.9" stroke="#fff" stroke-width="0.4"><title>loop_unroll — legalizeExistentialTypeLayout</title></polygon>
<polygon points="68.0,238.2 111.3,245.7 154.7,183.7 198.0,205.4 241.3,244.2 284.7,233.2 328.0,341.4 371.3,338.9 414.7,357.5 458.0,348.0 501.3,345.6 544.7,355.4 588.0,348.6 631.3,359.2 674.7,356.9 718.0,357.5 761.3,357.6 804.7,333.9 848.0,301.8 891.3,327.0 934.7,318.5 978.0,290.7 1021.3,343.0 1064.7,347.2 1108.0,353.3 1108.0,353.3 1064.7,347.2 1021.3,343.0 978.0,290.8 934.7,318.5 891.3,327.1 848.0,301.9 804.7,334.0 761.3,357.7 718.0,357.5 674.7,357.0 631.3,359.3 588.0,348.6 544.7,355.5 501.3,345.7 458.0,348.0 414.7,357.5 371.3,339.0 328.0,341.4 284.7,233.3 241.3,244.3 198.0,205.5 154.7,183.8 111.3,245.7 68.0,238.2" fill="#bcbddc" fill-opacity="0.9" stroke="#fff" stroke-width="0.4"><title>loop_unroll — performMandatoryEarlyInlining</title></polygon>
<polygon points="68.0,238.2 111.3,245.6 154.7,183.6 198.0,205.3 241.3,244.1 284.7,233.1 328.0,341.3 371.3,338.8 414.7,357.4 458.0,347.9 501.3,345.5 544.7,355.3 588.0,348.5 631.3,359.1 674.7,356.8 718.0,357.4 761.3,357.5 804.7,333.8 848.0,301.7 891.3,326.9 934.7,318.4 978.0,290.6 1021.3,342.9 1064.7,347.1 1108.0,353.2 1108.0,353.3 1064.7,347.2 1021.3,343.0 978.0,290.7 934.7,318.5 891.3,327.0 848.0,301.8 804.7,333.9 761.3,357.6 718.0,357.5 674.7,356.9 631.3,359.2 588.0,348.6 544.7,355.4 501.3,345.6 458.0,348.0 414.7,357.5 371.3,338.9 328.0,341.4 284.7,233.2 241.3,244.2 198.0,205.4 154.7,183.7 111.3,245.7 68.0,238.2" fill="#dadaeb" fill-opacity="0.9" stroke="#fff" stroke-width="0.4"><title>loop_unroll — performForceInlining</title></polygon>
<polygon points="68.0,230.8 111.3,242.0 154.7,183.6 198.0,198.4 241.3,241.0 284.7,230.7 328.0,336.8 371.3,336.3 414.7,354.9 458.0,346.0 501.3,339.6 544.7,350.9 588.0,344.7 631.3,356.5 674.7,352.7 718.0,353.5 761.3,353.7 804.7,330.2 848.0,301.7 891.3,326.9 934.7,318.4 978.0,290.6 1021.3,342.9 1064.7,347.1 1108.0,353.2 1108.0,353.2 1064.7,347.1 1021.3,342.9 978.0,290.6 934.7,318.4 891.3,326.9 848.0,301.7 804.7,333.8 761.3,357.5 718.0,357.4 674.7,356.8 631.3,359.1 588.0,348.5 544.7,355.3 501.3,345.5 458.0,347.9 414.7,357.4 371.3,338.8 328.0,341.3 284.7,233.1 241.3,244.1 198.0,205.3 154.7,183.6 111.3,245.6 68.0,238.2" fill="#4a1486" fill-opacity="0.9" stroke="#fff" stroke-width="0.4"><title>loop_unroll — linkAndOptimizeIR (self)</title></polygon>
<polygon points="68.0,163.4 111.3,175.2 154.7,108.6 198.0,125.6 241.3,175.2 284.7,165.4 328.0,313.3 371.3,313.3 414.7,332.8 458.0,323.9 501.3,317.9 544.7,328.7 588.0,322.6 631.3,333.4 674.7,329.8 718.0,331.4 761.3,331.4 804.7,301.6 848.0,272.9 891.3,304.1 934.7,258.8 978.0,261.9 1021.3,318.2 1064.7,322.4 1108.0,326.5 1108.0,353.2 1064.7,347.1 1021.3,342.9 978.0,290.6 934.7,318.4 891.3,326.9 848.0,301.7 804.7,330.2 761.3,353.7 718.0,353.5 674.7,352.7 631.3,356.5 588.0,344.7 544.7,350.9 501.3,339.6 458.0,346.0 414.7,354.9 371.3,336.3 328.0,336.8 284.7,230.7 241.3,241.0 198.0,198.4 154.7,183.6 111.3,242.0 68.0,230.8" fill="#e6550d" fill-opacity="0.9" stroke="#fff" stroke-width="0.4"><title>loop_unroll — generateOutput (self)</title></polygon>
<polygon points="68.0,162.9 111.3,175.2 154.7,108.6 198.0,125.6 241.3,175.0 284.7,165.4 328.0,313.3 371.3,312.7 414.7,332.8 458.0,323.6 501.3,317.8 544.7,328.7 588.0,322.6 631.3,333.4 674.7,329.7 718.0,331.2 761.3,331.4 804.7,301.6 848.0,272.9 891.3,304.1 934.7,258.7 978.0,260.0 1021.3,316.3 1064.7,322.2 1108.0,326.1 1108.0,326.5 1064.7,322.4 1021.3,318.2 978.0,261.9 934.7,258.8 891.3,304.1 848.0,272.9 804.7,301.6 761.3,331.4 718.0,331.4 674.7,329.8 631.3,333.4 588.0,322.6 544.7,328.7 501.3,317.9 458.0,323.9 414.7,332.8 371.3,313.3 328.0,313.3 284.7,165.4 241.3,175.2 198.0,125.6 154.7,108.6 111.3,175.2 68.0,163.4" fill="#969696" fill-opacity="0.9" stroke="#fff" stroke-width="0.4"><title>loop_unroll — compileInner (self)</title></polygon>
<text x="12" y="578" fill="#666" font-weight="600">phase buckets</text>
<rect x="12" y="586" width="12" height="12" fill="#c7e9c0"/>
<text x="28" y="596" fill="#222">parseTranslationUnit</text>
<rect x="289" y="586" width="12" height="12" fill="#41ab5d"/>
<text x="305" y="596" fill="#222">SemanticChecking</text>
<rect x="566" y="586" width="12" height="12" fill="#006d2c"/>
<text x="582" y="596" fill="#222">generateIR</text>
<rect x="843" y="586" width="12" height="12" fill="#74c476"/>
<text x="859" y="596" fill="#222">frontEndExecute (self)</text>
<rect x="12" y="604" width="12" height="12" fill="#6baed6"/>
<text x="28" y="614" fill="#222">specializeModule</text>
<rect x="289" y="604" width="12" height="12" fill="#2171b5"/>
<text x="305" y="614" fill="#222">simplifyIR</text>
<rect x="566" y="604" width="12" height="12" fill="#08306b"/>
<text x="582" y="614" fill="#222">linkIR</text>
<rect x="843" y="604" width="12" height="12" fill="#9e9ac8"/>
<text x="859" y="614" fill="#222">unrollLoopsInModule</text>
<rect x="12" y="622" width="12" height="12" fill="#807dba"/>
<text x="28" y="632" fill="#222">legalizeResourceTypes</text>
<rect x="289" y="622" width="12" height="12" fill="#6a51a3"/>
<text x="305" y="632" fill="#222">legalizeExistentialTypeLayout</text>
<rect x="566" y="622" width="12" height="12" fill="#bcbddc"/>
<text x="582" y="632" fill="#222">performMandatoryEarlyInlining</text>
<rect x="843" y="622" width="12" height="12" fill="#dadaeb"/>
<text x="859" y="632" fill="#222">performForceInlining</text>
<rect x="12" y="640" width="12" height="12" fill="#4a1486"/>
<text x="28" y="650" fill="#222">linkAndOptimizeIR (self)</text>
<rect x="289" y="640" width="12" height="12" fill="#fd8d3c"/>
<text x="305" y="650" fill="#222">emitEntryPointsSourceFromIR</text>
<rect x="566" y="640" width="12" height="12" fill="#e6550d"/>
<text x="582" y="650" fill="#222">generateOutput (self)</text>
<rect x="843" y="640" width="12" height="12" fill="#969696"/>
<text x="859" y="650" fill="#222">compileInner (self)</text>
</svg>