<svg xmlns="http://www.w3.org/2000/svg" xmlns:xlink="http://www.w3.org/1999/xlink" width="1132" height="680" viewBox="0 0 1132 680" preserveAspectRatio="xMidYMid meet" font-family="sans-serif" font-size="13">
<rect width="1132" height="680" fill="white"/>
<text x="12" y="30" font-size="20" font-weight="bold">loop_unroll — full phase breakdown across releases (median ms)</text>
<text x="68" y="60" font-size="15" font-weight="600" fill="#1a1a1a">loop_unroll<tspan fill="#888" font-weight="400" text-decoration="none">  0.98×</tspan></text>
<line x1="68.0" y1="516.0" x2="1108.0" y2="516.0" stroke="#eee"/>
<text x="64.0" y="519.0" text-anchor="end" fill="#999">0.0</text>
<line x1="68.0" y1="296.0" x2="1108.0" y2="296.0" stroke="#eee"/>
<text x="64.0" y="299.0" text-anchor="end" fill="#999">283</text>
<line x1="68.0" y1="76.0" x2="1108.0" y2="76.0" stroke="#eee"/>
<text x="64.0" y="79.0" text-anchor="end" fill="#999">565</text>
<line x1="68.0" y1="76.0" x2="68.0" y2="516.0" stroke="#333"/>
<line x1="68.0" y1="516.0" x2="1108.0" y2="516.0" stroke="#333"/>
<line x1="68.0" y1="516.0" x2="68.0" y2="519.0" stroke="#999"/>
<text x="68.0" y="531.0" text-anchor="end" fill="#666" transform="rotate(-50 68.0 531.0)">26.1</text>
<line x1="183.6" y1="516.0" x2="183.6" y2="519.0" stroke="#999"/>
<text x="183.6" y="531.0" text-anchor="end" fill="#666" transform="rotate(-50 183.6 531.0)">26.2</text>
<line x1="299.1" y1="516.0" x2="299.1" y2="519.0" stroke="#999"/>
<text x="299.1" y="531.0" text-anchor="end" fill="#666" transform="rotate(-50 299.1 531.0)">26.3</text>
<line x1="414.7" y1="516.0" x2="414.7" y2="519.0" stroke="#999"/>
<text x="414.7" y="531.0" text-anchor="end" fill="#666" transform="rotate(-50 414.7 531.0)">26.4</text>
<line x1="530.2" y1="516.0" x2="530.2" y2="519.0" stroke="#999"/>
<text x="530.2" y="531.0" text-anchor="end" fill="#666" transform="rotate(-50 530.2 531.0)">26.5</text>
<line x1="645.8" y1="516.0" x2="645.8" y2="519.0" stroke="#999"/>
<text x="645.8" y="531.0" text-anchor="end" fill="#666" transform="rotate(-50 645.8 531.0)">26.7</text>
<line x1="761.3" y1="516.0" x2="761.3" y2="519.0" stroke="#999"/>
<text x="761.3" y="531.0" text-anchor="end" fill="#666" transform="rotate(-50 761.3 531.0)">26.8</text>
<line x1="876.9" y1="516.0" x2="876.9" y2="519.0" stroke="#999"/>
<text x="876.9" y="531.0" text-anchor="end" fill="#666" transform="rotate(-50 876.9 531.0)">26.9</text>
<line x1="992.4" y1="516.0" x2="992.4" y2="519.0" stroke="#999"/>
<text x="992.4" y="531.0" text-anchor="end" fill="#666" transform="rotate(-50 992.4 531.0)">26.10</text>
<line x1="1108.0" y1="516.0" x2="1108.0" y2="519.0" stroke="#999"/>
<text x="1108.0" y="531.0" text-anchor="end" fill="#666" transform="rotate(-50 1108.0 531.0)">26.11</text>
<polygon points="68.0,515.9 183.6,515.9 299.1,515.9 414.7,515.9 530.2,515.9 645.8,515.9 761.3,515.9 876.9,515.9 992.4,515.9 1108.0,515.9 1108.0,516.0 992.4,516.0 876.9,516.0 761.3,516.0 645.8,516.0 530.2,516.0 414.7,516.0 299.1,516.0 183.6,516.0 68.0,516.0" fill="#c7e9c0" fill-opacity="0.9" stroke="#fff" stroke-width="0.4"><title>loop_unroll — parseTranslationUnit</title></polygon>
<polygon points="68.0,502.2 183.6,500.9 299.1,500.8 414.7,500.8 530.2,500.5 645.8,494.9 761.3,494.6 876.9,494.5 992.4,493.0 1108.0,509.5 1108.0,515.9 992.4,515.9 876.9,515.9 761.3,515.9 645.8,515.9 530.2,515.9 414.7,515.9 299.1,515.9 183.6,515.9 68.0,515.9" fill="#41ab5d" fill-opacity="0.9" stroke="#fff" stroke-width="0.4"><title>loop_unroll — SemanticChecking</title></polygon>
<polygon points="68.0,500.6 183.6,499.2 299.1,499.0 414.7,499.0 530.2,498.7 645.8,486.5 761.3,486.0 876.9,486.0 992.4,484.4 1108.0,506.9 1108.0,509.5 992.4,493.0 876.9,494.5 761.3,494.6 645.8,494.9 530.2,500.5 414.7,500.8 299.1,500.8 183.6,500.9 68.0,502.2" fill="#006d2c" fill-opacity="0.9" stroke="#fff" stroke-width="0.4"><title>loop_unroll — generateIR</title></polygon>
<polygon points="68.0,500.3 183.6,499.0 299.1,498.8 414.7,498.8 530.2,498.5 645.8,486.2 761.3,485.7 876.9,485.7 992.4,484.2 1108.0,506.6 1108.0,506.9 992.4,484.4 876.9,486.0 761.3,486.0 645.8,486.5 530.2,498.7 414.7,499.0 299.1,499.0 183.6,499.2 68.0,500.6" fill="#74c476" fill-opacity="0.9" stroke="#fff" stroke-width="0.4"><title>loop_unroll — frontEndExecute (self)</title></polygon>
<polygon points="68.0,460.3 183.6,459.4 299.1,459.1 414.7,457.5 530.2,449.5 645.8,381.6 761.3,380.1 876.9,381.6 992.4,378.7 1108.0,418.7 1108.0,506.6 992.4,484.2 876.9,485.7 761.3,485.7 645.8,486.2 530.2,498.5 414.7,498.8 299.1,498.8 183.6,499.0 68.0,500.3" fill="#6baed6" fill-opacity="0.9" stroke="#fff" stroke-width="0.4"><title>loop_unroll — specializeModule</title></polygon>
<polygon points="68.0,426.7 183.6,424.7 299.1,426.4 414.7,423.8 530.2,414.8 645.8,327.3 761.3,325.5 876.9,327.7 992.4,325.8 1108.0,369.6 1108.0,418.7 992.4,378.7 876.9,381.6 761.3,380.1 645.8,381.6 530.2,449.5 414.7,457.5 299.1,459.1 183.6,459.4 68.0,460.3" fill="#2171b5" fill-opacity="0.9" stroke="#fff" stroke-width="0.4"><title>loop_unroll — simplifyIR</title></polygon>
<polygon points="68.0,426.2 183.6,424.1 299.1,425.9 414.7,423.3 530.2,414.3 645.8,321.3 761.3,319.5 876.9,321.6 992.4,319.5 1108.0,369.1 1108.0,369.6 992.4,325.8 876.9,327.7 761.3,325.5 645.8,327.3 530.2,414.8 414.7,423.8 299.1,426.4 183.6,424.7 68.0,426.7" fill="#08306b" fill-opacity="0.9" stroke="#fff" stroke-width="0.4"><title>loop_unroll — linkIR</title></polygon>
<polygon points="68.0,303.7 183.6,299.6 299.1,298.4 414.7,299.2 530.2,286.4 645.8,232.4 761.3,228.8 876.9,232.6 992.4,228.8 1108.0,293.4 1108.0,369.1 992.4,319.5 876.9,321.6 761.3,319.5 645.8,321.3 530.2,414.3 414.7,423.3 299.1,425.9 183.6,424.1 68.0,426.2" fill="#9e9ac8" fill-opacity="0.9" stroke="#fff" stroke-width="0.4"><title>loop_unroll — unrollLoopsInModule</title></polygon>
<polygon points="68.0,258.4 183.6,255.0 299.1,253.8 414.7,254.8 530.2,240.7 645.8,196.7 761.3,192.8 876.9,196.0 992.4,192.2 1108.0,254.8 1108.0,293.4 992.4,228.8 876.9,232.6 761.3,228.8 645.8,232.4 530.2,286.4 414.7,299.2 299.1,298.4 183.6,299.6 68.0,303.7" fill="#807dba" fill-opacity="0.9" stroke="#fff" stroke-width="0.4"><title>loop_unroll — legalizeResourceTypes</title></polygon>
<polygon points="68.0,213.5 183.6,210.5 299.1,209.2 414.7,210.5 530.2,194.3 645.8,161.1 761.3,156.8 876.9,159.3 992.4,155.8 1108.0,216.5 1108.0,254.8 992.4,192.2 876.9,196.0 761.3,192.8 645.8,196.7 530.2,240.7 414.7,254.8 299.1,253.8 183.6,255.0 68.0,258.4" fill="#6a51a3" fill-opacity="0.9" stroke="#fff" stroke-width="0.4"><title>loop_unroll — legalizeExistentialTypeLayout</title></polygon>
<polygon points="68.0,213.4 183.6,210.4 299.1,209.1 414.7,210.4 530.2,194.2 645.8,161.0 761.3,156.8 876.9,159.2 992.4,155.8 1108.0,216.5 1108.0,216.5 992.4,155.8 876.9,159.3 761.3,156.8 645.8,161.1 530.2,194.3 414.7,210.5 299.1,209.2 183.6,210.5 68.0,213.5" fill="#bcbddc" fill-opacity="0.9" stroke="#fff" stroke-width="0.4"><title>loop_unroll — performMandatoryEarlyInlining</title></polygon>
<polygon points="68.0,213.2 183.6,210.2 299.1,208.9 414.7,210.2 530.2,194.0 645.8,160.9 761.3,156.6 876.9,159.1 992.4,155.6 1108.0,216.3 1108.0,216.5 992.4,155.8 876.9,159.2 761.3,156.8 645.8,161.0 530.2,194.2 414.7,210.4 299.1,209.1 183.6,210.4 68.0,213.4" fill="#dadaeb" fill-opacity="0.9" stroke="#fff" stroke-width="0.4"><title>loop_unroll — performForceInlining</title></polygon>
<polygon points="68.0,207.3 183.6,204.7 299.1,202.0 414.7,202.3 530.2,186.3 645.8,160.9 761.3,156.6 876.9,159.1 992.4,155.6 1108.0,216.3 1108.0,216.3 992.4,155.6 876.9,159.1 761.3,156.6 645.8,160.9 530.2,194.0 414.7,210.2 299.1,208.9 183.6,210.2 68.0,213.2" fill="#4a1486" fill-opacity="0.9" stroke="#fff" stroke-width="0.4"><title>loop_unroll — linkAndOptimizeIR (self)</title></polygon>
<polygon points="68.0,164.7 183.6,162.5 299.1,159.6 414.7,158.8 530.2,142.4 645.8,116.8 761.3,112.3 876.9,115.8 992.4,111.7 1108.0,170.9 1108.0,216.3 992.4,155.6 876.9,159.1 761.3,156.6 645.8,160.9 530.2,186.3 414.7,202.3 299.1,202.0 183.6,204.7 68.0,207.3" fill="#e6550d" fill-opacity="0.9" stroke="#fff" stroke-width="0.4"><title>loop_unroll — generateOutput (self)</title></polygon>
<polygon points="68.0,164.2 183.6,162.3 299.1,159.5 414.7,158.8 530.2,142.3 645.8,116.8 761.3,112.3 876.9,115.7 992.4,108.6 1108.0,170.8 1108.0,170.9 992.4,111.7 876.9,115.8 761.3,112.3 645.8,116.8 530.2,142.4 414.7,158.8 299.1,159.6 183.6,162.5 68.0,164.7" fill="#969696" fill-opacity="0.9" stroke="#fff" stroke-width="0.4"><title>loop_unroll — compileInner (self)</title></polygon>
<text x="12" y="578" fill="#666" font-weight="600">phase buckets</text>
<rect x="12" y="586" width="12" height="12" fill="#c7e9c0"/>
<text x="28" y="596" fill="#222">parseTranslationUnit</text>
<rect x="289" y="586" width="12" height="12" fill="#41ab5d"/>
<text x="305" y="596" fill="#222">SemanticChecking</text>
<rect x="566" y="586" width="12" height="12" fill="#006d2c"/>
<text x="582" y="596" fill="#222">generateIR</text>
<rect x="843" y="586" width="12" height="12" fill="#74c476"/>
<text x="859" y="596" fill="#222">frontEndExecute (self)</text>
<rect x="12" y="604" width="12" height="12" fill="#6baed6"/>
<text x="28" y="614" fill="#222">specializeModule</text>
<rect x="289" y="604" width="12" height="12" fill="#2171b5"/>
<text x="305" y="614" fill="#222">simplifyIR</text>
<rect x="566" y="604" width="12" height="12" fill="#08306b"/>
<text x="582" y="614" fill="#222">linkIR</text>
<rect x="843" y="604" width="12" height="12" fill="#9e9ac8"/>
<text x="859" y="614" fill="#222">unrollLoopsInModule</text>
<rect x="12" y="622" width="12" height="12" fill="#807dba"/>
<text x="28" y="632" fill="#222">legalizeResourceTypes</text>
<rect x="289" y="622" width="12" height="12" fill="#6a51a3"/>
<text x="305" y="632" fill="#222">legalizeExistentialTypeLayout</text>
<rect x="566" y="622" width="12" height="12" fill="#bcbddc"/>
<text x="582" y="632" fill="#222">performMandatoryEarlyInlining</text>
<rect x="843" y="622" width="12" height="12" fill="#dadaeb"/>
<text x="859" y="632" fill="#222">performForceInlining</text>
<rect x="12" y="640" width="12" height="12" fill="#4a1486"/>
<text x="28" y="650" fill="#222">linkAndOptimizeIR (self)</text>
<rect x="289" y="640" width="12" height="12" fill="#fd8d3c"/>
<text x="305" y="650" fill="#222">emitEntryPointsSourceFromIR</text>
<rect x="566" y="640" width="12" height="12" fill="#e6550d"/>
<text x="582" y="650" fill="#222">generateOutput (self)</text>
<rect x="843" y="640" width="12" height="12" fill="#969696"/>
<text x="859" y="650" fill="#222">compileInner (self)</text>
</svg>