<svg xmlns="http://www.w3.org/2000/svg" xmlns:xlink="http://www.w3.org/1999/xlink" width="1132" height="680" viewBox="0 0 1132 680" preserveAspectRatio="xMidYMid meet" font-family="sans-serif" font-size="13">
<rect width="1132" height="680" fill="white"/>
<text x="12" y="30" font-size="20" font-weight="bold">mdl_dxr — Daily tip-of-tree (last 30 days) (median ms)</text>
<text x="68" y="60" font-size="15" font-weight="600" fill="#1a1a1a">mdl_dxr<tspan fill="#888" font-weight="400" text-decoration="none">  0.80×</tspan></text>
<line x1="68.0" y1="516.0" x2="1108.0" y2="516.0" stroke="#eee"/>
<text x="64.0" y="519.0" text-anchor="end" fill="#999">0.0</text>
<line x1="68.0" y1="296.0" x2="1108.0" y2="296.0" stroke="#eee"/>
<text x="64.0" y="299.0" text-anchor="end" fill="#999">715</text>
<line x1="68.0" y1="76.0" x2="1108.0" y2="76.0" stroke="#eee"/>
<text x="64.0" y="79.0" text-anchor="end" fill="#999">1430</text>
<line x1="68.0" y1="76.0" x2="68.0" y2="516.0" stroke="#333"/>
<line x1="68.0" y1="516.0" x2="1108.0" y2="516.0" stroke="#333"/>
<line x1="68.0" y1="516.0" x2="68.0" y2="519.0" stroke="#999"/>
<text x="68.0" y="531.0" text-anchor="end" fill="#e8731a" transform="rotate(-50 68.0 531.0)">06-25</text>
<line x1="120.0" y1="516.0" x2="120.0" y2="519.0" stroke="#999"/>
<text x="120.0" y="531.0" text-anchor="end" fill="#e8731a" transform="rotate(-50 120.0 531.0)">06-26</text>
<line x1="172.0" y1="516.0" x2="172.0" y2="519.0" stroke="#999"/>
<text x="172.0" y="531.0" text-anchor="end" fill="#e8731a" transform="rotate(-50 172.0 531.0)">06-28</text>
<line x1="224.0" y1="516.0" x2="224.0" y2="519.0" stroke="#999"/>
<text x="224.0" y="531.0" text-anchor="end" fill="#e8731a" transform="rotate(-50 224.0 531.0)">07-01</text>
<line x1="276.0" y1="516.0" x2="276.0" y2="519.0" stroke="#999"/>
<text x="276.0" y="531.0" text-anchor="end" fill="#e8731a" transform="rotate(-50 276.0 531.0)">07-02</text>
<line x1="328.0" y1="516.0" x2="328.0" y2="519.0" stroke="#999"/>
<text x="328.0" y="531.0" text-anchor="end" fill="#e8731a" transform="rotate(-50 328.0 531.0)">07-03</text>
<line x1="380.0" y1="516.0" x2="380.0" y2="519.0" stroke="#999"/>
<text x="380.0" y="531.0" text-anchor="end" fill="#e8731a" transform="rotate(-50 380.0 531.0)">07-06</text>
<line x1="432.0" y1="516.0" x2="432.0" y2="519.0" stroke="#999"/>
<text x="432.0" y="531.0" text-anchor="end" fill="#e8731a" transform="rotate(-50 432.0 531.0)">07-07</text>
<line x1="484.0" y1="516.0" x2="484.0" y2="519.0" stroke="#999"/>
<text x="484.0" y="531.0" text-anchor="end" fill="#e8731a" transform="rotate(-50 484.0 531.0)">07-08</text>
<line x1="536.0" y1="516.0" x2="536.0" y2="519.0" stroke="#999"/>
<text x="536.0" y="531.0" text-anchor="end" fill="#e8731a" transform="rotate(-50 536.0 531.0)">07-09</text>
<line x1="588.0" y1="516.0" x2="588.0" y2="519.0" stroke="#999"/>
<text x="588.0" y="531.0" text-anchor="end" fill="#e8731a" transform="rotate(-50 588.0 531.0)">07-10</text>
<line x1="640.0" y1="516.0" x2="640.0" y2="519.0" stroke="#999"/>
<text x="640.0" y="531.0" text-anchor="end" fill="#e8731a" transform="rotate(-50 640.0 531.0)">07-11</text>
<line x1="692.0" y1="516.0" x2="692.0" y2="519.0" stroke="#999"/>
<text x="692.0" y="531.0" text-anchor="end" fill="#e8731a" transform="rotate(-50 692.0 531.0)">07-14</text>
<line x1="744.0" y1="516.0" x2="744.0" y2="519.0" stroke="#999"/>
<text x="744.0" y="531.0" text-anchor="end" fill="#e8731a" transform="rotate(-50 744.0 531.0)">07-15</text>
<line x1="796.0" y1="516.0" x2="796.0" y2="519.0" stroke="#999"/>
<text x="796.0" y="531.0" text-anchor="end" fill="#e8731a" transform="rotate(-50 796.0 531.0)">07-15</text>
<line x1="848.0" y1="516.0" x2="848.0" y2="519.0" stroke="#999"/>
<text x="848.0" y="531.0" text-anchor="end" fill="#e8731a" transform="rotate(-50 848.0 531.0)">07-16</text>
<line x1="900.0" y1="516.0" x2="900.0" y2="519.0" stroke="#999"/>
<text x="900.0" y="531.0" text-anchor="end" fill="#e8731a" transform="rotate(-50 900.0 531.0)">07-17</text>
<line x1="952.0" y1="516.0" x2="952.0" y2="519.0" stroke="#999"/>
<text x="952.0" y="531.0" text-anchor="end" fill="#e8731a" transform="rotate(-50 952.0 531.0)">07-18</text>
<line x1="1004.0" y1="516.0" x2="1004.0" y2="519.0" stroke="#999"/>
<text x="1004.0" y="531.0" text-anchor="end" fill="#e8731a" transform="rotate(-50 1004.0 531.0)">07-19</text>
<line x1="1056.0" y1="516.0" x2="1056.0" y2="519.0" stroke="#999"/>
<text x="1056.0" y="531.0" text-anchor="end" fill="#e8731a" transform="rotate(-50 1056.0 531.0)">07-20</text>
<line x1="1108.0" y1="516.0" x2="1108.0" y2="519.0" stroke="#999"/>
<text x="1108.0" y="531.0" text-anchor="end" fill="#e8731a" transform="rotate(-50 1108.0 531.0)">07-21</text>
<polygon points="68.0,511.9 120.0,511.9 172.0,512.1 224.0,512.1 276.0,512.0 328.0,511.9 380.0,511.9 432.0,512.3 484.0,512.4 536.0,512.3 588.0,512.3 640.0,512.2 692.0,512.3 744.0,512.6 796.0,512.6 848.0,512.5 900.0,512.6 952.0,512.7 1004.0,512.8 1056.0,512.7 1108.0,512.8 1108.0,516.0 1056.0,516.0 1004.0,516.0 952.0,516.0 900.0,516.0 848.0,516.0 796.0,516.0 744.0,516.0 692.0,516.0 640.0,516.0 588.0,516.0 536.0,516.0 484.0,516.0 432.0,516.0 380.0,516.0 328.0,516.0 276.0,516.0 224.0,516.0 172.0,516.0 120.0,516.0 68.0,516.0" fill="#c7e9c0" fill-opacity="0.9" stroke="#fff" stroke-width="0.4"><title>mdl_dxr — parseTranslationUnit</title></polygon>
<polygon points="68.0,425.7 120.0,424.2 172.0,427.1 224.0,426.3 276.0,424.8 328.0,423.5 380.0,424.8 432.0,425.9 484.0,426.0 536.0,425.0 588.0,425.6 640.0,423.2 692.0,424.0 744.0,429.1 796.0,430.4 848.0,421.7 900.0,419.4 952.0,431.0 1004.0,430.1 1056.0,430.4 1108.0,429.9 1108.0,512.8 1056.0,512.7 1004.0,512.8 952.0,512.7 900.0,512.6 848.0,512.5 796.0,512.6 744.0,512.6 692.0,512.3 640.0,512.2 588.0,512.3 536.0,512.3 484.0,512.4 432.0,512.3 380.0,511.9 328.0,511.9 276.0,512.0 224.0,512.1 172.0,512.1 120.0,511.9 68.0,511.9" fill="#41ab5d" fill-opacity="0.9" stroke="#fff" stroke-width="0.4"><title>mdl_dxr — SemanticChecking</title></polygon>
<polygon points="68.0,424.6 120.0,423.1 172.0,426.0 224.0,425.2 276.0,423.7 328.0,422.3 380.0,423.6 432.0,424.8 484.0,424.9 536.0,423.8 588.0,424.5 640.0,422.1 692.0,422.8 744.0,427.9 796.0,429.3 848.0,420.5 900.0,418.2 952.0,430.0 1004.0,429.2 1056.0,429.5 1108.0,428.9 1108.0,429.9 1056.0,430.4 1004.0,430.1 952.0,431.0 900.0,419.4 848.0,421.7 796.0,430.4 744.0,429.1 692.0,424.0 640.0,423.2 588.0,425.6 536.0,425.0 484.0,426.0 432.0,425.9 380.0,424.8 328.0,423.5 276.0,424.8 224.0,426.3 172.0,427.1 120.0,424.2 68.0,425.7" fill="#006d2c" fill-opacity="0.9" stroke="#fff" stroke-width="0.4"><title>mdl_dxr — generateIR</title></polygon>
<polygon points="68.0,392.6 120.0,390.6 172.0,394.0 224.0,393.2 276.0,391.4 328.0,389.7 380.0,391.6 432.0,393.4 484.0,393.6 536.0,392.4 588.0,395.5 640.0,393.9 692.0,394.5 744.0,401.9 796.0,403.3 848.0,394.7 900.0,392.0 952.0,405.6 1004.0,404.5 1056.0,405.0 1108.0,404.2 1108.0,428.9 1056.0,429.5 1004.0,429.2 952.0,430.0 900.0,418.2 848.0,420.5 796.0,429.3 744.0,427.9 692.0,422.8 640.0,422.1 588.0,424.5 536.0,423.8 484.0,424.9 432.0,424.8 380.0,423.6 328.0,422.3 276.0,423.7 224.0,425.2 172.0,426.0 120.0,423.1 68.0,424.6" fill="#6baed6" fill-opacity="0.9" stroke="#fff" stroke-width="0.4"><title>mdl_dxr — specializeModule</title></polygon>
<polygon points="68.0,338.6 120.0,335.8 172.0,340.3 224.0,339.5 276.0,340.5 328.0,339.0 380.0,341.4 432.0,343.3 484.0,343.6 536.0,342.7 588.0,353.5 640.0,351.6 692.0,352.1 744.0,360.9 796.0,362.1 848.0,354.0 900.0,351.0 952.0,368.6 1004.0,367.1 1056.0,367.6 1108.0,366.3 1108.0,404.2 1056.0,405.0 1004.0,404.5 952.0,405.6 900.0,392.0 848.0,394.7 796.0,403.3 744.0,401.9 692.0,394.5 640.0,393.9 588.0,395.5 536.0,392.4 484.0,393.6 432.0,393.4 380.0,391.6 328.0,389.7 276.0,391.4 224.0,393.2 172.0,394.0 120.0,390.6 68.0,392.6" fill="#2171b5" fill-opacity="0.9" stroke="#fff" stroke-width="0.4"><title>mdl_dxr — simplifyIR</title></polygon>
<polygon points="68.0,334.8 120.0,331.7 172.0,336.5 224.0,335.5 276.0,336.5 328.0,335.0 380.0,337.5 432.0,339.5 484.0,339.7 536.0,338.8 588.0,349.6 640.0,347.7 692.0,348.3 744.0,357.1 796.0,358.3 848.0,350.2 900.0,347.1 952.0,365.5 1004.0,364.2 1056.0,364.5 1108.0,363.2 1108.0,366.3 1056.0,367.6 1004.0,367.1 952.0,368.6 900.0,351.0 848.0,354.0 796.0,362.1 744.0,360.9 692.0,352.1 640.0,351.6 588.0,353.5 536.0,342.7 484.0,343.6 432.0,343.3 380.0,341.4 328.0,339.0 276.0,340.5 224.0,339.5 172.0,340.3 120.0,335.8 68.0,338.6" fill="#08306b" fill-opacity="0.9" stroke="#fff" stroke-width="0.4"><title>mdl_dxr — linkIR</title></polygon>
<polygon points="68.0,334.7 120.0,331.6 172.0,336.4 224.0,335.4 276.0,336.4 328.0,334.9 380.0,337.4 432.0,339.3 484.0,339.6 536.0,338.6 588.0,349.5 640.0,347.5 692.0,348.1 744.0,356.9 796.0,358.2 848.0,350.1 900.0,346.9 952.0,365.3 1004.0,364.0 1056.0,364.4 1108.0,363.0 1108.0,363.2 1056.0,364.5 1004.0,364.2 952.0,365.5 900.0,347.1 848.0,350.2 796.0,358.3 744.0,357.1 692.0,348.3 640.0,347.7 588.0,349.6 536.0,338.8 484.0,339.7 432.0,339.5 380.0,337.5 328.0,335.0 276.0,336.5 224.0,335.5 172.0,336.5 120.0,331.7 68.0,334.8" fill="#9e9ac8" fill-opacity="0.9" stroke="#fff" stroke-width="0.4"><title>mdl_dxr — unrollLoopsInModule</title></polygon>
<polygon points="68.0,324.0 120.0,320.9 172.0,325.8 224.0,324.6 276.0,325.8 328.0,324.3 380.0,326.8 432.0,328.7 484.0,329.0 536.0,328.1 588.0,346.7 640.0,344.7 692.0,345.4 744.0,354.2 796.0,355.4 848.0,347.4 900.0,344.2 952.0,362.7 1004.0,361.3 1056.0,361.7 1108.0,360.3 1108.0,363.0 1056.0,364.4 1004.0,364.0 952.0,365.3 900.0,346.9 848.0,350.1 796.0,358.2 744.0,356.9 692.0,348.1 640.0,347.5 588.0,349.5 536.0,338.6 484.0,339.6 432.0,339.3 380.0,337.4 328.0,334.9 276.0,336.4 224.0,335.4 172.0,336.4 120.0,331.6 68.0,334.7" fill="#807dba" fill-opacity="0.9" stroke="#fff" stroke-width="0.4"><title>mdl_dxr — legalizeResourceTypes</title></polygon>
<polygon points="68.0,313.1 120.0,310.1 172.0,315.1 224.0,313.8 276.0,315.3 328.0,313.6 380.0,316.2 432.0,318.0 484.0,318.3 536.0,317.3 588.0,343.7 640.0,341.7 692.0,342.4 744.0,351.2 796.0,352.4 848.0,344.4 900.0,341.2 952.0,359.7 1004.0,358.1 1056.0,358.6 1108.0,357.2 1108.0,360.3 1056.0,361.7 1004.0,361.3 952.0,362.7 900.0,344.2 848.0,347.4 796.0,355.4 744.0,354.2 692.0,345.4 640.0,344.7 588.0,346.7 536.0,328.1 484.0,329.0 432.0,328.7 380.0,326.8 328.0,324.3 276.0,325.8 224.0,324.6 172.0,325.8 120.0,320.9 68.0,324.0" fill="#6a51a3" fill-opacity="0.9" stroke="#fff" stroke-width="0.4"><title>mdl_dxr — legalizeExistentialTypeLayout</title></polygon>
<polygon points="68.0,312.4 120.0,309.3 172.0,314.4 224.0,313.0 276.0,314.5 328.0,312.9 380.0,315.4 432.0,317.0 484.0,317.4 536.0,316.4 588.0,342.8 640.0,340.8 692.0,341.4 744.0,350.2 796.0,351.5 848.0,343.4 900.0,340.2 952.0,358.9 1004.0,357.3 1056.0,357.8 1108.0,356.4 1108.0,357.2 1056.0,358.6 1004.0,358.1 952.0,359.7 900.0,341.2 848.0,344.4 796.0,352.4 744.0,351.2 692.0,342.4 640.0,341.7 588.0,343.7 536.0,317.3 484.0,318.3 432.0,318.0 380.0,316.2 328.0,313.6 276.0,315.3 224.0,313.8 172.0,315.1 120.0,310.1 68.0,313.1" fill="#bcbddc" fill-opacity="0.9" stroke="#fff" stroke-width="0.4"><title>mdl_dxr — performMandatoryEarlyInlining</title></polygon>
<polygon points="68.0,311.4 120.0,308.4 172.0,313.5 224.0,312.1 276.0,313.6 328.0,311.9 380.0,314.5 432.0,316.1 484.0,316.4 536.0,315.5 588.0,341.9 640.0,339.8 692.0,340.5 744.0,349.3 796.0,350.6 848.0,342.5 900.0,339.3 952.0,358.1 1004.0,356.6 1056.0,357.1 1108.0,355.7 1108.0,356.4 1056.0,357.8 1004.0,357.3 952.0,358.9 900.0,340.2 848.0,343.4 796.0,351.5 744.0,350.2 692.0,341.4 640.0,340.8 588.0,342.8 536.0,316.4 484.0,317.4 432.0,317.0 380.0,315.4 328.0,312.9 276.0,314.5 224.0,313.0 172.0,314.4 120.0,309.3 68.0,312.4" fill="#dadaeb" fill-opacity="0.9" stroke="#fff" stroke-width="0.4"><title>mdl_dxr — performForceInlining</title></polygon>
<polygon points="68.0,264.6 120.0,260.3 172.0,266.9 224.0,265.7 276.0,273.0 328.0,271.8 380.0,273.8 432.0,275.1 484.0,275.4 536.0,275.2 588.0,307.9 640.0,306.3 692.0,307.6 744.0,321.2 796.0,322.5 848.0,314.8 900.0,310.4 952.0,332.3 1004.0,329.6 1056.0,331.2 1108.0,329.6 1108.0,355.7 1056.0,357.1 1004.0,356.6 952.0,358.1 900.0,339.3 848.0,342.5 796.0,350.6 744.0,349.3 692.0,340.5 640.0,339.8 588.0,341.9 536.0,315.5 484.0,316.4 432.0,316.1 380.0,314.5 328.0,311.9 276.0,313.6 224.0,312.1 172.0,313.5 120.0,308.4 68.0,311.4" fill="#4a1486" fill-opacity="0.9" stroke="#fff" stroke-width="0.4"><title>mdl_dxr — linkAndOptimizeIR (self)</title></polygon>
<polygon points="68.0,110.7 120.0,109.0 172.0,114.1 224.0,114.8 276.0,128.1 328.0,127.0 380.0,123.8 432.0,126.4 484.0,130.4 536.0,126.0 588.0,168.9 640.0,164.8 692.0,162.3 744.0,182.1 796.0,180.6 848.0,175.1 900.0,170.9 952.0,198.0 1004.0,192.1 1056.0,193.2 1108.0,192.4 1108.0,329.6 1056.0,331.2 1004.0,329.6 952.0,332.3 900.0,310.4 848.0,314.8 796.0,322.5 744.0,321.2 692.0,307.6 640.0,306.3 588.0,307.9 536.0,275.2 484.0,275.4 432.0,275.1 380.0,273.8 328.0,271.8 276.0,273.0 224.0,265.7 172.0,266.9 120.0,260.3 68.0,264.6" fill="#e6550d" fill-opacity="0.9" stroke="#fff" stroke-width="0.4"><title>mdl_dxr — generateOutput (self)</title></polygon>
<polygon points="68.0,110.5 120.0,108.6 172.0,113.2 224.0,114.5 276.0,128.0 328.0,126.5 380.0,122.9 432.0,126.3 484.0,128.7 536.0,125.0 588.0,168.1 640.0,162.9 692.0,161.0 744.0,181.5 796.0,179.7 848.0,174.7 900.0,170.9 952.0,197.8 1004.0,191.4 1056.0,193.2 1108.0,191.2 1108.0,192.4 1056.0,193.2 1004.0,192.1 952.0,198.0 900.0,170.9 848.0,175.1 796.0,180.6 744.0,182.1 692.0,162.3 640.0,164.8 588.0,168.9 536.0,126.0 484.0,130.4 432.0,126.4 380.0,123.8 328.0,127.0 276.0,128.1 224.0,114.8 172.0,114.1 120.0,109.0 68.0,110.7" fill="#969696" fill-opacity="0.9" stroke="#fff" stroke-width="0.4"><title>mdl_dxr — compileInner (self)</title></polygon>
<text x="12" y="578" fill="#666" font-weight="600">phase buckets</text>
<rect x="12" y="586" width="12" height="12" fill="#c7e9c0"/>
<text x="28" y="596" fill="#222">parseTranslationUnit</text>
<rect x="289" y="586" width="12" height="12" fill="#41ab5d"/>
<text x="305" y="596" fill="#222">SemanticChecking</text>
<rect x="566" y="586" width="12" height="12" fill="#006d2c"/>
<text x="582" y="596" fill="#222">generateIR</text>
<rect x="843" y="586" width="12" height="12" fill="#74c476"/>
<text x="859" y="596" fill="#222">frontEndExecute (self)</text>
<rect x="12" y="604" width="12" height="12" fill="#6baed6"/>
<text x="28" y="614" fill="#222">specializeModule</text>
<rect x="289" y="604" width="12" height="12" fill="#2171b5"/>
<text x="305" y="614" fill="#222">simplifyIR</text>
<rect x="566" y="604" width="12" height="12" fill="#08306b"/>
<text x="582" y="614" fill="#222">linkIR</text>
<rect x="843" y="604" width="12" height="12" fill="#9e9ac8"/>
<text x="859" y="614" fill="#222">unrollLoopsInModule</text>
<rect x="12" y="622" width="12" height="12" fill="#807dba"/>
<text x="28" y="632" fill="#222">legalizeResourceTypes</text>
<rect x="289" y="622" width="12" height="12" fill="#6a51a3"/>
<text x="305" y="632" fill="#222">legalizeExistentialTypeLayout</text>
<rect x="566" y="622" width="12" height="12" fill="#bcbddc"/>
<text x="582" y="632" fill="#222">performMandatoryEarlyInlining</text>
<rect x="843" y="622" width="12" height="12" fill="#dadaeb"/>
<text x="859" y="632" fill="#222">performForceInlining</text>
<rect x="12" y="640" width="12" height="12" fill="#4a1486"/>
<text x="28" y="650" fill="#222">linkAndOptimizeIR (self)</text>
<rect x="289" y="640" width="12" height="12" fill="#fd8d3c"/>
<text x="305" y="650" fill="#222">emitEntryPointsSourceFromIR</text>
<rect x="566" y="640" width="12" height="12" fill="#e6550d"/>
<text x="582" y="650" fill="#222">generateOutput (self)</text>
<rect x="843" y="640" width="12" height="12" fill="#969696"/>
<text x="859" y="650" fill="#222">compileInner (self)</text>
</svg>