<svg xmlns="http://www.w3.org/2000/svg" xmlns:xlink="http://www.w3.org/1999/xlink" width="1132" height="680" viewBox="0 0 1132 680" preserveAspectRatio="xMidYMid meet" font-family="sans-serif" font-size="13">
<rect width="1132" height="680" fill="white"/>
<text x="12" y="30" font-size="20" font-weight="bold">mdl_dxr — Across releases (median ms)</text>
<text x="68" y="60" font-size="15" font-weight="600" fill="#1a1a1a">mdl_dxr<tspan fill="#888" font-weight="400" text-decoration="none">  0.72×</tspan></text>
<line x1="68.0" y1="516.0" x2="1108.0" y2="516.0" stroke="#eee"/>
<text x="64.0" y="519.0" text-anchor="end" fill="#999">0.0</text>
<line x1="68.0" y1="296.0" x2="1108.0" y2="296.0" stroke="#eee"/>
<text x="64.0" y="299.0" text-anchor="end" fill="#999">1073</text>
<line x1="68.0" y1="76.0" x2="1108.0" y2="76.0" stroke="#eee"/>
<text x="64.0" y="79.0" text-anchor="end" fill="#999">2146</text>
<line x1="68.0" y1="76.0" x2="68.0" y2="516.0" stroke="#333"/>
<line x1="68.0" y1="516.0" x2="1108.0" y2="516.0" stroke="#333"/>
<line x1="68.0" y1="516.0" x2="68.0" y2="519.0" stroke="#999"/>
<text x="68.0" y="531.0" text-anchor="end" fill="#666" transform="rotate(-50 68.0 531.0)">25.12</text>
<line x1="108.0" y1="516.0" x2="108.0" y2="519.0" stroke="#999"/>
<text x="108.0" y="531.0" text-anchor="end" fill="#666" transform="rotate(-50 108.0 531.0)">25.13</text>
<line x1="148.0" y1="516.0" x2="148.0" y2="519.0" stroke="#999"/>
<text x="148.0" y="531.0" text-anchor="end" fill="#666" transform="rotate(-50 148.0 531.0)">25.14</text>
<line x1="188.0" y1="516.0" x2="188.0" y2="519.0" stroke="#999"/>
<text x="188.0" y="531.0" text-anchor="end" fill="#666" transform="rotate(-50 188.0 531.0)">25.15</text>
<line x1="228.0" y1="516.0" x2="228.0" y2="519.0" stroke="#999"/>
<text x="228.0" y="531.0" text-anchor="end" fill="#666" transform="rotate(-50 228.0 531.0)">25.16</text>
<line x1="268.0" y1="516.0" x2="268.0" y2="519.0" stroke="#999"/>
<text x="268.0" y="531.0" text-anchor="end" fill="#666" transform="rotate(-50 268.0 531.0)">25.17</text>
<line x1="308.0" y1="516.0" x2="308.0" y2="519.0" stroke="#999"/>
<text x="308.0" y="531.0" text-anchor="end" fill="#666" transform="rotate(-50 308.0 531.0)">25.18</text>
<line x1="348.0" y1="516.0" x2="348.0" y2="519.0" stroke="#999"/>
<text x="348.0" y="531.0" text-anchor="end" fill="#666" transform="rotate(-50 348.0 531.0)">25.19</text>
<line x1="388.0" y1="516.0" x2="388.0" y2="519.0" stroke="#999"/>
<text x="388.0" y="531.0" text-anchor="end" fill="#666" transform="rotate(-50 388.0 531.0)">25.20</text>
<line x1="428.0" y1="516.0" x2="428.0" y2="519.0" stroke="#999"/>
<text x="428.0" y="531.0" text-anchor="end" fill="#666" transform="rotate(-50 428.0 531.0)">25.21</text>
<line x1="468.0" y1="516.0" x2="468.0" y2="519.0" stroke="#999"/>
<text x="468.0" y="531.0" text-anchor="end" fill="#666" transform="rotate(-50 468.0 531.0)">25.22</text>
<line x1="508.0" y1="516.0" x2="508.0" y2="519.0" stroke="#999"/>
<text x="508.0" y="531.0" text-anchor="end" fill="#666" transform="rotate(-50 508.0 531.0)">25.23</text>
<line x1="548.0" y1="516.0" x2="548.0" y2="519.0" stroke="#999"/>
<text x="548.0" y="531.0" text-anchor="end" fill="#666" transform="rotate(-50 548.0 531.0)">25.24</text>
<line x1="588.0" y1="516.0" x2="588.0" y2="519.0" stroke="#999"/>
<text x="588.0" y="531.0" text-anchor="end" fill="#666" transform="rotate(-50 588.0 531.0)">26.1</text>
<line x1="628.0" y1="516.0" x2="628.0" y2="519.0" stroke="#999"/>
<text x="628.0" y="531.0" text-anchor="end" fill="#666" transform="rotate(-50 628.0 531.0)">26.2</text>
<line x1="668.0" y1="516.0" x2="668.0" y2="519.0" stroke="#999"/>
<text x="668.0" y="531.0" text-anchor="end" fill="#666" transform="rotate(-50 668.0 531.0)">26.3</text>
<line x1="708.0" y1="516.0" x2="708.0" y2="519.0" stroke="#999"/>
<text x="708.0" y="531.0" text-anchor="end" fill="#666" transform="rotate(-50 708.0 531.0)">26.4</text>
<line x1="748.0" y1="516.0" x2="748.0" y2="519.0" stroke="#999"/>
<text x="748.0" y="531.0" text-anchor="end" fill="#666" transform="rotate(-50 748.0 531.0)">26.5</text>
<line x1="788.0" y1="516.0" x2="788.0" y2="519.0" stroke="#999"/>
<text x="788.0" y="531.0" text-anchor="end" fill="#666" transform="rotate(-50 788.0 531.0)">26.7</text>
<line x1="828.0" y1="516.0" x2="828.0" y2="519.0" stroke="#999"/>
<text x="828.0" y="531.0" text-anchor="end" fill="#666" transform="rotate(-50 828.0 531.0)">26.8</text>
<line x1="868.0" y1="516.0" x2="868.0" y2="519.0" stroke="#999"/>
<text x="868.0" y="531.0" text-anchor="end" fill="#666" transform="rotate(-50 868.0 531.0)">26.9</text>
<line x1="908.0" y1="516.0" x2="908.0" y2="519.0" stroke="#999"/>
<text x="908.0" y="531.0" text-anchor="end" fill="#666" transform="rotate(-50 908.0 531.0)">26.10</text>
<line x1="948.0" y1="516.0" x2="948.0" y2="519.0" stroke="#999"/>
<text x="948.0" y="531.0" text-anchor="end" fill="#666" transform="rotate(-50 948.0 531.0)">26.11</text>
<line x1="988.0" y1="516.0" x2="988.0" y2="519.0" stroke="#999"/>
<text x="988.0" y="531.0" text-anchor="end" fill="#666" transform="rotate(-50 988.0 531.0)">26.12</text>
<line x1="1028.0" y1="516.0" x2="1028.0" y2="519.0" stroke="#999"/>
<text x="1028.0" y="531.0" text-anchor="end" fill="#666" transform="rotate(-50 1028.0 531.0)">26.13</text>
<line x1="1068.0" y1="516.0" x2="1068.0" y2="519.0" stroke="#999"/>
<text x="1068.0" y="531.0" text-anchor="end" fill="#666" transform="rotate(-50 1068.0 531.0)">26.13.1</text>
<line x1="1108.0" y1="516.0" x2="1108.0" y2="519.0" stroke="#999"/>
<text x="1108.0" y="531.0" text-anchor="end" fill="#666" transform="rotate(-50 1108.0 531.0)">26.14</text>
<polygon points="68.0,513.6 108.0,513.3 148.0,513.3 188.0,513.5 228.0,513.4 268.0,513.5 308.0,513.6 348.0,513.5 388.0,513.5 428.0,513.5 468.0,513.5 508.0,513.6 548.0,513.5 588.0,513.5 628.0,513.5 668.0,513.5 708.0,513.5 748.0,513.4 788.0,513.3 828.0,513.3 868.0,513.4 908.0,513.4 948.0,512.9 988.0,513.5 1028.0,513.4 1068.0,513.4 1108.0,513.7 1108.0,516.0 1068.0,516.0 1028.0,516.0 988.0,516.0 948.0,516.0 908.0,516.0 868.0,516.0 828.0,516.0 788.0,516.0 748.0,516.0 708.0,516.0 668.0,516.0 628.0,516.0 588.0,516.0 548.0,516.0 508.0,516.0 468.0,516.0 428.0,516.0 388.0,516.0 348.0,516.0 308.0,516.0 268.0,516.0 228.0,516.0 188.0,516.0 148.0,516.0 108.0,516.0 68.0,516.0" fill="#c7e9c0" fill-opacity="0.9" stroke="#fff" stroke-width="0.4"><title>mdl_dxr — parseTranslationUnit</title></polygon>
<polygon points="68.0,442.7 108.0,441.4 148.0,427.5 188.0,430.4 228.0,427.5 268.0,430.5 308.0,431.9 348.0,432.4 388.0,431.7 428.0,431.8 468.0,432.1 508.0,432.2 548.0,431.0 588.0,430.9 628.0,429.8 668.0,429.0 708.0,428.4 748.0,426.6 788.0,372.3 828.0,402.4 868.0,403.3 908.0,395.8 948.0,437.3 988.0,458.9 1028.0,457.8 1068.0,458.5 1108.0,461.6 1108.0,513.7 1068.0,513.4 1028.0,513.4 988.0,513.5 948.0,512.9 908.0,513.4 868.0,513.4 828.0,513.3 788.0,513.3 748.0,513.4 708.0,513.5 668.0,513.5 628.0,513.5 588.0,513.5 548.0,513.5 508.0,513.6 468.0,513.5 428.0,513.5 388.0,513.5 348.0,513.5 308.0,513.6 268.0,513.5 228.0,513.4 188.0,513.5 148.0,513.3 108.0,513.3 68.0,513.6" fill="#41ab5d" fill-opacity="0.9" stroke="#fff" stroke-width="0.4"><title>mdl_dxr — SemanticChecking</title></polygon>
<polygon points="68.0,442.3 108.0,440.8 148.0,426.9 188.0,429.8 228.0,426.9 268.0,429.9 308.0,431.3 348.0,431.8 388.0,431.1 428.0,431.2 468.0,431.5 508.0,431.6 548.0,430.4 588.0,430.3 628.0,429.1 668.0,428.4 708.0,427.8 748.0,426.0 788.0,368.2 828.0,398.9 868.0,399.9 908.0,392.0 948.0,436.4 988.0,458.2 1028.0,457.1 1068.0,457.8 1108.0,461.0 1108.0,461.6 1068.0,458.5 1028.0,457.8 988.0,458.9 948.0,437.3 908.0,395.8 868.0,403.3 828.0,402.4 788.0,372.3 748.0,426.6 708.0,428.4 668.0,429.0 628.0,429.8 588.0,430.9 548.0,431.0 508.0,432.2 468.0,432.1 428.0,431.8 388.0,431.7 348.0,432.4 308.0,431.9 268.0,430.5 228.0,427.5 188.0,430.4 148.0,427.5 108.0,441.4 68.0,442.7" fill="#006d2c" fill-opacity="0.9" stroke="#fff" stroke-width="0.4"><title>mdl_dxr — generateIR</title></polygon>
<polygon points="68.0,434.9 108.0,433.3 148.0,418.9 188.0,422.1 228.0,419.0 268.0,422.3 308.0,423.8 348.0,423.7 388.0,423.0 428.0,423.1 468.0,423.4 508.0,423.6 548.0,418.9 588.0,418.4 628.0,417.4 668.0,416.7 708.0,416.1 748.0,413.7 788.0,340.5 828.0,374.7 868.0,375.5 908.0,367.2 948.0,415.7 988.0,439.9 1028.0,438.8 1068.0,441.0 1108.0,447.0 1108.0,461.0 1068.0,457.8 1028.0,457.1 988.0,458.2 948.0,436.4 908.0,392.0 868.0,399.9 828.0,398.9 788.0,368.2 748.0,426.0 708.0,427.8 668.0,428.4 628.0,429.1 588.0,430.3 548.0,430.4 508.0,431.6 468.0,431.5 428.0,431.2 388.0,431.1 348.0,431.8 308.0,431.3 268.0,429.9 228.0,426.9 188.0,429.8 148.0,426.9 108.0,440.8 68.0,442.3" fill="#6baed6" fill-opacity="0.9" stroke="#fff" stroke-width="0.4"><title>mdl_dxr — specializeModule</title></polygon>
<polygon points="68.0,409.5 108.0,407.4 148.0,390.7 188.0,396.1 228.0,392.3 268.0,396.3 308.0,396.7 348.0,396.2 388.0,392.7 428.0,393.0 468.0,392.8 508.0,393.2 548.0,391.4 588.0,390.5 628.0,389.4 668.0,388.6 708.0,388.1 748.0,385.5 788.0,298.8 828.0,336.1 868.0,337.2 908.0,327.3 948.0,376.8 988.0,405.6 1028.0,407.2 1068.0,414.7 1108.0,423.8 1108.0,447.0 1068.0,441.0 1028.0,438.8 988.0,439.9 948.0,415.7 908.0,367.2 868.0,375.5 828.0,374.7 788.0,340.5 748.0,413.7 708.0,416.1 668.0,416.7 628.0,417.4 588.0,418.4 548.0,418.9 508.0,423.6 468.0,423.4 428.0,423.1 388.0,423.0 348.0,423.7 308.0,423.8 268.0,422.3 228.0,419.0 188.0,422.1 148.0,418.9 108.0,433.3 68.0,434.9" fill="#2171b5" fill-opacity="0.9" stroke="#fff" stroke-width="0.4"><title>mdl_dxr — simplifyIR</title></polygon>
<polygon points="68.0,407.2 108.0,405.0 148.0,388.0 188.0,393.6 228.0,389.8 268.0,393.8 308.0,394.2 348.0,393.7 388.0,390.2 428.0,390.4 468.0,390.4 508.0,390.7 548.0,388.9 588.0,387.9 628.0,386.8 668.0,386.1 708.0,385.5 748.0,382.9 788.0,291.2 828.0,329.1 868.0,331.2 908.0,320.3 948.0,373.7 988.0,403.0 1028.0,404.6 1068.0,412.1 1108.0,421.9 1108.0,423.8 1068.0,414.7 1028.0,407.2 988.0,405.6 948.0,376.8 908.0,327.3 868.0,337.2 828.0,336.1 788.0,298.8 748.0,385.5 708.0,388.1 668.0,388.6 628.0,389.4 588.0,390.5 548.0,391.4 508.0,393.2 468.0,392.8 428.0,393.0 388.0,392.7 348.0,396.2 308.0,396.7 268.0,396.3 228.0,392.3 188.0,396.1 148.0,390.7 108.0,407.4 68.0,409.5" fill="#08306b" fill-opacity="0.9" stroke="#fff" stroke-width="0.4"><title>mdl_dxr — linkIR</title></polygon>
<polygon points="68.0,407.2 108.0,404.9 148.0,387.9 188.0,393.5 228.0,389.7 268.0,393.7 308.0,394.1 348.0,393.5 388.0,390.1 428.0,390.3 468.0,390.3 508.0,390.6 548.0,388.8 588.0,387.8 628.0,386.6 668.0,385.9 708.0,385.4 748.0,382.7 788.0,291.1 828.0,329.1 868.0,331.1 908.0,320.2 948.0,373.7 988.0,403.0 1028.0,404.5 1068.0,411.9 1108.0,421.8 1108.0,421.9 1068.0,412.1 1028.0,404.6 988.0,403.0 948.0,373.7 908.0,320.3 868.0,331.2 828.0,329.1 788.0,291.2 748.0,382.9 708.0,385.5 668.0,386.1 628.0,386.8 588.0,387.9 548.0,388.9 508.0,390.7 468.0,390.4 428.0,390.4 388.0,390.2 348.0,393.7 308.0,394.2 268.0,393.8 228.0,389.8 188.0,393.6 148.0,388.0 108.0,405.0 68.0,407.2" fill="#9e9ac8" fill-opacity="0.9" stroke="#fff" stroke-width="0.4"><title>mdl_dxr — unrollLoopsInModule</title></polygon>
<polygon points="68.0,395.5 108.0,392.8 148.0,373.8 188.0,381.1 228.0,377.3 268.0,381.6 308.0,387.5 348.0,387.0 388.0,383.3 428.0,383.4 468.0,383.4 508.0,383.7 548.0,381.9 588.0,380.7 628.0,379.6 668.0,378.9 708.0,378.4 748.0,375.8 788.0,283.3 828.0,322.0 868.0,324.0 908.0,312.6 948.0,365.9 988.0,396.0 1028.0,397.5 1068.0,410.1 1108.0,420.0 1108.0,421.8 1068.0,411.9 1028.0,404.5 988.0,403.0 948.0,373.7 908.0,320.2 868.0,331.1 828.0,329.1 788.0,291.1 748.0,382.7 708.0,385.4 668.0,385.9 628.0,386.6 588.0,387.8 548.0,388.8 508.0,390.6 468.0,390.3 428.0,390.3 388.0,390.1 348.0,393.5 308.0,394.1 268.0,393.7 228.0,389.7 188.0,393.5 148.0,387.9 108.0,404.9 68.0,407.2" fill="#807dba" fill-opacity="0.9" stroke="#fff" stroke-width="0.4"><title>mdl_dxr — legalizeResourceTypes</title></polygon>
<polygon points="68.0,383.9 108.0,380.7 148.0,359.6 188.0,368.7 228.0,364.5 268.0,369.5 308.0,380.9 348.0,380.4 388.0,376.4 428.0,376.5 468.0,376.4 508.0,376.8 548.0,374.9 588.0,373.5 628.0,372.5 668.0,371.8 708.0,371.4 748.0,368.8 788.0,275.6 828.0,314.8 868.0,316.7 908.0,305.2 948.0,358.1 988.0,388.9 1028.0,390.4 1068.0,408.1 1108.0,418.0 1108.0,420.0 1068.0,410.1 1028.0,397.5 988.0,396.0 948.0,365.9 908.0,312.6 868.0,324.0 828.0,322.0 788.0,283.3 748.0,375.8 708.0,378.4 668.0,378.9 628.0,379.6 588.0,380.7 548.0,381.9 508.0,383.7 468.0,383.4 428.0,383.4 388.0,383.3 348.0,387.0 308.0,387.5 268.0,381.6 228.0,377.3 188.0,381.1 148.0,373.8 108.0,392.8 68.0,395.5" fill="#6a51a3" fill-opacity="0.9" stroke="#fff" stroke-width="0.4"><title>mdl_dxr — legalizeExistentialTypeLayout</title></polygon>
<polygon points="68.0,383.5 108.0,380.1 148.0,359.0 188.0,368.1 228.0,363.8 268.0,368.9 308.0,380.3 348.0,379.8 388.0,375.8 428.0,375.9 468.0,375.8 508.0,376.2 548.0,374.3 588.0,372.9 628.0,371.9 668.0,371.3 708.0,370.8 748.0,368.2 788.0,275.1 828.0,314.3 868.0,316.2 908.0,304.8 948.0,357.6 988.0,388.4 1028.0,389.7 1068.0,407.5 1108.0,417.5 1108.0,418.0 1068.0,408.1 1028.0,390.4 988.0,388.9 948.0,358.1 908.0,305.2 868.0,316.7 828.0,314.8 788.0,275.6 748.0,368.8 708.0,371.4 668.0,371.8 628.0,372.5 588.0,373.5 548.0,374.9 508.0,376.8 468.0,376.4 428.0,376.5 388.0,376.4 348.0,380.4 308.0,380.9 268.0,369.5 228.0,364.5 188.0,368.7 148.0,359.6 108.0,380.7 68.0,383.9" fill="#bcbddc" fill-opacity="0.9" stroke="#fff" stroke-width="0.4"><title>mdl_dxr — performMandatoryEarlyInlining</title></polygon>
<polygon points="68.0,383.0 108.0,379.7 148.0,358.5 188.0,367.7 228.0,363.4 268.0,368.5 308.0,379.8 348.0,379.4 388.0,375.3 428.0,375.5 468.0,375.4 508.0,375.8 548.0,373.8 588.0,372.5 628.0,371.3 668.0,370.6 708.0,370.2 748.0,367.6 788.0,274.3 828.0,313.7 868.0,315.6 908.0,304.0 948.0,356.9 988.0,387.8 1028.0,389.1 1068.0,406.8 1108.0,417.0 1108.0,417.5 1068.0,407.5 1028.0,389.7 988.0,388.4 948.0,357.6 908.0,304.8 868.0,316.2 828.0,314.3 788.0,275.1 748.0,368.2 708.0,370.8 668.0,371.3 628.0,371.9 588.0,372.9 548.0,374.3 508.0,376.2 468.0,375.8 428.0,375.9 388.0,375.8 348.0,379.8 308.0,380.3 268.0,368.9 228.0,363.8 188.0,368.1 148.0,359.0 108.0,380.1 68.0,383.5" fill="#dadaeb" fill-opacity="0.9" stroke="#fff" stroke-width="0.4"><title>mdl_dxr — performForceInlining</title></polygon>
<polygon points="68.0,364.2 108.0,360.9 148.0,338.1 188.0,347.7 228.0,341.9 268.0,348.6 308.0,355.2 348.0,354.3 388.0,352.7 428.0,352.5 468.0,351.4 508.0,352.2 548.0,349.6 588.0,347.6 628.0,346.3 668.0,345.4 708.0,344.8 748.0,341.6 788.0,233.5 828.0,277.6 868.0,279.2 908.0,266.6 948.0,324.4 988.0,358.7 1028.0,363.9 1068.0,386.6 1108.0,401.5 1108.0,417.0 1068.0,406.8 1028.0,389.1 988.0,387.8 948.0,356.9 908.0,304.0 868.0,315.6 828.0,313.7 788.0,274.3 748.0,367.6 708.0,370.2 668.0,370.6 628.0,371.3 588.0,372.5 548.0,373.8 508.0,375.8 468.0,375.4 428.0,375.5 388.0,375.3 348.0,379.4 308.0,379.8 268.0,368.5 228.0,363.4 188.0,367.7 148.0,358.5 108.0,379.7 68.0,383.0" fill="#4a1486" fill-opacity="0.9" stroke="#fff" stroke-width="0.4"><title>mdl_dxr — linkAndOptimizeIR (self)</title></polygon>
<polygon points="68.0,232.0 108.0,226.2 148.0,142.6 188.0,193.6 228.0,171.9 268.0,250.8 308.0,258.6 348.0,255.6 388.0,254.2 428.0,253.4 468.0,251.8 508.0,253.6 548.0,251.7 588.0,250.2 628.0,249.8 668.0,246.7 708.0,245.7 748.0,243.0 788.0,109.1 828.0,178.2 868.0,178.9 908.0,157.6 948.0,192.3 988.0,258.8 1028.0,268.7 1068.0,294.2 1108.0,310.7 1108.0,401.5 1068.0,386.6 1028.0,363.9 988.0,358.7 948.0,324.4 908.0,266.6 868.0,279.2 828.0,277.6 788.0,233.5 748.0,341.6 708.0,344.8 668.0,345.4 628.0,346.3 588.0,347.6 548.0,349.6 508.0,352.2 468.0,351.4 428.0,352.5 388.0,352.7 348.0,354.3 308.0,355.2 268.0,348.6 228.0,341.9 188.0,347.7 148.0,338.1 108.0,360.9 68.0,364.2" fill="#e6550d" fill-opacity="0.9" stroke="#fff" stroke-width="0.4"><title>mdl_dxr — generateOutput (self)</title></polygon>
<polygon points="68.0,232.0 108.0,226.2 148.0,142.3 188.0,193.4 228.0,171.7 268.0,250.5 308.0,258.2 348.0,255.6 388.0,253.5 428.0,253.3 468.0,250.6 508.0,253.5 548.0,251.4 588.0,249.7 628.0,249.3 668.0,245.2 708.0,244.7 748.0,243.0 788.0,108.6 828.0,175.5 868.0,178.9 908.0,149.2 948.0,176.3 988.0,258.6 1028.0,268.1 1068.0,293.8 1108.0,310.7 1108.0,310.7 1068.0,294.2 1028.0,268.7 988.0,258.8 948.0,192.3 908.0,157.6 868.0,178.9 828.0,178.2 788.0,109.1 748.0,243.0 708.0,245.7 668.0,246.7 628.0,249.8 588.0,250.2 548.0,251.7 508.0,253.6 468.0,251.8 428.0,253.4 388.0,254.2 348.0,255.6 308.0,258.6 268.0,250.8 228.0,171.9 188.0,193.6 148.0,142.6 108.0,226.2 68.0,232.0" fill="#969696" fill-opacity="0.9" stroke="#fff" stroke-width="0.4"><title>mdl_dxr — compileInner (self)</title></polygon>
<text x="12" y="578" fill="#666" font-weight="600">phase buckets</text>
<rect x="12" y="586" width="12" height="12" fill="#c7e9c0"/>
<text x="28" y="596" fill="#222">parseTranslationUnit</text>
<rect x="289" y="586" width="12" height="12" fill="#41ab5d"/>
<text x="305" y="596" fill="#222">SemanticChecking</text>
<rect x="566" y="586" width="12" height="12" fill="#006d2c"/>
<text x="582" y="596" fill="#222">generateIR</text>
<rect x="843" y="586" width="12" height="12" fill="#74c476"/>
<text x="859" y="596" fill="#222">frontEndExecute (self)</text>
<rect x="12" y="604" width="12" height="12" fill="#6baed6"/>
<text x="28" y="614" fill="#222">specializeModule</text>
<rect x="289" y="604" width="12" height="12" fill="#2171b5"/>
<text x="305" y="614" fill="#222">simplifyIR</text>
<rect x="566" y="604" width="12" height="12" fill="#08306b"/>
<text x="582" y="614" fill="#222">linkIR</text>
<rect x="843" y="604" width="12" height="12" fill="#9e9ac8"/>
<text x="859" y="614" fill="#222">unrollLoopsInModule</text>
<rect x="12" y="622" width="12" height="12" fill="#807dba"/>
<text x="28" y="632" fill="#222">legalizeResourceTypes</text>
<rect x="289" y="622" width="12" height="12" fill="#6a51a3"/>
<text x="305" y="632" fill="#222">legalizeExistentialTypeLayout</text>
<rect x="566" y="622" width="12" height="12" fill="#bcbddc"/>
<text x="582" y="632" fill="#222">performMandatoryEarlyInlining</text>
<rect x="843" y="622" width="12" height="12" fill="#dadaeb"/>
<text x="859" y="632" fill="#222">performForceInlining</text>
<rect x="12" y="640" width="12" height="12" fill="#4a1486"/>
<text x="28" y="650" fill="#222">linkAndOptimizeIR (self)</text>
<rect x="289" y="640" width="12" height="12" fill="#fd8d3c"/>
<text x="305" y="650" fill="#222">emitEntryPointsSourceFromIR</text>
<rect x="566" y="640" width="12" height="12" fill="#e6550d"/>
<text x="582" y="650" fill="#222">generateOutput (self)</text>
<rect x="843" y="640" width="12" height="12" fill="#969696"/>
<text x="859" y="650" fill="#222">compileInner (self)</text>
</svg>