<svg xmlns="http://www.w3.org/2000/svg" xmlns:xlink="http://www.w3.org/1999/xlink" width="1132" height="680" viewBox="0 0 1132 680" preserveAspectRatio="xMidYMid meet" font-family="sans-serif" font-size="13">
<rect width="1132" height="680" fill="white"/>
<text x="12" y="30" font-size="20" font-weight="bold">mdl_dxr — Daily tip-of-tree (last 30 days) (median ms)</text>
<text x="68" y="60" font-size="15" font-weight="600" fill="#1a1a1a">mdl_dxr<tspan fill="#888" font-weight="400" text-decoration="none">  0.80×</tspan></text>
<line x1="68.0" y1="516.0" x2="1108.0" y2="516.0" stroke="#eee"/>
<text x="64.0" y="519.0" text-anchor="end" fill="#999">0.0</text>
<line x1="68.0" y1="296.0" x2="1108.0" y2="296.0" stroke="#eee"/>
<text x="64.0" y="299.0" text-anchor="end" fill="#999">715</text>
<line x1="68.0" y1="76.0" x2="1108.0" y2="76.0" stroke="#eee"/>
<text x="64.0" y="79.0" text-anchor="end" fill="#999">1430</text>
<line x1="68.0" y1="76.0" x2="68.0" y2="516.0" stroke="#333"/>
<line x1="68.0" y1="516.0" x2="1108.0" y2="516.0" stroke="#333"/>
<line x1="68.0" y1="516.0" x2="68.0" y2="519.0" stroke="#999"/>
<text x="68.0" y="531.0" text-anchor="end" fill="#e8731a" transform="rotate(-50 68.0 531.0)">06-25</text>
<line x1="117.5" y1="516.0" x2="117.5" y2="519.0" stroke="#999"/>
<text x="117.5" y="531.0" text-anchor="end" fill="#e8731a" transform="rotate(-50 117.5 531.0)">06-26</text>
<line x1="167.0" y1="516.0" x2="167.0" y2="519.0" stroke="#999"/>
<text x="167.0" y="531.0" text-anchor="end" fill="#e8731a" transform="rotate(-50 167.0 531.0)">06-28</text>
<line x1="216.6" y1="516.0" x2="216.6" y2="519.0" stroke="#999"/>
<text x="216.6" y="531.0" text-anchor="end" fill="#e8731a" transform="rotate(-50 216.6 531.0)">07-01</text>
<line x1="266.1" y1="516.0" x2="266.1" y2="519.0" stroke="#999"/>
<text x="266.1" y="531.0" text-anchor="end" fill="#e8731a" transform="rotate(-50 266.1 531.0)">07-02</text>
<line x1="315.6" y1="516.0" x2="315.6" y2="519.0" stroke="#999"/>
<text x="315.6" y="531.0" text-anchor="end" fill="#e8731a" transform="rotate(-50 315.6 531.0)">07-03</text>
<line x1="365.1" y1="516.0" x2="365.1" y2="519.0" stroke="#999"/>
<text x="365.1" y="531.0" text-anchor="end" fill="#e8731a" transform="rotate(-50 365.1 531.0)">07-06</text>
<line x1="414.7" y1="516.0" x2="414.7" y2="519.0" stroke="#999"/>
<text x="414.7" y="531.0" text-anchor="end" fill="#e8731a" transform="rotate(-50 414.7 531.0)">07-07</text>
<line x1="464.2" y1="516.0" x2="464.2" y2="519.0" stroke="#999"/>
<text x="464.2" y="531.0" text-anchor="end" fill="#e8731a" transform="rotate(-50 464.2 531.0)">07-08</text>
<line x1="513.7" y1="516.0" x2="513.7" y2="519.0" stroke="#999"/>
<text x="513.7" y="531.0" text-anchor="end" fill="#e8731a" transform="rotate(-50 513.7 531.0)">07-09</text>
<line x1="563.2" y1="516.0" x2="563.2" y2="519.0" stroke="#999"/>
<text x="563.2" y="531.0" text-anchor="end" fill="#e8731a" transform="rotate(-50 563.2 531.0)">07-10</text>
<line x1="612.8" y1="516.0" x2="612.8" y2="519.0" stroke="#999"/>
<text x="612.8" y="531.0" text-anchor="end" fill="#e8731a" transform="rotate(-50 612.8 531.0)">07-11</text>
<line x1="662.3" y1="516.0" x2="662.3" y2="519.0" stroke="#999"/>
<text x="662.3" y="531.0" text-anchor="end" fill="#e8731a" transform="rotate(-50 662.3 531.0)">07-14</text>
<line x1="711.8" y1="516.0" x2="711.8" y2="519.0" stroke="#999"/>
<text x="711.8" y="531.0" text-anchor="end" fill="#e8731a" transform="rotate(-50 711.8 531.0)">07-15</text>
<line x1="761.3" y1="516.0" x2="761.3" y2="519.0" stroke="#999"/>
<text x="761.3" y="531.0" text-anchor="end" fill="#e8731a" transform="rotate(-50 761.3 531.0)">07-15</text>
<line x1="810.9" y1="516.0" x2="810.9" y2="519.0" stroke="#999"/>
<text x="810.9" y="531.0" text-anchor="end" fill="#e8731a" transform="rotate(-50 810.9 531.0)">07-16</text>
<line x1="860.4" y1="516.0" x2="860.4" y2="519.0" stroke="#999"/>
<text x="860.4" y="531.0" text-anchor="end" fill="#e8731a" transform="rotate(-50 860.4 531.0)">07-17</text>
<line x1="909.9" y1="516.0" x2="909.9" y2="519.0" stroke="#999"/>
<text x="909.9" y="531.0" text-anchor="end" fill="#e8731a" transform="rotate(-50 909.9 531.0)">07-18</text>
<line x1="959.4" y1="516.0" x2="959.4" y2="519.0" stroke="#999"/>
<text x="959.4" y="531.0" text-anchor="end" fill="#e8731a" transform="rotate(-50 959.4 531.0)">07-19</text>
<line x1="1009.0" y1="516.0" x2="1009.0" y2="519.0" stroke="#999"/>
<text x="1009.0" y="531.0" text-anchor="end" fill="#e8731a" transform="rotate(-50 1009.0 531.0)">07-20</text>
<line x1="1058.5" y1="516.0" x2="1058.5" y2="519.0" stroke="#999"/>
<text x="1058.5" y="531.0" text-anchor="end" fill="#e8731a" transform="rotate(-50 1058.5 531.0)">07-21</text>
<line x1="1108.0" y1="516.0" x2="1108.0" y2="519.0" stroke="#999"/>
<text x="1108.0" y="531.0" text-anchor="end" fill="#e8731a" transform="rotate(-50 1108.0 531.0)">07-22</text>
<polygon points="68.0,511.9 117.5,511.9 167.0,512.1 216.6,512.1 266.1,512.0 315.6,511.9 365.1,511.9 414.7,512.3 464.2,512.4 513.7,512.3 563.2,512.3 612.8,512.2 662.3,512.3 711.8,512.6 761.3,512.6 810.9,512.5 860.4,512.6 909.9,512.7 959.4,512.8 1009.0,512.7 1058.5,512.8 1108.0,512.8 1108.0,516.0 1058.5,516.0 1009.0,516.0 959.4,516.0 909.9,516.0 860.4,516.0 810.9,516.0 761.3,516.0 711.8,516.0 662.3,516.0 612.8,516.0 563.2,516.0 513.7,516.0 464.2,516.0 414.7,516.0 365.1,516.0 315.6,516.0 266.1,516.0 216.6,516.0 167.0,516.0 117.5,516.0 68.0,516.0" fill="#c7e9c0" fill-opacity="0.9" stroke="#fff" stroke-width="0.4"><title>mdl_dxr — parseTranslationUnit</title></polygon>
<polygon points="68.0,425.7 117.5,424.2 167.0,427.1 216.6,426.3 266.1,424.8 315.6,423.5 365.1,424.8 414.7,425.9 464.2,426.0 513.7,425.0 563.2,425.6 612.8,423.2 662.3,424.0 711.8,429.1 761.3,430.4 810.9,421.7 860.4,419.4 909.9,431.0 959.4,430.1 1009.0,430.4 1058.5,429.9 1108.0,430.8 1108.0,512.8 1058.5,512.8 1009.0,512.7 959.4,512.8 909.9,512.7 860.4,512.6 810.9,512.5 761.3,512.6 711.8,512.6 662.3,512.3 612.8,512.2 563.2,512.3 513.7,512.3 464.2,512.4 414.7,512.3 365.1,511.9 315.6,511.9 266.1,512.0 216.6,512.1 167.0,512.1 117.5,511.9 68.0,511.9" fill="#41ab5d" fill-opacity="0.9" stroke="#fff" stroke-width="0.4"><title>mdl_dxr — SemanticChecking</title></polygon>
<polygon points="68.0,424.6 117.5,423.1 167.0,426.0 216.6,425.2 266.1,423.7 315.6,422.3 365.1,423.6 414.7,424.8 464.2,424.9 513.7,423.8 563.2,424.5 612.8,422.1 662.3,422.8 711.8,427.9 761.3,429.3 810.9,420.5 860.4,418.2 909.9,430.0 959.4,429.2 1009.0,429.5 1058.5,428.9 1108.0,429.9 1108.0,430.8 1058.5,429.9 1009.0,430.4 959.4,430.1 909.9,431.0 860.4,419.4 810.9,421.7 761.3,430.4 711.8,429.1 662.3,424.0 612.8,423.2 563.2,425.6 513.7,425.0 464.2,426.0 414.7,425.9 365.1,424.8 315.6,423.5 266.1,424.8 216.6,426.3 167.0,427.1 117.5,424.2 68.0,425.7" fill="#006d2c" fill-opacity="0.9" stroke="#fff" stroke-width="0.4"><title>mdl_dxr — generateIR</title></polygon>
<polygon points="68.0,392.6 117.5,390.6 167.0,394.0 216.6,393.2 266.1,391.4 315.6,389.7 365.1,391.6 414.7,393.4 464.2,393.6 513.7,392.4 563.2,395.5 612.8,393.9 662.3,394.5 711.8,401.9 761.3,403.3 810.9,394.7 860.4,392.0 909.9,405.6 959.4,404.5 1009.0,405.0 1058.5,404.2 1108.0,405.2 1108.0,429.9 1058.5,428.9 1009.0,429.5 959.4,429.2 909.9,430.0 860.4,418.2 810.9,420.5 761.3,429.3 711.8,427.9 662.3,422.8 612.8,422.1 563.2,424.5 513.7,423.8 464.2,424.9 414.7,424.8 365.1,423.6 315.6,422.3 266.1,423.7 216.6,425.2 167.0,426.0 117.5,423.1 68.0,424.6" fill="#6baed6" fill-opacity="0.9" stroke="#fff" stroke-width="0.4"><title>mdl_dxr — specializeModule</title></polygon>
<polygon points="68.0,338.6 117.5,335.8 167.0,340.3 216.6,339.5 266.1,340.5 315.6,339.0 365.1,341.4 414.7,343.3 464.2,343.6 513.7,342.7 563.2,353.5 612.8,351.6 662.3,352.1 711.8,360.9 761.3,362.1 810.9,354.0 860.4,351.0 909.9,368.6 959.4,367.1 1009.0,367.6 1058.5,366.3 1108.0,367.7 1108.0,405.2 1058.5,404.2 1009.0,405.0 959.4,404.5 909.9,405.6 860.4,392.0 810.9,394.7 761.3,403.3 711.8,401.9 662.3,394.5 612.8,393.9 563.2,395.5 513.7,392.4 464.2,393.6 414.7,393.4 365.1,391.6 315.6,389.7 266.1,391.4 216.6,393.2 167.0,394.0 117.5,390.6 68.0,392.6" fill="#2171b5" fill-opacity="0.9" stroke="#fff" stroke-width="0.4"><title>mdl_dxr — simplifyIR</title></polygon>
<polygon points="68.0,334.8 117.5,331.7 167.0,336.5 216.6,335.5 266.1,336.5 315.6,335.0 365.1,337.5 414.7,339.5 464.2,339.7 513.7,338.8 563.2,349.6 612.8,347.7 662.3,348.3 711.8,357.1 761.3,358.3 810.9,350.2 860.4,347.1 909.9,365.5 959.4,364.2 1009.0,364.5 1058.5,363.2 1108.0,364.6 1108.0,367.7 1058.5,366.3 1009.0,367.6 959.4,367.1 909.9,368.6 860.4,351.0 810.9,354.0 761.3,362.1 711.8,360.9 662.3,352.1 612.8,351.6 563.2,353.5 513.7,342.7 464.2,343.6 414.7,343.3 365.1,341.4 315.6,339.0 266.1,340.5 216.6,339.5 167.0,340.3 117.5,335.8 68.0,338.6" fill="#08306b" fill-opacity="0.9" stroke="#fff" stroke-width="0.4"><title>mdl_dxr — linkIR</title></polygon>
<polygon points="68.0,334.7 117.5,331.6 167.0,336.4 216.6,335.4 266.1,336.4 315.6,334.9 365.1,337.4 414.7,339.3 464.2,339.6 513.7,338.6 563.2,349.5 612.8,347.5 662.3,348.1 711.8,356.9 761.3,358.2 810.9,350.1 860.4,346.9 909.9,365.3 959.4,364.0 1009.0,364.4 1058.5,363.0 1108.0,364.5 1108.0,364.6 1058.5,363.2 1009.0,364.5 959.4,364.2 909.9,365.5 860.4,347.1 810.9,350.2 761.3,358.3 711.8,357.1 662.3,348.3 612.8,347.7 563.2,349.6 513.7,338.8 464.2,339.7 414.7,339.5 365.1,337.5 315.6,335.0 266.1,336.5 216.6,335.5 167.0,336.5 117.5,331.7 68.0,334.8" fill="#9e9ac8" fill-opacity="0.9" stroke="#fff" stroke-width="0.4"><title>mdl_dxr — unrollLoopsInModule</title></polygon>
<polygon points="68.0,324.0 117.5,320.9 167.0,325.8 216.6,324.6 266.1,325.8 315.6,324.3 365.1,326.8 414.7,328.7 464.2,329.0 513.7,328.1 563.2,346.7 612.8,344.7 662.3,345.4 711.8,354.2 761.3,355.4 810.9,347.4 860.4,344.2 909.9,362.7 959.4,361.3 1009.0,361.7 1058.5,360.3 1108.0,361.7 1108.0,364.5 1058.5,363.0 1009.0,364.4 959.4,364.0 909.9,365.3 860.4,346.9 810.9,350.1 761.3,358.2 711.8,356.9 662.3,348.1 612.8,347.5 563.2,349.5 513.7,338.6 464.2,339.6 414.7,339.3 365.1,337.4 315.6,334.9 266.1,336.4 216.6,335.4 167.0,336.4 117.5,331.6 68.0,334.7" fill="#807dba" fill-opacity="0.9" stroke="#fff" stroke-width="0.4"><title>mdl_dxr — legalizeResourceTypes</title></polygon>
<polygon points="68.0,313.1 117.5,310.1 167.0,315.1 216.6,313.8 266.1,315.3 315.6,313.6 365.1,316.2 414.7,318.0 464.2,318.3 513.7,317.3 563.2,343.7 612.8,341.7 662.3,342.4 711.8,351.2 761.3,352.4 810.9,344.4 860.4,341.2 909.9,359.7 959.4,358.1 1009.0,358.6 1058.5,357.2 1108.0,358.7 1108.0,361.7 1058.5,360.3 1009.0,361.7 959.4,361.3 909.9,362.7 860.4,344.2 810.9,347.4 761.3,355.4 711.8,354.2 662.3,345.4 612.8,344.7 563.2,346.7 513.7,328.1 464.2,329.0 414.7,328.7 365.1,326.8 315.6,324.3 266.1,325.8 216.6,324.6 167.0,325.8 117.5,320.9 68.0,324.0" fill="#6a51a3" fill-opacity="0.9" stroke="#fff" stroke-width="0.4"><title>mdl_dxr — legalizeExistentialTypeLayout</title></polygon>
<polygon points="68.0,312.4 117.5,309.3 167.0,314.4 216.6,313.0 266.1,314.5 315.6,312.9 365.1,315.4 414.7,317.0 464.2,317.4 513.7,316.4 563.2,342.8 612.8,340.8 662.3,341.4 711.8,350.2 761.3,351.5 810.9,343.4 860.4,340.2 909.9,358.9 959.4,357.3 1009.0,357.8 1058.5,356.4 1108.0,357.9 1108.0,358.7 1058.5,357.2 1009.0,358.6 959.4,358.1 909.9,359.7 860.4,341.2 810.9,344.4 761.3,352.4 711.8,351.2 662.3,342.4 612.8,341.7 563.2,343.7 513.7,317.3 464.2,318.3 414.7,318.0 365.1,316.2 315.6,313.6 266.1,315.3 216.6,313.8 167.0,315.1 117.5,310.1 68.0,313.1" fill="#bcbddc" fill-opacity="0.9" stroke="#fff" stroke-width="0.4"><title>mdl_dxr — performMandatoryEarlyInlining</title></polygon>
<polygon points="68.0,311.4 117.5,308.4 167.0,313.5 216.6,312.1 266.1,313.6 315.6,311.9 365.1,314.5 414.7,316.1 464.2,316.4 513.7,315.5 563.2,341.9 612.8,339.8 662.3,340.5 711.8,349.3 761.3,350.6 810.9,342.5 860.4,339.3 909.9,358.1 959.4,356.6 1009.0,357.1 1058.5,355.7 1108.0,357.2 1108.0,357.9 1058.5,356.4 1009.0,357.8 959.4,357.3 909.9,358.9 860.4,340.2 810.9,343.4 761.3,351.5 711.8,350.2 662.3,341.4 612.8,340.8 563.2,342.8 513.7,316.4 464.2,317.4 414.7,317.0 365.1,315.4 315.6,312.9 266.1,314.5 216.6,313.0 167.0,314.4 117.5,309.3 68.0,312.4" fill="#dadaeb" fill-opacity="0.9" stroke="#fff" stroke-width="0.4"><title>mdl_dxr — performForceInlining</title></polygon>
<polygon points="68.0,264.6 117.5,260.3 167.0,266.9 216.6,265.7 266.1,273.0 315.6,271.8 365.1,273.8 414.7,275.1 464.2,275.4 513.7,275.2 563.2,307.9 612.8,306.3 662.3,307.6 711.8,321.2 761.3,322.5 810.9,314.8 860.4,310.4 909.9,332.3 959.4,329.6 1009.0,331.2 1058.5,329.6 1108.0,330.5 1108.0,357.2 1058.5,355.7 1009.0,357.1 959.4,356.6 909.9,358.1 860.4,339.3 810.9,342.5 761.3,350.6 711.8,349.3 662.3,340.5 612.8,339.8 563.2,341.9 513.7,315.5 464.2,316.4 414.7,316.1 365.1,314.5 315.6,311.9 266.1,313.6 216.6,312.1 167.0,313.5 117.5,308.4 68.0,311.4" fill="#4a1486" fill-opacity="0.9" stroke="#fff" stroke-width="0.4"><title>mdl_dxr — linkAndOptimizeIR (self)</title></polygon>
<polygon points="68.0,110.7 117.5,109.0 167.0,114.1 216.6,114.8 266.1,128.1 315.6,127.0 365.1,123.8 414.7,126.4 464.2,130.4 513.7,126.0 563.2,168.9 612.8,164.8 662.3,162.3 711.8,182.1 761.3,180.6 810.9,175.1 860.4,170.9 909.9,198.0 959.4,192.1 1009.0,193.2 1058.5,192.4 1108.0,193.5 1108.0,330.5 1058.5,329.6 1009.0,331.2 959.4,329.6 909.9,332.3 860.4,310.4 810.9,314.8 761.3,322.5 711.8,321.2 662.3,307.6 612.8,306.3 563.2,307.9 513.7,275.2 464.2,275.4 414.7,275.1 365.1,273.8 315.6,271.8 266.1,273.0 216.6,265.7 167.0,266.9 117.5,260.3 68.0,264.6" fill="#e6550d" fill-opacity="0.9" stroke="#fff" stroke-width="0.4"><title>mdl_dxr — generateOutput (self)</title></polygon>
<polygon points="68.0,110.5 117.5,108.6 167.0,113.2 216.6,114.5 266.1,128.0 315.6,126.5 365.1,122.9 414.7,126.3 464.2,128.7 513.7,125.0 563.2,168.1 612.8,162.9 662.3,161.0 711.8,181.5 761.3,179.7 810.9,174.7 860.4,170.9 909.9,197.8 959.4,191.4 1009.0,193.2 1058.5,191.2 1108.0,191.0 1108.0,193.5 1058.5,192.4 1009.0,193.2 959.4,192.1 909.9,198.0 860.4,170.9 810.9,175.1 761.3,180.6 711.8,182.1 662.3,162.3 612.8,164.8 563.2,168.9 513.7,126.0 464.2,130.4 414.7,126.4 365.1,123.8 315.6,127.0 266.1,128.1 216.6,114.8 167.0,114.1 117.5,109.0 68.0,110.7" fill="#969696" fill-opacity="0.9" stroke="#fff" stroke-width="0.4"><title>mdl_dxr — compileInner (self)</title></polygon>
<text x="12" y="578" fill="#666" font-weight="600">phase buckets</text>
<rect x="12" y="586" width="12" height="12" fill="#c7e9c0"/>
<text x="28" y="596" fill="#222">parseTranslationUnit</text>
<rect x="289" y="586" width="12" height="12" fill="#41ab5d"/>
<text x="305" y="596" fill="#222">SemanticChecking</text>
<rect x="566" y="586" width="12" height="12" fill="#006d2c"/>
<text x="582" y="596" fill="#222">generateIR</text>
<rect x="843" y="586" width="12" height="12" fill="#74c476"/>
<text x="859" y="596" fill="#222">frontEndExecute (self)</text>
<rect x="12" y="604" width="12" height="12" fill="#6baed6"/>
<text x="28" y="614" fill="#222">specializeModule</text>
<rect x="289" y="604" width="12" height="12" fill="#2171b5"/>
<text x="305" y="614" fill="#222">simplifyIR</text>
<rect x="566" y="604" width="12" height="12" fill="#08306b"/>
<text x="582" y="614" fill="#222">linkIR</text>
<rect x="843" y="604" width="12" height="12" fill="#9e9ac8"/>
<text x="859" y="614" fill="#222">unrollLoopsInModule</text>
<rect x="12" y="622" width="12" height="12" fill="#807dba"/>
<text x="28" y="632" fill="#222">legalizeResourceTypes</text>
<rect x="289" y="622" width="12" height="12" fill="#6a51a3"/>
<text x="305" y="632" fill="#222">legalizeExistentialTypeLayout</text>
<rect x="566" y="622" width="12" height="12" fill="#bcbddc"/>
<text x="582" y="632" fill="#222">performMandatoryEarlyInlining</text>
<rect x="843" y="622" width="12" height="12" fill="#dadaeb"/>
<text x="859" y="632" fill="#222">performForceInlining</text>
<rect x="12" y="640" width="12" height="12" fill="#4a1486"/>
<text x="28" y="650" fill="#222">linkAndOptimizeIR (self)</text>
<rect x="289" y="640" width="12" height="12" fill="#fd8d3c"/>
<text x="305" y="650" fill="#222">emitEntryPointsSourceFromIR</text>
<rect x="566" y="640" width="12" height="12" fill="#e6550d"/>
<text x="582" y="650" fill="#222">generateOutput (self)</text>
<rect x="843" y="640" width="12" height="12" fill="#969696"/>
<text x="859" y="650" fill="#222">compileInner (self)</text>
</svg>