<svg xmlns="http://www.w3.org/2000/svg" xmlns:xlink="http://www.w3.org/1999/xlink" width="1132" height="680" viewBox="0 0 1132 680" preserveAspectRatio="xMidYMid meet" font-family="sans-serif" font-size="13">
<rect width="1132" height="680" fill="white"/>
<text x="12" y="30" font-size="20" font-weight="bold">mdl_dxr — full phase breakdown across releases (median ms)</text>
<text x="68" y="60" font-size="15" font-weight="600" fill="#1a1a1a">mdl_dxr<tspan fill="#888" font-weight="400" text-decoration="none">  0.82×</tspan></text>
<line x1="68.0" y1="516.0" x2="1108.0" y2="516.0" stroke="#eee"/>
<text x="64.0" y="519.0" text-anchor="end" fill="#999">0.0</text>
<line x1="68.0" y1="296.0" x2="1108.0" y2="296.0" stroke="#eee"/>
<text x="64.0" y="299.0" text-anchor="end" fill="#999">877</text>
<line x1="68.0" y1="76.0" x2="1108.0" y2="76.0" stroke="#eee"/>
<text x="64.0" y="79.0" text-anchor="end" fill="#999">1753</text>
<line x1="68.0" y1="76.0" x2="68.0" y2="516.0" stroke="#333"/>
<line x1="68.0" y1="516.0" x2="1108.0" y2="516.0" stroke="#333"/>
<line x1="725.6" y1="76.0" x2="725.6" y2="516.0" stroke="#e8731a" stroke-width="1.2" stroke-dasharray="4 3"/>
<text x="728.6" y="87.0" fill="#e8731a" font-size="11">daily →</text>
<line x1="68.0" y1="516.0" x2="68.0" y2="519.0" stroke="#999"/>
<text x="68.0" y="531.0" text-anchor="end" fill="#666" transform="rotate(-50 68.0 531.0)">25.14</text>
<line x1="98.6" y1="516.0" x2="98.6" y2="519.0" stroke="#999"/>
<text x="98.6" y="531.0" text-anchor="end" fill="#666" transform="rotate(-50 98.6 531.0)">25.15</text>
<line x1="129.2" y1="516.0" x2="129.2" y2="519.0" stroke="#999"/>
<text x="129.2" y="531.0" text-anchor="end" fill="#666" transform="rotate(-50 129.2 531.0)">25.16</text>
<line x1="159.8" y1="516.0" x2="159.8" y2="519.0" stroke="#999"/>
<text x="159.8" y="531.0" text-anchor="end" fill="#666" transform="rotate(-50 159.8 531.0)">25.17</text>
<line x1="190.4" y1="516.0" x2="190.4" y2="519.0" stroke="#999"/>
<text x="190.4" y="531.0" text-anchor="end" fill="#666" transform="rotate(-50 190.4 531.0)">25.18</text>
<line x1="220.9" y1="516.0" x2="220.9" y2="519.0" stroke="#999"/>
<text x="220.9" y="531.0" text-anchor="end" fill="#666" transform="rotate(-50 220.9 531.0)">25.19</text>
<line x1="251.5" y1="516.0" x2="251.5" y2="519.0" stroke="#999"/>
<text x="251.5" y="531.0" text-anchor="end" fill="#666" transform="rotate(-50 251.5 531.0)">25.20</text>
<line x1="282.1" y1="516.0" x2="282.1" y2="519.0" stroke="#999"/>
<text x="282.1" y="531.0" text-anchor="end" fill="#666" transform="rotate(-50 282.1 531.0)">25.21</text>
<line x1="312.7" y1="516.0" x2="312.7" y2="519.0" stroke="#999"/>
<text x="312.7" y="531.0" text-anchor="end" fill="#666" transform="rotate(-50 312.7 531.0)">25.22</text>
<line x1="343.3" y1="516.0" x2="343.3" y2="519.0" stroke="#999"/>
<text x="343.3" y="531.0" text-anchor="end" fill="#666" transform="rotate(-50 343.3 531.0)">25.23</text>
<line x1="373.9" y1="516.0" x2="373.9" y2="519.0" stroke="#999"/>
<text x="373.9" y="531.0" text-anchor="end" fill="#666" transform="rotate(-50 373.9 531.0)">25.24</text>
<line x1="404.5" y1="516.0" x2="404.5" y2="519.0" stroke="#999"/>
<text x="404.5" y="531.0" text-anchor="end" fill="#666" transform="rotate(-50 404.5 531.0)">26.1</text>
<line x1="435.1" y1="516.0" x2="435.1" y2="519.0" stroke="#999"/>
<text x="435.1" y="531.0" text-anchor="end" fill="#666" transform="rotate(-50 435.1 531.0)">26.2</text>
<line x1="465.6" y1="516.0" x2="465.6" y2="519.0" stroke="#999"/>
<text x="465.6" y="531.0" text-anchor="end" fill="#666" transform="rotate(-50 465.6 531.0)">26.3</text>
<line x1="496.2" y1="516.0" x2="496.2" y2="519.0" stroke="#999"/>
<text x="496.2" y="531.0" text-anchor="end" fill="#666" transform="rotate(-50 496.2 531.0)">26.4</text>
<line x1="526.8" y1="516.0" x2="526.8" y2="519.0" stroke="#999"/>
<text x="526.8" y="531.0" text-anchor="end" fill="#666" transform="rotate(-50 526.8 531.0)">26.5</text>
<line x1="557.4" y1="516.0" x2="557.4" y2="519.0" stroke="#999"/>
<text x="557.4" y="531.0" text-anchor="end" fill="#666" transform="rotate(-50 557.4 531.0)">26.7</text>
<line x1="588.0" y1="516.0" x2="588.0" y2="519.0" stroke="#999"/>
<text x="588.0" y="531.0" text-anchor="end" fill="#666" transform="rotate(-50 588.0 531.0)">26.8</text>
<line x1="618.6" y1="516.0" x2="618.6" y2="519.0" stroke="#999"/>
<text x="618.6" y="531.0" text-anchor="end" fill="#666" transform="rotate(-50 618.6 531.0)">26.9</text>
<line x1="649.2" y1="516.0" x2="649.2" y2="519.0" stroke="#999"/>
<text x="649.2" y="531.0" text-anchor="end" fill="#666" transform="rotate(-50 649.2 531.0)">26.10</text>
<line x1="679.8" y1="516.0" x2="679.8" y2="519.0" stroke="#999"/>
<text x="679.8" y="531.0" text-anchor="end" fill="#666" transform="rotate(-50 679.8 531.0)">26.11</text>
<line x1="710.4" y1="516.0" x2="710.4" y2="519.0" stroke="#999"/>
<text x="710.4" y="531.0" text-anchor="end" fill="#666" transform="rotate(-50 710.4 531.0)">26.12</text>
<line x1="740.9" y1="516.0" x2="740.9" y2="519.0" stroke="#999"/>
<text x="740.9" y="531.0" text-anchor="end" fill="#e8731a" transform="rotate(-50 740.9 531.0)">06-25</text>
<line x1="771.5" y1="516.0" x2="771.5" y2="519.0" stroke="#999"/>
<text x="771.5" y="531.0" text-anchor="end" fill="#e8731a" transform="rotate(-50 771.5 531.0)">06-26</text>
<line x1="802.1" y1="516.0" x2="802.1" y2="519.0" stroke="#999"/>
<text x="802.1" y="531.0" text-anchor="end" fill="#e8731a" transform="rotate(-50 802.1 531.0)">06-28</text>
<line x1="832.7" y1="516.0" x2="832.7" y2="519.0" stroke="#999"/>
<text x="832.7" y="531.0" text-anchor="end" fill="#e8731a" transform="rotate(-50 832.7 531.0)">07-01</text>
<line x1="863.3" y1="516.0" x2="863.3" y2="519.0" stroke="#999"/>
<text x="863.3" y="531.0" text-anchor="end" fill="#e8731a" transform="rotate(-50 863.3 531.0)">07-02</text>
<line x1="893.9" y1="516.0" x2="893.9" y2="519.0" stroke="#999"/>
<text x="893.9" y="531.0" text-anchor="end" fill="#e8731a" transform="rotate(-50 893.9 531.0)">07-03</text>
<line x1="924.5" y1="516.0" x2="924.5" y2="519.0" stroke="#999"/>
<text x="924.5" y="531.0" text-anchor="end" fill="#e8731a" transform="rotate(-50 924.5 531.0)">07-06</text>
<line x1="955.1" y1="516.0" x2="955.1" y2="519.0" stroke="#999"/>
<text x="955.1" y="531.0" text-anchor="end" fill="#e8731a" transform="rotate(-50 955.1 531.0)">07-07</text>
<line x1="985.6" y1="516.0" x2="985.6" y2="519.0" stroke="#999"/>
<text x="985.6" y="531.0" text-anchor="end" fill="#e8731a" transform="rotate(-50 985.6 531.0)">07-07</text>
<line x1="1016.2" y1="516.0" x2="1016.2" y2="519.0" stroke="#999"/>
<text x="1016.2" y="531.0" text-anchor="end" fill="#e8731a" transform="rotate(-50 1016.2 531.0)">07-09</text>
<line x1="1046.8" y1="516.0" x2="1046.8" y2="519.0" stroke="#999"/>
<text x="1046.8" y="531.0" text-anchor="end" fill="#e8731a" transform="rotate(-50 1046.8 531.0)">07-10</text>
<line x1="1077.4" y1="516.0" x2="1077.4" y2="519.0" stroke="#999"/>
<text x="1077.4" y="531.0" text-anchor="end" fill="#e8731a" transform="rotate(-50 1077.4 531.0)">07-11</text>
<line x1="1108.0" y1="516.0" x2="1108.0" y2="519.0" stroke="#999"/>
<text x="1108.0" y="531.0" text-anchor="end" fill="#e8731a" transform="rotate(-50 1108.0 531.0)">07-11</text>
<polygon points="68.0,513.0 98.6,513.0 129.2,512.9 159.8,512.9 190.4,512.6 220.9,512.7 251.5,512.5 282.1,512.6 312.7,512.5 343.3,512.9 373.9,512.9 404.5,512.9 435.1,513.0 465.6,512.9 496.2,512.8 526.8,512.9 557.4,512.9 588.0,512.8 618.6,512.9 649.2,512.8 679.8,512.9 710.4,512.8 740.9,512.7 771.5,512.7 802.1,512.7 832.7,512.6 863.3,512.8 893.9,512.7 924.5,512.7 955.1,513.0 985.6,513.0 1016.2,512.9 1046.8,513.0 1077.4,512.9 1108.0,512.9 1108.0,516.0 1077.4,516.0 1046.8,516.0 1016.2,516.0 985.6,516.0 955.1,516.0 924.5,516.0 893.9,516.0 863.3,516.0 832.7,516.0 802.1,516.0 771.5,516.0 740.9,516.0 710.4,516.0 679.8,516.0 649.2,516.0 618.6,516.0 588.0,516.0 557.4,516.0 526.8,516.0 496.2,516.0 465.6,516.0 435.1,516.0 404.5,516.0 373.9,516.0 343.3,516.0 312.7,516.0 282.1,516.0 251.5,516.0 220.9,516.0 190.4,516.0 159.8,516.0 129.2,516.0 98.6,516.0 68.0,516.0" fill="#c7e9c0" fill-opacity="0.9" stroke="#fff" stroke-width="0.4"><title>mdl_dxr — parseTranslationUnit</title></polygon>
<polygon points="68.0,424.7 98.6,416.4 129.2,416.6 159.8,407.5 190.4,405.5 220.9,409.9 251.5,401.4 282.1,402.7 312.7,405.7 343.3,411.7 373.9,414.0 404.5,413.5 435.1,411.5 465.6,412.1 496.2,410.2 526.8,410.6 557.4,380.2 588.0,379.0 618.6,379.4 649.2,374.3 679.8,450.2 710.4,446.8 740.9,442.9 771.5,442.0 802.1,442.7 832.7,442.6 863.3,442.7 893.9,440.5 924.5,441.7 955.1,442.0 985.6,442.6 1016.2,443.0 1046.8,442.0 1077.4,441.8 1108.0,440.4 1108.0,512.9 1077.4,512.9 1046.8,513.0 1016.2,512.9 985.6,513.0 955.1,513.0 924.5,512.7 893.9,512.7 863.3,512.8 832.7,512.6 802.1,512.7 771.5,512.7 740.9,512.7 710.4,512.8 679.8,512.9 649.2,512.8 618.6,512.9 588.0,512.8 557.4,512.9 526.8,512.9 496.2,512.8 465.6,512.9 435.1,513.0 404.5,512.9 373.9,512.9 343.3,512.9 312.7,512.5 282.1,512.6 251.5,512.5 220.9,512.7 190.4,512.6 159.8,512.9 129.2,512.9 98.6,513.0 68.0,513.0" fill="#41ab5d" fill-opacity="0.9" stroke="#fff" stroke-width="0.4"><title>mdl_dxr — SemanticChecking</title></polygon>
<polygon points="68.0,424.1 98.6,415.7 129.2,415.9 159.8,406.7 190.4,404.8 220.9,409.2 251.5,400.7 282.1,401.9 312.7,404.9 343.3,410.9 373.9,413.3 404.5,412.7 435.1,410.8 465.6,411.3 496.2,409.5 526.8,409.9 557.4,376.3 588.0,375.0 618.6,375.6 649.2,370.4 679.8,449.3 710.4,446.0 740.9,442.0 771.5,441.0 802.1,441.7 832.7,441.7 863.3,441.8 893.9,439.6 924.5,440.7 955.1,441.0 985.6,441.6 1016.2,442.0 1046.8,441.0 1077.4,440.8 1108.0,439.4 1108.0,440.4 1077.4,441.8 1046.8,442.0 1016.2,443.0 985.6,442.6 955.1,442.0 924.5,441.7 893.9,440.5 863.3,442.7 832.7,442.6 802.1,442.7 771.5,442.0 740.9,442.9 710.4,446.8 679.8,450.2 649.2,374.3 618.6,379.4 588.0,379.0 557.4,380.2 526.8,410.6 496.2,410.2 465.6,412.1 435.1,411.5 404.5,413.5 373.9,414.0 343.3,411.7 312.7,405.7 282.1,402.7 251.5,401.4 220.9,409.9 190.4,405.5 159.8,407.5 129.2,416.6 98.6,416.4 68.0,424.7" fill="#006d2c" fill-opacity="0.9" stroke="#fff" stroke-width="0.4"><title>mdl_dxr — generateIR</title></polygon>
<polygon points="68.0,415.0 98.6,406.7 129.2,406.8 159.8,397.3 190.4,395.4 220.9,399.3 251.5,390.5 282.1,391.2 312.7,394.5 343.3,401.0 373.9,399.5 404.5,398.9 435.1,396.8 465.6,397.4 496.2,395.5 526.8,395.3 557.4,347.0 588.0,345.7 618.6,346.7 649.2,341.2 679.8,427.4 710.4,424.2 740.9,415.6 771.5,414.8 802.1,415.5 832.7,415.9 863.3,416.2 893.9,413.1 924.5,414.5 955.1,415.5 985.6,416.1 1016.2,416.2 1046.8,417.5 1077.4,417.6 1108.0,416.4 1108.0,439.4 1077.4,440.8 1046.8,441.0 1016.2,442.0 985.6,441.6 955.1,441.0 924.5,440.7 893.9,439.6 863.3,441.8 832.7,441.7 802.1,441.7 771.5,441.0 740.9,442.0 710.4,446.0 679.8,449.3 649.2,370.4 618.6,375.6 588.0,375.0 557.4,376.3 526.8,409.9 496.2,409.5 465.6,411.3 435.1,410.8 404.5,412.7 373.9,413.3 343.3,410.9 312.7,404.9 282.1,401.9 251.5,400.7 220.9,409.2 190.4,404.8 159.8,406.7 129.2,415.9 98.6,415.7 68.0,424.1" fill="#6baed6" fill-opacity="0.9" stroke="#fff" stroke-width="0.4"><title>mdl_dxr — specializeModule</title></polygon>
<polygon points="68.0,384.4 98.6,375.7 129.2,376.2 159.8,364.6 190.4,361.7 220.9,365.5 251.5,351.3 282.1,350.1 312.7,355.0 343.3,363.7 373.9,366.9 404.5,365.4 435.1,363.6 465.6,364.0 496.2,361.9 526.8,361.6 557.4,300.9 588.0,299.3 618.6,301.3 649.2,295.0 679.8,386.1 710.4,383.1 740.9,371.2 771.5,370.7 802.1,371.1 832.7,372.6 863.3,376.6 893.9,371.7 924.5,373.6 955.1,375.1 985.6,375.2 1016.2,375.2 1046.8,383.5 1077.4,383.6 1108.0,382.0 1108.0,416.4 1077.4,417.6 1046.8,417.5 1016.2,416.2 985.6,416.1 955.1,415.5 924.5,414.5 893.9,413.1 863.3,416.2 832.7,415.9 802.1,415.5 771.5,414.8 740.9,415.6 710.4,424.2 679.8,427.4 649.2,341.2 618.6,346.7 588.0,345.7 557.4,347.0 526.8,395.3 496.2,395.5 465.6,397.4 435.1,396.8 404.5,398.9 373.9,399.5 343.3,401.0 312.7,394.5 282.1,391.2 251.5,390.5 220.9,399.3 190.4,395.4 159.8,397.3 129.2,406.8 98.6,406.7 68.0,415.0" fill="#2171b5" fill-opacity="0.9" stroke="#fff" stroke-width="0.4"><title>mdl_dxr — simplifyIR</title></polygon>
<polygon points="68.0,381.4 98.6,372.7 129.2,373.3 159.8,361.4 190.4,358.4 220.9,362.4 251.5,347.9 282.1,346.8 312.7,351.7 343.3,360.6 373.9,363.9 404.5,362.4 435.1,360.6 465.6,360.9 496.2,358.7 526.8,358.4 557.4,292.8 588.0,290.7 618.6,293.3 649.2,287.3 679.8,383.1 710.4,380.1 740.9,368.1 771.5,367.5 802.1,368.0 832.7,369.4 863.3,373.5 893.9,368.4 924.5,370.5 955.1,371.9 985.6,372.1 1016.2,372.0 1046.8,380.4 1077.4,380.4 1108.0,378.8 1108.0,382.0 1077.4,383.6 1046.8,383.5 1016.2,375.2 985.6,375.2 955.1,375.1 924.5,373.6 893.9,371.7 863.3,376.6 832.7,372.6 802.1,371.1 771.5,370.7 740.9,371.2 710.4,383.1 679.8,386.1 649.2,295.0 618.6,301.3 588.0,299.3 557.4,300.9 526.8,361.6 496.2,361.9 465.6,364.0 435.1,363.6 404.5,365.4 373.9,366.9 343.3,363.7 312.7,355.0 282.1,350.1 251.5,351.3 220.9,365.5 190.4,361.7 159.8,364.6 129.2,376.2 98.6,375.7 68.0,384.4" fill="#08306b" fill-opacity="0.9" stroke="#fff" stroke-width="0.4"><title>mdl_dxr — linkIR</title></polygon>
<polygon points="68.0,381.3 98.6,372.6 129.2,373.2 159.8,361.2 190.4,358.3 220.9,362.2 251.5,347.8 282.1,346.6 312.7,351.6 343.3,360.5 373.9,363.8 404.5,362.2 435.1,360.4 465.6,360.7 496.2,358.5 526.8,358.3 557.4,292.8 588.0,290.6 618.6,293.2 649.2,287.2 679.8,383.0 710.4,380.0 740.9,368.0 771.5,367.4 802.1,367.9 832.7,369.4 863.3,373.5 893.9,368.3 924.5,370.4 955.1,371.8 985.6,371.9 1016.2,371.8 1046.8,380.3 1077.4,380.3 1108.0,378.6 1108.0,378.8 1077.4,380.4 1046.8,380.4 1016.2,372.0 985.6,372.1 955.1,371.9 924.5,370.5 893.9,368.4 863.3,373.5 832.7,369.4 802.1,368.0 771.5,367.5 740.9,368.1 710.4,380.1 679.8,383.1 649.2,287.3 618.6,293.3 588.0,290.7 557.4,292.8 526.8,358.4 496.2,358.7 465.6,360.9 435.1,360.6 404.5,362.4 373.9,363.9 343.3,360.6 312.7,351.7 282.1,346.8 251.5,347.9 220.9,362.4 190.4,358.4 159.8,361.4 129.2,373.3 98.6,372.7 68.0,381.4" fill="#9e9ac8" fill-opacity="0.9" stroke="#fff" stroke-width="0.4"><title>mdl_dxr — unrollLoopsInModule</title></polygon>
<polygon points="68.0,366.0 98.6,357.9 129.2,358.6 159.8,346.2 190.4,349.8 220.9,354.1 251.5,338.7 282.1,337.7 312.7,342.7 343.3,352.1 373.9,355.5 404.5,353.8 435.1,352.0 465.6,352.3 496.2,349.9 526.8,349.9 557.4,284.2 588.0,281.8 618.6,284.8 649.2,278.8 679.8,374.6 710.4,371.5 740.9,359.4 771.5,358.8 802.1,359.2 832.7,360.8 863.3,365.0 893.9,359.7 924.5,361.8 955.1,363.2 985.6,363.3 1016.2,363.3 1046.8,371.7 1077.4,378.0 1108.0,376.4 1108.0,378.6 1077.4,380.3 1046.8,380.3 1016.2,371.8 985.6,371.9 955.1,371.8 924.5,370.4 893.9,368.3 863.3,373.5 832.7,369.4 802.1,367.9 771.5,367.4 740.9,368.0 710.4,380.0 679.8,383.0 649.2,287.2 618.6,293.2 588.0,290.6 557.4,292.8 526.8,358.3 496.2,358.5 465.6,360.7 435.1,360.4 404.5,362.2 373.9,363.8 343.3,360.5 312.7,351.6 282.1,346.6 251.5,347.8 220.9,362.2 190.4,358.3 159.8,361.2 129.2,373.2 98.6,372.6 68.0,381.3" fill="#807dba" fill-opacity="0.9" stroke="#fff" stroke-width="0.4"><title>mdl_dxr — legalizeResourceTypes</title></polygon>
<polygon points="68.0,350.5 98.6,343.0 129.2,344.0 159.8,331.2 190.4,341.5 220.9,345.9 251.5,330.0 282.1,328.9 312.7,333.8 343.3,343.7 373.9,347.0 404.5,345.3 435.1,343.5 465.6,343.8 496.2,341.1 526.8,341.4 557.4,275.6 588.0,273.1 618.6,276.3 649.2,270.2 679.8,366.0 710.4,362.8 740.9,350.7 771.5,350.1 802.1,350.3 832.7,352.0 863.3,356.6 893.9,351.0 924.5,353.1 955.1,354.5 985.6,354.5 1016.2,354.5 1046.8,363.0 1077.4,375.6 1108.0,373.9 1108.0,376.4 1077.4,378.0 1046.8,371.7 1016.2,363.3 985.6,363.3 955.1,363.2 924.5,361.8 893.9,359.7 863.3,365.0 832.7,360.8 802.1,359.2 771.5,358.8 740.9,359.4 710.4,371.5 679.8,374.6 649.2,278.8 618.6,284.8 588.0,281.8 557.4,284.2 526.8,349.9 496.2,349.9 465.6,352.3 435.1,352.0 404.5,353.8 373.9,355.5 343.3,352.1 312.7,342.7 282.1,337.7 251.5,338.7 220.9,354.1 190.4,349.8 159.8,346.2 129.2,358.6 98.6,357.9 68.0,366.0" fill="#6a51a3" fill-opacity="0.9" stroke="#fff" stroke-width="0.4"><title>mdl_dxr — legalizeExistentialTypeLayout</title></polygon>
<polygon points="68.0,349.8 98.6,342.3 129.2,343.3 159.8,330.5 190.4,340.8 220.9,345.2 251.5,329.3 282.1,328.1 312.7,333.1 343.3,343.0 373.9,346.3 404.5,344.6 435.1,342.8 465.6,343.1 496.2,340.4 526.8,340.6 557.4,275.0 588.0,272.5 618.6,275.7 649.2,269.6 679.8,365.4 710.4,362.2 740.9,350.1 771.5,349.5 802.1,349.7 832.7,351.5 863.3,356.0 893.9,350.4 924.5,352.5 955.1,353.7 985.6,353.8 1016.2,353.8 1046.8,362.2 1077.4,374.8 1108.0,373.1 1108.0,373.9 1077.4,375.6 1046.8,363.0 1016.2,354.5 985.6,354.5 955.1,354.5 924.5,353.1 893.9,351.0 863.3,356.6 832.7,352.0 802.1,350.3 771.5,350.1 740.9,350.7 710.4,362.8 679.8,366.0 649.2,270.2 618.6,276.3 588.0,273.1 557.4,275.6 526.8,341.4 496.2,341.1 465.6,343.8 435.1,343.5 404.5,345.3 373.9,347.0 343.3,343.7 312.7,333.8 282.1,328.9 251.5,330.0 220.9,345.9 190.4,341.5 159.8,331.2 129.2,344.0 98.6,343.0 68.0,350.5" fill="#bcbddc" fill-opacity="0.9" stroke="#fff" stroke-width="0.4"><title>mdl_dxr — performMandatoryEarlyInlining</title></polygon>
<polygon points="68.0,349.3 98.6,341.8 129.2,342.8 159.8,329.9 190.4,340.3 220.9,344.7 251.5,328.7 282.1,327.5 312.7,332.5 343.3,342.4 373.9,345.8 404.5,344.1 435.1,342.1 465.6,342.3 496.2,339.7 526.8,339.9 557.4,274.3 588.0,271.8 618.6,275.0 649.2,268.9 679.8,364.6 710.4,361.4 740.9,349.3 771.5,348.7 802.1,348.9 832.7,350.7 863.3,355.2 893.9,349.6 924.5,351.7 955.1,352.9 985.6,353.0 1016.2,353.0 1046.8,361.5 1077.4,374.0 1108.0,372.4 1108.0,373.1 1077.4,374.8 1046.8,362.2 1016.2,353.8 985.6,353.8 955.1,353.7 924.5,352.5 893.9,350.4 863.3,356.0 832.7,351.5 802.1,349.7 771.5,349.5 740.9,350.1 710.4,362.2 679.8,365.4 649.2,269.6 618.6,275.7 588.0,272.5 557.4,275.0 526.8,340.6 496.2,340.4 465.6,343.1 435.1,342.8 404.5,344.6 373.9,346.3 343.3,343.0 312.7,333.1 282.1,328.1 251.5,329.3 220.9,345.2 190.4,340.8 159.8,330.5 129.2,343.3 98.6,342.3 68.0,349.8" fill="#dadaeb" fill-opacity="0.9" stroke="#fff" stroke-width="0.4"><title>mdl_dxr — performForceInlining</title></polygon>
<polygon points="68.0,327.2 98.6,317.5 129.2,319.9 159.8,304.4 190.4,308.4 220.9,314.3 251.5,298.1 282.1,295.7 312.7,300.7 343.3,313.0 373.9,317.2 404.5,314.7 435.1,312.6 465.6,312.2 496.2,308.8 526.8,309.0 557.4,231.1 588.0,228.1 618.6,232.3 649.2,226.5 679.8,329.4 710.4,326.7 740.9,311.0 771.5,310.4 802.1,311.1 832.7,313.2 863.3,322.7 893.9,316.9 924.5,318.5 955.1,320.1 985.6,319.6 1016.2,319.9 1046.8,329.9 1077.4,347.2 1108.0,345.0 1108.0,372.4 1077.4,374.0 1046.8,361.5 1016.2,353.0 985.6,353.0 955.1,352.9 924.5,351.7 893.9,349.6 863.3,355.2 832.7,350.7 802.1,348.9 771.5,348.7 740.9,349.3 710.4,361.4 679.8,364.6 649.2,268.9 618.6,275.0 588.0,271.8 557.4,274.3 526.8,339.9 496.2,339.7 465.6,342.3 435.1,342.1 404.5,344.1 373.9,345.8 343.3,342.4 312.7,332.5 282.1,327.5 251.5,328.7 220.9,344.7 190.4,340.3 159.8,329.9 129.2,342.8 98.6,341.8 68.0,349.3" fill="#4a1486" fill-opacity="0.9" stroke="#fff" stroke-width="0.4"><title>mdl_dxr — linkAndOptimizeIR (self)</title></polygon>
<polygon points="68.0,163.3 98.6,153.5 129.2,156.2 159.8,178.0 190.4,173.6 220.9,186.7 251.5,150.8 282.1,149.7 312.7,163.7 343.3,187.7 373.9,199.6 404.5,197.7 435.1,197.7 465.6,194.9 496.2,189.9 526.8,190.8 557.4,114.6 588.0,110.4 618.6,114.2 649.2,108.6 679.8,211.3 710.4,207.3 740.9,189.3 771.5,190.6 802.1,189.4 832.7,194.2 863.3,207.8 893.9,198.8 924.5,196.2 955.1,200.9 985.6,198.4 1016.2,202.3 1046.8,211.7 1077.4,233.2 1108.0,229.7 1108.0,345.0 1077.4,347.2 1046.8,329.9 1016.2,319.9 985.6,319.6 955.1,320.1 924.5,318.5 893.9,316.9 863.3,322.7 832.7,313.2 802.1,311.1 771.5,310.4 740.9,311.0 710.4,326.7 679.8,329.4 649.2,226.5 618.6,232.3 588.0,228.1 557.4,231.1 526.8,309.0 496.2,308.8 465.6,312.2 435.1,312.6 404.5,314.7 373.9,317.2 343.3,313.0 312.7,300.7 282.1,295.7 251.5,298.1 220.9,314.3 190.4,308.4 159.8,304.4 129.2,319.9 98.6,317.5 68.0,327.2" fill="#e6550d" fill-opacity="0.9" stroke="#fff" stroke-width="0.4"><title>mdl_dxr — generateOutput (self)</title></polygon>
<polygon points="68.0,163.3 98.6,153.2 129.2,155.1 159.8,178.0 190.4,173.2 220.9,185.7 251.5,149.1 282.1,149.7 312.7,160.0 343.3,187.1 373.9,199.6 404.5,197.3 435.1,197.7 465.6,194.0 496.2,189.8 526.8,190.8 557.4,114.6 588.0,109.9 618.6,114.2 649.2,108.6 679.8,211.0 710.4,204.8 740.9,189.2 771.5,189.6 802.1,188.0 832.7,193.2 863.3,205.8 893.9,198.4 924.5,195.5 955.1,199.8 985.6,198.3 1016.2,201.5 1046.8,210.8 1077.4,232.4 1108.0,228.1 1108.0,229.7 1077.4,233.2 1046.8,211.7 1016.2,202.3 985.6,198.4 955.1,200.9 924.5,196.2 893.9,198.8 863.3,207.8 832.7,194.2 802.1,189.4 771.5,190.6 740.9,189.3 710.4,207.3 679.8,211.3 649.2,108.6 618.6,114.2 588.0,110.4 557.4,114.6 526.8,190.8 496.2,189.9 465.6,194.9 435.1,197.7 404.5,197.7 373.9,199.6 343.3,187.7 312.7,163.7 282.1,149.7 251.5,150.8 220.9,186.7 190.4,173.6 159.8,178.0 129.2,156.2 98.6,153.5 68.0,163.3" fill="#969696" fill-opacity="0.9" stroke="#fff" stroke-width="0.4"><title>mdl_dxr — compileInner (self)</title></polygon>
<text x="12" y="578" fill="#666" font-weight="600">phase buckets</text>
<rect x="12" y="586" width="12" height="12" fill="#c7e9c0"/>
<text x="28" y="596" fill="#222">parseTranslationUnit</text>
<rect x="289" y="586" width="12" height="12" fill="#41ab5d"/>
<text x="305" y="596" fill="#222">SemanticChecking</text>
<rect x="566" y="586" width="12" height="12" fill="#006d2c"/>
<text x="582" y="596" fill="#222">generateIR</text>
<rect x="843" y="586" width="12" height="12" fill="#74c476"/>
<text x="859" y="596" fill="#222">frontEndExecute (self)</text>
<rect x="12" y="604" width="12" height="12" fill="#6baed6"/>
<text x="28" y="614" fill="#222">specializeModule</text>
<rect x="289" y="604" width="12" height="12" fill="#2171b5"/>
<text x="305" y="614" fill="#222">simplifyIR</text>
<rect x="566" y="604" width="12" height="12" fill="#08306b"/>
<text x="582" y="614" fill="#222">linkIR</text>
<rect x="843" y="604" width="12" height="12" fill="#9e9ac8"/>
<text x="859" y="614" fill="#222">unrollLoopsInModule</text>
<rect x="12" y="622" width="12" height="12" fill="#807dba"/>
<text x="28" y="632" fill="#222">legalizeResourceTypes</text>
<rect x="289" y="622" width="12" height="12" fill="#6a51a3"/>
<text x="305" y="632" fill="#222">legalizeExistentialTypeLayout</text>
<rect x="566" y="622" width="12" height="12" fill="#bcbddc"/>
<text x="582" y="632" fill="#222">performMandatoryEarlyInlining</text>
<rect x="843" y="622" width="12" height="12" fill="#dadaeb"/>
<text x="859" y="632" fill="#222">performForceInlining</text>
<rect x="12" y="640" width="12" height="12" fill="#4a1486"/>
<text x="28" y="650" fill="#222">linkAndOptimizeIR (self)</text>
<rect x="289" y="640" width="12" height="12" fill="#fd8d3c"/>
<text x="305" y="650" fill="#222">emitEntryPointsSourceFromIR</text>
<rect x="566" y="640" width="12" height="12" fill="#e6550d"/>
<text x="582" y="650" fill="#222">generateOutput (self)</text>
<rect x="843" y="640" width="12" height="12" fill="#969696"/>
<text x="859" y="650" fill="#222">compileInner (self)</text>
</svg>