<svg xmlns="http://www.w3.org/2000/svg" xmlns:xlink="http://www.w3.org/1999/xlink" width="1132" height="680" viewBox="0 0 1132 680" preserveAspectRatio="xMidYMid meet" font-family="sans-serif" font-size="13">
<rect width="1132" height="680" fill="white"/>
<text x="12" y="30" font-size="20" font-weight="bold">mdl_dxr — full phase breakdown across releases (median ms)</text>
<text x="68" y="60" font-size="15" font-weight="600" fill="#1a1a1a">mdl_dxr<tspan fill="#888" font-weight="400" text-decoration="none">  0.76×</tspan></text>
<line x1="68.0" y1="516.0" x2="1108.0" y2="516.0" stroke="#eee"/>
<text x="64.0" y="519.0" text-anchor="end" fill="#999">0.0</text>
<line x1="68.0" y1="296.0" x2="1108.0" y2="296.0" stroke="#eee"/>
<text x="64.0" y="299.0" text-anchor="end" fill="#999">1053</text>
<line x1="68.0" y1="76.0" x2="1108.0" y2="76.0" stroke="#eee"/>
<text x="64.0" y="79.0" text-anchor="end" fill="#999">2105</text>
<line x1="68.0" y1="76.0" x2="68.0" y2="516.0" stroke="#333"/>
<line x1="68.0" y1="516.0" x2="1108.0" y2="516.0" stroke="#333"/>
<line x1="706.9" y1="76.0" x2="706.9" y2="516.0" stroke="#e8731a" stroke-width="1.2" stroke-dasharray="4 3"/>
<text x="709.9" y="87.0" fill="#e8731a" font-size="11">daily →</text>
<line x1="68.0" y1="516.0" x2="68.0" y2="519.0" stroke="#999"/>
<text x="68.0" y="531.0" text-anchor="end" fill="#666" transform="rotate(-50 68.0 531.0)">25.14</text>
<line x1="97.7" y1="516.0" x2="97.7" y2="519.0" stroke="#999"/>
<text x="97.7" y="531.0" text-anchor="end" fill="#666" transform="rotate(-50 97.7 531.0)">25.15</text>
<line x1="127.4" y1="516.0" x2="127.4" y2="519.0" stroke="#999"/>
<text x="127.4" y="531.0" text-anchor="end" fill="#666" transform="rotate(-50 127.4 531.0)">25.16</text>
<line x1="157.1" y1="516.0" x2="157.1" y2="519.0" stroke="#999"/>
<text x="157.1" y="531.0" text-anchor="end" fill="#666" transform="rotate(-50 157.1 531.0)">25.17</text>
<line x1="186.9" y1="516.0" x2="186.9" y2="519.0" stroke="#999"/>
<text x="186.9" y="531.0" text-anchor="end" fill="#666" transform="rotate(-50 186.9 531.0)">25.18</text>
<line x1="216.6" y1="516.0" x2="216.6" y2="519.0" stroke="#999"/>
<text x="216.6" y="531.0" text-anchor="end" fill="#666" transform="rotate(-50 216.6 531.0)">25.19</text>
<line x1="246.3" y1="516.0" x2="246.3" y2="519.0" stroke="#999"/>
<text x="246.3" y="531.0" text-anchor="end" fill="#666" transform="rotate(-50 246.3 531.0)">25.20</text>
<line x1="276.0" y1="516.0" x2="276.0" y2="519.0" stroke="#999"/>
<text x="276.0" y="531.0" text-anchor="end" fill="#666" transform="rotate(-50 276.0 531.0)">25.21</text>
<line x1="305.7" y1="516.0" x2="305.7" y2="519.0" stroke="#999"/>
<text x="305.7" y="531.0" text-anchor="end" fill="#666" transform="rotate(-50 305.7 531.0)">25.22</text>
<line x1="335.4" y1="516.0" x2="335.4" y2="519.0" stroke="#999"/>
<text x="335.4" y="531.0" text-anchor="end" fill="#666" transform="rotate(-50 335.4 531.0)">25.23</text>
<line x1="365.1" y1="516.0" x2="365.1" y2="519.0" stroke="#999"/>
<text x="365.1" y="531.0" text-anchor="end" fill="#666" transform="rotate(-50 365.1 531.0)">25.24</text>
<line x1="394.9" y1="516.0" x2="394.9" y2="519.0" stroke="#999"/>
<text x="394.9" y="531.0" text-anchor="end" fill="#666" transform="rotate(-50 394.9 531.0)">26.1</text>
<line x1="424.6" y1="516.0" x2="424.6" y2="519.0" stroke="#999"/>
<text x="424.6" y="531.0" text-anchor="end" fill="#666" transform="rotate(-50 424.6 531.0)">26.2</text>
<line x1="454.3" y1="516.0" x2="454.3" y2="519.0" stroke="#999"/>
<text x="454.3" y="531.0" text-anchor="end" fill="#666" transform="rotate(-50 454.3 531.0)">26.3</text>
<line x1="484.0" y1="516.0" x2="484.0" y2="519.0" stroke="#999"/>
<text x="484.0" y="531.0" text-anchor="end" fill="#666" transform="rotate(-50 484.0 531.0)">26.4</text>
<line x1="513.7" y1="516.0" x2="513.7" y2="519.0" stroke="#999"/>
<text x="513.7" y="531.0" text-anchor="end" fill="#666" transform="rotate(-50 513.7 531.0)">26.5</text>
<line x1="543.4" y1="516.0" x2="543.4" y2="519.0" stroke="#999"/>
<text x="543.4" y="531.0" text-anchor="end" fill="#666" transform="rotate(-50 543.4 531.0)">26.7</text>
<line x1="573.1" y1="516.0" x2="573.1" y2="519.0" stroke="#999"/>
<text x="573.1" y="531.0" text-anchor="end" fill="#666" transform="rotate(-50 573.1 531.0)">26.8</text>
<line x1="602.9" y1="516.0" x2="602.9" y2="519.0" stroke="#999"/>
<text x="602.9" y="531.0" text-anchor="end" fill="#666" transform="rotate(-50 602.9 531.0)">26.9</text>
<line x1="632.6" y1="516.0" x2="632.6" y2="519.0" stroke="#999"/>
<text x="632.6" y="531.0" text-anchor="end" fill="#666" transform="rotate(-50 632.6 531.0)">26.10</text>
<line x1="662.3" y1="516.0" x2="662.3" y2="519.0" stroke="#999"/>
<text x="662.3" y="531.0" text-anchor="end" fill="#666" transform="rotate(-50 662.3 531.0)">26.11</text>
<line x1="692.0" y1="516.0" x2="692.0" y2="519.0" stroke="#999"/>
<text x="692.0" y="531.0" text-anchor="end" fill="#666" transform="rotate(-50 692.0 531.0)">26.12</text>
<line x1="721.7" y1="516.0" x2="721.7" y2="519.0" stroke="#999"/>
<text x="721.7" y="531.0" text-anchor="end" fill="#e8731a" transform="rotate(-50 721.7 531.0)">06-25</text>
<line x1="751.4" y1="516.0" x2="751.4" y2="519.0" stroke="#999"/>
<text x="751.4" y="531.0" text-anchor="end" fill="#e8731a" transform="rotate(-50 751.4 531.0)">06-26</text>
<line x1="781.1" y1="516.0" x2="781.1" y2="519.0" stroke="#999"/>
<text x="781.1" y="531.0" text-anchor="end" fill="#e8731a" transform="rotate(-50 781.1 531.0)">06-28</text>
<line x1="810.9" y1="516.0" x2="810.9" y2="519.0" stroke="#999"/>
<text x="810.9" y="531.0" text-anchor="end" fill="#e8731a" transform="rotate(-50 810.9 531.0)">07-01</text>
<line x1="840.6" y1="516.0" x2="840.6" y2="519.0" stroke="#999"/>
<text x="840.6" y="531.0" text-anchor="end" fill="#e8731a" transform="rotate(-50 840.6 531.0)">07-02</text>
<line x1="870.3" y1="516.0" x2="870.3" y2="519.0" stroke="#999"/>
<text x="870.3" y="531.0" text-anchor="end" fill="#e8731a" transform="rotate(-50 870.3 531.0)">07-03</text>
<line x1="900.0" y1="516.0" x2="900.0" y2="519.0" stroke="#999"/>
<text x="900.0" y="531.0" text-anchor="end" fill="#e8731a" transform="rotate(-50 900.0 531.0)">07-06</text>
<line x1="929.7" y1="516.0" x2="929.7" y2="519.0" stroke="#999"/>
<text x="929.7" y="531.0" text-anchor="end" fill="#e8731a" transform="rotate(-50 929.7 531.0)">07-07</text>
<line x1="959.4" y1="516.0" x2="959.4" y2="519.0" stroke="#999"/>
<text x="959.4" y="531.0" text-anchor="end" fill="#e8731a" transform="rotate(-50 959.4 531.0)">07-08</text>
<line x1="989.1" y1="516.0" x2="989.1" y2="519.0" stroke="#999"/>
<text x="989.1" y="531.0" text-anchor="end" fill="#e8731a" transform="rotate(-50 989.1 531.0)">07-09</text>
<line x1="1018.9" y1="516.0" x2="1018.9" y2="519.0" stroke="#999"/>
<text x="1018.9" y="531.0" text-anchor="end" fill="#e8731a" transform="rotate(-50 1018.9 531.0)">07-10</text>
<line x1="1048.6" y1="516.0" x2="1048.6" y2="519.0" stroke="#999"/>
<text x="1048.6" y="531.0" text-anchor="end" fill="#e8731a" transform="rotate(-50 1048.6 531.0)">07-11</text>
<line x1="1078.3" y1="516.0" x2="1078.3" y2="519.0" stroke="#999"/>
<text x="1078.3" y="531.0" text-anchor="end" fill="#e8731a" transform="rotate(-50 1078.3 531.0)">07-14</text>
<line x1="1108.0" y1="516.0" x2="1108.0" y2="519.0" stroke="#999"/>
<text x="1108.0" y="531.0" text-anchor="end" fill="#e8731a" transform="rotate(-50 1108.0 531.0)">07-15</text>
<polygon points="68.0,513.5 97.7,513.5 127.4,513.5 157.1,513.3 186.9,513.3 216.6,513.3 246.3,513.4 276.0,513.4 305.7,513.5 335.4,513.5 365.1,513.4 394.9,513.4 424.6,513.4 454.3,513.4 484.0,513.4 513.7,513.4 543.4,513.4 573.1,513.3 602.9,513.2 632.6,513.3 662.3,513.4 692.0,513.4 721.7,513.2 751.4,513.2 781.1,513.3 810.9,513.3 840.6,513.3 870.3,513.2 900.0,513.2 929.7,513.5 959.4,513.6 989.1,513.5 1018.9,513.5 1048.6,513.4 1078.3,513.5 1108.0,513.7 1108.0,516.0 1078.3,516.0 1048.6,516.0 1018.9,516.0 989.1,516.0 959.4,516.0 929.7,516.0 900.0,516.0 870.3,516.0 840.6,516.0 810.9,516.0 781.1,516.0 751.4,516.0 721.7,516.0 692.0,516.0 662.3,516.0 632.6,516.0 602.9,516.0 573.1,516.0 543.4,516.0 513.7,516.0 484.0,516.0 454.3,516.0 424.6,516.0 394.9,516.0 365.1,516.0 335.4,516.0 305.7,516.0 276.0,516.0 246.3,516.0 216.6,516.0 186.9,516.0 157.1,516.0 127.4,516.0 97.7,516.0 68.0,516.0" fill="#c7e9c0" fill-opacity="0.9" stroke="#fff" stroke-width="0.4"><title>mdl_dxr — parseTranslationUnit</title></polygon>
<polygon points="68.0,438.2 97.7,430.7 127.4,430.4 157.1,414.8 186.9,422.9 216.6,421.8 246.3,425.7 276.0,428.7 305.7,431.5 335.4,430.4 365.1,429.2 394.9,430.1 424.6,428.1 454.3,426.7 484.0,425.5 513.7,424.7 543.4,401.0 573.1,393.3 602.9,375.1 632.6,379.3 662.3,458.5 692.0,456.6 721.7,454.7 751.4,453.7 781.1,455.6 810.9,455.1 840.6,454.1 870.3,453.2 900.0,454.1 929.7,454.8 959.4,454.9 989.1,454.2 1018.9,454.6 1048.6,453.0 1078.3,453.5 1108.0,457.0 1108.0,513.7 1078.3,513.5 1048.6,513.4 1018.9,513.5 989.1,513.5 959.4,513.6 929.7,513.5 900.0,513.2 870.3,513.2 840.6,513.3 810.9,513.3 781.1,513.3 751.4,513.2 721.7,513.2 692.0,513.4 662.3,513.4 632.6,513.3 602.9,513.2 573.1,513.3 543.4,513.4 513.7,513.4 484.0,513.4 454.3,513.4 424.6,513.4 394.9,513.4 365.1,513.4 335.4,513.5 305.7,513.5 276.0,513.4 246.3,513.4 216.6,513.3 186.9,513.3 157.1,513.3 127.4,513.5 97.7,513.5 68.0,513.5" fill="#41ab5d" fill-opacity="0.9" stroke="#fff" stroke-width="0.4"><title>mdl_dxr — SemanticChecking</title></polygon>
<polygon points="68.0,437.6 97.7,430.1 127.4,429.8 157.1,414.2 186.9,422.2 216.6,421.1 246.3,425.1 276.0,428.1 305.7,430.9 335.4,429.8 365.1,428.6 394.9,429.4 424.6,427.4 454.3,426.1 484.0,424.9 513.7,424.1 543.4,397.8 573.1,389.4 602.9,371.1 632.6,375.3 662.3,457.7 692.0,455.9 721.7,453.9 751.4,452.9 781.1,454.9 810.9,454.3 840.6,453.3 870.3,452.3 900.0,453.3 929.7,454.0 959.4,454.1 989.1,453.4 1018.9,453.8 1048.6,452.2 1078.3,452.7 1108.0,456.2 1108.0,457.0 1078.3,453.5 1048.6,453.0 1018.9,454.6 989.1,454.2 959.4,454.9 929.7,454.8 900.0,454.1 870.3,453.2 840.6,454.1 810.9,455.1 781.1,455.6 751.4,453.7 721.7,454.7 692.0,456.6 662.3,458.5 632.6,379.3 602.9,375.1 573.1,393.3 543.4,401.0 513.7,424.7 484.0,425.5 454.3,426.7 424.6,428.1 394.9,430.1 365.1,429.2 335.4,430.4 305.7,431.5 276.0,428.7 246.3,425.7 216.6,421.8 186.9,422.9 157.1,414.8 127.4,430.4 97.7,430.7 68.0,438.2" fill="#006d2c" fill-opacity="0.9" stroke="#fff" stroke-width="0.4"><title>mdl_dxr — generateIR</title></polygon>
<polygon points="68.0,429.8 97.7,422.3 127.4,422.1 157.1,405.7 186.9,414.2 216.6,412.2 246.3,416.5 276.0,419.6 305.7,422.6 335.4,421.4 365.1,416.7 394.9,417.8 424.6,415.6 454.3,414.3 484.0,413.1 513.7,411.7 543.4,373.1 573.1,364.1 602.9,344.3 632.6,350.1 662.3,438.8 692.0,437.4 721.7,432.2 751.4,430.8 781.1,433.2 810.9,432.6 840.6,431.4 870.3,430.3 900.0,431.5 929.7,432.7 959.4,432.9 989.1,432.0 1018.9,434.2 1048.6,433.1 1078.3,433.5 1108.0,438.5 1108.0,456.2 1078.3,452.7 1048.6,452.2 1018.9,453.8 989.1,453.4 959.4,454.1 929.7,454.0 900.0,453.3 870.3,452.3 840.6,453.3 810.9,454.3 781.1,454.9 751.4,452.9 721.7,453.9 692.0,455.9 662.3,457.7 632.6,375.3 602.9,371.1 573.1,389.4 543.4,397.8 513.7,424.1 484.0,424.9 454.3,426.1 424.6,427.4 394.9,429.4 365.1,428.6 335.4,429.8 305.7,430.9 276.0,428.1 246.3,425.1 216.6,421.1 186.9,422.2 157.1,414.2 127.4,429.8 97.7,430.1 68.0,437.6" fill="#6baed6" fill-opacity="0.9" stroke="#fff" stroke-width="0.4"><title>mdl_dxr — specializeModule</title></polygon>
<polygon points="68.0,403.5 97.7,396.1 127.4,395.7 157.1,377.1 186.9,385.3 216.6,382.1 246.3,384.2 276.0,388.4 305.7,391.2 335.4,389.8 365.1,388.8 394.9,389.4 424.6,387.0 454.3,386.0 484.0,384.3 513.7,383.2 543.4,334.1 573.1,324.1 602.9,301.1 632.6,308.3 662.3,403.1 692.0,402.7 721.7,395.5 751.4,393.6 781.1,396.7 810.9,396.1 840.6,396.8 870.3,395.8 900.0,397.4 929.7,398.7 959.4,398.9 989.1,398.3 1018.9,405.6 1048.6,404.4 1078.3,404.7 1108.0,410.7 1108.0,438.5 1078.3,433.5 1048.6,433.1 1018.9,434.2 989.1,432.0 959.4,432.9 929.7,432.7 900.0,431.5 870.3,430.3 840.6,431.4 810.9,432.6 781.1,433.2 751.4,430.8 721.7,432.2 692.0,437.4 662.3,438.8 632.6,350.1 602.9,344.3 573.1,364.1 543.4,373.1 513.7,411.7 484.0,413.1 454.3,414.3 424.6,415.6 394.9,417.8 365.1,416.7 335.4,421.4 305.7,422.6 276.0,419.6 246.3,416.5 216.6,412.2 186.9,414.2 157.1,405.7 127.4,422.1 97.7,422.3 68.0,429.8" fill="#2171b5" fill-opacity="0.9" stroke="#fff" stroke-width="0.4"><title>mdl_dxr — simplifyIR</title></polygon>
<polygon points="68.0,401.0 97.7,393.6 127.4,393.2 157.1,374.1 186.9,382.5 216.6,379.4 246.3,381.5 276.0,385.9 305.7,388.7 335.4,387.3 365.1,386.3 394.9,386.7 424.6,384.4 454.3,383.4 484.0,381.5 513.7,380.5 543.4,327.9 573.1,317.1 602.9,293.5 632.6,301.5 662.3,400.4 692.0,400.0 721.7,392.9 751.4,390.9 781.1,394.1 810.9,393.4 840.6,394.1 870.3,393.0 900.0,394.8 929.7,396.1 959.4,396.3 989.1,395.6 1018.9,403.0 1048.6,401.7 1078.3,402.1 1108.0,408.1 1108.0,410.7 1078.3,404.7 1048.6,404.4 1018.9,405.6 989.1,398.3 959.4,398.9 929.7,398.7 900.0,397.4 870.3,395.8 840.6,396.8 810.9,396.1 781.1,396.7 751.4,393.6 721.7,395.5 692.0,402.7 662.3,403.1 632.6,308.3 602.9,301.1 573.1,324.1 543.4,334.1 513.7,383.2 484.0,384.3 454.3,386.0 424.6,387.0 394.9,389.4 365.1,388.8 335.4,389.8 305.7,391.2 276.0,388.4 246.3,384.2 216.6,382.1 186.9,385.3 157.1,377.1 127.4,395.7 97.7,396.1 68.0,403.5" fill="#08306b" fill-opacity="0.9" stroke="#fff" stroke-width="0.4"><title>mdl_dxr — linkIR</title></polygon>
<polygon points="68.0,400.9 97.7,393.5 127.4,393.1 157.1,374.0 186.9,382.4 216.6,379.3 246.3,381.4 276.0,385.8 305.7,388.5 335.4,387.2 365.1,386.2 394.9,386.6 424.6,384.3 454.3,383.3 484.0,381.4 513.7,380.4 543.4,327.8 573.1,317.0 602.9,293.5 632.6,301.5 662.3,400.4 692.0,399.9 721.7,392.9 751.4,390.8 781.1,394.0 810.9,393.4 840.6,394.1 870.3,393.0 900.0,394.7 929.7,396.0 959.4,396.2 989.1,395.5 1018.9,402.9 1048.6,401.6 1078.3,402.0 1108.0,407.9 1108.0,408.1 1078.3,402.1 1048.6,401.7 1018.9,403.0 989.1,395.6 959.4,396.3 929.7,396.1 900.0,394.8 870.3,393.0 840.6,394.1 810.9,393.4 781.1,394.1 751.4,390.9 721.7,392.9 692.0,400.0 662.3,400.4 632.6,301.5 602.9,293.5 573.1,317.1 543.4,327.9 513.7,380.5 484.0,381.5 454.3,383.4 424.6,384.4 394.9,386.7 365.1,386.3 335.4,387.3 305.7,388.7 276.0,385.9 246.3,381.5 216.6,379.4 186.9,382.5 157.1,374.1 127.4,393.2 97.7,393.6 68.0,401.0" fill="#9e9ac8" fill-opacity="0.9" stroke="#fff" stroke-width="0.4"><title>mdl_dxr — unrollLoopsInModule</title></polygon>
<polygon points="68.0,388.4 97.7,381.0 127.4,380.1 157.1,360.0 186.9,375.4 216.6,372.1 246.3,374.1 276.0,378.8 305.7,381.5 335.4,380.2 365.1,379.1 394.9,379.6 424.6,377.2 454.3,376.2 484.0,374.3 513.7,373.3 543.4,320.7 573.1,309.7 602.9,285.7 632.6,294.0 662.3,393.1 692.0,392.7 721.7,385.6 751.4,383.5 781.1,386.8 810.9,386.0 840.6,386.9 870.3,385.8 900.0,387.5 929.7,388.8 959.4,389.0 989.1,388.4 1018.9,401.1 1048.6,399.7 1078.3,400.1 1108.0,406.1 1108.0,407.9 1078.3,402.0 1048.6,401.6 1018.9,402.9 989.1,395.5 959.4,396.2 929.7,396.0 900.0,394.7 870.3,393.0 840.6,394.1 810.9,393.4 781.1,394.0 751.4,390.8 721.7,392.9 692.0,399.9 662.3,400.4 632.6,301.5 602.9,293.5 573.1,317.0 543.4,327.8 513.7,380.4 484.0,381.4 454.3,383.3 424.6,384.3 394.9,386.6 365.1,386.2 335.4,387.2 305.7,388.5 276.0,385.8 246.3,381.4 216.6,379.3 186.9,382.4 157.1,374.0 127.4,393.1 97.7,393.5 68.0,400.9" fill="#807dba" fill-opacity="0.9" stroke="#fff" stroke-width="0.4"><title>mdl_dxr — legalizeResourceTypes</title></polygon>
<polygon points="68.0,375.9 97.7,368.4 127.4,366.8 157.1,346.0 186.9,368.2 216.6,364.8 246.3,366.9 276.0,371.7 305.7,374.3 335.4,373.1 365.1,371.9 394.9,372.5 424.6,370.0 454.3,369.1 484.0,367.2 513.7,366.0 543.4,313.5 573.1,302.3 602.9,278.1 632.6,286.2 662.3,385.7 692.0,385.5 721.7,378.2 751.4,376.1 781.1,379.6 810.9,378.6 840.6,379.7 870.3,378.5 900.0,380.3 929.7,381.5 959.4,381.7 989.1,381.1 1018.9,399.0 1048.6,397.6 1078.3,398.1 1108.0,404.1 1108.0,406.1 1078.3,400.1 1048.6,399.7 1018.9,401.1 989.1,388.4 959.4,389.0 929.7,388.8 900.0,387.5 870.3,385.8 840.6,386.9 810.9,386.0 781.1,386.8 751.4,383.5 721.7,385.6 692.0,392.7 662.3,393.1 632.6,294.0 602.9,285.7 573.1,309.7 543.4,320.7 513.7,373.3 484.0,374.3 454.3,376.2 424.6,377.2 394.9,379.6 365.1,379.1 335.4,380.2 305.7,381.5 276.0,378.8 246.3,374.1 216.6,372.1 186.9,375.4 157.1,360.0 127.4,380.1 97.7,381.0 68.0,388.4" fill="#6a51a3" fill-opacity="0.9" stroke="#fff" stroke-width="0.4"><title>mdl_dxr — legalizeExistentialTypeLayout</title></polygon>
<polygon points="68.0,375.4 97.7,367.8 127.4,366.2 157.1,345.4 186.9,367.6 216.6,364.2 246.3,366.3 276.0,371.1 305.7,373.7 335.4,372.5 365.1,371.3 394.9,371.9 424.6,369.4 454.3,368.5 484.0,366.5 513.7,365.4 543.4,313.0 573.1,301.8 602.9,277.6 632.6,285.6 662.3,385.2 692.0,385.0 721.7,377.7 751.4,375.6 781.1,379.1 810.9,378.2 840.6,379.2 870.3,378.0 900.0,379.8 929.7,380.9 959.4,381.1 989.1,380.4 1018.9,398.3 1048.6,397.0 1078.3,397.4 1108.0,403.4 1108.0,404.1 1078.3,398.1 1048.6,397.6 1018.9,399.0 989.1,381.1 959.4,381.7 929.7,381.5 900.0,380.3 870.3,378.5 840.6,379.7 810.9,378.6 781.1,379.6 751.4,376.1 721.7,378.2 692.0,385.5 662.3,385.7 632.6,286.2 602.9,278.1 573.1,302.3 543.4,313.5 513.7,366.0 484.0,367.2 454.3,369.1 424.6,370.0 394.9,372.5 365.1,371.9 335.4,373.1 305.7,374.3 276.0,371.7 246.3,366.9 216.6,364.8 186.9,368.2 157.1,346.0 127.4,366.8 97.7,368.4 68.0,375.9" fill="#bcbddc" fill-opacity="0.9" stroke="#fff" stroke-width="0.4"><title>mdl_dxr — performMandatoryEarlyInlining</title></polygon>
<polygon points="68.0,374.9 97.7,367.4 127.4,365.8 157.1,344.9 186.9,367.1 216.6,363.7 246.3,365.8 276.0,370.6 305.7,373.3 335.4,372.1 365.1,370.8 394.9,371.5 424.6,368.8 454.3,367.9 484.0,365.9 513.7,364.8 543.4,312.4 573.1,301.1 602.9,276.9 632.6,285.0 662.3,384.5 692.0,384.3 721.7,377.1 751.4,375.0 781.1,378.4 810.9,377.5 840.6,378.5 870.3,377.4 900.0,379.1 929.7,380.2 959.4,380.5 989.1,379.8 1018.9,397.7 1048.6,396.4 1078.3,396.8 1108.0,402.8 1108.0,403.4 1078.3,397.4 1048.6,397.0 1018.9,398.3 989.1,380.4 959.4,381.1 929.7,380.9 900.0,379.8 870.3,378.0 840.6,379.2 810.9,378.2 781.1,379.1 751.4,375.6 721.7,377.7 692.0,385.0 662.3,385.2 632.6,285.6 602.9,277.6 573.1,301.8 543.4,313.0 513.7,365.4 484.0,366.5 454.3,368.5 424.6,369.4 394.9,371.9 365.1,371.3 335.4,372.5 305.7,373.7 276.0,371.1 246.3,366.3 216.6,364.2 186.9,367.6 157.1,345.4 127.4,366.2 97.7,367.8 68.0,375.4" fill="#dadaeb" fill-opacity="0.9" stroke="#fff" stroke-width="0.4"><title>mdl_dxr — performForceInlining</title></polygon>
<polygon points="68.0,355.4 97.7,347.5 127.4,346.2 157.1,323.2 186.9,340.5 216.6,336.1 246.3,341.4 276.0,347.0 305.7,348.5 335.4,347.4 365.1,345.6 394.9,346.3 424.6,343.6 454.3,343.0 484.0,340.0 513.7,338.0 543.4,275.6 573.1,262.8 602.9,235.8 632.6,245.8 662.3,353.6 692.0,354.5 721.7,345.2 751.4,342.3 781.1,346.8 810.9,346.0 840.6,350.9 870.3,350.2 900.0,351.5 929.7,352.4 959.4,352.6 989.1,352.4 1018.9,374.7 1048.6,373.6 1078.3,374.5 1108.0,383.7 1108.0,402.8 1078.3,396.8 1048.6,396.4 1018.9,397.7 989.1,379.8 959.4,380.5 929.7,380.2 900.0,379.1 870.3,377.4 840.6,378.5 810.9,377.5 781.1,378.4 751.4,375.0 721.7,377.1 692.0,384.3 662.3,384.5 632.6,285.0 602.9,276.9 573.1,301.1 543.4,312.4 513.7,364.8 484.0,365.9 454.3,367.9 424.6,368.8 394.9,371.5 365.1,370.8 335.4,372.1 305.7,373.3 276.0,370.6 246.3,365.8 216.6,363.7 186.9,367.1 157.1,344.9 127.4,365.8 97.7,367.4 68.0,374.9" fill="#4a1486" fill-opacity="0.9" stroke="#fff" stroke-width="0.4"><title>mdl_dxr — linkAndOptimizeIR (self)</title></polygon>
<polygon points="68.0,219.3 97.7,210.3 127.4,210.5 157.1,192.3 186.9,224.2 216.6,220.3 246.3,235.4 276.0,246.5 305.7,248.6 335.4,247.5 365.1,247.6 394.9,246.8 424.6,243.4 454.3,243.6 484.0,239.6 513.7,238.6 543.4,177.2 573.1,147.3 602.9,108.6 632.6,121.8 662.3,242.7 692.0,254.9 721.7,240.8 751.4,239.6 781.1,243.1 810.9,243.5 840.6,252.6 870.3,251.8 900.0,249.6 929.7,251.4 959.4,254.1 989.1,251.1 1018.9,280.2 1048.6,277.5 1078.3,275.8 1108.0,289.2 1108.0,383.7 1078.3,374.5 1048.6,373.6 1018.9,374.7 989.1,352.4 959.4,352.6 929.7,352.4 900.0,351.5 870.3,350.2 840.6,350.9 810.9,346.0 781.1,346.8 751.4,342.3 721.7,345.2 692.0,354.5 662.3,353.6 632.6,245.8 602.9,235.8 573.1,262.8 543.4,275.6 513.7,338.0 484.0,340.0 454.3,343.0 424.6,343.6 394.9,346.3 365.1,345.6 335.4,347.4 305.7,348.5 276.0,347.0 246.3,341.4 216.6,336.1 186.9,340.5 157.1,323.2 127.4,346.2 97.7,347.5 68.0,355.4" fill="#e6550d" fill-opacity="0.9" stroke="#fff" stroke-width="0.4"><title>mdl_dxr — generateOutput (self)</title></polygon>
<polygon points="68.0,218.0 97.7,210.3 127.4,209.5 157.1,188.5 186.9,224.2 216.6,214.7 246.3,234.8 276.0,245.7 305.7,248.3 335.4,247.2 365.1,247.4 394.9,246.7 424.6,241.6 454.3,242.7 484.0,239.2 513.7,238.6 543.4,175.7 573.1,142.8 602.9,108.6 632.6,120.3 662.3,242.7 692.0,254.3 721.7,240.6 751.4,239.3 781.1,242.4 810.9,243.3 840.6,252.5 870.3,251.5 900.0,249.1 929.7,251.3 959.4,252.9 989.1,250.4 1018.9,279.7 1048.6,276.2 1078.3,274.9 1108.0,288.8 1108.0,289.2 1078.3,275.8 1048.6,277.5 1018.9,280.2 989.1,251.1 959.4,254.1 929.7,251.4 900.0,249.6 870.3,251.8 840.6,252.6 810.9,243.5 781.1,243.1 751.4,239.6 721.7,240.8 692.0,254.9 662.3,242.7 632.6,121.8 602.9,108.6 573.1,147.3 543.4,177.2 513.7,238.6 484.0,239.6 454.3,243.6 424.6,243.4 394.9,246.8 365.1,247.6 335.4,247.5 305.7,248.6 276.0,246.5 246.3,235.4 216.6,220.3 186.9,224.2 157.1,192.3 127.4,210.5 97.7,210.3 68.0,219.3" fill="#969696" fill-opacity="0.9" stroke="#fff" stroke-width="0.4"><title>mdl_dxr — compileInner (self)</title></polygon>
<text x="12" y="578" fill="#666" font-weight="600">phase buckets</text>
<rect x="12" y="586" width="12" height="12" fill="#c7e9c0"/>
<text x="28" y="596" fill="#222">parseTranslationUnit</text>
<rect x="289" y="586" width="12" height="12" fill="#41ab5d"/>
<text x="305" y="596" fill="#222">SemanticChecking</text>
<rect x="566" y="586" width="12" height="12" fill="#006d2c"/>
<text x="582" y="596" fill="#222">generateIR</text>
<rect x="843" y="586" width="12" height="12" fill="#74c476"/>
<text x="859" y="596" fill="#222">frontEndExecute (self)</text>
<rect x="12" y="604" width="12" height="12" fill="#6baed6"/>
<text x="28" y="614" fill="#222">specializeModule</text>
<rect x="289" y="604" width="12" height="12" fill="#2171b5"/>
<text x="305" y="614" fill="#222">simplifyIR</text>
<rect x="566" y="604" width="12" height="12" fill="#08306b"/>
<text x="582" y="614" fill="#222">linkIR</text>
<rect x="843" y="604" width="12" height="12" fill="#9e9ac8"/>
<text x="859" y="614" fill="#222">unrollLoopsInModule</text>
<rect x="12" y="622" width="12" height="12" fill="#807dba"/>
<text x="28" y="632" fill="#222">legalizeResourceTypes</text>
<rect x="289" y="622" width="12" height="12" fill="#6a51a3"/>
<text x="305" y="632" fill="#222">legalizeExistentialTypeLayout</text>
<rect x="566" y="622" width="12" height="12" fill="#bcbddc"/>
<text x="582" y="632" fill="#222">performMandatoryEarlyInlining</text>
<rect x="843" y="622" width="12" height="12" fill="#dadaeb"/>
<text x="859" y="632" fill="#222">performForceInlining</text>
<rect x="12" y="640" width="12" height="12" fill="#4a1486"/>
<text x="28" y="650" fill="#222">linkAndOptimizeIR (self)</text>
<rect x="289" y="640" width="12" height="12" fill="#fd8d3c"/>
<text x="305" y="650" fill="#222">emitEntryPointsSourceFromIR</text>
<rect x="566" y="640" width="12" height="12" fill="#e6550d"/>
<text x="582" y="650" fill="#222">generateOutput (self)</text>
<rect x="843" y="640" width="12" height="12" fill="#969696"/>
<text x="859" y="650" fill="#222">compileInner (self)</text>
</svg>