<svg xmlns="http://www.w3.org/2000/svg" xmlns:xlink="http://www.w3.org/1999/xlink" width="1132" height="680" viewBox="0 0 1132 680" preserveAspectRatio="xMidYMid meet" font-family="sans-serif" font-size="13">
<rect width="1132" height="680" fill="white"/>
<text x="12" y="30" font-size="20" font-weight="bold">mdl_dxr — full phase breakdown across releases (median ms)</text>
<text x="68" y="60" font-size="15" font-weight="600" fill="#1a1a1a">mdl_dxr<tspan fill="#888" font-weight="400" text-decoration="none">  0.82×</tspan></text>
<line x1="68.0" y1="516.0" x2="1108.0" y2="516.0" stroke="#eee"/>
<text x="64.0" y="519.0" text-anchor="end" fill="#999">0.0</text>
<line x1="68.0" y1="296.0" x2="1108.0" y2="296.0" stroke="#eee"/>
<text x="64.0" y="299.0" text-anchor="end" fill="#999">877</text>
<line x1="68.0" y1="76.0" x2="1108.0" y2="76.0" stroke="#eee"/>
<text x="64.0" y="79.0" text-anchor="end" fill="#999">1753</text>
<line x1="68.0" y1="76.0" x2="68.0" y2="516.0" stroke="#333"/>
<line x1="68.0" y1="516.0" x2="1108.0" y2="516.0" stroke="#333"/>
<line x1="672.3" y1="76.0" x2="672.3" y2="516.0" stroke="#e8731a" stroke-width="1.2" stroke-dasharray="4 3"/>
<text x="675.3" y="87.0" fill="#e8731a" font-size="11">daily →</text>
<line x1="68.0" y1="516.0" x2="68.0" y2="519.0" stroke="#999"/>
<text x="68.0" y="531.0" text-anchor="end" fill="#666" transform="rotate(-50 68.0 531.0)">25.14</text>
<line x1="96.1" y1="516.0" x2="96.1" y2="519.0" stroke="#999"/>
<text x="96.1" y="531.0" text-anchor="end" fill="#666" transform="rotate(-50 96.1 531.0)">25.15</text>
<line x1="124.2" y1="516.0" x2="124.2" y2="519.0" stroke="#999"/>
<text x="124.2" y="531.0" text-anchor="end" fill="#666" transform="rotate(-50 124.2 531.0)">25.16</text>
<line x1="152.3" y1="516.0" x2="152.3" y2="519.0" stroke="#999"/>
<text x="152.3" y="531.0" text-anchor="end" fill="#666" transform="rotate(-50 152.3 531.0)">25.17</text>
<line x1="180.4" y1="516.0" x2="180.4" y2="519.0" stroke="#999"/>
<text x="180.4" y="531.0" text-anchor="end" fill="#666" transform="rotate(-50 180.4 531.0)">25.18</text>
<line x1="208.5" y1="516.0" x2="208.5" y2="519.0" stroke="#999"/>
<text x="208.5" y="531.0" text-anchor="end" fill="#666" transform="rotate(-50 208.5 531.0)">25.19</text>
<line x1="236.6" y1="516.0" x2="236.6" y2="519.0" stroke="#999"/>
<text x="236.6" y="531.0" text-anchor="end" fill="#666" transform="rotate(-50 236.6 531.0)">25.20</text>
<line x1="264.8" y1="516.0" x2="264.8" y2="519.0" stroke="#999"/>
<text x="264.8" y="531.0" text-anchor="end" fill="#666" transform="rotate(-50 264.8 531.0)">25.21</text>
<line x1="292.9" y1="516.0" x2="292.9" y2="519.0" stroke="#999"/>
<text x="292.9" y="531.0" text-anchor="end" fill="#666" transform="rotate(-50 292.9 531.0)">25.22</text>
<line x1="321.0" y1="516.0" x2="321.0" y2="519.0" stroke="#999"/>
<text x="321.0" y="531.0" text-anchor="end" fill="#666" transform="rotate(-50 321.0 531.0)">25.23</text>
<line x1="349.1" y1="516.0" x2="349.1" y2="519.0" stroke="#999"/>
<text x="349.1" y="531.0" text-anchor="end" fill="#666" transform="rotate(-50 349.1 531.0)">25.24</text>
<line x1="377.2" y1="516.0" x2="377.2" y2="519.0" stroke="#999"/>
<text x="377.2" y="531.0" text-anchor="end" fill="#666" transform="rotate(-50 377.2 531.0)">26.1</text>
<line x1="405.3" y1="516.0" x2="405.3" y2="519.0" stroke="#999"/>
<text x="405.3" y="531.0" text-anchor="end" fill="#666" transform="rotate(-50 405.3 531.0)">26.2</text>
<line x1="433.4" y1="516.0" x2="433.4" y2="519.0" stroke="#999"/>
<text x="433.4" y="531.0" text-anchor="end" fill="#666" transform="rotate(-50 433.4 531.0)">26.3</text>
<line x1="461.5" y1="516.0" x2="461.5" y2="519.0" stroke="#999"/>
<text x="461.5" y="531.0" text-anchor="end" fill="#666" transform="rotate(-50 461.5 531.0)">26.4</text>
<line x1="489.6" y1="516.0" x2="489.6" y2="519.0" stroke="#999"/>
<text x="489.6" y="531.0" text-anchor="end" fill="#666" transform="rotate(-50 489.6 531.0)">26.5</text>
<line x1="517.7" y1="516.0" x2="517.7" y2="519.0" stroke="#999"/>
<text x="517.7" y="531.0" text-anchor="end" fill="#666" transform="rotate(-50 517.7 531.0)">26.7</text>
<line x1="545.8" y1="516.0" x2="545.8" y2="519.0" stroke="#999"/>
<text x="545.8" y="531.0" text-anchor="end" fill="#666" transform="rotate(-50 545.8 531.0)">26.8</text>
<line x1="573.9" y1="516.0" x2="573.9" y2="519.0" stroke="#999"/>
<text x="573.9" y="531.0" text-anchor="end" fill="#666" transform="rotate(-50 573.9 531.0)">26.9</text>
<line x1="602.1" y1="516.0" x2="602.1" y2="519.0" stroke="#999"/>
<text x="602.1" y="531.0" text-anchor="end" fill="#666" transform="rotate(-50 602.1 531.0)">26.10</text>
<line x1="630.2" y1="516.0" x2="630.2" y2="519.0" stroke="#999"/>
<text x="630.2" y="531.0" text-anchor="end" fill="#666" transform="rotate(-50 630.2 531.0)">26.11</text>
<line x1="658.3" y1="516.0" x2="658.3" y2="519.0" stroke="#999"/>
<text x="658.3" y="531.0" text-anchor="end" fill="#666" transform="rotate(-50 658.3 531.0)">26.12</text>
<line x1="686.4" y1="516.0" x2="686.4" y2="519.0" stroke="#999"/>
<text x="686.4" y="531.0" text-anchor="end" fill="#e8731a" transform="rotate(-50 686.4 531.0)">06-25</text>
<line x1="714.5" y1="516.0" x2="714.5" y2="519.0" stroke="#999"/>
<text x="714.5" y="531.0" text-anchor="end" fill="#e8731a" transform="rotate(-50 714.5 531.0)">06-26</text>
<line x1="742.6" y1="516.0" x2="742.6" y2="519.0" stroke="#999"/>
<text x="742.6" y="531.0" text-anchor="end" fill="#e8731a" transform="rotate(-50 742.6 531.0)">06-28</text>
<line x1="770.7" y1="516.0" x2="770.7" y2="519.0" stroke="#999"/>
<text x="770.7" y="531.0" text-anchor="end" fill="#e8731a" transform="rotate(-50 770.7 531.0)">07-01</text>
<line x1="798.8" y1="516.0" x2="798.8" y2="519.0" stroke="#999"/>
<text x="798.8" y="531.0" text-anchor="end" fill="#e8731a" transform="rotate(-50 798.8 531.0)">07-02</text>
<line x1="826.9" y1="516.0" x2="826.9" y2="519.0" stroke="#999"/>
<text x="826.9" y="531.0" text-anchor="end" fill="#e8731a" transform="rotate(-50 826.9 531.0)">07-03</text>
<line x1="855.0" y1="516.0" x2="855.0" y2="519.0" stroke="#999"/>
<text x="855.0" y="531.0" text-anchor="end" fill="#e8731a" transform="rotate(-50 855.0 531.0)">07-06</text>
<line x1="883.1" y1="516.0" x2="883.1" y2="519.0" stroke="#999"/>
<text x="883.1" y="531.0" text-anchor="end" fill="#e8731a" transform="rotate(-50 883.1 531.0)">07-07</text>
<line x1="911.2" y1="516.0" x2="911.2" y2="519.0" stroke="#999"/>
<text x="911.2" y="531.0" text-anchor="end" fill="#e8731a" transform="rotate(-50 911.2 531.0)">07-07</text>
<line x1="939.4" y1="516.0" x2="939.4" y2="519.0" stroke="#999"/>
<text x="939.4" y="531.0" text-anchor="end" fill="#e8731a" transform="rotate(-50 939.4 531.0)">07-08</text>
<line x1="967.5" y1="516.0" x2="967.5" y2="519.0" stroke="#999"/>
<text x="967.5" y="531.0" text-anchor="end" fill="#e8731a" transform="rotate(-50 967.5 531.0)">07-09</text>
<line x1="995.6" y1="516.0" x2="995.6" y2="519.0" stroke="#999"/>
<text x="995.6" y="531.0" text-anchor="end" fill="#e8731a" transform="rotate(-50 995.6 531.0)">07-09</text>
<line x1="1023.7" y1="516.0" x2="1023.7" y2="519.0" stroke="#999"/>
<text x="1023.7" y="531.0" text-anchor="end" fill="#e8731a" transform="rotate(-50 1023.7 531.0)">07-10</text>
<line x1="1051.8" y1="516.0" x2="1051.8" y2="519.0" stroke="#999"/>
<text x="1051.8" y="531.0" text-anchor="end" fill="#e8731a" transform="rotate(-50 1051.8 531.0)">07-10</text>
<line x1="1079.9" y1="516.0" x2="1079.9" y2="519.0" stroke="#999"/>
<text x="1079.9" y="531.0" text-anchor="end" fill="#e8731a" transform="rotate(-50 1079.9 531.0)">07-11</text>
<line x1="1108.0" y1="516.0" x2="1108.0" y2="519.0" stroke="#999"/>
<text x="1108.0" y="531.0" text-anchor="end" fill="#e8731a" transform="rotate(-50 1108.0 531.0)">07-11</text>
<polygon points="68.0,513.0 96.1,513.0 124.2,512.9 152.3,512.9 180.4,512.6 208.5,512.7 236.6,512.5 264.8,512.6 292.9,512.5 321.0,512.9 349.1,512.9 377.2,512.9 405.3,513.0 433.4,512.9 461.5,512.8 489.6,512.9 517.7,512.9 545.8,512.8 573.9,512.9 602.1,512.8 630.2,512.9 658.3,512.8 686.4,512.7 714.5,512.7 742.6,512.7 770.7,512.6 798.8,512.8 826.9,512.7 855.0,512.7 883.1,513.0 911.2,513.0 939.4,513.1 967.5,512.9 995.6,513.0 1023.7,513.0 1051.8,513.0 1079.9,512.9 1108.0,512.9 1108.0,516.0 1079.9,516.0 1051.8,516.0 1023.7,516.0 995.6,516.0 967.5,516.0 939.4,516.0 911.2,516.0 883.1,516.0 855.0,516.0 826.9,516.0 798.8,516.0 770.7,516.0 742.6,516.0 714.5,516.0 686.4,516.0 658.3,516.0 630.2,516.0 602.1,516.0 573.9,516.0 545.8,516.0 517.7,516.0 489.6,516.0 461.5,516.0 433.4,516.0 405.3,516.0 377.2,516.0 349.1,516.0 321.0,516.0 292.9,516.0 264.8,516.0 236.6,516.0 208.5,516.0 180.4,516.0 152.3,516.0 124.2,516.0 96.1,516.0 68.0,516.0" fill="#c7e9c0" fill-opacity="0.9" stroke="#fff" stroke-width="0.4"><title>mdl_dxr — parseTranslationUnit</title></polygon>
<polygon points="68.0,424.7 96.1,416.4 124.2,416.6 152.3,407.5 180.4,405.5 208.5,409.9 236.6,401.4 264.8,402.7 292.9,405.7 321.0,411.7 349.1,414.0 377.2,413.5 405.3,411.5 433.4,412.1 461.5,410.2 489.6,410.6 517.7,380.2 545.8,379.0 573.9,379.4 602.1,374.3 630.2,450.2 658.3,446.8 686.4,442.9 714.5,442.0 742.6,442.7 770.7,442.6 798.8,442.7 826.9,440.5 855.0,441.7 883.1,442.0 911.2,442.6 939.4,442.6 967.5,443.0 995.6,441.8 1023.7,442.0 1051.8,442.3 1079.9,441.8 1108.0,440.4 1108.0,512.9 1079.9,512.9 1051.8,513.0 1023.7,513.0 995.6,513.0 967.5,512.9 939.4,513.1 911.2,513.0 883.1,513.0 855.0,512.7 826.9,512.7 798.8,512.8 770.7,512.6 742.6,512.7 714.5,512.7 686.4,512.7 658.3,512.8 630.2,512.9 602.1,512.8 573.9,512.9 545.8,512.8 517.7,512.9 489.6,512.9 461.5,512.8 433.4,512.9 405.3,513.0 377.2,512.9 349.1,512.9 321.0,512.9 292.9,512.5 264.8,512.6 236.6,512.5 208.5,512.7 180.4,512.6 152.3,512.9 124.2,512.9 96.1,513.0 68.0,513.0" fill="#41ab5d" fill-opacity="0.9" stroke="#fff" stroke-width="0.4"><title>mdl_dxr — SemanticChecking</title></polygon>
<polygon points="68.0,424.1 96.1,415.7 124.2,415.9 152.3,406.7 180.4,404.8 208.5,409.2 236.6,400.7 264.8,401.9 292.9,404.9 321.0,410.9 349.1,413.3 377.2,412.7 405.3,410.8 433.4,411.3 461.5,409.5 489.6,409.9 517.7,376.3 545.8,375.0 573.9,375.6 602.1,370.4 630.2,449.3 658.3,446.0 686.4,442.0 714.5,441.0 742.6,441.7 770.7,441.7 798.8,441.8 826.9,439.6 855.0,440.7 883.1,441.0 911.2,441.6 939.4,441.7 967.5,442.0 995.6,440.8 1023.7,441.0 1051.8,441.4 1079.9,440.8 1108.0,439.4 1108.0,440.4 1079.9,441.8 1051.8,442.3 1023.7,442.0 995.6,441.8 967.5,443.0 939.4,442.6 911.2,442.6 883.1,442.0 855.0,441.7 826.9,440.5 798.8,442.7 770.7,442.6 742.6,442.7 714.5,442.0 686.4,442.9 658.3,446.8 630.2,450.2 602.1,374.3 573.9,379.4 545.8,379.0 517.7,380.2 489.6,410.6 461.5,410.2 433.4,412.1 405.3,411.5 377.2,413.5 349.1,414.0 321.0,411.7 292.9,405.7 264.8,402.7 236.6,401.4 208.5,409.9 180.4,405.5 152.3,407.5 124.2,416.6 96.1,416.4 68.0,424.7" fill="#006d2c" fill-opacity="0.9" stroke="#fff" stroke-width="0.4"><title>mdl_dxr — generateIR</title></polygon>
<polygon points="68.0,415.0 96.1,406.7 124.2,406.8 152.3,397.3 180.4,395.4 208.5,399.3 236.6,390.5 264.8,391.2 292.9,394.5 321.0,401.0 349.1,399.5 377.2,398.9 405.3,396.8 433.4,397.4 461.5,395.5 489.6,395.3 517.7,347.0 545.8,345.7 573.9,346.7 602.1,341.2 630.2,427.4 658.3,424.2 686.4,415.6 714.5,414.8 742.6,415.5 770.7,415.9 798.8,416.2 826.9,413.1 855.0,414.5 883.1,415.5 911.2,416.1 939.4,416.2 967.5,416.2 995.6,415.2 1023.7,417.5 1051.8,417.7 1079.9,417.6 1108.0,416.4 1108.0,439.4 1079.9,440.8 1051.8,441.4 1023.7,441.0 995.6,440.8 967.5,442.0 939.4,441.7 911.2,441.6 883.1,441.0 855.0,440.7 826.9,439.6 798.8,441.8 770.7,441.7 742.6,441.7 714.5,441.0 686.4,442.0 658.3,446.0 630.2,449.3 602.1,370.4 573.9,375.6 545.8,375.0 517.7,376.3 489.6,409.9 461.5,409.5 433.4,411.3 405.3,410.8 377.2,412.7 349.1,413.3 321.0,410.9 292.9,404.9 264.8,401.9 236.6,400.7 208.5,409.2 180.4,404.8 152.3,406.7 124.2,415.9 96.1,415.7 68.0,424.1" fill="#6baed6" fill-opacity="0.9" stroke="#fff" stroke-width="0.4"><title>mdl_dxr — specializeModule</title></polygon>
<polygon points="68.0,384.4 96.1,375.7 124.2,376.2 152.3,364.6 180.4,361.7 208.5,365.5 236.6,351.3 264.8,350.1 292.9,355.0 321.0,363.7 349.1,366.9 377.2,365.4 405.3,363.6 433.4,364.0 461.5,361.9 489.6,361.6 517.7,300.9 545.8,299.3 573.9,301.3 602.1,295.0 630.2,386.1 658.3,383.1 686.4,371.2 714.5,370.7 742.6,371.1 770.7,372.6 798.8,376.6 826.9,371.7 855.0,373.6 883.1,375.1 911.2,375.2 939.4,375.4 967.5,375.2 995.6,374.7 1023.7,383.5 1051.8,383.5 1079.9,383.6 1108.0,382.0 1108.0,416.4 1079.9,417.6 1051.8,417.7 1023.7,417.5 995.6,415.2 967.5,416.2 939.4,416.2 911.2,416.1 883.1,415.5 855.0,414.5 826.9,413.1 798.8,416.2 770.7,415.9 742.6,415.5 714.5,414.8 686.4,415.6 658.3,424.2 630.2,427.4 602.1,341.2 573.9,346.7 545.8,345.7 517.7,347.0 489.6,395.3 461.5,395.5 433.4,397.4 405.3,396.8 377.2,398.9 349.1,399.5 321.0,401.0 292.9,394.5 264.8,391.2 236.6,390.5 208.5,399.3 180.4,395.4 152.3,397.3 124.2,406.8 96.1,406.7 68.0,415.0" fill="#2171b5" fill-opacity="0.9" stroke="#fff" stroke-width="0.4"><title>mdl_dxr — simplifyIR</title></polygon>
<polygon points="68.0,381.4 96.1,372.7 124.2,373.3 152.3,361.4 180.4,358.4 208.5,362.4 236.6,347.9 264.8,346.8 292.9,351.7 321.0,360.6 349.1,363.9 377.2,362.4 405.3,360.6 433.4,360.9 461.5,358.7 489.6,358.4 517.7,292.8 545.8,290.7 573.9,293.3 602.1,287.3 630.2,383.1 658.3,380.1 686.4,368.1 714.5,367.5 742.6,368.0 770.7,369.4 798.8,373.5 826.9,368.4 855.0,370.5 883.1,371.9 911.2,372.1 939.4,372.3 967.5,372.0 995.6,371.5 1023.7,380.4 1051.8,380.4 1079.9,380.4 1108.0,378.8 1108.0,382.0 1079.9,383.6 1051.8,383.5 1023.7,383.5 995.6,374.7 967.5,375.2 939.4,375.4 911.2,375.2 883.1,375.1 855.0,373.6 826.9,371.7 798.8,376.6 770.7,372.6 742.6,371.1 714.5,370.7 686.4,371.2 658.3,383.1 630.2,386.1 602.1,295.0 573.9,301.3 545.8,299.3 517.7,300.9 489.6,361.6 461.5,361.9 433.4,364.0 405.3,363.6 377.2,365.4 349.1,366.9 321.0,363.7 292.9,355.0 264.8,350.1 236.6,351.3 208.5,365.5 180.4,361.7 152.3,364.6 124.2,376.2 96.1,375.7 68.0,384.4" fill="#08306b" fill-opacity="0.9" stroke="#fff" stroke-width="0.4"><title>mdl_dxr — linkIR</title></polygon>
<polygon points="68.0,381.3 96.1,372.6 124.2,373.2 152.3,361.2 180.4,358.3 208.5,362.2 236.6,347.8 264.8,346.6 292.9,351.6 321.0,360.5 349.1,363.8 377.2,362.2 405.3,360.4 433.4,360.7 461.5,358.5 489.6,358.3 517.7,292.8 545.8,290.6 573.9,293.2 602.1,287.2 630.2,383.0 658.3,380.0 686.4,368.0 714.5,367.4 742.6,367.9 770.7,369.4 798.8,373.5 826.9,368.3 855.0,370.4 883.1,371.8 911.2,371.9 939.4,372.1 967.5,371.8 995.6,371.4 1023.7,380.3 1051.8,380.2 1079.9,380.3 1108.0,378.6 1108.0,378.8 1079.9,380.4 1051.8,380.4 1023.7,380.4 995.6,371.5 967.5,372.0 939.4,372.3 911.2,372.1 883.1,371.9 855.0,370.5 826.9,368.4 798.8,373.5 770.7,369.4 742.6,368.0 714.5,367.5 686.4,368.1 658.3,380.1 630.2,383.1 602.1,287.3 573.9,293.3 545.8,290.7 517.7,292.8 489.6,358.4 461.5,358.7 433.4,360.9 405.3,360.6 377.2,362.4 349.1,363.9 321.0,360.6 292.9,351.7 264.8,346.8 236.6,347.9 208.5,362.4 180.4,358.4 152.3,361.4 124.2,373.3 96.1,372.7 68.0,381.4" fill="#9e9ac8" fill-opacity="0.9" stroke="#fff" stroke-width="0.4"><title>mdl_dxr — unrollLoopsInModule</title></polygon>
<polygon points="68.0,366.0 96.1,357.9 124.2,358.6 152.3,346.2 180.4,349.8 208.5,354.1 236.6,338.7 264.8,337.7 292.9,342.7 321.0,352.1 349.1,355.5 377.2,353.8 405.3,352.0 433.4,352.3 461.5,349.9 489.6,349.9 517.7,284.2 545.8,281.8 573.9,284.8 602.1,278.8 630.2,374.6 658.3,371.5 686.4,359.4 714.5,358.8 742.6,359.2 770.7,360.8 798.8,365.0 826.9,359.7 855.0,361.8 883.1,363.2 911.2,363.3 939.4,363.5 967.5,363.3 995.6,362.8 1023.7,371.7 1051.8,378.0 1079.9,378.0 1108.0,376.4 1108.0,378.6 1079.9,380.3 1051.8,380.2 1023.7,380.3 995.6,371.4 967.5,371.8 939.4,372.1 911.2,371.9 883.1,371.8 855.0,370.4 826.9,368.3 798.8,373.5 770.7,369.4 742.6,367.9 714.5,367.4 686.4,368.0 658.3,380.0 630.2,383.0 602.1,287.2 573.9,293.2 545.8,290.6 517.7,292.8 489.6,358.3 461.5,358.5 433.4,360.7 405.3,360.4 377.2,362.2 349.1,363.8 321.0,360.5 292.9,351.6 264.8,346.6 236.6,347.8 208.5,362.2 180.4,358.3 152.3,361.2 124.2,373.2 96.1,372.6 68.0,381.3" fill="#807dba" fill-opacity="0.9" stroke="#fff" stroke-width="0.4"><title>mdl_dxr — legalizeResourceTypes</title></polygon>
<polygon points="68.0,350.5 96.1,343.0 124.2,344.0 152.3,331.2 180.4,341.5 208.5,345.9 236.6,330.0 264.8,328.9 292.9,333.8 321.0,343.7 349.1,347.0 377.2,345.3 405.3,343.5 433.4,343.8 461.5,341.1 489.6,341.4 517.7,275.6 545.8,273.1 573.9,276.3 602.1,270.2 630.2,366.0 658.3,362.8 686.4,350.7 714.5,350.1 742.6,350.3 770.7,352.0 798.8,356.6 826.9,351.0 855.0,353.1 883.1,354.5 911.2,354.5 939.4,354.8 967.5,354.5 995.6,354.0 1023.7,363.0 1051.8,375.5 1079.9,375.6 1108.0,373.9 1108.0,376.4 1079.9,378.0 1051.8,378.0 1023.7,371.7 995.6,362.8 967.5,363.3 939.4,363.5 911.2,363.3 883.1,363.2 855.0,361.8 826.9,359.7 798.8,365.0 770.7,360.8 742.6,359.2 714.5,358.8 686.4,359.4 658.3,371.5 630.2,374.6 602.1,278.8 573.9,284.8 545.8,281.8 517.7,284.2 489.6,349.9 461.5,349.9 433.4,352.3 405.3,352.0 377.2,353.8 349.1,355.5 321.0,352.1 292.9,342.7 264.8,337.7 236.6,338.7 208.5,354.1 180.4,349.8 152.3,346.2 124.2,358.6 96.1,357.9 68.0,366.0" fill="#6a51a3" fill-opacity="0.9" stroke="#fff" stroke-width="0.4"><title>mdl_dxr — legalizeExistentialTypeLayout</title></polygon>
<polygon points="68.0,349.8 96.1,342.3 124.2,343.3 152.3,330.5 180.4,340.8 208.5,345.2 236.6,329.3 264.8,328.1 292.9,333.1 321.0,343.0 349.1,346.3 377.2,344.6 405.3,342.8 433.4,343.1 461.5,340.4 489.6,340.6 517.7,275.0 545.8,272.5 573.9,275.7 602.1,269.6 630.2,365.4 658.3,362.2 686.4,350.1 714.5,349.5 742.6,349.7 770.7,351.5 798.8,356.0 826.9,350.4 855.0,352.5 883.1,353.7 911.2,353.8 939.4,354.0 967.5,353.8 995.6,353.3 1023.7,362.2 1051.8,374.8 1079.9,374.8 1108.0,373.1 1108.0,373.9 1079.9,375.6 1051.8,375.5 1023.7,363.0 995.6,354.0 967.5,354.5 939.4,354.8 911.2,354.5 883.1,354.5 855.0,353.1 826.9,351.0 798.8,356.6 770.7,352.0 742.6,350.3 714.5,350.1 686.4,350.7 658.3,362.8 630.2,366.0 602.1,270.2 573.9,276.3 545.8,273.1 517.7,275.6 489.6,341.4 461.5,341.1 433.4,343.8 405.3,343.5 377.2,345.3 349.1,347.0 321.0,343.7 292.9,333.8 264.8,328.9 236.6,330.0 208.5,345.9 180.4,341.5 152.3,331.2 124.2,344.0 96.1,343.0 68.0,350.5" fill="#bcbddc" fill-opacity="0.9" stroke="#fff" stroke-width="0.4"><title>mdl_dxr — performMandatoryEarlyInlining</title></polygon>
<polygon points="68.0,349.3 96.1,341.8 124.2,342.8 152.3,329.9 180.4,340.3 208.5,344.7 236.6,328.7 264.8,327.5 292.9,332.5 321.0,342.4 349.1,345.8 377.2,344.1 405.3,342.1 433.4,342.3 461.5,339.7 489.6,339.9 517.7,274.3 545.8,271.8 573.9,275.0 602.1,268.9 630.2,364.6 658.3,361.4 686.4,349.3 714.5,348.7 742.6,348.9 770.7,350.7 798.8,355.2 826.9,349.6 855.0,351.7 883.1,352.9 911.2,353.0 939.4,353.3 967.5,353.0 995.6,352.5 1023.7,361.5 1051.8,374.0 1079.9,374.0 1108.0,372.4 1108.0,373.1 1079.9,374.8 1051.8,374.8 1023.7,362.2 995.6,353.3 967.5,353.8 939.4,354.0 911.2,353.8 883.1,353.7 855.0,352.5 826.9,350.4 798.8,356.0 770.7,351.5 742.6,349.7 714.5,349.5 686.4,350.1 658.3,362.2 630.2,365.4 602.1,269.6 573.9,275.7 545.8,272.5 517.7,275.0 489.6,340.6 461.5,340.4 433.4,343.1 405.3,342.8 377.2,344.6 349.1,346.3 321.0,343.0 292.9,333.1 264.8,328.1 236.6,329.3 208.5,345.2 180.4,340.8 152.3,330.5 124.2,343.3 96.1,342.3 68.0,349.8" fill="#dadaeb" fill-opacity="0.9" stroke="#fff" stroke-width="0.4"><title>mdl_dxr — performForceInlining</title></polygon>
<polygon points="68.0,327.2 96.1,317.5 124.2,319.9 152.3,304.4 180.4,308.4 208.5,314.3 236.6,298.1 264.8,295.7 292.9,300.7 321.0,313.0 349.1,317.2 377.2,314.7 405.3,312.6 433.4,312.2 461.5,308.8 489.6,309.0 517.7,231.1 545.8,228.1 573.9,232.3 602.1,226.5 630.2,329.4 658.3,326.7 686.4,311.0 714.5,310.4 742.6,311.1 770.7,313.2 798.8,322.7 826.9,316.9 855.0,318.5 883.1,320.1 911.2,319.6 939.4,319.8 967.5,319.9 995.6,319.6 1023.7,329.9 1051.8,346.3 1079.9,347.2 1108.0,345.0 1108.0,372.4 1079.9,374.0 1051.8,374.0 1023.7,361.5 995.6,352.5 967.5,353.0 939.4,353.3 911.2,353.0 883.1,352.9 855.0,351.7 826.9,349.6 798.8,355.2 770.7,350.7 742.6,348.9 714.5,348.7 686.4,349.3 658.3,361.4 630.2,364.6 602.1,268.9 573.9,275.0 545.8,271.8 517.7,274.3 489.6,339.9 461.5,339.7 433.4,342.3 405.3,342.1 377.2,344.1 349.1,345.8 321.0,342.4 292.9,332.5 264.8,327.5 236.6,328.7 208.5,344.7 180.4,340.3 152.3,329.9 124.2,342.8 96.1,341.8 68.0,349.3" fill="#4a1486" fill-opacity="0.9" stroke="#fff" stroke-width="0.4"><title>mdl_dxr — linkAndOptimizeIR (self)</title></polygon>
<polygon points="68.0,163.3 96.1,153.5 124.2,156.2 152.3,178.0 180.4,173.6 208.5,186.7 236.6,150.8 264.8,149.7 292.9,163.7 321.0,187.7 349.1,199.6 377.2,197.7 405.3,197.7 433.4,194.9 461.5,189.9 489.6,190.8 517.7,114.6 545.8,110.4 573.9,114.2 602.1,108.6 630.2,211.3 658.3,207.3 686.4,189.3 714.5,190.6 742.6,189.4 770.7,194.2 798.8,207.8 826.9,198.8 855.0,196.2 883.1,200.9 911.2,198.4 939.4,201.6 967.5,202.3 995.6,198.0 1023.7,211.7 1051.8,233.0 1079.9,233.2 1108.0,229.7 1108.0,345.0 1079.9,347.2 1051.8,346.3 1023.7,329.9 995.6,319.6 967.5,319.9 939.4,319.8 911.2,319.6 883.1,320.1 855.0,318.5 826.9,316.9 798.8,322.7 770.7,313.2 742.6,311.1 714.5,310.4 686.4,311.0 658.3,326.7 630.2,329.4 602.1,226.5 573.9,232.3 545.8,228.1 517.7,231.1 489.6,309.0 461.5,308.8 433.4,312.2 405.3,312.6 377.2,314.7 349.1,317.2 321.0,313.0 292.9,300.7 264.8,295.7 236.6,298.1 208.5,314.3 180.4,308.4 152.3,304.4 124.2,319.9 96.1,317.5 68.0,327.2" fill="#e6550d" fill-opacity="0.9" stroke="#fff" stroke-width="0.4"><title>mdl_dxr — generateOutput (self)</title></polygon>
<polygon points="68.0,163.3 96.1,153.2 124.2,155.1 152.3,178.0 180.4,173.2 208.5,185.7 236.6,149.1 264.8,149.7 292.9,160.0 321.0,187.1 349.1,199.6 377.2,197.3 405.3,197.7 433.4,194.0 461.5,189.8 489.6,190.8 517.7,114.6 545.8,109.9 573.9,114.2 602.1,108.6 630.2,211.0 658.3,204.8 686.4,189.2 714.5,189.6 742.6,188.0 770.7,193.2 798.8,205.8 826.9,198.4 855.0,195.5 883.1,199.8 911.2,198.3 939.4,200.2 967.5,201.5 995.6,197.2 1023.7,210.8 1051.8,232.4 1079.9,232.4 1108.0,228.1 1108.0,229.7 1079.9,233.2 1051.8,233.0 1023.7,211.7 995.6,198.0 967.5,202.3 939.4,201.6 911.2,198.4 883.1,200.9 855.0,196.2 826.9,198.8 798.8,207.8 770.7,194.2 742.6,189.4 714.5,190.6 686.4,189.3 658.3,207.3 630.2,211.3 602.1,108.6 573.9,114.2 545.8,110.4 517.7,114.6 489.6,190.8 461.5,189.9 433.4,194.9 405.3,197.7 377.2,197.7 349.1,199.6 321.0,187.7 292.9,163.7 264.8,149.7 236.6,150.8 208.5,186.7 180.4,173.6 152.3,178.0 124.2,156.2 96.1,153.5 68.0,163.3" fill="#969696" fill-opacity="0.9" stroke="#fff" stroke-width="0.4"><title>mdl_dxr — compileInner (self)</title></polygon>
<text x="12" y="578" fill="#666" font-weight="600">phase buckets</text>
<rect x="12" y="586" width="12" height="12" fill="#c7e9c0"/>
<text x="28" y="596" fill="#222">parseTranslationUnit</text>
<rect x="289" y="586" width="12" height="12" fill="#41ab5d"/>
<text x="305" y="596" fill="#222">SemanticChecking</text>
<rect x="566" y="586" width="12" height="12" fill="#006d2c"/>
<text x="582" y="596" fill="#222">generateIR</text>
<rect x="843" y="586" width="12" height="12" fill="#74c476"/>
<text x="859" y="596" fill="#222">frontEndExecute (self)</text>
<rect x="12" y="604" width="12" height="12" fill="#6baed6"/>
<text x="28" y="614" fill="#222">specializeModule</text>
<rect x="289" y="604" width="12" height="12" fill="#2171b5"/>
<text x="305" y="614" fill="#222">simplifyIR</text>
<rect x="566" y="604" width="12" height="12" fill="#08306b"/>
<text x="582" y="614" fill="#222">linkIR</text>
<rect x="843" y="604" width="12" height="12" fill="#9e9ac8"/>
<text x="859" y="614" fill="#222">unrollLoopsInModule</text>
<rect x="12" y="622" width="12" height="12" fill="#807dba"/>
<text x="28" y="632" fill="#222">legalizeResourceTypes</text>
<rect x="289" y="622" width="12" height="12" fill="#6a51a3"/>
<text x="305" y="632" fill="#222">legalizeExistentialTypeLayout</text>
<rect x="566" y="622" width="12" height="12" fill="#bcbddc"/>
<text x="582" y="632" fill="#222">performMandatoryEarlyInlining</text>
<rect x="843" y="622" width="12" height="12" fill="#dadaeb"/>
<text x="859" y="632" fill="#222">performForceInlining</text>
<rect x="12" y="640" width="12" height="12" fill="#4a1486"/>
<text x="28" y="650" fill="#222">linkAndOptimizeIR (self)</text>
<rect x="289" y="640" width="12" height="12" fill="#fd8d3c"/>
<text x="305" y="650" fill="#222">emitEntryPointsSourceFromIR</text>
<rect x="566" y="640" width="12" height="12" fill="#e6550d"/>
<text x="582" y="650" fill="#222">generateOutput (self)</text>
<rect x="843" y="640" width="12" height="12" fill="#969696"/>
<text x="859" y="650" fill="#222">compileInner (self)</text>
</svg>