<svg xmlns="http://www.w3.org/2000/svg" xmlns:xlink="http://www.w3.org/1999/xlink" width="1132" height="680" viewBox="0 0 1132 680" preserveAspectRatio="xMidYMid meet" font-family="sans-serif" font-size="13">
<rect width="1132" height="680" fill="white"/>
<text x="12" y="30" font-size="20" font-weight="bold">mdl_dxr — full phase breakdown across releases (median ms)</text>
<text x="68" y="60" font-size="15" font-weight="600" fill="#1a1a1a">mdl_dxr<tspan fill="#888" font-weight="400" text-decoration="none">  0.89×</tspan></text>
<line x1="68.0" y1="516.0" x2="1108.0" y2="516.0" stroke="#eee"/>
<text x="64.0" y="519.0" text-anchor="end" fill="#999">0.0</text>
<line x1="68.0" y1="296.0" x2="1108.0" y2="296.0" stroke="#eee"/>
<text x="64.0" y="299.0" text-anchor="end" fill="#999">877</text>
<line x1="68.0" y1="76.0" x2="1108.0" y2="76.0" stroke="#eee"/>
<text x="64.0" y="79.0" text-anchor="end" fill="#999">1753</text>
<line x1="68.0" y1="76.0" x2="68.0" y2="516.0" stroke="#333"/>
<line x1="68.0" y1="516.0" x2="1108.0" y2="516.0" stroke="#333"/>
<line x1="789.3" y1="76.0" x2="789.3" y2="516.0" stroke="#e8731a" stroke-width="1.2" stroke-dasharray="4 3"/>
<text x="792.3" y="87.0" fill="#e8731a" font-size="11">daily →</text>
<line x1="68.0" y1="516.0" x2="68.0" y2="519.0" stroke="#999"/>
<text x="68.0" y="531.0" text-anchor="end" fill="#666" transform="rotate(-50 68.0 531.0)">25.14</text>
<line x1="101.5" y1="516.0" x2="101.5" y2="519.0" stroke="#999"/>
<text x="101.5" y="531.0" text-anchor="end" fill="#666" transform="rotate(-50 101.5 531.0)">25.15</text>
<line x1="135.1" y1="516.0" x2="135.1" y2="519.0" stroke="#999"/>
<text x="135.1" y="531.0" text-anchor="end" fill="#666" transform="rotate(-50 135.1 531.0)">25.16</text>
<line x1="168.6" y1="516.0" x2="168.6" y2="519.0" stroke="#999"/>
<text x="168.6" y="531.0" text-anchor="end" fill="#666" transform="rotate(-50 168.6 531.0)">25.17</text>
<line x1="202.2" y1="516.0" x2="202.2" y2="519.0" stroke="#999"/>
<text x="202.2" y="531.0" text-anchor="end" fill="#666" transform="rotate(-50 202.2 531.0)">25.18</text>
<line x1="235.7" y1="516.0" x2="235.7" y2="519.0" stroke="#999"/>
<text x="235.7" y="531.0" text-anchor="end" fill="#666" transform="rotate(-50 235.7 531.0)">25.19</text>
<line x1="269.3" y1="516.0" x2="269.3" y2="519.0" stroke="#999"/>
<text x="269.3" y="531.0" text-anchor="end" fill="#666" transform="rotate(-50 269.3 531.0)">25.20</text>
<line x1="302.8" y1="516.0" x2="302.8" y2="519.0" stroke="#999"/>
<text x="302.8" y="531.0" text-anchor="end" fill="#666" transform="rotate(-50 302.8 531.0)">25.21</text>
<line x1="336.4" y1="516.0" x2="336.4" y2="519.0" stroke="#999"/>
<text x="336.4" y="531.0" text-anchor="end" fill="#666" transform="rotate(-50 336.4 531.0)">25.22</text>
<line x1="369.9" y1="516.0" x2="369.9" y2="519.0" stroke="#999"/>
<text x="369.9" y="531.0" text-anchor="end" fill="#666" transform="rotate(-50 369.9 531.0)">25.23</text>
<line x1="403.5" y1="516.0" x2="403.5" y2="519.0" stroke="#999"/>
<text x="403.5" y="531.0" text-anchor="end" fill="#666" transform="rotate(-50 403.5 531.0)">25.24</text>
<line x1="437.0" y1="516.0" x2="437.0" y2="519.0" stroke="#999"/>
<text x="437.0" y="531.0" text-anchor="end" fill="#666" transform="rotate(-50 437.0 531.0)">26.1</text>
<line x1="470.6" y1="516.0" x2="470.6" y2="519.0" stroke="#999"/>
<text x="470.6" y="531.0" text-anchor="end" fill="#666" transform="rotate(-50 470.6 531.0)">26.2</text>
<line x1="504.1" y1="516.0" x2="504.1" y2="519.0" stroke="#999"/>
<text x="504.1" y="531.0" text-anchor="end" fill="#666" transform="rotate(-50 504.1 531.0)">26.3</text>
<line x1="537.7" y1="516.0" x2="537.7" y2="519.0" stroke="#999"/>
<text x="537.7" y="531.0" text-anchor="end" fill="#666" transform="rotate(-50 537.7 531.0)">26.4</text>
<line x1="571.2" y1="516.0" x2="571.2" y2="519.0" stroke="#999"/>
<text x="571.2" y="531.0" text-anchor="end" fill="#666" transform="rotate(-50 571.2 531.0)">26.5</text>
<line x1="604.8" y1="516.0" x2="604.8" y2="519.0" stroke="#999"/>
<text x="604.8" y="531.0" text-anchor="end" fill="#666" transform="rotate(-50 604.8 531.0)">26.7</text>
<line x1="638.3" y1="516.0" x2="638.3" y2="519.0" stroke="#999"/>
<text x="638.3" y="531.0" text-anchor="end" fill="#666" transform="rotate(-50 638.3 531.0)">26.8</text>
<line x1="671.9" y1="516.0" x2="671.9" y2="519.0" stroke="#999"/>
<text x="671.9" y="531.0" text-anchor="end" fill="#666" transform="rotate(-50 671.9 531.0)">26.9</text>
<line x1="705.4" y1="516.0" x2="705.4" y2="519.0" stroke="#999"/>
<text x="705.4" y="531.0" text-anchor="end" fill="#666" transform="rotate(-50 705.4 531.0)">26.10</text>
<line x1="739.0" y1="516.0" x2="739.0" y2="519.0" stroke="#999"/>
<text x="739.0" y="531.0" text-anchor="end" fill="#666" transform="rotate(-50 739.0 531.0)">26.11</text>
<line x1="772.5" y1="516.0" x2="772.5" y2="519.0" stroke="#999"/>
<text x="772.5" y="531.0" text-anchor="end" fill="#666" transform="rotate(-50 772.5 531.0)">26.12</text>
<line x1="806.1" y1="516.0" x2="806.1" y2="519.0" stroke="#999"/>
<text x="806.1" y="531.0" text-anchor="end" fill="#e8731a" transform="rotate(-50 806.1 531.0)">06-25</text>
<line x1="839.6" y1="516.0" x2="839.6" y2="519.0" stroke="#999"/>
<text x="839.6" y="531.0" text-anchor="end" fill="#e8731a" transform="rotate(-50 839.6 531.0)">06-26</text>
<line x1="873.2" y1="516.0" x2="873.2" y2="519.0" stroke="#999"/>
<text x="873.2" y="531.0" text-anchor="end" fill="#e8731a" transform="rotate(-50 873.2 531.0)">06-28</text>
<line x1="906.7" y1="516.0" x2="906.7" y2="519.0" stroke="#999"/>
<text x="906.7" y="531.0" text-anchor="end" fill="#e8731a" transform="rotate(-50 906.7 531.0)">07-01</text>
<line x1="940.3" y1="516.0" x2="940.3" y2="519.0" stroke="#999"/>
<text x="940.3" y="531.0" text-anchor="end" fill="#e8731a" transform="rotate(-50 940.3 531.0)">07-02</text>
<line x1="973.8" y1="516.0" x2="973.8" y2="519.0" stroke="#999"/>
<text x="973.8" y="531.0" text-anchor="end" fill="#e8731a" transform="rotate(-50 973.8 531.0)">07-03</text>
<line x1="1007.4" y1="516.0" x2="1007.4" y2="519.0" stroke="#999"/>
<text x="1007.4" y="531.0" text-anchor="end" fill="#e8731a" transform="rotate(-50 1007.4 531.0)">07-03</text>
<line x1="1040.9" y1="516.0" x2="1040.9" y2="519.0" stroke="#999"/>
<text x="1040.9" y="531.0" text-anchor="end" fill="#e8731a" transform="rotate(-50 1040.9 531.0)">07-03</text>
<line x1="1074.5" y1="516.0" x2="1074.5" y2="519.0" stroke="#999"/>
<text x="1074.5" y="531.0" text-anchor="end" fill="#e8731a" transform="rotate(-50 1074.5 531.0)">07-07</text>
<line x1="1108.0" y1="516.0" x2="1108.0" y2="519.0" stroke="#999"/>
<text x="1108.0" y="531.0" text-anchor="end" fill="#e8731a" transform="rotate(-50 1108.0 531.0)">07-07</text>
<polygon points="68.0,513.0 101.5,513.0 135.1,512.9 168.6,512.9 202.2,512.6 235.7,512.7 269.3,512.5 302.8,512.6 336.4,512.5 369.9,512.9 403.5,512.9 437.0,512.9 470.6,513.0 504.1,512.9 537.7,512.8 571.2,512.9 604.8,512.9 638.3,512.8 671.9,512.9 705.4,512.8 739.0,512.9 772.5,512.8 806.1,512.7 839.6,512.7 873.2,512.7 906.7,512.6 940.3,512.8 973.8,512.7 1007.4,512.6 1040.9,512.6 1074.5,512.6 1108.0,512.6 1108.0,516.0 1074.5,516.0 1040.9,516.0 1007.4,516.0 973.8,516.0 940.3,516.0 906.7,516.0 873.2,516.0 839.6,516.0 806.1,516.0 772.5,516.0 739.0,516.0 705.4,516.0 671.9,516.0 638.3,516.0 604.8,516.0 571.2,516.0 537.7,516.0 504.1,516.0 470.6,516.0 437.0,516.0 403.5,516.0 369.9,516.0 336.4,516.0 302.8,516.0 269.3,516.0 235.7,516.0 202.2,516.0 168.6,516.0 135.1,516.0 101.5,516.0 68.0,516.0" fill="#c7e9c0" fill-opacity="0.9" stroke="#fff" stroke-width="0.4"><title>mdl_dxr — parseTranslationUnit</title></polygon>
<polygon points="68.0,424.7 101.5,416.4 135.1,416.6 168.6,407.5 202.2,405.5 235.7,409.9 269.3,401.4 302.8,402.7 336.4,405.7 369.9,411.7 403.5,414.0 437.0,413.5 470.6,411.5 504.1,412.1 537.7,410.2 571.2,410.6 604.8,380.2 638.3,379.0 671.9,379.4 705.4,374.3 739.0,450.2 772.5,446.8 806.1,442.9 839.6,442.0 873.2,442.7 906.7,442.6 940.3,442.7 973.8,441.6 1007.4,441.1 1040.9,443.7 1074.5,441.0 1108.0,441.8 1108.0,512.6 1074.5,512.6 1040.9,512.6 1007.4,512.6 973.8,512.7 940.3,512.8 906.7,512.6 873.2,512.7 839.6,512.7 806.1,512.7 772.5,512.8 739.0,512.9 705.4,512.8 671.9,512.9 638.3,512.8 604.8,512.9 571.2,512.9 537.7,512.8 504.1,512.9 470.6,513.0 437.0,512.9 403.5,512.9 369.9,512.9 336.4,512.5 302.8,512.6 269.3,512.5 235.7,512.7 202.2,512.6 168.6,512.9 135.1,512.9 101.5,513.0 68.0,513.0" fill="#41ab5d" fill-opacity="0.9" stroke="#fff" stroke-width="0.4"><title>mdl_dxr — SemanticChecking</title></polygon>
<polygon points="68.0,424.1 101.5,415.7 135.1,415.9 168.6,406.7 202.2,404.8 235.7,409.2 269.3,400.7 302.8,401.9 336.4,404.9 369.9,410.9 403.5,413.3 437.0,412.7 470.6,410.8 504.1,411.3 537.7,409.5 571.2,409.9 604.8,376.3 638.3,375.0 671.9,375.6 705.4,370.4 739.0,449.3 772.5,446.0 806.1,442.0 839.6,441.0 873.2,441.7 906.7,441.7 940.3,441.8 973.8,440.7 1007.4,440.1 1040.9,442.8 1074.5,440.1 1108.0,440.9 1108.0,441.8 1074.5,441.0 1040.9,443.7 1007.4,441.1 973.8,441.6 940.3,442.7 906.7,442.6 873.2,442.7 839.6,442.0 806.1,442.9 772.5,446.8 739.0,450.2 705.4,374.3 671.9,379.4 638.3,379.0 604.8,380.2 571.2,410.6 537.7,410.2 504.1,412.1 470.6,411.5 437.0,413.5 403.5,414.0 369.9,411.7 336.4,405.7 302.8,402.7 269.3,401.4 235.7,409.9 202.2,405.5 168.6,407.5 135.1,416.6 101.5,416.4 68.0,424.7" fill="#006d2c" fill-opacity="0.9" stroke="#fff" stroke-width="0.4"><title>mdl_dxr — generateIR</title></polygon>
<polygon points="68.0,415.0 101.5,406.7 135.1,406.8 168.6,397.3 202.2,395.4 235.7,399.3 269.3,390.5 302.8,391.2 336.4,394.5 369.9,401.0 403.5,399.5 437.0,398.9 470.6,396.8 504.1,397.4 537.7,395.5 571.2,395.3 604.8,347.0 638.3,345.7 671.9,346.7 705.4,341.2 739.0,427.4 772.5,424.2 806.1,415.6 839.6,414.8 873.2,415.5 906.7,415.9 940.3,416.2 973.8,414.7 1007.4,413.7 1040.9,417.2 1074.5,413.9 1108.0,415.0 1108.0,440.9 1074.5,440.1 1040.9,442.8 1007.4,440.1 973.8,440.7 940.3,441.8 906.7,441.7 873.2,441.7 839.6,441.0 806.1,442.0 772.5,446.0 739.0,449.3 705.4,370.4 671.9,375.6 638.3,375.0 604.8,376.3 571.2,409.9 537.7,409.5 504.1,411.3 470.6,410.8 437.0,412.7 403.5,413.3 369.9,410.9 336.4,404.9 302.8,401.9 269.3,400.7 235.7,409.2 202.2,404.8 168.6,406.7 135.1,415.9 101.5,415.7 68.0,424.1" fill="#6baed6" fill-opacity="0.9" stroke="#fff" stroke-width="0.4"><title>mdl_dxr — specializeModule</title></polygon>
<polygon points="68.0,384.4 101.5,375.7 135.1,376.2 168.6,364.6 202.2,361.7 235.7,365.5 269.3,351.3 302.8,350.1 336.4,355.0 369.9,363.7 403.5,366.9 437.0,365.4 470.6,363.6 504.1,364.0 537.7,361.9 571.2,361.6 604.8,300.9 638.3,299.3 671.9,301.3 705.4,295.0 739.0,386.1 772.5,383.1 806.1,371.2 839.6,370.7 873.2,371.1 906.7,372.6 940.3,376.6 973.8,374.1 1007.4,372.3 1040.9,377.2 1074.5,372.8 1108.0,374.6 1108.0,415.0 1074.5,413.9 1040.9,417.2 1007.4,413.7 973.8,414.7 940.3,416.2 906.7,415.9 873.2,415.5 839.6,414.8 806.1,415.6 772.5,424.2 739.0,427.4 705.4,341.2 671.9,346.7 638.3,345.7 604.8,347.0 571.2,395.3 537.7,395.5 504.1,397.4 470.6,396.8 437.0,398.9 403.5,399.5 369.9,401.0 336.4,394.5 302.8,391.2 269.3,390.5 235.7,399.3 202.2,395.4 168.6,397.3 135.1,406.8 101.5,406.7 68.0,415.0" fill="#2171b5" fill-opacity="0.9" stroke="#fff" stroke-width="0.4"><title>mdl_dxr — simplifyIR</title></polygon>
<polygon points="68.0,381.4 101.5,372.7 135.1,373.3 168.6,361.4 202.2,358.4 235.7,362.4 269.3,347.9 302.8,346.8 336.4,351.7 369.9,360.6 403.5,363.9 437.0,362.4 470.6,360.6 504.1,360.9 537.7,358.7 571.2,358.4 604.8,292.8 638.3,290.7 671.9,293.3 705.4,287.3 739.0,383.1 772.5,380.1 806.1,368.1 839.6,367.5 873.2,368.0 906.7,369.4 940.3,373.5 973.8,370.9 1007.4,369.1 1040.9,374.1 1074.5,369.6 1108.0,371.5 1108.0,374.6 1074.5,372.8 1040.9,377.2 1007.4,372.3 973.8,374.1 940.3,376.6 906.7,372.6 873.2,371.1 839.6,370.7 806.1,371.2 772.5,383.1 739.0,386.1 705.4,295.0 671.9,301.3 638.3,299.3 604.8,300.9 571.2,361.6 537.7,361.9 504.1,364.0 470.6,363.6 437.0,365.4 403.5,366.9 369.9,363.7 336.4,355.0 302.8,350.1 269.3,351.3 235.7,365.5 202.2,361.7 168.6,364.6 135.1,376.2 101.5,375.7 68.0,384.4" fill="#08306b" fill-opacity="0.9" stroke="#fff" stroke-width="0.4"><title>mdl_dxr — linkIR</title></polygon>
<polygon points="68.0,381.3 101.5,372.6 135.1,373.2 168.6,361.2 202.2,358.3 235.7,362.2 269.3,347.8 302.8,346.6 336.4,351.6 369.9,360.5 403.5,363.8 437.0,362.2 470.6,360.4 504.1,360.7 537.7,358.5 571.2,358.3 604.8,292.8 638.3,290.6 671.9,293.2 705.4,287.2 739.0,383.0 772.5,380.0 806.1,368.0 839.6,367.4 873.2,367.9 906.7,369.4 940.3,373.5 973.8,370.8 1007.4,369.0 1040.9,374.1 1074.5,369.6 1108.0,371.4 1108.0,371.5 1074.5,369.6 1040.9,374.1 1007.4,369.1 973.8,370.9 940.3,373.5 906.7,369.4 873.2,368.0 839.6,367.5 806.1,368.1 772.5,380.1 739.0,383.1 705.4,287.3 671.9,293.3 638.3,290.7 604.8,292.8 571.2,358.4 537.7,358.7 504.1,360.9 470.6,360.6 437.0,362.4 403.5,363.9 369.9,360.6 336.4,351.7 302.8,346.8 269.3,347.9 235.7,362.4 202.2,358.4 168.6,361.4 135.1,373.3 101.5,372.7 68.0,381.4" fill="#9e9ac8" fill-opacity="0.9" stroke="#fff" stroke-width="0.4"><title>mdl_dxr — unrollLoopsInModule</title></polygon>
<polygon points="68.0,366.0 101.5,357.9 135.1,358.6 168.6,346.2 202.2,349.8 235.7,354.1 269.3,338.7 302.8,337.7 336.4,342.7 369.9,352.1 403.5,355.5 437.0,353.8 470.6,352.0 504.1,352.3 537.7,349.9 571.2,349.9 604.8,284.2 638.3,281.8 671.9,284.8 705.4,278.8 739.0,374.6 772.5,371.5 806.1,359.4 839.6,358.8 873.2,359.2 906.7,360.8 940.3,365.0 973.8,362.1 1007.4,360.3 1040.9,365.6 1074.5,360.9 1108.0,362.7 1108.0,371.4 1074.5,369.6 1040.9,374.1 1007.4,369.0 973.8,370.8 940.3,373.5 906.7,369.4 873.2,367.9 839.6,367.4 806.1,368.0 772.5,380.0 739.0,383.0 705.4,287.2 671.9,293.2 638.3,290.6 604.8,292.8 571.2,358.3 537.7,358.5 504.1,360.7 470.6,360.4 437.0,362.2 403.5,363.8 369.9,360.5 336.4,351.6 302.8,346.6 269.3,347.8 235.7,362.2 202.2,358.3 168.6,361.2 135.1,373.2 101.5,372.6 68.0,381.3" fill="#807dba" fill-opacity="0.9" stroke="#fff" stroke-width="0.4"><title>mdl_dxr — legalizeResourceTypes</title></polygon>
<polygon points="68.0,350.5 101.5,343.0 135.1,344.0 168.6,331.2 202.2,341.5 235.7,345.9 269.3,330.0 302.8,328.9 336.4,333.8 369.9,343.7 403.5,347.0 437.0,345.3 470.6,343.5 504.1,343.8 537.7,341.1 571.2,341.4 604.8,275.6 638.3,273.1 671.9,276.3 705.4,270.2 739.0,366.0 772.5,362.8 806.1,350.7 839.6,350.1 873.2,350.3 906.7,352.0 940.3,356.6 973.8,353.4 1007.4,351.5 1040.9,356.9 1074.5,352.2 1108.0,354.0 1108.0,362.7 1074.5,360.9 1040.9,365.6 1007.4,360.3 973.8,362.1 940.3,365.0 906.7,360.8 873.2,359.2 839.6,358.8 806.1,359.4 772.5,371.5 739.0,374.6 705.4,278.8 671.9,284.8 638.3,281.8 604.8,284.2 571.2,349.9 537.7,349.9 504.1,352.3 470.6,352.0 437.0,353.8 403.5,355.5 369.9,352.1 336.4,342.7 302.8,337.7 269.3,338.7 235.7,354.1 202.2,349.8 168.6,346.2 135.1,358.6 101.5,357.9 68.0,366.0" fill="#6a51a3" fill-opacity="0.9" stroke="#fff" stroke-width="0.4"><title>mdl_dxr — legalizeExistentialTypeLayout</title></polygon>
<polygon points="68.0,349.8 101.5,342.3 135.1,343.3 168.6,330.5 202.2,340.8 235.7,345.2 269.3,329.3 302.8,328.1 336.4,333.1 369.9,343.0 403.5,346.3 437.0,344.6 470.6,342.8 504.1,343.1 537.7,340.4 571.2,340.6 604.8,275.0 638.3,272.5 671.9,275.7 705.4,269.6 739.0,365.4 772.5,362.2 806.1,350.1 839.6,349.5 873.2,349.7 906.7,351.5 940.3,356.0 973.8,352.8 1007.4,350.9 1040.9,356.4 1074.5,351.6 1108.0,353.4 1108.0,354.0 1074.5,352.2 1040.9,356.9 1007.4,351.5 973.8,353.4 940.3,356.6 906.7,352.0 873.2,350.3 839.6,350.1 806.1,350.7 772.5,362.8 739.0,366.0 705.4,270.2 671.9,276.3 638.3,273.1 604.8,275.6 571.2,341.4 537.7,341.1 504.1,343.8 470.6,343.5 437.0,345.3 403.5,347.0 369.9,343.7 336.4,333.8 302.8,328.9 269.3,330.0 235.7,345.9 202.2,341.5 168.6,331.2 135.1,344.0 101.5,343.0 68.0,350.5" fill="#bcbddc" fill-opacity="0.9" stroke="#fff" stroke-width="0.4"><title>mdl_dxr — performMandatoryEarlyInlining</title></polygon>
<polygon points="68.0,349.3 101.5,341.8 135.1,342.8 168.6,329.9 202.2,340.3 235.7,344.7 269.3,328.7 302.8,327.5 336.4,332.5 369.9,342.4 403.5,345.8 437.0,344.1 470.6,342.1 504.1,342.3 537.7,339.7 571.2,339.9 604.8,274.3 638.3,271.8 671.9,275.0 705.4,268.9 739.0,364.6 772.5,361.4 806.1,349.3 839.6,348.7 873.2,348.9 906.7,350.7 940.3,355.2 973.8,352.1 1007.4,350.1 1040.9,355.6 1074.5,350.8 1108.0,352.7 1108.0,353.4 1074.5,351.6 1040.9,356.4 1007.4,350.9 973.8,352.8 940.3,356.0 906.7,351.5 873.2,349.7 839.6,349.5 806.1,350.1 772.5,362.2 739.0,365.4 705.4,269.6 671.9,275.7 638.3,272.5 604.8,275.0 571.2,340.6 537.7,340.4 504.1,343.1 470.6,342.8 437.0,344.6 403.5,346.3 369.9,343.0 336.4,333.1 302.8,328.1 269.3,329.3 235.7,345.2 202.2,340.8 168.6,330.5 135.1,343.3 101.5,342.3 68.0,349.8" fill="#dadaeb" fill-opacity="0.9" stroke="#fff" stroke-width="0.4"><title>mdl_dxr — performForceInlining</title></polygon>
<polygon points="68.0,327.2 101.5,317.5 135.1,319.9 168.6,304.4 202.2,308.4 235.7,314.3 269.3,298.1 302.8,295.7 336.4,300.7 369.9,313.0 403.5,317.2 437.0,314.7 470.6,312.6 504.1,312.2 537.7,308.8 571.2,309.0 604.8,231.1 638.3,228.1 671.9,232.3 705.4,226.5 739.0,329.4 772.5,326.7 806.1,311.0 839.6,310.4 873.2,311.1 906.7,313.2 940.3,322.7 973.8,318.7 1007.4,316.7 1040.9,323.1 1074.5,317.6 1108.0,319.5 1108.0,352.7 1074.5,350.8 1040.9,355.6 1007.4,350.1 973.8,352.1 940.3,355.2 906.7,350.7 873.2,348.9 839.6,348.7 806.1,349.3 772.5,361.4 739.0,364.6 705.4,268.9 671.9,275.0 638.3,271.8 604.8,274.3 571.2,339.9 537.7,339.7 504.1,342.3 470.6,342.1 437.0,344.1 403.5,345.8 369.9,342.4 336.4,332.5 302.8,327.5 269.3,328.7 235.7,344.7 202.2,340.3 168.6,329.9 135.1,342.8 101.5,341.8 68.0,349.3" fill="#4a1486" fill-opacity="0.9" stroke="#fff" stroke-width="0.4"><title>mdl_dxr — linkAndOptimizeIR (self)</title></polygon>
<polygon points="68.0,163.3 101.5,153.5 135.1,156.2 168.6,178.0 202.2,173.6 235.7,186.7 269.3,150.8 302.8,149.7 336.4,163.7 369.9,187.7 403.5,199.6 437.0,197.7 470.6,197.7 504.1,194.9 537.7,189.9 571.2,190.8 604.8,114.6 638.3,110.4 671.9,114.2 705.4,108.6 739.0,211.3 772.5,207.3 806.1,189.3 839.6,190.6 873.2,189.4 906.7,194.2 940.3,207.8 973.8,202.0 1007.4,198.1 1040.9,208.3 1074.5,200.3 1108.0,203.3 1108.0,319.5 1074.5,317.6 1040.9,323.1 1007.4,316.7 973.8,318.7 940.3,322.7 906.7,313.2 873.2,311.1 839.6,310.4 806.1,311.0 772.5,326.7 739.0,329.4 705.4,226.5 671.9,232.3 638.3,228.1 604.8,231.1 571.2,309.0 537.7,308.8 504.1,312.2 470.6,312.6 437.0,314.7 403.5,317.2 369.9,313.0 336.4,300.7 302.8,295.7 269.3,298.1 235.7,314.3 202.2,308.4 168.6,304.4 135.1,319.9 101.5,317.5 68.0,327.2" fill="#e6550d" fill-opacity="0.9" stroke="#fff" stroke-width="0.4"><title>mdl_dxr — generateOutput (self)</title></polygon>
<polygon points="68.0,163.3 101.5,153.2 135.1,155.1 168.6,178.0 202.2,173.2 235.7,185.7 269.3,149.1 302.8,149.7 336.4,160.0 369.9,187.1 403.5,199.6 437.0,197.3 470.6,197.7 504.1,194.0 537.7,189.8 571.2,190.8 604.8,114.6 638.3,109.9 671.9,114.2 705.4,108.6 739.0,211.0 772.5,204.8 806.1,189.2 839.6,189.6 873.2,188.0 906.7,193.2 940.3,205.8 973.8,202.0 1007.4,197.6 1040.9,208.2 1074.5,199.7 1108.0,203.0 1108.0,203.3 1074.5,200.3 1040.9,208.3 1007.4,198.1 973.8,202.0 940.3,207.8 906.7,194.2 873.2,189.4 839.6,190.6 806.1,189.3 772.5,207.3 739.0,211.3 705.4,108.6 671.9,114.2 638.3,110.4 604.8,114.6 571.2,190.8 537.7,189.9 504.1,194.9 470.6,197.7 437.0,197.7 403.5,199.6 369.9,187.7 336.4,163.7 302.8,149.7 269.3,150.8 235.7,186.7 202.2,173.6 168.6,178.0 135.1,156.2 101.5,153.5 68.0,163.3" fill="#969696" fill-opacity="0.9" stroke="#fff" stroke-width="0.4"><title>mdl_dxr — compileInner (self)</title></polygon>
<text x="12" y="578" fill="#666" font-weight="600">phase buckets</text>
<rect x="12" y="586" width="12" height="12" fill="#c7e9c0"/>
<text x="28" y="596" fill="#222">parseTranslationUnit</text>
<rect x="289" y="586" width="12" height="12" fill="#41ab5d"/>
<text x="305" y="596" fill="#222">SemanticChecking</text>
<rect x="566" y="586" width="12" height="12" fill="#006d2c"/>
<text x="582" y="596" fill="#222">generateIR</text>
<rect x="843" y="586" width="12" height="12" fill="#74c476"/>
<text x="859" y="596" fill="#222">frontEndExecute (self)</text>
<rect x="12" y="604" width="12" height="12" fill="#6baed6"/>
<text x="28" y="614" fill="#222">specializeModule</text>
<rect x="289" y="604" width="12" height="12" fill="#2171b5"/>
<text x="305" y="614" fill="#222">simplifyIR</text>
<rect x="566" y="604" width="12" height="12" fill="#08306b"/>
<text x="582" y="614" fill="#222">linkIR</text>
<rect x="843" y="604" width="12" height="12" fill="#9e9ac8"/>
<text x="859" y="614" fill="#222">unrollLoopsInModule</text>
<rect x="12" y="622" width="12" height="12" fill="#807dba"/>
<text x="28" y="632" fill="#222">legalizeResourceTypes</text>
<rect x="289" y="622" width="12" height="12" fill="#6a51a3"/>
<text x="305" y="632" fill="#222">legalizeExistentialTypeLayout</text>
<rect x="566" y="622" width="12" height="12" fill="#bcbddc"/>
<text x="582" y="632" fill="#222">performMandatoryEarlyInlining</text>
<rect x="843" y="622" width="12" height="12" fill="#dadaeb"/>
<text x="859" y="632" fill="#222">performForceInlining</text>
<rect x="12" y="640" width="12" height="12" fill="#4a1486"/>
<text x="28" y="650" fill="#222">linkAndOptimizeIR (self)</text>
<rect x="289" y="640" width="12" height="12" fill="#fd8d3c"/>
<text x="305" y="650" fill="#222">emitEntryPointsSourceFromIR</text>
<rect x="566" y="640" width="12" height="12" fill="#e6550d"/>
<text x="582" y="650" fill="#222">generateOutput (self)</text>
<rect x="843" y="640" width="12" height="12" fill="#969696"/>
<text x="859" y="650" fill="#222">compileInner (self)</text>
</svg>