<svg xmlns="http://www.w3.org/2000/svg" xmlns:xlink="http://www.w3.org/1999/xlink" width="1132" height="680" viewBox="0 0 1132 680" preserveAspectRatio="xMidYMid meet" font-family="sans-serif" font-size="13">
<rect width="1132" height="680" fill="white"/>
<text x="12" y="30" font-size="20" font-weight="bold">mdl_dxr — full phase breakdown across releases (median ms)</text>
<text x="68" y="60" font-size="15" font-weight="600" fill="#1a1a1a">mdl_dxr<tspan fill="#888" font-weight="400" text-decoration="none">  0.93×</tspan></text>
<line x1="68.0" y1="516.0" x2="1108.0" y2="516.0" stroke="#eee"/>
<text x="64.0" y="519.0" text-anchor="end" fill="#999">0.0</text>
<line x1="68.0" y1="296.0" x2="1108.0" y2="296.0" stroke="#eee"/>
<text x="64.0" y="299.0" text-anchor="end" fill="#999">875</text>
<line x1="68.0" y1="76.0" x2="1108.0" y2="76.0" stroke="#eee"/>
<text x="64.0" y="79.0" text-anchor="end" fill="#999">1750</text>
<line x1="68.0" y1="76.0" x2="68.0" y2="516.0" stroke="#333"/>
<line x1="68.0" y1="516.0" x2="1108.0" y2="516.0" stroke="#333"/>
<line x1="1083.2" y1="76.0" x2="1083.2" y2="516.0" stroke="#e8731a" stroke-width="1.2" stroke-dasharray="4 3"/>
<text x="1086.2" y="87.0" fill="#e8731a" font-size="11">daily →</text>
<line x1="68.0" y1="516.0" x2="68.0" y2="519.0" stroke="#999"/>
<text x="68.0" y="531.0" text-anchor="end" fill="#666" transform="rotate(-50 68.0 531.0)">25.14</text>
<line x1="117.5" y1="516.0" x2="117.5" y2="519.0" stroke="#999"/>
<text x="117.5" y="531.0" text-anchor="end" fill="#666" transform="rotate(-50 117.5 531.0)">25.15</text>
<line x1="167.0" y1="516.0" x2="167.0" y2="519.0" stroke="#999"/>
<text x="167.0" y="531.0" text-anchor="end" fill="#666" transform="rotate(-50 167.0 531.0)">25.16</text>
<line x1="216.6" y1="516.0" x2="216.6" y2="519.0" stroke="#999"/>
<text x="216.6" y="531.0" text-anchor="end" fill="#666" transform="rotate(-50 216.6 531.0)">25.17</text>
<line x1="266.1" y1="516.0" x2="266.1" y2="519.0" stroke="#999"/>
<text x="266.1" y="531.0" text-anchor="end" fill="#666" transform="rotate(-50 266.1 531.0)">25.18</text>
<line x1="315.6" y1="516.0" x2="315.6" y2="519.0" stroke="#999"/>
<text x="315.6" y="531.0" text-anchor="end" fill="#666" transform="rotate(-50 315.6 531.0)">25.19</text>
<line x1="365.1" y1="516.0" x2="365.1" y2="519.0" stroke="#999"/>
<text x="365.1" y="531.0" text-anchor="end" fill="#666" transform="rotate(-50 365.1 531.0)">25.20</text>
<line x1="414.7" y1="516.0" x2="414.7" y2="519.0" stroke="#999"/>
<text x="414.7" y="531.0" text-anchor="end" fill="#666" transform="rotate(-50 414.7 531.0)">25.21</text>
<line x1="464.2" y1="516.0" x2="464.2" y2="519.0" stroke="#999"/>
<text x="464.2" y="531.0" text-anchor="end" fill="#666" transform="rotate(-50 464.2 531.0)">25.22</text>
<line x1="513.7" y1="516.0" x2="513.7" y2="519.0" stroke="#999"/>
<text x="513.7" y="531.0" text-anchor="end" fill="#666" transform="rotate(-50 513.7 531.0)">25.23</text>
<line x1="563.2" y1="516.0" x2="563.2" y2="519.0" stroke="#999"/>
<text x="563.2" y="531.0" text-anchor="end" fill="#666" transform="rotate(-50 563.2 531.0)">25.24</text>
<line x1="612.8" y1="516.0" x2="612.8" y2="519.0" stroke="#999"/>
<text x="612.8" y="531.0" text-anchor="end" fill="#666" transform="rotate(-50 612.8 531.0)">26.1</text>
<line x1="662.3" y1="516.0" x2="662.3" y2="519.0" stroke="#999"/>
<text x="662.3" y="531.0" text-anchor="end" fill="#666" transform="rotate(-50 662.3 531.0)">26.2</text>
<line x1="711.8" y1="516.0" x2="711.8" y2="519.0" stroke="#999"/>
<text x="711.8" y="531.0" text-anchor="end" fill="#666" transform="rotate(-50 711.8 531.0)">26.3</text>
<line x1="761.3" y1="516.0" x2="761.3" y2="519.0" stroke="#999"/>
<text x="761.3" y="531.0" text-anchor="end" fill="#666" transform="rotate(-50 761.3 531.0)">26.4</text>
<line x1="810.9" y1="516.0" x2="810.9" y2="519.0" stroke="#999"/>
<text x="810.9" y="531.0" text-anchor="end" fill="#666" transform="rotate(-50 810.9 531.0)">26.5</text>
<line x1="860.4" y1="516.0" x2="860.4" y2="519.0" stroke="#999"/>
<text x="860.4" y="531.0" text-anchor="end" fill="#666" transform="rotate(-50 860.4 531.0)">26.7</text>
<line x1="909.9" y1="516.0" x2="909.9" y2="519.0" stroke="#999"/>
<text x="909.9" y="531.0" text-anchor="end" fill="#666" transform="rotate(-50 909.9 531.0)">26.8</text>
<line x1="959.4" y1="516.0" x2="959.4" y2="519.0" stroke="#999"/>
<text x="959.4" y="531.0" text-anchor="end" fill="#666" transform="rotate(-50 959.4 531.0)">26.9</text>
<line x1="1009.0" y1="516.0" x2="1009.0" y2="519.0" stroke="#999"/>
<text x="1009.0" y="531.0" text-anchor="end" fill="#666" transform="rotate(-50 1009.0 531.0)">26.10</text>
<line x1="1058.5" y1="516.0" x2="1058.5" y2="519.0" stroke="#999"/>
<text x="1058.5" y="531.0" text-anchor="end" fill="#666" transform="rotate(-50 1058.5 531.0)">26.11</text>
<line x1="1108.0" y1="516.0" x2="1108.0" y2="519.0" stroke="#999"/>
<text x="1108.0" y="531.0" text-anchor="end" fill="#e8731a" transform="rotate(-50 1108.0 531.0)">06-25</text>
<polygon points="68.0,512.9 117.5,512.9 167.0,512.9 216.6,512.9 266.1,512.9 315.6,512.8 365.1,512.9 414.7,512.8 464.2,512.8 513.7,512.9 563.2,512.9 612.8,512.8 662.3,512.8 711.8,512.8 761.3,512.7 810.9,512.8 860.4,512.8 909.9,512.8 959.4,512.8 1009.0,512.8 1058.5,512.8 1108.0,512.7 1108.0,516.0 1058.5,516.0 1009.0,516.0 959.4,516.0 909.9,516.0 860.4,516.0 810.9,516.0 761.3,516.0 711.8,516.0 662.3,516.0 612.8,516.0 563.2,516.0 513.7,516.0 464.2,516.0 414.7,516.0 365.1,516.0 315.6,516.0 266.1,516.0 216.6,516.0 167.0,516.0 117.5,516.0 68.0,516.0" fill="#c7e9c0" fill-opacity="0.9" stroke="#fff" stroke-width="0.4"><title>mdl_dxr — parseTranslationUnit</title></polygon>
<polygon points="68.0,426.0 117.5,417.5 167.0,416.8 216.6,413.7 266.1,415.5 315.6,415.1 365.1,414.4 414.7,414.2 464.2,414.6 513.7,414.8 563.2,414.6 612.8,413.5 662.3,412.1 711.8,412.0 761.3,408.0 810.9,409.6 860.4,381.3 909.9,381.0 959.4,381.5 1009.0,375.7 1058.5,448.8 1108.0,444.4 1108.0,512.7 1058.5,512.8 1009.0,512.8 959.4,512.8 909.9,512.8 860.4,512.8 810.9,512.8 761.3,512.7 711.8,512.8 662.3,512.8 612.8,512.8 563.2,512.9 513.7,512.9 464.2,512.8 414.7,512.8 365.1,512.9 315.6,512.8 266.1,512.9 216.6,512.9 167.0,512.9 117.5,512.9 68.0,512.9" fill="#41ab5d" fill-opacity="0.9" stroke="#fff" stroke-width="0.4"><title>mdl_dxr — SemanticChecking</title></polygon>
<polygon points="68.0,425.3 117.5,416.9 167.0,416.1 216.6,413.0 266.1,414.8 315.6,414.4 365.1,413.7 414.7,413.4 464.2,413.9 513.7,414.1 563.2,413.9 612.8,412.8 662.3,411.4 711.8,411.3 761.3,407.2 810.9,408.8 860.4,377.7 909.9,377.3 959.4,377.9 1009.0,372.0 1058.5,447.9 1108.0,443.5 1108.0,444.4 1058.5,448.8 1009.0,375.7 959.4,381.5 909.9,381.0 860.4,381.3 810.9,409.6 761.3,408.0 711.8,412.0 662.3,412.1 612.8,413.5 563.2,414.6 513.7,414.8 464.2,414.6 414.7,414.2 365.1,414.4 315.6,415.1 266.1,415.5 216.6,413.7 167.0,416.8 117.5,417.5 68.0,426.0" fill="#006d2c" fill-opacity="0.9" stroke="#fff" stroke-width="0.4"><title>mdl_dxr — generateIR</title></polygon>
<polygon points="68.0,416.1 117.5,407.7 167.0,407.0 216.6,403.7 266.1,405.4 315.6,404.5 365.1,403.8 414.7,403.5 464.2,404.0 513.7,404.2 563.2,399.9 612.8,398.7 662.3,397.2 711.8,397.2 761.3,392.8 810.9,393.9 860.4,348.1 909.9,347.7 959.4,348.2 1009.0,342.1 1058.5,425.0 1108.0,417.1 1108.0,443.5 1058.5,447.9 1009.0,372.0 959.4,377.9 909.9,377.3 860.4,377.7 810.9,408.8 761.3,407.2 711.8,411.3 662.3,411.4 612.8,412.8 563.2,413.9 513.7,414.1 464.2,413.9 414.7,413.4 365.1,413.7 315.6,414.4 266.1,414.8 216.6,413.0 167.0,416.1 117.5,416.9 68.0,425.3" fill="#6baed6" fill-opacity="0.9" stroke="#fff" stroke-width="0.4"><title>mdl_dxr — specializeModule</title></polygon>
<polygon points="68.0,385.2 117.5,376.5 167.0,375.9 216.6,372.3 266.1,372.6 315.6,371.3 365.1,367.0 414.7,366.6 464.2,367.1 513.7,367.3 563.2,366.7 612.8,365.3 662.3,363.4 711.8,363.4 761.3,357.9 810.9,360.1 860.4,301.8 909.9,301.6 959.4,302.1 1009.0,295.9 1058.5,383.0 1108.0,373.5 1108.0,417.1 1058.5,425.0 1009.0,342.1 959.4,348.2 909.9,347.7 860.4,348.1 810.9,393.9 761.3,392.8 711.8,397.2 662.3,397.2 612.8,398.7 563.2,399.9 513.7,404.2 464.2,404.0 414.7,403.5 365.1,403.8 315.6,404.5 266.1,405.4 216.6,403.7 167.0,407.0 117.5,407.7 68.0,416.1" fill="#2171b5" fill-opacity="0.9" stroke="#fff" stroke-width="0.4"><title>mdl_dxr — simplifyIR</title></polygon>
<polygon points="68.0,382.3 117.5,373.7 167.0,373.0 216.6,369.4 266.1,369.7 315.6,368.3 365.1,364.1 414.7,363.6 464.2,364.1 513.7,364.4 563.2,363.7 612.8,362.3 662.3,360.3 711.8,360.3 761.3,354.6 810.9,357.1 860.4,294.4 909.9,294.6 959.4,295.2 1009.0,288.8 1058.5,380.0 1108.0,370.5 1108.0,373.5 1058.5,383.0 1009.0,295.9 959.4,302.1 909.9,301.6 860.4,301.8 810.9,360.1 761.3,357.9 711.8,363.4 662.3,363.4 612.8,365.3 563.2,366.7 513.7,367.3 464.2,367.1 414.7,366.6 365.1,367.0 315.6,371.3 266.1,372.6 216.6,372.3 167.0,375.9 117.5,376.5 68.0,385.2" fill="#08306b" fill-opacity="0.9" stroke="#fff" stroke-width="0.4"><title>mdl_dxr — linkIR</title></polygon>
<polygon points="68.0,382.2 117.5,373.6 167.0,372.9 216.6,369.3 266.1,369.6 315.6,368.2 365.1,363.9 414.7,363.5 464.2,364.0 513.7,364.3 563.2,363.6 612.8,362.2 662.3,360.2 711.8,360.2 761.3,354.5 810.9,356.9 860.4,294.3 909.9,294.5 959.4,295.2 1009.0,288.7 1058.5,379.9 1108.0,370.5 1108.0,370.5 1058.5,380.0 1009.0,288.8 959.4,295.2 909.9,294.6 860.4,294.4 810.9,357.1 761.3,354.6 711.8,360.3 662.3,360.3 612.8,362.3 563.2,363.7 513.7,364.4 464.2,364.1 414.7,363.6 365.1,364.1 315.6,368.3 266.1,369.7 216.6,369.4 167.0,373.0 117.5,373.7 68.0,382.3" fill="#9e9ac8" fill-opacity="0.9" stroke="#fff" stroke-width="0.4"><title>mdl_dxr — unrollLoopsInModule</title></polygon>
<polygon points="68.0,367.7 117.5,359.1 167.0,358.0 216.6,354.7 266.1,361.6 315.6,360.2 365.1,355.5 414.7,355.1 464.2,355.6 513.7,355.9 563.2,355.1 612.8,353.8 662.3,351.6 711.8,351.8 761.3,345.8 810.9,348.5 860.4,285.8 909.9,286.0 959.4,286.6 1009.0,280.2 1058.5,371.4 1108.0,361.8 1108.0,370.5 1058.5,379.9 1009.0,288.7 959.4,295.2 909.9,294.5 860.4,294.3 810.9,356.9 761.3,354.5 711.8,360.2 662.3,360.2 612.8,362.2 563.2,363.6 513.7,364.3 464.2,364.0 414.7,363.5 365.1,363.9 315.6,368.2 266.1,369.6 216.6,369.3 167.0,372.9 117.5,373.6 68.0,382.2" fill="#807dba" fill-opacity="0.9" stroke="#fff" stroke-width="0.4"><title>mdl_dxr — legalizeResourceTypes</title></polygon>
<polygon points="68.0,353.1 117.5,344.5 167.0,343.2 216.6,340.0 266.1,353.6 315.6,352.2 365.1,347.0 414.7,346.7 464.2,347.1 513.7,347.5 563.2,346.6 612.8,345.3 662.3,343.0 711.8,343.2 761.3,336.9 810.9,340.0 860.4,277.1 909.9,277.3 959.4,277.9 1009.0,271.6 1058.5,362.7 1108.0,353.1 1108.0,361.8 1058.5,371.4 1009.0,280.2 959.4,286.6 909.9,286.0 860.4,285.8 810.9,348.5 761.3,345.8 711.8,351.8 662.3,351.6 612.8,353.8 563.2,355.1 513.7,355.9 464.2,355.6 414.7,355.1 365.1,355.5 315.6,360.2 266.1,361.6 216.6,354.7 167.0,358.0 117.5,359.1 68.0,367.7" fill="#6a51a3" fill-opacity="0.9" stroke="#fff" stroke-width="0.4"><title>mdl_dxr — legalizeExistentialTypeLayout</title></polygon>
<polygon points="68.0,352.4 117.5,343.7 167.0,342.4 216.6,339.3 266.1,352.9 315.6,351.4 365.1,346.3 414.7,345.9 464.2,346.4 513.7,346.8 563.2,345.9 612.8,344.5 662.3,342.3 711.8,342.5 761.3,336.2 810.9,339.2 860.4,276.5 909.9,276.7 959.4,277.3 1009.0,271.1 1058.5,362.1 1108.0,352.5 1108.0,353.1 1058.5,362.7 1009.0,271.6 959.4,277.9 909.9,277.3 860.4,277.1 810.9,340.0 761.3,336.9 711.8,343.2 662.3,343.0 612.8,345.3 563.2,346.6 513.7,347.5 464.2,347.1 414.7,346.7 365.1,347.0 315.6,352.2 266.1,353.6 216.6,340.0 167.0,343.2 117.5,344.5 68.0,353.1" fill="#bcbddc" fill-opacity="0.9" stroke="#fff" stroke-width="0.4"><title>mdl_dxr — performMandatoryEarlyInlining</title></polygon>
<polygon points="68.0,351.9 117.5,343.2 167.0,341.9 216.6,338.8 266.1,352.3 315.6,350.9 365.1,345.7 414.7,345.4 464.2,345.9 513.7,346.2 563.2,345.4 612.8,344.0 662.3,341.5 711.8,341.8 761.3,335.4 810.9,338.5 860.4,275.8 909.9,276.0 959.4,276.5 1009.0,270.3 1058.5,361.4 1108.0,351.7 1108.0,352.5 1058.5,362.1 1009.0,271.1 959.4,277.3 909.9,276.7 860.4,276.5 810.9,339.2 761.3,336.2 711.8,342.5 662.3,342.3 612.8,344.5 563.2,345.9 513.7,346.8 464.2,346.4 414.7,345.9 365.1,346.3 315.6,351.4 266.1,352.9 216.6,339.3 167.0,342.4 117.5,343.7 68.0,352.4" fill="#dadaeb" fill-opacity="0.9" stroke="#fff" stroke-width="0.4"><title>mdl_dxr — performForceInlining</title></polygon>
<polygon points="68.0,329.6 117.5,319.4 167.0,318.2 216.6,314.7 266.1,322.4 315.6,321.1 365.1,317.7 414.7,317.9 464.2,316.8 513.7,317.4 563.2,316.3 612.8,314.3 662.3,311.2 711.8,311.8 761.3,304.7 810.9,307.7 860.4,232.9 909.9,233.1 959.4,233.4 1009.0,227.9 1058.5,325.7 1108.0,314.2 1108.0,351.7 1058.5,361.4 1009.0,270.3 959.4,276.5 909.9,276.0 860.4,275.8 810.9,338.5 761.3,335.4 711.8,341.8 662.3,341.5 612.8,344.0 563.2,345.4 513.7,346.2 464.2,345.9 414.7,345.4 365.1,345.7 315.6,350.9 266.1,352.3 216.6,338.8 167.0,341.9 117.5,343.2 68.0,351.9" fill="#4a1486" fill-opacity="0.9" stroke="#fff" stroke-width="0.4"><title>mdl_dxr — linkAndOptimizeIR (self)</title></polygon>
<polygon points="68.0,171.7 117.5,161.6 167.0,160.2 216.6,197.9 266.1,206.4 315.6,203.0 365.1,200.7 414.7,201.0 464.2,199.5 513.7,199.8 563.2,198.9 612.8,197.2 662.3,193.7 711.8,195.0 761.3,177.7 810.9,189.3 860.4,115.1 909.9,114.3 959.4,113.6 1009.0,109.5 1058.5,207.4 1108.0,194.6 1108.0,314.2 1058.5,325.7 1009.0,227.9 959.4,233.4 909.9,233.1 860.4,232.9 810.9,307.7 761.3,304.7 711.8,311.8 662.3,311.2 612.8,314.3 563.2,316.3 513.7,317.4 464.2,316.8 414.7,317.9 365.1,317.7 315.6,321.1 266.1,322.4 216.6,314.7 167.0,318.2 117.5,319.4 68.0,329.6" fill="#e6550d" fill-opacity="0.9" stroke="#fff" stroke-width="0.4"><title>mdl_dxr — generateOutput (self)</title></polygon>
<polygon points="68.0,171.5 117.5,160.9 167.0,158.9 216.6,197.6 266.1,205.9 315.6,203.0 365.1,200.7 414.7,200.3 464.2,199.2 513.7,199.4 563.2,198.9 612.8,196.9 662.3,192.7 711.8,194.8 761.3,177.5 810.9,189.1 860.4,114.7 909.9,113.9 959.4,112.5 1009.0,108.6 1058.5,207.4 1108.0,194.3 1108.0,194.6 1058.5,207.4 1009.0,109.5 959.4,113.6 909.9,114.3 860.4,115.1 810.9,189.3 761.3,177.7 711.8,195.0 662.3,193.7 612.8,197.2 563.2,198.9 513.7,199.8 464.2,199.5 414.7,201.0 365.1,200.7 315.6,203.0 266.1,206.4 216.6,197.9 167.0,160.2 117.5,161.6 68.0,171.7" fill="#969696" fill-opacity="0.9" stroke="#fff" stroke-width="0.4"><title>mdl_dxr — compileInner (self)</title></polygon>
<text x="12" y="578" fill="#666" font-weight="600">phase buckets</text>
<rect x="12" y="586" width="12" height="12" fill="#c7e9c0"/>
<text x="28" y="596" fill="#222">parseTranslationUnit</text>
<rect x="289" y="586" width="12" height="12" fill="#41ab5d"/>
<text x="305" y="596" fill="#222">SemanticChecking</text>
<rect x="566" y="586" width="12" height="12" fill="#006d2c"/>
<text x="582" y="596" fill="#222">generateIR</text>
<rect x="843" y="586" width="12" height="12" fill="#74c476"/>
<text x="859" y="596" fill="#222">frontEndExecute (self)</text>
<rect x="12" y="604" width="12" height="12" fill="#6baed6"/>
<text x="28" y="614" fill="#222">specializeModule</text>
<rect x="289" y="604" width="12" height="12" fill="#2171b5"/>
<text x="305" y="614" fill="#222">simplifyIR</text>
<rect x="566" y="604" width="12" height="12" fill="#08306b"/>
<text x="582" y="614" fill="#222">linkIR</text>
<rect x="843" y="604" width="12" height="12" fill="#9e9ac8"/>
<text x="859" y="614" fill="#222">unrollLoopsInModule</text>
<rect x="12" y="622" width="12" height="12" fill="#807dba"/>
<text x="28" y="632" fill="#222">legalizeResourceTypes</text>
<rect x="289" y="622" width="12" height="12" fill="#6a51a3"/>
<text x="305" y="632" fill="#222">legalizeExistentialTypeLayout</text>
<rect x="566" y="622" width="12" height="12" fill="#bcbddc"/>
<text x="582" y="632" fill="#222">performMandatoryEarlyInlining</text>
<rect x="843" y="622" width="12" height="12" fill="#dadaeb"/>
<text x="859" y="632" fill="#222">performForceInlining</text>
<rect x="12" y="640" width="12" height="12" fill="#4a1486"/>
<text x="28" y="650" fill="#222">linkAndOptimizeIR (self)</text>
<rect x="289" y="640" width="12" height="12" fill="#fd8d3c"/>
<text x="305" y="650" fill="#222">emitEntryPointsSourceFromIR</text>
<rect x="566" y="640" width="12" height="12" fill="#e6550d"/>
<text x="582" y="650" fill="#222">generateOutput (self)</text>
<rect x="843" y="640" width="12" height="12" fill="#969696"/>
<text x="859" y="650" fill="#222">compileInner (self)</text>
</svg>