<svg xmlns="http://www.w3.org/2000/svg" xmlns:xlink="http://www.w3.org/1999/xlink" width="1132" height="680" viewBox="0 0 1132 680" preserveAspectRatio="xMidYMid meet" font-family="sans-serif" font-size="13">
<rect width="1132" height="680" fill="white"/>
<text x="12" y="30" font-size="20" font-weight="bold">mdl_dxr — Daily tip-of-tree (last 30 days) (median ms)</text>
<text x="68" y="60" font-size="15" font-weight="600" fill="#1a1a1a">mdl_dxr<tspan fill="#888" font-weight="400" text-decoration="none">  0.82×</tspan></text>
<line x1="68.0" y1="516.0" x2="1108.0" y2="516.0" stroke="#eee"/>
<text x="64.0" y="519.0" text-anchor="end" fill="#999">0.0</text>
<line x1="68.0" y1="296.0" x2="1108.0" y2="296.0" stroke="#eee"/>
<text x="64.0" y="299.0" text-anchor="end" fill="#999">715</text>
<line x1="68.0" y1="76.0" x2="1108.0" y2="76.0" stroke="#eee"/>
<text x="64.0" y="79.0" text-anchor="end" fill="#999">1430</text>
<line x1="68.0" y1="76.0" x2="68.0" y2="516.0" stroke="#333"/>
<line x1="68.0" y1="516.0" x2="1108.0" y2="516.0" stroke="#333"/>
<line x1="68.0" y1="516.0" x2="68.0" y2="519.0" stroke="#999"/>
<text x="68.0" y="531.0" text-anchor="end" fill="#e8731a" transform="rotate(-50 68.0 531.0)">06-25</text>
<line x1="148.0" y1="516.0" x2="148.0" y2="519.0" stroke="#999"/>
<text x="148.0" y="531.0" text-anchor="end" fill="#e8731a" transform="rotate(-50 148.0 531.0)">06-26</text>
<line x1="228.0" y1="516.0" x2="228.0" y2="519.0" stroke="#999"/>
<text x="228.0" y="531.0" text-anchor="end" fill="#e8731a" transform="rotate(-50 228.0 531.0)">06-28</text>
<line x1="308.0" y1="516.0" x2="308.0" y2="519.0" stroke="#999"/>
<text x="308.0" y="531.0" text-anchor="end" fill="#e8731a" transform="rotate(-50 308.0 531.0)">07-01</text>
<line x1="388.0" y1="516.0" x2="388.0" y2="519.0" stroke="#999"/>
<text x="388.0" y="531.0" text-anchor="end" fill="#e8731a" transform="rotate(-50 388.0 531.0)">07-02</text>
<line x1="468.0" y1="516.0" x2="468.0" y2="519.0" stroke="#999"/>
<text x="468.0" y="531.0" text-anchor="end" fill="#e8731a" transform="rotate(-50 468.0 531.0)">07-03</text>
<line x1="548.0" y1="516.0" x2="548.0" y2="519.0" stroke="#999"/>
<text x="548.0" y="531.0" text-anchor="end" fill="#e8731a" transform="rotate(-50 548.0 531.0)">07-06</text>
<line x1="628.0" y1="516.0" x2="628.0" y2="519.0" stroke="#999"/>
<text x="628.0" y="531.0" text-anchor="end" fill="#e8731a" transform="rotate(-50 628.0 531.0)">07-07</text>
<line x1="708.0" y1="516.0" x2="708.0" y2="519.0" stroke="#999"/>
<text x="708.0" y="531.0" text-anchor="end" fill="#e8731a" transform="rotate(-50 708.0 531.0)">07-08</text>
<line x1="788.0" y1="516.0" x2="788.0" y2="519.0" stroke="#999"/>
<text x="788.0" y="531.0" text-anchor="end" fill="#e8731a" transform="rotate(-50 788.0 531.0)">07-09</text>
<line x1="868.0" y1="516.0" x2="868.0" y2="519.0" stroke="#999"/>
<text x="868.0" y="531.0" text-anchor="end" fill="#e8731a" transform="rotate(-50 868.0 531.0)">07-10</text>
<line x1="948.0" y1="516.0" x2="948.0" y2="519.0" stroke="#999"/>
<text x="948.0" y="531.0" text-anchor="end" fill="#e8731a" transform="rotate(-50 948.0 531.0)">07-11</text>
<line x1="1028.0" y1="516.0" x2="1028.0" y2="519.0" stroke="#999"/>
<text x="1028.0" y="531.0" text-anchor="end" fill="#e8731a" transform="rotate(-50 1028.0 531.0)">07-14</text>
<line x1="1108.0" y1="516.0" x2="1108.0" y2="519.0" stroke="#999"/>
<text x="1108.0" y="531.0" text-anchor="end" fill="#e8731a" transform="rotate(-50 1108.0 531.0)">07-15</text>
<polygon points="68.0,511.9 148.0,511.9 228.0,512.1 308.0,512.1 388.0,512.0 468.0,511.9 548.0,511.9 628.0,512.3 708.0,512.4 788.0,512.3 868.0,512.3 948.0,512.2 1028.0,512.3 1108.0,512.6 1108.0,516.0 1028.0,516.0 948.0,516.0 868.0,516.0 788.0,516.0 708.0,516.0 628.0,516.0 548.0,516.0 468.0,516.0 388.0,516.0 308.0,516.0 228.0,516.0 148.0,516.0 68.0,516.0" fill="#c7e9c0" fill-opacity="0.9" stroke="#fff" stroke-width="0.4"><title>mdl_dxr — parseTranslationUnit</title></polygon>
<polygon points="68.0,425.7 148.0,424.2 228.0,427.1 308.0,426.3 388.0,424.8 468.0,423.5 548.0,424.8 628.0,425.9 708.0,426.0 788.0,425.0 868.0,425.6 948.0,423.2 1028.0,424.0 1108.0,429.1 1108.0,512.6 1028.0,512.3 948.0,512.2 868.0,512.3 788.0,512.3 708.0,512.4 628.0,512.3 548.0,511.9 468.0,511.9 388.0,512.0 308.0,512.1 228.0,512.1 148.0,511.9 68.0,511.9" fill="#41ab5d" fill-opacity="0.9" stroke="#fff" stroke-width="0.4"><title>mdl_dxr — SemanticChecking</title></polygon>
<polygon points="68.0,424.6 148.0,423.1 228.0,426.0 308.0,425.2 388.0,423.7 468.0,422.3 548.0,423.6 628.0,424.8 708.0,424.9 788.0,423.8 868.0,424.5 948.0,422.1 1028.0,422.8 1108.0,427.9 1108.0,429.1 1028.0,424.0 948.0,423.2 868.0,425.6 788.0,425.0 708.0,426.0 628.0,425.9 548.0,424.8 468.0,423.5 388.0,424.8 308.0,426.3 228.0,427.1 148.0,424.2 68.0,425.7" fill="#006d2c" fill-opacity="0.9" stroke="#fff" stroke-width="0.4"><title>mdl_dxr — generateIR</title></polygon>
<polygon points="68.0,392.6 148.0,390.6 228.0,394.0 308.0,393.2 388.0,391.4 468.0,389.7 548.0,391.6 628.0,393.4 708.0,393.6 788.0,392.4 868.0,395.5 948.0,393.9 1028.0,394.5 1108.0,401.9 1108.0,427.9 1028.0,422.8 948.0,422.1 868.0,424.5 788.0,423.8 708.0,424.9 628.0,424.8 548.0,423.6 468.0,422.3 388.0,423.7 308.0,425.2 228.0,426.0 148.0,423.1 68.0,424.6" fill="#6baed6" fill-opacity="0.9" stroke="#fff" stroke-width="0.4"><title>mdl_dxr — specializeModule</title></polygon>
<polygon points="68.0,338.6 148.0,335.8 228.0,340.3 308.0,339.5 388.0,340.5 468.0,339.0 548.0,341.4 628.0,343.3 708.0,343.6 788.0,342.7 868.0,353.5 948.0,351.6 1028.0,352.1 1108.0,360.9 1108.0,401.9 1028.0,394.5 948.0,393.9 868.0,395.5 788.0,392.4 708.0,393.6 628.0,393.4 548.0,391.6 468.0,389.7 388.0,391.4 308.0,393.2 228.0,394.0 148.0,390.6 68.0,392.6" fill="#2171b5" fill-opacity="0.9" stroke="#fff" stroke-width="0.4"><title>mdl_dxr — simplifyIR</title></polygon>
<polygon points="68.0,334.8 148.0,331.7 228.0,336.5 308.0,335.5 388.0,336.5 468.0,335.0 548.0,337.5 628.0,339.5 708.0,339.7 788.0,338.8 868.0,349.6 948.0,347.7 1028.0,348.3 1108.0,357.1 1108.0,360.9 1028.0,352.1 948.0,351.6 868.0,353.5 788.0,342.7 708.0,343.6 628.0,343.3 548.0,341.4 468.0,339.0 388.0,340.5 308.0,339.5 228.0,340.3 148.0,335.8 68.0,338.6" fill="#08306b" fill-opacity="0.9" stroke="#fff" stroke-width="0.4"><title>mdl_dxr — linkIR</title></polygon>
<polygon points="68.0,334.7 148.0,331.6 228.0,336.4 308.0,335.4 388.0,336.4 468.0,334.9 548.0,337.4 628.0,339.3 708.0,339.6 788.0,338.6 868.0,349.5 948.0,347.5 1028.0,348.1 1108.0,356.9 1108.0,357.1 1028.0,348.3 948.0,347.7 868.0,349.6 788.0,338.8 708.0,339.7 628.0,339.5 548.0,337.5 468.0,335.0 388.0,336.5 308.0,335.5 228.0,336.5 148.0,331.7 68.0,334.8" fill="#9e9ac8" fill-opacity="0.9" stroke="#fff" stroke-width="0.4"><title>mdl_dxr — unrollLoopsInModule</title></polygon>
<polygon points="68.0,324.0 148.0,320.9 228.0,325.8 308.0,324.6 388.0,325.8 468.0,324.3 548.0,326.8 628.0,328.7 708.0,329.0 788.0,328.1 868.0,346.7 948.0,344.7 1028.0,345.4 1108.0,354.2 1108.0,356.9 1028.0,348.1 948.0,347.5 868.0,349.5 788.0,338.6 708.0,339.6 628.0,339.3 548.0,337.4 468.0,334.9 388.0,336.4 308.0,335.4 228.0,336.4 148.0,331.6 68.0,334.7" fill="#807dba" fill-opacity="0.9" stroke="#fff" stroke-width="0.4"><title>mdl_dxr — legalizeResourceTypes</title></polygon>
<polygon points="68.0,313.1 148.0,310.1 228.0,315.1 308.0,313.8 388.0,315.3 468.0,313.6 548.0,316.2 628.0,318.0 708.0,318.3 788.0,317.3 868.0,343.7 948.0,341.7 1028.0,342.4 1108.0,351.2 1108.0,354.2 1028.0,345.4 948.0,344.7 868.0,346.7 788.0,328.1 708.0,329.0 628.0,328.7 548.0,326.8 468.0,324.3 388.0,325.8 308.0,324.6 228.0,325.8 148.0,320.9 68.0,324.0" fill="#6a51a3" fill-opacity="0.9" stroke="#fff" stroke-width="0.4"><title>mdl_dxr — legalizeExistentialTypeLayout</title></polygon>
<polygon points="68.0,312.4 148.0,309.3 228.0,314.4 308.0,313.0 388.0,314.5 468.0,312.9 548.0,315.4 628.0,317.0 708.0,317.4 788.0,316.4 868.0,342.8 948.0,340.8 1028.0,341.4 1108.0,350.2 1108.0,351.2 1028.0,342.4 948.0,341.7 868.0,343.7 788.0,317.3 708.0,318.3 628.0,318.0 548.0,316.2 468.0,313.6 388.0,315.3 308.0,313.8 228.0,315.1 148.0,310.1 68.0,313.1" fill="#bcbddc" fill-opacity="0.9" stroke="#fff" stroke-width="0.4"><title>mdl_dxr — performMandatoryEarlyInlining</title></polygon>
<polygon points="68.0,311.4 148.0,308.4 228.0,313.5 308.0,312.1 388.0,313.6 468.0,311.9 548.0,314.5 628.0,316.1 708.0,316.4 788.0,315.5 868.0,341.9 948.0,339.8 1028.0,340.5 1108.0,349.3 1108.0,350.2 1028.0,341.4 948.0,340.8 868.0,342.8 788.0,316.4 708.0,317.4 628.0,317.0 548.0,315.4 468.0,312.9 388.0,314.5 308.0,313.0 228.0,314.4 148.0,309.3 68.0,312.4" fill="#dadaeb" fill-opacity="0.9" stroke="#fff" stroke-width="0.4"><title>mdl_dxr — performForceInlining</title></polygon>
<polygon points="68.0,264.6 148.0,260.3 228.0,266.9 308.0,265.7 388.0,273.0 468.0,271.8 548.0,273.8 628.0,275.1 708.0,275.4 788.0,275.2 868.0,307.9 948.0,306.3 1028.0,307.6 1108.0,321.2 1108.0,349.3 1028.0,340.5 948.0,339.8 868.0,341.9 788.0,315.5 708.0,316.4 628.0,316.1 548.0,314.5 468.0,311.9 388.0,313.6 308.0,312.1 228.0,313.5 148.0,308.4 68.0,311.4" fill="#4a1486" fill-opacity="0.9" stroke="#fff" stroke-width="0.4"><title>mdl_dxr — linkAndOptimizeIR (self)</title></polygon>
<polygon points="68.0,110.7 148.0,109.0 228.0,114.1 308.0,114.8 388.0,128.1 468.0,127.0 548.0,123.8 628.0,126.4 708.0,130.4 788.0,126.0 868.0,168.9 948.0,164.8 1028.0,162.3 1108.0,182.1 1108.0,321.2 1028.0,307.6 948.0,306.3 868.0,307.9 788.0,275.2 708.0,275.4 628.0,275.1 548.0,273.8 468.0,271.8 388.0,273.0 308.0,265.7 228.0,266.9 148.0,260.3 68.0,264.6" fill="#e6550d" fill-opacity="0.9" stroke="#fff" stroke-width="0.4"><title>mdl_dxr — generateOutput (self)</title></polygon>
<polygon points="68.0,110.5 148.0,108.6 228.0,113.2 308.0,114.5 388.0,128.0 468.0,126.5 548.0,122.9 628.0,126.3 708.0,128.7 788.0,125.0 868.0,168.1 948.0,162.9 1028.0,161.0 1108.0,181.5 1108.0,182.1 1028.0,162.3 948.0,164.8 868.0,168.9 788.0,126.0 708.0,130.4 628.0,126.4 548.0,123.8 468.0,127.0 388.0,128.1 308.0,114.8 228.0,114.1 148.0,109.0 68.0,110.7" fill="#969696" fill-opacity="0.9" stroke="#fff" stroke-width="0.4"><title>mdl_dxr — compileInner (self)</title></polygon>
<text x="12" y="578" fill="#666" font-weight="600">phase buckets</text>
<rect x="12" y="586" width="12" height="12" fill="#c7e9c0"/>
<text x="28" y="596" fill="#222">parseTranslationUnit</text>
<rect x="289" y="586" width="12" height="12" fill="#41ab5d"/>
<text x="305" y="596" fill="#222">SemanticChecking</text>
<rect x="566" y="586" width="12" height="12" fill="#006d2c"/>
<text x="582" y="596" fill="#222">generateIR</text>
<rect x="843" y="586" width="12" height="12" fill="#74c476"/>
<text x="859" y="596" fill="#222">frontEndExecute (self)</text>
<rect x="12" y="604" width="12" height="12" fill="#6baed6"/>
<text x="28" y="614" fill="#222">specializeModule</text>
<rect x="289" y="604" width="12" height="12" fill="#2171b5"/>
<text x="305" y="614" fill="#222">simplifyIR</text>
<rect x="566" y="604" width="12" height="12" fill="#08306b"/>
<text x="582" y="614" fill="#222">linkIR</text>
<rect x="843" y="604" width="12" height="12" fill="#9e9ac8"/>
<text x="859" y="614" fill="#222">unrollLoopsInModule</text>
<rect x="12" y="622" width="12" height="12" fill="#807dba"/>
<text x="28" y="632" fill="#222">legalizeResourceTypes</text>
<rect x="289" y="622" width="12" height="12" fill="#6a51a3"/>
<text x="305" y="632" fill="#222">legalizeExistentialTypeLayout</text>
<rect x="566" y="622" width="12" height="12" fill="#bcbddc"/>
<text x="582" y="632" fill="#222">performMandatoryEarlyInlining</text>
<rect x="843" y="622" width="12" height="12" fill="#dadaeb"/>
<text x="859" y="632" fill="#222">performForceInlining</text>
<rect x="12" y="640" width="12" height="12" fill="#4a1486"/>
<text x="28" y="650" fill="#222">linkAndOptimizeIR (self)</text>
<rect x="289" y="640" width="12" height="12" fill="#fd8d3c"/>
<text x="305" y="650" fill="#222">emitEntryPointsSourceFromIR</text>
<rect x="566" y="640" width="12" height="12" fill="#e6550d"/>
<text x="582" y="650" fill="#222">generateOutput (self)</text>
<rect x="843" y="640" width="12" height="12" fill="#969696"/>
<text x="859" y="650" fill="#222">compileInner (self)</text>
</svg>