<svg xmlns="http://www.w3.org/2000/svg" xmlns:xlink="http://www.w3.org/1999/xlink" width="1132" height="680" viewBox="0 0 1132 680" preserveAspectRatio="xMidYMid meet" font-family="sans-serif" font-size="13">
<rect width="1132" height="680" fill="white"/>
<text x="12" y="30" font-size="20" font-weight="bold">mdl_dxr — full phase breakdown across releases (median ms)</text>
<text x="68" y="60" font-size="15" font-weight="600" fill="#1a1a1a">mdl_dxr<tspan fill="#888" font-weight="400" text-decoration="none">  0.99×</tspan></text>
<line x1="68.0" y1="516.0" x2="1108.0" y2="516.0" stroke="#eee"/>
<text x="64.0" y="519.0" text-anchor="end" fill="#999">0.0</text>
<line x1="68.0" y1="296.0" x2="1108.0" y2="296.0" stroke="#eee"/>
<text x="64.0" y="299.0" text-anchor="end" fill="#999">875</text>
<line x1="68.0" y1="76.0" x2="1108.0" y2="76.0" stroke="#eee"/>
<text x="64.0" y="79.0" text-anchor="end" fill="#999">1750</text>
<line x1="68.0" y1="76.0" x2="68.0" y2="516.0" stroke="#333"/>
<line x1="68.0" y1="516.0" x2="1108.0" y2="516.0" stroke="#333"/>
<line x1="68.0" y1="516.0" x2="68.0" y2="519.0" stroke="#999"/>
<text x="68.0" y="531.0" text-anchor="end" fill="#666" transform="rotate(-50 68.0 531.0)">25.19</text>
<line x1="137.3" y1="516.0" x2="137.3" y2="519.0" stroke="#999"/>
<text x="137.3" y="531.0" text-anchor="end" fill="#666" transform="rotate(-50 137.3 531.0)">25.20</text>
<line x1="206.7" y1="516.0" x2="206.7" y2="519.0" stroke="#999"/>
<text x="206.7" y="531.0" text-anchor="end" fill="#666" transform="rotate(-50 206.7 531.0)">25.21</text>
<line x1="276.0" y1="516.0" x2="276.0" y2="519.0" stroke="#999"/>
<text x="276.0" y="531.0" text-anchor="end" fill="#666" transform="rotate(-50 276.0 531.0)">25.22</text>
<line x1="345.3" y1="516.0" x2="345.3" y2="519.0" stroke="#999"/>
<text x="345.3" y="531.0" text-anchor="end" fill="#666" transform="rotate(-50 345.3 531.0)">25.23</text>
<line x1="414.7" y1="516.0" x2="414.7" y2="519.0" stroke="#999"/>
<text x="414.7" y="531.0" text-anchor="end" fill="#666" transform="rotate(-50 414.7 531.0)">25.24</text>
<line x1="484.0" y1="516.0" x2="484.0" y2="519.0" stroke="#999"/>
<text x="484.0" y="531.0" text-anchor="end" fill="#666" transform="rotate(-50 484.0 531.0)">26.1</text>
<line x1="553.3" y1="516.0" x2="553.3" y2="519.0" stroke="#999"/>
<text x="553.3" y="531.0" text-anchor="end" fill="#666" transform="rotate(-50 553.3 531.0)">26.2</text>
<line x1="622.7" y1="516.0" x2="622.7" y2="519.0" stroke="#999"/>
<text x="622.7" y="531.0" text-anchor="end" fill="#666" transform="rotate(-50 622.7 531.0)">26.3</text>
<line x1="692.0" y1="516.0" x2="692.0" y2="519.0" stroke="#999"/>
<text x="692.0" y="531.0" text-anchor="end" fill="#666" transform="rotate(-50 692.0 531.0)">26.4</text>
<line x1="761.3" y1="516.0" x2="761.3" y2="519.0" stroke="#999"/>
<text x="761.3" y="531.0" text-anchor="end" fill="#666" transform="rotate(-50 761.3 531.0)">26.5</text>
<line x1="830.7" y1="516.0" x2="830.7" y2="519.0" stroke="#999"/>
<text x="830.7" y="531.0" text-anchor="end" fill="#666" transform="rotate(-50 830.7 531.0)">26.7</text>
<line x1="900.0" y1="516.0" x2="900.0" y2="519.0" stroke="#999"/>
<text x="900.0" y="531.0" text-anchor="end" fill="#666" transform="rotate(-50 900.0 531.0)">26.8</text>
<line x1="969.3" y1="516.0" x2="969.3" y2="519.0" stroke="#999"/>
<text x="969.3" y="531.0" text-anchor="end" fill="#666" transform="rotate(-50 969.3 531.0)">26.9</text>
<line x1="1038.7" y1="516.0" x2="1038.7" y2="519.0" stroke="#999"/>
<text x="1038.7" y="531.0" text-anchor="end" fill="#666" transform="rotate(-50 1038.7 531.0)">26.10</text>
<line x1="1108.0" y1="516.0" x2="1108.0" y2="519.0" stroke="#999"/>
<text x="1108.0" y="531.0" text-anchor="end" fill="#666" transform="rotate(-50 1108.0 531.0)">26.11</text>
<polygon points="68.0,512.8 137.3,512.9 206.7,512.8 276.0,512.8 345.3,512.9 414.7,512.9 484.0,512.8 553.3,512.8 622.7,512.8 692.0,512.7 761.3,512.8 830.7,512.8 900.0,512.8 969.3,512.8 1038.7,512.8 1108.0,512.8 1108.0,516.0 1038.7,516.0 969.3,516.0 900.0,516.0 830.7,516.0 761.3,516.0 692.0,516.0 622.7,516.0 553.3,516.0 484.0,516.0 414.7,516.0 345.3,516.0 276.0,516.0 206.7,516.0 137.3,516.0 68.0,516.0" fill="#c7e9c0" fill-opacity="0.9" stroke="#fff" stroke-width="0.4"><title>mdl_dxr — parseTranslationUnit</title></polygon>
<polygon points="68.0,415.1 137.3,414.4 206.7,414.2 276.0,414.6 345.3,414.8 414.7,414.6 484.0,413.5 553.3,412.1 622.7,412.0 692.0,408.0 761.3,409.6 830.7,381.3 900.0,381.0 969.3,381.5 1038.7,375.7 1108.0,448.8 1108.0,512.8 1038.7,512.8 969.3,512.8 900.0,512.8 830.7,512.8 761.3,512.8 692.0,512.7 622.7,512.8 553.3,512.8 484.0,512.8 414.7,512.9 345.3,512.9 276.0,512.8 206.7,512.8 137.3,512.9 68.0,512.8" fill="#41ab5d" fill-opacity="0.9" stroke="#fff" stroke-width="0.4"><title>mdl_dxr — SemanticChecking</title></polygon>
<polygon points="68.0,414.4 137.3,413.7 206.7,413.4 276.0,413.9 345.3,414.1 414.7,413.9 484.0,412.8 553.3,411.4 622.7,411.3 692.0,407.2 761.3,408.8 830.7,377.7 900.0,377.3 969.3,377.9 1038.7,372.0 1108.0,447.9 1108.0,448.8 1038.7,375.7 969.3,381.5 900.0,381.0 830.7,381.3 761.3,409.6 692.0,408.0 622.7,412.0 553.3,412.1 484.0,413.5 414.7,414.6 345.3,414.8 276.0,414.6 206.7,414.2 137.3,414.4 68.0,415.1" fill="#006d2c" fill-opacity="0.9" stroke="#fff" stroke-width="0.4"><title>mdl_dxr — generateIR</title></polygon>
<polygon points="68.0,404.5 137.3,403.8 206.7,403.5 276.0,404.0 345.3,404.2 414.7,399.9 484.0,398.7 553.3,397.2 622.7,397.2 692.0,392.8 761.3,393.9 830.7,348.1 900.0,347.7 969.3,348.2 1038.7,342.1 1108.0,425.0 1108.0,447.9 1038.7,372.0 969.3,377.9 900.0,377.3 830.7,377.7 761.3,408.8 692.0,407.2 622.7,411.3 553.3,411.4 484.0,412.8 414.7,413.9 345.3,414.1 276.0,413.9 206.7,413.4 137.3,413.7 68.0,414.4" fill="#6baed6" fill-opacity="0.9" stroke="#fff" stroke-width="0.4"><title>mdl_dxr — specializeModule</title></polygon>
<polygon points="68.0,371.3 137.3,367.0 206.7,366.6 276.0,367.1 345.3,367.3 414.7,366.7 484.0,365.3 553.3,363.4 622.7,363.4 692.0,357.9 761.3,360.1 830.7,301.8 900.0,301.6 969.3,302.1 1038.7,295.9 1108.0,383.0 1108.0,425.0 1038.7,342.1 969.3,348.2 900.0,347.7 830.7,348.1 761.3,393.9 692.0,392.8 622.7,397.2 553.3,397.2 484.0,398.7 414.7,399.9 345.3,404.2 276.0,404.0 206.7,403.5 137.3,403.8 68.0,404.5" fill="#2171b5" fill-opacity="0.9" stroke="#fff" stroke-width="0.4"><title>mdl_dxr — simplifyIR</title></polygon>
<polygon points="68.0,368.3 137.3,364.1 206.7,363.6 276.0,364.1 345.3,364.4 414.7,363.7 484.0,362.3 553.3,360.3 622.7,360.3 692.0,354.6 761.3,357.1 830.7,294.4 900.0,294.6 969.3,295.2 1038.7,288.8 1108.0,380.0 1108.0,383.0 1038.7,295.9 969.3,302.1 900.0,301.6 830.7,301.8 761.3,360.1 692.0,357.9 622.7,363.4 553.3,363.4 484.0,365.3 414.7,366.7 345.3,367.3 276.0,367.1 206.7,366.6 137.3,367.0 68.0,371.3" fill="#08306b" fill-opacity="0.9" stroke="#fff" stroke-width="0.4"><title>mdl_dxr — linkIR</title></polygon>
<polygon points="68.0,368.2 137.3,363.9 206.7,363.5 276.0,364.0 345.3,364.3 414.7,363.6 484.0,362.2 553.3,360.2 622.7,360.2 692.0,354.5 761.3,356.9 830.7,294.3 900.0,294.5 969.3,295.2 1038.7,288.7 1108.0,379.9 1108.0,380.0 1038.7,288.8 969.3,295.2 900.0,294.6 830.7,294.4 761.3,357.1 692.0,354.6 622.7,360.3 553.3,360.3 484.0,362.3 414.7,363.7 345.3,364.4 276.0,364.1 206.7,363.6 137.3,364.1 68.0,368.3" fill="#9e9ac8" fill-opacity="0.9" stroke="#fff" stroke-width="0.4"><title>mdl_dxr — unrollLoopsInModule</title></polygon>
<polygon points="68.0,360.2 137.3,355.5 206.7,355.1 276.0,355.6 345.3,355.9 414.7,355.1 484.0,353.8 553.3,351.6 622.7,351.8 692.0,345.8 761.3,348.5 830.7,285.8 900.0,286.0 969.3,286.6 1038.7,280.2 1108.0,371.4 1108.0,379.9 1038.7,288.7 969.3,295.2 900.0,294.5 830.7,294.3 761.3,356.9 692.0,354.5 622.7,360.2 553.3,360.2 484.0,362.2 414.7,363.6 345.3,364.3 276.0,364.0 206.7,363.5 137.3,363.9 68.0,368.2" fill="#807dba" fill-opacity="0.9" stroke="#fff" stroke-width="0.4"><title>mdl_dxr — legalizeResourceTypes</title></polygon>
<polygon points="68.0,352.2 137.3,347.0 206.7,346.7 276.0,347.1 345.3,347.5 414.7,346.6 484.0,345.3 553.3,343.0 622.7,343.2 692.0,336.9 761.3,340.0 830.7,277.1 900.0,277.3 969.3,277.9 1038.7,271.6 1108.0,362.7 1108.0,371.4 1038.7,280.2 969.3,286.6 900.0,286.0 830.7,285.8 761.3,348.5 692.0,345.8 622.7,351.8 553.3,351.6 484.0,353.8 414.7,355.1 345.3,355.9 276.0,355.6 206.7,355.1 137.3,355.5 68.0,360.2" fill="#6a51a3" fill-opacity="0.9" stroke="#fff" stroke-width="0.4"><title>mdl_dxr — legalizeExistentialTypeLayout</title></polygon>
<polygon points="68.0,351.4 137.3,346.3 206.7,345.9 276.0,346.4 345.3,346.8 414.7,345.9 484.0,344.5 553.3,342.3 622.7,342.5 692.0,336.2 761.3,339.2 830.7,276.5 900.0,276.7 969.3,277.3 1038.7,271.1 1108.0,362.1 1108.0,362.7 1038.7,271.6 969.3,277.9 900.0,277.3 830.7,277.1 761.3,340.0 692.0,336.9 622.7,343.2 553.3,343.0 484.0,345.3 414.7,346.6 345.3,347.5 276.0,347.1 206.7,346.7 137.3,347.0 68.0,352.2" fill="#bcbddc" fill-opacity="0.9" stroke="#fff" stroke-width="0.4"><title>mdl_dxr — performMandatoryEarlyInlining</title></polygon>
<polygon points="68.0,350.9 137.3,345.7 206.7,345.4 276.0,345.9 345.3,346.2 414.7,345.4 484.0,344.0 553.3,341.5 622.7,341.8 692.0,335.4 761.3,338.5 830.7,275.8 900.0,276.0 969.3,276.5 1038.7,270.3 1108.0,361.4 1108.0,362.1 1038.7,271.1 969.3,277.3 900.0,276.7 830.7,276.5 761.3,339.2 692.0,336.2 622.7,342.5 553.3,342.3 484.0,344.5 414.7,345.9 345.3,346.8 276.0,346.4 206.7,345.9 137.3,346.3 68.0,351.4" fill="#dadaeb" fill-opacity="0.9" stroke="#fff" stroke-width="0.4"><title>mdl_dxr — performForceInlining</title></polygon>
<polygon points="68.0,321.1 137.3,317.7 206.7,317.9 276.0,316.8 345.3,317.4 414.7,316.3 484.0,314.3 553.3,311.2 622.7,311.8 692.0,304.7 761.3,307.7 830.7,232.9 900.0,233.1 969.3,233.4 1038.7,227.9 1108.0,325.7 1108.0,361.4 1038.7,270.3 969.3,276.5 900.0,276.0 830.7,275.8 761.3,338.5 692.0,335.4 622.7,341.8 553.3,341.5 484.0,344.0 414.7,345.4 345.3,346.2 276.0,345.9 206.7,345.4 137.3,345.7 68.0,350.9" fill="#4a1486" fill-opacity="0.9" stroke="#fff" stroke-width="0.4"><title>mdl_dxr — linkAndOptimizeIR (self)</title></polygon>
<polygon points="68.0,203.0 137.3,200.7 206.7,201.0 276.0,199.5 345.3,199.8 414.7,198.9 484.0,197.2 553.3,193.7 622.7,195.0 692.0,177.7 761.3,189.3 830.7,115.1 900.0,114.3 969.3,113.6 1038.7,109.5 1108.0,207.4 1108.0,325.7 1038.7,227.9 969.3,233.4 900.0,233.1 830.7,232.9 761.3,307.7 692.0,304.7 622.7,311.8 553.3,311.2 484.0,314.3 414.7,316.3 345.3,317.4 276.0,316.8 206.7,317.9 137.3,317.7 68.0,321.1" fill="#e6550d" fill-opacity="0.9" stroke="#fff" stroke-width="0.4"><title>mdl_dxr — generateOutput (self)</title></polygon>
<polygon points="68.0,203.0 137.3,200.7 206.7,200.3 276.0,199.2 345.3,199.4 414.7,198.9 484.0,196.9 553.3,192.7 622.7,194.8 692.0,177.5 761.3,189.1 830.7,114.7 900.0,113.9 969.3,112.5 1038.7,108.6 1108.0,207.4 1108.0,207.4 1038.7,109.5 969.3,113.6 900.0,114.3 830.7,115.1 761.3,189.3 692.0,177.7 622.7,195.0 553.3,193.7 484.0,197.2 414.7,198.9 345.3,199.8 276.0,199.5 206.7,201.0 137.3,200.7 68.0,203.0" fill="#969696" fill-opacity="0.9" stroke="#fff" stroke-width="0.4"><title>mdl_dxr — compileInner (self)</title></polygon>
<text x="12" y="578" fill="#666" font-weight="600">phase buckets</text>
<rect x="12" y="586" width="12" height="12" fill="#c7e9c0"/>
<text x="28" y="596" fill="#222">parseTranslationUnit</text>
<rect x="289" y="586" width="12" height="12" fill="#41ab5d"/>
<text x="305" y="596" fill="#222">SemanticChecking</text>
<rect x="566" y="586" width="12" height="12" fill="#006d2c"/>
<text x="582" y="596" fill="#222">generateIR</text>
<rect x="843" y="586" width="12" height="12" fill="#74c476"/>
<text x="859" y="596" fill="#222">frontEndExecute (self)</text>
<rect x="12" y="604" width="12" height="12" fill="#6baed6"/>
<text x="28" y="614" fill="#222">specializeModule</text>
<rect x="289" y="604" width="12" height="12" fill="#2171b5"/>
<text x="305" y="614" fill="#222">simplifyIR</text>
<rect x="566" y="604" width="12" height="12" fill="#08306b"/>
<text x="582" y="614" fill="#222">linkIR</text>
<rect x="843" y="604" width="12" height="12" fill="#9e9ac8"/>
<text x="859" y="614" fill="#222">unrollLoopsInModule</text>
<rect x="12" y="622" width="12" height="12" fill="#807dba"/>
<text x="28" y="632" fill="#222">legalizeResourceTypes</text>
<rect x="289" y="622" width="12" height="12" fill="#6a51a3"/>
<text x="305" y="632" fill="#222">legalizeExistentialTypeLayout</text>
<rect x="566" y="622" width="12" height="12" fill="#bcbddc"/>
<text x="582" y="632" fill="#222">performMandatoryEarlyInlining</text>
<rect x="843" y="622" width="12" height="12" fill="#dadaeb"/>
<text x="859" y="632" fill="#222">performForceInlining</text>
<rect x="12" y="640" width="12" height="12" fill="#4a1486"/>
<text x="28" y="650" fill="#222">linkAndOptimizeIR (self)</text>
<rect x="289" y="640" width="12" height="12" fill="#fd8d3c"/>
<text x="305" y="650" fill="#222">emitEntryPointsSourceFromIR</text>
<rect x="566" y="640" width="12" height="12" fill="#e6550d"/>
<text x="582" y="650" fill="#222">generateOutput (self)</text>
<rect x="843" y="640" width="12" height="12" fill="#969696"/>
<text x="859" y="650" fill="#222">compileInner (self)</text>
</svg>