<svg xmlns="http://www.w3.org/2000/svg" xmlns:xlink="http://www.w3.org/1999/xlink" width="1132" height="680" viewBox="0 0 1132 680" preserveAspectRatio="xMidYMid meet" font-family="sans-serif" font-size="13">
<rect width="1132" height="680" fill="white"/>
<text x="12" y="30" font-size="20" font-weight="bold">mdl_dxr — full phase breakdown across releases (median ms)</text>
<text x="68" y="60" font-size="15" font-weight="600" fill="#1a1a1a">mdl_dxr<tspan fill="#888" font-weight="400" text-decoration="none">  0.87×</tspan></text>
<line x1="68.0" y1="516.0" x2="1108.0" y2="516.0" stroke="#eee"/>
<text x="64.0" y="519.0" text-anchor="end" fill="#999">0.0</text>
<line x1="68.0" y1="296.0" x2="1108.0" y2="296.0" stroke="#eee"/>
<text x="64.0" y="299.0" text-anchor="end" fill="#999">877</text>
<line x1="68.0" y1="76.0" x2="1108.0" y2="76.0" stroke="#eee"/>
<text x="64.0" y="79.0" text-anchor="end" fill="#999">1753</text>
<line x1="68.0" y1="76.0" x2="68.0" y2="516.0" stroke="#333"/>
<line x1="68.0" y1="516.0" x2="1108.0" y2="516.0" stroke="#333"/>
<line x1="839.0" y1="76.0" x2="839.0" y2="516.0" stroke="#e8731a" stroke-width="1.2" stroke-dasharray="4 3"/>
<text x="842.0" y="87.0" fill="#e8731a" font-size="11">daily →</text>
<line x1="68.0" y1="516.0" x2="68.0" y2="519.0" stroke="#999"/>
<text x="68.0" y="531.0" text-anchor="end" fill="#666" transform="rotate(-50 68.0 531.0)">25.14</text>
<line x1="103.9" y1="516.0" x2="103.9" y2="519.0" stroke="#999"/>
<text x="103.9" y="531.0" text-anchor="end" fill="#666" transform="rotate(-50 103.9 531.0)">25.15</text>
<line x1="139.7" y1="516.0" x2="139.7" y2="519.0" stroke="#999"/>
<text x="139.7" y="531.0" text-anchor="end" fill="#666" transform="rotate(-50 139.7 531.0)">25.16</text>
<line x1="175.6" y1="516.0" x2="175.6" y2="519.0" stroke="#999"/>
<text x="175.6" y="531.0" text-anchor="end" fill="#666" transform="rotate(-50 175.6 531.0)">25.17</text>
<line x1="211.4" y1="516.0" x2="211.4" y2="519.0" stroke="#999"/>
<text x="211.4" y="531.0" text-anchor="end" fill="#666" transform="rotate(-50 211.4 531.0)">25.18</text>
<line x1="247.3" y1="516.0" x2="247.3" y2="519.0" stroke="#999"/>
<text x="247.3" y="531.0" text-anchor="end" fill="#666" transform="rotate(-50 247.3 531.0)">25.19</text>
<line x1="283.2" y1="516.0" x2="283.2" y2="519.0" stroke="#999"/>
<text x="283.2" y="531.0" text-anchor="end" fill="#666" transform="rotate(-50 283.2 531.0)">25.20</text>
<line x1="319.0" y1="516.0" x2="319.0" y2="519.0" stroke="#999"/>
<text x="319.0" y="531.0" text-anchor="end" fill="#666" transform="rotate(-50 319.0 531.0)">25.21</text>
<line x1="354.9" y1="516.0" x2="354.9" y2="519.0" stroke="#999"/>
<text x="354.9" y="531.0" text-anchor="end" fill="#666" transform="rotate(-50 354.9 531.0)">25.22</text>
<line x1="390.8" y1="516.0" x2="390.8" y2="519.0" stroke="#999"/>
<text x="390.8" y="531.0" text-anchor="end" fill="#666" transform="rotate(-50 390.8 531.0)">25.23</text>
<line x1="426.6" y1="516.0" x2="426.6" y2="519.0" stroke="#999"/>
<text x="426.6" y="531.0" text-anchor="end" fill="#666" transform="rotate(-50 426.6 531.0)">25.24</text>
<line x1="462.5" y1="516.0" x2="462.5" y2="519.0" stroke="#999"/>
<text x="462.5" y="531.0" text-anchor="end" fill="#666" transform="rotate(-50 462.5 531.0)">26.1</text>
<line x1="498.3" y1="516.0" x2="498.3" y2="519.0" stroke="#999"/>
<text x="498.3" y="531.0" text-anchor="end" fill="#666" transform="rotate(-50 498.3 531.0)">26.2</text>
<line x1="534.2" y1="516.0" x2="534.2" y2="519.0" stroke="#999"/>
<text x="534.2" y="531.0" text-anchor="end" fill="#666" transform="rotate(-50 534.2 531.0)">26.3</text>
<line x1="570.1" y1="516.0" x2="570.1" y2="519.0" stroke="#999"/>
<text x="570.1" y="531.0" text-anchor="end" fill="#666" transform="rotate(-50 570.1 531.0)">26.4</text>
<line x1="605.9" y1="516.0" x2="605.9" y2="519.0" stroke="#999"/>
<text x="605.9" y="531.0" text-anchor="end" fill="#666" transform="rotate(-50 605.9 531.0)">26.5</text>
<line x1="641.8" y1="516.0" x2="641.8" y2="519.0" stroke="#999"/>
<text x="641.8" y="531.0" text-anchor="end" fill="#666" transform="rotate(-50 641.8 531.0)">26.7</text>
<line x1="677.7" y1="516.0" x2="677.7" y2="519.0" stroke="#999"/>
<text x="677.7" y="531.0" text-anchor="end" fill="#666" transform="rotate(-50 677.7 531.0)">26.8</text>
<line x1="713.5" y1="516.0" x2="713.5" y2="519.0" stroke="#999"/>
<text x="713.5" y="531.0" text-anchor="end" fill="#666" transform="rotate(-50 713.5 531.0)">26.9</text>
<line x1="749.4" y1="516.0" x2="749.4" y2="519.0" stroke="#999"/>
<text x="749.4" y="531.0" text-anchor="end" fill="#666" transform="rotate(-50 749.4 531.0)">26.10</text>
<line x1="785.2" y1="516.0" x2="785.2" y2="519.0" stroke="#999"/>
<text x="785.2" y="531.0" text-anchor="end" fill="#666" transform="rotate(-50 785.2 531.0)">26.11</text>
<line x1="821.1" y1="516.0" x2="821.1" y2="519.0" stroke="#999"/>
<text x="821.1" y="531.0" text-anchor="end" fill="#666" transform="rotate(-50 821.1 531.0)">26.12</text>
<line x1="857.0" y1="516.0" x2="857.0" y2="519.0" stroke="#999"/>
<text x="857.0" y="531.0" text-anchor="end" fill="#e8731a" transform="rotate(-50 857.0 531.0)">06-25</text>
<line x1="892.8" y1="516.0" x2="892.8" y2="519.0" stroke="#999"/>
<text x="892.8" y="531.0" text-anchor="end" fill="#e8731a" transform="rotate(-50 892.8 531.0)">06-26</text>
<line x1="928.7" y1="516.0" x2="928.7" y2="519.0" stroke="#999"/>
<text x="928.7" y="531.0" text-anchor="end" fill="#e8731a" transform="rotate(-50 928.7 531.0)">06-28</text>
<line x1="964.6" y1="516.0" x2="964.6" y2="519.0" stroke="#999"/>
<text x="964.6" y="531.0" text-anchor="end" fill="#e8731a" transform="rotate(-50 964.6 531.0)">07-01</text>
<line x1="1000.4" y1="516.0" x2="1000.4" y2="519.0" stroke="#999"/>
<text x="1000.4" y="531.0" text-anchor="end" fill="#e8731a" transform="rotate(-50 1000.4 531.0)">07-02</text>
<line x1="1036.3" y1="516.0" x2="1036.3" y2="519.0" stroke="#999"/>
<text x="1036.3" y="531.0" text-anchor="end" fill="#e8731a" transform="rotate(-50 1036.3 531.0)">07-03</text>
<line x1="1072.1" y1="516.0" x2="1072.1" y2="519.0" stroke="#999"/>
<text x="1072.1" y="531.0" text-anchor="end" fill="#e8731a" transform="rotate(-50 1072.1 531.0)">07-03</text>
<line x1="1108.0" y1="516.0" x2="1108.0" y2="519.0" stroke="#999"/>
<text x="1108.0" y="531.0" text-anchor="end" fill="#e8731a" transform="rotate(-50 1108.0 531.0)">07-03</text>
<polygon points="68.0,513.0 103.9,513.0 139.7,512.9 175.6,512.9 211.4,512.6 247.3,512.7 283.2,512.5 319.0,512.6 354.9,512.5 390.8,512.9 426.6,512.9 462.5,512.9 498.3,513.0 534.2,512.9 570.1,512.8 605.9,512.9 641.8,512.9 677.7,512.8 713.5,512.9 749.4,512.8 785.2,512.9 821.1,512.8 857.0,512.7 892.8,512.7 928.7,512.7 964.6,512.6 1000.4,512.8 1036.3,512.7 1072.1,512.6 1108.0,512.6 1108.0,516.0 1072.1,516.0 1036.3,516.0 1000.4,516.0 964.6,516.0 928.7,516.0 892.8,516.0 857.0,516.0 821.1,516.0 785.2,516.0 749.4,516.0 713.5,516.0 677.7,516.0 641.8,516.0 605.9,516.0 570.1,516.0 534.2,516.0 498.3,516.0 462.5,516.0 426.6,516.0 390.8,516.0 354.9,516.0 319.0,516.0 283.2,516.0 247.3,516.0 211.4,516.0 175.6,516.0 139.7,516.0 103.9,516.0 68.0,516.0" fill="#c7e9c0" fill-opacity="0.9" stroke="#fff" stroke-width="0.4"><title>mdl_dxr — parseTranslationUnit</title></polygon>
<polygon points="68.0,424.7 103.9,416.4 139.7,416.6 175.6,407.5 211.4,405.5 247.3,409.9 283.2,401.4 319.0,402.7 354.9,405.7 390.8,411.7 426.6,414.0 462.5,413.5 498.3,411.5 534.2,412.1 570.1,410.2 605.9,410.6 641.8,380.2 677.7,379.0 713.5,379.4 749.4,374.3 785.2,450.2 821.1,446.8 857.0,442.9 892.8,442.0 928.7,442.7 964.6,442.6 1000.4,442.7 1036.3,441.6 1072.1,441.9 1108.0,443.7 1108.0,512.6 1072.1,512.6 1036.3,512.7 1000.4,512.8 964.6,512.6 928.7,512.7 892.8,512.7 857.0,512.7 821.1,512.8 785.2,512.9 749.4,512.8 713.5,512.9 677.7,512.8 641.8,512.9 605.9,512.9 570.1,512.8 534.2,512.9 498.3,513.0 462.5,512.9 426.6,512.9 390.8,512.9 354.9,512.5 319.0,512.6 283.2,512.5 247.3,512.7 211.4,512.6 175.6,512.9 139.7,512.9 103.9,513.0 68.0,513.0" fill="#41ab5d" fill-opacity="0.9" stroke="#fff" stroke-width="0.4"><title>mdl_dxr — SemanticChecking</title></polygon>
<polygon points="68.0,424.1 103.9,415.7 139.7,415.9 175.6,406.7 211.4,404.8 247.3,409.2 283.2,400.7 319.0,401.9 354.9,404.9 390.8,410.9 426.6,413.3 462.5,412.7 498.3,410.8 534.2,411.3 570.1,409.5 605.9,409.9 641.8,376.3 677.7,375.0 713.5,375.6 749.4,370.4 785.2,449.3 821.1,446.0 857.0,442.0 892.8,441.0 928.7,441.7 964.6,441.7 1000.4,441.8 1036.3,440.7 1072.1,440.9 1108.0,442.8 1108.0,443.7 1072.1,441.9 1036.3,441.6 1000.4,442.7 964.6,442.6 928.7,442.7 892.8,442.0 857.0,442.9 821.1,446.8 785.2,450.2 749.4,374.3 713.5,379.4 677.7,379.0 641.8,380.2 605.9,410.6 570.1,410.2 534.2,412.1 498.3,411.5 462.5,413.5 426.6,414.0 390.8,411.7 354.9,405.7 319.0,402.7 283.2,401.4 247.3,409.9 211.4,405.5 175.6,407.5 139.7,416.6 103.9,416.4 68.0,424.7" fill="#006d2c" fill-opacity="0.9" stroke="#fff" stroke-width="0.4"><title>mdl_dxr — generateIR</title></polygon>
<polygon points="68.0,415.0 103.9,406.7 139.7,406.8 175.6,397.3 211.4,395.4 247.3,399.3 283.2,390.5 319.0,391.2 354.9,394.5 390.8,401.0 426.6,399.5 462.5,398.9 498.3,396.8 534.2,397.4 570.1,395.5 605.9,395.3 641.8,347.0 677.7,345.7 713.5,346.7 749.4,341.2 785.2,427.4 821.1,424.2 857.0,415.6 892.8,414.8 928.7,415.5 964.6,415.9 1000.4,416.2 1036.3,414.7 1072.1,414.8 1108.0,417.2 1108.0,442.8 1072.1,440.9 1036.3,440.7 1000.4,441.8 964.6,441.7 928.7,441.7 892.8,441.0 857.0,442.0 821.1,446.0 785.2,449.3 749.4,370.4 713.5,375.6 677.7,375.0 641.8,376.3 605.9,409.9 570.1,409.5 534.2,411.3 498.3,410.8 462.5,412.7 426.6,413.3 390.8,410.9 354.9,404.9 319.0,401.9 283.2,400.7 247.3,409.2 211.4,404.8 175.6,406.7 139.7,415.9 103.9,415.7 68.0,424.1" fill="#6baed6" fill-opacity="0.9" stroke="#fff" stroke-width="0.4"><title>mdl_dxr — specializeModule</title></polygon>
<polygon points="68.0,384.4 103.9,375.7 139.7,376.2 175.6,364.6 211.4,361.7 247.3,365.5 283.2,351.3 319.0,350.1 354.9,355.0 390.8,363.7 426.6,366.9 462.5,365.4 498.3,363.6 534.2,364.0 570.1,361.9 605.9,361.6 641.8,300.9 677.7,299.3 713.5,301.3 749.4,295.0 785.2,386.1 821.1,383.1 857.0,371.2 892.8,370.7 928.7,371.1 964.6,372.6 1000.4,376.6 1036.3,374.1 1072.1,374.1 1108.0,377.2 1108.0,417.2 1072.1,414.8 1036.3,414.7 1000.4,416.2 964.6,415.9 928.7,415.5 892.8,414.8 857.0,415.6 821.1,424.2 785.2,427.4 749.4,341.2 713.5,346.7 677.7,345.7 641.8,347.0 605.9,395.3 570.1,395.5 534.2,397.4 498.3,396.8 462.5,398.9 426.6,399.5 390.8,401.0 354.9,394.5 319.0,391.2 283.2,390.5 247.3,399.3 211.4,395.4 175.6,397.3 139.7,406.8 103.9,406.7 68.0,415.0" fill="#2171b5" fill-opacity="0.9" stroke="#fff" stroke-width="0.4"><title>mdl_dxr — simplifyIR</title></polygon>
<polygon points="68.0,381.4 103.9,372.7 139.7,373.3 175.6,361.4 211.4,358.4 247.3,362.4 283.2,347.9 319.0,346.8 354.9,351.7 390.8,360.6 426.6,363.9 462.5,362.4 498.3,360.6 534.2,360.9 570.1,358.7 605.9,358.4 641.8,292.8 677.7,290.7 713.5,293.3 749.4,287.3 785.2,383.1 821.1,380.1 857.0,368.1 892.8,367.5 928.7,368.0 964.6,369.4 1000.4,373.5 1036.3,370.9 1072.1,370.9 1108.0,374.1 1108.0,377.2 1072.1,374.1 1036.3,374.1 1000.4,376.6 964.6,372.6 928.7,371.1 892.8,370.7 857.0,371.2 821.1,383.1 785.2,386.1 749.4,295.0 713.5,301.3 677.7,299.3 641.8,300.9 605.9,361.6 570.1,361.9 534.2,364.0 498.3,363.6 462.5,365.4 426.6,366.9 390.8,363.7 354.9,355.0 319.0,350.1 283.2,351.3 247.3,365.5 211.4,361.7 175.6,364.6 139.7,376.2 103.9,375.7 68.0,384.4" fill="#08306b" fill-opacity="0.9" stroke="#fff" stroke-width="0.4"><title>mdl_dxr — linkIR</title></polygon>
<polygon points="68.0,381.3 103.9,372.6 139.7,373.2 175.6,361.2 211.4,358.3 247.3,362.2 283.2,347.8 319.0,346.6 354.9,351.6 390.8,360.5 426.6,363.8 462.5,362.2 498.3,360.4 534.2,360.7 570.1,358.5 605.9,358.3 641.8,292.8 677.7,290.6 713.5,293.2 749.4,287.2 785.2,383.0 821.1,380.0 857.0,368.0 892.8,367.4 928.7,367.9 964.6,369.4 1000.4,373.5 1036.3,370.8 1072.1,370.9 1108.0,374.1 1108.0,374.1 1072.1,370.9 1036.3,370.9 1000.4,373.5 964.6,369.4 928.7,368.0 892.8,367.5 857.0,368.1 821.1,380.1 785.2,383.1 749.4,287.3 713.5,293.3 677.7,290.7 641.8,292.8 605.9,358.4 570.1,358.7 534.2,360.9 498.3,360.6 462.5,362.4 426.6,363.9 390.8,360.6 354.9,351.7 319.0,346.8 283.2,347.9 247.3,362.4 211.4,358.4 175.6,361.4 139.7,373.3 103.9,372.7 68.0,381.4" fill="#9e9ac8" fill-opacity="0.9" stroke="#fff" stroke-width="0.4"><title>mdl_dxr — unrollLoopsInModule</title></polygon>
<polygon points="68.0,366.0 103.9,357.9 139.7,358.6 175.6,346.2 211.4,349.8 247.3,354.1 283.2,338.7 319.0,337.7 354.9,342.7 390.8,352.1 426.6,355.5 462.5,353.8 498.3,352.0 534.2,352.3 570.1,349.9 605.9,349.9 641.8,284.2 677.7,281.8 713.5,284.8 749.4,278.8 785.2,374.6 821.1,371.5 857.0,359.4 892.8,358.8 928.7,359.2 964.6,360.8 1000.4,365.0 1036.3,362.1 1072.1,362.2 1108.0,365.6 1108.0,374.1 1072.1,370.9 1036.3,370.8 1000.4,373.5 964.6,369.4 928.7,367.9 892.8,367.4 857.0,368.0 821.1,380.0 785.2,383.0 749.4,287.2 713.5,293.2 677.7,290.6 641.8,292.8 605.9,358.3 570.1,358.5 534.2,360.7 498.3,360.4 462.5,362.2 426.6,363.8 390.8,360.5 354.9,351.6 319.0,346.6 283.2,347.8 247.3,362.2 211.4,358.3 175.6,361.2 139.7,373.2 103.9,372.6 68.0,381.3" fill="#807dba" fill-opacity="0.9" stroke="#fff" stroke-width="0.4"><title>mdl_dxr — legalizeResourceTypes</title></polygon>
<polygon points="68.0,350.5 103.9,343.0 139.7,344.0 175.6,331.2 211.4,341.5 247.3,345.9 283.2,330.0 319.0,328.9 354.9,333.8 390.8,343.7 426.6,347.0 462.5,345.3 498.3,343.5 534.2,343.8 570.1,341.1 605.9,341.4 641.8,275.6 677.7,273.1 713.5,276.3 749.4,270.2 785.2,366.0 821.1,362.8 857.0,350.7 892.8,350.1 928.7,350.3 964.6,352.0 1000.4,356.6 1036.3,353.4 1072.1,353.5 1108.0,356.9 1108.0,365.6 1072.1,362.2 1036.3,362.1 1000.4,365.0 964.6,360.8 928.7,359.2 892.8,358.8 857.0,359.4 821.1,371.5 785.2,374.6 749.4,278.8 713.5,284.8 677.7,281.8 641.8,284.2 605.9,349.9 570.1,349.9 534.2,352.3 498.3,352.0 462.5,353.8 426.6,355.5 390.8,352.1 354.9,342.7 319.0,337.7 283.2,338.7 247.3,354.1 211.4,349.8 175.6,346.2 139.7,358.6 103.9,357.9 68.0,366.0" fill="#6a51a3" fill-opacity="0.9" stroke="#fff" stroke-width="0.4"><title>mdl_dxr — legalizeExistentialTypeLayout</title></polygon>
<polygon points="68.0,349.8 103.9,342.3 139.7,343.3 175.6,330.5 211.4,340.8 247.3,345.2 283.2,329.3 319.0,328.1 354.9,333.1 390.8,343.0 426.6,346.3 462.5,344.6 498.3,342.8 534.2,343.1 570.1,340.4 605.9,340.6 641.8,275.0 677.7,272.5 713.5,275.7 749.4,269.6 785.2,365.4 821.1,362.2 857.0,350.1 892.8,349.5 928.7,349.7 964.6,351.5 1000.4,356.0 1036.3,352.8 1072.1,353.0 1108.0,356.4 1108.0,356.9 1072.1,353.5 1036.3,353.4 1000.4,356.6 964.6,352.0 928.7,350.3 892.8,350.1 857.0,350.7 821.1,362.8 785.2,366.0 749.4,270.2 713.5,276.3 677.7,273.1 641.8,275.6 605.9,341.4 570.1,341.1 534.2,343.8 498.3,343.5 462.5,345.3 426.6,347.0 390.8,343.7 354.9,333.8 319.0,328.9 283.2,330.0 247.3,345.9 211.4,341.5 175.6,331.2 139.7,344.0 103.9,343.0 68.0,350.5" fill="#bcbddc" fill-opacity="0.9" stroke="#fff" stroke-width="0.4"><title>mdl_dxr — performMandatoryEarlyInlining</title></polygon>
<polygon points="68.0,349.3 103.9,341.8 139.7,342.8 175.6,329.9 211.4,340.3 247.3,344.7 283.2,328.7 319.0,327.5 354.9,332.5 390.8,342.4 426.6,345.8 462.5,344.1 498.3,342.1 534.2,342.3 570.1,339.7 605.9,339.9 641.8,274.3 677.7,271.8 713.5,275.0 749.4,268.9 785.2,364.6 821.1,361.4 857.0,349.3 892.8,348.7 928.7,348.9 964.6,350.7 1000.4,355.2 1036.3,352.1 1072.1,352.2 1108.0,355.6 1108.0,356.4 1072.1,353.0 1036.3,352.8 1000.4,356.0 964.6,351.5 928.7,349.7 892.8,349.5 857.0,350.1 821.1,362.2 785.2,365.4 749.4,269.6 713.5,275.7 677.7,272.5 641.8,275.0 605.9,340.6 570.1,340.4 534.2,343.1 498.3,342.8 462.5,344.6 426.6,346.3 390.8,343.0 354.9,333.1 319.0,328.1 283.2,329.3 247.3,345.2 211.4,340.8 175.6,330.5 139.7,343.3 103.9,342.3 68.0,349.8" fill="#dadaeb" fill-opacity="0.9" stroke="#fff" stroke-width="0.4"><title>mdl_dxr — performForceInlining</title></polygon>
<polygon points="68.0,327.2 103.9,317.5 139.7,319.9 175.6,304.4 211.4,308.4 247.3,314.3 283.2,298.1 319.0,295.7 354.9,300.7 390.8,313.0 426.6,317.2 462.5,314.7 498.3,312.6 534.2,312.2 570.1,308.8 605.9,309.0 641.8,231.1 677.7,228.1 713.5,232.3 749.4,226.5 785.2,329.4 821.1,326.7 857.0,311.0 892.8,310.4 928.7,311.1 964.6,313.2 1000.4,322.7 1036.3,318.7 1072.1,318.8 1108.0,323.1 1108.0,355.6 1072.1,352.2 1036.3,352.1 1000.4,355.2 964.6,350.7 928.7,348.9 892.8,348.7 857.0,349.3 821.1,361.4 785.2,364.6 749.4,268.9 713.5,275.0 677.7,271.8 641.8,274.3 605.9,339.9 570.1,339.7 534.2,342.3 498.3,342.1 462.5,344.1 426.6,345.8 390.8,342.4 354.9,332.5 319.0,327.5 283.2,328.7 247.3,344.7 211.4,340.3 175.6,329.9 139.7,342.8 103.9,341.8 68.0,349.3" fill="#4a1486" fill-opacity="0.9" stroke="#fff" stroke-width="0.4"><title>mdl_dxr — linkAndOptimizeIR (self)</title></polygon>
<polygon points="68.0,163.3 103.9,153.5 139.7,156.2 175.6,178.0 211.4,173.6 247.3,186.7 283.2,150.8 319.0,149.7 354.9,163.7 390.8,187.7 426.6,199.6 462.5,197.7 498.3,197.7 534.2,194.9 570.1,189.9 605.9,190.8 641.8,114.6 677.7,110.4 713.5,114.2 749.4,108.6 785.2,211.3 821.1,207.3 857.0,189.3 892.8,190.6 928.7,189.4 964.6,194.2 1000.4,207.8 1036.3,202.0 1072.1,202.0 1108.0,208.3 1108.0,323.1 1072.1,318.8 1036.3,318.7 1000.4,322.7 964.6,313.2 928.7,311.1 892.8,310.4 857.0,311.0 821.1,326.7 785.2,329.4 749.4,226.5 713.5,232.3 677.7,228.1 641.8,231.1 605.9,309.0 570.1,308.8 534.2,312.2 498.3,312.6 462.5,314.7 426.6,317.2 390.8,313.0 354.9,300.7 319.0,295.7 283.2,298.1 247.3,314.3 211.4,308.4 175.6,304.4 139.7,319.9 103.9,317.5 68.0,327.2" fill="#e6550d" fill-opacity="0.9" stroke="#fff" stroke-width="0.4"><title>mdl_dxr — generateOutput (self)</title></polygon>
<polygon points="68.0,163.3 103.9,153.2 139.7,155.1 175.6,178.0 211.4,173.2 247.3,185.7 283.2,149.1 319.0,149.7 354.9,160.0 390.8,187.1 426.6,199.6 462.5,197.3 498.3,197.7 534.2,194.0 570.1,189.8 605.9,190.8 641.8,114.6 677.7,109.9 713.5,114.2 749.4,108.6 785.2,211.0 821.1,204.8 857.0,189.2 892.8,189.6 928.7,188.0 964.6,193.2 1000.4,205.8 1036.3,202.0 1072.1,201.2 1108.0,208.2 1108.0,208.3 1072.1,202.0 1036.3,202.0 1000.4,207.8 964.6,194.2 928.7,189.4 892.8,190.6 857.0,189.3 821.1,207.3 785.2,211.3 749.4,108.6 713.5,114.2 677.7,110.4 641.8,114.6 605.9,190.8 570.1,189.9 534.2,194.9 498.3,197.7 462.5,197.7 426.6,199.6 390.8,187.7 354.9,163.7 319.0,149.7 283.2,150.8 247.3,186.7 211.4,173.6 175.6,178.0 139.7,156.2 103.9,153.5 68.0,163.3" fill="#969696" fill-opacity="0.9" stroke="#fff" stroke-width="0.4"><title>mdl_dxr — compileInner (self)</title></polygon>
<text x="12" y="578" fill="#666" font-weight="600">phase buckets</text>
<rect x="12" y="586" width="12" height="12" fill="#c7e9c0"/>
<text x="28" y="596" fill="#222">parseTranslationUnit</text>
<rect x="289" y="586" width="12" height="12" fill="#41ab5d"/>
<text x="305" y="596" fill="#222">SemanticChecking</text>
<rect x="566" y="586" width="12" height="12" fill="#006d2c"/>
<text x="582" y="596" fill="#222">generateIR</text>
<rect x="843" y="586" width="12" height="12" fill="#74c476"/>
<text x="859" y="596" fill="#222">frontEndExecute (self)</text>
<rect x="12" y="604" width="12" height="12" fill="#6baed6"/>
<text x="28" y="614" fill="#222">specializeModule</text>
<rect x="289" y="604" width="12" height="12" fill="#2171b5"/>
<text x="305" y="614" fill="#222">simplifyIR</text>
<rect x="566" y="604" width="12" height="12" fill="#08306b"/>
<text x="582" y="614" fill="#222">linkIR</text>
<rect x="843" y="604" width="12" height="12" fill="#9e9ac8"/>
<text x="859" y="614" fill="#222">unrollLoopsInModule</text>
<rect x="12" y="622" width="12" height="12" fill="#807dba"/>
<text x="28" y="632" fill="#222">legalizeResourceTypes</text>
<rect x="289" y="622" width="12" height="12" fill="#6a51a3"/>
<text x="305" y="632" fill="#222">legalizeExistentialTypeLayout</text>
<rect x="566" y="622" width="12" height="12" fill="#bcbddc"/>
<text x="582" y="632" fill="#222">performMandatoryEarlyInlining</text>
<rect x="843" y="622" width="12" height="12" fill="#dadaeb"/>
<text x="859" y="632" fill="#222">performForceInlining</text>
<rect x="12" y="640" width="12" height="12" fill="#4a1486"/>
<text x="28" y="650" fill="#222">linkAndOptimizeIR (self)</text>
<rect x="289" y="640" width="12" height="12" fill="#fd8d3c"/>
<text x="305" y="650" fill="#222">emitEntryPointsSourceFromIR</text>
<rect x="566" y="640" width="12" height="12" fill="#e6550d"/>
<text x="582" y="650" fill="#222">generateOutput (self)</text>
<rect x="843" y="640" width="12" height="12" fill="#969696"/>
<text x="859" y="650" fill="#222">compileInner (self)</text>
</svg>