<svg xmlns="http://www.w3.org/2000/svg" xmlns:xlink="http://www.w3.org/1999/xlink" width="1132" height="680" viewBox="0 0 1132 680" preserveAspectRatio="xMidYMid meet" font-family="sans-serif" font-size="13">
<rect width="1132" height="680" fill="white"/>
<text x="12" y="30" font-size="20" font-weight="bold">minimal — full phase breakdown across releases (median ms)</text>
<text x="68" y="60" font-size="15" font-weight="600" fill="#1a1a1a">minimal<tspan fill="#888" font-weight="400" text-decoration="none">  1.69×</tspan></text>
<line x1="68.0" y1="516.0" x2="1108.0" y2="516.0" stroke="#eee"/>
<text x="64.0" y="519.0" text-anchor="end" fill="#999">0.0</text>
<line x1="68.0" y1="296.0" x2="1108.0" y2="296.0" stroke="#eee"/>
<text x="64.0" y="299.0" text-anchor="end" fill="#999">13</text>
<line x1="68.0" y1="76.0" x2="1108.0" y2="76.0" stroke="#eee"/>
<text x="64.0" y="79.0" text-anchor="end" fill="#999">27</text>
<line x1="68.0" y1="76.0" x2="68.0" y2="516.0" stroke="#333"/>
<line x1="68.0" y1="516.0" x2="1108.0" y2="516.0" stroke="#333"/>
<line x1="68.0" y1="516.0" x2="68.0" y2="519.0" stroke="#999"/>
<text x="68.0" y="531.0" text-anchor="end" fill="#666" transform="rotate(-50 68.0 531.0)">25.19</text>
<line x1="137.3" y1="516.0" x2="137.3" y2="519.0" stroke="#999"/>
<text x="137.3" y="531.0" text-anchor="end" fill="#666" transform="rotate(-50 137.3 531.0)">25.20</text>
<line x1="206.7" y1="516.0" x2="206.7" y2="519.0" stroke="#999"/>
<text x="206.7" y="531.0" text-anchor="end" fill="#666" transform="rotate(-50 206.7 531.0)">25.21</text>
<line x1="276.0" y1="516.0" x2="276.0" y2="519.0" stroke="#999"/>
<text x="276.0" y="531.0" text-anchor="end" fill="#666" transform="rotate(-50 276.0 531.0)">25.22</text>
<line x1="345.3" y1="516.0" x2="345.3" y2="519.0" stroke="#999"/>
<text x="345.3" y="531.0" text-anchor="end" fill="#666" transform="rotate(-50 345.3 531.0)">25.23</text>
<line x1="414.7" y1="516.0" x2="414.7" y2="519.0" stroke="#999"/>
<text x="414.7" y="531.0" text-anchor="end" fill="#666" transform="rotate(-50 414.7 531.0)">25.24</text>
<line x1="484.0" y1="516.0" x2="484.0" y2="519.0" stroke="#999"/>
<text x="484.0" y="531.0" text-anchor="end" fill="#666" transform="rotate(-50 484.0 531.0)">26.1</text>
<line x1="553.3" y1="516.0" x2="553.3" y2="519.0" stroke="#999"/>
<text x="553.3" y="531.0" text-anchor="end" fill="#666" transform="rotate(-50 553.3 531.0)">26.2</text>
<line x1="622.7" y1="516.0" x2="622.7" y2="519.0" stroke="#999"/>
<text x="622.7" y="531.0" text-anchor="end" fill="#666" transform="rotate(-50 622.7 531.0)">26.3</text>
<line x1="692.0" y1="516.0" x2="692.0" y2="519.0" stroke="#999"/>
<text x="692.0" y="531.0" text-anchor="end" fill="#666" transform="rotate(-50 692.0 531.0)">26.4</text>
<line x1="761.3" y1="516.0" x2="761.3" y2="519.0" stroke="#999"/>
<text x="761.3" y="531.0" text-anchor="end" fill="#666" transform="rotate(-50 761.3 531.0)">26.5</text>
<line x1="830.7" y1="516.0" x2="830.7" y2="519.0" stroke="#999"/>
<text x="830.7" y="531.0" text-anchor="end" fill="#666" transform="rotate(-50 830.7 531.0)">26.7</text>
<line x1="900.0" y1="516.0" x2="900.0" y2="519.0" stroke="#999"/>
<text x="900.0" y="531.0" text-anchor="end" fill="#666" transform="rotate(-50 900.0 531.0)">26.8</text>
<line x1="969.3" y1="516.0" x2="969.3" y2="519.0" stroke="#999"/>
<text x="969.3" y="531.0" text-anchor="end" fill="#666" transform="rotate(-50 969.3 531.0)">26.9</text>
<line x1="1038.7" y1="516.0" x2="1038.7" y2="519.0" stroke="#999"/>
<text x="1038.7" y="531.0" text-anchor="end" fill="#666" transform="rotate(-50 1038.7 531.0)">26.10</text>
<line x1="1108.0" y1="516.0" x2="1108.0" y2="519.0" stroke="#999"/>
<text x="1108.0" y="531.0" text-anchor="end" fill="#666" transform="rotate(-50 1108.0 531.0)">26.11</text>
<polygon points="68.0,514.0 137.3,514.0 206.7,514.0 276.0,514.0 345.3,514.0 414.7,514.0 484.0,514.0 553.3,514.0 622.7,514.0 692.0,514.0 761.3,513.8 830.7,513.7 900.0,513.7 969.3,513.8 1038.7,513.7 1108.0,513.7 1108.0,516.0 1038.7,516.0 969.3,516.0 900.0,516.0 830.7,516.0 761.3,516.0 692.0,516.0 622.7,516.0 553.3,516.0 484.0,516.0 414.7,516.0 345.3,516.0 276.0,516.0 206.7,516.0 137.3,516.0 68.0,516.0" fill="#c7e9c0" fill-opacity="0.9" stroke="#fff" stroke-width="0.4"><title>minimal — parseTranslationUnit</title></polygon>
<polygon points="68.0,440.3 137.3,438.5 206.7,439.3 276.0,454.6 345.3,455.4 414.7,455.2 484.0,454.6 553.3,442.6 622.7,441.3 692.0,439.5 761.3,436.8 830.7,402.6 900.0,404.6 969.3,404.6 1038.7,401.4 1108.0,410.2 1108.0,513.7 1038.7,513.7 969.3,513.8 900.0,513.7 830.7,513.7 761.3,513.8 692.0,514.0 622.7,514.0 553.3,514.0 484.0,514.0 414.7,514.0 345.3,514.0 276.0,514.0 206.7,514.0 137.3,514.0 68.0,514.0" fill="#41ab5d" fill-opacity="0.9" stroke="#fff" stroke-width="0.4"><title>minimal — SemanticChecking</title></polygon>
<polygon points="68.0,434.7 137.3,432.5 206.7,433.2 276.0,449.1 345.3,449.8 414.7,449.4 484.0,448.9 553.3,436.6 622.7,436.0 692.0,433.3 761.3,431.0 830.7,396.3 900.0,398.8 969.3,398.8 1038.7,395.8 1108.0,394.8 1108.0,410.2 1038.7,401.4 969.3,404.6 900.0,404.6 830.7,402.6 761.3,436.8 692.0,439.5 622.7,441.3 553.3,442.6 484.0,454.6 414.7,455.2 345.3,455.4 276.0,454.6 206.7,439.3 137.3,438.5 68.0,440.3" fill="#006d2c" fill-opacity="0.9" stroke="#fff" stroke-width="0.4"><title>minimal — generateIR</title></polygon>
<polygon points="68.0,429.7 137.3,427.5 206.7,428.2 276.0,444.4 345.3,444.9 414.7,444.1 484.0,443.6 553.3,431.7 622.7,430.3 692.0,427.7 761.3,424.5 830.7,391.5 900.0,393.8 969.3,393.6 1038.7,390.3 1108.0,388.8 1108.0,394.8 1038.7,395.8 969.3,398.8 900.0,398.8 830.7,396.3 761.3,431.0 692.0,433.3 622.7,436.0 553.3,436.6 484.0,448.9 414.7,449.4 345.3,449.8 276.0,449.1 206.7,433.2 137.3,432.5 68.0,434.7" fill="#74c476" fill-opacity="0.9" stroke="#fff" stroke-width="0.4"><title>minimal — frontEndExecute (self)</title></polygon>
<polygon points="68.0,429.2 137.3,427.0 206.7,427.7 276.0,443.9 345.3,444.4 414.7,443.0 484.0,442.5 553.3,430.5 622.7,429.2 692.0,426.5 761.3,423.2 830.7,372.7 900.0,375.7 969.3,375.2 1038.7,372.1 1108.0,372.6 1108.0,388.8 1038.7,390.3 969.3,393.6 900.0,393.8 830.7,391.5 761.3,424.5 692.0,427.7 622.7,430.3 553.3,431.7 484.0,443.6 414.7,444.1 345.3,444.9 276.0,444.4 206.7,428.2 137.3,427.5 68.0,429.7" fill="#6baed6" fill-opacity="0.9" stroke="#fff" stroke-width="0.4"><title>minimal — specializeModule</title></polygon>
<polygon points="68.0,428.0 137.3,425.9 206.7,426.5 276.0,442.8 345.3,443.3 414.7,441.8 484.0,441.5 553.3,429.5 622.7,428.2 692.0,425.5 761.3,422.0 830.7,363.9 900.0,366.9 969.3,366.4 1038.7,363.3 1108.0,364.6 1108.0,372.6 1038.7,372.1 969.3,375.2 900.0,375.7 830.7,372.7 761.3,423.2 692.0,426.5 622.7,429.2 553.3,430.5 484.0,442.5 414.7,443.0 345.3,444.4 276.0,443.9 206.7,427.7 137.3,427.0 68.0,429.2" fill="#2171b5" fill-opacity="0.9" stroke="#fff" stroke-width="0.4"><title>minimal — simplifyIR</title></polygon>
<polygon points="68.0,421.5 137.3,419.2 206.7,419.9 276.0,436.5 345.3,437.0 414.7,435.5 484.0,435.1 553.3,423.2 622.7,421.9 692.0,419.0 761.3,415.2 830.7,178.5 900.0,185.8 969.3,183.8 1038.7,178.7 1108.0,357.6 1108.0,364.6 1038.7,363.3 969.3,366.4 900.0,366.9 830.7,363.9 761.3,422.0 692.0,425.5 622.7,428.2 553.3,429.5 484.0,441.5 414.7,441.8 345.3,443.3 276.0,442.8 206.7,426.5 137.3,425.9 68.0,428.0" fill="#08306b" fill-opacity="0.9" stroke="#fff" stroke-width="0.4"><title>minimal — linkIR</title></polygon>
<polygon points="68.0,421.5 137.3,419.2 206.7,419.9 276.0,436.5 345.3,437.0 414.7,435.5 484.0,435.1 553.3,423.2 622.7,421.9 692.0,419.0 761.3,415.2 830.7,178.3 900.0,185.6 969.3,183.6 1038.7,178.5 1108.0,357.5 1108.0,357.6 1038.7,178.7 969.3,183.8 900.0,185.8 830.7,178.5 761.3,415.2 692.0,419.0 622.7,421.9 553.3,423.2 484.0,435.1 414.7,435.5 345.3,437.0 276.0,436.5 206.7,419.9 137.3,419.2 68.0,421.5" fill="#9e9ac8" fill-opacity="0.9" stroke="#fff" stroke-width="0.4"><title>minimal — unrollLoopsInModule</title></polygon>
<polygon points="68.0,421.2 137.3,418.9 206.7,419.5 276.0,436.1 345.3,436.6 414.7,435.1 484.0,434.8 553.3,422.9 622.7,421.5 692.0,418.7 761.3,414.9 830.7,177.2 900.0,184.6 969.3,182.6 1038.7,177.5 1108.0,356.5 1108.0,357.5 1038.7,178.5 969.3,183.6 900.0,185.6 830.7,178.3 761.3,415.2 692.0,419.0 622.7,421.9 553.3,423.2 484.0,435.1 414.7,435.5 345.3,437.0 276.0,436.5 206.7,419.9 137.3,419.2 68.0,421.5" fill="#807dba" fill-opacity="0.9" stroke="#fff" stroke-width="0.4"><title>minimal — legalizeResourceTypes</title></polygon>
<polygon points="68.0,420.5 137.3,418.2 206.7,418.7 276.0,435.5 345.3,436.0 414.7,434.5 484.0,434.2 553.3,422.2 622.7,420.9 692.0,418.0 761.3,414.2 830.7,175.7 900.0,183.1 969.3,181.3 1038.7,176.2 1108.0,355.0 1108.0,356.5 1038.7,177.5 969.3,182.6 900.0,184.6 830.7,177.2 761.3,414.9 692.0,418.7 622.7,421.5 553.3,422.9 484.0,434.8 414.7,435.1 345.3,436.6 276.0,436.1 206.7,419.5 137.3,418.9 68.0,421.2" fill="#6a51a3" fill-opacity="0.9" stroke="#fff" stroke-width="0.4"><title>minimal — legalizeExistentialTypeLayout</title></polygon>
<polygon points="68.0,420.5 137.3,418.2 206.7,418.7 276.0,435.5 345.3,436.0 414.7,434.5 484.0,434.2 553.3,422.2 622.7,420.9 692.0,418.0 761.3,414.2 830.7,175.3 900.0,182.8 969.3,181.0 1038.7,175.8 1108.0,354.6 1108.0,355.0 1038.7,176.2 969.3,181.3 900.0,183.1 830.7,175.7 761.3,414.2 692.0,418.0 622.7,420.9 553.3,422.2 484.0,434.2 414.7,434.5 345.3,436.0 276.0,435.5 206.7,418.7 137.3,418.2 68.0,420.5" fill="#bcbddc" fill-opacity="0.9" stroke="#fff" stroke-width="0.4"><title>minimal — performMandatoryEarlyInlining</title></polygon>
<polygon points="68.0,420.5 137.3,418.2 206.7,418.7 276.0,435.5 345.3,436.0 414.7,434.5 484.0,434.2 553.3,422.2 622.7,420.9 692.0,418.0 761.3,414.2 830.7,175.2 900.0,182.6 969.3,180.8 1038.7,175.7 1108.0,354.5 1108.0,354.6 1038.7,175.8 969.3,181.0 900.0,182.8 830.7,175.3 761.3,414.2 692.0,418.0 622.7,420.9 553.3,422.2 484.0,434.2 414.7,434.5 345.3,436.0 276.0,435.5 206.7,418.7 137.3,418.2 68.0,420.5" fill="#dadaeb" fill-opacity="0.9" stroke="#fff" stroke-width="0.4"><title>minimal — performForceInlining</title></polygon>
<polygon points="68.0,415.7 137.3,413.4 206.7,414.1 276.0,430.7 345.3,431.2 414.7,426.7 484.0,426.2 553.3,413.6 622.7,412.2 692.0,409.1 761.3,405.4 830.7,142.1 900.0,148.8 969.3,147.6 1038.7,142.6 1108.0,330.7 1108.0,354.5 1038.7,175.7 969.3,180.8 900.0,182.6 830.7,175.2 761.3,414.2 692.0,418.0 622.7,420.9 553.3,422.2 484.0,434.2 414.7,434.5 345.3,436.0 276.0,435.5 206.7,418.7 137.3,418.2 68.0,420.5" fill="#4a1486" fill-opacity="0.9" stroke="#fff" stroke-width="0.4"><title>minimal — linkAndOptimizeIR (self)</title></polygon>
<polygon points="68.0,388.8 137.3,382.9 206.7,386.8 276.0,402.4 345.3,402.3 414.7,396.8 484.0,399.8 553.3,382.9 622.7,381.5 692.0,377.9 761.3,375.1 830.7,111.1 900.0,116.9 969.3,116.7 1038.7,110.8 1108.0,298.7 1108.0,330.7 1038.7,142.6 969.3,147.6 900.0,148.8 830.7,142.1 761.3,405.4 692.0,409.1 622.7,412.2 553.3,413.6 484.0,426.2 414.7,426.7 345.3,431.2 276.0,430.7 206.7,414.1 137.3,413.4 68.0,415.7" fill="#e6550d" fill-opacity="0.9" stroke="#fff" stroke-width="0.4"><title>minimal — generateOutput (self)</title></polygon>
<polygon points="68.0,385.7 137.3,381.0 206.7,383.5 276.0,398.8 345.3,399.3 414.7,394.1 484.0,396.8 553.3,380.4 622.7,378.5 692.0,376.9 761.3,369.9 830.7,108.6 900.0,113.2 969.3,114.9 1038.7,108.6 1108.0,295.7 1108.0,298.7 1038.7,110.8 969.3,116.7 900.0,116.9 830.7,111.1 761.3,375.1 692.0,377.9 622.7,381.5 553.3,382.9 484.0,399.8 414.7,396.8 345.3,402.3 276.0,402.4 206.7,386.8 137.3,382.9 68.0,388.8" fill="#969696" fill-opacity="0.9" stroke="#fff" stroke-width="0.4"><title>minimal — compileInner (self)</title></polygon>
<text x="12" y="578" fill="#666" font-weight="600">phase buckets</text>
<rect x="12" y="586" width="12" height="12" fill="#c7e9c0"/>
<text x="28" y="596" fill="#222">parseTranslationUnit</text>
<rect x="289" y="586" width="12" height="12" fill="#41ab5d"/>
<text x="305" y="596" fill="#222">SemanticChecking</text>
<rect x="566" y="586" width="12" height="12" fill="#006d2c"/>
<text x="582" y="596" fill="#222">generateIR</text>
<rect x="843" y="586" width="12" height="12" fill="#74c476"/>
<text x="859" y="596" fill="#222">frontEndExecute (self)</text>
<rect x="12" y="604" width="12" height="12" fill="#6baed6"/>
<text x="28" y="614" fill="#222">specializeModule</text>
<rect x="289" y="604" width="12" height="12" fill="#2171b5"/>
<text x="305" y="614" fill="#222">simplifyIR</text>
<rect x="566" y="604" width="12" height="12" fill="#08306b"/>
<text x="582" y="614" fill="#222">linkIR</text>
<rect x="843" y="604" width="12" height="12" fill="#9e9ac8"/>
<text x="859" y="614" fill="#222">unrollLoopsInModule</text>
<rect x="12" y="622" width="12" height="12" fill="#807dba"/>
<text x="28" y="632" fill="#222">legalizeResourceTypes</text>
<rect x="289" y="622" width="12" height="12" fill="#6a51a3"/>
<text x="305" y="632" fill="#222">legalizeExistentialTypeLayout</text>
<rect x="566" y="622" width="12" height="12" fill="#bcbddc"/>
<text x="582" y="632" fill="#222">performMandatoryEarlyInlining</text>
<rect x="843" y="622" width="12" height="12" fill="#dadaeb"/>
<text x="859" y="632" fill="#222">performForceInlining</text>
<rect x="12" y="640" width="12" height="12" fill="#4a1486"/>
<text x="28" y="650" fill="#222">linkAndOptimizeIR (self)</text>
<rect x="289" y="640" width="12" height="12" fill="#fd8d3c"/>
<text x="305" y="650" fill="#222">emitEntryPointsSourceFromIR</text>
<rect x="566" y="640" width="12" height="12" fill="#e6550d"/>
<text x="582" y="650" fill="#222">generateOutput (self)</text>
<rect x="843" y="640" width="12" height="12" fill="#969696"/>
<text x="859" y="650" fill="#222">compileInner (self)</text>
</svg>