<svg xmlns="http://www.w3.org/2000/svg" xmlns:xlink="http://www.w3.org/1999/xlink" width="1132" height="680" viewBox="0 0 1132 680" preserveAspectRatio="xMidYMid meet" font-family="sans-serif" font-size="13">
<rect width="1132" height="680" fill="white"/>
<text x="12" y="30" font-size="20" font-weight="bold">minimal — Daily tip-of-tree (last 30 days) (median ms)</text>
<text x="68" y="60" font-size="15" font-weight="600" fill="#1a1a1a">minimal<tspan fill="#888" font-weight="400" text-decoration="none">  0.69×</tspan></text>
<line x1="68.0" y1="516.0" x2="1108.0" y2="516.0" stroke="#eee"/>
<text x="64.0" y="519.0" text-anchor="end" fill="#999">0.0</text>
<line x1="68.0" y1="296.0" x2="1108.0" y2="296.0" stroke="#eee"/>
<text x="64.0" y="299.0" text-anchor="end" fill="#999">8.5</text>
<line x1="68.0" y1="76.0" x2="1108.0" y2="76.0" stroke="#eee"/>
<text x="64.0" y="79.0" text-anchor="end" fill="#999">17</text>
<line x1="68.0" y1="76.0" x2="68.0" y2="516.0" stroke="#333"/>
<line x1="68.0" y1="516.0" x2="1108.0" y2="516.0" stroke="#333"/>
<line x1="68.0" y1="516.0" x2="68.0" y2="519.0" stroke="#999"/>
<text x="68.0" y="531.0" text-anchor="end" fill="#e8731a" transform="rotate(-50 68.0 531.0)">06-25</text>
<line x1="113.2" y1="516.0" x2="113.2" y2="519.0" stroke="#999"/>
<text x="113.2" y="531.0" text-anchor="end" fill="#e8731a" transform="rotate(-50 113.2 531.0)">06-26</text>
<line x1="158.4" y1="516.0" x2="158.4" y2="519.0" stroke="#999"/>
<text x="158.4" y="531.0" text-anchor="end" fill="#e8731a" transform="rotate(-50 158.4 531.0)">06-28</text>
<line x1="203.7" y1="516.0" x2="203.7" y2="519.0" stroke="#999"/>
<text x="203.7" y="531.0" text-anchor="end" fill="#e8731a" transform="rotate(-50 203.7 531.0)">07-01</text>
<line x1="248.9" y1="516.0" x2="248.9" y2="519.0" stroke="#999"/>
<text x="248.9" y="531.0" text-anchor="end" fill="#e8731a" transform="rotate(-50 248.9 531.0)">07-02</text>
<line x1="294.1" y1="516.0" x2="294.1" y2="519.0" stroke="#999"/>
<text x="294.1" y="531.0" text-anchor="end" fill="#e8731a" transform="rotate(-50 294.1 531.0)">07-03</text>
<line x1="339.3" y1="516.0" x2="339.3" y2="519.0" stroke="#999"/>
<text x="339.3" y="531.0" text-anchor="end" fill="#e8731a" transform="rotate(-50 339.3 531.0)">07-06</text>
<line x1="384.5" y1="516.0" x2="384.5" y2="519.0" stroke="#999"/>
<text x="384.5" y="531.0" text-anchor="end" fill="#e8731a" transform="rotate(-50 384.5 531.0)">07-07</text>
<line x1="429.7" y1="516.0" x2="429.7" y2="519.0" stroke="#999"/>
<text x="429.7" y="531.0" text-anchor="end" fill="#e8731a" transform="rotate(-50 429.7 531.0)">07-08</text>
<line x1="475.0" y1="516.0" x2="475.0" y2="519.0" stroke="#999"/>
<text x="475.0" y="531.0" text-anchor="end" fill="#e8731a" transform="rotate(-50 475.0 531.0)">07-09</text>
<line x1="520.2" y1="516.0" x2="520.2" y2="519.0" stroke="#999"/>
<text x="520.2" y="531.0" text-anchor="end" fill="#e8731a" transform="rotate(-50 520.2 531.0)">07-10</text>
<line x1="565.4" y1="516.0" x2="565.4" y2="519.0" stroke="#999"/>
<text x="565.4" y="531.0" text-anchor="end" fill="#e8731a" transform="rotate(-50 565.4 531.0)">07-11</text>
<line x1="610.6" y1="516.0" x2="610.6" y2="519.0" stroke="#999"/>
<text x="610.6" y="531.0" text-anchor="end" fill="#e8731a" transform="rotate(-50 610.6 531.0)">07-14</text>
<line x1="655.8" y1="516.0" x2="655.8" y2="519.0" stroke="#999"/>
<text x="655.8" y="531.0" text-anchor="end" fill="#e8731a" transform="rotate(-50 655.8 531.0)">07-15</text>
<line x1="701.0" y1="516.0" x2="701.0" y2="519.0" stroke="#999"/>
<text x="701.0" y="531.0" text-anchor="end" fill="#e8731a" transform="rotate(-50 701.0 531.0)">07-15</text>
<line x1="746.3" y1="516.0" x2="746.3" y2="519.0" stroke="#999"/>
<text x="746.3" y="531.0" text-anchor="end" fill="#e8731a" transform="rotate(-50 746.3 531.0)">07-16</text>
<line x1="791.5" y1="516.0" x2="791.5" y2="519.0" stroke="#999"/>
<text x="791.5" y="531.0" text-anchor="end" fill="#e8731a" transform="rotate(-50 791.5 531.0)">07-17</text>
<line x1="836.7" y1="516.0" x2="836.7" y2="519.0" stroke="#999"/>
<text x="836.7" y="531.0" text-anchor="end" fill="#e8731a" transform="rotate(-50 836.7 531.0)">07-18</text>
<line x1="881.9" y1="516.0" x2="881.9" y2="519.0" stroke="#999"/>
<text x="881.9" y="531.0" text-anchor="end" fill="#e8731a" transform="rotate(-50 881.9 531.0)">07-19</text>
<line x1="927.1" y1="516.0" x2="927.1" y2="519.0" stroke="#999"/>
<text x="927.1" y="531.0" text-anchor="end" fill="#e8731a" transform="rotate(-50 927.1 531.0)">07-20</text>
<line x1="972.3" y1="516.0" x2="972.3" y2="519.0" stroke="#999"/>
<text x="972.3" y="531.0" text-anchor="end" fill="#e8731a" transform="rotate(-50 972.3 531.0)">07-21</text>
<line x1="1017.6" y1="516.0" x2="1017.6" y2="519.0" stroke="#999"/>
<text x="1017.6" y="531.0" text-anchor="end" fill="#e8731a" transform="rotate(-50 1017.6 531.0)">07-22</text>
<line x1="1062.8" y1="516.0" x2="1062.8" y2="519.0" stroke="#999"/>
<text x="1062.8" y="531.0" text-anchor="end" fill="#e8731a" transform="rotate(-50 1062.8 531.0)">07-23</text>
<line x1="1108.0" y1="516.0" x2="1108.0" y2="519.0" stroke="#999"/>
<text x="1108.0" y="531.0" text-anchor="end" fill="#e8731a" transform="rotate(-50 1108.0 531.0)">07-24</text>
<polygon points="68.0,511.9 113.2,511.9 158.4,512.1 203.7,511.9 248.9,511.9 294.1,512.4 339.3,512.1 384.5,512.4 429.7,512.1 475.0,512.4 520.2,512.1 565.4,512.1 610.6,512.6 655.8,512.6 701.0,512.9 746.3,512.6 791.5,512.6 836.7,512.9 881.9,513.2 927.1,513.2 972.3,512.9 1017.6,512.9 1062.8,512.9 1108.0,512.9 1108.0,516.0 1062.8,516.0 1017.6,516.0 972.3,516.0 927.1,516.0 881.9,516.0 836.7,516.0 791.5,516.0 746.3,516.0 701.0,516.0 655.8,516.0 610.6,516.0 565.4,516.0 520.2,516.0 475.0,516.0 429.7,516.0 384.5,516.0 339.3,516.0 294.1,516.0 248.9,516.0 203.7,516.0 158.4,516.0 113.2,516.0 68.0,516.0" fill="#c7e9c0" fill-opacity="0.9" stroke="#fff" stroke-width="0.4"><title>minimal — parseTranslationUnit</title></polygon>
<polygon points="68.0,323.4 113.2,318.2 158.4,328.3 203.7,324.2 248.9,324.7 294.1,327.8 339.3,324.7 384.5,355.9 429.7,352.1 475.0,348.2 520.2,355.4 565.4,352.8 610.6,358.5 655.8,365.7 701.0,366.5 746.3,343.3 791.5,344.1 836.7,360.6 881.9,360.8 927.1,360.6 972.3,359.0 1017.6,357.7 1062.8,359.5 1108.0,357.7 1108.0,512.9 1062.8,512.9 1017.6,512.9 972.3,512.9 927.1,513.2 881.9,513.2 836.7,512.9 791.5,512.6 746.3,512.6 701.0,512.9 655.8,512.6 610.6,512.6 565.4,512.1 520.2,512.1 475.0,512.4 429.7,512.1 384.5,512.4 339.3,512.1 294.1,512.4 248.9,511.9 203.7,511.9 158.4,512.1 113.2,511.9 68.0,511.9" fill="#41ab5d" fill-opacity="0.9" stroke="#fff" stroke-width="0.4"><title>minimal — SemanticChecking</title></polygon>
<polygon points="68.0,294.5 113.2,288.5 158.4,299.6 203.7,295.3 248.9,295.3 294.1,298.1 339.3,295.0 384.5,326.5 429.7,321.8 475.0,316.9 520.2,325.7 565.4,323.9 610.6,330.6 655.8,338.6 701.0,340.4 746.3,317.7 791.5,317.7 836.7,339.4 881.9,338.6 927.1,339.1 972.3,337.6 1017.6,336.6 1062.8,338.4 1108.0,333.5 1108.0,357.7 1062.8,359.5 1017.6,357.7 972.3,359.0 927.1,360.6 881.9,360.8 836.7,360.6 791.5,344.1 746.3,343.3 701.0,366.5 655.8,365.7 610.6,358.5 565.4,352.8 520.2,355.4 475.0,348.2 429.7,352.1 384.5,355.9 339.3,324.7 294.1,327.8 248.9,324.7 203.7,324.2 158.4,328.3 113.2,318.2 68.0,323.4" fill="#006d2c" fill-opacity="0.9" stroke="#fff" stroke-width="0.4"><title>minimal — generateIR</title></polygon>
<polygon points="68.0,284.9 113.2,278.5 158.4,289.6 203.7,285.2 248.9,286.2 294.1,287.0 339.3,283.6 384.5,315.9 429.7,310.0 475.0,306.9 520.2,315.9 565.4,312.8 610.6,320.6 655.8,330.9 701.0,332.2 746.3,306.9 791.5,307.6 836.7,332.4 881.9,333.5 927.1,333.2 972.3,333.4 1017.6,329.3 1062.8,330.9 1108.0,326.0 1108.0,333.5 1062.8,338.4 1017.6,336.6 972.3,337.6 927.1,339.1 881.9,338.6 836.7,339.4 791.5,317.7 746.3,317.7 701.0,340.4 655.8,338.6 610.6,330.6 565.4,323.9 520.2,325.7 475.0,316.9 429.7,321.8 384.5,326.5 339.3,295.0 294.1,298.1 248.9,295.3 203.7,295.3 158.4,299.6 113.2,288.5 68.0,294.5" fill="#74c476" fill-opacity="0.9" stroke="#fff" stroke-width="0.4"><title>minimal — frontEndExecute (self)</title></polygon>
<polygon points="68.0,254.5 113.2,247.5 158.4,259.1 203.7,255.5 248.9,256.0 294.1,257.8 339.3,253.7 384.5,313.6 429.7,307.4 475.0,304.0 520.2,313.3 565.4,310.5 610.6,318.5 655.8,329.1 701.0,330.4 746.3,305.1 791.5,305.8 836.7,330.6 881.9,331.7 927.1,331.4 972.3,331.6 1017.6,327.5 1062.8,329.1 1108.0,324.2 1108.0,326.0 1062.8,330.9 1017.6,329.3 972.3,333.4 927.1,333.2 881.9,333.5 836.7,332.4 791.5,307.6 746.3,306.9 701.0,332.2 655.8,330.9 610.6,320.6 565.4,312.8 520.2,315.9 475.0,306.9 429.7,310.0 384.5,315.9 339.3,283.6 294.1,287.0 248.9,286.2 203.7,285.2 158.4,289.6 113.2,278.5 68.0,284.9" fill="#6baed6" fill-opacity="0.9" stroke="#fff" stroke-width="0.4"><title>minimal — specializeModule</title></polygon>
<polygon points="68.0,242.8 113.2,235.1 158.4,247.5 203.7,243.6 248.9,244.4 294.1,246.5 339.3,241.8 384.5,311.8 429.7,305.6 475.0,302.0 520.2,311.5 565.4,308.7 610.6,316.7 655.8,327.5 701.0,328.8 746.3,303.3 791.5,304.3 836.7,329.1 881.9,330.1 927.1,329.9 972.3,330.0 1017.6,326.0 1062.8,327.5 1108.0,322.6 1108.0,324.2 1062.8,329.1 1017.6,327.5 972.3,331.6 927.1,331.4 881.9,331.7 836.7,330.6 791.5,305.8 746.3,305.1 701.0,330.4 655.8,329.1 610.6,318.5 565.4,310.5 520.2,313.3 475.0,304.0 429.7,307.4 384.5,313.6 339.3,253.7 294.1,257.8 248.9,256.0 203.7,255.5 158.4,259.1 113.2,247.5 68.0,254.5" fill="#2171b5" fill-opacity="0.9" stroke="#fff" stroke-width="0.4"><title>minimal — simplifyIR</title></polygon>
<polygon points="68.0,232.0 113.2,223.5 158.4,236.4 203.7,231.7 248.9,232.0 294.1,234.3 339.3,228.6 384.5,307.1 429.7,300.4 475.0,297.1 520.2,306.6 565.4,304.0 610.6,312.3 655.8,324.7 701.0,325.7 746.3,300.4 791.5,301.5 836.7,327.0 881.9,328.0 927.1,327.8 972.3,328.0 1017.6,323.9 1062.8,325.5 1108.0,320.6 1108.0,322.6 1062.8,327.5 1017.6,326.0 972.3,330.0 927.1,329.9 881.9,330.1 836.7,329.1 791.5,304.3 746.3,303.3 701.0,328.8 655.8,327.5 610.6,316.7 565.4,308.7 520.2,311.5 475.0,302.0 429.7,305.6 384.5,311.8 339.3,241.8 294.1,246.5 248.9,244.4 203.7,243.6 158.4,247.5 113.2,235.1 68.0,242.8" fill="#08306b" fill-opacity="0.9" stroke="#fff" stroke-width="0.4"><title>minimal — linkIR</title></polygon>
<polygon points="68.0,231.7 113.2,223.2 158.4,236.1 203.7,231.5 248.9,231.7 294.1,234.1 339.3,228.4 384.5,307.1 429.7,300.4 475.0,297.1 520.2,306.6 565.4,304.0 610.6,312.3 655.8,324.7 701.0,325.7 746.3,300.4 791.5,301.5 836.7,327.0 881.9,328.0 927.1,327.8 972.3,328.0 1017.6,323.9 1062.8,325.5 1108.0,320.6 1108.0,320.6 1062.8,325.5 1017.6,323.9 972.3,328.0 927.1,327.8 881.9,328.0 836.7,327.0 791.5,301.5 746.3,300.4 701.0,325.7 655.8,324.7 610.6,312.3 565.4,304.0 520.2,306.6 475.0,297.1 429.7,300.4 384.5,307.1 339.3,228.6 294.1,234.3 248.9,232.0 203.7,231.7 158.4,236.4 113.2,223.5 68.0,232.0" fill="#9e9ac8" fill-opacity="0.9" stroke="#fff" stroke-width="0.4"><title>minimal — unrollLoopsInModule</title></polygon>
<polygon points="68.0,229.9 113.2,221.4 158.4,234.3 203.7,229.7 248.9,229.9 294.1,232.3 339.3,226.6 384.5,306.6 429.7,299.9 475.0,296.5 520.2,306.1 565.4,303.5 610.6,311.8 655.8,324.2 701.0,325.5 746.3,299.9 791.5,300.9 836.7,326.8 881.9,327.8 927.1,327.5 972.3,327.4 1017.6,323.4 1062.8,325.2 1108.0,320.3 1108.0,320.6 1062.8,325.5 1017.6,323.9 972.3,328.0 927.1,327.8 881.9,328.0 836.7,327.0 791.5,301.5 746.3,300.4 701.0,325.7 655.8,324.7 610.6,312.3 565.4,304.0 520.2,306.6 475.0,297.1 429.7,300.4 384.5,307.1 339.3,228.4 294.1,234.1 248.9,231.7 203.7,231.5 158.4,236.1 113.2,223.2 68.0,231.7" fill="#807dba" fill-opacity="0.9" stroke="#fff" stroke-width="0.4"><title>minimal — legalizeResourceTypes</title></polygon>
<polygon points="68.0,227.4 113.2,218.8 158.4,231.7 203.7,227.1 248.9,227.4 294.1,229.7 339.3,224.0 384.5,305.3 429.7,298.9 475.0,295.3 520.2,305.1 565.4,302.5 610.6,311.0 655.8,323.4 701.0,324.7 746.3,299.1 791.5,300.2 836.7,326.0 881.9,327.0 927.1,326.8 972.3,326.7 1017.6,322.6 1062.8,324.4 1108.0,319.5 1108.0,320.3 1062.8,325.2 1017.6,323.4 972.3,327.4 927.1,327.5 881.9,327.8 836.7,326.8 791.5,300.9 746.3,299.9 701.0,325.5 655.8,324.2 610.6,311.8 565.4,303.5 520.2,306.1 475.0,296.5 429.7,299.9 384.5,306.6 339.3,226.6 294.1,232.3 248.9,229.9 203.7,229.7 158.4,234.3 113.2,221.4 68.0,229.9" fill="#6a51a3" fill-opacity="0.9" stroke="#fff" stroke-width="0.4"><title>minimal — legalizeExistentialTypeLayout</title></polygon>
<polygon points="68.0,226.8 113.2,218.3 158.4,231.2 203.7,226.6 248.9,226.8 294.1,229.2 339.3,223.5 384.5,305.3 429.7,298.9 475.0,295.3 520.2,305.1 565.4,302.5 610.6,311.0 655.8,323.4 701.0,324.7 746.3,299.1 791.5,300.2 836.7,326.0 881.9,327.0 927.1,326.8 972.3,326.7 1017.6,322.6 1062.8,324.4 1108.0,319.5 1108.0,319.5 1062.8,324.4 1017.6,322.6 972.3,326.7 927.1,326.8 881.9,327.0 836.7,326.0 791.5,300.2 746.3,299.1 701.0,324.7 655.8,323.4 610.6,311.0 565.4,302.5 520.2,305.1 475.0,295.3 429.7,298.9 384.5,305.3 339.3,224.0 294.1,229.7 248.9,227.4 203.7,227.1 158.4,231.7 113.2,218.8 68.0,227.4" fill="#bcbddc" fill-opacity="0.9" stroke="#fff" stroke-width="0.4"><title>minimal — performMandatoryEarlyInlining</title></polygon>
<polygon points="68.0,226.6 113.2,218.1 158.4,231.0 203.7,226.3 248.9,226.6 294.1,228.9 339.3,223.2 384.5,305.3 429.7,298.9 475.0,295.3 520.2,305.1 565.4,302.5 610.6,311.0 655.8,323.4 701.0,324.7 746.3,299.1 791.5,300.2 836.7,326.0 881.9,327.0 927.1,326.8 972.3,326.7 1017.6,322.6 1062.8,324.4 1108.0,319.5 1108.0,319.5 1062.8,324.4 1017.6,322.6 972.3,326.7 927.1,326.8 881.9,327.0 836.7,326.0 791.5,300.2 746.3,299.1 701.0,324.7 655.8,323.4 610.6,311.0 565.4,302.5 520.2,305.1 475.0,295.3 429.7,298.9 384.5,305.3 339.3,223.5 294.1,229.2 248.9,226.8 203.7,226.6 158.4,231.2 113.2,218.3 68.0,226.8" fill="#dadaeb" fill-opacity="0.9" stroke="#fff" stroke-width="0.4"><title>minimal — performForceInlining</title></polygon>
<polygon points="68.0,187.6 113.2,179.1 158.4,192.8 203.7,187.6 248.9,187.9 294.1,190.2 339.3,183.7 384.5,289.1 429.7,282.3 475.0,279.2 520.2,289.1 565.4,286.5 610.6,297.1 655.8,312.3 701.0,313.1 746.3,287.5 791.5,288.8 836.7,315.7 881.9,316.4 927.1,316.2 972.3,316.3 1017.6,312.0 1062.8,313.8 1108.0,308.9 1108.0,319.5 1062.8,324.4 1017.6,322.6 972.3,326.7 927.1,326.8 881.9,327.0 836.7,326.0 791.5,300.2 746.3,299.1 701.0,324.7 655.8,323.4 610.6,311.0 565.4,302.5 520.2,305.1 475.0,295.3 429.7,298.9 384.5,305.3 339.3,223.2 294.1,228.9 248.9,226.6 203.7,226.3 158.4,231.0 113.2,218.1 68.0,226.6" fill="#4a1486" fill-opacity="0.9" stroke="#fff" stroke-width="0.4"><title>minimal — linkAndOptimizeIR (self)</title></polygon>
<polygon points="68.0,128.2 113.2,118.7 158.4,131.3 203.7,128.2 248.9,128.0 294.1,133.1 339.3,118.7 384.5,233.0 429.7,219.6 475.0,223.7 520.2,232.3 565.4,231.5 610.6,250.1 655.8,262.2 701.0,264.5 746.3,241.6 791.5,243.1 836.7,260.7 881.9,267.4 927.1,270.2 972.3,269.2 1017.6,264.5 1062.8,265.6 1108.0,256.0 1108.0,308.9 1062.8,313.8 1017.6,312.0 972.3,316.3 927.1,316.2 881.9,316.4 836.7,315.7 791.5,288.8 746.3,287.5 701.0,313.1 655.8,312.3 610.6,297.1 565.4,286.5 520.2,289.1 475.0,279.2 429.7,282.3 384.5,289.1 339.3,183.7 294.1,190.2 248.9,187.9 203.7,187.6 158.4,192.8 113.2,179.1 68.0,187.6" fill="#e6550d" fill-opacity="0.9" stroke="#fff" stroke-width="0.4"><title>minimal — generateOutput (self)</title></polygon>
<polygon points="68.0,122.3 113.2,113.0 158.4,124.6 203.7,122.8 248.9,122.3 294.1,121.2 339.3,108.6 384.5,227.6 429.7,211.6 475.0,217.8 520.2,225.8 565.4,225.0 610.6,244.9 655.8,260.9 701.0,258.1 746.3,241.6 791.5,232.8 836.7,258.3 881.9,267.4 927.1,266.9 972.3,269.2 1017.6,264.5 1062.8,263.2 1108.0,242.6 1108.0,256.0 1062.8,265.6 1017.6,264.5 972.3,269.2 927.1,270.2 881.9,267.4 836.7,260.7 791.5,243.1 746.3,241.6 701.0,264.5 655.8,262.2 610.6,250.1 565.4,231.5 520.2,232.3 475.0,223.7 429.7,219.6 384.5,233.0 339.3,118.7 294.1,133.1 248.9,128.0 203.7,128.2 158.4,131.3 113.2,118.7 68.0,128.2" fill="#969696" fill-opacity="0.9" stroke="#fff" stroke-width="0.4"><title>minimal — compileInner (self)</title></polygon>
<text x="12" y="578" fill="#666" font-weight="600">phase buckets</text>
<rect x="12" y="586" width="12" height="12" fill="#c7e9c0"/>
<text x="28" y="596" fill="#222">parseTranslationUnit</text>
<rect x="289" y="586" width="12" height="12" fill="#41ab5d"/>
<text x="305" y="596" fill="#222">SemanticChecking</text>
<rect x="566" y="586" width="12" height="12" fill="#006d2c"/>
<text x="582" y="596" fill="#222">generateIR</text>
<rect x="843" y="586" width="12" height="12" fill="#74c476"/>
<text x="859" y="596" fill="#222">frontEndExecute (self)</text>
<rect x="12" y="604" width="12" height="12" fill="#6baed6"/>
<text x="28" y="614" fill="#222">specializeModule</text>
<rect x="289" y="604" width="12" height="12" fill="#2171b5"/>
<text x="305" y="614" fill="#222">simplifyIR</text>
<rect x="566" y="604" width="12" height="12" fill="#08306b"/>
<text x="582" y="614" fill="#222">linkIR</text>
<rect x="843" y="604" width="12" height="12" fill="#9e9ac8"/>
<text x="859" y="614" fill="#222">unrollLoopsInModule</text>
<rect x="12" y="622" width="12" height="12" fill="#807dba"/>
<text x="28" y="632" fill="#222">legalizeResourceTypes</text>
<rect x="289" y="622" width="12" height="12" fill="#6a51a3"/>
<text x="305" y="632" fill="#222">legalizeExistentialTypeLayout</text>
<rect x="566" y="622" width="12" height="12" fill="#bcbddc"/>
<text x="582" y="632" fill="#222">performMandatoryEarlyInlining</text>
<rect x="843" y="622" width="12" height="12" fill="#dadaeb"/>
<text x="859" y="632" fill="#222">performForceInlining</text>
<rect x="12" y="640" width="12" height="12" fill="#4a1486"/>
<text x="28" y="650" fill="#222">linkAndOptimizeIR (self)</text>
<rect x="289" y="640" width="12" height="12" fill="#fd8d3c"/>
<text x="305" y="650" fill="#222">emitEntryPointsSourceFromIR</text>
<rect x="566" y="640" width="12" height="12" fill="#e6550d"/>
<text x="582" y="650" fill="#222">generateOutput (self)</text>
<rect x="843" y="640" width="12" height="12" fill="#969696"/>
<text x="859" y="650" fill="#222">compileInner (self)</text>
</svg>