<svg xmlns="http://www.w3.org/2000/svg" xmlns:xlink="http://www.w3.org/1999/xlink" width="1132" height="680" viewBox="0 0 1132 680" preserveAspectRatio="xMidYMid meet" font-family="sans-serif" font-size="13">
<rect width="1132" height="680" fill="white"/>
<text x="12" y="30" font-size="20" font-weight="bold">minimal — Daily tip-of-tree (last 30 days) (median ms)</text>
<text x="68" y="60" font-size="15" font-weight="600" fill="#1a1a1a">minimal<tspan fill="#888" font-weight="400" text-decoration="none">  0.64×</tspan></text>
<line x1="68.0" y1="516.0" x2="1108.0" y2="516.0" stroke="#eee"/>
<text x="64.0" y="519.0" text-anchor="end" fill="#999">0.0</text>
<line x1="68.0" y1="296.0" x2="1108.0" y2="296.0" stroke="#eee"/>
<text x="64.0" y="299.0" text-anchor="end" fill="#999">8.5</text>
<line x1="68.0" y1="76.0" x2="1108.0" y2="76.0" stroke="#eee"/>
<text x="64.0" y="79.0" text-anchor="end" fill="#999">17</text>
<line x1="68.0" y1="76.0" x2="68.0" y2="516.0" stroke="#333"/>
<line x1="68.0" y1="516.0" x2="1108.0" y2="516.0" stroke="#333"/>
<line x1="68.0" y1="516.0" x2="68.0" y2="519.0" stroke="#999"/>
<text x="68.0" y="531.0" text-anchor="end" fill="#e8731a" transform="rotate(-50 68.0 531.0)">06-25</text>
<line x1="117.5" y1="516.0" x2="117.5" y2="519.0" stroke="#999"/>
<text x="117.5" y="531.0" text-anchor="end" fill="#e8731a" transform="rotate(-50 117.5 531.0)">06-26</text>
<line x1="167.0" y1="516.0" x2="167.0" y2="519.0" stroke="#999"/>
<text x="167.0" y="531.0" text-anchor="end" fill="#e8731a" transform="rotate(-50 167.0 531.0)">06-28</text>
<line x1="216.6" y1="516.0" x2="216.6" y2="519.0" stroke="#999"/>
<text x="216.6" y="531.0" text-anchor="end" fill="#e8731a" transform="rotate(-50 216.6 531.0)">07-01</text>
<line x1="266.1" y1="516.0" x2="266.1" y2="519.0" stroke="#999"/>
<text x="266.1" y="531.0" text-anchor="end" fill="#e8731a" transform="rotate(-50 266.1 531.0)">07-02</text>
<line x1="315.6" y1="516.0" x2="315.6" y2="519.0" stroke="#999"/>
<text x="315.6" y="531.0" text-anchor="end" fill="#e8731a" transform="rotate(-50 315.6 531.0)">07-03</text>
<line x1="365.1" y1="516.0" x2="365.1" y2="519.0" stroke="#999"/>
<text x="365.1" y="531.0" text-anchor="end" fill="#e8731a" transform="rotate(-50 365.1 531.0)">07-06</text>
<line x1="414.7" y1="516.0" x2="414.7" y2="519.0" stroke="#999"/>
<text x="414.7" y="531.0" text-anchor="end" fill="#e8731a" transform="rotate(-50 414.7 531.0)">07-07</text>
<line x1="464.2" y1="516.0" x2="464.2" y2="519.0" stroke="#999"/>
<text x="464.2" y="531.0" text-anchor="end" fill="#e8731a" transform="rotate(-50 464.2 531.0)">07-08</text>
<line x1="513.7" y1="516.0" x2="513.7" y2="519.0" stroke="#999"/>
<text x="513.7" y="531.0" text-anchor="end" fill="#e8731a" transform="rotate(-50 513.7 531.0)">07-09</text>
<line x1="563.2" y1="516.0" x2="563.2" y2="519.0" stroke="#999"/>
<text x="563.2" y="531.0" text-anchor="end" fill="#e8731a" transform="rotate(-50 563.2 531.0)">07-10</text>
<line x1="612.8" y1="516.0" x2="612.8" y2="519.0" stroke="#999"/>
<text x="612.8" y="531.0" text-anchor="end" fill="#e8731a" transform="rotate(-50 612.8 531.0)">07-11</text>
<line x1="662.3" y1="516.0" x2="662.3" y2="519.0" stroke="#999"/>
<text x="662.3" y="531.0" text-anchor="end" fill="#e8731a" transform="rotate(-50 662.3 531.0)">07-14</text>
<line x1="711.8" y1="516.0" x2="711.8" y2="519.0" stroke="#999"/>
<text x="711.8" y="531.0" text-anchor="end" fill="#e8731a" transform="rotate(-50 711.8 531.0)">07-15</text>
<line x1="761.3" y1="516.0" x2="761.3" y2="519.0" stroke="#999"/>
<text x="761.3" y="531.0" text-anchor="end" fill="#e8731a" transform="rotate(-50 761.3 531.0)">07-15</text>
<line x1="810.9" y1="516.0" x2="810.9" y2="519.0" stroke="#999"/>
<text x="810.9" y="531.0" text-anchor="end" fill="#e8731a" transform="rotate(-50 810.9 531.0)">07-16</text>
<line x1="860.4" y1="516.0" x2="860.4" y2="519.0" stroke="#999"/>
<text x="860.4" y="531.0" text-anchor="end" fill="#e8731a" transform="rotate(-50 860.4 531.0)">07-17</text>
<line x1="909.9" y1="516.0" x2="909.9" y2="519.0" stroke="#999"/>
<text x="909.9" y="531.0" text-anchor="end" fill="#e8731a" transform="rotate(-50 909.9 531.0)">07-18</text>
<line x1="959.4" y1="516.0" x2="959.4" y2="519.0" stroke="#999"/>
<text x="959.4" y="531.0" text-anchor="end" fill="#e8731a" transform="rotate(-50 959.4 531.0)">07-19</text>
<line x1="1009.0" y1="516.0" x2="1009.0" y2="519.0" stroke="#999"/>
<text x="1009.0" y="531.0" text-anchor="end" fill="#e8731a" transform="rotate(-50 1009.0 531.0)">07-20</text>
<line x1="1058.5" y1="516.0" x2="1058.5" y2="519.0" stroke="#999"/>
<text x="1058.5" y="531.0" text-anchor="end" fill="#e8731a" transform="rotate(-50 1058.5 531.0)">07-21</text>
<line x1="1108.0" y1="516.0" x2="1108.0" y2="519.0" stroke="#999"/>
<text x="1108.0" y="531.0" text-anchor="end" fill="#e8731a" transform="rotate(-50 1108.0 531.0)">07-22</text>
<polygon points="68.0,511.9 117.5,511.9 167.0,512.1 216.6,511.9 266.1,511.9 315.6,512.4 365.1,512.1 414.7,512.4 464.2,512.1 513.7,512.4 563.2,512.1 612.8,512.1 662.3,512.6 711.8,512.6 761.3,512.9 810.9,512.6 860.4,512.6 909.9,512.9 959.4,513.2 1009.0,513.2 1058.5,512.9 1108.0,512.9 1108.0,516.0 1058.5,516.0 1009.0,516.0 959.4,516.0 909.9,516.0 860.4,516.0 810.9,516.0 761.3,516.0 711.8,516.0 662.3,516.0 612.8,516.0 563.2,516.0 513.7,516.0 464.2,516.0 414.7,516.0 365.1,516.0 315.6,516.0 266.1,516.0 216.6,516.0 167.0,516.0 117.5,516.0 68.0,516.0" fill="#c7e9c0" fill-opacity="0.9" stroke="#fff" stroke-width="0.4"><title>minimal — parseTranslationUnit</title></polygon>
<polygon points="68.0,323.4 117.5,318.2 167.0,328.3 216.6,324.2 266.1,324.7 315.6,327.8 365.1,324.7 414.7,355.9 464.2,352.1 513.7,348.2 563.2,355.4 612.8,352.8 662.3,358.5 711.8,365.7 761.3,366.5 810.9,343.3 860.4,344.1 909.9,360.6 959.4,360.8 1009.0,360.6 1058.5,359.0 1108.0,357.7 1108.0,512.9 1058.5,512.9 1009.0,513.2 959.4,513.2 909.9,512.9 860.4,512.6 810.9,512.6 761.3,512.9 711.8,512.6 662.3,512.6 612.8,512.1 563.2,512.1 513.7,512.4 464.2,512.1 414.7,512.4 365.1,512.1 315.6,512.4 266.1,511.9 216.6,511.9 167.0,512.1 117.5,511.9 68.0,511.9" fill="#41ab5d" fill-opacity="0.9" stroke="#fff" stroke-width="0.4"><title>minimal — SemanticChecking</title></polygon>
<polygon points="68.0,294.5 117.5,288.5 167.0,299.6 216.6,295.3 266.1,295.3 315.6,298.1 365.1,295.0 414.7,326.5 464.2,321.8 513.7,316.9 563.2,325.7 612.8,323.9 662.3,330.6 711.8,338.6 761.3,340.4 810.9,317.7 860.4,317.7 909.9,339.4 959.4,338.6 1009.0,339.1 1058.5,337.6 1108.0,336.6 1108.0,357.7 1058.5,359.0 1009.0,360.6 959.4,360.8 909.9,360.6 860.4,344.1 810.9,343.3 761.3,366.5 711.8,365.7 662.3,358.5 612.8,352.8 563.2,355.4 513.7,348.2 464.2,352.1 414.7,355.9 365.1,324.7 315.6,327.8 266.1,324.7 216.6,324.2 167.0,328.3 117.5,318.2 68.0,323.4" fill="#006d2c" fill-opacity="0.9" stroke="#fff" stroke-width="0.4"><title>minimal — generateIR</title></polygon>
<polygon points="68.0,284.9 117.5,278.5 167.0,289.6 216.6,285.2 266.1,286.2 315.6,287.0 365.1,283.6 414.7,315.9 464.2,310.0 513.7,306.9 563.2,315.9 612.8,312.8 662.3,320.6 711.8,330.9 761.3,332.2 810.9,306.9 860.4,307.6 909.9,332.4 959.4,333.5 1009.0,333.2 1058.5,333.4 1108.0,329.3 1108.0,336.6 1058.5,337.6 1009.0,339.1 959.4,338.6 909.9,339.4 860.4,317.7 810.9,317.7 761.3,340.4 711.8,338.6 662.3,330.6 612.8,323.9 563.2,325.7 513.7,316.9 464.2,321.8 414.7,326.5 365.1,295.0 315.6,298.1 266.1,295.3 216.6,295.3 167.0,299.6 117.5,288.5 68.0,294.5" fill="#74c476" fill-opacity="0.9" stroke="#fff" stroke-width="0.4"><title>minimal — frontEndExecute (self)</title></polygon>
<polygon points="68.0,254.5 117.5,247.5 167.0,259.1 216.6,255.5 266.1,256.0 315.6,257.8 365.1,253.7 414.7,313.6 464.2,307.4 513.7,304.0 563.2,313.3 612.8,310.5 662.3,318.5 711.8,329.1 761.3,330.4 810.9,305.1 860.4,305.8 909.9,330.6 959.4,331.7 1009.0,331.4 1058.5,331.6 1108.0,327.5 1108.0,329.3 1058.5,333.4 1009.0,333.2 959.4,333.5 909.9,332.4 860.4,307.6 810.9,306.9 761.3,332.2 711.8,330.9 662.3,320.6 612.8,312.8 563.2,315.9 513.7,306.9 464.2,310.0 414.7,315.9 365.1,283.6 315.6,287.0 266.1,286.2 216.6,285.2 167.0,289.6 117.5,278.5 68.0,284.9" fill="#6baed6" fill-opacity="0.9" stroke="#fff" stroke-width="0.4"><title>minimal — specializeModule</title></polygon>
<polygon points="68.0,242.8 117.5,235.1 167.0,247.5 216.6,243.6 266.1,244.4 315.6,246.5 365.1,241.8 414.7,311.8 464.2,305.6 513.7,302.0 563.2,311.5 612.8,308.7 662.3,316.7 711.8,327.5 761.3,328.8 810.9,303.3 860.4,304.3 909.9,329.1 959.4,330.1 1009.0,329.9 1058.5,330.0 1108.0,326.0 1108.0,327.5 1058.5,331.6 1009.0,331.4 959.4,331.7 909.9,330.6 860.4,305.8 810.9,305.1 761.3,330.4 711.8,329.1 662.3,318.5 612.8,310.5 563.2,313.3 513.7,304.0 464.2,307.4 414.7,313.6 365.1,253.7 315.6,257.8 266.1,256.0 216.6,255.5 167.0,259.1 117.5,247.5 68.0,254.5" fill="#2171b5" fill-opacity="0.9" stroke="#fff" stroke-width="0.4"><title>minimal — simplifyIR</title></polygon>
<polygon points="68.0,232.0 117.5,223.5 167.0,236.4 216.6,231.7 266.1,232.0 315.6,234.3 365.1,228.6 414.7,307.1 464.2,300.4 513.7,297.1 563.2,306.6 612.8,304.0 662.3,312.3 711.8,324.7 761.3,325.7 810.9,300.4 860.4,301.5 909.9,327.0 959.4,328.0 1009.0,327.8 1058.5,328.0 1108.0,323.9 1108.0,326.0 1058.5,330.0 1009.0,329.9 959.4,330.1 909.9,329.1 860.4,304.3 810.9,303.3 761.3,328.8 711.8,327.5 662.3,316.7 612.8,308.7 563.2,311.5 513.7,302.0 464.2,305.6 414.7,311.8 365.1,241.8 315.6,246.5 266.1,244.4 216.6,243.6 167.0,247.5 117.5,235.1 68.0,242.8" fill="#08306b" fill-opacity="0.9" stroke="#fff" stroke-width="0.4"><title>minimal — linkIR</title></polygon>
<polygon points="68.0,231.7 117.5,223.2 167.0,236.1 216.6,231.5 266.1,231.7 315.6,234.1 365.1,228.4 414.7,307.1 464.2,300.4 513.7,297.1 563.2,306.6 612.8,304.0 662.3,312.3 711.8,324.7 761.3,325.7 810.9,300.4 860.4,301.5 909.9,327.0 959.4,328.0 1009.0,327.8 1058.5,328.0 1108.0,323.9 1108.0,323.9 1058.5,328.0 1009.0,327.8 959.4,328.0 909.9,327.0 860.4,301.5 810.9,300.4 761.3,325.7 711.8,324.7 662.3,312.3 612.8,304.0 563.2,306.6 513.7,297.1 464.2,300.4 414.7,307.1 365.1,228.6 315.6,234.3 266.1,232.0 216.6,231.7 167.0,236.4 117.5,223.5 68.0,232.0" fill="#9e9ac8" fill-opacity="0.9" stroke="#fff" stroke-width="0.4"><title>minimal — unrollLoopsInModule</title></polygon>
<polygon points="68.0,229.9 117.5,221.4 167.0,234.3 216.6,229.7 266.1,229.9 315.6,232.3 365.1,226.6 414.7,306.6 464.2,299.9 513.7,296.5 563.2,306.1 612.8,303.5 662.3,311.8 711.8,324.2 761.3,325.5 810.9,299.9 860.4,300.9 909.9,326.8 959.4,327.8 1009.0,327.5 1058.5,327.4 1108.0,323.4 1108.0,323.9 1058.5,328.0 1009.0,327.8 959.4,328.0 909.9,327.0 860.4,301.5 810.9,300.4 761.3,325.7 711.8,324.7 662.3,312.3 612.8,304.0 563.2,306.6 513.7,297.1 464.2,300.4 414.7,307.1 365.1,228.4 315.6,234.1 266.1,231.7 216.6,231.5 167.0,236.1 117.5,223.2 68.0,231.7" fill="#807dba" fill-opacity="0.9" stroke="#fff" stroke-width="0.4"><title>minimal — legalizeResourceTypes</title></polygon>
<polygon points="68.0,227.4 117.5,218.8 167.0,231.7 216.6,227.1 266.1,227.4 315.6,229.7 365.1,224.0 414.7,305.3 464.2,298.9 513.7,295.3 563.2,305.1 612.8,302.5 662.3,311.0 711.8,323.4 761.3,324.7 810.9,299.1 860.4,300.2 909.9,326.0 959.4,327.0 1009.0,326.8 1058.5,326.7 1108.0,322.6 1108.0,323.4 1058.5,327.4 1009.0,327.5 959.4,327.8 909.9,326.8 860.4,300.9 810.9,299.9 761.3,325.5 711.8,324.2 662.3,311.8 612.8,303.5 563.2,306.1 513.7,296.5 464.2,299.9 414.7,306.6 365.1,226.6 315.6,232.3 266.1,229.9 216.6,229.7 167.0,234.3 117.5,221.4 68.0,229.9" fill="#6a51a3" fill-opacity="0.9" stroke="#fff" stroke-width="0.4"><title>minimal — legalizeExistentialTypeLayout</title></polygon>
<polygon points="68.0,226.8 117.5,218.3 167.0,231.2 216.6,226.6 266.1,226.8 315.6,229.2 365.1,223.5 414.7,305.3 464.2,298.9 513.7,295.3 563.2,305.1 612.8,302.5 662.3,311.0 711.8,323.4 761.3,324.7 810.9,299.1 860.4,300.2 909.9,326.0 959.4,327.0 1009.0,326.8 1058.5,326.7 1108.0,322.6 1108.0,322.6 1058.5,326.7 1009.0,326.8 959.4,327.0 909.9,326.0 860.4,300.2 810.9,299.1 761.3,324.7 711.8,323.4 662.3,311.0 612.8,302.5 563.2,305.1 513.7,295.3 464.2,298.9 414.7,305.3 365.1,224.0 315.6,229.7 266.1,227.4 216.6,227.1 167.0,231.7 117.5,218.8 68.0,227.4" fill="#bcbddc" fill-opacity="0.9" stroke="#fff" stroke-width="0.4"><title>minimal — performMandatoryEarlyInlining</title></polygon>
<polygon points="68.0,226.6 117.5,218.1 167.0,231.0 216.6,226.3 266.1,226.6 315.6,228.9 365.1,223.2 414.7,305.3 464.2,298.9 513.7,295.3 563.2,305.1 612.8,302.5 662.3,311.0 711.8,323.4 761.3,324.7 810.9,299.1 860.4,300.2 909.9,326.0 959.4,327.0 1009.0,326.8 1058.5,326.7 1108.0,322.6 1108.0,322.6 1058.5,326.7 1009.0,326.8 959.4,327.0 909.9,326.0 860.4,300.2 810.9,299.1 761.3,324.7 711.8,323.4 662.3,311.0 612.8,302.5 563.2,305.1 513.7,295.3 464.2,298.9 414.7,305.3 365.1,223.5 315.6,229.2 266.1,226.8 216.6,226.6 167.0,231.2 117.5,218.3 68.0,226.8" fill="#dadaeb" fill-opacity="0.9" stroke="#fff" stroke-width="0.4"><title>minimal — performForceInlining</title></polygon>
<polygon points="68.0,187.6 117.5,179.1 167.0,192.8 216.6,187.6 266.1,187.9 315.6,190.2 365.1,183.7 414.7,289.1 464.2,282.3 513.7,279.2 563.2,289.1 612.8,286.5 662.3,297.1 711.8,312.3 761.3,313.1 810.9,287.5 860.4,288.8 909.9,315.7 959.4,316.4 1009.0,316.2 1058.5,316.3 1108.0,312.0 1108.0,322.6 1058.5,326.7 1009.0,326.8 959.4,327.0 909.9,326.0 860.4,300.2 810.9,299.1 761.3,324.7 711.8,323.4 662.3,311.0 612.8,302.5 563.2,305.1 513.7,295.3 464.2,298.9 414.7,305.3 365.1,223.2 315.6,228.9 266.1,226.6 216.6,226.3 167.0,231.0 117.5,218.1 68.0,226.6" fill="#4a1486" fill-opacity="0.9" stroke="#fff" stroke-width="0.4"><title>minimal — linkAndOptimizeIR (self)</title></polygon>
<polygon points="68.0,128.2 117.5,118.7 167.0,131.3 216.6,128.2 266.1,128.0 315.6,133.1 365.1,118.7 414.7,233.0 464.2,219.6 513.7,223.7 563.2,232.3 612.8,231.5 662.3,250.1 711.8,262.2 761.3,264.5 810.9,241.6 860.4,243.1 909.9,260.7 959.4,267.4 1009.0,270.2 1058.5,269.2 1108.0,264.5 1108.0,312.0 1058.5,316.3 1009.0,316.2 959.4,316.4 909.9,315.7 860.4,288.8 810.9,287.5 761.3,313.1 711.8,312.3 662.3,297.1 612.8,286.5 563.2,289.1 513.7,279.2 464.2,282.3 414.7,289.1 365.1,183.7 315.6,190.2 266.1,187.9 216.6,187.6 167.0,192.8 117.5,179.1 68.0,187.6" fill="#e6550d" fill-opacity="0.9" stroke="#fff" stroke-width="0.4"><title>minimal — generateOutput (self)</title></polygon>
<polygon points="68.0,122.3 117.5,113.0 167.0,124.6 216.6,122.8 266.1,122.3 315.6,121.2 365.1,108.6 414.7,227.6 464.2,211.6 513.7,217.8 563.2,225.8 612.8,225.0 662.3,244.9 711.8,260.9 761.3,258.1 810.9,241.6 860.4,232.8 909.9,258.3 959.4,267.4 1009.0,266.9 1058.5,269.2 1108.0,264.5 1108.0,264.5 1058.5,269.2 1009.0,270.2 959.4,267.4 909.9,260.7 860.4,243.1 810.9,241.6 761.3,264.5 711.8,262.2 662.3,250.1 612.8,231.5 563.2,232.3 513.7,223.7 464.2,219.6 414.7,233.0 365.1,118.7 315.6,133.1 266.1,128.0 216.6,128.2 167.0,131.3 117.5,118.7 68.0,128.2" fill="#969696" fill-opacity="0.9" stroke="#fff" stroke-width="0.4"><title>minimal — compileInner (self)</title></polygon>
<text x="12" y="578" fill="#666" font-weight="600">phase buckets</text>
<rect x="12" y="586" width="12" height="12" fill="#c7e9c0"/>
<text x="28" y="596" fill="#222">parseTranslationUnit</text>
<rect x="289" y="586" width="12" height="12" fill="#41ab5d"/>
<text x="305" y="596" fill="#222">SemanticChecking</text>
<rect x="566" y="586" width="12" height="12" fill="#006d2c"/>
<text x="582" y="596" fill="#222">generateIR</text>
<rect x="843" y="586" width="12" height="12" fill="#74c476"/>
<text x="859" y="596" fill="#222">frontEndExecute (self)</text>
<rect x="12" y="604" width="12" height="12" fill="#6baed6"/>
<text x="28" y="614" fill="#222">specializeModule</text>
<rect x="289" y="604" width="12" height="12" fill="#2171b5"/>
<text x="305" y="614" fill="#222">simplifyIR</text>
<rect x="566" y="604" width="12" height="12" fill="#08306b"/>
<text x="582" y="614" fill="#222">linkIR</text>
<rect x="843" y="604" width="12" height="12" fill="#9e9ac8"/>
<text x="859" y="614" fill="#222">unrollLoopsInModule</text>
<rect x="12" y="622" width="12" height="12" fill="#807dba"/>
<text x="28" y="632" fill="#222">legalizeResourceTypes</text>
<rect x="289" y="622" width="12" height="12" fill="#6a51a3"/>
<text x="305" y="632" fill="#222">legalizeExistentialTypeLayout</text>
<rect x="566" y="622" width="12" height="12" fill="#bcbddc"/>
<text x="582" y="632" fill="#222">performMandatoryEarlyInlining</text>
<rect x="843" y="622" width="12" height="12" fill="#dadaeb"/>
<text x="859" y="632" fill="#222">performForceInlining</text>
<rect x="12" y="640" width="12" height="12" fill="#4a1486"/>
<text x="28" y="650" fill="#222">linkAndOptimizeIR (self)</text>
<rect x="289" y="640" width="12" height="12" fill="#fd8d3c"/>
<text x="305" y="650" fill="#222">emitEntryPointsSourceFromIR</text>
<rect x="566" y="640" width="12" height="12" fill="#e6550d"/>
<text x="582" y="650" fill="#222">generateOutput (self)</text>
<rect x="843" y="640" width="12" height="12" fill="#969696"/>
<text x="859" y="650" fill="#222">compileInner (self)</text>
</svg>