<svg xmlns="http://www.w3.org/2000/svg" xmlns:xlink="http://www.w3.org/1999/xlink" width="1132" height="680" viewBox="0 0 1132 680" preserveAspectRatio="xMidYMid meet" font-family="sans-serif" font-size="13">
<rect width="1132" height="680" fill="white"/>
<text x="12" y="30" font-size="20" font-weight="bold">minimal — Across releases (median ms)</text>
<text x="68" y="60" font-size="15" font-weight="600" fill="#1a1a1a">minimal<tspan fill="#888" font-weight="400" text-decoration="none">  2.85×</tspan></text>
<line x1="68.0" y1="516.0" x2="1108.0" y2="516.0" stroke="#eee"/>
<text x="64.0" y="519.0" text-anchor="end" fill="#999">0.0</text>
<line x1="68.0" y1="296.0" x2="1108.0" y2="296.0" stroke="#eee"/>
<text x="64.0" y="299.0" text-anchor="end" fill="#999">17</text>
<line x1="68.0" y1="76.0" x2="1108.0" y2="76.0" stroke="#eee"/>
<text x="64.0" y="79.0" text-anchor="end" fill="#999">35</text>
<line x1="68.0" y1="76.0" x2="68.0" y2="516.0" stroke="#333"/>
<line x1="68.0" y1="516.0" x2="1108.0" y2="516.0" stroke="#333"/>
<line x1="68.0" y1="516.0" x2="68.0" y2="519.0" stroke="#999"/>
<text x="68.0" y="531.0" text-anchor="end" fill="#666" transform="rotate(-50 68.0 531.0)">25.12</text>
<line x1="113.2" y1="516.0" x2="113.2" y2="519.0" stroke="#999"/>
<text x="113.2" y="531.0" text-anchor="end" fill="#666" transform="rotate(-50 113.2 531.0)">25.13</text>
<line x1="158.4" y1="516.0" x2="158.4" y2="519.0" stroke="#999"/>
<text x="158.4" y="531.0" text-anchor="end" fill="#666" transform="rotate(-50 158.4 531.0)">25.14</text>
<line x1="203.7" y1="516.0" x2="203.7" y2="519.0" stroke="#999"/>
<text x="203.7" y="531.0" text-anchor="end" fill="#666" transform="rotate(-50 203.7 531.0)">25.15</text>
<line x1="248.9" y1="516.0" x2="248.9" y2="519.0" stroke="#999"/>
<text x="248.9" y="531.0" text-anchor="end" fill="#666" transform="rotate(-50 248.9 531.0)">25.16</text>
<line x1="294.1" y1="516.0" x2="294.1" y2="519.0" stroke="#999"/>
<text x="294.1" y="531.0" text-anchor="end" fill="#666" transform="rotate(-50 294.1 531.0)">25.17</text>
<line x1="339.3" y1="516.0" x2="339.3" y2="519.0" stroke="#999"/>
<text x="339.3" y="531.0" text-anchor="end" fill="#666" transform="rotate(-50 339.3 531.0)">25.18</text>
<line x1="384.5" y1="516.0" x2="384.5" y2="519.0" stroke="#999"/>
<text x="384.5" y="531.0" text-anchor="end" fill="#666" transform="rotate(-50 384.5 531.0)">25.19</text>
<line x1="429.7" y1="516.0" x2="429.7" y2="519.0" stroke="#999"/>
<text x="429.7" y="531.0" text-anchor="end" fill="#666" transform="rotate(-50 429.7 531.0)">25.20</text>
<line x1="475.0" y1="516.0" x2="475.0" y2="519.0" stroke="#999"/>
<text x="475.0" y="531.0" text-anchor="end" fill="#666" transform="rotate(-50 475.0 531.0)">25.21</text>
<line x1="520.2" y1="516.0" x2="520.2" y2="519.0" stroke="#999"/>
<text x="520.2" y="531.0" text-anchor="end" fill="#666" transform="rotate(-50 520.2 531.0)">25.22</text>
<line x1="565.4" y1="516.0" x2="565.4" y2="519.0" stroke="#999"/>
<text x="565.4" y="531.0" text-anchor="end" fill="#666" transform="rotate(-50 565.4 531.0)">25.23</text>
<line x1="610.6" y1="516.0" x2="610.6" y2="519.0" stroke="#999"/>
<text x="610.6" y="531.0" text-anchor="end" fill="#666" transform="rotate(-50 610.6 531.0)">25.24</text>
<line x1="655.8" y1="516.0" x2="655.8" y2="519.0" stroke="#999"/>
<text x="655.8" y="531.0" text-anchor="end" fill="#666" transform="rotate(-50 655.8 531.0)">26.1</text>
<line x1="701.0" y1="516.0" x2="701.0" y2="519.0" stroke="#999"/>
<text x="701.0" y="531.0" text-anchor="end" fill="#666" transform="rotate(-50 701.0 531.0)">26.2</text>
<line x1="746.3" y1="516.0" x2="746.3" y2="519.0" stroke="#999"/>
<text x="746.3" y="531.0" text-anchor="end" fill="#666" transform="rotate(-50 746.3 531.0)">26.3</text>
<line x1="791.5" y1="516.0" x2="791.5" y2="519.0" stroke="#999"/>
<text x="791.5" y="531.0" text-anchor="end" fill="#666" transform="rotate(-50 791.5 531.0)">26.4</text>
<line x1="836.7" y1="516.0" x2="836.7" y2="519.0" stroke="#999"/>
<text x="836.7" y="531.0" text-anchor="end" fill="#666" transform="rotate(-50 836.7 531.0)">26.5</text>
<line x1="881.9" y1="516.0" x2="881.9" y2="519.0" stroke="#999"/>
<text x="881.9" y="531.0" text-anchor="end" fill="#666" transform="rotate(-50 881.9 531.0)">26.7</text>
<line x1="927.1" y1="516.0" x2="927.1" y2="519.0" stroke="#999"/>
<text x="927.1" y="531.0" text-anchor="end" fill="#666" transform="rotate(-50 927.1 531.0)">26.8</text>
<line x1="972.3" y1="516.0" x2="972.3" y2="519.0" stroke="#999"/>
<text x="972.3" y="531.0" text-anchor="end" fill="#666" transform="rotate(-50 972.3 531.0)">26.9</text>
<line x1="1017.6" y1="516.0" x2="1017.6" y2="519.0" stroke="#999"/>
<text x="1017.6" y="531.0" text-anchor="end" fill="#666" transform="rotate(-50 1017.6 531.0)">26.10</text>
<line x1="1062.8" y1="516.0" x2="1062.8" y2="519.0" stroke="#999"/>
<text x="1062.8" y="531.0" text-anchor="end" fill="#666" transform="rotate(-50 1062.8 531.0)">26.11</text>
<line x1="1108.0" y1="516.0" x2="1108.0" y2="519.0" stroke="#999"/>
<text x="1108.0" y="531.0" text-anchor="end" fill="#666" transform="rotate(-50 1108.0 531.0)">26.12</text>
<polygon points="68.0,516.0 113.2,510.0 158.4,512.1 203.7,514.2 248.9,514.6 294.1,514.3 339.3,514.6 384.5,514.3 429.7,514.5 475.0,514.5 520.2,514.5 565.4,514.5 610.6,514.3 655.8,514.3 701.0,514.5 746.3,514.5 791.5,514.6 836.7,514.5 881.9,514.3 927.1,514.2 972.3,514.3 1017.6,514.1 1062.8,514.2 1108.0,514.2 1108.0,516.0 1062.8,516.0 1017.6,516.0 972.3,516.0 927.1,516.0 881.9,516.0 836.7,516.0 791.5,516.0 746.3,516.0 701.0,516.0 655.8,516.0 610.6,516.0 565.4,516.0 520.2,516.0 475.0,516.0 429.7,516.0 384.5,516.0 339.3,516.0 294.1,516.0 248.9,516.0 203.7,516.0 158.4,516.0 113.2,516.0 68.0,516.0" fill="#c7e9c0" fill-opacity="0.9" stroke="#fff" stroke-width="0.4"><title>minimal — parseTranslationUnit</title></polygon>
<polygon points="68.0,503.3 113.2,485.9 158.4,491.0 203.7,456.5 248.9,459.8 294.1,459.2 339.3,455.1 384.5,456.4 429.7,455.6 475.0,454.7 520.2,466.6 565.4,465.8 610.6,465.2 655.8,466.1 701.0,454.5 746.3,453.2 791.5,455.3 836.7,451.8 881.9,429.6 927.1,428.8 972.3,425.9 1017.6,420.9 1062.8,428.4 1108.0,431.1 1108.0,514.2 1062.8,514.2 1017.6,514.1 972.3,514.3 927.1,514.2 881.9,514.3 836.7,514.5 791.5,514.6 746.3,514.5 701.0,514.5 655.8,514.3 610.6,514.3 565.4,514.5 520.2,514.5 475.0,514.5 429.7,514.5 384.5,514.3 339.3,514.6 294.1,514.3 248.9,514.6 203.7,514.2 158.4,512.1 113.2,510.0 68.0,516.0" fill="#41ab5d" fill-opacity="0.9" stroke="#fff" stroke-width="0.4"><title>minimal — SemanticChecking</title></polygon>
<polygon points="68.0,503.3 113.2,482.3 158.4,487.2 203.7,452.8 248.9,456.4 294.1,454.6 339.3,450.7 384.5,451.4 429.7,451.2 475.0,450.0 520.2,462.2 565.4,461.6 610.6,461.0 655.8,461.6 701.0,449.9 746.3,448.8 791.5,450.9 836.7,447.1 881.9,425.0 927.1,424.0 972.3,420.9 1017.6,416.1 1062.8,414.6 1108.0,417.1 1108.0,431.1 1062.8,428.4 1017.6,420.9 972.3,425.9 927.1,428.8 881.9,429.6 836.7,451.8 791.5,455.3 746.3,453.2 701.0,454.5 655.8,466.1 610.6,465.2 565.4,465.8 520.2,466.6 475.0,454.7 429.7,455.6 384.5,456.4 339.3,455.1 294.1,459.2 248.9,459.8 203.7,456.5 158.4,491.0 113.2,485.9 68.0,503.3" fill="#006d2c" fill-opacity="0.9" stroke="#fff" stroke-width="0.4"><title>minimal — generateIR</title></polygon>
<polygon points="68.0,490.6 113.2,479.8 158.4,484.9 203.7,449.5 248.9,453.7 294.1,450.4 339.3,446.4 384.5,447.3 429.7,447.0 475.0,445.7 520.2,458.4 565.4,457.3 610.6,455.6 655.8,456.7 701.0,445.0 746.3,443.8 791.5,446.1 836.7,441.5 881.9,420.1 927.1,419.7 972.3,416.9 1017.6,412.2 1062.8,409.6 1108.0,412.2 1108.0,417.1 1062.8,414.6 1017.6,416.1 972.3,420.9 927.1,424.0 881.9,425.0 836.7,447.1 791.5,450.9 746.3,448.8 701.0,449.9 655.8,461.6 610.6,461.0 565.4,461.6 520.2,462.2 475.0,450.0 429.7,451.2 384.5,451.4 339.3,450.7 294.1,454.6 248.9,456.4 203.7,452.8 158.4,487.2 113.2,482.3 68.0,503.3" fill="#74c476" fill-opacity="0.9" stroke="#fff" stroke-width="0.4"><title>minimal — frontEndExecute (self)</title></polygon>
<polygon points="68.0,490.6 113.2,479.4 158.4,484.5 203.7,449.2 248.9,453.4 294.1,450.0 339.3,446.0 384.5,446.9 429.7,446.6 475.0,445.3 520.2,458.1 565.4,456.9 610.6,454.7 655.8,455.6 701.0,444.1 746.3,442.9 791.5,445.2 836.7,440.5 881.9,405.3 927.1,405.7 972.3,402.4 1017.6,396.0 1062.8,396.8 1108.0,398.8 1108.0,412.2 1062.8,409.6 1017.6,412.2 972.3,416.9 927.1,419.7 881.9,420.1 836.7,441.5 791.5,446.1 746.3,443.8 701.0,445.0 655.8,456.7 610.6,455.6 565.4,457.3 520.2,458.4 475.0,445.7 429.7,447.0 384.5,447.3 339.3,446.4 294.1,450.4 248.9,453.7 203.7,449.5 158.4,484.9 113.2,479.8 68.0,490.6" fill="#6baed6" fill-opacity="0.9" stroke="#fff" stroke-width="0.4"><title>minimal — specializeModule</title></polygon>
<polygon points="68.0,490.6 113.2,478.5 158.4,483.5 203.7,448.3 248.9,452.6 294.1,449.2 339.3,445.1 384.5,446.0 429.7,445.7 475.0,444.5 520.2,457.2 565.4,456.0 610.6,453.9 655.8,454.7 701.0,443.3 746.3,442.0 791.5,444.5 836.7,439.6 881.9,398.3 927.1,398.8 972.3,394.8 1017.6,388.5 1062.8,390.4 1108.0,393.1 1108.0,398.8 1062.8,396.8 1017.6,396.0 972.3,402.4 927.1,405.7 881.9,405.3 836.7,440.5 791.5,445.2 746.3,442.9 701.0,444.1 655.8,455.6 610.6,454.7 565.4,456.9 520.2,458.1 475.0,445.3 429.7,446.6 384.5,446.9 339.3,446.0 294.1,450.0 248.9,453.4 203.7,449.2 158.4,484.5 113.2,479.4 68.0,490.6" fill="#2171b5" fill-opacity="0.9" stroke="#fff" stroke-width="0.4"><title>minimal — simplifyIR</title></polygon>
<polygon points="68.0,490.6 113.2,469.7 158.4,465.4 203.7,442.7 248.9,447.6 294.1,443.7 339.3,439.1 384.5,440.1 429.7,440.0 475.0,438.4 520.2,451.4 565.4,450.4 610.6,448.1 655.8,448.9 701.0,437.2 746.3,435.9 791.5,438.5 836.7,433.5 881.9,238.1 927.1,238.0 972.3,168.4 1017.6,167.7 1062.8,386.0 1108.0,387.1 1108.0,393.1 1062.8,390.4 1017.6,388.5 972.3,394.8 927.1,398.8 881.9,398.3 836.7,439.6 791.5,444.5 746.3,442.0 701.0,443.3 655.8,454.7 610.6,453.9 565.4,456.0 520.2,457.2 475.0,444.5 429.7,445.7 384.5,446.0 339.3,445.1 294.1,449.2 248.9,452.6 203.7,448.3 158.4,483.5 113.2,478.5 68.0,490.6" fill="#08306b" fill-opacity="0.9" stroke="#fff" stroke-width="0.4"><title>minimal — linkIR</title></polygon>
<polygon points="68.0,490.6 113.2,469.7 158.4,465.4 203.7,442.7 248.9,447.6 294.1,443.7 339.3,439.1 384.5,440.1 429.7,440.0 475.0,438.4 520.2,451.4 565.4,450.4 610.6,448.1 655.8,448.9 701.0,437.2 746.3,435.9 791.5,438.5 836.7,433.5 881.9,238.0 927.1,237.8 972.3,168.3 1017.6,167.6 1062.8,385.9 1108.0,387.0 1108.0,387.1 1062.8,386.0 1017.6,167.7 972.3,168.4 927.1,238.0 881.9,238.1 836.7,433.5 791.5,438.5 746.3,435.9 701.0,437.2 655.8,448.9 610.6,448.1 565.4,450.4 520.2,451.4 475.0,438.4 429.7,440.0 384.5,440.1 339.3,439.1 294.1,443.7 248.9,447.6 203.7,442.7 158.4,465.4 113.2,469.7 68.0,490.6" fill="#9e9ac8" fill-opacity="0.9" stroke="#fff" stroke-width="0.4"><title>minimal — unrollLoopsInModule</title></polygon>
<polygon points="68.0,490.6 113.2,469.5 158.4,465.2 203.7,442.4 248.9,447.4 294.1,443.4 339.3,438.9 384.5,439.9 429.7,439.8 475.0,438.1 520.2,451.2 565.4,450.2 610.6,447.9 655.8,448.6 701.0,437.0 746.3,435.7 791.5,438.2 836.7,433.3 881.9,237.2 927.1,237.1 972.3,167.6 1017.6,166.8 1062.8,385.1 1108.0,386.1 1108.0,387.0 1062.8,385.9 1017.6,167.6 972.3,168.3 927.1,237.8 881.9,238.0 836.7,433.5 791.5,438.5 746.3,435.9 701.0,437.2 655.8,448.9 610.6,448.1 565.4,450.4 520.2,451.4 475.0,438.4 429.7,440.0 384.5,440.1 339.3,439.1 294.1,443.7 248.9,447.6 203.7,442.7 158.4,465.4 113.2,469.7 68.0,490.6" fill="#807dba" fill-opacity="0.9" stroke="#fff" stroke-width="0.4"><title>minimal — legalizeResourceTypes</title></polygon>
<polygon points="68.0,490.6 113.2,468.8 158.4,464.5 203.7,441.8 248.9,446.7 294.1,442.8 339.3,438.4 384.5,439.4 429.7,439.2 475.0,437.5 520.2,450.7 565.4,449.7 610.6,447.4 655.8,448.1 701.0,436.5 746.3,435.2 791.5,437.7 836.7,432.6 881.9,236.1 927.1,235.9 972.3,166.5 1017.6,165.8 1062.8,384.0 1108.0,385.0 1108.0,386.1 1062.8,385.1 1017.6,166.8 972.3,167.6 927.1,237.1 881.9,237.2 836.7,433.3 791.5,438.2 746.3,435.7 701.0,437.0 655.8,448.6 610.6,447.9 565.4,450.2 520.2,451.2 475.0,438.1 429.7,439.8 384.5,439.9 339.3,438.9 294.1,443.4 248.9,447.4 203.7,442.4 158.4,465.2 113.2,469.5 68.0,490.6" fill="#6a51a3" fill-opacity="0.9" stroke="#fff" stroke-width="0.4"><title>minimal — legalizeExistentialTypeLayout</title></polygon>
<polygon points="68.0,490.6 113.2,468.7 158.4,464.5 203.7,441.8 248.9,446.7 294.1,442.8 339.3,438.4 384.5,439.4 429.7,439.2 475.0,437.5 520.2,450.7 565.4,449.7 610.6,447.4 655.8,448.1 701.0,436.5 746.3,435.2 791.5,437.7 836.7,432.6 881.9,235.8 927.1,235.7 972.3,166.3 1017.6,165.5 1062.8,383.7 1108.0,384.7 1108.0,385.0 1062.8,384.0 1017.6,165.8 972.3,166.5 927.1,235.9 881.9,236.1 836.7,432.6 791.5,437.7 746.3,435.2 701.0,436.5 655.8,448.1 610.6,447.4 565.4,449.7 520.2,450.7 475.0,437.5 429.7,439.2 384.5,439.4 339.3,438.4 294.1,442.8 248.9,446.7 203.7,441.8 158.4,464.5 113.2,468.8 68.0,490.6" fill="#bcbddc" fill-opacity="0.9" stroke="#fff" stroke-width="0.4"><title>minimal — performMandatoryEarlyInlining</title></polygon>
<polygon points="68.0,490.6 113.2,468.7 158.4,464.5 203.7,441.8 248.9,446.7 294.1,442.8 339.3,438.4 384.5,439.4 429.7,439.2 475.0,437.5 520.2,450.7 565.4,449.7 610.6,447.4 655.8,448.1 701.0,436.5 746.3,435.2 791.5,437.7 836.7,432.6 881.9,235.7 927.1,235.5 972.3,166.2 1017.6,165.4 1062.8,383.6 1108.0,384.6 1108.0,384.7 1062.8,383.7 1017.6,165.5 972.3,166.3 927.1,235.7 881.9,235.8 836.7,432.6 791.5,437.7 746.3,435.2 701.0,436.5 655.8,448.1 610.6,447.4 565.4,449.7 520.2,450.7 475.0,437.5 429.7,439.2 384.5,439.4 339.3,438.4 294.1,442.8 248.9,446.7 203.7,441.8 158.4,464.5 113.2,468.7 68.0,490.6" fill="#dadaeb" fill-opacity="0.9" stroke="#fff" stroke-width="0.4"><title>minimal — performForceInlining</title></polygon>
<polygon points="68.0,477.9 113.2,465.5 158.4,460.2 203.7,438.4 248.9,443.3 294.1,439.0 339.3,434.8 384.5,435.4 429.7,435.2 475.0,433.5 520.2,446.7 565.4,445.3 610.6,441.0 655.8,441.9 701.0,429.6 746.3,428.4 791.5,430.9 836.7,425.9 881.9,209.9 927.1,208.6 972.3,140.1 1017.6,141.4 1062.8,364.7 1108.0,368.3 1108.0,384.6 1062.8,383.6 1017.6,165.4 972.3,166.2 927.1,235.5 881.9,235.7 836.7,432.6 791.5,437.7 746.3,435.2 701.0,436.5 655.8,448.1 610.6,447.4 565.4,449.7 520.2,450.7 475.0,437.5 429.7,439.2 384.5,439.4 339.3,438.4 294.1,442.8 248.9,446.7 203.7,441.8 158.4,464.5 113.2,468.7 68.0,490.6" fill="#4a1486" fill-opacity="0.9" stroke="#fff" stroke-width="0.4"><title>minimal — linkAndOptimizeIR (self)</title></polygon>
<polygon points="68.0,465.2 113.2,438.6 158.4,430.9 203.7,416.1 248.9,417.8 294.1,414.1 339.3,407.5 384.5,411.2 429.7,408.1 475.0,408.2 520.2,421.5 565.4,418.9 610.6,413.1 655.8,417.0 701.0,405.1 746.3,402.5 791.5,402.9 836.7,398.3 881.9,181.7 927.1,181.3 972.3,111.5 1017.6,112.9 1062.8,335.0 1108.0,338.2 1108.0,368.3 1062.8,364.7 1017.6,141.4 972.3,140.1 927.1,208.6 881.9,209.9 836.7,425.9 791.5,430.9 746.3,428.4 701.0,429.6 655.8,441.9 610.6,441.0 565.4,445.3 520.2,446.7 475.0,433.5 429.7,435.2 384.5,435.4 339.3,434.8 294.1,439.0 248.9,443.3 203.7,438.4 158.4,460.2 113.2,465.5 68.0,477.9" fill="#e6550d" fill-opacity="0.9" stroke="#fff" stroke-width="0.4"><title>minimal — generateOutput (self)</title></polygon>
<polygon points="68.0,452.5 113.2,438.6 158.4,427.8 203.7,413.6 248.9,416.4 294.1,411.7 339.3,406.0 384.5,409.6 429.7,405.3 475.0,407.0 520.2,418.8 565.4,417.6 610.6,410.3 655.8,414.5 701.0,402.1 746.3,400.0 791.5,401.9 836.7,395.8 881.9,180.6 927.1,177.6 972.3,110.0 1017.6,108.6 1062.8,332.4 1108.0,334.8 1108.0,338.2 1062.8,335.0 1017.6,112.9 972.3,111.5 927.1,181.3 881.9,181.7 836.7,398.3 791.5,402.9 746.3,402.5 701.0,405.1 655.8,417.0 610.6,413.1 565.4,418.9 520.2,421.5 475.0,408.2 429.7,408.1 384.5,411.2 339.3,407.5 294.1,414.1 248.9,417.8 203.7,416.1 158.4,430.9 113.2,438.6 68.0,465.2" fill="#969696" fill-opacity="0.9" stroke="#fff" stroke-width="0.4"><title>minimal — compileInner (self)</title></polygon>
<text x="12" y="578" fill="#666" font-weight="600">phase buckets</text>
<rect x="12" y="586" width="12" height="12" fill="#c7e9c0"/>
<text x="28" y="596" fill="#222">parseTranslationUnit</text>
<rect x="289" y="586" width="12" height="12" fill="#41ab5d"/>
<text x="305" y="596" fill="#222">SemanticChecking</text>
<rect x="566" y="586" width="12" height="12" fill="#006d2c"/>
<text x="582" y="596" fill="#222">generateIR</text>
<rect x="843" y="586" width="12" height="12" fill="#74c476"/>
<text x="859" y="596" fill="#222">frontEndExecute (self)</text>
<rect x="12" y="604" width="12" height="12" fill="#6baed6"/>
<text x="28" y="614" fill="#222">specializeModule</text>
<rect x="289" y="604" width="12" height="12" fill="#2171b5"/>
<text x="305" y="614" fill="#222">simplifyIR</text>
<rect x="566" y="604" width="12" height="12" fill="#08306b"/>
<text x="582" y="614" fill="#222">linkIR</text>
<rect x="843" y="604" width="12" height="12" fill="#9e9ac8"/>
<text x="859" y="614" fill="#222">unrollLoopsInModule</text>
<rect x="12" y="622" width="12" height="12" fill="#807dba"/>
<text x="28" y="632" fill="#222">legalizeResourceTypes</text>
<rect x="289" y="622" width="12" height="12" fill="#6a51a3"/>
<text x="305" y="632" fill="#222">legalizeExistentialTypeLayout</text>
<rect x="566" y="622" width="12" height="12" fill="#bcbddc"/>
<text x="582" y="632" fill="#222">performMandatoryEarlyInlining</text>
<rect x="843" y="622" width="12" height="12" fill="#dadaeb"/>
<text x="859" y="632" fill="#222">performForceInlining</text>
<rect x="12" y="640" width="12" height="12" fill="#4a1486"/>
<text x="28" y="650" fill="#222">linkAndOptimizeIR (self)</text>
<rect x="289" y="640" width="12" height="12" fill="#fd8d3c"/>
<text x="305" y="650" fill="#222">emitEntryPointsSourceFromIR</text>
<rect x="566" y="640" width="12" height="12" fill="#e6550d"/>
<text x="582" y="650" fill="#222">generateOutput (self)</text>
<rect x="843" y="640" width="12" height="12" fill="#969696"/>
<text x="859" y="650" fill="#222">compileInner (self)</text>
</svg>