<svg xmlns="http://www.w3.org/2000/svg" xmlns:xlink="http://www.w3.org/1999/xlink" width="1132" height="680" viewBox="0 0 1132 680" preserveAspectRatio="xMidYMid meet" font-family="sans-serif" font-size="13">
<rect width="1132" height="680" fill="white"/>
<text x="12" y="30" font-size="20" font-weight="bold">minimal — Daily tip-of-tree (last 30 days) (median ms)</text>
<text x="68" y="60" font-size="15" font-weight="600" fill="#1a1a1a">minimal<tspan fill="#888" font-weight="400" text-decoration="none">  0.63×</tspan></text>
<line x1="68.0" y1="516.0" x2="1108.0" y2="516.0" stroke="#eee"/>
<text x="64.0" y="519.0" text-anchor="end" fill="#999">0.0</text>
<line x1="68.0" y1="296.0" x2="1108.0" y2="296.0" stroke="#eee"/>
<text x="64.0" y="299.0" text-anchor="end" fill="#999">8.5</text>
<line x1="68.0" y1="76.0" x2="1108.0" y2="76.0" stroke="#eee"/>
<text x="64.0" y="79.0" text-anchor="end" fill="#999">17</text>
<line x1="68.0" y1="76.0" x2="68.0" y2="516.0" stroke="#333"/>
<line x1="68.0" y1="516.0" x2="1108.0" y2="516.0" stroke="#333"/>
<line x1="68.0" y1="516.0" x2="68.0" y2="519.0" stroke="#999"/>
<text x="68.0" y="531.0" text-anchor="end" fill="#e8731a" transform="rotate(-50 68.0 531.0)">06-25</text>
<line x1="125.8" y1="516.0" x2="125.8" y2="519.0" stroke="#999"/>
<text x="125.8" y="531.0" text-anchor="end" fill="#e8731a" transform="rotate(-50 125.8 531.0)">06-26</text>
<line x1="183.6" y1="516.0" x2="183.6" y2="519.0" stroke="#999"/>
<text x="183.6" y="531.0" text-anchor="end" fill="#e8731a" transform="rotate(-50 183.6 531.0)">06-28</text>
<line x1="241.3" y1="516.0" x2="241.3" y2="519.0" stroke="#999"/>
<text x="241.3" y="531.0" text-anchor="end" fill="#e8731a" transform="rotate(-50 241.3 531.0)">07-01</text>
<line x1="299.1" y1="516.0" x2="299.1" y2="519.0" stroke="#999"/>
<text x="299.1" y="531.0" text-anchor="end" fill="#e8731a" transform="rotate(-50 299.1 531.0)">07-02</text>
<line x1="356.9" y1="516.0" x2="356.9" y2="519.0" stroke="#999"/>
<text x="356.9" y="531.0" text-anchor="end" fill="#e8731a" transform="rotate(-50 356.9 531.0)">07-03</text>
<line x1="414.7" y1="516.0" x2="414.7" y2="519.0" stroke="#999"/>
<text x="414.7" y="531.0" text-anchor="end" fill="#e8731a" transform="rotate(-50 414.7 531.0)">07-06</text>
<line x1="472.4" y1="516.0" x2="472.4" y2="519.0" stroke="#999"/>
<text x="472.4" y="531.0" text-anchor="end" fill="#e8731a" transform="rotate(-50 472.4 531.0)">07-07</text>
<line x1="530.2" y1="516.0" x2="530.2" y2="519.0" stroke="#999"/>
<text x="530.2" y="531.0" text-anchor="end" fill="#e8731a" transform="rotate(-50 530.2 531.0)">07-08</text>
<line x1="588.0" y1="516.0" x2="588.0" y2="519.0" stroke="#999"/>
<text x="588.0" y="531.0" text-anchor="end" fill="#e8731a" transform="rotate(-50 588.0 531.0)">07-09</text>
<line x1="645.8" y1="516.0" x2="645.8" y2="519.0" stroke="#999"/>
<text x="645.8" y="531.0" text-anchor="end" fill="#e8731a" transform="rotate(-50 645.8 531.0)">07-10</text>
<line x1="703.6" y1="516.0" x2="703.6" y2="519.0" stroke="#999"/>
<text x="703.6" y="531.0" text-anchor="end" fill="#e8731a" transform="rotate(-50 703.6 531.0)">07-11</text>
<line x1="761.3" y1="516.0" x2="761.3" y2="519.0" stroke="#999"/>
<text x="761.3" y="531.0" text-anchor="end" fill="#e8731a" transform="rotate(-50 761.3 531.0)">07-14</text>
<line x1="819.1" y1="516.0" x2="819.1" y2="519.0" stroke="#999"/>
<text x="819.1" y="531.0" text-anchor="end" fill="#e8731a" transform="rotate(-50 819.1 531.0)">07-15</text>
<line x1="876.9" y1="516.0" x2="876.9" y2="519.0" stroke="#999"/>
<text x="876.9" y="531.0" text-anchor="end" fill="#e8731a" transform="rotate(-50 876.9 531.0)">07-15</text>
<line x1="934.7" y1="516.0" x2="934.7" y2="519.0" stroke="#999"/>
<text x="934.7" y="531.0" text-anchor="end" fill="#e8731a" transform="rotate(-50 934.7 531.0)">07-16</text>
<line x1="992.4" y1="516.0" x2="992.4" y2="519.0" stroke="#999"/>
<text x="992.4" y="531.0" text-anchor="end" fill="#e8731a" transform="rotate(-50 992.4 531.0)">07-17</text>
<line x1="1050.2" y1="516.0" x2="1050.2" y2="519.0" stroke="#999"/>
<text x="1050.2" y="531.0" text-anchor="end" fill="#e8731a" transform="rotate(-50 1050.2 531.0)">07-18</text>
<line x1="1108.0" y1="516.0" x2="1108.0" y2="519.0" stroke="#999"/>
<text x="1108.0" y="531.0" text-anchor="end" fill="#e8731a" transform="rotate(-50 1108.0 531.0)">07-19</text>
<polygon points="68.0,511.9 125.8,511.9 183.6,512.1 241.3,511.9 299.1,511.9 356.9,512.4 414.7,512.1 472.4,512.4 530.2,512.1 588.0,512.4 645.8,512.1 703.6,512.1 761.3,512.6 819.1,512.6 876.9,512.9 934.7,512.6 992.4,512.6 1050.2,512.9 1108.0,513.2 1108.0,516.0 1050.2,516.0 992.4,516.0 934.7,516.0 876.9,516.0 819.1,516.0 761.3,516.0 703.6,516.0 645.8,516.0 588.0,516.0 530.2,516.0 472.4,516.0 414.7,516.0 356.9,516.0 299.1,516.0 241.3,516.0 183.6,516.0 125.8,516.0 68.0,516.0" fill="#c7e9c0" fill-opacity="0.9" stroke="#fff" stroke-width="0.4"><title>minimal — parseTranslationUnit</title></polygon>
<polygon points="68.0,323.4 125.8,318.2 183.6,328.3 241.3,324.2 299.1,324.7 356.9,327.8 414.7,324.7 472.4,355.9 530.2,352.1 588.0,348.2 645.8,355.4 703.6,352.8 761.3,358.5 819.1,365.7 876.9,366.5 934.7,343.3 992.4,344.1 1050.2,360.6 1108.0,360.8 1108.0,513.2 1050.2,512.9 992.4,512.6 934.7,512.6 876.9,512.9 819.1,512.6 761.3,512.6 703.6,512.1 645.8,512.1 588.0,512.4 530.2,512.1 472.4,512.4 414.7,512.1 356.9,512.4 299.1,511.9 241.3,511.9 183.6,512.1 125.8,511.9 68.0,511.9" fill="#41ab5d" fill-opacity="0.9" stroke="#fff" stroke-width="0.4"><title>minimal — SemanticChecking</title></polygon>
<polygon points="68.0,294.5 125.8,288.5 183.6,299.6 241.3,295.3 299.1,295.3 356.9,298.1 414.7,295.0 472.4,326.5 530.2,321.8 588.0,316.9 645.8,325.7 703.6,323.9 761.3,330.6 819.1,338.6 876.9,340.4 934.7,317.7 992.4,317.7 1050.2,339.4 1108.0,338.6 1108.0,360.8 1050.2,360.6 992.4,344.1 934.7,343.3 876.9,366.5 819.1,365.7 761.3,358.5 703.6,352.8 645.8,355.4 588.0,348.2 530.2,352.1 472.4,355.9 414.7,324.7 356.9,327.8 299.1,324.7 241.3,324.2 183.6,328.3 125.8,318.2 68.0,323.4" fill="#006d2c" fill-opacity="0.9" stroke="#fff" stroke-width="0.4"><title>minimal — generateIR</title></polygon>
<polygon points="68.0,284.9 125.8,278.5 183.6,289.6 241.3,285.2 299.1,286.2 356.9,287.0 414.7,283.6 472.4,315.9 530.2,310.0 588.0,306.9 645.8,315.9 703.6,312.8 761.3,320.6 819.1,330.9 876.9,332.2 934.7,306.9 992.4,307.6 1050.2,332.4 1108.0,333.5 1108.0,338.6 1050.2,339.4 992.4,317.7 934.7,317.7 876.9,340.4 819.1,338.6 761.3,330.6 703.6,323.9 645.8,325.7 588.0,316.9 530.2,321.8 472.4,326.5 414.7,295.0 356.9,298.1 299.1,295.3 241.3,295.3 183.6,299.6 125.8,288.5 68.0,294.5" fill="#74c476" fill-opacity="0.9" stroke="#fff" stroke-width="0.4"><title>minimal — frontEndExecute (self)</title></polygon>
<polygon points="68.0,254.5 125.8,247.5 183.6,259.1 241.3,255.5 299.1,256.0 356.9,257.8 414.7,253.7 472.4,313.6 530.2,307.4 588.0,304.0 645.8,313.3 703.6,310.5 761.3,318.5 819.1,329.1 876.9,330.4 934.7,305.1 992.4,305.8 1050.2,330.6 1108.0,331.7 1108.0,333.5 1050.2,332.4 992.4,307.6 934.7,306.9 876.9,332.2 819.1,330.9 761.3,320.6 703.6,312.8 645.8,315.9 588.0,306.9 530.2,310.0 472.4,315.9 414.7,283.6 356.9,287.0 299.1,286.2 241.3,285.2 183.6,289.6 125.8,278.5 68.0,284.9" fill="#6baed6" fill-opacity="0.9" stroke="#fff" stroke-width="0.4"><title>minimal — specializeModule</title></polygon>
<polygon points="68.0,242.8 125.8,235.1 183.6,247.5 241.3,243.6 299.1,244.4 356.9,246.5 414.7,241.8 472.4,311.8 530.2,305.6 588.0,302.0 645.8,311.5 703.6,308.7 761.3,316.7 819.1,327.5 876.9,328.8 934.7,303.3 992.4,304.3 1050.2,329.1 1108.0,330.1 1108.0,331.7 1050.2,330.6 992.4,305.8 934.7,305.1 876.9,330.4 819.1,329.1 761.3,318.5 703.6,310.5 645.8,313.3 588.0,304.0 530.2,307.4 472.4,313.6 414.7,253.7 356.9,257.8 299.1,256.0 241.3,255.5 183.6,259.1 125.8,247.5 68.0,254.5" fill="#2171b5" fill-opacity="0.9" stroke="#fff" stroke-width="0.4"><title>minimal — simplifyIR</title></polygon>
<polygon points="68.0,232.0 125.8,223.5 183.6,236.4 241.3,231.7 299.1,232.0 356.9,234.3 414.7,228.6 472.4,307.1 530.2,300.4 588.0,297.1 645.8,306.6 703.6,304.0 761.3,312.3 819.1,324.7 876.9,325.7 934.7,300.4 992.4,301.5 1050.2,327.0 1108.0,328.0 1108.0,330.1 1050.2,329.1 992.4,304.3 934.7,303.3 876.9,328.8 819.1,327.5 761.3,316.7 703.6,308.7 645.8,311.5 588.0,302.0 530.2,305.6 472.4,311.8 414.7,241.8 356.9,246.5 299.1,244.4 241.3,243.6 183.6,247.5 125.8,235.1 68.0,242.8" fill="#08306b" fill-opacity="0.9" stroke="#fff" stroke-width="0.4"><title>minimal — linkIR</title></polygon>
<polygon points="68.0,231.7 125.8,223.2 183.6,236.1 241.3,231.5 299.1,231.7 356.9,234.1 414.7,228.4 472.4,307.1 530.2,300.4 588.0,297.1 645.8,306.6 703.6,304.0 761.3,312.3 819.1,324.7 876.9,325.7 934.7,300.4 992.4,301.5 1050.2,327.0 1108.0,328.0 1108.0,328.0 1050.2,327.0 992.4,301.5 934.7,300.4 876.9,325.7 819.1,324.7 761.3,312.3 703.6,304.0 645.8,306.6 588.0,297.1 530.2,300.4 472.4,307.1 414.7,228.6 356.9,234.3 299.1,232.0 241.3,231.7 183.6,236.4 125.8,223.5 68.0,232.0" fill="#9e9ac8" fill-opacity="0.9" stroke="#fff" stroke-width="0.4"><title>minimal — unrollLoopsInModule</title></polygon>
<polygon points="68.0,229.9 125.8,221.4 183.6,234.3 241.3,229.7 299.1,229.9 356.9,232.3 414.7,226.6 472.4,306.6 530.2,299.9 588.0,296.5 645.8,306.1 703.6,303.5 761.3,311.8 819.1,324.2 876.9,325.5 934.7,299.9 992.4,300.9 1050.2,326.8 1108.0,327.8 1108.0,328.0 1050.2,327.0 992.4,301.5 934.7,300.4 876.9,325.7 819.1,324.7 761.3,312.3 703.6,304.0 645.8,306.6 588.0,297.1 530.2,300.4 472.4,307.1 414.7,228.4 356.9,234.1 299.1,231.7 241.3,231.5 183.6,236.1 125.8,223.2 68.0,231.7" fill="#807dba" fill-opacity="0.9" stroke="#fff" stroke-width="0.4"><title>minimal — legalizeResourceTypes</title></polygon>
<polygon points="68.0,227.4 125.8,218.8 183.6,231.7 241.3,227.1 299.1,227.4 356.9,229.7 414.7,224.0 472.4,305.3 530.2,298.9 588.0,295.3 645.8,305.1 703.6,302.5 761.3,311.0 819.1,323.4 876.9,324.7 934.7,299.1 992.4,300.2 1050.2,326.0 1108.0,327.0 1108.0,327.8 1050.2,326.8 992.4,300.9 934.7,299.9 876.9,325.5 819.1,324.2 761.3,311.8 703.6,303.5 645.8,306.1 588.0,296.5 530.2,299.9 472.4,306.6 414.7,226.6 356.9,232.3 299.1,229.9 241.3,229.7 183.6,234.3 125.8,221.4 68.0,229.9" fill="#6a51a3" fill-opacity="0.9" stroke="#fff" stroke-width="0.4"><title>minimal — legalizeExistentialTypeLayout</title></polygon>
<polygon points="68.0,226.8 125.8,218.3 183.6,231.2 241.3,226.6 299.1,226.8 356.9,229.2 414.7,223.5 472.4,305.3 530.2,298.9 588.0,295.3 645.8,305.1 703.6,302.5 761.3,311.0 819.1,323.4 876.9,324.7 934.7,299.1 992.4,300.2 1050.2,326.0 1108.0,327.0 1108.0,327.0 1050.2,326.0 992.4,300.2 934.7,299.1 876.9,324.7 819.1,323.4 761.3,311.0 703.6,302.5 645.8,305.1 588.0,295.3 530.2,298.9 472.4,305.3 414.7,224.0 356.9,229.7 299.1,227.4 241.3,227.1 183.6,231.7 125.8,218.8 68.0,227.4" fill="#bcbddc" fill-opacity="0.9" stroke="#fff" stroke-width="0.4"><title>minimal — performMandatoryEarlyInlining</title></polygon>
<polygon points="68.0,226.6 125.8,218.1 183.6,231.0 241.3,226.3 299.1,226.6 356.9,228.9 414.7,223.2 472.4,305.3 530.2,298.9 588.0,295.3 645.8,305.1 703.6,302.5 761.3,311.0 819.1,323.4 876.9,324.7 934.7,299.1 992.4,300.2 1050.2,326.0 1108.0,327.0 1108.0,327.0 1050.2,326.0 992.4,300.2 934.7,299.1 876.9,324.7 819.1,323.4 761.3,311.0 703.6,302.5 645.8,305.1 588.0,295.3 530.2,298.9 472.4,305.3 414.7,223.5 356.9,229.2 299.1,226.8 241.3,226.6 183.6,231.2 125.8,218.3 68.0,226.8" fill="#dadaeb" fill-opacity="0.9" stroke="#fff" stroke-width="0.4"><title>minimal — performForceInlining</title></polygon>
<polygon points="68.0,187.6 125.8,179.1 183.6,192.8 241.3,187.6 299.1,187.9 356.9,190.2 414.7,183.7 472.4,289.1 530.2,282.3 588.0,279.2 645.8,289.1 703.6,286.5 761.3,297.1 819.1,312.3 876.9,313.1 934.7,287.5 992.4,288.8 1050.2,315.7 1108.0,316.4 1108.0,327.0 1050.2,326.0 992.4,300.2 934.7,299.1 876.9,324.7 819.1,323.4 761.3,311.0 703.6,302.5 645.8,305.1 588.0,295.3 530.2,298.9 472.4,305.3 414.7,223.2 356.9,228.9 299.1,226.6 241.3,226.3 183.6,231.0 125.8,218.1 68.0,226.6" fill="#4a1486" fill-opacity="0.9" stroke="#fff" stroke-width="0.4"><title>minimal — linkAndOptimizeIR (self)</title></polygon>
<polygon points="68.0,128.2 125.8,118.7 183.6,131.3 241.3,128.2 299.1,128.0 356.9,133.1 414.7,118.7 472.4,233.0 530.2,219.6 588.0,223.7 645.8,232.3 703.6,231.5 761.3,250.1 819.1,262.2 876.9,264.5 934.7,241.6 992.4,243.1 1050.2,260.7 1108.0,267.4 1108.0,316.4 1050.2,315.7 992.4,288.8 934.7,287.5 876.9,313.1 819.1,312.3 761.3,297.1 703.6,286.5 645.8,289.1 588.0,279.2 530.2,282.3 472.4,289.1 414.7,183.7 356.9,190.2 299.1,187.9 241.3,187.6 183.6,192.8 125.8,179.1 68.0,187.6" fill="#e6550d" fill-opacity="0.9" stroke="#fff" stroke-width="0.4"><title>minimal — generateOutput (self)</title></polygon>
<polygon points="68.0,122.3 125.8,113.0 183.6,124.6 241.3,122.8 299.1,122.3 356.9,121.2 414.7,108.6 472.4,227.6 530.2,211.6 588.0,217.8 645.8,225.8 703.6,225.0 761.3,244.9 819.1,260.9 876.9,258.1 934.7,241.6 992.4,232.8 1050.2,258.3 1108.0,267.4 1108.0,267.4 1050.2,260.7 992.4,243.1 934.7,241.6 876.9,264.5 819.1,262.2 761.3,250.1 703.6,231.5 645.8,232.3 588.0,223.7 530.2,219.6 472.4,233.0 414.7,118.7 356.9,133.1 299.1,128.0 241.3,128.2 183.6,131.3 125.8,118.7 68.0,128.2" fill="#969696" fill-opacity="0.9" stroke="#fff" stroke-width="0.4"><title>minimal — compileInner (self)</title></polygon>
<text x="12" y="578" fill="#666" font-weight="600">phase buckets</text>
<rect x="12" y="586" width="12" height="12" fill="#c7e9c0"/>
<text x="28" y="596" fill="#222">parseTranslationUnit</text>
<rect x="289" y="586" width="12" height="12" fill="#41ab5d"/>
<text x="305" y="596" fill="#222">SemanticChecking</text>
<rect x="566" y="586" width="12" height="12" fill="#006d2c"/>
<text x="582" y="596" fill="#222">generateIR</text>
<rect x="843" y="586" width="12" height="12" fill="#74c476"/>
<text x="859" y="596" fill="#222">frontEndExecute (self)</text>
<rect x="12" y="604" width="12" height="12" fill="#6baed6"/>
<text x="28" y="614" fill="#222">specializeModule</text>
<rect x="289" y="604" width="12" height="12" fill="#2171b5"/>
<text x="305" y="614" fill="#222">simplifyIR</text>
<rect x="566" y="604" width="12" height="12" fill="#08306b"/>
<text x="582" y="614" fill="#222">linkIR</text>
<rect x="843" y="604" width="12" height="12" fill="#9e9ac8"/>
<text x="859" y="614" fill="#222">unrollLoopsInModule</text>
<rect x="12" y="622" width="12" height="12" fill="#807dba"/>
<text x="28" y="632" fill="#222">legalizeResourceTypes</text>
<rect x="289" y="622" width="12" height="12" fill="#6a51a3"/>
<text x="305" y="632" fill="#222">legalizeExistentialTypeLayout</text>
<rect x="566" y="622" width="12" height="12" fill="#bcbddc"/>
<text x="582" y="632" fill="#222">performMandatoryEarlyInlining</text>
<rect x="843" y="622" width="12" height="12" fill="#dadaeb"/>
<text x="859" y="632" fill="#222">performForceInlining</text>
<rect x="12" y="640" width="12" height="12" fill="#4a1486"/>
<text x="28" y="650" fill="#222">linkAndOptimizeIR (self)</text>
<rect x="289" y="640" width="12" height="12" fill="#fd8d3c"/>
<text x="305" y="650" fill="#222">emitEntryPointsSourceFromIR</text>
<rect x="566" y="640" width="12" height="12" fill="#e6550d"/>
<text x="582" y="650" fill="#222">generateOutput (self)</text>
<rect x="843" y="640" width="12" height="12" fill="#969696"/>
<text x="859" y="650" fill="#222">compileInner (self)</text>
</svg>