<svg xmlns="http://www.w3.org/2000/svg" xmlns:xlink="http://www.w3.org/1999/xlink" width="1132" height="680" viewBox="0 0 1132 680" preserveAspectRatio="xMidYMid meet" font-family="sans-serif" font-size="13">
<rect width="1132" height="680" fill="white"/>
<text x="12" y="30" font-size="20" font-weight="bold">minimal — full phase breakdown across releases (median ms)</text>
<text x="68" y="60" font-size="15" font-weight="600" fill="#1a1a1a">minimal<tspan fill="#888" font-weight="400" text-decoration="none">  1.85×</tspan></text>
<line x1="68.0" y1="516.0" x2="1108.0" y2="516.0" stroke="#eee"/>
<text x="64.0" y="519.0" text-anchor="end" fill="#999">0.0</text>
<line x1="68.0" y1="296.0" x2="1108.0" y2="296.0" stroke="#eee"/>
<text x="64.0" y="299.0" text-anchor="end" fill="#999">13</text>
<line x1="68.0" y1="76.0" x2="1108.0" y2="76.0" stroke="#eee"/>
<text x="64.0" y="79.0" text-anchor="end" fill="#999">27</text>
<line x1="68.0" y1="76.0" x2="68.0" y2="516.0" stroke="#333"/>
<line x1="68.0" y1="516.0" x2="1108.0" y2="516.0" stroke="#333"/>
<line x1="68.0" y1="516.0" x2="68.0" y2="519.0" stroke="#999"/>
<text x="68.0" y="531.0" text-anchor="end" fill="#666" transform="rotate(-50 68.0 531.0)">26.1</text>
<line x1="183.6" y1="516.0" x2="183.6" y2="519.0" stroke="#999"/>
<text x="183.6" y="531.0" text-anchor="end" fill="#666" transform="rotate(-50 183.6 531.0)">26.2</text>
<line x1="299.1" y1="516.0" x2="299.1" y2="519.0" stroke="#999"/>
<text x="299.1" y="531.0" text-anchor="end" fill="#666" transform="rotate(-50 299.1 531.0)">26.3</text>
<line x1="414.7" y1="516.0" x2="414.7" y2="519.0" stroke="#999"/>
<text x="414.7" y="531.0" text-anchor="end" fill="#666" transform="rotate(-50 414.7 531.0)">26.4</text>
<line x1="530.2" y1="516.0" x2="530.2" y2="519.0" stroke="#999"/>
<text x="530.2" y="531.0" text-anchor="end" fill="#666" transform="rotate(-50 530.2 531.0)">26.5</text>
<line x1="645.8" y1="516.0" x2="645.8" y2="519.0" stroke="#999"/>
<text x="645.8" y="531.0" text-anchor="end" fill="#666" transform="rotate(-50 645.8 531.0)">26.7</text>
<line x1="761.3" y1="516.0" x2="761.3" y2="519.0" stroke="#999"/>
<text x="761.3" y="531.0" text-anchor="end" fill="#666" transform="rotate(-50 761.3 531.0)">26.8</text>
<line x1="876.9" y1="516.0" x2="876.9" y2="519.0" stroke="#999"/>
<text x="876.9" y="531.0" text-anchor="end" fill="#666" transform="rotate(-50 876.9 531.0)">26.9</text>
<line x1="992.4" y1="516.0" x2="992.4" y2="519.0" stroke="#999"/>
<text x="992.4" y="531.0" text-anchor="end" fill="#666" transform="rotate(-50 992.4 531.0)">26.10</text>
<line x1="1108.0" y1="516.0" x2="1108.0" y2="519.0" stroke="#999"/>
<text x="1108.0" y="531.0" text-anchor="end" fill="#666" transform="rotate(-50 1108.0 531.0)">26.11</text>
<polygon points="68.0,514.0 183.6,514.0 299.1,514.0 414.7,514.0 530.2,513.8 645.8,513.7 761.3,513.7 876.9,513.8 992.4,513.7 1108.0,513.7 1108.0,516.0 992.4,516.0 876.9,516.0 761.3,516.0 645.8,516.0 530.2,516.0 414.7,516.0 299.1,516.0 183.6,516.0 68.0,516.0" fill="#c7e9c0" fill-opacity="0.9" stroke="#fff" stroke-width="0.4"><title>minimal — parseTranslationUnit</title></polygon>
<polygon points="68.0,454.6 183.6,442.6 299.1,441.3 414.7,439.5 530.2,436.8 645.8,402.6 761.3,404.6 876.9,404.6 992.4,401.4 1108.0,410.2 1108.0,513.7 992.4,513.7 876.9,513.8 761.3,513.7 645.8,513.7 530.2,513.8 414.7,514.0 299.1,514.0 183.6,514.0 68.0,514.0" fill="#41ab5d" fill-opacity="0.9" stroke="#fff" stroke-width="0.4"><title>minimal — SemanticChecking</title></polygon>
<polygon points="68.0,448.9 183.6,436.6 299.1,436.0 414.7,433.3 530.2,431.0 645.8,396.3 761.3,398.8 876.9,398.8 992.4,395.8 1108.0,394.8 1108.0,410.2 992.4,401.4 876.9,404.6 761.3,404.6 645.8,402.6 530.2,436.8 414.7,439.5 299.1,441.3 183.6,442.6 68.0,454.6" fill="#006d2c" fill-opacity="0.9" stroke="#fff" stroke-width="0.4"><title>minimal — generateIR</title></polygon>
<polygon points="68.0,443.6 183.6,431.7 299.1,430.3 414.7,427.7 530.2,424.5 645.8,391.5 761.3,393.8 876.9,393.6 992.4,390.3 1108.0,388.8 1108.0,394.8 992.4,395.8 876.9,398.8 761.3,398.8 645.8,396.3 530.2,431.0 414.7,433.3 299.1,436.0 183.6,436.6 68.0,448.9" fill="#74c476" fill-opacity="0.9" stroke="#fff" stroke-width="0.4"><title>minimal — frontEndExecute (self)</title></polygon>
<polygon points="68.0,442.5 183.6,430.5 299.1,429.2 414.7,426.5 530.2,423.2 645.8,372.7 761.3,375.7 876.9,375.2 992.4,372.1 1108.0,372.6 1108.0,388.8 992.4,390.3 876.9,393.6 761.3,393.8 645.8,391.5 530.2,424.5 414.7,427.7 299.1,430.3 183.6,431.7 68.0,443.6" fill="#6baed6" fill-opacity="0.9" stroke="#fff" stroke-width="0.4"><title>minimal — specializeModule</title></polygon>
<polygon points="68.0,441.5 183.6,429.5 299.1,428.2 414.7,425.5 530.2,422.0 645.8,363.9 761.3,366.9 876.9,366.4 992.4,363.3 1108.0,364.6 1108.0,372.6 992.4,372.1 876.9,375.2 761.3,375.7 645.8,372.7 530.2,423.2 414.7,426.5 299.1,429.2 183.6,430.5 68.0,442.5" fill="#2171b5" fill-opacity="0.9" stroke="#fff" stroke-width="0.4"><title>minimal — simplifyIR</title></polygon>
<polygon points="68.0,435.1 183.6,423.2 299.1,421.9 414.7,419.0 530.2,415.2 645.8,178.5 761.3,185.8 876.9,183.8 992.4,178.7 1108.0,357.6 1108.0,364.6 992.4,363.3 876.9,366.4 761.3,366.9 645.8,363.9 530.2,422.0 414.7,425.5 299.1,428.2 183.6,429.5 68.0,441.5" fill="#08306b" fill-opacity="0.9" stroke="#fff" stroke-width="0.4"><title>minimal — linkIR</title></polygon>
<polygon points="68.0,435.1 183.6,423.2 299.1,421.9 414.7,419.0 530.2,415.2 645.8,178.3 761.3,185.6 876.9,183.6 992.4,178.5 1108.0,357.5 1108.0,357.6 992.4,178.7 876.9,183.8 761.3,185.8 645.8,178.5 530.2,415.2 414.7,419.0 299.1,421.9 183.6,423.2 68.0,435.1" fill="#9e9ac8" fill-opacity="0.9" stroke="#fff" stroke-width="0.4"><title>minimal — unrollLoopsInModule</title></polygon>
<polygon points="68.0,434.8 183.6,422.9 299.1,421.5 414.7,418.7 530.2,414.9 645.8,177.2 761.3,184.6 876.9,182.6 992.4,177.5 1108.0,356.5 1108.0,357.5 992.4,178.5 876.9,183.6 761.3,185.6 645.8,178.3 530.2,415.2 414.7,419.0 299.1,421.9 183.6,423.2 68.0,435.1" fill="#807dba" fill-opacity="0.9" stroke="#fff" stroke-width="0.4"><title>minimal — legalizeResourceTypes</title></polygon>
<polygon points="68.0,434.2 183.6,422.2 299.1,420.9 414.7,418.0 530.2,414.2 645.8,175.7 761.3,183.1 876.9,181.3 992.4,176.2 1108.0,355.0 1108.0,356.5 992.4,177.5 876.9,182.6 761.3,184.6 645.8,177.2 530.2,414.9 414.7,418.7 299.1,421.5 183.6,422.9 68.0,434.8" fill="#6a51a3" fill-opacity="0.9" stroke="#fff" stroke-width="0.4"><title>minimal — legalizeExistentialTypeLayout</title></polygon>
<polygon points="68.0,434.2 183.6,422.2 299.1,420.9 414.7,418.0 530.2,414.2 645.8,175.3 761.3,182.8 876.9,181.0 992.4,175.8 1108.0,354.6 1108.0,355.0 992.4,176.2 876.9,181.3 761.3,183.1 645.8,175.7 530.2,414.2 414.7,418.0 299.1,420.9 183.6,422.2 68.0,434.2" fill="#bcbddc" fill-opacity="0.9" stroke="#fff" stroke-width="0.4"><title>minimal — performMandatoryEarlyInlining</title></polygon>
<polygon points="68.0,434.2 183.6,422.2 299.1,420.9 414.7,418.0 530.2,414.2 645.8,175.2 761.3,182.6 876.9,180.8 992.4,175.7 1108.0,354.5 1108.0,354.6 992.4,175.8 876.9,181.0 761.3,182.8 645.8,175.3 530.2,414.2 414.7,418.0 299.1,420.9 183.6,422.2 68.0,434.2" fill="#dadaeb" fill-opacity="0.9" stroke="#fff" stroke-width="0.4"><title>minimal — performForceInlining</title></polygon>
<polygon points="68.0,426.2 183.6,413.6 299.1,412.2 414.7,409.1 530.2,405.4 645.8,142.1 761.3,148.8 876.9,147.6 992.4,142.6 1108.0,330.7 1108.0,354.5 992.4,175.7 876.9,180.8 761.3,182.6 645.8,175.2 530.2,414.2 414.7,418.0 299.1,420.9 183.6,422.2 68.0,434.2" fill="#4a1486" fill-opacity="0.9" stroke="#fff" stroke-width="0.4"><title>minimal — linkAndOptimizeIR (self)</title></polygon>
<polygon points="68.0,399.8 183.6,382.9 299.1,381.5 414.7,377.9 530.2,375.1 645.8,111.1 761.3,116.9 876.9,116.7 992.4,110.8 1108.0,298.7 1108.0,330.7 992.4,142.6 876.9,147.6 761.3,148.8 645.8,142.1 530.2,405.4 414.7,409.1 299.1,412.2 183.6,413.6 68.0,426.2" fill="#e6550d" fill-opacity="0.9" stroke="#fff" stroke-width="0.4"><title>minimal — generateOutput (self)</title></polygon>
<polygon points="68.0,396.8 183.6,380.4 299.1,378.5 414.7,376.9 530.2,369.9 645.8,108.6 761.3,113.2 876.9,114.9 992.4,108.6 1108.0,295.7 1108.0,298.7 992.4,110.8 876.9,116.7 761.3,116.9 645.8,111.1 530.2,375.1 414.7,377.9 299.1,381.5 183.6,382.9 68.0,399.8" fill="#969696" fill-opacity="0.9" stroke="#fff" stroke-width="0.4"><title>minimal — compileInner (self)</title></polygon>
<text x="12" y="578" fill="#666" font-weight="600">phase buckets</text>
<rect x="12" y="586" width="12" height="12" fill="#c7e9c0"/>
<text x="28" y="596" fill="#222">parseTranslationUnit</text>
<rect x="289" y="586" width="12" height="12" fill="#41ab5d"/>
<text x="305" y="596" fill="#222">SemanticChecking</text>
<rect x="566" y="586" width="12" height="12" fill="#006d2c"/>
<text x="582" y="596" fill="#222">generateIR</text>
<rect x="843" y="586" width="12" height="12" fill="#74c476"/>
<text x="859" y="596" fill="#222">frontEndExecute (self)</text>
<rect x="12" y="604" width="12" height="12" fill="#6baed6"/>
<text x="28" y="614" fill="#222">specializeModule</text>
<rect x="289" y="604" width="12" height="12" fill="#2171b5"/>
<text x="305" y="614" fill="#222">simplifyIR</text>
<rect x="566" y="604" width="12" height="12" fill="#08306b"/>
<text x="582" y="614" fill="#222">linkIR</text>
<rect x="843" y="604" width="12" height="12" fill="#9e9ac8"/>
<text x="859" y="614" fill="#222">unrollLoopsInModule</text>
<rect x="12" y="622" width="12" height="12" fill="#807dba"/>
<text x="28" y="632" fill="#222">legalizeResourceTypes</text>
<rect x="289" y="622" width="12" height="12" fill="#6a51a3"/>
<text x="305" y="632" fill="#222">legalizeExistentialTypeLayout</text>
<rect x="566" y="622" width="12" height="12" fill="#bcbddc"/>
<text x="582" y="632" fill="#222">performMandatoryEarlyInlining</text>
<rect x="843" y="622" width="12" height="12" fill="#dadaeb"/>
<text x="859" y="632" fill="#222">performForceInlining</text>
<rect x="12" y="640" width="12" height="12" fill="#4a1486"/>
<text x="28" y="650" fill="#222">linkAndOptimizeIR (self)</text>
<rect x="289" y="640" width="12" height="12" fill="#fd8d3c"/>
<text x="305" y="650" fill="#222">emitEntryPointsSourceFromIR</text>
<rect x="566" y="640" width="12" height="12" fill="#e6550d"/>
<text x="582" y="650" fill="#222">generateOutput (self)</text>
<rect x="843" y="640" width="12" height="12" fill="#969696"/>
<text x="859" y="650" fill="#222">compileInner (self)</text>
</svg>