<svg xmlns="http://www.w3.org/2000/svg" xmlns:xlink="http://www.w3.org/1999/xlink" width="1132" height="680" viewBox="0 0 1132 680" preserveAspectRatio="xMidYMid meet" font-family="sans-serif" font-size="13">
<rect width="1132" height="680" fill="white"/>
<text x="12" y="30" font-size="20" font-weight="bold">module_link — Daily tip-of-tree (last 30 days) (median ms)</text>
<text x="68" y="60" font-size="15" font-weight="600" fill="#1a1a1a">module_link<tspan fill="#888" font-weight="400" text-decoration="none">  0.83×</tspan></text>
<line x1="68.0" y1="516.0" x2="1108.0" y2="516.0" stroke="#eee"/>
<text x="64.0" y="519.0" text-anchor="end" fill="#999">0.0</text>
<line x1="68.0" y1="296.0" x2="1108.0" y2="296.0" stroke="#eee"/>
<text x="64.0" y="299.0" text-anchor="end" fill="#999">64</text>
<line x1="68.0" y1="76.0" x2="1108.0" y2="76.0" stroke="#eee"/>
<text x="64.0" y="79.0" text-anchor="end" fill="#999">128</text>
<line x1="68.0" y1="76.0" x2="68.0" y2="516.0" stroke="#333"/>
<line x1="68.0" y1="516.0" x2="1108.0" y2="516.0" stroke="#333"/>
<line x1="68.0" y1="516.0" x2="68.0" y2="519.0" stroke="#999"/>
<text x="68.0" y="531.0" text-anchor="end" fill="#e8731a" transform="rotate(-50 68.0 531.0)">06-25</text>
<line x1="115.3" y1="516.0" x2="115.3" y2="519.0" stroke="#999"/>
<text x="115.3" y="531.0" text-anchor="end" fill="#e8731a" transform="rotate(-50 115.3 531.0)">06-26</text>
<line x1="162.5" y1="516.0" x2="162.5" y2="519.0" stroke="#999"/>
<text x="162.5" y="531.0" text-anchor="end" fill="#e8731a" transform="rotate(-50 162.5 531.0)">06-28</text>
<line x1="209.8" y1="516.0" x2="209.8" y2="519.0" stroke="#999"/>
<text x="209.8" y="531.0" text-anchor="end" fill="#e8731a" transform="rotate(-50 209.8 531.0)">07-01</text>
<line x1="257.1" y1="516.0" x2="257.1" y2="519.0" stroke="#999"/>
<text x="257.1" y="531.0" text-anchor="end" fill="#e8731a" transform="rotate(-50 257.1 531.0)">07-02</text>
<line x1="304.4" y1="516.0" x2="304.4" y2="519.0" stroke="#999"/>
<text x="304.4" y="531.0" text-anchor="end" fill="#e8731a" transform="rotate(-50 304.4 531.0)">07-03</text>
<line x1="351.6" y1="516.0" x2="351.6" y2="519.0" stroke="#999"/>
<text x="351.6" y="531.0" text-anchor="end" fill="#e8731a" transform="rotate(-50 351.6 531.0)">07-06</text>
<line x1="398.9" y1="516.0" x2="398.9" y2="519.0" stroke="#999"/>
<text x="398.9" y="531.0" text-anchor="end" fill="#e8731a" transform="rotate(-50 398.9 531.0)">07-07</text>
<line x1="446.2" y1="516.0" x2="446.2" y2="519.0" stroke="#999"/>
<text x="446.2" y="531.0" text-anchor="end" fill="#e8731a" transform="rotate(-50 446.2 531.0)">07-08</text>
<line x1="493.5" y1="516.0" x2="493.5" y2="519.0" stroke="#999"/>
<text x="493.5" y="531.0" text-anchor="end" fill="#e8731a" transform="rotate(-50 493.5 531.0)">07-09</text>
<line x1="540.7" y1="516.0" x2="540.7" y2="519.0" stroke="#999"/>
<text x="540.7" y="531.0" text-anchor="end" fill="#e8731a" transform="rotate(-50 540.7 531.0)">07-10</text>
<line x1="588.0" y1="516.0" x2="588.0" y2="519.0" stroke="#999"/>
<text x="588.0" y="531.0" text-anchor="end" fill="#e8731a" transform="rotate(-50 588.0 531.0)">07-11</text>
<line x1="635.3" y1="516.0" x2="635.3" y2="519.0" stroke="#999"/>
<text x="635.3" y="531.0" text-anchor="end" fill="#e8731a" transform="rotate(-50 635.3 531.0)">07-14</text>
<line x1="682.5" y1="516.0" x2="682.5" y2="519.0" stroke="#999"/>
<text x="682.5" y="531.0" text-anchor="end" fill="#e8731a" transform="rotate(-50 682.5 531.0)">07-15</text>
<line x1="729.8" y1="516.0" x2="729.8" y2="519.0" stroke="#999"/>
<text x="729.8" y="531.0" text-anchor="end" fill="#e8731a" transform="rotate(-50 729.8 531.0)">07-15</text>
<line x1="777.1" y1="516.0" x2="777.1" y2="519.0" stroke="#999"/>
<text x="777.1" y="531.0" text-anchor="end" fill="#e8731a" transform="rotate(-50 777.1 531.0)">07-16</text>
<line x1="824.4" y1="516.0" x2="824.4" y2="519.0" stroke="#999"/>
<text x="824.4" y="531.0" text-anchor="end" fill="#e8731a" transform="rotate(-50 824.4 531.0)">07-17</text>
<line x1="871.6" y1="516.0" x2="871.6" y2="519.0" stroke="#999"/>
<text x="871.6" y="531.0" text-anchor="end" fill="#e8731a" transform="rotate(-50 871.6 531.0)">07-18</text>
<line x1="918.9" y1="516.0" x2="918.9" y2="519.0" stroke="#999"/>
<text x="918.9" y="531.0" text-anchor="end" fill="#e8731a" transform="rotate(-50 918.9 531.0)">07-19</text>
<line x1="966.2" y1="516.0" x2="966.2" y2="519.0" stroke="#999"/>
<text x="966.2" y="531.0" text-anchor="end" fill="#e8731a" transform="rotate(-50 966.2 531.0)">07-20</text>
<line x1="1013.5" y1="516.0" x2="1013.5" y2="519.0" stroke="#999"/>
<text x="1013.5" y="531.0" text-anchor="end" fill="#e8731a" transform="rotate(-50 1013.5 531.0)">07-21</text>
<line x1="1060.7" y1="516.0" x2="1060.7" y2="519.0" stroke="#999"/>
<text x="1060.7" y="531.0" text-anchor="end" fill="#e8731a" transform="rotate(-50 1060.7 531.0)">07-22</text>
<line x1="1108.0" y1="516.0" x2="1108.0" y2="519.0" stroke="#999"/>
<text x="1108.0" y="531.0" text-anchor="end" fill="#e8731a" transform="rotate(-50 1108.0 531.0)">07-23</text>
<polygon points="68.0,514.7 115.3,514.7 162.5,514.7 209.8,514.7 257.1,514.6 304.4,514.7 351.6,514.6 398.9,514.8 446.2,514.8 493.5,514.7 540.7,514.7 588.0,514.7 635.3,514.9 682.5,514.8 729.8,514.9 777.1,514.9 824.4,514.8 871.6,515.0 918.9,515.0 966.2,515.1 1013.5,515.0 1060.7,515.0 1108.0,515.0 1108.0,516.0 1060.7,516.0 1013.5,516.0 966.2,516.0 918.9,516.0 871.6,516.0 824.4,516.0 777.1,516.0 729.8,516.0 682.5,516.0 635.3,516.0 588.0,516.0 540.7,516.0 493.5,516.0 446.2,516.0 398.9,516.0 351.6,516.0 304.4,516.0 257.1,516.0 209.8,516.0 162.5,516.0 115.3,516.0 68.0,516.0" fill="#c7e9c0" fill-opacity="0.9" stroke="#fff" stroke-width="0.4"><title>module_link — parseTranslationUnit</title></polygon>
<polygon points="68.0,291.7 115.3,295.3 162.5,299.5 209.8,297.8 257.1,289.2 304.4,253.4 351.6,255.5 398.9,268.3 446.2,259.9 493.5,258.0 540.7,271.3 588.0,264.1 635.3,265.2 682.5,272.1 729.8,288.5 777.1,284.0 824.4,281.9 871.6,311.0 918.9,311.1 966.2,316.9 1013.5,312.7 1060.7,312.7 1108.0,299.8 1108.0,515.0 1060.7,515.0 1013.5,515.0 966.2,515.1 918.9,515.0 871.6,515.0 824.4,514.8 777.1,514.9 729.8,514.9 682.5,514.8 635.3,514.9 588.0,514.7 540.7,514.7 493.5,514.7 446.2,514.8 398.9,514.8 351.6,514.6 304.4,514.7 257.1,514.6 209.8,514.7 162.5,514.7 115.3,514.7 68.0,514.7" fill="#41ab5d" fill-opacity="0.9" stroke="#fff" stroke-width="0.4"><title>module_link — SemanticChecking</title></polygon>
<polygon points="68.0,278.0 115.3,281.5 162.5,285.7 209.8,284.0 257.1,275.0 304.4,239.4 351.6,241.3 398.9,254.1 446.2,245.0 493.5,243.7 540.7,257.1 588.0,250.6 635.3,251.9 682.5,259.2 729.8,275.2 777.1,270.6 824.4,269.3 871.6,300.9 918.9,300.3 966.2,306.3 1013.5,301.5 1060.7,302.6 1108.0,288.9 1108.0,299.8 1060.7,312.7 1013.5,312.7 966.2,316.9 918.9,311.1 871.6,311.0 824.4,281.9 777.1,284.0 729.8,288.5 682.5,272.1 635.3,265.2 588.0,264.1 540.7,271.3 493.5,258.0 446.2,259.9 398.9,268.3 351.6,255.5 304.4,253.4 257.1,289.2 209.8,297.8 162.5,299.5 115.3,295.3 68.0,291.7" fill="#006d2c" fill-opacity="0.9" stroke="#fff" stroke-width="0.4"><title>module_link — generateIR</title></polygon>
<polygon points="68.0,276.6 115.3,280.7 162.5,284.3 209.8,282.7 257.1,273.9 304.4,238.6 351.6,240.8 398.9,252.2 446.2,243.4 493.5,242.2 540.7,255.1 588.0,249.7 635.3,250.1 682.5,257.9 729.8,275.2 777.1,268.6 824.4,269.1 871.6,300.4 918.9,299.1 966.2,304.8 1013.5,301.1 1060.7,300.9 1108.0,288.4 1108.0,288.9 1060.7,302.6 1013.5,301.5 966.2,306.3 918.9,300.3 871.6,300.9 824.4,269.3 777.1,270.6 729.8,275.2 682.5,259.2 635.3,251.9 588.0,250.6 540.7,257.1 493.5,243.7 446.2,245.0 398.9,254.1 351.6,241.3 304.4,239.4 257.1,275.0 209.8,284.0 162.5,285.7 115.3,281.5 68.0,278.0" fill="#74c476" fill-opacity="0.9" stroke="#fff" stroke-width="0.4"><title>module_link — frontEndExecute (self)</title></polygon>
<polygon points="68.0,261.7 115.3,265.9 162.5,269.3 209.8,267.9 257.1,259.2 304.4,224.1 351.6,226.3 398.9,239.1 446.2,230.3 493.5,228.8 540.7,241.8 588.0,236.8 635.3,236.9 682.5,246.2 729.8,263.5 777.1,256.8 824.4,257.3 871.6,289.6 918.9,288.0 966.2,294.2 1013.5,290.1 1060.7,289.9 1108.0,277.4 1108.0,288.4 1060.7,300.9 1013.5,301.1 966.2,304.8 918.9,299.1 871.6,300.4 824.4,269.1 777.1,268.6 729.8,275.2 682.5,257.9 635.3,250.1 588.0,249.7 540.7,255.1 493.5,242.2 446.2,243.4 398.9,252.2 351.6,240.8 304.4,238.6 257.1,273.9 209.8,282.7 162.5,284.3 115.3,280.7 68.0,276.6" fill="#6baed6" fill-opacity="0.9" stroke="#fff" stroke-width="0.4"><title>module_link — specializeModule</title></polygon>
<polygon points="68.0,240.6 115.3,244.6 162.5,248.0 209.8,246.7 257.1,241.2 304.4,206.3 351.6,208.4 398.9,221.9 446.2,213.0 493.5,211.3 540.7,227.7 588.0,222.7 635.3,223.0 682.5,234.3 729.8,251.5 777.1,244.9 824.4,245.3 871.6,279.2 918.9,277.4 966.2,283.7 1013.5,279.1 1060.7,279.4 1108.0,267.2 1108.0,277.4 1060.7,289.9 1013.5,290.1 966.2,294.2 918.9,288.0 871.6,289.6 824.4,257.3 777.1,256.8 729.8,263.5 682.5,246.2 635.3,236.9 588.0,236.8 540.7,241.8 493.5,228.8 446.2,230.3 398.9,239.1 351.6,226.3 304.4,224.1 257.1,259.2 209.8,267.9 162.5,269.3 115.3,265.9 68.0,261.7" fill="#2171b5" fill-opacity="0.9" stroke="#fff" stroke-width="0.4"><title>module_link — simplifyIR</title></polygon>
<polygon points="68.0,204.9 115.3,209.7 162.5,212.9 209.8,211.1 257.1,204.6 304.4,171.5 351.6,172.1 398.9,187.5 446.2,177.2 493.5,176.5 540.7,192.8 588.0,188.7 635.3,186.6 682.5,205.7 729.8,222.7 777.1,215.8 824.4,215.5 871.6,257.1 918.9,257.5 966.2,262.1 1013.5,258.4 1060.7,257.1 1108.0,246.8 1108.0,267.2 1060.7,279.4 1013.5,279.1 966.2,283.7 918.9,277.4 871.6,279.2 824.4,245.3 777.1,244.9 729.8,251.5 682.5,234.3 635.3,223.0 588.0,222.7 540.7,227.7 493.5,211.3 446.2,213.0 398.9,221.9 351.6,208.4 304.4,206.3 257.1,241.2 209.8,246.7 162.5,248.0 115.3,244.6 68.0,240.6" fill="#08306b" fill-opacity="0.9" stroke="#fff" stroke-width="0.4"><title>module_link — linkIR</title></polygon>
<polygon points="68.0,204.8 115.3,209.6 162.5,212.8 209.8,211.0 257.1,204.5 304.4,171.4 351.6,172.0 398.9,187.3 446.2,177.0 493.5,176.4 540.7,192.6 588.0,188.5 635.3,186.5 682.5,205.6 729.8,222.6 777.1,215.7 824.4,215.4 871.6,257.0 918.9,257.4 966.2,262.0 1013.5,258.3 1060.7,257.0 1108.0,246.7 1108.0,246.8 1060.7,257.1 1013.5,258.4 966.2,262.1 918.9,257.5 871.6,257.1 824.4,215.5 777.1,215.8 729.8,222.7 682.5,205.7 635.3,186.6 588.0,188.7 540.7,192.8 493.5,176.5 446.2,177.2 398.9,187.5 351.6,172.1 304.4,171.5 257.1,204.6 209.8,211.1 162.5,212.9 115.3,209.7 68.0,204.9" fill="#9e9ac8" fill-opacity="0.9" stroke="#fff" stroke-width="0.4"><title>module_link — unrollLoopsInModule</title></polygon>
<polygon points="68.0,200.9 115.3,205.6 162.5,208.8 209.8,207.1 257.1,200.5 304.4,167.4 351.6,168.1 398.9,183.7 446.2,173.5 493.5,172.8 540.7,191.6 588.0,187.4 635.3,185.5 682.5,204.4 729.8,221.6 777.1,214.6 824.4,214.2 871.6,255.9 918.9,256.3 966.2,260.9 1013.5,257.1 1060.7,255.9 1108.0,245.6 1108.0,246.7 1060.7,257.0 1013.5,258.3 966.2,262.0 918.9,257.4 871.6,257.0 824.4,215.4 777.1,215.7 729.8,222.6 682.5,205.6 635.3,186.5 588.0,188.5 540.7,192.6 493.5,176.4 446.2,177.0 398.9,187.3 351.6,172.0 304.4,171.4 257.1,204.5 209.8,211.0 162.5,212.8 115.3,209.6 68.0,204.8" fill="#807dba" fill-opacity="0.9" stroke="#fff" stroke-width="0.4"><title>module_link — legalizeResourceTypes</title></polygon>
<polygon points="68.0,196.8 115.3,201.5 162.5,204.6 209.8,203.0 257.1,196.4 304.4,163.3 351.6,164.0 398.9,180.0 446.2,169.9 493.5,169.1 540.7,190.6 588.0,186.3 635.3,184.4 682.5,203.3 729.8,220.4 777.1,213.5 824.4,213.0 871.6,254.7 918.9,255.1 966.2,259.7 1013.5,255.9 1060.7,254.7 1108.0,244.4 1108.0,245.6 1060.7,255.9 1013.5,257.1 966.2,260.9 918.9,256.3 871.6,255.9 824.4,214.2 777.1,214.6 729.8,221.6 682.5,204.4 635.3,185.5 588.0,187.4 540.7,191.6 493.5,172.8 446.2,173.5 398.9,183.7 351.6,168.1 304.4,167.4 257.1,200.5 209.8,207.1 162.5,208.8 115.3,205.6 68.0,200.9" fill="#6a51a3" fill-opacity="0.9" stroke="#fff" stroke-width="0.4"><title>module_link — legalizeExistentialTypeLayout</title></polygon>
<polygon points="68.0,196.5 115.3,201.3 162.5,204.4 209.8,202.7 257.1,196.2 304.4,163.1 351.6,163.8 398.9,179.7 446.2,169.5 493.5,168.8 540.7,190.2 588.0,186.0 635.3,184.0 682.5,203.0 729.8,220.1 777.1,213.2 824.4,212.7 871.6,254.4 918.9,254.8 966.2,259.5 1013.5,255.7 1060.7,254.4 1108.0,244.2 1108.0,244.4 1060.7,254.7 1013.5,255.9 966.2,259.7 918.9,255.1 871.6,254.7 824.4,213.0 777.1,213.5 729.8,220.4 682.5,203.3 635.3,184.4 588.0,186.3 540.7,190.6 493.5,169.1 446.2,169.9 398.9,180.0 351.6,164.0 304.4,163.3 257.1,196.4 209.8,203.0 162.5,204.6 115.3,201.5 68.0,196.8" fill="#bcbddc" fill-opacity="0.9" stroke="#fff" stroke-width="0.4"><title>module_link — performMandatoryEarlyInlining</title></polygon>
<polygon points="68.0,196.2 115.3,200.9 162.5,204.0 209.8,202.3 257.1,195.8 304.4,162.7 351.6,163.4 398.9,179.3 446.2,169.2 493.5,168.4 540.7,189.8 588.0,185.6 635.3,183.7 682.5,202.6 729.8,219.7 777.1,212.8 824.4,212.3 871.6,254.1 918.9,254.5 966.2,259.2 1013.5,255.4 1060.7,254.1 1108.0,243.9 1108.0,244.2 1060.7,254.4 1013.5,255.7 966.2,259.5 918.9,254.8 871.6,254.4 824.4,212.7 777.1,213.2 729.8,220.1 682.5,203.0 635.3,184.0 588.0,186.0 540.7,190.2 493.5,168.8 446.2,169.5 398.9,179.7 351.6,163.8 304.4,163.1 257.1,196.2 209.8,202.7 162.5,204.4 115.3,201.3 68.0,196.5" fill="#dadaeb" fill-opacity="0.9" stroke="#fff" stroke-width="0.4"><title>module_link — performForceInlining</title></polygon>
<polygon points="68.0,174.6 115.3,178.4 162.5,183.1 209.8,180.9 257.1,172.5 304.4,139.5 351.6,140.3 398.9,160.3 446.2,150.8 493.5,149.3 540.7,174.8 588.0,169.2 635.3,168.5 682.5,190.4 729.8,207.6 777.1,200.4 824.4,199.8 871.6,243.1 918.9,243.4 966.2,248.6 1013.5,244.1 1060.7,243.2 1108.0,231.5 1108.0,243.9 1060.7,254.1 1013.5,255.4 966.2,259.2 918.9,254.5 871.6,254.1 824.4,212.3 777.1,212.8 729.8,219.7 682.5,202.6 635.3,183.7 588.0,185.6 540.7,189.8 493.5,168.4 446.2,169.2 398.9,179.3 351.6,163.4 304.4,162.7 257.1,195.8 209.8,202.3 162.5,204.0 115.3,200.9 68.0,196.2" fill="#4a1486" fill-opacity="0.9" stroke="#fff" stroke-width="0.4"><title>module_link — linkAndOptimizeIR (self)</title></polygon>
<polygon points="68.0,146.8 115.3,149.9 162.5,153.9 209.8,152.7 257.1,144.3 304.4,111.2 351.6,111.0 398.9,133.1 446.2,122.2 493.5,120.8 540.7,149.9 588.0,144.9 635.3,145.4 682.5,166.8 729.8,183.1 777.1,177.4 824.4,175.7 871.6,220.3 918.9,221.3 966.2,226.7 1013.5,221.6 1060.7,220.2 1108.0,209.1 1108.0,231.5 1060.7,243.2 1013.5,244.1 966.2,248.6 918.9,243.4 871.6,243.1 824.4,199.8 777.1,200.4 729.8,207.6 682.5,190.4 635.3,168.5 588.0,169.2 540.7,174.8 493.5,149.3 446.2,150.8 398.9,160.3 351.6,140.3 304.4,139.5 257.1,172.5 209.8,180.9 162.5,183.1 115.3,178.4 68.0,174.6" fill="#e6550d" fill-opacity="0.9" stroke="#fff" stroke-width="0.4"><title>module_link — generateOutput (self)</title></polygon>
<polygon points="68.0,142.9 115.3,149.9 162.5,152.6 209.8,151.4 257.1,142.5 304.4,111.2 351.6,108.6 398.9,132.2 446.2,120.1 493.5,119.6 540.7,149.1 588.0,139.4 635.3,145.4 682.5,165.3 729.8,183.1 777.1,176.3 824.4,170.9 871.6,220.3 918.9,220.9 966.2,224.6 1013.5,221.0 1060.7,219.6 1108.0,207.3 1108.0,209.1 1060.7,220.2 1013.5,221.6 966.2,226.7 918.9,221.3 871.6,220.3 824.4,175.7 777.1,177.4 729.8,183.1 682.5,166.8 635.3,145.4 588.0,144.9 540.7,149.9 493.5,120.8 446.2,122.2 398.9,133.1 351.6,111.0 304.4,111.2 257.1,144.3 209.8,152.7 162.5,153.9 115.3,149.9 68.0,146.8" fill="#969696" fill-opacity="0.9" stroke="#fff" stroke-width="0.4"><title>module_link — compileInner (self)</title></polygon>
<text x="12" y="578" fill="#666" font-weight="600">phase buckets</text>
<rect x="12" y="586" width="12" height="12" fill="#c7e9c0"/>
<text x="28" y="596" fill="#222">parseTranslationUnit</text>
<rect x="289" y="586" width="12" height="12" fill="#41ab5d"/>
<text x="305" y="596" fill="#222">SemanticChecking</text>
<rect x="566" y="586" width="12" height="12" fill="#006d2c"/>
<text x="582" y="596" fill="#222">generateIR</text>
<rect x="843" y="586" width="12" height="12" fill="#74c476"/>
<text x="859" y="596" fill="#222">frontEndExecute (self)</text>
<rect x="12" y="604" width="12" height="12" fill="#6baed6"/>
<text x="28" y="614" fill="#222">specializeModule</text>
<rect x="289" y="604" width="12" height="12" fill="#2171b5"/>
<text x="305" y="614" fill="#222">simplifyIR</text>
<rect x="566" y="604" width="12" height="12" fill="#08306b"/>
<text x="582" y="614" fill="#222">linkIR</text>
<rect x="843" y="604" width="12" height="12" fill="#9e9ac8"/>
<text x="859" y="614" fill="#222">unrollLoopsInModule</text>
<rect x="12" y="622" width="12" height="12" fill="#807dba"/>
<text x="28" y="632" fill="#222">legalizeResourceTypes</text>
<rect x="289" y="622" width="12" height="12" fill="#6a51a3"/>
<text x="305" y="632" fill="#222">legalizeExistentialTypeLayout</text>
<rect x="566" y="622" width="12" height="12" fill="#bcbddc"/>
<text x="582" y="632" fill="#222">performMandatoryEarlyInlining</text>
<rect x="843" y="622" width="12" height="12" fill="#dadaeb"/>
<text x="859" y="632" fill="#222">performForceInlining</text>
<rect x="12" y="640" width="12" height="12" fill="#4a1486"/>
<text x="28" y="650" fill="#222">linkAndOptimizeIR (self)</text>
<rect x="289" y="640" width="12" height="12" fill="#fd8d3c"/>
<text x="305" y="650" fill="#222">emitEntryPointsSourceFromIR</text>
<rect x="566" y="640" width="12" height="12" fill="#e6550d"/>
<text x="582" y="650" fill="#222">generateOutput (self)</text>
<rect x="843" y="640" width="12" height="12" fill="#969696"/>
<text x="859" y="650" fill="#222">compileInner (self)</text>
</svg>