<svg xmlns="http://www.w3.org/2000/svg" xmlns:xlink="http://www.w3.org/1999/xlink" width="1132" height="680" viewBox="0 0 1132 680" preserveAspectRatio="xMidYMid meet" font-family="sans-serif" font-size="13">
<rect width="1132" height="680" fill="white"/>
<text x="12" y="30" font-size="20" font-weight="bold">module_link — Daily tip-of-tree (last 30 days) (median ms)</text>
<text x="68" y="60" font-size="15" font-weight="600" fill="#1a1a1a">module_link<tspan fill="#888" font-weight="400" text-decoration="none">  0.79×</tspan></text>
<line x1="68.0" y1="516.0" x2="1108.0" y2="516.0" stroke="#eee"/>
<text x="64.0" y="519.0" text-anchor="end" fill="#999">0.0</text>
<line x1="68.0" y1="296.0" x2="1108.0" y2="296.0" stroke="#eee"/>
<text x="64.0" y="299.0" text-anchor="end" fill="#999">64</text>
<line x1="68.0" y1="76.0" x2="1108.0" y2="76.0" stroke="#eee"/>
<text x="64.0" y="79.0" text-anchor="end" fill="#999">128</text>
<line x1="68.0" y1="76.0" x2="68.0" y2="516.0" stroke="#333"/>
<line x1="68.0" y1="516.0" x2="1108.0" y2="516.0" stroke="#333"/>
<line x1="68.0" y1="516.0" x2="68.0" y2="519.0" stroke="#999"/>
<text x="68.0" y="531.0" text-anchor="end" fill="#e8731a" transform="rotate(-50 68.0 531.0)">06-25</text>
<line x1="129.2" y1="516.0" x2="129.2" y2="519.0" stroke="#999"/>
<text x="129.2" y="531.0" text-anchor="end" fill="#e8731a" transform="rotate(-50 129.2 531.0)">06-26</text>
<line x1="190.4" y1="516.0" x2="190.4" y2="519.0" stroke="#999"/>
<text x="190.4" y="531.0" text-anchor="end" fill="#e8731a" transform="rotate(-50 190.4 531.0)">06-28</text>
<line x1="251.5" y1="516.0" x2="251.5" y2="519.0" stroke="#999"/>
<text x="251.5" y="531.0" text-anchor="end" fill="#e8731a" transform="rotate(-50 251.5 531.0)">07-01</text>
<line x1="312.7" y1="516.0" x2="312.7" y2="519.0" stroke="#999"/>
<text x="312.7" y="531.0" text-anchor="end" fill="#e8731a" transform="rotate(-50 312.7 531.0)">07-02</text>
<line x1="373.9" y1="516.0" x2="373.9" y2="519.0" stroke="#999"/>
<text x="373.9" y="531.0" text-anchor="end" fill="#e8731a" transform="rotate(-50 373.9 531.0)">07-03</text>
<line x1="435.1" y1="516.0" x2="435.1" y2="519.0" stroke="#999"/>
<text x="435.1" y="531.0" text-anchor="end" fill="#e8731a" transform="rotate(-50 435.1 531.0)">07-06</text>
<line x1="496.2" y1="516.0" x2="496.2" y2="519.0" stroke="#999"/>
<text x="496.2" y="531.0" text-anchor="end" fill="#e8731a" transform="rotate(-50 496.2 531.0)">07-07</text>
<line x1="557.4" y1="516.0" x2="557.4" y2="519.0" stroke="#999"/>
<text x="557.4" y="531.0" text-anchor="end" fill="#e8731a" transform="rotate(-50 557.4 531.0)">07-08</text>
<line x1="618.6" y1="516.0" x2="618.6" y2="519.0" stroke="#999"/>
<text x="618.6" y="531.0" text-anchor="end" fill="#e8731a" transform="rotate(-50 618.6 531.0)">07-09</text>
<line x1="679.8" y1="516.0" x2="679.8" y2="519.0" stroke="#999"/>
<text x="679.8" y="531.0" text-anchor="end" fill="#e8731a" transform="rotate(-50 679.8 531.0)">07-10</text>
<line x1="740.9" y1="516.0" x2="740.9" y2="519.0" stroke="#999"/>
<text x="740.9" y="531.0" text-anchor="end" fill="#e8731a" transform="rotate(-50 740.9 531.0)">07-11</text>
<line x1="802.1" y1="516.0" x2="802.1" y2="519.0" stroke="#999"/>
<text x="802.1" y="531.0" text-anchor="end" fill="#e8731a" transform="rotate(-50 802.1 531.0)">07-14</text>
<line x1="863.3" y1="516.0" x2="863.3" y2="519.0" stroke="#999"/>
<text x="863.3" y="531.0" text-anchor="end" fill="#e8731a" transform="rotate(-50 863.3 531.0)">07-15</text>
<line x1="924.5" y1="516.0" x2="924.5" y2="519.0" stroke="#999"/>
<text x="924.5" y="531.0" text-anchor="end" fill="#e8731a" transform="rotate(-50 924.5 531.0)">07-15</text>
<line x1="985.6" y1="516.0" x2="985.6" y2="519.0" stroke="#999"/>
<text x="985.6" y="531.0" text-anchor="end" fill="#e8731a" transform="rotate(-50 985.6 531.0)">07-16</text>
<line x1="1046.8" y1="516.0" x2="1046.8" y2="519.0" stroke="#999"/>
<text x="1046.8" y="531.0" text-anchor="end" fill="#e8731a" transform="rotate(-50 1046.8 531.0)">07-17</text>
<line x1="1108.0" y1="516.0" x2="1108.0" y2="519.0" stroke="#999"/>
<text x="1108.0" y="531.0" text-anchor="end" fill="#e8731a" transform="rotate(-50 1108.0 531.0)">07-18</text>
<polygon points="68.0,514.7 129.2,514.7 190.4,514.7 251.5,514.7 312.7,514.6 373.9,514.7 435.1,514.6 496.2,514.8 557.4,514.8 618.6,514.7 679.8,514.7 740.9,514.7 802.1,514.9 863.3,514.8 924.5,514.9 985.6,514.9 1046.8,514.8 1108.0,515.0 1108.0,516.0 1046.8,516.0 985.6,516.0 924.5,516.0 863.3,516.0 802.1,516.0 740.9,516.0 679.8,516.0 618.6,516.0 557.4,516.0 496.2,516.0 435.1,516.0 373.9,516.0 312.7,516.0 251.5,516.0 190.4,516.0 129.2,516.0 68.0,516.0" fill="#c7e9c0" fill-opacity="0.9" stroke="#fff" stroke-width="0.4"><title>module_link — parseTranslationUnit</title></polygon>
<polygon points="68.0,291.7 129.2,295.3 190.4,299.5 251.5,297.8 312.7,289.2 373.9,253.4 435.1,255.5 496.2,268.3 557.4,259.9 618.6,258.0 679.8,271.3 740.9,264.1 802.1,265.2 863.3,272.1 924.5,288.5 985.6,284.0 1046.8,281.9 1108.0,311.0 1108.0,515.0 1046.8,514.8 985.6,514.9 924.5,514.9 863.3,514.8 802.1,514.9 740.9,514.7 679.8,514.7 618.6,514.7 557.4,514.8 496.2,514.8 435.1,514.6 373.9,514.7 312.7,514.6 251.5,514.7 190.4,514.7 129.2,514.7 68.0,514.7" fill="#41ab5d" fill-opacity="0.9" stroke="#fff" stroke-width="0.4"><title>module_link — SemanticChecking</title></polygon>
<polygon points="68.0,278.0 129.2,281.5 190.4,285.7 251.5,284.0 312.7,275.0 373.9,239.4 435.1,241.3 496.2,254.1 557.4,245.0 618.6,243.7 679.8,257.1 740.9,250.6 802.1,251.9 863.3,259.2 924.5,275.2 985.6,270.6 1046.8,269.3 1108.0,300.9 1108.0,311.0 1046.8,281.9 985.6,284.0 924.5,288.5 863.3,272.1 802.1,265.2 740.9,264.1 679.8,271.3 618.6,258.0 557.4,259.9 496.2,268.3 435.1,255.5 373.9,253.4 312.7,289.2 251.5,297.8 190.4,299.5 129.2,295.3 68.0,291.7" fill="#006d2c" fill-opacity="0.9" stroke="#fff" stroke-width="0.4"><title>module_link — generateIR</title></polygon>
<polygon points="68.0,276.6 129.2,280.7 190.4,284.3 251.5,282.7 312.7,273.9 373.9,238.6 435.1,240.8 496.2,252.2 557.4,243.4 618.6,242.2 679.8,255.1 740.9,249.7 802.1,250.1 863.3,257.9 924.5,275.2 985.6,268.6 1046.8,269.1 1108.0,300.4 1108.0,300.9 1046.8,269.3 985.6,270.6 924.5,275.2 863.3,259.2 802.1,251.9 740.9,250.6 679.8,257.1 618.6,243.7 557.4,245.0 496.2,254.1 435.1,241.3 373.9,239.4 312.7,275.0 251.5,284.0 190.4,285.7 129.2,281.5 68.0,278.0" fill="#74c476" fill-opacity="0.9" stroke="#fff" stroke-width="0.4"><title>module_link — frontEndExecute (self)</title></polygon>
<polygon points="68.0,261.7 129.2,265.9 190.4,269.3 251.5,267.9 312.7,259.2 373.9,224.1 435.1,226.3 496.2,239.1 557.4,230.3 618.6,228.8 679.8,241.8 740.9,236.8 802.1,236.9 863.3,246.2 924.5,263.5 985.6,256.8 1046.8,257.3 1108.0,289.6 1108.0,300.4 1046.8,269.1 985.6,268.6 924.5,275.2 863.3,257.9 802.1,250.1 740.9,249.7 679.8,255.1 618.6,242.2 557.4,243.4 496.2,252.2 435.1,240.8 373.9,238.6 312.7,273.9 251.5,282.7 190.4,284.3 129.2,280.7 68.0,276.6" fill="#6baed6" fill-opacity="0.9" stroke="#fff" stroke-width="0.4"><title>module_link — specializeModule</title></polygon>
<polygon points="68.0,240.6 129.2,244.6 190.4,248.0 251.5,246.7 312.7,241.2 373.9,206.3 435.1,208.4 496.2,221.9 557.4,213.0 618.6,211.3 679.8,227.7 740.9,222.7 802.1,223.0 863.3,234.3 924.5,251.5 985.6,244.9 1046.8,245.3 1108.0,279.2 1108.0,289.6 1046.8,257.3 985.6,256.8 924.5,263.5 863.3,246.2 802.1,236.9 740.9,236.8 679.8,241.8 618.6,228.8 557.4,230.3 496.2,239.1 435.1,226.3 373.9,224.1 312.7,259.2 251.5,267.9 190.4,269.3 129.2,265.9 68.0,261.7" fill="#2171b5" fill-opacity="0.9" stroke="#fff" stroke-width="0.4"><title>module_link — simplifyIR</title></polygon>
<polygon points="68.0,204.9 129.2,209.7 190.4,212.9 251.5,211.1 312.7,204.6 373.9,171.5 435.1,172.1 496.2,187.5 557.4,177.2 618.6,176.5 679.8,192.8 740.9,188.7 802.1,186.6 863.3,205.7 924.5,222.7 985.6,215.8 1046.8,215.5 1108.0,257.1 1108.0,279.2 1046.8,245.3 985.6,244.9 924.5,251.5 863.3,234.3 802.1,223.0 740.9,222.7 679.8,227.7 618.6,211.3 557.4,213.0 496.2,221.9 435.1,208.4 373.9,206.3 312.7,241.2 251.5,246.7 190.4,248.0 129.2,244.6 68.0,240.6" fill="#08306b" fill-opacity="0.9" stroke="#fff" stroke-width="0.4"><title>module_link — linkIR</title></polygon>
<polygon points="68.0,204.8 129.2,209.6 190.4,212.8 251.5,211.0 312.7,204.5 373.9,171.4 435.1,172.0 496.2,187.3 557.4,177.0 618.6,176.4 679.8,192.6 740.9,188.5 802.1,186.5 863.3,205.6 924.5,222.6 985.6,215.7 1046.8,215.4 1108.0,257.0 1108.0,257.1 1046.8,215.5 985.6,215.8 924.5,222.7 863.3,205.7 802.1,186.6 740.9,188.7 679.8,192.8 618.6,176.5 557.4,177.2 496.2,187.5 435.1,172.1 373.9,171.5 312.7,204.6 251.5,211.1 190.4,212.9 129.2,209.7 68.0,204.9" fill="#9e9ac8" fill-opacity="0.9" stroke="#fff" stroke-width="0.4"><title>module_link — unrollLoopsInModule</title></polygon>
<polygon points="68.0,200.9 129.2,205.6 190.4,208.8 251.5,207.1 312.7,200.5 373.9,167.4 435.1,168.1 496.2,183.7 557.4,173.5 618.6,172.8 679.8,191.6 740.9,187.4 802.1,185.5 863.3,204.4 924.5,221.6 985.6,214.6 1046.8,214.2 1108.0,255.9 1108.0,257.0 1046.8,215.4 985.6,215.7 924.5,222.6 863.3,205.6 802.1,186.5 740.9,188.5 679.8,192.6 618.6,176.4 557.4,177.0 496.2,187.3 435.1,172.0 373.9,171.4 312.7,204.5 251.5,211.0 190.4,212.8 129.2,209.6 68.0,204.8" fill="#807dba" fill-opacity="0.9" stroke="#fff" stroke-width="0.4"><title>module_link — legalizeResourceTypes</title></polygon>
<polygon points="68.0,196.8 129.2,201.5 190.4,204.6 251.5,203.0 312.7,196.4 373.9,163.3 435.1,164.0 496.2,180.0 557.4,169.9 618.6,169.1 679.8,190.6 740.9,186.3 802.1,184.4 863.3,203.3 924.5,220.4 985.6,213.5 1046.8,213.0 1108.0,254.7 1108.0,255.9 1046.8,214.2 985.6,214.6 924.5,221.6 863.3,204.4 802.1,185.5 740.9,187.4 679.8,191.6 618.6,172.8 557.4,173.5 496.2,183.7 435.1,168.1 373.9,167.4 312.7,200.5 251.5,207.1 190.4,208.8 129.2,205.6 68.0,200.9" fill="#6a51a3" fill-opacity="0.9" stroke="#fff" stroke-width="0.4"><title>module_link — legalizeExistentialTypeLayout</title></polygon>
<polygon points="68.0,196.5 129.2,201.3 190.4,204.4 251.5,202.7 312.7,196.2 373.9,163.1 435.1,163.8 496.2,179.7 557.4,169.5 618.6,168.8 679.8,190.2 740.9,186.0 802.1,184.0 863.3,203.0 924.5,220.1 985.6,213.2 1046.8,212.7 1108.0,254.4 1108.0,254.7 1046.8,213.0 985.6,213.5 924.5,220.4 863.3,203.3 802.1,184.4 740.9,186.3 679.8,190.6 618.6,169.1 557.4,169.9 496.2,180.0 435.1,164.0 373.9,163.3 312.7,196.4 251.5,203.0 190.4,204.6 129.2,201.5 68.0,196.8" fill="#bcbddc" fill-opacity="0.9" stroke="#fff" stroke-width="0.4"><title>module_link — performMandatoryEarlyInlining</title></polygon>
<polygon points="68.0,196.2 129.2,200.9 190.4,204.0 251.5,202.3 312.7,195.8 373.9,162.7 435.1,163.4 496.2,179.3 557.4,169.2 618.6,168.4 679.8,189.8 740.9,185.6 802.1,183.7 863.3,202.6 924.5,219.7 985.6,212.8 1046.8,212.3 1108.0,254.1 1108.0,254.4 1046.8,212.7 985.6,213.2 924.5,220.1 863.3,203.0 802.1,184.0 740.9,186.0 679.8,190.2 618.6,168.8 557.4,169.5 496.2,179.7 435.1,163.8 373.9,163.1 312.7,196.2 251.5,202.7 190.4,204.4 129.2,201.3 68.0,196.5" fill="#dadaeb" fill-opacity="0.9" stroke="#fff" stroke-width="0.4"><title>module_link — performForceInlining</title></polygon>
<polygon points="68.0,174.6 129.2,178.4 190.4,183.1 251.5,180.9 312.7,172.5 373.9,139.5 435.1,140.3 496.2,160.3 557.4,150.8 618.6,149.3 679.8,174.8 740.9,169.2 802.1,168.5 863.3,190.4 924.5,207.6 985.6,200.4 1046.8,199.8 1108.0,243.1 1108.0,254.1 1046.8,212.3 985.6,212.8 924.5,219.7 863.3,202.6 802.1,183.7 740.9,185.6 679.8,189.8 618.6,168.4 557.4,169.2 496.2,179.3 435.1,163.4 373.9,162.7 312.7,195.8 251.5,202.3 190.4,204.0 129.2,200.9 68.0,196.2" fill="#4a1486" fill-opacity="0.9" stroke="#fff" stroke-width="0.4"><title>module_link — linkAndOptimizeIR (self)</title></polygon>
<polygon points="68.0,146.8 129.2,149.9 190.4,153.9 251.5,152.7 312.7,144.3 373.9,111.2 435.1,111.0 496.2,133.1 557.4,122.2 618.6,120.8 679.8,149.9 740.9,144.9 802.1,145.4 863.3,166.8 924.5,183.1 985.6,177.4 1046.8,175.7 1108.0,220.3 1108.0,243.1 1046.8,199.8 985.6,200.4 924.5,207.6 863.3,190.4 802.1,168.5 740.9,169.2 679.8,174.8 618.6,149.3 557.4,150.8 496.2,160.3 435.1,140.3 373.9,139.5 312.7,172.5 251.5,180.9 190.4,183.1 129.2,178.4 68.0,174.6" fill="#e6550d" fill-opacity="0.9" stroke="#fff" stroke-width="0.4"><title>module_link — generateOutput (self)</title></polygon>
<polygon points="68.0,142.9 129.2,149.9 190.4,152.6 251.5,151.4 312.7,142.5 373.9,111.2 435.1,108.6 496.2,132.2 557.4,120.1 618.6,119.6 679.8,149.1 740.9,139.4 802.1,145.4 863.3,165.3 924.5,183.1 985.6,176.3 1046.8,170.9 1108.0,220.3 1108.0,220.3 1046.8,175.7 985.6,177.4 924.5,183.1 863.3,166.8 802.1,145.4 740.9,144.9 679.8,149.9 618.6,120.8 557.4,122.2 496.2,133.1 435.1,111.0 373.9,111.2 312.7,144.3 251.5,152.7 190.4,153.9 129.2,149.9 68.0,146.8" fill="#969696" fill-opacity="0.9" stroke="#fff" stroke-width="0.4"><title>module_link — compileInner (self)</title></polygon>
<text x="12" y="578" fill="#666" font-weight="600">phase buckets</text>
<rect x="12" y="586" width="12" height="12" fill="#c7e9c0"/>
<text x="28" y="596" fill="#222">parseTranslationUnit</text>
<rect x="289" y="586" width="12" height="12" fill="#41ab5d"/>
<text x="305" y="596" fill="#222">SemanticChecking</text>
<rect x="566" y="586" width="12" height="12" fill="#006d2c"/>
<text x="582" y="596" fill="#222">generateIR</text>
<rect x="843" y="586" width="12" height="12" fill="#74c476"/>
<text x="859" y="596" fill="#222">frontEndExecute (self)</text>
<rect x="12" y="604" width="12" height="12" fill="#6baed6"/>
<text x="28" y="614" fill="#222">specializeModule</text>
<rect x="289" y="604" width="12" height="12" fill="#2171b5"/>
<text x="305" y="614" fill="#222">simplifyIR</text>
<rect x="566" y="604" width="12" height="12" fill="#08306b"/>
<text x="582" y="614" fill="#222">linkIR</text>
<rect x="843" y="604" width="12" height="12" fill="#9e9ac8"/>
<text x="859" y="614" fill="#222">unrollLoopsInModule</text>
<rect x="12" y="622" width="12" height="12" fill="#807dba"/>
<text x="28" y="632" fill="#222">legalizeResourceTypes</text>
<rect x="289" y="622" width="12" height="12" fill="#6a51a3"/>
<text x="305" y="632" fill="#222">legalizeExistentialTypeLayout</text>
<rect x="566" y="622" width="12" height="12" fill="#bcbddc"/>
<text x="582" y="632" fill="#222">performMandatoryEarlyInlining</text>
<rect x="843" y="622" width="12" height="12" fill="#dadaeb"/>
<text x="859" y="632" fill="#222">performForceInlining</text>
<rect x="12" y="640" width="12" height="12" fill="#4a1486"/>
<text x="28" y="650" fill="#222">linkAndOptimizeIR (self)</text>
<rect x="289" y="640" width="12" height="12" fill="#fd8d3c"/>
<text x="305" y="650" fill="#222">emitEntryPointsSourceFromIR</text>
<rect x="566" y="640" width="12" height="12" fill="#e6550d"/>
<text x="582" y="650" fill="#222">generateOutput (self)</text>
<rect x="843" y="640" width="12" height="12" fill="#969696"/>
<text x="859" y="650" fill="#222">compileInner (self)</text>
</svg>