<svg xmlns="http://www.w3.org/2000/svg" xmlns:xlink="http://www.w3.org/1999/xlink" width="1132" height="680" viewBox="0 0 1132 680" preserveAspectRatio="xMidYMid meet" font-family="sans-serif" font-size="13">
<rect width="1132" height="680" fill="white"/>
<text x="12" y="30" font-size="20" font-weight="bold">module_link — Across releases (median ms)</text>
<text x="68" y="60" font-size="15" font-weight="600" fill="#1a1a1a">module_link<tspan fill="#888" font-weight="400" text-decoration="none">  1.97×</tspan></text>
<line x1="68.0" y1="516.0" x2="1108.0" y2="516.0" stroke="#eee"/>
<text x="64.0" y="519.0" text-anchor="end" fill="#999">0.0</text>
<line x1="68.0" y1="296.0" x2="1108.0" y2="296.0" stroke="#eee"/>
<text x="64.0" y="299.0" text-anchor="end" fill="#999">87</text>
<line x1="68.0" y1="76.0" x2="1108.0" y2="76.0" stroke="#eee"/>
<text x="64.0" y="79.0" text-anchor="end" fill="#999">175</text>
<line x1="68.0" y1="76.0" x2="68.0" y2="516.0" stroke="#333"/>
<line x1="68.0" y1="516.0" x2="1108.0" y2="516.0" stroke="#333"/>
<line x1="68.0" y1="516.0" x2="68.0" y2="519.0" stroke="#999"/>
<text x="68.0" y="531.0" text-anchor="end" fill="#666" transform="rotate(-50 68.0 531.0)">25.12</text>
<line x1="111.3" y1="516.0" x2="111.3" y2="519.0" stroke="#999"/>
<text x="111.3" y="531.0" text-anchor="end" fill="#666" transform="rotate(-50 111.3 531.0)">25.13</text>
<line x1="154.7" y1="516.0" x2="154.7" y2="519.0" stroke="#999"/>
<text x="154.7" y="531.0" text-anchor="end" fill="#666" transform="rotate(-50 154.7 531.0)">25.14</text>
<line x1="198.0" y1="516.0" x2="198.0" y2="519.0" stroke="#999"/>
<text x="198.0" y="531.0" text-anchor="end" fill="#666" transform="rotate(-50 198.0 531.0)">25.15</text>
<line x1="241.3" y1="516.0" x2="241.3" y2="519.0" stroke="#999"/>
<text x="241.3" y="531.0" text-anchor="end" fill="#666" transform="rotate(-50 241.3 531.0)">25.16</text>
<line x1="284.7" y1="516.0" x2="284.7" y2="519.0" stroke="#999"/>
<text x="284.7" y="531.0" text-anchor="end" fill="#666" transform="rotate(-50 284.7 531.0)">25.17</text>
<line x1="328.0" y1="516.0" x2="328.0" y2="519.0" stroke="#999"/>
<text x="328.0" y="531.0" text-anchor="end" fill="#666" transform="rotate(-50 328.0 531.0)">25.18</text>
<line x1="371.3" y1="516.0" x2="371.3" y2="519.0" stroke="#999"/>
<text x="371.3" y="531.0" text-anchor="end" fill="#666" transform="rotate(-50 371.3 531.0)">25.19</text>
<line x1="414.7" y1="516.0" x2="414.7" y2="519.0" stroke="#999"/>
<text x="414.7" y="531.0" text-anchor="end" fill="#666" transform="rotate(-50 414.7 531.0)">25.20</text>
<line x1="458.0" y1="516.0" x2="458.0" y2="519.0" stroke="#999"/>
<text x="458.0" y="531.0" text-anchor="end" fill="#666" transform="rotate(-50 458.0 531.0)">25.21</text>
<line x1="501.3" y1="516.0" x2="501.3" y2="519.0" stroke="#999"/>
<text x="501.3" y="531.0" text-anchor="end" fill="#666" transform="rotate(-50 501.3 531.0)">25.22</text>
<line x1="544.7" y1="516.0" x2="544.7" y2="519.0" stroke="#999"/>
<text x="544.7" y="531.0" text-anchor="end" fill="#666" transform="rotate(-50 544.7 531.0)">25.23</text>
<line x1="588.0" y1="516.0" x2="588.0" y2="519.0" stroke="#999"/>
<text x="588.0" y="531.0" text-anchor="end" fill="#666" transform="rotate(-50 588.0 531.0)">25.24</text>
<line x1="631.3" y1="516.0" x2="631.3" y2="519.0" stroke="#999"/>
<text x="631.3" y="531.0" text-anchor="end" fill="#666" transform="rotate(-50 631.3 531.0)">26.1</text>
<line x1="674.7" y1="516.0" x2="674.7" y2="519.0" stroke="#999"/>
<text x="674.7" y="531.0" text-anchor="end" fill="#666" transform="rotate(-50 674.7 531.0)">26.2</text>
<line x1="718.0" y1="516.0" x2="718.0" y2="519.0" stroke="#999"/>
<text x="718.0" y="531.0" text-anchor="end" fill="#666" transform="rotate(-50 718.0 531.0)">26.3</text>
<line x1="761.3" y1="516.0" x2="761.3" y2="519.0" stroke="#999"/>
<text x="761.3" y="531.0" text-anchor="end" fill="#666" transform="rotate(-50 761.3 531.0)">26.4</text>
<line x1="804.7" y1="516.0" x2="804.7" y2="519.0" stroke="#999"/>
<text x="804.7" y="531.0" text-anchor="end" fill="#666" transform="rotate(-50 804.7 531.0)">26.5</text>
<line x1="848.0" y1="516.0" x2="848.0" y2="519.0" stroke="#999"/>
<text x="848.0" y="531.0" text-anchor="end" fill="#666" transform="rotate(-50 848.0 531.0)">26.7</text>
<line x1="891.3" y1="516.0" x2="891.3" y2="519.0" stroke="#999"/>
<text x="891.3" y="531.0" text-anchor="end" fill="#666" transform="rotate(-50 891.3 531.0)">26.8</text>
<line x1="934.7" y1="516.0" x2="934.7" y2="519.0" stroke="#999"/>
<text x="934.7" y="531.0" text-anchor="end" fill="#666" transform="rotate(-50 934.7 531.0)">26.9</text>
<line x1="978.0" y1="516.0" x2="978.0" y2="519.0" stroke="#999"/>
<text x="978.0" y="531.0" text-anchor="end" fill="#666" transform="rotate(-50 978.0 531.0)">26.10</text>
<line x1="1021.3" y1="516.0" x2="1021.3" y2="519.0" stroke="#999"/>
<text x="1021.3" y="531.0" text-anchor="end" fill="#666" transform="rotate(-50 1021.3 531.0)">26.11</text>
<line x1="1064.7" y1="516.0" x2="1064.7" y2="519.0" stroke="#999"/>
<text x="1064.7" y="531.0" text-anchor="end" fill="#666" transform="rotate(-50 1064.7 531.0)">26.12</text>
<line x1="1108.0" y1="516.0" x2="1108.0" y2="519.0" stroke="#999"/>
<text x="1108.0" y="531.0" text-anchor="end" fill="#666" transform="rotate(-50 1108.0 531.0)">26.13</text>
<polygon points="68.0,516.0 111.3,513.3 154.7,514.8 198.0,515.2 241.3,515.3 284.7,515.3 328.0,515.3 371.3,515.3 414.7,515.3 458.0,515.3 501.3,515.3 544.7,515.3 588.0,515.3 631.3,515.2 674.7,515.2 718.0,515.2 761.3,515.2 804.7,515.2 848.0,515.1 891.3,515.2 934.7,515.2 978.0,515.1 1021.3,515.1 1064.7,515.1 1108.0,515.1 1108.0,516.0 1064.7,516.0 1021.3,516.0 978.0,516.0 934.7,516.0 891.3,516.0 848.0,516.0 804.7,516.0 761.3,516.0 718.0,516.0 674.7,516.0 631.3,516.0 588.0,516.0 544.7,516.0 501.3,516.0 458.0,516.0 414.7,516.0 371.3,516.0 328.0,516.0 284.7,516.0 241.3,516.0 198.0,516.0 154.7,516.0 111.3,516.0 68.0,516.0" fill="#c7e9c0" fill-opacity="0.9" stroke="#fff" stroke-width="0.4"><title>module_link — parseTranslationUnit</title></polygon>
<polygon points="68.0,440.5 111.3,416.5 154.7,396.7 198.0,422.4 241.3,428.6 284.7,409.2 328.0,408.4 371.3,406.7 414.7,405.7 458.0,400.2 501.3,390.3 544.7,392.7 588.0,383.8 631.3,375.1 674.7,371.9 718.0,375.8 761.3,377.0 804.7,362.1 848.0,337.3 891.3,349.2 934.7,348.2 978.0,330.1 1021.3,349.8 1064.7,350.5 1108.0,323.3 1108.0,515.1 1064.7,515.1 1021.3,515.1 978.0,515.1 934.7,515.2 891.3,515.2 848.0,515.1 804.7,515.2 761.3,515.2 718.0,515.2 674.7,515.2 631.3,515.2 588.0,515.3 544.7,515.3 501.3,515.3 458.0,515.3 414.7,515.3 371.3,515.3 328.0,515.3 284.7,515.3 241.3,515.3 198.0,515.2 154.7,514.8 111.3,513.3 68.0,516.0" fill="#41ab5d" fill-opacity="0.9" stroke="#fff" stroke-width="0.4"><title>module_link — SemanticChecking</title></polygon>
<polygon points="68.0,440.5 111.3,414.2 154.7,394.3 198.0,420.1 241.3,426.4 284.7,406.7 328.0,405.8 371.3,404.2 414.7,403.2 458.0,397.7 501.3,387.8 544.7,390.2 588.0,381.3 631.3,372.7 674.7,369.4 718.0,373.3 761.3,374.5 804.7,359.4 848.0,334.4 891.3,346.2 934.7,345.3 978.0,327.0 1021.3,336.7 1064.7,337.9 1108.0,310.1 1108.0,323.3 1064.7,350.5 1021.3,349.8 978.0,330.1 934.7,348.2 891.3,349.2 848.0,337.3 804.7,362.1 761.3,377.0 718.0,375.8 674.7,371.9 631.3,375.1 588.0,383.8 544.7,392.7 501.3,390.3 458.0,400.2 414.7,405.7 371.3,406.7 328.0,408.4 284.7,409.2 241.3,428.6 198.0,422.4 154.7,396.7 111.3,416.5 68.0,440.5" fill="#006d2c" fill-opacity="0.9" stroke="#fff" stroke-width="0.4"><title>module_link — generateIR</title></polygon>
<polygon points="68.0,435.4 111.3,412.4 154.7,391.5 198.0,418.2 241.3,424.7 284.7,404.7 328.0,403.9 371.3,402.0 414.7,401.1 458.0,395.6 501.3,385.6 544.7,388.1 588.0,378.9 631.3,370.3 674.7,366.9 718.0,370.8 761.3,372.0 804.7,356.1 848.0,328.6 891.3,342.3 934.7,340.7 978.0,321.9 1021.3,336.7 1064.7,337.9 1108.0,309.0 1108.0,310.1 1064.7,337.9 1021.3,336.7 978.0,327.0 934.7,345.3 891.3,346.2 848.0,334.4 804.7,359.4 761.3,374.5 718.0,373.3 674.7,369.4 631.3,372.7 588.0,381.3 544.7,390.2 501.3,387.8 458.0,397.7 414.7,403.2 371.3,404.2 328.0,405.8 284.7,406.7 241.3,426.4 198.0,420.1 154.7,394.3 111.3,414.2 68.0,440.5" fill="#74c476" fill-opacity="0.9" stroke="#fff" stroke-width="0.4"><title>module_link — frontEndExecute (self)</title></polygon>
<polygon points="68.0,432.9 111.3,409.6 154.7,388.6 198.0,415.2 241.3,421.9 284.7,401.9 328.0,401.0 371.3,399.1 414.7,398.0 458.0,392.6 501.3,382.6 544.7,385.1 588.0,374.9 631.3,366.2 674.7,362.8 718.0,366.7 761.3,368.0 804.7,351.6 848.0,314.6 891.3,328.7 934.7,327.2 978.0,307.2 1021.3,325.7 1064.7,327.6 1108.0,299.9 1108.0,309.0 1064.7,337.9 1021.3,336.7 978.0,321.9 934.7,340.7 891.3,342.3 848.0,328.6 804.7,356.1 761.3,372.0 718.0,370.8 674.7,366.9 631.3,370.3 588.0,378.9 544.7,388.1 501.3,385.6 458.0,395.6 414.7,401.1 371.3,402.0 328.0,403.9 284.7,404.7 241.3,424.7 198.0,418.2 154.7,391.5 111.3,412.4 68.0,435.4" fill="#6baed6" fill-opacity="0.9" stroke="#fff" stroke-width="0.4"><title>module_link — specializeModule</title></polygon>
<polygon points="68.0,427.9 111.3,402.4 154.7,380.9 198.0,406.7 241.3,414.7 284.7,393.9 328.0,392.9 371.3,390.9 414.7,389.8 458.0,384.4 501.3,374.6 544.7,376.9 588.0,367.6 631.3,358.8 674.7,355.3 718.0,359.2 761.3,360.3 804.7,343.7 848.0,297.2 891.3,312.8 934.7,311.0 978.0,289.4 1021.3,309.4 1064.7,312.1 1108.0,287.0 1108.0,299.9 1064.7,327.6 1021.3,325.7 978.0,307.2 934.7,327.2 891.3,328.7 848.0,314.6 804.7,351.6 761.3,368.0 718.0,366.7 674.7,362.8 631.3,366.2 588.0,374.9 544.7,385.1 501.3,382.6 458.0,392.6 414.7,398.0 371.3,399.1 328.0,401.0 284.7,401.9 241.3,421.9 198.0,415.2 154.7,388.6 111.3,409.6 68.0,432.9" fill="#2171b5" fill-opacity="0.9" stroke="#fff" stroke-width="0.4"><title>module_link — simplifyIR</title></polygon>
<polygon points="68.0,412.8 111.3,384.3 154.7,362.0 198.0,388.7 241.3,398.1 284.7,375.6 328.0,374.4 371.3,372.3 414.7,371.4 458.0,365.8 501.3,355.7 544.7,357.7 588.0,348.7 631.3,340.4 674.7,334.6 718.0,338.5 761.3,339.3 804.7,320.5 848.0,189.2 891.3,224.5 934.7,222.4 978.0,172.9 1021.3,280.2 1064.7,282.9 1108.0,260.8 1108.0,287.0 1064.7,312.1 1021.3,309.4 978.0,289.4 934.7,311.0 891.3,312.8 848.0,297.2 804.7,343.7 761.3,360.3 718.0,359.2 674.7,355.3 631.3,358.8 588.0,367.6 544.7,376.9 501.3,374.6 458.0,384.4 414.7,389.8 371.3,390.9 328.0,392.9 284.7,393.9 241.3,414.7 198.0,406.7 154.7,380.9 111.3,402.4 68.0,427.9" fill="#08306b" fill-opacity="0.9" stroke="#fff" stroke-width="0.4"><title>module_link — linkIR</title></polygon>
<polygon points="68.0,412.8 111.3,384.2 154.7,361.9 198.0,388.5 241.3,398.0 284.7,375.4 328.0,374.2 371.3,372.2 414.7,371.3 458.0,365.7 501.3,355.5 544.7,357.5 588.0,348.6 631.3,340.2 674.7,334.5 718.0,338.3 761.3,339.2 804.7,320.4 848.0,189.1 891.3,224.4 934.7,222.3 978.0,172.8 1021.3,280.1 1064.7,282.8 1108.0,260.6 1108.0,260.8 1064.7,282.9 1021.3,280.2 978.0,172.9 934.7,222.4 891.3,224.5 848.0,189.2 804.7,320.5 761.3,339.3 718.0,338.5 674.7,334.6 631.3,340.4 588.0,348.7 544.7,357.7 501.3,355.7 458.0,365.8 414.7,371.4 371.3,372.3 328.0,374.4 284.7,375.6 241.3,398.1 198.0,388.7 154.7,362.0 111.3,384.3 68.0,412.8" fill="#9e9ac8" fill-opacity="0.9" stroke="#fff" stroke-width="0.4"><title>module_link — unrollLoopsInModule</title></polygon>
<polygon points="68.0,410.2 111.3,379.3 154.7,356.7 198.0,383.6 241.3,393.1 284.7,370.7 328.0,371.7 371.3,369.6 414.7,368.6 458.0,363.1 501.3,352.9 544.7,355.0 588.0,346.0 631.3,337.6 674.7,331.9 718.0,335.7 761.3,336.6 804.7,317.7 848.0,186.2 891.3,221.7 934.7,219.6 978.0,169.8 1021.3,277.3 1064.7,279.9 1108.0,258.0 1108.0,260.6 1064.7,282.8 1021.3,280.1 978.0,172.8 934.7,222.3 891.3,224.4 848.0,189.1 804.7,320.4 761.3,339.2 718.0,338.3 674.7,334.5 631.3,340.2 588.0,348.6 544.7,357.5 501.3,355.5 458.0,365.7 414.7,371.3 371.3,372.2 328.0,374.2 284.7,375.4 241.3,398.0 198.0,388.5 154.7,361.9 111.3,384.2 68.0,412.8" fill="#807dba" fill-opacity="0.9" stroke="#fff" stroke-width="0.4"><title>module_link — legalizeResourceTypes</title></polygon>
<polygon points="68.0,407.7 111.3,374.2 154.7,351.4 198.0,378.5 241.3,388.2 284.7,365.8 328.0,369.1 371.3,366.9 414.7,366.0 458.0,360.5 501.3,350.3 544.7,352.4 588.0,343.3 631.3,334.9 674.7,329.1 718.0,333.1 761.3,333.9 804.7,314.9 848.0,183.2 891.3,218.9 934.7,216.7 978.0,166.7 1021.3,274.3 1064.7,276.7 1108.0,255.2 1108.0,258.0 1064.7,279.9 1021.3,277.3 978.0,169.8 934.7,219.6 891.3,221.7 848.0,186.2 804.7,317.7 761.3,336.6 718.0,335.7 674.7,331.9 631.3,337.6 588.0,346.0 544.7,355.0 501.3,352.9 458.0,363.1 414.7,368.6 371.3,369.6 328.0,371.7 284.7,370.7 241.3,393.1 198.0,383.6 154.7,356.7 111.3,379.3 68.0,410.2" fill="#6a51a3" fill-opacity="0.9" stroke="#fff" stroke-width="0.4"><title>module_link — legalizeExistentialTypeLayout</title></polygon>
<polygon points="68.0,407.7 111.3,374.0 154.7,351.1 198.0,378.3 241.3,388.0 284.7,365.6 328.0,368.9 371.3,366.7 414.7,365.8 458.0,360.3 501.3,350.1 544.7,352.2 588.0,343.1 631.3,334.7 674.7,328.9 718.0,332.9 761.3,333.7 804.7,314.7 848.0,183.0 891.3,218.7 934.7,216.5 978.0,166.5 1021.3,274.1 1064.7,276.6 1108.0,255.0 1108.0,255.2 1064.7,276.7 1021.3,274.3 978.0,166.7 934.7,216.7 891.3,218.9 848.0,183.2 804.7,314.9 761.3,333.9 718.0,333.1 674.7,329.1 631.3,334.9 588.0,343.3 544.7,352.4 501.3,350.3 458.0,360.5 414.7,366.0 371.3,366.9 328.0,369.1 284.7,365.8 241.3,388.2 198.0,378.5 154.7,351.4 111.3,374.2 68.0,407.7" fill="#bcbddc" fill-opacity="0.9" stroke="#fff" stroke-width="0.4"><title>module_link — performMandatoryEarlyInlining</title></polygon>
<polygon points="68.0,407.7 111.3,373.7 154.7,350.9 198.0,378.0 241.3,387.7 284.7,365.4 328.0,368.7 371.3,366.5 414.7,365.5 458.0,360.1 501.3,349.8 544.7,351.9 588.0,342.9 631.3,334.5 674.7,328.7 718.0,332.6 761.3,333.5 804.7,314.4 848.0,182.7 891.3,218.4 934.7,216.2 978.0,166.2 1021.3,273.8 1064.7,276.3 1108.0,254.7 1108.0,255.0 1064.7,276.6 1021.3,274.1 978.0,166.5 934.7,216.5 891.3,218.7 848.0,183.0 804.7,314.7 761.3,333.7 718.0,332.9 674.7,328.9 631.3,334.7 588.0,343.1 544.7,352.2 501.3,350.1 458.0,360.3 414.7,365.8 371.3,366.7 328.0,368.9 284.7,365.6 241.3,388.0 198.0,378.3 154.7,351.1 111.3,374.0 68.0,407.7" fill="#dadaeb" fill-opacity="0.9" stroke="#fff" stroke-width="0.4"><title>module_link — performForceInlining</title></polygon>
<polygon points="68.0,392.6 111.3,366.5 154.7,343.5 198.0,369.6 241.3,380.1 284.7,357.3 328.0,360.6 371.3,358.3 414.7,356.5 458.0,351.4 501.3,341.3 544.7,343.3 588.0,333.7 631.3,325.3 674.7,318.5 718.0,322.6 761.3,323.1 804.7,304.1 848.0,160.9 891.3,198.0 934.7,195.4 978.0,137.6 1021.3,255.0 1064.7,257.7 1108.0,239.4 1108.0,254.7 1064.7,276.3 1021.3,273.8 978.0,166.2 934.7,216.2 891.3,218.4 848.0,182.7 804.7,314.4 761.3,333.5 718.0,332.6 674.7,328.7 631.3,334.5 588.0,342.9 544.7,351.9 501.3,349.8 458.0,360.1 414.7,365.5 371.3,366.5 328.0,368.7 284.7,365.4 241.3,387.7 198.0,378.0 154.7,350.9 111.3,373.7 68.0,407.7" fill="#4a1486" fill-opacity="0.9" stroke="#fff" stroke-width="0.4"><title>module_link — linkAndOptimizeIR (self)</title></polygon>
<polygon points="68.0,367.4 111.3,339.6 154.7,314.4 198.0,342.8 241.3,353.7 284.7,334.3 328.0,340.2 371.3,337.8 414.7,336.2 458.0,331.6 501.3,321.7 544.7,323.3 588.0,314.3 631.3,305.7 674.7,298.5 718.0,303.4 761.3,303.4 804.7,283.2 848.0,137.7 891.3,177.7 934.7,174.4 978.0,111.6 1021.3,234.5 1064.7,237.6 1108.0,218.9 1108.0,239.4 1064.7,257.7 1021.3,255.0 978.0,137.6 934.7,195.4 891.3,198.0 848.0,160.9 804.7,304.1 761.3,323.1 718.0,322.6 674.7,318.5 631.3,325.3 588.0,333.7 544.7,343.3 501.3,341.3 458.0,351.4 414.7,356.5 371.3,358.3 328.0,360.6 284.7,357.3 241.3,380.1 198.0,369.6 154.7,343.5 111.3,366.5 68.0,392.6" fill="#e6550d" fill-opacity="0.9" stroke="#fff" stroke-width="0.4"><title>module_link — generateOutput (self)</title></polygon>
<polygon points="68.0,364.9 111.3,335.3 154.7,312.3 198.0,339.3 241.3,352.5 284.7,333.9 328.0,340.2 371.3,335.7 414.7,335.9 458.0,331.2 501.3,319.8 544.7,319.5 588.0,313.8 631.3,304.6 674.7,297.8 718.0,302.5 761.3,300.9 804.7,283.2 848.0,137.1 891.3,176.3 934.7,172.0 978.0,108.6 1021.3,234.5 1064.7,237.6 1108.0,218.9 1108.0,218.9 1064.7,237.6 1021.3,234.5 978.0,111.6 934.7,174.4 891.3,177.7 848.0,137.7 804.7,283.2 761.3,303.4 718.0,303.4 674.7,298.5 631.3,305.7 588.0,314.3 544.7,323.3 501.3,321.7 458.0,331.6 414.7,336.2 371.3,337.8 328.0,340.2 284.7,334.3 241.3,353.7 198.0,342.8 154.7,314.4 111.3,339.6 68.0,367.4" fill="#969696" fill-opacity="0.9" stroke="#fff" stroke-width="0.4"><title>module_link — compileInner (self)</title></polygon>
<text x="12" y="578" fill="#666" font-weight="600">phase buckets</text>
<rect x="12" y="586" width="12" height="12" fill="#c7e9c0"/>
<text x="28" y="596" fill="#222">parseTranslationUnit</text>
<rect x="289" y="586" width="12" height="12" fill="#41ab5d"/>
<text x="305" y="596" fill="#222">SemanticChecking</text>
<rect x="566" y="586" width="12" height="12" fill="#006d2c"/>
<text x="582" y="596" fill="#222">generateIR</text>
<rect x="843" y="586" width="12" height="12" fill="#74c476"/>
<text x="859" y="596" fill="#222">frontEndExecute (self)</text>
<rect x="12" y="604" width="12" height="12" fill="#6baed6"/>
<text x="28" y="614" fill="#222">specializeModule</text>
<rect x="289" y="604" width="12" height="12" fill="#2171b5"/>
<text x="305" y="614" fill="#222">simplifyIR</text>
<rect x="566" y="604" width="12" height="12" fill="#08306b"/>
<text x="582" y="614" fill="#222">linkIR</text>
<rect x="843" y="604" width="12" height="12" fill="#9e9ac8"/>
<text x="859" y="614" fill="#222">unrollLoopsInModule</text>
<rect x="12" y="622" width="12" height="12" fill="#807dba"/>
<text x="28" y="632" fill="#222">legalizeResourceTypes</text>
<rect x="289" y="622" width="12" height="12" fill="#6a51a3"/>
<text x="305" y="632" fill="#222">legalizeExistentialTypeLayout</text>
<rect x="566" y="622" width="12" height="12" fill="#bcbddc"/>
<text x="582" y="632" fill="#222">performMandatoryEarlyInlining</text>
<rect x="843" y="622" width="12" height="12" fill="#dadaeb"/>
<text x="859" y="632" fill="#222">performForceInlining</text>
<rect x="12" y="640" width="12" height="12" fill="#4a1486"/>
<text x="28" y="650" fill="#222">linkAndOptimizeIR (self)</text>
<rect x="289" y="640" width="12" height="12" fill="#fd8d3c"/>
<text x="305" y="650" fill="#222">emitEntryPointsSourceFromIR</text>
<rect x="566" y="640" width="12" height="12" fill="#e6550d"/>
<text x="582" y="650" fill="#222">generateOutput (self)</text>
<rect x="843" y="640" width="12" height="12" fill="#969696"/>
<text x="859" y="650" fill="#222">compileInner (self)</text>
</svg>