<svg xmlns="http://www.w3.org/2000/svg" xmlns:xlink="http://www.w3.org/1999/xlink" width="1132" height="680" viewBox="0 0 1132 680" preserveAspectRatio="xMidYMid meet" font-family="sans-serif" font-size="13">
<rect width="1132" height="680" fill="white"/>
<text x="12" y="30" font-size="20" font-weight="bold">module_link — full phase breakdown across releases (median ms)</text>
<text x="68" y="60" font-size="15" font-weight="600" fill="#1a1a1a">module_link<tspan fill="#888" font-weight="400" text-decoration="none">  1.69×</tspan></text>
<line x1="68.0" y1="516.0" x2="1108.0" y2="516.0" stroke="#eee"/>
<text x="64.0" y="519.0" text-anchor="end" fill="#999">0.0</text>
<line x1="68.0" y1="296.0" x2="1108.0" y2="296.0" stroke="#eee"/>
<text x="64.0" y="299.0" text-anchor="end" fill="#999">74</text>
<line x1="68.0" y1="76.0" x2="1108.0" y2="76.0" stroke="#eee"/>
<text x="64.0" y="79.0" text-anchor="end" fill="#999">147</text>
<line x1="68.0" y1="76.0" x2="68.0" y2="516.0" stroke="#333"/>
<line x1="68.0" y1="516.0" x2="1108.0" y2="516.0" stroke="#333"/>
<line x1="888.0" y1="76.0" x2="888.0" y2="516.0" stroke="#e8731a" stroke-width="1.2" stroke-dasharray="4 3"/>
<text x="891.0" y="87.0" fill="#e8731a" font-size="11">daily →</text>
<line x1="68.0" y1="516.0" x2="68.0" y2="519.0" stroke="#999"/>
<text x="68.0" y="531.0" text-anchor="end" fill="#666" transform="rotate(-50 68.0 531.0)">25.14</text>
<line x1="108.0" y1="516.0" x2="108.0" y2="519.0" stroke="#999"/>
<text x="108.0" y="531.0" text-anchor="end" fill="#666" transform="rotate(-50 108.0 531.0)">25.15</text>
<line x1="148.0" y1="516.0" x2="148.0" y2="519.0" stroke="#999"/>
<text x="148.0" y="531.0" text-anchor="end" fill="#666" transform="rotate(-50 148.0 531.0)">25.16</text>
<line x1="188.0" y1="516.0" x2="188.0" y2="519.0" stroke="#999"/>
<text x="188.0" y="531.0" text-anchor="end" fill="#666" transform="rotate(-50 188.0 531.0)">25.17</text>
<line x1="228.0" y1="516.0" x2="228.0" y2="519.0" stroke="#999"/>
<text x="228.0" y="531.0" text-anchor="end" fill="#666" transform="rotate(-50 228.0 531.0)">25.18</text>
<line x1="268.0" y1="516.0" x2="268.0" y2="519.0" stroke="#999"/>
<text x="268.0" y="531.0" text-anchor="end" fill="#666" transform="rotate(-50 268.0 531.0)">25.19</text>
<line x1="308.0" y1="516.0" x2="308.0" y2="519.0" stroke="#999"/>
<text x="308.0" y="531.0" text-anchor="end" fill="#666" transform="rotate(-50 308.0 531.0)">25.20</text>
<line x1="348.0" y1="516.0" x2="348.0" y2="519.0" stroke="#999"/>
<text x="348.0" y="531.0" text-anchor="end" fill="#666" transform="rotate(-50 348.0 531.0)">25.21</text>
<line x1="388.0" y1="516.0" x2="388.0" y2="519.0" stroke="#999"/>
<text x="388.0" y="531.0" text-anchor="end" fill="#666" transform="rotate(-50 388.0 531.0)">25.22</text>
<line x1="428.0" y1="516.0" x2="428.0" y2="519.0" stroke="#999"/>
<text x="428.0" y="531.0" text-anchor="end" fill="#666" transform="rotate(-50 428.0 531.0)">25.23</text>
<line x1="468.0" y1="516.0" x2="468.0" y2="519.0" stroke="#999"/>
<text x="468.0" y="531.0" text-anchor="end" fill="#666" transform="rotate(-50 468.0 531.0)">25.24</text>
<line x1="508.0" y1="516.0" x2="508.0" y2="519.0" stroke="#999"/>
<text x="508.0" y="531.0" text-anchor="end" fill="#666" transform="rotate(-50 508.0 531.0)">26.1</text>
<line x1="548.0" y1="516.0" x2="548.0" y2="519.0" stroke="#999"/>
<text x="548.0" y="531.0" text-anchor="end" fill="#666" transform="rotate(-50 548.0 531.0)">26.2</text>
<line x1="588.0" y1="516.0" x2="588.0" y2="519.0" stroke="#999"/>
<text x="588.0" y="531.0" text-anchor="end" fill="#666" transform="rotate(-50 588.0 531.0)">26.3</text>
<line x1="628.0" y1="516.0" x2="628.0" y2="519.0" stroke="#999"/>
<text x="628.0" y="531.0" text-anchor="end" fill="#666" transform="rotate(-50 628.0 531.0)">26.4</text>
<line x1="668.0" y1="516.0" x2="668.0" y2="519.0" stroke="#999"/>
<text x="668.0" y="531.0" text-anchor="end" fill="#666" transform="rotate(-50 668.0 531.0)">26.5</text>
<line x1="708.0" y1="516.0" x2="708.0" y2="519.0" stroke="#999"/>
<text x="708.0" y="531.0" text-anchor="end" fill="#666" transform="rotate(-50 708.0 531.0)">26.7</text>
<line x1="748.0" y1="516.0" x2="748.0" y2="519.0" stroke="#999"/>
<text x="748.0" y="531.0" text-anchor="end" fill="#666" transform="rotate(-50 748.0 531.0)">26.8</text>
<line x1="788.0" y1="516.0" x2="788.0" y2="519.0" stroke="#999"/>
<text x="788.0" y="531.0" text-anchor="end" fill="#666" transform="rotate(-50 788.0 531.0)">26.9</text>
<line x1="828.0" y1="516.0" x2="828.0" y2="519.0" stroke="#999"/>
<text x="828.0" y="531.0" text-anchor="end" fill="#666" transform="rotate(-50 828.0 531.0)">26.10</text>
<line x1="868.0" y1="516.0" x2="868.0" y2="519.0" stroke="#999"/>
<text x="868.0" y="531.0" text-anchor="end" fill="#666" transform="rotate(-50 868.0 531.0)">26.11</text>
<line x1="908.0" y1="516.0" x2="908.0" y2="519.0" stroke="#999"/>
<text x="908.0" y="531.0" text-anchor="end" fill="#e8731a" transform="rotate(-50 908.0 531.0)">06-25</text>
<line x1="948.0" y1="516.0" x2="948.0" y2="519.0" stroke="#999"/>
<text x="948.0" y="531.0" text-anchor="end" fill="#e8731a" transform="rotate(-50 948.0 531.0)">06-26</text>
<line x1="988.0" y1="516.0" x2="988.0" y2="519.0" stroke="#999"/>
<text x="988.0" y="531.0" text-anchor="end" fill="#e8731a" transform="rotate(-50 988.0 531.0)">06-28</text>
<line x1="1028.0" y1="516.0" x2="1028.0" y2="519.0" stroke="#999"/>
<text x="1028.0" y="531.0" text-anchor="end" fill="#e8731a" transform="rotate(-50 1028.0 531.0)">07-01</text>
<line x1="1068.0" y1="516.0" x2="1068.0" y2="519.0" stroke="#999"/>
<text x="1068.0" y="531.0" text-anchor="end" fill="#e8731a" transform="rotate(-50 1068.0 531.0)">07-02</text>
<line x1="1108.0" y1="516.0" x2="1108.0" y2="519.0" stroke="#999"/>
<text x="1108.0" y="531.0" text-anchor="end" fill="#e8731a" transform="rotate(-50 1108.0 531.0)">07-03</text>
<polygon points="68.0,514.8 108.0,515.3 148.0,515.3 188.0,515.2 228.0,515.3 268.0,515.2 308.0,515.2 348.0,515.2 388.0,515.2 428.0,515.2 468.0,515.1 508.0,515.1 548.0,515.2 588.0,515.2 628.0,515.2 668.0,515.1 708.0,515.1 748.0,515.0 788.0,515.0 828.0,515.1 868.0,515.0 908.0,514.8 948.0,515.0 988.0,515.0 1028.0,515.0 1068.0,514.8 1108.0,514.8 1108.0,516.0 1068.0,516.0 1028.0,516.0 988.0,516.0 948.0,516.0 908.0,516.0 868.0,516.0 828.0,516.0 788.0,516.0 748.0,516.0 708.0,516.0 668.0,516.0 628.0,516.0 588.0,516.0 548.0,516.0 508.0,516.0 468.0,516.0 428.0,516.0 388.0,516.0 348.0,516.0 308.0,516.0 268.0,516.0 228.0,516.0 188.0,516.0 148.0,516.0 108.0,516.0 68.0,516.0" fill="#c7e9c0" fill-opacity="0.9" stroke="#fff" stroke-width="0.4"><title>module_link — parseTranslationUnit</title></polygon>
<polygon points="68.0,391.9 108.0,404.2 148.0,405.5 188.0,383.7 228.0,382.7 268.0,378.1 308.0,379.4 348.0,373.8 388.0,363.9 428.0,364.2 468.0,349.0 508.0,343.0 548.0,338.5 588.0,341.2 628.0,334.7 668.0,333.0 708.0,307.9 748.0,308.1 788.0,310.2 828.0,308.5 868.0,327.6 908.0,325.9 948.0,318.2 988.0,319.4 1028.0,316.7 1068.0,325.8 1108.0,285.2 1108.0,514.8 1068.0,514.8 1028.0,515.0 988.0,515.0 948.0,515.0 908.0,514.8 868.0,515.0 828.0,515.1 788.0,515.0 748.0,515.0 708.0,515.1 668.0,515.1 628.0,515.2 588.0,515.2 548.0,515.2 508.0,515.1 468.0,515.1 428.0,515.2 388.0,515.2 348.0,515.2 308.0,515.2 268.0,515.2 228.0,515.3 188.0,515.2 148.0,515.3 108.0,515.3 68.0,514.8" fill="#41ab5d" fill-opacity="0.9" stroke="#fff" stroke-width="0.4"><title>module_link — SemanticChecking</title></polygon>
<polygon points="68.0,389.4 108.0,401.8 148.0,403.0 188.0,381.0 228.0,379.9 268.0,375.2 308.0,376.6 348.0,371.0 388.0,361.0 428.0,361.4 468.0,346.2 508.0,340.1 548.0,335.6 588.0,338.3 628.0,331.8 668.0,330.1 708.0,304.7 748.0,304.9 788.0,307.0 828.0,305.3 868.0,317.0 908.0,314.0 948.0,307.4 988.0,308.4 1028.0,306.0 1068.0,314.4 1108.0,272.9 1108.0,285.2 1068.0,325.8 1028.0,316.7 988.0,319.4 948.0,318.2 908.0,325.9 868.0,327.6 828.0,308.5 788.0,310.2 748.0,308.1 708.0,307.9 668.0,333.0 628.0,334.7 588.0,341.2 548.0,338.5 508.0,343.0 468.0,349.0 428.0,364.2 388.0,363.9 348.0,373.8 308.0,379.4 268.0,378.1 228.0,382.7 188.0,383.7 148.0,405.5 108.0,404.2 68.0,391.9" fill="#006d2c" fill-opacity="0.9" stroke="#fff" stroke-width="0.4"><title>module_link — generateIR</title></polygon>
<polygon points="68.0,387.7 108.0,399.9 148.0,401.0 188.0,378.6 228.0,377.8 268.0,373.0 308.0,374.4 348.0,368.6 388.0,358.7 428.0,358.8 468.0,343.7 508.0,337.5 548.0,332.9 588.0,335.6 628.0,328.8 668.0,327.0 708.0,300.3 748.0,300.8 788.0,302.8 828.0,301.0 868.0,315.9 908.0,312.3 948.0,306.1 988.0,307.3 1028.0,304.7 1068.0,313.2 1108.0,271.7 1108.0,272.9 1068.0,314.4 1028.0,306.0 988.0,308.4 948.0,307.4 908.0,314.0 868.0,317.0 828.0,305.3 788.0,307.0 748.0,304.9 708.0,304.7 668.0,330.1 628.0,331.8 588.0,338.3 548.0,335.6 508.0,340.1 468.0,346.2 428.0,361.4 388.0,361.0 348.0,371.0 308.0,376.6 268.0,375.2 228.0,379.9 188.0,381.0 148.0,403.0 108.0,401.8 68.0,389.4" fill="#74c476" fill-opacity="0.9" stroke="#fff" stroke-width="0.4"><title>module_link — frontEndExecute (self)</title></polygon>
<polygon points="68.0,384.4 108.0,396.6 148.0,397.8 188.0,375.4 228.0,374.5 268.0,369.6 308.0,370.9 348.0,365.1 388.0,355.1 428.0,355.3 468.0,339.0 508.0,332.8 548.0,328.3 588.0,330.8 628.0,323.9 668.0,321.9 708.0,285.0 748.0,285.3 788.0,287.3 828.0,285.5 868.0,304.6 908.0,299.8 948.0,293.9 988.0,295.0 1028.0,292.3 1068.0,300.1 1108.0,258.9 1108.0,271.7 1068.0,313.2 1028.0,304.7 988.0,307.3 948.0,306.1 908.0,312.3 868.0,315.9 828.0,301.0 788.0,302.8 748.0,300.8 708.0,300.3 668.0,327.0 628.0,328.8 588.0,335.6 548.0,332.9 508.0,337.5 468.0,343.7 428.0,358.8 388.0,358.7 348.0,368.6 308.0,374.4 268.0,373.0 228.0,377.8 188.0,378.6 148.0,401.0 108.0,399.9 68.0,387.7" fill="#6baed6" fill-opacity="0.9" stroke="#fff" stroke-width="0.4"><title>module_link — specializeModule</title></polygon>
<polygon points="68.0,376.0 108.0,388.1 148.0,389.3 188.0,365.9 228.0,365.0 268.0,359.9 308.0,361.3 348.0,355.5 388.0,345.5 428.0,345.7 468.0,330.2 508.0,324.1 548.0,319.6 588.0,322.1 628.0,314.7 668.0,312.9 708.0,266.1 748.0,266.3 788.0,268.2 828.0,266.3 868.0,286.9 908.0,281.3 948.0,275.8 988.0,276.8 1028.0,274.1 1068.0,284.7 1108.0,243.3 1108.0,258.9 1068.0,300.1 1028.0,292.3 988.0,295.0 948.0,293.9 908.0,299.8 868.0,304.6 828.0,285.5 788.0,287.3 748.0,285.3 708.0,285.0 668.0,321.9 628.0,323.9 588.0,330.8 548.0,328.3 508.0,332.8 468.0,339.0 428.0,355.3 388.0,355.1 348.0,365.1 308.0,370.9 268.0,369.6 228.0,374.5 188.0,375.4 148.0,397.8 108.0,396.6 68.0,384.4" fill="#2171b5" fill-opacity="0.9" stroke="#fff" stroke-width="0.4"><title>module_link — simplifyIR</title></polygon>
<polygon points="68.0,355.9 108.0,369.1 148.0,370.5 188.0,345.0 228.0,344.1 268.0,339.0 308.0,340.3 348.0,334.4 388.0,323.9 428.0,324.3 468.0,309.0 508.0,302.5 548.0,296.1 588.0,298.7 628.0,290.1 668.0,287.8 708.0,167.3 748.0,168.2 788.0,168.7 828.0,166.9 868.0,259.4 908.0,251.4 948.0,245.8 988.0,247.1 1028.0,244.0 1068.0,253.0 1108.0,212.3 1108.0,243.3 1068.0,284.7 1028.0,274.1 988.0,276.8 948.0,275.8 908.0,281.3 868.0,286.9 828.0,266.3 788.0,268.2 748.0,266.3 708.0,266.1 668.0,312.9 628.0,314.7 588.0,322.1 548.0,319.6 508.0,324.1 468.0,330.2 428.0,345.7 388.0,345.5 348.0,355.5 308.0,361.3 268.0,359.9 228.0,365.0 188.0,365.9 148.0,389.3 108.0,388.1 68.0,376.0" fill="#08306b" fill-opacity="0.9" stroke="#fff" stroke-width="0.4"><title>module_link — linkIR</title></polygon>
<polygon points="68.0,355.8 108.0,369.0 148.0,370.3 188.0,344.9 228.0,343.9 268.0,338.8 308.0,340.2 348.0,334.2 388.0,323.7 428.0,324.1 468.0,308.8 508.0,302.4 548.0,296.0 588.0,298.5 628.0,289.9 668.0,287.6 708.0,167.2 748.0,168.2 788.0,168.6 828.0,166.8 868.0,259.3 908.0,251.3 948.0,245.7 988.0,247.0 1028.0,243.9 1068.0,252.9 1108.0,212.1 1108.0,212.3 1068.0,253.0 1028.0,244.0 988.0,247.1 948.0,245.8 908.0,251.4 868.0,259.4 828.0,166.9 788.0,168.7 748.0,168.2 708.0,167.3 668.0,287.8 628.0,290.1 588.0,298.7 548.0,296.1 508.0,302.5 468.0,309.0 428.0,324.3 388.0,323.9 348.0,334.4 308.0,340.3 268.0,339.0 228.0,344.1 188.0,345.0 148.0,370.5 108.0,369.1 68.0,355.9" fill="#9e9ac8" fill-opacity="0.9" stroke="#fff" stroke-width="0.4"><title>module_link — unrollLoopsInModule</title></polygon>
<polygon points="68.0,350.1 108.0,363.3 148.0,364.5 188.0,339.1 228.0,340.9 268.0,335.7 308.0,337.2 348.0,331.2 388.0,320.7 428.0,321.0 468.0,305.8 508.0,299.4 548.0,293.0 588.0,295.5 628.0,286.8 668.0,284.5 708.0,164.0 748.0,164.9 788.0,165.5 828.0,163.7 868.0,256.1 908.0,247.8 948.0,242.4 988.0,243.6 1028.0,240.5 1068.0,249.5 1108.0,208.6 1108.0,212.1 1068.0,252.9 1028.0,243.9 988.0,247.0 948.0,245.7 908.0,251.3 868.0,259.3 828.0,166.8 788.0,168.6 748.0,168.2 708.0,167.2 668.0,287.6 628.0,289.9 588.0,298.5 548.0,296.0 508.0,302.4 468.0,308.8 428.0,324.1 388.0,323.7 348.0,334.2 308.0,340.2 268.0,338.8 228.0,343.9 188.0,344.9 148.0,370.3 108.0,369.0 68.0,355.8" fill="#807dba" fill-opacity="0.9" stroke="#fff" stroke-width="0.4"><title>module_link — legalizeResourceTypes</title></polygon>
<polygon points="68.0,344.3 108.0,357.5 148.0,358.5 188.0,333.3 228.0,337.9 268.0,332.6 308.0,334.1 348.0,328.1 388.0,317.6 428.0,317.9 468.0,302.6 508.0,296.3 548.0,289.8 588.0,292.4 628.0,283.6 668.0,281.4 708.0,160.7 748.0,161.6 788.0,162.2 828.0,160.4 868.0,252.8 908.0,244.2 948.0,238.9 988.0,240.2 1028.0,236.9 1068.0,246.0 1108.0,205.0 1108.0,208.6 1068.0,249.5 1028.0,240.5 988.0,243.6 948.0,242.4 908.0,247.8 868.0,256.1 828.0,163.7 788.0,165.5 748.0,164.9 708.0,164.0 668.0,284.5 628.0,286.8 588.0,295.5 548.0,293.0 508.0,299.4 468.0,305.8 428.0,321.0 388.0,320.7 348.0,331.2 308.0,337.2 268.0,335.7 228.0,340.9 188.0,339.1 148.0,364.5 108.0,363.3 68.0,350.1" fill="#6a51a3" fill-opacity="0.9" stroke="#fff" stroke-width="0.4"><title>module_link — legalizeExistentialTypeLayout</title></polygon>
<polygon points="68.0,344.0 108.0,357.3 148.0,358.3 188.0,333.1 228.0,337.7 268.0,332.4 308.0,333.9 348.0,327.9 388.0,317.4 428.0,317.6 468.0,302.4 508.0,296.0 548.0,289.6 588.0,292.1 628.0,283.4 668.0,281.1 708.0,160.5 748.0,161.4 788.0,162.0 828.0,160.2 868.0,252.6 908.0,244.0 948.0,238.7 988.0,240.0 1028.0,236.7 1068.0,245.8 1108.0,204.8 1108.0,205.0 1068.0,246.0 1028.0,236.9 988.0,240.2 948.0,238.9 908.0,244.2 868.0,252.8 828.0,160.4 788.0,162.2 748.0,161.6 708.0,160.7 668.0,281.4 628.0,283.6 588.0,292.4 548.0,289.8 508.0,296.3 468.0,302.6 428.0,317.9 388.0,317.6 348.0,328.1 308.0,334.1 268.0,332.6 228.0,337.9 188.0,333.3 148.0,358.5 108.0,357.5 68.0,344.3" fill="#bcbddc" fill-opacity="0.9" stroke="#fff" stroke-width="0.4"><title>module_link — performMandatoryEarlyInlining</title></polygon>
<polygon points="68.0,343.7 108.0,357.0 148.0,358.0 188.0,332.8 228.0,337.4 268.0,332.1 308.0,333.6 348.0,327.6 388.0,317.1 428.0,317.3 468.0,302.1 508.0,295.7 548.0,289.3 588.0,291.8 628.0,283.0 668.0,280.8 708.0,160.2 748.0,161.0 788.0,161.7 828.0,159.9 868.0,252.3 908.0,243.7 948.0,238.4 988.0,239.7 1028.0,236.4 1068.0,245.5 1108.0,204.5 1108.0,204.8 1068.0,245.8 1028.0,236.7 988.0,240.0 948.0,238.7 908.0,244.0 868.0,252.6 828.0,160.2 788.0,162.0 748.0,161.4 708.0,160.5 668.0,281.1 628.0,283.4 588.0,292.1 548.0,289.6 508.0,296.0 468.0,302.4 428.0,317.6 388.0,317.4 348.0,327.9 308.0,333.9 268.0,332.4 228.0,337.7 188.0,333.1 148.0,358.3 108.0,357.3 68.0,344.0" fill="#dadaeb" fill-opacity="0.9" stroke="#fff" stroke-width="0.4"><title>module_link — performForceInlining</title></polygon>
<polygon points="68.0,334.9 108.0,348.3 148.0,349.3 188.0,323.5 228.0,327.8 268.0,322.4 308.0,323.2 348.0,317.5 388.0,307.1 428.0,307.4 468.0,291.4 508.0,284.8 548.0,278.4 588.0,280.9 628.0,271.2 668.0,269.3 708.0,136.5 748.0,136.9 788.0,137.2 828.0,135.8 868.0,234.3 908.0,223.7 948.0,220.1 988.0,221.2 1028.0,217.9 1068.0,226.5 1108.0,184.0 1108.0,204.5 1068.0,245.5 1028.0,236.4 988.0,239.7 948.0,238.4 908.0,243.7 868.0,252.3 828.0,159.9 788.0,161.7 748.0,161.0 708.0,160.2 668.0,280.8 628.0,283.0 588.0,291.8 548.0,289.3 508.0,295.7 468.0,302.1 428.0,317.3 388.0,317.1 348.0,327.6 308.0,333.6 268.0,332.1 228.0,337.4 188.0,332.8 148.0,358.0 108.0,357.0 68.0,343.7" fill="#4a1486" fill-opacity="0.9" stroke="#fff" stroke-width="0.4"><title>module_link — linkAndOptimizeIR (self)</title></polygon>
<polygon points="68.0,306.8 108.0,320.4 148.0,321.0 188.0,297.8 228.0,305.7 268.0,300.3 308.0,302.2 348.0,296.6 388.0,286.0 428.0,286.3 468.0,269.6 508.0,263.8 548.0,256.8 588.0,259.6 628.0,249.1 668.0,247.1 708.0,113.9 748.0,114.2 788.0,113.6 828.0,113.3 868.0,212.2 908.0,198.6 948.0,197.3 988.0,198.2 1028.0,194.8 1068.0,202.7 1108.0,159.4 1108.0,184.0 1068.0,226.5 1028.0,217.9 988.0,221.2 948.0,220.1 908.0,223.7 868.0,234.3 828.0,135.8 788.0,137.2 748.0,136.9 708.0,136.5 668.0,269.3 628.0,271.2 588.0,280.9 548.0,278.4 508.0,284.8 468.0,291.4 428.0,307.4 388.0,307.1 348.0,317.5 308.0,323.2 268.0,322.4 228.0,327.8 188.0,323.5 148.0,349.3 108.0,348.3 68.0,334.9" fill="#e6550d" fill-opacity="0.9" stroke="#fff" stroke-width="0.4"><title>module_link — generateOutput (self)</title></polygon>
<polygon points="68.0,305.4 108.0,319.5 148.0,320.3 188.0,296.3 228.0,305.1 268.0,299.5 308.0,301.3 348.0,295.5 388.0,284.8 428.0,285.2 468.0,268.2 508.0,262.7 548.0,255.5 588.0,258.4 628.0,246.9 668.0,246.2 708.0,111.4 748.0,112.5 788.0,108.6 828.0,111.6 868.0,212.2 908.0,198.0 948.0,195.8 988.0,197.5 1028.0,193.7 1068.0,199.7 1108.0,159.4 1108.0,159.4 1068.0,202.7 1028.0,194.8 988.0,198.2 948.0,197.3 908.0,198.6 868.0,212.2 828.0,113.3 788.0,113.6 748.0,114.2 708.0,113.9 668.0,247.1 628.0,249.1 588.0,259.6 548.0,256.8 508.0,263.8 468.0,269.6 428.0,286.3 388.0,286.0 348.0,296.6 308.0,302.2 268.0,300.3 228.0,305.7 188.0,297.8 148.0,321.0 108.0,320.4 68.0,306.8" fill="#969696" fill-opacity="0.9" stroke="#fff" stroke-width="0.4"><title>module_link — compileInner (self)</title></polygon>
<text x="12" y="578" fill="#666" font-weight="600">phase buckets</text>
<rect x="12" y="586" width="12" height="12" fill="#c7e9c0"/>
<text x="28" y="596" fill="#222">parseTranslationUnit</text>
<rect x="289" y="586" width="12" height="12" fill="#41ab5d"/>
<text x="305" y="596" fill="#222">SemanticChecking</text>
<rect x="566" y="586" width="12" height="12" fill="#006d2c"/>
<text x="582" y="596" fill="#222">generateIR</text>
<rect x="843" y="586" width="12" height="12" fill="#74c476"/>
<text x="859" y="596" fill="#222">frontEndExecute (self)</text>
<rect x="12" y="604" width="12" height="12" fill="#6baed6"/>
<text x="28" y="614" fill="#222">specializeModule</text>
<rect x="289" y="604" width="12" height="12" fill="#2171b5"/>
<text x="305" y="614" fill="#222">simplifyIR</text>
<rect x="566" y="604" width="12" height="12" fill="#08306b"/>
<text x="582" y="614" fill="#222">linkIR</text>
<rect x="843" y="604" width="12" height="12" fill="#9e9ac8"/>
<text x="859" y="614" fill="#222">unrollLoopsInModule</text>
<rect x="12" y="622" width="12" height="12" fill="#807dba"/>
<text x="28" y="632" fill="#222">legalizeResourceTypes</text>
<rect x="289" y="622" width="12" height="12" fill="#6a51a3"/>
<text x="305" y="632" fill="#222">legalizeExistentialTypeLayout</text>
<rect x="566" y="622" width="12" height="12" fill="#bcbddc"/>
<text x="582" y="632" fill="#222">performMandatoryEarlyInlining</text>
<rect x="843" y="622" width="12" height="12" fill="#dadaeb"/>
<text x="859" y="632" fill="#222">performForceInlining</text>
<rect x="12" y="640" width="12" height="12" fill="#4a1486"/>
<text x="28" y="650" fill="#222">linkAndOptimizeIR (self)</text>
<rect x="289" y="640" width="12" height="12" fill="#fd8d3c"/>
<text x="305" y="650" fill="#222">emitEntryPointsSourceFromIR</text>
<rect x="566" y="640" width="12" height="12" fill="#e6550d"/>
<text x="582" y="650" fill="#222">generateOutput (self)</text>
<rect x="843" y="640" width="12" height="12" fill="#969696"/>
<text x="859" y="650" fill="#222">compileInner (self)</text>
</svg>