<svg xmlns="http://www.w3.org/2000/svg" xmlns:xlink="http://www.w3.org/1999/xlink" width="1132" height="680" viewBox="0 0 1132 680" preserveAspectRatio="xMidYMid meet" font-family="sans-serif" font-size="13">
<rect width="1132" height="680" fill="white"/>
<text x="12" y="30" font-size="20" font-weight="bold">module_link — full phase breakdown across releases (median ms)</text>
<text x="68" y="60" font-size="15" font-weight="600" fill="#1a1a1a">module_link<tspan fill="#888" font-weight="400" text-decoration="none">  1.69×</tspan></text>
<line x1="68.0" y1="516.0" x2="1108.0" y2="516.0" stroke="#eee"/>
<text x="64.0" y="519.0" text-anchor="end" fill="#999">0.0</text>
<line x1="68.0" y1="296.0" x2="1108.0" y2="296.0" stroke="#eee"/>
<text x="64.0" y="299.0" text-anchor="end" fill="#999">83</text>
<line x1="68.0" y1="76.0" x2="1108.0" y2="76.0" stroke="#eee"/>
<text x="64.0" y="79.0" text-anchor="end" fill="#999">166</text>
<line x1="68.0" y1="76.0" x2="68.0" y2="516.0" stroke="#333"/>
<line x1="68.0" y1="516.0" x2="1108.0" y2="516.0" stroke="#333"/>
<line x1="888.0" y1="76.0" x2="888.0" y2="516.0" stroke="#e8731a" stroke-width="1.2" stroke-dasharray="4 3"/>
<text x="891.0" y="87.0" fill="#e8731a" font-size="11">daily →</text>
<line x1="68.0" y1="516.0" x2="68.0" y2="519.0" stroke="#999"/>
<text x="68.0" y="531.0" text-anchor="end" fill="#666" transform="rotate(-50 68.0 531.0)">25.14</text>
<line x1="108.0" y1="516.0" x2="108.0" y2="519.0" stroke="#999"/>
<text x="108.0" y="531.0" text-anchor="end" fill="#666" transform="rotate(-50 108.0 531.0)">25.15</text>
<line x1="148.0" y1="516.0" x2="148.0" y2="519.0" stroke="#999"/>
<text x="148.0" y="531.0" text-anchor="end" fill="#666" transform="rotate(-50 148.0 531.0)">25.16</text>
<line x1="188.0" y1="516.0" x2="188.0" y2="519.0" stroke="#999"/>
<text x="188.0" y="531.0" text-anchor="end" fill="#666" transform="rotate(-50 188.0 531.0)">25.17</text>
<line x1="228.0" y1="516.0" x2="228.0" y2="519.0" stroke="#999"/>
<text x="228.0" y="531.0" text-anchor="end" fill="#666" transform="rotate(-50 228.0 531.0)">25.18</text>
<line x1="268.0" y1="516.0" x2="268.0" y2="519.0" stroke="#999"/>
<text x="268.0" y="531.0" text-anchor="end" fill="#666" transform="rotate(-50 268.0 531.0)">25.19</text>
<line x1="308.0" y1="516.0" x2="308.0" y2="519.0" stroke="#999"/>
<text x="308.0" y="531.0" text-anchor="end" fill="#666" transform="rotate(-50 308.0 531.0)">25.20</text>
<line x1="348.0" y1="516.0" x2="348.0" y2="519.0" stroke="#999"/>
<text x="348.0" y="531.0" text-anchor="end" fill="#666" transform="rotate(-50 348.0 531.0)">25.21</text>
<line x1="388.0" y1="516.0" x2="388.0" y2="519.0" stroke="#999"/>
<text x="388.0" y="531.0" text-anchor="end" fill="#666" transform="rotate(-50 388.0 531.0)">25.22</text>
<line x1="428.0" y1="516.0" x2="428.0" y2="519.0" stroke="#999"/>
<text x="428.0" y="531.0" text-anchor="end" fill="#666" transform="rotate(-50 428.0 531.0)">25.23</text>
<line x1="468.0" y1="516.0" x2="468.0" y2="519.0" stroke="#999"/>
<text x="468.0" y="531.0" text-anchor="end" fill="#666" transform="rotate(-50 468.0 531.0)">25.24</text>
<line x1="508.0" y1="516.0" x2="508.0" y2="519.0" stroke="#999"/>
<text x="508.0" y="531.0" text-anchor="end" fill="#666" transform="rotate(-50 508.0 531.0)">26.1</text>
<line x1="548.0" y1="516.0" x2="548.0" y2="519.0" stroke="#999"/>
<text x="548.0" y="531.0" text-anchor="end" fill="#666" transform="rotate(-50 548.0 531.0)">26.2</text>
<line x1="588.0" y1="516.0" x2="588.0" y2="519.0" stroke="#999"/>
<text x="588.0" y="531.0" text-anchor="end" fill="#666" transform="rotate(-50 588.0 531.0)">26.3</text>
<line x1="628.0" y1="516.0" x2="628.0" y2="519.0" stroke="#999"/>
<text x="628.0" y="531.0" text-anchor="end" fill="#666" transform="rotate(-50 628.0 531.0)">26.4</text>
<line x1="668.0" y1="516.0" x2="668.0" y2="519.0" stroke="#999"/>
<text x="668.0" y="531.0" text-anchor="end" fill="#666" transform="rotate(-50 668.0 531.0)">26.5</text>
<line x1="708.0" y1="516.0" x2="708.0" y2="519.0" stroke="#999"/>
<text x="708.0" y="531.0" text-anchor="end" fill="#666" transform="rotate(-50 708.0 531.0)">26.7</text>
<line x1="748.0" y1="516.0" x2="748.0" y2="519.0" stroke="#999"/>
<text x="748.0" y="531.0" text-anchor="end" fill="#666" transform="rotate(-50 748.0 531.0)">26.8</text>
<line x1="788.0" y1="516.0" x2="788.0" y2="519.0" stroke="#999"/>
<text x="788.0" y="531.0" text-anchor="end" fill="#666" transform="rotate(-50 788.0 531.0)">26.9</text>
<line x1="828.0" y1="516.0" x2="828.0" y2="519.0" stroke="#999"/>
<text x="828.0" y="531.0" text-anchor="end" fill="#666" transform="rotate(-50 828.0 531.0)">26.10</text>
<line x1="868.0" y1="516.0" x2="868.0" y2="519.0" stroke="#999"/>
<text x="868.0" y="531.0" text-anchor="end" fill="#666" transform="rotate(-50 868.0 531.0)">26.11</text>
<line x1="908.0" y1="516.0" x2="908.0" y2="519.0" stroke="#999"/>
<text x="908.0" y="531.0" text-anchor="end" fill="#e8731a" transform="rotate(-50 908.0 531.0)">06-25</text>
<line x1="948.0" y1="516.0" x2="948.0" y2="519.0" stroke="#999"/>
<text x="948.0" y="531.0" text-anchor="end" fill="#e8731a" transform="rotate(-50 948.0 531.0)">06-26</text>
<line x1="988.0" y1="516.0" x2="988.0" y2="519.0" stroke="#999"/>
<text x="988.0" y="531.0" text-anchor="end" fill="#e8731a" transform="rotate(-50 988.0 531.0)">06-28</text>
<line x1="1028.0" y1="516.0" x2="1028.0" y2="519.0" stroke="#999"/>
<text x="1028.0" y="531.0" text-anchor="end" fill="#e8731a" transform="rotate(-50 1028.0 531.0)">07-01</text>
<line x1="1068.0" y1="516.0" x2="1068.0" y2="519.0" stroke="#999"/>
<text x="1068.0" y="531.0" text-anchor="end" fill="#e8731a" transform="rotate(-50 1068.0 531.0)">07-02</text>
<line x1="1108.0" y1="516.0" x2="1108.0" y2="519.0" stroke="#999"/>
<text x="1108.0" y="531.0" text-anchor="end" fill="#e8731a" transform="rotate(-50 1108.0 531.0)">07-03</text>
<polygon points="68.0,514.9 108.0,515.3 148.0,515.4 188.0,515.3 228.0,515.3 268.0,515.3 308.0,515.3 348.0,515.3 388.0,515.3 428.0,515.3 468.0,515.2 508.0,515.2 548.0,515.3 588.0,515.3 628.0,515.3 668.0,515.2 708.0,515.2 748.0,515.2 788.0,515.2 828.0,515.2 868.0,515.1 908.0,515.1 948.0,515.1 988.0,515.1 1028.0,515.1 1068.0,514.6 1108.0,514.9 1108.0,516.0 1068.0,516.0 1028.0,516.0 988.0,516.0 948.0,516.0 908.0,516.0 868.0,516.0 828.0,516.0 788.0,516.0 748.0,516.0 708.0,516.0 668.0,516.0 628.0,516.0 588.0,516.0 548.0,516.0 508.0,516.0 468.0,516.0 428.0,516.0 388.0,516.0 348.0,516.0 308.0,516.0 268.0,516.0 228.0,516.0 188.0,516.0 148.0,516.0 108.0,516.0 68.0,516.0" fill="#c7e9c0" fill-opacity="0.9" stroke="#fff" stroke-width="0.4"><title>module_link — parseTranslationUnit</title></polygon>
<polygon points="68.0,405.9 108.0,416.9 148.0,418.0 188.0,398.7 228.0,397.8 268.0,393.7 308.0,394.9 348.0,389.9 388.0,381.1 428.0,381.4 468.0,368.0 508.0,362.6 548.0,358.6 588.0,361.0 628.0,355.3 668.0,353.8 708.0,331.5 748.0,331.6 788.0,333.5 828.0,332.0 868.0,348.9 908.0,339.9 948.0,340.6 988.0,341.7 1028.0,339.3 1068.0,287.1 1108.0,311.4 1108.0,514.9 1068.0,514.6 1028.0,515.1 988.0,515.1 948.0,515.1 908.0,515.1 868.0,515.1 828.0,515.2 788.0,515.2 748.0,515.2 708.0,515.2 668.0,515.2 628.0,515.3 588.0,515.3 548.0,515.3 508.0,515.2 468.0,515.2 428.0,515.3 388.0,515.3 348.0,515.3 308.0,515.3 268.0,515.3 228.0,515.3 188.0,515.3 148.0,515.4 108.0,515.3 68.0,514.9" fill="#41ab5d" fill-opacity="0.9" stroke="#fff" stroke-width="0.4"><title>module_link — SemanticChecking</title></polygon>
<polygon points="68.0,403.7 108.0,414.7 148.0,415.8 188.0,396.3 228.0,395.4 268.0,391.1 308.0,392.4 348.0,387.5 388.0,378.6 428.0,378.9 468.0,365.5 508.0,360.1 548.0,356.1 588.0,358.5 628.0,352.6 668.0,351.2 708.0,328.6 748.0,328.8 788.0,330.7 828.0,329.2 868.0,339.5 908.0,330.4 948.0,331.0 988.0,331.9 1028.0,329.8 1068.0,271.5 1108.0,300.5 1108.0,311.4 1068.0,287.1 1028.0,339.3 988.0,341.7 948.0,340.6 908.0,339.9 868.0,348.9 828.0,332.0 788.0,333.5 748.0,331.6 708.0,331.5 668.0,353.8 628.0,355.3 588.0,361.0 548.0,358.6 508.0,362.6 468.0,368.0 428.0,381.4 388.0,381.1 348.0,389.9 308.0,394.9 268.0,393.7 228.0,397.8 188.0,398.7 148.0,418.0 108.0,416.9 68.0,405.9" fill="#006d2c" fill-opacity="0.9" stroke="#fff" stroke-width="0.4"><title>module_link — generateIR</title></polygon>
<polygon points="68.0,402.2 108.0,413.1 148.0,414.0 188.0,394.2 228.0,393.4 268.0,389.2 308.0,390.4 348.0,385.3 388.0,376.5 428.0,376.6 468.0,363.2 508.0,357.7 548.0,353.7 588.0,356.0 628.0,350.0 668.0,348.4 708.0,324.8 748.0,325.2 788.0,327.0 828.0,325.4 868.0,338.6 908.0,329.3 948.0,329.9 988.0,331.0 1028.0,328.7 1068.0,270.4 1108.0,299.4 1108.0,300.5 1068.0,271.5 1028.0,329.8 988.0,331.9 948.0,331.0 908.0,330.4 868.0,339.5 828.0,329.2 788.0,330.7 748.0,328.8 708.0,328.6 668.0,351.2 628.0,352.6 588.0,358.5 548.0,356.1 508.0,360.1 468.0,365.5 428.0,378.9 388.0,378.6 348.0,387.5 308.0,392.4 268.0,391.1 228.0,395.4 188.0,396.3 148.0,415.8 108.0,414.7 68.0,403.7" fill="#74c476" fill-opacity="0.9" stroke="#fff" stroke-width="0.4"><title>module_link — frontEndExecute (self)</title></polygon>
<polygon points="68.0,399.3 108.0,410.2 148.0,411.2 188.0,391.3 228.0,390.5 268.0,386.1 308.0,387.4 348.0,382.2 388.0,373.3 428.0,373.5 468.0,359.0 508.0,353.5 548.0,349.5 588.0,351.8 628.0,345.7 668.0,343.9 708.0,311.1 748.0,311.4 788.0,313.2 828.0,311.6 868.0,328.6 908.0,318.2 948.0,319.1 988.0,320.0 1028.0,317.7 1068.0,253.0 1108.0,288.0 1108.0,299.4 1068.0,270.4 1028.0,328.7 988.0,331.0 948.0,329.9 908.0,329.3 868.0,338.6 828.0,325.4 788.0,327.0 748.0,325.2 708.0,324.8 668.0,348.4 628.0,350.0 588.0,356.0 548.0,353.7 508.0,357.7 468.0,363.2 428.0,376.6 388.0,376.5 348.0,385.3 308.0,390.4 268.0,389.2 228.0,393.4 188.0,394.2 148.0,414.0 108.0,413.1 68.0,402.2" fill="#6baed6" fill-opacity="0.9" stroke="#fff" stroke-width="0.4"><title>module_link — specializeModule</title></polygon>
<polygon points="68.0,391.8 108.0,402.6 148.0,403.6 188.0,382.9 228.0,382.1 268.0,377.6 308.0,378.8 348.0,373.7 388.0,364.8 428.0,365.0 468.0,351.2 508.0,345.8 548.0,341.8 588.0,344.1 628.0,337.5 668.0,335.9 708.0,294.4 748.0,294.6 788.0,296.3 828.0,294.6 868.0,312.9 908.0,302.0 948.0,303.0 988.0,303.9 1028.0,301.5 1068.0,231.1 1108.0,274.2 1108.0,288.0 1068.0,253.0 1028.0,317.7 988.0,320.0 948.0,319.1 908.0,318.2 868.0,328.6 828.0,311.6 788.0,313.2 748.0,311.4 708.0,311.1 668.0,343.9 628.0,345.7 588.0,351.8 548.0,349.5 508.0,353.5 468.0,359.0 428.0,373.5 388.0,373.3 348.0,382.2 308.0,387.4 268.0,386.1 228.0,390.5 188.0,391.3 148.0,411.2 108.0,410.2 68.0,399.3" fill="#2171b5" fill-opacity="0.9" stroke="#fff" stroke-width="0.4"><title>module_link — simplifyIR</title></polygon>
<polygon points="68.0,374.0 108.0,385.8 148.0,386.9 188.0,364.4 228.0,363.6 268.0,359.0 308.0,360.2 348.0,355.0 388.0,345.7 428.0,346.0 468.0,332.4 508.0,326.7 548.0,321.0 588.0,323.3 628.0,315.7 668.0,313.7 708.0,206.8 748.0,207.6 788.0,208.1 828.0,206.5 868.0,288.5 908.0,275.5 948.0,276.4 988.0,277.5 1028.0,274.8 1068.0,180.0 1108.0,246.7 1108.0,274.2 1068.0,231.1 1028.0,301.5 988.0,303.9 948.0,303.0 908.0,302.0 868.0,312.9 828.0,294.6 788.0,296.3 748.0,294.6 708.0,294.4 668.0,335.9 628.0,337.5 588.0,344.1 548.0,341.8 508.0,345.8 468.0,351.2 428.0,365.0 388.0,364.8 348.0,373.7 308.0,378.8 268.0,377.6 228.0,382.1 188.0,382.9 148.0,403.6 108.0,402.6 68.0,391.8" fill="#08306b" fill-opacity="0.9" stroke="#fff" stroke-width="0.4"><title>module_link — linkIR</title></polygon>
<polygon points="68.0,373.9 108.0,385.7 148.0,386.8 188.0,364.2 228.0,363.4 268.0,358.9 308.0,360.1 348.0,354.8 388.0,345.5 428.0,345.9 468.0,332.3 508.0,326.6 548.0,320.9 588.0,323.2 628.0,315.5 668.0,313.5 708.0,206.7 748.0,207.6 788.0,208.0 828.0,206.4 868.0,288.4 908.0,275.4 948.0,276.4 988.0,277.5 1028.0,274.8 1068.0,179.8 1108.0,246.6 1108.0,246.7 1068.0,180.0 1028.0,274.8 988.0,277.5 948.0,276.4 908.0,275.5 868.0,288.5 828.0,206.5 788.0,208.1 748.0,207.6 708.0,206.8 668.0,313.7 628.0,315.7 588.0,323.3 548.0,321.0 508.0,326.7 468.0,332.4 428.0,346.0 388.0,345.7 348.0,355.0 308.0,360.2 268.0,359.0 228.0,363.6 188.0,364.4 148.0,386.9 108.0,385.8 68.0,374.0" fill="#9e9ac8" fill-opacity="0.9" stroke="#fff" stroke-width="0.4"><title>module_link — unrollLoopsInModule</title></polygon>
<polygon points="68.0,368.9 108.0,380.6 148.0,381.6 188.0,359.2 228.0,360.8 268.0,356.2 308.0,357.5 348.0,352.1 388.0,342.8 428.0,343.1 468.0,329.6 508.0,323.9 548.0,318.2 588.0,320.5 628.0,312.8 668.0,310.8 708.0,203.9 748.0,204.7 788.0,205.2 828.0,203.6 868.0,285.5 908.0,272.4 948.0,273.4 988.0,274.5 1028.0,271.7 1068.0,175.5 1108.0,243.4 1108.0,246.6 1068.0,179.8 1028.0,274.8 988.0,277.5 948.0,276.4 908.0,275.4 868.0,288.4 828.0,206.4 788.0,208.0 748.0,207.6 708.0,206.7 668.0,313.5 628.0,315.5 588.0,323.2 548.0,320.9 508.0,326.6 468.0,332.3 428.0,345.9 388.0,345.5 348.0,354.8 308.0,360.1 268.0,358.9 228.0,363.4 188.0,364.2 148.0,386.8 108.0,385.7 68.0,373.9" fill="#807dba" fill-opacity="0.9" stroke="#fff" stroke-width="0.4"><title>module_link — legalizeResourceTypes</title></polygon>
<polygon points="68.0,363.7 108.0,375.5 148.0,376.4 188.0,354.0 228.0,358.1 268.0,353.4 308.0,354.7 348.0,349.4 388.0,340.1 428.0,340.3 468.0,326.8 508.0,321.2 548.0,315.5 588.0,317.7 628.0,310.0 668.0,308.0 708.0,201.0 748.0,201.7 788.0,202.3 828.0,200.7 868.0,282.6 908.0,269.2 948.0,270.3 988.0,271.4 1028.0,268.6 1068.0,171.0 1108.0,240.3 1108.0,243.4 1068.0,175.5 1028.0,271.7 988.0,274.5 948.0,273.4 908.0,272.4 868.0,285.5 828.0,203.6 788.0,205.2 748.0,204.7 708.0,203.9 668.0,310.8 628.0,312.8 588.0,320.5 548.0,318.2 508.0,323.9 468.0,329.6 428.0,343.1 388.0,342.8 348.0,352.1 308.0,357.5 268.0,356.2 228.0,360.8 188.0,359.2 148.0,381.6 108.0,380.6 68.0,368.9" fill="#6a51a3" fill-opacity="0.9" stroke="#fff" stroke-width="0.4"><title>module_link — legalizeExistentialTypeLayout</title></polygon>
<polygon points="68.0,363.5 108.0,375.3 148.0,376.2 188.0,353.8 228.0,357.9 268.0,353.2 308.0,354.5 348.0,349.2 388.0,339.9 428.0,340.1 468.0,326.6 508.0,321.0 548.0,315.2 588.0,317.5 628.0,309.7 668.0,307.8 708.0,200.8 748.0,201.6 788.0,202.1 828.0,200.5 868.0,282.4 908.0,269.1 948.0,270.1 988.0,271.3 1028.0,268.4 1068.0,170.7 1108.0,240.1 1108.0,240.3 1068.0,171.0 1028.0,268.6 988.0,271.4 948.0,270.3 908.0,269.2 868.0,282.6 828.0,200.7 788.0,202.3 748.0,201.7 708.0,201.0 668.0,308.0 628.0,310.0 588.0,317.7 548.0,315.5 508.0,321.2 468.0,326.8 428.0,340.3 388.0,340.1 348.0,349.4 308.0,354.7 268.0,353.4 228.0,358.1 188.0,354.0 148.0,376.4 108.0,375.5 68.0,363.7" fill="#bcbddc" fill-opacity="0.9" stroke="#fff" stroke-width="0.4"><title>module_link — performMandatoryEarlyInlining</title></polygon>
<polygon points="68.0,363.3 108.0,375.0 148.0,375.9 188.0,353.5 228.0,357.6 268.0,352.9 308.0,354.3 348.0,348.9 388.0,339.6 428.0,339.8 468.0,326.3 508.0,320.7 548.0,315.0 588.0,317.2 628.0,309.4 668.0,307.5 708.0,200.5 748.0,201.3 788.0,201.8 828.0,200.2 868.0,282.1 908.0,268.8 948.0,269.8 988.0,271.0 1028.0,268.1 1068.0,170.2 1108.0,239.8 1108.0,240.1 1068.0,170.7 1028.0,268.4 988.0,271.3 948.0,270.1 908.0,269.1 868.0,282.4 828.0,200.5 788.0,202.1 748.0,201.6 708.0,200.8 668.0,307.8 628.0,309.7 588.0,317.5 548.0,315.2 508.0,321.0 468.0,326.6 428.0,340.1 388.0,339.9 348.0,349.2 308.0,354.5 268.0,353.2 228.0,357.9 188.0,353.8 148.0,376.2 108.0,375.3 68.0,363.5" fill="#dadaeb" fill-opacity="0.9" stroke="#fff" stroke-width="0.4"><title>module_link — performForceInlining</title></polygon>
<polygon points="68.0,355.5 108.0,367.3 148.0,368.2 188.0,345.3 228.0,349.1 268.0,344.4 308.0,345.0 348.0,340.0 388.0,330.8 428.0,331.1 468.0,316.8 508.0,311.0 548.0,305.3 588.0,307.6 628.0,299.0 668.0,297.3 708.0,179.5 748.0,179.8 788.0,180.1 828.0,178.9 868.0,266.2 908.0,252.5 948.0,253.6 988.0,254.6 1028.0,251.7 1068.0,145.6 1108.0,221.6 1108.0,239.8 1068.0,170.2 1028.0,268.1 988.0,271.0 948.0,269.8 908.0,268.8 868.0,282.1 828.0,200.2 788.0,201.8 748.0,201.3 708.0,200.5 668.0,307.5 628.0,309.4 588.0,317.2 548.0,315.0 508.0,320.7 468.0,326.3 428.0,339.8 388.0,339.6 348.0,348.9 308.0,354.3 268.0,352.9 228.0,357.6 188.0,353.5 148.0,375.9 108.0,375.0 68.0,363.3" fill="#4a1486" fill-opacity="0.9" stroke="#fff" stroke-width="0.4"><title>module_link — linkAndOptimizeIR (self)</title></polygon>
<polygon points="68.0,330.5 108.0,342.5 148.0,343.1 188.0,322.5 228.0,329.5 268.0,324.8 308.0,326.5 348.0,321.4 388.0,312.1 428.0,312.3 468.0,297.6 508.0,292.3 548.0,286.2 588.0,288.7 628.0,279.3 668.0,277.6 708.0,159.5 748.0,159.8 788.0,159.2 828.0,158.9 868.0,246.6 908.0,232.3 948.0,233.4 988.0,234.2 1028.0,231.2 1068.0,108.6 1108.0,199.8 1108.0,221.6 1068.0,145.6 1028.0,251.7 988.0,254.6 948.0,253.6 908.0,252.5 868.0,266.2 828.0,178.9 788.0,180.1 748.0,179.8 708.0,179.5 668.0,297.3 628.0,299.0 588.0,307.6 548.0,305.3 508.0,311.0 468.0,316.8 428.0,331.1 388.0,330.8 348.0,340.0 308.0,345.0 268.0,344.4 228.0,349.1 188.0,345.3 148.0,368.2 108.0,367.3 68.0,355.5" fill="#e6550d" fill-opacity="0.9" stroke="#fff" stroke-width="0.4"><title>module_link — generateOutput (self)</title></polygon>
<polygon points="68.0,329.3 108.0,341.7 148.0,342.5 188.0,321.2 228.0,329.0 268.0,324.0 308.0,325.6 348.0,320.5 388.0,311.0 428.0,311.3 468.0,296.2 508.0,291.4 548.0,285.0 588.0,287.6 628.0,277.4 668.0,276.8 708.0,157.3 748.0,158.3 788.0,154.8 828.0,157.5 868.0,246.6 908.0,231.5 948.0,232.1 988.0,233.6 1028.0,230.2 1068.0,108.6 1108.0,199.8 1108.0,199.8 1068.0,108.6 1028.0,231.2 988.0,234.2 948.0,233.4 908.0,232.3 868.0,246.6 828.0,158.9 788.0,159.2 748.0,159.8 708.0,159.5 668.0,277.6 628.0,279.3 588.0,288.7 548.0,286.2 508.0,292.3 468.0,297.6 428.0,312.3 388.0,312.1 348.0,321.4 308.0,326.5 268.0,324.8 228.0,329.5 188.0,322.5 148.0,343.1 108.0,342.5 68.0,330.5" fill="#969696" fill-opacity="0.9" stroke="#fff" stroke-width="0.4"><title>module_link — compileInner (self)</title></polygon>
<text x="12" y="578" fill="#666" font-weight="600">phase buckets</text>
<rect x="12" y="586" width="12" height="12" fill="#c7e9c0"/>
<text x="28" y="596" fill="#222">parseTranslationUnit</text>
<rect x="289" y="586" width="12" height="12" fill="#41ab5d"/>
<text x="305" y="596" fill="#222">SemanticChecking</text>
<rect x="566" y="586" width="12" height="12" fill="#006d2c"/>
<text x="582" y="596" fill="#222">generateIR</text>
<rect x="843" y="586" width="12" height="12" fill="#74c476"/>
<text x="859" y="596" fill="#222">frontEndExecute (self)</text>
<rect x="12" y="604" width="12" height="12" fill="#6baed6"/>
<text x="28" y="614" fill="#222">specializeModule</text>
<rect x="289" y="604" width="12" height="12" fill="#2171b5"/>
<text x="305" y="614" fill="#222">simplifyIR</text>
<rect x="566" y="604" width="12" height="12" fill="#08306b"/>
<text x="582" y="614" fill="#222">linkIR</text>
<rect x="843" y="604" width="12" height="12" fill="#9e9ac8"/>
<text x="859" y="614" fill="#222">unrollLoopsInModule</text>
<rect x="12" y="622" width="12" height="12" fill="#807dba"/>
<text x="28" y="632" fill="#222">legalizeResourceTypes</text>
<rect x="289" y="622" width="12" height="12" fill="#6a51a3"/>
<text x="305" y="632" fill="#222">legalizeExistentialTypeLayout</text>
<rect x="566" y="622" width="12" height="12" fill="#bcbddc"/>
<text x="582" y="632" fill="#222">performMandatoryEarlyInlining</text>
<rect x="843" y="622" width="12" height="12" fill="#dadaeb"/>
<text x="859" y="632" fill="#222">performForceInlining</text>
<rect x="12" y="640" width="12" height="12" fill="#4a1486"/>
<text x="28" y="650" fill="#222">linkAndOptimizeIR (self)</text>
<rect x="289" y="640" width="12" height="12" fill="#fd8d3c"/>
<text x="305" y="650" fill="#222">emitEntryPointsSourceFromIR</text>
<rect x="566" y="640" width="12" height="12" fill="#e6550d"/>
<text x="582" y="650" fill="#222">generateOutput (self)</text>
<rect x="843" y="640" width="12" height="12" fill="#969696"/>
<text x="859" y="650" fill="#222">compileInner (self)</text>
</svg>