<svg xmlns="http://www.w3.org/2000/svg" xmlns:xlink="http://www.w3.org/1999/xlink" width="1132" height="680" viewBox="0 0 1132 680" preserveAspectRatio="xMidYMid meet" font-family="sans-serif" font-size="13">
<rect width="1132" height="680" fill="white"/>
<text x="12" y="30" font-size="20" font-weight="bold">module_link — Daily tip-of-tree (last 30 days) (median ms)</text>
<text x="68" y="60" font-size="15" font-weight="600" fill="#1a1a1a">module_link<tspan fill="#888" font-weight="400" text-decoration="none">  0.80×</tspan></text>
<line x1="68.0" y1="516.0" x2="1108.0" y2="516.0" stroke="#eee"/>
<text x="64.0" y="519.0" text-anchor="end" fill="#999">0.0</text>
<line x1="68.0" y1="296.0" x2="1108.0" y2="296.0" stroke="#eee"/>
<text x="64.0" y="299.0" text-anchor="end" fill="#999">64</text>
<line x1="68.0" y1="76.0" x2="1108.0" y2="76.0" stroke="#eee"/>
<text x="64.0" y="79.0" text-anchor="end" fill="#999">128</text>
<line x1="68.0" y1="76.0" x2="68.0" y2="516.0" stroke="#333"/>
<line x1="68.0" y1="516.0" x2="1108.0" y2="516.0" stroke="#333"/>
<line x1="68.0" y1="516.0" x2="68.0" y2="519.0" stroke="#999"/>
<text x="68.0" y="531.0" text-anchor="end" fill="#e8731a" transform="rotate(-50 68.0 531.0)">06-25</text>
<line x1="113.2" y1="516.0" x2="113.2" y2="519.0" stroke="#999"/>
<text x="113.2" y="531.0" text-anchor="end" fill="#e8731a" transform="rotate(-50 113.2 531.0)">06-26</text>
<line x1="158.4" y1="516.0" x2="158.4" y2="519.0" stroke="#999"/>
<text x="158.4" y="531.0" text-anchor="end" fill="#e8731a" transform="rotate(-50 158.4 531.0)">06-28</text>
<line x1="203.7" y1="516.0" x2="203.7" y2="519.0" stroke="#999"/>
<text x="203.7" y="531.0" text-anchor="end" fill="#e8731a" transform="rotate(-50 203.7 531.0)">07-01</text>
<line x1="248.9" y1="516.0" x2="248.9" y2="519.0" stroke="#999"/>
<text x="248.9" y="531.0" text-anchor="end" fill="#e8731a" transform="rotate(-50 248.9 531.0)">07-02</text>
<line x1="294.1" y1="516.0" x2="294.1" y2="519.0" stroke="#999"/>
<text x="294.1" y="531.0" text-anchor="end" fill="#e8731a" transform="rotate(-50 294.1 531.0)">07-03</text>
<line x1="339.3" y1="516.0" x2="339.3" y2="519.0" stroke="#999"/>
<text x="339.3" y="531.0" text-anchor="end" fill="#e8731a" transform="rotate(-50 339.3 531.0)">07-06</text>
<line x1="384.5" y1="516.0" x2="384.5" y2="519.0" stroke="#999"/>
<text x="384.5" y="531.0" text-anchor="end" fill="#e8731a" transform="rotate(-50 384.5 531.0)">07-07</text>
<line x1="429.7" y1="516.0" x2="429.7" y2="519.0" stroke="#999"/>
<text x="429.7" y="531.0" text-anchor="end" fill="#e8731a" transform="rotate(-50 429.7 531.0)">07-08</text>
<line x1="475.0" y1="516.0" x2="475.0" y2="519.0" stroke="#999"/>
<text x="475.0" y="531.0" text-anchor="end" fill="#e8731a" transform="rotate(-50 475.0 531.0)">07-09</text>
<line x1="520.2" y1="516.0" x2="520.2" y2="519.0" stroke="#999"/>
<text x="520.2" y="531.0" text-anchor="end" fill="#e8731a" transform="rotate(-50 520.2 531.0)">07-10</text>
<line x1="565.4" y1="516.0" x2="565.4" y2="519.0" stroke="#999"/>
<text x="565.4" y="531.0" text-anchor="end" fill="#e8731a" transform="rotate(-50 565.4 531.0)">07-11</text>
<line x1="610.6" y1="516.0" x2="610.6" y2="519.0" stroke="#999"/>
<text x="610.6" y="531.0" text-anchor="end" fill="#e8731a" transform="rotate(-50 610.6 531.0)">07-14</text>
<line x1="655.8" y1="516.0" x2="655.8" y2="519.0" stroke="#999"/>
<text x="655.8" y="531.0" text-anchor="end" fill="#e8731a" transform="rotate(-50 655.8 531.0)">07-15</text>
<line x1="701.0" y1="516.0" x2="701.0" y2="519.0" stroke="#999"/>
<text x="701.0" y="531.0" text-anchor="end" fill="#e8731a" transform="rotate(-50 701.0 531.0)">07-15</text>
<line x1="746.3" y1="516.0" x2="746.3" y2="519.0" stroke="#999"/>
<text x="746.3" y="531.0" text-anchor="end" fill="#e8731a" transform="rotate(-50 746.3 531.0)">07-16</text>
<line x1="791.5" y1="516.0" x2="791.5" y2="519.0" stroke="#999"/>
<text x="791.5" y="531.0" text-anchor="end" fill="#e8731a" transform="rotate(-50 791.5 531.0)">07-17</text>
<line x1="836.7" y1="516.0" x2="836.7" y2="519.0" stroke="#999"/>
<text x="836.7" y="531.0" text-anchor="end" fill="#e8731a" transform="rotate(-50 836.7 531.0)">07-18</text>
<line x1="881.9" y1="516.0" x2="881.9" y2="519.0" stroke="#999"/>
<text x="881.9" y="531.0" text-anchor="end" fill="#e8731a" transform="rotate(-50 881.9 531.0)">07-19</text>
<line x1="927.1" y1="516.0" x2="927.1" y2="519.0" stroke="#999"/>
<text x="927.1" y="531.0" text-anchor="end" fill="#e8731a" transform="rotate(-50 927.1 531.0)">07-20</text>
<line x1="972.3" y1="516.0" x2="972.3" y2="519.0" stroke="#999"/>
<text x="972.3" y="531.0" text-anchor="end" fill="#e8731a" transform="rotate(-50 972.3 531.0)">07-21</text>
<line x1="1017.6" y1="516.0" x2="1017.6" y2="519.0" stroke="#999"/>
<text x="1017.6" y="531.0" text-anchor="end" fill="#e8731a" transform="rotate(-50 1017.6 531.0)">07-22</text>
<line x1="1062.8" y1="516.0" x2="1062.8" y2="519.0" stroke="#999"/>
<text x="1062.8" y="531.0" text-anchor="end" fill="#e8731a" transform="rotate(-50 1062.8 531.0)">07-23</text>
<line x1="1108.0" y1="516.0" x2="1108.0" y2="519.0" stroke="#999"/>
<text x="1108.0" y="531.0" text-anchor="end" fill="#e8731a" transform="rotate(-50 1108.0 531.0)">07-24</text>
<polygon points="68.0,514.7 113.2,514.7 158.4,514.7 203.7,514.7 248.9,514.6 294.1,514.7 339.3,514.6 384.5,514.8 429.7,514.8 475.0,514.7 520.2,514.7 565.4,514.7 610.6,514.9 655.8,514.8 701.0,514.9 746.3,514.9 791.5,514.8 836.7,515.0 881.9,515.0 927.1,515.1 972.3,515.0 1017.6,515.0 1062.8,515.0 1108.0,515.0 1108.0,516.0 1062.8,516.0 1017.6,516.0 972.3,516.0 927.1,516.0 881.9,516.0 836.7,516.0 791.5,516.0 746.3,516.0 701.0,516.0 655.8,516.0 610.6,516.0 565.4,516.0 520.2,516.0 475.0,516.0 429.7,516.0 384.5,516.0 339.3,516.0 294.1,516.0 248.9,516.0 203.7,516.0 158.4,516.0 113.2,516.0 68.0,516.0" fill="#c7e9c0" fill-opacity="0.9" stroke="#fff" stroke-width="0.4"><title>module_link — parseTranslationUnit</title></polygon>
<polygon points="68.0,291.7 113.2,295.3 158.4,299.5 203.7,297.8 248.9,289.2 294.1,253.4 339.3,255.5 384.5,268.3 429.7,259.9 475.0,258.0 520.2,271.3 565.4,264.1 610.6,265.2 655.8,272.1 701.0,288.5 746.3,284.0 791.5,281.9 836.7,311.0 881.9,311.1 927.1,316.9 972.3,312.7 1017.6,312.7 1062.8,299.8 1108.0,307.5 1108.0,515.0 1062.8,515.0 1017.6,515.0 972.3,515.0 927.1,515.1 881.9,515.0 836.7,515.0 791.5,514.8 746.3,514.9 701.0,514.9 655.8,514.8 610.6,514.9 565.4,514.7 520.2,514.7 475.0,514.7 429.7,514.8 384.5,514.8 339.3,514.6 294.1,514.7 248.9,514.6 203.7,514.7 158.4,514.7 113.2,514.7 68.0,514.7" fill="#41ab5d" fill-opacity="0.9" stroke="#fff" stroke-width="0.4"><title>module_link — SemanticChecking</title></polygon>
<polygon points="68.0,278.0 113.2,281.5 158.4,285.7 203.7,284.0 248.9,275.0 294.1,239.4 339.3,241.3 384.5,254.1 429.7,245.0 475.0,243.7 520.2,257.1 565.4,250.6 610.6,251.9 655.8,259.2 701.0,275.2 746.3,270.6 791.5,269.3 836.7,300.9 881.9,300.3 927.1,306.3 972.3,301.5 1017.6,302.6 1062.8,288.9 1108.0,296.6 1108.0,307.5 1062.8,299.8 1017.6,312.7 972.3,312.7 927.1,316.9 881.9,311.1 836.7,311.0 791.5,281.9 746.3,284.0 701.0,288.5 655.8,272.1 610.6,265.2 565.4,264.1 520.2,271.3 475.0,258.0 429.7,259.9 384.5,268.3 339.3,255.5 294.1,253.4 248.9,289.2 203.7,297.8 158.4,299.5 113.2,295.3 68.0,291.7" fill="#006d2c" fill-opacity="0.9" stroke="#fff" stroke-width="0.4"><title>module_link — generateIR</title></polygon>
<polygon points="68.0,276.6 113.2,280.7 158.4,284.3 203.7,282.7 248.9,273.9 294.1,238.6 339.3,240.8 384.5,252.2 429.7,243.4 475.0,242.2 520.2,255.1 565.4,249.7 610.6,250.1 655.8,257.9 701.0,275.2 746.3,268.6 791.5,269.1 836.7,300.4 881.9,299.1 927.1,304.8 972.3,301.1 1017.6,300.9 1062.8,288.4 1108.0,295.2 1108.0,296.6 1062.8,288.9 1017.6,302.6 972.3,301.5 927.1,306.3 881.9,300.3 836.7,300.9 791.5,269.3 746.3,270.6 701.0,275.2 655.8,259.2 610.6,251.9 565.4,250.6 520.2,257.1 475.0,243.7 429.7,245.0 384.5,254.1 339.3,241.3 294.1,239.4 248.9,275.0 203.7,284.0 158.4,285.7 113.2,281.5 68.0,278.0" fill="#74c476" fill-opacity="0.9" stroke="#fff" stroke-width="0.4"><title>module_link — frontEndExecute (self)</title></polygon>
<polygon points="68.0,261.7 113.2,265.9 158.4,269.3 203.7,267.9 248.9,259.2 294.1,224.1 339.3,226.3 384.5,239.1 429.7,230.3 475.0,228.8 520.2,241.8 565.4,236.8 610.6,236.9 655.8,246.2 701.0,263.5 746.3,256.8 791.5,257.3 836.7,289.6 881.9,288.0 927.1,294.2 972.3,290.1 1017.6,289.9 1062.8,277.4 1108.0,284.5 1108.0,295.2 1062.8,288.4 1017.6,300.9 972.3,301.1 927.1,304.8 881.9,299.1 836.7,300.4 791.5,269.1 746.3,268.6 701.0,275.2 655.8,257.9 610.6,250.1 565.4,249.7 520.2,255.1 475.0,242.2 429.7,243.4 384.5,252.2 339.3,240.8 294.1,238.6 248.9,273.9 203.7,282.7 158.4,284.3 113.2,280.7 68.0,276.6" fill="#6baed6" fill-opacity="0.9" stroke="#fff" stroke-width="0.4"><title>module_link — specializeModule</title></polygon>
<polygon points="68.0,240.6 113.2,244.6 158.4,248.0 203.7,246.7 248.9,241.2 294.1,206.3 339.3,208.4 384.5,221.9 429.7,213.0 475.0,211.3 520.2,227.7 565.4,222.7 610.6,223.0 655.8,234.3 701.0,251.5 746.3,244.9 791.5,245.3 836.7,279.2 881.9,277.4 927.1,283.7 972.3,279.1 1017.6,279.4 1062.8,267.2 1108.0,274.2 1108.0,284.5 1062.8,277.4 1017.6,289.9 972.3,290.1 927.1,294.2 881.9,288.0 836.7,289.6 791.5,257.3 746.3,256.8 701.0,263.5 655.8,246.2 610.6,236.9 565.4,236.8 520.2,241.8 475.0,228.8 429.7,230.3 384.5,239.1 339.3,226.3 294.1,224.1 248.9,259.2 203.7,267.9 158.4,269.3 113.2,265.9 68.0,261.7" fill="#2171b5" fill-opacity="0.9" stroke="#fff" stroke-width="0.4"><title>module_link — simplifyIR</title></polygon>
<polygon points="68.0,204.9 113.2,209.7 158.4,212.9 203.7,211.1 248.9,204.6 294.1,171.5 339.3,172.1 384.5,187.5 429.7,177.2 475.0,176.5 520.2,192.8 565.4,188.7 610.6,186.6 655.8,205.7 701.0,222.7 746.3,215.8 791.5,215.5 836.7,257.1 881.9,257.5 927.1,262.1 972.3,258.4 1017.6,257.1 1062.8,246.8 1108.0,254.6 1108.0,274.2 1062.8,267.2 1017.6,279.4 972.3,279.1 927.1,283.7 881.9,277.4 836.7,279.2 791.5,245.3 746.3,244.9 701.0,251.5 655.8,234.3 610.6,223.0 565.4,222.7 520.2,227.7 475.0,211.3 429.7,213.0 384.5,221.9 339.3,208.4 294.1,206.3 248.9,241.2 203.7,246.7 158.4,248.0 113.2,244.6 68.0,240.6" fill="#08306b" fill-opacity="0.9" stroke="#fff" stroke-width="0.4"><title>module_link — linkIR</title></polygon>
<polygon points="68.0,204.8 113.2,209.6 158.4,212.8 203.7,211.0 248.9,204.5 294.1,171.4 339.3,172.0 384.5,187.3 429.7,177.0 475.0,176.4 520.2,192.6 565.4,188.5 610.6,186.5 655.8,205.6 701.0,222.6 746.3,215.7 791.5,215.4 836.7,257.0 881.9,257.4 927.1,262.0 972.3,258.3 1017.6,257.0 1062.8,246.7 1108.0,254.5 1108.0,254.6 1062.8,246.8 1017.6,257.1 972.3,258.4 927.1,262.1 881.9,257.5 836.7,257.1 791.5,215.5 746.3,215.8 701.0,222.7 655.8,205.7 610.6,186.6 565.4,188.7 520.2,192.8 475.0,176.5 429.7,177.2 384.5,187.5 339.3,172.1 294.1,171.5 248.9,204.6 203.7,211.1 158.4,212.9 113.2,209.7 68.0,204.9" fill="#9e9ac8" fill-opacity="0.9" stroke="#fff" stroke-width="0.4"><title>module_link — unrollLoopsInModule</title></polygon>
<polygon points="68.0,200.9 113.2,205.6 158.4,208.8 203.7,207.1 248.9,200.5 294.1,167.4 339.3,168.1 384.5,183.7 429.7,173.5 475.0,172.8 520.2,191.6 565.4,187.4 610.6,185.5 655.8,204.4 701.0,221.6 746.3,214.6 791.5,214.2 836.7,255.9 881.9,256.3 927.1,260.9 972.3,257.1 1017.6,255.9 1062.8,245.6 1108.0,253.4 1108.0,254.5 1062.8,246.7 1017.6,257.0 972.3,258.3 927.1,262.0 881.9,257.4 836.7,257.0 791.5,215.4 746.3,215.7 701.0,222.6 655.8,205.6 610.6,186.5 565.4,188.5 520.2,192.6 475.0,176.4 429.7,177.0 384.5,187.3 339.3,172.0 294.1,171.4 248.9,204.5 203.7,211.0 158.4,212.8 113.2,209.6 68.0,204.8" fill="#807dba" fill-opacity="0.9" stroke="#fff" stroke-width="0.4"><title>module_link — legalizeResourceTypes</title></polygon>
<polygon points="68.0,196.8 113.2,201.5 158.4,204.6 203.7,203.0 248.9,196.4 294.1,163.3 339.3,164.0 384.5,180.0 429.7,169.9 475.0,169.1 520.2,190.6 565.4,186.3 610.6,184.4 655.8,203.3 701.0,220.4 746.3,213.5 791.5,213.0 836.7,254.7 881.9,255.1 927.1,259.7 972.3,255.9 1017.6,254.7 1062.8,244.4 1108.0,252.2 1108.0,253.4 1062.8,245.6 1017.6,255.9 972.3,257.1 927.1,260.9 881.9,256.3 836.7,255.9 791.5,214.2 746.3,214.6 701.0,221.6 655.8,204.4 610.6,185.5 565.4,187.4 520.2,191.6 475.0,172.8 429.7,173.5 384.5,183.7 339.3,168.1 294.1,167.4 248.9,200.5 203.7,207.1 158.4,208.8 113.2,205.6 68.0,200.9" fill="#6a51a3" fill-opacity="0.9" stroke="#fff" stroke-width="0.4"><title>module_link — legalizeExistentialTypeLayout</title></polygon>
<polygon points="68.0,196.5 113.2,201.3 158.4,204.4 203.7,202.7 248.9,196.2 294.1,163.1 339.3,163.8 384.5,179.7 429.7,169.5 475.0,168.8 520.2,190.2 565.4,186.0 610.6,184.0 655.8,203.0 701.0,220.1 746.3,213.2 791.5,212.7 836.7,254.4 881.9,254.8 927.1,259.5 972.3,255.7 1017.6,254.4 1062.8,244.2 1108.0,252.0 1108.0,252.2 1062.8,244.4 1017.6,254.7 972.3,255.9 927.1,259.7 881.9,255.1 836.7,254.7 791.5,213.0 746.3,213.5 701.0,220.4 655.8,203.3 610.6,184.4 565.4,186.3 520.2,190.6 475.0,169.1 429.7,169.9 384.5,180.0 339.3,164.0 294.1,163.3 248.9,196.4 203.7,203.0 158.4,204.6 113.2,201.5 68.0,196.8" fill="#bcbddc" fill-opacity="0.9" stroke="#fff" stroke-width="0.4"><title>module_link — performMandatoryEarlyInlining</title></polygon>
<polygon points="68.0,196.2 113.2,200.9 158.4,204.0 203.7,202.3 248.9,195.8 294.1,162.7 339.3,163.4 384.5,179.3 429.7,169.2 475.0,168.4 520.2,189.8 565.4,185.6 610.6,183.7 655.8,202.6 701.0,219.7 746.3,212.8 791.5,212.3 836.7,254.1 881.9,254.5 927.1,259.2 972.3,255.4 1017.6,254.1 1062.8,243.9 1108.0,251.7 1108.0,252.0 1062.8,244.2 1017.6,254.4 972.3,255.7 927.1,259.5 881.9,254.8 836.7,254.4 791.5,212.7 746.3,213.2 701.0,220.1 655.8,203.0 610.6,184.0 565.4,186.0 520.2,190.2 475.0,168.8 429.7,169.5 384.5,179.7 339.3,163.8 294.1,163.1 248.9,196.2 203.7,202.7 158.4,204.4 113.2,201.3 68.0,196.5" fill="#dadaeb" fill-opacity="0.9" stroke="#fff" stroke-width="0.4"><title>module_link — performForceInlining</title></polygon>
<polygon points="68.0,174.6 113.2,178.4 158.4,183.1 203.7,180.9 248.9,172.5 294.1,139.5 339.3,140.3 384.5,160.3 429.7,150.8 475.0,149.3 520.2,174.8 565.4,169.2 610.6,168.5 655.8,190.4 701.0,207.6 746.3,200.4 791.5,199.8 836.7,243.1 881.9,243.4 927.1,248.6 972.3,244.1 1017.6,243.2 1062.8,231.5 1108.0,241.1 1108.0,251.7 1062.8,243.9 1017.6,254.1 972.3,255.4 927.1,259.2 881.9,254.5 836.7,254.1 791.5,212.3 746.3,212.8 701.0,219.7 655.8,202.6 610.6,183.7 565.4,185.6 520.2,189.8 475.0,168.4 429.7,169.2 384.5,179.3 339.3,163.4 294.1,162.7 248.9,195.8 203.7,202.3 158.4,204.0 113.2,200.9 68.0,196.2" fill="#4a1486" fill-opacity="0.9" stroke="#fff" stroke-width="0.4"><title>module_link — linkAndOptimizeIR (self)</title></polygon>
<polygon points="68.0,146.8 113.2,149.9 158.4,153.9 203.7,152.7 248.9,144.3 294.1,111.2 339.3,111.0 384.5,133.1 429.7,122.2 475.0,120.8 520.2,149.9 565.4,144.9 610.6,145.4 655.8,166.8 701.0,183.1 746.3,177.4 791.5,175.7 836.7,220.3 881.9,221.3 927.1,226.7 972.3,221.6 1017.6,220.2 1062.8,209.1 1108.0,218.7 1108.0,241.1 1062.8,231.5 1017.6,243.2 972.3,244.1 927.1,248.6 881.9,243.4 836.7,243.1 791.5,199.8 746.3,200.4 701.0,207.6 655.8,190.4 610.6,168.5 565.4,169.2 520.2,174.8 475.0,149.3 429.7,150.8 384.5,160.3 339.3,140.3 294.1,139.5 248.9,172.5 203.7,180.9 158.4,183.1 113.2,178.4 68.0,174.6" fill="#e6550d" fill-opacity="0.9" stroke="#fff" stroke-width="0.4"><title>module_link — generateOutput (self)</title></polygon>
<polygon points="68.0,142.9 113.2,149.9 158.4,152.6 203.7,151.4 248.9,142.5 294.1,111.2 339.3,108.6 384.5,132.2 429.7,120.1 475.0,119.6 520.2,149.1 565.4,139.4 610.6,145.4 655.8,165.3 701.0,183.1 746.3,176.3 791.5,170.9 836.7,220.3 881.9,220.9 927.1,224.6 972.3,221.0 1017.6,219.6 1062.8,207.3 1108.0,218.1 1108.0,218.7 1062.8,209.1 1017.6,220.2 972.3,221.6 927.1,226.7 881.9,221.3 836.7,220.3 791.5,175.7 746.3,177.4 701.0,183.1 655.8,166.8 610.6,145.4 565.4,144.9 520.2,149.9 475.0,120.8 429.7,122.2 384.5,133.1 339.3,111.0 294.1,111.2 248.9,144.3 203.7,152.7 158.4,153.9 113.2,149.9 68.0,146.8" fill="#969696" fill-opacity="0.9" stroke="#fff" stroke-width="0.4"><title>module_link — compileInner (self)</title></polygon>
<text x="12" y="578" fill="#666" font-weight="600">phase buckets</text>
<rect x="12" y="586" width="12" height="12" fill="#c7e9c0"/>
<text x="28" y="596" fill="#222">parseTranslationUnit</text>
<rect x="289" y="586" width="12" height="12" fill="#41ab5d"/>
<text x="305" y="596" fill="#222">SemanticChecking</text>
<rect x="566" y="586" width="12" height="12" fill="#006d2c"/>
<text x="582" y="596" fill="#222">generateIR</text>
<rect x="843" y="586" width="12" height="12" fill="#74c476"/>
<text x="859" y="596" fill="#222">frontEndExecute (self)</text>
<rect x="12" y="604" width="12" height="12" fill="#6baed6"/>
<text x="28" y="614" fill="#222">specializeModule</text>
<rect x="289" y="604" width="12" height="12" fill="#2171b5"/>
<text x="305" y="614" fill="#222">simplifyIR</text>
<rect x="566" y="604" width="12" height="12" fill="#08306b"/>
<text x="582" y="614" fill="#222">linkIR</text>
<rect x="843" y="604" width="12" height="12" fill="#9e9ac8"/>
<text x="859" y="614" fill="#222">unrollLoopsInModule</text>
<rect x="12" y="622" width="12" height="12" fill="#807dba"/>
<text x="28" y="632" fill="#222">legalizeResourceTypes</text>
<rect x="289" y="622" width="12" height="12" fill="#6a51a3"/>
<text x="305" y="632" fill="#222">legalizeExistentialTypeLayout</text>
<rect x="566" y="622" width="12" height="12" fill="#bcbddc"/>
<text x="582" y="632" fill="#222">performMandatoryEarlyInlining</text>
<rect x="843" y="622" width="12" height="12" fill="#dadaeb"/>
<text x="859" y="632" fill="#222">performForceInlining</text>
<rect x="12" y="640" width="12" height="12" fill="#4a1486"/>
<text x="28" y="650" fill="#222">linkAndOptimizeIR (self)</text>
<rect x="289" y="640" width="12" height="12" fill="#fd8d3c"/>
<text x="305" y="650" fill="#222">emitEntryPointsSourceFromIR</text>
<rect x="566" y="640" width="12" height="12" fill="#e6550d"/>
<text x="582" y="650" fill="#222">generateOutput (self)</text>
<rect x="843" y="640" width="12" height="12" fill="#969696"/>
<text x="859" y="650" fill="#222">compileInner (self)</text>
</svg>