<svg xmlns="http://www.w3.org/2000/svg" xmlns:xlink="http://www.w3.org/1999/xlink" width="1132" height="680" viewBox="0 0 1132 680" preserveAspectRatio="xMidYMid meet" font-family="sans-serif" font-size="13">
<rect width="1132" height="680" fill="white"/>
<text x="12" y="30" font-size="20" font-weight="bold">module_link — full phase breakdown across releases (median ms)</text>
<text x="68" y="60" font-size="15" font-weight="600" fill="#1a1a1a">module_link<tspan fill="#888" font-weight="400" text-decoration="none">  1.20×</tspan></text>
<line x1="68.0" y1="516.0" x2="1108.0" y2="516.0" stroke="#eee"/>
<text x="64.0" y="519.0" text-anchor="end" fill="#999">0.0</text>
<line x1="68.0" y1="296.0" x2="1108.0" y2="296.0" stroke="#eee"/>
<text x="64.0" y="299.0" text-anchor="end" fill="#999">74</text>
<line x1="68.0" y1="76.0" x2="1108.0" y2="76.0" stroke="#eee"/>
<text x="64.0" y="79.0" text-anchor="end" fill="#999">147</text>
<line x1="68.0" y1="76.0" x2="68.0" y2="516.0" stroke="#333"/>
<line x1="68.0" y1="516.0" x2="1108.0" y2="516.0" stroke="#333"/>
<line x1="68.0" y1="516.0" x2="68.0" y2="519.0" stroke="#999"/>
<text x="68.0" y="531.0" text-anchor="end" fill="#666" transform="rotate(-50 68.0 531.0)">26.1</text>
<line x1="183.6" y1="516.0" x2="183.6" y2="519.0" stroke="#999"/>
<text x="183.6" y="531.0" text-anchor="end" fill="#666" transform="rotate(-50 183.6 531.0)">26.2</text>
<line x1="299.1" y1="516.0" x2="299.1" y2="519.0" stroke="#999"/>
<text x="299.1" y="531.0" text-anchor="end" fill="#666" transform="rotate(-50 299.1 531.0)">26.3</text>
<line x1="414.7" y1="516.0" x2="414.7" y2="519.0" stroke="#999"/>
<text x="414.7" y="531.0" text-anchor="end" fill="#666" transform="rotate(-50 414.7 531.0)">26.4</text>
<line x1="530.2" y1="516.0" x2="530.2" y2="519.0" stroke="#999"/>
<text x="530.2" y="531.0" text-anchor="end" fill="#666" transform="rotate(-50 530.2 531.0)">26.5</text>
<line x1="645.8" y1="516.0" x2="645.8" y2="519.0" stroke="#999"/>
<text x="645.8" y="531.0" text-anchor="end" fill="#666" transform="rotate(-50 645.8 531.0)">26.7</text>
<line x1="761.3" y1="516.0" x2="761.3" y2="519.0" stroke="#999"/>
<text x="761.3" y="531.0" text-anchor="end" fill="#666" transform="rotate(-50 761.3 531.0)">26.8</text>
<line x1="876.9" y1="516.0" x2="876.9" y2="519.0" stroke="#999"/>
<text x="876.9" y="531.0" text-anchor="end" fill="#666" transform="rotate(-50 876.9 531.0)">26.9</text>
<line x1="992.4" y1="516.0" x2="992.4" y2="519.0" stroke="#999"/>
<text x="992.4" y="531.0" text-anchor="end" fill="#666" transform="rotate(-50 992.4 531.0)">26.10</text>
<line x1="1108.0" y1="516.0" x2="1108.0" y2="519.0" stroke="#999"/>
<text x="1108.0" y="531.0" text-anchor="end" fill="#666" transform="rotate(-50 1108.0 531.0)">26.11</text>
<polygon points="68.0,515.1 183.6,515.2 299.1,515.2 414.7,515.2 530.2,515.1 645.8,515.1 761.3,515.0 876.9,515.0 992.4,515.1 1108.0,515.0 1108.0,516.0 992.4,516.0 876.9,516.0 761.3,516.0 645.8,516.0 530.2,516.0 414.7,516.0 299.1,516.0 183.6,516.0 68.0,516.0" fill="#c7e9c0" fill-opacity="0.9" stroke="#fff" stroke-width="0.4"><title>module_link — parseTranslationUnit</title></polygon>
<polygon points="68.0,343.0 183.6,338.5 299.1,341.2 414.7,334.7 530.2,333.0 645.8,307.9 761.3,308.1 876.9,310.2 992.4,308.5 1108.0,327.6 1108.0,515.0 992.4,515.1 876.9,515.0 761.3,515.0 645.8,515.1 530.2,515.1 414.7,515.2 299.1,515.2 183.6,515.2 68.0,515.1" fill="#41ab5d" fill-opacity="0.9" stroke="#fff" stroke-width="0.4"><title>module_link — SemanticChecking</title></polygon>
<polygon points="68.0,340.1 183.6,335.6 299.1,338.3 414.7,331.8 530.2,330.1 645.8,304.7 761.3,304.9 876.9,307.0 992.4,305.3 1108.0,317.0 1108.0,327.6 992.4,308.5 876.9,310.2 761.3,308.1 645.8,307.9 530.2,333.0 414.7,334.7 299.1,341.2 183.6,338.5 68.0,343.0" fill="#006d2c" fill-opacity="0.9" stroke="#fff" stroke-width="0.4"><title>module_link — generateIR</title></polygon>
<polygon points="68.0,337.5 183.6,332.9 299.1,335.6 414.7,328.8 530.2,327.0 645.8,300.3 761.3,300.8 876.9,302.8 992.4,301.0 1108.0,315.9 1108.0,317.0 992.4,305.3 876.9,307.0 761.3,304.9 645.8,304.7 530.2,330.1 414.7,331.8 299.1,338.3 183.6,335.6 68.0,340.1" fill="#74c476" fill-opacity="0.9" stroke="#fff" stroke-width="0.4"><title>module_link — frontEndExecute (self)</title></polygon>
<polygon points="68.0,332.8 183.6,328.3 299.1,330.8 414.7,323.9 530.2,321.9 645.8,285.0 761.3,285.3 876.9,287.3 992.4,285.5 1108.0,304.6 1108.0,315.9 992.4,301.0 876.9,302.8 761.3,300.8 645.8,300.3 530.2,327.0 414.7,328.8 299.1,335.6 183.6,332.9 68.0,337.5" fill="#6baed6" fill-opacity="0.9" stroke="#fff" stroke-width="0.4"><title>module_link — specializeModule</title></polygon>
<polygon points="68.0,324.1 183.6,319.6 299.1,322.1 414.7,314.7 530.2,312.9 645.8,266.1 761.3,266.3 876.9,268.2 992.4,266.3 1108.0,286.9 1108.0,304.6 992.4,285.5 876.9,287.3 761.3,285.3 645.8,285.0 530.2,321.9 414.7,323.9 299.1,330.8 183.6,328.3 68.0,332.8" fill="#2171b5" fill-opacity="0.9" stroke="#fff" stroke-width="0.4"><title>module_link — simplifyIR</title></polygon>
<polygon points="68.0,302.5 183.6,296.1 299.1,298.7 414.7,290.1 530.2,287.8 645.8,167.3 761.3,168.2 876.9,168.7 992.4,166.9 1108.0,259.4 1108.0,286.9 992.4,266.3 876.9,268.2 761.3,266.3 645.8,266.1 530.2,312.9 414.7,314.7 299.1,322.1 183.6,319.6 68.0,324.1" fill="#08306b" fill-opacity="0.9" stroke="#fff" stroke-width="0.4"><title>module_link — linkIR</title></polygon>
<polygon points="68.0,302.4 183.6,296.0 299.1,298.5 414.7,289.9 530.2,287.6 645.8,167.2 761.3,168.2 876.9,168.6 992.4,166.8 1108.0,259.3 1108.0,259.4 992.4,166.9 876.9,168.7 761.3,168.2 645.8,167.3 530.2,287.8 414.7,290.1 299.1,298.7 183.6,296.1 68.0,302.5" fill="#9e9ac8" fill-opacity="0.9" stroke="#fff" stroke-width="0.4"><title>module_link — unrollLoopsInModule</title></polygon>
<polygon points="68.0,299.4 183.6,293.0 299.1,295.5 414.7,286.8 530.2,284.5 645.8,164.0 761.3,164.9 876.9,165.5 992.4,163.7 1108.0,256.1 1108.0,259.3 992.4,166.8 876.9,168.6 761.3,168.2 645.8,167.2 530.2,287.6 414.7,289.9 299.1,298.5 183.6,296.0 68.0,302.4" fill="#807dba" fill-opacity="0.9" stroke="#fff" stroke-width="0.4"><title>module_link — legalizeResourceTypes</title></polygon>
<polygon points="68.0,296.3 183.6,289.8 299.1,292.4 414.7,283.6 530.2,281.4 645.8,160.7 761.3,161.6 876.9,162.2 992.4,160.4 1108.0,252.8 1108.0,256.1 992.4,163.7 876.9,165.5 761.3,164.9 645.8,164.0 530.2,284.5 414.7,286.8 299.1,295.5 183.6,293.0 68.0,299.4" fill="#6a51a3" fill-opacity="0.9" stroke="#fff" stroke-width="0.4"><title>module_link — legalizeExistentialTypeLayout</title></polygon>
<polygon points="68.0,296.0 183.6,289.6 299.1,292.1 414.7,283.4 530.2,281.1 645.8,160.5 761.3,161.4 876.9,162.0 992.4,160.2 1108.0,252.6 1108.0,252.8 992.4,160.4 876.9,162.2 761.3,161.6 645.8,160.7 530.2,281.4 414.7,283.6 299.1,292.4 183.6,289.8 68.0,296.3" fill="#bcbddc" fill-opacity="0.9" stroke="#fff" stroke-width="0.4"><title>module_link — performMandatoryEarlyInlining</title></polygon>
<polygon points="68.0,295.7 183.6,289.3 299.1,291.8 414.7,283.0 530.2,280.8 645.8,160.2 761.3,161.0 876.9,161.7 992.4,159.9 1108.0,252.3 1108.0,252.6 992.4,160.2 876.9,162.0 761.3,161.4 645.8,160.5 530.2,281.1 414.7,283.4 299.1,292.1 183.6,289.6 68.0,296.0" fill="#dadaeb" fill-opacity="0.9" stroke="#fff" stroke-width="0.4"><title>module_link — performForceInlining</title></polygon>
<polygon points="68.0,284.8 183.6,278.4 299.1,280.9 414.7,271.2 530.2,269.3 645.8,136.5 761.3,136.9 876.9,137.2 992.4,135.8 1108.0,234.3 1108.0,252.3 992.4,159.9 876.9,161.7 761.3,161.0 645.8,160.2 530.2,280.8 414.7,283.0 299.1,291.8 183.6,289.3 68.0,295.7" fill="#4a1486" fill-opacity="0.9" stroke="#fff" stroke-width="0.4"><title>module_link — linkAndOptimizeIR (self)</title></polygon>
<polygon points="68.0,263.8 183.6,256.8 299.1,259.6 414.7,249.1 530.2,247.1 645.8,113.9 761.3,114.2 876.9,113.6 992.4,113.3 1108.0,212.2 1108.0,234.3 992.4,135.8 876.9,137.2 761.3,136.9 645.8,136.5 530.2,269.3 414.7,271.2 299.1,280.9 183.6,278.4 68.0,284.8" fill="#e6550d" fill-opacity="0.9" stroke="#fff" stroke-width="0.4"><title>module_link — generateOutput (self)</title></polygon>
<polygon points="68.0,262.7 183.6,255.5 299.1,258.4 414.7,246.9 530.2,246.2 645.8,111.4 761.3,112.5 876.9,108.6 992.4,111.6 1108.0,212.2 1108.0,212.2 992.4,113.3 876.9,113.6 761.3,114.2 645.8,113.9 530.2,247.1 414.7,249.1 299.1,259.6 183.6,256.8 68.0,263.8" fill="#969696" fill-opacity="0.9" stroke="#fff" stroke-width="0.4"><title>module_link — compileInner (self)</title></polygon>
<text x="12" y="578" fill="#666" font-weight="600">phase buckets</text>
<rect x="12" y="586" width="12" height="12" fill="#c7e9c0"/>
<text x="28" y="596" fill="#222">parseTranslationUnit</text>
<rect x="289" y="586" width="12" height="12" fill="#41ab5d"/>
<text x="305" y="596" fill="#222">SemanticChecking</text>
<rect x="566" y="586" width="12" height="12" fill="#006d2c"/>
<text x="582" y="596" fill="#222">generateIR</text>
<rect x="843" y="586" width="12" height="12" fill="#74c476"/>
<text x="859" y="596" fill="#222">frontEndExecute (self)</text>
<rect x="12" y="604" width="12" height="12" fill="#6baed6"/>
<text x="28" y="614" fill="#222">specializeModule</text>
<rect x="289" y="604" width="12" height="12" fill="#2171b5"/>
<text x="305" y="614" fill="#222">simplifyIR</text>
<rect x="566" y="604" width="12" height="12" fill="#08306b"/>
<text x="582" y="614" fill="#222">linkIR</text>
<rect x="843" y="604" width="12" height="12" fill="#9e9ac8"/>
<text x="859" y="614" fill="#222">unrollLoopsInModule</text>
<rect x="12" y="622" width="12" height="12" fill="#807dba"/>
<text x="28" y="632" fill="#222">legalizeResourceTypes</text>
<rect x="289" y="622" width="12" height="12" fill="#6a51a3"/>
<text x="305" y="632" fill="#222">legalizeExistentialTypeLayout</text>
<rect x="566" y="622" width="12" height="12" fill="#bcbddc"/>
<text x="582" y="632" fill="#222">performMandatoryEarlyInlining</text>
<rect x="843" y="622" width="12" height="12" fill="#dadaeb"/>
<text x="859" y="632" fill="#222">performForceInlining</text>
<rect x="12" y="640" width="12" height="12" fill="#4a1486"/>
<text x="28" y="650" fill="#222">linkAndOptimizeIR (self)</text>
<rect x="289" y="640" width="12" height="12" fill="#fd8d3c"/>
<text x="305" y="650" fill="#222">emitEntryPointsSourceFromIR</text>
<rect x="566" y="640" width="12" height="12" fill="#e6550d"/>
<text x="582" y="650" fill="#222">generateOutput (self)</text>
<rect x="843" y="640" width="12" height="12" fill="#969696"/>
<text x="859" y="650" fill="#222">compileInner (self)</text>
</svg>