<svg xmlns="http://www.w3.org/2000/svg" xmlns:xlink="http://www.w3.org/1999/xlink" width="1132" height="680" viewBox="0 0 1132 680" preserveAspectRatio="xMidYMid meet" font-family="sans-serif" font-size="13">
<rect width="1132" height="680" fill="white"/>
<text x="12" y="30" font-size="20" font-weight="bold">module_link — full phase breakdown across releases (median ms)</text>
<text x="68" y="60" font-size="15" font-weight="600" fill="#1a1a1a">module_link<tspan fill="#888" font-weight="400" text-decoration="none">  1.49×</tspan></text>
<line x1="68.0" y1="516.0" x2="1108.0" y2="516.0" stroke="#eee"/>
<text x="64.0" y="519.0" text-anchor="end" fill="#999">0.0</text>
<line x1="68.0" y1="296.0" x2="1108.0" y2="296.0" stroke="#eee"/>
<text x="64.0" y="299.0" text-anchor="end" fill="#999">82</text>
<line x1="68.0" y1="76.0" x2="1108.0" y2="76.0" stroke="#eee"/>
<text x="64.0" y="79.0" text-anchor="end" fill="#999">164</text>
<line x1="68.0" y1="76.0" x2="68.0" y2="516.0" stroke="#333"/>
<line x1="68.0" y1="516.0" x2="1108.0" y2="516.0" stroke="#333"/>
<line x1="725.6" y1="76.0" x2="725.6" y2="516.0" stroke="#e8731a" stroke-width="1.2" stroke-dasharray="4 3"/>
<text x="728.6" y="87.0" fill="#e8731a" font-size="11">daily →</text>
<line x1="68.0" y1="516.0" x2="68.0" y2="519.0" stroke="#999"/>
<text x="68.0" y="531.0" text-anchor="end" fill="#666" transform="rotate(-50 68.0 531.0)">25.14</text>
<line x1="98.6" y1="516.0" x2="98.6" y2="519.0" stroke="#999"/>
<text x="98.6" y="531.0" text-anchor="end" fill="#666" transform="rotate(-50 98.6 531.0)">25.15</text>
<line x1="129.2" y1="516.0" x2="129.2" y2="519.0" stroke="#999"/>
<text x="129.2" y="531.0" text-anchor="end" fill="#666" transform="rotate(-50 129.2 531.0)">25.16</text>
<line x1="159.8" y1="516.0" x2="159.8" y2="519.0" stroke="#999"/>
<text x="159.8" y="531.0" text-anchor="end" fill="#666" transform="rotate(-50 159.8 531.0)">25.17</text>
<line x1="190.4" y1="516.0" x2="190.4" y2="519.0" stroke="#999"/>
<text x="190.4" y="531.0" text-anchor="end" fill="#666" transform="rotate(-50 190.4 531.0)">25.18</text>
<line x1="220.9" y1="516.0" x2="220.9" y2="519.0" stroke="#999"/>
<text x="220.9" y="531.0" text-anchor="end" fill="#666" transform="rotate(-50 220.9 531.0)">25.19</text>
<line x1="251.5" y1="516.0" x2="251.5" y2="519.0" stroke="#999"/>
<text x="251.5" y="531.0" text-anchor="end" fill="#666" transform="rotate(-50 251.5 531.0)">25.20</text>
<line x1="282.1" y1="516.0" x2="282.1" y2="519.0" stroke="#999"/>
<text x="282.1" y="531.0" text-anchor="end" fill="#666" transform="rotate(-50 282.1 531.0)">25.21</text>
<line x1="312.7" y1="516.0" x2="312.7" y2="519.0" stroke="#999"/>
<text x="312.7" y="531.0" text-anchor="end" fill="#666" transform="rotate(-50 312.7 531.0)">25.22</text>
<line x1="343.3" y1="516.0" x2="343.3" y2="519.0" stroke="#999"/>
<text x="343.3" y="531.0" text-anchor="end" fill="#666" transform="rotate(-50 343.3 531.0)">25.23</text>
<line x1="373.9" y1="516.0" x2="373.9" y2="519.0" stroke="#999"/>
<text x="373.9" y="531.0" text-anchor="end" fill="#666" transform="rotate(-50 373.9 531.0)">25.24</text>
<line x1="404.5" y1="516.0" x2="404.5" y2="519.0" stroke="#999"/>
<text x="404.5" y="531.0" text-anchor="end" fill="#666" transform="rotate(-50 404.5 531.0)">26.1</text>
<line x1="435.1" y1="516.0" x2="435.1" y2="519.0" stroke="#999"/>
<text x="435.1" y="531.0" text-anchor="end" fill="#666" transform="rotate(-50 435.1 531.0)">26.2</text>
<line x1="465.6" y1="516.0" x2="465.6" y2="519.0" stroke="#999"/>
<text x="465.6" y="531.0" text-anchor="end" fill="#666" transform="rotate(-50 465.6 531.0)">26.3</text>
<line x1="496.2" y1="516.0" x2="496.2" y2="519.0" stroke="#999"/>
<text x="496.2" y="531.0" text-anchor="end" fill="#666" transform="rotate(-50 496.2 531.0)">26.4</text>
<line x1="526.8" y1="516.0" x2="526.8" y2="519.0" stroke="#999"/>
<text x="526.8" y="531.0" text-anchor="end" fill="#666" transform="rotate(-50 526.8 531.0)">26.5</text>
<line x1="557.4" y1="516.0" x2="557.4" y2="519.0" stroke="#999"/>
<text x="557.4" y="531.0" text-anchor="end" fill="#666" transform="rotate(-50 557.4 531.0)">26.7</text>
<line x1="588.0" y1="516.0" x2="588.0" y2="519.0" stroke="#999"/>
<text x="588.0" y="531.0" text-anchor="end" fill="#666" transform="rotate(-50 588.0 531.0)">26.8</text>
<line x1="618.6" y1="516.0" x2="618.6" y2="519.0" stroke="#999"/>
<text x="618.6" y="531.0" text-anchor="end" fill="#666" transform="rotate(-50 618.6 531.0)">26.9</text>
<line x1="649.2" y1="516.0" x2="649.2" y2="519.0" stroke="#999"/>
<text x="649.2" y="531.0" text-anchor="end" fill="#666" transform="rotate(-50 649.2 531.0)">26.10</text>
<line x1="679.8" y1="516.0" x2="679.8" y2="519.0" stroke="#999"/>
<text x="679.8" y="531.0" text-anchor="end" fill="#666" transform="rotate(-50 679.8 531.0)">26.11</text>
<line x1="710.4" y1="516.0" x2="710.4" y2="519.0" stroke="#999"/>
<text x="710.4" y="531.0" text-anchor="end" fill="#666" transform="rotate(-50 710.4 531.0)">26.12</text>
<line x1="740.9" y1="516.0" x2="740.9" y2="519.0" stroke="#999"/>
<text x="740.9" y="531.0" text-anchor="end" fill="#e8731a" transform="rotate(-50 740.9 531.0)">06-25</text>
<line x1="771.5" y1="516.0" x2="771.5" y2="519.0" stroke="#999"/>
<text x="771.5" y="531.0" text-anchor="end" fill="#e8731a" transform="rotate(-50 771.5 531.0)">06-26</text>
<line x1="802.1" y1="516.0" x2="802.1" y2="519.0" stroke="#999"/>
<text x="802.1" y="531.0" text-anchor="end" fill="#e8731a" transform="rotate(-50 802.1 531.0)">06-28</text>
<line x1="832.7" y1="516.0" x2="832.7" y2="519.0" stroke="#999"/>
<text x="832.7" y="531.0" text-anchor="end" fill="#e8731a" transform="rotate(-50 832.7 531.0)">07-01</text>
<line x1="863.3" y1="516.0" x2="863.3" y2="519.0" stroke="#999"/>
<text x="863.3" y="531.0" text-anchor="end" fill="#e8731a" transform="rotate(-50 863.3 531.0)">07-02</text>
<line x1="893.9" y1="516.0" x2="893.9" y2="519.0" stroke="#999"/>
<text x="893.9" y="531.0" text-anchor="end" fill="#e8731a" transform="rotate(-50 893.9 531.0)">07-03</text>
<line x1="924.5" y1="516.0" x2="924.5" y2="519.0" stroke="#999"/>
<text x="924.5" y="531.0" text-anchor="end" fill="#e8731a" transform="rotate(-50 924.5 531.0)">07-06</text>
<line x1="955.1" y1="516.0" x2="955.1" y2="519.0" stroke="#999"/>
<text x="955.1" y="531.0" text-anchor="end" fill="#e8731a" transform="rotate(-50 955.1 531.0)">07-07</text>
<line x1="985.6" y1="516.0" x2="985.6" y2="519.0" stroke="#999"/>
<text x="985.6" y="531.0" text-anchor="end" fill="#e8731a" transform="rotate(-50 985.6 531.0)">07-08</text>
<line x1="1016.2" y1="516.0" x2="1016.2" y2="519.0" stroke="#999"/>
<text x="1016.2" y="531.0" text-anchor="end" fill="#e8731a" transform="rotate(-50 1016.2 531.0)">07-09</text>
<line x1="1046.8" y1="516.0" x2="1046.8" y2="519.0" stroke="#999"/>
<text x="1046.8" y="531.0" text-anchor="end" fill="#e8731a" transform="rotate(-50 1046.8 531.0)">07-10</text>
<line x1="1077.4" y1="516.0" x2="1077.4" y2="519.0" stroke="#999"/>
<text x="1077.4" y="531.0" text-anchor="end" fill="#e8731a" transform="rotate(-50 1077.4 531.0)">07-11</text>
<line x1="1108.0" y1="516.0" x2="1108.0" y2="519.0" stroke="#999"/>
<text x="1108.0" y="531.0" text-anchor="end" fill="#e8731a" transform="rotate(-50 1108.0 531.0)">07-14</text>
<polygon points="68.0,514.8 98.6,515.2 129.2,515.3 159.8,515.3 190.4,515.2 220.9,515.2 251.5,515.3 282.1,515.3 312.7,515.3 343.3,515.3 373.9,515.2 404.5,515.2 435.1,515.2 465.6,515.2 496.2,515.2 526.8,515.2 557.4,515.1 588.0,515.1 618.6,515.1 649.2,515.1 679.8,515.1 710.4,515.0 740.9,515.0 771.5,515.0 802.1,515.0 832.7,515.0 863.3,514.9 893.9,515.0 924.5,514.9 955.1,515.0 985.6,515.0 1016.2,515.0 1046.8,515.0 1077.4,515.0 1108.0,515.1 1108.0,516.0 1077.4,516.0 1046.8,516.0 1016.2,516.0 985.6,516.0 955.1,516.0 924.5,516.0 893.9,516.0 863.3,516.0 832.7,516.0 802.1,516.0 771.5,516.0 740.9,516.0 710.4,516.0 679.8,516.0 649.2,516.0 618.6,516.0 588.0,516.0 557.4,516.0 526.8,516.0 496.2,516.0 465.6,516.0 435.1,516.0 404.5,516.0 373.9,516.0 343.3,516.0 312.7,516.0 282.1,516.0 251.5,516.0 220.9,516.0 190.4,516.0 159.8,516.0 129.2,516.0 98.6,516.0 68.0,516.0" fill="#c7e9c0" fill-opacity="0.9" stroke="#fff" stroke-width="0.4"><title>module_link — parseTranslationUnit</title></polygon>
<polygon points="68.0,403.3 98.6,413.8 129.2,409.9 159.8,386.2 190.4,390.6 220.9,386.7 251.5,401.2 282.1,394.7 312.7,387.9 343.3,385.2 373.9,378.4 404.5,374.7 435.1,370.5 465.6,371.1 496.2,362.8 526.8,364.3 557.4,324.2 588.0,321.3 618.6,325.0 649.2,337.2 679.8,349.4 710.4,355.0 740.9,340.9 771.5,343.6 802.1,346.9 832.7,345.6 863.3,338.9 893.9,311.0 924.5,312.5 955.1,322.6 985.6,316.0 1016.2,314.5 1046.8,324.9 1077.4,319.3 1108.0,320.1 1108.0,515.1 1077.4,515.0 1046.8,515.0 1016.2,515.0 985.6,515.0 955.1,515.0 924.5,514.9 893.9,515.0 863.3,514.9 832.7,515.0 802.1,515.0 771.5,515.0 740.9,515.0 710.4,515.0 679.8,515.1 649.2,515.1 618.6,515.1 588.0,515.1 557.4,515.1 526.8,515.2 496.2,515.2 465.6,515.2 435.1,515.2 404.5,515.2 373.9,515.2 343.3,515.3 312.7,515.3 282.1,515.3 251.5,515.3 220.9,515.2 190.4,515.2 159.8,515.3 129.2,515.3 98.6,515.2 68.0,514.8" fill="#41ab5d" fill-opacity="0.9" stroke="#fff" stroke-width="0.4"><title>module_link — SemanticChecking</title></polygon>
<polygon points="68.0,400.9 98.6,411.4 129.2,407.3 159.8,383.3 190.4,387.7 220.9,383.8 251.5,398.5 282.1,392.0 312.7,385.3 343.3,382.5 373.9,375.8 404.5,372.0 435.1,367.9 465.6,368.4 496.2,360.2 526.8,361.5 557.4,321.2 588.0,317.5 618.6,321.8 649.2,334.1 679.8,339.1 710.4,344.5 740.9,330.1 771.5,332.9 802.1,336.2 832.7,334.8 863.3,327.8 893.9,300.0 924.5,301.5 955.1,311.4 985.6,304.4 1016.2,303.4 1046.8,313.8 1077.4,308.7 1108.0,309.7 1108.0,320.1 1077.4,319.3 1046.8,324.9 1016.2,314.5 985.6,316.0 955.1,322.6 924.5,312.5 893.9,311.0 863.3,338.9 832.7,345.6 802.1,346.9 771.5,343.6 740.9,340.9 710.4,355.0 679.8,349.4 649.2,337.2 618.6,325.0 588.0,321.3 557.4,324.2 526.8,364.3 496.2,362.8 465.6,371.1 435.1,370.5 404.5,374.7 373.9,378.4 343.3,385.2 312.7,387.9 282.1,394.7 251.5,401.2 220.9,386.7 190.4,390.6 159.8,386.2 129.2,409.9 98.6,413.8 68.0,403.3" fill="#006d2c" fill-opacity="0.9" stroke="#fff" stroke-width="0.4"><title>module_link — generateIR</title></polygon>
<polygon points="68.0,399.2 98.6,408.7 129.2,403.6 159.8,380.4 190.4,384.5 220.9,381.3 251.5,396.3 282.1,389.7 312.7,382.8 343.3,380.1 373.9,372.9 404.5,369.2 435.1,365.0 465.6,365.8 496.2,357.2 526.8,358.5 557.4,317.3 588.0,312.2 618.6,315.9 649.2,329.4 679.8,337.7 710.4,343.7 740.9,329.0 771.5,332.2 802.1,335.0 832.7,333.8 863.3,327.0 893.9,299.4 924.5,301.1 955.1,310.0 985.6,303.1 1016.2,302.1 1046.8,312.2 1077.4,308.1 1108.0,308.3 1108.0,309.7 1077.4,308.7 1046.8,313.8 1016.2,303.4 985.6,304.4 955.1,311.4 924.5,301.5 893.9,300.0 863.3,327.8 832.7,334.8 802.1,336.2 771.5,332.9 740.9,330.1 710.4,344.5 679.8,339.1 649.2,334.1 618.6,321.8 588.0,317.5 557.4,321.2 526.8,361.5 496.2,360.2 465.6,368.4 435.1,367.9 404.5,372.0 373.9,375.8 343.3,382.5 312.7,385.3 282.1,392.0 251.5,398.5 220.9,383.8 190.4,387.7 159.8,383.3 129.2,407.3 98.6,411.4 68.0,400.9" fill="#74c476" fill-opacity="0.9" stroke="#fff" stroke-width="0.4"><title>module_link — frontEndExecute (self)</title></polygon>
<polygon points="68.0,396.3 98.6,405.6 129.2,400.3 159.8,377.4 190.4,381.3 220.9,377.9 251.5,393.0 282.1,386.4 312.7,379.5 343.3,376.9 373.9,368.6 404.5,364.9 435.1,360.6 465.6,361.3 496.2,352.9 526.8,354.0 557.4,303.0 588.0,294.9 618.6,301.1 649.2,314.9 679.8,327.1 710.4,333.5 740.9,317.4 771.5,320.7 802.1,323.4 832.7,322.3 863.3,315.4 893.9,288.1 924.5,289.7 955.1,299.8 985.6,292.9 1016.2,291.7 1046.8,301.9 1077.4,298.0 1108.0,298.1 1108.0,308.3 1077.4,308.1 1046.8,312.2 1016.2,302.1 985.6,303.1 955.1,310.0 924.5,301.1 893.9,299.4 863.3,327.0 832.7,333.8 802.1,335.0 771.5,332.2 740.9,329.0 710.4,343.7 679.8,337.7 649.2,329.4 618.6,315.9 588.0,312.2 557.4,317.3 526.8,358.5 496.2,357.2 465.6,365.8 435.1,365.0 404.5,369.2 373.9,372.9 343.3,380.1 312.7,382.8 282.1,389.7 251.5,396.3 220.9,381.3 190.4,384.5 159.8,380.4 129.2,403.6 98.6,408.7 68.0,399.2" fill="#6baed6" fill-opacity="0.9" stroke="#fff" stroke-width="0.4"><title>module_link — specializeModule</title></polygon>
<polygon points="68.0,388.3 98.6,397.6 129.2,391.4 159.8,368.5 190.4,372.2 220.9,368.7 251.5,384.1 282.1,377.7 312.7,370.8 343.3,368.2 373.9,360.8 404.5,357.0 435.1,352.6 465.6,353.3 496.2,344.9 526.8,345.9 557.4,285.2 588.0,275.5 618.6,283.4 649.2,297.3 679.8,310.6 710.4,318.1 740.9,300.9 771.5,304.0 802.1,306.7 832.7,305.7 863.3,301.4 893.9,274.1 924.5,275.8 955.1,286.3 985.6,279.4 1016.2,278.0 1046.8,290.8 1077.4,286.9 1108.0,287.2 1108.0,298.1 1077.4,298.0 1046.8,301.9 1016.2,291.7 985.6,292.9 955.1,299.8 924.5,289.7 893.9,288.1 863.3,315.4 832.7,322.3 802.1,323.4 771.5,320.7 740.9,317.4 710.4,333.5 679.8,327.1 649.2,314.9 618.6,301.1 588.0,294.9 557.4,303.0 526.8,354.0 496.2,352.9 465.6,361.3 435.1,360.6 404.5,364.9 373.9,368.6 343.3,376.9 312.7,379.5 282.1,386.4 251.5,393.0 220.9,377.9 190.4,381.3 159.8,377.4 129.2,400.3 98.6,405.6 68.0,396.3" fill="#2171b5" fill-opacity="0.9" stroke="#fff" stroke-width="0.4"><title>module_link — simplifyIR</title></polygon>
<polygon points="68.0,369.6 98.6,376.6 129.2,370.9 159.8,346.9 190.4,350.4 220.9,346.3 251.5,364.2 282.1,357.7 312.7,350.7 343.3,348.3 373.9,341.0 404.5,336.9 435.1,330.9 465.6,331.2 496.2,322.9 526.8,324.2 557.4,178.2 588.0,164.8 618.6,173.4 649.2,193.5 679.8,285.3 710.4,292.9 740.9,273.1 771.5,276.8 802.1,279.3 832.7,277.9 863.3,272.8 893.9,247.0 924.5,247.4 955.1,259.5 985.6,251.4 1016.2,250.9 1046.8,263.6 1077.4,260.4 1108.0,258.8 1108.0,287.2 1077.4,286.9 1046.8,290.8 1016.2,278.0 985.6,279.4 955.1,286.3 924.5,275.8 893.9,274.1 863.3,301.4 832.7,305.7 802.1,306.7 771.5,304.0 740.9,300.9 710.4,318.1 679.8,310.6 649.2,297.3 618.6,283.4 588.0,275.5 557.4,285.2 526.8,345.9 496.2,344.9 465.6,353.3 435.1,352.6 404.5,357.0 373.9,360.8 343.3,368.2 312.7,370.8 282.1,377.7 251.5,384.1 220.9,368.7 190.4,372.2 159.8,368.5 129.2,391.4 98.6,397.6 68.0,388.3" fill="#08306b" fill-opacity="0.9" stroke="#fff" stroke-width="0.4"><title>module_link — linkIR</title></polygon>
<polygon points="68.0,369.5 98.6,376.5 129.2,370.8 159.8,346.8 190.4,350.3 220.9,346.2 251.5,364.1 282.1,357.6 312.7,350.6 343.3,348.2 373.9,340.9 404.5,336.7 435.1,330.7 465.6,331.1 496.2,322.7 526.8,324.1 557.4,178.0 588.0,164.7 618.6,173.3 649.2,193.3 679.8,285.2 710.4,292.8 740.9,273.0 771.5,276.7 802.1,279.2 832.7,277.8 863.3,272.7 893.9,246.9 924.5,247.3 955.1,259.3 985.6,251.3 1016.2,250.8 1046.8,263.5 1077.4,260.2 1108.0,258.6 1108.0,258.8 1077.4,260.4 1046.8,263.6 1016.2,250.9 985.6,251.4 955.1,259.5 924.5,247.4 893.9,247.0 863.3,272.8 832.7,277.9 802.1,279.3 771.5,276.8 740.9,273.1 710.4,292.9 679.8,285.3 649.2,193.5 618.6,173.4 588.0,164.8 557.4,178.2 526.8,324.2 496.2,322.9 465.6,331.2 435.1,330.9 404.5,336.9 373.9,341.0 343.3,348.3 312.7,350.7 282.1,357.7 251.5,364.2 220.9,346.3 190.4,350.4 159.8,346.9 129.2,370.9 98.6,376.6 68.0,369.6" fill="#9e9ac8" fill-opacity="0.9" stroke="#fff" stroke-width="0.4"><title>module_link — unrollLoopsInModule</title></polygon>
<polygon points="68.0,364.0 98.6,371.0 129.2,365.1 159.8,341.3 190.4,347.4 220.9,343.4 251.5,361.4 282.1,354.9 312.7,347.8 343.3,345.4 373.9,338.1 404.5,334.0 435.1,328.0 465.6,328.3 496.2,320.0 526.8,321.3 557.4,175.0 588.0,161.5 618.6,170.2 649.2,190.3 679.8,282.2 710.4,289.8 740.9,269.9 771.5,273.6 802.1,276.1 832.7,274.7 863.3,269.6 893.9,243.8 924.5,244.3 955.1,256.5 985.6,248.5 1016.2,248.0 1046.8,262.7 1077.4,259.4 1108.0,257.9 1108.0,258.6 1077.4,260.2 1046.8,263.5 1016.2,250.8 985.6,251.3 955.1,259.3 924.5,247.3 893.9,246.9 863.3,272.7 832.7,277.8 802.1,279.2 771.5,276.7 740.9,273.0 710.4,292.8 679.8,285.2 649.2,193.3 618.6,173.3 588.0,164.7 557.4,178.0 526.8,324.1 496.2,322.7 465.6,331.1 435.1,330.7 404.5,336.7 373.9,340.9 343.3,348.2 312.7,350.6 282.1,357.6 251.5,364.1 220.9,346.2 190.4,350.3 159.8,346.8 129.2,370.8 98.6,376.5 68.0,369.5" fill="#807dba" fill-opacity="0.9" stroke="#fff" stroke-width="0.4"><title>module_link — legalizeResourceTypes</title></polygon>
<polygon points="68.0,358.3 98.6,365.4 129.2,359.3 159.8,335.8 190.4,344.5 220.9,340.3 251.5,358.6 282.1,352.0 312.7,344.9 343.3,342.6 373.9,335.3 404.5,331.2 435.1,325.0 465.6,325.4 496.2,317.2 526.8,318.5 557.4,171.9 588.0,158.2 618.6,167.1 649.2,187.2 679.8,279.0 710.4,286.6 740.9,266.7 771.5,270.4 802.1,272.8 832.7,271.5 863.3,266.4 893.9,240.6 924.5,241.1 955.1,253.6 985.6,245.7 1016.2,245.1 1046.8,261.8 1077.4,258.5 1108.0,257.0 1108.0,257.9 1077.4,259.4 1046.8,262.7 1016.2,248.0 985.6,248.5 955.1,256.5 924.5,244.3 893.9,243.8 863.3,269.6 832.7,274.7 802.1,276.1 771.5,273.6 740.9,269.9 710.4,289.8 679.8,282.2 649.2,190.3 618.6,170.2 588.0,161.5 557.4,175.0 526.8,321.3 496.2,320.0 465.6,328.3 435.1,328.0 404.5,334.0 373.9,338.1 343.3,345.4 312.7,347.8 282.1,354.9 251.5,361.4 220.9,343.4 190.4,347.4 159.8,341.3 129.2,365.1 98.6,371.0 68.0,364.0" fill="#6a51a3" fill-opacity="0.9" stroke="#fff" stroke-width="0.4"><title>module_link — legalizeExistentialTypeLayout</title></polygon>
<polygon points="68.0,358.1 98.6,365.2 129.2,359.0 159.8,335.6 190.4,344.3 220.9,340.1 251.5,358.4 282.1,351.8 312.7,344.7 343.3,342.4 373.9,335.0 404.5,330.9 435.1,324.8 465.6,325.1 496.2,316.9 526.8,318.3 557.4,171.7 588.0,157.9 618.6,166.9 649.2,187.1 679.8,278.9 710.4,286.4 740.9,266.5 771.5,270.2 802.1,272.6 832.7,271.3 863.3,266.3 893.9,240.4 924.5,240.9 955.1,253.3 985.6,245.4 1016.2,244.9 1046.8,261.6 1077.4,258.3 1108.0,256.8 1108.0,257.0 1077.4,258.5 1046.8,261.8 1016.2,245.1 985.6,245.7 955.1,253.6 924.5,241.1 893.9,240.6 863.3,266.4 832.7,271.5 802.1,272.8 771.5,270.4 740.9,266.7 710.4,286.6 679.8,279.0 649.2,187.2 618.6,167.1 588.0,158.2 557.4,171.9 526.8,318.5 496.2,317.2 465.6,325.4 435.1,325.0 404.5,331.2 373.9,335.3 343.3,342.6 312.7,344.9 282.1,352.0 251.5,358.6 220.9,340.3 190.4,344.5 159.8,335.8 129.2,359.3 98.6,365.4 68.0,358.3" fill="#bcbddc" fill-opacity="0.9" stroke="#fff" stroke-width="0.4"><title>module_link — performMandatoryEarlyInlining</title></polygon>
<polygon points="68.0,357.9 98.6,364.9 129.2,358.6 159.8,335.3 190.4,344.0 220.9,339.8 251.5,358.1 282.1,351.5 312.7,344.5 343.3,342.1 373.9,334.8 404.5,330.7 435.1,324.5 465.6,324.9 496.2,316.6 526.8,318.0 557.4,171.4 588.0,157.6 618.6,166.6 649.2,186.8 679.8,278.6 710.4,286.1 740.9,266.2 771.5,269.9 802.1,272.4 832.7,271.0 863.3,266.0 893.9,240.1 924.5,240.7 955.1,253.0 985.6,245.1 1016.2,244.6 1046.8,261.3 1077.4,258.0 1108.0,256.5 1108.0,256.8 1077.4,258.3 1046.8,261.6 1016.2,244.9 985.6,245.4 955.1,253.3 924.5,240.9 893.9,240.4 863.3,266.3 832.7,271.3 802.1,272.6 771.5,270.2 740.9,266.5 710.4,286.4 679.8,278.9 649.2,187.1 618.6,166.9 588.0,157.9 557.4,171.7 526.8,318.3 496.2,316.9 465.6,325.1 435.1,324.8 404.5,330.9 373.9,335.0 343.3,342.4 312.7,344.7 282.1,351.8 251.5,358.4 220.9,340.1 190.4,344.3 159.8,335.6 129.2,359.0 98.6,365.2 68.0,358.1" fill="#dadaeb" fill-opacity="0.9" stroke="#fff" stroke-width="0.4"><title>module_link — performForceInlining</title></polygon>
<polygon points="68.0,349.7 98.6,356.5 129.2,349.0 159.8,326.1 190.4,335.0 220.9,330.8 251.5,348.7 282.1,342.2 312.7,335.2 343.3,333.0 373.9,325.0 404.5,320.8 435.1,313.6 465.6,314.3 496.2,305.0 526.8,307.5 557.4,149.7 588.0,133.3 618.6,144.8 649.2,164.9 679.8,261.3 710.4,271.0 740.9,249.4 771.5,252.3 802.1,256.0 832.7,254.3 863.3,247.8 893.9,222.0 924.5,222.6 955.1,238.2 985.6,230.8 1016.2,229.6 1046.8,249.5 1077.4,245.1 1108.0,244.6 1108.0,256.5 1077.4,258.0 1046.8,261.3 1016.2,244.6 985.6,245.1 955.1,253.0 924.5,240.7 893.9,240.1 863.3,266.0 832.7,271.0 802.1,272.4 771.5,269.9 740.9,266.2 710.4,286.1 679.8,278.6 649.2,186.8 618.6,166.6 588.0,157.6 557.4,171.4 526.8,318.0 496.2,316.6 465.6,324.9 435.1,324.5 404.5,330.7 373.9,334.8 343.3,342.1 312.7,344.5 282.1,351.5 251.5,358.1 220.9,339.8 190.4,344.0 159.8,335.3 129.2,358.6 98.6,364.9 68.0,357.9" fill="#4a1486" fill-opacity="0.9" stroke="#fff" stroke-width="0.4"><title>module_link — linkAndOptimizeIR (self)</title></polygon>
<polygon points="68.0,322.0 98.6,328.4 129.2,315.0 159.8,300.6 190.4,312.7 220.9,308.5 251.5,327.2 282.1,321.1 312.7,314.8 343.3,312.1 373.9,304.2 404.5,299.7 435.1,292.7 465.6,293.0 496.2,283.9 526.8,287.1 557.4,127.5 588.0,109.2 618.6,116.6 649.2,141.0 679.8,239.3 710.4,249.0 740.9,227.7 771.5,230.1 802.1,233.2 832.7,232.2 863.3,225.7 893.9,199.9 924.5,199.7 955.1,217.0 985.6,208.5 1016.2,207.3 1046.8,230.1 1077.4,226.2 1108.0,226.6 1108.0,244.6 1077.4,245.1 1046.8,249.5 1016.2,229.6 985.6,230.8 955.1,238.2 924.5,222.6 893.9,222.0 863.3,247.8 832.7,254.3 802.1,256.0 771.5,252.3 740.9,249.4 710.4,271.0 679.8,261.3 649.2,164.9 618.6,144.8 588.0,133.3 557.4,149.7 526.8,307.5 496.2,305.0 465.6,314.3 435.1,313.6 404.5,320.8 373.9,325.0 343.3,333.0 312.7,335.2 282.1,342.2 251.5,348.7 220.9,330.8 190.4,335.0 159.8,326.1 129.2,349.0 98.6,356.5 68.0,349.7" fill="#e6550d" fill-opacity="0.9" stroke="#fff" stroke-width="0.4"><title>module_link — generateOutput (self)</title></polygon>
<polygon points="68.0,322.0 98.6,328.0 129.2,311.9 159.8,300.6 190.4,307.9 220.9,307.6 251.5,322.1 282.1,319.8 312.7,313.6 343.3,310.8 373.9,304.0 404.5,298.0 435.1,291.5 465.6,290.7 496.2,281.9 526.8,285.0 557.4,127.5 588.0,109.2 618.6,108.6 649.2,139.1 679.8,238.3 710.4,247.9 740.9,224.6 771.5,230.1 802.1,232.2 832.7,231.3 863.3,224.3 893.9,199.9 924.5,197.8 955.1,216.3 985.6,206.8 1016.2,206.4 1046.8,229.5 1077.4,221.9 1108.0,226.6 1108.0,226.6 1077.4,226.2 1046.8,230.1 1016.2,207.3 985.6,208.5 955.1,217.0 924.5,199.7 893.9,199.9 863.3,225.7 832.7,232.2 802.1,233.2 771.5,230.1 740.9,227.7 710.4,249.0 679.8,239.3 649.2,141.0 618.6,116.6 588.0,109.2 557.4,127.5 526.8,287.1 496.2,283.9 465.6,293.0 435.1,292.7 404.5,299.7 373.9,304.2 343.3,312.1 312.7,314.8 282.1,321.1 251.5,327.2 220.9,308.5 190.4,312.7 159.8,300.6 129.2,315.0 98.6,328.4 68.0,322.0" fill="#969696" fill-opacity="0.9" stroke="#fff" stroke-width="0.4"><title>module_link — compileInner (self)</title></polygon>
<text x="12" y="578" fill="#666" font-weight="600">phase buckets</text>
<rect x="12" y="586" width="12" height="12" fill="#c7e9c0"/>
<text x="28" y="596" fill="#222">parseTranslationUnit</text>
<rect x="289" y="586" width="12" height="12" fill="#41ab5d"/>
<text x="305" y="596" fill="#222">SemanticChecking</text>
<rect x="566" y="586" width="12" height="12" fill="#006d2c"/>
<text x="582" y="596" fill="#222">generateIR</text>
<rect x="843" y="586" width="12" height="12" fill="#74c476"/>
<text x="859" y="596" fill="#222">frontEndExecute (self)</text>
<rect x="12" y="604" width="12" height="12" fill="#6baed6"/>
<text x="28" y="614" fill="#222">specializeModule</text>
<rect x="289" y="604" width="12" height="12" fill="#2171b5"/>
<text x="305" y="614" fill="#222">simplifyIR</text>
<rect x="566" y="604" width="12" height="12" fill="#08306b"/>
<text x="582" y="614" fill="#222">linkIR</text>
<rect x="843" y="604" width="12" height="12" fill="#9e9ac8"/>
<text x="859" y="614" fill="#222">unrollLoopsInModule</text>
<rect x="12" y="622" width="12" height="12" fill="#807dba"/>
<text x="28" y="632" fill="#222">legalizeResourceTypes</text>
<rect x="289" y="622" width="12" height="12" fill="#6a51a3"/>
<text x="305" y="632" fill="#222">legalizeExistentialTypeLayout</text>
<rect x="566" y="622" width="12" height="12" fill="#bcbddc"/>
<text x="582" y="632" fill="#222">performMandatoryEarlyInlining</text>
<rect x="843" y="622" width="12" height="12" fill="#dadaeb"/>
<text x="859" y="632" fill="#222">performForceInlining</text>
<rect x="12" y="640" width="12" height="12" fill="#4a1486"/>
<text x="28" y="650" fill="#222">linkAndOptimizeIR (self)</text>
<rect x="289" y="640" width="12" height="12" fill="#fd8d3c"/>
<text x="305" y="650" fill="#222">emitEntryPointsSourceFromIR</text>
<rect x="566" y="640" width="12" height="12" fill="#e6550d"/>
<text x="582" y="650" fill="#222">generateOutput (self)</text>
<rect x="843" y="640" width="12" height="12" fill="#969696"/>
<text x="859" y="650" fill="#222">compileInner (self)</text>
</svg>