<svg xmlns="http://www.w3.org/2000/svg" xmlns:xlink="http://www.w3.org/1999/xlink" width="1132" height="680" viewBox="0 0 1132 680" preserveAspectRatio="xMidYMid meet" font-family="sans-serif" font-size="13">
<rect width="1132" height="680" fill="white"/>
<text x="12" y="30" font-size="20" font-weight="bold">module_link — full phase breakdown across releases (median ms)</text>
<text x="68" y="60" font-size="15" font-weight="600" fill="#1a1a1a">module_link<tspan fill="#888" font-weight="400" text-decoration="none">  1.57×</tspan></text>
<line x1="68.0" y1="516.0" x2="1108.0" y2="516.0" stroke="#eee"/>
<text x="64.0" y="519.0" text-anchor="end" fill="#999">0.0</text>
<line x1="68.0" y1="296.0" x2="1108.0" y2="296.0" stroke="#eee"/>
<text x="64.0" y="299.0" text-anchor="end" fill="#999">72</text>
<line x1="68.0" y1="76.0" x2="1108.0" y2="76.0" stroke="#eee"/>
<text x="64.0" y="79.0" text-anchor="end" fill="#999">145</text>
<line x1="68.0" y1="76.0" x2="68.0" y2="516.0" stroke="#333"/>
<line x1="68.0" y1="516.0" x2="1108.0" y2="516.0" stroke="#333"/>
<line x1="789.3" y1="76.0" x2="789.3" y2="516.0" stroke="#e8731a" stroke-width="1.2" stroke-dasharray="4 3"/>
<text x="792.3" y="87.0" fill="#e8731a" font-size="11">daily →</text>
<line x1="68.0" y1="516.0" x2="68.0" y2="519.0" stroke="#999"/>
<text x="68.0" y="531.0" text-anchor="end" fill="#666" transform="rotate(-50 68.0 531.0)">25.14</text>
<line x1="101.5" y1="516.0" x2="101.5" y2="519.0" stroke="#999"/>
<text x="101.5" y="531.0" text-anchor="end" fill="#666" transform="rotate(-50 101.5 531.0)">25.15</text>
<line x1="135.1" y1="516.0" x2="135.1" y2="519.0" stroke="#999"/>
<text x="135.1" y="531.0" text-anchor="end" fill="#666" transform="rotate(-50 135.1 531.0)">25.16</text>
<line x1="168.6" y1="516.0" x2="168.6" y2="519.0" stroke="#999"/>
<text x="168.6" y="531.0" text-anchor="end" fill="#666" transform="rotate(-50 168.6 531.0)">25.17</text>
<line x1="202.2" y1="516.0" x2="202.2" y2="519.0" stroke="#999"/>
<text x="202.2" y="531.0" text-anchor="end" fill="#666" transform="rotate(-50 202.2 531.0)">25.18</text>
<line x1="235.7" y1="516.0" x2="235.7" y2="519.0" stroke="#999"/>
<text x="235.7" y="531.0" text-anchor="end" fill="#666" transform="rotate(-50 235.7 531.0)">25.19</text>
<line x1="269.3" y1="516.0" x2="269.3" y2="519.0" stroke="#999"/>
<text x="269.3" y="531.0" text-anchor="end" fill="#666" transform="rotate(-50 269.3 531.0)">25.20</text>
<line x1="302.8" y1="516.0" x2="302.8" y2="519.0" stroke="#999"/>
<text x="302.8" y="531.0" text-anchor="end" fill="#666" transform="rotate(-50 302.8 531.0)">25.21</text>
<line x1="336.4" y1="516.0" x2="336.4" y2="519.0" stroke="#999"/>
<text x="336.4" y="531.0" text-anchor="end" fill="#666" transform="rotate(-50 336.4 531.0)">25.22</text>
<line x1="369.9" y1="516.0" x2="369.9" y2="519.0" stroke="#999"/>
<text x="369.9" y="531.0" text-anchor="end" fill="#666" transform="rotate(-50 369.9 531.0)">25.23</text>
<line x1="403.5" y1="516.0" x2="403.5" y2="519.0" stroke="#999"/>
<text x="403.5" y="531.0" text-anchor="end" fill="#666" transform="rotate(-50 403.5 531.0)">25.24</text>
<line x1="437.0" y1="516.0" x2="437.0" y2="519.0" stroke="#999"/>
<text x="437.0" y="531.0" text-anchor="end" fill="#666" transform="rotate(-50 437.0 531.0)">26.1</text>
<line x1="470.6" y1="516.0" x2="470.6" y2="519.0" stroke="#999"/>
<text x="470.6" y="531.0" text-anchor="end" fill="#666" transform="rotate(-50 470.6 531.0)">26.2</text>
<line x1="504.1" y1="516.0" x2="504.1" y2="519.0" stroke="#999"/>
<text x="504.1" y="531.0" text-anchor="end" fill="#666" transform="rotate(-50 504.1 531.0)">26.3</text>
<line x1="537.7" y1="516.0" x2="537.7" y2="519.0" stroke="#999"/>
<text x="537.7" y="531.0" text-anchor="end" fill="#666" transform="rotate(-50 537.7 531.0)">26.4</text>
<line x1="571.2" y1="516.0" x2="571.2" y2="519.0" stroke="#999"/>
<text x="571.2" y="531.0" text-anchor="end" fill="#666" transform="rotate(-50 571.2 531.0)">26.5</text>
<line x1="604.8" y1="516.0" x2="604.8" y2="519.0" stroke="#999"/>
<text x="604.8" y="531.0" text-anchor="end" fill="#666" transform="rotate(-50 604.8 531.0)">26.7</text>
<line x1="638.3" y1="516.0" x2="638.3" y2="519.0" stroke="#999"/>
<text x="638.3" y="531.0" text-anchor="end" fill="#666" transform="rotate(-50 638.3 531.0)">26.8</text>
<line x1="671.9" y1="516.0" x2="671.9" y2="519.0" stroke="#999"/>
<text x="671.9" y="531.0" text-anchor="end" fill="#666" transform="rotate(-50 671.9 531.0)">26.9</text>
<line x1="705.4" y1="516.0" x2="705.4" y2="519.0" stroke="#999"/>
<text x="705.4" y="531.0" text-anchor="end" fill="#666" transform="rotate(-50 705.4 531.0)">26.10</text>
<line x1="739.0" y1="516.0" x2="739.0" y2="519.0" stroke="#999"/>
<text x="739.0" y="531.0" text-anchor="end" fill="#666" transform="rotate(-50 739.0 531.0)">26.11</text>
<line x1="772.5" y1="516.0" x2="772.5" y2="519.0" stroke="#999"/>
<text x="772.5" y="531.0" text-anchor="end" fill="#666" transform="rotate(-50 772.5 531.0)">26.12</text>
<line x1="806.1" y1="516.0" x2="806.1" y2="519.0" stroke="#999"/>
<text x="806.1" y="531.0" text-anchor="end" fill="#e8731a" transform="rotate(-50 806.1 531.0)">06-25</text>
<line x1="839.6" y1="516.0" x2="839.6" y2="519.0" stroke="#999"/>
<text x="839.6" y="531.0" text-anchor="end" fill="#e8731a" transform="rotate(-50 839.6 531.0)">06-26</text>
<line x1="873.2" y1="516.0" x2="873.2" y2="519.0" stroke="#999"/>
<text x="873.2" y="531.0" text-anchor="end" fill="#e8731a" transform="rotate(-50 873.2 531.0)">06-28</text>
<line x1="906.7" y1="516.0" x2="906.7" y2="519.0" stroke="#999"/>
<text x="906.7" y="531.0" text-anchor="end" fill="#e8731a" transform="rotate(-50 906.7 531.0)">07-01</text>
<line x1="940.3" y1="516.0" x2="940.3" y2="519.0" stroke="#999"/>
<text x="940.3" y="531.0" text-anchor="end" fill="#e8731a" transform="rotate(-50 940.3 531.0)">07-02</text>
<line x1="973.8" y1="516.0" x2="973.8" y2="519.0" stroke="#999"/>
<text x="973.8" y="531.0" text-anchor="end" fill="#e8731a" transform="rotate(-50 973.8 531.0)">07-03</text>
<line x1="1007.4" y1="516.0" x2="1007.4" y2="519.0" stroke="#999"/>
<text x="1007.4" y="531.0" text-anchor="end" fill="#e8731a" transform="rotate(-50 1007.4 531.0)">07-07</text>
<line x1="1040.9" y1="516.0" x2="1040.9" y2="519.0" stroke="#999"/>
<text x="1040.9" y="531.0" text-anchor="end" fill="#e8731a" transform="rotate(-50 1040.9 531.0)">07-07</text>
<line x1="1074.5" y1="516.0" x2="1074.5" y2="519.0" stroke="#999"/>
<text x="1074.5" y="531.0" text-anchor="end" fill="#e8731a" transform="rotate(-50 1074.5 531.0)">07-09</text>
<line x1="1108.0" y1="516.0" x2="1108.0" y2="519.0" stroke="#999"/>
<text x="1108.0" y="531.0" text-anchor="end" fill="#e8731a" transform="rotate(-50 1108.0 531.0)">07-10</text>
<polygon points="68.0,514.7 101.5,515.2 135.1,515.1 168.6,515.0 202.2,515.1 235.7,515.1 269.3,515.0 302.8,515.1 336.4,515.1 369.9,515.2 403.5,515.1 437.0,515.1 470.6,515.1 504.1,515.1 537.7,515.1 571.2,515.1 604.8,515.1 638.3,515.1 671.9,515.1 705.4,515.1 739.0,515.0 772.5,514.8 806.1,514.8 839.6,514.8 873.2,514.9 906.7,514.8 940.3,514.8 973.8,514.8 1007.4,514.9 1040.9,514.8 1074.5,514.9 1108.0,514.9 1108.0,516.0 1074.5,516.0 1040.9,516.0 1007.4,516.0 973.8,516.0 940.3,516.0 906.7,516.0 873.2,516.0 839.6,516.0 806.1,516.0 772.5,516.0 739.0,516.0 705.4,516.0 671.9,516.0 638.3,516.0 604.8,516.0 571.2,516.0 537.7,516.0 504.1,516.0 470.6,516.0 437.0,516.0 403.5,516.0 369.9,516.0 336.4,516.0 302.8,516.0 269.3,516.0 235.7,516.0 202.2,516.0 168.6,516.0 135.1,516.0 101.5,516.0 68.0,516.0" fill="#c7e9c0" fill-opacity="0.9" stroke="#fff" stroke-width="0.4"><title>module_link — parseTranslationUnit</title></polygon>
<polygon points="68.0,390.9 101.5,413.8 135.1,408.4 168.6,352.3 202.2,377.0 235.7,375.0 269.3,362.6 302.8,370.8 336.4,352.9 369.9,356.7 403.5,360.8 437.0,355.0 470.6,351.4 504.1,356.9 537.7,354.7 571.2,357.6 604.8,317.2 638.3,327.4 671.9,330.9 705.4,320.2 739.0,347.1 772.5,340.1 806.1,322.6 839.6,315.0 873.2,326.8 906.7,327.2 940.3,322.6 973.8,291.9 1007.4,297.7 1040.9,290.4 1074.5,296.5 1108.0,294.3 1108.0,514.9 1074.5,514.9 1040.9,514.8 1007.4,514.9 973.8,514.8 940.3,514.8 906.7,514.8 873.2,514.9 839.6,514.8 806.1,514.8 772.5,514.8 739.0,515.0 705.4,515.1 671.9,515.1 638.3,515.1 604.8,515.1 571.2,515.1 537.7,515.1 504.1,515.1 470.6,515.1 437.0,515.1 403.5,515.1 369.9,515.2 336.4,515.1 302.8,515.1 269.3,515.0 235.7,515.1 202.2,515.1 168.6,515.0 135.1,515.1 101.5,515.2 68.0,514.7" fill="#41ab5d" fill-opacity="0.9" stroke="#fff" stroke-width="0.4"><title>module_link — SemanticChecking</title></polygon>
<polygon points="68.0,388.2 101.5,411.2 135.1,405.8 168.6,348.7 202.2,373.7 235.7,371.8 269.3,359.4 302.8,367.6 336.4,349.9 369.9,353.5 403.5,357.9 437.0,352.1 470.6,348.3 504.1,353.9 537.7,351.8 571.2,354.7 604.8,313.9 638.3,324.0 671.9,327.5 705.4,316.8 739.0,335.9 772.5,328.3 806.1,310.5 839.6,302.9 873.2,314.6 906.7,315.3 940.3,310.9 973.8,279.7 1007.4,285.1 1040.9,277.9 1074.5,284.0 1108.0,282.2 1108.0,294.3 1074.5,296.5 1040.9,290.4 1007.4,297.7 973.8,291.9 940.3,322.6 906.7,327.2 873.2,326.8 839.6,315.0 806.1,322.6 772.5,340.1 739.0,347.1 705.4,320.2 671.9,330.9 638.3,327.4 604.8,317.2 571.2,357.6 537.7,354.7 504.1,356.9 470.6,351.4 437.0,355.0 403.5,360.8 369.9,356.7 336.4,352.9 302.8,370.8 269.3,362.6 235.7,375.0 202.2,377.0 168.6,352.3 135.1,408.4 101.5,413.8 68.0,390.9" fill="#006d2c" fill-opacity="0.9" stroke="#fff" stroke-width="0.4"><title>module_link — generateIR</title></polygon>
<polygon points="68.0,385.9 101.5,409.4 135.1,403.1 168.6,344.0 202.2,370.6 235.7,368.9 269.3,356.9 302.8,364.4 336.4,347.0 369.9,350.8 403.5,354.8 437.0,349.2 470.6,345.5 504.1,351.0 537.7,348.7 571.2,351.8 604.8,309.6 638.3,319.8 671.9,323.0 705.4,312.8 739.0,334.4 772.5,327.1 806.1,308.8 839.6,301.6 873.2,313.4 906.7,313.7 940.3,309.7 973.8,278.2 1007.4,281.7 1040.9,277.0 1074.5,282.7 1108.0,280.7 1108.0,282.2 1074.5,284.0 1040.9,277.9 1007.4,285.1 973.8,279.7 940.3,310.9 906.7,315.3 873.2,314.6 839.6,302.9 806.1,310.5 772.5,328.3 739.0,335.9 705.4,316.8 671.9,327.5 638.3,324.0 604.8,313.9 571.2,354.7 537.7,351.8 504.1,353.9 470.6,348.3 437.0,352.1 403.5,357.9 369.9,353.5 336.4,349.9 302.8,367.6 269.3,359.4 235.7,371.8 202.2,373.7 168.6,348.7 135.1,405.8 101.5,411.2 68.0,388.2" fill="#74c476" fill-opacity="0.9" stroke="#fff" stroke-width="0.4"><title>module_link — frontEndExecute (self)</title></polygon>
<polygon points="68.0,382.6 101.5,406.0 135.1,399.8 168.6,340.2 202.2,367.1 235.7,365.3 269.3,353.1 302.8,360.5 336.4,343.2 369.9,347.2 403.5,350.0 437.0,344.4 470.6,340.6 504.1,346.2 537.7,343.9 571.2,346.6 604.8,294.1 638.3,304.1 671.9,307.2 705.4,297.0 739.0,323.2 772.5,315.5 806.1,296.0 839.6,288.6 873.2,300.2 906.7,300.8 940.3,296.4 973.8,265.2 1007.4,270.2 1040.9,265.2 1074.5,271.2 1108.0,269.1 1108.0,280.7 1074.5,282.7 1040.9,277.0 1007.4,281.7 973.8,278.2 940.3,309.7 906.7,313.7 873.2,313.4 839.6,301.6 806.1,308.8 772.5,327.1 739.0,334.4 705.4,312.8 671.9,323.0 638.3,319.8 604.8,309.6 571.2,351.8 537.7,348.7 504.1,351.0 470.6,345.5 437.0,349.2 403.5,354.8 369.9,350.8 336.4,347.0 302.8,364.4 269.3,356.9 235.7,368.9 202.2,370.6 168.6,344.0 135.1,403.1 101.5,409.4 68.0,385.9" fill="#6baed6" fill-opacity="0.9" stroke="#fff" stroke-width="0.4"><title>module_link — specializeModule</title></polygon>
<polygon points="68.0,373.9 101.5,397.4 135.1,391.0 168.6,328.6 202.2,357.2 235.7,354.7 269.3,340.7 302.8,350.5 336.4,333.4 369.9,337.3 403.5,341.2 437.0,335.5 470.6,331.7 504.1,337.5 537.7,335.0 571.2,337.7 604.8,274.8 638.3,285.2 671.9,288.5 705.4,277.6 739.0,305.7 772.5,298.1 806.1,277.2 839.6,269.6 873.2,281.6 906.7,282.7 940.3,280.7 973.8,249.3 1007.4,255.0 1040.9,250.1 1074.5,256.1 1108.0,256.7 1108.0,269.1 1074.5,271.2 1040.9,265.2 1007.4,270.2 973.8,265.2 940.3,296.4 906.7,300.8 873.2,300.2 839.6,288.6 806.1,296.0 772.5,315.5 739.0,323.2 705.4,297.0 671.9,307.2 638.3,304.1 604.8,294.1 571.2,346.6 537.7,343.9 504.1,346.2 470.6,340.6 437.0,344.4 403.5,350.0 369.9,347.2 336.4,343.2 302.8,360.5 269.3,353.1 235.7,365.3 202.2,367.1 168.6,340.2 135.1,399.8 101.5,406.0 68.0,382.6" fill="#2171b5" fill-opacity="0.9" stroke="#fff" stroke-width="0.4"><title>module_link — simplifyIR</title></polygon>
<polygon points="68.0,353.3 101.5,378.3 135.1,370.3 168.6,297.8 202.2,334.1 235.7,329.8 269.3,314.2 302.8,326.2 336.4,309.1 369.9,312.9 403.5,319.0 437.0,313.0 470.6,307.3 504.1,313.2 537.7,310.5 571.2,313.2 604.8,169.9 638.3,177.1 671.9,184.1 705.4,167.6 739.0,277.9 772.5,270.1 806.1,246.8 839.6,239.0 873.2,250.8 906.7,252.5 940.3,248.5 973.8,218.0 1007.4,224.9 1040.9,218.5 1074.5,225.5 1108.0,225.0 1108.0,256.7 1074.5,256.1 1040.9,250.1 1007.4,255.0 973.8,249.3 940.3,280.7 906.7,282.7 873.2,281.6 839.6,269.6 806.1,277.2 772.5,298.1 739.0,305.7 705.4,277.6 671.9,288.5 638.3,285.2 604.8,274.8 571.2,337.7 537.7,335.0 504.1,337.5 470.6,331.7 437.0,335.5 403.5,341.2 369.9,337.3 336.4,333.4 302.8,350.5 269.3,340.7 235.7,354.7 202.2,357.2 168.6,328.6 135.1,391.0 101.5,397.4 68.0,373.9" fill="#08306b" fill-opacity="0.9" stroke="#fff" stroke-width="0.4"><title>module_link — linkIR</title></polygon>
<polygon points="68.0,353.2 101.5,378.2 135.1,370.1 168.6,297.6 202.2,333.9 235.7,329.6 269.3,314.0 302.8,326.0 336.4,308.9 369.9,312.8 403.5,318.9 437.0,312.9 470.6,307.1 504.1,313.0 537.7,310.3 571.2,313.0 604.8,169.8 638.3,177.0 671.9,184.0 705.4,167.5 739.0,277.8 772.5,270.0 806.1,246.7 839.6,238.8 873.2,250.7 906.7,252.4 940.3,248.4 973.8,217.9 1007.4,224.7 1040.9,218.3 1074.5,225.4 1108.0,224.8 1108.0,225.0 1074.5,225.5 1040.9,218.5 1007.4,224.9 973.8,218.0 940.3,248.5 906.7,252.5 873.2,250.8 839.6,239.0 806.1,246.8 772.5,270.1 739.0,277.9 705.4,167.6 671.9,184.1 638.3,177.1 604.8,169.9 571.2,313.2 537.7,310.5 504.1,313.2 470.6,307.3 437.0,313.0 403.5,319.0 369.9,312.9 336.4,309.1 302.8,326.2 269.3,314.2 235.7,329.8 202.2,334.1 168.6,297.8 135.1,370.3 101.5,378.3 68.0,353.3" fill="#9e9ac8" fill-opacity="0.9" stroke="#fff" stroke-width="0.4"><title>module_link — unrollLoopsInModule</title></polygon>
<polygon points="68.0,346.9 101.5,372.3 135.1,364.4 168.6,290.7 202.2,330.8 235.7,326.4 269.3,310.9 302.8,322.9 336.4,305.7 369.9,309.7 403.5,315.8 437.0,309.9 470.6,304.1 504.1,309.9 537.7,307.3 571.2,310.0 604.8,166.6 638.3,173.7 671.9,180.8 705.4,164.2 739.0,274.6 772.5,266.6 806.1,243.2 839.6,235.2 873.2,247.2 906.7,249.0 940.3,244.9 973.8,214.3 1007.4,221.6 1040.9,215.2 1074.5,222.0 1108.0,221.7 1108.0,224.8 1074.5,225.4 1040.9,218.3 1007.4,224.7 973.8,217.9 940.3,248.4 906.7,252.4 873.2,250.7 839.6,238.8 806.1,246.7 772.5,270.0 739.0,277.8 705.4,167.5 671.9,184.0 638.3,177.0 604.8,169.8 571.2,313.0 537.7,310.3 504.1,313.0 470.6,307.1 437.0,312.9 403.5,318.9 369.9,312.8 336.4,308.9 302.8,326.0 269.3,314.0 235.7,329.6 202.2,333.9 168.6,297.6 135.1,370.1 101.5,378.2 68.0,353.2" fill="#807dba" fill-opacity="0.9" stroke="#fff" stroke-width="0.4"><title>module_link — legalizeResourceTypes</title></polygon>
<polygon points="68.0,340.6 101.5,366.5 135.1,358.5 168.6,283.5 202.2,327.4 235.7,323.1 269.3,307.5 302.8,319.5 336.4,302.4 369.9,306.3 403.5,312.5 437.0,306.7 470.6,300.9 504.1,306.8 537.7,304.1 571.2,306.9 604.8,163.2 638.3,170.3 671.9,177.5 705.4,160.6 739.0,271.1 772.5,263.1 806.1,239.5 839.6,231.6 873.2,243.5 906.7,245.5 940.3,241.4 973.8,210.7 1007.4,218.4 1040.9,212.0 1074.5,218.7 1108.0,218.5 1108.0,221.7 1074.5,222.0 1040.9,215.2 1007.4,221.6 973.8,214.3 940.3,244.9 906.7,249.0 873.2,247.2 839.6,235.2 806.1,243.2 772.5,266.6 739.0,274.6 705.4,164.2 671.9,180.8 638.3,173.7 604.8,166.6 571.2,310.0 537.7,307.3 504.1,309.9 470.6,304.1 437.0,309.9 403.5,315.8 369.9,309.7 336.4,305.7 302.8,322.9 269.3,310.9 235.7,326.4 202.2,330.8 168.6,290.7 135.1,364.4 101.5,372.3 68.0,346.9" fill="#6a51a3" fill-opacity="0.9" stroke="#fff" stroke-width="0.4"><title>module_link — legalizeExistentialTypeLayout</title></polygon>
<polygon points="68.0,340.4 101.5,366.2 135.1,358.3 168.6,283.3 202.2,327.2 235.7,322.8 269.3,307.1 302.8,319.3 336.4,302.1 369.9,306.1 403.5,312.3 437.0,306.4 470.6,300.6 504.1,306.5 537.7,303.9 571.2,306.7 604.8,162.9 638.3,170.1 671.9,177.3 705.4,160.4 739.0,270.9 772.5,262.9 806.1,239.3 839.6,231.3 873.2,243.3 906.7,245.3 940.3,241.2 973.8,210.5 1007.4,218.1 1040.9,211.7 1074.5,218.4 1108.0,218.2 1108.0,218.5 1074.5,218.7 1040.9,212.0 1007.4,218.4 973.8,210.7 940.3,241.4 906.7,245.5 873.2,243.5 839.6,231.6 806.1,239.5 772.5,263.1 739.0,271.1 705.4,160.6 671.9,177.5 638.3,170.3 604.8,163.2 571.2,306.9 537.7,304.1 504.1,306.8 470.6,300.9 437.0,306.7 403.5,312.5 369.9,306.3 336.4,302.4 302.8,319.5 269.3,307.5 235.7,323.1 202.2,327.4 168.6,283.5 135.1,358.5 101.5,366.5 68.0,340.6" fill="#bcbddc" fill-opacity="0.9" stroke="#fff" stroke-width="0.4"><title>module_link — performMandatoryEarlyInlining</title></polygon>
<polygon points="68.0,340.1 101.5,365.9 135.1,357.9 168.6,282.9 202.2,326.9 235.7,322.5 269.3,306.8 302.8,319.0 336.4,301.8 369.9,305.8 403.5,312.0 437.0,306.1 470.6,300.3 504.1,306.2 537.7,303.6 571.2,306.4 604.8,162.6 638.3,169.8 671.9,177.0 705.4,160.1 739.0,270.6 772.5,262.5 806.1,239.0 839.6,231.0 873.2,242.9 906.7,244.9 940.3,240.8 973.8,210.1 1007.4,217.8 1040.9,211.4 1074.5,218.1 1108.0,217.9 1108.0,218.2 1074.5,218.4 1040.9,211.7 1007.4,218.1 973.8,210.5 940.3,241.2 906.7,245.3 873.2,243.3 839.6,231.3 806.1,239.3 772.5,262.9 739.0,270.9 705.4,160.4 671.9,177.3 638.3,170.1 604.8,162.9 571.2,306.7 537.7,303.9 504.1,306.5 470.6,300.6 437.0,306.4 403.5,312.3 369.9,306.1 336.4,302.1 302.8,319.3 269.3,307.1 235.7,322.8 202.2,327.2 168.6,283.3 135.1,358.3 101.5,366.2 68.0,340.4" fill="#dadaeb" fill-opacity="0.9" stroke="#fff" stroke-width="0.4"><title>module_link — performForceInlining</title></polygon>
<polygon points="68.0,331.7 101.5,356.8 135.1,348.8 168.6,272.1 202.2,316.1 235.7,311.1 269.3,296.5 302.8,308.7 336.4,291.3 369.9,294.0 403.5,301.1 437.0,295.0 470.6,289.4 504.1,295.3 537.7,292.1 571.2,295.1 604.8,138.6 638.3,146.3 671.9,152.6 705.4,135.1 739.0,252.6 772.5,246.2 806.1,218.6 839.6,212.8 873.2,224.1 906.7,226.1 940.3,221.5 973.8,189.0 1007.4,200.7 1040.9,192.5 1074.5,201.2 1108.0,201.4 1108.0,217.9 1074.5,218.1 1040.9,211.4 1007.4,217.8 973.8,210.1 940.3,240.8 906.7,244.9 873.2,242.9 839.6,231.0 806.1,239.0 772.5,262.5 739.0,270.6 705.4,160.1 671.9,177.0 638.3,169.8 604.8,162.6 571.2,306.4 537.7,303.6 504.1,306.2 470.6,300.3 437.0,306.1 403.5,312.0 369.9,305.8 336.4,301.8 302.8,319.0 269.3,306.8 235.7,322.5 202.2,326.9 168.6,282.9 135.1,357.9 101.5,365.9 68.0,340.1" fill="#4a1486" fill-opacity="0.9" stroke="#fff" stroke-width="0.4"><title>module_link — linkAndOptimizeIR (self)</title></polygon>
<polygon points="68.0,300.8 101.5,326.2 135.1,319.1 168.6,237.2 202.2,292.1 235.7,285.8 269.3,266.1 302.8,280.5 336.4,267.6 369.9,270.6 403.5,278.2 437.0,271.8 470.6,265.9 504.1,272.6 537.7,267.2 571.2,271.9 604.8,111.0 638.3,122.0 671.9,128.8 705.4,111.5 739.0,225.4 772.5,221.7 806.1,193.1 839.6,188.2 873.2,198.6 906.7,201.0 940.3,197.3 973.8,163.9 1007.4,176.3 1040.9,168.1 1074.5,176.3 1108.0,177.3 1108.0,201.4 1074.5,201.2 1040.9,192.5 1007.4,200.7 973.8,189.0 940.3,221.5 906.7,226.1 873.2,224.1 839.6,212.8 806.1,218.6 772.5,246.2 739.0,252.6 705.4,135.1 671.9,152.6 638.3,146.3 604.8,138.6 571.2,295.1 537.7,292.1 504.1,295.3 470.6,289.4 437.0,295.0 403.5,301.1 369.9,294.0 336.4,291.3 302.8,308.7 269.3,296.5 235.7,311.1 202.2,316.1 168.6,272.1 135.1,348.8 101.5,356.8 68.0,331.7" fill="#e6550d" fill-opacity="0.9" stroke="#fff" stroke-width="0.4"><title>module_link — generateOutput (self)</title></polygon>
<polygon points="68.0,299.2 101.5,325.9 135.1,317.7 168.6,235.7 202.2,289.9 235.7,285.8 269.3,264.9 302.8,278.3 336.4,266.9 369.9,270.6 403.5,278.2 437.0,268.5 470.6,264.6 504.1,270.0 537.7,265.6 571.2,271.3 604.8,108.6 638.3,117.9 671.9,127.3 705.4,111.5 739.0,224.8 772.5,219.6 806.1,192.5 839.6,187.5 873.2,196.8 906.7,200.4 940.3,194.2 973.8,162.9 1007.4,175.4 1040.9,168.1 1074.5,175.4 1108.0,176.4 1108.0,177.3 1074.5,176.3 1040.9,168.1 1007.4,176.3 973.8,163.9 940.3,197.3 906.7,201.0 873.2,198.6 839.6,188.2 806.1,193.1 772.5,221.7 739.0,225.4 705.4,111.5 671.9,128.8 638.3,122.0 604.8,111.0 571.2,271.9 537.7,267.2 504.1,272.6 470.6,265.9 437.0,271.8 403.5,278.2 369.9,270.6 336.4,267.6 302.8,280.5 269.3,266.1 235.7,285.8 202.2,292.1 168.6,237.2 135.1,319.1 101.5,326.2 68.0,300.8" fill="#969696" fill-opacity="0.9" stroke="#fff" stroke-width="0.4"><title>module_link — compileInner (self)</title></polygon>
<text x="12" y="578" fill="#666" font-weight="600">phase buckets</text>
<rect x="12" y="586" width="12" height="12" fill="#c7e9c0"/>
<text x="28" y="596" fill="#222">parseTranslationUnit</text>
<rect x="289" y="586" width="12" height="12" fill="#41ab5d"/>
<text x="305" y="596" fill="#222">SemanticChecking</text>
<rect x="566" y="586" width="12" height="12" fill="#006d2c"/>
<text x="582" y="596" fill="#222">generateIR</text>
<rect x="843" y="586" width="12" height="12" fill="#74c476"/>
<text x="859" y="596" fill="#222">frontEndExecute (self)</text>
<rect x="12" y="604" width="12" height="12" fill="#6baed6"/>
<text x="28" y="614" fill="#222">specializeModule</text>
<rect x="289" y="604" width="12" height="12" fill="#2171b5"/>
<text x="305" y="614" fill="#222">simplifyIR</text>
<rect x="566" y="604" width="12" height="12" fill="#08306b"/>
<text x="582" y="614" fill="#222">linkIR</text>
<rect x="843" y="604" width="12" height="12" fill="#9e9ac8"/>
<text x="859" y="614" fill="#222">unrollLoopsInModule</text>
<rect x="12" y="622" width="12" height="12" fill="#807dba"/>
<text x="28" y="632" fill="#222">legalizeResourceTypes</text>
<rect x="289" y="622" width="12" height="12" fill="#6a51a3"/>
<text x="305" y="632" fill="#222">legalizeExistentialTypeLayout</text>
<rect x="566" y="622" width="12" height="12" fill="#bcbddc"/>
<text x="582" y="632" fill="#222">performMandatoryEarlyInlining</text>
<rect x="843" y="622" width="12" height="12" fill="#dadaeb"/>
<text x="859" y="632" fill="#222">performForceInlining</text>
<rect x="12" y="640" width="12" height="12" fill="#4a1486"/>
<text x="28" y="650" fill="#222">linkAndOptimizeIR (self)</text>
<rect x="289" y="640" width="12" height="12" fill="#fd8d3c"/>
<text x="305" y="650" fill="#222">emitEntryPointsSourceFromIR</text>
<rect x="566" y="640" width="12" height="12" fill="#e6550d"/>
<text x="582" y="650" fill="#222">generateOutput (self)</text>
<rect x="843" y="640" width="12" height="12" fill="#969696"/>
<text x="859" y="650" fill="#222">compileInner (self)</text>
</svg>