<svg xmlns="http://www.w3.org/2000/svg" xmlns:xlink="http://www.w3.org/1999/xlink" width="1132" height="680" viewBox="0 0 1132 680" preserveAspectRatio="xMidYMid meet" font-family="sans-serif" font-size="13">
<rect width="1132" height="680" fill="white"/>
<text x="12" y="30" font-size="20" font-weight="bold">module_link — Across releases (median ms)</text>
<text x="68" y="60" font-size="15" font-weight="600" fill="#1a1a1a">module_link<tspan fill="#888" font-weight="400" text-decoration="none">  1.37×</tspan></text>
<line x1="68.0" y1="516.0" x2="1108.0" y2="516.0" stroke="#eee"/>
<text x="64.0" y="519.0" text-anchor="end" fill="#999">0.0</text>
<line x1="68.0" y1="296.0" x2="1108.0" y2="296.0" stroke="#eee"/>
<text x="64.0" y="299.0" text-anchor="end" fill="#999">87</text>
<line x1="68.0" y1="76.0" x2="1108.0" y2="76.0" stroke="#eee"/>
<text x="64.0" y="79.0" text-anchor="end" fill="#999">175</text>
<line x1="68.0" y1="76.0" x2="68.0" y2="516.0" stroke="#333"/>
<line x1="68.0" y1="516.0" x2="1108.0" y2="516.0" stroke="#333"/>
<line x1="68.0" y1="516.0" x2="68.0" y2="519.0" stroke="#999"/>
<text x="68.0" y="531.0" text-anchor="end" fill="#666" transform="rotate(-50 68.0 531.0)">25.12</text>
<line x1="108.0" y1="516.0" x2="108.0" y2="519.0" stroke="#999"/>
<text x="108.0" y="531.0" text-anchor="end" fill="#666" transform="rotate(-50 108.0 531.0)">25.13</text>
<line x1="148.0" y1="516.0" x2="148.0" y2="519.0" stroke="#999"/>
<text x="148.0" y="531.0" text-anchor="end" fill="#666" transform="rotate(-50 148.0 531.0)">25.14</text>
<line x1="188.0" y1="516.0" x2="188.0" y2="519.0" stroke="#999"/>
<text x="188.0" y="531.0" text-anchor="end" fill="#666" transform="rotate(-50 188.0 531.0)">25.15</text>
<line x1="228.0" y1="516.0" x2="228.0" y2="519.0" stroke="#999"/>
<text x="228.0" y="531.0" text-anchor="end" fill="#666" transform="rotate(-50 228.0 531.0)">25.16</text>
<line x1="268.0" y1="516.0" x2="268.0" y2="519.0" stroke="#999"/>
<text x="268.0" y="531.0" text-anchor="end" fill="#666" transform="rotate(-50 268.0 531.0)">25.17</text>
<line x1="308.0" y1="516.0" x2="308.0" y2="519.0" stroke="#999"/>
<text x="308.0" y="531.0" text-anchor="end" fill="#666" transform="rotate(-50 308.0 531.0)">25.18</text>
<line x1="348.0" y1="516.0" x2="348.0" y2="519.0" stroke="#999"/>
<text x="348.0" y="531.0" text-anchor="end" fill="#666" transform="rotate(-50 348.0 531.0)">25.19</text>
<line x1="388.0" y1="516.0" x2="388.0" y2="519.0" stroke="#999"/>
<text x="388.0" y="531.0" text-anchor="end" fill="#666" transform="rotate(-50 388.0 531.0)">25.20</text>
<line x1="428.0" y1="516.0" x2="428.0" y2="519.0" stroke="#999"/>
<text x="428.0" y="531.0" text-anchor="end" fill="#666" transform="rotate(-50 428.0 531.0)">25.21</text>
<line x1="468.0" y1="516.0" x2="468.0" y2="519.0" stroke="#999"/>
<text x="468.0" y="531.0" text-anchor="end" fill="#666" transform="rotate(-50 468.0 531.0)">25.22</text>
<line x1="508.0" y1="516.0" x2="508.0" y2="519.0" stroke="#999"/>
<text x="508.0" y="531.0" text-anchor="end" fill="#666" transform="rotate(-50 508.0 531.0)">25.23</text>
<line x1="548.0" y1="516.0" x2="548.0" y2="519.0" stroke="#999"/>
<text x="548.0" y="531.0" text-anchor="end" fill="#666" transform="rotate(-50 548.0 531.0)">25.24</text>
<line x1="588.0" y1="516.0" x2="588.0" y2="519.0" stroke="#999"/>
<text x="588.0" y="531.0" text-anchor="end" fill="#666" transform="rotate(-50 588.0 531.0)">26.1</text>
<line x1="628.0" y1="516.0" x2="628.0" y2="519.0" stroke="#999"/>
<text x="628.0" y="531.0" text-anchor="end" fill="#666" transform="rotate(-50 628.0 531.0)">26.2</text>
<line x1="668.0" y1="516.0" x2="668.0" y2="519.0" stroke="#999"/>
<text x="668.0" y="531.0" text-anchor="end" fill="#666" transform="rotate(-50 668.0 531.0)">26.3</text>
<line x1="708.0" y1="516.0" x2="708.0" y2="519.0" stroke="#999"/>
<text x="708.0" y="531.0" text-anchor="end" fill="#666" transform="rotate(-50 708.0 531.0)">26.4</text>
<line x1="748.0" y1="516.0" x2="748.0" y2="519.0" stroke="#999"/>
<text x="748.0" y="531.0" text-anchor="end" fill="#666" transform="rotate(-50 748.0 531.0)">26.5</text>
<line x1="788.0" y1="516.0" x2="788.0" y2="519.0" stroke="#999"/>
<text x="788.0" y="531.0" text-anchor="end" fill="#666" transform="rotate(-50 788.0 531.0)">26.7</text>
<line x1="828.0" y1="516.0" x2="828.0" y2="519.0" stroke="#999"/>
<text x="828.0" y="531.0" text-anchor="end" fill="#666" transform="rotate(-50 828.0 531.0)">26.8</text>
<line x1="868.0" y1="516.0" x2="868.0" y2="519.0" stroke="#999"/>
<text x="868.0" y="531.0" text-anchor="end" fill="#666" transform="rotate(-50 868.0 531.0)">26.9</text>
<line x1="908.0" y1="516.0" x2="908.0" y2="519.0" stroke="#999"/>
<text x="908.0" y="531.0" text-anchor="end" fill="#666" transform="rotate(-50 908.0 531.0)">26.10</text>
<line x1="948.0" y1="516.0" x2="948.0" y2="519.0" stroke="#999"/>
<text x="948.0" y="531.0" text-anchor="end" fill="#666" transform="rotate(-50 948.0 531.0)">26.11</text>
<line x1="988.0" y1="516.0" x2="988.0" y2="519.0" stroke="#999"/>
<text x="988.0" y="531.0" text-anchor="end" fill="#666" transform="rotate(-50 988.0 531.0)">26.12</text>
<line x1="1028.0" y1="516.0" x2="1028.0" y2="519.0" stroke="#999"/>
<text x="1028.0" y="531.0" text-anchor="end" fill="#666" transform="rotate(-50 1028.0 531.0)">26.13</text>
<line x1="1068.0" y1="516.0" x2="1068.0" y2="519.0" stroke="#999"/>
<text x="1068.0" y="531.0" text-anchor="end" fill="#666" transform="rotate(-50 1068.0 531.0)">26.13.1</text>
<line x1="1108.0" y1="516.0" x2="1108.0" y2="519.0" stroke="#999"/>
<text x="1108.0" y="531.0" text-anchor="end" fill="#666" transform="rotate(-50 1108.0 531.0)">26.14</text>
<polygon points="68.0,516.0 108.0,513.3 148.0,514.8 188.0,515.2 228.0,515.3 268.0,515.3 308.0,515.3 348.0,515.3 388.0,515.3 428.0,515.3 468.0,515.3 508.0,515.3 548.0,515.3 588.0,515.2 628.0,515.2 668.0,515.2 708.0,515.2 748.0,515.3 788.0,515.1 828.0,515.2 868.0,515.2 908.0,515.1 948.0,515.1 988.0,515.1 1028.0,515.1 1068.0,515.1 1108.0,515.3 1108.0,516.0 1068.0,516.0 1028.0,516.0 988.0,516.0 948.0,516.0 908.0,516.0 868.0,516.0 828.0,516.0 788.0,516.0 748.0,516.0 708.0,516.0 668.0,516.0 628.0,516.0 588.0,516.0 548.0,516.0 508.0,516.0 468.0,516.0 428.0,516.0 388.0,516.0 348.0,516.0 308.0,516.0 268.0,516.0 228.0,516.0 188.0,516.0 148.0,516.0 108.0,516.0 68.0,516.0" fill="#c7e9c0" fill-opacity="0.9" stroke="#fff" stroke-width="0.4"><title>module_link — parseTranslationUnit</title></polygon>
<polygon points="68.0,440.5 108.0,416.5 148.0,396.7 188.0,422.4 228.0,428.6 268.0,409.2 308.0,408.4 348.0,406.7 388.0,405.7 428.0,400.2 468.0,390.3 508.0,392.7 548.0,383.8 588.0,375.1 628.0,371.9 668.0,375.8 708.0,377.0 748.0,373.1 788.0,337.3 828.0,349.2 868.0,348.2 908.0,330.1 948.0,349.8 988.0,358.7 1028.0,324.8 1068.0,337.9 1108.0,370.9 1108.0,515.3 1068.0,515.1 1028.0,515.1 988.0,515.1 948.0,515.1 908.0,515.1 868.0,515.2 828.0,515.2 788.0,515.1 748.0,515.3 708.0,515.2 668.0,515.2 628.0,515.2 588.0,515.2 548.0,515.3 508.0,515.3 468.0,515.3 428.0,515.3 388.0,515.3 348.0,515.3 308.0,515.3 268.0,515.3 228.0,515.3 188.0,515.2 148.0,514.8 108.0,513.3 68.0,516.0" fill="#41ab5d" fill-opacity="0.9" stroke="#fff" stroke-width="0.4"><title>module_link — SemanticChecking</title></polygon>
<polygon points="68.0,440.5 108.0,414.2 148.0,394.3 188.0,420.1 228.0,426.4 268.0,406.7 308.0,405.8 348.0,404.2 388.0,403.2 428.0,397.7 468.0,387.8 508.0,390.2 548.0,381.3 588.0,372.7 628.0,369.4 668.0,373.3 708.0,374.5 748.0,370.5 788.0,334.4 828.0,346.2 868.0,345.3 908.0,327.0 948.0,336.7 988.0,348.6 1028.0,314.7 1068.0,327.7 1108.0,362.6 1108.0,370.9 1068.0,337.9 1028.0,324.8 988.0,358.7 948.0,349.8 908.0,330.1 868.0,348.2 828.0,349.2 788.0,337.3 748.0,373.1 708.0,377.0 668.0,375.8 628.0,371.9 588.0,375.1 548.0,383.8 508.0,392.7 468.0,390.3 428.0,400.2 388.0,405.7 348.0,406.7 308.0,408.4 268.0,409.2 228.0,428.6 188.0,422.4 148.0,396.7 108.0,416.5 68.0,440.5" fill="#006d2c" fill-opacity="0.9" stroke="#fff" stroke-width="0.4"><title>module_link — generateIR</title></polygon>
<polygon points="68.0,435.4 108.0,412.4 148.0,391.5 188.0,418.2 228.0,424.7 268.0,404.7 308.0,403.9 348.0,402.0 388.0,401.1 428.0,395.6 468.0,385.6 508.0,388.1 548.0,378.9 588.0,370.3 628.0,366.9 668.0,370.8 708.0,372.0 748.0,368.1 788.0,328.6 828.0,342.3 868.0,340.7 908.0,321.9 948.0,336.7 988.0,347.2 1028.0,312.8 1068.0,326.5 1108.0,362.6 1108.0,362.6 1068.0,327.7 1028.0,314.7 988.0,348.6 948.0,336.7 908.0,327.0 868.0,345.3 828.0,346.2 788.0,334.4 748.0,370.5 708.0,374.5 668.0,373.3 628.0,369.4 588.0,372.7 548.0,381.3 508.0,390.2 468.0,387.8 428.0,397.7 388.0,403.2 348.0,404.2 308.0,405.8 268.0,406.7 228.0,426.4 188.0,420.1 148.0,394.3 108.0,414.2 68.0,440.5" fill="#74c476" fill-opacity="0.9" stroke="#fff" stroke-width="0.4"><title>module_link — frontEndExecute (self)</title></polygon>
<polygon points="68.0,432.9 108.0,409.6 148.0,388.6 188.0,415.2 228.0,421.9 268.0,401.9 308.0,401.0 348.0,399.1 388.0,398.0 428.0,392.6 468.0,382.6 508.0,385.1 548.0,374.9 588.0,366.2 628.0,362.8 668.0,366.7 708.0,368.0 748.0,363.8 788.0,314.6 828.0,328.7 868.0,327.2 908.0,307.2 948.0,325.7 988.0,337.6 1028.0,304.0 1068.0,317.8 1108.0,355.5 1108.0,362.6 1068.0,326.5 1028.0,312.8 988.0,347.2 948.0,336.7 908.0,321.9 868.0,340.7 828.0,342.3 788.0,328.6 748.0,368.1 708.0,372.0 668.0,370.8 628.0,366.9 588.0,370.3 548.0,378.9 508.0,388.1 468.0,385.6 428.0,395.6 388.0,401.1 348.0,402.0 308.0,403.9 268.0,404.7 228.0,424.7 188.0,418.2 148.0,391.5 108.0,412.4 68.0,435.4" fill="#6baed6" fill-opacity="0.9" stroke="#fff" stroke-width="0.4"><title>module_link — specializeModule</title></polygon>
<polygon points="68.0,427.9 108.0,402.4 148.0,380.9 188.0,406.7 228.0,414.7 268.0,393.9 308.0,392.9 348.0,390.9 388.0,389.8 428.0,384.4 468.0,374.6 508.0,376.9 548.0,367.6 588.0,358.8 628.0,355.3 668.0,359.2 708.0,360.3 748.0,356.3 788.0,297.2 828.0,312.8 868.0,311.0 908.0,289.4 948.0,309.4 988.0,322.9 1028.0,292.2 1068.0,308.2 1108.0,348.4 1108.0,355.5 1068.0,317.8 1028.0,304.0 988.0,337.6 948.0,325.7 908.0,307.2 868.0,327.2 828.0,328.7 788.0,314.6 748.0,363.8 708.0,368.0 668.0,366.7 628.0,362.8 588.0,366.2 548.0,374.9 508.0,385.1 468.0,382.6 428.0,392.6 388.0,398.0 348.0,399.1 308.0,401.0 268.0,401.9 228.0,421.9 188.0,415.2 148.0,388.6 108.0,409.6 68.0,432.9" fill="#2171b5" fill-opacity="0.9" stroke="#fff" stroke-width="0.4"><title>module_link — simplifyIR</title></polygon>
<polygon points="68.0,412.8 108.0,384.3 148.0,362.0 188.0,388.7 228.0,398.1 268.0,375.6 308.0,374.4 348.0,372.3 388.0,371.4 428.0,365.8 468.0,355.7 508.0,357.7 548.0,348.7 588.0,340.4 628.0,334.6 668.0,338.5 708.0,339.3 748.0,335.8 788.0,189.2 828.0,224.5 868.0,222.4 908.0,172.9 948.0,280.2 988.0,298.7 1028.0,268.3 1068.0,283.3 1108.0,334.9 1108.0,348.4 1068.0,308.2 1028.0,292.2 988.0,322.9 948.0,309.4 908.0,289.4 868.0,311.0 828.0,312.8 788.0,297.2 748.0,356.3 708.0,360.3 668.0,359.2 628.0,355.3 588.0,358.8 548.0,367.6 508.0,376.9 468.0,374.6 428.0,384.4 388.0,389.8 348.0,390.9 308.0,392.9 268.0,393.9 228.0,414.7 188.0,406.7 148.0,380.9 108.0,402.4 68.0,427.9" fill="#08306b" fill-opacity="0.9" stroke="#fff" stroke-width="0.4"><title>module_link — linkIR</title></polygon>
<polygon points="68.0,412.8 108.0,384.2 148.0,361.9 188.0,388.5 228.0,398.0 268.0,375.4 308.0,374.2 348.0,372.2 388.0,371.3 428.0,365.7 468.0,355.5 508.0,357.5 548.0,348.6 588.0,340.2 628.0,334.5 668.0,338.3 708.0,339.2 748.0,335.6 788.0,189.1 828.0,224.4 868.0,222.3 908.0,172.8 948.0,280.1 988.0,298.7 1028.0,268.1 1068.0,283.1 1108.0,334.9 1108.0,334.9 1068.0,283.3 1028.0,268.3 988.0,298.7 948.0,280.2 908.0,172.9 868.0,222.4 828.0,224.5 788.0,189.2 748.0,335.8 708.0,339.3 668.0,338.5 628.0,334.6 588.0,340.4 548.0,348.7 508.0,357.7 468.0,355.7 428.0,365.8 388.0,371.4 348.0,372.3 308.0,374.4 268.0,375.6 228.0,398.1 188.0,388.7 148.0,362.0 108.0,384.3 68.0,412.8" fill="#9e9ac8" fill-opacity="0.9" stroke="#fff" stroke-width="0.4"><title>module_link — unrollLoopsInModule</title></polygon>
<polygon points="68.0,410.2 108.0,379.3 148.0,356.7 188.0,383.6 228.0,393.1 268.0,370.7 308.0,371.7 348.0,369.6 388.0,368.6 428.0,363.1 468.0,352.9 508.0,355.0 548.0,346.0 588.0,337.6 628.0,331.9 668.0,335.7 708.0,336.6 748.0,333.0 788.0,186.2 828.0,221.7 868.0,219.6 908.0,169.8 948.0,277.3 988.0,295.9 1028.0,265.6 1068.0,282.4 1108.0,334.1 1108.0,334.9 1068.0,283.1 1028.0,268.1 988.0,298.7 948.0,280.1 908.0,172.8 868.0,222.3 828.0,224.4 788.0,189.1 748.0,335.6 708.0,339.2 668.0,338.3 628.0,334.5 588.0,340.2 548.0,348.6 508.0,357.5 468.0,355.5 428.0,365.7 388.0,371.3 348.0,372.2 308.0,374.2 268.0,375.4 228.0,398.0 188.0,388.5 148.0,361.9 108.0,384.2 68.0,412.8" fill="#807dba" fill-opacity="0.9" stroke="#fff" stroke-width="0.4"><title>module_link — legalizeResourceTypes</title></polygon>
<polygon points="68.0,407.7 108.0,374.2 148.0,351.4 188.0,378.5 228.0,388.2 268.0,365.8 308.0,369.1 348.0,366.9 388.0,366.0 428.0,360.5 468.0,350.3 508.0,352.4 548.0,343.3 588.0,334.9 628.0,329.1 668.0,333.1 708.0,333.9 748.0,330.4 788.0,183.2 828.0,218.9 868.0,216.7 908.0,166.7 948.0,274.3 988.0,292.9 1028.0,262.9 1068.0,281.6 1108.0,333.2 1108.0,334.1 1068.0,282.4 1028.0,265.6 988.0,295.9 948.0,277.3 908.0,169.8 868.0,219.6 828.0,221.7 788.0,186.2 748.0,333.0 708.0,336.6 668.0,335.7 628.0,331.9 588.0,337.6 548.0,346.0 508.0,355.0 468.0,352.9 428.0,363.1 388.0,368.6 348.0,369.6 308.0,371.7 268.0,370.7 228.0,393.1 188.0,383.6 148.0,356.7 108.0,379.3 68.0,410.2" fill="#6a51a3" fill-opacity="0.9" stroke="#fff" stroke-width="0.4"><title>module_link — legalizeExistentialTypeLayout</title></polygon>
<polygon points="68.0,407.7 108.0,374.0 148.0,351.1 188.0,378.3 228.0,388.0 268.0,365.6 308.0,368.9 348.0,366.7 388.0,365.8 428.0,360.3 468.0,350.1 508.0,352.2 548.0,343.1 588.0,334.7 628.0,328.9 668.0,332.9 708.0,333.7 748.0,330.2 788.0,183.0 828.0,218.7 868.0,216.5 908.0,166.5 948.0,274.1 988.0,292.7 1028.0,262.7 1068.0,281.3 1108.0,333.0 1108.0,333.2 1068.0,281.6 1028.0,262.9 988.0,292.9 948.0,274.3 908.0,166.7 868.0,216.7 828.0,218.9 788.0,183.2 748.0,330.4 708.0,333.9 668.0,333.1 628.0,329.1 588.0,334.9 548.0,343.3 508.0,352.4 468.0,350.3 428.0,360.5 388.0,366.0 348.0,366.9 308.0,369.1 268.0,365.8 228.0,388.2 188.0,378.5 148.0,351.4 108.0,374.2 68.0,407.7" fill="#bcbddc" fill-opacity="0.9" stroke="#fff" stroke-width="0.4"><title>module_link — performMandatoryEarlyInlining</title></polygon>
<polygon points="68.0,407.7 108.0,373.7 148.0,350.9 188.0,378.0 228.0,387.7 268.0,365.4 308.0,368.7 348.0,366.5 388.0,365.5 428.0,360.1 468.0,349.8 508.0,351.9 548.0,342.9 588.0,334.5 628.0,328.7 668.0,332.6 708.0,333.5 748.0,329.9 788.0,182.7 828.0,218.4 868.0,216.2 908.0,166.2 948.0,273.8 988.0,292.4 1028.0,262.4 1068.0,281.0 1108.0,332.8 1108.0,333.0 1068.0,281.3 1028.0,262.7 988.0,292.7 948.0,274.1 908.0,166.5 868.0,216.5 828.0,218.7 788.0,183.0 748.0,330.2 708.0,333.7 668.0,332.9 628.0,328.9 588.0,334.7 548.0,343.1 508.0,352.2 468.0,350.1 428.0,360.3 388.0,365.8 348.0,366.7 308.0,368.9 268.0,365.6 228.0,388.0 188.0,378.3 148.0,351.1 108.0,374.0 68.0,407.7" fill="#dadaeb" fill-opacity="0.9" stroke="#fff" stroke-width="0.4"><title>module_link — performForceInlining</title></polygon>
<polygon points="68.0,392.6 108.0,366.5 148.0,343.5 188.0,369.6 228.0,380.1 268.0,357.3 308.0,360.6 348.0,358.3 388.0,356.5 428.0,351.4 468.0,341.3 508.0,343.3 548.0,333.7 588.0,325.3 628.0,318.5 668.0,322.6 708.0,323.1 748.0,320.2 788.0,160.9 828.0,198.0 868.0,195.4 908.0,137.6 948.0,255.0 988.0,278.5 1028.0,249.9 1068.0,270.9 1108.0,325.0 1108.0,332.8 1068.0,281.0 1028.0,262.4 988.0,292.4 948.0,273.8 908.0,166.2 868.0,216.2 828.0,218.4 788.0,182.7 748.0,329.9 708.0,333.5 668.0,332.6 628.0,328.7 588.0,334.5 548.0,342.9 508.0,351.9 468.0,349.8 428.0,360.1 388.0,365.5 348.0,366.5 308.0,368.7 268.0,365.4 228.0,387.7 188.0,378.0 148.0,350.9 108.0,373.7 68.0,407.7" fill="#4a1486" fill-opacity="0.9" stroke="#fff" stroke-width="0.4"><title>module_link — linkAndOptimizeIR (self)</title></polygon>
<polygon points="68.0,367.4 108.0,339.6 148.0,314.4 188.0,342.8 228.0,353.7 268.0,334.3 308.0,340.2 348.0,337.8 388.0,336.2 428.0,331.6 468.0,321.7 508.0,323.3 548.0,314.3 588.0,305.7 628.0,298.5 668.0,303.4 708.0,303.4 748.0,300.3 788.0,137.7 828.0,177.7 868.0,174.4 908.0,111.6 948.0,234.5 988.0,258.1 1028.0,229.3 1068.0,253.3 1108.0,309.5 1108.0,325.0 1068.0,270.9 1028.0,249.9 988.0,278.5 948.0,255.0 908.0,137.6 868.0,195.4 828.0,198.0 788.0,160.9 748.0,320.2 708.0,323.1 668.0,322.6 628.0,318.5 588.0,325.3 548.0,333.7 508.0,343.3 468.0,341.3 428.0,351.4 388.0,356.5 348.0,358.3 308.0,360.6 268.0,357.3 228.0,380.1 188.0,369.6 148.0,343.5 108.0,366.5 68.0,392.6" fill="#e6550d" fill-opacity="0.9" stroke="#fff" stroke-width="0.4"><title>module_link — generateOutput (self)</title></polygon>
<polygon points="68.0,364.9 108.0,335.3 148.0,312.3 188.0,339.3 228.0,352.5 268.0,333.9 308.0,340.2 348.0,335.7 388.0,335.9 428.0,331.2 468.0,319.8 508.0,319.5 548.0,313.8 588.0,304.6 628.0,297.8 668.0,302.5 708.0,300.9 748.0,299.8 788.0,137.1 828.0,176.3 868.0,172.0 908.0,108.6 948.0,234.5 988.0,257.6 1028.0,229.3 1068.0,252.4 1108.0,309.5 1108.0,309.5 1068.0,253.3 1028.0,229.3 988.0,258.1 948.0,234.5 908.0,111.6 868.0,174.4 828.0,177.7 788.0,137.7 748.0,300.3 708.0,303.4 668.0,303.4 628.0,298.5 588.0,305.7 548.0,314.3 508.0,323.3 468.0,321.7 428.0,331.6 388.0,336.2 348.0,337.8 308.0,340.2 268.0,334.3 228.0,353.7 188.0,342.8 148.0,314.4 108.0,339.6 68.0,367.4" fill="#969696" fill-opacity="0.9" stroke="#fff" stroke-width="0.4"><title>module_link — compileInner (self)</title></polygon>
<text x="12" y="578" fill="#666" font-weight="600">phase buckets</text>
<rect x="12" y="586" width="12" height="12" fill="#c7e9c0"/>
<text x="28" y="596" fill="#222">parseTranslationUnit</text>
<rect x="289" y="586" width="12" height="12" fill="#41ab5d"/>
<text x="305" y="596" fill="#222">SemanticChecking</text>
<rect x="566" y="586" width="12" height="12" fill="#006d2c"/>
<text x="582" y="596" fill="#222">generateIR</text>
<rect x="843" y="586" width="12" height="12" fill="#74c476"/>
<text x="859" y="596" fill="#222">frontEndExecute (self)</text>
<rect x="12" y="604" width="12" height="12" fill="#6baed6"/>
<text x="28" y="614" fill="#222">specializeModule</text>
<rect x="289" y="604" width="12" height="12" fill="#2171b5"/>
<text x="305" y="614" fill="#222">simplifyIR</text>
<rect x="566" y="604" width="12" height="12" fill="#08306b"/>
<text x="582" y="614" fill="#222">linkIR</text>
<rect x="843" y="604" width="12" height="12" fill="#9e9ac8"/>
<text x="859" y="614" fill="#222">unrollLoopsInModule</text>
<rect x="12" y="622" width="12" height="12" fill="#807dba"/>
<text x="28" y="632" fill="#222">legalizeResourceTypes</text>
<rect x="289" y="622" width="12" height="12" fill="#6a51a3"/>
<text x="305" y="632" fill="#222">legalizeExistentialTypeLayout</text>
<rect x="566" y="622" width="12" height="12" fill="#bcbddc"/>
<text x="582" y="632" fill="#222">performMandatoryEarlyInlining</text>
<rect x="843" y="622" width="12" height="12" fill="#dadaeb"/>
<text x="859" y="632" fill="#222">performForceInlining</text>
<rect x="12" y="640" width="12" height="12" fill="#4a1486"/>
<text x="28" y="650" fill="#222">linkAndOptimizeIR (self)</text>
<rect x="289" y="640" width="12" height="12" fill="#fd8d3c"/>
<text x="305" y="650" fill="#222">emitEntryPointsSourceFromIR</text>
<rect x="566" y="640" width="12" height="12" fill="#e6550d"/>
<text x="582" y="650" fill="#222">generateOutput (self)</text>
<rect x="843" y="640" width="12" height="12" fill="#969696"/>
<text x="859" y="650" fill="#222">compileInner (self)</text>
</svg>