<svg xmlns="http://www.w3.org/2000/svg" xmlns:xlink="http://www.w3.org/1999/xlink" width="1132" height="680" viewBox="0 0 1132 680" preserveAspectRatio="xMidYMid meet" font-family="sans-serif" font-size="13">
<rect width="1132" height="680" fill="white"/>
<text x="12" y="30" font-size="20" font-weight="bold">module_link — full phase breakdown across releases (median ms)</text>
<text x="68" y="60" font-size="15" font-weight="600" fill="#1a1a1a">module_link<tspan fill="#888" font-weight="400" text-decoration="none">  1.41×</tspan></text>
<line x1="68.0" y1="516.0" x2="1108.0" y2="516.0" stroke="#eee"/>
<text x="64.0" y="519.0" text-anchor="end" fill="#999">0.0</text>
<line x1="68.0" y1="296.0" x2="1108.0" y2="296.0" stroke="#eee"/>
<text x="64.0" y="299.0" text-anchor="end" fill="#999">82</text>
<line x1="68.0" y1="76.0" x2="1108.0" y2="76.0" stroke="#eee"/>
<text x="64.0" y="79.0" text-anchor="end" fill="#999">164</text>
<line x1="68.0" y1="76.0" x2="68.0" y2="516.0" stroke="#333"/>
<line x1="68.0" y1="516.0" x2="1108.0" y2="516.0" stroke="#333"/>
<line x1="706.9" y1="76.0" x2="706.9" y2="516.0" stroke="#e8731a" stroke-width="1.2" stroke-dasharray="4 3"/>
<text x="709.9" y="87.0" fill="#e8731a" font-size="11">daily →</text>
<line x1="68.0" y1="516.0" x2="68.0" y2="519.0" stroke="#999"/>
<text x="68.0" y="531.0" text-anchor="end" fill="#666" transform="rotate(-50 68.0 531.0)">25.14</text>
<line x1="97.7" y1="516.0" x2="97.7" y2="519.0" stroke="#999"/>
<text x="97.7" y="531.0" text-anchor="end" fill="#666" transform="rotate(-50 97.7 531.0)">25.15</text>
<line x1="127.4" y1="516.0" x2="127.4" y2="519.0" stroke="#999"/>
<text x="127.4" y="531.0" text-anchor="end" fill="#666" transform="rotate(-50 127.4 531.0)">25.16</text>
<line x1="157.1" y1="516.0" x2="157.1" y2="519.0" stroke="#999"/>
<text x="157.1" y="531.0" text-anchor="end" fill="#666" transform="rotate(-50 157.1 531.0)">25.17</text>
<line x1="186.9" y1="516.0" x2="186.9" y2="519.0" stroke="#999"/>
<text x="186.9" y="531.0" text-anchor="end" fill="#666" transform="rotate(-50 186.9 531.0)">25.18</text>
<line x1="216.6" y1="516.0" x2="216.6" y2="519.0" stroke="#999"/>
<text x="216.6" y="531.0" text-anchor="end" fill="#666" transform="rotate(-50 216.6 531.0)">25.19</text>
<line x1="246.3" y1="516.0" x2="246.3" y2="519.0" stroke="#999"/>
<text x="246.3" y="531.0" text-anchor="end" fill="#666" transform="rotate(-50 246.3 531.0)">25.20</text>
<line x1="276.0" y1="516.0" x2="276.0" y2="519.0" stroke="#999"/>
<text x="276.0" y="531.0" text-anchor="end" fill="#666" transform="rotate(-50 276.0 531.0)">25.21</text>
<line x1="305.7" y1="516.0" x2="305.7" y2="519.0" stroke="#999"/>
<text x="305.7" y="531.0" text-anchor="end" fill="#666" transform="rotate(-50 305.7 531.0)">25.22</text>
<line x1="335.4" y1="516.0" x2="335.4" y2="519.0" stroke="#999"/>
<text x="335.4" y="531.0" text-anchor="end" fill="#666" transform="rotate(-50 335.4 531.0)">25.23</text>
<line x1="365.1" y1="516.0" x2="365.1" y2="519.0" stroke="#999"/>
<text x="365.1" y="531.0" text-anchor="end" fill="#666" transform="rotate(-50 365.1 531.0)">25.24</text>
<line x1="394.9" y1="516.0" x2="394.9" y2="519.0" stroke="#999"/>
<text x="394.9" y="531.0" text-anchor="end" fill="#666" transform="rotate(-50 394.9 531.0)">26.1</text>
<line x1="424.6" y1="516.0" x2="424.6" y2="519.0" stroke="#999"/>
<text x="424.6" y="531.0" text-anchor="end" fill="#666" transform="rotate(-50 424.6 531.0)">26.2</text>
<line x1="454.3" y1="516.0" x2="454.3" y2="519.0" stroke="#999"/>
<text x="454.3" y="531.0" text-anchor="end" fill="#666" transform="rotate(-50 454.3 531.0)">26.3</text>
<line x1="484.0" y1="516.0" x2="484.0" y2="519.0" stroke="#999"/>
<text x="484.0" y="531.0" text-anchor="end" fill="#666" transform="rotate(-50 484.0 531.0)">26.4</text>
<line x1="513.7" y1="516.0" x2="513.7" y2="519.0" stroke="#999"/>
<text x="513.7" y="531.0" text-anchor="end" fill="#666" transform="rotate(-50 513.7 531.0)">26.5</text>
<line x1="543.4" y1="516.0" x2="543.4" y2="519.0" stroke="#999"/>
<text x="543.4" y="531.0" text-anchor="end" fill="#666" transform="rotate(-50 543.4 531.0)">26.7</text>
<line x1="573.1" y1="516.0" x2="573.1" y2="519.0" stroke="#999"/>
<text x="573.1" y="531.0" text-anchor="end" fill="#666" transform="rotate(-50 573.1 531.0)">26.8</text>
<line x1="602.9" y1="516.0" x2="602.9" y2="519.0" stroke="#999"/>
<text x="602.9" y="531.0" text-anchor="end" fill="#666" transform="rotate(-50 602.9 531.0)">26.9</text>
<line x1="632.6" y1="516.0" x2="632.6" y2="519.0" stroke="#999"/>
<text x="632.6" y="531.0" text-anchor="end" fill="#666" transform="rotate(-50 632.6 531.0)">26.10</text>
<line x1="662.3" y1="516.0" x2="662.3" y2="519.0" stroke="#999"/>
<text x="662.3" y="531.0" text-anchor="end" fill="#666" transform="rotate(-50 662.3 531.0)">26.11</text>
<line x1="692.0" y1="516.0" x2="692.0" y2="519.0" stroke="#999"/>
<text x="692.0" y="531.0" text-anchor="end" fill="#666" transform="rotate(-50 692.0 531.0)">26.12</text>
<line x1="721.7" y1="516.0" x2="721.7" y2="519.0" stroke="#999"/>
<text x="721.7" y="531.0" text-anchor="end" fill="#e8731a" transform="rotate(-50 721.7 531.0)">06-25</text>
<line x1="751.4" y1="516.0" x2="751.4" y2="519.0" stroke="#999"/>
<text x="751.4" y="531.0" text-anchor="end" fill="#e8731a" transform="rotate(-50 751.4 531.0)">06-26</text>
<line x1="781.1" y1="516.0" x2="781.1" y2="519.0" stroke="#999"/>
<text x="781.1" y="531.0" text-anchor="end" fill="#e8731a" transform="rotate(-50 781.1 531.0)">06-28</text>
<line x1="810.9" y1="516.0" x2="810.9" y2="519.0" stroke="#999"/>
<text x="810.9" y="531.0" text-anchor="end" fill="#e8731a" transform="rotate(-50 810.9 531.0)">07-01</text>
<line x1="840.6" y1="516.0" x2="840.6" y2="519.0" stroke="#999"/>
<text x="840.6" y="531.0" text-anchor="end" fill="#e8731a" transform="rotate(-50 840.6 531.0)">07-02</text>
<line x1="870.3" y1="516.0" x2="870.3" y2="519.0" stroke="#999"/>
<text x="870.3" y="531.0" text-anchor="end" fill="#e8731a" transform="rotate(-50 870.3 531.0)">07-03</text>
<line x1="900.0" y1="516.0" x2="900.0" y2="519.0" stroke="#999"/>
<text x="900.0" y="531.0" text-anchor="end" fill="#e8731a" transform="rotate(-50 900.0 531.0)">07-06</text>
<line x1="929.7" y1="516.0" x2="929.7" y2="519.0" stroke="#999"/>
<text x="929.7" y="531.0" text-anchor="end" fill="#e8731a" transform="rotate(-50 929.7 531.0)">07-07</text>
<line x1="959.4" y1="516.0" x2="959.4" y2="519.0" stroke="#999"/>
<text x="959.4" y="531.0" text-anchor="end" fill="#e8731a" transform="rotate(-50 959.4 531.0)">07-08</text>
<line x1="989.1" y1="516.0" x2="989.1" y2="519.0" stroke="#999"/>
<text x="989.1" y="531.0" text-anchor="end" fill="#e8731a" transform="rotate(-50 989.1 531.0)">07-09</text>
<line x1="1018.9" y1="516.0" x2="1018.9" y2="519.0" stroke="#999"/>
<text x="1018.9" y="531.0" text-anchor="end" fill="#e8731a" transform="rotate(-50 1018.9 531.0)">07-10</text>
<line x1="1048.6" y1="516.0" x2="1048.6" y2="519.0" stroke="#999"/>
<text x="1048.6" y="531.0" text-anchor="end" fill="#e8731a" transform="rotate(-50 1048.6 531.0)">07-11</text>
<line x1="1078.3" y1="516.0" x2="1078.3" y2="519.0" stroke="#999"/>
<text x="1078.3" y="531.0" text-anchor="end" fill="#e8731a" transform="rotate(-50 1078.3 531.0)">07-14</text>
<line x1="1108.0" y1="516.0" x2="1108.0" y2="519.0" stroke="#999"/>
<text x="1108.0" y="531.0" text-anchor="end" fill="#e8731a" transform="rotate(-50 1108.0 531.0)">07-15</text>
<polygon points="68.0,514.8 97.7,515.2 127.4,515.3 157.1,515.3 186.9,515.2 216.6,515.2 246.3,515.3 276.0,515.3 305.7,515.3 335.4,515.3 365.1,515.2 394.9,515.2 424.6,515.2 454.3,515.2 484.0,515.2 513.7,515.2 543.4,515.1 573.1,515.1 602.9,515.1 632.6,515.1 662.3,515.1 692.0,515.0 721.7,515.0 751.4,515.0 781.1,515.0 810.9,515.0 840.6,514.9 870.3,515.0 900.0,514.9 929.7,515.0 959.4,515.0 989.1,515.0 1018.9,515.0 1048.6,515.0 1078.3,515.1 1108.0,515.1 1108.0,516.0 1078.3,516.0 1048.6,516.0 1018.9,516.0 989.1,516.0 959.4,516.0 929.7,516.0 900.0,516.0 870.3,516.0 840.6,516.0 810.9,516.0 781.1,516.0 751.4,516.0 721.7,516.0 692.0,516.0 662.3,516.0 632.6,516.0 602.9,516.0 573.1,516.0 543.4,516.0 513.7,516.0 484.0,516.0 454.3,516.0 424.6,516.0 394.9,516.0 365.1,516.0 335.4,516.0 305.7,516.0 276.0,516.0 246.3,516.0 216.6,516.0 186.9,516.0 157.1,516.0 127.4,516.0 97.7,516.0 68.0,516.0" fill="#c7e9c0" fill-opacity="0.9" stroke="#fff" stroke-width="0.4"><title>module_link — parseTranslationUnit</title></polygon>
<polygon points="68.0,403.3 97.7,413.8 127.4,409.9 157.1,386.2 186.9,390.6 216.6,386.7 246.3,401.2 276.0,394.7 305.7,387.9 335.4,385.2 365.1,378.4 394.9,374.7 424.6,370.5 454.3,371.1 484.0,362.8 513.7,364.3 543.4,324.2 573.1,321.3 602.9,325.0 632.6,337.2 662.3,349.4 692.0,355.0 721.7,340.9 751.4,343.6 781.1,346.9 810.9,345.6 840.6,338.9 870.3,311.0 900.0,312.5 929.7,322.6 959.4,316.0 989.1,314.5 1018.9,324.9 1048.6,319.3 1078.3,320.1 1108.0,325.5 1108.0,515.1 1078.3,515.1 1048.6,515.0 1018.9,515.0 989.1,515.0 959.4,515.0 929.7,515.0 900.0,514.9 870.3,515.0 840.6,514.9 810.9,515.0 781.1,515.0 751.4,515.0 721.7,515.0 692.0,515.0 662.3,515.1 632.6,515.1 602.9,515.1 573.1,515.1 543.4,515.1 513.7,515.2 484.0,515.2 454.3,515.2 424.6,515.2 394.9,515.2 365.1,515.2 335.4,515.3 305.7,515.3 276.0,515.3 246.3,515.3 216.6,515.2 186.9,515.2 157.1,515.3 127.4,515.3 97.7,515.2 68.0,514.8" fill="#41ab5d" fill-opacity="0.9" stroke="#fff" stroke-width="0.4"><title>module_link — SemanticChecking</title></polygon>
<polygon points="68.0,400.9 97.7,411.4 127.4,407.3 157.1,383.3 186.9,387.7 216.6,383.8 246.3,398.5 276.0,392.0 305.7,385.3 335.4,382.5 365.1,375.8 394.9,372.0 424.6,367.9 454.3,368.4 484.0,360.2 513.7,361.5 543.4,321.2 573.1,317.5 602.9,321.8 632.6,334.1 662.3,339.1 692.0,344.5 721.7,330.1 751.4,332.9 781.1,336.2 810.9,334.8 840.6,327.8 870.3,300.0 900.0,301.5 929.7,311.4 959.4,304.4 989.1,303.4 1018.9,313.8 1048.6,308.7 1078.3,309.7 1108.0,315.5 1108.0,325.5 1078.3,320.1 1048.6,319.3 1018.9,324.9 989.1,314.5 959.4,316.0 929.7,322.6 900.0,312.5 870.3,311.0 840.6,338.9 810.9,345.6 781.1,346.9 751.4,343.6 721.7,340.9 692.0,355.0 662.3,349.4 632.6,337.2 602.9,325.0 573.1,321.3 543.4,324.2 513.7,364.3 484.0,362.8 454.3,371.1 424.6,370.5 394.9,374.7 365.1,378.4 335.4,385.2 305.7,387.9 276.0,394.7 246.3,401.2 216.6,386.7 186.9,390.6 157.1,386.2 127.4,409.9 97.7,413.8 68.0,403.3" fill="#006d2c" fill-opacity="0.9" stroke="#fff" stroke-width="0.4"><title>module_link — generateIR</title></polygon>
<polygon points="68.0,399.2 97.7,408.7 127.4,403.6 157.1,380.4 186.9,384.5 216.6,381.3 246.3,396.3 276.0,389.7 305.7,382.8 335.4,380.1 365.1,372.9 394.9,369.2 424.6,365.0 454.3,365.8 484.0,357.2 513.7,358.5 543.4,317.3 573.1,312.2 602.9,315.9 632.6,329.4 662.3,337.7 692.0,343.7 721.7,329.0 751.4,332.2 781.1,335.0 810.9,333.8 840.6,327.0 870.3,299.4 900.0,301.1 929.7,310.0 959.4,303.1 989.1,302.1 1018.9,312.2 1048.6,308.1 1078.3,308.3 1108.0,314.4 1108.0,315.5 1078.3,309.7 1048.6,308.7 1018.9,313.8 989.1,303.4 959.4,304.4 929.7,311.4 900.0,301.5 870.3,300.0 840.6,327.8 810.9,334.8 781.1,336.2 751.4,332.9 721.7,330.1 692.0,344.5 662.3,339.1 632.6,334.1 602.9,321.8 573.1,317.5 543.4,321.2 513.7,361.5 484.0,360.2 454.3,368.4 424.6,367.9 394.9,372.0 365.1,375.8 335.4,382.5 305.7,385.3 276.0,392.0 246.3,398.5 216.6,383.8 186.9,387.7 157.1,383.3 127.4,407.3 97.7,411.4 68.0,400.9" fill="#74c476" fill-opacity="0.9" stroke="#fff" stroke-width="0.4"><title>module_link — frontEndExecute (self)</title></polygon>
<polygon points="68.0,396.3 97.7,405.6 127.4,400.3 157.1,377.4 186.9,381.3 216.6,377.9 246.3,393.0 276.0,386.4 305.7,379.5 335.4,376.9 365.1,368.6 394.9,364.9 424.6,360.6 454.3,361.3 484.0,352.9 513.7,354.0 543.4,303.0 573.1,294.9 602.9,301.1 632.6,314.9 662.3,327.1 692.0,333.5 721.7,317.4 751.4,320.7 781.1,323.4 810.9,322.3 840.6,315.4 870.3,288.1 900.0,289.7 929.7,299.8 959.4,292.9 989.1,291.7 1018.9,301.9 1048.6,298.0 1078.3,298.1 1108.0,305.3 1108.0,314.4 1078.3,308.3 1048.6,308.1 1018.9,312.2 989.1,302.1 959.4,303.1 929.7,310.0 900.0,301.1 870.3,299.4 840.6,327.0 810.9,333.8 781.1,335.0 751.4,332.2 721.7,329.0 692.0,343.7 662.3,337.7 632.6,329.4 602.9,315.9 573.1,312.2 543.4,317.3 513.7,358.5 484.0,357.2 454.3,365.8 424.6,365.0 394.9,369.2 365.1,372.9 335.4,380.1 305.7,382.8 276.0,389.7 246.3,396.3 216.6,381.3 186.9,384.5 157.1,380.4 127.4,403.6 97.7,408.7 68.0,399.2" fill="#6baed6" fill-opacity="0.9" stroke="#fff" stroke-width="0.4"><title>module_link — specializeModule</title></polygon>
<polygon points="68.0,388.3 97.7,397.6 127.4,391.4 157.1,368.5 186.9,372.2 216.6,368.7 246.3,384.1 276.0,377.7 305.7,370.8 335.4,368.2 365.1,360.8 394.9,357.0 424.6,352.6 454.3,353.3 484.0,344.9 513.7,345.9 543.4,285.2 573.1,275.5 602.9,283.4 632.6,297.3 662.3,310.6 692.0,318.1 721.7,300.9 751.4,304.0 781.1,306.7 810.9,305.7 840.6,301.4 870.3,274.1 900.0,275.8 929.7,286.3 959.4,279.4 989.1,278.0 1018.9,290.8 1048.6,286.9 1078.3,287.2 1108.0,296.0 1108.0,305.3 1078.3,298.1 1048.6,298.0 1018.9,301.9 989.1,291.7 959.4,292.9 929.7,299.8 900.0,289.7 870.3,288.1 840.6,315.4 810.9,322.3 781.1,323.4 751.4,320.7 721.7,317.4 692.0,333.5 662.3,327.1 632.6,314.9 602.9,301.1 573.1,294.9 543.4,303.0 513.7,354.0 484.0,352.9 454.3,361.3 424.6,360.6 394.9,364.9 365.1,368.6 335.4,376.9 305.7,379.5 276.0,386.4 246.3,393.0 216.6,377.9 186.9,381.3 157.1,377.4 127.4,400.3 97.7,405.6 68.0,396.3" fill="#2171b5" fill-opacity="0.9" stroke="#fff" stroke-width="0.4"><title>module_link — simplifyIR</title></polygon>
<polygon points="68.0,369.6 97.7,376.6 127.4,370.9 157.1,346.9 186.9,350.4 216.6,346.3 246.3,364.2 276.0,357.7 305.7,350.7 335.4,348.3 365.1,341.0 394.9,336.9 424.6,330.9 454.3,331.2 484.0,322.9 513.7,324.2 543.4,178.2 573.1,164.8 602.9,173.4 632.6,193.5 662.3,285.3 692.0,292.9 721.7,273.1 751.4,276.8 781.1,279.3 810.9,277.9 840.6,272.8 870.3,247.0 900.0,247.4 929.7,259.5 959.4,251.4 989.1,250.9 1018.9,263.6 1048.6,260.4 1078.3,258.8 1108.0,273.7 1108.0,296.0 1078.3,287.2 1048.6,286.9 1018.9,290.8 989.1,278.0 959.4,279.4 929.7,286.3 900.0,275.8 870.3,274.1 840.6,301.4 810.9,305.7 781.1,306.7 751.4,304.0 721.7,300.9 692.0,318.1 662.3,310.6 632.6,297.3 602.9,283.4 573.1,275.5 543.4,285.2 513.7,345.9 484.0,344.9 454.3,353.3 424.6,352.6 394.9,357.0 365.1,360.8 335.4,368.2 305.7,370.8 276.0,377.7 246.3,384.1 216.6,368.7 186.9,372.2 157.1,368.5 127.4,391.4 97.7,397.6 68.0,388.3" fill="#08306b" fill-opacity="0.9" stroke="#fff" stroke-width="0.4"><title>module_link — linkIR</title></polygon>
<polygon points="68.0,369.5 97.7,376.5 127.4,370.8 157.1,346.8 186.9,350.3 216.6,346.2 246.3,364.1 276.0,357.6 305.7,350.6 335.4,348.2 365.1,340.9 394.9,336.7 424.6,330.7 454.3,331.1 484.0,322.7 513.7,324.1 543.4,178.0 573.1,164.7 602.9,173.3 632.6,193.3 662.3,285.2 692.0,292.8 721.7,273.0 751.4,276.7 781.1,279.2 810.9,277.8 840.6,272.7 870.3,246.9 900.0,247.3 929.7,259.3 959.4,251.3 989.1,250.8 1018.9,263.5 1048.6,260.2 1078.3,258.6 1108.0,273.6 1108.0,273.7 1078.3,258.8 1048.6,260.4 1018.9,263.6 989.1,250.9 959.4,251.4 929.7,259.5 900.0,247.4 870.3,247.0 840.6,272.8 810.9,277.9 781.1,279.3 751.4,276.8 721.7,273.1 692.0,292.9 662.3,285.3 632.6,193.5 602.9,173.4 573.1,164.8 543.4,178.2 513.7,324.2 484.0,322.9 454.3,331.2 424.6,330.9 394.9,336.9 365.1,341.0 335.4,348.3 305.7,350.7 276.0,357.7 246.3,364.2 216.6,346.3 186.9,350.4 157.1,346.9 127.4,370.9 97.7,376.6 68.0,369.6" fill="#9e9ac8" fill-opacity="0.9" stroke="#fff" stroke-width="0.4"><title>module_link — unrollLoopsInModule</title></polygon>
<polygon points="68.0,364.0 97.7,371.0 127.4,365.1 157.1,341.3 186.9,347.4 216.6,343.4 246.3,361.4 276.0,354.9 305.7,347.8 335.4,345.4 365.1,338.1 394.9,334.0 424.6,328.0 454.3,328.3 484.0,320.0 513.7,321.3 543.4,175.0 573.1,161.5 602.9,170.2 632.6,190.3 662.3,282.2 692.0,289.8 721.7,269.9 751.4,273.6 781.1,276.1 810.9,274.7 840.6,269.6 870.3,243.8 900.0,244.3 929.7,256.5 959.4,248.5 989.1,248.0 1018.9,262.7 1048.6,259.4 1078.3,257.9 1108.0,272.7 1108.0,273.6 1078.3,258.6 1048.6,260.2 1018.9,263.5 989.1,250.8 959.4,251.3 929.7,259.3 900.0,247.3 870.3,246.9 840.6,272.7 810.9,277.8 781.1,279.2 751.4,276.7 721.7,273.0 692.0,292.8 662.3,285.2 632.6,193.3 602.9,173.3 573.1,164.7 543.4,178.0 513.7,324.1 484.0,322.7 454.3,331.1 424.6,330.7 394.9,336.7 365.1,340.9 335.4,348.2 305.7,350.6 276.0,357.6 246.3,364.1 216.6,346.2 186.9,350.3 157.1,346.8 127.4,370.8 97.7,376.5 68.0,369.5" fill="#807dba" fill-opacity="0.9" stroke="#fff" stroke-width="0.4"><title>module_link — legalizeResourceTypes</title></polygon>
<polygon points="68.0,358.3 97.7,365.4 127.4,359.3 157.1,335.8 186.9,344.5 216.6,340.3 246.3,358.6 276.0,352.0 305.7,344.9 335.4,342.6 365.1,335.3 394.9,331.2 424.6,325.0 454.3,325.4 484.0,317.2 513.7,318.5 543.4,171.9 573.1,158.2 602.9,167.1 632.6,187.2 662.3,279.0 692.0,286.6 721.7,266.7 751.4,270.4 781.1,272.8 810.9,271.5 840.6,266.4 870.3,240.6 900.0,241.1 929.7,253.6 959.4,245.7 989.1,245.1 1018.9,261.8 1048.6,258.5 1078.3,257.0 1108.0,271.8 1108.0,272.7 1078.3,257.9 1048.6,259.4 1018.9,262.7 989.1,248.0 959.4,248.5 929.7,256.5 900.0,244.3 870.3,243.8 840.6,269.6 810.9,274.7 781.1,276.1 751.4,273.6 721.7,269.9 692.0,289.8 662.3,282.2 632.6,190.3 602.9,170.2 573.1,161.5 543.4,175.0 513.7,321.3 484.0,320.0 454.3,328.3 424.6,328.0 394.9,334.0 365.1,338.1 335.4,345.4 305.7,347.8 276.0,354.9 246.3,361.4 216.6,343.4 186.9,347.4 157.1,341.3 127.4,365.1 97.7,371.0 68.0,364.0" fill="#6a51a3" fill-opacity="0.9" stroke="#fff" stroke-width="0.4"><title>module_link — legalizeExistentialTypeLayout</title></polygon>
<polygon points="68.0,358.1 97.7,365.2 127.4,359.0 157.1,335.6 186.9,344.3 216.6,340.1 246.3,358.4 276.0,351.8 305.7,344.7 335.4,342.4 365.1,335.0 394.9,330.9 424.6,324.8 454.3,325.1 484.0,316.9 513.7,318.3 543.4,171.7 573.1,157.9 602.9,166.9 632.6,187.1 662.3,278.9 692.0,286.4 721.7,266.5 751.4,270.2 781.1,272.6 810.9,271.3 840.6,266.3 870.3,240.4 900.0,240.9 929.7,253.3 959.4,245.4 989.1,244.9 1018.9,261.6 1048.6,258.3 1078.3,256.8 1108.0,271.5 1108.0,271.8 1078.3,257.0 1048.6,258.5 1018.9,261.8 989.1,245.1 959.4,245.7 929.7,253.6 900.0,241.1 870.3,240.6 840.6,266.4 810.9,271.5 781.1,272.8 751.4,270.4 721.7,266.7 692.0,286.6 662.3,279.0 632.6,187.2 602.9,167.1 573.1,158.2 543.4,171.9 513.7,318.5 484.0,317.2 454.3,325.4 424.6,325.0 394.9,331.2 365.1,335.3 335.4,342.6 305.7,344.9 276.0,352.0 246.3,358.6 216.6,340.3 186.9,344.5 157.1,335.8 127.4,359.3 97.7,365.4 68.0,358.3" fill="#bcbddc" fill-opacity="0.9" stroke="#fff" stroke-width="0.4"><title>module_link — performMandatoryEarlyInlining</title></polygon>
<polygon points="68.0,357.9 97.7,364.9 127.4,358.6 157.1,335.3 186.9,344.0 216.6,339.8 246.3,358.1 276.0,351.5 305.7,344.5 335.4,342.1 365.1,334.8 394.9,330.7 424.6,324.5 454.3,324.9 484.0,316.6 513.7,318.0 543.4,171.4 573.1,157.6 602.9,166.6 632.6,186.8 662.3,278.6 692.0,286.1 721.7,266.2 751.4,269.9 781.1,272.4 810.9,271.0 840.6,266.0 870.3,240.1 900.0,240.7 929.7,253.0 959.4,245.1 989.1,244.6 1018.9,261.3 1048.6,258.0 1078.3,256.5 1108.0,271.2 1108.0,271.5 1078.3,256.8 1048.6,258.3 1018.9,261.6 989.1,244.9 959.4,245.4 929.7,253.3 900.0,240.9 870.3,240.4 840.6,266.3 810.9,271.3 781.1,272.6 751.4,270.2 721.7,266.5 692.0,286.4 662.3,278.9 632.6,187.1 602.9,166.9 573.1,157.9 543.4,171.7 513.7,318.3 484.0,316.9 454.3,325.1 424.6,324.8 394.9,330.9 365.1,335.0 335.4,342.4 305.7,344.7 276.0,351.8 246.3,358.4 216.6,340.1 186.9,344.3 157.1,335.6 127.4,359.0 97.7,365.2 68.0,358.1" fill="#dadaeb" fill-opacity="0.9" stroke="#fff" stroke-width="0.4"><title>module_link — performForceInlining</title></polygon>
<polygon points="68.0,349.7 97.7,356.5 127.4,349.0 157.1,326.1 186.9,335.0 216.6,330.8 246.3,348.7 276.0,342.2 305.7,335.2 335.4,333.0 365.1,325.0 394.9,320.8 424.6,313.6 454.3,314.3 484.0,305.0 513.7,307.5 543.4,149.7 573.1,133.3 602.9,144.8 632.6,164.9 662.3,261.3 692.0,271.0 721.7,249.4 751.4,252.3 781.1,256.0 810.9,254.3 840.6,247.8 870.3,222.0 900.0,222.6 929.7,238.2 959.4,230.8 989.1,229.6 1018.9,249.5 1048.6,245.1 1078.3,244.6 1108.0,261.7 1108.0,271.2 1078.3,256.5 1048.6,258.0 1018.9,261.3 989.1,244.6 959.4,245.1 929.7,253.0 900.0,240.7 870.3,240.1 840.6,266.0 810.9,271.0 781.1,272.4 751.4,269.9 721.7,266.2 692.0,286.1 662.3,278.6 632.6,186.8 602.9,166.6 573.1,157.6 543.4,171.4 513.7,318.0 484.0,316.6 454.3,324.9 424.6,324.5 394.9,330.7 365.1,334.8 335.4,342.1 305.7,344.5 276.0,351.5 246.3,358.1 216.6,339.8 186.9,344.0 157.1,335.3 127.4,358.6 97.7,364.9 68.0,357.9" fill="#4a1486" fill-opacity="0.9" stroke="#fff" stroke-width="0.4"><title>module_link — linkAndOptimizeIR (self)</title></polygon>
<polygon points="68.0,322.0 97.7,328.4 127.4,315.0 157.1,300.6 186.9,312.7 216.6,308.5 246.3,327.2 276.0,321.1 305.7,314.8 335.4,312.1 365.1,304.2 394.9,299.7 424.6,292.7 454.3,293.0 484.0,283.9 513.7,287.1 543.4,127.5 573.1,109.2 602.9,116.6 632.6,141.0 662.3,239.3 692.0,249.0 721.7,227.7 751.4,230.1 781.1,233.2 810.9,232.2 840.6,225.7 870.3,199.9 900.0,199.7 929.7,217.0 959.4,208.5 989.1,207.3 1018.9,230.1 1048.6,226.2 1078.3,226.6 1108.0,243.3 1108.0,261.7 1078.3,244.6 1048.6,245.1 1018.9,249.5 989.1,229.6 959.4,230.8 929.7,238.2 900.0,222.6 870.3,222.0 840.6,247.8 810.9,254.3 781.1,256.0 751.4,252.3 721.7,249.4 692.0,271.0 662.3,261.3 632.6,164.9 602.9,144.8 573.1,133.3 543.4,149.7 513.7,307.5 484.0,305.0 454.3,314.3 424.6,313.6 394.9,320.8 365.1,325.0 335.4,333.0 305.7,335.2 276.0,342.2 246.3,348.7 216.6,330.8 186.9,335.0 157.1,326.1 127.4,349.0 97.7,356.5 68.0,349.7" fill="#e6550d" fill-opacity="0.9" stroke="#fff" stroke-width="0.4"><title>module_link — generateOutput (self)</title></polygon>
<polygon points="68.0,322.0 97.7,328.0 127.4,311.9 157.1,300.6 186.9,307.9 216.6,307.6 246.3,322.1 276.0,319.8 305.7,313.6 335.4,310.8 365.1,304.0 394.9,298.0 424.6,291.5 454.3,290.7 484.0,281.9 513.7,285.0 543.4,127.5 573.1,109.2 602.9,108.6 632.6,139.1 662.3,238.3 692.0,247.9 721.7,224.6 751.4,230.1 781.1,232.2 810.9,231.3 840.6,224.3 870.3,199.9 900.0,197.8 929.7,216.3 959.4,206.8 989.1,206.4 1018.9,229.5 1048.6,221.9 1078.3,226.6 1108.0,242.1 1108.0,243.3 1078.3,226.6 1048.6,226.2 1018.9,230.1 989.1,207.3 959.4,208.5 929.7,217.0 900.0,199.7 870.3,199.9 840.6,225.7 810.9,232.2 781.1,233.2 751.4,230.1 721.7,227.7 692.0,249.0 662.3,239.3 632.6,141.0 602.9,116.6 573.1,109.2 543.4,127.5 513.7,287.1 484.0,283.9 454.3,293.0 424.6,292.7 394.9,299.7 365.1,304.2 335.4,312.1 305.7,314.8 276.0,321.1 246.3,327.2 216.6,308.5 186.9,312.7 157.1,300.6 127.4,315.0 97.7,328.4 68.0,322.0" fill="#969696" fill-opacity="0.9" stroke="#fff" stroke-width="0.4"><title>module_link — compileInner (self)</title></polygon>
<text x="12" y="578" fill="#666" font-weight="600">phase buckets</text>
<rect x="12" y="586" width="12" height="12" fill="#c7e9c0"/>
<text x="28" y="596" fill="#222">parseTranslationUnit</text>
<rect x="289" y="586" width="12" height="12" fill="#41ab5d"/>
<text x="305" y="596" fill="#222">SemanticChecking</text>
<rect x="566" y="586" width="12" height="12" fill="#006d2c"/>
<text x="582" y="596" fill="#222">generateIR</text>
<rect x="843" y="586" width="12" height="12" fill="#74c476"/>
<text x="859" y="596" fill="#222">frontEndExecute (self)</text>
<rect x="12" y="604" width="12" height="12" fill="#6baed6"/>
<text x="28" y="614" fill="#222">specializeModule</text>
<rect x="289" y="604" width="12" height="12" fill="#2171b5"/>
<text x="305" y="614" fill="#222">simplifyIR</text>
<rect x="566" y="604" width="12" height="12" fill="#08306b"/>
<text x="582" y="614" fill="#222">linkIR</text>
<rect x="843" y="604" width="12" height="12" fill="#9e9ac8"/>
<text x="859" y="614" fill="#222">unrollLoopsInModule</text>
<rect x="12" y="622" width="12" height="12" fill="#807dba"/>
<text x="28" y="632" fill="#222">legalizeResourceTypes</text>
<rect x="289" y="622" width="12" height="12" fill="#6a51a3"/>
<text x="305" y="632" fill="#222">legalizeExistentialTypeLayout</text>
<rect x="566" y="622" width="12" height="12" fill="#bcbddc"/>
<text x="582" y="632" fill="#222">performMandatoryEarlyInlining</text>
<rect x="843" y="622" width="12" height="12" fill="#dadaeb"/>
<text x="859" y="632" fill="#222">performForceInlining</text>
<rect x="12" y="640" width="12" height="12" fill="#4a1486"/>
<text x="28" y="650" fill="#222">linkAndOptimizeIR (self)</text>
<rect x="289" y="640" width="12" height="12" fill="#fd8d3c"/>
<text x="305" y="650" fill="#222">emitEntryPointsSourceFromIR</text>
<rect x="566" y="640" width="12" height="12" fill="#e6550d"/>
<text x="582" y="650" fill="#222">generateOutput (self)</text>
<rect x="843" y="640" width="12" height="12" fill="#969696"/>
<text x="859" y="650" fill="#222">compileInner (self)</text>
</svg>