<svg xmlns="http://www.w3.org/2000/svg" xmlns:xlink="http://www.w3.org/1999/xlink" width="1132" height="680" viewBox="0 0 1132 680" preserveAspectRatio="xMidYMid meet" font-family="sans-serif" font-size="13">
<rect width="1132" height="680" fill="white"/>
<text x="12" y="30" font-size="20" font-weight="bold">module_link — full phase breakdown across releases (median ms)</text>
<text x="68" y="60" font-size="15" font-weight="600" fill="#1a1a1a">module_link<tspan fill="#888" font-weight="400" text-decoration="none">  1.63×</tspan></text>
<line x1="68.0" y1="516.0" x2="1108.0" y2="516.0" stroke="#eee"/>
<text x="64.0" y="519.0" text-anchor="end" fill="#999">0.0</text>
<line x1="68.0" y1="296.0" x2="1108.0" y2="296.0" stroke="#eee"/>
<text x="64.0" y="299.0" text-anchor="end" fill="#999">72</text>
<line x1="68.0" y1="76.0" x2="1108.0" y2="76.0" stroke="#eee"/>
<text x="64.0" y="79.0" text-anchor="end" fill="#999">145</text>
<line x1="68.0" y1="76.0" x2="68.0" y2="516.0" stroke="#333"/>
<line x1="68.0" y1="516.0" x2="1108.0" y2="516.0" stroke="#333"/>
<line x1="839.0" y1="76.0" x2="839.0" y2="516.0" stroke="#e8731a" stroke-width="1.2" stroke-dasharray="4 3"/>
<text x="842.0" y="87.0" fill="#e8731a" font-size="11">daily →</text>
<line x1="68.0" y1="516.0" x2="68.0" y2="519.0" stroke="#999"/>
<text x="68.0" y="531.0" text-anchor="end" fill="#666" transform="rotate(-50 68.0 531.0)">25.14</text>
<line x1="103.9" y1="516.0" x2="103.9" y2="519.0" stroke="#999"/>
<text x="103.9" y="531.0" text-anchor="end" fill="#666" transform="rotate(-50 103.9 531.0)">25.15</text>
<line x1="139.7" y1="516.0" x2="139.7" y2="519.0" stroke="#999"/>
<text x="139.7" y="531.0" text-anchor="end" fill="#666" transform="rotate(-50 139.7 531.0)">25.16</text>
<line x1="175.6" y1="516.0" x2="175.6" y2="519.0" stroke="#999"/>
<text x="175.6" y="531.0" text-anchor="end" fill="#666" transform="rotate(-50 175.6 531.0)">25.17</text>
<line x1="211.4" y1="516.0" x2="211.4" y2="519.0" stroke="#999"/>
<text x="211.4" y="531.0" text-anchor="end" fill="#666" transform="rotate(-50 211.4 531.0)">25.18</text>
<line x1="247.3" y1="516.0" x2="247.3" y2="519.0" stroke="#999"/>
<text x="247.3" y="531.0" text-anchor="end" fill="#666" transform="rotate(-50 247.3 531.0)">25.19</text>
<line x1="283.2" y1="516.0" x2="283.2" y2="519.0" stroke="#999"/>
<text x="283.2" y="531.0" text-anchor="end" fill="#666" transform="rotate(-50 283.2 531.0)">25.20</text>
<line x1="319.0" y1="516.0" x2="319.0" y2="519.0" stroke="#999"/>
<text x="319.0" y="531.0" text-anchor="end" fill="#666" transform="rotate(-50 319.0 531.0)">25.21</text>
<line x1="354.9" y1="516.0" x2="354.9" y2="519.0" stroke="#999"/>
<text x="354.9" y="531.0" text-anchor="end" fill="#666" transform="rotate(-50 354.9 531.0)">25.22</text>
<line x1="390.8" y1="516.0" x2="390.8" y2="519.0" stroke="#999"/>
<text x="390.8" y="531.0" text-anchor="end" fill="#666" transform="rotate(-50 390.8 531.0)">25.23</text>
<line x1="426.6" y1="516.0" x2="426.6" y2="519.0" stroke="#999"/>
<text x="426.6" y="531.0" text-anchor="end" fill="#666" transform="rotate(-50 426.6 531.0)">25.24</text>
<line x1="462.5" y1="516.0" x2="462.5" y2="519.0" stroke="#999"/>
<text x="462.5" y="531.0" text-anchor="end" fill="#666" transform="rotate(-50 462.5 531.0)">26.1</text>
<line x1="498.3" y1="516.0" x2="498.3" y2="519.0" stroke="#999"/>
<text x="498.3" y="531.0" text-anchor="end" fill="#666" transform="rotate(-50 498.3 531.0)">26.2</text>
<line x1="534.2" y1="516.0" x2="534.2" y2="519.0" stroke="#999"/>
<text x="534.2" y="531.0" text-anchor="end" fill="#666" transform="rotate(-50 534.2 531.0)">26.3</text>
<line x1="570.1" y1="516.0" x2="570.1" y2="519.0" stroke="#999"/>
<text x="570.1" y="531.0" text-anchor="end" fill="#666" transform="rotate(-50 570.1 531.0)">26.4</text>
<line x1="605.9" y1="516.0" x2="605.9" y2="519.0" stroke="#999"/>
<text x="605.9" y="531.0" text-anchor="end" fill="#666" transform="rotate(-50 605.9 531.0)">26.5</text>
<line x1="641.8" y1="516.0" x2="641.8" y2="519.0" stroke="#999"/>
<text x="641.8" y="531.0" text-anchor="end" fill="#666" transform="rotate(-50 641.8 531.0)">26.7</text>
<line x1="677.7" y1="516.0" x2="677.7" y2="519.0" stroke="#999"/>
<text x="677.7" y="531.0" text-anchor="end" fill="#666" transform="rotate(-50 677.7 531.0)">26.8</text>
<line x1="713.5" y1="516.0" x2="713.5" y2="519.0" stroke="#999"/>
<text x="713.5" y="531.0" text-anchor="end" fill="#666" transform="rotate(-50 713.5 531.0)">26.9</text>
<line x1="749.4" y1="516.0" x2="749.4" y2="519.0" stroke="#999"/>
<text x="749.4" y="531.0" text-anchor="end" fill="#666" transform="rotate(-50 749.4 531.0)">26.10</text>
<line x1="785.2" y1="516.0" x2="785.2" y2="519.0" stroke="#999"/>
<text x="785.2" y="531.0" text-anchor="end" fill="#666" transform="rotate(-50 785.2 531.0)">26.11</text>
<line x1="821.1" y1="516.0" x2="821.1" y2="519.0" stroke="#999"/>
<text x="821.1" y="531.0" text-anchor="end" fill="#666" transform="rotate(-50 821.1 531.0)">26.12</text>
<line x1="857.0" y1="516.0" x2="857.0" y2="519.0" stroke="#999"/>
<text x="857.0" y="531.0" text-anchor="end" fill="#e8731a" transform="rotate(-50 857.0 531.0)">06-25</text>
<line x1="892.8" y1="516.0" x2="892.8" y2="519.0" stroke="#999"/>
<text x="892.8" y="531.0" text-anchor="end" fill="#e8731a" transform="rotate(-50 892.8 531.0)">06-26</text>
<line x1="928.7" y1="516.0" x2="928.7" y2="519.0" stroke="#999"/>
<text x="928.7" y="531.0" text-anchor="end" fill="#e8731a" transform="rotate(-50 928.7 531.0)">06-28</text>
<line x1="964.6" y1="516.0" x2="964.6" y2="519.0" stroke="#999"/>
<text x="964.6" y="531.0" text-anchor="end" fill="#e8731a" transform="rotate(-50 964.6 531.0)">07-01</text>
<line x1="1000.4" y1="516.0" x2="1000.4" y2="519.0" stroke="#999"/>
<text x="1000.4" y="531.0" text-anchor="end" fill="#e8731a" transform="rotate(-50 1000.4 531.0)">07-02</text>
<line x1="1036.3" y1="516.0" x2="1036.3" y2="519.0" stroke="#999"/>
<text x="1036.3" y="531.0" text-anchor="end" fill="#e8731a" transform="rotate(-50 1036.3 531.0)">07-03</text>
<line x1="1072.1" y1="516.0" x2="1072.1" y2="519.0" stroke="#999"/>
<text x="1072.1" y="531.0" text-anchor="end" fill="#e8731a" transform="rotate(-50 1072.1 531.0)">07-03</text>
<line x1="1108.0" y1="516.0" x2="1108.0" y2="519.0" stroke="#999"/>
<text x="1108.0" y="531.0" text-anchor="end" fill="#e8731a" transform="rotate(-50 1108.0 531.0)">07-03</text>
<polygon points="68.0,514.7 103.9,515.2 139.7,515.1 175.6,515.0 211.4,515.1 247.3,515.1 283.2,515.0 319.0,515.1 354.9,515.1 390.8,515.2 426.6,515.1 462.5,515.1 498.3,515.1 534.2,515.1 570.1,515.1 605.9,515.1 641.8,515.1 677.7,515.1 713.5,515.1 749.4,515.1 785.2,515.0 821.1,514.8 857.0,514.8 892.8,514.8 928.7,514.9 964.6,514.8 1000.4,514.8 1036.3,514.8 1072.1,514.8 1108.0,514.9 1108.0,516.0 1072.1,516.0 1036.3,516.0 1000.4,516.0 964.6,516.0 928.7,516.0 892.8,516.0 857.0,516.0 821.1,516.0 785.2,516.0 749.4,516.0 713.5,516.0 677.7,516.0 641.8,516.0 605.9,516.0 570.1,516.0 534.2,516.0 498.3,516.0 462.5,516.0 426.6,516.0 390.8,516.0 354.9,516.0 319.0,516.0 283.2,516.0 247.3,516.0 211.4,516.0 175.6,516.0 139.7,516.0 103.9,516.0 68.0,516.0" fill="#c7e9c0" fill-opacity="0.9" stroke="#fff" stroke-width="0.4"><title>module_link — parseTranslationUnit</title></polygon>
<polygon points="68.0,390.9 103.9,413.8 139.7,408.4 175.6,352.3 211.4,377.0 247.3,375.0 283.2,362.6 319.0,370.8 354.9,352.9 390.8,356.7 426.6,360.8 462.5,355.0 498.3,351.4 534.2,356.9 570.1,354.7 605.9,357.6 641.8,317.2 677.7,327.4 713.5,330.9 749.4,320.2 785.2,347.1 821.1,340.1 857.0,322.6 892.8,315.0 928.7,326.8 964.6,327.2 1000.4,322.6 1036.3,323.9 1072.1,282.0 1108.0,294.0 1108.0,514.9 1072.1,514.8 1036.3,514.8 1000.4,514.8 964.6,514.8 928.7,514.9 892.8,514.8 857.0,514.8 821.1,514.8 785.2,515.0 749.4,515.1 713.5,515.1 677.7,515.1 641.8,515.1 605.9,515.1 570.1,515.1 534.2,515.1 498.3,515.1 462.5,515.1 426.6,515.1 390.8,515.2 354.9,515.1 319.0,515.1 283.2,515.0 247.3,515.1 211.4,515.1 175.6,515.0 139.7,515.1 103.9,515.2 68.0,514.7" fill="#41ab5d" fill-opacity="0.9" stroke="#fff" stroke-width="0.4"><title>module_link — SemanticChecking</title></polygon>
<polygon points="68.0,388.2 103.9,411.2 139.7,405.8 175.6,348.7 211.4,373.7 247.3,371.8 283.2,359.4 319.0,367.6 354.9,349.9 390.8,353.5 426.6,357.9 462.5,352.1 498.3,348.3 534.2,353.9 570.1,351.8 605.9,354.7 641.8,313.9 677.7,324.0 713.5,327.5 749.4,316.8 785.2,335.9 821.1,328.3 857.0,310.5 892.8,302.9 928.7,314.6 964.6,315.3 1000.4,310.9 1036.3,311.8 1072.1,269.5 1108.0,282.4 1108.0,294.0 1072.1,282.0 1036.3,323.9 1000.4,322.6 964.6,327.2 928.7,326.8 892.8,315.0 857.0,322.6 821.1,340.1 785.2,347.1 749.4,320.2 713.5,330.9 677.7,327.4 641.8,317.2 605.9,357.6 570.1,354.7 534.2,356.9 498.3,351.4 462.5,355.0 426.6,360.8 390.8,356.7 354.9,352.9 319.0,370.8 283.2,362.6 247.3,375.0 211.4,377.0 175.6,352.3 139.7,408.4 103.9,413.8 68.0,390.9" fill="#006d2c" fill-opacity="0.9" stroke="#fff" stroke-width="0.4"><title>module_link — generateIR</title></polygon>
<polygon points="68.0,385.9 103.9,409.4 139.7,403.1 175.6,344.0 211.4,370.6 247.3,368.9 283.2,356.9 319.0,364.4 354.9,347.0 390.8,350.8 426.6,354.8 462.5,349.2 498.3,345.5 534.2,351.0 570.1,348.7 605.9,351.8 641.8,309.6 677.7,319.8 713.5,323.0 749.4,312.8 785.2,334.4 821.1,327.1 857.0,308.8 892.8,301.6 928.7,313.4 964.6,313.7 1000.4,309.7 1036.3,311.7 1072.1,267.5 1108.0,281.6 1108.0,282.4 1072.1,269.5 1036.3,311.8 1000.4,310.9 964.6,315.3 928.7,314.6 892.8,302.9 857.0,310.5 821.1,328.3 785.2,335.9 749.4,316.8 713.5,327.5 677.7,324.0 641.8,313.9 605.9,354.7 570.1,351.8 534.2,353.9 498.3,348.3 462.5,352.1 426.6,357.9 390.8,353.5 354.9,349.9 319.0,367.6 283.2,359.4 247.3,371.8 211.4,373.7 175.6,348.7 139.7,405.8 103.9,411.2 68.0,388.2" fill="#74c476" fill-opacity="0.9" stroke="#fff" stroke-width="0.4"><title>module_link — frontEndExecute (self)</title></polygon>
<polygon points="68.0,382.6 103.9,406.0 139.7,399.8 175.6,340.2 211.4,367.1 247.3,365.3 283.2,353.1 319.0,360.5 354.9,343.2 390.8,347.2 426.6,350.0 462.5,344.4 498.3,340.6 534.2,346.2 570.1,343.9 605.9,346.6 641.8,294.1 677.7,304.1 713.5,307.2 749.4,297.0 785.2,323.2 821.1,315.5 857.0,296.0 892.8,288.6 928.7,300.2 964.6,300.8 1000.4,296.4 1036.3,298.8 1072.1,254.3 1108.0,268.8 1108.0,281.6 1072.1,267.5 1036.3,311.7 1000.4,309.7 964.6,313.7 928.7,313.4 892.8,301.6 857.0,308.8 821.1,327.1 785.2,334.4 749.4,312.8 713.5,323.0 677.7,319.8 641.8,309.6 605.9,351.8 570.1,348.7 534.2,351.0 498.3,345.5 462.5,349.2 426.6,354.8 390.8,350.8 354.9,347.0 319.0,364.4 283.2,356.9 247.3,368.9 211.4,370.6 175.6,344.0 139.7,403.1 103.9,409.4 68.0,385.9" fill="#6baed6" fill-opacity="0.9" stroke="#fff" stroke-width="0.4"><title>module_link — specializeModule</title></polygon>
<polygon points="68.0,373.9 103.9,397.4 139.7,391.0 175.6,328.6 211.4,357.2 247.3,354.7 283.2,340.7 319.0,350.5 354.9,333.4 390.8,337.3 426.6,341.2 462.5,335.5 498.3,331.7 534.2,337.5 570.1,335.0 605.9,337.7 641.8,274.8 677.7,285.2 713.5,288.5 749.4,277.6 785.2,305.7 821.1,298.1 857.0,277.2 892.8,269.6 928.7,281.6 964.6,282.7 1000.4,280.7 1036.3,282.9 1072.1,237.9 1108.0,253.1 1108.0,268.8 1072.1,254.3 1036.3,298.8 1000.4,296.4 964.6,300.8 928.7,300.2 892.8,288.6 857.0,296.0 821.1,315.5 785.2,323.2 749.4,297.0 713.5,307.2 677.7,304.1 641.8,294.1 605.9,346.6 570.1,343.9 534.2,346.2 498.3,340.6 462.5,344.4 426.6,350.0 390.8,347.2 354.9,343.2 319.0,360.5 283.2,353.1 247.3,365.3 211.4,367.1 175.6,340.2 139.7,399.8 103.9,406.0 68.0,382.6" fill="#2171b5" fill-opacity="0.9" stroke="#fff" stroke-width="0.4"><title>module_link — simplifyIR</title></polygon>
<polygon points="68.0,353.3 103.9,378.3 139.7,370.3 175.6,297.8 211.4,334.1 247.3,329.8 283.2,314.2 319.0,326.2 354.9,309.1 390.8,312.9 426.6,319.0 462.5,313.0 498.3,307.3 534.2,313.2 570.1,310.5 605.9,313.2 641.8,169.9 677.7,177.1 713.5,184.1 749.4,167.6 785.2,277.9 821.1,270.1 857.0,246.8 892.8,239.0 928.7,250.8 964.6,252.5 1000.4,248.5 1036.3,251.7 1072.1,205.8 1108.0,219.9 1108.0,253.1 1072.1,237.9 1036.3,282.9 1000.4,280.7 964.6,282.7 928.7,281.6 892.8,269.6 857.0,277.2 821.1,298.1 785.2,305.7 749.4,277.6 713.5,288.5 677.7,285.2 641.8,274.8 605.9,337.7 570.1,335.0 534.2,337.5 498.3,331.7 462.5,335.5 426.6,341.2 390.8,337.3 354.9,333.4 319.0,350.5 283.2,340.7 247.3,354.7 211.4,357.2 175.6,328.6 139.7,391.0 103.9,397.4 68.0,373.9" fill="#08306b" fill-opacity="0.9" stroke="#fff" stroke-width="0.4"><title>module_link — linkIR</title></polygon>
<polygon points="68.0,353.2 103.9,378.2 139.7,370.1 175.6,297.6 211.4,333.9 247.3,329.6 283.2,314.0 319.0,326.0 354.9,308.9 390.8,312.8 426.6,318.9 462.5,312.9 498.3,307.1 534.2,313.0 570.1,310.3 605.9,313.0 641.8,169.8 677.7,177.0 713.5,184.0 749.4,167.5 785.2,277.8 821.1,270.0 857.0,246.7 892.8,238.8 928.7,250.7 964.6,252.4 1000.4,248.4 1036.3,251.6 1072.1,205.7 1108.0,219.9 1108.0,219.9 1072.1,205.8 1036.3,251.7 1000.4,248.5 964.6,252.5 928.7,250.8 892.8,239.0 857.0,246.8 821.1,270.1 785.2,277.9 749.4,167.6 713.5,184.1 677.7,177.1 641.8,169.9 605.9,313.2 570.1,310.5 534.2,313.2 498.3,307.3 462.5,313.0 426.6,319.0 390.8,312.9 354.9,309.1 319.0,326.2 283.2,314.2 247.3,329.8 211.4,334.1 175.6,297.8 139.7,370.3 103.9,378.3 68.0,353.3" fill="#9e9ac8" fill-opacity="0.9" stroke="#fff" stroke-width="0.4"><title>module_link — unrollLoopsInModule</title></polygon>
<polygon points="68.0,346.9 103.9,372.3 139.7,364.4 175.6,290.7 211.4,330.8 247.3,326.4 283.2,310.9 319.0,322.9 354.9,305.7 390.8,309.7 426.6,315.8 462.5,309.9 498.3,304.1 534.2,309.9 570.1,307.3 605.9,310.0 641.8,166.6 677.7,173.7 713.5,180.8 749.4,164.2 785.2,274.6 821.1,266.6 857.0,243.2 892.8,235.2 928.7,247.2 964.6,249.0 1000.4,244.9 1036.3,248.2 1072.1,202.0 1108.0,216.4 1108.0,219.9 1072.1,205.7 1036.3,251.6 1000.4,248.4 964.6,252.4 928.7,250.7 892.8,238.8 857.0,246.7 821.1,270.0 785.2,277.8 749.4,167.5 713.5,184.0 677.7,177.0 641.8,169.8 605.9,313.0 570.1,310.3 534.2,313.0 498.3,307.1 462.5,312.9 426.6,318.9 390.8,312.8 354.9,308.9 319.0,326.0 283.2,314.0 247.3,329.6 211.4,333.9 175.6,297.6 139.7,370.1 103.9,378.2 68.0,353.2" fill="#807dba" fill-opacity="0.9" stroke="#fff" stroke-width="0.4"><title>module_link — legalizeResourceTypes</title></polygon>
<polygon points="68.0,340.6 103.9,366.5 139.7,358.5 175.6,283.5 211.4,327.4 247.3,323.1 283.2,307.5 319.0,319.5 354.9,302.4 390.8,306.3 426.6,312.5 462.5,306.7 498.3,300.9 534.2,306.8 570.1,304.1 605.9,306.9 641.8,163.2 677.7,170.3 713.5,177.5 749.4,160.6 785.2,271.1 821.1,263.1 857.0,239.5 892.8,231.6 928.7,243.5 964.6,245.5 1000.4,241.4 1036.3,244.7 1072.1,198.3 1108.0,212.8 1108.0,216.4 1072.1,202.0 1036.3,248.2 1000.4,244.9 964.6,249.0 928.7,247.2 892.8,235.2 857.0,243.2 821.1,266.6 785.2,274.6 749.4,164.2 713.5,180.8 677.7,173.7 641.8,166.6 605.9,310.0 570.1,307.3 534.2,309.9 498.3,304.1 462.5,309.9 426.6,315.8 390.8,309.7 354.9,305.7 319.0,322.9 283.2,310.9 247.3,326.4 211.4,330.8 175.6,290.7 139.7,364.4 103.9,372.3 68.0,346.9" fill="#6a51a3" fill-opacity="0.9" stroke="#fff" stroke-width="0.4"><title>module_link — legalizeExistentialTypeLayout</title></polygon>
<polygon points="68.0,340.4 103.9,366.2 139.7,358.3 175.6,283.3 211.4,327.2 247.3,322.8 283.2,307.1 319.0,319.3 354.9,302.1 390.8,306.1 426.6,312.3 462.5,306.4 498.3,300.6 534.2,306.5 570.1,303.9 605.9,306.7 641.8,162.9 677.7,170.1 713.5,177.3 749.4,160.4 785.2,270.9 821.1,262.9 857.0,239.3 892.8,231.3 928.7,243.3 964.6,245.3 1000.4,241.2 1036.3,244.5 1072.1,198.1 1108.0,212.6 1108.0,212.8 1072.1,198.3 1036.3,244.7 1000.4,241.4 964.6,245.5 928.7,243.5 892.8,231.6 857.0,239.5 821.1,263.1 785.2,271.1 749.4,160.6 713.5,177.5 677.7,170.3 641.8,163.2 605.9,306.9 570.1,304.1 534.2,306.8 498.3,300.9 462.5,306.7 426.6,312.5 390.8,306.3 354.9,302.4 319.0,319.5 283.2,307.5 247.3,323.1 211.4,327.4 175.6,283.5 139.7,358.5 103.9,366.5 68.0,340.6" fill="#bcbddc" fill-opacity="0.9" stroke="#fff" stroke-width="0.4"><title>module_link — performMandatoryEarlyInlining</title></polygon>
<polygon points="68.0,340.1 103.9,365.9 139.7,357.9 175.6,282.9 211.4,326.9 247.3,322.5 283.2,306.8 319.0,319.0 354.9,301.8 390.8,305.8 426.6,312.0 462.5,306.1 498.3,300.3 534.2,306.2 570.1,303.6 605.9,306.4 641.8,162.6 677.7,169.8 713.5,177.0 749.4,160.1 785.2,270.6 821.1,262.5 857.0,239.0 892.8,231.0 928.7,242.9 964.6,244.9 1000.4,240.8 1036.3,244.2 1072.1,197.7 1108.0,212.3 1108.0,212.6 1072.1,198.1 1036.3,244.5 1000.4,241.2 964.6,245.3 928.7,243.3 892.8,231.3 857.0,239.3 821.1,262.9 785.2,270.9 749.4,160.4 713.5,177.3 677.7,170.1 641.8,162.9 605.9,306.7 570.1,303.9 534.2,306.5 498.3,300.6 462.5,306.4 426.6,312.3 390.8,306.1 354.9,302.1 319.0,319.3 283.2,307.1 247.3,322.8 211.4,327.2 175.6,283.3 139.7,358.3 103.9,366.2 68.0,340.4" fill="#dadaeb" fill-opacity="0.9" stroke="#fff" stroke-width="0.4"><title>module_link — performForceInlining</title></polygon>
<polygon points="68.0,331.7 103.9,356.8 139.7,348.8 175.6,272.1 211.4,316.1 247.3,311.1 283.2,296.5 319.0,308.7 354.9,291.3 390.8,294.0 426.6,301.1 462.5,295.0 498.3,289.4 534.2,295.3 570.1,292.1 605.9,295.1 641.8,138.6 677.7,146.3 713.5,152.6 749.4,135.1 785.2,252.6 821.1,246.2 857.0,218.6 892.8,212.8 928.7,224.1 964.6,226.1 1000.4,221.5 1036.3,223.1 1072.1,176.6 1108.0,192.3 1108.0,212.3 1072.1,197.7 1036.3,244.2 1000.4,240.8 964.6,244.9 928.7,242.9 892.8,231.0 857.0,239.0 821.1,262.5 785.2,270.6 749.4,160.1 713.5,177.0 677.7,169.8 641.8,162.6 605.9,306.4 570.1,303.6 534.2,306.2 498.3,300.3 462.5,306.1 426.6,312.0 390.8,305.8 354.9,301.8 319.0,319.0 283.2,306.8 247.3,322.5 211.4,326.9 175.6,282.9 139.7,357.9 103.9,365.9 68.0,340.1" fill="#4a1486" fill-opacity="0.9" stroke="#fff" stroke-width="0.4"><title>module_link — linkAndOptimizeIR (self)</title></polygon>
<polygon points="68.0,300.8 103.9,326.2 139.7,319.1 175.6,237.2 211.4,292.1 247.3,285.8 283.2,266.1 319.0,280.5 354.9,267.6 390.8,270.6 426.6,278.2 462.5,271.8 498.3,265.9 534.2,272.6 570.1,267.2 605.9,271.9 641.8,111.0 677.7,122.0 713.5,128.8 749.4,111.5 785.2,225.4 821.1,221.7 857.0,193.1 892.8,188.2 928.7,198.6 964.6,201.0 1000.4,197.3 1036.3,198.6 1072.1,151.4 1108.0,168.1 1108.0,192.3 1072.1,176.6 1036.3,223.1 1000.4,221.5 964.6,226.1 928.7,224.1 892.8,212.8 857.0,218.6 821.1,246.2 785.2,252.6 749.4,135.1 713.5,152.6 677.7,146.3 641.8,138.6 605.9,295.1 570.1,292.1 534.2,295.3 498.3,289.4 462.5,295.0 426.6,301.1 390.8,294.0 354.9,291.3 319.0,308.7 283.2,296.5 247.3,311.1 211.4,316.1 175.6,272.1 139.7,348.8 103.9,356.8 68.0,331.7" fill="#e6550d" fill-opacity="0.9" stroke="#fff" stroke-width="0.4"><title>module_link — generateOutput (self)</title></polygon>
<polygon points="68.0,299.2 103.9,325.9 139.7,317.7 175.6,235.7 211.4,289.9 247.3,285.8 283.2,264.9 319.0,278.3 354.9,266.9 390.8,270.6 426.6,278.2 462.5,268.5 498.3,264.6 534.2,270.0 570.1,265.6 605.9,271.3 641.8,108.6 677.7,117.9 713.5,127.3 749.4,111.5 785.2,224.8 821.1,219.6 857.0,192.5 892.8,187.5 928.7,196.8 964.6,200.4 1000.4,194.2 1036.3,198.6 1072.1,151.4 1108.0,162.1 1108.0,168.1 1072.1,151.4 1036.3,198.6 1000.4,197.3 964.6,201.0 928.7,198.6 892.8,188.2 857.0,193.1 821.1,221.7 785.2,225.4 749.4,111.5 713.5,128.8 677.7,122.0 641.8,111.0 605.9,271.9 570.1,267.2 534.2,272.6 498.3,265.9 462.5,271.8 426.6,278.2 390.8,270.6 354.9,267.6 319.0,280.5 283.2,266.1 247.3,285.8 211.4,292.1 175.6,237.2 139.7,319.1 103.9,326.2 68.0,300.8" fill="#969696" fill-opacity="0.9" stroke="#fff" stroke-width="0.4"><title>module_link — compileInner (self)</title></polygon>
<text x="12" y="578" fill="#666" font-weight="600">phase buckets</text>
<rect x="12" y="586" width="12" height="12" fill="#c7e9c0"/>
<text x="28" y="596" fill="#222">parseTranslationUnit</text>
<rect x="289" y="586" width="12" height="12" fill="#41ab5d"/>
<text x="305" y="596" fill="#222">SemanticChecking</text>
<rect x="566" y="586" width="12" height="12" fill="#006d2c"/>
<text x="582" y="596" fill="#222">generateIR</text>
<rect x="843" y="586" width="12" height="12" fill="#74c476"/>
<text x="859" y="596" fill="#222">frontEndExecute (self)</text>
<rect x="12" y="604" width="12" height="12" fill="#6baed6"/>
<text x="28" y="614" fill="#222">specializeModule</text>
<rect x="289" y="604" width="12" height="12" fill="#2171b5"/>
<text x="305" y="614" fill="#222">simplifyIR</text>
<rect x="566" y="604" width="12" height="12" fill="#08306b"/>
<text x="582" y="614" fill="#222">linkIR</text>
<rect x="843" y="604" width="12" height="12" fill="#9e9ac8"/>
<text x="859" y="614" fill="#222">unrollLoopsInModule</text>
<rect x="12" y="622" width="12" height="12" fill="#807dba"/>
<text x="28" y="632" fill="#222">legalizeResourceTypes</text>
<rect x="289" y="622" width="12" height="12" fill="#6a51a3"/>
<text x="305" y="632" fill="#222">legalizeExistentialTypeLayout</text>
<rect x="566" y="622" width="12" height="12" fill="#bcbddc"/>
<text x="582" y="632" fill="#222">performMandatoryEarlyInlining</text>
<rect x="843" y="622" width="12" height="12" fill="#dadaeb"/>
<text x="859" y="632" fill="#222">performForceInlining</text>
<rect x="12" y="640" width="12" height="12" fill="#4a1486"/>
<text x="28" y="650" fill="#222">linkAndOptimizeIR (self)</text>
<rect x="289" y="640" width="12" height="12" fill="#fd8d3c"/>
<text x="305" y="650" fill="#222">emitEntryPointsSourceFromIR</text>
<rect x="566" y="640" width="12" height="12" fill="#e6550d"/>
<text x="582" y="650" fill="#222">generateOutput (self)</text>
<rect x="843" y="640" width="12" height="12" fill="#969696"/>
<text x="859" y="650" fill="#222">compileInner (self)</text>
</svg>