<svg xmlns="http://www.w3.org/2000/svg" xmlns:xlink="http://www.w3.org/1999/xlink" width="1132" height="680" viewBox="0 0 1132 680" preserveAspectRatio="xMidYMid meet" font-family="sans-serif" font-size="13">
<rect width="1132" height="680" fill="white"/>
<text x="12" y="30" font-size="20" font-weight="bold">module_link — Daily tip-of-tree (last 30 days) (median ms)</text>
<text x="68" y="60" font-size="15" font-weight="600" fill="#1a1a1a">module_link<tspan fill="#888" font-weight="400" text-decoration="none">  0.89×</tspan></text>
<line x1="68.0" y1="516.0" x2="1108.0" y2="516.0" stroke="#eee"/>
<text x="64.0" y="519.0" text-anchor="end" fill="#999">0.0</text>
<line x1="68.0" y1="296.0" x2="1108.0" y2="296.0" stroke="#eee"/>
<text x="64.0" y="299.0" text-anchor="end" fill="#999">64</text>
<line x1="68.0" y1="76.0" x2="1108.0" y2="76.0" stroke="#eee"/>
<text x="64.0" y="79.0" text-anchor="end" fill="#999">128</text>
<line x1="68.0" y1="76.0" x2="68.0" y2="516.0" stroke="#333"/>
<line x1="68.0" y1="516.0" x2="1108.0" y2="516.0" stroke="#333"/>
<line x1="68.0" y1="516.0" x2="68.0" y2="519.0" stroke="#999"/>
<text x="68.0" y="531.0" text-anchor="end" fill="#e8731a" transform="rotate(-50 68.0 531.0)">06-25</text>
<line x1="142.3" y1="516.0" x2="142.3" y2="519.0" stroke="#999"/>
<text x="142.3" y="531.0" text-anchor="end" fill="#e8731a" transform="rotate(-50 142.3 531.0)">06-26</text>
<line x1="216.6" y1="516.0" x2="216.6" y2="519.0" stroke="#999"/>
<text x="216.6" y="531.0" text-anchor="end" fill="#e8731a" transform="rotate(-50 216.6 531.0)">06-28</text>
<line x1="290.9" y1="516.0" x2="290.9" y2="519.0" stroke="#999"/>
<text x="290.9" y="531.0" text-anchor="end" fill="#e8731a" transform="rotate(-50 290.9 531.0)">07-01</text>
<line x1="365.1" y1="516.0" x2="365.1" y2="519.0" stroke="#999"/>
<text x="365.1" y="531.0" text-anchor="end" fill="#e8731a" transform="rotate(-50 365.1 531.0)">07-02</text>
<line x1="439.4" y1="516.0" x2="439.4" y2="519.0" stroke="#999"/>
<text x="439.4" y="531.0" text-anchor="end" fill="#e8731a" transform="rotate(-50 439.4 531.0)">07-03</text>
<line x1="513.7" y1="516.0" x2="513.7" y2="519.0" stroke="#999"/>
<text x="513.7" y="531.0" text-anchor="end" fill="#e8731a" transform="rotate(-50 513.7 531.0)">07-06</text>
<line x1="588.0" y1="516.0" x2="588.0" y2="519.0" stroke="#999"/>
<text x="588.0" y="531.0" text-anchor="end" fill="#e8731a" transform="rotate(-50 588.0 531.0)">07-07</text>
<line x1="662.3" y1="516.0" x2="662.3" y2="519.0" stroke="#999"/>
<text x="662.3" y="531.0" text-anchor="end" fill="#e8731a" transform="rotate(-50 662.3 531.0)">07-08</text>
<line x1="736.6" y1="516.0" x2="736.6" y2="519.0" stroke="#999"/>
<text x="736.6" y="531.0" text-anchor="end" fill="#e8731a" transform="rotate(-50 736.6 531.0)">07-09</text>
<line x1="810.9" y1="516.0" x2="810.9" y2="519.0" stroke="#999"/>
<text x="810.9" y="531.0" text-anchor="end" fill="#e8731a" transform="rotate(-50 810.9 531.0)">07-10</text>
<line x1="885.1" y1="516.0" x2="885.1" y2="519.0" stroke="#999"/>
<text x="885.1" y="531.0" text-anchor="end" fill="#e8731a" transform="rotate(-50 885.1 531.0)">07-11</text>
<line x1="959.4" y1="516.0" x2="959.4" y2="519.0" stroke="#999"/>
<text x="959.4" y="531.0" text-anchor="end" fill="#e8731a" transform="rotate(-50 959.4 531.0)">07-14</text>
<line x1="1033.7" y1="516.0" x2="1033.7" y2="519.0" stroke="#999"/>
<text x="1033.7" y="531.0" text-anchor="end" fill="#e8731a" transform="rotate(-50 1033.7 531.0)">07-15</text>
<line x1="1108.0" y1="516.0" x2="1108.0" y2="519.0" stroke="#999"/>
<text x="1108.0" y="531.0" text-anchor="end" fill="#e8731a" transform="rotate(-50 1108.0 531.0)">07-15</text>
<polygon points="68.0,514.7 142.3,514.7 216.6,514.7 290.9,514.7 365.1,514.6 439.4,514.7 513.7,514.6 588.0,514.8 662.3,514.8 736.6,514.7 810.9,514.7 885.1,514.7 959.4,514.9 1033.7,514.8 1108.0,514.9 1108.0,516.0 1033.7,516.0 959.4,516.0 885.1,516.0 810.9,516.0 736.6,516.0 662.3,516.0 588.0,516.0 513.7,516.0 439.4,516.0 365.1,516.0 290.9,516.0 216.6,516.0 142.3,516.0 68.0,516.0" fill="#c7e9c0" fill-opacity="0.9" stroke="#fff" stroke-width="0.4"><title>module_link — parseTranslationUnit</title></polygon>
<polygon points="68.0,291.7 142.3,295.3 216.6,299.5 290.9,297.8 365.1,289.2 439.4,253.4 513.7,255.5 588.0,268.3 662.3,259.9 736.6,258.0 810.9,271.3 885.1,264.1 959.4,265.2 1033.7,272.1 1108.0,288.5 1108.0,514.9 1033.7,514.8 959.4,514.9 885.1,514.7 810.9,514.7 736.6,514.7 662.3,514.8 588.0,514.8 513.7,514.6 439.4,514.7 365.1,514.6 290.9,514.7 216.6,514.7 142.3,514.7 68.0,514.7" fill="#41ab5d" fill-opacity="0.9" stroke="#fff" stroke-width="0.4"><title>module_link — SemanticChecking</title></polygon>
<polygon points="68.0,278.0 142.3,281.5 216.6,285.7 290.9,284.0 365.1,275.0 439.4,239.4 513.7,241.3 588.0,254.1 662.3,245.0 736.6,243.7 810.9,257.1 885.1,250.6 959.4,251.9 1033.7,259.2 1108.0,275.2 1108.0,288.5 1033.7,272.1 959.4,265.2 885.1,264.1 810.9,271.3 736.6,258.0 662.3,259.9 588.0,268.3 513.7,255.5 439.4,253.4 365.1,289.2 290.9,297.8 216.6,299.5 142.3,295.3 68.0,291.7" fill="#006d2c" fill-opacity="0.9" stroke="#fff" stroke-width="0.4"><title>module_link — generateIR</title></polygon>
<polygon points="68.0,276.6 142.3,280.7 216.6,284.3 290.9,282.7 365.1,273.9 439.4,238.6 513.7,240.8 588.0,252.2 662.3,243.4 736.6,242.2 810.9,255.1 885.1,249.7 959.4,250.1 1033.7,257.9 1108.0,275.2 1108.0,275.2 1033.7,259.2 959.4,251.9 885.1,250.6 810.9,257.1 736.6,243.7 662.3,245.0 588.0,254.1 513.7,241.3 439.4,239.4 365.1,275.0 290.9,284.0 216.6,285.7 142.3,281.5 68.0,278.0" fill="#74c476" fill-opacity="0.9" stroke="#fff" stroke-width="0.4"><title>module_link — frontEndExecute (self)</title></polygon>
<polygon points="68.0,261.7 142.3,265.9 216.6,269.3 290.9,267.9 365.1,259.2 439.4,224.1 513.7,226.3 588.0,239.1 662.3,230.3 736.6,228.8 810.9,241.8 885.1,236.8 959.4,236.9 1033.7,246.2 1108.0,263.5 1108.0,275.2 1033.7,257.9 959.4,250.1 885.1,249.7 810.9,255.1 736.6,242.2 662.3,243.4 588.0,252.2 513.7,240.8 439.4,238.6 365.1,273.9 290.9,282.7 216.6,284.3 142.3,280.7 68.0,276.6" fill="#6baed6" fill-opacity="0.9" stroke="#fff" stroke-width="0.4"><title>module_link — specializeModule</title></polygon>
<polygon points="68.0,240.6 142.3,244.6 216.6,248.0 290.9,246.7 365.1,241.2 439.4,206.3 513.7,208.4 588.0,221.9 662.3,213.0 736.6,211.3 810.9,227.7 885.1,222.7 959.4,223.0 1033.7,234.3 1108.0,251.5 1108.0,263.5 1033.7,246.2 959.4,236.9 885.1,236.8 810.9,241.8 736.6,228.8 662.3,230.3 588.0,239.1 513.7,226.3 439.4,224.1 365.1,259.2 290.9,267.9 216.6,269.3 142.3,265.9 68.0,261.7" fill="#2171b5" fill-opacity="0.9" stroke="#fff" stroke-width="0.4"><title>module_link — simplifyIR</title></polygon>
<polygon points="68.0,204.9 142.3,209.7 216.6,212.9 290.9,211.1 365.1,204.6 439.4,171.5 513.7,172.1 588.0,187.5 662.3,177.2 736.6,176.5 810.9,192.8 885.1,188.7 959.4,186.6 1033.7,205.7 1108.0,222.7 1108.0,251.5 1033.7,234.3 959.4,223.0 885.1,222.7 810.9,227.7 736.6,211.3 662.3,213.0 588.0,221.9 513.7,208.4 439.4,206.3 365.1,241.2 290.9,246.7 216.6,248.0 142.3,244.6 68.0,240.6" fill="#08306b" fill-opacity="0.9" stroke="#fff" stroke-width="0.4"><title>module_link — linkIR</title></polygon>
<polygon points="68.0,204.8 142.3,209.6 216.6,212.8 290.9,211.0 365.1,204.5 439.4,171.4 513.7,172.0 588.0,187.3 662.3,177.0 736.6,176.4 810.9,192.6 885.1,188.5 959.4,186.5 1033.7,205.6 1108.0,222.6 1108.0,222.7 1033.7,205.7 959.4,186.6 885.1,188.7 810.9,192.8 736.6,176.5 662.3,177.2 588.0,187.5 513.7,172.1 439.4,171.5 365.1,204.6 290.9,211.1 216.6,212.9 142.3,209.7 68.0,204.9" fill="#9e9ac8" fill-opacity="0.9" stroke="#fff" stroke-width="0.4"><title>module_link — unrollLoopsInModule</title></polygon>
<polygon points="68.0,200.9 142.3,205.6 216.6,208.8 290.9,207.1 365.1,200.5 439.4,167.4 513.7,168.1 588.0,183.7 662.3,173.5 736.6,172.8 810.9,191.6 885.1,187.4 959.4,185.5 1033.7,204.4 1108.0,221.6 1108.0,222.6 1033.7,205.6 959.4,186.5 885.1,188.5 810.9,192.6 736.6,176.4 662.3,177.0 588.0,187.3 513.7,172.0 439.4,171.4 365.1,204.5 290.9,211.0 216.6,212.8 142.3,209.6 68.0,204.8" fill="#807dba" fill-opacity="0.9" stroke="#fff" stroke-width="0.4"><title>module_link — legalizeResourceTypes</title></polygon>
<polygon points="68.0,196.8 142.3,201.5 216.6,204.6 290.9,203.0 365.1,196.4 439.4,163.3 513.7,164.0 588.0,180.0 662.3,169.9 736.6,169.1 810.9,190.6 885.1,186.3 959.4,184.4 1033.7,203.3 1108.0,220.4 1108.0,221.6 1033.7,204.4 959.4,185.5 885.1,187.4 810.9,191.6 736.6,172.8 662.3,173.5 588.0,183.7 513.7,168.1 439.4,167.4 365.1,200.5 290.9,207.1 216.6,208.8 142.3,205.6 68.0,200.9" fill="#6a51a3" fill-opacity="0.9" stroke="#fff" stroke-width="0.4"><title>module_link — legalizeExistentialTypeLayout</title></polygon>
<polygon points="68.0,196.5 142.3,201.3 216.6,204.4 290.9,202.7 365.1,196.2 439.4,163.1 513.7,163.8 588.0,179.7 662.3,169.5 736.6,168.8 810.9,190.2 885.1,186.0 959.4,184.0 1033.7,203.0 1108.0,220.1 1108.0,220.4 1033.7,203.3 959.4,184.4 885.1,186.3 810.9,190.6 736.6,169.1 662.3,169.9 588.0,180.0 513.7,164.0 439.4,163.3 365.1,196.4 290.9,203.0 216.6,204.6 142.3,201.5 68.0,196.8" fill="#bcbddc" fill-opacity="0.9" stroke="#fff" stroke-width="0.4"><title>module_link — performMandatoryEarlyInlining</title></polygon>
<polygon points="68.0,196.2 142.3,200.9 216.6,204.0 290.9,202.3 365.1,195.8 439.4,162.7 513.7,163.4 588.0,179.3 662.3,169.2 736.6,168.4 810.9,189.8 885.1,185.6 959.4,183.7 1033.7,202.6 1108.0,219.7 1108.0,220.1 1033.7,203.0 959.4,184.0 885.1,186.0 810.9,190.2 736.6,168.8 662.3,169.5 588.0,179.7 513.7,163.8 439.4,163.1 365.1,196.2 290.9,202.7 216.6,204.4 142.3,201.3 68.0,196.5" fill="#dadaeb" fill-opacity="0.9" stroke="#fff" stroke-width="0.4"><title>module_link — performForceInlining</title></polygon>
<polygon points="68.0,174.6 142.3,178.4 216.6,183.1 290.9,180.9 365.1,172.5 439.4,139.5 513.7,140.3 588.0,160.3 662.3,150.8 736.6,149.3 810.9,174.8 885.1,169.2 959.4,168.5 1033.7,190.4 1108.0,207.6 1108.0,219.7 1033.7,202.6 959.4,183.7 885.1,185.6 810.9,189.8 736.6,168.4 662.3,169.2 588.0,179.3 513.7,163.4 439.4,162.7 365.1,195.8 290.9,202.3 216.6,204.0 142.3,200.9 68.0,196.2" fill="#4a1486" fill-opacity="0.9" stroke="#fff" stroke-width="0.4"><title>module_link — linkAndOptimizeIR (self)</title></polygon>
<polygon points="68.0,146.8 142.3,149.9 216.6,153.9 290.9,152.7 365.1,144.3 439.4,111.2 513.7,111.0 588.0,133.1 662.3,122.2 736.6,120.8 810.9,149.9 885.1,144.9 959.4,145.4 1033.7,166.8 1108.0,183.1 1108.0,207.6 1033.7,190.4 959.4,168.5 885.1,169.2 810.9,174.8 736.6,149.3 662.3,150.8 588.0,160.3 513.7,140.3 439.4,139.5 365.1,172.5 290.9,180.9 216.6,183.1 142.3,178.4 68.0,174.6" fill="#e6550d" fill-opacity="0.9" stroke="#fff" stroke-width="0.4"><title>module_link — generateOutput (self)</title></polygon>
<polygon points="68.0,142.9 142.3,149.9 216.6,152.6 290.9,151.4 365.1,142.5 439.4,111.2 513.7,108.6 588.0,132.2 662.3,120.1 736.6,119.6 810.9,149.1 885.1,139.4 959.4,145.4 1033.7,165.3 1108.0,183.1 1108.0,183.1 1033.7,166.8 959.4,145.4 885.1,144.9 810.9,149.9 736.6,120.8 662.3,122.2 588.0,133.1 513.7,111.0 439.4,111.2 365.1,144.3 290.9,152.7 216.6,153.9 142.3,149.9 68.0,146.8" fill="#969696" fill-opacity="0.9" stroke="#fff" stroke-width="0.4"><title>module_link — compileInner (self)</title></polygon>
<text x="12" y="578" fill="#666" font-weight="600">phase buckets</text>
<rect x="12" y="586" width="12" height="12" fill="#c7e9c0"/>
<text x="28" y="596" fill="#222">parseTranslationUnit</text>
<rect x="289" y="586" width="12" height="12" fill="#41ab5d"/>
<text x="305" y="596" fill="#222">SemanticChecking</text>
<rect x="566" y="586" width="12" height="12" fill="#006d2c"/>
<text x="582" y="596" fill="#222">generateIR</text>
<rect x="843" y="586" width="12" height="12" fill="#74c476"/>
<text x="859" y="596" fill="#222">frontEndExecute (self)</text>
<rect x="12" y="604" width="12" height="12" fill="#6baed6"/>
<text x="28" y="614" fill="#222">specializeModule</text>
<rect x="289" y="604" width="12" height="12" fill="#2171b5"/>
<text x="305" y="614" fill="#222">simplifyIR</text>
<rect x="566" y="604" width="12" height="12" fill="#08306b"/>
<text x="582" y="614" fill="#222">linkIR</text>
<rect x="843" y="604" width="12" height="12" fill="#9e9ac8"/>
<text x="859" y="614" fill="#222">unrollLoopsInModule</text>
<rect x="12" y="622" width="12" height="12" fill="#807dba"/>
<text x="28" y="632" fill="#222">legalizeResourceTypes</text>
<rect x="289" y="622" width="12" height="12" fill="#6a51a3"/>
<text x="305" y="632" fill="#222">legalizeExistentialTypeLayout</text>
<rect x="566" y="622" width="12" height="12" fill="#bcbddc"/>
<text x="582" y="632" fill="#222">performMandatoryEarlyInlining</text>
<rect x="843" y="622" width="12" height="12" fill="#dadaeb"/>
<text x="859" y="632" fill="#222">performForceInlining</text>
<rect x="12" y="640" width="12" height="12" fill="#4a1486"/>
<text x="28" y="650" fill="#222">linkAndOptimizeIR (self)</text>
<rect x="289" y="640" width="12" height="12" fill="#fd8d3c"/>
<text x="305" y="650" fill="#222">emitEntryPointsSourceFromIR</text>
<rect x="566" y="640" width="12" height="12" fill="#e6550d"/>
<text x="582" y="650" fill="#222">generateOutput (self)</text>
<rect x="843" y="640" width="12" height="12" fill="#969696"/>
<text x="859" y="650" fill="#222">compileInner (self)</text>
</svg>