<svg xmlns="http://www.w3.org/2000/svg" xmlns:xlink="http://www.w3.org/1999/xlink" width="1132" height="680" viewBox="0 0 1132 680" preserveAspectRatio="xMidYMid meet" font-family="sans-serif" font-size="13">
<rect width="1132" height="680" fill="white"/>
<text x="12" y="30" font-size="20" font-weight="bold">module_link — full phase breakdown across releases (median ms)</text>
<text x="68" y="60" font-size="15" font-weight="600" fill="#1a1a1a">module_link<tspan fill="#888" font-weight="400" text-decoration="none">  1.44×</tspan></text>
<line x1="68.0" y1="516.0" x2="1108.0" y2="516.0" stroke="#eee"/>
<text x="64.0" y="519.0" text-anchor="end" fill="#999">0.0</text>
<line x1="68.0" y1="296.0" x2="1108.0" y2="296.0" stroke="#eee"/>
<text x="64.0" y="299.0" text-anchor="end" fill="#999">74</text>
<line x1="68.0" y1="76.0" x2="1108.0" y2="76.0" stroke="#eee"/>
<text x="64.0" y="79.0" text-anchor="end" fill="#999">147</text>
<line x1="68.0" y1="76.0" x2="68.0" y2="516.0" stroke="#333"/>
<line x1="68.0" y1="516.0" x2="1108.0" y2="516.0" stroke="#333"/>
<line x1="68.0" y1="516.0" x2="68.0" y2="519.0" stroke="#999"/>
<text x="68.0" y="531.0" text-anchor="end" fill="#666" transform="rotate(-50 68.0 531.0)">25.14</text>
<line x1="120.0" y1="516.0" x2="120.0" y2="519.0" stroke="#999"/>
<text x="120.0" y="531.0" text-anchor="end" fill="#666" transform="rotate(-50 120.0 531.0)">25.15</text>
<line x1="172.0" y1="516.0" x2="172.0" y2="519.0" stroke="#999"/>
<text x="172.0" y="531.0" text-anchor="end" fill="#666" transform="rotate(-50 172.0 531.0)">25.16</text>
<line x1="224.0" y1="516.0" x2="224.0" y2="519.0" stroke="#999"/>
<text x="224.0" y="531.0" text-anchor="end" fill="#666" transform="rotate(-50 224.0 531.0)">25.17</text>
<line x1="276.0" y1="516.0" x2="276.0" y2="519.0" stroke="#999"/>
<text x="276.0" y="531.0" text-anchor="end" fill="#666" transform="rotate(-50 276.0 531.0)">25.18</text>
<line x1="328.0" y1="516.0" x2="328.0" y2="519.0" stroke="#999"/>
<text x="328.0" y="531.0" text-anchor="end" fill="#666" transform="rotate(-50 328.0 531.0)">25.19</text>
<line x1="380.0" y1="516.0" x2="380.0" y2="519.0" stroke="#999"/>
<text x="380.0" y="531.0" text-anchor="end" fill="#666" transform="rotate(-50 380.0 531.0)">25.20</text>
<line x1="432.0" y1="516.0" x2="432.0" y2="519.0" stroke="#999"/>
<text x="432.0" y="531.0" text-anchor="end" fill="#666" transform="rotate(-50 432.0 531.0)">25.21</text>
<line x1="484.0" y1="516.0" x2="484.0" y2="519.0" stroke="#999"/>
<text x="484.0" y="531.0" text-anchor="end" fill="#666" transform="rotate(-50 484.0 531.0)">25.22</text>
<line x1="536.0" y1="516.0" x2="536.0" y2="519.0" stroke="#999"/>
<text x="536.0" y="531.0" text-anchor="end" fill="#666" transform="rotate(-50 536.0 531.0)">25.23</text>
<line x1="588.0" y1="516.0" x2="588.0" y2="519.0" stroke="#999"/>
<text x="588.0" y="531.0" text-anchor="end" fill="#666" transform="rotate(-50 588.0 531.0)">25.24</text>
<line x1="640.0" y1="516.0" x2="640.0" y2="519.0" stroke="#999"/>
<text x="640.0" y="531.0" text-anchor="end" fill="#666" transform="rotate(-50 640.0 531.0)">26.1</text>
<line x1="692.0" y1="516.0" x2="692.0" y2="519.0" stroke="#999"/>
<text x="692.0" y="531.0" text-anchor="end" fill="#666" transform="rotate(-50 692.0 531.0)">26.2</text>
<line x1="744.0" y1="516.0" x2="744.0" y2="519.0" stroke="#999"/>
<text x="744.0" y="531.0" text-anchor="end" fill="#666" transform="rotate(-50 744.0 531.0)">26.3</text>
<line x1="796.0" y1="516.0" x2="796.0" y2="519.0" stroke="#999"/>
<text x="796.0" y="531.0" text-anchor="end" fill="#666" transform="rotate(-50 796.0 531.0)">26.4</text>
<line x1="848.0" y1="516.0" x2="848.0" y2="519.0" stroke="#999"/>
<text x="848.0" y="531.0" text-anchor="end" fill="#666" transform="rotate(-50 848.0 531.0)">26.5</text>
<line x1="900.0" y1="516.0" x2="900.0" y2="519.0" stroke="#999"/>
<text x="900.0" y="531.0" text-anchor="end" fill="#666" transform="rotate(-50 900.0 531.0)">26.7</text>
<line x1="952.0" y1="516.0" x2="952.0" y2="519.0" stroke="#999"/>
<text x="952.0" y="531.0" text-anchor="end" fill="#666" transform="rotate(-50 952.0 531.0)">26.8</text>
<line x1="1004.0" y1="516.0" x2="1004.0" y2="519.0" stroke="#999"/>
<text x="1004.0" y="531.0" text-anchor="end" fill="#666" transform="rotate(-50 1004.0 531.0)">26.9</text>
<line x1="1056.0" y1="516.0" x2="1056.0" y2="519.0" stroke="#999"/>
<text x="1056.0" y="531.0" text-anchor="end" fill="#666" transform="rotate(-50 1056.0 531.0)">26.10</text>
<line x1="1108.0" y1="516.0" x2="1108.0" y2="519.0" stroke="#999"/>
<text x="1108.0" y="531.0" text-anchor="end" fill="#666" transform="rotate(-50 1108.0 531.0)">26.11</text>
<polygon points="68.0,514.8 120.0,515.3 172.0,515.3 224.0,515.2 276.0,515.3 328.0,515.2 380.0,515.2 432.0,515.2 484.0,515.2 536.0,515.2 588.0,515.1 640.0,515.1 692.0,515.2 744.0,515.2 796.0,515.2 848.0,515.1 900.0,515.1 952.0,515.0 1004.0,515.0 1056.0,515.1 1108.0,515.0 1108.0,516.0 1056.0,516.0 1004.0,516.0 952.0,516.0 900.0,516.0 848.0,516.0 796.0,516.0 744.0,516.0 692.0,516.0 640.0,516.0 588.0,516.0 536.0,516.0 484.0,516.0 432.0,516.0 380.0,516.0 328.0,516.0 276.0,516.0 224.0,516.0 172.0,516.0 120.0,516.0 68.0,516.0" fill="#c7e9c0" fill-opacity="0.9" stroke="#fff" stroke-width="0.4"><title>module_link — parseTranslationUnit</title></polygon>
<polygon points="68.0,391.9 120.0,404.2 172.0,405.5 224.0,383.7 276.0,382.7 328.0,378.1 380.0,379.4 432.0,373.8 484.0,363.9 536.0,364.2 588.0,349.0 640.0,343.0 692.0,338.5 744.0,341.2 796.0,334.7 848.0,333.0 900.0,307.9 952.0,308.1 1004.0,310.2 1056.0,308.5 1108.0,327.6 1108.0,515.0 1056.0,515.1 1004.0,515.0 952.0,515.0 900.0,515.1 848.0,515.1 796.0,515.2 744.0,515.2 692.0,515.2 640.0,515.1 588.0,515.1 536.0,515.2 484.0,515.2 432.0,515.2 380.0,515.2 328.0,515.2 276.0,515.3 224.0,515.2 172.0,515.3 120.0,515.3 68.0,514.8" fill="#41ab5d" fill-opacity="0.9" stroke="#fff" stroke-width="0.4"><title>module_link — SemanticChecking</title></polygon>
<polygon points="68.0,389.4 120.0,401.8 172.0,403.0 224.0,381.0 276.0,379.9 328.0,375.2 380.0,376.6 432.0,371.0 484.0,361.0 536.0,361.4 588.0,346.2 640.0,340.1 692.0,335.6 744.0,338.3 796.0,331.8 848.0,330.1 900.0,304.7 952.0,304.9 1004.0,307.0 1056.0,305.3 1108.0,317.0 1108.0,327.6 1056.0,308.5 1004.0,310.2 952.0,308.1 900.0,307.9 848.0,333.0 796.0,334.7 744.0,341.2 692.0,338.5 640.0,343.0 588.0,349.0 536.0,364.2 484.0,363.9 432.0,373.8 380.0,379.4 328.0,378.1 276.0,382.7 224.0,383.7 172.0,405.5 120.0,404.2 68.0,391.9" fill="#006d2c" fill-opacity="0.9" stroke="#fff" stroke-width="0.4"><title>module_link — generateIR</title></polygon>
<polygon points="68.0,387.7 120.0,399.9 172.0,401.0 224.0,378.6 276.0,377.8 328.0,373.0 380.0,374.4 432.0,368.6 484.0,358.7 536.0,358.8 588.0,343.7 640.0,337.5 692.0,332.9 744.0,335.6 796.0,328.8 848.0,327.0 900.0,300.3 952.0,300.8 1004.0,302.8 1056.0,301.0 1108.0,315.9 1108.0,317.0 1056.0,305.3 1004.0,307.0 952.0,304.9 900.0,304.7 848.0,330.1 796.0,331.8 744.0,338.3 692.0,335.6 640.0,340.1 588.0,346.2 536.0,361.4 484.0,361.0 432.0,371.0 380.0,376.6 328.0,375.2 276.0,379.9 224.0,381.0 172.0,403.0 120.0,401.8 68.0,389.4" fill="#74c476" fill-opacity="0.9" stroke="#fff" stroke-width="0.4"><title>module_link — frontEndExecute (self)</title></polygon>
<polygon points="68.0,384.4 120.0,396.6 172.0,397.8 224.0,375.4 276.0,374.5 328.0,369.6 380.0,370.9 432.0,365.1 484.0,355.1 536.0,355.3 588.0,339.0 640.0,332.8 692.0,328.3 744.0,330.8 796.0,323.9 848.0,321.9 900.0,285.0 952.0,285.3 1004.0,287.3 1056.0,285.5 1108.0,304.6 1108.0,315.9 1056.0,301.0 1004.0,302.8 952.0,300.8 900.0,300.3 848.0,327.0 796.0,328.8 744.0,335.6 692.0,332.9 640.0,337.5 588.0,343.7 536.0,358.8 484.0,358.7 432.0,368.6 380.0,374.4 328.0,373.0 276.0,377.8 224.0,378.6 172.0,401.0 120.0,399.9 68.0,387.7" fill="#6baed6" fill-opacity="0.9" stroke="#fff" stroke-width="0.4"><title>module_link — specializeModule</title></polygon>
<polygon points="68.0,376.0 120.0,388.1 172.0,389.3 224.0,365.9 276.0,365.0 328.0,359.9 380.0,361.3 432.0,355.5 484.0,345.5 536.0,345.7 588.0,330.2 640.0,324.1 692.0,319.6 744.0,322.1 796.0,314.7 848.0,312.9 900.0,266.1 952.0,266.3 1004.0,268.2 1056.0,266.3 1108.0,286.9 1108.0,304.6 1056.0,285.5 1004.0,287.3 952.0,285.3 900.0,285.0 848.0,321.9 796.0,323.9 744.0,330.8 692.0,328.3 640.0,332.8 588.0,339.0 536.0,355.3 484.0,355.1 432.0,365.1 380.0,370.9 328.0,369.6 276.0,374.5 224.0,375.4 172.0,397.8 120.0,396.6 68.0,384.4" fill="#2171b5" fill-opacity="0.9" stroke="#fff" stroke-width="0.4"><title>module_link — simplifyIR</title></polygon>
<polygon points="68.0,355.9 120.0,369.1 172.0,370.5 224.0,345.0 276.0,344.1 328.0,339.0 380.0,340.3 432.0,334.4 484.0,323.9 536.0,324.3 588.0,309.0 640.0,302.5 692.0,296.1 744.0,298.7 796.0,290.1 848.0,287.8 900.0,167.3 952.0,168.2 1004.0,168.7 1056.0,166.9 1108.0,259.4 1108.0,286.9 1056.0,266.3 1004.0,268.2 952.0,266.3 900.0,266.1 848.0,312.9 796.0,314.7 744.0,322.1 692.0,319.6 640.0,324.1 588.0,330.2 536.0,345.7 484.0,345.5 432.0,355.5 380.0,361.3 328.0,359.9 276.0,365.0 224.0,365.9 172.0,389.3 120.0,388.1 68.0,376.0" fill="#08306b" fill-opacity="0.9" stroke="#fff" stroke-width="0.4"><title>module_link — linkIR</title></polygon>
<polygon points="68.0,355.8 120.0,369.0 172.0,370.3 224.0,344.9 276.0,343.9 328.0,338.8 380.0,340.2 432.0,334.2 484.0,323.7 536.0,324.1 588.0,308.8 640.0,302.4 692.0,296.0 744.0,298.5 796.0,289.9 848.0,287.6 900.0,167.2 952.0,168.2 1004.0,168.6 1056.0,166.8 1108.0,259.3 1108.0,259.4 1056.0,166.9 1004.0,168.7 952.0,168.2 900.0,167.3 848.0,287.8 796.0,290.1 744.0,298.7 692.0,296.1 640.0,302.5 588.0,309.0 536.0,324.3 484.0,323.9 432.0,334.4 380.0,340.3 328.0,339.0 276.0,344.1 224.0,345.0 172.0,370.5 120.0,369.1 68.0,355.9" fill="#9e9ac8" fill-opacity="0.9" stroke="#fff" stroke-width="0.4"><title>module_link — unrollLoopsInModule</title></polygon>
<polygon points="68.0,350.1 120.0,363.3 172.0,364.5 224.0,339.1 276.0,340.9 328.0,335.7 380.0,337.2 432.0,331.2 484.0,320.7 536.0,321.0 588.0,305.8 640.0,299.4 692.0,293.0 744.0,295.5 796.0,286.8 848.0,284.5 900.0,164.0 952.0,164.9 1004.0,165.5 1056.0,163.7 1108.0,256.1 1108.0,259.3 1056.0,166.8 1004.0,168.6 952.0,168.2 900.0,167.2 848.0,287.6 796.0,289.9 744.0,298.5 692.0,296.0 640.0,302.4 588.0,308.8 536.0,324.1 484.0,323.7 432.0,334.2 380.0,340.2 328.0,338.8 276.0,343.9 224.0,344.9 172.0,370.3 120.0,369.0 68.0,355.8" fill="#807dba" fill-opacity="0.9" stroke="#fff" stroke-width="0.4"><title>module_link — legalizeResourceTypes</title></polygon>
<polygon points="68.0,344.3 120.0,357.5 172.0,358.5 224.0,333.3 276.0,337.9 328.0,332.6 380.0,334.1 432.0,328.1 484.0,317.6 536.0,317.9 588.0,302.6 640.0,296.3 692.0,289.8 744.0,292.4 796.0,283.6 848.0,281.4 900.0,160.7 952.0,161.6 1004.0,162.2 1056.0,160.4 1108.0,252.8 1108.0,256.1 1056.0,163.7 1004.0,165.5 952.0,164.9 900.0,164.0 848.0,284.5 796.0,286.8 744.0,295.5 692.0,293.0 640.0,299.4 588.0,305.8 536.0,321.0 484.0,320.7 432.0,331.2 380.0,337.2 328.0,335.7 276.0,340.9 224.0,339.1 172.0,364.5 120.0,363.3 68.0,350.1" fill="#6a51a3" fill-opacity="0.9" stroke="#fff" stroke-width="0.4"><title>module_link — legalizeExistentialTypeLayout</title></polygon>
<polygon points="68.0,344.0 120.0,357.3 172.0,358.3 224.0,333.1 276.0,337.7 328.0,332.4 380.0,333.9 432.0,327.9 484.0,317.4 536.0,317.6 588.0,302.4 640.0,296.0 692.0,289.6 744.0,292.1 796.0,283.4 848.0,281.1 900.0,160.5 952.0,161.4 1004.0,162.0 1056.0,160.2 1108.0,252.6 1108.0,252.8 1056.0,160.4 1004.0,162.2 952.0,161.6 900.0,160.7 848.0,281.4 796.0,283.6 744.0,292.4 692.0,289.8 640.0,296.3 588.0,302.6 536.0,317.9 484.0,317.6 432.0,328.1 380.0,334.1 328.0,332.6 276.0,337.9 224.0,333.3 172.0,358.5 120.0,357.5 68.0,344.3" fill="#bcbddc" fill-opacity="0.9" stroke="#fff" stroke-width="0.4"><title>module_link — performMandatoryEarlyInlining</title></polygon>
<polygon points="68.0,343.7 120.0,357.0 172.0,358.0 224.0,332.8 276.0,337.4 328.0,332.1 380.0,333.6 432.0,327.6 484.0,317.1 536.0,317.3 588.0,302.1 640.0,295.7 692.0,289.3 744.0,291.8 796.0,283.0 848.0,280.8 900.0,160.2 952.0,161.0 1004.0,161.7 1056.0,159.9 1108.0,252.3 1108.0,252.6 1056.0,160.2 1004.0,162.0 952.0,161.4 900.0,160.5 848.0,281.1 796.0,283.4 744.0,292.1 692.0,289.6 640.0,296.0 588.0,302.4 536.0,317.6 484.0,317.4 432.0,327.9 380.0,333.9 328.0,332.4 276.0,337.7 224.0,333.1 172.0,358.3 120.0,357.3 68.0,344.0" fill="#dadaeb" fill-opacity="0.9" stroke="#fff" stroke-width="0.4"><title>module_link — performForceInlining</title></polygon>
<polygon points="68.0,334.9 120.0,348.3 172.0,349.3 224.0,323.5 276.0,327.8 328.0,322.4 380.0,323.2 432.0,317.5 484.0,307.1 536.0,307.4 588.0,291.4 640.0,284.8 692.0,278.4 744.0,280.9 796.0,271.2 848.0,269.3 900.0,136.5 952.0,136.9 1004.0,137.2 1056.0,135.8 1108.0,234.3 1108.0,252.3 1056.0,159.9 1004.0,161.7 952.0,161.0 900.0,160.2 848.0,280.8 796.0,283.0 744.0,291.8 692.0,289.3 640.0,295.7 588.0,302.1 536.0,317.3 484.0,317.1 432.0,327.6 380.0,333.6 328.0,332.1 276.0,337.4 224.0,332.8 172.0,358.0 120.0,357.0 68.0,343.7" fill="#4a1486" fill-opacity="0.9" stroke="#fff" stroke-width="0.4"><title>module_link — linkAndOptimizeIR (self)</title></polygon>
<polygon points="68.0,306.8 120.0,320.4 172.0,321.0 224.0,297.8 276.0,305.7 328.0,300.3 380.0,302.2 432.0,296.6 484.0,286.0 536.0,286.3 588.0,269.6 640.0,263.8 692.0,256.8 744.0,259.6 796.0,249.1 848.0,247.1 900.0,113.9 952.0,114.2 1004.0,113.6 1056.0,113.3 1108.0,212.2 1108.0,234.3 1056.0,135.8 1004.0,137.2 952.0,136.9 900.0,136.5 848.0,269.3 796.0,271.2 744.0,280.9 692.0,278.4 640.0,284.8 588.0,291.4 536.0,307.4 484.0,307.1 432.0,317.5 380.0,323.2 328.0,322.4 276.0,327.8 224.0,323.5 172.0,349.3 120.0,348.3 68.0,334.9" fill="#e6550d" fill-opacity="0.9" stroke="#fff" stroke-width="0.4"><title>module_link — generateOutput (self)</title></polygon>
<polygon points="68.0,305.4 120.0,319.5 172.0,320.3 224.0,296.3 276.0,305.1 328.0,299.5 380.0,301.3 432.0,295.5 484.0,284.8 536.0,285.2 588.0,268.2 640.0,262.7 692.0,255.5 744.0,258.4 796.0,246.9 848.0,246.2 900.0,111.4 952.0,112.5 1004.0,108.6 1056.0,111.6 1108.0,212.2 1108.0,212.2 1056.0,113.3 1004.0,113.6 952.0,114.2 900.0,113.9 848.0,247.1 796.0,249.1 744.0,259.6 692.0,256.8 640.0,263.8 588.0,269.6 536.0,286.3 484.0,286.0 432.0,296.6 380.0,302.2 328.0,300.3 276.0,305.7 224.0,297.8 172.0,321.0 120.0,320.4 68.0,306.8" fill="#969696" fill-opacity="0.9" stroke="#fff" stroke-width="0.4"><title>module_link — compileInner (self)</title></polygon>
<text x="12" y="578" fill="#666" font-weight="600">phase buckets</text>
<rect x="12" y="586" width="12" height="12" fill="#c7e9c0"/>
<text x="28" y="596" fill="#222">parseTranslationUnit</text>
<rect x="289" y="586" width="12" height="12" fill="#41ab5d"/>
<text x="305" y="596" fill="#222">SemanticChecking</text>
<rect x="566" y="586" width="12" height="12" fill="#006d2c"/>
<text x="582" y="596" fill="#222">generateIR</text>
<rect x="843" y="586" width="12" height="12" fill="#74c476"/>
<text x="859" y="596" fill="#222">frontEndExecute (self)</text>
<rect x="12" y="604" width="12" height="12" fill="#6baed6"/>
<text x="28" y="614" fill="#222">specializeModule</text>
<rect x="289" y="604" width="12" height="12" fill="#2171b5"/>
<text x="305" y="614" fill="#222">simplifyIR</text>
<rect x="566" y="604" width="12" height="12" fill="#08306b"/>
<text x="582" y="614" fill="#222">linkIR</text>
<rect x="843" y="604" width="12" height="12" fill="#9e9ac8"/>
<text x="859" y="614" fill="#222">unrollLoopsInModule</text>
<rect x="12" y="622" width="12" height="12" fill="#807dba"/>
<text x="28" y="632" fill="#222">legalizeResourceTypes</text>
<rect x="289" y="622" width="12" height="12" fill="#6a51a3"/>
<text x="305" y="632" fill="#222">legalizeExistentialTypeLayout</text>
<rect x="566" y="622" width="12" height="12" fill="#bcbddc"/>
<text x="582" y="632" fill="#222">performMandatoryEarlyInlining</text>
<rect x="843" y="622" width="12" height="12" fill="#dadaeb"/>
<text x="859" y="632" fill="#222">performForceInlining</text>
<rect x="12" y="640" width="12" height="12" fill="#4a1486"/>
<text x="28" y="650" fill="#222">linkAndOptimizeIR (self)</text>
<rect x="289" y="640" width="12" height="12" fill="#fd8d3c"/>
<text x="305" y="650" fill="#222">emitEntryPointsSourceFromIR</text>
<rect x="566" y="640" width="12" height="12" fill="#e6550d"/>
<text x="582" y="650" fill="#222">generateOutput (self)</text>
<rect x="843" y="640" width="12" height="12" fill="#969696"/>
<text x="859" y="650" fill="#222">compileInner (self)</text>
</svg>