<svg xmlns="http://www.w3.org/2000/svg" xmlns:xlink="http://www.w3.org/1999/xlink" width="1132" height="680" viewBox="0 0 1132 680" preserveAspectRatio="xMidYMid meet" font-family="sans-serif" font-size="13">
<rect width="1132" height="680" fill="white"/>
<text x="12" y="30" font-size="20" font-weight="bold">module_link — Daily tip-of-tree (last 30 days) (median ms)</text>
<text x="68" y="60" font-size="15" font-weight="600" fill="#1a1a1a">module_link<tspan fill="#888" font-weight="400" text-decoration="none">  0.79×</tspan></text>
<line x1="68.0" y1="516.0" x2="1108.0" y2="516.0" stroke="#eee"/>
<text x="64.0" y="519.0" text-anchor="end" fill="#999">0.0</text>
<line x1="68.0" y1="296.0" x2="1108.0" y2="296.0" stroke="#eee"/>
<text x="64.0" y="299.0" text-anchor="end" fill="#999">64</text>
<line x1="68.0" y1="76.0" x2="1108.0" y2="76.0" stroke="#eee"/>
<text x="64.0" y="79.0" text-anchor="end" fill="#999">128</text>
<line x1="68.0" y1="76.0" x2="68.0" y2="516.0" stroke="#333"/>
<line x1="68.0" y1="516.0" x2="1108.0" y2="516.0" stroke="#333"/>
<line x1="68.0" y1="516.0" x2="68.0" y2="519.0" stroke="#999"/>
<text x="68.0" y="531.0" text-anchor="end" fill="#e8731a" transform="rotate(-50 68.0 531.0)">06-25</text>
<line x1="120.0" y1="516.0" x2="120.0" y2="519.0" stroke="#999"/>
<text x="120.0" y="531.0" text-anchor="end" fill="#e8731a" transform="rotate(-50 120.0 531.0)">06-26</text>
<line x1="172.0" y1="516.0" x2="172.0" y2="519.0" stroke="#999"/>
<text x="172.0" y="531.0" text-anchor="end" fill="#e8731a" transform="rotate(-50 172.0 531.0)">06-28</text>
<line x1="224.0" y1="516.0" x2="224.0" y2="519.0" stroke="#999"/>
<text x="224.0" y="531.0" text-anchor="end" fill="#e8731a" transform="rotate(-50 224.0 531.0)">07-01</text>
<line x1="276.0" y1="516.0" x2="276.0" y2="519.0" stroke="#999"/>
<text x="276.0" y="531.0" text-anchor="end" fill="#e8731a" transform="rotate(-50 276.0 531.0)">07-02</text>
<line x1="328.0" y1="516.0" x2="328.0" y2="519.0" stroke="#999"/>
<text x="328.0" y="531.0" text-anchor="end" fill="#e8731a" transform="rotate(-50 328.0 531.0)">07-03</text>
<line x1="380.0" y1="516.0" x2="380.0" y2="519.0" stroke="#999"/>
<text x="380.0" y="531.0" text-anchor="end" fill="#e8731a" transform="rotate(-50 380.0 531.0)">07-06</text>
<line x1="432.0" y1="516.0" x2="432.0" y2="519.0" stroke="#999"/>
<text x="432.0" y="531.0" text-anchor="end" fill="#e8731a" transform="rotate(-50 432.0 531.0)">07-07</text>
<line x1="484.0" y1="516.0" x2="484.0" y2="519.0" stroke="#999"/>
<text x="484.0" y="531.0" text-anchor="end" fill="#e8731a" transform="rotate(-50 484.0 531.0)">07-08</text>
<line x1="536.0" y1="516.0" x2="536.0" y2="519.0" stroke="#999"/>
<text x="536.0" y="531.0" text-anchor="end" fill="#e8731a" transform="rotate(-50 536.0 531.0)">07-09</text>
<line x1="588.0" y1="516.0" x2="588.0" y2="519.0" stroke="#999"/>
<text x="588.0" y="531.0" text-anchor="end" fill="#e8731a" transform="rotate(-50 588.0 531.0)">07-10</text>
<line x1="640.0" y1="516.0" x2="640.0" y2="519.0" stroke="#999"/>
<text x="640.0" y="531.0" text-anchor="end" fill="#e8731a" transform="rotate(-50 640.0 531.0)">07-11</text>
<line x1="692.0" y1="516.0" x2="692.0" y2="519.0" stroke="#999"/>
<text x="692.0" y="531.0" text-anchor="end" fill="#e8731a" transform="rotate(-50 692.0 531.0)">07-14</text>
<line x1="744.0" y1="516.0" x2="744.0" y2="519.0" stroke="#999"/>
<text x="744.0" y="531.0" text-anchor="end" fill="#e8731a" transform="rotate(-50 744.0 531.0)">07-15</text>
<line x1="796.0" y1="516.0" x2="796.0" y2="519.0" stroke="#999"/>
<text x="796.0" y="531.0" text-anchor="end" fill="#e8731a" transform="rotate(-50 796.0 531.0)">07-15</text>
<line x1="848.0" y1="516.0" x2="848.0" y2="519.0" stroke="#999"/>
<text x="848.0" y="531.0" text-anchor="end" fill="#e8731a" transform="rotate(-50 848.0 531.0)">07-16</text>
<line x1="900.0" y1="516.0" x2="900.0" y2="519.0" stroke="#999"/>
<text x="900.0" y="531.0" text-anchor="end" fill="#e8731a" transform="rotate(-50 900.0 531.0)">07-17</text>
<line x1="952.0" y1="516.0" x2="952.0" y2="519.0" stroke="#999"/>
<text x="952.0" y="531.0" text-anchor="end" fill="#e8731a" transform="rotate(-50 952.0 531.0)">07-18</text>
<line x1="1004.0" y1="516.0" x2="1004.0" y2="519.0" stroke="#999"/>
<text x="1004.0" y="531.0" text-anchor="end" fill="#e8731a" transform="rotate(-50 1004.0 531.0)">07-19</text>
<line x1="1056.0" y1="516.0" x2="1056.0" y2="519.0" stroke="#999"/>
<text x="1056.0" y="531.0" text-anchor="end" fill="#e8731a" transform="rotate(-50 1056.0 531.0)">07-20</text>
<line x1="1108.0" y1="516.0" x2="1108.0" y2="519.0" stroke="#999"/>
<text x="1108.0" y="531.0" text-anchor="end" fill="#e8731a" transform="rotate(-50 1108.0 531.0)">07-21</text>
<polygon points="68.0,514.7 120.0,514.7 172.0,514.7 224.0,514.7 276.0,514.6 328.0,514.7 380.0,514.6 432.0,514.8 484.0,514.8 536.0,514.7 588.0,514.7 640.0,514.7 692.0,514.9 744.0,514.8 796.0,514.9 848.0,514.9 900.0,514.8 952.0,515.0 1004.0,515.0 1056.0,515.1 1108.0,515.0 1108.0,516.0 1056.0,516.0 1004.0,516.0 952.0,516.0 900.0,516.0 848.0,516.0 796.0,516.0 744.0,516.0 692.0,516.0 640.0,516.0 588.0,516.0 536.0,516.0 484.0,516.0 432.0,516.0 380.0,516.0 328.0,516.0 276.0,516.0 224.0,516.0 172.0,516.0 120.0,516.0 68.0,516.0" fill="#c7e9c0" fill-opacity="0.9" stroke="#fff" stroke-width="0.4"><title>module_link — parseTranslationUnit</title></polygon>
<polygon points="68.0,291.7 120.0,295.3 172.0,299.5 224.0,297.8 276.0,289.2 328.0,253.4 380.0,255.5 432.0,268.3 484.0,259.9 536.0,258.0 588.0,271.3 640.0,264.1 692.0,265.2 744.0,272.1 796.0,288.5 848.0,284.0 900.0,281.9 952.0,311.0 1004.0,311.1 1056.0,316.9 1108.0,312.7 1108.0,515.0 1056.0,515.1 1004.0,515.0 952.0,515.0 900.0,514.8 848.0,514.9 796.0,514.9 744.0,514.8 692.0,514.9 640.0,514.7 588.0,514.7 536.0,514.7 484.0,514.8 432.0,514.8 380.0,514.6 328.0,514.7 276.0,514.6 224.0,514.7 172.0,514.7 120.0,514.7 68.0,514.7" fill="#41ab5d" fill-opacity="0.9" stroke="#fff" stroke-width="0.4"><title>module_link — SemanticChecking</title></polygon>
<polygon points="68.0,278.0 120.0,281.5 172.0,285.7 224.0,284.0 276.0,275.0 328.0,239.4 380.0,241.3 432.0,254.1 484.0,245.0 536.0,243.7 588.0,257.1 640.0,250.6 692.0,251.9 744.0,259.2 796.0,275.2 848.0,270.6 900.0,269.3 952.0,300.9 1004.0,300.3 1056.0,306.3 1108.0,301.5 1108.0,312.7 1056.0,316.9 1004.0,311.1 952.0,311.0 900.0,281.9 848.0,284.0 796.0,288.5 744.0,272.1 692.0,265.2 640.0,264.1 588.0,271.3 536.0,258.0 484.0,259.9 432.0,268.3 380.0,255.5 328.0,253.4 276.0,289.2 224.0,297.8 172.0,299.5 120.0,295.3 68.0,291.7" fill="#006d2c" fill-opacity="0.9" stroke="#fff" stroke-width="0.4"><title>module_link — generateIR</title></polygon>
<polygon points="68.0,276.6 120.0,280.7 172.0,284.3 224.0,282.7 276.0,273.9 328.0,238.6 380.0,240.8 432.0,252.2 484.0,243.4 536.0,242.2 588.0,255.1 640.0,249.7 692.0,250.1 744.0,257.9 796.0,275.2 848.0,268.6 900.0,269.1 952.0,300.4 1004.0,299.1 1056.0,304.8 1108.0,301.1 1108.0,301.5 1056.0,306.3 1004.0,300.3 952.0,300.9 900.0,269.3 848.0,270.6 796.0,275.2 744.0,259.2 692.0,251.9 640.0,250.6 588.0,257.1 536.0,243.7 484.0,245.0 432.0,254.1 380.0,241.3 328.0,239.4 276.0,275.0 224.0,284.0 172.0,285.7 120.0,281.5 68.0,278.0" fill="#74c476" fill-opacity="0.9" stroke="#fff" stroke-width="0.4"><title>module_link — frontEndExecute (self)</title></polygon>
<polygon points="68.0,261.7 120.0,265.9 172.0,269.3 224.0,267.9 276.0,259.2 328.0,224.1 380.0,226.3 432.0,239.1 484.0,230.3 536.0,228.8 588.0,241.8 640.0,236.8 692.0,236.9 744.0,246.2 796.0,263.5 848.0,256.8 900.0,257.3 952.0,289.6 1004.0,288.0 1056.0,294.2 1108.0,290.1 1108.0,301.1 1056.0,304.8 1004.0,299.1 952.0,300.4 900.0,269.1 848.0,268.6 796.0,275.2 744.0,257.9 692.0,250.1 640.0,249.7 588.0,255.1 536.0,242.2 484.0,243.4 432.0,252.2 380.0,240.8 328.0,238.6 276.0,273.9 224.0,282.7 172.0,284.3 120.0,280.7 68.0,276.6" fill="#6baed6" fill-opacity="0.9" stroke="#fff" stroke-width="0.4"><title>module_link — specializeModule</title></polygon>
<polygon points="68.0,240.6 120.0,244.6 172.0,248.0 224.0,246.7 276.0,241.2 328.0,206.3 380.0,208.4 432.0,221.9 484.0,213.0 536.0,211.3 588.0,227.7 640.0,222.7 692.0,223.0 744.0,234.3 796.0,251.5 848.0,244.9 900.0,245.3 952.0,279.2 1004.0,277.4 1056.0,283.7 1108.0,279.1 1108.0,290.1 1056.0,294.2 1004.0,288.0 952.0,289.6 900.0,257.3 848.0,256.8 796.0,263.5 744.0,246.2 692.0,236.9 640.0,236.8 588.0,241.8 536.0,228.8 484.0,230.3 432.0,239.1 380.0,226.3 328.0,224.1 276.0,259.2 224.0,267.9 172.0,269.3 120.0,265.9 68.0,261.7" fill="#2171b5" fill-opacity="0.9" stroke="#fff" stroke-width="0.4"><title>module_link — simplifyIR</title></polygon>
<polygon points="68.0,204.9 120.0,209.7 172.0,212.9 224.0,211.1 276.0,204.6 328.0,171.5 380.0,172.1 432.0,187.5 484.0,177.2 536.0,176.5 588.0,192.8 640.0,188.7 692.0,186.6 744.0,205.7 796.0,222.7 848.0,215.8 900.0,215.5 952.0,257.1 1004.0,257.5 1056.0,262.1 1108.0,258.4 1108.0,279.1 1056.0,283.7 1004.0,277.4 952.0,279.2 900.0,245.3 848.0,244.9 796.0,251.5 744.0,234.3 692.0,223.0 640.0,222.7 588.0,227.7 536.0,211.3 484.0,213.0 432.0,221.9 380.0,208.4 328.0,206.3 276.0,241.2 224.0,246.7 172.0,248.0 120.0,244.6 68.0,240.6" fill="#08306b" fill-opacity="0.9" stroke="#fff" stroke-width="0.4"><title>module_link — linkIR</title></polygon>
<polygon points="68.0,204.8 120.0,209.6 172.0,212.8 224.0,211.0 276.0,204.5 328.0,171.4 380.0,172.0 432.0,187.3 484.0,177.0 536.0,176.4 588.0,192.6 640.0,188.5 692.0,186.5 744.0,205.6 796.0,222.6 848.0,215.7 900.0,215.4 952.0,257.0 1004.0,257.4 1056.0,262.0 1108.0,258.3 1108.0,258.4 1056.0,262.1 1004.0,257.5 952.0,257.1 900.0,215.5 848.0,215.8 796.0,222.7 744.0,205.7 692.0,186.6 640.0,188.7 588.0,192.8 536.0,176.5 484.0,177.2 432.0,187.5 380.0,172.1 328.0,171.5 276.0,204.6 224.0,211.1 172.0,212.9 120.0,209.7 68.0,204.9" fill="#9e9ac8" fill-opacity="0.9" stroke="#fff" stroke-width="0.4"><title>module_link — unrollLoopsInModule</title></polygon>
<polygon points="68.0,200.9 120.0,205.6 172.0,208.8 224.0,207.1 276.0,200.5 328.0,167.4 380.0,168.1 432.0,183.7 484.0,173.5 536.0,172.8 588.0,191.6 640.0,187.4 692.0,185.5 744.0,204.4 796.0,221.6 848.0,214.6 900.0,214.2 952.0,255.9 1004.0,256.3 1056.0,260.9 1108.0,257.1 1108.0,258.3 1056.0,262.0 1004.0,257.4 952.0,257.0 900.0,215.4 848.0,215.7 796.0,222.6 744.0,205.6 692.0,186.5 640.0,188.5 588.0,192.6 536.0,176.4 484.0,177.0 432.0,187.3 380.0,172.0 328.0,171.4 276.0,204.5 224.0,211.0 172.0,212.8 120.0,209.6 68.0,204.8" fill="#807dba" fill-opacity="0.9" stroke="#fff" stroke-width="0.4"><title>module_link — legalizeResourceTypes</title></polygon>
<polygon points="68.0,196.8 120.0,201.5 172.0,204.6 224.0,203.0 276.0,196.4 328.0,163.3 380.0,164.0 432.0,180.0 484.0,169.9 536.0,169.1 588.0,190.6 640.0,186.3 692.0,184.4 744.0,203.3 796.0,220.4 848.0,213.5 900.0,213.0 952.0,254.7 1004.0,255.1 1056.0,259.7 1108.0,255.9 1108.0,257.1 1056.0,260.9 1004.0,256.3 952.0,255.9 900.0,214.2 848.0,214.6 796.0,221.6 744.0,204.4 692.0,185.5 640.0,187.4 588.0,191.6 536.0,172.8 484.0,173.5 432.0,183.7 380.0,168.1 328.0,167.4 276.0,200.5 224.0,207.1 172.0,208.8 120.0,205.6 68.0,200.9" fill="#6a51a3" fill-opacity="0.9" stroke="#fff" stroke-width="0.4"><title>module_link — legalizeExistentialTypeLayout</title></polygon>
<polygon points="68.0,196.5 120.0,201.3 172.0,204.4 224.0,202.7 276.0,196.2 328.0,163.1 380.0,163.8 432.0,179.7 484.0,169.5 536.0,168.8 588.0,190.2 640.0,186.0 692.0,184.0 744.0,203.0 796.0,220.1 848.0,213.2 900.0,212.7 952.0,254.4 1004.0,254.8 1056.0,259.5 1108.0,255.7 1108.0,255.9 1056.0,259.7 1004.0,255.1 952.0,254.7 900.0,213.0 848.0,213.5 796.0,220.4 744.0,203.3 692.0,184.4 640.0,186.3 588.0,190.6 536.0,169.1 484.0,169.9 432.0,180.0 380.0,164.0 328.0,163.3 276.0,196.4 224.0,203.0 172.0,204.6 120.0,201.5 68.0,196.8" fill="#bcbddc" fill-opacity="0.9" stroke="#fff" stroke-width="0.4"><title>module_link — performMandatoryEarlyInlining</title></polygon>
<polygon points="68.0,196.2 120.0,200.9 172.0,204.0 224.0,202.3 276.0,195.8 328.0,162.7 380.0,163.4 432.0,179.3 484.0,169.2 536.0,168.4 588.0,189.8 640.0,185.6 692.0,183.7 744.0,202.6 796.0,219.7 848.0,212.8 900.0,212.3 952.0,254.1 1004.0,254.5 1056.0,259.2 1108.0,255.4 1108.0,255.7 1056.0,259.5 1004.0,254.8 952.0,254.4 900.0,212.7 848.0,213.2 796.0,220.1 744.0,203.0 692.0,184.0 640.0,186.0 588.0,190.2 536.0,168.8 484.0,169.5 432.0,179.7 380.0,163.8 328.0,163.1 276.0,196.2 224.0,202.7 172.0,204.4 120.0,201.3 68.0,196.5" fill="#dadaeb" fill-opacity="0.9" stroke="#fff" stroke-width="0.4"><title>module_link — performForceInlining</title></polygon>
<polygon points="68.0,174.6 120.0,178.4 172.0,183.1 224.0,180.9 276.0,172.5 328.0,139.5 380.0,140.3 432.0,160.3 484.0,150.8 536.0,149.3 588.0,174.8 640.0,169.2 692.0,168.5 744.0,190.4 796.0,207.6 848.0,200.4 900.0,199.8 952.0,243.1 1004.0,243.4 1056.0,248.6 1108.0,244.1 1108.0,255.4 1056.0,259.2 1004.0,254.5 952.0,254.1 900.0,212.3 848.0,212.8 796.0,219.7 744.0,202.6 692.0,183.7 640.0,185.6 588.0,189.8 536.0,168.4 484.0,169.2 432.0,179.3 380.0,163.4 328.0,162.7 276.0,195.8 224.0,202.3 172.0,204.0 120.0,200.9 68.0,196.2" fill="#4a1486" fill-opacity="0.9" stroke="#fff" stroke-width="0.4"><title>module_link — linkAndOptimizeIR (self)</title></polygon>
<polygon points="68.0,146.8 120.0,149.9 172.0,153.9 224.0,152.7 276.0,144.3 328.0,111.2 380.0,111.0 432.0,133.1 484.0,122.2 536.0,120.8 588.0,149.9 640.0,144.9 692.0,145.4 744.0,166.8 796.0,183.1 848.0,177.4 900.0,175.7 952.0,220.3 1004.0,221.3 1056.0,226.7 1108.0,221.6 1108.0,244.1 1056.0,248.6 1004.0,243.4 952.0,243.1 900.0,199.8 848.0,200.4 796.0,207.6 744.0,190.4 692.0,168.5 640.0,169.2 588.0,174.8 536.0,149.3 484.0,150.8 432.0,160.3 380.0,140.3 328.0,139.5 276.0,172.5 224.0,180.9 172.0,183.1 120.0,178.4 68.0,174.6" fill="#e6550d" fill-opacity="0.9" stroke="#fff" stroke-width="0.4"><title>module_link — generateOutput (self)</title></polygon>
<polygon points="68.0,142.9 120.0,149.9 172.0,152.6 224.0,151.4 276.0,142.5 328.0,111.2 380.0,108.6 432.0,132.2 484.0,120.1 536.0,119.6 588.0,149.1 640.0,139.4 692.0,145.4 744.0,165.3 796.0,183.1 848.0,176.3 900.0,170.9 952.0,220.3 1004.0,220.9 1056.0,224.6 1108.0,221.0 1108.0,221.6 1056.0,226.7 1004.0,221.3 952.0,220.3 900.0,175.7 848.0,177.4 796.0,183.1 744.0,166.8 692.0,145.4 640.0,144.9 588.0,149.9 536.0,120.8 484.0,122.2 432.0,133.1 380.0,111.0 328.0,111.2 276.0,144.3 224.0,152.7 172.0,153.9 120.0,149.9 68.0,146.8" fill="#969696" fill-opacity="0.9" stroke="#fff" stroke-width="0.4"><title>module_link — compileInner (self)</title></polygon>
<text x="12" y="578" fill="#666" font-weight="600">phase buckets</text>
<rect x="12" y="586" width="12" height="12" fill="#c7e9c0"/>
<text x="28" y="596" fill="#222">parseTranslationUnit</text>
<rect x="289" y="586" width="12" height="12" fill="#41ab5d"/>
<text x="305" y="596" fill="#222">SemanticChecking</text>
<rect x="566" y="586" width="12" height="12" fill="#006d2c"/>
<text x="582" y="596" fill="#222">generateIR</text>
<rect x="843" y="586" width="12" height="12" fill="#74c476"/>
<text x="859" y="596" fill="#222">frontEndExecute (self)</text>
<rect x="12" y="604" width="12" height="12" fill="#6baed6"/>
<text x="28" y="614" fill="#222">specializeModule</text>
<rect x="289" y="604" width="12" height="12" fill="#2171b5"/>
<text x="305" y="614" fill="#222">simplifyIR</text>
<rect x="566" y="604" width="12" height="12" fill="#08306b"/>
<text x="582" y="614" fill="#222">linkIR</text>
<rect x="843" y="604" width="12" height="12" fill="#9e9ac8"/>
<text x="859" y="614" fill="#222">unrollLoopsInModule</text>
<rect x="12" y="622" width="12" height="12" fill="#807dba"/>
<text x="28" y="632" fill="#222">legalizeResourceTypes</text>
<rect x="289" y="622" width="12" height="12" fill="#6a51a3"/>
<text x="305" y="632" fill="#222">legalizeExistentialTypeLayout</text>
<rect x="566" y="622" width="12" height="12" fill="#bcbddc"/>
<text x="582" y="632" fill="#222">performMandatoryEarlyInlining</text>
<rect x="843" y="622" width="12" height="12" fill="#dadaeb"/>
<text x="859" y="632" fill="#222">performForceInlining</text>
<rect x="12" y="640" width="12" height="12" fill="#4a1486"/>
<text x="28" y="650" fill="#222">linkAndOptimizeIR (self)</text>
<rect x="289" y="640" width="12" height="12" fill="#fd8d3c"/>
<text x="305" y="650" fill="#222">emitEntryPointsSourceFromIR</text>
<rect x="566" y="640" width="12" height="12" fill="#e6550d"/>
<text x="582" y="650" fill="#222">generateOutput (self)</text>
<rect x="843" y="640" width="12" height="12" fill="#969696"/>
<text x="859" y="650" fill="#222">compileInner (self)</text>
</svg>