<svg xmlns="http://www.w3.org/2000/svg" xmlns:xlink="http://www.w3.org/1999/xlink" width="1132" height="680" viewBox="0 0 1132 680" preserveAspectRatio="xMidYMid meet" font-family="sans-serif" font-size="13">
<rect width="1132" height="680" fill="white"/>
<text x="12" y="30" font-size="20" font-weight="bold">module_link — full phase breakdown across releases (median ms)</text>
<text x="68" y="60" font-size="15" font-weight="600" fill="#1a1a1a">module_link<tspan fill="#888" font-weight="400" text-decoration="none">  1.55×</tspan></text>
<line x1="68.0" y1="516.0" x2="1108.0" y2="516.0" stroke="#eee"/>
<text x="64.0" y="519.0" text-anchor="end" fill="#999">0.0</text>
<line x1="68.0" y1="296.0" x2="1108.0" y2="296.0" stroke="#eee"/>
<text x="64.0" y="299.0" text-anchor="end" fill="#999">74</text>
<line x1="68.0" y1="76.0" x2="1108.0" y2="76.0" stroke="#eee"/>
<text x="64.0" y="79.0" text-anchor="end" fill="#999">147</text>
<line x1="68.0" y1="76.0" x2="68.0" y2="516.0" stroke="#333"/>
<line x1="68.0" y1="516.0" x2="1108.0" y2="516.0" stroke="#333"/>
<line x1="920.8" y1="76.0" x2="920.8" y2="516.0" stroke="#e8731a" stroke-width="1.2" stroke-dasharray="4 3"/>
<text x="923.8" y="87.0" fill="#e8731a" font-size="11">daily →</text>
<line x1="68.0" y1="516.0" x2="68.0" y2="519.0" stroke="#999"/>
<text x="68.0" y="531.0" text-anchor="end" fill="#666" transform="rotate(-50 68.0 531.0)">25.14</text>
<line x1="109.6" y1="516.0" x2="109.6" y2="519.0" stroke="#999"/>
<text x="109.6" y="531.0" text-anchor="end" fill="#666" transform="rotate(-50 109.6 531.0)">25.15</text>
<line x1="151.2" y1="516.0" x2="151.2" y2="519.0" stroke="#999"/>
<text x="151.2" y="531.0" text-anchor="end" fill="#666" transform="rotate(-50 151.2 531.0)">25.16</text>
<line x1="192.8" y1="516.0" x2="192.8" y2="519.0" stroke="#999"/>
<text x="192.8" y="531.0" text-anchor="end" fill="#666" transform="rotate(-50 192.8 531.0)">25.17</text>
<line x1="234.4" y1="516.0" x2="234.4" y2="519.0" stroke="#999"/>
<text x="234.4" y="531.0" text-anchor="end" fill="#666" transform="rotate(-50 234.4 531.0)">25.18</text>
<line x1="276.0" y1="516.0" x2="276.0" y2="519.0" stroke="#999"/>
<text x="276.0" y="531.0" text-anchor="end" fill="#666" transform="rotate(-50 276.0 531.0)">25.19</text>
<line x1="317.6" y1="516.0" x2="317.6" y2="519.0" stroke="#999"/>
<text x="317.6" y="531.0" text-anchor="end" fill="#666" transform="rotate(-50 317.6 531.0)">25.20</text>
<line x1="359.2" y1="516.0" x2="359.2" y2="519.0" stroke="#999"/>
<text x="359.2" y="531.0" text-anchor="end" fill="#666" transform="rotate(-50 359.2 531.0)">25.21</text>
<line x1="400.8" y1="516.0" x2="400.8" y2="519.0" stroke="#999"/>
<text x="400.8" y="531.0" text-anchor="end" fill="#666" transform="rotate(-50 400.8 531.0)">25.22</text>
<line x1="442.4" y1="516.0" x2="442.4" y2="519.0" stroke="#999"/>
<text x="442.4" y="531.0" text-anchor="end" fill="#666" transform="rotate(-50 442.4 531.0)">25.23</text>
<line x1="484.0" y1="516.0" x2="484.0" y2="519.0" stroke="#999"/>
<text x="484.0" y="531.0" text-anchor="end" fill="#666" transform="rotate(-50 484.0 531.0)">25.24</text>
<line x1="525.6" y1="516.0" x2="525.6" y2="519.0" stroke="#999"/>
<text x="525.6" y="531.0" text-anchor="end" fill="#666" transform="rotate(-50 525.6 531.0)">26.1</text>
<line x1="567.2" y1="516.0" x2="567.2" y2="519.0" stroke="#999"/>
<text x="567.2" y="531.0" text-anchor="end" fill="#666" transform="rotate(-50 567.2 531.0)">26.2</text>
<line x1="608.8" y1="516.0" x2="608.8" y2="519.0" stroke="#999"/>
<text x="608.8" y="531.0" text-anchor="end" fill="#666" transform="rotate(-50 608.8 531.0)">26.3</text>
<line x1="650.4" y1="516.0" x2="650.4" y2="519.0" stroke="#999"/>
<text x="650.4" y="531.0" text-anchor="end" fill="#666" transform="rotate(-50 650.4 531.0)">26.4</text>
<line x1="692.0" y1="516.0" x2="692.0" y2="519.0" stroke="#999"/>
<text x="692.0" y="531.0" text-anchor="end" fill="#666" transform="rotate(-50 692.0 531.0)">26.5</text>
<line x1="733.6" y1="516.0" x2="733.6" y2="519.0" stroke="#999"/>
<text x="733.6" y="531.0" text-anchor="end" fill="#666" transform="rotate(-50 733.6 531.0)">26.7</text>
<line x1="775.2" y1="516.0" x2="775.2" y2="519.0" stroke="#999"/>
<text x="775.2" y="531.0" text-anchor="end" fill="#666" transform="rotate(-50 775.2 531.0)">26.8</text>
<line x1="816.8" y1="516.0" x2="816.8" y2="519.0" stroke="#999"/>
<text x="816.8" y="531.0" text-anchor="end" fill="#666" transform="rotate(-50 816.8 531.0)">26.9</text>
<line x1="858.4" y1="516.0" x2="858.4" y2="519.0" stroke="#999"/>
<text x="858.4" y="531.0" text-anchor="end" fill="#666" transform="rotate(-50 858.4 531.0)">26.10</text>
<line x1="900.0" y1="516.0" x2="900.0" y2="519.0" stroke="#999"/>
<text x="900.0" y="531.0" text-anchor="end" fill="#666" transform="rotate(-50 900.0 531.0)">26.11</text>
<line x1="941.6" y1="516.0" x2="941.6" y2="519.0" stroke="#999"/>
<text x="941.6" y="531.0" text-anchor="end" fill="#e8731a" transform="rotate(-50 941.6 531.0)">06-25</text>
<line x1="983.2" y1="516.0" x2="983.2" y2="519.0" stroke="#999"/>
<text x="983.2" y="531.0" text-anchor="end" fill="#e8731a" transform="rotate(-50 983.2 531.0)">06-26</text>
<line x1="1024.8" y1="516.0" x2="1024.8" y2="519.0" stroke="#999"/>
<text x="1024.8" y="531.0" text-anchor="end" fill="#e8731a" transform="rotate(-50 1024.8 531.0)">06-28</text>
<line x1="1066.4" y1="516.0" x2="1066.4" y2="519.0" stroke="#999"/>
<text x="1066.4" y="531.0" text-anchor="end" fill="#e8731a" transform="rotate(-50 1066.4 531.0)">07-01</text>
<line x1="1108.0" y1="516.0" x2="1108.0" y2="519.0" stroke="#999"/>
<text x="1108.0" y="531.0" text-anchor="end" fill="#e8731a" transform="rotate(-50 1108.0 531.0)">07-02</text>
<polygon points="68.0,514.8 109.6,515.3 151.2,515.3 192.8,515.2 234.4,515.3 276.0,515.2 317.6,515.2 359.2,515.2 400.8,515.2 442.4,515.2 484.0,515.1 525.6,515.1 567.2,515.2 608.8,515.2 650.4,515.2 692.0,515.1 733.6,515.1 775.2,515.0 816.8,515.0 858.4,515.1 900.0,515.0 941.6,515.0 983.2,515.0 1024.8,515.0 1066.4,515.0 1108.0,514.9 1108.0,516.0 1066.4,516.0 1024.8,516.0 983.2,516.0 941.6,516.0 900.0,516.0 858.4,516.0 816.8,516.0 775.2,516.0 733.6,516.0 692.0,516.0 650.4,516.0 608.8,516.0 567.2,516.0 525.6,516.0 484.0,516.0 442.4,516.0 400.8,516.0 359.2,516.0 317.6,516.0 276.0,516.0 234.4,516.0 192.8,516.0 151.2,516.0 109.6,516.0 68.0,516.0" fill="#c7e9c0" fill-opacity="0.9" stroke="#fff" stroke-width="0.4"><title>module_link — parseTranslationUnit</title></polygon>
<polygon points="68.0,391.9 109.6,404.2 151.2,405.5 192.8,383.7 234.4,382.7 276.0,378.1 317.6,379.4 359.2,373.8 400.8,363.9 442.4,364.2 484.0,349.0 525.6,343.0 567.2,338.5 608.8,341.2 650.4,334.7 692.0,333.0 733.6,307.9 775.2,308.1 816.8,310.2 858.4,308.5 900.0,327.6 941.6,317.3 983.2,318.2 1024.8,319.4 1066.4,316.7 1108.0,312.7 1108.0,514.9 1066.4,515.0 1024.8,515.0 983.2,515.0 941.6,515.0 900.0,515.0 858.4,515.1 816.8,515.0 775.2,515.0 733.6,515.1 692.0,515.1 650.4,515.2 608.8,515.2 567.2,515.2 525.6,515.1 484.0,515.1 442.4,515.2 400.8,515.2 359.2,515.2 317.6,515.2 276.0,515.2 234.4,515.3 192.8,515.2 151.2,515.3 109.6,515.3 68.0,514.8" fill="#41ab5d" fill-opacity="0.9" stroke="#fff" stroke-width="0.4"><title>module_link — SemanticChecking</title></polygon>
<polygon points="68.0,389.4 109.6,401.8 151.2,403.0 192.8,381.0 234.4,379.9 276.0,375.2 317.6,376.6 359.2,371.0 400.8,361.0 442.4,361.4 484.0,346.2 525.6,340.1 567.2,335.6 608.8,338.3 650.4,331.8 692.0,330.1 733.6,304.7 775.2,304.9 816.8,307.0 858.4,305.3 900.0,317.0 941.6,306.7 983.2,307.4 1024.8,308.4 1066.4,306.0 1108.0,301.8 1108.0,312.7 1066.4,316.7 1024.8,319.4 983.2,318.2 941.6,317.3 900.0,327.6 858.4,308.5 816.8,310.2 775.2,308.1 733.6,307.9 692.0,333.0 650.4,334.7 608.8,341.2 567.2,338.5 525.6,343.0 484.0,349.0 442.4,364.2 400.8,363.9 359.2,373.8 317.6,379.4 276.0,378.1 234.4,382.7 192.8,383.7 151.2,405.5 109.6,404.2 68.0,391.9" fill="#006d2c" fill-opacity="0.9" stroke="#fff" stroke-width="0.4"><title>module_link — generateIR</title></polygon>
<polygon points="68.0,387.7 109.6,399.9 151.2,401.0 192.8,378.6 234.4,377.8 276.0,373.0 317.6,374.4 359.2,368.6 400.8,358.7 442.4,358.8 484.0,343.7 525.6,337.5 567.2,332.9 608.8,335.6 650.4,328.8 692.0,327.0 733.6,300.3 775.2,300.8 816.8,302.8 858.4,301.0 900.0,315.9 941.6,305.4 983.2,306.1 1024.8,307.3 1066.4,304.7 1108.0,300.6 1108.0,301.8 1066.4,306.0 1024.8,308.4 983.2,307.4 941.6,306.7 900.0,317.0 858.4,305.3 816.8,307.0 775.2,304.9 733.6,304.7 692.0,330.1 650.4,331.8 608.8,338.3 567.2,335.6 525.6,340.1 484.0,346.2 442.4,361.4 400.8,361.0 359.2,371.0 317.6,376.6 276.0,375.2 234.4,379.9 192.8,381.0 151.2,403.0 109.6,401.8 68.0,389.4" fill="#74c476" fill-opacity="0.9" stroke="#fff" stroke-width="0.4"><title>module_link — frontEndExecute (self)</title></polygon>
<polygon points="68.0,384.4 109.6,396.6 151.2,397.8 192.8,375.4 234.4,374.5 276.0,369.6 317.6,370.9 359.2,365.1 400.8,355.1 442.4,355.3 484.0,339.0 525.6,332.8 567.2,328.3 608.8,330.8 650.4,323.9 692.0,321.9 733.6,285.0 775.2,285.3 816.8,287.3 858.4,285.5 900.0,304.6 941.6,292.9 983.2,293.9 1024.8,295.0 1066.4,292.3 1108.0,288.1 1108.0,300.6 1066.4,304.7 1024.8,307.3 983.2,306.1 941.6,305.4 900.0,315.9 858.4,301.0 816.8,302.8 775.2,300.8 733.6,300.3 692.0,327.0 650.4,328.8 608.8,335.6 567.2,332.9 525.6,337.5 484.0,343.7 442.4,358.8 400.8,358.7 359.2,368.6 317.6,374.4 276.0,373.0 234.4,377.8 192.8,378.6 151.2,401.0 109.6,399.9 68.0,387.7" fill="#6baed6" fill-opacity="0.9" stroke="#fff" stroke-width="0.4"><title>module_link — specializeModule</title></polygon>
<polygon points="68.0,376.0 109.6,388.1 151.2,389.3 192.8,365.9 234.4,365.0 276.0,359.9 317.6,361.3 359.2,355.5 400.8,345.5 442.4,345.7 484.0,330.2 525.6,324.1 567.2,319.6 608.8,322.1 650.4,314.7 692.0,312.9 733.6,266.1 775.2,266.3 816.8,268.2 858.4,266.3 900.0,286.9 941.6,274.7 983.2,275.8 1024.8,276.8 1066.4,274.1 1108.0,272.5 1108.0,288.1 1066.4,292.3 1024.8,295.0 983.2,293.9 941.6,292.9 900.0,304.6 858.4,285.5 816.8,287.3 775.2,285.3 733.6,285.0 692.0,321.9 650.4,323.9 608.8,330.8 567.2,328.3 525.6,332.8 484.0,339.0 442.4,355.3 400.8,355.1 359.2,365.1 317.6,370.9 276.0,369.6 234.4,374.5 192.8,375.4 151.2,397.8 109.6,396.6 68.0,384.4" fill="#2171b5" fill-opacity="0.9" stroke="#fff" stroke-width="0.4"><title>module_link — simplifyIR</title></polygon>
<polygon points="68.0,355.9 109.6,369.1 151.2,370.5 192.8,345.0 234.4,344.1 276.0,339.0 317.6,340.3 359.2,334.4 400.8,323.9 442.4,324.3 484.0,309.0 525.6,302.5 567.2,296.1 608.8,298.7 650.4,290.1 692.0,287.8 733.6,167.3 775.2,168.2 816.8,168.7 858.4,166.9 900.0,259.4 941.6,244.7 983.2,245.8 1024.8,247.1 1066.4,244.0 1108.0,241.8 1108.0,272.5 1066.4,274.1 1024.8,276.8 983.2,275.8 941.6,274.7 900.0,286.9 858.4,266.3 816.8,268.2 775.2,266.3 733.6,266.1 692.0,312.9 650.4,314.7 608.8,322.1 567.2,319.6 525.6,324.1 484.0,330.2 442.4,345.7 400.8,345.5 359.2,355.5 317.6,361.3 276.0,359.9 234.4,365.0 192.8,365.9 151.2,389.3 109.6,388.1 68.0,376.0" fill="#08306b" fill-opacity="0.9" stroke="#fff" stroke-width="0.4"><title>module_link — linkIR</title></polygon>
<polygon points="68.0,355.8 109.6,369.0 151.2,370.3 192.8,344.9 234.4,343.9 276.0,338.8 317.6,340.2 359.2,334.2 400.8,323.7 442.4,324.1 484.0,308.8 525.6,302.4 567.2,296.0 608.8,298.5 650.4,289.9 692.0,287.6 733.6,167.2 775.2,168.2 816.8,168.6 858.4,166.8 900.0,259.3 941.6,244.6 983.2,245.7 1024.8,247.0 1066.4,243.9 1108.0,241.7 1108.0,241.8 1066.4,244.0 1024.8,247.1 983.2,245.8 941.6,244.7 900.0,259.4 858.4,166.9 816.8,168.7 775.2,168.2 733.6,167.3 692.0,287.8 650.4,290.1 608.8,298.7 567.2,296.1 525.6,302.5 484.0,309.0 442.4,324.3 400.8,323.9 359.2,334.4 317.6,340.3 276.0,339.0 234.4,344.1 192.8,345.0 151.2,370.5 109.6,369.1 68.0,355.9" fill="#9e9ac8" fill-opacity="0.9" stroke="#fff" stroke-width="0.4"><title>module_link — unrollLoopsInModule</title></polygon>
<polygon points="68.0,350.1 109.6,363.3 151.2,364.5 192.8,339.1 234.4,340.9 276.0,335.7 317.6,337.2 359.2,331.2 400.8,320.7 442.4,321.0 484.0,305.8 525.6,299.4 567.2,293.0 608.8,295.5 650.4,286.8 692.0,284.5 733.6,164.0 775.2,164.9 816.8,165.5 858.4,163.7 900.0,256.1 941.6,241.3 983.2,242.4 1024.8,243.6 1066.4,240.5 1108.0,238.3 1108.0,241.7 1066.4,243.9 1024.8,247.0 983.2,245.7 941.6,244.6 900.0,259.3 858.4,166.8 816.8,168.6 775.2,168.2 733.6,167.2 692.0,287.6 650.4,289.9 608.8,298.5 567.2,296.0 525.6,302.4 484.0,308.8 442.4,324.1 400.8,323.7 359.2,334.2 317.6,340.2 276.0,338.8 234.4,343.9 192.8,344.9 151.2,370.3 109.6,369.0 68.0,355.8" fill="#807dba" fill-opacity="0.9" stroke="#fff" stroke-width="0.4"><title>module_link — legalizeResourceTypes</title></polygon>
<polygon points="68.0,344.3 109.6,357.5 151.2,358.5 192.8,333.3 234.4,337.9 276.0,332.6 317.6,334.1 359.2,328.1 400.8,317.6 442.4,317.9 484.0,302.6 525.6,296.3 567.2,289.8 608.8,292.4 650.4,283.6 692.0,281.4 733.6,160.7 775.2,161.6 816.8,162.2 858.4,160.4 900.0,252.8 941.6,237.7 983.2,238.9 1024.8,240.2 1066.4,236.9 1108.0,234.8 1108.0,238.3 1066.4,240.5 1024.8,243.6 983.2,242.4 941.6,241.3 900.0,256.1 858.4,163.7 816.8,165.5 775.2,164.9 733.6,164.0 692.0,284.5 650.4,286.8 608.8,295.5 567.2,293.0 525.6,299.4 484.0,305.8 442.4,321.0 400.8,320.7 359.2,331.2 317.6,337.2 276.0,335.7 234.4,340.9 192.8,339.1 151.2,364.5 109.6,363.3 68.0,350.1" fill="#6a51a3" fill-opacity="0.9" stroke="#fff" stroke-width="0.4"><title>module_link — legalizeExistentialTypeLayout</title></polygon>
<polygon points="68.0,344.0 109.6,357.3 151.2,358.3 192.8,333.1 234.4,337.7 276.0,332.4 317.6,333.9 359.2,327.9 400.8,317.4 442.4,317.6 484.0,302.4 525.6,296.0 567.2,289.6 608.8,292.1 650.4,283.4 692.0,281.1 733.6,160.5 775.2,161.4 816.8,162.0 858.4,160.2 900.0,252.6 941.6,237.5 983.2,238.7 1024.8,240.0 1066.4,236.7 1108.0,234.6 1108.0,234.8 1066.4,236.9 1024.8,240.2 983.2,238.9 941.6,237.7 900.0,252.8 858.4,160.4 816.8,162.2 775.2,161.6 733.6,160.7 692.0,281.4 650.4,283.6 608.8,292.4 567.2,289.8 525.6,296.3 484.0,302.6 442.4,317.9 400.8,317.6 359.2,328.1 317.6,334.1 276.0,332.6 234.4,337.9 192.8,333.3 151.2,358.5 109.6,357.5 68.0,344.3" fill="#bcbddc" fill-opacity="0.9" stroke="#fff" stroke-width="0.4"><title>module_link — performMandatoryEarlyInlining</title></polygon>
<polygon points="68.0,343.7 109.6,357.0 151.2,358.0 192.8,332.8 234.4,337.4 276.0,332.1 317.6,333.6 359.2,327.6 400.8,317.1 442.4,317.3 484.0,302.1 525.6,295.7 567.2,289.3 608.8,291.8 650.4,283.0 692.0,280.8 733.6,160.2 775.2,161.0 816.8,161.7 858.4,159.9 900.0,252.3 941.6,237.2 983.2,238.4 1024.8,239.7 1066.4,236.4 1108.0,234.3 1108.0,234.6 1066.4,236.7 1024.8,240.0 983.2,238.7 941.6,237.5 900.0,252.6 858.4,160.2 816.8,162.0 775.2,161.4 733.6,160.5 692.0,281.1 650.4,283.4 608.8,292.1 567.2,289.6 525.6,296.0 484.0,302.4 442.4,317.6 400.8,317.4 359.2,327.9 317.6,333.9 276.0,332.4 234.4,337.7 192.8,333.1 151.2,358.3 109.6,357.3 68.0,344.0" fill="#dadaeb" fill-opacity="0.9" stroke="#fff" stroke-width="0.4"><title>module_link — performForceInlining</title></polygon>
<polygon points="68.0,334.9 109.6,348.3 151.2,349.3 192.8,323.5 234.4,327.8 276.0,322.4 317.6,323.2 359.2,317.5 400.8,307.1 442.4,307.4 484.0,291.4 525.6,284.8 567.2,278.4 608.8,280.9 650.4,271.2 692.0,269.3 733.6,136.5 775.2,136.9 816.8,137.2 858.4,135.8 900.0,234.3 941.6,218.8 983.2,220.1 1024.8,221.2 1066.4,217.9 1108.0,214.4 1108.0,234.3 1066.4,236.4 1024.8,239.7 983.2,238.4 941.6,237.2 900.0,252.3 858.4,159.9 816.8,161.7 775.2,161.0 733.6,160.2 692.0,280.8 650.4,283.0 608.8,291.8 567.2,289.3 525.6,295.7 484.0,302.1 442.4,317.3 400.8,317.1 359.2,327.6 317.6,333.6 276.0,332.1 234.4,337.4 192.8,332.8 151.2,358.0 109.6,357.0 68.0,343.7" fill="#4a1486" fill-opacity="0.9" stroke="#fff" stroke-width="0.4"><title>module_link — linkAndOptimizeIR (self)</title></polygon>
<polygon points="68.0,306.8 109.6,320.4 151.2,321.0 192.8,297.8 234.4,305.7 276.0,300.3 317.6,302.2 359.2,296.6 400.8,286.0 442.4,286.3 484.0,269.6 525.6,263.8 567.2,256.8 608.8,259.6 650.4,249.1 692.0,247.1 733.6,113.9 775.2,114.2 816.8,113.6 858.4,113.3 900.0,212.2 941.6,196.1 983.2,197.3 1024.8,198.2 1066.4,194.8 1108.0,191.3 1108.0,214.4 1066.4,217.9 1024.8,221.2 983.2,220.1 941.6,218.8 900.0,234.3 858.4,135.8 816.8,137.2 775.2,136.9 733.6,136.5 692.0,269.3 650.4,271.2 608.8,280.9 567.2,278.4 525.6,284.8 484.0,291.4 442.4,307.4 400.8,307.1 359.2,317.5 317.6,323.2 276.0,322.4 234.4,327.8 192.8,323.5 151.2,349.3 109.6,348.3 68.0,334.9" fill="#e6550d" fill-opacity="0.9" stroke="#fff" stroke-width="0.4"><title>module_link — generateOutput (self)</title></polygon>
<polygon points="68.0,305.4 109.6,319.5 151.2,320.3 192.8,296.3 234.4,305.1 276.0,299.5 317.6,301.3 359.2,295.5 400.8,284.8 442.4,285.2 484.0,268.2 525.6,262.7 567.2,255.5 608.8,258.4 650.4,246.9 692.0,246.2 733.6,111.4 775.2,112.5 816.8,108.6 858.4,111.6 900.0,212.2 941.6,195.2 983.2,195.8 1024.8,197.5 1066.4,193.7 1108.0,190.5 1108.0,191.3 1066.4,194.8 1024.8,198.2 983.2,197.3 941.6,196.1 900.0,212.2 858.4,113.3 816.8,113.6 775.2,114.2 733.6,113.9 692.0,247.1 650.4,249.1 608.8,259.6 567.2,256.8 525.6,263.8 484.0,269.6 442.4,286.3 400.8,286.0 359.2,296.6 317.6,302.2 276.0,300.3 234.4,305.7 192.8,297.8 151.2,321.0 109.6,320.4 68.0,306.8" fill="#969696" fill-opacity="0.9" stroke="#fff" stroke-width="0.4"><title>module_link — compileInner (self)</title></polygon>
<text x="12" y="578" fill="#666" font-weight="600">phase buckets</text>
<rect x="12" y="586" width="12" height="12" fill="#c7e9c0"/>
<text x="28" y="596" fill="#222">parseTranslationUnit</text>
<rect x="289" y="586" width="12" height="12" fill="#41ab5d"/>
<text x="305" y="596" fill="#222">SemanticChecking</text>
<rect x="566" y="586" width="12" height="12" fill="#006d2c"/>
<text x="582" y="596" fill="#222">generateIR</text>
<rect x="843" y="586" width="12" height="12" fill="#74c476"/>
<text x="859" y="596" fill="#222">frontEndExecute (self)</text>
<rect x="12" y="604" width="12" height="12" fill="#6baed6"/>
<text x="28" y="614" fill="#222">specializeModule</text>
<rect x="289" y="604" width="12" height="12" fill="#2171b5"/>
<text x="305" y="614" fill="#222">simplifyIR</text>
<rect x="566" y="604" width="12" height="12" fill="#08306b"/>
<text x="582" y="614" fill="#222">linkIR</text>
<rect x="843" y="604" width="12" height="12" fill="#9e9ac8"/>
<text x="859" y="614" fill="#222">unrollLoopsInModule</text>
<rect x="12" y="622" width="12" height="12" fill="#807dba"/>
<text x="28" y="632" fill="#222">legalizeResourceTypes</text>
<rect x="289" y="622" width="12" height="12" fill="#6a51a3"/>
<text x="305" y="632" fill="#222">legalizeExistentialTypeLayout</text>
<rect x="566" y="622" width="12" height="12" fill="#bcbddc"/>
<text x="582" y="632" fill="#222">performMandatoryEarlyInlining</text>
<rect x="843" y="622" width="12" height="12" fill="#dadaeb"/>
<text x="859" y="632" fill="#222">performForceInlining</text>
<rect x="12" y="640" width="12" height="12" fill="#4a1486"/>
<text x="28" y="650" fill="#222">linkAndOptimizeIR (self)</text>
<rect x="289" y="640" width="12" height="12" fill="#fd8d3c"/>
<text x="305" y="650" fill="#222">emitEntryPointsSourceFromIR</text>
<rect x="566" y="640" width="12" height="12" fill="#e6550d"/>
<text x="582" y="650" fill="#222">generateOutput (self)</text>
<rect x="843" y="640" width="12" height="12" fill="#969696"/>
<text x="859" y="650" fill="#222">compileInner (self)</text>
</svg>