<svg xmlns="http://www.w3.org/2000/svg" xmlns:xlink="http://www.w3.org/1999/xlink" width="1132" height="680" viewBox="0 0 1132 680" preserveAspectRatio="xMidYMid meet" font-family="sans-serif" font-size="13">
<rect width="1132" height="680" fill="white"/>
<text x="12" y="30" font-size="20" font-weight="bold">operator_typecheck — Daily tip-of-tree (last 30 days) (median ms)</text>
<text x="68" y="60" font-size="15" font-weight="600" fill="#1a1a1a">operator_typecheck<tspan fill="#888" font-weight="400" text-decoration="none">  0.89×</tspan></text>
<line x1="68.0" y1="516.0" x2="1108.0" y2="516.0" stroke="#eee"/>
<text x="64.0" y="519.0" text-anchor="end" fill="#999">0.0</text>
<line x1="68.0" y1="296.0" x2="1108.0" y2="296.0" stroke="#eee"/>
<text x="64.0" y="299.0" text-anchor="end" fill="#999">104</text>
<line x1="68.0" y1="76.0" x2="1108.0" y2="76.0" stroke="#eee"/>
<text x="64.0" y="79.0" text-anchor="end" fill="#999">208</text>
<line x1="68.0" y1="76.0" x2="68.0" y2="516.0" stroke="#333"/>
<line x1="68.0" y1="516.0" x2="1108.0" y2="516.0" stroke="#333"/>
<line x1="68.0" y1="516.0" x2="68.0" y2="519.0" stroke="#999"/>
<text x="68.0" y="531.0" text-anchor="end" fill="#e8731a" transform="rotate(-50 68.0 531.0)">06-25</text>
<line x1="122.7" y1="516.0" x2="122.7" y2="519.0" stroke="#999"/>
<text x="122.7" y="531.0" text-anchor="end" fill="#e8731a" transform="rotate(-50 122.7 531.0)">06-26</text>
<line x1="177.5" y1="516.0" x2="177.5" y2="519.0" stroke="#999"/>
<text x="177.5" y="531.0" text-anchor="end" fill="#e8731a" transform="rotate(-50 177.5 531.0)">06-28</text>
<line x1="232.2" y1="516.0" x2="232.2" y2="519.0" stroke="#999"/>
<text x="232.2" y="531.0" text-anchor="end" fill="#e8731a" transform="rotate(-50 232.2 531.0)">07-01</text>
<line x1="286.9" y1="516.0" x2="286.9" y2="519.0" stroke="#999"/>
<text x="286.9" y="531.0" text-anchor="end" fill="#e8731a" transform="rotate(-50 286.9 531.0)">07-02</text>
<line x1="341.7" y1="516.0" x2="341.7" y2="519.0" stroke="#999"/>
<text x="341.7" y="531.0" text-anchor="end" fill="#e8731a" transform="rotate(-50 341.7 531.0)">07-03</text>
<line x1="396.4" y1="516.0" x2="396.4" y2="519.0" stroke="#999"/>
<text x="396.4" y="531.0" text-anchor="end" fill="#e8731a" transform="rotate(-50 396.4 531.0)">07-06</text>
<line x1="451.2" y1="516.0" x2="451.2" y2="519.0" stroke="#999"/>
<text x="451.2" y="531.0" text-anchor="end" fill="#e8731a" transform="rotate(-50 451.2 531.0)">07-07</text>
<line x1="505.9" y1="516.0" x2="505.9" y2="519.0" stroke="#999"/>
<text x="505.9" y="531.0" text-anchor="end" fill="#e8731a" transform="rotate(-50 505.9 531.0)">07-08</text>
<line x1="560.6" y1="516.0" x2="560.6" y2="519.0" stroke="#999"/>
<text x="560.6" y="531.0" text-anchor="end" fill="#e8731a" transform="rotate(-50 560.6 531.0)">07-09</text>
<line x1="615.4" y1="516.0" x2="615.4" y2="519.0" stroke="#999"/>
<text x="615.4" y="531.0" text-anchor="end" fill="#e8731a" transform="rotate(-50 615.4 531.0)">07-10</text>
<line x1="670.1" y1="516.0" x2="670.1" y2="519.0" stroke="#999"/>
<text x="670.1" y="531.0" text-anchor="end" fill="#e8731a" transform="rotate(-50 670.1 531.0)">07-11</text>
<line x1="724.8" y1="516.0" x2="724.8" y2="519.0" stroke="#999"/>
<text x="724.8" y="531.0" text-anchor="end" fill="#e8731a" transform="rotate(-50 724.8 531.0)">07-14</text>
<line x1="779.6" y1="516.0" x2="779.6" y2="519.0" stroke="#999"/>
<text x="779.6" y="531.0" text-anchor="end" fill="#e8731a" transform="rotate(-50 779.6 531.0)">07-15</text>
<line x1="834.3" y1="516.0" x2="834.3" y2="519.0" stroke="#999"/>
<text x="834.3" y="531.0" text-anchor="end" fill="#e8731a" transform="rotate(-50 834.3 531.0)">07-15</text>
<line x1="889.1" y1="516.0" x2="889.1" y2="519.0" stroke="#999"/>
<text x="889.1" y="531.0" text-anchor="end" fill="#e8731a" transform="rotate(-50 889.1 531.0)">07-16</text>
<line x1="943.8" y1="516.0" x2="943.8" y2="519.0" stroke="#999"/>
<text x="943.8" y="531.0" text-anchor="end" fill="#e8731a" transform="rotate(-50 943.8 531.0)">07-17</text>
<line x1="998.5" y1="516.0" x2="998.5" y2="519.0" stroke="#999"/>
<text x="998.5" y="531.0" text-anchor="end" fill="#e8731a" transform="rotate(-50 998.5 531.0)">07-18</text>
<line x1="1053.3" y1="516.0" x2="1053.3" y2="519.0" stroke="#999"/>
<text x="1053.3" y="531.0" text-anchor="end" fill="#e8731a" transform="rotate(-50 1053.3 531.0)">07-19</text>
<line x1="1108.0" y1="516.0" x2="1108.0" y2="519.0" stroke="#999"/>
<text x="1108.0" y="531.0" text-anchor="end" fill="#e8731a" transform="rotate(-50 1108.0 531.0)">07-20</text>
<polygon points="68.0,493.4 122.7,493.8 177.5,493.4 232.2,493.3 286.9,492.1 341.7,493.3 396.4,492.9 451.2,495.5 505.9,495.4 560.6,495.7 615.4,495.1 670.1,494.8 724.8,495.6 779.6,496.5 834.3,496.7 889.1,496.8 943.8,496.8 998.5,498.5 1053.3,499.0 1108.0,498.5 1108.0,516.0 1053.3,516.0 998.5,516.0 943.8,516.0 889.1,516.0 834.3,516.0 779.6,516.0 724.8,516.0 670.1,516.0 615.4,516.0 560.6,516.0 505.9,516.0 451.2,516.0 396.4,516.0 341.7,516.0 286.9,516.0 232.2,516.0 177.5,516.0 122.7,516.0 68.0,516.0" fill="#c7e9c0" fill-opacity="0.9" stroke="#fff" stroke-width="0.4"><title>operator_typecheck — parseTranslationUnit</title></polygon>
<polygon points="68.0,331.1 122.7,328.2 177.5,334.1 232.2,329.7 286.9,326.3 341.7,328.9 396.4,330.4 451.2,333.7 505.9,334.5 560.6,325.3 615.4,333.1 670.1,328.6 724.8,333.0 779.6,347.6 834.3,348.5 889.1,330.3 943.8,330.6 998.5,349.7 1053.3,350.1 1108.0,350.5 1108.0,498.5 1053.3,499.0 998.5,498.5 943.8,496.8 889.1,496.8 834.3,496.7 779.6,496.5 724.8,495.6 670.1,494.8 615.4,495.1 560.6,495.7 505.9,495.4 451.2,495.5 396.4,492.9 341.7,493.3 286.9,492.1 232.2,493.3 177.5,493.4 122.7,493.8 68.0,493.4" fill="#41ab5d" fill-opacity="0.9" stroke="#fff" stroke-width="0.4"><title>operator_typecheck — SemanticChecking</title></polygon>
<polygon points="68.0,179.6 122.7,176.5 177.5,183.2 232.2,178.8 286.9,171.7 341.7,177.1 396.4,179.4 451.2,184.4 505.9,182.1 560.6,173.0 615.4,180.6 670.1,176.8 724.8,180.0 779.6,201.6 834.3,202.8 889.1,185.0 943.8,185.3 998.5,219.1 1053.3,219.7 1108.0,221.8 1108.0,350.5 1053.3,350.1 998.5,349.7 943.8,330.6 889.1,330.3 834.3,348.5 779.6,347.6 724.8,333.0 670.1,328.6 615.4,333.1 560.6,325.3 505.9,334.5 451.2,333.7 396.4,330.4 341.7,328.9 286.9,326.3 232.2,329.7 177.5,334.1 122.7,328.2 68.0,331.1" fill="#006d2c" fill-opacity="0.9" stroke="#fff" stroke-width="0.4"><title>operator_typecheck — generateIR</title></polygon>
<polygon points="68.0,177.5 122.7,172.8 177.5,183.2 232.2,178.8 286.9,166.9 341.7,176.6 396.4,176.2 451.2,183.9 505.9,181.0 560.6,173.0 615.4,180.0 670.1,172.8 724.8,179.3 779.6,201.1 834.3,202.3 889.1,184.8 943.8,184.8 998.5,218.9 1053.3,217.3 1108.0,221.3 1108.0,221.8 1053.3,219.7 998.5,219.1 943.8,185.3 889.1,185.0 834.3,202.8 779.6,201.6 724.8,180.0 670.1,176.8 615.4,180.6 560.6,173.0 505.9,182.1 451.2,184.4 396.4,179.4 341.7,177.1 286.9,171.7 232.2,178.8 177.5,183.2 122.7,176.5 68.0,179.6" fill="#74c476" fill-opacity="0.9" stroke="#fff" stroke-width="0.4"><title>operator_typecheck — frontEndExecute (self)</title></polygon>
<polygon points="68.0,124.2 122.7,118.9 177.5,124.5 232.2,125.9 286.9,108.6 341.7,121.7 396.4,122.3 451.2,127.8 505.9,122.7 560.6,119.3 615.4,126.3 670.1,111.3 724.8,118.2 779.6,139.9 834.3,140.9 889.1,123.5 943.8,122.5 998.5,163.1 1053.3,164.4 1108.0,170.3 1108.0,221.3 1053.3,217.3 998.5,218.9 943.8,184.8 889.1,184.8 834.3,202.3 779.6,201.1 724.8,179.3 670.1,172.8 615.4,180.0 560.6,173.0 505.9,181.0 451.2,183.9 396.4,176.2 341.7,176.6 286.9,166.9 232.2,178.8 177.5,183.2 122.7,172.8 68.0,177.5" fill="#e6550d" fill-opacity="0.9" stroke="#fff" stroke-width="0.4"><title>operator_typecheck — generateOutput (self)</title></polygon>
<polygon points="68.0,123.9 122.7,118.6 177.5,124.5 232.2,123.2 286.9,108.6 341.7,121.7 396.4,121.9 451.2,127.6 505.9,122.7 560.6,119.3 615.4,126.3 670.1,111.0 724.8,116.3 779.6,138.6 834.3,140.9 889.1,123.5 943.8,122.1 998.5,162.5 1053.3,164.4 1108.0,167.2 1108.0,170.3 1053.3,164.4 998.5,163.1 943.8,122.5 889.1,123.5 834.3,140.9 779.6,139.9 724.8,118.2 670.1,111.3 615.4,126.3 560.6,119.3 505.9,122.7 451.2,127.8 396.4,122.3 341.7,121.7 286.9,108.6 232.2,125.9 177.5,124.5 122.7,118.9 68.0,124.2" fill="#969696" fill-opacity="0.9" stroke="#fff" stroke-width="0.4"><title>operator_typecheck — compileInner (self)</title></polygon>
<text x="12" y="578" fill="#666" font-weight="600">phase buckets</text>
<rect x="12" y="586" width="12" height="12" fill="#c7e9c0"/>
<text x="28" y="596" fill="#222">parseTranslationUnit</text>
<rect x="289" y="586" width="12" height="12" fill="#41ab5d"/>
<text x="305" y="596" fill="#222">SemanticChecking</text>
<rect x="566" y="586" width="12" height="12" fill="#006d2c"/>
<text x="582" y="596" fill="#222">generateIR</text>
<rect x="843" y="586" width="12" height="12" fill="#74c476"/>
<text x="859" y="596" fill="#222">frontEndExecute (self)</text>
<rect x="12" y="604" width="12" height="12" fill="#6baed6"/>
<text x="28" y="614" fill="#222">specializeModule</text>
<rect x="289" y="604" width="12" height="12" fill="#2171b5"/>
<text x="305" y="614" fill="#222">simplifyIR</text>
<rect x="566" y="604" width="12" height="12" fill="#08306b"/>
<text x="582" y="614" fill="#222">linkIR</text>
<rect x="843" y="604" width="12" height="12" fill="#9e9ac8"/>
<text x="859" y="614" fill="#222">unrollLoopsInModule</text>
<rect x="12" y="622" width="12" height="12" fill="#807dba"/>
<text x="28" y="632" fill="#222">legalizeResourceTypes</text>
<rect x="289" y="622" width="12" height="12" fill="#6a51a3"/>
<text x="305" y="632" fill="#222">legalizeExistentialTypeLayout</text>
<rect x="566" y="622" width="12" height="12" fill="#bcbddc"/>
<text x="582" y="632" fill="#222">performMandatoryEarlyInlining</text>
<rect x="843" y="622" width="12" height="12" fill="#dadaeb"/>
<text x="859" y="632" fill="#222">performForceInlining</text>
<rect x="12" y="640" width="12" height="12" fill="#4a1486"/>
<text x="28" y="650" fill="#222">linkAndOptimizeIR (self)</text>
<rect x="289" y="640" width="12" height="12" fill="#fd8d3c"/>
<text x="305" y="650" fill="#222">emitEntryPointsSourceFromIR</text>
<rect x="566" y="640" width="12" height="12" fill="#e6550d"/>
<text x="582" y="650" fill="#222">generateOutput (self)</text>
<rect x="843" y="640" width="12" height="12" fill="#969696"/>
<text x="859" y="650" fill="#222">compileInner (self)</text>
</svg>