<svg xmlns="http://www.w3.org/2000/svg" xmlns:xlink="http://www.w3.org/1999/xlink" width="1132" height="680" viewBox="0 0 1132 680" preserveAspectRatio="xMidYMid meet" font-family="sans-serif" font-size="13">
<rect width="1132" height="680" fill="white"/>
<text x="12" y="30" font-size="20" font-weight="bold">operator_typecheck — Daily tip-of-tree (last 30 days) (median ms)</text>
<text x="68" y="60" font-size="15" font-weight="600" fill="#1a1a1a">operator_typecheck<tspan fill="#888" font-weight="400" text-decoration="none">  0.88×</tspan></text>
<line x1="68.0" y1="516.0" x2="1108.0" y2="516.0" stroke="#eee"/>
<text x="64.0" y="519.0" text-anchor="end" fill="#999">0.0</text>
<line x1="68.0" y1="296.0" x2="1108.0" y2="296.0" stroke="#eee"/>
<text x="64.0" y="299.0" text-anchor="end" fill="#999">104</text>
<line x1="68.0" y1="76.0" x2="1108.0" y2="76.0" stroke="#eee"/>
<text x="64.0" y="79.0" text-anchor="end" fill="#999">208</text>
<line x1="68.0" y1="76.0" x2="68.0" y2="516.0" stroke="#333"/>
<line x1="68.0" y1="516.0" x2="1108.0" y2="516.0" stroke="#333"/>
<line x1="68.0" y1="516.0" x2="68.0" y2="519.0" stroke="#999"/>
<text x="68.0" y="531.0" text-anchor="end" fill="#e8731a" transform="rotate(-50 68.0 531.0)">06-25</text>
<line x1="117.5" y1="516.0" x2="117.5" y2="519.0" stroke="#999"/>
<text x="117.5" y="531.0" text-anchor="end" fill="#e8731a" transform="rotate(-50 117.5 531.0)">06-26</text>
<line x1="167.0" y1="516.0" x2="167.0" y2="519.0" stroke="#999"/>
<text x="167.0" y="531.0" text-anchor="end" fill="#e8731a" transform="rotate(-50 167.0 531.0)">06-28</text>
<line x1="216.6" y1="516.0" x2="216.6" y2="519.0" stroke="#999"/>
<text x="216.6" y="531.0" text-anchor="end" fill="#e8731a" transform="rotate(-50 216.6 531.0)">07-01</text>
<line x1="266.1" y1="516.0" x2="266.1" y2="519.0" stroke="#999"/>
<text x="266.1" y="531.0" text-anchor="end" fill="#e8731a" transform="rotate(-50 266.1 531.0)">07-02</text>
<line x1="315.6" y1="516.0" x2="315.6" y2="519.0" stroke="#999"/>
<text x="315.6" y="531.0" text-anchor="end" fill="#e8731a" transform="rotate(-50 315.6 531.0)">07-03</text>
<line x1="365.1" y1="516.0" x2="365.1" y2="519.0" stroke="#999"/>
<text x="365.1" y="531.0" text-anchor="end" fill="#e8731a" transform="rotate(-50 365.1 531.0)">07-06</text>
<line x1="414.7" y1="516.0" x2="414.7" y2="519.0" stroke="#999"/>
<text x="414.7" y="531.0" text-anchor="end" fill="#e8731a" transform="rotate(-50 414.7 531.0)">07-07</text>
<line x1="464.2" y1="516.0" x2="464.2" y2="519.0" stroke="#999"/>
<text x="464.2" y="531.0" text-anchor="end" fill="#e8731a" transform="rotate(-50 464.2 531.0)">07-08</text>
<line x1="513.7" y1="516.0" x2="513.7" y2="519.0" stroke="#999"/>
<text x="513.7" y="531.0" text-anchor="end" fill="#e8731a" transform="rotate(-50 513.7 531.0)">07-09</text>
<line x1="563.2" y1="516.0" x2="563.2" y2="519.0" stroke="#999"/>
<text x="563.2" y="531.0" text-anchor="end" fill="#e8731a" transform="rotate(-50 563.2 531.0)">07-10</text>
<line x1="612.8" y1="516.0" x2="612.8" y2="519.0" stroke="#999"/>
<text x="612.8" y="531.0" text-anchor="end" fill="#e8731a" transform="rotate(-50 612.8 531.0)">07-11</text>
<line x1="662.3" y1="516.0" x2="662.3" y2="519.0" stroke="#999"/>
<text x="662.3" y="531.0" text-anchor="end" fill="#e8731a" transform="rotate(-50 662.3 531.0)">07-14</text>
<line x1="711.8" y1="516.0" x2="711.8" y2="519.0" stroke="#999"/>
<text x="711.8" y="531.0" text-anchor="end" fill="#e8731a" transform="rotate(-50 711.8 531.0)">07-15</text>
<line x1="761.3" y1="516.0" x2="761.3" y2="519.0" stroke="#999"/>
<text x="761.3" y="531.0" text-anchor="end" fill="#e8731a" transform="rotate(-50 761.3 531.0)">07-15</text>
<line x1="810.9" y1="516.0" x2="810.9" y2="519.0" stroke="#999"/>
<text x="810.9" y="531.0" text-anchor="end" fill="#e8731a" transform="rotate(-50 810.9 531.0)">07-16</text>
<line x1="860.4" y1="516.0" x2="860.4" y2="519.0" stroke="#999"/>
<text x="860.4" y="531.0" text-anchor="end" fill="#e8731a" transform="rotate(-50 860.4 531.0)">07-17</text>
<line x1="909.9" y1="516.0" x2="909.9" y2="519.0" stroke="#999"/>
<text x="909.9" y="531.0" text-anchor="end" fill="#e8731a" transform="rotate(-50 909.9 531.0)">07-18</text>
<line x1="959.4" y1="516.0" x2="959.4" y2="519.0" stroke="#999"/>
<text x="959.4" y="531.0" text-anchor="end" fill="#e8731a" transform="rotate(-50 959.4 531.0)">07-19</text>
<line x1="1009.0" y1="516.0" x2="1009.0" y2="519.0" stroke="#999"/>
<text x="1009.0" y="531.0" text-anchor="end" fill="#e8731a" transform="rotate(-50 1009.0 531.0)">07-20</text>
<line x1="1058.5" y1="516.0" x2="1058.5" y2="519.0" stroke="#999"/>
<text x="1058.5" y="531.0" text-anchor="end" fill="#e8731a" transform="rotate(-50 1058.5 531.0)">07-21</text>
<line x1="1108.0" y1="516.0" x2="1108.0" y2="519.0" stroke="#999"/>
<text x="1108.0" y="531.0" text-anchor="end" fill="#e8731a" transform="rotate(-50 1108.0 531.0)">07-22</text>
<polygon points="68.0,493.4 117.5,493.8 167.0,493.4 216.6,493.3 266.1,492.1 315.6,493.3 365.1,492.9 414.7,495.5 464.2,495.4 513.7,495.7 563.2,495.1 612.8,494.8 662.3,495.6 711.8,496.5 761.3,496.7 810.9,496.8 860.4,496.8 909.9,498.5 959.4,499.0 1009.0,498.5 1058.5,498.9 1108.0,499.0 1108.0,516.0 1058.5,516.0 1009.0,516.0 959.4,516.0 909.9,516.0 860.4,516.0 810.9,516.0 761.3,516.0 711.8,516.0 662.3,516.0 612.8,516.0 563.2,516.0 513.7,516.0 464.2,516.0 414.7,516.0 365.1,516.0 315.6,516.0 266.1,516.0 216.6,516.0 167.0,516.0 117.5,516.0 68.0,516.0" fill="#c7e9c0" fill-opacity="0.9" stroke="#fff" stroke-width="0.4"><title>operator_typecheck — parseTranslationUnit</title></polygon>
<polygon points="68.0,331.1 117.5,328.2 167.0,334.1 216.6,329.7 266.1,326.3 315.6,328.9 365.1,330.4 414.7,333.7 464.2,334.5 513.7,325.3 563.2,333.1 612.8,328.6 662.3,333.0 711.8,347.6 761.3,348.5 810.9,330.3 860.4,330.6 909.9,349.7 959.4,350.1 1009.0,350.5 1058.5,351.0 1108.0,349.4 1108.0,499.0 1058.5,498.9 1009.0,498.5 959.4,499.0 909.9,498.5 860.4,496.8 810.9,496.8 761.3,496.7 711.8,496.5 662.3,495.6 612.8,494.8 563.2,495.1 513.7,495.7 464.2,495.4 414.7,495.5 365.1,492.9 315.6,493.3 266.1,492.1 216.6,493.3 167.0,493.4 117.5,493.8 68.0,493.4" fill="#41ab5d" fill-opacity="0.9" stroke="#fff" stroke-width="0.4"><title>operator_typecheck — SemanticChecking</title></polygon>
<polygon points="68.0,179.6 117.5,176.5 167.0,183.2 216.6,178.8 266.1,171.7 315.6,177.1 365.1,179.4 414.7,184.4 464.2,182.1 513.7,173.0 563.2,180.6 612.8,176.8 662.3,180.0 711.8,201.6 761.3,202.8 810.9,185.0 860.4,185.3 909.9,219.1 959.4,219.7 1009.0,221.8 1058.5,221.1 1108.0,221.0 1108.0,349.4 1058.5,351.0 1009.0,350.5 959.4,350.1 909.9,349.7 860.4,330.6 810.9,330.3 761.3,348.5 711.8,347.6 662.3,333.0 612.8,328.6 563.2,333.1 513.7,325.3 464.2,334.5 414.7,333.7 365.1,330.4 315.6,328.9 266.1,326.3 216.6,329.7 167.0,334.1 117.5,328.2 68.0,331.1" fill="#006d2c" fill-opacity="0.9" stroke="#fff" stroke-width="0.4"><title>operator_typecheck — generateIR</title></polygon>
<polygon points="68.0,177.5 117.5,172.8 167.0,183.2 216.6,178.8 266.1,166.9 315.6,176.6 365.1,176.2 414.7,183.9 464.2,181.0 513.7,173.0 563.2,180.0 612.8,172.8 662.3,179.3 711.8,201.1 761.3,202.3 810.9,184.8 860.4,184.8 909.9,218.9 959.4,217.3 1009.0,221.3 1058.5,220.7 1108.0,221.0 1108.0,221.0 1058.5,221.1 1009.0,221.8 959.4,219.7 909.9,219.1 860.4,185.3 810.9,185.0 761.3,202.8 711.8,201.6 662.3,180.0 612.8,176.8 563.2,180.6 513.7,173.0 464.2,182.1 414.7,184.4 365.1,179.4 315.6,177.1 266.1,171.7 216.6,178.8 167.0,183.2 117.5,176.5 68.0,179.6" fill="#74c476" fill-opacity="0.9" stroke="#fff" stroke-width="0.4"><title>operator_typecheck — frontEndExecute (self)</title></polygon>
<polygon points="68.0,124.2 117.5,118.9 167.0,124.5 216.6,125.9 266.1,108.6 315.6,121.7 365.1,122.3 414.7,127.8 464.2,122.7 513.7,119.3 563.2,126.3 612.8,111.3 662.3,118.2 711.8,139.9 761.3,140.9 810.9,123.5 860.4,122.5 909.9,163.1 959.4,164.4 1009.0,170.3 1058.5,171.0 1108.0,170.8 1108.0,221.0 1058.5,220.7 1009.0,221.3 959.4,217.3 909.9,218.9 860.4,184.8 810.9,184.8 761.3,202.3 711.8,201.1 662.3,179.3 612.8,172.8 563.2,180.0 513.7,173.0 464.2,181.0 414.7,183.9 365.1,176.2 315.6,176.6 266.1,166.9 216.6,178.8 167.0,183.2 117.5,172.8 68.0,177.5" fill="#e6550d" fill-opacity="0.9" stroke="#fff" stroke-width="0.4"><title>operator_typecheck — generateOutput (self)</title></polygon>
<polygon points="68.0,123.9 117.5,118.6 167.0,124.5 216.6,123.2 266.1,108.6 315.6,121.7 365.1,121.9 414.7,127.6 464.2,122.7 513.7,119.3 563.2,126.3 612.8,111.0 662.3,116.3 711.8,138.6 761.3,140.9 810.9,123.5 860.4,122.1 909.9,162.5 959.4,164.4 1009.0,167.2 1058.5,171.0 1108.0,170.8 1108.0,170.8 1058.5,171.0 1009.0,170.3 959.4,164.4 909.9,163.1 860.4,122.5 810.9,123.5 761.3,140.9 711.8,139.9 662.3,118.2 612.8,111.3 563.2,126.3 513.7,119.3 464.2,122.7 414.7,127.8 365.1,122.3 315.6,121.7 266.1,108.6 216.6,125.9 167.0,124.5 117.5,118.9 68.0,124.2" fill="#969696" fill-opacity="0.9" stroke="#fff" stroke-width="0.4"><title>operator_typecheck — compileInner (self)</title></polygon>
<text x="12" y="578" fill="#666" font-weight="600">phase buckets</text>
<rect x="12" y="586" width="12" height="12" fill="#c7e9c0"/>
<text x="28" y="596" fill="#222">parseTranslationUnit</text>
<rect x="289" y="586" width="12" height="12" fill="#41ab5d"/>
<text x="305" y="596" fill="#222">SemanticChecking</text>
<rect x="566" y="586" width="12" height="12" fill="#006d2c"/>
<text x="582" y="596" fill="#222">generateIR</text>
<rect x="843" y="586" width="12" height="12" fill="#74c476"/>
<text x="859" y="596" fill="#222">frontEndExecute (self)</text>
<rect x="12" y="604" width="12" height="12" fill="#6baed6"/>
<text x="28" y="614" fill="#222">specializeModule</text>
<rect x="289" y="604" width="12" height="12" fill="#2171b5"/>
<text x="305" y="614" fill="#222">simplifyIR</text>
<rect x="566" y="604" width="12" height="12" fill="#08306b"/>
<text x="582" y="614" fill="#222">linkIR</text>
<rect x="843" y="604" width="12" height="12" fill="#9e9ac8"/>
<text x="859" y="614" fill="#222">unrollLoopsInModule</text>
<rect x="12" y="622" width="12" height="12" fill="#807dba"/>
<text x="28" y="632" fill="#222">legalizeResourceTypes</text>
<rect x="289" y="622" width="12" height="12" fill="#6a51a3"/>
<text x="305" y="632" fill="#222">legalizeExistentialTypeLayout</text>
<rect x="566" y="622" width="12" height="12" fill="#bcbddc"/>
<text x="582" y="632" fill="#222">performMandatoryEarlyInlining</text>
<rect x="843" y="622" width="12" height="12" fill="#dadaeb"/>
<text x="859" y="632" fill="#222">performForceInlining</text>
<rect x="12" y="640" width="12" height="12" fill="#4a1486"/>
<text x="28" y="650" fill="#222">linkAndOptimizeIR (self)</text>
<rect x="289" y="640" width="12" height="12" fill="#fd8d3c"/>
<text x="305" y="650" fill="#222">emitEntryPointsSourceFromIR</text>
<rect x="566" y="640" width="12" height="12" fill="#e6550d"/>
<text x="582" y="650" fill="#222">generateOutput (self)</text>
<rect x="843" y="640" width="12" height="12" fill="#969696"/>
<text x="859" y="650" fill="#222">compileInner (self)</text>
</svg>