<svg xmlns="http://www.w3.org/2000/svg" xmlns:xlink="http://www.w3.org/1999/xlink" width="1132" height="680" viewBox="0 0 1132 680" preserveAspectRatio="xMidYMid meet" font-family="sans-serif" font-size="13">
<rect width="1132" height="680" fill="white"/>
<text x="12" y="30" font-size="20" font-weight="bold">operator_typecheck — Daily tip-of-tree (last 30 days) (median ms)</text>
<text x="68" y="60" font-size="15" font-weight="600" fill="#1a1a1a">operator_typecheck<tspan fill="#888" font-weight="400" text-decoration="none">  0.90×</tspan></text>
<line x1="68.0" y1="516.0" x2="1108.0" y2="516.0" stroke="#eee"/>
<text x="64.0" y="519.0" text-anchor="end" fill="#999">0.0</text>
<line x1="68.0" y1="296.0" x2="1108.0" y2="296.0" stroke="#eee"/>
<text x="64.0" y="299.0" text-anchor="end" fill="#999">104</text>
<line x1="68.0" y1="76.0" x2="1108.0" y2="76.0" stroke="#eee"/>
<text x="64.0" y="79.0" text-anchor="end" fill="#999">208</text>
<line x1="68.0" y1="76.0" x2="68.0" y2="516.0" stroke="#333"/>
<line x1="68.0" y1="516.0" x2="1108.0" y2="516.0" stroke="#333"/>
<line x1="68.0" y1="516.0" x2="68.0" y2="519.0" stroke="#999"/>
<text x="68.0" y="531.0" text-anchor="end" fill="#e8731a" transform="rotate(-50 68.0 531.0)">06-25</text>
<line x1="125.8" y1="516.0" x2="125.8" y2="519.0" stroke="#999"/>
<text x="125.8" y="531.0" text-anchor="end" fill="#e8731a" transform="rotate(-50 125.8 531.0)">06-26</text>
<line x1="183.6" y1="516.0" x2="183.6" y2="519.0" stroke="#999"/>
<text x="183.6" y="531.0" text-anchor="end" fill="#e8731a" transform="rotate(-50 183.6 531.0)">06-28</text>
<line x1="241.3" y1="516.0" x2="241.3" y2="519.0" stroke="#999"/>
<text x="241.3" y="531.0" text-anchor="end" fill="#e8731a" transform="rotate(-50 241.3 531.0)">07-01</text>
<line x1="299.1" y1="516.0" x2="299.1" y2="519.0" stroke="#999"/>
<text x="299.1" y="531.0" text-anchor="end" fill="#e8731a" transform="rotate(-50 299.1 531.0)">07-02</text>
<line x1="356.9" y1="516.0" x2="356.9" y2="519.0" stroke="#999"/>
<text x="356.9" y="531.0" text-anchor="end" fill="#e8731a" transform="rotate(-50 356.9 531.0)">07-03</text>
<line x1="414.7" y1="516.0" x2="414.7" y2="519.0" stroke="#999"/>
<text x="414.7" y="531.0" text-anchor="end" fill="#e8731a" transform="rotate(-50 414.7 531.0)">07-06</text>
<line x1="472.4" y1="516.0" x2="472.4" y2="519.0" stroke="#999"/>
<text x="472.4" y="531.0" text-anchor="end" fill="#e8731a" transform="rotate(-50 472.4 531.0)">07-07</text>
<line x1="530.2" y1="516.0" x2="530.2" y2="519.0" stroke="#999"/>
<text x="530.2" y="531.0" text-anchor="end" fill="#e8731a" transform="rotate(-50 530.2 531.0)">07-08</text>
<line x1="588.0" y1="516.0" x2="588.0" y2="519.0" stroke="#999"/>
<text x="588.0" y="531.0" text-anchor="end" fill="#e8731a" transform="rotate(-50 588.0 531.0)">07-09</text>
<line x1="645.8" y1="516.0" x2="645.8" y2="519.0" stroke="#999"/>
<text x="645.8" y="531.0" text-anchor="end" fill="#e8731a" transform="rotate(-50 645.8 531.0)">07-10</text>
<line x1="703.6" y1="516.0" x2="703.6" y2="519.0" stroke="#999"/>
<text x="703.6" y="531.0" text-anchor="end" fill="#e8731a" transform="rotate(-50 703.6 531.0)">07-11</text>
<line x1="761.3" y1="516.0" x2="761.3" y2="519.0" stroke="#999"/>
<text x="761.3" y="531.0" text-anchor="end" fill="#e8731a" transform="rotate(-50 761.3 531.0)">07-14</text>
<line x1="819.1" y1="516.0" x2="819.1" y2="519.0" stroke="#999"/>
<text x="819.1" y="531.0" text-anchor="end" fill="#e8731a" transform="rotate(-50 819.1 531.0)">07-15</text>
<line x1="876.9" y1="516.0" x2="876.9" y2="519.0" stroke="#999"/>
<text x="876.9" y="531.0" text-anchor="end" fill="#e8731a" transform="rotate(-50 876.9 531.0)">07-15</text>
<line x1="934.7" y1="516.0" x2="934.7" y2="519.0" stroke="#999"/>
<text x="934.7" y="531.0" text-anchor="end" fill="#e8731a" transform="rotate(-50 934.7 531.0)">07-16</text>
<line x1="992.4" y1="516.0" x2="992.4" y2="519.0" stroke="#999"/>
<text x="992.4" y="531.0" text-anchor="end" fill="#e8731a" transform="rotate(-50 992.4 531.0)">07-17</text>
<line x1="1050.2" y1="516.0" x2="1050.2" y2="519.0" stroke="#999"/>
<text x="1050.2" y="531.0" text-anchor="end" fill="#e8731a" transform="rotate(-50 1050.2 531.0)">07-18</text>
<line x1="1108.0" y1="516.0" x2="1108.0" y2="519.0" stroke="#999"/>
<text x="1108.0" y="531.0" text-anchor="end" fill="#e8731a" transform="rotate(-50 1108.0 531.0)">07-19</text>
<polygon points="68.0,493.4 125.8,493.8 183.6,493.4 241.3,493.3 299.1,492.1 356.9,493.3 414.7,492.9 472.4,495.5 530.2,495.4 588.0,495.7 645.8,495.1 703.6,494.8 761.3,495.6 819.1,496.5 876.9,496.7 934.7,496.8 992.4,496.8 1050.2,498.5 1108.0,499.0 1108.0,516.0 1050.2,516.0 992.4,516.0 934.7,516.0 876.9,516.0 819.1,516.0 761.3,516.0 703.6,516.0 645.8,516.0 588.0,516.0 530.2,516.0 472.4,516.0 414.7,516.0 356.9,516.0 299.1,516.0 241.3,516.0 183.6,516.0 125.8,516.0 68.0,516.0" fill="#c7e9c0" fill-opacity="0.9" stroke="#fff" stroke-width="0.4"><title>operator_typecheck — parseTranslationUnit</title></polygon>
<polygon points="68.0,331.1 125.8,328.2 183.6,334.1 241.3,329.7 299.1,326.3 356.9,328.9 414.7,330.4 472.4,333.7 530.2,334.5 588.0,325.3 645.8,333.1 703.6,328.6 761.3,333.0 819.1,347.6 876.9,348.5 934.7,330.3 992.4,330.6 1050.2,349.7 1108.0,350.1 1108.0,499.0 1050.2,498.5 992.4,496.8 934.7,496.8 876.9,496.7 819.1,496.5 761.3,495.6 703.6,494.8 645.8,495.1 588.0,495.7 530.2,495.4 472.4,495.5 414.7,492.9 356.9,493.3 299.1,492.1 241.3,493.3 183.6,493.4 125.8,493.8 68.0,493.4" fill="#41ab5d" fill-opacity="0.9" stroke="#fff" stroke-width="0.4"><title>operator_typecheck — SemanticChecking</title></polygon>
<polygon points="68.0,179.6 125.8,176.5 183.6,183.2 241.3,178.8 299.1,171.7 356.9,177.1 414.7,179.4 472.4,184.4 530.2,182.1 588.0,173.0 645.8,180.6 703.6,176.8 761.3,180.0 819.1,201.6 876.9,202.8 934.7,185.0 992.4,185.3 1050.2,219.1 1108.0,219.7 1108.0,350.1 1050.2,349.7 992.4,330.6 934.7,330.3 876.9,348.5 819.1,347.6 761.3,333.0 703.6,328.6 645.8,333.1 588.0,325.3 530.2,334.5 472.4,333.7 414.7,330.4 356.9,328.9 299.1,326.3 241.3,329.7 183.6,334.1 125.8,328.2 68.0,331.1" fill="#006d2c" fill-opacity="0.9" stroke="#fff" stroke-width="0.4"><title>operator_typecheck — generateIR</title></polygon>
<polygon points="68.0,177.5 125.8,172.8 183.6,183.2 241.3,178.8 299.1,166.9 356.9,176.6 414.7,176.2 472.4,183.9 530.2,181.0 588.0,173.0 645.8,180.0 703.6,172.8 761.3,179.3 819.1,201.1 876.9,202.3 934.7,184.8 992.4,184.8 1050.2,218.9 1108.0,217.3 1108.0,219.7 1050.2,219.1 992.4,185.3 934.7,185.0 876.9,202.8 819.1,201.6 761.3,180.0 703.6,176.8 645.8,180.6 588.0,173.0 530.2,182.1 472.4,184.4 414.7,179.4 356.9,177.1 299.1,171.7 241.3,178.8 183.6,183.2 125.8,176.5 68.0,179.6" fill="#74c476" fill-opacity="0.9" stroke="#fff" stroke-width="0.4"><title>operator_typecheck — frontEndExecute (self)</title></polygon>
<polygon points="68.0,124.2 125.8,118.9 183.6,124.5 241.3,125.9 299.1,108.6 356.9,121.7 414.7,122.3 472.4,127.8 530.2,122.7 588.0,119.3 645.8,126.3 703.6,111.3 761.3,118.2 819.1,139.9 876.9,140.9 934.7,123.5 992.4,122.5 1050.2,163.1 1108.0,164.4 1108.0,217.3 1050.2,218.9 992.4,184.8 934.7,184.8 876.9,202.3 819.1,201.1 761.3,179.3 703.6,172.8 645.8,180.0 588.0,173.0 530.2,181.0 472.4,183.9 414.7,176.2 356.9,176.6 299.1,166.9 241.3,178.8 183.6,183.2 125.8,172.8 68.0,177.5" fill="#e6550d" fill-opacity="0.9" stroke="#fff" stroke-width="0.4"><title>operator_typecheck — generateOutput (self)</title></polygon>
<polygon points="68.0,123.9 125.8,118.6 183.6,124.5 241.3,123.2 299.1,108.6 356.9,121.7 414.7,121.9 472.4,127.6 530.2,122.7 588.0,119.3 645.8,126.3 703.6,111.0 761.3,116.3 819.1,138.6 876.9,140.9 934.7,123.5 992.4,122.1 1050.2,162.5 1108.0,164.4 1108.0,164.4 1050.2,163.1 992.4,122.5 934.7,123.5 876.9,140.9 819.1,139.9 761.3,118.2 703.6,111.3 645.8,126.3 588.0,119.3 530.2,122.7 472.4,127.8 414.7,122.3 356.9,121.7 299.1,108.6 241.3,125.9 183.6,124.5 125.8,118.9 68.0,124.2" fill="#969696" fill-opacity="0.9" stroke="#fff" stroke-width="0.4"><title>operator_typecheck — compileInner (self)</title></polygon>
<text x="12" y="578" fill="#666" font-weight="600">phase buckets</text>
<rect x="12" y="586" width="12" height="12" fill="#c7e9c0"/>
<text x="28" y="596" fill="#222">parseTranslationUnit</text>
<rect x="289" y="586" width="12" height="12" fill="#41ab5d"/>
<text x="305" y="596" fill="#222">SemanticChecking</text>
<rect x="566" y="586" width="12" height="12" fill="#006d2c"/>
<text x="582" y="596" fill="#222">generateIR</text>
<rect x="843" y="586" width="12" height="12" fill="#74c476"/>
<text x="859" y="596" fill="#222">frontEndExecute (self)</text>
<rect x="12" y="604" width="12" height="12" fill="#6baed6"/>
<text x="28" y="614" fill="#222">specializeModule</text>
<rect x="289" y="604" width="12" height="12" fill="#2171b5"/>
<text x="305" y="614" fill="#222">simplifyIR</text>
<rect x="566" y="604" width="12" height="12" fill="#08306b"/>
<text x="582" y="614" fill="#222">linkIR</text>
<rect x="843" y="604" width="12" height="12" fill="#9e9ac8"/>
<text x="859" y="614" fill="#222">unrollLoopsInModule</text>
<rect x="12" y="622" width="12" height="12" fill="#807dba"/>
<text x="28" y="632" fill="#222">legalizeResourceTypes</text>
<rect x="289" y="622" width="12" height="12" fill="#6a51a3"/>
<text x="305" y="632" fill="#222">legalizeExistentialTypeLayout</text>
<rect x="566" y="622" width="12" height="12" fill="#bcbddc"/>
<text x="582" y="632" fill="#222">performMandatoryEarlyInlining</text>
<rect x="843" y="622" width="12" height="12" fill="#dadaeb"/>
<text x="859" y="632" fill="#222">performForceInlining</text>
<rect x="12" y="640" width="12" height="12" fill="#4a1486"/>
<text x="28" y="650" fill="#222">linkAndOptimizeIR (self)</text>
<rect x="289" y="640" width="12" height="12" fill="#fd8d3c"/>
<text x="305" y="650" fill="#222">emitEntryPointsSourceFromIR</text>
<rect x="566" y="640" width="12" height="12" fill="#e6550d"/>
<text x="582" y="650" fill="#222">generateOutput (self)</text>
<rect x="843" y="640" width="12" height="12" fill="#969696"/>
<text x="859" y="650" fill="#222">compileInner (self)</text>
</svg>