<svg xmlns="http://www.w3.org/2000/svg" xmlns:xlink="http://www.w3.org/1999/xlink" width="1132" height="680" viewBox="0 0 1132 680" preserveAspectRatio="xMidYMid meet" font-family="sans-serif" font-size="13">
<rect width="1132" height="680" fill="white"/>
<text x="12" y="30" font-size="20" font-weight="bold">operator_typecheck — Daily tip-of-tree (last 30 days) (median ms)</text>
<text x="68" y="60" font-size="15" font-weight="600" fill="#1a1a1a">operator_typecheck<tspan fill="#888" font-weight="400" text-decoration="none">  0.88×</tspan></text>
<line x1="68.0" y1="516.0" x2="1108.0" y2="516.0" stroke="#eee"/>
<text x="64.0" y="519.0" text-anchor="end" fill="#999">0.0</text>
<line x1="68.0" y1="296.0" x2="1108.0" y2="296.0" stroke="#eee"/>
<text x="64.0" y="299.0" text-anchor="end" fill="#999">104</text>
<line x1="68.0" y1="76.0" x2="1108.0" y2="76.0" stroke="#eee"/>
<text x="64.0" y="79.0" text-anchor="end" fill="#999">208</text>
<line x1="68.0" y1="76.0" x2="68.0" y2="516.0" stroke="#333"/>
<line x1="68.0" y1="516.0" x2="1108.0" y2="516.0" stroke="#333"/>
<line x1="68.0" y1="516.0" x2="68.0" y2="519.0" stroke="#999"/>
<text x="68.0" y="531.0" text-anchor="end" fill="#e8731a" transform="rotate(-50 68.0 531.0)">06-25</text>
<line x1="113.2" y1="516.0" x2="113.2" y2="519.0" stroke="#999"/>
<text x="113.2" y="531.0" text-anchor="end" fill="#e8731a" transform="rotate(-50 113.2 531.0)">06-26</text>
<line x1="158.4" y1="516.0" x2="158.4" y2="519.0" stroke="#999"/>
<text x="158.4" y="531.0" text-anchor="end" fill="#e8731a" transform="rotate(-50 158.4 531.0)">06-28</text>
<line x1="203.7" y1="516.0" x2="203.7" y2="519.0" stroke="#999"/>
<text x="203.7" y="531.0" text-anchor="end" fill="#e8731a" transform="rotate(-50 203.7 531.0)">07-01</text>
<line x1="248.9" y1="516.0" x2="248.9" y2="519.0" stroke="#999"/>
<text x="248.9" y="531.0" text-anchor="end" fill="#e8731a" transform="rotate(-50 248.9 531.0)">07-02</text>
<line x1="294.1" y1="516.0" x2="294.1" y2="519.0" stroke="#999"/>
<text x="294.1" y="531.0" text-anchor="end" fill="#e8731a" transform="rotate(-50 294.1 531.0)">07-03</text>
<line x1="339.3" y1="516.0" x2="339.3" y2="519.0" stroke="#999"/>
<text x="339.3" y="531.0" text-anchor="end" fill="#e8731a" transform="rotate(-50 339.3 531.0)">07-06</text>
<line x1="384.5" y1="516.0" x2="384.5" y2="519.0" stroke="#999"/>
<text x="384.5" y="531.0" text-anchor="end" fill="#e8731a" transform="rotate(-50 384.5 531.0)">07-07</text>
<line x1="429.7" y1="516.0" x2="429.7" y2="519.0" stroke="#999"/>
<text x="429.7" y="531.0" text-anchor="end" fill="#e8731a" transform="rotate(-50 429.7 531.0)">07-08</text>
<line x1="475.0" y1="516.0" x2="475.0" y2="519.0" stroke="#999"/>
<text x="475.0" y="531.0" text-anchor="end" fill="#e8731a" transform="rotate(-50 475.0 531.0)">07-09</text>
<line x1="520.2" y1="516.0" x2="520.2" y2="519.0" stroke="#999"/>
<text x="520.2" y="531.0" text-anchor="end" fill="#e8731a" transform="rotate(-50 520.2 531.0)">07-10</text>
<line x1="565.4" y1="516.0" x2="565.4" y2="519.0" stroke="#999"/>
<text x="565.4" y="531.0" text-anchor="end" fill="#e8731a" transform="rotate(-50 565.4 531.0)">07-11</text>
<line x1="610.6" y1="516.0" x2="610.6" y2="519.0" stroke="#999"/>
<text x="610.6" y="531.0" text-anchor="end" fill="#e8731a" transform="rotate(-50 610.6 531.0)">07-14</text>
<line x1="655.8" y1="516.0" x2="655.8" y2="519.0" stroke="#999"/>
<text x="655.8" y="531.0" text-anchor="end" fill="#e8731a" transform="rotate(-50 655.8 531.0)">07-15</text>
<line x1="701.0" y1="516.0" x2="701.0" y2="519.0" stroke="#999"/>
<text x="701.0" y="531.0" text-anchor="end" fill="#e8731a" transform="rotate(-50 701.0 531.0)">07-15</text>
<line x1="746.3" y1="516.0" x2="746.3" y2="519.0" stroke="#999"/>
<text x="746.3" y="531.0" text-anchor="end" fill="#e8731a" transform="rotate(-50 746.3 531.0)">07-16</text>
<line x1="791.5" y1="516.0" x2="791.5" y2="519.0" stroke="#999"/>
<text x="791.5" y="531.0" text-anchor="end" fill="#e8731a" transform="rotate(-50 791.5 531.0)">07-17</text>
<line x1="836.7" y1="516.0" x2="836.7" y2="519.0" stroke="#999"/>
<text x="836.7" y="531.0" text-anchor="end" fill="#e8731a" transform="rotate(-50 836.7 531.0)">07-18</text>
<line x1="881.9" y1="516.0" x2="881.9" y2="519.0" stroke="#999"/>
<text x="881.9" y="531.0" text-anchor="end" fill="#e8731a" transform="rotate(-50 881.9 531.0)">07-19</text>
<line x1="927.1" y1="516.0" x2="927.1" y2="519.0" stroke="#999"/>
<text x="927.1" y="531.0" text-anchor="end" fill="#e8731a" transform="rotate(-50 927.1 531.0)">07-20</text>
<line x1="972.3" y1="516.0" x2="972.3" y2="519.0" stroke="#999"/>
<text x="972.3" y="531.0" text-anchor="end" fill="#e8731a" transform="rotate(-50 972.3 531.0)">07-21</text>
<line x1="1017.6" y1="516.0" x2="1017.6" y2="519.0" stroke="#999"/>
<text x="1017.6" y="531.0" text-anchor="end" fill="#e8731a" transform="rotate(-50 1017.6 531.0)">07-22</text>
<line x1="1062.8" y1="516.0" x2="1062.8" y2="519.0" stroke="#999"/>
<text x="1062.8" y="531.0" text-anchor="end" fill="#e8731a" transform="rotate(-50 1062.8 531.0)">07-23</text>
<line x1="1108.0" y1="516.0" x2="1108.0" y2="519.0" stroke="#999"/>
<text x="1108.0" y="531.0" text-anchor="end" fill="#e8731a" transform="rotate(-50 1108.0 531.0)">07-24</text>
<polygon points="68.0,493.4 113.2,493.8 158.4,493.4 203.7,493.3 248.9,492.1 294.1,493.3 339.3,492.9 384.5,495.5 429.7,495.4 475.0,495.7 520.2,495.1 565.4,494.8 610.6,495.6 655.8,496.5 701.0,496.7 746.3,496.8 791.5,496.8 836.7,498.5 881.9,499.0 927.1,498.5 972.3,498.9 1017.6,499.0 1062.8,499.0 1108.0,498.9 1108.0,516.0 1062.8,516.0 1017.6,516.0 972.3,516.0 927.1,516.0 881.9,516.0 836.7,516.0 791.5,516.0 746.3,516.0 701.0,516.0 655.8,516.0 610.6,516.0 565.4,516.0 520.2,516.0 475.0,516.0 429.7,516.0 384.5,516.0 339.3,516.0 294.1,516.0 248.9,516.0 203.7,516.0 158.4,516.0 113.2,516.0 68.0,516.0" fill="#c7e9c0" fill-opacity="0.9" stroke="#fff" stroke-width="0.4"><title>operator_typecheck — parseTranslationUnit</title></polygon>
<polygon points="68.0,331.1 113.2,328.2 158.4,334.1 203.7,329.7 248.9,326.3 294.1,328.9 339.3,330.4 384.5,333.7 429.7,334.5 475.0,325.3 520.2,333.1 565.4,328.6 610.6,333.0 655.8,347.6 701.0,348.5 746.3,330.3 791.5,330.6 836.7,349.7 881.9,350.1 927.1,350.5 972.3,351.0 1017.6,349.4 1062.8,351.1 1108.0,351.4 1108.0,498.9 1062.8,499.0 1017.6,499.0 972.3,498.9 927.1,498.5 881.9,499.0 836.7,498.5 791.5,496.8 746.3,496.8 701.0,496.7 655.8,496.5 610.6,495.6 565.4,494.8 520.2,495.1 475.0,495.7 429.7,495.4 384.5,495.5 339.3,492.9 294.1,493.3 248.9,492.1 203.7,493.3 158.4,493.4 113.2,493.8 68.0,493.4" fill="#41ab5d" fill-opacity="0.9" stroke="#fff" stroke-width="0.4"><title>operator_typecheck — SemanticChecking</title></polygon>
<polygon points="68.0,179.6 113.2,176.5 158.4,183.2 203.7,178.8 248.9,171.7 294.1,177.1 339.3,179.4 384.5,184.4 429.7,182.1 475.0,173.0 520.2,180.6 565.4,176.8 610.6,180.0 655.8,201.6 701.0,202.8 746.3,185.0 791.5,185.3 836.7,219.1 881.9,219.7 927.1,221.8 972.3,221.1 1017.6,221.0 1062.8,222.4 1108.0,222.4 1108.0,351.4 1062.8,351.1 1017.6,349.4 972.3,351.0 927.1,350.5 881.9,350.1 836.7,349.7 791.5,330.6 746.3,330.3 701.0,348.5 655.8,347.6 610.6,333.0 565.4,328.6 520.2,333.1 475.0,325.3 429.7,334.5 384.5,333.7 339.3,330.4 294.1,328.9 248.9,326.3 203.7,329.7 158.4,334.1 113.2,328.2 68.0,331.1" fill="#006d2c" fill-opacity="0.9" stroke="#fff" stroke-width="0.4"><title>operator_typecheck — generateIR</title></polygon>
<polygon points="68.0,177.5 113.2,172.8 158.4,183.2 203.7,178.8 248.9,166.9 294.1,176.6 339.3,176.2 384.5,183.9 429.7,181.0 475.0,173.0 520.2,180.0 565.4,172.8 610.6,179.3 655.8,201.1 701.0,202.3 746.3,184.8 791.5,184.8 836.7,218.9 881.9,217.3 927.1,221.3 972.3,220.7 1017.6,221.0 1062.8,222.4 1108.0,222.0 1108.0,222.4 1062.8,222.4 1017.6,221.0 972.3,221.1 927.1,221.8 881.9,219.7 836.7,219.1 791.5,185.3 746.3,185.0 701.0,202.8 655.8,201.6 610.6,180.0 565.4,176.8 520.2,180.6 475.0,173.0 429.7,182.1 384.5,184.4 339.3,179.4 294.1,177.1 248.9,171.7 203.7,178.8 158.4,183.2 113.2,176.5 68.0,179.6" fill="#74c476" fill-opacity="0.9" stroke="#fff" stroke-width="0.4"><title>operator_typecheck — frontEndExecute (self)</title></polygon>
<polygon points="68.0,124.2 113.2,118.9 158.4,124.5 203.7,125.9 248.9,108.6 294.1,121.7 339.3,122.3 384.5,127.8 429.7,122.7 475.0,119.3 520.2,126.3 565.4,111.3 610.6,118.2 655.8,139.9 701.0,140.9 746.3,123.5 791.5,122.5 836.7,163.1 881.9,164.4 927.1,170.3 972.3,171.0 1017.6,170.8 1062.8,171.8 1108.0,171.4 1108.0,222.0 1062.8,222.4 1017.6,221.0 972.3,220.7 927.1,221.3 881.9,217.3 836.7,218.9 791.5,184.8 746.3,184.8 701.0,202.3 655.8,201.1 610.6,179.3 565.4,172.8 520.2,180.0 475.0,173.0 429.7,181.0 384.5,183.9 339.3,176.2 294.1,176.6 248.9,166.9 203.7,178.8 158.4,183.2 113.2,172.8 68.0,177.5" fill="#e6550d" fill-opacity="0.9" stroke="#fff" stroke-width="0.4"><title>operator_typecheck — generateOutput (self)</title></polygon>
<polygon points="68.0,123.9 113.2,118.6 158.4,124.5 203.7,123.2 248.9,108.6 294.1,121.7 339.3,121.9 384.5,127.6 429.7,122.7 475.0,119.3 520.2,126.3 565.4,111.0 610.6,116.3 655.8,138.6 701.0,140.9 746.3,123.5 791.5,122.1 836.7,162.5 881.9,164.4 927.1,167.2 972.3,171.0 1017.6,170.8 1062.8,171.8 1108.0,171.2 1108.0,171.4 1062.8,171.8 1017.6,170.8 972.3,171.0 927.1,170.3 881.9,164.4 836.7,163.1 791.5,122.5 746.3,123.5 701.0,140.9 655.8,139.9 610.6,118.2 565.4,111.3 520.2,126.3 475.0,119.3 429.7,122.7 384.5,127.8 339.3,122.3 294.1,121.7 248.9,108.6 203.7,125.9 158.4,124.5 113.2,118.9 68.0,124.2" fill="#969696" fill-opacity="0.9" stroke="#fff" stroke-width="0.4"><title>operator_typecheck — compileInner (self)</title></polygon>
<text x="12" y="578" fill="#666" font-weight="600">phase buckets</text>
<rect x="12" y="586" width="12" height="12" fill="#c7e9c0"/>
<text x="28" y="596" fill="#222">parseTranslationUnit</text>
<rect x="289" y="586" width="12" height="12" fill="#41ab5d"/>
<text x="305" y="596" fill="#222">SemanticChecking</text>
<rect x="566" y="586" width="12" height="12" fill="#006d2c"/>
<text x="582" y="596" fill="#222">generateIR</text>
<rect x="843" y="586" width="12" height="12" fill="#74c476"/>
<text x="859" y="596" fill="#222">frontEndExecute (self)</text>
<rect x="12" y="604" width="12" height="12" fill="#6baed6"/>
<text x="28" y="614" fill="#222">specializeModule</text>
<rect x="289" y="604" width="12" height="12" fill="#2171b5"/>
<text x="305" y="614" fill="#222">simplifyIR</text>
<rect x="566" y="604" width="12" height="12" fill="#08306b"/>
<text x="582" y="614" fill="#222">linkIR</text>
<rect x="843" y="604" width="12" height="12" fill="#9e9ac8"/>
<text x="859" y="614" fill="#222">unrollLoopsInModule</text>
<rect x="12" y="622" width="12" height="12" fill="#807dba"/>
<text x="28" y="632" fill="#222">legalizeResourceTypes</text>
<rect x="289" y="622" width="12" height="12" fill="#6a51a3"/>
<text x="305" y="632" fill="#222">legalizeExistentialTypeLayout</text>
<rect x="566" y="622" width="12" height="12" fill="#bcbddc"/>
<text x="582" y="632" fill="#222">performMandatoryEarlyInlining</text>
<rect x="843" y="622" width="12" height="12" fill="#dadaeb"/>
<text x="859" y="632" fill="#222">performForceInlining</text>
<rect x="12" y="640" width="12" height="12" fill="#4a1486"/>
<text x="28" y="650" fill="#222">linkAndOptimizeIR (self)</text>
<rect x="289" y="640" width="12" height="12" fill="#fd8d3c"/>
<text x="305" y="650" fill="#222">emitEntryPointsSourceFromIR</text>
<rect x="566" y="640" width="12" height="12" fill="#e6550d"/>
<text x="582" y="650" fill="#222">generateOutput (self)</text>
<rect x="843" y="640" width="12" height="12" fill="#969696"/>
<text x="859" y="650" fill="#222">compileInner (self)</text>
</svg>