<svg xmlns="http://www.w3.org/2000/svg" xmlns:xlink="http://www.w3.org/1999/xlink" width="1132" height="680" viewBox="0 0 1132 680" preserveAspectRatio="xMidYMid meet" font-family="sans-serif" font-size="13">
<rect width="1132" height="680" fill="white"/>
<text x="12" y="30" font-size="20" font-weight="bold">operator_typecheck — Daily tip-of-tree (last 30 days) (median ms)</text>
<text x="68" y="60" font-size="15" font-weight="600" fill="#1a1a1a">operator_typecheck<tspan fill="#888" font-weight="400" text-decoration="none">  1.00×</tspan></text>
<line x1="68.0" y1="516.0" x2="1108.0" y2="516.0" stroke="#eee"/>
<text x="64.0" y="519.0" text-anchor="end" fill="#999">0.0</text>
<line x1="68.0" y1="296.0" x2="1108.0" y2="296.0" stroke="#eee"/>
<text x="64.0" y="299.0" text-anchor="end" fill="#999">104</text>
<line x1="68.0" y1="76.0" x2="1108.0" y2="76.0" stroke="#eee"/>
<text x="64.0" y="79.0" text-anchor="end" fill="#999">208</text>
<line x1="68.0" y1="76.0" x2="68.0" y2="516.0" stroke="#333"/>
<line x1="68.0" y1="516.0" x2="1108.0" y2="516.0" stroke="#333"/>
<line x1="68.0" y1="516.0" x2="68.0" y2="519.0" stroke="#999"/>
<text x="68.0" y="531.0" text-anchor="end" fill="#e8731a" transform="rotate(-50 68.0 531.0)">06-25</text>
<line x1="133.0" y1="516.0" x2="133.0" y2="519.0" stroke="#999"/>
<text x="133.0" y="531.0" text-anchor="end" fill="#e8731a" transform="rotate(-50 133.0 531.0)">06-26</text>
<line x1="198.0" y1="516.0" x2="198.0" y2="519.0" stroke="#999"/>
<text x="198.0" y="531.0" text-anchor="end" fill="#e8731a" transform="rotate(-50 198.0 531.0)">06-28</text>
<line x1="263.0" y1="516.0" x2="263.0" y2="519.0" stroke="#999"/>
<text x="263.0" y="531.0" text-anchor="end" fill="#e8731a" transform="rotate(-50 263.0 531.0)">07-01</text>
<line x1="328.0" y1="516.0" x2="328.0" y2="519.0" stroke="#999"/>
<text x="328.0" y="531.0" text-anchor="end" fill="#e8731a" transform="rotate(-50 328.0 531.0)">07-02</text>
<line x1="393.0" y1="516.0" x2="393.0" y2="519.0" stroke="#999"/>
<text x="393.0" y="531.0" text-anchor="end" fill="#e8731a" transform="rotate(-50 393.0 531.0)">07-03</text>
<line x1="458.0" y1="516.0" x2="458.0" y2="519.0" stroke="#999"/>
<text x="458.0" y="531.0" text-anchor="end" fill="#e8731a" transform="rotate(-50 458.0 531.0)">07-06</text>
<line x1="523.0" y1="516.0" x2="523.0" y2="519.0" stroke="#999"/>
<text x="523.0" y="531.0" text-anchor="end" fill="#e8731a" transform="rotate(-50 523.0 531.0)">07-07</text>
<line x1="588.0" y1="516.0" x2="588.0" y2="519.0" stroke="#999"/>
<text x="588.0" y="531.0" text-anchor="end" fill="#e8731a" transform="rotate(-50 588.0 531.0)">07-08</text>
<line x1="653.0" y1="516.0" x2="653.0" y2="519.0" stroke="#999"/>
<text x="653.0" y="531.0" text-anchor="end" fill="#e8731a" transform="rotate(-50 653.0 531.0)">07-09</text>
<line x1="718.0" y1="516.0" x2="718.0" y2="519.0" stroke="#999"/>
<text x="718.0" y="531.0" text-anchor="end" fill="#e8731a" transform="rotate(-50 718.0 531.0)">07-10</text>
<line x1="783.0" y1="516.0" x2="783.0" y2="519.0" stroke="#999"/>
<text x="783.0" y="531.0" text-anchor="end" fill="#e8731a" transform="rotate(-50 783.0 531.0)">07-11</text>
<line x1="848.0" y1="516.0" x2="848.0" y2="519.0" stroke="#999"/>
<text x="848.0" y="531.0" text-anchor="end" fill="#e8731a" transform="rotate(-50 848.0 531.0)">07-14</text>
<line x1="913.0" y1="516.0" x2="913.0" y2="519.0" stroke="#999"/>
<text x="913.0" y="531.0" text-anchor="end" fill="#e8731a" transform="rotate(-50 913.0 531.0)">07-15</text>
<line x1="978.0" y1="516.0" x2="978.0" y2="519.0" stroke="#999"/>
<text x="978.0" y="531.0" text-anchor="end" fill="#e8731a" transform="rotate(-50 978.0 531.0)">07-15</text>
<line x1="1043.0" y1="516.0" x2="1043.0" y2="519.0" stroke="#999"/>
<text x="1043.0" y="531.0" text-anchor="end" fill="#e8731a" transform="rotate(-50 1043.0 531.0)">07-16</text>
<line x1="1108.0" y1="516.0" x2="1108.0" y2="519.0" stroke="#999"/>
<text x="1108.0" y="531.0" text-anchor="end" fill="#e8731a" transform="rotate(-50 1108.0 531.0)">07-17</text>
<polygon points="68.0,493.4 133.0,493.8 198.0,493.4 263.0,493.3 328.0,492.1 393.0,493.3 458.0,492.9 523.0,495.5 588.0,495.4 653.0,495.7 718.0,495.1 783.0,494.8 848.0,495.6 913.0,496.5 978.0,496.7 1043.0,496.8 1108.0,496.8 1108.0,516.0 1043.0,516.0 978.0,516.0 913.0,516.0 848.0,516.0 783.0,516.0 718.0,516.0 653.0,516.0 588.0,516.0 523.0,516.0 458.0,516.0 393.0,516.0 328.0,516.0 263.0,516.0 198.0,516.0 133.0,516.0 68.0,516.0" fill="#c7e9c0" fill-opacity="0.9" stroke="#fff" stroke-width="0.4"><title>operator_typecheck — parseTranslationUnit</title></polygon>
<polygon points="68.0,331.1 133.0,328.2 198.0,334.1 263.0,329.7 328.0,326.3 393.0,328.9 458.0,330.4 523.0,333.7 588.0,334.5 653.0,325.3 718.0,333.1 783.0,328.6 848.0,333.0 913.0,347.6 978.0,348.5 1043.0,330.3 1108.0,330.6 1108.0,496.8 1043.0,496.8 978.0,496.7 913.0,496.5 848.0,495.6 783.0,494.8 718.0,495.1 653.0,495.7 588.0,495.4 523.0,495.5 458.0,492.9 393.0,493.3 328.0,492.1 263.0,493.3 198.0,493.4 133.0,493.8 68.0,493.4" fill="#41ab5d" fill-opacity="0.9" stroke="#fff" stroke-width="0.4"><title>operator_typecheck — SemanticChecking</title></polygon>
<polygon points="68.0,179.6 133.0,176.5 198.0,183.2 263.0,178.8 328.0,171.7 393.0,177.1 458.0,179.4 523.0,184.4 588.0,182.1 653.0,173.0 718.0,180.6 783.0,176.8 848.0,180.0 913.0,201.6 978.0,202.8 1043.0,185.0 1108.0,185.3 1108.0,330.6 1043.0,330.3 978.0,348.5 913.0,347.6 848.0,333.0 783.0,328.6 718.0,333.1 653.0,325.3 588.0,334.5 523.0,333.7 458.0,330.4 393.0,328.9 328.0,326.3 263.0,329.7 198.0,334.1 133.0,328.2 68.0,331.1" fill="#006d2c" fill-opacity="0.9" stroke="#fff" stroke-width="0.4"><title>operator_typecheck — generateIR</title></polygon>
<polygon points="68.0,177.5 133.0,172.8 198.0,183.2 263.0,178.8 328.0,166.9 393.0,176.6 458.0,176.2 523.0,183.9 588.0,181.0 653.0,173.0 718.0,180.0 783.0,172.8 848.0,179.3 913.0,201.1 978.0,202.3 1043.0,184.8 1108.0,184.8 1108.0,185.3 1043.0,185.0 978.0,202.8 913.0,201.6 848.0,180.0 783.0,176.8 718.0,180.6 653.0,173.0 588.0,182.1 523.0,184.4 458.0,179.4 393.0,177.1 328.0,171.7 263.0,178.8 198.0,183.2 133.0,176.5 68.0,179.6" fill="#74c476" fill-opacity="0.9" stroke="#fff" stroke-width="0.4"><title>operator_typecheck — frontEndExecute (self)</title></polygon>
<polygon points="68.0,124.2 133.0,118.9 198.0,124.5 263.0,125.9 328.0,108.6 393.0,121.7 458.0,122.3 523.0,127.8 588.0,122.7 653.0,119.3 718.0,126.3 783.0,111.3 848.0,118.2 913.0,139.9 978.0,140.9 1043.0,123.5 1108.0,122.5 1108.0,184.8 1043.0,184.8 978.0,202.3 913.0,201.1 848.0,179.3 783.0,172.8 718.0,180.0 653.0,173.0 588.0,181.0 523.0,183.9 458.0,176.2 393.0,176.6 328.0,166.9 263.0,178.8 198.0,183.2 133.0,172.8 68.0,177.5" fill="#e6550d" fill-opacity="0.9" stroke="#fff" stroke-width="0.4"><title>operator_typecheck — generateOutput (self)</title></polygon>
<polygon points="68.0,123.9 133.0,118.6 198.0,124.5 263.0,123.2 328.0,108.6 393.0,121.7 458.0,121.9 523.0,127.6 588.0,122.7 653.0,119.3 718.0,126.3 783.0,111.0 848.0,116.3 913.0,138.6 978.0,140.9 1043.0,123.5 1108.0,122.1 1108.0,122.5 1043.0,123.5 978.0,140.9 913.0,139.9 848.0,118.2 783.0,111.3 718.0,126.3 653.0,119.3 588.0,122.7 523.0,127.8 458.0,122.3 393.0,121.7 328.0,108.6 263.0,125.9 198.0,124.5 133.0,118.9 68.0,124.2" fill="#969696" fill-opacity="0.9" stroke="#fff" stroke-width="0.4"><title>operator_typecheck — compileInner (self)</title></polygon>
<text x="12" y="578" fill="#666" font-weight="600">phase buckets</text>
<rect x="12" y="586" width="12" height="12" fill="#c7e9c0"/>
<text x="28" y="596" fill="#222">parseTranslationUnit</text>
<rect x="289" y="586" width="12" height="12" fill="#41ab5d"/>
<text x="305" y="596" fill="#222">SemanticChecking</text>
<rect x="566" y="586" width="12" height="12" fill="#006d2c"/>
<text x="582" y="596" fill="#222">generateIR</text>
<rect x="843" y="586" width="12" height="12" fill="#74c476"/>
<text x="859" y="596" fill="#222">frontEndExecute (self)</text>
<rect x="12" y="604" width="12" height="12" fill="#6baed6"/>
<text x="28" y="614" fill="#222">specializeModule</text>
<rect x="289" y="604" width="12" height="12" fill="#2171b5"/>
<text x="305" y="614" fill="#222">simplifyIR</text>
<rect x="566" y="604" width="12" height="12" fill="#08306b"/>
<text x="582" y="614" fill="#222">linkIR</text>
<rect x="843" y="604" width="12" height="12" fill="#9e9ac8"/>
<text x="859" y="614" fill="#222">unrollLoopsInModule</text>
<rect x="12" y="622" width="12" height="12" fill="#807dba"/>
<text x="28" y="632" fill="#222">legalizeResourceTypes</text>
<rect x="289" y="622" width="12" height="12" fill="#6a51a3"/>
<text x="305" y="632" fill="#222">legalizeExistentialTypeLayout</text>
<rect x="566" y="622" width="12" height="12" fill="#bcbddc"/>
<text x="582" y="632" fill="#222">performMandatoryEarlyInlining</text>
<rect x="843" y="622" width="12" height="12" fill="#dadaeb"/>
<text x="859" y="632" fill="#222">performForceInlining</text>
<rect x="12" y="640" width="12" height="12" fill="#4a1486"/>
<text x="28" y="650" fill="#222">linkAndOptimizeIR (self)</text>
<rect x="289" y="640" width="12" height="12" fill="#fd8d3c"/>
<text x="305" y="650" fill="#222">emitEntryPointsSourceFromIR</text>
<rect x="566" y="640" width="12" height="12" fill="#e6550d"/>
<text x="582" y="650" fill="#222">generateOutput (self)</text>
<rect x="843" y="640" width="12" height="12" fill="#969696"/>
<text x="859" y="650" fill="#222">compileInner (self)</text>
</svg>