<svg xmlns="http://www.w3.org/2000/svg" xmlns:xlink="http://www.w3.org/1999/xlink" width="1132" height="680" viewBox="0 0 1132 680" preserveAspectRatio="xMidYMid meet" font-family="sans-serif" font-size="13">
<rect width="1132" height="680" fill="white"/>
<text x="12" y="30" font-size="20" font-weight="bold">operator_typecheck — full phase breakdown across releases (median ms)</text>
<text x="68" y="60" font-size="15" font-weight="600" fill="#1a1a1a">operator_typecheck<tspan fill="#888" font-weight="400" text-decoration="none">  0.43×</tspan></text>
<line x1="68.0" y1="516.0" x2="1108.0" y2="516.0" stroke="#eee"/>
<text x="64.0" y="519.0" text-anchor="end" fill="#999">0.0</text>
<line x1="68.0" y1="296.0" x2="1108.0" y2="296.0" stroke="#eee"/>
<text x="64.0" y="299.0" text-anchor="end" fill="#999">272</text>
<line x1="68.0" y1="76.0" x2="1108.0" y2="76.0" stroke="#eee"/>
<text x="64.0" y="79.0" text-anchor="end" fill="#999">545</text>
<line x1="68.0" y1="76.0" x2="68.0" y2="516.0" stroke="#333"/>
<line x1="68.0" y1="516.0" x2="1108.0" y2="516.0" stroke="#333"/>
<line x1="866.6" y1="76.0" x2="866.6" y2="516.0" stroke="#e8731a" stroke-width="1.2" stroke-dasharray="4 3"/>
<text x="869.6" y="87.0" fill="#e8731a" font-size="11">daily →</text>
<line x1="68.0" y1="516.0" x2="68.0" y2="519.0" stroke="#999"/>
<text x="68.0" y="531.0" text-anchor="end" fill="#666" transform="rotate(-50 68.0 531.0)">25.14</text>
<line x1="105.1" y1="516.0" x2="105.1" y2="519.0" stroke="#999"/>
<text x="105.1" y="531.0" text-anchor="end" fill="#666" transform="rotate(-50 105.1 531.0)">25.15</text>
<line x1="142.3" y1="516.0" x2="142.3" y2="519.0" stroke="#999"/>
<text x="142.3" y="531.0" text-anchor="end" fill="#666" transform="rotate(-50 142.3 531.0)">25.16</text>
<line x1="179.4" y1="516.0" x2="179.4" y2="519.0" stroke="#999"/>
<text x="179.4" y="531.0" text-anchor="end" fill="#666" transform="rotate(-50 179.4 531.0)">25.17</text>
<line x1="216.6" y1="516.0" x2="216.6" y2="519.0" stroke="#999"/>
<text x="216.6" y="531.0" text-anchor="end" fill="#666" transform="rotate(-50 216.6 531.0)">25.18</text>
<line x1="253.7" y1="516.0" x2="253.7" y2="519.0" stroke="#999"/>
<text x="253.7" y="531.0" text-anchor="end" fill="#666" transform="rotate(-50 253.7 531.0)">25.19</text>
<line x1="290.9" y1="516.0" x2="290.9" y2="519.0" stroke="#999"/>
<text x="290.9" y="531.0" text-anchor="end" fill="#666" transform="rotate(-50 290.9 531.0)">25.20</text>
<line x1="328.0" y1="516.0" x2="328.0" y2="519.0" stroke="#999"/>
<text x="328.0" y="531.0" text-anchor="end" fill="#666" transform="rotate(-50 328.0 531.0)">25.21</text>
<line x1="365.1" y1="516.0" x2="365.1" y2="519.0" stroke="#999"/>
<text x="365.1" y="531.0" text-anchor="end" fill="#666" transform="rotate(-50 365.1 531.0)">25.22</text>
<line x1="402.3" y1="516.0" x2="402.3" y2="519.0" stroke="#999"/>
<text x="402.3" y="531.0" text-anchor="end" fill="#666" transform="rotate(-50 402.3 531.0)">25.23</text>
<line x1="439.4" y1="516.0" x2="439.4" y2="519.0" stroke="#999"/>
<text x="439.4" y="531.0" text-anchor="end" fill="#666" transform="rotate(-50 439.4 531.0)">25.24</text>
<line x1="476.6" y1="516.0" x2="476.6" y2="519.0" stroke="#999"/>
<text x="476.6" y="531.0" text-anchor="end" fill="#666" transform="rotate(-50 476.6 531.0)">26.1</text>
<line x1="513.7" y1="516.0" x2="513.7" y2="519.0" stroke="#999"/>
<text x="513.7" y="531.0" text-anchor="end" fill="#666" transform="rotate(-50 513.7 531.0)">26.2</text>
<line x1="550.9" y1="516.0" x2="550.9" y2="519.0" stroke="#999"/>
<text x="550.9" y="531.0" text-anchor="end" fill="#666" transform="rotate(-50 550.9 531.0)">26.3</text>
<line x1="588.0" y1="516.0" x2="588.0" y2="519.0" stroke="#999"/>
<text x="588.0" y="531.0" text-anchor="end" fill="#666" transform="rotate(-50 588.0 531.0)">26.4</text>
<line x1="625.1" y1="516.0" x2="625.1" y2="519.0" stroke="#999"/>
<text x="625.1" y="531.0" text-anchor="end" fill="#666" transform="rotate(-50 625.1 531.0)">26.5</text>
<line x1="662.3" y1="516.0" x2="662.3" y2="519.0" stroke="#999"/>
<text x="662.3" y="531.0" text-anchor="end" fill="#666" transform="rotate(-50 662.3 531.0)">26.7</text>
<line x1="699.4" y1="516.0" x2="699.4" y2="519.0" stroke="#999"/>
<text x="699.4" y="531.0" text-anchor="end" fill="#666" transform="rotate(-50 699.4 531.0)">26.8</text>
<line x1="736.6" y1="516.0" x2="736.6" y2="519.0" stroke="#999"/>
<text x="736.6" y="531.0" text-anchor="end" fill="#666" transform="rotate(-50 736.6 531.0)">26.9</text>
<line x1="773.7" y1="516.0" x2="773.7" y2="519.0" stroke="#999"/>
<text x="773.7" y="531.0" text-anchor="end" fill="#666" transform="rotate(-50 773.7 531.0)">26.10</text>
<line x1="810.9" y1="516.0" x2="810.9" y2="519.0" stroke="#999"/>
<text x="810.9" y="531.0" text-anchor="end" fill="#666" transform="rotate(-50 810.9 531.0)">26.11</text>
<line x1="848.0" y1="516.0" x2="848.0" y2="519.0" stroke="#999"/>
<text x="848.0" y="531.0" text-anchor="end" fill="#666" transform="rotate(-50 848.0 531.0)">26.12</text>
<line x1="885.1" y1="516.0" x2="885.1" y2="519.0" stroke="#999"/>
<text x="885.1" y="531.0" text-anchor="end" fill="#e8731a" transform="rotate(-50 885.1 531.0)">06-25</text>
<line x1="922.3" y1="516.0" x2="922.3" y2="519.0" stroke="#999"/>
<text x="922.3" y="531.0" text-anchor="end" fill="#e8731a" transform="rotate(-50 922.3 531.0)">06-26</text>
<line x1="959.4" y1="516.0" x2="959.4" y2="519.0" stroke="#999"/>
<text x="959.4" y="531.0" text-anchor="end" fill="#e8731a" transform="rotate(-50 959.4 531.0)">06-28</text>
<line x1="996.6" y1="516.0" x2="996.6" y2="519.0" stroke="#999"/>
<text x="996.6" y="531.0" text-anchor="end" fill="#e8731a" transform="rotate(-50 996.6 531.0)">07-01</text>
<line x1="1033.7" y1="516.0" x2="1033.7" y2="519.0" stroke="#999"/>
<text x="1033.7" y="531.0" text-anchor="end" fill="#e8731a" transform="rotate(-50 1033.7 531.0)">07-02</text>
<line x1="1070.9" y1="516.0" x2="1070.9" y2="519.0" stroke="#999"/>
<text x="1070.9" y="531.0" text-anchor="end" fill="#e8731a" transform="rotate(-50 1070.9 531.0)">07-03</text>
<line x1="1108.0" y1="516.0" x2="1108.0" y2="519.0" stroke="#999"/>
<text x="1108.0" y="531.0" text-anchor="end" fill="#e8731a" transform="rotate(-50 1108.0 531.0)">07-07</text>
<polygon points="68.0,508.3 105.1,508.6 142.3,508.7 179.4,508.2 216.6,508.1 253.7,508.0 290.9,508.1 328.0,507.6 365.1,508.2 402.3,508.2 439.4,508.1 476.6,508.3 513.7,508.5 550.9,508.5 588.0,508.4 625.1,508.3 662.3,508.3 699.4,508.2 736.6,508.4 773.7,508.2 810.9,508.2 848.0,508.1 885.1,507.3 922.3,507.4 959.4,507.4 996.6,507.5 1033.7,507.5 1070.9,507.2 1108.0,507.1 1108.0,516.0 1070.9,516.0 1033.7,516.0 996.6,516.0 959.4,516.0 922.3,516.0 885.1,516.0 848.0,516.0 810.9,516.0 773.7,516.0 736.6,516.0 699.4,516.0 662.3,516.0 625.1,516.0 588.0,516.0 550.9,516.0 513.7,516.0 476.6,516.0 439.4,516.0 402.3,516.0 365.1,516.0 328.0,516.0 290.9,516.0 253.7,516.0 216.6,516.0 179.4,516.0 142.3,516.0 105.1,516.0 68.0,516.0" fill="#c7e9c0" fill-opacity="0.9" stroke="#fff" stroke-width="0.4"><title>operator_typecheck — parseTranslationUnit</title></polygon>
<polygon points="68.0,257.6 105.1,254.6 142.3,250.0 179.4,232.3 216.6,219.4 253.7,227.3 290.9,217.4 328.0,218.3 365.1,221.8 402.3,220.3 439.4,241.5 476.6,237.1 513.7,236.9 550.9,234.1 588.0,238.5 625.1,232.1 662.3,222.0 699.4,214.4 736.6,222.3 773.7,220.5 810.9,448.3 848.0,446.8 885.1,445.8 922.3,445.6 959.4,445.5 996.6,446.1 1033.7,445.5 1070.9,445.0 1108.0,444.8 1108.0,507.1 1070.9,507.2 1033.7,507.5 996.6,507.5 959.4,507.4 922.3,507.4 885.1,507.3 848.0,508.1 810.9,508.2 773.7,508.2 736.6,508.4 699.4,508.2 662.3,508.3 625.1,508.3 588.0,508.4 550.9,508.5 513.7,508.5 476.6,508.3 439.4,508.1 402.3,508.2 365.1,508.2 328.0,507.6 290.9,508.1 253.7,508.0 216.6,508.1 179.4,508.2 142.3,508.7 105.1,508.6 68.0,508.3" fill="#41ab5d" fill-opacity="0.9" stroke="#fff" stroke-width="0.4"><title>operator_typecheck — SemanticChecking</title></polygon>
<polygon points="68.0,182.4 105.1,184.1 142.3,175.6 179.4,157.9 216.6,135.3 253.7,141.6 290.9,128.7 328.0,135.6 365.1,137.4 402.3,142.2 439.4,169.1 476.6,166.6 513.7,165.7 550.9,161.3 588.0,172.1 625.1,158.9 662.3,141.2 699.4,126.9 736.6,135.7 773.7,136.7 810.9,394.9 848.0,392.9 885.1,388.5 922.3,387.7 959.4,388.3 996.6,389.6 1033.7,388.4 1070.9,386.5 1108.0,386.7 1108.0,444.8 1070.9,445.0 1033.7,445.5 996.6,446.1 959.4,445.5 922.3,445.6 885.1,445.8 848.0,446.8 810.9,448.3 773.7,220.5 736.6,222.3 699.4,214.4 662.3,222.0 625.1,232.1 588.0,238.5 550.9,234.1 513.7,236.9 476.6,237.1 439.4,241.5 402.3,220.3 365.1,221.8 328.0,218.3 290.9,217.4 253.7,227.3 216.6,219.4 179.4,232.3 142.3,250.0 105.1,254.6 68.0,257.6" fill="#006d2c" fill-opacity="0.9" stroke="#fff" stroke-width="0.4"><title>operator_typecheck — generateIR</title></polygon>
<polygon points="68.0,182.4 105.1,181.0 142.3,175.6 179.4,157.7 216.6,134.4 253.7,141.6 290.9,128.7 328.0,128.2 365.1,135.2 402.3,142.2 439.4,169.1 476.6,166.5 513.7,165.7 550.9,161.3 588.0,172.1 625.1,158.0 662.3,141.2 699.4,126.7 736.6,135.7 773.7,136.5 810.9,394.3 848.0,392.9 885.1,388.5 922.3,387.7 959.4,388.2 996.6,389.0 1033.7,387.6 1070.9,386.5 1108.0,386.7 1108.0,386.7 1070.9,386.5 1033.7,388.4 996.6,389.6 959.4,388.3 922.3,387.7 885.1,388.5 848.0,392.9 810.9,394.9 773.7,136.7 736.6,135.7 699.4,126.9 662.3,141.2 625.1,158.9 588.0,172.1 550.9,161.3 513.7,165.7 476.6,166.6 439.4,169.1 402.3,142.2 365.1,137.4 328.0,135.6 290.9,128.7 253.7,141.6 216.6,135.3 179.4,157.9 142.3,175.6 105.1,184.1 68.0,182.4" fill="#74c476" fill-opacity="0.9" stroke="#fff" stroke-width="0.4"><title>operator_typecheck — frontEndExecute (self)</title></polygon>
<polygon points="68.0,164.8 105.1,163.6 142.3,158.4 179.4,136.2 216.6,111.9 253.7,122.4 290.9,109.8 328.0,109.4 365.1,116.7 402.3,123.1 439.4,151.2 476.6,148.7 513.7,148.1 550.9,143.7 588.0,154.2 625.1,140.4 662.3,123.3 699.4,108.6 736.6,117.7 773.7,118.6 810.9,377.7 848.0,376.3 885.1,367.5 922.3,366.6 959.4,365.9 996.6,368.6 1033.7,365.7 1070.9,365.8 1108.0,366.2 1108.0,386.7 1070.9,386.5 1033.7,387.6 996.6,389.0 959.4,388.2 922.3,387.7 885.1,388.5 848.0,392.9 810.9,394.3 773.7,136.5 736.6,135.7 699.4,126.7 662.3,141.2 625.1,158.0 588.0,172.1 550.9,161.3 513.7,165.7 476.6,166.5 439.4,169.1 402.3,142.2 365.1,135.2 328.0,128.2 290.9,128.7 253.7,141.6 216.6,134.4 179.4,157.7 142.3,175.6 105.1,181.0 68.0,182.4" fill="#e6550d" fill-opacity="0.9" stroke="#fff" stroke-width="0.4"><title>operator_typecheck — generateOutput (self)</title></polygon>
<polygon points="68.0,164.8 105.1,163.6 142.3,158.4 179.4,136.2 216.6,111.9 253.7,122.4 290.9,109.6 328.0,109.4 365.1,116.7 402.3,123.1 439.4,151.2 476.6,148.0 513.7,147.7 550.9,143.7 588.0,153.6 625.1,140.3 662.3,123.1 699.4,108.6 736.6,117.0 773.7,118.6 810.9,377.7 848.0,376.3 885.1,367.5 922.3,365.6 959.4,365.9 996.6,367.1 1033.7,365.6 1070.9,365.7 1108.0,366.2 1108.0,366.2 1070.9,365.8 1033.7,365.7 996.6,368.6 959.4,365.9 922.3,366.6 885.1,367.5 848.0,376.3 810.9,377.7 773.7,118.6 736.6,117.7 699.4,108.6 662.3,123.3 625.1,140.4 588.0,154.2 550.9,143.7 513.7,148.1 476.6,148.7 439.4,151.2 402.3,123.1 365.1,116.7 328.0,109.4 290.9,109.8 253.7,122.4 216.6,111.9 179.4,136.2 142.3,158.4 105.1,163.6 68.0,164.8" fill="#969696" fill-opacity="0.9" stroke="#fff" stroke-width="0.4"><title>operator_typecheck — compileInner (self)</title></polygon>
<text x="12" y="578" fill="#666" font-weight="600">phase buckets</text>
<rect x="12" y="586" width="12" height="12" fill="#c7e9c0"/>
<text x="28" y="596" fill="#222">parseTranslationUnit</text>
<rect x="289" y="586" width="12" height="12" fill="#41ab5d"/>
<text x="305" y="596" fill="#222">SemanticChecking</text>
<rect x="566" y="586" width="12" height="12" fill="#006d2c"/>
<text x="582" y="596" fill="#222">generateIR</text>
<rect x="843" y="586" width="12" height="12" fill="#74c476"/>
<text x="859" y="596" fill="#222">frontEndExecute (self)</text>
<rect x="12" y="604" width="12" height="12" fill="#6baed6"/>
<text x="28" y="614" fill="#222">specializeModule</text>
<rect x="289" y="604" width="12" height="12" fill="#2171b5"/>
<text x="305" y="614" fill="#222">simplifyIR</text>
<rect x="566" y="604" width="12" height="12" fill="#08306b"/>
<text x="582" y="614" fill="#222">linkIR</text>
<rect x="843" y="604" width="12" height="12" fill="#9e9ac8"/>
<text x="859" y="614" fill="#222">unrollLoopsInModule</text>
<rect x="12" y="622" width="12" height="12" fill="#807dba"/>
<text x="28" y="632" fill="#222">legalizeResourceTypes</text>
<rect x="289" y="622" width="12" height="12" fill="#6a51a3"/>
<text x="305" y="632" fill="#222">legalizeExistentialTypeLayout</text>
<rect x="566" y="622" width="12" height="12" fill="#bcbddc"/>
<text x="582" y="632" fill="#222">performMandatoryEarlyInlining</text>
<rect x="843" y="622" width="12" height="12" fill="#dadaeb"/>
<text x="859" y="632" fill="#222">performForceInlining</text>
<rect x="12" y="640" width="12" height="12" fill="#4a1486"/>
<text x="28" y="650" fill="#222">linkAndOptimizeIR (self)</text>
<rect x="289" y="640" width="12" height="12" fill="#fd8d3c"/>
<text x="305" y="650" fill="#222">emitEntryPointsSourceFromIR</text>
<rect x="566" y="640" width="12" height="12" fill="#e6550d"/>
<text x="582" y="650" fill="#222">generateOutput (self)</text>
<rect x="843" y="640" width="12" height="12" fill="#969696"/>
<text x="859" y="650" fill="#222">compileInner (self)</text>
</svg>