<svg xmlns="http://www.w3.org/2000/svg" xmlns:xlink="http://www.w3.org/1999/xlink" width="1132" height="680" viewBox="0 0 1132 680" preserveAspectRatio="xMidYMid meet" font-family="sans-serif" font-size="13">
<rect width="1132" height="680" fill="white"/>
<text x="12" y="30" font-size="20" font-weight="bold">operator_typecheck — full phase breakdown across releases (median ms)</text>
<text x="68" y="60" font-size="15" font-weight="600" fill="#1a1a1a">operator_typecheck<tspan fill="#888" font-weight="400" text-decoration="none">  0.43×</tspan></text>
<line x1="68.0" y1="516.0" x2="1108.0" y2="516.0" stroke="#eee"/>
<text x="64.0" y="519.0" text-anchor="end" fill="#999">0.0</text>
<line x1="68.0" y1="296.0" x2="1108.0" y2="296.0" stroke="#eee"/>
<text x="64.0" y="299.0" text-anchor="end" fill="#999">272</text>
<line x1="68.0" y1="76.0" x2="1108.0" y2="76.0" stroke="#eee"/>
<text x="64.0" y="79.0" text-anchor="end" fill="#999">545</text>
<line x1="68.0" y1="76.0" x2="68.0" y2="516.0" stroke="#333"/>
<line x1="68.0" y1="516.0" x2="1108.0" y2="516.0" stroke="#333"/>
<line x1="789.3" y1="76.0" x2="789.3" y2="516.0" stroke="#e8731a" stroke-width="1.2" stroke-dasharray="4 3"/>
<text x="792.3" y="87.0" fill="#e8731a" font-size="11">daily →</text>
<line x1="68.0" y1="516.0" x2="68.0" y2="519.0" stroke="#999"/>
<text x="68.0" y="531.0" text-anchor="end" fill="#666" transform="rotate(-50 68.0 531.0)">25.14</text>
<line x1="101.5" y1="516.0" x2="101.5" y2="519.0" stroke="#999"/>
<text x="101.5" y="531.0" text-anchor="end" fill="#666" transform="rotate(-50 101.5 531.0)">25.15</text>
<line x1="135.1" y1="516.0" x2="135.1" y2="519.0" stroke="#999"/>
<text x="135.1" y="531.0" text-anchor="end" fill="#666" transform="rotate(-50 135.1 531.0)">25.16</text>
<line x1="168.6" y1="516.0" x2="168.6" y2="519.0" stroke="#999"/>
<text x="168.6" y="531.0" text-anchor="end" fill="#666" transform="rotate(-50 168.6 531.0)">25.17</text>
<line x1="202.2" y1="516.0" x2="202.2" y2="519.0" stroke="#999"/>
<text x="202.2" y="531.0" text-anchor="end" fill="#666" transform="rotate(-50 202.2 531.0)">25.18</text>
<line x1="235.7" y1="516.0" x2="235.7" y2="519.0" stroke="#999"/>
<text x="235.7" y="531.0" text-anchor="end" fill="#666" transform="rotate(-50 235.7 531.0)">25.19</text>
<line x1="269.3" y1="516.0" x2="269.3" y2="519.0" stroke="#999"/>
<text x="269.3" y="531.0" text-anchor="end" fill="#666" transform="rotate(-50 269.3 531.0)">25.20</text>
<line x1="302.8" y1="516.0" x2="302.8" y2="519.0" stroke="#999"/>
<text x="302.8" y="531.0" text-anchor="end" fill="#666" transform="rotate(-50 302.8 531.0)">25.21</text>
<line x1="336.4" y1="516.0" x2="336.4" y2="519.0" stroke="#999"/>
<text x="336.4" y="531.0" text-anchor="end" fill="#666" transform="rotate(-50 336.4 531.0)">25.22</text>
<line x1="369.9" y1="516.0" x2="369.9" y2="519.0" stroke="#999"/>
<text x="369.9" y="531.0" text-anchor="end" fill="#666" transform="rotate(-50 369.9 531.0)">25.23</text>
<line x1="403.5" y1="516.0" x2="403.5" y2="519.0" stroke="#999"/>
<text x="403.5" y="531.0" text-anchor="end" fill="#666" transform="rotate(-50 403.5 531.0)">25.24</text>
<line x1="437.0" y1="516.0" x2="437.0" y2="519.0" stroke="#999"/>
<text x="437.0" y="531.0" text-anchor="end" fill="#666" transform="rotate(-50 437.0 531.0)">26.1</text>
<line x1="470.6" y1="516.0" x2="470.6" y2="519.0" stroke="#999"/>
<text x="470.6" y="531.0" text-anchor="end" fill="#666" transform="rotate(-50 470.6 531.0)">26.2</text>
<line x1="504.1" y1="516.0" x2="504.1" y2="519.0" stroke="#999"/>
<text x="504.1" y="531.0" text-anchor="end" fill="#666" transform="rotate(-50 504.1 531.0)">26.3</text>
<line x1="537.7" y1="516.0" x2="537.7" y2="519.0" stroke="#999"/>
<text x="537.7" y="531.0" text-anchor="end" fill="#666" transform="rotate(-50 537.7 531.0)">26.4</text>
<line x1="571.2" y1="516.0" x2="571.2" y2="519.0" stroke="#999"/>
<text x="571.2" y="531.0" text-anchor="end" fill="#666" transform="rotate(-50 571.2 531.0)">26.5</text>
<line x1="604.8" y1="516.0" x2="604.8" y2="519.0" stroke="#999"/>
<text x="604.8" y="531.0" text-anchor="end" fill="#666" transform="rotate(-50 604.8 531.0)">26.7</text>
<line x1="638.3" y1="516.0" x2="638.3" y2="519.0" stroke="#999"/>
<text x="638.3" y="531.0" text-anchor="end" fill="#666" transform="rotate(-50 638.3 531.0)">26.8</text>
<line x1="671.9" y1="516.0" x2="671.9" y2="519.0" stroke="#999"/>
<text x="671.9" y="531.0" text-anchor="end" fill="#666" transform="rotate(-50 671.9 531.0)">26.9</text>
<line x1="705.4" y1="516.0" x2="705.4" y2="519.0" stroke="#999"/>
<text x="705.4" y="531.0" text-anchor="end" fill="#666" transform="rotate(-50 705.4 531.0)">26.10</text>
<line x1="739.0" y1="516.0" x2="739.0" y2="519.0" stroke="#999"/>
<text x="739.0" y="531.0" text-anchor="end" fill="#666" transform="rotate(-50 739.0 531.0)">26.11</text>
<line x1="772.5" y1="516.0" x2="772.5" y2="519.0" stroke="#999"/>
<text x="772.5" y="531.0" text-anchor="end" fill="#666" transform="rotate(-50 772.5 531.0)">26.12</text>
<line x1="806.1" y1="516.0" x2="806.1" y2="519.0" stroke="#999"/>
<text x="806.1" y="531.0" text-anchor="end" fill="#e8731a" transform="rotate(-50 806.1 531.0)">06-25</text>
<line x1="839.6" y1="516.0" x2="839.6" y2="519.0" stroke="#999"/>
<text x="839.6" y="531.0" text-anchor="end" fill="#e8731a" transform="rotate(-50 839.6 531.0)">06-26</text>
<line x1="873.2" y1="516.0" x2="873.2" y2="519.0" stroke="#999"/>
<text x="873.2" y="531.0" text-anchor="end" fill="#e8731a" transform="rotate(-50 873.2 531.0)">06-28</text>
<line x1="906.7" y1="516.0" x2="906.7" y2="519.0" stroke="#999"/>
<text x="906.7" y="531.0" text-anchor="end" fill="#e8731a" transform="rotate(-50 906.7 531.0)">07-01</text>
<line x1="940.3" y1="516.0" x2="940.3" y2="519.0" stroke="#999"/>
<text x="940.3" y="531.0" text-anchor="end" fill="#e8731a" transform="rotate(-50 940.3 531.0)">07-02</text>
<line x1="973.8" y1="516.0" x2="973.8" y2="519.0" stroke="#999"/>
<text x="973.8" y="531.0" text-anchor="end" fill="#e8731a" transform="rotate(-50 973.8 531.0)">07-03</text>
<line x1="1007.4" y1="516.0" x2="1007.4" y2="519.0" stroke="#999"/>
<text x="1007.4" y="531.0" text-anchor="end" fill="#e8731a" transform="rotate(-50 1007.4 531.0)">07-03</text>
<line x1="1040.9" y1="516.0" x2="1040.9" y2="519.0" stroke="#999"/>
<text x="1040.9" y="531.0" text-anchor="end" fill="#e8731a" transform="rotate(-50 1040.9 531.0)">07-03</text>
<line x1="1074.5" y1="516.0" x2="1074.5" y2="519.0" stroke="#999"/>
<text x="1074.5" y="531.0" text-anchor="end" fill="#e8731a" transform="rotate(-50 1074.5 531.0)">07-07</text>
<line x1="1108.0" y1="516.0" x2="1108.0" y2="519.0" stroke="#999"/>
<text x="1108.0" y="531.0" text-anchor="end" fill="#e8731a" transform="rotate(-50 1108.0 531.0)">07-07</text>
<polygon points="68.0,508.3 101.5,508.6 135.1,508.7 168.6,508.2 202.2,508.1 235.7,508.0 269.3,508.1 302.8,507.6 336.4,508.2 369.9,508.2 403.5,508.1 437.0,508.3 470.6,508.5 504.1,508.5 537.7,508.4 571.2,508.3 604.8,508.3 638.3,508.2 671.9,508.4 705.4,508.2 739.0,508.2 772.5,508.1 806.1,507.3 839.6,507.4 873.2,507.4 906.7,507.5 940.3,507.5 973.8,507.4 1007.4,507.2 1040.9,507.4 1074.5,507.2 1108.0,507.4 1108.0,516.0 1074.5,516.0 1040.9,516.0 1007.4,516.0 973.8,516.0 940.3,516.0 906.7,516.0 873.2,516.0 839.6,516.0 806.1,516.0 772.5,516.0 739.0,516.0 705.4,516.0 671.9,516.0 638.3,516.0 604.8,516.0 571.2,516.0 537.7,516.0 504.1,516.0 470.6,516.0 437.0,516.0 403.5,516.0 369.9,516.0 336.4,516.0 302.8,516.0 269.3,516.0 235.7,516.0 202.2,516.0 168.6,516.0 135.1,516.0 101.5,516.0 68.0,516.0" fill="#c7e9c0" fill-opacity="0.9" stroke="#fff" stroke-width="0.4"><title>operator_typecheck — parseTranslationUnit</title></polygon>
<polygon points="68.0,257.6 101.5,254.6 135.1,250.0 168.6,232.3 202.2,219.4 235.7,227.3 269.3,217.4 302.8,218.3 336.4,221.8 369.9,220.3 403.5,241.5 437.0,237.1 470.6,236.9 504.1,234.1 537.7,238.5 571.2,232.1 604.8,222.0 638.3,214.4 671.9,222.3 705.4,220.5 739.0,448.3 772.5,446.8 806.1,445.8 839.6,445.6 873.2,445.5 906.7,446.1 940.3,445.5 973.8,445.8 1007.4,445.0 1040.9,446.0 1074.5,445.7 1108.0,445.8 1108.0,507.4 1074.5,507.2 1040.9,507.4 1007.4,507.2 973.8,507.4 940.3,507.5 906.7,507.5 873.2,507.4 839.6,507.4 806.1,507.3 772.5,508.1 739.0,508.2 705.4,508.2 671.9,508.4 638.3,508.2 604.8,508.3 571.2,508.3 537.7,508.4 504.1,508.5 470.6,508.5 437.0,508.3 403.5,508.1 369.9,508.2 336.4,508.2 302.8,507.6 269.3,508.1 235.7,508.0 202.2,508.1 168.6,508.2 135.1,508.7 101.5,508.6 68.0,508.3" fill="#41ab5d" fill-opacity="0.9" stroke="#fff" stroke-width="0.4"><title>operator_typecheck — SemanticChecking</title></polygon>
<polygon points="68.0,182.4 101.5,184.1 135.1,175.6 168.6,157.9 202.2,135.3 235.7,141.6 269.3,128.7 302.8,135.6 336.4,137.4 369.9,142.2 403.5,169.1 437.0,166.6 470.6,165.7 504.1,161.3 537.7,172.1 571.2,158.9 604.8,141.2 638.3,126.9 671.9,135.7 705.4,136.7 739.0,394.9 772.5,392.9 806.1,388.5 839.6,387.7 873.2,388.3 906.7,389.6 940.3,388.4 973.8,388.3 1007.4,386.5 1040.9,387.3 1074.5,387.6 1108.0,388.8 1108.0,445.8 1074.5,445.7 1040.9,446.0 1007.4,445.0 973.8,445.8 940.3,445.5 906.7,446.1 873.2,445.5 839.6,445.6 806.1,445.8 772.5,446.8 739.0,448.3 705.4,220.5 671.9,222.3 638.3,214.4 604.8,222.0 571.2,232.1 537.7,238.5 504.1,234.1 470.6,236.9 437.0,237.1 403.5,241.5 369.9,220.3 336.4,221.8 302.8,218.3 269.3,217.4 235.7,227.3 202.2,219.4 168.6,232.3 135.1,250.0 101.5,254.6 68.0,257.6" fill="#006d2c" fill-opacity="0.9" stroke="#fff" stroke-width="0.4"><title>operator_typecheck — generateIR</title></polygon>
<polygon points="68.0,182.4 101.5,181.0 135.1,175.6 168.6,157.7 202.2,134.4 235.7,141.6 269.3,128.7 302.8,128.2 336.4,135.2 369.9,142.2 403.5,169.1 437.0,166.5 470.6,165.7 504.1,161.3 537.7,172.1 571.2,158.0 604.8,141.2 638.3,126.7 671.9,135.7 705.4,136.5 739.0,394.3 772.5,392.9 806.1,388.5 839.6,387.7 873.2,388.2 906.7,389.0 940.3,387.6 973.8,388.2 1007.4,386.5 1040.9,387.3 1074.5,387.4 1108.0,387.3 1108.0,388.8 1074.5,387.6 1040.9,387.3 1007.4,386.5 973.8,388.3 940.3,388.4 906.7,389.6 873.2,388.3 839.6,387.7 806.1,388.5 772.5,392.9 739.0,394.9 705.4,136.7 671.9,135.7 638.3,126.9 604.8,141.2 571.2,158.9 537.7,172.1 504.1,161.3 470.6,165.7 437.0,166.6 403.5,169.1 369.9,142.2 336.4,137.4 302.8,135.6 269.3,128.7 235.7,141.6 202.2,135.3 168.6,157.9 135.1,175.6 101.5,184.1 68.0,182.4" fill="#74c476" fill-opacity="0.9" stroke="#fff" stroke-width="0.4"><title>operator_typecheck — frontEndExecute (self)</title></polygon>
<polygon points="68.0,164.8 101.5,163.6 135.1,158.4 168.6,136.2 202.2,111.9 235.7,122.4 269.3,109.8 302.8,109.4 336.4,116.7 369.9,123.1 403.5,151.2 437.0,148.7 470.6,148.1 504.1,143.7 537.7,154.2 571.2,140.4 604.8,123.3 638.3,108.6 671.9,117.7 705.4,118.6 739.0,377.7 772.5,376.3 806.1,367.5 839.6,366.6 873.2,365.9 906.7,368.6 940.3,365.7 973.8,367.9 1007.4,365.8 1040.9,367.2 1074.5,366.1 1108.0,365.5 1108.0,387.3 1074.5,387.4 1040.9,387.3 1007.4,386.5 973.8,388.2 940.3,387.6 906.7,389.0 873.2,388.2 839.6,387.7 806.1,388.5 772.5,392.9 739.0,394.3 705.4,136.5 671.9,135.7 638.3,126.7 604.8,141.2 571.2,158.0 537.7,172.1 504.1,161.3 470.6,165.7 437.0,166.5 403.5,169.1 369.9,142.2 336.4,135.2 302.8,128.2 269.3,128.7 235.7,141.6 202.2,134.4 168.6,157.7 135.1,175.6 101.5,181.0 68.0,182.4" fill="#e6550d" fill-opacity="0.9" stroke="#fff" stroke-width="0.4"><title>operator_typecheck — generateOutput (self)</title></polygon>
<polygon points="68.0,164.8 101.5,163.6 135.1,158.4 168.6,136.2 202.2,111.9 235.7,122.4 269.3,109.6 302.8,109.4 336.4,116.7 369.9,123.1 403.5,151.2 437.0,148.0 470.6,147.7 504.1,143.7 537.7,153.6 571.2,140.3 604.8,123.1 638.3,108.6 671.9,117.0 705.4,118.6 739.0,377.7 772.5,376.3 806.1,367.5 839.6,365.6 873.2,365.9 906.7,367.1 940.3,365.6 973.8,367.9 1007.4,365.7 1040.9,367.2 1074.5,366.1 1108.0,365.2 1108.0,365.5 1074.5,366.1 1040.9,367.2 1007.4,365.8 973.8,367.9 940.3,365.7 906.7,368.6 873.2,365.9 839.6,366.6 806.1,367.5 772.5,376.3 739.0,377.7 705.4,118.6 671.9,117.7 638.3,108.6 604.8,123.3 571.2,140.4 537.7,154.2 504.1,143.7 470.6,148.1 437.0,148.7 403.5,151.2 369.9,123.1 336.4,116.7 302.8,109.4 269.3,109.8 235.7,122.4 202.2,111.9 168.6,136.2 135.1,158.4 101.5,163.6 68.0,164.8" fill="#969696" fill-opacity="0.9" stroke="#fff" stroke-width="0.4"><title>operator_typecheck — compileInner (self)</title></polygon>
<text x="12" y="578" fill="#666" font-weight="600">phase buckets</text>
<rect x="12" y="586" width="12" height="12" fill="#c7e9c0"/>
<text x="28" y="596" fill="#222">parseTranslationUnit</text>
<rect x="289" y="586" width="12" height="12" fill="#41ab5d"/>
<text x="305" y="596" fill="#222">SemanticChecking</text>
<rect x="566" y="586" width="12" height="12" fill="#006d2c"/>
<text x="582" y="596" fill="#222">generateIR</text>
<rect x="843" y="586" width="12" height="12" fill="#74c476"/>
<text x="859" y="596" fill="#222">frontEndExecute (self)</text>
<rect x="12" y="604" width="12" height="12" fill="#6baed6"/>
<text x="28" y="614" fill="#222">specializeModule</text>
<rect x="289" y="604" width="12" height="12" fill="#2171b5"/>
<text x="305" y="614" fill="#222">simplifyIR</text>
<rect x="566" y="604" width="12" height="12" fill="#08306b"/>
<text x="582" y="614" fill="#222">linkIR</text>
<rect x="843" y="604" width="12" height="12" fill="#9e9ac8"/>
<text x="859" y="614" fill="#222">unrollLoopsInModule</text>
<rect x="12" y="622" width="12" height="12" fill="#807dba"/>
<text x="28" y="632" fill="#222">legalizeResourceTypes</text>
<rect x="289" y="622" width="12" height="12" fill="#6a51a3"/>
<text x="305" y="632" fill="#222">legalizeExistentialTypeLayout</text>
<rect x="566" y="622" width="12" height="12" fill="#bcbddc"/>
<text x="582" y="632" fill="#222">performMandatoryEarlyInlining</text>
<rect x="843" y="622" width="12" height="12" fill="#dadaeb"/>
<text x="859" y="632" fill="#222">performForceInlining</text>
<rect x="12" y="640" width="12" height="12" fill="#4a1486"/>
<text x="28" y="650" fill="#222">linkAndOptimizeIR (self)</text>
<rect x="289" y="640" width="12" height="12" fill="#fd8d3c"/>
<text x="305" y="650" fill="#222">emitEntryPointsSourceFromIR</text>
<rect x="566" y="640" width="12" height="12" fill="#e6550d"/>
<text x="582" y="650" fill="#222">generateOutput (self)</text>
<rect x="843" y="640" width="12" height="12" fill="#969696"/>
<text x="859" y="650" fill="#222">compileInner (self)</text>
</svg>