<svg xmlns="http://www.w3.org/2000/svg" xmlns:xlink="http://www.w3.org/1999/xlink" width="1132" height="680" viewBox="0 0 1132 680" preserveAspectRatio="xMidYMid meet" font-family="sans-serif" font-size="13">
<rect width="1132" height="680" fill="white"/>
<text x="12" y="30" font-size="20" font-weight="bold">operator_typecheck — full phase breakdown across releases (median ms)</text>
<text x="68" y="60" font-size="15" font-weight="600" fill="#1a1a1a">operator_typecheck<tspan fill="#888" font-weight="400" text-decoration="none">  0.40×</tspan></text>
<line x1="68.0" y1="516.0" x2="1108.0" y2="516.0" stroke="#eee"/>
<text x="64.0" y="519.0" text-anchor="end" fill="#999">0.0</text>
<line x1="68.0" y1="296.0" x2="1108.0" y2="296.0" stroke="#eee"/>
<text x="64.0" y="299.0" text-anchor="end" fill="#999">317</text>
<line x1="68.0" y1="76.0" x2="1108.0" y2="76.0" stroke="#eee"/>
<text x="64.0" y="79.0" text-anchor="end" fill="#999">633</text>
<line x1="68.0" y1="76.0" x2="68.0" y2="516.0" stroke="#333"/>
<line x1="68.0" y1="516.0" x2="1108.0" y2="516.0" stroke="#333"/>
<line x1="706.9" y1="76.0" x2="706.9" y2="516.0" stroke="#e8731a" stroke-width="1.2" stroke-dasharray="4 3"/>
<text x="709.9" y="87.0" fill="#e8731a" font-size="11">daily →</text>
<line x1="68.0" y1="516.0" x2="68.0" y2="519.0" stroke="#999"/>
<text x="68.0" y="531.0" text-anchor="end" fill="#666" transform="rotate(-50 68.0 531.0)">25.14</text>
<line x1="97.7" y1="516.0" x2="97.7" y2="519.0" stroke="#999"/>
<text x="97.7" y="531.0" text-anchor="end" fill="#666" transform="rotate(-50 97.7 531.0)">25.15</text>
<line x1="127.4" y1="516.0" x2="127.4" y2="519.0" stroke="#999"/>
<text x="127.4" y="531.0" text-anchor="end" fill="#666" transform="rotate(-50 127.4 531.0)">25.16</text>
<line x1="157.1" y1="516.0" x2="157.1" y2="519.0" stroke="#999"/>
<text x="157.1" y="531.0" text-anchor="end" fill="#666" transform="rotate(-50 157.1 531.0)">25.17</text>
<line x1="186.9" y1="516.0" x2="186.9" y2="519.0" stroke="#999"/>
<text x="186.9" y="531.0" text-anchor="end" fill="#666" transform="rotate(-50 186.9 531.0)">25.18</text>
<line x1="216.6" y1="516.0" x2="216.6" y2="519.0" stroke="#999"/>
<text x="216.6" y="531.0" text-anchor="end" fill="#666" transform="rotate(-50 216.6 531.0)">25.19</text>
<line x1="246.3" y1="516.0" x2="246.3" y2="519.0" stroke="#999"/>
<text x="246.3" y="531.0" text-anchor="end" fill="#666" transform="rotate(-50 246.3 531.0)">25.20</text>
<line x1="276.0" y1="516.0" x2="276.0" y2="519.0" stroke="#999"/>
<text x="276.0" y="531.0" text-anchor="end" fill="#666" transform="rotate(-50 276.0 531.0)">25.21</text>
<line x1="305.7" y1="516.0" x2="305.7" y2="519.0" stroke="#999"/>
<text x="305.7" y="531.0" text-anchor="end" fill="#666" transform="rotate(-50 305.7 531.0)">25.22</text>
<line x1="335.4" y1="516.0" x2="335.4" y2="519.0" stroke="#999"/>
<text x="335.4" y="531.0" text-anchor="end" fill="#666" transform="rotate(-50 335.4 531.0)">25.23</text>
<line x1="365.1" y1="516.0" x2="365.1" y2="519.0" stroke="#999"/>
<text x="365.1" y="531.0" text-anchor="end" fill="#666" transform="rotate(-50 365.1 531.0)">25.24</text>
<line x1="394.9" y1="516.0" x2="394.9" y2="519.0" stroke="#999"/>
<text x="394.9" y="531.0" text-anchor="end" fill="#666" transform="rotate(-50 394.9 531.0)">26.1</text>
<line x1="424.6" y1="516.0" x2="424.6" y2="519.0" stroke="#999"/>
<text x="424.6" y="531.0" text-anchor="end" fill="#666" transform="rotate(-50 424.6 531.0)">26.2</text>
<line x1="454.3" y1="516.0" x2="454.3" y2="519.0" stroke="#999"/>
<text x="454.3" y="531.0" text-anchor="end" fill="#666" transform="rotate(-50 454.3 531.0)">26.3</text>
<line x1="484.0" y1="516.0" x2="484.0" y2="519.0" stroke="#999"/>
<text x="484.0" y="531.0" text-anchor="end" fill="#666" transform="rotate(-50 484.0 531.0)">26.4</text>
<line x1="513.7" y1="516.0" x2="513.7" y2="519.0" stroke="#999"/>
<text x="513.7" y="531.0" text-anchor="end" fill="#666" transform="rotate(-50 513.7 531.0)">26.5</text>
<line x1="543.4" y1="516.0" x2="543.4" y2="519.0" stroke="#999"/>
<text x="543.4" y="531.0" text-anchor="end" fill="#666" transform="rotate(-50 543.4 531.0)">26.7</text>
<line x1="573.1" y1="516.0" x2="573.1" y2="519.0" stroke="#999"/>
<text x="573.1" y="531.0" text-anchor="end" fill="#666" transform="rotate(-50 573.1 531.0)">26.8</text>
<line x1="602.9" y1="516.0" x2="602.9" y2="519.0" stroke="#999"/>
<text x="602.9" y="531.0" text-anchor="end" fill="#666" transform="rotate(-50 602.9 531.0)">26.9</text>
<line x1="632.6" y1="516.0" x2="632.6" y2="519.0" stroke="#999"/>
<text x="632.6" y="531.0" text-anchor="end" fill="#666" transform="rotate(-50 632.6 531.0)">26.10</text>
<line x1="662.3" y1="516.0" x2="662.3" y2="519.0" stroke="#999"/>
<text x="662.3" y="531.0" text-anchor="end" fill="#666" transform="rotate(-50 662.3 531.0)">26.11</text>
<line x1="692.0" y1="516.0" x2="692.0" y2="519.0" stroke="#999"/>
<text x="692.0" y="531.0" text-anchor="end" fill="#666" transform="rotate(-50 692.0 531.0)">26.12</text>
<line x1="721.7" y1="516.0" x2="721.7" y2="519.0" stroke="#999"/>
<text x="721.7" y="531.0" text-anchor="end" fill="#e8731a" transform="rotate(-50 721.7 531.0)">06-25</text>
<line x1="751.4" y1="516.0" x2="751.4" y2="519.0" stroke="#999"/>
<text x="751.4" y="531.0" text-anchor="end" fill="#e8731a" transform="rotate(-50 751.4 531.0)">06-26</text>
<line x1="781.1" y1="516.0" x2="781.1" y2="519.0" stroke="#999"/>
<text x="781.1" y="531.0" text-anchor="end" fill="#e8731a" transform="rotate(-50 781.1 531.0)">06-28</text>
<line x1="810.9" y1="516.0" x2="810.9" y2="519.0" stroke="#999"/>
<text x="810.9" y="531.0" text-anchor="end" fill="#e8731a" transform="rotate(-50 810.9 531.0)">07-01</text>
<line x1="840.6" y1="516.0" x2="840.6" y2="519.0" stroke="#999"/>
<text x="840.6" y="531.0" text-anchor="end" fill="#e8731a" transform="rotate(-50 840.6 531.0)">07-02</text>
<line x1="870.3" y1="516.0" x2="870.3" y2="519.0" stroke="#999"/>
<text x="870.3" y="531.0" text-anchor="end" fill="#e8731a" transform="rotate(-50 870.3 531.0)">07-03</text>
<line x1="900.0" y1="516.0" x2="900.0" y2="519.0" stroke="#999"/>
<text x="900.0" y="531.0" text-anchor="end" fill="#e8731a" transform="rotate(-50 900.0 531.0)">07-06</text>
<line x1="929.7" y1="516.0" x2="929.7" y2="519.0" stroke="#999"/>
<text x="929.7" y="531.0" text-anchor="end" fill="#e8731a" transform="rotate(-50 929.7 531.0)">07-07</text>
<line x1="959.4" y1="516.0" x2="959.4" y2="519.0" stroke="#999"/>
<text x="959.4" y="531.0" text-anchor="end" fill="#e8731a" transform="rotate(-50 959.4 531.0)">07-08</text>
<line x1="989.1" y1="516.0" x2="989.1" y2="519.0" stroke="#999"/>
<text x="989.1" y="531.0" text-anchor="end" fill="#e8731a" transform="rotate(-50 989.1 531.0)">07-09</text>
<line x1="1018.9" y1="516.0" x2="1018.9" y2="519.0" stroke="#999"/>
<text x="1018.9" y="531.0" text-anchor="end" fill="#e8731a" transform="rotate(-50 1018.9 531.0)">07-10</text>
<line x1="1048.6" y1="516.0" x2="1048.6" y2="519.0" stroke="#999"/>
<text x="1048.6" y="531.0" text-anchor="end" fill="#e8731a" transform="rotate(-50 1048.6 531.0)">07-11</text>
<line x1="1078.3" y1="516.0" x2="1078.3" y2="519.0" stroke="#999"/>
<text x="1078.3" y="531.0" text-anchor="end" fill="#e8731a" transform="rotate(-50 1078.3 531.0)">07-14</text>
<line x1="1108.0" y1="516.0" x2="1108.0" y2="519.0" stroke="#999"/>
<text x="1108.0" y="531.0" text-anchor="end" fill="#e8731a" transform="rotate(-50 1108.0 531.0)">07-15</text>
<polygon points="68.0,509.5 97.7,509.6 127.4,509.2 157.1,507.3 186.9,509.1 216.6,509.3 246.3,509.4 276.0,509.4 305.7,509.5 335.4,509.5 365.1,509.3 394.9,509.4 424.6,509.4 454.3,509.2 484.0,509.2 513.7,509.1 543.4,509.2 573.1,509.0 602.9,508.0 632.6,509.0 662.3,509.0 692.0,509.1 721.7,508.6 751.4,508.7 781.1,508.6 810.9,508.5 840.6,508.1 870.3,508.5 900.0,508.4 929.7,509.3 959.4,509.2 989.1,509.3 1018.9,509.1 1048.6,509.0 1078.3,509.3 1108.0,509.6 1108.0,516.0 1078.3,516.0 1048.6,516.0 1018.9,516.0 989.1,516.0 959.4,516.0 929.7,516.0 900.0,516.0 870.3,516.0 840.6,516.0 810.9,516.0 781.1,516.0 751.4,516.0 721.7,516.0 692.0,516.0 662.3,516.0 632.6,516.0 602.9,516.0 573.1,516.0 543.4,516.0 513.7,516.0 484.0,516.0 454.3,516.0 424.6,516.0 394.9,516.0 365.1,516.0 335.4,516.0 305.7,516.0 276.0,516.0 246.3,516.0 216.6,516.0 186.9,516.0 157.1,516.0 127.4,516.0 97.7,516.0 68.0,516.0" fill="#c7e9c0" fill-opacity="0.9" stroke="#fff" stroke-width="0.4"><title>operator_typecheck — parseTranslationUnit</title></polygon>
<polygon points="68.0,289.6 97.7,280.2 127.4,257.5 157.1,234.8 186.9,258.3 216.6,264.0 246.3,279.4 276.0,284.1 305.7,282.2 335.4,278.5 365.1,277.7 394.9,276.6 424.6,274.4 454.3,268.3 484.0,267.7 513.7,268.0 543.4,252.6 573.1,215.0 602.9,237.5 632.6,240.5 662.3,456.6 692.0,456.0 721.7,455.2 751.4,454.2 781.1,456.2 810.9,454.7 840.6,453.6 870.3,454.5 900.0,455.0 929.7,456.0 959.4,456.3 989.1,453.3 1018.9,455.8 1048.6,454.4 1078.3,455.8 1108.0,460.6 1108.0,509.6 1078.3,509.3 1048.6,509.0 1018.9,509.1 989.1,509.3 959.4,509.2 929.7,509.3 900.0,508.4 870.3,508.5 840.6,508.1 810.9,508.5 781.1,508.6 751.4,508.7 721.7,508.6 692.0,509.1 662.3,509.0 632.6,509.0 602.9,508.0 573.1,509.0 543.4,509.2 513.7,509.1 484.0,509.2 454.3,509.2 424.6,509.4 394.9,509.4 365.1,509.3 335.4,509.5 305.7,509.5 276.0,509.4 246.3,509.4 216.6,509.3 186.9,509.1 157.1,507.3 127.4,509.2 97.7,509.6 68.0,509.5" fill="#41ab5d" fill-opacity="0.9" stroke="#fff" stroke-width="0.4"><title>operator_typecheck — SemanticChecking</title></polygon>
<polygon points="68.0,223.8 97.7,216.2 127.4,180.8 157.1,159.8 186.9,182.9 216.6,191.5 246.3,209.5 276.0,217.8 305.7,220.6 335.4,216.7 365.1,215.4 394.9,216.5 424.6,215.7 454.3,205.2 484.0,206.2 513.7,205.0 543.4,181.2 573.1,132.2 602.9,153.5 632.6,158.8 662.3,409.8 692.0,409.3 721.7,405.3 751.4,404.3 781.1,406.5 810.9,405.1 840.6,402.8 870.3,404.5 900.0,405.3 929.7,406.9 959.4,406.2 989.1,403.2 1018.9,405.7 1048.6,404.4 1078.3,405.5 1108.0,412.6 1108.0,460.6 1078.3,455.8 1048.6,454.4 1018.9,455.8 989.1,453.3 959.4,456.3 929.7,456.0 900.0,455.0 870.3,454.5 840.6,453.6 810.9,454.7 781.1,456.2 751.4,454.2 721.7,455.2 692.0,456.0 662.3,456.6 632.6,240.5 602.9,237.5 573.1,215.0 543.4,252.6 513.7,268.0 484.0,267.7 454.3,268.3 424.6,274.4 394.9,276.6 365.1,277.7 335.4,278.5 305.7,282.2 276.0,284.1 246.3,279.4 216.6,264.0 186.9,258.3 157.1,234.8 127.4,257.5 97.7,280.2 68.0,289.6" fill="#006d2c" fill-opacity="0.9" stroke="#fff" stroke-width="0.4"><title>operator_typecheck — generateIR</title></polygon>
<polygon points="68.0,223.8 97.7,216.2 127.4,180.8 157.1,158.1 186.9,182.9 216.6,191.5 246.3,205.5 276.0,214.7 305.7,220.0 335.4,215.5 365.1,215.4 394.9,216.5 424.6,213.7 454.3,204.4 484.0,206.2 513.7,204.9 543.4,181.1 573.1,126.8 602.9,152.6 632.6,158.8 662.3,409.3 692.0,409.2 721.7,404.7 751.4,403.1 781.1,406.5 810.9,405.1 840.6,401.2 870.3,404.4 900.0,404.2 929.7,406.8 959.4,405.8 989.1,403.2 1018.9,405.5 1048.6,403.1 1078.3,405.2 1108.0,412.4 1108.0,412.6 1078.3,405.5 1048.6,404.4 1018.9,405.7 989.1,403.2 959.4,406.2 929.7,406.9 900.0,405.3 870.3,404.5 840.6,402.8 810.9,405.1 781.1,406.5 751.4,404.3 721.7,405.3 692.0,409.3 662.3,409.8 632.6,158.8 602.9,153.5 573.1,132.2 543.4,181.2 513.7,205.0 484.0,206.2 454.3,205.2 424.6,215.7 394.9,216.5 365.1,215.4 335.4,216.7 305.7,220.6 276.0,217.8 246.3,209.5 216.6,191.5 186.9,182.9 157.1,159.8 127.4,180.8 97.7,216.2 68.0,223.8" fill="#74c476" fill-opacity="0.9" stroke="#fff" stroke-width="0.4"><title>operator_typecheck — frontEndExecute (self)</title></polygon>
<polygon points="68.0,208.3 97.7,201.0 127.4,164.3 157.1,140.1 186.9,164.2 216.6,175.2 246.3,189.4 276.0,199.0 305.7,204.3 335.4,200.0 365.1,199.8 394.9,200.8 424.6,198.2 454.3,189.0 484.0,190.3 513.7,189.4 543.4,165.4 573.1,108.6 602.9,135.3 632.6,142.3 662.3,394.7 692.0,394.5 721.7,387.1 751.4,385.4 781.1,387.2 810.9,387.7 840.6,382.0 870.3,386.3 900.0,386.5 929.7,388.3 959.4,386.6 989.1,385.5 1018.9,387.8 1048.6,382.9 1078.3,385.2 1108.0,392.3 1108.0,412.4 1078.3,405.2 1048.6,403.1 1018.9,405.5 989.1,403.2 959.4,405.8 929.7,406.8 900.0,404.2 870.3,404.4 840.6,401.2 810.9,405.1 781.1,406.5 751.4,403.1 721.7,404.7 692.0,409.2 662.3,409.3 632.6,158.8 602.9,152.6 573.1,126.8 543.4,181.1 513.7,204.9 484.0,206.2 454.3,204.4 424.6,213.7 394.9,216.5 365.1,215.4 335.4,215.5 305.7,220.0 276.0,214.7 246.3,205.5 216.6,191.5 186.9,182.9 157.1,158.1 127.4,180.8 97.7,216.2 68.0,223.8" fill="#e6550d" fill-opacity="0.9" stroke="#fff" stroke-width="0.4"><title>operator_typecheck — generateOutput (self)</title></polygon>
<polygon points="68.0,208.3 97.7,201.0 127.4,164.3 157.1,140.1 186.9,163.9 216.6,175.2 246.3,189.4 276.0,199.0 305.7,204.3 335.4,200.0 365.1,199.7 394.9,200.8 424.6,198.1 454.3,188.9 484.0,190.0 513.7,189.4 543.4,165.4 573.1,108.6 602.9,135.3 632.6,142.2 662.3,394.7 692.0,394.3 721.7,387.0 751.4,385.3 781.1,387.2 810.9,386.8 840.6,382.0 870.3,386.3 900.0,386.4 929.7,388.2 959.4,386.6 989.1,385.5 1018.9,387.8 1048.6,382.8 1078.3,384.5 1108.0,391.9 1108.0,392.3 1078.3,385.2 1048.6,382.9 1018.9,387.8 989.1,385.5 959.4,386.6 929.7,388.3 900.0,386.5 870.3,386.3 840.6,382.0 810.9,387.7 781.1,387.2 751.4,385.4 721.7,387.1 692.0,394.5 662.3,394.7 632.6,142.3 602.9,135.3 573.1,108.6 543.4,165.4 513.7,189.4 484.0,190.3 454.3,189.0 424.6,198.2 394.9,200.8 365.1,199.8 335.4,200.0 305.7,204.3 276.0,199.0 246.3,189.4 216.6,175.2 186.9,164.2 157.1,140.1 127.4,164.3 97.7,201.0 68.0,208.3" fill="#969696" fill-opacity="0.9" stroke="#fff" stroke-width="0.4"><title>operator_typecheck — compileInner (self)</title></polygon>
<text x="12" y="578" fill="#666" font-weight="600">phase buckets</text>
<rect x="12" y="586" width="12" height="12" fill="#c7e9c0"/>
<text x="28" y="596" fill="#222">parseTranslationUnit</text>
<rect x="289" y="586" width="12" height="12" fill="#41ab5d"/>
<text x="305" y="596" fill="#222">SemanticChecking</text>
<rect x="566" y="586" width="12" height="12" fill="#006d2c"/>
<text x="582" y="596" fill="#222">generateIR</text>
<rect x="843" y="586" width="12" height="12" fill="#74c476"/>
<text x="859" y="596" fill="#222">frontEndExecute (self)</text>
<rect x="12" y="604" width="12" height="12" fill="#6baed6"/>
<text x="28" y="614" fill="#222">specializeModule</text>
<rect x="289" y="604" width="12" height="12" fill="#2171b5"/>
<text x="305" y="614" fill="#222">simplifyIR</text>
<rect x="566" y="604" width="12" height="12" fill="#08306b"/>
<text x="582" y="614" fill="#222">linkIR</text>
<rect x="843" y="604" width="12" height="12" fill="#9e9ac8"/>
<text x="859" y="614" fill="#222">unrollLoopsInModule</text>
<rect x="12" y="622" width="12" height="12" fill="#807dba"/>
<text x="28" y="632" fill="#222">legalizeResourceTypes</text>
<rect x="289" y="622" width="12" height="12" fill="#6a51a3"/>
<text x="305" y="632" fill="#222">legalizeExistentialTypeLayout</text>
<rect x="566" y="622" width="12" height="12" fill="#bcbddc"/>
<text x="582" y="632" fill="#222">performMandatoryEarlyInlining</text>
<rect x="843" y="622" width="12" height="12" fill="#dadaeb"/>
<text x="859" y="632" fill="#222">performForceInlining</text>
<rect x="12" y="640" width="12" height="12" fill="#4a1486"/>
<text x="28" y="650" fill="#222">linkAndOptimizeIR (self)</text>
<rect x="289" y="640" width="12" height="12" fill="#fd8d3c"/>
<text x="305" y="650" fill="#222">emitEntryPointsSourceFromIR</text>
<rect x="566" y="640" width="12" height="12" fill="#e6550d"/>
<text x="582" y="650" fill="#222">generateOutput (self)</text>
<rect x="843" y="640" width="12" height="12" fill="#969696"/>
<text x="859" y="650" fill="#222">compileInner (self)</text>
</svg>