<svg xmlns="http://www.w3.org/2000/svg" xmlns:xlink="http://www.w3.org/1999/xlink" width="1132" height="680" viewBox="0 0 1132 680" preserveAspectRatio="xMidYMid meet" font-family="sans-serif" font-size="13">
<rect width="1132" height="680" fill="white"/>
<text x="12" y="30" font-size="20" font-weight="bold">overload_resolution — Daily tip-of-tree (last 30 days) (median ms)</text>
<text x="68" y="60" font-size="15" font-weight="600" fill="#1a1a1a">overload_resolution<tspan fill="#888" font-weight="400" text-decoration="none">  0.91×</tspan></text>
<line x1="68.0" y1="516.0" x2="1108.0" y2="516.0" stroke="#eee"/>
<text x="64.0" y="519.0" text-anchor="end" fill="#999">0.0</text>
<line x1="68.0" y1="296.0" x2="1108.0" y2="296.0" stroke="#eee"/>
<text x="64.0" y="299.0" text-anchor="end" fill="#999">21</text>
<line x1="68.0" y1="76.0" x2="1108.0" y2="76.0" stroke="#eee"/>
<text x="64.0" y="79.0" text-anchor="end" fill="#999">42</text>
<line x1="68.0" y1="76.0" x2="68.0" y2="516.0" stroke="#333"/>
<line x1="68.0" y1="516.0" x2="1108.0" y2="516.0" stroke="#333"/>
<line x1="68.0" y1="516.0" x2="68.0" y2="519.0" stroke="#999"/>
<text x="68.0" y="531.0" text-anchor="end" fill="#e8731a" transform="rotate(-50 68.0 531.0)">06-25</text>
<line x1="120.0" y1="516.0" x2="120.0" y2="519.0" stroke="#999"/>
<text x="120.0" y="531.0" text-anchor="end" fill="#e8731a" transform="rotate(-50 120.0 531.0)">06-26</text>
<line x1="172.0" y1="516.0" x2="172.0" y2="519.0" stroke="#999"/>
<text x="172.0" y="531.0" text-anchor="end" fill="#e8731a" transform="rotate(-50 172.0 531.0)">06-28</text>
<line x1="224.0" y1="516.0" x2="224.0" y2="519.0" stroke="#999"/>
<text x="224.0" y="531.0" text-anchor="end" fill="#e8731a" transform="rotate(-50 224.0 531.0)">07-01</text>
<line x1="276.0" y1="516.0" x2="276.0" y2="519.0" stroke="#999"/>
<text x="276.0" y="531.0" text-anchor="end" fill="#e8731a" transform="rotate(-50 276.0 531.0)">07-02</text>
<line x1="328.0" y1="516.0" x2="328.0" y2="519.0" stroke="#999"/>
<text x="328.0" y="531.0" text-anchor="end" fill="#e8731a" transform="rotate(-50 328.0 531.0)">07-03</text>
<line x1="380.0" y1="516.0" x2="380.0" y2="519.0" stroke="#999"/>
<text x="380.0" y="531.0" text-anchor="end" fill="#e8731a" transform="rotate(-50 380.0 531.0)">07-06</text>
<line x1="432.0" y1="516.0" x2="432.0" y2="519.0" stroke="#999"/>
<text x="432.0" y="531.0" text-anchor="end" fill="#e8731a" transform="rotate(-50 432.0 531.0)">07-07</text>
<line x1="484.0" y1="516.0" x2="484.0" y2="519.0" stroke="#999"/>
<text x="484.0" y="531.0" text-anchor="end" fill="#e8731a" transform="rotate(-50 484.0 531.0)">07-08</text>
<line x1="536.0" y1="516.0" x2="536.0" y2="519.0" stroke="#999"/>
<text x="536.0" y="531.0" text-anchor="end" fill="#e8731a" transform="rotate(-50 536.0 531.0)">07-09</text>
<line x1="588.0" y1="516.0" x2="588.0" y2="519.0" stroke="#999"/>
<text x="588.0" y="531.0" text-anchor="end" fill="#e8731a" transform="rotate(-50 588.0 531.0)">07-10</text>
<line x1="640.0" y1="516.0" x2="640.0" y2="519.0" stroke="#999"/>
<text x="640.0" y="531.0" text-anchor="end" fill="#e8731a" transform="rotate(-50 640.0 531.0)">07-11</text>
<line x1="692.0" y1="516.0" x2="692.0" y2="519.0" stroke="#999"/>
<text x="692.0" y="531.0" text-anchor="end" fill="#e8731a" transform="rotate(-50 692.0 531.0)">07-14</text>
<line x1="744.0" y1="516.0" x2="744.0" y2="519.0" stroke="#999"/>
<text x="744.0" y="531.0" text-anchor="end" fill="#e8731a" transform="rotate(-50 744.0 531.0)">07-15</text>
<line x1="796.0" y1="516.0" x2="796.0" y2="519.0" stroke="#999"/>
<text x="796.0" y="531.0" text-anchor="end" fill="#e8731a" transform="rotate(-50 796.0 531.0)">07-15</text>
<line x1="848.0" y1="516.0" x2="848.0" y2="519.0" stroke="#999"/>
<text x="848.0" y="531.0" text-anchor="end" fill="#e8731a" transform="rotate(-50 848.0 531.0)">07-16</text>
<line x1="900.0" y1="516.0" x2="900.0" y2="519.0" stroke="#999"/>
<text x="900.0" y="531.0" text-anchor="end" fill="#e8731a" transform="rotate(-50 900.0 531.0)">07-17</text>
<line x1="952.0" y1="516.0" x2="952.0" y2="519.0" stroke="#999"/>
<text x="952.0" y="531.0" text-anchor="end" fill="#e8731a" transform="rotate(-50 952.0 531.0)">07-18</text>
<line x1="1004.0" y1="516.0" x2="1004.0" y2="519.0" stroke="#999"/>
<text x="1004.0" y="531.0" text-anchor="end" fill="#e8731a" transform="rotate(-50 1004.0 531.0)">07-19</text>
<line x1="1056.0" y1="516.0" x2="1056.0" y2="519.0" stroke="#999"/>
<text x="1056.0" y="531.0" text-anchor="end" fill="#e8731a" transform="rotate(-50 1056.0 531.0)">07-20</text>
<line x1="1108.0" y1="516.0" x2="1108.0" y2="519.0" stroke="#999"/>
<text x="1108.0" y="531.0" text-anchor="end" fill="#e8731a" transform="rotate(-50 1108.0 531.0)">07-21</text>
<polygon points="68.0,495.8 120.0,496.3 172.0,495.9 224.0,495.9 276.0,495.4 328.0,495.8 380.0,495.7 432.0,497.9 484.0,496.7 536.0,497.8 588.0,497.6 640.0,497.6 692.0,497.8 744.0,499.6 796.0,499.4 848.0,499.3 900.0,499.2 952.0,500.0 1004.0,500.2 1056.0,500.2 1108.0,500.3 1108.0,516.0 1056.0,516.0 1004.0,516.0 952.0,516.0 900.0,516.0 848.0,516.0 796.0,516.0 744.0,516.0 692.0,516.0 640.0,516.0 588.0,516.0 536.0,516.0 484.0,516.0 432.0,516.0 380.0,516.0 328.0,516.0 276.0,516.0 224.0,516.0 172.0,516.0 120.0,516.0 68.0,516.0" fill="#c7e9c0" fill-opacity="0.9" stroke="#fff" stroke-width="0.4"><title>overload_resolution — parseTranslationUnit</title></polygon>
<polygon points="68.0,277.1 120.0,281.9 172.0,277.7 224.0,275.2 276.0,272.8 328.0,279.4 380.0,276.7 432.0,276.0 484.0,275.7 536.0,274.5 588.0,279.1 640.0,277.9 692.0,280.5 744.0,298.9 796.0,298.0 848.0,264.3 900.0,262.4 952.0,282.8 1004.0,286.1 1056.0,288.7 1108.0,287.0 1108.0,500.3 1056.0,500.2 1004.0,500.2 952.0,500.0 900.0,499.2 848.0,499.3 796.0,499.4 744.0,499.6 692.0,497.8 640.0,497.6 588.0,497.6 536.0,497.8 484.0,496.7 432.0,497.9 380.0,495.7 328.0,495.8 276.0,495.4 224.0,495.9 172.0,495.9 120.0,496.3 68.0,495.8" fill="#41ab5d" fill-opacity="0.9" stroke="#fff" stroke-width="0.4"><title>overload_resolution — SemanticChecking</title></polygon>
<polygon points="68.0,177.0 120.0,182.0 172.0,179.0 224.0,177.1 276.0,170.9 328.0,181.0 380.0,175.8 432.0,177.1 484.0,176.1 536.0,175.0 588.0,178.5 640.0,177.8 692.0,179.2 744.0,205.9 796.0,203.1 848.0,168.2 900.0,165.8 952.0,198.5 1004.0,201.8 1056.0,204.7 1108.0,204.8 1108.0,287.0 1056.0,288.7 1004.0,286.1 952.0,282.8 900.0,262.4 848.0,264.3 796.0,298.0 744.0,298.9 692.0,280.5 640.0,277.9 588.0,279.1 536.0,274.5 484.0,275.7 432.0,276.0 380.0,276.7 328.0,279.4 276.0,272.8 224.0,275.2 172.0,277.7 120.0,281.9 68.0,277.1" fill="#006d2c" fill-opacity="0.9" stroke="#fff" stroke-width="0.4"><title>overload_resolution — generateIR</title></polygon>
<polygon points="68.0,174.7 120.0,180.3 172.0,176.3 224.0,174.2 276.0,168.9 328.0,181.0 380.0,168.4 432.0,174.4 484.0,175.2 536.0,174.0 588.0,176.1 640.0,175.6 692.0,177.5 744.0,204.5 796.0,203.1 848.0,165.5 900.0,165.0 952.0,195.8 1004.0,201.8 1056.0,203.6 1108.0,203.5 1108.0,204.8 1056.0,204.7 1004.0,201.8 952.0,198.5 900.0,165.8 848.0,168.2 796.0,203.1 744.0,205.9 692.0,179.2 640.0,177.8 588.0,178.5 536.0,175.0 484.0,176.1 432.0,177.1 380.0,175.8 328.0,181.0 276.0,170.9 224.0,177.1 172.0,179.0 120.0,182.0 68.0,177.0" fill="#74c476" fill-opacity="0.9" stroke="#fff" stroke-width="0.4"><title>overload_resolution — frontEndExecute (self)</title></polygon>
<polygon points="68.0,121.1 120.0,126.0 172.0,118.9 224.0,120.1 276.0,111.3 328.0,126.8 380.0,113.3 432.0,118.4 484.0,117.6 536.0,119.6 588.0,122.2 640.0,119.0 692.0,121.5 744.0,149.8 796.0,148.1 848.0,111.0 900.0,108.6 952.0,145.2 1004.0,151.1 1056.0,155.5 1108.0,156.1 1108.0,203.5 1056.0,203.6 1004.0,201.8 952.0,195.8 900.0,165.0 848.0,165.5 796.0,203.1 744.0,204.5 692.0,177.5 640.0,175.6 588.0,176.1 536.0,174.0 484.0,175.2 432.0,174.4 380.0,168.4 328.0,181.0 276.0,168.9 224.0,174.2 172.0,176.3 120.0,180.3 68.0,174.7" fill="#e6550d" fill-opacity="0.9" stroke="#fff" stroke-width="0.4"><title>overload_resolution — generateOutput (self)</title></polygon>
<polygon points="68.0,118.4 120.0,124.3 172.0,117.9 224.0,120.1 276.0,111.3 328.0,126.8 380.0,111.7 432.0,118.4 484.0,117.6 536.0,119.6 588.0,122.2 640.0,119.0 692.0,121.5 744.0,148.9 796.0,148.1 848.0,111.0 900.0,108.6 952.0,145.2 1004.0,150.3 1056.0,154.3 1108.0,154.8 1108.0,156.1 1056.0,155.5 1004.0,151.1 952.0,145.2 900.0,108.6 848.0,111.0 796.0,148.1 744.0,149.8 692.0,121.5 640.0,119.0 588.0,122.2 536.0,119.6 484.0,117.6 432.0,118.4 380.0,113.3 328.0,126.8 276.0,111.3 224.0,120.1 172.0,118.9 120.0,126.0 68.0,121.1" fill="#969696" fill-opacity="0.9" stroke="#fff" stroke-width="0.4"><title>overload_resolution — compileInner (self)</title></polygon>
<text x="12" y="578" fill="#666" font-weight="600">phase buckets</text>
<rect x="12" y="586" width="12" height="12" fill="#c7e9c0"/>
<text x="28" y="596" fill="#222">parseTranslationUnit</text>
<rect x="289" y="586" width="12" height="12" fill="#41ab5d"/>
<text x="305" y="596" fill="#222">SemanticChecking</text>
<rect x="566" y="586" width="12" height="12" fill="#006d2c"/>
<text x="582" y="596" fill="#222">generateIR</text>
<rect x="843" y="586" width="12" height="12" fill="#74c476"/>
<text x="859" y="596" fill="#222">frontEndExecute (self)</text>
<rect x="12" y="604" width="12" height="12" fill="#6baed6"/>
<text x="28" y="614" fill="#222">specializeModule</text>
<rect x="289" y="604" width="12" height="12" fill="#2171b5"/>
<text x="305" y="614" fill="#222">simplifyIR</text>
<rect x="566" y="604" width="12" height="12" fill="#08306b"/>
<text x="582" y="614" fill="#222">linkIR</text>
<rect x="843" y="604" width="12" height="12" fill="#9e9ac8"/>
<text x="859" y="614" fill="#222">unrollLoopsInModule</text>
<rect x="12" y="622" width="12" height="12" fill="#807dba"/>
<text x="28" y="632" fill="#222">legalizeResourceTypes</text>
<rect x="289" y="622" width="12" height="12" fill="#6a51a3"/>
<text x="305" y="632" fill="#222">legalizeExistentialTypeLayout</text>
<rect x="566" y="622" width="12" height="12" fill="#bcbddc"/>
<text x="582" y="632" fill="#222">performMandatoryEarlyInlining</text>
<rect x="843" y="622" width="12" height="12" fill="#dadaeb"/>
<text x="859" y="632" fill="#222">performForceInlining</text>
<rect x="12" y="640" width="12" height="12" fill="#4a1486"/>
<text x="28" y="650" fill="#222">linkAndOptimizeIR (self)</text>
<rect x="289" y="640" width="12" height="12" fill="#fd8d3c"/>
<text x="305" y="650" fill="#222">emitEntryPointsSourceFromIR</text>
<rect x="566" y="640" width="12" height="12" fill="#e6550d"/>
<text x="582" y="650" fill="#222">generateOutput (self)</text>
<rect x="843" y="640" width="12" height="12" fill="#969696"/>
<text x="859" y="650" fill="#222">compileInner (self)</text>
</svg>