<svg xmlns="http://www.w3.org/2000/svg" xmlns:xlink="http://www.w3.org/1999/xlink" width="1132" height="680" viewBox="0 0 1132 680" preserveAspectRatio="xMidYMid meet" font-family="sans-serif" font-size="13">
<rect width="1132" height="680" fill="white"/>
<text x="12" y="30" font-size="20" font-weight="bold">overload_resolution — full phase breakdown across releases (median ms)</text>
<text x="68" y="60" font-size="15" font-weight="600" fill="#1a1a1a">overload_resolution<tspan fill="#888" font-weight="400" text-decoration="none">  1.15×</tspan></text>
<line x1="68.0" y1="516.0" x2="1108.0" y2="516.0" stroke="#eee"/>
<text x="64.0" y="519.0" text-anchor="end" fill="#999">0.0</text>
<line x1="68.0" y1="296.0" x2="1108.0" y2="296.0" stroke="#eee"/>
<text x="64.0" y="299.0" text-anchor="end" fill="#999">39</text>
<line x1="68.0" y1="76.0" x2="1108.0" y2="76.0" stroke="#eee"/>
<text x="64.0" y="79.0" text-anchor="end" fill="#999">78</text>
<line x1="68.0" y1="76.0" x2="68.0" y2="516.0" stroke="#333"/>
<line x1="68.0" y1="516.0" x2="1108.0" y2="516.0" stroke="#333"/>
<line x1="725.6" y1="76.0" x2="725.6" y2="516.0" stroke="#e8731a" stroke-width="1.2" stroke-dasharray="4 3"/>
<text x="728.6" y="87.0" fill="#e8731a" font-size="11">daily →</text>
<line x1="68.0" y1="516.0" x2="68.0" y2="519.0" stroke="#999"/>
<text x="68.0" y="531.0" text-anchor="end" fill="#666" transform="rotate(-50 68.0 531.0)">25.14</text>
<line x1="98.6" y1="516.0" x2="98.6" y2="519.0" stroke="#999"/>
<text x="98.6" y="531.0" text-anchor="end" fill="#666" transform="rotate(-50 98.6 531.0)">25.15</text>
<line x1="129.2" y1="516.0" x2="129.2" y2="519.0" stroke="#999"/>
<text x="129.2" y="531.0" text-anchor="end" fill="#666" transform="rotate(-50 129.2 531.0)">25.16</text>
<line x1="159.8" y1="516.0" x2="159.8" y2="519.0" stroke="#999"/>
<text x="159.8" y="531.0" text-anchor="end" fill="#666" transform="rotate(-50 159.8 531.0)">25.17</text>
<line x1="190.4" y1="516.0" x2="190.4" y2="519.0" stroke="#999"/>
<text x="190.4" y="531.0" text-anchor="end" fill="#666" transform="rotate(-50 190.4 531.0)">25.18</text>
<line x1="220.9" y1="516.0" x2="220.9" y2="519.0" stroke="#999"/>
<text x="220.9" y="531.0" text-anchor="end" fill="#666" transform="rotate(-50 220.9 531.0)">25.19</text>
<line x1="251.5" y1="516.0" x2="251.5" y2="519.0" stroke="#999"/>
<text x="251.5" y="531.0" text-anchor="end" fill="#666" transform="rotate(-50 251.5 531.0)">25.20</text>
<line x1="282.1" y1="516.0" x2="282.1" y2="519.0" stroke="#999"/>
<text x="282.1" y="531.0" text-anchor="end" fill="#666" transform="rotate(-50 282.1 531.0)">25.21</text>
<line x1="312.7" y1="516.0" x2="312.7" y2="519.0" stroke="#999"/>
<text x="312.7" y="531.0" text-anchor="end" fill="#666" transform="rotate(-50 312.7 531.0)">25.22</text>
<line x1="343.3" y1="516.0" x2="343.3" y2="519.0" stroke="#999"/>
<text x="343.3" y="531.0" text-anchor="end" fill="#666" transform="rotate(-50 343.3 531.0)">25.23</text>
<line x1="373.9" y1="516.0" x2="373.9" y2="519.0" stroke="#999"/>
<text x="373.9" y="531.0" text-anchor="end" fill="#666" transform="rotate(-50 373.9 531.0)">25.24</text>
<line x1="404.5" y1="516.0" x2="404.5" y2="519.0" stroke="#999"/>
<text x="404.5" y="531.0" text-anchor="end" fill="#666" transform="rotate(-50 404.5 531.0)">26.1</text>
<line x1="435.1" y1="516.0" x2="435.1" y2="519.0" stroke="#999"/>
<text x="435.1" y="531.0" text-anchor="end" fill="#666" transform="rotate(-50 435.1 531.0)">26.2</text>
<line x1="465.6" y1="516.0" x2="465.6" y2="519.0" stroke="#999"/>
<text x="465.6" y="531.0" text-anchor="end" fill="#666" transform="rotate(-50 465.6 531.0)">26.3</text>
<line x1="496.2" y1="516.0" x2="496.2" y2="519.0" stroke="#999"/>
<text x="496.2" y="531.0" text-anchor="end" fill="#666" transform="rotate(-50 496.2 531.0)">26.4</text>
<line x1="526.8" y1="516.0" x2="526.8" y2="519.0" stroke="#999"/>
<text x="526.8" y="531.0" text-anchor="end" fill="#666" transform="rotate(-50 526.8 531.0)">26.5</text>
<line x1="557.4" y1="516.0" x2="557.4" y2="519.0" stroke="#999"/>
<text x="557.4" y="531.0" text-anchor="end" fill="#666" transform="rotate(-50 557.4 531.0)">26.7</text>
<line x1="588.0" y1="516.0" x2="588.0" y2="519.0" stroke="#999"/>
<text x="588.0" y="531.0" text-anchor="end" fill="#666" transform="rotate(-50 588.0 531.0)">26.8</text>
<line x1="618.6" y1="516.0" x2="618.6" y2="519.0" stroke="#999"/>
<text x="618.6" y="531.0" text-anchor="end" fill="#666" transform="rotate(-50 618.6 531.0)">26.9</text>
<line x1="649.2" y1="516.0" x2="649.2" y2="519.0" stroke="#999"/>
<text x="649.2" y="531.0" text-anchor="end" fill="#666" transform="rotate(-50 649.2 531.0)">26.10</text>
<line x1="679.8" y1="516.0" x2="679.8" y2="519.0" stroke="#999"/>
<text x="679.8" y="531.0" text-anchor="end" fill="#666" transform="rotate(-50 679.8 531.0)">26.11</text>
<line x1="710.4" y1="516.0" x2="710.4" y2="519.0" stroke="#999"/>
<text x="710.4" y="531.0" text-anchor="end" fill="#666" transform="rotate(-50 710.4 531.0)">26.12</text>
<line x1="740.9" y1="516.0" x2="740.9" y2="519.0" stroke="#999"/>
<text x="740.9" y="531.0" text-anchor="end" fill="#e8731a" transform="rotate(-50 740.9 531.0)">06-25</text>
<line x1="771.5" y1="516.0" x2="771.5" y2="519.0" stroke="#999"/>
<text x="771.5" y="531.0" text-anchor="end" fill="#e8731a" transform="rotate(-50 771.5 531.0)">06-26</text>
<line x1="802.1" y1="516.0" x2="802.1" y2="519.0" stroke="#999"/>
<text x="802.1" y="531.0" text-anchor="end" fill="#e8731a" transform="rotate(-50 802.1 531.0)">06-28</text>
<line x1="832.7" y1="516.0" x2="832.7" y2="519.0" stroke="#999"/>
<text x="832.7" y="531.0" text-anchor="end" fill="#e8731a" transform="rotate(-50 832.7 531.0)">07-01</text>
<line x1="863.3" y1="516.0" x2="863.3" y2="519.0" stroke="#999"/>
<text x="863.3" y="531.0" text-anchor="end" fill="#e8731a" transform="rotate(-50 863.3 531.0)">07-02</text>
<line x1="893.9" y1="516.0" x2="893.9" y2="519.0" stroke="#999"/>
<text x="893.9" y="531.0" text-anchor="end" fill="#e8731a" transform="rotate(-50 893.9 531.0)">07-03</text>
<line x1="924.5" y1="516.0" x2="924.5" y2="519.0" stroke="#999"/>
<text x="924.5" y="531.0" text-anchor="end" fill="#e8731a" transform="rotate(-50 924.5 531.0)">07-06</text>
<line x1="955.1" y1="516.0" x2="955.1" y2="519.0" stroke="#999"/>
<text x="955.1" y="531.0" text-anchor="end" fill="#e8731a" transform="rotate(-50 955.1 531.0)">07-07</text>
<line x1="985.6" y1="516.0" x2="985.6" y2="519.0" stroke="#999"/>
<text x="985.6" y="531.0" text-anchor="end" fill="#e8731a" transform="rotate(-50 985.6 531.0)">07-08</text>
<line x1="1016.2" y1="516.0" x2="1016.2" y2="519.0" stroke="#999"/>
<text x="1016.2" y="531.0" text-anchor="end" fill="#e8731a" transform="rotate(-50 1016.2 531.0)">07-09</text>
<line x1="1046.8" y1="516.0" x2="1046.8" y2="519.0" stroke="#999"/>
<text x="1046.8" y="531.0" text-anchor="end" fill="#e8731a" transform="rotate(-50 1046.8 531.0)">07-10</text>
<line x1="1077.4" y1="516.0" x2="1077.4" y2="519.0" stroke="#999"/>
<text x="1077.4" y="531.0" text-anchor="end" fill="#e8731a" transform="rotate(-50 1077.4 531.0)">07-11</text>
<line x1="1108.0" y1="516.0" x2="1108.0" y2="519.0" stroke="#999"/>
<text x="1108.0" y="531.0" text-anchor="end" fill="#e8731a" transform="rotate(-50 1108.0 531.0)">07-14</text>
<polygon points="68.0,507.2 98.6,507.4 129.2,506.8 159.8,507.3 190.4,506.9 220.9,507.1 251.5,507.3 282.1,507.5 312.7,507.2 343.3,507.5 373.9,506.5 404.5,506.9 435.1,506.8 465.6,506.4 496.2,506.6 526.8,506.5 557.4,506.0 588.0,505.0 618.6,505.5 649.2,505.5 679.8,505.9 710.4,506.0 740.9,505.0 771.5,505.3 802.1,505.1 832.7,505.1 863.3,504.8 893.9,505.0 924.5,504.9 955.1,506.1 985.6,505.5 1016.2,506.1 1046.8,506.0 1077.4,506.0 1108.0,506.1 1108.0,516.0 1077.4,516.0 1046.8,516.0 1016.2,516.0 985.6,516.0 955.1,516.0 924.5,516.0 893.9,516.0 863.3,516.0 832.7,516.0 802.1,516.0 771.5,516.0 740.9,516.0 710.4,516.0 679.8,516.0 649.2,516.0 618.6,516.0 588.0,516.0 557.4,516.0 526.8,516.0 496.2,516.0 465.6,516.0 435.1,516.0 404.5,516.0 373.9,516.0 343.3,516.0 312.7,516.0 282.1,516.0 251.5,516.0 220.9,516.0 190.4,516.0 159.8,516.0 129.2,516.0 98.6,516.0 68.0,516.0" fill="#c7e9c0" fill-opacity="0.9" stroke="#fff" stroke-width="0.4"><title>overload_resolution — parseTranslationUnit</title></polygon>
<polygon points="68.0,404.6 98.6,377.5 129.2,362.2 159.8,350.0 190.4,358.5 220.9,369.4 251.5,372.2 282.1,371.4 312.7,371.4 343.3,374.6 373.9,374.5 404.5,374.0 435.1,367.8 465.6,368.5 496.2,371.2 526.8,368.0 557.4,338.9 588.0,308.8 618.6,324.1 649.2,319.2 679.8,395.0 710.4,394.0 740.9,385.9 771.5,388.5 802.1,386.2 832.7,384.9 863.3,383.6 893.9,387.2 924.5,385.7 955.1,385.3 985.6,385.1 1016.2,384.5 1046.8,387.0 1077.4,386.4 1108.0,387.8 1108.0,506.1 1077.4,506.0 1046.8,506.0 1016.2,506.1 985.6,505.5 955.1,506.1 924.5,504.9 893.9,505.0 863.3,504.8 832.7,505.1 802.1,505.1 771.5,505.3 740.9,505.0 710.4,506.0 679.8,505.9 649.2,505.5 618.6,505.5 588.0,505.0 557.4,506.0 526.8,506.5 496.2,506.6 465.6,506.4 435.1,506.8 404.5,506.9 373.9,506.5 343.3,507.5 312.7,507.2 282.1,507.5 251.5,507.3 220.9,507.1 190.4,506.9 159.8,507.3 129.2,506.8 98.6,507.4 68.0,507.2" fill="#41ab5d" fill-opacity="0.9" stroke="#fff" stroke-width="0.4"><title>overload_resolution — SemanticChecking</title></polygon>
<polygon points="68.0,356.2 98.6,328.3 129.2,306.4 159.8,293.4 190.4,302.2 220.9,316.3 251.5,319.4 282.1,319.3 312.7,318.8 343.3,323.4 373.9,325.4 404.5,323.8 435.1,316.8 465.6,318.2 496.2,320.8 526.8,315.6 557.4,229.1 588.0,169.8 618.6,202.2 649.2,206.3 679.8,344.8 710.4,342.6 740.9,331.4 771.5,334.1 802.1,332.4 832.7,331.4 863.3,328.1 893.9,333.6 924.5,330.7 955.1,331.4 985.6,330.9 1016.2,330.3 1046.8,332.2 1077.4,331.8 1108.0,332.6 1108.0,387.8 1077.4,386.4 1046.8,387.0 1016.2,384.5 985.6,385.1 955.1,385.3 924.5,385.7 893.9,387.2 863.3,383.6 832.7,384.9 802.1,386.2 771.5,388.5 740.9,385.9 710.4,394.0 679.8,395.0 649.2,319.2 618.6,324.1 588.0,308.8 557.4,338.9 526.8,368.0 496.2,371.2 465.6,368.5 435.1,367.8 404.5,374.0 373.9,374.5 343.3,374.6 312.7,371.4 282.1,371.4 251.5,372.2 220.9,369.4 190.4,358.5 159.8,350.0 129.2,362.2 98.6,377.5 68.0,404.6" fill="#006d2c" fill-opacity="0.9" stroke="#fff" stroke-width="0.4"><title>overload_resolution — generateIR</title></polygon>
<polygon points="68.0,354.1 98.6,327.6 129.2,297.2 159.8,293.4 190.4,297.4 220.9,315.6 251.5,318.6 282.1,314.6 312.7,318.1 343.3,322.8 373.9,325.4 404.5,323.0 435.1,314.6 465.6,317.5 496.2,320.4 526.8,314.7 557.4,228.2 588.0,169.8 618.6,202.2 649.2,206.3 679.8,343.4 710.4,341.4 740.9,330.1 771.5,333.2 802.1,331.0 832.7,329.8 863.3,327.0 893.9,333.6 924.5,326.7 955.1,330.0 985.6,330.4 1016.2,329.7 1046.8,330.9 1077.4,330.6 1108.0,331.7 1108.0,332.6 1077.4,331.8 1046.8,332.2 1016.2,330.3 985.6,330.9 955.1,331.4 924.5,330.7 893.9,333.6 863.3,328.1 832.7,331.4 802.1,332.4 771.5,334.1 740.9,331.4 710.4,342.6 679.8,344.8 649.2,206.3 618.6,202.2 588.0,169.8 557.4,229.1 526.8,315.6 496.2,320.8 465.6,318.2 435.1,316.8 404.5,323.8 373.9,325.4 343.3,323.4 312.7,318.8 282.1,319.3 251.5,319.4 220.9,316.3 190.4,302.2 159.8,293.4 129.2,306.4 98.6,328.3 68.0,356.2" fill="#74c476" fill-opacity="0.9" stroke="#fff" stroke-width="0.4"><title>overload_resolution — frontEndExecute (self)</title></polygon>
<polygon points="68.0,329.8 98.6,303.3 129.2,270.5 159.8,260.9 190.4,265.3 220.9,289.9 251.5,292.9 282.1,289.5 312.7,292.8 343.3,296.8 373.9,299.9 404.5,297.0 435.1,288.7 465.6,291.7 496.2,293.7 526.8,287.5 557.4,201.6 588.0,133.4 618.6,174.8 649.2,178.7 679.8,318.4 710.4,316.1 740.9,300.9 771.5,303.6 802.1,299.7 832.7,300.4 863.3,295.6 893.9,304.0 924.5,296.7 955.1,299.5 985.6,299.1 1016.2,300.1 1046.8,301.6 1077.4,299.8 1108.0,301.2 1108.0,331.7 1077.4,330.6 1046.8,330.9 1016.2,329.7 985.6,330.4 955.1,330.0 924.5,326.7 893.9,333.6 863.3,327.0 832.7,329.8 802.1,331.0 771.5,333.2 740.9,330.1 710.4,341.4 679.8,343.4 649.2,206.3 618.6,202.2 588.0,169.8 557.4,228.2 526.8,314.7 496.2,320.4 465.6,317.5 435.1,314.6 404.5,323.0 373.9,325.4 343.3,322.8 312.7,318.1 282.1,314.6 251.5,318.6 220.9,315.6 190.4,297.4 159.8,293.4 129.2,297.2 98.6,327.6 68.0,354.1" fill="#e6550d" fill-opacity="0.9" stroke="#fff" stroke-width="0.4"><title>overload_resolution — generateOutput (self)</title></polygon>
<polygon points="68.0,329.8 98.6,303.3 129.2,268.8 159.8,218.5 190.4,262.0 220.9,289.5 251.5,292.9 282.1,289.5 312.7,290.3 343.3,296.8 373.9,299.9 404.5,296.2 435.1,287.9 465.6,291.7 496.2,292.7 526.8,287.5 557.4,201.6 588.0,108.6 618.6,168.1 649.2,178.7 679.8,316.5 710.4,315.6 740.9,299.5 771.5,302.7 802.1,299.2 832.7,300.4 863.3,295.6 893.9,304.0 924.5,295.8 955.1,299.5 985.6,299.1 1016.2,300.1 1046.8,301.6 1077.4,299.8 1108.0,301.2 1108.0,301.2 1077.4,299.8 1046.8,301.6 1016.2,300.1 985.6,299.1 955.1,299.5 924.5,296.7 893.9,304.0 863.3,295.6 832.7,300.4 802.1,299.7 771.5,303.6 740.9,300.9 710.4,316.1 679.8,318.4 649.2,178.7 618.6,174.8 588.0,133.4 557.4,201.6 526.8,287.5 496.2,293.7 465.6,291.7 435.1,288.7 404.5,297.0 373.9,299.9 343.3,296.8 312.7,292.8 282.1,289.5 251.5,292.9 220.9,289.9 190.4,265.3 159.8,260.9 129.2,270.5 98.6,303.3 68.0,329.8" fill="#969696" fill-opacity="0.9" stroke="#fff" stroke-width="0.4"><title>overload_resolution — compileInner (self)</title></polygon>
<text x="12" y="578" fill="#666" font-weight="600">phase buckets</text>
<rect x="12" y="586" width="12" height="12" fill="#c7e9c0"/>
<text x="28" y="596" fill="#222">parseTranslationUnit</text>
<rect x="289" y="586" width="12" height="12" fill="#41ab5d"/>
<text x="305" y="596" fill="#222">SemanticChecking</text>
<rect x="566" y="586" width="12" height="12" fill="#006d2c"/>
<text x="582" y="596" fill="#222">generateIR</text>
<rect x="843" y="586" width="12" height="12" fill="#74c476"/>
<text x="859" y="596" fill="#222">frontEndExecute (self)</text>
<rect x="12" y="604" width="12" height="12" fill="#6baed6"/>
<text x="28" y="614" fill="#222">specializeModule</text>
<rect x="289" y="604" width="12" height="12" fill="#2171b5"/>
<text x="305" y="614" fill="#222">simplifyIR</text>
<rect x="566" y="604" width="12" height="12" fill="#08306b"/>
<text x="582" y="614" fill="#222">linkIR</text>
<rect x="843" y="604" width="12" height="12" fill="#9e9ac8"/>
<text x="859" y="614" fill="#222">unrollLoopsInModule</text>
<rect x="12" y="622" width="12" height="12" fill="#807dba"/>
<text x="28" y="632" fill="#222">legalizeResourceTypes</text>
<rect x="289" y="622" width="12" height="12" fill="#6a51a3"/>
<text x="305" y="632" fill="#222">legalizeExistentialTypeLayout</text>
<rect x="566" y="622" width="12" height="12" fill="#bcbddc"/>
<text x="582" y="632" fill="#222">performMandatoryEarlyInlining</text>
<rect x="843" y="622" width="12" height="12" fill="#dadaeb"/>
<text x="859" y="632" fill="#222">performForceInlining</text>
<rect x="12" y="640" width="12" height="12" fill="#4a1486"/>
<text x="28" y="650" fill="#222">linkAndOptimizeIR (self)</text>
<rect x="289" y="640" width="12" height="12" fill="#fd8d3c"/>
<text x="305" y="650" fill="#222">emitEntryPointsSourceFromIR</text>
<rect x="566" y="640" width="12" height="12" fill="#e6550d"/>
<text x="582" y="650" fill="#222">generateOutput (self)</text>
<rect x="843" y="640" width="12" height="12" fill="#969696"/>
<text x="859" y="650" fill="#222">compileInner (self)</text>
</svg>