<svg xmlns="http://www.w3.org/2000/svg" xmlns:xlink="http://www.w3.org/1999/xlink" width="1132" height="680" viewBox="0 0 1132 680" preserveAspectRatio="xMidYMid meet" font-family="sans-serif" font-size="13">
<rect width="1132" height="680" fill="white"/>
<text x="12" y="30" font-size="20" font-weight="bold">overload_resolution — full phase breakdown across releases (median ms)</text>
<text x="68" y="60" font-size="15" font-weight="600" fill="#1a1a1a">overload_resolution<tspan fill="#888" font-weight="400" text-decoration="none">  1.17×</tspan></text>
<line x1="68.0" y1="516.0" x2="1108.0" y2="516.0" stroke="#eee"/>
<text x="64.0" y="519.0" text-anchor="end" fill="#999">0.0</text>
<line x1="68.0" y1="296.0" x2="1108.0" y2="296.0" stroke="#eee"/>
<text x="64.0" y="299.0" text-anchor="end" fill="#999">28</text>
<line x1="68.0" y1="76.0" x2="1108.0" y2="76.0" stroke="#eee"/>
<text x="64.0" y="79.0" text-anchor="end" fill="#999">57</text>
<line x1="68.0" y1="76.0" x2="68.0" y2="516.0" stroke="#333"/>
<line x1="68.0" y1="516.0" x2="1108.0" y2="516.0" stroke="#333"/>
<line x1="672.3" y1="76.0" x2="672.3" y2="516.0" stroke="#e8731a" stroke-width="1.2" stroke-dasharray="4 3"/>
<text x="675.3" y="87.0" fill="#e8731a" font-size="11">daily →</text>
<line x1="68.0" y1="516.0" x2="68.0" y2="519.0" stroke="#999"/>
<text x="68.0" y="531.0" text-anchor="end" fill="#666" transform="rotate(-50 68.0 531.0)">25.14</text>
<line x1="96.1" y1="516.0" x2="96.1" y2="519.0" stroke="#999"/>
<text x="96.1" y="531.0" text-anchor="end" fill="#666" transform="rotate(-50 96.1 531.0)">25.15</text>
<line x1="124.2" y1="516.0" x2="124.2" y2="519.0" stroke="#999"/>
<text x="124.2" y="531.0" text-anchor="end" fill="#666" transform="rotate(-50 124.2 531.0)">25.16</text>
<line x1="152.3" y1="516.0" x2="152.3" y2="519.0" stroke="#999"/>
<text x="152.3" y="531.0" text-anchor="end" fill="#666" transform="rotate(-50 152.3 531.0)">25.17</text>
<line x1="180.4" y1="516.0" x2="180.4" y2="519.0" stroke="#999"/>
<text x="180.4" y="531.0" text-anchor="end" fill="#666" transform="rotate(-50 180.4 531.0)">25.18</text>
<line x1="208.5" y1="516.0" x2="208.5" y2="519.0" stroke="#999"/>
<text x="208.5" y="531.0" text-anchor="end" fill="#666" transform="rotate(-50 208.5 531.0)">25.19</text>
<line x1="236.6" y1="516.0" x2="236.6" y2="519.0" stroke="#999"/>
<text x="236.6" y="531.0" text-anchor="end" fill="#666" transform="rotate(-50 236.6 531.0)">25.20</text>
<line x1="264.8" y1="516.0" x2="264.8" y2="519.0" stroke="#999"/>
<text x="264.8" y="531.0" text-anchor="end" fill="#666" transform="rotate(-50 264.8 531.0)">25.21</text>
<line x1="292.9" y1="516.0" x2="292.9" y2="519.0" stroke="#999"/>
<text x="292.9" y="531.0" text-anchor="end" fill="#666" transform="rotate(-50 292.9 531.0)">25.22</text>
<line x1="321.0" y1="516.0" x2="321.0" y2="519.0" stroke="#999"/>
<text x="321.0" y="531.0" text-anchor="end" fill="#666" transform="rotate(-50 321.0 531.0)">25.23</text>
<line x1="349.1" y1="516.0" x2="349.1" y2="519.0" stroke="#999"/>
<text x="349.1" y="531.0" text-anchor="end" fill="#666" transform="rotate(-50 349.1 531.0)">25.24</text>
<line x1="377.2" y1="516.0" x2="377.2" y2="519.0" stroke="#999"/>
<text x="377.2" y="531.0" text-anchor="end" fill="#666" transform="rotate(-50 377.2 531.0)">26.1</text>
<line x1="405.3" y1="516.0" x2="405.3" y2="519.0" stroke="#999"/>
<text x="405.3" y="531.0" text-anchor="end" fill="#666" transform="rotate(-50 405.3 531.0)">26.2</text>
<line x1="433.4" y1="516.0" x2="433.4" y2="519.0" stroke="#999"/>
<text x="433.4" y="531.0" text-anchor="end" fill="#666" transform="rotate(-50 433.4 531.0)">26.3</text>
<line x1="461.5" y1="516.0" x2="461.5" y2="519.0" stroke="#999"/>
<text x="461.5" y="531.0" text-anchor="end" fill="#666" transform="rotate(-50 461.5 531.0)">26.4</text>
<line x1="489.6" y1="516.0" x2="489.6" y2="519.0" stroke="#999"/>
<text x="489.6" y="531.0" text-anchor="end" fill="#666" transform="rotate(-50 489.6 531.0)">26.5</text>
<line x1="517.7" y1="516.0" x2="517.7" y2="519.0" stroke="#999"/>
<text x="517.7" y="531.0" text-anchor="end" fill="#666" transform="rotate(-50 517.7 531.0)">26.7</text>
<line x1="545.8" y1="516.0" x2="545.8" y2="519.0" stroke="#999"/>
<text x="545.8" y="531.0" text-anchor="end" fill="#666" transform="rotate(-50 545.8 531.0)">26.8</text>
<line x1="573.9" y1="516.0" x2="573.9" y2="519.0" stroke="#999"/>
<text x="573.9" y="531.0" text-anchor="end" fill="#666" transform="rotate(-50 573.9 531.0)">26.9</text>
<line x1="602.1" y1="516.0" x2="602.1" y2="519.0" stroke="#999"/>
<text x="602.1" y="531.0" text-anchor="end" fill="#666" transform="rotate(-50 602.1 531.0)">26.10</text>
<line x1="630.2" y1="516.0" x2="630.2" y2="519.0" stroke="#999"/>
<text x="630.2" y="531.0" text-anchor="end" fill="#666" transform="rotate(-50 630.2 531.0)">26.11</text>
<line x1="658.3" y1="516.0" x2="658.3" y2="519.0" stroke="#999"/>
<text x="658.3" y="531.0" text-anchor="end" fill="#666" transform="rotate(-50 658.3 531.0)">26.12</text>
<line x1="686.4" y1="516.0" x2="686.4" y2="519.0" stroke="#999"/>
<text x="686.4" y="531.0" text-anchor="end" fill="#e8731a" transform="rotate(-50 686.4 531.0)">06-25</text>
<line x1="714.5" y1="516.0" x2="714.5" y2="519.0" stroke="#999"/>
<text x="714.5" y="531.0" text-anchor="end" fill="#e8731a" transform="rotate(-50 714.5 531.0)">06-26</text>
<line x1="742.6" y1="516.0" x2="742.6" y2="519.0" stroke="#999"/>
<text x="742.6" y="531.0" text-anchor="end" fill="#e8731a" transform="rotate(-50 742.6 531.0)">06-28</text>
<line x1="770.7" y1="516.0" x2="770.7" y2="519.0" stroke="#999"/>
<text x="770.7" y="531.0" text-anchor="end" fill="#e8731a" transform="rotate(-50 770.7 531.0)">07-01</text>
<line x1="798.8" y1="516.0" x2="798.8" y2="519.0" stroke="#999"/>
<text x="798.8" y="531.0" text-anchor="end" fill="#e8731a" transform="rotate(-50 798.8 531.0)">07-02</text>
<line x1="826.9" y1="516.0" x2="826.9" y2="519.0" stroke="#999"/>
<text x="826.9" y="531.0" text-anchor="end" fill="#e8731a" transform="rotate(-50 826.9 531.0)">07-03</text>
<line x1="855.0" y1="516.0" x2="855.0" y2="519.0" stroke="#999"/>
<text x="855.0" y="531.0" text-anchor="end" fill="#e8731a" transform="rotate(-50 855.0 531.0)">07-06</text>
<line x1="883.1" y1="516.0" x2="883.1" y2="519.0" stroke="#999"/>
<text x="883.1" y="531.0" text-anchor="end" fill="#e8731a" transform="rotate(-50 883.1 531.0)">07-07</text>
<line x1="911.2" y1="516.0" x2="911.2" y2="519.0" stroke="#999"/>
<text x="911.2" y="531.0" text-anchor="end" fill="#e8731a" transform="rotate(-50 911.2 531.0)">07-07</text>
<line x1="939.4" y1="516.0" x2="939.4" y2="519.0" stroke="#999"/>
<text x="939.4" y="531.0" text-anchor="end" fill="#e8731a" transform="rotate(-50 939.4 531.0)">07-08</text>
<line x1="967.5" y1="516.0" x2="967.5" y2="519.0" stroke="#999"/>
<text x="967.5" y="531.0" text-anchor="end" fill="#e8731a" transform="rotate(-50 967.5 531.0)">07-09</text>
<line x1="995.6" y1="516.0" x2="995.6" y2="519.0" stroke="#999"/>
<text x="995.6" y="531.0" text-anchor="end" fill="#e8731a" transform="rotate(-50 995.6 531.0)">07-09</text>
<line x1="1023.7" y1="516.0" x2="1023.7" y2="519.0" stroke="#999"/>
<text x="1023.7" y="531.0" text-anchor="end" fill="#e8731a" transform="rotate(-50 1023.7 531.0)">07-10</text>
<line x1="1051.8" y1="516.0" x2="1051.8" y2="519.0" stroke="#999"/>
<text x="1051.8" y="531.0" text-anchor="end" fill="#e8731a" transform="rotate(-50 1051.8 531.0)">07-10</text>
<line x1="1079.9" y1="516.0" x2="1079.9" y2="519.0" stroke="#999"/>
<text x="1079.9" y="531.0" text-anchor="end" fill="#e8731a" transform="rotate(-50 1079.9 531.0)">07-11</text>
<line x1="1108.0" y1="516.0" x2="1108.0" y2="519.0" stroke="#999"/>
<text x="1108.0" y="531.0" text-anchor="end" fill="#e8731a" transform="rotate(-50 1108.0 531.0)">07-11</text>
<polygon points="68.0,504.1 96.1,504.8 124.2,505.0 152.3,503.6 180.4,502.9 208.5,504.2 236.6,504.0 264.8,503.8 292.9,503.7 321.0,504.3 349.1,503.6 377.2,503.4 405.3,503.7 433.4,503.6 461.5,503.5 489.6,503.1 517.7,502.6 545.8,502.8 573.9,502.8 602.1,501.8 630.2,502.3 658.3,502.3 686.4,501.5 714.5,501.6 742.6,500.9 770.7,501.3 798.8,501.6 826.9,501.0 855.0,500.9 883.1,502.2 911.2,502.6 939.4,501.7 967.5,502.7 995.6,502.5 1023.7,502.7 1051.8,502.3 1079.9,502.6 1108.0,502.3 1108.0,516.0 1079.9,516.0 1051.8,516.0 1023.7,516.0 995.6,516.0 967.5,516.0 939.4,516.0 911.2,516.0 883.1,516.0 855.0,516.0 826.9,516.0 798.8,516.0 770.7,516.0 742.6,516.0 714.5,516.0 686.4,516.0 658.3,516.0 630.2,516.0 602.1,516.0 573.9,516.0 545.8,516.0 517.7,516.0 489.6,516.0 461.5,516.0 433.4,516.0 405.3,516.0 377.2,516.0 349.1,516.0 321.0,516.0 292.9,516.0 264.8,516.0 236.6,516.0 208.5,516.0 180.4,516.0 152.3,516.0 124.2,516.0 96.1,516.0 68.0,516.0" fill="#c7e9c0" fill-opacity="0.9" stroke="#fff" stroke-width="0.4"><title>overload_resolution — parseTranslationUnit</title></polygon>
<polygon points="68.0,365.9 96.1,338.1 124.2,331.8 152.3,312.1 180.4,290.2 208.5,325.2 236.6,314.1 264.8,307.4 292.9,311.6 321.0,308.9 349.1,324.9 377.2,320.0 405.3,323.0 433.4,319.7 461.5,319.7 489.6,319.4 517.7,279.7 545.8,282.4 573.9,282.9 602.1,273.0 630.2,353.0 658.3,347.2 686.4,341.9 714.5,343.0 742.6,339.1 770.7,341.6 798.8,342.1 826.9,340.4 855.0,338.4 883.1,336.7 911.2,337.9 939.4,337.7 967.5,341.1 995.6,336.8 1023.7,341.3 1051.8,340.2 1079.9,342.9 1108.0,339.4 1108.0,502.3 1079.9,502.6 1051.8,502.3 1023.7,502.7 995.6,502.5 967.5,502.7 939.4,501.7 911.2,502.6 883.1,502.2 855.0,500.9 826.9,501.0 798.8,501.6 770.7,501.3 742.6,500.9 714.5,501.6 686.4,501.5 658.3,502.3 630.2,502.3 602.1,501.8 573.9,502.8 545.8,502.8 517.7,502.6 489.6,503.1 461.5,503.5 433.4,503.6 405.3,503.7 377.2,503.4 349.1,503.6 321.0,504.3 292.9,503.7 264.8,503.8 236.6,504.0 208.5,504.2 180.4,502.9 152.3,503.6 124.2,505.0 96.1,504.8 68.0,504.1" fill="#41ab5d" fill-opacity="0.9" stroke="#fff" stroke-width="0.4"><title>overload_resolution — SemanticChecking</title></polygon>
<polygon points="68.0,300.3 96.1,274.2 124.2,265.2 152.3,241.1 180.4,216.6 208.5,255.5 236.6,243.4 264.8,235.1 292.9,239.4 321.0,239.7 349.1,258.2 377.2,252.9 405.3,256.1 433.4,251.9 461.5,249.5 489.6,250.9 517.7,151.7 545.8,153.5 573.9,148.8 602.1,143.8 630.2,286.1 658.3,278.0 686.4,269.6 714.5,271.1 742.6,267.6 770.7,271.6 798.8,271.1 826.9,267.5 855.0,263.6 883.1,263.1 911.2,264.5 939.4,263.8 967.5,266.8 995.6,263.0 1023.7,267.5 1051.8,265.6 1079.9,268.6 1108.0,265.1 1108.0,339.4 1079.9,342.9 1051.8,340.2 1023.7,341.3 995.6,336.8 967.5,341.1 939.4,337.7 911.2,337.9 883.1,336.7 855.0,338.4 826.9,340.4 798.8,342.1 770.7,341.6 742.6,339.1 714.5,343.0 686.4,341.9 658.3,347.2 630.2,353.0 602.1,273.0 573.9,282.9 545.8,282.4 517.7,279.7 489.6,319.4 461.5,319.7 433.4,319.7 405.3,323.0 377.2,320.0 349.1,324.9 321.0,308.9 292.9,311.6 264.8,307.4 236.6,314.1 208.5,325.2 180.4,290.2 152.3,312.1 124.2,331.8 96.1,338.1 68.0,365.9" fill="#006d2c" fill-opacity="0.9" stroke="#fff" stroke-width="0.4"><title>overload_resolution — generateIR</title></polygon>
<polygon points="68.0,298.7 96.1,273.5 124.2,265.2 152.3,239.7 180.4,183.3 208.5,255.5 236.6,242.4 264.8,235.1 292.9,238.8 321.0,233.3 349.1,257.0 377.2,252.9 405.3,255.1 433.4,250.5 461.5,248.0 489.6,250.9 517.7,150.5 545.8,148.7 573.9,147.6 602.1,143.8 630.2,283.0 658.3,277.0 686.4,267.6 714.5,269.4 742.6,267.6 770.7,270.2 798.8,270.2 826.9,267.5 855.0,258.1 883.1,261.1 911.2,262.5 939.4,263.1 967.5,266.8 995.6,262.2 1023.7,267.1 1051.8,263.8 1079.9,267.2 1108.0,263.4 1108.0,265.1 1079.9,268.6 1051.8,265.6 1023.7,267.5 995.6,263.0 967.5,266.8 939.4,263.8 911.2,264.5 883.1,263.1 855.0,263.6 826.9,267.5 798.8,271.1 770.7,271.6 742.6,267.6 714.5,271.1 686.4,269.6 658.3,278.0 630.2,286.1 602.1,143.8 573.9,148.8 545.8,153.5 517.7,151.7 489.6,250.9 461.5,249.5 433.4,251.9 405.3,256.1 377.2,252.9 349.1,258.2 321.0,239.7 292.9,239.4 264.8,235.1 236.6,243.4 208.5,255.5 180.4,216.6 152.3,241.1 124.2,265.2 96.1,274.2 68.0,300.3" fill="#74c476" fill-opacity="0.9" stroke="#fff" stroke-width="0.4"><title>overload_resolution — frontEndExecute (self)</title></polygon>
<polygon points="68.0,266.1 96.1,240.4 124.2,232.9 152.3,200.4 180.4,139.7 208.5,220.3 236.6,207.3 264.8,200.6 292.9,204.6 321.0,196.2 349.1,222.4 377.2,217.6 405.3,220.3 433.4,215.4 461.5,213.1 489.6,216.4 517.7,115.8 545.8,114.9 573.9,112.1 602.1,108.6 630.2,249.9 658.3,242.4 686.4,227.4 714.5,228.8 742.6,225.1 770.7,231.9 798.8,229.2 826.9,227.2 855.0,217.2 883.1,218.5 911.2,221.0 939.4,220.4 967.5,227.2 995.6,221.9 1023.7,227.7 1051.8,223.8 1079.9,227.5 1108.0,221.4 1108.0,263.4 1079.9,267.2 1051.8,263.8 1023.7,267.1 995.6,262.2 967.5,266.8 939.4,263.1 911.2,262.5 883.1,261.1 855.0,258.1 826.9,267.5 798.8,270.2 770.7,270.2 742.6,267.6 714.5,269.4 686.4,267.6 658.3,277.0 630.2,283.0 602.1,143.8 573.9,147.6 545.8,148.7 517.7,150.5 489.6,250.9 461.5,248.0 433.4,250.5 405.3,255.1 377.2,252.9 349.1,257.0 321.0,233.3 292.9,238.8 264.8,235.1 236.6,242.4 208.5,255.5 180.4,183.3 152.3,239.7 124.2,265.2 96.1,273.5 68.0,298.7" fill="#e6550d" fill-opacity="0.9" stroke="#fff" stroke-width="0.4"><title>overload_resolution — generateOutput (self)</title></polygon>
<polygon points="68.0,265.1 96.1,240.4 124.2,232.1 152.3,199.0 180.4,115.1 208.5,220.0 236.6,207.3 264.8,197.2 292.9,198.4 321.0,196.2 349.1,221.5 377.2,217.6 405.3,220.3 433.4,215.4 461.5,211.2 489.6,216.4 517.7,115.8 545.8,114.4 573.9,112.1 602.1,108.6 630.2,249.9 658.3,242.4 686.4,226.8 714.5,228.8 742.6,225.1 770.7,231.9 798.8,229.2 826.9,227.2 855.0,216.0 883.1,218.1 911.2,221.0 939.4,220.4 967.5,226.8 995.6,221.9 1023.7,227.7 1051.8,223.8 1079.9,227.1 1108.0,221.4 1108.0,221.4 1079.9,227.5 1051.8,223.8 1023.7,227.7 995.6,221.9 967.5,227.2 939.4,220.4 911.2,221.0 883.1,218.5 855.0,217.2 826.9,227.2 798.8,229.2 770.7,231.9 742.6,225.1 714.5,228.8 686.4,227.4 658.3,242.4 630.2,249.9 602.1,108.6 573.9,112.1 545.8,114.9 517.7,115.8 489.6,216.4 461.5,213.1 433.4,215.4 405.3,220.3 377.2,217.6 349.1,222.4 321.0,196.2 292.9,204.6 264.8,200.6 236.6,207.3 208.5,220.3 180.4,139.7 152.3,200.4 124.2,232.9 96.1,240.4 68.0,266.1" fill="#969696" fill-opacity="0.9" stroke="#fff" stroke-width="0.4"><title>overload_resolution — compileInner (self)</title></polygon>
<text x="12" y="578" fill="#666" font-weight="600">phase buckets</text>
<rect x="12" y="586" width="12" height="12" fill="#c7e9c0"/>
<text x="28" y="596" fill="#222">parseTranslationUnit</text>
<rect x="289" y="586" width="12" height="12" fill="#41ab5d"/>
<text x="305" y="596" fill="#222">SemanticChecking</text>
<rect x="566" y="586" width="12" height="12" fill="#006d2c"/>
<text x="582" y="596" fill="#222">generateIR</text>
<rect x="843" y="586" width="12" height="12" fill="#74c476"/>
<text x="859" y="596" fill="#222">frontEndExecute (self)</text>
<rect x="12" y="604" width="12" height="12" fill="#6baed6"/>
<text x="28" y="614" fill="#222">specializeModule</text>
<rect x="289" y="604" width="12" height="12" fill="#2171b5"/>
<text x="305" y="614" fill="#222">simplifyIR</text>
<rect x="566" y="604" width="12" height="12" fill="#08306b"/>
<text x="582" y="614" fill="#222">linkIR</text>
<rect x="843" y="604" width="12" height="12" fill="#9e9ac8"/>
<text x="859" y="614" fill="#222">unrollLoopsInModule</text>
<rect x="12" y="622" width="12" height="12" fill="#807dba"/>
<text x="28" y="632" fill="#222">legalizeResourceTypes</text>
<rect x="289" y="622" width="12" height="12" fill="#6a51a3"/>
<text x="305" y="632" fill="#222">legalizeExistentialTypeLayout</text>
<rect x="566" y="622" width="12" height="12" fill="#bcbddc"/>
<text x="582" y="632" fill="#222">performMandatoryEarlyInlining</text>
<rect x="843" y="622" width="12" height="12" fill="#dadaeb"/>
<text x="859" y="632" fill="#222">performForceInlining</text>
<rect x="12" y="640" width="12" height="12" fill="#4a1486"/>
<text x="28" y="650" fill="#222">linkAndOptimizeIR (self)</text>
<rect x="289" y="640" width="12" height="12" fill="#fd8d3c"/>
<text x="305" y="650" fill="#222">emitEntryPointsSourceFromIR</text>
<rect x="566" y="640" width="12" height="12" fill="#e6550d"/>
<text x="582" y="650" fill="#222">generateOutput (self)</text>
<rect x="843" y="640" width="12" height="12" fill="#969696"/>
<text x="859" y="650" fill="#222">compileInner (self)</text>
</svg>