<svg xmlns="http://www.w3.org/2000/svg" xmlns:xlink="http://www.w3.org/1999/xlink" width="1132" height="680" viewBox="0 0 1132 680" preserveAspectRatio="xMidYMid meet" font-family="sans-serif" font-size="13">
<rect width="1132" height="680" fill="white"/>
<text x="12" y="30" font-size="20" font-weight="bold">overload_resolution — Daily tip-of-tree (last 30 days) (median ms)</text>
<text x="68" y="60" font-size="15" font-weight="600" fill="#1a1a1a">overload_resolution<tspan fill="#888" font-weight="400" text-decoration="none">  0.91×</tspan></text>
<line x1="68.0" y1="516.0" x2="1108.0" y2="516.0" stroke="#eee"/>
<text x="64.0" y="519.0" text-anchor="end" fill="#999">0.0</text>
<line x1="68.0" y1="296.0" x2="1108.0" y2="296.0" stroke="#eee"/>
<text x="64.0" y="299.0" text-anchor="end" fill="#999">21</text>
<line x1="68.0" y1="76.0" x2="1108.0" y2="76.0" stroke="#eee"/>
<text x="64.0" y="79.0" text-anchor="end" fill="#999">42</text>
<line x1="68.0" y1="76.0" x2="68.0" y2="516.0" stroke="#333"/>
<line x1="68.0" y1="516.0" x2="1108.0" y2="516.0" stroke="#333"/>
<line x1="68.0" y1="516.0" x2="68.0" y2="519.0" stroke="#999"/>
<text x="68.0" y="531.0" text-anchor="end" fill="#e8731a" transform="rotate(-50 68.0 531.0)">06-25</text>
<line x1="117.5" y1="516.0" x2="117.5" y2="519.0" stroke="#999"/>
<text x="117.5" y="531.0" text-anchor="end" fill="#e8731a" transform="rotate(-50 117.5 531.0)">06-26</text>
<line x1="167.0" y1="516.0" x2="167.0" y2="519.0" stroke="#999"/>
<text x="167.0" y="531.0" text-anchor="end" fill="#e8731a" transform="rotate(-50 167.0 531.0)">06-28</text>
<line x1="216.6" y1="516.0" x2="216.6" y2="519.0" stroke="#999"/>
<text x="216.6" y="531.0" text-anchor="end" fill="#e8731a" transform="rotate(-50 216.6 531.0)">07-01</text>
<line x1="266.1" y1="516.0" x2="266.1" y2="519.0" stroke="#999"/>
<text x="266.1" y="531.0" text-anchor="end" fill="#e8731a" transform="rotate(-50 266.1 531.0)">07-02</text>
<line x1="315.6" y1="516.0" x2="315.6" y2="519.0" stroke="#999"/>
<text x="315.6" y="531.0" text-anchor="end" fill="#e8731a" transform="rotate(-50 315.6 531.0)">07-03</text>
<line x1="365.1" y1="516.0" x2="365.1" y2="519.0" stroke="#999"/>
<text x="365.1" y="531.0" text-anchor="end" fill="#e8731a" transform="rotate(-50 365.1 531.0)">07-06</text>
<line x1="414.7" y1="516.0" x2="414.7" y2="519.0" stroke="#999"/>
<text x="414.7" y="531.0" text-anchor="end" fill="#e8731a" transform="rotate(-50 414.7 531.0)">07-07</text>
<line x1="464.2" y1="516.0" x2="464.2" y2="519.0" stroke="#999"/>
<text x="464.2" y="531.0" text-anchor="end" fill="#e8731a" transform="rotate(-50 464.2 531.0)">07-08</text>
<line x1="513.7" y1="516.0" x2="513.7" y2="519.0" stroke="#999"/>
<text x="513.7" y="531.0" text-anchor="end" fill="#e8731a" transform="rotate(-50 513.7 531.0)">07-09</text>
<line x1="563.2" y1="516.0" x2="563.2" y2="519.0" stroke="#999"/>
<text x="563.2" y="531.0" text-anchor="end" fill="#e8731a" transform="rotate(-50 563.2 531.0)">07-10</text>
<line x1="612.8" y1="516.0" x2="612.8" y2="519.0" stroke="#999"/>
<text x="612.8" y="531.0" text-anchor="end" fill="#e8731a" transform="rotate(-50 612.8 531.0)">07-11</text>
<line x1="662.3" y1="516.0" x2="662.3" y2="519.0" stroke="#999"/>
<text x="662.3" y="531.0" text-anchor="end" fill="#e8731a" transform="rotate(-50 662.3 531.0)">07-14</text>
<line x1="711.8" y1="516.0" x2="711.8" y2="519.0" stroke="#999"/>
<text x="711.8" y="531.0" text-anchor="end" fill="#e8731a" transform="rotate(-50 711.8 531.0)">07-15</text>
<line x1="761.3" y1="516.0" x2="761.3" y2="519.0" stroke="#999"/>
<text x="761.3" y="531.0" text-anchor="end" fill="#e8731a" transform="rotate(-50 761.3 531.0)">07-15</text>
<line x1="810.9" y1="516.0" x2="810.9" y2="519.0" stroke="#999"/>
<text x="810.9" y="531.0" text-anchor="end" fill="#e8731a" transform="rotate(-50 810.9 531.0)">07-16</text>
<line x1="860.4" y1="516.0" x2="860.4" y2="519.0" stroke="#999"/>
<text x="860.4" y="531.0" text-anchor="end" fill="#e8731a" transform="rotate(-50 860.4 531.0)">07-17</text>
<line x1="909.9" y1="516.0" x2="909.9" y2="519.0" stroke="#999"/>
<text x="909.9" y="531.0" text-anchor="end" fill="#e8731a" transform="rotate(-50 909.9 531.0)">07-18</text>
<line x1="959.4" y1="516.0" x2="959.4" y2="519.0" stroke="#999"/>
<text x="959.4" y="531.0" text-anchor="end" fill="#e8731a" transform="rotate(-50 959.4 531.0)">07-19</text>
<line x1="1009.0" y1="516.0" x2="1009.0" y2="519.0" stroke="#999"/>
<text x="1009.0" y="531.0" text-anchor="end" fill="#e8731a" transform="rotate(-50 1009.0 531.0)">07-20</text>
<line x1="1058.5" y1="516.0" x2="1058.5" y2="519.0" stroke="#999"/>
<text x="1058.5" y="531.0" text-anchor="end" fill="#e8731a" transform="rotate(-50 1058.5 531.0)">07-21</text>
<line x1="1108.0" y1="516.0" x2="1108.0" y2="519.0" stroke="#999"/>
<text x="1108.0" y="531.0" text-anchor="end" fill="#e8731a" transform="rotate(-50 1108.0 531.0)">07-22</text>
<polygon points="68.0,495.8 117.5,496.3 167.0,495.9 216.6,495.9 266.1,495.4 315.6,495.8 365.1,495.7 414.7,497.9 464.2,496.7 513.7,497.8 563.2,497.6 612.8,497.6 662.3,497.8 711.8,499.6 761.3,499.4 810.9,499.3 860.4,499.2 909.9,500.0 959.4,500.2 1009.0,500.2 1058.5,500.3 1108.0,500.4 1108.0,516.0 1058.5,516.0 1009.0,516.0 959.4,516.0 909.9,516.0 860.4,516.0 810.9,516.0 761.3,516.0 711.8,516.0 662.3,516.0 612.8,516.0 563.2,516.0 513.7,516.0 464.2,516.0 414.7,516.0 365.1,516.0 315.6,516.0 266.1,516.0 216.6,516.0 167.0,516.0 117.5,516.0 68.0,516.0" fill="#c7e9c0" fill-opacity="0.9" stroke="#fff" stroke-width="0.4"><title>overload_resolution — parseTranslationUnit</title></polygon>
<polygon points="68.0,277.1 117.5,281.9 167.0,277.7 216.6,275.2 266.1,272.8 315.6,279.4 365.1,276.7 414.7,276.0 464.2,275.7 513.7,274.5 563.2,279.1 612.8,277.9 662.3,280.5 711.8,298.9 761.3,298.0 810.9,264.3 860.4,262.4 909.9,282.8 959.4,286.1 1009.0,288.7 1058.5,287.0 1108.0,291.5 1108.0,500.4 1058.5,500.3 1009.0,500.2 959.4,500.2 909.9,500.0 860.4,499.2 810.9,499.3 761.3,499.4 711.8,499.6 662.3,497.8 612.8,497.6 563.2,497.6 513.7,497.8 464.2,496.7 414.7,497.9 365.1,495.7 315.6,495.8 266.1,495.4 216.6,495.9 167.0,495.9 117.5,496.3 68.0,495.8" fill="#41ab5d" fill-opacity="0.9" stroke="#fff" stroke-width="0.4"><title>overload_resolution — SemanticChecking</title></polygon>
<polygon points="68.0,177.0 117.5,182.0 167.0,179.0 216.6,177.1 266.1,170.9 315.6,181.0 365.1,175.8 414.7,177.1 464.2,176.1 513.7,175.0 563.2,178.5 612.8,177.8 662.3,179.2 711.8,205.9 761.3,203.1 810.9,168.2 860.4,165.8 909.9,198.5 959.4,201.8 1009.0,204.7 1058.5,204.8 1108.0,205.4 1108.0,291.5 1058.5,287.0 1009.0,288.7 959.4,286.1 909.9,282.8 860.4,262.4 810.9,264.3 761.3,298.0 711.8,298.9 662.3,280.5 612.8,277.9 563.2,279.1 513.7,274.5 464.2,275.7 414.7,276.0 365.1,276.7 315.6,279.4 266.1,272.8 216.6,275.2 167.0,277.7 117.5,281.9 68.0,277.1" fill="#006d2c" fill-opacity="0.9" stroke="#fff" stroke-width="0.4"><title>overload_resolution — generateIR</title></polygon>
<polygon points="68.0,174.7 117.5,180.3 167.0,176.3 216.6,174.2 266.1,168.9 315.6,181.0 365.1,168.4 414.7,174.4 464.2,175.2 513.7,174.0 563.2,176.1 612.8,175.6 662.3,177.5 711.8,204.5 761.3,203.1 810.9,165.5 860.4,165.0 909.9,195.8 959.4,201.8 1009.0,203.6 1058.5,203.5 1108.0,204.0 1108.0,205.4 1058.5,204.8 1009.0,204.7 959.4,201.8 909.9,198.5 860.4,165.8 810.9,168.2 761.3,203.1 711.8,205.9 662.3,179.2 612.8,177.8 563.2,178.5 513.7,175.0 464.2,176.1 414.7,177.1 365.1,175.8 315.6,181.0 266.1,170.9 216.6,177.1 167.0,179.0 117.5,182.0 68.0,177.0" fill="#74c476" fill-opacity="0.9" stroke="#fff" stroke-width="0.4"><title>overload_resolution — frontEndExecute (self)</title></polygon>
<polygon points="68.0,121.1 117.5,126.0 167.0,118.9 216.6,120.1 266.1,111.3 315.6,126.8 365.1,113.3 414.7,118.4 464.2,117.6 513.7,119.6 563.2,122.2 612.8,119.0 662.3,121.5 711.8,149.8 761.3,148.1 810.9,111.0 860.4,108.6 909.9,145.2 959.4,151.1 1009.0,155.5 1058.5,156.1 1108.0,155.6 1108.0,204.0 1058.5,203.5 1009.0,203.6 959.4,201.8 909.9,195.8 860.4,165.0 810.9,165.5 761.3,203.1 711.8,204.5 662.3,177.5 612.8,175.6 563.2,176.1 513.7,174.0 464.2,175.2 414.7,174.4 365.1,168.4 315.6,181.0 266.1,168.9 216.6,174.2 167.0,176.3 117.5,180.3 68.0,174.7" fill="#e6550d" fill-opacity="0.9" stroke="#fff" stroke-width="0.4"><title>overload_resolution — generateOutput (self)</title></polygon>
<polygon points="68.0,118.4 117.5,124.3 167.0,117.9 216.6,120.1 266.1,111.3 315.6,126.8 365.1,111.7 414.7,118.4 464.2,117.6 513.7,119.6 563.2,122.2 612.8,119.0 662.3,121.5 711.8,148.9 761.3,148.1 810.9,111.0 860.4,108.6 909.9,145.2 959.4,150.3 1009.0,154.3 1058.5,154.8 1108.0,155.6 1108.0,155.6 1058.5,156.1 1009.0,155.5 959.4,151.1 909.9,145.2 860.4,108.6 810.9,111.0 761.3,148.1 711.8,149.8 662.3,121.5 612.8,119.0 563.2,122.2 513.7,119.6 464.2,117.6 414.7,118.4 365.1,113.3 315.6,126.8 266.1,111.3 216.6,120.1 167.0,118.9 117.5,126.0 68.0,121.1" fill="#969696" fill-opacity="0.9" stroke="#fff" stroke-width="0.4"><title>overload_resolution — compileInner (self)</title></polygon>
<text x="12" y="578" fill="#666" font-weight="600">phase buckets</text>
<rect x="12" y="586" width="12" height="12" fill="#c7e9c0"/>
<text x="28" y="596" fill="#222">parseTranslationUnit</text>
<rect x="289" y="586" width="12" height="12" fill="#41ab5d"/>
<text x="305" y="596" fill="#222">SemanticChecking</text>
<rect x="566" y="586" width="12" height="12" fill="#006d2c"/>
<text x="582" y="596" fill="#222">generateIR</text>
<rect x="843" y="586" width="12" height="12" fill="#74c476"/>
<text x="859" y="596" fill="#222">frontEndExecute (self)</text>
<rect x="12" y="604" width="12" height="12" fill="#6baed6"/>
<text x="28" y="614" fill="#222">specializeModule</text>
<rect x="289" y="604" width="12" height="12" fill="#2171b5"/>
<text x="305" y="614" fill="#222">simplifyIR</text>
<rect x="566" y="604" width="12" height="12" fill="#08306b"/>
<text x="582" y="614" fill="#222">linkIR</text>
<rect x="843" y="604" width="12" height="12" fill="#9e9ac8"/>
<text x="859" y="614" fill="#222">unrollLoopsInModule</text>
<rect x="12" y="622" width="12" height="12" fill="#807dba"/>
<text x="28" y="632" fill="#222">legalizeResourceTypes</text>
<rect x="289" y="622" width="12" height="12" fill="#6a51a3"/>
<text x="305" y="632" fill="#222">legalizeExistentialTypeLayout</text>
<rect x="566" y="622" width="12" height="12" fill="#bcbddc"/>
<text x="582" y="632" fill="#222">performMandatoryEarlyInlining</text>
<rect x="843" y="622" width="12" height="12" fill="#dadaeb"/>
<text x="859" y="632" fill="#222">performForceInlining</text>
<rect x="12" y="640" width="12" height="12" fill="#4a1486"/>
<text x="28" y="650" fill="#222">linkAndOptimizeIR (self)</text>
<rect x="289" y="640" width="12" height="12" fill="#fd8d3c"/>
<text x="305" y="650" fill="#222">emitEntryPointsSourceFromIR</text>
<rect x="566" y="640" width="12" height="12" fill="#e6550d"/>
<text x="582" y="650" fill="#222">generateOutput (self)</text>
<rect x="843" y="640" width="12" height="12" fill="#969696"/>
<text x="859" y="650" fill="#222">compileInner (self)</text>
</svg>