<svg xmlns="http://www.w3.org/2000/svg" xmlns:xlink="http://www.w3.org/1999/xlink" width="1132" height="680" viewBox="0 0 1132 680" preserveAspectRatio="xMidYMid meet" font-family="sans-serif" font-size="13">
<rect width="1132" height="680" fill="white"/>
<text x="12" y="30" font-size="20" font-weight="bold">overload_resolution — full phase breakdown across releases (median ms)</text>
<text x="68" y="60" font-size="15" font-weight="600" fill="#1a1a1a">overload_resolution<tspan fill="#888" font-weight="400" text-decoration="none">  1.15×</tspan></text>
<line x1="68.0" y1="516.0" x2="1108.0" y2="516.0" stroke="#eee"/>
<text x="64.0" y="519.0" text-anchor="end" fill="#999">0.0</text>
<line x1="68.0" y1="296.0" x2="1108.0" y2="296.0" stroke="#eee"/>
<text x="64.0" y="299.0" text-anchor="end" fill="#999">28</text>
<line x1="68.0" y1="76.0" x2="1108.0" y2="76.0" stroke="#eee"/>
<text x="64.0" y="79.0" text-anchor="end" fill="#999">57</text>
<line x1="68.0" y1="76.0" x2="68.0" y2="516.0" stroke="#333"/>
<line x1="68.0" y1="516.0" x2="1108.0" y2="516.0" stroke="#333"/>
<line x1="813.3" y1="76.0" x2="813.3" y2="516.0" stroke="#e8731a" stroke-width="1.2" stroke-dasharray="4 3"/>
<text x="816.3" y="87.0" fill="#e8731a" font-size="11">daily →</text>
<line x1="68.0" y1="516.0" x2="68.0" y2="519.0" stroke="#999"/>
<text x="68.0" y="531.0" text-anchor="end" fill="#666" transform="rotate(-50 68.0 531.0)">25.14</text>
<line x1="102.7" y1="516.0" x2="102.7" y2="519.0" stroke="#999"/>
<text x="102.7" y="531.0" text-anchor="end" fill="#666" transform="rotate(-50 102.7 531.0)">25.15</text>
<line x1="137.3" y1="516.0" x2="137.3" y2="519.0" stroke="#999"/>
<text x="137.3" y="531.0" text-anchor="end" fill="#666" transform="rotate(-50 137.3 531.0)">25.16</text>
<line x1="172.0" y1="516.0" x2="172.0" y2="519.0" stroke="#999"/>
<text x="172.0" y="531.0" text-anchor="end" fill="#666" transform="rotate(-50 172.0 531.0)">25.17</text>
<line x1="206.7" y1="516.0" x2="206.7" y2="519.0" stroke="#999"/>
<text x="206.7" y="531.0" text-anchor="end" fill="#666" transform="rotate(-50 206.7 531.0)">25.18</text>
<line x1="241.3" y1="516.0" x2="241.3" y2="519.0" stroke="#999"/>
<text x="241.3" y="531.0" text-anchor="end" fill="#666" transform="rotate(-50 241.3 531.0)">25.19</text>
<line x1="276.0" y1="516.0" x2="276.0" y2="519.0" stroke="#999"/>
<text x="276.0" y="531.0" text-anchor="end" fill="#666" transform="rotate(-50 276.0 531.0)">25.20</text>
<line x1="310.7" y1="516.0" x2="310.7" y2="519.0" stroke="#999"/>
<text x="310.7" y="531.0" text-anchor="end" fill="#666" transform="rotate(-50 310.7 531.0)">25.21</text>
<line x1="345.3" y1="516.0" x2="345.3" y2="519.0" stroke="#999"/>
<text x="345.3" y="531.0" text-anchor="end" fill="#666" transform="rotate(-50 345.3 531.0)">25.22</text>
<line x1="380.0" y1="516.0" x2="380.0" y2="519.0" stroke="#999"/>
<text x="380.0" y="531.0" text-anchor="end" fill="#666" transform="rotate(-50 380.0 531.0)">25.23</text>
<line x1="414.7" y1="516.0" x2="414.7" y2="519.0" stroke="#999"/>
<text x="414.7" y="531.0" text-anchor="end" fill="#666" transform="rotate(-50 414.7 531.0)">25.24</text>
<line x1="449.3" y1="516.0" x2="449.3" y2="519.0" stroke="#999"/>
<text x="449.3" y="531.0" text-anchor="end" fill="#666" transform="rotate(-50 449.3 531.0)">26.1</text>
<line x1="484.0" y1="516.0" x2="484.0" y2="519.0" stroke="#999"/>
<text x="484.0" y="531.0" text-anchor="end" fill="#666" transform="rotate(-50 484.0 531.0)">26.2</text>
<line x1="518.7" y1="516.0" x2="518.7" y2="519.0" stroke="#999"/>
<text x="518.7" y="531.0" text-anchor="end" fill="#666" transform="rotate(-50 518.7 531.0)">26.3</text>
<line x1="553.3" y1="516.0" x2="553.3" y2="519.0" stroke="#999"/>
<text x="553.3" y="531.0" text-anchor="end" fill="#666" transform="rotate(-50 553.3 531.0)">26.4</text>
<line x1="588.0" y1="516.0" x2="588.0" y2="519.0" stroke="#999"/>
<text x="588.0" y="531.0" text-anchor="end" fill="#666" transform="rotate(-50 588.0 531.0)">26.5</text>
<line x1="622.7" y1="516.0" x2="622.7" y2="519.0" stroke="#999"/>
<text x="622.7" y="531.0" text-anchor="end" fill="#666" transform="rotate(-50 622.7 531.0)">26.7</text>
<line x1="657.3" y1="516.0" x2="657.3" y2="519.0" stroke="#999"/>
<text x="657.3" y="531.0" text-anchor="end" fill="#666" transform="rotate(-50 657.3 531.0)">26.8</text>
<line x1="692.0" y1="516.0" x2="692.0" y2="519.0" stroke="#999"/>
<text x="692.0" y="531.0" text-anchor="end" fill="#666" transform="rotate(-50 692.0 531.0)">26.9</text>
<line x1="726.7" y1="516.0" x2="726.7" y2="519.0" stroke="#999"/>
<text x="726.7" y="531.0" text-anchor="end" fill="#666" transform="rotate(-50 726.7 531.0)">26.10</text>
<line x1="761.3" y1="516.0" x2="761.3" y2="519.0" stroke="#999"/>
<text x="761.3" y="531.0" text-anchor="end" fill="#666" transform="rotate(-50 761.3 531.0)">26.11</text>
<line x1="796.0" y1="516.0" x2="796.0" y2="519.0" stroke="#999"/>
<text x="796.0" y="531.0" text-anchor="end" fill="#666" transform="rotate(-50 796.0 531.0)">26.12</text>
<line x1="830.7" y1="516.0" x2="830.7" y2="519.0" stroke="#999"/>
<text x="830.7" y="531.0" text-anchor="end" fill="#e8731a" transform="rotate(-50 830.7 531.0)">06-25</text>
<line x1="865.3" y1="516.0" x2="865.3" y2="519.0" stroke="#999"/>
<text x="865.3" y="531.0" text-anchor="end" fill="#e8731a" transform="rotate(-50 865.3 531.0)">06-26</text>
<line x1="900.0" y1="516.0" x2="900.0" y2="519.0" stroke="#999"/>
<text x="900.0" y="531.0" text-anchor="end" fill="#e8731a" transform="rotate(-50 900.0 531.0)">06-28</text>
<line x1="934.7" y1="516.0" x2="934.7" y2="519.0" stroke="#999"/>
<text x="934.7" y="531.0" text-anchor="end" fill="#e8731a" transform="rotate(-50 934.7 531.0)">07-01</text>
<line x1="969.3" y1="516.0" x2="969.3" y2="519.0" stroke="#999"/>
<text x="969.3" y="531.0" text-anchor="end" fill="#e8731a" transform="rotate(-50 969.3 531.0)">07-02</text>
<line x1="1004.0" y1="516.0" x2="1004.0" y2="519.0" stroke="#999"/>
<text x="1004.0" y="531.0" text-anchor="end" fill="#e8731a" transform="rotate(-50 1004.0 531.0)">07-03</text>
<line x1="1038.7" y1="516.0" x2="1038.7" y2="519.0" stroke="#999"/>
<text x="1038.7" y="531.0" text-anchor="end" fill="#e8731a" transform="rotate(-50 1038.7 531.0)">07-07</text>
<line x1="1073.3" y1="516.0" x2="1073.3" y2="519.0" stroke="#999"/>
<text x="1073.3" y="531.0" text-anchor="end" fill="#e8731a" transform="rotate(-50 1073.3 531.0)">07-07</text>
<line x1="1108.0" y1="516.0" x2="1108.0" y2="519.0" stroke="#999"/>
<text x="1108.0" y="531.0" text-anchor="end" fill="#e8731a" transform="rotate(-50 1108.0 531.0)">07-09</text>
<polygon points="68.0,504.1 102.7,504.8 137.3,505.0 172.0,503.6 206.7,502.9 241.3,504.2 276.0,504.0 310.7,503.8 345.3,503.7 380.0,504.3 414.7,503.6 449.3,503.4 484.0,503.7 518.7,503.6 553.3,503.5 588.0,503.1 622.7,502.6 657.3,502.8 692.0,502.8 726.7,501.8 761.3,502.3 796.0,502.3 830.7,501.5 865.3,501.6 900.0,500.9 934.7,501.3 969.3,501.6 1004.0,501.0 1038.7,502.6 1073.3,502.2 1108.0,502.7 1108.0,516.0 1073.3,516.0 1038.7,516.0 1004.0,516.0 969.3,516.0 934.7,516.0 900.0,516.0 865.3,516.0 830.7,516.0 796.0,516.0 761.3,516.0 726.7,516.0 692.0,516.0 657.3,516.0 622.7,516.0 588.0,516.0 553.3,516.0 518.7,516.0 484.0,516.0 449.3,516.0 414.7,516.0 380.0,516.0 345.3,516.0 310.7,516.0 276.0,516.0 241.3,516.0 206.7,516.0 172.0,516.0 137.3,516.0 102.7,516.0 68.0,516.0" fill="#c7e9c0" fill-opacity="0.9" stroke="#fff" stroke-width="0.4"><title>overload_resolution — parseTranslationUnit</title></polygon>
<polygon points="68.0,365.9 102.7,338.1 137.3,331.8 172.0,312.1 206.7,290.2 241.3,325.2 276.0,314.1 310.7,307.4 345.3,311.6 380.0,308.9 414.7,324.9 449.3,320.0 484.0,323.0 518.7,319.7 553.3,319.7 588.0,319.4 622.7,279.7 657.3,282.4 692.0,282.9 726.7,273.0 761.3,353.0 796.0,347.2 830.7,341.9 865.3,343.0 900.0,339.1 934.7,341.6 969.3,342.1 1004.0,337.0 1038.7,343.0 1073.3,336.7 1108.0,341.1 1108.0,502.7 1073.3,502.2 1038.7,502.6 1004.0,501.0 969.3,501.6 934.7,501.3 900.0,500.9 865.3,501.6 830.7,501.5 796.0,502.3 761.3,502.3 726.7,501.8 692.0,502.8 657.3,502.8 622.7,502.6 588.0,503.1 553.3,503.5 518.7,503.6 484.0,503.7 449.3,503.4 414.7,503.6 380.0,504.3 345.3,503.7 310.7,503.8 276.0,504.0 241.3,504.2 206.7,502.9 172.0,503.6 137.3,505.0 102.7,504.8 68.0,504.1" fill="#41ab5d" fill-opacity="0.9" stroke="#fff" stroke-width="0.4"><title>overload_resolution — SemanticChecking</title></polygon>
<polygon points="68.0,300.3 102.7,274.2 137.3,265.2 172.0,241.1 206.7,216.6 241.3,255.5 276.0,243.4 310.7,235.1 345.3,239.4 380.0,239.7 414.7,258.2 449.3,252.9 484.0,256.1 518.7,251.9 553.3,249.5 588.0,250.9 622.7,151.7 657.3,153.5 692.0,148.8 726.7,143.8 761.3,286.1 796.0,278.0 830.7,269.6 865.3,271.1 900.0,267.6 934.7,271.6 969.3,271.1 1004.0,262.1 1038.7,269.5 1073.3,263.1 1108.0,266.8 1108.0,341.1 1073.3,336.7 1038.7,343.0 1004.0,337.0 969.3,342.1 934.7,341.6 900.0,339.1 865.3,343.0 830.7,341.9 796.0,347.2 761.3,353.0 726.7,273.0 692.0,282.9 657.3,282.4 622.7,279.7 588.0,319.4 553.3,319.7 518.7,319.7 484.0,323.0 449.3,320.0 414.7,324.9 380.0,308.9 345.3,311.6 310.7,307.4 276.0,314.1 241.3,325.2 206.7,290.2 172.0,312.1 137.3,331.8 102.7,338.1 68.0,365.9" fill="#006d2c" fill-opacity="0.9" stroke="#fff" stroke-width="0.4"><title>overload_resolution — generateIR</title></polygon>
<polygon points="68.0,298.7 102.7,273.5 137.3,265.2 172.0,239.7 206.7,183.3 241.3,255.5 276.0,242.4 310.7,235.1 345.3,238.8 380.0,233.3 414.7,257.0 449.3,252.9 484.0,255.1 518.7,250.5 553.3,248.0 588.0,250.9 622.7,150.5 657.3,148.7 692.0,147.6 726.7,143.8 761.3,283.0 796.0,277.0 830.7,267.6 865.3,269.4 900.0,267.6 934.7,270.2 969.3,270.2 1004.0,261.3 1038.7,269.5 1073.3,261.1 1108.0,266.8 1108.0,266.8 1073.3,263.1 1038.7,269.5 1004.0,262.1 969.3,271.1 934.7,271.6 900.0,267.6 865.3,271.1 830.7,269.6 796.0,278.0 761.3,286.1 726.7,143.8 692.0,148.8 657.3,153.5 622.7,151.7 588.0,250.9 553.3,249.5 518.7,251.9 484.0,256.1 449.3,252.9 414.7,258.2 380.0,239.7 345.3,239.4 310.7,235.1 276.0,243.4 241.3,255.5 206.7,216.6 172.0,241.1 137.3,265.2 102.7,274.2 68.0,300.3" fill="#74c476" fill-opacity="0.9" stroke="#fff" stroke-width="0.4"><title>overload_resolution — frontEndExecute (self)</title></polygon>
<polygon points="68.0,266.1 102.7,240.4 137.3,232.9 172.0,200.4 206.7,139.7 241.3,220.3 276.0,207.3 310.7,200.6 345.3,204.6 380.0,196.2 414.7,222.4 449.3,217.6 484.0,220.3 518.7,215.4 553.3,213.1 588.0,216.4 622.7,115.8 657.3,114.9 692.0,112.1 726.7,108.6 761.3,249.9 796.0,242.4 830.7,227.4 865.3,228.8 900.0,225.1 934.7,231.9 969.3,229.2 1004.0,220.7 1038.7,228.4 1073.3,218.5 1108.0,227.2 1108.0,266.8 1073.3,261.1 1038.7,269.5 1004.0,261.3 969.3,270.2 934.7,270.2 900.0,267.6 865.3,269.4 830.7,267.6 796.0,277.0 761.3,283.0 726.7,143.8 692.0,147.6 657.3,148.7 622.7,150.5 588.0,250.9 553.3,248.0 518.7,250.5 484.0,255.1 449.3,252.9 414.7,257.0 380.0,233.3 345.3,238.8 310.7,235.1 276.0,242.4 241.3,255.5 206.7,183.3 172.0,239.7 137.3,265.2 102.7,273.5 68.0,298.7" fill="#e6550d" fill-opacity="0.9" stroke="#fff" stroke-width="0.4"><title>overload_resolution — generateOutput (self)</title></polygon>
<polygon points="68.0,265.1 102.7,240.4 137.3,232.1 172.0,199.0 206.7,115.1 241.3,220.0 276.0,207.3 310.7,197.2 345.3,198.4 380.0,196.2 414.7,221.5 449.3,217.6 484.0,220.3 518.7,215.4 553.3,211.2 588.0,216.4 622.7,115.8 657.3,114.4 692.0,112.1 726.7,108.6 761.3,249.9 796.0,242.4 830.7,226.8 865.3,228.8 900.0,225.1 934.7,231.9 969.3,229.2 1004.0,220.7 1038.7,228.4 1073.3,218.1 1108.0,226.8 1108.0,227.2 1073.3,218.5 1038.7,228.4 1004.0,220.7 969.3,229.2 934.7,231.9 900.0,225.1 865.3,228.8 830.7,227.4 796.0,242.4 761.3,249.9 726.7,108.6 692.0,112.1 657.3,114.9 622.7,115.8 588.0,216.4 553.3,213.1 518.7,215.4 484.0,220.3 449.3,217.6 414.7,222.4 380.0,196.2 345.3,204.6 310.7,200.6 276.0,207.3 241.3,220.3 206.7,139.7 172.0,200.4 137.3,232.9 102.7,240.4 68.0,266.1" fill="#969696" fill-opacity="0.9" stroke="#fff" stroke-width="0.4"><title>overload_resolution — compileInner (self)</title></polygon>
<text x="12" y="578" fill="#666" font-weight="600">phase buckets</text>
<rect x="12" y="586" width="12" height="12" fill="#c7e9c0"/>
<text x="28" y="596" fill="#222">parseTranslationUnit</text>
<rect x="289" y="586" width="12" height="12" fill="#41ab5d"/>
<text x="305" y="596" fill="#222">SemanticChecking</text>
<rect x="566" y="586" width="12" height="12" fill="#006d2c"/>
<text x="582" y="596" fill="#222">generateIR</text>
<rect x="843" y="586" width="12" height="12" fill="#74c476"/>
<text x="859" y="596" fill="#222">frontEndExecute (self)</text>
<rect x="12" y="604" width="12" height="12" fill="#6baed6"/>
<text x="28" y="614" fill="#222">specializeModule</text>
<rect x="289" y="604" width="12" height="12" fill="#2171b5"/>
<text x="305" y="614" fill="#222">simplifyIR</text>
<rect x="566" y="604" width="12" height="12" fill="#08306b"/>
<text x="582" y="614" fill="#222">linkIR</text>
<rect x="843" y="604" width="12" height="12" fill="#9e9ac8"/>
<text x="859" y="614" fill="#222">unrollLoopsInModule</text>
<rect x="12" y="622" width="12" height="12" fill="#807dba"/>
<text x="28" y="632" fill="#222">legalizeResourceTypes</text>
<rect x="289" y="622" width="12" height="12" fill="#6a51a3"/>
<text x="305" y="632" fill="#222">legalizeExistentialTypeLayout</text>
<rect x="566" y="622" width="12" height="12" fill="#bcbddc"/>
<text x="582" y="632" fill="#222">performMandatoryEarlyInlining</text>
<rect x="843" y="622" width="12" height="12" fill="#dadaeb"/>
<text x="859" y="632" fill="#222">performForceInlining</text>
<rect x="12" y="640" width="12" height="12" fill="#4a1486"/>
<text x="28" y="650" fill="#222">linkAndOptimizeIR (self)</text>
<rect x="289" y="640" width="12" height="12" fill="#fd8d3c"/>
<text x="305" y="650" fill="#222">emitEntryPointsSourceFromIR</text>
<rect x="566" y="640" width="12" height="12" fill="#e6550d"/>
<text x="582" y="650" fill="#222">generateOutput (self)</text>
<rect x="843" y="640" width="12" height="12" fill="#969696"/>
<text x="859" y="650" fill="#222">compileInner (self)</text>
</svg>