<svg xmlns="http://www.w3.org/2000/svg" xmlns:xlink="http://www.w3.org/1999/xlink" width="1132" height="680" viewBox="0 0 1132 680" preserveAspectRatio="xMidYMid meet" font-family="sans-serif" font-size="13">
<rect width="1132" height="680" fill="white"/>
<text x="12" y="30" font-size="20" font-weight="bold">overload_resolution — Across releases (median ms)</text>
<text x="68" y="60" font-size="15" font-weight="600" fill="#1a1a1a">overload_resolution<tspan fill="#888" font-weight="400" text-decoration="none">  0.95×</tspan></text>
<line x1="68.0" y1="516.0" x2="1108.0" y2="516.0" stroke="#eee"/>
<text x="64.0" y="519.0" text-anchor="end" fill="#999">0.0</text>
<line x1="68.0" y1="296.0" x2="1108.0" y2="296.0" stroke="#eee"/>
<text x="64.0" y="299.0" text-anchor="end" fill="#999">40</text>
<line x1="68.0" y1="76.0" x2="1108.0" y2="76.0" stroke="#eee"/>
<text x="64.0" y="79.0" text-anchor="end" fill="#999">81</text>
<line x1="68.0" y1="76.0" x2="68.0" y2="516.0" stroke="#333"/>
<line x1="68.0" y1="516.0" x2="1108.0" y2="516.0" stroke="#333"/>
<line x1="68.0" y1="516.0" x2="68.0" y2="519.0" stroke="#999"/>
<text x="68.0" y="531.0" text-anchor="end" fill="#666" transform="rotate(-50 68.0 531.0)">25.12</text>
<line x1="108.0" y1="516.0" x2="108.0" y2="519.0" stroke="#999"/>
<text x="108.0" y="531.0" text-anchor="end" fill="#666" transform="rotate(-50 108.0 531.0)">25.13</text>
<line x1="148.0" y1="516.0" x2="148.0" y2="519.0" stroke="#999"/>
<text x="148.0" y="531.0" text-anchor="end" fill="#666" transform="rotate(-50 148.0 531.0)">25.14</text>
<line x1="188.0" y1="516.0" x2="188.0" y2="519.0" stroke="#999"/>
<text x="188.0" y="531.0" text-anchor="end" fill="#666" transform="rotate(-50 188.0 531.0)">25.15</text>
<line x1="228.0" y1="516.0" x2="228.0" y2="519.0" stroke="#999"/>
<text x="228.0" y="531.0" text-anchor="end" fill="#666" transform="rotate(-50 228.0 531.0)">25.16</text>
<line x1="268.0" y1="516.0" x2="268.0" y2="519.0" stroke="#999"/>
<text x="268.0" y="531.0" text-anchor="end" fill="#666" transform="rotate(-50 268.0 531.0)">25.17</text>
<line x1="308.0" y1="516.0" x2="308.0" y2="519.0" stroke="#999"/>
<text x="308.0" y="531.0" text-anchor="end" fill="#666" transform="rotate(-50 308.0 531.0)">25.18</text>
<line x1="348.0" y1="516.0" x2="348.0" y2="519.0" stroke="#999"/>
<text x="348.0" y="531.0" text-anchor="end" fill="#666" transform="rotate(-50 348.0 531.0)">25.19</text>
<line x1="388.0" y1="516.0" x2="388.0" y2="519.0" stroke="#999"/>
<text x="388.0" y="531.0" text-anchor="end" fill="#666" transform="rotate(-50 388.0 531.0)">25.20</text>
<line x1="428.0" y1="516.0" x2="428.0" y2="519.0" stroke="#999"/>
<text x="428.0" y="531.0" text-anchor="end" fill="#666" transform="rotate(-50 428.0 531.0)">25.21</text>
<line x1="468.0" y1="516.0" x2="468.0" y2="519.0" stroke="#999"/>
<text x="468.0" y="531.0" text-anchor="end" fill="#666" transform="rotate(-50 468.0 531.0)">25.22</text>
<line x1="508.0" y1="516.0" x2="508.0" y2="519.0" stroke="#999"/>
<text x="508.0" y="531.0" text-anchor="end" fill="#666" transform="rotate(-50 508.0 531.0)">25.23</text>
<line x1="548.0" y1="516.0" x2="548.0" y2="519.0" stroke="#999"/>
<text x="548.0" y="531.0" text-anchor="end" fill="#666" transform="rotate(-50 548.0 531.0)">25.24</text>
<line x1="588.0" y1="516.0" x2="588.0" y2="519.0" stroke="#999"/>
<text x="588.0" y="531.0" text-anchor="end" fill="#666" transform="rotate(-50 588.0 531.0)">26.1</text>
<line x1="628.0" y1="516.0" x2="628.0" y2="519.0" stroke="#999"/>
<text x="628.0" y="531.0" text-anchor="end" fill="#666" transform="rotate(-50 628.0 531.0)">26.2</text>
<line x1="668.0" y1="516.0" x2="668.0" y2="519.0" stroke="#999"/>
<text x="668.0" y="531.0" text-anchor="end" fill="#666" transform="rotate(-50 668.0 531.0)">26.3</text>
<line x1="708.0" y1="516.0" x2="708.0" y2="519.0" stroke="#999"/>
<text x="708.0" y="531.0" text-anchor="end" fill="#666" transform="rotate(-50 708.0 531.0)">26.4</text>
<line x1="748.0" y1="516.0" x2="748.0" y2="519.0" stroke="#999"/>
<text x="748.0" y="531.0" text-anchor="end" fill="#666" transform="rotate(-50 748.0 531.0)">26.5</text>
<line x1="788.0" y1="516.0" x2="788.0" y2="519.0" stroke="#999"/>
<text x="788.0" y="531.0" text-anchor="end" fill="#666" transform="rotate(-50 788.0 531.0)">26.7</text>
<line x1="828.0" y1="516.0" x2="828.0" y2="519.0" stroke="#999"/>
<text x="828.0" y="531.0" text-anchor="end" fill="#666" transform="rotate(-50 828.0 531.0)">26.8</text>
<line x1="868.0" y1="516.0" x2="868.0" y2="519.0" stroke="#999"/>
<text x="868.0" y="531.0" text-anchor="end" fill="#666" transform="rotate(-50 868.0 531.0)">26.9</text>
<line x1="908.0" y1="516.0" x2="908.0" y2="519.0" stroke="#999"/>
<text x="908.0" y="531.0" text-anchor="end" fill="#666" transform="rotate(-50 908.0 531.0)">26.10</text>
<line x1="948.0" y1="516.0" x2="948.0" y2="519.0" stroke="#999"/>
<text x="948.0" y="531.0" text-anchor="end" fill="#666" transform="rotate(-50 948.0 531.0)">26.11</text>
<line x1="988.0" y1="516.0" x2="988.0" y2="519.0" stroke="#999"/>
<text x="988.0" y="531.0" text-anchor="end" fill="#666" transform="rotate(-50 988.0 531.0)">26.12</text>
<line x1="1028.0" y1="516.0" x2="1028.0" y2="519.0" stroke="#999"/>
<text x="1028.0" y="531.0" text-anchor="end" fill="#666" transform="rotate(-50 1028.0 531.0)">26.13</text>
<line x1="1068.0" y1="516.0" x2="1068.0" y2="519.0" stroke="#999"/>
<text x="1068.0" y="531.0" text-anchor="end" fill="#666" transform="rotate(-50 1068.0 531.0)">26.13.1</text>
<line x1="1108.0" y1="516.0" x2="1108.0" y2="519.0" stroke="#999"/>
<text x="1108.0" y="531.0" text-anchor="end" fill="#666" transform="rotate(-50 1108.0 531.0)">26.14</text>
<polygon points="68.0,510.5 108.0,503.8 148.0,506.5 188.0,507.9 228.0,508.0 268.0,508.1 308.0,507.9 348.0,507.8 388.0,508.0 428.0,507.8 468.0,508.0 508.0,507.9 548.0,507.0 588.0,507.2 628.0,507.1 668.0,506.7 708.0,506.8 748.0,507.2 788.0,505.5 828.0,506.0 868.0,506.0 908.0,503.4 948.0,505.7 988.0,506.2 1028.0,506.4 1068.0,506.3 1108.0,507.4 1108.0,516.0 1068.0,516.0 1028.0,516.0 988.0,516.0 948.0,516.0 908.0,516.0 868.0,516.0 828.0,516.0 788.0,516.0 748.0,516.0 708.0,516.0 668.0,516.0 628.0,516.0 588.0,516.0 548.0,516.0 508.0,516.0 468.0,516.0 428.0,516.0 388.0,516.0 348.0,516.0 308.0,516.0 268.0,516.0 228.0,516.0 188.0,516.0 148.0,516.0 108.0,516.0 68.0,516.0" fill="#c7e9c0" fill-opacity="0.9" stroke="#fff" stroke-width="0.4"><title>overload_resolution — parseTranslationUnit</title></polygon>
<polygon points="68.0,417.8 108.0,409.0 148.0,396.1 188.0,381.7 228.0,385.3 268.0,381.8 308.0,377.2 348.0,377.7 388.0,377.5 428.0,379.2 468.0,383.7 508.0,380.6 548.0,379.1 588.0,377.3 628.0,375.8 668.0,373.2 708.0,373.2 748.0,374.4 788.0,316.0 828.0,343.6 868.0,347.9 908.0,295.3 948.0,384.1 988.0,396.4 1028.0,395.9 1068.0,395.4 1108.0,397.4 1108.0,507.4 1068.0,506.3 1028.0,506.4 988.0,506.2 948.0,505.7 908.0,503.4 868.0,506.0 828.0,506.0 788.0,505.5 748.0,507.2 708.0,506.8 668.0,506.7 628.0,507.1 588.0,507.2 548.0,507.0 508.0,507.9 468.0,508.0 428.0,507.8 388.0,508.0 348.0,507.8 308.0,507.9 268.0,508.1 228.0,508.0 188.0,507.9 148.0,506.5 108.0,503.8 68.0,510.5" fill="#41ab5d" fill-opacity="0.9" stroke="#fff" stroke-width="0.4"><title>overload_resolution — SemanticChecking</title></polygon>
<polygon points="68.0,374.1 108.0,362.2 148.0,347.1 188.0,334.7 228.0,338.8 268.0,331.9 308.0,327.4 348.0,328.2 388.0,328.7 428.0,329.5 468.0,334.3 508.0,332.6 548.0,328.9 588.0,327.6 628.0,327.7 668.0,324.5 708.0,323.9 748.0,325.4 788.0,189.9 828.0,252.7 868.0,254.8 908.0,161.8 948.0,324.4 988.0,347.1 1028.0,346.2 1068.0,345.5 1108.0,352.2 1108.0,397.4 1068.0,395.4 1028.0,395.9 988.0,396.4 948.0,384.1 908.0,295.3 868.0,347.9 828.0,343.6 788.0,316.0 748.0,374.4 708.0,373.2 668.0,373.2 628.0,375.8 588.0,377.3 548.0,379.1 508.0,380.6 468.0,383.7 428.0,379.2 388.0,377.5 348.0,377.7 308.0,377.2 268.0,381.8 228.0,385.3 188.0,381.7 148.0,396.1 108.0,409.0 68.0,417.8" fill="#006d2c" fill-opacity="0.9" stroke="#fff" stroke-width="0.4"><title>overload_resolution — generateIR</title></polygon>
<polygon points="68.0,368.7 108.0,361.0 148.0,342.3 188.0,332.8 228.0,337.6 268.0,331.9 308.0,327.4 348.0,326.6 388.0,328.2 428.0,327.8 468.0,333.1 508.0,332.1 548.0,326.5 588.0,327.6 628.0,326.8 668.0,323.8 708.0,323.3 748.0,324.8 788.0,188.8 828.0,247.1 868.0,253.7 908.0,161.8 948.0,324.4 988.0,345.9 1028.0,345.6 1068.0,344.3 1108.0,350.8 1108.0,352.2 1068.0,345.5 1028.0,346.2 988.0,347.1 948.0,324.4 908.0,161.8 868.0,254.8 828.0,252.7 788.0,189.9 748.0,325.4 708.0,323.9 668.0,324.5 628.0,327.7 588.0,327.6 548.0,328.9 508.0,332.6 468.0,334.3 428.0,329.5 388.0,328.7 348.0,328.2 308.0,327.4 268.0,331.9 228.0,338.8 188.0,334.7 148.0,347.1 108.0,362.2 68.0,374.1" fill="#74c476" fill-opacity="0.9" stroke="#fff" stroke-width="0.4"><title>overload_resolution — frontEndExecute (self)</title></polygon>
<polygon points="68.0,319.6 108.0,337.3 148.0,317.2 188.0,309.0 228.0,314.6 268.0,305.3 308.0,300.5 348.0,301.7 388.0,304.4 428.0,303.6 468.0,308.1 508.0,306.4 548.0,301.3 588.0,301.5 628.0,301.9 668.0,298.7 708.0,297.2 748.0,299.0 788.0,161.7 828.0,221.2 868.0,227.7 908.0,127.1 948.0,295.7 988.0,321.2 1028.0,321.4 1068.0,319.9 1108.0,329.4 1108.0,350.8 1068.0,344.3 1028.0,345.6 988.0,345.9 948.0,324.4 908.0,161.8 868.0,253.7 828.0,247.1 788.0,188.8 748.0,324.8 708.0,323.3 668.0,323.8 628.0,326.8 588.0,327.6 548.0,326.5 508.0,332.1 468.0,333.1 428.0,327.8 388.0,328.2 348.0,326.6 308.0,327.4 268.0,331.9 228.0,337.6 188.0,332.8 148.0,342.3 108.0,361.0 68.0,368.7" fill="#e6550d" fill-opacity="0.9" stroke="#fff" stroke-width="0.4"><title>overload_resolution — generateOutput (self)</title></polygon>
<polygon points="68.0,319.6 108.0,337.3 148.0,317.2 188.0,309.0 228.0,314.6 268.0,305.3 308.0,300.5 348.0,301.7 388.0,303.6 428.0,303.1 468.0,307.0 508.0,306.4 548.0,300.9 588.0,301.5 628.0,301.9 668.0,298.2 708.0,296.1 748.0,299.0 788.0,161.7 828.0,221.2 868.0,227.1 908.0,108.6 948.0,293.0 988.0,319.9 1028.0,321.4 1068.0,319.9 1108.0,328.7 1108.0,329.4 1068.0,319.9 1028.0,321.4 988.0,321.2 948.0,295.7 908.0,127.1 868.0,227.7 828.0,221.2 788.0,161.7 748.0,299.0 708.0,297.2 668.0,298.7 628.0,301.9 588.0,301.5 548.0,301.3 508.0,306.4 468.0,308.1 428.0,303.6 388.0,304.4 348.0,301.7 308.0,300.5 268.0,305.3 228.0,314.6 188.0,309.0 148.0,317.2 108.0,337.3 68.0,319.6" fill="#969696" fill-opacity="0.9" stroke="#fff" stroke-width="0.4"><title>overload_resolution — compileInner (self)</title></polygon>
<text x="12" y="578" fill="#666" font-weight="600">phase buckets</text>
<rect x="12" y="586" width="12" height="12" fill="#c7e9c0"/>
<text x="28" y="596" fill="#222">parseTranslationUnit</text>
<rect x="289" y="586" width="12" height="12" fill="#41ab5d"/>
<text x="305" y="596" fill="#222">SemanticChecking</text>
<rect x="566" y="586" width="12" height="12" fill="#006d2c"/>
<text x="582" y="596" fill="#222">generateIR</text>
<rect x="843" y="586" width="12" height="12" fill="#74c476"/>
<text x="859" y="596" fill="#222">frontEndExecute (self)</text>
<rect x="12" y="604" width="12" height="12" fill="#6baed6"/>
<text x="28" y="614" fill="#222">specializeModule</text>
<rect x="289" y="604" width="12" height="12" fill="#2171b5"/>
<text x="305" y="614" fill="#222">simplifyIR</text>
<rect x="566" y="604" width="12" height="12" fill="#08306b"/>
<text x="582" y="614" fill="#222">linkIR</text>
<rect x="843" y="604" width="12" height="12" fill="#9e9ac8"/>
<text x="859" y="614" fill="#222">unrollLoopsInModule</text>
<rect x="12" y="622" width="12" height="12" fill="#807dba"/>
<text x="28" y="632" fill="#222">legalizeResourceTypes</text>
<rect x="289" y="622" width="12" height="12" fill="#6a51a3"/>
<text x="305" y="632" fill="#222">legalizeExistentialTypeLayout</text>
<rect x="566" y="622" width="12" height="12" fill="#bcbddc"/>
<text x="582" y="632" fill="#222">performMandatoryEarlyInlining</text>
<rect x="843" y="622" width="12" height="12" fill="#dadaeb"/>
<text x="859" y="632" fill="#222">performForceInlining</text>
<rect x="12" y="640" width="12" height="12" fill="#4a1486"/>
<text x="28" y="650" fill="#222">linkAndOptimizeIR (self)</text>
<rect x="289" y="640" width="12" height="12" fill="#fd8d3c"/>
<text x="305" y="650" fill="#222">emitEntryPointsSourceFromIR</text>
<rect x="566" y="640" width="12" height="12" fill="#e6550d"/>
<text x="582" y="650" fill="#222">generateOutput (self)</text>
<rect x="843" y="640" width="12" height="12" fill="#969696"/>
<text x="859" y="650" fill="#222">compileInner (self)</text>
</svg>