<svg xmlns="http://www.w3.org/2000/svg" xmlns:xlink="http://www.w3.org/1999/xlink" width="1132" height="680" viewBox="0 0 1132 680" preserveAspectRatio="xMidYMid meet" font-family="sans-serif" font-size="13">
<rect width="1132" height="680" fill="white"/>
<text x="12" y="30" font-size="20" font-weight="bold">overload_resolution — full phase breakdown across releases (median ms)</text>
<text x="68" y="60" font-size="15" font-weight="600" fill="#1a1a1a">overload_resolution<tspan fill="#888" font-weight="400" text-decoration="none">  0.91×</tspan></text>
<line x1="68.0" y1="516.0" x2="1108.0" y2="516.0" stroke="#eee"/>
<text x="64.0" y="519.0" text-anchor="end" fill="#999">0.0</text>
<line x1="68.0" y1="296.0" x2="1108.0" y2="296.0" stroke="#eee"/>
<text x="64.0" y="299.0" text-anchor="end" fill="#999">28</text>
<line x1="68.0" y1="76.0" x2="1108.0" y2="76.0" stroke="#eee"/>
<text x="64.0" y="79.0" text-anchor="end" fill="#999">56</text>
<line x1="68.0" y1="76.0" x2="68.0" y2="516.0" stroke="#333"/>
<line x1="68.0" y1="516.0" x2="1108.0" y2="516.0" stroke="#333"/>
<line x1="68.0" y1="516.0" x2="68.0" y2="519.0" stroke="#999"/>
<text x="68.0" y="531.0" text-anchor="end" fill="#666" transform="rotate(-50 68.0 531.0)">25.19</text>
<line x1="137.3" y1="516.0" x2="137.3" y2="519.0" stroke="#999"/>
<text x="137.3" y="531.0" text-anchor="end" fill="#666" transform="rotate(-50 137.3 531.0)">25.20</text>
<line x1="206.7" y1="516.0" x2="206.7" y2="519.0" stroke="#999"/>
<text x="206.7" y="531.0" text-anchor="end" fill="#666" transform="rotate(-50 206.7 531.0)">25.21</text>
<line x1="276.0" y1="516.0" x2="276.0" y2="519.0" stroke="#999"/>
<text x="276.0" y="531.0" text-anchor="end" fill="#666" transform="rotate(-50 276.0 531.0)">25.22</text>
<line x1="345.3" y1="516.0" x2="345.3" y2="519.0" stroke="#999"/>
<text x="345.3" y="531.0" text-anchor="end" fill="#666" transform="rotate(-50 345.3 531.0)">25.23</text>
<line x1="414.7" y1="516.0" x2="414.7" y2="519.0" stroke="#999"/>
<text x="414.7" y="531.0" text-anchor="end" fill="#666" transform="rotate(-50 414.7 531.0)">25.24</text>
<line x1="484.0" y1="516.0" x2="484.0" y2="519.0" stroke="#999"/>
<text x="484.0" y="531.0" text-anchor="end" fill="#666" transform="rotate(-50 484.0 531.0)">26.1</text>
<line x1="553.3" y1="516.0" x2="553.3" y2="519.0" stroke="#999"/>
<text x="553.3" y="531.0" text-anchor="end" fill="#666" transform="rotate(-50 553.3 531.0)">26.2</text>
<line x1="622.7" y1="516.0" x2="622.7" y2="519.0" stroke="#999"/>
<text x="622.7" y="531.0" text-anchor="end" fill="#666" transform="rotate(-50 622.7 531.0)">26.3</text>
<line x1="692.0" y1="516.0" x2="692.0" y2="519.0" stroke="#999"/>
<text x="692.0" y="531.0" text-anchor="end" fill="#666" transform="rotate(-50 692.0 531.0)">26.4</text>
<line x1="761.3" y1="516.0" x2="761.3" y2="519.0" stroke="#999"/>
<text x="761.3" y="531.0" text-anchor="end" fill="#666" transform="rotate(-50 761.3 531.0)">26.5</text>
<line x1="830.7" y1="516.0" x2="830.7" y2="519.0" stroke="#999"/>
<text x="830.7" y="531.0" text-anchor="end" fill="#666" transform="rotate(-50 830.7 531.0)">26.7</text>
<line x1="900.0" y1="516.0" x2="900.0" y2="519.0" stroke="#999"/>
<text x="900.0" y="531.0" text-anchor="end" fill="#666" transform="rotate(-50 900.0 531.0)">26.8</text>
<line x1="969.3" y1="516.0" x2="969.3" y2="519.0" stroke="#999"/>
<text x="969.3" y="531.0" text-anchor="end" fill="#666" transform="rotate(-50 969.3 531.0)">26.9</text>
<line x1="1038.7" y1="516.0" x2="1038.7" y2="519.0" stroke="#999"/>
<text x="1038.7" y="531.0" text-anchor="end" fill="#666" transform="rotate(-50 1038.7 531.0)">26.10</text>
<line x1="1108.0" y1="516.0" x2="1108.0" y2="519.0" stroke="#999"/>
<text x="1108.0" y="531.0" text-anchor="end" fill="#666" transform="rotate(-50 1108.0 531.0)">26.11</text>
<polygon points="68.0,504.3 137.3,504.4 206.7,504.6 276.0,504.6 345.3,504.8 414.7,503.6 484.0,503.9 553.3,504.0 622.7,503.4 692.0,503.2 761.3,502.7 830.7,502.7 900.0,502.6 969.3,502.7 1038.7,502.2 1108.0,502.5 1108.0,516.0 1038.7,516.0 969.3,516.0 900.0,516.0 830.7,516.0 761.3,516.0 692.0,516.0 622.7,516.0 553.3,516.0 484.0,516.0 414.7,516.0 345.3,516.0 276.0,516.0 206.7,516.0 137.3,516.0 68.0,516.0" fill="#c7e9c0" fill-opacity="0.9" stroke="#fff" stroke-width="0.4"><title>overload_resolution — parseTranslationUnit</title></polygon>
<polygon points="68.0,324.1 137.3,321.4 206.7,323.8 276.0,328.2 345.3,324.8 414.7,322.2 484.0,320.3 553.3,317.9 622.7,319.0 692.0,313.4 761.3,304.5 830.7,276.5 900.0,276.2 969.3,276.4 1038.7,268.4 1108.0,346.0 1108.0,502.5 1038.7,502.2 969.3,502.7 900.0,502.6 830.7,502.7 761.3,502.7 692.0,503.2 622.7,503.4 553.3,504.0 484.0,503.9 414.7,503.6 345.3,504.8 276.0,504.6 206.7,504.6 137.3,504.4 68.0,504.3" fill="#41ab5d" fill-opacity="0.9" stroke="#fff" stroke-width="0.4"><title>overload_resolution — SemanticChecking</title></polygon>
<polygon points="68.0,254.4 137.3,252.0 206.7,253.9 276.0,259.2 345.3,257.4 414.7,255.1 484.0,251.7 553.3,247.5 622.7,249.8 692.0,241.8 761.3,233.1 830.7,155.3 900.0,155.0 969.3,155.6 1038.7,146.7 1108.0,279.4 1108.0,346.0 1038.7,268.4 969.3,276.4 900.0,276.2 830.7,276.5 761.3,304.5 692.0,313.4 622.7,319.0 553.3,317.9 484.0,320.3 414.7,322.2 345.3,324.8 276.0,328.2 206.7,323.8 137.3,321.4 68.0,324.1" fill="#006d2c" fill-opacity="0.9" stroke="#fff" stroke-width="0.4"><title>overload_resolution — generateIR</title></polygon>
<polygon points="68.0,251.6 137.3,251.5 206.7,253.0 276.0,257.0 345.3,256.8 414.7,253.7 484.0,250.7 553.3,247.5 622.7,249.0 692.0,240.4 761.3,231.5 830.7,155.3 900.0,155.0 969.3,153.3 1038.7,145.3 1108.0,278.8 1108.0,279.4 1038.7,146.7 969.3,155.6 900.0,155.0 830.7,155.3 761.3,233.1 692.0,241.8 622.7,249.8 553.3,247.5 484.0,251.7 414.7,255.1 345.3,257.4 276.0,259.2 206.7,253.9 137.3,252.0 68.0,254.4" fill="#74c476" fill-opacity="0.9" stroke="#fff" stroke-width="0.4"><title>overload_resolution — frontEndExecute (self)</title></polygon>
<polygon points="68.0,217.1 137.3,217.6 206.7,218.8 276.0,221.7 345.3,220.9 414.7,217.7 484.0,214.7 553.3,211.5 622.7,213.1 692.0,203.7 761.3,194.8 830.7,119.6 900.0,118.8 969.3,116.8 1038.7,108.6 1108.0,244.9 1108.0,278.8 1038.7,145.3 969.3,153.3 900.0,155.0 830.7,155.3 761.3,231.5 692.0,240.4 622.7,249.0 553.3,247.5 484.0,250.7 414.7,253.7 345.3,256.8 276.0,257.0 206.7,253.0 137.3,251.5 68.0,251.6" fill="#e6550d" fill-opacity="0.9" stroke="#fff" stroke-width="0.4"><title>overload_resolution — generateOutput (self)</title></polygon>
<polygon points="68.0,217.1 137.3,217.6 206.7,218.8 276.0,220.5 345.3,220.9 414.7,217.7 484.0,214.0 553.3,211.5 622.7,213.1 692.0,203.7 761.3,194.8 830.7,119.6 900.0,118.8 969.3,115.5 1038.7,108.6 1108.0,244.0 1108.0,244.9 1038.7,108.6 969.3,116.8 900.0,118.8 830.7,119.6 761.3,194.8 692.0,203.7 622.7,213.1 553.3,211.5 484.0,214.7 414.7,217.7 345.3,220.9 276.0,221.7 206.7,218.8 137.3,217.6 68.0,217.1" fill="#969696" fill-opacity="0.9" stroke="#fff" stroke-width="0.4"><title>overload_resolution — compileInner (self)</title></polygon>
<text x="12" y="578" fill="#666" font-weight="600">phase buckets</text>
<rect x="12" y="586" width="12" height="12" fill="#c7e9c0"/>
<text x="28" y="596" fill="#222">parseTranslationUnit</text>
<rect x="289" y="586" width="12" height="12" fill="#41ab5d"/>
<text x="305" y="596" fill="#222">SemanticChecking</text>
<rect x="566" y="586" width="12" height="12" fill="#006d2c"/>
<text x="582" y="596" fill="#222">generateIR</text>
<rect x="843" y="586" width="12" height="12" fill="#74c476"/>
<text x="859" y="596" fill="#222">frontEndExecute (self)</text>
<rect x="12" y="604" width="12" height="12" fill="#6baed6"/>
<text x="28" y="614" fill="#222">specializeModule</text>
<rect x="289" y="604" width="12" height="12" fill="#2171b5"/>
<text x="305" y="614" fill="#222">simplifyIR</text>
<rect x="566" y="604" width="12" height="12" fill="#08306b"/>
<text x="582" y="614" fill="#222">linkIR</text>
<rect x="843" y="604" width="12" height="12" fill="#9e9ac8"/>
<text x="859" y="614" fill="#222">unrollLoopsInModule</text>
<rect x="12" y="622" width="12" height="12" fill="#807dba"/>
<text x="28" y="632" fill="#222">legalizeResourceTypes</text>
<rect x="289" y="622" width="12" height="12" fill="#6a51a3"/>
<text x="305" y="632" fill="#222">legalizeExistentialTypeLayout</text>
<rect x="566" y="622" width="12" height="12" fill="#bcbddc"/>
<text x="582" y="632" fill="#222">performMandatoryEarlyInlining</text>
<rect x="843" y="622" width="12" height="12" fill="#dadaeb"/>
<text x="859" y="632" fill="#222">performForceInlining</text>
<rect x="12" y="640" width="12" height="12" fill="#4a1486"/>
<text x="28" y="650" fill="#222">linkAndOptimizeIR (self)</text>
<rect x="289" y="640" width="12" height="12" fill="#fd8d3c"/>
<text x="305" y="650" fill="#222">emitEntryPointsSourceFromIR</text>
<rect x="566" y="640" width="12" height="12" fill="#e6550d"/>
<text x="582" y="650" fill="#222">generateOutput (self)</text>
<rect x="843" y="640" width="12" height="12" fill="#969696"/>
<text x="859" y="650" fill="#222">compileInner (self)</text>
</svg>