<svg xmlns="http://www.w3.org/2000/svg" xmlns:xlink="http://www.w3.org/1999/xlink" width="1132" height="680" viewBox="0 0 1132 680" preserveAspectRatio="xMidYMid meet" font-family="sans-serif" font-size="13">
<rect width="1132" height="680" fill="white"/>
<text x="12" y="30" font-size="20" font-weight="bold">overload_resolution — full phase breakdown across releases (median ms)</text>
<text x="68" y="60" font-size="15" font-weight="600" fill="#1a1a1a">overload_resolution<tspan fill="#888" font-weight="400" text-decoration="none">  1.19×</tspan></text>
<line x1="68.0" y1="516.0" x2="1108.0" y2="516.0" stroke="#eee"/>
<text x="64.0" y="519.0" text-anchor="end" fill="#999">0.0</text>
<line x1="68.0" y1="296.0" x2="1108.0" y2="296.0" stroke="#eee"/>
<text x="64.0" y="299.0" text-anchor="end" fill="#999">28</text>
<line x1="68.0" y1="76.0" x2="1108.0" y2="76.0" stroke="#eee"/>
<text x="64.0" y="79.0" text-anchor="end" fill="#999">57</text>
<line x1="68.0" y1="76.0" x2="68.0" y2="516.0" stroke="#333"/>
<line x1="68.0" y1="516.0" x2="1108.0" y2="516.0" stroke="#333"/>
<line x1="896.1" y1="76.0" x2="896.1" y2="516.0" stroke="#e8731a" stroke-width="1.2" stroke-dasharray="4 3"/>
<text x="899.1" y="87.0" fill="#e8731a" font-size="11">daily →</text>
<line x1="68.0" y1="516.0" x2="68.0" y2="519.0" stroke="#999"/>
<text x="68.0" y="531.0" text-anchor="end" fill="#666" transform="rotate(-50 68.0 531.0)">25.14</text>
<line x1="106.5" y1="516.0" x2="106.5" y2="519.0" stroke="#999"/>
<text x="106.5" y="531.0" text-anchor="end" fill="#666" transform="rotate(-50 106.5 531.0)">25.15</text>
<line x1="145.0" y1="516.0" x2="145.0" y2="519.0" stroke="#999"/>
<text x="145.0" y="531.0" text-anchor="end" fill="#666" transform="rotate(-50 145.0 531.0)">25.16</text>
<line x1="183.6" y1="516.0" x2="183.6" y2="519.0" stroke="#999"/>
<text x="183.6" y="531.0" text-anchor="end" fill="#666" transform="rotate(-50 183.6 531.0)">25.17</text>
<line x1="222.1" y1="516.0" x2="222.1" y2="519.0" stroke="#999"/>
<text x="222.1" y="531.0" text-anchor="end" fill="#666" transform="rotate(-50 222.1 531.0)">25.18</text>
<line x1="260.6" y1="516.0" x2="260.6" y2="519.0" stroke="#999"/>
<text x="260.6" y="531.0" text-anchor="end" fill="#666" transform="rotate(-50 260.6 531.0)">25.19</text>
<line x1="299.1" y1="516.0" x2="299.1" y2="519.0" stroke="#999"/>
<text x="299.1" y="531.0" text-anchor="end" fill="#666" transform="rotate(-50 299.1 531.0)">25.20</text>
<line x1="337.6" y1="516.0" x2="337.6" y2="519.0" stroke="#999"/>
<text x="337.6" y="531.0" text-anchor="end" fill="#666" transform="rotate(-50 337.6 531.0)">25.21</text>
<line x1="376.1" y1="516.0" x2="376.1" y2="519.0" stroke="#999"/>
<text x="376.1" y="531.0" text-anchor="end" fill="#666" transform="rotate(-50 376.1 531.0)">25.22</text>
<line x1="414.7" y1="516.0" x2="414.7" y2="519.0" stroke="#999"/>
<text x="414.7" y="531.0" text-anchor="end" fill="#666" transform="rotate(-50 414.7 531.0)">25.23</text>
<line x1="453.2" y1="516.0" x2="453.2" y2="519.0" stroke="#999"/>
<text x="453.2" y="531.0" text-anchor="end" fill="#666" transform="rotate(-50 453.2 531.0)">25.24</text>
<line x1="491.7" y1="516.0" x2="491.7" y2="519.0" stroke="#999"/>
<text x="491.7" y="531.0" text-anchor="end" fill="#666" transform="rotate(-50 491.7 531.0)">26.1</text>
<line x1="530.2" y1="516.0" x2="530.2" y2="519.0" stroke="#999"/>
<text x="530.2" y="531.0" text-anchor="end" fill="#666" transform="rotate(-50 530.2 531.0)">26.2</text>
<line x1="568.7" y1="516.0" x2="568.7" y2="519.0" stroke="#999"/>
<text x="568.7" y="531.0" text-anchor="end" fill="#666" transform="rotate(-50 568.7 531.0)">26.3</text>
<line x1="607.3" y1="516.0" x2="607.3" y2="519.0" stroke="#999"/>
<text x="607.3" y="531.0" text-anchor="end" fill="#666" transform="rotate(-50 607.3 531.0)">26.4</text>
<line x1="645.8" y1="516.0" x2="645.8" y2="519.0" stroke="#999"/>
<text x="645.8" y="531.0" text-anchor="end" fill="#666" transform="rotate(-50 645.8 531.0)">26.5</text>
<line x1="684.3" y1="516.0" x2="684.3" y2="519.0" stroke="#999"/>
<text x="684.3" y="531.0" text-anchor="end" fill="#666" transform="rotate(-50 684.3 531.0)">26.7</text>
<line x1="722.8" y1="516.0" x2="722.8" y2="519.0" stroke="#999"/>
<text x="722.8" y="531.0" text-anchor="end" fill="#666" transform="rotate(-50 722.8 531.0)">26.8</text>
<line x1="761.3" y1="516.0" x2="761.3" y2="519.0" stroke="#999"/>
<text x="761.3" y="531.0" text-anchor="end" fill="#666" transform="rotate(-50 761.3 531.0)">26.9</text>
<line x1="799.9" y1="516.0" x2="799.9" y2="519.0" stroke="#999"/>
<text x="799.9" y="531.0" text-anchor="end" fill="#666" transform="rotate(-50 799.9 531.0)">26.10</text>
<line x1="838.4" y1="516.0" x2="838.4" y2="519.0" stroke="#999"/>
<text x="838.4" y="531.0" text-anchor="end" fill="#666" transform="rotate(-50 838.4 531.0)">26.11</text>
<line x1="876.9" y1="516.0" x2="876.9" y2="519.0" stroke="#999"/>
<text x="876.9" y="531.0" text-anchor="end" fill="#666" transform="rotate(-50 876.9 531.0)">26.12</text>
<line x1="915.4" y1="516.0" x2="915.4" y2="519.0" stroke="#999"/>
<text x="915.4" y="531.0" text-anchor="end" fill="#e8731a" transform="rotate(-50 915.4 531.0)">06-25</text>
<line x1="953.9" y1="516.0" x2="953.9" y2="519.0" stroke="#999"/>
<text x="953.9" y="531.0" text-anchor="end" fill="#e8731a" transform="rotate(-50 953.9 531.0)">06-26</text>
<line x1="992.4" y1="516.0" x2="992.4" y2="519.0" stroke="#999"/>
<text x="992.4" y="531.0" text-anchor="end" fill="#e8731a" transform="rotate(-50 992.4 531.0)">06-28</text>
<line x1="1031.0" y1="516.0" x2="1031.0" y2="519.0" stroke="#999"/>
<text x="1031.0" y="531.0" text-anchor="end" fill="#e8731a" transform="rotate(-50 1031.0 531.0)">07-01</text>
<line x1="1069.5" y1="516.0" x2="1069.5" y2="519.0" stroke="#999"/>
<text x="1069.5" y="531.0" text-anchor="end" fill="#e8731a" transform="rotate(-50 1069.5 531.0)">07-02</text>
<line x1="1108.0" y1="516.0" x2="1108.0" y2="519.0" stroke="#999"/>
<text x="1108.0" y="531.0" text-anchor="end" fill="#e8731a" transform="rotate(-50 1108.0 531.0)">07-03</text>
<polygon points="68.0,504.1 106.5,504.8 145.0,505.0 183.6,503.6 222.1,502.9 260.6,504.2 299.1,504.0 337.6,503.8 376.1,503.7 414.7,504.3 453.2,503.6 491.7,503.4 530.2,503.7 568.7,503.6 607.3,503.5 645.8,503.1 684.3,502.6 722.8,502.8 761.3,502.8 799.9,501.8 838.4,502.3 876.9,502.3 915.4,501.5 953.9,501.6 992.4,500.9 1031.0,501.3 1069.5,501.6 1108.0,500.8 1108.0,516.0 1069.5,516.0 1031.0,516.0 992.4,516.0 953.9,516.0 915.4,516.0 876.9,516.0 838.4,516.0 799.9,516.0 761.3,516.0 722.8,516.0 684.3,516.0 645.8,516.0 607.3,516.0 568.7,516.0 530.2,516.0 491.7,516.0 453.2,516.0 414.7,516.0 376.1,516.0 337.6,516.0 299.1,516.0 260.6,516.0 222.1,516.0 183.6,516.0 145.0,516.0 106.5,516.0 68.0,516.0" fill="#c7e9c0" fill-opacity="0.9" stroke="#fff" stroke-width="0.4"><title>overload_resolution — parseTranslationUnit</title></polygon>
<polygon points="68.0,365.9 106.5,338.1 145.0,331.8 183.6,312.1 222.1,290.2 260.6,325.2 299.1,314.1 337.6,307.4 376.1,311.6 414.7,308.9 453.2,324.9 491.7,320.0 530.2,323.0 568.7,319.7 607.3,319.7 645.8,319.4 684.3,279.7 722.8,282.4 761.3,282.9 799.9,273.0 838.4,353.0 876.9,347.2 915.4,341.9 953.9,343.0 992.4,339.1 1031.0,341.6 1069.5,342.1 1108.0,335.4 1108.0,500.8 1069.5,501.6 1031.0,501.3 992.4,500.9 953.9,501.6 915.4,501.5 876.9,502.3 838.4,502.3 799.9,501.8 761.3,502.8 722.8,502.8 684.3,502.6 645.8,503.1 607.3,503.5 568.7,503.6 530.2,503.7 491.7,503.4 453.2,503.6 414.7,504.3 376.1,503.7 337.6,503.8 299.1,504.0 260.6,504.2 222.1,502.9 183.6,503.6 145.0,505.0 106.5,504.8 68.0,504.1" fill="#41ab5d" fill-opacity="0.9" stroke="#fff" stroke-width="0.4"><title>overload_resolution — SemanticChecking</title></polygon>
<polygon points="68.0,300.3 106.5,274.2 145.0,265.2 183.6,241.1 222.1,216.6 260.6,255.5 299.1,243.4 337.6,235.1 376.1,239.4 414.7,239.7 453.2,258.2 491.7,252.9 530.2,256.1 568.7,251.9 607.3,249.5 645.8,250.9 684.3,151.7 722.8,153.5 761.3,148.8 799.9,143.8 838.4,286.1 876.9,278.0 915.4,269.6 953.9,271.1 992.4,267.6 1031.0,271.6 1069.5,271.1 1108.0,260.7 1108.0,335.4 1069.5,342.1 1031.0,341.6 992.4,339.1 953.9,343.0 915.4,341.9 876.9,347.2 838.4,353.0 799.9,273.0 761.3,282.9 722.8,282.4 684.3,279.7 645.8,319.4 607.3,319.7 568.7,319.7 530.2,323.0 491.7,320.0 453.2,324.9 414.7,308.9 376.1,311.6 337.6,307.4 299.1,314.1 260.6,325.2 222.1,290.2 183.6,312.1 145.0,331.8 106.5,338.1 68.0,365.9" fill="#006d2c" fill-opacity="0.9" stroke="#fff" stroke-width="0.4"><title>overload_resolution — generateIR</title></polygon>
<polygon points="68.0,298.7 106.5,273.5 145.0,265.2 183.6,239.7 222.1,183.3 260.6,255.5 299.1,242.4 337.6,235.1 376.1,238.8 414.7,233.3 453.2,257.0 491.7,252.9 530.2,255.1 568.7,250.5 607.3,248.0 645.8,250.9 684.3,150.5 722.8,148.7 761.3,147.6 799.9,143.8 838.4,283.0 876.9,277.0 915.4,267.6 953.9,269.4 992.4,267.6 1031.0,270.2 1069.5,270.2 1108.0,258.2 1108.0,260.7 1069.5,271.1 1031.0,271.6 992.4,267.6 953.9,271.1 915.4,269.6 876.9,278.0 838.4,286.1 799.9,143.8 761.3,148.8 722.8,153.5 684.3,151.7 645.8,250.9 607.3,249.5 568.7,251.9 530.2,256.1 491.7,252.9 453.2,258.2 414.7,239.7 376.1,239.4 337.6,235.1 299.1,243.4 260.6,255.5 222.1,216.6 183.6,241.1 145.0,265.2 106.5,274.2 68.0,300.3" fill="#74c476" fill-opacity="0.9" stroke="#fff" stroke-width="0.4"><title>overload_resolution — frontEndExecute (self)</title></polygon>
<polygon points="68.0,266.1 106.5,240.4 145.0,232.9 183.6,200.4 222.1,139.7 260.6,220.3 299.1,207.3 337.6,200.6 376.1,204.6 414.7,196.2 453.2,222.4 491.7,217.6 530.2,220.3 568.7,215.4 607.3,213.1 645.8,216.4 684.3,115.8 722.8,114.9 761.3,112.1 799.9,108.6 838.4,249.9 876.9,242.4 915.4,227.4 953.9,228.8 992.4,225.1 1031.0,231.9 1069.5,229.2 1108.0,217.0 1108.0,258.2 1069.5,270.2 1031.0,270.2 992.4,267.6 953.9,269.4 915.4,267.6 876.9,277.0 838.4,283.0 799.9,143.8 761.3,147.6 722.8,148.7 684.3,150.5 645.8,250.9 607.3,248.0 568.7,250.5 530.2,255.1 491.7,252.9 453.2,257.0 414.7,233.3 376.1,238.8 337.6,235.1 299.1,242.4 260.6,255.5 222.1,183.3 183.6,239.7 145.0,265.2 106.5,273.5 68.0,298.7" fill="#e6550d" fill-opacity="0.9" stroke="#fff" stroke-width="0.4"><title>overload_resolution — generateOutput (self)</title></polygon>
<polygon points="68.0,265.1 106.5,240.4 145.0,232.1 183.6,199.0 222.1,115.1 260.6,220.0 299.1,207.3 337.6,197.2 376.1,198.4 414.7,196.2 453.2,221.5 491.7,217.6 530.2,220.3 568.7,215.4 607.3,211.2 645.8,216.4 684.3,115.8 722.8,114.4 761.3,112.1 799.9,108.6 838.4,249.9 876.9,242.4 915.4,226.8 953.9,228.8 992.4,225.1 1031.0,231.9 1069.5,229.2 1108.0,217.0 1108.0,217.0 1069.5,229.2 1031.0,231.9 992.4,225.1 953.9,228.8 915.4,227.4 876.9,242.4 838.4,249.9 799.9,108.6 761.3,112.1 722.8,114.9 684.3,115.8 645.8,216.4 607.3,213.1 568.7,215.4 530.2,220.3 491.7,217.6 453.2,222.4 414.7,196.2 376.1,204.6 337.6,200.6 299.1,207.3 260.6,220.3 222.1,139.7 183.6,200.4 145.0,232.9 106.5,240.4 68.0,266.1" fill="#969696" fill-opacity="0.9" stroke="#fff" stroke-width="0.4"><title>overload_resolution — compileInner (self)</title></polygon>
<text x="12" y="578" fill="#666" font-weight="600">phase buckets</text>
<rect x="12" y="586" width="12" height="12" fill="#c7e9c0"/>
<text x="28" y="596" fill="#222">parseTranslationUnit</text>
<rect x="289" y="586" width="12" height="12" fill="#41ab5d"/>
<text x="305" y="596" fill="#222">SemanticChecking</text>
<rect x="566" y="586" width="12" height="12" fill="#006d2c"/>
<text x="582" y="596" fill="#222">generateIR</text>
<rect x="843" y="586" width="12" height="12" fill="#74c476"/>
<text x="859" y="596" fill="#222">frontEndExecute (self)</text>
<rect x="12" y="604" width="12" height="12" fill="#6baed6"/>
<text x="28" y="614" fill="#222">specializeModule</text>
<rect x="289" y="604" width="12" height="12" fill="#2171b5"/>
<text x="305" y="614" fill="#222">simplifyIR</text>
<rect x="566" y="604" width="12" height="12" fill="#08306b"/>
<text x="582" y="614" fill="#222">linkIR</text>
<rect x="843" y="604" width="12" height="12" fill="#9e9ac8"/>
<text x="859" y="614" fill="#222">unrollLoopsInModule</text>
<rect x="12" y="622" width="12" height="12" fill="#807dba"/>
<text x="28" y="632" fill="#222">legalizeResourceTypes</text>
<rect x="289" y="622" width="12" height="12" fill="#6a51a3"/>
<text x="305" y="632" fill="#222">legalizeExistentialTypeLayout</text>
<rect x="566" y="622" width="12" height="12" fill="#bcbddc"/>
<text x="582" y="632" fill="#222">performMandatoryEarlyInlining</text>
<rect x="843" y="622" width="12" height="12" fill="#dadaeb"/>
<text x="859" y="632" fill="#222">performForceInlining</text>
<rect x="12" y="640" width="12" height="12" fill="#4a1486"/>
<text x="28" y="650" fill="#222">linkAndOptimizeIR (self)</text>
<rect x="289" y="640" width="12" height="12" fill="#fd8d3c"/>
<text x="305" y="650" fill="#222">emitEntryPointsSourceFromIR</text>
<rect x="566" y="640" width="12" height="12" fill="#e6550d"/>
<text x="582" y="650" fill="#222">generateOutput (self)</text>
<rect x="843" y="640" width="12" height="12" fill="#969696"/>
<text x="859" y="650" fill="#222">compileInner (self)</text>
</svg>