<svg xmlns="http://www.w3.org/2000/svg" xmlns:xlink="http://www.w3.org/1999/xlink" width="1132" height="680" viewBox="0 0 1132 680" preserveAspectRatio="xMidYMid meet" font-family="sans-serif" font-size="13">
<rect width="1132" height="680" fill="white"/>
<text x="12" y="30" font-size="20" font-weight="bold">overload_resolution — full phase breakdown across releases (median ms)</text>
<text x="68" y="60" font-size="15" font-weight="600" fill="#1a1a1a">overload_resolution<tspan fill="#888" font-weight="400" text-decoration="none">  1.07×</tspan></text>
<line x1="68.0" y1="516.0" x2="1108.0" y2="516.0" stroke="#eee"/>
<text x="64.0" y="519.0" text-anchor="end" fill="#999">0.0</text>
<line x1="68.0" y1="296.0" x2="1108.0" y2="296.0" stroke="#eee"/>
<text x="64.0" y="299.0" text-anchor="end" fill="#999">39</text>
<line x1="68.0" y1="76.0" x2="1108.0" y2="76.0" stroke="#eee"/>
<text x="64.0" y="79.0" text-anchor="end" fill="#999">78</text>
<line x1="68.0" y1="76.0" x2="68.0" y2="516.0" stroke="#333"/>
<line x1="68.0" y1="516.0" x2="1108.0" y2="516.0" stroke="#333"/>
<line x1="706.9" y1="76.0" x2="706.9" y2="516.0" stroke="#e8731a" stroke-width="1.2" stroke-dasharray="4 3"/>
<text x="709.9" y="87.0" fill="#e8731a" font-size="11">daily →</text>
<line x1="68.0" y1="516.0" x2="68.0" y2="519.0" stroke="#999"/>
<text x="68.0" y="531.0" text-anchor="end" fill="#666" transform="rotate(-50 68.0 531.0)">25.14</text>
<line x1="97.7" y1="516.0" x2="97.7" y2="519.0" stroke="#999"/>
<text x="97.7" y="531.0" text-anchor="end" fill="#666" transform="rotate(-50 97.7 531.0)">25.15</text>
<line x1="127.4" y1="516.0" x2="127.4" y2="519.0" stroke="#999"/>
<text x="127.4" y="531.0" text-anchor="end" fill="#666" transform="rotate(-50 127.4 531.0)">25.16</text>
<line x1="157.1" y1="516.0" x2="157.1" y2="519.0" stroke="#999"/>
<text x="157.1" y="531.0" text-anchor="end" fill="#666" transform="rotate(-50 157.1 531.0)">25.17</text>
<line x1="186.9" y1="516.0" x2="186.9" y2="519.0" stroke="#999"/>
<text x="186.9" y="531.0" text-anchor="end" fill="#666" transform="rotate(-50 186.9 531.0)">25.18</text>
<line x1="216.6" y1="516.0" x2="216.6" y2="519.0" stroke="#999"/>
<text x="216.6" y="531.0" text-anchor="end" fill="#666" transform="rotate(-50 216.6 531.0)">25.19</text>
<line x1="246.3" y1="516.0" x2="246.3" y2="519.0" stroke="#999"/>
<text x="246.3" y="531.0" text-anchor="end" fill="#666" transform="rotate(-50 246.3 531.0)">25.20</text>
<line x1="276.0" y1="516.0" x2="276.0" y2="519.0" stroke="#999"/>
<text x="276.0" y="531.0" text-anchor="end" fill="#666" transform="rotate(-50 276.0 531.0)">25.21</text>
<line x1="305.7" y1="516.0" x2="305.7" y2="519.0" stroke="#999"/>
<text x="305.7" y="531.0" text-anchor="end" fill="#666" transform="rotate(-50 305.7 531.0)">25.22</text>
<line x1="335.4" y1="516.0" x2="335.4" y2="519.0" stroke="#999"/>
<text x="335.4" y="531.0" text-anchor="end" fill="#666" transform="rotate(-50 335.4 531.0)">25.23</text>
<line x1="365.1" y1="516.0" x2="365.1" y2="519.0" stroke="#999"/>
<text x="365.1" y="531.0" text-anchor="end" fill="#666" transform="rotate(-50 365.1 531.0)">25.24</text>
<line x1="394.9" y1="516.0" x2="394.9" y2="519.0" stroke="#999"/>
<text x="394.9" y="531.0" text-anchor="end" fill="#666" transform="rotate(-50 394.9 531.0)">26.1</text>
<line x1="424.6" y1="516.0" x2="424.6" y2="519.0" stroke="#999"/>
<text x="424.6" y="531.0" text-anchor="end" fill="#666" transform="rotate(-50 424.6 531.0)">26.2</text>
<line x1="454.3" y1="516.0" x2="454.3" y2="519.0" stroke="#999"/>
<text x="454.3" y="531.0" text-anchor="end" fill="#666" transform="rotate(-50 454.3 531.0)">26.3</text>
<line x1="484.0" y1="516.0" x2="484.0" y2="519.0" stroke="#999"/>
<text x="484.0" y="531.0" text-anchor="end" fill="#666" transform="rotate(-50 484.0 531.0)">26.4</text>
<line x1="513.7" y1="516.0" x2="513.7" y2="519.0" stroke="#999"/>
<text x="513.7" y="531.0" text-anchor="end" fill="#666" transform="rotate(-50 513.7 531.0)">26.5</text>
<line x1="543.4" y1="516.0" x2="543.4" y2="519.0" stroke="#999"/>
<text x="543.4" y="531.0" text-anchor="end" fill="#666" transform="rotate(-50 543.4 531.0)">26.7</text>
<line x1="573.1" y1="516.0" x2="573.1" y2="519.0" stroke="#999"/>
<text x="573.1" y="531.0" text-anchor="end" fill="#666" transform="rotate(-50 573.1 531.0)">26.8</text>
<line x1="602.9" y1="516.0" x2="602.9" y2="519.0" stroke="#999"/>
<text x="602.9" y="531.0" text-anchor="end" fill="#666" transform="rotate(-50 602.9 531.0)">26.9</text>
<line x1="632.6" y1="516.0" x2="632.6" y2="519.0" stroke="#999"/>
<text x="632.6" y="531.0" text-anchor="end" fill="#666" transform="rotate(-50 632.6 531.0)">26.10</text>
<line x1="662.3" y1="516.0" x2="662.3" y2="519.0" stroke="#999"/>
<text x="662.3" y="531.0" text-anchor="end" fill="#666" transform="rotate(-50 662.3 531.0)">26.11</text>
<line x1="692.0" y1="516.0" x2="692.0" y2="519.0" stroke="#999"/>
<text x="692.0" y="531.0" text-anchor="end" fill="#666" transform="rotate(-50 692.0 531.0)">26.12</text>
<line x1="721.7" y1="516.0" x2="721.7" y2="519.0" stroke="#999"/>
<text x="721.7" y="531.0" text-anchor="end" fill="#e8731a" transform="rotate(-50 721.7 531.0)">06-25</text>
<line x1="751.4" y1="516.0" x2="751.4" y2="519.0" stroke="#999"/>
<text x="751.4" y="531.0" text-anchor="end" fill="#e8731a" transform="rotate(-50 751.4 531.0)">06-26</text>
<line x1="781.1" y1="516.0" x2="781.1" y2="519.0" stroke="#999"/>
<text x="781.1" y="531.0" text-anchor="end" fill="#e8731a" transform="rotate(-50 781.1 531.0)">06-28</text>
<line x1="810.9" y1="516.0" x2="810.9" y2="519.0" stroke="#999"/>
<text x="810.9" y="531.0" text-anchor="end" fill="#e8731a" transform="rotate(-50 810.9 531.0)">07-01</text>
<line x1="840.6" y1="516.0" x2="840.6" y2="519.0" stroke="#999"/>
<text x="840.6" y="531.0" text-anchor="end" fill="#e8731a" transform="rotate(-50 840.6 531.0)">07-02</text>
<line x1="870.3" y1="516.0" x2="870.3" y2="519.0" stroke="#999"/>
<text x="870.3" y="531.0" text-anchor="end" fill="#e8731a" transform="rotate(-50 870.3 531.0)">07-03</text>
<line x1="900.0" y1="516.0" x2="900.0" y2="519.0" stroke="#999"/>
<text x="900.0" y="531.0" text-anchor="end" fill="#e8731a" transform="rotate(-50 900.0 531.0)">07-06</text>
<line x1="929.7" y1="516.0" x2="929.7" y2="519.0" stroke="#999"/>
<text x="929.7" y="531.0" text-anchor="end" fill="#e8731a" transform="rotate(-50 929.7 531.0)">07-07</text>
<line x1="959.4" y1="516.0" x2="959.4" y2="519.0" stroke="#999"/>
<text x="959.4" y="531.0" text-anchor="end" fill="#e8731a" transform="rotate(-50 959.4 531.0)">07-08</text>
<line x1="989.1" y1="516.0" x2="989.1" y2="519.0" stroke="#999"/>
<text x="989.1" y="531.0" text-anchor="end" fill="#e8731a" transform="rotate(-50 989.1 531.0)">07-09</text>
<line x1="1018.9" y1="516.0" x2="1018.9" y2="519.0" stroke="#999"/>
<text x="1018.9" y="531.0" text-anchor="end" fill="#e8731a" transform="rotate(-50 1018.9 531.0)">07-10</text>
<line x1="1048.6" y1="516.0" x2="1048.6" y2="519.0" stroke="#999"/>
<text x="1048.6" y="531.0" text-anchor="end" fill="#e8731a" transform="rotate(-50 1048.6 531.0)">07-11</text>
<line x1="1078.3" y1="516.0" x2="1078.3" y2="519.0" stroke="#999"/>
<text x="1078.3" y="531.0" text-anchor="end" fill="#e8731a" transform="rotate(-50 1078.3 531.0)">07-14</text>
<line x1="1108.0" y1="516.0" x2="1108.0" y2="519.0" stroke="#999"/>
<text x="1108.0" y="531.0" text-anchor="end" fill="#e8731a" transform="rotate(-50 1108.0 531.0)">07-15</text>
<polygon points="68.0,507.2 97.7,507.4 127.4,506.8 157.1,507.3 186.9,506.9 216.6,507.1 246.3,507.3 276.0,507.5 305.7,507.2 335.4,507.5 365.1,506.5 394.9,506.9 424.6,506.8 454.3,506.4 484.0,506.6 513.7,506.4 543.4,506.0 573.1,505.0 602.9,505.5 632.6,505.5 662.3,505.9 692.0,505.6 721.7,505.0 751.4,505.3 781.1,505.1 810.9,505.1 840.6,504.8 870.3,505.0 900.0,504.9 929.7,506.1 959.4,505.5 989.1,506.1 1018.9,506.0 1048.6,506.0 1078.3,506.1 1108.0,507.0 1108.0,516.0 1078.3,516.0 1048.6,516.0 1018.9,516.0 989.1,516.0 959.4,516.0 929.7,516.0 900.0,516.0 870.3,516.0 840.6,516.0 810.9,516.0 781.1,516.0 751.4,516.0 721.7,516.0 692.0,516.0 662.3,516.0 632.6,516.0 602.9,516.0 573.1,516.0 543.4,516.0 513.7,516.0 484.0,516.0 454.3,516.0 424.6,516.0 394.9,516.0 365.1,516.0 335.4,516.0 305.7,516.0 276.0,516.0 246.3,516.0 216.6,516.0 186.9,516.0 157.1,516.0 127.4,516.0 97.7,516.0 68.0,516.0" fill="#c7e9c0" fill-opacity="0.9" stroke="#fff" stroke-width="0.4"><title>overload_resolution — parseTranslationUnit</title></polygon>
<polygon points="68.0,404.6 97.7,377.5 127.4,362.2 157.1,350.0 186.9,358.5 216.6,369.4 246.3,372.2 276.0,371.4 305.7,371.4 335.4,374.6 365.1,374.5 394.9,374.0 424.6,367.8 454.3,368.5 484.0,371.2 513.7,366.3 543.4,338.9 573.1,308.8 602.9,324.1 632.6,319.2 662.3,395.0 692.0,389.0 721.7,385.9 751.4,388.5 781.1,386.2 810.9,384.9 840.6,383.6 870.3,387.2 900.0,385.7 929.7,385.3 959.4,385.1 989.1,384.5 1018.9,387.0 1048.6,386.4 1078.3,387.8 1108.0,397.8 1108.0,507.0 1078.3,506.1 1048.6,506.0 1018.9,506.0 989.1,506.1 959.4,505.5 929.7,506.1 900.0,504.9 870.3,505.0 840.6,504.8 810.9,505.1 781.1,505.1 751.4,505.3 721.7,505.0 692.0,505.6 662.3,505.9 632.6,505.5 602.9,505.5 573.1,505.0 543.4,506.0 513.7,506.4 484.0,506.6 454.3,506.4 424.6,506.8 394.9,506.9 365.1,506.5 335.4,507.5 305.7,507.2 276.0,507.5 246.3,507.3 216.6,507.1 186.9,506.9 157.1,507.3 127.4,506.8 97.7,507.4 68.0,507.2" fill="#41ab5d" fill-opacity="0.9" stroke="#fff" stroke-width="0.4"><title>overload_resolution — SemanticChecking</title></polygon>
<polygon points="68.0,356.2 97.7,328.3 127.4,306.4 157.1,293.4 186.9,302.2 216.6,316.3 246.3,319.4 276.0,319.3 305.7,318.8 335.4,323.4 365.1,325.4 394.9,323.8 424.6,316.8 454.3,318.2 484.0,320.8 513.7,315.7 543.4,229.1 573.1,169.8 602.9,202.2 632.6,206.3 662.3,344.8 692.0,338.1 721.7,331.4 751.4,334.1 781.1,332.4 810.9,331.4 840.6,328.1 870.3,333.6 900.0,330.7 929.7,331.4 959.4,330.9 989.1,330.3 1018.9,332.2 1048.6,331.8 1078.3,332.6 1108.0,347.1 1108.0,397.8 1078.3,387.8 1048.6,386.4 1018.9,387.0 989.1,384.5 959.4,385.1 929.7,385.3 900.0,385.7 870.3,387.2 840.6,383.6 810.9,384.9 781.1,386.2 751.4,388.5 721.7,385.9 692.0,389.0 662.3,395.0 632.6,319.2 602.9,324.1 573.1,308.8 543.4,338.9 513.7,366.3 484.0,371.2 454.3,368.5 424.6,367.8 394.9,374.0 365.1,374.5 335.4,374.6 305.7,371.4 276.0,371.4 246.3,372.2 216.6,369.4 186.9,358.5 157.1,350.0 127.4,362.2 97.7,377.5 68.0,404.6" fill="#006d2c" fill-opacity="0.9" stroke="#fff" stroke-width="0.4"><title>overload_resolution — generateIR</title></polygon>
<polygon points="68.0,354.1 97.7,327.6 127.4,297.2 157.1,293.4 186.9,297.4 216.6,315.6 246.3,318.6 276.0,314.6 305.7,318.1 335.4,322.8 365.1,325.4 394.9,323.0 424.6,314.6 454.3,317.5 484.0,320.4 513.7,314.6 543.4,228.2 573.1,169.8 602.9,202.2 632.6,206.3 662.3,343.4 692.0,336.7 721.7,330.1 751.4,333.2 781.1,331.0 810.9,329.8 840.6,327.0 870.3,333.6 900.0,326.7 929.7,330.0 959.4,330.4 989.1,329.7 1018.9,330.9 1048.6,330.6 1078.3,331.7 1108.0,346.3 1108.0,347.1 1078.3,332.6 1048.6,331.8 1018.9,332.2 989.1,330.3 959.4,330.9 929.7,331.4 900.0,330.7 870.3,333.6 840.6,328.1 810.9,331.4 781.1,332.4 751.4,334.1 721.7,331.4 692.0,338.1 662.3,344.8 632.6,206.3 602.9,202.2 573.1,169.8 543.4,229.1 513.7,315.7 484.0,320.8 454.3,318.2 424.6,316.8 394.9,323.8 365.1,325.4 335.4,323.4 305.7,318.8 276.0,319.3 246.3,319.4 216.6,316.3 186.9,302.2 157.1,293.4 127.4,306.4 97.7,328.3 68.0,356.2" fill="#74c476" fill-opacity="0.9" stroke="#fff" stroke-width="0.4"><title>overload_resolution — frontEndExecute (self)</title></polygon>
<polygon points="68.0,329.8 97.7,303.3 127.4,270.5 157.1,260.9 186.9,265.3 216.6,289.9 246.3,292.9 276.0,289.5 305.7,292.8 335.4,296.8 365.1,299.9 394.9,297.0 424.6,288.7 454.3,291.7 484.0,293.7 513.7,288.2 543.4,201.6 573.1,133.4 602.9,174.8 632.6,178.7 662.3,318.4 692.0,311.7 721.7,300.9 751.4,303.6 781.1,299.7 810.9,300.4 840.6,295.6 870.3,304.0 900.0,296.7 929.7,299.5 959.4,299.1 989.1,300.1 1018.9,301.6 1048.6,299.8 1078.3,301.2 1108.0,316.6 1108.0,346.3 1078.3,331.7 1048.6,330.6 1018.9,330.9 989.1,329.7 959.4,330.4 929.7,330.0 900.0,326.7 870.3,333.6 840.6,327.0 810.9,329.8 781.1,331.0 751.4,333.2 721.7,330.1 692.0,336.7 662.3,343.4 632.6,206.3 602.9,202.2 573.1,169.8 543.4,228.2 513.7,314.6 484.0,320.4 454.3,317.5 424.6,314.6 394.9,323.0 365.1,325.4 335.4,322.8 305.7,318.1 276.0,314.6 246.3,318.6 216.6,315.6 186.9,297.4 157.1,293.4 127.4,297.2 97.7,327.6 68.0,354.1" fill="#e6550d" fill-opacity="0.9" stroke="#fff" stroke-width="0.4"><title>overload_resolution — generateOutput (self)</title></polygon>
<polygon points="68.0,329.8 97.7,303.3 127.4,268.8 157.1,218.5 186.9,262.0 216.6,289.5 246.3,292.9 276.0,289.5 305.7,290.3 335.4,296.8 365.1,299.9 394.9,296.2 424.6,287.9 454.3,291.7 484.0,292.7 513.7,288.2 543.4,201.6 573.1,108.6 602.9,168.1 632.6,178.7 662.3,316.5 692.0,311.7 721.7,299.5 751.4,302.7 781.1,299.2 810.9,300.4 840.6,295.6 870.3,304.0 900.0,295.8 929.7,299.5 959.4,299.1 989.1,300.1 1018.9,301.6 1048.6,299.8 1078.3,301.2 1108.0,316.1 1108.0,316.6 1078.3,301.2 1048.6,299.8 1018.9,301.6 989.1,300.1 959.4,299.1 929.7,299.5 900.0,296.7 870.3,304.0 840.6,295.6 810.9,300.4 781.1,299.7 751.4,303.6 721.7,300.9 692.0,311.7 662.3,318.4 632.6,178.7 602.9,174.8 573.1,133.4 543.4,201.6 513.7,288.2 484.0,293.7 454.3,291.7 424.6,288.7 394.9,297.0 365.1,299.9 335.4,296.8 305.7,292.8 276.0,289.5 246.3,292.9 216.6,289.9 186.9,265.3 157.1,260.9 127.4,270.5 97.7,303.3 68.0,329.8" fill="#969696" fill-opacity="0.9" stroke="#fff" stroke-width="0.4"><title>overload_resolution — compileInner (self)</title></polygon>
<text x="12" y="578" fill="#666" font-weight="600">phase buckets</text>
<rect x="12" y="586" width="12" height="12" fill="#c7e9c0"/>
<text x="28" y="596" fill="#222">parseTranslationUnit</text>
<rect x="289" y="586" width="12" height="12" fill="#41ab5d"/>
<text x="305" y="596" fill="#222">SemanticChecking</text>
<rect x="566" y="586" width="12" height="12" fill="#006d2c"/>
<text x="582" y="596" fill="#222">generateIR</text>
<rect x="843" y="586" width="12" height="12" fill="#74c476"/>
<text x="859" y="596" fill="#222">frontEndExecute (self)</text>
<rect x="12" y="604" width="12" height="12" fill="#6baed6"/>
<text x="28" y="614" fill="#222">specializeModule</text>
<rect x="289" y="604" width="12" height="12" fill="#2171b5"/>
<text x="305" y="614" fill="#222">simplifyIR</text>
<rect x="566" y="604" width="12" height="12" fill="#08306b"/>
<text x="582" y="614" fill="#222">linkIR</text>
<rect x="843" y="604" width="12" height="12" fill="#9e9ac8"/>
<text x="859" y="614" fill="#222">unrollLoopsInModule</text>
<rect x="12" y="622" width="12" height="12" fill="#807dba"/>
<text x="28" y="632" fill="#222">legalizeResourceTypes</text>
<rect x="289" y="622" width="12" height="12" fill="#6a51a3"/>
<text x="305" y="632" fill="#222">legalizeExistentialTypeLayout</text>
<rect x="566" y="622" width="12" height="12" fill="#bcbddc"/>
<text x="582" y="632" fill="#222">performMandatoryEarlyInlining</text>
<rect x="843" y="622" width="12" height="12" fill="#dadaeb"/>
<text x="859" y="632" fill="#222">performForceInlining</text>
<rect x="12" y="640" width="12" height="12" fill="#4a1486"/>
<text x="28" y="650" fill="#222">linkAndOptimizeIR (self)</text>
<rect x="289" y="640" width="12" height="12" fill="#fd8d3c"/>
<text x="305" y="650" fill="#222">emitEntryPointsSourceFromIR</text>
<rect x="566" y="640" width="12" height="12" fill="#e6550d"/>
<text x="582" y="650" fill="#222">generateOutput (self)</text>
<rect x="843" y="640" width="12" height="12" fill="#969696"/>
<text x="859" y="650" fill="#222">compileInner (self)</text>
</svg>