<svg xmlns="http://www.w3.org/2000/svg" xmlns:xlink="http://www.w3.org/1999/xlink" width="1132" height="680" viewBox="0 0 1132 680" preserveAspectRatio="xMidYMid meet" font-family="sans-serif" font-size="13">
<rect width="1132" height="680" fill="white"/>
<text x="12" y="30" font-size="20" font-weight="bold">overload_resolution — full phase breakdown across releases (median ms)</text>
<text x="68" y="60" font-size="15" font-weight="600" fill="#1a1a1a">overload_resolution<tspan fill="#888" font-weight="400" text-decoration="none">  1.08×</tspan></text>
<line x1="68.0" y1="516.0" x2="1108.0" y2="516.0" stroke="#eee"/>
<text x="64.0" y="519.0" text-anchor="end" fill="#999">0.0</text>
<line x1="68.0" y1="296.0" x2="1108.0" y2="296.0" stroke="#eee"/>
<text x="64.0" y="299.0" text-anchor="end" fill="#999">28</text>
<line x1="68.0" y1="76.0" x2="1108.0" y2="76.0" stroke="#eee"/>
<text x="64.0" y="79.0" text-anchor="end" fill="#999">56</text>
<line x1="68.0" y1="76.0" x2="68.0" y2="516.0" stroke="#333"/>
<line x1="68.0" y1="516.0" x2="1108.0" y2="516.0" stroke="#333"/>
<line x1="68.0" y1="516.0" x2="68.0" y2="519.0" stroke="#999"/>
<text x="68.0" y="531.0" text-anchor="end" fill="#666" transform="rotate(-50 68.0 531.0)">25.14</text>
<line x1="120.0" y1="516.0" x2="120.0" y2="519.0" stroke="#999"/>
<text x="120.0" y="531.0" text-anchor="end" fill="#666" transform="rotate(-50 120.0 531.0)">25.15</text>
<line x1="172.0" y1="516.0" x2="172.0" y2="519.0" stroke="#999"/>
<text x="172.0" y="531.0" text-anchor="end" fill="#666" transform="rotate(-50 172.0 531.0)">25.16</text>
<line x1="224.0" y1="516.0" x2="224.0" y2="519.0" stroke="#999"/>
<text x="224.0" y="531.0" text-anchor="end" fill="#666" transform="rotate(-50 224.0 531.0)">25.17</text>
<line x1="276.0" y1="516.0" x2="276.0" y2="519.0" stroke="#999"/>
<text x="276.0" y="531.0" text-anchor="end" fill="#666" transform="rotate(-50 276.0 531.0)">25.18</text>
<line x1="328.0" y1="516.0" x2="328.0" y2="519.0" stroke="#999"/>
<text x="328.0" y="531.0" text-anchor="end" fill="#666" transform="rotate(-50 328.0 531.0)">25.19</text>
<line x1="380.0" y1="516.0" x2="380.0" y2="519.0" stroke="#999"/>
<text x="380.0" y="531.0" text-anchor="end" fill="#666" transform="rotate(-50 380.0 531.0)">25.20</text>
<line x1="432.0" y1="516.0" x2="432.0" y2="519.0" stroke="#999"/>
<text x="432.0" y="531.0" text-anchor="end" fill="#666" transform="rotate(-50 432.0 531.0)">25.21</text>
<line x1="484.0" y1="516.0" x2="484.0" y2="519.0" stroke="#999"/>
<text x="484.0" y="531.0" text-anchor="end" fill="#666" transform="rotate(-50 484.0 531.0)">25.22</text>
<line x1="536.0" y1="516.0" x2="536.0" y2="519.0" stroke="#999"/>
<text x="536.0" y="531.0" text-anchor="end" fill="#666" transform="rotate(-50 536.0 531.0)">25.23</text>
<line x1="588.0" y1="516.0" x2="588.0" y2="519.0" stroke="#999"/>
<text x="588.0" y="531.0" text-anchor="end" fill="#666" transform="rotate(-50 588.0 531.0)">25.24</text>
<line x1="640.0" y1="516.0" x2="640.0" y2="519.0" stroke="#999"/>
<text x="640.0" y="531.0" text-anchor="end" fill="#666" transform="rotate(-50 640.0 531.0)">26.1</text>
<line x1="692.0" y1="516.0" x2="692.0" y2="519.0" stroke="#999"/>
<text x="692.0" y="531.0" text-anchor="end" fill="#666" transform="rotate(-50 692.0 531.0)">26.2</text>
<line x1="744.0" y1="516.0" x2="744.0" y2="519.0" stroke="#999"/>
<text x="744.0" y="531.0" text-anchor="end" fill="#666" transform="rotate(-50 744.0 531.0)">26.3</text>
<line x1="796.0" y1="516.0" x2="796.0" y2="519.0" stroke="#999"/>
<text x="796.0" y="531.0" text-anchor="end" fill="#666" transform="rotate(-50 796.0 531.0)">26.4</text>
<line x1="848.0" y1="516.0" x2="848.0" y2="519.0" stroke="#999"/>
<text x="848.0" y="531.0" text-anchor="end" fill="#666" transform="rotate(-50 848.0 531.0)">26.5</text>
<line x1="900.0" y1="516.0" x2="900.0" y2="519.0" stroke="#999"/>
<text x="900.0" y="531.0" text-anchor="end" fill="#666" transform="rotate(-50 900.0 531.0)">26.7</text>
<line x1="952.0" y1="516.0" x2="952.0" y2="519.0" stroke="#999"/>
<text x="952.0" y="531.0" text-anchor="end" fill="#666" transform="rotate(-50 952.0 531.0)">26.8</text>
<line x1="1004.0" y1="516.0" x2="1004.0" y2="519.0" stroke="#999"/>
<text x="1004.0" y="531.0" text-anchor="end" fill="#666" transform="rotate(-50 1004.0 531.0)">26.9</text>
<line x1="1056.0" y1="516.0" x2="1056.0" y2="519.0" stroke="#999"/>
<text x="1056.0" y="531.0" text-anchor="end" fill="#666" transform="rotate(-50 1056.0 531.0)">26.10</text>
<line x1="1108.0" y1="516.0" x2="1108.0" y2="519.0" stroke="#999"/>
<text x="1108.0" y="531.0" text-anchor="end" fill="#666" transform="rotate(-50 1108.0 531.0)">26.11</text>
<polygon points="68.0,504.2 120.0,504.8 172.0,504.6 224.0,504.5 276.0,504.7 328.0,504.3 380.0,504.4 432.0,504.6 484.0,504.6 536.0,504.8 588.0,503.6 640.0,503.9 692.0,504.0 744.0,503.4 796.0,503.2 848.0,502.7 900.0,502.7 952.0,502.6 1004.0,502.7 1056.0,502.2 1108.0,502.5 1108.0,516.0 1056.0,516.0 1004.0,516.0 952.0,516.0 900.0,516.0 848.0,516.0 796.0,516.0 744.0,516.0 692.0,516.0 640.0,516.0 588.0,516.0 536.0,516.0 484.0,516.0 432.0,516.0 380.0,516.0 328.0,516.0 276.0,516.0 224.0,516.0 172.0,516.0 120.0,516.0 68.0,516.0" fill="#c7e9c0" fill-opacity="0.9" stroke="#fff" stroke-width="0.4"><title>overload_resolution — parseTranslationUnit</title></polygon>
<polygon points="68.0,364.4 120.0,334.1 172.0,330.8 224.0,324.8 276.0,323.9 328.0,324.1 380.0,321.4 432.0,323.8 484.0,328.2 536.0,324.8 588.0,322.2 640.0,320.3 692.0,317.9 744.0,319.0 796.0,313.4 848.0,304.5 900.0,276.5 952.0,276.2 1004.0,276.4 1056.0,268.4 1108.0,346.0 1108.0,502.5 1056.0,502.2 1004.0,502.7 952.0,502.6 900.0,502.7 848.0,502.7 796.0,503.2 744.0,503.4 692.0,504.0 640.0,503.9 588.0,503.6 536.0,504.8 484.0,504.6 432.0,504.6 380.0,504.4 328.0,504.3 276.0,504.7 224.0,504.5 172.0,504.6 120.0,504.8 68.0,504.2" fill="#41ab5d" fill-opacity="0.9" stroke="#fff" stroke-width="0.4"><title>overload_resolution — SemanticChecking</title></polygon>
<polygon points="68.0,298.6 120.0,268.2 172.0,265.2 224.0,256.7 276.0,255.4 328.0,254.4 380.0,252.0 432.0,253.9 484.0,259.2 536.0,257.4 588.0,255.1 640.0,251.7 692.0,247.5 744.0,249.8 796.0,241.8 848.0,233.1 900.0,155.3 952.0,155.0 1004.0,155.6 1056.0,146.7 1108.0,279.4 1108.0,346.0 1056.0,268.4 1004.0,276.4 952.0,276.2 900.0,276.5 848.0,304.5 796.0,313.4 744.0,319.0 692.0,317.9 640.0,320.3 588.0,322.2 536.0,324.8 484.0,328.2 432.0,323.8 380.0,321.4 328.0,324.1 276.0,323.9 224.0,324.8 172.0,330.8 120.0,334.1 68.0,364.4" fill="#006d2c" fill-opacity="0.9" stroke="#fff" stroke-width="0.4"><title>overload_resolution — generateIR</title></polygon>
<polygon points="68.0,297.6 120.0,267.4 172.0,264.2 224.0,255.9 276.0,255.4 328.0,251.6 380.0,251.5 432.0,253.0 484.0,257.0 536.0,256.8 588.0,253.7 640.0,250.7 692.0,247.5 744.0,249.0 796.0,240.4 848.0,231.5 900.0,155.3 952.0,155.0 1004.0,153.3 1056.0,145.3 1108.0,278.8 1108.0,279.4 1056.0,146.7 1004.0,155.6 952.0,155.0 900.0,155.3 848.0,233.1 796.0,241.8 744.0,249.8 692.0,247.5 640.0,251.7 588.0,255.1 536.0,257.4 484.0,259.2 432.0,253.9 380.0,252.0 328.0,254.4 276.0,255.4 224.0,256.7 172.0,265.2 120.0,268.2 68.0,298.6" fill="#74c476" fill-opacity="0.9" stroke="#fff" stroke-width="0.4"><title>overload_resolution — frontEndExecute (self)</title></polygon>
<polygon points="68.0,264.4 120.0,234.3 172.0,231.5 224.0,219.1 276.0,218.2 328.0,217.1 380.0,217.6 432.0,218.8 484.0,221.7 536.0,220.9 588.0,217.7 640.0,214.7 692.0,211.5 744.0,213.1 796.0,203.7 848.0,194.8 900.0,119.6 952.0,118.8 1004.0,116.8 1056.0,108.6 1108.0,244.9 1108.0,278.8 1056.0,145.3 1004.0,153.3 952.0,155.0 900.0,155.3 848.0,231.5 796.0,240.4 744.0,249.0 692.0,247.5 640.0,250.7 588.0,253.7 536.0,256.8 484.0,257.0 432.0,253.0 380.0,251.5 328.0,251.6 276.0,255.4 224.0,255.9 172.0,264.2 120.0,267.4 68.0,297.6" fill="#e6550d" fill-opacity="0.9" stroke="#fff" stroke-width="0.4"><title>overload_resolution — generateOutput (self)</title></polygon>
<polygon points="68.0,264.4 120.0,234.3 172.0,231.5 224.0,219.1 276.0,218.2 328.0,217.1 380.0,217.6 432.0,218.8 484.0,220.5 536.0,220.9 588.0,217.7 640.0,214.0 692.0,211.5 744.0,213.1 796.0,203.7 848.0,194.8 900.0,119.6 952.0,118.8 1004.0,115.5 1056.0,108.6 1108.0,244.0 1108.0,244.9 1056.0,108.6 1004.0,116.8 952.0,118.8 900.0,119.6 848.0,194.8 796.0,203.7 744.0,213.1 692.0,211.5 640.0,214.7 588.0,217.7 536.0,220.9 484.0,221.7 432.0,218.8 380.0,217.6 328.0,217.1 276.0,218.2 224.0,219.1 172.0,231.5 120.0,234.3 68.0,264.4" fill="#969696" fill-opacity="0.9" stroke="#fff" stroke-width="0.4"><title>overload_resolution — compileInner (self)</title></polygon>
<text x="12" y="578" fill="#666" font-weight="600">phase buckets</text>
<rect x="12" y="586" width="12" height="12" fill="#c7e9c0"/>
<text x="28" y="596" fill="#222">parseTranslationUnit</text>
<rect x="289" y="586" width="12" height="12" fill="#41ab5d"/>
<text x="305" y="596" fill="#222">SemanticChecking</text>
<rect x="566" y="586" width="12" height="12" fill="#006d2c"/>
<text x="582" y="596" fill="#222">generateIR</text>
<rect x="843" y="586" width="12" height="12" fill="#74c476"/>
<text x="859" y="596" fill="#222">frontEndExecute (self)</text>
<rect x="12" y="604" width="12" height="12" fill="#6baed6"/>
<text x="28" y="614" fill="#222">specializeModule</text>
<rect x="289" y="604" width="12" height="12" fill="#2171b5"/>
<text x="305" y="614" fill="#222">simplifyIR</text>
<rect x="566" y="604" width="12" height="12" fill="#08306b"/>
<text x="582" y="614" fill="#222">linkIR</text>
<rect x="843" y="604" width="12" height="12" fill="#9e9ac8"/>
<text x="859" y="614" fill="#222">unrollLoopsInModule</text>
<rect x="12" y="622" width="12" height="12" fill="#807dba"/>
<text x="28" y="632" fill="#222">legalizeResourceTypes</text>
<rect x="289" y="622" width="12" height="12" fill="#6a51a3"/>
<text x="305" y="632" fill="#222">legalizeExistentialTypeLayout</text>
<rect x="566" y="622" width="12" height="12" fill="#bcbddc"/>
<text x="582" y="632" fill="#222">performMandatoryEarlyInlining</text>
<rect x="843" y="622" width="12" height="12" fill="#dadaeb"/>
<text x="859" y="632" fill="#222">performForceInlining</text>
<rect x="12" y="640" width="12" height="12" fill="#4a1486"/>
<text x="28" y="650" fill="#222">linkAndOptimizeIR (self)</text>
<rect x="289" y="640" width="12" height="12" fill="#fd8d3c"/>
<text x="305" y="650" fill="#222">emitEntryPointsSourceFromIR</text>
<rect x="566" y="640" width="12" height="12" fill="#e6550d"/>
<text x="582" y="650" fill="#222">generateOutput (self)</text>
<rect x="843" y="640" width="12" height="12" fill="#969696"/>
<text x="859" y="650" fill="#222">compileInner (self)</text>
</svg>