<svg xmlns="http://www.w3.org/2000/svg" xmlns:xlink="http://www.w3.org/1999/xlink" width="1132" height="680" viewBox="0 0 1132 680" preserveAspectRatio="xMidYMid meet" font-family="sans-serif" font-size="13">
<rect width="1132" height="680" fill="white"/>
<text x="12" y="30" font-size="20" font-weight="bold">parse — Across releases (median ms)</text>
<text x="68" y="60" font-size="15" font-weight="600" fill="#1a1a1a">parse<tspan fill="#888" font-weight="400" text-decoration="none">  0.18×</tspan></text>
<line x1="68.0" y1="516.0" x2="1108.0" y2="516.0" stroke="#eee"/>
<text x="64.0" y="519.0" text-anchor="end" fill="#999">0.0</text>
<line x1="68.0" y1="296.0" x2="1108.0" y2="296.0" stroke="#eee"/>
<text x="64.0" y="299.0" text-anchor="end" fill="#999">1082</text>
<line x1="68.0" y1="76.0" x2="1108.0" y2="76.0" stroke="#eee"/>
<text x="64.0" y="79.0" text-anchor="end" fill="#999">2164</text>
<line x1="68.0" y1="76.0" x2="68.0" y2="516.0" stroke="#333"/>
<line x1="68.0" y1="516.0" x2="1108.0" y2="516.0" stroke="#333"/>
<line x1="68.0" y1="516.0" x2="68.0" y2="519.0" stroke="#999"/>
<text x="68.0" y="531.0" text-anchor="end" fill="#666" transform="rotate(-50 68.0 531.0)">25.12</text>
<line x1="109.6" y1="516.0" x2="109.6" y2="519.0" stroke="#999"/>
<text x="109.6" y="531.0" text-anchor="end" fill="#666" transform="rotate(-50 109.6 531.0)">25.13</text>
<line x1="151.2" y1="516.0" x2="151.2" y2="519.0" stroke="#999"/>
<text x="151.2" y="531.0" text-anchor="end" fill="#666" transform="rotate(-50 151.2 531.0)">25.14</text>
<line x1="192.8" y1="516.0" x2="192.8" y2="519.0" stroke="#999"/>
<text x="192.8" y="531.0" text-anchor="end" fill="#666" transform="rotate(-50 192.8 531.0)">25.15</text>
<line x1="234.4" y1="516.0" x2="234.4" y2="519.0" stroke="#999"/>
<text x="234.4" y="531.0" text-anchor="end" fill="#666" transform="rotate(-50 234.4 531.0)">25.16</text>
<line x1="276.0" y1="516.0" x2="276.0" y2="519.0" stroke="#999"/>
<text x="276.0" y="531.0" text-anchor="end" fill="#666" transform="rotate(-50 276.0 531.0)">25.17</text>
<line x1="317.6" y1="516.0" x2="317.6" y2="519.0" stroke="#999"/>
<text x="317.6" y="531.0" text-anchor="end" fill="#666" transform="rotate(-50 317.6 531.0)">25.18</text>
<line x1="359.2" y1="516.0" x2="359.2" y2="519.0" stroke="#999"/>
<text x="359.2" y="531.0" text-anchor="end" fill="#666" transform="rotate(-50 359.2 531.0)">25.19</text>
<line x1="400.8" y1="516.0" x2="400.8" y2="519.0" stroke="#999"/>
<text x="400.8" y="531.0" text-anchor="end" fill="#666" transform="rotate(-50 400.8 531.0)">25.20</text>
<line x1="442.4" y1="516.0" x2="442.4" y2="519.0" stroke="#999"/>
<text x="442.4" y="531.0" text-anchor="end" fill="#666" transform="rotate(-50 442.4 531.0)">25.21</text>
<line x1="484.0" y1="516.0" x2="484.0" y2="519.0" stroke="#999"/>
<text x="484.0" y="531.0" text-anchor="end" fill="#666" transform="rotate(-50 484.0 531.0)">25.22</text>
<line x1="525.6" y1="516.0" x2="525.6" y2="519.0" stroke="#999"/>
<text x="525.6" y="531.0" text-anchor="end" fill="#666" transform="rotate(-50 525.6 531.0)">25.23</text>
<line x1="567.2" y1="516.0" x2="567.2" y2="519.0" stroke="#999"/>
<text x="567.2" y="531.0" text-anchor="end" fill="#666" transform="rotate(-50 567.2 531.0)">25.24</text>
<line x1="608.8" y1="516.0" x2="608.8" y2="519.0" stroke="#999"/>
<text x="608.8" y="531.0" text-anchor="end" fill="#666" transform="rotate(-50 608.8 531.0)">26.1</text>
<line x1="650.4" y1="516.0" x2="650.4" y2="519.0" stroke="#999"/>
<text x="650.4" y="531.0" text-anchor="end" fill="#666" transform="rotate(-50 650.4 531.0)">26.2</text>
<line x1="692.0" y1="516.0" x2="692.0" y2="519.0" stroke="#999"/>
<text x="692.0" y="531.0" text-anchor="end" fill="#666" transform="rotate(-50 692.0 531.0)">26.3</text>
<line x1="733.6" y1="516.0" x2="733.6" y2="519.0" stroke="#999"/>
<text x="733.6" y="531.0" text-anchor="end" fill="#666" transform="rotate(-50 733.6 531.0)">26.4</text>
<line x1="775.2" y1="516.0" x2="775.2" y2="519.0" stroke="#999"/>
<text x="775.2" y="531.0" text-anchor="end" fill="#666" transform="rotate(-50 775.2 531.0)">26.5</text>
<line x1="816.8" y1="516.0" x2="816.8" y2="519.0" stroke="#999"/>
<text x="816.8" y="531.0" text-anchor="end" fill="#666" transform="rotate(-50 816.8 531.0)">26.7</text>
<line x1="858.4" y1="516.0" x2="858.4" y2="519.0" stroke="#999"/>
<text x="858.4" y="531.0" text-anchor="end" fill="#666" transform="rotate(-50 858.4 531.0)">26.8</text>
<line x1="900.0" y1="516.0" x2="900.0" y2="519.0" stroke="#999"/>
<text x="900.0" y="531.0" text-anchor="end" fill="#666" transform="rotate(-50 900.0 531.0)">26.9</text>
<line x1="941.6" y1="516.0" x2="941.6" y2="519.0" stroke="#999"/>
<text x="941.6" y="531.0" text-anchor="end" fill="#666" transform="rotate(-50 941.6 531.0)">26.10</text>
<line x1="983.2" y1="516.0" x2="983.2" y2="519.0" stroke="#999"/>
<text x="983.2" y="531.0" text-anchor="end" fill="#666" transform="rotate(-50 983.2 531.0)">26.11</text>
<line x1="1024.8" y1="516.0" x2="1024.8" y2="519.0" stroke="#999"/>
<text x="1024.8" y="531.0" text-anchor="end" fill="#666" transform="rotate(-50 1024.8 531.0)">26.12</text>
<line x1="1066.4" y1="516.0" x2="1066.4" y2="519.0" stroke="#999"/>
<text x="1066.4" y="531.0" text-anchor="end" fill="#666" transform="rotate(-50 1066.4 531.0)">26.13</text>
<line x1="1108.0" y1="516.0" x2="1108.0" y2="519.0" stroke="#999"/>
<text x="1108.0" y="531.0" text-anchor="end" fill="#666" transform="rotate(-50 1108.0 531.0)">26.13.1</text>
<polygon points="68.0,509.5 109.6,509.2 151.2,508.8 192.8,509.3 234.4,509.2 276.0,509.4 317.6,509.4 359.2,509.3 400.8,509.4 442.4,509.3 484.0,509.4 525.6,509.4 567.2,509.4 608.8,509.2 650.4,509.2 692.0,509.3 733.6,509.2 775.2,509.2 816.8,508.2 858.4,508.9 900.0,509.1 941.6,509.2 983.2,508.2 1024.8,509.1 1066.4,508.9 1108.0,509.3 1108.0,516.0 1066.4,516.0 1024.8,516.0 983.2,516.0 941.6,516.0 900.0,516.0 858.4,516.0 816.8,516.0 775.2,516.0 733.6,516.0 692.0,516.0 650.4,516.0 608.8,516.0 567.2,516.0 525.6,516.0 484.0,516.0 442.4,516.0 400.8,516.0 359.2,516.0 317.6,516.0 276.0,516.0 234.4,516.0 192.8,516.0 151.2,516.0 109.6,516.0 68.0,516.0" fill="#c7e9c0" fill-opacity="0.9" stroke="#fff" stroke-width="0.4"><title>parse — parseTranslationUnit</title></polygon>
<polygon points="68.0,280.4 109.6,267.7 151.2,240.2 192.8,255.5 234.4,268.1 276.0,266.7 317.6,268.3 359.2,272.9 400.8,268.8 442.4,271.9 484.0,268.3 525.6,266.0 567.2,267.4 608.8,264.1 650.4,264.2 692.0,260.4 733.6,252.7 775.2,258.6 816.8,220.0 858.4,254.3 900.0,256.6 941.6,256.2 983.2,480.2 1024.8,482.8 1066.4,482.7 1108.0,484.4 1108.0,509.3 1066.4,508.9 1024.8,509.1 983.2,508.2 941.6,509.2 900.0,509.1 858.4,508.9 816.8,508.2 775.2,509.2 733.6,509.2 692.0,509.3 650.4,509.2 608.8,509.2 567.2,509.4 525.6,509.4 484.0,509.4 442.4,509.3 400.8,509.4 359.2,509.3 317.6,509.4 276.0,509.4 234.4,509.2 192.8,509.3 151.2,508.8 109.6,509.2 68.0,509.5" fill="#41ab5d" fill-opacity="0.9" stroke="#fff" stroke-width="0.4"><title>parse — SemanticChecking</title></polygon>
<polygon points="68.0,231.6 109.6,216.4 151.2,178.1 192.8,195.6 234.4,215.5 276.0,213.1 317.6,216.5 359.2,222.1 400.8,217.4 442.4,221.8 484.0,216.4 525.6,217.7 567.2,217.4 608.8,216.1 650.4,214.2 692.0,211.5 733.6,198.6 775.2,209.5 816.8,159.3 858.4,202.6 900.0,205.1 941.6,203.9 983.2,441.1 1024.8,448.8 1066.4,449.3 1108.0,454.4 1108.0,484.4 1066.4,482.7 1024.8,482.8 983.2,480.2 941.6,256.2 900.0,256.6 858.4,254.3 816.8,220.0 775.2,258.6 733.6,252.7 692.0,260.4 650.4,264.2 608.8,264.1 567.2,267.4 525.6,266.0 484.0,268.3 442.4,271.9 400.8,268.8 359.2,272.9 317.6,268.3 276.0,266.7 234.4,268.1 192.8,255.5 151.2,240.2 109.6,267.7 68.0,280.4" fill="#006d2c" fill-opacity="0.9" stroke="#fff" stroke-width="0.4"><title>parse — generateIR</title></polygon>
<polygon points="68.0,231.5 109.6,216.4 151.2,178.1 192.8,194.4 234.4,211.9 276.0,212.9 317.6,216.0 359.2,221.3 400.8,217.4 442.4,220.9 484.0,216.4 525.6,217.0 567.2,217.0 608.8,216.1 650.4,214.2 692.0,211.5 733.6,198.6 775.2,209.5 816.8,159.3 858.4,202.6 900.0,204.2 941.6,203.9 983.2,440.4 1024.8,448.8 1066.4,449.1 1108.0,454.4 1108.0,454.4 1066.4,449.3 1024.8,448.8 983.2,441.1 941.6,203.9 900.0,205.1 858.4,202.6 816.8,159.3 775.2,209.5 733.6,198.6 692.0,211.5 650.4,214.2 608.8,216.1 567.2,217.4 525.6,217.7 484.0,216.4 442.4,221.8 400.8,217.4 359.2,222.1 317.6,216.5 276.0,213.1 234.4,215.5 192.8,195.6 151.2,178.1 109.6,216.4 68.0,231.6" fill="#74c476" fill-opacity="0.9" stroke="#fff" stroke-width="0.4"><title>parse — frontEndExecute (self)</title></polygon>
<polygon points="68.0,108.6 109.6,203.9 151.2,165.0 192.8,182.0 234.4,199.9 276.0,198.9 317.6,202.0 359.2,209.1 400.8,205.4 442.4,208.7 484.0,204.4 525.6,204.8 567.2,204.9 608.8,204.2 650.4,202.4 692.0,199.8 733.6,186.3 775.2,197.5 816.8,146.6 858.4,190.8 900.0,192.1 941.6,191.8 983.2,427.0 1024.8,436.9 1066.4,437.2 1108.0,442.7 1108.0,454.4 1066.4,449.1 1024.8,448.8 983.2,440.4 941.6,203.9 900.0,204.2 858.4,202.6 816.8,159.3 775.2,209.5 733.6,198.6 692.0,211.5 650.4,214.2 608.8,216.1 567.2,217.0 525.6,217.0 484.0,216.4 442.4,220.9 400.8,217.4 359.2,221.3 317.6,216.0 276.0,212.9 234.4,211.9 192.8,194.4 151.2,178.1 109.6,216.4 68.0,231.5" fill="#e6550d" fill-opacity="0.9" stroke="#fff" stroke-width="0.4"><title>parse — generateOutput (self)</title></polygon>
<polygon points="68.0,108.6 109.6,203.9 151.2,165.0 192.8,181.6 234.4,199.9 276.0,198.8 317.6,202.0 359.2,209.0 400.8,205.0 442.4,207.9 484.0,204.4 525.6,204.8 567.2,204.9 608.8,204.2 650.4,202.4 692.0,199.8 733.6,183.2 775.2,197.5 816.8,146.6 858.4,190.2 900.0,192.1 941.6,191.8 983.2,426.8 1024.8,436.9 1066.4,437.2 1108.0,442.5 1108.0,442.7 1066.4,437.2 1024.8,436.9 983.2,427.0 941.6,191.8 900.0,192.1 858.4,190.8 816.8,146.6 775.2,197.5 733.6,186.3 692.0,199.8 650.4,202.4 608.8,204.2 567.2,204.9 525.6,204.8 484.0,204.4 442.4,208.7 400.8,205.4 359.2,209.1 317.6,202.0 276.0,198.9 234.4,199.9 192.8,182.0 151.2,165.0 109.6,203.9 68.0,108.6" fill="#969696" fill-opacity="0.9" stroke="#fff" stroke-width="0.4"><title>parse — compileInner (self)</title></polygon>
<text x="12" y="578" fill="#666" font-weight="600">phase buckets</text>
<rect x="12" y="586" width="12" height="12" fill="#c7e9c0"/>
<text x="28" y="596" fill="#222">parseTranslationUnit</text>
<rect x="289" y="586" width="12" height="12" fill="#41ab5d"/>
<text x="305" y="596" fill="#222">SemanticChecking</text>
<rect x="566" y="586" width="12" height="12" fill="#006d2c"/>
<text x="582" y="596" fill="#222">generateIR</text>
<rect x="843" y="586" width="12" height="12" fill="#74c476"/>
<text x="859" y="596" fill="#222">frontEndExecute (self)</text>
<rect x="12" y="604" width="12" height="12" fill="#6baed6"/>
<text x="28" y="614" fill="#222">specializeModule</text>
<rect x="289" y="604" width="12" height="12" fill="#2171b5"/>
<text x="305" y="614" fill="#222">simplifyIR</text>
<rect x="566" y="604" width="12" height="12" fill="#08306b"/>
<text x="582" y="614" fill="#222">linkIR</text>
<rect x="843" y="604" width="12" height="12" fill="#9e9ac8"/>
<text x="859" y="614" fill="#222">unrollLoopsInModule</text>
<rect x="12" y="622" width="12" height="12" fill="#807dba"/>
<text x="28" y="632" fill="#222">legalizeResourceTypes</text>
<rect x="289" y="622" width="12" height="12" fill="#6a51a3"/>
<text x="305" y="632" fill="#222">legalizeExistentialTypeLayout</text>
<rect x="566" y="622" width="12" height="12" fill="#bcbddc"/>
<text x="582" y="632" fill="#222">performMandatoryEarlyInlining</text>
<rect x="843" y="622" width="12" height="12" fill="#dadaeb"/>
<text x="859" y="632" fill="#222">performForceInlining</text>
<rect x="12" y="640" width="12" height="12" fill="#4a1486"/>
<text x="28" y="650" fill="#222">linkAndOptimizeIR (self)</text>
<rect x="289" y="640" width="12" height="12" fill="#fd8d3c"/>
<text x="305" y="650" fill="#222">emitEntryPointsSourceFromIR</text>
<rect x="566" y="640" width="12" height="12" fill="#e6550d"/>
<text x="582" y="650" fill="#222">generateOutput (self)</text>
<rect x="843" y="640" width="12" height="12" fill="#969696"/>
<text x="859" y="650" fill="#222">compileInner (self)</text>
</svg>