<svg xmlns="http://www.w3.org/2000/svg" xmlns:xlink="http://www.w3.org/1999/xlink" width="1132" height="680" viewBox="0 0 1132 680" preserveAspectRatio="xMidYMid meet" font-family="sans-serif" font-size="13">
<rect width="1132" height="680" fill="white"/>
<text x="12" y="30" font-size="20" font-weight="bold">parse — full phase breakdown across releases (median ms)</text>
<text x="68" y="60" font-size="15" font-weight="600" fill="#1a1a1a">parse<tspan fill="#888" font-weight="400" text-decoration="none">  0.27×</tspan></text>
<line x1="68.0" y1="516.0" x2="1108.0" y2="516.0" stroke="#eee"/>
<text x="64.0" y="519.0" text-anchor="end" fill="#999">0.0</text>
<line x1="68.0" y1="296.0" x2="1108.0" y2="296.0" stroke="#eee"/>
<text x="64.0" y="299.0" text-anchor="end" fill="#999">918</text>
<line x1="68.0" y1="76.0" x2="1108.0" y2="76.0" stroke="#eee"/>
<text x="64.0" y="79.0" text-anchor="end" fill="#999">1837</text>
<line x1="68.0" y1="76.0" x2="68.0" y2="516.0" stroke="#333"/>
<line x1="68.0" y1="516.0" x2="1108.0" y2="516.0" stroke="#333"/>
<line x1="813.3" y1="76.0" x2="813.3" y2="516.0" stroke="#e8731a" stroke-width="1.2" stroke-dasharray="4 3"/>
<text x="816.3" y="87.0" fill="#e8731a" font-size="11">daily →</text>
<line x1="68.0" y1="516.0" x2="68.0" y2="519.0" stroke="#999"/>
<text x="68.0" y="531.0" text-anchor="end" fill="#666" transform="rotate(-50 68.0 531.0)">25.14</text>
<line x1="102.7" y1="516.0" x2="102.7" y2="519.0" stroke="#999"/>
<text x="102.7" y="531.0" text-anchor="end" fill="#666" transform="rotate(-50 102.7 531.0)">25.15</text>
<line x1="137.3" y1="516.0" x2="137.3" y2="519.0" stroke="#999"/>
<text x="137.3" y="531.0" text-anchor="end" fill="#666" transform="rotate(-50 137.3 531.0)">25.16</text>
<line x1="172.0" y1="516.0" x2="172.0" y2="519.0" stroke="#999"/>
<text x="172.0" y="531.0" text-anchor="end" fill="#666" transform="rotate(-50 172.0 531.0)">25.17</text>
<line x1="206.7" y1="516.0" x2="206.7" y2="519.0" stroke="#999"/>
<text x="206.7" y="531.0" text-anchor="end" fill="#666" transform="rotate(-50 206.7 531.0)">25.18</text>
<line x1="241.3" y1="516.0" x2="241.3" y2="519.0" stroke="#999"/>
<text x="241.3" y="531.0" text-anchor="end" fill="#666" transform="rotate(-50 241.3 531.0)">25.19</text>
<line x1="276.0" y1="516.0" x2="276.0" y2="519.0" stroke="#999"/>
<text x="276.0" y="531.0" text-anchor="end" fill="#666" transform="rotate(-50 276.0 531.0)">25.20</text>
<line x1="310.7" y1="516.0" x2="310.7" y2="519.0" stroke="#999"/>
<text x="310.7" y="531.0" text-anchor="end" fill="#666" transform="rotate(-50 310.7 531.0)">25.21</text>
<line x1="345.3" y1="516.0" x2="345.3" y2="519.0" stroke="#999"/>
<text x="345.3" y="531.0" text-anchor="end" fill="#666" transform="rotate(-50 345.3 531.0)">25.22</text>
<line x1="380.0" y1="516.0" x2="380.0" y2="519.0" stroke="#999"/>
<text x="380.0" y="531.0" text-anchor="end" fill="#666" transform="rotate(-50 380.0 531.0)">25.23</text>
<line x1="414.7" y1="516.0" x2="414.7" y2="519.0" stroke="#999"/>
<text x="414.7" y="531.0" text-anchor="end" fill="#666" transform="rotate(-50 414.7 531.0)">25.24</text>
<line x1="449.3" y1="516.0" x2="449.3" y2="519.0" stroke="#999"/>
<text x="449.3" y="531.0" text-anchor="end" fill="#666" transform="rotate(-50 449.3 531.0)">26.1</text>
<line x1="484.0" y1="516.0" x2="484.0" y2="519.0" stroke="#999"/>
<text x="484.0" y="531.0" text-anchor="end" fill="#666" transform="rotate(-50 484.0 531.0)">26.2</text>
<line x1="518.7" y1="516.0" x2="518.7" y2="519.0" stroke="#999"/>
<text x="518.7" y="531.0" text-anchor="end" fill="#666" transform="rotate(-50 518.7 531.0)">26.3</text>
<line x1="553.3" y1="516.0" x2="553.3" y2="519.0" stroke="#999"/>
<text x="553.3" y="531.0" text-anchor="end" fill="#666" transform="rotate(-50 553.3 531.0)">26.4</text>
<line x1="588.0" y1="516.0" x2="588.0" y2="519.0" stroke="#999"/>
<text x="588.0" y="531.0" text-anchor="end" fill="#666" transform="rotate(-50 588.0 531.0)">26.5</text>
<line x1="622.7" y1="516.0" x2="622.7" y2="519.0" stroke="#999"/>
<text x="622.7" y="531.0" text-anchor="end" fill="#666" transform="rotate(-50 622.7 531.0)">26.7</text>
<line x1="657.3" y1="516.0" x2="657.3" y2="519.0" stroke="#999"/>
<text x="657.3" y="531.0" text-anchor="end" fill="#666" transform="rotate(-50 657.3 531.0)">26.8</text>
<line x1="692.0" y1="516.0" x2="692.0" y2="519.0" stroke="#999"/>
<text x="692.0" y="531.0" text-anchor="end" fill="#666" transform="rotate(-50 692.0 531.0)">26.9</text>
<line x1="726.7" y1="516.0" x2="726.7" y2="519.0" stroke="#999"/>
<text x="726.7" y="531.0" text-anchor="end" fill="#666" transform="rotate(-50 726.7 531.0)">26.10</text>
<line x1="761.3" y1="516.0" x2="761.3" y2="519.0" stroke="#999"/>
<text x="761.3" y="531.0" text-anchor="end" fill="#666" transform="rotate(-50 761.3 531.0)">26.11</text>
<line x1="796.0" y1="516.0" x2="796.0" y2="519.0" stroke="#999"/>
<text x="796.0" y="531.0" text-anchor="end" fill="#666" transform="rotate(-50 796.0 531.0)">26.12</text>
<line x1="830.7" y1="516.0" x2="830.7" y2="519.0" stroke="#999"/>
<text x="830.7" y="531.0" text-anchor="end" fill="#e8731a" transform="rotate(-50 830.7 531.0)">06-25</text>
<line x1="865.3" y1="516.0" x2="865.3" y2="519.0" stroke="#999"/>
<text x="865.3" y="531.0" text-anchor="end" fill="#e8731a" transform="rotate(-50 865.3 531.0)">06-26</text>
<line x1="900.0" y1="516.0" x2="900.0" y2="519.0" stroke="#999"/>
<text x="900.0" y="531.0" text-anchor="end" fill="#e8731a" transform="rotate(-50 900.0 531.0)">06-28</text>
<line x1="934.7" y1="516.0" x2="934.7" y2="519.0" stroke="#999"/>
<text x="934.7" y="531.0" text-anchor="end" fill="#e8731a" transform="rotate(-50 934.7 531.0)">07-01</text>
<line x1="969.3" y1="516.0" x2="969.3" y2="519.0" stroke="#999"/>
<text x="969.3" y="531.0" text-anchor="end" fill="#e8731a" transform="rotate(-50 969.3 531.0)">07-02</text>
<line x1="1004.0" y1="516.0" x2="1004.0" y2="519.0" stroke="#999"/>
<text x="1004.0" y="531.0" text-anchor="end" fill="#e8731a" transform="rotate(-50 1004.0 531.0)">07-03</text>
<line x1="1038.7" y1="516.0" x2="1038.7" y2="519.0" stroke="#999"/>
<text x="1038.7" y="531.0" text-anchor="end" fill="#e8731a" transform="rotate(-50 1038.7 531.0)">07-03</text>
<line x1="1073.3" y1="516.0" x2="1073.3" y2="519.0" stroke="#999"/>
<text x="1073.3" y="531.0" text-anchor="end" fill="#e8731a" transform="rotate(-50 1073.3 531.0)">07-03</text>
<line x1="1108.0" y1="516.0" x2="1108.0" y2="519.0" stroke="#999"/>
<text x="1108.0" y="531.0" text-anchor="end" fill="#e8731a" transform="rotate(-50 1108.0 531.0)">07-07</text>
<polygon points="68.0,508.5 102.7,508.4 137.3,508.4 172.0,508.0 206.7,507.6 241.3,507.8 276.0,507.6 310.7,507.3 345.3,508.1 380.0,507.7 414.7,507.8 449.3,508.4 484.0,508.3 518.7,508.4 553.3,508.3 588.0,508.2 622.7,507.9 657.3,507.9 692.0,508.1 726.7,508.0 761.3,508.2 796.0,508.2 830.7,507.8 865.3,507.7 900.0,507.7 934.7,507.7 969.3,507.8 1004.0,507.5 1038.7,507.3 1073.3,507.6 1108.0,507.5 1108.0,516.0 1073.3,516.0 1038.7,516.0 1004.0,516.0 969.3,516.0 934.7,516.0 900.0,516.0 865.3,516.0 830.7,516.0 796.0,516.0 761.3,516.0 726.7,516.0 692.0,516.0 657.3,516.0 622.7,516.0 588.0,516.0 553.3,516.0 518.7,516.0 484.0,516.0 449.3,516.0 414.7,516.0 380.0,516.0 345.3,516.0 310.7,516.0 276.0,516.0 241.3,516.0 206.7,516.0 172.0,516.0 137.3,516.0 102.7,516.0 68.0,516.0" fill="#c7e9c0" fill-opacity="0.9" stroke="#fff" stroke-width="0.4"><title>parse — parseTranslationUnit</title></polygon>
<polygon points="68.0,236.8 102.7,233.1 137.3,234.3 172.0,216.7 206.7,208.8 241.3,219.4 276.0,191.8 310.7,210.3 345.3,214.8 380.0,209.9 414.7,219.1 449.3,228.4 484.0,222.7 518.7,221.9 553.3,222.0 588.0,221.5 622.7,215.0 657.3,211.4 692.0,214.9 726.7,216.6 761.3,480.3 796.0,480.2 830.7,476.8 865.3,476.8 900.0,476.4 934.7,476.8 969.3,477.6 1004.0,476.7 1038.7,476.1 1073.3,477.0 1108.0,477.1 1108.0,507.5 1073.3,507.6 1038.7,507.3 1004.0,507.5 969.3,507.8 934.7,507.7 900.0,507.7 865.3,507.7 830.7,507.8 796.0,508.2 761.3,508.2 726.7,508.0 692.0,508.1 657.3,507.9 622.7,507.9 588.0,508.2 553.3,508.3 518.7,508.4 484.0,508.3 449.3,508.4 414.7,507.8 380.0,507.7 345.3,508.1 310.7,507.3 276.0,507.6 241.3,507.8 206.7,507.6 172.0,508.0 137.3,508.4 102.7,508.4 68.0,508.5" fill="#41ab5d" fill-opacity="0.9" stroke="#fff" stroke-width="0.4"><title>parse — SemanticChecking</title></polygon>
<polygon points="68.0,177.5 102.7,175.7 137.3,173.8 172.0,153.8 206.7,141.1 241.3,156.3 276.0,123.7 310.7,142.8 345.3,151.0 380.0,145.8 414.7,155.2 449.3,171.4 484.0,165.8 518.7,165.9 553.3,164.9 588.0,164.0 622.7,155.4 657.3,152.2 692.0,154.8 726.7,157.1 761.3,445.4 796.0,445.1 830.7,438.9 865.3,438.7 900.0,438.2 934.7,439.9 969.3,440.0 1004.0,438.9 1038.7,436.9 1073.3,438.8 1108.0,438.4 1108.0,477.1 1073.3,477.0 1038.7,476.1 1004.0,476.7 969.3,477.6 934.7,476.8 900.0,476.4 865.3,476.8 830.7,476.8 796.0,480.2 761.3,480.3 726.7,216.6 692.0,214.9 657.3,211.4 622.7,215.0 588.0,221.5 553.3,222.0 518.7,221.9 484.0,222.7 449.3,228.4 414.7,219.1 380.0,209.9 345.3,214.8 310.7,210.3 276.0,191.8 241.3,219.4 206.7,208.8 172.0,216.7 137.3,234.3 102.7,233.1 68.0,236.8" fill="#006d2c" fill-opacity="0.9" stroke="#fff" stroke-width="0.4"><title>parse — generateIR</title></polygon>
<polygon points="68.0,176.6 102.7,175.1 137.3,171.9 172.0,153.8 206.7,137.8 241.3,154.3 276.0,123.7 310.7,142.5 345.3,151.0 380.0,145.7 414.7,155.2 449.3,170.6 484.0,165.6 518.7,165.8 553.3,164.9 588.0,164.0 622.7,154.1 657.3,150.4 692.0,154.8 726.7,157.1 761.3,445.1 796.0,445.1 830.7,438.9 865.3,438.4 900.0,438.0 934.7,439.0 969.3,439.7 1004.0,437.9 1038.7,436.8 1073.3,437.6 1108.0,438.3 1108.0,438.4 1073.3,438.8 1038.7,436.9 1004.0,438.9 969.3,440.0 934.7,439.9 900.0,438.2 865.3,438.7 830.7,438.9 796.0,445.1 761.3,445.4 726.7,157.1 692.0,154.8 657.3,152.2 622.7,155.4 588.0,164.0 553.3,164.9 518.7,165.9 484.0,165.8 449.3,171.4 414.7,155.2 380.0,145.8 345.3,151.0 310.7,142.8 276.0,123.7 241.3,156.3 206.7,141.1 172.0,153.8 137.3,173.8 102.7,175.7 68.0,177.5" fill="#74c476" fill-opacity="0.9" stroke="#fff" stroke-width="0.4"><title>parse — frontEndExecute (self)</title></polygon>
<polygon points="68.0,162.8 102.7,161.3 137.3,158.4 172.0,137.1 206.7,120.9 241.3,140.1 276.0,108.6 310.7,127.8 345.3,136.7 380.0,131.2 414.7,140.6 449.3,156.7 484.0,151.6 518.7,152.1 553.3,151.1 588.0,150.3 622.7,140.1 657.3,136.5 692.0,140.9 726.7,143.3 761.3,431.7 796.0,431.5 830.7,422.2 865.3,421.6 900.0,420.1 934.7,422.6 969.3,422.4 1004.0,421.3 1038.7,420.0 1073.3,421.3 1108.0,420.7 1108.0,438.3 1073.3,437.6 1038.7,436.8 1004.0,437.9 969.3,439.7 934.7,439.0 900.0,438.0 865.3,438.4 830.7,438.9 796.0,445.1 761.3,445.1 726.7,157.1 692.0,154.8 657.3,150.4 622.7,154.1 588.0,164.0 553.3,164.9 518.7,165.8 484.0,165.6 449.3,170.6 414.7,155.2 380.0,145.7 345.3,151.0 310.7,142.5 276.0,123.7 241.3,154.3 206.7,137.8 172.0,153.8 137.3,171.9 102.7,175.1 68.0,176.6" fill="#e6550d" fill-opacity="0.9" stroke="#fff" stroke-width="0.4"><title>parse — generateOutput (self)</title></polygon>
<polygon points="68.0,162.5 102.7,161.3 137.3,158.2 172.0,137.1 206.7,119.1 241.3,139.2 276.0,108.6 310.7,127.4 345.3,136.7 380.0,130.2 414.7,140.6 449.3,156.7 484.0,151.6 518.7,152.1 553.3,151.1 588.0,150.3 622.7,140.1 657.3,136.5 692.0,140.9 726.7,143.3 761.3,431.5 796.0,431.5 830.7,421.2 865.3,421.6 900.0,420.1 934.7,422.6 969.3,422.4 1004.0,420.7 1038.7,419.6 1073.3,421.0 1108.0,420.7 1108.0,420.7 1073.3,421.3 1038.7,420.0 1004.0,421.3 969.3,422.4 934.7,422.6 900.0,420.1 865.3,421.6 830.7,422.2 796.0,431.5 761.3,431.7 726.7,143.3 692.0,140.9 657.3,136.5 622.7,140.1 588.0,150.3 553.3,151.1 518.7,152.1 484.0,151.6 449.3,156.7 414.7,140.6 380.0,131.2 345.3,136.7 310.7,127.8 276.0,108.6 241.3,140.1 206.7,120.9 172.0,137.1 137.3,158.4 102.7,161.3 68.0,162.8" fill="#969696" fill-opacity="0.9" stroke="#fff" stroke-width="0.4"><title>parse — compileInner (self)</title></polygon>
<text x="12" y="578" fill="#666" font-weight="600">phase buckets</text>
<rect x="12" y="586" width="12" height="12" fill="#c7e9c0"/>
<text x="28" y="596" fill="#222">parseTranslationUnit</text>
<rect x="289" y="586" width="12" height="12" fill="#41ab5d"/>
<text x="305" y="596" fill="#222">SemanticChecking</text>
<rect x="566" y="586" width="12" height="12" fill="#006d2c"/>
<text x="582" y="596" fill="#222">generateIR</text>
<rect x="843" y="586" width="12" height="12" fill="#74c476"/>
<text x="859" y="596" fill="#222">frontEndExecute (self)</text>
<rect x="12" y="604" width="12" height="12" fill="#6baed6"/>
<text x="28" y="614" fill="#222">specializeModule</text>
<rect x="289" y="604" width="12" height="12" fill="#2171b5"/>
<text x="305" y="614" fill="#222">simplifyIR</text>
<rect x="566" y="604" width="12" height="12" fill="#08306b"/>
<text x="582" y="614" fill="#222">linkIR</text>
<rect x="843" y="604" width="12" height="12" fill="#9e9ac8"/>
<text x="859" y="614" fill="#222">unrollLoopsInModule</text>
<rect x="12" y="622" width="12" height="12" fill="#807dba"/>
<text x="28" y="632" fill="#222">legalizeResourceTypes</text>
<rect x="289" y="622" width="12" height="12" fill="#6a51a3"/>
<text x="305" y="632" fill="#222">legalizeExistentialTypeLayout</text>
<rect x="566" y="622" width="12" height="12" fill="#bcbddc"/>
<text x="582" y="632" fill="#222">performMandatoryEarlyInlining</text>
<rect x="843" y="622" width="12" height="12" fill="#dadaeb"/>
<text x="859" y="632" fill="#222">performForceInlining</text>
<rect x="12" y="640" width="12" height="12" fill="#4a1486"/>
<text x="28" y="650" fill="#222">linkAndOptimizeIR (self)</text>
<rect x="289" y="640" width="12" height="12" fill="#fd8d3c"/>
<text x="305" y="650" fill="#222">emitEntryPointsSourceFromIR</text>
<rect x="566" y="640" width="12" height="12" fill="#e6550d"/>
<text x="582" y="650" fill="#222">generateOutput (self)</text>
<rect x="843" y="640" width="12" height="12" fill="#969696"/>
<text x="859" y="650" fill="#222">compileInner (self)</text>
</svg>