<svg xmlns="http://www.w3.org/2000/svg" xmlns:xlink="http://www.w3.org/1999/xlink" width="1132" height="680" viewBox="0 0 1132 680" preserveAspectRatio="xMidYMid meet" font-family="sans-serif" font-size="13">
<rect width="1132" height="680" fill="white"/>
<text x="12" y="30" font-size="20" font-weight="bold">parse — Daily tip-of-tree (last 30 days) (median ms)</text>
<text x="68" y="60" font-size="15" font-weight="600" fill="#1a1a1a">parse<tspan fill="#888" font-weight="400" text-decoration="none">  0.77×</tspan></text>
<line x1="68.0" y1="516.0" x2="1108.0" y2="516.0" stroke="#eee"/>
<text x="64.0" y="519.0" text-anchor="end" fill="#999">0.0</text>
<line x1="68.0" y1="296.0" x2="1108.0" y2="296.0" stroke="#eee"/>
<text x="64.0" y="299.0" text-anchor="end" fill="#999">219</text>
<line x1="68.0" y1="76.0" x2="1108.0" y2="76.0" stroke="#eee"/>
<text x="64.0" y="79.0" text-anchor="end" fill="#999">438</text>
<line x1="68.0" y1="76.0" x2="68.0" y2="516.0" stroke="#333"/>
<line x1="68.0" y1="516.0" x2="1108.0" y2="516.0" stroke="#333"/>
<line x1="68.0" y1="516.0" x2="68.0" y2="519.0" stroke="#999"/>
<text x="68.0" y="531.0" text-anchor="end" fill="#e8731a" transform="rotate(-50 68.0 531.0)">06-25</text>
<line x1="117.5" y1="516.0" x2="117.5" y2="519.0" stroke="#999"/>
<text x="117.5" y="531.0" text-anchor="end" fill="#e8731a" transform="rotate(-50 117.5 531.0)">06-26</text>
<line x1="167.0" y1="516.0" x2="167.0" y2="519.0" stroke="#999"/>
<text x="167.0" y="531.0" text-anchor="end" fill="#e8731a" transform="rotate(-50 167.0 531.0)">06-28</text>
<line x1="216.6" y1="516.0" x2="216.6" y2="519.0" stroke="#999"/>
<text x="216.6" y="531.0" text-anchor="end" fill="#e8731a" transform="rotate(-50 216.6 531.0)">07-01</text>
<line x1="266.1" y1="516.0" x2="266.1" y2="519.0" stroke="#999"/>
<text x="266.1" y="531.0" text-anchor="end" fill="#e8731a" transform="rotate(-50 266.1 531.0)">07-02</text>
<line x1="315.6" y1="516.0" x2="315.6" y2="519.0" stroke="#999"/>
<text x="315.6" y="531.0" text-anchor="end" fill="#e8731a" transform="rotate(-50 315.6 531.0)">07-03</text>
<line x1="365.1" y1="516.0" x2="365.1" y2="519.0" stroke="#999"/>
<text x="365.1" y="531.0" text-anchor="end" fill="#e8731a" transform="rotate(-50 365.1 531.0)">07-06</text>
<line x1="414.7" y1="516.0" x2="414.7" y2="519.0" stroke="#999"/>
<text x="414.7" y="531.0" text-anchor="end" fill="#e8731a" transform="rotate(-50 414.7 531.0)">07-07</text>
<line x1="464.2" y1="516.0" x2="464.2" y2="519.0" stroke="#999"/>
<text x="464.2" y="531.0" text-anchor="end" fill="#e8731a" transform="rotate(-50 464.2 531.0)">07-08</text>
<line x1="513.7" y1="516.0" x2="513.7" y2="519.0" stroke="#999"/>
<text x="513.7" y="531.0" text-anchor="end" fill="#e8731a" transform="rotate(-50 513.7 531.0)">07-09</text>
<line x1="563.2" y1="516.0" x2="563.2" y2="519.0" stroke="#999"/>
<text x="563.2" y="531.0" text-anchor="end" fill="#e8731a" transform="rotate(-50 563.2 531.0)">07-10</text>
<line x1="612.8" y1="516.0" x2="612.8" y2="519.0" stroke="#999"/>
<text x="612.8" y="531.0" text-anchor="end" fill="#e8731a" transform="rotate(-50 612.8 531.0)">07-11</text>
<line x1="662.3" y1="516.0" x2="662.3" y2="519.0" stroke="#999"/>
<text x="662.3" y="531.0" text-anchor="end" fill="#e8731a" transform="rotate(-50 662.3 531.0)">07-14</text>
<line x1="711.8" y1="516.0" x2="711.8" y2="519.0" stroke="#999"/>
<text x="711.8" y="531.0" text-anchor="end" fill="#e8731a" transform="rotate(-50 711.8 531.0)">07-15</text>
<line x1="761.3" y1="516.0" x2="761.3" y2="519.0" stroke="#999"/>
<text x="761.3" y="531.0" text-anchor="end" fill="#e8731a" transform="rotate(-50 761.3 531.0)">07-15</text>
<line x1="810.9" y1="516.0" x2="810.9" y2="519.0" stroke="#999"/>
<text x="810.9" y="531.0" text-anchor="end" fill="#e8731a" transform="rotate(-50 810.9 531.0)">07-16</text>
<line x1="860.4" y1="516.0" x2="860.4" y2="519.0" stroke="#999"/>
<text x="860.4" y="531.0" text-anchor="end" fill="#e8731a" transform="rotate(-50 860.4 531.0)">07-17</text>
<line x1="909.9" y1="516.0" x2="909.9" y2="519.0" stroke="#999"/>
<text x="909.9" y="531.0" text-anchor="end" fill="#e8731a" transform="rotate(-50 909.9 531.0)">07-18</text>
<line x1="959.4" y1="516.0" x2="959.4" y2="519.0" stroke="#999"/>
<text x="959.4" y="531.0" text-anchor="end" fill="#e8731a" transform="rotate(-50 959.4 531.0)">07-19</text>
<line x1="1009.0" y1="516.0" x2="1009.0" y2="519.0" stroke="#999"/>
<text x="1009.0" y="531.0" text-anchor="end" fill="#e8731a" transform="rotate(-50 1009.0 531.0)">07-20</text>
<line x1="1058.5" y1="516.0" x2="1058.5" y2="519.0" stroke="#999"/>
<text x="1058.5" y="531.0" text-anchor="end" fill="#e8731a" transform="rotate(-50 1058.5 531.0)">07-21</text>
<line x1="1108.0" y1="516.0" x2="1108.0" y2="519.0" stroke="#999"/>
<text x="1108.0" y="531.0" text-anchor="end" fill="#e8731a" transform="rotate(-50 1108.0 531.0)">07-22</text>
<polygon points="68.0,481.2 117.5,481.1 167.0,481.0 216.6,480.8 266.1,480.9 315.6,480.7 365.1,480.3 414.7,484.9 464.2,484.9 513.7,484.9 563.2,484.6 612.8,484.5 662.3,485.3 711.8,486.5 761.3,486.3 810.9,486.0 860.4,486.0 909.9,490.5 959.4,491.1 1009.0,490.4 1058.5,491.2 1108.0,490.5 1108.0,516.0 1058.5,516.0 1009.0,516.0 959.4,516.0 909.9,516.0 860.4,516.0 810.9,516.0 761.3,516.0 711.8,516.0 662.3,516.0 612.8,516.0 563.2,516.0 513.7,516.0 464.2,516.0 414.7,516.0 365.1,516.0 315.6,516.0 266.1,516.0 216.6,516.0 167.0,516.0 117.5,516.0 68.0,516.0" fill="#c7e9c0" fill-opacity="0.9" stroke="#fff" stroke-width="0.4"><title>parse — parseTranslationUnit</title></polygon>
<polygon points="68.0,350.4 117.5,349.8 167.0,349.2 216.6,351.4 266.1,351.4 315.6,348.7 365.1,348.7 414.7,355.5 464.2,354.7 513.7,353.6 563.2,355.0 612.8,351.5 662.3,356.8 711.8,372.6 761.3,371.1 810.9,365.6 860.4,364.7 909.9,392.4 959.4,392.4 1009.0,391.5 1058.5,391.9 1108.0,392.3 1108.0,490.5 1058.5,491.2 1009.0,490.4 959.4,491.1 909.9,490.5 860.4,486.0 810.9,486.0 761.3,486.3 711.8,486.5 662.3,485.3 612.8,484.5 563.2,484.6 513.7,484.9 464.2,484.9 414.7,484.9 365.1,480.3 315.6,480.7 266.1,480.9 216.6,480.8 167.0,481.0 117.5,481.1 68.0,481.2" fill="#41ab5d" fill-opacity="0.9" stroke="#fff" stroke-width="0.4"><title>parse — SemanticChecking</title></polygon>
<polygon points="68.0,189.5 117.5,189.4 167.0,188.9 216.6,190.5 266.1,187.4 315.6,187.6 365.1,186.4 414.7,196.5 464.2,195.2 513.7,195.4 563.2,195.6 612.8,190.0 662.3,196.4 711.8,217.6 761.3,214.3 810.9,218.3 860.4,220.1 909.9,266.7 959.4,267.7 1009.0,265.8 1058.5,266.3 1108.0,268.6 1108.0,392.3 1058.5,391.9 1009.0,391.5 959.4,392.4 909.9,392.4 860.4,364.7 810.9,365.6 761.3,371.1 711.8,372.6 662.3,356.8 612.8,351.5 563.2,355.0 513.7,353.6 464.2,354.7 414.7,355.5 365.1,348.7 315.6,348.7 266.1,351.4 216.6,351.4 167.0,349.2 117.5,349.8 68.0,350.4" fill="#006d2c" fill-opacity="0.9" stroke="#fff" stroke-width="0.4"><title>parse — generateIR</title></polygon>
<polygon points="68.0,189.5 117.5,185.4 167.0,187.5 216.6,190.5 266.1,187.4 315.6,187.6 365.1,186.4 414.7,194.5 464.2,195.2 513.7,195.4 563.2,195.0 612.8,189.6 662.3,196.4 711.8,217.3 761.3,214.3 810.9,214.7 860.4,219.2 909.9,265.5 959.4,267.4 1009.0,265.8 1058.5,266.1 1108.0,267.6 1108.0,268.6 1058.5,266.3 1009.0,265.8 959.4,267.7 909.9,266.7 860.4,220.1 810.9,218.3 761.3,214.3 711.8,217.6 662.3,196.4 612.8,190.0 563.2,195.6 513.7,195.4 464.2,195.2 414.7,196.5 365.1,186.4 315.6,187.6 266.1,187.4 216.6,190.5 167.0,188.9 117.5,189.4 68.0,189.5" fill="#74c476" fill-opacity="0.9" stroke="#fff" stroke-width="0.4"><title>parse — frontEndExecute (self)</title></polygon>
<polygon points="68.0,121.4 117.5,117.3 167.0,112.6 216.6,121.1 266.1,113.4 315.6,116.4 365.1,117.1 414.7,123.2 464.2,119.7 513.7,125.0 563.2,125.3 612.8,117.4 662.3,124.2 711.8,144.9 761.3,142.4 810.9,143.3 860.4,146.4 909.9,205.7 959.4,208.5 1009.0,209.2 1058.5,209.8 1108.0,211.1 1108.0,267.6 1058.5,266.1 1009.0,265.8 959.4,267.4 909.9,265.5 860.4,219.2 810.9,214.7 761.3,214.3 711.8,217.3 662.3,196.4 612.8,189.6 563.2,195.0 513.7,195.4 464.2,195.2 414.7,194.5 365.1,186.4 315.6,187.6 266.1,187.4 216.6,190.5 167.0,187.5 117.5,185.4 68.0,189.5" fill="#e6550d" fill-opacity="0.9" stroke="#fff" stroke-width="0.4"><title>parse — generateOutput (self)</title></polygon>
<polygon points="68.0,120.8 117.5,117.3 167.0,111.5 216.6,120.6 266.1,112.7 315.6,108.6 365.1,116.2 414.7,122.4 464.2,119.7 513.7,124.8 563.2,124.2 612.8,117.4 662.3,124.2 711.8,144.3 761.3,142.4 810.9,143.3 860.4,143.9 909.9,202.8 959.4,207.8 1009.0,209.2 1058.5,209.0 1108.0,211.0 1108.0,211.1 1058.5,209.8 1009.0,209.2 959.4,208.5 909.9,205.7 860.4,146.4 810.9,143.3 761.3,142.4 711.8,144.9 662.3,124.2 612.8,117.4 563.2,125.3 513.7,125.0 464.2,119.7 414.7,123.2 365.1,117.1 315.6,116.4 266.1,113.4 216.6,121.1 167.0,112.6 117.5,117.3 68.0,121.4" fill="#969696" fill-opacity="0.9" stroke="#fff" stroke-width="0.4"><title>parse — compileInner (self)</title></polygon>
<text x="12" y="578" fill="#666" font-weight="600">phase buckets</text>
<rect x="12" y="586" width="12" height="12" fill="#c7e9c0"/>
<text x="28" y="596" fill="#222">parseTranslationUnit</text>
<rect x="289" y="586" width="12" height="12" fill="#41ab5d"/>
<text x="305" y="596" fill="#222">SemanticChecking</text>
<rect x="566" y="586" width="12" height="12" fill="#006d2c"/>
<text x="582" y="596" fill="#222">generateIR</text>
<rect x="843" y="586" width="12" height="12" fill="#74c476"/>
<text x="859" y="596" fill="#222">frontEndExecute (self)</text>
<rect x="12" y="604" width="12" height="12" fill="#6baed6"/>
<text x="28" y="614" fill="#222">specializeModule</text>
<rect x="289" y="604" width="12" height="12" fill="#2171b5"/>
<text x="305" y="614" fill="#222">simplifyIR</text>
<rect x="566" y="604" width="12" height="12" fill="#08306b"/>
<text x="582" y="614" fill="#222">linkIR</text>
<rect x="843" y="604" width="12" height="12" fill="#9e9ac8"/>
<text x="859" y="614" fill="#222">unrollLoopsInModule</text>
<rect x="12" y="622" width="12" height="12" fill="#807dba"/>
<text x="28" y="632" fill="#222">legalizeResourceTypes</text>
<rect x="289" y="622" width="12" height="12" fill="#6a51a3"/>
<text x="305" y="632" fill="#222">legalizeExistentialTypeLayout</text>
<rect x="566" y="622" width="12" height="12" fill="#bcbddc"/>
<text x="582" y="632" fill="#222">performMandatoryEarlyInlining</text>
<rect x="843" y="622" width="12" height="12" fill="#dadaeb"/>
<text x="859" y="632" fill="#222">performForceInlining</text>
<rect x="12" y="640" width="12" height="12" fill="#4a1486"/>
<text x="28" y="650" fill="#222">linkAndOptimizeIR (self)</text>
<rect x="289" y="640" width="12" height="12" fill="#fd8d3c"/>
<text x="305" y="650" fill="#222">emitEntryPointsSourceFromIR</text>
<rect x="566" y="640" width="12" height="12" fill="#e6550d"/>
<text x="582" y="650" fill="#222">generateOutput (self)</text>
<rect x="843" y="640" width="12" height="12" fill="#969696"/>
<text x="859" y="650" fill="#222">compileInner (self)</text>
</svg>