<svg xmlns="http://www.w3.org/2000/svg" xmlns:xlink="http://www.w3.org/1999/xlink" width="1132" height="680" viewBox="0 0 1132 680" preserveAspectRatio="xMidYMid meet" font-family="sans-serif" font-size="13">
<rect width="1132" height="680" fill="white"/>
<text x="12" y="30" font-size="20" font-weight="bold">parse — full phase breakdown across releases (median ms)</text>
<text x="68" y="60" font-size="15" font-weight="600" fill="#1a1a1a">parse<tspan fill="#888" font-weight="400" text-decoration="none">  0.26×</tspan></text>
<line x1="68.0" y1="516.0" x2="1108.0" y2="516.0" stroke="#eee"/>
<text x="64.0" y="519.0" text-anchor="end" fill="#999">0.0</text>
<line x1="68.0" y1="296.0" x2="1108.0" y2="296.0" stroke="#eee"/>
<text x="64.0" y="299.0" text-anchor="end" fill="#999">870</text>
<line x1="68.0" y1="76.0" x2="1108.0" y2="76.0" stroke="#eee"/>
<text x="64.0" y="79.0" text-anchor="end" fill="#999">1739</text>
<line x1="68.0" y1="76.0" x2="68.0" y2="516.0" stroke="#333"/>
<line x1="68.0" y1="516.0" x2="1108.0" y2="516.0" stroke="#333"/>
<line x1="920.8" y1="76.0" x2="920.8" y2="516.0" stroke="#e8731a" stroke-width="1.2" stroke-dasharray="4 3"/>
<text x="923.8" y="87.0" fill="#e8731a" font-size="11">daily →</text>
<line x1="68.0" y1="516.0" x2="68.0" y2="519.0" stroke="#999"/>
<text x="68.0" y="531.0" text-anchor="end" fill="#666" transform="rotate(-50 68.0 531.0)">25.14</text>
<line x1="109.6" y1="516.0" x2="109.6" y2="519.0" stroke="#999"/>
<text x="109.6" y="531.0" text-anchor="end" fill="#666" transform="rotate(-50 109.6 531.0)">25.15</text>
<line x1="151.2" y1="516.0" x2="151.2" y2="519.0" stroke="#999"/>
<text x="151.2" y="531.0" text-anchor="end" fill="#666" transform="rotate(-50 151.2 531.0)">25.16</text>
<line x1="192.8" y1="516.0" x2="192.8" y2="519.0" stroke="#999"/>
<text x="192.8" y="531.0" text-anchor="end" fill="#666" transform="rotate(-50 192.8 531.0)">25.17</text>
<line x1="234.4" y1="516.0" x2="234.4" y2="519.0" stroke="#999"/>
<text x="234.4" y="531.0" text-anchor="end" fill="#666" transform="rotate(-50 234.4 531.0)">25.18</text>
<line x1="276.0" y1="516.0" x2="276.0" y2="519.0" stroke="#999"/>
<text x="276.0" y="531.0" text-anchor="end" fill="#666" transform="rotate(-50 276.0 531.0)">25.19</text>
<line x1="317.6" y1="516.0" x2="317.6" y2="519.0" stroke="#999"/>
<text x="317.6" y="531.0" text-anchor="end" fill="#666" transform="rotate(-50 317.6 531.0)">25.20</text>
<line x1="359.2" y1="516.0" x2="359.2" y2="519.0" stroke="#999"/>
<text x="359.2" y="531.0" text-anchor="end" fill="#666" transform="rotate(-50 359.2 531.0)">25.21</text>
<line x1="400.8" y1="516.0" x2="400.8" y2="519.0" stroke="#999"/>
<text x="400.8" y="531.0" text-anchor="end" fill="#666" transform="rotate(-50 400.8 531.0)">25.22</text>
<line x1="442.4" y1="516.0" x2="442.4" y2="519.0" stroke="#999"/>
<text x="442.4" y="531.0" text-anchor="end" fill="#666" transform="rotate(-50 442.4 531.0)">25.23</text>
<line x1="484.0" y1="516.0" x2="484.0" y2="519.0" stroke="#999"/>
<text x="484.0" y="531.0" text-anchor="end" fill="#666" transform="rotate(-50 484.0 531.0)">25.24</text>
<line x1="525.6" y1="516.0" x2="525.6" y2="519.0" stroke="#999"/>
<text x="525.6" y="531.0" text-anchor="end" fill="#666" transform="rotate(-50 525.6 531.0)">26.1</text>
<line x1="567.2" y1="516.0" x2="567.2" y2="519.0" stroke="#999"/>
<text x="567.2" y="531.0" text-anchor="end" fill="#666" transform="rotate(-50 567.2 531.0)">26.2</text>
<line x1="608.8" y1="516.0" x2="608.8" y2="519.0" stroke="#999"/>
<text x="608.8" y="531.0" text-anchor="end" fill="#666" transform="rotate(-50 608.8 531.0)">26.3</text>
<line x1="650.4" y1="516.0" x2="650.4" y2="519.0" stroke="#999"/>
<text x="650.4" y="531.0" text-anchor="end" fill="#666" transform="rotate(-50 650.4 531.0)">26.4</text>
<line x1="692.0" y1="516.0" x2="692.0" y2="519.0" stroke="#999"/>
<text x="692.0" y="531.0" text-anchor="end" fill="#666" transform="rotate(-50 692.0 531.0)">26.5</text>
<line x1="733.6" y1="516.0" x2="733.6" y2="519.0" stroke="#999"/>
<text x="733.6" y="531.0" text-anchor="end" fill="#666" transform="rotate(-50 733.6 531.0)">26.7</text>
<line x1="775.2" y1="516.0" x2="775.2" y2="519.0" stroke="#999"/>
<text x="775.2" y="531.0" text-anchor="end" fill="#666" transform="rotate(-50 775.2 531.0)">26.8</text>
<line x1="816.8" y1="516.0" x2="816.8" y2="519.0" stroke="#999"/>
<text x="816.8" y="531.0" text-anchor="end" fill="#666" transform="rotate(-50 816.8 531.0)">26.9</text>
<line x1="858.4" y1="516.0" x2="858.4" y2="519.0" stroke="#999"/>
<text x="858.4" y="531.0" text-anchor="end" fill="#666" transform="rotate(-50 858.4 531.0)">26.10</text>
<line x1="900.0" y1="516.0" x2="900.0" y2="519.0" stroke="#999"/>
<text x="900.0" y="531.0" text-anchor="end" fill="#666" transform="rotate(-50 900.0 531.0)">26.11</text>
<line x1="941.6" y1="516.0" x2="941.6" y2="519.0" stroke="#999"/>
<text x="941.6" y="531.0" text-anchor="end" fill="#e8731a" transform="rotate(-50 941.6 531.0)">06-25</text>
<line x1="983.2" y1="516.0" x2="983.2" y2="519.0" stroke="#999"/>
<text x="983.2" y="531.0" text-anchor="end" fill="#e8731a" transform="rotate(-50 983.2 531.0)">06-26</text>
<line x1="1024.8" y1="516.0" x2="1024.8" y2="519.0" stroke="#999"/>
<text x="1024.8" y="531.0" text-anchor="end" fill="#e8731a" transform="rotate(-50 1024.8 531.0)">06-28</text>
<line x1="1066.4" y1="516.0" x2="1066.4" y2="519.0" stroke="#999"/>
<text x="1066.4" y="531.0" text-anchor="end" fill="#e8731a" transform="rotate(-50 1066.4 531.0)">07-01</text>
<line x1="1108.0" y1="516.0" x2="1108.0" y2="519.0" stroke="#999"/>
<text x="1108.0" y="531.0" text-anchor="end" fill="#e8731a" transform="rotate(-50 1108.0 531.0)">07-02</text>
<polygon points="68.0,508.3 109.6,508.4 151.2,508.3 192.8,508.3 234.4,508.3 276.0,508.2 317.6,508.3 359.2,508.2 400.8,508.2 442.4,508.3 484.0,508.1 525.6,508.2 567.2,508.2 608.8,508.2 650.4,507.9 692.0,507.9 733.6,508.0 775.2,507.9 816.8,508.0 858.4,508.0 900.0,508.0 941.6,507.6 983.2,507.6 1024.8,507.6 1066.4,507.5 1108.0,507.5 1108.0,516.0 1066.4,516.0 1024.8,516.0 983.2,516.0 941.6,516.0 900.0,516.0 858.4,516.0 816.8,516.0 775.2,516.0 733.6,516.0 692.0,516.0 650.4,516.0 608.8,516.0 567.2,516.0 525.6,516.0 484.0,516.0 442.4,516.0 400.8,516.0 359.2,516.0 317.6,516.0 276.0,516.0 234.4,516.0 192.8,516.0 151.2,516.0 109.6,516.0 68.0,516.0" fill="#c7e9c0" fill-opacity="0.9" stroke="#fff" stroke-width="0.4"><title>parse — parseTranslationUnit</title></polygon>
<polygon points="68.0,221.8 109.6,216.7 151.2,215.1 192.8,211.2 234.4,211.9 276.0,215.8 317.6,214.4 359.2,218.3 400.8,213.5 442.4,210.1 484.0,210.0 525.6,206.2 567.2,203.3 608.8,203.5 650.4,188.5 692.0,187.4 733.6,194.1 775.2,195.3 816.8,196.7 858.4,198.3 900.0,478.3 941.6,476.0 983.2,476.1 1024.8,476.0 1066.4,475.6 1108.0,475.3 1108.0,507.5 1066.4,507.5 1024.8,507.6 983.2,507.6 941.6,507.6 900.0,508.0 858.4,508.0 816.8,508.0 775.2,507.9 733.6,508.0 692.0,507.9 650.4,507.9 608.8,508.2 567.2,508.2 525.6,508.2 484.0,508.1 442.4,508.3 400.8,508.2 359.2,508.2 317.6,508.3 276.0,508.2 234.4,508.3 192.8,508.3 151.2,508.3 109.6,508.4 68.0,508.3" fill="#41ab5d" fill-opacity="0.9" stroke="#fff" stroke-width="0.4"><title>parse — SemanticChecking</title></polygon>
<polygon points="68.0,159.4 109.6,154.2 151.2,153.8 192.8,150.2 234.4,149.2 276.0,154.1 317.6,152.0 359.2,156.4 400.8,151.0 442.4,151.8 484.0,149.5 525.6,146.3 567.2,142.6 608.8,142.6 650.4,127.1 692.0,123.5 733.6,132.7 775.2,131.7 816.8,134.8 858.4,136.8 900.0,442.7 941.6,437.9 983.2,438.1 1024.8,437.7 1066.4,437.5 1108.0,436.8 1108.0,475.3 1066.4,475.6 1024.8,476.0 983.2,476.1 941.6,476.0 900.0,478.3 858.4,198.3 816.8,196.7 775.2,195.3 733.6,194.1 692.0,187.4 650.4,188.5 608.8,203.5 567.2,203.3 525.6,206.2 484.0,210.0 442.4,210.1 400.8,213.5 359.2,218.3 317.6,214.4 276.0,215.8 234.4,211.9 192.8,211.2 151.2,215.1 109.6,216.7 68.0,221.8" fill="#006d2c" fill-opacity="0.9" stroke="#fff" stroke-width="0.4"><title>parse — generateIR</title></polygon>
<polygon points="68.0,159.2 109.6,154.0 151.2,153.1 192.8,150.2 234.4,148.8 276.0,153.8 317.6,151.9 359.2,155.9 400.8,150.9 442.4,151.3 484.0,149.3 525.6,146.2 567.2,142.3 608.8,141.8 650.4,127.1 692.0,123.5 733.6,132.7 775.2,131.7 816.8,134.7 858.4,136.8 900.0,441.5 941.6,437.9 983.2,438.0 1024.8,437.6 1066.4,437.4 1108.0,436.8 1108.0,436.8 1066.4,437.5 1024.8,437.7 983.2,438.1 941.6,437.9 900.0,442.7 858.4,136.8 816.8,134.8 775.2,131.7 733.6,132.7 692.0,123.5 650.4,127.1 608.8,142.6 567.2,142.6 525.6,146.3 484.0,149.5 442.4,151.8 400.8,151.0 359.2,156.4 317.6,152.0 276.0,154.1 234.4,149.2 192.8,150.2 151.2,153.8 109.6,154.2 68.0,159.4" fill="#74c476" fill-opacity="0.9" stroke="#fff" stroke-width="0.4"><title>parse — frontEndExecute (self)</title></polygon>
<polygon points="68.0,144.3 109.6,139.6 151.2,138.8 192.8,134.0 234.4,132.8 276.0,139.2 317.6,137.4 359.2,141.2 400.8,136.6 442.4,136.8 484.0,135.0 525.6,131.7 567.2,127.8 608.8,127.3 650.4,112.1 692.0,108.6 733.6,118.3 775.2,117.1 816.8,120.1 858.4,122.2 900.0,427.3 941.6,420.9 983.2,421.1 1024.8,420.6 1066.4,420.2 1108.0,419.5 1108.0,436.8 1066.4,437.4 1024.8,437.6 983.2,438.0 941.6,437.9 900.0,441.5 858.4,136.8 816.8,134.7 775.2,131.7 733.6,132.7 692.0,123.5 650.4,127.1 608.8,141.8 567.2,142.3 525.6,146.2 484.0,149.3 442.4,151.3 400.8,150.9 359.2,155.9 317.6,151.9 276.0,153.8 234.4,148.8 192.8,150.2 151.2,153.1 109.6,154.0 68.0,159.2" fill="#e6550d" fill-opacity="0.9" stroke="#fff" stroke-width="0.4"><title>parse — generateOutput (self)</title></polygon>
<polygon points="68.0,144.3 109.6,139.5 151.2,138.8 192.8,133.6 234.4,132.8 276.0,139.2 317.6,136.9 359.2,141.2 400.8,136.5 442.4,136.8 484.0,135.0 525.6,131.3 567.2,127.8 608.8,127.3 650.4,112.1 692.0,108.6 733.6,118.3 775.2,117.1 816.8,120.1 858.4,122.2 900.0,427.3 941.6,420.9 983.2,420.9 1024.8,420.2 1066.4,420.2 1108.0,419.4 1108.0,419.5 1066.4,420.2 1024.8,420.6 983.2,421.1 941.6,420.9 900.0,427.3 858.4,122.2 816.8,120.1 775.2,117.1 733.6,118.3 692.0,108.6 650.4,112.1 608.8,127.3 567.2,127.8 525.6,131.7 484.0,135.0 442.4,136.8 400.8,136.6 359.2,141.2 317.6,137.4 276.0,139.2 234.4,132.8 192.8,134.0 151.2,138.8 109.6,139.6 68.0,144.3" fill="#969696" fill-opacity="0.9" stroke="#fff" stroke-width="0.4"><title>parse — compileInner (self)</title></polygon>
<text x="12" y="578" fill="#666" font-weight="600">phase buckets</text>
<rect x="12" y="586" width="12" height="12" fill="#c7e9c0"/>
<text x="28" y="596" fill="#222">parseTranslationUnit</text>
<rect x="289" y="586" width="12" height="12" fill="#41ab5d"/>
<text x="305" y="596" fill="#222">SemanticChecking</text>
<rect x="566" y="586" width="12" height="12" fill="#006d2c"/>
<text x="582" y="596" fill="#222">generateIR</text>
<rect x="843" y="586" width="12" height="12" fill="#74c476"/>
<text x="859" y="596" fill="#222">frontEndExecute (self)</text>
<rect x="12" y="604" width="12" height="12" fill="#6baed6"/>
<text x="28" y="614" fill="#222">specializeModule</text>
<rect x="289" y="604" width="12" height="12" fill="#2171b5"/>
<text x="305" y="614" fill="#222">simplifyIR</text>
<rect x="566" y="604" width="12" height="12" fill="#08306b"/>
<text x="582" y="614" fill="#222">linkIR</text>
<rect x="843" y="604" width="12" height="12" fill="#9e9ac8"/>
<text x="859" y="614" fill="#222">unrollLoopsInModule</text>
<rect x="12" y="622" width="12" height="12" fill="#807dba"/>
<text x="28" y="632" fill="#222">legalizeResourceTypes</text>
<rect x="289" y="622" width="12" height="12" fill="#6a51a3"/>
<text x="305" y="632" fill="#222">legalizeExistentialTypeLayout</text>
<rect x="566" y="622" width="12" height="12" fill="#bcbddc"/>
<text x="582" y="632" fill="#222">performMandatoryEarlyInlining</text>
<rect x="843" y="622" width="12" height="12" fill="#dadaeb"/>
<text x="859" y="632" fill="#222">performForceInlining</text>
<rect x="12" y="640" width="12" height="12" fill="#4a1486"/>
<text x="28" y="650" fill="#222">linkAndOptimizeIR (self)</text>
<rect x="289" y="640" width="12" height="12" fill="#fd8d3c"/>
<text x="305" y="650" fill="#222">emitEntryPointsSourceFromIR</text>
<rect x="566" y="640" width="12" height="12" fill="#e6550d"/>
<text x="582" y="650" fill="#222">generateOutput (self)</text>
<rect x="843" y="640" width="12" height="12" fill="#969696"/>
<text x="859" y="650" fill="#222">compileInner (self)</text>
</svg>