<svg xmlns="http://www.w3.org/2000/svg" xmlns:xlink="http://www.w3.org/1999/xlink" width="1132" height="680" viewBox="0 0 1132 680" preserveAspectRatio="xMidYMid meet" font-family="sans-serif" font-size="13">
<rect width="1132" height="680" fill="white"/>
<text x="12" y="30" font-size="20" font-weight="bold">parse — full phase breakdown across releases (median ms)</text>
<text x="68" y="60" font-size="15" font-weight="600" fill="#1a1a1a">parse<tspan fill="#888" font-weight="400" text-decoration="none">  0.26×</tspan></text>
<line x1="68.0" y1="516.0" x2="1108.0" y2="516.0" stroke="#eee"/>
<text x="64.0" y="519.0" text-anchor="end" fill="#999">0.0</text>
<line x1="68.0" y1="296.0" x2="1108.0" y2="296.0" stroke="#eee"/>
<text x="64.0" y="299.0" text-anchor="end" fill="#999">870</text>
<line x1="68.0" y1="76.0" x2="1108.0" y2="76.0" stroke="#eee"/>
<text x="64.0" y="79.0" text-anchor="end" fill="#999">1739</text>
<line x1="68.0" y1="76.0" x2="68.0" y2="516.0" stroke="#333"/>
<line x1="68.0" y1="516.0" x2="1108.0" y2="516.0" stroke="#333"/>
<line x1="1037.1" y1="76.0" x2="1037.1" y2="516.0" stroke="#e8731a" stroke-width="1.2" stroke-dasharray="4 3"/>
<text x="1040.1" y="87.0" fill="#e8731a" font-size="11">daily →</text>
<line x1="68.0" y1="516.0" x2="68.0" y2="519.0" stroke="#999"/>
<text x="68.0" y="531.0" text-anchor="end" fill="#666" transform="rotate(-50 68.0 531.0)">25.14</text>
<line x1="115.3" y1="516.0" x2="115.3" y2="519.0" stroke="#999"/>
<text x="115.3" y="531.0" text-anchor="end" fill="#666" transform="rotate(-50 115.3 531.0)">25.15</text>
<line x1="162.5" y1="516.0" x2="162.5" y2="519.0" stroke="#999"/>
<text x="162.5" y="531.0" text-anchor="end" fill="#666" transform="rotate(-50 162.5 531.0)">25.16</text>
<line x1="209.8" y1="516.0" x2="209.8" y2="519.0" stroke="#999"/>
<text x="209.8" y="531.0" text-anchor="end" fill="#666" transform="rotate(-50 209.8 531.0)">25.17</text>
<line x1="257.1" y1="516.0" x2="257.1" y2="519.0" stroke="#999"/>
<text x="257.1" y="531.0" text-anchor="end" fill="#666" transform="rotate(-50 257.1 531.0)">25.18</text>
<line x1="304.4" y1="516.0" x2="304.4" y2="519.0" stroke="#999"/>
<text x="304.4" y="531.0" text-anchor="end" fill="#666" transform="rotate(-50 304.4 531.0)">25.19</text>
<line x1="351.6" y1="516.0" x2="351.6" y2="519.0" stroke="#999"/>
<text x="351.6" y="531.0" text-anchor="end" fill="#666" transform="rotate(-50 351.6 531.0)">25.20</text>
<line x1="398.9" y1="516.0" x2="398.9" y2="519.0" stroke="#999"/>
<text x="398.9" y="531.0" text-anchor="end" fill="#666" transform="rotate(-50 398.9 531.0)">25.21</text>
<line x1="446.2" y1="516.0" x2="446.2" y2="519.0" stroke="#999"/>
<text x="446.2" y="531.0" text-anchor="end" fill="#666" transform="rotate(-50 446.2 531.0)">25.22</text>
<line x1="493.5" y1="516.0" x2="493.5" y2="519.0" stroke="#999"/>
<text x="493.5" y="531.0" text-anchor="end" fill="#666" transform="rotate(-50 493.5 531.0)">25.23</text>
<line x1="540.7" y1="516.0" x2="540.7" y2="519.0" stroke="#999"/>
<text x="540.7" y="531.0" text-anchor="end" fill="#666" transform="rotate(-50 540.7 531.0)">25.24</text>
<line x1="588.0" y1="516.0" x2="588.0" y2="519.0" stroke="#999"/>
<text x="588.0" y="531.0" text-anchor="end" fill="#666" transform="rotate(-50 588.0 531.0)">26.1</text>
<line x1="635.3" y1="516.0" x2="635.3" y2="519.0" stroke="#999"/>
<text x="635.3" y="531.0" text-anchor="end" fill="#666" transform="rotate(-50 635.3 531.0)">26.2</text>
<line x1="682.5" y1="516.0" x2="682.5" y2="519.0" stroke="#999"/>
<text x="682.5" y="531.0" text-anchor="end" fill="#666" transform="rotate(-50 682.5 531.0)">26.3</text>
<line x1="729.8" y1="516.0" x2="729.8" y2="519.0" stroke="#999"/>
<text x="729.8" y="531.0" text-anchor="end" fill="#666" transform="rotate(-50 729.8 531.0)">26.4</text>
<line x1="777.1" y1="516.0" x2="777.1" y2="519.0" stroke="#999"/>
<text x="777.1" y="531.0" text-anchor="end" fill="#666" transform="rotate(-50 777.1 531.0)">26.5</text>
<line x1="824.4" y1="516.0" x2="824.4" y2="519.0" stroke="#999"/>
<text x="824.4" y="531.0" text-anchor="end" fill="#666" transform="rotate(-50 824.4 531.0)">26.7</text>
<line x1="871.6" y1="516.0" x2="871.6" y2="519.0" stroke="#999"/>
<text x="871.6" y="531.0" text-anchor="end" fill="#666" transform="rotate(-50 871.6 531.0)">26.8</text>
<line x1="918.9" y1="516.0" x2="918.9" y2="519.0" stroke="#999"/>
<text x="918.9" y="531.0" text-anchor="end" fill="#666" transform="rotate(-50 918.9 531.0)">26.9</text>
<line x1="966.2" y1="516.0" x2="966.2" y2="519.0" stroke="#999"/>
<text x="966.2" y="531.0" text-anchor="end" fill="#666" transform="rotate(-50 966.2 531.0)">26.10</text>
<line x1="1013.5" y1="516.0" x2="1013.5" y2="519.0" stroke="#999"/>
<text x="1013.5" y="531.0" text-anchor="end" fill="#666" transform="rotate(-50 1013.5 531.0)">26.11</text>
<line x1="1060.7" y1="516.0" x2="1060.7" y2="519.0" stroke="#999"/>
<text x="1060.7" y="531.0" text-anchor="end" fill="#e8731a" transform="rotate(-50 1060.7 531.0)">06-25</text>
<line x1="1108.0" y1="516.0" x2="1108.0" y2="519.0" stroke="#999"/>
<text x="1108.0" y="531.0" text-anchor="end" fill="#e8731a" transform="rotate(-50 1108.0 531.0)">06-26</text>
<polygon points="68.0,508.3 115.3,508.4 162.5,508.3 209.8,508.3 257.1,508.3 304.4,508.2 351.6,508.3 398.9,508.2 446.2,508.2 493.5,508.3 540.7,508.1 588.0,508.2 635.3,508.2 682.5,508.2 729.8,507.9 777.1,507.9 824.4,508.0 871.6,507.9 918.9,508.0 966.2,508.0 1013.5,508.0 1060.7,507.6 1108.0,507.6 1108.0,516.0 1060.7,516.0 1013.5,516.0 966.2,516.0 918.9,516.0 871.6,516.0 824.4,516.0 777.1,516.0 729.8,516.0 682.5,516.0 635.3,516.0 588.0,516.0 540.7,516.0 493.5,516.0 446.2,516.0 398.9,516.0 351.6,516.0 304.4,516.0 257.1,516.0 209.8,516.0 162.5,516.0 115.3,516.0 68.0,516.0" fill="#c7e9c0" fill-opacity="0.9" stroke="#fff" stroke-width="0.4"><title>parse — parseTranslationUnit</title></polygon>
<polygon points="68.0,221.8 115.3,216.7 162.5,215.1 209.8,211.2 257.1,211.9 304.4,215.8 351.6,214.4 398.9,218.3 446.2,213.5 493.5,210.1 540.7,210.0 588.0,206.2 635.3,203.3 682.5,203.5 729.8,188.5 777.1,187.4 824.4,194.1 871.6,195.3 918.9,196.7 966.2,198.3 1013.5,478.3 1060.7,476.0 1108.0,475.8 1108.0,507.6 1060.7,507.6 1013.5,508.0 966.2,508.0 918.9,508.0 871.6,507.9 824.4,508.0 777.1,507.9 729.8,507.9 682.5,508.2 635.3,508.2 588.0,508.2 540.7,508.1 493.5,508.3 446.2,508.2 398.9,508.2 351.6,508.3 304.4,508.2 257.1,508.3 209.8,508.3 162.5,508.3 115.3,508.4 68.0,508.3" fill="#41ab5d" fill-opacity="0.9" stroke="#fff" stroke-width="0.4"><title>parse — SemanticChecking</title></polygon>
<polygon points="68.0,159.4 115.3,154.2 162.5,153.8 209.8,150.2 257.1,149.2 304.4,154.1 351.6,152.0 398.9,156.4 446.2,151.0 493.5,151.8 540.7,149.5 588.0,146.3 635.3,142.6 682.5,142.6 729.8,127.1 777.1,123.5 824.4,132.7 871.6,131.7 918.9,134.8 966.2,136.8 1013.5,442.7 1060.7,437.9 1108.0,437.8 1108.0,475.8 1060.7,476.0 1013.5,478.3 966.2,198.3 918.9,196.7 871.6,195.3 824.4,194.1 777.1,187.4 729.8,188.5 682.5,203.5 635.3,203.3 588.0,206.2 540.7,210.0 493.5,210.1 446.2,213.5 398.9,218.3 351.6,214.4 304.4,215.8 257.1,211.9 209.8,211.2 162.5,215.1 115.3,216.7 68.0,221.8" fill="#006d2c" fill-opacity="0.9" stroke="#fff" stroke-width="0.4"><title>parse — generateIR</title></polygon>
<polygon points="68.0,159.2 115.3,154.0 162.5,153.1 209.8,150.2 257.1,148.8 304.4,153.8 351.6,151.9 398.9,155.9 446.2,150.9 493.5,151.3 540.7,149.3 588.0,146.2 635.3,142.3 682.5,141.8 729.8,127.1 777.1,123.5 824.4,132.7 871.6,131.7 918.9,134.7 966.2,136.8 1013.5,441.5 1060.7,437.9 1108.0,437.5 1108.0,437.8 1060.7,437.9 1013.5,442.7 966.2,136.8 918.9,134.8 871.6,131.7 824.4,132.7 777.1,123.5 729.8,127.1 682.5,142.6 635.3,142.6 588.0,146.3 540.7,149.5 493.5,151.8 446.2,151.0 398.9,156.4 351.6,152.0 304.4,154.1 257.1,149.2 209.8,150.2 162.5,153.8 115.3,154.2 68.0,159.4" fill="#74c476" fill-opacity="0.9" stroke="#fff" stroke-width="0.4"><title>parse — frontEndExecute (self)</title></polygon>
<polygon points="68.0,144.3 115.3,139.6 162.5,138.8 209.8,134.0 257.1,132.8 304.4,139.2 351.6,137.4 398.9,141.2 446.2,136.6 493.5,136.8 540.7,135.0 588.0,131.7 635.3,127.8 682.5,127.3 729.8,112.1 777.1,108.6 824.4,118.3 871.6,117.1 918.9,120.1 966.2,122.2 1013.5,427.3 1060.7,420.9 1108.0,420.5 1108.0,437.5 1060.7,437.9 1013.5,441.5 966.2,136.8 918.9,134.7 871.6,131.7 824.4,132.7 777.1,123.5 729.8,127.1 682.5,141.8 635.3,142.3 588.0,146.2 540.7,149.3 493.5,151.3 446.2,150.9 398.9,155.9 351.6,151.9 304.4,153.8 257.1,148.8 209.8,150.2 162.5,153.1 115.3,154.0 68.0,159.2" fill="#e6550d" fill-opacity="0.9" stroke="#fff" stroke-width="0.4"><title>parse — generateOutput (self)</title></polygon>
<polygon points="68.0,144.3 115.3,139.5 162.5,138.8 209.8,133.6 257.1,132.8 304.4,139.2 351.6,136.9 398.9,141.2 446.2,136.5 493.5,136.8 540.7,135.0 588.0,131.3 635.3,127.8 682.5,127.3 729.8,112.1 777.1,108.6 824.4,118.3 871.6,117.1 918.9,120.1 966.2,122.2 1013.5,427.3 1060.7,420.9 1108.0,420.4 1108.0,420.5 1060.7,420.9 1013.5,427.3 966.2,122.2 918.9,120.1 871.6,117.1 824.4,118.3 777.1,108.6 729.8,112.1 682.5,127.3 635.3,127.8 588.0,131.7 540.7,135.0 493.5,136.8 446.2,136.6 398.9,141.2 351.6,137.4 304.4,139.2 257.1,132.8 209.8,134.0 162.5,138.8 115.3,139.6 68.0,144.3" fill="#969696" fill-opacity="0.9" stroke="#fff" stroke-width="0.4"><title>parse — compileInner (self)</title></polygon>
<text x="12" y="578" fill="#666" font-weight="600">phase buckets</text>
<rect x="12" y="586" width="12" height="12" fill="#c7e9c0"/>
<text x="28" y="596" fill="#222">parseTranslationUnit</text>
<rect x="289" y="586" width="12" height="12" fill="#41ab5d"/>
<text x="305" y="596" fill="#222">SemanticChecking</text>
<rect x="566" y="586" width="12" height="12" fill="#006d2c"/>
<text x="582" y="596" fill="#222">generateIR</text>
<rect x="843" y="586" width="12" height="12" fill="#74c476"/>
<text x="859" y="596" fill="#222">frontEndExecute (self)</text>
<rect x="12" y="604" width="12" height="12" fill="#6baed6"/>
<text x="28" y="614" fill="#222">specializeModule</text>
<rect x="289" y="604" width="12" height="12" fill="#2171b5"/>
<text x="305" y="614" fill="#222">simplifyIR</text>
<rect x="566" y="604" width="12" height="12" fill="#08306b"/>
<text x="582" y="614" fill="#222">linkIR</text>
<rect x="843" y="604" width="12" height="12" fill="#9e9ac8"/>
<text x="859" y="614" fill="#222">unrollLoopsInModule</text>
<rect x="12" y="622" width="12" height="12" fill="#807dba"/>
<text x="28" y="632" fill="#222">legalizeResourceTypes</text>
<rect x="289" y="622" width="12" height="12" fill="#6a51a3"/>
<text x="305" y="632" fill="#222">legalizeExistentialTypeLayout</text>
<rect x="566" y="622" width="12" height="12" fill="#bcbddc"/>
<text x="582" y="632" fill="#222">performMandatoryEarlyInlining</text>
<rect x="843" y="622" width="12" height="12" fill="#dadaeb"/>
<text x="859" y="632" fill="#222">performForceInlining</text>
<rect x="12" y="640" width="12" height="12" fill="#4a1486"/>
<text x="28" y="650" fill="#222">linkAndOptimizeIR (self)</text>
<rect x="289" y="640" width="12" height="12" fill="#fd8d3c"/>
<text x="305" y="650" fill="#222">emitEntryPointsSourceFromIR</text>
<rect x="566" y="640" width="12" height="12" fill="#e6550d"/>
<text x="582" y="650" fill="#222">generateOutput (self)</text>
<rect x="843" y="640" width="12" height="12" fill="#969696"/>
<text x="859" y="650" fill="#222">compileInner (self)</text>
</svg>