<svg xmlns="http://www.w3.org/2000/svg" xmlns:xlink="http://www.w3.org/1999/xlink" width="1132" height="680" viewBox="0 0 1132 680" preserveAspectRatio="xMidYMid meet" font-family="sans-serif" font-size="13">
<rect width="1132" height="680" fill="white"/>
<text x="12" y="30" font-size="20" font-weight="bold">parse — full phase breakdown across releases (median ms)</text>
<text x="68" y="60" font-size="15" font-weight="600" fill="#1a1a1a">parse<tspan fill="#888" font-weight="400" text-decoration="none">  0.27×</tspan></text>
<line x1="68.0" y1="516.0" x2="1108.0" y2="516.0" stroke="#eee"/>
<text x="64.0" y="519.0" text-anchor="end" fill="#999">0.0</text>
<line x1="68.0" y1="296.0" x2="1108.0" y2="296.0" stroke="#eee"/>
<text x="64.0" y="299.0" text-anchor="end" fill="#999">918</text>
<line x1="68.0" y1="76.0" x2="1108.0" y2="76.0" stroke="#eee"/>
<text x="64.0" y="79.0" text-anchor="end" fill="#999">1837</text>
<line x1="68.0" y1="76.0" x2="68.0" y2="516.0" stroke="#333"/>
<line x1="68.0" y1="516.0" x2="1108.0" y2="516.0" stroke="#333"/>
<line x1="839.0" y1="76.0" x2="839.0" y2="516.0" stroke="#e8731a" stroke-width="1.2" stroke-dasharray="4 3"/>
<text x="842.0" y="87.0" fill="#e8731a" font-size="11">daily →</text>
<line x1="68.0" y1="516.0" x2="68.0" y2="519.0" stroke="#999"/>
<text x="68.0" y="531.0" text-anchor="end" fill="#666" transform="rotate(-50 68.0 531.0)">25.14</text>
<line x1="103.9" y1="516.0" x2="103.9" y2="519.0" stroke="#999"/>
<text x="103.9" y="531.0" text-anchor="end" fill="#666" transform="rotate(-50 103.9 531.0)">25.15</text>
<line x1="139.7" y1="516.0" x2="139.7" y2="519.0" stroke="#999"/>
<text x="139.7" y="531.0" text-anchor="end" fill="#666" transform="rotate(-50 139.7 531.0)">25.16</text>
<line x1="175.6" y1="516.0" x2="175.6" y2="519.0" stroke="#999"/>
<text x="175.6" y="531.0" text-anchor="end" fill="#666" transform="rotate(-50 175.6 531.0)">25.17</text>
<line x1="211.4" y1="516.0" x2="211.4" y2="519.0" stroke="#999"/>
<text x="211.4" y="531.0" text-anchor="end" fill="#666" transform="rotate(-50 211.4 531.0)">25.18</text>
<line x1="247.3" y1="516.0" x2="247.3" y2="519.0" stroke="#999"/>
<text x="247.3" y="531.0" text-anchor="end" fill="#666" transform="rotate(-50 247.3 531.0)">25.19</text>
<line x1="283.2" y1="516.0" x2="283.2" y2="519.0" stroke="#999"/>
<text x="283.2" y="531.0" text-anchor="end" fill="#666" transform="rotate(-50 283.2 531.0)">25.20</text>
<line x1="319.0" y1="516.0" x2="319.0" y2="519.0" stroke="#999"/>
<text x="319.0" y="531.0" text-anchor="end" fill="#666" transform="rotate(-50 319.0 531.0)">25.21</text>
<line x1="354.9" y1="516.0" x2="354.9" y2="519.0" stroke="#999"/>
<text x="354.9" y="531.0" text-anchor="end" fill="#666" transform="rotate(-50 354.9 531.0)">25.22</text>
<line x1="390.8" y1="516.0" x2="390.8" y2="519.0" stroke="#999"/>
<text x="390.8" y="531.0" text-anchor="end" fill="#666" transform="rotate(-50 390.8 531.0)">25.23</text>
<line x1="426.6" y1="516.0" x2="426.6" y2="519.0" stroke="#999"/>
<text x="426.6" y="531.0" text-anchor="end" fill="#666" transform="rotate(-50 426.6 531.0)">25.24</text>
<line x1="462.5" y1="516.0" x2="462.5" y2="519.0" stroke="#999"/>
<text x="462.5" y="531.0" text-anchor="end" fill="#666" transform="rotate(-50 462.5 531.0)">26.1</text>
<line x1="498.3" y1="516.0" x2="498.3" y2="519.0" stroke="#999"/>
<text x="498.3" y="531.0" text-anchor="end" fill="#666" transform="rotate(-50 498.3 531.0)">26.2</text>
<line x1="534.2" y1="516.0" x2="534.2" y2="519.0" stroke="#999"/>
<text x="534.2" y="531.0" text-anchor="end" fill="#666" transform="rotate(-50 534.2 531.0)">26.3</text>
<line x1="570.1" y1="516.0" x2="570.1" y2="519.0" stroke="#999"/>
<text x="570.1" y="531.0" text-anchor="end" fill="#666" transform="rotate(-50 570.1 531.0)">26.4</text>
<line x1="605.9" y1="516.0" x2="605.9" y2="519.0" stroke="#999"/>
<text x="605.9" y="531.0" text-anchor="end" fill="#666" transform="rotate(-50 605.9 531.0)">26.5</text>
<line x1="641.8" y1="516.0" x2="641.8" y2="519.0" stroke="#999"/>
<text x="641.8" y="531.0" text-anchor="end" fill="#666" transform="rotate(-50 641.8 531.0)">26.7</text>
<line x1="677.7" y1="516.0" x2="677.7" y2="519.0" stroke="#999"/>
<text x="677.7" y="531.0" text-anchor="end" fill="#666" transform="rotate(-50 677.7 531.0)">26.8</text>
<line x1="713.5" y1="516.0" x2="713.5" y2="519.0" stroke="#999"/>
<text x="713.5" y="531.0" text-anchor="end" fill="#666" transform="rotate(-50 713.5 531.0)">26.9</text>
<line x1="749.4" y1="516.0" x2="749.4" y2="519.0" stroke="#999"/>
<text x="749.4" y="531.0" text-anchor="end" fill="#666" transform="rotate(-50 749.4 531.0)">26.10</text>
<line x1="785.2" y1="516.0" x2="785.2" y2="519.0" stroke="#999"/>
<text x="785.2" y="531.0" text-anchor="end" fill="#666" transform="rotate(-50 785.2 531.0)">26.11</text>
<line x1="821.1" y1="516.0" x2="821.1" y2="519.0" stroke="#999"/>
<text x="821.1" y="531.0" text-anchor="end" fill="#666" transform="rotate(-50 821.1 531.0)">26.12</text>
<line x1="857.0" y1="516.0" x2="857.0" y2="519.0" stroke="#999"/>
<text x="857.0" y="531.0" text-anchor="end" fill="#e8731a" transform="rotate(-50 857.0 531.0)">06-25</text>
<line x1="892.8" y1="516.0" x2="892.8" y2="519.0" stroke="#999"/>
<text x="892.8" y="531.0" text-anchor="end" fill="#e8731a" transform="rotate(-50 892.8 531.0)">06-26</text>
<line x1="928.7" y1="516.0" x2="928.7" y2="519.0" stroke="#999"/>
<text x="928.7" y="531.0" text-anchor="end" fill="#e8731a" transform="rotate(-50 928.7 531.0)">06-28</text>
<line x1="964.6" y1="516.0" x2="964.6" y2="519.0" stroke="#999"/>
<text x="964.6" y="531.0" text-anchor="end" fill="#e8731a" transform="rotate(-50 964.6 531.0)">07-01</text>
<line x1="1000.4" y1="516.0" x2="1000.4" y2="519.0" stroke="#999"/>
<text x="1000.4" y="531.0" text-anchor="end" fill="#e8731a" transform="rotate(-50 1000.4 531.0)">07-02</text>
<line x1="1036.3" y1="516.0" x2="1036.3" y2="519.0" stroke="#999"/>
<text x="1036.3" y="531.0" text-anchor="end" fill="#e8731a" transform="rotate(-50 1036.3 531.0)">07-03</text>
<line x1="1072.1" y1="516.0" x2="1072.1" y2="519.0" stroke="#999"/>
<text x="1072.1" y="531.0" text-anchor="end" fill="#e8731a" transform="rotate(-50 1072.1 531.0)">07-03</text>
<line x1="1108.0" y1="516.0" x2="1108.0" y2="519.0" stroke="#999"/>
<text x="1108.0" y="531.0" text-anchor="end" fill="#e8731a" transform="rotate(-50 1108.0 531.0)">07-03</text>
<polygon points="68.0,508.5 103.9,508.4 139.7,508.4 175.6,508.0 211.4,507.6 247.3,507.8 283.2,507.6 319.0,507.3 354.9,508.1 390.8,507.7 426.6,507.8 462.5,508.4 498.3,508.3 534.2,508.4 570.1,508.3 605.9,508.2 641.8,507.9 677.7,507.9 713.5,508.1 749.4,508.0 785.2,508.2 821.1,508.2 857.0,507.8 892.8,507.7 928.7,507.7 964.6,507.7 1000.4,507.8 1036.3,507.5 1072.1,507.4 1108.0,507.6 1108.0,516.0 1072.1,516.0 1036.3,516.0 1000.4,516.0 964.6,516.0 928.7,516.0 892.8,516.0 857.0,516.0 821.1,516.0 785.2,516.0 749.4,516.0 713.5,516.0 677.7,516.0 641.8,516.0 605.9,516.0 570.1,516.0 534.2,516.0 498.3,516.0 462.5,516.0 426.6,516.0 390.8,516.0 354.9,516.0 319.0,516.0 283.2,516.0 247.3,516.0 211.4,516.0 175.6,516.0 139.7,516.0 103.9,516.0 68.0,516.0" fill="#c7e9c0" fill-opacity="0.9" stroke="#fff" stroke-width="0.4"><title>parse — parseTranslationUnit</title></polygon>
<polygon points="68.0,236.8 103.9,233.1 139.7,234.3 175.6,216.7 211.4,208.8 247.3,219.4 283.2,191.8 319.0,210.3 354.9,214.8 390.8,209.9 426.6,219.1 462.5,228.4 498.3,222.7 534.2,221.9 570.1,222.0 605.9,221.5 641.8,215.0 677.7,211.4 713.5,214.9 749.4,216.6 785.2,480.3 821.1,480.2 857.0,476.8 892.8,476.8 928.7,476.4 964.6,476.8 1000.4,477.6 1036.3,476.7 1072.1,475.9 1108.0,477.0 1108.0,507.6 1072.1,507.4 1036.3,507.5 1000.4,507.8 964.6,507.7 928.7,507.7 892.8,507.7 857.0,507.8 821.1,508.2 785.2,508.2 749.4,508.0 713.5,508.1 677.7,507.9 641.8,507.9 605.9,508.2 570.1,508.3 534.2,508.4 498.3,508.3 462.5,508.4 426.6,507.8 390.8,507.7 354.9,508.1 319.0,507.3 283.2,507.6 247.3,507.8 211.4,507.6 175.6,508.0 139.7,508.4 103.9,508.4 68.0,508.5" fill="#41ab5d" fill-opacity="0.9" stroke="#fff" stroke-width="0.4"><title>parse — SemanticChecking</title></polygon>
<polygon points="68.0,177.5 103.9,175.7 139.7,173.8 175.6,153.8 211.4,141.1 247.3,156.3 283.2,123.7 319.0,142.8 354.9,151.0 390.8,145.8 426.6,155.2 462.5,171.4 498.3,165.8 534.2,165.9 570.1,164.9 605.9,164.0 641.8,155.4 677.7,152.2 713.5,154.8 749.4,157.1 785.2,445.4 821.1,445.1 857.0,438.9 892.8,438.7 928.7,438.2 964.6,439.9 1000.4,440.0 1036.3,438.9 1072.1,436.7 1108.0,438.8 1108.0,477.0 1072.1,475.9 1036.3,476.7 1000.4,477.6 964.6,476.8 928.7,476.4 892.8,476.8 857.0,476.8 821.1,480.2 785.2,480.3 749.4,216.6 713.5,214.9 677.7,211.4 641.8,215.0 605.9,221.5 570.1,222.0 534.2,221.9 498.3,222.7 462.5,228.4 426.6,219.1 390.8,209.9 354.9,214.8 319.0,210.3 283.2,191.8 247.3,219.4 211.4,208.8 175.6,216.7 139.7,234.3 103.9,233.1 68.0,236.8" fill="#006d2c" fill-opacity="0.9" stroke="#fff" stroke-width="0.4"><title>parse — generateIR</title></polygon>
<polygon points="68.0,176.6 103.9,175.1 139.7,171.9 175.6,153.8 211.4,137.8 247.3,154.3 283.2,123.7 319.0,142.5 354.9,151.0 390.8,145.7 426.6,155.2 462.5,170.6 498.3,165.6 534.2,165.8 570.1,164.9 605.9,164.0 641.8,154.1 677.7,150.4 713.5,154.8 749.4,157.1 785.2,445.1 821.1,445.1 857.0,438.9 892.8,438.4 928.7,438.0 964.6,439.0 1000.4,439.7 1036.3,437.9 1072.1,436.5 1108.0,437.6 1108.0,438.8 1072.1,436.7 1036.3,438.9 1000.4,440.0 964.6,439.9 928.7,438.2 892.8,438.7 857.0,438.9 821.1,445.1 785.2,445.4 749.4,157.1 713.5,154.8 677.7,152.2 641.8,155.4 605.9,164.0 570.1,164.9 534.2,165.9 498.3,165.8 462.5,171.4 426.6,155.2 390.8,145.8 354.9,151.0 319.0,142.8 283.2,123.7 247.3,156.3 211.4,141.1 175.6,153.8 139.7,173.8 103.9,175.7 68.0,177.5" fill="#74c476" fill-opacity="0.9" stroke="#fff" stroke-width="0.4"><title>parse — frontEndExecute (self)</title></polygon>
<polygon points="68.0,162.8 103.9,161.3 139.7,158.4 175.6,137.1 211.4,120.9 247.3,140.1 283.2,108.6 319.0,127.8 354.9,136.7 390.8,131.2 426.6,140.6 462.5,156.7 498.3,151.6 534.2,152.1 570.1,151.1 605.9,150.3 641.8,140.1 677.7,136.5 713.5,140.9 749.4,143.3 785.2,431.7 821.1,431.5 857.0,422.2 892.8,421.6 928.7,420.1 964.6,422.6 1000.4,422.4 1036.3,421.3 1072.1,419.5 1108.0,421.3 1108.0,437.6 1072.1,436.5 1036.3,437.9 1000.4,439.7 964.6,439.0 928.7,438.0 892.8,438.4 857.0,438.9 821.1,445.1 785.2,445.1 749.4,157.1 713.5,154.8 677.7,150.4 641.8,154.1 605.9,164.0 570.1,164.9 534.2,165.8 498.3,165.6 462.5,170.6 426.6,155.2 390.8,145.7 354.9,151.0 319.0,142.5 283.2,123.7 247.3,154.3 211.4,137.8 175.6,153.8 139.7,171.9 103.9,175.1 68.0,176.6" fill="#e6550d" fill-opacity="0.9" stroke="#fff" stroke-width="0.4"><title>parse — generateOutput (self)</title></polygon>
<polygon points="68.0,162.5 103.9,161.3 139.7,158.2 175.6,137.1 211.4,119.1 247.3,139.2 283.2,108.6 319.0,127.4 354.9,136.7 390.8,130.2 426.6,140.6 462.5,156.7 498.3,151.6 534.2,152.1 570.1,151.1 605.9,150.3 641.8,140.1 677.7,136.5 713.5,140.9 749.4,143.3 785.2,431.5 821.1,431.5 857.0,421.2 892.8,421.6 928.7,420.1 964.6,422.6 1000.4,422.4 1036.3,420.7 1072.1,419.1 1108.0,421.0 1108.0,421.3 1072.1,419.5 1036.3,421.3 1000.4,422.4 964.6,422.6 928.7,420.1 892.8,421.6 857.0,422.2 821.1,431.5 785.2,431.7 749.4,143.3 713.5,140.9 677.7,136.5 641.8,140.1 605.9,150.3 570.1,151.1 534.2,152.1 498.3,151.6 462.5,156.7 426.6,140.6 390.8,131.2 354.9,136.7 319.0,127.8 283.2,108.6 247.3,140.1 211.4,120.9 175.6,137.1 139.7,158.4 103.9,161.3 68.0,162.8" fill="#969696" fill-opacity="0.9" stroke="#fff" stroke-width="0.4"><title>parse — compileInner (self)</title></polygon>
<text x="12" y="578" fill="#666" font-weight="600">phase buckets</text>
<rect x="12" y="586" width="12" height="12" fill="#c7e9c0"/>
<text x="28" y="596" fill="#222">parseTranslationUnit</text>
<rect x="289" y="586" width="12" height="12" fill="#41ab5d"/>
<text x="305" y="596" fill="#222">SemanticChecking</text>
<rect x="566" y="586" width="12" height="12" fill="#006d2c"/>
<text x="582" y="596" fill="#222">generateIR</text>
<rect x="843" y="586" width="12" height="12" fill="#74c476"/>
<text x="859" y="596" fill="#222">frontEndExecute (self)</text>
<rect x="12" y="604" width="12" height="12" fill="#6baed6"/>
<text x="28" y="614" fill="#222">specializeModule</text>
<rect x="289" y="604" width="12" height="12" fill="#2171b5"/>
<text x="305" y="614" fill="#222">simplifyIR</text>
<rect x="566" y="604" width="12" height="12" fill="#08306b"/>
<text x="582" y="614" fill="#222">linkIR</text>
<rect x="843" y="604" width="12" height="12" fill="#9e9ac8"/>
<text x="859" y="614" fill="#222">unrollLoopsInModule</text>
<rect x="12" y="622" width="12" height="12" fill="#807dba"/>
<text x="28" y="632" fill="#222">legalizeResourceTypes</text>
<rect x="289" y="622" width="12" height="12" fill="#6a51a3"/>
<text x="305" y="632" fill="#222">legalizeExistentialTypeLayout</text>
<rect x="566" y="622" width="12" height="12" fill="#bcbddc"/>
<text x="582" y="632" fill="#222">performMandatoryEarlyInlining</text>
<rect x="843" y="622" width="12" height="12" fill="#dadaeb"/>
<text x="859" y="632" fill="#222">performForceInlining</text>
<rect x="12" y="640" width="12" height="12" fill="#4a1486"/>
<text x="28" y="650" fill="#222">linkAndOptimizeIR (self)</text>
<rect x="289" y="640" width="12" height="12" fill="#fd8d3c"/>
<text x="305" y="650" fill="#222">emitEntryPointsSourceFromIR</text>
<rect x="566" y="640" width="12" height="12" fill="#e6550d"/>
<text x="582" y="650" fill="#222">generateOutput (self)</text>
<rect x="843" y="640" width="12" height="12" fill="#969696"/>
<text x="859" y="650" fill="#222">compileInner (self)</text>
</svg>