<svg xmlns="http://www.w3.org/2000/svg" xmlns:xlink="http://www.w3.org/1999/xlink" width="1132" height="680" viewBox="0 0 1132 680" preserveAspectRatio="xMidYMid meet" font-family="sans-serif" font-size="13">
<rect width="1132" height="680" fill="white"/>
<text x="12" y="30" font-size="20" font-weight="bold">parse — Daily tip-of-tree (last 30 days) (median ms)</text>
<text x="68" y="60" font-size="15" font-weight="600" fill="#1a1a1a">parse<tspan fill="#888" font-weight="400" text-decoration="none">  0.78×</tspan></text>
<line x1="68.0" y1="516.0" x2="1108.0" y2="516.0" stroke="#eee"/>
<text x="64.0" y="519.0" text-anchor="end" fill="#999">0.0</text>
<line x1="68.0" y1="296.0" x2="1108.0" y2="296.0" stroke="#eee"/>
<text x="64.0" y="299.0" text-anchor="end" fill="#999">219</text>
<line x1="68.0" y1="76.0" x2="1108.0" y2="76.0" stroke="#eee"/>
<text x="64.0" y="79.0" text-anchor="end" fill="#999">438</text>
<line x1="68.0" y1="76.0" x2="68.0" y2="516.0" stroke="#333"/>
<line x1="68.0" y1="516.0" x2="1108.0" y2="516.0" stroke="#333"/>
<line x1="68.0" y1="516.0" x2="68.0" y2="519.0" stroke="#999"/>
<text x="68.0" y="531.0" text-anchor="end" fill="#e8731a" transform="rotate(-50 68.0 531.0)">06-25</text>
<line x1="120.0" y1="516.0" x2="120.0" y2="519.0" stroke="#999"/>
<text x="120.0" y="531.0" text-anchor="end" fill="#e8731a" transform="rotate(-50 120.0 531.0)">06-26</text>
<line x1="172.0" y1="516.0" x2="172.0" y2="519.0" stroke="#999"/>
<text x="172.0" y="531.0" text-anchor="end" fill="#e8731a" transform="rotate(-50 172.0 531.0)">06-28</text>
<line x1="224.0" y1="516.0" x2="224.0" y2="519.0" stroke="#999"/>
<text x="224.0" y="531.0" text-anchor="end" fill="#e8731a" transform="rotate(-50 224.0 531.0)">07-01</text>
<line x1="276.0" y1="516.0" x2="276.0" y2="519.0" stroke="#999"/>
<text x="276.0" y="531.0" text-anchor="end" fill="#e8731a" transform="rotate(-50 276.0 531.0)">07-02</text>
<line x1="328.0" y1="516.0" x2="328.0" y2="519.0" stroke="#999"/>
<text x="328.0" y="531.0" text-anchor="end" fill="#e8731a" transform="rotate(-50 328.0 531.0)">07-03</text>
<line x1="380.0" y1="516.0" x2="380.0" y2="519.0" stroke="#999"/>
<text x="380.0" y="531.0" text-anchor="end" fill="#e8731a" transform="rotate(-50 380.0 531.0)">07-06</text>
<line x1="432.0" y1="516.0" x2="432.0" y2="519.0" stroke="#999"/>
<text x="432.0" y="531.0" text-anchor="end" fill="#e8731a" transform="rotate(-50 432.0 531.0)">07-07</text>
<line x1="484.0" y1="516.0" x2="484.0" y2="519.0" stroke="#999"/>
<text x="484.0" y="531.0" text-anchor="end" fill="#e8731a" transform="rotate(-50 484.0 531.0)">07-08</text>
<line x1="536.0" y1="516.0" x2="536.0" y2="519.0" stroke="#999"/>
<text x="536.0" y="531.0" text-anchor="end" fill="#e8731a" transform="rotate(-50 536.0 531.0)">07-09</text>
<line x1="588.0" y1="516.0" x2="588.0" y2="519.0" stroke="#999"/>
<text x="588.0" y="531.0" text-anchor="end" fill="#e8731a" transform="rotate(-50 588.0 531.0)">07-10</text>
<line x1="640.0" y1="516.0" x2="640.0" y2="519.0" stroke="#999"/>
<text x="640.0" y="531.0" text-anchor="end" fill="#e8731a" transform="rotate(-50 640.0 531.0)">07-11</text>
<line x1="692.0" y1="516.0" x2="692.0" y2="519.0" stroke="#999"/>
<text x="692.0" y="531.0" text-anchor="end" fill="#e8731a" transform="rotate(-50 692.0 531.0)">07-14</text>
<line x1="744.0" y1="516.0" x2="744.0" y2="519.0" stroke="#999"/>
<text x="744.0" y="531.0" text-anchor="end" fill="#e8731a" transform="rotate(-50 744.0 531.0)">07-15</text>
<line x1="796.0" y1="516.0" x2="796.0" y2="519.0" stroke="#999"/>
<text x="796.0" y="531.0" text-anchor="end" fill="#e8731a" transform="rotate(-50 796.0 531.0)">07-15</text>
<line x1="848.0" y1="516.0" x2="848.0" y2="519.0" stroke="#999"/>
<text x="848.0" y="531.0" text-anchor="end" fill="#e8731a" transform="rotate(-50 848.0 531.0)">07-16</text>
<line x1="900.0" y1="516.0" x2="900.0" y2="519.0" stroke="#999"/>
<text x="900.0" y="531.0" text-anchor="end" fill="#e8731a" transform="rotate(-50 900.0 531.0)">07-17</text>
<line x1="952.0" y1="516.0" x2="952.0" y2="519.0" stroke="#999"/>
<text x="952.0" y="531.0" text-anchor="end" fill="#e8731a" transform="rotate(-50 952.0 531.0)">07-18</text>
<line x1="1004.0" y1="516.0" x2="1004.0" y2="519.0" stroke="#999"/>
<text x="1004.0" y="531.0" text-anchor="end" fill="#e8731a" transform="rotate(-50 1004.0 531.0)">07-19</text>
<line x1="1056.0" y1="516.0" x2="1056.0" y2="519.0" stroke="#999"/>
<text x="1056.0" y="531.0" text-anchor="end" fill="#e8731a" transform="rotate(-50 1056.0 531.0)">07-20</text>
<line x1="1108.0" y1="516.0" x2="1108.0" y2="519.0" stroke="#999"/>
<text x="1108.0" y="531.0" text-anchor="end" fill="#e8731a" transform="rotate(-50 1108.0 531.0)">07-21</text>
<polygon points="68.0,481.2 120.0,481.1 172.0,481.0 224.0,480.8 276.0,480.9 328.0,480.7 380.0,480.3 432.0,484.9 484.0,484.9 536.0,484.9 588.0,484.6 640.0,484.5 692.0,485.3 744.0,486.5 796.0,486.3 848.0,486.0 900.0,486.0 952.0,490.5 1004.0,491.1 1056.0,490.4 1108.0,491.2 1108.0,516.0 1056.0,516.0 1004.0,516.0 952.0,516.0 900.0,516.0 848.0,516.0 796.0,516.0 744.0,516.0 692.0,516.0 640.0,516.0 588.0,516.0 536.0,516.0 484.0,516.0 432.0,516.0 380.0,516.0 328.0,516.0 276.0,516.0 224.0,516.0 172.0,516.0 120.0,516.0 68.0,516.0" fill="#c7e9c0" fill-opacity="0.9" stroke="#fff" stroke-width="0.4"><title>parse — parseTranslationUnit</title></polygon>
<polygon points="68.0,350.4 120.0,349.8 172.0,349.2 224.0,351.4 276.0,351.4 328.0,348.7 380.0,348.7 432.0,355.5 484.0,354.7 536.0,353.6 588.0,355.0 640.0,351.5 692.0,356.8 744.0,372.6 796.0,371.1 848.0,365.6 900.0,364.7 952.0,392.4 1004.0,392.4 1056.0,391.5 1108.0,391.9 1108.0,491.2 1056.0,490.4 1004.0,491.1 952.0,490.5 900.0,486.0 848.0,486.0 796.0,486.3 744.0,486.5 692.0,485.3 640.0,484.5 588.0,484.6 536.0,484.9 484.0,484.9 432.0,484.9 380.0,480.3 328.0,480.7 276.0,480.9 224.0,480.8 172.0,481.0 120.0,481.1 68.0,481.2" fill="#41ab5d" fill-opacity="0.9" stroke="#fff" stroke-width="0.4"><title>parse — SemanticChecking</title></polygon>
<polygon points="68.0,189.5 120.0,189.4 172.0,188.9 224.0,190.5 276.0,187.4 328.0,187.6 380.0,186.4 432.0,196.5 484.0,195.2 536.0,195.4 588.0,195.6 640.0,190.0 692.0,196.4 744.0,217.6 796.0,214.3 848.0,218.3 900.0,220.1 952.0,266.7 1004.0,267.7 1056.0,265.8 1108.0,266.3 1108.0,391.9 1056.0,391.5 1004.0,392.4 952.0,392.4 900.0,364.7 848.0,365.6 796.0,371.1 744.0,372.6 692.0,356.8 640.0,351.5 588.0,355.0 536.0,353.6 484.0,354.7 432.0,355.5 380.0,348.7 328.0,348.7 276.0,351.4 224.0,351.4 172.0,349.2 120.0,349.8 68.0,350.4" fill="#006d2c" fill-opacity="0.9" stroke="#fff" stroke-width="0.4"><title>parse — generateIR</title></polygon>
<polygon points="68.0,189.5 120.0,185.4 172.0,187.5 224.0,190.5 276.0,187.4 328.0,187.6 380.0,186.4 432.0,194.5 484.0,195.2 536.0,195.4 588.0,195.0 640.0,189.6 692.0,196.4 744.0,217.3 796.0,214.3 848.0,214.7 900.0,219.2 952.0,265.5 1004.0,267.4 1056.0,265.8 1108.0,266.1 1108.0,266.3 1056.0,265.8 1004.0,267.7 952.0,266.7 900.0,220.1 848.0,218.3 796.0,214.3 744.0,217.6 692.0,196.4 640.0,190.0 588.0,195.6 536.0,195.4 484.0,195.2 432.0,196.5 380.0,186.4 328.0,187.6 276.0,187.4 224.0,190.5 172.0,188.9 120.0,189.4 68.0,189.5" fill="#74c476" fill-opacity="0.9" stroke="#fff" stroke-width="0.4"><title>parse — frontEndExecute (self)</title></polygon>
<polygon points="68.0,121.4 120.0,117.3 172.0,112.6 224.0,121.1 276.0,113.4 328.0,116.4 380.0,117.1 432.0,123.2 484.0,119.7 536.0,125.0 588.0,125.3 640.0,117.4 692.0,124.2 744.0,144.9 796.0,142.4 848.0,143.3 900.0,146.4 952.0,205.7 1004.0,208.5 1056.0,209.2 1108.0,209.8 1108.0,266.1 1056.0,265.8 1004.0,267.4 952.0,265.5 900.0,219.2 848.0,214.7 796.0,214.3 744.0,217.3 692.0,196.4 640.0,189.6 588.0,195.0 536.0,195.4 484.0,195.2 432.0,194.5 380.0,186.4 328.0,187.6 276.0,187.4 224.0,190.5 172.0,187.5 120.0,185.4 68.0,189.5" fill="#e6550d" fill-opacity="0.9" stroke="#fff" stroke-width="0.4"><title>parse — generateOutput (self)</title></polygon>
<polygon points="68.0,120.8 120.0,117.3 172.0,111.5 224.0,120.6 276.0,112.7 328.0,108.6 380.0,116.2 432.0,122.4 484.0,119.7 536.0,124.8 588.0,124.2 640.0,117.4 692.0,124.2 744.0,144.3 796.0,142.4 848.0,143.3 900.0,143.9 952.0,202.8 1004.0,207.8 1056.0,209.2 1108.0,209.0 1108.0,209.8 1056.0,209.2 1004.0,208.5 952.0,205.7 900.0,146.4 848.0,143.3 796.0,142.4 744.0,144.9 692.0,124.2 640.0,117.4 588.0,125.3 536.0,125.0 484.0,119.7 432.0,123.2 380.0,117.1 328.0,116.4 276.0,113.4 224.0,121.1 172.0,112.6 120.0,117.3 68.0,121.4" fill="#969696" fill-opacity="0.9" stroke="#fff" stroke-width="0.4"><title>parse — compileInner (self)</title></polygon>
<text x="12" y="578" fill="#666" font-weight="600">phase buckets</text>
<rect x="12" y="586" width="12" height="12" fill="#c7e9c0"/>
<text x="28" y="596" fill="#222">parseTranslationUnit</text>
<rect x="289" y="586" width="12" height="12" fill="#41ab5d"/>
<text x="305" y="596" fill="#222">SemanticChecking</text>
<rect x="566" y="586" width="12" height="12" fill="#006d2c"/>
<text x="582" y="596" fill="#222">generateIR</text>
<rect x="843" y="586" width="12" height="12" fill="#74c476"/>
<text x="859" y="596" fill="#222">frontEndExecute (self)</text>
<rect x="12" y="604" width="12" height="12" fill="#6baed6"/>
<text x="28" y="614" fill="#222">specializeModule</text>
<rect x="289" y="604" width="12" height="12" fill="#2171b5"/>
<text x="305" y="614" fill="#222">simplifyIR</text>
<rect x="566" y="604" width="12" height="12" fill="#08306b"/>
<text x="582" y="614" fill="#222">linkIR</text>
<rect x="843" y="604" width="12" height="12" fill="#9e9ac8"/>
<text x="859" y="614" fill="#222">unrollLoopsInModule</text>
<rect x="12" y="622" width="12" height="12" fill="#807dba"/>
<text x="28" y="632" fill="#222">legalizeResourceTypes</text>
<rect x="289" y="622" width="12" height="12" fill="#6a51a3"/>
<text x="305" y="632" fill="#222">legalizeExistentialTypeLayout</text>
<rect x="566" y="622" width="12" height="12" fill="#bcbddc"/>
<text x="582" y="632" fill="#222">performMandatoryEarlyInlining</text>
<rect x="843" y="622" width="12" height="12" fill="#dadaeb"/>
<text x="859" y="632" fill="#222">performForceInlining</text>
<rect x="12" y="640" width="12" height="12" fill="#4a1486"/>
<text x="28" y="650" fill="#222">linkAndOptimizeIR (self)</text>
<rect x="289" y="640" width="12" height="12" fill="#fd8d3c"/>
<text x="305" y="650" fill="#222">emitEntryPointsSourceFromIR</text>
<rect x="566" y="640" width="12" height="12" fill="#e6550d"/>
<text x="582" y="650" fill="#222">generateOutput (self)</text>
<rect x="843" y="640" width="12" height="12" fill="#969696"/>
<text x="859" y="650" fill="#222">compileInner (self)</text>
</svg>