<svg xmlns="http://www.w3.org/2000/svg" xmlns:xlink="http://www.w3.org/1999/xlink" width="1132" height="680" viewBox="0 0 1132 680" preserveAspectRatio="xMidYMid meet" font-family="sans-serif" font-size="13">
<rect width="1132" height="680" fill="white"/>
<text x="12" y="30" font-size="20" font-weight="bold">reflection_layout — full phase breakdown across releases (median ms)</text>
<text x="68" y="60" font-size="15" font-weight="600" fill="#1a1a1a">reflection_layout<tspan fill="#888" font-weight="400" text-decoration="none">  0.75×</tspan></text>
<line x1="68.0" y1="516.0" x2="1108.0" y2="516.0" stroke="#eee"/>
<text x="64.0" y="519.0" text-anchor="end" fill="#999">0.0</text>
<line x1="68.0" y1="296.0" x2="1108.0" y2="296.0" stroke="#eee"/>
<text x="64.0" y="299.0" text-anchor="end" fill="#999">170</text>
<line x1="68.0" y1="76.0" x2="1108.0" y2="76.0" stroke="#eee"/>
<text x="64.0" y="79.0" text-anchor="end" fill="#999">340</text>
<line x1="68.0" y1="76.0" x2="68.0" y2="516.0" stroke="#333"/>
<line x1="68.0" y1="516.0" x2="1108.0" y2="516.0" stroke="#333"/>
<line x1="672.3" y1="76.0" x2="672.3" y2="516.0" stroke="#e8731a" stroke-width="1.2" stroke-dasharray="4 3"/>
<text x="675.3" y="87.0" fill="#e8731a" font-size="11">daily →</text>
<line x1="68.0" y1="516.0" x2="68.0" y2="519.0" stroke="#999"/>
<text x="68.0" y="531.0" text-anchor="end" fill="#666" transform="rotate(-50 68.0 531.0)">25.14</text>
<line x1="96.1" y1="516.0" x2="96.1" y2="519.0" stroke="#999"/>
<text x="96.1" y="531.0" text-anchor="end" fill="#666" transform="rotate(-50 96.1 531.0)">25.15</text>
<line x1="124.2" y1="516.0" x2="124.2" y2="519.0" stroke="#999"/>
<text x="124.2" y="531.0" text-anchor="end" fill="#666" transform="rotate(-50 124.2 531.0)">25.16</text>
<line x1="152.3" y1="516.0" x2="152.3" y2="519.0" stroke="#999"/>
<text x="152.3" y="531.0" text-anchor="end" fill="#666" transform="rotate(-50 152.3 531.0)">25.17</text>
<line x1="180.4" y1="516.0" x2="180.4" y2="519.0" stroke="#999"/>
<text x="180.4" y="531.0" text-anchor="end" fill="#666" transform="rotate(-50 180.4 531.0)">25.18</text>
<line x1="208.5" y1="516.0" x2="208.5" y2="519.0" stroke="#999"/>
<text x="208.5" y="531.0" text-anchor="end" fill="#666" transform="rotate(-50 208.5 531.0)">25.19</text>
<line x1="236.6" y1="516.0" x2="236.6" y2="519.0" stroke="#999"/>
<text x="236.6" y="531.0" text-anchor="end" fill="#666" transform="rotate(-50 236.6 531.0)">25.20</text>
<line x1="264.8" y1="516.0" x2="264.8" y2="519.0" stroke="#999"/>
<text x="264.8" y="531.0" text-anchor="end" fill="#666" transform="rotate(-50 264.8 531.0)">25.21</text>
<line x1="292.9" y1="516.0" x2="292.9" y2="519.0" stroke="#999"/>
<text x="292.9" y="531.0" text-anchor="end" fill="#666" transform="rotate(-50 292.9 531.0)">25.22</text>
<line x1="321.0" y1="516.0" x2="321.0" y2="519.0" stroke="#999"/>
<text x="321.0" y="531.0" text-anchor="end" fill="#666" transform="rotate(-50 321.0 531.0)">25.23</text>
<line x1="349.1" y1="516.0" x2="349.1" y2="519.0" stroke="#999"/>
<text x="349.1" y="531.0" text-anchor="end" fill="#666" transform="rotate(-50 349.1 531.0)">25.24</text>
<line x1="377.2" y1="516.0" x2="377.2" y2="519.0" stroke="#999"/>
<text x="377.2" y="531.0" text-anchor="end" fill="#666" transform="rotate(-50 377.2 531.0)">26.1</text>
<line x1="405.3" y1="516.0" x2="405.3" y2="519.0" stroke="#999"/>
<text x="405.3" y="531.0" text-anchor="end" fill="#666" transform="rotate(-50 405.3 531.0)">26.2</text>
<line x1="433.4" y1="516.0" x2="433.4" y2="519.0" stroke="#999"/>
<text x="433.4" y="531.0" text-anchor="end" fill="#666" transform="rotate(-50 433.4 531.0)">26.3</text>
<line x1="461.5" y1="516.0" x2="461.5" y2="519.0" stroke="#999"/>
<text x="461.5" y="531.0" text-anchor="end" fill="#666" transform="rotate(-50 461.5 531.0)">26.4</text>
<line x1="489.6" y1="516.0" x2="489.6" y2="519.0" stroke="#999"/>
<text x="489.6" y="531.0" text-anchor="end" fill="#666" transform="rotate(-50 489.6 531.0)">26.5</text>
<line x1="517.7" y1="516.0" x2="517.7" y2="519.0" stroke="#999"/>
<text x="517.7" y="531.0" text-anchor="end" fill="#666" transform="rotate(-50 517.7 531.0)">26.7</text>
<line x1="545.8" y1="516.0" x2="545.8" y2="519.0" stroke="#999"/>
<text x="545.8" y="531.0" text-anchor="end" fill="#666" transform="rotate(-50 545.8 531.0)">26.8</text>
<line x1="573.9" y1="516.0" x2="573.9" y2="519.0" stroke="#999"/>
<text x="573.9" y="531.0" text-anchor="end" fill="#666" transform="rotate(-50 573.9 531.0)">26.9</text>
<line x1="602.1" y1="516.0" x2="602.1" y2="519.0" stroke="#999"/>
<text x="602.1" y="531.0" text-anchor="end" fill="#666" transform="rotate(-50 602.1 531.0)">26.10</text>
<line x1="630.2" y1="516.0" x2="630.2" y2="519.0" stroke="#999"/>
<text x="630.2" y="531.0" text-anchor="end" fill="#666" transform="rotate(-50 630.2 531.0)">26.11</text>
<line x1="658.3" y1="516.0" x2="658.3" y2="519.0" stroke="#999"/>
<text x="658.3" y="531.0" text-anchor="end" fill="#666" transform="rotate(-50 658.3 531.0)">26.12</text>
<line x1="686.4" y1="516.0" x2="686.4" y2="519.0" stroke="#999"/>
<text x="686.4" y="531.0" text-anchor="end" fill="#e8731a" transform="rotate(-50 686.4 531.0)">06-25</text>
<line x1="714.5" y1="516.0" x2="714.5" y2="519.0" stroke="#999"/>
<text x="714.5" y="531.0" text-anchor="end" fill="#e8731a" transform="rotate(-50 714.5 531.0)">06-26</text>
<line x1="742.6" y1="516.0" x2="742.6" y2="519.0" stroke="#999"/>
<text x="742.6" y="531.0" text-anchor="end" fill="#e8731a" transform="rotate(-50 742.6 531.0)">06-28</text>
<line x1="770.7" y1="516.0" x2="770.7" y2="519.0" stroke="#999"/>
<text x="770.7" y="531.0" text-anchor="end" fill="#e8731a" transform="rotate(-50 770.7 531.0)">07-01</text>
<line x1="798.8" y1="516.0" x2="798.8" y2="519.0" stroke="#999"/>
<text x="798.8" y="531.0" text-anchor="end" fill="#e8731a" transform="rotate(-50 798.8 531.0)">07-02</text>
<line x1="826.9" y1="516.0" x2="826.9" y2="519.0" stroke="#999"/>
<text x="826.9" y="531.0" text-anchor="end" fill="#e8731a" transform="rotate(-50 826.9 531.0)">07-03</text>
<line x1="855.0" y1="516.0" x2="855.0" y2="519.0" stroke="#999"/>
<text x="855.0" y="531.0" text-anchor="end" fill="#e8731a" transform="rotate(-50 855.0 531.0)">07-06</text>
<line x1="883.1" y1="516.0" x2="883.1" y2="519.0" stroke="#999"/>
<text x="883.1" y="531.0" text-anchor="end" fill="#e8731a" transform="rotate(-50 883.1 531.0)">07-07</text>
<line x1="911.2" y1="516.0" x2="911.2" y2="519.0" stroke="#999"/>
<text x="911.2" y="531.0" text-anchor="end" fill="#e8731a" transform="rotate(-50 911.2 531.0)">07-07</text>
<line x1="939.4" y1="516.0" x2="939.4" y2="519.0" stroke="#999"/>
<text x="939.4" y="531.0" text-anchor="end" fill="#e8731a" transform="rotate(-50 939.4 531.0)">07-08</text>
<line x1="967.5" y1="516.0" x2="967.5" y2="519.0" stroke="#999"/>
<text x="967.5" y="531.0" text-anchor="end" fill="#e8731a" transform="rotate(-50 967.5 531.0)">07-09</text>
<line x1="995.6" y1="516.0" x2="995.6" y2="519.0" stroke="#999"/>
<text x="995.6" y="531.0" text-anchor="end" fill="#e8731a" transform="rotate(-50 995.6 531.0)">07-09</text>
<line x1="1023.7" y1="516.0" x2="1023.7" y2="519.0" stroke="#999"/>
<text x="1023.7" y="531.0" text-anchor="end" fill="#e8731a" transform="rotate(-50 1023.7 531.0)">07-10</text>
<line x1="1051.8" y1="516.0" x2="1051.8" y2="519.0" stroke="#999"/>
<text x="1051.8" y="531.0" text-anchor="end" fill="#e8731a" transform="rotate(-50 1051.8 531.0)">07-10</text>
<line x1="1079.9" y1="516.0" x2="1079.9" y2="519.0" stroke="#999"/>
<text x="1079.9" y="531.0" text-anchor="end" fill="#e8731a" transform="rotate(-50 1079.9 531.0)">07-11</text>
<line x1="1108.0" y1="516.0" x2="1108.0" y2="519.0" stroke="#999"/>
<text x="1108.0" y="531.0" text-anchor="end" fill="#e8731a" transform="rotate(-50 1108.0 531.0)">07-11</text>
<polygon points="68.0,510.5 96.1,510.7 124.2,510.7 152.3,510.6 180.4,510.2 208.5,510.4 236.6,510.2 264.8,510.5 292.9,510.4 321.0,510.6 349.1,510.4 377.2,510.5 405.3,510.5 433.4,510.4 461.5,510.4 489.6,510.2 517.7,510.1 545.8,510.2 573.9,510.1 602.1,510.1 630.2,510.2 658.3,510.3 686.4,510.0 714.5,509.9 742.6,509.7 770.7,509.9 798.8,509.9 826.9,509.9 855.0,509.7 883.1,509.8 911.2,510.0 939.4,509.8 967.5,509.9 995.6,509.8 1023.7,509.8 1051.8,509.8 1079.9,509.7 1108.0,509.9 1108.0,516.0 1079.9,516.0 1051.8,516.0 1023.7,516.0 995.6,516.0 967.5,516.0 939.4,516.0 911.2,516.0 883.1,516.0 855.0,516.0 826.9,516.0 798.8,516.0 770.7,516.0 742.6,516.0 714.5,516.0 686.4,516.0 658.3,516.0 630.2,516.0 602.1,516.0 573.9,516.0 545.8,516.0 517.7,516.0 489.6,516.0 461.5,516.0 433.4,516.0 405.3,516.0 377.2,516.0 349.1,516.0 321.0,516.0 292.9,516.0 264.8,516.0 236.6,516.0 208.5,516.0 180.4,516.0 152.3,516.0 124.2,516.0 96.1,516.0 68.0,516.0" fill="#c7e9c0" fill-opacity="0.9" stroke="#fff" stroke-width="0.4"><title>reflection_layout — parseTranslationUnit</title></polygon>
<polygon points="68.0,394.9 96.1,388.1 124.2,383.2 152.3,383.6 180.4,376.7 208.5,372.3 236.6,358.9 264.8,377.6 292.9,377.7 321.0,381.2 349.1,382.2 377.2,384.1 405.3,387.0 433.4,386.3 461.5,385.6 489.6,382.9 517.7,390.6 545.8,393.5 573.9,393.1 602.1,393.5 630.2,434.3 658.3,425.7 686.4,420.1 714.5,419.4 742.6,416.2 770.7,418.5 798.8,418.8 826.9,418.2 855.0,417.2 883.1,415.9 911.2,416.7 939.4,418.2 967.5,418.7 995.6,416.5 1023.7,417.3 1051.8,417.4 1079.9,417.2 1108.0,416.6 1108.0,509.9 1079.9,509.7 1051.8,509.8 1023.7,509.8 995.6,509.8 967.5,509.9 939.4,509.8 911.2,510.0 883.1,509.8 855.0,509.7 826.9,509.9 798.8,509.9 770.7,509.9 742.6,509.7 714.5,509.9 686.4,510.0 658.3,510.3 630.2,510.2 602.1,510.1 573.9,510.1 545.8,510.2 517.7,510.1 489.6,510.2 461.5,510.4 433.4,510.4 405.3,510.5 377.2,510.5 349.1,510.4 321.0,510.6 292.9,510.4 264.8,510.5 236.6,510.2 208.5,510.4 180.4,510.2 152.3,510.6 124.2,510.7 96.1,510.7 68.0,510.5" fill="#41ab5d" fill-opacity="0.9" stroke="#fff" stroke-width="0.4"><title>reflection_layout — SemanticChecking</title></polygon>
<polygon points="68.0,377.4 96.1,370.6 124.2,365.3 152.3,365.2 180.4,357.7 208.5,351.7 236.6,337.5 264.8,358.3 292.9,358.9 321.0,363.1 349.1,364.2 377.2,366.1 405.3,368.9 433.4,368.0 461.5,367.5 489.6,364.7 517.7,364.3 545.8,366.1 573.9,366.3 602.1,364.1 630.2,418.6 658.3,409.6 686.4,402.8 714.5,402.5 742.6,398.7 770.7,401.7 798.8,402.0 826.9,400.7 855.0,399.9 883.1,398.6 911.2,398.9 939.4,400.8 967.5,401.2 995.6,398.8 1023.7,400.0 1051.8,399.9 1079.9,399.5 1108.0,399.2 1108.0,416.6 1079.9,417.2 1051.8,417.4 1023.7,417.3 995.6,416.5 967.5,418.7 939.4,418.2 911.2,416.7 883.1,415.9 855.0,417.2 826.9,418.2 798.8,418.8 770.7,418.5 742.6,416.2 714.5,419.4 686.4,420.1 658.3,425.7 630.2,434.3 602.1,393.5 573.9,393.1 545.8,393.5 517.7,390.6 489.6,382.9 461.5,385.6 433.4,386.3 405.3,387.0 377.2,384.1 349.1,382.2 321.0,381.2 292.9,377.7 264.8,377.6 236.6,358.9 208.5,372.3 180.4,376.7 152.3,383.6 124.2,383.2 96.1,388.1 68.0,394.9" fill="#006d2c" fill-opacity="0.9" stroke="#fff" stroke-width="0.4"><title>reflection_layout — generateIR</title></polygon>
<polygon points="68.0,368.1 96.1,361.7 124.2,355.7 152.3,355.2 180.4,347.5 208.5,343.0 236.6,324.4 264.8,348.5 292.9,348.8 321.0,353.8 349.1,354.5 377.2,357.0 405.3,359.4 433.4,358.2 461.5,357.8 489.6,354.7 517.7,353.2 545.8,356.3 573.9,356.0 602.1,355.4 630.2,408.3 658.3,399.9 686.4,392.6 714.5,391.9 742.6,386.8 770.7,391.7 798.8,391.6 826.9,390.7 855.0,390.1 883.1,388.7 911.2,387.3 939.4,389.9 967.5,389.6 995.6,389.4 1023.7,389.5 1051.8,389.2 1079.9,389.4 1108.0,388.9 1108.0,399.2 1079.9,399.5 1051.8,399.9 1023.7,400.0 995.6,398.8 967.5,401.2 939.4,400.8 911.2,398.9 883.1,398.6 855.0,399.9 826.9,400.7 798.8,402.0 770.7,401.7 742.6,398.7 714.5,402.5 686.4,402.8 658.3,409.6 630.2,418.6 602.1,364.1 573.9,366.3 545.8,366.1 517.7,364.3 489.6,364.7 461.5,367.5 433.4,368.0 405.3,368.9 377.2,366.1 349.1,364.2 321.0,363.1 292.9,358.9 264.8,358.3 236.6,337.5 208.5,351.7 180.4,357.7 152.3,365.2 124.2,365.3 96.1,370.6 68.0,377.4" fill="#74c476" fill-opacity="0.9" stroke="#fff" stroke-width="0.4"><title>reflection_layout — frontEndExecute (self)</title></polygon>
<polygon points="68.0,365.6 96.1,359.2 124.2,353.1 152.3,352.7 180.4,344.9 208.5,340.2 236.6,321.5 264.8,345.8 292.9,346.1 321.0,351.2 349.1,351.5 377.2,354.0 405.3,356.5 433.4,355.3 461.5,354.9 489.6,351.8 517.7,338.5 545.8,341.7 573.9,341.0 602.1,340.5 630.2,395.2 658.3,386.7 686.4,377.7 714.5,376.8 742.6,371.4 770.7,376.8 798.8,376.7 826.9,375.5 855.0,374.6 883.1,381.8 911.2,380.4 939.4,382.9 967.5,382.7 995.6,382.5 1023.7,382.5 1051.8,382.1 1079.9,382.5 1108.0,382.0 1108.0,388.9 1079.9,389.4 1051.8,389.2 1023.7,389.5 995.6,389.4 967.5,389.6 939.4,389.9 911.2,387.3 883.1,388.7 855.0,390.1 826.9,390.7 798.8,391.6 770.7,391.7 742.6,386.8 714.5,391.9 686.4,392.6 658.3,399.9 630.2,408.3 602.1,355.4 573.9,356.0 545.8,356.3 517.7,353.2 489.6,354.7 461.5,357.8 433.4,358.2 405.3,359.4 377.2,357.0 349.1,354.5 321.0,353.8 292.9,348.8 264.8,348.5 236.6,324.4 208.5,343.0 180.4,347.5 152.3,355.2 124.2,355.7 96.1,361.7 68.0,368.1" fill="#6baed6" fill-opacity="0.9" stroke="#fff" stroke-width="0.4"><title>reflection_layout — specializeModule</title></polygon>
<polygon points="68.0,323.2 96.1,317.2 124.2,309.8 152.3,307.5 180.4,298.7 208.5,293.4 236.6,273.5 264.8,297.6 292.9,300.0 321.0,306.1 349.1,308.8 377.2,327.8 405.3,329.7 433.4,328.1 461.5,328.1 489.6,324.8 517.7,306.2 545.8,309.7 573.9,308.6 602.1,308.7 630.2,369.6 658.3,361.2 686.4,349.3 714.5,348.4 742.6,343.7 770.7,349.4 798.8,349.7 826.9,348.3 855.0,347.7 883.1,359.3 911.2,358.4 939.4,360.6 967.5,360.0 995.6,360.0 1023.7,360.1 1051.8,359.8 1079.9,360.0 1108.0,359.5 1108.0,382.0 1079.9,382.5 1051.8,382.1 1023.7,382.5 995.6,382.5 967.5,382.7 939.4,382.9 911.2,380.4 883.1,381.8 855.0,374.6 826.9,375.5 798.8,376.7 770.7,376.8 742.6,371.4 714.5,376.8 686.4,377.7 658.3,386.7 630.2,395.2 602.1,340.5 573.9,341.0 545.8,341.7 517.7,338.5 489.6,351.8 461.5,354.9 433.4,355.3 405.3,356.5 377.2,354.0 349.1,351.5 321.0,351.2 292.9,346.1 264.8,345.8 236.6,321.5 208.5,340.2 180.4,344.9 152.3,352.7 124.2,353.1 96.1,359.2 68.0,365.6" fill="#2171b5" fill-opacity="0.9" stroke="#fff" stroke-width="0.4"><title>reflection_layout — simplifyIR</title></polygon>
<polygon points="68.0,317.8 96.1,312.5 124.2,304.3 152.3,301.8 180.4,292.3 208.5,286.7 236.6,265.8 264.8,291.7 292.9,294.1 321.0,300.4 349.1,303.7 377.2,322.8 405.3,324.7 433.4,323.1 461.5,323.0 489.6,319.6 517.7,288.4 545.8,291.4 573.9,290.0 602.1,290.7 630.2,364.8 658.3,356.5 686.4,344.4 714.5,343.4 742.6,338.8 770.7,344.5 798.8,344.9 826.9,343.3 855.0,342.7 883.1,355.0 911.2,354.0 939.4,356.1 967.5,355.5 995.6,355.4 1023.7,355.7 1051.8,355.3 1079.9,355.5 1108.0,355.1 1108.0,359.5 1079.9,360.0 1051.8,359.8 1023.7,360.1 995.6,360.0 967.5,360.0 939.4,360.6 911.2,358.4 883.1,359.3 855.0,347.7 826.9,348.3 798.8,349.7 770.7,349.4 742.6,343.7 714.5,348.4 686.4,349.3 658.3,361.2 630.2,369.6 602.1,308.7 573.9,308.6 545.8,309.7 517.7,306.2 489.6,324.8 461.5,328.1 433.4,328.1 405.3,329.7 377.2,327.8 349.1,308.8 321.0,306.1 292.9,300.0 264.8,297.6 236.6,273.5 208.5,293.4 180.4,298.7 152.3,307.5 124.2,309.8 96.1,317.2 68.0,323.2" fill="#08306b" fill-opacity="0.9" stroke="#fff" stroke-width="0.4"><title>reflection_layout — linkIR</title></polygon>
<polygon points="68.0,317.8 96.1,312.4 124.2,304.3 152.3,301.7 180.4,292.2 208.5,286.6 236.6,265.7 264.8,291.6 292.9,294.0 321.0,300.3 349.1,303.6 377.2,322.7 405.3,324.6 433.4,323.0 461.5,323.0 489.6,319.6 517.7,288.4 545.8,291.4 573.9,289.9 602.1,290.6 630.2,364.8 658.3,356.5 686.4,344.4 714.5,343.3 742.6,338.7 770.7,344.4 798.8,344.9 826.9,343.2 855.0,342.6 883.1,354.9 911.2,354.0 939.4,356.0 967.5,355.5 995.6,355.4 1023.7,355.6 1051.8,355.2 1079.9,355.4 1108.0,355.0 1108.0,355.1 1079.9,355.5 1051.8,355.3 1023.7,355.7 995.6,355.4 967.5,355.5 939.4,356.1 911.2,354.0 883.1,355.0 855.0,342.7 826.9,343.3 798.8,344.9 770.7,344.5 742.6,338.8 714.5,343.4 686.4,344.4 658.3,356.5 630.2,364.8 602.1,290.7 573.9,290.0 545.8,291.4 517.7,288.4 489.6,319.6 461.5,323.0 433.4,323.1 405.3,324.7 377.2,322.8 349.1,303.7 321.0,300.4 292.9,294.1 264.8,291.7 236.6,265.8 208.5,286.7 180.4,292.3 152.3,301.8 124.2,304.3 96.1,312.5 68.0,317.8" fill="#9e9ac8" fill-opacity="0.9" stroke="#fff" stroke-width="0.4"><title>reflection_layout — unrollLoopsInModule</title></polygon>
<polygon points="68.0,301.8 96.1,296.7 124.2,288.2 152.3,286.0 180.4,276.6 208.5,271.5 236.6,249.7 264.8,276.5 292.9,279.2 321.0,285.8 349.1,289.2 377.2,308.5 405.3,310.4 433.4,308.4 461.5,308.8 489.6,305.3 517.7,273.7 545.8,277.0 573.9,275.4 602.1,276.3 630.2,352.5 658.3,344.2 686.4,331.7 714.5,330.8 742.6,326.1 770.7,331.9 798.8,332.5 826.9,330.7 855.0,330.2 883.1,342.6 911.2,341.7 939.4,343.7 967.5,342.9 995.6,342.9 1023.7,343.4 1051.8,352.5 1079.9,352.7 1108.0,352.3 1108.0,355.0 1079.9,355.4 1051.8,355.2 1023.7,355.6 995.6,355.4 967.5,355.5 939.4,356.0 911.2,354.0 883.1,354.9 855.0,342.6 826.9,343.2 798.8,344.9 770.7,344.4 742.6,338.7 714.5,343.3 686.4,344.4 658.3,356.5 630.2,364.8 602.1,290.6 573.9,289.9 545.8,291.4 517.7,288.4 489.6,319.6 461.5,323.0 433.4,323.0 405.3,324.6 377.2,322.7 349.1,303.6 321.0,300.3 292.9,294.0 264.8,291.6 236.6,265.7 208.5,286.6 180.4,292.2 152.3,301.7 124.2,304.3 96.1,312.4 68.0,317.8" fill="#807dba" fill-opacity="0.9" stroke="#fff" stroke-width="0.4"><title>reflection_layout — legalizeResourceTypes</title></polygon>
<polygon points="68.0,283.7 96.1,278.7 124.2,269.8 152.3,268.0 180.4,263.7 208.5,258.3 236.6,235.1 264.8,263.4 292.9,266.1 321.0,272.9 349.1,276.3 377.2,295.9 405.3,297.9 433.4,295.6 461.5,296.2 489.6,292.7 517.7,261.7 545.8,264.9 573.9,263.1 602.1,264.3 630.2,340.7 658.3,332.2 686.4,319.5 714.5,318.8 742.6,313.9 770.7,319.6 798.8,320.7 826.9,318.7 855.0,318.1 883.1,330.1 911.2,329.2 939.4,331.2 967.5,330.0 995.6,330.2 1023.7,330.9 1051.8,341.0 1079.9,341.3 1108.0,340.7 1108.0,352.3 1079.9,352.7 1051.8,352.5 1023.7,343.4 995.6,342.9 967.5,342.9 939.4,343.7 911.2,341.7 883.1,342.6 855.0,330.2 826.9,330.7 798.8,332.5 770.7,331.9 742.6,326.1 714.5,330.8 686.4,331.7 658.3,344.2 630.2,352.5 602.1,276.3 573.9,275.4 545.8,277.0 517.7,273.7 489.6,305.3 461.5,308.8 433.4,308.4 405.3,310.4 377.2,308.5 349.1,289.2 321.0,285.8 292.9,279.2 264.8,276.5 236.6,249.7 208.5,271.5 180.4,276.6 152.3,286.0 124.2,288.2 96.1,296.7 68.0,301.8" fill="#6a51a3" fill-opacity="0.9" stroke="#fff" stroke-width="0.4"><title>reflection_layout — legalizeExistentialTypeLayout</title></polygon>
<polygon points="68.0,282.7 96.1,277.7 124.2,268.8 152.3,266.9 180.4,262.6 208.5,257.2 236.6,233.9 264.8,262.3 292.9,265.0 321.0,271.9 349.1,275.3 377.2,294.9 405.3,296.9 433.4,294.6 461.5,295.2 489.6,291.7 517.7,260.8 545.8,264.0 573.9,262.1 602.1,263.3 630.2,339.7 658.3,331.2 686.4,318.5 714.5,317.7 742.6,312.9 770.7,318.6 798.8,319.7 826.9,317.6 855.0,317.1 883.1,329.0 911.2,328.1 939.4,330.2 967.5,329.0 995.6,329.2 1023.7,329.9 1051.8,340.0 1079.9,340.3 1108.0,339.6 1108.0,340.7 1079.9,341.3 1051.8,341.0 1023.7,330.9 995.6,330.2 967.5,330.0 939.4,331.2 911.2,329.2 883.1,330.1 855.0,318.1 826.9,318.7 798.8,320.7 770.7,319.6 742.6,313.9 714.5,318.8 686.4,319.5 658.3,332.2 630.2,340.7 602.1,264.3 573.9,263.1 545.8,264.9 517.7,261.7 489.6,292.7 461.5,296.2 433.4,295.6 405.3,297.9 377.2,295.9 349.1,276.3 321.0,272.9 292.9,266.1 264.8,263.4 236.6,235.1 208.5,258.3 180.4,263.7 152.3,268.0 124.2,269.8 96.1,278.7 68.0,283.7" fill="#bcbddc" fill-opacity="0.9" stroke="#fff" stroke-width="0.4"><title>reflection_layout — performMandatoryEarlyInlining</title></polygon>
<polygon points="68.0,271.6 96.1,267.1 124.2,257.7 152.3,251.8 180.4,247.6 208.5,242.0 236.6,217.3 264.8,245.8 292.9,250.8 321.0,258.0 349.1,261.1 377.2,288.7 405.3,290.9 433.4,288.1 461.5,289.1 489.6,285.4 517.7,254.5 545.8,258.1 573.9,256.2 602.1,257.3 630.2,334.0 658.3,325.3 686.4,312.3 714.5,311.6 742.6,306.7 770.7,312.5 798.8,313.6 826.9,311.2 855.0,310.8 883.1,323.0 911.2,321.9 939.4,324.1 967.5,322.8 995.6,322.7 1023.7,323.7 1051.8,333.8 1079.9,334.1 1108.0,333.1 1108.0,339.6 1079.9,340.3 1051.8,340.0 1023.7,329.9 995.6,329.2 967.5,329.0 939.4,330.2 911.2,328.1 883.1,329.0 855.0,317.1 826.9,317.6 798.8,319.7 770.7,318.6 742.6,312.9 714.5,317.7 686.4,318.5 658.3,331.2 630.2,339.7 602.1,263.3 573.9,262.1 545.8,264.0 517.7,260.8 489.6,291.7 461.5,295.2 433.4,294.6 405.3,296.9 377.2,294.9 349.1,275.3 321.0,271.9 292.9,265.0 264.8,262.3 236.6,233.9 208.5,257.2 180.4,262.6 152.3,266.9 124.2,268.8 96.1,277.7 68.0,282.7" fill="#dadaeb" fill-opacity="0.9" stroke="#fff" stroke-width="0.4"><title>reflection_layout — performForceInlining</title></polygon>
<polygon points="68.0,231.1 96.1,227.2 124.2,216.4 152.3,209.8 180.4,203.1 208.5,199.7 236.6,170.0 264.8,198.0 292.9,206.7 321.0,214.2 349.1,222.1 377.2,258.1 405.3,261.6 433.4,257.9 461.5,257.0 489.6,253.8 517.7,197.2 545.8,202.2 573.9,200.5 602.1,201.4 630.2,288.9 658.3,278.9 686.4,263.0 714.5,261.7 742.6,255.8 770.7,264.5 798.8,263.5 826.9,260.1 855.0,259.1 883.1,272.9 911.2,273.4 939.4,272.7 967.5,273.3 995.6,273.4 1023.7,275.2 1051.8,297.2 1079.9,297.5 1108.0,297.3 1108.0,333.1 1079.9,334.1 1051.8,333.8 1023.7,323.7 995.6,322.7 967.5,322.8 939.4,324.1 911.2,321.9 883.1,323.0 855.0,310.8 826.9,311.2 798.8,313.6 770.7,312.5 742.6,306.7 714.5,311.6 686.4,312.3 658.3,325.3 630.2,334.0 602.1,257.3 573.9,256.2 545.8,258.1 517.7,254.5 489.6,285.4 461.5,289.1 433.4,288.1 405.3,290.9 377.2,288.7 349.1,261.1 321.0,258.0 292.9,250.8 264.8,245.8 236.6,217.3 208.5,242.0 180.4,247.6 152.3,251.8 124.2,257.7 96.1,267.1 68.0,271.6" fill="#4a1486" fill-opacity="0.9" stroke="#fff" stroke-width="0.4"><title>reflection_layout — linkAndOptimizeIR (self)</title></polygon>
<polygon points="68.0,179.4 96.1,177.1 124.2,163.3 152.3,161.5 180.4,158.3 208.5,154.0 236.6,118.5 264.8,154.6 292.9,159.8 321.0,170.5 349.1,180.1 377.2,217.3 405.3,220.0 433.4,216.6 461.5,215.8 489.6,211.4 517.7,155.5 545.8,159.3 573.9,158.0 602.1,159.8 630.2,247.5 658.3,238.1 686.4,219.7 714.5,219.0 742.6,213.1 770.7,222.4 798.8,221.6 826.9,217.7 855.0,216.8 883.1,229.4 911.2,230.8 939.4,230.4 967.5,230.0 995.6,231.2 1023.7,232.6 1051.8,267.9 1079.9,267.5 1108.0,267.3 1108.0,297.3 1079.9,297.5 1051.8,297.2 1023.7,275.2 995.6,273.4 967.5,273.3 939.4,272.7 911.2,273.4 883.1,272.9 855.0,259.1 826.9,260.1 798.8,263.5 770.7,264.5 742.6,255.8 714.5,261.7 686.4,263.0 658.3,278.9 630.2,288.9 602.1,201.4 573.9,200.5 545.8,202.2 517.7,197.2 489.6,253.8 461.5,257.0 433.4,257.9 405.3,261.6 377.2,258.1 349.1,222.1 321.0,214.2 292.9,206.7 264.8,198.0 236.6,170.0 208.5,199.7 180.4,203.1 152.3,209.8 124.2,216.4 96.1,227.2 68.0,231.1" fill="#e6550d" fill-opacity="0.9" stroke="#fff" stroke-width="0.4"><title>reflection_layout — generateOutput (self)</title></polygon>
<polygon points="68.0,169.9 96.1,169.1 124.2,153.7 152.3,147.8 180.4,135.6 208.5,140.1 236.6,108.6 264.8,145.4 292.9,142.5 321.0,161.1 349.1,170.9 377.2,200.5 405.3,210.4 433.4,205.1 461.5,204.3 489.6,200.9 517.7,145.2 545.8,150.9 573.9,150.9 602.1,145.6 630.2,238.3 658.3,228.7 686.4,209.7 714.5,208.4 742.6,201.6 770.7,212.0 798.8,211.1 826.9,206.9 855.0,206.3 883.1,219.6 911.2,221.0 939.4,219.0 967.5,220.3 995.6,220.6 1023.7,223.2 1051.8,257.4 1079.9,257.1 1108.0,257.5 1108.0,267.3 1079.9,267.5 1051.8,267.9 1023.7,232.6 995.6,231.2 967.5,230.0 939.4,230.4 911.2,230.8 883.1,229.4 855.0,216.8 826.9,217.7 798.8,221.6 770.7,222.4 742.6,213.1 714.5,219.0 686.4,219.7 658.3,238.1 630.2,247.5 602.1,159.8 573.9,158.0 545.8,159.3 517.7,155.5 489.6,211.4 461.5,215.8 433.4,216.6 405.3,220.0 377.2,217.3 349.1,180.1 321.0,170.5 292.9,159.8 264.8,154.6 236.6,118.5 208.5,154.0 180.4,158.3 152.3,161.5 124.2,163.3 96.1,177.1 68.0,179.4" fill="#969696" fill-opacity="0.9" stroke="#fff" stroke-width="0.4"><title>reflection_layout — compileInner (self)</title></polygon>
<text x="12" y="578" fill="#666" font-weight="600">phase buckets</text>
<rect x="12" y="586" width="12" height="12" fill="#c7e9c0"/>
<text x="28" y="596" fill="#222">parseTranslationUnit</text>
<rect x="289" y="586" width="12" height="12" fill="#41ab5d"/>
<text x="305" y="596" fill="#222">SemanticChecking</text>
<rect x="566" y="586" width="12" height="12" fill="#006d2c"/>
<text x="582" y="596" fill="#222">generateIR</text>
<rect x="843" y="586" width="12" height="12" fill="#74c476"/>
<text x="859" y="596" fill="#222">frontEndExecute (self)</text>
<rect x="12" y="604" width="12" height="12" fill="#6baed6"/>
<text x="28" y="614" fill="#222">specializeModule</text>
<rect x="289" y="604" width="12" height="12" fill="#2171b5"/>
<text x="305" y="614" fill="#222">simplifyIR</text>
<rect x="566" y="604" width="12" height="12" fill="#08306b"/>
<text x="582" y="614" fill="#222">linkIR</text>
<rect x="843" y="604" width="12" height="12" fill="#9e9ac8"/>
<text x="859" y="614" fill="#222">unrollLoopsInModule</text>
<rect x="12" y="622" width="12" height="12" fill="#807dba"/>
<text x="28" y="632" fill="#222">legalizeResourceTypes</text>
<rect x="289" y="622" width="12" height="12" fill="#6a51a3"/>
<text x="305" y="632" fill="#222">legalizeExistentialTypeLayout</text>
<rect x="566" y="622" width="12" height="12" fill="#bcbddc"/>
<text x="582" y="632" fill="#222">performMandatoryEarlyInlining</text>
<rect x="843" y="622" width="12" height="12" fill="#dadaeb"/>
<text x="859" y="632" fill="#222">performForceInlining</text>
<rect x="12" y="640" width="12" height="12" fill="#4a1486"/>
<text x="28" y="650" fill="#222">linkAndOptimizeIR (self)</text>
<rect x="289" y="640" width="12" height="12" fill="#fd8d3c"/>
<text x="305" y="650" fill="#222">emitEntryPointsSourceFromIR</text>
<rect x="566" y="640" width="12" height="12" fill="#e6550d"/>
<text x="582" y="650" fill="#222">generateOutput (self)</text>
<rect x="843" y="640" width="12" height="12" fill="#969696"/>
<text x="859" y="650" fill="#222">compileInner (self)</text>
</svg>