<svg xmlns="http://www.w3.org/2000/svg" xmlns:xlink="http://www.w3.org/1999/xlink" width="1132" height="680" viewBox="0 0 1132 680" preserveAspectRatio="xMidYMid meet" font-family="sans-serif" font-size="13">
<rect width="1132" height="680" fill="white"/>
<text x="12" y="30" font-size="20" font-weight="bold">reflection_layout — full phase breakdown across releases (median ms)</text>
<text x="68" y="60" font-size="15" font-weight="600" fill="#1a1a1a">reflection_layout<tspan fill="#888" font-weight="400" text-decoration="none">  0.88×</tspan></text>
<line x1="68.0" y1="516.0" x2="1108.0" y2="516.0" stroke="#eee"/>
<text x="64.0" y="519.0" text-anchor="end" fill="#999">0.0</text>
<line x1="68.0" y1="296.0" x2="1108.0" y2="296.0" stroke="#eee"/>
<text x="64.0" y="299.0" text-anchor="end" fill="#999">152</text>
<line x1="68.0" y1="76.0" x2="1108.0" y2="76.0" stroke="#eee"/>
<text x="64.0" y="79.0" text-anchor="end" fill="#999">304</text>
<line x1="68.0" y1="76.0" x2="68.0" y2="516.0" stroke="#333"/>
<line x1="68.0" y1="516.0" x2="1108.0" y2="516.0" stroke="#333"/>
<line x1="1037.1" y1="76.0" x2="1037.1" y2="516.0" stroke="#e8731a" stroke-width="1.2" stroke-dasharray="4 3"/>
<text x="1040.1" y="87.0" fill="#e8731a" font-size="11">daily →</text>
<line x1="68.0" y1="516.0" x2="68.0" y2="519.0" stroke="#999"/>
<text x="68.0" y="531.0" text-anchor="end" fill="#666" transform="rotate(-50 68.0 531.0)">25.14</text>
<line x1="115.3" y1="516.0" x2="115.3" y2="519.0" stroke="#999"/>
<text x="115.3" y="531.0" text-anchor="end" fill="#666" transform="rotate(-50 115.3 531.0)">25.15</text>
<line x1="162.5" y1="516.0" x2="162.5" y2="519.0" stroke="#999"/>
<text x="162.5" y="531.0" text-anchor="end" fill="#666" transform="rotate(-50 162.5 531.0)">25.16</text>
<line x1="209.8" y1="516.0" x2="209.8" y2="519.0" stroke="#999"/>
<text x="209.8" y="531.0" text-anchor="end" fill="#666" transform="rotate(-50 209.8 531.0)">25.17</text>
<line x1="257.1" y1="516.0" x2="257.1" y2="519.0" stroke="#999"/>
<text x="257.1" y="531.0" text-anchor="end" fill="#666" transform="rotate(-50 257.1 531.0)">25.18</text>
<line x1="304.4" y1="516.0" x2="304.4" y2="519.0" stroke="#999"/>
<text x="304.4" y="531.0" text-anchor="end" fill="#666" transform="rotate(-50 304.4 531.0)">25.19</text>
<line x1="351.6" y1="516.0" x2="351.6" y2="519.0" stroke="#999"/>
<text x="351.6" y="531.0" text-anchor="end" fill="#666" transform="rotate(-50 351.6 531.0)">25.20</text>
<line x1="398.9" y1="516.0" x2="398.9" y2="519.0" stroke="#999"/>
<text x="398.9" y="531.0" text-anchor="end" fill="#666" transform="rotate(-50 398.9 531.0)">25.21</text>
<line x1="446.2" y1="516.0" x2="446.2" y2="519.0" stroke="#999"/>
<text x="446.2" y="531.0" text-anchor="end" fill="#666" transform="rotate(-50 446.2 531.0)">25.22</text>
<line x1="493.5" y1="516.0" x2="493.5" y2="519.0" stroke="#999"/>
<text x="493.5" y="531.0" text-anchor="end" fill="#666" transform="rotate(-50 493.5 531.0)">25.23</text>
<line x1="540.7" y1="516.0" x2="540.7" y2="519.0" stroke="#999"/>
<text x="540.7" y="531.0" text-anchor="end" fill="#666" transform="rotate(-50 540.7 531.0)">25.24</text>
<line x1="588.0" y1="516.0" x2="588.0" y2="519.0" stroke="#999"/>
<text x="588.0" y="531.0" text-anchor="end" fill="#666" transform="rotate(-50 588.0 531.0)">26.1</text>
<line x1="635.3" y1="516.0" x2="635.3" y2="519.0" stroke="#999"/>
<text x="635.3" y="531.0" text-anchor="end" fill="#666" transform="rotate(-50 635.3 531.0)">26.2</text>
<line x1="682.5" y1="516.0" x2="682.5" y2="519.0" stroke="#999"/>
<text x="682.5" y="531.0" text-anchor="end" fill="#666" transform="rotate(-50 682.5 531.0)">26.3</text>
<line x1="729.8" y1="516.0" x2="729.8" y2="519.0" stroke="#999"/>
<text x="729.8" y="531.0" text-anchor="end" fill="#666" transform="rotate(-50 729.8 531.0)">26.4</text>
<line x1="777.1" y1="516.0" x2="777.1" y2="519.0" stroke="#999"/>
<text x="777.1" y="531.0" text-anchor="end" fill="#666" transform="rotate(-50 777.1 531.0)">26.5</text>
<line x1="824.4" y1="516.0" x2="824.4" y2="519.0" stroke="#999"/>
<text x="824.4" y="531.0" text-anchor="end" fill="#666" transform="rotate(-50 824.4 531.0)">26.7</text>
<line x1="871.6" y1="516.0" x2="871.6" y2="519.0" stroke="#999"/>
<text x="871.6" y="531.0" text-anchor="end" fill="#666" transform="rotate(-50 871.6 531.0)">26.8</text>
<line x1="918.9" y1="516.0" x2="918.9" y2="519.0" stroke="#999"/>
<text x="918.9" y="531.0" text-anchor="end" fill="#666" transform="rotate(-50 918.9 531.0)">26.9</text>
<line x1="966.2" y1="516.0" x2="966.2" y2="519.0" stroke="#999"/>
<text x="966.2" y="531.0" text-anchor="end" fill="#666" transform="rotate(-50 966.2 531.0)">26.10</text>
<line x1="1013.5" y1="516.0" x2="1013.5" y2="519.0" stroke="#999"/>
<text x="1013.5" y="531.0" text-anchor="end" fill="#666" transform="rotate(-50 1013.5 531.0)">26.11</text>
<line x1="1060.7" y1="516.0" x2="1060.7" y2="519.0" stroke="#999"/>
<text x="1060.7" y="531.0" text-anchor="end" fill="#e8731a" transform="rotate(-50 1060.7 531.0)">06-25</text>
<line x1="1108.0" y1="516.0" x2="1108.0" y2="519.0" stroke="#999"/>
<text x="1108.0" y="531.0" text-anchor="end" fill="#e8731a" transform="rotate(-50 1108.0 531.0)">06-26</text>
<polygon points="68.0,510.0 115.3,510.1 162.5,510.1 209.8,510.1 257.1,510.1 304.4,510.1 351.6,510.0 398.9,510.1 446.2,510.1 493.5,510.1 540.7,509.8 588.0,509.9 635.3,510.0 682.5,509.9 729.8,509.6 777.1,509.6 824.4,509.6 871.6,509.6 918.9,509.6 966.2,509.5 1013.5,509.7 1060.7,509.4 1108.0,509.3 1108.0,516.0 1060.7,516.0 1013.5,516.0 966.2,516.0 918.9,516.0 871.6,516.0 824.4,516.0 777.1,516.0 729.8,516.0 682.5,516.0 635.3,516.0 588.0,516.0 540.7,516.0 493.5,516.0 446.2,516.0 398.9,516.0 351.6,516.0 304.4,516.0 257.1,516.0 209.8,516.0 162.5,516.0 115.3,516.0 68.0,516.0" fill="#c7e9c0" fill-opacity="0.9" stroke="#fff" stroke-width="0.4"><title>reflection_layout — parseTranslationUnit</title></polygon>
<polygon points="68.0,379.4 115.3,371.3 162.5,370.6 209.8,370.1 257.1,372.0 304.4,370.0 351.6,367.9 398.9,370.7 446.2,369.5 493.5,368.0 540.7,367.2 588.0,365.9 635.3,370.0 682.5,370.2 729.8,363.6 777.1,365.6 824.4,379.7 871.6,379.3 918.9,379.7 966.2,380.3 1013.5,424.0 1060.7,409.3 1108.0,407.7 1108.0,509.3 1060.7,509.4 1013.5,509.7 966.2,509.5 918.9,509.6 871.6,509.6 824.4,509.6 777.1,509.6 729.8,509.6 682.5,509.9 635.3,510.0 588.0,509.9 540.7,509.8 493.5,510.1 446.2,510.1 398.9,510.1 351.6,510.0 304.4,510.1 257.1,510.1 209.8,510.1 162.5,510.1 115.3,510.1 68.0,510.0" fill="#41ab5d" fill-opacity="0.9" stroke="#fff" stroke-width="0.4"><title>reflection_layout — SemanticChecking</title></polygon>
<polygon points="68.0,360.2 115.3,351.8 162.5,351.5 209.8,350.2 257.1,352.1 304.4,350.4 351.6,348.0 398.9,350.9 446.2,349.6 493.5,348.3 540.7,347.4 588.0,345.7 635.3,349.9 682.5,349.9 729.8,342.8 777.1,344.7 824.4,351.2 871.6,350.8 918.9,351.6 966.2,351.8 1013.5,407.0 1060.7,390.9 1108.0,389.7 1108.0,407.7 1060.7,409.3 1013.5,424.0 966.2,380.3 918.9,379.7 871.6,379.3 824.4,379.7 777.1,365.6 729.8,363.6 682.5,370.2 635.3,370.0 588.0,365.9 540.7,367.2 493.5,368.0 446.2,369.5 398.9,370.7 351.6,367.9 304.4,370.0 257.1,372.0 209.8,370.1 162.5,370.6 115.3,371.3 68.0,379.4" fill="#006d2c" fill-opacity="0.9" stroke="#fff" stroke-width="0.4"><title>reflection_layout — generateIR</title></polygon>
<polygon points="68.0,350.1 115.3,341.9 162.5,341.2 209.8,340.3 257.1,342.0 304.4,339.7 351.6,338.1 398.9,340.5 446.2,338.6 493.5,338.1 540.7,336.6 588.0,335.8 635.3,339.5 682.5,339.9 729.8,331.9 777.1,333.3 824.4,339.6 871.6,339.6 918.9,341.0 966.2,340.9 1013.5,396.5 1060.7,380.2 1108.0,379.3 1108.0,389.7 1060.7,390.9 1013.5,407.0 966.2,351.8 918.9,351.6 871.6,350.8 824.4,351.2 777.1,344.7 729.8,342.8 682.5,349.9 635.3,349.9 588.0,345.7 540.7,347.4 493.5,348.3 446.2,349.6 398.9,350.9 351.6,348.0 304.4,350.4 257.1,352.1 209.8,350.2 162.5,351.5 115.3,351.8 68.0,360.2" fill="#74c476" fill-opacity="0.9" stroke="#fff" stroke-width="0.4"><title>reflection_layout — frontEndExecute (self)</title></polygon>
<polygon points="68.0,347.3 115.3,339.2 162.5,338.5 209.8,337.5 257.1,339.2 304.4,336.9 351.6,335.2 398.9,337.5 446.2,335.8 493.5,335.2 540.7,333.4 588.0,332.5 635.3,336.3 682.5,336.7 729.8,328.6 777.1,330.1 824.4,322.9 871.6,322.8 918.9,324.2 966.2,323.9 1013.5,381.4 1060.7,363.6 1108.0,362.6 1108.0,379.3 1060.7,380.2 1013.5,396.5 966.2,340.9 918.9,341.0 871.6,339.6 824.4,339.6 777.1,333.3 729.8,331.9 682.5,339.9 635.3,339.5 588.0,335.8 540.7,336.6 493.5,338.1 446.2,338.6 398.9,340.5 351.6,338.1 304.4,339.7 257.1,342.0 209.8,340.3 162.5,341.2 115.3,341.9 68.0,350.1" fill="#6baed6" fill-opacity="0.9" stroke="#fff" stroke-width="0.4"><title>reflection_layout — specializeModule</title></polygon>
<polygon points="68.0,300.1 115.3,291.6 162.5,290.8 209.8,289.8 257.1,290.5 304.4,287.9 351.6,286.1 398.9,288.7 446.2,286.7 493.5,286.2 540.7,286.2 588.0,302.9 635.3,306.7 682.5,306.8 729.8,297.6 777.1,299.3 824.4,287.0 871.6,286.8 918.9,288.6 966.2,288.0 1013.5,352.5 1060.7,332.7 1108.0,332.0 1108.0,362.6 1060.7,363.6 1013.5,381.4 966.2,323.9 918.9,324.2 871.6,322.8 824.4,322.9 777.1,330.1 729.8,328.6 682.5,336.7 635.3,336.3 588.0,332.5 540.7,333.4 493.5,335.2 446.2,335.8 398.9,337.5 351.6,335.2 304.4,336.9 257.1,339.2 209.8,337.5 162.5,338.5 115.3,339.2 68.0,347.3" fill="#2171b5" fill-opacity="0.9" stroke="#fff" stroke-width="0.4"><title>reflection_layout — simplifyIR</title></polygon>
<polygon points="68.0,294.2 115.3,286.3 162.5,285.8 209.8,284.4 257.1,285.1 304.4,282.6 351.6,280.7 398.9,283.3 446.2,281.2 493.5,280.7 540.7,280.7 588.0,297.3 635.3,301.3 682.5,301.3 729.8,291.3 777.1,293.3 824.4,266.4 871.6,268.2 918.9,270.5 966.2,269.7 1013.5,347.4 1060.7,327.4 1108.0,326.6 1108.0,332.0 1060.7,332.7 1013.5,352.5 966.2,288.0 918.9,288.6 871.6,286.8 824.4,287.0 777.1,299.3 729.8,297.6 682.5,306.8 635.3,306.7 588.0,302.9 540.7,286.2 493.5,286.2 446.2,286.7 398.9,288.7 351.6,286.1 304.4,287.9 257.1,290.5 209.8,289.8 162.5,290.8 115.3,291.6 68.0,300.1" fill="#08306b" fill-opacity="0.9" stroke="#fff" stroke-width="0.4"><title>reflection_layout — linkIR</title></polygon>
<polygon points="68.0,294.2 115.3,286.3 162.5,285.7 209.8,284.3 257.1,285.1 304.4,282.5 351.6,280.7 398.9,283.2 446.2,281.2 493.5,280.7 540.7,280.7 588.0,297.3 635.3,301.2 682.5,301.2 729.8,291.2 777.1,293.3 824.4,266.4 871.6,268.1 918.9,270.5 966.2,269.7 1013.5,347.3 1060.7,327.3 1108.0,326.6 1108.0,326.6 1060.7,327.4 1013.5,347.4 966.2,269.7 918.9,270.5 871.6,268.2 824.4,266.4 777.1,293.3 729.8,291.3 682.5,301.3 635.3,301.3 588.0,297.3 540.7,280.7 493.5,280.7 446.2,281.2 398.9,283.3 351.6,280.7 304.4,282.6 257.1,285.1 209.8,284.4 162.5,285.8 115.3,286.3 68.0,294.2" fill="#9e9ac8" fill-opacity="0.9" stroke="#fff" stroke-width="0.4"><title>reflection_layout — unrollLoopsInModule</title></polygon>
<polygon points="68.0,276.3 115.3,269.1 162.5,268.2 209.8,267.2 257.1,269.8 304.4,266.7 351.6,264.8 398.9,267.4 446.2,265.4 493.5,264.8 540.7,264.9 588.0,281.7 635.3,285.5 682.5,285.6 729.8,275.0 777.1,277.3 824.4,250.5 871.6,252.1 918.9,254.7 966.2,253.8 1013.5,333.9 1060.7,313.9 1108.0,313.0 1108.0,326.6 1060.7,327.3 1013.5,347.3 966.2,269.7 918.9,270.5 871.6,268.1 824.4,266.4 777.1,293.3 729.8,291.2 682.5,301.2 635.3,301.2 588.0,297.3 540.7,280.7 493.5,280.7 446.2,281.2 398.9,283.2 351.6,280.7 304.4,282.5 257.1,285.1 209.8,284.3 162.5,285.7 115.3,286.3 68.0,294.2" fill="#807dba" fill-opacity="0.9" stroke="#fff" stroke-width="0.4"><title>reflection_layout — legalizeResourceTypes</title></polygon>
<polygon points="68.0,256.0 115.3,249.4 162.5,248.3 209.8,247.7 257.1,256.3 304.4,252.7 351.6,250.9 398.9,253.7 446.2,251.5 493.5,250.9 540.7,251.0 588.0,267.9 635.3,271.8 682.5,271.8 729.8,260.8 777.1,263.3 824.4,237.4 871.6,238.7 918.9,241.6 966.2,240.6 1013.5,321.0 1060.7,300.9 1108.0,299.7 1108.0,313.0 1060.7,313.9 1013.5,333.9 966.2,253.8 918.9,254.7 871.6,252.1 824.4,250.5 777.1,277.3 729.8,275.0 682.5,285.6 635.3,285.5 588.0,281.7 540.7,264.9 493.5,264.8 446.2,265.4 398.9,267.4 351.6,264.8 304.4,266.7 257.1,269.8 209.8,267.2 162.5,268.2 115.3,269.1 68.0,276.3" fill="#6a51a3" fill-opacity="0.9" stroke="#fff" stroke-width="0.4"><title>reflection_layout — legalizeExistentialTypeLayout</title></polygon>
<polygon points="68.0,255.0 115.3,248.3 162.5,247.3 209.8,246.6 257.1,255.2 304.4,251.6 351.6,249.8 398.9,252.6 446.2,250.4 493.5,249.8 540.7,249.9 588.0,266.8 635.3,270.8 682.5,270.7 729.8,259.7 777.1,262.1 824.4,236.3 871.6,237.6 918.9,240.5 966.2,239.5 1013.5,319.9 1060.7,299.7 1108.0,298.6 1108.0,299.7 1060.7,300.9 1013.5,321.0 966.2,240.6 918.9,241.6 871.6,238.7 824.4,237.4 777.1,263.3 729.8,260.8 682.5,271.8 635.3,271.8 588.0,267.9 540.7,251.0 493.5,250.9 446.2,251.5 398.9,253.7 351.6,250.9 304.4,252.7 257.1,256.3 209.8,247.7 162.5,248.3 115.3,249.4 68.0,256.0" fill="#bcbddc" fill-opacity="0.9" stroke="#fff" stroke-width="0.4"><title>reflection_layout — performMandatoryEarlyInlining</title></polygon>
<polygon points="68.0,243.0 115.3,236.2 162.5,235.2 209.8,231.2 257.1,239.7 304.4,236.0 351.6,234.4 398.9,236.6 446.2,234.5 493.5,234.0 540.7,234.3 588.0,259.7 635.3,263.4 682.5,263.6 729.8,252.4 777.1,254.8 824.4,229.2 871.6,230.8 918.9,233.6 966.2,232.5 1013.5,313.1 1060.7,293.0 1108.0,291.9 1108.0,298.6 1060.7,299.7 1013.5,319.9 966.2,239.5 918.9,240.5 871.6,237.6 824.4,236.3 777.1,262.1 729.8,259.7 682.5,270.7 635.3,270.8 588.0,266.8 540.7,249.9 493.5,249.8 446.2,250.4 398.9,252.6 351.6,249.8 304.4,251.6 257.1,255.2 209.8,246.6 162.5,247.3 115.3,248.3 68.0,255.0" fill="#dadaeb" fill-opacity="0.9" stroke="#fff" stroke-width="0.4"><title>reflection_layout — performForceInlining</title></polygon>
<polygon points="68.0,198.2 115.3,192.3 162.5,190.8 209.8,186.3 257.1,194.4 304.4,191.0 351.6,185.7 398.9,190.4 446.2,188.4 493.5,186.9 540.7,192.0 588.0,226.0 635.3,231.2 682.5,230.9 729.8,215.2 777.1,219.1 824.4,165.7 871.6,167.4 918.9,172.0 966.2,169.4 1013.5,262.1 1060.7,238.7 1108.0,235.9 1108.0,291.9 1060.7,293.0 1013.5,313.1 966.2,232.5 918.9,233.6 871.6,230.8 824.4,229.2 777.1,254.8 729.8,252.4 682.5,263.6 635.3,263.4 588.0,259.7 540.7,234.3 493.5,234.0 446.2,234.5 398.9,236.6 351.6,234.4 304.4,236.0 257.1,239.7 209.8,231.2 162.5,235.2 115.3,236.2 68.0,243.0" fill="#4a1486" fill-opacity="0.9" stroke="#fff" stroke-width="0.4"><title>reflection_layout — linkAndOptimizeIR (self)</title></polygon>
<polygon points="68.0,141.9 115.3,136.2 162.5,134.5 209.8,135.3 257.1,147.1 304.4,144.0 351.6,139.4 398.9,145.0 446.2,142.1 493.5,141.2 540.7,146.3 588.0,180.5 635.3,185.0 682.5,185.4 729.8,168.3 777.1,172.8 824.4,120.2 871.6,120.4 918.9,126.1 966.2,122.6 1013.5,217.3 1060.7,192.3 1108.0,189.1 1108.0,235.9 1060.7,238.7 1013.5,262.1 966.2,169.4 918.9,172.0 871.6,167.4 824.4,165.7 777.1,219.1 729.8,215.2 682.5,230.9 635.3,231.2 588.0,226.0 540.7,192.0 493.5,186.9 446.2,188.4 398.9,190.4 351.6,185.7 304.4,191.0 257.1,194.4 209.8,186.3 162.5,190.8 115.3,192.3 68.0,198.2" fill="#e6550d" fill-opacity="0.9" stroke="#fff" stroke-width="0.4"><title>reflection_layout — generateOutput (self)</title></polygon>
<polygon points="68.0,131.8 115.3,126.5 162.5,124.9 209.8,124.5 257.1,137.5 304.4,134.5 351.6,127.0 398.9,135.2 446.2,132.4 493.5,131.2 540.7,134.9 588.0,170.8 635.3,175.1 682.5,174.6 729.8,157.3 777.1,161.9 824.4,108.6 871.6,109.6 918.9,114.2 966.2,110.0 1013.5,206.9 1060.7,180.5 1108.0,178.7 1108.0,189.1 1060.7,192.3 1013.5,217.3 966.2,122.6 918.9,126.1 871.6,120.4 824.4,120.2 777.1,172.8 729.8,168.3 682.5,185.4 635.3,185.0 588.0,180.5 540.7,146.3 493.5,141.2 446.2,142.1 398.9,145.0 351.6,139.4 304.4,144.0 257.1,147.1 209.8,135.3 162.5,134.5 115.3,136.2 68.0,141.9" fill="#969696" fill-opacity="0.9" stroke="#fff" stroke-width="0.4"><title>reflection_layout — compileInner (self)</title></polygon>
<text x="12" y="578" fill="#666" font-weight="600">phase buckets</text>
<rect x="12" y="586" width="12" height="12" fill="#c7e9c0"/>
<text x="28" y="596" fill="#222">parseTranslationUnit</text>
<rect x="289" y="586" width="12" height="12" fill="#41ab5d"/>
<text x="305" y="596" fill="#222">SemanticChecking</text>
<rect x="566" y="586" width="12" height="12" fill="#006d2c"/>
<text x="582" y="596" fill="#222">generateIR</text>
<rect x="843" y="586" width="12" height="12" fill="#74c476"/>
<text x="859" y="596" fill="#222">frontEndExecute (self)</text>
<rect x="12" y="604" width="12" height="12" fill="#6baed6"/>
<text x="28" y="614" fill="#222">specializeModule</text>
<rect x="289" y="604" width="12" height="12" fill="#2171b5"/>
<text x="305" y="614" fill="#222">simplifyIR</text>
<rect x="566" y="604" width="12" height="12" fill="#08306b"/>
<text x="582" y="614" fill="#222">linkIR</text>
<rect x="843" y="604" width="12" height="12" fill="#9e9ac8"/>
<text x="859" y="614" fill="#222">unrollLoopsInModule</text>
<rect x="12" y="622" width="12" height="12" fill="#807dba"/>
<text x="28" y="632" fill="#222">legalizeResourceTypes</text>
<rect x="289" y="622" width="12" height="12" fill="#6a51a3"/>
<text x="305" y="632" fill="#222">legalizeExistentialTypeLayout</text>
<rect x="566" y="622" width="12" height="12" fill="#bcbddc"/>
<text x="582" y="632" fill="#222">performMandatoryEarlyInlining</text>
<rect x="843" y="622" width="12" height="12" fill="#dadaeb"/>
<text x="859" y="632" fill="#222">performForceInlining</text>
<rect x="12" y="640" width="12" height="12" fill="#4a1486"/>
<text x="28" y="650" fill="#222">linkAndOptimizeIR (self)</text>
<rect x="289" y="640" width="12" height="12" fill="#fd8d3c"/>
<text x="305" y="650" fill="#222">emitEntryPointsSourceFromIR</text>
<rect x="566" y="640" width="12" height="12" fill="#e6550d"/>
<text x="582" y="650" fill="#222">generateOutput (self)</text>
<rect x="843" y="640" width="12" height="12" fill="#969696"/>
<text x="859" y="650" fill="#222">compileInner (self)</text>
</svg>