<svg xmlns="http://www.w3.org/2000/svg" xmlns:xlink="http://www.w3.org/1999/xlink" width="1132" height="680" viewBox="0 0 1132 680" preserveAspectRatio="xMidYMid meet" font-family="sans-serif" font-size="13">
<rect width="1132" height="680" fill="white"/>
<text x="12" y="30" font-size="20" font-weight="bold">reflection_layout — Daily tip-of-tree (last 30 days) (median ms)</text>
<text x="68" y="60" font-size="15" font-weight="600" fill="#1a1a1a">reflection_layout<tspan fill="#888" font-weight="400" text-decoration="none">  0.82×</tspan></text>
<line x1="68.0" y1="516.0" x2="1108.0" y2="516.0" stroke="#eee"/>
<text x="64.0" y="519.0" text-anchor="end" fill="#999">0.0</text>
<line x1="68.0" y1="296.0" x2="1108.0" y2="296.0" stroke="#eee"/>
<text x="64.0" y="299.0" text-anchor="end" fill="#999">133</text>
<line x1="68.0" y1="76.0" x2="1108.0" y2="76.0" stroke="#eee"/>
<text x="64.0" y="79.0" text-anchor="end" fill="#999">265</text>
<line x1="68.0" y1="76.0" x2="68.0" y2="516.0" stroke="#333"/>
<line x1="68.0" y1="516.0" x2="1108.0" y2="516.0" stroke="#333"/>
<line x1="68.0" y1="516.0" x2="68.0" y2="519.0" stroke="#999"/>
<text x="68.0" y="531.0" text-anchor="end" fill="#e8731a" transform="rotate(-50 68.0 531.0)">06-25</text>
<line x1="120.0" y1="516.0" x2="120.0" y2="519.0" stroke="#999"/>
<text x="120.0" y="531.0" text-anchor="end" fill="#e8731a" transform="rotate(-50 120.0 531.0)">06-26</text>
<line x1="172.0" y1="516.0" x2="172.0" y2="519.0" stroke="#999"/>
<text x="172.0" y="531.0" text-anchor="end" fill="#e8731a" transform="rotate(-50 172.0 531.0)">06-28</text>
<line x1="224.0" y1="516.0" x2="224.0" y2="519.0" stroke="#999"/>
<text x="224.0" y="531.0" text-anchor="end" fill="#e8731a" transform="rotate(-50 224.0 531.0)">07-01</text>
<line x1="276.0" y1="516.0" x2="276.0" y2="519.0" stroke="#999"/>
<text x="276.0" y="531.0" text-anchor="end" fill="#e8731a" transform="rotate(-50 276.0 531.0)">07-02</text>
<line x1="328.0" y1="516.0" x2="328.0" y2="519.0" stroke="#999"/>
<text x="328.0" y="531.0" text-anchor="end" fill="#e8731a" transform="rotate(-50 328.0 531.0)">07-03</text>
<line x1="380.0" y1="516.0" x2="380.0" y2="519.0" stroke="#999"/>
<text x="380.0" y="531.0" text-anchor="end" fill="#e8731a" transform="rotate(-50 380.0 531.0)">07-06</text>
<line x1="432.0" y1="516.0" x2="432.0" y2="519.0" stroke="#999"/>
<text x="432.0" y="531.0" text-anchor="end" fill="#e8731a" transform="rotate(-50 432.0 531.0)">07-07</text>
<line x1="484.0" y1="516.0" x2="484.0" y2="519.0" stroke="#999"/>
<text x="484.0" y="531.0" text-anchor="end" fill="#e8731a" transform="rotate(-50 484.0 531.0)">07-08</text>
<line x1="536.0" y1="516.0" x2="536.0" y2="519.0" stroke="#999"/>
<text x="536.0" y="531.0" text-anchor="end" fill="#e8731a" transform="rotate(-50 536.0 531.0)">07-09</text>
<line x1="588.0" y1="516.0" x2="588.0" y2="519.0" stroke="#999"/>
<text x="588.0" y="531.0" text-anchor="end" fill="#e8731a" transform="rotate(-50 588.0 531.0)">07-10</text>
<line x1="640.0" y1="516.0" x2="640.0" y2="519.0" stroke="#999"/>
<text x="640.0" y="531.0" text-anchor="end" fill="#e8731a" transform="rotate(-50 640.0 531.0)">07-11</text>
<line x1="692.0" y1="516.0" x2="692.0" y2="519.0" stroke="#999"/>
<text x="692.0" y="531.0" text-anchor="end" fill="#e8731a" transform="rotate(-50 692.0 531.0)">07-14</text>
<line x1="744.0" y1="516.0" x2="744.0" y2="519.0" stroke="#999"/>
<text x="744.0" y="531.0" text-anchor="end" fill="#e8731a" transform="rotate(-50 744.0 531.0)">07-15</text>
<line x1="796.0" y1="516.0" x2="796.0" y2="519.0" stroke="#999"/>
<text x="796.0" y="531.0" text-anchor="end" fill="#e8731a" transform="rotate(-50 796.0 531.0)">07-15</text>
<line x1="848.0" y1="516.0" x2="848.0" y2="519.0" stroke="#999"/>
<text x="848.0" y="531.0" text-anchor="end" fill="#e8731a" transform="rotate(-50 848.0 531.0)">07-16</text>
<line x1="900.0" y1="516.0" x2="900.0" y2="519.0" stroke="#999"/>
<text x="900.0" y="531.0" text-anchor="end" fill="#e8731a" transform="rotate(-50 900.0 531.0)">07-17</text>
<line x1="952.0" y1="516.0" x2="952.0" y2="519.0" stroke="#999"/>
<text x="952.0" y="531.0" text-anchor="end" fill="#e8731a" transform="rotate(-50 952.0 531.0)">07-18</text>
<line x1="1004.0" y1="516.0" x2="1004.0" y2="519.0" stroke="#999"/>
<text x="1004.0" y="531.0" text-anchor="end" fill="#e8731a" transform="rotate(-50 1004.0 531.0)">07-19</text>
<line x1="1056.0" y1="516.0" x2="1056.0" y2="519.0" stroke="#999"/>
<text x="1056.0" y="531.0" text-anchor="end" fill="#e8731a" transform="rotate(-50 1056.0 531.0)">07-20</text>
<line x1="1108.0" y1="516.0" x2="1108.0" y2="519.0" stroke="#999"/>
<text x="1108.0" y="531.0" text-anchor="end" fill="#e8731a" transform="rotate(-50 1108.0 531.0)">07-21</text>
<polygon points="68.0,507.9 120.0,507.9 172.0,507.9 224.0,507.9 276.0,507.8 328.0,508.1 380.0,507.9 432.0,508.4 484.0,508.1 536.0,508.1 588.0,508.1 640.0,508.2 692.0,508.1 744.0,508.6 796.0,508.5 848.0,508.4 900.0,508.5 952.0,508.8 1004.0,508.6 1056.0,508.8 1108.0,508.6 1108.0,516.0 1056.0,516.0 1004.0,516.0 952.0,516.0 900.0,516.0 848.0,516.0 796.0,516.0 744.0,516.0 692.0,516.0 640.0,516.0 588.0,516.0 536.0,516.0 484.0,516.0 432.0,516.0 380.0,516.0 328.0,516.0 276.0,516.0 224.0,516.0 172.0,516.0 120.0,516.0 68.0,516.0" fill="#c7e9c0" fill-opacity="0.9" stroke="#fff" stroke-width="0.4"><title>reflection_layout — parseTranslationUnit</title></polygon>
<polygon points="68.0,391.7 120.0,390.3 172.0,388.0 224.0,390.1 276.0,383.8 328.0,390.9 380.0,389.5 432.0,388.9 484.0,390.9 536.0,388.6 588.0,389.8 640.0,388.8 692.0,390.1 744.0,394.7 796.0,394.8 848.0,368.8 900.0,368.9 952.0,374.0 1004.0,371.6 1056.0,374.6 1108.0,372.7 1108.0,508.6 1056.0,508.8 1004.0,508.6 952.0,508.8 900.0,508.5 848.0,508.4 796.0,508.5 744.0,508.6 692.0,508.1 640.0,508.2 588.0,508.1 536.0,508.1 484.0,508.1 432.0,508.4 380.0,507.9 328.0,508.1 276.0,507.8 224.0,507.9 172.0,507.9 120.0,507.9 68.0,507.9" fill="#41ab5d" fill-opacity="0.9" stroke="#fff" stroke-width="0.4"><title>reflection_layout — SemanticChecking</title></polygon>
<polygon points="68.0,369.6 120.0,367.9 172.0,364.0 224.0,368.1 276.0,362.2 328.0,368.5 380.0,367.5 432.0,366.1 484.0,368.6 536.0,366.0 588.0,367.4 640.0,366.5 692.0,368.1 744.0,372.8 796.0,373.1 848.0,347.8 900.0,348.2 952.0,355.6 1004.0,353.2 1056.0,356.3 1108.0,354.3 1108.0,372.7 1056.0,374.6 1004.0,371.6 952.0,374.0 900.0,368.9 848.0,368.8 796.0,394.8 744.0,394.7 692.0,390.1 640.0,388.8 588.0,389.8 536.0,388.6 484.0,390.9 432.0,388.9 380.0,389.5 328.0,390.9 276.0,383.8 224.0,390.1 172.0,388.0 120.0,390.3 68.0,391.7" fill="#006d2c" fill-opacity="0.9" stroke="#fff" stroke-width="0.4"><title>reflection_layout — generateIR</title></polygon>
<polygon points="68.0,355.7 120.0,354.9 172.0,352.0 224.0,353.3 276.0,347.8 328.0,355.6 380.0,354.9 432.0,351.3 484.0,354.6 536.0,354.0 588.0,353.7 640.0,353.4 692.0,354.5 744.0,361.5 796.0,361.8 848.0,336.0 900.0,336.6 952.0,344.8 1004.0,342.1 1056.0,345.3 1108.0,341.8 1108.0,354.3 1056.0,356.3 1004.0,353.2 952.0,355.6 900.0,348.2 848.0,347.8 796.0,373.1 744.0,372.8 692.0,368.1 640.0,366.5 588.0,367.4 536.0,366.0 484.0,368.6 432.0,366.1 380.0,367.5 328.0,368.5 276.0,362.2 224.0,368.1 172.0,364.0 120.0,367.9 68.0,369.6" fill="#74c476" fill-opacity="0.9" stroke="#fff" stroke-width="0.4"><title>reflection_layout — frontEndExecute (self)</title></polygon>
<polygon points="68.0,336.1 120.0,335.7 172.0,331.6 224.0,333.9 276.0,328.4 328.0,336.2 380.0,335.0 432.0,342.4 484.0,345.7 536.0,345.2 588.0,344.7 640.0,344.6 692.0,345.6 744.0,353.7 796.0,354.0 848.0,328.0 900.0,328.7 952.0,337.4 1004.0,334.4 1056.0,337.8 1108.0,334.3 1108.0,341.8 1056.0,345.3 1004.0,342.1 952.0,344.8 900.0,336.6 848.0,336.0 796.0,361.8 744.0,361.5 692.0,354.5 640.0,353.4 588.0,353.7 536.0,354.0 484.0,354.6 432.0,351.3 380.0,354.9 328.0,355.6 276.0,347.8 224.0,353.3 172.0,352.0 120.0,354.9 68.0,355.7" fill="#6baed6" fill-opacity="0.9" stroke="#fff" stroke-width="0.4"><title>reflection_layout — specializeModule</title></polygon>
<polygon points="68.0,300.1 120.0,300.2 172.0,295.9 224.0,298.4 276.0,293.5 328.0,301.4 380.0,300.6 432.0,314.3 484.0,317.1 536.0,316.3 588.0,316.1 640.0,315.7 692.0,317.1 744.0,326.4 796.0,326.6 848.0,299.4 900.0,301.1 952.0,311.0 1004.0,308.3 1056.0,312.2 1108.0,308.5 1108.0,334.3 1056.0,337.8 1004.0,334.4 952.0,337.4 900.0,328.7 848.0,328.0 796.0,354.0 744.0,353.7 692.0,345.6 640.0,344.6 588.0,344.7 536.0,345.2 484.0,345.7 432.0,342.4 380.0,335.0 328.0,336.2 276.0,328.4 224.0,333.9 172.0,331.6 120.0,335.7 68.0,336.1" fill="#2171b5" fill-opacity="0.9" stroke="#fff" stroke-width="0.4"><title>reflection_layout — simplifyIR</title></polygon>
<polygon points="68.0,293.8 120.0,293.8 172.0,289.6 224.0,292.2 276.0,287.1 328.0,295.0 380.0,294.2 432.0,308.7 484.0,311.3 536.0,310.5 588.0,310.3 640.0,310.0 692.0,311.4 744.0,320.9 796.0,321.3 848.0,294.0 900.0,295.8 952.0,306.5 1004.0,303.4 1056.0,307.8 1108.0,303.8 1108.0,308.5 1056.0,312.2 1004.0,308.3 952.0,311.0 900.0,301.1 848.0,299.4 796.0,326.6 744.0,326.4 692.0,317.1 640.0,315.7 588.0,316.1 536.0,316.3 484.0,317.1 432.0,314.3 380.0,300.6 328.0,301.4 276.0,293.5 224.0,298.4 172.0,295.9 120.0,300.2 68.0,300.1" fill="#08306b" fill-opacity="0.9" stroke="#fff" stroke-width="0.4"><title>reflection_layout — linkIR</title></polygon>
<polygon points="68.0,293.7 120.0,293.7 172.0,289.5 224.0,292.1 276.0,287.0 328.0,294.9 380.0,294.1 432.0,308.6 484.0,311.3 536.0,310.5 588.0,310.2 640.0,310.0 692.0,311.3 744.0,320.8 796.0,321.3 848.0,293.9 900.0,295.7 952.0,306.5 1004.0,303.4 1056.0,307.7 1108.0,303.7 1108.0,303.8 1056.0,307.8 1004.0,303.4 952.0,306.5 900.0,295.8 848.0,294.0 796.0,321.3 744.0,320.9 692.0,311.4 640.0,310.0 588.0,310.3 536.0,310.5 484.0,311.3 432.0,308.7 380.0,294.2 328.0,295.0 276.0,287.1 224.0,292.2 172.0,289.6 120.0,293.8 68.0,293.8" fill="#9e9ac8" fill-opacity="0.9" stroke="#fff" stroke-width="0.4"><title>reflection_layout — unrollLoopsInModule</title></polygon>
<polygon points="68.0,277.5 120.0,277.6 172.0,273.2 224.0,276.2 276.0,271.1 328.0,278.9 380.0,278.2 432.0,292.9 484.0,295.5 536.0,294.5 588.0,306.8 640.0,306.5 692.0,307.9 744.0,317.3 796.0,317.7 848.0,290.3 900.0,292.1 952.0,303.1 1004.0,299.9 1056.0,304.3 1108.0,300.3 1108.0,303.7 1056.0,307.7 1004.0,303.4 952.0,306.5 900.0,295.7 848.0,293.9 796.0,321.3 744.0,320.8 692.0,311.3 640.0,310.0 588.0,310.2 536.0,310.5 484.0,311.3 432.0,308.6 380.0,294.1 328.0,294.9 276.0,287.0 224.0,292.1 172.0,289.5 120.0,293.7 68.0,293.7" fill="#807dba" fill-opacity="0.9" stroke="#fff" stroke-width="0.4"><title>reflection_layout — legalizeResourceTypes</title></polygon>
<polygon points="68.0,261.8 120.0,262.0 172.0,257.2 224.0,260.6 276.0,255.6 328.0,263.5 380.0,262.7 432.0,276.9 484.0,279.5 536.0,278.2 588.0,292.1 640.0,291.6 692.0,293.4 744.0,302.4 796.0,302.9 848.0,275.4 900.0,277.3 952.0,289.1 1004.0,285.0 1056.0,290.3 1108.0,286.0 1108.0,300.3 1056.0,304.3 1004.0,299.9 952.0,303.1 900.0,292.1 848.0,290.3 796.0,317.7 744.0,317.3 692.0,307.9 640.0,306.5 588.0,306.8 536.0,294.5 484.0,295.5 432.0,292.9 380.0,278.2 328.0,278.9 276.0,271.1 224.0,276.2 172.0,273.2 120.0,277.6 68.0,277.5" fill="#6a51a3" fill-opacity="0.9" stroke="#fff" stroke-width="0.4"><title>reflection_layout — legalizeExistentialTypeLayout</title></polygon>
<polygon points="68.0,260.5 120.0,260.7 172.0,255.8 224.0,259.3 276.0,254.3 328.0,262.1 380.0,261.4 432.0,275.6 484.0,278.2 536.0,276.9 588.0,290.7 640.0,290.3 692.0,292.1 744.0,301.2 796.0,301.7 848.0,274.2 900.0,276.1 952.0,288.0 1004.0,283.9 1056.0,289.2 1108.0,284.9 1108.0,286.0 1056.0,290.3 1004.0,285.0 952.0,289.1 900.0,277.3 848.0,275.4 796.0,302.9 744.0,302.4 692.0,293.4 640.0,291.6 588.0,292.1 536.0,278.2 484.0,279.5 432.0,276.9 380.0,262.7 328.0,263.5 276.0,255.6 224.0,260.6 172.0,257.2 120.0,262.0 68.0,261.8" fill="#bcbddc" fill-opacity="0.9" stroke="#fff" stroke-width="0.4"><title>reflection_layout — performMandatoryEarlyInlining</title></polygon>
<polygon points="68.0,252.6 120.0,252.9 172.0,247.5 224.0,251.5 276.0,246.2 328.0,253.9 380.0,253.4 432.0,267.6 484.0,270.4 536.0,268.6 588.0,282.8 640.0,281.9 692.0,284.5 744.0,294.4 796.0,294.6 848.0,267.5 900.0,269.1 952.0,282.5 1004.0,278.5 1056.0,283.7 1108.0,279.7 1108.0,284.9 1056.0,289.2 1004.0,283.9 952.0,288.0 900.0,276.1 848.0,274.2 796.0,301.7 744.0,301.2 692.0,292.1 640.0,290.3 588.0,290.7 536.0,276.9 484.0,278.2 432.0,275.6 380.0,261.4 328.0,262.1 276.0,254.3 224.0,259.3 172.0,255.8 120.0,260.7 68.0,260.5" fill="#dadaeb" fill-opacity="0.9" stroke="#fff" stroke-width="0.4"><title>reflection_layout — performForceInlining</title></polygon>
<polygon points="68.0,188.3 120.0,188.7 172.0,181.7 224.0,186.8 276.0,179.6 328.0,188.5 380.0,187.2 432.0,205.5 484.0,204.7 536.0,205.5 588.0,235.9 640.0,236.1 692.0,238.4 744.0,251.8 796.0,252.1 848.0,224.4 900.0,227.4 952.0,242.2 1004.0,236.3 1056.0,242.7 1108.0,239.2 1108.0,279.7 1056.0,283.7 1004.0,278.5 952.0,282.5 900.0,269.1 848.0,267.5 796.0,294.6 744.0,294.4 692.0,284.5 640.0,281.9 588.0,282.8 536.0,268.6 484.0,270.4 432.0,267.6 380.0,253.4 328.0,253.9 276.0,246.2 224.0,251.5 172.0,247.5 120.0,252.9 68.0,252.6" fill="#4a1486" fill-opacity="0.9" stroke="#fff" stroke-width="0.4"><title>reflection_layout — linkAndOptimizeIR (self)</title></polygon>
<polygon points="68.0,131.1 120.0,133.7 172.0,125.0 224.0,131.6 276.0,124.6 328.0,134.2 380.0,133.1 432.0,150.9 484.0,150.5 536.0,151.5 588.0,198.5 640.0,197.7 692.0,200.6 744.0,214.9 796.0,215.2 848.0,184.6 900.0,190.4 952.0,204.8 1004.0,199.8 1056.0,206.1 1108.0,203.2 1108.0,239.2 1056.0,242.7 1004.0,236.3 952.0,242.2 900.0,227.4 848.0,224.4 796.0,252.1 744.0,251.8 692.0,238.4 640.0,236.1 588.0,235.9 536.0,205.5 484.0,204.7 432.0,205.5 380.0,187.2 328.0,188.5 276.0,179.6 224.0,186.8 172.0,181.7 120.0,188.7 68.0,188.3" fill="#e6550d" fill-opacity="0.9" stroke="#fff" stroke-width="0.4"><title>reflection_layout — generateOutput (self)</title></polygon>
<polygon points="68.0,118.8 120.0,121.1 172.0,108.6 224.0,118.7 276.0,111.0 328.0,120.5 380.0,119.7 432.0,138.5 484.0,135.9 536.0,138.0 588.0,185.0 640.0,185.2 692.0,186.7 744.0,202.9 796.0,203.1 848.0,168.6 900.0,177.9 952.0,192.8 1004.0,187.7 1056.0,194.9 1108.0,191.7 1108.0,203.2 1056.0,206.1 1004.0,199.8 952.0,204.8 900.0,190.4 848.0,184.6 796.0,215.2 744.0,214.9 692.0,200.6 640.0,197.7 588.0,198.5 536.0,151.5 484.0,150.5 432.0,150.9 380.0,133.1 328.0,134.2 276.0,124.6 224.0,131.6 172.0,125.0 120.0,133.7 68.0,131.1" fill="#969696" fill-opacity="0.9" stroke="#fff" stroke-width="0.4"><title>reflection_layout — compileInner (self)</title></polygon>
<text x="12" y="578" fill="#666" font-weight="600">phase buckets</text>
<rect x="12" y="586" width="12" height="12" fill="#c7e9c0"/>
<text x="28" y="596" fill="#222">parseTranslationUnit</text>
<rect x="289" y="586" width="12" height="12" fill="#41ab5d"/>
<text x="305" y="596" fill="#222">SemanticChecking</text>
<rect x="566" y="586" width="12" height="12" fill="#006d2c"/>
<text x="582" y="596" fill="#222">generateIR</text>
<rect x="843" y="586" width="12" height="12" fill="#74c476"/>
<text x="859" y="596" fill="#222">frontEndExecute (self)</text>
<rect x="12" y="604" width="12" height="12" fill="#6baed6"/>
<text x="28" y="614" fill="#222">specializeModule</text>
<rect x="289" y="604" width="12" height="12" fill="#2171b5"/>
<text x="305" y="614" fill="#222">simplifyIR</text>
<rect x="566" y="604" width="12" height="12" fill="#08306b"/>
<text x="582" y="614" fill="#222">linkIR</text>
<rect x="843" y="604" width="12" height="12" fill="#9e9ac8"/>
<text x="859" y="614" fill="#222">unrollLoopsInModule</text>
<rect x="12" y="622" width="12" height="12" fill="#807dba"/>
<text x="28" y="632" fill="#222">legalizeResourceTypes</text>
<rect x="289" y="622" width="12" height="12" fill="#6a51a3"/>
<text x="305" y="632" fill="#222">legalizeExistentialTypeLayout</text>
<rect x="566" y="622" width="12" height="12" fill="#bcbddc"/>
<text x="582" y="632" fill="#222">performMandatoryEarlyInlining</text>
<rect x="843" y="622" width="12" height="12" fill="#dadaeb"/>
<text x="859" y="632" fill="#222">performForceInlining</text>
<rect x="12" y="640" width="12" height="12" fill="#4a1486"/>
<text x="28" y="650" fill="#222">linkAndOptimizeIR (self)</text>
<rect x="289" y="640" width="12" height="12" fill="#fd8d3c"/>
<text x="305" y="650" fill="#222">emitEntryPointsSourceFromIR</text>
<rect x="566" y="640" width="12" height="12" fill="#e6550d"/>
<text x="582" y="650" fill="#222">generateOutput (self)</text>
<rect x="843" y="640" width="12" height="12" fill="#969696"/>
<text x="859" y="650" fill="#222">compileInner (self)</text>
</svg>