<svg xmlns="http://www.w3.org/2000/svg" xmlns:xlink="http://www.w3.org/1999/xlink" width="1132" height="680" viewBox="0 0 1132 680" preserveAspectRatio="xMidYMid meet" font-family="sans-serif" font-size="13">
<rect width="1132" height="680" fill="white"/>
<text x="12" y="30" font-size="20" font-weight="bold">reflection_layout — Across releases (median ms)</text>
<text x="68" y="60" font-size="15" font-weight="600" fill="#1a1a1a">reflection_layout<tspan fill="#888" font-weight="400" text-decoration="none">  0.68×</tspan></text>
<line x1="68.0" y1="516.0" x2="1108.0" y2="516.0" stroke="#eee"/>
<text x="64.0" y="519.0" text-anchor="end" fill="#999">0.0</text>
<line x1="68.0" y1="296.0" x2="1108.0" y2="296.0" stroke="#eee"/>
<text x="64.0" y="299.0" text-anchor="end" fill="#999">186</text>
<line x1="68.0" y1="76.0" x2="1108.0" y2="76.0" stroke="#eee"/>
<text x="64.0" y="79.0" text-anchor="end" fill="#999">371</text>
<line x1="68.0" y1="76.0" x2="68.0" y2="516.0" stroke="#333"/>
<line x1="68.0" y1="516.0" x2="1108.0" y2="516.0" stroke="#333"/>
<line x1="68.0" y1="516.0" x2="68.0" y2="519.0" stroke="#999"/>
<text x="68.0" y="531.0" text-anchor="end" fill="#666" transform="rotate(-50 68.0 531.0)">25.12</text>
<line x1="109.6" y1="516.0" x2="109.6" y2="519.0" stroke="#999"/>
<text x="109.6" y="531.0" text-anchor="end" fill="#666" transform="rotate(-50 109.6 531.0)">25.13</text>
<line x1="151.2" y1="516.0" x2="151.2" y2="519.0" stroke="#999"/>
<text x="151.2" y="531.0" text-anchor="end" fill="#666" transform="rotate(-50 151.2 531.0)">25.14</text>
<line x1="192.8" y1="516.0" x2="192.8" y2="519.0" stroke="#999"/>
<text x="192.8" y="531.0" text-anchor="end" fill="#666" transform="rotate(-50 192.8 531.0)">25.15</text>
<line x1="234.4" y1="516.0" x2="234.4" y2="519.0" stroke="#999"/>
<text x="234.4" y="531.0" text-anchor="end" fill="#666" transform="rotate(-50 234.4 531.0)">25.16</text>
<line x1="276.0" y1="516.0" x2="276.0" y2="519.0" stroke="#999"/>
<text x="276.0" y="531.0" text-anchor="end" fill="#666" transform="rotate(-50 276.0 531.0)">25.17</text>
<line x1="317.6" y1="516.0" x2="317.6" y2="519.0" stroke="#999"/>
<text x="317.6" y="531.0" text-anchor="end" fill="#666" transform="rotate(-50 317.6 531.0)">25.18</text>
<line x1="359.2" y1="516.0" x2="359.2" y2="519.0" stroke="#999"/>
<text x="359.2" y="531.0" text-anchor="end" fill="#666" transform="rotate(-50 359.2 531.0)">25.19</text>
<line x1="400.8" y1="516.0" x2="400.8" y2="519.0" stroke="#999"/>
<text x="400.8" y="531.0" text-anchor="end" fill="#666" transform="rotate(-50 400.8 531.0)">25.20</text>
<line x1="442.4" y1="516.0" x2="442.4" y2="519.0" stroke="#999"/>
<text x="442.4" y="531.0" text-anchor="end" fill="#666" transform="rotate(-50 442.4 531.0)">25.21</text>
<line x1="484.0" y1="516.0" x2="484.0" y2="519.0" stroke="#999"/>
<text x="484.0" y="531.0" text-anchor="end" fill="#666" transform="rotate(-50 484.0 531.0)">25.22</text>
<line x1="525.6" y1="516.0" x2="525.6" y2="519.0" stroke="#999"/>
<text x="525.6" y="531.0" text-anchor="end" fill="#666" transform="rotate(-50 525.6 531.0)">25.23</text>
<line x1="567.2" y1="516.0" x2="567.2" y2="519.0" stroke="#999"/>
<text x="567.2" y="531.0" text-anchor="end" fill="#666" transform="rotate(-50 567.2 531.0)">25.24</text>
<line x1="608.8" y1="516.0" x2="608.8" y2="519.0" stroke="#999"/>
<text x="608.8" y="531.0" text-anchor="end" fill="#666" transform="rotate(-50 608.8 531.0)">26.1</text>
<line x1="650.4" y1="516.0" x2="650.4" y2="519.0" stroke="#999"/>
<text x="650.4" y="531.0" text-anchor="end" fill="#666" transform="rotate(-50 650.4 531.0)">26.2</text>
<line x1="692.0" y1="516.0" x2="692.0" y2="519.0" stroke="#999"/>
<text x="692.0" y="531.0" text-anchor="end" fill="#666" transform="rotate(-50 692.0 531.0)">26.3</text>
<line x1="733.6" y1="516.0" x2="733.6" y2="519.0" stroke="#999"/>
<text x="733.6" y="531.0" text-anchor="end" fill="#666" transform="rotate(-50 733.6 531.0)">26.4</text>
<line x1="775.2" y1="516.0" x2="775.2" y2="519.0" stroke="#999"/>
<text x="775.2" y="531.0" text-anchor="end" fill="#666" transform="rotate(-50 775.2 531.0)">26.5</text>
<line x1="816.8" y1="516.0" x2="816.8" y2="519.0" stroke="#999"/>
<text x="816.8" y="531.0" text-anchor="end" fill="#666" transform="rotate(-50 816.8 531.0)">26.7</text>
<line x1="858.4" y1="516.0" x2="858.4" y2="519.0" stroke="#999"/>
<text x="858.4" y="531.0" text-anchor="end" fill="#666" transform="rotate(-50 858.4 531.0)">26.8</text>
<line x1="900.0" y1="516.0" x2="900.0" y2="519.0" stroke="#999"/>
<text x="900.0" y="531.0" text-anchor="end" fill="#666" transform="rotate(-50 900.0 531.0)">26.9</text>
<line x1="941.6" y1="516.0" x2="941.6" y2="519.0" stroke="#999"/>
<text x="941.6" y="531.0" text-anchor="end" fill="#666" transform="rotate(-50 941.6 531.0)">26.10</text>
<line x1="983.2" y1="516.0" x2="983.2" y2="519.0" stroke="#999"/>
<text x="983.2" y="531.0" text-anchor="end" fill="#666" transform="rotate(-50 983.2 531.0)">26.11</text>
<line x1="1024.8" y1="516.0" x2="1024.8" y2="519.0" stroke="#999"/>
<text x="1024.8" y="531.0" text-anchor="end" fill="#666" transform="rotate(-50 1024.8 531.0)">26.12</text>
<line x1="1066.4" y1="516.0" x2="1066.4" y2="519.0" stroke="#999"/>
<text x="1066.4" y="531.0" text-anchor="end" fill="#666" transform="rotate(-50 1066.4 531.0)">26.13</text>
<line x1="1108.0" y1="516.0" x2="1108.0" y2="519.0" stroke="#999"/>
<text x="1108.0" y="531.0" text-anchor="end" fill="#666" transform="rotate(-50 1108.0 531.0)">26.13.1</text>
<polygon points="68.0,511.3 109.6,510.3 151.2,510.7 192.8,511.0 234.4,511.1 276.0,511.0 317.6,511.0 359.2,511.1 400.8,511.0 442.4,511.0 484.0,511.0 525.6,511.0 567.2,510.8 608.8,510.7 650.4,510.6 692.0,510.6 733.6,510.5 775.2,510.7 816.8,510.0 858.4,510.3 900.0,510.3 941.6,509.7 983.2,509.6 1024.8,510.6 1066.4,510.6 1108.0,510.7 1108.0,516.0 1066.4,516.0 1024.8,516.0 983.2,516.0 941.6,516.0 900.0,516.0 858.4,516.0 816.8,516.0 775.2,516.0 733.6,516.0 692.0,516.0 650.4,516.0 608.8,516.0 567.2,516.0 525.6,516.0 484.0,516.0 442.4,516.0 400.8,516.0 359.2,516.0 317.6,516.0 276.0,516.0 234.4,516.0 192.8,516.0 151.2,516.0 109.6,516.0 68.0,516.0" fill="#c7e9c0" fill-opacity="0.9" stroke="#fff" stroke-width="0.4"><title>reflection_layout — parseTranslationUnit</title></polygon>
<polygon points="68.0,390.3 109.6,400.7 151.2,370.8 192.8,383.7 234.4,396.9 276.0,398.0 317.6,396.6 359.2,395.6 400.8,393.8 442.4,395.5 484.0,395.7 525.6,394.0 567.2,393.4 608.8,391.5 650.4,393.0 692.0,394.2 733.6,391.4 775.2,392.5 816.8,387.4 858.4,400.6 900.0,394.8 941.6,376.2 983.2,424.6 1024.8,431.0 1066.4,428.7 1108.0,431.8 1108.0,510.7 1066.4,510.6 1024.8,510.6 983.2,509.6 941.6,509.7 900.0,510.3 858.4,510.3 816.8,510.0 775.2,510.7 733.6,510.5 692.0,510.6 650.4,510.6 608.8,510.7 567.2,510.8 525.6,511.0 484.0,511.0 442.4,511.0 400.8,511.0 359.2,511.1 317.6,511.0 276.0,511.0 234.4,511.1 192.8,511.0 151.2,510.7 109.6,510.3 68.0,511.3" fill="#41ab5d" fill-opacity="0.9" stroke="#fff" stroke-width="0.4"><title>reflection_layout — SemanticChecking</title></polygon>
<polygon points="68.0,374.9 109.6,384.0 151.2,349.4 192.8,367.2 234.4,380.6 276.0,380.9 317.6,379.6 359.2,378.6 400.8,376.6 442.4,378.9 484.0,378.4 525.6,377.4 567.2,376.8 608.8,374.5 650.4,375.9 692.0,376.0 733.6,374.3 775.2,375.5 816.8,355.4 858.4,375.8 900.0,362.6 941.6,341.8 983.2,405.4 1024.8,416.1 1066.4,411.7 1108.0,416.6 1108.0,431.8 1066.4,428.7 1024.8,431.0 983.2,424.6 941.6,376.2 900.0,394.8 858.4,400.6 816.8,387.4 775.2,392.5 733.6,391.4 692.0,394.2 650.4,393.0 608.8,391.5 567.2,393.4 525.6,394.0 484.0,395.7 442.4,395.5 400.8,393.8 359.2,395.6 317.6,396.6 276.0,398.0 234.4,396.9 192.8,383.7 151.2,370.8 109.6,400.7 68.0,390.3" fill="#006d2c" fill-opacity="0.9" stroke="#fff" stroke-width="0.4"><title>reflection_layout — generateIR</title></polygon>
<polygon points="68.0,365.4 109.6,375.3 151.2,340.0 192.8,358.3 234.4,371.9 276.0,371.7 317.6,370.1 359.2,369.1 400.8,367.8 442.4,369.1 484.0,369.7 525.6,368.6 567.2,366.7 608.8,365.0 650.4,366.8 692.0,367.3 733.6,364.3 775.2,366.5 816.8,344.0 858.4,365.2 900.0,353.1 941.6,329.4 983.2,392.7 1024.8,406.4 1066.4,402.3 1108.0,406.8 1108.0,416.6 1066.4,411.7 1024.8,416.1 983.2,405.4 941.6,341.8 900.0,362.6 858.4,375.8 816.8,355.4 775.2,375.5 733.6,374.3 692.0,376.0 650.4,375.9 608.8,374.5 567.2,376.8 525.6,377.4 484.0,378.4 442.4,378.9 400.8,376.6 359.2,378.6 317.6,379.6 276.0,380.9 234.4,380.6 192.8,367.2 151.2,349.4 109.6,384.0 68.0,374.9" fill="#74c476" fill-opacity="0.9" stroke="#fff" stroke-width="0.4"><title>reflection_layout — frontEndExecute (self)</title></polygon>
<polygon points="68.0,364.2 109.6,372.9 151.2,337.4 192.8,355.9 234.4,369.6 276.0,369.4 317.6,367.8 359.2,366.7 400.8,365.4 442.4,366.7 484.0,367.2 525.6,366.1 567.2,364.0 608.8,362.2 650.4,364.1 692.0,364.4 733.6,361.5 775.2,363.8 816.8,329.4 858.4,351.1 900.0,338.7 941.6,314.2 983.2,379.9 1024.8,393.7 1066.4,396.3 1108.0,400.9 1108.0,406.8 1066.4,402.3 1024.8,406.4 983.2,392.7 941.6,329.4 900.0,353.1 858.4,365.2 816.8,344.0 775.2,366.5 733.6,364.3 692.0,367.3 650.4,366.8 608.8,365.0 567.2,366.7 525.6,368.6 484.0,369.7 442.4,369.1 400.8,367.8 359.2,369.1 317.6,370.1 276.0,371.7 234.4,371.9 192.8,358.3 151.2,340.0 109.6,375.3 68.0,365.4" fill="#6baed6" fill-opacity="0.9" stroke="#fff" stroke-width="0.4"><title>reflection_layout — specializeModule</title></polygon>
<polygon points="68.0,325.1 109.6,332.9 151.2,293.2 192.8,316.0 234.4,329.5 276.0,329.0 317.6,326.4 359.2,324.8 400.8,324.0 442.4,325.2 484.0,326.0 525.6,324.7 567.2,324.4 608.8,337.2 650.4,338.8 692.0,339.1 733.6,336.1 775.2,338.8 816.8,297.2 858.4,320.6 900.0,307.2 941.6,280.0 983.2,353.6 1024.8,369.5 1066.4,377.3 1108.0,381.8 1108.0,400.9 1066.4,396.3 1024.8,393.7 983.2,379.9 941.6,314.2 900.0,338.7 858.4,351.1 816.8,329.4 775.2,363.8 733.6,361.5 692.0,364.4 650.4,364.1 608.8,362.2 567.2,364.0 525.6,366.1 484.0,367.2 442.4,366.7 400.8,365.4 359.2,366.7 317.6,367.8 276.0,369.4 234.4,369.6 192.8,355.9 151.2,337.4 109.6,372.9 68.0,364.2" fill="#2171b5" fill-opacity="0.9" stroke="#fff" stroke-width="0.4"><title>reflection_layout — simplifyIR</title></polygon>
<polygon points="68.0,321.6 109.6,327.7 151.2,287.1 192.8,310.5 234.4,324.8 276.0,324.2 317.6,321.5 359.2,319.8 400.8,319.1 442.4,320.3 484.0,321.0 525.6,319.9 567.2,319.6 608.8,332.4 650.4,334.1 692.0,334.4 733.6,331.2 775.2,333.9 816.8,273.6 858.4,303.1 900.0,287.4 941.6,253.4 983.2,348.6 1024.8,365.1 1066.4,373.2 1108.0,377.9 1108.0,381.8 1066.4,377.3 1024.8,369.5 983.2,353.6 941.6,280.0 900.0,307.2 858.4,320.6 816.8,297.2 775.2,338.8 733.6,336.1 692.0,339.1 650.4,338.8 608.8,337.2 567.2,324.4 525.6,324.7 484.0,326.0 442.4,325.2 400.8,324.0 359.2,324.8 317.6,326.4 276.0,329.0 234.4,329.5 192.8,316.0 151.2,293.2 109.6,332.9 68.0,325.1" fill="#08306b" fill-opacity="0.9" stroke="#fff" stroke-width="0.4"><title>reflection_layout — linkIR</title></polygon>
<polygon points="68.0,321.6 109.6,327.6 151.2,287.0 192.8,310.5 234.4,324.8 276.0,324.1 317.6,321.5 359.2,319.7 400.8,319.0 442.4,320.3 484.0,321.0 525.6,319.8 567.2,319.6 608.8,332.4 650.4,334.0 692.0,334.3 733.6,331.1 775.2,333.9 816.8,273.5 858.4,303.1 900.0,287.4 941.6,253.4 983.2,348.5 1024.8,365.0 1066.4,373.2 1108.0,377.8 1108.0,377.9 1066.4,373.2 1024.8,365.1 983.2,348.6 941.6,253.4 900.0,287.4 858.4,303.1 816.8,273.6 775.2,333.9 733.6,331.2 692.0,334.4 650.4,334.1 608.8,332.4 567.2,319.6 525.6,319.9 484.0,321.0 442.4,320.3 400.8,319.1 359.2,319.8 317.6,321.5 276.0,324.2 234.4,324.8 192.8,310.5 151.2,287.1 109.6,327.7 68.0,321.6" fill="#9e9ac8" fill-opacity="0.9" stroke="#fff" stroke-width="0.4"><title>reflection_layout — unrollLoopsInModule</title></polygon>
<polygon points="68.0,307.3 109.6,312.5 151.2,270.7 192.8,295.2 234.4,310.1 276.0,309.6 317.6,308.3 359.2,306.2 400.8,305.6 442.4,306.7 484.0,307.6 525.6,306.5 567.2,306.5 608.8,318.9 650.4,320.8 692.0,320.8 733.6,317.5 775.2,320.6 816.8,258.6 858.4,289.5 900.0,273.3 941.6,238.3 983.2,336.0 1024.8,353.6 1066.4,361.8 1108.0,375.4 1108.0,377.8 1066.4,373.2 1024.8,365.0 983.2,348.5 941.6,253.4 900.0,287.4 858.4,303.1 816.8,273.5 775.2,333.9 733.6,331.1 692.0,334.3 650.4,334.0 608.8,332.4 567.2,319.6 525.6,319.8 484.0,321.0 442.4,320.3 400.8,319.0 359.2,319.7 317.6,321.5 276.0,324.1 234.4,324.8 192.8,310.5 151.2,287.0 109.6,327.6 68.0,321.6" fill="#807dba" fill-opacity="0.9" stroke="#fff" stroke-width="0.4"><title>reflection_layout — legalizeResourceTypes</title></polygon>
<polygon points="68.0,290.7 109.6,295.5 151.2,251.4 192.8,278.1 234.4,293.4 276.0,293.2 317.6,296.9 359.2,294.3 400.8,293.9 442.4,294.8 484.0,295.9 525.6,294.7 567.2,295.0 608.8,307.2 650.4,309.1 692.0,308.9 733.6,305.4 775.2,308.7 816.8,246.2 858.4,277.9 900.0,261.5 941.6,225.6 983.2,324.1 1024.8,342.3 1066.4,350.2 1108.0,365.2 1108.0,375.4 1066.4,361.8 1024.8,353.6 983.2,336.0 941.6,238.3 900.0,273.3 858.4,289.5 816.8,258.6 775.2,320.6 733.6,317.5 692.0,320.8 650.4,320.8 608.8,318.9 567.2,306.5 525.6,306.5 484.0,307.6 442.4,306.7 400.8,305.6 359.2,306.2 317.6,308.3 276.0,309.6 234.4,310.1 192.8,295.2 151.2,270.7 109.6,312.5 68.0,307.3" fill="#6a51a3" fill-opacity="0.9" stroke="#fff" stroke-width="0.4"><title>reflection_layout — legalizeExistentialTypeLayout</title></polygon>
<polygon points="68.0,290.7 109.6,294.6 151.2,250.3 192.8,277.2 234.4,292.5 276.0,292.2 317.6,296.0 359.2,293.3 400.8,293.0 442.4,293.9 484.0,295.0 525.6,293.8 567.2,294.0 608.8,306.3 650.4,308.2 692.0,308.0 733.6,304.5 775.2,307.8 816.8,245.2 858.4,277.0 900.0,260.5 941.6,224.7 983.2,323.2 1024.8,341.4 1066.4,349.3 1108.0,364.3 1108.0,365.2 1066.4,350.2 1024.8,342.3 983.2,324.1 941.6,225.6 900.0,261.5 858.4,277.9 816.8,246.2 775.2,308.7 733.6,305.4 692.0,308.9 650.4,309.1 608.8,307.2 567.2,295.0 525.6,294.7 484.0,295.9 442.4,294.8 400.8,293.9 359.2,294.3 317.6,296.9 276.0,293.2 234.4,293.4 192.8,278.1 151.2,251.4 109.6,295.5 68.0,290.7" fill="#bcbddc" fill-opacity="0.9" stroke="#fff" stroke-width="0.4"><title>reflection_layout — performMandatoryEarlyInlining</title></polygon>
<polygon points="68.0,281.2 109.6,284.2 151.2,237.9 192.8,266.2 234.4,282.4 276.0,279.5 317.6,283.0 359.2,280.2 400.8,280.0 442.4,280.9 484.0,282.2 525.6,281.2 567.2,281.5 608.8,300.4 650.4,302.2 692.0,302.0 733.6,298.5 775.2,302.0 816.8,238.9 858.4,271.1 900.0,254.6 941.6,218.8 983.2,317.2 1024.8,335.6 1066.4,343.5 1108.0,358.7 1108.0,364.3 1066.4,349.3 1024.8,341.4 983.2,323.2 941.6,224.7 900.0,260.5 858.4,277.0 816.8,245.2 775.2,307.8 733.6,304.5 692.0,308.0 650.4,308.2 608.8,306.3 567.2,294.0 525.6,293.8 484.0,295.0 442.4,293.9 400.8,293.0 359.2,293.3 317.6,296.0 276.0,292.2 234.4,292.5 192.8,277.2 151.2,250.3 109.6,294.6 68.0,290.7" fill="#dadaeb" fill-opacity="0.9" stroke="#fff" stroke-width="0.4"><title>reflection_layout — performForceInlining</title></polygon>
<polygon points="68.0,239.7 109.6,246.9 151.2,197.8 192.8,228.5 234.4,245.4 276.0,240.8 317.6,244.5 359.2,242.1 400.8,238.7 442.4,241.0 484.0,242.5 525.6,241.3 567.2,246.2 608.8,272.3 650.4,274.2 692.0,273.9 733.6,268.2 775.2,271.8 816.8,179.4 858.4,217.5 900.0,199.4 941.6,162.3 983.2,269.5 1024.8,293.0 1066.4,301.1 1108.0,327.2 1108.0,358.7 1066.4,343.5 1024.8,335.6 983.2,317.2 941.6,218.8 900.0,254.6 858.4,271.1 816.8,238.9 775.2,302.0 733.6,298.5 692.0,302.0 650.4,302.2 608.8,300.4 567.2,281.5 525.6,281.2 484.0,282.2 442.4,280.9 400.8,280.0 359.2,280.2 317.6,283.0 276.0,279.5 234.4,282.4 192.8,266.2 151.2,237.9 109.6,284.2 68.0,281.2" fill="#4a1486" fill-opacity="0.9" stroke="#fff" stroke-width="0.4"><title>reflection_layout — linkAndOptimizeIR (self)</title></polygon>
<polygon points="68.0,193.5 109.6,199.7 151.2,145.3 192.8,181.5 234.4,197.2 276.0,197.3 317.6,204.3 359.2,201.0 400.8,198.0 442.4,201.7 484.0,203.8 525.6,201.5 567.2,208.0 608.8,233.6 650.4,235.1 692.0,234.8 733.6,228.0 775.2,232.1 816.8,133.0 858.4,177.7 900.0,158.2 941.6,118.4 983.2,228.9 1024.8,254.8 1066.4,262.8 1108.0,300.8 1108.0,327.2 1066.4,301.1 1024.8,293.0 983.2,269.5 941.6,162.3 900.0,199.4 858.4,217.5 816.8,179.4 775.2,271.8 733.6,268.2 692.0,273.9 650.4,274.2 608.8,272.3 567.2,246.2 525.6,241.3 484.0,242.5 442.4,241.0 400.8,238.7 359.2,242.1 317.6,244.5 276.0,240.8 234.4,245.4 192.8,228.5 151.2,197.8 109.6,246.9 68.0,239.7" fill="#e6550d" fill-opacity="0.9" stroke="#fff" stroke-width="0.4"><title>reflection_layout — generateOutput (self)</title></polygon>
<polygon points="68.0,186.4 109.6,191.9 151.2,125.9 192.8,170.0 234.4,188.2 276.0,187.5 317.6,196.0 359.2,193.0 400.8,190.0 442.4,192.3 484.0,195.0 525.6,192.5 567.2,199.1 608.8,224.1 650.4,226.0 692.0,227.2 733.6,219.0 775.2,222.5 816.8,123.6 858.4,168.5 900.0,145.5 941.6,108.6 983.2,218.9 1024.8,246.4 1066.4,254.1 1108.0,291.1 1108.0,300.8 1066.4,262.8 1024.8,254.8 983.2,228.9 941.6,118.4 900.0,158.2 858.4,177.7 816.8,133.0 775.2,232.1 733.6,228.0 692.0,234.8 650.4,235.1 608.8,233.6 567.2,208.0 525.6,201.5 484.0,203.8 442.4,201.7 400.8,198.0 359.2,201.0 317.6,204.3 276.0,197.3 234.4,197.2 192.8,181.5 151.2,145.3 109.6,199.7 68.0,193.5" fill="#969696" fill-opacity="0.9" stroke="#fff" stroke-width="0.4"><title>reflection_layout — compileInner (self)</title></polygon>
<text x="12" y="578" fill="#666" font-weight="600">phase buckets</text>
<rect x="12" y="586" width="12" height="12" fill="#c7e9c0"/>
<text x="28" y="596" fill="#222">parseTranslationUnit</text>
<rect x="289" y="586" width="12" height="12" fill="#41ab5d"/>
<text x="305" y="596" fill="#222">SemanticChecking</text>
<rect x="566" y="586" width="12" height="12" fill="#006d2c"/>
<text x="582" y="596" fill="#222">generateIR</text>
<rect x="843" y="586" width="12" height="12" fill="#74c476"/>
<text x="859" y="596" fill="#222">frontEndExecute (self)</text>
<rect x="12" y="604" width="12" height="12" fill="#6baed6"/>
<text x="28" y="614" fill="#222">specializeModule</text>
<rect x="289" y="604" width="12" height="12" fill="#2171b5"/>
<text x="305" y="614" fill="#222">simplifyIR</text>
<rect x="566" y="604" width="12" height="12" fill="#08306b"/>
<text x="582" y="614" fill="#222">linkIR</text>
<rect x="843" y="604" width="12" height="12" fill="#9e9ac8"/>
<text x="859" y="614" fill="#222">unrollLoopsInModule</text>
<rect x="12" y="622" width="12" height="12" fill="#807dba"/>
<text x="28" y="632" fill="#222">legalizeResourceTypes</text>
<rect x="289" y="622" width="12" height="12" fill="#6a51a3"/>
<text x="305" y="632" fill="#222">legalizeExistentialTypeLayout</text>
<rect x="566" y="622" width="12" height="12" fill="#bcbddc"/>
<text x="582" y="632" fill="#222">performMandatoryEarlyInlining</text>
<rect x="843" y="622" width="12" height="12" fill="#dadaeb"/>
<text x="859" y="632" fill="#222">performForceInlining</text>
<rect x="12" y="640" width="12" height="12" fill="#4a1486"/>
<text x="28" y="650" fill="#222">linkAndOptimizeIR (self)</text>
<rect x="289" y="640" width="12" height="12" fill="#fd8d3c"/>
<text x="305" y="650" fill="#222">emitEntryPointsSourceFromIR</text>
<rect x="566" y="640" width="12" height="12" fill="#e6550d"/>
<text x="582" y="650" fill="#222">generateOutput (self)</text>
<rect x="843" y="640" width="12" height="12" fill="#969696"/>
<text x="859" y="650" fill="#222">compileInner (self)</text>
</svg>