<svg xmlns="http://www.w3.org/2000/svg" xmlns:xlink="http://www.w3.org/1999/xlink" width="1132" height="680" viewBox="0 0 1132 680" preserveAspectRatio="xMidYMid meet" font-family="sans-serif" font-size="13">
<rect width="1132" height="680" fill="white"/>
<text x="12" y="30" font-size="20" font-weight="bold">reflection_layout — full phase breakdown across releases (median ms)</text>
<text x="68" y="60" font-size="15" font-weight="600" fill="#1a1a1a">reflection_layout<tspan fill="#888" font-weight="400" text-decoration="none">  0.80×</tspan></text>
<line x1="68.0" y1="516.0" x2="1108.0" y2="516.0" stroke="#eee"/>
<text x="64.0" y="519.0" text-anchor="end" fill="#999">0.0</text>
<line x1="68.0" y1="296.0" x2="1108.0" y2="296.0" stroke="#eee"/>
<text x="64.0" y="299.0" text-anchor="end" fill="#999">152</text>
<line x1="68.0" y1="76.0" x2="1108.0" y2="76.0" stroke="#eee"/>
<text x="64.0" y="79.0" text-anchor="end" fill="#999">304</text>
<line x1="68.0" y1="76.0" x2="68.0" y2="516.0" stroke="#333"/>
<line x1="68.0" y1="516.0" x2="1108.0" y2="516.0" stroke="#333"/>
<line x1="68.0" y1="516.0" x2="68.0" y2="519.0" stroke="#999"/>
<text x="68.0" y="531.0" text-anchor="end" fill="#666" transform="rotate(-50 68.0 531.0)">25.14</text>
<line x1="120.0" y1="516.0" x2="120.0" y2="519.0" stroke="#999"/>
<text x="120.0" y="531.0" text-anchor="end" fill="#666" transform="rotate(-50 120.0 531.0)">25.15</text>
<line x1="172.0" y1="516.0" x2="172.0" y2="519.0" stroke="#999"/>
<text x="172.0" y="531.0" text-anchor="end" fill="#666" transform="rotate(-50 172.0 531.0)">25.16</text>
<line x1="224.0" y1="516.0" x2="224.0" y2="519.0" stroke="#999"/>
<text x="224.0" y="531.0" text-anchor="end" fill="#666" transform="rotate(-50 224.0 531.0)">25.17</text>
<line x1="276.0" y1="516.0" x2="276.0" y2="519.0" stroke="#999"/>
<text x="276.0" y="531.0" text-anchor="end" fill="#666" transform="rotate(-50 276.0 531.0)">25.18</text>
<line x1="328.0" y1="516.0" x2="328.0" y2="519.0" stroke="#999"/>
<text x="328.0" y="531.0" text-anchor="end" fill="#666" transform="rotate(-50 328.0 531.0)">25.19</text>
<line x1="380.0" y1="516.0" x2="380.0" y2="519.0" stroke="#999"/>
<text x="380.0" y="531.0" text-anchor="end" fill="#666" transform="rotate(-50 380.0 531.0)">25.20</text>
<line x1="432.0" y1="516.0" x2="432.0" y2="519.0" stroke="#999"/>
<text x="432.0" y="531.0" text-anchor="end" fill="#666" transform="rotate(-50 432.0 531.0)">25.21</text>
<line x1="484.0" y1="516.0" x2="484.0" y2="519.0" stroke="#999"/>
<text x="484.0" y="531.0" text-anchor="end" fill="#666" transform="rotate(-50 484.0 531.0)">25.22</text>
<line x1="536.0" y1="516.0" x2="536.0" y2="519.0" stroke="#999"/>
<text x="536.0" y="531.0" text-anchor="end" fill="#666" transform="rotate(-50 536.0 531.0)">25.23</text>
<line x1="588.0" y1="516.0" x2="588.0" y2="519.0" stroke="#999"/>
<text x="588.0" y="531.0" text-anchor="end" fill="#666" transform="rotate(-50 588.0 531.0)">25.24</text>
<line x1="640.0" y1="516.0" x2="640.0" y2="519.0" stroke="#999"/>
<text x="640.0" y="531.0" text-anchor="end" fill="#666" transform="rotate(-50 640.0 531.0)">26.1</text>
<line x1="692.0" y1="516.0" x2="692.0" y2="519.0" stroke="#999"/>
<text x="692.0" y="531.0" text-anchor="end" fill="#666" transform="rotate(-50 692.0 531.0)">26.2</text>
<line x1="744.0" y1="516.0" x2="744.0" y2="519.0" stroke="#999"/>
<text x="744.0" y="531.0" text-anchor="end" fill="#666" transform="rotate(-50 744.0 531.0)">26.3</text>
<line x1="796.0" y1="516.0" x2="796.0" y2="519.0" stroke="#999"/>
<text x="796.0" y="531.0" text-anchor="end" fill="#666" transform="rotate(-50 796.0 531.0)">26.4</text>
<line x1="848.0" y1="516.0" x2="848.0" y2="519.0" stroke="#999"/>
<text x="848.0" y="531.0" text-anchor="end" fill="#666" transform="rotate(-50 848.0 531.0)">26.5</text>
<line x1="900.0" y1="516.0" x2="900.0" y2="519.0" stroke="#999"/>
<text x="900.0" y="531.0" text-anchor="end" fill="#666" transform="rotate(-50 900.0 531.0)">26.7</text>
<line x1="952.0" y1="516.0" x2="952.0" y2="519.0" stroke="#999"/>
<text x="952.0" y="531.0" text-anchor="end" fill="#666" transform="rotate(-50 952.0 531.0)">26.8</text>
<line x1="1004.0" y1="516.0" x2="1004.0" y2="519.0" stroke="#999"/>
<text x="1004.0" y="531.0" text-anchor="end" fill="#666" transform="rotate(-50 1004.0 531.0)">26.9</text>
<line x1="1056.0" y1="516.0" x2="1056.0" y2="519.0" stroke="#999"/>
<text x="1056.0" y="531.0" text-anchor="end" fill="#666" transform="rotate(-50 1056.0 531.0)">26.10</text>
<line x1="1108.0" y1="516.0" x2="1108.0" y2="519.0" stroke="#999"/>
<text x="1108.0" y="531.0" text-anchor="end" fill="#666" transform="rotate(-50 1108.0 531.0)">26.11</text>
<polygon points="68.0,510.0 120.0,510.1 172.0,510.1 224.0,510.1 276.0,510.1 328.0,510.1 380.0,510.0 432.0,510.1 484.0,510.1 536.0,510.1 588.0,509.8 640.0,509.9 692.0,510.0 744.0,509.9 796.0,509.6 848.0,509.6 900.0,509.6 952.0,509.6 1004.0,509.6 1056.0,509.5 1108.0,509.7 1108.0,516.0 1056.0,516.0 1004.0,516.0 952.0,516.0 900.0,516.0 848.0,516.0 796.0,516.0 744.0,516.0 692.0,516.0 640.0,516.0 588.0,516.0 536.0,516.0 484.0,516.0 432.0,516.0 380.0,516.0 328.0,516.0 276.0,516.0 224.0,516.0 172.0,516.0 120.0,516.0 68.0,516.0" fill="#c7e9c0" fill-opacity="0.9" stroke="#fff" stroke-width="0.4"><title>reflection_layout — parseTranslationUnit</title></polygon>
<polygon points="68.0,379.4 120.0,371.3 172.0,370.6 224.0,370.1 276.0,372.0 328.0,370.0 380.0,367.9 432.0,370.7 484.0,369.5 536.0,368.0 588.0,367.2 640.0,365.9 692.0,370.0 744.0,370.2 796.0,363.6 848.0,365.6 900.0,379.7 952.0,379.3 1004.0,379.7 1056.0,380.3 1108.0,424.0 1108.0,509.7 1056.0,509.5 1004.0,509.6 952.0,509.6 900.0,509.6 848.0,509.6 796.0,509.6 744.0,509.9 692.0,510.0 640.0,509.9 588.0,509.8 536.0,510.1 484.0,510.1 432.0,510.1 380.0,510.0 328.0,510.1 276.0,510.1 224.0,510.1 172.0,510.1 120.0,510.1 68.0,510.0" fill="#41ab5d" fill-opacity="0.9" stroke="#fff" stroke-width="0.4"><title>reflection_layout — SemanticChecking</title></polygon>
<polygon points="68.0,360.2 120.0,351.8 172.0,351.5 224.0,350.2 276.0,352.1 328.0,350.4 380.0,348.0 432.0,350.9 484.0,349.6 536.0,348.3 588.0,347.4 640.0,345.7 692.0,349.9 744.0,349.9 796.0,342.8 848.0,344.7 900.0,351.2 952.0,350.8 1004.0,351.6 1056.0,351.8 1108.0,407.0 1108.0,424.0 1056.0,380.3 1004.0,379.7 952.0,379.3 900.0,379.7 848.0,365.6 796.0,363.6 744.0,370.2 692.0,370.0 640.0,365.9 588.0,367.2 536.0,368.0 484.0,369.5 432.0,370.7 380.0,367.9 328.0,370.0 276.0,372.0 224.0,370.1 172.0,370.6 120.0,371.3 68.0,379.4" fill="#006d2c" fill-opacity="0.9" stroke="#fff" stroke-width="0.4"><title>reflection_layout — generateIR</title></polygon>
<polygon points="68.0,350.1 120.0,341.9 172.0,341.2 224.0,340.3 276.0,342.0 328.0,339.7 380.0,338.1 432.0,340.5 484.0,338.6 536.0,338.1 588.0,336.6 640.0,335.8 692.0,339.5 744.0,339.9 796.0,331.9 848.0,333.3 900.0,339.6 952.0,339.6 1004.0,341.0 1056.0,340.9 1108.0,396.5 1108.0,407.0 1056.0,351.8 1004.0,351.6 952.0,350.8 900.0,351.2 848.0,344.7 796.0,342.8 744.0,349.9 692.0,349.9 640.0,345.7 588.0,347.4 536.0,348.3 484.0,349.6 432.0,350.9 380.0,348.0 328.0,350.4 276.0,352.1 224.0,350.2 172.0,351.5 120.0,351.8 68.0,360.2" fill="#74c476" fill-opacity="0.9" stroke="#fff" stroke-width="0.4"><title>reflection_layout — frontEndExecute (self)</title></polygon>
<polygon points="68.0,347.3 120.0,339.2 172.0,338.5 224.0,337.5 276.0,339.2 328.0,336.9 380.0,335.2 432.0,337.5 484.0,335.8 536.0,335.2 588.0,333.4 640.0,332.5 692.0,336.3 744.0,336.7 796.0,328.6 848.0,330.1 900.0,322.9 952.0,322.8 1004.0,324.2 1056.0,323.9 1108.0,381.4 1108.0,396.5 1056.0,340.9 1004.0,341.0 952.0,339.6 900.0,339.6 848.0,333.3 796.0,331.9 744.0,339.9 692.0,339.5 640.0,335.8 588.0,336.6 536.0,338.1 484.0,338.6 432.0,340.5 380.0,338.1 328.0,339.7 276.0,342.0 224.0,340.3 172.0,341.2 120.0,341.9 68.0,350.1" fill="#6baed6" fill-opacity="0.9" stroke="#fff" stroke-width="0.4"><title>reflection_layout — specializeModule</title></polygon>
<polygon points="68.0,300.1 120.0,291.6 172.0,290.8 224.0,289.8 276.0,290.5 328.0,287.9 380.0,286.1 432.0,288.7 484.0,286.7 536.0,286.2 588.0,286.2 640.0,302.9 692.0,306.7 744.0,306.8 796.0,297.6 848.0,299.3 900.0,287.0 952.0,286.8 1004.0,288.6 1056.0,288.0 1108.0,352.5 1108.0,381.4 1056.0,323.9 1004.0,324.2 952.0,322.8 900.0,322.9 848.0,330.1 796.0,328.6 744.0,336.7 692.0,336.3 640.0,332.5 588.0,333.4 536.0,335.2 484.0,335.8 432.0,337.5 380.0,335.2 328.0,336.9 276.0,339.2 224.0,337.5 172.0,338.5 120.0,339.2 68.0,347.3" fill="#2171b5" fill-opacity="0.9" stroke="#fff" stroke-width="0.4"><title>reflection_layout — simplifyIR</title></polygon>
<polygon points="68.0,294.2 120.0,286.3 172.0,285.8 224.0,284.4 276.0,285.1 328.0,282.6 380.0,280.7 432.0,283.3 484.0,281.2 536.0,280.7 588.0,280.7 640.0,297.3 692.0,301.3 744.0,301.3 796.0,291.3 848.0,293.3 900.0,266.4 952.0,268.2 1004.0,270.5 1056.0,269.7 1108.0,347.4 1108.0,352.5 1056.0,288.0 1004.0,288.6 952.0,286.8 900.0,287.0 848.0,299.3 796.0,297.6 744.0,306.8 692.0,306.7 640.0,302.9 588.0,286.2 536.0,286.2 484.0,286.7 432.0,288.7 380.0,286.1 328.0,287.9 276.0,290.5 224.0,289.8 172.0,290.8 120.0,291.6 68.0,300.1" fill="#08306b" fill-opacity="0.9" stroke="#fff" stroke-width="0.4"><title>reflection_layout — linkIR</title></polygon>
<polygon points="68.0,294.2 120.0,286.3 172.0,285.7 224.0,284.3 276.0,285.1 328.0,282.5 380.0,280.7 432.0,283.2 484.0,281.2 536.0,280.7 588.0,280.7 640.0,297.3 692.0,301.2 744.0,301.2 796.0,291.2 848.0,293.3 900.0,266.4 952.0,268.1 1004.0,270.5 1056.0,269.7 1108.0,347.3 1108.0,347.4 1056.0,269.7 1004.0,270.5 952.0,268.2 900.0,266.4 848.0,293.3 796.0,291.3 744.0,301.3 692.0,301.3 640.0,297.3 588.0,280.7 536.0,280.7 484.0,281.2 432.0,283.3 380.0,280.7 328.0,282.6 276.0,285.1 224.0,284.4 172.0,285.8 120.0,286.3 68.0,294.2" fill="#9e9ac8" fill-opacity="0.9" stroke="#fff" stroke-width="0.4"><title>reflection_layout — unrollLoopsInModule</title></polygon>
<polygon points="68.0,276.3 120.0,269.1 172.0,268.2 224.0,267.2 276.0,269.8 328.0,266.7 380.0,264.8 432.0,267.4 484.0,265.4 536.0,264.8 588.0,264.9 640.0,281.7 692.0,285.5 744.0,285.6 796.0,275.0 848.0,277.3 900.0,250.5 952.0,252.1 1004.0,254.7 1056.0,253.8 1108.0,333.9 1108.0,347.3 1056.0,269.7 1004.0,270.5 952.0,268.1 900.0,266.4 848.0,293.3 796.0,291.2 744.0,301.2 692.0,301.2 640.0,297.3 588.0,280.7 536.0,280.7 484.0,281.2 432.0,283.2 380.0,280.7 328.0,282.5 276.0,285.1 224.0,284.3 172.0,285.7 120.0,286.3 68.0,294.2" fill="#807dba" fill-opacity="0.9" stroke="#fff" stroke-width="0.4"><title>reflection_layout — legalizeResourceTypes</title></polygon>
<polygon points="68.0,256.0 120.0,249.4 172.0,248.3 224.0,247.7 276.0,256.3 328.0,252.7 380.0,250.9 432.0,253.7 484.0,251.5 536.0,250.9 588.0,251.0 640.0,267.9 692.0,271.8 744.0,271.8 796.0,260.8 848.0,263.3 900.0,237.4 952.0,238.7 1004.0,241.6 1056.0,240.6 1108.0,321.0 1108.0,333.9 1056.0,253.8 1004.0,254.7 952.0,252.1 900.0,250.5 848.0,277.3 796.0,275.0 744.0,285.6 692.0,285.5 640.0,281.7 588.0,264.9 536.0,264.8 484.0,265.4 432.0,267.4 380.0,264.8 328.0,266.7 276.0,269.8 224.0,267.2 172.0,268.2 120.0,269.1 68.0,276.3" fill="#6a51a3" fill-opacity="0.9" stroke="#fff" stroke-width="0.4"><title>reflection_layout — legalizeExistentialTypeLayout</title></polygon>
<polygon points="68.0,255.0 120.0,248.3 172.0,247.3 224.0,246.6 276.0,255.2 328.0,251.6 380.0,249.8 432.0,252.6 484.0,250.4 536.0,249.8 588.0,249.9 640.0,266.8 692.0,270.8 744.0,270.7 796.0,259.7 848.0,262.1 900.0,236.3 952.0,237.6 1004.0,240.5 1056.0,239.5 1108.0,319.9 1108.0,321.0 1056.0,240.6 1004.0,241.6 952.0,238.7 900.0,237.4 848.0,263.3 796.0,260.8 744.0,271.8 692.0,271.8 640.0,267.9 588.0,251.0 536.0,250.9 484.0,251.5 432.0,253.7 380.0,250.9 328.0,252.7 276.0,256.3 224.0,247.7 172.0,248.3 120.0,249.4 68.0,256.0" fill="#bcbddc" fill-opacity="0.9" stroke="#fff" stroke-width="0.4"><title>reflection_layout — performMandatoryEarlyInlining</title></polygon>
<polygon points="68.0,243.0 120.0,236.2 172.0,235.2 224.0,231.2 276.0,239.7 328.0,236.0 380.0,234.4 432.0,236.6 484.0,234.5 536.0,234.0 588.0,234.3 640.0,259.7 692.0,263.4 744.0,263.6 796.0,252.4 848.0,254.8 900.0,229.2 952.0,230.8 1004.0,233.6 1056.0,232.5 1108.0,313.1 1108.0,319.9 1056.0,239.5 1004.0,240.5 952.0,237.6 900.0,236.3 848.0,262.1 796.0,259.7 744.0,270.7 692.0,270.8 640.0,266.8 588.0,249.9 536.0,249.8 484.0,250.4 432.0,252.6 380.0,249.8 328.0,251.6 276.0,255.2 224.0,246.6 172.0,247.3 120.0,248.3 68.0,255.0" fill="#dadaeb" fill-opacity="0.9" stroke="#fff" stroke-width="0.4"><title>reflection_layout — performForceInlining</title></polygon>
<polygon points="68.0,198.2 120.0,192.3 172.0,190.8 224.0,186.3 276.0,194.4 328.0,191.0 380.0,185.7 432.0,190.4 484.0,188.4 536.0,186.9 588.0,192.0 640.0,226.0 692.0,231.2 744.0,230.9 796.0,215.2 848.0,219.1 900.0,165.7 952.0,167.4 1004.0,172.0 1056.0,169.4 1108.0,262.1 1108.0,313.1 1056.0,232.5 1004.0,233.6 952.0,230.8 900.0,229.2 848.0,254.8 796.0,252.4 744.0,263.6 692.0,263.4 640.0,259.7 588.0,234.3 536.0,234.0 484.0,234.5 432.0,236.6 380.0,234.4 328.0,236.0 276.0,239.7 224.0,231.2 172.0,235.2 120.0,236.2 68.0,243.0" fill="#4a1486" fill-opacity="0.9" stroke="#fff" stroke-width="0.4"><title>reflection_layout — linkAndOptimizeIR (self)</title></polygon>
<polygon points="68.0,141.9 120.0,136.2 172.0,134.5 224.0,135.3 276.0,147.1 328.0,144.0 380.0,139.4 432.0,145.0 484.0,142.1 536.0,141.2 588.0,146.3 640.0,180.5 692.0,185.0 744.0,185.4 796.0,168.3 848.0,172.8 900.0,120.2 952.0,120.4 1004.0,126.1 1056.0,122.6 1108.0,217.3 1108.0,262.1 1056.0,169.4 1004.0,172.0 952.0,167.4 900.0,165.7 848.0,219.1 796.0,215.2 744.0,230.9 692.0,231.2 640.0,226.0 588.0,192.0 536.0,186.9 484.0,188.4 432.0,190.4 380.0,185.7 328.0,191.0 276.0,194.4 224.0,186.3 172.0,190.8 120.0,192.3 68.0,198.2" fill="#e6550d" fill-opacity="0.9" stroke="#fff" stroke-width="0.4"><title>reflection_layout — generateOutput (self)</title></polygon>
<polygon points="68.0,131.8 120.0,126.5 172.0,124.9 224.0,124.5 276.0,137.5 328.0,134.5 380.0,127.0 432.0,135.2 484.0,132.4 536.0,131.2 588.0,134.9 640.0,170.8 692.0,175.1 744.0,174.6 796.0,157.3 848.0,161.9 900.0,108.6 952.0,109.6 1004.0,114.2 1056.0,110.0 1108.0,206.9 1108.0,217.3 1056.0,122.6 1004.0,126.1 952.0,120.4 900.0,120.2 848.0,172.8 796.0,168.3 744.0,185.4 692.0,185.0 640.0,180.5 588.0,146.3 536.0,141.2 484.0,142.1 432.0,145.0 380.0,139.4 328.0,144.0 276.0,147.1 224.0,135.3 172.0,134.5 120.0,136.2 68.0,141.9" fill="#969696" fill-opacity="0.9" stroke="#fff" stroke-width="0.4"><title>reflection_layout — compileInner (self)</title></polygon>
<text x="12" y="578" fill="#666" font-weight="600">phase buckets</text>
<rect x="12" y="586" width="12" height="12" fill="#c7e9c0"/>
<text x="28" y="596" fill="#222">parseTranslationUnit</text>
<rect x="289" y="586" width="12" height="12" fill="#41ab5d"/>
<text x="305" y="596" fill="#222">SemanticChecking</text>
<rect x="566" y="586" width="12" height="12" fill="#006d2c"/>
<text x="582" y="596" fill="#222">generateIR</text>
<rect x="843" y="586" width="12" height="12" fill="#74c476"/>
<text x="859" y="596" fill="#222">frontEndExecute (self)</text>
<rect x="12" y="604" width="12" height="12" fill="#6baed6"/>
<text x="28" y="614" fill="#222">specializeModule</text>
<rect x="289" y="604" width="12" height="12" fill="#2171b5"/>
<text x="305" y="614" fill="#222">simplifyIR</text>
<rect x="566" y="604" width="12" height="12" fill="#08306b"/>
<text x="582" y="614" fill="#222">linkIR</text>
<rect x="843" y="604" width="12" height="12" fill="#9e9ac8"/>
<text x="859" y="614" fill="#222">unrollLoopsInModule</text>
<rect x="12" y="622" width="12" height="12" fill="#807dba"/>
<text x="28" y="632" fill="#222">legalizeResourceTypes</text>
<rect x="289" y="622" width="12" height="12" fill="#6a51a3"/>
<text x="305" y="632" fill="#222">legalizeExistentialTypeLayout</text>
<rect x="566" y="622" width="12" height="12" fill="#bcbddc"/>
<text x="582" y="632" fill="#222">performMandatoryEarlyInlining</text>
<rect x="843" y="622" width="12" height="12" fill="#dadaeb"/>
<text x="859" y="632" fill="#222">performForceInlining</text>
<rect x="12" y="640" width="12" height="12" fill="#4a1486"/>
<text x="28" y="650" fill="#222">linkAndOptimizeIR (self)</text>
<rect x="289" y="640" width="12" height="12" fill="#fd8d3c"/>
<text x="305" y="650" fill="#222">emitEntryPointsSourceFromIR</text>
<rect x="566" y="640" width="12" height="12" fill="#e6550d"/>
<text x="582" y="650" fill="#222">generateOutput (self)</text>
<rect x="843" y="640" width="12" height="12" fill="#969696"/>
<text x="859" y="650" fill="#222">compileInner (self)</text>
</svg>