<svg xmlns="http://www.w3.org/2000/svg" xmlns:xlink="http://www.w3.org/1999/xlink" width="1132" height="680" viewBox="0 0 1132 680" preserveAspectRatio="xMidYMid meet" font-family="sans-serif" font-size="13">
<rect width="1132" height="680" fill="white"/>
<text x="12" y="30" font-size="20" font-weight="bold">reflection_layout — full phase breakdown across releases (median ms)</text>
<text x="68" y="60" font-size="15" font-weight="600" fill="#1a1a1a">reflection_layout<tspan fill="#888" font-weight="400" text-decoration="none">  0.91×</tspan></text>
<line x1="68.0" y1="516.0" x2="1108.0" y2="516.0" stroke="#eee"/>
<text x="64.0" y="519.0" text-anchor="end" fill="#999">0.0</text>
<line x1="68.0" y1="296.0" x2="1108.0" y2="296.0" stroke="#eee"/>
<text x="64.0" y="299.0" text-anchor="end" fill="#999">152</text>
<line x1="68.0" y1="76.0" x2="1108.0" y2="76.0" stroke="#eee"/>
<text x="64.0" y="79.0" text-anchor="end" fill="#999">304</text>
<line x1="68.0" y1="76.0" x2="68.0" y2="516.0" stroke="#333"/>
<line x1="68.0" y1="516.0" x2="1108.0" y2="516.0" stroke="#333"/>
<line x1="888.0" y1="76.0" x2="888.0" y2="516.0" stroke="#e8731a" stroke-width="1.2" stroke-dasharray="4 3"/>
<text x="891.0" y="87.0" fill="#e8731a" font-size="11">daily →</text>
<line x1="68.0" y1="516.0" x2="68.0" y2="519.0" stroke="#999"/>
<text x="68.0" y="531.0" text-anchor="end" fill="#666" transform="rotate(-50 68.0 531.0)">25.14</text>
<line x1="108.0" y1="516.0" x2="108.0" y2="519.0" stroke="#999"/>
<text x="108.0" y="531.0" text-anchor="end" fill="#666" transform="rotate(-50 108.0 531.0)">25.15</text>
<line x1="148.0" y1="516.0" x2="148.0" y2="519.0" stroke="#999"/>
<text x="148.0" y="531.0" text-anchor="end" fill="#666" transform="rotate(-50 148.0 531.0)">25.16</text>
<line x1="188.0" y1="516.0" x2="188.0" y2="519.0" stroke="#999"/>
<text x="188.0" y="531.0" text-anchor="end" fill="#666" transform="rotate(-50 188.0 531.0)">25.17</text>
<line x1="228.0" y1="516.0" x2="228.0" y2="519.0" stroke="#999"/>
<text x="228.0" y="531.0" text-anchor="end" fill="#666" transform="rotate(-50 228.0 531.0)">25.18</text>
<line x1="268.0" y1="516.0" x2="268.0" y2="519.0" stroke="#999"/>
<text x="268.0" y="531.0" text-anchor="end" fill="#666" transform="rotate(-50 268.0 531.0)">25.19</text>
<line x1="308.0" y1="516.0" x2="308.0" y2="519.0" stroke="#999"/>
<text x="308.0" y="531.0" text-anchor="end" fill="#666" transform="rotate(-50 308.0 531.0)">25.20</text>
<line x1="348.0" y1="516.0" x2="348.0" y2="519.0" stroke="#999"/>
<text x="348.0" y="531.0" text-anchor="end" fill="#666" transform="rotate(-50 348.0 531.0)">25.21</text>
<line x1="388.0" y1="516.0" x2="388.0" y2="519.0" stroke="#999"/>
<text x="388.0" y="531.0" text-anchor="end" fill="#666" transform="rotate(-50 388.0 531.0)">25.22</text>
<line x1="428.0" y1="516.0" x2="428.0" y2="519.0" stroke="#999"/>
<text x="428.0" y="531.0" text-anchor="end" fill="#666" transform="rotate(-50 428.0 531.0)">25.23</text>
<line x1="468.0" y1="516.0" x2="468.0" y2="519.0" stroke="#999"/>
<text x="468.0" y="531.0" text-anchor="end" fill="#666" transform="rotate(-50 468.0 531.0)">25.24</text>
<line x1="508.0" y1="516.0" x2="508.0" y2="519.0" stroke="#999"/>
<text x="508.0" y="531.0" text-anchor="end" fill="#666" transform="rotate(-50 508.0 531.0)">26.1</text>
<line x1="548.0" y1="516.0" x2="548.0" y2="519.0" stroke="#999"/>
<text x="548.0" y="531.0" text-anchor="end" fill="#666" transform="rotate(-50 548.0 531.0)">26.2</text>
<line x1="588.0" y1="516.0" x2="588.0" y2="519.0" stroke="#999"/>
<text x="588.0" y="531.0" text-anchor="end" fill="#666" transform="rotate(-50 588.0 531.0)">26.3</text>
<line x1="628.0" y1="516.0" x2="628.0" y2="519.0" stroke="#999"/>
<text x="628.0" y="531.0" text-anchor="end" fill="#666" transform="rotate(-50 628.0 531.0)">26.4</text>
<line x1="668.0" y1="516.0" x2="668.0" y2="519.0" stroke="#999"/>
<text x="668.0" y="531.0" text-anchor="end" fill="#666" transform="rotate(-50 668.0 531.0)">26.5</text>
<line x1="708.0" y1="516.0" x2="708.0" y2="519.0" stroke="#999"/>
<text x="708.0" y="531.0" text-anchor="end" fill="#666" transform="rotate(-50 708.0 531.0)">26.7</text>
<line x1="748.0" y1="516.0" x2="748.0" y2="519.0" stroke="#999"/>
<text x="748.0" y="531.0" text-anchor="end" fill="#666" transform="rotate(-50 748.0 531.0)">26.8</text>
<line x1="788.0" y1="516.0" x2="788.0" y2="519.0" stroke="#999"/>
<text x="788.0" y="531.0" text-anchor="end" fill="#666" transform="rotate(-50 788.0 531.0)">26.9</text>
<line x1="828.0" y1="516.0" x2="828.0" y2="519.0" stroke="#999"/>
<text x="828.0" y="531.0" text-anchor="end" fill="#666" transform="rotate(-50 828.0 531.0)">26.10</text>
<line x1="868.0" y1="516.0" x2="868.0" y2="519.0" stroke="#999"/>
<text x="868.0" y="531.0" text-anchor="end" fill="#666" transform="rotate(-50 868.0 531.0)">26.11</text>
<line x1="908.0" y1="516.0" x2="908.0" y2="519.0" stroke="#999"/>
<text x="908.0" y="531.0" text-anchor="end" fill="#e8731a" transform="rotate(-50 908.0 531.0)">06-25</text>
<line x1="948.0" y1="516.0" x2="948.0" y2="519.0" stroke="#999"/>
<text x="948.0" y="531.0" text-anchor="end" fill="#e8731a" transform="rotate(-50 948.0 531.0)">06-26</text>
<line x1="988.0" y1="516.0" x2="988.0" y2="519.0" stroke="#999"/>
<text x="988.0" y="531.0" text-anchor="end" fill="#e8731a" transform="rotate(-50 988.0 531.0)">06-28</text>
<line x1="1028.0" y1="516.0" x2="1028.0" y2="519.0" stroke="#999"/>
<text x="1028.0" y="531.0" text-anchor="end" fill="#e8731a" transform="rotate(-50 1028.0 531.0)">07-01</text>
<line x1="1068.0" y1="516.0" x2="1068.0" y2="519.0" stroke="#999"/>
<text x="1068.0" y="531.0" text-anchor="end" fill="#e8731a" transform="rotate(-50 1068.0 531.0)">07-02</text>
<line x1="1108.0" y1="516.0" x2="1108.0" y2="519.0" stroke="#999"/>
<text x="1108.0" y="531.0" text-anchor="end" fill="#e8731a" transform="rotate(-50 1108.0 531.0)">07-03</text>
<polygon points="68.0,510.0 108.0,510.1 148.0,510.1 188.0,510.1 228.0,510.1 268.0,510.1 308.0,510.0 348.0,510.1 388.0,510.1 428.0,510.1 468.0,509.8 508.0,509.9 548.0,510.0 588.0,509.9 628.0,509.6 668.0,509.6 708.0,509.6 748.0,509.6 788.0,509.6 828.0,509.5 868.0,509.7 908.0,509.4 948.0,509.4 988.0,509.5 1028.0,509.4 1068.0,509.4 1108.0,509.2 1108.0,516.0 1068.0,516.0 1028.0,516.0 988.0,516.0 948.0,516.0 908.0,516.0 868.0,516.0 828.0,516.0 788.0,516.0 748.0,516.0 708.0,516.0 668.0,516.0 628.0,516.0 588.0,516.0 548.0,516.0 508.0,516.0 468.0,516.0 428.0,516.0 388.0,516.0 348.0,516.0 308.0,516.0 268.0,516.0 228.0,516.0 188.0,516.0 148.0,516.0 108.0,516.0 68.0,516.0" fill="#c7e9c0" fill-opacity="0.9" stroke="#fff" stroke-width="0.4"><title>reflection_layout — parseTranslationUnit</title></polygon>
<polygon points="68.0,379.4 108.0,371.3 148.0,370.6 188.0,370.1 228.0,372.0 268.0,370.0 308.0,367.9 348.0,370.7 388.0,369.5 428.0,368.0 468.0,367.2 508.0,365.9 548.0,370.0 588.0,370.2 628.0,363.6 668.0,365.6 708.0,379.7 748.0,379.3 788.0,379.7 828.0,380.3 868.0,424.0 908.0,409.3 948.0,408.7 988.0,408.5 1028.0,408.9 1068.0,407.6 1108.0,407.2 1108.0,509.2 1068.0,509.4 1028.0,509.4 988.0,509.5 948.0,509.4 908.0,509.4 868.0,509.7 828.0,509.5 788.0,509.6 748.0,509.6 708.0,509.6 668.0,509.6 628.0,509.6 588.0,509.9 548.0,510.0 508.0,509.9 468.0,509.8 428.0,510.1 388.0,510.1 348.0,510.1 308.0,510.0 268.0,510.1 228.0,510.1 188.0,510.1 148.0,510.1 108.0,510.1 68.0,510.0" fill="#41ab5d" fill-opacity="0.9" stroke="#fff" stroke-width="0.4"><title>reflection_layout — SemanticChecking</title></polygon>
<polygon points="68.0,360.2 108.0,351.8 148.0,351.5 188.0,350.2 228.0,352.1 268.0,350.4 308.0,348.0 348.0,350.9 388.0,349.6 428.0,348.3 468.0,347.4 508.0,345.7 548.0,349.9 588.0,349.9 628.0,342.8 668.0,344.7 708.0,351.2 748.0,350.8 788.0,351.6 828.0,351.8 868.0,407.0 908.0,390.9 948.0,390.8 988.0,390.5 1028.0,390.7 1068.0,389.3 1108.0,387.8 1108.0,407.2 1068.0,407.6 1028.0,408.9 988.0,408.5 948.0,408.7 908.0,409.3 868.0,424.0 828.0,380.3 788.0,379.7 748.0,379.3 708.0,379.7 668.0,365.6 628.0,363.6 588.0,370.2 548.0,370.0 508.0,365.9 468.0,367.2 428.0,368.0 388.0,369.5 348.0,370.7 308.0,367.9 268.0,370.0 228.0,372.0 188.0,370.1 148.0,370.6 108.0,371.3 68.0,379.4" fill="#006d2c" fill-opacity="0.9" stroke="#fff" stroke-width="0.4"><title>reflection_layout — generateIR</title></polygon>
<polygon points="68.0,350.1 108.0,341.9 148.0,341.2 188.0,340.3 228.0,342.0 268.0,339.7 308.0,338.1 348.0,340.5 388.0,338.6 428.0,338.1 468.0,336.6 508.0,335.8 548.0,339.5 588.0,339.9 628.0,331.9 668.0,333.3 708.0,339.6 748.0,339.6 788.0,341.0 828.0,340.9 868.0,396.5 908.0,380.2 948.0,380.0 988.0,378.9 1028.0,379.3 1068.0,378.0 1108.0,376.3 1108.0,387.8 1068.0,389.3 1028.0,390.7 988.0,390.5 948.0,390.8 908.0,390.9 868.0,407.0 828.0,351.8 788.0,351.6 748.0,350.8 708.0,351.2 668.0,344.7 628.0,342.8 588.0,349.9 548.0,349.9 508.0,345.7 468.0,347.4 428.0,348.3 388.0,349.6 348.0,350.9 308.0,348.0 268.0,350.4 228.0,352.1 188.0,350.2 148.0,351.5 108.0,351.8 68.0,360.2" fill="#74c476" fill-opacity="0.9" stroke="#fff" stroke-width="0.4"><title>reflection_layout — frontEndExecute (self)</title></polygon>
<polygon points="68.0,347.3 108.0,339.2 148.0,338.5 188.0,337.5 228.0,339.2 268.0,336.9 308.0,335.2 348.0,337.5 388.0,335.8 428.0,335.2 468.0,333.4 508.0,332.5 548.0,336.3 588.0,336.7 628.0,328.6 668.0,330.1 708.0,322.9 748.0,322.8 788.0,324.2 828.0,323.9 868.0,381.4 908.0,363.6 948.0,363.4 988.0,362.3 1028.0,362.5 1068.0,361.2 1108.0,359.1 1108.0,376.3 1068.0,378.0 1028.0,379.3 988.0,378.9 948.0,380.0 908.0,380.2 868.0,396.5 828.0,340.9 788.0,341.0 748.0,339.6 708.0,339.6 668.0,333.3 628.0,331.9 588.0,339.9 548.0,339.5 508.0,335.8 468.0,336.6 428.0,338.1 388.0,338.6 348.0,340.5 308.0,338.1 268.0,339.7 228.0,342.0 188.0,340.3 148.0,341.2 108.0,341.9 68.0,350.1" fill="#6baed6" fill-opacity="0.9" stroke="#fff" stroke-width="0.4"><title>reflection_layout — specializeModule</title></polygon>
<polygon points="68.0,300.1 108.0,291.6 148.0,290.8 188.0,289.8 228.0,290.5 268.0,287.9 308.0,286.1 348.0,288.7 388.0,286.7 428.0,286.2 468.0,286.2 508.0,302.9 548.0,306.7 588.0,306.8 628.0,297.6 668.0,299.3 708.0,287.0 748.0,286.8 788.0,288.6 828.0,288.0 868.0,352.5 908.0,332.7 948.0,332.8 988.0,331.7 1028.0,331.8 1068.0,331.4 1108.0,328.6 1108.0,359.1 1068.0,361.2 1028.0,362.5 988.0,362.3 948.0,363.4 908.0,363.6 868.0,381.4 828.0,323.9 788.0,324.2 748.0,322.8 708.0,322.9 668.0,330.1 628.0,328.6 588.0,336.7 548.0,336.3 508.0,332.5 468.0,333.4 428.0,335.2 388.0,335.8 348.0,337.5 308.0,335.2 268.0,336.9 228.0,339.2 188.0,337.5 148.0,338.5 108.0,339.2 68.0,347.3" fill="#2171b5" fill-opacity="0.9" stroke="#fff" stroke-width="0.4"><title>reflection_layout — simplifyIR</title></polygon>
<polygon points="68.0,294.2 108.0,286.3 148.0,285.8 188.0,284.4 228.0,285.1 268.0,282.6 308.0,280.7 348.0,283.3 388.0,281.2 428.0,280.7 468.0,280.7 508.0,297.3 548.0,301.3 588.0,301.3 628.0,291.3 668.0,293.3 708.0,266.4 748.0,268.2 788.0,270.5 828.0,269.7 868.0,347.4 908.0,327.4 948.0,327.4 988.0,326.4 1028.0,326.5 1068.0,326.1 1108.0,322.9 1108.0,328.6 1068.0,331.4 1028.0,331.8 988.0,331.7 948.0,332.8 908.0,332.7 868.0,352.5 828.0,288.0 788.0,288.6 748.0,286.8 708.0,287.0 668.0,299.3 628.0,297.6 588.0,306.8 548.0,306.7 508.0,302.9 468.0,286.2 428.0,286.2 388.0,286.7 348.0,288.7 308.0,286.1 268.0,287.9 228.0,290.5 188.0,289.8 148.0,290.8 108.0,291.6 68.0,300.1" fill="#08306b" fill-opacity="0.9" stroke="#fff" stroke-width="0.4"><title>reflection_layout — linkIR</title></polygon>
<polygon points="68.0,294.2 108.0,286.3 148.0,285.7 188.0,284.3 228.0,285.1 268.0,282.5 308.0,280.7 348.0,283.2 388.0,281.2 428.0,280.7 468.0,280.7 508.0,297.3 548.0,301.2 588.0,301.2 628.0,291.2 668.0,293.3 708.0,266.4 748.0,268.1 788.0,270.5 828.0,269.7 868.0,347.3 908.0,327.3 948.0,327.3 988.0,326.3 1028.0,326.4 1068.0,326.0 1108.0,322.9 1108.0,322.9 1068.0,326.1 1028.0,326.5 988.0,326.4 948.0,327.4 908.0,327.4 868.0,347.4 828.0,269.7 788.0,270.5 748.0,268.2 708.0,266.4 668.0,293.3 628.0,291.3 588.0,301.3 548.0,301.3 508.0,297.3 468.0,280.7 428.0,280.7 388.0,281.2 348.0,283.3 308.0,280.7 268.0,282.6 228.0,285.1 188.0,284.4 148.0,285.8 108.0,286.3 68.0,294.2" fill="#9e9ac8" fill-opacity="0.9" stroke="#fff" stroke-width="0.4"><title>reflection_layout — unrollLoopsInModule</title></polygon>
<polygon points="68.0,276.3 108.0,269.1 148.0,268.2 188.0,267.2 228.0,269.8 268.0,266.7 308.0,264.8 348.0,267.4 388.0,265.4 428.0,264.8 468.0,264.9 508.0,281.7 548.0,285.5 588.0,285.6 628.0,275.0 668.0,277.3 708.0,250.5 748.0,252.1 788.0,254.7 828.0,253.8 868.0,333.9 908.0,313.9 948.0,313.8 988.0,312.8 1028.0,312.8 1068.0,312.5 1108.0,308.7 1108.0,322.9 1068.0,326.0 1028.0,326.4 988.0,326.3 948.0,327.3 908.0,327.3 868.0,347.3 828.0,269.7 788.0,270.5 748.0,268.1 708.0,266.4 668.0,293.3 628.0,291.2 588.0,301.2 548.0,301.2 508.0,297.3 468.0,280.7 428.0,280.7 388.0,281.2 348.0,283.2 308.0,280.7 268.0,282.5 228.0,285.1 188.0,284.3 148.0,285.7 108.0,286.3 68.0,294.2" fill="#807dba" fill-opacity="0.9" stroke="#fff" stroke-width="0.4"><title>reflection_layout — legalizeResourceTypes</title></polygon>
<polygon points="68.0,256.0 108.0,249.4 148.0,248.3 188.0,247.7 228.0,256.3 268.0,252.7 308.0,250.9 348.0,253.7 388.0,251.5 428.0,250.9 468.0,251.0 508.0,267.9 548.0,271.8 588.0,271.8 628.0,260.8 668.0,263.3 708.0,237.4 748.0,238.7 788.0,241.6 828.0,240.6 868.0,321.0 908.0,300.9 948.0,300.6 988.0,299.7 1028.0,299.5 1068.0,299.5 1108.0,295.0 1108.0,308.7 1068.0,312.5 1028.0,312.8 988.0,312.8 948.0,313.8 908.0,313.9 868.0,333.9 828.0,253.8 788.0,254.7 748.0,252.1 708.0,250.5 668.0,277.3 628.0,275.0 588.0,285.6 548.0,285.5 508.0,281.7 468.0,264.9 428.0,264.8 388.0,265.4 348.0,267.4 308.0,264.8 268.0,266.7 228.0,269.8 188.0,267.2 148.0,268.2 108.0,269.1 68.0,276.3" fill="#6a51a3" fill-opacity="0.9" stroke="#fff" stroke-width="0.4"><title>reflection_layout — legalizeExistentialTypeLayout</title></polygon>
<polygon points="68.0,255.0 108.0,248.3 148.0,247.3 188.0,246.6 228.0,255.2 268.0,251.6 308.0,249.8 348.0,252.6 388.0,250.4 428.0,249.8 468.0,249.9 508.0,266.8 548.0,270.8 588.0,270.7 628.0,259.7 668.0,262.1 708.0,236.3 748.0,237.6 788.0,240.5 828.0,239.5 868.0,319.9 908.0,299.7 948.0,299.5 988.0,298.6 1028.0,298.4 1068.0,298.4 1108.0,293.8 1108.0,295.0 1068.0,299.5 1028.0,299.5 988.0,299.7 948.0,300.6 908.0,300.9 868.0,321.0 828.0,240.6 788.0,241.6 748.0,238.7 708.0,237.4 668.0,263.3 628.0,260.8 588.0,271.8 548.0,271.8 508.0,267.9 468.0,251.0 428.0,250.9 388.0,251.5 348.0,253.7 308.0,250.9 268.0,252.7 228.0,256.3 188.0,247.7 148.0,248.3 108.0,249.4 68.0,256.0" fill="#bcbddc" fill-opacity="0.9" stroke="#fff" stroke-width="0.4"><title>reflection_layout — performMandatoryEarlyInlining</title></polygon>
<polygon points="68.0,243.0 108.0,236.2 148.0,235.2 188.0,231.2 228.0,239.7 268.0,236.0 308.0,234.4 348.0,236.6 388.0,234.5 428.0,234.0 468.0,234.3 508.0,259.7 548.0,263.4 588.0,263.6 628.0,252.4 668.0,254.8 708.0,229.2 748.0,230.8 788.0,233.6 828.0,232.5 868.0,313.1 908.0,293.0 948.0,292.6 988.0,291.8 1028.0,291.6 1068.0,291.6 1108.0,286.7 1108.0,293.8 1068.0,298.4 1028.0,298.4 988.0,298.6 948.0,299.5 908.0,299.7 868.0,319.9 828.0,239.5 788.0,240.5 748.0,237.6 708.0,236.3 668.0,262.1 628.0,259.7 588.0,270.7 548.0,270.8 508.0,266.8 468.0,249.9 428.0,249.8 388.0,250.4 348.0,252.6 308.0,249.8 268.0,251.6 228.0,255.2 188.0,246.6 148.0,247.3 108.0,248.3 68.0,255.0" fill="#dadaeb" fill-opacity="0.9" stroke="#fff" stroke-width="0.4"><title>reflection_layout — performForceInlining</title></polygon>
<polygon points="68.0,198.2 108.0,192.3 148.0,190.8 188.0,186.3 228.0,194.4 268.0,191.0 308.0,185.7 348.0,190.4 388.0,188.4 428.0,186.9 468.0,192.0 508.0,226.0 548.0,231.2 588.0,230.9 628.0,215.2 668.0,219.1 708.0,165.7 748.0,167.4 788.0,172.0 828.0,169.4 868.0,262.1 908.0,238.7 948.0,237.3 988.0,235.9 1028.0,237.8 1068.0,234.3 1108.0,229.1 1108.0,286.7 1068.0,291.6 1028.0,291.6 988.0,291.8 948.0,292.6 908.0,293.0 868.0,313.1 828.0,232.5 788.0,233.6 748.0,230.8 708.0,229.2 668.0,254.8 628.0,252.4 588.0,263.6 548.0,263.4 508.0,259.7 468.0,234.3 428.0,234.0 388.0,234.5 348.0,236.6 308.0,234.4 268.0,236.0 228.0,239.7 188.0,231.2 148.0,235.2 108.0,236.2 68.0,243.0" fill="#4a1486" fill-opacity="0.9" stroke="#fff" stroke-width="0.4"><title>reflection_layout — linkAndOptimizeIR (self)</title></polygon>
<polygon points="68.0,141.9 108.0,136.2 148.0,134.5 188.0,135.3 228.0,147.1 268.0,144.0 308.0,139.4 348.0,145.0 388.0,142.1 428.0,141.2 468.0,146.3 508.0,180.5 548.0,185.0 588.0,185.4 628.0,168.3 668.0,172.8 708.0,120.2 748.0,120.4 788.0,126.1 828.0,122.6 868.0,217.3 908.0,192.3 948.0,190.9 988.0,189.8 1028.0,191.8 1068.0,188.6 1108.0,179.5 1108.0,229.1 1068.0,234.3 1028.0,237.8 988.0,235.9 948.0,237.3 908.0,238.7 868.0,262.1 828.0,169.4 788.0,172.0 748.0,167.4 708.0,165.7 668.0,219.1 628.0,215.2 588.0,230.9 548.0,231.2 508.0,226.0 468.0,192.0 428.0,186.9 388.0,188.4 348.0,190.4 308.0,185.7 268.0,191.0 228.0,194.4 188.0,186.3 148.0,190.8 108.0,192.3 68.0,198.2" fill="#e6550d" fill-opacity="0.9" stroke="#fff" stroke-width="0.4"><title>reflection_layout — generateOutput (self)</title></polygon>
<polygon points="68.0,131.8 108.0,126.5 148.0,124.9 188.0,124.5 228.0,137.5 268.0,134.5 308.0,127.0 348.0,135.2 388.0,132.4 428.0,131.2 468.0,134.9 508.0,170.8 548.0,175.1 588.0,174.6 628.0,157.3 668.0,161.9 708.0,108.6 748.0,109.6 788.0,114.2 828.0,110.0 868.0,206.9 908.0,180.5 948.0,180.7 988.0,179.5 1028.0,181.4 1068.0,177.3 1108.0,166.1 1108.0,179.5 1068.0,188.6 1028.0,191.8 988.0,189.8 948.0,190.9 908.0,192.3 868.0,217.3 828.0,122.6 788.0,126.1 748.0,120.4 708.0,120.2 668.0,172.8 628.0,168.3 588.0,185.4 548.0,185.0 508.0,180.5 468.0,146.3 428.0,141.2 388.0,142.1 348.0,145.0 308.0,139.4 268.0,144.0 228.0,147.1 188.0,135.3 148.0,134.5 108.0,136.2 68.0,141.9" fill="#969696" fill-opacity="0.9" stroke="#fff" stroke-width="0.4"><title>reflection_layout — compileInner (self)</title></polygon>
<text x="12" y="578" fill="#666" font-weight="600">phase buckets</text>
<rect x="12" y="586" width="12" height="12" fill="#c7e9c0"/>
<text x="28" y="596" fill="#222">parseTranslationUnit</text>
<rect x="289" y="586" width="12" height="12" fill="#41ab5d"/>
<text x="305" y="596" fill="#222">SemanticChecking</text>
<rect x="566" y="586" width="12" height="12" fill="#006d2c"/>
<text x="582" y="596" fill="#222">generateIR</text>
<rect x="843" y="586" width="12" height="12" fill="#74c476"/>
<text x="859" y="596" fill="#222">frontEndExecute (self)</text>
<rect x="12" y="604" width="12" height="12" fill="#6baed6"/>
<text x="28" y="614" fill="#222">specializeModule</text>
<rect x="289" y="604" width="12" height="12" fill="#2171b5"/>
<text x="305" y="614" fill="#222">simplifyIR</text>
<rect x="566" y="604" width="12" height="12" fill="#08306b"/>
<text x="582" y="614" fill="#222">linkIR</text>
<rect x="843" y="604" width="12" height="12" fill="#9e9ac8"/>
<text x="859" y="614" fill="#222">unrollLoopsInModule</text>
<rect x="12" y="622" width="12" height="12" fill="#807dba"/>
<text x="28" y="632" fill="#222">legalizeResourceTypes</text>
<rect x="289" y="622" width="12" height="12" fill="#6a51a3"/>
<text x="305" y="632" fill="#222">legalizeExistentialTypeLayout</text>
<rect x="566" y="622" width="12" height="12" fill="#bcbddc"/>
<text x="582" y="632" fill="#222">performMandatoryEarlyInlining</text>
<rect x="843" y="622" width="12" height="12" fill="#dadaeb"/>
<text x="859" y="632" fill="#222">performForceInlining</text>
<rect x="12" y="640" width="12" height="12" fill="#4a1486"/>
<text x="28" y="650" fill="#222">linkAndOptimizeIR (self)</text>
<rect x="289" y="640" width="12" height="12" fill="#fd8d3c"/>
<text x="305" y="650" fill="#222">emitEntryPointsSourceFromIR</text>
<rect x="566" y="640" width="12" height="12" fill="#e6550d"/>
<text x="582" y="650" fill="#222">generateOutput (self)</text>
<rect x="843" y="640" width="12" height="12" fill="#969696"/>
<text x="859" y="650" fill="#222">compileInner (self)</text>
</svg>