<svg xmlns="http://www.w3.org/2000/svg" xmlns:xlink="http://www.w3.org/1999/xlink" width="1132" height="680" viewBox="0 0 1132 680" preserveAspectRatio="xMidYMid meet" font-family="sans-serif" font-size="13">
<rect width="1132" height="680" fill="white"/>
<text x="12" y="30" font-size="20" font-weight="bold">reflection_layout — full phase breakdown across releases (median ms)</text>
<text x="68" y="60" font-size="15" font-weight="600" fill="#1a1a1a">reflection_layout<tspan fill="#888" font-weight="400" text-decoration="none">  0.75×</tspan></text>
<line x1="68.0" y1="516.0" x2="1108.0" y2="516.0" stroke="#eee"/>
<text x="64.0" y="519.0" text-anchor="end" fill="#999">0.0</text>
<line x1="68.0" y1="296.0" x2="1108.0" y2="296.0" stroke="#eee"/>
<text x="64.0" y="299.0" text-anchor="end" fill="#999">170</text>
<line x1="68.0" y1="76.0" x2="1108.0" y2="76.0" stroke="#eee"/>
<text x="64.0" y="79.0" text-anchor="end" fill="#999">340</text>
<line x1="68.0" y1="76.0" x2="68.0" y2="516.0" stroke="#333"/>
<line x1="68.0" y1="516.0" x2="1108.0" y2="516.0" stroke="#333"/>
<line x1="706.9" y1="76.0" x2="706.9" y2="516.0" stroke="#e8731a" stroke-width="1.2" stroke-dasharray="4 3"/>
<text x="709.9" y="87.0" fill="#e8731a" font-size="11">daily →</text>
<line x1="68.0" y1="516.0" x2="68.0" y2="519.0" stroke="#999"/>
<text x="68.0" y="531.0" text-anchor="end" fill="#666" transform="rotate(-50 68.0 531.0)">25.14</text>
<line x1="97.7" y1="516.0" x2="97.7" y2="519.0" stroke="#999"/>
<text x="97.7" y="531.0" text-anchor="end" fill="#666" transform="rotate(-50 97.7 531.0)">25.15</text>
<line x1="127.4" y1="516.0" x2="127.4" y2="519.0" stroke="#999"/>
<text x="127.4" y="531.0" text-anchor="end" fill="#666" transform="rotate(-50 127.4 531.0)">25.16</text>
<line x1="157.1" y1="516.0" x2="157.1" y2="519.0" stroke="#999"/>
<text x="157.1" y="531.0" text-anchor="end" fill="#666" transform="rotate(-50 157.1 531.0)">25.17</text>
<line x1="186.9" y1="516.0" x2="186.9" y2="519.0" stroke="#999"/>
<text x="186.9" y="531.0" text-anchor="end" fill="#666" transform="rotate(-50 186.9 531.0)">25.18</text>
<line x1="216.6" y1="516.0" x2="216.6" y2="519.0" stroke="#999"/>
<text x="216.6" y="531.0" text-anchor="end" fill="#666" transform="rotate(-50 216.6 531.0)">25.19</text>
<line x1="246.3" y1="516.0" x2="246.3" y2="519.0" stroke="#999"/>
<text x="246.3" y="531.0" text-anchor="end" fill="#666" transform="rotate(-50 246.3 531.0)">25.20</text>
<line x1="276.0" y1="516.0" x2="276.0" y2="519.0" stroke="#999"/>
<text x="276.0" y="531.0" text-anchor="end" fill="#666" transform="rotate(-50 276.0 531.0)">25.21</text>
<line x1="305.7" y1="516.0" x2="305.7" y2="519.0" stroke="#999"/>
<text x="305.7" y="531.0" text-anchor="end" fill="#666" transform="rotate(-50 305.7 531.0)">25.22</text>
<line x1="335.4" y1="516.0" x2="335.4" y2="519.0" stroke="#999"/>
<text x="335.4" y="531.0" text-anchor="end" fill="#666" transform="rotate(-50 335.4 531.0)">25.23</text>
<line x1="365.1" y1="516.0" x2="365.1" y2="519.0" stroke="#999"/>
<text x="365.1" y="531.0" text-anchor="end" fill="#666" transform="rotate(-50 365.1 531.0)">25.24</text>
<line x1="394.9" y1="516.0" x2="394.9" y2="519.0" stroke="#999"/>
<text x="394.9" y="531.0" text-anchor="end" fill="#666" transform="rotate(-50 394.9 531.0)">26.1</text>
<line x1="424.6" y1="516.0" x2="424.6" y2="519.0" stroke="#999"/>
<text x="424.6" y="531.0" text-anchor="end" fill="#666" transform="rotate(-50 424.6 531.0)">26.2</text>
<line x1="454.3" y1="516.0" x2="454.3" y2="519.0" stroke="#999"/>
<text x="454.3" y="531.0" text-anchor="end" fill="#666" transform="rotate(-50 454.3 531.0)">26.3</text>
<line x1="484.0" y1="516.0" x2="484.0" y2="519.0" stroke="#999"/>
<text x="484.0" y="531.0" text-anchor="end" fill="#666" transform="rotate(-50 484.0 531.0)">26.4</text>
<line x1="513.7" y1="516.0" x2="513.7" y2="519.0" stroke="#999"/>
<text x="513.7" y="531.0" text-anchor="end" fill="#666" transform="rotate(-50 513.7 531.0)">26.5</text>
<line x1="543.4" y1="516.0" x2="543.4" y2="519.0" stroke="#999"/>
<text x="543.4" y="531.0" text-anchor="end" fill="#666" transform="rotate(-50 543.4 531.0)">26.7</text>
<line x1="573.1" y1="516.0" x2="573.1" y2="519.0" stroke="#999"/>
<text x="573.1" y="531.0" text-anchor="end" fill="#666" transform="rotate(-50 573.1 531.0)">26.8</text>
<line x1="602.9" y1="516.0" x2="602.9" y2="519.0" stroke="#999"/>
<text x="602.9" y="531.0" text-anchor="end" fill="#666" transform="rotate(-50 602.9 531.0)">26.9</text>
<line x1="632.6" y1="516.0" x2="632.6" y2="519.0" stroke="#999"/>
<text x="632.6" y="531.0" text-anchor="end" fill="#666" transform="rotate(-50 632.6 531.0)">26.10</text>
<line x1="662.3" y1="516.0" x2="662.3" y2="519.0" stroke="#999"/>
<text x="662.3" y="531.0" text-anchor="end" fill="#666" transform="rotate(-50 662.3 531.0)">26.11</text>
<line x1="692.0" y1="516.0" x2="692.0" y2="519.0" stroke="#999"/>
<text x="692.0" y="531.0" text-anchor="end" fill="#666" transform="rotate(-50 692.0 531.0)">26.12</text>
<line x1="721.7" y1="516.0" x2="721.7" y2="519.0" stroke="#999"/>
<text x="721.7" y="531.0" text-anchor="end" fill="#e8731a" transform="rotate(-50 721.7 531.0)">06-25</text>
<line x1="751.4" y1="516.0" x2="751.4" y2="519.0" stroke="#999"/>
<text x="751.4" y="531.0" text-anchor="end" fill="#e8731a" transform="rotate(-50 751.4 531.0)">06-26</text>
<line x1="781.1" y1="516.0" x2="781.1" y2="519.0" stroke="#999"/>
<text x="781.1" y="531.0" text-anchor="end" fill="#e8731a" transform="rotate(-50 781.1 531.0)">06-28</text>
<line x1="810.9" y1="516.0" x2="810.9" y2="519.0" stroke="#999"/>
<text x="810.9" y="531.0" text-anchor="end" fill="#e8731a" transform="rotate(-50 810.9 531.0)">07-01</text>
<line x1="840.6" y1="516.0" x2="840.6" y2="519.0" stroke="#999"/>
<text x="840.6" y="531.0" text-anchor="end" fill="#e8731a" transform="rotate(-50 840.6 531.0)">07-02</text>
<line x1="870.3" y1="516.0" x2="870.3" y2="519.0" stroke="#999"/>
<text x="870.3" y="531.0" text-anchor="end" fill="#e8731a" transform="rotate(-50 870.3 531.0)">07-03</text>
<line x1="900.0" y1="516.0" x2="900.0" y2="519.0" stroke="#999"/>
<text x="900.0" y="531.0" text-anchor="end" fill="#e8731a" transform="rotate(-50 900.0 531.0)">07-06</text>
<line x1="929.7" y1="516.0" x2="929.7" y2="519.0" stroke="#999"/>
<text x="929.7" y="531.0" text-anchor="end" fill="#e8731a" transform="rotate(-50 929.7 531.0)">07-07</text>
<line x1="959.4" y1="516.0" x2="959.4" y2="519.0" stroke="#999"/>
<text x="959.4" y="531.0" text-anchor="end" fill="#e8731a" transform="rotate(-50 959.4 531.0)">07-07</text>
<line x1="989.1" y1="516.0" x2="989.1" y2="519.0" stroke="#999"/>
<text x="989.1" y="531.0" text-anchor="end" fill="#e8731a" transform="rotate(-50 989.1 531.0)">07-08</text>
<line x1="1018.9" y1="516.0" x2="1018.9" y2="519.0" stroke="#999"/>
<text x="1018.9" y="531.0" text-anchor="end" fill="#e8731a" transform="rotate(-50 1018.9 531.0)">07-09</text>
<line x1="1048.6" y1="516.0" x2="1048.6" y2="519.0" stroke="#999"/>
<text x="1048.6" y="531.0" text-anchor="end" fill="#e8731a" transform="rotate(-50 1048.6 531.0)">07-10</text>
<line x1="1078.3" y1="516.0" x2="1078.3" y2="519.0" stroke="#999"/>
<text x="1078.3" y="531.0" text-anchor="end" fill="#e8731a" transform="rotate(-50 1078.3 531.0)">07-11</text>
<line x1="1108.0" y1="516.0" x2="1108.0" y2="519.0" stroke="#999"/>
<text x="1108.0" y="531.0" text-anchor="end" fill="#e8731a" transform="rotate(-50 1108.0 531.0)">07-11</text>
<polygon points="68.0,510.5 97.7,510.7 127.4,510.7 157.1,510.6 186.9,510.2 216.6,510.4 246.3,510.2 276.0,510.5 305.7,510.4 335.4,510.6 365.1,510.4 394.9,510.5 424.6,510.5 454.3,510.4 484.0,510.4 513.7,510.2 543.4,510.1 573.1,510.2 602.9,510.1 632.6,510.1 662.3,510.2 692.0,510.3 721.7,510.0 751.4,509.9 781.1,509.7 810.9,509.9 840.6,509.9 870.3,509.9 900.0,509.7 929.7,509.8 959.4,510.0 989.1,509.8 1018.9,509.9 1048.6,509.8 1078.3,509.7 1108.0,509.9 1108.0,516.0 1078.3,516.0 1048.6,516.0 1018.9,516.0 989.1,516.0 959.4,516.0 929.7,516.0 900.0,516.0 870.3,516.0 840.6,516.0 810.9,516.0 781.1,516.0 751.4,516.0 721.7,516.0 692.0,516.0 662.3,516.0 632.6,516.0 602.9,516.0 573.1,516.0 543.4,516.0 513.7,516.0 484.0,516.0 454.3,516.0 424.6,516.0 394.9,516.0 365.1,516.0 335.4,516.0 305.7,516.0 276.0,516.0 246.3,516.0 216.6,516.0 186.9,516.0 157.1,516.0 127.4,516.0 97.7,516.0 68.0,516.0" fill="#c7e9c0" fill-opacity="0.9" stroke="#fff" stroke-width="0.4"><title>reflection_layout — parseTranslationUnit</title></polygon>
<polygon points="68.0,394.9 97.7,388.1 127.4,383.2 157.1,383.6 186.9,376.7 216.6,372.3 246.3,358.9 276.0,377.6 305.7,377.7 335.4,381.2 365.1,382.2 394.9,384.1 424.6,387.0 454.3,386.3 484.0,385.6 513.7,382.9 543.4,390.6 573.1,393.5 602.9,393.1 632.6,393.5 662.3,434.3 692.0,425.7 721.7,420.1 751.4,419.4 781.1,416.2 810.9,418.5 840.6,418.8 870.3,418.2 900.0,417.2 929.7,415.9 959.4,416.7 989.1,418.2 1018.9,418.7 1048.6,417.3 1078.3,417.2 1108.0,416.6 1108.0,509.9 1078.3,509.7 1048.6,509.8 1018.9,509.9 989.1,509.8 959.4,510.0 929.7,509.8 900.0,509.7 870.3,509.9 840.6,509.9 810.9,509.9 781.1,509.7 751.4,509.9 721.7,510.0 692.0,510.3 662.3,510.2 632.6,510.1 602.9,510.1 573.1,510.2 543.4,510.1 513.7,510.2 484.0,510.4 454.3,510.4 424.6,510.5 394.9,510.5 365.1,510.4 335.4,510.6 305.7,510.4 276.0,510.5 246.3,510.2 216.6,510.4 186.9,510.2 157.1,510.6 127.4,510.7 97.7,510.7 68.0,510.5" fill="#41ab5d" fill-opacity="0.9" stroke="#fff" stroke-width="0.4"><title>reflection_layout — SemanticChecking</title></polygon>
<polygon points="68.0,377.4 97.7,370.6 127.4,365.3 157.1,365.2 186.9,357.7 216.6,351.7 246.3,337.5 276.0,358.3 305.7,358.9 335.4,363.1 365.1,364.2 394.9,366.1 424.6,368.9 454.3,368.0 484.0,367.5 513.7,364.7 543.4,364.3 573.1,366.1 602.9,366.3 632.6,364.1 662.3,418.6 692.0,409.6 721.7,402.8 751.4,402.5 781.1,398.7 810.9,401.7 840.6,402.0 870.3,400.7 900.0,399.9 929.7,398.6 959.4,398.9 989.1,400.8 1018.9,401.2 1048.6,400.0 1078.3,399.5 1108.0,399.2 1108.0,416.6 1078.3,417.2 1048.6,417.3 1018.9,418.7 989.1,418.2 959.4,416.7 929.7,415.9 900.0,417.2 870.3,418.2 840.6,418.8 810.9,418.5 781.1,416.2 751.4,419.4 721.7,420.1 692.0,425.7 662.3,434.3 632.6,393.5 602.9,393.1 573.1,393.5 543.4,390.6 513.7,382.9 484.0,385.6 454.3,386.3 424.6,387.0 394.9,384.1 365.1,382.2 335.4,381.2 305.7,377.7 276.0,377.6 246.3,358.9 216.6,372.3 186.9,376.7 157.1,383.6 127.4,383.2 97.7,388.1 68.0,394.9" fill="#006d2c" fill-opacity="0.9" stroke="#fff" stroke-width="0.4"><title>reflection_layout — generateIR</title></polygon>
<polygon points="68.0,368.1 97.7,361.7 127.4,355.7 157.1,355.2 186.9,347.5 216.6,343.0 246.3,324.4 276.0,348.5 305.7,348.8 335.4,353.8 365.1,354.5 394.9,357.0 424.6,359.4 454.3,358.2 484.0,357.8 513.7,354.7 543.4,353.2 573.1,356.3 602.9,356.0 632.6,355.4 662.3,408.3 692.0,399.9 721.7,392.6 751.4,391.9 781.1,386.8 810.9,391.7 840.6,391.6 870.3,390.7 900.0,390.1 929.7,388.7 959.4,387.3 989.1,389.9 1018.9,389.6 1048.6,389.5 1078.3,389.4 1108.0,388.9 1108.0,399.2 1078.3,399.5 1048.6,400.0 1018.9,401.2 989.1,400.8 959.4,398.9 929.7,398.6 900.0,399.9 870.3,400.7 840.6,402.0 810.9,401.7 781.1,398.7 751.4,402.5 721.7,402.8 692.0,409.6 662.3,418.6 632.6,364.1 602.9,366.3 573.1,366.1 543.4,364.3 513.7,364.7 484.0,367.5 454.3,368.0 424.6,368.9 394.9,366.1 365.1,364.2 335.4,363.1 305.7,358.9 276.0,358.3 246.3,337.5 216.6,351.7 186.9,357.7 157.1,365.2 127.4,365.3 97.7,370.6 68.0,377.4" fill="#74c476" fill-opacity="0.9" stroke="#fff" stroke-width="0.4"><title>reflection_layout — frontEndExecute (self)</title></polygon>
<polygon points="68.0,365.6 97.7,359.2 127.4,353.1 157.1,352.7 186.9,344.9 216.6,340.2 246.3,321.5 276.0,345.8 305.7,346.1 335.4,351.2 365.1,351.5 394.9,354.0 424.6,356.5 454.3,355.3 484.0,354.9 513.7,351.8 543.4,338.5 573.1,341.7 602.9,341.0 632.6,340.5 662.3,395.2 692.0,386.7 721.7,377.7 751.4,376.8 781.1,371.4 810.9,376.8 840.6,376.7 870.3,375.5 900.0,374.6 929.7,381.8 959.4,380.4 989.1,382.9 1018.9,382.7 1048.6,382.5 1078.3,382.5 1108.0,382.0 1108.0,388.9 1078.3,389.4 1048.6,389.5 1018.9,389.6 989.1,389.9 959.4,387.3 929.7,388.7 900.0,390.1 870.3,390.7 840.6,391.6 810.9,391.7 781.1,386.8 751.4,391.9 721.7,392.6 692.0,399.9 662.3,408.3 632.6,355.4 602.9,356.0 573.1,356.3 543.4,353.2 513.7,354.7 484.0,357.8 454.3,358.2 424.6,359.4 394.9,357.0 365.1,354.5 335.4,353.8 305.7,348.8 276.0,348.5 246.3,324.4 216.6,343.0 186.9,347.5 157.1,355.2 127.4,355.7 97.7,361.7 68.0,368.1" fill="#6baed6" fill-opacity="0.9" stroke="#fff" stroke-width="0.4"><title>reflection_layout — specializeModule</title></polygon>
<polygon points="68.0,323.2 97.7,317.2 127.4,309.8 157.1,307.5 186.9,298.7 216.6,293.4 246.3,273.5 276.0,297.6 305.7,300.0 335.4,306.1 365.1,308.8 394.9,327.8 424.6,329.7 454.3,328.1 484.0,328.1 513.7,324.8 543.4,306.2 573.1,309.7 602.9,308.6 632.6,308.7 662.3,369.6 692.0,361.2 721.7,349.3 751.4,348.4 781.1,343.7 810.9,349.4 840.6,349.7 870.3,348.3 900.0,347.7 929.7,359.3 959.4,358.4 989.1,360.6 1018.9,360.0 1048.6,360.1 1078.3,360.0 1108.0,359.5 1108.0,382.0 1078.3,382.5 1048.6,382.5 1018.9,382.7 989.1,382.9 959.4,380.4 929.7,381.8 900.0,374.6 870.3,375.5 840.6,376.7 810.9,376.8 781.1,371.4 751.4,376.8 721.7,377.7 692.0,386.7 662.3,395.2 632.6,340.5 602.9,341.0 573.1,341.7 543.4,338.5 513.7,351.8 484.0,354.9 454.3,355.3 424.6,356.5 394.9,354.0 365.1,351.5 335.4,351.2 305.7,346.1 276.0,345.8 246.3,321.5 216.6,340.2 186.9,344.9 157.1,352.7 127.4,353.1 97.7,359.2 68.0,365.6" fill="#2171b5" fill-opacity="0.9" stroke="#fff" stroke-width="0.4"><title>reflection_layout — simplifyIR</title></polygon>
<polygon points="68.0,317.8 97.7,312.5 127.4,304.3 157.1,301.8 186.9,292.3 216.6,286.7 246.3,265.8 276.0,291.7 305.7,294.1 335.4,300.4 365.1,303.7 394.9,322.8 424.6,324.7 454.3,323.1 484.0,323.0 513.7,319.6 543.4,288.4 573.1,291.4 602.9,290.0 632.6,290.7 662.3,364.8 692.0,356.5 721.7,344.4 751.4,343.4 781.1,338.8 810.9,344.5 840.6,344.9 870.3,343.3 900.0,342.7 929.7,355.0 959.4,354.0 989.1,356.1 1018.9,355.5 1048.6,355.7 1078.3,355.5 1108.0,355.1 1108.0,359.5 1078.3,360.0 1048.6,360.1 1018.9,360.0 989.1,360.6 959.4,358.4 929.7,359.3 900.0,347.7 870.3,348.3 840.6,349.7 810.9,349.4 781.1,343.7 751.4,348.4 721.7,349.3 692.0,361.2 662.3,369.6 632.6,308.7 602.9,308.6 573.1,309.7 543.4,306.2 513.7,324.8 484.0,328.1 454.3,328.1 424.6,329.7 394.9,327.8 365.1,308.8 335.4,306.1 305.7,300.0 276.0,297.6 246.3,273.5 216.6,293.4 186.9,298.7 157.1,307.5 127.4,309.8 97.7,317.2 68.0,323.2" fill="#08306b" fill-opacity="0.9" stroke="#fff" stroke-width="0.4"><title>reflection_layout — linkIR</title></polygon>
<polygon points="68.0,317.8 97.7,312.4 127.4,304.3 157.1,301.7 186.9,292.2 216.6,286.6 246.3,265.7 276.0,291.6 305.7,294.0 335.4,300.3 365.1,303.6 394.9,322.7 424.6,324.6 454.3,323.0 484.0,323.0 513.7,319.6 543.4,288.4 573.1,291.4 602.9,289.9 632.6,290.6 662.3,364.8 692.0,356.5 721.7,344.4 751.4,343.3 781.1,338.7 810.9,344.4 840.6,344.9 870.3,343.2 900.0,342.6 929.7,354.9 959.4,354.0 989.1,356.0 1018.9,355.5 1048.6,355.6 1078.3,355.4 1108.0,355.0 1108.0,355.1 1078.3,355.5 1048.6,355.7 1018.9,355.5 989.1,356.1 959.4,354.0 929.7,355.0 900.0,342.7 870.3,343.3 840.6,344.9 810.9,344.5 781.1,338.8 751.4,343.4 721.7,344.4 692.0,356.5 662.3,364.8 632.6,290.7 602.9,290.0 573.1,291.4 543.4,288.4 513.7,319.6 484.0,323.0 454.3,323.1 424.6,324.7 394.9,322.8 365.1,303.7 335.4,300.4 305.7,294.1 276.0,291.7 246.3,265.8 216.6,286.7 186.9,292.3 157.1,301.8 127.4,304.3 97.7,312.5 68.0,317.8" fill="#9e9ac8" fill-opacity="0.9" stroke="#fff" stroke-width="0.4"><title>reflection_layout — unrollLoopsInModule</title></polygon>
<polygon points="68.0,301.8 97.7,296.7 127.4,288.2 157.1,286.0 186.9,276.6 216.6,271.5 246.3,249.7 276.0,276.5 305.7,279.2 335.4,285.8 365.1,289.2 394.9,308.5 424.6,310.4 454.3,308.4 484.0,308.8 513.7,305.3 543.4,273.7 573.1,277.0 602.9,275.4 632.6,276.3 662.3,352.5 692.0,344.2 721.7,331.7 751.4,330.8 781.1,326.1 810.9,331.9 840.6,332.5 870.3,330.7 900.0,330.2 929.7,342.6 959.4,341.7 989.1,343.7 1018.9,342.9 1048.6,343.4 1078.3,352.7 1108.0,352.3 1108.0,355.0 1078.3,355.4 1048.6,355.6 1018.9,355.5 989.1,356.0 959.4,354.0 929.7,354.9 900.0,342.6 870.3,343.2 840.6,344.9 810.9,344.4 781.1,338.7 751.4,343.3 721.7,344.4 692.0,356.5 662.3,364.8 632.6,290.6 602.9,289.9 573.1,291.4 543.4,288.4 513.7,319.6 484.0,323.0 454.3,323.0 424.6,324.6 394.9,322.7 365.1,303.6 335.4,300.3 305.7,294.0 276.0,291.6 246.3,265.7 216.6,286.6 186.9,292.2 157.1,301.7 127.4,304.3 97.7,312.4 68.0,317.8" fill="#807dba" fill-opacity="0.9" stroke="#fff" stroke-width="0.4"><title>reflection_layout — legalizeResourceTypes</title></polygon>
<polygon points="68.0,283.7 97.7,278.7 127.4,269.8 157.1,268.0 186.9,263.7 216.6,258.3 246.3,235.1 276.0,263.4 305.7,266.1 335.4,272.9 365.1,276.3 394.9,295.9 424.6,297.9 454.3,295.6 484.0,296.2 513.7,292.7 543.4,261.7 573.1,264.9 602.9,263.1 632.6,264.3 662.3,340.7 692.0,332.2 721.7,319.5 751.4,318.8 781.1,313.9 810.9,319.6 840.6,320.7 870.3,318.7 900.0,318.1 929.7,330.1 959.4,329.2 989.1,331.2 1018.9,330.0 1048.6,330.9 1078.3,341.3 1108.0,340.7 1108.0,352.3 1078.3,352.7 1048.6,343.4 1018.9,342.9 989.1,343.7 959.4,341.7 929.7,342.6 900.0,330.2 870.3,330.7 840.6,332.5 810.9,331.9 781.1,326.1 751.4,330.8 721.7,331.7 692.0,344.2 662.3,352.5 632.6,276.3 602.9,275.4 573.1,277.0 543.4,273.7 513.7,305.3 484.0,308.8 454.3,308.4 424.6,310.4 394.9,308.5 365.1,289.2 335.4,285.8 305.7,279.2 276.0,276.5 246.3,249.7 216.6,271.5 186.9,276.6 157.1,286.0 127.4,288.2 97.7,296.7 68.0,301.8" fill="#6a51a3" fill-opacity="0.9" stroke="#fff" stroke-width="0.4"><title>reflection_layout — legalizeExistentialTypeLayout</title></polygon>
<polygon points="68.0,282.7 97.7,277.7 127.4,268.8 157.1,266.9 186.9,262.6 216.6,257.2 246.3,233.9 276.0,262.3 305.7,265.0 335.4,271.9 365.1,275.3 394.9,294.9 424.6,296.9 454.3,294.6 484.0,295.2 513.7,291.7 543.4,260.8 573.1,264.0 602.9,262.1 632.6,263.3 662.3,339.7 692.0,331.2 721.7,318.5 751.4,317.7 781.1,312.9 810.9,318.6 840.6,319.7 870.3,317.6 900.0,317.1 929.7,329.0 959.4,328.1 989.1,330.2 1018.9,329.0 1048.6,329.9 1078.3,340.3 1108.0,339.6 1108.0,340.7 1078.3,341.3 1048.6,330.9 1018.9,330.0 989.1,331.2 959.4,329.2 929.7,330.1 900.0,318.1 870.3,318.7 840.6,320.7 810.9,319.6 781.1,313.9 751.4,318.8 721.7,319.5 692.0,332.2 662.3,340.7 632.6,264.3 602.9,263.1 573.1,264.9 543.4,261.7 513.7,292.7 484.0,296.2 454.3,295.6 424.6,297.9 394.9,295.9 365.1,276.3 335.4,272.9 305.7,266.1 276.0,263.4 246.3,235.1 216.6,258.3 186.9,263.7 157.1,268.0 127.4,269.8 97.7,278.7 68.0,283.7" fill="#bcbddc" fill-opacity="0.9" stroke="#fff" stroke-width="0.4"><title>reflection_layout — performMandatoryEarlyInlining</title></polygon>
<polygon points="68.0,271.6 97.7,267.1 127.4,257.7 157.1,251.8 186.9,247.6 216.6,242.0 246.3,217.3 276.0,245.8 305.7,250.8 335.4,258.0 365.1,261.1 394.9,288.7 424.6,290.9 454.3,288.1 484.0,289.1 513.7,285.4 543.4,254.5 573.1,258.1 602.9,256.2 632.6,257.3 662.3,334.0 692.0,325.3 721.7,312.3 751.4,311.6 781.1,306.7 810.9,312.5 840.6,313.6 870.3,311.2 900.0,310.8 929.7,323.0 959.4,321.9 989.1,324.1 1018.9,322.8 1048.6,323.7 1078.3,334.1 1108.0,333.1 1108.0,339.6 1078.3,340.3 1048.6,329.9 1018.9,329.0 989.1,330.2 959.4,328.1 929.7,329.0 900.0,317.1 870.3,317.6 840.6,319.7 810.9,318.6 781.1,312.9 751.4,317.7 721.7,318.5 692.0,331.2 662.3,339.7 632.6,263.3 602.9,262.1 573.1,264.0 543.4,260.8 513.7,291.7 484.0,295.2 454.3,294.6 424.6,296.9 394.9,294.9 365.1,275.3 335.4,271.9 305.7,265.0 276.0,262.3 246.3,233.9 216.6,257.2 186.9,262.6 157.1,266.9 127.4,268.8 97.7,277.7 68.0,282.7" fill="#dadaeb" fill-opacity="0.9" stroke="#fff" stroke-width="0.4"><title>reflection_layout — performForceInlining</title></polygon>
<polygon points="68.0,231.1 97.7,227.2 127.4,216.4 157.1,209.8 186.9,203.1 216.6,199.7 246.3,170.0 276.0,198.0 305.7,206.7 335.4,214.2 365.1,222.1 394.9,258.1 424.6,261.6 454.3,257.9 484.0,257.0 513.7,253.8 543.4,197.2 573.1,202.2 602.9,200.5 632.6,201.4 662.3,288.9 692.0,278.9 721.7,263.0 751.4,261.7 781.1,255.8 810.9,264.5 840.6,263.5 870.3,260.1 900.0,259.1 929.7,272.9 959.4,273.4 989.1,272.7 1018.9,273.3 1048.6,275.2 1078.3,297.5 1108.0,297.3 1108.0,333.1 1078.3,334.1 1048.6,323.7 1018.9,322.8 989.1,324.1 959.4,321.9 929.7,323.0 900.0,310.8 870.3,311.2 840.6,313.6 810.9,312.5 781.1,306.7 751.4,311.6 721.7,312.3 692.0,325.3 662.3,334.0 632.6,257.3 602.9,256.2 573.1,258.1 543.4,254.5 513.7,285.4 484.0,289.1 454.3,288.1 424.6,290.9 394.9,288.7 365.1,261.1 335.4,258.0 305.7,250.8 276.0,245.8 246.3,217.3 216.6,242.0 186.9,247.6 157.1,251.8 127.4,257.7 97.7,267.1 68.0,271.6" fill="#4a1486" fill-opacity="0.9" stroke="#fff" stroke-width="0.4"><title>reflection_layout — linkAndOptimizeIR (self)</title></polygon>
<polygon points="68.0,179.4 97.7,177.1 127.4,163.3 157.1,161.5 186.9,158.3 216.6,154.0 246.3,118.5 276.0,154.6 305.7,159.8 335.4,170.5 365.1,180.1 394.9,217.3 424.6,220.0 454.3,216.6 484.0,215.8 513.7,211.4 543.4,155.5 573.1,159.3 602.9,158.0 632.6,159.8 662.3,247.5 692.0,238.1 721.7,219.7 751.4,219.0 781.1,213.1 810.9,222.4 840.6,221.6 870.3,217.7 900.0,216.8 929.7,229.4 959.4,230.8 989.1,230.4 1018.9,230.0 1048.6,232.6 1078.3,267.5 1108.0,267.3 1108.0,297.3 1078.3,297.5 1048.6,275.2 1018.9,273.3 989.1,272.7 959.4,273.4 929.7,272.9 900.0,259.1 870.3,260.1 840.6,263.5 810.9,264.5 781.1,255.8 751.4,261.7 721.7,263.0 692.0,278.9 662.3,288.9 632.6,201.4 602.9,200.5 573.1,202.2 543.4,197.2 513.7,253.8 484.0,257.0 454.3,257.9 424.6,261.6 394.9,258.1 365.1,222.1 335.4,214.2 305.7,206.7 276.0,198.0 246.3,170.0 216.6,199.7 186.9,203.1 157.1,209.8 127.4,216.4 97.7,227.2 68.0,231.1" fill="#e6550d" fill-opacity="0.9" stroke="#fff" stroke-width="0.4"><title>reflection_layout — generateOutput (self)</title></polygon>
<polygon points="68.0,169.9 97.7,169.1 127.4,153.7 157.1,147.8 186.9,135.6 216.6,140.1 246.3,108.6 276.0,145.4 305.7,142.5 335.4,161.1 365.1,170.9 394.9,200.5 424.6,210.4 454.3,205.1 484.0,204.3 513.7,200.9 543.4,145.2 573.1,150.9 602.9,150.9 632.6,145.6 662.3,238.3 692.0,228.7 721.7,209.7 751.4,208.4 781.1,201.6 810.9,212.0 840.6,211.1 870.3,206.9 900.0,206.3 929.7,219.6 959.4,221.0 989.1,219.0 1018.9,220.3 1048.6,223.2 1078.3,257.1 1108.0,257.5 1108.0,267.3 1078.3,267.5 1048.6,232.6 1018.9,230.0 989.1,230.4 959.4,230.8 929.7,229.4 900.0,216.8 870.3,217.7 840.6,221.6 810.9,222.4 781.1,213.1 751.4,219.0 721.7,219.7 692.0,238.1 662.3,247.5 632.6,159.8 602.9,158.0 573.1,159.3 543.4,155.5 513.7,211.4 484.0,215.8 454.3,216.6 424.6,220.0 394.9,217.3 365.1,180.1 335.4,170.5 305.7,159.8 276.0,154.6 246.3,118.5 216.6,154.0 186.9,158.3 157.1,161.5 127.4,163.3 97.7,177.1 68.0,179.4" fill="#969696" fill-opacity="0.9" stroke="#fff" stroke-width="0.4"><title>reflection_layout — compileInner (self)</title></polygon>
<text x="12" y="578" fill="#666" font-weight="600">phase buckets</text>
<rect x="12" y="586" width="12" height="12" fill="#c7e9c0"/>
<text x="28" y="596" fill="#222">parseTranslationUnit</text>
<rect x="289" y="586" width="12" height="12" fill="#41ab5d"/>
<text x="305" y="596" fill="#222">SemanticChecking</text>
<rect x="566" y="586" width="12" height="12" fill="#006d2c"/>
<text x="582" y="596" fill="#222">generateIR</text>
<rect x="843" y="586" width="12" height="12" fill="#74c476"/>
<text x="859" y="596" fill="#222">frontEndExecute (self)</text>
<rect x="12" y="604" width="12" height="12" fill="#6baed6"/>
<text x="28" y="614" fill="#222">specializeModule</text>
<rect x="289" y="604" width="12" height="12" fill="#2171b5"/>
<text x="305" y="614" fill="#222">simplifyIR</text>
<rect x="566" y="604" width="12" height="12" fill="#08306b"/>
<text x="582" y="614" fill="#222">linkIR</text>
<rect x="843" y="604" width="12" height="12" fill="#9e9ac8"/>
<text x="859" y="614" fill="#222">unrollLoopsInModule</text>
<rect x="12" y="622" width="12" height="12" fill="#807dba"/>
<text x="28" y="632" fill="#222">legalizeResourceTypes</text>
<rect x="289" y="622" width="12" height="12" fill="#6a51a3"/>
<text x="305" y="632" fill="#222">legalizeExistentialTypeLayout</text>
<rect x="566" y="622" width="12" height="12" fill="#bcbddc"/>
<text x="582" y="632" fill="#222">performMandatoryEarlyInlining</text>
<rect x="843" y="622" width="12" height="12" fill="#dadaeb"/>
<text x="859" y="632" fill="#222">performForceInlining</text>
<rect x="12" y="640" width="12" height="12" fill="#4a1486"/>
<text x="28" y="650" fill="#222">linkAndOptimizeIR (self)</text>
<rect x="289" y="640" width="12" height="12" fill="#fd8d3c"/>
<text x="305" y="650" fill="#222">emitEntryPointsSourceFromIR</text>
<rect x="566" y="640" width="12" height="12" fill="#e6550d"/>
<text x="582" y="650" fill="#222">generateOutput (self)</text>
<rect x="843" y="640" width="12" height="12" fill="#969696"/>
<text x="859" y="650" fill="#222">compileInner (self)</text>
</svg>