<svg xmlns="http://www.w3.org/2000/svg" xmlns:xlink="http://www.w3.org/1999/xlink" width="1132" height="680" viewBox="0 0 1132 680" preserveAspectRatio="xMidYMid meet" font-family="sans-serif" font-size="13">
<rect width="1132" height="680" fill="white"/>
<text x="12" y="30" font-size="20" font-weight="bold">reflection_layout — full phase breakdown across releases (median ms)</text>
<text x="68" y="60" font-size="15" font-weight="600" fill="#1a1a1a">reflection_layout<tspan fill="#888" font-weight="400" text-decoration="none">  0.81×</tspan></text>
<line x1="68.0" y1="516.0" x2="1108.0" y2="516.0" stroke="#eee"/>
<text x="64.0" y="519.0" text-anchor="end" fill="#999">0.0</text>
<line x1="68.0" y1="296.0" x2="1108.0" y2="296.0" stroke="#eee"/>
<text x="64.0" y="299.0" text-anchor="end" fill="#999">152</text>
<line x1="68.0" y1="76.0" x2="1108.0" y2="76.0" stroke="#eee"/>
<text x="64.0" y="79.0" text-anchor="end" fill="#999">304</text>
<line x1="68.0" y1="76.0" x2="68.0" y2="516.0" stroke="#333"/>
<line x1="68.0" y1="516.0" x2="1108.0" y2="516.0" stroke="#333"/>
<line x1="68.0" y1="516.0" x2="68.0" y2="519.0" stroke="#999"/>
<text x="68.0" y="531.0" text-anchor="end" fill="#666" transform="rotate(-50 68.0 531.0)">25.19</text>
<line x1="137.3" y1="516.0" x2="137.3" y2="519.0" stroke="#999"/>
<text x="137.3" y="531.0" text-anchor="end" fill="#666" transform="rotate(-50 137.3 531.0)">25.20</text>
<line x1="206.7" y1="516.0" x2="206.7" y2="519.0" stroke="#999"/>
<text x="206.7" y="531.0" text-anchor="end" fill="#666" transform="rotate(-50 206.7 531.0)">25.21</text>
<line x1="276.0" y1="516.0" x2="276.0" y2="519.0" stroke="#999"/>
<text x="276.0" y="531.0" text-anchor="end" fill="#666" transform="rotate(-50 276.0 531.0)">25.22</text>
<line x1="345.3" y1="516.0" x2="345.3" y2="519.0" stroke="#999"/>
<text x="345.3" y="531.0" text-anchor="end" fill="#666" transform="rotate(-50 345.3 531.0)">25.23</text>
<line x1="414.7" y1="516.0" x2="414.7" y2="519.0" stroke="#999"/>
<text x="414.7" y="531.0" text-anchor="end" fill="#666" transform="rotate(-50 414.7 531.0)">25.24</text>
<line x1="484.0" y1="516.0" x2="484.0" y2="519.0" stroke="#999"/>
<text x="484.0" y="531.0" text-anchor="end" fill="#666" transform="rotate(-50 484.0 531.0)">26.1</text>
<line x1="553.3" y1="516.0" x2="553.3" y2="519.0" stroke="#999"/>
<text x="553.3" y="531.0" text-anchor="end" fill="#666" transform="rotate(-50 553.3 531.0)">26.2</text>
<line x1="622.7" y1="516.0" x2="622.7" y2="519.0" stroke="#999"/>
<text x="622.7" y="531.0" text-anchor="end" fill="#666" transform="rotate(-50 622.7 531.0)">26.3</text>
<line x1="692.0" y1="516.0" x2="692.0" y2="519.0" stroke="#999"/>
<text x="692.0" y="531.0" text-anchor="end" fill="#666" transform="rotate(-50 692.0 531.0)">26.4</text>
<line x1="761.3" y1="516.0" x2="761.3" y2="519.0" stroke="#999"/>
<text x="761.3" y="531.0" text-anchor="end" fill="#666" transform="rotate(-50 761.3 531.0)">26.5</text>
<line x1="830.7" y1="516.0" x2="830.7" y2="519.0" stroke="#999"/>
<text x="830.7" y="531.0" text-anchor="end" fill="#666" transform="rotate(-50 830.7 531.0)">26.7</text>
<line x1="900.0" y1="516.0" x2="900.0" y2="519.0" stroke="#999"/>
<text x="900.0" y="531.0" text-anchor="end" fill="#666" transform="rotate(-50 900.0 531.0)">26.8</text>
<line x1="969.3" y1="516.0" x2="969.3" y2="519.0" stroke="#999"/>
<text x="969.3" y="531.0" text-anchor="end" fill="#666" transform="rotate(-50 969.3 531.0)">26.9</text>
<line x1="1038.7" y1="516.0" x2="1038.7" y2="519.0" stroke="#999"/>
<text x="1038.7" y="531.0" text-anchor="end" fill="#666" transform="rotate(-50 1038.7 531.0)">26.10</text>
<line x1="1108.0" y1="516.0" x2="1108.0" y2="519.0" stroke="#999"/>
<text x="1108.0" y="531.0" text-anchor="end" fill="#666" transform="rotate(-50 1108.0 531.0)">26.11</text>
<polygon points="68.0,510.1 137.3,510.0 206.7,510.1 276.0,510.1 345.3,510.1 414.7,509.8 484.0,509.9 553.3,510.0 622.7,509.9 692.0,509.6 761.3,509.6 830.7,509.6 900.0,509.6 969.3,509.6 1038.7,509.5 1108.0,509.7 1108.0,516.0 1038.7,516.0 969.3,516.0 900.0,516.0 830.7,516.0 761.3,516.0 692.0,516.0 622.7,516.0 553.3,516.0 484.0,516.0 414.7,516.0 345.3,516.0 276.0,516.0 206.7,516.0 137.3,516.0 68.0,516.0" fill="#c7e9c0" fill-opacity="0.9" stroke="#fff" stroke-width="0.4"><title>reflection_layout — parseTranslationUnit</title></polygon>
<polygon points="68.0,370.0 137.3,367.9 206.7,370.7 276.0,369.5 345.3,368.0 414.7,367.2 484.0,365.9 553.3,370.0 622.7,370.2 692.0,363.6 761.3,365.6 830.7,379.7 900.0,379.3 969.3,379.7 1038.7,380.3 1108.0,424.0 1108.0,509.7 1038.7,509.5 969.3,509.6 900.0,509.6 830.7,509.6 761.3,509.6 692.0,509.6 622.7,509.9 553.3,510.0 484.0,509.9 414.7,509.8 345.3,510.1 276.0,510.1 206.7,510.1 137.3,510.0 68.0,510.1" fill="#41ab5d" fill-opacity="0.9" stroke="#fff" stroke-width="0.4"><title>reflection_layout — SemanticChecking</title></polygon>
<polygon points="68.0,350.4 137.3,348.0 206.7,350.9 276.0,349.6 345.3,348.3 414.7,347.4 484.0,345.7 553.3,349.9 622.7,349.9 692.0,342.8 761.3,344.7 830.7,351.2 900.0,350.8 969.3,351.6 1038.7,351.8 1108.0,407.0 1108.0,424.0 1038.7,380.3 969.3,379.7 900.0,379.3 830.7,379.7 761.3,365.6 692.0,363.6 622.7,370.2 553.3,370.0 484.0,365.9 414.7,367.2 345.3,368.0 276.0,369.5 206.7,370.7 137.3,367.9 68.0,370.0" fill="#006d2c" fill-opacity="0.9" stroke="#fff" stroke-width="0.4"><title>reflection_layout — generateIR</title></polygon>
<polygon points="68.0,339.7 137.3,338.1 206.7,340.5 276.0,338.6 345.3,338.1 414.7,336.6 484.0,335.8 553.3,339.5 622.7,339.9 692.0,331.9 761.3,333.3 830.7,339.6 900.0,339.6 969.3,341.0 1038.7,340.9 1108.0,396.5 1108.0,407.0 1038.7,351.8 969.3,351.6 900.0,350.8 830.7,351.2 761.3,344.7 692.0,342.8 622.7,349.9 553.3,349.9 484.0,345.7 414.7,347.4 345.3,348.3 276.0,349.6 206.7,350.9 137.3,348.0 68.0,350.4" fill="#74c476" fill-opacity="0.9" stroke="#fff" stroke-width="0.4"><title>reflection_layout — frontEndExecute (self)</title></polygon>
<polygon points="68.0,336.9 137.3,335.2 206.7,337.5 276.0,335.8 345.3,335.2 414.7,333.4 484.0,332.5 553.3,336.3 622.7,336.7 692.0,328.6 761.3,330.1 830.7,322.9 900.0,322.8 969.3,324.2 1038.7,323.9 1108.0,381.4 1108.0,396.5 1038.7,340.9 969.3,341.0 900.0,339.6 830.7,339.6 761.3,333.3 692.0,331.9 622.7,339.9 553.3,339.5 484.0,335.8 414.7,336.6 345.3,338.1 276.0,338.6 206.7,340.5 137.3,338.1 68.0,339.7" fill="#6baed6" fill-opacity="0.9" stroke="#fff" stroke-width="0.4"><title>reflection_layout — specializeModule</title></polygon>
<polygon points="68.0,287.9 137.3,286.1 206.7,288.7 276.0,286.7 345.3,286.2 414.7,286.2 484.0,302.9 553.3,306.7 622.7,306.8 692.0,297.6 761.3,299.3 830.7,287.0 900.0,286.8 969.3,288.6 1038.7,288.0 1108.0,352.5 1108.0,381.4 1038.7,323.9 969.3,324.2 900.0,322.8 830.7,322.9 761.3,330.1 692.0,328.6 622.7,336.7 553.3,336.3 484.0,332.5 414.7,333.4 345.3,335.2 276.0,335.8 206.7,337.5 137.3,335.2 68.0,336.9" fill="#2171b5" fill-opacity="0.9" stroke="#fff" stroke-width="0.4"><title>reflection_layout — simplifyIR</title></polygon>
<polygon points="68.0,282.6 137.3,280.7 206.7,283.3 276.0,281.2 345.3,280.7 414.7,280.7 484.0,297.3 553.3,301.3 622.7,301.3 692.0,291.3 761.3,293.3 830.7,266.4 900.0,268.2 969.3,270.5 1038.7,269.7 1108.0,347.4 1108.0,352.5 1038.7,288.0 969.3,288.6 900.0,286.8 830.7,287.0 761.3,299.3 692.0,297.6 622.7,306.8 553.3,306.7 484.0,302.9 414.7,286.2 345.3,286.2 276.0,286.7 206.7,288.7 137.3,286.1 68.0,287.9" fill="#08306b" fill-opacity="0.9" stroke="#fff" stroke-width="0.4"><title>reflection_layout — linkIR</title></polygon>
<polygon points="68.0,282.5 137.3,280.7 206.7,283.2 276.0,281.2 345.3,280.7 414.7,280.7 484.0,297.3 553.3,301.2 622.7,301.2 692.0,291.2 761.3,293.3 830.7,266.4 900.0,268.1 969.3,270.5 1038.7,269.7 1108.0,347.3 1108.0,347.4 1038.7,269.7 969.3,270.5 900.0,268.2 830.7,266.4 761.3,293.3 692.0,291.3 622.7,301.3 553.3,301.3 484.0,297.3 414.7,280.7 345.3,280.7 276.0,281.2 206.7,283.3 137.3,280.7 68.0,282.6" fill="#9e9ac8" fill-opacity="0.9" stroke="#fff" stroke-width="0.4"><title>reflection_layout — unrollLoopsInModule</title></polygon>
<polygon points="68.0,266.7 137.3,264.8 206.7,267.4 276.0,265.4 345.3,264.8 414.7,264.9 484.0,281.7 553.3,285.5 622.7,285.6 692.0,275.0 761.3,277.3 830.7,250.5 900.0,252.1 969.3,254.7 1038.7,253.8 1108.0,333.9 1108.0,347.3 1038.7,269.7 969.3,270.5 900.0,268.1 830.7,266.4 761.3,293.3 692.0,291.2 622.7,301.2 553.3,301.2 484.0,297.3 414.7,280.7 345.3,280.7 276.0,281.2 206.7,283.2 137.3,280.7 68.0,282.5" fill="#807dba" fill-opacity="0.9" stroke="#fff" stroke-width="0.4"><title>reflection_layout — legalizeResourceTypes</title></polygon>
<polygon points="68.0,252.7 137.3,250.9 206.7,253.7 276.0,251.5 345.3,250.9 414.7,251.0 484.0,267.9 553.3,271.8 622.7,271.8 692.0,260.8 761.3,263.3 830.7,237.4 900.0,238.7 969.3,241.6 1038.7,240.6 1108.0,321.0 1108.0,333.9 1038.7,253.8 969.3,254.7 900.0,252.1 830.7,250.5 761.3,277.3 692.0,275.0 622.7,285.6 553.3,285.5 484.0,281.7 414.7,264.9 345.3,264.8 276.0,265.4 206.7,267.4 137.3,264.8 68.0,266.7" fill="#6a51a3" fill-opacity="0.9" stroke="#fff" stroke-width="0.4"><title>reflection_layout — legalizeExistentialTypeLayout</title></polygon>
<polygon points="68.0,251.6 137.3,249.8 206.7,252.6 276.0,250.4 345.3,249.8 414.7,249.9 484.0,266.8 553.3,270.8 622.7,270.7 692.0,259.7 761.3,262.1 830.7,236.3 900.0,237.6 969.3,240.5 1038.7,239.5 1108.0,319.9 1108.0,321.0 1038.7,240.6 969.3,241.6 900.0,238.7 830.7,237.4 761.3,263.3 692.0,260.8 622.7,271.8 553.3,271.8 484.0,267.9 414.7,251.0 345.3,250.9 276.0,251.5 206.7,253.7 137.3,250.9 68.0,252.7" fill="#bcbddc" fill-opacity="0.9" stroke="#fff" stroke-width="0.4"><title>reflection_layout — performMandatoryEarlyInlining</title></polygon>
<polygon points="68.0,236.0 137.3,234.4 206.7,236.6 276.0,234.5 345.3,234.0 414.7,234.3 484.0,259.7 553.3,263.4 622.7,263.6 692.0,252.4 761.3,254.8 830.7,229.2 900.0,230.8 969.3,233.6 1038.7,232.5 1108.0,313.1 1108.0,319.9 1038.7,239.5 969.3,240.5 900.0,237.6 830.7,236.3 761.3,262.1 692.0,259.7 622.7,270.7 553.3,270.8 484.0,266.8 414.7,249.9 345.3,249.8 276.0,250.4 206.7,252.6 137.3,249.8 68.0,251.6" fill="#dadaeb" fill-opacity="0.9" stroke="#fff" stroke-width="0.4"><title>reflection_layout — performForceInlining</title></polygon>
<polygon points="68.0,191.0 137.3,185.7 206.7,190.4 276.0,188.4 345.3,186.9 414.7,192.0 484.0,226.0 553.3,231.2 622.7,230.9 692.0,215.2 761.3,219.1 830.7,165.7 900.0,167.4 969.3,172.0 1038.7,169.4 1108.0,262.1 1108.0,313.1 1038.7,232.5 969.3,233.6 900.0,230.8 830.7,229.2 761.3,254.8 692.0,252.4 622.7,263.6 553.3,263.4 484.0,259.7 414.7,234.3 345.3,234.0 276.0,234.5 206.7,236.6 137.3,234.4 68.0,236.0" fill="#4a1486" fill-opacity="0.9" stroke="#fff" stroke-width="0.4"><title>reflection_layout — linkAndOptimizeIR (self)</title></polygon>
<polygon points="68.0,144.0 137.3,139.4 206.7,145.0 276.0,142.1 345.3,141.2 414.7,146.3 484.0,180.5 553.3,185.0 622.7,185.4 692.0,168.3 761.3,172.8 830.7,120.2 900.0,120.4 969.3,126.1 1038.7,122.6 1108.0,217.3 1108.0,262.1 1038.7,169.4 969.3,172.0 900.0,167.4 830.7,165.7 761.3,219.1 692.0,215.2 622.7,230.9 553.3,231.2 484.0,226.0 414.7,192.0 345.3,186.9 276.0,188.4 206.7,190.4 137.3,185.7 68.0,191.0" fill="#e6550d" fill-opacity="0.9" stroke="#fff" stroke-width="0.4"><title>reflection_layout — generateOutput (self)</title></polygon>
<polygon points="68.0,134.5 137.3,127.0 206.7,135.2 276.0,132.4 345.3,131.2 414.7,134.9 484.0,170.8 553.3,175.1 622.7,174.6 692.0,157.3 761.3,161.9 830.7,108.6 900.0,109.6 969.3,114.2 1038.7,110.0 1108.0,206.9 1108.0,217.3 1038.7,122.6 969.3,126.1 900.0,120.4 830.7,120.2 761.3,172.8 692.0,168.3 622.7,185.4 553.3,185.0 484.0,180.5 414.7,146.3 345.3,141.2 276.0,142.1 206.7,145.0 137.3,139.4 68.0,144.0" fill="#969696" fill-opacity="0.9" stroke="#fff" stroke-width="0.4"><title>reflection_layout — compileInner (self)</title></polygon>
<text x="12" y="578" fill="#666" font-weight="600">phase buckets</text>
<rect x="12" y="586" width="12" height="12" fill="#c7e9c0"/>
<text x="28" y="596" fill="#222">parseTranslationUnit</text>
<rect x="289" y="586" width="12" height="12" fill="#41ab5d"/>
<text x="305" y="596" fill="#222">SemanticChecking</text>
<rect x="566" y="586" width="12" height="12" fill="#006d2c"/>
<text x="582" y="596" fill="#222">generateIR</text>
<rect x="843" y="586" width="12" height="12" fill="#74c476"/>
<text x="859" y="596" fill="#222">frontEndExecute (self)</text>
<rect x="12" y="604" width="12" height="12" fill="#6baed6"/>
<text x="28" y="614" fill="#222">specializeModule</text>
<rect x="289" y="604" width="12" height="12" fill="#2171b5"/>
<text x="305" y="614" fill="#222">simplifyIR</text>
<rect x="566" y="604" width="12" height="12" fill="#08306b"/>
<text x="582" y="614" fill="#222">linkIR</text>
<rect x="843" y="604" width="12" height="12" fill="#9e9ac8"/>
<text x="859" y="614" fill="#222">unrollLoopsInModule</text>
<rect x="12" y="622" width="12" height="12" fill="#807dba"/>
<text x="28" y="632" fill="#222">legalizeResourceTypes</text>
<rect x="289" y="622" width="12" height="12" fill="#6a51a3"/>
<text x="305" y="632" fill="#222">legalizeExistentialTypeLayout</text>
<rect x="566" y="622" width="12" height="12" fill="#bcbddc"/>
<text x="582" y="632" fill="#222">performMandatoryEarlyInlining</text>
<rect x="843" y="622" width="12" height="12" fill="#dadaeb"/>
<text x="859" y="632" fill="#222">performForceInlining</text>
<rect x="12" y="640" width="12" height="12" fill="#4a1486"/>
<text x="28" y="650" fill="#222">linkAndOptimizeIR (self)</text>
<rect x="289" y="640" width="12" height="12" fill="#fd8d3c"/>
<text x="305" y="650" fill="#222">emitEntryPointsSourceFromIR</text>
<rect x="566" y="640" width="12" height="12" fill="#e6550d"/>
<text x="582" y="650" fill="#222">generateOutput (self)</text>
<rect x="843" y="640" width="12" height="12" fill="#969696"/>
<text x="859" y="650" fill="#222">compileInner (self)</text>
</svg>