<svg xmlns="http://www.w3.org/2000/svg" xmlns:xlink="http://www.w3.org/1999/xlink" width="1132" height="680" viewBox="0 0 1132 680" preserveAspectRatio="xMidYMid meet" font-family="sans-serif" font-size="13">
<rect width="1132" height="680" fill="white"/>
<text x="12" y="30" font-size="20" font-weight="bold">reflection_layout — full phase breakdown across releases (median ms)</text>
<text x="68" y="60" font-size="15" font-weight="600" fill="#1a1a1a">reflection_layout<tspan fill="#888" font-weight="400" text-decoration="none">  0.89×</tspan></text>
<line x1="68.0" y1="516.0" x2="1108.0" y2="516.0" stroke="#eee"/>
<text x="64.0" y="519.0" text-anchor="end" fill="#999">0.0</text>
<line x1="68.0" y1="296.0" x2="1108.0" y2="296.0" stroke="#eee"/>
<text x="64.0" y="299.0" text-anchor="end" fill="#999">170</text>
<line x1="68.0" y1="76.0" x2="1108.0" y2="76.0" stroke="#eee"/>
<text x="64.0" y="79.0" text-anchor="end" fill="#999">340</text>
<line x1="68.0" y1="76.0" x2="68.0" y2="516.0" stroke="#333"/>
<line x1="68.0" y1="516.0" x2="1108.0" y2="516.0" stroke="#333"/>
<line x1="839.0" y1="76.0" x2="839.0" y2="516.0" stroke="#e8731a" stroke-width="1.2" stroke-dasharray="4 3"/>
<text x="842.0" y="87.0" fill="#e8731a" font-size="11">daily →</text>
<line x1="68.0" y1="516.0" x2="68.0" y2="519.0" stroke="#999"/>
<text x="68.0" y="531.0" text-anchor="end" fill="#666" transform="rotate(-50 68.0 531.0)">25.14</text>
<line x1="103.9" y1="516.0" x2="103.9" y2="519.0" stroke="#999"/>
<text x="103.9" y="531.0" text-anchor="end" fill="#666" transform="rotate(-50 103.9 531.0)">25.15</text>
<line x1="139.7" y1="516.0" x2="139.7" y2="519.0" stroke="#999"/>
<text x="139.7" y="531.0" text-anchor="end" fill="#666" transform="rotate(-50 139.7 531.0)">25.16</text>
<line x1="175.6" y1="516.0" x2="175.6" y2="519.0" stroke="#999"/>
<text x="175.6" y="531.0" text-anchor="end" fill="#666" transform="rotate(-50 175.6 531.0)">25.17</text>
<line x1="211.4" y1="516.0" x2="211.4" y2="519.0" stroke="#999"/>
<text x="211.4" y="531.0" text-anchor="end" fill="#666" transform="rotate(-50 211.4 531.0)">25.18</text>
<line x1="247.3" y1="516.0" x2="247.3" y2="519.0" stroke="#999"/>
<text x="247.3" y="531.0" text-anchor="end" fill="#666" transform="rotate(-50 247.3 531.0)">25.19</text>
<line x1="283.2" y1="516.0" x2="283.2" y2="519.0" stroke="#999"/>
<text x="283.2" y="531.0" text-anchor="end" fill="#666" transform="rotate(-50 283.2 531.0)">25.20</text>
<line x1="319.0" y1="516.0" x2="319.0" y2="519.0" stroke="#999"/>
<text x="319.0" y="531.0" text-anchor="end" fill="#666" transform="rotate(-50 319.0 531.0)">25.21</text>
<line x1="354.9" y1="516.0" x2="354.9" y2="519.0" stroke="#999"/>
<text x="354.9" y="531.0" text-anchor="end" fill="#666" transform="rotate(-50 354.9 531.0)">25.22</text>
<line x1="390.8" y1="516.0" x2="390.8" y2="519.0" stroke="#999"/>
<text x="390.8" y="531.0" text-anchor="end" fill="#666" transform="rotate(-50 390.8 531.0)">25.23</text>
<line x1="426.6" y1="516.0" x2="426.6" y2="519.0" stroke="#999"/>
<text x="426.6" y="531.0" text-anchor="end" fill="#666" transform="rotate(-50 426.6 531.0)">25.24</text>
<line x1="462.5" y1="516.0" x2="462.5" y2="519.0" stroke="#999"/>
<text x="462.5" y="531.0" text-anchor="end" fill="#666" transform="rotate(-50 462.5 531.0)">26.1</text>
<line x1="498.3" y1="516.0" x2="498.3" y2="519.0" stroke="#999"/>
<text x="498.3" y="531.0" text-anchor="end" fill="#666" transform="rotate(-50 498.3 531.0)">26.2</text>
<line x1="534.2" y1="516.0" x2="534.2" y2="519.0" stroke="#999"/>
<text x="534.2" y="531.0" text-anchor="end" fill="#666" transform="rotate(-50 534.2 531.0)">26.3</text>
<line x1="570.1" y1="516.0" x2="570.1" y2="519.0" stroke="#999"/>
<text x="570.1" y="531.0" text-anchor="end" fill="#666" transform="rotate(-50 570.1 531.0)">26.4</text>
<line x1="605.9" y1="516.0" x2="605.9" y2="519.0" stroke="#999"/>
<text x="605.9" y="531.0" text-anchor="end" fill="#666" transform="rotate(-50 605.9 531.0)">26.5</text>
<line x1="641.8" y1="516.0" x2="641.8" y2="519.0" stroke="#999"/>
<text x="641.8" y="531.0" text-anchor="end" fill="#666" transform="rotate(-50 641.8 531.0)">26.7</text>
<line x1="677.7" y1="516.0" x2="677.7" y2="519.0" stroke="#999"/>
<text x="677.7" y="531.0" text-anchor="end" fill="#666" transform="rotate(-50 677.7 531.0)">26.8</text>
<line x1="713.5" y1="516.0" x2="713.5" y2="519.0" stroke="#999"/>
<text x="713.5" y="531.0" text-anchor="end" fill="#666" transform="rotate(-50 713.5 531.0)">26.9</text>
<line x1="749.4" y1="516.0" x2="749.4" y2="519.0" stroke="#999"/>
<text x="749.4" y="531.0" text-anchor="end" fill="#666" transform="rotate(-50 749.4 531.0)">26.10</text>
<line x1="785.2" y1="516.0" x2="785.2" y2="519.0" stroke="#999"/>
<text x="785.2" y="531.0" text-anchor="end" fill="#666" transform="rotate(-50 785.2 531.0)">26.11</text>
<line x1="821.1" y1="516.0" x2="821.1" y2="519.0" stroke="#999"/>
<text x="821.1" y="531.0" text-anchor="end" fill="#666" transform="rotate(-50 821.1 531.0)">26.12</text>
<line x1="857.0" y1="516.0" x2="857.0" y2="519.0" stroke="#999"/>
<text x="857.0" y="531.0" text-anchor="end" fill="#e8731a" transform="rotate(-50 857.0 531.0)">06-25</text>
<line x1="892.8" y1="516.0" x2="892.8" y2="519.0" stroke="#999"/>
<text x="892.8" y="531.0" text-anchor="end" fill="#e8731a" transform="rotate(-50 892.8 531.0)">06-26</text>
<line x1="928.7" y1="516.0" x2="928.7" y2="519.0" stroke="#999"/>
<text x="928.7" y="531.0" text-anchor="end" fill="#e8731a" transform="rotate(-50 928.7 531.0)">06-28</text>
<line x1="964.6" y1="516.0" x2="964.6" y2="519.0" stroke="#999"/>
<text x="964.6" y="531.0" text-anchor="end" fill="#e8731a" transform="rotate(-50 964.6 531.0)">07-01</text>
<line x1="1000.4" y1="516.0" x2="1000.4" y2="519.0" stroke="#999"/>
<text x="1000.4" y="531.0" text-anchor="end" fill="#e8731a" transform="rotate(-50 1000.4 531.0)">07-02</text>
<line x1="1036.3" y1="516.0" x2="1036.3" y2="519.0" stroke="#999"/>
<text x="1036.3" y="531.0" text-anchor="end" fill="#e8731a" transform="rotate(-50 1036.3 531.0)">07-03</text>
<line x1="1072.1" y1="516.0" x2="1072.1" y2="519.0" stroke="#999"/>
<text x="1072.1" y="531.0" text-anchor="end" fill="#e8731a" transform="rotate(-50 1072.1 531.0)">07-03</text>
<line x1="1108.0" y1="516.0" x2="1108.0" y2="519.0" stroke="#999"/>
<text x="1108.0" y="531.0" text-anchor="end" fill="#e8731a" transform="rotate(-50 1108.0 531.0)">07-03</text>
<polygon points="68.0,510.5 103.9,510.7 139.7,510.7 175.6,510.6 211.4,510.2 247.3,510.4 283.2,510.2 319.0,510.5 354.9,510.4 390.8,510.6 426.6,510.4 462.5,510.5 498.3,510.5 534.2,510.4 570.1,510.4 605.9,510.2 641.8,510.1 677.7,510.2 713.5,510.1 749.4,510.1 785.2,510.2 821.1,510.3 857.0,510.0 892.8,509.9 928.7,509.7 964.6,509.9 1000.4,509.9 1036.3,509.9 1072.1,509.9 1108.0,509.8 1108.0,516.0 1072.1,516.0 1036.3,516.0 1000.4,516.0 964.6,516.0 928.7,516.0 892.8,516.0 857.0,516.0 821.1,516.0 785.2,516.0 749.4,516.0 713.5,516.0 677.7,516.0 641.8,516.0 605.9,516.0 570.1,516.0 534.2,516.0 498.3,516.0 462.5,516.0 426.6,516.0 390.8,516.0 354.9,516.0 319.0,516.0 283.2,516.0 247.3,516.0 211.4,516.0 175.6,516.0 139.7,516.0 103.9,516.0 68.0,516.0" fill="#c7e9c0" fill-opacity="0.9" stroke="#fff" stroke-width="0.4"><title>reflection_layout — parseTranslationUnit</title></polygon>
<polygon points="68.0,394.9 103.9,388.1 139.7,383.2 175.6,383.6 211.4,376.7 247.3,372.3 283.2,358.9 319.0,377.6 354.9,377.7 390.8,381.2 426.6,382.2 462.5,384.1 498.3,387.0 534.2,386.3 570.1,385.6 605.9,382.9 641.8,390.6 677.7,393.5 713.5,393.1 749.4,393.5 785.2,434.3 821.1,425.7 857.0,420.1 892.8,419.4 928.7,416.2 964.6,418.5 1000.4,418.8 1036.3,418.4 1072.1,418.9 1108.0,418.3 1108.0,509.8 1072.1,509.9 1036.3,509.9 1000.4,509.9 964.6,509.9 928.7,509.7 892.8,509.9 857.0,510.0 821.1,510.3 785.2,510.2 749.4,510.1 713.5,510.1 677.7,510.2 641.8,510.1 605.9,510.2 570.1,510.4 534.2,510.4 498.3,510.5 462.5,510.5 426.6,510.4 390.8,510.6 354.9,510.4 319.0,510.5 283.2,510.2 247.3,510.4 211.4,510.2 175.6,510.6 139.7,510.7 103.9,510.7 68.0,510.5" fill="#41ab5d" fill-opacity="0.9" stroke="#fff" stroke-width="0.4"><title>reflection_layout — SemanticChecking</title></polygon>
<polygon points="68.0,377.4 103.9,370.6 139.7,365.3 175.6,365.2 211.4,357.7 247.3,351.7 283.2,337.5 319.0,358.3 354.9,358.9 390.8,363.1 426.6,364.2 462.5,366.1 498.3,368.9 534.2,368.0 570.1,367.5 605.9,364.7 641.8,364.3 677.7,366.1 713.5,366.3 749.4,364.1 785.2,418.6 821.1,409.6 857.0,402.8 892.8,402.5 928.7,398.7 964.6,401.7 1000.4,402.0 1036.3,401.7 1072.1,401.0 1108.0,401.1 1108.0,418.3 1072.1,418.9 1036.3,418.4 1000.4,418.8 964.6,418.5 928.7,416.2 892.8,419.4 857.0,420.1 821.1,425.7 785.2,434.3 749.4,393.5 713.5,393.1 677.7,393.5 641.8,390.6 605.9,382.9 570.1,385.6 534.2,386.3 498.3,387.0 462.5,384.1 426.6,382.2 390.8,381.2 354.9,377.7 319.0,377.6 283.2,358.9 247.3,372.3 211.4,376.7 175.6,383.6 139.7,383.2 103.9,388.1 68.0,394.9" fill="#006d2c" fill-opacity="0.9" stroke="#fff" stroke-width="0.4"><title>reflection_layout — generateIR</title></polygon>
<polygon points="68.0,368.1 103.9,361.7 139.7,355.7 175.6,355.2 211.4,347.5 247.3,343.0 283.2,324.4 319.0,348.5 354.9,348.8 390.8,353.8 426.6,354.5 462.5,357.0 498.3,359.4 534.2,358.2 570.1,357.8 605.9,354.7 641.8,353.2 677.7,356.3 713.5,356.0 749.4,355.4 785.2,408.3 821.1,399.9 857.0,392.6 892.8,391.9 928.7,386.8 964.6,391.7 1000.4,391.6 1036.3,391.8 1072.1,390.2 1108.0,390.9 1108.0,401.1 1072.1,401.0 1036.3,401.7 1000.4,402.0 964.6,401.7 928.7,398.7 892.8,402.5 857.0,402.8 821.1,409.6 785.2,418.6 749.4,364.1 713.5,366.3 677.7,366.1 641.8,364.3 605.9,364.7 570.1,367.5 534.2,368.0 498.3,368.9 462.5,366.1 426.6,364.2 390.8,363.1 354.9,358.9 319.0,358.3 283.2,337.5 247.3,351.7 211.4,357.7 175.6,365.2 139.7,365.3 103.9,370.6 68.0,377.4" fill="#74c476" fill-opacity="0.9" stroke="#fff" stroke-width="0.4"><title>reflection_layout — frontEndExecute (self)</title></polygon>
<polygon points="68.0,365.6 103.9,359.2 139.7,353.1 175.6,352.7 211.4,344.9 247.3,340.2 283.2,321.5 319.0,345.8 354.9,346.1 390.8,351.2 426.6,351.5 462.5,354.0 498.3,356.5 534.2,355.3 570.1,354.9 605.9,351.8 641.8,338.5 677.7,341.7 713.5,341.0 749.4,340.5 785.2,395.2 821.1,386.7 857.0,377.7 892.8,376.8 928.7,371.4 964.6,376.8 1000.4,376.7 1036.3,376.9 1072.1,375.0 1108.0,376.0 1108.0,390.9 1072.1,390.2 1036.3,391.8 1000.4,391.6 964.6,391.7 928.7,386.8 892.8,391.9 857.0,392.6 821.1,399.9 785.2,408.3 749.4,355.4 713.5,356.0 677.7,356.3 641.8,353.2 605.9,354.7 570.1,357.8 534.2,358.2 498.3,359.4 462.5,357.0 426.6,354.5 390.8,353.8 354.9,348.8 319.0,348.5 283.2,324.4 247.3,343.0 211.4,347.5 175.6,355.2 139.7,355.7 103.9,361.7 68.0,368.1" fill="#6baed6" fill-opacity="0.9" stroke="#fff" stroke-width="0.4"><title>reflection_layout — specializeModule</title></polygon>
<polygon points="68.0,323.2 103.9,317.2 139.7,309.8 175.6,307.5 211.4,298.7 247.3,293.4 283.2,273.5 319.0,297.6 354.9,300.0 390.8,306.1 426.6,308.8 462.5,327.8 498.3,329.7 534.2,328.1 570.1,328.1 605.9,324.8 641.8,306.2 677.7,309.7 713.5,308.6 749.4,308.7 785.2,369.6 821.1,361.2 857.0,349.3 892.8,348.4 928.7,343.7 964.6,349.4 1000.4,349.7 1036.3,349.9 1072.1,347.5 1108.0,348.8 1108.0,376.0 1072.1,375.0 1036.3,376.9 1000.4,376.7 964.6,376.8 928.7,371.4 892.8,376.8 857.0,377.7 821.1,386.7 785.2,395.2 749.4,340.5 713.5,341.0 677.7,341.7 641.8,338.5 605.9,351.8 570.1,354.9 534.2,355.3 498.3,356.5 462.5,354.0 426.6,351.5 390.8,351.2 354.9,346.1 319.0,345.8 283.2,321.5 247.3,340.2 211.4,344.9 175.6,352.7 139.7,353.1 103.9,359.2 68.0,365.6" fill="#2171b5" fill-opacity="0.9" stroke="#fff" stroke-width="0.4"><title>reflection_layout — simplifyIR</title></polygon>
<polygon points="68.0,317.8 103.9,312.5 139.7,304.3 175.6,301.8 211.4,292.3 247.3,286.7 283.2,265.8 319.0,291.7 354.9,294.1 390.8,300.4 426.6,303.7 462.5,322.8 498.3,324.7 534.2,323.1 570.1,323.0 605.9,319.6 641.8,288.4 677.7,291.4 713.5,290.0 749.4,290.7 785.2,364.8 821.1,356.5 857.0,344.4 892.8,343.4 928.7,338.8 964.6,344.5 1000.4,344.9 1036.3,345.0 1072.1,342.3 1108.0,343.9 1108.0,348.8 1072.1,347.5 1036.3,349.9 1000.4,349.7 964.6,349.4 928.7,343.7 892.8,348.4 857.0,349.3 821.1,361.2 785.2,369.6 749.4,308.7 713.5,308.6 677.7,309.7 641.8,306.2 605.9,324.8 570.1,328.1 534.2,328.1 498.3,329.7 462.5,327.8 426.6,308.8 390.8,306.1 354.9,300.0 319.0,297.6 283.2,273.5 247.3,293.4 211.4,298.7 175.6,307.5 139.7,309.8 103.9,317.2 68.0,323.2" fill="#08306b" fill-opacity="0.9" stroke="#fff" stroke-width="0.4"><title>reflection_layout — linkIR</title></polygon>
<polygon points="68.0,317.8 103.9,312.4 139.7,304.3 175.6,301.7 211.4,292.2 247.3,286.6 283.2,265.7 319.0,291.6 354.9,294.0 390.8,300.3 426.6,303.6 462.5,322.7 498.3,324.6 534.2,323.0 570.1,323.0 605.9,319.6 641.8,288.4 677.7,291.4 713.5,289.9 749.4,290.6 785.2,364.8 821.1,356.5 857.0,344.4 892.8,343.3 928.7,338.7 964.6,344.4 1000.4,344.9 1036.3,345.0 1072.1,342.3 1108.0,343.8 1108.0,343.9 1072.1,342.3 1036.3,345.0 1000.4,344.9 964.6,344.5 928.7,338.8 892.8,343.4 857.0,344.4 821.1,356.5 785.2,364.8 749.4,290.7 713.5,290.0 677.7,291.4 641.8,288.4 605.9,319.6 570.1,323.0 534.2,323.1 498.3,324.7 462.5,322.8 426.6,303.7 390.8,300.4 354.9,294.1 319.0,291.7 283.2,265.8 247.3,286.7 211.4,292.3 175.6,301.8 139.7,304.3 103.9,312.5 68.0,317.8" fill="#9e9ac8" fill-opacity="0.9" stroke="#fff" stroke-width="0.4"><title>reflection_layout — unrollLoopsInModule</title></polygon>
<polygon points="68.0,301.8 103.9,296.7 139.7,288.2 175.6,286.0 211.4,276.6 247.3,271.5 283.2,249.7 319.0,276.5 354.9,279.2 390.8,285.8 426.6,289.2 462.5,308.5 498.3,310.4 534.2,308.4 570.1,308.8 605.9,305.3 641.8,273.7 677.7,277.0 713.5,275.4 749.4,276.3 785.2,352.5 821.1,344.2 857.0,331.7 892.8,330.8 928.7,326.1 964.6,331.9 1000.4,332.5 1036.3,332.5 1072.1,329.8 1108.0,331.2 1108.0,343.8 1072.1,342.3 1036.3,345.0 1000.4,344.9 964.6,344.4 928.7,338.7 892.8,343.3 857.0,344.4 821.1,356.5 785.2,364.8 749.4,290.6 713.5,289.9 677.7,291.4 641.8,288.4 605.9,319.6 570.1,323.0 534.2,323.0 498.3,324.6 462.5,322.7 426.6,303.6 390.8,300.3 354.9,294.0 319.0,291.6 283.2,265.7 247.3,286.6 211.4,292.2 175.6,301.7 139.7,304.3 103.9,312.4 68.0,317.8" fill="#807dba" fill-opacity="0.9" stroke="#fff" stroke-width="0.4"><title>reflection_layout — legalizeResourceTypes</title></polygon>
<polygon points="68.0,283.7 103.9,278.7 139.7,269.8 175.6,268.0 211.4,263.7 247.3,258.3 283.2,235.1 319.0,263.4 354.9,266.1 390.8,272.9 426.6,276.3 462.5,295.9 498.3,297.9 534.2,295.6 570.1,296.2 605.9,292.7 641.8,261.7 677.7,264.9 713.5,263.1 749.4,264.3 785.2,340.7 821.1,332.2 857.0,319.5 892.8,318.8 928.7,313.9 964.6,319.6 1000.4,320.7 1036.3,320.1 1072.1,317.5 1108.0,319.0 1108.0,331.2 1072.1,329.8 1036.3,332.5 1000.4,332.5 964.6,331.9 928.7,326.1 892.8,330.8 857.0,331.7 821.1,344.2 785.2,352.5 749.4,276.3 713.5,275.4 677.7,277.0 641.8,273.7 605.9,305.3 570.1,308.8 534.2,308.4 498.3,310.4 462.5,308.5 426.6,289.2 390.8,285.8 354.9,279.2 319.0,276.5 283.2,249.7 247.3,271.5 211.4,276.6 175.6,286.0 139.7,288.2 103.9,296.7 68.0,301.8" fill="#6a51a3" fill-opacity="0.9" stroke="#fff" stroke-width="0.4"><title>reflection_layout — legalizeExistentialTypeLayout</title></polygon>
<polygon points="68.0,282.7 103.9,277.7 139.7,268.8 175.6,266.9 211.4,262.6 247.3,257.2 283.2,233.9 319.0,262.3 354.9,265.0 390.8,271.9 426.6,275.3 462.5,294.9 498.3,296.9 534.2,294.6 570.1,295.2 605.9,291.7 641.8,260.8 677.7,264.0 713.5,262.1 749.4,263.3 785.2,339.7 821.1,331.2 857.0,318.5 892.8,317.7 928.7,312.9 964.6,318.6 1000.4,319.7 1036.3,319.0 1072.1,316.4 1108.0,318.0 1108.0,319.0 1072.1,317.5 1036.3,320.1 1000.4,320.7 964.6,319.6 928.7,313.9 892.8,318.8 857.0,319.5 821.1,332.2 785.2,340.7 749.4,264.3 713.5,263.1 677.7,264.9 641.8,261.7 605.9,292.7 570.1,296.2 534.2,295.6 498.3,297.9 462.5,295.9 426.6,276.3 390.8,272.9 354.9,266.1 319.0,263.4 283.2,235.1 247.3,258.3 211.4,263.7 175.6,268.0 139.7,269.8 103.9,278.7 68.0,283.7" fill="#bcbddc" fill-opacity="0.9" stroke="#fff" stroke-width="0.4"><title>reflection_layout — performMandatoryEarlyInlining</title></polygon>
<polygon points="68.0,271.6 103.9,267.1 139.7,257.7 175.6,251.8 211.4,247.6 247.3,242.0 283.2,217.3 319.0,245.8 354.9,250.8 390.8,258.0 426.6,261.1 462.5,288.7 498.3,290.9 534.2,288.1 570.1,289.1 605.9,285.4 641.8,254.5 677.7,258.1 713.5,256.2 749.4,257.3 785.2,334.0 821.1,325.3 857.0,312.3 892.8,311.6 928.7,306.7 964.6,312.5 1000.4,313.6 1036.3,313.1 1072.1,310.0 1108.0,311.8 1108.0,318.0 1072.1,316.4 1036.3,319.0 1000.4,319.7 964.6,318.6 928.7,312.9 892.8,317.7 857.0,318.5 821.1,331.2 785.2,339.7 749.4,263.3 713.5,262.1 677.7,264.0 641.8,260.8 605.9,291.7 570.1,295.2 534.2,294.6 498.3,296.9 462.5,294.9 426.6,275.3 390.8,271.9 354.9,265.0 319.0,262.3 283.2,233.9 247.3,257.2 211.4,262.6 175.6,266.9 139.7,268.8 103.9,277.7 68.0,282.7" fill="#dadaeb" fill-opacity="0.9" stroke="#fff" stroke-width="0.4"><title>reflection_layout — performForceInlining</title></polygon>
<polygon points="68.0,231.1 103.9,227.2 139.7,216.4 175.6,209.8 211.4,203.1 247.3,199.7 283.2,170.0 319.0,198.0 354.9,206.7 390.8,214.2 426.6,222.1 462.5,258.1 498.3,261.6 534.2,257.9 570.1,257.0 605.9,253.8 641.8,197.2 677.7,202.2 713.5,200.5 749.4,201.4 785.2,288.9 821.1,278.9 857.0,263.0 892.8,261.7 928.7,255.8 964.6,264.5 1000.4,263.5 1036.3,262.5 1072.1,259.7 1108.0,261.0 1108.0,311.8 1072.1,310.0 1036.3,313.1 1000.4,313.6 964.6,312.5 928.7,306.7 892.8,311.6 857.0,312.3 821.1,325.3 785.2,334.0 749.4,257.3 713.5,256.2 677.7,258.1 641.8,254.5 605.9,285.4 570.1,289.1 534.2,288.1 498.3,290.9 462.5,288.7 426.6,261.1 390.8,258.0 354.9,250.8 319.0,245.8 283.2,217.3 247.3,242.0 211.4,247.6 175.6,251.8 139.7,257.7 103.9,267.1 68.0,271.6" fill="#4a1486" fill-opacity="0.9" stroke="#fff" stroke-width="0.4"><title>reflection_layout — linkAndOptimizeIR (self)</title></polygon>
<polygon points="68.0,179.4 103.9,177.1 139.7,163.3 175.6,161.5 211.4,158.3 247.3,154.0 283.2,118.5 319.0,154.6 354.9,159.8 390.8,170.5 426.6,180.1 462.5,217.3 498.3,220.0 534.2,216.6 570.1,215.8 605.9,211.4 641.8,155.5 677.7,159.3 713.5,158.0 749.4,159.8 785.2,247.5 821.1,238.1 857.0,219.7 892.8,219.0 928.7,213.1 964.6,222.4 1000.4,221.6 1036.3,220.4 1072.1,217.4 1108.0,218.6 1108.0,261.0 1072.1,259.7 1036.3,262.5 1000.4,263.5 964.6,264.5 928.7,255.8 892.8,261.7 857.0,263.0 821.1,278.9 785.2,288.9 749.4,201.4 713.5,200.5 677.7,202.2 641.8,197.2 605.9,253.8 570.1,257.0 534.2,257.9 498.3,261.6 462.5,258.1 426.6,222.1 390.8,214.2 354.9,206.7 319.0,198.0 283.2,170.0 247.3,199.7 211.4,203.1 175.6,209.8 139.7,216.4 103.9,227.2 68.0,231.1" fill="#e6550d" fill-opacity="0.9" stroke="#fff" stroke-width="0.4"><title>reflection_layout — generateOutput (self)</title></polygon>
<polygon points="68.0,169.9 103.9,169.1 139.7,153.7 175.6,147.8 211.4,135.6 247.3,140.1 283.2,108.6 319.0,145.4 354.9,142.5 390.8,161.1 426.6,170.9 462.5,200.5 498.3,210.4 534.2,205.1 570.1,204.3 605.9,200.9 641.8,145.2 677.7,150.9 713.5,150.9 749.4,145.6 785.2,238.3 821.1,228.7 857.0,209.7 892.8,208.4 928.7,201.6 964.6,212.0 1000.4,211.1 1036.3,210.3 1072.1,205.8 1108.0,209.6 1108.0,218.6 1072.1,217.4 1036.3,220.4 1000.4,221.6 964.6,222.4 928.7,213.1 892.8,219.0 857.0,219.7 821.1,238.1 785.2,247.5 749.4,159.8 713.5,158.0 677.7,159.3 641.8,155.5 605.9,211.4 570.1,215.8 534.2,216.6 498.3,220.0 462.5,217.3 426.6,180.1 390.8,170.5 354.9,159.8 319.0,154.6 283.2,118.5 247.3,154.0 211.4,158.3 175.6,161.5 139.7,163.3 103.9,177.1 68.0,179.4" fill="#969696" fill-opacity="0.9" stroke="#fff" stroke-width="0.4"><title>reflection_layout — compileInner (self)</title></polygon>
<text x="12" y="578" fill="#666" font-weight="600">phase buckets</text>
<rect x="12" y="586" width="12" height="12" fill="#c7e9c0"/>
<text x="28" y="596" fill="#222">parseTranslationUnit</text>
<rect x="289" y="586" width="12" height="12" fill="#41ab5d"/>
<text x="305" y="596" fill="#222">SemanticChecking</text>
<rect x="566" y="586" width="12" height="12" fill="#006d2c"/>
<text x="582" y="596" fill="#222">generateIR</text>
<rect x="843" y="586" width="12" height="12" fill="#74c476"/>
<text x="859" y="596" fill="#222">frontEndExecute (self)</text>
<rect x="12" y="604" width="12" height="12" fill="#6baed6"/>
<text x="28" y="614" fill="#222">specializeModule</text>
<rect x="289" y="604" width="12" height="12" fill="#2171b5"/>
<text x="305" y="614" fill="#222">simplifyIR</text>
<rect x="566" y="604" width="12" height="12" fill="#08306b"/>
<text x="582" y="614" fill="#222">linkIR</text>
<rect x="843" y="604" width="12" height="12" fill="#9e9ac8"/>
<text x="859" y="614" fill="#222">unrollLoopsInModule</text>
<rect x="12" y="622" width="12" height="12" fill="#807dba"/>
<text x="28" y="632" fill="#222">legalizeResourceTypes</text>
<rect x="289" y="622" width="12" height="12" fill="#6a51a3"/>
<text x="305" y="632" fill="#222">legalizeExistentialTypeLayout</text>
<rect x="566" y="622" width="12" height="12" fill="#bcbddc"/>
<text x="582" y="632" fill="#222">performMandatoryEarlyInlining</text>
<rect x="843" y="622" width="12" height="12" fill="#dadaeb"/>
<text x="859" y="632" fill="#222">performForceInlining</text>
<rect x="12" y="640" width="12" height="12" fill="#4a1486"/>
<text x="28" y="650" fill="#222">linkAndOptimizeIR (self)</text>
<rect x="289" y="640" width="12" height="12" fill="#fd8d3c"/>
<text x="305" y="650" fill="#222">emitEntryPointsSourceFromIR</text>
<rect x="566" y="640" width="12" height="12" fill="#e6550d"/>
<text x="582" y="650" fill="#222">generateOutput (self)</text>
<rect x="843" y="640" width="12" height="12" fill="#969696"/>
<text x="859" y="650" fill="#222">compileInner (self)</text>
</svg>