<svg xmlns="http://www.w3.org/2000/svg" xmlns:xlink="http://www.w3.org/1999/xlink" width="1132" height="680" viewBox="0 0 1132 680" preserveAspectRatio="xMidYMid meet" font-family="sans-serif" font-size="13">
<rect width="1132" height="680" fill="white"/>
<text x="12" y="30" font-size="20" font-weight="bold">reflection_layout — full phase breakdown across releases (median ms)</text>
<text x="68" y="60" font-size="15" font-weight="600" fill="#1a1a1a">reflection_layout<tspan fill="#888" font-weight="400" text-decoration="none">  0.86×</tspan></text>
<line x1="68.0" y1="516.0" x2="1108.0" y2="516.0" stroke="#eee"/>
<text x="64.0" y="519.0" text-anchor="end" fill="#999">0.0</text>
<line x1="68.0" y1="296.0" x2="1108.0" y2="296.0" stroke="#eee"/>
<text x="64.0" y="299.0" text-anchor="end" fill="#999">170</text>
<line x1="68.0" y1="76.0" x2="1108.0" y2="76.0" stroke="#eee"/>
<text x="64.0" y="79.0" text-anchor="end" fill="#999">340</text>
<line x1="68.0" y1="76.0" x2="68.0" y2="516.0" stroke="#333"/>
<line x1="68.0" y1="516.0" x2="1108.0" y2="516.0" stroke="#333"/>
<line x1="866.6" y1="76.0" x2="866.6" y2="516.0" stroke="#e8731a" stroke-width="1.2" stroke-dasharray="4 3"/>
<text x="869.6" y="87.0" fill="#e8731a" font-size="11">daily →</text>
<line x1="68.0" y1="516.0" x2="68.0" y2="519.0" stroke="#999"/>
<text x="68.0" y="531.0" text-anchor="end" fill="#666" transform="rotate(-50 68.0 531.0)">25.14</text>
<line x1="105.1" y1="516.0" x2="105.1" y2="519.0" stroke="#999"/>
<text x="105.1" y="531.0" text-anchor="end" fill="#666" transform="rotate(-50 105.1 531.0)">25.15</text>
<line x1="142.3" y1="516.0" x2="142.3" y2="519.0" stroke="#999"/>
<text x="142.3" y="531.0" text-anchor="end" fill="#666" transform="rotate(-50 142.3 531.0)">25.16</text>
<line x1="179.4" y1="516.0" x2="179.4" y2="519.0" stroke="#999"/>
<text x="179.4" y="531.0" text-anchor="end" fill="#666" transform="rotate(-50 179.4 531.0)">25.17</text>
<line x1="216.6" y1="516.0" x2="216.6" y2="519.0" stroke="#999"/>
<text x="216.6" y="531.0" text-anchor="end" fill="#666" transform="rotate(-50 216.6 531.0)">25.18</text>
<line x1="253.7" y1="516.0" x2="253.7" y2="519.0" stroke="#999"/>
<text x="253.7" y="531.0" text-anchor="end" fill="#666" transform="rotate(-50 253.7 531.0)">25.19</text>
<line x1="290.9" y1="516.0" x2="290.9" y2="519.0" stroke="#999"/>
<text x="290.9" y="531.0" text-anchor="end" fill="#666" transform="rotate(-50 290.9 531.0)">25.20</text>
<line x1="328.0" y1="516.0" x2="328.0" y2="519.0" stroke="#999"/>
<text x="328.0" y="531.0" text-anchor="end" fill="#666" transform="rotate(-50 328.0 531.0)">25.21</text>
<line x1="365.1" y1="516.0" x2="365.1" y2="519.0" stroke="#999"/>
<text x="365.1" y="531.0" text-anchor="end" fill="#666" transform="rotate(-50 365.1 531.0)">25.22</text>
<line x1="402.3" y1="516.0" x2="402.3" y2="519.0" stroke="#999"/>
<text x="402.3" y="531.0" text-anchor="end" fill="#666" transform="rotate(-50 402.3 531.0)">25.23</text>
<line x1="439.4" y1="516.0" x2="439.4" y2="519.0" stroke="#999"/>
<text x="439.4" y="531.0" text-anchor="end" fill="#666" transform="rotate(-50 439.4 531.0)">25.24</text>
<line x1="476.6" y1="516.0" x2="476.6" y2="519.0" stroke="#999"/>
<text x="476.6" y="531.0" text-anchor="end" fill="#666" transform="rotate(-50 476.6 531.0)">26.1</text>
<line x1="513.7" y1="516.0" x2="513.7" y2="519.0" stroke="#999"/>
<text x="513.7" y="531.0" text-anchor="end" fill="#666" transform="rotate(-50 513.7 531.0)">26.2</text>
<line x1="550.9" y1="516.0" x2="550.9" y2="519.0" stroke="#999"/>
<text x="550.9" y="531.0" text-anchor="end" fill="#666" transform="rotate(-50 550.9 531.0)">26.3</text>
<line x1="588.0" y1="516.0" x2="588.0" y2="519.0" stroke="#999"/>
<text x="588.0" y="531.0" text-anchor="end" fill="#666" transform="rotate(-50 588.0 531.0)">26.4</text>
<line x1="625.1" y1="516.0" x2="625.1" y2="519.0" stroke="#999"/>
<text x="625.1" y="531.0" text-anchor="end" fill="#666" transform="rotate(-50 625.1 531.0)">26.5</text>
<line x1="662.3" y1="516.0" x2="662.3" y2="519.0" stroke="#999"/>
<text x="662.3" y="531.0" text-anchor="end" fill="#666" transform="rotate(-50 662.3 531.0)">26.7</text>
<line x1="699.4" y1="516.0" x2="699.4" y2="519.0" stroke="#999"/>
<text x="699.4" y="531.0" text-anchor="end" fill="#666" transform="rotate(-50 699.4 531.0)">26.8</text>
<line x1="736.6" y1="516.0" x2="736.6" y2="519.0" stroke="#999"/>
<text x="736.6" y="531.0" text-anchor="end" fill="#666" transform="rotate(-50 736.6 531.0)">26.9</text>
<line x1="773.7" y1="516.0" x2="773.7" y2="519.0" stroke="#999"/>
<text x="773.7" y="531.0" text-anchor="end" fill="#666" transform="rotate(-50 773.7 531.0)">26.10</text>
<line x1="810.9" y1="516.0" x2="810.9" y2="519.0" stroke="#999"/>
<text x="810.9" y="531.0" text-anchor="end" fill="#666" transform="rotate(-50 810.9 531.0)">26.11</text>
<line x1="848.0" y1="516.0" x2="848.0" y2="519.0" stroke="#999"/>
<text x="848.0" y="531.0" text-anchor="end" fill="#666" transform="rotate(-50 848.0 531.0)">26.12</text>
<line x1="885.1" y1="516.0" x2="885.1" y2="519.0" stroke="#999"/>
<text x="885.1" y="531.0" text-anchor="end" fill="#e8731a" transform="rotate(-50 885.1 531.0)">06-25</text>
<line x1="922.3" y1="516.0" x2="922.3" y2="519.0" stroke="#999"/>
<text x="922.3" y="531.0" text-anchor="end" fill="#e8731a" transform="rotate(-50 922.3 531.0)">06-26</text>
<line x1="959.4" y1="516.0" x2="959.4" y2="519.0" stroke="#999"/>
<text x="959.4" y="531.0" text-anchor="end" fill="#e8731a" transform="rotate(-50 959.4 531.0)">06-28</text>
<line x1="996.6" y1="516.0" x2="996.6" y2="519.0" stroke="#999"/>
<text x="996.6" y="531.0" text-anchor="end" fill="#e8731a" transform="rotate(-50 996.6 531.0)">07-01</text>
<line x1="1033.7" y1="516.0" x2="1033.7" y2="519.0" stroke="#999"/>
<text x="1033.7" y="531.0" text-anchor="end" fill="#e8731a" transform="rotate(-50 1033.7 531.0)">07-02</text>
<line x1="1070.9" y1="516.0" x2="1070.9" y2="519.0" stroke="#999"/>
<text x="1070.9" y="531.0" text-anchor="end" fill="#e8731a" transform="rotate(-50 1070.9 531.0)">07-03</text>
<line x1="1108.0" y1="516.0" x2="1108.0" y2="519.0" stroke="#999"/>
<text x="1108.0" y="531.0" text-anchor="end" fill="#e8731a" transform="rotate(-50 1108.0 531.0)">07-07</text>
<polygon points="68.0,510.5 105.1,510.7 142.3,510.7 179.4,510.6 216.6,510.2 253.7,510.4 290.9,510.2 328.0,510.5 365.1,510.4 402.3,510.6 439.4,510.4 476.6,510.5 513.7,510.5 550.9,510.4 588.0,510.4 625.1,510.2 662.3,510.1 699.4,510.2 736.6,510.1 773.7,510.1 810.9,510.2 848.0,510.3 885.1,510.0 922.3,509.9 959.4,509.7 996.6,509.9 1033.7,509.9 1070.9,509.7 1108.0,509.8 1108.0,516.0 1070.9,516.0 1033.7,516.0 996.6,516.0 959.4,516.0 922.3,516.0 885.1,516.0 848.0,516.0 810.9,516.0 773.7,516.0 736.6,516.0 699.4,516.0 662.3,516.0 625.1,516.0 588.0,516.0 550.9,516.0 513.7,516.0 476.6,516.0 439.4,516.0 402.3,516.0 365.1,516.0 328.0,516.0 290.9,516.0 253.7,516.0 216.6,516.0 179.4,516.0 142.3,516.0 105.1,516.0 68.0,516.0" fill="#c7e9c0" fill-opacity="0.9" stroke="#fff" stroke-width="0.4"><title>reflection_layout — parseTranslationUnit</title></polygon>
<polygon points="68.0,394.9 105.1,388.1 142.3,383.2 179.4,383.6 216.6,376.7 253.7,372.3 290.9,358.9 328.0,377.6 365.1,377.7 402.3,381.2 439.4,382.2 476.6,384.1 513.7,387.0 550.9,386.3 588.0,385.6 625.1,382.9 662.3,390.6 699.4,393.5 736.6,393.1 773.7,393.5 810.9,434.3 848.0,425.7 885.1,420.1 922.3,419.4 959.4,416.2 996.6,418.5 1033.7,418.8 1070.9,416.3 1108.0,415.9 1108.0,509.8 1070.9,509.7 1033.7,509.9 996.6,509.9 959.4,509.7 922.3,509.9 885.1,510.0 848.0,510.3 810.9,510.2 773.7,510.1 736.6,510.1 699.4,510.2 662.3,510.1 625.1,510.2 588.0,510.4 550.9,510.4 513.7,510.5 476.6,510.5 439.4,510.4 402.3,510.6 365.1,510.4 328.0,510.5 290.9,510.2 253.7,510.4 216.6,510.2 179.4,510.6 142.3,510.7 105.1,510.7 68.0,510.5" fill="#41ab5d" fill-opacity="0.9" stroke="#fff" stroke-width="0.4"><title>reflection_layout — SemanticChecking</title></polygon>
<polygon points="68.0,377.4 105.1,370.6 142.3,365.3 179.4,365.2 216.6,357.7 253.7,351.7 290.9,337.5 328.0,358.3 365.1,358.9 402.3,363.1 439.4,364.2 476.6,366.1 513.7,368.9 550.9,368.0 588.0,367.5 625.1,364.7 662.3,364.3 699.4,366.1 736.6,366.3 773.7,364.1 810.9,418.6 848.0,409.6 885.1,402.8 922.3,402.5 959.4,398.7 996.6,401.7 1033.7,402.0 1070.9,398.7 1108.0,398.6 1108.0,415.9 1070.9,416.3 1033.7,418.8 996.6,418.5 959.4,416.2 922.3,419.4 885.1,420.1 848.0,425.7 810.9,434.3 773.7,393.5 736.6,393.1 699.4,393.5 662.3,390.6 625.1,382.9 588.0,385.6 550.9,386.3 513.7,387.0 476.6,384.1 439.4,382.2 402.3,381.2 365.1,377.7 328.0,377.6 290.9,358.9 253.7,372.3 216.6,376.7 179.4,383.6 142.3,383.2 105.1,388.1 68.0,394.9" fill="#006d2c" fill-opacity="0.9" stroke="#fff" stroke-width="0.4"><title>reflection_layout — generateIR</title></polygon>
<polygon points="68.0,368.1 105.1,361.7 142.3,355.7 179.4,355.2 216.6,347.5 253.7,343.0 290.9,324.4 328.0,348.5 365.1,348.8 402.3,353.8 439.4,354.5 476.6,357.0 513.7,359.4 550.9,358.2 588.0,357.8 625.1,354.7 662.3,353.2 699.4,356.3 736.6,356.0 773.7,355.4 810.9,408.3 848.0,399.9 885.1,392.6 922.3,391.9 959.4,386.8 996.6,391.7 1033.7,391.6 1070.9,388.1 1108.0,388.7 1108.0,398.6 1070.9,398.7 1033.7,402.0 996.6,401.7 959.4,398.7 922.3,402.5 885.1,402.8 848.0,409.6 810.9,418.6 773.7,364.1 736.6,366.3 699.4,366.1 662.3,364.3 625.1,364.7 588.0,367.5 550.9,368.0 513.7,368.9 476.6,366.1 439.4,364.2 402.3,363.1 365.1,358.9 328.0,358.3 290.9,337.5 253.7,351.7 216.6,357.7 179.4,365.2 142.3,365.3 105.1,370.6 68.0,377.4" fill="#74c476" fill-opacity="0.9" stroke="#fff" stroke-width="0.4"><title>reflection_layout — frontEndExecute (self)</title></polygon>
<polygon points="68.0,365.6 105.1,359.2 142.3,353.1 179.4,352.7 216.6,344.9 253.7,340.2 290.9,321.5 328.0,345.8 365.1,346.1 402.3,351.2 439.4,351.5 476.6,354.0 513.7,356.5 550.9,355.3 588.0,354.9 625.1,351.8 662.3,338.5 699.4,341.7 736.6,341.0 773.7,340.5 810.9,395.2 848.0,386.7 885.1,377.7 922.3,376.8 959.4,371.4 996.6,376.8 1033.7,376.7 1070.9,372.7 1108.0,381.8 1108.0,388.7 1070.9,388.1 1033.7,391.6 996.6,391.7 959.4,386.8 922.3,391.9 885.1,392.6 848.0,399.9 810.9,408.3 773.7,355.4 736.6,356.0 699.4,356.3 662.3,353.2 625.1,354.7 588.0,357.8 550.9,358.2 513.7,359.4 476.6,357.0 439.4,354.5 402.3,353.8 365.1,348.8 328.0,348.5 290.9,324.4 253.7,343.0 216.6,347.5 179.4,355.2 142.3,355.7 105.1,361.7 68.0,368.1" fill="#6baed6" fill-opacity="0.9" stroke="#fff" stroke-width="0.4"><title>reflection_layout — specializeModule</title></polygon>
<polygon points="68.0,323.2 105.1,317.2 142.3,309.8 179.4,307.5 216.6,298.7 253.7,293.4 290.9,273.5 328.0,297.6 365.1,300.0 402.3,306.1 439.4,308.8 476.6,327.8 513.7,329.7 550.9,328.1 588.0,328.1 625.1,324.8 662.3,306.2 699.4,309.7 736.6,308.6 773.7,308.7 810.9,369.6 848.0,361.2 885.1,349.3 922.3,348.4 959.4,343.7 996.6,349.4 1033.7,349.7 1070.9,344.9 1108.0,359.3 1108.0,381.8 1070.9,372.7 1033.7,376.7 996.6,376.8 959.4,371.4 922.3,376.8 885.1,377.7 848.0,386.7 810.9,395.2 773.7,340.5 736.6,341.0 699.4,341.7 662.3,338.5 625.1,351.8 588.0,354.9 550.9,355.3 513.7,356.5 476.6,354.0 439.4,351.5 402.3,351.2 365.1,346.1 328.0,345.8 290.9,321.5 253.7,340.2 216.6,344.9 179.4,352.7 142.3,353.1 105.1,359.2 68.0,365.6" fill="#2171b5" fill-opacity="0.9" stroke="#fff" stroke-width="0.4"><title>reflection_layout — simplifyIR</title></polygon>
<polygon points="68.0,317.8 105.1,312.5 142.3,304.3 179.4,301.8 216.6,292.3 253.7,286.7 290.9,265.8 328.0,291.7 365.1,294.1 402.3,300.4 439.4,303.7 476.6,322.8 513.7,324.7 550.9,323.1 588.0,323.0 625.1,319.6 662.3,288.4 699.4,291.4 736.6,290.0 773.7,290.7 810.9,364.8 848.0,356.5 885.1,344.4 922.3,343.4 959.4,338.8 996.6,344.5 1033.7,344.9 1070.9,339.8 1108.0,355.0 1108.0,359.3 1070.9,344.9 1033.7,349.7 996.6,349.4 959.4,343.7 922.3,348.4 885.1,349.3 848.0,361.2 810.9,369.6 773.7,308.7 736.6,308.6 699.4,309.7 662.3,306.2 625.1,324.8 588.0,328.1 550.9,328.1 513.7,329.7 476.6,327.8 439.4,308.8 402.3,306.1 365.1,300.0 328.0,297.6 290.9,273.5 253.7,293.4 216.6,298.7 179.4,307.5 142.3,309.8 105.1,317.2 68.0,323.2" fill="#08306b" fill-opacity="0.9" stroke="#fff" stroke-width="0.4"><title>reflection_layout — linkIR</title></polygon>
<polygon points="68.0,317.8 105.1,312.4 142.3,304.3 179.4,301.7 216.6,292.2 253.7,286.6 290.9,265.7 328.0,291.6 365.1,294.0 402.3,300.3 439.4,303.6 476.6,322.7 513.7,324.6 550.9,323.0 588.0,323.0 625.1,319.6 662.3,288.4 699.4,291.4 736.6,289.9 773.7,290.6 810.9,364.8 848.0,356.5 885.1,344.4 922.3,343.3 959.4,338.7 996.6,344.4 1033.7,344.9 1070.9,339.8 1108.0,354.9 1108.0,355.0 1070.9,339.8 1033.7,344.9 996.6,344.5 959.4,338.8 922.3,343.4 885.1,344.4 848.0,356.5 810.9,364.8 773.7,290.7 736.6,290.0 699.4,291.4 662.3,288.4 625.1,319.6 588.0,323.0 550.9,323.1 513.7,324.7 476.6,322.8 439.4,303.7 402.3,300.4 365.1,294.1 328.0,291.7 290.9,265.8 253.7,286.7 216.6,292.3 179.4,301.8 142.3,304.3 105.1,312.5 68.0,317.8" fill="#9e9ac8" fill-opacity="0.9" stroke="#fff" stroke-width="0.4"><title>reflection_layout — unrollLoopsInModule</title></polygon>
<polygon points="68.0,301.8 105.1,296.7 142.3,288.2 179.4,286.0 216.6,276.6 253.7,271.5 290.9,249.7 328.0,276.5 365.1,279.2 402.3,285.8 439.4,289.2 476.6,308.5 513.7,310.4 550.9,308.4 588.0,308.8 625.1,305.3 662.3,273.7 699.4,277.0 736.6,275.4 773.7,276.3 810.9,352.5 848.0,344.2 885.1,331.7 922.3,330.8 959.4,326.1 996.6,331.9 1033.7,332.5 1070.9,326.9 1108.0,342.6 1108.0,354.9 1070.9,339.8 1033.7,344.9 996.6,344.4 959.4,338.7 922.3,343.3 885.1,344.4 848.0,356.5 810.9,364.8 773.7,290.6 736.6,289.9 699.4,291.4 662.3,288.4 625.1,319.6 588.0,323.0 550.9,323.0 513.7,324.6 476.6,322.7 439.4,303.6 402.3,300.3 365.1,294.0 328.0,291.6 290.9,265.7 253.7,286.6 216.6,292.2 179.4,301.7 142.3,304.3 105.1,312.4 68.0,317.8" fill="#807dba" fill-opacity="0.9" stroke="#fff" stroke-width="0.4"><title>reflection_layout — legalizeResourceTypes</title></polygon>
<polygon points="68.0,283.7 105.1,278.7 142.3,269.8 179.4,268.0 216.6,263.7 253.7,258.3 290.9,235.1 328.0,263.4 365.1,266.1 402.3,272.9 439.4,276.3 476.6,295.9 513.7,297.9 550.9,295.6 588.0,296.2 625.1,292.7 662.3,261.7 699.4,264.9 736.6,263.1 773.7,264.3 810.9,340.7 848.0,332.2 885.1,319.5 922.3,318.8 959.4,313.9 996.6,319.6 1033.7,320.7 1070.9,314.5 1108.0,330.1 1108.0,342.6 1070.9,326.9 1033.7,332.5 996.6,331.9 959.4,326.1 922.3,330.8 885.1,331.7 848.0,344.2 810.9,352.5 773.7,276.3 736.6,275.4 699.4,277.0 662.3,273.7 625.1,305.3 588.0,308.8 550.9,308.4 513.7,310.4 476.6,308.5 439.4,289.2 402.3,285.8 365.1,279.2 328.0,276.5 290.9,249.7 253.7,271.5 216.6,276.6 179.4,286.0 142.3,288.2 105.1,296.7 68.0,301.8" fill="#6a51a3" fill-opacity="0.9" stroke="#fff" stroke-width="0.4"><title>reflection_layout — legalizeExistentialTypeLayout</title></polygon>
<polygon points="68.0,282.7 105.1,277.7 142.3,268.8 179.4,266.9 216.6,262.6 253.7,257.2 290.9,233.9 328.0,262.3 365.1,265.0 402.3,271.9 439.4,275.3 476.6,294.9 513.7,296.9 550.9,294.6 588.0,295.2 625.1,291.7 662.3,260.8 699.4,264.0 736.6,262.1 773.7,263.3 810.9,339.7 848.0,331.2 885.1,318.5 922.3,317.7 959.4,312.9 996.6,318.6 1033.7,319.7 1070.9,313.4 1108.0,329.0 1108.0,330.1 1070.9,314.5 1033.7,320.7 996.6,319.6 959.4,313.9 922.3,318.8 885.1,319.5 848.0,332.2 810.9,340.7 773.7,264.3 736.6,263.1 699.4,264.9 662.3,261.7 625.1,292.7 588.0,296.2 550.9,295.6 513.7,297.9 476.6,295.9 439.4,276.3 402.3,272.9 365.1,266.1 328.0,263.4 290.9,235.1 253.7,258.3 216.6,263.7 179.4,268.0 142.3,269.8 105.1,278.7 68.0,283.7" fill="#bcbddc" fill-opacity="0.9" stroke="#fff" stroke-width="0.4"><title>reflection_layout — performMandatoryEarlyInlining</title></polygon>
<polygon points="68.0,271.6 105.1,267.1 142.3,257.7 179.4,251.8 216.6,247.6 253.7,242.0 290.9,217.3 328.0,245.8 365.1,250.8 402.3,258.0 439.4,261.1 476.6,288.7 513.7,290.9 550.9,288.1 588.0,289.1 625.1,285.4 662.3,254.5 699.4,258.1 736.6,256.2 773.7,257.3 810.9,334.0 848.0,325.3 885.1,312.3 922.3,311.6 959.4,306.7 996.6,312.5 1033.7,313.6 1070.9,307.2 1108.0,323.0 1108.0,329.0 1070.9,313.4 1033.7,319.7 996.6,318.6 959.4,312.9 922.3,317.7 885.1,318.5 848.0,331.2 810.9,339.7 773.7,263.3 736.6,262.1 699.4,264.0 662.3,260.8 625.1,291.7 588.0,295.2 550.9,294.6 513.7,296.9 476.6,294.9 439.4,275.3 402.3,271.9 365.1,265.0 328.0,262.3 290.9,233.9 253.7,257.2 216.6,262.6 179.4,266.9 142.3,268.8 105.1,277.7 68.0,282.7" fill="#dadaeb" fill-opacity="0.9" stroke="#fff" stroke-width="0.4"><title>reflection_layout — performForceInlining</title></polygon>
<polygon points="68.0,231.1 105.1,227.2 142.3,216.4 179.4,209.8 216.6,203.1 253.7,199.7 290.9,170.0 328.0,198.0 365.1,206.7 402.3,214.2 439.4,222.1 476.6,258.1 513.7,261.6 550.9,257.9 588.0,257.0 625.1,253.8 662.3,197.2 699.4,202.2 736.6,200.5 773.7,201.4 810.9,288.9 848.0,278.9 885.1,263.0 922.3,261.7 959.4,255.8 996.6,264.5 1033.7,263.5 1070.9,254.4 1108.0,272.9 1108.0,323.0 1070.9,307.2 1033.7,313.6 996.6,312.5 959.4,306.7 922.3,311.6 885.1,312.3 848.0,325.3 810.9,334.0 773.7,257.3 736.6,256.2 699.4,258.1 662.3,254.5 625.1,285.4 588.0,289.1 550.9,288.1 513.7,290.9 476.6,288.7 439.4,261.1 402.3,258.0 365.1,250.8 328.0,245.8 290.9,217.3 253.7,242.0 216.6,247.6 179.4,251.8 142.3,257.7 105.1,267.1 68.0,271.6" fill="#4a1486" fill-opacity="0.9" stroke="#fff" stroke-width="0.4"><title>reflection_layout — linkAndOptimizeIR (self)</title></polygon>
<polygon points="68.0,179.4 105.1,177.1 142.3,163.3 179.4,161.5 216.6,158.3 253.7,154.0 290.9,118.5 328.0,154.6 365.1,159.8 402.3,170.5 439.4,180.1 476.6,217.3 513.7,220.0 550.9,216.6 588.0,215.8 625.1,211.4 662.3,155.5 699.4,159.3 736.6,158.0 773.7,159.8 810.9,247.5 848.0,238.1 885.1,219.7 922.3,219.0 959.4,213.1 996.6,222.4 1033.7,221.6 1070.9,211.2 1108.0,229.4 1108.0,272.9 1070.9,254.4 1033.7,263.5 996.6,264.5 959.4,255.8 922.3,261.7 885.1,263.0 848.0,278.9 810.9,288.9 773.7,201.4 736.6,200.5 699.4,202.2 662.3,197.2 625.1,253.8 588.0,257.0 550.9,257.9 513.7,261.6 476.6,258.1 439.4,222.1 402.3,214.2 365.1,206.7 328.0,198.0 290.9,170.0 253.7,199.7 216.6,203.1 179.4,209.8 142.3,216.4 105.1,227.2 68.0,231.1" fill="#e6550d" fill-opacity="0.9" stroke="#fff" stroke-width="0.4"><title>reflection_layout — generateOutput (self)</title></polygon>
<polygon points="68.0,169.9 105.1,169.1 142.3,153.7 179.4,147.8 216.6,135.6 253.7,140.1 290.9,108.6 328.0,145.4 365.1,142.5 402.3,161.1 439.4,170.9 476.6,200.5 513.7,210.4 550.9,205.1 588.0,204.3 625.1,200.9 662.3,145.2 699.4,150.9 736.6,150.9 773.7,145.6 810.9,238.3 848.0,228.7 885.1,209.7 922.3,208.4 959.4,201.6 996.6,212.0 1033.7,211.1 1070.9,201.3 1108.0,219.6 1108.0,229.4 1070.9,211.2 1033.7,221.6 996.6,222.4 959.4,213.1 922.3,219.0 885.1,219.7 848.0,238.1 810.9,247.5 773.7,159.8 736.6,158.0 699.4,159.3 662.3,155.5 625.1,211.4 588.0,215.8 550.9,216.6 513.7,220.0 476.6,217.3 439.4,180.1 402.3,170.5 365.1,159.8 328.0,154.6 290.9,118.5 253.7,154.0 216.6,158.3 179.4,161.5 142.3,163.3 105.1,177.1 68.0,179.4" fill="#969696" fill-opacity="0.9" stroke="#fff" stroke-width="0.4"><title>reflection_layout — compileInner (self)</title></polygon>
<text x="12" y="578" fill="#666" font-weight="600">phase buckets</text>
<rect x="12" y="586" width="12" height="12" fill="#c7e9c0"/>
<text x="28" y="596" fill="#222">parseTranslationUnit</text>
<rect x="289" y="586" width="12" height="12" fill="#41ab5d"/>
<text x="305" y="596" fill="#222">SemanticChecking</text>
<rect x="566" y="586" width="12" height="12" fill="#006d2c"/>
<text x="582" y="596" fill="#222">generateIR</text>
<rect x="843" y="586" width="12" height="12" fill="#74c476"/>
<text x="859" y="596" fill="#222">frontEndExecute (self)</text>
<rect x="12" y="604" width="12" height="12" fill="#6baed6"/>
<text x="28" y="614" fill="#222">specializeModule</text>
<rect x="289" y="604" width="12" height="12" fill="#2171b5"/>
<text x="305" y="614" fill="#222">simplifyIR</text>
<rect x="566" y="604" width="12" height="12" fill="#08306b"/>
<text x="582" y="614" fill="#222">linkIR</text>
<rect x="843" y="604" width="12" height="12" fill="#9e9ac8"/>
<text x="859" y="614" fill="#222">unrollLoopsInModule</text>
<rect x="12" y="622" width="12" height="12" fill="#807dba"/>
<text x="28" y="632" fill="#222">legalizeResourceTypes</text>
<rect x="289" y="622" width="12" height="12" fill="#6a51a3"/>
<text x="305" y="632" fill="#222">legalizeExistentialTypeLayout</text>
<rect x="566" y="622" width="12" height="12" fill="#bcbddc"/>
<text x="582" y="632" fill="#222">performMandatoryEarlyInlining</text>
<rect x="843" y="622" width="12" height="12" fill="#dadaeb"/>
<text x="859" y="632" fill="#222">performForceInlining</text>
<rect x="12" y="640" width="12" height="12" fill="#4a1486"/>
<text x="28" y="650" fill="#222">linkAndOptimizeIR (self)</text>
<rect x="289" y="640" width="12" height="12" fill="#fd8d3c"/>
<text x="305" y="650" fill="#222">emitEntryPointsSourceFromIR</text>
<rect x="566" y="640" width="12" height="12" fill="#e6550d"/>
<text x="582" y="650" fill="#222">generateOutput (self)</text>
<rect x="843" y="640" width="12" height="12" fill="#969696"/>
<text x="859" y="650" fill="#222">compileInner (self)</text>
</svg>