<svg xmlns="http://www.w3.org/2000/svg" xmlns:xlink="http://www.w3.org/1999/xlink" width="1132" height="680" viewBox="0 0 1132 680" preserveAspectRatio="xMidYMid meet" font-family="sans-serif" font-size="13">
<rect width="1132" height="680" fill="white"/>
<text x="12" y="30" font-size="20" font-weight="bold">resource_aggregate — Daily tip-of-tree (last 30 days) (median ms)</text>
<text x="68" y="60" font-size="15" font-weight="600" fill="#1a1a1a">resource_aggregate<tspan fill="#888" font-weight="400" text-decoration="none">  0.65×</tspan></text>
<line x1="68.0" y1="516.0" x2="1108.0" y2="516.0" stroke="#eee"/>
<text x="64.0" y="519.0" text-anchor="end" fill="#999">0.0</text>
<line x1="68.0" y1="296.0" x2="1108.0" y2="296.0" stroke="#eee"/>
<text x="64.0" y="299.0" text-anchor="end" fill="#999">39</text>
<line x1="68.0" y1="76.0" x2="1108.0" y2="76.0" stroke="#eee"/>
<text x="64.0" y="79.0" text-anchor="end" fill="#999">77</text>
<line x1="68.0" y1="76.0" x2="68.0" y2="516.0" stroke="#333"/>
<line x1="68.0" y1="516.0" x2="1108.0" y2="516.0" stroke="#333"/>
<line x1="68.0" y1="516.0" x2="68.0" y2="519.0" stroke="#999"/>
<text x="68.0" y="531.0" text-anchor="end" fill="#e8731a" transform="rotate(-50 68.0 531.0)">06-25</text>
<line x1="125.8" y1="516.0" x2="125.8" y2="519.0" stroke="#999"/>
<text x="125.8" y="531.0" text-anchor="end" fill="#e8731a" transform="rotate(-50 125.8 531.0)">06-26</text>
<line x1="183.6" y1="516.0" x2="183.6" y2="519.0" stroke="#999"/>
<text x="183.6" y="531.0" text-anchor="end" fill="#e8731a" transform="rotate(-50 183.6 531.0)">06-28</text>
<line x1="241.3" y1="516.0" x2="241.3" y2="519.0" stroke="#999"/>
<text x="241.3" y="531.0" text-anchor="end" fill="#e8731a" transform="rotate(-50 241.3 531.0)">07-01</text>
<line x1="299.1" y1="516.0" x2="299.1" y2="519.0" stroke="#999"/>
<text x="299.1" y="531.0" text-anchor="end" fill="#e8731a" transform="rotate(-50 299.1 531.0)">07-02</text>
<line x1="356.9" y1="516.0" x2="356.9" y2="519.0" stroke="#999"/>
<text x="356.9" y="531.0" text-anchor="end" fill="#e8731a" transform="rotate(-50 356.9 531.0)">07-03</text>
<line x1="414.7" y1="516.0" x2="414.7" y2="519.0" stroke="#999"/>
<text x="414.7" y="531.0" text-anchor="end" fill="#e8731a" transform="rotate(-50 414.7 531.0)">07-06</text>
<line x1="472.4" y1="516.0" x2="472.4" y2="519.0" stroke="#999"/>
<text x="472.4" y="531.0" text-anchor="end" fill="#e8731a" transform="rotate(-50 472.4 531.0)">07-07</text>
<line x1="530.2" y1="516.0" x2="530.2" y2="519.0" stroke="#999"/>
<text x="530.2" y="531.0" text-anchor="end" fill="#e8731a" transform="rotate(-50 530.2 531.0)">07-08</text>
<line x1="588.0" y1="516.0" x2="588.0" y2="519.0" stroke="#999"/>
<text x="588.0" y="531.0" text-anchor="end" fill="#e8731a" transform="rotate(-50 588.0 531.0)">07-09</text>
<line x1="645.8" y1="516.0" x2="645.8" y2="519.0" stroke="#999"/>
<text x="645.8" y="531.0" text-anchor="end" fill="#e8731a" transform="rotate(-50 645.8 531.0)">07-10</text>
<line x1="703.6" y1="516.0" x2="703.6" y2="519.0" stroke="#999"/>
<text x="703.6" y="531.0" text-anchor="end" fill="#e8731a" transform="rotate(-50 703.6 531.0)">07-11</text>
<line x1="761.3" y1="516.0" x2="761.3" y2="519.0" stroke="#999"/>
<text x="761.3" y="531.0" text-anchor="end" fill="#e8731a" transform="rotate(-50 761.3 531.0)">07-14</text>
<line x1="819.1" y1="516.0" x2="819.1" y2="519.0" stroke="#999"/>
<text x="819.1" y="531.0" text-anchor="end" fill="#e8731a" transform="rotate(-50 819.1 531.0)">07-15</text>
<line x1="876.9" y1="516.0" x2="876.9" y2="519.0" stroke="#999"/>
<text x="876.9" y="531.0" text-anchor="end" fill="#e8731a" transform="rotate(-50 876.9 531.0)">07-15</text>
<line x1="934.7" y1="516.0" x2="934.7" y2="519.0" stroke="#999"/>
<text x="934.7" y="531.0" text-anchor="end" fill="#e8731a" transform="rotate(-50 934.7 531.0)">07-16</text>
<line x1="992.4" y1="516.0" x2="992.4" y2="519.0" stroke="#999"/>
<text x="992.4" y="531.0" text-anchor="end" fill="#e8731a" transform="rotate(-50 992.4 531.0)">07-17</text>
<line x1="1050.2" y1="516.0" x2="1050.2" y2="519.0" stroke="#999"/>
<text x="1050.2" y="531.0" text-anchor="end" fill="#e8731a" transform="rotate(-50 1050.2 531.0)">07-18</text>
<line x1="1108.0" y1="516.0" x2="1108.0" y2="519.0" stroke="#999"/>
<text x="1108.0" y="531.0" text-anchor="end" fill="#e8731a" transform="rotate(-50 1108.0 531.0)">07-19</text>
<polygon points="68.0,512.4 125.8,512.4 183.6,512.4 241.3,512.4 299.1,512.4 356.9,512.4 414.7,512.2 472.4,512.7 530.2,512.8 588.0,512.8 645.8,512.8 703.6,512.6 761.3,512.8 819.1,513.1 876.9,513.0 934.7,512.8 992.4,513.0 1050.2,513.3 1108.0,513.3 1108.0,516.0 1050.2,516.0 992.4,516.0 934.7,516.0 876.9,516.0 819.1,516.0 761.3,516.0 703.6,516.0 645.8,516.0 588.0,516.0 530.2,516.0 472.4,516.0 414.7,516.0 356.9,516.0 299.1,516.0 241.3,516.0 183.6,516.0 125.8,516.0 68.0,516.0" fill="#c7e9c0" fill-opacity="0.9" stroke="#fff" stroke-width="0.4"><title>resource_aggregate — parseTranslationUnit</title></polygon>
<polygon points="68.0,429.2 125.8,429.8 183.6,430.3 241.3,428.3 299.1,430.5 356.9,431.0 414.7,430.3 472.4,434.6 530.2,437.7 588.0,436.0 645.8,436.6 703.6,435.5 761.3,435.7 819.1,440.6 876.9,441.5 934.7,425.7 992.4,426.0 1050.2,436.2 1108.0,435.6 1108.0,513.3 1050.2,513.3 992.4,513.0 934.7,512.8 876.9,513.0 819.1,513.1 761.3,512.8 703.6,512.6 645.8,512.8 588.0,512.8 530.2,512.8 472.4,512.7 414.7,512.2 356.9,512.4 299.1,512.4 241.3,512.4 183.6,512.4 125.8,512.4 68.0,512.4" fill="#41ab5d" fill-opacity="0.9" stroke="#fff" stroke-width="0.4"><title>resource_aggregate — SemanticChecking</title></polygon>
<polygon points="68.0,391.4 125.8,390.9 183.6,392.8 241.3,390.0 299.1,391.4 356.9,392.3 414.7,391.2 472.4,395.8 530.2,398.3 588.0,396.7 645.8,400.1 703.6,398.5 761.3,398.9 819.1,406.1 876.9,406.8 934.7,392.4 992.4,393.2 1050.2,408.5 1108.0,407.3 1108.0,435.6 1050.2,436.2 992.4,426.0 934.7,425.7 876.9,441.5 819.1,440.6 761.3,435.7 703.6,435.5 645.8,436.6 588.0,436.0 530.2,437.7 472.4,434.6 414.7,430.3 356.9,431.0 299.1,430.5 241.3,428.3 183.6,430.3 125.8,429.8 68.0,429.2" fill="#006d2c" fill-opacity="0.9" stroke="#fff" stroke-width="0.4"><title>resource_aggregate — generateIR</title></polygon>
<polygon points="68.0,381.3 125.8,380.0 183.6,381.8 241.3,378.1 299.1,380.6 356.9,381.4 414.7,380.0 472.4,385.4 530.2,385.9 588.0,385.2 645.8,388.5 703.6,386.6 761.3,388.4 819.1,397.3 876.9,397.3 934.7,382.5 992.4,383.5 1050.2,398.1 1108.0,397.3 1108.0,407.3 1050.2,408.5 992.4,393.2 934.7,392.4 876.9,406.8 819.1,406.1 761.3,398.9 703.6,398.5 645.8,400.1 588.0,396.7 530.2,398.3 472.4,395.8 414.7,391.2 356.9,392.3 299.1,391.4 241.3,390.0 183.6,392.8 125.8,390.9 68.0,391.4" fill="#74c476" fill-opacity="0.9" stroke="#fff" stroke-width="0.4"><title>resource_aggregate — frontEndExecute (self)</title></polygon>
<polygon points="68.0,326.0 125.8,322.3 183.6,326.2 241.3,322.1 299.1,324.7 356.9,325.2 414.7,324.8 472.4,344.8 530.2,344.9 588.0,345.1 645.8,353.0 703.6,350.6 761.3,353.4 819.1,367.9 876.9,367.7 934.7,352.9 992.4,353.7 1050.2,371.4 1108.0,370.5 1108.0,397.3 1050.2,398.1 992.4,383.5 934.7,382.5 876.9,397.3 819.1,397.3 761.3,388.4 703.6,386.6 645.8,388.5 588.0,385.2 530.2,385.9 472.4,385.4 414.7,380.0 356.9,381.4 299.1,380.6 241.3,378.1 183.6,381.8 125.8,380.0 68.0,381.3" fill="#6baed6" fill-opacity="0.9" stroke="#fff" stroke-width="0.4"><title>resource_aggregate — specializeModule</title></polygon>
<polygon points="68.0,290.9 125.8,286.6 183.6,291.1 241.3,285.9 299.1,289.2 356.9,289.8 414.7,289.2 472.4,319.6 530.2,320.0 588.0,320.0 645.8,334.7 703.6,332.4 761.3,335.5 819.1,349.8 876.9,349.5 934.7,334.8 992.4,335.7 1050.2,354.8 1108.0,354.1 1108.0,370.5 1050.2,371.4 992.4,353.7 934.7,352.9 876.9,367.7 819.1,367.9 761.3,353.4 703.6,350.6 645.8,353.0 588.0,345.1 530.2,344.9 472.4,344.8 414.7,324.8 356.9,325.2 299.1,324.7 241.3,322.1 183.6,326.2 125.8,322.3 68.0,326.0" fill="#2171b5" fill-opacity="0.9" stroke="#fff" stroke-width="0.4"><title>resource_aggregate — simplifyIR</title></polygon>
<polygon points="68.0,281.5 125.8,277.1 183.6,281.6 241.3,276.3 299.1,279.8 356.9,280.2 414.7,279.8 472.4,313.9 530.2,314.1 588.0,313.9 645.8,328.7 703.6,326.5 761.3,329.7 819.1,344.6 876.9,344.5 934.7,329.8 992.4,330.5 1050.2,350.6 1108.0,349.8 1108.0,354.1 1050.2,354.8 992.4,335.7 934.7,334.8 876.9,349.5 819.1,349.8 761.3,335.5 703.6,332.4 645.8,334.7 588.0,320.0 530.2,320.0 472.4,319.6 414.7,289.2 356.9,289.8 299.1,289.2 241.3,285.9 183.6,291.1 125.8,286.6 68.0,290.9" fill="#08306b" fill-opacity="0.9" stroke="#fff" stroke-width="0.4"><title>resource_aggregate — linkIR</title></polygon>
<polygon points="68.0,281.4 125.8,277.0 183.6,281.5 241.3,276.2 299.1,279.7 356.9,280.0 414.7,279.7 472.4,313.8 530.2,314.0 588.0,313.9 645.8,328.7 703.6,326.4 761.3,329.7 819.1,344.5 876.9,344.4 934.7,329.7 992.4,330.5 1050.2,350.5 1108.0,349.8 1108.0,349.8 1050.2,350.6 992.4,330.5 934.7,329.8 876.9,344.5 819.1,344.6 761.3,329.7 703.6,326.5 645.8,328.7 588.0,313.9 530.2,314.1 472.4,313.9 414.7,279.8 356.9,280.2 299.1,279.8 241.3,276.3 183.6,281.6 125.8,277.1 68.0,281.5" fill="#9e9ac8" fill-opacity="0.9" stroke="#fff" stroke-width="0.4"><title>resource_aggregate — unrollLoopsInModule</title></polygon>
<polygon points="68.0,261.9 125.8,256.4 183.6,261.4 241.3,256.1 299.1,260.2 356.9,259.9 414.7,259.8 472.4,294.1 530.2,295.0 588.0,294.2 645.8,320.3 703.6,317.9 761.3,321.4 819.1,336.1 876.9,336.0 934.7,321.4 992.4,322.1 1050.2,343.2 1108.0,342.3 1108.0,349.8 1050.2,350.5 992.4,330.5 934.7,329.7 876.9,344.4 819.1,344.5 761.3,329.7 703.6,326.4 645.8,328.7 588.0,313.9 530.2,314.0 472.4,313.8 414.7,279.7 356.9,280.0 299.1,279.7 241.3,276.2 183.6,281.5 125.8,277.0 68.0,281.4" fill="#807dba" fill-opacity="0.9" stroke="#fff" stroke-width="0.4"><title>resource_aggregate — legalizeResourceTypes</title></polygon>
<polygon points="68.0,250.0 125.8,244.2 183.6,249.1 241.3,244.0 299.1,248.3 356.9,248.1 414.7,248.0 472.4,281.8 530.2,283.0 588.0,282.2 645.8,316.1 703.6,313.8 761.3,317.6 819.1,331.6 876.9,331.6 934.7,316.7 992.4,317.6 1050.2,339.3 1108.0,338.3 1108.0,342.3 1050.2,343.2 992.4,322.1 934.7,321.4 876.9,336.0 819.1,336.1 761.3,321.4 703.6,317.9 645.8,320.3 588.0,294.2 530.2,295.0 472.4,294.1 414.7,259.8 356.9,259.9 299.1,260.2 241.3,256.1 183.6,261.4 125.8,256.4 68.0,261.9" fill="#6a51a3" fill-opacity="0.9" stroke="#fff" stroke-width="0.4"><title>resource_aggregate — legalizeExistentialTypeLayout</title></polygon>
<polygon points="68.0,247.9 125.8,242.1 183.6,247.1 241.3,242.0 299.1,246.2 356.9,246.0 414.7,246.0 472.4,279.8 530.2,280.9 588.0,280.2 645.8,314.1 703.6,311.8 761.3,315.6 819.1,329.8 876.9,329.7 934.7,314.9 992.4,315.8 1050.2,337.7 1108.0,336.7 1108.0,338.3 1050.2,339.3 992.4,317.6 934.7,316.7 876.9,331.6 819.1,331.6 761.3,317.6 703.6,313.8 645.8,316.1 588.0,282.2 530.2,283.0 472.4,281.8 414.7,248.0 356.9,248.1 299.1,248.3 241.3,244.0 183.6,249.1 125.8,244.2 68.0,250.0" fill="#bcbddc" fill-opacity="0.9" stroke="#fff" stroke-width="0.4"><title>resource_aggregate — performMandatoryEarlyInlining</title></polygon>
<polygon points="68.0,245.7 125.8,239.7 183.6,244.6 241.3,239.4 299.1,244.0 356.9,243.6 414.7,243.8 472.4,277.6 530.2,278.7 588.0,277.9 645.8,311.9 703.6,309.5 761.3,313.4 819.1,327.8 876.9,327.7 934.7,312.8 992.4,313.7 1050.2,335.9 1108.0,335.0 1108.0,336.7 1050.2,337.7 992.4,315.8 934.7,314.9 876.9,329.7 819.1,329.8 761.3,315.6 703.6,311.8 645.8,314.1 588.0,280.2 530.2,280.9 472.4,279.8 414.7,246.0 356.9,246.0 299.1,246.2 241.3,242.0 183.6,247.1 125.8,242.1 68.0,247.9" fill="#dadaeb" fill-opacity="0.9" stroke="#fff" stroke-width="0.4"><title>resource_aggregate — performForceInlining</title></polygon>
<polygon points="68.0,197.1 125.8,189.0 183.6,195.5 241.3,189.5 299.1,191.3 356.9,193.5 414.7,192.4 472.4,235.3 530.2,236.4 588.0,235.8 645.8,282.4 703.6,279.7 761.3,284.7 819.1,304.1 876.9,304.5 934.7,288.5 992.4,290.5 1050.2,314.1 1108.0,313.0 1108.0,335.0 1050.2,335.9 992.4,313.7 934.7,312.8 876.9,327.7 819.1,327.8 761.3,313.4 703.6,309.5 645.8,311.9 588.0,277.9 530.2,278.7 472.4,277.6 414.7,243.8 356.9,243.6 299.1,244.0 241.3,239.4 183.6,244.6 125.8,239.7 68.0,245.7" fill="#4a1486" fill-opacity="0.9" stroke="#fff" stroke-width="0.4"><title>resource_aggregate — linkAndOptimizeIR (self)</title></polygon>
<polygon points="68.0,126.1 125.8,120.3 183.6,126.1 241.3,120.1 299.1,121.6 356.9,124.4 414.7,117.9 472.4,166.7 530.2,168.5 588.0,166.0 645.8,225.6 703.6,221.4 761.3,227.9 819.1,248.2 876.9,248.2 934.7,233.8 992.4,236.7 1050.2,260.5 1108.0,261.0 1108.0,313.0 1050.2,314.1 992.4,290.5 934.7,288.5 876.9,304.5 819.1,304.1 761.3,284.7 703.6,279.7 645.8,282.4 588.0,235.8 530.2,236.4 472.4,235.3 414.7,192.4 356.9,193.5 299.1,191.3 241.3,189.5 183.6,195.5 125.8,189.0 68.0,197.1" fill="#e6550d" fill-opacity="0.9" stroke="#fff" stroke-width="0.4"><title>resource_aggregate — generateOutput (self)</title></polygon>
<polygon points="68.0,112.5 125.8,108.6 183.6,115.9 241.3,111.1 299.1,110.1 356.9,113.9 414.7,108.9 472.4,153.7 530.2,158.2 588.0,156.1 645.8,215.4 703.6,210.7 761.3,218.4 819.1,238.5 876.9,239.0 934.7,221.6 992.4,227.2 1050.2,254.2 1108.0,252.8 1108.0,261.0 1050.2,260.5 992.4,236.7 934.7,233.8 876.9,248.2 819.1,248.2 761.3,227.9 703.6,221.4 645.8,225.6 588.0,166.0 530.2,168.5 472.4,166.7 414.7,117.9 356.9,124.4 299.1,121.6 241.3,120.1 183.6,126.1 125.8,120.3 68.0,126.1" fill="#969696" fill-opacity="0.9" stroke="#fff" stroke-width="0.4"><title>resource_aggregate — compileInner (self)</title></polygon>
<text x="12" y="578" fill="#666" font-weight="600">phase buckets</text>
<rect x="12" y="586" width="12" height="12" fill="#c7e9c0"/>
<text x="28" y="596" fill="#222">parseTranslationUnit</text>
<rect x="289" y="586" width="12" height="12" fill="#41ab5d"/>
<text x="305" y="596" fill="#222">SemanticChecking</text>
<rect x="566" y="586" width="12" height="12" fill="#006d2c"/>
<text x="582" y="596" fill="#222">generateIR</text>
<rect x="843" y="586" width="12" height="12" fill="#74c476"/>
<text x="859" y="596" fill="#222">frontEndExecute (self)</text>
<rect x="12" y="604" width="12" height="12" fill="#6baed6"/>
<text x="28" y="614" fill="#222">specializeModule</text>
<rect x="289" y="604" width="12" height="12" fill="#2171b5"/>
<text x="305" y="614" fill="#222">simplifyIR</text>
<rect x="566" y="604" width="12" height="12" fill="#08306b"/>
<text x="582" y="614" fill="#222">linkIR</text>
<rect x="843" y="604" width="12" height="12" fill="#9e9ac8"/>
<text x="859" y="614" fill="#222">unrollLoopsInModule</text>
<rect x="12" y="622" width="12" height="12" fill="#807dba"/>
<text x="28" y="632" fill="#222">legalizeResourceTypes</text>
<rect x="289" y="622" width="12" height="12" fill="#6a51a3"/>
<text x="305" y="632" fill="#222">legalizeExistentialTypeLayout</text>
<rect x="566" y="622" width="12" height="12" fill="#bcbddc"/>
<text x="582" y="632" fill="#222">performMandatoryEarlyInlining</text>
<rect x="843" y="622" width="12" height="12" fill="#dadaeb"/>
<text x="859" y="632" fill="#222">performForceInlining</text>
<rect x="12" y="640" width="12" height="12" fill="#4a1486"/>
<text x="28" y="650" fill="#222">linkAndOptimizeIR (self)</text>
<rect x="289" y="640" width="12" height="12" fill="#fd8d3c"/>
<text x="305" y="650" fill="#222">emitEntryPointsSourceFromIR</text>
<rect x="566" y="640" width="12" height="12" fill="#e6550d"/>
<text x="582" y="650" fill="#222">generateOutput (self)</text>
<rect x="843" y="640" width="12" height="12" fill="#969696"/>
<text x="859" y="650" fill="#222">compileInner (self)</text>
</svg>