<svg xmlns="http://www.w3.org/2000/svg" xmlns:xlink="http://www.w3.org/1999/xlink" width="1132" height="680" viewBox="0 0 1132 680" preserveAspectRatio="xMidYMid meet" font-family="sans-serif" font-size="13">
<rect width="1132" height="680" fill="white"/>
<text x="12" y="30" font-size="20" font-weight="bold">resource_aggregate — Across releases (median ms)</text>
<text x="68" y="60" font-size="15" font-weight="600" fill="#1a1a1a">resource_aggregate<tspan fill="#888" font-weight="400" text-decoration="none">  1.22×</tspan></text>
<line x1="68.0" y1="516.0" x2="1108.0" y2="516.0" stroke="#eee"/>
<text x="64.0" y="519.0" text-anchor="end" fill="#999">0.0</text>
<line x1="68.0" y1="296.0" x2="1108.0" y2="296.0" stroke="#eee"/>
<text x="64.0" y="299.0" text-anchor="end" fill="#999">84</text>
<line x1="68.0" y1="76.0" x2="1108.0" y2="76.0" stroke="#eee"/>
<text x="64.0" y="79.0" text-anchor="end" fill="#999">169</text>
<line x1="68.0" y1="76.0" x2="68.0" y2="516.0" stroke="#333"/>
<line x1="68.0" y1="516.0" x2="1108.0" y2="516.0" stroke="#333"/>
<line x1="68.0" y1="516.0" x2="68.0" y2="519.0" stroke="#999"/>
<text x="68.0" y="531.0" text-anchor="end" fill="#666" transform="rotate(-50 68.0 531.0)">25.12</text>
<line x1="113.2" y1="516.0" x2="113.2" y2="519.0" stroke="#999"/>
<text x="113.2" y="531.0" text-anchor="end" fill="#666" transform="rotate(-50 113.2 531.0)">25.13</text>
<line x1="158.4" y1="516.0" x2="158.4" y2="519.0" stroke="#999"/>
<text x="158.4" y="531.0" text-anchor="end" fill="#666" transform="rotate(-50 158.4 531.0)">25.14</text>
<line x1="203.7" y1="516.0" x2="203.7" y2="519.0" stroke="#999"/>
<text x="203.7" y="531.0" text-anchor="end" fill="#666" transform="rotate(-50 203.7 531.0)">25.15</text>
<line x1="248.9" y1="516.0" x2="248.9" y2="519.0" stroke="#999"/>
<text x="248.9" y="531.0" text-anchor="end" fill="#666" transform="rotate(-50 248.9 531.0)">25.16</text>
<line x1="294.1" y1="516.0" x2="294.1" y2="519.0" stroke="#999"/>
<text x="294.1" y="531.0" text-anchor="end" fill="#666" transform="rotate(-50 294.1 531.0)">25.17</text>
<line x1="339.3" y1="516.0" x2="339.3" y2="519.0" stroke="#999"/>
<text x="339.3" y="531.0" text-anchor="end" fill="#666" transform="rotate(-50 339.3 531.0)">25.18</text>
<line x1="384.5" y1="516.0" x2="384.5" y2="519.0" stroke="#999"/>
<text x="384.5" y="531.0" text-anchor="end" fill="#666" transform="rotate(-50 384.5 531.0)">25.19</text>
<line x1="429.7" y1="516.0" x2="429.7" y2="519.0" stroke="#999"/>
<text x="429.7" y="531.0" text-anchor="end" fill="#666" transform="rotate(-50 429.7 531.0)">25.20</text>
<line x1="475.0" y1="516.0" x2="475.0" y2="519.0" stroke="#999"/>
<text x="475.0" y="531.0" text-anchor="end" fill="#666" transform="rotate(-50 475.0 531.0)">25.21</text>
<line x1="520.2" y1="516.0" x2="520.2" y2="519.0" stroke="#999"/>
<text x="520.2" y="531.0" text-anchor="end" fill="#666" transform="rotate(-50 520.2 531.0)">25.22</text>
<line x1="565.4" y1="516.0" x2="565.4" y2="519.0" stroke="#999"/>
<text x="565.4" y="531.0" text-anchor="end" fill="#666" transform="rotate(-50 565.4 531.0)">25.23</text>
<line x1="610.6" y1="516.0" x2="610.6" y2="519.0" stroke="#999"/>
<text x="610.6" y="531.0" text-anchor="end" fill="#666" transform="rotate(-50 610.6 531.0)">25.24</text>
<line x1="655.8" y1="516.0" x2="655.8" y2="519.0" stroke="#999"/>
<text x="655.8" y="531.0" text-anchor="end" fill="#666" transform="rotate(-50 655.8 531.0)">26.1</text>
<line x1="701.0" y1="516.0" x2="701.0" y2="519.0" stroke="#999"/>
<text x="701.0" y="531.0" text-anchor="end" fill="#666" transform="rotate(-50 701.0 531.0)">26.2</text>
<line x1="746.3" y1="516.0" x2="746.3" y2="519.0" stroke="#999"/>
<text x="746.3" y="531.0" text-anchor="end" fill="#666" transform="rotate(-50 746.3 531.0)">26.3</text>
<line x1="791.5" y1="516.0" x2="791.5" y2="519.0" stroke="#999"/>
<text x="791.5" y="531.0" text-anchor="end" fill="#666" transform="rotate(-50 791.5 531.0)">26.4</text>
<line x1="836.7" y1="516.0" x2="836.7" y2="519.0" stroke="#999"/>
<text x="836.7" y="531.0" text-anchor="end" fill="#666" transform="rotate(-50 836.7 531.0)">26.5</text>
<line x1="881.9" y1="516.0" x2="881.9" y2="519.0" stroke="#999"/>
<text x="881.9" y="531.0" text-anchor="end" fill="#666" transform="rotate(-50 881.9 531.0)">26.7</text>
<line x1="927.1" y1="516.0" x2="927.1" y2="519.0" stroke="#999"/>
<text x="927.1" y="531.0" text-anchor="end" fill="#666" transform="rotate(-50 927.1 531.0)">26.8</text>
<line x1="972.3" y1="516.0" x2="972.3" y2="519.0" stroke="#999"/>
<text x="972.3" y="531.0" text-anchor="end" fill="#666" transform="rotate(-50 972.3 531.0)">26.9</text>
<line x1="1017.6" y1="516.0" x2="1017.6" y2="519.0" stroke="#999"/>
<text x="1017.6" y="531.0" text-anchor="end" fill="#666" transform="rotate(-50 1017.6 531.0)">26.10</text>
<line x1="1062.8" y1="516.0" x2="1062.8" y2="519.0" stroke="#999"/>
<text x="1062.8" y="531.0" text-anchor="end" fill="#666" transform="rotate(-50 1062.8 531.0)">26.11</text>
<line x1="1108.0" y1="516.0" x2="1108.0" y2="519.0" stroke="#999"/>
<text x="1108.0" y="531.0" text-anchor="end" fill="#666" transform="rotate(-50 1108.0 531.0)">26.12</text>
<polygon points="68.0,516.0 113.2,512.7 158.4,514.3 203.7,514.6 248.9,514.7 294.1,514.7 339.3,514.7 384.5,514.7 429.7,514.7 475.0,514.6 520.2,514.7 565.4,514.6 610.6,514.6 655.8,514.6 701.0,514.6 746.3,514.6 791.5,514.6 836.7,514.5 881.9,514.5 927.1,514.4 972.3,514.4 1017.6,514.4 1062.8,514.5 1108.0,514.4 1108.0,516.0 1062.8,516.0 1017.6,516.0 972.3,516.0 927.1,516.0 881.9,516.0 836.7,516.0 791.5,516.0 746.3,516.0 701.0,516.0 655.8,516.0 610.6,516.0 565.4,516.0 520.2,516.0 475.0,516.0 429.7,516.0 384.5,516.0 339.3,516.0 294.1,516.0 248.9,516.0 203.7,516.0 158.4,516.0 113.2,516.0 68.0,516.0" fill="#c7e9c0" fill-opacity="0.9" stroke="#fff" stroke-width="0.4"><title>resource_aggregate — parseTranslationUnit</title></polygon>
<polygon points="68.0,479.5 113.2,475.7 158.4,471.8 203.7,422.4 248.9,429.0 294.1,426.3 339.3,426.3 384.5,425.4 429.7,425.3 475.0,425.6 520.2,455.8 565.4,453.2 610.6,455.0 655.8,454.7 701.0,447.6 746.3,448.2 791.5,448.6 836.7,441.3 881.9,410.3 927.1,403.3 972.3,413.0 1017.6,422.6 1062.8,480.5 1108.0,478.5 1108.0,514.4 1062.8,514.5 1017.6,514.4 972.3,514.4 927.1,514.4 881.9,514.5 836.7,514.5 791.5,514.6 746.3,514.6 701.0,514.6 655.8,514.6 610.6,514.6 565.4,514.6 520.2,514.7 475.0,514.6 429.7,514.7 384.5,514.7 339.3,514.7 294.1,514.7 248.9,514.7 203.7,514.6 158.4,514.3 113.2,512.7 68.0,516.0" fill="#41ab5d" fill-opacity="0.9" stroke="#fff" stroke-width="0.4"><title>resource_aggregate — SemanticChecking</title></polygon>
<polygon points="68.0,466.4 113.2,459.7 158.4,455.6 203.7,405.8 248.9,412.9 294.1,409.8 339.3,410.1 384.5,409.2 429.7,408.9 475.0,409.4 520.2,440.1 565.4,438.0 610.6,440.4 655.8,439.5 701.0,432.0 746.3,432.7 791.5,433.1 836.7,424.9 881.9,357.6 927.1,348.7 972.3,357.7 1017.6,376.2 1062.8,464.0 1108.0,460.2 1108.0,478.5 1062.8,480.5 1017.6,422.6 972.3,413.0 927.1,403.3 881.9,410.3 836.7,441.3 791.5,448.6 746.3,448.2 701.0,447.6 655.8,454.7 610.6,455.0 565.4,453.2 520.2,455.8 475.0,425.6 429.7,425.3 384.5,425.4 339.3,426.3 294.1,426.3 248.9,429.0 203.7,422.4 158.4,471.8 113.2,475.7 68.0,479.5" fill="#006d2c" fill-opacity="0.9" stroke="#fff" stroke-width="0.4"><title>resource_aggregate — generateIR</title></polygon>
<polygon points="68.0,458.6 113.2,455.5 158.4,451.2 203.7,401.7 248.9,408.3 294.1,404.8 339.3,404.8 384.5,405.2 429.7,404.3 475.0,404.9 520.2,435.8 565.4,433.7 610.6,435.9 655.8,434.4 701.0,427.2 746.3,427.9 791.5,428.5 836.7,418.2 881.9,351.7 927.1,340.8 972.3,350.3 1017.6,372.8 1062.8,457.8 1108.0,455.5 1108.0,460.2 1062.8,464.0 1017.6,376.2 972.3,357.7 927.1,348.7 881.9,357.6 836.7,424.9 791.5,433.1 746.3,432.7 701.0,432.0 655.8,439.5 610.6,440.4 565.4,438.0 520.2,440.1 475.0,409.4 429.7,408.9 384.5,409.2 339.3,410.1 294.1,409.8 248.9,412.9 203.7,405.8 158.4,455.6 113.2,459.7 68.0,466.4" fill="#74c476" fill-opacity="0.9" stroke="#fff" stroke-width="0.4"><title>resource_aggregate — frontEndExecute (self)</title></polygon>
<polygon points="68.0,456.0 113.2,452.4 158.4,447.7 203.7,398.3 248.9,405.1 294.1,401.6 339.3,401.6 384.5,401.8 429.7,400.8 475.0,401.5 520.2,432.2 565.4,430.1 610.6,429.0 655.8,427.7 701.0,420.0 746.3,420.9 791.5,421.4 836.7,410.6 881.9,321.9 927.1,311.9 972.3,321.0 1017.6,346.1 1062.8,434.3 1108.0,431.8 1108.0,455.5 1062.8,457.8 1017.6,372.8 972.3,350.3 927.1,340.8 881.9,351.7 836.7,418.2 791.5,428.5 746.3,427.9 701.0,427.2 655.8,434.4 610.6,435.9 565.4,433.7 520.2,435.8 475.0,404.9 429.7,404.3 384.5,405.2 339.3,404.8 294.1,404.8 248.9,408.3 203.7,401.7 158.4,451.2 113.2,455.5 68.0,458.6" fill="#6baed6" fill-opacity="0.9" stroke="#fff" stroke-width="0.4"><title>resource_aggregate — specializeModule</title></polygon>
<polygon points="68.0,448.1 113.2,443.9 158.4,438.9 203.7,389.6 248.9,396.7 294.1,393.0 339.3,393.2 384.5,393.3 429.7,392.1 475.0,392.7 520.2,423.4 565.4,421.3 610.6,421.0 655.8,419.8 701.0,411.4 746.3,412.5 791.5,412.8 836.7,401.2 881.9,302.0 927.1,291.4 972.3,299.8 1017.6,327.0 1062.8,417.0 1108.0,416.4 1108.0,431.8 1062.8,434.3 1017.6,346.1 972.3,321.0 927.1,311.9 881.9,321.9 836.7,410.6 791.5,421.4 746.3,420.9 701.0,420.0 655.8,427.7 610.6,429.0 565.4,430.1 520.2,432.2 475.0,401.5 429.7,400.8 384.5,401.8 339.3,401.6 294.1,401.6 248.9,405.1 203.7,398.3 158.4,447.7 113.2,452.4 68.0,456.0" fill="#2171b5" fill-opacity="0.9" stroke="#fff" stroke-width="0.4"><title>resource_aggregate — simplifyIR</title></polygon>
<polygon points="68.0,445.5 113.2,439.5 158.4,433.3 203.7,384.4 248.9,393.0 294.1,389.2 339.3,389.3 384.5,389.5 429.7,388.3 475.0,388.7 520.2,420.0 565.4,417.6 610.6,417.4 655.8,416.2 701.0,407.5 746.3,408.4 791.5,409.0 836.7,395.8 881.9,259.8 927.1,243.8 972.3,256.0 1017.6,288.4 1062.8,412.3 1108.0,411.8 1108.0,416.4 1062.8,417.0 1017.6,327.0 972.3,299.8 927.1,291.4 881.9,302.0 836.7,401.2 791.5,412.8 746.3,412.5 701.0,411.4 655.8,419.8 610.6,421.0 565.4,421.3 520.2,423.4 475.0,392.7 429.7,392.1 384.5,393.3 339.3,393.2 294.1,393.0 248.9,396.7 203.7,389.6 158.4,438.9 113.2,443.9 68.0,448.1" fill="#08306b" fill-opacity="0.9" stroke="#fff" stroke-width="0.4"><title>resource_aggregate — linkIR</title></polygon>
<polygon points="68.0,445.5 113.2,439.5 158.4,433.2 203.7,384.4 248.9,393.0 294.1,389.2 339.3,389.3 384.5,389.5 429.7,388.3 475.0,388.7 520.2,420.0 565.4,417.6 610.6,417.4 655.8,416.2 701.0,407.5 746.3,408.4 791.5,408.9 836.7,395.8 881.9,259.8 927.1,243.8 972.3,256.0 1017.6,288.4 1062.8,412.2 1108.0,411.8 1108.0,411.8 1062.8,412.3 1017.6,288.4 972.3,256.0 927.1,243.8 881.9,259.8 836.7,395.8 791.5,409.0 746.3,408.4 701.0,407.5 655.8,416.2 610.6,417.4 565.4,417.6 520.2,420.0 475.0,388.7 429.7,388.3 384.5,389.5 339.3,389.3 294.1,389.2 248.9,393.0 203.7,384.4 158.4,433.3 113.2,439.5 68.0,445.5" fill="#9e9ac8" fill-opacity="0.9" stroke="#fff" stroke-width="0.4"><title>resource_aggregate — unrollLoopsInModule</title></polygon>
<polygon points="68.0,435.1 113.2,426.7 158.4,419.9 203.7,371.2 248.9,380.0 294.1,376.1 339.3,379.4 384.5,379.5 429.7,378.2 475.0,378.4 520.2,410.0 565.4,407.5 610.6,407.7 655.8,406.2 701.0,397.3 746.3,398.4 791.5,398.8 836.7,384.2 881.9,249.1 927.1,231.1 972.3,243.9 1017.6,277.5 1062.8,403.5 1108.0,402.7 1108.0,411.8 1062.8,412.2 1017.6,288.4 972.3,256.0 927.1,243.8 881.9,259.8 836.7,395.8 791.5,408.9 746.3,408.4 701.0,407.5 655.8,416.2 610.6,417.4 565.4,417.6 520.2,420.0 475.0,388.7 429.7,388.3 384.5,389.5 339.3,389.3 294.1,389.2 248.9,393.0 203.7,384.4 158.4,433.2 113.2,439.5 68.0,445.5" fill="#807dba" fill-opacity="0.9" stroke="#fff" stroke-width="0.4"><title>resource_aggregate — legalizeResourceTypes</title></polygon>
<polygon points="68.0,429.9 113.2,418.6 158.4,411.1 203.7,362.7 248.9,371.8 294.1,368.1 339.3,374.1 384.5,374.1 429.7,372.8 475.0,372.8 520.2,404.7 565.4,402.2 610.6,402.4 655.8,400.7 701.0,391.6 746.3,392.9 791.5,393.1 836.7,378.3 881.9,242.9 927.1,224.6 972.3,237.5 1017.6,271.2 1062.8,398.0 1108.0,397.3 1108.0,402.7 1062.8,403.5 1017.6,277.5 972.3,243.9 927.1,231.1 881.9,249.1 836.7,384.2 791.5,398.8 746.3,398.4 701.0,397.3 655.8,406.2 610.6,407.7 565.4,407.5 520.2,410.0 475.0,378.4 429.7,378.2 384.5,379.5 339.3,379.4 294.1,376.1 248.9,380.0 203.7,371.2 158.4,419.9 113.2,426.7 68.0,435.1" fill="#6a51a3" fill-opacity="0.9" stroke="#fff" stroke-width="0.4"><title>resource_aggregate — legalizeExistentialTypeLayout</title></polygon>
<polygon points="68.0,429.9 113.2,417.8 158.4,410.3 203.7,361.7 248.9,371.0 294.1,367.2 339.3,373.2 384.5,373.3 429.7,372.0 475.0,371.9 520.2,403.8 565.4,401.3 610.6,401.5 655.8,399.9 701.0,390.8 746.3,392.0 791.5,392.3 836.7,377.4 881.9,241.9 927.1,223.6 972.3,236.5 1017.6,270.2 1062.8,397.1 1108.0,396.4 1108.0,397.3 1062.8,398.0 1017.6,271.2 972.3,237.5 927.1,224.6 881.9,242.9 836.7,378.3 791.5,393.1 746.3,392.9 701.0,391.6 655.8,400.7 610.6,402.4 565.4,402.2 520.2,404.7 475.0,372.8 429.7,372.8 384.5,374.1 339.3,374.1 294.1,368.1 248.9,371.8 203.7,362.7 158.4,411.1 113.2,418.6 68.0,429.9" fill="#bcbddc" fill-opacity="0.9" stroke="#fff" stroke-width="0.4"><title>resource_aggregate — performMandatoryEarlyInlining</title></polygon>
<polygon points="68.0,429.9 113.2,416.6 158.4,409.3 203.7,360.6 248.9,369.9 294.1,366.0 339.3,372.0 384.5,372.1 429.7,370.8 475.0,370.7 520.2,402.6 565.4,400.1 610.6,400.3 655.8,398.6 701.0,389.5 746.3,390.8 791.5,391.1 836.7,375.9 881.9,240.6 927.1,222.2 972.3,235.1 1017.6,268.8 1062.8,396.0 1108.0,395.2 1108.0,396.4 1062.8,397.1 1017.6,270.2 972.3,236.5 927.1,223.6 881.9,241.9 836.7,377.4 791.5,392.3 746.3,392.0 701.0,390.8 655.8,399.9 610.6,401.5 565.4,401.3 520.2,403.8 475.0,371.9 429.7,372.0 384.5,373.3 339.3,373.2 294.1,367.2 248.9,371.0 203.7,361.7 158.4,410.3 113.2,417.8 68.0,429.9" fill="#dadaeb" fill-opacity="0.9" stroke="#fff" stroke-width="0.4"><title>resource_aggregate — performForceInlining</title></polygon>
<polygon points="68.0,414.2 113.2,408.3 158.4,400.5 203.7,351.9 248.9,361.3 294.1,357.1 339.3,363.7 384.5,363.1 429.7,362.2 475.0,362.0 520.2,393.7 565.4,391.3 610.6,390.8 655.8,389.3 701.0,379.6 746.3,381.2 791.5,380.3 836.7,363.4 881.9,204.5 927.1,170.2 972.3,201.2 1017.6,237.6 1062.8,374.2 1108.0,375.4 1108.0,395.2 1062.8,396.0 1017.6,268.8 972.3,235.1 927.1,222.2 881.9,240.6 836.7,375.9 791.5,391.1 746.3,390.8 701.0,389.5 655.8,398.6 610.6,400.3 565.4,400.1 520.2,402.6 475.0,370.7 429.7,370.8 384.5,372.1 339.3,372.0 294.1,366.0 248.9,369.9 203.7,360.6 158.4,409.3 113.2,416.6 68.0,429.9" fill="#4a1486" fill-opacity="0.9" stroke="#fff" stroke-width="0.4"><title>resource_aggregate — linkAndOptimizeIR (self)</title></polygon>
<polygon points="68.0,375.0 113.2,369.2 158.4,358.7 203.7,311.9 248.9,321.8 294.1,320.7 339.3,331.3 384.5,331.0 429.7,330.9 475.0,330.0 520.2,362.2 565.4,359.7 610.6,360.4 655.8,357.4 701.0,344.6 746.3,345.0 791.5,344.8 836.7,320.8 881.9,163.4 927.1,108.6 972.3,157.0 1017.6,198.9 1062.8,343.3 1108.0,341.7 1108.0,375.4 1062.8,374.2 1017.6,237.6 972.3,201.2 927.1,170.2 881.9,204.5 836.7,363.4 791.5,380.3 746.3,381.2 701.0,379.6 655.8,389.3 610.6,390.8 565.4,391.3 520.2,393.7 475.0,362.0 429.7,362.2 384.5,363.1 339.3,363.7 294.1,357.1 248.9,361.3 203.7,351.9 158.4,400.5 113.2,408.3 68.0,414.2" fill="#e6550d" fill-opacity="0.9" stroke="#fff" stroke-width="0.4"><title>resource_aggregate — generateOutput (self)</title></polygon>
<polygon points="68.0,369.8 113.2,365.0 158.4,352.9 203.7,306.3 248.9,317.6 294.1,317.0 339.3,327.5 384.5,326.6 429.7,325.4 475.0,325.7 520.2,356.8 565.4,355.1 610.6,356.1 655.8,353.8 701.0,339.9 746.3,340.6 791.5,340.9 836.7,310.9 881.9,163.1 927.1,108.6 972.3,156.1 1017.6,190.7 1062.8,340.2 1108.0,337.0 1108.0,341.7 1062.8,343.3 1017.6,198.9 972.3,157.0 927.1,108.6 881.9,163.4 836.7,320.8 791.5,344.8 746.3,345.0 701.0,344.6 655.8,357.4 610.6,360.4 565.4,359.7 520.2,362.2 475.0,330.0 429.7,330.9 384.5,331.0 339.3,331.3 294.1,320.7 248.9,321.8 203.7,311.9 158.4,358.7 113.2,369.2 68.0,375.0" fill="#969696" fill-opacity="0.9" stroke="#fff" stroke-width="0.4"><title>resource_aggregate — compileInner (self)</title></polygon>
<text x="12" y="578" fill="#666" font-weight="600">phase buckets</text>
<rect x="12" y="586" width="12" height="12" fill="#c7e9c0"/>
<text x="28" y="596" fill="#222">parseTranslationUnit</text>
<rect x="289" y="586" width="12" height="12" fill="#41ab5d"/>
<text x="305" y="596" fill="#222">SemanticChecking</text>
<rect x="566" y="586" width="12" height="12" fill="#006d2c"/>
<text x="582" y="596" fill="#222">generateIR</text>
<rect x="843" y="586" width="12" height="12" fill="#74c476"/>
<text x="859" y="596" fill="#222">frontEndExecute (self)</text>
<rect x="12" y="604" width="12" height="12" fill="#6baed6"/>
<text x="28" y="614" fill="#222">specializeModule</text>
<rect x="289" y="604" width="12" height="12" fill="#2171b5"/>
<text x="305" y="614" fill="#222">simplifyIR</text>
<rect x="566" y="604" width="12" height="12" fill="#08306b"/>
<text x="582" y="614" fill="#222">linkIR</text>
<rect x="843" y="604" width="12" height="12" fill="#9e9ac8"/>
<text x="859" y="614" fill="#222">unrollLoopsInModule</text>
<rect x="12" y="622" width="12" height="12" fill="#807dba"/>
<text x="28" y="632" fill="#222">legalizeResourceTypes</text>
<rect x="289" y="622" width="12" height="12" fill="#6a51a3"/>
<text x="305" y="632" fill="#222">legalizeExistentialTypeLayout</text>
<rect x="566" y="622" width="12" height="12" fill="#bcbddc"/>
<text x="582" y="632" fill="#222">performMandatoryEarlyInlining</text>
<rect x="843" y="622" width="12" height="12" fill="#dadaeb"/>
<text x="859" y="632" fill="#222">performForceInlining</text>
<rect x="12" y="640" width="12" height="12" fill="#4a1486"/>
<text x="28" y="650" fill="#222">linkAndOptimizeIR (self)</text>
<rect x="289" y="640" width="12" height="12" fill="#fd8d3c"/>
<text x="305" y="650" fill="#222">emitEntryPointsSourceFromIR</text>
<rect x="566" y="640" width="12" height="12" fill="#e6550d"/>
<text x="582" y="650" fill="#222">generateOutput (self)</text>
<rect x="843" y="640" width="12" height="12" fill="#969696"/>
<text x="859" y="650" fill="#222">compileInner (self)</text>
</svg>