<svg xmlns="http://www.w3.org/2000/svg" xmlns:xlink="http://www.w3.org/1999/xlink" width="1132" height="680" viewBox="0 0 1132 680" preserveAspectRatio="xMidYMid meet" font-family="sans-serif" font-size="13">
<rect width="1132" height="680" fill="white"/>
<text x="12" y="30" font-size="20" font-weight="bold">resource_aggregate — Daily tip-of-tree (last 30 days) (median ms)</text>
<text x="68" y="60" font-size="15" font-weight="600" fill="#1a1a1a">resource_aggregate<tspan fill="#888" font-weight="400" text-decoration="none">  0.65×</tspan></text>
<line x1="68.0" y1="516.0" x2="1108.0" y2="516.0" stroke="#eee"/>
<text x="64.0" y="519.0" text-anchor="end" fill="#999">0.0</text>
<line x1="68.0" y1="296.0" x2="1108.0" y2="296.0" stroke="#eee"/>
<text x="64.0" y="299.0" text-anchor="end" fill="#999">39</text>
<line x1="68.0" y1="76.0" x2="1108.0" y2="76.0" stroke="#eee"/>
<text x="64.0" y="79.0" text-anchor="end" fill="#999">77</text>
<line x1="68.0" y1="76.0" x2="68.0" y2="516.0" stroke="#333"/>
<line x1="68.0" y1="516.0" x2="1108.0" y2="516.0" stroke="#333"/>
<line x1="68.0" y1="516.0" x2="68.0" y2="519.0" stroke="#999"/>
<text x="68.0" y="531.0" text-anchor="end" fill="#e8731a" transform="rotate(-50 68.0 531.0)">06-25</text>
<line x1="129.2" y1="516.0" x2="129.2" y2="519.0" stroke="#999"/>
<text x="129.2" y="531.0" text-anchor="end" fill="#e8731a" transform="rotate(-50 129.2 531.0)">06-26</text>
<line x1="190.4" y1="516.0" x2="190.4" y2="519.0" stroke="#999"/>
<text x="190.4" y="531.0" text-anchor="end" fill="#e8731a" transform="rotate(-50 190.4 531.0)">06-28</text>
<line x1="251.5" y1="516.0" x2="251.5" y2="519.0" stroke="#999"/>
<text x="251.5" y="531.0" text-anchor="end" fill="#e8731a" transform="rotate(-50 251.5 531.0)">07-01</text>
<line x1="312.7" y1="516.0" x2="312.7" y2="519.0" stroke="#999"/>
<text x="312.7" y="531.0" text-anchor="end" fill="#e8731a" transform="rotate(-50 312.7 531.0)">07-02</text>
<line x1="373.9" y1="516.0" x2="373.9" y2="519.0" stroke="#999"/>
<text x="373.9" y="531.0" text-anchor="end" fill="#e8731a" transform="rotate(-50 373.9 531.0)">07-03</text>
<line x1="435.1" y1="516.0" x2="435.1" y2="519.0" stroke="#999"/>
<text x="435.1" y="531.0" text-anchor="end" fill="#e8731a" transform="rotate(-50 435.1 531.0)">07-06</text>
<line x1="496.2" y1="516.0" x2="496.2" y2="519.0" stroke="#999"/>
<text x="496.2" y="531.0" text-anchor="end" fill="#e8731a" transform="rotate(-50 496.2 531.0)">07-07</text>
<line x1="557.4" y1="516.0" x2="557.4" y2="519.0" stroke="#999"/>
<text x="557.4" y="531.0" text-anchor="end" fill="#e8731a" transform="rotate(-50 557.4 531.0)">07-08</text>
<line x1="618.6" y1="516.0" x2="618.6" y2="519.0" stroke="#999"/>
<text x="618.6" y="531.0" text-anchor="end" fill="#e8731a" transform="rotate(-50 618.6 531.0)">07-09</text>
<line x1="679.8" y1="516.0" x2="679.8" y2="519.0" stroke="#999"/>
<text x="679.8" y="531.0" text-anchor="end" fill="#e8731a" transform="rotate(-50 679.8 531.0)">07-10</text>
<line x1="740.9" y1="516.0" x2="740.9" y2="519.0" stroke="#999"/>
<text x="740.9" y="531.0" text-anchor="end" fill="#e8731a" transform="rotate(-50 740.9 531.0)">07-11</text>
<line x1="802.1" y1="516.0" x2="802.1" y2="519.0" stroke="#999"/>
<text x="802.1" y="531.0" text-anchor="end" fill="#e8731a" transform="rotate(-50 802.1 531.0)">07-14</text>
<line x1="863.3" y1="516.0" x2="863.3" y2="519.0" stroke="#999"/>
<text x="863.3" y="531.0" text-anchor="end" fill="#e8731a" transform="rotate(-50 863.3 531.0)">07-15</text>
<line x1="924.5" y1="516.0" x2="924.5" y2="519.0" stroke="#999"/>
<text x="924.5" y="531.0" text-anchor="end" fill="#e8731a" transform="rotate(-50 924.5 531.0)">07-15</text>
<line x1="985.6" y1="516.0" x2="985.6" y2="519.0" stroke="#999"/>
<text x="985.6" y="531.0" text-anchor="end" fill="#e8731a" transform="rotate(-50 985.6 531.0)">07-16</text>
<line x1="1046.8" y1="516.0" x2="1046.8" y2="519.0" stroke="#999"/>
<text x="1046.8" y="531.0" text-anchor="end" fill="#e8731a" transform="rotate(-50 1046.8 531.0)">07-17</text>
<line x1="1108.0" y1="516.0" x2="1108.0" y2="519.0" stroke="#999"/>
<text x="1108.0" y="531.0" text-anchor="end" fill="#e8731a" transform="rotate(-50 1108.0 531.0)">07-18</text>
<polygon points="68.0,512.4 129.2,512.4 190.4,512.4 251.5,512.4 312.7,512.4 373.9,512.4 435.1,512.2 496.2,512.7 557.4,512.8 618.6,512.8 679.8,512.8 740.9,512.6 802.1,512.8 863.3,513.1 924.5,513.0 985.6,512.8 1046.8,513.0 1108.0,513.3 1108.0,516.0 1046.8,516.0 985.6,516.0 924.5,516.0 863.3,516.0 802.1,516.0 740.9,516.0 679.8,516.0 618.6,516.0 557.4,516.0 496.2,516.0 435.1,516.0 373.9,516.0 312.7,516.0 251.5,516.0 190.4,516.0 129.2,516.0 68.0,516.0" fill="#c7e9c0" fill-opacity="0.9" stroke="#fff" stroke-width="0.4"><title>resource_aggregate — parseTranslationUnit</title></polygon>
<polygon points="68.0,429.2 129.2,429.8 190.4,430.3 251.5,428.3 312.7,430.5 373.9,431.0 435.1,430.3 496.2,434.6 557.4,437.7 618.6,436.0 679.8,436.6 740.9,435.5 802.1,435.7 863.3,440.6 924.5,441.5 985.6,425.7 1046.8,426.0 1108.0,436.2 1108.0,513.3 1046.8,513.0 985.6,512.8 924.5,513.0 863.3,513.1 802.1,512.8 740.9,512.6 679.8,512.8 618.6,512.8 557.4,512.8 496.2,512.7 435.1,512.2 373.9,512.4 312.7,512.4 251.5,512.4 190.4,512.4 129.2,512.4 68.0,512.4" fill="#41ab5d" fill-opacity="0.9" stroke="#fff" stroke-width="0.4"><title>resource_aggregate — SemanticChecking</title></polygon>
<polygon points="68.0,391.4 129.2,390.9 190.4,392.8 251.5,390.0 312.7,391.4 373.9,392.3 435.1,391.2 496.2,395.8 557.4,398.3 618.6,396.7 679.8,400.1 740.9,398.5 802.1,398.9 863.3,406.1 924.5,406.8 985.6,392.4 1046.8,393.2 1108.0,408.5 1108.0,436.2 1046.8,426.0 985.6,425.7 924.5,441.5 863.3,440.6 802.1,435.7 740.9,435.5 679.8,436.6 618.6,436.0 557.4,437.7 496.2,434.6 435.1,430.3 373.9,431.0 312.7,430.5 251.5,428.3 190.4,430.3 129.2,429.8 68.0,429.2" fill="#006d2c" fill-opacity="0.9" stroke="#fff" stroke-width="0.4"><title>resource_aggregate — generateIR</title></polygon>
<polygon points="68.0,381.3 129.2,380.0 190.4,381.8 251.5,378.1 312.7,380.6 373.9,381.4 435.1,380.0 496.2,385.4 557.4,385.9 618.6,385.2 679.8,388.5 740.9,386.6 802.1,388.4 863.3,397.3 924.5,397.3 985.6,382.5 1046.8,383.5 1108.0,398.1 1108.0,408.5 1046.8,393.2 985.6,392.4 924.5,406.8 863.3,406.1 802.1,398.9 740.9,398.5 679.8,400.1 618.6,396.7 557.4,398.3 496.2,395.8 435.1,391.2 373.9,392.3 312.7,391.4 251.5,390.0 190.4,392.8 129.2,390.9 68.0,391.4" fill="#74c476" fill-opacity="0.9" stroke="#fff" stroke-width="0.4"><title>resource_aggregate — frontEndExecute (self)</title></polygon>
<polygon points="68.0,326.0 129.2,322.3 190.4,326.2 251.5,322.1 312.7,324.7 373.9,325.2 435.1,324.8 496.2,344.8 557.4,344.9 618.6,345.1 679.8,353.0 740.9,350.6 802.1,353.4 863.3,367.9 924.5,367.7 985.6,352.9 1046.8,353.7 1108.0,371.4 1108.0,398.1 1046.8,383.5 985.6,382.5 924.5,397.3 863.3,397.3 802.1,388.4 740.9,386.6 679.8,388.5 618.6,385.2 557.4,385.9 496.2,385.4 435.1,380.0 373.9,381.4 312.7,380.6 251.5,378.1 190.4,381.8 129.2,380.0 68.0,381.3" fill="#6baed6" fill-opacity="0.9" stroke="#fff" stroke-width="0.4"><title>resource_aggregate — specializeModule</title></polygon>
<polygon points="68.0,290.9 129.2,286.6 190.4,291.1 251.5,285.9 312.7,289.2 373.9,289.8 435.1,289.2 496.2,319.6 557.4,320.0 618.6,320.0 679.8,334.7 740.9,332.4 802.1,335.5 863.3,349.8 924.5,349.5 985.6,334.8 1046.8,335.7 1108.0,354.8 1108.0,371.4 1046.8,353.7 985.6,352.9 924.5,367.7 863.3,367.9 802.1,353.4 740.9,350.6 679.8,353.0 618.6,345.1 557.4,344.9 496.2,344.8 435.1,324.8 373.9,325.2 312.7,324.7 251.5,322.1 190.4,326.2 129.2,322.3 68.0,326.0" fill="#2171b5" fill-opacity="0.9" stroke="#fff" stroke-width="0.4"><title>resource_aggregate — simplifyIR</title></polygon>
<polygon points="68.0,281.5 129.2,277.1 190.4,281.6 251.5,276.3 312.7,279.8 373.9,280.2 435.1,279.8 496.2,313.9 557.4,314.1 618.6,313.9 679.8,328.7 740.9,326.5 802.1,329.7 863.3,344.6 924.5,344.5 985.6,329.8 1046.8,330.5 1108.0,350.6 1108.0,354.8 1046.8,335.7 985.6,334.8 924.5,349.5 863.3,349.8 802.1,335.5 740.9,332.4 679.8,334.7 618.6,320.0 557.4,320.0 496.2,319.6 435.1,289.2 373.9,289.8 312.7,289.2 251.5,285.9 190.4,291.1 129.2,286.6 68.0,290.9" fill="#08306b" fill-opacity="0.9" stroke="#fff" stroke-width="0.4"><title>resource_aggregate — linkIR</title></polygon>
<polygon points="68.0,281.4 129.2,277.0 190.4,281.5 251.5,276.2 312.7,279.7 373.9,280.0 435.1,279.7 496.2,313.8 557.4,314.0 618.6,313.9 679.8,328.7 740.9,326.4 802.1,329.7 863.3,344.5 924.5,344.4 985.6,329.7 1046.8,330.5 1108.0,350.5 1108.0,350.6 1046.8,330.5 985.6,329.8 924.5,344.5 863.3,344.6 802.1,329.7 740.9,326.5 679.8,328.7 618.6,313.9 557.4,314.1 496.2,313.9 435.1,279.8 373.9,280.2 312.7,279.8 251.5,276.3 190.4,281.6 129.2,277.1 68.0,281.5" fill="#9e9ac8" fill-opacity="0.9" stroke="#fff" stroke-width="0.4"><title>resource_aggregate — unrollLoopsInModule</title></polygon>
<polygon points="68.0,261.9 129.2,256.4 190.4,261.4 251.5,256.1 312.7,260.2 373.9,259.9 435.1,259.8 496.2,294.1 557.4,295.0 618.6,294.2 679.8,320.3 740.9,317.9 802.1,321.4 863.3,336.1 924.5,336.0 985.6,321.4 1046.8,322.1 1108.0,343.2 1108.0,350.5 1046.8,330.5 985.6,329.7 924.5,344.4 863.3,344.5 802.1,329.7 740.9,326.4 679.8,328.7 618.6,313.9 557.4,314.0 496.2,313.8 435.1,279.7 373.9,280.0 312.7,279.7 251.5,276.2 190.4,281.5 129.2,277.0 68.0,281.4" fill="#807dba" fill-opacity="0.9" stroke="#fff" stroke-width="0.4"><title>resource_aggregate — legalizeResourceTypes</title></polygon>
<polygon points="68.0,250.0 129.2,244.2 190.4,249.1 251.5,244.0 312.7,248.3 373.9,248.1 435.1,248.0 496.2,281.8 557.4,283.0 618.6,282.2 679.8,316.1 740.9,313.8 802.1,317.6 863.3,331.6 924.5,331.6 985.6,316.7 1046.8,317.6 1108.0,339.3 1108.0,343.2 1046.8,322.1 985.6,321.4 924.5,336.0 863.3,336.1 802.1,321.4 740.9,317.9 679.8,320.3 618.6,294.2 557.4,295.0 496.2,294.1 435.1,259.8 373.9,259.9 312.7,260.2 251.5,256.1 190.4,261.4 129.2,256.4 68.0,261.9" fill="#6a51a3" fill-opacity="0.9" stroke="#fff" stroke-width="0.4"><title>resource_aggregate — legalizeExistentialTypeLayout</title></polygon>
<polygon points="68.0,247.9 129.2,242.1 190.4,247.1 251.5,242.0 312.7,246.2 373.9,246.0 435.1,246.0 496.2,279.8 557.4,280.9 618.6,280.2 679.8,314.1 740.9,311.8 802.1,315.6 863.3,329.8 924.5,329.7 985.6,314.9 1046.8,315.8 1108.0,337.7 1108.0,339.3 1046.8,317.6 985.6,316.7 924.5,331.6 863.3,331.6 802.1,317.6 740.9,313.8 679.8,316.1 618.6,282.2 557.4,283.0 496.2,281.8 435.1,248.0 373.9,248.1 312.7,248.3 251.5,244.0 190.4,249.1 129.2,244.2 68.0,250.0" fill="#bcbddc" fill-opacity="0.9" stroke="#fff" stroke-width="0.4"><title>resource_aggregate — performMandatoryEarlyInlining</title></polygon>
<polygon points="68.0,245.7 129.2,239.7 190.4,244.6 251.5,239.4 312.7,244.0 373.9,243.6 435.1,243.8 496.2,277.6 557.4,278.7 618.6,277.9 679.8,311.9 740.9,309.5 802.1,313.4 863.3,327.8 924.5,327.7 985.6,312.8 1046.8,313.7 1108.0,335.9 1108.0,337.7 1046.8,315.8 985.6,314.9 924.5,329.7 863.3,329.8 802.1,315.6 740.9,311.8 679.8,314.1 618.6,280.2 557.4,280.9 496.2,279.8 435.1,246.0 373.9,246.0 312.7,246.2 251.5,242.0 190.4,247.1 129.2,242.1 68.0,247.9" fill="#dadaeb" fill-opacity="0.9" stroke="#fff" stroke-width="0.4"><title>resource_aggregate — performForceInlining</title></polygon>
<polygon points="68.0,197.1 129.2,189.0 190.4,195.5 251.5,189.5 312.7,191.3 373.9,193.5 435.1,192.4 496.2,235.3 557.4,236.4 618.6,235.8 679.8,282.4 740.9,279.7 802.1,284.7 863.3,304.1 924.5,304.5 985.6,288.5 1046.8,290.5 1108.0,314.1 1108.0,335.9 1046.8,313.7 985.6,312.8 924.5,327.7 863.3,327.8 802.1,313.4 740.9,309.5 679.8,311.9 618.6,277.9 557.4,278.7 496.2,277.6 435.1,243.8 373.9,243.6 312.7,244.0 251.5,239.4 190.4,244.6 129.2,239.7 68.0,245.7" fill="#4a1486" fill-opacity="0.9" stroke="#fff" stroke-width="0.4"><title>resource_aggregate — linkAndOptimizeIR (self)</title></polygon>
<polygon points="68.0,126.1 129.2,120.3 190.4,126.1 251.5,120.1 312.7,121.6 373.9,124.4 435.1,117.9 496.2,166.7 557.4,168.5 618.6,166.0 679.8,225.6 740.9,221.4 802.1,227.9 863.3,248.2 924.5,248.2 985.6,233.8 1046.8,236.7 1108.0,260.5 1108.0,314.1 1046.8,290.5 985.6,288.5 924.5,304.5 863.3,304.1 802.1,284.7 740.9,279.7 679.8,282.4 618.6,235.8 557.4,236.4 496.2,235.3 435.1,192.4 373.9,193.5 312.7,191.3 251.5,189.5 190.4,195.5 129.2,189.0 68.0,197.1" fill="#e6550d" fill-opacity="0.9" stroke="#fff" stroke-width="0.4"><title>resource_aggregate — generateOutput (self)</title></polygon>
<polygon points="68.0,112.5 129.2,108.6 190.4,115.9 251.5,111.1 312.7,110.1 373.9,113.9 435.1,108.9 496.2,153.7 557.4,158.2 618.6,156.1 679.8,215.4 740.9,210.7 802.1,218.4 863.3,238.5 924.5,239.0 985.6,221.6 1046.8,227.2 1108.0,254.2 1108.0,260.5 1046.8,236.7 985.6,233.8 924.5,248.2 863.3,248.2 802.1,227.9 740.9,221.4 679.8,225.6 618.6,166.0 557.4,168.5 496.2,166.7 435.1,117.9 373.9,124.4 312.7,121.6 251.5,120.1 190.4,126.1 129.2,120.3 68.0,126.1" fill="#969696" fill-opacity="0.9" stroke="#fff" stroke-width="0.4"><title>resource_aggregate — compileInner (self)</title></polygon>
<text x="12" y="578" fill="#666" font-weight="600">phase buckets</text>
<rect x="12" y="586" width="12" height="12" fill="#c7e9c0"/>
<text x="28" y="596" fill="#222">parseTranslationUnit</text>
<rect x="289" y="586" width="12" height="12" fill="#41ab5d"/>
<text x="305" y="596" fill="#222">SemanticChecking</text>
<rect x="566" y="586" width="12" height="12" fill="#006d2c"/>
<text x="582" y="596" fill="#222">generateIR</text>
<rect x="843" y="586" width="12" height="12" fill="#74c476"/>
<text x="859" y="596" fill="#222">frontEndExecute (self)</text>
<rect x="12" y="604" width="12" height="12" fill="#6baed6"/>
<text x="28" y="614" fill="#222">specializeModule</text>
<rect x="289" y="604" width="12" height="12" fill="#2171b5"/>
<text x="305" y="614" fill="#222">simplifyIR</text>
<rect x="566" y="604" width="12" height="12" fill="#08306b"/>
<text x="582" y="614" fill="#222">linkIR</text>
<rect x="843" y="604" width="12" height="12" fill="#9e9ac8"/>
<text x="859" y="614" fill="#222">unrollLoopsInModule</text>
<rect x="12" y="622" width="12" height="12" fill="#807dba"/>
<text x="28" y="632" fill="#222">legalizeResourceTypes</text>
<rect x="289" y="622" width="12" height="12" fill="#6a51a3"/>
<text x="305" y="632" fill="#222">legalizeExistentialTypeLayout</text>
<rect x="566" y="622" width="12" height="12" fill="#bcbddc"/>
<text x="582" y="632" fill="#222">performMandatoryEarlyInlining</text>
<rect x="843" y="622" width="12" height="12" fill="#dadaeb"/>
<text x="859" y="632" fill="#222">performForceInlining</text>
<rect x="12" y="640" width="12" height="12" fill="#4a1486"/>
<text x="28" y="650" fill="#222">linkAndOptimizeIR (self)</text>
<rect x="289" y="640" width="12" height="12" fill="#fd8d3c"/>
<text x="305" y="650" fill="#222">emitEntryPointsSourceFromIR</text>
<rect x="566" y="640" width="12" height="12" fill="#e6550d"/>
<text x="582" y="650" fill="#222">generateOutput (self)</text>
<rect x="843" y="640" width="12" height="12" fill="#969696"/>
<text x="859" y="650" fill="#222">compileInner (self)</text>
</svg>