<svg xmlns="http://www.w3.org/2000/svg" xmlns:xlink="http://www.w3.org/1999/xlink" width="1132" height="680" viewBox="0 0 1132 680" preserveAspectRatio="xMidYMid meet" font-family="sans-serif" font-size="13">
<rect width="1132" height="680" fill="white"/>
<text x="12" y="30" font-size="20" font-weight="bold">resource_aggregate — Daily tip-of-tree (last 30 days) (median ms)</text>
<text x="68" y="60" font-size="15" font-weight="600" fill="#1a1a1a">resource_aggregate<tspan fill="#888" font-weight="400" text-decoration="none">  0.64×</tspan></text>
<line x1="68.0" y1="516.0" x2="1108.0" y2="516.0" stroke="#eee"/>
<text x="64.0" y="519.0" text-anchor="end" fill="#999">0.0</text>
<line x1="68.0" y1="296.0" x2="1108.0" y2="296.0" stroke="#eee"/>
<text x="64.0" y="299.0" text-anchor="end" fill="#999">39</text>
<line x1="68.0" y1="76.0" x2="1108.0" y2="76.0" stroke="#eee"/>
<text x="64.0" y="79.0" text-anchor="end" fill="#999">77</text>
<line x1="68.0" y1="76.0" x2="68.0" y2="516.0" stroke="#333"/>
<line x1="68.0" y1="516.0" x2="1108.0" y2="516.0" stroke="#333"/>
<line x1="68.0" y1="516.0" x2="68.0" y2="519.0" stroke="#999"/>
<text x="68.0" y="531.0" text-anchor="end" fill="#e8731a" transform="rotate(-50 68.0 531.0)">06-25</text>
<line x1="113.2" y1="516.0" x2="113.2" y2="519.0" stroke="#999"/>
<text x="113.2" y="531.0" text-anchor="end" fill="#e8731a" transform="rotate(-50 113.2 531.0)">06-26</text>
<line x1="158.4" y1="516.0" x2="158.4" y2="519.0" stroke="#999"/>
<text x="158.4" y="531.0" text-anchor="end" fill="#e8731a" transform="rotate(-50 158.4 531.0)">06-28</text>
<line x1="203.7" y1="516.0" x2="203.7" y2="519.0" stroke="#999"/>
<text x="203.7" y="531.0" text-anchor="end" fill="#e8731a" transform="rotate(-50 203.7 531.0)">07-01</text>
<line x1="248.9" y1="516.0" x2="248.9" y2="519.0" stroke="#999"/>
<text x="248.9" y="531.0" text-anchor="end" fill="#e8731a" transform="rotate(-50 248.9 531.0)">07-02</text>
<line x1="294.1" y1="516.0" x2="294.1" y2="519.0" stroke="#999"/>
<text x="294.1" y="531.0" text-anchor="end" fill="#e8731a" transform="rotate(-50 294.1 531.0)">07-03</text>
<line x1="339.3" y1="516.0" x2="339.3" y2="519.0" stroke="#999"/>
<text x="339.3" y="531.0" text-anchor="end" fill="#e8731a" transform="rotate(-50 339.3 531.0)">07-06</text>
<line x1="384.5" y1="516.0" x2="384.5" y2="519.0" stroke="#999"/>
<text x="384.5" y="531.0" text-anchor="end" fill="#e8731a" transform="rotate(-50 384.5 531.0)">07-07</text>
<line x1="429.7" y1="516.0" x2="429.7" y2="519.0" stroke="#999"/>
<text x="429.7" y="531.0" text-anchor="end" fill="#e8731a" transform="rotate(-50 429.7 531.0)">07-08</text>
<line x1="475.0" y1="516.0" x2="475.0" y2="519.0" stroke="#999"/>
<text x="475.0" y="531.0" text-anchor="end" fill="#e8731a" transform="rotate(-50 475.0 531.0)">07-09</text>
<line x1="520.2" y1="516.0" x2="520.2" y2="519.0" stroke="#999"/>
<text x="520.2" y="531.0" text-anchor="end" fill="#e8731a" transform="rotate(-50 520.2 531.0)">07-10</text>
<line x1="565.4" y1="516.0" x2="565.4" y2="519.0" stroke="#999"/>
<text x="565.4" y="531.0" text-anchor="end" fill="#e8731a" transform="rotate(-50 565.4 531.0)">07-11</text>
<line x1="610.6" y1="516.0" x2="610.6" y2="519.0" stroke="#999"/>
<text x="610.6" y="531.0" text-anchor="end" fill="#e8731a" transform="rotate(-50 610.6 531.0)">07-14</text>
<line x1="655.8" y1="516.0" x2="655.8" y2="519.0" stroke="#999"/>
<text x="655.8" y="531.0" text-anchor="end" fill="#e8731a" transform="rotate(-50 655.8 531.0)">07-15</text>
<line x1="701.0" y1="516.0" x2="701.0" y2="519.0" stroke="#999"/>
<text x="701.0" y="531.0" text-anchor="end" fill="#e8731a" transform="rotate(-50 701.0 531.0)">07-15</text>
<line x1="746.3" y1="516.0" x2="746.3" y2="519.0" stroke="#999"/>
<text x="746.3" y="531.0" text-anchor="end" fill="#e8731a" transform="rotate(-50 746.3 531.0)">07-16</text>
<line x1="791.5" y1="516.0" x2="791.5" y2="519.0" stroke="#999"/>
<text x="791.5" y="531.0" text-anchor="end" fill="#e8731a" transform="rotate(-50 791.5 531.0)">07-17</text>
<line x1="836.7" y1="516.0" x2="836.7" y2="519.0" stroke="#999"/>
<text x="836.7" y="531.0" text-anchor="end" fill="#e8731a" transform="rotate(-50 836.7 531.0)">07-18</text>
<line x1="881.9" y1="516.0" x2="881.9" y2="519.0" stroke="#999"/>
<text x="881.9" y="531.0" text-anchor="end" fill="#e8731a" transform="rotate(-50 881.9 531.0)">07-19</text>
<line x1="927.1" y1="516.0" x2="927.1" y2="519.0" stroke="#999"/>
<text x="927.1" y="531.0" text-anchor="end" fill="#e8731a" transform="rotate(-50 927.1 531.0)">07-20</text>
<line x1="972.3" y1="516.0" x2="972.3" y2="519.0" stroke="#999"/>
<text x="972.3" y="531.0" text-anchor="end" fill="#e8731a" transform="rotate(-50 972.3 531.0)">07-21</text>
<line x1="1017.6" y1="516.0" x2="1017.6" y2="519.0" stroke="#999"/>
<text x="1017.6" y="531.0" text-anchor="end" fill="#e8731a" transform="rotate(-50 1017.6 531.0)">07-22</text>
<line x1="1062.8" y1="516.0" x2="1062.8" y2="519.0" stroke="#999"/>
<text x="1062.8" y="531.0" text-anchor="end" fill="#e8731a" transform="rotate(-50 1062.8 531.0)">07-23</text>
<line x1="1108.0" y1="516.0" x2="1108.0" y2="519.0" stroke="#999"/>
<text x="1108.0" y="531.0" text-anchor="end" fill="#e8731a" transform="rotate(-50 1108.0 531.0)">07-24</text>
<polygon points="68.0,512.4 113.2,512.4 158.4,512.4 203.7,512.4 248.9,512.4 294.1,512.4 339.3,512.2 384.5,512.7 429.7,512.8 475.0,512.8 520.2,512.8 565.4,512.6 610.6,512.8 655.8,513.1 701.0,513.0 746.3,512.8 791.5,513.0 836.7,513.3 881.9,513.3 927.1,513.3 972.3,513.3 1017.6,513.4 1062.8,513.4 1108.0,513.3 1108.0,516.0 1062.8,516.0 1017.6,516.0 972.3,516.0 927.1,516.0 881.9,516.0 836.7,516.0 791.5,516.0 746.3,516.0 701.0,516.0 655.8,516.0 610.6,516.0 565.4,516.0 520.2,516.0 475.0,516.0 429.7,516.0 384.5,516.0 339.3,516.0 294.1,516.0 248.9,516.0 203.7,516.0 158.4,516.0 113.2,516.0 68.0,516.0" fill="#c7e9c0" fill-opacity="0.9" stroke="#fff" stroke-width="0.4"><title>resource_aggregate — parseTranslationUnit</title></polygon>
<polygon points="68.0,429.2 113.2,429.8 158.4,430.3 203.7,428.3 248.9,430.5 294.1,431.0 339.3,430.3 384.5,434.6 429.7,437.7 475.0,436.0 520.2,436.6 565.4,435.5 610.6,435.7 655.8,440.6 701.0,441.5 746.3,425.7 791.5,426.0 836.7,436.2 881.9,435.6 927.1,436.1 972.3,432.9 1017.6,436.1 1062.8,436.6 1108.0,437.2 1108.0,513.3 1062.8,513.4 1017.6,513.4 972.3,513.3 927.1,513.3 881.9,513.3 836.7,513.3 791.5,513.0 746.3,512.8 701.0,513.0 655.8,513.1 610.6,512.8 565.4,512.6 520.2,512.8 475.0,512.8 429.7,512.8 384.5,512.7 339.3,512.2 294.1,512.4 248.9,512.4 203.7,512.4 158.4,512.4 113.2,512.4 68.0,512.4" fill="#41ab5d" fill-opacity="0.9" stroke="#fff" stroke-width="0.4"><title>resource_aggregate — SemanticChecking</title></polygon>
<polygon points="68.0,391.4 113.2,390.9 158.4,392.8 203.7,390.0 248.9,391.4 294.1,392.3 339.3,391.2 384.5,395.8 429.7,398.3 475.0,396.7 520.2,400.1 565.4,398.5 610.6,398.9 655.8,406.1 701.0,406.8 746.3,392.4 791.5,393.2 836.7,408.5 881.9,407.3 927.1,409.2 972.3,405.2 1017.6,408.2 1062.8,409.3 1108.0,410.1 1108.0,437.2 1062.8,436.6 1017.6,436.1 972.3,432.9 927.1,436.1 881.9,435.6 836.7,436.2 791.5,426.0 746.3,425.7 701.0,441.5 655.8,440.6 610.6,435.7 565.4,435.5 520.2,436.6 475.0,436.0 429.7,437.7 384.5,434.6 339.3,430.3 294.1,431.0 248.9,430.5 203.7,428.3 158.4,430.3 113.2,429.8 68.0,429.2" fill="#006d2c" fill-opacity="0.9" stroke="#fff" stroke-width="0.4"><title>resource_aggregate — generateIR</title></polygon>
<polygon points="68.0,381.3 113.2,380.0 158.4,381.8 203.7,378.1 248.9,380.6 294.1,381.4 339.3,380.0 384.5,385.4 429.7,385.9 475.0,385.2 520.2,388.5 565.4,386.6 610.6,388.4 655.8,397.3 701.0,397.3 746.3,382.5 791.5,383.5 836.7,398.1 881.9,397.3 927.1,397.7 972.3,394.5 1017.6,398.1 1062.8,399.0 1108.0,399.3 1108.0,410.1 1062.8,409.3 1017.6,408.2 972.3,405.2 927.1,409.2 881.9,407.3 836.7,408.5 791.5,393.2 746.3,392.4 701.0,406.8 655.8,406.1 610.6,398.9 565.4,398.5 520.2,400.1 475.0,396.7 429.7,398.3 384.5,395.8 339.3,391.2 294.1,392.3 248.9,391.4 203.7,390.0 158.4,392.8 113.2,390.9 68.0,391.4" fill="#74c476" fill-opacity="0.9" stroke="#fff" stroke-width="0.4"><title>resource_aggregate — frontEndExecute (self)</title></polygon>
<polygon points="68.0,326.0 113.2,322.3 158.4,326.2 203.7,322.1 248.9,324.7 294.1,325.2 339.3,324.8 384.5,344.8 429.7,344.9 475.0,345.1 520.2,353.0 565.4,350.6 610.6,353.4 655.8,367.9 701.0,367.7 746.3,352.9 791.5,353.7 836.7,371.4 881.9,370.5 927.1,370.5 972.3,367.4 1017.6,371.6 1062.8,372.3 1108.0,372.5 1108.0,399.3 1062.8,399.0 1017.6,398.1 972.3,394.5 927.1,397.7 881.9,397.3 836.7,398.1 791.5,383.5 746.3,382.5 701.0,397.3 655.8,397.3 610.6,388.4 565.4,386.6 520.2,388.5 475.0,385.2 429.7,385.9 384.5,385.4 339.3,380.0 294.1,381.4 248.9,380.6 203.7,378.1 158.4,381.8 113.2,380.0 68.0,381.3" fill="#6baed6" fill-opacity="0.9" stroke="#fff" stroke-width="0.4"><title>resource_aggregate — specializeModule</title></polygon>
<polygon points="68.0,290.9 113.2,286.6 158.4,291.1 203.7,285.9 248.9,289.2 294.1,289.8 339.3,289.2 384.5,319.6 429.7,320.0 475.0,320.0 520.2,334.7 565.4,332.4 610.6,335.5 655.8,349.8 701.0,349.5 746.3,334.8 791.5,335.7 836.7,354.8 881.9,354.1 927.1,354.1 972.3,350.9 1017.6,355.2 1062.8,355.9 1108.0,355.9 1108.0,372.5 1062.8,372.3 1017.6,371.6 972.3,367.4 927.1,370.5 881.9,370.5 836.7,371.4 791.5,353.7 746.3,352.9 701.0,367.7 655.8,367.9 610.6,353.4 565.4,350.6 520.2,353.0 475.0,345.1 429.7,344.9 384.5,344.8 339.3,324.8 294.1,325.2 248.9,324.7 203.7,322.1 158.4,326.2 113.2,322.3 68.0,326.0" fill="#2171b5" fill-opacity="0.9" stroke="#fff" stroke-width="0.4"><title>resource_aggregate — simplifyIR</title></polygon>
<polygon points="68.0,281.5 113.2,277.1 158.4,281.6 203.7,276.3 248.9,279.8 294.1,280.2 339.3,279.8 384.5,313.9 429.7,314.1 475.0,313.9 520.2,328.7 565.4,326.5 610.6,329.7 655.8,344.6 701.0,344.5 746.3,329.8 791.5,330.5 836.7,350.6 881.9,349.8 927.1,349.7 972.3,346.7 1017.6,350.9 1062.8,351.7 1108.0,351.7 1108.0,355.9 1062.8,355.9 1017.6,355.2 972.3,350.9 927.1,354.1 881.9,354.1 836.7,354.8 791.5,335.7 746.3,334.8 701.0,349.5 655.8,349.8 610.6,335.5 565.4,332.4 520.2,334.7 475.0,320.0 429.7,320.0 384.5,319.6 339.3,289.2 294.1,289.8 248.9,289.2 203.7,285.9 158.4,291.1 113.2,286.6 68.0,290.9" fill="#08306b" fill-opacity="0.9" stroke="#fff" stroke-width="0.4"><title>resource_aggregate — linkIR</title></polygon>
<polygon points="68.0,281.4 113.2,277.0 158.4,281.5 203.7,276.2 248.9,279.7 294.1,280.0 339.3,279.7 384.5,313.8 429.7,314.0 475.0,313.9 520.2,328.7 565.4,326.4 610.6,329.7 655.8,344.5 701.0,344.4 746.3,329.7 791.5,330.5 836.7,350.5 881.9,349.8 927.1,349.6 972.3,346.7 1017.6,350.8 1062.8,351.7 1108.0,351.6 1108.0,351.7 1062.8,351.7 1017.6,350.9 972.3,346.7 927.1,349.7 881.9,349.8 836.7,350.6 791.5,330.5 746.3,329.8 701.0,344.5 655.8,344.6 610.6,329.7 565.4,326.5 520.2,328.7 475.0,313.9 429.7,314.1 384.5,313.9 339.3,279.8 294.1,280.2 248.9,279.8 203.7,276.3 158.4,281.6 113.2,277.1 68.0,281.5" fill="#9e9ac8" fill-opacity="0.9" stroke="#fff" stroke-width="0.4"><title>resource_aggregate — unrollLoopsInModule</title></polygon>
<polygon points="68.0,261.9 113.2,256.4 158.4,261.4 203.7,256.1 248.9,260.2 294.1,259.9 339.3,259.8 384.5,294.1 429.7,295.0 475.0,294.2 520.2,320.3 565.4,317.9 610.6,321.4 655.8,336.1 701.0,336.0 746.3,321.4 791.5,322.1 836.7,343.2 881.9,342.3 927.1,342.2 972.3,339.2 1017.6,343.4 1062.8,344.3 1108.0,344.3 1108.0,351.6 1062.8,351.7 1017.6,350.8 972.3,346.7 927.1,349.6 881.9,349.8 836.7,350.5 791.5,330.5 746.3,329.7 701.0,344.4 655.8,344.5 610.6,329.7 565.4,326.4 520.2,328.7 475.0,313.9 429.7,314.0 384.5,313.8 339.3,279.7 294.1,280.0 248.9,279.7 203.7,276.2 158.4,281.5 113.2,277.0 68.0,281.4" fill="#807dba" fill-opacity="0.9" stroke="#fff" stroke-width="0.4"><title>resource_aggregate — legalizeResourceTypes</title></polygon>
<polygon points="68.0,250.0 113.2,244.2 158.4,249.1 203.7,244.0 248.9,248.3 294.1,248.1 339.3,248.0 384.5,281.8 429.7,283.0 475.0,282.2 520.2,316.1 565.4,313.8 610.6,317.6 655.8,331.6 701.0,331.6 746.3,316.7 791.5,317.6 836.7,339.3 881.9,338.3 927.1,338.3 972.3,335.3 1017.6,339.4 1062.8,340.6 1108.0,340.4 1108.0,344.3 1062.8,344.3 1017.6,343.4 972.3,339.2 927.1,342.2 881.9,342.3 836.7,343.2 791.5,322.1 746.3,321.4 701.0,336.0 655.8,336.1 610.6,321.4 565.4,317.9 520.2,320.3 475.0,294.2 429.7,295.0 384.5,294.1 339.3,259.8 294.1,259.9 248.9,260.2 203.7,256.1 158.4,261.4 113.2,256.4 68.0,261.9" fill="#6a51a3" fill-opacity="0.9" stroke="#fff" stroke-width="0.4"><title>resource_aggregate — legalizeExistentialTypeLayout</title></polygon>
<polygon points="68.0,247.9 113.2,242.1 158.4,247.1 203.7,242.0 248.9,246.2 294.1,246.0 339.3,246.0 384.5,279.8 429.7,280.9 475.0,280.2 520.2,314.1 565.4,311.8 610.6,315.6 655.8,329.8 701.0,329.7 746.3,314.9 791.5,315.8 836.7,337.7 881.9,336.7 927.1,336.7 972.3,333.6 1017.6,337.7 1062.8,339.0 1108.0,338.7 1108.0,340.4 1062.8,340.6 1017.6,339.4 972.3,335.3 927.1,338.3 881.9,338.3 836.7,339.3 791.5,317.6 746.3,316.7 701.0,331.6 655.8,331.6 610.6,317.6 565.4,313.8 520.2,316.1 475.0,282.2 429.7,283.0 384.5,281.8 339.3,248.0 294.1,248.1 248.9,248.3 203.7,244.0 158.4,249.1 113.2,244.2 68.0,250.0" fill="#bcbddc" fill-opacity="0.9" stroke="#fff" stroke-width="0.4"><title>resource_aggregate — performMandatoryEarlyInlining</title></polygon>
<polygon points="68.0,245.7 113.2,239.7 158.4,244.6 203.7,239.4 248.9,244.0 294.1,243.6 339.3,243.8 384.5,277.6 429.7,278.7 475.0,277.9 520.2,311.9 565.4,309.5 610.6,313.4 655.8,327.8 701.0,327.7 746.3,312.8 791.5,313.7 836.7,335.9 881.9,335.0 927.1,335.0 972.3,332.0 1017.6,336.1 1062.8,337.2 1108.0,336.9 1108.0,338.7 1062.8,339.0 1017.6,337.7 972.3,333.6 927.1,336.7 881.9,336.7 836.7,337.7 791.5,315.8 746.3,314.9 701.0,329.7 655.8,329.8 610.6,315.6 565.4,311.8 520.2,314.1 475.0,280.2 429.7,280.9 384.5,279.8 339.3,246.0 294.1,246.0 248.9,246.2 203.7,242.0 158.4,247.1 113.2,242.1 68.0,247.9" fill="#dadaeb" fill-opacity="0.9" stroke="#fff" stroke-width="0.4"><title>resource_aggregate — performForceInlining</title></polygon>
<polygon points="68.0,197.1 113.2,189.0 158.4,195.5 203.7,189.5 248.9,191.3 294.1,193.5 339.3,192.4 384.5,235.3 429.7,236.4 475.0,235.8 520.2,282.4 565.4,279.7 610.6,284.7 655.8,304.1 701.0,304.5 746.3,288.5 791.5,290.5 836.7,314.1 881.9,313.0 927.1,313.5 972.3,310.0 1017.6,314.1 1062.8,315.0 1108.0,314.4 1108.0,336.9 1062.8,337.2 1017.6,336.1 972.3,332.0 927.1,335.0 881.9,335.0 836.7,335.9 791.5,313.7 746.3,312.8 701.0,327.7 655.8,327.8 610.6,313.4 565.4,309.5 520.2,311.9 475.0,277.9 429.7,278.7 384.5,277.6 339.3,243.8 294.1,243.6 248.9,244.0 203.7,239.4 158.4,244.6 113.2,239.7 68.0,245.7" fill="#4a1486" fill-opacity="0.9" stroke="#fff" stroke-width="0.4"><title>resource_aggregate — linkAndOptimizeIR (self)</title></polygon>
<polygon points="68.0,126.1 113.2,120.3 158.4,126.1 203.7,120.1 248.9,121.6 294.1,124.4 339.3,117.9 384.5,166.7 429.7,168.5 475.0,166.0 520.2,225.6 565.4,221.4 610.6,227.9 655.8,248.2 701.0,248.2 746.3,233.8 791.5,236.7 836.7,260.5 881.9,261.0 927.1,261.1 972.3,255.8 1017.6,261.8 1062.8,262.1 1108.0,262.5 1108.0,314.4 1062.8,315.0 1017.6,314.1 972.3,310.0 927.1,313.5 881.9,313.0 836.7,314.1 791.5,290.5 746.3,288.5 701.0,304.5 655.8,304.1 610.6,284.7 565.4,279.7 520.2,282.4 475.0,235.8 429.7,236.4 384.5,235.3 339.3,192.4 294.1,193.5 248.9,191.3 203.7,189.5 158.4,195.5 113.2,189.0 68.0,197.1" fill="#e6550d" fill-opacity="0.9" stroke="#fff" stroke-width="0.4"><title>resource_aggregate — generateOutput (self)</title></polygon>
<polygon points="68.0,112.5 113.2,108.6 158.4,115.9 203.7,111.1 248.9,110.1 294.1,113.9 339.3,108.9 384.5,153.7 429.7,158.2 475.0,156.1 520.2,215.4 565.4,210.7 610.6,218.4 655.8,238.5 701.0,239.0 746.3,221.6 791.5,227.2 836.7,254.2 881.9,252.8 927.1,253.9 972.3,247.9 1017.6,253.1 1062.8,255.1 1108.0,255.9 1108.0,262.5 1062.8,262.1 1017.6,261.8 972.3,255.8 927.1,261.1 881.9,261.0 836.7,260.5 791.5,236.7 746.3,233.8 701.0,248.2 655.8,248.2 610.6,227.9 565.4,221.4 520.2,225.6 475.0,166.0 429.7,168.5 384.5,166.7 339.3,117.9 294.1,124.4 248.9,121.6 203.7,120.1 158.4,126.1 113.2,120.3 68.0,126.1" fill="#969696" fill-opacity="0.9" stroke="#fff" stroke-width="0.4"><title>resource_aggregate — compileInner (self)</title></polygon>
<text x="12" y="578" fill="#666" font-weight="600">phase buckets</text>
<rect x="12" y="586" width="12" height="12" fill="#c7e9c0"/>
<text x="28" y="596" fill="#222">parseTranslationUnit</text>
<rect x="289" y="586" width="12" height="12" fill="#41ab5d"/>
<text x="305" y="596" fill="#222">SemanticChecking</text>
<rect x="566" y="586" width="12" height="12" fill="#006d2c"/>
<text x="582" y="596" fill="#222">generateIR</text>
<rect x="843" y="586" width="12" height="12" fill="#74c476"/>
<text x="859" y="596" fill="#222">frontEndExecute (self)</text>
<rect x="12" y="604" width="12" height="12" fill="#6baed6"/>
<text x="28" y="614" fill="#222">specializeModule</text>
<rect x="289" y="604" width="12" height="12" fill="#2171b5"/>
<text x="305" y="614" fill="#222">simplifyIR</text>
<rect x="566" y="604" width="12" height="12" fill="#08306b"/>
<text x="582" y="614" fill="#222">linkIR</text>
<rect x="843" y="604" width="12" height="12" fill="#9e9ac8"/>
<text x="859" y="614" fill="#222">unrollLoopsInModule</text>
<rect x="12" y="622" width="12" height="12" fill="#807dba"/>
<text x="28" y="632" fill="#222">legalizeResourceTypes</text>
<rect x="289" y="622" width="12" height="12" fill="#6a51a3"/>
<text x="305" y="632" fill="#222">legalizeExistentialTypeLayout</text>
<rect x="566" y="622" width="12" height="12" fill="#bcbddc"/>
<text x="582" y="632" fill="#222">performMandatoryEarlyInlining</text>
<rect x="843" y="622" width="12" height="12" fill="#dadaeb"/>
<text x="859" y="632" fill="#222">performForceInlining</text>
<rect x="12" y="640" width="12" height="12" fill="#4a1486"/>
<text x="28" y="650" fill="#222">linkAndOptimizeIR (self)</text>
<rect x="289" y="640" width="12" height="12" fill="#fd8d3c"/>
<text x="305" y="650" fill="#222">emitEntryPointsSourceFromIR</text>
<rect x="566" y="640" width="12" height="12" fill="#e6550d"/>
<text x="582" y="650" fill="#222">generateOutput (self)</text>
<rect x="843" y="640" width="12" height="12" fill="#969696"/>
<text x="859" y="650" fill="#222">compileInner (self)</text>
</svg>