<svg xmlns="http://www.w3.org/2000/svg" xmlns:xlink="http://www.w3.org/1999/xlink" width="1132" height="680" viewBox="0 0 1132 680" preserveAspectRatio="xMidYMid meet" font-family="sans-serif" font-size="13">
<rect width="1132" height="680" fill="white"/>
<text x="12" y="30" font-size="20" font-weight="bold">resource_aggregate — Daily tip-of-tree (last 30 days) (median ms)</text>
<text x="68" y="60" font-size="15" font-weight="600" fill="#1a1a1a">resource_aggregate<tspan fill="#888" font-weight="400" text-decoration="none">  0.69×</tspan></text>
<line x1="68.0" y1="516.0" x2="1108.0" y2="516.0" stroke="#eee"/>
<text x="64.0" y="519.0" text-anchor="end" fill="#999">0.0</text>
<line x1="68.0" y1="296.0" x2="1108.0" y2="296.0" stroke="#eee"/>
<text x="64.0" y="299.0" text-anchor="end" fill="#999">39</text>
<line x1="68.0" y1="76.0" x2="1108.0" y2="76.0" stroke="#eee"/>
<text x="64.0" y="79.0" text-anchor="end" fill="#999">77</text>
<line x1="68.0" y1="76.0" x2="68.0" y2="516.0" stroke="#333"/>
<line x1="68.0" y1="516.0" x2="1108.0" y2="516.0" stroke="#333"/>
<line x1="68.0" y1="516.0" x2="68.0" y2="519.0" stroke="#999"/>
<text x="68.0" y="531.0" text-anchor="end" fill="#e8731a" transform="rotate(-50 68.0 531.0)">06-25</text>
<line x1="148.0" y1="516.0" x2="148.0" y2="519.0" stroke="#999"/>
<text x="148.0" y="531.0" text-anchor="end" fill="#e8731a" transform="rotate(-50 148.0 531.0)">06-26</text>
<line x1="228.0" y1="516.0" x2="228.0" y2="519.0" stroke="#999"/>
<text x="228.0" y="531.0" text-anchor="end" fill="#e8731a" transform="rotate(-50 228.0 531.0)">06-28</text>
<line x1="308.0" y1="516.0" x2="308.0" y2="519.0" stroke="#999"/>
<text x="308.0" y="531.0" text-anchor="end" fill="#e8731a" transform="rotate(-50 308.0 531.0)">07-01</text>
<line x1="388.0" y1="516.0" x2="388.0" y2="519.0" stroke="#999"/>
<text x="388.0" y="531.0" text-anchor="end" fill="#e8731a" transform="rotate(-50 388.0 531.0)">07-02</text>
<line x1="468.0" y1="516.0" x2="468.0" y2="519.0" stroke="#999"/>
<text x="468.0" y="531.0" text-anchor="end" fill="#e8731a" transform="rotate(-50 468.0 531.0)">07-03</text>
<line x1="548.0" y1="516.0" x2="548.0" y2="519.0" stroke="#999"/>
<text x="548.0" y="531.0" text-anchor="end" fill="#e8731a" transform="rotate(-50 548.0 531.0)">07-06</text>
<line x1="628.0" y1="516.0" x2="628.0" y2="519.0" stroke="#999"/>
<text x="628.0" y="531.0" text-anchor="end" fill="#e8731a" transform="rotate(-50 628.0 531.0)">07-07</text>
<line x1="708.0" y1="516.0" x2="708.0" y2="519.0" stroke="#999"/>
<text x="708.0" y="531.0" text-anchor="end" fill="#e8731a" transform="rotate(-50 708.0 531.0)">07-08</text>
<line x1="788.0" y1="516.0" x2="788.0" y2="519.0" stroke="#999"/>
<text x="788.0" y="531.0" text-anchor="end" fill="#e8731a" transform="rotate(-50 788.0 531.0)">07-09</text>
<line x1="868.0" y1="516.0" x2="868.0" y2="519.0" stroke="#999"/>
<text x="868.0" y="531.0" text-anchor="end" fill="#e8731a" transform="rotate(-50 868.0 531.0)">07-10</text>
<line x1="948.0" y1="516.0" x2="948.0" y2="519.0" stroke="#999"/>
<text x="948.0" y="531.0" text-anchor="end" fill="#e8731a" transform="rotate(-50 948.0 531.0)">07-11</text>
<line x1="1028.0" y1="516.0" x2="1028.0" y2="519.0" stroke="#999"/>
<text x="1028.0" y="531.0" text-anchor="end" fill="#e8731a" transform="rotate(-50 1028.0 531.0)">07-14</text>
<line x1="1108.0" y1="516.0" x2="1108.0" y2="519.0" stroke="#999"/>
<text x="1108.0" y="531.0" text-anchor="end" fill="#e8731a" transform="rotate(-50 1108.0 531.0)">07-15</text>
<polygon points="68.0,512.4 148.0,512.4 228.0,512.4 308.0,512.4 388.0,512.4 468.0,512.4 548.0,512.2 628.0,512.7 708.0,512.8 788.0,512.8 868.0,512.8 948.0,512.6 1028.0,512.8 1108.0,513.1 1108.0,516.0 1028.0,516.0 948.0,516.0 868.0,516.0 788.0,516.0 708.0,516.0 628.0,516.0 548.0,516.0 468.0,516.0 388.0,516.0 308.0,516.0 228.0,516.0 148.0,516.0 68.0,516.0" fill="#c7e9c0" fill-opacity="0.9" stroke="#fff" stroke-width="0.4"><title>resource_aggregate — parseTranslationUnit</title></polygon>
<polygon points="68.0,429.2 148.0,429.8 228.0,430.3 308.0,428.3 388.0,430.5 468.0,431.0 548.0,430.3 628.0,434.6 708.0,437.7 788.0,436.0 868.0,436.6 948.0,435.5 1028.0,435.7 1108.0,440.6 1108.0,513.1 1028.0,512.8 948.0,512.6 868.0,512.8 788.0,512.8 708.0,512.8 628.0,512.7 548.0,512.2 468.0,512.4 388.0,512.4 308.0,512.4 228.0,512.4 148.0,512.4 68.0,512.4" fill="#41ab5d" fill-opacity="0.9" stroke="#fff" stroke-width="0.4"><title>resource_aggregate — SemanticChecking</title></polygon>
<polygon points="68.0,391.4 148.0,390.9 228.0,392.8 308.0,390.0 388.0,391.4 468.0,392.3 548.0,391.2 628.0,395.8 708.0,398.3 788.0,396.7 868.0,400.1 948.0,398.5 1028.0,398.9 1108.0,406.1 1108.0,440.6 1028.0,435.7 948.0,435.5 868.0,436.6 788.0,436.0 708.0,437.7 628.0,434.6 548.0,430.3 468.0,431.0 388.0,430.5 308.0,428.3 228.0,430.3 148.0,429.8 68.0,429.2" fill="#006d2c" fill-opacity="0.9" stroke="#fff" stroke-width="0.4"><title>resource_aggregate — generateIR</title></polygon>
<polygon points="68.0,381.3 148.0,380.0 228.0,381.8 308.0,378.1 388.0,380.6 468.0,381.4 548.0,380.0 628.0,385.4 708.0,385.9 788.0,385.2 868.0,388.5 948.0,386.6 1028.0,388.4 1108.0,397.3 1108.0,406.1 1028.0,398.9 948.0,398.5 868.0,400.1 788.0,396.7 708.0,398.3 628.0,395.8 548.0,391.2 468.0,392.3 388.0,391.4 308.0,390.0 228.0,392.8 148.0,390.9 68.0,391.4" fill="#74c476" fill-opacity="0.9" stroke="#fff" stroke-width="0.4"><title>resource_aggregate — frontEndExecute (self)</title></polygon>
<polygon points="68.0,326.0 148.0,322.3 228.0,326.2 308.0,322.1 388.0,324.7 468.0,325.2 548.0,324.8 628.0,344.8 708.0,344.9 788.0,345.1 868.0,353.0 948.0,350.6 1028.0,353.4 1108.0,367.9 1108.0,397.3 1028.0,388.4 948.0,386.6 868.0,388.5 788.0,385.2 708.0,385.9 628.0,385.4 548.0,380.0 468.0,381.4 388.0,380.6 308.0,378.1 228.0,381.8 148.0,380.0 68.0,381.3" fill="#6baed6" fill-opacity="0.9" stroke="#fff" stroke-width="0.4"><title>resource_aggregate — specializeModule</title></polygon>
<polygon points="68.0,290.9 148.0,286.6 228.0,291.1 308.0,285.9 388.0,289.2 468.0,289.8 548.0,289.2 628.0,319.6 708.0,320.0 788.0,320.0 868.0,334.7 948.0,332.4 1028.0,335.5 1108.0,349.8 1108.0,367.9 1028.0,353.4 948.0,350.6 868.0,353.0 788.0,345.1 708.0,344.9 628.0,344.8 548.0,324.8 468.0,325.2 388.0,324.7 308.0,322.1 228.0,326.2 148.0,322.3 68.0,326.0" fill="#2171b5" fill-opacity="0.9" stroke="#fff" stroke-width="0.4"><title>resource_aggregate — simplifyIR</title></polygon>
<polygon points="68.0,281.5 148.0,277.1 228.0,281.6 308.0,276.3 388.0,279.8 468.0,280.2 548.0,279.8 628.0,313.9 708.0,314.1 788.0,313.9 868.0,328.7 948.0,326.5 1028.0,329.7 1108.0,344.6 1108.0,349.8 1028.0,335.5 948.0,332.4 868.0,334.7 788.0,320.0 708.0,320.0 628.0,319.6 548.0,289.2 468.0,289.8 388.0,289.2 308.0,285.9 228.0,291.1 148.0,286.6 68.0,290.9" fill="#08306b" fill-opacity="0.9" stroke="#fff" stroke-width="0.4"><title>resource_aggregate — linkIR</title></polygon>
<polygon points="68.0,281.4 148.0,277.0 228.0,281.5 308.0,276.2 388.0,279.7 468.0,280.0 548.0,279.7 628.0,313.8 708.0,314.0 788.0,313.9 868.0,328.7 948.0,326.4 1028.0,329.7 1108.0,344.5 1108.0,344.6 1028.0,329.7 948.0,326.5 868.0,328.7 788.0,313.9 708.0,314.1 628.0,313.9 548.0,279.8 468.0,280.2 388.0,279.8 308.0,276.3 228.0,281.6 148.0,277.1 68.0,281.5" fill="#9e9ac8" fill-opacity="0.9" stroke="#fff" stroke-width="0.4"><title>resource_aggregate — unrollLoopsInModule</title></polygon>
<polygon points="68.0,261.9 148.0,256.4 228.0,261.4 308.0,256.1 388.0,260.2 468.0,259.9 548.0,259.8 628.0,294.1 708.0,295.0 788.0,294.2 868.0,320.3 948.0,317.9 1028.0,321.4 1108.0,336.1 1108.0,344.5 1028.0,329.7 948.0,326.4 868.0,328.7 788.0,313.9 708.0,314.0 628.0,313.8 548.0,279.7 468.0,280.0 388.0,279.7 308.0,276.2 228.0,281.5 148.0,277.0 68.0,281.4" fill="#807dba" fill-opacity="0.9" stroke="#fff" stroke-width="0.4"><title>resource_aggregate — legalizeResourceTypes</title></polygon>
<polygon points="68.0,250.0 148.0,244.2 228.0,249.1 308.0,244.0 388.0,248.3 468.0,248.1 548.0,248.0 628.0,281.8 708.0,283.0 788.0,282.2 868.0,316.1 948.0,313.8 1028.0,317.6 1108.0,331.6 1108.0,336.1 1028.0,321.4 948.0,317.9 868.0,320.3 788.0,294.2 708.0,295.0 628.0,294.1 548.0,259.8 468.0,259.9 388.0,260.2 308.0,256.1 228.0,261.4 148.0,256.4 68.0,261.9" fill="#6a51a3" fill-opacity="0.9" stroke="#fff" stroke-width="0.4"><title>resource_aggregate — legalizeExistentialTypeLayout</title></polygon>
<polygon points="68.0,247.9 148.0,242.1 228.0,247.1 308.0,242.0 388.0,246.2 468.0,246.0 548.0,246.0 628.0,279.8 708.0,280.9 788.0,280.2 868.0,314.1 948.0,311.8 1028.0,315.6 1108.0,329.8 1108.0,331.6 1028.0,317.6 948.0,313.8 868.0,316.1 788.0,282.2 708.0,283.0 628.0,281.8 548.0,248.0 468.0,248.1 388.0,248.3 308.0,244.0 228.0,249.1 148.0,244.2 68.0,250.0" fill="#bcbddc" fill-opacity="0.9" stroke="#fff" stroke-width="0.4"><title>resource_aggregate — performMandatoryEarlyInlining</title></polygon>
<polygon points="68.0,245.7 148.0,239.7 228.0,244.6 308.0,239.4 388.0,244.0 468.0,243.6 548.0,243.8 628.0,277.6 708.0,278.7 788.0,277.9 868.0,311.9 948.0,309.5 1028.0,313.4 1108.0,327.8 1108.0,329.8 1028.0,315.6 948.0,311.8 868.0,314.1 788.0,280.2 708.0,280.9 628.0,279.8 548.0,246.0 468.0,246.0 388.0,246.2 308.0,242.0 228.0,247.1 148.0,242.1 68.0,247.9" fill="#dadaeb" fill-opacity="0.9" stroke="#fff" stroke-width="0.4"><title>resource_aggregate — performForceInlining</title></polygon>
<polygon points="68.0,197.1 148.0,189.0 228.0,195.5 308.0,189.5 388.0,191.3 468.0,193.5 548.0,192.4 628.0,235.3 708.0,236.4 788.0,235.8 868.0,282.4 948.0,279.7 1028.0,284.7 1108.0,304.1 1108.0,327.8 1028.0,313.4 948.0,309.5 868.0,311.9 788.0,277.9 708.0,278.7 628.0,277.6 548.0,243.8 468.0,243.6 388.0,244.0 308.0,239.4 228.0,244.6 148.0,239.7 68.0,245.7" fill="#4a1486" fill-opacity="0.9" stroke="#fff" stroke-width="0.4"><title>resource_aggregate — linkAndOptimizeIR (self)</title></polygon>
<polygon points="68.0,126.1 148.0,120.3 228.0,126.1 308.0,120.1 388.0,121.6 468.0,124.4 548.0,117.9 628.0,166.7 708.0,168.5 788.0,166.0 868.0,225.6 948.0,221.4 1028.0,227.9 1108.0,248.2 1108.0,304.1 1028.0,284.7 948.0,279.7 868.0,282.4 788.0,235.8 708.0,236.4 628.0,235.3 548.0,192.4 468.0,193.5 388.0,191.3 308.0,189.5 228.0,195.5 148.0,189.0 68.0,197.1" fill="#e6550d" fill-opacity="0.9" stroke="#fff" stroke-width="0.4"><title>resource_aggregate — generateOutput (self)</title></polygon>
<polygon points="68.0,112.5 148.0,108.6 228.0,115.9 308.0,111.1 388.0,110.1 468.0,113.9 548.0,108.9 628.0,153.7 708.0,158.2 788.0,156.1 868.0,215.4 948.0,210.7 1028.0,218.4 1108.0,238.5 1108.0,248.2 1028.0,227.9 948.0,221.4 868.0,225.6 788.0,166.0 708.0,168.5 628.0,166.7 548.0,117.9 468.0,124.4 388.0,121.6 308.0,120.1 228.0,126.1 148.0,120.3 68.0,126.1" fill="#969696" fill-opacity="0.9" stroke="#fff" stroke-width="0.4"><title>resource_aggregate — compileInner (self)</title></polygon>
<text x="12" y="578" fill="#666" font-weight="600">phase buckets</text>
<rect x="12" y="586" width="12" height="12" fill="#c7e9c0"/>
<text x="28" y="596" fill="#222">parseTranslationUnit</text>
<rect x="289" y="586" width="12" height="12" fill="#41ab5d"/>
<text x="305" y="596" fill="#222">SemanticChecking</text>
<rect x="566" y="586" width="12" height="12" fill="#006d2c"/>
<text x="582" y="596" fill="#222">generateIR</text>
<rect x="843" y="586" width="12" height="12" fill="#74c476"/>
<text x="859" y="596" fill="#222">frontEndExecute (self)</text>
<rect x="12" y="604" width="12" height="12" fill="#6baed6"/>
<text x="28" y="614" fill="#222">specializeModule</text>
<rect x="289" y="604" width="12" height="12" fill="#2171b5"/>
<text x="305" y="614" fill="#222">simplifyIR</text>
<rect x="566" y="604" width="12" height="12" fill="#08306b"/>
<text x="582" y="614" fill="#222">linkIR</text>
<rect x="843" y="604" width="12" height="12" fill="#9e9ac8"/>
<text x="859" y="614" fill="#222">unrollLoopsInModule</text>
<rect x="12" y="622" width="12" height="12" fill="#807dba"/>
<text x="28" y="632" fill="#222">legalizeResourceTypes</text>
<rect x="289" y="622" width="12" height="12" fill="#6a51a3"/>
<text x="305" y="632" fill="#222">legalizeExistentialTypeLayout</text>
<rect x="566" y="622" width="12" height="12" fill="#bcbddc"/>
<text x="582" y="632" fill="#222">performMandatoryEarlyInlining</text>
<rect x="843" y="622" width="12" height="12" fill="#dadaeb"/>
<text x="859" y="632" fill="#222">performForceInlining</text>
<rect x="12" y="640" width="12" height="12" fill="#4a1486"/>
<text x="28" y="650" fill="#222">linkAndOptimizeIR (self)</text>
<rect x="289" y="640" width="12" height="12" fill="#fd8d3c"/>
<text x="305" y="650" fill="#222">emitEntryPointsSourceFromIR</text>
<rect x="566" y="640" width="12" height="12" fill="#e6550d"/>
<text x="582" y="650" fill="#222">generateOutput (self)</text>
<rect x="843" y="640" width="12" height="12" fill="#969696"/>
<text x="859" y="650" fill="#222">compileInner (self)</text>
</svg>