<svg xmlns="http://www.w3.org/2000/svg" xmlns:xlink="http://www.w3.org/1999/xlink" width="1132" height="680" viewBox="0 0 1132 680" preserveAspectRatio="xMidYMid meet" font-family="sans-serif" font-size="13">
<rect width="1132" height="680" fill="white"/>
<text x="12" y="30" font-size="20" font-weight="bold">resource_aggregate — Daily tip-of-tree (last 30 days) (median ms)</text>
<text x="68" y="60" font-size="15" font-weight="600" fill="#1a1a1a">resource_aggregate<tspan fill="#888" font-weight="400" text-decoration="none">  0.73×</tspan></text>
<line x1="68.0" y1="516.0" x2="1108.0" y2="516.0" stroke="#eee"/>
<text x="64.0" y="519.0" text-anchor="end" fill="#999">0.0</text>
<line x1="68.0" y1="296.0" x2="1108.0" y2="296.0" stroke="#eee"/>
<text x="64.0" y="299.0" text-anchor="end" fill="#999">39</text>
<line x1="68.0" y1="76.0" x2="1108.0" y2="76.0" stroke="#eee"/>
<text x="64.0" y="79.0" text-anchor="end" fill="#999">77</text>
<line x1="68.0" y1="76.0" x2="68.0" y2="516.0" stroke="#333"/>
<line x1="68.0" y1="516.0" x2="1108.0" y2="516.0" stroke="#333"/>
<line x1="68.0" y1="516.0" x2="68.0" y2="519.0" stroke="#999"/>
<text x="68.0" y="531.0" text-anchor="end" fill="#e8731a" transform="rotate(-50 68.0 531.0)">06-25</text>
<line x1="137.3" y1="516.0" x2="137.3" y2="519.0" stroke="#999"/>
<text x="137.3" y="531.0" text-anchor="end" fill="#e8731a" transform="rotate(-50 137.3 531.0)">06-26</text>
<line x1="206.7" y1="516.0" x2="206.7" y2="519.0" stroke="#999"/>
<text x="206.7" y="531.0" text-anchor="end" fill="#e8731a" transform="rotate(-50 206.7 531.0)">06-28</text>
<line x1="276.0" y1="516.0" x2="276.0" y2="519.0" stroke="#999"/>
<text x="276.0" y="531.0" text-anchor="end" fill="#e8731a" transform="rotate(-50 276.0 531.0)">07-01</text>
<line x1="345.3" y1="516.0" x2="345.3" y2="519.0" stroke="#999"/>
<text x="345.3" y="531.0" text-anchor="end" fill="#e8731a" transform="rotate(-50 345.3 531.0)">07-02</text>
<line x1="414.7" y1="516.0" x2="414.7" y2="519.0" stroke="#999"/>
<text x="414.7" y="531.0" text-anchor="end" fill="#e8731a" transform="rotate(-50 414.7 531.0)">07-03</text>
<line x1="484.0" y1="516.0" x2="484.0" y2="519.0" stroke="#999"/>
<text x="484.0" y="531.0" text-anchor="end" fill="#e8731a" transform="rotate(-50 484.0 531.0)">07-06</text>
<line x1="553.3" y1="516.0" x2="553.3" y2="519.0" stroke="#999"/>
<text x="553.3" y="531.0" text-anchor="end" fill="#e8731a" transform="rotate(-50 553.3 531.0)">07-07</text>
<line x1="622.7" y1="516.0" x2="622.7" y2="519.0" stroke="#999"/>
<text x="622.7" y="531.0" text-anchor="end" fill="#e8731a" transform="rotate(-50 622.7 531.0)">07-08</text>
<line x1="692.0" y1="516.0" x2="692.0" y2="519.0" stroke="#999"/>
<text x="692.0" y="531.0" text-anchor="end" fill="#e8731a" transform="rotate(-50 692.0 531.0)">07-09</text>
<line x1="761.3" y1="516.0" x2="761.3" y2="519.0" stroke="#999"/>
<text x="761.3" y="531.0" text-anchor="end" fill="#e8731a" transform="rotate(-50 761.3 531.0)">07-10</text>
<line x1="830.7" y1="516.0" x2="830.7" y2="519.0" stroke="#999"/>
<text x="830.7" y="531.0" text-anchor="end" fill="#e8731a" transform="rotate(-50 830.7 531.0)">07-11</text>
<line x1="900.0" y1="516.0" x2="900.0" y2="519.0" stroke="#999"/>
<text x="900.0" y="531.0" text-anchor="end" fill="#e8731a" transform="rotate(-50 900.0 531.0)">07-14</text>
<line x1="969.3" y1="516.0" x2="969.3" y2="519.0" stroke="#999"/>
<text x="969.3" y="531.0" text-anchor="end" fill="#e8731a" transform="rotate(-50 969.3 531.0)">07-15</text>
<line x1="1038.7" y1="516.0" x2="1038.7" y2="519.0" stroke="#999"/>
<text x="1038.7" y="531.0" text-anchor="end" fill="#e8731a" transform="rotate(-50 1038.7 531.0)">07-15</text>
<line x1="1108.0" y1="516.0" x2="1108.0" y2="519.0" stroke="#999"/>
<text x="1108.0" y="531.0" text-anchor="end" fill="#e8731a" transform="rotate(-50 1108.0 531.0)">07-16</text>
<polygon points="68.0,512.4 137.3,512.4 206.7,512.4 276.0,512.4 345.3,512.4 414.7,512.4 484.0,512.2 553.3,512.7 622.7,512.8 692.0,512.8 761.3,512.8 830.7,512.6 900.0,512.8 969.3,513.1 1038.7,513.0 1108.0,512.8 1108.0,516.0 1038.7,516.0 969.3,516.0 900.0,516.0 830.7,516.0 761.3,516.0 692.0,516.0 622.7,516.0 553.3,516.0 484.0,516.0 414.7,516.0 345.3,516.0 276.0,516.0 206.7,516.0 137.3,516.0 68.0,516.0" fill="#c7e9c0" fill-opacity="0.9" stroke="#fff" stroke-width="0.4"><title>resource_aggregate — parseTranslationUnit</title></polygon>
<polygon points="68.0,429.2 137.3,429.8 206.7,430.3 276.0,428.3 345.3,430.5 414.7,431.0 484.0,430.3 553.3,434.6 622.7,437.7 692.0,436.0 761.3,436.6 830.7,435.5 900.0,435.7 969.3,440.6 1038.7,441.5 1108.0,425.7 1108.0,512.8 1038.7,513.0 969.3,513.1 900.0,512.8 830.7,512.6 761.3,512.8 692.0,512.8 622.7,512.8 553.3,512.7 484.0,512.2 414.7,512.4 345.3,512.4 276.0,512.4 206.7,512.4 137.3,512.4 68.0,512.4" fill="#41ab5d" fill-opacity="0.9" stroke="#fff" stroke-width="0.4"><title>resource_aggregate — SemanticChecking</title></polygon>
<polygon points="68.0,391.4 137.3,390.9 206.7,392.8 276.0,390.0 345.3,391.4 414.7,392.3 484.0,391.2 553.3,395.8 622.7,398.3 692.0,396.7 761.3,400.1 830.7,398.5 900.0,398.9 969.3,406.1 1038.7,406.8 1108.0,392.4 1108.0,425.7 1038.7,441.5 969.3,440.6 900.0,435.7 830.7,435.5 761.3,436.6 692.0,436.0 622.7,437.7 553.3,434.6 484.0,430.3 414.7,431.0 345.3,430.5 276.0,428.3 206.7,430.3 137.3,429.8 68.0,429.2" fill="#006d2c" fill-opacity="0.9" stroke="#fff" stroke-width="0.4"><title>resource_aggregate — generateIR</title></polygon>
<polygon points="68.0,381.3 137.3,380.0 206.7,381.8 276.0,378.1 345.3,380.6 414.7,381.4 484.0,380.0 553.3,385.4 622.7,385.9 692.0,385.2 761.3,388.5 830.7,386.6 900.0,388.4 969.3,397.3 1038.7,397.3 1108.0,382.5 1108.0,392.4 1038.7,406.8 969.3,406.1 900.0,398.9 830.7,398.5 761.3,400.1 692.0,396.7 622.7,398.3 553.3,395.8 484.0,391.2 414.7,392.3 345.3,391.4 276.0,390.0 206.7,392.8 137.3,390.9 68.0,391.4" fill="#74c476" fill-opacity="0.9" stroke="#fff" stroke-width="0.4"><title>resource_aggregate — frontEndExecute (self)</title></polygon>
<polygon points="68.0,326.0 137.3,322.3 206.7,326.2 276.0,322.1 345.3,324.7 414.7,325.2 484.0,324.8 553.3,344.8 622.7,344.9 692.0,345.1 761.3,353.0 830.7,350.6 900.0,353.4 969.3,367.9 1038.7,367.7 1108.0,352.9 1108.0,382.5 1038.7,397.3 969.3,397.3 900.0,388.4 830.7,386.6 761.3,388.5 692.0,385.2 622.7,385.9 553.3,385.4 484.0,380.0 414.7,381.4 345.3,380.6 276.0,378.1 206.7,381.8 137.3,380.0 68.0,381.3" fill="#6baed6" fill-opacity="0.9" stroke="#fff" stroke-width="0.4"><title>resource_aggregate — specializeModule</title></polygon>
<polygon points="68.0,290.9 137.3,286.6 206.7,291.1 276.0,285.9 345.3,289.2 414.7,289.8 484.0,289.2 553.3,319.6 622.7,320.0 692.0,320.0 761.3,334.7 830.7,332.4 900.0,335.5 969.3,349.8 1038.7,349.5 1108.0,334.8 1108.0,352.9 1038.7,367.7 969.3,367.9 900.0,353.4 830.7,350.6 761.3,353.0 692.0,345.1 622.7,344.9 553.3,344.8 484.0,324.8 414.7,325.2 345.3,324.7 276.0,322.1 206.7,326.2 137.3,322.3 68.0,326.0" fill="#2171b5" fill-opacity="0.9" stroke="#fff" stroke-width="0.4"><title>resource_aggregate — simplifyIR</title></polygon>
<polygon points="68.0,281.5 137.3,277.1 206.7,281.6 276.0,276.3 345.3,279.8 414.7,280.2 484.0,279.8 553.3,313.9 622.7,314.1 692.0,313.9 761.3,328.7 830.7,326.5 900.0,329.7 969.3,344.6 1038.7,344.5 1108.0,329.8 1108.0,334.8 1038.7,349.5 969.3,349.8 900.0,335.5 830.7,332.4 761.3,334.7 692.0,320.0 622.7,320.0 553.3,319.6 484.0,289.2 414.7,289.8 345.3,289.2 276.0,285.9 206.7,291.1 137.3,286.6 68.0,290.9" fill="#08306b" fill-opacity="0.9" stroke="#fff" stroke-width="0.4"><title>resource_aggregate — linkIR</title></polygon>
<polygon points="68.0,281.4 137.3,277.0 206.7,281.5 276.0,276.2 345.3,279.7 414.7,280.0 484.0,279.7 553.3,313.8 622.7,314.0 692.0,313.9 761.3,328.7 830.7,326.4 900.0,329.7 969.3,344.5 1038.7,344.4 1108.0,329.7 1108.0,329.8 1038.7,344.5 969.3,344.6 900.0,329.7 830.7,326.5 761.3,328.7 692.0,313.9 622.7,314.1 553.3,313.9 484.0,279.8 414.7,280.2 345.3,279.8 276.0,276.3 206.7,281.6 137.3,277.1 68.0,281.5" fill="#9e9ac8" fill-opacity="0.9" stroke="#fff" stroke-width="0.4"><title>resource_aggregate — unrollLoopsInModule</title></polygon>
<polygon points="68.0,261.9 137.3,256.4 206.7,261.4 276.0,256.1 345.3,260.2 414.7,259.9 484.0,259.8 553.3,294.1 622.7,295.0 692.0,294.2 761.3,320.3 830.7,317.9 900.0,321.4 969.3,336.1 1038.7,336.0 1108.0,321.4 1108.0,329.7 1038.7,344.4 969.3,344.5 900.0,329.7 830.7,326.4 761.3,328.7 692.0,313.9 622.7,314.0 553.3,313.8 484.0,279.7 414.7,280.0 345.3,279.7 276.0,276.2 206.7,281.5 137.3,277.0 68.0,281.4" fill="#807dba" fill-opacity="0.9" stroke="#fff" stroke-width="0.4"><title>resource_aggregate — legalizeResourceTypes</title></polygon>
<polygon points="68.0,250.0 137.3,244.2 206.7,249.1 276.0,244.0 345.3,248.3 414.7,248.1 484.0,248.0 553.3,281.8 622.7,283.0 692.0,282.2 761.3,316.1 830.7,313.8 900.0,317.6 969.3,331.6 1038.7,331.6 1108.0,316.7 1108.0,321.4 1038.7,336.0 969.3,336.1 900.0,321.4 830.7,317.9 761.3,320.3 692.0,294.2 622.7,295.0 553.3,294.1 484.0,259.8 414.7,259.9 345.3,260.2 276.0,256.1 206.7,261.4 137.3,256.4 68.0,261.9" fill="#6a51a3" fill-opacity="0.9" stroke="#fff" stroke-width="0.4"><title>resource_aggregate — legalizeExistentialTypeLayout</title></polygon>
<polygon points="68.0,247.9 137.3,242.1 206.7,247.1 276.0,242.0 345.3,246.2 414.7,246.0 484.0,246.0 553.3,279.8 622.7,280.9 692.0,280.2 761.3,314.1 830.7,311.8 900.0,315.6 969.3,329.8 1038.7,329.7 1108.0,314.9 1108.0,316.7 1038.7,331.6 969.3,331.6 900.0,317.6 830.7,313.8 761.3,316.1 692.0,282.2 622.7,283.0 553.3,281.8 484.0,248.0 414.7,248.1 345.3,248.3 276.0,244.0 206.7,249.1 137.3,244.2 68.0,250.0" fill="#bcbddc" fill-opacity="0.9" stroke="#fff" stroke-width="0.4"><title>resource_aggregate — performMandatoryEarlyInlining</title></polygon>
<polygon points="68.0,245.7 137.3,239.7 206.7,244.6 276.0,239.4 345.3,244.0 414.7,243.6 484.0,243.8 553.3,277.6 622.7,278.7 692.0,277.9 761.3,311.9 830.7,309.5 900.0,313.4 969.3,327.8 1038.7,327.7 1108.0,312.8 1108.0,314.9 1038.7,329.7 969.3,329.8 900.0,315.6 830.7,311.8 761.3,314.1 692.0,280.2 622.7,280.9 553.3,279.8 484.0,246.0 414.7,246.0 345.3,246.2 276.0,242.0 206.7,247.1 137.3,242.1 68.0,247.9" fill="#dadaeb" fill-opacity="0.9" stroke="#fff" stroke-width="0.4"><title>resource_aggregate — performForceInlining</title></polygon>
<polygon points="68.0,197.1 137.3,189.0 206.7,195.5 276.0,189.5 345.3,191.3 414.7,193.5 484.0,192.4 553.3,235.3 622.7,236.4 692.0,235.8 761.3,282.4 830.7,279.7 900.0,284.7 969.3,304.1 1038.7,304.5 1108.0,288.5 1108.0,312.8 1038.7,327.7 969.3,327.8 900.0,313.4 830.7,309.5 761.3,311.9 692.0,277.9 622.7,278.7 553.3,277.6 484.0,243.8 414.7,243.6 345.3,244.0 276.0,239.4 206.7,244.6 137.3,239.7 68.0,245.7" fill="#4a1486" fill-opacity="0.9" stroke="#fff" stroke-width="0.4"><title>resource_aggregate — linkAndOptimizeIR (self)</title></polygon>
<polygon points="68.0,126.1 137.3,120.3 206.7,126.1 276.0,120.1 345.3,121.6 414.7,124.4 484.0,117.9 553.3,166.7 622.7,168.5 692.0,166.0 761.3,225.6 830.7,221.4 900.0,227.9 969.3,248.2 1038.7,248.2 1108.0,233.8 1108.0,288.5 1038.7,304.5 969.3,304.1 900.0,284.7 830.7,279.7 761.3,282.4 692.0,235.8 622.7,236.4 553.3,235.3 484.0,192.4 414.7,193.5 345.3,191.3 276.0,189.5 206.7,195.5 137.3,189.0 68.0,197.1" fill="#e6550d" fill-opacity="0.9" stroke="#fff" stroke-width="0.4"><title>resource_aggregate — generateOutput (self)</title></polygon>
<polygon points="68.0,112.5 137.3,108.6 206.7,115.9 276.0,111.1 345.3,110.1 414.7,113.9 484.0,108.9 553.3,153.7 622.7,158.2 692.0,156.1 761.3,215.4 830.7,210.7 900.0,218.4 969.3,238.5 1038.7,239.0 1108.0,221.6 1108.0,233.8 1038.7,248.2 969.3,248.2 900.0,227.9 830.7,221.4 761.3,225.6 692.0,166.0 622.7,168.5 553.3,166.7 484.0,117.9 414.7,124.4 345.3,121.6 276.0,120.1 206.7,126.1 137.3,120.3 68.0,126.1" fill="#969696" fill-opacity="0.9" stroke="#fff" stroke-width="0.4"><title>resource_aggregate — compileInner (self)</title></polygon>
<text x="12" y="578" fill="#666" font-weight="600">phase buckets</text>
<rect x="12" y="586" width="12" height="12" fill="#c7e9c0"/>
<text x="28" y="596" fill="#222">parseTranslationUnit</text>
<rect x="289" y="586" width="12" height="12" fill="#41ab5d"/>
<text x="305" y="596" fill="#222">SemanticChecking</text>
<rect x="566" y="586" width="12" height="12" fill="#006d2c"/>
<text x="582" y="596" fill="#222">generateIR</text>
<rect x="843" y="586" width="12" height="12" fill="#74c476"/>
<text x="859" y="596" fill="#222">frontEndExecute (self)</text>
<rect x="12" y="604" width="12" height="12" fill="#6baed6"/>
<text x="28" y="614" fill="#222">specializeModule</text>
<rect x="289" y="604" width="12" height="12" fill="#2171b5"/>
<text x="305" y="614" fill="#222">simplifyIR</text>
<rect x="566" y="604" width="12" height="12" fill="#08306b"/>
<text x="582" y="614" fill="#222">linkIR</text>
<rect x="843" y="604" width="12" height="12" fill="#9e9ac8"/>
<text x="859" y="614" fill="#222">unrollLoopsInModule</text>
<rect x="12" y="622" width="12" height="12" fill="#807dba"/>
<text x="28" y="632" fill="#222">legalizeResourceTypes</text>
<rect x="289" y="622" width="12" height="12" fill="#6a51a3"/>
<text x="305" y="632" fill="#222">legalizeExistentialTypeLayout</text>
<rect x="566" y="622" width="12" height="12" fill="#bcbddc"/>
<text x="582" y="632" fill="#222">performMandatoryEarlyInlining</text>
<rect x="843" y="622" width="12" height="12" fill="#dadaeb"/>
<text x="859" y="632" fill="#222">performForceInlining</text>
<rect x="12" y="640" width="12" height="12" fill="#4a1486"/>
<text x="28" y="650" fill="#222">linkAndOptimizeIR (self)</text>
<rect x="289" y="640" width="12" height="12" fill="#fd8d3c"/>
<text x="305" y="650" fill="#222">emitEntryPointsSourceFromIR</text>
<rect x="566" y="640" width="12" height="12" fill="#e6550d"/>
<text x="582" y="650" fill="#222">generateOutput (self)</text>
<rect x="843" y="640" width="12" height="12" fill="#969696"/>
<text x="859" y="650" fill="#222">compileInner (self)</text>
</svg>