<svg xmlns="http://www.w3.org/2000/svg" xmlns:xlink="http://www.w3.org/1999/xlink" width="1132" height="680" viewBox="0 0 1132 680" preserveAspectRatio="xMidYMid meet" font-family="sans-serif" font-size="13">
<rect width="1132" height="680" fill="white"/>
<text x="12" y="30" font-size="20" font-weight="bold">resource_aggregate — full phase breakdown across releases (median ms)</text>
<text x="68" y="60" font-size="15" font-weight="600" fill="#1a1a1a">resource_aggregate<tspan fill="#888" font-weight="400" text-decoration="none">  1.15×</tspan></text>
<line x1="68.0" y1="516.0" x2="1108.0" y2="516.0" stroke="#eee"/>
<text x="64.0" y="519.0" text-anchor="end" fill="#999">0.0</text>
<line x1="68.0" y1="296.0" x2="1108.0" y2="296.0" stroke="#eee"/>
<text x="64.0" y="299.0" text-anchor="end" fill="#999">59</text>
<line x1="68.0" y1="76.0" x2="1108.0" y2="76.0" stroke="#eee"/>
<text x="64.0" y="79.0" text-anchor="end" fill="#999">119</text>
<line x1="68.0" y1="76.0" x2="68.0" y2="516.0" stroke="#333"/>
<line x1="68.0" y1="516.0" x2="1108.0" y2="516.0" stroke="#333"/>
<line x1="68.0" y1="516.0" x2="68.0" y2="519.0" stroke="#999"/>
<text x="68.0" y="531.0" text-anchor="end" fill="#666" transform="rotate(-50 68.0 531.0)">25.14</text>
<line x1="120.0" y1="516.0" x2="120.0" y2="519.0" stroke="#999"/>
<text x="120.0" y="531.0" text-anchor="end" fill="#666" transform="rotate(-50 120.0 531.0)">25.15</text>
<line x1="172.0" y1="516.0" x2="172.0" y2="519.0" stroke="#999"/>
<text x="172.0" y="531.0" text-anchor="end" fill="#666" transform="rotate(-50 172.0 531.0)">25.16</text>
<line x1="224.0" y1="516.0" x2="224.0" y2="519.0" stroke="#999"/>
<text x="224.0" y="531.0" text-anchor="end" fill="#666" transform="rotate(-50 224.0 531.0)">25.17</text>
<line x1="276.0" y1="516.0" x2="276.0" y2="519.0" stroke="#999"/>
<text x="276.0" y="531.0" text-anchor="end" fill="#666" transform="rotate(-50 276.0 531.0)">25.18</text>
<line x1="328.0" y1="516.0" x2="328.0" y2="519.0" stroke="#999"/>
<text x="328.0" y="531.0" text-anchor="end" fill="#666" transform="rotate(-50 328.0 531.0)">25.19</text>
<line x1="380.0" y1="516.0" x2="380.0" y2="519.0" stroke="#999"/>
<text x="380.0" y="531.0" text-anchor="end" fill="#666" transform="rotate(-50 380.0 531.0)">25.20</text>
<line x1="432.0" y1="516.0" x2="432.0" y2="519.0" stroke="#999"/>
<text x="432.0" y="531.0" text-anchor="end" fill="#666" transform="rotate(-50 432.0 531.0)">25.21</text>
<line x1="484.0" y1="516.0" x2="484.0" y2="519.0" stroke="#999"/>
<text x="484.0" y="531.0" text-anchor="end" fill="#666" transform="rotate(-50 484.0 531.0)">25.22</text>
<line x1="536.0" y1="516.0" x2="536.0" y2="519.0" stroke="#999"/>
<text x="536.0" y="531.0" text-anchor="end" fill="#666" transform="rotate(-50 536.0 531.0)">25.23</text>
<line x1="588.0" y1="516.0" x2="588.0" y2="519.0" stroke="#999"/>
<text x="588.0" y="531.0" text-anchor="end" fill="#666" transform="rotate(-50 588.0 531.0)">25.24</text>
<line x1="640.0" y1="516.0" x2="640.0" y2="519.0" stroke="#999"/>
<text x="640.0" y="531.0" text-anchor="end" fill="#666" transform="rotate(-50 640.0 531.0)">26.1</text>
<line x1="692.0" y1="516.0" x2="692.0" y2="519.0" stroke="#999"/>
<text x="692.0" y="531.0" text-anchor="end" fill="#666" transform="rotate(-50 692.0 531.0)">26.2</text>
<line x1="744.0" y1="516.0" x2="744.0" y2="519.0" stroke="#999"/>
<text x="744.0" y="531.0" text-anchor="end" fill="#666" transform="rotate(-50 744.0 531.0)">26.3</text>
<line x1="796.0" y1="516.0" x2="796.0" y2="519.0" stroke="#999"/>
<text x="796.0" y="531.0" text-anchor="end" fill="#666" transform="rotate(-50 796.0 531.0)">26.4</text>
<line x1="848.0" y1="516.0" x2="848.0" y2="519.0" stroke="#999"/>
<text x="848.0" y="531.0" text-anchor="end" fill="#666" transform="rotate(-50 848.0 531.0)">26.5</text>
<line x1="900.0" y1="516.0" x2="900.0" y2="519.0" stroke="#999"/>
<text x="900.0" y="531.0" text-anchor="end" fill="#666" transform="rotate(-50 900.0 531.0)">26.7</text>
<line x1="952.0" y1="516.0" x2="952.0" y2="519.0" stroke="#999"/>
<text x="952.0" y="531.0" text-anchor="end" fill="#666" transform="rotate(-50 952.0 531.0)">26.8</text>
<line x1="1004.0" y1="516.0" x2="1004.0" y2="519.0" stroke="#999"/>
<text x="1004.0" y="531.0" text-anchor="end" fill="#666" transform="rotate(-50 1004.0 531.0)">26.9</text>
<line x1="1056.0" y1="516.0" x2="1056.0" y2="519.0" stroke="#999"/>
<text x="1056.0" y="531.0" text-anchor="end" fill="#666" transform="rotate(-50 1056.0 531.0)">26.10</text>
<line x1="1108.0" y1="516.0" x2="1108.0" y2="519.0" stroke="#999"/>
<text x="1108.0" y="531.0" text-anchor="end" fill="#666" transform="rotate(-50 1108.0 531.0)">26.11</text>
<polygon points="68.0,513.7 120.0,514.1 172.0,514.2 224.0,514.2 276.0,514.1 328.0,514.1 380.0,514.1 432.0,514.1 484.0,514.1 536.0,514.1 588.0,514.0 640.0,514.1 692.0,514.1 744.0,514.1 796.0,514.1 848.0,514.1 900.0,513.9 952.0,513.9 1004.0,513.9 1056.0,513.8 1108.0,513.9 1108.0,516.0 1056.0,516.0 1004.0,516.0 952.0,516.0 900.0,516.0 848.0,516.0 796.0,516.0 744.0,516.0 692.0,516.0 640.0,516.0 588.0,516.0 536.0,516.0 484.0,516.0 432.0,516.0 380.0,516.0 328.0,516.0 276.0,516.0 224.0,516.0 172.0,516.0 120.0,516.0 68.0,516.0" fill="#c7e9c0" fill-opacity="0.9" stroke="#fff" stroke-width="0.4"><title>resource_aggregate — parseTranslationUnit</title></polygon>
<polygon points="68.0,456.1 120.0,394.4 172.0,393.3 224.0,386.5 276.0,390.1 328.0,389.4 380.0,388.9 432.0,390.8 484.0,431.9 536.0,430.4 588.0,431.4 640.0,430.3 692.0,424.5 744.0,423.9 796.0,421.6 848.0,421.2 900.0,396.9 952.0,396.2 1004.0,395.8 1056.0,390.0 1108.0,465.0 1108.0,513.9 1056.0,513.8 1004.0,513.9 952.0,513.9 900.0,513.9 848.0,514.1 796.0,514.1 744.0,514.1 692.0,514.1 640.0,514.1 588.0,514.0 536.0,514.1 484.0,514.1 432.0,514.1 380.0,514.1 328.0,514.1 276.0,514.1 224.0,514.2 172.0,514.2 120.0,514.1 68.0,513.7" fill="#41ab5d" fill-opacity="0.9" stroke="#fff" stroke-width="0.4"><title>resource_aggregate — SemanticChecking</title></polygon>
<polygon points="68.0,434.3 120.0,372.7 172.0,371.4 224.0,363.6 276.0,367.8 328.0,367.1 380.0,366.5 432.0,368.4 484.0,409.9 536.0,410.0 588.0,411.0 640.0,409.2 692.0,403.3 744.0,402.5 796.0,399.8 848.0,399.6 900.0,348.4 952.0,347.7 1004.0,347.2 1056.0,341.3 1108.0,443.0 1108.0,465.0 1056.0,390.0 1004.0,395.8 952.0,396.2 900.0,396.9 848.0,421.2 796.0,421.6 744.0,423.9 692.0,424.5 640.0,430.3 588.0,431.4 536.0,430.4 484.0,431.9 432.0,390.8 380.0,388.9 328.0,389.4 276.0,390.1 224.0,386.5 172.0,393.3 120.0,394.4 68.0,456.1" fill="#006d2c" fill-opacity="0.9" stroke="#fff" stroke-width="0.4"><title>resource_aggregate — generateIR</title></polygon>
<polygon points="68.0,428.8 120.0,366.7 172.0,365.7 224.0,358.3 276.0,361.8 328.0,361.0 380.0,360.4 432.0,362.1 484.0,404.0 536.0,403.9 588.0,405.2 640.0,402.2 692.0,396.9 744.0,395.9 796.0,393.2 848.0,392.9 900.0,341.6 952.0,341.9 1004.0,339.9 1056.0,334.7 1108.0,436.0 1108.0,443.0 1056.0,341.3 1004.0,347.2 952.0,347.7 900.0,348.4 848.0,399.6 796.0,399.8 744.0,402.5 692.0,403.3 640.0,409.2 588.0,411.0 536.0,410.0 484.0,409.9 432.0,368.4 380.0,366.5 328.0,367.1 276.0,367.8 224.0,363.6 172.0,371.4 120.0,372.7 68.0,434.3" fill="#74c476" fill-opacity="0.9" stroke="#fff" stroke-width="0.4"><title>resource_aggregate — frontEndExecute (self)</title></polygon>
<polygon points="68.0,424.3 120.0,362.4 172.0,361.3 224.0,353.8 276.0,357.4 328.0,356.3 380.0,355.7 432.0,357.2 484.0,399.2 536.0,399.0 588.0,395.9 640.0,392.8 692.0,386.9 744.0,386.2 796.0,383.1 848.0,382.6 900.0,303.7 952.0,305.0 1004.0,302.4 1056.0,297.4 1108.0,403.0 1108.0,436.0 1056.0,334.7 1004.0,339.9 952.0,341.9 900.0,341.6 848.0,392.9 796.0,393.2 744.0,395.9 692.0,396.9 640.0,402.2 588.0,405.2 536.0,403.9 484.0,404.0 432.0,362.1 380.0,360.4 328.0,361.0 276.0,361.8 224.0,358.3 172.0,365.7 120.0,366.7 68.0,428.8" fill="#6baed6" fill-opacity="0.9" stroke="#fff" stroke-width="0.4"><title>resource_aggregate — specializeModule</title></polygon>
<polygon points="68.0,412.6 120.0,350.9 172.0,349.7 224.0,342.1 276.0,345.8 328.0,344.7 380.0,343.6 432.0,345.2 484.0,387.0 536.0,387.0 588.0,385.0 640.0,381.8 692.0,375.4 744.0,374.5 796.0,370.9 848.0,370.7 900.0,276.9 952.0,278.5 1004.0,275.6 1056.0,270.9 1108.0,379.4 1108.0,403.0 1056.0,297.4 1004.0,302.4 952.0,305.0 900.0,303.7 848.0,382.6 796.0,383.1 744.0,386.2 692.0,386.9 640.0,392.8 588.0,395.9 536.0,399.0 484.0,399.2 432.0,357.2 380.0,355.7 328.0,356.3 276.0,357.4 224.0,353.8 172.0,361.3 120.0,362.4 68.0,424.3" fill="#2171b5" fill-opacity="0.9" stroke="#fff" stroke-width="0.4"><title>resource_aggregate — simplifyIR</title></polygon>
<polygon points="68.0,407.2 120.0,346.5 172.0,345.3 224.0,337.4 276.0,341.1 328.0,340.0 380.0,338.8 432.0,340.3 484.0,382.5 536.0,382.4 588.0,380.4 640.0,377.2 692.0,370.5 744.0,369.8 796.0,365.7 848.0,365.7 900.0,236.1 952.0,237.9 1004.0,233.9 1056.0,228.6 1108.0,373.8 1108.0,379.4 1056.0,270.9 1004.0,275.6 952.0,278.5 900.0,276.9 848.0,370.7 796.0,370.9 744.0,374.5 692.0,375.4 640.0,381.8 588.0,385.0 536.0,387.0 484.0,387.0 432.0,345.2 380.0,343.6 328.0,344.7 276.0,345.8 224.0,342.1 172.0,349.7 120.0,350.9 68.0,412.6" fill="#08306b" fill-opacity="0.9" stroke="#fff" stroke-width="0.4"><title>resource_aggregate — linkIR</title></polygon>
<polygon points="68.0,407.1 120.0,346.4 172.0,345.3 224.0,337.4 276.0,341.1 328.0,340.0 380.0,338.7 432.0,340.2 484.0,382.5 536.0,382.4 588.0,380.4 640.0,377.1 692.0,370.5 744.0,369.8 796.0,365.6 848.0,365.7 900.0,236.0 952.0,237.9 1004.0,233.8 1056.0,228.6 1108.0,373.7 1108.0,373.8 1056.0,228.6 1004.0,233.9 952.0,237.9 900.0,236.1 848.0,365.7 796.0,365.7 744.0,369.8 692.0,370.5 640.0,377.2 588.0,380.4 536.0,382.4 484.0,382.5 432.0,340.3 380.0,338.8 328.0,340.0 276.0,341.1 224.0,337.4 172.0,345.3 120.0,346.5 68.0,407.2" fill="#9e9ac8" fill-opacity="0.9" stroke="#fff" stroke-width="0.4"><title>resource_aggregate — unrollLoopsInModule</title></polygon>
<polygon points="68.0,389.2 120.0,328.7 172.0,327.3 224.0,319.3 276.0,327.3 328.0,326.2 380.0,325.3 432.0,326.7 484.0,368.8 536.0,368.5 588.0,366.6 640.0,363.6 692.0,356.8 744.0,355.6 796.0,351.4 848.0,351.9 900.0,222.2 952.0,223.7 1004.0,219.8 1056.0,214.4 1108.0,361.6 1108.0,373.7 1056.0,228.6 1004.0,233.8 952.0,237.9 900.0,236.0 848.0,365.7 796.0,365.6 744.0,369.8 692.0,370.5 640.0,377.1 588.0,380.4 536.0,382.4 484.0,382.5 432.0,340.2 380.0,338.7 328.0,340.0 276.0,341.1 224.0,337.4 172.0,345.3 120.0,346.4 68.0,407.1" fill="#807dba" fill-opacity="0.9" stroke="#fff" stroke-width="0.4"><title>resource_aggregate — legalizeResourceTypes</title></polygon>
<polygon points="68.0,377.9 120.0,317.3 172.0,315.9 224.0,307.8 276.0,319.9 328.0,318.6 380.0,318.1 432.0,319.3 484.0,361.4 536.0,361.1 588.0,359.1 640.0,356.1 692.0,349.2 744.0,347.9 796.0,343.5 848.0,344.3 900.0,214.2 952.0,215.4 1004.0,211.6 1056.0,206.3 1108.0,354.3 1108.0,361.6 1056.0,214.4 1004.0,219.8 952.0,223.7 900.0,222.2 848.0,351.9 796.0,351.4 744.0,355.6 692.0,356.8 640.0,363.6 588.0,366.6 536.0,368.5 484.0,368.8 432.0,326.7 380.0,325.3 328.0,326.2 276.0,327.3 224.0,319.3 172.0,327.3 120.0,328.7 68.0,389.2" fill="#6a51a3" fill-opacity="0.9" stroke="#fff" stroke-width="0.4"><title>resource_aggregate — legalizeExistentialTypeLayout</title></polygon>
<polygon points="68.0,376.8 120.0,316.2 172.0,314.8 224.0,306.5 276.0,318.7 328.0,317.4 380.0,316.8 432.0,318.2 484.0,360.3 536.0,360.0 588.0,357.9 640.0,355.0 692.0,348.0 744.0,346.7 796.0,342.3 848.0,343.0 900.0,213.0 952.0,214.1 1004.0,210.3 1056.0,205.1 1108.0,353.1 1108.0,354.3 1056.0,206.3 1004.0,211.6 952.0,215.4 900.0,214.2 848.0,344.3 796.0,343.5 744.0,347.9 692.0,349.2 640.0,356.1 588.0,359.1 536.0,361.1 484.0,361.4 432.0,319.3 380.0,318.1 328.0,318.6 276.0,319.9 224.0,307.8 172.0,315.9 120.0,317.3 68.0,377.9" fill="#bcbddc" fill-opacity="0.9" stroke="#fff" stroke-width="0.4"><title>resource_aggregate — performMandatoryEarlyInlining</title></polygon>
<polygon points="68.0,375.4 120.0,314.8 172.0,313.3 224.0,304.9 276.0,317.0 328.0,315.7 380.0,315.2 432.0,316.5 484.0,358.7 536.0,358.3 588.0,356.2 640.0,353.3 692.0,346.2 744.0,345.0 796.0,340.4 848.0,341.2 900.0,211.2 952.0,212.3 1004.0,208.4 1056.0,203.3 1108.0,351.6 1108.0,353.1 1056.0,205.1 1004.0,210.3 952.0,214.1 900.0,213.0 848.0,343.0 796.0,342.3 744.0,346.7 692.0,348.0 640.0,355.0 588.0,357.9 536.0,360.0 484.0,360.3 432.0,318.2 380.0,316.8 328.0,317.4 276.0,318.7 224.0,306.5 172.0,314.8 120.0,316.2 68.0,376.8" fill="#dadaeb" fill-opacity="0.9" stroke="#fff" stroke-width="0.4"><title>resource_aggregate — performForceInlining</title></polygon>
<polygon points="68.0,363.8 120.0,303.3 172.0,301.6 224.0,292.6 276.0,305.5 328.0,303.6 380.0,303.4 432.0,304.7 484.0,346.5 536.0,346.3 588.0,343.3 640.0,340.5 692.0,332.5 744.0,331.4 796.0,324.9 848.0,326.3 900.0,170.6 952.0,171.8 1004.0,168.5 1056.0,163.5 1108.0,323.0 1108.0,351.6 1056.0,203.3 1004.0,208.4 952.0,212.3 900.0,211.2 848.0,341.2 796.0,340.4 744.0,345.0 692.0,346.2 640.0,353.3 588.0,356.2 536.0,358.3 484.0,358.7 432.0,316.5 380.0,315.2 328.0,315.7 276.0,317.0 224.0,304.9 172.0,313.3 120.0,314.8 68.0,375.4" fill="#4a1486" fill-opacity="0.9" stroke="#fff" stroke-width="0.4"><title>resource_aggregate — linkAndOptimizeIR (self)</title></polygon>
<polygon points="68.0,312.6 120.0,251.4 172.0,250.2 224.0,244.9 276.0,263.0 328.0,261.3 380.0,261.8 432.0,262.9 484.0,305.2 536.0,303.8 588.0,301.3 640.0,298.9 692.0,284.9 744.0,285.8 796.0,277.6 848.0,279.2 900.0,123.5 952.0,124.2 1004.0,119.2 1056.0,115.5 1108.0,282.2 1108.0,323.0 1056.0,163.5 1004.0,168.5 952.0,171.8 900.0,170.6 848.0,326.3 796.0,324.9 744.0,331.4 692.0,332.5 640.0,340.5 588.0,343.3 536.0,346.3 484.0,346.5 432.0,304.7 380.0,303.4 328.0,303.6 276.0,305.5 224.0,292.6 172.0,301.6 120.0,303.3 68.0,363.8" fill="#e6550d" fill-opacity="0.9" stroke="#fff" stroke-width="0.4"><title>resource_aggregate — generateOutput (self)</title></polygon>
<polygon points="68.0,307.7 120.0,246.9 172.0,245.5 224.0,238.7 276.0,257.5 328.0,256.3 380.0,254.7 432.0,257.3 484.0,296.4 536.0,298.8 588.0,295.4 640.0,293.5 692.0,279.0 744.0,278.3 796.0,271.0 848.0,274.5 900.0,116.7 952.0,117.6 1004.0,115.6 1056.0,108.6 1108.0,276.5 1108.0,282.2 1056.0,115.5 1004.0,119.2 952.0,124.2 900.0,123.5 848.0,279.2 796.0,277.6 744.0,285.8 692.0,284.9 640.0,298.9 588.0,301.3 536.0,303.8 484.0,305.2 432.0,262.9 380.0,261.8 328.0,261.3 276.0,263.0 224.0,244.9 172.0,250.2 120.0,251.4 68.0,312.6" fill="#969696" fill-opacity="0.9" stroke="#fff" stroke-width="0.4"><title>resource_aggregate — compileInner (self)</title></polygon>
<text x="12" y="578" fill="#666" font-weight="600">phase buckets</text>
<rect x="12" y="586" width="12" height="12" fill="#c7e9c0"/>
<text x="28" y="596" fill="#222">parseTranslationUnit</text>
<rect x="289" y="586" width="12" height="12" fill="#41ab5d"/>
<text x="305" y="596" fill="#222">SemanticChecking</text>
<rect x="566" y="586" width="12" height="12" fill="#006d2c"/>
<text x="582" y="596" fill="#222">generateIR</text>
<rect x="843" y="586" width="12" height="12" fill="#74c476"/>
<text x="859" y="596" fill="#222">frontEndExecute (self)</text>
<rect x="12" y="604" width="12" height="12" fill="#6baed6"/>
<text x="28" y="614" fill="#222">specializeModule</text>
<rect x="289" y="604" width="12" height="12" fill="#2171b5"/>
<text x="305" y="614" fill="#222">simplifyIR</text>
<rect x="566" y="604" width="12" height="12" fill="#08306b"/>
<text x="582" y="614" fill="#222">linkIR</text>
<rect x="843" y="604" width="12" height="12" fill="#9e9ac8"/>
<text x="859" y="614" fill="#222">unrollLoopsInModule</text>
<rect x="12" y="622" width="12" height="12" fill="#807dba"/>
<text x="28" y="632" fill="#222">legalizeResourceTypes</text>
<rect x="289" y="622" width="12" height="12" fill="#6a51a3"/>
<text x="305" y="632" fill="#222">legalizeExistentialTypeLayout</text>
<rect x="566" y="622" width="12" height="12" fill="#bcbddc"/>
<text x="582" y="632" fill="#222">performMandatoryEarlyInlining</text>
<rect x="843" y="622" width="12" height="12" fill="#dadaeb"/>
<text x="859" y="632" fill="#222">performForceInlining</text>
<rect x="12" y="640" width="12" height="12" fill="#4a1486"/>
<text x="28" y="650" fill="#222">linkAndOptimizeIR (self)</text>
<rect x="289" y="640" width="12" height="12" fill="#fd8d3c"/>
<text x="305" y="650" fill="#222">emitEntryPointsSourceFromIR</text>
<rect x="566" y="640" width="12" height="12" fill="#e6550d"/>
<text x="582" y="650" fill="#222">generateOutput (self)</text>
<rect x="843" y="640" width="12" height="12" fill="#969696"/>
<text x="859" y="650" fill="#222">compileInner (self)</text>
</svg>