<svg xmlns="http://www.w3.org/2000/svg" xmlns:xlink="http://www.w3.org/1999/xlink" width="1132" height="680" viewBox="0 0 1132 680" preserveAspectRatio="xMidYMid meet" font-family="sans-serif" font-size="13">
<rect width="1132" height="680" fill="white"/>
<text x="12" y="30" font-size="20" font-weight="bold">resource_aggregate — Across releases (median ms)</text>
<text x="68" y="60" font-size="15" font-weight="600" fill="#1a1a1a">resource_aggregate<tspan fill="#888" font-weight="400" text-decoration="none">  0.78×</tspan></text>
<line x1="68.0" y1="516.0" x2="1108.0" y2="516.0" stroke="#eee"/>
<text x="64.0" y="519.0" text-anchor="end" fill="#999">0.0</text>
<line x1="68.0" y1="296.0" x2="1108.0" y2="296.0" stroke="#eee"/>
<text x="64.0" y="299.0" text-anchor="end" fill="#999">85</text>
<line x1="68.0" y1="76.0" x2="1108.0" y2="76.0" stroke="#eee"/>
<text x="64.0" y="79.0" text-anchor="end" fill="#999">170</text>
<line x1="68.0" y1="76.0" x2="68.0" y2="516.0" stroke="#333"/>
<line x1="68.0" y1="516.0" x2="1108.0" y2="516.0" stroke="#333"/>
<line x1="68.0" y1="516.0" x2="68.0" y2="519.0" stroke="#999"/>
<text x="68.0" y="531.0" text-anchor="end" fill="#666" transform="rotate(-50 68.0 531.0)">25.12</text>
<line x1="108.0" y1="516.0" x2="108.0" y2="519.0" stroke="#999"/>
<text x="108.0" y="531.0" text-anchor="end" fill="#666" transform="rotate(-50 108.0 531.0)">25.13</text>
<line x1="148.0" y1="516.0" x2="148.0" y2="519.0" stroke="#999"/>
<text x="148.0" y="531.0" text-anchor="end" fill="#666" transform="rotate(-50 148.0 531.0)">25.14</text>
<line x1="188.0" y1="516.0" x2="188.0" y2="519.0" stroke="#999"/>
<text x="188.0" y="531.0" text-anchor="end" fill="#666" transform="rotate(-50 188.0 531.0)">25.15</text>
<line x1="228.0" y1="516.0" x2="228.0" y2="519.0" stroke="#999"/>
<text x="228.0" y="531.0" text-anchor="end" fill="#666" transform="rotate(-50 228.0 531.0)">25.16</text>
<line x1="268.0" y1="516.0" x2="268.0" y2="519.0" stroke="#999"/>
<text x="268.0" y="531.0" text-anchor="end" fill="#666" transform="rotate(-50 268.0 531.0)">25.17</text>
<line x1="308.0" y1="516.0" x2="308.0" y2="519.0" stroke="#999"/>
<text x="308.0" y="531.0" text-anchor="end" fill="#666" transform="rotate(-50 308.0 531.0)">25.18</text>
<line x1="348.0" y1="516.0" x2="348.0" y2="519.0" stroke="#999"/>
<text x="348.0" y="531.0" text-anchor="end" fill="#666" transform="rotate(-50 348.0 531.0)">25.19</text>
<line x1="388.0" y1="516.0" x2="388.0" y2="519.0" stroke="#999"/>
<text x="388.0" y="531.0" text-anchor="end" fill="#666" transform="rotate(-50 388.0 531.0)">25.20</text>
<line x1="428.0" y1="516.0" x2="428.0" y2="519.0" stroke="#999"/>
<text x="428.0" y="531.0" text-anchor="end" fill="#666" transform="rotate(-50 428.0 531.0)">25.21</text>
<line x1="468.0" y1="516.0" x2="468.0" y2="519.0" stroke="#999"/>
<text x="468.0" y="531.0" text-anchor="end" fill="#666" transform="rotate(-50 468.0 531.0)">25.22</text>
<line x1="508.0" y1="516.0" x2="508.0" y2="519.0" stroke="#999"/>
<text x="508.0" y="531.0" text-anchor="end" fill="#666" transform="rotate(-50 508.0 531.0)">25.23</text>
<line x1="548.0" y1="516.0" x2="548.0" y2="519.0" stroke="#999"/>
<text x="548.0" y="531.0" text-anchor="end" fill="#666" transform="rotate(-50 548.0 531.0)">25.24</text>
<line x1="588.0" y1="516.0" x2="588.0" y2="519.0" stroke="#999"/>
<text x="588.0" y="531.0" text-anchor="end" fill="#666" transform="rotate(-50 588.0 531.0)">26.1</text>
<line x1="628.0" y1="516.0" x2="628.0" y2="519.0" stroke="#999"/>
<text x="628.0" y="531.0" text-anchor="end" fill="#666" transform="rotate(-50 628.0 531.0)">26.2</text>
<line x1="668.0" y1="516.0" x2="668.0" y2="519.0" stroke="#999"/>
<text x="668.0" y="531.0" text-anchor="end" fill="#666" transform="rotate(-50 668.0 531.0)">26.3</text>
<line x1="708.0" y1="516.0" x2="708.0" y2="519.0" stroke="#999"/>
<text x="708.0" y="531.0" text-anchor="end" fill="#666" transform="rotate(-50 708.0 531.0)">26.4</text>
<line x1="748.0" y1="516.0" x2="748.0" y2="519.0" stroke="#999"/>
<text x="748.0" y="531.0" text-anchor="end" fill="#666" transform="rotate(-50 748.0 531.0)">26.5</text>
<line x1="788.0" y1="516.0" x2="788.0" y2="519.0" stroke="#999"/>
<text x="788.0" y="531.0" text-anchor="end" fill="#666" transform="rotate(-50 788.0 531.0)">26.7</text>
<line x1="828.0" y1="516.0" x2="828.0" y2="519.0" stroke="#999"/>
<text x="828.0" y="531.0" text-anchor="end" fill="#666" transform="rotate(-50 828.0 531.0)">26.8</text>
<line x1="868.0" y1="516.0" x2="868.0" y2="519.0" stroke="#999"/>
<text x="868.0" y="531.0" text-anchor="end" fill="#666" transform="rotate(-50 868.0 531.0)">26.9</text>
<line x1="908.0" y1="516.0" x2="908.0" y2="519.0" stroke="#999"/>
<text x="908.0" y="531.0" text-anchor="end" fill="#666" transform="rotate(-50 908.0 531.0)">26.10</text>
<line x1="948.0" y1="516.0" x2="948.0" y2="519.0" stroke="#999"/>
<text x="948.0" y="531.0" text-anchor="end" fill="#666" transform="rotate(-50 948.0 531.0)">26.11</text>
<line x1="988.0" y1="516.0" x2="988.0" y2="519.0" stroke="#999"/>
<text x="988.0" y="531.0" text-anchor="end" fill="#666" transform="rotate(-50 988.0 531.0)">26.12</text>
<line x1="1028.0" y1="516.0" x2="1028.0" y2="519.0" stroke="#999"/>
<text x="1028.0" y="531.0" text-anchor="end" fill="#666" transform="rotate(-50 1028.0 531.0)">26.13</text>
<line x1="1068.0" y1="516.0" x2="1068.0" y2="519.0" stroke="#999"/>
<text x="1068.0" y="531.0" text-anchor="end" fill="#666" transform="rotate(-50 1068.0 531.0)">26.13.1</text>
<line x1="1108.0" y1="516.0" x2="1108.0" y2="519.0" stroke="#999"/>
<text x="1108.0" y="531.0" text-anchor="end" fill="#666" transform="rotate(-50 1108.0 531.0)">26.14</text>
<polygon points="68.0,516.0 108.0,512.7 148.0,514.3 188.0,514.6 228.0,514.7 268.0,514.7 308.0,514.7 348.0,514.7 388.0,514.7 428.0,514.7 468.0,514.7 508.0,514.6 548.0,514.6 588.0,514.7 628.0,514.6 668.0,514.6 708.0,514.6 748.0,514.6 788.0,514.5 828.0,514.5 868.0,514.5 908.0,514.1 948.0,514.4 988.0,514.5 1028.0,514.5 1068.0,514.5 1108.0,514.8 1108.0,516.0 1068.0,516.0 1028.0,516.0 988.0,516.0 948.0,516.0 908.0,516.0 868.0,516.0 828.0,516.0 788.0,516.0 748.0,516.0 708.0,516.0 668.0,516.0 628.0,516.0 588.0,516.0 548.0,516.0 508.0,516.0 468.0,516.0 428.0,516.0 388.0,516.0 348.0,516.0 308.0,516.0 268.0,516.0 228.0,516.0 188.0,516.0 148.0,516.0 108.0,516.0 68.0,516.0" fill="#c7e9c0" fill-opacity="0.9" stroke="#fff" stroke-width="0.4"><title>resource_aggregate — parseTranslationUnit</title></polygon>
<polygon points="68.0,479.8 108.0,476.1 148.0,472.3 188.0,423.4 228.0,429.9 268.0,427.2 308.0,427.2 348.0,426.4 388.0,426.2 428.0,426.5 468.0,456.5 508.0,453.9 548.0,455.6 588.0,455.3 628.0,448.3 668.0,448.9 708.0,449.3 748.0,448.8 788.0,411.4 828.0,429.3 868.0,427.8 908.0,394.1 948.0,476.8 988.0,480.3 1028.0,482.0 1068.0,482.0 1108.0,482.4 1108.0,514.8 1068.0,514.5 1028.0,514.5 988.0,514.5 948.0,514.4 908.0,514.1 868.0,514.5 828.0,514.5 788.0,514.5 748.0,514.6 708.0,514.6 668.0,514.6 628.0,514.6 588.0,514.7 548.0,514.6 508.0,514.6 468.0,514.7 428.0,514.7 388.0,514.7 348.0,514.7 308.0,514.7 268.0,514.7 228.0,514.7 188.0,514.6 148.0,514.3 108.0,512.7 68.0,516.0" fill="#41ab5d" fill-opacity="0.9" stroke="#fff" stroke-width="0.4"><title>resource_aggregate — SemanticChecking</title></polygon>
<polygon points="68.0,466.9 108.0,460.3 148.0,456.2 188.0,406.9 228.0,414.0 268.0,410.9 308.0,411.2 348.0,410.3 388.0,410.0 428.0,410.5 468.0,440.9 508.0,438.8 548.0,441.2 588.0,440.3 628.0,432.9 668.0,433.5 708.0,434.0 748.0,433.4 788.0,359.3 828.0,391.5 868.0,388.8 908.0,339.6 948.0,455.7 988.0,463.7 1028.0,464.3 1068.0,466.3 1108.0,470.5 1108.0,482.4 1068.0,482.0 1028.0,482.0 988.0,480.3 948.0,476.8 908.0,394.1 868.0,427.8 828.0,429.3 788.0,411.4 748.0,448.8 708.0,449.3 668.0,448.9 628.0,448.3 588.0,455.3 548.0,455.6 508.0,453.9 468.0,456.5 428.0,426.5 388.0,426.2 348.0,426.4 308.0,427.2 268.0,427.2 228.0,429.9 188.0,423.4 148.0,472.3 108.0,476.1 68.0,479.8" fill="#006d2c" fill-opacity="0.9" stroke="#fff" stroke-width="0.4"><title>resource_aggregate — generateIR</title></polygon>
<polygon points="68.0,459.2 108.0,456.1 148.0,451.8 188.0,402.9 228.0,409.4 268.0,405.9 308.0,406.0 348.0,406.4 388.0,405.4 428.0,406.1 468.0,436.6 508.0,434.5 548.0,436.7 588.0,435.3 628.0,428.1 668.0,428.9 708.0,429.4 748.0,427.4 788.0,353.4 828.0,385.4 868.0,385.4 908.0,336.2 948.0,448.2 988.0,458.9 1028.0,459.3 1068.0,461.3 1108.0,465.3 1108.0,470.5 1068.0,466.3 1028.0,464.3 988.0,463.7 948.0,455.7 908.0,339.6 868.0,388.8 828.0,391.5 788.0,359.3 748.0,433.4 708.0,434.0 668.0,433.5 628.0,432.9 588.0,440.3 548.0,441.2 508.0,438.8 468.0,440.9 428.0,410.5 388.0,410.0 348.0,410.3 308.0,411.2 268.0,410.9 228.0,414.0 188.0,406.9 148.0,456.2 108.0,460.3 68.0,466.9" fill="#74c476" fill-opacity="0.9" stroke="#fff" stroke-width="0.4"><title>resource_aggregate — frontEndExecute (self)</title></polygon>
<polygon points="68.0,456.6 108.0,453.0 148.0,448.4 188.0,399.5 228.0,406.3 268.0,402.7 308.0,402.8 348.0,403.0 388.0,402.1 428.0,402.7 468.0,433.1 508.0,431.0 548.0,429.9 588.0,428.6 628.0,421.0 668.0,421.9 708.0,422.4 748.0,420.0 788.0,323.9 828.0,359.1 868.0,359.0 908.0,305.6 948.0,423.9 988.0,435.8 1028.0,441.5 1068.0,445.9 1108.0,454.3 1108.0,465.3 1068.0,461.3 1028.0,459.3 988.0,458.9 948.0,448.2 908.0,336.2 868.0,385.4 828.0,385.4 788.0,353.4 748.0,427.4 708.0,429.4 668.0,428.9 628.0,428.1 588.0,435.3 548.0,436.7 508.0,434.5 468.0,436.6 428.0,406.1 388.0,405.4 348.0,406.4 308.0,406.0 268.0,405.9 228.0,409.4 188.0,402.9 148.0,451.8 108.0,456.1 68.0,459.2" fill="#6baed6" fill-opacity="0.9" stroke="#fff" stroke-width="0.4"><title>resource_aggregate — specializeModule</title></polygon>
<polygon points="68.0,448.8 108.0,444.7 148.0,439.7 188.0,390.9 228.0,397.9 268.0,394.3 308.0,394.5 348.0,394.6 388.0,393.4 428.0,394.0 468.0,424.4 508.0,422.3 548.0,422.0 588.0,420.8 628.0,412.5 668.0,413.6 708.0,413.9 748.0,411.4 788.0,304.2 828.0,340.7 868.0,340.4 908.0,283.3 948.0,405.2 988.0,420.9 1028.0,429.8 1068.0,438.0 1108.0,447.3 1108.0,454.3 1068.0,445.9 1028.0,441.5 988.0,435.8 948.0,423.9 908.0,305.6 868.0,359.0 828.0,359.1 788.0,323.9 748.0,420.0 708.0,422.4 668.0,421.9 628.0,421.0 588.0,428.6 548.0,429.9 508.0,431.0 468.0,433.1 428.0,402.7 388.0,402.1 348.0,403.0 308.0,402.8 268.0,402.7 228.0,406.3 188.0,399.5 148.0,448.4 108.0,453.0 68.0,456.6" fill="#2171b5" fill-opacity="0.9" stroke="#fff" stroke-width="0.4"><title>resource_aggregate — simplifyIR</title></polygon>
<polygon points="68.0,446.3 108.0,440.3 148.0,434.1 188.0,385.8 228.0,394.3 268.0,390.5 308.0,390.6 348.0,390.8 388.0,389.7 428.0,390.0 468.0,421.0 508.0,418.6 548.0,418.4 588.0,417.3 628.0,408.6 668.0,409.6 708.0,410.1 748.0,407.6 788.0,262.5 828.0,309.1 868.0,307.5 908.0,232.4 948.0,400.3 988.0,416.7 1028.0,427.0 1068.0,435.4 1108.0,445.4 1108.0,447.3 1068.0,438.0 1028.0,429.8 988.0,420.9 948.0,405.2 908.0,283.3 868.0,340.4 828.0,340.7 788.0,304.2 748.0,411.4 708.0,413.9 668.0,413.6 628.0,412.5 588.0,420.8 548.0,422.0 508.0,422.3 468.0,424.4 428.0,394.0 388.0,393.4 348.0,394.6 308.0,394.5 268.0,394.3 228.0,397.9 188.0,390.9 148.0,439.7 108.0,444.7 68.0,448.8" fill="#08306b" fill-opacity="0.9" stroke="#fff" stroke-width="0.4"><title>resource_aggregate — linkIR</title></polygon>
<polygon points="68.0,446.3 108.0,440.3 148.0,434.1 188.0,385.8 228.0,394.3 268.0,390.5 308.0,390.6 348.0,390.8 388.0,389.6 428.0,390.0 468.0,421.0 508.0,418.6 548.0,418.4 588.0,417.3 628.0,408.6 668.0,409.5 708.0,410.1 748.0,407.6 788.0,262.5 828.0,309.1 868.0,307.4 908.0,232.4 948.0,400.2 988.0,416.6 1028.0,427.0 1068.0,435.3 1108.0,445.4 1108.0,445.4 1068.0,435.4 1028.0,427.0 988.0,416.7 948.0,400.3 908.0,232.4 868.0,307.5 828.0,309.1 788.0,262.5 748.0,407.6 708.0,410.1 668.0,409.6 628.0,408.6 588.0,417.3 548.0,418.4 508.0,418.6 468.0,421.0 428.0,390.0 388.0,389.7 348.0,390.8 308.0,390.6 268.0,390.5 228.0,394.3 188.0,385.8 148.0,434.1 108.0,440.3 68.0,446.3" fill="#9e9ac8" fill-opacity="0.9" stroke="#fff" stroke-width="0.4"><title>resource_aggregate — unrollLoopsInModule</title></polygon>
<polygon points="68.0,435.9 108.0,427.7 148.0,420.9 188.0,372.7 228.0,381.4 268.0,377.6 308.0,380.8 348.0,380.9 388.0,379.6 428.0,379.8 468.0,411.1 508.0,408.6 548.0,408.9 588.0,407.3 628.0,398.6 668.0,399.6 708.0,400.1 748.0,397.5 788.0,251.9 828.0,298.8 868.0,296.9 908.0,220.9 948.0,391.0 988.0,408.0 1028.0,418.0 1068.0,431.6 1108.0,442.2 1108.0,445.4 1068.0,435.3 1028.0,427.0 988.0,416.6 948.0,400.2 908.0,232.4 868.0,307.4 828.0,309.1 788.0,262.5 748.0,407.6 708.0,410.1 668.0,409.5 628.0,408.6 588.0,417.3 548.0,418.4 508.0,418.6 468.0,421.0 428.0,390.0 388.0,389.6 348.0,390.8 308.0,390.6 268.0,390.5 228.0,394.3 188.0,385.8 148.0,434.1 108.0,440.3 68.0,446.3" fill="#807dba" fill-opacity="0.9" stroke="#fff" stroke-width="0.4"><title>resource_aggregate — legalizeResourceTypes</title></polygon>
<polygon points="68.0,430.8 108.0,419.6 148.0,412.2 188.0,364.3 228.0,373.4 268.0,369.7 308.0,375.6 348.0,375.6 388.0,374.3 428.0,374.3 468.0,405.9 508.0,403.4 548.0,403.6 588.0,401.9 628.0,392.9 668.0,394.1 708.0,394.4 748.0,392.0 788.0,245.7 828.0,292.8 868.0,290.9 908.0,214.2 948.0,384.7 988.0,402.7 1028.0,412.4 1068.0,429.8 1108.0,440.5 1108.0,442.2 1068.0,431.6 1028.0,418.0 988.0,408.0 948.0,391.0 908.0,220.9 868.0,296.9 828.0,298.8 788.0,251.9 748.0,397.5 708.0,400.1 668.0,399.6 628.0,398.6 588.0,407.3 548.0,408.9 508.0,408.6 468.0,411.1 428.0,379.8 388.0,379.6 348.0,380.9 308.0,380.8 268.0,377.6 228.0,381.4 188.0,372.7 148.0,420.9 108.0,427.7 68.0,435.9" fill="#6a51a3" fill-opacity="0.9" stroke="#fff" stroke-width="0.4"><title>resource_aggregate — legalizeExistentialTypeLayout</title></polygon>
<polygon points="68.0,430.8 108.0,418.8 148.0,411.4 188.0,363.4 228.0,372.6 268.0,368.8 308.0,374.7 348.0,374.7 388.0,373.5 428.0,373.4 468.0,405.0 508.0,402.5 548.0,402.7 588.0,401.1 628.0,392.1 668.0,393.3 708.0,393.6 748.0,391.0 788.0,244.8 828.0,291.9 868.0,289.8 908.0,213.3 948.0,383.7 988.0,401.8 1028.0,411.5 1068.0,429.0 1108.0,439.8 1108.0,440.5 1068.0,429.8 1028.0,412.4 988.0,402.7 948.0,384.7 908.0,214.2 868.0,290.9 828.0,292.8 788.0,245.7 748.0,392.0 708.0,394.4 668.0,394.1 628.0,392.9 588.0,401.9 548.0,403.6 508.0,403.4 468.0,405.9 428.0,374.3 388.0,374.3 348.0,375.6 308.0,375.6 268.0,369.7 228.0,373.4 188.0,364.3 148.0,412.2 108.0,419.6 68.0,430.8" fill="#bcbddc" fill-opacity="0.9" stroke="#fff" stroke-width="0.4"><title>resource_aggregate — performMandatoryEarlyInlining</title></polygon>
<polygon points="68.0,430.8 108.0,417.7 148.0,410.4 188.0,362.2 228.0,371.5 268.0,367.6 308.0,373.5 348.0,373.6 388.0,372.3 428.0,372.2 468.0,403.8 508.0,401.3 548.0,401.5 588.0,399.8 628.0,390.9 668.0,392.2 708.0,392.4 748.0,389.7 788.0,243.5 828.0,290.6 868.0,288.5 908.0,211.9 948.0,382.5 988.0,400.7 1028.0,410.4 1068.0,428.0 1108.0,439.0 1108.0,439.8 1068.0,429.0 1028.0,411.5 988.0,401.8 948.0,383.7 908.0,213.3 868.0,289.8 828.0,291.9 788.0,244.8 748.0,391.0 708.0,393.6 668.0,393.3 628.0,392.1 588.0,401.1 548.0,402.7 508.0,402.5 468.0,405.0 428.0,373.4 388.0,373.5 348.0,374.7 308.0,374.7 268.0,368.8 228.0,372.6 188.0,363.4 148.0,411.4 108.0,418.8 68.0,430.8" fill="#dadaeb" fill-opacity="0.9" stroke="#fff" stroke-width="0.4"><title>resource_aggregate — performForceInlining</title></polygon>
<polygon points="68.0,415.3 108.0,409.5 148.0,401.7 188.0,353.6 228.0,363.0 268.0,358.8 308.0,365.3 348.0,364.7 388.0,363.8 428.0,363.6 468.0,395.0 508.0,392.6 548.0,392.1 588.0,390.6 628.0,381.0 668.0,382.6 708.0,381.7 748.0,378.7 788.0,207.7 828.0,260.5 868.0,259.6 908.0,179.7 948.0,359.5 988.0,380.6 1028.0,391.0 1068.0,415.7 1108.0,430.0 1108.0,439.0 1068.0,428.0 1028.0,410.4 988.0,400.7 948.0,382.5 908.0,211.9 868.0,288.5 828.0,290.6 788.0,243.5 748.0,389.7 708.0,392.4 668.0,392.2 628.0,390.9 588.0,399.8 548.0,401.5 508.0,401.3 468.0,403.8 428.0,372.2 388.0,372.3 348.0,373.6 308.0,373.5 268.0,367.6 228.0,371.5 188.0,362.2 148.0,410.4 108.0,417.7 68.0,430.8" fill="#4a1486" fill-opacity="0.9" stroke="#fff" stroke-width="0.4"><title>resource_aggregate — linkAndOptimizeIR (self)</title></polygon>
<polygon points="68.0,376.5 108.0,370.7 148.0,360.4 188.0,314.0 228.0,323.8 268.0,322.8 308.0,333.2 348.0,332.9 388.0,332.9 428.0,331.9 468.0,363.8 508.0,361.3 548.0,362.0 588.0,359.1 628.0,346.4 668.0,346.7 708.0,346.6 748.0,343.9 788.0,167.1 828.0,223.9 868.0,223.1 908.0,112.9 948.0,325.8 988.0,350.5 1028.0,361.0 1068.0,390.0 1108.0,406.6 1108.0,430.0 1068.0,415.7 1028.0,391.0 988.0,380.6 948.0,359.5 908.0,179.7 868.0,259.6 828.0,260.5 788.0,207.7 748.0,378.7 708.0,381.7 668.0,382.6 628.0,381.0 588.0,390.6 548.0,392.1 508.0,392.6 468.0,395.0 428.0,363.6 388.0,363.8 348.0,364.7 308.0,365.3 268.0,358.8 228.0,363.0 188.0,353.6 148.0,401.7 108.0,409.5 68.0,415.3" fill="#e6550d" fill-opacity="0.9" stroke="#fff" stroke-width="0.4"><title>resource_aggregate — generateOutput (self)</title></polygon>
<polygon points="68.0,371.3 108.0,366.6 148.0,354.6 188.0,308.5 228.0,319.7 268.0,319.1 308.0,329.4 348.0,328.6 388.0,327.4 428.0,327.7 468.0,358.4 508.0,356.8 548.0,357.8 588.0,355.4 628.0,341.7 668.0,342.5 708.0,342.7 748.0,339.4 788.0,166.8 828.0,219.1 868.0,218.6 908.0,108.6 948.0,320.8 988.0,344.7 1028.0,356.5 1068.0,384.6 1108.0,403.3 1108.0,406.6 1068.0,390.0 1028.0,361.0 988.0,350.5 948.0,325.8 908.0,112.9 868.0,223.1 828.0,223.9 788.0,167.1 748.0,343.9 708.0,346.6 668.0,346.7 628.0,346.4 588.0,359.1 548.0,362.0 508.0,361.3 468.0,363.8 428.0,331.9 388.0,332.9 348.0,332.9 308.0,333.2 268.0,322.8 228.0,323.8 188.0,314.0 148.0,360.4 108.0,370.7 68.0,376.5" fill="#969696" fill-opacity="0.9" stroke="#fff" stroke-width="0.4"><title>resource_aggregate — compileInner (self)</title></polygon>
<text x="12" y="578" fill="#666" font-weight="600">phase buckets</text>
<rect x="12" y="586" width="12" height="12" fill="#c7e9c0"/>
<text x="28" y="596" fill="#222">parseTranslationUnit</text>
<rect x="289" y="586" width="12" height="12" fill="#41ab5d"/>
<text x="305" y="596" fill="#222">SemanticChecking</text>
<rect x="566" y="586" width="12" height="12" fill="#006d2c"/>
<text x="582" y="596" fill="#222">generateIR</text>
<rect x="843" y="586" width="12" height="12" fill="#74c476"/>
<text x="859" y="596" fill="#222">frontEndExecute (self)</text>
<rect x="12" y="604" width="12" height="12" fill="#6baed6"/>
<text x="28" y="614" fill="#222">specializeModule</text>
<rect x="289" y="604" width="12" height="12" fill="#2171b5"/>
<text x="305" y="614" fill="#222">simplifyIR</text>
<rect x="566" y="604" width="12" height="12" fill="#08306b"/>
<text x="582" y="614" fill="#222">linkIR</text>
<rect x="843" y="604" width="12" height="12" fill="#9e9ac8"/>
<text x="859" y="614" fill="#222">unrollLoopsInModule</text>
<rect x="12" y="622" width="12" height="12" fill="#807dba"/>
<text x="28" y="632" fill="#222">legalizeResourceTypes</text>
<rect x="289" y="622" width="12" height="12" fill="#6a51a3"/>
<text x="305" y="632" fill="#222">legalizeExistentialTypeLayout</text>
<rect x="566" y="622" width="12" height="12" fill="#bcbddc"/>
<text x="582" y="632" fill="#222">performMandatoryEarlyInlining</text>
<rect x="843" y="622" width="12" height="12" fill="#dadaeb"/>
<text x="859" y="632" fill="#222">performForceInlining</text>
<rect x="12" y="640" width="12" height="12" fill="#4a1486"/>
<text x="28" y="650" fill="#222">linkAndOptimizeIR (self)</text>
<rect x="289" y="640" width="12" height="12" fill="#fd8d3c"/>
<text x="305" y="650" fill="#222">emitEntryPointsSourceFromIR</text>
<rect x="566" y="640" width="12" height="12" fill="#e6550d"/>
<text x="582" y="650" fill="#222">generateOutput (self)</text>
<rect x="843" y="640" width="12" height="12" fill="#969696"/>
<text x="859" y="650" fill="#222">compileInner (self)</text>
</svg>