<svg xmlns="http://www.w3.org/2000/svg" xmlns:xlink="http://www.w3.org/1999/xlink" width="1132" height="680" viewBox="0 0 1132 680" preserveAspectRatio="xMidYMid meet" font-family="sans-serif" font-size="13">
<rect width="1132" height="680" fill="white"/>
<text x="12" y="30" font-size="20" font-weight="bold">resource_aggregate — Daily tip-of-tree (last 30 days) (median ms)</text>
<text x="68" y="60" font-size="15" font-weight="600" fill="#1a1a1a">resource_aggregate<tspan fill="#888" font-weight="400" text-decoration="none">  0.65×</tspan></text>
<line x1="68.0" y1="516.0" x2="1108.0" y2="516.0" stroke="#eee"/>
<text x="64.0" y="519.0" text-anchor="end" fill="#999">0.0</text>
<line x1="68.0" y1="296.0" x2="1108.0" y2="296.0" stroke="#eee"/>
<text x="64.0" y="299.0" text-anchor="end" fill="#999">39</text>
<line x1="68.0" y1="76.0" x2="1108.0" y2="76.0" stroke="#eee"/>
<text x="64.0" y="79.0" text-anchor="end" fill="#999">77</text>
<line x1="68.0" y1="76.0" x2="68.0" y2="516.0" stroke="#333"/>
<line x1="68.0" y1="516.0" x2="1108.0" y2="516.0" stroke="#333"/>
<line x1="68.0" y1="516.0" x2="68.0" y2="519.0" stroke="#999"/>
<text x="68.0" y="531.0" text-anchor="end" fill="#e8731a" transform="rotate(-50 68.0 531.0)">06-25</text>
<line x1="117.5" y1="516.0" x2="117.5" y2="519.0" stroke="#999"/>
<text x="117.5" y="531.0" text-anchor="end" fill="#e8731a" transform="rotate(-50 117.5 531.0)">06-26</text>
<line x1="167.0" y1="516.0" x2="167.0" y2="519.0" stroke="#999"/>
<text x="167.0" y="531.0" text-anchor="end" fill="#e8731a" transform="rotate(-50 167.0 531.0)">06-28</text>
<line x1="216.6" y1="516.0" x2="216.6" y2="519.0" stroke="#999"/>
<text x="216.6" y="531.0" text-anchor="end" fill="#e8731a" transform="rotate(-50 216.6 531.0)">07-01</text>
<line x1="266.1" y1="516.0" x2="266.1" y2="519.0" stroke="#999"/>
<text x="266.1" y="531.0" text-anchor="end" fill="#e8731a" transform="rotate(-50 266.1 531.0)">07-02</text>
<line x1="315.6" y1="516.0" x2="315.6" y2="519.0" stroke="#999"/>
<text x="315.6" y="531.0" text-anchor="end" fill="#e8731a" transform="rotate(-50 315.6 531.0)">07-03</text>
<line x1="365.1" y1="516.0" x2="365.1" y2="519.0" stroke="#999"/>
<text x="365.1" y="531.0" text-anchor="end" fill="#e8731a" transform="rotate(-50 365.1 531.0)">07-06</text>
<line x1="414.7" y1="516.0" x2="414.7" y2="519.0" stroke="#999"/>
<text x="414.7" y="531.0" text-anchor="end" fill="#e8731a" transform="rotate(-50 414.7 531.0)">07-07</text>
<line x1="464.2" y1="516.0" x2="464.2" y2="519.0" stroke="#999"/>
<text x="464.2" y="531.0" text-anchor="end" fill="#e8731a" transform="rotate(-50 464.2 531.0)">07-08</text>
<line x1="513.7" y1="516.0" x2="513.7" y2="519.0" stroke="#999"/>
<text x="513.7" y="531.0" text-anchor="end" fill="#e8731a" transform="rotate(-50 513.7 531.0)">07-09</text>
<line x1="563.2" y1="516.0" x2="563.2" y2="519.0" stroke="#999"/>
<text x="563.2" y="531.0" text-anchor="end" fill="#e8731a" transform="rotate(-50 563.2 531.0)">07-10</text>
<line x1="612.8" y1="516.0" x2="612.8" y2="519.0" stroke="#999"/>
<text x="612.8" y="531.0" text-anchor="end" fill="#e8731a" transform="rotate(-50 612.8 531.0)">07-11</text>
<line x1="662.3" y1="516.0" x2="662.3" y2="519.0" stroke="#999"/>
<text x="662.3" y="531.0" text-anchor="end" fill="#e8731a" transform="rotate(-50 662.3 531.0)">07-14</text>
<line x1="711.8" y1="516.0" x2="711.8" y2="519.0" stroke="#999"/>
<text x="711.8" y="531.0" text-anchor="end" fill="#e8731a" transform="rotate(-50 711.8 531.0)">07-15</text>
<line x1="761.3" y1="516.0" x2="761.3" y2="519.0" stroke="#999"/>
<text x="761.3" y="531.0" text-anchor="end" fill="#e8731a" transform="rotate(-50 761.3 531.0)">07-15</text>
<line x1="810.9" y1="516.0" x2="810.9" y2="519.0" stroke="#999"/>
<text x="810.9" y="531.0" text-anchor="end" fill="#e8731a" transform="rotate(-50 810.9 531.0)">07-16</text>
<line x1="860.4" y1="516.0" x2="860.4" y2="519.0" stroke="#999"/>
<text x="860.4" y="531.0" text-anchor="end" fill="#e8731a" transform="rotate(-50 860.4 531.0)">07-17</text>
<line x1="909.9" y1="516.0" x2="909.9" y2="519.0" stroke="#999"/>
<text x="909.9" y="531.0" text-anchor="end" fill="#e8731a" transform="rotate(-50 909.9 531.0)">07-18</text>
<line x1="959.4" y1="516.0" x2="959.4" y2="519.0" stroke="#999"/>
<text x="959.4" y="531.0" text-anchor="end" fill="#e8731a" transform="rotate(-50 959.4 531.0)">07-19</text>
<line x1="1009.0" y1="516.0" x2="1009.0" y2="519.0" stroke="#999"/>
<text x="1009.0" y="531.0" text-anchor="end" fill="#e8731a" transform="rotate(-50 1009.0 531.0)">07-20</text>
<line x1="1058.5" y1="516.0" x2="1058.5" y2="519.0" stroke="#999"/>
<text x="1058.5" y="531.0" text-anchor="end" fill="#e8731a" transform="rotate(-50 1058.5 531.0)">07-21</text>
<line x1="1108.0" y1="516.0" x2="1108.0" y2="519.0" stroke="#999"/>
<text x="1108.0" y="531.0" text-anchor="end" fill="#e8731a" transform="rotate(-50 1108.0 531.0)">07-22</text>
<polygon points="68.0,512.4 117.5,512.4 167.0,512.4 216.6,512.4 266.1,512.4 315.6,512.4 365.1,512.2 414.7,512.7 464.2,512.8 513.7,512.8 563.2,512.8 612.8,512.6 662.3,512.8 711.8,513.1 761.3,513.0 810.9,512.8 860.4,513.0 909.9,513.3 959.4,513.3 1009.0,513.3 1058.5,513.3 1108.0,513.4 1108.0,516.0 1058.5,516.0 1009.0,516.0 959.4,516.0 909.9,516.0 860.4,516.0 810.9,516.0 761.3,516.0 711.8,516.0 662.3,516.0 612.8,516.0 563.2,516.0 513.7,516.0 464.2,516.0 414.7,516.0 365.1,516.0 315.6,516.0 266.1,516.0 216.6,516.0 167.0,516.0 117.5,516.0 68.0,516.0" fill="#c7e9c0" fill-opacity="0.9" stroke="#fff" stroke-width="0.4"><title>resource_aggregate — parseTranslationUnit</title></polygon>
<polygon points="68.0,429.2 117.5,429.8 167.0,430.3 216.6,428.3 266.1,430.5 315.6,431.0 365.1,430.3 414.7,434.6 464.2,437.7 513.7,436.0 563.2,436.6 612.8,435.5 662.3,435.7 711.8,440.6 761.3,441.5 810.9,425.7 860.4,426.0 909.9,436.2 959.4,435.6 1009.0,436.1 1058.5,432.9 1108.0,436.1 1108.0,513.4 1058.5,513.3 1009.0,513.3 959.4,513.3 909.9,513.3 860.4,513.0 810.9,512.8 761.3,513.0 711.8,513.1 662.3,512.8 612.8,512.6 563.2,512.8 513.7,512.8 464.2,512.8 414.7,512.7 365.1,512.2 315.6,512.4 266.1,512.4 216.6,512.4 167.0,512.4 117.5,512.4 68.0,512.4" fill="#41ab5d" fill-opacity="0.9" stroke="#fff" stroke-width="0.4"><title>resource_aggregate — SemanticChecking</title></polygon>
<polygon points="68.0,391.4 117.5,390.9 167.0,392.8 216.6,390.0 266.1,391.4 315.6,392.3 365.1,391.2 414.7,395.8 464.2,398.3 513.7,396.7 563.2,400.1 612.8,398.5 662.3,398.9 711.8,406.1 761.3,406.8 810.9,392.4 860.4,393.2 909.9,408.5 959.4,407.3 1009.0,409.2 1058.5,405.2 1108.0,408.2 1108.0,436.1 1058.5,432.9 1009.0,436.1 959.4,435.6 909.9,436.2 860.4,426.0 810.9,425.7 761.3,441.5 711.8,440.6 662.3,435.7 612.8,435.5 563.2,436.6 513.7,436.0 464.2,437.7 414.7,434.6 365.1,430.3 315.6,431.0 266.1,430.5 216.6,428.3 167.0,430.3 117.5,429.8 68.0,429.2" fill="#006d2c" fill-opacity="0.9" stroke="#fff" stroke-width="0.4"><title>resource_aggregate — generateIR</title></polygon>
<polygon points="68.0,381.3 117.5,380.0 167.0,381.8 216.6,378.1 266.1,380.6 315.6,381.4 365.1,380.0 414.7,385.4 464.2,385.9 513.7,385.2 563.2,388.5 612.8,386.6 662.3,388.4 711.8,397.3 761.3,397.3 810.9,382.5 860.4,383.5 909.9,398.1 959.4,397.3 1009.0,397.7 1058.5,394.5 1108.0,398.1 1108.0,408.2 1058.5,405.2 1009.0,409.2 959.4,407.3 909.9,408.5 860.4,393.2 810.9,392.4 761.3,406.8 711.8,406.1 662.3,398.9 612.8,398.5 563.2,400.1 513.7,396.7 464.2,398.3 414.7,395.8 365.1,391.2 315.6,392.3 266.1,391.4 216.6,390.0 167.0,392.8 117.5,390.9 68.0,391.4" fill="#74c476" fill-opacity="0.9" stroke="#fff" stroke-width="0.4"><title>resource_aggregate — frontEndExecute (self)</title></polygon>
<polygon points="68.0,326.0 117.5,322.3 167.0,326.2 216.6,322.1 266.1,324.7 315.6,325.2 365.1,324.8 414.7,344.8 464.2,344.9 513.7,345.1 563.2,353.0 612.8,350.6 662.3,353.4 711.8,367.9 761.3,367.7 810.9,352.9 860.4,353.7 909.9,371.4 959.4,370.5 1009.0,370.5 1058.5,367.4 1108.0,371.6 1108.0,398.1 1058.5,394.5 1009.0,397.7 959.4,397.3 909.9,398.1 860.4,383.5 810.9,382.5 761.3,397.3 711.8,397.3 662.3,388.4 612.8,386.6 563.2,388.5 513.7,385.2 464.2,385.9 414.7,385.4 365.1,380.0 315.6,381.4 266.1,380.6 216.6,378.1 167.0,381.8 117.5,380.0 68.0,381.3" fill="#6baed6" fill-opacity="0.9" stroke="#fff" stroke-width="0.4"><title>resource_aggregate — specializeModule</title></polygon>
<polygon points="68.0,290.9 117.5,286.6 167.0,291.1 216.6,285.9 266.1,289.2 315.6,289.8 365.1,289.2 414.7,319.6 464.2,320.0 513.7,320.0 563.2,334.7 612.8,332.4 662.3,335.5 711.8,349.8 761.3,349.5 810.9,334.8 860.4,335.7 909.9,354.8 959.4,354.1 1009.0,354.1 1058.5,350.9 1108.0,355.2 1108.0,371.6 1058.5,367.4 1009.0,370.5 959.4,370.5 909.9,371.4 860.4,353.7 810.9,352.9 761.3,367.7 711.8,367.9 662.3,353.4 612.8,350.6 563.2,353.0 513.7,345.1 464.2,344.9 414.7,344.8 365.1,324.8 315.6,325.2 266.1,324.7 216.6,322.1 167.0,326.2 117.5,322.3 68.0,326.0" fill="#2171b5" fill-opacity="0.9" stroke="#fff" stroke-width="0.4"><title>resource_aggregate — simplifyIR</title></polygon>
<polygon points="68.0,281.5 117.5,277.1 167.0,281.6 216.6,276.3 266.1,279.8 315.6,280.2 365.1,279.8 414.7,313.9 464.2,314.1 513.7,313.9 563.2,328.7 612.8,326.5 662.3,329.7 711.8,344.6 761.3,344.5 810.9,329.8 860.4,330.5 909.9,350.6 959.4,349.8 1009.0,349.7 1058.5,346.7 1108.0,350.9 1108.0,355.2 1058.5,350.9 1009.0,354.1 959.4,354.1 909.9,354.8 860.4,335.7 810.9,334.8 761.3,349.5 711.8,349.8 662.3,335.5 612.8,332.4 563.2,334.7 513.7,320.0 464.2,320.0 414.7,319.6 365.1,289.2 315.6,289.8 266.1,289.2 216.6,285.9 167.0,291.1 117.5,286.6 68.0,290.9" fill="#08306b" fill-opacity="0.9" stroke="#fff" stroke-width="0.4"><title>resource_aggregate — linkIR</title></polygon>
<polygon points="68.0,281.4 117.5,277.0 167.0,281.5 216.6,276.2 266.1,279.7 315.6,280.0 365.1,279.7 414.7,313.8 464.2,314.0 513.7,313.9 563.2,328.7 612.8,326.4 662.3,329.7 711.8,344.5 761.3,344.4 810.9,329.7 860.4,330.5 909.9,350.5 959.4,349.8 1009.0,349.6 1058.5,346.7 1108.0,350.8 1108.0,350.9 1058.5,346.7 1009.0,349.7 959.4,349.8 909.9,350.6 860.4,330.5 810.9,329.8 761.3,344.5 711.8,344.6 662.3,329.7 612.8,326.5 563.2,328.7 513.7,313.9 464.2,314.1 414.7,313.9 365.1,279.8 315.6,280.2 266.1,279.8 216.6,276.3 167.0,281.6 117.5,277.1 68.0,281.5" fill="#9e9ac8" fill-opacity="0.9" stroke="#fff" stroke-width="0.4"><title>resource_aggregate — unrollLoopsInModule</title></polygon>
<polygon points="68.0,261.9 117.5,256.4 167.0,261.4 216.6,256.1 266.1,260.2 315.6,259.9 365.1,259.8 414.7,294.1 464.2,295.0 513.7,294.2 563.2,320.3 612.8,317.9 662.3,321.4 711.8,336.1 761.3,336.0 810.9,321.4 860.4,322.1 909.9,343.2 959.4,342.3 1009.0,342.2 1058.5,339.2 1108.0,343.4 1108.0,350.8 1058.5,346.7 1009.0,349.6 959.4,349.8 909.9,350.5 860.4,330.5 810.9,329.7 761.3,344.4 711.8,344.5 662.3,329.7 612.8,326.4 563.2,328.7 513.7,313.9 464.2,314.0 414.7,313.8 365.1,279.7 315.6,280.0 266.1,279.7 216.6,276.2 167.0,281.5 117.5,277.0 68.0,281.4" fill="#807dba" fill-opacity="0.9" stroke="#fff" stroke-width="0.4"><title>resource_aggregate — legalizeResourceTypes</title></polygon>
<polygon points="68.0,250.0 117.5,244.2 167.0,249.1 216.6,244.0 266.1,248.3 315.6,248.1 365.1,248.0 414.7,281.8 464.2,283.0 513.7,282.2 563.2,316.1 612.8,313.8 662.3,317.6 711.8,331.6 761.3,331.6 810.9,316.7 860.4,317.6 909.9,339.3 959.4,338.3 1009.0,338.3 1058.5,335.3 1108.0,339.4 1108.0,343.4 1058.5,339.2 1009.0,342.2 959.4,342.3 909.9,343.2 860.4,322.1 810.9,321.4 761.3,336.0 711.8,336.1 662.3,321.4 612.8,317.9 563.2,320.3 513.7,294.2 464.2,295.0 414.7,294.1 365.1,259.8 315.6,259.9 266.1,260.2 216.6,256.1 167.0,261.4 117.5,256.4 68.0,261.9" fill="#6a51a3" fill-opacity="0.9" stroke="#fff" stroke-width="0.4"><title>resource_aggregate — legalizeExistentialTypeLayout</title></polygon>
<polygon points="68.0,247.9 117.5,242.1 167.0,247.1 216.6,242.0 266.1,246.2 315.6,246.0 365.1,246.0 414.7,279.8 464.2,280.9 513.7,280.2 563.2,314.1 612.8,311.8 662.3,315.6 711.8,329.8 761.3,329.7 810.9,314.9 860.4,315.8 909.9,337.7 959.4,336.7 1009.0,336.7 1058.5,333.6 1108.0,337.7 1108.0,339.4 1058.5,335.3 1009.0,338.3 959.4,338.3 909.9,339.3 860.4,317.6 810.9,316.7 761.3,331.6 711.8,331.6 662.3,317.6 612.8,313.8 563.2,316.1 513.7,282.2 464.2,283.0 414.7,281.8 365.1,248.0 315.6,248.1 266.1,248.3 216.6,244.0 167.0,249.1 117.5,244.2 68.0,250.0" fill="#bcbddc" fill-opacity="0.9" stroke="#fff" stroke-width="0.4"><title>resource_aggregate — performMandatoryEarlyInlining</title></polygon>
<polygon points="68.0,245.7 117.5,239.7 167.0,244.6 216.6,239.4 266.1,244.0 315.6,243.6 365.1,243.8 414.7,277.6 464.2,278.7 513.7,277.9 563.2,311.9 612.8,309.5 662.3,313.4 711.8,327.8 761.3,327.7 810.9,312.8 860.4,313.7 909.9,335.9 959.4,335.0 1009.0,335.0 1058.5,332.0 1108.0,336.1 1108.0,337.7 1058.5,333.6 1009.0,336.7 959.4,336.7 909.9,337.7 860.4,315.8 810.9,314.9 761.3,329.7 711.8,329.8 662.3,315.6 612.8,311.8 563.2,314.1 513.7,280.2 464.2,280.9 414.7,279.8 365.1,246.0 315.6,246.0 266.1,246.2 216.6,242.0 167.0,247.1 117.5,242.1 68.0,247.9" fill="#dadaeb" fill-opacity="0.9" stroke="#fff" stroke-width="0.4"><title>resource_aggregate — performForceInlining</title></polygon>
<polygon points="68.0,197.1 117.5,189.0 167.0,195.5 216.6,189.5 266.1,191.3 315.6,193.5 365.1,192.4 414.7,235.3 464.2,236.4 513.7,235.8 563.2,282.4 612.8,279.7 662.3,284.7 711.8,304.1 761.3,304.5 810.9,288.5 860.4,290.5 909.9,314.1 959.4,313.0 1009.0,313.5 1058.5,310.0 1108.0,314.1 1108.0,336.1 1058.5,332.0 1009.0,335.0 959.4,335.0 909.9,335.9 860.4,313.7 810.9,312.8 761.3,327.7 711.8,327.8 662.3,313.4 612.8,309.5 563.2,311.9 513.7,277.9 464.2,278.7 414.7,277.6 365.1,243.8 315.6,243.6 266.1,244.0 216.6,239.4 167.0,244.6 117.5,239.7 68.0,245.7" fill="#4a1486" fill-opacity="0.9" stroke="#fff" stroke-width="0.4"><title>resource_aggregate — linkAndOptimizeIR (self)</title></polygon>
<polygon points="68.0,126.1 117.5,120.3 167.0,126.1 216.6,120.1 266.1,121.6 315.6,124.4 365.1,117.9 414.7,166.7 464.2,168.5 513.7,166.0 563.2,225.6 612.8,221.4 662.3,227.9 711.8,248.2 761.3,248.2 810.9,233.8 860.4,236.7 909.9,260.5 959.4,261.0 1009.0,261.1 1058.5,255.8 1108.0,261.8 1108.0,314.1 1058.5,310.0 1009.0,313.5 959.4,313.0 909.9,314.1 860.4,290.5 810.9,288.5 761.3,304.5 711.8,304.1 662.3,284.7 612.8,279.7 563.2,282.4 513.7,235.8 464.2,236.4 414.7,235.3 365.1,192.4 315.6,193.5 266.1,191.3 216.6,189.5 167.0,195.5 117.5,189.0 68.0,197.1" fill="#e6550d" fill-opacity="0.9" stroke="#fff" stroke-width="0.4"><title>resource_aggregate — generateOutput (self)</title></polygon>
<polygon points="68.0,112.5 117.5,108.6 167.0,115.9 216.6,111.1 266.1,110.1 315.6,113.9 365.1,108.9 414.7,153.7 464.2,158.2 513.7,156.1 563.2,215.4 612.8,210.7 662.3,218.4 711.8,238.5 761.3,239.0 810.9,221.6 860.4,227.2 909.9,254.2 959.4,252.8 1009.0,253.9 1058.5,247.9 1108.0,253.1 1108.0,261.8 1058.5,255.8 1009.0,261.1 959.4,261.0 909.9,260.5 860.4,236.7 810.9,233.8 761.3,248.2 711.8,248.2 662.3,227.9 612.8,221.4 563.2,225.6 513.7,166.0 464.2,168.5 414.7,166.7 365.1,117.9 315.6,124.4 266.1,121.6 216.6,120.1 167.0,126.1 117.5,120.3 68.0,126.1" fill="#969696" fill-opacity="0.9" stroke="#fff" stroke-width="0.4"><title>resource_aggregate — compileInner (self)</title></polygon>
<text x="12" y="578" fill="#666" font-weight="600">phase buckets</text>
<rect x="12" y="586" width="12" height="12" fill="#c7e9c0"/>
<text x="28" y="596" fill="#222">parseTranslationUnit</text>
<rect x="289" y="586" width="12" height="12" fill="#41ab5d"/>
<text x="305" y="596" fill="#222">SemanticChecking</text>
<rect x="566" y="586" width="12" height="12" fill="#006d2c"/>
<text x="582" y="596" fill="#222">generateIR</text>
<rect x="843" y="586" width="12" height="12" fill="#74c476"/>
<text x="859" y="596" fill="#222">frontEndExecute (self)</text>
<rect x="12" y="604" width="12" height="12" fill="#6baed6"/>
<text x="28" y="614" fill="#222">specializeModule</text>
<rect x="289" y="604" width="12" height="12" fill="#2171b5"/>
<text x="305" y="614" fill="#222">simplifyIR</text>
<rect x="566" y="604" width="12" height="12" fill="#08306b"/>
<text x="582" y="614" fill="#222">linkIR</text>
<rect x="843" y="604" width="12" height="12" fill="#9e9ac8"/>
<text x="859" y="614" fill="#222">unrollLoopsInModule</text>
<rect x="12" y="622" width="12" height="12" fill="#807dba"/>
<text x="28" y="632" fill="#222">legalizeResourceTypes</text>
<rect x="289" y="622" width="12" height="12" fill="#6a51a3"/>
<text x="305" y="632" fill="#222">legalizeExistentialTypeLayout</text>
<rect x="566" y="622" width="12" height="12" fill="#bcbddc"/>
<text x="582" y="632" fill="#222">performMandatoryEarlyInlining</text>
<rect x="843" y="622" width="12" height="12" fill="#dadaeb"/>
<text x="859" y="632" fill="#222">performForceInlining</text>
<rect x="12" y="640" width="12" height="12" fill="#4a1486"/>
<text x="28" y="650" fill="#222">linkAndOptimizeIR (self)</text>
<rect x="289" y="640" width="12" height="12" fill="#fd8d3c"/>
<text x="305" y="650" fill="#222">emitEntryPointsSourceFromIR</text>
<rect x="566" y="640" width="12" height="12" fill="#e6550d"/>
<text x="582" y="650" fill="#222">generateOutput (self)</text>
<rect x="843" y="640" width="12" height="12" fill="#969696"/>
<text x="859" y="650" fill="#222">compileInner (self)</text>
</svg>