<svg xmlns="http://www.w3.org/2000/svg" xmlns:xlink="http://www.w3.org/1999/xlink" width="1132" height="662" viewBox="0 0 1132 662" preserveAspectRatio="xMidYMid meet" font-family="sans-serif" font-size="13">
<rect width="1132" height="662" fill="white"/>
<text x="12" y="30" font-size="20" font-weight="bold">rt_renderer_specialize — Daily tip-of-tree (last 30 days) (median ms)</text>
<text x="68" y="60" font-size="15" font-weight="600" fill="#1a1a1a">rt_renderer_specialize<tspan fill="#888" font-weight="400" text-decoration="none">  0.94×</tspan></text>
<line x1="68.0" y1="516.0" x2="1108.0" y2="516.0" stroke="#eee"/>
<text x="64.0" y="519.0" text-anchor="end" fill="#999">0.0</text>
<line x1="68.0" y1="296.0" x2="1108.0" y2="296.0" stroke="#eee"/>
<text x="64.0" y="299.0" text-anchor="end" fill="#999">900</text>
<line x1="68.0" y1="76.0" x2="1108.0" y2="76.0" stroke="#eee"/>
<text x="64.0" y="79.0" text-anchor="end" fill="#999">1799</text>
<line x1="68.0" y1="76.0" x2="68.0" y2="516.0" stroke="#333"/>
<line x1="68.0" y1="516.0" x2="1108.0" y2="516.0" stroke="#333"/>
<line x1="68.0" y1="516.0" x2="68.0" y2="519.0" stroke="#999"/>
<text x="68.0" y="531.0" text-anchor="end" fill="#e8731a" transform="rotate(-50 68.0 531.0)">06-25</text>
<line x1="133.0" y1="516.0" x2="133.0" y2="519.0" stroke="#999"/>
<text x="133.0" y="531.0" text-anchor="end" fill="#e8731a" transform="rotate(-50 133.0 531.0)">06-26</text>
<line x1="198.0" y1="516.0" x2="198.0" y2="519.0" stroke="#999"/>
<text x="198.0" y="531.0" text-anchor="end" fill="#e8731a" transform="rotate(-50 198.0 531.0)">06-28</text>
<line x1="263.0" y1="516.0" x2="263.0" y2="519.0" stroke="#999"/>
<text x="263.0" y="531.0" text-anchor="end" fill="#e8731a" transform="rotate(-50 263.0 531.0)">07-01</text>
<line x1="328.0" y1="516.0" x2="328.0" y2="519.0" stroke="#999"/>
<text x="328.0" y="531.0" text-anchor="end" fill="#e8731a" transform="rotate(-50 328.0 531.0)">07-02</text>
<line x1="393.0" y1="516.0" x2="393.0" y2="519.0" stroke="#999"/>
<text x="393.0" y="531.0" text-anchor="end" fill="#e8731a" transform="rotate(-50 393.0 531.0)">07-03</text>
<line x1="458.0" y1="516.0" x2="458.0" y2="519.0" stroke="#999"/>
<text x="458.0" y="531.0" text-anchor="end" fill="#e8731a" transform="rotate(-50 458.0 531.0)">07-06</text>
<line x1="523.0" y1="516.0" x2="523.0" y2="519.0" stroke="#999"/>
<text x="523.0" y="531.0" text-anchor="end" fill="#e8731a" transform="rotate(-50 523.0 531.0)">07-07</text>
<line x1="588.0" y1="516.0" x2="588.0" y2="519.0" stroke="#999"/>
<text x="588.0" y="531.0" text-anchor="end" fill="#e8731a" transform="rotate(-50 588.0 531.0)">07-08</text>
<line x1="653.0" y1="516.0" x2="653.0" y2="519.0" stroke="#999"/>
<text x="653.0" y="531.0" text-anchor="end" fill="#e8731a" transform="rotate(-50 653.0 531.0)">07-09</text>
<line x1="718.0" y1="516.0" x2="718.0" y2="519.0" stroke="#999"/>
<text x="718.0" y="531.0" text-anchor="end" fill="#e8731a" transform="rotate(-50 718.0 531.0)">07-10</text>
<line x1="783.0" y1="516.0" x2="783.0" y2="519.0" stroke="#999"/>
<text x="783.0" y="531.0" text-anchor="end" fill="#e8731a" transform="rotate(-50 783.0 531.0)">07-11</text>
<line x1="848.0" y1="516.0" x2="848.0" y2="519.0" stroke="#999"/>
<text x="848.0" y="531.0" text-anchor="end" fill="#e8731a" transform="rotate(-50 848.0 531.0)">07-14</text>
<line x1="913.0" y1="516.0" x2="913.0" y2="519.0" stroke="#999"/>
<text x="913.0" y="531.0" text-anchor="end" fill="#e8731a" transform="rotate(-50 913.0 531.0)">07-15</text>
<line x1="978.0" y1="516.0" x2="978.0" y2="519.0" stroke="#999"/>
<text x="978.0" y="531.0" text-anchor="end" fill="#e8731a" transform="rotate(-50 978.0 531.0)">07-15</text>
<line x1="1043.0" y1="516.0" x2="1043.0" y2="519.0" stroke="#999"/>
<text x="1043.0" y="531.0" text-anchor="end" fill="#e8731a" transform="rotate(-50 1043.0 531.0)">07-16</text>
<line x1="1108.0" y1="516.0" x2="1108.0" y2="519.0" stroke="#999"/>
<text x="1108.0" y="531.0" text-anchor="end" fill="#e8731a" transform="rotate(-50 1108.0 531.0)">07-17</text>
<polygon points="68.0,488.5 133.0,488.4 198.0,487.2 263.0,488.8 328.0,488.3 393.0,488.6 458.0,487.8 523.0,488.4 588.0,488.5 653.0,487.7 718.0,488.6 783.0,488.7 848.0,488.9 913.0,489.1 978.0,489.3 1043.0,488.9 1108.0,489.1 1108.0,516.0 1043.0,516.0 978.0,516.0 913.0,516.0 848.0,516.0 783.0,516.0 718.0,516.0 653.0,516.0 588.0,516.0 523.0,516.0 458.0,516.0 393.0,516.0 328.0,516.0 263.0,516.0 198.0,516.0 133.0,516.0 68.0,516.0" fill="#c7e9c0" fill-opacity="0.9" stroke="#fff" stroke-width="0.4"><title>rt_renderer_specialize — apiCreateGlobalSession</title></polygon>
<polygon points="68.0,488.5 133.0,488.4 198.0,487.2 263.0,488.8 328.0,488.3 393.0,488.6 458.0,487.8 523.0,488.4 588.0,488.4 653.0,487.7 718.0,488.5 783.0,488.7 848.0,488.9 913.0,489.1 978.0,489.3 1043.0,488.9 1108.0,489.1 1108.0,489.1 1043.0,488.9 978.0,489.3 913.0,489.1 848.0,488.9 783.0,488.7 718.0,488.6 653.0,487.7 588.0,488.5 523.0,488.4 458.0,487.8 393.0,488.6 328.0,488.3 263.0,488.8 198.0,487.2 133.0,488.4 68.0,488.5" fill="#41ab5d" fill-opacity="0.9" stroke="#fff" stroke-width="0.4"><title>rt_renderer_specialize — apiCreateSession</title></polygon>
<polygon points="68.0,352.8 133.0,352.6 198.0,351.0 263.0,352.6 328.0,348.9 393.0,348.6 458.0,347.5 523.0,348.5 588.0,350.7 653.0,348.4 718.0,347.9 783.0,346.1 848.0,348.8 913.0,355.4 978.0,355.0 1043.0,332.0 1108.0,333.1 1108.0,489.1 1043.0,488.9 978.0,489.3 913.0,489.1 848.0,488.9 783.0,488.7 718.0,488.5 653.0,487.7 588.0,488.4 523.0,488.4 458.0,487.8 393.0,488.6 328.0,488.3 263.0,488.8 198.0,487.2 133.0,488.4 68.0,488.5" fill="#2171b5" fill-opacity="0.9" stroke="#fff" stroke-width="0.4"><title>rt_renderer_specialize — apiLoadModule</title></polygon>
<polygon points="68.0,352.6 133.0,352.3 198.0,350.8 263.0,352.4 328.0,348.7 393.0,348.3 458.0,347.3 523.0,348.3 588.0,350.5 653.0,348.1 718.0,347.7 783.0,345.9 848.0,348.6 913.0,355.1 978.0,354.7 1043.0,331.8 1108.0,332.9 1108.0,333.1 1043.0,332.0 978.0,355.0 913.0,355.4 848.0,348.8 783.0,346.1 718.0,347.9 653.0,348.4 588.0,350.7 523.0,348.5 458.0,347.5 393.0,348.6 328.0,348.9 263.0,352.6 198.0,351.0 133.0,352.6 68.0,352.8" fill="#9e9ac8" fill-opacity="0.9" stroke="#fff" stroke-width="0.4"><title>rt_renderer_specialize — apiComposite</title></polygon>
<polygon points="68.0,347.8 133.0,347.5 198.0,345.9 263.0,347.7 328.0,343.8 393.0,343.3 458.0,342.3 523.0,343.1 588.0,345.5 653.0,343.1 718.0,342.8 783.0,340.8 848.0,343.7 913.0,350.5 978.0,350.1 1043.0,327.0 1108.0,328.1 1108.0,332.9 1043.0,331.8 978.0,354.7 913.0,355.1 848.0,348.6 783.0,345.9 718.0,347.7 653.0,348.1 588.0,350.5 523.0,348.3 458.0,347.3 393.0,348.3 328.0,348.7 263.0,352.4 198.0,350.8 133.0,352.3 68.0,352.6" fill="#807dba" fill-opacity="0.9" stroke="#fff" stroke-width="0.4"><title>rt_renderer_specialize — apiSpecialize</title></polygon>
<polygon points="68.0,346.8 133.0,346.5 198.0,344.9 263.0,346.6 328.0,342.8 393.0,342.1 458.0,341.3 523.0,342.0 588.0,344.6 653.0,342.1 718.0,341.8 783.0,339.8 848.0,342.7 913.0,349.4 978.0,348.9 1043.0,325.8 1108.0,326.9 1108.0,328.1 1043.0,327.0 978.0,350.1 913.0,350.5 848.0,343.7 783.0,340.8 718.0,342.8 653.0,343.1 588.0,345.5 523.0,343.1 458.0,342.3 393.0,343.3 328.0,343.8 263.0,347.7 198.0,345.9 133.0,347.5 68.0,347.8" fill="#6a51a3" fill-opacity="0.9" stroke="#fff" stroke-width="0.4"><title>rt_renderer_specialize — apiLink</title></polygon>
<polygon points="68.0,117.5 133.0,116.4 198.0,115.3 263.0,114.2 328.0,110.0 393.0,111.4 458.0,108.6 523.0,121.5 588.0,125.0 653.0,122.0 718.0,127.4 783.0,131.9 848.0,133.2 913.0,164.0 978.0,162.6 1043.0,140.7 1108.0,140.9 1108.0,326.9 1043.0,325.8 978.0,348.9 913.0,349.4 848.0,342.7 783.0,339.8 718.0,341.8 653.0,342.1 588.0,344.6 523.0,342.0 458.0,341.3 393.0,342.1 328.0,342.8 263.0,346.6 198.0,344.9 133.0,346.5 68.0,346.8" fill="#fd8d3c" fill-opacity="0.9" stroke="#fff" stroke-width="0.4"><title>rt_renderer_specialize — apiGetCode</title></polygon>
<polygon points="68.0,117.0 133.0,114.1 198.0,114.3 263.0,113.1 328.0,109.1 393.0,110.0 458.0,108.6 523.0,120.3 588.0,124.5 653.0,121.8 718.0,126.7 783.0,130.7 848.0,132.8 913.0,163.7 978.0,162.2 1043.0,140.4 1108.0,140.6 1108.0,140.9 1043.0,140.7 978.0,162.6 913.0,164.0 848.0,133.2 783.0,131.9 718.0,127.4 653.0,122.0 588.0,125.0 523.0,121.5 458.0,108.6 393.0,111.4 328.0,110.0 263.0,114.2 198.0,115.3 133.0,116.4 68.0,117.5" fill="#969696" fill-opacity="0.9" stroke="#fff" stroke-width="0.4"><title>rt_renderer_specialize — apiTotal (self)</title></polygon>
<text x="12" y="578" fill="#666" font-weight="600">phase buckets</text>
<rect x="12" y="586" width="12" height="12" fill="#c7e9c0"/>
<text x="28" y="596" fill="#222">apiCreateGlobalSession</text>
<rect x="289" y="586" width="12" height="12" fill="#41ab5d"/>
<text x="305" y="596" fill="#222">apiCreateSession</text>
<rect x="566" y="586" width="12" height="12" fill="#2171b5"/>
<text x="582" y="596" fill="#222">apiLoadModule</text>
<rect x="843" y="586" width="12" height="12" fill="#6baed6"/>
<text x="859" y="596" fill="#222">apiFindEntryPoint</text>
<rect x="12" y="604" width="12" height="12" fill="#9e9ac8"/>
<text x="28" y="614" fill="#222">apiComposite</text>
<rect x="289" y="604" width="12" height="12" fill="#807dba"/>
<text x="305" y="614" fill="#222">apiSpecialize</text>
<rect x="566" y="604" width="12" height="12" fill="#6a51a3"/>
<text x="582" y="614" fill="#222">apiLink</text>
<rect x="843" y="604" width="12" height="12" fill="#fd8d3c"/>
<text x="859" y="614" fill="#222">apiGetCode</text>
<rect x="12" y="622" width="12" height="12" fill="#b5bdc4"/>
<text x="28" y="632" fill="#222">apiReflection</text>
<rect x="289" y="622" width="12" height="12" fill="#969696"/>
<text x="305" y="632" fill="#222">apiTotal (self)</text>
</svg>