<svg xmlns="http://www.w3.org/2000/svg" xmlns:xlink="http://www.w3.org/1999/xlink" width="1132" height="662" viewBox="0 0 1132 662" preserveAspectRatio="xMidYMid meet" font-family="sans-serif" font-size="13">
<rect width="1132" height="662" fill="white"/>
<text x="12" y="30" font-size="20" font-weight="bold">rt_renderer_specialize — Across releases (median ms)</text>
<text x="68" y="60" font-size="15" font-weight="600" fill="#1a1a1a">rt_renderer_specialize<tspan fill="#888" font-weight="400" text-decoration="none">  1.17×</tspan></text>
<line x1="68.0" y1="516.0" x2="1108.0" y2="516.0" stroke="#eee"/>
<text x="64.0" y="519.0" text-anchor="end" fill="#999">0.0</text>
<line x1="68.0" y1="296.0" x2="1108.0" y2="296.0" stroke="#eee"/>
<text x="64.0" y="299.0" text-anchor="end" fill="#999">1929</text>
<line x1="68.0" y1="76.0" x2="1108.0" y2="76.0" stroke="#eee"/>
<text x="64.0" y="79.0" text-anchor="end" fill="#999">3859</text>
<line x1="68.0" y1="76.0" x2="68.0" y2="516.0" stroke="#333"/>
<line x1="68.0" y1="516.0" x2="1108.0" y2="516.0" stroke="#333"/>
<line x1="68.0" y1="516.0" x2="68.0" y2="519.0" stroke="#999"/>
<text x="68.0" y="531.0" text-anchor="end" fill="#666" transform="rotate(-50 68.0 531.0)">25.12</text>
<line x1="108.0" y1="516.0" x2="108.0" y2="519.0" stroke="#999"/>
<text x="108.0" y="531.0" text-anchor="end" fill="#666" transform="rotate(-50 108.0 531.0)">25.13</text>
<line x1="148.0" y1="516.0" x2="148.0" y2="519.0" stroke="#999"/>
<text x="148.0" y="531.0" text-anchor="end" fill="#666" transform="rotate(-50 148.0 531.0)">25.14</text>
<line x1="188.0" y1="516.0" x2="188.0" y2="519.0" stroke="#999"/>
<text x="188.0" y="531.0" text-anchor="end" fill="#666" transform="rotate(-50 188.0 531.0)">25.15</text>
<line x1="228.0" y1="516.0" x2="228.0" y2="519.0" stroke="#999"/>
<text x="228.0" y="531.0" text-anchor="end" fill="#666" transform="rotate(-50 228.0 531.0)">25.16</text>
<line x1="268.0" y1="516.0" x2="268.0" y2="519.0" stroke="#999"/>
<text x="268.0" y="531.0" text-anchor="end" fill="#666" transform="rotate(-50 268.0 531.0)">25.17</text>
<line x1="308.0" y1="516.0" x2="308.0" y2="519.0" stroke="#999"/>
<text x="308.0" y="531.0" text-anchor="end" fill="#666" transform="rotate(-50 308.0 531.0)">25.18</text>
<line x1="348.0" y1="516.0" x2="348.0" y2="519.0" stroke="#999"/>
<text x="348.0" y="531.0" text-anchor="end" fill="#666" transform="rotate(-50 348.0 531.0)">25.19</text>
<line x1="388.0" y1="516.0" x2="388.0" y2="519.0" stroke="#999"/>
<text x="388.0" y="531.0" text-anchor="end" fill="#666" transform="rotate(-50 388.0 531.0)">25.20</text>
<line x1="428.0" y1="516.0" x2="428.0" y2="519.0" stroke="#999"/>
<text x="428.0" y="531.0" text-anchor="end" fill="#666" transform="rotate(-50 428.0 531.0)">25.21</text>
<line x1="468.0" y1="516.0" x2="468.0" y2="519.0" stroke="#999"/>
<text x="468.0" y="531.0" text-anchor="end" fill="#666" transform="rotate(-50 468.0 531.0)">25.22</text>
<line x1="508.0" y1="516.0" x2="508.0" y2="519.0" stroke="#999"/>
<text x="508.0" y="531.0" text-anchor="end" fill="#666" transform="rotate(-50 508.0 531.0)">25.23</text>
<line x1="548.0" y1="516.0" x2="548.0" y2="519.0" stroke="#999"/>
<text x="548.0" y="531.0" text-anchor="end" fill="#666" transform="rotate(-50 548.0 531.0)">25.24</text>
<line x1="588.0" y1="516.0" x2="588.0" y2="519.0" stroke="#999"/>
<text x="588.0" y="531.0" text-anchor="end" fill="#666" transform="rotate(-50 588.0 531.0)">26.1</text>
<line x1="628.0" y1="516.0" x2="628.0" y2="519.0" stroke="#999"/>
<text x="628.0" y="531.0" text-anchor="end" fill="#666" transform="rotate(-50 628.0 531.0)">26.2</text>
<line x1="668.0" y1="516.0" x2="668.0" y2="519.0" stroke="#999"/>
<text x="668.0" y="531.0" text-anchor="end" fill="#666" transform="rotate(-50 668.0 531.0)">26.3</text>
<line x1="708.0" y1="516.0" x2="708.0" y2="519.0" stroke="#999"/>
<text x="708.0" y="531.0" text-anchor="end" fill="#666" transform="rotate(-50 708.0 531.0)">26.4</text>
<line x1="748.0" y1="516.0" x2="748.0" y2="519.0" stroke="#999"/>
<text x="748.0" y="531.0" text-anchor="end" fill="#666" transform="rotate(-50 748.0 531.0)">26.5</text>
<line x1="788.0" y1="516.0" x2="788.0" y2="519.0" stroke="#999"/>
<text x="788.0" y="531.0" text-anchor="end" fill="#666" transform="rotate(-50 788.0 531.0)">26.7</text>
<line x1="828.0" y1="516.0" x2="828.0" y2="519.0" stroke="#999"/>
<text x="828.0" y="531.0" text-anchor="end" fill="#666" transform="rotate(-50 828.0 531.0)">26.8</text>
<line x1="868.0" y1="516.0" x2="868.0" y2="519.0" stroke="#999"/>
<text x="868.0" y="531.0" text-anchor="end" fill="#666" transform="rotate(-50 868.0 531.0)">26.9</text>
<line x1="908.0" y1="516.0" x2="908.0" y2="519.0" stroke="#999"/>
<text x="908.0" y="531.0" text-anchor="end" fill="#666" transform="rotate(-50 908.0 531.0)">26.10</text>
<line x1="948.0" y1="516.0" x2="948.0" y2="519.0" stroke="#999"/>
<text x="948.0" y="531.0" text-anchor="end" fill="#666" transform="rotate(-50 948.0 531.0)">26.11</text>
<line x1="988.0" y1="516.0" x2="988.0" y2="519.0" stroke="#999"/>
<text x="988.0" y="531.0" text-anchor="end" fill="#666" transform="rotate(-50 988.0 531.0)">26.12</text>
<line x1="1028.0" y1="516.0" x2="1028.0" y2="519.0" stroke="#999"/>
<text x="1028.0" y="531.0" text-anchor="end" fill="#666" transform="rotate(-50 1028.0 531.0)">26.13</text>
<line x1="1068.0" y1="516.0" x2="1068.0" y2="519.0" stroke="#999"/>
<text x="1068.0" y="531.0" text-anchor="end" fill="#666" transform="rotate(-50 1068.0 531.0)">26.13.1</text>
<line x1="1108.0" y1="516.0" x2="1108.0" y2="519.0" stroke="#999"/>
<text x="1108.0" y="531.0" text-anchor="end" fill="#666" transform="rotate(-50 1108.0 531.0)">26.14</text>
<polygon points="68.0,486.0 108.0,488.6 148.0,484.4 188.0,507.8 228.0,508.2 268.0,508.3 308.0,508.4 348.0,508.3 388.0,508.2 428.0,508.1 468.0,511.2 508.0,511.2 548.0,511.2 588.0,511.0 628.0,511.2 668.0,511.0 708.0,511.0 748.0,511.0 788.0,501.9 828.0,503.2 868.0,504.0 908.0,502.2 948.0,501.7 988.0,503.4 1028.0,503.4 1068.0,503.4 1108.0,506.2 1108.0,516.0 1068.0,516.0 1028.0,516.0 988.0,516.0 948.0,516.0 908.0,516.0 868.0,516.0 828.0,516.0 788.0,516.0 748.0,516.0 708.0,516.0 668.0,516.0 628.0,516.0 588.0,516.0 548.0,516.0 508.0,516.0 468.0,516.0 428.0,516.0 388.0,516.0 348.0,516.0 308.0,516.0 268.0,516.0 228.0,516.0 188.0,516.0 148.0,516.0 108.0,516.0 68.0,516.0" fill="#c7e9c0" fill-opacity="0.9" stroke="#fff" stroke-width="0.4"><title>rt_renderer_specialize — apiCreateGlobalSession</title></polygon>
<polygon points="68.0,486.0 108.0,488.5 148.0,484.4 188.0,507.8 228.0,508.2 268.0,508.3 308.0,508.4 348.0,508.3 388.0,508.2 428.0,508.1 468.0,511.2 508.0,511.2 548.0,511.2 588.0,511.0 628.0,511.2 668.0,511.0 708.0,511.0 748.0,511.0 788.0,501.9 828.0,503.2 868.0,504.0 908.0,502.2 948.0,501.7 988.0,503.4 1028.0,503.4 1068.0,503.3 1108.0,506.2 1108.0,506.2 1068.0,503.4 1028.0,503.4 988.0,503.4 948.0,501.7 908.0,502.2 868.0,504.0 828.0,503.2 788.0,501.9 748.0,511.0 708.0,511.0 668.0,511.0 628.0,511.2 588.0,511.0 548.0,511.2 508.0,511.2 468.0,511.2 428.0,508.1 388.0,508.2 348.0,508.3 308.0,508.4 268.0,508.3 228.0,508.2 188.0,507.8 148.0,484.4 108.0,488.6 68.0,486.0" fill="#41ab5d" fill-opacity="0.9" stroke="#fff" stroke-width="0.4"><title>rt_renderer_specialize — apiCreateSession</title></polygon>
<polygon points="68.0,449.2 108.0,448.2 148.0,440.4 188.0,460.8 228.0,460.5 268.0,463.2 308.0,463.3 348.0,463.4 388.0,462.9 428.0,463.0 468.0,466.0 508.0,465.8 548.0,465.9 588.0,464.1 628.0,462.7 668.0,462.3 708.0,461.7 748.0,461.5 788.0,395.3 828.0,415.0 868.0,416.5 908.0,412.1 948.0,436.5 988.0,442.6 1028.0,441.5 1068.0,440.1 1108.0,445.9 1108.0,506.2 1068.0,503.3 1028.0,503.4 988.0,503.4 948.0,501.7 908.0,502.2 868.0,504.0 828.0,503.2 788.0,501.9 748.0,511.0 708.0,511.0 668.0,511.0 628.0,511.2 588.0,511.0 548.0,511.2 508.0,511.2 468.0,511.2 428.0,508.1 388.0,508.2 348.0,508.3 308.0,508.4 268.0,508.3 228.0,508.2 188.0,507.8 148.0,484.4 108.0,488.5 68.0,486.0" fill="#2171b5" fill-opacity="0.9" stroke="#fff" stroke-width="0.4"><title>rt_renderer_specialize — apiLoadModule</title></polygon>
<polygon points="68.0,449.1 108.0,448.0 148.0,440.3 188.0,460.6 228.0,460.3 268.0,463.1 308.0,463.2 348.0,463.3 388.0,462.8 428.0,462.9 468.0,465.9 508.0,465.7 548.0,465.8 588.0,464.0 628.0,462.6 668.0,462.2 708.0,461.6 748.0,461.4 788.0,395.1 828.0,414.8 868.0,416.4 908.0,412.0 948.0,436.4 988.0,442.5 1028.0,441.4 1068.0,440.0 1108.0,445.7 1108.0,445.9 1068.0,440.1 1028.0,441.5 988.0,442.6 948.0,436.5 908.0,412.1 868.0,416.5 828.0,415.0 788.0,395.3 748.0,461.5 708.0,461.7 668.0,462.3 628.0,462.7 588.0,464.1 548.0,465.9 508.0,465.8 468.0,466.0 428.0,463.0 388.0,462.9 348.0,463.4 308.0,463.3 268.0,463.2 228.0,460.5 188.0,460.8 148.0,440.4 108.0,448.2 68.0,449.2" fill="#9e9ac8" fill-opacity="0.9" stroke="#fff" stroke-width="0.4"><title>rt_renderer_specialize — apiComposite</title></polygon>
<polygon points="68.0,447.6 108.0,446.5 148.0,438.6 188.0,458.9 228.0,458.7 268.0,461.4 308.0,461.5 348.0,461.6 388.0,461.1 428.0,461.2 468.0,464.1 508.0,464.0 548.0,464.1 588.0,462.1 628.0,460.6 668.0,460.2 708.0,459.6 748.0,459.4 788.0,392.1 828.0,412.5 868.0,414.1 908.0,409.6 948.0,433.9 988.0,440.3 1028.0,439.1 1068.0,437.6 1108.0,444.1 1108.0,445.7 1068.0,440.0 1028.0,441.4 988.0,442.5 948.0,436.4 908.0,412.0 868.0,416.4 828.0,414.8 788.0,395.1 748.0,461.4 708.0,461.6 668.0,462.2 628.0,462.6 588.0,464.0 548.0,465.8 508.0,465.7 468.0,465.9 428.0,462.9 388.0,462.8 348.0,463.3 308.0,463.2 268.0,463.1 228.0,460.3 188.0,460.6 148.0,440.3 108.0,448.0 68.0,449.1" fill="#807dba" fill-opacity="0.9" stroke="#fff" stroke-width="0.4"><title>rt_renderer_specialize — apiSpecialize</title></polygon>
<polygon points="68.0,447.0 108.0,445.6 148.0,438.1 188.0,458.4 228.0,458.1 268.0,461.0 308.0,461.0 348.0,461.2 388.0,460.6 428.0,460.8 468.0,463.7 508.0,463.5 548.0,463.7 588.0,461.6 628.0,460.2 668.0,459.7 708.0,459.2 748.0,459.0 788.0,391.5 828.0,411.9 868.0,413.6 908.0,409.1 948.0,433.3 988.0,439.8 1028.0,438.6 1068.0,437.1 1108.0,443.5 1108.0,444.1 1068.0,437.6 1028.0,439.1 988.0,440.3 948.0,433.9 908.0,409.6 868.0,414.1 828.0,412.5 788.0,392.1 748.0,459.4 708.0,459.6 668.0,460.2 628.0,460.6 588.0,462.1 548.0,464.1 508.0,464.0 468.0,464.1 428.0,461.2 388.0,461.1 348.0,461.6 308.0,461.5 268.0,461.4 228.0,458.7 188.0,458.9 148.0,438.6 108.0,446.5 68.0,447.6" fill="#6a51a3" fill-opacity="0.9" stroke="#fff" stroke-width="0.4"><title>rt_renderer_specialize — apiLink</title></polygon>
<polygon points="68.0,397.2 108.0,395.3 148.0,381.2 188.0,400.3 228.0,402.7 268.0,407.1 308.0,409.4 348.0,408.8 388.0,408.6 428.0,408.5 468.0,411.3 508.0,411.2 548.0,409.0 588.0,402.4 628.0,399.1 668.0,398.4 708.0,396.7 748.0,392.2 788.0,108.6 828.0,215.9 868.0,221.4 908.0,211.0 948.0,314.7 988.0,343.6 1028.0,345.5 1068.0,345.7 1108.0,376.8 1108.0,443.5 1068.0,437.1 1028.0,438.6 988.0,439.8 948.0,433.3 908.0,409.1 868.0,413.6 828.0,411.9 788.0,391.5 748.0,459.0 708.0,459.2 668.0,459.7 628.0,460.2 588.0,461.6 548.0,463.7 508.0,463.5 468.0,463.7 428.0,460.8 388.0,460.6 348.0,461.2 308.0,461.0 268.0,461.0 228.0,458.1 188.0,458.4 148.0,438.1 108.0,445.6 68.0,447.0" fill="#fd8d3c" fill-opacity="0.9" stroke="#fff" stroke-width="0.4"><title>rt_renderer_specialize — apiGetCode</title></polygon>
<polygon points="68.0,396.7 108.0,395.0 148.0,380.2 188.0,393.9 228.0,402.2 268.0,406.7 308.0,409.3 348.0,408.4 388.0,408.3 428.0,408.3 468.0,410.9 508.0,410.8 548.0,408.7 588.0,402.2 628.0,398.1 668.0,398.0 708.0,396.5 748.0,392.2 788.0,108.6 828.0,215.9 868.0,220.3 908.0,210.8 948.0,312.4 988.0,343.5 1028.0,345.3 1068.0,345.3 1108.0,376.8 1108.0,376.8 1068.0,345.7 1028.0,345.5 988.0,343.6 948.0,314.7 908.0,211.0 868.0,221.4 828.0,215.9 788.0,108.6 748.0,392.2 708.0,396.7 668.0,398.4 628.0,399.1 588.0,402.4 548.0,409.0 508.0,411.2 468.0,411.3 428.0,408.5 388.0,408.6 348.0,408.8 308.0,409.4 268.0,407.1 228.0,402.7 188.0,400.3 148.0,381.2 108.0,395.3 68.0,397.2" fill="#969696" fill-opacity="0.9" stroke="#fff" stroke-width="0.4"><title>rt_renderer_specialize — apiTotal (self)</title></polygon>
<text x="12" y="578" fill="#666" font-weight="600">phase buckets</text>
<rect x="12" y="586" width="12" height="12" fill="#c7e9c0"/>
<text x="28" y="596" fill="#222">apiCreateGlobalSession</text>
<rect x="289" y="586" width="12" height="12" fill="#41ab5d"/>
<text x="305" y="596" fill="#222">apiCreateSession</text>
<rect x="566" y="586" width="12" height="12" fill="#2171b5"/>
<text x="582" y="596" fill="#222">apiLoadModule</text>
<rect x="843" y="586" width="12" height="12" fill="#6baed6"/>
<text x="859" y="596" fill="#222">apiFindEntryPoint</text>
<rect x="12" y="604" width="12" height="12" fill="#9e9ac8"/>
<text x="28" y="614" fill="#222">apiComposite</text>
<rect x="289" y="604" width="12" height="12" fill="#807dba"/>
<text x="305" y="614" fill="#222">apiSpecialize</text>
<rect x="566" y="604" width="12" height="12" fill="#6a51a3"/>
<text x="582" y="614" fill="#222">apiLink</text>
<rect x="843" y="604" width="12" height="12" fill="#fd8d3c"/>
<text x="859" y="614" fill="#222">apiGetCode</text>
<rect x="12" y="622" width="12" height="12" fill="#b5bdc4"/>
<text x="28" y="632" fill="#222">apiReflection</text>
<rect x="289" y="622" width="12" height="12" fill="#969696"/>
<text x="305" y="632" fill="#222">apiTotal (self)</text>
</svg>