<svg xmlns="http://www.w3.org/2000/svg" xmlns:xlink="http://www.w3.org/1999/xlink" width="1132" height="662" viewBox="0 0 1132 662" preserveAspectRatio="xMidYMid meet" font-family="sans-serif" font-size="13">
<rect width="1132" height="662" fill="white"/>
<text x="12" y="30" font-size="20" font-weight="bold">rt_renderer — Across releases (median ms)</text>
<text x="68" y="60" font-size="15" font-weight="600" fill="#1a1a1a">rt_renderer<tspan fill="#888" font-weight="400" text-decoration="none">  1.18×</tspan></text>
<line x1="68.0" y1="516.0" x2="1108.0" y2="516.0" stroke="#eee"/>
<text x="64.0" y="519.0" text-anchor="end" fill="#999">0.0</text>
<line x1="68.0" y1="296.0" x2="1108.0" y2="296.0" stroke="#eee"/>
<text x="64.0" y="299.0" text-anchor="end" fill="#999">757</text>
<line x1="68.0" y1="76.0" x2="1108.0" y2="76.0" stroke="#eee"/>
<text x="64.0" y="79.0" text-anchor="end" fill="#999">1515</text>
<line x1="68.0" y1="76.0" x2="68.0" y2="516.0" stroke="#333"/>
<line x1="68.0" y1="516.0" x2="1108.0" y2="516.0" stroke="#333"/>
<line x1="68.0" y1="516.0" x2="68.0" y2="519.0" stroke="#999"/>
<text x="68.0" y="531.0" text-anchor="end" fill="#666" transform="rotate(-50 68.0 531.0)">25.12</text>
<line x1="113.2" y1="516.0" x2="113.2" y2="519.0" stroke="#999"/>
<text x="113.2" y="531.0" text-anchor="end" fill="#666" transform="rotate(-50 113.2 531.0)">25.13</text>
<line x1="158.4" y1="516.0" x2="158.4" y2="519.0" stroke="#999"/>
<text x="158.4" y="531.0" text-anchor="end" fill="#666" transform="rotate(-50 158.4 531.0)">25.14</text>
<line x1="203.7" y1="516.0" x2="203.7" y2="519.0" stroke="#999"/>
<text x="203.7" y="531.0" text-anchor="end" fill="#666" transform="rotate(-50 203.7 531.0)">25.15</text>
<line x1="248.9" y1="516.0" x2="248.9" y2="519.0" stroke="#999"/>
<text x="248.9" y="531.0" text-anchor="end" fill="#666" transform="rotate(-50 248.9 531.0)">25.16</text>
<line x1="294.1" y1="516.0" x2="294.1" y2="519.0" stroke="#999"/>
<text x="294.1" y="531.0" text-anchor="end" fill="#666" transform="rotate(-50 294.1 531.0)">25.17</text>
<line x1="339.3" y1="516.0" x2="339.3" y2="519.0" stroke="#999"/>
<text x="339.3" y="531.0" text-anchor="end" fill="#666" transform="rotate(-50 339.3 531.0)">25.18</text>
<line x1="384.5" y1="516.0" x2="384.5" y2="519.0" stroke="#999"/>
<text x="384.5" y="531.0" text-anchor="end" fill="#666" transform="rotate(-50 384.5 531.0)">25.19</text>
<line x1="429.7" y1="516.0" x2="429.7" y2="519.0" stroke="#999"/>
<text x="429.7" y="531.0" text-anchor="end" fill="#666" transform="rotate(-50 429.7 531.0)">25.20</text>
<line x1="475.0" y1="516.0" x2="475.0" y2="519.0" stroke="#999"/>
<text x="475.0" y="531.0" text-anchor="end" fill="#666" transform="rotate(-50 475.0 531.0)">25.21</text>
<line x1="520.2" y1="516.0" x2="520.2" y2="519.0" stroke="#999"/>
<text x="520.2" y="531.0" text-anchor="end" fill="#666" transform="rotate(-50 520.2 531.0)">25.22</text>
<line x1="565.4" y1="516.0" x2="565.4" y2="519.0" stroke="#999"/>
<text x="565.4" y="531.0" text-anchor="end" fill="#666" transform="rotate(-50 565.4 531.0)">25.23</text>
<line x1="610.6" y1="516.0" x2="610.6" y2="519.0" stroke="#999"/>
<text x="610.6" y="531.0" text-anchor="end" fill="#666" transform="rotate(-50 610.6 531.0)">25.24</text>
<line x1="655.8" y1="516.0" x2="655.8" y2="519.0" stroke="#999"/>
<text x="655.8" y="531.0" text-anchor="end" fill="#666" transform="rotate(-50 655.8 531.0)">26.1</text>
<line x1="701.0" y1="516.0" x2="701.0" y2="519.0" stroke="#999"/>
<text x="701.0" y="531.0" text-anchor="end" fill="#666" transform="rotate(-50 701.0 531.0)">26.2</text>
<line x1="746.3" y1="516.0" x2="746.3" y2="519.0" stroke="#999"/>
<text x="746.3" y="531.0" text-anchor="end" fill="#666" transform="rotate(-50 746.3 531.0)">26.3</text>
<line x1="791.5" y1="516.0" x2="791.5" y2="519.0" stroke="#999"/>
<text x="791.5" y="531.0" text-anchor="end" fill="#666" transform="rotate(-50 791.5 531.0)">26.4</text>
<line x1="836.7" y1="516.0" x2="836.7" y2="519.0" stroke="#999"/>
<text x="836.7" y="531.0" text-anchor="end" fill="#666" transform="rotate(-50 836.7 531.0)">26.5</text>
<line x1="881.9" y1="516.0" x2="881.9" y2="519.0" stroke="#999"/>
<text x="881.9" y="531.0" text-anchor="end" fill="#666" transform="rotate(-50 881.9 531.0)">26.7</text>
<line x1="927.1" y1="516.0" x2="927.1" y2="519.0" stroke="#999"/>
<text x="927.1" y="531.0" text-anchor="end" fill="#666" transform="rotate(-50 927.1 531.0)">26.8</text>
<line x1="972.3" y1="516.0" x2="972.3" y2="519.0" stroke="#999"/>
<text x="972.3" y="531.0" text-anchor="end" fill="#666" transform="rotate(-50 972.3 531.0)">26.9</text>
<line x1="1017.6" y1="516.0" x2="1017.6" y2="519.0" stroke="#999"/>
<text x="1017.6" y="531.0" text-anchor="end" fill="#666" transform="rotate(-50 1017.6 531.0)">26.10</text>
<line x1="1062.8" y1="516.0" x2="1062.8" y2="519.0" stroke="#999"/>
<text x="1062.8" y="531.0" text-anchor="end" fill="#666" transform="rotate(-50 1062.8 531.0)">26.11</text>
<line x1="1108.0" y1="516.0" x2="1108.0" y2="519.0" stroke="#999"/>
<text x="1108.0" y="531.0" text-anchor="end" fill="#666" transform="rotate(-50 1108.0 531.0)">26.12</text>
<polygon points="68.0,440.2 113.2,445.4 158.4,438.1 203.7,495.8 248.9,495.0 294.1,496.3 339.3,496.6 384.5,496.0 429.7,495.9 475.0,496.2 520.2,503.9 565.4,503.8 610.6,503.9 655.8,503.3 701.0,503.2 746.3,503.4 791.5,503.6 836.7,503.2 881.9,478.9 927.1,486.4 972.3,481.7 1017.6,477.6 1062.8,484.8 1108.0,483.5 1108.0,516.0 1062.8,516.0 1017.6,516.0 972.3,516.0 927.1,516.0 881.9,516.0 836.7,516.0 791.5,516.0 746.3,516.0 701.0,516.0 655.8,516.0 610.6,516.0 565.4,516.0 520.2,516.0 475.0,516.0 429.7,516.0 384.5,516.0 339.3,516.0 294.1,516.0 248.9,516.0 203.7,516.0 158.4,516.0 113.2,516.0 68.0,516.0" fill="#c7e9c0" fill-opacity="0.9" stroke="#fff" stroke-width="0.4"><title>rt_renderer — apiCreateGlobalSession</title></polygon>
<polygon points="68.0,440.1 113.2,445.3 158.4,438.1 203.7,495.8 248.9,495.0 294.1,496.3 339.3,496.6 384.5,496.0 429.7,495.9 475.0,496.2 520.2,503.9 565.4,503.8 610.6,503.9 655.8,503.3 701.0,503.2 746.3,503.4 791.5,503.6 836.7,503.2 881.9,478.8 927.1,486.4 972.3,481.7 1017.6,477.6 1062.8,484.8 1108.0,483.5 1108.0,483.5 1062.8,484.8 1017.6,477.6 972.3,481.7 927.1,486.4 881.9,478.9 836.7,503.2 791.5,503.6 746.3,503.4 701.0,503.2 655.8,503.3 610.6,503.9 565.4,503.8 520.2,503.9 475.0,496.2 429.7,495.9 384.5,496.0 339.3,496.6 294.1,496.3 248.9,495.0 203.7,495.8 158.4,438.1 113.2,445.4 68.0,440.2" fill="#41ab5d" fill-opacity="0.9" stroke="#fff" stroke-width="0.4"><title>rt_renderer — apiCreateSession</title></polygon>
<polygon points="68.0,347.1 113.2,341.9 158.4,321.5 203.7,384.3 248.9,372.5 294.1,381.4 339.3,381.7 384.5,380.7 429.7,381.6 475.0,381.0 520.2,388.3 565.4,388.2 610.6,388.9 655.8,382.1 701.0,379.1 746.3,377.8 791.5,377.5 836.7,376.3 881.9,187.8 927.1,264.7 972.3,219.0 1017.6,224.8 1062.8,328.2 1108.0,327.9 1108.0,483.5 1062.8,484.8 1017.6,477.6 972.3,481.7 927.1,486.4 881.9,478.8 836.7,503.2 791.5,503.6 746.3,503.4 701.0,503.2 655.8,503.3 610.6,503.9 565.4,503.8 520.2,503.9 475.0,496.2 429.7,495.9 384.5,496.0 339.3,496.6 294.1,496.3 248.9,495.0 203.7,495.8 158.4,438.1 113.2,445.3 68.0,440.1" fill="#2171b5" fill-opacity="0.9" stroke="#fff" stroke-width="0.4"><title>rt_renderer — apiLoadModule</title></polygon>
<polygon points="68.0,347.1 113.2,341.9 158.4,321.5 203.7,384.3 248.9,372.5 294.1,381.4 339.3,381.7 384.5,380.7 429.7,381.6 475.0,381.0 520.2,388.3 565.4,388.2 610.6,388.9 655.8,382.1 701.0,379.1 746.3,377.8 791.5,377.5 836.7,376.3 881.9,187.8 927.1,264.7 972.3,219.0 1017.6,224.8 1062.8,328.2 1108.0,327.9 1108.0,327.9 1062.8,328.2 1017.6,224.8 972.3,219.0 927.1,264.7 881.9,187.8 836.7,376.3 791.5,377.5 746.3,377.8 701.0,379.1 655.8,382.1 610.6,388.9 565.4,388.2 520.2,388.3 475.0,381.0 429.7,381.6 384.5,380.7 339.3,381.7 294.1,381.4 248.9,372.5 203.7,384.3 158.4,321.5 113.2,341.9 68.0,347.1" fill="#6baed6" fill-opacity="0.9" stroke="#fff" stroke-width="0.4"><title>rt_renderer — apiFindEntryPoint</title></polygon>
<polygon points="68.0,347.0 113.2,341.8 158.4,321.4 203.7,384.2 248.9,372.5 294.1,381.4 339.3,381.7 384.5,380.6 429.7,381.6 475.0,381.0 520.2,388.3 565.4,388.2 610.6,388.9 655.8,382.1 701.0,379.0 746.3,377.8 791.5,377.5 836.7,376.3 881.9,187.8 927.1,264.7 972.3,219.0 1017.6,224.8 1062.8,328.2 1108.0,327.9 1108.0,327.9 1062.8,328.2 1017.6,224.8 972.3,219.0 927.1,264.7 881.9,187.8 836.7,376.3 791.5,377.5 746.3,377.8 701.0,379.1 655.8,382.1 610.6,388.9 565.4,388.2 520.2,388.3 475.0,381.0 429.7,381.6 384.5,380.7 339.3,381.7 294.1,381.4 248.9,372.5 203.7,384.3 158.4,321.5 113.2,341.9 68.0,347.1" fill="#9e9ac8" fill-opacity="0.9" stroke="#fff" stroke-width="0.4"><title>rt_renderer — apiComposite</title></polygon>
<polygon points="68.0,347.0 113.2,341.7 158.4,321.3 203.7,384.2 248.9,372.3 294.1,381.4 339.3,381.6 384.5,380.6 429.7,381.5 475.0,380.9 520.2,388.3 565.4,388.1 610.6,388.8 655.8,382.0 701.0,379.0 746.3,377.7 791.5,377.5 836.7,376.2 881.9,187.7 927.1,264.6 972.3,219.0 1017.6,224.7 1062.8,328.1 1108.0,327.8 1108.0,327.9 1062.8,328.2 1017.6,224.8 972.3,219.0 927.1,264.7 881.9,187.8 836.7,376.3 791.5,377.5 746.3,377.8 701.0,379.0 655.8,382.1 610.6,388.9 565.4,388.2 520.2,388.3 475.0,381.0 429.7,381.6 384.5,380.6 339.3,381.7 294.1,381.4 248.9,372.5 203.7,384.2 158.4,321.4 113.2,341.8 68.0,347.0" fill="#6a51a3" fill-opacity="0.9" stroke="#fff" stroke-width="0.4"><title>rt_renderer — apiLink</title></polygon>
<polygon points="68.0,329.2 113.2,317.1 158.4,297.1 203.7,362.3 248.9,349.4 294.1,360.0 339.3,361.8 384.5,360.0 429.7,360.6 475.0,360.3 520.2,367.8 565.4,367.7 610.6,367.3 655.8,359.8 701.0,356.1 746.3,354.8 791.5,354.3 836.7,352.8 881.9,108.6 927.1,207.3 972.3,146.5 1017.6,151.9 1062.8,291.0 1108.0,294.2 1108.0,327.8 1062.8,328.1 1017.6,224.7 972.3,219.0 927.1,264.6 881.9,187.7 836.7,376.2 791.5,377.5 746.3,377.7 701.0,379.0 655.8,382.0 610.6,388.8 565.4,388.1 520.2,388.3 475.0,380.9 429.7,381.5 384.5,380.6 339.3,381.6 294.1,381.4 248.9,372.3 203.7,384.2 158.4,321.3 113.2,341.7 68.0,347.0" fill="#fd8d3c" fill-opacity="0.9" stroke="#fff" stroke-width="0.4"><title>rt_renderer — apiGetCode</title></polygon>
<polygon points="68.0,328.5 113.2,317.1 158.4,295.3 203.7,361.9 248.9,349.4 294.1,359.8 339.3,361.7 384.5,360.0 429.7,360.6 475.0,359.6 520.2,367.4 565.4,367.6 610.6,367.3 655.8,359.7 701.0,356.1 746.3,354.0 791.5,354.1 836.7,352.6 881.9,108.6 927.1,205.9 972.3,144.1 1017.6,149.6 1062.8,291.0 1108.0,294.2 1108.0,294.2 1062.8,291.0 1017.6,151.9 972.3,146.5 927.1,207.3 881.9,108.6 836.7,352.8 791.5,354.3 746.3,354.8 701.0,356.1 655.8,359.8 610.6,367.3 565.4,367.7 520.2,367.8 475.0,360.3 429.7,360.6 384.5,360.0 339.3,361.8 294.1,360.0 248.9,349.4 203.7,362.3 158.4,297.1 113.2,317.1 68.0,329.2" fill="#969696" fill-opacity="0.9" stroke="#fff" stroke-width="0.4"><title>rt_renderer — apiTotal (self)</title></polygon>
<text x="12" y="578" fill="#666" font-weight="600">phase buckets</text>
<rect x="12" y="586" width="12" height="12" fill="#c7e9c0"/>
<text x="28" y="596" fill="#222">apiCreateGlobalSession</text>
<rect x="289" y="586" width="12" height="12" fill="#41ab5d"/>
<text x="305" y="596" fill="#222">apiCreateSession</text>
<rect x="566" y="586" width="12" height="12" fill="#2171b5"/>
<text x="582" y="596" fill="#222">apiLoadModule</text>
<rect x="843" y="586" width="12" height="12" fill="#6baed6"/>
<text x="859" y="596" fill="#222">apiFindEntryPoint</text>
<rect x="12" y="604" width="12" height="12" fill="#9e9ac8"/>
<text x="28" y="614" fill="#222">apiComposite</text>
<rect x="289" y="604" width="12" height="12" fill="#807dba"/>
<text x="305" y="614" fill="#222">apiSpecialize</text>
<rect x="566" y="604" width="12" height="12" fill="#6a51a3"/>
<text x="582" y="614" fill="#222">apiLink</text>
<rect x="843" y="604" width="12" height="12" fill="#fd8d3c"/>
<text x="859" y="614" fill="#222">apiGetCode</text>
<rect x="12" y="622" width="12" height="12" fill="#b5bdc4"/>
<text x="28" y="632" fill="#222">apiReflection</text>
<rect x="289" y="622" width="12" height="12" fill="#969696"/>
<text x="305" y="632" fill="#222">apiTotal (self)</text>
</svg>