<svg xmlns="http://www.w3.org/2000/svg" xmlns:xlink="http://www.w3.org/1999/xlink" width="1132" height="662" viewBox="0 0 1132 662" preserveAspectRatio="xMidYMid meet" font-family="sans-serif" font-size="13">
<rect width="1132" height="662" fill="white"/>
<text x="12" y="30" font-size="20" font-weight="bold">rt_renderer — Daily tip-of-tree (last 30 days) (median ms)</text>
<text x="68" y="60" font-size="15" font-weight="600" fill="#1a1a1a">rt_renderer<tspan fill="#888" font-weight="400" text-decoration="none">  1.06×</tspan></text>
<line x1="68.0" y1="516.0" x2="1108.0" y2="516.0" stroke="#eee"/>
<text x="64.0" y="519.0" text-anchor="end" fill="#999">0.0</text>
<line x1="68.0" y1="296.0" x2="1108.0" y2="296.0" stroke="#eee"/>
<text x="64.0" y="299.0" text-anchor="end" fill="#999">457</text>
<line x1="68.0" y1="76.0" x2="1108.0" y2="76.0" stroke="#eee"/>
<text x="64.0" y="79.0" text-anchor="end" fill="#999">914</text>
<line x1="68.0" y1="76.0" x2="68.0" y2="516.0" stroke="#333"/>
<line x1="68.0" y1="516.0" x2="1108.0" y2="516.0" stroke="#333"/>
<line x1="68.0" y1="516.0" x2="68.0" y2="519.0" stroke="#999"/>
<text x="68.0" y="531.0" text-anchor="end" fill="#e8731a" transform="rotate(-50 68.0 531.0)">06-25</text>
<line x1="137.3" y1="516.0" x2="137.3" y2="519.0" stroke="#999"/>
<text x="137.3" y="531.0" text-anchor="end" fill="#e8731a" transform="rotate(-50 137.3 531.0)">06-26</text>
<line x1="206.7" y1="516.0" x2="206.7" y2="519.0" stroke="#999"/>
<text x="206.7" y="531.0" text-anchor="end" fill="#e8731a" transform="rotate(-50 206.7 531.0)">06-28</text>
<line x1="276.0" y1="516.0" x2="276.0" y2="519.0" stroke="#999"/>
<text x="276.0" y="531.0" text-anchor="end" fill="#e8731a" transform="rotate(-50 276.0 531.0)">07-01</text>
<line x1="345.3" y1="516.0" x2="345.3" y2="519.0" stroke="#999"/>
<text x="345.3" y="531.0" text-anchor="end" fill="#e8731a" transform="rotate(-50 345.3 531.0)">07-02</text>
<line x1="414.7" y1="516.0" x2="414.7" y2="519.0" stroke="#999"/>
<text x="414.7" y="531.0" text-anchor="end" fill="#e8731a" transform="rotate(-50 414.7 531.0)">07-03</text>
<line x1="484.0" y1="516.0" x2="484.0" y2="519.0" stroke="#999"/>
<text x="484.0" y="531.0" text-anchor="end" fill="#e8731a" transform="rotate(-50 484.0 531.0)">07-06</text>
<line x1="553.3" y1="516.0" x2="553.3" y2="519.0" stroke="#999"/>
<text x="553.3" y="531.0" text-anchor="end" fill="#e8731a" transform="rotate(-50 553.3 531.0)">07-07</text>
<line x1="622.7" y1="516.0" x2="622.7" y2="519.0" stroke="#999"/>
<text x="622.7" y="531.0" text-anchor="end" fill="#e8731a" transform="rotate(-50 622.7 531.0)">07-08</text>
<line x1="692.0" y1="516.0" x2="692.0" y2="519.0" stroke="#999"/>
<text x="692.0" y="531.0" text-anchor="end" fill="#e8731a" transform="rotate(-50 692.0 531.0)">07-09</text>
<line x1="761.3" y1="516.0" x2="761.3" y2="519.0" stroke="#999"/>
<text x="761.3" y="531.0" text-anchor="end" fill="#e8731a" transform="rotate(-50 761.3 531.0)">07-10</text>
<line x1="830.7" y1="516.0" x2="830.7" y2="519.0" stroke="#999"/>
<text x="830.7" y="531.0" text-anchor="end" fill="#e8731a" transform="rotate(-50 830.7 531.0)">07-11</text>
<line x1="900.0" y1="516.0" x2="900.0" y2="519.0" stroke="#999"/>
<text x="900.0" y="531.0" text-anchor="end" fill="#e8731a" transform="rotate(-50 900.0 531.0)">07-14</text>
<line x1="969.3" y1="516.0" x2="969.3" y2="519.0" stroke="#999"/>
<text x="969.3" y="531.0" text-anchor="end" fill="#e8731a" transform="rotate(-50 969.3 531.0)">07-15</text>
<line x1="1038.7" y1="516.0" x2="1038.7" y2="519.0" stroke="#999"/>
<text x="1038.7" y="531.0" text-anchor="end" fill="#e8731a" transform="rotate(-50 1038.7 531.0)">07-15</text>
<line x1="1108.0" y1="516.0" x2="1108.0" y2="519.0" stroke="#999"/>
<text x="1108.0" y="531.0" text-anchor="end" fill="#e8731a" transform="rotate(-50 1108.0 531.0)">07-16</text>
<polygon points="68.0,460.5 137.3,460.9 206.7,459.8 276.0,462.0 345.3,461.1 414.7,461.8 484.0,460.1 553.3,461.2 622.7,461.6 692.0,460.1 761.3,460.7 830.7,462.1 900.0,462.2 969.3,462.7 1038.7,464.0 1108.0,464.0 1108.0,516.0 1038.7,516.0 969.3,516.0 900.0,516.0 830.7,516.0 761.3,516.0 692.0,516.0 622.7,516.0 553.3,516.0 484.0,516.0 414.7,516.0 345.3,516.0 276.0,516.0 206.7,516.0 137.3,516.0 68.0,516.0" fill="#c7e9c0" fill-opacity="0.9" stroke="#fff" stroke-width="0.4"><title>rt_renderer — apiCreateGlobalSession</title></polygon>
<polygon points="68.0,460.5 137.3,460.9 206.7,459.8 276.0,462.0 345.3,461.1 414.7,461.8 484.0,460.1 553.3,461.2 622.7,461.6 692.0,460.1 761.3,460.7 830.7,462.1 900.0,462.2 969.3,462.7 1038.7,463.9 1108.0,464.0 1108.0,464.0 1038.7,464.0 969.3,462.7 900.0,462.2 830.7,462.1 761.3,460.7 692.0,460.1 622.7,461.6 553.3,461.2 484.0,460.1 414.7,461.8 345.3,461.1 276.0,462.0 206.7,459.8 137.3,460.9 68.0,460.5" fill="#41ab5d" fill-opacity="0.9" stroke="#fff" stroke-width="0.4"><title>rt_renderer — apiCreateSession</title></polygon>
<polygon points="68.0,192.1 137.3,191.3 206.7,191.6 276.0,193.4 345.3,185.8 414.7,185.8 484.0,184.3 553.3,185.2 622.7,187.3 692.0,183.1 761.3,180.5 830.7,178.8 900.0,181.9 969.3,196.8 1038.7,198.2 1108.0,152.7 1108.0,464.0 1038.7,463.9 969.3,462.7 900.0,462.2 830.7,462.1 761.3,460.7 692.0,460.1 622.7,461.6 553.3,461.2 484.0,460.1 414.7,461.8 345.3,461.1 276.0,462.0 206.7,459.8 137.3,460.9 68.0,460.5" fill="#2171b5" fill-opacity="0.9" stroke="#fff" stroke-width="0.4"><title>rt_renderer — apiLoadModule</title></polygon>
<polygon points="68.0,192.1 137.3,191.3 206.7,191.6 276.0,193.4 345.3,185.8 414.7,185.8 484.0,184.3 553.3,185.1 622.7,187.3 692.0,183.1 761.3,180.5 830.7,178.8 900.0,181.9 969.3,196.8 1038.7,198.2 1108.0,152.7 1108.0,152.7 1038.7,198.2 969.3,196.8 900.0,181.9 830.7,178.8 761.3,180.5 692.0,183.1 622.7,187.3 553.3,185.2 484.0,184.3 414.7,185.8 345.3,185.8 276.0,193.4 206.7,191.6 137.3,191.3 68.0,192.1" fill="#6baed6" fill-opacity="0.9" stroke="#fff" stroke-width="0.4"><title>rt_renderer — apiFindEntryPoint</title></polygon>
<polygon points="68.0,192.1 137.3,191.3 206.7,191.6 276.0,193.3 345.3,185.8 414.7,185.8 484.0,184.3 553.3,185.1 622.7,187.3 692.0,183.0 761.3,180.5 830.7,178.8 900.0,181.9 969.3,196.8 1038.7,198.2 1108.0,152.7 1108.0,152.7 1038.7,198.2 969.3,196.8 900.0,181.9 830.7,178.8 761.3,180.5 692.0,183.1 622.7,187.3 553.3,185.1 484.0,184.3 414.7,185.8 345.3,185.8 276.0,193.4 206.7,191.6 137.3,191.3 68.0,192.1" fill="#9e9ac8" fill-opacity="0.9" stroke="#fff" stroke-width="0.4"><title>rt_renderer — apiComposite</title></polygon>
<polygon points="68.0,192.0 137.3,191.2 206.7,191.5 276.0,193.2 345.3,185.7 414.7,185.7 484.0,184.2 553.3,185.0 622.7,187.2 692.0,182.9 761.3,180.4 830.7,178.7 900.0,181.8 969.3,196.7 1038.7,198.1 1108.0,152.6 1108.0,152.7 1038.7,198.2 969.3,196.8 900.0,181.9 830.7,178.8 761.3,180.5 692.0,183.0 622.7,187.3 553.3,185.1 484.0,184.3 414.7,185.8 345.3,185.8 276.0,193.3 206.7,191.6 137.3,191.3 68.0,192.1" fill="#6a51a3" fill-opacity="0.9" stroke="#fff" stroke-width="0.4"><title>rt_renderer — apiLink</title></polygon>
<polygon points="68.0,130.7 137.3,129.9 206.7,130.8 276.0,131.8 345.3,125.3 414.7,126.5 484.0,124.7 553.3,131.4 622.7,133.6 692.0,129.8 761.3,132.9 830.7,132.1 900.0,135.1 969.3,153.7 1038.7,155.3 1108.0,110.2 1108.0,152.6 1038.7,198.1 969.3,196.7 900.0,181.8 830.7,178.7 761.3,180.4 692.0,182.9 622.7,187.2 553.3,185.0 484.0,184.2 414.7,185.7 345.3,185.7 276.0,193.2 206.7,191.5 137.3,191.2 68.0,192.0" fill="#fd8d3c" fill-opacity="0.9" stroke="#fff" stroke-width="0.4"><title>rt_renderer — apiGetCode</title></polygon>
<polygon points="68.0,130.7 137.3,129.3 206.7,130.8 276.0,131.8 345.3,125.3 414.7,126.5 484.0,124.1 553.3,130.8 622.7,133.6 692.0,129.8 761.3,132.6 830.7,132.1 900.0,135.1 969.3,153.7 1038.7,154.1 1108.0,108.6 1108.0,110.2 1038.7,155.3 969.3,153.7 900.0,135.1 830.7,132.1 761.3,132.9 692.0,129.8 622.7,133.6 553.3,131.4 484.0,124.7 414.7,126.5 345.3,125.3 276.0,131.8 206.7,130.8 137.3,129.9 68.0,130.7" fill="#969696" fill-opacity="0.9" stroke="#fff" stroke-width="0.4"><title>rt_renderer — apiTotal (self)</title></polygon>
<text x="12" y="578" fill="#666" font-weight="600">phase buckets</text>
<rect x="12" y="586" width="12" height="12" fill="#c7e9c0"/>
<text x="28" y="596" fill="#222">apiCreateGlobalSession</text>
<rect x="289" y="586" width="12" height="12" fill="#41ab5d"/>
<text x="305" y="596" fill="#222">apiCreateSession</text>
<rect x="566" y="586" width="12" height="12" fill="#2171b5"/>
<text x="582" y="596" fill="#222">apiLoadModule</text>
<rect x="843" y="586" width="12" height="12" fill="#6baed6"/>
<text x="859" y="596" fill="#222">apiFindEntryPoint</text>
<rect x="12" y="604" width="12" height="12" fill="#9e9ac8"/>
<text x="28" y="614" fill="#222">apiComposite</text>
<rect x="289" y="604" width="12" height="12" fill="#807dba"/>
<text x="305" y="614" fill="#222">apiSpecialize</text>
<rect x="566" y="604" width="12" height="12" fill="#6a51a3"/>
<text x="582" y="614" fill="#222">apiLink</text>
<rect x="843" y="604" width="12" height="12" fill="#fd8d3c"/>
<text x="859" y="614" fill="#222">apiGetCode</text>
<rect x="12" y="622" width="12" height="12" fill="#b5bdc4"/>
<text x="28" y="632" fill="#222">apiReflection</text>
<rect x="289" y="622" width="12" height="12" fill="#969696"/>
<text x="305" y="632" fill="#222">apiTotal (self)</text>
</svg>