<svg xmlns="http://www.w3.org/2000/svg" xmlns:xlink="http://www.w3.org/1999/xlink" width="1132" height="662" viewBox="0 0 1132 662" preserveAspectRatio="xMidYMid meet" font-family="sans-serif" font-size="13">
<rect width="1132" height="662" fill="white"/>
<text x="12" y="30" font-size="20" font-weight="bold">rt_renderer_specialize — Across releases (median ms)</text>
<text x="68" y="60" font-size="15" font-weight="600" fill="#1a1a1a">rt_renderer_specialize<tspan fill="#888" font-weight="400" text-decoration="none">  1.42×</tspan></text>
<line x1="68.0" y1="516.0" x2="1108.0" y2="516.0" stroke="#eee"/>
<text x="64.0" y="519.0" text-anchor="end" fill="#999">0.0</text>
<line x1="68.0" y1="296.0" x2="1108.0" y2="296.0" stroke="#eee"/>
<text x="64.0" y="299.0" text-anchor="end" fill="#999">1929</text>
<line x1="68.0" y1="76.0" x2="1108.0" y2="76.0" stroke="#eee"/>
<text x="64.0" y="79.0" text-anchor="end" fill="#999">3859</text>
<line x1="68.0" y1="76.0" x2="68.0" y2="516.0" stroke="#333"/>
<line x1="68.0" y1="516.0" x2="1108.0" y2="516.0" stroke="#333"/>
<line x1="68.0" y1="516.0" x2="68.0" y2="519.0" stroke="#999"/>
<text x="68.0" y="531.0" text-anchor="end" fill="#666" transform="rotate(-50 68.0 531.0)">25.12</text>
<line x1="109.6" y1="516.0" x2="109.6" y2="519.0" stroke="#999"/>
<text x="109.6" y="531.0" text-anchor="end" fill="#666" transform="rotate(-50 109.6 531.0)">25.13</text>
<line x1="151.2" y1="516.0" x2="151.2" y2="519.0" stroke="#999"/>
<text x="151.2" y="531.0" text-anchor="end" fill="#666" transform="rotate(-50 151.2 531.0)">25.14</text>
<line x1="192.8" y1="516.0" x2="192.8" y2="519.0" stroke="#999"/>
<text x="192.8" y="531.0" text-anchor="end" fill="#666" transform="rotate(-50 192.8 531.0)">25.15</text>
<line x1="234.4" y1="516.0" x2="234.4" y2="519.0" stroke="#999"/>
<text x="234.4" y="531.0" text-anchor="end" fill="#666" transform="rotate(-50 234.4 531.0)">25.16</text>
<line x1="276.0" y1="516.0" x2="276.0" y2="519.0" stroke="#999"/>
<text x="276.0" y="531.0" text-anchor="end" fill="#666" transform="rotate(-50 276.0 531.0)">25.17</text>
<line x1="317.6" y1="516.0" x2="317.6" y2="519.0" stroke="#999"/>
<text x="317.6" y="531.0" text-anchor="end" fill="#666" transform="rotate(-50 317.6 531.0)">25.18</text>
<line x1="359.2" y1="516.0" x2="359.2" y2="519.0" stroke="#999"/>
<text x="359.2" y="531.0" text-anchor="end" fill="#666" transform="rotate(-50 359.2 531.0)">25.19</text>
<line x1="400.8" y1="516.0" x2="400.8" y2="519.0" stroke="#999"/>
<text x="400.8" y="531.0" text-anchor="end" fill="#666" transform="rotate(-50 400.8 531.0)">25.20</text>
<line x1="442.4" y1="516.0" x2="442.4" y2="519.0" stroke="#999"/>
<text x="442.4" y="531.0" text-anchor="end" fill="#666" transform="rotate(-50 442.4 531.0)">25.21</text>
<line x1="484.0" y1="516.0" x2="484.0" y2="519.0" stroke="#999"/>
<text x="484.0" y="531.0" text-anchor="end" fill="#666" transform="rotate(-50 484.0 531.0)">25.22</text>
<line x1="525.6" y1="516.0" x2="525.6" y2="519.0" stroke="#999"/>
<text x="525.6" y="531.0" text-anchor="end" fill="#666" transform="rotate(-50 525.6 531.0)">25.23</text>
<line x1="567.2" y1="516.0" x2="567.2" y2="519.0" stroke="#999"/>
<text x="567.2" y="531.0" text-anchor="end" fill="#666" transform="rotate(-50 567.2 531.0)">25.24</text>
<line x1="608.8" y1="516.0" x2="608.8" y2="519.0" stroke="#999"/>
<text x="608.8" y="531.0" text-anchor="end" fill="#666" transform="rotate(-50 608.8 531.0)">26.1</text>
<line x1="650.4" y1="516.0" x2="650.4" y2="519.0" stroke="#999"/>
<text x="650.4" y="531.0" text-anchor="end" fill="#666" transform="rotate(-50 650.4 531.0)">26.2</text>
<line x1="692.0" y1="516.0" x2="692.0" y2="519.0" stroke="#999"/>
<text x="692.0" y="531.0" text-anchor="end" fill="#666" transform="rotate(-50 692.0 531.0)">26.3</text>
<line x1="733.6" y1="516.0" x2="733.6" y2="519.0" stroke="#999"/>
<text x="733.6" y="531.0" text-anchor="end" fill="#666" transform="rotate(-50 733.6 531.0)">26.4</text>
<line x1="775.2" y1="516.0" x2="775.2" y2="519.0" stroke="#999"/>
<text x="775.2" y="531.0" text-anchor="end" fill="#666" transform="rotate(-50 775.2 531.0)">26.5</text>
<line x1="816.8" y1="516.0" x2="816.8" y2="519.0" stroke="#999"/>
<text x="816.8" y="531.0" text-anchor="end" fill="#666" transform="rotate(-50 816.8 531.0)">26.7</text>
<line x1="858.4" y1="516.0" x2="858.4" y2="519.0" stroke="#999"/>
<text x="858.4" y="531.0" text-anchor="end" fill="#666" transform="rotate(-50 858.4 531.0)">26.8</text>
<line x1="900.0" y1="516.0" x2="900.0" y2="519.0" stroke="#999"/>
<text x="900.0" y="531.0" text-anchor="end" fill="#666" transform="rotate(-50 900.0 531.0)">26.9</text>
<line x1="941.6" y1="516.0" x2="941.6" y2="519.0" stroke="#999"/>
<text x="941.6" y="531.0" text-anchor="end" fill="#666" transform="rotate(-50 941.6 531.0)">26.10</text>
<line x1="983.2" y1="516.0" x2="983.2" y2="519.0" stroke="#999"/>
<text x="983.2" y="531.0" text-anchor="end" fill="#666" transform="rotate(-50 983.2 531.0)">26.11</text>
<line x1="1024.8" y1="516.0" x2="1024.8" y2="519.0" stroke="#999"/>
<text x="1024.8" y="531.0" text-anchor="end" fill="#666" transform="rotate(-50 1024.8 531.0)">26.12</text>
<line x1="1066.4" y1="516.0" x2="1066.4" y2="519.0" stroke="#999"/>
<text x="1066.4" y="531.0" text-anchor="end" fill="#666" transform="rotate(-50 1066.4 531.0)">26.13</text>
<line x1="1108.0" y1="516.0" x2="1108.0" y2="519.0" stroke="#999"/>
<text x="1108.0" y="531.0" text-anchor="end" fill="#666" transform="rotate(-50 1108.0 531.0)">26.13.1</text>
<polygon points="68.0,486.0 109.6,488.6 151.2,484.4 192.8,507.8 234.4,508.2 276.0,508.3 317.6,508.4 359.2,508.3 400.8,508.2 442.4,508.1 484.0,511.2 525.6,511.2 567.2,511.2 608.8,511.0 650.4,511.2 692.0,511.0 733.6,511.0 775.2,511.0 816.8,501.9 858.4,503.2 900.0,504.0 941.6,502.2 983.2,501.7 1024.8,503.4 1066.4,502.1 1108.0,504.0 1108.0,516.0 1066.4,516.0 1024.8,516.0 983.2,516.0 941.6,516.0 900.0,516.0 858.4,516.0 816.8,516.0 775.2,516.0 733.6,516.0 692.0,516.0 650.4,516.0 608.8,516.0 567.2,516.0 525.6,516.0 484.0,516.0 442.4,516.0 400.8,516.0 359.2,516.0 317.6,516.0 276.0,516.0 234.4,516.0 192.8,516.0 151.2,516.0 109.6,516.0 68.0,516.0" fill="#c7e9c0" fill-opacity="0.9" stroke="#fff" stroke-width="0.4"><title>rt_renderer_specialize — apiCreateGlobalSession</title></polygon>
<polygon points="68.0,486.0 109.6,488.5 151.2,484.4 192.8,507.8 234.4,508.2 276.0,508.3 317.6,508.4 359.2,508.3 400.8,508.2 442.4,508.1 484.0,511.2 525.6,511.2 567.2,511.2 608.8,511.0 650.4,511.2 692.0,511.0 733.6,511.0 775.2,511.0 816.8,501.9 858.4,503.2 900.0,504.0 941.6,502.2 983.2,501.7 1024.8,503.4 1066.4,502.1 1108.0,504.0 1108.0,504.0 1066.4,502.1 1024.8,503.4 983.2,501.7 941.6,502.2 900.0,504.0 858.4,503.2 816.8,501.9 775.2,511.0 733.6,511.0 692.0,511.0 650.4,511.2 608.8,511.0 567.2,511.2 525.6,511.2 484.0,511.2 442.4,508.1 400.8,508.2 359.2,508.3 317.6,508.4 276.0,508.3 234.4,508.2 192.8,507.8 151.2,484.4 109.6,488.6 68.0,486.0" fill="#41ab5d" fill-opacity="0.9" stroke="#fff" stroke-width="0.4"><title>rt_renderer_specialize — apiCreateSession</title></polygon>
<polygon points="68.0,449.2 109.6,448.2 151.2,440.4 192.8,460.8 234.4,460.5 276.0,463.2 317.6,463.3 359.2,463.4 400.8,462.9 442.4,463.0 484.0,466.0 525.6,465.8 567.2,465.9 608.8,464.1 650.4,462.7 692.0,462.3 733.6,461.7 775.2,461.5 816.8,395.3 858.4,415.0 900.0,416.5 941.6,412.1 983.2,436.5 1024.8,442.6 1066.4,435.1 1108.0,440.8 1108.0,504.0 1066.4,502.1 1024.8,503.4 983.2,501.7 941.6,502.2 900.0,504.0 858.4,503.2 816.8,501.9 775.2,511.0 733.6,511.0 692.0,511.0 650.4,511.2 608.8,511.0 567.2,511.2 525.6,511.2 484.0,511.2 442.4,508.1 400.8,508.2 359.2,508.3 317.6,508.4 276.0,508.3 234.4,508.2 192.8,507.8 151.2,484.4 109.6,488.5 68.0,486.0" fill="#2171b5" fill-opacity="0.9" stroke="#fff" stroke-width="0.4"><title>rt_renderer_specialize — apiLoadModule</title></polygon>
<polygon points="68.0,449.1 109.6,448.0 151.2,440.3 192.8,460.6 234.4,460.3 276.0,463.1 317.6,463.2 359.2,463.3 400.8,462.8 442.4,462.9 484.0,465.9 525.6,465.7 567.2,465.8 608.8,464.0 650.4,462.6 692.0,462.2 733.6,461.6 775.2,461.4 816.8,395.1 858.4,414.8 900.0,416.4 941.6,412.0 983.2,436.4 1024.8,442.5 1066.4,435.0 1108.0,440.7 1108.0,440.8 1066.4,435.1 1024.8,442.6 983.2,436.5 941.6,412.1 900.0,416.5 858.4,415.0 816.8,395.3 775.2,461.5 733.6,461.7 692.0,462.3 650.4,462.7 608.8,464.1 567.2,465.9 525.6,465.8 484.0,466.0 442.4,463.0 400.8,462.9 359.2,463.4 317.6,463.3 276.0,463.2 234.4,460.5 192.8,460.8 151.2,440.4 109.6,448.2 68.0,449.2" fill="#9e9ac8" fill-opacity="0.9" stroke="#fff" stroke-width="0.4"><title>rt_renderer_specialize — apiComposite</title></polygon>
<polygon points="68.0,447.6 109.6,446.5 151.2,438.6 192.8,458.9 234.4,458.7 276.0,461.4 317.6,461.5 359.2,461.6 400.8,461.1 442.4,461.2 484.0,464.1 525.6,464.0 567.2,464.1 608.8,462.1 650.4,460.6 692.0,460.2 733.6,459.6 775.2,459.4 816.8,392.1 858.4,412.5 900.0,414.1 941.6,409.6 983.2,433.9 1024.8,440.3 1066.4,432.4 1108.0,438.3 1108.0,440.7 1066.4,435.0 1024.8,442.5 983.2,436.4 941.6,412.0 900.0,416.4 858.4,414.8 816.8,395.1 775.2,461.4 733.6,461.6 692.0,462.2 650.4,462.6 608.8,464.0 567.2,465.8 525.6,465.7 484.0,465.9 442.4,462.9 400.8,462.8 359.2,463.3 317.6,463.2 276.0,463.1 234.4,460.3 192.8,460.6 151.2,440.3 109.6,448.0 68.0,449.1" fill="#807dba" fill-opacity="0.9" stroke="#fff" stroke-width="0.4"><title>rt_renderer_specialize — apiSpecialize</title></polygon>
<polygon points="68.0,447.0 109.6,445.6 151.2,438.1 192.8,458.4 234.4,458.1 276.0,461.0 317.6,461.0 359.2,461.2 400.8,460.6 442.4,460.8 484.0,463.7 525.6,463.5 567.2,463.7 608.8,461.6 650.4,460.2 692.0,459.7 733.6,459.2 775.2,459.0 816.8,391.5 858.4,411.9 900.0,413.6 941.6,409.1 983.2,433.3 1024.8,439.8 1066.4,431.9 1108.0,437.9 1108.0,438.3 1066.4,432.4 1024.8,440.3 983.2,433.9 941.6,409.6 900.0,414.1 858.4,412.5 816.8,392.1 775.2,459.4 733.6,459.6 692.0,460.2 650.4,460.6 608.8,462.1 567.2,464.1 525.6,464.0 484.0,464.1 442.4,461.2 400.8,461.1 359.2,461.6 317.6,461.5 276.0,461.4 234.4,458.7 192.8,458.9 151.2,438.6 109.6,446.5 68.0,447.6" fill="#6a51a3" fill-opacity="0.9" stroke="#fff" stroke-width="0.4"><title>rt_renderer_specialize — apiLink</title></polygon>
<polygon points="68.0,397.2 109.6,395.3 151.2,381.2 192.8,400.3 234.4,402.7 276.0,407.1 317.6,409.4 359.2,408.8 400.8,408.6 442.4,408.5 484.0,411.3 525.6,411.2 567.2,409.0 608.8,402.4 650.4,399.1 692.0,398.4 733.6,396.7 775.2,392.2 816.8,108.6 858.4,215.9 900.0,221.4 941.6,211.0 983.2,314.7 1024.8,343.6 1066.4,325.5 1108.0,346.3 1108.0,437.9 1066.4,431.9 1024.8,439.8 983.2,433.3 941.6,409.1 900.0,413.6 858.4,411.9 816.8,391.5 775.2,459.0 733.6,459.2 692.0,459.7 650.4,460.2 608.8,461.6 567.2,463.7 525.6,463.5 484.0,463.7 442.4,460.8 400.8,460.6 359.2,461.2 317.6,461.0 276.0,461.0 234.4,458.1 192.8,458.4 151.2,438.1 109.6,445.6 68.0,447.0" fill="#fd8d3c" fill-opacity="0.9" stroke="#fff" stroke-width="0.4"><title>rt_renderer_specialize — apiGetCode</title></polygon>
<polygon points="68.0,396.7 109.6,395.0 151.2,380.2 192.8,393.9 234.4,402.2 276.0,406.7 317.6,409.3 359.2,408.4 400.8,408.3 442.4,408.3 484.0,410.9 525.6,410.8 567.2,408.7 608.8,402.2 650.4,398.1 692.0,398.0 733.6,396.5 775.2,392.2 816.8,108.6 858.4,215.9 900.0,220.3 941.6,210.8 983.2,312.4 1024.8,343.5 1066.4,324.8 1108.0,346.1 1108.0,346.3 1066.4,325.5 1024.8,343.6 983.2,314.7 941.6,211.0 900.0,221.4 858.4,215.9 816.8,108.6 775.2,392.2 733.6,396.7 692.0,398.4 650.4,399.1 608.8,402.4 567.2,409.0 525.6,411.2 484.0,411.3 442.4,408.5 400.8,408.6 359.2,408.8 317.6,409.4 276.0,407.1 234.4,402.7 192.8,400.3 151.2,381.2 109.6,395.3 68.0,397.2" fill="#969696" fill-opacity="0.9" stroke="#fff" stroke-width="0.4"><title>rt_renderer_specialize — apiTotal (self)</title></polygon>
<text x="12" y="578" fill="#666" font-weight="600">phase buckets</text>
<rect x="12" y="586" width="12" height="12" fill="#c7e9c0"/>
<text x="28" y="596" fill="#222">apiCreateGlobalSession</text>
<rect x="289" y="586" width="12" height="12" fill="#41ab5d"/>
<text x="305" y="596" fill="#222">apiCreateSession</text>
<rect x="566" y="586" width="12" height="12" fill="#2171b5"/>
<text x="582" y="596" fill="#222">apiLoadModule</text>
<rect x="843" y="586" width="12" height="12" fill="#6baed6"/>
<text x="859" y="596" fill="#222">apiFindEntryPoint</text>
<rect x="12" y="604" width="12" height="12" fill="#9e9ac8"/>
<text x="28" y="614" fill="#222">apiComposite</text>
<rect x="289" y="604" width="12" height="12" fill="#807dba"/>
<text x="305" y="614" fill="#222">apiSpecialize</text>
<rect x="566" y="604" width="12" height="12" fill="#6a51a3"/>
<text x="582" y="614" fill="#222">apiLink</text>
<rect x="843" y="604" width="12" height="12" fill="#fd8d3c"/>
<text x="859" y="614" fill="#222">apiGetCode</text>
<rect x="12" y="622" width="12" height="12" fill="#b5bdc4"/>
<text x="28" y="632" fill="#222">apiReflection</text>
<rect x="289" y="622" width="12" height="12" fill="#969696"/>
<text x="305" y="632" fill="#222">apiTotal (self)</text>
</svg>