<svg xmlns="http://www.w3.org/2000/svg" xmlns:xlink="http://www.w3.org/1999/xlink" width="1132" height="662" viewBox="0 0 1132 662" preserveAspectRatio="xMidYMid meet" font-family="sans-serif" font-size="13">
<rect width="1132" height="662" fill="white"/>
<text x="12" y="30" font-size="20" font-weight="bold">rt_renderer — Daily tip-of-tree (last 30 days) (median ms)</text>
<text x="68" y="60" font-size="15" font-weight="600" fill="#1a1a1a">rt_renderer<tspan fill="#888" font-weight="400" text-decoration="none">  1.06×</tspan></text>
<line x1="68.0" y1="516.0" x2="1108.0" y2="516.0" stroke="#eee"/>
<text x="64.0" y="519.0" text-anchor="end" fill="#999">0.0</text>
<line x1="68.0" y1="296.0" x2="1108.0" y2="296.0" stroke="#eee"/>
<text x="64.0" y="299.0" text-anchor="end" fill="#999">460</text>
<line x1="68.0" y1="76.0" x2="1108.0" y2="76.0" stroke="#eee"/>
<text x="64.0" y="79.0" text-anchor="end" fill="#999">919</text>
<line x1="68.0" y1="76.0" x2="68.0" y2="516.0" stroke="#333"/>
<line x1="68.0" y1="516.0" x2="1108.0" y2="516.0" stroke="#333"/>
<line x1="68.0" y1="516.0" x2="68.0" y2="519.0" stroke="#999"/>
<text x="68.0" y="531.0" text-anchor="end" fill="#e8731a" transform="rotate(-50 68.0 531.0)">06-25</text>
<line x1="133.0" y1="516.0" x2="133.0" y2="519.0" stroke="#999"/>
<text x="133.0" y="531.0" text-anchor="end" fill="#e8731a" transform="rotate(-50 133.0 531.0)">06-26</text>
<line x1="198.0" y1="516.0" x2="198.0" y2="519.0" stroke="#999"/>
<text x="198.0" y="531.0" text-anchor="end" fill="#e8731a" transform="rotate(-50 198.0 531.0)">06-28</text>
<line x1="263.0" y1="516.0" x2="263.0" y2="519.0" stroke="#999"/>
<text x="263.0" y="531.0" text-anchor="end" fill="#e8731a" transform="rotate(-50 263.0 531.0)">07-01</text>
<line x1="328.0" y1="516.0" x2="328.0" y2="519.0" stroke="#999"/>
<text x="328.0" y="531.0" text-anchor="end" fill="#e8731a" transform="rotate(-50 328.0 531.0)">07-02</text>
<line x1="393.0" y1="516.0" x2="393.0" y2="519.0" stroke="#999"/>
<text x="393.0" y="531.0" text-anchor="end" fill="#e8731a" transform="rotate(-50 393.0 531.0)">07-03</text>
<line x1="458.0" y1="516.0" x2="458.0" y2="519.0" stroke="#999"/>
<text x="458.0" y="531.0" text-anchor="end" fill="#e8731a" transform="rotate(-50 458.0 531.0)">07-06</text>
<line x1="523.0" y1="516.0" x2="523.0" y2="519.0" stroke="#999"/>
<text x="523.0" y="531.0" text-anchor="end" fill="#e8731a" transform="rotate(-50 523.0 531.0)">07-07</text>
<line x1="588.0" y1="516.0" x2="588.0" y2="519.0" stroke="#999"/>
<text x="588.0" y="531.0" text-anchor="end" fill="#e8731a" transform="rotate(-50 588.0 531.0)">07-08</text>
<line x1="653.0" y1="516.0" x2="653.0" y2="519.0" stroke="#999"/>
<text x="653.0" y="531.0" text-anchor="end" fill="#e8731a" transform="rotate(-50 653.0 531.0)">07-09</text>
<line x1="718.0" y1="516.0" x2="718.0" y2="519.0" stroke="#999"/>
<text x="718.0" y="531.0" text-anchor="end" fill="#e8731a" transform="rotate(-50 718.0 531.0)">07-10</text>
<line x1="783.0" y1="516.0" x2="783.0" y2="519.0" stroke="#999"/>
<text x="783.0" y="531.0" text-anchor="end" fill="#e8731a" transform="rotate(-50 783.0 531.0)">07-11</text>
<line x1="848.0" y1="516.0" x2="848.0" y2="519.0" stroke="#999"/>
<text x="848.0" y="531.0" text-anchor="end" fill="#e8731a" transform="rotate(-50 848.0 531.0)">07-14</text>
<line x1="913.0" y1="516.0" x2="913.0" y2="519.0" stroke="#999"/>
<text x="913.0" y="531.0" text-anchor="end" fill="#e8731a" transform="rotate(-50 913.0 531.0)">07-15</text>
<line x1="978.0" y1="516.0" x2="978.0" y2="519.0" stroke="#999"/>
<text x="978.0" y="531.0" text-anchor="end" fill="#e8731a" transform="rotate(-50 978.0 531.0)">07-15</text>
<line x1="1043.0" y1="516.0" x2="1043.0" y2="519.0" stroke="#999"/>
<text x="1043.0" y="531.0" text-anchor="end" fill="#e8731a" transform="rotate(-50 1043.0 531.0)">07-16</text>
<line x1="1108.0" y1="516.0" x2="1108.0" y2="519.0" stroke="#999"/>
<text x="1108.0" y="531.0" text-anchor="end" fill="#e8731a" transform="rotate(-50 1108.0 531.0)">07-17</text>
<polygon points="68.0,460.9 133.0,461.2 198.0,460.1 263.0,462.3 328.0,461.4 393.0,462.2 458.0,460.4 523.0,461.5 588.0,462.0 653.0,460.4 718.0,461.1 783.0,462.4 848.0,462.6 913.0,463.0 978.0,464.3 1043.0,464.3 1108.0,461.6 1108.0,516.0 1043.0,516.0 978.0,516.0 913.0,516.0 848.0,516.0 783.0,516.0 718.0,516.0 653.0,516.0 588.0,516.0 523.0,516.0 458.0,516.0 393.0,516.0 328.0,516.0 263.0,516.0 198.0,516.0 133.0,516.0 68.0,516.0" fill="#c7e9c0" fill-opacity="0.9" stroke="#fff" stroke-width="0.4"><title>rt_renderer — apiCreateGlobalSession</title></polygon>
<polygon points="68.0,460.9 133.0,461.2 198.0,460.1 263.0,462.3 328.0,461.4 393.0,462.1 458.0,460.4 523.0,461.5 588.0,461.9 653.0,460.4 718.0,461.1 783.0,462.4 848.0,462.5 913.0,463.0 978.0,464.3 1043.0,464.3 1108.0,461.5 1108.0,461.6 1043.0,464.3 978.0,464.3 913.0,463.0 848.0,462.6 783.0,462.4 718.0,461.1 653.0,460.4 588.0,462.0 523.0,461.5 458.0,460.4 393.0,462.2 328.0,461.4 263.0,462.3 198.0,460.1 133.0,461.2 68.0,460.9" fill="#41ab5d" fill-opacity="0.9" stroke="#fff" stroke-width="0.4"><title>rt_renderer — apiCreateSession</title></polygon>
<polygon points="68.0,194.1 133.0,193.3 198.0,193.6 263.0,195.3 328.0,187.8 393.0,187.9 458.0,186.3 523.0,187.2 588.0,189.4 653.0,185.1 718.0,182.6 783.0,180.9 848.0,184.0 913.0,198.8 978.0,200.2 1043.0,154.9 1108.0,152.4 1108.0,461.5 1043.0,464.3 978.0,464.3 913.0,463.0 848.0,462.5 783.0,462.4 718.0,461.1 653.0,460.4 588.0,461.9 523.0,461.5 458.0,460.4 393.0,462.1 328.0,461.4 263.0,462.3 198.0,460.1 133.0,461.2 68.0,460.9" fill="#2171b5" fill-opacity="0.9" stroke="#fff" stroke-width="0.4"><title>rt_renderer — apiLoadModule</title></polygon>
<polygon points="68.0,194.1 133.0,193.3 198.0,193.6 263.0,195.3 328.0,187.8 393.0,187.9 458.0,186.3 523.0,187.2 588.0,189.4 653.0,185.1 718.0,182.6 783.0,180.9 848.0,184.0 913.0,198.8 978.0,200.2 1043.0,154.9 1108.0,152.4 1108.0,152.4 1043.0,154.9 978.0,200.2 913.0,198.8 848.0,184.0 783.0,180.9 718.0,182.6 653.0,185.1 588.0,189.4 523.0,187.2 458.0,186.3 393.0,187.9 328.0,187.8 263.0,195.3 198.0,193.6 133.0,193.3 68.0,194.1" fill="#6baed6" fill-opacity="0.9" stroke="#fff" stroke-width="0.4"><title>rt_renderer — apiFindEntryPoint</title></polygon>
<polygon points="68.0,194.0 133.0,193.3 198.0,193.6 263.0,195.3 328.0,187.8 393.0,187.8 458.0,186.3 523.0,187.1 588.0,189.3 653.0,185.1 718.0,182.6 783.0,180.9 848.0,184.0 913.0,198.7 978.0,200.2 1043.0,154.9 1108.0,152.4 1108.0,152.4 1043.0,154.9 978.0,200.2 913.0,198.8 848.0,184.0 783.0,180.9 718.0,182.6 653.0,185.1 588.0,189.4 523.0,187.2 458.0,186.3 393.0,187.9 328.0,187.8 263.0,195.3 198.0,193.6 133.0,193.3 68.0,194.1" fill="#9e9ac8" fill-opacity="0.9" stroke="#fff" stroke-width="0.4"><title>rt_renderer — apiComposite</title></polygon>
<polygon points="68.0,193.9 133.0,193.2 198.0,193.5 263.0,195.2 328.0,187.7 393.0,187.7 458.0,186.2 523.0,187.0 588.0,189.2 653.0,185.0 718.0,182.5 783.0,180.8 848.0,183.9 913.0,198.6 978.0,200.1 1043.0,154.8 1108.0,152.3 1108.0,152.4 1043.0,154.9 978.0,200.2 913.0,198.7 848.0,184.0 783.0,180.9 718.0,182.6 653.0,185.1 588.0,189.3 523.0,187.1 458.0,186.3 393.0,187.8 328.0,187.8 263.0,195.3 198.0,193.6 133.0,193.3 68.0,194.0" fill="#6a51a3" fill-opacity="0.9" stroke="#fff" stroke-width="0.4"><title>rt_renderer — apiLink</title></polygon>
<polygon points="68.0,133.0 133.0,132.3 198.0,133.1 263.0,134.1 328.0,127.7 393.0,128.8 458.0,127.1 523.0,133.8 588.0,136.0 653.0,132.1 718.0,135.2 783.0,134.4 848.0,137.4 913.0,156.0 978.0,157.5 1043.0,112.7 1108.0,109.9 1108.0,152.3 1043.0,154.8 978.0,200.1 913.0,198.6 848.0,183.9 783.0,180.8 718.0,182.5 653.0,185.0 588.0,189.2 523.0,187.0 458.0,186.2 393.0,187.7 328.0,187.7 263.0,195.2 198.0,193.5 133.0,193.2 68.0,193.9" fill="#fd8d3c" fill-opacity="0.9" stroke="#fff" stroke-width="0.4"><title>rt_renderer — apiGetCode</title></polygon>
<polygon points="68.0,133.0 133.0,131.7 198.0,133.1 263.0,134.1 328.0,127.7 393.0,128.8 458.0,126.5 523.0,133.1 588.0,136.0 653.0,132.1 718.0,135.0 783.0,134.4 848.0,137.4 913.0,156.0 978.0,156.3 1043.0,111.1 1108.0,108.6 1108.0,109.9 1043.0,112.7 978.0,157.5 913.0,156.0 848.0,137.4 783.0,134.4 718.0,135.2 653.0,132.1 588.0,136.0 523.0,133.8 458.0,127.1 393.0,128.8 328.0,127.7 263.0,134.1 198.0,133.1 133.0,132.3 68.0,133.0" fill="#969696" fill-opacity="0.9" stroke="#fff" stroke-width="0.4"><title>rt_renderer — apiTotal (self)</title></polygon>
<text x="12" y="578" fill="#666" font-weight="600">phase buckets</text>
<rect x="12" y="586" width="12" height="12" fill="#c7e9c0"/>
<text x="28" y="596" fill="#222">apiCreateGlobalSession</text>
<rect x="289" y="586" width="12" height="12" fill="#41ab5d"/>
<text x="305" y="596" fill="#222">apiCreateSession</text>
<rect x="566" y="586" width="12" height="12" fill="#2171b5"/>
<text x="582" y="596" fill="#222">apiLoadModule</text>
<rect x="843" y="586" width="12" height="12" fill="#6baed6"/>
<text x="859" y="596" fill="#222">apiFindEntryPoint</text>
<rect x="12" y="604" width="12" height="12" fill="#9e9ac8"/>
<text x="28" y="614" fill="#222">apiComposite</text>
<rect x="289" y="604" width="12" height="12" fill="#807dba"/>
<text x="305" y="614" fill="#222">apiSpecialize</text>
<rect x="566" y="604" width="12" height="12" fill="#6a51a3"/>
<text x="582" y="614" fill="#222">apiLink</text>
<rect x="843" y="604" width="12" height="12" fill="#fd8d3c"/>
<text x="859" y="614" fill="#222">apiGetCode</text>
<rect x="12" y="622" width="12" height="12" fill="#b5bdc4"/>
<text x="28" y="632" fill="#222">apiReflection</text>
<rect x="289" y="622" width="12" height="12" fill="#969696"/>
<text x="305" y="632" fill="#222">apiTotal (self)</text>
</svg>