<svg xmlns="http://www.w3.org/2000/svg" xmlns:xlink="http://www.w3.org/1999/xlink" width="1132" height="662" viewBox="0 0 1132 662" preserveAspectRatio="xMidYMid meet" font-family="sans-serif" font-size="13">
<rect width="1132" height="662" fill="white"/>
<text x="12" y="30" font-size="20" font-weight="bold">rt_renderer — Daily tip-of-tree (last 30 days) (median ms)</text>
<text x="68" y="60" font-size="15" font-weight="600" fill="#1a1a1a">rt_renderer<tspan fill="#888" font-weight="400" text-decoration="none">  0.93×</tspan></text>
<line x1="68.0" y1="516.0" x2="1108.0" y2="516.0" stroke="#eee"/>
<text x="64.0" y="519.0" text-anchor="end" fill="#999">0.0</text>
<line x1="68.0" y1="296.0" x2="1108.0" y2="296.0" stroke="#eee"/>
<text x="64.0" y="299.0" text-anchor="end" fill="#999">460</text>
<line x1="68.0" y1="76.0" x2="1108.0" y2="76.0" stroke="#eee"/>
<text x="64.0" y="79.0" text-anchor="end" fill="#999">919</text>
<line x1="68.0" y1="76.0" x2="68.0" y2="516.0" stroke="#333"/>
<line x1="68.0" y1="516.0" x2="1108.0" y2="516.0" stroke="#333"/>
<line x1="68.0" y1="516.0" x2="68.0" y2="519.0" stroke="#999"/>
<text x="68.0" y="531.0" text-anchor="end" fill="#e8731a" transform="rotate(-50 68.0 531.0)">06-25</text>
<line x1="120.0" y1="516.0" x2="120.0" y2="519.0" stroke="#999"/>
<text x="120.0" y="531.0" text-anchor="end" fill="#e8731a" transform="rotate(-50 120.0 531.0)">06-26</text>
<line x1="172.0" y1="516.0" x2="172.0" y2="519.0" stroke="#999"/>
<text x="172.0" y="531.0" text-anchor="end" fill="#e8731a" transform="rotate(-50 172.0 531.0)">06-28</text>
<line x1="224.0" y1="516.0" x2="224.0" y2="519.0" stroke="#999"/>
<text x="224.0" y="531.0" text-anchor="end" fill="#e8731a" transform="rotate(-50 224.0 531.0)">07-01</text>
<line x1="276.0" y1="516.0" x2="276.0" y2="519.0" stroke="#999"/>
<text x="276.0" y="531.0" text-anchor="end" fill="#e8731a" transform="rotate(-50 276.0 531.0)">07-02</text>
<line x1="328.0" y1="516.0" x2="328.0" y2="519.0" stroke="#999"/>
<text x="328.0" y="531.0" text-anchor="end" fill="#e8731a" transform="rotate(-50 328.0 531.0)">07-03</text>
<line x1="380.0" y1="516.0" x2="380.0" y2="519.0" stroke="#999"/>
<text x="380.0" y="531.0" text-anchor="end" fill="#e8731a" transform="rotate(-50 380.0 531.0)">07-06</text>
<line x1="432.0" y1="516.0" x2="432.0" y2="519.0" stroke="#999"/>
<text x="432.0" y="531.0" text-anchor="end" fill="#e8731a" transform="rotate(-50 432.0 531.0)">07-07</text>
<line x1="484.0" y1="516.0" x2="484.0" y2="519.0" stroke="#999"/>
<text x="484.0" y="531.0" text-anchor="end" fill="#e8731a" transform="rotate(-50 484.0 531.0)">07-08</text>
<line x1="536.0" y1="516.0" x2="536.0" y2="519.0" stroke="#999"/>
<text x="536.0" y="531.0" text-anchor="end" fill="#e8731a" transform="rotate(-50 536.0 531.0)">07-09</text>
<line x1="588.0" y1="516.0" x2="588.0" y2="519.0" stroke="#999"/>
<text x="588.0" y="531.0" text-anchor="end" fill="#e8731a" transform="rotate(-50 588.0 531.0)">07-10</text>
<line x1="640.0" y1="516.0" x2="640.0" y2="519.0" stroke="#999"/>
<text x="640.0" y="531.0" text-anchor="end" fill="#e8731a" transform="rotate(-50 640.0 531.0)">07-11</text>
<line x1="692.0" y1="516.0" x2="692.0" y2="519.0" stroke="#999"/>
<text x="692.0" y="531.0" text-anchor="end" fill="#e8731a" transform="rotate(-50 692.0 531.0)">07-14</text>
<line x1="744.0" y1="516.0" x2="744.0" y2="519.0" stroke="#999"/>
<text x="744.0" y="531.0" text-anchor="end" fill="#e8731a" transform="rotate(-50 744.0 531.0)">07-15</text>
<line x1="796.0" y1="516.0" x2="796.0" y2="519.0" stroke="#999"/>
<text x="796.0" y="531.0" text-anchor="end" fill="#e8731a" transform="rotate(-50 796.0 531.0)">07-15</text>
<line x1="848.0" y1="516.0" x2="848.0" y2="519.0" stroke="#999"/>
<text x="848.0" y="531.0" text-anchor="end" fill="#e8731a" transform="rotate(-50 848.0 531.0)">07-16</text>
<line x1="900.0" y1="516.0" x2="900.0" y2="519.0" stroke="#999"/>
<text x="900.0" y="531.0" text-anchor="end" fill="#e8731a" transform="rotate(-50 900.0 531.0)">07-17</text>
<line x1="952.0" y1="516.0" x2="952.0" y2="519.0" stroke="#999"/>
<text x="952.0" y="531.0" text-anchor="end" fill="#e8731a" transform="rotate(-50 952.0 531.0)">07-18</text>
<line x1="1004.0" y1="516.0" x2="1004.0" y2="519.0" stroke="#999"/>
<text x="1004.0" y="531.0" text-anchor="end" fill="#e8731a" transform="rotate(-50 1004.0 531.0)">07-19</text>
<line x1="1056.0" y1="516.0" x2="1056.0" y2="519.0" stroke="#999"/>
<text x="1056.0" y="531.0" text-anchor="end" fill="#e8731a" transform="rotate(-50 1056.0 531.0)">07-20</text>
<line x1="1108.0" y1="516.0" x2="1108.0" y2="519.0" stroke="#999"/>
<text x="1108.0" y="531.0" text-anchor="end" fill="#e8731a" transform="rotate(-50 1108.0 531.0)">07-21</text>
<polygon points="68.0,460.9 120.0,461.2 172.0,460.1 224.0,462.3 276.0,461.4 328.0,462.2 380.0,460.4 432.0,461.5 484.0,462.0 536.0,460.4 588.0,461.1 640.0,462.4 692.0,462.6 744.0,463.0 796.0,464.3 848.0,464.3 900.0,461.6 952.0,470.0 1004.0,468.7 1056.0,469.1 1108.0,469.5 1108.0,516.0 1056.0,516.0 1004.0,516.0 952.0,516.0 900.0,516.0 848.0,516.0 796.0,516.0 744.0,516.0 692.0,516.0 640.0,516.0 588.0,516.0 536.0,516.0 484.0,516.0 432.0,516.0 380.0,516.0 328.0,516.0 276.0,516.0 224.0,516.0 172.0,516.0 120.0,516.0 68.0,516.0" fill="#c7e9c0" fill-opacity="0.9" stroke="#fff" stroke-width="0.4"><title>rt_renderer — apiCreateGlobalSession</title></polygon>
<polygon points="68.0,460.9 120.0,461.2 172.0,460.1 224.0,462.3 276.0,461.4 328.0,462.1 380.0,460.4 432.0,461.5 484.0,461.9 536.0,460.4 588.0,461.1 640.0,462.4 692.0,462.5 744.0,463.0 796.0,464.3 848.0,464.3 900.0,461.5 952.0,469.9 1004.0,468.7 1056.0,469.1 1108.0,469.4 1108.0,469.5 1056.0,469.1 1004.0,468.7 952.0,470.0 900.0,461.6 848.0,464.3 796.0,464.3 744.0,463.0 692.0,462.6 640.0,462.4 588.0,461.1 536.0,460.4 484.0,462.0 432.0,461.5 380.0,460.4 328.0,462.2 276.0,461.4 224.0,462.3 172.0,460.1 120.0,461.2 68.0,460.9" fill="#41ab5d" fill-opacity="0.9" stroke="#fff" stroke-width="0.4"><title>rt_renderer — apiCreateSession</title></polygon>
<polygon points="68.0,194.1 120.0,193.3 172.0,193.6 224.0,195.3 276.0,187.8 328.0,187.9 380.0,186.3 432.0,187.2 484.0,189.4 536.0,185.1 588.0,182.6 640.0,180.9 692.0,184.0 744.0,198.8 796.0,200.2 848.0,154.9 900.0,152.4 952.0,200.4 1004.0,202.2 1056.0,200.9 1108.0,197.5 1108.0,469.4 1056.0,469.1 1004.0,468.7 952.0,469.9 900.0,461.5 848.0,464.3 796.0,464.3 744.0,463.0 692.0,462.5 640.0,462.4 588.0,461.1 536.0,460.4 484.0,461.9 432.0,461.5 380.0,460.4 328.0,462.1 276.0,461.4 224.0,462.3 172.0,460.1 120.0,461.2 68.0,460.9" fill="#2171b5" fill-opacity="0.9" stroke="#fff" stroke-width="0.4"><title>rt_renderer — apiLoadModule</title></polygon>
<polygon points="68.0,194.1 120.0,193.3 172.0,193.6 224.0,195.3 276.0,187.8 328.0,187.9 380.0,186.3 432.0,187.2 484.0,189.4 536.0,185.1 588.0,182.6 640.0,180.9 692.0,184.0 744.0,198.8 796.0,200.2 848.0,154.9 900.0,152.4 952.0,200.4 1004.0,202.2 1056.0,200.9 1108.0,197.5 1108.0,197.5 1056.0,200.9 1004.0,202.2 952.0,200.4 900.0,152.4 848.0,154.9 796.0,200.2 744.0,198.8 692.0,184.0 640.0,180.9 588.0,182.6 536.0,185.1 484.0,189.4 432.0,187.2 380.0,186.3 328.0,187.9 276.0,187.8 224.0,195.3 172.0,193.6 120.0,193.3 68.0,194.1" fill="#6baed6" fill-opacity="0.9" stroke="#fff" stroke-width="0.4"><title>rt_renderer — apiFindEntryPoint</title></polygon>
<polygon points="68.0,194.0 120.0,193.3 172.0,193.6 224.0,195.3 276.0,187.8 328.0,187.8 380.0,186.3 432.0,187.1 484.0,189.3 536.0,185.1 588.0,182.6 640.0,180.9 692.0,184.0 744.0,198.7 796.0,200.2 848.0,154.9 900.0,152.4 952.0,200.4 1004.0,202.1 1056.0,200.9 1108.0,197.5 1108.0,197.5 1056.0,200.9 1004.0,202.2 952.0,200.4 900.0,152.4 848.0,154.9 796.0,200.2 744.0,198.8 692.0,184.0 640.0,180.9 588.0,182.6 536.0,185.1 484.0,189.4 432.0,187.2 380.0,186.3 328.0,187.9 276.0,187.8 224.0,195.3 172.0,193.6 120.0,193.3 68.0,194.1" fill="#9e9ac8" fill-opacity="0.9" stroke="#fff" stroke-width="0.4"><title>rt_renderer — apiComposite</title></polygon>
<polygon points="68.0,193.9 120.0,193.2 172.0,193.5 224.0,195.2 276.0,187.7 328.0,187.7 380.0,186.2 432.0,187.0 484.0,189.2 536.0,185.0 588.0,182.5 640.0,180.8 692.0,183.9 744.0,198.6 796.0,200.1 848.0,154.8 900.0,152.3 952.0,200.3 1004.0,202.0 1056.0,200.8 1108.0,197.4 1108.0,197.5 1056.0,200.9 1004.0,202.1 952.0,200.4 900.0,152.4 848.0,154.9 796.0,200.2 744.0,198.7 692.0,184.0 640.0,180.9 588.0,182.6 536.0,185.1 484.0,189.3 432.0,187.1 380.0,186.3 328.0,187.8 276.0,187.8 224.0,195.3 172.0,193.6 120.0,193.3 68.0,194.0" fill="#6a51a3" fill-opacity="0.9" stroke="#fff" stroke-width="0.4"><title>rt_renderer — apiLink</title></polygon>
<polygon points="68.0,133.0 120.0,132.3 172.0,133.1 224.0,134.1 276.0,127.7 328.0,128.8 380.0,127.1 432.0,133.8 484.0,136.0 536.0,132.1 588.0,135.2 640.0,134.4 692.0,137.4 744.0,156.0 796.0,157.5 848.0,112.7 900.0,109.9 952.0,162.2 1004.0,164.0 1056.0,162.3 1108.0,159.0 1108.0,197.4 1056.0,200.8 1004.0,202.0 952.0,200.3 900.0,152.3 848.0,154.8 796.0,200.1 744.0,198.6 692.0,183.9 640.0,180.8 588.0,182.5 536.0,185.0 484.0,189.2 432.0,187.0 380.0,186.2 328.0,187.7 276.0,187.7 224.0,195.2 172.0,193.5 120.0,193.2 68.0,193.9" fill="#fd8d3c" fill-opacity="0.9" stroke="#fff" stroke-width="0.4"><title>rt_renderer — apiGetCode</title></polygon>
<polygon points="68.0,133.0 120.0,131.7 172.0,133.1 224.0,134.1 276.0,127.7 328.0,128.8 380.0,126.5 432.0,133.1 484.0,136.0 536.0,132.1 588.0,135.0 640.0,134.4 692.0,137.4 744.0,156.0 796.0,156.3 848.0,111.1 900.0,108.6 952.0,161.2 1004.0,164.0 1056.0,162.3 1108.0,159.0 1108.0,159.0 1056.0,162.3 1004.0,164.0 952.0,162.2 900.0,109.9 848.0,112.7 796.0,157.5 744.0,156.0 692.0,137.4 640.0,134.4 588.0,135.2 536.0,132.1 484.0,136.0 432.0,133.8 380.0,127.1 328.0,128.8 276.0,127.7 224.0,134.1 172.0,133.1 120.0,132.3 68.0,133.0" fill="#969696" fill-opacity="0.9" stroke="#fff" stroke-width="0.4"><title>rt_renderer — apiTotal (self)</title></polygon>
<text x="12" y="578" fill="#666" font-weight="600">phase buckets</text>
<rect x="12" y="586" width="12" height="12" fill="#c7e9c0"/>
<text x="28" y="596" fill="#222">apiCreateGlobalSession</text>
<rect x="289" y="586" width="12" height="12" fill="#41ab5d"/>
<text x="305" y="596" fill="#222">apiCreateSession</text>
<rect x="566" y="586" width="12" height="12" fill="#2171b5"/>
<text x="582" y="596" fill="#222">apiLoadModule</text>
<rect x="843" y="586" width="12" height="12" fill="#6baed6"/>
<text x="859" y="596" fill="#222">apiFindEntryPoint</text>
<rect x="12" y="604" width="12" height="12" fill="#9e9ac8"/>
<text x="28" y="614" fill="#222">apiComposite</text>
<rect x="289" y="604" width="12" height="12" fill="#807dba"/>
<text x="305" y="614" fill="#222">apiSpecialize</text>
<rect x="566" y="604" width="12" height="12" fill="#6a51a3"/>
<text x="582" y="614" fill="#222">apiLink</text>
<rect x="843" y="604" width="12" height="12" fill="#fd8d3c"/>
<text x="859" y="614" fill="#222">apiGetCode</text>
<rect x="12" y="622" width="12" height="12" fill="#b5bdc4"/>
<text x="28" y="632" fill="#222">apiReflection</text>
<rect x="289" y="622" width="12" height="12" fill="#969696"/>
<text x="305" y="632" fill="#222">apiTotal (self)</text>
</svg>