<svg xmlns="http://www.w3.org/2000/svg" xmlns:xlink="http://www.w3.org/1999/xlink" width="1132" height="662" viewBox="0 0 1132 662" preserveAspectRatio="xMidYMid meet" font-family="sans-serif" font-size="13">
<rect width="1132" height="662" fill="white"/>
<text x="12" y="30" font-size="20" font-weight="bold">rt_renderer — full phase breakdown across releases (median ms)</text>
<text x="68" y="60" font-size="15" font-weight="600" fill="#1a1a1a">rt_renderer<tspan fill="#888" font-weight="400" text-decoration="none">  1.17×</tspan></text>
<line x1="68.0" y1="516.0" x2="1108.0" y2="516.0" stroke="#eee"/>
<text x="64.0" y="519.0" text-anchor="end" fill="#999">0.0</text>
<line x1="68.0" y1="296.0" x2="1108.0" y2="296.0" stroke="#eee"/>
<text x="64.0" y="299.0" text-anchor="end" fill="#999">691</text>
<line x1="68.0" y1="76.0" x2="1108.0" y2="76.0" stroke="#eee"/>
<text x="64.0" y="79.0" text-anchor="end" fill="#999">1383</text>
<line x1="68.0" y1="76.0" x2="68.0" y2="516.0" stroke="#333"/>
<line x1="68.0" y1="516.0" x2="1108.0" y2="516.0" stroke="#333"/>
<line x1="725.6" y1="76.0" x2="725.6" y2="516.0" stroke="#e8731a" stroke-width="1.2" stroke-dasharray="4 3"/>
<text x="728.6" y="87.0" fill="#e8731a" font-size="11">daily →</text>
<line x1="68.0" y1="516.0" x2="68.0" y2="519.0" stroke="#999"/>
<text x="68.0" y="531.0" text-anchor="end" fill="#666" transform="rotate(-50 68.0 531.0)">25.14</text>
<line x1="98.6" y1="516.0" x2="98.6" y2="519.0" stroke="#999"/>
<text x="98.6" y="531.0" text-anchor="end" fill="#666" transform="rotate(-50 98.6 531.0)">25.15</text>
<line x1="129.2" y1="516.0" x2="129.2" y2="519.0" stroke="#999"/>
<text x="129.2" y="531.0" text-anchor="end" fill="#666" transform="rotate(-50 129.2 531.0)">25.16</text>
<line x1="159.8" y1="516.0" x2="159.8" y2="519.0" stroke="#999"/>
<text x="159.8" y="531.0" text-anchor="end" fill="#666" transform="rotate(-50 159.8 531.0)">25.17</text>
<line x1="190.4" y1="516.0" x2="190.4" y2="519.0" stroke="#999"/>
<text x="190.4" y="531.0" text-anchor="end" fill="#666" transform="rotate(-50 190.4 531.0)">25.18</text>
<line x1="220.9" y1="516.0" x2="220.9" y2="519.0" stroke="#999"/>
<text x="220.9" y="531.0" text-anchor="end" fill="#666" transform="rotate(-50 220.9 531.0)">25.19</text>
<line x1="251.5" y1="516.0" x2="251.5" y2="519.0" stroke="#999"/>
<text x="251.5" y="531.0" text-anchor="end" fill="#666" transform="rotate(-50 251.5 531.0)">25.20</text>
<line x1="282.1" y1="516.0" x2="282.1" y2="519.0" stroke="#999"/>
<text x="282.1" y="531.0" text-anchor="end" fill="#666" transform="rotate(-50 282.1 531.0)">25.21</text>
<line x1="312.7" y1="516.0" x2="312.7" y2="519.0" stroke="#999"/>
<text x="312.7" y="531.0" text-anchor="end" fill="#666" transform="rotate(-50 312.7 531.0)">25.22</text>
<line x1="343.3" y1="516.0" x2="343.3" y2="519.0" stroke="#999"/>
<text x="343.3" y="531.0" text-anchor="end" fill="#666" transform="rotate(-50 343.3 531.0)">25.23</text>
<line x1="373.9" y1="516.0" x2="373.9" y2="519.0" stroke="#999"/>
<text x="373.9" y="531.0" text-anchor="end" fill="#666" transform="rotate(-50 373.9 531.0)">25.24</text>
<line x1="404.5" y1="516.0" x2="404.5" y2="519.0" stroke="#999"/>
<text x="404.5" y="531.0" text-anchor="end" fill="#666" transform="rotate(-50 404.5 531.0)">26.1</text>
<line x1="435.1" y1="516.0" x2="435.1" y2="519.0" stroke="#999"/>
<text x="435.1" y="531.0" text-anchor="end" fill="#666" transform="rotate(-50 435.1 531.0)">26.2</text>
<line x1="465.6" y1="516.0" x2="465.6" y2="519.0" stroke="#999"/>
<text x="465.6" y="531.0" text-anchor="end" fill="#666" transform="rotate(-50 465.6 531.0)">26.3</text>
<line x1="496.2" y1="516.0" x2="496.2" y2="519.0" stroke="#999"/>
<text x="496.2" y="531.0" text-anchor="end" fill="#666" transform="rotate(-50 496.2 531.0)">26.4</text>
<line x1="526.8" y1="516.0" x2="526.8" y2="519.0" stroke="#999"/>
<text x="526.8" y="531.0" text-anchor="end" fill="#666" transform="rotate(-50 526.8 531.0)">26.5</text>
<line x1="557.4" y1="516.0" x2="557.4" y2="519.0" stroke="#999"/>
<text x="557.4" y="531.0" text-anchor="end" fill="#666" transform="rotate(-50 557.4 531.0)">26.7</text>
<line x1="588.0" y1="516.0" x2="588.0" y2="519.0" stroke="#999"/>
<text x="588.0" y="531.0" text-anchor="end" fill="#666" transform="rotate(-50 588.0 531.0)">26.8</text>
<line x1="618.6" y1="516.0" x2="618.6" y2="519.0" stroke="#999"/>
<text x="618.6" y="531.0" text-anchor="end" fill="#666" transform="rotate(-50 618.6 531.0)">26.9</text>
<line x1="649.2" y1="516.0" x2="649.2" y2="519.0" stroke="#999"/>
<text x="649.2" y="531.0" text-anchor="end" fill="#666" transform="rotate(-50 649.2 531.0)">26.10</text>
<line x1="679.8" y1="516.0" x2="679.8" y2="519.0" stroke="#999"/>
<text x="679.8" y="531.0" text-anchor="end" fill="#666" transform="rotate(-50 679.8 531.0)">26.11</text>
<line x1="710.4" y1="516.0" x2="710.4" y2="519.0" stroke="#999"/>
<text x="710.4" y="531.0" text-anchor="end" fill="#666" transform="rotate(-50 710.4 531.0)">26.12</text>
<line x1="740.9" y1="516.0" x2="740.9" y2="519.0" stroke="#999"/>
<text x="740.9" y="531.0" text-anchor="end" fill="#e8731a" transform="rotate(-50 740.9 531.0)">06-25</text>
<line x1="771.5" y1="516.0" x2="771.5" y2="519.0" stroke="#999"/>
<text x="771.5" y="531.0" text-anchor="end" fill="#e8731a" transform="rotate(-50 771.5 531.0)">06-26</text>
<line x1="802.1" y1="516.0" x2="802.1" y2="519.0" stroke="#999"/>
<text x="802.1" y="531.0" text-anchor="end" fill="#e8731a" transform="rotate(-50 802.1 531.0)">06-28</text>
<line x1="832.7" y1="516.0" x2="832.7" y2="519.0" stroke="#999"/>
<text x="832.7" y="531.0" text-anchor="end" fill="#e8731a" transform="rotate(-50 832.7 531.0)">07-01</text>
<line x1="863.3" y1="516.0" x2="863.3" y2="519.0" stroke="#999"/>
<text x="863.3" y="531.0" text-anchor="end" fill="#e8731a" transform="rotate(-50 863.3 531.0)">07-02</text>
<line x1="893.9" y1="516.0" x2="893.9" y2="519.0" stroke="#999"/>
<text x="893.9" y="531.0" text-anchor="end" fill="#e8731a" transform="rotate(-50 893.9 531.0)">07-03</text>
<line x1="924.5" y1="516.0" x2="924.5" y2="519.0" stroke="#999"/>
<text x="924.5" y="531.0" text-anchor="end" fill="#e8731a" transform="rotate(-50 924.5 531.0)">07-06</text>
<line x1="955.1" y1="516.0" x2="955.1" y2="519.0" stroke="#999"/>
<text x="955.1" y="531.0" text-anchor="end" fill="#e8731a" transform="rotate(-50 955.1 531.0)">07-07</text>
<line x1="985.6" y1="516.0" x2="985.6" y2="519.0" stroke="#999"/>
<text x="985.6" y="531.0" text-anchor="end" fill="#e8731a" transform="rotate(-50 985.6 531.0)">07-08</text>
<line x1="1016.2" y1="516.0" x2="1016.2" y2="519.0" stroke="#999"/>
<text x="1016.2" y="531.0" text-anchor="end" fill="#e8731a" transform="rotate(-50 1016.2 531.0)">07-09</text>
<line x1="1046.8" y1="516.0" x2="1046.8" y2="519.0" stroke="#999"/>
<text x="1046.8" y="531.0" text-anchor="end" fill="#e8731a" transform="rotate(-50 1046.8 531.0)">07-10</text>
<line x1="1077.4" y1="516.0" x2="1077.4" y2="519.0" stroke="#999"/>
<text x="1077.4" y="531.0" text-anchor="end" fill="#e8731a" transform="rotate(-50 1077.4 531.0)">07-11</text>
<line x1="1108.0" y1="516.0" x2="1108.0" y2="519.0" stroke="#999"/>
<text x="1108.0" y="531.0" text-anchor="end" fill="#e8731a" transform="rotate(-50 1108.0 531.0)">07-14</text>
<polygon points="68.0,437.5 98.6,495.2 129.2,495.0 159.8,490.2 190.4,491.8 220.9,492.3 251.5,493.3 282.1,493.9 312.7,502.4 343.3,502.0 373.9,502.5 404.5,501.6 435.1,502.2 465.6,502.1 496.2,501.5 526.8,501.8 557.4,483.2 588.0,483.6 618.6,478.4 649.2,473.9 679.8,481.9 710.4,480.4 740.9,479.4 771.5,479.6 802.1,478.9 832.7,480.3 863.3,479.7 893.9,480.2 924.5,479.1 955.1,479.8 985.6,480.1 1016.2,479.1 1046.8,479.5 1077.4,480.4 1108.0,480.5 1108.0,516.0 1077.4,516.0 1046.8,516.0 1016.2,516.0 985.6,516.0 955.1,516.0 924.5,516.0 893.9,516.0 863.3,516.0 832.7,516.0 802.1,516.0 771.5,516.0 740.9,516.0 710.4,516.0 679.8,516.0 649.2,516.0 618.6,516.0 588.0,516.0 557.4,516.0 526.8,516.0 496.2,516.0 465.6,516.0 435.1,516.0 404.5,516.0 373.9,516.0 343.3,516.0 312.7,516.0 282.1,516.0 251.5,516.0 220.9,516.0 190.4,516.0 159.8,516.0 129.2,516.0 98.6,516.0 68.0,516.0" fill="#c7e9c0" fill-opacity="0.9" stroke="#fff" stroke-width="0.4"><title>rt_renderer — apiCreateGlobalSession</title></polygon>
<polygon points="68.0,437.5 98.6,495.2 129.2,495.0 159.8,490.1 190.4,491.8 220.9,492.2 251.5,493.3 282.1,493.9 312.7,502.4 343.3,502.0 373.9,502.4 404.5,501.6 435.1,502.2 465.6,502.1 496.2,501.5 526.8,501.7 557.4,483.2 588.0,483.5 618.6,478.4 649.2,473.9 679.8,481.8 710.4,480.4 740.9,479.3 771.5,479.6 802.1,478.9 832.7,480.3 863.3,479.7 893.9,480.2 924.5,479.0 955.1,479.8 985.6,480.1 1016.2,479.0 1046.8,479.5 1077.4,480.4 1108.0,480.5 1108.0,480.5 1077.4,480.4 1046.8,479.5 1016.2,479.1 985.6,480.1 955.1,479.8 924.5,479.1 893.9,480.2 863.3,479.7 832.7,480.3 802.1,478.9 771.5,479.6 740.9,479.4 710.4,480.4 679.8,481.9 649.2,473.9 618.6,478.4 588.0,483.6 557.4,483.2 526.8,501.8 496.2,501.5 465.6,502.1 435.1,502.2 404.5,501.6 373.9,502.5 343.3,502.0 312.7,502.4 282.1,493.9 251.5,493.3 220.9,492.3 190.4,491.8 159.8,490.2 129.2,495.0 98.6,495.2 68.0,437.5" fill="#41ab5d" fill-opacity="0.9" stroke="#fff" stroke-width="0.4"><title>rt_renderer — apiCreateSession</title></polygon>
<polygon points="68.0,323.8 98.6,376.1 129.2,376.3 159.8,343.2 190.4,354.9 220.9,354.7 251.5,363.1 282.1,367.1 312.7,376.0 343.3,376.5 373.9,376.1 404.5,370.8 435.1,364.2 465.6,364.8 496.2,362.4 526.8,363.4 557.4,240.5 588.0,240.7 618.6,190.7 649.2,197.0 679.8,310.3 710.4,309.9 740.9,302.0 771.5,301.5 802.1,301.7 832.7,302.8 863.3,297.8 893.9,297.9 924.5,296.9 955.1,297.4 985.6,298.9 1016.2,296.0 1046.8,294.4 1077.4,293.2 1108.0,295.3 1108.0,480.5 1077.4,480.4 1046.8,479.5 1016.2,479.0 985.6,480.1 955.1,479.8 924.5,479.0 893.9,480.2 863.3,479.7 832.7,480.3 802.1,478.9 771.5,479.6 740.9,479.3 710.4,480.4 679.8,481.8 649.2,473.9 618.6,478.4 588.0,483.5 557.4,483.2 526.8,501.7 496.2,501.5 465.6,502.1 435.1,502.2 404.5,501.6 373.9,502.4 343.3,502.0 312.7,502.4 282.1,493.9 251.5,493.3 220.9,492.2 190.4,491.8 159.8,490.1 129.2,495.0 98.6,495.2 68.0,437.5" fill="#2171b5" fill-opacity="0.9" stroke="#fff" stroke-width="0.4"><title>rt_renderer — apiLoadModule</title></polygon>
<polygon points="68.0,323.8 98.6,376.1 129.2,376.3 159.8,343.2 190.4,354.9 220.9,354.7 251.5,363.1 282.1,367.1 312.7,376.0 343.3,376.5 373.9,376.1 404.5,370.8 435.1,364.2 465.6,364.8 496.2,362.4 526.8,363.4 557.4,240.5 588.0,240.7 618.6,190.7 649.2,197.0 679.8,310.3 710.4,309.9 740.9,302.0 771.5,301.5 802.1,301.7 832.7,302.8 863.3,297.8 893.9,297.9 924.5,296.9 955.1,297.4 985.6,298.9 1016.2,296.0 1046.8,294.4 1077.4,293.2 1108.0,295.3 1108.0,295.3 1077.4,293.2 1046.8,294.4 1016.2,296.0 985.6,298.9 955.1,297.4 924.5,296.9 893.9,297.9 863.3,297.8 832.7,302.8 802.1,301.7 771.5,301.5 740.9,302.0 710.4,309.9 679.8,310.3 649.2,197.0 618.6,190.7 588.0,240.7 557.4,240.5 526.8,363.4 496.2,362.4 465.6,364.8 435.1,364.2 404.5,370.8 373.9,376.1 343.3,376.5 312.7,376.0 282.1,367.1 251.5,363.1 220.9,354.7 190.4,354.9 159.8,343.2 129.2,376.3 98.6,376.1 68.0,323.8" fill="#6baed6" fill-opacity="0.9" stroke="#fff" stroke-width="0.4"><title>rt_renderer — apiFindEntryPoint</title></polygon>
<polygon points="68.0,323.8 98.6,376.1 129.2,376.3 159.8,343.2 190.4,354.9 220.9,354.7 251.5,363.1 282.1,367.0 312.7,375.9 343.3,376.5 373.9,376.1 404.5,370.8 435.1,364.2 465.6,364.8 496.2,362.4 526.8,363.3 557.4,240.5 588.0,240.7 618.6,190.6 649.2,196.9 679.8,310.2 710.4,309.9 740.9,302.0 771.5,301.5 802.1,301.7 832.7,302.8 863.3,297.8 893.9,297.8 924.5,296.8 955.1,297.4 985.6,298.8 1016.2,296.0 1046.8,294.3 1077.4,293.2 1108.0,295.3 1108.0,295.3 1077.4,293.2 1046.8,294.4 1016.2,296.0 985.6,298.9 955.1,297.4 924.5,296.9 893.9,297.9 863.3,297.8 832.7,302.8 802.1,301.7 771.5,301.5 740.9,302.0 710.4,309.9 679.8,310.3 649.2,197.0 618.6,190.7 588.0,240.7 557.4,240.5 526.8,363.4 496.2,362.4 465.6,364.8 435.1,364.2 404.5,370.8 373.9,376.1 343.3,376.5 312.7,376.0 282.1,367.1 251.5,363.1 220.9,354.7 190.4,354.9 159.8,343.2 129.2,376.3 98.6,376.1 68.0,323.8" fill="#9e9ac8" fill-opacity="0.9" stroke="#fff" stroke-width="0.4"><title>rt_renderer — apiComposite</title></polygon>
<polygon points="68.0,323.7 98.6,376.0 129.2,376.2 159.8,343.1 190.4,354.8 220.9,354.6 251.5,363.0 282.1,367.0 312.7,375.9 343.3,376.4 373.9,376.0 404.5,370.8 435.1,364.2 465.6,364.8 496.2,362.3 526.8,363.3 557.4,240.5 588.0,240.6 618.6,190.5 649.2,196.9 679.8,310.2 710.4,309.8 740.9,301.9 771.5,301.4 802.1,301.6 832.7,302.8 863.3,297.8 893.9,297.8 924.5,296.8 955.1,297.3 985.6,298.8 1016.2,295.9 1046.8,294.3 1077.4,293.1 1108.0,295.2 1108.0,295.3 1077.4,293.2 1046.8,294.3 1016.2,296.0 985.6,298.8 955.1,297.4 924.5,296.8 893.9,297.8 863.3,297.8 832.7,302.8 802.1,301.7 771.5,301.5 740.9,302.0 710.4,309.9 679.8,310.2 649.2,196.9 618.6,190.6 588.0,240.7 557.4,240.5 526.8,363.3 496.2,362.4 465.6,364.8 435.1,364.2 404.5,370.8 373.9,376.1 343.3,376.5 312.7,375.9 282.1,367.0 251.5,363.1 220.9,354.7 190.4,354.9 159.8,343.2 129.2,376.3 98.6,376.1 68.0,323.8" fill="#6a51a3" fill-opacity="0.9" stroke="#fff" stroke-width="0.4"><title>rt_renderer — apiLink</title></polygon>
<polygon points="68.0,301.7 98.6,353.2 129.2,353.7 159.8,315.1 190.4,329.3 220.9,330.1 251.5,339.8 282.1,344.3 312.7,353.4 343.3,353.8 373.9,352.0 404.5,346.7 435.1,338.9 465.6,339.0 496.2,336.9 526.8,337.2 557.4,177.9 588.0,177.8 618.6,111.2 649.2,117.1 679.8,269.4 710.4,273.0 740.9,261.4 771.5,260.9 802.1,261.5 832.7,262.1 863.3,257.9 893.9,258.6 924.5,257.4 955.1,261.9 985.6,263.4 1016.2,260.8 1046.8,262.9 1077.4,262.4 1108.0,264.3 1108.0,295.2 1077.4,293.1 1046.8,294.3 1016.2,295.9 985.6,298.8 955.1,297.3 924.5,296.8 893.9,297.8 863.3,297.8 832.7,302.8 802.1,301.6 771.5,301.4 740.9,301.9 710.4,309.8 679.8,310.2 649.2,196.9 618.6,190.5 588.0,240.6 557.4,240.5 526.8,363.3 496.2,362.3 465.6,364.8 435.1,364.2 404.5,370.8 373.9,376.0 343.3,376.4 312.7,375.9 282.1,367.0 251.5,363.0 220.9,354.6 190.4,354.8 159.8,343.1 129.2,376.2 98.6,376.0 68.0,323.7" fill="#fd8d3c" fill-opacity="0.9" stroke="#fff" stroke-width="0.4"><title>rt_renderer — apiGetCode</title></polygon>
<polygon points="68.0,301.7 98.6,353.1 129.2,353.2 159.8,312.5 190.4,326.4 220.9,328.7 251.5,339.5 282.1,344.2 312.7,353.4 343.3,353.3 373.9,352.0 404.5,346.7 435.1,338.7 465.6,339.0 496.2,336.9 526.8,337.2 557.4,176.9 588.0,176.2 618.6,108.6 649.2,114.6 679.8,269.4 710.4,273.0 740.9,261.4 771.5,260.5 802.1,261.5 832.7,262.1 863.3,257.9 893.9,258.6 924.5,257.1 955.1,261.5 985.6,263.4 1016.2,260.8 1046.8,262.7 1077.4,262.4 1108.0,264.3 1108.0,264.3 1077.4,262.4 1046.8,262.9 1016.2,260.8 985.6,263.4 955.1,261.9 924.5,257.4 893.9,258.6 863.3,257.9 832.7,262.1 802.1,261.5 771.5,260.9 740.9,261.4 710.4,273.0 679.8,269.4 649.2,117.1 618.6,111.2 588.0,177.8 557.4,177.9 526.8,337.2 496.2,336.9 465.6,339.0 435.1,338.9 404.5,346.7 373.9,352.0 343.3,353.8 312.7,353.4 282.1,344.3 251.5,339.8 220.9,330.1 190.4,329.3 159.8,315.1 129.2,353.7 98.6,353.2 68.0,301.7" fill="#969696" fill-opacity="0.9" stroke="#fff" stroke-width="0.4"><title>rt_renderer — apiTotal (self)</title></polygon>
<text x="12" y="578" fill="#666" font-weight="600">phase buckets</text>
<rect x="12" y="586" width="12" height="12" fill="#c7e9c0"/>
<text x="28" y="596" fill="#222">apiCreateGlobalSession</text>
<rect x="289" y="586" width="12" height="12" fill="#41ab5d"/>
<text x="305" y="596" fill="#222">apiCreateSession</text>
<rect x="566" y="586" width="12" height="12" fill="#2171b5"/>
<text x="582" y="596" fill="#222">apiLoadModule</text>
<rect x="843" y="586" width="12" height="12" fill="#6baed6"/>
<text x="859" y="596" fill="#222">apiFindEntryPoint</text>
<rect x="12" y="604" width="12" height="12" fill="#9e9ac8"/>
<text x="28" y="614" fill="#222">apiComposite</text>
<rect x="289" y="604" width="12" height="12" fill="#807dba"/>
<text x="305" y="614" fill="#222">apiSpecialize</text>
<rect x="566" y="604" width="12" height="12" fill="#6a51a3"/>
<text x="582" y="614" fill="#222">apiLink</text>
<rect x="843" y="604" width="12" height="12" fill="#fd8d3c"/>
<text x="859" y="614" fill="#222">apiGetCode</text>
<rect x="12" y="622" width="12" height="12" fill="#b5bdc4"/>
<text x="28" y="632" fill="#222">apiReflection</text>
<rect x="289" y="622" width="12" height="12" fill="#969696"/>
<text x="305" y="632" fill="#222">apiTotal (self)</text>
</svg>