<svg xmlns="http://www.w3.org/2000/svg" xmlns:xlink="http://www.w3.org/1999/xlink" width="1132" height="662" viewBox="0 0 1132 662" preserveAspectRatio="xMidYMid meet" font-family="sans-serif" font-size="13">
<rect width="1132" height="662" fill="white"/>
<text x="12" y="30" font-size="20" font-weight="bold">rt_renderer — Daily tip-of-tree (last 30 days) (median ms)</text>
<text x="68" y="60" font-size="15" font-weight="600" fill="#1a1a1a">rt_renderer<tspan fill="#888" font-weight="400" text-decoration="none">  0.93×</tspan></text>
<line x1="68.0" y1="516.0" x2="1108.0" y2="516.0" stroke="#eee"/>
<text x="64.0" y="519.0" text-anchor="end" fill="#999">0.0</text>
<line x1="68.0" y1="296.0" x2="1108.0" y2="296.0" stroke="#eee"/>
<text x="64.0" y="299.0" text-anchor="end" fill="#999">460</text>
<line x1="68.0" y1="76.0" x2="1108.0" y2="76.0" stroke="#eee"/>
<text x="64.0" y="79.0" text-anchor="end" fill="#999">919</text>
<line x1="68.0" y1="76.0" x2="68.0" y2="516.0" stroke="#333"/>
<line x1="68.0" y1="516.0" x2="1108.0" y2="516.0" stroke="#333"/>
<line x1="68.0" y1="516.0" x2="68.0" y2="519.0" stroke="#999"/>
<text x="68.0" y="531.0" text-anchor="end" fill="#e8731a" transform="rotate(-50 68.0 531.0)">06-25</text>
<line x1="129.2" y1="516.0" x2="129.2" y2="519.0" stroke="#999"/>
<text x="129.2" y="531.0" text-anchor="end" fill="#e8731a" transform="rotate(-50 129.2 531.0)">06-26</text>
<line x1="190.4" y1="516.0" x2="190.4" y2="519.0" stroke="#999"/>
<text x="190.4" y="531.0" text-anchor="end" fill="#e8731a" transform="rotate(-50 190.4 531.0)">06-28</text>
<line x1="251.5" y1="516.0" x2="251.5" y2="519.0" stroke="#999"/>
<text x="251.5" y="531.0" text-anchor="end" fill="#e8731a" transform="rotate(-50 251.5 531.0)">07-01</text>
<line x1="312.7" y1="516.0" x2="312.7" y2="519.0" stroke="#999"/>
<text x="312.7" y="531.0" text-anchor="end" fill="#e8731a" transform="rotate(-50 312.7 531.0)">07-02</text>
<line x1="373.9" y1="516.0" x2="373.9" y2="519.0" stroke="#999"/>
<text x="373.9" y="531.0" text-anchor="end" fill="#e8731a" transform="rotate(-50 373.9 531.0)">07-03</text>
<line x1="435.1" y1="516.0" x2="435.1" y2="519.0" stroke="#999"/>
<text x="435.1" y="531.0" text-anchor="end" fill="#e8731a" transform="rotate(-50 435.1 531.0)">07-06</text>
<line x1="496.2" y1="516.0" x2="496.2" y2="519.0" stroke="#999"/>
<text x="496.2" y="531.0" text-anchor="end" fill="#e8731a" transform="rotate(-50 496.2 531.0)">07-07</text>
<line x1="557.4" y1="516.0" x2="557.4" y2="519.0" stroke="#999"/>
<text x="557.4" y="531.0" text-anchor="end" fill="#e8731a" transform="rotate(-50 557.4 531.0)">07-08</text>
<line x1="618.6" y1="516.0" x2="618.6" y2="519.0" stroke="#999"/>
<text x="618.6" y="531.0" text-anchor="end" fill="#e8731a" transform="rotate(-50 618.6 531.0)">07-09</text>
<line x1="679.8" y1="516.0" x2="679.8" y2="519.0" stroke="#999"/>
<text x="679.8" y="531.0" text-anchor="end" fill="#e8731a" transform="rotate(-50 679.8 531.0)">07-10</text>
<line x1="740.9" y1="516.0" x2="740.9" y2="519.0" stroke="#999"/>
<text x="740.9" y="531.0" text-anchor="end" fill="#e8731a" transform="rotate(-50 740.9 531.0)">07-11</text>
<line x1="802.1" y1="516.0" x2="802.1" y2="519.0" stroke="#999"/>
<text x="802.1" y="531.0" text-anchor="end" fill="#e8731a" transform="rotate(-50 802.1 531.0)">07-14</text>
<line x1="863.3" y1="516.0" x2="863.3" y2="519.0" stroke="#999"/>
<text x="863.3" y="531.0" text-anchor="end" fill="#e8731a" transform="rotate(-50 863.3 531.0)">07-15</text>
<line x1="924.5" y1="516.0" x2="924.5" y2="519.0" stroke="#999"/>
<text x="924.5" y="531.0" text-anchor="end" fill="#e8731a" transform="rotate(-50 924.5 531.0)">07-15</text>
<line x1="985.6" y1="516.0" x2="985.6" y2="519.0" stroke="#999"/>
<text x="985.6" y="531.0" text-anchor="end" fill="#e8731a" transform="rotate(-50 985.6 531.0)">07-16</text>
<line x1="1046.8" y1="516.0" x2="1046.8" y2="519.0" stroke="#999"/>
<text x="1046.8" y="531.0" text-anchor="end" fill="#e8731a" transform="rotate(-50 1046.8 531.0)">07-17</text>
<line x1="1108.0" y1="516.0" x2="1108.0" y2="519.0" stroke="#999"/>
<text x="1108.0" y="531.0" text-anchor="end" fill="#e8731a" transform="rotate(-50 1108.0 531.0)">07-18</text>
<polygon points="68.0,460.9 129.2,461.2 190.4,460.1 251.5,462.3 312.7,461.4 373.9,462.2 435.1,460.4 496.2,461.5 557.4,462.0 618.6,460.4 679.8,461.1 740.9,462.4 802.1,462.6 863.3,463.0 924.5,464.3 985.6,464.3 1046.8,461.6 1108.0,470.0 1108.0,516.0 1046.8,516.0 985.6,516.0 924.5,516.0 863.3,516.0 802.1,516.0 740.9,516.0 679.8,516.0 618.6,516.0 557.4,516.0 496.2,516.0 435.1,516.0 373.9,516.0 312.7,516.0 251.5,516.0 190.4,516.0 129.2,516.0 68.0,516.0" fill="#c7e9c0" fill-opacity="0.9" stroke="#fff" stroke-width="0.4"><title>rt_renderer — apiCreateGlobalSession</title></polygon>
<polygon points="68.0,460.9 129.2,461.2 190.4,460.1 251.5,462.3 312.7,461.4 373.9,462.1 435.1,460.4 496.2,461.5 557.4,461.9 618.6,460.4 679.8,461.1 740.9,462.4 802.1,462.5 863.3,463.0 924.5,464.3 985.6,464.3 1046.8,461.5 1108.0,469.9 1108.0,470.0 1046.8,461.6 985.6,464.3 924.5,464.3 863.3,463.0 802.1,462.6 740.9,462.4 679.8,461.1 618.6,460.4 557.4,462.0 496.2,461.5 435.1,460.4 373.9,462.2 312.7,461.4 251.5,462.3 190.4,460.1 129.2,461.2 68.0,460.9" fill="#41ab5d" fill-opacity="0.9" stroke="#fff" stroke-width="0.4"><title>rt_renderer — apiCreateSession</title></polygon>
<polygon points="68.0,194.1 129.2,193.3 190.4,193.6 251.5,195.3 312.7,187.8 373.9,187.9 435.1,186.3 496.2,187.2 557.4,189.4 618.6,185.1 679.8,182.6 740.9,180.9 802.1,184.0 863.3,198.8 924.5,200.2 985.6,154.9 1046.8,152.4 1108.0,200.4 1108.0,469.9 1046.8,461.5 985.6,464.3 924.5,464.3 863.3,463.0 802.1,462.5 740.9,462.4 679.8,461.1 618.6,460.4 557.4,461.9 496.2,461.5 435.1,460.4 373.9,462.1 312.7,461.4 251.5,462.3 190.4,460.1 129.2,461.2 68.0,460.9" fill="#2171b5" fill-opacity="0.9" stroke="#fff" stroke-width="0.4"><title>rt_renderer — apiLoadModule</title></polygon>
<polygon points="68.0,194.1 129.2,193.3 190.4,193.6 251.5,195.3 312.7,187.8 373.9,187.9 435.1,186.3 496.2,187.2 557.4,189.4 618.6,185.1 679.8,182.6 740.9,180.9 802.1,184.0 863.3,198.8 924.5,200.2 985.6,154.9 1046.8,152.4 1108.0,200.4 1108.0,200.4 1046.8,152.4 985.6,154.9 924.5,200.2 863.3,198.8 802.1,184.0 740.9,180.9 679.8,182.6 618.6,185.1 557.4,189.4 496.2,187.2 435.1,186.3 373.9,187.9 312.7,187.8 251.5,195.3 190.4,193.6 129.2,193.3 68.0,194.1" fill="#6baed6" fill-opacity="0.9" stroke="#fff" stroke-width="0.4"><title>rt_renderer — apiFindEntryPoint</title></polygon>
<polygon points="68.0,194.0 129.2,193.3 190.4,193.6 251.5,195.3 312.7,187.8 373.9,187.8 435.1,186.3 496.2,187.1 557.4,189.3 618.6,185.1 679.8,182.6 740.9,180.9 802.1,184.0 863.3,198.7 924.5,200.2 985.6,154.9 1046.8,152.4 1108.0,200.4 1108.0,200.4 1046.8,152.4 985.6,154.9 924.5,200.2 863.3,198.8 802.1,184.0 740.9,180.9 679.8,182.6 618.6,185.1 557.4,189.4 496.2,187.2 435.1,186.3 373.9,187.9 312.7,187.8 251.5,195.3 190.4,193.6 129.2,193.3 68.0,194.1" fill="#9e9ac8" fill-opacity="0.9" stroke="#fff" stroke-width="0.4"><title>rt_renderer — apiComposite</title></polygon>
<polygon points="68.0,193.9 129.2,193.2 190.4,193.5 251.5,195.2 312.7,187.7 373.9,187.7 435.1,186.2 496.2,187.0 557.4,189.2 618.6,185.0 679.8,182.5 740.9,180.8 802.1,183.9 863.3,198.6 924.5,200.1 985.6,154.8 1046.8,152.3 1108.0,200.3 1108.0,200.4 1046.8,152.4 985.6,154.9 924.5,200.2 863.3,198.7 802.1,184.0 740.9,180.9 679.8,182.6 618.6,185.1 557.4,189.3 496.2,187.1 435.1,186.3 373.9,187.8 312.7,187.8 251.5,195.3 190.4,193.6 129.2,193.3 68.0,194.0" fill="#6a51a3" fill-opacity="0.9" stroke="#fff" stroke-width="0.4"><title>rt_renderer — apiLink</title></polygon>
<polygon points="68.0,133.0 129.2,132.3 190.4,133.1 251.5,134.1 312.7,127.7 373.9,128.8 435.1,127.1 496.2,133.8 557.4,136.0 618.6,132.1 679.8,135.2 740.9,134.4 802.1,137.4 863.3,156.0 924.5,157.5 985.6,112.7 1046.8,109.9 1108.0,162.2 1108.0,200.3 1046.8,152.3 985.6,154.8 924.5,200.1 863.3,198.6 802.1,183.9 740.9,180.8 679.8,182.5 618.6,185.0 557.4,189.2 496.2,187.0 435.1,186.2 373.9,187.7 312.7,187.7 251.5,195.2 190.4,193.5 129.2,193.2 68.0,193.9" fill="#fd8d3c" fill-opacity="0.9" stroke="#fff" stroke-width="0.4"><title>rt_renderer — apiGetCode</title></polygon>
<polygon points="68.0,133.0 129.2,131.7 190.4,133.1 251.5,134.1 312.7,127.7 373.9,128.8 435.1,126.5 496.2,133.1 557.4,136.0 618.6,132.1 679.8,135.0 740.9,134.4 802.1,137.4 863.3,156.0 924.5,156.3 985.6,111.1 1046.8,108.6 1108.0,161.2 1108.0,162.2 1046.8,109.9 985.6,112.7 924.5,157.5 863.3,156.0 802.1,137.4 740.9,134.4 679.8,135.2 618.6,132.1 557.4,136.0 496.2,133.8 435.1,127.1 373.9,128.8 312.7,127.7 251.5,134.1 190.4,133.1 129.2,132.3 68.0,133.0" fill="#969696" fill-opacity="0.9" stroke="#fff" stroke-width="0.4"><title>rt_renderer — apiTotal (self)</title></polygon>
<text x="12" y="578" fill="#666" font-weight="600">phase buckets</text>
<rect x="12" y="586" width="12" height="12" fill="#c7e9c0"/>
<text x="28" y="596" fill="#222">apiCreateGlobalSession</text>
<rect x="289" y="586" width="12" height="12" fill="#41ab5d"/>
<text x="305" y="596" fill="#222">apiCreateSession</text>
<rect x="566" y="586" width="12" height="12" fill="#2171b5"/>
<text x="582" y="596" fill="#222">apiLoadModule</text>
<rect x="843" y="586" width="12" height="12" fill="#6baed6"/>
<text x="859" y="596" fill="#222">apiFindEntryPoint</text>
<rect x="12" y="604" width="12" height="12" fill="#9e9ac8"/>
<text x="28" y="614" fill="#222">apiComposite</text>
<rect x="289" y="604" width="12" height="12" fill="#807dba"/>
<text x="305" y="614" fill="#222">apiSpecialize</text>
<rect x="566" y="604" width="12" height="12" fill="#6a51a3"/>
<text x="582" y="614" fill="#222">apiLink</text>
<rect x="843" y="604" width="12" height="12" fill="#fd8d3c"/>
<text x="859" y="614" fill="#222">apiGetCode</text>
<rect x="12" y="622" width="12" height="12" fill="#b5bdc4"/>
<text x="28" y="632" fill="#222">apiReflection</text>
<rect x="289" y="622" width="12" height="12" fill="#969696"/>
<text x="305" y="632" fill="#222">apiTotal (self)</text>
</svg>