<svg xmlns="http://www.w3.org/2000/svg" xmlns:xlink="http://www.w3.org/1999/xlink" width="1132" height="662" viewBox="0 0 1132 662" preserveAspectRatio="xMidYMid meet" font-family="sans-serif" font-size="13">
<rect width="1132" height="662" fill="white"/>
<text x="12" y="30" font-size="20" font-weight="bold">rt_renderer — Daily tip-of-tree (last 30 days) (median ms)</text>
<text x="68" y="60" font-size="15" font-weight="600" fill="#1a1a1a">rt_renderer<tspan fill="#888" font-weight="400" text-decoration="none">  0.94×</tspan></text>
<line x1="68.0" y1="516.0" x2="1108.0" y2="516.0" stroke="#eee"/>
<text x="64.0" y="519.0" text-anchor="end" fill="#999">0.0</text>
<line x1="68.0" y1="296.0" x2="1108.0" y2="296.0" stroke="#eee"/>
<text x="64.0" y="299.0" text-anchor="end" fill="#999">460</text>
<line x1="68.0" y1="76.0" x2="1108.0" y2="76.0" stroke="#eee"/>
<text x="64.0" y="79.0" text-anchor="end" fill="#999">919</text>
<line x1="68.0" y1="76.0" x2="68.0" y2="516.0" stroke="#333"/>
<line x1="68.0" y1="516.0" x2="1108.0" y2="516.0" stroke="#333"/>
<line x1="68.0" y1="516.0" x2="68.0" y2="519.0" stroke="#999"/>
<text x="68.0" y="531.0" text-anchor="end" fill="#e8731a" transform="rotate(-50 68.0 531.0)">06-25</text>
<line x1="117.5" y1="516.0" x2="117.5" y2="519.0" stroke="#999"/>
<text x="117.5" y="531.0" text-anchor="end" fill="#e8731a" transform="rotate(-50 117.5 531.0)">06-26</text>
<line x1="167.0" y1="516.0" x2="167.0" y2="519.0" stroke="#999"/>
<text x="167.0" y="531.0" text-anchor="end" fill="#e8731a" transform="rotate(-50 167.0 531.0)">06-28</text>
<line x1="216.6" y1="516.0" x2="216.6" y2="519.0" stroke="#999"/>
<text x="216.6" y="531.0" text-anchor="end" fill="#e8731a" transform="rotate(-50 216.6 531.0)">07-01</text>
<line x1="266.1" y1="516.0" x2="266.1" y2="519.0" stroke="#999"/>
<text x="266.1" y="531.0" text-anchor="end" fill="#e8731a" transform="rotate(-50 266.1 531.0)">07-02</text>
<line x1="315.6" y1="516.0" x2="315.6" y2="519.0" stroke="#999"/>
<text x="315.6" y="531.0" text-anchor="end" fill="#e8731a" transform="rotate(-50 315.6 531.0)">07-03</text>
<line x1="365.1" y1="516.0" x2="365.1" y2="519.0" stroke="#999"/>
<text x="365.1" y="531.0" text-anchor="end" fill="#e8731a" transform="rotate(-50 365.1 531.0)">07-06</text>
<line x1="414.7" y1="516.0" x2="414.7" y2="519.0" stroke="#999"/>
<text x="414.7" y="531.0" text-anchor="end" fill="#e8731a" transform="rotate(-50 414.7 531.0)">07-07</text>
<line x1="464.2" y1="516.0" x2="464.2" y2="519.0" stroke="#999"/>
<text x="464.2" y="531.0" text-anchor="end" fill="#e8731a" transform="rotate(-50 464.2 531.0)">07-08</text>
<line x1="513.7" y1="516.0" x2="513.7" y2="519.0" stroke="#999"/>
<text x="513.7" y="531.0" text-anchor="end" fill="#e8731a" transform="rotate(-50 513.7 531.0)">07-09</text>
<line x1="563.2" y1="516.0" x2="563.2" y2="519.0" stroke="#999"/>
<text x="563.2" y="531.0" text-anchor="end" fill="#e8731a" transform="rotate(-50 563.2 531.0)">07-10</text>
<line x1="612.8" y1="516.0" x2="612.8" y2="519.0" stroke="#999"/>
<text x="612.8" y="531.0" text-anchor="end" fill="#e8731a" transform="rotate(-50 612.8 531.0)">07-11</text>
<line x1="662.3" y1="516.0" x2="662.3" y2="519.0" stroke="#999"/>
<text x="662.3" y="531.0" text-anchor="end" fill="#e8731a" transform="rotate(-50 662.3 531.0)">07-14</text>
<line x1="711.8" y1="516.0" x2="711.8" y2="519.0" stroke="#999"/>
<text x="711.8" y="531.0" text-anchor="end" fill="#e8731a" transform="rotate(-50 711.8 531.0)">07-15</text>
<line x1="761.3" y1="516.0" x2="761.3" y2="519.0" stroke="#999"/>
<text x="761.3" y="531.0" text-anchor="end" fill="#e8731a" transform="rotate(-50 761.3 531.0)">07-15</text>
<line x1="810.9" y1="516.0" x2="810.9" y2="519.0" stroke="#999"/>
<text x="810.9" y="531.0" text-anchor="end" fill="#e8731a" transform="rotate(-50 810.9 531.0)">07-16</text>
<line x1="860.4" y1="516.0" x2="860.4" y2="519.0" stroke="#999"/>
<text x="860.4" y="531.0" text-anchor="end" fill="#e8731a" transform="rotate(-50 860.4 531.0)">07-17</text>
<line x1="909.9" y1="516.0" x2="909.9" y2="519.0" stroke="#999"/>
<text x="909.9" y="531.0" text-anchor="end" fill="#e8731a" transform="rotate(-50 909.9 531.0)">07-18</text>
<line x1="959.4" y1="516.0" x2="959.4" y2="519.0" stroke="#999"/>
<text x="959.4" y="531.0" text-anchor="end" fill="#e8731a" transform="rotate(-50 959.4 531.0)">07-19</text>
<line x1="1009.0" y1="516.0" x2="1009.0" y2="519.0" stroke="#999"/>
<text x="1009.0" y="531.0" text-anchor="end" fill="#e8731a" transform="rotate(-50 1009.0 531.0)">07-20</text>
<line x1="1058.5" y1="516.0" x2="1058.5" y2="519.0" stroke="#999"/>
<text x="1058.5" y="531.0" text-anchor="end" fill="#e8731a" transform="rotate(-50 1058.5 531.0)">07-21</text>
<line x1="1108.0" y1="516.0" x2="1108.0" y2="519.0" stroke="#999"/>
<text x="1108.0" y="531.0" text-anchor="end" fill="#e8731a" transform="rotate(-50 1108.0 531.0)">07-22</text>
<polygon points="68.0,460.9 117.5,461.2 167.0,460.1 216.6,462.3 266.1,461.4 315.6,462.2 365.1,460.4 414.7,461.5 464.2,462.0 513.7,460.4 563.2,461.1 612.8,462.4 662.3,462.6 711.8,463.0 761.3,464.3 810.9,464.3 860.4,461.6 909.9,470.0 959.4,468.7 1009.0,469.1 1058.5,469.5 1108.0,468.4 1108.0,516.0 1058.5,516.0 1009.0,516.0 959.4,516.0 909.9,516.0 860.4,516.0 810.9,516.0 761.3,516.0 711.8,516.0 662.3,516.0 612.8,516.0 563.2,516.0 513.7,516.0 464.2,516.0 414.7,516.0 365.1,516.0 315.6,516.0 266.1,516.0 216.6,516.0 167.0,516.0 117.5,516.0 68.0,516.0" fill="#c7e9c0" fill-opacity="0.9" stroke="#fff" stroke-width="0.4"><title>rt_renderer — apiCreateGlobalSession</title></polygon>
<polygon points="68.0,460.9 117.5,461.2 167.0,460.1 216.6,462.3 266.1,461.4 315.6,462.1 365.1,460.4 414.7,461.5 464.2,461.9 513.7,460.4 563.2,461.1 612.8,462.4 662.3,462.5 711.8,463.0 761.3,464.3 810.9,464.3 860.4,461.5 909.9,469.9 959.4,468.7 1009.0,469.1 1058.5,469.4 1108.0,468.4 1108.0,468.4 1058.5,469.5 1009.0,469.1 959.4,468.7 909.9,470.0 860.4,461.6 810.9,464.3 761.3,464.3 711.8,463.0 662.3,462.6 612.8,462.4 563.2,461.1 513.7,460.4 464.2,462.0 414.7,461.5 365.1,460.4 315.6,462.2 266.1,461.4 216.6,462.3 167.0,460.1 117.5,461.2 68.0,460.9" fill="#41ab5d" fill-opacity="0.9" stroke="#fff" stroke-width="0.4"><title>rt_renderer — apiCreateSession</title></polygon>
<polygon points="68.0,194.1 117.5,193.3 167.0,193.6 216.6,195.3 266.1,187.8 315.6,187.9 365.1,186.3 414.7,187.2 464.2,189.4 513.7,185.1 563.2,182.6 612.8,180.9 662.3,184.0 711.8,198.8 761.3,200.2 810.9,154.9 860.4,152.4 909.9,200.4 959.4,202.2 1009.0,200.9 1058.5,197.5 1108.0,200.8 1108.0,468.4 1058.5,469.4 1009.0,469.1 959.4,468.7 909.9,469.9 860.4,461.5 810.9,464.3 761.3,464.3 711.8,463.0 662.3,462.5 612.8,462.4 563.2,461.1 513.7,460.4 464.2,461.9 414.7,461.5 365.1,460.4 315.6,462.1 266.1,461.4 216.6,462.3 167.0,460.1 117.5,461.2 68.0,460.9" fill="#2171b5" fill-opacity="0.9" stroke="#fff" stroke-width="0.4"><title>rt_renderer — apiLoadModule</title></polygon>
<polygon points="68.0,194.1 117.5,193.3 167.0,193.6 216.6,195.3 266.1,187.8 315.6,187.9 365.1,186.3 414.7,187.2 464.2,189.4 513.7,185.1 563.2,182.6 612.8,180.9 662.3,184.0 711.8,198.8 761.3,200.2 810.9,154.9 860.4,152.4 909.9,200.4 959.4,202.2 1009.0,200.9 1058.5,197.5 1108.0,200.8 1108.0,200.8 1058.5,197.5 1009.0,200.9 959.4,202.2 909.9,200.4 860.4,152.4 810.9,154.9 761.3,200.2 711.8,198.8 662.3,184.0 612.8,180.9 563.2,182.6 513.7,185.1 464.2,189.4 414.7,187.2 365.1,186.3 315.6,187.9 266.1,187.8 216.6,195.3 167.0,193.6 117.5,193.3 68.0,194.1" fill="#6baed6" fill-opacity="0.9" stroke="#fff" stroke-width="0.4"><title>rt_renderer — apiFindEntryPoint</title></polygon>
<polygon points="68.0,194.0 117.5,193.3 167.0,193.6 216.6,195.3 266.1,187.8 315.6,187.8 365.1,186.3 414.7,187.1 464.2,189.3 513.7,185.1 563.2,182.6 612.8,180.9 662.3,184.0 711.8,198.7 761.3,200.2 810.9,154.9 860.4,152.4 909.9,200.4 959.4,202.1 1009.0,200.9 1058.5,197.5 1108.0,200.8 1108.0,200.8 1058.5,197.5 1009.0,200.9 959.4,202.2 909.9,200.4 860.4,152.4 810.9,154.9 761.3,200.2 711.8,198.8 662.3,184.0 612.8,180.9 563.2,182.6 513.7,185.1 464.2,189.4 414.7,187.2 365.1,186.3 315.6,187.9 266.1,187.8 216.6,195.3 167.0,193.6 117.5,193.3 68.0,194.1" fill="#9e9ac8" fill-opacity="0.9" stroke="#fff" stroke-width="0.4"><title>rt_renderer — apiComposite</title></polygon>
<polygon points="68.0,193.9 117.5,193.2 167.0,193.5 216.6,195.2 266.1,187.7 315.6,187.7 365.1,186.2 414.7,187.0 464.2,189.2 513.7,185.0 563.2,182.5 612.8,180.8 662.3,183.9 711.8,198.6 761.3,200.1 810.9,154.8 860.4,152.3 909.9,200.3 959.4,202.0 1009.0,200.8 1058.5,197.4 1108.0,200.6 1108.0,200.8 1058.5,197.5 1009.0,200.9 959.4,202.1 909.9,200.4 860.4,152.4 810.9,154.9 761.3,200.2 711.8,198.7 662.3,184.0 612.8,180.9 563.2,182.6 513.7,185.1 464.2,189.3 414.7,187.1 365.1,186.3 315.6,187.8 266.1,187.8 216.6,195.3 167.0,193.6 117.5,193.3 68.0,194.0" fill="#6a51a3" fill-opacity="0.9" stroke="#fff" stroke-width="0.4"><title>rt_renderer — apiLink</title></polygon>
<polygon points="68.0,133.0 117.5,132.3 167.0,133.1 216.6,134.1 266.1,127.7 315.6,128.8 365.1,127.1 414.7,133.8 464.2,136.0 513.7,132.1 563.2,135.2 612.8,134.4 662.3,137.4 711.8,156.0 761.3,157.5 810.9,112.7 860.4,109.9 909.9,162.2 959.4,164.0 1009.0,162.3 1058.5,159.0 1108.0,161.8 1108.0,200.6 1058.5,197.4 1009.0,200.8 959.4,202.0 909.9,200.3 860.4,152.3 810.9,154.8 761.3,200.1 711.8,198.6 662.3,183.9 612.8,180.8 563.2,182.5 513.7,185.0 464.2,189.2 414.7,187.0 365.1,186.2 315.6,187.7 266.1,187.7 216.6,195.2 167.0,193.5 117.5,193.2 68.0,193.9" fill="#fd8d3c" fill-opacity="0.9" stroke="#fff" stroke-width="0.4"><title>rt_renderer — apiGetCode</title></polygon>
<polygon points="68.0,133.0 117.5,131.7 167.0,133.1 216.6,134.1 266.1,127.7 315.6,128.8 365.1,126.5 414.7,133.1 464.2,136.0 513.7,132.1 563.2,135.0 612.8,134.4 662.3,137.4 711.8,156.0 761.3,156.3 810.9,111.1 860.4,108.6 909.9,161.2 959.4,164.0 1009.0,162.3 1058.5,159.0 1108.0,157.3 1108.0,161.8 1058.5,159.0 1009.0,162.3 959.4,164.0 909.9,162.2 860.4,109.9 810.9,112.7 761.3,157.5 711.8,156.0 662.3,137.4 612.8,134.4 563.2,135.2 513.7,132.1 464.2,136.0 414.7,133.8 365.1,127.1 315.6,128.8 266.1,127.7 216.6,134.1 167.0,133.1 117.5,132.3 68.0,133.0" fill="#969696" fill-opacity="0.9" stroke="#fff" stroke-width="0.4"><title>rt_renderer — apiTotal (self)</title></polygon>
<text x="12" y="578" fill="#666" font-weight="600">phase buckets</text>
<rect x="12" y="586" width="12" height="12" fill="#c7e9c0"/>
<text x="28" y="596" fill="#222">apiCreateGlobalSession</text>
<rect x="289" y="586" width="12" height="12" fill="#41ab5d"/>
<text x="305" y="596" fill="#222">apiCreateSession</text>
<rect x="566" y="586" width="12" height="12" fill="#2171b5"/>
<text x="582" y="596" fill="#222">apiLoadModule</text>
<rect x="843" y="586" width="12" height="12" fill="#6baed6"/>
<text x="859" y="596" fill="#222">apiFindEntryPoint</text>
<rect x="12" y="604" width="12" height="12" fill="#9e9ac8"/>
<text x="28" y="614" fill="#222">apiComposite</text>
<rect x="289" y="604" width="12" height="12" fill="#807dba"/>
<text x="305" y="614" fill="#222">apiSpecialize</text>
<rect x="566" y="604" width="12" height="12" fill="#6a51a3"/>
<text x="582" y="614" fill="#222">apiLink</text>
<rect x="843" y="604" width="12" height="12" fill="#fd8d3c"/>
<text x="859" y="614" fill="#222">apiGetCode</text>
<rect x="12" y="622" width="12" height="12" fill="#b5bdc4"/>
<text x="28" y="632" fill="#222">apiReflection</text>
<rect x="289" y="622" width="12" height="12" fill="#969696"/>
<text x="305" y="632" fill="#222">apiTotal (self)</text>
</svg>