<svg xmlns="http://www.w3.org/2000/svg" xmlns:xlink="http://www.w3.org/1999/xlink" width="1132" height="662" viewBox="0 0 1132 662" preserveAspectRatio="xMidYMid meet" font-family="sans-serif" font-size="13">
<rect width="1132" height="662" fill="white"/>
<text x="12" y="30" font-size="20" font-weight="bold">rt_renderer_specialize — Daily tip-of-tree (last 30 days) (median ms)</text>
<text x="68" y="60" font-size="15" font-weight="600" fill="#1a1a1a">rt_renderer_specialize<tspan fill="#888" font-weight="400" text-decoration="none">  0.81×</tspan></text>
<line x1="68.0" y1="516.0" x2="1108.0" y2="516.0" stroke="#eee"/>
<text x="64.0" y="519.0" text-anchor="end" fill="#999">0.0</text>
<line x1="68.0" y1="296.0" x2="1108.0" y2="296.0" stroke="#eee"/>
<text x="64.0" y="299.0" text-anchor="end" fill="#999">900</text>
<line x1="68.0" y1="76.0" x2="1108.0" y2="76.0" stroke="#eee"/>
<text x="64.0" y="79.0" text-anchor="end" fill="#999">1799</text>
<line x1="68.0" y1="76.0" x2="68.0" y2="516.0" stroke="#333"/>
<line x1="68.0" y1="516.0" x2="1108.0" y2="516.0" stroke="#333"/>
<line x1="68.0" y1="516.0" x2="68.0" y2="519.0" stroke="#999"/>
<text x="68.0" y="531.0" text-anchor="end" fill="#e8731a" transform="rotate(-50 68.0 531.0)">06-25</text>
<line x1="122.7" y1="516.0" x2="122.7" y2="519.0" stroke="#999"/>
<text x="122.7" y="531.0" text-anchor="end" fill="#e8731a" transform="rotate(-50 122.7 531.0)">06-26</text>
<line x1="177.5" y1="516.0" x2="177.5" y2="519.0" stroke="#999"/>
<text x="177.5" y="531.0" text-anchor="end" fill="#e8731a" transform="rotate(-50 177.5 531.0)">06-28</text>
<line x1="232.2" y1="516.0" x2="232.2" y2="519.0" stroke="#999"/>
<text x="232.2" y="531.0" text-anchor="end" fill="#e8731a" transform="rotate(-50 232.2 531.0)">07-01</text>
<line x1="286.9" y1="516.0" x2="286.9" y2="519.0" stroke="#999"/>
<text x="286.9" y="531.0" text-anchor="end" fill="#e8731a" transform="rotate(-50 286.9 531.0)">07-02</text>
<line x1="341.7" y1="516.0" x2="341.7" y2="519.0" stroke="#999"/>
<text x="341.7" y="531.0" text-anchor="end" fill="#e8731a" transform="rotate(-50 341.7 531.0)">07-03</text>
<line x1="396.4" y1="516.0" x2="396.4" y2="519.0" stroke="#999"/>
<text x="396.4" y="531.0" text-anchor="end" fill="#e8731a" transform="rotate(-50 396.4 531.0)">07-06</text>
<line x1="451.2" y1="516.0" x2="451.2" y2="519.0" stroke="#999"/>
<text x="451.2" y="531.0" text-anchor="end" fill="#e8731a" transform="rotate(-50 451.2 531.0)">07-07</text>
<line x1="505.9" y1="516.0" x2="505.9" y2="519.0" stroke="#999"/>
<text x="505.9" y="531.0" text-anchor="end" fill="#e8731a" transform="rotate(-50 505.9 531.0)">07-08</text>
<line x1="560.6" y1="516.0" x2="560.6" y2="519.0" stroke="#999"/>
<text x="560.6" y="531.0" text-anchor="end" fill="#e8731a" transform="rotate(-50 560.6 531.0)">07-09</text>
<line x1="615.4" y1="516.0" x2="615.4" y2="519.0" stroke="#999"/>
<text x="615.4" y="531.0" text-anchor="end" fill="#e8731a" transform="rotate(-50 615.4 531.0)">07-10</text>
<line x1="670.1" y1="516.0" x2="670.1" y2="519.0" stroke="#999"/>
<text x="670.1" y="531.0" text-anchor="end" fill="#e8731a" transform="rotate(-50 670.1 531.0)">07-11</text>
<line x1="724.8" y1="516.0" x2="724.8" y2="519.0" stroke="#999"/>
<text x="724.8" y="531.0" text-anchor="end" fill="#e8731a" transform="rotate(-50 724.8 531.0)">07-14</text>
<line x1="779.6" y1="516.0" x2="779.6" y2="519.0" stroke="#999"/>
<text x="779.6" y="531.0" text-anchor="end" fill="#e8731a" transform="rotate(-50 779.6 531.0)">07-15</text>
<line x1="834.3" y1="516.0" x2="834.3" y2="519.0" stroke="#999"/>
<text x="834.3" y="531.0" text-anchor="end" fill="#e8731a" transform="rotate(-50 834.3 531.0)">07-15</text>
<line x1="889.1" y1="516.0" x2="889.1" y2="519.0" stroke="#999"/>
<text x="889.1" y="531.0" text-anchor="end" fill="#e8731a" transform="rotate(-50 889.1 531.0)">07-16</text>
<line x1="943.8" y1="516.0" x2="943.8" y2="519.0" stroke="#999"/>
<text x="943.8" y="531.0" text-anchor="end" fill="#e8731a" transform="rotate(-50 943.8 531.0)">07-17</text>
<line x1="998.5" y1="516.0" x2="998.5" y2="519.0" stroke="#999"/>
<text x="998.5" y="531.0" text-anchor="end" fill="#e8731a" transform="rotate(-50 998.5 531.0)">07-18</text>
<line x1="1053.3" y1="516.0" x2="1053.3" y2="519.0" stroke="#999"/>
<text x="1053.3" y="531.0" text-anchor="end" fill="#e8731a" transform="rotate(-50 1053.3 531.0)">07-19</text>
<line x1="1108.0" y1="516.0" x2="1108.0" y2="519.0" stroke="#999"/>
<text x="1108.0" y="531.0" text-anchor="end" fill="#e8731a" transform="rotate(-50 1108.0 531.0)">07-20</text>
<polygon points="68.0,488.5 122.7,488.4 177.5,487.2 232.2,488.8 286.9,488.3 341.7,488.6 396.4,487.8 451.2,488.4 505.9,488.5 560.6,487.7 615.4,488.6 670.1,488.7 724.8,488.9 779.6,489.1 834.3,489.3 889.1,488.9 943.8,489.1 998.5,492.4 1053.3,492.0 1108.0,492.3 1108.0,516.0 1053.3,516.0 998.5,516.0 943.8,516.0 889.1,516.0 834.3,516.0 779.6,516.0 724.8,516.0 670.1,516.0 615.4,516.0 560.6,516.0 505.9,516.0 451.2,516.0 396.4,516.0 341.7,516.0 286.9,516.0 232.2,516.0 177.5,516.0 122.7,516.0 68.0,516.0" fill="#c7e9c0" fill-opacity="0.9" stroke="#fff" stroke-width="0.4"><title>rt_renderer_specialize — apiCreateGlobalSession</title></polygon>
<polygon points="68.0,488.5 122.7,488.4 177.5,487.2 232.2,488.8 286.9,488.3 341.7,488.6 396.4,487.8 451.2,488.4 505.9,488.4 560.6,487.7 615.4,488.5 670.1,488.7 724.8,488.9 779.6,489.1 834.3,489.3 889.1,488.9 943.8,489.1 998.5,492.4 1053.3,492.0 1108.0,492.3 1108.0,492.3 1053.3,492.0 998.5,492.4 943.8,489.1 889.1,488.9 834.3,489.3 779.6,489.1 724.8,488.9 670.1,488.7 615.4,488.6 560.6,487.7 505.9,488.5 451.2,488.4 396.4,487.8 341.7,488.6 286.9,488.3 232.2,488.8 177.5,487.2 122.7,488.4 68.0,488.5" fill="#41ab5d" fill-opacity="0.9" stroke="#fff" stroke-width="0.4"><title>rt_renderer_specialize — apiCreateSession</title></polygon>
<polygon points="68.0,352.8 122.7,352.6 177.5,351.0 232.2,352.6 286.9,348.9 341.7,348.6 396.4,347.5 451.2,348.5 505.9,350.7 560.6,348.4 615.4,347.9 670.1,346.1 724.8,348.8 779.6,355.4 834.3,355.0 889.1,332.0 943.8,333.1 998.5,357.3 1053.3,356.0 1108.0,356.5 1108.0,492.3 1053.3,492.0 998.5,492.4 943.8,489.1 889.1,488.9 834.3,489.3 779.6,489.1 724.8,488.9 670.1,488.7 615.4,488.5 560.6,487.7 505.9,488.4 451.2,488.4 396.4,487.8 341.7,488.6 286.9,488.3 232.2,488.8 177.5,487.2 122.7,488.4 68.0,488.5" fill="#2171b5" fill-opacity="0.9" stroke="#fff" stroke-width="0.4"><title>rt_renderer_specialize — apiLoadModule</title></polygon>
<polygon points="68.0,352.6 122.7,352.3 177.5,350.8 232.2,352.4 286.9,348.7 341.7,348.3 396.4,347.3 451.2,348.3 505.9,350.5 560.6,348.1 615.4,347.7 670.1,345.9 724.8,348.6 779.6,355.1 834.3,354.7 889.1,331.8 943.8,332.9 998.5,357.0 1053.3,355.7 1108.0,356.2 1108.0,356.5 1053.3,356.0 998.5,357.3 943.8,333.1 889.1,332.0 834.3,355.0 779.6,355.4 724.8,348.8 670.1,346.1 615.4,347.9 560.6,348.4 505.9,350.7 451.2,348.5 396.4,347.5 341.7,348.6 286.9,348.9 232.2,352.6 177.5,351.0 122.7,352.6 68.0,352.8" fill="#9e9ac8" fill-opacity="0.9" stroke="#fff" stroke-width="0.4"><title>rt_renderer_specialize — apiComposite</title></polygon>
<polygon points="68.0,347.8 122.7,347.5 177.5,345.9 232.2,347.7 286.9,343.8 341.7,343.3 396.4,342.3 451.2,343.1 505.9,345.5 560.6,343.1 615.4,342.8 670.1,340.8 724.8,343.7 779.6,350.5 834.3,350.1 889.1,327.0 943.8,328.1 998.5,353.5 1053.3,352.2 1108.0,352.7 1108.0,356.2 1053.3,355.7 998.5,357.0 943.8,332.9 889.1,331.8 834.3,354.7 779.6,355.1 724.8,348.6 670.1,345.9 615.4,347.7 560.6,348.1 505.9,350.5 451.2,348.3 396.4,347.3 341.7,348.3 286.9,348.7 232.2,352.4 177.5,350.8 122.7,352.3 68.0,352.6" fill="#807dba" fill-opacity="0.9" stroke="#fff" stroke-width="0.4"><title>rt_renderer_specialize — apiSpecialize</title></polygon>
<polygon points="68.0,346.8 122.7,346.5 177.5,344.9 232.2,346.6 286.9,342.8 341.7,342.1 396.4,341.3 451.2,342.0 505.9,344.6 560.6,342.1 615.4,341.8 670.1,339.8 724.8,342.7 779.6,349.4 834.3,348.9 889.1,325.8 943.8,326.9 998.5,352.3 1053.3,351.1 1108.0,351.5 1108.0,352.7 1053.3,352.2 998.5,353.5 943.8,328.1 889.1,327.0 834.3,350.1 779.6,350.5 724.8,343.7 670.1,340.8 615.4,342.8 560.6,343.1 505.9,345.5 451.2,343.1 396.4,342.3 341.7,343.3 286.9,343.8 232.2,347.7 177.5,345.9 122.7,347.5 68.0,347.8" fill="#6a51a3" fill-opacity="0.9" stroke="#fff" stroke-width="0.4"><title>rt_renderer_specialize — apiLink</title></polygon>
<polygon points="68.0,117.5 122.7,116.4 177.5,115.3 232.2,114.2 286.9,110.0 341.7,111.4 396.4,108.6 451.2,121.5 505.9,125.0 560.6,122.0 615.4,127.4 670.1,131.9 724.8,133.2 779.6,164.0 834.3,162.6 889.1,140.7 943.8,140.9 998.5,192.7 1053.3,192.8 1108.0,191.9 1108.0,351.5 1053.3,351.1 998.5,352.3 943.8,326.9 889.1,325.8 834.3,348.9 779.6,349.4 724.8,342.7 670.1,339.8 615.4,341.8 560.6,342.1 505.9,344.6 451.2,342.0 396.4,341.3 341.7,342.1 286.9,342.8 232.2,346.6 177.5,344.9 122.7,346.5 68.0,346.8" fill="#fd8d3c" fill-opacity="0.9" stroke="#fff" stroke-width="0.4"><title>rt_renderer_specialize — apiGetCode</title></polygon>
<polygon points="68.0,117.0 122.7,114.1 177.5,114.3 232.2,113.1 286.9,109.1 341.7,110.0 396.4,108.6 451.2,120.3 505.9,124.5 560.6,121.8 615.4,126.7 670.1,130.7 724.8,132.8 779.6,163.7 834.3,162.2 889.1,140.4 943.8,140.6 998.5,191.7 1053.3,192.5 1108.0,191.2 1108.0,191.9 1053.3,192.8 998.5,192.7 943.8,140.9 889.1,140.7 834.3,162.6 779.6,164.0 724.8,133.2 670.1,131.9 615.4,127.4 560.6,122.0 505.9,125.0 451.2,121.5 396.4,108.6 341.7,111.4 286.9,110.0 232.2,114.2 177.5,115.3 122.7,116.4 68.0,117.5" fill="#969696" fill-opacity="0.9" stroke="#fff" stroke-width="0.4"><title>rt_renderer_specialize — apiTotal (self)</title></polygon>
<text x="12" y="578" fill="#666" font-weight="600">phase buckets</text>
<rect x="12" y="586" width="12" height="12" fill="#c7e9c0"/>
<text x="28" y="596" fill="#222">apiCreateGlobalSession</text>
<rect x="289" y="586" width="12" height="12" fill="#41ab5d"/>
<text x="305" y="596" fill="#222">apiCreateSession</text>
<rect x="566" y="586" width="12" height="12" fill="#2171b5"/>
<text x="582" y="596" fill="#222">apiLoadModule</text>
<rect x="843" y="586" width="12" height="12" fill="#6baed6"/>
<text x="859" y="596" fill="#222">apiFindEntryPoint</text>
<rect x="12" y="604" width="12" height="12" fill="#9e9ac8"/>
<text x="28" y="614" fill="#222">apiComposite</text>
<rect x="289" y="604" width="12" height="12" fill="#807dba"/>
<text x="305" y="614" fill="#222">apiSpecialize</text>
<rect x="566" y="604" width="12" height="12" fill="#6a51a3"/>
<text x="582" y="614" fill="#222">apiLink</text>
<rect x="843" y="604" width="12" height="12" fill="#fd8d3c"/>
<text x="859" y="614" fill="#222">apiGetCode</text>
<rect x="12" y="622" width="12" height="12" fill="#b5bdc4"/>
<text x="28" y="632" fill="#222">apiReflection</text>
<rect x="289" y="622" width="12" height="12" fill="#969696"/>
<text x="305" y="632" fill="#222">apiTotal (self)</text>
</svg>