<svg xmlns="http://www.w3.org/2000/svg" xmlns:xlink="http://www.w3.org/1999/xlink" width="1132" height="662" viewBox="0 0 1132 662" preserveAspectRatio="xMidYMid meet" font-family="sans-serif" font-size="13">
<rect width="1132" height="662" fill="white"/>
<text x="12" y="30" font-size="20" font-weight="bold">rt_renderer_specialize — Across releases (median ms)</text>
<text x="68" y="60" font-size="15" font-weight="600" fill="#1a1a1a">rt_renderer_specialize<tspan fill="#888" font-weight="400" text-decoration="none">  1.60×</tspan></text>
<line x1="68.0" y1="516.0" x2="1108.0" y2="516.0" stroke="#eee"/>
<text x="64.0" y="519.0" text-anchor="end" fill="#999">0.0</text>
<line x1="68.0" y1="296.0" x2="1108.0" y2="296.0" stroke="#eee"/>
<text x="64.0" y="299.0" text-anchor="end" fill="#999">1929</text>
<line x1="68.0" y1="76.0" x2="1108.0" y2="76.0" stroke="#eee"/>
<text x="64.0" y="79.0" text-anchor="end" fill="#999">3859</text>
<line x1="68.0" y1="76.0" x2="68.0" y2="516.0" stroke="#333"/>
<line x1="68.0" y1="516.0" x2="1108.0" y2="516.0" stroke="#333"/>
<line x1="68.0" y1="516.0" x2="68.0" y2="519.0" stroke="#999"/>
<text x="68.0" y="531.0" text-anchor="end" fill="#666" transform="rotate(-50 68.0 531.0)">25.12</text>
<line x1="111.3" y1="516.0" x2="111.3" y2="519.0" stroke="#999"/>
<text x="111.3" y="531.0" text-anchor="end" fill="#666" transform="rotate(-50 111.3 531.0)">25.13</text>
<line x1="154.7" y1="516.0" x2="154.7" y2="519.0" stroke="#999"/>
<text x="154.7" y="531.0" text-anchor="end" fill="#666" transform="rotate(-50 154.7 531.0)">25.14</text>
<line x1="198.0" y1="516.0" x2="198.0" y2="519.0" stroke="#999"/>
<text x="198.0" y="531.0" text-anchor="end" fill="#666" transform="rotate(-50 198.0 531.0)">25.15</text>
<line x1="241.3" y1="516.0" x2="241.3" y2="519.0" stroke="#999"/>
<text x="241.3" y="531.0" text-anchor="end" fill="#666" transform="rotate(-50 241.3 531.0)">25.16</text>
<line x1="284.7" y1="516.0" x2="284.7" y2="519.0" stroke="#999"/>
<text x="284.7" y="531.0" text-anchor="end" fill="#666" transform="rotate(-50 284.7 531.0)">25.17</text>
<line x1="328.0" y1="516.0" x2="328.0" y2="519.0" stroke="#999"/>
<text x="328.0" y="531.0" text-anchor="end" fill="#666" transform="rotate(-50 328.0 531.0)">25.18</text>
<line x1="371.3" y1="516.0" x2="371.3" y2="519.0" stroke="#999"/>
<text x="371.3" y="531.0" text-anchor="end" fill="#666" transform="rotate(-50 371.3 531.0)">25.19</text>
<line x1="414.7" y1="516.0" x2="414.7" y2="519.0" stroke="#999"/>
<text x="414.7" y="531.0" text-anchor="end" fill="#666" transform="rotate(-50 414.7 531.0)">25.20</text>
<line x1="458.0" y1="516.0" x2="458.0" y2="519.0" stroke="#999"/>
<text x="458.0" y="531.0" text-anchor="end" fill="#666" transform="rotate(-50 458.0 531.0)">25.21</text>
<line x1="501.3" y1="516.0" x2="501.3" y2="519.0" stroke="#999"/>
<text x="501.3" y="531.0" text-anchor="end" fill="#666" transform="rotate(-50 501.3 531.0)">25.22</text>
<line x1="544.7" y1="516.0" x2="544.7" y2="519.0" stroke="#999"/>
<text x="544.7" y="531.0" text-anchor="end" fill="#666" transform="rotate(-50 544.7 531.0)">25.23</text>
<line x1="588.0" y1="516.0" x2="588.0" y2="519.0" stroke="#999"/>
<text x="588.0" y="531.0" text-anchor="end" fill="#666" transform="rotate(-50 588.0 531.0)">25.24</text>
<line x1="631.3" y1="516.0" x2="631.3" y2="519.0" stroke="#999"/>
<text x="631.3" y="531.0" text-anchor="end" fill="#666" transform="rotate(-50 631.3 531.0)">26.1</text>
<line x1="674.7" y1="516.0" x2="674.7" y2="519.0" stroke="#999"/>
<text x="674.7" y="531.0" text-anchor="end" fill="#666" transform="rotate(-50 674.7 531.0)">26.2</text>
<line x1="718.0" y1="516.0" x2="718.0" y2="519.0" stroke="#999"/>
<text x="718.0" y="531.0" text-anchor="end" fill="#666" transform="rotate(-50 718.0 531.0)">26.3</text>
<line x1="761.3" y1="516.0" x2="761.3" y2="519.0" stroke="#999"/>
<text x="761.3" y="531.0" text-anchor="end" fill="#666" transform="rotate(-50 761.3 531.0)">26.4</text>
<line x1="804.7" y1="516.0" x2="804.7" y2="519.0" stroke="#999"/>
<text x="804.7" y="531.0" text-anchor="end" fill="#666" transform="rotate(-50 804.7 531.0)">26.5</text>
<line x1="848.0" y1="516.0" x2="848.0" y2="519.0" stroke="#999"/>
<text x="848.0" y="531.0" text-anchor="end" fill="#666" transform="rotate(-50 848.0 531.0)">26.7</text>
<line x1="891.3" y1="516.0" x2="891.3" y2="519.0" stroke="#999"/>
<text x="891.3" y="531.0" text-anchor="end" fill="#666" transform="rotate(-50 891.3 531.0)">26.8</text>
<line x1="934.7" y1="516.0" x2="934.7" y2="519.0" stroke="#999"/>
<text x="934.7" y="531.0" text-anchor="end" fill="#666" transform="rotate(-50 934.7 531.0)">26.9</text>
<line x1="978.0" y1="516.0" x2="978.0" y2="519.0" stroke="#999"/>
<text x="978.0" y="531.0" text-anchor="end" fill="#666" transform="rotate(-50 978.0 531.0)">26.10</text>
<line x1="1021.3" y1="516.0" x2="1021.3" y2="519.0" stroke="#999"/>
<text x="1021.3" y="531.0" text-anchor="end" fill="#666" transform="rotate(-50 1021.3 531.0)">26.11</text>
<line x1="1064.7" y1="516.0" x2="1064.7" y2="519.0" stroke="#999"/>
<text x="1064.7" y="531.0" text-anchor="end" fill="#666" transform="rotate(-50 1064.7 531.0)">26.12</text>
<line x1="1108.0" y1="516.0" x2="1108.0" y2="519.0" stroke="#999"/>
<text x="1108.0" y="531.0" text-anchor="end" fill="#666" transform="rotate(-50 1108.0 531.0)">26.13</text>
<polygon points="68.0,486.0 111.3,488.6 154.7,484.4 198.0,507.8 241.3,508.2 284.7,508.3 328.0,508.4 371.3,508.3 414.7,508.2 458.0,508.1 501.3,511.2 544.7,511.2 588.0,511.2 631.3,511.0 674.7,511.2 718.0,511.0 761.3,511.0 804.7,511.0 848.0,501.9 891.3,503.2 934.7,504.0 978.0,502.2 1021.3,501.7 1064.7,501.2 1108.0,502.1 1108.0,516.0 1064.7,516.0 1021.3,516.0 978.0,516.0 934.7,516.0 891.3,516.0 848.0,516.0 804.7,516.0 761.3,516.0 718.0,516.0 674.7,516.0 631.3,516.0 588.0,516.0 544.7,516.0 501.3,516.0 458.0,516.0 414.7,516.0 371.3,516.0 328.0,516.0 284.7,516.0 241.3,516.0 198.0,516.0 154.7,516.0 111.3,516.0 68.0,516.0" fill="#c7e9c0" fill-opacity="0.9" stroke="#fff" stroke-width="0.4"><title>rt_renderer_specialize — apiCreateGlobalSession</title></polygon>
<polygon points="68.0,486.0 111.3,488.5 154.7,484.4 198.0,507.8 241.3,508.2 284.7,508.3 328.0,508.4 371.3,508.3 414.7,508.2 458.0,508.1 501.3,511.2 544.7,511.2 588.0,511.2 631.3,511.0 674.7,511.2 718.0,511.0 761.3,511.0 804.7,511.0 848.0,501.9 891.3,503.2 934.7,504.0 978.0,502.2 1021.3,501.7 1064.7,501.2 1108.0,502.1 1108.0,502.1 1064.7,501.2 1021.3,501.7 978.0,502.2 934.7,504.0 891.3,503.2 848.0,501.9 804.7,511.0 761.3,511.0 718.0,511.0 674.7,511.2 631.3,511.0 588.0,511.2 544.7,511.2 501.3,511.2 458.0,508.1 414.7,508.2 371.3,508.3 328.0,508.4 284.7,508.3 241.3,508.2 198.0,507.8 154.7,484.4 111.3,488.6 68.0,486.0" fill="#41ab5d" fill-opacity="0.9" stroke="#fff" stroke-width="0.4"><title>rt_renderer_specialize — apiCreateSession</title></polygon>
<polygon points="68.0,449.2 111.3,448.2 154.7,440.4 198.0,460.8 241.3,460.5 284.7,463.2 328.0,463.3 371.3,463.4 414.7,462.9 458.0,463.0 501.3,466.0 544.7,465.8 588.0,465.9 631.3,464.1 674.7,462.7 718.0,462.3 761.3,461.7 804.7,461.7 848.0,395.3 891.3,415.0 934.7,416.5 978.0,412.1 1021.3,436.5 1064.7,430.0 1108.0,435.1 1108.0,502.1 1064.7,501.2 1021.3,501.7 978.0,502.2 934.7,504.0 891.3,503.2 848.0,501.9 804.7,511.0 761.3,511.0 718.0,511.0 674.7,511.2 631.3,511.0 588.0,511.2 544.7,511.2 501.3,511.2 458.0,508.1 414.7,508.2 371.3,508.3 328.0,508.4 284.7,508.3 241.3,508.2 198.0,507.8 154.7,484.4 111.3,488.5 68.0,486.0" fill="#2171b5" fill-opacity="0.9" stroke="#fff" stroke-width="0.4"><title>rt_renderer_specialize — apiLoadModule</title></polygon>
<polygon points="68.0,449.1 111.3,448.0 154.7,440.3 198.0,460.6 241.3,460.3 284.7,463.1 328.0,463.2 371.3,463.3 414.7,462.8 458.0,462.9 501.3,465.9 544.7,465.7 588.0,465.8 631.3,464.0 674.7,462.6 718.0,462.2 761.3,461.6 804.7,461.6 848.0,395.1 891.3,414.8 934.7,416.4 978.0,412.0 1021.3,436.4 1064.7,429.9 1108.0,435.0 1108.0,435.1 1064.7,430.0 1021.3,436.5 978.0,412.1 934.7,416.5 891.3,415.0 848.0,395.3 804.7,461.7 761.3,461.7 718.0,462.3 674.7,462.7 631.3,464.1 588.0,465.9 544.7,465.8 501.3,466.0 458.0,463.0 414.7,462.9 371.3,463.4 328.0,463.3 284.7,463.2 241.3,460.5 198.0,460.8 154.7,440.4 111.3,448.2 68.0,449.2" fill="#9e9ac8" fill-opacity="0.9" stroke="#fff" stroke-width="0.4"><title>rt_renderer_specialize — apiComposite</title></polygon>
<polygon points="68.0,447.6 111.3,446.5 154.7,438.6 198.0,458.9 241.3,458.7 284.7,461.4 328.0,461.5 371.3,461.6 414.7,461.1 458.0,461.2 501.3,464.1 544.7,464.0 588.0,464.1 631.3,462.1 674.7,460.6 718.0,460.2 761.3,459.6 804.7,459.6 848.0,392.1 891.3,412.5 934.7,414.1 978.0,409.6 1021.3,433.9 1064.7,427.1 1108.0,432.4 1108.0,435.0 1064.7,429.9 1021.3,436.4 978.0,412.0 934.7,416.4 891.3,414.8 848.0,395.1 804.7,461.6 761.3,461.6 718.0,462.2 674.7,462.6 631.3,464.0 588.0,465.8 544.7,465.7 501.3,465.9 458.0,462.9 414.7,462.8 371.3,463.3 328.0,463.2 284.7,463.1 241.3,460.3 198.0,460.6 154.7,440.3 111.3,448.0 68.0,449.1" fill="#807dba" fill-opacity="0.9" stroke="#fff" stroke-width="0.4"><title>rt_renderer_specialize — apiSpecialize</title></polygon>
<polygon points="68.0,447.0 111.3,445.6 154.7,438.1 198.0,458.4 241.3,458.1 284.7,461.0 328.0,461.0 371.3,461.2 414.7,460.6 458.0,460.8 501.3,463.7 544.7,463.5 588.0,463.7 631.3,461.6 674.7,460.2 718.0,459.7 761.3,459.2 804.7,459.2 848.0,391.5 891.3,411.9 934.7,413.6 978.0,409.1 1021.3,433.3 1064.7,426.6 1108.0,431.9 1108.0,432.4 1064.7,427.1 1021.3,433.9 978.0,409.6 934.7,414.1 891.3,412.5 848.0,392.1 804.7,459.6 761.3,459.6 718.0,460.2 674.7,460.6 631.3,462.1 588.0,464.1 544.7,464.0 501.3,464.1 458.0,461.2 414.7,461.1 371.3,461.6 328.0,461.5 284.7,461.4 241.3,458.7 198.0,458.9 154.7,438.6 111.3,446.5 68.0,447.6" fill="#6a51a3" fill-opacity="0.9" stroke="#fff" stroke-width="0.4"><title>rt_renderer_specialize — apiLink</title></polygon>
<polygon points="68.0,397.2 111.3,395.3 154.7,381.2 198.0,400.3 241.3,402.7 284.7,407.1 328.0,409.4 371.3,408.8 414.7,408.6 458.0,408.5 501.3,411.3 544.7,411.2 588.0,409.0 631.3,402.4 674.7,399.1 718.0,398.4 761.3,396.7 804.7,392.4 848.0,108.6 891.3,215.9 934.7,221.4 978.0,211.0 1021.3,314.7 1064.7,308.8 1108.0,325.5 1108.0,431.9 1064.7,426.6 1021.3,433.3 978.0,409.1 934.7,413.6 891.3,411.9 848.0,391.5 804.7,459.2 761.3,459.2 718.0,459.7 674.7,460.2 631.3,461.6 588.0,463.7 544.7,463.5 501.3,463.7 458.0,460.8 414.7,460.6 371.3,461.2 328.0,461.0 284.7,461.0 241.3,458.1 198.0,458.4 154.7,438.1 111.3,445.6 68.0,447.0" fill="#fd8d3c" fill-opacity="0.9" stroke="#fff" stroke-width="0.4"><title>rt_renderer_specialize — apiGetCode</title></polygon>
<polygon points="68.0,396.7 111.3,395.0 154.7,380.2 198.0,393.9 241.3,402.2 284.7,406.7 328.0,409.3 371.3,408.4 414.7,408.3 458.0,408.3 501.3,410.9 544.7,410.8 588.0,408.7 631.3,402.2 674.7,398.1 718.0,398.0 761.3,396.5 804.7,392.0 848.0,108.6 891.3,215.9 934.7,220.3 978.0,210.8 1021.3,312.4 1064.7,303.8 1108.0,324.8 1108.0,325.5 1064.7,308.8 1021.3,314.7 978.0,211.0 934.7,221.4 891.3,215.9 848.0,108.6 804.7,392.4 761.3,396.7 718.0,398.4 674.7,399.1 631.3,402.4 588.0,409.0 544.7,411.2 501.3,411.3 458.0,408.5 414.7,408.6 371.3,408.8 328.0,409.4 284.7,407.1 241.3,402.7 198.0,400.3 154.7,381.2 111.3,395.3 68.0,397.2" fill="#969696" fill-opacity="0.9" stroke="#fff" stroke-width="0.4"><title>rt_renderer_specialize — apiTotal (self)</title></polygon>
<text x="12" y="578" fill="#666" font-weight="600">phase buckets</text>
<rect x="12" y="586" width="12" height="12" fill="#c7e9c0"/>
<text x="28" y="596" fill="#222">apiCreateGlobalSession</text>
<rect x="289" y="586" width="12" height="12" fill="#41ab5d"/>
<text x="305" y="596" fill="#222">apiCreateSession</text>
<rect x="566" y="586" width="12" height="12" fill="#2171b5"/>
<text x="582" y="596" fill="#222">apiLoadModule</text>
<rect x="843" y="586" width="12" height="12" fill="#6baed6"/>
<text x="859" y="596" fill="#222">apiFindEntryPoint</text>
<rect x="12" y="604" width="12" height="12" fill="#9e9ac8"/>
<text x="28" y="614" fill="#222">apiComposite</text>
<rect x="289" y="604" width="12" height="12" fill="#807dba"/>
<text x="305" y="614" fill="#222">apiSpecialize</text>
<rect x="566" y="604" width="12" height="12" fill="#6a51a3"/>
<text x="582" y="614" fill="#222">apiLink</text>
<rect x="843" y="604" width="12" height="12" fill="#fd8d3c"/>
<text x="859" y="614" fill="#222">apiGetCode</text>
<rect x="12" y="622" width="12" height="12" fill="#b5bdc4"/>
<text x="28" y="632" fill="#222">apiReflection</text>
<rect x="289" y="622" width="12" height="12" fill="#969696"/>
<text x="305" y="632" fill="#222">apiTotal (self)</text>
</svg>