<svg xmlns="http://www.w3.org/2000/svg" xmlns:xlink="http://www.w3.org/1999/xlink" width="1132" height="680" viewBox="0 0 1132 680" preserveAspectRatio="xMidYMid meet" font-family="sans-serif" font-size="13">
<rect width="1132" height="680" fill="white"/>
<text x="12" y="30" font-size="20" font-weight="bold">sema_generics — Daily tip-of-tree (last 30 days) (median ms)</text>
<text x="68" y="60" font-size="15" font-weight="600" fill="#1a1a1a">sema_generics<tspan fill="#888" font-weight="400" text-decoration="none">  0.85×</tspan></text>
<line x1="68.0" y1="516.0" x2="1108.0" y2="516.0" stroke="#eee"/>
<text x="64.0" y="519.0" text-anchor="end" fill="#999">0.0</text>
<line x1="68.0" y1="296.0" x2="1108.0" y2="296.0" stroke="#eee"/>
<text x="64.0" y="299.0" text-anchor="end" fill="#999">571</text>
<line x1="68.0" y1="76.0" x2="1108.0" y2="76.0" stroke="#eee"/>
<text x="64.0" y="79.0" text-anchor="end" fill="#999">1142</text>
<line x1="68.0" y1="76.0" x2="68.0" y2="516.0" stroke="#333"/>
<line x1="68.0" y1="516.0" x2="1108.0" y2="516.0" stroke="#333"/>
<line x1="68.0" y1="516.0" x2="68.0" y2="519.0" stroke="#999"/>
<text x="68.0" y="531.0" text-anchor="end" fill="#e8731a" transform="rotate(-50 68.0 531.0)">06-25</text>
<line x1="120.0" y1="516.0" x2="120.0" y2="519.0" stroke="#999"/>
<text x="120.0" y="531.0" text-anchor="end" fill="#e8731a" transform="rotate(-50 120.0 531.0)">06-26</text>
<line x1="172.0" y1="516.0" x2="172.0" y2="519.0" stroke="#999"/>
<text x="172.0" y="531.0" text-anchor="end" fill="#e8731a" transform="rotate(-50 172.0 531.0)">06-28</text>
<line x1="224.0" y1="516.0" x2="224.0" y2="519.0" stroke="#999"/>
<text x="224.0" y="531.0" text-anchor="end" fill="#e8731a" transform="rotate(-50 224.0 531.0)">07-01</text>
<line x1="276.0" y1="516.0" x2="276.0" y2="519.0" stroke="#999"/>
<text x="276.0" y="531.0" text-anchor="end" fill="#e8731a" transform="rotate(-50 276.0 531.0)">07-02</text>
<line x1="328.0" y1="516.0" x2="328.0" y2="519.0" stroke="#999"/>
<text x="328.0" y="531.0" text-anchor="end" fill="#e8731a" transform="rotate(-50 328.0 531.0)">07-03</text>
<line x1="380.0" y1="516.0" x2="380.0" y2="519.0" stroke="#999"/>
<text x="380.0" y="531.0" text-anchor="end" fill="#e8731a" transform="rotate(-50 380.0 531.0)">07-06</text>
<line x1="432.0" y1="516.0" x2="432.0" y2="519.0" stroke="#999"/>
<text x="432.0" y="531.0" text-anchor="end" fill="#e8731a" transform="rotate(-50 432.0 531.0)">07-07</text>
<line x1="484.0" y1="516.0" x2="484.0" y2="519.0" stroke="#999"/>
<text x="484.0" y="531.0" text-anchor="end" fill="#e8731a" transform="rotate(-50 484.0 531.0)">07-08</text>
<line x1="536.0" y1="516.0" x2="536.0" y2="519.0" stroke="#999"/>
<text x="536.0" y="531.0" text-anchor="end" fill="#e8731a" transform="rotate(-50 536.0 531.0)">07-09</text>
<line x1="588.0" y1="516.0" x2="588.0" y2="519.0" stroke="#999"/>
<text x="588.0" y="531.0" text-anchor="end" fill="#e8731a" transform="rotate(-50 588.0 531.0)">07-10</text>
<line x1="640.0" y1="516.0" x2="640.0" y2="519.0" stroke="#999"/>
<text x="640.0" y="531.0" text-anchor="end" fill="#e8731a" transform="rotate(-50 640.0 531.0)">07-11</text>
<line x1="692.0" y1="516.0" x2="692.0" y2="519.0" stroke="#999"/>
<text x="692.0" y="531.0" text-anchor="end" fill="#e8731a" transform="rotate(-50 692.0 531.0)">07-14</text>
<line x1="744.0" y1="516.0" x2="744.0" y2="519.0" stroke="#999"/>
<text x="744.0" y="531.0" text-anchor="end" fill="#e8731a" transform="rotate(-50 744.0 531.0)">07-15</text>
<line x1="796.0" y1="516.0" x2="796.0" y2="519.0" stroke="#999"/>
<text x="796.0" y="531.0" text-anchor="end" fill="#e8731a" transform="rotate(-50 796.0 531.0)">07-15</text>
<line x1="848.0" y1="516.0" x2="848.0" y2="519.0" stroke="#999"/>
<text x="848.0" y="531.0" text-anchor="end" fill="#e8731a" transform="rotate(-50 848.0 531.0)">07-16</text>
<line x1="900.0" y1="516.0" x2="900.0" y2="519.0" stroke="#999"/>
<text x="900.0" y="531.0" text-anchor="end" fill="#e8731a" transform="rotate(-50 900.0 531.0)">07-17</text>
<line x1="952.0" y1="516.0" x2="952.0" y2="519.0" stroke="#999"/>
<text x="952.0" y="531.0" text-anchor="end" fill="#e8731a" transform="rotate(-50 952.0 531.0)">07-18</text>
<line x1="1004.0" y1="516.0" x2="1004.0" y2="519.0" stroke="#999"/>
<text x="1004.0" y="531.0" text-anchor="end" fill="#e8731a" transform="rotate(-50 1004.0 531.0)">07-19</text>
<line x1="1056.0" y1="516.0" x2="1056.0" y2="519.0" stroke="#999"/>
<text x="1056.0" y="531.0" text-anchor="end" fill="#e8731a" transform="rotate(-50 1056.0 531.0)">07-20</text>
<line x1="1108.0" y1="516.0" x2="1108.0" y2="519.0" stroke="#999"/>
<text x="1108.0" y="531.0" text-anchor="end" fill="#e8731a" transform="rotate(-50 1108.0 531.0)">07-21</text>
<polygon points="68.0,511.8 120.0,511.8 172.0,511.8 224.0,511.8 276.0,511.7 328.0,511.8 380.0,511.7 432.0,512.2 484.0,512.3 536.0,512.2 588.0,512.2 640.0,512.2 692.0,512.2 744.0,512.4 796.0,512.5 848.0,512.4 900.0,512.4 952.0,512.9 1004.0,512.9 1056.0,512.9 1108.0,512.9 1108.0,516.0 1056.0,516.0 1004.0,516.0 952.0,516.0 900.0,516.0 848.0,516.0 796.0,516.0 744.0,516.0 692.0,516.0 640.0,516.0 588.0,516.0 536.0,516.0 484.0,516.0 432.0,516.0 380.0,516.0 328.0,516.0 276.0,516.0 224.0,516.0 172.0,516.0 120.0,516.0 68.0,516.0" fill="#c7e9c0" fill-opacity="0.9" stroke="#fff" stroke-width="0.4"><title>sema_generics — parseTranslationUnit</title></polygon>
<polygon points="68.0,179.7 120.0,174.2 172.0,178.3 224.0,180.5 276.0,173.4 328.0,177.1 380.0,177.5 432.0,240.8 484.0,242.1 536.0,240.3 588.0,242.3 640.0,223.4 692.0,230.8 744.0,247.0 796.0,251.1 848.0,207.4 900.0,206.2 952.0,236.0 1004.0,236.7 1056.0,235.4 1108.0,235.7 1108.0,512.9 1056.0,512.9 1004.0,512.9 952.0,512.9 900.0,512.4 848.0,512.4 796.0,512.5 744.0,512.4 692.0,512.2 640.0,512.2 588.0,512.2 536.0,512.2 484.0,512.3 432.0,512.2 380.0,511.7 328.0,511.8 276.0,511.7 224.0,511.8 172.0,511.8 120.0,511.8 68.0,511.8" fill="#41ab5d" fill-opacity="0.9" stroke="#fff" stroke-width="0.4"><title>sema_generics — SemanticChecking</title></polygon>
<polygon points="68.0,131.2 120.0,125.5 172.0,130.4 224.0,131.2 276.0,123.7 328.0,128.8 380.0,129.0 432.0,192.6 484.0,193.6 536.0,191.5 588.0,192.8 640.0,174.4 692.0,181.4 744.0,200.2 796.0,204.3 848.0,161.4 900.0,159.8 952.0,192.6 1004.0,193.9 1056.0,193.3 1108.0,190.9 1108.0,235.7 1056.0,235.4 1004.0,236.7 952.0,236.0 900.0,206.2 848.0,207.4 796.0,251.1 744.0,247.0 692.0,230.8 640.0,223.4 588.0,242.3 536.0,240.3 484.0,242.1 432.0,240.8 380.0,177.5 328.0,177.1 276.0,173.4 224.0,180.5 172.0,178.3 120.0,174.2 68.0,179.7" fill="#006d2c" fill-opacity="0.9" stroke="#fff" stroke-width="0.4"><title>sema_generics — generateIR</title></polygon>
<polygon points="68.0,131.2 120.0,125.0 172.0,130.4 224.0,130.6 276.0,123.6 328.0,128.6 380.0,129.0 432.0,192.5 484.0,192.8 536.0,191.4 588.0,192.8 640.0,173.6 692.0,181.4 744.0,200.2 796.0,203.6 848.0,161.4 900.0,159.8 952.0,192.6 1004.0,193.7 1056.0,193.0 1108.0,190.9 1108.0,190.9 1056.0,193.3 1004.0,193.9 952.0,192.6 900.0,159.8 848.0,161.4 796.0,204.3 744.0,200.2 692.0,181.4 640.0,174.4 588.0,192.8 536.0,191.5 484.0,193.6 432.0,192.6 380.0,129.0 328.0,128.8 276.0,123.7 224.0,131.2 172.0,130.4 120.0,125.5 68.0,131.2" fill="#74c476" fill-opacity="0.9" stroke="#fff" stroke-width="0.4"><title>sema_generics — frontEndExecute (self)</title></polygon>
<polygon points="68.0,117.9 120.0,111.3 172.0,116.3 224.0,117.1 276.0,108.8 328.0,114.7 380.0,115.7 432.0,178.9 484.0,178.7 536.0,178.2 588.0,179.7 640.0,158.0 692.0,166.2 744.0,182.6 796.0,189.2 848.0,144.0 900.0,142.0 952.0,180.1 1004.0,181.5 1056.0,180.9 1108.0,178.9 1108.0,190.9 1056.0,193.0 1004.0,193.7 952.0,192.6 900.0,159.8 848.0,161.4 796.0,203.6 744.0,200.2 692.0,181.4 640.0,173.6 588.0,192.8 536.0,191.4 484.0,192.8 432.0,192.5 380.0,129.0 328.0,128.6 276.0,123.6 224.0,130.6 172.0,130.4 120.0,125.0 68.0,131.2" fill="#e6550d" fill-opacity="0.9" stroke="#fff" stroke-width="0.4"><title>sema_generics — generateOutput (self)</title></polygon>
<polygon points="68.0,117.9 120.0,111.3 172.0,116.3 224.0,116.9 276.0,108.6 328.0,114.7 380.0,115.7 432.0,178.9 484.0,178.7 536.0,178.1 588.0,179.7 640.0,158.0 692.0,166.2 744.0,182.6 796.0,189.2 848.0,143.8 900.0,142.0 952.0,180.0 1004.0,181.5 1056.0,180.9 1108.0,178.9 1108.0,178.9 1056.0,180.9 1004.0,181.5 952.0,180.1 900.0,142.0 848.0,144.0 796.0,189.2 744.0,182.6 692.0,166.2 640.0,158.0 588.0,179.7 536.0,178.2 484.0,178.7 432.0,178.9 380.0,115.7 328.0,114.7 276.0,108.8 224.0,117.1 172.0,116.3 120.0,111.3 68.0,117.9" fill="#969696" fill-opacity="0.9" stroke="#fff" stroke-width="0.4"><title>sema_generics — compileInner (self)</title></polygon>
<text x="12" y="578" fill="#666" font-weight="600">phase buckets</text>
<rect x="12" y="586" width="12" height="12" fill="#c7e9c0"/>
<text x="28" y="596" fill="#222">parseTranslationUnit</text>
<rect x="289" y="586" width="12" height="12" fill="#41ab5d"/>
<text x="305" y="596" fill="#222">SemanticChecking</text>
<rect x="566" y="586" width="12" height="12" fill="#006d2c"/>
<text x="582" y="596" fill="#222">generateIR</text>
<rect x="843" y="586" width="12" height="12" fill="#74c476"/>
<text x="859" y="596" fill="#222">frontEndExecute (self)</text>
<rect x="12" y="604" width="12" height="12" fill="#6baed6"/>
<text x="28" y="614" fill="#222">specializeModule</text>
<rect x="289" y="604" width="12" height="12" fill="#2171b5"/>
<text x="305" y="614" fill="#222">simplifyIR</text>
<rect x="566" y="604" width="12" height="12" fill="#08306b"/>
<text x="582" y="614" fill="#222">linkIR</text>
<rect x="843" y="604" width="12" height="12" fill="#9e9ac8"/>
<text x="859" y="614" fill="#222">unrollLoopsInModule</text>
<rect x="12" y="622" width="12" height="12" fill="#807dba"/>
<text x="28" y="632" fill="#222">legalizeResourceTypes</text>
<rect x="289" y="622" width="12" height="12" fill="#6a51a3"/>
<text x="305" y="632" fill="#222">legalizeExistentialTypeLayout</text>
<rect x="566" y="622" width="12" height="12" fill="#bcbddc"/>
<text x="582" y="632" fill="#222">performMandatoryEarlyInlining</text>
<rect x="843" y="622" width="12" height="12" fill="#dadaeb"/>
<text x="859" y="632" fill="#222">performForceInlining</text>
<rect x="12" y="640" width="12" height="12" fill="#4a1486"/>
<text x="28" y="650" fill="#222">linkAndOptimizeIR (self)</text>
<rect x="289" y="640" width="12" height="12" fill="#fd8d3c"/>
<text x="305" y="650" fill="#222">emitEntryPointsSourceFromIR</text>
<rect x="566" y="640" width="12" height="12" fill="#e6550d"/>
<text x="582" y="650" fill="#222">generateOutput (self)</text>
<rect x="843" y="640" width="12" height="12" fill="#969696"/>
<text x="859" y="650" fill="#222">compileInner (self)</text>
</svg>