<svg xmlns="http://www.w3.org/2000/svg" xmlns:xlink="http://www.w3.org/1999/xlink" width="1132" height="680" viewBox="0 0 1132 680" preserveAspectRatio="xMidYMid meet" font-family="sans-serif" font-size="13">
<rect width="1132" height="680" fill="white"/>
<text x="12" y="30" font-size="20" font-weight="bold">sema_generics — Daily tip-of-tree (last 30 days) (median ms)</text>
<text x="68" y="60" font-size="15" font-weight="600" fill="#1a1a1a">sema_generics<tspan fill="#888" font-weight="400" text-decoration="none">  0.85×</tspan></text>
<line x1="68.0" y1="516.0" x2="1108.0" y2="516.0" stroke="#eee"/>
<text x="64.0" y="519.0" text-anchor="end" fill="#999">0.0</text>
<line x1="68.0" y1="296.0" x2="1108.0" y2="296.0" stroke="#eee"/>
<text x="64.0" y="299.0" text-anchor="end" fill="#999">571</text>
<line x1="68.0" y1="76.0" x2="1108.0" y2="76.0" stroke="#eee"/>
<text x="64.0" y="79.0" text-anchor="end" fill="#999">1142</text>
<line x1="68.0" y1="76.0" x2="68.0" y2="516.0" stroke="#333"/>
<line x1="68.0" y1="516.0" x2="1108.0" y2="516.0" stroke="#333"/>
<line x1="68.0" y1="516.0" x2="68.0" y2="519.0" stroke="#999"/>
<text x="68.0" y="531.0" text-anchor="end" fill="#e8731a" transform="rotate(-50 68.0 531.0)">06-25</text>
<line x1="117.5" y1="516.0" x2="117.5" y2="519.0" stroke="#999"/>
<text x="117.5" y="531.0" text-anchor="end" fill="#e8731a" transform="rotate(-50 117.5 531.0)">06-26</text>
<line x1="167.0" y1="516.0" x2="167.0" y2="519.0" stroke="#999"/>
<text x="167.0" y="531.0" text-anchor="end" fill="#e8731a" transform="rotate(-50 167.0 531.0)">06-28</text>
<line x1="216.6" y1="516.0" x2="216.6" y2="519.0" stroke="#999"/>
<text x="216.6" y="531.0" text-anchor="end" fill="#e8731a" transform="rotate(-50 216.6 531.0)">07-01</text>
<line x1="266.1" y1="516.0" x2="266.1" y2="519.0" stroke="#999"/>
<text x="266.1" y="531.0" text-anchor="end" fill="#e8731a" transform="rotate(-50 266.1 531.0)">07-02</text>
<line x1="315.6" y1="516.0" x2="315.6" y2="519.0" stroke="#999"/>
<text x="315.6" y="531.0" text-anchor="end" fill="#e8731a" transform="rotate(-50 315.6 531.0)">07-03</text>
<line x1="365.1" y1="516.0" x2="365.1" y2="519.0" stroke="#999"/>
<text x="365.1" y="531.0" text-anchor="end" fill="#e8731a" transform="rotate(-50 365.1 531.0)">07-06</text>
<line x1="414.7" y1="516.0" x2="414.7" y2="519.0" stroke="#999"/>
<text x="414.7" y="531.0" text-anchor="end" fill="#e8731a" transform="rotate(-50 414.7 531.0)">07-07</text>
<line x1="464.2" y1="516.0" x2="464.2" y2="519.0" stroke="#999"/>
<text x="464.2" y="531.0" text-anchor="end" fill="#e8731a" transform="rotate(-50 464.2 531.0)">07-08</text>
<line x1="513.7" y1="516.0" x2="513.7" y2="519.0" stroke="#999"/>
<text x="513.7" y="531.0" text-anchor="end" fill="#e8731a" transform="rotate(-50 513.7 531.0)">07-09</text>
<line x1="563.2" y1="516.0" x2="563.2" y2="519.0" stroke="#999"/>
<text x="563.2" y="531.0" text-anchor="end" fill="#e8731a" transform="rotate(-50 563.2 531.0)">07-10</text>
<line x1="612.8" y1="516.0" x2="612.8" y2="519.0" stroke="#999"/>
<text x="612.8" y="531.0" text-anchor="end" fill="#e8731a" transform="rotate(-50 612.8 531.0)">07-11</text>
<line x1="662.3" y1="516.0" x2="662.3" y2="519.0" stroke="#999"/>
<text x="662.3" y="531.0" text-anchor="end" fill="#e8731a" transform="rotate(-50 662.3 531.0)">07-14</text>
<line x1="711.8" y1="516.0" x2="711.8" y2="519.0" stroke="#999"/>
<text x="711.8" y="531.0" text-anchor="end" fill="#e8731a" transform="rotate(-50 711.8 531.0)">07-15</text>
<line x1="761.3" y1="516.0" x2="761.3" y2="519.0" stroke="#999"/>
<text x="761.3" y="531.0" text-anchor="end" fill="#e8731a" transform="rotate(-50 761.3 531.0)">07-15</text>
<line x1="810.9" y1="516.0" x2="810.9" y2="519.0" stroke="#999"/>
<text x="810.9" y="531.0" text-anchor="end" fill="#e8731a" transform="rotate(-50 810.9 531.0)">07-16</text>
<line x1="860.4" y1="516.0" x2="860.4" y2="519.0" stroke="#999"/>
<text x="860.4" y="531.0" text-anchor="end" fill="#e8731a" transform="rotate(-50 860.4 531.0)">07-17</text>
<line x1="909.9" y1="516.0" x2="909.9" y2="519.0" stroke="#999"/>
<text x="909.9" y="531.0" text-anchor="end" fill="#e8731a" transform="rotate(-50 909.9 531.0)">07-18</text>
<line x1="959.4" y1="516.0" x2="959.4" y2="519.0" stroke="#999"/>
<text x="959.4" y="531.0" text-anchor="end" fill="#e8731a" transform="rotate(-50 959.4 531.0)">07-19</text>
<line x1="1009.0" y1="516.0" x2="1009.0" y2="519.0" stroke="#999"/>
<text x="1009.0" y="531.0" text-anchor="end" fill="#e8731a" transform="rotate(-50 1009.0 531.0)">07-20</text>
<line x1="1058.5" y1="516.0" x2="1058.5" y2="519.0" stroke="#999"/>
<text x="1058.5" y="531.0" text-anchor="end" fill="#e8731a" transform="rotate(-50 1058.5 531.0)">07-21</text>
<line x1="1108.0" y1="516.0" x2="1108.0" y2="519.0" stroke="#999"/>
<text x="1108.0" y="531.0" text-anchor="end" fill="#e8731a" transform="rotate(-50 1108.0 531.0)">07-22</text>
<polygon points="68.0,511.8 117.5,511.8 167.0,511.8 216.6,511.8 266.1,511.7 315.6,511.8 365.1,511.7 414.7,512.2 464.2,512.3 513.7,512.2 563.2,512.2 612.8,512.2 662.3,512.2 711.8,512.4 761.3,512.5 810.9,512.4 860.4,512.4 909.9,512.9 959.4,512.9 1009.0,512.9 1058.5,512.9 1108.0,512.9 1108.0,516.0 1058.5,516.0 1009.0,516.0 959.4,516.0 909.9,516.0 860.4,516.0 810.9,516.0 761.3,516.0 711.8,516.0 662.3,516.0 612.8,516.0 563.2,516.0 513.7,516.0 464.2,516.0 414.7,516.0 365.1,516.0 315.6,516.0 266.1,516.0 216.6,516.0 167.0,516.0 117.5,516.0 68.0,516.0" fill="#c7e9c0" fill-opacity="0.9" stroke="#fff" stroke-width="0.4"><title>sema_generics — parseTranslationUnit</title></polygon>
<polygon points="68.0,179.7 117.5,174.2 167.0,178.3 216.6,180.5 266.1,173.4 315.6,177.1 365.1,177.5 414.7,240.8 464.2,242.1 513.7,240.3 563.2,242.3 612.8,223.4 662.3,230.8 711.8,247.0 761.3,251.1 810.9,207.4 860.4,206.2 909.9,236.0 959.4,236.7 1009.0,235.4 1058.5,235.7 1108.0,233.5 1108.0,512.9 1058.5,512.9 1009.0,512.9 959.4,512.9 909.9,512.9 860.4,512.4 810.9,512.4 761.3,512.5 711.8,512.4 662.3,512.2 612.8,512.2 563.2,512.2 513.7,512.2 464.2,512.3 414.7,512.2 365.1,511.7 315.6,511.8 266.1,511.7 216.6,511.8 167.0,511.8 117.5,511.8 68.0,511.8" fill="#41ab5d" fill-opacity="0.9" stroke="#fff" stroke-width="0.4"><title>sema_generics — SemanticChecking</title></polygon>
<polygon points="68.0,131.2 117.5,125.5 167.0,130.4 216.6,131.2 266.1,123.7 315.6,128.8 365.1,129.0 414.7,192.6 464.2,193.6 513.7,191.5 563.2,192.8 612.8,174.4 662.3,181.4 711.8,200.2 761.3,204.3 810.9,161.4 860.4,159.8 909.9,192.6 959.4,193.9 1009.0,193.3 1058.5,190.9 1108.0,190.2 1108.0,233.5 1058.5,235.7 1009.0,235.4 959.4,236.7 909.9,236.0 860.4,206.2 810.9,207.4 761.3,251.1 711.8,247.0 662.3,230.8 612.8,223.4 563.2,242.3 513.7,240.3 464.2,242.1 414.7,240.8 365.1,177.5 315.6,177.1 266.1,173.4 216.6,180.5 167.0,178.3 117.5,174.2 68.0,179.7" fill="#006d2c" fill-opacity="0.9" stroke="#fff" stroke-width="0.4"><title>sema_generics — generateIR</title></polygon>
<polygon points="68.0,131.2 117.5,125.0 167.0,130.4 216.6,130.6 266.1,123.6 315.6,128.6 365.1,129.0 414.7,192.5 464.2,192.8 513.7,191.4 563.2,192.8 612.8,173.6 662.3,181.4 711.8,200.2 761.3,203.6 810.9,161.4 860.4,159.8 909.9,192.6 959.4,193.7 1009.0,193.0 1058.5,190.9 1108.0,190.0 1108.0,190.2 1058.5,190.9 1009.0,193.3 959.4,193.9 909.9,192.6 860.4,159.8 810.9,161.4 761.3,204.3 711.8,200.2 662.3,181.4 612.8,174.4 563.2,192.8 513.7,191.5 464.2,193.6 414.7,192.6 365.1,129.0 315.6,128.8 266.1,123.7 216.6,131.2 167.0,130.4 117.5,125.5 68.0,131.2" fill="#74c476" fill-opacity="0.9" stroke="#fff" stroke-width="0.4"><title>sema_generics — frontEndExecute (self)</title></polygon>
<polygon points="68.0,117.9 117.5,111.3 167.0,116.3 216.6,117.1 266.1,108.8 315.6,114.7 365.1,115.7 414.7,178.9 464.2,178.7 513.7,178.2 563.2,179.7 612.8,158.0 662.3,166.2 711.8,182.6 761.3,189.2 810.9,144.0 860.4,142.0 909.9,180.1 959.4,181.5 1009.0,180.9 1058.5,178.9 1108.0,178.3 1108.0,190.0 1058.5,190.9 1009.0,193.0 959.4,193.7 909.9,192.6 860.4,159.8 810.9,161.4 761.3,203.6 711.8,200.2 662.3,181.4 612.8,173.6 563.2,192.8 513.7,191.4 464.2,192.8 414.7,192.5 365.1,129.0 315.6,128.6 266.1,123.6 216.6,130.6 167.0,130.4 117.5,125.0 68.0,131.2" fill="#e6550d" fill-opacity="0.9" stroke="#fff" stroke-width="0.4"><title>sema_generics — generateOutput (self)</title></polygon>
<polygon points="68.0,117.9 117.5,111.3 167.0,116.3 216.6,116.9 266.1,108.6 315.6,114.7 365.1,115.7 414.7,178.9 464.2,178.7 513.7,178.1 563.2,179.7 612.8,158.0 662.3,166.2 711.8,182.6 761.3,189.2 810.9,143.8 860.4,142.0 909.9,180.0 959.4,181.5 1009.0,180.9 1058.5,178.9 1108.0,178.3 1108.0,178.3 1058.5,178.9 1009.0,180.9 959.4,181.5 909.9,180.1 860.4,142.0 810.9,144.0 761.3,189.2 711.8,182.6 662.3,166.2 612.8,158.0 563.2,179.7 513.7,178.2 464.2,178.7 414.7,178.9 365.1,115.7 315.6,114.7 266.1,108.8 216.6,117.1 167.0,116.3 117.5,111.3 68.0,117.9" fill="#969696" fill-opacity="0.9" stroke="#fff" stroke-width="0.4"><title>sema_generics — compileInner (self)</title></polygon>
<text x="12" y="578" fill="#666" font-weight="600">phase buckets</text>
<rect x="12" y="586" width="12" height="12" fill="#c7e9c0"/>
<text x="28" y="596" fill="#222">parseTranslationUnit</text>
<rect x="289" y="586" width="12" height="12" fill="#41ab5d"/>
<text x="305" y="596" fill="#222">SemanticChecking</text>
<rect x="566" y="586" width="12" height="12" fill="#006d2c"/>
<text x="582" y="596" fill="#222">generateIR</text>
<rect x="843" y="586" width="12" height="12" fill="#74c476"/>
<text x="859" y="596" fill="#222">frontEndExecute (self)</text>
<rect x="12" y="604" width="12" height="12" fill="#6baed6"/>
<text x="28" y="614" fill="#222">specializeModule</text>
<rect x="289" y="604" width="12" height="12" fill="#2171b5"/>
<text x="305" y="614" fill="#222">simplifyIR</text>
<rect x="566" y="604" width="12" height="12" fill="#08306b"/>
<text x="582" y="614" fill="#222">linkIR</text>
<rect x="843" y="604" width="12" height="12" fill="#9e9ac8"/>
<text x="859" y="614" fill="#222">unrollLoopsInModule</text>
<rect x="12" y="622" width="12" height="12" fill="#807dba"/>
<text x="28" y="632" fill="#222">legalizeResourceTypes</text>
<rect x="289" y="622" width="12" height="12" fill="#6a51a3"/>
<text x="305" y="632" fill="#222">legalizeExistentialTypeLayout</text>
<rect x="566" y="622" width="12" height="12" fill="#bcbddc"/>
<text x="582" y="632" fill="#222">performMandatoryEarlyInlining</text>
<rect x="843" y="622" width="12" height="12" fill="#dadaeb"/>
<text x="859" y="632" fill="#222">performForceInlining</text>
<rect x="12" y="640" width="12" height="12" fill="#4a1486"/>
<text x="28" y="650" fill="#222">linkAndOptimizeIR (self)</text>
<rect x="289" y="640" width="12" height="12" fill="#fd8d3c"/>
<text x="305" y="650" fill="#222">emitEntryPointsSourceFromIR</text>
<rect x="566" y="640" width="12" height="12" fill="#e6550d"/>
<text x="582" y="650" fill="#222">generateOutput (self)</text>
<rect x="843" y="640" width="12" height="12" fill="#969696"/>
<text x="859" y="650" fill="#222">compileInner (self)</text>
</svg>