<svg xmlns="http://www.w3.org/2000/svg" xmlns:xlink="http://www.w3.org/1999/xlink" width="1132" height="680" viewBox="0 0 1132 680" preserveAspectRatio="xMidYMid meet" font-family="sans-serif" font-size="13">
<rect width="1132" height="680" fill="white"/>
<text x="12" y="30" font-size="20" font-weight="bold">sema_generics — Daily tip-of-tree (last 30 days) (median ms)</text>
<text x="68" y="60" font-size="15" font-weight="600" fill="#1a1a1a">sema_generics<tspan fill="#888" font-weight="400" text-decoration="none">  0.86×</tspan></text>
<line x1="68.0" y1="516.0" x2="1108.0" y2="516.0" stroke="#eee"/>
<text x="64.0" y="519.0" text-anchor="end" fill="#999">0.0</text>
<line x1="68.0" y1="296.0" x2="1108.0" y2="296.0" stroke="#eee"/>
<text x="64.0" y="299.0" text-anchor="end" fill="#999">571</text>
<line x1="68.0" y1="76.0" x2="1108.0" y2="76.0" stroke="#eee"/>
<text x="64.0" y="79.0" text-anchor="end" fill="#999">1142</text>
<line x1="68.0" y1="76.0" x2="68.0" y2="516.0" stroke="#333"/>
<line x1="68.0" y1="516.0" x2="1108.0" y2="516.0" stroke="#333"/>
<line x1="68.0" y1="516.0" x2="68.0" y2="519.0" stroke="#999"/>
<text x="68.0" y="531.0" text-anchor="end" fill="#e8731a" transform="rotate(-50 68.0 531.0)">06-25</text>
<line x1="115.3" y1="516.0" x2="115.3" y2="519.0" stroke="#999"/>
<text x="115.3" y="531.0" text-anchor="end" fill="#e8731a" transform="rotate(-50 115.3 531.0)">06-26</text>
<line x1="162.5" y1="516.0" x2="162.5" y2="519.0" stroke="#999"/>
<text x="162.5" y="531.0" text-anchor="end" fill="#e8731a" transform="rotate(-50 162.5 531.0)">06-28</text>
<line x1="209.8" y1="516.0" x2="209.8" y2="519.0" stroke="#999"/>
<text x="209.8" y="531.0" text-anchor="end" fill="#e8731a" transform="rotate(-50 209.8 531.0)">07-01</text>
<line x1="257.1" y1="516.0" x2="257.1" y2="519.0" stroke="#999"/>
<text x="257.1" y="531.0" text-anchor="end" fill="#e8731a" transform="rotate(-50 257.1 531.0)">07-02</text>
<line x1="304.4" y1="516.0" x2="304.4" y2="519.0" stroke="#999"/>
<text x="304.4" y="531.0" text-anchor="end" fill="#e8731a" transform="rotate(-50 304.4 531.0)">07-03</text>
<line x1="351.6" y1="516.0" x2="351.6" y2="519.0" stroke="#999"/>
<text x="351.6" y="531.0" text-anchor="end" fill="#e8731a" transform="rotate(-50 351.6 531.0)">07-06</text>
<line x1="398.9" y1="516.0" x2="398.9" y2="519.0" stroke="#999"/>
<text x="398.9" y="531.0" text-anchor="end" fill="#e8731a" transform="rotate(-50 398.9 531.0)">07-07</text>
<line x1="446.2" y1="516.0" x2="446.2" y2="519.0" stroke="#999"/>
<text x="446.2" y="531.0" text-anchor="end" fill="#e8731a" transform="rotate(-50 446.2 531.0)">07-08</text>
<line x1="493.5" y1="516.0" x2="493.5" y2="519.0" stroke="#999"/>
<text x="493.5" y="531.0" text-anchor="end" fill="#e8731a" transform="rotate(-50 493.5 531.0)">07-09</text>
<line x1="540.7" y1="516.0" x2="540.7" y2="519.0" stroke="#999"/>
<text x="540.7" y="531.0" text-anchor="end" fill="#e8731a" transform="rotate(-50 540.7 531.0)">07-10</text>
<line x1="588.0" y1="516.0" x2="588.0" y2="519.0" stroke="#999"/>
<text x="588.0" y="531.0" text-anchor="end" fill="#e8731a" transform="rotate(-50 588.0 531.0)">07-11</text>
<line x1="635.3" y1="516.0" x2="635.3" y2="519.0" stroke="#999"/>
<text x="635.3" y="531.0" text-anchor="end" fill="#e8731a" transform="rotate(-50 635.3 531.0)">07-14</text>
<line x1="682.5" y1="516.0" x2="682.5" y2="519.0" stroke="#999"/>
<text x="682.5" y="531.0" text-anchor="end" fill="#e8731a" transform="rotate(-50 682.5 531.0)">07-15</text>
<line x1="729.8" y1="516.0" x2="729.8" y2="519.0" stroke="#999"/>
<text x="729.8" y="531.0" text-anchor="end" fill="#e8731a" transform="rotate(-50 729.8 531.0)">07-15</text>
<line x1="777.1" y1="516.0" x2="777.1" y2="519.0" stroke="#999"/>
<text x="777.1" y="531.0" text-anchor="end" fill="#e8731a" transform="rotate(-50 777.1 531.0)">07-16</text>
<line x1="824.4" y1="516.0" x2="824.4" y2="519.0" stroke="#999"/>
<text x="824.4" y="531.0" text-anchor="end" fill="#e8731a" transform="rotate(-50 824.4 531.0)">07-17</text>
<line x1="871.6" y1="516.0" x2="871.6" y2="519.0" stroke="#999"/>
<text x="871.6" y="531.0" text-anchor="end" fill="#e8731a" transform="rotate(-50 871.6 531.0)">07-18</text>
<line x1="918.9" y1="516.0" x2="918.9" y2="519.0" stroke="#999"/>
<text x="918.9" y="531.0" text-anchor="end" fill="#e8731a" transform="rotate(-50 918.9 531.0)">07-19</text>
<line x1="966.2" y1="516.0" x2="966.2" y2="519.0" stroke="#999"/>
<text x="966.2" y="531.0" text-anchor="end" fill="#e8731a" transform="rotate(-50 966.2 531.0)">07-20</text>
<line x1="1013.5" y1="516.0" x2="1013.5" y2="519.0" stroke="#999"/>
<text x="1013.5" y="531.0" text-anchor="end" fill="#e8731a" transform="rotate(-50 1013.5 531.0)">07-21</text>
<line x1="1060.7" y1="516.0" x2="1060.7" y2="519.0" stroke="#999"/>
<text x="1060.7" y="531.0" text-anchor="end" fill="#e8731a" transform="rotate(-50 1060.7 531.0)">07-22</text>
<line x1="1108.0" y1="516.0" x2="1108.0" y2="519.0" stroke="#999"/>
<text x="1108.0" y="531.0" text-anchor="end" fill="#e8731a" transform="rotate(-50 1108.0 531.0)">07-23</text>
<polygon points="68.0,511.8 115.3,511.8 162.5,511.8 209.8,511.8 257.1,511.7 304.4,511.8 351.6,511.7 398.9,512.2 446.2,512.3 493.5,512.2 540.7,512.2 588.0,512.2 635.3,512.2 682.5,512.4 729.8,512.5 777.1,512.4 824.4,512.4 871.6,512.9 918.9,512.9 966.2,512.9 1013.5,512.9 1060.7,512.9 1108.0,512.9 1108.0,516.0 1060.7,516.0 1013.5,516.0 966.2,516.0 918.9,516.0 871.6,516.0 824.4,516.0 777.1,516.0 729.8,516.0 682.5,516.0 635.3,516.0 588.0,516.0 540.7,516.0 493.5,516.0 446.2,516.0 398.9,516.0 351.6,516.0 304.4,516.0 257.1,516.0 209.8,516.0 162.5,516.0 115.3,516.0 68.0,516.0" fill="#c7e9c0" fill-opacity="0.9" stroke="#fff" stroke-width="0.4"><title>sema_generics — parseTranslationUnit</title></polygon>
<polygon points="68.0,179.7 115.3,174.2 162.5,178.3 209.8,180.5 257.1,173.4 304.4,177.1 351.6,177.5 398.9,240.8 446.2,242.1 493.5,240.3 540.7,242.3 588.0,223.4 635.3,230.8 682.5,247.0 729.8,251.1 777.1,207.4 824.4,206.2 871.6,236.0 918.9,236.7 966.2,235.4 1013.5,235.7 1060.7,233.5 1108.0,228.9 1108.0,512.9 1060.7,512.9 1013.5,512.9 966.2,512.9 918.9,512.9 871.6,512.9 824.4,512.4 777.1,512.4 729.8,512.5 682.5,512.4 635.3,512.2 588.0,512.2 540.7,512.2 493.5,512.2 446.2,512.3 398.9,512.2 351.6,511.7 304.4,511.8 257.1,511.7 209.8,511.8 162.5,511.8 115.3,511.8 68.0,511.8" fill="#41ab5d" fill-opacity="0.9" stroke="#fff" stroke-width="0.4"><title>sema_generics — SemanticChecking</title></polygon>
<polygon points="68.0,131.2 115.3,125.5 162.5,130.4 209.8,131.2 257.1,123.7 304.4,128.8 351.6,129.0 398.9,192.6 446.2,193.6 493.5,191.5 540.7,192.8 588.0,174.4 635.3,181.4 682.5,200.2 729.8,204.3 777.1,161.4 824.4,159.8 871.6,192.6 918.9,193.9 966.2,193.3 1013.5,190.9 1060.7,190.2 1108.0,186.4 1108.0,228.9 1060.7,233.5 1013.5,235.7 966.2,235.4 918.9,236.7 871.6,236.0 824.4,206.2 777.1,207.4 729.8,251.1 682.5,247.0 635.3,230.8 588.0,223.4 540.7,242.3 493.5,240.3 446.2,242.1 398.9,240.8 351.6,177.5 304.4,177.1 257.1,173.4 209.8,180.5 162.5,178.3 115.3,174.2 68.0,179.7" fill="#006d2c" fill-opacity="0.9" stroke="#fff" stroke-width="0.4"><title>sema_generics — generateIR</title></polygon>
<polygon points="68.0,131.2 115.3,125.0 162.5,130.4 209.8,130.6 257.1,123.6 304.4,128.6 351.6,129.0 398.9,192.5 446.2,192.8 493.5,191.4 540.7,192.8 588.0,173.6 635.3,181.4 682.5,200.2 729.8,203.6 777.1,161.4 824.4,159.8 871.6,192.6 918.9,193.7 966.2,193.0 1013.5,190.9 1060.7,190.0 1108.0,186.0 1108.0,186.4 1060.7,190.2 1013.5,190.9 966.2,193.3 918.9,193.9 871.6,192.6 824.4,159.8 777.1,161.4 729.8,204.3 682.5,200.2 635.3,181.4 588.0,174.4 540.7,192.8 493.5,191.5 446.2,193.6 398.9,192.6 351.6,129.0 304.4,128.8 257.1,123.7 209.8,131.2 162.5,130.4 115.3,125.5 68.0,131.2" fill="#74c476" fill-opacity="0.9" stroke="#fff" stroke-width="0.4"><title>sema_generics — frontEndExecute (self)</title></polygon>
<polygon points="68.0,117.9 115.3,111.3 162.5,116.3 209.8,117.1 257.1,108.8 304.4,114.7 351.6,115.7 398.9,178.9 446.2,178.7 493.5,178.2 540.7,179.7 588.0,158.0 635.3,166.2 682.5,182.6 729.8,189.2 777.1,144.0 824.4,142.0 871.6,180.1 918.9,181.5 966.2,180.9 1013.5,178.9 1060.7,178.3 1108.0,174.2 1108.0,186.0 1060.7,190.0 1013.5,190.9 966.2,193.0 918.9,193.7 871.6,192.6 824.4,159.8 777.1,161.4 729.8,203.6 682.5,200.2 635.3,181.4 588.0,173.6 540.7,192.8 493.5,191.4 446.2,192.8 398.9,192.5 351.6,129.0 304.4,128.6 257.1,123.6 209.8,130.6 162.5,130.4 115.3,125.0 68.0,131.2" fill="#e6550d" fill-opacity="0.9" stroke="#fff" stroke-width="0.4"><title>sema_generics — generateOutput (self)</title></polygon>
<polygon points="68.0,117.9 115.3,111.3 162.5,116.3 209.8,116.9 257.1,108.6 304.4,114.7 351.6,115.7 398.9,178.9 446.2,178.7 493.5,178.1 540.7,179.7 588.0,158.0 635.3,166.2 682.5,182.6 729.8,189.2 777.1,143.8 824.4,142.0 871.6,180.0 918.9,181.5 966.2,180.9 1013.5,178.9 1060.7,178.3 1108.0,173.9 1108.0,174.2 1060.7,178.3 1013.5,178.9 966.2,180.9 918.9,181.5 871.6,180.1 824.4,142.0 777.1,144.0 729.8,189.2 682.5,182.6 635.3,166.2 588.0,158.0 540.7,179.7 493.5,178.2 446.2,178.7 398.9,178.9 351.6,115.7 304.4,114.7 257.1,108.8 209.8,117.1 162.5,116.3 115.3,111.3 68.0,117.9" fill="#969696" fill-opacity="0.9" stroke="#fff" stroke-width="0.4"><title>sema_generics — compileInner (self)</title></polygon>
<text x="12" y="578" fill="#666" font-weight="600">phase buckets</text>
<rect x="12" y="586" width="12" height="12" fill="#c7e9c0"/>
<text x="28" y="596" fill="#222">parseTranslationUnit</text>
<rect x="289" y="586" width="12" height="12" fill="#41ab5d"/>
<text x="305" y="596" fill="#222">SemanticChecking</text>
<rect x="566" y="586" width="12" height="12" fill="#006d2c"/>
<text x="582" y="596" fill="#222">generateIR</text>
<rect x="843" y="586" width="12" height="12" fill="#74c476"/>
<text x="859" y="596" fill="#222">frontEndExecute (self)</text>
<rect x="12" y="604" width="12" height="12" fill="#6baed6"/>
<text x="28" y="614" fill="#222">specializeModule</text>
<rect x="289" y="604" width="12" height="12" fill="#2171b5"/>
<text x="305" y="614" fill="#222">simplifyIR</text>
<rect x="566" y="604" width="12" height="12" fill="#08306b"/>
<text x="582" y="614" fill="#222">linkIR</text>
<rect x="843" y="604" width="12" height="12" fill="#9e9ac8"/>
<text x="859" y="614" fill="#222">unrollLoopsInModule</text>
<rect x="12" y="622" width="12" height="12" fill="#807dba"/>
<text x="28" y="632" fill="#222">legalizeResourceTypes</text>
<rect x="289" y="622" width="12" height="12" fill="#6a51a3"/>
<text x="305" y="632" fill="#222">legalizeExistentialTypeLayout</text>
<rect x="566" y="622" width="12" height="12" fill="#bcbddc"/>
<text x="582" y="632" fill="#222">performMandatoryEarlyInlining</text>
<rect x="843" y="622" width="12" height="12" fill="#dadaeb"/>
<text x="859" y="632" fill="#222">performForceInlining</text>
<rect x="12" y="640" width="12" height="12" fill="#4a1486"/>
<text x="28" y="650" fill="#222">linkAndOptimizeIR (self)</text>
<rect x="289" y="640" width="12" height="12" fill="#fd8d3c"/>
<text x="305" y="650" fill="#222">emitEntryPointsSourceFromIR</text>
<rect x="566" y="640" width="12" height="12" fill="#e6550d"/>
<text x="582" y="650" fill="#222">generateOutput (self)</text>
<rect x="843" y="640" width="12" height="12" fill="#969696"/>
<text x="859" y="650" fill="#222">compileInner (self)</text>
</svg>