<svg xmlns="http://www.w3.org/2000/svg" xmlns:xlink="http://www.w3.org/1999/xlink" width="1132" height="680" viewBox="0 0 1132 680" preserveAspectRatio="xMidYMid meet" font-family="sans-serif" font-size="13">
<rect width="1132" height="680" fill="white"/>
<text x="12" y="30" font-size="20" font-weight="bold">sema_generics — Across releases (median ms)</text>
<text x="68" y="60" font-size="15" font-weight="600" fill="#1a1a1a">sema_generics<tspan fill="#888" font-weight="400" text-decoration="none">  1.07×</tspan></text>
<line x1="68.0" y1="516.0" x2="1108.0" y2="516.0" stroke="#eee"/>
<text x="64.0" y="519.0" text-anchor="end" fill="#999">0.0</text>
<line x1="68.0" y1="296.0" x2="1108.0" y2="296.0" stroke="#eee"/>
<text x="64.0" y="299.0" text-anchor="end" fill="#999">665</text>
<line x1="68.0" y1="76.0" x2="1108.0" y2="76.0" stroke="#eee"/>
<text x="64.0" y="79.0" text-anchor="end" fill="#999">1330</text>
<line x1="68.0" y1="76.0" x2="68.0" y2="516.0" stroke="#333"/>
<line x1="68.0" y1="516.0" x2="1108.0" y2="516.0" stroke="#333"/>
<line x1="68.0" y1="516.0" x2="68.0" y2="519.0" stroke="#999"/>
<text x="68.0" y="531.0" text-anchor="end" fill="#666" transform="rotate(-50 68.0 531.0)">25.12</text>
<line x1="111.3" y1="516.0" x2="111.3" y2="519.0" stroke="#999"/>
<text x="111.3" y="531.0" text-anchor="end" fill="#666" transform="rotate(-50 111.3 531.0)">25.13</text>
<line x1="154.7" y1="516.0" x2="154.7" y2="519.0" stroke="#999"/>
<text x="154.7" y="531.0" text-anchor="end" fill="#666" transform="rotate(-50 154.7 531.0)">25.14</text>
<line x1="198.0" y1="516.0" x2="198.0" y2="519.0" stroke="#999"/>
<text x="198.0" y="531.0" text-anchor="end" fill="#666" transform="rotate(-50 198.0 531.0)">25.15</text>
<line x1="241.3" y1="516.0" x2="241.3" y2="519.0" stroke="#999"/>
<text x="241.3" y="531.0" text-anchor="end" fill="#666" transform="rotate(-50 241.3 531.0)">25.16</text>
<line x1="284.7" y1="516.0" x2="284.7" y2="519.0" stroke="#999"/>
<text x="284.7" y="531.0" text-anchor="end" fill="#666" transform="rotate(-50 284.7 531.0)">25.17</text>
<line x1="328.0" y1="516.0" x2="328.0" y2="519.0" stroke="#999"/>
<text x="328.0" y="531.0" text-anchor="end" fill="#666" transform="rotate(-50 328.0 531.0)">25.18</text>
<line x1="371.3" y1="516.0" x2="371.3" y2="519.0" stroke="#999"/>
<text x="371.3" y="531.0" text-anchor="end" fill="#666" transform="rotate(-50 371.3 531.0)">25.19</text>
<line x1="414.7" y1="516.0" x2="414.7" y2="519.0" stroke="#999"/>
<text x="414.7" y="531.0" text-anchor="end" fill="#666" transform="rotate(-50 414.7 531.0)">25.20</text>
<line x1="458.0" y1="516.0" x2="458.0" y2="519.0" stroke="#999"/>
<text x="458.0" y="531.0" text-anchor="end" fill="#666" transform="rotate(-50 458.0 531.0)">25.21</text>
<line x1="501.3" y1="516.0" x2="501.3" y2="519.0" stroke="#999"/>
<text x="501.3" y="531.0" text-anchor="end" fill="#666" transform="rotate(-50 501.3 531.0)">25.22</text>
<line x1="544.7" y1="516.0" x2="544.7" y2="519.0" stroke="#999"/>
<text x="544.7" y="531.0" text-anchor="end" fill="#666" transform="rotate(-50 544.7 531.0)">25.23</text>
<line x1="588.0" y1="516.0" x2="588.0" y2="519.0" stroke="#999"/>
<text x="588.0" y="531.0" text-anchor="end" fill="#666" transform="rotate(-50 588.0 531.0)">25.24</text>
<line x1="631.3" y1="516.0" x2="631.3" y2="519.0" stroke="#999"/>
<text x="631.3" y="531.0" text-anchor="end" fill="#666" transform="rotate(-50 631.3 531.0)">26.1</text>
<line x1="674.7" y1="516.0" x2="674.7" y2="519.0" stroke="#999"/>
<text x="674.7" y="531.0" text-anchor="end" fill="#666" transform="rotate(-50 674.7 531.0)">26.2</text>
<line x1="718.0" y1="516.0" x2="718.0" y2="519.0" stroke="#999"/>
<text x="718.0" y="531.0" text-anchor="end" fill="#666" transform="rotate(-50 718.0 531.0)">26.3</text>
<line x1="761.3" y1="516.0" x2="761.3" y2="519.0" stroke="#999"/>
<text x="761.3" y="531.0" text-anchor="end" fill="#666" transform="rotate(-50 761.3 531.0)">26.4</text>
<line x1="804.7" y1="516.0" x2="804.7" y2="519.0" stroke="#999"/>
<text x="804.7" y="531.0" text-anchor="end" fill="#666" transform="rotate(-50 804.7 531.0)">26.5</text>
<line x1="848.0" y1="516.0" x2="848.0" y2="519.0" stroke="#999"/>
<text x="848.0" y="531.0" text-anchor="end" fill="#666" transform="rotate(-50 848.0 531.0)">26.7</text>
<line x1="891.3" y1="516.0" x2="891.3" y2="519.0" stroke="#999"/>
<text x="891.3" y="531.0" text-anchor="end" fill="#666" transform="rotate(-50 891.3 531.0)">26.8</text>
<line x1="934.7" y1="516.0" x2="934.7" y2="519.0" stroke="#999"/>
<text x="934.7" y="531.0" text-anchor="end" fill="#666" transform="rotate(-50 934.7 531.0)">26.9</text>
<line x1="978.0" y1="516.0" x2="978.0" y2="519.0" stroke="#999"/>
<text x="978.0" y="531.0" text-anchor="end" fill="#666" transform="rotate(-50 978.0 531.0)">26.10</text>
<line x1="1021.3" y1="516.0" x2="1021.3" y2="519.0" stroke="#999"/>
<text x="1021.3" y="531.0" text-anchor="end" fill="#666" transform="rotate(-50 1021.3 531.0)">26.11</text>
<line x1="1064.7" y1="516.0" x2="1064.7" y2="519.0" stroke="#999"/>
<text x="1064.7" y="531.0" text-anchor="end" fill="#666" transform="rotate(-50 1064.7 531.0)">26.12</text>
<line x1="1108.0" y1="516.0" x2="1108.0" y2="519.0" stroke="#999"/>
<text x="1108.0" y="531.0" text-anchor="end" fill="#666" transform="rotate(-50 1108.0 531.0)">26.13</text>
<polygon points="68.0,513.0 111.3,512.8 154.7,512.8 198.0,512.8 241.3,512.9 284.7,512.9 328.0,512.9 371.3,512.9 414.7,512.9 458.0,512.8 501.3,513.0 544.7,513.1 588.0,512.9 631.3,512.9 674.7,512.9 718.0,512.9 761.3,512.8 804.7,512.8 848.0,512.4 891.3,512.6 934.7,512.7 978.0,512.5 1021.3,512.2 1064.7,512.5 1108.0,512.5 1108.0,516.0 1064.7,516.0 1021.3,516.0 978.0,516.0 934.7,516.0 891.3,516.0 848.0,516.0 804.7,516.0 761.3,516.0 718.0,516.0 674.7,516.0 631.3,516.0 588.0,516.0 544.7,516.0 501.3,516.0 458.0,516.0 414.7,516.0 371.3,516.0 328.0,516.0 284.7,516.0 241.3,516.0 198.0,516.0 154.7,516.0 111.3,516.0 68.0,516.0" fill="#c7e9c0" fill-opacity="0.9" stroke="#fff" stroke-width="0.4"><title>sema_generics — parseTranslationUnit</title></polygon>
<polygon points="68.0,307.5 111.3,303.1 154.7,269.5 198.0,287.9 241.3,299.7 284.7,302.7 328.0,307.8 371.3,306.5 414.7,301.1 458.0,297.3 501.3,301.9 544.7,296.0 588.0,296.6 631.3,296.0 674.7,295.1 718.0,291.7 761.3,277.2 804.7,282.1 848.0,196.6 891.3,234.4 934.7,231.2 978.0,201.6 1021.3,172.6 1064.7,197.5 1108.0,251.3 1108.0,512.5 1064.7,512.5 1021.3,512.2 978.0,512.5 934.7,512.7 891.3,512.6 848.0,512.4 804.7,512.8 761.3,512.8 718.0,512.9 674.7,512.9 631.3,512.9 588.0,512.9 544.7,513.1 501.3,513.0 458.0,512.8 414.7,512.9 371.3,512.9 328.0,512.9 284.7,512.9 241.3,512.9 198.0,512.8 154.7,512.8 111.3,512.8 68.0,513.0" fill="#41ab5d" fill-opacity="0.9" stroke="#fff" stroke-width="0.4"><title>sema_generics — SemanticChecking</title></polygon>
<polygon points="68.0,282.4 111.3,261.3 154.7,222.3 198.0,240.6 241.3,256.6 284.7,260.9 328.0,266.4 371.3,265.2 414.7,259.2 458.0,256.0 501.3,260.1 544.7,255.4 588.0,255.9 631.3,255.1 674.7,253.5 718.0,250.5 761.3,232.1 804.7,241.4 848.0,143.0 891.3,187.9 934.7,184.8 978.0,150.9 1021.3,120.3 1064.7,153.5 1108.0,206.9 1108.0,251.3 1064.7,197.5 1021.3,172.6 978.0,201.6 934.7,231.2 891.3,234.4 848.0,196.6 804.7,282.1 761.3,277.2 718.0,291.7 674.7,295.1 631.3,296.0 588.0,296.6 544.7,296.0 501.3,301.9 458.0,297.3 414.7,301.1 371.3,306.5 328.0,307.8 284.7,302.7 241.3,299.7 198.0,287.9 154.7,269.5 111.3,303.1 68.0,307.5" fill="#006d2c" fill-opacity="0.9" stroke="#fff" stroke-width="0.4"><title>sema_generics — generateIR</title></polygon>
<polygon points="68.0,281.7 111.3,261.3 154.7,222.3 198.0,240.6 241.3,256.5 284.7,260.9 328.0,265.3 371.3,263.2 414.7,259.2 458.0,254.8 501.3,259.4 544.7,255.4 588.0,255.8 631.3,255.0 674.7,253.5 718.0,249.9 761.3,232.1 804.7,241.2 848.0,142.4 891.3,187.9 934.7,184.7 978.0,147.9 1021.3,120.3 1064.7,153.2 1108.0,206.9 1108.0,206.9 1064.7,153.5 1021.3,120.3 978.0,150.9 934.7,184.8 891.3,187.9 848.0,143.0 804.7,241.4 761.3,232.1 718.0,250.5 674.7,253.5 631.3,255.1 588.0,255.9 544.7,255.4 501.3,260.1 458.0,256.0 414.7,259.2 371.3,265.2 328.0,266.4 284.7,260.9 241.3,256.6 198.0,240.6 154.7,222.3 111.3,261.3 68.0,282.4" fill="#74c476" fill-opacity="0.9" stroke="#fff" stroke-width="0.4"><title>sema_generics — frontEndExecute (self)</title></polygon>
<polygon points="68.0,217.2 111.3,251.1 154.7,210.6 198.0,230.1 241.3,246.5 284.7,249.7 328.0,253.8 371.3,252.8 414.7,248.3 458.0,244.5 501.3,249.1 544.7,244.9 588.0,245.9 631.3,244.7 674.7,242.9 718.0,239.5 761.3,221.2 804.7,230.9 848.0,130.7 891.3,177.6 934.7,174.4 978.0,136.9 1021.3,108.6 1064.7,142.2 1108.0,196.9 1108.0,206.9 1064.7,153.2 1021.3,120.3 978.0,147.9 934.7,184.7 891.3,187.9 848.0,142.4 804.7,241.2 761.3,232.1 718.0,249.9 674.7,253.5 631.3,255.0 588.0,255.8 544.7,255.4 501.3,259.4 458.0,254.8 414.7,259.2 371.3,263.2 328.0,265.3 284.7,260.9 241.3,256.5 198.0,240.6 154.7,222.3 111.3,261.3 68.0,281.7" fill="#e6550d" fill-opacity="0.9" stroke="#fff" stroke-width="0.4"><title>sema_generics — generateOutput (self)</title></polygon>
<polygon points="68.0,217.2 111.3,251.1 154.7,210.6 198.0,229.7 241.3,246.2 284.7,249.7 328.0,253.8 371.3,252.8 414.7,248.2 458.0,244.5 501.3,249.0 544.7,244.9 588.0,245.3 631.3,244.7 674.7,242.6 718.0,239.4 761.3,220.5 804.7,230.9 848.0,130.7 891.3,177.4 934.7,174.4 978.0,136.3 1021.3,108.6 1064.7,141.7 1108.0,196.9 1108.0,196.9 1064.7,142.2 1021.3,108.6 978.0,136.9 934.7,174.4 891.3,177.6 848.0,130.7 804.7,230.9 761.3,221.2 718.0,239.5 674.7,242.9 631.3,244.7 588.0,245.9 544.7,244.9 501.3,249.1 458.0,244.5 414.7,248.3 371.3,252.8 328.0,253.8 284.7,249.7 241.3,246.5 198.0,230.1 154.7,210.6 111.3,251.1 68.0,217.2" fill="#969696" fill-opacity="0.9" stroke="#fff" stroke-width="0.4"><title>sema_generics — compileInner (self)</title></polygon>
<text x="12" y="578" fill="#666" font-weight="600">phase buckets</text>
<rect x="12" y="586" width="12" height="12" fill="#c7e9c0"/>
<text x="28" y="596" fill="#222">parseTranslationUnit</text>
<rect x="289" y="586" width="12" height="12" fill="#41ab5d"/>
<text x="305" y="596" fill="#222">SemanticChecking</text>
<rect x="566" y="586" width="12" height="12" fill="#006d2c"/>
<text x="582" y="596" fill="#222">generateIR</text>
<rect x="843" y="586" width="12" height="12" fill="#74c476"/>
<text x="859" y="596" fill="#222">frontEndExecute (self)</text>
<rect x="12" y="604" width="12" height="12" fill="#6baed6"/>
<text x="28" y="614" fill="#222">specializeModule</text>
<rect x="289" y="604" width="12" height="12" fill="#2171b5"/>
<text x="305" y="614" fill="#222">simplifyIR</text>
<rect x="566" y="604" width="12" height="12" fill="#08306b"/>
<text x="582" y="614" fill="#222">linkIR</text>
<rect x="843" y="604" width="12" height="12" fill="#9e9ac8"/>
<text x="859" y="614" fill="#222">unrollLoopsInModule</text>
<rect x="12" y="622" width="12" height="12" fill="#807dba"/>
<text x="28" y="632" fill="#222">legalizeResourceTypes</text>
<rect x="289" y="622" width="12" height="12" fill="#6a51a3"/>
<text x="305" y="632" fill="#222">legalizeExistentialTypeLayout</text>
<rect x="566" y="622" width="12" height="12" fill="#bcbddc"/>
<text x="582" y="632" fill="#222">performMandatoryEarlyInlining</text>
<rect x="843" y="622" width="12" height="12" fill="#dadaeb"/>
<text x="859" y="632" fill="#222">performForceInlining</text>
<rect x="12" y="640" width="12" height="12" fill="#4a1486"/>
<text x="28" y="650" fill="#222">linkAndOptimizeIR (self)</text>
<rect x="289" y="640" width="12" height="12" fill="#fd8d3c"/>
<text x="305" y="650" fill="#222">emitEntryPointsSourceFromIR</text>
<rect x="566" y="640" width="12" height="12" fill="#e6550d"/>
<text x="582" y="650" fill="#222">generateOutput (self)</text>
<rect x="843" y="640" width="12" height="12" fill="#969696"/>
<text x="859" y="650" fill="#222">compileInner (self)</text>
</svg>