<svg xmlns="http://www.w3.org/2000/svg" xmlns:xlink="http://www.w3.org/1999/xlink" width="1132" height="680" viewBox="0 0 1132 680" preserveAspectRatio="xMidYMid meet" font-family="sans-serif" font-size="13">
<rect width="1132" height="680" fill="white"/>
<text x="12" y="30" font-size="20" font-weight="bold">sema_generics — full phase breakdown across releases (median ms)</text>
<text x="68" y="60" font-size="15" font-weight="600" fill="#1a1a1a">sema_generics<tspan fill="#888" font-weight="400" text-decoration="none">  1.36×</tspan></text>
<line x1="68.0" y1="516.0" x2="1108.0" y2="516.0" stroke="#eee"/>
<text x="64.0" y="519.0" text-anchor="end" fill="#999">0.0</text>
<line x1="68.0" y1="296.0" x2="1108.0" y2="296.0" stroke="#eee"/>
<text x="64.0" y="299.0" text-anchor="end" fill="#999">566</text>
<line x1="68.0" y1="76.0" x2="1108.0" y2="76.0" stroke="#eee"/>
<text x="64.0" y="79.0" text-anchor="end" fill="#999">1132</text>
<line x1="68.0" y1="76.0" x2="68.0" y2="516.0" stroke="#333"/>
<line x1="68.0" y1="516.0" x2="1108.0" y2="516.0" stroke="#333"/>
<line x1="68.0" y1="516.0" x2="68.0" y2="519.0" stroke="#999"/>
<text x="68.0" y="531.0" text-anchor="end" fill="#666" transform="rotate(-50 68.0 531.0)">25.14</text>
<line x1="120.0" y1="516.0" x2="120.0" y2="519.0" stroke="#999"/>
<text x="120.0" y="531.0" text-anchor="end" fill="#666" transform="rotate(-50 120.0 531.0)">25.15</text>
<line x1="172.0" y1="516.0" x2="172.0" y2="519.0" stroke="#999"/>
<text x="172.0" y="531.0" text-anchor="end" fill="#666" transform="rotate(-50 172.0 531.0)">25.16</text>
<line x1="224.0" y1="516.0" x2="224.0" y2="519.0" stroke="#999"/>
<text x="224.0" y="531.0" text-anchor="end" fill="#666" transform="rotate(-50 224.0 531.0)">25.17</text>
<line x1="276.0" y1="516.0" x2="276.0" y2="519.0" stroke="#999"/>
<text x="276.0" y="531.0" text-anchor="end" fill="#666" transform="rotate(-50 276.0 531.0)">25.18</text>
<line x1="328.0" y1="516.0" x2="328.0" y2="519.0" stroke="#999"/>
<text x="328.0" y="531.0" text-anchor="end" fill="#666" transform="rotate(-50 328.0 531.0)">25.19</text>
<line x1="380.0" y1="516.0" x2="380.0" y2="519.0" stroke="#999"/>
<text x="380.0" y="531.0" text-anchor="end" fill="#666" transform="rotate(-50 380.0 531.0)">25.20</text>
<line x1="432.0" y1="516.0" x2="432.0" y2="519.0" stroke="#999"/>
<text x="432.0" y="531.0" text-anchor="end" fill="#666" transform="rotate(-50 432.0 531.0)">25.21</text>
<line x1="484.0" y1="516.0" x2="484.0" y2="519.0" stroke="#999"/>
<text x="484.0" y="531.0" text-anchor="end" fill="#666" transform="rotate(-50 484.0 531.0)">25.22</text>
<line x1="536.0" y1="516.0" x2="536.0" y2="519.0" stroke="#999"/>
<text x="536.0" y="531.0" text-anchor="end" fill="#666" transform="rotate(-50 536.0 531.0)">25.23</text>
<line x1="588.0" y1="516.0" x2="588.0" y2="519.0" stroke="#999"/>
<text x="588.0" y="531.0" text-anchor="end" fill="#666" transform="rotate(-50 588.0 531.0)">25.24</text>
<line x1="640.0" y1="516.0" x2="640.0" y2="519.0" stroke="#999"/>
<text x="640.0" y="531.0" text-anchor="end" fill="#666" transform="rotate(-50 640.0 531.0)">26.1</text>
<line x1="692.0" y1="516.0" x2="692.0" y2="519.0" stroke="#999"/>
<text x="692.0" y="531.0" text-anchor="end" fill="#666" transform="rotate(-50 692.0 531.0)">26.2</text>
<line x1="744.0" y1="516.0" x2="744.0" y2="519.0" stroke="#999"/>
<text x="744.0" y="531.0" text-anchor="end" fill="#666" transform="rotate(-50 744.0 531.0)">26.3</text>
<line x1="796.0" y1="516.0" x2="796.0" y2="519.0" stroke="#999"/>
<text x="796.0" y="531.0" text-anchor="end" fill="#666" transform="rotate(-50 796.0 531.0)">26.4</text>
<line x1="848.0" y1="516.0" x2="848.0" y2="519.0" stroke="#999"/>
<text x="848.0" y="531.0" text-anchor="end" fill="#666" transform="rotate(-50 848.0 531.0)">26.5</text>
<line x1="900.0" y1="516.0" x2="900.0" y2="519.0" stroke="#999"/>
<text x="900.0" y="531.0" text-anchor="end" fill="#666" transform="rotate(-50 900.0 531.0)">26.7</text>
<line x1="952.0" y1="516.0" x2="952.0" y2="519.0" stroke="#999"/>
<text x="952.0" y="531.0" text-anchor="end" fill="#666" transform="rotate(-50 952.0 531.0)">26.8</text>
<line x1="1004.0" y1="516.0" x2="1004.0" y2="519.0" stroke="#999"/>
<text x="1004.0" y="531.0" text-anchor="end" fill="#666" transform="rotate(-50 1004.0 531.0)">26.9</text>
<line x1="1056.0" y1="516.0" x2="1056.0" y2="519.0" stroke="#999"/>
<text x="1056.0" y="531.0" text-anchor="end" fill="#666" transform="rotate(-50 1056.0 531.0)">26.10</text>
<line x1="1108.0" y1="516.0" x2="1108.0" y2="519.0" stroke="#999"/>
<text x="1108.0" y="531.0" text-anchor="end" fill="#666" transform="rotate(-50 1108.0 531.0)">26.11</text>
<polygon points="68.0,512.4 120.0,512.6 172.0,512.5 224.0,512.4 276.0,512.5 328.0,512.4 380.0,512.6 432.0,512.4 484.0,512.6 536.0,512.6 588.0,512.5 640.0,512.4 692.0,512.4 744.0,512.5 796.0,512.4 848.0,512.3 900.0,512.1 952.0,512.2 1004.0,512.3 1056.0,512.3 1108.0,512.3 1108.0,516.0 1056.0,516.0 1004.0,516.0 952.0,516.0 900.0,516.0 848.0,516.0 796.0,516.0 744.0,516.0 692.0,516.0 640.0,516.0 588.0,516.0 536.0,516.0 484.0,516.0 432.0,516.0 380.0,516.0 328.0,516.0 276.0,516.0 224.0,516.0 172.0,516.0 120.0,516.0 68.0,516.0" fill="#c7e9c0" fill-opacity="0.9" stroke="#fff" stroke-width="0.4"><title>sema_generics — parseTranslationUnit</title></polygon>
<polygon points="68.0,281.6 120.0,273.6 172.0,272.0 224.0,266.5 276.0,271.8 328.0,272.9 380.0,262.1 432.0,265.2 484.0,264.5 536.0,260.2 588.0,259.2 640.0,255.9 692.0,253.9 744.0,254.6 796.0,244.7 848.0,232.4 900.0,183.4 952.0,181.4 1004.0,177.6 1056.0,173.6 1108.0,177.4 1108.0,512.3 1056.0,512.3 1004.0,512.3 952.0,512.2 900.0,512.1 848.0,512.3 796.0,512.4 744.0,512.5 692.0,512.4 640.0,512.4 588.0,512.5 536.0,512.6 484.0,512.6 432.0,512.4 380.0,512.6 328.0,512.4 276.0,512.5 224.0,512.4 172.0,512.5 120.0,512.6 68.0,512.4" fill="#41ab5d" fill-opacity="0.9" stroke="#fff" stroke-width="0.4"><title>sema_generics — SemanticChecking</title></polygon>
<polygon points="68.0,236.5 120.0,227.9 172.0,226.5 224.0,219.4 276.0,224.4 328.0,225.9 380.0,215.1 432.0,218.2 484.0,216.5 536.0,214.1 588.0,213.0 640.0,209.5 692.0,206.9 744.0,208.3 796.0,196.5 848.0,183.1 900.0,131.9 952.0,128.8 1004.0,125.4 1056.0,121.3 1108.0,131.8 1108.0,177.4 1056.0,173.6 1004.0,177.6 952.0,181.4 900.0,183.4 848.0,232.4 796.0,244.7 744.0,254.6 692.0,253.9 640.0,255.9 588.0,259.2 536.0,260.2 484.0,264.5 432.0,265.2 380.0,262.1 328.0,272.9 276.0,271.8 224.0,266.5 172.0,272.0 120.0,273.6 68.0,281.6" fill="#006d2c" fill-opacity="0.9" stroke="#fff" stroke-width="0.4"><title>sema_generics — generateIR</title></polygon>
<polygon points="68.0,236.5 120.0,227.9 172.0,226.5 224.0,219.4 276.0,224.3 328.0,225.5 380.0,214.4 432.0,218.2 484.0,216.5 536.0,214.1 588.0,212.6 640.0,209.2 692.0,206.6 744.0,208.1 796.0,196.5 848.0,183.1 900.0,131.8 952.0,128.8 1004.0,124.9 1056.0,120.8 1108.0,131.7 1108.0,131.8 1056.0,121.3 1004.0,125.4 952.0,128.8 900.0,131.9 848.0,183.1 796.0,196.5 744.0,208.3 692.0,206.9 640.0,209.5 588.0,213.0 536.0,214.1 484.0,216.5 432.0,218.2 380.0,215.1 328.0,225.9 276.0,224.4 224.0,219.4 172.0,226.5 120.0,227.9 68.0,236.5" fill="#74c476" fill-opacity="0.9" stroke="#fff" stroke-width="0.4"><title>sema_generics — frontEndExecute (self)</title></polygon>
<polygon points="68.0,224.7 120.0,216.4 172.0,215.3 224.0,206.8 276.0,211.0 328.0,213.5 380.0,202.5 432.0,205.9 484.0,204.4 536.0,201.8 588.0,200.4 640.0,196.8 692.0,194.8 744.0,195.9 796.0,183.8 848.0,170.1 900.0,119.5 952.0,116.5 1004.0,112.7 1056.0,108.6 1108.0,120.3 1108.0,131.7 1056.0,120.8 1004.0,124.9 952.0,128.8 900.0,131.8 848.0,183.1 796.0,196.5 744.0,208.1 692.0,206.6 640.0,209.2 588.0,212.6 536.0,214.1 484.0,216.5 432.0,218.2 380.0,214.4 328.0,225.5 276.0,224.3 224.0,219.4 172.0,226.5 120.0,227.9 68.0,236.5" fill="#e6550d" fill-opacity="0.9" stroke="#fff" stroke-width="0.4"><title>sema_generics — generateOutput (self)</title></polygon>
<polygon points="68.0,224.7 120.0,216.4 172.0,215.3 224.0,206.8 276.0,210.8 328.0,213.3 380.0,202.5 432.0,205.9 484.0,204.4 536.0,201.8 588.0,200.4 640.0,196.7 692.0,194.5 744.0,195.9 796.0,183.8 848.0,170.1 900.0,119.3 952.0,116.5 1004.0,112.7 1056.0,108.6 1108.0,120.3 1108.0,120.3 1056.0,108.6 1004.0,112.7 952.0,116.5 900.0,119.5 848.0,170.1 796.0,183.8 744.0,195.9 692.0,194.8 640.0,196.8 588.0,200.4 536.0,201.8 484.0,204.4 432.0,205.9 380.0,202.5 328.0,213.5 276.0,211.0 224.0,206.8 172.0,215.3 120.0,216.4 68.0,224.7" fill="#969696" fill-opacity="0.9" stroke="#fff" stroke-width="0.4"><title>sema_generics — compileInner (self)</title></polygon>
<text x="12" y="578" fill="#666" font-weight="600">phase buckets</text>
<rect x="12" y="586" width="12" height="12" fill="#c7e9c0"/>
<text x="28" y="596" fill="#222">parseTranslationUnit</text>
<rect x="289" y="586" width="12" height="12" fill="#41ab5d"/>
<text x="305" y="596" fill="#222">SemanticChecking</text>
<rect x="566" y="586" width="12" height="12" fill="#006d2c"/>
<text x="582" y="596" fill="#222">generateIR</text>
<rect x="843" y="586" width="12" height="12" fill="#74c476"/>
<text x="859" y="596" fill="#222">frontEndExecute (self)</text>
<rect x="12" y="604" width="12" height="12" fill="#6baed6"/>
<text x="28" y="614" fill="#222">specializeModule</text>
<rect x="289" y="604" width="12" height="12" fill="#2171b5"/>
<text x="305" y="614" fill="#222">simplifyIR</text>
<rect x="566" y="604" width="12" height="12" fill="#08306b"/>
<text x="582" y="614" fill="#222">linkIR</text>
<rect x="843" y="604" width="12" height="12" fill="#9e9ac8"/>
<text x="859" y="614" fill="#222">unrollLoopsInModule</text>
<rect x="12" y="622" width="12" height="12" fill="#807dba"/>
<text x="28" y="632" fill="#222">legalizeResourceTypes</text>
<rect x="289" y="622" width="12" height="12" fill="#6a51a3"/>
<text x="305" y="632" fill="#222">legalizeExistentialTypeLayout</text>
<rect x="566" y="622" width="12" height="12" fill="#bcbddc"/>
<text x="582" y="632" fill="#222">performMandatoryEarlyInlining</text>
<rect x="843" y="622" width="12" height="12" fill="#dadaeb"/>
<text x="859" y="632" fill="#222">performForceInlining</text>
<rect x="12" y="640" width="12" height="12" fill="#4a1486"/>
<text x="28" y="650" fill="#222">linkAndOptimizeIR (self)</text>
<rect x="289" y="640" width="12" height="12" fill="#fd8d3c"/>
<text x="305" y="650" fill="#222">emitEntryPointsSourceFromIR</text>
<rect x="566" y="640" width="12" height="12" fill="#e6550d"/>
<text x="582" y="650" fill="#222">generateOutput (self)</text>
<rect x="843" y="640" width="12" height="12" fill="#969696"/>
<text x="859" y="650" fill="#222">compileInner (self)</text>
</svg>