<svg xmlns="http://www.w3.org/2000/svg" xmlns:xlink="http://www.w3.org/1999/xlink" width="1132" height="680" viewBox="0 0 1132 680" preserveAspectRatio="xMidYMid meet" font-family="sans-serif" font-size="13">
<rect width="1132" height="680" fill="white"/>
<text x="12" y="30" font-size="20" font-weight="bold">sema_generics — Daily tip-of-tree (last 30 days) (median ms)</text>
<text x="68" y="60" font-size="15" font-weight="600" fill="#1a1a1a">sema_generics<tspan fill="#888" font-weight="400" text-decoration="none">  0.84×</tspan></text>
<line x1="68.0" y1="516.0" x2="1108.0" y2="516.0" stroke="#eee"/>
<text x="64.0" y="519.0" text-anchor="end" fill="#999">0.0</text>
<line x1="68.0" y1="296.0" x2="1108.0" y2="296.0" stroke="#eee"/>
<text x="64.0" y="299.0" text-anchor="end" fill="#999">571</text>
<line x1="68.0" y1="76.0" x2="1108.0" y2="76.0" stroke="#eee"/>
<text x="64.0" y="79.0" text-anchor="end" fill="#999">1142</text>
<line x1="68.0" y1="76.0" x2="68.0" y2="516.0" stroke="#333"/>
<line x1="68.0" y1="516.0" x2="1108.0" y2="516.0" stroke="#333"/>
<line x1="68.0" y1="516.0" x2="68.0" y2="519.0" stroke="#999"/>
<text x="68.0" y="531.0" text-anchor="end" fill="#e8731a" transform="rotate(-50 68.0 531.0)">06-25</text>
<line x1="148.0" y1="516.0" x2="148.0" y2="519.0" stroke="#999"/>
<text x="148.0" y="531.0" text-anchor="end" fill="#e8731a" transform="rotate(-50 148.0 531.0)">06-26</text>
<line x1="228.0" y1="516.0" x2="228.0" y2="519.0" stroke="#999"/>
<text x="228.0" y="531.0" text-anchor="end" fill="#e8731a" transform="rotate(-50 228.0 531.0)">06-28</text>
<line x1="308.0" y1="516.0" x2="308.0" y2="519.0" stroke="#999"/>
<text x="308.0" y="531.0" text-anchor="end" fill="#e8731a" transform="rotate(-50 308.0 531.0)">07-01</text>
<line x1="388.0" y1="516.0" x2="388.0" y2="519.0" stroke="#999"/>
<text x="388.0" y="531.0" text-anchor="end" fill="#e8731a" transform="rotate(-50 388.0 531.0)">07-02</text>
<line x1="468.0" y1="516.0" x2="468.0" y2="519.0" stroke="#999"/>
<text x="468.0" y="531.0" text-anchor="end" fill="#e8731a" transform="rotate(-50 468.0 531.0)">07-03</text>
<line x1="548.0" y1="516.0" x2="548.0" y2="519.0" stroke="#999"/>
<text x="548.0" y="531.0" text-anchor="end" fill="#e8731a" transform="rotate(-50 548.0 531.0)">07-06</text>
<line x1="628.0" y1="516.0" x2="628.0" y2="519.0" stroke="#999"/>
<text x="628.0" y="531.0" text-anchor="end" fill="#e8731a" transform="rotate(-50 628.0 531.0)">07-07</text>
<line x1="708.0" y1="516.0" x2="708.0" y2="519.0" stroke="#999"/>
<text x="708.0" y="531.0" text-anchor="end" fill="#e8731a" transform="rotate(-50 708.0 531.0)">07-08</text>
<line x1="788.0" y1="516.0" x2="788.0" y2="519.0" stroke="#999"/>
<text x="788.0" y="531.0" text-anchor="end" fill="#e8731a" transform="rotate(-50 788.0 531.0)">07-09</text>
<line x1="868.0" y1="516.0" x2="868.0" y2="519.0" stroke="#999"/>
<text x="868.0" y="531.0" text-anchor="end" fill="#e8731a" transform="rotate(-50 868.0 531.0)">07-10</text>
<line x1="948.0" y1="516.0" x2="948.0" y2="519.0" stroke="#999"/>
<text x="948.0" y="531.0" text-anchor="end" fill="#e8731a" transform="rotate(-50 948.0 531.0)">07-11</text>
<line x1="1028.0" y1="516.0" x2="1028.0" y2="519.0" stroke="#999"/>
<text x="1028.0" y="531.0" text-anchor="end" fill="#e8731a" transform="rotate(-50 1028.0 531.0)">07-14</text>
<line x1="1108.0" y1="516.0" x2="1108.0" y2="519.0" stroke="#999"/>
<text x="1108.0" y="531.0" text-anchor="end" fill="#e8731a" transform="rotate(-50 1108.0 531.0)">07-15</text>
<polygon points="68.0,511.8 148.0,511.8 228.0,511.8 308.0,511.8 388.0,511.7 468.0,511.8 548.0,511.7 628.0,512.2 708.0,512.3 788.0,512.2 868.0,512.2 948.0,512.2 1028.0,512.2 1108.0,512.4 1108.0,516.0 1028.0,516.0 948.0,516.0 868.0,516.0 788.0,516.0 708.0,516.0 628.0,516.0 548.0,516.0 468.0,516.0 388.0,516.0 308.0,516.0 228.0,516.0 148.0,516.0 68.0,516.0" fill="#c7e9c0" fill-opacity="0.9" stroke="#fff" stroke-width="0.4"><title>sema_generics — parseTranslationUnit</title></polygon>
<polygon points="68.0,179.7 148.0,174.2 228.0,178.3 308.0,180.5 388.0,173.4 468.0,177.1 548.0,177.5 628.0,240.8 708.0,242.1 788.0,240.3 868.0,242.3 948.0,223.4 1028.0,230.8 1108.0,247.0 1108.0,512.4 1028.0,512.2 948.0,512.2 868.0,512.2 788.0,512.2 708.0,512.3 628.0,512.2 548.0,511.7 468.0,511.8 388.0,511.7 308.0,511.8 228.0,511.8 148.0,511.8 68.0,511.8" fill="#41ab5d" fill-opacity="0.9" stroke="#fff" stroke-width="0.4"><title>sema_generics — SemanticChecking</title></polygon>
<polygon points="68.0,131.2 148.0,125.5 228.0,130.4 308.0,131.2 388.0,123.7 468.0,128.8 548.0,129.0 628.0,192.6 708.0,193.6 788.0,191.5 868.0,192.8 948.0,174.4 1028.0,181.4 1108.0,200.2 1108.0,247.0 1028.0,230.8 948.0,223.4 868.0,242.3 788.0,240.3 708.0,242.1 628.0,240.8 548.0,177.5 468.0,177.1 388.0,173.4 308.0,180.5 228.0,178.3 148.0,174.2 68.0,179.7" fill="#006d2c" fill-opacity="0.9" stroke="#fff" stroke-width="0.4"><title>sema_generics — generateIR</title></polygon>
<polygon points="68.0,131.2 148.0,125.0 228.0,130.4 308.0,130.6 388.0,123.6 468.0,128.6 548.0,129.0 628.0,192.5 708.0,192.8 788.0,191.4 868.0,192.8 948.0,173.6 1028.0,181.4 1108.0,200.2 1108.0,200.2 1028.0,181.4 948.0,174.4 868.0,192.8 788.0,191.5 708.0,193.6 628.0,192.6 548.0,129.0 468.0,128.8 388.0,123.7 308.0,131.2 228.0,130.4 148.0,125.5 68.0,131.2" fill="#74c476" fill-opacity="0.9" stroke="#fff" stroke-width="0.4"><title>sema_generics — frontEndExecute (self)</title></polygon>
<polygon points="68.0,117.9 148.0,111.3 228.0,116.3 308.0,117.1 388.0,108.8 468.0,114.7 548.0,115.7 628.0,178.9 708.0,178.7 788.0,178.2 868.0,179.7 948.0,158.0 1028.0,166.2 1108.0,182.6 1108.0,200.2 1028.0,181.4 948.0,173.6 868.0,192.8 788.0,191.4 708.0,192.8 628.0,192.5 548.0,129.0 468.0,128.6 388.0,123.6 308.0,130.6 228.0,130.4 148.0,125.0 68.0,131.2" fill="#e6550d" fill-opacity="0.9" stroke="#fff" stroke-width="0.4"><title>sema_generics — generateOutput (self)</title></polygon>
<polygon points="68.0,117.9 148.0,111.3 228.0,116.3 308.0,116.9 388.0,108.6 468.0,114.7 548.0,115.7 628.0,178.9 708.0,178.7 788.0,178.1 868.0,179.7 948.0,158.0 1028.0,166.2 1108.0,182.6 1108.0,182.6 1028.0,166.2 948.0,158.0 868.0,179.7 788.0,178.2 708.0,178.7 628.0,178.9 548.0,115.7 468.0,114.7 388.0,108.8 308.0,117.1 228.0,116.3 148.0,111.3 68.0,117.9" fill="#969696" fill-opacity="0.9" stroke="#fff" stroke-width="0.4"><title>sema_generics — compileInner (self)</title></polygon>
<text x="12" y="578" fill="#666" font-weight="600">phase buckets</text>
<rect x="12" y="586" width="12" height="12" fill="#c7e9c0"/>
<text x="28" y="596" fill="#222">parseTranslationUnit</text>
<rect x="289" y="586" width="12" height="12" fill="#41ab5d"/>
<text x="305" y="596" fill="#222">SemanticChecking</text>
<rect x="566" y="586" width="12" height="12" fill="#006d2c"/>
<text x="582" y="596" fill="#222">generateIR</text>
<rect x="843" y="586" width="12" height="12" fill="#74c476"/>
<text x="859" y="596" fill="#222">frontEndExecute (self)</text>
<rect x="12" y="604" width="12" height="12" fill="#6baed6"/>
<text x="28" y="614" fill="#222">specializeModule</text>
<rect x="289" y="604" width="12" height="12" fill="#2171b5"/>
<text x="305" y="614" fill="#222">simplifyIR</text>
<rect x="566" y="604" width="12" height="12" fill="#08306b"/>
<text x="582" y="614" fill="#222">linkIR</text>
<rect x="843" y="604" width="12" height="12" fill="#9e9ac8"/>
<text x="859" y="614" fill="#222">unrollLoopsInModule</text>
<rect x="12" y="622" width="12" height="12" fill="#807dba"/>
<text x="28" y="632" fill="#222">legalizeResourceTypes</text>
<rect x="289" y="622" width="12" height="12" fill="#6a51a3"/>
<text x="305" y="632" fill="#222">legalizeExistentialTypeLayout</text>
<rect x="566" y="622" width="12" height="12" fill="#bcbddc"/>
<text x="582" y="632" fill="#222">performMandatoryEarlyInlining</text>
<rect x="843" y="622" width="12" height="12" fill="#dadaeb"/>
<text x="859" y="632" fill="#222">performForceInlining</text>
<rect x="12" y="640" width="12" height="12" fill="#4a1486"/>
<text x="28" y="650" fill="#222">linkAndOptimizeIR (self)</text>
<rect x="289" y="640" width="12" height="12" fill="#fd8d3c"/>
<text x="305" y="650" fill="#222">emitEntryPointsSourceFromIR</text>
<rect x="566" y="640" width="12" height="12" fill="#e6550d"/>
<text x="582" y="650" fill="#222">generateOutput (self)</text>
<rect x="843" y="640" width="12" height="12" fill="#969696"/>
<text x="859" y="650" fill="#222">compileInner (self)</text>
</svg>