<svg xmlns="http://www.w3.org/2000/svg" xmlns:xlink="http://www.w3.org/1999/xlink" width="1132" height="680" viewBox="0 0 1132 680" preserveAspectRatio="xMidYMid meet" font-family="sans-serif" font-size="13">
<rect width="1132" height="680" fill="white"/>
<text x="12" y="30" font-size="20" font-weight="bold">sema_generics — full phase breakdown across releases (median ms)</text>
<text x="68" y="60" font-size="15" font-weight="600" fill="#1a1a1a">sema_generics<tspan fill="#888" font-weight="400" text-decoration="none">  1.34×</tspan></text>
<line x1="68.0" y1="516.0" x2="1108.0" y2="516.0" stroke="#eee"/>
<text x="64.0" y="519.0" text-anchor="end" fill="#999">0.0</text>
<line x1="68.0" y1="296.0" x2="1108.0" y2="296.0" stroke="#eee"/>
<text x="64.0" y="299.0" text-anchor="end" fill="#999">578</text>
<line x1="68.0" y1="76.0" x2="1108.0" y2="76.0" stroke="#eee"/>
<text x="64.0" y="79.0" text-anchor="end" fill="#999">1156</text>
<line x1="68.0" y1="76.0" x2="68.0" y2="516.0" stroke="#333"/>
<line x1="68.0" y1="516.0" x2="1108.0" y2="516.0" stroke="#333"/>
<line x1="839.0" y1="76.0" x2="839.0" y2="516.0" stroke="#e8731a" stroke-width="1.2" stroke-dasharray="4 3"/>
<text x="842.0" y="87.0" fill="#e8731a" font-size="11">daily →</text>
<line x1="68.0" y1="516.0" x2="68.0" y2="519.0" stroke="#999"/>
<text x="68.0" y="531.0" text-anchor="end" fill="#666" transform="rotate(-50 68.0 531.0)">25.14</text>
<line x1="103.9" y1="516.0" x2="103.9" y2="519.0" stroke="#999"/>
<text x="103.9" y="531.0" text-anchor="end" fill="#666" transform="rotate(-50 103.9 531.0)">25.15</text>
<line x1="139.7" y1="516.0" x2="139.7" y2="519.0" stroke="#999"/>
<text x="139.7" y="531.0" text-anchor="end" fill="#666" transform="rotate(-50 139.7 531.0)">25.16</text>
<line x1="175.6" y1="516.0" x2="175.6" y2="519.0" stroke="#999"/>
<text x="175.6" y="531.0" text-anchor="end" fill="#666" transform="rotate(-50 175.6 531.0)">25.17</text>
<line x1="211.4" y1="516.0" x2="211.4" y2="519.0" stroke="#999"/>
<text x="211.4" y="531.0" text-anchor="end" fill="#666" transform="rotate(-50 211.4 531.0)">25.18</text>
<line x1="247.3" y1="516.0" x2="247.3" y2="519.0" stroke="#999"/>
<text x="247.3" y="531.0" text-anchor="end" fill="#666" transform="rotate(-50 247.3 531.0)">25.19</text>
<line x1="283.2" y1="516.0" x2="283.2" y2="519.0" stroke="#999"/>
<text x="283.2" y="531.0" text-anchor="end" fill="#666" transform="rotate(-50 283.2 531.0)">25.20</text>
<line x1="319.0" y1="516.0" x2="319.0" y2="519.0" stroke="#999"/>
<text x="319.0" y="531.0" text-anchor="end" fill="#666" transform="rotate(-50 319.0 531.0)">25.21</text>
<line x1="354.9" y1="516.0" x2="354.9" y2="519.0" stroke="#999"/>
<text x="354.9" y="531.0" text-anchor="end" fill="#666" transform="rotate(-50 354.9 531.0)">25.22</text>
<line x1="390.8" y1="516.0" x2="390.8" y2="519.0" stroke="#999"/>
<text x="390.8" y="531.0" text-anchor="end" fill="#666" transform="rotate(-50 390.8 531.0)">25.23</text>
<line x1="426.6" y1="516.0" x2="426.6" y2="519.0" stroke="#999"/>
<text x="426.6" y="531.0" text-anchor="end" fill="#666" transform="rotate(-50 426.6 531.0)">25.24</text>
<line x1="462.5" y1="516.0" x2="462.5" y2="519.0" stroke="#999"/>
<text x="462.5" y="531.0" text-anchor="end" fill="#666" transform="rotate(-50 462.5 531.0)">26.1</text>
<line x1="498.3" y1="516.0" x2="498.3" y2="519.0" stroke="#999"/>
<text x="498.3" y="531.0" text-anchor="end" fill="#666" transform="rotate(-50 498.3 531.0)">26.2</text>
<line x1="534.2" y1="516.0" x2="534.2" y2="519.0" stroke="#999"/>
<text x="534.2" y="531.0" text-anchor="end" fill="#666" transform="rotate(-50 534.2 531.0)">26.3</text>
<line x1="570.1" y1="516.0" x2="570.1" y2="519.0" stroke="#999"/>
<text x="570.1" y="531.0" text-anchor="end" fill="#666" transform="rotate(-50 570.1 531.0)">26.4</text>
<line x1="605.9" y1="516.0" x2="605.9" y2="519.0" stroke="#999"/>
<text x="605.9" y="531.0" text-anchor="end" fill="#666" transform="rotate(-50 605.9 531.0)">26.5</text>
<line x1="641.8" y1="516.0" x2="641.8" y2="519.0" stroke="#999"/>
<text x="641.8" y="531.0" text-anchor="end" fill="#666" transform="rotate(-50 641.8 531.0)">26.7</text>
<line x1="677.7" y1="516.0" x2="677.7" y2="519.0" stroke="#999"/>
<text x="677.7" y="531.0" text-anchor="end" fill="#666" transform="rotate(-50 677.7 531.0)">26.8</text>
<line x1="713.5" y1="516.0" x2="713.5" y2="519.0" stroke="#999"/>
<text x="713.5" y="531.0" text-anchor="end" fill="#666" transform="rotate(-50 713.5 531.0)">26.9</text>
<line x1="749.4" y1="516.0" x2="749.4" y2="519.0" stroke="#999"/>
<text x="749.4" y="531.0" text-anchor="end" fill="#666" transform="rotate(-50 749.4 531.0)">26.10</text>
<line x1="785.2" y1="516.0" x2="785.2" y2="519.0" stroke="#999"/>
<text x="785.2" y="531.0" text-anchor="end" fill="#666" transform="rotate(-50 785.2 531.0)">26.11</text>
<line x1="821.1" y1="516.0" x2="821.1" y2="519.0" stroke="#999"/>
<text x="821.1" y="531.0" text-anchor="end" fill="#666" transform="rotate(-50 821.1 531.0)">26.12</text>
<line x1="857.0" y1="516.0" x2="857.0" y2="519.0" stroke="#999"/>
<text x="857.0" y="531.0" text-anchor="end" fill="#e8731a" transform="rotate(-50 857.0 531.0)">06-25</text>
<line x1="892.8" y1="516.0" x2="892.8" y2="519.0" stroke="#999"/>
<text x="892.8" y="531.0" text-anchor="end" fill="#e8731a" transform="rotate(-50 892.8 531.0)">06-26</text>
<line x1="928.7" y1="516.0" x2="928.7" y2="519.0" stroke="#999"/>
<text x="928.7" y="531.0" text-anchor="end" fill="#e8731a" transform="rotate(-50 928.7 531.0)">06-28</text>
<line x1="964.6" y1="516.0" x2="964.6" y2="519.0" stroke="#999"/>
<text x="964.6" y="531.0" text-anchor="end" fill="#e8731a" transform="rotate(-50 964.6 531.0)">07-01</text>
<line x1="1000.4" y1="516.0" x2="1000.4" y2="519.0" stroke="#999"/>
<text x="1000.4" y="531.0" text-anchor="end" fill="#e8731a" transform="rotate(-50 1000.4 531.0)">07-02</text>
<line x1="1036.3" y1="516.0" x2="1036.3" y2="519.0" stroke="#999"/>
<text x="1036.3" y="531.0" text-anchor="end" fill="#e8731a" transform="rotate(-50 1036.3 531.0)">07-03</text>
<line x1="1072.1" y1="516.0" x2="1072.1" y2="519.0" stroke="#999"/>
<text x="1072.1" y="531.0" text-anchor="end" fill="#e8731a" transform="rotate(-50 1072.1 531.0)">07-03</text>
<line x1="1108.0" y1="516.0" x2="1108.0" y2="519.0" stroke="#999"/>
<text x="1108.0" y="531.0" text-anchor="end" fill="#e8731a" transform="rotate(-50 1108.0 531.0)">07-03</text>
<polygon points="68.0,512.5 103.9,512.6 139.7,512.6 175.6,512.4 211.4,512.4 247.3,512.4 283.2,512.2 319.0,512.3 354.9,512.5 390.8,512.5 426.6,512.4 462.5,512.6 498.3,512.5 534.2,512.5 570.1,512.6 605.9,512.5 641.8,512.3 677.7,512.4 713.5,512.3 749.4,512.4 785.2,512.4 821.1,512.3 857.0,512.0 892.8,512.0 928.7,511.9 964.6,512.0 1000.4,511.9 1036.3,512.0 1072.1,511.9 1108.0,512.0 1108.0,516.0 1072.1,516.0 1036.3,516.0 1000.4,516.0 964.6,516.0 928.7,516.0 892.8,516.0 857.0,516.0 821.1,516.0 785.2,516.0 749.4,516.0 713.5,516.0 677.7,516.0 641.8,516.0 605.9,516.0 570.1,516.0 534.2,516.0 498.3,516.0 462.5,516.0 426.6,516.0 390.8,516.0 354.9,516.0 319.0,516.0 283.2,516.0 247.3,516.0 211.4,516.0 175.6,516.0 139.7,516.0 103.9,516.0 68.0,516.0" fill="#c7e9c0" fill-opacity="0.9" stroke="#fff" stroke-width="0.4"><title>sema_generics — parseTranslationUnit</title></polygon>
<polygon points="68.0,285.2 103.9,282.2 139.7,282.4 175.6,268.5 211.4,259.2 247.3,266.9 283.2,242.1 319.0,249.6 354.9,253.3 390.8,252.1 426.6,266.3 462.5,260.9 498.3,261.2 534.2,267.7 570.1,263.0 605.9,249.0 641.8,188.5 677.7,190.9 713.5,191.2 749.4,182.8 785.2,186.4 821.1,175.5 857.0,179.7 892.8,178.8 928.7,180.9 964.6,189.4 1000.4,179.0 1036.3,186.4 1072.1,172.1 1108.0,190.1 1108.0,512.0 1072.1,511.9 1036.3,512.0 1000.4,511.9 964.6,512.0 928.7,511.9 892.8,512.0 857.0,512.0 821.1,512.3 785.2,512.4 749.4,512.4 713.5,512.3 677.7,512.4 641.8,512.3 605.9,512.5 570.1,512.6 534.2,512.5 498.3,512.5 462.5,512.6 426.6,512.4 390.8,512.5 354.9,512.5 319.0,512.3 283.2,512.2 247.3,512.4 211.4,512.4 175.6,512.4 139.7,512.6 103.9,512.6 68.0,512.5" fill="#41ab5d" fill-opacity="0.9" stroke="#fff" stroke-width="0.4"><title>sema_generics — SemanticChecking</title></polygon>
<polygon points="68.0,239.1 103.9,236.4 139.7,237.0 175.6,216.8 211.4,203.4 247.3,215.6 283.2,186.6 319.0,197.9 354.9,203.3 390.8,200.3 426.6,217.4 462.5,214.6 498.3,214.4 534.2,221.6 570.1,216.4 605.9,202.8 641.8,136.4 677.7,137.9 713.5,137.5 749.4,129.2 785.2,141.9 821.1,130.0 857.0,132.5 892.8,131.2 928.7,132.6 964.6,141.6 1000.4,130.5 1036.3,137.3 1072.1,122.8 1108.0,142.2 1108.0,190.1 1072.1,172.1 1036.3,186.4 1000.4,179.0 964.6,189.4 928.7,180.9 892.8,178.8 857.0,179.7 821.1,175.5 785.2,186.4 749.4,182.8 713.5,191.2 677.7,190.9 641.8,188.5 605.9,249.0 570.1,263.0 534.2,267.7 498.3,261.2 462.5,260.9 426.6,266.3 390.8,252.1 354.9,253.3 319.0,249.6 283.2,242.1 247.3,266.9 211.4,259.2 175.6,268.5 139.7,282.4 103.9,282.2 68.0,285.2" fill="#006d2c" fill-opacity="0.9" stroke="#fff" stroke-width="0.4"><title>sema_generics — generateIR</title></polygon>
<polygon points="68.0,239.1 103.9,236.4 139.7,236.8 175.6,216.4 211.4,203.4 247.3,214.8 283.2,186.6 319.0,197.6 354.9,203.3 390.8,200.3 426.6,217.4 462.5,213.0 498.3,214.4 534.2,221.6 570.1,216.4 605.9,202.8 641.8,136.4 677.7,137.5 713.5,137.4 749.4,127.1 785.2,140.4 821.1,129.9 857.0,132.5 892.8,131.2 928.7,132.6 964.6,141.6 1000.4,129.2 1036.3,137.3 1072.1,122.8 1108.0,141.9 1108.0,142.2 1072.1,122.8 1036.3,137.3 1000.4,130.5 964.6,141.6 928.7,132.6 892.8,131.2 857.0,132.5 821.1,130.0 785.2,141.9 749.4,129.2 713.5,137.5 677.7,137.9 641.8,136.4 605.9,202.8 570.1,216.4 534.2,221.6 498.3,214.4 462.5,214.6 426.6,217.4 390.8,200.3 354.9,203.3 319.0,197.9 283.2,186.6 247.3,215.6 211.4,203.4 175.6,216.8 139.7,237.0 103.9,236.4 68.0,239.1" fill="#74c476" fill-opacity="0.9" stroke="#fff" stroke-width="0.4"><title>sema_generics — frontEndExecute (self)</title></polygon>
<polygon points="68.0,228.2 103.9,225.5 139.7,226.1 175.6,203.4 211.4,189.1 247.3,202.4 283.2,172.7 319.0,185.1 354.9,191.2 390.8,187.9 426.6,205.7 462.5,201.6 498.3,202.9 534.2,210.2 570.1,205.0 605.9,191.0 641.8,124.7 677.7,125.7 713.5,125.5 749.4,115.2 785.2,129.6 821.1,118.8 857.0,119.1 892.8,117.5 928.7,118.2 964.6,128.8 1000.4,115.5 1036.3,124.3 1072.1,109.2 1108.0,128.8 1108.0,141.9 1072.1,122.8 1036.3,137.3 1000.4,129.2 964.6,141.6 928.7,132.6 892.8,131.2 857.0,132.5 821.1,129.9 785.2,140.4 749.4,127.1 713.5,137.4 677.7,137.5 641.8,136.4 605.9,202.8 570.1,216.4 534.2,221.6 498.3,214.4 462.5,213.0 426.6,217.4 390.8,200.3 354.9,203.3 319.0,197.6 283.2,186.6 247.3,214.8 211.4,203.4 175.6,216.4 139.7,236.8 103.9,236.4 68.0,239.1" fill="#e6550d" fill-opacity="0.9" stroke="#fff" stroke-width="0.4"><title>sema_generics — generateOutput (self)</title></polygon>
<polygon points="68.0,227.9 103.9,225.4 139.7,225.3 175.6,203.2 211.4,189.1 247.3,202.4 283.2,172.2 319.0,185.1 354.9,191.2 390.8,187.9 426.6,204.7 462.5,201.6 498.3,202.9 534.2,208.7 570.1,205.0 605.9,191.0 641.8,124.7 677.7,125.7 713.5,125.5 749.4,115.0 785.2,129.6 821.1,118.8 857.0,119.0 892.8,117.5 928.7,118.2 964.6,128.5 1000.4,115.5 1036.3,123.8 1072.1,108.6 1108.0,128.8 1108.0,128.8 1072.1,109.2 1036.3,124.3 1000.4,115.5 964.6,128.8 928.7,118.2 892.8,117.5 857.0,119.1 821.1,118.8 785.2,129.6 749.4,115.2 713.5,125.5 677.7,125.7 641.8,124.7 605.9,191.0 570.1,205.0 534.2,210.2 498.3,202.9 462.5,201.6 426.6,205.7 390.8,187.9 354.9,191.2 319.0,185.1 283.2,172.7 247.3,202.4 211.4,189.1 175.6,203.4 139.7,226.1 103.9,225.5 68.0,228.2" fill="#969696" fill-opacity="0.9" stroke="#fff" stroke-width="0.4"><title>sema_generics — compileInner (self)</title></polygon>
<text x="12" y="578" fill="#666" font-weight="600">phase buckets</text>
<rect x="12" y="586" width="12" height="12" fill="#c7e9c0"/>
<text x="28" y="596" fill="#222">parseTranslationUnit</text>
<rect x="289" y="586" width="12" height="12" fill="#41ab5d"/>
<text x="305" y="596" fill="#222">SemanticChecking</text>
<rect x="566" y="586" width="12" height="12" fill="#006d2c"/>
<text x="582" y="596" fill="#222">generateIR</text>
<rect x="843" y="586" width="12" height="12" fill="#74c476"/>
<text x="859" y="596" fill="#222">frontEndExecute (self)</text>
<rect x="12" y="604" width="12" height="12" fill="#6baed6"/>
<text x="28" y="614" fill="#222">specializeModule</text>
<rect x="289" y="604" width="12" height="12" fill="#2171b5"/>
<text x="305" y="614" fill="#222">simplifyIR</text>
<rect x="566" y="604" width="12" height="12" fill="#08306b"/>
<text x="582" y="614" fill="#222">linkIR</text>
<rect x="843" y="604" width="12" height="12" fill="#9e9ac8"/>
<text x="859" y="614" fill="#222">unrollLoopsInModule</text>
<rect x="12" y="622" width="12" height="12" fill="#807dba"/>
<text x="28" y="632" fill="#222">legalizeResourceTypes</text>
<rect x="289" y="622" width="12" height="12" fill="#6a51a3"/>
<text x="305" y="632" fill="#222">legalizeExistentialTypeLayout</text>
<rect x="566" y="622" width="12" height="12" fill="#bcbddc"/>
<text x="582" y="632" fill="#222">performMandatoryEarlyInlining</text>
<rect x="843" y="622" width="12" height="12" fill="#dadaeb"/>
<text x="859" y="632" fill="#222">performForceInlining</text>
<rect x="12" y="640" width="12" height="12" fill="#4a1486"/>
<text x="28" y="650" fill="#222">linkAndOptimizeIR (self)</text>
<rect x="289" y="640" width="12" height="12" fill="#fd8d3c"/>
<text x="305" y="650" fill="#222">emitEntryPointsSourceFromIR</text>
<rect x="566" y="640" width="12" height="12" fill="#e6550d"/>
<text x="582" y="650" fill="#222">generateOutput (self)</text>
<rect x="843" y="640" width="12" height="12" fill="#969696"/>
<text x="859" y="650" fill="#222">compileInner (self)</text>
</svg>