<svg xmlns="http://www.w3.org/2000/svg" xmlns:xlink="http://www.w3.org/1999/xlink" width="1132" height="680" viewBox="0 0 1132 680" preserveAspectRatio="xMidYMid meet" font-family="sans-serif" font-size="13">
<rect width="1132" height="680" fill="white"/>
<text x="12" y="30" font-size="20" font-weight="bold">sema_generics — full phase breakdown across releases (median ms)</text>
<text x="68" y="60" font-size="15" font-weight="600" fill="#1a1a1a">sema_generics<tspan fill="#888" font-weight="400" text-decoration="none">  1.39×</tspan></text>
<line x1="68.0" y1="516.0" x2="1108.0" y2="516.0" stroke="#eee"/>
<text x="64.0" y="519.0" text-anchor="end" fill="#999">0.0</text>
<line x1="68.0" y1="296.0" x2="1108.0" y2="296.0" stroke="#eee"/>
<text x="64.0" y="299.0" text-anchor="end" fill="#999">575</text>
<line x1="68.0" y1="76.0" x2="1108.0" y2="76.0" stroke="#eee"/>
<text x="64.0" y="79.0" text-anchor="end" fill="#999">1149</text>
<line x1="68.0" y1="76.0" x2="68.0" y2="516.0" stroke="#333"/>
<line x1="68.0" y1="516.0" x2="1108.0" y2="516.0" stroke="#333"/>
<line x1="789.3" y1="76.0" x2="789.3" y2="516.0" stroke="#e8731a" stroke-width="1.2" stroke-dasharray="4 3"/>
<text x="792.3" y="87.0" fill="#e8731a" font-size="11">daily →</text>
<line x1="68.0" y1="516.0" x2="68.0" y2="519.0" stroke="#999"/>
<text x="68.0" y="531.0" text-anchor="end" fill="#666" transform="rotate(-50 68.0 531.0)">25.14</text>
<line x1="101.5" y1="516.0" x2="101.5" y2="519.0" stroke="#999"/>
<text x="101.5" y="531.0" text-anchor="end" fill="#666" transform="rotate(-50 101.5 531.0)">25.15</text>
<line x1="135.1" y1="516.0" x2="135.1" y2="519.0" stroke="#999"/>
<text x="135.1" y="531.0" text-anchor="end" fill="#666" transform="rotate(-50 135.1 531.0)">25.16</text>
<line x1="168.6" y1="516.0" x2="168.6" y2="519.0" stroke="#999"/>
<text x="168.6" y="531.0" text-anchor="end" fill="#666" transform="rotate(-50 168.6 531.0)">25.17</text>
<line x1="202.2" y1="516.0" x2="202.2" y2="519.0" stroke="#999"/>
<text x="202.2" y="531.0" text-anchor="end" fill="#666" transform="rotate(-50 202.2 531.0)">25.18</text>
<line x1="235.7" y1="516.0" x2="235.7" y2="519.0" stroke="#999"/>
<text x="235.7" y="531.0" text-anchor="end" fill="#666" transform="rotate(-50 235.7 531.0)">25.19</text>
<line x1="269.3" y1="516.0" x2="269.3" y2="519.0" stroke="#999"/>
<text x="269.3" y="531.0" text-anchor="end" fill="#666" transform="rotate(-50 269.3 531.0)">25.20</text>
<line x1="302.8" y1="516.0" x2="302.8" y2="519.0" stroke="#999"/>
<text x="302.8" y="531.0" text-anchor="end" fill="#666" transform="rotate(-50 302.8 531.0)">25.21</text>
<line x1="336.4" y1="516.0" x2="336.4" y2="519.0" stroke="#999"/>
<text x="336.4" y="531.0" text-anchor="end" fill="#666" transform="rotate(-50 336.4 531.0)">25.22</text>
<line x1="369.9" y1="516.0" x2="369.9" y2="519.0" stroke="#999"/>
<text x="369.9" y="531.0" text-anchor="end" fill="#666" transform="rotate(-50 369.9 531.0)">25.23</text>
<line x1="403.5" y1="516.0" x2="403.5" y2="519.0" stroke="#999"/>
<text x="403.5" y="531.0" text-anchor="end" fill="#666" transform="rotate(-50 403.5 531.0)">25.24</text>
<line x1="437.0" y1="516.0" x2="437.0" y2="519.0" stroke="#999"/>
<text x="437.0" y="531.0" text-anchor="end" fill="#666" transform="rotate(-50 437.0 531.0)">26.1</text>
<line x1="470.6" y1="516.0" x2="470.6" y2="519.0" stroke="#999"/>
<text x="470.6" y="531.0" text-anchor="end" fill="#666" transform="rotate(-50 470.6 531.0)">26.2</text>
<line x1="504.1" y1="516.0" x2="504.1" y2="519.0" stroke="#999"/>
<text x="504.1" y="531.0" text-anchor="end" fill="#666" transform="rotate(-50 504.1 531.0)">26.3</text>
<line x1="537.7" y1="516.0" x2="537.7" y2="519.0" stroke="#999"/>
<text x="537.7" y="531.0" text-anchor="end" fill="#666" transform="rotate(-50 537.7 531.0)">26.4</text>
<line x1="571.2" y1="516.0" x2="571.2" y2="519.0" stroke="#999"/>
<text x="571.2" y="531.0" text-anchor="end" fill="#666" transform="rotate(-50 571.2 531.0)">26.5</text>
<line x1="604.8" y1="516.0" x2="604.8" y2="519.0" stroke="#999"/>
<text x="604.8" y="531.0" text-anchor="end" fill="#666" transform="rotate(-50 604.8 531.0)">26.7</text>
<line x1="638.3" y1="516.0" x2="638.3" y2="519.0" stroke="#999"/>
<text x="638.3" y="531.0" text-anchor="end" fill="#666" transform="rotate(-50 638.3 531.0)">26.8</text>
<line x1="671.9" y1="516.0" x2="671.9" y2="519.0" stroke="#999"/>
<text x="671.9" y="531.0" text-anchor="end" fill="#666" transform="rotate(-50 671.9 531.0)">26.9</text>
<line x1="705.4" y1="516.0" x2="705.4" y2="519.0" stroke="#999"/>
<text x="705.4" y="531.0" text-anchor="end" fill="#666" transform="rotate(-50 705.4 531.0)">26.10</text>
<line x1="739.0" y1="516.0" x2="739.0" y2="519.0" stroke="#999"/>
<text x="739.0" y="531.0" text-anchor="end" fill="#666" transform="rotate(-50 739.0 531.0)">26.11</text>
<line x1="772.5" y1="516.0" x2="772.5" y2="519.0" stroke="#999"/>
<text x="772.5" y="531.0" text-anchor="end" fill="#666" transform="rotate(-50 772.5 531.0)">26.12</text>
<line x1="806.1" y1="516.0" x2="806.1" y2="519.0" stroke="#999"/>
<text x="806.1" y="531.0" text-anchor="end" fill="#e8731a" transform="rotate(-50 806.1 531.0)">06-25</text>
<line x1="839.6" y1="516.0" x2="839.6" y2="519.0" stroke="#999"/>
<text x="839.6" y="531.0" text-anchor="end" fill="#e8731a" transform="rotate(-50 839.6 531.0)">06-26</text>
<line x1="873.2" y1="516.0" x2="873.2" y2="519.0" stroke="#999"/>
<text x="873.2" y="531.0" text-anchor="end" fill="#e8731a" transform="rotate(-50 873.2 531.0)">06-28</text>
<line x1="906.7" y1="516.0" x2="906.7" y2="519.0" stroke="#999"/>
<text x="906.7" y="531.0" text-anchor="end" fill="#e8731a" transform="rotate(-50 906.7 531.0)">07-01</text>
<line x1="940.3" y1="516.0" x2="940.3" y2="519.0" stroke="#999"/>
<text x="940.3" y="531.0" text-anchor="end" fill="#e8731a" transform="rotate(-50 940.3 531.0)">07-02</text>
<line x1="973.8" y1="516.0" x2="973.8" y2="519.0" stroke="#999"/>
<text x="973.8" y="531.0" text-anchor="end" fill="#e8731a" transform="rotate(-50 973.8 531.0)">07-03</text>
<line x1="1007.4" y1="516.0" x2="1007.4" y2="519.0" stroke="#999"/>
<text x="1007.4" y="531.0" text-anchor="end" fill="#e8731a" transform="rotate(-50 1007.4 531.0)">07-03</text>
<line x1="1040.9" y1="516.0" x2="1040.9" y2="519.0" stroke="#999"/>
<text x="1040.9" y="531.0" text-anchor="end" fill="#e8731a" transform="rotate(-50 1040.9 531.0)">07-03</text>
<line x1="1074.5" y1="516.0" x2="1074.5" y2="519.0" stroke="#999"/>
<text x="1074.5" y="531.0" text-anchor="end" fill="#e8731a" transform="rotate(-50 1074.5 531.0)">07-07</text>
<line x1="1108.0" y1="516.0" x2="1108.0" y2="519.0" stroke="#999"/>
<text x="1108.0" y="531.0" text-anchor="end" fill="#e8731a" transform="rotate(-50 1108.0 531.0)">07-07</text>
<polygon points="68.0,512.5 101.5,512.6 135.1,512.6 168.6,512.4 202.2,512.4 235.7,512.3 269.3,512.2 302.8,512.3 336.4,512.5 369.9,512.5 403.5,512.3 437.0,512.6 470.6,512.5 504.1,512.5 537.7,512.5 571.2,512.5 604.8,512.3 638.3,512.4 671.9,512.3 705.4,512.3 739.0,512.3 772.5,512.3 806.1,512.0 839.6,512.0 873.2,511.8 906.7,512.0 940.3,511.9 973.8,512.0 1007.4,511.8 1040.9,512.0 1074.5,511.9 1108.0,511.9 1108.0,516.0 1074.5,516.0 1040.9,516.0 1007.4,516.0 973.8,516.0 940.3,516.0 906.7,516.0 873.2,516.0 839.6,516.0 806.1,516.0 772.5,516.0 739.0,516.0 705.4,516.0 671.9,516.0 638.3,516.0 604.8,516.0 571.2,516.0 537.7,516.0 504.1,516.0 470.6,516.0 437.0,516.0 403.5,516.0 369.9,516.0 336.4,516.0 302.8,516.0 269.3,516.0 235.7,516.0 202.2,516.0 168.6,516.0 135.1,516.0 101.5,516.0 68.0,516.0" fill="#c7e9c0" fill-opacity="0.9" stroke="#fff" stroke-width="0.4"><title>sema_generics — parseTranslationUnit</title></polygon>
<polygon points="68.0,283.9 101.5,280.9 135.1,281.0 168.6,267.1 202.2,257.8 235.7,265.5 269.3,240.6 302.8,248.1 336.4,251.8 369.9,250.6 403.5,264.9 437.0,259.5 470.6,259.7 504.1,266.3 537.7,261.6 571.2,247.5 604.8,186.6 638.3,189.1 671.9,189.3 705.4,180.9 739.0,184.5 772.5,173.6 806.1,177.8 839.6,176.9 873.2,179.0 906.7,187.5 940.3,177.1 973.8,184.6 1007.4,172.0 1040.9,188.3 1074.5,240.2 1108.0,176.6 1108.0,511.9 1074.5,511.9 1040.9,512.0 1007.4,511.8 973.8,512.0 940.3,511.9 906.7,512.0 873.2,511.8 839.6,512.0 806.1,512.0 772.5,512.3 739.0,512.3 705.4,512.3 671.9,512.3 638.3,512.4 604.8,512.3 571.2,512.5 537.7,512.5 504.1,512.5 470.6,512.5 437.0,512.6 403.5,512.3 369.9,512.5 336.4,512.5 302.8,512.3 269.3,512.2 235.7,512.3 202.2,512.4 168.6,512.4 135.1,512.6 101.5,512.6 68.0,512.5" fill="#41ab5d" fill-opacity="0.9" stroke="#fff" stroke-width="0.4"><title>sema_generics — SemanticChecking</title></polygon>
<polygon points="68.0,237.5 101.5,234.8 135.1,235.4 168.6,215.1 202.2,201.6 235.7,213.9 269.3,184.7 302.8,196.1 336.4,201.6 369.9,198.6 403.5,215.7 437.0,212.9 470.6,212.7 504.1,220.0 537.7,214.7 571.2,201.0 604.8,134.2 638.3,135.8 671.9,135.3 705.4,127.0 739.0,139.8 772.5,127.8 806.1,130.3 839.6,129.1 873.2,130.4 906.7,139.5 940.3,128.4 973.8,135.1 1007.4,122.6 1040.9,140.1 1074.5,192.2 1108.0,127.0 1108.0,176.6 1074.5,240.2 1040.9,188.3 1007.4,172.0 973.8,184.6 940.3,177.1 906.7,187.5 873.2,179.0 839.6,176.9 806.1,177.8 772.5,173.6 739.0,184.5 705.4,180.9 671.9,189.3 638.3,189.1 604.8,186.6 571.2,247.5 537.7,261.6 504.1,266.3 470.6,259.7 437.0,259.5 403.5,264.9 369.9,250.6 336.4,251.8 302.8,248.1 269.3,240.6 235.7,265.5 202.2,257.8 168.6,267.1 135.1,281.0 101.5,280.9 68.0,283.9" fill="#006d2c" fill-opacity="0.9" stroke="#fff" stroke-width="0.4"><title>sema_generics — generateIR</title></polygon>
<polygon points="68.0,237.5 101.5,234.8 135.1,235.3 168.6,214.7 202.2,201.6 235.7,213.1 269.3,184.7 302.8,195.8 336.4,201.6 369.9,198.6 403.5,215.7 437.0,211.3 470.6,212.7 504.1,220.0 537.7,214.7 571.2,201.0 604.8,134.2 638.3,135.4 671.9,135.3 705.4,124.9 739.0,138.2 772.5,127.7 806.1,130.3 839.6,129.0 873.2,130.4 906.7,139.5 940.3,127.0 973.8,135.1 1007.4,122.6 1040.9,139.8 1074.5,192.2 1108.0,127.0 1108.0,127.0 1074.5,192.2 1040.9,140.1 1007.4,122.6 973.8,135.1 940.3,128.4 906.7,139.5 873.2,130.4 839.6,129.1 806.1,130.3 772.5,127.8 739.0,139.8 705.4,127.0 671.9,135.3 638.3,135.8 604.8,134.2 571.2,201.0 537.7,214.7 504.1,220.0 470.6,212.7 437.0,212.9 403.5,215.7 369.9,198.6 336.4,201.6 302.8,196.1 269.3,184.7 235.7,213.9 202.2,201.6 168.6,215.1 135.1,235.4 101.5,234.8 68.0,237.5" fill="#74c476" fill-opacity="0.9" stroke="#fff" stroke-width="0.4"><title>sema_generics — frontEndExecute (self)</title></polygon>
<polygon points="68.0,226.5 101.5,223.8 135.1,224.5 168.6,201.6 202.2,187.2 235.7,200.7 269.3,170.8 302.8,183.2 336.4,189.3 369.9,186.0 403.5,204.0 437.0,199.8 470.6,201.2 504.1,208.5 537.7,203.2 571.2,189.2 604.8,122.4 638.3,123.5 671.9,123.3 705.4,113.0 739.0,127.4 772.5,116.5 806.1,116.8 839.6,115.3 873.2,116.0 906.7,126.7 940.3,113.2 973.8,122.0 1007.4,109.0 1040.9,126.6 1074.5,178.8 1108.0,113.0 1108.0,127.0 1074.5,192.2 1040.9,139.8 1007.4,122.6 973.8,135.1 940.3,127.0 906.7,139.5 873.2,130.4 839.6,129.0 806.1,130.3 772.5,127.7 739.0,138.2 705.4,124.9 671.9,135.3 638.3,135.4 604.8,134.2 571.2,201.0 537.7,214.7 504.1,220.0 470.6,212.7 437.0,211.3 403.5,215.7 369.9,198.6 336.4,201.6 302.8,195.8 269.3,184.7 235.7,213.1 202.2,201.6 168.6,214.7 135.1,235.3 101.5,234.8 68.0,237.5" fill="#e6550d" fill-opacity="0.9" stroke="#fff" stroke-width="0.4"><title>sema_generics — generateOutput (self)</title></polygon>
<polygon points="68.0,226.3 101.5,223.7 135.1,223.7 168.6,201.4 202.2,187.2 235.7,200.7 269.3,170.3 302.8,183.2 336.4,189.3 369.9,186.0 403.5,203.0 437.0,199.8 470.6,201.2 504.1,207.0 537.7,203.2 571.2,189.2 604.8,122.4 638.3,123.5 671.9,123.3 705.4,112.7 739.0,127.4 772.5,116.5 806.1,116.8 839.6,115.3 873.2,116.0 906.7,126.3 940.3,113.2 973.8,121.6 1007.4,108.6 1040.9,126.6 1074.5,178.3 1108.0,113.0 1108.0,113.0 1074.5,178.8 1040.9,126.6 1007.4,109.0 973.8,122.0 940.3,113.2 906.7,126.7 873.2,116.0 839.6,115.3 806.1,116.8 772.5,116.5 739.0,127.4 705.4,113.0 671.9,123.3 638.3,123.5 604.8,122.4 571.2,189.2 537.7,203.2 504.1,208.5 470.6,201.2 437.0,199.8 403.5,204.0 369.9,186.0 336.4,189.3 302.8,183.2 269.3,170.8 235.7,200.7 202.2,187.2 168.6,201.6 135.1,224.5 101.5,223.8 68.0,226.5" fill="#969696" fill-opacity="0.9" stroke="#fff" stroke-width="0.4"><title>sema_generics — compileInner (self)</title></polygon>
<text x="12" y="578" fill="#666" font-weight="600">phase buckets</text>
<rect x="12" y="586" width="12" height="12" fill="#c7e9c0"/>
<text x="28" y="596" fill="#222">parseTranslationUnit</text>
<rect x="289" y="586" width="12" height="12" fill="#41ab5d"/>
<text x="305" y="596" fill="#222">SemanticChecking</text>
<rect x="566" y="586" width="12" height="12" fill="#006d2c"/>
<text x="582" y="596" fill="#222">generateIR</text>
<rect x="843" y="586" width="12" height="12" fill="#74c476"/>
<text x="859" y="596" fill="#222">frontEndExecute (self)</text>
<rect x="12" y="604" width="12" height="12" fill="#6baed6"/>
<text x="28" y="614" fill="#222">specializeModule</text>
<rect x="289" y="604" width="12" height="12" fill="#2171b5"/>
<text x="305" y="614" fill="#222">simplifyIR</text>
<rect x="566" y="604" width="12" height="12" fill="#08306b"/>
<text x="582" y="614" fill="#222">linkIR</text>
<rect x="843" y="604" width="12" height="12" fill="#9e9ac8"/>
<text x="859" y="614" fill="#222">unrollLoopsInModule</text>
<rect x="12" y="622" width="12" height="12" fill="#807dba"/>
<text x="28" y="632" fill="#222">legalizeResourceTypes</text>
<rect x="289" y="622" width="12" height="12" fill="#6a51a3"/>
<text x="305" y="632" fill="#222">legalizeExistentialTypeLayout</text>
<rect x="566" y="622" width="12" height="12" fill="#bcbddc"/>
<text x="582" y="632" fill="#222">performMandatoryEarlyInlining</text>
<rect x="843" y="622" width="12" height="12" fill="#dadaeb"/>
<text x="859" y="632" fill="#222">performForceInlining</text>
<rect x="12" y="640" width="12" height="12" fill="#4a1486"/>
<text x="28" y="650" fill="#222">linkAndOptimizeIR (self)</text>
<rect x="289" y="640" width="12" height="12" fill="#fd8d3c"/>
<text x="305" y="650" fill="#222">emitEntryPointsSourceFromIR</text>
<rect x="566" y="640" width="12" height="12" fill="#e6550d"/>
<text x="582" y="650" fill="#222">generateOutput (self)</text>
<rect x="843" y="640" width="12" height="12" fill="#969696"/>
<text x="859" y="650" fill="#222">compileInner (self)</text>
</svg>