<svg xmlns="http://www.w3.org/2000/svg" xmlns:xlink="http://www.w3.org/1999/xlink" width="1132" height="680" viewBox="0 0 1132 680" preserveAspectRatio="xMidYMid meet" font-family="sans-serif" font-size="13">
<rect width="1132" height="680" fill="white"/>
<text x="12" y="30" font-size="20" font-weight="bold">sema_generics — full phase breakdown across releases (median ms)</text>
<text x="68" y="60" font-size="15" font-weight="600" fill="#1a1a1a">sema_generics<tspan fill="#888" font-weight="400" text-decoration="none">  1.34×</tspan></text>
<line x1="68.0" y1="516.0" x2="1108.0" y2="516.0" stroke="#eee"/>
<text x="64.0" y="519.0" text-anchor="end" fill="#999">0.0</text>
<line x1="68.0" y1="296.0" x2="1108.0" y2="296.0" stroke="#eee"/>
<text x="64.0" y="299.0" text-anchor="end" fill="#999">572</text>
<line x1="68.0" y1="76.0" x2="1108.0" y2="76.0" stroke="#eee"/>
<text x="64.0" y="79.0" text-anchor="end" fill="#999">1143</text>
<line x1="68.0" y1="76.0" x2="68.0" y2="516.0" stroke="#333"/>
<line x1="68.0" y1="516.0" x2="1108.0" y2="516.0" stroke="#333"/>
<line x1="839.0" y1="76.0" x2="839.0" y2="516.0" stroke="#e8731a" stroke-width="1.2" stroke-dasharray="4 3"/>
<text x="842.0" y="87.0" fill="#e8731a" font-size="11">daily →</text>
<line x1="68.0" y1="516.0" x2="68.0" y2="519.0" stroke="#999"/>
<text x="68.0" y="531.0" text-anchor="end" fill="#666" transform="rotate(-50 68.0 531.0)">25.14</text>
<line x1="103.9" y1="516.0" x2="103.9" y2="519.0" stroke="#999"/>
<text x="103.9" y="531.0" text-anchor="end" fill="#666" transform="rotate(-50 103.9 531.0)">25.15</text>
<line x1="139.7" y1="516.0" x2="139.7" y2="519.0" stroke="#999"/>
<text x="139.7" y="531.0" text-anchor="end" fill="#666" transform="rotate(-50 139.7 531.0)">25.16</text>
<line x1="175.6" y1="516.0" x2="175.6" y2="519.0" stroke="#999"/>
<text x="175.6" y="531.0" text-anchor="end" fill="#666" transform="rotate(-50 175.6 531.0)">25.17</text>
<line x1="211.4" y1="516.0" x2="211.4" y2="519.0" stroke="#999"/>
<text x="211.4" y="531.0" text-anchor="end" fill="#666" transform="rotate(-50 211.4 531.0)">25.18</text>
<line x1="247.3" y1="516.0" x2="247.3" y2="519.0" stroke="#999"/>
<text x="247.3" y="531.0" text-anchor="end" fill="#666" transform="rotate(-50 247.3 531.0)">25.19</text>
<line x1="283.2" y1="516.0" x2="283.2" y2="519.0" stroke="#999"/>
<text x="283.2" y="531.0" text-anchor="end" fill="#666" transform="rotate(-50 283.2 531.0)">25.20</text>
<line x1="319.0" y1="516.0" x2="319.0" y2="519.0" stroke="#999"/>
<text x="319.0" y="531.0" text-anchor="end" fill="#666" transform="rotate(-50 319.0 531.0)">25.21</text>
<line x1="354.9" y1="516.0" x2="354.9" y2="519.0" stroke="#999"/>
<text x="354.9" y="531.0" text-anchor="end" fill="#666" transform="rotate(-50 354.9 531.0)">25.22</text>
<line x1="390.8" y1="516.0" x2="390.8" y2="519.0" stroke="#999"/>
<text x="390.8" y="531.0" text-anchor="end" fill="#666" transform="rotate(-50 390.8 531.0)">25.23</text>
<line x1="426.6" y1="516.0" x2="426.6" y2="519.0" stroke="#999"/>
<text x="426.6" y="531.0" text-anchor="end" fill="#666" transform="rotate(-50 426.6 531.0)">25.24</text>
<line x1="462.5" y1="516.0" x2="462.5" y2="519.0" stroke="#999"/>
<text x="462.5" y="531.0" text-anchor="end" fill="#666" transform="rotate(-50 462.5 531.0)">26.1</text>
<line x1="498.3" y1="516.0" x2="498.3" y2="519.0" stroke="#999"/>
<text x="498.3" y="531.0" text-anchor="end" fill="#666" transform="rotate(-50 498.3 531.0)">26.2</text>
<line x1="534.2" y1="516.0" x2="534.2" y2="519.0" stroke="#999"/>
<text x="534.2" y="531.0" text-anchor="end" fill="#666" transform="rotate(-50 534.2 531.0)">26.3</text>
<line x1="570.1" y1="516.0" x2="570.1" y2="519.0" stroke="#999"/>
<text x="570.1" y="531.0" text-anchor="end" fill="#666" transform="rotate(-50 570.1 531.0)">26.4</text>
<line x1="605.9" y1="516.0" x2="605.9" y2="519.0" stroke="#999"/>
<text x="605.9" y="531.0" text-anchor="end" fill="#666" transform="rotate(-50 605.9 531.0)">26.5</text>
<line x1="641.8" y1="516.0" x2="641.8" y2="519.0" stroke="#999"/>
<text x="641.8" y="531.0" text-anchor="end" fill="#666" transform="rotate(-50 641.8 531.0)">26.7</text>
<line x1="677.7" y1="516.0" x2="677.7" y2="519.0" stroke="#999"/>
<text x="677.7" y="531.0" text-anchor="end" fill="#666" transform="rotate(-50 677.7 531.0)">26.8</text>
<line x1="713.5" y1="516.0" x2="713.5" y2="519.0" stroke="#999"/>
<text x="713.5" y="531.0" text-anchor="end" fill="#666" transform="rotate(-50 713.5 531.0)">26.9</text>
<line x1="749.4" y1="516.0" x2="749.4" y2="519.0" stroke="#999"/>
<text x="749.4" y="531.0" text-anchor="end" fill="#666" transform="rotate(-50 749.4 531.0)">26.10</text>
<line x1="785.2" y1="516.0" x2="785.2" y2="519.0" stroke="#999"/>
<text x="785.2" y="531.0" text-anchor="end" fill="#666" transform="rotate(-50 785.2 531.0)">26.11</text>
<line x1="821.1" y1="516.0" x2="821.1" y2="519.0" stroke="#999"/>
<text x="821.1" y="531.0" text-anchor="end" fill="#666" transform="rotate(-50 821.1 531.0)">26.12</text>
<line x1="857.0" y1="516.0" x2="857.0" y2="519.0" stroke="#999"/>
<text x="857.0" y="531.0" text-anchor="end" fill="#e8731a" transform="rotate(-50 857.0 531.0)">06-25</text>
<line x1="892.8" y1="516.0" x2="892.8" y2="519.0" stroke="#999"/>
<text x="892.8" y="531.0" text-anchor="end" fill="#e8731a" transform="rotate(-50 892.8 531.0)">06-26</text>
<line x1="928.7" y1="516.0" x2="928.7" y2="519.0" stroke="#999"/>
<text x="928.7" y="531.0" text-anchor="end" fill="#e8731a" transform="rotate(-50 928.7 531.0)">06-28</text>
<line x1="964.6" y1="516.0" x2="964.6" y2="519.0" stroke="#999"/>
<text x="964.6" y="531.0" text-anchor="end" fill="#e8731a" transform="rotate(-50 964.6 531.0)">07-01</text>
<line x1="1000.4" y1="516.0" x2="1000.4" y2="519.0" stroke="#999"/>
<text x="1000.4" y="531.0" text-anchor="end" fill="#e8731a" transform="rotate(-50 1000.4 531.0)">07-02</text>
<line x1="1036.3" y1="516.0" x2="1036.3" y2="519.0" stroke="#999"/>
<text x="1036.3" y="531.0" text-anchor="end" fill="#e8731a" transform="rotate(-50 1036.3 531.0)">07-03</text>
<line x1="1072.1" y1="516.0" x2="1072.1" y2="519.0" stroke="#999"/>
<text x="1072.1" y="531.0" text-anchor="end" fill="#e8731a" transform="rotate(-50 1072.1 531.0)">07-03</text>
<line x1="1108.0" y1="516.0" x2="1108.0" y2="519.0" stroke="#999"/>
<text x="1108.0" y="531.0" text-anchor="end" fill="#e8731a" transform="rotate(-50 1108.0 531.0)">07-03</text>
<polygon points="68.0,512.5 103.9,512.6 139.7,512.6 175.6,512.4 211.4,512.4 247.3,512.3 283.2,512.2 319.0,512.3 354.9,512.5 390.8,512.4 426.6,512.3 462.5,512.5 498.3,512.5 534.2,512.5 570.1,512.5 605.9,512.4 641.8,512.3 677.7,512.3 713.5,512.3 749.4,512.3 785.2,512.3 821.1,512.3 857.0,512.0 892.8,511.9 928.7,511.8 964.6,511.9 1000.4,511.9 1036.3,511.9 1072.1,511.8 1108.0,512.0 1108.0,516.0 1072.1,516.0 1036.3,516.0 1000.4,516.0 964.6,516.0 928.7,516.0 892.8,516.0 857.0,516.0 821.1,516.0 785.2,516.0 749.4,516.0 713.5,516.0 677.7,516.0 641.8,516.0 605.9,516.0 570.1,516.0 534.2,516.0 498.3,516.0 462.5,516.0 426.6,516.0 390.8,516.0 354.9,516.0 319.0,516.0 283.2,516.0 247.3,516.0 211.4,516.0 175.6,516.0 139.7,516.0 103.9,516.0 68.0,516.0" fill="#c7e9c0" fill-opacity="0.9" stroke="#fff" stroke-width="0.4"><title>sema_generics — parseTranslationUnit</title></polygon>
<polygon points="68.0,282.7 103.9,279.6 139.7,279.8 175.6,265.8 211.4,256.4 247.3,264.2 283.2,239.1 319.0,246.7 354.9,250.4 390.8,249.2 426.6,263.5 462.5,258.1 498.3,258.4 534.2,265.0 570.1,260.2 605.9,246.0 641.8,184.9 677.7,187.3 713.5,187.6 749.4,179.2 785.2,182.8 821.1,171.8 857.0,176.0 892.8,175.1 928.7,177.2 964.6,185.8 1000.4,175.3 1036.3,182.8 1072.1,172.6 1108.0,186.5 1108.0,512.0 1072.1,511.8 1036.3,511.9 1000.4,511.9 964.6,511.9 928.7,511.8 892.8,511.9 857.0,512.0 821.1,512.3 785.2,512.3 749.4,512.3 713.5,512.3 677.7,512.3 641.8,512.3 605.9,512.4 570.1,512.5 534.2,512.5 498.3,512.5 462.5,512.5 426.6,512.3 390.8,512.4 354.9,512.5 319.0,512.3 283.2,512.2 247.3,512.3 211.4,512.4 175.6,512.4 139.7,512.6 103.9,512.6 68.0,512.5" fill="#41ab5d" fill-opacity="0.9" stroke="#fff" stroke-width="0.4"><title>sema_generics — SemanticChecking</title></polygon>
<polygon points="68.0,236.0 103.9,233.3 139.7,233.9 175.6,213.5 211.4,199.9 247.3,212.3 283.2,183.0 319.0,194.4 354.9,199.9 390.8,196.9 426.6,214.1 462.5,211.3 498.3,211.1 534.2,218.4 570.1,213.1 605.9,199.4 641.8,132.2 677.7,133.8 713.5,133.3 749.4,124.9 785.2,137.7 821.1,125.7 857.0,128.2 892.8,127.0 928.7,128.4 964.6,137.5 1000.4,126.3 1036.3,133.1 1072.1,123.4 1108.0,138.1 1108.0,186.5 1072.1,172.6 1036.3,182.8 1000.4,175.3 964.6,185.8 928.7,177.2 892.8,175.1 857.0,176.0 821.1,171.8 785.2,182.8 749.4,179.2 713.5,187.6 677.7,187.3 641.8,184.9 605.9,246.0 570.1,260.2 534.2,265.0 498.3,258.4 462.5,258.1 426.6,263.5 390.8,249.2 354.9,250.4 319.0,246.7 283.2,239.1 247.3,264.2 211.4,256.4 175.6,265.8 139.7,279.8 103.9,279.6 68.0,282.7" fill="#006d2c" fill-opacity="0.9" stroke="#fff" stroke-width="0.4"><title>sema_generics — generateIR</title></polygon>
<polygon points="68.0,236.0 103.9,233.3 139.7,233.8 175.6,213.1 211.4,199.9 247.3,211.4 283.2,183.0 319.0,194.1 354.9,199.9 390.8,196.9 426.6,214.1 462.5,209.6 498.3,211.1 534.2,218.4 570.1,213.1 605.9,199.4 641.8,132.2 677.7,133.3 713.5,133.3 749.4,122.8 785.2,136.2 821.1,125.6 857.0,128.2 892.8,127.0 928.7,128.4 964.6,137.5 1000.4,124.9 1036.3,133.1 1072.1,123.2 1108.0,137.8 1108.0,138.1 1072.1,123.4 1036.3,133.1 1000.4,126.3 964.6,137.5 928.7,128.4 892.8,127.0 857.0,128.2 821.1,125.7 785.2,137.7 749.4,124.9 713.5,133.3 677.7,133.8 641.8,132.2 605.9,199.4 570.1,213.1 534.2,218.4 498.3,211.1 462.5,211.3 426.6,214.1 390.8,196.9 354.9,199.9 319.0,194.4 283.2,183.0 247.3,212.3 211.4,199.9 175.6,213.5 139.7,233.9 103.9,233.3 68.0,236.0" fill="#74c476" fill-opacity="0.9" stroke="#fff" stroke-width="0.4"><title>sema_generics — frontEndExecute (self)</title></polygon>
<polygon points="68.0,225.0 103.9,222.3 139.7,222.9 175.6,199.9 211.4,185.5 247.3,199.0 283.2,168.9 319.0,181.4 354.9,187.6 390.8,184.3 426.6,202.3 462.5,198.1 498.3,199.5 534.2,206.9 570.1,201.6 605.9,187.5 641.8,120.3 677.7,121.4 713.5,121.2 749.4,110.8 785.2,125.3 821.1,114.4 857.0,114.7 892.8,113.1 928.7,113.9 964.6,124.6 1000.4,111.1 1036.3,119.9 1072.1,109.2 1108.0,124.5 1108.0,137.8 1072.1,123.2 1036.3,133.1 1000.4,124.9 964.6,137.5 928.7,128.4 892.8,127.0 857.0,128.2 821.1,125.6 785.2,136.2 749.4,122.8 713.5,133.3 677.7,133.3 641.8,132.2 605.9,199.4 570.1,213.1 534.2,218.4 498.3,211.1 462.5,209.6 426.6,214.1 390.8,196.9 354.9,199.9 319.0,194.1 283.2,183.0 247.3,211.4 211.4,199.9 175.6,213.1 139.7,233.8 103.9,233.3 68.0,236.0" fill="#e6550d" fill-opacity="0.9" stroke="#fff" stroke-width="0.4"><title>sema_generics — generateOutput (self)</title></polygon>
<polygon points="68.0,224.8 103.9,222.2 139.7,222.1 175.6,199.8 211.4,185.5 247.3,199.0 283.2,168.5 319.0,181.4 354.9,187.6 390.8,184.3 426.6,201.3 462.5,198.1 498.3,199.5 534.2,205.4 570.1,201.6 605.9,187.5 641.8,120.3 677.7,121.4 713.5,121.2 749.4,110.6 785.2,125.3 821.1,114.4 857.0,114.7 892.8,113.1 928.7,113.9 964.6,124.3 1000.4,111.1 1036.3,119.5 1072.1,108.6 1108.0,124.5 1108.0,124.5 1072.1,109.2 1036.3,119.9 1000.4,111.1 964.6,124.6 928.7,113.9 892.8,113.1 857.0,114.7 821.1,114.4 785.2,125.3 749.4,110.8 713.5,121.2 677.7,121.4 641.8,120.3 605.9,187.5 570.1,201.6 534.2,206.9 498.3,199.5 462.5,198.1 426.6,202.3 390.8,184.3 354.9,187.6 319.0,181.4 283.2,168.9 247.3,199.0 211.4,185.5 175.6,199.9 139.7,222.9 103.9,222.3 68.0,225.0" fill="#969696" fill-opacity="0.9" stroke="#fff" stroke-width="0.4"><title>sema_generics — compileInner (self)</title></polygon>
<text x="12" y="578" fill="#666" font-weight="600">phase buckets</text>
<rect x="12" y="586" width="12" height="12" fill="#c7e9c0"/>
<text x="28" y="596" fill="#222">parseTranslationUnit</text>
<rect x="289" y="586" width="12" height="12" fill="#41ab5d"/>
<text x="305" y="596" fill="#222">SemanticChecking</text>
<rect x="566" y="586" width="12" height="12" fill="#006d2c"/>
<text x="582" y="596" fill="#222">generateIR</text>
<rect x="843" y="586" width="12" height="12" fill="#74c476"/>
<text x="859" y="596" fill="#222">frontEndExecute (self)</text>
<rect x="12" y="604" width="12" height="12" fill="#6baed6"/>
<text x="28" y="614" fill="#222">specializeModule</text>
<rect x="289" y="604" width="12" height="12" fill="#2171b5"/>
<text x="305" y="614" fill="#222">simplifyIR</text>
<rect x="566" y="604" width="12" height="12" fill="#08306b"/>
<text x="582" y="614" fill="#222">linkIR</text>
<rect x="843" y="604" width="12" height="12" fill="#9e9ac8"/>
<text x="859" y="614" fill="#222">unrollLoopsInModule</text>
<rect x="12" y="622" width="12" height="12" fill="#807dba"/>
<text x="28" y="632" fill="#222">legalizeResourceTypes</text>
<rect x="289" y="622" width="12" height="12" fill="#6a51a3"/>
<text x="305" y="632" fill="#222">legalizeExistentialTypeLayout</text>
<rect x="566" y="622" width="12" height="12" fill="#bcbddc"/>
<text x="582" y="632" fill="#222">performMandatoryEarlyInlining</text>
<rect x="843" y="622" width="12" height="12" fill="#dadaeb"/>
<text x="859" y="632" fill="#222">performForceInlining</text>
<rect x="12" y="640" width="12" height="12" fill="#4a1486"/>
<text x="28" y="650" fill="#222">linkAndOptimizeIR (self)</text>
<rect x="289" y="640" width="12" height="12" fill="#fd8d3c"/>
<text x="305" y="650" fill="#222">emitEntryPointsSourceFromIR</text>
<rect x="566" y="640" width="12" height="12" fill="#e6550d"/>
<text x="582" y="650" fill="#222">generateOutput (self)</text>
<rect x="843" y="640" width="12" height="12" fill="#969696"/>
<text x="859" y="650" fill="#222">compileInner (self)</text>
</svg>