<svg xmlns="http://www.w3.org/2000/svg" xmlns:xlink="http://www.w3.org/1999/xlink" width="1132" height="680" viewBox="0 0 1132 680" preserveAspectRatio="xMidYMid meet" font-family="sans-serif" font-size="13">
<rect width="1132" height="680" fill="white"/>
<text x="12" y="30" font-size="20" font-weight="bold">serialize — Daily tip-of-tree (last 30 days) (median ms)</text>
<text x="68" y="60" font-size="15" font-weight="600" fill="#1a1a1a">serialize<tspan fill="#888" font-weight="400" text-decoration="none">  0.71×</tspan></text>
<line x1="68.0" y1="516.0" x2="1108.0" y2="516.0" stroke="#eee"/>
<text x="64.0" y="519.0" text-anchor="end" fill="#999">0.0</text>
<line x1="68.0" y1="296.0" x2="1108.0" y2="296.0" stroke="#eee"/>
<text x="64.0" y="299.0" text-anchor="end" fill="#999">89</text>
<line x1="68.0" y1="76.0" x2="1108.0" y2="76.0" stroke="#eee"/>
<text x="64.0" y="79.0" text-anchor="end" fill="#999">179</text>
<line x1="68.0" y1="76.0" x2="68.0" y2="516.0" stroke="#333"/>
<line x1="68.0" y1="516.0" x2="1108.0" y2="516.0" stroke="#333"/>
<line x1="68.0" y1="516.0" x2="68.0" y2="519.0" stroke="#999"/>
<text x="68.0" y="531.0" text-anchor="end" fill="#e8731a" transform="rotate(-50 68.0 531.0)">06-25</text>
<line x1="122.7" y1="516.0" x2="122.7" y2="519.0" stroke="#999"/>
<text x="122.7" y="531.0" text-anchor="end" fill="#e8731a" transform="rotate(-50 122.7 531.0)">06-26</text>
<line x1="177.5" y1="516.0" x2="177.5" y2="519.0" stroke="#999"/>
<text x="177.5" y="531.0" text-anchor="end" fill="#e8731a" transform="rotate(-50 177.5 531.0)">06-28</text>
<line x1="232.2" y1="516.0" x2="232.2" y2="519.0" stroke="#999"/>
<text x="232.2" y="531.0" text-anchor="end" fill="#e8731a" transform="rotate(-50 232.2 531.0)">07-01</text>
<line x1="286.9" y1="516.0" x2="286.9" y2="519.0" stroke="#999"/>
<text x="286.9" y="531.0" text-anchor="end" fill="#e8731a" transform="rotate(-50 286.9 531.0)">07-02</text>
<line x1="341.7" y1="516.0" x2="341.7" y2="519.0" stroke="#999"/>
<text x="341.7" y="531.0" text-anchor="end" fill="#e8731a" transform="rotate(-50 341.7 531.0)">07-03</text>
<line x1="396.4" y1="516.0" x2="396.4" y2="519.0" stroke="#999"/>
<text x="396.4" y="531.0" text-anchor="end" fill="#e8731a" transform="rotate(-50 396.4 531.0)">07-06</text>
<line x1="451.2" y1="516.0" x2="451.2" y2="519.0" stroke="#999"/>
<text x="451.2" y="531.0" text-anchor="end" fill="#e8731a" transform="rotate(-50 451.2 531.0)">07-07</text>
<line x1="505.9" y1="516.0" x2="505.9" y2="519.0" stroke="#999"/>
<text x="505.9" y="531.0" text-anchor="end" fill="#e8731a" transform="rotate(-50 505.9 531.0)">07-08</text>
<line x1="560.6" y1="516.0" x2="560.6" y2="519.0" stroke="#999"/>
<text x="560.6" y="531.0" text-anchor="end" fill="#e8731a" transform="rotate(-50 560.6 531.0)">07-09</text>
<line x1="615.4" y1="516.0" x2="615.4" y2="519.0" stroke="#999"/>
<text x="615.4" y="531.0" text-anchor="end" fill="#e8731a" transform="rotate(-50 615.4 531.0)">07-10</text>
<line x1="670.1" y1="516.0" x2="670.1" y2="519.0" stroke="#999"/>
<text x="670.1" y="531.0" text-anchor="end" fill="#e8731a" transform="rotate(-50 670.1 531.0)">07-11</text>
<line x1="724.8" y1="516.0" x2="724.8" y2="519.0" stroke="#999"/>
<text x="724.8" y="531.0" text-anchor="end" fill="#e8731a" transform="rotate(-50 724.8 531.0)">07-14</text>
<line x1="779.6" y1="516.0" x2="779.6" y2="519.0" stroke="#999"/>
<text x="779.6" y="531.0" text-anchor="end" fill="#e8731a" transform="rotate(-50 779.6 531.0)">07-15</text>
<line x1="834.3" y1="516.0" x2="834.3" y2="519.0" stroke="#999"/>
<text x="834.3" y="531.0" text-anchor="end" fill="#e8731a" transform="rotate(-50 834.3 531.0)">07-15</text>
<line x1="889.1" y1="516.0" x2="889.1" y2="519.0" stroke="#999"/>
<text x="889.1" y="531.0" text-anchor="end" fill="#e8731a" transform="rotate(-50 889.1 531.0)">07-16</text>
<line x1="943.8" y1="516.0" x2="943.8" y2="519.0" stroke="#999"/>
<text x="943.8" y="531.0" text-anchor="end" fill="#e8731a" transform="rotate(-50 943.8 531.0)">07-17</text>
<line x1="998.5" y1="516.0" x2="998.5" y2="519.0" stroke="#999"/>
<text x="998.5" y="531.0" text-anchor="end" fill="#e8731a" transform="rotate(-50 998.5 531.0)">07-18</text>
<line x1="1053.3" y1="516.0" x2="1053.3" y2="519.0" stroke="#999"/>
<text x="1053.3" y="531.0" text-anchor="end" fill="#e8731a" transform="rotate(-50 1053.3 531.0)">07-19</text>
<line x1="1108.0" y1="516.0" x2="1108.0" y2="519.0" stroke="#999"/>
<text x="1108.0" y="531.0" text-anchor="end" fill="#e8731a" transform="rotate(-50 1108.0 531.0)">07-20</text>
<polygon points="68.0,495.8 122.7,495.9 177.5,496.1 232.2,495.4 286.9,495.7 341.7,496.0 396.4,495.3 451.2,497.3 505.9,496.9 560.6,497.2 615.4,496.6 670.1,497.4 724.8,497.3 779.6,498.3 834.3,498.4 889.1,498.2 943.8,498.0 998.5,499.9 1053.3,500.1 1108.0,500.2 1108.0,516.0 1053.3,516.0 998.5,516.0 943.8,516.0 889.1,516.0 834.3,516.0 779.6,516.0 724.8,516.0 670.1,516.0 615.4,516.0 560.6,516.0 505.9,516.0 451.2,516.0 396.4,516.0 341.7,516.0 286.9,516.0 232.2,516.0 177.5,516.0 122.7,516.0 68.0,516.0" fill="#c7e9c0" fill-opacity="0.9" stroke="#fff" stroke-width="0.4"><title>serialize — parseTranslationUnit</title></polygon>
<polygon points="68.0,310.3 122.7,310.0 177.5,311.4 232.2,308.6 286.9,303.4 341.7,301.6 396.4,304.1 451.2,304.8 505.9,304.6 560.6,306.9 615.4,305.1 670.1,303.1 724.8,307.8 779.6,322.0 834.3,321.5 889.1,309.9 943.8,310.0 998.5,379.8 1053.3,376.0 1108.0,378.1 1108.0,500.2 1053.3,500.1 998.5,499.9 943.8,498.0 889.1,498.2 834.3,498.4 779.6,498.3 724.8,497.3 670.1,497.4 615.4,496.6 560.6,497.2 505.9,496.9 451.2,497.3 396.4,495.3 341.7,496.0 286.9,495.7 232.2,495.4 177.5,496.1 122.7,495.9 68.0,495.8" fill="#41ab5d" fill-opacity="0.9" stroke="#fff" stroke-width="0.4"><title>serialize — SemanticChecking</title></polygon>
<polygon points="68.0,169.3 122.7,168.8 177.5,169.3 232.2,164.6 286.9,159.9 341.7,160.9 396.4,161.9 451.2,163.5 505.9,161.5 560.6,161.7 615.4,190.3 670.1,188.2 724.8,190.5 779.6,210.5 834.3,210.8 889.1,197.1 943.8,198.8 998.5,284.9 1053.3,278.2 1108.0,283.0 1108.0,378.1 1053.3,376.0 998.5,379.8 943.8,310.0 889.1,309.9 834.3,321.5 779.6,322.0 724.8,307.8 670.1,303.1 615.4,305.1 560.6,306.9 505.9,304.6 451.2,304.8 396.4,304.1 341.7,301.6 286.9,303.4 232.2,308.6 177.5,311.4 122.7,310.0 68.0,310.3" fill="#006d2c" fill-opacity="0.9" stroke="#fff" stroke-width="0.4"><title>serialize — generateIR</title></polygon>
<polygon points="68.0,168.8 122.7,168.2 177.5,168.1 232.2,164.3 286.9,159.9 341.7,158.9 396.4,160.2 451.2,162.6 505.9,161.0 560.6,161.2 615.4,188.8 670.1,188.2 724.8,190.5 779.6,210.3 834.3,209.9 889.1,195.4 943.8,198.8 998.5,284.7 1053.3,278.2 1108.0,283.0 1108.0,283.0 1053.3,278.2 998.5,284.9 943.8,198.8 889.1,197.1 834.3,210.8 779.6,210.5 724.8,190.5 670.1,188.2 615.4,190.3 560.6,161.7 505.9,161.5 451.2,163.5 396.4,161.9 341.7,160.9 286.9,159.9 232.2,164.6 177.5,169.3 122.7,168.8 68.0,169.3" fill="#74c476" fill-opacity="0.9" stroke="#fff" stroke-width="0.4"><title>serialize — frontEndExecute (self)</title></polygon>
<polygon points="68.0,119.8 122.7,119.2 177.5,116.3 232.2,115.4 286.9,108.6 341.7,108.9 396.4,110.8 451.2,112.0 505.9,109.4 560.6,111.9 615.4,140.6 670.1,130.9 724.8,133.6 779.6,153.9 834.3,153.8 889.1,138.6 943.8,140.7 998.5,232.5 1053.3,227.4 1108.0,234.0 1108.0,283.0 1053.3,278.2 998.5,284.7 943.8,198.8 889.1,195.4 834.3,209.9 779.6,210.3 724.8,190.5 670.1,188.2 615.4,188.8 560.6,161.2 505.9,161.0 451.2,162.6 396.4,160.2 341.7,158.9 286.9,159.9 232.2,164.3 177.5,168.1 122.7,168.2 68.0,168.8" fill="#e6550d" fill-opacity="0.9" stroke="#fff" stroke-width="0.4"><title>serialize — generateOutput (self)</title></polygon>
<polygon points="68.0,119.8 122.7,119.2 177.5,116.0 232.2,113.3 286.9,108.6 341.7,108.9 396.4,110.8 451.2,111.1 505.9,109.4 560.6,111.9 615.4,125.4 670.1,130.9 724.8,133.6 779.6,153.9 834.3,153.1 889.1,138.6 943.8,140.7 998.5,231.3 1053.3,227.4 1108.0,234.0 1108.0,234.0 1053.3,227.4 998.5,232.5 943.8,140.7 889.1,138.6 834.3,153.8 779.6,153.9 724.8,133.6 670.1,130.9 615.4,140.6 560.6,111.9 505.9,109.4 451.2,112.0 396.4,110.8 341.7,108.9 286.9,108.6 232.2,115.4 177.5,116.3 122.7,119.2 68.0,119.8" fill="#969696" fill-opacity="0.9" stroke="#fff" stroke-width="0.4"><title>serialize — compileInner (self)</title></polygon>
<text x="12" y="578" fill="#666" font-weight="600">phase buckets</text>
<rect x="12" y="586" width="12" height="12" fill="#c7e9c0"/>
<text x="28" y="596" fill="#222">parseTranslationUnit</text>
<rect x="289" y="586" width="12" height="12" fill="#41ab5d"/>
<text x="305" y="596" fill="#222">SemanticChecking</text>
<rect x="566" y="586" width="12" height="12" fill="#006d2c"/>
<text x="582" y="596" fill="#222">generateIR</text>
<rect x="843" y="586" width="12" height="12" fill="#74c476"/>
<text x="859" y="596" fill="#222">frontEndExecute (self)</text>
<rect x="12" y="604" width="12" height="12" fill="#6baed6"/>
<text x="28" y="614" fill="#222">specializeModule</text>
<rect x="289" y="604" width="12" height="12" fill="#2171b5"/>
<text x="305" y="614" fill="#222">simplifyIR</text>
<rect x="566" y="604" width="12" height="12" fill="#08306b"/>
<text x="582" y="614" fill="#222">linkIR</text>
<rect x="843" y="604" width="12" height="12" fill="#9e9ac8"/>
<text x="859" y="614" fill="#222">unrollLoopsInModule</text>
<rect x="12" y="622" width="12" height="12" fill="#807dba"/>
<text x="28" y="632" fill="#222">legalizeResourceTypes</text>
<rect x="289" y="622" width="12" height="12" fill="#6a51a3"/>
<text x="305" y="632" fill="#222">legalizeExistentialTypeLayout</text>
<rect x="566" y="622" width="12" height="12" fill="#bcbddc"/>
<text x="582" y="632" fill="#222">performMandatoryEarlyInlining</text>
<rect x="843" y="622" width="12" height="12" fill="#dadaeb"/>
<text x="859" y="632" fill="#222">performForceInlining</text>
<rect x="12" y="640" width="12" height="12" fill="#4a1486"/>
<text x="28" y="650" fill="#222">linkAndOptimizeIR (self)</text>
<rect x="289" y="640" width="12" height="12" fill="#fd8d3c"/>
<text x="305" y="650" fill="#222">emitEntryPointsSourceFromIR</text>
<rect x="566" y="640" width="12" height="12" fill="#e6550d"/>
<text x="582" y="650" fill="#222">generateOutput (self)</text>
<rect x="843" y="640" width="12" height="12" fill="#969696"/>
<text x="859" y="650" fill="#222">compileInner (self)</text>
</svg>