<svg xmlns="http://www.w3.org/2000/svg" xmlns:xlink="http://www.w3.org/1999/xlink" width="1132" height="680" viewBox="0 0 1132 680" preserveAspectRatio="xMidYMid meet" font-family="sans-serif" font-size="13">
<rect width="1132" height="680" fill="white"/>
<text x="12" y="30" font-size="20" font-weight="bold">serialize — Daily tip-of-tree (last 30 days) (median ms)</text>
<text x="68" y="60" font-size="15" font-weight="600" fill="#1a1a1a">serialize<tspan fill="#888" font-weight="400" text-decoration="none">  0.73×</tspan></text>
<line x1="68.0" y1="516.0" x2="1108.0" y2="516.0" stroke="#eee"/>
<text x="64.0" y="519.0" text-anchor="end" fill="#999">0.0</text>
<line x1="68.0" y1="296.0" x2="1108.0" y2="296.0" stroke="#eee"/>
<text x="64.0" y="299.0" text-anchor="end" fill="#999">89</text>
<line x1="68.0" y1="76.0" x2="1108.0" y2="76.0" stroke="#eee"/>
<text x="64.0" y="79.0" text-anchor="end" fill="#999">179</text>
<line x1="68.0" y1="76.0" x2="68.0" y2="516.0" stroke="#333"/>
<line x1="68.0" y1="516.0" x2="1108.0" y2="516.0" stroke="#333"/>
<line x1="68.0" y1="516.0" x2="68.0" y2="519.0" stroke="#999"/>
<text x="68.0" y="531.0" text-anchor="end" fill="#e8731a" transform="rotate(-50 68.0 531.0)">06-25</text>
<line x1="125.8" y1="516.0" x2="125.8" y2="519.0" stroke="#999"/>
<text x="125.8" y="531.0" text-anchor="end" fill="#e8731a" transform="rotate(-50 125.8 531.0)">06-26</text>
<line x1="183.6" y1="516.0" x2="183.6" y2="519.0" stroke="#999"/>
<text x="183.6" y="531.0" text-anchor="end" fill="#e8731a" transform="rotate(-50 183.6 531.0)">06-28</text>
<line x1="241.3" y1="516.0" x2="241.3" y2="519.0" stroke="#999"/>
<text x="241.3" y="531.0" text-anchor="end" fill="#e8731a" transform="rotate(-50 241.3 531.0)">07-01</text>
<line x1="299.1" y1="516.0" x2="299.1" y2="519.0" stroke="#999"/>
<text x="299.1" y="531.0" text-anchor="end" fill="#e8731a" transform="rotate(-50 299.1 531.0)">07-02</text>
<line x1="356.9" y1="516.0" x2="356.9" y2="519.0" stroke="#999"/>
<text x="356.9" y="531.0" text-anchor="end" fill="#e8731a" transform="rotate(-50 356.9 531.0)">07-03</text>
<line x1="414.7" y1="516.0" x2="414.7" y2="519.0" stroke="#999"/>
<text x="414.7" y="531.0" text-anchor="end" fill="#e8731a" transform="rotate(-50 414.7 531.0)">07-06</text>
<line x1="472.4" y1="516.0" x2="472.4" y2="519.0" stroke="#999"/>
<text x="472.4" y="531.0" text-anchor="end" fill="#e8731a" transform="rotate(-50 472.4 531.0)">07-07</text>
<line x1="530.2" y1="516.0" x2="530.2" y2="519.0" stroke="#999"/>
<text x="530.2" y="531.0" text-anchor="end" fill="#e8731a" transform="rotate(-50 530.2 531.0)">07-08</text>
<line x1="588.0" y1="516.0" x2="588.0" y2="519.0" stroke="#999"/>
<text x="588.0" y="531.0" text-anchor="end" fill="#e8731a" transform="rotate(-50 588.0 531.0)">07-09</text>
<line x1="645.8" y1="516.0" x2="645.8" y2="519.0" stroke="#999"/>
<text x="645.8" y="531.0" text-anchor="end" fill="#e8731a" transform="rotate(-50 645.8 531.0)">07-10</text>
<line x1="703.6" y1="516.0" x2="703.6" y2="519.0" stroke="#999"/>
<text x="703.6" y="531.0" text-anchor="end" fill="#e8731a" transform="rotate(-50 703.6 531.0)">07-11</text>
<line x1="761.3" y1="516.0" x2="761.3" y2="519.0" stroke="#999"/>
<text x="761.3" y="531.0" text-anchor="end" fill="#e8731a" transform="rotate(-50 761.3 531.0)">07-14</text>
<line x1="819.1" y1="516.0" x2="819.1" y2="519.0" stroke="#999"/>
<text x="819.1" y="531.0" text-anchor="end" fill="#e8731a" transform="rotate(-50 819.1 531.0)">07-15</text>
<line x1="876.9" y1="516.0" x2="876.9" y2="519.0" stroke="#999"/>
<text x="876.9" y="531.0" text-anchor="end" fill="#e8731a" transform="rotate(-50 876.9 531.0)">07-15</text>
<line x1="934.7" y1="516.0" x2="934.7" y2="519.0" stroke="#999"/>
<text x="934.7" y="531.0" text-anchor="end" fill="#e8731a" transform="rotate(-50 934.7 531.0)">07-16</text>
<line x1="992.4" y1="516.0" x2="992.4" y2="519.0" stroke="#999"/>
<text x="992.4" y="531.0" text-anchor="end" fill="#e8731a" transform="rotate(-50 992.4 531.0)">07-17</text>
<line x1="1050.2" y1="516.0" x2="1050.2" y2="519.0" stroke="#999"/>
<text x="1050.2" y="531.0" text-anchor="end" fill="#e8731a" transform="rotate(-50 1050.2 531.0)">07-18</text>
<line x1="1108.0" y1="516.0" x2="1108.0" y2="519.0" stroke="#999"/>
<text x="1108.0" y="531.0" text-anchor="end" fill="#e8731a" transform="rotate(-50 1108.0 531.0)">07-19</text>
<polygon points="68.0,495.8 125.8,495.9 183.6,496.1 241.3,495.4 299.1,495.7 356.9,496.0 414.7,495.3 472.4,497.3 530.2,496.9 588.0,497.2 645.8,496.6 703.6,497.4 761.3,497.3 819.1,498.3 876.9,498.4 934.7,498.2 992.4,498.0 1050.2,499.9 1108.0,500.1 1108.0,516.0 1050.2,516.0 992.4,516.0 934.7,516.0 876.9,516.0 819.1,516.0 761.3,516.0 703.6,516.0 645.8,516.0 588.0,516.0 530.2,516.0 472.4,516.0 414.7,516.0 356.9,516.0 299.1,516.0 241.3,516.0 183.6,516.0 125.8,516.0 68.0,516.0" fill="#c7e9c0" fill-opacity="0.9" stroke="#fff" stroke-width="0.4"><title>serialize — parseTranslationUnit</title></polygon>
<polygon points="68.0,310.3 125.8,310.0 183.6,311.4 241.3,308.6 299.1,303.4 356.9,301.6 414.7,304.1 472.4,304.8 530.2,304.6 588.0,306.9 645.8,305.1 703.6,303.1 761.3,307.8 819.1,322.0 876.9,321.5 934.7,309.9 992.4,310.0 1050.2,379.8 1108.0,376.0 1108.0,500.1 1050.2,499.9 992.4,498.0 934.7,498.2 876.9,498.4 819.1,498.3 761.3,497.3 703.6,497.4 645.8,496.6 588.0,497.2 530.2,496.9 472.4,497.3 414.7,495.3 356.9,496.0 299.1,495.7 241.3,495.4 183.6,496.1 125.8,495.9 68.0,495.8" fill="#41ab5d" fill-opacity="0.9" stroke="#fff" stroke-width="0.4"><title>serialize — SemanticChecking</title></polygon>
<polygon points="68.0,169.3 125.8,168.8 183.6,169.3 241.3,164.6 299.1,159.9 356.9,160.9 414.7,161.9 472.4,163.5 530.2,161.5 588.0,161.7 645.8,190.3 703.6,188.2 761.3,190.5 819.1,210.5 876.9,210.8 934.7,197.1 992.4,198.8 1050.2,284.9 1108.0,278.2 1108.0,376.0 1050.2,379.8 992.4,310.0 934.7,309.9 876.9,321.5 819.1,322.0 761.3,307.8 703.6,303.1 645.8,305.1 588.0,306.9 530.2,304.6 472.4,304.8 414.7,304.1 356.9,301.6 299.1,303.4 241.3,308.6 183.6,311.4 125.8,310.0 68.0,310.3" fill="#006d2c" fill-opacity="0.9" stroke="#fff" stroke-width="0.4"><title>serialize — generateIR</title></polygon>
<polygon points="68.0,168.8 125.8,168.2 183.6,168.1 241.3,164.3 299.1,159.9 356.9,158.9 414.7,160.2 472.4,162.6 530.2,161.0 588.0,161.2 645.8,188.8 703.6,188.2 761.3,190.5 819.1,210.3 876.9,209.9 934.7,195.4 992.4,198.8 1050.2,284.7 1108.0,278.2 1108.0,278.2 1050.2,284.9 992.4,198.8 934.7,197.1 876.9,210.8 819.1,210.5 761.3,190.5 703.6,188.2 645.8,190.3 588.0,161.7 530.2,161.5 472.4,163.5 414.7,161.9 356.9,160.9 299.1,159.9 241.3,164.6 183.6,169.3 125.8,168.8 68.0,169.3" fill="#74c476" fill-opacity="0.9" stroke="#fff" stroke-width="0.4"><title>serialize — frontEndExecute (self)</title></polygon>
<polygon points="68.0,119.8 125.8,119.2 183.6,116.3 241.3,115.4 299.1,108.6 356.9,108.9 414.7,110.8 472.4,112.0 530.2,109.4 588.0,111.9 645.8,140.6 703.6,130.9 761.3,133.6 819.1,153.9 876.9,153.8 934.7,138.6 992.4,140.7 1050.2,232.5 1108.0,227.4 1108.0,278.2 1050.2,284.7 992.4,198.8 934.7,195.4 876.9,209.9 819.1,210.3 761.3,190.5 703.6,188.2 645.8,188.8 588.0,161.2 530.2,161.0 472.4,162.6 414.7,160.2 356.9,158.9 299.1,159.9 241.3,164.3 183.6,168.1 125.8,168.2 68.0,168.8" fill="#e6550d" fill-opacity="0.9" stroke="#fff" stroke-width="0.4"><title>serialize — generateOutput (self)</title></polygon>
<polygon points="68.0,119.8 125.8,119.2 183.6,116.0 241.3,113.3 299.1,108.6 356.9,108.9 414.7,110.8 472.4,111.1 530.2,109.4 588.0,111.9 645.8,125.4 703.6,130.9 761.3,133.6 819.1,153.9 876.9,153.1 934.7,138.6 992.4,140.7 1050.2,231.3 1108.0,227.4 1108.0,227.4 1050.2,232.5 992.4,140.7 934.7,138.6 876.9,153.8 819.1,153.9 761.3,133.6 703.6,130.9 645.8,140.6 588.0,111.9 530.2,109.4 472.4,112.0 414.7,110.8 356.9,108.9 299.1,108.6 241.3,115.4 183.6,116.3 125.8,119.2 68.0,119.8" fill="#969696" fill-opacity="0.9" stroke="#fff" stroke-width="0.4"><title>serialize — compileInner (self)</title></polygon>
<text x="12" y="578" fill="#666" font-weight="600">phase buckets</text>
<rect x="12" y="586" width="12" height="12" fill="#c7e9c0"/>
<text x="28" y="596" fill="#222">parseTranslationUnit</text>
<rect x="289" y="586" width="12" height="12" fill="#41ab5d"/>
<text x="305" y="596" fill="#222">SemanticChecking</text>
<rect x="566" y="586" width="12" height="12" fill="#006d2c"/>
<text x="582" y="596" fill="#222">generateIR</text>
<rect x="843" y="586" width="12" height="12" fill="#74c476"/>
<text x="859" y="596" fill="#222">frontEndExecute (self)</text>
<rect x="12" y="604" width="12" height="12" fill="#6baed6"/>
<text x="28" y="614" fill="#222">specializeModule</text>
<rect x="289" y="604" width="12" height="12" fill="#2171b5"/>
<text x="305" y="614" fill="#222">simplifyIR</text>
<rect x="566" y="604" width="12" height="12" fill="#08306b"/>
<text x="582" y="614" fill="#222">linkIR</text>
<rect x="843" y="604" width="12" height="12" fill="#9e9ac8"/>
<text x="859" y="614" fill="#222">unrollLoopsInModule</text>
<rect x="12" y="622" width="12" height="12" fill="#807dba"/>
<text x="28" y="632" fill="#222">legalizeResourceTypes</text>
<rect x="289" y="622" width="12" height="12" fill="#6a51a3"/>
<text x="305" y="632" fill="#222">legalizeExistentialTypeLayout</text>
<rect x="566" y="622" width="12" height="12" fill="#bcbddc"/>
<text x="582" y="632" fill="#222">performMandatoryEarlyInlining</text>
<rect x="843" y="622" width="12" height="12" fill="#dadaeb"/>
<text x="859" y="632" fill="#222">performForceInlining</text>
<rect x="12" y="640" width="12" height="12" fill="#4a1486"/>
<text x="28" y="650" fill="#222">linkAndOptimizeIR (self)</text>
<rect x="289" y="640" width="12" height="12" fill="#fd8d3c"/>
<text x="305" y="650" fill="#222">emitEntryPointsSourceFromIR</text>
<rect x="566" y="640" width="12" height="12" fill="#e6550d"/>
<text x="582" y="650" fill="#222">generateOutput (self)</text>
<rect x="843" y="640" width="12" height="12" fill="#969696"/>
<text x="859" y="650" fill="#222">compileInner (self)</text>
</svg>