<svg xmlns="http://www.w3.org/2000/svg" xmlns:xlink="http://www.w3.org/1999/xlink" width="1132" height="680" viewBox="0 0 1132 680" preserveAspectRatio="xMidYMid meet" font-family="sans-serif" font-size="13">
<rect width="1132" height="680" fill="white"/>
<text x="12" y="30" font-size="20" font-weight="bold">serialize — full phase breakdown across releases (median ms)</text>
<text x="68" y="60" font-size="15" font-weight="600" fill="#1a1a1a">serialize<tspan fill="#888" font-weight="400" text-decoration="none">  0.79×</tspan></text>
<line x1="68.0" y1="516.0" x2="1108.0" y2="516.0" stroke="#eee"/>
<text x="64.0" y="519.0" text-anchor="end" fill="#999">0.0</text>
<line x1="68.0" y1="296.0" x2="1108.0" y2="296.0" stroke="#eee"/>
<text x="64.0" y="299.0" text-anchor="end" fill="#999">123</text>
<line x1="68.0" y1="76.0" x2="1108.0" y2="76.0" stroke="#eee"/>
<text x="64.0" y="79.0" text-anchor="end" fill="#999">245</text>
<line x1="68.0" y1="76.0" x2="68.0" y2="516.0" stroke="#333"/>
<line x1="68.0" y1="516.0" x2="1108.0" y2="516.0" stroke="#333"/>
<line x1="920.8" y1="76.0" x2="920.8" y2="516.0" stroke="#e8731a" stroke-width="1.2" stroke-dasharray="4 3"/>
<text x="923.8" y="87.0" fill="#e8731a" font-size="11">daily →</text>
<line x1="68.0" y1="516.0" x2="68.0" y2="519.0" stroke="#999"/>
<text x="68.0" y="531.0" text-anchor="end" fill="#666" transform="rotate(-50 68.0 531.0)">25.14</text>
<line x1="109.6" y1="516.0" x2="109.6" y2="519.0" stroke="#999"/>
<text x="109.6" y="531.0" text-anchor="end" fill="#666" transform="rotate(-50 109.6 531.0)">25.15</text>
<line x1="151.2" y1="516.0" x2="151.2" y2="519.0" stroke="#999"/>
<text x="151.2" y="531.0" text-anchor="end" fill="#666" transform="rotate(-50 151.2 531.0)">25.16</text>
<line x1="192.8" y1="516.0" x2="192.8" y2="519.0" stroke="#999"/>
<text x="192.8" y="531.0" text-anchor="end" fill="#666" transform="rotate(-50 192.8 531.0)">25.17</text>
<line x1="234.4" y1="516.0" x2="234.4" y2="519.0" stroke="#999"/>
<text x="234.4" y="531.0" text-anchor="end" fill="#666" transform="rotate(-50 234.4 531.0)">25.18</text>
<line x1="276.0" y1="516.0" x2="276.0" y2="519.0" stroke="#999"/>
<text x="276.0" y="531.0" text-anchor="end" fill="#666" transform="rotate(-50 276.0 531.0)">25.19</text>
<line x1="317.6" y1="516.0" x2="317.6" y2="519.0" stroke="#999"/>
<text x="317.6" y="531.0" text-anchor="end" fill="#666" transform="rotate(-50 317.6 531.0)">25.20</text>
<line x1="359.2" y1="516.0" x2="359.2" y2="519.0" stroke="#999"/>
<text x="359.2" y="531.0" text-anchor="end" fill="#666" transform="rotate(-50 359.2 531.0)">25.21</text>
<line x1="400.8" y1="516.0" x2="400.8" y2="519.0" stroke="#999"/>
<text x="400.8" y="531.0" text-anchor="end" fill="#666" transform="rotate(-50 400.8 531.0)">25.22</text>
<line x1="442.4" y1="516.0" x2="442.4" y2="519.0" stroke="#999"/>
<text x="442.4" y="531.0" text-anchor="end" fill="#666" transform="rotate(-50 442.4 531.0)">25.23</text>
<line x1="484.0" y1="516.0" x2="484.0" y2="519.0" stroke="#999"/>
<text x="484.0" y="531.0" text-anchor="end" fill="#666" transform="rotate(-50 484.0 531.0)">25.24</text>
<line x1="525.6" y1="516.0" x2="525.6" y2="519.0" stroke="#999"/>
<text x="525.6" y="531.0" text-anchor="end" fill="#666" transform="rotate(-50 525.6 531.0)">26.1</text>
<line x1="567.2" y1="516.0" x2="567.2" y2="519.0" stroke="#999"/>
<text x="567.2" y="531.0" text-anchor="end" fill="#666" transform="rotate(-50 567.2 531.0)">26.2</text>
<line x1="608.8" y1="516.0" x2="608.8" y2="519.0" stroke="#999"/>
<text x="608.8" y="531.0" text-anchor="end" fill="#666" transform="rotate(-50 608.8 531.0)">26.3</text>
<line x1="650.4" y1="516.0" x2="650.4" y2="519.0" stroke="#999"/>
<text x="650.4" y="531.0" text-anchor="end" fill="#666" transform="rotate(-50 650.4 531.0)">26.4</text>
<line x1="692.0" y1="516.0" x2="692.0" y2="519.0" stroke="#999"/>
<text x="692.0" y="531.0" text-anchor="end" fill="#666" transform="rotate(-50 692.0 531.0)">26.5</text>
<line x1="733.6" y1="516.0" x2="733.6" y2="519.0" stroke="#999"/>
<text x="733.6" y="531.0" text-anchor="end" fill="#666" transform="rotate(-50 733.6 531.0)">26.7</text>
<line x1="775.2" y1="516.0" x2="775.2" y2="519.0" stroke="#999"/>
<text x="775.2" y="531.0" text-anchor="end" fill="#666" transform="rotate(-50 775.2 531.0)">26.8</text>
<line x1="816.8" y1="516.0" x2="816.8" y2="519.0" stroke="#999"/>
<text x="816.8" y="531.0" text-anchor="end" fill="#666" transform="rotate(-50 816.8 531.0)">26.9</text>
<line x1="858.4" y1="516.0" x2="858.4" y2="519.0" stroke="#999"/>
<text x="858.4" y="531.0" text-anchor="end" fill="#666" transform="rotate(-50 858.4 531.0)">26.10</text>
<line x1="900.0" y1="516.0" x2="900.0" y2="519.0" stroke="#999"/>
<text x="900.0" y="531.0" text-anchor="end" fill="#666" transform="rotate(-50 900.0 531.0)">26.11</text>
<line x1="941.6" y1="516.0" x2="941.6" y2="519.0" stroke="#999"/>
<text x="941.6" y="531.0" text-anchor="end" fill="#e8731a" transform="rotate(-50 941.6 531.0)">06-25</text>
<line x1="983.2" y1="516.0" x2="983.2" y2="519.0" stroke="#999"/>
<text x="983.2" y="531.0" text-anchor="end" fill="#e8731a" transform="rotate(-50 983.2 531.0)">06-26</text>
<line x1="1024.8" y1="516.0" x2="1024.8" y2="519.0" stroke="#999"/>
<text x="1024.8" y="531.0" text-anchor="end" fill="#e8731a" transform="rotate(-50 1024.8 531.0)">06-28</text>
<line x1="1066.4" y1="516.0" x2="1066.4" y2="519.0" stroke="#999"/>
<text x="1066.4" y="531.0" text-anchor="end" fill="#e8731a" transform="rotate(-50 1066.4 531.0)">07-01</text>
<line x1="1108.0" y1="516.0" x2="1108.0" y2="519.0" stroke="#999"/>
<text x="1108.0" y="531.0" text-anchor="end" fill="#e8731a" transform="rotate(-50 1108.0 531.0)">07-02</text>
<polygon points="68.0,504.5 109.6,504.8 151.2,504.7 192.8,504.8 234.4,504.9 276.0,504.7 317.6,504.6 359.2,504.6 400.8,504.8 442.4,504.8 484.0,503.8 525.6,504.0 567.2,504.4 608.8,504.2 650.4,504.0 692.0,503.5 733.6,503.0 775.2,502.8 816.8,503.3 858.4,503.0 900.0,503.3 941.6,501.8 983.2,501.8 1024.8,502.0 1066.4,501.9 1108.0,501.7 1108.0,516.0 1066.4,516.0 1024.8,516.0 983.2,516.0 941.6,516.0 900.0,516.0 858.4,516.0 816.8,516.0 775.2,516.0 733.6,516.0 692.0,516.0 650.4,516.0 608.8,516.0 567.2,516.0 525.6,516.0 484.0,516.0 442.4,516.0 400.8,516.0 359.2,516.0 317.6,516.0 276.0,516.0 234.4,516.0 192.8,516.0 151.2,516.0 109.6,516.0 68.0,516.0" fill="#c7e9c0" fill-opacity="0.9" stroke="#fff" stroke-width="0.4"><title>serialize — parseTranslationUnit</title></polygon>
<polygon points="68.0,347.2 109.6,329.8 151.2,329.8 192.8,325.5 234.4,326.0 276.0,322.1 317.6,322.7 359.2,326.9 400.8,288.9 442.4,287.8 484.0,287.3 525.6,280.3 567.2,278.8 608.8,279.2 650.4,277.2 692.0,275.6 733.6,262.2 775.2,260.3 816.8,260.5 858.4,257.9 900.0,365.4 941.6,358.3 983.2,358.4 1024.8,359.1 1066.4,360.2 1108.0,355.5 1108.0,501.7 1066.4,501.9 1024.8,502.0 983.2,501.8 941.6,501.8 900.0,503.3 858.4,503.0 816.8,503.3 775.2,502.8 733.6,503.0 692.0,503.5 650.4,504.0 608.8,504.2 567.2,504.4 525.6,504.0 484.0,503.8 442.4,504.8 400.8,504.8 359.2,504.6 317.6,504.6 276.0,504.7 234.4,504.9 192.8,504.8 151.2,504.7 109.6,504.8 68.0,504.5" fill="#41ab5d" fill-opacity="0.9" stroke="#fff" stroke-width="0.4"><title>serialize — SemanticChecking</title></polygon>
<polygon points="68.0,292.3 109.6,274.5 151.2,272.0 192.8,269.3 234.4,269.6 276.0,264.6 317.6,265.4 359.2,269.2 400.8,231.6 442.4,231.3 484.0,231.2 525.6,223.6 567.2,221.3 608.8,222.2 650.4,220.1 692.0,217.9 733.6,159.1 775.2,156.0 816.8,156.7 858.4,152.9 900.0,271.2 941.6,258.3 983.2,258.4 1024.8,259.5 1066.4,259.7 1108.0,255.6 1108.0,355.5 1066.4,360.2 1024.8,359.1 983.2,358.4 941.6,358.3 900.0,365.4 858.4,257.9 816.8,260.5 775.2,260.3 733.6,262.2 692.0,275.6 650.4,277.2 608.8,279.2 567.2,278.8 525.6,280.3 484.0,287.3 442.4,287.8 400.8,288.9 359.2,326.9 317.6,322.7 276.0,322.1 234.4,326.0 192.8,325.5 151.2,329.8 109.6,329.8 68.0,347.2" fill="#006d2c" fill-opacity="0.9" stroke="#fff" stroke-width="0.4"><title>serialize — generateIR</title></polygon>
<polygon points="68.0,292.3 109.6,274.1 151.2,272.0 192.8,269.3 234.4,269.6 276.0,264.5 317.6,264.9 359.2,267.6 400.8,231.6 442.4,231.3 484.0,230.8 525.6,223.1 567.2,221.3 608.8,221.8 650.4,220.1 692.0,217.2 733.6,159.1 775.2,155.9 816.8,155.5 858.4,151.4 900.0,269.9 941.6,257.6 983.2,258.4 1024.8,259.0 1066.4,259.7 1108.0,255.6 1108.0,255.6 1066.4,259.7 1024.8,259.5 983.2,258.4 941.6,258.3 900.0,271.2 858.4,152.9 816.8,156.7 775.2,156.0 733.6,159.1 692.0,217.9 650.4,220.1 608.8,222.2 567.2,221.3 525.6,223.6 484.0,231.2 442.4,231.3 400.8,231.6 359.2,269.2 317.6,265.4 276.0,264.6 234.4,269.6 192.8,269.3 151.2,272.0 109.6,274.5 68.0,292.3" fill="#74c476" fill-opacity="0.9" stroke="#fff" stroke-width="0.4"><title>serialize — frontEndExecute (self)</title></polygon>
<polygon points="68.0,140.9 109.6,123.6 151.2,121.1 192.8,111.7 234.4,108.6 276.0,112.4 317.6,111.9 359.2,114.2 400.8,198.7 442.4,197.9 484.0,197.8 525.6,189.7 567.2,189.0 608.8,188.8 650.4,187.0 692.0,184.7 733.6,126.2 775.2,123.4 816.8,121.3 858.4,119.5 900.0,238.5 941.6,221.4 983.2,221.0 1024.8,223.6 1066.4,224.1 1108.0,220.3 1108.0,255.6 1066.4,259.7 1024.8,259.0 983.2,258.4 941.6,257.6 900.0,269.9 858.4,151.4 816.8,155.5 775.2,155.9 733.6,159.1 692.0,217.2 650.4,220.1 608.8,221.8 567.2,221.3 525.6,223.1 484.0,230.8 442.4,231.3 400.8,231.6 359.2,267.6 317.6,264.9 276.0,264.5 234.4,269.6 192.8,269.3 151.2,272.0 109.6,274.1 68.0,292.3" fill="#e6550d" fill-opacity="0.9" stroke="#fff" stroke-width="0.4"><title>serialize — generateOutput (self)</title></polygon>
<polygon points="68.0,140.9 109.6,123.6 151.2,121.1 192.8,110.9 234.4,108.6 276.0,108.7 317.6,110.8 359.2,112.6 400.8,198.5 442.4,197.6 484.0,197.8 525.6,189.5 567.2,189.0 608.8,188.7 650.4,186.8 692.0,184.0 733.6,126.2 775.2,123.4 816.8,121.2 858.4,119.2 900.0,238.5 941.6,220.3 983.2,220.8 1024.8,222.8 1066.4,224.0 1108.0,220.3 1108.0,220.3 1066.4,224.1 1024.8,223.6 983.2,221.0 941.6,221.4 900.0,238.5 858.4,119.5 816.8,121.3 775.2,123.4 733.6,126.2 692.0,184.7 650.4,187.0 608.8,188.8 567.2,189.0 525.6,189.7 484.0,197.8 442.4,197.9 400.8,198.7 359.2,114.2 317.6,111.9 276.0,112.4 234.4,108.6 192.8,111.7 151.2,121.1 109.6,123.6 68.0,140.9" fill="#969696" fill-opacity="0.9" stroke="#fff" stroke-width="0.4"><title>serialize — compileInner (self)</title></polygon>
<text x="12" y="578" fill="#666" font-weight="600">phase buckets</text>
<rect x="12" y="586" width="12" height="12" fill="#c7e9c0"/>
<text x="28" y="596" fill="#222">parseTranslationUnit</text>
<rect x="289" y="586" width="12" height="12" fill="#41ab5d"/>
<text x="305" y="596" fill="#222">SemanticChecking</text>
<rect x="566" y="586" width="12" height="12" fill="#006d2c"/>
<text x="582" y="596" fill="#222">generateIR</text>
<rect x="843" y="586" width="12" height="12" fill="#74c476"/>
<text x="859" y="596" fill="#222">frontEndExecute (self)</text>
<rect x="12" y="604" width="12" height="12" fill="#6baed6"/>
<text x="28" y="614" fill="#222">specializeModule</text>
<rect x="289" y="604" width="12" height="12" fill="#2171b5"/>
<text x="305" y="614" fill="#222">simplifyIR</text>
<rect x="566" y="604" width="12" height="12" fill="#08306b"/>
<text x="582" y="614" fill="#222">linkIR</text>
<rect x="843" y="604" width="12" height="12" fill="#9e9ac8"/>
<text x="859" y="614" fill="#222">unrollLoopsInModule</text>
<rect x="12" y="622" width="12" height="12" fill="#807dba"/>
<text x="28" y="632" fill="#222">legalizeResourceTypes</text>
<rect x="289" y="622" width="12" height="12" fill="#6a51a3"/>
<text x="305" y="632" fill="#222">legalizeExistentialTypeLayout</text>
<rect x="566" y="622" width="12" height="12" fill="#bcbddc"/>
<text x="582" y="632" fill="#222">performMandatoryEarlyInlining</text>
<rect x="843" y="622" width="12" height="12" fill="#dadaeb"/>
<text x="859" y="632" fill="#222">performForceInlining</text>
<rect x="12" y="640" width="12" height="12" fill="#4a1486"/>
<text x="28" y="650" fill="#222">linkAndOptimizeIR (self)</text>
<rect x="289" y="640" width="12" height="12" fill="#fd8d3c"/>
<text x="305" y="650" fill="#222">emitEntryPointsSourceFromIR</text>
<rect x="566" y="640" width="12" height="12" fill="#e6550d"/>
<text x="582" y="650" fill="#222">generateOutput (self)</text>
<rect x="843" y="640" width="12" height="12" fill="#969696"/>
<text x="859" y="650" fill="#222">compileInner (self)</text>
</svg>