<svg xmlns="http://www.w3.org/2000/svg" xmlns:xlink="http://www.w3.org/1999/xlink" width="1132" height="680" viewBox="0 0 1132 680" preserveAspectRatio="xMidYMid meet" font-family="sans-serif" font-size="13">
<rect width="1132" height="680" fill="white"/>
<text x="12" y="30" font-size="20" font-weight="bold">serialize — full phase breakdown across releases (median ms)</text>
<text x="68" y="60" font-size="15" font-weight="600" fill="#1a1a1a">serialize<tspan fill="#888" font-weight="400" text-decoration="none">  0.85×</tspan></text>
<line x1="68.0" y1="516.0" x2="1108.0" y2="516.0" stroke="#eee"/>
<text x="64.0" y="519.0" text-anchor="end" fill="#999">0.0</text>
<line x1="68.0" y1="296.0" x2="1108.0" y2="296.0" stroke="#eee"/>
<text x="64.0" y="299.0" text-anchor="end" fill="#999">119</text>
<line x1="68.0" y1="76.0" x2="1108.0" y2="76.0" stroke="#eee"/>
<text x="64.0" y="79.0" text-anchor="end" fill="#999">239</text>
<line x1="68.0" y1="76.0" x2="68.0" y2="516.0" stroke="#333"/>
<line x1="68.0" y1="516.0" x2="1108.0" y2="516.0" stroke="#333"/>
<line x1="68.0" y1="516.0" x2="68.0" y2="519.0" stroke="#999"/>
<text x="68.0" y="531.0" text-anchor="end" fill="#666" transform="rotate(-50 68.0 531.0)">26.1</text>
<line x1="183.6" y1="516.0" x2="183.6" y2="519.0" stroke="#999"/>
<text x="183.6" y="531.0" text-anchor="end" fill="#666" transform="rotate(-50 183.6 531.0)">26.2</text>
<line x1="299.1" y1="516.0" x2="299.1" y2="519.0" stroke="#999"/>
<text x="299.1" y="531.0" text-anchor="end" fill="#666" transform="rotate(-50 299.1 531.0)">26.3</text>
<line x1="414.7" y1="516.0" x2="414.7" y2="519.0" stroke="#999"/>
<text x="414.7" y="531.0" text-anchor="end" fill="#666" transform="rotate(-50 414.7 531.0)">26.4</text>
<line x1="530.2" y1="516.0" x2="530.2" y2="519.0" stroke="#999"/>
<text x="530.2" y="531.0" text-anchor="end" fill="#666" transform="rotate(-50 530.2 531.0)">26.5</text>
<line x1="645.8" y1="516.0" x2="645.8" y2="519.0" stroke="#999"/>
<text x="645.8" y="531.0" text-anchor="end" fill="#666" transform="rotate(-50 645.8 531.0)">26.7</text>
<line x1="761.3" y1="516.0" x2="761.3" y2="519.0" stroke="#999"/>
<text x="761.3" y="531.0" text-anchor="end" fill="#666" transform="rotate(-50 761.3 531.0)">26.8</text>
<line x1="876.9" y1="516.0" x2="876.9" y2="519.0" stroke="#999"/>
<text x="876.9" y="531.0" text-anchor="end" fill="#666" transform="rotate(-50 876.9 531.0)">26.9</text>
<line x1="992.4" y1="516.0" x2="992.4" y2="519.0" stroke="#999"/>
<text x="992.4" y="531.0" text-anchor="end" fill="#666" transform="rotate(-50 992.4 531.0)">26.10</text>
<line x1="1108.0" y1="516.0" x2="1108.0" y2="519.0" stroke="#999"/>
<text x="1108.0" y="531.0" text-anchor="end" fill="#666" transform="rotate(-50 1108.0 531.0)">26.11</text>
<polygon points="68.0,503.7 183.6,504.0 299.1,503.9 414.7,503.6 530.2,503.2 645.8,502.6 761.3,502.4 876.9,503.0 992.4,502.6 1108.0,502.9 1108.0,516.0 992.4,516.0 876.9,516.0 761.3,516.0 645.8,516.0 530.2,516.0 414.7,516.0 299.1,516.0 183.6,516.0 68.0,516.0" fill="#c7e9c0" fill-opacity="0.9" stroke="#fff" stroke-width="0.4"><title>serialize — parseTranslationUnit</title></polygon>
<polygon points="68.0,274.0 183.6,272.4 299.1,272.9 414.7,270.9 530.2,269.2 645.8,255.4 761.3,253.5 876.9,253.7 992.4,251.0 1108.0,361.4 1108.0,502.9 992.4,502.6 876.9,503.0 761.3,502.4 645.8,502.6 530.2,503.2 414.7,503.6 299.1,503.9 183.6,504.0 68.0,503.7" fill="#41ab5d" fill-opacity="0.9" stroke="#fff" stroke-width="0.4"><title>serialize — SemanticChecking</title></polygon>
<polygon points="68.0,215.8 183.6,213.5 299.1,214.3 414.7,212.2 530.2,210.0 645.8,149.6 761.3,146.4 876.9,147.1 992.4,143.2 1108.0,264.7 1108.0,361.4 992.4,251.0 876.9,253.7 761.3,253.5 645.8,255.4 530.2,269.2 414.7,270.9 299.1,272.9 183.6,272.4 68.0,274.0" fill="#006d2c" fill-opacity="0.9" stroke="#fff" stroke-width="0.4"><title>serialize — generateIR</title></polygon>
<polygon points="68.0,215.3 183.6,213.5 299.1,214.0 414.7,212.2 530.2,209.3 645.8,149.6 761.3,146.3 876.9,145.9 992.4,141.7 1108.0,263.3 1108.0,264.7 992.4,143.2 876.9,147.1 761.3,146.4 645.8,149.6 530.2,210.0 414.7,212.2 299.1,214.3 183.6,213.5 68.0,215.8" fill="#74c476" fill-opacity="0.9" stroke="#fff" stroke-width="0.4"><title>serialize — frontEndExecute (self)</title></polygon>
<polygon points="68.0,181.0 183.6,180.3 299.1,180.1 414.7,178.2 530.2,175.9 645.8,115.8 761.3,113.0 876.9,110.8 992.4,108.9 1108.0,231.1 1108.0,263.3 992.4,141.7 876.9,145.9 761.3,146.3 645.8,149.6 530.2,209.3 414.7,212.2 299.1,214.0 183.6,213.5 68.0,215.3" fill="#e6550d" fill-opacity="0.9" stroke="#fff" stroke-width="0.4"><title>serialize — generateOutput (self)</title></polygon>
<polygon points="68.0,180.8 183.6,180.3 299.1,180.0 414.7,178.1 530.2,175.2 645.8,115.8 761.3,113.0 876.9,110.7 992.4,108.6 1108.0,231.1 1108.0,231.1 992.4,108.9 876.9,110.8 761.3,113.0 645.8,115.8 530.2,175.9 414.7,178.2 299.1,180.1 183.6,180.3 68.0,181.0" fill="#969696" fill-opacity="0.9" stroke="#fff" stroke-width="0.4"><title>serialize — compileInner (self)</title></polygon>
<text x="12" y="578" fill="#666" font-weight="600">phase buckets</text>
<rect x="12" y="586" width="12" height="12" fill="#c7e9c0"/>
<text x="28" y="596" fill="#222">parseTranslationUnit</text>
<rect x="289" y="586" width="12" height="12" fill="#41ab5d"/>
<text x="305" y="596" fill="#222">SemanticChecking</text>
<rect x="566" y="586" width="12" height="12" fill="#006d2c"/>
<text x="582" y="596" fill="#222">generateIR</text>
<rect x="843" y="586" width="12" height="12" fill="#74c476"/>
<text x="859" y="596" fill="#222">frontEndExecute (self)</text>
<rect x="12" y="604" width="12" height="12" fill="#6baed6"/>
<text x="28" y="614" fill="#222">specializeModule</text>
<rect x="289" y="604" width="12" height="12" fill="#2171b5"/>
<text x="305" y="614" fill="#222">simplifyIR</text>
<rect x="566" y="604" width="12" height="12" fill="#08306b"/>
<text x="582" y="614" fill="#222">linkIR</text>
<rect x="843" y="604" width="12" height="12" fill="#9e9ac8"/>
<text x="859" y="614" fill="#222">unrollLoopsInModule</text>
<rect x="12" y="622" width="12" height="12" fill="#807dba"/>
<text x="28" y="632" fill="#222">legalizeResourceTypes</text>
<rect x="289" y="622" width="12" height="12" fill="#6a51a3"/>
<text x="305" y="632" fill="#222">legalizeExistentialTypeLayout</text>
<rect x="566" y="622" width="12" height="12" fill="#bcbddc"/>
<text x="582" y="632" fill="#222">performMandatoryEarlyInlining</text>
<rect x="843" y="622" width="12" height="12" fill="#dadaeb"/>
<text x="859" y="632" fill="#222">performForceInlining</text>
<rect x="12" y="640" width="12" height="12" fill="#4a1486"/>
<text x="28" y="650" fill="#222">linkAndOptimizeIR (self)</text>
<rect x="289" y="640" width="12" height="12" fill="#fd8d3c"/>
<text x="305" y="650" fill="#222">emitEntryPointsSourceFromIR</text>
<rect x="566" y="640" width="12" height="12" fill="#e6550d"/>
<text x="582" y="650" fill="#222">generateOutput (self)</text>
<rect x="843" y="640" width="12" height="12" fill="#969696"/>
<text x="859" y="650" fill="#222">compileInner (self)</text>
</svg>