<svg xmlns="http://www.w3.org/2000/svg" xmlns:xlink="http://www.w3.org/1999/xlink" width="1132" height="680" viewBox="0 0 1132 680" preserveAspectRatio="xMidYMid meet" font-family="sans-serif" font-size="13">
<rect width="1132" height="680" fill="white"/>
<text x="12" y="30" font-size="20" font-weight="bold">serialize — full phase breakdown across releases (median ms)</text>
<text x="68" y="60" font-size="15" font-weight="600" fill="#1a1a1a">serialize<tspan fill="#888" font-weight="400" text-decoration="none">  0.76×</tspan></text>
<line x1="68.0" y1="516.0" x2="1108.0" y2="516.0" stroke="#eee"/>
<text x="64.0" y="519.0" text-anchor="end" fill="#999">0.0</text>
<line x1="68.0" y1="296.0" x2="1108.0" y2="296.0" stroke="#eee"/>
<text x="64.0" y="299.0" text-anchor="end" fill="#999">136</text>
<line x1="68.0" y1="76.0" x2="1108.0" y2="76.0" stroke="#eee"/>
<text x="64.0" y="79.0" text-anchor="end" fill="#999">273</text>
<line x1="68.0" y1="76.0" x2="68.0" y2="516.0" stroke="#333"/>
<line x1="68.0" y1="516.0" x2="1108.0" y2="516.0" stroke="#333"/>
<line x1="672.3" y1="76.0" x2="672.3" y2="516.0" stroke="#e8731a" stroke-width="1.2" stroke-dasharray="4 3"/>
<text x="675.3" y="87.0" fill="#e8731a" font-size="11">daily →</text>
<line x1="68.0" y1="516.0" x2="68.0" y2="519.0" stroke="#999"/>
<text x="68.0" y="531.0" text-anchor="end" fill="#666" transform="rotate(-50 68.0 531.0)">25.14</text>
<line x1="96.1" y1="516.0" x2="96.1" y2="519.0" stroke="#999"/>
<text x="96.1" y="531.0" text-anchor="end" fill="#666" transform="rotate(-50 96.1 531.0)">25.15</text>
<line x1="124.2" y1="516.0" x2="124.2" y2="519.0" stroke="#999"/>
<text x="124.2" y="531.0" text-anchor="end" fill="#666" transform="rotate(-50 124.2 531.0)">25.16</text>
<line x1="152.3" y1="516.0" x2="152.3" y2="519.0" stroke="#999"/>
<text x="152.3" y="531.0" text-anchor="end" fill="#666" transform="rotate(-50 152.3 531.0)">25.17</text>
<line x1="180.4" y1="516.0" x2="180.4" y2="519.0" stroke="#999"/>
<text x="180.4" y="531.0" text-anchor="end" fill="#666" transform="rotate(-50 180.4 531.0)">25.18</text>
<line x1="208.5" y1="516.0" x2="208.5" y2="519.0" stroke="#999"/>
<text x="208.5" y="531.0" text-anchor="end" fill="#666" transform="rotate(-50 208.5 531.0)">25.19</text>
<line x1="236.6" y1="516.0" x2="236.6" y2="519.0" stroke="#999"/>
<text x="236.6" y="531.0" text-anchor="end" fill="#666" transform="rotate(-50 236.6 531.0)">25.20</text>
<line x1="264.8" y1="516.0" x2="264.8" y2="519.0" stroke="#999"/>
<text x="264.8" y="531.0" text-anchor="end" fill="#666" transform="rotate(-50 264.8 531.0)">25.21</text>
<line x1="292.9" y1="516.0" x2="292.9" y2="519.0" stroke="#999"/>
<text x="292.9" y="531.0" text-anchor="end" fill="#666" transform="rotate(-50 292.9 531.0)">25.22</text>
<line x1="321.0" y1="516.0" x2="321.0" y2="519.0" stroke="#999"/>
<text x="321.0" y="531.0" text-anchor="end" fill="#666" transform="rotate(-50 321.0 531.0)">25.23</text>
<line x1="349.1" y1="516.0" x2="349.1" y2="519.0" stroke="#999"/>
<text x="349.1" y="531.0" text-anchor="end" fill="#666" transform="rotate(-50 349.1 531.0)">25.24</text>
<line x1="377.2" y1="516.0" x2="377.2" y2="519.0" stroke="#999"/>
<text x="377.2" y="531.0" text-anchor="end" fill="#666" transform="rotate(-50 377.2 531.0)">26.1</text>
<line x1="405.3" y1="516.0" x2="405.3" y2="519.0" stroke="#999"/>
<text x="405.3" y="531.0" text-anchor="end" fill="#666" transform="rotate(-50 405.3 531.0)">26.2</text>
<line x1="433.4" y1="516.0" x2="433.4" y2="519.0" stroke="#999"/>
<text x="433.4" y="531.0" text-anchor="end" fill="#666" transform="rotate(-50 433.4 531.0)">26.3</text>
<line x1="461.5" y1="516.0" x2="461.5" y2="519.0" stroke="#999"/>
<text x="461.5" y="531.0" text-anchor="end" fill="#666" transform="rotate(-50 461.5 531.0)">26.4</text>
<line x1="489.6" y1="516.0" x2="489.6" y2="519.0" stroke="#999"/>
<text x="489.6" y="531.0" text-anchor="end" fill="#666" transform="rotate(-50 489.6 531.0)">26.5</text>
<line x1="517.7" y1="516.0" x2="517.7" y2="519.0" stroke="#999"/>
<text x="517.7" y="531.0" text-anchor="end" fill="#666" transform="rotate(-50 517.7 531.0)">26.7</text>
<line x1="545.8" y1="516.0" x2="545.8" y2="519.0" stroke="#999"/>
<text x="545.8" y="531.0" text-anchor="end" fill="#666" transform="rotate(-50 545.8 531.0)">26.8</text>
<line x1="573.9" y1="516.0" x2="573.9" y2="519.0" stroke="#999"/>
<text x="573.9" y="531.0" text-anchor="end" fill="#666" transform="rotate(-50 573.9 531.0)">26.9</text>
<line x1="602.1" y1="516.0" x2="602.1" y2="519.0" stroke="#999"/>
<text x="602.1" y="531.0" text-anchor="end" fill="#666" transform="rotate(-50 602.1 531.0)">26.10</text>
<line x1="630.2" y1="516.0" x2="630.2" y2="519.0" stroke="#999"/>
<text x="630.2" y="531.0" text-anchor="end" fill="#666" transform="rotate(-50 630.2 531.0)">26.11</text>
<line x1="658.3" y1="516.0" x2="658.3" y2="519.0" stroke="#999"/>
<text x="658.3" y="531.0" text-anchor="end" fill="#666" transform="rotate(-50 658.3 531.0)">26.12</text>
<line x1="686.4" y1="516.0" x2="686.4" y2="519.0" stroke="#999"/>
<text x="686.4" y="531.0" text-anchor="end" fill="#e8731a" transform="rotate(-50 686.4 531.0)">06-25</text>
<line x1="714.5" y1="516.0" x2="714.5" y2="519.0" stroke="#999"/>
<text x="714.5" y="531.0" text-anchor="end" fill="#e8731a" transform="rotate(-50 714.5 531.0)">06-26</text>
<line x1="742.6" y1="516.0" x2="742.6" y2="519.0" stroke="#999"/>
<text x="742.6" y="531.0" text-anchor="end" fill="#e8731a" transform="rotate(-50 742.6 531.0)">06-28</text>
<line x1="770.7" y1="516.0" x2="770.7" y2="519.0" stroke="#999"/>
<text x="770.7" y="531.0" text-anchor="end" fill="#e8731a" transform="rotate(-50 770.7 531.0)">07-01</text>
<line x1="798.8" y1="516.0" x2="798.8" y2="519.0" stroke="#999"/>
<text x="798.8" y="531.0" text-anchor="end" fill="#e8731a" transform="rotate(-50 798.8 531.0)">07-02</text>
<line x1="826.9" y1="516.0" x2="826.9" y2="519.0" stroke="#999"/>
<text x="826.9" y="531.0" text-anchor="end" fill="#e8731a" transform="rotate(-50 826.9 531.0)">07-03</text>
<line x1="855.0" y1="516.0" x2="855.0" y2="519.0" stroke="#999"/>
<text x="855.0" y="531.0" text-anchor="end" fill="#e8731a" transform="rotate(-50 855.0 531.0)">07-06</text>
<line x1="883.1" y1="516.0" x2="883.1" y2="519.0" stroke="#999"/>
<text x="883.1" y="531.0" text-anchor="end" fill="#e8731a" transform="rotate(-50 883.1 531.0)">07-07</text>
<line x1="911.2" y1="516.0" x2="911.2" y2="519.0" stroke="#999"/>
<text x="911.2" y="531.0" text-anchor="end" fill="#e8731a" transform="rotate(-50 911.2 531.0)">07-07</text>
<line x1="939.4" y1="516.0" x2="939.4" y2="519.0" stroke="#999"/>
<text x="939.4" y="531.0" text-anchor="end" fill="#e8731a" transform="rotate(-50 939.4 531.0)">07-08</text>
<line x1="967.5" y1="516.0" x2="967.5" y2="519.0" stroke="#999"/>
<text x="967.5" y="531.0" text-anchor="end" fill="#e8731a" transform="rotate(-50 967.5 531.0)">07-09</text>
<line x1="995.6" y1="516.0" x2="995.6" y2="519.0" stroke="#999"/>
<text x="995.6" y="531.0" text-anchor="end" fill="#e8731a" transform="rotate(-50 995.6 531.0)">07-09</text>
<line x1="1023.7" y1="516.0" x2="1023.7" y2="519.0" stroke="#999"/>
<text x="1023.7" y="531.0" text-anchor="end" fill="#e8731a" transform="rotate(-50 1023.7 531.0)">07-10</text>
<line x1="1051.8" y1="516.0" x2="1051.8" y2="519.0" stroke="#999"/>
<text x="1051.8" y="531.0" text-anchor="end" fill="#e8731a" transform="rotate(-50 1051.8 531.0)">07-10</text>
<line x1="1079.9" y1="516.0" x2="1079.9" y2="519.0" stroke="#999"/>
<text x="1079.9" y="531.0" text-anchor="end" fill="#e8731a" transform="rotate(-50 1079.9 531.0)">07-11</text>
<line x1="1108.0" y1="516.0" x2="1108.0" y2="519.0" stroke="#999"/>
<text x="1108.0" y="531.0" text-anchor="end" fill="#e8731a" transform="rotate(-50 1108.0 531.0)">07-11</text>
<polygon points="68.0,505.6 96.1,505.1 124.2,505.3 152.3,505.6 180.4,505.1 208.5,505.3 236.6,505.4 264.8,504.9 292.9,505.4 321.0,504.1 349.1,504.9 377.2,505.0 405.3,505.2 433.4,505.2 461.5,505.2 489.6,504.6 517.7,504.5 545.8,504.7 573.9,504.6 602.1,504.5 630.2,504.8 658.3,504.6 686.4,502.9 714.5,502.8 742.6,502.7 770.7,503.2 798.8,502.9 826.9,502.9 855.0,502.4 883.1,503.6 911.2,503.7 939.4,503.5 967.5,503.8 995.6,503.7 1023.7,503.5 1051.8,503.3 1079.9,503.5 1108.0,503.8 1108.0,516.0 1079.9,516.0 1051.8,516.0 1023.7,516.0 995.6,516.0 967.5,516.0 939.4,516.0 911.2,516.0 883.1,516.0 855.0,516.0 826.9,516.0 798.8,516.0 770.7,516.0 742.6,516.0 714.5,516.0 686.4,516.0 658.3,516.0 630.2,516.0 602.1,516.0 573.9,516.0 545.8,516.0 517.7,516.0 489.6,516.0 461.5,516.0 433.4,516.0 405.3,516.0 377.2,516.0 349.1,516.0 321.0,516.0 292.9,516.0 264.8,516.0 236.6,516.0 208.5,516.0 180.4,516.0 152.3,516.0 124.2,516.0 96.1,516.0 68.0,516.0" fill="#c7e9c0" fill-opacity="0.9" stroke="#fff" stroke-width="0.4"><title>serialize — parseTranslationUnit</title></polygon>
<polygon points="68.0,364.7 96.1,348.8 124.2,340.0 152.3,342.3 180.4,332.5 208.5,335.6 236.6,333.4 264.8,330.5 292.9,310.6 321.0,299.7 349.1,306.2 377.2,310.6 405.3,310.6 433.4,311.7 461.5,311.6 489.6,309.1 517.7,293.8 545.8,294.8 573.9,295.6 602.1,291.8 630.2,388.3 658.3,381.4 686.4,378.3 714.5,378.6 742.6,379.5 770.7,379.6 798.8,376.3 826.9,375.3 855.0,376.9 883.1,378.4 911.2,377.4 939.4,377.3 967.5,376.6 995.6,378.8 1023.7,377.6 1051.8,377.6 1079.9,378.6 1108.0,376.3 1108.0,503.8 1079.9,503.5 1051.8,503.3 1023.7,503.5 995.6,503.7 967.5,503.8 939.4,503.5 911.2,503.7 883.1,503.6 855.0,502.4 826.9,502.9 798.8,502.9 770.7,503.2 742.6,502.7 714.5,502.8 686.4,502.9 658.3,504.6 630.2,504.8 602.1,504.5 573.9,504.6 545.8,504.7 517.7,504.5 489.6,504.6 461.5,505.2 433.4,505.2 405.3,505.2 377.2,505.0 349.1,504.9 321.0,504.1 292.9,505.4 264.8,504.9 236.6,505.4 208.5,505.3 180.4,505.1 152.3,505.6 124.2,505.3 96.1,505.1 68.0,505.6" fill="#41ab5d" fill-opacity="0.9" stroke="#fff" stroke-width="0.4"><title>serialize — SemanticChecking</title></polygon>
<polygon points="68.0,314.2 96.1,295.8 124.2,284.0 152.3,289.2 180.4,277.1 208.5,279.4 236.6,275.7 264.8,269.4 292.9,256.0 321.0,243.2 349.1,252.2 377.2,257.2 405.3,258.2 433.4,260.4 461.5,260.4 489.6,256.1 517.7,200.0 545.8,197.6 573.9,201.2 602.1,195.7 630.2,302.6 658.3,295.4 686.4,286.6 714.5,286.8 742.6,285.8 770.7,285.2 798.8,283.8 826.9,282.9 855.0,283.6 883.1,284.9 911.2,284.7 939.4,283.4 967.5,283.5 995.6,283.5 1023.7,301.9 1051.8,302.3 1079.9,302.1 1108.0,300.9 1108.0,376.3 1079.9,378.6 1051.8,377.6 1023.7,377.6 995.6,378.8 967.5,376.6 939.4,377.3 911.2,377.4 883.1,378.4 855.0,376.9 826.9,375.3 798.8,376.3 770.7,379.6 742.6,379.5 714.5,378.6 686.4,378.3 658.3,381.4 630.2,388.3 602.1,291.8 573.9,295.6 545.8,294.8 517.7,293.8 489.6,309.1 461.5,311.6 433.4,311.7 405.3,310.6 377.2,310.6 349.1,306.2 321.0,299.7 292.9,310.6 264.8,330.5 236.6,333.4 208.5,335.6 180.4,332.5 152.3,342.3 124.2,340.0 96.1,348.8 68.0,364.7" fill="#006d2c" fill-opacity="0.9" stroke="#fff" stroke-width="0.4"><title>serialize — generateIR</title></polygon>
<polygon points="68.0,314.2 96.1,295.8 124.2,284.0 152.3,289.0 180.4,275.4 208.5,279.4 236.6,275.7 264.8,269.4 292.9,255.4 321.0,242.6 349.1,250.1 377.2,254.6 405.3,255.1 433.4,260.4 461.5,259.7 489.6,255.4 517.7,198.4 545.8,197.6 573.9,200.6 602.1,195.7 630.2,301.1 658.3,294.1 686.4,285.8 714.5,284.5 742.6,285.4 770.7,285.2 798.8,283.8 826.9,281.6 855.0,282.5 883.1,284.9 911.2,284.1 939.4,283.0 967.5,283.1 995.6,283.1 1023.7,301.8 1051.8,301.3 1079.9,300.1 1108.0,300.9 1108.0,300.9 1079.9,302.1 1051.8,302.3 1023.7,301.9 995.6,283.5 967.5,283.5 939.4,283.4 911.2,284.7 883.1,284.9 855.0,283.6 826.9,282.9 798.8,283.8 770.7,285.2 742.6,285.8 714.5,286.8 686.4,286.6 658.3,295.4 630.2,302.6 602.1,195.7 573.9,201.2 545.8,197.6 517.7,200.0 489.6,256.1 461.5,260.4 433.4,260.4 405.3,258.2 377.2,257.2 349.1,252.2 321.0,243.2 292.9,256.0 264.8,269.4 236.6,275.7 208.5,279.4 180.4,277.1 152.3,289.2 124.2,284.0 96.1,295.8 68.0,314.2" fill="#74c476" fill-opacity="0.9" stroke="#fff" stroke-width="0.4"><title>serialize — frontEndExecute (self)</title></polygon>
<polygon points="68.0,185.5 96.1,161.6 124.2,141.5 152.3,147.1 180.4,118.4 208.5,130.5 236.6,130.1 264.8,108.6 292.9,225.7 321.0,212.4 349.1,221.1 377.2,225.8 405.3,226.0 433.4,232.1 461.5,231.4 489.6,226.7 517.7,170.3 545.8,169.5 573.9,172.1 602.1,167.7 630.2,273.8 658.3,265.8 686.4,252.5 714.5,252.3 742.6,251.5 770.7,252.6 798.8,250.6 826.9,248.8 855.0,250.1 883.1,250.9 911.2,250.9 939.4,249.1 967.5,250.9 995.6,250.8 1023.7,269.6 1051.8,269.6 1079.9,268.2 1108.0,263.3 1108.0,300.9 1079.9,300.1 1051.8,301.3 1023.7,301.8 995.6,283.1 967.5,283.1 939.4,283.0 911.2,284.1 883.1,284.9 855.0,282.5 826.9,281.6 798.8,283.8 770.7,285.2 742.6,285.4 714.5,284.5 686.4,285.8 658.3,294.1 630.2,301.1 602.1,195.7 573.9,200.6 545.8,197.6 517.7,198.4 489.6,255.4 461.5,259.7 433.4,260.4 405.3,255.1 377.2,254.6 349.1,250.1 321.0,242.6 292.9,255.4 264.8,269.4 236.6,275.7 208.5,279.4 180.4,275.4 152.3,289.0 124.2,284.0 96.1,295.8 68.0,314.2" fill="#e6550d" fill-opacity="0.9" stroke="#fff" stroke-width="0.4"><title>serialize — generateOutput (self)</title></polygon>
<polygon points="68.0,182.4 96.1,161.6 124.2,141.5 152.3,147.1 180.4,117.9 208.5,130.5 236.6,130.1 264.8,108.6 292.9,225.7 321.0,212.4 349.1,221.1 377.2,225.8 405.3,225.8 433.4,232.1 461.5,231.4 489.6,226.3 517.7,170.3 545.8,169.5 573.9,172.1 602.1,167.0 630.2,273.0 658.3,265.8 686.4,252.1 714.5,252.3 742.6,251.5 770.7,252.6 798.8,250.6 826.9,248.8 855.0,250.1 883.1,250.9 911.2,250.3 939.4,249.1 967.5,250.4 995.6,250.8 1023.7,269.6 1051.8,259.7 1079.9,267.7 1108.0,263.3 1108.0,263.3 1079.9,268.2 1051.8,269.6 1023.7,269.6 995.6,250.8 967.5,250.9 939.4,249.1 911.2,250.9 883.1,250.9 855.0,250.1 826.9,248.8 798.8,250.6 770.7,252.6 742.6,251.5 714.5,252.3 686.4,252.5 658.3,265.8 630.2,273.8 602.1,167.7 573.9,172.1 545.8,169.5 517.7,170.3 489.6,226.7 461.5,231.4 433.4,232.1 405.3,226.0 377.2,225.8 349.1,221.1 321.0,212.4 292.9,225.7 264.8,108.6 236.6,130.1 208.5,130.5 180.4,118.4 152.3,147.1 124.2,141.5 96.1,161.6 68.0,185.5" fill="#969696" fill-opacity="0.9" stroke="#fff" stroke-width="0.4"><title>serialize — compileInner (self)</title></polygon>
<text x="12" y="578" fill="#666" font-weight="600">phase buckets</text>
<rect x="12" y="586" width="12" height="12" fill="#c7e9c0"/>
<text x="28" y="596" fill="#222">parseTranslationUnit</text>
<rect x="289" y="586" width="12" height="12" fill="#41ab5d"/>
<text x="305" y="596" fill="#222">SemanticChecking</text>
<rect x="566" y="586" width="12" height="12" fill="#006d2c"/>
<text x="582" y="596" fill="#222">generateIR</text>
<rect x="843" y="586" width="12" height="12" fill="#74c476"/>
<text x="859" y="596" fill="#222">frontEndExecute (self)</text>
<rect x="12" y="604" width="12" height="12" fill="#6baed6"/>
<text x="28" y="614" fill="#222">specializeModule</text>
<rect x="289" y="604" width="12" height="12" fill="#2171b5"/>
<text x="305" y="614" fill="#222">simplifyIR</text>
<rect x="566" y="604" width="12" height="12" fill="#08306b"/>
<text x="582" y="614" fill="#222">linkIR</text>
<rect x="843" y="604" width="12" height="12" fill="#9e9ac8"/>
<text x="859" y="614" fill="#222">unrollLoopsInModule</text>
<rect x="12" y="622" width="12" height="12" fill="#807dba"/>
<text x="28" y="632" fill="#222">legalizeResourceTypes</text>
<rect x="289" y="622" width="12" height="12" fill="#6a51a3"/>
<text x="305" y="632" fill="#222">legalizeExistentialTypeLayout</text>
<rect x="566" y="622" width="12" height="12" fill="#bcbddc"/>
<text x="582" y="632" fill="#222">performMandatoryEarlyInlining</text>
<rect x="843" y="622" width="12" height="12" fill="#dadaeb"/>
<text x="859" y="632" fill="#222">performForceInlining</text>
<rect x="12" y="640" width="12" height="12" fill="#4a1486"/>
<text x="28" y="650" fill="#222">linkAndOptimizeIR (self)</text>
<rect x="289" y="640" width="12" height="12" fill="#fd8d3c"/>
<text x="305" y="650" fill="#222">emitEntryPointsSourceFromIR</text>
<rect x="566" y="640" width="12" height="12" fill="#e6550d"/>
<text x="582" y="650" fill="#222">generateOutput (self)</text>
<rect x="843" y="640" width="12" height="12" fill="#969696"/>
<text x="859" y="650" fill="#222">compileInner (self)</text>
</svg>