<svg xmlns="http://www.w3.org/2000/svg" xmlns:xlink="http://www.w3.org/1999/xlink" width="1132" height="680" viewBox="0 0 1132 680" preserveAspectRatio="xMidYMid meet" font-family="sans-serif" font-size="13">
<rect width="1132" height="680" fill="white"/>
<text x="12" y="30" font-size="20" font-weight="bold">serialize — full phase breakdown across releases (median ms)</text>
<text x="68" y="60" font-size="15" font-weight="600" fill="#1a1a1a">serialize<tspan fill="#888" font-weight="400" text-decoration="none">  0.80×</tspan></text>
<line x1="68.0" y1="516.0" x2="1108.0" y2="516.0" stroke="#eee"/>
<text x="64.0" y="519.0" text-anchor="end" fill="#999">0.0</text>
<line x1="68.0" y1="296.0" x2="1108.0" y2="296.0" stroke="#eee"/>
<text x="64.0" y="299.0" text-anchor="end" fill="#999">123</text>
<line x1="68.0" y1="76.0" x2="1108.0" y2="76.0" stroke="#eee"/>
<text x="64.0" y="79.0" text-anchor="end" fill="#999">245</text>
<line x1="68.0" y1="76.0" x2="68.0" y2="516.0" stroke="#333"/>
<line x1="68.0" y1="516.0" x2="1108.0" y2="516.0" stroke="#333"/>
<line x1="888.0" y1="76.0" x2="888.0" y2="516.0" stroke="#e8731a" stroke-width="1.2" stroke-dasharray="4 3"/>
<text x="891.0" y="87.0" fill="#e8731a" font-size="11">daily →</text>
<line x1="68.0" y1="516.0" x2="68.0" y2="519.0" stroke="#999"/>
<text x="68.0" y="531.0" text-anchor="end" fill="#666" transform="rotate(-50 68.0 531.0)">25.14</text>
<line x1="108.0" y1="516.0" x2="108.0" y2="519.0" stroke="#999"/>
<text x="108.0" y="531.0" text-anchor="end" fill="#666" transform="rotate(-50 108.0 531.0)">25.15</text>
<line x1="148.0" y1="516.0" x2="148.0" y2="519.0" stroke="#999"/>
<text x="148.0" y="531.0" text-anchor="end" fill="#666" transform="rotate(-50 148.0 531.0)">25.16</text>
<line x1="188.0" y1="516.0" x2="188.0" y2="519.0" stroke="#999"/>
<text x="188.0" y="531.0" text-anchor="end" fill="#666" transform="rotate(-50 188.0 531.0)">25.17</text>
<line x1="228.0" y1="516.0" x2="228.0" y2="519.0" stroke="#999"/>
<text x="228.0" y="531.0" text-anchor="end" fill="#666" transform="rotate(-50 228.0 531.0)">25.18</text>
<line x1="268.0" y1="516.0" x2="268.0" y2="519.0" stroke="#999"/>
<text x="268.0" y="531.0" text-anchor="end" fill="#666" transform="rotate(-50 268.0 531.0)">25.19</text>
<line x1="308.0" y1="516.0" x2="308.0" y2="519.0" stroke="#999"/>
<text x="308.0" y="531.0" text-anchor="end" fill="#666" transform="rotate(-50 308.0 531.0)">25.20</text>
<line x1="348.0" y1="516.0" x2="348.0" y2="519.0" stroke="#999"/>
<text x="348.0" y="531.0" text-anchor="end" fill="#666" transform="rotate(-50 348.0 531.0)">25.21</text>
<line x1="388.0" y1="516.0" x2="388.0" y2="519.0" stroke="#999"/>
<text x="388.0" y="531.0" text-anchor="end" fill="#666" transform="rotate(-50 388.0 531.0)">25.22</text>
<line x1="428.0" y1="516.0" x2="428.0" y2="519.0" stroke="#999"/>
<text x="428.0" y="531.0" text-anchor="end" fill="#666" transform="rotate(-50 428.0 531.0)">25.23</text>
<line x1="468.0" y1="516.0" x2="468.0" y2="519.0" stroke="#999"/>
<text x="468.0" y="531.0" text-anchor="end" fill="#666" transform="rotate(-50 468.0 531.0)">25.24</text>
<line x1="508.0" y1="516.0" x2="508.0" y2="519.0" stroke="#999"/>
<text x="508.0" y="531.0" text-anchor="end" fill="#666" transform="rotate(-50 508.0 531.0)">26.1</text>
<line x1="548.0" y1="516.0" x2="548.0" y2="519.0" stroke="#999"/>
<text x="548.0" y="531.0" text-anchor="end" fill="#666" transform="rotate(-50 548.0 531.0)">26.2</text>
<line x1="588.0" y1="516.0" x2="588.0" y2="519.0" stroke="#999"/>
<text x="588.0" y="531.0" text-anchor="end" fill="#666" transform="rotate(-50 588.0 531.0)">26.3</text>
<line x1="628.0" y1="516.0" x2="628.0" y2="519.0" stroke="#999"/>
<text x="628.0" y="531.0" text-anchor="end" fill="#666" transform="rotate(-50 628.0 531.0)">26.4</text>
<line x1="668.0" y1="516.0" x2="668.0" y2="519.0" stroke="#999"/>
<text x="668.0" y="531.0" text-anchor="end" fill="#666" transform="rotate(-50 668.0 531.0)">26.5</text>
<line x1="708.0" y1="516.0" x2="708.0" y2="519.0" stroke="#999"/>
<text x="708.0" y="531.0" text-anchor="end" fill="#666" transform="rotate(-50 708.0 531.0)">26.7</text>
<line x1="748.0" y1="516.0" x2="748.0" y2="519.0" stroke="#999"/>
<text x="748.0" y="531.0" text-anchor="end" fill="#666" transform="rotate(-50 748.0 531.0)">26.8</text>
<line x1="788.0" y1="516.0" x2="788.0" y2="519.0" stroke="#999"/>
<text x="788.0" y="531.0" text-anchor="end" fill="#666" transform="rotate(-50 788.0 531.0)">26.9</text>
<line x1="828.0" y1="516.0" x2="828.0" y2="519.0" stroke="#999"/>
<text x="828.0" y="531.0" text-anchor="end" fill="#666" transform="rotate(-50 828.0 531.0)">26.10</text>
<line x1="868.0" y1="516.0" x2="868.0" y2="519.0" stroke="#999"/>
<text x="868.0" y="531.0" text-anchor="end" fill="#666" transform="rotate(-50 868.0 531.0)">26.11</text>
<line x1="908.0" y1="516.0" x2="908.0" y2="519.0" stroke="#999"/>
<text x="908.0" y="531.0" text-anchor="end" fill="#e8731a" transform="rotate(-50 908.0 531.0)">06-25</text>
<line x1="948.0" y1="516.0" x2="948.0" y2="519.0" stroke="#999"/>
<text x="948.0" y="531.0" text-anchor="end" fill="#e8731a" transform="rotate(-50 948.0 531.0)">06-26</text>
<line x1="988.0" y1="516.0" x2="988.0" y2="519.0" stroke="#999"/>
<text x="988.0" y="531.0" text-anchor="end" fill="#e8731a" transform="rotate(-50 988.0 531.0)">06-28</text>
<line x1="1028.0" y1="516.0" x2="1028.0" y2="519.0" stroke="#999"/>
<text x="1028.0" y="531.0" text-anchor="end" fill="#e8731a" transform="rotate(-50 1028.0 531.0)">07-01</text>
<line x1="1068.0" y1="516.0" x2="1068.0" y2="519.0" stroke="#999"/>
<text x="1068.0" y="531.0" text-anchor="end" fill="#e8731a" transform="rotate(-50 1068.0 531.0)">07-02</text>
<line x1="1108.0" y1="516.0" x2="1108.0" y2="519.0" stroke="#999"/>
<text x="1108.0" y="531.0" text-anchor="end" fill="#e8731a" transform="rotate(-50 1108.0 531.0)">07-03</text>
<polygon points="68.0,504.5 108.0,504.8 148.0,504.7 188.0,504.8 228.0,504.9 268.0,504.7 308.0,504.6 348.0,504.6 388.0,504.8 428.0,504.8 468.0,503.8 508.0,504.0 548.0,504.4 588.0,504.2 628.0,504.0 668.0,503.5 708.0,503.0 748.0,502.8 788.0,503.3 828.0,503.0 868.0,503.3 908.0,501.4 948.0,501.8 988.0,502.0 1028.0,501.9 1068.0,501.4 1108.0,500.9 1108.0,516.0 1068.0,516.0 1028.0,516.0 988.0,516.0 948.0,516.0 908.0,516.0 868.0,516.0 828.0,516.0 788.0,516.0 748.0,516.0 708.0,516.0 668.0,516.0 628.0,516.0 588.0,516.0 548.0,516.0 508.0,516.0 468.0,516.0 428.0,516.0 388.0,516.0 348.0,516.0 308.0,516.0 268.0,516.0 228.0,516.0 188.0,516.0 148.0,516.0 108.0,516.0 68.0,516.0" fill="#c7e9c0" fill-opacity="0.9" stroke="#fff" stroke-width="0.4"><title>serialize — parseTranslationUnit</title></polygon>
<polygon points="68.0,347.2 108.0,329.8 148.0,329.8 188.0,325.5 228.0,326.0 268.0,322.1 308.0,322.7 348.0,326.9 388.0,288.9 428.0,287.8 468.0,287.3 508.0,280.3 548.0,278.8 588.0,279.2 628.0,277.2 668.0,275.6 708.0,262.2 748.0,260.3 788.0,260.5 828.0,257.9 868.0,365.4 908.0,363.0 948.0,358.4 988.0,359.1 1028.0,360.2 1068.0,360.8 1108.0,356.9 1108.0,500.9 1068.0,501.4 1028.0,501.9 988.0,502.0 948.0,501.8 908.0,501.4 868.0,503.3 828.0,503.0 788.0,503.3 748.0,502.8 708.0,503.0 668.0,503.5 628.0,504.0 588.0,504.2 548.0,504.4 508.0,504.0 468.0,503.8 428.0,504.8 388.0,504.8 348.0,504.6 308.0,504.6 268.0,504.7 228.0,504.9 188.0,504.8 148.0,504.7 108.0,504.8 68.0,504.5" fill="#41ab5d" fill-opacity="0.9" stroke="#fff" stroke-width="0.4"><title>serialize — SemanticChecking</title></polygon>
<polygon points="68.0,292.3 108.0,274.5 148.0,272.0 188.0,269.3 228.0,269.6 268.0,264.6 308.0,265.4 348.0,269.2 388.0,231.6 428.0,231.3 468.0,231.2 508.0,223.6 548.0,221.3 588.0,222.2 628.0,220.1 668.0,217.9 708.0,159.1 748.0,156.0 788.0,156.7 828.0,152.9 868.0,271.2 908.0,261.1 948.0,258.4 988.0,259.5 1028.0,259.7 1068.0,258.0 1108.0,252.3 1108.0,356.9 1068.0,360.8 1028.0,360.2 988.0,359.1 948.0,358.4 908.0,363.0 868.0,365.4 828.0,257.9 788.0,260.5 748.0,260.3 708.0,262.2 668.0,275.6 628.0,277.2 588.0,279.2 548.0,278.8 508.0,280.3 468.0,287.3 428.0,287.8 388.0,288.9 348.0,326.9 308.0,322.7 268.0,322.1 228.0,326.0 188.0,325.5 148.0,329.8 108.0,329.8 68.0,347.2" fill="#006d2c" fill-opacity="0.9" stroke="#fff" stroke-width="0.4"><title>serialize — generateIR</title></polygon>
<polygon points="68.0,292.3 108.0,274.1 148.0,272.0 188.0,269.3 228.0,269.6 268.0,264.5 308.0,264.9 348.0,267.6 388.0,231.6 428.0,231.3 468.0,230.8 508.0,223.1 548.0,221.3 588.0,221.8 628.0,220.1 668.0,217.2 708.0,159.1 748.0,155.9 788.0,155.5 828.0,151.4 868.0,269.9 908.0,260.2 948.0,258.4 988.0,259.0 1028.0,259.7 1068.0,258.0 1108.0,251.3 1108.0,252.3 1068.0,258.0 1028.0,259.7 988.0,259.5 948.0,258.4 908.0,261.1 868.0,271.2 828.0,152.9 788.0,156.7 748.0,156.0 708.0,159.1 668.0,217.9 628.0,220.1 588.0,222.2 548.0,221.3 508.0,223.6 468.0,231.2 428.0,231.3 388.0,231.6 348.0,269.2 308.0,265.4 268.0,264.6 228.0,269.6 188.0,269.3 148.0,272.0 108.0,274.5 68.0,292.3" fill="#74c476" fill-opacity="0.9" stroke="#fff" stroke-width="0.4"><title>serialize — frontEndExecute (self)</title></polygon>
<polygon points="68.0,140.9 108.0,123.6 148.0,121.1 188.0,111.7 228.0,108.6 268.0,112.4 308.0,111.9 348.0,114.2 388.0,198.7 428.0,197.9 468.0,197.8 508.0,189.7 548.0,189.0 588.0,188.8 628.0,187.0 668.0,184.7 708.0,126.2 748.0,123.4 788.0,121.3 828.0,119.5 868.0,238.5 908.0,223.3 948.0,221.0 988.0,223.6 1028.0,224.1 1068.0,221.1 1108.0,214.3 1108.0,251.3 1068.0,258.0 1028.0,259.7 988.0,259.0 948.0,258.4 908.0,260.2 868.0,269.9 828.0,151.4 788.0,155.5 748.0,155.9 708.0,159.1 668.0,217.2 628.0,220.1 588.0,221.8 548.0,221.3 508.0,223.1 468.0,230.8 428.0,231.3 388.0,231.6 348.0,267.6 308.0,264.9 268.0,264.5 228.0,269.6 188.0,269.3 148.0,272.0 108.0,274.1 68.0,292.3" fill="#e6550d" fill-opacity="0.9" stroke="#fff" stroke-width="0.4"><title>serialize — generateOutput (self)</title></polygon>
<polygon points="68.0,140.9 108.0,123.6 148.0,121.1 188.0,110.9 228.0,108.6 268.0,108.7 308.0,110.8 348.0,112.6 388.0,198.5 428.0,197.6 468.0,197.8 508.0,189.5 548.0,189.0 588.0,188.7 628.0,186.8 668.0,184.0 708.0,126.2 748.0,123.4 788.0,121.2 828.0,119.2 868.0,238.5 908.0,222.7 948.0,220.8 988.0,222.8 1028.0,224.0 1068.0,221.1 1108.0,214.1 1108.0,214.3 1068.0,221.1 1028.0,224.1 988.0,223.6 948.0,221.0 908.0,223.3 868.0,238.5 828.0,119.5 788.0,121.3 748.0,123.4 708.0,126.2 668.0,184.7 628.0,187.0 588.0,188.8 548.0,189.0 508.0,189.7 468.0,197.8 428.0,197.9 388.0,198.7 348.0,114.2 308.0,111.9 268.0,112.4 228.0,108.6 188.0,111.7 148.0,121.1 108.0,123.6 68.0,140.9" fill="#969696" fill-opacity="0.9" stroke="#fff" stroke-width="0.4"><title>serialize — compileInner (self)</title></polygon>
<text x="12" y="578" fill="#666" font-weight="600">phase buckets</text>
<rect x="12" y="586" width="12" height="12" fill="#c7e9c0"/>
<text x="28" y="596" fill="#222">parseTranslationUnit</text>
<rect x="289" y="586" width="12" height="12" fill="#41ab5d"/>
<text x="305" y="596" fill="#222">SemanticChecking</text>
<rect x="566" y="586" width="12" height="12" fill="#006d2c"/>
<text x="582" y="596" fill="#222">generateIR</text>
<rect x="843" y="586" width="12" height="12" fill="#74c476"/>
<text x="859" y="596" fill="#222">frontEndExecute (self)</text>
<rect x="12" y="604" width="12" height="12" fill="#6baed6"/>
<text x="28" y="614" fill="#222">specializeModule</text>
<rect x="289" y="604" width="12" height="12" fill="#2171b5"/>
<text x="305" y="614" fill="#222">simplifyIR</text>
<rect x="566" y="604" width="12" height="12" fill="#08306b"/>
<text x="582" y="614" fill="#222">linkIR</text>
<rect x="843" y="604" width="12" height="12" fill="#9e9ac8"/>
<text x="859" y="614" fill="#222">unrollLoopsInModule</text>
<rect x="12" y="622" width="12" height="12" fill="#807dba"/>
<text x="28" y="632" fill="#222">legalizeResourceTypes</text>
<rect x="289" y="622" width="12" height="12" fill="#6a51a3"/>
<text x="305" y="632" fill="#222">legalizeExistentialTypeLayout</text>
<rect x="566" y="622" width="12" height="12" fill="#bcbddc"/>
<text x="582" y="632" fill="#222">performMandatoryEarlyInlining</text>
<rect x="843" y="622" width="12" height="12" fill="#dadaeb"/>
<text x="859" y="632" fill="#222">performForceInlining</text>
<rect x="12" y="640" width="12" height="12" fill="#4a1486"/>
<text x="28" y="650" fill="#222">linkAndOptimizeIR (self)</text>
<rect x="289" y="640" width="12" height="12" fill="#fd8d3c"/>
<text x="305" y="650" fill="#222">emitEntryPointsSourceFromIR</text>
<rect x="566" y="640" width="12" height="12" fill="#e6550d"/>
<text x="582" y="650" fill="#222">generateOutput (self)</text>
<rect x="843" y="640" width="12" height="12" fill="#969696"/>
<text x="859" y="650" fill="#222">compileInner (self)</text>
</svg>