<svg xmlns="http://www.w3.org/2000/svg" xmlns:xlink="http://www.w3.org/1999/xlink" width="1132" height="680" viewBox="0 0 1132 680" preserveAspectRatio="xMidYMid meet" font-family="sans-serif" font-size="13">
<rect width="1132" height="680" fill="white"/>
<text x="12" y="30" font-size="20" font-weight="bold">serialize — full phase breakdown across releases (median ms)</text>
<text x="68" y="60" font-size="15" font-weight="600" fill="#1a1a1a">serialize<tspan fill="#888" font-weight="400" text-decoration="none">  0.78×</tspan></text>
<line x1="68.0" y1="516.0" x2="1108.0" y2="516.0" stroke="#eee"/>
<text x="64.0" y="519.0" text-anchor="end" fill="#999">0.0</text>
<line x1="68.0" y1="296.0" x2="1108.0" y2="296.0" stroke="#eee"/>
<text x="64.0" y="299.0" text-anchor="end" fill="#999">123</text>
<line x1="68.0" y1="76.0" x2="1108.0" y2="76.0" stroke="#eee"/>
<text x="64.0" y="79.0" text-anchor="end" fill="#999">245</text>
<line x1="68.0" y1="76.0" x2="68.0" y2="516.0" stroke="#333"/>
<line x1="68.0" y1="516.0" x2="1108.0" y2="516.0" stroke="#333"/>
<line x1="956.3" y1="76.0" x2="956.3" y2="516.0" stroke="#e8731a" stroke-width="1.2" stroke-dasharray="4 3"/>
<text x="959.3" y="87.0" fill="#e8731a" font-size="11">daily →</text>
<line x1="68.0" y1="516.0" x2="68.0" y2="519.0" stroke="#999"/>
<text x="68.0" y="531.0" text-anchor="end" fill="#666" transform="rotate(-50 68.0 531.0)">25.14</text>
<line x1="111.3" y1="516.0" x2="111.3" y2="519.0" stroke="#999"/>
<text x="111.3" y="531.0" text-anchor="end" fill="#666" transform="rotate(-50 111.3 531.0)">25.15</text>
<line x1="154.7" y1="516.0" x2="154.7" y2="519.0" stroke="#999"/>
<text x="154.7" y="531.0" text-anchor="end" fill="#666" transform="rotate(-50 154.7 531.0)">25.16</text>
<line x1="198.0" y1="516.0" x2="198.0" y2="519.0" stroke="#999"/>
<text x="198.0" y="531.0" text-anchor="end" fill="#666" transform="rotate(-50 198.0 531.0)">25.17</text>
<line x1="241.3" y1="516.0" x2="241.3" y2="519.0" stroke="#999"/>
<text x="241.3" y="531.0" text-anchor="end" fill="#666" transform="rotate(-50 241.3 531.0)">25.18</text>
<line x1="284.7" y1="516.0" x2="284.7" y2="519.0" stroke="#999"/>
<text x="284.7" y="531.0" text-anchor="end" fill="#666" transform="rotate(-50 284.7 531.0)">25.19</text>
<line x1="328.0" y1="516.0" x2="328.0" y2="519.0" stroke="#999"/>
<text x="328.0" y="531.0" text-anchor="end" fill="#666" transform="rotate(-50 328.0 531.0)">25.20</text>
<line x1="371.3" y1="516.0" x2="371.3" y2="519.0" stroke="#999"/>
<text x="371.3" y="531.0" text-anchor="end" fill="#666" transform="rotate(-50 371.3 531.0)">25.21</text>
<line x1="414.7" y1="516.0" x2="414.7" y2="519.0" stroke="#999"/>
<text x="414.7" y="531.0" text-anchor="end" fill="#666" transform="rotate(-50 414.7 531.0)">25.22</text>
<line x1="458.0" y1="516.0" x2="458.0" y2="519.0" stroke="#999"/>
<text x="458.0" y="531.0" text-anchor="end" fill="#666" transform="rotate(-50 458.0 531.0)">25.23</text>
<line x1="501.3" y1="516.0" x2="501.3" y2="519.0" stroke="#999"/>
<text x="501.3" y="531.0" text-anchor="end" fill="#666" transform="rotate(-50 501.3 531.0)">25.24</text>
<line x1="544.7" y1="516.0" x2="544.7" y2="519.0" stroke="#999"/>
<text x="544.7" y="531.0" text-anchor="end" fill="#666" transform="rotate(-50 544.7 531.0)">26.1</text>
<line x1="588.0" y1="516.0" x2="588.0" y2="519.0" stroke="#999"/>
<text x="588.0" y="531.0" text-anchor="end" fill="#666" transform="rotate(-50 588.0 531.0)">26.2</text>
<line x1="631.3" y1="516.0" x2="631.3" y2="519.0" stroke="#999"/>
<text x="631.3" y="531.0" text-anchor="end" fill="#666" transform="rotate(-50 631.3 531.0)">26.3</text>
<line x1="674.7" y1="516.0" x2="674.7" y2="519.0" stroke="#999"/>
<text x="674.7" y="531.0" text-anchor="end" fill="#666" transform="rotate(-50 674.7 531.0)">26.4</text>
<line x1="718.0" y1="516.0" x2="718.0" y2="519.0" stroke="#999"/>
<text x="718.0" y="531.0" text-anchor="end" fill="#666" transform="rotate(-50 718.0 531.0)">26.5</text>
<line x1="761.3" y1="516.0" x2="761.3" y2="519.0" stroke="#999"/>
<text x="761.3" y="531.0" text-anchor="end" fill="#666" transform="rotate(-50 761.3 531.0)">26.7</text>
<line x1="804.7" y1="516.0" x2="804.7" y2="519.0" stroke="#999"/>
<text x="804.7" y="531.0" text-anchor="end" fill="#666" transform="rotate(-50 804.7 531.0)">26.8</text>
<line x1="848.0" y1="516.0" x2="848.0" y2="519.0" stroke="#999"/>
<text x="848.0" y="531.0" text-anchor="end" fill="#666" transform="rotate(-50 848.0 531.0)">26.9</text>
<line x1="891.3" y1="516.0" x2="891.3" y2="519.0" stroke="#999"/>
<text x="891.3" y="531.0" text-anchor="end" fill="#666" transform="rotate(-50 891.3 531.0)">26.10</text>
<line x1="934.7" y1="516.0" x2="934.7" y2="519.0" stroke="#999"/>
<text x="934.7" y="531.0" text-anchor="end" fill="#666" transform="rotate(-50 934.7 531.0)">26.11</text>
<line x1="978.0" y1="516.0" x2="978.0" y2="519.0" stroke="#999"/>
<text x="978.0" y="531.0" text-anchor="end" fill="#e8731a" transform="rotate(-50 978.0 531.0)">06-25</text>
<line x1="1021.3" y1="516.0" x2="1021.3" y2="519.0" stroke="#999"/>
<text x="1021.3" y="531.0" text-anchor="end" fill="#e8731a" transform="rotate(-50 1021.3 531.0)">06-26</text>
<line x1="1064.7" y1="516.0" x2="1064.7" y2="519.0" stroke="#999"/>
<text x="1064.7" y="531.0" text-anchor="end" fill="#e8731a" transform="rotate(-50 1064.7 531.0)">06-28</text>
<line x1="1108.0" y1="516.0" x2="1108.0" y2="519.0" stroke="#999"/>
<text x="1108.0" y="531.0" text-anchor="end" fill="#e8731a" transform="rotate(-50 1108.0 531.0)">07-01</text>
<polygon points="68.0,504.5 111.3,504.8 154.7,504.7 198.0,504.8 241.3,504.9 284.7,504.7 328.0,504.6 371.3,504.6 414.7,504.8 458.0,504.8 501.3,503.8 544.7,504.0 588.0,504.4 631.3,504.2 674.7,504.0 718.0,503.5 761.3,503.0 804.7,502.8 848.0,503.3 891.3,503.0 934.7,503.3 978.0,501.8 1021.3,501.8 1064.7,502.0 1108.0,501.9 1108.0,516.0 1064.7,516.0 1021.3,516.0 978.0,516.0 934.7,516.0 891.3,516.0 848.0,516.0 804.7,516.0 761.3,516.0 718.0,516.0 674.7,516.0 631.3,516.0 588.0,516.0 544.7,516.0 501.3,516.0 458.0,516.0 414.7,516.0 371.3,516.0 328.0,516.0 284.7,516.0 241.3,516.0 198.0,516.0 154.7,516.0 111.3,516.0 68.0,516.0" fill="#c7e9c0" fill-opacity="0.9" stroke="#fff" stroke-width="0.4"><title>serialize — parseTranslationUnit</title></polygon>
<polygon points="68.0,347.2 111.3,329.8 154.7,329.8 198.0,325.5 241.3,326.0 284.7,322.1 328.0,322.7 371.3,326.9 414.7,288.9 458.0,287.8 501.3,287.3 544.7,280.3 588.0,278.8 631.3,279.2 674.7,277.2 718.0,275.6 761.3,262.2 804.7,260.3 848.0,260.5 891.3,257.9 934.7,365.4 978.0,358.3 1021.3,358.4 1064.7,359.1 1108.0,360.2 1108.0,501.9 1064.7,502.0 1021.3,501.8 978.0,501.8 934.7,503.3 891.3,503.0 848.0,503.3 804.7,502.8 761.3,503.0 718.0,503.5 674.7,504.0 631.3,504.2 588.0,504.4 544.7,504.0 501.3,503.8 458.0,504.8 414.7,504.8 371.3,504.6 328.0,504.6 284.7,504.7 241.3,504.9 198.0,504.8 154.7,504.7 111.3,504.8 68.0,504.5" fill="#41ab5d" fill-opacity="0.9" stroke="#fff" stroke-width="0.4"><title>serialize — SemanticChecking</title></polygon>
<polygon points="68.0,292.3 111.3,274.5 154.7,272.0 198.0,269.3 241.3,269.6 284.7,264.6 328.0,265.4 371.3,269.2 414.7,231.6 458.0,231.3 501.3,231.2 544.7,223.6 588.0,221.3 631.3,222.2 674.7,220.1 718.0,217.9 761.3,159.1 804.7,156.0 848.0,156.7 891.3,152.9 934.7,271.2 978.0,258.3 1021.3,258.4 1064.7,259.5 1108.0,259.7 1108.0,360.2 1064.7,359.1 1021.3,358.4 978.0,358.3 934.7,365.4 891.3,257.9 848.0,260.5 804.7,260.3 761.3,262.2 718.0,275.6 674.7,277.2 631.3,279.2 588.0,278.8 544.7,280.3 501.3,287.3 458.0,287.8 414.7,288.9 371.3,326.9 328.0,322.7 284.7,322.1 241.3,326.0 198.0,325.5 154.7,329.8 111.3,329.8 68.0,347.2" fill="#006d2c" fill-opacity="0.9" stroke="#fff" stroke-width="0.4"><title>serialize — generateIR</title></polygon>
<polygon points="68.0,292.3 111.3,274.1 154.7,272.0 198.0,269.3 241.3,269.6 284.7,264.5 328.0,264.9 371.3,267.6 414.7,231.6 458.0,231.3 501.3,230.8 544.7,223.1 588.0,221.3 631.3,221.8 674.7,220.1 718.0,217.2 761.3,159.1 804.7,155.9 848.0,155.5 891.3,151.4 934.7,269.9 978.0,257.6 1021.3,258.4 1064.7,259.0 1108.0,259.7 1108.0,259.7 1064.7,259.5 1021.3,258.4 978.0,258.3 934.7,271.2 891.3,152.9 848.0,156.7 804.7,156.0 761.3,159.1 718.0,217.9 674.7,220.1 631.3,222.2 588.0,221.3 544.7,223.6 501.3,231.2 458.0,231.3 414.7,231.6 371.3,269.2 328.0,265.4 284.7,264.6 241.3,269.6 198.0,269.3 154.7,272.0 111.3,274.5 68.0,292.3" fill="#74c476" fill-opacity="0.9" stroke="#fff" stroke-width="0.4"><title>serialize — frontEndExecute (self)</title></polygon>
<polygon points="68.0,140.9 111.3,123.6 154.7,121.1 198.0,111.7 241.3,108.6 284.7,112.4 328.0,111.9 371.3,114.2 414.7,198.7 458.0,197.9 501.3,197.8 544.7,189.7 588.0,189.0 631.3,188.8 674.7,187.0 718.0,184.7 761.3,126.2 804.7,123.4 848.0,121.3 891.3,119.5 934.7,238.5 978.0,221.4 1021.3,221.0 1064.7,223.6 1108.0,224.1 1108.0,259.7 1064.7,259.0 1021.3,258.4 978.0,257.6 934.7,269.9 891.3,151.4 848.0,155.5 804.7,155.9 761.3,159.1 718.0,217.2 674.7,220.1 631.3,221.8 588.0,221.3 544.7,223.1 501.3,230.8 458.0,231.3 414.7,231.6 371.3,267.6 328.0,264.9 284.7,264.5 241.3,269.6 198.0,269.3 154.7,272.0 111.3,274.1 68.0,292.3" fill="#e6550d" fill-opacity="0.9" stroke="#fff" stroke-width="0.4"><title>serialize — generateOutput (self)</title></polygon>
<polygon points="68.0,140.9 111.3,123.6 154.7,121.1 198.0,110.9 241.3,108.6 284.7,108.7 328.0,110.8 371.3,112.6 414.7,198.5 458.0,197.6 501.3,197.8 544.7,189.5 588.0,189.0 631.3,188.7 674.7,186.8 718.0,184.0 761.3,126.2 804.7,123.4 848.0,121.2 891.3,119.2 934.7,238.5 978.0,220.3 1021.3,220.8 1064.7,222.8 1108.0,224.0 1108.0,224.1 1064.7,223.6 1021.3,221.0 978.0,221.4 934.7,238.5 891.3,119.5 848.0,121.3 804.7,123.4 761.3,126.2 718.0,184.7 674.7,187.0 631.3,188.8 588.0,189.0 544.7,189.7 501.3,197.8 458.0,197.9 414.7,198.7 371.3,114.2 328.0,111.9 284.7,112.4 241.3,108.6 198.0,111.7 154.7,121.1 111.3,123.6 68.0,140.9" fill="#969696" fill-opacity="0.9" stroke="#fff" stroke-width="0.4"><title>serialize — compileInner (self)</title></polygon>
<text x="12" y="578" fill="#666" font-weight="600">phase buckets</text>
<rect x="12" y="586" width="12" height="12" fill="#c7e9c0"/>
<text x="28" y="596" fill="#222">parseTranslationUnit</text>
<rect x="289" y="586" width="12" height="12" fill="#41ab5d"/>
<text x="305" y="596" fill="#222">SemanticChecking</text>
<rect x="566" y="586" width="12" height="12" fill="#006d2c"/>
<text x="582" y="596" fill="#222">generateIR</text>
<rect x="843" y="586" width="12" height="12" fill="#74c476"/>
<text x="859" y="596" fill="#222">frontEndExecute (self)</text>
<rect x="12" y="604" width="12" height="12" fill="#6baed6"/>
<text x="28" y="614" fill="#222">specializeModule</text>
<rect x="289" y="604" width="12" height="12" fill="#2171b5"/>
<text x="305" y="614" fill="#222">simplifyIR</text>
<rect x="566" y="604" width="12" height="12" fill="#08306b"/>
<text x="582" y="614" fill="#222">linkIR</text>
<rect x="843" y="604" width="12" height="12" fill="#9e9ac8"/>
<text x="859" y="614" fill="#222">unrollLoopsInModule</text>
<rect x="12" y="622" width="12" height="12" fill="#807dba"/>
<text x="28" y="632" fill="#222">legalizeResourceTypes</text>
<rect x="289" y="622" width="12" height="12" fill="#6a51a3"/>
<text x="305" y="632" fill="#222">legalizeExistentialTypeLayout</text>
<rect x="566" y="622" width="12" height="12" fill="#bcbddc"/>
<text x="582" y="632" fill="#222">performMandatoryEarlyInlining</text>
<rect x="843" y="622" width="12" height="12" fill="#dadaeb"/>
<text x="859" y="632" fill="#222">performForceInlining</text>
<rect x="12" y="640" width="12" height="12" fill="#4a1486"/>
<text x="28" y="650" fill="#222">linkAndOptimizeIR (self)</text>
<rect x="289" y="640" width="12" height="12" fill="#fd8d3c"/>
<text x="305" y="650" fill="#222">emitEntryPointsSourceFromIR</text>
<rect x="566" y="640" width="12" height="12" fill="#e6550d"/>
<text x="582" y="650" fill="#222">generateOutput (self)</text>
<rect x="843" y="640" width="12" height="12" fill="#969696"/>
<text x="859" y="650" fill="#222">compileInner (self)</text>
</svg>