<svg xmlns="http://www.w3.org/2000/svg" xmlns:xlink="http://www.w3.org/1999/xlink" width="1132" height="680" viewBox="0 0 1132 680" preserveAspectRatio="xMidYMid meet" font-family="sans-serif" font-size="13">
<rect width="1132" height="680" fill="white"/>
<text x="12" y="30" font-size="20" font-weight="bold">serialize — Daily tip-of-tree (last 30 days) (median ms)</text>
<text x="68" y="60" font-size="15" font-weight="600" fill="#1a1a1a">serialize<tspan fill="#888" font-weight="400" text-decoration="none">  0.71×</tspan></text>
<line x1="68.0" y1="516.0" x2="1108.0" y2="516.0" stroke="#eee"/>
<text x="64.0" y="519.0" text-anchor="end" fill="#999">0.0</text>
<line x1="68.0" y1="296.0" x2="1108.0" y2="296.0" stroke="#eee"/>
<text x="64.0" y="299.0" text-anchor="end" fill="#999">89</text>
<line x1="68.0" y1="76.0" x2="1108.0" y2="76.0" stroke="#eee"/>
<text x="64.0" y="79.0" text-anchor="end" fill="#999">179</text>
<line x1="68.0" y1="76.0" x2="68.0" y2="516.0" stroke="#333"/>
<line x1="68.0" y1="516.0" x2="1108.0" y2="516.0" stroke="#333"/>
<line x1="68.0" y1="516.0" x2="68.0" y2="519.0" stroke="#999"/>
<text x="68.0" y="531.0" text-anchor="end" fill="#e8731a" transform="rotate(-50 68.0 531.0)">06-25</text>
<line x1="115.3" y1="516.0" x2="115.3" y2="519.0" stroke="#999"/>
<text x="115.3" y="531.0" text-anchor="end" fill="#e8731a" transform="rotate(-50 115.3 531.0)">06-26</text>
<line x1="162.5" y1="516.0" x2="162.5" y2="519.0" stroke="#999"/>
<text x="162.5" y="531.0" text-anchor="end" fill="#e8731a" transform="rotate(-50 162.5 531.0)">06-28</text>
<line x1="209.8" y1="516.0" x2="209.8" y2="519.0" stroke="#999"/>
<text x="209.8" y="531.0" text-anchor="end" fill="#e8731a" transform="rotate(-50 209.8 531.0)">07-01</text>
<line x1="257.1" y1="516.0" x2="257.1" y2="519.0" stroke="#999"/>
<text x="257.1" y="531.0" text-anchor="end" fill="#e8731a" transform="rotate(-50 257.1 531.0)">07-02</text>
<line x1="304.4" y1="516.0" x2="304.4" y2="519.0" stroke="#999"/>
<text x="304.4" y="531.0" text-anchor="end" fill="#e8731a" transform="rotate(-50 304.4 531.0)">07-03</text>
<line x1="351.6" y1="516.0" x2="351.6" y2="519.0" stroke="#999"/>
<text x="351.6" y="531.0" text-anchor="end" fill="#e8731a" transform="rotate(-50 351.6 531.0)">07-06</text>
<line x1="398.9" y1="516.0" x2="398.9" y2="519.0" stroke="#999"/>
<text x="398.9" y="531.0" text-anchor="end" fill="#e8731a" transform="rotate(-50 398.9 531.0)">07-07</text>
<line x1="446.2" y1="516.0" x2="446.2" y2="519.0" stroke="#999"/>
<text x="446.2" y="531.0" text-anchor="end" fill="#e8731a" transform="rotate(-50 446.2 531.0)">07-08</text>
<line x1="493.5" y1="516.0" x2="493.5" y2="519.0" stroke="#999"/>
<text x="493.5" y="531.0" text-anchor="end" fill="#e8731a" transform="rotate(-50 493.5 531.0)">07-09</text>
<line x1="540.7" y1="516.0" x2="540.7" y2="519.0" stroke="#999"/>
<text x="540.7" y="531.0" text-anchor="end" fill="#e8731a" transform="rotate(-50 540.7 531.0)">07-10</text>
<line x1="588.0" y1="516.0" x2="588.0" y2="519.0" stroke="#999"/>
<text x="588.0" y="531.0" text-anchor="end" fill="#e8731a" transform="rotate(-50 588.0 531.0)">07-11</text>
<line x1="635.3" y1="516.0" x2="635.3" y2="519.0" stroke="#999"/>
<text x="635.3" y="531.0" text-anchor="end" fill="#e8731a" transform="rotate(-50 635.3 531.0)">07-14</text>
<line x1="682.5" y1="516.0" x2="682.5" y2="519.0" stroke="#999"/>
<text x="682.5" y="531.0" text-anchor="end" fill="#e8731a" transform="rotate(-50 682.5 531.0)">07-15</text>
<line x1="729.8" y1="516.0" x2="729.8" y2="519.0" stroke="#999"/>
<text x="729.8" y="531.0" text-anchor="end" fill="#e8731a" transform="rotate(-50 729.8 531.0)">07-15</text>
<line x1="777.1" y1="516.0" x2="777.1" y2="519.0" stroke="#999"/>
<text x="777.1" y="531.0" text-anchor="end" fill="#e8731a" transform="rotate(-50 777.1 531.0)">07-16</text>
<line x1="824.4" y1="516.0" x2="824.4" y2="519.0" stroke="#999"/>
<text x="824.4" y="531.0" text-anchor="end" fill="#e8731a" transform="rotate(-50 824.4 531.0)">07-17</text>
<line x1="871.6" y1="516.0" x2="871.6" y2="519.0" stroke="#999"/>
<text x="871.6" y="531.0" text-anchor="end" fill="#e8731a" transform="rotate(-50 871.6 531.0)">07-18</text>
<line x1="918.9" y1="516.0" x2="918.9" y2="519.0" stroke="#999"/>
<text x="918.9" y="531.0" text-anchor="end" fill="#e8731a" transform="rotate(-50 918.9 531.0)">07-19</text>
<line x1="966.2" y1="516.0" x2="966.2" y2="519.0" stroke="#999"/>
<text x="966.2" y="531.0" text-anchor="end" fill="#e8731a" transform="rotate(-50 966.2 531.0)">07-20</text>
<line x1="1013.5" y1="516.0" x2="1013.5" y2="519.0" stroke="#999"/>
<text x="1013.5" y="531.0" text-anchor="end" fill="#e8731a" transform="rotate(-50 1013.5 531.0)">07-21</text>
<line x1="1060.7" y1="516.0" x2="1060.7" y2="519.0" stroke="#999"/>
<text x="1060.7" y="531.0" text-anchor="end" fill="#e8731a" transform="rotate(-50 1060.7 531.0)">07-22</text>
<line x1="1108.0" y1="516.0" x2="1108.0" y2="519.0" stroke="#999"/>
<text x="1108.0" y="531.0" text-anchor="end" fill="#e8731a" transform="rotate(-50 1108.0 531.0)">07-23</text>
<polygon points="68.0,495.8 115.3,495.9 162.5,496.1 209.8,495.4 257.1,495.7 304.4,496.0 351.6,495.3 398.9,497.3 446.2,496.9 493.5,497.2 540.7,496.6 588.0,497.4 635.3,497.3 682.5,498.3 729.8,498.4 777.1,498.2 824.4,498.0 871.6,499.9 918.9,500.1 966.2,500.2 1013.5,499.7 1060.7,499.7 1108.0,500.0 1108.0,516.0 1060.7,516.0 1013.5,516.0 966.2,516.0 918.9,516.0 871.6,516.0 824.4,516.0 777.1,516.0 729.8,516.0 682.5,516.0 635.3,516.0 588.0,516.0 540.7,516.0 493.5,516.0 446.2,516.0 398.9,516.0 351.6,516.0 304.4,516.0 257.1,516.0 209.8,516.0 162.5,516.0 115.3,516.0 68.0,516.0" fill="#c7e9c0" fill-opacity="0.9" stroke="#fff" stroke-width="0.4"><title>serialize — parseTranslationUnit</title></polygon>
<polygon points="68.0,310.3 115.3,310.0 162.5,311.4 209.8,308.6 257.1,303.4 304.4,301.6 351.6,304.1 398.9,304.8 446.2,304.6 493.5,306.9 540.7,305.1 588.0,303.1 635.3,307.8 682.5,322.0 729.8,321.5 777.1,309.9 824.4,310.0 871.6,379.8 918.9,376.0 966.2,378.1 1013.5,380.9 1060.7,378.7 1108.0,378.1 1108.0,500.0 1060.7,499.7 1013.5,499.7 966.2,500.2 918.9,500.1 871.6,499.9 824.4,498.0 777.1,498.2 729.8,498.4 682.5,498.3 635.3,497.3 588.0,497.4 540.7,496.6 493.5,497.2 446.2,496.9 398.9,497.3 351.6,495.3 304.4,496.0 257.1,495.7 209.8,495.4 162.5,496.1 115.3,495.9 68.0,495.8" fill="#41ab5d" fill-opacity="0.9" stroke="#fff" stroke-width="0.4"><title>serialize — SemanticChecking</title></polygon>
<polygon points="68.0,169.3 115.3,168.8 162.5,169.3 209.8,164.6 257.1,159.9 304.4,160.9 351.6,161.9 398.9,163.5 446.2,161.5 493.5,161.7 540.7,190.3 588.0,188.2 635.3,190.5 682.5,210.5 729.8,210.8 777.1,197.1 824.4,198.8 871.6,284.9 918.9,278.2 966.2,283.0 1013.5,284.3 1060.7,281.8 1108.0,282.9 1108.0,378.1 1060.7,378.7 1013.5,380.9 966.2,378.1 918.9,376.0 871.6,379.8 824.4,310.0 777.1,309.9 729.8,321.5 682.5,322.0 635.3,307.8 588.0,303.1 540.7,305.1 493.5,306.9 446.2,304.6 398.9,304.8 351.6,304.1 304.4,301.6 257.1,303.4 209.8,308.6 162.5,311.4 115.3,310.0 68.0,310.3" fill="#006d2c" fill-opacity="0.9" stroke="#fff" stroke-width="0.4"><title>serialize — generateIR</title></polygon>
<polygon points="68.0,168.8 115.3,168.2 162.5,168.1 209.8,164.3 257.1,159.9 304.4,158.9 351.6,160.2 398.9,162.6 446.2,161.0 493.5,161.2 540.7,188.8 588.0,188.2 635.3,190.5 682.5,210.3 729.8,209.9 777.1,195.4 824.4,198.8 871.6,284.7 918.9,278.2 966.2,283.0 1013.5,283.8 1060.7,281.6 1108.0,282.9 1108.0,282.9 1060.7,281.8 1013.5,284.3 966.2,283.0 918.9,278.2 871.6,284.9 824.4,198.8 777.1,197.1 729.8,210.8 682.5,210.5 635.3,190.5 588.0,188.2 540.7,190.3 493.5,161.7 446.2,161.5 398.9,163.5 351.6,161.9 304.4,160.9 257.1,159.9 209.8,164.6 162.5,169.3 115.3,168.8 68.0,169.3" fill="#74c476" fill-opacity="0.9" stroke="#fff" stroke-width="0.4"><title>serialize — frontEndExecute (self)</title></polygon>
<polygon points="68.0,119.8 115.3,119.2 162.5,116.3 209.8,115.4 257.1,108.6 304.4,108.9 351.6,110.8 398.9,112.0 446.2,109.4 493.5,111.9 540.7,140.6 588.0,130.9 635.3,133.6 682.5,153.9 729.8,153.8 777.1,138.6 824.4,140.7 871.6,232.5 918.9,227.4 966.2,234.0 1013.5,235.4 1060.7,232.7 1108.0,234.4 1108.0,282.9 1060.7,281.6 1013.5,283.8 966.2,283.0 918.9,278.2 871.6,284.7 824.4,198.8 777.1,195.4 729.8,209.9 682.5,210.3 635.3,190.5 588.0,188.2 540.7,188.8 493.5,161.2 446.2,161.0 398.9,162.6 351.6,160.2 304.4,158.9 257.1,159.9 209.8,164.3 162.5,168.1 115.3,168.2 68.0,168.8" fill="#e6550d" fill-opacity="0.9" stroke="#fff" stroke-width="0.4"><title>serialize — generateOutput (self)</title></polygon>
<polygon points="68.0,119.8 115.3,119.2 162.5,116.0 209.8,113.3 257.1,108.6 304.4,108.9 351.6,110.8 398.9,111.1 446.2,109.4 493.5,111.9 540.7,125.4 588.0,130.9 635.3,133.6 682.5,153.9 729.8,153.1 777.1,138.6 824.4,140.7 871.6,231.3 918.9,227.4 966.2,234.0 1013.5,234.7 1060.7,232.7 1108.0,234.4 1108.0,234.4 1060.7,232.7 1013.5,235.4 966.2,234.0 918.9,227.4 871.6,232.5 824.4,140.7 777.1,138.6 729.8,153.8 682.5,153.9 635.3,133.6 588.0,130.9 540.7,140.6 493.5,111.9 446.2,109.4 398.9,112.0 351.6,110.8 304.4,108.9 257.1,108.6 209.8,115.4 162.5,116.3 115.3,119.2 68.0,119.8" fill="#969696" fill-opacity="0.9" stroke="#fff" stroke-width="0.4"><title>serialize — compileInner (self)</title></polygon>
<text x="12" y="578" fill="#666" font-weight="600">phase buckets</text>
<rect x="12" y="586" width="12" height="12" fill="#c7e9c0"/>
<text x="28" y="596" fill="#222">parseTranslationUnit</text>
<rect x="289" y="586" width="12" height="12" fill="#41ab5d"/>
<text x="305" y="596" fill="#222">SemanticChecking</text>
<rect x="566" y="586" width="12" height="12" fill="#006d2c"/>
<text x="582" y="596" fill="#222">generateIR</text>
<rect x="843" y="586" width="12" height="12" fill="#74c476"/>
<text x="859" y="596" fill="#222">frontEndExecute (self)</text>
<rect x="12" y="604" width="12" height="12" fill="#6baed6"/>
<text x="28" y="614" fill="#222">specializeModule</text>
<rect x="289" y="604" width="12" height="12" fill="#2171b5"/>
<text x="305" y="614" fill="#222">simplifyIR</text>
<rect x="566" y="604" width="12" height="12" fill="#08306b"/>
<text x="582" y="614" fill="#222">linkIR</text>
<rect x="843" y="604" width="12" height="12" fill="#9e9ac8"/>
<text x="859" y="614" fill="#222">unrollLoopsInModule</text>
<rect x="12" y="622" width="12" height="12" fill="#807dba"/>
<text x="28" y="632" fill="#222">legalizeResourceTypes</text>
<rect x="289" y="622" width="12" height="12" fill="#6a51a3"/>
<text x="305" y="632" fill="#222">legalizeExistentialTypeLayout</text>
<rect x="566" y="622" width="12" height="12" fill="#bcbddc"/>
<text x="582" y="632" fill="#222">performMandatoryEarlyInlining</text>
<rect x="843" y="622" width="12" height="12" fill="#dadaeb"/>
<text x="859" y="632" fill="#222">performForceInlining</text>
<rect x="12" y="640" width="12" height="12" fill="#4a1486"/>
<text x="28" y="650" fill="#222">linkAndOptimizeIR (self)</text>
<rect x="289" y="640" width="12" height="12" fill="#fd8d3c"/>
<text x="305" y="650" fill="#222">emitEntryPointsSourceFromIR</text>
<rect x="566" y="640" width="12" height="12" fill="#e6550d"/>
<text x="582" y="650" fill="#222">generateOutput (self)</text>
<rect x="843" y="640" width="12" height="12" fill="#969696"/>
<text x="859" y="650" fill="#222">compileInner (self)</text>
</svg>