<svg xmlns="http://www.w3.org/2000/svg" xmlns:xlink="http://www.w3.org/1999/xlink" width="1132" height="680" viewBox="0 0 1132 680" preserveAspectRatio="xMidYMid meet" font-family="sans-serif" font-size="13">
<rect width="1132" height="680" fill="white"/>
<text x="12" y="30" font-size="20" font-weight="bold">serialize — full phase breakdown across releases (median ms)</text>
<text x="68" y="60" font-size="15" font-weight="600" fill="#1a1a1a">serialize<tspan fill="#888" font-weight="400" text-decoration="none">  0.79×</tspan></text>
<line x1="68.0" y1="516.0" x2="1108.0" y2="516.0" stroke="#eee"/>
<text x="64.0" y="519.0" text-anchor="end" fill="#999">0.0</text>
<line x1="68.0" y1="296.0" x2="1108.0" y2="296.0" stroke="#eee"/>
<text x="64.0" y="299.0" text-anchor="end" fill="#999">136</text>
<line x1="68.0" y1="76.0" x2="1108.0" y2="76.0" stroke="#eee"/>
<text x="64.0" y="79.0" text-anchor="end" fill="#999">273</text>
<line x1="68.0" y1="76.0" x2="68.0" y2="516.0" stroke="#333"/>
<line x1="68.0" y1="516.0" x2="1108.0" y2="516.0" stroke="#333"/>
<line x1="896.1" y1="76.0" x2="896.1" y2="516.0" stroke="#e8731a" stroke-width="1.2" stroke-dasharray="4 3"/>
<text x="899.1" y="87.0" fill="#e8731a" font-size="11">daily →</text>
<line x1="68.0" y1="516.0" x2="68.0" y2="519.0" stroke="#999"/>
<text x="68.0" y="531.0" text-anchor="end" fill="#666" transform="rotate(-50 68.0 531.0)">25.14</text>
<line x1="106.5" y1="516.0" x2="106.5" y2="519.0" stroke="#999"/>
<text x="106.5" y="531.0" text-anchor="end" fill="#666" transform="rotate(-50 106.5 531.0)">25.15</text>
<line x1="145.0" y1="516.0" x2="145.0" y2="519.0" stroke="#999"/>
<text x="145.0" y="531.0" text-anchor="end" fill="#666" transform="rotate(-50 145.0 531.0)">25.16</text>
<line x1="183.6" y1="516.0" x2="183.6" y2="519.0" stroke="#999"/>
<text x="183.6" y="531.0" text-anchor="end" fill="#666" transform="rotate(-50 183.6 531.0)">25.17</text>
<line x1="222.1" y1="516.0" x2="222.1" y2="519.0" stroke="#999"/>
<text x="222.1" y="531.0" text-anchor="end" fill="#666" transform="rotate(-50 222.1 531.0)">25.18</text>
<line x1="260.6" y1="516.0" x2="260.6" y2="519.0" stroke="#999"/>
<text x="260.6" y="531.0" text-anchor="end" fill="#666" transform="rotate(-50 260.6 531.0)">25.19</text>
<line x1="299.1" y1="516.0" x2="299.1" y2="519.0" stroke="#999"/>
<text x="299.1" y="531.0" text-anchor="end" fill="#666" transform="rotate(-50 299.1 531.0)">25.20</text>
<line x1="337.6" y1="516.0" x2="337.6" y2="519.0" stroke="#999"/>
<text x="337.6" y="531.0" text-anchor="end" fill="#666" transform="rotate(-50 337.6 531.0)">25.21</text>
<line x1="376.1" y1="516.0" x2="376.1" y2="519.0" stroke="#999"/>
<text x="376.1" y="531.0" text-anchor="end" fill="#666" transform="rotate(-50 376.1 531.0)">25.22</text>
<line x1="414.7" y1="516.0" x2="414.7" y2="519.0" stroke="#999"/>
<text x="414.7" y="531.0" text-anchor="end" fill="#666" transform="rotate(-50 414.7 531.0)">25.23</text>
<line x1="453.2" y1="516.0" x2="453.2" y2="519.0" stroke="#999"/>
<text x="453.2" y="531.0" text-anchor="end" fill="#666" transform="rotate(-50 453.2 531.0)">25.24</text>
<line x1="491.7" y1="516.0" x2="491.7" y2="519.0" stroke="#999"/>
<text x="491.7" y="531.0" text-anchor="end" fill="#666" transform="rotate(-50 491.7 531.0)">26.1</text>
<line x1="530.2" y1="516.0" x2="530.2" y2="519.0" stroke="#999"/>
<text x="530.2" y="531.0" text-anchor="end" fill="#666" transform="rotate(-50 530.2 531.0)">26.2</text>
<line x1="568.7" y1="516.0" x2="568.7" y2="519.0" stroke="#999"/>
<text x="568.7" y="531.0" text-anchor="end" fill="#666" transform="rotate(-50 568.7 531.0)">26.3</text>
<line x1="607.3" y1="516.0" x2="607.3" y2="519.0" stroke="#999"/>
<text x="607.3" y="531.0" text-anchor="end" fill="#666" transform="rotate(-50 607.3 531.0)">26.4</text>
<line x1="645.8" y1="516.0" x2="645.8" y2="519.0" stroke="#999"/>
<text x="645.8" y="531.0" text-anchor="end" fill="#666" transform="rotate(-50 645.8 531.0)">26.5</text>
<line x1="684.3" y1="516.0" x2="684.3" y2="519.0" stroke="#999"/>
<text x="684.3" y="531.0" text-anchor="end" fill="#666" transform="rotate(-50 684.3 531.0)">26.7</text>
<line x1="722.8" y1="516.0" x2="722.8" y2="519.0" stroke="#999"/>
<text x="722.8" y="531.0" text-anchor="end" fill="#666" transform="rotate(-50 722.8 531.0)">26.8</text>
<line x1="761.3" y1="516.0" x2="761.3" y2="519.0" stroke="#999"/>
<text x="761.3" y="531.0" text-anchor="end" fill="#666" transform="rotate(-50 761.3 531.0)">26.9</text>
<line x1="799.9" y1="516.0" x2="799.9" y2="519.0" stroke="#999"/>
<text x="799.9" y="531.0" text-anchor="end" fill="#666" transform="rotate(-50 799.9 531.0)">26.10</text>
<line x1="838.4" y1="516.0" x2="838.4" y2="519.0" stroke="#999"/>
<text x="838.4" y="531.0" text-anchor="end" fill="#666" transform="rotate(-50 838.4 531.0)">26.11</text>
<line x1="876.9" y1="516.0" x2="876.9" y2="519.0" stroke="#999"/>
<text x="876.9" y="531.0" text-anchor="end" fill="#666" transform="rotate(-50 876.9 531.0)">26.12</text>
<line x1="915.4" y1="516.0" x2="915.4" y2="519.0" stroke="#999"/>
<text x="915.4" y="531.0" text-anchor="end" fill="#e8731a" transform="rotate(-50 915.4 531.0)">06-25</text>
<line x1="953.9" y1="516.0" x2="953.9" y2="519.0" stroke="#999"/>
<text x="953.9" y="531.0" text-anchor="end" fill="#e8731a" transform="rotate(-50 953.9 531.0)">06-26</text>
<line x1="992.4" y1="516.0" x2="992.4" y2="519.0" stroke="#999"/>
<text x="992.4" y="531.0" text-anchor="end" fill="#e8731a" transform="rotate(-50 992.4 531.0)">06-28</text>
<line x1="1031.0" y1="516.0" x2="1031.0" y2="519.0" stroke="#999"/>
<text x="1031.0" y="531.0" text-anchor="end" fill="#e8731a" transform="rotate(-50 1031.0 531.0)">07-01</text>
<line x1="1069.5" y1="516.0" x2="1069.5" y2="519.0" stroke="#999"/>
<text x="1069.5" y="531.0" text-anchor="end" fill="#e8731a" transform="rotate(-50 1069.5 531.0)">07-02</text>
<line x1="1108.0" y1="516.0" x2="1108.0" y2="519.0" stroke="#999"/>
<text x="1108.0" y="531.0" text-anchor="end" fill="#e8731a" transform="rotate(-50 1108.0 531.0)">07-03</text>
<polygon points="68.0,505.6 106.5,505.1 145.0,505.3 183.6,505.6 222.1,505.1 260.6,505.3 299.1,505.4 337.6,504.9 376.1,505.4 414.7,504.1 453.2,504.9 491.7,505.0 530.2,505.2 568.7,505.2 607.3,505.2 645.8,504.6 684.3,504.5 722.8,504.7 761.3,504.6 799.9,504.5 838.4,504.8 876.9,504.6 915.4,502.9 953.9,502.8 992.4,502.7 1031.0,503.2 1069.5,502.9 1108.0,503.0 1108.0,516.0 1069.5,516.0 1031.0,516.0 992.4,516.0 953.9,516.0 915.4,516.0 876.9,516.0 838.4,516.0 799.9,516.0 761.3,516.0 722.8,516.0 684.3,516.0 645.8,516.0 607.3,516.0 568.7,516.0 530.2,516.0 491.7,516.0 453.2,516.0 414.7,516.0 376.1,516.0 337.6,516.0 299.1,516.0 260.6,516.0 222.1,516.0 183.6,516.0 145.0,516.0 106.5,516.0 68.0,516.0" fill="#c7e9c0" fill-opacity="0.9" stroke="#fff" stroke-width="0.4"><title>serialize — parseTranslationUnit</title></polygon>
<polygon points="68.0,364.7 106.5,348.8 145.0,340.0 183.6,342.3 222.1,332.5 260.6,335.6 299.1,333.4 337.6,330.5 376.1,310.6 414.7,299.7 453.2,306.2 491.7,310.6 530.2,310.6 568.7,311.7 607.3,311.6 645.8,309.1 684.3,293.8 722.8,294.8 761.3,295.6 799.9,291.8 838.4,388.3 876.9,381.4 915.4,378.3 953.9,378.6 992.4,379.5 1031.0,379.6 1069.5,376.3 1108.0,375.0 1108.0,503.0 1069.5,502.9 1031.0,503.2 992.4,502.7 953.9,502.8 915.4,502.9 876.9,504.6 838.4,504.8 799.9,504.5 761.3,504.6 722.8,504.7 684.3,504.5 645.8,504.6 607.3,505.2 568.7,505.2 530.2,505.2 491.7,505.0 453.2,504.9 414.7,504.1 376.1,505.4 337.6,504.9 299.1,505.4 260.6,505.3 222.1,505.1 183.6,505.6 145.0,505.3 106.5,505.1 68.0,505.6" fill="#41ab5d" fill-opacity="0.9" stroke="#fff" stroke-width="0.4"><title>serialize — SemanticChecking</title></polygon>
<polygon points="68.0,314.2 106.5,295.8 145.0,284.0 183.6,289.2 222.1,277.1 260.6,279.4 299.1,275.7 337.6,269.4 376.1,256.0 414.7,243.2 453.2,252.2 491.7,257.2 530.2,258.2 568.7,260.4 607.3,260.4 645.8,256.1 684.3,200.0 722.8,197.6 761.3,201.2 799.9,195.7 838.4,302.6 876.9,295.4 915.4,286.6 953.9,286.8 992.4,285.8 1031.0,285.2 1069.5,283.8 1108.0,283.5 1108.0,375.0 1069.5,376.3 1031.0,379.6 992.4,379.5 953.9,378.6 915.4,378.3 876.9,381.4 838.4,388.3 799.9,291.8 761.3,295.6 722.8,294.8 684.3,293.8 645.8,309.1 607.3,311.6 568.7,311.7 530.2,310.6 491.7,310.6 453.2,306.2 414.7,299.7 376.1,310.6 337.6,330.5 299.1,333.4 260.6,335.6 222.1,332.5 183.6,342.3 145.0,340.0 106.5,348.8 68.0,364.7" fill="#006d2c" fill-opacity="0.9" stroke="#fff" stroke-width="0.4"><title>serialize — generateIR</title></polygon>
<polygon points="68.0,314.2 106.5,295.8 145.0,284.0 183.6,289.0 222.1,275.4 260.6,279.4 299.1,275.7 337.6,269.4 376.1,255.4 414.7,242.6 453.2,250.1 491.7,254.6 530.2,255.1 568.7,260.4 607.3,259.7 645.8,255.4 684.3,198.4 722.8,197.6 761.3,200.6 799.9,195.7 838.4,301.1 876.9,294.1 915.4,285.8 953.9,284.5 992.4,285.4 1031.0,285.2 1069.5,283.8 1108.0,282.5 1108.0,283.5 1069.5,283.8 1031.0,285.2 992.4,285.8 953.9,286.8 915.4,286.6 876.9,295.4 838.4,302.6 799.9,195.7 761.3,201.2 722.8,197.6 684.3,200.0 645.8,256.1 607.3,260.4 568.7,260.4 530.2,258.2 491.7,257.2 453.2,252.2 414.7,243.2 376.1,256.0 337.6,269.4 299.1,275.7 260.6,279.4 222.1,277.1 183.6,289.2 145.0,284.0 106.5,295.8 68.0,314.2" fill="#74c476" fill-opacity="0.9" stroke="#fff" stroke-width="0.4"><title>serialize — frontEndExecute (self)</title></polygon>
<polygon points="68.0,185.5 106.5,161.6 145.0,141.5 183.6,147.1 222.1,118.4 260.6,130.5 299.1,130.1 337.6,108.6 376.1,225.7 414.7,212.4 453.2,221.1 491.7,225.8 530.2,226.0 568.7,232.1 607.3,231.4 645.8,226.7 684.3,170.3 722.8,169.5 761.3,172.1 799.9,167.7 838.4,273.8 876.9,265.8 915.4,252.5 953.9,252.3 992.4,251.5 1031.0,252.6 1069.5,250.6 1108.0,250.9 1108.0,282.5 1069.5,283.8 1031.0,285.2 992.4,285.4 953.9,284.5 915.4,285.8 876.9,294.1 838.4,301.1 799.9,195.7 761.3,200.6 722.8,197.6 684.3,198.4 645.8,255.4 607.3,259.7 568.7,260.4 530.2,255.1 491.7,254.6 453.2,250.1 414.7,242.6 376.1,255.4 337.6,269.4 299.1,275.7 260.6,279.4 222.1,275.4 183.6,289.0 145.0,284.0 106.5,295.8 68.0,314.2" fill="#e6550d" fill-opacity="0.9" stroke="#fff" stroke-width="0.4"><title>serialize — generateOutput (self)</title></polygon>
<polygon points="68.0,182.4 106.5,161.6 145.0,141.5 183.6,147.1 222.1,117.9 260.6,130.5 299.1,130.1 337.6,108.6 376.1,225.7 414.7,212.4 453.2,221.1 491.7,225.8 530.2,225.8 568.7,232.1 607.3,231.4 645.8,226.3 684.3,170.3 722.8,169.5 761.3,172.1 799.9,167.0 838.4,273.0 876.9,265.8 915.4,252.1 953.9,252.3 992.4,251.5 1031.0,252.6 1069.5,250.6 1108.0,250.9 1108.0,250.9 1069.5,250.6 1031.0,252.6 992.4,251.5 953.9,252.3 915.4,252.5 876.9,265.8 838.4,273.8 799.9,167.7 761.3,172.1 722.8,169.5 684.3,170.3 645.8,226.7 607.3,231.4 568.7,232.1 530.2,226.0 491.7,225.8 453.2,221.1 414.7,212.4 376.1,225.7 337.6,108.6 299.1,130.1 260.6,130.5 222.1,118.4 183.6,147.1 145.0,141.5 106.5,161.6 68.0,185.5" fill="#969696" fill-opacity="0.9" stroke="#fff" stroke-width="0.4"><title>serialize — compileInner (self)</title></polygon>
<text x="12" y="578" fill="#666" font-weight="600">phase buckets</text>
<rect x="12" y="586" width="12" height="12" fill="#c7e9c0"/>
<text x="28" y="596" fill="#222">parseTranslationUnit</text>
<rect x="289" y="586" width="12" height="12" fill="#41ab5d"/>
<text x="305" y="596" fill="#222">SemanticChecking</text>
<rect x="566" y="586" width="12" height="12" fill="#006d2c"/>
<text x="582" y="596" fill="#222">generateIR</text>
<rect x="843" y="586" width="12" height="12" fill="#74c476"/>
<text x="859" y="596" fill="#222">frontEndExecute (self)</text>
<rect x="12" y="604" width="12" height="12" fill="#6baed6"/>
<text x="28" y="614" fill="#222">specializeModule</text>
<rect x="289" y="604" width="12" height="12" fill="#2171b5"/>
<text x="305" y="614" fill="#222">simplifyIR</text>
<rect x="566" y="604" width="12" height="12" fill="#08306b"/>
<text x="582" y="614" fill="#222">linkIR</text>
<rect x="843" y="604" width="12" height="12" fill="#9e9ac8"/>
<text x="859" y="614" fill="#222">unrollLoopsInModule</text>
<rect x="12" y="622" width="12" height="12" fill="#807dba"/>
<text x="28" y="632" fill="#222">legalizeResourceTypes</text>
<rect x="289" y="622" width="12" height="12" fill="#6a51a3"/>
<text x="305" y="632" fill="#222">legalizeExistentialTypeLayout</text>
<rect x="566" y="622" width="12" height="12" fill="#bcbddc"/>
<text x="582" y="632" fill="#222">performMandatoryEarlyInlining</text>
<rect x="843" y="622" width="12" height="12" fill="#dadaeb"/>
<text x="859" y="632" fill="#222">performForceInlining</text>
<rect x="12" y="640" width="12" height="12" fill="#4a1486"/>
<text x="28" y="650" fill="#222">linkAndOptimizeIR (self)</text>
<rect x="289" y="640" width="12" height="12" fill="#fd8d3c"/>
<text x="305" y="650" fill="#222">emitEntryPointsSourceFromIR</text>
<rect x="566" y="640" width="12" height="12" fill="#e6550d"/>
<text x="582" y="650" fill="#222">generateOutput (self)</text>
<rect x="843" y="640" width="12" height="12" fill="#969696"/>
<text x="859" y="650" fill="#222">compileInner (self)</text>
</svg>