<svg xmlns="http://www.w3.org/2000/svg" xmlns:xlink="http://www.w3.org/1999/xlink" width="1132" height="680" viewBox="0 0 1132 680" preserveAspectRatio="xMidYMid meet" font-family="sans-serif" font-size="13">
<rect width="1132" height="680" fill="white"/>
<text x="12" y="30" font-size="20" font-weight="bold">serialize — Across releases (median ms)</text>
<text x="68" y="60" font-size="15" font-weight="600" fill="#1a1a1a">serialize<tspan fill="#888" font-weight="400" text-decoration="none">  0.62×</tspan></text>
<line x1="68.0" y1="516.0" x2="1108.0" y2="516.0" stroke="#eee"/>
<text x="64.0" y="519.0" text-anchor="end" fill="#999">0.0</text>
<line x1="68.0" y1="296.0" x2="1108.0" y2="296.0" stroke="#eee"/>
<text x="64.0" y="299.0" text-anchor="end" fill="#999">135</text>
<line x1="68.0" y1="76.0" x2="1108.0" y2="76.0" stroke="#eee"/>
<text x="64.0" y="79.0" text-anchor="end" fill="#999">270</text>
<line x1="68.0" y1="76.0" x2="68.0" y2="516.0" stroke="#333"/>
<line x1="68.0" y1="516.0" x2="1108.0" y2="516.0" stroke="#333"/>
<line x1="68.0" y1="516.0" x2="68.0" y2="519.0" stroke="#999"/>
<text x="68.0" y="531.0" text-anchor="end" fill="#666" transform="rotate(-50 68.0 531.0)">25.12</text>
<line x1="109.6" y1="516.0" x2="109.6" y2="519.0" stroke="#999"/>
<text x="109.6" y="531.0" text-anchor="end" fill="#666" transform="rotate(-50 109.6 531.0)">25.13</text>
<line x1="151.2" y1="516.0" x2="151.2" y2="519.0" stroke="#999"/>
<text x="151.2" y="531.0" text-anchor="end" fill="#666" transform="rotate(-50 151.2 531.0)">25.14</text>
<line x1="192.8" y1="516.0" x2="192.8" y2="519.0" stroke="#999"/>
<text x="192.8" y="531.0" text-anchor="end" fill="#666" transform="rotate(-50 192.8 531.0)">25.15</text>
<line x1="234.4" y1="516.0" x2="234.4" y2="519.0" stroke="#999"/>
<text x="234.4" y="531.0" text-anchor="end" fill="#666" transform="rotate(-50 234.4 531.0)">25.16</text>
<line x1="276.0" y1="516.0" x2="276.0" y2="519.0" stroke="#999"/>
<text x="276.0" y="531.0" text-anchor="end" fill="#666" transform="rotate(-50 276.0 531.0)">25.17</text>
<line x1="317.6" y1="516.0" x2="317.6" y2="519.0" stroke="#999"/>
<text x="317.6" y="531.0" text-anchor="end" fill="#666" transform="rotate(-50 317.6 531.0)">25.18</text>
<line x1="359.2" y1="516.0" x2="359.2" y2="519.0" stroke="#999"/>
<text x="359.2" y="531.0" text-anchor="end" fill="#666" transform="rotate(-50 359.2 531.0)">25.19</text>
<line x1="400.8" y1="516.0" x2="400.8" y2="519.0" stroke="#999"/>
<text x="400.8" y="531.0" text-anchor="end" fill="#666" transform="rotate(-50 400.8 531.0)">25.20</text>
<line x1="442.4" y1="516.0" x2="442.4" y2="519.0" stroke="#999"/>
<text x="442.4" y="531.0" text-anchor="end" fill="#666" transform="rotate(-50 442.4 531.0)">25.21</text>
<line x1="484.0" y1="516.0" x2="484.0" y2="519.0" stroke="#999"/>
<text x="484.0" y="531.0" text-anchor="end" fill="#666" transform="rotate(-50 484.0 531.0)">25.22</text>
<line x1="525.6" y1="516.0" x2="525.6" y2="519.0" stroke="#999"/>
<text x="525.6" y="531.0" text-anchor="end" fill="#666" transform="rotate(-50 525.6 531.0)">25.23</text>
<line x1="567.2" y1="516.0" x2="567.2" y2="519.0" stroke="#999"/>
<text x="567.2" y="531.0" text-anchor="end" fill="#666" transform="rotate(-50 567.2 531.0)">25.24</text>
<line x1="608.8" y1="516.0" x2="608.8" y2="519.0" stroke="#999"/>
<text x="608.8" y="531.0" text-anchor="end" fill="#666" transform="rotate(-50 608.8 531.0)">26.1</text>
<line x1="650.4" y1="516.0" x2="650.4" y2="519.0" stroke="#999"/>
<text x="650.4" y="531.0" text-anchor="end" fill="#666" transform="rotate(-50 650.4 531.0)">26.2</text>
<line x1="692.0" y1="516.0" x2="692.0" y2="519.0" stroke="#999"/>
<text x="692.0" y="531.0" text-anchor="end" fill="#666" transform="rotate(-50 692.0 531.0)">26.3</text>
<line x1="733.6" y1="516.0" x2="733.6" y2="519.0" stroke="#999"/>
<text x="733.6" y="531.0" text-anchor="end" fill="#666" transform="rotate(-50 733.6 531.0)">26.4</text>
<line x1="775.2" y1="516.0" x2="775.2" y2="519.0" stroke="#999"/>
<text x="775.2" y="531.0" text-anchor="end" fill="#666" transform="rotate(-50 775.2 531.0)">26.5</text>
<line x1="816.8" y1="516.0" x2="816.8" y2="519.0" stroke="#999"/>
<text x="816.8" y="531.0" text-anchor="end" fill="#666" transform="rotate(-50 816.8 531.0)">26.7</text>
<line x1="858.4" y1="516.0" x2="858.4" y2="519.0" stroke="#999"/>
<text x="858.4" y="531.0" text-anchor="end" fill="#666" transform="rotate(-50 858.4 531.0)">26.8</text>
<line x1="900.0" y1="516.0" x2="900.0" y2="519.0" stroke="#999"/>
<text x="900.0" y="531.0" text-anchor="end" fill="#666" transform="rotate(-50 900.0 531.0)">26.9</text>
<line x1="941.6" y1="516.0" x2="941.6" y2="519.0" stroke="#999"/>
<text x="941.6" y="531.0" text-anchor="end" fill="#666" transform="rotate(-50 941.6 531.0)">26.10</text>
<line x1="983.2" y1="516.0" x2="983.2" y2="519.0" stroke="#999"/>
<text x="983.2" y="531.0" text-anchor="end" fill="#666" transform="rotate(-50 983.2 531.0)">26.11</text>
<line x1="1024.8" y1="516.0" x2="1024.8" y2="519.0" stroke="#999"/>
<text x="1024.8" y="531.0" text-anchor="end" fill="#666" transform="rotate(-50 1024.8 531.0)">26.12</text>
<line x1="1066.4" y1="516.0" x2="1066.4" y2="519.0" stroke="#999"/>
<text x="1066.4" y="531.0" text-anchor="end" fill="#666" transform="rotate(-50 1066.4 531.0)">26.13</text>
<line x1="1108.0" y1="516.0" x2="1108.0" y2="519.0" stroke="#999"/>
<text x="1108.0" y="531.0" text-anchor="end" fill="#666" transform="rotate(-50 1108.0 531.0)">26.13.1</text>
<polygon points="68.0,506.2 109.6,504.4 151.2,504.8 192.8,505.3 234.4,505.3 276.0,505.3 317.6,505.4 359.2,505.3 400.8,505.4 442.4,505.2 484.0,505.5 525.6,505.8 567.2,504.9 608.8,504.6 650.4,504.6 692.0,504.5 733.6,504.4 775.2,503.2 816.8,502.2 858.4,504.1 900.0,503.8 941.6,503.1 983.2,503.4 1024.8,503.8 1066.4,503.5 1108.0,504.1 1108.0,516.0 1066.4,516.0 1024.8,516.0 983.2,516.0 941.6,516.0 900.0,516.0 858.4,516.0 816.8,516.0 775.2,516.0 733.6,516.0 692.0,516.0 650.4,516.0 608.8,516.0 567.2,516.0 525.6,516.0 484.0,516.0 442.4,516.0 400.8,516.0 359.2,516.0 317.6,516.0 276.0,516.0 234.4,516.0 192.8,516.0 151.2,516.0 109.6,516.0 68.0,516.0" fill="#c7e9c0" fill-opacity="0.9" stroke="#fff" stroke-width="0.4"><title>serialize — parseTranslationUnit</title></polygon>
<polygon points="68.0,362.7 109.6,357.6 151.2,349.3 192.8,335.8 234.4,339.7 276.0,340.7 317.6,340.9 359.2,342.1 400.8,340.7 442.4,341.5 484.0,314.7 525.6,314.0 567.2,313.9 608.8,308.2 650.4,294.9 692.0,304.7 733.6,304.6 775.2,275.9 816.8,266.8 858.4,289.9 900.0,290.7 941.6,255.7 983.2,378.2 1024.8,379.1 1066.4,374.5 1108.0,375.6 1108.0,504.1 1066.4,503.5 1024.8,503.8 983.2,503.4 941.6,503.1 900.0,503.8 858.4,504.1 816.8,502.2 775.2,503.2 733.6,504.4 692.0,504.5 650.4,504.6 608.8,504.6 567.2,504.9 525.6,505.8 484.0,505.5 442.4,505.2 400.8,505.4 359.2,505.3 317.6,505.4 276.0,505.3 234.4,505.3 192.8,505.3 151.2,504.8 109.6,504.4 68.0,506.2" fill="#41ab5d" fill-opacity="0.9" stroke="#fff" stroke-width="0.4"><title>serialize — SemanticChecking</title></polygon>
<polygon points="68.0,312.1 109.6,305.6 151.2,289.9 192.8,277.6 234.4,288.0 276.0,287.1 317.6,287.8 359.2,288.7 400.8,287.3 442.4,287.5 484.0,260.4 525.6,262.0 567.2,261.3 608.8,254.4 650.4,240.1 692.0,251.4 733.6,250.9 775.2,215.8 816.8,158.2 858.4,190.0 900.0,194.4 941.6,144.9 983.2,278.5 1024.8,284.0 1066.4,280.7 1108.0,305.0 1108.0,375.6 1066.4,374.5 1024.8,379.1 983.2,378.2 941.6,255.7 900.0,290.7 858.4,289.9 816.8,266.8 775.2,275.9 733.6,304.6 692.0,304.7 650.4,294.9 608.8,308.2 567.2,313.9 525.6,314.0 484.0,314.7 442.4,341.5 400.8,340.7 359.2,342.1 317.6,340.9 276.0,340.7 234.4,339.7 192.8,335.8 151.2,349.3 109.6,357.6 68.0,362.7" fill="#006d2c" fill-opacity="0.9" stroke="#fff" stroke-width="0.4"><title>serialize — generateIR</title></polygon>
<polygon points="68.0,310.5 109.6,304.2 151.2,289.9 192.8,271.7 234.4,287.2 276.0,287.0 317.6,287.8 359.2,288.3 400.8,286.9 442.4,285.7 484.0,260.0 525.6,262.0 567.2,260.1 608.8,253.5 650.4,240.0 692.0,251.2 733.6,250.0 775.2,211.9 816.8,156.9 858.4,190.0 900.0,192.4 941.6,144.1 983.2,278.5 1024.8,283.5 1066.4,280.7 1108.0,304.7 1108.0,305.0 1066.4,280.7 1024.8,284.0 983.2,278.5 941.6,144.9 900.0,194.4 858.4,190.0 816.8,158.2 775.2,215.8 733.6,250.9 692.0,251.4 650.4,240.1 608.8,254.4 567.2,261.3 525.6,262.0 484.0,260.4 442.4,287.5 400.8,287.3 359.2,288.7 317.6,287.8 276.0,287.1 234.4,288.0 192.8,277.6 151.2,289.9 109.6,305.6 68.0,312.1" fill="#74c476" fill-opacity="0.9" stroke="#fff" stroke-width="0.4"><title>serialize — frontEndExecute (self)</title></polygon>
<polygon points="68.0,129.5 109.6,165.9 151.2,131.8 192.8,122.4 234.4,151.5 276.0,144.1 317.6,138.6 359.2,149.0 400.8,147.9 442.4,146.1 484.0,230.1 525.6,232.2 567.2,230.9 608.8,224.1 650.4,210.5 692.0,222.2 733.6,220.2 775.2,180.4 816.8,123.3 858.4,160.7 900.0,163.4 941.6,108.6 983.2,247.5 1024.8,253.6 1066.4,252.4 1108.0,276.7 1108.0,304.7 1066.4,280.7 1024.8,283.5 983.2,278.5 941.6,144.1 900.0,192.4 858.4,190.0 816.8,156.9 775.2,211.9 733.6,250.0 692.0,251.2 650.4,240.0 608.8,253.5 567.2,260.1 525.6,262.0 484.0,260.0 442.4,285.7 400.8,286.9 359.2,288.3 317.6,287.8 276.0,287.0 234.4,287.2 192.8,271.7 151.2,289.9 109.6,304.2 68.0,310.5" fill="#e6550d" fill-opacity="0.9" stroke="#fff" stroke-width="0.4"><title>serialize — generateOutput (self)</title></polygon>
<polygon points="68.0,127.8 109.6,164.8 151.2,121.8 192.8,122.4 234.4,150.1 276.0,144.1 317.6,138.6 359.2,148.7 400.8,147.7 442.4,146.1 484.0,230.1 525.6,231.8 567.2,230.9 608.8,223.4 650.4,208.0 692.0,221.7 733.6,220.2 775.2,178.7 816.8,123.1 858.4,160.7 900.0,163.4 941.6,108.6 983.2,247.5 1024.8,252.9 1066.4,250.0 1108.0,276.0 1108.0,276.7 1066.4,252.4 1024.8,253.6 983.2,247.5 941.6,108.6 900.0,163.4 858.4,160.7 816.8,123.3 775.2,180.4 733.6,220.2 692.0,222.2 650.4,210.5 608.8,224.1 567.2,230.9 525.6,232.2 484.0,230.1 442.4,146.1 400.8,147.9 359.2,149.0 317.6,138.6 276.0,144.1 234.4,151.5 192.8,122.4 151.2,131.8 109.6,165.9 68.0,129.5" fill="#969696" fill-opacity="0.9" stroke="#fff" stroke-width="0.4"><title>serialize — compileInner (self)</title></polygon>
<text x="12" y="578" fill="#666" font-weight="600">phase buckets</text>
<rect x="12" y="586" width="12" height="12" fill="#c7e9c0"/>
<text x="28" y="596" fill="#222">parseTranslationUnit</text>
<rect x="289" y="586" width="12" height="12" fill="#41ab5d"/>
<text x="305" y="596" fill="#222">SemanticChecking</text>
<rect x="566" y="586" width="12" height="12" fill="#006d2c"/>
<text x="582" y="596" fill="#222">generateIR</text>
<rect x="843" y="586" width="12" height="12" fill="#74c476"/>
<text x="859" y="596" fill="#222">frontEndExecute (self)</text>
<rect x="12" y="604" width="12" height="12" fill="#6baed6"/>
<text x="28" y="614" fill="#222">specializeModule</text>
<rect x="289" y="604" width="12" height="12" fill="#2171b5"/>
<text x="305" y="614" fill="#222">simplifyIR</text>
<rect x="566" y="604" width="12" height="12" fill="#08306b"/>
<text x="582" y="614" fill="#222">linkIR</text>
<rect x="843" y="604" width="12" height="12" fill="#9e9ac8"/>
<text x="859" y="614" fill="#222">unrollLoopsInModule</text>
<rect x="12" y="622" width="12" height="12" fill="#807dba"/>
<text x="28" y="632" fill="#222">legalizeResourceTypes</text>
<rect x="289" y="622" width="12" height="12" fill="#6a51a3"/>
<text x="305" y="632" fill="#222">legalizeExistentialTypeLayout</text>
<rect x="566" y="622" width="12" height="12" fill="#bcbddc"/>
<text x="582" y="632" fill="#222">performMandatoryEarlyInlining</text>
<rect x="843" y="622" width="12" height="12" fill="#dadaeb"/>
<text x="859" y="632" fill="#222">performForceInlining</text>
<rect x="12" y="640" width="12" height="12" fill="#4a1486"/>
<text x="28" y="650" fill="#222">linkAndOptimizeIR (self)</text>
<rect x="289" y="640" width="12" height="12" fill="#fd8d3c"/>
<text x="305" y="650" fill="#222">emitEntryPointsSourceFromIR</text>
<rect x="566" y="640" width="12" height="12" fill="#e6550d"/>
<text x="582" y="650" fill="#222">generateOutput (self)</text>
<rect x="843" y="640" width="12" height="12" fill="#969696"/>
<text x="859" y="650" fill="#222">compileInner (self)</text>
</svg>