<svg xmlns="http://www.w3.org/2000/svg" xmlns:xlink="http://www.w3.org/1999/xlink" width="1132" height="680" viewBox="0 0 1132 680" preserveAspectRatio="xMidYMid meet" font-family="sans-serif" font-size="13">
<rect width="1132" height="680" fill="white"/>
<text x="12" y="30" font-size="20" font-weight="bold">specialization — full phase breakdown across releases (median ms)</text>
<text x="68" y="60" font-size="15" font-weight="600" fill="#1a1a1a">specialization<tspan fill="#888" font-weight="400" text-decoration="none">  1.38×</tspan></text>
<line x1="68.0" y1="516.0" x2="1108.0" y2="516.0" stroke="#eee"/>
<text x="64.0" y="519.0" text-anchor="end" fill="#999">0.0</text>
<line x1="68.0" y1="296.0" x2="1108.0" y2="296.0" stroke="#eee"/>
<text x="64.0" y="299.0" text-anchor="end" fill="#999">168</text>
<line x1="68.0" y1="76.0" x2="1108.0" y2="76.0" stroke="#eee"/>
<text x="64.0" y="79.0" text-anchor="end" fill="#999">337</text>
<line x1="68.0" y1="76.0" x2="68.0" y2="516.0" stroke="#333"/>
<line x1="68.0" y1="516.0" x2="1108.0" y2="516.0" stroke="#333"/>
<line x1="68.0" y1="516.0" x2="68.0" y2="519.0" stroke="#999"/>
<text x="68.0" y="531.0" text-anchor="end" fill="#666" transform="rotate(-50 68.0 531.0)">26.4</text>
<line x1="414.7" y1="516.0" x2="414.7" y2="519.0" stroke="#999"/>
<text x="414.7" y="531.0" text-anchor="end" fill="#666" transform="rotate(-50 414.7 531.0)">26.5</text>
<line x1="761.3" y1="516.0" x2="761.3" y2="519.0" stroke="#999"/>
<text x="761.3" y="531.0" text-anchor="end" fill="#666" transform="rotate(-50 761.3 531.0)">26.7</text>
<line x1="1108.0" y1="516.0" x2="1108.0" y2="519.0" stroke="#999"/>
<text x="1108.0" y="531.0" text-anchor="end" fill="#666" transform="rotate(-50 1108.0 531.0)">26.8</text>
<polygon points="68.0,513.9 414.7,513.9 761.3,513.8 1108.0,513.7 1108.0,516.0 761.3,516.0 414.7,516.0 68.0,516.0" fill="#c7e9c0" fill-opacity="0.9" stroke="#fff" stroke-width="0.4"><title>specialization — parseTranslationUnit</title></polygon>
<polygon points="68.0,479.3 414.7,479.6 761.3,470.8 1108.0,470.8 1108.0,513.7 761.3,513.8 414.7,513.9 68.0,513.9" fill="#41ab5d" fill-opacity="0.9" stroke="#fff" stroke-width="0.4"><title>specialization — SemanticChecking</title></polygon>
<polygon points="68.0,462.7 414.7,463.1 761.3,445.0 1108.0,445.1 1108.0,470.8 761.3,470.8 414.7,479.6 68.0,479.3" fill="#006d2c" fill-opacity="0.9" stroke="#fff" stroke-width="0.4"><title>specialization — generateIR</title></polygon>
<polygon points="68.0,462.2 414.7,462.5 761.3,444.8 1108.0,444.8 1108.0,445.1 761.3,445.0 414.7,463.1 68.0,462.7" fill="#74c476" fill-opacity="0.9" stroke="#fff" stroke-width="0.4"><title>specialization — frontEndExecute (self)</title></polygon>
<polygon points="68.0,441.1 414.7,440.4 761.3,384.6 1108.0,384.8 1108.0,444.8 761.3,444.8 414.7,462.5 68.0,462.2" fill="#6baed6" fill-opacity="0.9" stroke="#fff" stroke-width="0.4"><title>specialization — specializeModule</title></polygon>
<polygon points="68.0,363.5 414.7,362.2 761.3,293.1 1108.0,293.3 1108.0,384.8 761.3,384.6 414.7,440.4 68.0,441.1" fill="#2171b5" fill-opacity="0.9" stroke="#fff" stroke-width="0.4"><title>specialization — simplifyIR</title></polygon>
<polygon points="68.0,359.6 414.7,358.5 761.3,279.4 1108.0,279.4 1108.0,293.3 761.3,293.1 414.7,362.2 68.0,363.5" fill="#08306b" fill-opacity="0.9" stroke="#fff" stroke-width="0.4"><title>specialization — linkIR</title></polygon>
<polygon points="68.0,359.1 414.7,358.0 761.3,279.1 1108.0,279.1 1108.0,279.4 761.3,279.4 414.7,358.5 68.0,359.6" fill="#9e9ac8" fill-opacity="0.9" stroke="#fff" stroke-width="0.4"><title>specialization — unrollLoopsInModule</title></polygon>
<polygon points="68.0,330.8 414.7,329.5 761.3,248.3 1108.0,248.2 1108.0,279.1 761.3,279.1 414.7,358.0 68.0,359.1" fill="#807dba" fill-opacity="0.9" stroke="#fff" stroke-width="0.4"><title>specialization — legalizeResourceTypes</title></polygon>
<polygon points="68.0,300.7 414.7,299.4 761.3,215.6 1108.0,215.4 1108.0,248.2 761.3,248.3 414.7,329.5 68.0,330.8" fill="#6a51a3" fill-opacity="0.9" stroke="#fff" stroke-width="0.4"><title>specialization — legalizeExistentialTypeLayout</title></polygon>
<polygon points="68.0,298.0 414.7,296.7 761.3,213.3 1108.0,213.1 1108.0,215.4 761.3,215.6 414.7,299.4 68.0,300.7" fill="#bcbddc" fill-opacity="0.9" stroke="#fff" stroke-width="0.4"><title>specialization — performMandatoryEarlyInlining</title></polygon>
<polygon points="68.0,297.3 414.7,296.0 761.3,212.6 1108.0,212.4 1108.0,213.1 761.3,213.3 414.7,296.7 68.0,298.0" fill="#dadaeb" fill-opacity="0.9" stroke="#fff" stroke-width="0.4"><title>specialization — performForceInlining</title></polygon>
<polygon points="68.0,274.3 414.7,272.9 761.3,160.5 1108.0,160.2 1108.0,212.4 761.3,212.6 414.7,296.0 68.0,297.3" fill="#4a1486" fill-opacity="0.9" stroke="#fff" stroke-width="0.4"><title>specialization — linkAndOptimizeIR (self)</title></polygon>
<polygon points="68.0,222.1 414.7,221.3 761.3,109.3 1108.0,111.0 1108.0,160.2 761.3,160.5 414.7,272.9 68.0,274.3" fill="#e6550d" fill-opacity="0.9" stroke="#fff" stroke-width="0.4"><title>specialization — generateOutput (self)</title></polygon>
<polygon points="68.0,222.1 414.7,221.1 761.3,108.6 1108.0,110.9 1108.0,111.0 761.3,109.3 414.7,221.3 68.0,222.1" fill="#969696" fill-opacity="0.9" stroke="#fff" stroke-width="0.4"><title>specialization — compileInner (self)</title></polygon>
<text x="12" y="578" fill="#666" font-weight="600">phase buckets</text>
<rect x="12" y="586" width="12" height="12" fill="#c7e9c0"/>
<text x="28" y="596" fill="#222">parseTranslationUnit</text>
<rect x="289" y="586" width="12" height="12" fill="#41ab5d"/>
<text x="305" y="596" fill="#222">SemanticChecking</text>
<rect x="566" y="586" width="12" height="12" fill="#006d2c"/>
<text x="582" y="596" fill="#222">generateIR</text>
<rect x="843" y="586" width="12" height="12" fill="#74c476"/>
<text x="859" y="596" fill="#222">frontEndExecute (self)</text>
<rect x="12" y="604" width="12" height="12" fill="#6baed6"/>
<text x="28" y="614" fill="#222">specializeModule</text>
<rect x="289" y="604" width="12" height="12" fill="#2171b5"/>
<text x="305" y="614" fill="#222">simplifyIR</text>
<rect x="566" y="604" width="12" height="12" fill="#08306b"/>
<text x="582" y="614" fill="#222">linkIR</text>
<rect x="843" y="604" width="12" height="12" fill="#9e9ac8"/>
<text x="859" y="614" fill="#222">unrollLoopsInModule</text>
<rect x="12" y="622" width="12" height="12" fill="#807dba"/>
<text x="28" y="632" fill="#222">legalizeResourceTypes</text>
<rect x="289" y="622" width="12" height="12" fill="#6a51a3"/>
<text x="305" y="632" fill="#222">legalizeExistentialTypeLayout</text>
<rect x="566" y="622" width="12" height="12" fill="#bcbddc"/>
<text x="582" y="632" fill="#222">performMandatoryEarlyInlining</text>
<rect x="843" y="622" width="12" height="12" fill="#dadaeb"/>
<text x="859" y="632" fill="#222">performForceInlining</text>
<rect x="12" y="640" width="12" height="12" fill="#4a1486"/>
<text x="28" y="650" fill="#222">linkAndOptimizeIR (self)</text>
<rect x="289" y="640" width="12" height="12" fill="#fd8d3c"/>
<text x="305" y="650" fill="#222">emitEntryPointsSourceFromIR</text>
<rect x="566" y="640" width="12" height="12" fill="#e6550d"/>
<text x="582" y="650" fill="#222">generateOutput (self)</text>
<rect x="843" y="640" width="12" height="12" fill="#969696"/>
<text x="859" y="650" fill="#222">compileInner (self)</text>
</svg>