<svg xmlns="http://www.w3.org/2000/svg" xmlns:xlink="http://www.w3.org/1999/xlink" width="1132" height="680" viewBox="0 0 1132 680" preserveAspectRatio="xMidYMid meet" font-family="sans-serif" font-size="13">
<rect width="1132" height="680" fill="white"/>
<text x="12" y="30" font-size="20" font-weight="bold">specialization — full phase breakdown across releases (median ms)</text>
<text x="68" y="60" font-size="15" font-weight="600" fill="#1a1a1a">specialization<tspan fill="#888" font-weight="400" text-decoration="none">  0.99×</tspan></text>
<line x1="68.0" y1="516.0" x2="1108.0" y2="516.0" stroke="#eee"/>
<text x="64.0" y="519.0" text-anchor="end" fill="#999">0.0</text>
<line x1="68.0" y1="296.0" x2="1108.0" y2="296.0" stroke="#eee"/>
<text x="64.0" y="299.0" text-anchor="end" fill="#999">169</text>
<line x1="68.0" y1="76.0" x2="1108.0" y2="76.0" stroke="#eee"/>
<text x="64.0" y="79.0" text-anchor="end" fill="#999">338</text>
<line x1="68.0" y1="76.0" x2="68.0" y2="516.0" stroke="#333"/>
<line x1="68.0" y1="516.0" x2="1108.0" y2="516.0" stroke="#333"/>
<line x1="68.0" y1="516.0" x2="68.0" y2="519.0" stroke="#999"/>
<text x="68.0" y="531.0" text-anchor="end" fill="#666" transform="rotate(-50 68.0 531.0)">26.1</text>
<line x1="183.6" y1="516.0" x2="183.6" y2="519.0" stroke="#999"/>
<text x="183.6" y="531.0" text-anchor="end" fill="#666" transform="rotate(-50 183.6 531.0)">26.2</text>
<line x1="299.1" y1="516.0" x2="299.1" y2="519.0" stroke="#999"/>
<text x="299.1" y="531.0" text-anchor="end" fill="#666" transform="rotate(-50 299.1 531.0)">26.3</text>
<line x1="414.7" y1="516.0" x2="414.7" y2="519.0" stroke="#999"/>
<text x="414.7" y="531.0" text-anchor="end" fill="#666" transform="rotate(-50 414.7 531.0)">26.4</text>
<line x1="530.2" y1="516.0" x2="530.2" y2="519.0" stroke="#999"/>
<text x="530.2" y="531.0" text-anchor="end" fill="#666" transform="rotate(-50 530.2 531.0)">26.5</text>
<line x1="645.8" y1="516.0" x2="645.8" y2="519.0" stroke="#999"/>
<text x="645.8" y="531.0" text-anchor="end" fill="#666" transform="rotate(-50 645.8 531.0)">26.7</text>
<line x1="761.3" y1="516.0" x2="761.3" y2="519.0" stroke="#999"/>
<text x="761.3" y="531.0" text-anchor="end" fill="#666" transform="rotate(-50 761.3 531.0)">26.8</text>
<line x1="876.9" y1="516.0" x2="876.9" y2="519.0" stroke="#999"/>
<text x="876.9" y="531.0" text-anchor="end" fill="#666" transform="rotate(-50 876.9 531.0)">26.9</text>
<line x1="992.4" y1="516.0" x2="992.4" y2="519.0" stroke="#999"/>
<text x="992.4" y="531.0" text-anchor="end" fill="#666" transform="rotate(-50 992.4 531.0)">26.10</text>
<line x1="1108.0" y1="516.0" x2="1108.0" y2="519.0" stroke="#999"/>
<text x="1108.0" y="531.0" text-anchor="end" fill="#666" transform="rotate(-50 1108.0 531.0)">26.11</text>
<polygon points="68.0,514.0 183.6,514.1 299.1,514.0 414.7,513.9 530.2,513.9 645.8,513.8 761.3,513.7 876.9,513.8 992.4,513.8 1108.0,513.8 1108.0,516.0 992.4,516.0 876.9,516.0 761.3,516.0 645.8,516.0 530.2,516.0 414.7,516.0 299.1,516.0 183.6,516.0 68.0,516.0" fill="#c7e9c0" fill-opacity="0.9" stroke="#fff" stroke-width="0.4"><title>specialization — parseTranslationUnit</title></polygon>
<polygon points="68.0,482.9 183.6,481.5 299.1,481.6 414.7,479.5 530.2,479.8 645.8,471.1 761.3,471.0 876.9,471.1 992.4,469.5 1108.0,488.4 1108.0,513.8 992.4,513.8 876.9,513.8 761.3,513.7 645.8,513.8 530.2,513.9 414.7,513.9 299.1,514.0 183.6,514.1 68.0,514.0" fill="#41ab5d" fill-opacity="0.9" stroke="#fff" stroke-width="0.4"><title>specialization — SemanticChecking</title></polygon>
<polygon points="68.0,467.3 183.6,465.6 299.1,465.6 414.7,463.0 530.2,463.4 645.8,445.4 761.3,445.5 876.9,445.4 992.4,443.7 1108.0,472.9 1108.0,488.4 992.4,469.5 876.9,471.1 761.3,471.0 645.8,471.1 530.2,479.8 414.7,479.5 299.1,481.6 183.6,481.5 68.0,482.9" fill="#006d2c" fill-opacity="0.9" stroke="#fff" stroke-width="0.4"><title>specialization — generateIR</title></polygon>
<polygon points="68.0,466.6 183.6,465.1 299.1,465.4 414.7,462.5 530.2,462.7 645.8,445.2 761.3,445.2 876.9,445.0 992.4,443.1 1108.0,472.4 1108.0,472.9 992.4,443.7 876.9,445.4 761.3,445.5 645.8,445.4 530.2,463.4 414.7,463.0 299.1,465.6 183.6,465.6 68.0,467.3" fill="#74c476" fill-opacity="0.9" stroke="#fff" stroke-width="0.4"><title>specialization — frontEndExecute (self)</title></polygon>
<polygon points="68.0,446.4 183.6,444.7 299.1,444.9 414.7,441.5 530.2,440.8 645.8,385.3 761.3,385.5 876.9,384.4 992.4,382.5 1108.0,444.8 1108.0,472.4 992.4,443.1 876.9,445.0 761.3,445.2 645.8,445.2 530.2,462.7 414.7,462.5 299.1,465.4 183.6,465.1 68.0,466.6" fill="#6baed6" fill-opacity="0.9" stroke="#fff" stroke-width="0.4"><title>specialization — specializeModule</title></polygon>
<polygon points="68.0,373.4 183.6,371.7 299.1,371.3 414.7,364.3 530.2,363.0 645.8,294.3 761.3,294.5 876.9,293.7 992.4,290.4 1108.0,389.7 1108.0,444.8 992.4,382.5 876.9,384.4 761.3,385.5 645.8,385.3 530.2,440.8 414.7,441.5 299.1,444.9 183.6,444.7 68.0,446.4" fill="#2171b5" fill-opacity="0.9" stroke="#fff" stroke-width="0.4"><title>specialization — simplifyIR</title></polygon>
<polygon points="68.0,370.0 183.6,368.2 299.1,367.9 414.7,360.4 530.2,359.3 645.8,280.6 761.3,280.6 876.9,279.9 992.4,276.8 1108.0,386.3 1108.0,389.7 992.4,290.4 876.9,293.7 761.3,294.5 645.8,294.3 530.2,363.0 414.7,364.3 299.1,371.3 183.6,371.7 68.0,373.4" fill="#08306b" fill-opacity="0.9" stroke="#fff" stroke-width="0.4"><title>specialization — linkIR</title></polygon>
<polygon points="68.0,369.6 183.6,367.8 299.1,367.4 414.7,359.9 530.2,358.8 645.8,280.4 761.3,280.4 876.9,279.7 992.4,276.5 1108.0,386.0 1108.0,386.3 992.4,276.8 876.9,279.9 761.3,280.6 645.8,280.6 530.2,359.3 414.7,360.4 299.1,367.9 183.6,368.2 68.0,370.0" fill="#9e9ac8" fill-opacity="0.9" stroke="#fff" stroke-width="0.4"><title>specialization — unrollLoopsInModule</title></polygon>
<polygon points="68.0,342.1 183.6,340.1 299.1,339.9 414.7,331.8 530.2,330.5 645.8,249.8 761.3,249.6 876.9,248.9 992.4,245.9 1108.0,357.5 1108.0,386.0 992.4,276.5 876.9,279.7 761.3,280.4 645.8,280.4 530.2,358.8 414.7,359.9 299.1,367.4 183.6,367.8 68.0,369.6" fill="#807dba" fill-opacity="0.9" stroke="#fff" stroke-width="0.4"><title>specialization — legalizeResourceTypes</title></polygon>
<polygon points="68.0,312.9 183.6,310.7 299.1,310.9 414.7,301.8 530.2,300.6 645.8,217.2 761.3,217.0 876.9,216.4 992.4,213.4 1108.0,327.4 1108.0,357.5 992.4,245.9 876.9,248.9 761.3,249.6 645.8,249.8 530.2,330.5 414.7,331.8 299.1,339.9 183.6,340.1 68.0,342.1" fill="#6a51a3" fill-opacity="0.9" stroke="#fff" stroke-width="0.4"><title>specialization — legalizeExistentialTypeLayout</title></polygon>
<polygon points="68.0,310.4 183.6,308.2 299.1,308.4 414.7,299.2 530.2,297.9 645.8,214.9 761.3,214.7 876.9,214.2 992.4,211.2 1108.0,325.2 1108.0,327.4 992.4,213.4 876.9,216.4 761.3,217.0 645.8,217.2 530.2,300.6 414.7,301.8 299.1,310.9 183.6,310.7 68.0,312.9" fill="#bcbddc" fill-opacity="0.9" stroke="#fff" stroke-width="0.4"><title>specialization — performMandatoryEarlyInlining</title></polygon>
<polygon points="68.0,309.7 183.6,307.5 299.1,307.7 414.7,298.5 530.2,297.2 645.8,214.2 761.3,214.0 876.9,213.4 992.4,210.5 1108.0,324.5 1108.0,325.2 992.4,211.2 876.9,214.2 761.3,214.7 645.8,214.9 530.2,297.9 414.7,299.2 299.1,308.4 183.6,308.2 68.0,310.4" fill="#dadaeb" fill-opacity="0.9" stroke="#fff" stroke-width="0.4"><title>specialization — performForceInlining</title></polygon>
<polygon points="68.0,288.0 183.6,284.6 299.1,285.3 414.7,275.6 530.2,274.2 645.8,162.4 761.3,162.1 876.9,161.7 992.4,158.1 1108.0,288.4 1108.0,324.5 992.4,210.5 876.9,213.4 761.3,214.0 645.8,214.2 530.2,297.2 414.7,298.5 299.1,307.7 183.6,307.5 68.0,309.7" fill="#4a1486" fill-opacity="0.9" stroke="#fff" stroke-width="0.4"><title>specialization — linkAndOptimizeIR (self)</title></polygon>
<polygon points="68.0,238.8 183.6,235.7 299.1,235.7 414.7,223.7 530.2,222.9 645.8,111.4 761.3,113.2 876.9,113.3 992.4,109.0 1108.0,242.4 1108.0,288.4 992.4,158.1 876.9,161.7 761.3,162.1 645.8,162.4 530.2,274.2 414.7,275.6 299.1,285.3 183.6,284.6 68.0,288.0" fill="#e6550d" fill-opacity="0.9" stroke="#fff" stroke-width="0.4"><title>specialization — generateOutput (self)</title></polygon>
<polygon points="68.0,238.7 183.6,235.7 299.1,235.4 414.7,223.7 530.2,222.7 645.8,110.8 761.3,113.1 876.9,113.3 992.4,108.6 1108.0,242.2 1108.0,242.4 992.4,109.0 876.9,113.3 761.3,113.2 645.8,111.4 530.2,222.9 414.7,223.7 299.1,235.7 183.6,235.7 68.0,238.8" fill="#969696" fill-opacity="0.9" stroke="#fff" stroke-width="0.4"><title>specialization — compileInner (self)</title></polygon>
<text x="12" y="578" fill="#666" font-weight="600">phase buckets</text>
<rect x="12" y="586" width="12" height="12" fill="#c7e9c0"/>
<text x="28" y="596" fill="#222">parseTranslationUnit</text>
<rect x="289" y="586" width="12" height="12" fill="#41ab5d"/>
<text x="305" y="596" fill="#222">SemanticChecking</text>
<rect x="566" y="586" width="12" height="12" fill="#006d2c"/>
<text x="582" y="596" fill="#222">generateIR</text>
<rect x="843" y="586" width="12" height="12" fill="#74c476"/>
<text x="859" y="596" fill="#222">frontEndExecute (self)</text>
<rect x="12" y="604" width="12" height="12" fill="#6baed6"/>
<text x="28" y="614" fill="#222">specializeModule</text>
<rect x="289" y="604" width="12" height="12" fill="#2171b5"/>
<text x="305" y="614" fill="#222">simplifyIR</text>
<rect x="566" y="604" width="12" height="12" fill="#08306b"/>
<text x="582" y="614" fill="#222">linkIR</text>
<rect x="843" y="604" width="12" height="12" fill="#9e9ac8"/>
<text x="859" y="614" fill="#222">unrollLoopsInModule</text>
<rect x="12" y="622" width="12" height="12" fill="#807dba"/>
<text x="28" y="632" fill="#222">legalizeResourceTypes</text>
<rect x="289" y="622" width="12" height="12" fill="#6a51a3"/>
<text x="305" y="632" fill="#222">legalizeExistentialTypeLayout</text>
<rect x="566" y="622" width="12" height="12" fill="#bcbddc"/>
<text x="582" y="632" fill="#222">performMandatoryEarlyInlining</text>
<rect x="843" y="622" width="12" height="12" fill="#dadaeb"/>
<text x="859" y="632" fill="#222">performForceInlining</text>
<rect x="12" y="640" width="12" height="12" fill="#4a1486"/>
<text x="28" y="650" fill="#222">linkAndOptimizeIR (self)</text>
<rect x="289" y="640" width="12" height="12" fill="#fd8d3c"/>
<text x="305" y="650" fill="#222">emitEntryPointsSourceFromIR</text>
<rect x="566" y="640" width="12" height="12" fill="#e6550d"/>
<text x="582" y="650" fill="#222">generateOutput (self)</text>
<rect x="843" y="640" width="12" height="12" fill="#969696"/>
<text x="859" y="650" fill="#222">compileInner (self)</text>
</svg>