<svg xmlns="http://www.w3.org/2000/svg" xmlns:xlink="http://www.w3.org/1999/xlink" width="1132" height="680" viewBox="0 0 1132 680" preserveAspectRatio="xMidYMid meet" font-family="sans-serif" font-size="13">
<rect width="1132" height="680" fill="white"/>
<text x="12" y="30" font-size="20" font-weight="bold">specialization — full phase breakdown across releases (median ms)</text>
<text x="68" y="60" font-size="15" font-weight="600" fill="#1a1a1a">specialization<tspan fill="#888" font-weight="400" text-decoration="none">  0.68×</tspan></text>
<line x1="68.0" y1="516.0" x2="1108.0" y2="516.0" stroke="#eee"/>
<text x="64.0" y="519.0" text-anchor="end" fill="#999">0.0</text>
<line x1="68.0" y1="296.0" x2="1108.0" y2="296.0" stroke="#eee"/>
<text x="64.0" y="299.0" text-anchor="end" fill="#999">201</text>
<line x1="68.0" y1="76.0" x2="1108.0" y2="76.0" stroke="#eee"/>
<text x="64.0" y="79.0" text-anchor="end" fill="#999">402</text>
<line x1="68.0" y1="76.0" x2="68.0" y2="516.0" stroke="#333"/>
<line x1="68.0" y1="516.0" x2="1108.0" y2="516.0" stroke="#333"/>
<line x1="745.6" y1="76.0" x2="745.6" y2="516.0" stroke="#e8731a" stroke-width="1.2" stroke-dasharray="4 3"/>
<text x="748.6" y="87.0" fill="#e8731a" font-size="11">daily →</text>
<line x1="68.0" y1="516.0" x2="68.0" y2="519.0" stroke="#999"/>
<text x="68.0" y="531.0" text-anchor="end" fill="#666" transform="rotate(-50 68.0 531.0)">25.14</text>
<line x1="99.5" y1="516.0" x2="99.5" y2="519.0" stroke="#999"/>
<text x="99.5" y="531.0" text-anchor="end" fill="#666" transform="rotate(-50 99.5 531.0)">25.15</text>
<line x1="131.0" y1="516.0" x2="131.0" y2="519.0" stroke="#999"/>
<text x="131.0" y="531.0" text-anchor="end" fill="#666" transform="rotate(-50 131.0 531.0)">25.16</text>
<line x1="162.5" y1="516.0" x2="162.5" y2="519.0" stroke="#999"/>
<text x="162.5" y="531.0" text-anchor="end" fill="#666" transform="rotate(-50 162.5 531.0)">25.17</text>
<line x1="194.1" y1="516.0" x2="194.1" y2="519.0" stroke="#999"/>
<text x="194.1" y="531.0" text-anchor="end" fill="#666" transform="rotate(-50 194.1 531.0)">25.18</text>
<line x1="225.6" y1="516.0" x2="225.6" y2="519.0" stroke="#999"/>
<text x="225.6" y="531.0" text-anchor="end" fill="#666" transform="rotate(-50 225.6 531.0)">25.19</text>
<line x1="257.1" y1="516.0" x2="257.1" y2="519.0" stroke="#999"/>
<text x="257.1" y="531.0" text-anchor="end" fill="#666" transform="rotate(-50 257.1 531.0)">25.20</text>
<line x1="288.6" y1="516.0" x2="288.6" y2="519.0" stroke="#999"/>
<text x="288.6" y="531.0" text-anchor="end" fill="#666" transform="rotate(-50 288.6 531.0)">25.21</text>
<line x1="320.1" y1="516.0" x2="320.1" y2="519.0" stroke="#999"/>
<text x="320.1" y="531.0" text-anchor="end" fill="#666" transform="rotate(-50 320.1 531.0)">25.22</text>
<line x1="351.6" y1="516.0" x2="351.6" y2="519.0" stroke="#999"/>
<text x="351.6" y="531.0" text-anchor="end" fill="#666" transform="rotate(-50 351.6 531.0)">25.23</text>
<line x1="383.2" y1="516.0" x2="383.2" y2="519.0" stroke="#999"/>
<text x="383.2" y="531.0" text-anchor="end" fill="#666" transform="rotate(-50 383.2 531.0)">25.24</text>
<line x1="414.7" y1="516.0" x2="414.7" y2="519.0" stroke="#999"/>
<text x="414.7" y="531.0" text-anchor="end" fill="#666" transform="rotate(-50 414.7 531.0)">26.1</text>
<line x1="446.2" y1="516.0" x2="446.2" y2="519.0" stroke="#999"/>
<text x="446.2" y="531.0" text-anchor="end" fill="#666" transform="rotate(-50 446.2 531.0)">26.2</text>
<line x1="477.7" y1="516.0" x2="477.7" y2="519.0" stroke="#999"/>
<text x="477.7" y="531.0" text-anchor="end" fill="#666" transform="rotate(-50 477.7 531.0)">26.3</text>
<line x1="509.2" y1="516.0" x2="509.2" y2="519.0" stroke="#999"/>
<text x="509.2" y="531.0" text-anchor="end" fill="#666" transform="rotate(-50 509.2 531.0)">26.4</text>
<line x1="540.7" y1="516.0" x2="540.7" y2="519.0" stroke="#999"/>
<text x="540.7" y="531.0" text-anchor="end" fill="#666" transform="rotate(-50 540.7 531.0)">26.5</text>
<line x1="572.2" y1="516.0" x2="572.2" y2="519.0" stroke="#999"/>
<text x="572.2" y="531.0" text-anchor="end" fill="#666" transform="rotate(-50 572.2 531.0)">26.7</text>
<line x1="603.8" y1="516.0" x2="603.8" y2="519.0" stroke="#999"/>
<text x="603.8" y="531.0" text-anchor="end" fill="#666" transform="rotate(-50 603.8 531.0)">26.8</text>
<line x1="635.3" y1="516.0" x2="635.3" y2="519.0" stroke="#999"/>
<text x="635.3" y="531.0" text-anchor="end" fill="#666" transform="rotate(-50 635.3 531.0)">26.9</text>
<line x1="666.8" y1="516.0" x2="666.8" y2="519.0" stroke="#999"/>
<text x="666.8" y="531.0" text-anchor="end" fill="#666" transform="rotate(-50 666.8 531.0)">26.10</text>
<line x1="698.3" y1="516.0" x2="698.3" y2="519.0" stroke="#999"/>
<text x="698.3" y="531.0" text-anchor="end" fill="#666" transform="rotate(-50 698.3 531.0)">26.11</text>
<line x1="729.8" y1="516.0" x2="729.8" y2="519.0" stroke="#999"/>
<text x="729.8" y="531.0" text-anchor="end" fill="#666" transform="rotate(-50 729.8 531.0)">26.12</text>
<line x1="761.3" y1="516.0" x2="761.3" y2="519.0" stroke="#999"/>
<text x="761.3" y="531.0" text-anchor="end" fill="#e8731a" transform="rotate(-50 761.3 531.0)">06-25</text>
<line x1="792.8" y1="516.0" x2="792.8" y2="519.0" stroke="#999"/>
<text x="792.8" y="531.0" text-anchor="end" fill="#e8731a" transform="rotate(-50 792.8 531.0)">06-26</text>
<line x1="824.4" y1="516.0" x2="824.4" y2="519.0" stroke="#999"/>
<text x="824.4" y="531.0" text-anchor="end" fill="#e8731a" transform="rotate(-50 824.4 531.0)">06-28</text>
<line x1="855.9" y1="516.0" x2="855.9" y2="519.0" stroke="#999"/>
<text x="855.9" y="531.0" text-anchor="end" fill="#e8731a" transform="rotate(-50 855.9 531.0)">07-01</text>
<line x1="887.4" y1="516.0" x2="887.4" y2="519.0" stroke="#999"/>
<text x="887.4" y="531.0" text-anchor="end" fill="#e8731a" transform="rotate(-50 887.4 531.0)">07-02</text>
<line x1="918.9" y1="516.0" x2="918.9" y2="519.0" stroke="#999"/>
<text x="918.9" y="531.0" text-anchor="end" fill="#e8731a" transform="rotate(-50 918.9 531.0)">07-03</text>
<line x1="950.4" y1="516.0" x2="950.4" y2="519.0" stroke="#999"/>
<text x="950.4" y="531.0" text-anchor="end" fill="#e8731a" transform="rotate(-50 950.4 531.0)">07-06</text>
<line x1="981.9" y1="516.0" x2="981.9" y2="519.0" stroke="#999"/>
<text x="981.9" y="531.0" text-anchor="end" fill="#e8731a" transform="rotate(-50 981.9 531.0)">07-07</text>
<line x1="1013.5" y1="516.0" x2="1013.5" y2="519.0" stroke="#999"/>
<text x="1013.5" y="531.0" text-anchor="end" fill="#e8731a" transform="rotate(-50 1013.5 531.0)">07-08</text>
<line x1="1045.0" y1="516.0" x2="1045.0" y2="519.0" stroke="#999"/>
<text x="1045.0" y="531.0" text-anchor="end" fill="#e8731a" transform="rotate(-50 1045.0 531.0)">07-09</text>
<line x1="1076.5" y1="516.0" x2="1076.5" y2="519.0" stroke="#999"/>
<text x="1076.5" y="531.0" text-anchor="end" fill="#e8731a" transform="rotate(-50 1076.5 531.0)">07-10</text>
<line x1="1108.0" y1="516.0" x2="1108.0" y2="519.0" stroke="#999"/>
<text x="1108.0" y="531.0" text-anchor="end" fill="#e8731a" transform="rotate(-50 1108.0 531.0)">07-11</text>
<polygon points="68.0,514.3 99.5,514.5 131.0,514.5 162.5,514.4 194.1,514.3 225.6,514.3 257.1,514.3 288.6,514.3 320.1,514.4 351.6,514.4 383.2,514.3 414.7,514.3 446.2,514.3 477.7,514.3 509.2,514.2 540.7,514.2 572.2,514.1 603.8,513.7 635.3,514.1 666.8,514.1 698.3,514.1 729.8,514.1 761.3,513.9 792.8,514.0 824.4,513.9 855.9,514.0 887.4,514.0 918.9,513.9 950.4,513.8 981.9,514.0 1013.5,514.0 1045.0,514.0 1076.5,514.1 1108.0,514.0 1108.0,516.0 1076.5,516.0 1045.0,516.0 1013.5,516.0 981.9,516.0 950.4,516.0 918.9,516.0 887.4,516.0 855.9,516.0 824.4,516.0 792.8,516.0 761.3,516.0 729.8,516.0 698.3,516.0 666.8,516.0 635.3,516.0 603.8,516.0 572.2,516.0 540.7,516.0 509.2,516.0 477.7,516.0 446.2,516.0 414.7,516.0 383.2,516.0 351.6,516.0 320.1,516.0 288.6,516.0 257.1,516.0 225.6,516.0 194.1,516.0 162.5,516.0 131.0,516.0 99.5,516.0 68.0,516.0" fill="#c7e9c0" fill-opacity="0.9" stroke="#fff" stroke-width="0.4"><title>specialization — parseTranslationUnit</title></polygon>
<polygon points="68.0,494.0 99.5,482.9 131.0,483.9 162.5,481.9 194.1,479.9 225.6,481.5 257.1,480.1 288.6,480.6 320.1,487.6 351.6,486.8 383.2,488.2 414.7,488.0 446.2,486.9 477.7,486.0 509.2,486.2 540.7,486.0 572.2,476.8 603.8,463.3 635.3,474.8 666.8,475.6 698.3,492.6 729.8,491.8 761.3,490.7 792.8,490.9 824.4,490.3 855.9,491.1 887.4,490.7 918.9,490.8 950.4,489.9 981.9,490.7 1013.5,490.5 1045.0,490.4 1076.5,490.2 1108.0,490.8 1108.0,514.0 1076.5,514.1 1045.0,514.0 1013.5,514.0 981.9,514.0 950.4,513.8 918.9,513.9 887.4,514.0 855.9,514.0 824.4,513.9 792.8,514.0 761.3,513.9 729.8,514.1 698.3,514.1 666.8,514.1 635.3,514.1 603.8,513.7 572.2,514.1 540.7,514.2 509.2,514.2 477.7,514.3 446.2,514.3 414.7,514.3 383.2,514.3 351.6,514.4 320.1,514.4 288.6,514.3 257.1,514.3 225.6,514.3 194.1,514.3 162.5,514.4 131.0,514.5 99.5,514.5 68.0,514.3" fill="#41ab5d" fill-opacity="0.9" stroke="#fff" stroke-width="0.4"><title>specialization — SemanticChecking</title></polygon>
<polygon points="68.0,480.8 99.5,469.9 131.0,470.8 162.5,467.9 194.1,465.3 225.6,467.3 257.1,465.7 288.6,466.1 320.1,473.6 351.6,472.6 383.2,475.0 414.7,474.7 446.2,473.6 477.7,472.3 509.2,472.4 540.7,472.2 572.2,450.6 603.8,432.5 635.3,446.7 666.8,450.3 698.3,478.5 729.8,477.6 761.3,476.2 792.8,476.4 824.4,475.9 855.9,476.4 887.4,476.2 918.9,476.0 950.4,475.2 981.9,475.8 1013.5,475.6 1045.0,475.6 1076.5,475.2 1108.0,475.9 1108.0,490.8 1076.5,490.2 1045.0,490.4 1013.5,490.5 981.9,490.7 950.4,489.9 918.9,490.8 887.4,490.7 855.9,491.1 824.4,490.3 792.8,490.9 761.3,490.7 729.8,491.8 698.3,492.6 666.8,475.6 635.3,474.8 603.8,463.3 572.2,476.8 540.7,486.0 509.2,486.2 477.7,486.0 446.2,486.9 414.7,488.0 383.2,488.2 351.6,486.8 320.1,487.6 288.6,480.6 257.1,480.1 225.6,481.5 194.1,479.9 162.5,481.9 131.0,483.9 99.5,482.9 68.0,494.0" fill="#006d2c" fill-opacity="0.9" stroke="#fff" stroke-width="0.4"><title>specialization — generateIR</title></polygon>
<polygon points="68.0,480.5 99.5,469.7 131.0,470.4 162.5,467.4 194.1,465.3 225.6,466.8 257.1,464.8 288.6,465.5 320.1,472.8 351.6,472.2 383.2,474.5 414.7,474.3 446.2,473.2 477.7,472.0 509.2,471.9 540.7,472.0 572.2,450.2 603.8,432.3 635.3,446.3 666.8,450.2 698.3,478.0 729.8,477.1 761.3,475.4 792.8,475.8 824.4,475.3 855.9,475.9 887.4,475.6 918.9,475.4 950.4,474.8 981.9,475.5 1013.5,475.3 1045.0,475.3 1076.5,474.9 1108.0,475.4 1108.0,475.9 1076.5,475.2 1045.0,475.6 1013.5,475.6 981.9,475.8 950.4,475.2 918.9,476.0 887.4,476.2 855.9,476.4 824.4,475.9 792.8,476.4 761.3,476.2 729.8,477.6 698.3,478.5 666.8,450.3 635.3,446.7 603.8,432.5 572.2,450.6 540.7,472.2 509.2,472.4 477.7,472.3 446.2,473.6 414.7,474.7 383.2,475.0 351.6,472.6 320.1,473.6 288.6,466.1 257.1,465.7 225.6,467.3 194.1,465.3 162.5,467.9 131.0,470.8 99.5,469.9 68.0,480.8" fill="#74c476" fill-opacity="0.9" stroke="#fff" stroke-width="0.4"><title>specialization — frontEndExecute (self)</title></polygon>
<polygon points="68.0,467.5 99.5,457.0 131.0,457.7 162.5,453.6 194.1,449.8 225.6,452.6 257.1,450.2 288.6,450.6 320.1,457.9 351.6,457.7 383.2,457.4 414.7,457.0 446.2,456.4 477.7,454.9 509.2,454.4 540.7,453.8 572.2,398.3 603.8,375.8 635.3,392.8 666.8,397.4 698.3,454.0 729.8,453.8 761.3,449.7 792.8,450.0 824.4,449.9 855.9,450.2 887.4,450.9 918.9,449.7 950.4,449.7 981.9,449.3 1013.5,449.4 1045.0,449.4 1076.5,448.7 1108.0,448.9 1108.0,475.4 1076.5,474.9 1045.0,475.3 1013.5,475.3 981.9,475.5 950.4,474.8 918.9,475.4 887.4,475.6 855.9,475.9 824.4,475.3 792.8,475.8 761.3,475.4 729.8,477.1 698.3,478.0 666.8,450.2 635.3,446.3 603.8,432.3 572.2,450.2 540.7,472.0 509.2,471.9 477.7,472.0 446.2,473.2 414.7,474.3 383.2,474.5 351.6,472.2 320.1,472.8 288.6,465.5 257.1,464.8 225.6,466.8 194.1,465.3 162.5,467.4 131.0,470.4 99.5,469.7 68.0,480.5" fill="#6baed6" fill-opacity="0.9" stroke="#fff" stroke-width="0.4"><title>specialization — specializeModule</title></polygon>
<polygon points="68.0,414.4 99.5,404.9 131.0,405.9 162.5,396.4 194.1,389.8 225.6,395.0 257.1,393.2 288.6,393.2 320.1,400.3 351.6,402.6 383.2,394.5 414.7,395.3 446.2,395.4 477.7,393.8 509.2,389.1 540.7,388.6 572.2,315.7 603.8,287.7 635.3,309.7 666.8,316.3 698.3,404.0 729.8,404.5 761.3,400.3 792.8,400.2 824.4,400.9 855.9,402.8 887.4,426.2 918.9,424.6 950.4,424.7 981.9,431.5 1013.5,431.8 1045.0,431.9 1076.5,430.9 1108.0,431.1 1108.0,448.9 1076.5,448.7 1045.0,449.4 1013.5,449.4 981.9,449.3 950.4,449.7 918.9,449.7 887.4,450.9 855.9,450.2 824.4,449.9 792.8,450.0 761.3,449.7 729.8,453.8 698.3,454.0 666.8,397.4 635.3,392.8 603.8,375.8 572.2,398.3 540.7,453.8 509.2,454.4 477.7,454.9 446.2,456.4 414.7,457.0 383.2,457.4 351.6,457.7 320.1,457.9 288.6,450.6 257.1,450.2 225.6,452.6 194.1,449.8 162.5,453.6 131.0,457.7 99.5,457.0 68.0,467.5" fill="#2171b5" fill-opacity="0.9" stroke="#fff" stroke-width="0.4"><title>specialization — simplifyIR</title></polygon>
<polygon points="68.0,411.1 99.5,401.9 131.0,402.8 162.5,392.9 194.1,385.6 225.6,391.7 257.1,389.7 288.6,389.6 320.1,396.6 351.6,399.2 383.2,391.3 414.7,392.2 446.2,392.3 477.7,390.7 509.2,386.0 540.7,385.6 572.2,301.8 603.8,266.7 635.3,293.5 666.8,302.2 698.3,400.9 729.8,401.5 761.3,397.2 792.8,397.0 824.4,397.7 855.9,399.7 887.4,423.2 918.9,421.6 950.4,421.7 981.9,428.8 1013.5,429.2 1045.0,429.3 1076.5,428.3 1108.0,428.3 1108.0,431.1 1076.5,430.9 1045.0,431.9 1013.5,431.8 981.9,431.5 950.4,424.7 918.9,424.6 887.4,426.2 855.9,402.8 824.4,400.9 792.8,400.2 761.3,400.3 729.8,404.5 698.3,404.0 666.8,316.3 635.3,309.7 603.8,287.7 572.2,315.7 540.7,388.6 509.2,389.1 477.7,393.8 446.2,395.4 414.7,395.3 383.2,394.5 351.6,402.6 320.1,400.3 288.6,393.2 257.1,393.2 225.6,395.0 194.1,389.8 162.5,396.4 131.0,405.9 99.5,404.9 68.0,414.4" fill="#08306b" fill-opacity="0.9" stroke="#fff" stroke-width="0.4"><title>specialization — linkIR</title></polygon>
<polygon points="68.0,410.8 99.5,401.6 131.0,402.5 162.5,392.5 194.1,385.2 225.6,391.3 257.1,389.3 288.6,389.2 320.1,396.2 351.6,398.8 383.2,390.9 414.7,391.8 446.2,392.0 477.7,390.3 509.2,385.6 540.7,385.2 572.2,301.5 603.8,266.4 635.3,293.3 666.8,302.0 698.3,400.7 729.8,401.3 761.3,397.0 792.8,396.8 824.4,397.5 855.9,399.5 887.4,423.0 918.9,421.4 950.4,421.5 981.9,428.4 1013.5,428.8 1045.0,428.9 1076.5,427.9 1108.0,427.9 1108.0,428.3 1076.5,428.3 1045.0,429.3 1013.5,429.2 981.9,428.8 950.4,421.7 918.9,421.6 887.4,423.2 855.9,399.7 824.4,397.7 792.8,397.0 761.3,397.2 729.8,401.5 698.3,400.9 666.8,302.2 635.3,293.5 603.8,266.7 572.2,301.8 540.7,385.6 509.2,386.0 477.7,390.7 446.2,392.3 414.7,392.2 383.2,391.3 351.6,399.2 320.1,396.6 288.6,389.6 257.1,389.7 225.6,391.7 194.1,385.6 162.5,392.9 131.0,402.8 99.5,401.9 68.0,411.1" fill="#9e9ac8" fill-opacity="0.9" stroke="#fff" stroke-width="0.4"><title>specialization — unrollLoopsInModule</title></polygon>
<polygon points="68.0,379.5 99.5,370.4 131.0,370.9 162.5,362.1 194.1,359.9 225.6,367.7 257.1,365.4 288.6,364.9 320.1,371.8 351.6,374.8 383.2,366.9 414.7,368.1 446.2,368.3 477.7,366.7 509.2,361.8 540.7,361.0 572.2,274.6 603.8,236.1 635.3,263.5 666.8,275.4 698.3,375.8 729.8,376.3 761.3,372.7 792.8,372.3 824.4,372.8 855.9,374.7 887.4,398.8 918.9,397.2 950.4,396.9 981.9,405.5 1013.5,405.9 1045.0,405.7 1076.5,425.8 1108.0,425.8 1108.0,427.9 1076.5,427.9 1045.0,428.9 1013.5,428.8 981.9,428.4 950.4,421.5 918.9,421.4 887.4,423.0 855.9,399.5 824.4,397.5 792.8,396.8 761.3,397.0 729.8,401.3 698.3,400.7 666.8,302.0 635.3,293.3 603.8,266.4 572.2,301.5 540.7,385.2 509.2,385.6 477.7,390.3 446.2,392.0 414.7,391.8 383.2,390.9 351.6,398.8 320.1,396.2 288.6,389.2 257.1,389.3 225.6,391.3 194.1,385.2 162.5,392.5 131.0,402.5 99.5,401.6 68.0,410.8" fill="#807dba" fill-opacity="0.9" stroke="#fff" stroke-width="0.4"><title>specialization — legalizeResourceTypes</title></polygon>
<polygon points="68.0,346.3 99.5,337.5 131.0,337.7 162.5,329.9 194.1,333.2 225.6,342.0 257.1,339.7 288.6,338.4 320.1,345.9 351.6,349.4 383.2,341.6 414.7,342.9 446.2,343.3 477.7,340.6 509.2,336.5 540.7,335.6 572.2,246.0 603.8,204.1 635.3,232.8 666.8,247.0 698.3,349.8 729.8,350.0 761.3,346.5 792.8,346.4 824.4,346.9 855.9,348.6 887.4,373.2 918.9,371.5 950.4,371.0 981.9,381.8 1013.5,381.9 1045.0,381.7 1076.5,404.0 1108.0,404.2 1108.0,425.8 1076.5,425.8 1045.0,405.7 1013.5,405.9 981.9,405.5 950.4,396.9 918.9,397.2 887.4,398.8 855.9,374.7 824.4,372.8 792.8,372.3 761.3,372.7 729.8,376.3 698.3,375.8 666.8,275.4 635.3,263.5 603.8,236.1 572.2,274.6 540.7,361.0 509.2,361.8 477.7,366.7 446.2,368.3 414.7,368.1 383.2,366.9 351.6,374.8 320.1,371.8 288.6,364.9 257.1,365.4 225.6,367.7 194.1,359.9 162.5,362.1 131.0,370.9 99.5,370.4 68.0,379.5" fill="#6a51a3" fill-opacity="0.9" stroke="#fff" stroke-width="0.4"><title>specialization — legalizeExistentialTypeLayout</title></polygon>
<polygon points="68.0,344.3 99.5,335.5 131.0,335.7 162.5,327.5 194.1,330.7 225.6,339.9 257.1,337.6 288.6,336.2 320.1,343.7 351.6,347.2 383.2,339.5 414.7,340.8 446.2,341.2 477.7,338.5 509.2,334.3 540.7,333.4 572.2,244.1 603.8,201.8 635.3,230.2 666.8,245.1 698.3,347.8 729.8,348.0 761.3,344.3 792.8,344.2 824.4,344.7 855.9,346.4 887.4,371.1 918.9,369.3 950.4,368.9 981.9,379.4 1013.5,379.5 1045.0,379.2 1076.5,401.6 1108.0,401.7 1108.0,404.2 1076.5,404.0 1045.0,381.7 1013.5,381.9 981.9,381.8 950.4,371.0 918.9,371.5 887.4,373.2 855.9,348.6 824.4,346.9 792.8,346.4 761.3,346.5 729.8,350.0 698.3,349.8 666.8,247.0 635.3,232.8 603.8,204.1 572.2,246.0 540.7,335.6 509.2,336.5 477.7,340.6 446.2,343.3 414.7,342.9 383.2,341.6 351.6,349.4 320.1,345.9 288.6,338.4 257.1,339.7 225.6,342.0 194.1,333.2 162.5,329.9 131.0,337.7 99.5,337.5 68.0,346.3" fill="#bcbddc" fill-opacity="0.9" stroke="#fff" stroke-width="0.4"><title>specialization — performMandatoryEarlyInlining</title></polygon>
<polygon points="68.0,343.7 99.5,334.9 131.0,335.1 162.5,326.9 194.1,330.0 225.6,339.3 257.1,337.0 288.6,335.6 320.1,343.1 351.6,346.6 383.2,338.9 414.7,340.2 446.2,340.6 477.7,337.9 509.2,333.7 540.7,332.8 572.2,243.4 603.8,201.1 635.3,229.6 666.8,244.5 698.3,347.2 729.8,347.4 761.3,343.7 792.8,343.6 824.4,344.1 855.9,345.8 887.4,370.4 918.9,368.7 950.4,368.2 981.9,378.7 1013.5,378.9 1045.0,378.6 1076.5,401.0 1108.0,401.1 1108.0,401.7 1076.5,401.6 1045.0,379.2 1013.5,379.5 981.9,379.4 950.4,368.9 918.9,369.3 887.4,371.1 855.9,346.4 824.4,344.7 792.8,344.2 761.3,344.3 729.8,348.0 698.3,347.8 666.8,245.1 635.3,230.2 603.8,201.8 572.2,244.1 540.7,333.4 509.2,334.3 477.7,338.5 446.2,341.2 414.7,340.8 383.2,339.5 351.6,347.2 320.1,343.7 288.6,336.2 257.1,337.6 225.6,339.9 194.1,330.7 162.5,327.5 131.0,335.7 99.5,335.5 68.0,344.3" fill="#dadaeb" fill-opacity="0.9" stroke="#fff" stroke-width="0.4"><title>specialization — performForceInlining</title></polygon>
<polygon points="68.0,326.7 99.5,319.3 131.0,319.3 162.5,309.3 194.1,311.9 225.6,321.0 257.1,317.8 288.6,316.7 320.1,324.7 351.6,327.5 383.2,320.7 414.7,321.3 446.2,322.0 477.7,319.5 509.2,314.6 540.7,313.2 572.2,193.6 603.8,155.9 635.3,174.7 666.8,198.4 698.3,315.4 729.8,315.9 761.3,309.4 792.8,309.5 824.4,309.2 855.9,311.7 887.4,333.9 918.9,332.1 950.4,331.4 981.9,344.1 1013.5,344.3 1045.0,344.0 1076.5,377.5 1108.0,377.8 1108.0,401.1 1076.5,401.0 1045.0,378.6 1013.5,378.9 981.9,378.7 950.4,368.2 918.9,368.7 887.4,370.4 855.9,345.8 824.4,344.1 792.8,343.6 761.3,343.7 729.8,347.4 698.3,347.2 666.8,244.5 635.3,229.6 603.8,201.1 572.2,243.4 540.7,332.8 509.2,333.7 477.7,337.9 446.2,340.6 414.7,340.2 383.2,338.9 351.6,346.6 320.1,343.1 288.6,335.6 257.1,337.0 225.6,339.3 194.1,330.0 162.5,326.9 131.0,335.1 99.5,334.9 68.0,343.7" fill="#4a1486" fill-opacity="0.9" stroke="#fff" stroke-width="0.4"><title>specialization — linkAndOptimizeIR (self)</title></polygon>
<polygon points="68.0,270.7 99.5,263.8 131.0,262.0 162.5,257.2 194.1,264.2 225.6,277.2 257.1,272.9 288.6,271.5 320.1,280.3 351.6,284.0 383.2,277.0 414.7,277.4 446.2,278.9 477.7,276.8 509.2,270.9 540.7,269.8 572.2,147.2 603.8,108.8 635.3,128.5 666.8,154.3 698.3,274.6 729.8,275.6 761.3,268.5 792.8,267.6 824.4,267.2 855.9,270.7 887.4,295.8 918.9,293.1 950.4,291.6 981.9,306.2 1013.5,306.1 1045.0,306.2 1076.5,350.1 1108.0,350.6 1108.0,377.8 1076.5,377.5 1045.0,344.0 1013.5,344.3 981.9,344.1 950.4,331.4 918.9,332.1 887.4,333.9 855.9,311.7 824.4,309.2 792.8,309.5 761.3,309.4 729.8,315.9 698.3,315.4 666.8,198.4 635.3,174.7 603.8,155.9 572.2,193.6 540.7,313.2 509.2,314.6 477.7,319.5 446.2,322.0 414.7,321.3 383.2,320.7 351.6,327.5 320.1,324.7 288.6,316.7 257.1,317.8 225.6,321.0 194.1,311.9 162.5,309.3 131.0,319.3 99.5,319.3 68.0,326.7" fill="#e6550d" fill-opacity="0.9" stroke="#fff" stroke-width="0.4"><title>specialization — generateOutput (self)</title></polygon>
<polygon points="68.0,270.5 99.5,263.7 131.0,261.9 162.5,257.1 194.1,264.2 225.6,277.0 257.1,271.9 288.6,269.5 320.1,280.1 351.6,283.2 383.2,276.8 414.7,277.0 446.2,278.9 477.7,276.5 509.2,270.5 540.7,269.6 572.2,147.2 603.8,108.6 635.3,128.2 666.8,154.1 698.3,274.1 729.8,275.4 761.3,268.3 792.8,267.3 824.4,266.4 855.9,270.5 887.4,295.7 918.9,293.1 950.4,290.7 981.9,305.1 1013.5,306.0 1045.0,306.0 1076.5,350.0 1108.0,349.5 1108.0,350.6 1076.5,350.1 1045.0,306.2 1013.5,306.1 981.9,306.2 950.4,291.6 918.9,293.1 887.4,295.8 855.9,270.7 824.4,267.2 792.8,267.6 761.3,268.5 729.8,275.6 698.3,274.6 666.8,154.3 635.3,128.5 603.8,108.8 572.2,147.2 540.7,269.8 509.2,270.9 477.7,276.8 446.2,278.9 414.7,277.4 383.2,277.0 351.6,284.0 320.1,280.3 288.6,271.5 257.1,272.9 225.6,277.2 194.1,264.2 162.5,257.2 131.0,262.0 99.5,263.8 68.0,270.7" fill="#969696" fill-opacity="0.9" stroke="#fff" stroke-width="0.4"><title>specialization — compileInner (self)</title></polygon>
<text x="12" y="578" fill="#666" font-weight="600">phase buckets</text>
<rect x="12" y="586" width="12" height="12" fill="#c7e9c0"/>
<text x="28" y="596" fill="#222">parseTranslationUnit</text>
<rect x="289" y="586" width="12" height="12" fill="#41ab5d"/>
<text x="305" y="596" fill="#222">SemanticChecking</text>
<rect x="566" y="586" width="12" height="12" fill="#006d2c"/>
<text x="582" y="596" fill="#222">generateIR</text>
<rect x="843" y="586" width="12" height="12" fill="#74c476"/>
<text x="859" y="596" fill="#222">frontEndExecute (self)</text>
<rect x="12" y="604" width="12" height="12" fill="#6baed6"/>
<text x="28" y="614" fill="#222">specializeModule</text>
<rect x="289" y="604" width="12" height="12" fill="#2171b5"/>
<text x="305" y="614" fill="#222">simplifyIR</text>
<rect x="566" y="604" width="12" height="12" fill="#08306b"/>
<text x="582" y="614" fill="#222">linkIR</text>
<rect x="843" y="604" width="12" height="12" fill="#9e9ac8"/>
<text x="859" y="614" fill="#222">unrollLoopsInModule</text>
<rect x="12" y="622" width="12" height="12" fill="#807dba"/>
<text x="28" y="632" fill="#222">legalizeResourceTypes</text>
<rect x="289" y="622" width="12" height="12" fill="#6a51a3"/>
<text x="305" y="632" fill="#222">legalizeExistentialTypeLayout</text>
<rect x="566" y="622" width="12" height="12" fill="#bcbddc"/>
<text x="582" y="632" fill="#222">performMandatoryEarlyInlining</text>
<rect x="843" y="622" width="12" height="12" fill="#dadaeb"/>
<text x="859" y="632" fill="#222">performForceInlining</text>
<rect x="12" y="640" width="12" height="12" fill="#4a1486"/>
<text x="28" y="650" fill="#222">linkAndOptimizeIR (self)</text>
<rect x="289" y="640" width="12" height="12" fill="#fd8d3c"/>
<text x="305" y="650" fill="#222">emitEntryPointsSourceFromIR</text>
<rect x="566" y="640" width="12" height="12" fill="#e6550d"/>
<text x="582" y="650" fill="#222">generateOutput (self)</text>
<rect x="843" y="640" width="12" height="12" fill="#969696"/>
<text x="859" y="650" fill="#222">compileInner (self)</text>
</svg>