<svg xmlns="http://www.w3.org/2000/svg" xmlns:xlink="http://www.w3.org/1999/xlink" width="1132" height="680" viewBox="0 0 1132 680" preserveAspectRatio="xMidYMid meet" font-family="sans-serif" font-size="13">
<rect width="1132" height="680" fill="white"/>
<text x="12" y="30" font-size="20" font-weight="bold">specialization — Across releases (median ms)</text>
<text x="68" y="60" font-size="15" font-weight="600" fill="#1a1a1a">specialization<tspan fill="#888" font-weight="400" text-decoration="none">  0.96×</tspan></text>
<line x1="68.0" y1="516.0" x2="1108.0" y2="516.0" stroke="#eee"/>
<text x="64.0" y="519.0" text-anchor="end" fill="#999">0.0</text>
<line x1="68.0" y1="296.0" x2="1108.0" y2="296.0" stroke="#eee"/>
<text x="64.0" y="299.0" text-anchor="end" fill="#999">205</text>
<line x1="68.0" y1="76.0" x2="1108.0" y2="76.0" stroke="#eee"/>
<text x="64.0" y="79.0" text-anchor="end" fill="#999">409</text>
<line x1="68.0" y1="76.0" x2="68.0" y2="516.0" stroke="#333"/>
<line x1="68.0" y1="516.0" x2="1108.0" y2="516.0" stroke="#333"/>
<line x1="68.0" y1="516.0" x2="68.0" y2="519.0" stroke="#999"/>
<text x="68.0" y="531.0" text-anchor="end" fill="#666" transform="rotate(-50 68.0 531.0)">25.12</text>
<line x1="111.3" y1="516.0" x2="111.3" y2="519.0" stroke="#999"/>
<text x="111.3" y="531.0" text-anchor="end" fill="#666" transform="rotate(-50 111.3 531.0)">25.13</text>
<line x1="154.7" y1="516.0" x2="154.7" y2="519.0" stroke="#999"/>
<text x="154.7" y="531.0" text-anchor="end" fill="#666" transform="rotate(-50 154.7 531.0)">25.14</text>
<line x1="198.0" y1="516.0" x2="198.0" y2="519.0" stroke="#999"/>
<text x="198.0" y="531.0" text-anchor="end" fill="#666" transform="rotate(-50 198.0 531.0)">25.15</text>
<line x1="241.3" y1="516.0" x2="241.3" y2="519.0" stroke="#999"/>
<text x="241.3" y="531.0" text-anchor="end" fill="#666" transform="rotate(-50 241.3 531.0)">25.16</text>
<line x1="284.7" y1="516.0" x2="284.7" y2="519.0" stroke="#999"/>
<text x="284.7" y="531.0" text-anchor="end" fill="#666" transform="rotate(-50 284.7 531.0)">25.17</text>
<line x1="328.0" y1="516.0" x2="328.0" y2="519.0" stroke="#999"/>
<text x="328.0" y="531.0" text-anchor="end" fill="#666" transform="rotate(-50 328.0 531.0)">25.18</text>
<line x1="371.3" y1="516.0" x2="371.3" y2="519.0" stroke="#999"/>
<text x="371.3" y="531.0" text-anchor="end" fill="#666" transform="rotate(-50 371.3 531.0)">25.19</text>
<line x1="414.7" y1="516.0" x2="414.7" y2="519.0" stroke="#999"/>
<text x="414.7" y="531.0" text-anchor="end" fill="#666" transform="rotate(-50 414.7 531.0)">25.20</text>
<line x1="458.0" y1="516.0" x2="458.0" y2="519.0" stroke="#999"/>
<text x="458.0" y="531.0" text-anchor="end" fill="#666" transform="rotate(-50 458.0 531.0)">25.21</text>
<line x1="501.3" y1="516.0" x2="501.3" y2="519.0" stroke="#999"/>
<text x="501.3" y="531.0" text-anchor="end" fill="#666" transform="rotate(-50 501.3 531.0)">25.22</text>
<line x1="544.7" y1="516.0" x2="544.7" y2="519.0" stroke="#999"/>
<text x="544.7" y="531.0" text-anchor="end" fill="#666" transform="rotate(-50 544.7 531.0)">25.23</text>
<line x1="588.0" y1="516.0" x2="588.0" y2="519.0" stroke="#999"/>
<text x="588.0" y="531.0" text-anchor="end" fill="#666" transform="rotate(-50 588.0 531.0)">25.24</text>
<line x1="631.3" y1="516.0" x2="631.3" y2="519.0" stroke="#999"/>
<text x="631.3" y="531.0" text-anchor="end" fill="#666" transform="rotate(-50 631.3 531.0)">26.1</text>
<line x1="674.7" y1="516.0" x2="674.7" y2="519.0" stroke="#999"/>
<text x="674.7" y="531.0" text-anchor="end" fill="#666" transform="rotate(-50 674.7 531.0)">26.2</text>
<line x1="718.0" y1="516.0" x2="718.0" y2="519.0" stroke="#999"/>
<text x="718.0" y="531.0" text-anchor="end" fill="#666" transform="rotate(-50 718.0 531.0)">26.3</text>
<line x1="761.3" y1="516.0" x2="761.3" y2="519.0" stroke="#999"/>
<text x="761.3" y="531.0" text-anchor="end" fill="#666" transform="rotate(-50 761.3 531.0)">26.4</text>
<line x1="804.7" y1="516.0" x2="804.7" y2="519.0" stroke="#999"/>
<text x="804.7" y="531.0" text-anchor="end" fill="#666" transform="rotate(-50 804.7 531.0)">26.5</text>
<line x1="848.0" y1="516.0" x2="848.0" y2="519.0" stroke="#999"/>
<text x="848.0" y="531.0" text-anchor="end" fill="#666" transform="rotate(-50 848.0 531.0)">26.7</text>
<line x1="891.3" y1="516.0" x2="891.3" y2="519.0" stroke="#999"/>
<text x="891.3" y="531.0" text-anchor="end" fill="#666" transform="rotate(-50 891.3 531.0)">26.8</text>
<line x1="934.7" y1="516.0" x2="934.7" y2="519.0" stroke="#999"/>
<text x="934.7" y="531.0" text-anchor="end" fill="#666" transform="rotate(-50 934.7 531.0)">26.9</text>
<line x1="978.0" y1="516.0" x2="978.0" y2="519.0" stroke="#999"/>
<text x="978.0" y="531.0" text-anchor="end" fill="#666" transform="rotate(-50 978.0 531.0)">26.10</text>
<line x1="1021.3" y1="516.0" x2="1021.3" y2="519.0" stroke="#999"/>
<text x="1021.3" y="531.0" text-anchor="end" fill="#666" transform="rotate(-50 1021.3 531.0)">26.11</text>
<line x1="1064.7" y1="516.0" x2="1064.7" y2="519.0" stroke="#999"/>
<text x="1064.7" y="531.0" text-anchor="end" fill="#666" transform="rotate(-50 1064.7 531.0)">26.12</text>
<line x1="1108.0" y1="516.0" x2="1108.0" y2="519.0" stroke="#999"/>
<text x="1108.0" y="531.0" text-anchor="end" fill="#666" transform="rotate(-50 1108.0 531.0)">26.13</text>
<polygon points="68.0,514.9 111.3,513.7 154.7,514.2 198.0,514.4 241.3,514.5 284.7,514.4 328.0,514.4 371.3,514.4 414.7,514.4 458.0,514.4 501.3,514.5 544.7,514.4 588.0,514.3 631.3,514.3 674.7,514.3 718.0,514.2 761.3,514.2 804.7,514.1 848.0,513.8 891.3,514.1 934.7,514.1 978.0,513.9 1021.3,514.0 1064.7,514.0 1108.0,514.0 1108.0,516.0 1064.7,516.0 1021.3,516.0 978.0,516.0 934.7,516.0 891.3,516.0 848.0,516.0 804.7,516.0 761.3,516.0 718.0,516.0 674.7,516.0 631.3,516.0 588.0,516.0 544.7,516.0 501.3,516.0 458.0,516.0 414.7,516.0 371.3,516.0 328.0,516.0 284.7,516.0 241.3,516.0 198.0,516.0 154.7,516.0 111.3,516.0 68.0,516.0" fill="#c7e9c0" fill-opacity="0.9" stroke="#fff" stroke-width="0.4"><title>specialization — parseTranslationUnit</title></polygon>
<polygon points="68.0,496.6 111.3,494.9 154.7,492.8 198.0,482.4 241.3,484.3 284.7,483.1 328.0,483.2 371.3,483.1 414.7,482.8 458.0,482.1 501.3,488.6 544.7,488.2 588.0,487.8 631.3,487.3 674.7,486.1 718.0,485.8 761.3,485.7 804.7,480.3 848.0,469.7 891.3,478.3 934.7,477.7 978.0,467.4 1021.3,490.2 1064.7,491.1 1108.0,485.7 1108.0,514.0 1064.7,514.0 1021.3,514.0 978.0,513.9 934.7,514.1 891.3,514.1 848.0,513.8 804.7,514.1 761.3,514.2 718.0,514.2 674.7,514.3 631.3,514.3 588.0,514.3 544.7,514.4 501.3,514.5 458.0,514.4 414.7,514.4 371.3,514.4 328.0,514.4 284.7,514.4 241.3,514.5 198.0,514.4 154.7,514.2 111.3,513.7 68.0,514.9" fill="#41ab5d" fill-opacity="0.9" stroke="#fff" stroke-width="0.4"><title>specialization — SemanticChecking</title></polygon>
<polygon points="68.0,485.9 111.3,481.9 154.7,479.3 198.0,469.1 241.3,471.4 284.7,469.2 328.0,469.6 371.3,469.1 414.7,469.3 458.0,468.7 501.3,475.2 544.7,474.8 588.0,474.5 631.3,473.8 674.7,472.2 718.0,472.0 761.3,471.9 804.7,464.7 848.0,441.3 891.3,455.7 934.7,454.4 978.0,434.4 1021.3,474.7 1064.7,475.6 1108.0,467.8 1108.0,485.7 1064.7,491.1 1021.3,490.2 978.0,467.4 934.7,477.7 891.3,478.3 848.0,469.7 804.7,480.3 761.3,485.7 718.0,485.8 674.7,486.1 631.3,487.3 588.0,487.8 544.7,488.2 501.3,488.6 458.0,482.1 414.7,482.8 371.3,483.1 328.0,483.2 284.7,483.1 241.3,484.3 198.0,482.4 154.7,492.8 111.3,494.9 68.0,496.6" fill="#006d2c" fill-opacity="0.9" stroke="#fff" stroke-width="0.4"><title>specialization — generateIR</title></polygon>
<polygon points="68.0,483.7 111.3,481.7 154.7,479.2 198.0,468.9 241.3,471.1 284.7,468.9 328.0,469.0 371.3,469.1 414.7,469.1 458.0,468.3 501.3,474.7 544.7,474.4 588.0,474.3 631.3,473.6 674.7,471.9 718.0,472.0 761.3,471.7 804.7,464.4 848.0,441.3 891.3,455.3 934.7,453.9 978.0,434.4 1021.3,474.0 1064.7,475.1 1108.0,467.2 1108.0,467.8 1064.7,475.6 1021.3,474.7 978.0,434.4 934.7,454.4 891.3,455.7 848.0,441.3 804.7,464.7 761.3,471.9 718.0,472.0 674.7,472.2 631.3,473.8 588.0,474.5 544.7,474.8 501.3,475.2 458.0,468.7 414.7,469.3 371.3,469.1 328.0,469.6 284.7,469.2 241.3,471.4 198.0,469.1 154.7,479.3 111.3,481.9 68.0,485.9" fill="#74c476" fill-opacity="0.9" stroke="#fff" stroke-width="0.4"><title>specialization — frontEndExecute (self)</title></polygon>
<polygon points="68.0,471.9 111.3,469.1 154.7,465.3 198.0,454.9 241.3,458.5 284.7,455.6 328.0,455.5 371.3,455.3 414.7,455.0 458.0,454.2 501.3,460.7 544.7,460.4 588.0,457.3 631.3,456.6 674.7,454.6 718.0,454.6 761.3,454.3 804.7,443.0 848.0,385.5 891.3,405.0 934.7,403.1 978.0,379.5 1021.3,449.4 1064.7,451.3 1108.0,440.3 1108.0,467.2 1064.7,475.1 1021.3,474.0 978.0,434.4 934.7,453.9 891.3,455.3 848.0,441.3 804.7,464.4 761.3,471.7 718.0,472.0 674.7,471.9 631.3,473.6 588.0,474.3 544.7,474.4 501.3,474.7 458.0,468.3 414.7,469.1 371.3,469.1 328.0,469.0 284.7,468.9 241.3,471.1 198.0,468.9 154.7,479.2 111.3,481.7 68.0,483.7" fill="#6baed6" fill-opacity="0.9" stroke="#fff" stroke-width="0.4"><title>specialization — specializeModule</title></polygon>
<polygon points="68.0,419.2 111.3,415.7 154.7,407.0 198.0,397.9 241.3,404.7 284.7,400.3 328.0,400.5 371.3,400.2 414.7,399.9 458.0,398.6 501.3,405.7 544.7,405.0 588.0,394.9 631.3,393.9 674.7,390.7 718.0,391.5 761.3,390.7 804.7,373.0 848.0,304.2 891.3,326.0 934.7,325.1 978.0,294.8 1021.3,399.7 1064.7,398.3 1108.0,422.5 1108.0,440.3 1064.7,451.3 1021.3,449.4 978.0,379.5 934.7,403.1 891.3,405.0 848.0,385.5 804.7,443.0 761.3,454.3 718.0,454.6 674.7,454.6 631.3,456.6 588.0,457.3 544.7,460.4 501.3,460.7 458.0,454.2 414.7,455.0 371.3,455.3 328.0,455.5 284.7,455.6 241.3,458.5 198.0,454.9 154.7,465.3 111.3,469.1 68.0,471.9" fill="#2171b5" fill-opacity="0.9" stroke="#fff" stroke-width="0.4"><title>specialization — simplifyIR</title></polygon>
<polygon points="68.0,417.0 111.3,412.1 154.7,402.8 198.0,394.3 241.3,401.7 284.7,397.2 328.0,397.4 371.3,397.1 414.7,396.8 458.0,395.5 501.3,402.6 544.7,402.0 588.0,391.8 631.3,390.8 674.7,387.5 718.0,388.4 761.3,387.7 804.7,368.0 848.0,287.4 891.3,313.5 934.7,312.4 978.0,271.5 1021.3,396.2 1064.7,395.1 1108.0,419.7 1108.0,422.5 1064.7,398.3 1021.3,399.7 978.0,294.8 934.7,325.1 891.3,326.0 848.0,304.2 804.7,373.0 761.3,390.7 718.0,391.5 674.7,390.7 631.3,393.9 588.0,394.9 544.7,405.0 501.3,405.7 458.0,398.6 414.7,399.9 371.3,400.2 328.0,400.5 284.7,400.3 241.3,404.7 198.0,397.9 154.7,407.0 111.3,415.7 68.0,419.2" fill="#08306b" fill-opacity="0.9" stroke="#fff" stroke-width="0.4"><title>specialization — linkIR</title></polygon>
<polygon points="68.0,417.0 111.3,411.8 154.7,402.5 198.0,394.0 241.3,401.4 284.7,396.8 328.0,397.0 371.3,396.7 414.7,396.4 458.0,395.2 501.3,402.2 544.7,401.6 588.0,391.4 631.3,390.4 674.7,387.1 718.0,388.0 761.3,387.3 804.7,367.6 848.0,287.2 891.3,313.3 934.7,312.2 978.0,271.3 1021.3,396.0 1064.7,394.9 1108.0,419.3 1108.0,419.7 1064.7,395.1 1021.3,396.2 978.0,271.5 934.7,312.4 891.3,313.5 848.0,287.4 804.7,368.0 761.3,387.7 718.0,388.4 674.7,387.5 631.3,390.8 588.0,391.8 544.7,402.0 501.3,402.6 458.0,395.5 414.7,396.8 371.3,397.1 328.0,397.4 284.7,397.2 241.3,401.7 198.0,394.3 154.7,402.8 111.3,412.1 68.0,417.0" fill="#9e9ac8" fill-opacity="0.9" stroke="#fff" stroke-width="0.4"><title>specialization — unrollLoopsInModule</title></polygon>
<polygon points="68.0,386.9 111.3,380.5 154.7,368.0 198.0,361.4 241.3,370.2 284.7,366.6 328.0,374.6 371.3,373.4 414.7,373.3 458.0,372.0 501.3,378.9 544.7,378.6 588.0,368.0 631.3,366.8 674.7,363.1 718.0,364.1 761.3,363.4 804.7,341.9 848.0,259.9 891.3,287.1 934.7,285.5 978.0,242.6 1021.3,370.0 1064.7,367.5 1108.0,394.2 1108.0,419.3 1064.7,394.9 1021.3,396.0 978.0,271.3 934.7,312.2 891.3,313.3 848.0,287.2 804.7,367.6 761.3,387.3 718.0,388.0 674.7,387.1 631.3,390.4 588.0,391.4 544.7,401.6 501.3,402.2 458.0,395.2 414.7,396.4 371.3,396.7 328.0,397.0 284.7,396.8 241.3,401.4 198.0,394.0 154.7,402.5 111.3,411.8 68.0,417.0" fill="#807dba" fill-opacity="0.9" stroke="#fff" stroke-width="0.4"><title>specialization — legalizeResourceTypes</title></polygon>
<polygon points="68.0,355.7 111.3,347.7 154.7,333.5 198.0,327.5 241.3,337.9 284.7,334.9 328.0,350.7 371.3,348.6 414.7,348.9 458.0,347.4 501.3,354.3 544.7,354.3 588.0,343.0 631.3,341.5 674.7,337.9 718.0,338.7 761.3,338.1 804.7,314.6 848.0,230.5 891.3,259.4 934.7,257.8 978.0,211.7 1021.3,342.0 1064.7,339.8 1108.0,368.1 1108.0,394.2 1064.7,367.5 1021.3,370.0 978.0,242.6 934.7,285.5 891.3,287.1 848.0,259.9 804.7,341.9 761.3,363.4 718.0,364.1 674.7,363.1 631.3,366.8 588.0,368.0 544.7,378.6 501.3,378.9 458.0,372.0 414.7,373.3 371.3,373.4 328.0,374.6 284.7,366.6 241.3,370.2 198.0,361.4 154.7,368.0 111.3,380.5 68.0,386.9" fill="#6a51a3" fill-opacity="0.9" stroke="#fff" stroke-width="0.4"><title>specialization — legalizeExistentialTypeLayout</title></polygon>
<polygon points="68.0,354.6 111.3,345.7 154.7,331.4 198.0,325.4 241.3,335.9 284.7,332.6 328.0,348.4 371.3,346.5 414.7,346.8 458.0,345.3 501.3,352.2 544.7,352.2 588.0,340.8 631.3,339.4 674.7,335.7 718.0,336.6 761.3,335.9 804.7,312.1 848.0,228.5 891.3,257.4 934.7,255.9 978.0,209.5 1021.3,339.9 1064.7,337.7 1108.0,365.6 1108.0,368.1 1064.7,339.8 1021.3,342.0 978.0,211.7 934.7,257.8 891.3,259.4 848.0,230.5 804.7,314.6 761.3,338.1 718.0,338.7 674.7,337.9 631.3,341.5 588.0,343.0 544.7,354.3 501.3,354.3 458.0,347.4 414.7,348.9 371.3,348.6 328.0,350.7 284.7,334.9 241.3,337.9 198.0,327.5 154.7,333.5 111.3,347.7 68.0,355.7" fill="#bcbddc" fill-opacity="0.9" stroke="#fff" stroke-width="0.4"><title>specialization — performMandatoryEarlyInlining</title></polygon>
<polygon points="68.0,354.6 111.3,345.1 154.7,330.8 198.0,324.7 241.3,335.3 284.7,332.0 328.0,347.8 371.3,345.9 414.7,346.2 458.0,344.7 501.3,351.6 544.7,351.6 588.0,340.3 631.3,338.8 674.7,335.2 718.0,336.0 761.3,335.3 804.7,311.4 848.0,227.9 891.3,256.8 934.7,255.2 978.0,208.7 1021.3,339.2 1064.7,337.1 1108.0,365.0 1108.0,365.6 1064.7,337.7 1021.3,339.9 978.0,209.5 934.7,255.9 891.3,257.4 848.0,228.5 804.7,312.1 761.3,335.9 718.0,336.6 674.7,335.7 631.3,339.4 588.0,340.8 544.7,352.2 501.3,352.2 458.0,345.3 414.7,346.8 371.3,346.5 328.0,348.4 284.7,332.6 241.3,335.9 198.0,325.4 154.7,331.4 111.3,345.7 68.0,354.6" fill="#dadaeb" fill-opacity="0.9" stroke="#fff" stroke-width="0.4"><title>specialization — performForceInlining</title></polygon>
<polygon points="68.0,335.3 111.3,328.6 154.7,317.3 198.0,307.5 241.3,319.6 284.7,315.1 328.0,331.4 371.3,327.8 414.7,329.0 458.0,326.4 501.3,333.8 544.7,333.6 588.0,321.8 631.3,320.3 674.7,316.8 718.0,317.3 761.3,316.0 804.7,290.5 848.0,175.9 891.3,212.7 934.7,210.6 978.0,152.6 1021.3,302.5 1064.7,298.9 1108.0,330.9 1108.0,365.0 1064.7,337.1 1021.3,339.2 978.0,208.7 934.7,255.2 891.3,256.8 848.0,227.9 804.7,311.4 761.3,335.3 718.0,336.0 674.7,335.2 631.3,338.8 588.0,340.3 544.7,351.6 501.3,351.6 458.0,344.7 414.7,346.2 371.3,345.9 328.0,347.8 284.7,332.0 241.3,335.3 198.0,324.7 154.7,330.8 111.3,345.1 68.0,354.6" fill="#4a1486" fill-opacity="0.9" stroke="#fff" stroke-width="0.4"><title>specialization — linkAndOptimizeIR (self)</title></polygon>
<polygon points="68.0,279.3 111.3,273.1 154.7,253.3 198.0,239.7 241.3,263.4 284.7,263.9 328.0,288.2 371.3,284.7 414.7,286.3 458.0,283.8 501.3,291.8 544.7,291.3 588.0,279.1 631.3,277.4 674.7,274.2 718.0,274.3 761.3,271.6 804.7,242.1 848.0,130.1 891.3,170.5 934.7,169.8 978.0,108.6 1021.3,254.5 1064.7,251.6 1108.0,292.8 1108.0,330.9 1064.7,298.9 1021.3,302.5 978.0,152.6 934.7,210.6 891.3,212.7 848.0,175.9 804.7,290.5 761.3,316.0 718.0,317.3 674.7,316.8 631.3,320.3 588.0,321.8 544.7,333.6 501.3,333.8 458.0,326.4 414.7,329.0 371.3,327.8 328.0,331.4 284.7,315.1 241.3,319.6 198.0,307.5 154.7,317.3 111.3,328.6 68.0,335.3" fill="#e6550d" fill-opacity="0.9" stroke="#fff" stroke-width="0.4"><title>specialization — generateOutput (self)</title></polygon>
<polygon points="68.0,278.3 111.3,273.1 154.7,253.1 198.0,239.6 241.3,263.3 284.7,263.5 328.0,287.9 371.3,284.7 414.7,284.6 458.0,283.4 501.3,290.5 544.7,291.3 588.0,279.0 631.3,277.4 674.7,273.7 718.0,272.6 761.3,270.8 804.7,242.1 848.0,127.6 891.3,169.9 934.7,167.7 978.0,108.6 1021.3,250.7 1064.7,248.1 1108.0,288.2 1108.0,292.8 1064.7,251.6 1021.3,254.5 978.0,108.6 934.7,169.8 891.3,170.5 848.0,130.1 804.7,242.1 761.3,271.6 718.0,274.3 674.7,274.2 631.3,277.4 588.0,279.1 544.7,291.3 501.3,291.8 458.0,283.8 414.7,286.3 371.3,284.7 328.0,288.2 284.7,263.9 241.3,263.4 198.0,239.7 154.7,253.3 111.3,273.1 68.0,279.3" fill="#969696" fill-opacity="0.9" stroke="#fff" stroke-width="0.4"><title>specialization — compileInner (self)</title></polygon>
<text x="12" y="578" fill="#666" font-weight="600">phase buckets</text>
<rect x="12" y="586" width="12" height="12" fill="#c7e9c0"/>
<text x="28" y="596" fill="#222">parseTranslationUnit</text>
<rect x="289" y="586" width="12" height="12" fill="#41ab5d"/>
<text x="305" y="596" fill="#222">SemanticChecking</text>
<rect x="566" y="586" width="12" height="12" fill="#006d2c"/>
<text x="582" y="596" fill="#222">generateIR</text>
<rect x="843" y="586" width="12" height="12" fill="#74c476"/>
<text x="859" y="596" fill="#222">frontEndExecute (self)</text>
<rect x="12" y="604" width="12" height="12" fill="#6baed6"/>
<text x="28" y="614" fill="#222">specializeModule</text>
<rect x="289" y="604" width="12" height="12" fill="#2171b5"/>
<text x="305" y="614" fill="#222">simplifyIR</text>
<rect x="566" y="604" width="12" height="12" fill="#08306b"/>
<text x="582" y="614" fill="#222">linkIR</text>
<rect x="843" y="604" width="12" height="12" fill="#9e9ac8"/>
<text x="859" y="614" fill="#222">unrollLoopsInModule</text>
<rect x="12" y="622" width="12" height="12" fill="#807dba"/>
<text x="28" y="632" fill="#222">legalizeResourceTypes</text>
<rect x="289" y="622" width="12" height="12" fill="#6a51a3"/>
<text x="305" y="632" fill="#222">legalizeExistentialTypeLayout</text>
<rect x="566" y="622" width="12" height="12" fill="#bcbddc"/>
<text x="582" y="632" fill="#222">performMandatoryEarlyInlining</text>
<rect x="843" y="622" width="12" height="12" fill="#dadaeb"/>
<text x="859" y="632" fill="#222">performForceInlining</text>
<rect x="12" y="640" width="12" height="12" fill="#4a1486"/>
<text x="28" y="650" fill="#222">linkAndOptimizeIR (self)</text>
<rect x="289" y="640" width="12" height="12" fill="#fd8d3c"/>
<text x="305" y="650" fill="#222">emitEntryPointsSourceFromIR</text>
<rect x="566" y="640" width="12" height="12" fill="#e6550d"/>
<text x="582" y="650" fill="#222">generateOutput (self)</text>
<rect x="843" y="640" width="12" height="12" fill="#969696"/>
<text x="859" y="650" fill="#222">compileInner (self)</text>
</svg>