<svg xmlns="http://www.w3.org/2000/svg" width="1092" height="648" viewBox="0 0 1092 648" preserveAspectRatio="xMidYMid meet" font-family="sans-serif" font-size="13">
<rect width="1092" height="648" fill="white"/>
<text x="12" y="30" font-size="20" font-weight="bold">diagnostics_clean — phase composition vs N (v2026.12, median ms)</text>
<text x="68" y="60" font-size="15" font-weight="600">diagnostics_clean<tspan fill="#888" font-weight="400">  3.9× over N 400→3200</tspan></text>
<line x1="68.0" y1="496.0" x2="1068.0" y2="496.0" stroke="#eee"/>
<text x="64.0" y="499.0" text-anchor="end" fill="#999">0.0</text>
<line x1="68.0" y1="286.0" x2="1068.0" y2="286.0" stroke="#eee"/>
<text x="64.0" y="289.0" text-anchor="end" fill="#999">64</text>
<line x1="68.0" y1="76.0" x2="1068.0" y2="76.0" stroke="#eee"/>
<text x="64.0" y="79.0" text-anchor="end" fill="#999">128</text>
<line x1="68.0" y1="76.0" x2="68.0" y2="496.0" stroke="#333"/>
<line x1="68.0" y1="496.0" x2="1068.0" y2="496.0" stroke="#333"/>
<line x1="68.0" y1="496.0" x2="68.0" y2="499.0" stroke="#999"/>
<text x="68.0" y="512.0" text-anchor="middle" fill="#666">400</text>
<line x1="210.9" y1="496.0" x2="210.9" y2="499.0" stroke="#999"/>
<text x="210.9" y="512.0" text-anchor="middle" fill="#666">800</text>
<line x1="496.6" y1="496.0" x2="496.6" y2="499.0" stroke="#999"/>
<text x="496.6" y="512.0" text-anchor="middle" fill="#666">1600</text>
<line x1="1068.0" y1="496.0" x2="1068.0" y2="499.0" stroke="#999"/>
<text x="1068.0" y="512.0" text-anchor="middle" fill="#666">3200</text>
<text x="568" y="530" text-anchor="middle" fill="#444">N</text>
<polygon points="68.0,488.8 210.9,482.1 496.6,467.8 1068.0,438.2 1068.0,496.0 496.6,496.0 210.9,496.0 68.0,496.0" fill="#c7e9c0" fill-opacity="0.9" stroke="#fff" stroke-width="0.4"><title>diagnostics_clean — parseTranslationUnit</title></polygon>
<polygon points="68.0,451.3 210.9,432.9 496.6,393.9 1068.0,316.9 1068.0,438.2 496.6,467.8 210.9,482.1 68.0,488.8" fill="#41ab5d" fill-opacity="0.9" stroke="#fff" stroke-width="0.4"><title>diagnostics_clean — SemanticChecking</title></polygon>
<polygon points="68.0,421.8 210.9,382.2 496.6,299.3 1068.0,130.5 1068.0,316.9 496.6,393.9 210.9,432.9 68.0,451.3" fill="#006d2c" fill-opacity="0.9" stroke="#fff" stroke-width="0.4"><title>diagnostics_clean — generateIR</title></polygon>
<polygon points="68.0,419.4 210.9,381.0 496.6,296.6 1068.0,128.6 1068.0,130.5 496.6,299.3 210.9,382.2 68.0,421.8" fill="#74c476" fill-opacity="0.9" stroke="#fff" stroke-width="0.4"><title>diagnostics_clean — frontEndExecute (self)</title></polygon>
<polygon points="68.0,415.9 210.9,377.5 496.6,293.5 1068.0,125.9 1068.0,128.6 496.6,296.6 210.9,381.0 68.0,419.4" fill="#6baed6" fill-opacity="0.9" stroke="#fff" stroke-width="0.4"><title>diagnostics_clean — specializeModule</title></polygon>
<polygon points="68.0,413.9 210.9,375.7 496.6,291.6 1068.0,124.4 1068.0,125.9 496.6,293.5 210.9,377.5 68.0,415.9" fill="#2171b5" fill-opacity="0.9" stroke="#fff" stroke-width="0.4"><title>diagnostics_clean — simplifyIR</title></polygon>
<polygon points="68.0,412.2 210.9,374.0 496.6,289.9 1068.0,122.2 1068.0,124.4 496.6,291.6 210.9,375.7 68.0,413.9" fill="#08306b" fill-opacity="0.9" stroke="#fff" stroke-width="0.4"><title>diagnostics_clean — linkIR</title></polygon>
<polygon points="68.0,412.2 210.9,374.0 496.6,289.9 1068.0,122.2 1068.0,122.2 496.6,289.9 210.9,374.0 68.0,412.2" fill="#9e9ac8" fill-opacity="0.9" stroke="#fff" stroke-width="0.4"><title>diagnostics_clean — unrollLoopsInModule</title></polygon>
<polygon points="68.0,412.0 210.9,373.8 496.6,289.7 1068.0,122.0 1068.0,122.2 496.6,289.9 210.9,374.0 68.0,412.2" fill="#807dba" fill-opacity="0.9" stroke="#fff" stroke-width="0.4"><title>diagnostics_clean — legalizeResourceTypes</title></polygon>
<polygon points="68.0,411.6 210.9,373.5 496.6,289.4 1068.0,121.8 1068.0,122.0 496.6,289.7 210.9,373.8 68.0,412.0" fill="#6a51a3" fill-opacity="0.9" stroke="#fff" stroke-width="0.4"><title>diagnostics_clean — legalizeExistentialTypeLayout</title></polygon>
<polygon points="68.0,410.8 210.9,371.8 496.6,286.1 1068.0,116.2 1068.0,121.8 496.6,289.4 210.9,373.5 68.0,411.6" fill="#bcbddc" fill-opacity="0.9" stroke="#fff" stroke-width="0.4"><title>diagnostics_clean — performMandatoryEarlyInlining</title></polygon>
<polygon points="68.0,410.8 210.9,371.7 496.6,286.1 1068.0,116.1 1068.0,116.2 496.6,286.1 210.9,371.8 68.0,410.8" fill="#dadaeb" fill-opacity="0.9" stroke="#fff" stroke-width="0.4"><title>diagnostics_clean — performForceInlining</title></polygon>
<polygon points="68.0,406.9 210.9,368.9 496.6,284.9 1068.0,116.1 1068.0,116.1 496.6,286.1 210.9,371.7 68.0,410.8" fill="#4a1486" fill-opacity="0.9" stroke="#fff" stroke-width="0.4"><title>diagnostics_clean — linkAndOptimizeIR (self)</title></polygon>
<polygon points="68.0,398.8 210.9,359.7 496.6,276.4 1068.0,107.1 1068.0,116.1 496.6,284.9 210.9,368.9 68.0,406.9" fill="#e6550d" fill-opacity="0.9" stroke="#fff" stroke-width="0.4"><title>diagnostics_clean — generateOutput (self)</title></polygon>
<polygon points="68.0,397.4 210.9,359.3 496.6,275.8 1068.0,107.1 1068.0,107.1 496.6,276.4 210.9,359.7 68.0,398.8" fill="#969696" fill-opacity="0.9" stroke="#fff" stroke-width="0.4"><title>diagnostics_clean — compileInner (self)</title></polygon>
<text x="12" y="546" fill="#666" font-weight="600">phase buckets</text>
<rect x="12" y="554" width="12" height="12" fill="#c7e9c0"/>
<text x="28" y="564" fill="#222">parseTranslationUnit</text>
<rect x="279" y="554" width="12" height="12" fill="#41ab5d"/>
<text x="295" y="564" fill="#222">SemanticChecking</text>
<rect x="546" y="554" width="12" height="12" fill="#006d2c"/>
<text x="562" y="564" fill="#222">generateIR</text>
<rect x="813" y="554" width="12" height="12" fill="#74c476"/>
<text x="829" y="564" fill="#222">frontEndExecute (self)</text>
<rect x="12" y="572" width="12" height="12" fill="#6baed6"/>
<text x="28" y="582" fill="#222">specializeModule</text>
<rect x="279" y="572" width="12" height="12" fill="#2171b5"/>
<text x="295" y="582" fill="#222">simplifyIR</text>
<rect x="546" y="572" width="12" height="12" fill="#08306b"/>
<text x="562" y="582" fill="#222">linkIR</text>
<rect x="813" y="572" width="12" height="12" fill="#9e9ac8"/>
<text x="829" y="582" fill="#222">unrollLoopsInModule</text>
<rect x="12" y="590" width="12" height="12" fill="#807dba"/>
<text x="28" y="600" fill="#222">legalizeResourceTypes</text>
<rect x="279" y="590" width="12" height="12" fill="#6a51a3"/>
<text x="295" y="600" fill="#222">legalizeExistentialTypeLayout</text>
<rect x="546" y="590" width="12" height="12" fill="#bcbddc"/>
<text x="562" y="600" fill="#222">performMandatoryEarlyInlining</text>
<rect x="813" y="590" width="12" height="12" fill="#dadaeb"/>
<text x="829" y="600" fill="#222">performForceInlining</text>
<rect x="12" y="608" width="12" height="12" fill="#4a1486"/>
<text x="28" y="618" fill="#222">linkAndOptimizeIR (self)</text>
<rect x="279" y="608" width="12" height="12" fill="#fd8d3c"/>
<text x="295" y="618" fill="#222">emitEntryPointsSourceFromIR</text>
<rect x="546" y="608" width="12" height="12" fill="#e6550d"/>
<text x="562" y="618" fill="#222">generateOutput (self)</text>
<rect x="813" y="608" width="12" height="12" fill="#969696"/>
<text x="829" y="618" fill="#222">compileInner (self)</text>
</svg>