<svg xmlns="http://www.w3.org/2000/svg" width="1092" height="648" viewBox="0 0 1092 648" preserveAspectRatio="xMidYMid meet" font-family="sans-serif" font-size="13">
<rect width="1092" height="648" fill="white"/>
<text x="12" y="30" font-size="20" font-weight="bold">ir_builder — phase composition vs N (v2026.12, median ms)</text>
<text x="68" y="60" font-size="15" font-weight="600">ir_builder<tspan fill="#888" font-weight="400">  30.3× over N 500→4000</tspan></text>
<line x1="68.0" y1="496.0" x2="1068.0" y2="496.0" stroke="#eee"/>
<text x="64.0" y="499.0" text-anchor="end" fill="#999">0.0</text>
<line x1="68.0" y1="286.0" x2="1068.0" y2="286.0" stroke="#eee"/>
<text x="64.0" y="289.0" text-anchor="end" fill="#999">721</text>
<line x1="68.0" y1="76.0" x2="1068.0" y2="76.0" stroke="#eee"/>
<text x="64.0" y="79.0" text-anchor="end" fill="#999">1442</text>
<line x1="68.0" y1="76.0" x2="68.0" y2="496.0" stroke="#333"/>
<line x1="68.0" y1="496.0" x2="1068.0" y2="496.0" stroke="#333"/>
<line x1="68.0" y1="496.0" x2="68.0" y2="499.0" stroke="#999"/>
<text x="68.0" y="512.0" text-anchor="middle" fill="#666">500</text>
<line x1="210.9" y1="496.0" x2="210.9" y2="499.0" stroke="#999"/>
<text x="210.9" y="512.0" text-anchor="middle" fill="#666">1000</text>
<line x1="496.6" y1="496.0" x2="496.6" y2="499.0" stroke="#999"/>
<text x="496.6" y="512.0" text-anchor="middle" fill="#666">2000</text>
<line x1="1068.0" y1="496.0" x2="1068.0" y2="499.0" stroke="#999"/>
<text x="1068.0" y="512.0" text-anchor="middle" fill="#666">4000</text>
<text x="568" y="530" text-anchor="middle" fill="#444">N</text>
<polygon points="68.0,495.9 210.9,495.8 496.6,495.7 1068.0,495.4 1068.0,496.0 496.6,496.0 210.9,496.0 68.0,496.0" fill="#c7e9c0" fill-opacity="0.9" stroke="#fff" stroke-width="0.4"><title>ir_builder — parseTranslationUnit</title></polygon>
<polygon points="68.0,493.6 210.9,493.3 496.6,492.6 1068.0,491.2 1068.0,495.4 496.6,495.7 210.9,495.8 68.0,495.9" fill="#41ab5d" fill-opacity="0.9" stroke="#fff" stroke-width="0.4"><title>ir_builder — SemanticChecking</title></polygon>
<polygon points="68.0,493.0 210.9,492.5 496.6,491.3 1068.0,489.0 1068.0,491.2 496.6,492.6 210.9,493.3 68.0,493.6" fill="#006d2c" fill-opacity="0.9" stroke="#fff" stroke-width="0.4"><title>ir_builder — generateIR</title></polygon>
<polygon points="68.0,492.9 210.9,492.3 496.6,491.2 1068.0,488.8 1068.0,489.0 496.6,491.3 210.9,492.5 68.0,493.0" fill="#74c476" fill-opacity="0.9" stroke="#fff" stroke-width="0.4"><title>ir_builder — frontEndExecute (self)</title></polygon>
<polygon points="68.0,492.4 210.9,491.6 496.6,490.0 1068.0,486.8 1068.0,488.8 496.6,491.2 210.9,492.3 68.0,492.9" fill="#6baed6" fill-opacity="0.9" stroke="#fff" stroke-width="0.4"><title>ir_builder — specializeModule</title></polygon>
<polygon points="68.0,491.8 210.9,490.7 496.6,488.3 1068.0,483.5 1068.0,486.8 496.6,490.0 210.9,491.6 68.0,492.4" fill="#2171b5" fill-opacity="0.9" stroke="#fff" stroke-width="0.4"><title>ir_builder — simplifyIR</title></polygon>
<polygon points="68.0,491.6 210.9,490.4 496.6,488.0 1068.0,482.9 1068.0,483.5 496.6,488.3 210.9,490.7 68.0,491.8" fill="#08306b" fill-opacity="0.9" stroke="#fff" stroke-width="0.4"><title>ir_builder — linkIR</title></polygon>
<polygon points="68.0,491.6 210.9,490.4 496.6,488.0 1068.0,482.9 1068.0,482.9 496.6,488.0 210.9,490.4 68.0,491.6" fill="#9e9ac8" fill-opacity="0.9" stroke="#fff" stroke-width="0.4"><title>ir_builder — unrollLoopsInModule</title></polygon>
<polygon points="68.0,489.9 210.9,484.6 496.6,465.7 1068.0,391.0 1068.0,482.9 496.6,488.0 210.9,490.4 68.0,491.6" fill="#807dba" fill-opacity="0.9" stroke="#fff" stroke-width="0.4"><title>ir_builder — legalizeResourceTypes</title></polygon>
<polygon points="68.0,488.2 210.9,478.9 496.6,443.0 1068.0,298.9 1068.0,391.0 496.6,465.7 210.9,484.6 68.0,489.9" fill="#6a51a3" fill-opacity="0.9" stroke="#fff" stroke-width="0.4"><title>ir_builder — legalizeExistentialTypeLayout</title></polygon>
<polygon points="68.0,488.2 210.9,478.9 496.6,443.0 1068.0,298.9 1068.0,298.9 496.6,443.0 210.9,478.9 68.0,488.2" fill="#bcbddc" fill-opacity="0.9" stroke="#fff" stroke-width="0.4"><title>ir_builder — performMandatoryEarlyInlining</title></polygon>
<polygon points="68.0,488.2 210.9,478.9 496.6,443.0 1068.0,298.8 1068.0,298.9 496.6,443.0 210.9,478.9 68.0,488.2" fill="#dadaeb" fill-opacity="0.9" stroke="#fff" stroke-width="0.4"><title>ir_builder — performForceInlining</title></polygon>
<polygon points="68.0,486.0 210.9,472.3 496.6,419.6 1068.0,204.2 1068.0,298.8 496.6,443.0 210.9,478.9 68.0,488.2" fill="#4a1486" fill-opacity="0.9" stroke="#fff" stroke-width="0.4"><title>ir_builder — linkAndOptimizeIR (self)</title></polygon>
<polygon points="68.0,483.2 210.9,465.1 496.6,394.8 1068.0,107.2 1068.0,204.2 496.6,419.6 210.9,472.3 68.0,486.0" fill="#e6550d" fill-opacity="0.9" stroke="#fff" stroke-width="0.4"><title>ir_builder — generateOutput (self)</title></polygon>
<polygon points="68.0,483.2 210.9,465.1 496.6,394.8 1068.0,107.1 1068.0,107.2 496.6,394.8 210.9,465.1 68.0,483.2" fill="#969696" fill-opacity="0.9" stroke="#fff" stroke-width="0.4"><title>ir_builder — compileInner (self)</title></polygon>
<text x="12" y="546" fill="#666" font-weight="600">phase buckets</text>
<rect x="12" y="554" width="12" height="12" fill="#c7e9c0"/>
<text x="28" y="564" fill="#222">parseTranslationUnit</text>
<rect x="279" y="554" width="12" height="12" fill="#41ab5d"/>
<text x="295" y="564" fill="#222">SemanticChecking</text>
<rect x="546" y="554" width="12" height="12" fill="#006d2c"/>
<text x="562" y="564" fill="#222">generateIR</text>
<rect x="813" y="554" width="12" height="12" fill="#74c476"/>
<text x="829" y="564" fill="#222">frontEndExecute (self)</text>
<rect x="12" y="572" width="12" height="12" fill="#6baed6"/>
<text x="28" y="582" fill="#222">specializeModule</text>
<rect x="279" y="572" width="12" height="12" fill="#2171b5"/>
<text x="295" y="582" fill="#222">simplifyIR</text>
<rect x="546" y="572" width="12" height="12" fill="#08306b"/>
<text x="562" y="582" fill="#222">linkIR</text>
<rect x="813" y="572" width="12" height="12" fill="#9e9ac8"/>
<text x="829" y="582" fill="#222">unrollLoopsInModule</text>
<rect x="12" y="590" width="12" height="12" fill="#807dba"/>
<text x="28" y="600" fill="#222">legalizeResourceTypes</text>
<rect x="279" y="590" width="12" height="12" fill="#6a51a3"/>
<text x="295" y="600" fill="#222">legalizeExistentialTypeLayout</text>
<rect x="546" y="590" width="12" height="12" fill="#bcbddc"/>
<text x="562" y="600" fill="#222">performMandatoryEarlyInlining</text>
<rect x="813" y="590" width="12" height="12" fill="#dadaeb"/>
<text x="829" y="600" fill="#222">performForceInlining</text>
<rect x="12" y="608" width="12" height="12" fill="#4a1486"/>
<text x="28" y="618" fill="#222">linkAndOptimizeIR (self)</text>
<rect x="279" y="608" width="12" height="12" fill="#fd8d3c"/>
<text x="295" y="618" fill="#222">emitEntryPointsSourceFromIR</text>
<rect x="546" y="608" width="12" height="12" fill="#e6550d"/>
<text x="562" y="618" fill="#222">generateOutput (self)</text>
<rect x="813" y="608" width="12" height="12" fill="#969696"/>
<text x="829" y="618" fill="#222">compileInner (self)</text>
</svg>