<svg xmlns="http://www.w3.org/2000/svg" width="1092" height="648" viewBox="0 0 1092 648" preserveAspectRatio="xMidYMid meet" font-family="sans-serif" font-size="13">
<rect width="1092" height="648" fill="white"/>
<text x="12" y="30" font-size="20" font-weight="bold">specialization — phase composition vs N (v2026.12, median ms)</text>
<text x="68" y="60" font-size="15" font-weight="600">specialization<tspan fill="#888" font-weight="400">  14.4× over N 75→600</tspan></text>
<line x1="68.0" y1="496.0" x2="1068.0" y2="496.0" stroke="#eee"/>
<text x="64.0" y="499.0" text-anchor="end" fill="#999">0.0</text>
<line x1="68.0" y1="286.0" x2="1068.0" y2="286.0" stroke="#eee"/>
<text x="64.0" y="289.0" text-anchor="end" fill="#999">356</text>
<line x1="68.0" y1="76.0" x2="1068.0" y2="76.0" stroke="#eee"/>
<text x="64.0" y="79.0" text-anchor="end" fill="#999">712</text>
<line x1="68.0" y1="76.0" x2="68.0" y2="496.0" stroke="#333"/>
<line x1="68.0" y1="496.0" x2="1068.0" y2="496.0" stroke="#333"/>
<line x1="68.0" y1="496.0" x2="68.0" y2="499.0" stroke="#999"/>
<text x="68.0" y="512.0" text-anchor="middle" fill="#666">75</text>
<line x1="210.9" y1="496.0" x2="210.9" y2="499.0" stroke="#999"/>
<text x="210.9" y="512.0" text-anchor="middle" fill="#666">150</text>
<line x1="496.6" y1="496.0" x2="496.6" y2="499.0" stroke="#999"/>
<text x="496.6" y="512.0" text-anchor="middle" fill="#666">300</text>
<line x1="1068.0" y1="496.0" x2="1068.0" y2="499.0" stroke="#999"/>
<text x="1068.0" y="512.0" text-anchor="middle" fill="#666">600</text>
<text x="568" y="530" text-anchor="middle" fill="#444">N</text>
<polygon points="68.0,495.7 210.9,495.5 496.6,494.9 1068.0,494.0 1068.0,496.0 496.6,496.0 210.9,496.0 68.0,496.0" fill="#c7e9c0" fill-opacity="0.9" stroke="#fff" stroke-width="0.4"><title>specialization — parseTranslationUnit</title></polygon>
<polygon points="68.0,490.1 210.9,487.7 496.6,482.3 1068.0,473.1 1068.0,494.0 496.6,494.9 210.9,495.5 68.0,495.7" fill="#41ab5d" fill-opacity="0.9" stroke="#fff" stroke-width="0.4"><title>specialization — SemanticChecking</title></polygon>
<polygon points="68.0,487.5 210.9,483.5 496.6,473.8 1068.0,458.0 1068.0,473.1 496.6,482.3 210.9,487.7 68.0,490.1" fill="#006d2c" fill-opacity="0.9" stroke="#fff" stroke-width="0.4"><title>specialization — generateIR</title></polygon>
<polygon points="68.0,487.2 210.9,483.3 496.6,473.6 1068.0,457.7 1068.0,458.0 496.6,473.8 210.9,483.5 68.0,487.5" fill="#74c476" fill-opacity="0.9" stroke="#fff" stroke-width="0.4"><title>specialization — frontEndExecute (self)</title></polygon>
<polygon points="68.0,483.5 210.9,476.8 496.6,460.5 1068.0,433.0 1068.0,457.7 496.6,473.6 210.9,483.3 68.0,487.2" fill="#6baed6" fill-opacity="0.9" stroke="#fff" stroke-width="0.4"><title>specialization — specializeModule</title></polygon>
<polygon points="68.0,479.5 210.9,467.3 496.6,431.4 1068.0,355.3 1068.0,433.0 496.6,460.5 210.9,476.8 68.0,483.5" fill="#2171b5" fill-opacity="0.9" stroke="#fff" stroke-width="0.4"><title>specialization — simplifyIR</title></polygon>
<polygon points="68.0,478.9 210.9,466.3 496.6,429.7 1068.0,352.0 1068.0,355.3 496.6,431.4 210.9,467.3 68.0,479.5" fill="#08306b" fill-opacity="0.9" stroke="#fff" stroke-width="0.4"><title>specialization — linkIR</title></polygon>
<polygon points="68.0,478.8 210.9,466.2 496.6,429.6 1068.0,351.8 1068.0,352.0 496.6,429.7 210.9,466.3 68.0,478.9" fill="#9e9ac8" fill-opacity="0.9" stroke="#fff" stroke-width="0.4"><title>specialization — unrollLoopsInModule</title></polygon>
<polygon points="68.0,478.1 210.9,463.5 496.6,414.5 1068.0,295.1 1068.0,351.8 496.6,429.6 210.9,466.2 68.0,478.8" fill="#807dba" fill-opacity="0.9" stroke="#fff" stroke-width="0.4"><title>specialization — legalizeResourceTypes</title></polygon>
<polygon points="68.0,477.1 210.9,460.4 496.6,399.3 1068.0,236.8 1068.0,295.1 496.6,414.5 210.9,463.5 68.0,478.1" fill="#6a51a3" fill-opacity="0.9" stroke="#fff" stroke-width="0.4"><title>specialization — legalizeExistentialTypeLayout</title></polygon>
<polygon points="68.0,476.9 210.9,460.0 496.6,398.2 1068.0,233.9 1068.0,236.8 496.6,399.3 210.9,460.4 68.0,477.1" fill="#bcbddc" fill-opacity="0.9" stroke="#fff" stroke-width="0.4"><title>specialization — performMandatoryEarlyInlining</title></polygon>
<polygon points="68.0,476.8 210.9,459.8 496.6,397.9 1068.0,233.2 1068.0,233.9 496.6,398.2 210.9,460.0 68.0,476.9" fill="#dadaeb" fill-opacity="0.9" stroke="#fff" stroke-width="0.4"><title>specialization — performForceInlining</title></polygon>
<polygon points="68.0,473.5 210.9,453.2 496.6,376.9 1068.0,178.9 1068.0,233.2 496.6,397.9 210.9,459.8 68.0,476.8" fill="#4a1486" fill-opacity="0.9" stroke="#fff" stroke-width="0.4"><title>specialization — linkAndOptimizeIR (self)</title></polygon>
<polygon points="68.0,469.0 210.9,444.8 496.6,350.9 1068.0,107.7 1068.0,178.9 496.6,376.9 210.9,453.2 68.0,473.5" fill="#e6550d" fill-opacity="0.9" stroke="#fff" stroke-width="0.4"><title>specialization — generateOutput (self)</title></polygon>
<polygon points="68.0,469.0 210.9,444.6 496.6,349.0 1068.0,107.1 1068.0,107.7 496.6,350.9 210.9,444.8 68.0,469.0" fill="#969696" fill-opacity="0.9" stroke="#fff" stroke-width="0.4"><title>specialization — compileInner (self)</title></polygon>
<text x="12" y="546" fill="#666" font-weight="600">phase buckets</text>
<rect x="12" y="554" width="12" height="12" fill="#c7e9c0"/>
<text x="28" y="564" fill="#222">parseTranslationUnit</text>
<rect x="279" y="554" width="12" height="12" fill="#41ab5d"/>
<text x="295" y="564" fill="#222">SemanticChecking</text>
<rect x="546" y="554" width="12" height="12" fill="#006d2c"/>
<text x="562" y="564" fill="#222">generateIR</text>
<rect x="813" y="554" width="12" height="12" fill="#74c476"/>
<text x="829" y="564" fill="#222">frontEndExecute (self)</text>
<rect x="12" y="572" width="12" height="12" fill="#6baed6"/>
<text x="28" y="582" fill="#222">specializeModule</text>
<rect x="279" y="572" width="12" height="12" fill="#2171b5"/>
<text x="295" y="582" fill="#222">simplifyIR</text>
<rect x="546" y="572" width="12" height="12" fill="#08306b"/>
<text x="562" y="582" fill="#222">linkIR</text>
<rect x="813" y="572" width="12" height="12" fill="#9e9ac8"/>
<text x="829" y="582" fill="#222">unrollLoopsInModule</text>
<rect x="12" y="590" width="12" height="12" fill="#807dba"/>
<text x="28" y="600" fill="#222">legalizeResourceTypes</text>
<rect x="279" y="590" width="12" height="12" fill="#6a51a3"/>
<text x="295" y="600" fill="#222">legalizeExistentialTypeLayout</text>
<rect x="546" y="590" width="12" height="12" fill="#bcbddc"/>
<text x="562" y="600" fill="#222">performMandatoryEarlyInlining</text>
<rect x="813" y="590" width="12" height="12" fill="#dadaeb"/>
<text x="829" y="600" fill="#222">performForceInlining</text>
<rect x="12" y="608" width="12" height="12" fill="#4a1486"/>
<text x="28" y="618" fill="#222">linkAndOptimizeIR (self)</text>
<rect x="279" y="608" width="12" height="12" fill="#fd8d3c"/>
<text x="295" y="618" fill="#222">emitEntryPointsSourceFromIR</text>
<rect x="546" y="608" width="12" height="12" fill="#e6550d"/>
<text x="562" y="618" fill="#222">generateOutput (self)</text>
<rect x="813" y="608" width="12" height="12" fill="#969696"/>
<text x="829" y="618" fill="#222">compileInner (self)</text>
</svg>