<svg xmlns="http://www.w3.org/2000/svg" width="1092" height="648" viewBox="0 0 1092 648" preserveAspectRatio="xMidYMid meet" font-family="sans-serif" font-size="13">
<rect width="1092" height="648" fill="white"/>
<text x="12" y="30" font-size="20" font-weight="bold">specialization — phase composition vs N (v2026.13.1, median ms)</text>
<text x="68" y="60" font-size="15" font-weight="600">specialization<tspan fill="#888" font-weight="400">  8.9× over N 75→600</tspan></text>
<line x1="68.0" y1="496.0" x2="1068.0" y2="496.0" stroke="#eee"/>
<text x="64.0" y="499.0" text-anchor="end" fill="#999">0.0</text>
<line x1="68.0" y1="286.0" x2="1068.0" y2="286.0" stroke="#eee"/>
<text x="64.0" y="289.0" text-anchor="end" fill="#999">186</text>
<line x1="68.0" y1="76.0" x2="1068.0" y2="76.0" stroke="#eee"/>
<text x="64.0" y="79.0" text-anchor="end" fill="#999">372</text>
<line x1="68.0" y1="76.0" x2="68.0" y2="496.0" stroke="#333"/>
<line x1="68.0" y1="496.0" x2="1068.0" y2="496.0" stroke="#333"/>
<line x1="68.0" y1="496.0" x2="68.0" y2="499.0" stroke="#999"/>
<text x="68.0" y="512.0" text-anchor="middle" fill="#666">75</text>
<line x1="210.9" y1="496.0" x2="210.9" y2="499.0" stroke="#999"/>
<text x="210.9" y="512.0" text-anchor="middle" fill="#666">150</text>
<line x1="496.6" y1="496.0" x2="496.6" y2="499.0" stroke="#999"/>
<text x="496.6" y="512.0" text-anchor="middle" fill="#666">300</text>
<line x1="1068.0" y1="496.0" x2="1068.0" y2="499.0" stroke="#999"/>
<text x="1068.0" y="512.0" text-anchor="middle" fill="#666">600</text>
<text x="568" y="530" text-anchor="middle" fill="#444">N</text>
<polygon points="68.0,495.4 210.9,494.9 496.6,494.0 1068.0,492.2 1068.0,496.0 496.6,496.0 210.9,496.0 68.0,496.0" fill="#c7e9c0" fill-opacity="0.9" stroke="#fff" stroke-width="0.4"><title>specialization — parseTranslationUnit</title></polygon>
<polygon points="68.0,484.7 210.9,479.9 496.6,470.8 1068.0,453.2 1068.0,492.2 496.6,494.0 210.9,494.9 68.0,495.4" fill="#41ab5d" fill-opacity="0.9" stroke="#fff" stroke-width="0.4"><title>specialization — SemanticChecking</title></polygon>
<polygon points="68.0,479.4 210.9,471.8 496.6,456.4 1068.0,423.9 1068.0,453.2 496.6,470.8 210.9,479.9 68.0,484.7" fill="#006d2c" fill-opacity="0.9" stroke="#fff" stroke-width="0.4"><title>specialization — generateIR</title></polygon>
<polygon points="68.0,478.8 210.9,471.4 496.6,456.0 1068.0,422.6 1068.0,423.9 496.6,456.4 210.9,471.8 68.0,479.4" fill="#74c476" fill-opacity="0.9" stroke="#fff" stroke-width="0.4"><title>specialization — frontEndExecute (self)</title></polygon>
<polygon points="68.0,472.5 210.9,458.7 496.6,430.6 1068.0,371.8 1068.0,422.6 496.6,456.0 210.9,471.4 68.0,478.8" fill="#6baed6" fill-opacity="0.9" stroke="#fff" stroke-width="0.4"><title>specialization — specializeModule</title></polygon>
<polygon points="68.0,468.4 210.9,450.3 496.6,412.9 1068.0,334.0 1068.0,371.8 496.6,430.6 210.9,458.7 68.0,472.5" fill="#2171b5" fill-opacity="0.9" stroke="#fff" stroke-width="0.4"><title>specialization — simplifyIR</title></polygon>
<polygon points="68.0,467.4 210.9,448.8 496.6,410.2 1068.0,328.7 1068.0,334.0 496.6,412.9 210.9,450.3 68.0,468.4" fill="#08306b" fill-opacity="0.9" stroke="#fff" stroke-width="0.4"><title>specialization — linkIR</title></polygon>
<polygon points="68.0,467.3 210.9,448.6 496.6,409.8 1068.0,327.9 1068.0,328.7 496.6,410.2 210.9,448.8 68.0,467.4" fill="#9e9ac8" fill-opacity="0.9" stroke="#fff" stroke-width="0.4"><title>specialization — unrollLoopsInModule</title></polygon>
<polygon points="68.0,466.8 210.9,447.6 496.6,407.6 1068.0,323.3 1068.0,327.9 496.6,409.8 210.9,448.6 68.0,467.3" fill="#807dba" fill-opacity="0.9" stroke="#fff" stroke-width="0.4"><title>specialization — legalizeResourceTypes</title></polygon>
<polygon points="68.0,465.3 210.9,442.8 496.6,385.0 1068.0,223.3 1068.0,323.3 496.6,407.6 210.9,447.6 68.0,466.8" fill="#6a51a3" fill-opacity="0.9" stroke="#fff" stroke-width="0.4"><title>specialization — legalizeExistentialTypeLayout</title></polygon>
<polygon points="68.0,464.9 210.9,441.8 496.6,382.7 1068.0,217.2 1068.0,223.3 496.6,385.0 210.9,442.8 68.0,465.3" fill="#bcbddc" fill-opacity="0.9" stroke="#fff" stroke-width="0.4"><title>specialization — performMandatoryEarlyInlining</title></polygon>
<polygon points="68.0,464.8 210.9,441.6 496.6,382.1 1068.0,215.9 1068.0,217.2 496.6,382.7 210.9,441.8 68.0,464.9" fill="#dadaeb" fill-opacity="0.9" stroke="#fff" stroke-width="0.4"><title>specialization — performForceInlining</title></polygon>
<polygon points="68.0,459.6 210.9,431.3 496.6,361.4 1068.0,174.4 1068.0,215.9 496.6,382.1 210.9,441.6 68.0,464.8" fill="#4a1486" fill-opacity="0.9" stroke="#fff" stroke-width="0.4"><title>specialization — linkAndOptimizeIR (self)</title></polygon>
<polygon points="68.0,452.4 210.9,417.9 496.6,334.3 1068.0,107.5 1068.0,174.4 496.6,361.4 210.9,431.3 68.0,459.6" fill="#e6550d" fill-opacity="0.9" stroke="#fff" stroke-width="0.4"><title>specialization — generateOutput (self)</title></polygon>
<polygon points="68.0,452.4 210.9,417.9 496.6,333.5 1068.0,107.1 1068.0,107.5 496.6,334.3 210.9,417.9 68.0,452.4" fill="#969696" fill-opacity="0.9" stroke="#fff" stroke-width="0.4"><title>specialization — compileInner (self)</title></polygon>
<text x="12" y="546" fill="#666" font-weight="600">phase buckets</text>
<rect x="12" y="554" width="12" height="12" fill="#c7e9c0"/>
<text x="28" y="564" fill="#222">parseTranslationUnit</text>
<rect x="279" y="554" width="12" height="12" fill="#41ab5d"/>
<text x="295" y="564" fill="#222">SemanticChecking</text>
<rect x="546" y="554" width="12" height="12" fill="#006d2c"/>
<text x="562" y="564" fill="#222">generateIR</text>
<rect x="813" y="554" width="12" height="12" fill="#74c476"/>
<text x="829" y="564" fill="#222">frontEndExecute (self)</text>
<rect x="12" y="572" width="12" height="12" fill="#6baed6"/>
<text x="28" y="582" fill="#222">specializeModule</text>
<rect x="279" y="572" width="12" height="12" fill="#2171b5"/>
<text x="295" y="582" fill="#222">simplifyIR</text>
<rect x="546" y="572" width="12" height="12" fill="#08306b"/>
<text x="562" y="582" fill="#222">linkIR</text>
<rect x="813" y="572" width="12" height="12" fill="#9e9ac8"/>
<text x="829" y="582" fill="#222">unrollLoopsInModule</text>
<rect x="12" y="590" width="12" height="12" fill="#807dba"/>
<text x="28" y="600" fill="#222">legalizeResourceTypes</text>
<rect x="279" y="590" width="12" height="12" fill="#6a51a3"/>
<text x="295" y="600" fill="#222">legalizeExistentialTypeLayout</text>
<rect x="546" y="590" width="12" height="12" fill="#bcbddc"/>
<text x="562" y="600" fill="#222">performMandatoryEarlyInlining</text>
<rect x="813" y="590" width="12" height="12" fill="#dadaeb"/>
<text x="829" y="600" fill="#222">performForceInlining</text>
<rect x="12" y="608" width="12" height="12" fill="#4a1486"/>
<text x="28" y="618" fill="#222">linkAndOptimizeIR (self)</text>
<rect x="279" y="608" width="12" height="12" fill="#fd8d3c"/>
<text x="295" y="618" fill="#222">emitEntryPointsSourceFromIR</text>
<rect x="546" y="608" width="12" height="12" fill="#e6550d"/>
<text x="562" y="618" fill="#222">generateOutput (self)</text>
<rect x="813" y="608" width="12" height="12" fill="#969696"/>
<text x="829" y="618" fill="#222">compileInner (self)</text>
</svg>