<svg xmlns="http://www.w3.org/2000/svg" width="1092" height="648" viewBox="0 0 1092 648" preserveAspectRatio="xMidYMid meet" font-family="sans-serif" font-size="13">
<rect width="1092" height="648" fill="white"/>
<text x="12" y="30" font-size="20" font-weight="bold">complexity_ladder — phase composition vs N (v2026.5, median ms)</text>
<text x="68" y="60" font-size="15" font-weight="600">complexity_ladder<tspan fill="#888" font-weight="400">  12.0× over N 160→1280</tspan></text>
<line x1="68.0" y1="496.0" x2="1068.0" y2="496.0" stroke="#eee"/>
<text x="64.0" y="499.0" text-anchor="end" fill="#999">0.0</text>
<line x1="68.0" y1="286.0" x2="1068.0" y2="286.0" stroke="#eee"/>
<text x="64.0" y="289.0" text-anchor="end" fill="#999">1576</text>
<line x1="68.0" y1="76.0" x2="1068.0" y2="76.0" stroke="#eee"/>
<text x="64.0" y="79.0" text-anchor="end" fill="#999">3152</text>
<line x1="68.0" y1="76.0" x2="68.0" y2="496.0" stroke="#333"/>
<line x1="68.0" y1="496.0" x2="1068.0" y2="496.0" stroke="#333"/>
<line x1="68.0" y1="496.0" x2="68.0" y2="499.0" stroke="#999"/>
<text x="68.0" y="512.0" text-anchor="middle" fill="#666">160</text>
<line x1="210.9" y1="496.0" x2="210.9" y2="499.0" stroke="#999"/>
<text x="210.9" y="512.0" text-anchor="middle" fill="#666">320</text>
<line x1="496.6" y1="496.0" x2="496.6" y2="499.0" stroke="#999"/>
<text x="496.6" y="512.0" text-anchor="middle" fill="#666">640</text>
<line x1="1068.0" y1="496.0" x2="1068.0" y2="499.0" stroke="#999"/>
<text x="1068.0" y="512.0" text-anchor="middle" fill="#666">1280</text>
<text x="568" y="530" text-anchor="middle" fill="#444">N</text>
<polygon points="68.0,495.8 210.9,495.6 496.6,495.2 1068.0,494.3 1068.0,496.0 496.6,496.0 210.9,496.0 68.0,496.0" fill="#c7e9c0" fill-opacity="0.9" stroke="#fff" stroke-width="0.4"><title>complexity_ladder — parseTranslationUnit</title></polygon>
<polygon points="68.0,487.0 210.9,482.4 496.6,472.7 1068.0,454.2 1068.0,494.3 496.6,495.2 210.9,495.6 68.0,495.8" fill="#41ab5d" fill-opacity="0.9" stroke="#fff" stroke-width="0.4"><title>complexity_ladder — SemanticChecking</title></polygon>
<polygon points="68.0,484.9 210.9,478.5 496.6,465.2 1068.0,439.3 1068.0,454.2 496.6,472.7 210.9,482.4 68.0,487.0" fill="#006d2c" fill-opacity="0.9" stroke="#fff" stroke-width="0.4"><title>complexity_ladder — generateIR</title></polygon>
<polygon points="68.0,484.8 210.9,478.4 496.6,465.0 1068.0,439.2 1068.0,439.3 496.6,465.2 210.9,478.5 68.0,484.9" fill="#74c476" fill-opacity="0.9" stroke="#fff" stroke-width="0.4"><title>complexity_ladder — frontEndExecute (self)</title></polygon>
<polygon points="68.0,483.0 210.9,474.7 496.6,457.7 1068.0,424.2 1068.0,439.2 496.6,465.0 210.9,478.4 68.0,484.8" fill="#6baed6" fill-opacity="0.9" stroke="#fff" stroke-width="0.4"><title>complexity_ladder — specializeModule</title></polygon>
<polygon points="68.0,479.7 210.9,467.6 496.6,440.6 1068.0,373.8 1068.0,424.2 496.6,457.7 210.9,474.7 68.0,483.0" fill="#2171b5" fill-opacity="0.9" stroke="#fff" stroke-width="0.4"><title>complexity_ladder — simplifyIR</title></polygon>
<polygon points="68.0,479.3 210.9,467.0 496.6,439.6 1068.0,371.9 1068.0,373.8 496.6,440.6 210.9,467.6 68.0,479.7" fill="#08306b" fill-opacity="0.9" stroke="#fff" stroke-width="0.4"><title>complexity_ladder — linkIR</title></polygon>
<polygon points="68.0,479.2 210.9,466.9 496.6,439.5 1068.0,371.6 1068.0,371.9 496.6,439.6 210.9,467.0 68.0,479.3" fill="#9e9ac8" fill-opacity="0.9" stroke="#fff" stroke-width="0.4"><title>complexity_ladder — unrollLoopsInModule</title></polygon>
<polygon points="68.0,478.6 210.9,464.6 496.6,431.3 1068.0,340.9 1068.0,371.6 496.6,439.5 210.9,466.9 68.0,479.2" fill="#807dba" fill-opacity="0.9" stroke="#fff" stroke-width="0.4"><title>complexity_ladder — legalizeResourceTypes</title></polygon>
<polygon points="68.0,477.8 210.9,462.2 496.6,423.0 1068.0,310.1 1068.0,340.9 496.6,431.3 210.9,464.6 68.0,478.6" fill="#6a51a3" fill-opacity="0.9" stroke="#fff" stroke-width="0.4"><title>complexity_ladder — legalizeExistentialTypeLayout</title></polygon>
<polygon points="68.0,477.7 210.9,461.9 496.6,422.4 1068.0,308.8 1068.0,310.1 496.6,423.0 210.9,462.2 68.0,477.8" fill="#bcbddc" fill-opacity="0.9" stroke="#fff" stroke-width="0.4"><title>complexity_ladder — performMandatoryEarlyInlining</title></polygon>
<polygon points="68.0,477.6 210.9,461.7 496.6,422.2 1068.0,308.3 1068.0,308.8 496.6,422.4 210.9,461.9 68.0,477.7" fill="#dadaeb" fill-opacity="0.9" stroke="#fff" stroke-width="0.4"><title>complexity_ladder — performForceInlining</title></polygon>
<polygon points="68.0,474.6 210.9,455.4 496.6,404.7 1068.0,272.4 1068.0,308.3 496.6,422.2 210.9,461.7 68.0,477.6" fill="#4a1486" fill-opacity="0.9" stroke="#fff" stroke-width="0.4"><title>complexity_ladder — linkAndOptimizeIR (self)</title></polygon>
<polygon points="68.0,463.7 210.9,431.0 496.6,345.6 1068.0,107.1 1068.0,272.4 496.6,404.7 210.9,455.4 68.0,474.6" fill="#e6550d" fill-opacity="0.9" stroke="#fff" stroke-width="0.4"><title>complexity_ladder — generateOutput (self)</title></polygon>
<polygon points="68.0,463.7 210.9,431.0 496.6,345.5 1068.0,107.1 1068.0,107.1 496.6,345.6 210.9,431.0 68.0,463.7" fill="#969696" fill-opacity="0.9" stroke="#fff" stroke-width="0.4"><title>complexity_ladder — compileInner (self)</title></polygon>
<text x="12" y="546" fill="#666" font-weight="600">phase buckets</text>
<rect x="12" y="554" width="12" height="12" fill="#c7e9c0"/>
<text x="28" y="564" fill="#222">parseTranslationUnit</text>
<rect x="279" y="554" width="12" height="12" fill="#41ab5d"/>
<text x="295" y="564" fill="#222">SemanticChecking</text>
<rect x="546" y="554" width="12" height="12" fill="#006d2c"/>
<text x="562" y="564" fill="#222">generateIR</text>
<rect x="813" y="554" width="12" height="12" fill="#74c476"/>
<text x="829" y="564" fill="#222">frontEndExecute (self)</text>
<rect x="12" y="572" width="12" height="12" fill="#6baed6"/>
<text x="28" y="582" fill="#222">specializeModule</text>
<rect x="279" y="572" width="12" height="12" fill="#2171b5"/>
<text x="295" y="582" fill="#222">simplifyIR</text>
<rect x="546" y="572" width="12" height="12" fill="#08306b"/>
<text x="562" y="582" fill="#222">linkIR</text>
<rect x="813" y="572" width="12" height="12" fill="#9e9ac8"/>
<text x="829" y="582" fill="#222">unrollLoopsInModule</text>
<rect x="12" y="590" width="12" height="12" fill="#807dba"/>
<text x="28" y="600" fill="#222">legalizeResourceTypes</text>
<rect x="279" y="590" width="12" height="12" fill="#6a51a3"/>
<text x="295" y="600" fill="#222">legalizeExistentialTypeLayout</text>
<rect x="546" y="590" width="12" height="12" fill="#bcbddc"/>
<text x="562" y="600" fill="#222">performMandatoryEarlyInlining</text>
<rect x="813" y="590" width="12" height="12" fill="#dadaeb"/>
<text x="829" y="600" fill="#222">performForceInlining</text>
<rect x="12" y="608" width="12" height="12" fill="#4a1486"/>
<text x="28" y="618" fill="#222">linkAndOptimizeIR (self)</text>
<rect x="279" y="608" width="12" height="12" fill="#fd8d3c"/>
<text x="295" y="618" fill="#222">emitEntryPointsSourceFromIR</text>
<rect x="546" y="608" width="12" height="12" fill="#e6550d"/>
<text x="562" y="618" fill="#222">generateOutput (self)</text>
<rect x="813" y="608" width="12" height="12" fill="#969696"/>
<text x="829" y="618" fill="#222">compileInner (self)</text>
</svg>