<svg xmlns="http://www.w3.org/2000/svg" width="1092" height="648" viewBox="0 0 1092 648" preserveAspectRatio="xMidYMid meet" font-family="sans-serif" font-size="13">
<rect width="1092" height="648" fill="white"/>
<text x="12" y="30" font-size="20" font-weight="bold">inlining — phase composition vs N (v2026.5, median ms)</text>
<text x="68" y="60" font-size="15" font-weight="600">inlining<tspan fill="#888" font-weight="400">  4.6× over N 100→800</tspan></text>
<line x1="68.0" y1="496.0" x2="1068.0" y2="496.0" stroke="#eee"/>
<text x="64.0" y="499.0" text-anchor="end" fill="#999">0.0</text>
<line x1="68.0" y1="286.0" x2="1068.0" y2="286.0" stroke="#eee"/>
<text x="64.0" y="289.0" text-anchor="end" fill="#999">107</text>
<line x1="68.0" y1="76.0" x2="1068.0" y2="76.0" stroke="#eee"/>
<text x="64.0" y="79.0" text-anchor="end" fill="#999">214</text>
<line x1="68.0" y1="76.0" x2="68.0" y2="496.0" stroke="#333"/>
<line x1="68.0" y1="496.0" x2="1068.0" y2="496.0" stroke="#333"/>
<line x1="68.0" y1="496.0" x2="68.0" y2="499.0" stroke="#999"/>
<text x="68.0" y="512.0" text-anchor="middle" fill="#666">100</text>
<line x1="210.9" y1="496.0" x2="210.9" y2="499.0" stroke="#999"/>
<text x="210.9" y="512.0" text-anchor="middle" fill="#666">200</text>
<line x1="496.6" y1="496.0" x2="496.6" y2="499.0" stroke="#999"/>
<text x="496.6" y="512.0" text-anchor="middle" fill="#666">400</text>
<line x1="1068.0" y1="496.0" x2="1068.0" y2="499.0" stroke="#999"/>
<text x="1068.0" y="512.0" text-anchor="middle" fill="#666">800</text>
<text x="568" y="530" text-anchor="middle" fill="#444">N</text>
<polygon points="68.0,494.9 210.9,494.0 496.6,492.5 1068.0,489.1 1068.0,496.0 496.6,496.0 210.9,496.0 68.0,496.0" fill="#c7e9c0" fill-opacity="0.9" stroke="#fff" stroke-width="0.4"><title>inlining — parseTranslationUnit</title></polygon>
<polygon points="68.0,444.6 210.9,426.0 496.6,385.2 1068.0,309.5 1068.0,489.1 496.6,492.5 210.9,494.0 68.0,494.9" fill="#41ab5d" fill-opacity="0.9" stroke="#fff" stroke-width="0.4"><title>inlining — SemanticChecking</title></polygon>
<polygon points="68.0,436.2 210.9,413.6 496.6,364.5 1068.0,271.8 1068.0,309.5 496.6,385.2 210.9,426.0 68.0,444.6" fill="#006d2c" fill-opacity="0.9" stroke="#fff" stroke-width="0.4"><title>inlining — generateIR</title></polygon>
<polygon points="68.0,435.4 210.9,413.0 496.6,363.6 1068.0,270.9 1068.0,271.8 496.6,364.5 210.9,413.6 68.0,436.2" fill="#74c476" fill-opacity="0.9" stroke="#fff" stroke-width="0.4"><title>inlining — frontEndExecute (self)</title></polygon>
<polygon points="68.0,431.6 210.9,406.0 496.6,349.6 1068.0,242.1 1068.0,270.9 496.6,363.6 210.9,413.0 68.0,435.4" fill="#6baed6" fill-opacity="0.9" stroke="#fff" stroke-width="0.4"><title>inlining — specializeModule</title></polygon>
<polygon points="68.0,426.5 210.9,395.5 496.6,326.0 1068.0,184.5 1068.0,242.1 496.6,349.6 210.9,406.0 68.0,431.6" fill="#2171b5" fill-opacity="0.9" stroke="#fff" stroke-width="0.4"><title>inlining — simplifyIR</title></polygon>
<polygon points="68.0,424.1 210.9,392.4 496.6,321.5 1068.0,176.6 1068.0,184.5 496.6,326.0 210.9,395.5 68.0,426.5" fill="#08306b" fill-opacity="0.9" stroke="#fff" stroke-width="0.4"><title>inlining — linkIR</title></polygon>
<polygon points="68.0,424.0 210.9,392.2 496.6,321.0 1068.0,175.7 1068.0,176.6 496.6,321.5 210.9,392.4 68.0,424.1" fill="#9e9ac8" fill-opacity="0.9" stroke="#fff" stroke-width="0.4"><title>inlining — unrollLoopsInModule</title></polygon>
<polygon points="68.0,423.3 210.9,390.8 496.6,317.8 1068.0,167.1 1068.0,175.7 496.6,321.0 210.9,392.2 68.0,424.0" fill="#807dba" fill-opacity="0.9" stroke="#fff" stroke-width="0.4"><title>inlining — legalizeResourceTypes</title></polygon>
<polygon points="68.0,422.5 210.9,389.3 496.6,314.6 1068.0,158.5 1068.0,167.1 496.6,317.8 210.9,390.8 68.0,423.3" fill="#6a51a3" fill-opacity="0.9" stroke="#fff" stroke-width="0.4"><title>inlining — legalizeExistentialTypeLayout</title></polygon>
<polygon points="68.0,422.1 210.9,388.6 496.6,313.0 1068.0,155.2 1068.0,158.5 496.6,314.6 210.9,389.3 68.0,422.5" fill="#bcbddc" fill-opacity="0.9" stroke="#fff" stroke-width="0.4"><title>inlining — performMandatoryEarlyInlining</title></polygon>
<polygon points="68.0,421.0 210.9,386.3 496.6,308.5 1068.0,146.0 1068.0,155.2 496.6,313.0 210.9,388.6 68.0,422.1" fill="#dadaeb" fill-opacity="0.9" stroke="#fff" stroke-width="0.4"><title>inlining — performForceInlining</title></polygon>
<polygon points="68.0,416.4 210.9,378.4 496.6,292.3 1068.0,116.0 1068.0,146.0 496.6,308.5 210.9,386.3 68.0,421.0" fill="#4a1486" fill-opacity="0.9" stroke="#fff" stroke-width="0.4"><title>inlining — linkAndOptimizeIR (self)</title></polygon>
<polygon points="68.0,411.4 210.9,373.4 496.6,286.8 1068.0,108.9 1068.0,116.0 496.6,292.3 210.9,378.4 68.0,416.4" fill="#e6550d" fill-opacity="0.9" stroke="#fff" stroke-width="0.4"><title>inlining — generateOutput (self)</title></polygon>
<polygon points="68.0,410.9 210.9,373.0 496.6,286.5 1068.0,107.1 1068.0,108.9 496.6,286.8 210.9,373.4 68.0,411.4" fill="#969696" fill-opacity="0.9" stroke="#fff" stroke-width="0.4"><title>inlining — compileInner (self)</title></polygon>
<text x="12" y="546" fill="#666" font-weight="600">phase buckets</text>
<rect x="12" y="554" width="12" height="12" fill="#c7e9c0"/>
<text x="28" y="564" fill="#222">parseTranslationUnit</text>
<rect x="279" y="554" width="12" height="12" fill="#41ab5d"/>
<text x="295" y="564" fill="#222">SemanticChecking</text>
<rect x="546" y="554" width="12" height="12" fill="#006d2c"/>
<text x="562" y="564" fill="#222">generateIR</text>
<rect x="813" y="554" width="12" height="12" fill="#74c476"/>
<text x="829" y="564" fill="#222">frontEndExecute (self)</text>
<rect x="12" y="572" width="12" height="12" fill="#6baed6"/>
<text x="28" y="582" fill="#222">specializeModule</text>
<rect x="279" y="572" width="12" height="12" fill="#2171b5"/>
<text x="295" y="582" fill="#222">simplifyIR</text>
<rect x="546" y="572" width="12" height="12" fill="#08306b"/>
<text x="562" y="582" fill="#222">linkIR</text>
<rect x="813" y="572" width="12" height="12" fill="#9e9ac8"/>
<text x="829" y="582" fill="#222">unrollLoopsInModule</text>
<rect x="12" y="590" width="12" height="12" fill="#807dba"/>
<text x="28" y="600" fill="#222">legalizeResourceTypes</text>
<rect x="279" y="590" width="12" height="12" fill="#6a51a3"/>
<text x="295" y="600" fill="#222">legalizeExistentialTypeLayout</text>
<rect x="546" y="590" width="12" height="12" fill="#bcbddc"/>
<text x="562" y="600" fill="#222">performMandatoryEarlyInlining</text>
<rect x="813" y="590" width="12" height="12" fill="#dadaeb"/>
<text x="829" y="600" fill="#222">performForceInlining</text>
<rect x="12" y="608" width="12" height="12" fill="#4a1486"/>
<text x="28" y="618" fill="#222">linkAndOptimizeIR (self)</text>
<rect x="279" y="608" width="12" height="12" fill="#fd8d3c"/>
<text x="295" y="618" fill="#222">emitEntryPointsSourceFromIR</text>
<rect x="546" y="608" width="12" height="12" fill="#e6550d"/>
<text x="562" y="618" fill="#222">generateOutput (self)</text>
<rect x="813" y="608" width="12" height="12" fill="#969696"/>
<text x="829" y="618" fill="#222">compileInner (self)</text>
</svg>