<svg xmlns="http://www.w3.org/2000/svg" width="1092" height="648" viewBox="0 0 1092 648" preserveAspectRatio="xMidYMid meet" font-family="sans-serif" font-size="13">
<rect width="1092" height="648" fill="white"/>
<text x="12" y="30" font-size="20" font-weight="bold">module_link — phase composition vs N (v2026.5, median ms)</text>
<text x="68" y="60" font-size="15" font-weight="600">module_link<tspan fill="#888" font-weight="400">  8.7× over N 50→400</tspan></text>
<line x1="68.0" y1="496.0" x2="1068.0" y2="496.0" stroke="#eee"/>
<text x="64.0" y="499.0" text-anchor="end" fill="#999">0.0</text>
<line x1="68.0" y1="286.0" x2="1068.0" y2="286.0" stroke="#eee"/>
<text x="64.0" y="289.0" text-anchor="end" fill="#999">211</text>
<line x1="68.0" y1="76.0" x2="1068.0" y2="76.0" stroke="#eee"/>
<text x="64.0" y="79.0" text-anchor="end" fill="#999">421</text>
<line x1="68.0" y1="76.0" x2="68.0" y2="496.0" stroke="#333"/>
<line x1="68.0" y1="496.0" x2="1068.0" y2="496.0" stroke="#333"/>
<line x1="68.0" y1="496.0" x2="68.0" y2="499.0" stroke="#999"/>
<text x="68.0" y="512.0" text-anchor="middle" fill="#666">50</text>
<line x1="210.9" y1="496.0" x2="210.9" y2="499.0" stroke="#999"/>
<text x="210.9" y="512.0" text-anchor="middle" fill="#666">100</text>
<line x1="496.6" y1="496.0" x2="496.6" y2="499.0" stroke="#999"/>
<text x="496.6" y="512.0" text-anchor="middle" fill="#666">200</text>
<line x1="1068.0" y1="496.0" x2="1068.0" y2="499.0" stroke="#999"/>
<text x="1068.0" y="512.0" text-anchor="middle" fill="#666">400</text>
<text x="568" y="530" text-anchor="middle" fill="#444">N</text>
<polygon points="68.0,495.8 210.9,495.7 496.6,495.5 1068.0,495.2 1068.0,496.0 496.6,496.0 210.9,496.0 68.0,496.0" fill="#c7e9c0" fill-opacity="0.9" stroke="#fff" stroke-width="0.4"><title>module_link — parseTranslationUnit</title></polygon>
<polygon points="68.0,467.8 210.9,439.4 496.6,380.0 1068.0,265.5 1068.0,495.2 496.6,495.5 210.9,495.7 68.0,495.8" fill="#41ab5d" fill-opacity="0.9" stroke="#fff" stroke-width="0.4"><title>module_link — SemanticChecking</title></polygon>
<polygon points="68.0,467.0 210.9,438.4 496.6,378.4 1068.0,262.7 1068.0,265.5 496.6,380.0 210.9,439.4 68.0,467.8" fill="#006d2c" fill-opacity="0.9" stroke="#fff" stroke-width="0.4"><title>module_link — generateIR</title></polygon>
<polygon points="68.0,466.4 210.9,437.4 496.6,376.3 1068.0,257.8 1068.0,262.7 496.6,378.4 210.9,438.4 68.0,467.0" fill="#74c476" fill-opacity="0.9" stroke="#fff" stroke-width="0.4"><title>module_link — frontEndExecute (self)</title></polygon>
<polygon points="68.0,465.4 210.9,435.7 496.6,373.2 1068.0,251.8 1068.0,257.8 496.6,376.3 210.9,437.4 68.0,466.4" fill="#6baed6" fill-opacity="0.9" stroke="#fff" stroke-width="0.4"><title>module_link — specializeModule</title></polygon>
<polygon points="68.0,463.9 210.9,432.8 496.6,366.7 1068.0,235.7 1068.0,251.8 496.6,373.2 210.9,435.7 68.0,465.4" fill="#2171b5" fill-opacity="0.9" stroke="#fff" stroke-width="0.4"><title>module_link — simplifyIR</title></polygon>
<polygon points="68.0,459.8 210.9,424.7 496.6,350.9 1068.0,202.3 1068.0,235.7 496.6,366.7 210.9,432.8 68.0,463.9" fill="#08306b" fill-opacity="0.9" stroke="#fff" stroke-width="0.4"><title>module_link — linkIR</title></polygon>
<polygon points="68.0,459.8 210.9,424.6 496.6,350.8 1068.0,202.1 1068.0,202.3 496.6,350.9 210.9,424.7 68.0,459.8" fill="#9e9ac8" fill-opacity="0.9" stroke="#fff" stroke-width="0.4"><title>module_link — unrollLoopsInModule</title></polygon>
<polygon points="68.0,459.4 210.9,423.6 496.6,347.4 1068.0,187.1 1068.0,202.1 496.6,350.8 210.9,424.6 68.0,459.8" fill="#807dba" fill-opacity="0.9" stroke="#fff" stroke-width="0.4"><title>module_link — legalizeResourceTypes</title></polygon>
<polygon points="68.0,459.0 210.9,422.5 496.6,343.9 1068.0,171.9 1068.0,187.1 496.6,347.4 210.9,423.6 68.0,459.4" fill="#6a51a3" fill-opacity="0.9" stroke="#fff" stroke-width="0.4"><title>module_link — legalizeExistentialTypeLayout</title></polygon>
<polygon points="68.0,458.9 210.9,422.4 496.6,343.8 1068.0,171.5 1068.0,171.9 496.6,343.9 210.9,422.5 68.0,459.0" fill="#bcbddc" fill-opacity="0.9" stroke="#fff" stroke-width="0.4"><title>module_link — performMandatoryEarlyInlining</title></polygon>
<polygon points="68.0,458.9 210.9,422.3 496.6,343.6 1068.0,171.1 1068.0,171.5 496.6,343.8 210.9,422.4 68.0,458.9" fill="#dadaeb" fill-opacity="0.9" stroke="#fff" stroke-width="0.4"><title>module_link — performForceInlining</title></polygon>
<polygon points="68.0,456.7 210.9,418.5 496.6,336.5 1068.0,156.5 1068.0,171.1 496.6,343.6 210.9,422.3 68.0,458.9" fill="#4a1486" fill-opacity="0.9" stroke="#fff" stroke-width="0.4"><title>module_link — linkAndOptimizeIR (self)</title></polygon>
<polygon points="68.0,451.9 210.9,410.6 496.6,320.0 1068.0,113.2 1068.0,156.5 496.6,336.5 210.9,418.5 68.0,456.7" fill="#e6550d" fill-opacity="0.9" stroke="#fff" stroke-width="0.4"><title>module_link — generateOutput (self)</title></polygon>
<polygon points="68.0,451.2 210.9,410.4 496.6,319.1 1068.0,107.1 1068.0,113.2 496.6,320.0 210.9,410.6 68.0,451.9" fill="#969696" fill-opacity="0.9" stroke="#fff" stroke-width="0.4"><title>module_link — compileInner (self)</title></polygon>
<text x="12" y="546" fill="#666" font-weight="600">phase buckets</text>
<rect x="12" y="554" width="12" height="12" fill="#c7e9c0"/>
<text x="28" y="564" fill="#222">parseTranslationUnit</text>
<rect x="279" y="554" width="12" height="12" fill="#41ab5d"/>
<text x="295" y="564" fill="#222">SemanticChecking</text>
<rect x="546" y="554" width="12" height="12" fill="#006d2c"/>
<text x="562" y="564" fill="#222">generateIR</text>
<rect x="813" y="554" width="12" height="12" fill="#74c476"/>
<text x="829" y="564" fill="#222">frontEndExecute (self)</text>
<rect x="12" y="572" width="12" height="12" fill="#6baed6"/>
<text x="28" y="582" fill="#222">specializeModule</text>
<rect x="279" y="572" width="12" height="12" fill="#2171b5"/>
<text x="295" y="582" fill="#222">simplifyIR</text>
<rect x="546" y="572" width="12" height="12" fill="#08306b"/>
<text x="562" y="582" fill="#222">linkIR</text>
<rect x="813" y="572" width="12" height="12" fill="#9e9ac8"/>
<text x="829" y="582" fill="#222">unrollLoopsInModule</text>
<rect x="12" y="590" width="12" height="12" fill="#807dba"/>
<text x="28" y="600" fill="#222">legalizeResourceTypes</text>
<rect x="279" y="590" width="12" height="12" fill="#6a51a3"/>
<text x="295" y="600" fill="#222">legalizeExistentialTypeLayout</text>
<rect x="546" y="590" width="12" height="12" fill="#bcbddc"/>
<text x="562" y="600" fill="#222">performMandatoryEarlyInlining</text>
<rect x="813" y="590" width="12" height="12" fill="#dadaeb"/>
<text x="829" y="600" fill="#222">performForceInlining</text>
<rect x="12" y="608" width="12" height="12" fill="#4a1486"/>
<text x="28" y="618" fill="#222">linkAndOptimizeIR (self)</text>
<rect x="279" y="608" width="12" height="12" fill="#fd8d3c"/>
<text x="295" y="618" fill="#222">emitEntryPointsSourceFromIR</text>
<rect x="546" y="608" width="12" height="12" fill="#e6550d"/>
<text x="562" y="618" fill="#222">generateOutput (self)</text>
<rect x="813" y="608" width="12" height="12" fill="#969696"/>
<text x="829" y="618" fill="#222">compileInner (self)</text>
</svg>