<svg xmlns="http://www.w3.org/2000/svg" width="1092" height="648" viewBox="0 0 1092 648" preserveAspectRatio="xMidYMid meet" font-family="sans-serif" font-size="13">
<rect width="1092" height="648" fill="white"/>
<text x="12" y="30" font-size="20" font-weight="bold">reflection_layout — phase composition vs N (v2026.5, median ms)</text>
<text x="68" y="60" font-size="15" font-weight="600">reflection_layout<tspan fill="#888" font-weight="400">  14.4× over N 30→240</tspan></text>
<line x1="68.0" y1="496.0" x2="1068.0" y2="496.0" stroke="#eee"/>
<text x="64.0" y="499.0" text-anchor="end" fill="#999">0.0</text>
<line x1="68.0" y1="286.0" x2="1068.0" y2="286.0" stroke="#eee"/>
<text x="64.0" y="289.0" text-anchor="end" fill="#999">412</text>
<line x1="68.0" y1="76.0" x2="1068.0" y2="76.0" stroke="#eee"/>
<text x="64.0" y="79.0" text-anchor="end" fill="#999">824</text>
<line x1="68.0" y1="76.0" x2="68.0" y2="496.0" stroke="#333"/>
<line x1="68.0" y1="496.0" x2="1068.0" y2="496.0" stroke="#333"/>
<line x1="68.0" y1="496.0" x2="68.0" y2="499.0" stroke="#999"/>
<text x="68.0" y="512.0" text-anchor="middle" fill="#666">30</text>
<line x1="210.9" y1="496.0" x2="210.9" y2="499.0" stroke="#999"/>
<text x="210.9" y="512.0" text-anchor="middle" fill="#666">60</text>
<line x1="496.6" y1="496.0" x2="496.6" y2="499.0" stroke="#999"/>
<text x="496.6" y="512.0" text-anchor="middle" fill="#666">120</text>
<line x1="1068.0" y1="496.0" x2="1068.0" y2="499.0" stroke="#999"/>
<text x="1068.0" y="512.0" text-anchor="middle" fill="#666">240</text>
<text x="568" y="530" text-anchor="middle" fill="#444">N</text>
<polygon points="68.0,495.6 210.9,495.1 496.6,493.6 1068.0,488.6 1068.0,496.0 496.6,496.0 210.9,496.0 68.0,496.0" fill="#c7e9c0" fill-opacity="0.9" stroke="#fff" stroke-width="0.4"><title>reflection_layout — parseTranslationUnit</title></polygon>
<polygon points="68.0,484.7 210.9,474.2 496.6,442.8 1068.0,311.1 1068.0,488.6 496.6,493.6 210.9,495.1 68.0,495.6" fill="#41ab5d" fill-opacity="0.9" stroke="#fff" stroke-width="0.4"><title>reflection_layout — SemanticChecking</title></polygon>
<polygon points="68.0,482.1 210.9,470.1 496.6,435.3 1068.0,297.5 1068.0,311.1 496.6,442.8 210.9,474.2 68.0,484.7" fill="#006d2c" fill-opacity="0.9" stroke="#fff" stroke-width="0.4"><title>reflection_layout — generateIR</title></polygon>
<polygon points="68.0,480.6 210.9,467.9 496.6,431.2 1068.0,289.6 1068.0,297.5 496.6,435.3 210.9,470.1 68.0,482.1" fill="#74c476" fill-opacity="0.9" stroke="#fff" stroke-width="0.4"><title>reflection_layout — frontEndExecute (self)</title></polygon>
<polygon points="68.0,480.3 210.9,467.3 496.6,430.0 1068.0,287.0 1068.0,289.6 496.6,431.2 210.9,467.9 68.0,480.6" fill="#6baed6" fill-opacity="0.9" stroke="#fff" stroke-width="0.4"><title>reflection_layout — specializeModule</title></polygon>
<polygon points="68.0,478.1 210.9,462.6 496.6,419.3 1068.0,259.5 1068.0,287.0 496.6,430.0 210.9,467.3 68.0,480.3" fill="#2171b5" fill-opacity="0.9" stroke="#fff" stroke-width="0.4"><title>reflection_layout — simplifyIR</title></polygon>
<polygon points="68.0,477.4 210.9,461.5 496.6,417.2 1068.0,255.8 1068.0,259.5 496.6,419.3 210.9,462.6 68.0,478.1" fill="#08306b" fill-opacity="0.9" stroke="#fff" stroke-width="0.4"><title>reflection_layout — linkIR</title></polygon>
<polygon points="68.0,477.4 210.9,461.5 496.6,417.2 1068.0,255.7 1068.0,255.8 496.6,417.2 210.9,461.5 68.0,477.4" fill="#9e9ac8" fill-opacity="0.9" stroke="#fff" stroke-width="0.4"><title>reflection_layout — unrollLoopsInModule</title></polygon>
<polygon points="68.0,476.9 210.9,460.1 496.6,411.4 1068.0,230.5 1068.0,255.7 496.6,417.2 210.9,461.5 68.0,477.4" fill="#807dba" fill-opacity="0.9" stroke="#fff" stroke-width="0.4"><title>reflection_layout — legalizeResourceTypes</title></polygon>
<polygon points="68.0,476.4 210.9,458.8 496.6,406.3 1068.0,210.2 1068.0,230.5 496.6,411.4 210.9,460.1 68.0,476.9" fill="#6a51a3" fill-opacity="0.9" stroke="#fff" stroke-width="0.4"><title>reflection_layout — legalizeExistentialTypeLayout</title></polygon>
<polygon points="68.0,476.3 210.9,458.6 496.6,405.9 1068.0,209.3 1068.0,210.2 496.6,406.3 210.9,458.8 68.0,476.4" fill="#bcbddc" fill-opacity="0.9" stroke="#fff" stroke-width="0.4"><title>reflection_layout — performMandatoryEarlyInlining</title></polygon>
<polygon points="68.0,475.6 210.9,457.3 496.6,403.4 1068.0,204.4 1068.0,209.3 496.6,405.9 210.9,458.6 68.0,476.3" fill="#dadaeb" fill-opacity="0.9" stroke="#fff" stroke-width="0.4"><title>reflection_layout — performForceInlining</title></polygon>
<polygon points="68.0,473.4 210.9,452.4 496.6,390.6 1068.0,165.4 1068.0,204.4 496.6,403.4 210.9,457.3 68.0,475.6" fill="#4a1486" fill-opacity="0.9" stroke="#fff" stroke-width="0.4"><title>reflection_layout — linkAndOptimizeIR (self)</title></polygon>
<polygon points="68.0,470.0 210.9,445.8 496.6,373.8 1068.0,114.6 1068.0,165.4 496.6,390.6 210.9,452.4 68.0,473.4" fill="#e6550d" fill-opacity="0.9" stroke="#fff" stroke-width="0.4"><title>reflection_layout — generateOutput (self)</title></polygon>
<polygon points="68.0,469.0 210.9,443.7 496.6,369.7 1068.0,107.1 1068.0,114.6 496.6,373.8 210.9,445.8 68.0,470.0" fill="#969696" fill-opacity="0.9" stroke="#fff" stroke-width="0.4"><title>reflection_layout — compileInner (self)</title></polygon>
<text x="12" y="546" fill="#666" font-weight="600">phase buckets</text>
<rect x="12" y="554" width="12" height="12" fill="#c7e9c0"/>
<text x="28" y="564" fill="#222">parseTranslationUnit</text>
<rect x="279" y="554" width="12" height="12" fill="#41ab5d"/>
<text x="295" y="564" fill="#222">SemanticChecking</text>
<rect x="546" y="554" width="12" height="12" fill="#006d2c"/>
<text x="562" y="564" fill="#222">generateIR</text>
<rect x="813" y="554" width="12" height="12" fill="#74c476"/>
<text x="829" y="564" fill="#222">frontEndExecute (self)</text>
<rect x="12" y="572" width="12" height="12" fill="#6baed6"/>
<text x="28" y="582" fill="#222">specializeModule</text>
<rect x="279" y="572" width="12" height="12" fill="#2171b5"/>
<text x="295" y="582" fill="#222">simplifyIR</text>
<rect x="546" y="572" width="12" height="12" fill="#08306b"/>
<text x="562" y="582" fill="#222">linkIR</text>
<rect x="813" y="572" width="12" height="12" fill="#9e9ac8"/>
<text x="829" y="582" fill="#222">unrollLoopsInModule</text>
<rect x="12" y="590" width="12" height="12" fill="#807dba"/>
<text x="28" y="600" fill="#222">legalizeResourceTypes</text>
<rect x="279" y="590" width="12" height="12" fill="#6a51a3"/>
<text x="295" y="600" fill="#222">legalizeExistentialTypeLayout</text>
<rect x="546" y="590" width="12" height="12" fill="#bcbddc"/>
<text x="562" y="600" fill="#222">performMandatoryEarlyInlining</text>
<rect x="813" y="590" width="12" height="12" fill="#dadaeb"/>
<text x="829" y="600" fill="#222">performForceInlining</text>
<rect x="12" y="608" width="12" height="12" fill="#4a1486"/>
<text x="28" y="618" fill="#222">linkAndOptimizeIR (self)</text>
<rect x="279" y="608" width="12" height="12" fill="#fd8d3c"/>
<text x="295" y="618" fill="#222">emitEntryPointsSourceFromIR</text>
<rect x="546" y="608" width="12" height="12" fill="#e6550d"/>
<text x="562" y="618" fill="#222">generateOutput (self)</text>
<rect x="813" y="608" width="12" height="12" fill="#969696"/>
<text x="829" y="618" fill="#222">compileInner (self)</text>
</svg>